<svg width="186px" height="98px" viewBox="0 0 186 85" version="1.1" xmlns="http://www.w3.org/2000/svg" xmlns:xlink="http://www.w3.org/1999/xlink">
    <g stroke="none" stroke-width="1" fill="none" fill-rule="evenodd">
        <g transform="translate(0.000000, -1.000000)">
            <polyline fill="#FFFFFF" points="155.3884 9.9576 155.3884 38.6246 118.2384 38.6246 118.2384 9.9576"></polyline>
            <polygon fill="#FFFFFF" points="116.721 9.9573 156.906 9.9573 156.906 2.4993 116.721 2.4993"></polygon>
            <polyline fill="#FFFFFF" points="129.9958 55.2388 129.9958 83.9058 92.8458 83.9058 92.8458 55.2388"></polyline>
            <polygon fill="#FFFFFF" points="91.328 55.2393 131.512 55.2393 131.512 47.7813 91.328 47.7813"></polygon>
            <polyline fill="#FFFFFF" points="182.7351 55.2388 182.7351 83.9058 145.5851 83.9058 145.5851 55.2388"></polyline>
            <polygon fill="#FFFFFF" points="144.068 55.2393 184.252 55.2393 184.252 47.7813 144.068 47.7813"></polygon>
            <path d="M118.221,8.4583 L155.405,8.4583 L155.405,3.9993 L118.221,3.9993 L118.221,8.4583 Z M119.738,37.1243 L153.888,37.1243 L153.888,11.4583 L119.738,11.4583 L119.738,37.1243 Z M116.721,11.4583 L116.738,11.4583 L116.738,40.1243 L156.888,40.1243 L156.888,11.4583 L156.905,11.4583 C157.733,11.4583 158.405,10.7863 158.405,9.9583 L158.405,2.4993 C158.405,1.6713 157.733,0.9993 156.905,0.9993 L116.721,0.9993 C115.893,0.9993 115.221,1.6713 115.221,2.4993 L115.221,9.9583 C115.221,10.7863 115.893,11.4583 116.721,11.4583 Z" fill="#0078D7"></path>
            <path d="M94.346,82.4063 L128.496,82.4063 L128.496,56.7403 L94.346,56.7403 L94.346,82.4063 Z M92.828,53.7403 L130.013,53.7403 L130.013,49.2813 L92.828,49.2813 L92.828,53.7403 Z M131.512,46.2813 L91.328,46.2813 C90.5,46.2813 89.828,46.9523 89.828,47.7813 L89.828,55.2393 C89.828,56.0683 90.5,56.7393 91.328,56.7393 L91.345,56.7393 L91.345,85.4063 L131.496,85.4063 L131.496,56.7393 L131.512,56.7393 C132.341,56.7393 133.012,56.0683 133.012,55.2393 L133.012,47.7813 C133.012,46.9523 132.341,46.2813 131.512,46.2813 Z" fill="#0078D7"></path>
            <path d="M147.085,82.4063 L181.235,82.4063 L181.235,56.7403 L147.085,56.7403 L147.085,82.4063 Z M145.567,53.7403 L182.752,53.7403 L182.752,49.2813 L145.567,49.2813 L145.567,53.7403 Z M184.252,46.2813 L144.067,46.2813 C143.239,46.2813 142.567,46.9523 142.567,47.7813 L142.567,55.2393 C142.567,56.0683 143.239,56.7393 144.067,56.7393 L144.085,56.7393 L144.085,85.4063 L184.235,85.4063 L184.235,56.7393 L184.252,56.7393 C185.08,56.7393 185.752,56.0683 185.752,55.2393 L185.752,47.7813 C185.752,46.9523 185.08,46.2813 184.252,46.2813 Z" fill="#0078D7"></path>
            <polygon fill="#0078D7" points="54.023 72.2363 72.507 72.2363 72.507 69.2363 54.023 69.2363"></polygon>
            <polygon fill="#0078D7" points="0 8.1403 102.507 8.1403 102.507 5.1403 0 5.1403"></polygon>
            <polygon fill="#0078D7" points="19.041 29.0073 102.507 29.0073 102.507 26.0073 19.041 26.0073"></polygon>
            <polygon fill="#0078D7" points="36.309 50.2633 72.176 50.2633 72.176 47.2633 36.309 47.2633"></polygon>
        </g>
    </g>
</svg>