<svg viewBox="0 0 16 16" class="" role="presentation" focusable="false" xmlns:svg="http://www.w3.org/2000/svg" xmlns:xlink="http://www.w3.org/1999/xlink" id="FxSymbol0-090" width="100%" height="100%"><g><title></title><title>deployment</title><g fill="none" fill-rule="evenodd"><path d="M3.95 11.342h-.022a3.447 3.447 0 1 1 .352-6.879 3.818 3.818 0 0 1 7.44 0 3.447 3.447 0 1 1 .332 6.879H3.95z" stroke="#FF8C02"></path><path d="M8.707 4.707l3.586 3.586A1 1 0 0 1 11.586 10H4.414a1 1 0 0 1-.707-1.707l3.586-3.586a1 1 0 0 1 1.414 0z" fill="#6B849C" fill-rule="nonzero"></path><rect fill="#6B849C" fill-rule="nonzero" x="6" y="9" width="4" height="7" rx="1"></rect></g></g></svg>