<svg xmlns="http://www.w3.org/2000/svg" viewBox="0 0 16 16"><g transform="rotate(45 11.414 6.586)" fill="none" fill-rule="evenodd"><path d="M4.202 6.652v6.696L10 16.695l5.798-3.347V6.652L10 3.305 4.202 6.652zm.268-.21l5.563 6.337M10 16.4V3.637m-5.53 10.35l5.43-1.214m.1.107l5.438-6.516m.097 7.347l-5.522-.916m.003-4.57L4.62 6.41m10.775-.046L10 8.178" stroke="#6B849C"/><circle fill="#FF8C02" transform="rotate(-90 4.545 13.636)" cx="4.545" cy="13.636" r="1"/><circle fill="#FF8C02" transform="rotate(-90 15.455 13.636)" cx="15.455" cy="13.636" r="1"/><circle fill="#FF8C02" transform="rotate(-90 4.545 6.364)" cx="4.545" cy="6.364" r="1"/><circle fill="#FF8C02" transform="rotate(-90 15.455 6.364)" cx="15.455" cy="6.364" r="1"/><circle fill="#FF8C02" transform="rotate(-90 10 12.727)" cx="10" cy="12.727" r="1"/><circle fill="#FF8C02" transform="rotate(-90 10 8.182)" cx="10" cy="8.182" r="1"/><circle fill="#FF8C02" transform="rotate(-90 10 3.636)" cx="10" cy="3.636" r="1"/><circle fill="#FF8C02" transform="rotate(-90 10 16.364)" cx="10" cy="16.364" r="1"/></g></svg>