<svg viewBox="0 0 16 16" class="" role="presentation" focusable="false" xmlns:svg="http://www.w3.org/2000/svg" xmlns:xlink="http://www.w3.org/1999/xlink" id="FxSymbol0-08c" width="100%" height="100%"><g><title></title><title>AML TOC</title><g fill="none"><path fill="#FF8C02" d="M8 6.718L8.72 6l3.374 3.375-.719.72zM7.156 6l.72.72-3.157 3.156-.72-.72z"></path><path fill="#FF8C02" d="M7.467 6.4h1.067V13H7.467z"></path><path d="M2 1v5h12V1H2zM1 0h14v7H1V0zm1 10v2h2v-2H2zM1 9h4v4H1V9zm11 1v2h2v-2h-2zm-1-1h4v4h-4V9zm-4 4v2h2v-2H7zm-1-1h4v4H6v-4z" fill="#6B849C"></path></g></g></svg>