<svg xmlns="http://www.w3.org/2000/svg" viewBox="0 0 64 64"><g fill="#2bc7f4"><path d="M48 18h4v4h-4z"/><path d="M52 42h4v-4h-4v-4h-4v-4h4v-4h-4v-4h-4v-4h4v-4H0v36h56v-4h-4zM52 14h4v4h-4zM60 22h4v4h-4zM60 30h4v4h-4zM60 46h4v4h-4z"/><path d="M52 22h4v4h-4zM56 26h4v4h-4zM52 30h4v4h-4zM56 42h4v4h-4zM56 34h4v4h-4z"/></g><g fill="#55d2f6"><path d="M56 45.355l1.111.645H60v-4h-4zM60 22h4v4h-4zM60 30h4v4h-4zM64 50v-4h-4v1.677zM52 14h4v4h-4zM52 30h4v4h-4zM56 34h4v4h-4zM56 26h4v4h-4zM52 22h4v4h-4z"/><path d="M52 38v-4h-4v-4h4v-4h-4v-4h-4v-4h4v-4H2l50 29.032V42h4v-4z"/><path d="M48 18h4v4h-4z"/></g><path fill="none" stroke="#556a8a" stroke-width="2" stroke-miterlimit="10" d="M48 14H0v36h56"/><path fill="#fff" d="M37 32l-12 7V25z"/></svg>