<svg xmlns="http://www.w3.org/2000/svg" viewBox="0 0 80 80"><style>.st1{display:none}.st7,.st8{display:inline}.st7{stroke-miterlimit:10;fill:#fff200;stroke:#231f20;stroke-width:.5}.st8{fill:#fff;stroke:#e6e7e8;stroke-width:.25}.st10,.st15,.st8{stroke-miterlimit:10}.st10{display:none;fill:#fff200;stroke:#231f20;stroke-width:.2}.st15{fill:none;stroke:#6e6e6e;stroke-width:3}</style><g id="Layer_1"><g class="st1"><path class="st7" d="M48.583 49.417l-14.916 4.187v-29.25l14.916-4.187z"/><path class="st8" d="M49.583 22.417l-15.916 4.474v-2.266l15.916-4.458z"/><path class="st8" d="M50.292 22.875l-15.084 4.25v-2.25l15.084-4.25z"/><path class="st8" d="M51.237 23.183l-15.083 4.25v-2.25l15.083-4.25z"/><path class="st7" d="M37.5 54.438l-3.833-.48V24.542l3.833.875zM52.583 49.563L37.5 54.438V25.417l15.083-4.25z"/></g><path class="st10" d="M36.75 25.031l10.719-3.864M37.871 25.097l10.718-3.864M38.555 25.202l10.719-3.865"/></g><g id="titles"><path class="st15" d="M20 66.387c0-4.22-3-5.22-6-5.22s-6 2-6 6c0 6 3.387 6.833 8 6.833h59M26 66.167h49M56 4v14h13.001"/><path d="M56.757 7L67 17.243v38.924H29V7h27.757M58 4H26v55.167h44V16L58 4z" fill="#6e6e6e"/></g></svg>