<svg data-name="Layer 1" xmlns="http://www.w3.org/2000/svg" viewBox="0 0 80 74.666"><path d="M72.132 18.613c.053-.56.08-1.147.08-1.733a17.07 17.07 0 00-30.88-9.842 12.907 12.907 0 00-19.653 9.627 24.718 24.718 0 013.147-.24 23 23 0 0113.547 4.427c2.906-6.694 10.293-10.987 18.478-11.227V3.892l10 8.56-10 8.507v-5.6c-4.693.186-9.253 1.946-11.893 6.213l.533-.053a18.683 18.683 0 0118.56 16.293 19.03 19.03 0 015.333 6.107 13.977 13.977 0 0010.614-13.522c.002-5.255-2.826-9.438-7.866-11.784z" fill="#0072c6"/><path d="M7.867 40.799a19.552 19.552 0 01-.08-1.76 17.082 17.082 0 0130.88-9.84 12.929 12.929 0 0119.707 10.853l-.027 1.014c4.8 2.427 7.387 6.453 7.387 11.493 0 7.92-6.453 14.107-14.693 14.107H14.692c-8.24 0-14.693-6.187-14.693-14.107.001-5.226 2.828-9.417 7.868-11.76z" fill="#59b4d9"/><path d="M78.321 43.271v-3.453H55.606l-5.15-5.152H36.598v37.941a2.058 2.058 0 002.058 2.059h39.286A2.058 2.058 0 0080 72.607V43.269h-1.678z" fill="#fee087"/><path d="M40.715 43.271v29.336a2.058 2.058 0 11-4.115 0V34.666h13.858l5.15 5.152h22.715v3.453H40.715z" fill="#1e1e1e" opacity=".2" style="isolation:isolate"/></svg>