<svg xmlns="http://www.w3.org/2000/svg" viewBox="0 0 340 240"><path fill="#7A7A7A" d="M321.896 76h-2v25.292c0 2.148-1.577 3.708-3.75 3.708h-107.25v2h107.25c3.278 0 5.75-2.454 5.75-5.708V76zm-46 89h-2v-23.292c0-2.148-1.577-3.708-3.75-3.708h-107.25v-2h107.25c3.278 0 5.75 2.454 5.75 5.708V165zm-215-103h2v26.292c0 2.148 1.577 3.708 3.75 3.708h107.25v2H66.646c-3.278 0-5.75-2.454-5.75-5.708V62zM20 151h2v-22.292c0-2.148 1.577-3.708 3.75-3.708H133v-2H25.75c-3.278 0-5.75 2.454-5.75 5.708V151zM181.896 40h2v40h-2zm-27 108h2v42h-2z"/><path d="M209.229 65l-2-2 2-2 2 2zm0-5a3 3 0 003 3m-6 0a3 3 0 003-3m3 3a3 3 0 00-3 3m4.667-3h-2m-6 0h-2m5-3v-2m0 10v-2m.333 0a3 3 0 00-3-3" fill="none" stroke="#A0A1A2" stroke-width="2" stroke-linecap="round" stroke-linejoin="round"/><circle fill="#A0A1A2" cx="106.562" cy="112" r="2"/><circle fill="#A0A1A2" cx="126.896" cy="52" r="2"/><path fill="#59B4D9" d="M231.562 162a2 2 0 10.001-3.999 2 2 0 00-.001 3.999zm-30.666 19.429a2 2 0 10.001-3.999 2 2 0 00-.001 3.999zm39-108.429a2 2 0 10-.001 3.999 2 2 0 00.001-3.999zm-81.334-6a2 2 0 10.001-3.999 2 2 0 00-.001 3.999zm-20 105a2 2 0 10.001-3.999 2 2 0 00-.001 3.999zm-51-35a2 2 0 10.001-3.999 2 2 0 00-.001 3.999z"/><g stroke="#59B4D9"><path fill="#FFF" stroke-miterlimit="10" d="M101.562 62.429L106.134 67l-4.572 4.571L96.991 67z"/><path fill="none" stroke-width="2" stroke-linecap="round" stroke-linejoin="round" d="M101.562 73.857A6.857 6.857 0 0094.705 67m13.714 0a6.857 6.857 0 00-6.857 6.857M94.705 67a6.857 6.857 0 006.857-6.857m0 0A6.857 6.857 0 00108.419 67h0m.477 0h1m-16 0h1m7 7v1m0-15v-1"/></g><g fill="none" stroke="#A0A1A2" stroke-width="2" stroke-linecap="round" stroke-linejoin="round"><path d="M105.562 148l4 4-4 4-4-4zm0 10a6 6 0 00-6-6m12 0a6 6 0 00-6 6m-6-6a6 6 0 006-6"/><path d="M105.562 146a6 6 0 006 6h0m.334 0h3m-18 0h3m6 6v3m0-15v-3"/></g><path d="M209.229 65l-2-2 2-2 2 2zm0-5a3 3 0 003 3m-6 0a3 3 0 003-3m3 3a3 3 0 00-3 3m4.667-3h-2m-6 0h-2m5-3v-2m0 10v-2m.333 0a3 3 0 00-3-3m27 56l-2-2 2-2 2 2zm0-5a3 3 0 003 3m-6 0a3 3 0 003-3m3 3a3 3 0 00-3 3m4.667-3h-2m-6 0h-2m5-3v-2m0 10v-2m.333 0a3 3 0 00-3-3" fill="none" stroke="#A0A1A2" stroke-width="2" stroke-linecap="round" stroke-linejoin="round"/><path d="M233.229 119l-2-2 2-2 2 2zm0-5a3 3 0 003 3m-6 0a3 3 0 003-3m3 3a3 3 0 00-3 3m4.667-3h-2m-6 0h-2m5-3v-2m0 10v-2m.333 0a3 3 0 00-3-3" fill="none" stroke="#A0A1A2" stroke-width="2" stroke-linecap="round" stroke-linejoin="round"/><circle fill="#A0A1A2" cx="106.562" cy="112" r="2"/><circle fill="#A0A1A2" cx="126.896" cy="52" r="2"/><path fill="#59B4D9" d="M231.562 162a2 2 0 10.001-3.999 2 2 0 00-.001 3.999z"/><path fill="#A0A1A2" d="M200.896 181.429a2 2 0 10.001-3.999 2 2 0 00-.001 3.999z"/><path fill="#59B4D9" d="M239.896 73a2 2 0 10-.001 3.999 2 2 0 00.001-3.999zm-81.334-6a2 2 0 10.001-3.999 2 2 0 00-.001 3.999zm-20 105a2 2 0 10.001-3.999 2 2 0 00-.001 3.999zm-51-35a2 2 0 10.001-3.999 2 2 0 00-.001 3.999z"/><g stroke="#59B4D9"><path fill="#FFF" stroke-miterlimit="10" d="M101.562 62.429L106.134 67l-4.572 4.571L96.991 67z"/><path fill="none" stroke-width="2" stroke-linecap="round" stroke-linejoin="round" d="M101.562 73.857A6.857 6.857 0 0094.705 67m13.714 0a6.857 6.857 0 00-6.857 6.857M94.705 67a6.857 6.857 0 006.857-6.857m0 0A6.857 6.857 0 00108.419 67h0m.477 0h1m-16 0h1m7 7v1m0-15v-1"/></g><g stroke="#A0A1A2" stroke-width="2" stroke-linecap="round" stroke-linejoin="round"><path fill="#FFF" d="M105.562 148l4 4-4 4-4-4z"/><path fill="none" d="M105.562 158a6 6 0 00-6-6m12 0a6 6 0 00-6 6m-6-6a6 6 0 006-6m0 0a6 6 0 006 6h0m.334 0h3m-18 0h3m6 6v3m0-15v-3"/></g><path fill="#3999C6" d="M174.035 32.109c-.337 0-.669-.132-.89-.353l-8.911-8.829-2.145-2.144c-.531-.531-.406-1.333-.019-1.818l1.999-2 8.913-8.666c.243-.243.556-.379.875-.379s.632.136.878.382c.279.28.43.648.413 1.011a1.167 1.167 0 01-.43.844l-9.308 9.144a.796.796 0 00.002 1.129l9.487 9.487a1.304 1.304 0 010 1.839 1.203 1.203 0 01-.864.353zm17.219 0c-.331 0-.639-.125-.866-.353a1.304 1.304 0 010-1.839l9.32-9.485a.796.796 0 00.002-1.133l-9.157-9.157a1.147 1.147 0 01-.413-.828c-.017-.362.134-.73.413-1.011.246-.246.559-.382.878-.382s.632.136.878.382l8.907 8.66 1.983 1.982c.405.507.53 1.309 0 1.839l-1.971 2.217-9.088 8.759a1.27 1.27 0 01-.886.349z"/><path fill="#3999C6" d="M188.255 19.865c0 1.567 1.32 2.722 2.723 2.722 1.402 0 2.887-1.32 2.887-2.722 0-1.403-1.155-2.722-2.887-2.722-1.651-.001-2.723 1.319-2.723 2.722zm-8.333 0c0 1.567 1.32 2.722 2.723 2.722s2.887-1.32 2.887-2.722c0-1.403-1.32-2.722-2.887-2.722-1.568-.001-2.723 1.319-2.723 2.722zm-8.332 0c0 1.567 1.32 2.722 2.723 2.722s2.887-1.32 2.887-2.722c0-1.403-1.32-2.722-2.887-2.722s-2.723 1.319-2.723 2.722z"/><g stroke="#59B4D9"><path fill="#FFF" stroke-miterlimit="10" d="M179.562 164l2 2-2 2-2-2z"/><path fill="none" stroke-width="2" stroke-linecap="round" stroke-linejoin="round" d="M179.562 169a3 3 0 00-3-3m6 0a3 3 0 00-3 3m-3-3a3 3 0 003-3m-4.666 3h2m6 0h2m-5 3v2m0-10v2m-.334 0a3 3 0 003 3"/></g><g stroke="#59B4D9"><path fill="#FFF" stroke-miterlimit="10" d="M179.562 164l2 2-2 2-2-2z"/><path fill="none" stroke-width="2" stroke-linecap="round" stroke-linejoin="round" d="M179.562 169a3 3 0 00-3-3m6 0a3 3 0 00-3 3m-3-3a3 3 0 003-3m-4.666 3h2m6 0h2m-5 3v2m0-10v2m-.334 0a3 3 0 003 3"/></g><path fill="#E5E5E5" d="M231.686 117l1.415-1.414 1.414 1.415-1.414 1.414zm-23.999-54l1.414-1.413L210.515 63l-1.414 1.414zm-29.455 103l1.414-1.414L181.06 166l-1.414 1.414z"/><path fill="#FFF" d="M206.396 150.293l.7.305c2.047.891 3.124 1.968 3.239 2.088l1.115 1.225-.472.325c-1.02.701-2.354 1.25-3.967 1.63l-.615.146v-5.719z"/><path opacity=".2" fill="#0072C6" d="M206.396 150.293l.7.305c2.047.891 3.124 1.968 3.239 2.088l1.115 1.225-.472.325c-1.02.701-2.354 1.25-3.967 1.63l-.615.146v-5.719z"/><path fill="#59B4D9" d="M77 23.1l-3.6-3.6-1.5-1.5H47v36h31.5V24.6z"/><path opacity=".8" fill="#FFF" d="M71.75 19.5H48.5v33H77V24.75h-5.25z"/><path fill="#3999C6" d="M55.25 33.314v8.372c0 .089.048.172.125.217l7.25 4.186a.248.248 0 00.25 0l7.25-4.186a.251.251 0 00.125-.217v-8.372a.252.252 0 00-.125-.217l-7.25-4.186a.248.248 0 00-.25 0l-7.25 4.186a.252.252 0 00-.125.217z" opacity=".8"/><path fill="#7A7A7A" d="M138.878 203h2.5v1h-3.5zm0 5h2.5v1h-3.5zm0 5h2.5v1h-3.5zm0 5h2.5v1h-3.5zm0 5h2.5v1h-3.5zm0 5h2.5v1h-3.5z"/><path fill="#0072C6" d="M142.262 197c-.761.075-2.358 1.938-2.358 2.161L139.89 202h.488a1.5 1.5 0 010 3h-.5v2h.5a1.5 1.5 0 010 3h-.5v2h.5a1.5 1.5 0 010 3h-.5v2h.5a1.5 1.5 0 010 3h-.5v2h.5a1.5 1.5 0 010 3h-.5v2h.5a1.5 1.5 0 010 3h-.5v2h26.977v-.5l1.998-2h1.024V197h-27.615z"/><path fill="#E5E5E5" d="M143.523 198c-.685 0-.914.075-1.523.596-1.294 1.118-.122 1.404.878 1.404h24v31l2-2v-31h-25.355z"/><path opacity=".5" fill="#A0A1A2" d="M166.878 231l2-2v-31l-2 2z"/><path fill="#FFF" d="M154.402 214.889a.206.206 0 01-.109-.032l-7.277-4.235a.223.223 0 010-.385l7.23-4.208a.225.225 0 01.219 0l7.278 4.238a.223.223 0 010 .384l-7.231 4.207a.228.228 0 01-.11.031"/><path opacity=".7" fill="#FFF" d="M153.356 225.184a.218.218 0 01-.112-.029l-7.254-4.222a.219.219 0 01-.112-.193v-8.473c0-.079.042-.152.112-.194a.23.23 0 01.222 0l7.253 4.222a.226.226 0 01.108.193v8.474a.224.224 0 01-.108.193.226.226 0 01-.109.029"/><path opacity=".5" fill="#FFF" d="M155.408 225.184a.234.234 0 01-.112-.029.222.222 0 01-.109-.193v-8.419c0-.079.042-.152.109-.193l7.252-4.221a.225.225 0 01.222 0c.066.04.109.113.109.192v8.419a.223.223 0 01-.109.193l-7.254 4.222a.201.201 0 01-.108.029"/><path opacity=".15" fill="#FFF" d="M159.878 200h-19.979l-.01 2h.489a1.5 1.5 0 010 3h-.5v2h.5a1.5 1.5 0 010 3h-.5v2h.5a1.5 1.5 0 010 3h-.5v2h.5a1.5 1.5 0 010 3h-.5v2h.5a1.5 1.5 0 010 3h-.5v2h.5a1.5 1.5 0 010 3h-.5v2h6l14-32z"/><path opacity=".6" fill="#7A7A7A" d="M136.878 202a1 1 0 011-1h1v-1h-1a2 2 0 000 4c.738 0 1.376-.405 1.723-1h-1.723c-.551 0-1-.448-1-1zm0 5a1 1 0 011-1h1v-1h-1a2 2 0 000 4c.738 0 1.376-.405 1.723-1h-1.723c-.551 0-1-.448-1-1zm0 5a1 1 0 011-1h1v-1h-1a2 2 0 000 4c.738 0 1.376-.405 1.723-1h-1.723c-.551 0-1-.448-1-1zm0 5a1 1 0 011-1h1v-1h-1a2 2 0 000 4c.738 0 1.376-.405 1.723-1h-1.723c-.551 0-1-.448-1-1zm0 5a1 1 0 011-1h1v-1h-1a2 2 0 000 4c.738 0 1.376-.405 1.723-1h-1.723c-.551 0-1-.448-1-1zm0 5a1 1 0 011-1h1v-1h-1a2 2 0 000 4c.738 0 1.376-.405 1.723-1h-1.723c-.551 0-1-.448-1-1z"/><path fill="#59B4D9" d="M77 23.1l-3.6-3.6-1.5-1.5H47v36h31.5V24.6z"/><path opacity=".8" fill="#FFF" d="M71.75 19.5H48.5v33H77V24.75h-5.25z"/><path fill="#3999C6" d="M55.25 33.314v8.372c0 .089.048.172.125.217l7.25 4.186a.248.248 0 00.25 0l7.25-4.186a.251.251 0 00.125-.217v-8.372a.252.252 0 00-.125-.217l-7.25-4.186a.248.248 0 00-.25 0l-7.25 4.186a.252.252 0 00-.125.217z" opacity=".8"/><path fill="#7A7A7A" d="M138.878 203h2.5v1h-3.5zm0 5h2.5v1h-3.5zm0 5h2.5v1h-3.5zm0 5h2.5v1h-3.5zm0 5h2.5v1h-3.5zm0 5h2.5v1h-3.5z"/><path fill="#3999C6" d="M142.262 197c-.761.075-2.358 1.938-2.358 2.161L139.89 202h.488a1.5 1.5 0 010 3h-.5v2h.5a1.5 1.5 0 010 3h-.5v2h.5a1.5 1.5 0 010 3h-.5v2h.5a1.5 1.5 0 010 3h-.5v2h.5a1.5 1.5 0 010 3h-.5v2h.5a1.5 1.5 0 010 3h-.5v2h26.977v-.5l1.998-2h1.024V197h-27.615z"/><path fill="#E5E5E5" d="M143.523 198c-.685 0-.914.075-1.523.596-1.294 1.118-.122 1.404.878 1.404h24v31l2-2v-31h-25.355z"/><path opacity=".5" fill="#A0A1A2" d="M166.878 231l2-2v-31l-2 2z"/><path fill="#FFF" d="M154.402 214.889a.206.206 0 01-.109-.032l-7.277-4.235a.223.223 0 010-.385l7.23-4.208a.225.225 0 01.219 0l7.278 4.238a.223.223 0 010 .384l-7.231 4.207a.228.228 0 01-.11.031"/><path opacity=".7" fill="#FFF" d="M153.356 225.184a.218.218 0 01-.112-.029l-7.254-4.222a.219.219 0 01-.112-.193v-8.473c0-.079.042-.152.112-.194a.23.23 0 01.222 0l7.253 4.222a.226.226 0 01.108.193v8.474a.224.224 0 01-.108.193.226.226 0 01-.109.029"/><path opacity=".5" fill="#FFF" d="M155.408 225.184a.234.234 0 01-.112-.029.222.222 0 01-.109-.193v-8.419c0-.079.042-.152.109-.193l7.252-4.221a.225.225 0 01.222 0c.066.04.109.113.109.192v8.419a.223.223 0 01-.109.193l-7.254 4.222a.201.201 0 01-.108.029"/><path opacity=".15" fill="#FFF" d="M159.878 200h-19.979l-.01 2h.489a1.5 1.5 0 010 3h-.5v2h.5a1.5 1.5 0 010 3h-.5v2h.5a1.5 1.5 0 010 3h-.5v2h.5a1.5 1.5 0 010 3h-.5v2h.5a1.5 1.5 0 010 3h-.5v2h.5a1.5 1.5 0 010 3h-.5v2h6l14-32z"/><path opacity=".6" fill="#7A7A7A" d="M136.878 202a1 1 0 011-1h1v-1h-1a2 2 0 000 4c.738 0 1.376-.405 1.723-1h-1.723c-.551 0-1-.448-1-1zm0 5a1 1 0 011-1h1v-1h-1a2 2 0 000 4c.738 0 1.376-.405 1.723-1h-1.723c-.551 0-1-.448-1-1zm0 5a1 1 0 011-1h1v-1h-1a2 2 0 000 4c.738 0 1.376-.405 1.723-1h-1.723c-.551 0-1-.448-1-1zm0 5a1 1 0 011-1h1v-1h-1a2 2 0 000 4c.738 0 1.376-.405 1.723-1h-1.723c-.551 0-1-.448-1-1zm0 5a1 1 0 011-1h1v-1h-1a2 2 0 000 4c.738 0 1.376-.405 1.723-1h-1.723c-.551 0-1-.448-1-1zm0 5a1 1 0 011-1h1v-1h-1a2 2 0 000 4c.738 0 1.376-.405 1.723-1h-1.723c-.551 0-1-.448-1-1z"/><path fill="#59B4D9" d="M20.653 159.938l14.153 8.171v16.343l-14.153 8.171L6.5 184.452v-16.343l14.153-8.171m0-2.763a.805.805 0 00-.4.107L4.4 166.435a.8.8 0 00-.4.693v18.306a.8.8 0 00.4.693l15.853 9.153a.805.805 0 00.8 0l15.853-9.153a.8.8 0 00.4-.693v-18.306a.8.8 0 00-.4-.693l-15.853-9.153a.792.792 0 00-.4-.107z"/><path fill="#3999C6" d="M27.958 173.789a3.004 3.004 0 000-4.248l-5.181-5.181a3.004 3.004 0 00-4.248 0l-5.181 5.181a3.004 3.004 0 000 4.248l4.558 4.558v8.786l2.747 2.747 2.386-2.386v-.017l1.4-1.401-1.388-1.388 1.388-1.388-1.388-1.388 1.388-1.388-1.4-1.401v-.414l4.919-4.92zm-7.305-8.176a1.705 1.705 0 110 3.41 1.705 1.705 0 010-3.41z"/><path opacity=".4" fill="#FFF" d="M19.189 186.692l1.072 1.056v-8.424l-1.072-.528zm-3.622-16.022h9.842v1.414h-9.842zm0 2.302h9.842v1.414h-9.842z"/><path fill="#59B4D9" d="M290.875 178.043l-3.6-3.6-1.5-1.5h-24.9v36h31.5v-29.4z"/><path opacity=".8" fill="#FFF" d="M285.625 174.443h-23.25v33h28.5v-27.75h-5.25z"/><path fill="#59B4D9" d="M290.875 178.043l-3.6-3.6-1.5-1.5h-24.9v36h31.5v-29.4z"/><path opacity=".8" fill="#FFF" d="M285.625 174.443h-23.25v33h28.5v-27.75h-5.25z"/><text transform="translate(264.174 195.484)" fill="#59B4D9" font-family="'SegoeUI-Bold'" font-size="11">ARM</text><path fill="#3999C6" d="M332.814 38.516a7.657 7.657 0 01-7.658 7.657 7.657 7.657 0 110-15.314 7.657 7.657 0 017.658 7.657m-2.058 10.282l-5.599 7.844-5.599-7.844h-5.826v19.343h22.85V48.798zm-20.954 2.57a4.3 4.3 0 01-4.302 4.3 4.3 4.3 0 110-8.601 4.301 4.301 0 014.302 4.301m-1.157 5.907l-3.145 4.407-3.145-4.407h-3.273v10.866h12.836V57.275z"/><path opacity=".2" fill="#FFF" d="M317.5 38.516c0 4.166 3.328 7.547 7.469 7.648l1.923-15.099a7.575 7.575 0 00-1.736-.205 7.655 7.655 0 00-7.656 7.656m2.06 10.282h-5.829v19.343h8.475l1.69-13.265zm-18.361 2.57a4.3 4.3 0 004.301 4.3c.15 0 .29-.028.436-.043l1.055-8.278a4.275 4.275 0 00-1.492-.281 4.302 4.302 0 00-4.3 4.302m1.156 5.907h-3.273v10.866h5.297l.868-6.813z"/><path fill="#FFF" d="M205.396 146.517h-72c-7.009 0-10-2.99-10-10v-60c0-5.359 4.666-7.801 9-7.801s9 2.441 9 7.801v2h56.2c13.142 0 17.8 3.716 17.8 14.199v55.801c0 5.889-6.586 7.443-10 7.854v-9.854z"/><path fill="#7A7A7A" d="M204 148.017h-70.5c-7.846 0-11.5-3.654-11.5-11.5v-60c0-5.39 4.416-9.301 10.5-9.301s10.5 3.911 10.5 9.301v.5h54.7c13.889 0 19.3 4.401 19.3 15.699v55.801c0 8.337-10.555 9.358-13 9.483v-9.983zm-70.5-18c-5.58 0-8.5 3.773-8.5 7.5 0 6.723 4.851 7.5 8.5 7.5h68.2c7.492 0 11.391 4.193 11.43 4.235l.87.957V90.716c0-9.59-8.161-10.699-14.3-10.699H143v55.239c-1.403-1.764-4.77-5.239-9.5-5.239z"/><path d="M191.396 126.419l3 8 3-8zm0-27.998h6v25.048h-6zm3-9.801c1.657 0 3 1.295 3 2.891l-.053 3.957-5.947-.052.001-3.905c-.001-1.596 1.342-2.891 2.999-2.891zm-27-2c1.104 0 2 1.295 2 2.891l-.036 2.909-3.964-.052v-2.857c0-1.596.895-2.891 2-2.891z" fill="#3999C6"/><path fill="#3999C6" d="M167.396 90.621a7.8 7.8 0 100 15.6 7.8 7.8 0 100-15.6zm0 13.6c-3.198 0-5.8-2.602-5.8-5.8s2.602-5.8 5.8-5.8 5.8 2.602 5.8 5.8-2.602 5.8-5.8 5.8z"/><path fill="#3999C6" d="M167.396 104.248v-3.827l-3.735 2.614-8.034 24.727-.57 8.225 4.373-6.989h.001l8.034-24.727z"/><path fill="#3999C6" d="M179.164 127.762l-8.034-24.727-3.734-2.614v3.827l-.07.023 8.034 24.727h.001l4.373 6.989z"/><path fill="#3999C6" d="M181.896 118.421h-29a.5.5 0 01-.5-.5v-1a.5.5 0 01.5-.5h29a.5.5 0 01.5.5v1a.5.5 0 01-.5.5z"/><path opacity=".8" fill="#FFF" d="M207 149.031l.7.305c2.047.891 3.124 1.968 3.239 2.088l1.115 1.225-.472.325c-1.02.701-2.354 1.25-3.967 1.63l-.615.145v-5.718zm-82-72.393c0-4.329 3.888-6.301 7.5-6.301s7.5 1.972 7.5 6.301v52.245l-.722-.356c-1.864-.922-3.809-1.389-5.778-1.389-2.99 0-5.646.879-7.684 2.542l-.816.666V76.638z"/></svg>