<svg xmlns="http://www.w3.org/2000/svg" viewBox="0 0 50 50" class="fxs-portal-svg" data-type="95"><path d="M-.5 45.1c0 1.1.9 2 2 2h46c1.1 0 2-.9 2-2v-32h-50v32z" class="msportalfx-svg-c16" fill="#3999c6"/><path d="M47.5 4.5h-46c-1.1 0-2 .9-2 2v7.3h50V6.5c0-1.1-.9-2-2-2z" class="msportalfx-svg-c03" fill="#a0a1a2"/><path opacity=".15" d="M-.5 13.8h50v3.3h-50z" class="msportalfx-svg-c01" fill="#fff"/><path opacity=".1" d="M1.5 4.5c-1.1 0-2 .9-2 2v38.6c0 1.1.9 2 2 2h19.2L43.1 4.5H1.5z" class="msportalfx-svg-c01" fill="#fff"/><path d="M30.6 22.2L23.1 40h-2.7l7.4-17.8zM9.8 31.1l7.9-4.2v-2.7L6.5 30.1v2.1l11.2 5.9v-2.7zm30.6 0l-8-4.2v-2.7l11.2 5.9v2.1l-11.2 5.9v-2.7z" class="msportalfx-svg-c01" fill="#fff"/></svg>