<svg fill="none" xmlns="http://www.w3.org/2000/svg" viewBox="0 0 50 50"><g clip-path="url(#clip0)"><path d="M0 35.187c0 .8.7 1.5 1.5 1.5H37c.9 0 1.5-.7 1.5-1.5v-24.09H0v24.09z" fill="#fff"/><path d="M0 35.187c0 .8.7 1.5 1.5 1.5H37c.9 0 1.5-.7 1.5-1.5v-24.09H0v24.09z" fill="#A0A1A2" fill-opacity=".5"/><path d="M38.5 12.796H0v3.899h38.5v-3.899z" fill="#0072C6"/><path d="M38.5 9.597H0v3.2h38.5v-3.2z" fill="#060707"/><path opacity=".25" d="M38.5 9.597H0v3.2h38.5v-3.2z" fill="#0072C6"/><path d="M37 3H1.5C.7 3 0 3.7 0 4.4v5.297h38.5V4.4c0-.7-.7-1.4-1.5-1.4z" fill="#7A7A7A"/><path opacity=".2" d="M1.6 3.099c-.9 0-1.6.7-1.6 1.599v30.288c0 1 .7 1.699 1.6 1.699h1.7L33.6 3.099h-32z" fill="#fff"/><path d="M11.5 46.183c0 .9.7 1.499 1.5 1.499h35.4c.9 0 1.5-.7 1.5-1.5v-24.09H11.5v24.09z" fill="#E5E5E5"/><path d="M48.5 14.895H13c-.9 0-1.5.7-1.5 1.5v5.897H50v-5.897c0-.8-.7-1.5-1.5-1.5z" fill="#A0A1A2"/><path d="M50 24.691H11.5v3.999H50v-4z" fill="#0072C6"/><path d="M50 21.692H11.5v3H50v-3z" fill="#1E1E1E"/><path opacity=".2" d="M13.1 14.895c-.9 0-1.5.7-1.5 1.5v29.887c0 .9.7 1.5 1.5 1.5h1.7l30.4-32.787-32.1-.1z" fill="#fff"/><path opacity=".25" d="M49.95 21.606h-38.5v2.999h38.5v-3z" fill="#0072C6"/></g><defs><clipPath id="clip0"><path fill="#fff" d="M0 0h50v50H0z"/></clipPath></defs></svg>