<svg viewBox="0 0 192 164" xmlns="http://www.w3.org/2000/svg" data-bind="sanitizedAttr: { 'aria-label': svgText }" class="ext-icon" role="img" aria-label="Azure security center"> <path d="M 52.17 9.17 C 59.15 2.50 69.64 -0.47 79.03 1.97 C 85.77 3.71 90.81 9.37 93.37 15.66 C 95.36 20.00 95.68 24.82 96.57 29.45 C 101.25 30.49 105.60 32.68 108.76 36.35 C 103.60 41.31 96.77 44.30 89.76 45.47 C 84.35 46.42 78.84 45.51 73.41 46.21 C 73.14 48.77 72.94 51.34 72.92 53.92 C 63.95 54.23 54.97 53.82 46.00 54.01 C 41.80 53.97 37.53 54.41 33.40 53.48 C 24.72 50.70 18.52 40.95 20.83 31.90 C 21.87 25.74 26.58 20.42 32.59 18.71 C 36.76 17.50 41.26 18.64 45.41 17.44 C 47.86 14.85 49.55 11.61 52.17 9.17 Z" fill="#c7e7ee"></path> <path d="M 108.76 36.35 C 110.61 34.48 112.32 32.46 114.11 30.53 C 117.33 32.30 119.25 35.66 122.22 37.78 C 127.90 42.45 135.09 44.52 142.16 46.02 C 136.67 54.19 130.66 61.98 124.95 69.99 C 121.93 67.47 118.10 65.43 114.03 66.07 C 109.21 66.47 105.09 70.17 103.76 74.76 C 102.31 79.10 103.53 83.81 102.37 88.16 C 100.82 89.42 99.11 90.47 97.46 91.58 C 96.59 97.64 97.25 103.77 96.81 109.86 C 92.55 113.95 88.92 118.69 86.41 124.04 C 83.55 118.77 78.82 114.77 73.31 112.49 C 72.51 92.99 73.24 73.44 72.92 53.92 C 72.94 51.34 73.14 48.77 73.41 46.21 C 78.84 45.51 84.35 46.42 89.76 45.47 C 96.77 44.30 103.60 41.31 108.76 36.35 Z" fill="#95c515"></path> <path d="M 142.16 46.02 C 146.41 46.06 150.66 45.72 154.91 45.79 C 157.03 45.86 156.97 48.44 157.02 49.96 C 157.06 60.80 157.02 71.63 157.04 82.47 C 153.46 83.88 150.08 86.94 150.25 91.09 C 150.07 95.31 153.79 97.99 156.89 100.12 C 157.21 106.48 157.61 113.41 154.12 119.06 C 146.26 131.57 134.42 141.11 121.48 147.99 C 120.09 147.45 118.67 147.04 117.25 146.63 C 116.34 139.98 116.75 131.76 110.71 127.32 C 104.06 122.68 95.76 125.37 88.93 128.07 C 88.09 126.73 87.25 125.38 86.41 124.04 C 88.92 118.69 92.55 113.95 96.81 109.86 C 97.43 112.02 98.35 114.92 101.11 114.85 C 110.41 115.19 119.75 115.00 129.06 114.95 C 131.47 115.16 133.81 113.39 133.75 110.86 C 134.06 105.26 133.97 99.63 133.82 94.03 C 134.11 90.75 130.51 89.64 128.22 88.35 C 127.91 82.13 128.46 75.50 124.95 69.99 C 130.66 61.98 136.67 54.19 142.16 46.02 Z" fill="#7fba00"></path> <path d="M 103.76 74.76 C 105.09 70.17 109.21 66.47 114.03 66.07 C 118.10 65.43 121.93 67.47 124.95 69.99 C 128.46 75.50 127.91 82.13 128.22 88.35 C 130.51 89.64 134.11 90.75 133.82 94.03 C 133.97 99.63 134.06 105.26 133.75 110.86 C 133.81 113.39 131.47 115.16 129.06 114.95 C 119.75 115.00 110.41 115.19 101.11 114.85 C 98.35 114.92 97.43 112.02 96.81 109.86 C 97.25 103.77 96.59 97.64 97.46 91.58 C 99.11 90.47 100.82 89.42 102.37 88.16 C 103.53 83.81 102.31 79.10 103.76 74.76 Z" fill="#ffffff"></path> <path d="M 110.57 76.60 C 112.09 72.09 119.65 72.73 120.60 77.32 C 121.42 81.14 120.96 85.09 120.96 88.96 C 117.33 89.08 113.69 89.08 110.06 88.93 C 110.06 84.83 109.51 80.61 110.57 76.60 Z" fill="#95c515"></path> <path d="M 161.47 81.51 C 164.08 79.46 165.59 75.76 169.16 75.17 C 173.29 74.31 178.18 74.50 181.36 77.63 C 184.63 80.46 184.52 85.40 187.60 88.39 C 188.93 90.05 191.14 91.58 190.82 93.99 C 190.43 96.87 188.39 100.32 185.03 99.88 C 175.65 100.04 166.27 99.75 156.89 100.12 C 153.79 97.99 150.07 95.31 150.25 91.09 C 150.08 86.94 153.46 83.88 157.04 82.47 C 158.50 82.10 160.01 81.90 161.47 81.51 Z" fill="#c7e7ee"></path> <path d="M 73.31 112.49 C 78.82 114.77 83.55 118.77 86.41 124.04 C 87.25 125.38 88.09 126.73 88.93 128.07 C 95.76 125.37 104.06 122.68 110.71 127.32 C 116.75 131.76 116.34 139.98 117.25 146.63 C 118.67 147.04 120.09 147.45 121.48 147.99 C 126.83 151.75 123.12 163.17 116.06 161.99 C 81.36 161.94 46.66 161.90 11.96 162.01 C 9.52 161.90 6.72 161.97 4.83 160.15 C 1.98 157.38 0.78 153.11 1.26 149.21 C 2.13 144.93 5.45 140.91 9.84 140.00 C 12.05 139.46 14.33 139.26 16.51 138.56 C 19.00 136.02 20.42 132.47 23.56 130.56 C 27.16 128.32 31.65 126.82 35.89 127.98 C 39.01 128.85 41.85 130.46 44.81 131.75 C 46.47 126.84 47.80 121.43 51.91 117.92 C 57.63 112.60 66.01 112.80 73.31 112.49 Z" fill="#c7e7ee"></path> </svg>