<svg xmlns="http://www.w3.org/2000/svg" data-type="1" width="50" height="50">
    <g transform="translate(74 -76)">
        <path d="M-24 103.7V98l-.8-.2-6.1-2-1.6-3.9 3.1-6.6-4-4.1-.8.4-5.7 2.9-3.9-1.6-2.5-6.9H-52l-.2.8-2 6.1-3.9 1.6-6.7-3.1-4 4 .4.8 2.9 5.7-1.6 3.9-6.9 2.5v5.7l.8.2 6.1 2 1.6 3.9-3.1 6.7 4 4 .8-.4 5.7-2.9 3.9 1.6 2.5 6.9h5.7l.2-.8 2-6.1 3.9-1.6 6.6 3.1 4.1-4-.4-.8-2.9-5.7 1.6-3.9z" class="msportalfx-svg-c04" fill="#7a7a7a"/>
        <path d="M-34.3 81.6l-5.6 2.9-3.9-1.6-2.5-6.9H-52l-.3.8-2 6.1-3.9 1.6-6.6-3.1-4 4 .4.8 2.9 5.7-1.6 3.9-6.9 2.5v5.7l.8.3 6.1 2 1.6 3.9-3.1 6.6 4 4 .8-.4 2.4-1.2 3.5-4.8 19-26.3z" opacity=".2" fill="#f1f1f1"/>
        <path d="M-39.5 95.2l-2.8-.8-.7-2.8 2.9-2.9c-1.7-.5-3.6 0-4.9 1.3-1.3 1.3-1.8 3.2-1.3 4.9l-7.7 7.7c-1.7-.5-3.6 0-4.9 1.3-1.3 1.3-1.8 3.2-1.3 4.9l2.9-2.9 2.8.7.7 2.8-2.9 2.9c1.7.5 3.6 0 4.9-1.3 1.4-1.4 1.8-3.4 1.2-5.1l7.6-7.6c1.8.6 3.8.2 5.1-1.2 1.3-1.3 1.8-3.2 1.3-4.9z" class="msportalfx-svg-c01" fill="#fff"/>
    </g>
</svg>
