<svg viewBox="0 0 132 132" xmlns="http://www.w3.org/2000/svg" fill-rule="evenodd" clip-rule="evenodd" stroke-linejoin="round" stroke-miterlimit="1.414"><path d="M66 4C31.2 4 3 32.2 3 67s28.2 63 63 63 63-28.2 63-63S100.8 4 66 4zm0 122.1C33.4 126.1 6.9 99.6 6.9 67S33.4 7.9 66 7.9s59.1 26.5 59.1 59.1-26.4 59.1-59.1 59.1z" fill="#dedede" fill-rule="nonzero"/><circle cx="200" cy="71" r="59.1" fill="#eaeaea" transform="translate(-134 -4)"/><path d="M55.6 48.2l7.1 4L66 54V11.9L55.6 48.2zm13.7 33.6l-3-1.7-.3-.1v42.1l10.4-36.3-7.1-4z" fill="#dedede" fill-rule="nonzero"/><path d="M76.4 48.2l-7.1 4L66 54V11.9l10.4 36.3zM62.7 81.8l3-1.7.3-.1v42.1L55.6 85.8l7.1-4z" fill="#fff" fill-rule="nonzero"/><path d="M47.2 77.4l4-7.1L53 67H10.9l36.3 10.4zm33.6-13.7l-1.7 3-.1.3h42.1L84.8 56.6l-4 7.1z" fill="#dedede" fill-rule="nonzero"/><path d="M47.2 56.6l4 7.1L53 67H10.9l36.3-10.4zm33.6 13.7l-1.7-3-.1-.3h42.1L84.8 77.4l-4-7.1z" fill="#fff" fill-rule="nonzero"/><path d="M36.8 37.8L53 67h13L36.8 37.8z" fill="#dedede" fill-rule="nonzero"/><path d="M36.8 96.2L53 67h13L36.8 96.2z" fill="#fff" fill-rule="nonzero"/><path d="M36.8 96.2L66 80V67L36.8 96.2z" fill="#dedede" fill-rule="nonzero"/><path d="M95.2 96.2L66 80V67l29.2 29.2z" fill="#fff" fill-rule="nonzero"/><path d="M95.2 96.2L79 67H66l29.2 29.2z" fill="#dedede" fill-rule="nonzero"/><path d="M95.2 37.8L79 67H66l29.2-29.2z" fill="#fff" fill-rule="nonzero"/><path d="M95.2 37.8L66 54v13l29.2-29.2z" fill="#dedede" fill-rule="nonzero"/><path d="M36.8 37.8L66 54v13L36.8 37.8z" fill="#fff" fill-rule="nonzero"/><path d="M58.1 59.1l-30.9 47 46.7-31.2 31.2-46.7-47 30.9z" fill="#3899c5" fill-rule="nonzero"/><path d="M27.2 106.1l46.7-31.2-7.7-7.7-39 38.9z" fill="#58b6da" fill-rule="nonzero"/><path d="M105.1 28.2l-47 30.9 8.1 8.1 38.9-39z" fill="#1881ce" fill-rule="nonzero"/><path d="M105.1 28.2L73.9 74.9l-8.1-8.1 39.3-38.6z" fill="#0271c5" fill-rule="nonzero"/><circle cx="200" cy="71" r="3.9" fill="#797979" transform="translate(-134 -4)"/></svg>