<svg xmlns="http://www.w3.org/2000/svg" viewBox="0 0 50 50" class="fxs-portal-svg"><path d="M25 26.331v-2.766l-.362-.181-3.076-1.034-.828-1.965 1.4-2.973-1.939-2.327-.362.181-2.895 1.5-1.965-.828-1.219-3.438h-2.766l-.181.362-1.035 3.076-1.964.828-3.258-1.577-1.965 2.042.181.362 1.5 2.9-.828 1.964L0 23.669v2.895l.362.1L3.438 27.7l.828 1.965-1.551 3.2 2.042 2.043.362-.181 2.895-1.5 1.965.828 1.215 3.445h2.9l.1-.362 1.034-3.076 1.965-.828 3.361 1.577 2.046-2.042-1.862-3.258.827-1.964zm-12.513 2.715a4.007 4.007 0 114.007-4.007 3.978 3.978 0 01-4.007 4.007z" class="msportalfx-svg-c16" fill="#3999c6"/><path d="M50 9.375v6.25H28.125v-6.25zm-21.875 18.75H50v-6.25H28.125zm0 12.5H50v-6.25H28.125z" class="msportalfx-svg-c04" fill="#7a7a7a"/></svg>