<svg viewBox="0 0 50 50" class="fxs-portal-svg" role="presentation" focusable="false" xmlns:svg="http://www.w3.org/2000/svg" xmlns:xlink="http://www.w3.org/1999/xlink" id="FxSymbol0-072" width="100%" height="100%">
<style type="text/css"> <![CDATA[
.msportalfx-svg-c01{fill:#fff}
.msportalfx-svg-c02{fill:#e5e5e5}
.msportalfx-svg-c03{fill:#a0a1a2}
.msportalfx-svg-c04{fill:#7a7a7a}
.msportalfx-svg-c05{fill:#3e3e3e}
.msportalfx-svg-c06{fill:#1e1e1e}
.msportalfx-svg-c07{fill:#0f0f0f}
.msportalfx-svg-c08{fill:#ba141a}
.msportalfx-svg-c09{fill:#dd5900}
.msportalfx-svg-c10{fill:#ff8c00}
.msportalfx-svg-c11{fill:#fcd116}
.msportalfx-svg-c12{fill:#fee087}
.msportalfx-svg-c13{fill:#b8d432}
.msportalfx-svg-c14{fill:#7fba00}
.msportalfx-svg-c15{fill:#59b4d9}
.msportalfx-svg-c16{fill:#3999c6}
.msportalfx-svg-c17{fill:#804998}
.msportalfx-svg-c18{fill:#ec008c}
.msportalfx-svg-c19{fill:#0072c6}
.msportalfx-svg-c20{fill:#68217a}
.msportalfx-svg-c21{fill:#00188f}
.msportalfx-svg-c22{fill:#e81123}
.msportalfx-svg-c97{fill:#ffb900}
.msportalfx-svg-c98{fill:#00a4ef}
.msportalfx-svg-c99{fill:#f25022}
.fxs-blade-header-icon .msportalfx-svg-c05,.fxs-sidebar-middle .msportalfx-svg-c05,.fxs-theme-dark .msportalfx-svg-c05,.msportalfx-inverted-theme .msportalfx-svg-c05{fill:#777}
.fxs-blade-header-icon .msportalfx-svg-c07,.fxs-sidebar-middle .msportalfx-svg-c07,.fxs-theme-dark .msportalfx-svg-c07,.msportalfx-inverted-theme .msportalfx-svg-c07{fill:#f2f2f2}
.msportalfx-svg-palette-white>*,.msportalfx-svg-palette-white>g>*{fill:#fff}
.msportalfx-svg-palette-blue>*,.msportalfx-svg-palette-blue>g>*{fill:#3999c6}
.msportalfx-svg-palette-black>*,.msportalfx-svg-palette-black>g>*{fill:#1e1e1e}
.msportalfx-svg-palette-green>*,.msportalfx-svg-palette-green>g>*{fill:#7fba00}
.msportalfx-svg-palette-gray>*,.msportalfx-svg-palette-gray>g>*{fill:#a0a1a2}
.msportalfx-svg-palette-inherit>*,.msportalfx-svg-palette-inherit>g *{fill:inherit!important}
.msportalfx-svg-badge{position:absolute;left:0;bottom:0;min-height:12px;min-width:12px}
.ext-fxc-menu-icon>.msportalfx-svg-badge{left:8px;bottom:7px;min-height:8px;min-width:8px}
.msportalfx-svg-disabled{filter:grayscale(100%)}
.msportalfx-svg-loading-square{-webkit-animation:ProgressFlagAnimation 1.45s infinite ease-in-out;animation:ProgressFlagAnimation 1.45s infinite ease-in-out}
.msportalfx-svg-loading-square:nth-child(1){-webkit-animation-delay:0s;animation-delay:0s}
.msportalfx-svg-loading-square:nth-child(2){-webkit-animation-delay:.2s;animation-delay:.2s}
.msportalfx-svg-loading-square:nth-child(3){-webkit-animation-delay:.4s;animation-delay:.4s}
]]>
</style>
<g>

<title></title><path d="M21.049 35.709V23.315l11.476-6.322L44 23.315v12.394l-11.475 6.322z" class="msportalfx-svg-c17"></path><path d="M32.525 19.277L42 24.496v10.031l-9.475 5.22-9.475-5.22V24.496l9.475-5.219m0-2.284L21.05 23.314v12.394l11.475 6.321L44 35.709V23.315l-11.475-6.322z" opacity=".6" class="msportalfx-svg-c17"></path><path d="M23.049 34.528V24.496l9.476-5.219L42 24.496v10.032l-9.475 5.219z" opacity=".4" class="msportalfx-svg-c01"></path><path d="M0 35.709V23.315l11.475-6.322 11.476 6.322v12.394l-11.476 6.322z" class="msportalfx-svg-c17"></path><path d="M11.475 19.277l9.475 5.22v10.031l-9.475 5.22L2 34.528V24.496l9.475-5.219m0-2.284L0 23.315v12.394l11.475 6.321 11.475-6.321V23.315l-11.475-6.322z" opacity=".6" class="msportalfx-svg-c17"></path><path d="M2 34.528V24.496l9.476-5.219 9.475 5.219v10.032l-9.475 5.219z" opacity=".4" class="msportalfx-svg-c01"></path><path d="M10.984 18.937V7.038L22 .969l11.016 6.069v11.899L22 25.005z" class="msportalfx-svg-c17"></path><path d="M22 3.253l9.016 4.967v9.535L22 22.722l-9.016-4.967V8.22L22 3.253m0-2.284L10.984 7.038v11.899L22 25.005l11.016-6.069V7.038L22 .969z" opacity=".6" class="msportalfx-svg-c17"></path><path d="M12.984 17.755V8.22L22 3.253l9.017 4.967v9.535L22 22.722z" opacity=".4" class="msportalfx-svg-c01"></path><path d="M14.88 31.969a4.502 4.502 0 0 0-.289-4.931l7.012-10.215c.249.022.497.032.744.012l6.492 10.138c-.137.172-.275.343-.388.539a4.505 4.505 0 0 0 1.646 6.145 4.505 4.505 0 0 0 6.145-1.646 4.505 4.505 0 0 0-1.646-6.145 4.474 4.474 0 0 0-2.5-.589l-6.531-10.213c.114-.15.235-.292.331-.459 1.24-2.148.501-4.905-1.646-6.145s-4.905-.501-6.145 1.646a4.502 4.502 0 0 0 .289 4.931l-7.012 10.215a4.494 4.494 0 0 0-4.293 2.219 4.505 4.505 0 0 0 1.646 6.145 4.506 4.506 0 0 0 6.145-1.647z" opacity=".4" class="msportalfx-svg-c17"></path><circle cx="22" cy="12.354" r="3.58" class="msportalfx-svg-c01"></circle><circle cx="10.985" cy="29.719" r="3.58" class="msportalfx-svg-c01"></circle><circle cx="32.346" cy="29.76" r="3.58" class="msportalfx-svg-c01"></circle><path d="M21.325 12.857l1.63-.843 10.207 17.324-1.631.843z" class="msportalfx-svg-c01"></path><path d="M10.143 29.234l11.101-17.298 1.59.918-11.101 17.298z" class="msportalfx-svg-c01"></path><path d="M34 44h8v2h-8zm0 4h8l-2 2h-4z" class="msportalfx-svg-c04"></path><path opacity=".4" d="M26.1 27.388c0 3.544 1.269 6.338 3.67 8.08 1.486 1.078 2.614 3.112 3.451 6.18L44 35.709V23.315l-10.072-5.548c-4.513 1.473-7.828 5.279-7.828 9.621z" class="msportalfx-svg-c01"></path><path d="M48.9 27.388c0-5.125-5.064-9.279-10.9-9.279s-10.9 4.154-10.9 9.279c0 2.878.914 5.57 3.257 7.27 2.211 1.605 3.323 4.652 3.988 7.311h7.311c.665-2.659 1.777-5.706 3.988-7.311 2.342-1.7 3.256-4.393 3.256-7.27z" class="msportalfx-svg-c19"></path><path opacity=".2" d="M44.314 19.737C42.613 18.71 40.22 18.109 38 18.109c-5.836 0-10.9 4.154-10.9 9.279 0 2.527.705 4.911 2.463 6.606l14.751-14.257z" class="msportalfx-svg-c01"></path><path opacity=".8" d="M41.622 27.413a2.625 2.625 0 0 0-2.625 2.625v1.296h-1.994v-1.296a2.625 2.625 0 1 0-2.625 2.625h1.296v8.64h1.329v-8.64h1.994v8.64h1.329v-8.64h1.296a2.625 2.625 0 1 0 0-5.25zm-8.557 2.626c0-.724.589-1.313 1.313-1.313s1.296.556 1.296 1.279v1.329h-1.329c-.724.001-1.28-.572-1.28-1.295zm7.261-.033c0-.724.572-1.279 1.296-1.279.724 0 1.313.589 1.313 1.313s-.556 1.296-1.279 1.296h-1.329v-1.33z" class="msportalfx-svg-c01"></path></g></svg>