<svg width="50" height="50" fill="none" xmlns="http://www.w3.org/2000/svg">
    <g clip-path="url(#clip0)">
        <path d="M11.9 35.486h-.2L1.6 29.59c-.1-.1-.2-.2-.2-.3 0-.1.1-.2.2-.3l10.1-5.798c.1-.1.2-.1.3 0l10.2 5.898c.1.1.2.2.2.3 0 .1-.1.2-.2.3l-10.1 5.797h-.2zM10.5 49.68h-.2L.2 43.883c-.1-.1-.2-.2-.2-.3V31.788c0-.1.1-.2.2-.3.1-.1.2-.1.3 0l10.1 5.897c.1.1.1.2.1.3V49.48c0 .1-.1.2-.1.3 0-.1-.1-.1-.1-.1zm2.8 0h-.2c-.1-.1-.2-.2-.2-.3V37.786c0-.1.1-.2.2-.3l10.1-5.897c.1-.1.2-.1.3 0 .1.1.2.2.2.3v11.695c0 .1-.1.2-.2.3L13.4 49.78c0-.1 0-.1-.1-.1z" fill="#FEE087"/>
        <path d="M11.9 35.486h-.2L1.6 29.59c-.1-.1-.2-.2-.2-.3 0-.1.1-.2.2-.3l10.1-5.798c.1-.1.2-.1.3 0l10.2 5.898c.1.1.2.2.2.3 0 .1-.1.2-.2.3l-10.1 5.797h-.2z" fill="#DD5900"/>
        <path d="M10.5 49.68h-.2L.2 43.883c-.1-.1-.2-.2-.2-.3V31.788c0-.1.1-.2.2-.3.1-.1.2-.1.3 0l10.1 5.897c.1.1.1.2.1.3V49.48c0 .1-.1.2-.1.3 0-.1-.1-.1-.1-.1z" fill="#FF8C00"/>
        <path d="M13.3 49.68h-.2c-.1-.1-.2-.2-.2-.3V37.786c0-.1.1-.2.2-.3l10.1-5.897c.1-.1.2-.1.3 0 .1.1.2.2.2.3v11.695c0 .1-.1.2-.2.3L13.4 49.78c0-.1 0-.1-.1-.1z" fill="#fff"/>
        <path d="M13.3 49.68h-.2c-.1-.1-.2-.2-.2-.3V37.786c0-.1.1-.2.2-.3l10.1-5.897c.1-.1.2-.1.3 0 .1.1.2.2.2.3v11.695c0 .1-.1.2-.2.3L13.4 49.78c0-.1 0-.1-.1-.1z" fill="#FF8C00" fill-opacity=".5"/>
        <path d="M38.1 35.486h-.2L27.7 29.59c-.1-.1-.2-.2-.2-.3 0-.1.1-.2.2-.3l10.1-5.798c.1-.1.2-.1.3 0l10.2 5.898c.1.1.2.2.2.3 0 .1-.1.2-.2.3l-10.1 5.797h-.1zM36.7 49.68h-.2l-10.1-5.897c-.1-.1-.2-.2-.2-.3V31.788c0-.1.1-.2.2-.3.1-.1.2-.1.3 0l10.1 5.897c.1.1.2.2.2.3V49.48c0 .1-.1.2-.2.3 0-.1-.1-.1-.1-.1zm2.8 0h-.2c-.1-.1-.2-.2-.2-.3V37.786c0-.1.1-.2.2-.3l10.1-5.897c.1-.1.2-.1.3 0 .1.1.2.2.2.3v11.695c0 .1-.1.2-.2.3L39.6 49.78c0-.1 0-.1-.1-.1z" fill="#FEE087"/>
        <path d="M38.1 35.486h-.2L27.7 29.59c-.1-.1-.2-.2-.2-.3 0-.1.1-.2.2-.3l10.1-5.798c.1-.1.2-.1.3 0l10.2 5.898c.1.1.2.2.2.3 0 .1-.1.2-.2.3l-10.1 5.797h-.1z" fill="#DD5900"/>
        <path d="M36.7 49.68h-.2l-10.1-5.897c-.1-.1-.2-.2-.2-.3V31.788c0-.1.1-.2.2-.3.1-.1.2-.1.3 0l10.1 5.897c.1.1.2.2.2.3V49.48c0 .1-.1.2-.2.3 0-.1-.1-.1-.1-.1z" fill="#FF8C00"/>
        <path d="M39.5 49.68h-.2c-.1-.1-.2-.2-.2-.3V37.786c0-.1.1-.2.2-.3l10.1-5.897c.1-.1.2-.1.3 0 .1.1.2.2.2.3v11.695c0 .1-.1.2-.2.3L39.6 49.78c0-.1 0-.1-.1-.1z" fill="#fff"/>
        <path d="M39.5 49.68h-.2c-.1-.1-.2-.2-.2-.3V37.786c0-.1.1-.2.2-.3l10.1-5.897c.1-.1.2-.1.3 0 .1.1.2.2.2.3v11.695c0 .1-.1.2-.2.3L39.6 49.78c0-.1 0-.1-.1-.1z" fill="#FF8C00" fill-opacity=".5"/>
        <path d="M25 13.295h-.2L14.7 7.397c-.1-.1-.2-.2-.2-.3 0-.1.1-.2.2-.3L24.8 1h.3l10.2 5.898c.1.1.2.2.2.3 0 .1-.1.2-.2.3l-10.1 5.797H25zM23.6 27.59h-.2l-10.1-5.898c-.1-.1-.2-.2-.2-.3V9.697c0-.1.1-.2.2-.3.1-.1.2-.1.3 0l10.1 5.897c.1.1.1.2.1.3V27.39c0 .1-.1.2-.1.3 0-.1-.1-.1-.1-.1zm2.8 0h-.2c-.1-.1-.2-.2-.2-.3V15.593c0-.1.1-.2.2-.3l10.1-5.897c.1-.1.2-.1.3 0 .1.1.2.2.2.3v11.695c0 .1-.1.2-.2.3l-10.1 5.897h-.1z" fill="#FEE087"/>
        <path d="M25 13.295h-.2L14.7 7.397c-.1-.1-.2-.2-.2-.3 0-.1.1-.2.2-.3L24.8 1h.3l10.2 5.898c.1.1.2.2.2.3 0 .1-.1.2-.2.3l-10.1 5.797H25z" fill="#DD5900"/>
        <path d="M23.6 27.59h-.2l-10.1-5.898c-.1-.1-.2-.2-.2-.3V9.697c0-.1.1-.2.2-.3.1-.1.2-.1.3 0l10.1 5.897c.1.1.1.2.1.3V27.39c0 .1-.1.2-.1.3 0-.1-.1-.1-.1-.1z" fill="#FF8C00"/>
        <path d="M26.4 27.59h-.2c-.1-.1-.2-.2-.2-.3V15.593c0-.1.1-.2.2-.3l10.1-5.897c.1-.1.2-.1.3 0 .1.1.2.2.2.3v11.695c0 .1-.1.2-.2.3l-10.1 5.897h-.1z" fill="#fff"/>
        <path d="M26.4 27.59h-.2c-.1-.1-.2-.2-.2-.3V15.593c0-.1.1-.2.2-.3l10.1-5.897c.1-.1.2-.1.3 0 .1.1.2.2.2.3v11.695c0 .1-.1.2-.2.3l-10.1 5.897h-.1z" fill="#FF8C00" fill-opacity=".5"/>
    </g>
    <g clip-path="url(#clip1)">
        <path d="M11.9 35.486h-.2L1.6 29.59c-.1-.1-.2-.2-.2-.3 0-.1.1-.2.2-.3l10.1-5.798c.1-.1.2-.1.3 0l10.2 5.898c.1.1.2.2.2.3 0 .1-.1.2-.2.3l-10.1 5.797h-.2zM10.5 49.68h-.2L.2 43.883c-.1-.1-.2-.2-.2-.3V31.788c0-.1.1-.2.2-.3.1-.1.2-.1.3 0l10.1 5.897c.1.1.1.2.1.3V49.48c0 .1-.1.2-.1.3 0-.1-.1-.1-.1-.1zm2.8 0h-.2c-.1-.1-.2-.2-.2-.3V37.786c0-.1.1-.2.2-.3l10.1-5.897c.1-.1.2-.1.3 0 .1.1.2.2.2.3v11.695c0 .1-.1.2-.2.3L13.4 49.78c0-.1 0-.1-.1-.1z" fill="#FEE087"/>
        <path d="M11.9 35.486h-.2L1.6 29.59c-.1-.1-.2-.2-.2-.3 0-.1.1-.2.2-.3l10.1-5.798c.1-.1.2-.1.3 0l10.2 5.898c.1.1.2.2.2.3 0 .1-.1.2-.2.3l-10.1 5.797h-.2z" fill="#DD5900"/>
        <path d="M10.5 49.68h-.2L.2 43.883c-.1-.1-.2-.2-.2-.3V31.788c0-.1.1-.2.2-.3.1-.1.2-.1.3 0l10.1 5.897c.1.1.1.2.1.3V49.48c0 .1-.1.2-.1.3 0-.1-.1-.1-.1-.1z" fill="#FF8C00"/>
        <path d="M13.3 49.68h-.2c-.1-.1-.2-.2-.2-.3V37.786c0-.1.1-.2.2-.3l10.1-5.897c.1-.1.2-.1.3 0 .1.1.2.2.2.3v11.695c0 .1-.1.2-.2.3L13.4 49.78c0-.1 0-.1-.1-.1z" fill="#fff"/>
        <path d="M13.3 49.68h-.2c-.1-.1-.2-.2-.2-.3V37.786c0-.1.1-.2.2-.3l10.1-5.897c.1-.1.2-.1.3 0 .1.1.2.2.2.3v11.695c0 .1-.1.2-.2.3L13.4 49.78c0-.1 0-.1-.1-.1z" fill="#FF8C00" fill-opacity=".5"/>
        <path d="M38.1 35.486h-.2L27.7 29.59c-.1-.1-.2-.2-.2-.3 0-.1.1-.2.2-.3l10.1-5.798c.1-.1.2-.1.3 0l10.2 5.898c.1.1.2.2.2.3 0 .1-.1.2-.2.3l-10.1 5.797h-.1zM36.7 49.68h-.2l-10.1-5.897c-.1-.1-.2-.2-.2-.3V31.788c0-.1.1-.2.2-.3.1-.1.2-.1.3 0l10.1 5.897c.1.1.2.2.2.3V49.48c0 .1-.1.2-.2.3 0-.1-.1-.1-.1-.1zm2.8 0h-.2c-.1-.1-.2-.2-.2-.3V37.786c0-.1.1-.2.2-.3l10.1-5.897c.1-.1.2-.1.3 0 .1.1.2.2.2.3v11.695c0 .1-.1.2-.2.3L39.6 49.78c0-.1 0-.1-.1-.1z" fill="#FEE087"/>
        <path d="M38.1 35.486h-.2L27.7 29.59c-.1-.1-.2-.2-.2-.3 0-.1.1-.2.2-.3l10.1-5.798c.1-.1.2-.1.3 0l10.2 5.898c.1.1.2.2.2.3 0 .1-.1.2-.2.3l-10.1 5.797h-.1z" fill="#DD5900"/>
        <path d="M36.7 49.68h-.2l-10.1-5.897c-.1-.1-.2-.2-.2-.3V31.788c0-.1.1-.2.2-.3.1-.1.2-.1.3 0l10.1 5.897c.1.1.2.2.2.3V49.48c0 .1-.1.2-.2.3 0-.1-.1-.1-.1-.1z" fill="#FF8C00"/>
        <path d="M39.5 49.68h-.2c-.1-.1-.2-.2-.2-.3V37.786c0-.1.1-.2.2-.3l10.1-5.897c.1-.1.2-.1.3 0 .1.1.2.2.2.3v11.695c0 .1-.1.2-.2.3L39.6 49.78c0-.1 0-.1-.1-.1z" fill="#fff"/>
        <path d="M39.5 49.68h-.2c-.1-.1-.2-.2-.2-.3V37.786c0-.1.1-.2.2-.3l10.1-5.897c.1-.1.2-.1.3 0 .1.1.2.2.2.3v11.695c0 .1-.1.2-.2.3L39.6 49.78c0-.1 0-.1-.1-.1z" fill="#FF8C00" fill-opacity=".5"/>
        <path d="M25 13.295h-.2L14.7 7.397c-.1-.1-.2-.2-.2-.3 0-.1.1-.2.2-.3L24.8 1h.3l10.2 5.898c.1.1.2.2.2.3 0 .1-.1.2-.2.3l-10.1 5.797H25zM23.6 27.59h-.2l-10.1-5.898c-.1-.1-.2-.2-.2-.3V9.697c0-.1.1-.2.2-.3.1-.1.2-.1.3 0l10.1 5.897c.1.1.1.2.1.3V27.39c0 .1-.1.2-.1.3 0-.1-.1-.1-.1-.1zm2.8 0h-.2c-.1-.1-.2-.2-.2-.3V15.593c0-.1.1-.2.2-.3l10.1-5.897c.1-.1.2-.1.3 0 .1.1.2.2.2.3v11.695c0 .1-.1.2-.2.3l-10.1 5.897h-.1z" fill="#FEE087"/>
        <path d="M25 13.295h-.2L14.7 7.397c-.1-.1-.2-.2-.2-.3 0-.1.1-.2.2-.3L24.8 1h.3l10.2 5.898c.1.1.2.2.2.3 0 .1-.1.2-.2.3l-10.1 5.797H25z" fill="#DD5900"/>
        <path d="M23.6 27.59h-.2l-10.1-5.898c-.1-.1-.2-.2-.2-.3V9.697c0-.1.1-.2.2-.3.1-.1.2-.1.3 0l10.1 5.897c.1.1.1.2.1.3V27.39c0 .1-.1.2-.1.3 0-.1-.1-.1-.1-.1z" fill="#FF8C00"/>
        <path d="M26.4 27.59h-.2c-.1-.1-.2-.2-.2-.3V15.593c0-.1.1-.2.2-.3l10.1-5.897c.1-.1.2-.1.3 0 .1.1.2.2.2.3v11.695c0 .1-.1.2-.2.3l-10.1 5.897h-.1z" fill="#fff"/>
        <path d="M26.4 27.59h-.2c-.1-.1-.2-.2-.2-.3V15.593c0-.1.1-.2.2-.3l10.1-5.897c.1-.1.2-.1.3 0 .1.1.2.2.2.3v11.695c0 .1-.1.2-.2.3l-10.1 5.897h-.1z" fill="#FF8C00" fill-opacity=".5"/>
    </g>
    <defs>
        <clipPath id="clip0">
            <path fill="#fff" transform="translate(0 1)" d="M0 0h50v48.68H0z"/>
        </clipPath>
        <clipPath id="clip1">
            <path fill="#fff" transform="translate(0 1)" d="M0 0h50v48.68H0z"/>
        </clipPath>
    </defs>
</svg>
