<svg xmlns="http://www.w3.org/2000/svg" width="50" height="50">
    <path fill="#7FBA00" d="M11.923 34.94a.286.286 0 01-.155-.043L1.595 29.025a.307.307 0 01-.158-.267.3.3 0 01.158-.266l10.109-5.834a.3.3 0 01.306 0l10.172 5.874a.304.304 0 010 .533l-10.107 5.832a.28.28 0 01-.152.043"/>
    <path fill="#B8D432" d="M10.454 49.217a.322.322 0 01-.152-.04L.158 43.321A.304.304 0 010 43.055V31.304c0-.108.059-.212.158-.266a.306.306 0 01.307 0l10.143 5.855a.307.307 0 01.156.268v11.748a.308.308 0 01-.31.308m2.872 0a.358.358 0 01-.156-.04.31.31 0 01-.151-.268V37.235c0-.109.057-.211.151-.268l10.142-5.853a.317.317 0 01.31 0 .311.311 0 01.151.268v11.673a.308.308 0 01-.151.266L13.48 49.177a.324.324 0 01-.154.04"/>
    <path fill="#7FBA00" d="M38.146 34.941a.298.298 0 01-.152-.044l-10.176-5.873a.307.307 0 010-.533l10.11-5.835a.314.314 0 01.306 0l10.178 5.876a.31.31 0 01.153.264.313.313 0 01-.153.268L38.3 34.897a.307.307 0 01-.154.044"/>
    <path fill="#B8D432" d="M36.683 49.216a.303.303 0 01-.156-.041L26.383 43.32a.302.302 0 01-.156-.267V31.304c0-.11.058-.211.156-.269a.322.322 0 01.31 0l10.142 5.855a.313.313 0 01.151.268v11.75a.306.306 0 01-.303.308m2.87 0a.307.307 0 01-.308-.308V37.234c0-.11.058-.211.152-.268l10.141-5.853a.317.317 0 01.31 0 .311.311 0 01.152.266v11.674a.309.309 0 01-.152.267l-10.144 5.855a.28.28 0 01-.151.041"/>
    <path fill="#7FBA00" d="M24.937 12.325a.32.32 0 01-.155-.044L14.606 6.408a.308.308 0 010-.533L24.719.04a.314.314 0 01.306 0l10.178 5.876a.306.306 0 01.152.265.307.307 0 01-.152.267l-10.111 5.833a.308.308 0 01-.155.044"/>
    <path fill="#B8D432" d="M23.475 26.601a.3.3 0 01-.155-.041l-10.144-5.855a.303.303 0 01-.156-.267V8.689c0-.111.057-.211.156-.27a.322.322 0 01.31 0l10.142 5.856a.318.318 0 01.151.267v11.75c0 .113-.06.211-.151.268a.328.328 0 01-.153.041m2.871 0a.323.323 0 01-.157-.041.312.312 0 01-.152-.268V14.618c0-.11.059-.211.152-.267l10.14-5.854a.311.311 0 01.307 0 .306.306 0 01.155.267v11.674a.306.306 0 01-.155.267L26.495 26.56a.28.28 0 01-.149.041"/>
    <path opacity=".5" fill="#FFF" d="M13.326 49.217a.358.358 0 01-.156-.04.31.31 0 01-.151-.268V37.235c0-.109.057-.211.151-.268l10.142-5.853a.317.317 0 01.31 0 .311.311 0 01.151.268v11.673a.308.308 0 01-.151.266L13.48 49.177a.324.324 0 01-.154.04m26.227-.001a.307.307 0 01-.308-.308V37.234c0-.11.058-.211.152-.268l10.141-5.853a.317.317 0 01.31 0 .311.311 0 01.152.266v11.674a.309.309 0 01-.152.267l-10.144 5.855a.28.28 0 01-.151.041M26.346 26.601a.323.323 0 01-.157-.041.312.312 0 01-.152-.268V14.618c0-.11.059-.211.152-.267l10.14-5.854a.311.311 0 01.307 0 .306.306 0 01.155.267v11.674a.306.306 0 01-.155.267L26.495 26.56a.28.28 0 01-.149.041"/>
</svg>
