<svg xmlns="http://www.w3.org/2000/svg" width="128.843" height="130.959" viewBox="0 0 128.843 130.959">
  <g id="Layer_2" data-name="Layer 2">
    <g id="Layer_1-2" data-name="Layer 1">
      <path d="M63.4,15.313V12.048l-.179-.165-3.34-1.126-.861-2.25,1.654-3.43.183-.385L59.827,3.65,58.569,2.387l-.437.22L54.867,4.28l-2.25-.631L51.193,0H47.954l-.165.165L46.663,3.5l-2.276.857L40.6,2.534,38.295,4.821l.22.43,1.674,3.261-.933,2.248L35.3,12.185V15.45l.467.137,3.485,1.152.933,2.25L38.4,22.776l2.306,2.332.439-.22,3.265-1.674,2.25.933L48.091,28.1h3.265l.137-.467,1.152-3.485,2.223-.933L58.683,25l2.306-2.306-.22-.439L59.1,18.991l.645-2.278ZM49.656,18.332a4.582,4.582,0,1,1,4.556-4.582A4.59,4.59,0,0,1,49.656,18.332Z" fill="#22a6ff"/>
      <path d="M19.879,104.163v-2.118l-.116-.107-2.167-.73-.558-1.459,1.073-2.225.118-.25-.671-.677-.816-.819-.284.142-2.118,1.086L12.882,96.6l-.924-2.368h-2.1l-.107.107L9.019,96.5l-1.477.556L5.086,95.873l-1.5,1.483.142.279,1.086,2.116-.6,1.458-2.563.924v2.118l.3.089,2.26.747.6,1.459L3.661,109l1.5,1.513.285-.142,2.118-1.086,1.459.6.926,2.565h2.118l.089-.3.747-2.26,1.442-.6,2.475,1.158,1.5-1.5-.142-.285-1.086-2.118.418-1.478Zm-8.919,1.958a2.973,2.973,0,1,1,2.955-2.972A2.977,2.977,0,0,1,10.961,106.122Z" fill="#22a6ff"/>
      <path d="M128.843,78.318V75.875l-.134-.124-2.5-.843-.644-1.684,1.238-2.567.137-.288-.774-.781-.941-.945-.327.164-2.443,1.253-1.684-.472L119.7,66.858H117.28l-.124.124-.843,2.495-1.7.641-2.834-1.363-1.726,1.711.164.322,1.253,2.441-.7,1.682-2.957,1.066v2.443l.35.1,2.608.862.7,1.684L110.133,83.9l1.726,1.746.329-.164,2.443-1.253,1.684.7,1.069,2.959h2.443l.1-.35.862-2.608,1.664-.7,2.855,1.335,1.726-1.726-.164-.329-1.253-2.443.482-1.7Zm-10.289,2.259a3.429,3.429,0,1,1,3.41-3.429A3.435,3.435,0,0,1,118.554,80.578Z" fill="#22a6ff"/>
      <g>
        <path d="M82.54,95.8h-3v-3.3a19.759,19.759,0,1,0-39.517,0v3.3h-3v-3.3a22.759,22.759,0,1,1,45.517,0Z" fill="#22a6ff"/>
        <path d="M59.781,72.115a13.53,13.53,0,1,1,13.53-13.53A13.545,13.545,0,0,1,59.781,72.115Zm0-24.06a10.53,10.53,0,1,0,10.53,10.53A10.542,10.542,0,0,0,59.781,48.055Z" fill="#22a6ff"/>
      </g>
      <g opacity="0.2">
        <path d="M5.045,93.649a1,1,0,0,1-.931-.635C3.5,91.44,2.94,89.823,2.46,88.206a1,1,0,0,1,1.918-.568c.462,1.562,1,3.125,1.6,4.645a1,1,0,0,1-.93,1.366ZM2.2,84.074a1,1,0,0,1-.979-.8c-.34-1.653-.612-3.341-.81-5.018A1,1,0,0,1,2.4,78.023c.191,1.621.455,3.252.783,4.85a1,1,0,0,1-.98,1.2ZM1.032,74.156a1,1,0,0,1-1-.967Q0,72.188,0,71.179c0-1.026.026-2.059.078-3.071a1,1,0,1,1,2,.1C2.025,69.188,2,70.187,2,71.178q0,.976.032,1.946a1,1,0,0,1-.967,1.032Zm.508-9.973a1,1,0,0,1-.992-1.135c.228-1.675.53-3.36.9-5.006A1,1,0,1,1,3.4,58.48c-.357,1.591-.649,3.219-.87,4.838A1,1,0,0,1,1.541,64.183Zm2.186-9.749a1,1,0,0,1-.954-1.3c.508-1.607,1.093-3.215,1.739-4.778a1,1,0,0,1,1.849.764c-.625,1.511-1.19,3.064-1.681,4.617A1,1,0,0,1,3.726,54.435ZM7.541,45.2a1,1,0,0,1-.887-1.459c.777-1.5,1.627-2.985,2.527-4.412A1,1,0,0,1,10.872,40.4C10,41.776,9.181,43.211,8.43,44.661A1,1,0,0,1,7.541,45.2Zm5.328-8.449a1,1,0,0,1-.8-1.6c1.017-1.345,2.105-2.664,3.235-3.921a1,1,0,1,1,1.487,1.337c-1.092,1.215-2.144,2.49-3.127,3.79A1,1,0,0,1,12.869,36.753Zm6.677-7.429a1,1,0,0,1-.685-1.729c1.229-1.155,2.524-2.271,3.848-3.32a1,1,0,0,1,1.241,1.568c-1.28,1.013-2.532,2.093-3.72,3.209A1,1,0,0,1,19.546,29.324Zm7.831-6.2a1,1,0,0,1-.553-1.834c1.411-.934,2.875-1.816,4.353-2.622a1,1,0,1,1,.958,1.756c-1.428.779-2.843,1.631-4.207,2.534A1,1,0,0,1,27.377,23.128Z" fill="#00a2f2"/>
      </g>
      <g opacity="0.2">
        <path d="M59.782,130.959q-1.275,0-2.537-.053a1,1,0,0,1,.083-2c1.629.067,3.283.067,4.915,0a1,1,0,0,1,.083,2Q61.061,130.958,59.782,130.959Zm-7.478-.471a1.026,1.026,0,0,1-.127-.008c-1.678-.213-3.364-.5-5.014-.855a1,1,0,1,1,.421-1.955c1.593.342,3.223.621,4.845.826a1,1,0,0,1-.125,1.992Zm14.958,0a1,1,0,0,1-.125-1.992c1.621-.206,3.25-.484,4.843-.826a1,1,0,1,1,.42,1.955c-1.648.354-3.333.642-5.01.855A1.028,1.028,0,0,1,67.262,130.487Zm9.764-2.1a1,1,0,0,1-.292-1.957c1.56-.478,3.117-1.029,4.628-1.639a1,1,0,1,1,.748,1.855c-1.564.63-3.176,1.2-4.79,1.7A1,1,0,0,1,77.026,128.39Zm-34.491,0a1,1,0,0,1-.293-.044c-1.615-.5-3.228-1.066-4.793-1.7a1,1,0,0,1,.748-1.854c1.513.61,3.071,1.161,4.631,1.64a1,1,0,0,1-.292,1.957Zm43.751-3.73a1,1,0,0,1-.452-1.893c1.451-.734,2.893-1.542,4.284-2.4a1,1,0,1,1,1.052,1.7c-1.439.89-2.931,1.726-4.433,2.486A1,1,0,0,1,86.287,124.658Zm-53.019,0a1,1,0,0,1-.451-.108c-1.506-.763-3-1.6-4.434-2.487a1,1,0,1,1,1.052-1.7c1.388.858,2.83,1.667,4.286,2.4a1,1,0,0,1-.453,1.892Zm61.512-5.246a1,1,0,0,1-.6-1.8c1.307-.97,2.592-2.01,3.817-3.092a1,1,0,0,1,1.323,1.5c-1.268,1.119-2.6,2.2-3.949,3.2A1,1,0,0,1,94.78,119.409ZM24.772,119.4a.994.994,0,0,1-.6-.2c-1.353-1-2.681-2.081-3.949-3.2a1,1,0,1,1,1.323-1.5c1.226,1.082,2.51,2.123,3.818,3.094a1,1,0,0,1-.6,1.8Zm77.494-6.6a1,1,0,0,1-.723-1.691c1.126-1.177,2.217-2.419,3.243-3.691a1,1,0,0,1,1.557,1.256c-1.061,1.316-2.189,2.6-3.354,3.818A1,1,0,0,1,102.267,112.8Zm6.268-7.776a1,1,0,0,1-.828-1.56c.915-1.354,1.78-2.763,2.574-4.186a1,1,0,0,1,1.747.975c-.821,1.472-1.717,2.928-2.663,4.33A1,1,0,0,1,108.534,105.026ZM113.4,96.3a1,1,0,0,1-.911-1.411c.67-1.489,1.284-3.024,1.825-4.562a1,1,0,1,1,1.887.663c-.559,1.591-1.194,3.179-1.888,4.72A1,1,0,0,1,113.4,96.3Z" fill="#00a2f2"/>
      </g>
      <g opacity="0.2">
        <path d="M118.563,71.178" fill="none" stroke="#00a2f2" stroke-linecap="round" stroke-miterlimit="20" stroke-width="2" stroke-dasharray="5"/>
      </g>
      <g opacity="0.2">
        <path d="M117.773,62.527a1,1,0,0,1-.986-.837c-.266-1.611-.6-3.229-1.006-4.808a1,1,0,0,1,1.938-.493c.416,1.634.766,3.308,1.042,4.975a1,1,0,0,1-.824,1.15A1.046,1.046,0,0,1,117.773,62.527Zm-2.462-9.676a1,1,0,0,1-.944-.672c-.536-1.54-1.145-3.075-1.811-4.565a1,1,0,0,1,1.825-.816c.69,1.542,1.32,3.131,1.874,4.724a1,1,0,0,1-.944,1.329Zm-4.074-9.115a1,1,0,0,1-.876-.516c-.789-1.424-1.65-2.834-2.561-4.192a1,1,0,1,1,1.661-1.114c.942,1.4,1.833,2.863,2.65,4.337a1,1,0,0,1-.874,1.484Zm-5.564-8.293a1,1,0,0,1-.781-.375c-1.02-1.272-2.107-2.517-3.232-3.7a1,1,0,0,1,1.449-1.378c1.164,1.223,2.289,2.511,3.343,3.827a1,1,0,0,1-.78,1.625Zm-6.883-7.237a1,1,0,0,1-.663-.252c-1.223-1.085-2.5-2.13-3.809-3.1a1,1,0,0,1,1.2-1.6c1.35,1.008,2.675,2.088,3.94,3.21a1,1,0,0,1-.664,1.748Zm-8-5.975a1,1,0,0,1-.527-.151c-1.387-.862-2.826-1.675-4.278-2.415a1,1,0,0,1,.908-1.782c1.5.766,2.992,1.607,4.427,2.5a1,1,0,0,1-.529,1.849ZM81.89,17.7a1,1,0,0,1-.375-.074c-1.514-.614-3.07-1.17-4.627-1.652a1,1,0,1,1,.592-1.91c1.61.5,3.221,1.074,4.787,1.709A1,1,0,0,1,81.89,17.7Zm-9.539-2.953a1,1,0,0,1-.214-.023c-1.59-.347-3.219-.629-4.84-.84a1,1,0,1,1,.258-1.983c1.677.218,3.362.51,5.008.869a1,1,0,0,1-.212,1.977Z" fill="#00a2f2"/>
      </g>
      <g opacity="0.2">
        <path d="M59.781,12.4" fill="none" stroke="#00a2f2" stroke-linecap="round" stroke-miterlimit="20" stroke-width="2" stroke-dasharray="5"/>
      </g>
    </g>
  </g>
</svg>
