<svg xmlns="http://www.w3.org/2000/svg" viewBox="0 0 50 50" class="fxs-portal-svg" id="FxSymbol0-0ad" version="1.1"><style>.msportalfx-svg-c13{fill:#b8d432}.msportalfx-svg-c19{fill:#0072c6}</style><g id="g16"><path class="msportalfx-svg-c19" d="M3.167 13h22.667v4H3.167zm5 10h25.667v4H8.167zm-5 10h22.667v4H3.167z" id="path6"/><circle r="3.9" class="msportalfx-svg-c13" cx="4" cy="35" id="circle8"/><circle class="msportalfx-svg-c13" cx="4" cy="15" transform="rotate(-45.001 4 15)" id="ellipse10" r="3.9"/><circle cx="9" cy="25" transform="rotate(-45.001 9 25)" id="ellipse12" fill="#59b4d9" r="3.9"/><path class="msportalfx-svg-c19" d="M24 20V10l8 5zm0 20V30l8 5zm8-10V20l8 5zm17.2 8.6h-4.8c-.5 0-.8.3-.8.8v4H7V50h42.2c.5 0 .8-.3.8-.8v-9.8c0-.5-.3-.8-.8-.8zM49.281 0H7v6.7h36.381v4.2c0 .5.3.8 1 .8h4.8c.5 0 .8-.3.8-.8V.9c.1-.6-.2-.9-.7-.9z" id="path14"/></g></svg>