<svg xmlns="http://www.w3.org/2000/svg" viewBox="0 0 32142 29994" data-type="1"><path fill="#B3ECFC" d="M27854 4282H12857L9703 0H0v27851h29998V6426h-2144z"/><path fill="#00BCF2" d="M2141 6425h27857v21426H2141z"/><path fill="#66D7F7" d="M2141 27851L21426 6426H2141z"/><path fill="#FCF37E" d="M32142 29994H14999V8566h17143z"/><path fill="#BFB500" d="M21429 12854h8572v2141h-8572zm-4287 0h2144v2141h-2144zm4287 4284h8572v2141h-8572zm-4287 0h2144v2141h-2144zm4287 4285h8572v2141h-8572zm-4287 0h2144v2141h-2144zm4287 4287h8572v2141h-8572zm-4287 0h2144v2141h-2144z"/></svg>