<svg version="1.1" id="Layer_1" xmlns="http://www.w3.org/2000/svg" x="0" y="0" xml:space="preserve" viewBox="0 0 128 64"><style>.st0{fill:#949494}.st1{fill:#3a96dd}</style><path class="st0" d="M35.9 44.4l-2-.8-1.5 3.7 2 .8c-.2 1.2-.3 2.5 0 3.8l-2 .8 1.5 3.7 2-.8c.7 1.1 1.7 2 2.7 2.7l-.8 2 3.7 1.5.8-2c1.2.2 2.5.3 3.8 0l.8 2 3.7-1.5-.8-2c1.1-.7 2-1.7 2.7-2.7l2.1.8 1.5-3.7-2.1-.9c.2-1.2.3-2.5 0-3.8l2.1-.9-1.5-3.7-2.1.9c-.7-1.1-1.6-2-2.7-2.7l.9-2.1L47 38l-1 2.2c-1.2-.2-2.5-.3-3.8 0l-.8-2-3.7 1.5.8 2c-1 .7-1.9 1.7-2.6 2.7zm5.9 0c3.1-1.3 6.7.2 8 3.3s-.2 6.7-3.3 8-6.7-.2-8-3.3c-1.3-3.2.2-6.8 3.3-8zm-16-17.3l1.5-1.5-2.8-2.8-1.5 1.5c-1.4-1-3.1-1.7-4.9-2V20h-4v2.2c-1.8.3-3.5 1-4.9 2l-1.5-1.5-2.8 2.8L6.4 27c-1 1.4-1.7 3.1-2 4.9H2v4h2.2c.3 1.8 1 3.5 2 4.9l-1.5 1.5 2.8 2.8L9 43.6c1.4 1 3.1 1.7 4.9 2V48h4v-2.2c1.8-.3 3.5-1 4.9-2l1.5 1.5 2.8-2.8-1.5-1.5c1-1.4 1.7-3.1 2-4.9H30v-4h-2.2c-.3-1.9-1-3.6-2-5zm-9.8 15c-4.5 0-8.1-3.7-8.1-8.1 0-4.5 3.7-8.1 8.1-8.1 4.5 0 8.1 3.7 8.1 8.1 0 4.5-3.6 8.1-8.1 8.1z"/><path class="st0" d="M62 22v-4h-2.1c-.2-1.5-.6-2.9-1.1-4.2l1.8-1.1-2-3.5-1.9 1.1c-.9-1.2-1.9-2.2-3.1-3.1l1.1-1.9-3.5-2-1.1 1.8c-1.3-.6-2.7-.9-4.2-1.1V2h-4v2.1c-1.5.2-2.9.6-4.2 1.1l-1.1-1.8-3.5 2 1.1 1.9c-1.2.9-2.2 1.9-3.1 3.1l-1.9-1.1-2 3.5 1.8 1.1c-.6 1.3-.9 2.7-1.1 4.2H26v4h2.1c.2 1.5.6 2.9 1.1 4.2l-1.8 1.1 2 3.5 1.9-1.1c.9 1.2 1.9 2.2 3.1 3.1l-1.1 1.9 3.5 2 1.1-1.8c1.3.6 2.7.9 4.2 1.1V38h4v-2.1c1.5-.2 2.9-.6 4.2-1.1l1.1 1.8 3.5-2-1.1-1.9c1.2-.9 2.2-1.9 3.1-3.1l1.9 1.1 2-3.5-1.8-1.1c.6-1.3.9-2.7 1.1-4.2l1.9.1zm-30-2c0-6.6 5.4-12 12-12s12 5.4 12 12-5.4 12-12 12-12-5.4-12-12z"/><path class="st1" d="M99.9 44.4l-2-.8-1.5 3.7 2 .8c-.2 1.2-.3 2.5 0 3.8l-2 .8 1.5 3.7 2-.8c.7 1.1 1.7 2 2.7 2.7l-.8 2 3.7 1.5.8-2c1.2.2 2.5.3 3.8 0l.8 2 3.7-1.5-.8-2c1.1-.7 2-1.7 2.7-2.7l2.1.8 1.5-3.7-2.1-.9c.2-1.2.3-2.5 0-3.8l2.1-.9-1.5-3.7-2.1.9c-.7-1.1-1.6-2-2.7-2.7l.9-2.1L111 38l-1 2.2c-1.2-.2-2.5-.3-3.8 0l-.8-2-3.7 1.5.8 2c-1 .7-1.9 1.7-2.6 2.7zm5.9 0c3.1-1.3 6.7.2 8 3.3 1.3 3.1-.2 6.7-3.3 8s-6.7-.2-8-3.3c-1.3-3.2.2-6.8 3.3-8zm-16-17.3l1.5-1.5-2.8-2.8-1.5 1.5c-1.4-1-3.1-1.7-4.9-2V20h-4v2.2c-1.8.3-3.5 1-4.9 2l-1.5-1.5-2.8 2.8 1.5 1.5c-1 1.4-1.7 3.1-2 4.9H66v4h2.2c.3 1.8 1 3.5 2 4.9l-1.5 1.5 2.8 2.8 1.5-1.5c1.4 1 3.1 1.7 4.9 2V48h4v-2.2c1.8-.3 3.5-1 4.9-2l1.5 1.5 2.8-2.8-1.5-1.5c1-1.4 1.7-3.1 2-4.9H94v-4h-2.2c-.3-1.9-1-3.6-2-5zm-9.8 15c-4.5 0-8.1-3.7-8.1-8.1 0-4.5 3.7-8.1 8.1-8.1 4.5 0 8.1 3.7 8.1 8.1 0 4.5-3.6 8.1-8.1 8.1z"/><path class="st1" d="M126 22v-4h-2.1c-.2-1.5-.6-2.9-1.1-4.2l1.8-1.1-2-3.5-1.9 1.1c-.9-1.2-1.9-2.2-3.1-3.1l1.1-1.9-3.5-2-1.1 1.8c-1.3-.6-2.7-.9-4.2-1.1V2h-4v2.1c-1.5.2-2.9.6-4.2 1.1l-1.1-1.8-3.5 2 1.1 1.9c-1.2.9-2.2 1.9-3.1 3.1l-1.9-1.1-2 3.5 1.8 1.1c-.6 1.3-.9 2.7-1.1 4.2H90v4h2.1c.2 1.5.6 2.9 1.1 4.2l-1.8 1.1 2 3.5 1.9-1.1c.9 1.2 1.9 2.2 3.1 3.1l-1.1 1.9 3.5 2 1.1-1.8c1.3.6 2.7.9 4.2 1.1V38h4v-2.1c1.5-.2 2.9-.6 4.2-1.1l1.1 1.8 3.5-2-1.1-1.9c1.2-.9 2.2-1.9 3.1-3.1l1.9 1.1 2-3.5-1.8-1.1c.6-1.3.9-2.7 1.1-4.2l1.9.1zm-30-2c0-6.6 5.4-12 12-12s12 5.4 12 12-5.4 12-12 12-12-5.4-12-12z"/></svg>