<svg xmlns="http://www.w3.org/2000/svg" viewBox="0 0 500 500"><circle fill="none" stroke="#3BBDEE" stroke-width="18" stroke-miterlimit="10" cx="255.194" cy="251.707" r="175.573"/><path fill-rule="evenodd" clip-rule="evenodd" fill="#C5DB5E" d="M449.847 234.814c.409 5.172.624 10.399.624 15.675 0 .859-.021 1.712-.033 2.568 35.328 29.643 31.15 62.15-17.788 79.232-9.032 3.151-19.593 5.778-31.704 7.764-19.888 3.262-43.979 4.796-72.408 4.097 35.687-55.314 42.048-124.173 25.338-183.354 11.51-8.599 21.913-15.794 31.243-21.684 7.92-4.999 15.071-9.062 21.487-12.265 50.857-25.391 55.52 3.319 29.621 50.144a194.41 194.41 0 016.495 18.757c41.39-48.156 62.392-152.092-49.684-83.966-6.517 3.961-13.474 8.493-20.911 13.663-34.008 23.633-77.89 60.372-133.747 114.476-25.869-23.237-54.958-41.208-83.292-54.176l-.514 3.312c-3.357-29.888-4.023-55.428-2.537-76.723.839-12.021 2.364-22.684 4.473-32.023 12.947-57.317 47.951-64.557 82.214-26.528l4.951.775a199.43 199.43 0 0110.576-.286c.775 0 1.545.02 2.316.029-41.496-74.312-111.159-72.885-122.732 41.264-1.052 10.381-1.624 21.694-1.65 33.967-.081 37.493 4.922 83.938 16.869 140.146l.131.424.053.442c3.88 18.252 8.011 35.254 12.344 51.082-29.173-7.139-53.296-15.322-72.658-24.068-10.94-4.941-20.356-10.063-28.314-15.277-48.189-31.573-42.709-66.538 4.37-85.577l1.122-2.032a194.52 194.52 0 014.909-14.464c-83.144 13.714-105.491 78.895-4.164 128.606 9.318 4.571 19.679 9.012 31.138 13.27 19.824 7.365 42.929 14.184 69.56 20.184 8.15 26.715 16.896 49.619 25.961 69.019 5.263 11.264 10.631 21.352 16.056 30.308 54.73 90.383 114.897 66.349 124.833-11.951a194.237 194.237 0 01-17.216 6.76c-15.87 42.209-47.445 49.006-79.853 9.573-6.1-7.42-12.228-16.48-18.287-27.247-10.533-18.719-20.855-42.606-30.448-72.035 15.168 2.969 31.349 5.688 48.597 8.111l.445.022.433.101c60.204 8.461 108.968 9.932 147.396 6.537 12.293-1.085 23.534-2.664 33.745-4.677 104.393-20.573 101.897-85.943 30.64-121.975zM235.604 335.686c-19.17-2.757-36.907-5.895-53.269-9.344-4.901-16.916-9.566-35.405-13.914-55.543l-1.944-9.147c-4.533-21.672-7.961-41.76-10.404-60.292 27.403 14.033 53.174 31.109 76.576 54.244 13.029 12.882 24.944 7.658 16.169-4.933l.105.06c35.573-33.396 65.87-59.552 91.35-79.521 12.26 54.89 7.237 108.261-29.938 172.212-19.914-1.083-41.717-3.177-65.47-6.437l-9.261-1.299z"/><circle fill="#2F6DB6" cx="251.294" cy="258.605" r="48.902"/><circle fill="#2F6DB6" cx="144.854" cy="192.788" r="28.576"/><circle fill="#2F6DB6" cx="315.189" cy="355.302" r="30.47"/><circle fill="#2F6DB6" cx="342.489" cy="164.204" r="20.527"/></svg>