<svg version="1.1" id="Layer_1" xmlns="http://www.w3.org/2000/svg" x="0" y="0" xml:space="preserve" viewBox="0 0 48 48"><style>.st0{fill:#21bbee}.st1{opacity:.8;fill:#fff;enable-background:new}</style><path class="st0" d="M43.9 5.9l-4.1-4L38.1.1H8v42.7h37.6V7.6z"/><path class="st1" d="M37.9 1.9H9.7v39.2h34.2V7.8h-6z"/><path class="st0" d="M38.7 11.3l-4.1-4.1-1.7-1.7H2.8v42.6h37.7V13z"/><path class="st1" d="M32.7 7.1H4.5v39.3h34.2V13.1h-6z"/><path class="st0" d="M33 28.7c-1.4 0-2.1.8-2.1 2.3v2.7c0 1.7-.2 2.7-1 3.5-.8.8-2.3 1-3.9 1V36c.8 0 1.3-.2 1.4-.4.2-.2.4-1 .4-1.7v-2.7c0-2.1.8-3.3 2.1-3.7-1.3-.4-2.1-1.7-2.1-3.9V21c0-1.4-.8-2.3-2.1-2.3v-2.2h1c1.3 0 2.3.4 2.9 1 .8.8 1 2.1 1 3.7v2.7c0 1.4.8 2.3 2.1 2.3v2.5h.3zm-16 9.4c-1.7 0-3.3-.2-3.9-1-.8-.8-1-1.7-1-3.5v-2.9c-.2-1.4-.8-2.3-2.1-2.3v-2.3c1.3 0 1.7-.8 1.7-2.5v-2.5c0-1.7.2-2.7 1.3-3.5.8-1 2.3-1.3 3.9-1.3V19c-1.3 0-2.1.8-2.1 2.3v2.5c0 2.1-.8 3.3-2.1 3.7 1.3.4 2.1 1.7 2.1 3.7v2.5c0 .8.2 1.4.4 1.7.2.8.8.8 1.4.8v2.1l.4-.2z"/></svg>