<svg viewBox="0 0 18 18" xmlns="http://www.w3.org/2000/svg" data-type="1"><path d="M6.952 4.173a1.155 1.155 0 011.172-1.091h2.286V.485A.512.512 0 009.874 0h-8.2a.511.511 0 00-.534.485V13.8a.512.512 0 00.535.484h5.277z" fill="url(#030639787428299314)"/><path d="M3.509 3.92h3.484a1.171 1.171 0 011.131-.838h.965a1.044 1.044 0 00.041-.274A1.063 1.063 0 008.123 1.7H3.509A1.063 1.063 0 002.5 2.808 1.063 1.063 0 003.509 3.92zm3.443 1.073H3.509A1.062 1.062 0 002.5 6.105a1.062 1.062 0 001.009 1.112h3.443z" fill="#341a6e"/><path d="M4.677 2.807a.742.742 0 11-.741-.741.741.741 0 01.741.741zm0 3.293a.742.742 0 11-.741-.742.742.742 0 01.741.742z" fill="#b796f9"/><path d="M8.1 18h8.25a.511.511 0 00.51-.484V4.206a.511.511 0 00-.51-.485H8.1a.512.512 0 00-.511.485v13.31A.512.512 0 008.1 18z" fill="url(#7182206880862623)"/><path d="M15.581 9.826a1.063 1.063 0 01-1.007 1.112H9.96a1.063 1.063 0 01-1.008-1.112A1.063 1.063 0 019.96 8.714h4.614a1.063 1.063 0 011.007 1.112zm0-3.3a1.063 1.063 0 00-1.007-1.112H9.96a1.063 1.063 0 00-1.008 1.114A1.064 1.064 0 009.96 7.641h4.614a1.064 1.064 0 001.007-1.113z" fill="#003067"/><path d="M11.128 6.528a.742.742 0 11-.742-.741.742.742 0 01.742.741zm-.742 2.553a.742.742 0 10.742.741.741.741 0 00-.742-.741z" fill="#83b9f9"/><defs><linearGradient id="30639787428299310" x1="5.775" y1="14.338" x2="5.775" y2=".059" gradientUnits="userSpaceOnUse"><stop offset="0" stop-color="#773adc"/><stop offset="1" stop-color="#a67af4"/></linearGradient><linearGradient id="7182206880862623" x1="12.225" y1="17.967" x2="12.225" y2="3.688" gradientUnits="userSpaceOnUse"><stop offset="0" stop-color="#0078d4"/><stop offset="1" stop-color="#5ea0ef"/></linearGradient></defs></svg>