<?xml version="1.0" encoding="UTF-8"?>
<svg width="215px" height="184px" viewBox="0 0 215 184" version="1.1" xmlns="http://www.w3.org/2000/svg" xmlns:xlink="http://www.w3.org/1999/xlink">
  <!-- Generator: Sketch 46.2 (44496) - http://www.bohemiancoding.com/sketch -->
  <defs>
  </defs>
  <g id="Page-1" stroke="none" stroke-width="1" fill="none" fill-rule="evenodd">
    <g id="2916-services-machine-learning-RC-Copy-2" transform="translate(-1212.000000, -426.000000)" fill-rule="nonzero">
      <g id="machine-learning-diagram" transform="translate(1212.000000, 426.000000)">
        <polygon id="Shape" fill="#A5CE00" points="60.3767414 66 58 63.6338189 72.6420351 49.0676949 72.6420351 28 76 28 76 50.4461582">
        </polygon>
        <polygon id="Shape" fill="#A5CE00" points="180 127 113.285768 127 94 107.4004 96.3632926 105 114.67339 123.597598 180 123.597598">
        </polygon>
        <polygon id="Shape" fill="#A5CE00" points="174.489936 63 147 63 147 59.6713287 173.120255 59.6713287 186.667261 46 189 48.3560076">
        </polygon>
        <rect id="Rectangle-path" fill="#A5CE00" transform="translate(121.500000, 115.500000) rotate(-45.000000) translate(-121.500000, -115.500000) " x="120" y="101" width="3" height="29">
        </rect>
        <polygon id="Shape" fill="#A5CE00" points="75.3855219 51 73 48.6517056 82.6296296 39.1831239 82.6296296 27 86 27 86 40.551167">
        </polygon>
        <polygon id="Shape" fill="#A5CE00" points="52 133 48.6936416 133 48.6936416 112.099719 26 89.3473783 28.3402147 87 52 110.73221">
        </polygon>
        <polygon id="Shape" fill="#A5CE00" points="177.659561 121 141.286137 84.5553785 126.180644 84.5553785 111 69.3450199 113.351175 67 127.554847 81.2314741 142.660339 81.2314741 180 118.65498">
        </polygon>
        <polygon id="Shape" fill="#A5CE00" points="15.2957625 87 12 87 12 56.211019 21.194004 47 49 47 49 50.3056967 22.5485731 50.3056967 15.2957625 57.5803691">
        </polygon>
        <polygon id="Shape" fill="#A5CE00" points="61 136 57.7214854 136 57.7214854 125.237721 49 116.355599 51.3129973 114 61 123.854617">
        </polygon>
        <polygon id="Shape" fill="#A5CE00" points="58.35141 43 55 43 55 25.6740211 72.6355748 8 75 10.3710379 58.35141 27.0661902">
        </polygon>
        <circle id="Oval" fill="#A5CE00" cx="137" cy="105" r="7">
        </circle>
        <path d="M136.499997,116 C130.702433,115.999997 126.002016,111.301212 126.000001,105.50365 C125.997986,99.7060876 130.695135,95.004036 136.492698,95.0000026 C142.29026,94.9959692 146.993948,99.6914804 147,105.48904 C147.000003,111.289805 142.300761,115.993951 136.499997,116 L136.499997,116 Z M136.499997,101.751566 C134.986366,101.742688 133.616834,102.647644 133.031431,104.043516 C132.446028,105.439388 132.760357,107.050524 133.827521,108.123984 C134.894685,109.197444 136.503945,109.521245 137.903237,108.944063 C139.302529,108.366881 140.215525,107.002696 140.215551,105.48904 C140.203648,103.44016 138.548833,101.780464 136.499997,101.762526 L136.499997,101.751566 Z" id="Shape" fill="#303030">
        </path>
        <circle id="Oval" fill="#A5CE00" cx="97" cy="83" r="7">
        </circle>
        <path d="M96.5001036,94 C92.2503253,93.9999792 88.4196372,91.438201 86.7964062,87.5106383 C85.1731751,83.5830756 86.0775402,79.0643355 89.0872962,76.0640036 C92.0970522,73.0636716 96.6186049,72.1734834 100.541056,73.8090255 C104.463506,75.4445676 107.013256,79.2832731 106.999948,83.5330322 C106.975828,89.3165894 102.283706,93.9940194 96.5001036,94 L96.5001036,94 Z M96.5001036,79.7517715 C94.4389137,79.7398245 92.7571715,81.3988895 92.7411357,83.4600524 C92.7250998,85.5212153 94.3808249,87.2062459 96.4419512,87.2263705 C98.5030775,87.2464951 100.191389,85.5941152 100.215602,83.5330322 C100.227763,81.4670924 98.5659992,79.7808185 96.5001036,79.7627317 L96.5001036,79.7517715 Z" id="Shape" fill="#303030">
        </path>
        <circle id="Oval" fill="#A5CE00" cx="34" cy="66" r="7">
        </circle>
        <path d="M34.5,77 C28.7010101,77 24,72.2989899 24,66.5 C24,60.7010101 28.7010101,56 34.5,56 C40.2989899,56 45,60.7010101 45,66.5 C44.9939588,72.2964857 40.2964857,76.9939588 34.5,77 Z M34.5,62.7515658 C32.9883329,62.7515658 31.6255143,63.662172 31.0470244,65.0587703 C30.4685344,66.4553686 30.7882968,68.0629228 31.8572069,69.1318328 C32.9261169,70.2007429 34.5336711,70.5205053 35.9302693,69.9420153 C37.3268676,69.3635254 38.2374739,68.0007068 38.2374739,66.4890397 C38.2314544,64.4273883 36.5616514,62.7575852 34.5,62.7515658 L34.5,62.7515658 Z" id="Shape" fill="#303030">
        </path>
        <circle id="Oval" fill="#A5CE00" cx="121" cy="48" r="7">
        </circle>
        <path d="M121.5,58 C115.70101,58 111,53.2989899 111,47.5 C111,41.7010101 115.70101,37 121.5,37 C127.29899,37 132,41.7010101 132,47.5 C131.993959,53.2964857 127.296486,57.9939588 121.5,58 L121.5,58 Z M121.5,43.7515658 C119.988333,43.7515658 118.625514,44.662172 118.047024,46.0587703 C117.468534,47.4553686 117.788297,49.0629228 118.857207,50.1318328 C119.926117,51.2007429 121.533671,51.5205053 122.930269,50.9420153 C124.326868,50.3635254 125.237474,49.0007068 125.237474,47.4890397 C125.231454,45.4273883 123.561651,43.7575852 121.5,43.7515658 L121.5,43.7515658 Z" id="Shape" fill="#303030">
        </path>
        <circle id="Oval" fill="#A5CE00" cx="142" cy="22" r="7">
        </circle>
        <path d="M142.5,33 C136.70101,33 132,28.2989899 132,22.5 C132,16.7010101 136.70101,12 142.5,12 C148.29899,12 153,16.7010101 153,22.5 C152.993959,28.2964857 148.296486,32.9939588 142.5,33 L142.5,33 Z M142.5,18.7515658 C140.43585,18.7515658 138.762526,20.4248898 138.762526,22.4890397 C138.762526,24.5531895 140.43585,26.2265136 142.5,26.2265136 C144.56415,26.2265136 146.237474,24.5531895 146.237474,22.4890397 C146.231454,20.4273883 144.561651,18.7575852 142.5,18.7515658 L142.5,18.7515658 Z" id="Shape" fill="#303030">
        </path>
        <circle id="Oval" fill="#A5CE00" cx="115" cy="10" r="7">
        </circle>
        <path d="M114.5,21 C108.70101,21 104,16.2989899 104,10.5 C104,4.70101013 108.70101,1.06525716e-15 114.5,0 C120.29899,-1.06525716e-15 125,4.70101013 125,10.5 C124.993959,16.2964857 120.296486,20.9939588 114.5,21 L114.5,21 Z M114.5,6.75156576 C112.43585,6.75156576 110.762526,8.42488983 110.762526,10.4890397 C110.762526,12.5531895 112.43585,14.2265136 114.5,14.2265136 C116.56415,14.2265136 118.237474,12.5531895 118.237474,10.4890397 C118.225451,8.43166986 116.557396,6.76850677 114.5,6.7625261 L114.5,6.75156576 Z" id="Shape" fill="#303030">
        </path>
        <circle id="Oval" fill="#A5CE00" cx="48" cy="10" r="7">
        </circle>
        <path d="M47.5,21 C41.7010101,21 37,16.2989899 37,10.5 C37,4.70101013 41.7010101,1.06525716e-15 47.5,0 C53.2989899,-1.06525716e-15 58,4.70101013 58,10.5 C57.9939588,16.2964857 53.2964857,20.9939588 47.5,21 L47.5,21 Z M47.5,6.75156576 C45.4358502,6.75156576 43.7625261,8.42488983 43.7625261,10.4890397 C43.7625261,12.5531895 45.4358502,14.2265136 47.5,14.2265136 C49.5641498,14.2265136 51.2374739,12.5531895 51.2374739,10.4890397 C51.225451,8.43166986 49.5573962,6.76850677 47.5,6.7625261 L47.5,6.75156576 Z" id="Shape" fill="#303030">
        </path>
        <circle id="Oval" fill="#A5CE00" cx="204" cy="65" r="7">
        </circle>
        <path d="M204.5,76 C198.70101,76 194,71.2989899 194,65.5 C194,59.7010101 198.70101,55 204.5,55 C210.29899,55 215,59.7010101 215,65.5 C214.993959,71.2964857 210.296486,75.9939588 204.5,76 L204.5,76 Z M204.5,61.7515658 C202.43585,61.7515658 200.762526,63.4248898 200.762526,65.4890397 C200.762526,67.5531895 202.43585,69.2265136 204.5,69.2265136 C206.56415,69.2265136 208.237474,67.5531895 208.237474,65.4890397 C208.231454,63.4273883 206.561651,61.7575852 204.5,61.7515658 L204.5,61.7515658 Z" id="Shape" fill="#303030">
        </path>
        <circle id="Oval" fill="#A5CE00" cx="166" cy="82" r="7">
        </circle>
        <path d="M166.500153,93 C162.253362,93 158.424737,90.4417945 156.79956,86.5182708 C155.174383,82.594747 156.072706,78.0785758 159.075641,75.0756408 C162.078576,72.0727057 166.594747,71.1743834 170.518271,72.7995601 C174.441795,74.4247369 177,78.253362 177,82.5001535 C176.993959,88.2965544 172.296554,92.9939589 166.500153,93 Z M166.500153,78.751774 C164.436034,78.751774 162.762734,80.4250736 162.762734,82.4891933 C162.762734,84.553313 164.436034,86.2266126 166.500153,86.2266126 C168.564273,86.2266126 170.237573,84.553313 170.237573,82.4891933 C170.231553,80.4275721 168.561775,78.7577934 166.500153,78.751774 L166.500153,78.751774 Z" id="Shape" fill="#303030">
        </path>
        <circle id="Oval" fill="#A5CE00" cx="181" cy="174" r="7">
        </circle>
        <path d="M180.5,184 C174.70101,184 170,179.29899 170,173.5 C170,167.70101 174.70101,163 180.5,163 C186.29899,163 191,167.70101 191,173.5 C190.993959,179.296486 186.296486,183.993959 180.5,184 L180.5,184 Z M180.5,169.751566 C178.988333,169.751566 177.625514,170.662172 177.047024,172.05877 C176.468534,173.455369 176.788297,175.062923 177.857207,176.131833 C178.926117,177.200743 180.533671,177.520505 181.930269,176.942015 C183.326868,176.363525 184.237474,175.000707 184.237474,173.48904 C184.231433,171.429171 182.559877,169.762517 180.5,169.762526 L180.5,169.751566 Z" id="Shape" fill="#303030">
        </path>
        <circle id="Oval" fill="#A5CE00" cx="150" cy="166" r="7">
        </circle>
        <path d="M150.5,177 C144.70101,177 140,172.29899 140,166.5 C140,160.70101 144.70101,156 150.5,156 C156.29899,156 161,160.70101 161,166.5 C160.993959,172.296486 156.296486,176.993959 150.5,177 Z M150.5,162.751566 C148.43585,162.751566 146.762526,164.42489 146.762526,166.48904 C146.762526,168.55319 148.43585,170.226514 150.5,170.226514 C152.56415,170.226514 154.237474,168.55319 154.237474,166.48904 C154.231433,164.429171 152.559877,162.762517 150.5,162.762526 L150.5,162.751566 Z" id="Shape" fill="#303030">
        </path>
        <circle id="Oval" fill="#A5CE00" cx="87" cy="137" r="7">
        </circle>
        <path d="M87.5,148 C81.7010101,148 77,143.29899 77,137.5 C77,131.70101 81.7010101,127 87.5,127 C93.2989899,127 98,131.70101 98,137.5 C97.9939588,143.296486 93.2964857,147.993959 87.5,148 Z M87.5,133.751566 C85.4358502,133.751566 83.7625261,135.42489 83.7625261,137.48904 C83.7625261,139.55319 85.4358502,141.226514 87.5,141.226514 C89.5641498,141.226514 91.2374739,139.55319 91.2374739,137.48904 C91.225451,135.43167 89.5573962,133.768507 87.5,133.762526 L87.5,133.751566 Z" id="Shape" fill="#303030">
        </path>
        <circle id="Oval" fill="#A5CE00" cx="24" cy="108" r="7">
        </circle>
        <path d="M24.4890397,118 C18.6914804,117.993948 13.9959692,113.29026 14.0000026,107.492698 C14.004036,101.695135 18.7060876,96.9979855 24.5036497,97.0000006 C30.3012117,97.0020158 34.9999968,101.702433 35,107.499997 C34.9939512,113.300761 30.2898052,118.000003 24.4890397,118 L24.4890397,118 Z M24.4890397,103.751562 C22.9773726,103.751562 21.614554,104.662168 21.0360641,106.058767 C20.4575741,107.455366 20.7773365,109.06292 21.8462466,110.131831 C22.9151566,111.200741 24.5227108,111.520503 25.919309,110.942013 C27.3159073,110.363523 28.2265136,109.000704 28.2265136,107.489037 C28.2144907,105.431666 26.5464359,103.768503 24.4890397,103.762522 L24.4890397,103.751562 Z" id="Shape" fill="#303030">
        </path>
        <polygon id="Shape" fill="#303030" points="133 108 63.4410975 108 47.0367174 91.6767539 0 91.6767539 0 52.1176471 39.3380282 13 44.0590247 17.6945483 6.68085972 54.8633118 6.68085972 85.033322 49.7978507 85.033322 66.2130587 101.356568 133 101.356568">
        </polygon>
        <polygon id="Shape" fill="#303030" points="153 160 146.290919 160 146.290919 140.714943 96 140.714943 96 134 153 134">
        </polygon>
        <polygon id="Shape" fill="#303030" points="80 141 51.6094421 141 25 113.782996 29.6781116 109 54.3454936 134.231402 80 134.231402">
        </polygon>
        <polygon id="Shape" fill="#303030" points="183.730909 167 177 167 177 116.791924 200.269091 93.7609943 200.269091 71 207 71 207 96.5251378 183.730909 119.54527">
        </polygon>
        <polygon id="Shape" fill="#303030" points="40.7256774 65 36 60.2995004 72.4830968 24 101.780129 24 120 42.1227978 115.274323 46.8232974 99.0162581 30.6518538 75.2578065 30.6518538">
        </polygon>
        <rect id="Rectangle-path" fill="#303030" transform="translate(180.500000, 96.000000) rotate(-45.000000) translate(-180.500000, -96.000000) " x="177" y="81" width="7" height="30">
        </rect>
        <polygon id="Shape" fill="#303030" points="199.330656 62 163.56091 25.7048269 148 25.7048269 148 19 166.291834 19 204 57.2620672">
        </polygon>
        <polygon id="Shape" fill="#303030" points="142.841569 71 41 71 41 64.306211 140.083833 64.306211 173.284812 31 178 35.7301329">
        </polygon>
        <rect id="Rectangle-path" fill="#303030" transform="translate(85.000000, 95.500000) rotate(-45.000000) translate(-85.000000, -95.500000) " x="72" y="92" width="26" height="7">
        </rect>
        <rect id="Rectangle-path" fill="#303030" x="53" y="7" width="53" height="7">
        </rect>
      </g>
    </g>
  </g>
</svg>