<svg xmlns="http://www.w3.org/2000/svg" shape-rendering="geometricPrecision" text-rendering="geometricPrecision" image-rendering="optimizeQuality" fill-rule="evenodd" clip-rule="evenodd" viewBox="0 0 32 32"><defs><style>.fil7{fill:#000}.fil4{fill:#7fba00}.fil3{fill:#b8d432}.fil1{fill:#fff}</style></defs><g id="Layer_x0020_1"><path fill="none" d="M0 0h32v32H0z"/><g id="_2418637155008"><path class="fil1" d="M18 11c0 3-4 4-9 4s-9-1-9-4c0-2 4-3 9-3s9 1 9 3z"/><path d="M0 28V11c0 3 4 4 9 4s9-1 9-4v17c0 3-4 4-9 4s-9-1-9-4z" fill="#66d7f7"/><ellipse class="fil3" cx="9" cy="11" rx="7" ry="2"/><path class="fil4" d="M4 12h11c-2 1-4 1-6 1s-4 0-5-1z"/><path d="M9 32c-5 0-9-1-9-4V11c0 3 4 4 9 4v17z" fill="#00bcf2"/><path d="M17 22h13c1 0 2-1 2-2V2c0-1-1-2-2-2H17c-1 0-2 1-2 2v18c0 1 1 2 2 2z" fill="#777"/><path class="fil7" d="M19 3c-1 0-2 1-2 2s1 2 2 2h9c1 0 2-1 2-2s-1-2-2-2h-9z"/><circle class="fil3" cx="19" cy="5" r="1"/><path class="fil7" d="M19 9c-1 0-2 1-2 2s1 2 2 2h9c1 0 2-1 2-2s-1-2-2-2h-9z"/><circle class="fil3" cx="19" cy="11" r="1"/><path class="fil1" d="M26 23c2 0 3-1 3-3s-1-3-3-3c1-5-2-9-7-9-3 0-6 2-7 5-3-1-7 1-7 5 0 3 3 5 6 5h15z"/><path d="M26 14c-1-3-4-6-7-6s-6 2-7 5h-1c-3 0-6 2-6 5s3 5 6 5h3c-2 0-4-2-4-4 0-3 2-5 4-5 1 0 1 1 1 1 1-3 3-4 6-4 2 0 4 1 5 3z" fill="#c0ecfc"/><path d="M24 19h3v13h-3zm5 0h3v13h-3zm-10 0h3v13h-3z" fill="#ccc"/><path d="M20 20h1v11h-1zm5 0h1v11h-1zm5 0h1v11h-1z" fill="#bad80a"/><path d="M24 28h3v1h-3zm-5-5h3v1h-3zm10 0h3v1h-3z" fill="#8f9ca8"/><path class="fil4" d="M30 31h1v-7h-1zm-5 0h1v-2h-1zm-5 0h1v-7h-1z"/></g></g></svg>