<svg fill="none" xmlns="http://www.w3.org/2000/svg" viewBox="0 0 50 50"><g clip-path="url(#clip0)"><path d="M41.167 41.15H43V0H6.833c-1 .167-3.5 2.999-3.5 3.332v39.65c0 1.167 1 2.166 2.167 2.166h32.833v-.666l2.834-3.332z" fill="#0072C6"/><path d="M8.5 1.833c-1 0-1.333.166-2.333 1-2 1.665.5 1.665 1.333 1.665h30.833v39.984l2.834-3.498V1.832H8.5z" fill="#E5E5E5"/><path opacity=".5" d="M38.333 44.482l2.834-3.332V1.833l-2.834 2.665v39.984z" fill="#A0A1A2"/><path d="M8.5 24.324c0 1-.667 1.666-1.667 1.666H1.667c-1 0-1.667-.667-1.667-1.666 0-1 .667-1.666 1.667-1.666H7c.833 0 1.5.833 1.5 1.666zm0-11.829c0 1-.667 1.666-1.667 1.666H1.667c-1 0-1.667-.666-1.667-1.666 0-1 .667-1.666 1.667-1.666H7c.833.167 1.5.833 1.5 1.666zm0 23.657c0 1-.667 1.666-1.667 1.666H1.667c-1 0-1.667-.666-1.667-1.666 0-1 .667-1.666 1.667-1.666H7c.833 0 1.5.667 1.5 1.666z" fill="#A0A1A2"/><path d="M30.667 16.493c0 1-.667 1.666-1.667 1.666H15c-1 0-1.667-.666-1.667-1.666v-4.165c0-1 .667-1.666 1.667-1.666h14c1 0 1.667.667 1.667 1.666v4.165z" fill="#fff"/><path d="M50 38.151c-.167-6.164-5-10.995-11-10.995S28 32.154 28 38.15c0 5.998 4.833 10.996 10.833 10.996h.334C45 49.313 49.833 44.316 50 38.15c0 .167 0 .167 0 0z" fill="#B8D432"/><path d="M40.667 36.485v-5.83h-3.5v5.83H31.5v3.499h5.667v5.83h3.5v-5.83H46.5v-3.499h-5.833z" fill="#fff"/></g><defs><clipPath id="clip0"><path fill="#fff" d="M0 0h50v50H0z"/></clipPath></defs></svg>