<svg xmlns="http://www.w3.org/2000/svg" width="80.739" height="135.187" viewBox="0 0 80.739 135.187">
  <g id="Layer_2" data-name="Layer 2">
    <g id="Layer_1-2" data-name="Layer 1">
      <path d="M40.37,33.52a37.368,37.368,0,0,1,18.267,69.967l-1.531.86v17.369H23.633V104.347l-1.531-.86A37.368,37.368,0,0,1,40.37,33.52m0-3A40.368,40.368,0,0,0,20.633,106.1v18.613H60.106V106.1A40.368,40.368,0,0,0,40.37,30.52Z" fill="#00a2f2"/>
      <g>
        <g opacity="0.2">
          <path d="M40.369,24a1,1,0,0,1-1-1V18a1,1,0,0,1,2,0v5A1,1,0,0,1,40.369,24Zm0-10a1,1,0,0,1-1-1V8a1,1,0,0,1,2,0v5A1,1,0,0,1,40.369,14Zm0-10a1,1,0,0,1-1-1V1a1,1,0,0,1,2,0V3A1,1,0,0,1,40.369,4Z" fill="#00a2f2"/>
        </g>
        <g opacity="0.2">
          <path d="M24.467,27.994a1,1,0,0,1-.909-.582l-2.089-4.542a1,1,0,0,1,1.817-.836l2.089,4.542a1,1,0,0,1-.908,1.418Zm-4.179-9.085a1,1,0,0,1-.909-.582l-2.09-4.542a1,1,0,1,1,1.817-.836l2.09,4.542a1,1,0,0,1-.908,1.418ZM16.109,9.824a1,1,0,0,1-.909-.582l-.836-1.817a1,1,0,1,1,1.817-.836l.836,1.817a1,1,0,0,1-.908,1.418Z" fill="#00a2f2"/>
        </g>
        <g opacity="0.2">
          <path d="M56.272,27.994a1,1,0,0,1-.908-1.418l2.089-4.542a1,1,0,0,1,1.817.836l-2.089,4.542A1,1,0,0,1,56.272,27.994Zm4.179-9.085a1,1,0,0,1-.908-1.418l2.09-4.542a1,1,0,1,1,1.817.836l-2.09,4.542A1,1,0,0,1,60.451,18.909ZM64.63,9.824a1,1,0,0,1-.908-1.418l.836-1.817a1,1,0,1,1,1.817.836l-.836,1.817A1,1,0,0,1,64.63,9.824Z" fill="#00a2f2"/>
        </g>
      </g>
      <path d="M60.932,72.805V68.064l-.26-.24-4.851-1.635-1.25-3.267,2.4-4.981.265-.559-1.5-1.515L53.91,54.033l-.635.319-4.742,2.431-3.267-.916-2.069-5.3h-4.7l-.24.24L36.62,55.647l-3.306,1.245-5.5-2.645-3.349,3.321.319.625,2.431,4.736-1.354,3.265-5.739,2.069V73l.678.2,5.06,1.673,1.354,3.267-2.591,5.5,3.349,3.387.638-.319,4.742-2.431,3.267,1.354,2.074,5.741h4.742l.2-.678,1.673-5.06,3.229-1.354,5.54,2.591,3.349-3.349-.319-.638-2.431-4.742.936-3.308ZM40.966,77.19a6.655,6.655,0,1,1,6.616-6.655A6.666,6.666,0,0,1,40.966,77.19Z" fill="#22a6ff"/>
      <g>
        <line x1="21.749" y1="133.687" x2="59.749" y2="133.687" fill="#22a6ff"/>
        <rect x="21.749" y="132.187" width="38" height="3" fill="#00a2f2"/>
      </g>
    </g>
  </g>
</svg>
