<svg xmlns="http://www.w3.org/2000/svg" viewBox="0 0 80.739 135.187"><g data-name="Layer 2"><g data-name="Layer 1"><path d="M40.37 33.52a37.368 37.368 0 0118.267 69.967l-1.531.86v17.369H23.633v-17.369l-1.531-.86A37.368 37.368 0 0140.37 33.52m0-3a40.368 40.368 0 00-19.737 75.58v18.613h39.473V106.1A40.368 40.368 0 0040.37 30.52z" fill="#00a2f2"/><path d="M40.369 24a1 1 0 01-1-1v-5a1 1 0 012 0v5a1 1 0 01-1 1zm0-10a1 1 0 01-1-1V8a1 1 0 012 0v5a1 1 0 01-1 1zm0-10a1 1 0 01-1-1V1a1 1 0 012 0v2a1 1 0 01-1 1zM24.467 27.994a1 1 0 01-.909-.582l-2.089-4.542a1 1 0 011.817-.836l2.089 4.542a1 1 0 01-.908 1.418zm-4.179-9.085a1 1 0 01-.909-.582l-2.09-4.542a1 1 0 111.817-.836l2.09 4.542a1 1 0 01-.908 1.418zm-4.179-9.085a1 1 0 01-.909-.582l-.836-1.817a1 1 0 111.817-.836l.836 1.817a1 1 0 01-.908 1.418zm40.163 18.17a1 1 0 01-.908-1.418l2.089-4.542a1 1 0 011.817.836l-2.089 4.542a1 1 0 01-.909.582zm4.179-9.085a1 1 0 01-.908-1.418l2.09-4.542a1 1 0 111.817.836l-2.09 4.542a1 1 0 01-.909.582zm4.179-9.085a1 1 0 01-.908-1.418l.836-1.817a1 1 0 111.817.836l-.836 1.817a1 1 0 01-.909.582z" fill="#00a2f2" opacity=".2"/><path d="M60.932 72.805v-4.741l-.26-.24-4.851-1.635-1.25-3.267 2.4-4.981.265-.559-1.5-1.515-1.826-1.834-.635.319-4.742 2.431-3.267-.916-2.069-5.3h-4.7l-.24.24-1.637 4.84-3.306 1.245-5.5-2.645-3.349 3.321.319.625 2.431 4.736-1.354 3.265-5.739 2.069V73l.678.2 5.06 1.673 1.354 3.267-2.591 5.5 3.349 3.387.638-.319 4.742-2.431 3.267 1.354 2.074 5.741h4.742l.2-.678 1.673-5.06 3.229-1.354 5.54 2.591 3.349-3.349-.319-.638-2.431-4.742.936-3.308zM40.966 77.19a6.655 6.655 0 116.616-6.655 6.666 6.666 0 01-6.616 6.655zm-19.217 56.497h38" fill="#22a6ff"/><path fill="#00a2f2" d="M21.749 132.187h38v3h-38z"/></g></g></svg>