<svg xmlns="http://www.w3.org/2000/svg" viewBox="0 0 50 50" class="fxs-portal-svg" id="FxSymbol0-0b6" version="1.1"><style>.msportalfx-svg-c10{fill:#ff8c00}</style><g id="g16"><path d="M48.065 11.912V7.935H21.897L15.963 2H0v43.708c0 1.31 1.06 2.371 2.37 2.372h45.258a2.372 2.372 0 002.371-2.372V11.912h-1.934z" id="path6" fill="#fee087"/><path d="M26.176 27.945a.32.32 0 01-.155-.044l-10.175-5.873a.309.309 0 010-.533l10.112-5.835a.314.314 0 01.306 0l10.178 5.876a.305.305 0 01.152.265.307.307 0 01-.152.267l-10.111 5.833a.303.303 0 01-.155.044" id="path8" fill="#dd5900"/><path d="M24.714 42.221a.292.292 0 01-.155-.041l-10.144-5.855a.302.302 0 01-.156-.267V24.309a.31.31 0 01.156-.269.322.322 0 01.31 0l10.143 5.855a.32.32 0 01.15.268v11.75c0 .113-.06.211-.15.267a.318.318 0 01-.154.041" class="msportalfx-svg-c10" id="path10"/><path opacity=".5" d="M27.585 42.221a.315.315 0 01-.157-.041.309.309 0 01-.152-.267V30.239c0-.11.059-.211.152-.268l10.141-5.853a.31.31 0 01.462.266v11.674a.306.306 0 01-.156.267l-10.14 5.855a.275.275 0 01-.15.041" class="msportalfx-svg-c10" id="path12"/><path opacity=".2" d="M4.742 11.912v33.796a2.372 2.372 0 11-4.742 0V2h15.963l5.934 5.935h26.168v3.977H4.742z" id="path14" fill="#1e1e1e"/></g></svg>