<?xml version="1.0" encoding="UTF-8" standalone="no"?>
<svg
   xmlns:dc="http://purl.org/dc/elements/1.1/"
   xmlns:cc="http://creativecommons.org/ns#"
   xmlns:rdf="http://www.w3.org/1999/02/22-rdf-syntax-ns#"
   xmlns:svg="http://www.w3.org/2000/svg"
   xmlns="http://www.w3.org/2000/svg"
   xmlns:sodipodi="http://sodipodi.sourceforge.net/DTD/sodipodi-0.dtd"
   xmlns:inkscape="http://www.inkscape.org/namespaces/inkscape"
   viewBox="0 0 50 50"
   class="fxs-portal-svg"
   role="presentation"
   focusable="false"
   id="FxSymbol0-0b6"
   width="100%"
   height="100%"
   version="1.1"
   sodipodi:docname="resource-explorer.svg"
   inkscape:version="0.92.1 r15371">
  <metadata
     id="metadata23">
    <rdf:RDF>
      <cc:Work
         rdf:about="">
        <dc:format>image/svg+xml</dc:format>
        <dc:type
           rdf:resource="http://purl.org/dc/dcmitype/StillImage" />
        <dc:title></dc:title>
      </cc:Work>
    </rdf:RDF>
  </metadata>
  <defs
     id="defs21" />
  <sodipodi:namedview
     pagecolor="#ffffff"
     bordercolor="#666666"
     borderopacity="1"
     objecttolerance="10"
     gridtolerance="10"
     guidetolerance="10"
     inkscape:pageopacity="0"
     inkscape:pageshadow="2"
     inkscape:window-width="742"
     inkscape:window-height="480"
     id="namedview19"
     showgrid="false"
     inkscape:zoom="4.72"
     inkscape:cx="25"
     inkscape:cy="25"
     inkscape:window-x="1180"
     inkscape:window-y="242"
     inkscape:window-maximized="0"
     inkscape:current-layer="FxSymbol0-0b6" />
 <style type="text/css"> <![CDATA[
.msportalfx-svg-c01{fill:#fff}
.msportalfx-svg-c02{fill:#e5e5e5}
.msportalfx-svg-c03{fill:#a0a1a2}
.msportalfx-svg-c04{fill:#7a7a7a}
.msportalfx-svg-c05{fill:#3e3e3e}
.msportalfx-svg-c06{fill:#1e1e1e}
.msportalfx-svg-c07{fill:#0f0f0f}
.msportalfx-svg-c08{fill:#ba141a}
.msportalfx-svg-c09{fill:#dd5900}
.msportalfx-svg-c10{fill:#ff8c00}
.msportalfx-svg-c11{fill:#fcd116}
.msportalfx-svg-c12{fill:#fee087}
.msportalfx-svg-c13{fill:#b8d432}
.msportalfx-svg-c14{fill:#7fba00}
.msportalfx-svg-c15{fill:#59b4d9}
.msportalfx-svg-c16{fill:#3999c6}
.msportalfx-svg-c17{fill:#804998}
.msportalfx-svg-c18{fill:#ec008c}
.msportalfx-svg-c19{fill:#0072c6}
.msportalfx-svg-c20{fill:#68217a}
.msportalfx-svg-c21{fill:#00188f}
.msportalfx-svg-c22{fill:#e81123}
.msportalfx-svg-c97{fill:#ffb900}
.msportalfx-svg-c98{fill:#00a4ef}
.msportalfx-svg-c99{fill:#f25022}
.fxs-blade-header-icon .msportalfx-svg-c05,.fxs-sidebar-middle .msportalfx-svg-c05,.fxs-theme-dark .msportalfx-svg-c05,.msportalfx-inverted-theme .msportalfx-svg-c05{fill:#777}
.fxs-blade-header-icon .msportalfx-svg-c07,.fxs-sidebar-middle .msportalfx-svg-c07,.fxs-theme-dark .msportalfx-svg-c07,.msportalfx-inverted-theme .msportalfx-svg-c07{fill:#f2f2f2}
.msportalfx-svg-palette-white>*,.msportalfx-svg-palette-white>g>*{fill:#fff}
.msportalfx-svg-palette-blue>*,.msportalfx-svg-palette-blue>g>*{fill:#3999c6}
.msportalfx-svg-palette-black>*,.msportalfx-svg-palette-black>g>*{fill:#1e1e1e}
.msportalfx-svg-palette-green>*,.msportalfx-svg-palette-green>g>*{fill:#7fba00}
.msportalfx-svg-palette-gray>*,.msportalfx-svg-palette-gray>g>*{fill:#a0a1a2}
.msportalfx-svg-palette-inherit>*,.msportalfx-svg-palette-inherit>g *{fill:inherit!important}
.msportalfx-svg-badge{position:absolute;left:0;bottom:0;min-height:12px;min-width:12px}
.ext-fxc-menu-icon>.msportalfx-svg-badge{left:8px;bottom:7px;min-height:8px;min-width:8px}
.msportalfx-svg-disabled{filter:grayscale(100%)}

.msportalfx-svg-loading-square{-webkit-animation:ProgressFlagAnimation 1.45s infinite ease-in-out;animation:ProgressFlagAnimation 1.45s infinite ease-in-out}
.msportalfx-svg-loading-square:nth-child(1){-webkit-animation-delay:0s;animation-delay:0s}
.msportalfx-svg-loading-square:nth-child(2){-webkit-animation-delay:.2s;animation-delay:.2s}
.msportalfx-svg-loading-square:nth-child(3){-webkit-animation-delay:.4s;animation-delay:.4s}
]]>
</style>
 
  <g
     id="g16">
    <title
       id="title4" />
    <path
       d="M48.065 11.912V7.935H21.897L15.963 2H0v43.708c0 1.31 1.06 2.371 2.37 2.372h45.258a2.372 2.372 0 0 0 2.371-2.372V11.912h-1.934z"
       class="msportalfx-svg-c12"
       id="path6" />
    <path
       d="M26.176 27.945a.32.32 0 0 1-.155-.044l-10.175-5.873a.309.309 0 0 1 0-.533l10.112-5.835a.314.314 0 0 1 .306 0l10.178 5.876a.305.305 0 0 1 .152.265.307.307 0 0 1-.152.267l-10.111 5.833a.303.303 0 0 1-.155.044"
       class="msportalfx-svg-c09"
       id="path8" />
    <path
       d="M24.714 42.221a.292.292 0 0 1-.155-.041l-10.144-5.855a.302.302 0 0 1-.156-.267V24.309a.31.31 0 0 1 .156-.269.322.322 0 0 1 .31 0l10.143 5.855a.32.32 0 0 1 .15.268v11.75c0 .113-.06.211-.15.267a.318.318 0 0 1-.154.041"
       class="msportalfx-svg-c10"
       id="path10" />
    <path
       opacity="0.5"
       d="M27.585 42.221a.315.315 0 0 1-.157-.041.309.309 0 0 1-.152-.267V30.239c0-.11.059-.211.152-.268l10.141-5.853a.31.31 0 0 1 .462.266v11.674a.306.306 0 0 1-.156.267l-10.14 5.855a.275.275 0 0 1-.15.041"
       class="msportalfx-svg-c10"
       id="path12" />
    <path
       opacity="0.2"
       d="M4.742 11.912v33.796a2.372 2.372 0 1 1-4.742 0V2h15.963l5.934 5.935h26.168v3.977H4.742z"
       class="msportalfx-svg-c06"
       id="path14" />
  </g>
</svg>
