<svg xmlns="http://www.w3.org/2000/svg" width="50" height="50">
    <path fill="#59B4D9" d="M27.969 9c0 4.363-3.568 7.9-7.969 7.9s-7.968-3.537-7.968-7.9S15.598 1.1 20 1.1s7.969 3.537 7.969 7.9m-2.647 11L20 28.516 14.677 20H7v21h26V20z"/>
    <path opacity=".4" fill="#FFF" d="M22 26h11v15H22z"/>
    <path fill="#7FBA00" d="M23 27h22v22H23z"/>
    <path fill="#FFF" d="M43 29v18H25V29z"/>
    <path fill="#7FBA00" d="M33.006 43.737l-5.836-5.906a.59.59 0 01.005-.835l1.261-1.246a.59.59 0 01.835.005l3.662 3.705 5.612-7.231a.59.59 0 01.83-.104l1.398 1.09a.59.59 0 01.103.828l-7.515 9.673a.238.238 0 01-.355.021z"/>
</svg>
