<svg width="50" height="50" xmlns="http://www.w3.org/2000/svg">
    <path fill-rule="evenodd" clip-rule="evenodd" d="M39.1 23.2H10.9c-1.2 0-2.3 1-2.3 2.5v10.7l3.9 1.1V27.1h24.9v10.3l3.9-1.1V25.7c0-1.5-1.1-2.5-2.2-2.5z" class="msportalfx-svg-c04" fill="#7a7a7a"/>
    <path fill-rule="evenodd" clip-rule="evenodd" d="M23 16.4h3.9v10.4H23z" class="msportalfx-svg-c04" fill="#7a7a7a"/>
    <path fill-rule="evenodd" clip-rule="evenodd" d="M31.3 0H18.7c-1.3 0-2.4 1.1-2.4 2.4v11.7c0 1.3 1.1 2.4 2.4 2.4h12.5c1.3 0 2.4-1.1 2.4-2.4V2.4c.1-1.3-1-2.4-2.3-2.4zM16.8 33.4H4.3c-1.3 0-2.4 1.1-2.4 2.4v11.7c0 1.3 1.1 2.4 2.4 2.4h12.5c1.3 0 2.4-1.1 2.4-2.4V35.8c0-1.3-1.1-2.4-2.4-2.4zm28.9 0H33.2c-1.3 0-2.4 1.1-2.4 2.4v11.7c0 1.3 1.1 2.4 2.4 2.4h12.5c1.3 0 2.4-1.1 2.4-2.4V35.8c.1-1.3-1-2.4-2.4-2.4z" class="msportalfx-svg-c15" fill="#59b4d9"/>
</svg>
