<svg xmlns="http://www.w3.org/2000/svg" viewBox="0 0 64 64"><defs><style>.cls-1{fill:#4d4e4e}.cls-2{fill:#f2f2f2}</style></defs><g id="ICONS-64x"><rect class="cls-1" y="6" width="64" height="51" rx="4" ry="4"/><path class="cls-2" d="M3 9h5v5H3zM3 17h5v5H3zM3 25h5v5H3zM3 33h5v5H3zM3 41h5v5H3zM3 49h5v5H3zM56 9h5v5h-5zM56 17h5v5h-5zM56 25h5v5h-5zM56 33h5v5h-5zM56 41h5v5h-5zM56 49h5v5h-5z"/><path fill="#aad2f2" d="M11 9h42v45H11z"/><path fill="#d4e8f8" d="M53 9H27l26 26V9z"/><circle cx="32" cy="31" r="15" fill="#55a5e4"/><path class="cls-1" d="M27 39V23l14 8-14 8z"/></g></svg>