<svg>
                                <symbol id="svg-ip-to-location" viewBox="0 0 630 630">
  <rect width="630" height="630" fill="none"></rect>
  <path d="M315,30A285,285,0,0,0,30,315c0,157.4,127.6,285,285,285A285,285,0,0,0,600,315C600,157.6,472.4,30,315,30Zm98,231a30,30,0,1,1,30-30A30,30,0,0,1,413,261Z" fill="#0078d4"></path>
  <path d="M506.89,156.28A120,120,0,1,0,533,231,119.76,119.76,0,0,0,506.89,156.28ZM413,321a89.94,89.94,0,1,1,90-90A89.59,89.59,0,0,1,413,321Z" fill="#50e6ff"></path>
</symbol>
                            </svg>