<svg xmlns="http://www.w3.org/2000/svg" viewBox="-2 -1 35 35">
                                
                            
    <path fill="#FFFFFF" d="M2.7,11.6l3.5-4.5C6.3,7,6.4,6.8,6.3,6.7L6.3,6.5L5.6,5.9C5.5,5.8,5.4,5.8,5.3,5.8L5,5.8L2.6,8.9L1.4,7.6 C1.3,7.5,1.2,7.5,1,7.5l-0.2,0L0.2,8.1C0,8.3-0.1,8.6,0.1,8.8L2.7,11.6z"></path>
    <path fill="#FFFFFF" d="M5.6,13.2c-0.1-0.1-0.2-0.1-0.3-0.1L5,13.2l-2.4,3.1L1.4,15c-0.1-0.1-0.2-0.2-0.4-0.2l-0.2,0l-0.6,0.6 c-0.2,0.2-0.2,0.5,0,0.7L2.7,19l3.5-4.5c0.1-0.1,0.1-0.2,0.1-0.4l-0.1-0.3L5.6,13.2z"></path>
    <path fill="#FFFFFF" d="M5.6,20.5c-0.1-0.1-0.2-0.1-0.3-0.1L5,20.4l-2.4,3.1l-1.2-1.3c-0.1-0.1-0.2-0.2-0.4-0.2l-0.2,0l-0.6,0.6 c-0.2,0.2-0.2,0.5,0,0.7l2.6,2.8l3.5-4.5c0.1-0.1,0.1-0.2,0.1-0.4L6.3,21L5.6,20.5z"></path>
    <path fill-rule="evenodd" clip-rule="evenodd" fill="#FFFFFF" d="M28,8.8H9.7c-0.6,0-1.2,0.5-1.2,1.1c0,0.6,0.5,1.1,1.2,1.1H28 c0.6,0,1.2-0.5,1.2-1.1C29.2,9.3,28.7,8.8,28,8.8z"></path>
    <path fill-rule="evenodd" clip-rule="evenodd" fill="#FFFFFF" d="M30.8,15.3H9.7c-0.6,0-1.2,0.5-1.2,1.1c0,0.6,0.5,1.1,1.2,1.1h21.1 c0.6,0,1.2-0.5,1.2-1.1C32,15.8,31.5,15.3,30.8,15.3z"></path>
    <path fill-rule="evenodd" clip-rule="evenodd" fill="#FFFFFF" d="M25.6,21.9H9.7c-0.6,0-1.2,0.5-1.2,1.1c0,0.6,0.5,1.1,1.2,1.1h15.9 c0.6,0,1.2-0.5,1.2-1.1C26.8,22.3,26.2,21.9,25.6,21.9z"></path>
</svg>