<svg>
                                <symbol id="svg-cloud-services-outline" viewBox="0 0 79 67">
    <g stroke="none" stroke-width="1" fill="none" fill-rule="evenodd" transform="translate(2, 2)">
        <path d="M65.0085,21.7636094 C65.301,20.4110855 65.445,19.1224018 65.445,17.8396569 C65.445,8.00230947 57.348,0 47.3925,0 C40.446,0 34.1925,3.89277466 31.1775,10.0006598 C28.749,7.61035962 25.464,6.25486638 22.0065,6.25486638 C14.862,6.25486638 9.0495,12.0079182 9.0495,19.0778621 C9.0495,20.0369515 9.1575,21.0049489 9.3765,21.9996701 C3.492,24.3721544 0,29.2937974 0,35.2799406 C0,43.352029 6.6645,49.6751897 15.1695,49.6751897 L16.1385,49.6751897 C16.3035,57.0509733 22.4085,63 29.8845,63 C34.917,63 39.474,60.3142527 41.8785,56.0503134 C43.6875,57.6017816 46.0005,58.4673375 48.4185,58.4673375 C53.5485,58.4673375 57.792,54.6205873 58.3935,49.6751897 L59.835,49.6751897 C68.34,49.6751897 75,43.352029 75,35.2799406 C75,29.0458595 71.184,23.9163642 65.0085,21.7636094" stroke="#00ABEC" stroke-width="4" stroke-linecap="round"></path>
        <path d="M58.9014925,29.0671642 L60,26.4656716 L59.6820896,26.1910448 L57.2835821,24.1074627 L57.2955224,22.0014925 L60,19.5835821 L58.9358209,16.9671642 L58.519403,16.9955224 L55.3477612,17.2223881 L53.8671642,15.7208955 L54.0686567,12.0970149 L51.4686567,11 L51.1940299,11.3164179 L49.1089552,13.7179104 L47.0014925,13.7029851 L44.5820896,11.0014925 L41.9671642,12.0626866 L41.9970149,12.4820896 L42.2208955,15.6537313 L40.7223881,17.1313433 L37.0985075,16.9298507 L36,19.5313433 L36.3179104,19.8059701 L38.7179104,21.8910448 L38.7044776,23.9985075 L36.0029851,26.4179104 L37.0641791,29.0328358 L37.4835821,29.0014925 L40.6522388,28.7791045 L42.1328358,30.2791045 L41.9313433,33.9 L44.5328358,34.9985075 L44.8074627,34.680597 L46.8910448,32.280597 L48.9985075,32.2955224 L51.4179104,35 L54.0328358,33.9373134 L54.0029851,33.5164179 L53.7791045,30.3462687 L55.280597,28.8656716 L58.9014925,29.0671642 Z M45.7537313,28.3223881 C42.8119403,27.0820896 41.4343284,23.6925373 42.6761194,20.7537313 C43.919403,17.8104478 47.3059701,16.4343284 50.2462687,17.6746269 C53.1865672,18.9164179 54.5641791,22.3059701 53.3238806,25.2462687 C52.0820896,28.1865672 48.6955224,29.5641791 45.7537313,28.3223881 Z" fill="#00ABEC"></path>
        <path d="M43,41.8731801 L43,39.0260498 L42.5999037,38.8967032 L39.5540581,37.8995307 L38.7433367,35.9382746 L40.3076229,32.6324149 L38.2981168,30.6215257 L37.9205824,30.8125376 L35.0642561,32.2594152 L33.1013778,31.4457346 L31.8710066,28.0030081 L29.0267132,28 L28.8958546,28.4045843 L27.8986222,31.4472386 L25.9372481,32.2579112 L22.6311895,30.6952232 L20.6201793,32.7061124 L20.8112027,33.0836241 L22.2581674,35.9412826 L21.4459419,37.8995307 L18.0015041,39.131332 L18,41.9754542 L18.4016004,42.1078089 L21.447446,43.1019733 L22.2581674,45.0662375 L20.6938812,48.3690892 L22.7033873,50.3844904 L23.0809217,50.1919745 L25.9402563,48.7420888 L27.8986222,49.5557695 L29.1304976,52.998496 L31.9747909,53 L32.1056495,52.5999278 L33.1028819,49.5542654 L35.0657602,48.7435928 L38.3688105,50.3077849 L40.382829,48.2983997 L40.1918055,47.920888 L38.7418326,45.0647335 L39.5570664,43.1019733 L43,41.8731801 Z M30.4962397,46.3251113 C27.2804284,46.3236073 24.6767944,43.7141138 24.6767944,40.498496 C24.6798027,37.2813741 27.287949,34.6778968 30.5052644,34.6794008 C33.7225799,34.6809048 36.3277179,37.2888942 36.3247097,40.5060161 C36.3232056,43.721634 33.7135551,46.3266153 30.4962397,46.3251113 Z" fill="#00ABEC"></path>
        <path d="M51.6848662,24.5550862 C50.8272104,26.5901146 48.4801931,27.5431889 46.4450507,26.6839901 C44.4099083,25.8247912 43.4567806,23.4794964 44.3160276,21.444468 C45.1752746,19.4126217 47.5207007,18.4563652 49.5558431,19.3155641 C51.5893943,20.174763 52.542522,22.5200577 51.6848662,24.5550862" fill-opacity="0.7" fill="#00ABEC"></path>
        <path d="M34.4999989,40.5015911 C34.4984072,42.7116144 32.7045358,44.50159 30.4968166,44.4999989 C28.2875056,44.4984079 26.4984093,42.7068411 26.5000011,40.4968178 C26.5015928,38.2883856 28.2938725,36.49841 30.5,36.5000011 C32.7109027,36.5015921 34.5015907,38.2931589 34.4999989,40.5015911" fill-opacity="0.7" fill="#00ABEC"></path>
    </g>
</symbol>
                            </svg>