<svg>
                                <symbol id="svg-feedback-dark" viewBox="0 0 48 36">
  <rect width="48" height="35.6268" fill="black" fill-opacity="0"></rect>
  <rect width="48" height="31.2" rx="1" fill="#303030"></rect>
  <path fill-rule="evenodd" clip-rule="evenodd" d="M14.9143 15.8571C14.9143 17.9869 13.1876 19.7143 11.0572 19.7143C8.92737 19.7143 7.20001 17.9869 7.20001 15.8571C7.20001 13.7267 8.92737 12 11.0572 12C13.1876 12 14.9143 13.7267 14.9143 15.8571Z" fill="#0078D4"></path>
  <path fill-rule="evenodd" clip-rule="evenodd" d="M27.7709 15.8571C27.7709 17.9869 26.0442 19.7143 23.9138 19.7143C21.784 19.7143 20.0566 17.9869 20.0566 15.8571C20.0566 13.7267 21.784 12 23.9138 12C26.0442 12 27.7709 13.7267 27.7709 15.8571Z" fill="#0078D4"></path>
  <path fill-rule="evenodd" clip-rule="evenodd" d="M40.6276 15.8571C40.6276 17.9869 38.9008 19.7143 36.7704 19.7143C34.6406 19.7143 32.9133 17.9869 32.9133 15.8571C32.9133 13.7267 34.6406 12 36.7704 12C38.9008 12 40.6276 13.7267 40.6276 15.8571Z" fill="#0078D4"></path>
  <path fill-rule="evenodd" clip-rule="evenodd" d="M13.6541 31.2L9.2267 35.6267L4.79999 31.2H13.6541Z" fill="#303030"></path>
</symbol>
                            </svg>