<svg>
                                <symbol id="svg-location-services-globe-blue" viewBox="0 0 34 34">
    <path d="M2054.88 2554.64L2054.89 2554.63C2265.67 2431.38 2432.27 2264.78 2554.64 2054.88C2677.91 1844.07 2739.54 1615.15 2739.54 1368.19C2739.54 1121.23 2677.9 891.859 2554.64 680.161C2431.39 468.49 2264.79 301.44 2054.88 179.072C1844.96 56.6886 1615.81 -4.5 1367.52 -4.5C1119.24 -4.5 889.644 56.6885 678.831 179.068C468.04 301.434 301.434 468.04 179.068 678.831C56.6885 889.644 -4.5 1119.24 -4.5 1367.52C-4.5 1615.81 56.6886 1844.96 179.072 2054.88C301.44 2264.79 468.49 2431.39 680.161 2554.64L682.425 2550.75C680.161 2554.64 680.161 2554.64 680.162 2554.64L680.163 2554.64L680.171 2554.64L680.2 2554.66L680.315 2554.73L680.779 2555L682.634 2556.08L690.052 2560.4L719.724 2577.67L838.414 2646.78C945.008 2708.85 1121.66 2739.54 1367.52 2739.54C1614.04 2739.54 1843.19 2677.9 2054.88 2554.64ZM2440.81 850.201H2006.9C1957.26 602.169 1878.58 400.492 1770.67 245.37C1915.25 297.755 2046.07 376.438 2163.13 481.448C2281.96 588.044 2374.5 710.957 2440.81 850.201ZM1154.66 291.311C1218.15 213.709 1289.09 175.44 1367.52 175.44C1445.96 175.44 1516.89 213.709 1580.38 291.311C1692.01 428.427 1772.86 614.63 1822.71 850.201H912.329C962.186 614.63 1043.03 428.427 1154.66 291.311ZM728.144 850.201H294.229C360.538 710.957 453.087 588.044 571.915 481.448C688.96 376.452 819.753 297.776 964.316 245.392C856.433 399.688 777.766 601.361 728.144 850.201ZM2035.03 1030.14H2511.36C2543.51 1136.48 2559.6 1248.93 2559.6 1367.52C2559.6 1486.11 2543.51 1598.57 2511.36 1704.9H2035.03C2048.87 1595.89 2055.78 1483.42 2055.78 1367.52C2055.78 1251.62 2048.87 1139.16 2035.03 1030.14ZM1853.68 1704.9H881.36C866.586 1589.82 859.201 1477.36 859.201 1367.52C859.201 1257.68 866.586 1145.22 881.36 1030.14H1853.68C1868.46 1145.22 1875.84 1257.68 1875.84 1367.52C1875.84 1477.36 1868.46 1589.82 1853.68 1704.9ZM700.016 1704.9H223.688C191.53 1598.57 175.44 1486.11 175.44 1367.52C175.44 1248.93 191.53 1136.48 223.688 1030.14H700.016C686.178 1139.16 679.261 1251.62 679.261 1367.52C679.261 1483.42 686.178 1595.89 700.016 1704.9ZM2006.89 1884.84H2440.81C2374.5 2024.09 2281.96 2147 2163.13 2253.59C2046.05 2358.62 1915.22 2437.31 1770.61 2489.69C1878.54 2333.75 1957.25 2132.06 2006.89 1884.84ZM294.229 1884.84H728.146C777.779 2132.87 856.468 2334.55 964.375 2489.67C819.789 2437.29 688.976 2358.6 571.915 2253.59C453.087 2147 360.538 2024.09 294.229 1884.84ZM1580.38 2443.73C1516.89 2521.33 1445.96 2559.6 1367.52 2559.6C1289.09 2559.6 1218.15 2521.33 1154.66 2443.73C1043.03 2306.62 962.186 2120.41 912.329 1884.84H1822.71C1772.86 2120.41 1692.01 2306.62 1580.38 2443.73Z" transform="translate(1 33) scale(0.0117 -0.0117)" fill="#0078D7" stroke="#0078D7" stroke-width="9"></path>
</symbol>
                            </svg>