<svg xmlns="http://www.w3.org/2000/svg">
                                
                            
    <rect x="0" y="28" fill="#07B1EA" width="22" height="22"></rect>
    <path fill="#FFFFFF" d="M18.174,35.365c-0.287,0.096-0.478,0.191-0.765,0.287c-0.287,0.096-0.574,0.096-0.765,0.191
		c0.287-0.191,0.574-0.383,0.765-0.67c0.191-0.287,0.383-0.574,0.478-0.861c-0.287,0.096-0.574,0.287-0.861,0.383
		c-0.287,0.096-0.574,0.191-0.957,0.287c-0.191-0.287-0.478-0.478-0.861-0.67c-0.287-0.191-0.67-0.191-1.148-0.191
		c-0.765,0-1.435,0.287-1.913,0.765c-0.478,0.478-0.765,1.243-0.765,2.009c0,0.191,0,0.383,0.096,0.574
		c-1.243-0.096-2.296-0.383-3.252-0.861c-0.957-0.574-1.817-1.243-2.487-2.104c-0.287,0.478-0.383,0.957-0.383,1.435
		c0,1.052,0.383,1.817,1.243,2.296c-0.478,0-0.861-0.096-1.243-0.287l0,0c0,0.67,0.191,1.243,0.574,1.722
		c0.383,0.478,0.957,0.861,1.53,0.957c-0.096,0-0.191,0-0.287,0.096c-0.096,0-0.287,0-0.383,0s-0.287,0-0.478-0.096
		c0.191,0.574,0.478,0.957,0.957,1.339c0.478,0.383,0.957,0.574,1.626,0.574c-0.957,0.765-2.104,1.148-3.443,1.148h-0.67
		c0.574,0.383,1.243,0.67,2.009,0.861c0.765,0.191,1.435,0.287,2.2,0.287c1.243,0,2.391-0.191,3.348-0.67
		c0.957-0.478,1.817-1.052,2.487-1.817c0.67-0.765,1.148-1.626,1.53-2.487c0.287-0.957,0.478-1.817,0.478-2.774V36.8
		c0.287-0.191,0.574-0.383,0.765-0.67C17.791,35.843,17.983,35.557,18.174,35.365z"></path>
    <rect x="28.003" y="28" fill="#4585F1" width="22" height="22"></rect>
    <path fill="#FFFFFF" d="M45.883,37.659c-2.245-0.001-4.491-0.001-6.736,0c0,0.932-0.001,1.862,0.001,2.794
		c1.3,0,2.601-0.001,3.901,0c-0.151,0.892-0.681,1.708-1.433,2.21c-0.473,0.318-1.016,0.524-1.576,0.623
		c-0.563,0.097-1.146,0.108-1.708-0.006c-0.572-0.114-1.117-0.352-1.594-0.688c-0.761-0.535-1.342-1.317-1.64-2.198
		c-0.305-0.896-0.307-1.893,0.001-2.787c0.214-0.63,0.571-1.214,1.039-1.687c0.578-0.591,1.329-1.014,2.138-1.187
		c0.693-0.148,1.423-0.12,2.102,0.085c0.577,0.175,1.108,0.491,1.543,0.907c0.44-0.437,0.878-0.878,1.317-1.316
		c0.231-0.236,0.473-0.462,0.695-0.704c-0.667-0.617-1.449-1.113-2.303-1.427c-1.538-0.566-3.273-0.578-4.822-0.042
		c-1.745,0.598-3.231,1.903-4.055,3.553c-0.287,0.568-0.496,1.176-0.622,1.799c-0.317,1.554-0.096,3.212,0.621,4.629
		c0.466,0.924,1.134,1.746,1.945,2.39c0.764,0.61,1.656,1.06,2.601,1.311c1.193,0.319,2.462,0.313,3.662,0.039
		c1.085-0.25,2.111-0.768,2.931-1.525c0.867-0.796,1.484-1.845,1.811-2.972C46.057,40.23,46.106,38.918,45.883,37.659z"></path>
    <path fill="#59B4D9" d="M11,22c-0.542,0-1.052-0.211-1.435-0.595l-8.971-8.971C0.216,12.057,0,11.534,0,11
		c0-0.534,0.216-1.057,0.594-1.434l8.971-8.971C9.949,0.211,10.458,0,11,0c0.542,0,1.052,0.211,1.435,0.595l8.97,8.971
		C21.789,9.947,22,10.457,22,11c0,0.543-0.211,1.052-0.595,1.436l-8.969,8.97C12.052,21.789,11.542,22,11,22"></path>
    <path fill="#FFFFFF" d="M16.99,9.281c-0.95,0-1.72,0.77-1.72,1.72c0,0.348,0.105,0.672,0.284,0.943l-3.407,3.407
		c-0.091-0.063-0.188-0.116-0.289-0.164V6.494c0.513-0.297,0.863-0.847,0.863-1.483c0-0.95-0.77-1.72-1.72-1.72
		c-0.95,0-1.72,0.77-1.72,1.72c0,0.636,0.349,1.185,0.862,1.483v8.693c-0.096,0.046-0.191,0.095-0.278,0.155L6.453,11.93
		c0.173-0.268,0.276-0.587,0.276-0.93c0-0.95-0.77-1.72-1.72-1.72c-0.95,0-1.72,0.77-1.72,1.72c0,0.95,0.77,1.72,1.72,1.72
		c0.197,0,0.384-0.04,0.561-0.101l3.586,3.586c-0.103,0.241-0.16,0.506-0.16,0.785c0,1.106,0.897,2.002,2.002,2.002
		c1.106,0,2.002-0.897,2.002-2.002c0-0.273-0.055-0.533-0.154-0.77l3.596-3.596c0.172,0.058,0.354,0.097,0.546,0.097
		c0.95,0,1.72-0.77,1.72-1.72C18.709,10.051,17.939,9.281,16.99,9.281z"></path>

    <rect x="13.643" y="3.62" transform="matrix(0.707 -0.7072 0.7072 0.707 -1.6173 12.4345)" opacity="0.5" fill="#FFFFFF" width="1.11" height="9.097"></rect>

    <rect x="3.26" y="7.62" transform="matrix(0.7071 -0.7071 0.7071 0.7071 -3.4933 7.9161)" opacity="0.5" fill="#FFFFFF" width="9.098" height="1.111"></rect>
    <path fill="#B8D432" d="M12.173,16.99c0,0.658-0.534,1.192-1.192,1.192c-0.659,0-1.192-0.534-1.192-1.192s0.533-1.192,1.192-1.192
		C11.638,15.798,12.173,16.332,12.173,16.99"></path>
    <path fill="#B8D432" d="M11.957,5.011c0,0.528-0.428,0.957-0.957,0.957s-0.957-0.428-0.957-0.957S10.472,4.054,11,4.054
		S11.957,4.483,11.957,5.011"></path>
    <path fill="#B8D432" d="M5.968,11c0,0.528-0.429,0.957-0.957,0.957c-0.528,0-0.957-0.428-0.957-0.957
		c0-0.528,0.428-0.957,0.957-0.957C5.539,10.044,5.968,10.472,5.968,11"></path>
    <path fill="#B8D432" d="M17.947,11c0,0.528-0.429,0.957-0.957,0.957S16.033,11.529,16.033,11c0-0.528,0.429-0.957,0.957-0.957
		S17.947,10.472,17.947,11"></path>
    <path opacity="0.1" fill="#FFFFFF" d="M12.435,0.595C12.052,0.211,11.543,0,11,0
		c-0.542,0-1.051,0.211-1.434,0.595L0.595,9.565C0.216,9.943,0,10.466,0,11c0,0.535,0.216,1.057,0.595,1.435l5.079,5.079
		l9.555-14.127L12.435,0.595z"></path>
    <rect x="28.003" fill="#305CAF" width="22" height="22"></rect>
    <path fill="#FFFFFF" d="M41.68,7.237c-0.411-0.001-0.821,0.001-1.232-0.001c-0.26-0.016-0.528,0.181-0.575,0.439
		c-0.006,0.448-0.002,0.897-0.002,1.345c0.602,0.002,1.204-0.001,1.806,0.002c-0.044,0.649-0.124,1.294-0.219,1.937
		c-0.532,0.005-1.064-0.001-1.595,0.003c-0.005,1.913,0.002,3.826-0.004,5.739c-0.79,0.003-1.58-0.002-2.37,0.002
		c-0.015-1.913,0.001-3.827-0.008-5.741c-0.385-0.004-0.771,0.003-1.156-0.003c0.001-0.643,0-1.286,0.001-1.929
		c0.385-0.005,0.77,0.001,1.155-0.003c0.012-0.625-0.012-1.251,0.012-1.876c0.039-0.495,0.227-0.993,0.597-1.335
		c0.448-0.426,1.084-0.57,1.685-0.588c0.635-0.006,1.27-0.002,1.905-0.002C41.683,5.897,41.683,6.567,41.68,7.237z"></path>
</svg>