<svg>
                                <symbol id="svg-events-2" viewBox="0 0 41.911 41.479">
    <rect x="9.136" width="4" height="10.5" rx="2" ry="2" fill="#ff8c00"></rect>
    <rect x="28.75" width="4" height="10.5" rx="2" ry="2" fill="#ff8c00"></rect>
    <path d="M34.091,4.25V8.315a3.27,3.27,0,1,1-6.541,0V4.25H14.361V8.315a3.271,3.271,0,0,1-6.541,0V4.25H0V41.479H41.911V4.25Zm4.115,33H3.706v-23h34.5Z" fill="#ff8c00"></path>
    <rect x="12.203" y="17.064" width="4.76" height="4.451" transform="translate(29.166 38.579) rotate(180)" fill="#7fba00"></rect>
    <rect x="18.576" y="17.064" width="4.76" height="4.451" transform="translate(41.911 38.579) rotate(180)" fill="#7fba00"></rect>
    <rect x="24.948" y="17.064" width="4.76" height="4.451" transform="translate(54.656 38.579) rotate(180)" fill="#7fba00"></rect>
    <rect x="31.321" y="17.064" width="4.76" height="4.451" transform="translate(67.401 38.579) rotate(180)" fill="#7fba00"></rect>
    <rect x="5.831" y="29.988" width="4.76" height="4.451" transform="translate(16.422 64.427) rotate(180)" fill="#7fba00"></rect>
    <rect x="12.203" y="29.988" width="4.76" height="4.451" transform="translate(29.166 64.427) rotate(180)" fill="#7fba00"></rect>
    <rect x="18.576" y="29.988" width="4.76" height="4.451" transform="translate(41.911 64.427) rotate(180)" fill="#7fba00"></rect>
    <rect x="24.948" y="29.988" width="4.76" height="4.451" transform="translate(54.656 64.427) rotate(180)" fill="#7fba00"></rect>
    <rect x="5.831" y="23.59" width="4.76" height="4.451" transform="translate(16.422 51.631) rotate(180)" fill="#7fba00"></rect>
    <rect x="12.203" y="23.59" width="4.76" height="4.451" transform="translate(29.166 51.631) rotate(180)" fill="#7fba00"></rect>
    <rect x="18.576" y="23.59" width="4.76" height="4.451" transform="translate(41.911 51.631) rotate(180)" fill="#7fba00"></rect>
    <rect x="24.948" y="23.59" width="4.76" height="4.451" transform="translate(54.656 51.631) rotate(180)" fill="#7fba00"></rect>
    <rect x="31.321" y="23.59" width="4.76" height="4.451" transform="translate(67.401 51.631) rotate(180)" fill="#7fba00"></rect>
    <path d="M33.652,16.815a2.8,2.8,0,0,0-1.895.441,1.466,1.466,0,0,0-.437,1.564c.282,1.16,1.57,1.733,2.837,1.978a2.309,2.309,0,0,0,1.662-.1,1.783,1.783,0,0,0,.665-1.443,3.334,3.334,0,0,0-1.992-3.1,3.325,3.325,0,0,1,2.772,3.09,2.512,2.512,0,0,1-.919,2.244,3.137,3.137,0,0,1-2.391.289,6.033,6.033,0,0,1-2.1-.833,2.9,2.9,0,0,1-1.3-1.978,2.014,2.014,0,0,1,.937-2.118A2.745,2.745,0,0,1,33.652,16.815Z" fill="#e94a4f"></path>
    <path d="M14.374,23.882a2.8,2.8,0,0,0-1.895.441,1.466,1.466,0,0,0-.437,1.564c.282,1.16,1.57,1.733,2.837,1.978a2.309,2.309,0,0,0,1.662-.1,1.783,1.783,0,0,0,.665-1.443,3.334,3.334,0,0,0-1.992-3.1,3.325,3.325,0,0,1,2.772,3.09,2.512,2.512,0,0,1-.919,2.244,3.137,3.137,0,0,1-2.391.289,6.033,6.033,0,0,1-2.1-.833,2.9,2.9,0,0,1-1.3-1.978,2.014,2.014,0,0,1,.937-2.118A2.745,2.745,0,0,1,14.374,23.882Z" fill="#e94a4f"></path>
    <path d="M20.721,30.256a2.8,2.8,0,0,0-1.895.441,1.466,1.466,0,0,0-.437,1.564c.282,1.16,1.57,1.733,2.837,1.978a2.309,2.309,0,0,0,1.662-.1,1.783,1.783,0,0,0,.665-1.443,3.334,3.334,0,0,0-1.992-3.1,3.325,3.325,0,0,1,2.772,3.09,2.512,2.512,0,0,1-.919,2.244,3.137,3.137,0,0,1-2.391.289,6.033,6.033,0,0,1-2.1-.833,2.9,2.9,0,0,1-1.3-1.978,2.014,2.014,0,0,1,.937-2.118A2.745,2.745,0,0,1,20.721,30.256Z" fill="#e94a4f"></path>
</symbol>
                            </svg>