<svg xmlns="http://www.w3.org/2000/svg">
                                
                            
    <path d="M 33.4199 7.98416L 33.8411 8.40438L 35.9474 6.58343L 39.4579 0.840438L 38.6154 0L 32.9986 3.6419L 31.3136 5.88306L 31.7348 6.30328L 20.6417 17.6492L 18.395 15.268L 15.8674 17.9293C 16.0078 19.19 15.5866 20.5907 14.7441 21.5712C 13.7611 22.5517 12.4973 22.972 11.2336 22.8319L -3.34786e-08 34.3179L 6.31888 40.6212L 17.412 29.1352C 17.2716 27.8745 17.6929 26.4738 18.6758 25.4933C 19.6587 24.5128 20.9225 24.0925 22.1863 24.2326L 24.7139 21.5712L 22.4671 19.19L 33.4199 7.98416Z" transform="translate(0 1.37891)" fill="#303030"></path>
    <path d="M 11.0932 18.9098C 12.6378 20.5907 15.3057 20.5907 16.8504 18.9098C 17.6929 18.0694 17.9737 16.9488 17.9737 15.8282C 17.9737 14.7077 17.5525 13.5871 16.8504 12.7466L 4.35301 5.34336e-07L 3.22965 1.26066L 5.47637 3.6419L 4.49343 4.62241L 1.96588 7.28379L 1.68503 7.56394L 1.12336 7.42387C 0.842517 7.42387 0.421259 7.42387 5.35658e-07 7.56394L 11.0932 18.9098Z" transform="translate(21.344 19.7285)" fill="#0078D4"></path>
    <path d="M 14.7244 2.63966C 12.4776 0.258416 9.10757 -0.441949 6.29918 0.258416L 11.2139 5.30104L 10.0905 10.2036L 5.17582 11.6043L 0.261133 6.5617C -0.440965 9.6433 0.261133 12.865 2.50785 15.2462C 4.75456 17.6275 8.12463 18.3278 11.0734 17.4874L 11.2139 17.6275L 13.4606 20.0087C 13.601 19.7286 13.601 19.4484 13.601 19.3083C 13.601 19.1683 13.601 19.0282 13.601 18.8881L 13.4606 18.608L 17.2519 14.6859L 17.954 15.3863L 19.4986 16.9271L 20.622 15.6664L 16.9711 11.7444C 17.8136 8.66279 17.2519 5.16097 14.7244 2.63966Z" transform="translate(1.1438 0)" fill="#0078D4"></path>
</svg>