<svg xmlns="http://www.w3.org/2000/svg">
                                
                            
  <path d="M0,11.906H22.972V7.336H0Z" fill="#a4a6a9"></path>
  <path d="M0,19.307H22.972V14.737H0Z" fill="#7b7d82"></path>
  <path d="M0,26.2H22.972V21.631H0Z" fill="#505155"></path>
  <path d="M0,4.569H22.972V0H0Z" fill="#d3d3d4"></path>
  <path d="M0,33.615H22.972V29.046H0Z" fill="#211c1d"></path>
  <path d="M25.75,11.906h9.788V7.336H25.751v4.569Z" fill="#971d24"></path>
  <path d="M25.75,19.307h9.788V14.737H25.751v4.569Z" fill="#5e131b"></path>
  <path d="M25.75,26.2h9.788V21.631H25.751V26.2Z" fill="#271616"></path>
  <path d="M25.75,4.569h9.788V0H25.751V4.569Z" fill="#e8202c"></path>
  <path d="M25.75,33.615h9.788V29.046H25.751v4.568Z" fill="#211c1d"></path>
  <path d="M38.168,12.12h9.788V7.551H38.168Z" fill="#a4a6a9"></path>
  <path d="M38.168,19.52h9.788V14.952H38.168Z" fill="#7b7d82"></path>
  <path d="M38.168,26.415h9.788V21.846H38.168Z" fill="#505155"></path>
  <path d="M38.169,4.783h9.787V.214H38.169Z" fill="#d3d3d4"></path>
  <path d="M38.168,33.829h9.788V29.26H38.168Z" fill="#211c1d"></path>
</svg>