<svg xmlns="http://www.w3.org/2000/svg">
                                
                            
  <path d="M13.737,0,12.259,4.659l-2.537,8.1L8.5,16.639l-1.061,3.4L.051,43.526a.555.555,0,0,0,.578.8H7.44a.558.558,0,0,1,.481.193.574.574,0,0,1,.1.644L.982,62.224c-.193.45-.064.547.257.16L23.5,37.134c.321-.387.193-.674-.29-.674l-7.292.033-1.349.033c-.481,0-.707-.354-.45-.771L21.06,23.386,22.7,20.43l1.9-3.4,4.048-7.163,2.313-4.176A44.287,44.287,0,0,0,13.737,0Z" fill="#fcd116"></path>
  <path d="M26.5,3.452,10.374,36.49h4.015a.445.445,0,0,1-.288-.738L21.04,23.384l1.639-2.956,1.9-3.4L28.622,9.86l2.313-4.176A45.625,45.625,0,0,0,26.5,3.452Z" fill="#ff8c00" opacity="0.3" style="isolation: isolate"></path>
  <path d="M23.242,36.46l-4.5.021L2.1,61.439,23.532,37.134C23.852,36.75,23.725,36.46,23.242,36.46Z" fill="#ff8c00" opacity="0.3" style="isolation: isolate"></path>
</svg>