<svg xmlns="http://www.w3.org/2000/svg">
                                
                            
    <path d="M34.44,21.208A4.062,4.062,0,0,0,31,23.383H9.607a6.526,6.526,0,0,1,0-13.051h3.081a10.219,10.219,0,0,1,.725-2.175,7.851,7.851,0,0,1,.181-.906A8.47,8.47,0,0,1,21.208,2.9a8.837,8.837,0,0,1,7.069,3.625,13.584,13.584,0,0,1,2.9-.906A11.894,11.894,0,0,0,21.208,0,11.85,11.85,0,0,0,10.332,7.432H9.607A9.4,9.4,0,0,0,0,16.858a9.671,9.671,0,0,0,9.607,9.607h21.57a3.7,3.7,0,0,0,7.069-1.45A3.717,3.717,0,0,0,34.44,21.208Z" fill="#fff"></path>
    <path d="M44.58,36.25l2.971-2.971L44.58,30.308l-1.414-1.414L44.58,27.48l2.99-2.99,1.414-1.414L50.4,24.49l2.971,2.971L56.34,24.49l1.39-1.39A11.7,11.7,0,0,0,46.4,13.958,13.419,13.419,0,0,0,34.44,6.525,13.048,13.048,0,0,0,21.57,16.857a10.533,10.533,0,0,0-7.432,4.351h15.77a6.05,6.05,0,0,1,4.532-2.175,5.8,5.8,0,0,1,0,11.6,6.051,6.051,0,0,1-4.532-2.175h-17.4A10.326,10.326,0,0,0,22.658,37.34H43.489Z" fill="#fff"></path>
    <path d="M48.984,25.9l-2.99,2.99,4.385,4.385-4.056,4.057A11.744,11.744,0,0,0,57.976,26.127l-.222-.222-4.385,4.385Z" fill="#fff"></path>
    <polygon points="60.744 28.894 57.754 25.904 53.369 30.289 48.984 25.904 45.994 28.894 50.379 33.279 45.994 37.664 48.984 40.654 53.369 36.269 57.754 40.654 60.744 37.664 56.359 33.279 60.744 28.894" fill="#fff"></polygon>
</svg>