<svg>
                                <symbol id="svg-content-moderator" viewBox="0 0 512 512">
    <g stroke="none" stroke-width="1" fill-rule="evenodd" fill="#0063B1" transform="translate(108.000000, 102.000000)">
        <path d="M273.222116,127.276444 C273.222116,191.612089 214.353493,270.039111 147.998293,283.8176 C81.6430933,270.039111 22.78016,191.612089 22.78016,127.276444 L22.78016,62.7701333 C23.7643378,61.8656 24.9874489,60.8017778 26.4438044,59.6071111 C32.4683378,54.6577778 39.93216,49.6629333 48.8978489,44.9639111 C74.9358933,31.3276444 107.755093,23.0901333 147.998293,23.0901333 C188.241493,23.0901333 221.066382,31.3276444 247.098738,44.9639111 C256.064427,49.6629333 263.533938,54.6577778 269.552782,59.6071111 C271.009138,60.8017778 272.232249,61.8656 273.222116,62.7701333 L273.222116,127.276444 Z M293.121849,50.6300444 C291.460693,48.7242667 288.428516,45.7489778 283.962738,42.0796444 C276.766293,36.1632 268.011093,30.3036444 257.628871,24.8650667 C228.376604,9.5392 191.94496,0.397155556 147.998293,0.397155556 C104.057316,0.397155556 67.6199822,9.5392 38.3734044,24.8650667 C27.9911822,30.3036444 19.2359822,36.1632 12.0395378,42.0796444 C7.57376,45.7489778 4.54158222,48.7242667 2.88042667,50.6300444 L0.0871822222,53.8385778 L0.0871822222,127.276444 C0.0871822222,202.807822 67.52896,291.895822 145.91616,306.533333 L147.998293,306.925867 L150.080427,306.533333 C228.467627,291.895822 295.909404,202.802133 295.909404,127.276444 L295.909404,53.8385778 L293.121849,50.6300444 Z"></path>
        <path d="M148.094436,205.2 C142.468124,205.2 137.661013,207.065956 133.849458,210.763733 C130.015147,214.484267 128.086613,219.291378 128.086613,225.008711 C128.086613,230.498489 129.986702,235.260089 133.73568,239.134222 C137.52448,243.042489 142.365724,245.022222 148.094436,245.022222 C153.868658,245.022222 158.698524,243.105067 162.401991,239.293511 C166.071324,235.504711 167.908836,230.691911 167.908836,225.008711 C167.908836,219.3824 166.04288,214.603733 162.333724,210.854756 C158.61888,207.0944 153.80608,205.2 148.094436,205.2"></path>
        <polygon points="136.622222 182.444444 159.377778 182.444444 159.377778 51.6 136.622222 51.6"></polygon>
    </g>
</symbol>
                            </svg>