<svg xmlns="http://www.w3.org/2000/svg">
                                
                            
    <path style="isolation: isolate" d="M2.5,13.75v-2.5H0V0H15V2.5h2.5V7.676c-.209-.052-.416-.095-.625-.127A4.083,4.083,0,0,0,16.25,7.5V3.75H3.75V12.5h7.5a3.964,3.964,0,0,0,.049.625c.033.208.074.417.127.625ZM2.5,10V2.5H13.75V1.25H1.25V10ZM16.25,8.75a3.608,3.608,0,0,1,1.455.3,3.792,3.792,0,0,1,2,2,3.7,3.7,0,0,1,0,2.91,3.792,3.792,0,0,1-2,2,3.608,3.608,0,0,1-1.455.3,3.772,3.772,0,0,1-1.143-.176,3.544,3.544,0,0,1-1.025-.518c-.1.1-.278.285-.522.542s-.526.55-.845.879S12.059,17.648,11.7,18s-.688.681-1,.977-.589.54-.83.732a1.119,1.119,0,0,1-.5.288.634.634,0,0,1-.625-.625,1.13,1.13,0,0,1,.288-.5q.288-.362.732-.83t.977-1q.532-.532,1.025-1.011t.879-.845c.257-.244.438-.418.542-.522a3.52,3.52,0,0,1-.518-1.025A3.772,3.772,0,0,1,12.5,12.5a3.608,3.608,0,0,1,.3-1.455,3.792,3.792,0,0,1,2-2A3.608,3.608,0,0,1,16.25,8.75Zm0,6.25a2.391,2.391,0,0,0,.967-.2,2.532,2.532,0,0,0,1.333-1.328,2.446,2.446,0,0,0,0-1.938A2.519,2.519,0,0,0,17.217,10.2a2.446,2.446,0,0,0-1.938,0,2.532,2.532,0,0,0-1.328,1.333,2.446,2.446,0,0,0,0,1.938A2.546,2.546,0,0,0,15.278,14.8,2.374,2.374,0,0,0,16.25,15Z" fill="#525252"></path>
</svg>