<svg xmlns="http://www.w3.org/2000/svg">
                                
                            
    <path d="M85.657,111.821c-.077,0-.143.018-.219.02A12.608,12.608,0,0,0,64.757,99.164,16.55,16.55,0,0,0,32.3,101.972c-.138-.025-.274-.046-.412-.066a12.587,12.587,0,0,0-20.477,5.247A8.6,8.6,0,1,0,8.6,123.884H28.751a11.176,11.176,0,0,0,1.636.121h55.27a6.092,6.092,0,1,0,0-12.184Z" fill="#cbebf5"></path>
    <path d="M82.722,43.079l.168-.031a9.906,9.906,0,0,0-1.712-19.663l-.1,0c.056-.63.087-1.266.087-1.909a21.476,21.476,0,0,0-41.839-6.827,14.677,14.677,0,1,0-4.8,28.548H82.044l-.01-.034c.209-.017.416-.042.62-.075Z" fill="#cbebf5" opacity="0.8"></path>
    <path d="M165.614,84.938l.077-.014a4.515,4.515,0,0,0-.779-8.962h-.046c.025-.287.04-.578.04-.87a9.789,9.789,0,0,0-19.07-3.112,6.69,6.69,0,1,0-2.187,13.012H165.3l0-.015c.1-.008.189-.019.282-.034Z" fill="#cbebf5" opacity="0.8"></path>
    <path d="M51.814,108.828a3.5,3.5,0,0,0,3.484,3.494h87.283a3.5,3.5,0,0,0,3.494-3.494l.008-62.48H51.814Z" fill="#a0a1a2"></path>
    <path d="M142.589,32.023H55.3a3.5,3.5,0,0,0-3.484,3.5V46.35H146.08l0-10.832a3.506,3.506,0,0,0-3.495-3.5" fill="#7a7a7a"></path>
    <rect x="58.792" y="52.974" width="38.404" height="24.429" fill="#0072c6"></rect>
    <rect x="58.792" y="80.893" width="38.404" height="24.449" fill="#0072c6"></rect>
    <rect x="100.692" y="52.974" width="38.365" height="24.429" fill="#fff"></rect>
    <rect x="100.692" y="80.893" width="38.365" height="24.449" fill="#0072c6"></rect>
    <path d="M55.6,31.975a3.785,3.785,0,0,0-3.785,3.784v72.813a3.788,3.788,0,0,0,3.785,3.786h4.125l74.318-80.383Z" fill="#fff" opacity="0.2"></path>
</svg>