<svg>
                                <symbol id="svg-tea" viewBox="0 0 40 23">
<path d="M6.76471 0H4.11765H2.64706H0V5.28696V6.75556H1.17647H6.76471V0Z" transform="translate(4.26477 8.81152)" fill="#50E6FF"></path>
<path d="M5.14706 8.81159V0.14686V0H0V5.8744C0 7.19614 0.147059 8.51787 0.588235 9.83961C0.882353 11.1614 1.47059 12.3362 2.05882 13.3643C2.20588 13.658 2.35294 13.9517 2.64706 14.0986V8.81159H5.14706Z" transform="translate(1.76471)" fill="#243A5E"></path>
<path d="M5.29412 9.98647C5.88235 9.39903 6.32353 8.81159 6.61765 8.07729C6.91177 7.34299 7.05883 6.6087 7.05883 5.72754C7.05883 4.84638 6.91177 4.11208 6.61765 3.37778C6.32353 2.9372 5.88235 2.2029 5.29412 1.76232C4.70588 1.17488 4.11765 0.734299 3.38235 0.44058C2.64706 0.14686 1.91177 0 1.02941 0C1.02941 1.02802 1.02941 2.05604 1.02941 2.9372C1.02941 3.96522 1.02941 4.84638 1.02941 5.8744C1.02941 6.90242 0.882353 7.78357 0.735294 8.81159C0.588235 9.83961 0.294118 10.7208 0 11.7488H1.02941C1.91177 11.7488 2.64706 11.6019 3.38235 11.3082C4.11765 11.0145 4.85294 10.5739 5.29412 9.98647Z" transform="translate(32.9412)" fill="#243A5E"></path>
<path d="M1.47059 22.029H34.7059C35.5882 22.029 36.1765 21.4415 36.1765 20.5604C36.1765 19.6792 35.5882 19.0918 34.7059 19.0918H22.9412C23.2353 18.9449 23.5294 18.7981 23.9706 18.6512C25 18.0638 26.0294 17.1826 26.9118 16.3015C27.7941 15.4203 28.5294 14.3923 29.2647 13.3643C29.8529 12.3362 30.4412 11.1614 30.7353 9.83961C31.0294 8.51787 31.3235 7.343 31.3235 5.8744V0H8.38235V0.14686V8.81159H11.0294V15.5672H5.44118C5.73529 15.8609 5.88235 16.1546 6.17647 16.3015C7.05882 17.1826 8.08823 17.9169 9.11765 18.6512C9.41176 18.7981 9.70588 18.9449 10.1471 19.0918H1.47059C0.588235 19.0918 0 19.6792 0 20.5604C0 21.4415 0.588235 22.029 1.47059 22.029Z" fill="#243A5E"></path>
</symbol>
                            </svg>