<svg xmlns="http://www.w3.org/2000/svg">
                                
                            
    <path transform="matrix(0.0117 0 0 -0.0117 0 34)" d="M 2991.45 2991.45L 2991.45 2897.97C 2991.45 2720.74 2975.63 2555.2 2943.98 2401.34C 2912.33 2247.48 2864.37 2101.9 2800.11 1964.6C 2735.84 1827.3 2655.01 1696.57 2557.63 1572.41C 2460.26 1448.25 2346.32 1327.26 2215.84 1209.44L 1936.85 373.932L 1495.73 373.932L 1495.73 705.504C 1361.34 626.628 1225.5 550.673 1088.2 477.639L 477.639 1088.2C 550.673 1225.5 626.628 1361.34 705.504 1495.73L 373.932 1495.73L 373.932 1936.85L 1209.44 2214.38C 1327.26 2345.84 1448.25 2460.26 1572.41 2557.63C 1696.57 2655.01 1827.3 2735.84 1964.6 2800.11C 2101.9 2864.37 2247.48 2912.33 2401.34 2943.98C 2555.2 2975.63 2720.74 2991.45 2897.97 2991.45L 2991.45 2991.45ZM 815.054 1682.69C 843.294 1727.49 871.777 1771.79 900.503 1815.61C 929.23 1859.43 959.174 1902.77 990.335 1945.61L 560.897 1802.47L 560.897 1682.69L 815.054 1682.69ZM 1123.26 709.886C 1172.92 738.125 1222.58 766.122 1272.24 793.874C 1321.91 821.627 1371.57 849.623 1421.23 877.863L 877.863 1421.23C 849.623 1371.57 821.627 1321.91 793.874 1272.24C 766.122 1222.58 738.125 1172.43 709.886 1121.79L 1123.26 709.886ZM 1945.61 990.335C 1902.77 959.174 1859.43 929.23 1815.61 900.503C 1771.79 871.777 1727.49 843.294 1682.69 815.054L 1682.69 560.897L 1802.47 560.897L 1945.61 990.335ZM 2212.92 1467.97C 2309.32 1564.38 2393.31 1662.49 2464.88 1762.3C 2536.45 1862.11 2596.59 1966.31 2645.27 2074.88C 2693.96 2183.46 2731.21 2297.88 2757.02 2418.14C 2782.82 2538.4 2798.16 2666.7 2803.03 2803.03C 2666.7 2798.16 2538.4 2782.82 2418.14 2757.02C 2297.88 2731.21 2183.46 2693.96 2074.88 2645.27C 1966.31 2596.59 1861.87 2536.45 1761.57 2464.88C 1661.27 2393.31 1562.43 2309.81 1465.05 2214.38C 1368.65 2119.92 1280.52 2020.35 1200.67 1915.67C 1120.82 1810.99 1045.84 1701.19 975.728 1586.29L 1586.29 975.728C 1701.19 1045.84 1810.74 1121.06 1914.94 1201.4C 2019.13 1281.74 2118.46 1370.6 2212.92 1467.97ZM 1869.66 1495.73C 1818.05 1495.73 1769.6 1505.46 1724.32 1524.94C 1679.04 1544.42 1639.36 1571.19 1605.28 1605.28C 1571.19 1639.36 1544.42 1679.04 1524.94 1724.32C 1505.46 1769.6 1495.73 1818.05 1495.73 1869.66C 1495.73 1921.27 1505.46 1969.71 1524.94 2014.99C 1544.42 2060.28 1571.19 2099.96 1605.28 2134.04C 1639.36 2168.12 1679.04 2194.9 1724.32 2214.38C 1769.6 2233.85 1818.05 2243.59 1869.66 2243.59C 1921.27 2243.59 1969.71 2233.85 2014.99 2214.38C 2060.28 2194.9 2099.96 2168.12 2134.04 2134.04C 2168.12 2099.96 2194.9 2060.28 2214.38 2014.99C 2233.85 1969.71 2243.59 1921.27 2243.59 1869.66C 2243.59 1818.05 2233.85 1769.6 2214.38 1724.32C 2194.9 1679.04 2168.12 1639.36 2134.04 1605.28C 2099.96 1571.19 2060.28 1544.42 2014.99 1524.94C 1969.71 1505.46 1921.27 1495.73 1869.66 1495.73ZM 1869.66 2056.62C 1843.37 2056.62 1819.02 2051.76 1796.62 2042.02C 1774.23 2032.28 1754.51 2018.89 1737.47 2001.85C 1720.43 1984.81 1707.04 1965.09 1697.3 1942.69C 1687.56 1920.29 1682.69 1895.95 1682.69 1869.66C 1682.69 1843.37 1687.56 1819.02 1697.3 1796.62C 1707.04 1774.23 1720.43 1754.51 1737.47 1737.47C 1754.51 1720.43 1774.23 1707.04 1796.62 1697.3C 1819.02 1687.56 1843.37 1682.69 1869.66 1682.69C 1895.95 1682.69 1920.29 1687.56 1942.69 1697.3C 1965.09 1707.04 1984.81 1720.43 2001.85 1737.47C 2018.89 1754.51 2032.28 1774.23 2042.02 1796.62C 2051.76 1819.02 2056.62 1843.37 2056.62 1869.66C 2056.62 1895.95 2051.76 1920.29 2042.02 1942.69C 2032.28 1965.09 2018.89 1984.81 2001.85 2001.85C 1984.81 2018.89 1965.09 2032.28 1942.69 2042.02C 1920.29 2051.76 1895.95 2056.62 1869.66 2056.62ZM 373.932 747.863C 425.542 747.863 473.988 738.125 519.268 718.65C 564.549 699.174 604.231 672.395 638.313 638.313C 672.395 604.231 699.174 564.549 718.65 519.268C 738.125 473.988 747.863 425.542 747.863 373.932C 747.863 322.321 738.125 273.876 718.65 228.595C 699.174 183.314 672.395 143.633 638.313 109.55C 604.231 75.468 564.549 48.689 519.268 29.2134C 473.988 9.7378 425.542 0 373.932 0L 0 0L 0 373.932C 0 425.542 9.7378 473.988 29.2134 519.268C 48.689 564.549 75.468 604.231 109.55 638.313C 143.633 672.395 183.314 699.174 228.595 718.65C 273.876 738.125 322.321 747.863 373.932 747.863ZM 373.932 186.966C 400.224 186.966 424.568 191.835 446.965 201.573C 469.362 211.31 489.081 224.7 506.122 241.741C 523.163 258.782 536.553 278.501 546.291 300.898C 556.029 323.295 560.897 347.64 560.897 373.932C 560.897 400.224 556.029 424.568 546.291 446.965C 536.553 469.362 523.163 489.081 506.122 506.122C 489.081 523.163 469.362 536.553 446.965 546.291C 424.568 556.029 400.224 560.897 373.932 560.897C 347.64 560.897 323.295 556.029 300.898 546.291C 278.501 536.553 258.782 523.163 241.741 506.122C 224.7 489.081 211.31 469.362 201.573 446.965C 191.835 424.568 186.966 400.224 186.966 373.932L 186.966 186.966L 373.932 186.966Z"></path>
</svg>