<svg>
                                <symbol id="svg-only-pay" viewBox="0 0 213.786 122.59">                          
    <path d="M153.657,63.959a19.785,19.785,0,1,1,0-39.569V8.357A35.817,35.817,0,1,0,177.5,70.895L166.815,58.92A19.686,19.686,0,0,1,153.657,63.959Z" fill="#89ae61"></path>
    <path d="M173.442,44.174h16.032A35.817,35.817,0,0,0,153.657,8.357V24.39A19.785,19.785,0,0,1,173.442,44.174Z" fill="#b9c462"></path>
    <path d="M189.474,44.174H173.442a19.714,19.714,0,0,1-6.627,14.746L177.5,70.895A35.724,35.724,0,0,0,189.474,44.174Z" fill="#e1c855"></path>     
    <path d="M46.86,36.254,39.627,30.4a23.836,23.836,0,0,0-4.285,14.659l9.247-.973A14.61,14.61,0,0,1,46.86,36.254Z" fill="#bac84a"></path>
    <path d="M67.089,31.679l5.856-7.234a23.842,23.842,0,0,0-14.669-4.271l.974,9.245A14.622,14.622,0,0,1,67.089,31.679Z" fill="#128e52"></path>
    <path d="M56.025,29.783l-.975-9.256A23.844,23.844,0,0,0,41.659,27.87l7.226,5.849A14.605,14.605,0,0,1,56.025,29.783Z" fill="#85b351"></path>
    <path d="M73.562,40.784l9.02-2.136a23.838,23.838,0,0,0-7.1-12.174L69.627,33.7A14.6,14.6,0,0,1,73.562,40.784Z" fill="#128e52"></path>
    <path d="M44.947,47.311l-9.255.976a23.839,23.839,0,0,0,7.336,13.407l5.849-7.227A14.609,14.609,0,0,1,44.947,47.311Z" fill="#d1d78d"></path>
    <path d="M62.214,73.736A29.719,29.719,0,0,0,77.6,20.912a28.785,28.785,0,0,0-3.418-2.338L46.822,71.212A29.519,29.519,0,0,0,62.214,73.736Z" fill="none"></path>
    <path d="M94.717,40.424A35.987,35.987,0,0,0,81.432,16.172a34.78,34.78,0,0,0-4.441-3.009l-2.813,5.411A28.785,28.785,0,0,1,77.6,20.912,29.721,29.721,0,0,1,62.214,73.736a29.519,29.519,0,0,1-15.392-2.524l-2.81,5.407a35.783,35.783,0,0,0,50.7-36.195Z" fill="#a0a1a2"></path>
    <path d="M40.406,67.277a29.714,29.714,0,0,1,33.772-48.7l2.813-5.411A35.792,35.792,0,0,0,31.263,21.64l-.01.013A35.687,35.687,0,0,0,44.012,76.619l2.81-5.407A29.874,29.874,0,0,1,40.406,67.277Z" fill="#b7b8b9"></path>                
    <path d="M86.7,44.132A3.054,3.054,0,0,0,83.637,41.1l-.889.007-9.579.039-10.889.043c-.012-.012-.02-.027-.028-.035a4.187,4.187,0,0,0-7.134,3.025H86.693C86.693,44.161,86.7,44.147,86.7,44.132Z" fill="#ff8c00"></path>
    <path d="M62.047,47.277l21.613-.085a3.043,3.043,0,0,0,3.032-3.017H55.117a4.179,4.179,0,0,0,6.93,3.1Z" fill="#ff8c00"></path>
    <path d="M62.047,47.277l21.613-.085a3.043,3.043,0,0,0,3.032-3.017H55.117a4.179,4.179,0,0,0,6.93,3.1Z" fill="#d16b37" opacity="0.5" style="mix-blend-mode: multiply"></path>                
    <path d="M55.991,14.618a29.682,29.682,0,0,0-9.17,56.594L74.178,18.574A29.453,29.453,0,0,0,55.991,14.618Z" fill="#fff" opacity="0.2"></path>   
    <circle cx="59.102" cy="44.124" r="31.225" fill="none" stroke="#3c454f" stroke-miterlimit="10" opacity="0.3"></circle>            
    <circle cx="59.103" cy="61.33" r="3.084" fill="#85b351"></circle>          
    <polygon points="191.982 97.155 185.394 90.937 190.751 90.937 199.57 99.256 190.791 107.536 185.433 107.536 191.982 101.355 175.562 101.355 175.562 97.155 191.982 97.155" fill="#969696"></polygon>
    <rect x="169.343" y="97.155" width="4.201" height="4.2" fill="#969696"></rect>
    <rect x="163.171" y="97.155" width="4.201" height="4.2" fill="#969696"></rect>
    <rect x="157" y="97.155" width="4.202" height="4.2" fill="#969696"></rect>
    <rect x="150.829" y="97.155" width="4.201" height="4.2" fill="#969696"></rect>
    <rect x="144.657" y="97.155" width="4.201" height="4.2" fill="#969696"></rect>
    <rect x="138.486" y="97.155" width="4.202" height="4.2" fill="#969696"></rect>
    <rect x="132.316" y="97.155" width="4.201" height="4.2" fill="#969696"></rect>
    <rect x="126.144" y="97.155" width="4.201" height="4.2" fill="#969696"></rect>
    <rect x="119.973" y="97.155" width="4.201" height="4.2" fill="#969696"></rect>
    <rect x="113.801" y="97.155" width="4.202" height="4.2" fill="#969696"></rect>
    <rect x="107.631" y="97.155" width="4.201" height="4.2" fill="#969696"></rect>
    <rect x="101.46" y="97.155" width="4.2" height="4.2" fill="#969696"></rect>
    <rect x="95.288" y="97.155" width="4.202" height="4.2" fill="#969696"></rect>
    <rect x="89.117" y="97.155" width="4.202" height="4.2" fill="#969696"></rect>
    <rect x="82.946" y="97.155" width="4.201" height="4.2" fill="#969696"></rect>
    <rect x="76.775" y="97.155" width="4.201" height="4.2" fill="#969696"></rect>
    <rect x="70.603" y="97.155" width="4.202" height="4.2" fill="#969696"></rect>
    <rect x="64.432" y="97.155" width="4.202" height="4.2" fill="#969696"></rect>
    <rect x="58.261" y="97.155" width="4.201" height="4.2" fill="#969696"></rect>
    <rect x="52.09" y="97.155" width="4.201" height="4.2" fill="#969696"></rect>
    <rect x="45.918" y="97.155" width="4.202" height="4.2" fill="#969696"></rect>
    <rect x="39.748" y="97.155" width="4.201" height="4.2" fill="#969696"></rect>
    <rect x="33.576" y="97.155" width="4.201" height="4.2" fill="#969696"></rect>
    <rect x="27.405" y="97.155" width="4.201" height="4.2" fill="#969696"></rect>
    <rect x="21.235" y="97.155" width="4.201" height="4.2" fill="#969696"></rect>
    <rect x="15.063" y="97.155" width="4.201" height="4.2" fill="#969696"></rect>
</symbol>
                            </svg>