<svg xmlns="http://www.w3.org/2000/svg" viewBox="0 0 35.066 46.754">
                                
                            
  <path d="M2.922,43.832H32.144V23.377H2.922V43.832M8.766,11.917v8.538H26.3V11.917A8.848,8.848,0,0,0,23.788,5.57a8.267,8.267,0,0,0-6.255-2.648A8.267,8.267,0,0,0,11.278,5.57a8.9,8.9,0,0,0-2.511,6.347m20.455,0v8.538h5.844v26.3H0v-26.3H5.844V11.917A11.7,11.7,0,0,1,9.2,3.47,11.124,11.124,0,0,1,17.533,0a11.124,11.124,0,0,1,8.333,3.47A11.7,11.7,0,0,1,29.222,11.917Z" fill="#0072c6"></path>
</svg>