<svg>
                                <symbol id="svg-recommendations" viewBox="0 0 512 512">
    <g stroke="none" stroke-width="1" fill-rule="evenodd" fill="#0063B1" transform="translate(119.000000, 119.000000)">
        <path d="M0.466666667,0.464391111 L0.466666667,228.025636 L85.8,228.025636 L137,284.908836 L188.194311,228.025636 L273.533333,228.025636 L273.533333,0.464391111 L0.466666667,0.464391111 Z M23.2222222,23.2199467 L250.777778,23.2199467 L250.777778,205.264391 L188.194311,205.264391 L178.0624,205.264391 L171.286933,212.802169 L137,250.894969 L102.718756,212.802169 L95.9319111,205.264391 L85.8,205.264391 L23.2222222,205.264391 L23.2222222,23.2199467 Z"></path>
        <polygon points="137 68.62752 148.411911 103.762098 185.355556 103.762098 155.477511 125.476587 166.895111 160.611164 137 138.896676 107.104889 160.611164 118.522489 125.476587 88.6444444 103.762098 125.588089 103.762098"></polygon>
    </g>
</symbol>
                            </svg>