<svg>
                                <symbol id="svg-app-service-web-epi" viewBox="0 0 90.344 76.522">
    <path d="M56.27,62.775A34.988,34.988,0,1,1,13.739,7.207,34.988,34.988,0,0,1,56.27,62.775" fill="#59b4d9"></path>
    <path d="M49.84,41.129A7.54,7.54,0,0,0,60.4,42.535c.172-.132.305-.291.462-.433,3.373,2.376,5.715,3.944,7.035,4.843a30.192,30.192,0,0,0,.938-3c-1.394-1.037-3.28-2.489-6.006-4.7A7.476,7.476,0,0,0,52.094,30.08c-3.564-3.2-7.48-6.863-11.61-10.966,12.831-6.9,21.946-5.89,21.946-5.89a35.153,35.153,0,0,0-5.048-5.176c-5.411-.836-13.817-.742-23.421,4.367l0,0h0q-4.8-5.025-9.776-10.8A32.57,32.57,0,0,0,19.544,3.5,75.376,75.376,0,0,0,29,15.491h0c.007.008.015.015.024.024A64.811,64.811,0,0,0,19.3,23.936c-.406.433-.8.868-1.179,1.3a10.564,10.564,0,0,0-5.764.395C9.189,18.795,9.444,13.3,9.945,10.469a36.894,36.894,0,0,0-3.769,4.574A22.422,22.422,0,0,0,7.556,29.176,10.554,10.554,0,0,0,7.549,41.99a10.84,10.84,0,0,0,.783.9A53.018,53.018,0,0,0,6.287,55.159c.332.451.332.815.661,1.254a35.525,35.525,0,0,0,5.824,5.611,38.579,38.579,0,0,1,2.4-15.921,10.509,10.509,0,0,0,4.876-.792c.9.788,1.834,1.585,2.835,2.4a58.341,58.341,0,0,0,10.2,6.5,6.918,6.918,0,0,0,11.131,6.212,6.886,6.886,0,0,0,1.551-1.7,62.443,62.443,0,0,0,13.728,1.427c.54,0,3.048-3.41,4.484-5.524-2.148.449-8.516,1.324-17.22-1.176a6.878,6.878,0,0,0-10.522-4.358A65.594,65.594,0,0,1,26.773,42.8q-.989-.783-1.9-1.565a10.609,10.609,0,0,0,.445-10.57c.4-.4.794-.8,1.219-1.2a76.842,76.842,0,0,1,9.127-7.384c-.115-.106-.218-.218-.33-.326.113.1.22.213.335.318h0c4.369,4.04,9,7.869,13.39,11.291A7.487,7.487,0,0,0,49.84,41.129Z" fill="#fff"></path>
    <path d="M84.32,55.131l-2.489,2.627V52.406c0-.221,0-.44-.008-.653a4.633,4.633,0,0,0-2.29-3.9v-.8l-.587.511a4.578,4.578,0,0,0-4.783.791,9.5,9.5,0,0,0-.757.708l-3.991,3.989a8.081,8.081,0,0,0-4.544-5.208,10.27,10.27,0,0,0-1.354-.5l-.884-.295H60.6l-.317.059a11.094,11.094,0,0,0-5.9,3.645l-2.312,2.315c-.014-.045-.028-.091-.044-.136a8.254,8.254,0,0,0-5.818-5.558l-.836-.325H43.076l-.383.087a11.828,11.828,0,0,0-5.908,3.815l-7.323,7.37c-.122.124-.239.253-.381.41L26.524,61.54,33.4,67.55l2.759-2.76a8,8,0,0,0,6.062,5.769,8.191,8.191,0,0,0,7.836-2.309c.608-.624,1.23-1.234,1.853-1.846q.595-.583,1.184-1.169l.107-.106q0,3.664,0,7.328l-.006.038-.614,4.027H62.77L62.531,72.8l-.025-2.131a8.6,8.6,0,0,0,5.074-2.622q2.48-2.471,4.955-4.948,0,.456,0,.91a6.869,6.869,0,0,0,1.624,4.605,6.6,6.6,0,0,0,4.6,2.251,6.676,6.676,0,0,0,4.926-1.753c1.217-1.116,2.373-2.278,3.49-3.4.435-.437.87-.875,1.318-1.32a3.8,3.8,0,0,0,.869-1.369l.982-2.189Z" fill="#fff"></path>
    <path d="M62.051,50.546a13.477,13.477,0,0,1,1.342.467,4.727,4.727,0,0,1,2.87,4.484c.039,1.568.008,3.138.008,4.708,0,.227,0,.454,0,.864.294-.261.476-.406.641-.57q4.486-4.48,8.968-8.964c.163-.163.322-.33.5-.475a1.14,1.14,0,0,1,1.274-.245,1.166,1.166,0,0,1,.673,1.113c.01.209,0,.418,0,.628q0,5.461,0,10.923a5.047,5.047,0,0,0,.009.564.912.912,0,0,0,1.537.687,11.827,11.827,0,0,0,1.289-1.19c1.088-1.127,2.159-2.27,3.288-3.461l1.679,1.588a.9.9,0,0,1-.115.248c-1.56,1.546-3.081,3.134-4.7,4.618a3.165,3.165,0,0,1-4.507-.2A3.444,3.444,0,0,1,76.036,64c-.008-2.8,0-5.608,0-8.412,0-.222,0-.445,0-.855-.315.274-.5.419-.668.584q-5.129,5.123-10.257,10.249a4.907,4.907,0,0,1-3.66,1.657c-.441-.01-.67-.094-.626-.59a8.453,8.453,0,0,0,0-1.192c-.02-.378.082-.552.511-.586,1.688-.135,2.445-.726,2.545-2.418a63.286,63.286,0,0,0,.013-7.022,2.351,2.351,0,0,0-2.589-2.392,2.543,2.543,0,0,0-2.294,2.739c-.028,1.3-.007,2.595-.007,3.892q0,6.434,0,12.869c0,.167.021.333.032.5H56.652a2.063,2.063,0,0,0,.046-.308q0-7.72,0-15.439a2.692,2.692,0,0,0-.1-.467c-.248.237-.431.4-.606.58q-2.686,2.684-5.371,5.369c-1.022,1.019-2.066,2.017-3.072,3.051a4.687,4.687,0,0,1-4.6,1.328,4.53,4.53,0,0,1-3.577-4.426c-.034-1.715-.011-3.431-.018-5.146,0-.216-.026-.433-.04-.649l-.157-.074L33.24,62.759l-1.723-1.5c.187-.206.307-.348.438-.48q3.472-3.495,6.946-6.987c1.335-1.344,2.595-2.794,4.566-3.241h1.256a4.65,4.65,0,0,0,.451.171A4.824,4.824,0,0,1,48.7,54.034a1.687,1.687,0,0,1-.479,1.92q-3.11,3.052-6.147,6.178a1.219,1.219,0,0,0-.356.9,2.33,2.33,0,0,0,1.683,1.847,2.541,2.541,0,0,0,2.689-.891q5.228-5.236,10.462-10.466c1.268-1.27,2.471-2.628,4.364-2.98ZM41.7,59.055a1.252,1.252,0,0,0,.27-.123c1.407-1.4,2.819-2.791,4.2-4.216a.728.728,0,0,0-.007-.683,2.369,2.369,0,0,0-2.413-1.117,2.3,2.3,0,0,0-2.022,1.954C41.618,56.231,41.7,57.607,41.7,59.055Z" fill="#ff553e"></path>
</symbol>
                            </svg>