<svg xmlns="http://www.w3.org/2000/svg">
                                
                            
    <path stroke="none" stroke-width="1" fill-rule="evenodd" fill="#0063B1" transform="translate(91.000000, 142.000000)" d="M91.0444444,210.32256 C72.5555556,210.32256 57.5141333,195.247004 57.5141333,176.576071 C57.5141333,157.910827 72.5555556,142.835271 91.0444444,142.835271 C109.533333,142.835271 124.574756,157.910827 124.574756,176.576071 C124.574756,195.247004 109.533333,210.32256 91.0444444,210.32256 M91.0444444,119.687182 C122.492622,119.687182 147.933333,145.190471 147.933333,176.576071 C147.933333,207.96736 122.492622,233.46496 91.0444444,233.46496 C79.3424,233.46496 68.4823111,229.926471 59.4426667,223.879182 L16.1160889,267.211449 L0.0222222222,251.123271 L43.4512,207.688604 C37.5916444,198.745671 34.1555556,188.067627 34.1555556,176.576071 C34.1555556,145.190471 59.5962667,119.687182 91.0444444,119.687182 Z M51.2222222,22.9755022 L51.2222222,0.219946667 L278.777778,0.219946667 L278.777778,22.9755022 L51.2222222,22.9755022 Z M51.2222222,85.55328 L51.2222222,62.7977244 L278.777778,62.7977244 L278.777778,85.55328 L51.2222222,85.55328 Z M165.555804,148.133333 C162.358649,139.787733 157.853049,132.102044 152.198293,125.377778 L278.776071,125.377778 L278.776071,148.133333 L165.555804,148.133333 Z M163.111289,210.711111 C166.479111,203.634133 168.822933,195.993956 169.972089,187.955556 L278.777778,187.955556 L278.777778,210.711111 L163.111289,210.711111 Z"></path>
</svg>