<svg>
                                <symbol id="svg-clock-moving" viewBox="0 0 184 127">
		<path fill-rule="evenodd" clip-rule="evenodd" d="M 53.9633 122.79C 26.9739 122.79 5.01651 100.862 5.01651 73.9084C 5.01651 46.9535 26.9739 25.0253 53.9633 25.0253C 80.9541 25.0253 102.911 46.9535 102.911 73.9084C 102.911 100.862 80.9541 122.79 53.9633 122.79ZM 5.9622 39.116L 11.9244 33.1617L 15.7844 37.018C 13.82 39.0444 12.0171 41.2252 10.3941 43.5407L 5.9622 39.116ZM 102.082 39.116L 97.583 43.6094C 95.9628 41.2897 94.1614 39.1076 92.1998 37.077L 96.1216 33.1617L 102.082 39.116ZM 41.6679 8.41989L 66.2587 8.41989L 66.2587 4.20994L 41.6679 4.20994L 41.6679 8.41989ZM 99.9297 47.2187L 108.043 39.116L 96.1216 27.2089L 89.1575 34.1637C 80.1152 26.1676 68.3397 21.2041 55.4275 20.8519L 55.4275 12.6298L 70.4742 12.6298L 70.4742 0L 37.4524 0L 37.4524 12.6298L 51.2119 12.6298L 51.2119 20.8869C 38.8309 21.5198 27.5655 26.4118 18.8337 34.109L 11.9244 27.2089L 4.28828e-07 39.116L 8.06435 47.1682C 3.45675 55.0282 0.800955 64.1624 0.800955 73.9084C 0.800955 103.183 24.6497 127 53.9633 127C 83.2768 127 107.127 103.183 107.127 73.9084C 107.127 64.1469 104.463 54.9987 99.8412 47.1317L 99.9297 47.2187Z" transform="translate(75.957 0)"></path>
		<path fill-rule="evenodd" clip-rule="evenodd" d="M 33.9436 27.9779C 33.4279 28.6164 32.6944 29.0135 31.878 29.1005C 31.0686 29.1918 30.2606 28.9504 29.6227 28.434C 28.9833 27.919 28.5857 27.1878 28.4985 26.3711C 28.4114 25.5544 28.6475 24.7545 29.1646 24.1174C 29.7702 23.3694 30.6611 22.9793 31.559 22.9793C 32.2363 22.9793 32.9192 23.2038 33.4883 23.6613C 34.1263 24.1763 34.5254 24.9088 34.6125 25.7256C 34.6982 26.5409 34.4607 27.3408 33.9436 27.9779ZM 37.2219 30.6259C 38.4472 29.1146 39.0079 27.2173 38.8042 25.2821C 38.599 23.3484 37.6533 21.6111 36.1385 20.3888C 33.5867 18.3259 30.0695 18.3048 27.4826 20.0534L 2.65018 -6.42387e-07L -3.8423e-06 3.27253L 24.8324 23.3259C 23.6619 26.2181 24.4193 29.6492 26.9711 31.7093C 28.3187 32.7969 29.9374 33.3259 31.5492 33.3259C 33.6752 33.3245 35.7858 32.4011 37.2219 30.6259Z" transform="translate(98.3672 47.86)"></path>
		<path fill-rule="evenodd" clip-rule="evenodd" d="M 2.40112 0.413978C 1.85309 -0.137525 0.963611 -0.137523 0.414184 0.411173C -0.136648 0.958466 -0.138062 1.84677 0.40996 2.39546C 0.594039 2.5807 0.782337 2.76313 0.969227 2.94416C 1.24183 3.20517 1.59313 3.33568 1.94442 3.33568C 2.31258 3.33568 2.68074 3.19114 2.95756 2.90486C 3.49434 2.34634 3.47748 1.45804 2.91822 0.920575C 2.74398 0.75358 2.57255 0.585182 2.40112 0.413978Z" transform="translate(100.996 99.9846)"></path>
		<path fill-rule="evenodd" clip-rule="evenodd" d="M 1.40554 7.30063C 1.76526 7.30063 2.12499 7.16311 2.399 6.88946C 3.99951 5.29109 5.74615 3.83304 7.58975 2.55743C 8.22771 2.11678 8.38789 1.24252 7.94526 0.605416C 7.50263 -0.0330925 6.6272 -0.191667 5.99065 0.250377C 4.00794 1.62142 2.13061 3.18751 0.412069 4.90517C -0.137358 5.45387 -0.137358 6.34076 0.412069 6.88946C 0.68608 7.16311 1.04581 7.30063 1.40554 7.30063Z" transform="translate(100.996 40.5286)"></path>
		<path fill-rule="evenodd" clip-rule="evenodd" d="M 0.993784 2.74664C 3.14934 3.4062 5.25571 4.26502 7.25388 5.29786C 7.46044 5.40592 7.68106 5.45644 7.89886 5.45644C 8.40613 5.45644 8.89795 5.17999 9.14807 4.69865C 9.50499 4.00962 9.23519 3.16342 8.54665 2.80698C 6.39953 1.69555 4.13437 0.772172 1.81722 0.0634982C 1.07247 -0.168049 0.288378 0.254349 0.0621438 0.993896C -0.165496 1.73485 0.251847 2.5207 0.993784 2.74664Z" transform="translate(139.932 35.3402)"></path>
		<path fill-rule="evenodd" clip-rule="evenodd" d="M 1.49518 2.88101C 2.26522 2.83189 3.03807 2.80663 3.81092 2.80663C 5.2948 2.81786 6.79131 2.89083 8.25692 3.06203C 8.31172 3.06905 8.36653 3.07186 8.42133 3.07186C 9.12392 3.07186 9.73096 2.54561 9.81527 1.83133C 9.9052 1.06091 9.35437 0.364862 8.58292 0.27505C 7.02879 0.0926193 5.44375 -9.72145e-07 3.87275 -9.72145e-07C 3.00294 0.00561229 2.16826 0.0266636 1.31672 0.0799895C 0.542463 0.129106 -0.0463161 0.797082 0.00286538 1.56891C 0.053452 2.34213 0.722325 2.90486 1.49518 2.88101Z" transform="translate(126.053 33.6393)"></path>
		<path fill-rule="evenodd" clip-rule="evenodd" d="M 1.4061 5.09824C 1.60001 5.09824 1.79534 5.05895 1.98363 4.97334C 4.03661 4.04856 6.18654 3.30621 8.373 2.76453C 9.12759 2.57789 9.58709 1.81729 9.4002 1.06511C 9.21331 0.312935 8.44888 -0.143142 7.69851 0.0406923C 5.34623 0.621665 3.0347 1.42155 0.82716 2.4165C 0.120352 2.73365 -0.194409 3.56582 0.124568 4.27169C 0.359233 4.79091 0.870724 5.09824 1.4061 5.09824Z" transform="translate(112.488 34.7853)"></path>
		<path fill-rule="evenodd" clip-rule="evenodd" d="M 7.48131 7.22012C 8.05743 6.70089 8.10522 5.81399 7.5867 5.23723C 7.10473 4.70397 6.61009 4.18194 6.0972 3.66973C 4.89436 2.46709 3.60441 1.33181 2.26667 0.293356C 1.65401 -0.180965 0.771557 -0.0672961 0.295199 0.541743C -0.181158 1.15499 -0.0687406 2.03768 0.54392 2.512C 1.78891 3.47608 2.99035 4.53417 4.11028 5.65402C 4.58664 6.13115 5.05035 6.61669 5.49579 7.11487C 5.77402 7.4236 6.15763 7.57937 6.54124 7.57937C 6.87568 7.57937 7.21292 7.46009 7.48131 7.22012Z" transform="translate(152.338 41.7643)"></path>
		<path fill-rule="evenodd" clip-rule="evenodd" d="M 6.21333 0.194602C 5.54446 -0.198327 4.68309 0.0219887 4.28964 0.69137C 3.14863 2.62093 1.82073 4.46629 0.342479 6.17413C -0.164793 6.76071 -0.101563 7.6462 0.485804 8.1528C 0.751384 8.38294 1.07879 8.49521 1.40479 8.49521C 1.79824 8.49521 2.19029 8.33102 2.46711 8.00966C 4.05778 6.17553 5.48404 4.19264 6.71077 2.11573C 7.10422 1.44916 6.8822 0.58753 6.21333 0.194602Z" transform="translate(157.971 92.2172)"></path>
		<path fill-rule="evenodd" clip-rule="evenodd" d="M 0.0253631 1.66709C 0.449729 3.8745 0.67597 6.13805 0.697047 8.38897C 0.702668 9.15939 1.33219 9.77825 2.10223 9.77825L 2.11487 9.77825C 2.89053 9.77124 3.51304 9.13693 3.50742 8.3623C 3.48353 5.94299 3.24184 3.51105 2.78656 1.13804C 2.63901 0.377443 1.90409 -0.116522 1.14108 0.0238098C 0.379468 0.171158 -0.120776 0.905088 0.0253631 1.66709Z" transform="translate(166.734 65.1575)"></path>
		<path fill-rule="evenodd" clip-rule="evenodd" d="M 8.12865 3.44684C 6.05881 2.56135 4.05784 1.48219 2.18332 0.236049C 1.53553 -0.194768 0.664317 -0.019355 0.234331 0.627573C -0.19425 1.2731 -0.0186041 2.14456 0.627781 2.57397C 2.64422 3.91273 4.79556 5.07327 7.02278 6.02613C 7.20264 6.10471 7.39093 6.1398 7.57501 6.1398C 8.12022 6.1398 8.63873 5.82125 8.86778 5.28799C 9.1727 4.57651 8.84248 3.75136 8.12865 3.44684Z" transform="translate(107.006 104.902)"></path>
		<path fill-rule="evenodd" clip-rule="evenodd" d="M 0.668296 0.20943C 0.00645445 0.616391 -0.197302 1.48084 0.208796 2.1404C 1.39056 4.05452 2.40088 6.08932 3.21589 8.18868C 3.43369 8.74439 3.96485 9.08399 4.52692 9.08399C 4.69555 9.08399 4.86838 9.05453 5.0342 8.98998C 5.75927 8.70931 6.11759 7.89679 5.83796 7.17408C 4.96112 4.91615 3.87212 2.72838 2.60183 0.668319C 2.19292 0.00876055 1.32873 -0.198935 0.668296 0.20943Z" transform="translate(161.676 52.1449)"></path>
		<path fill-rule="evenodd" clip-rule="evenodd" d="M 3.45073 0.0210206C 2.67507 -0.112294 1.95843 0.40272 1.82775 1.16472C 1.44413 3.39038 0.858172 5.58657 0.0853204 7.69154C -0.180259 8.41846 0.194926 9.22536 0.922811 9.49199C 1.0816 9.54952 1.24601 9.57759 1.4062 9.57759C 1.97811 9.57759 2.51769 9.22536 2.72566 8.65562C 3.55472 6.39347 4.18424 4.0331 4.59596 1.64185C 4.72805 0.877041 4.21515 0.152932 3.45073 0.0210206Z" transform="translate(165.062 79.1142)"></path>
		<path fill-rule="evenodd" clip-rule="evenodd" d="M 8.42025 0.934595C 6.16633 0.836363 3.91241 0.533249 1.71611 0.0336689C 0.958716 -0.133326 0.206944 0.336782 0.0355112 1.09177C -0.137326 1.84815 0.337623 2.60033 1.09361 2.77293C 3.45292 3.30619 5.87545 3.63177 8.29659 3.73842C 8.31766 3.73982 8.33874 3.73982 8.35982 3.73982C 9.10738 3.73982 9.72987 3.15183 9.76219 2.39825C 9.79592 1.62362 9.19591 0.968274 8.42025 0.934595Z" transform="translate(119.848 110.4)"></path>
		<path fill-rule="evenodd" clip-rule="evenodd" d="M 6.35799 0.312323C 4.60291 1.72686 2.71013 2.98844 0.734444 4.06198C 0.0529299 4.43385 -0.200005 5.28427 0.170964 5.96487C 0.425302 6.43358 0.908682 6.69881 1.40752 6.69881C 1.63376 6.69881 1.8642 6.64408 2.07639 6.52901C 4.20243 5.37268 6.23573 4.01707 8.1229 2.49728C 8.72713 2.01033 8.82127 1.12625 8.33368 0.522822C 7.84889 -0.0792001 6.96362 -0.177434 6.35799 0.312323Z" transform="translate(147.092 102.776)"></path>
		<path fill-rule="evenodd" clip-rule="evenodd" d="M 7.80738 0.0705642C 5.66307 0.770818 3.4457 1.27881 1.21707 1.58053C 0.448437 1.68437 -0.0911565 2.39304 0.0128271 3.16066C 0.10838 3.86512 0.711201 4.37453 1.40396 4.37453C 1.46719 4.37453 1.53043 4.37032 1.59506 4.3633C 3.99231 4.03633 6.3755 3.49044 8.68 2.73686C 9.41772 2.4969 9.82101 1.70402 9.57932 0.968685C 9.33903 0.231945 8.5451 -0.172209 7.80738 0.0705642Z" transform="translate(133.809 109.441)"></path>
		<path fill-rule="evenodd" clip-rule="evenodd" d="M 8.43111 0L 1.40518 0C 0.629523 0 0 0.627282 0 1.40331C 0 2.17935 0.629523 2.80663 1.40518 2.80663L 8.43111 2.80663C 9.20677 2.80663 9.83629 2.17935 9.83629 1.40331C 9.83629 0.627282 9.20677 0 8.43111 0Z" transform="translate(44.2637 72.2708)"></path>
		<path fill-rule="evenodd" clip-rule="evenodd" d="M 8.43111 0L 1.40518 0C 0.629523 0 0 0.627282 0 1.40331C 0 2.17935 0.629523 2.80663 1.40518 2.80663L 8.43111 2.80663C 9.20677 2.80663 9.83629 2.17935 9.83629 1.40331C 9.83629 0.627282 9.20677 0 8.43111 0Z" transform="translate(58.3145 72.2708)"></path>
		<path fill-rule="evenodd" clip-rule="evenodd" d="M 4.91814 0L 1.40518 0C 0.629523 0 0 0.627282 0 1.40331C 0 2.17935 0.629523 2.80663 1.40518 2.80663L 4.91814 2.80663C 5.69381 2.80663 6.32333 2.17935 6.32333 1.40331C 6.32333 0.627282 5.69381 0 4.91814 0Z" transform="translate(33.7246 72.2708)"></path>
		<path fill-rule="evenodd" clip-rule="evenodd" d="M 8.43111 0L 1.40518 0C 0.629523 0 0 0.627282 0 1.40331C 0 2.17935 0.629523 2.80663 1.40518 2.80663L 8.43111 2.80663C 9.20677 2.80663 9.83629 2.17935 9.83629 1.40331C 9.83629 0.627282 9.20677 0 8.43111 0Z" transform="translate(0 95.4254)"></path>
		<path fill-rule="evenodd" clip-rule="evenodd" d="M 8.43111 0L 1.40518 0C 0.629523 0 0 0.627282 0 1.40331C 0 2.17935 0.629523 2.80663 1.40518 2.80663L 8.43111 2.80663C 9.20677 2.80663 9.83629 2.17935 9.83629 1.40331C 9.83629 0.627282 9.20677 0 8.43111 0Z" transform="translate(14.0527 95.4254)"></path>
		<path fill-rule="evenodd" clip-rule="evenodd" d="M 8.43111 0L 1.40518 0C 0.629523 0 0 0.627282 0 1.40331C 0 2.17935 0.629523 2.80663 1.40518 2.80663L 8.43111 2.80663C 9.20677 2.80663 9.83629 2.17935 9.83629 1.40331C 9.83629 0.627282 9.20677 0 8.43111 0Z" transform="translate(42.1562 95.4254)"></path>
		<path fill-rule="evenodd" clip-rule="evenodd" d="M 8.43111 0L 1.40518 0C 0.629523 0 0 0.627282 0 1.40331C 0 2.17935 0.629523 2.80663 1.40518 2.80663L 8.43111 2.80663C 9.20677 2.80663 9.83629 2.17935 9.83629 1.40331C 9.83629 0.627282 9.20677 0 8.43111 0Z" transform="translate(56.207 95.4254)"></path>
		<path fill-rule="evenodd" clip-rule="evenodd" d="M 8.43111 0L 1.40518 0C 0.629523 0 0 0.627282 0 1.40331C 0 2.17935 0.629523 2.80663 1.40518 2.80663L 8.43111 2.80663C 9.20677 2.80663 9.83629 2.17935 9.83629 1.40331C 9.83629 0.627282 9.20677 0 8.43111 0Z" transform="translate(28.1035 95.4254)"></path>
</symbol>
                            </svg>