<svg xmlns="http://www.w3.org/2000/svg" viewBox="0 0 48 48">
                                
                            
    <path d="M24 34.5C33.5269 34.5 41.25 26.7769 41.25 17.25C41.25 7.72309 33.5269 0 24 0C14.4731 0 6.75 7.72309 6.75 17.25C6.75 26.7769 14.4731 34.5 24 34.5Z" fill="#50E6FF"></path>
    <path d="M29.25 43.5H18.75C17.5074 43.5 16.5 44.5074 16.5 45.75C16.5 46.9926 17.5074 48 18.75 48H29.25C30.4926 48 31.5 46.9926 31.5 45.75C31.5 44.5074 30.4926 43.5 29.25 43.5Z" fill="#0078D4"></path>
    <path d="M29.25 37.5H18.75C17.5074 37.5 16.5 38.5074 16.5 39.75C16.5 40.9926 17.5074 42 18.75 42H29.25C30.4926 42 31.5 40.9926 31.5 39.75C31.5 38.5074 30.4926 37.5 29.25 37.5Z" fill="#0078D4"></path>
    <path d="M28.5 30H19.5C17.8431 30 16.5 31.3431 16.5 33C16.5 34.6569 17.8431 36 19.5 36H28.5C30.1569 36 31.5 34.6569 31.5 33C31.5 31.3431 30.1569 30 28.5 30Z" fill="#50E6FF"></path>
</svg>