<svg>
                                <symbol id="svg-azure-cli" viewBox="0 0 64 64">
  <path fill="#80bceb" d="M64,11V57H0V11A4,4,0,0,1,4,7H60A4,4,0,0,1,64,11Z"></path>
  <circle fill="414042" cx="6" cy="12" r="2"></circle>
  <circle fill="#414042" cx="12" cy="12" r="2"></circle>
  <circle fill="#414042" cx="18" cy="12" r="2"></circle>
  <path fill="#aad2f2" d="M64,11V50l-4-4L58,21,34,20,21,7H60A4,4,0,0,1,64,11Z"></path>
  <rect fill="#231f20" x="3" y="16" width="58" height="38"></rect>
  <path fill="#fff" d="M10.08,29v1.38H9.29V29A4.3,4.3,0,0,1,7,28.45V27a3.17,3.17,0,0,0,1.05.56,3.82,3.82,0,0,0,1.24.23V25a5.33,5.33,0,0,1-1.94-1.28,2.23,2.23,0,0,1-.44-1.38,2.26,2.26,0,0,1,.67-1.63,2.84,2.84,0,0,1,1.71-.83V18.74h.78v1.12a4,4,0,0,1,1.84.36v1.36A3.23,3.23,0,0,0,10.08,21v3A5.67,5.67,0,0,1,12,25.21a2.16,2.16,0,0,1-.13,2.94A3.13,3.13,0,0,1,10.08,29ZM9.3,23.59V21.06a1.34,1.34,0,0,0-.76.41,1.09,1.09,0,0,0-.28.76,1.22,1.22,0,0,0,.23.77,2.45,2.45,0,0,0,.8.59Zm.78,1.76v2.44q1.08-.23,1.08-1.12A1.42,1.42,0,0,0,10.08,25.35Z"></path>
  <path fill="#fff" d="M18.61,30.88h-5.4v-.75h5.4Z"></path>
  <polygon fill="#414042" points="61 16 61 47 30 16 61 16"></polygon>
</symbol>
                            </svg>