<svg>
                                <symbol id="svg-datacenter" viewBox="0 0 45 47.3">
  <path d="M0,47.3l4-12c0.2-0.6,0.4-1.1,0.6-1.6s0.4-0.9,0.5-1.4c0.2-0.5,0.3-0.9,0.5-1.4s0.3-1,0.4-1.6
		c0-0.1,0-0.4,0-1s0-1.3,0-2.1c0-0.8,0-1.7,0-2.7s0-1.9,0-2.7c0-0.9,0-1.6,0-2.3s0-1.1,0-1.3l9-4.5V5.3L25.5,0L36,5.3v1
		c0,0.5,0,1.1,0,1.8s0,1.5,0,2.4c0,0.9,0,1.7,0,2.6s0,1.7,0,2.6v2.3c0,0.7,0,1.2,0,1.6c0,0.2,0,0.5,0,0.7c0.2,0.8,0.4,1.6,0.6,2.4
		c0.2,0.7,0.5,1.4,0.7,2.1c0.3,0.7,0.5,1.4,0.8,2.1c0.3,0.7,0.6,1.5,0.9,2.4l6,18L0,47.3z M35,26.7l-8,4V36l-10.5,5.3l-9.7-4.8
		l-2.6,7.9h16.5l17.3-8.6L35,26.7z M9,34.1l6,3V23.4l-6-3V34.1z M16.5,15.3L11,18.1l5.5,2.7l5.5-2.7L16.5,15.3z M18,8.4v4.3l6,3
		v-4.3L18,8.4z M18,37.1l6-3V20.4l-6,3V37.1z M25.5,3.3L20,6.1l5.5,2.7L31,6.1L25.5,3.3z M33,8.4l-6,3v16l6-3V8.4z M40.8,44.3
		l-1.9-5.8l-11.6,5.8H40.8z"></path>
</symbol>
                            </svg>