<svg xmlns="http://www.w3.org/2000/svg">
                                
                             
    <path d="M30,.307A29.693,29.693,0,1,0,59.5,30,29.6,29.6,0,0,0,30,.307Zm0,5.81A23.883,23.883,0,1,1,6.273,30,23.805,23.805,0,0,1,30,6.117Z" transform="translate(-0.5 -0.307)" fill="#9adaf6"></path>
    <path d="M30,6.117A23.883,23.883,0,1,0,53.727,30,23.805,23.805,0,0,0,30,6.117Zm0,4.906A18.977,18.977,0,1,1,11.146,30,18.915,18.915,0,0,1,30,11.023Z" transform="translate(-0.5 -0.307)" fill="#1c9fe7"></path>
 </svg>