<svg>
                                <symbol id="svg-sql-database" viewBox="0 0 26 32">
    <path d="M13.0822059,16.0061091 C13.0822059,16.0061091 14.0291029,16.0061091 15.9228971,16.0061091 C17.8166912,16.0061091 19.4584765,16.4485818 20.8482529,17.3335273 C22.2380294,18.2184727 22.9329176,18.8651636 22.9329176,19.2736 L22.9329176,22.5751273 C20.5470353,21.1002182 17.4781941,20.3627636 13.7263941,20.3627636 C9.97459412,20.3627636 7.30538824,20.6265455 5.71877647,21.1541091 C4.13216471,21.6816727 2.99887059,22.1553455 2.31889412,22.5751273 L2.31889412,19.2736 C2.31889412,18.7063273 3.16588235,18.0199273 4.85985882,17.2144 C6.55383529,16.4088727 9.29461765,16.0061091 13.0822059,16.0061091 Z M22.9329176,12.7386182 L22.9329176,16.0401455 C20.6066824,14.5652364 17.5497706,13.8277818 13.7621824,13.8277818 C9.97459412,13.8277818 7.29047647,14.0887273 5.70982941,14.6106182 C4.12918235,15.1325091 2.99887059,15.6090182 2.31889412,16.0401455 L2.31889412,12.7386182 C2.31889412,12.1713455 3.16588235,11.4849455 4.85985882,10.6794182 C6.55383529,9.87389091 9.29163529,9.47112727 13.0732588,9.47112727 C16.8548824,9.47112727 19.4435647,9.9136 20.8393059,10.7985455 C22.2350471,11.6834909 22.9329176,12.3301818 22.9329176,12.7386182 Z M13.0822059,2.93614545 C13.0822059,2.93614545 14.0291029,2.93614545 15.9228971,2.93614545 C17.8166912,2.93614545 19.4584765,3.37861818 20.8482529,4.26356364 C22.2380294,5.14850909 22.9329176,5.7952 22.9329176,6.20363636 L22.9329176,9.50516364 C20.6066824,8.03025455 17.5497706,7.2928 13.7621824,7.2928 C9.97459412,7.2928 7.29047647,7.55374545 5.70982941,8.07563636 C4.12918235,8.59752727 2.99887059,9.07403636 2.31889412,9.50516364 L2.31889412,6.20363636 C2.31889412,5.63636364 3.16588235,4.94996364 4.85985882,4.14443636 C6.55383529,3.33890909 9.29461765,2.93614545 13.0822059,2.93614545 Z M2.31889412,25.8085818 C2.31889412,25.6497455 2.41432941,25.4398545 2.6052,25.1789091 C2.79607059,24.9066182 3.12711176,24.6343273 3.59832353,24.3620364 C4.06953529,24.0897455 4.60039412,23.8514909 5.1909,23.6472727 C5.78140588,23.4430545 6.41068235,23.2700364 7.07872941,23.1282182 C7.74677647,22.9864 8.41482353,22.8729455 9.08287059,22.7878545 C9.75091765,22.7027636 10.3891412,22.6403636 10.9975412,22.6006545 C11.6059412,22.5609455 12.1487294,22.5410909 12.6259059,22.5410909 C13.1030824,22.5410909 13.6458706,22.5609455 14.2542706,22.6006545 C14.8626706,22.6403636 15.7036941,22.7282909 16.7773412,22.8644364 C17.8509882,23.0005818 19.0528765,23.2984 20.3830059,23.7578909 C21.7131353,24.2173818 22.4706529,24.6513455 22.6555588,25.0597818 C22.8404647,25.4682182 22.9329176,25.7518545 22.9329176,25.9106909 C22.9329176,26.2510545 22.2350471,26.8637091 20.8393059,27.7486545 C19.4435647,28.6336 16.7027824,29.0760727 12.6169588,29.0760727 C8.53113529,29.0760727 5.79333529,28.6336 4.40355882,27.7486545 C3.01378235,26.8637091 2.31889412,26.2170182 2.31889412,25.8085818 Z M7.27556471,30.7778909 C7.27556471,30.7778909 7.64537647,30.8573091 8.385,31.0161455 C9.12462353,31.1749818 10.5382588,31.2544 12.6259059,31.2544 C14.7135529,31.2544 17.0427706,30.9792727 19.6135588,30.4290182 C22.1843471,29.8787636 23.7620118,29.0987636 24.3465529,28.0890182 C24.9310941,27.0792727 25.2233647,26.3191273 25.2233647,25.8085818 L25.2233647,6.20363636 C25.2233647,5.31869091 24.8595176,4.53585455 24.1318235,3.85512727 C23.4041294,3.18574545 22.5660882,2.66101818 21.6177,2.28094545 C20.6693118,1.90087273 19.6672412,1.59738182 18.6114882,1.37047273 C17.5557353,1.14356364 16.5029647,0.984727273 15.4531765,0.893963636 C14.4033882,0.8032 13.1478176,0.757818182 11.6864647,0.757818182 C10.2251118,0.757818182 8.20904118,1.03294545 5.63825294,1.5832 C3.06746471,2.13345455 1.4898,2.91345455 0.905258824,3.9232 C0.320717647,4.93294545 0.0284470588,5.69309091 0.0284470588,6.20363636 L0.0284470588,25.8085818 C0.0284470588,26.6935273 0.392294118,27.4763636 1.11998824,28.1570909 C1.84768235,28.8264727 2.68572353,29.3512 3.63411176,29.7312727 C4.5825,30.1113455 5.79631765,30.4602182 7.27556471,30.7778909 Z" transform="translate(12.625906, 16.006109) scale(-1, 1) rotate(-180.000000) translate(-12.625906, -16.006109) "></path>
</symbol>
                            </svg>