<svg>
                                <symbol id="svg-pencil" viewBox="0 0 41 41">
    <rect width="41" height="41" fill-opacity="0"></rect>
    <path d="M35.835 30.8901C33.8997 31.3172 32.6252 32.098 32.0112 33.2324C31.3973 34.3669 31.0236 35.2344 30.8901 35.835L37.4766 37.4766L35.835 30.8901ZM28.5879 34.4736C29.055 33.0589 29.7991 31.8411 30.8201 30.8201C31.8411 29.7991 33.0589 29.055 34.4736 28.5879L12.8125 6.94678L6.94678 12.8125L28.5879 34.4736ZM3.7937 3.7937C3.7937 3.7937 3.5885 3.9989 3.1781 4.4093C2.7677 4.8197 2.5625 5.61214 2.5625 6.78662C2.5625 7.9611 3.09635 9.04883 4.16406 10.0498L5.125 10.9907L10.9907 5.125L10.0498 4.16406C9.7028 3.81706 9.28239 3.46338 8.78857 3.10303C8.29476 2.74267 7.6875 2.5625 6.9668 2.5625C5.6722 2.5625 4.6145 2.9729 3.7937 3.7937ZM1.96191 11.4712C0.653971 10.1632 0 8.58171 0 6.72656C0 4.85807 0.653971 3.26985 1.96191 1.96191C3.26986 0.653971 4.85807 -9.62957e-07 6.72656 -9.62957e-07C8.58171 -9.62957e-07 10.1632 0.653971 11.4712 1.96191L37.8369 28.3276L41 41L28.3276 37.8369L1.96191 11.4712Z"></path>
</symbol>
                            </svg>