<svg xmlns="http://www.w3.org/2000/svg" viewBox="0 0 32 32">
                                
                            
    <path fill="#00ABEC" d="M26,12.958V30H3.953V2H26v4.957l2-1.625V0H1.953v4.016H0v2h1.953v4H0v2h1.953v8H0v2.016h1.953v4H0v2h1.953 V32H28V11.167L26,12.958z"></path>
    <path fill="#00ABEC" d="M32,7.125c0,0.417-0.081,0.815-0.242,1.195c-0.162,0.38-0.389,0.716-0.68,1.008L15.891,24.531L10,26 l1.469-5.891L26.672,4.922c0.291-0.292,0.627-0.518,1.008-0.68C28.06,4.081,28.458,4,28.875,4c0.427,0,0.83,0.083,1.211,0.25 c0.38,0.167,0.711,0.391,0.992,0.672s0.505,0.612,0.672,0.992C31.916,6.294,32,6.698,32,7.125z M14.859,22.719L29.672,7.906 C29.891,7.688,30,7.427,30,7.125c0-0.313-0.109-0.578-0.328-0.797S29.188,6,28.875,6c-0.303,0-0.563,0.109-0.781,0.328 L13.281,21.141L12.75,23.25L14.859,22.719z"></path>
</svg>