<svg xmlns="http://www.w3.org/2000/svg">
                                
                            
    <path fill="#0072c6" d="M48.6,21.7L28.3,1.4C27.4,0.5,26.2,0,25,0c-1.2,0-2.4,0.5-3.3,1.4L1.4,21.7C0.5,22.6,0,23.8,0,25 c0,1.2,0.5,2.4,1.4,3.3l20.4,20.4c0.9,0.9,2,1.4,3.3,1.4c1.2,0,2.4-0.5,3.3-1.4l20.4-20.4c0.9-0.9,1.4-2,1.4-3.3 C50,23.8,49.5,22.6,48.6,21.7z M25,4.8l6.6,6.6H27V21h-3.9v-9.6h-4.7L25,4.8z M6.4,27.4v-3.9h9v-4.7l6.6,6.6L15.4,32v-4.6H6.4z M25,46l-6.6-6.6H23V30h3.9v9.4h4.7L25,46z M43.6,27.4h-8.9v4.7l-6.6-6.6l6.6-6.6v4.6h8.9V27.4z"></path>
</svg>