<svg>
                                <symbol id="svg-bing-video-search-api" viewBox="0 0 512 512">
    <g stroke="none" stroke-width="1" fill-rule="evenodd" fill="#0063B1" transform="translate(73.000000, 142.000000)">
        <path d="M296.777778,0.222222222 L296.777778,227.777778 L166.297422,227.777778 C169.039467,220.626844 170.774578,212.992356 171.332089,205.022222 L274.022222,205.022222 L274.022222,22.9777778 L91.9777778,22.9777778 L91.9777778,119.688889 C84.0645333,119.688889 76.4414222,120.883556 69.2222222,123.033956 L69.2222222,0.222222222 L296.777778,0.222222222 Z M224.572124,114 L154.55328,159.511111 L154.55328,68.4888889 L224.572124,114 Z"></path>
        <path d="M58.4497422,199.333333 C58.4497422,180.668089 73.4911644,165.592533 91.9800533,165.592533 C110.468942,165.592533 125.504676,180.668089 125.504676,199.333333 C125.504676,218.004267 110.468942,233.079822 91.9800533,233.079822 C73.4911644,233.079822 58.4497422,218.004267 58.4497422,199.333333 M35.0911644,199.333333 C35.0911644,210.824889 38.5215644,221.502933 44.38112,230.445867 L0.957831111,273.880533 L17.0516978,289.968711 L60.3782756,246.636444 C69.41792,252.683733 80.2780089,256.222222 91.9800533,256.222222 C123.428231,256.222222 148.868942,230.724622 148.868942,199.333333 C148.868942,167.947733 123.428231,142.444444 91.9800533,142.444444 C60.5261867,142.444444 35.0911644,167.947733 35.0911644,199.333333"></path>
    </g>
</symbol>
                            </svg>