<svg xmlns="http://www.w3.org/2000/svg">
                                
                            
    <path d="M36.885,110.7a8.811,8.811,0,0,1-6.947-3.361L3.793,74.849a8.77,8.77,0,0,1-1.718-7.619l9.337-40.562a8.837,8.837,0,0,1,4.855-6.051L54.066,2.54a8.864,8.864,0,0,1,7.769,0l37.8,18a8.837,8.837,0,0,1,4.855,6.051l9.337,40.562a9.011,9.011,0,0,1-1.718,7.619L85.963,107.268a9.043,9.043,0,0,1-6.947,3.361l-42.13.075Z" fill="#326de6"></path>
    <path d="M57.876,3.511a7.307,7.307,0,0,1,3.063.672l37.8,18a7.254,7.254,0,0,1,3.884,4.855L111.958,67.6a6.985,6.985,0,0,1-1.419,6.125L84.394,106.222a7.116,7.116,0,0,1-5.6,2.689H36.885a7.116,7.116,0,0,1-5.6-2.689L5.138,73.728A7.479,7.479,0,0,1,3.719,67.6l9.337-40.562a7.133,7.133,0,0,1,3.884-4.855l37.8-18.077a9,9,0,0,1,3.137-.6Zm0-3.511h0a11.3,11.3,0,0,0-4.631,1.046l-37.8,18.077A10.579,10.579,0,0,0,9.62,26.369L.283,66.931a10.592,10.592,0,0,0,2.092,9.113l26.145,32.494A10.552,10.552,0,0,0,36.81,112.5H78.717a10.552,10.552,0,0,0,8.292-3.959l26.145-32.494a10.537,10.537,0,0,0,2.092-9.113l-9.337-40.562a10.579,10.579,0,0,0-5.827-7.246L62.432,1.046A10.708,10.708,0,0,0,57.876,0Z" fill="#fff"></path>
    <path d="M95.748,64.391h-.075c-.075,0-.149,0-.149-.075-.149,0-.3-.075-.448-.075a10.207,10.207,0,0,0-1.419-.149,2.8,2.8,0,0,1-.747-.075h-.075a19.716,19.716,0,0,1-4.034-.672,1.455,1.455,0,0,1-.822-.822c0-.075-.075-.075-.075-.149h0l-.971-.3a29.547,29.547,0,0,0-.523-10.533,30.779,30.779,0,0,0-4.183-9.786l.747-.672v-.149a1.688,1.688,0,0,1,.374-1.12A21.791,21.791,0,0,1,86.71,37.5h0c.224-.149.448-.224.672-.373a11.245,11.245,0,0,0,1.27-.747c.075-.075.224-.149.373-.3.075-.075.149-.075.149-.149h0a2.5,2.5,0,0,0,.523-3.361,2.125,2.125,0,0,0-1.718-.822,2.776,2.776,0,0,0-1.643.6h0l-.149.149c-.149.075-.224.224-.373.3a12.4,12.4,0,0,0-.971,1.046,3.451,3.451,0,0,1-.523.523h0a18.992,18.992,0,0,1-2.988,2.689,1.2,1.2,0,0,1-.672.224.947.947,0,0,1-.448-.075h-.149l-.9.6A36.276,36.276,0,0,0,76.1,34.959a29.832,29.832,0,0,0-15.612-6.2l-.075-.971-.149-.149a1.561,1.561,0,0,1-.6-.971,26.212,26.212,0,0,1,.224-4.034v-.075a2.654,2.654,0,0,1,.149-.747c.075-.448.149-.9.224-1.419v-.672h0A2.279,2.279,0,0,0,56.307,18a2.366,2.366,0,0,0-.672,1.718h0v.6a4.349,4.349,0,0,0,.224,1.419c.075.224.075.448.149.747v.075a19.3,19.3,0,0,1,.224,4.034,1.561,1.561,0,0,1-.6.971l-.149.149h0l-.075.971a37.533,37.533,0,0,0-4.034.6,28.8,28.8,0,0,0-14.79,8.366l-.747-.523H35.69c-.149,0-.3.075-.448.075a1.2,1.2,0,0,1-.672-.224,19.809,19.809,0,0,1-2.988-2.764h0a3.451,3.451,0,0,0-.523-.523,12.4,12.4,0,0,0-.971-1.046c-.075-.075-.224-.149-.373-.3-.075-.075-.149-.075-.149-.149h0a2.61,2.61,0,0,0-1.643-.6,2.125,2.125,0,0,0-1.718.822,2.5,2.5,0,0,0,.523,3.361h0c.075,0,.075.075.149.075.149.075.224.224.373.3a11.245,11.245,0,0,0,1.27.747,3.028,3.028,0,0,1,.672.373h0a21.791,21.791,0,0,1,3.361,2.316,1.372,1.372,0,0,1,.373,1.12v.149h0l.747.672a2.621,2.621,0,0,0-.373.6,29.093,29.093,0,0,0-4.183,19.721l-.971.3c0,.075-.075.075-.075.149a1.737,1.737,0,0,1-.822.822,18.865,18.865,0,0,1-4.034.672h-.075a2.541,2.541,0,0,0-.747.075,10.207,10.207,0,0,0-1.419.149c-.149,0-.3.075-.448.075a.274.274,0,0,0-.224.075h0a2.45,2.45,0,0,0-1.942,2.764,2.3,2.3,0,0,0,2.39,1.718,1.645,1.645,0,0,0,.6-.075h0c.075,0,.149,0,.149-.075.149,0,.3-.075.448-.075A7.19,7.19,0,0,0,23.29,67.9c.224-.075.448-.224.672-.3h.075a18.35,18.35,0,0,1,3.884-1.12h.149a1.663,1.663,0,0,1,.971.373c.075,0,.075.075.149.075h0l1.046-.149a29.544,29.544,0,0,0,9.786,14.043,30.239,30.239,0,0,0,3.212,2.166l-.448.971c0,.075.075.075.075.149a1.534,1.534,0,0,1,.149,1.2,21.061,21.061,0,0,1-1.942,3.511v.075c-.149.224-.3.373-.448.6-.3.373-.523.747-.822,1.2a1.633,1.633,0,0,0-.224.373.261.261,0,0,1-.075.149h0a2.363,2.363,0,0,0,.971,3.212,1.989,1.989,0,0,0,.9.224,2.686,2.686,0,0,0,2.241-1.419h0a.261.261,0,0,1,.075-.149,1.633,1.633,0,0,1,.224-.373,14.147,14.147,0,0,0,.448-1.345l.224-.672h0a17.555,17.555,0,0,1,1.569-3.735,1.918,1.918,0,0,1,.971-.672c.075,0,.075,0,.149-.075h0l.523-.971a29.185,29.185,0,0,0,10.458,1.942,27.114,27.114,0,0,0,6.5-.747,33.2,33.2,0,0,0,3.884-1.12l.448.822c.075,0,.075,0,.149.075a1.385,1.385,0,0,1,.971.672A25.574,25.574,0,0,1,71.77,90.61v.075l.224.672a9.461,9.461,0,0,0,.448,1.345c.075.149.149.224.224.373a.261.261,0,0,0,.075.149h0a2.538,2.538,0,0,0,2.241,1.419,1.989,1.989,0,0,0,.9-.224A2.225,2.225,0,0,0,77,93.075a2.7,2.7,0,0,0-.149-1.867h0c0-.075-.075-.075-.075-.149a1.633,1.633,0,0,0-.224-.373,6.769,6.769,0,0,0-.822-1.2c-.149-.224-.3-.373-.448-.6v-.075a16.766,16.766,0,0,1-1.942-3.511,2.081,2.081,0,0,1,.075-1.2c0-.075.075-.075.075-.149h0l-.373-.9a29.635,29.635,0,0,0,13-16.359l.9.149c.075,0,.075-.075.149-.075a1.9,1.9,0,0,1,.971-.373h.149a18.35,18.35,0,0,1,3.884,1.12h.075c.224.075.448.224.672.3a7.19,7.19,0,0,0,1.345.523c.149,0,.3.075.448.075a.274.274,0,0,1,.224.075h0a1.645,1.645,0,0,0,.6.075,2.514,2.514,0,0,0,2.39-1.718,2.875,2.875,0,0,0-2.166-2.465Zm-34.586-3.66L57.876,62.3l-3.287-1.569-.822-3.511,2.241-2.839h3.66l2.241,2.839-.747,3.511Zm19.5-7.769a23.554,23.554,0,0,1,.523,7.545L69.753,57.22a2.025,2.025,0,0,1-1.419-2.39,1.781,1.781,0,0,1,.448-.822l9.039-8.142a23.934,23.934,0,0,1,2.839,7.1ZM74.235,41.383,64.449,48.33a1.989,1.989,0,0,1-2.614-.448,1.658,1.658,0,0,1-.373-.822l-.672-12.176a22.673,22.673,0,0,1,13.446,6.5ZM52.572,35.258c.822-.149,1.569-.3,2.39-.448L54.29,46.762A2.044,2.044,0,0,1,52.273,48.7a1.774,1.774,0,0,1-.9-.224l-9.935-7.1a22.788,22.788,0,0,1,11.13-6.125ZM37.856,45.865l8.889,7.918a1.989,1.989,0,0,1,.224,2.764,1.487,1.487,0,0,1-.9.6L34.495,60.506a24.047,24.047,0,0,1,3.361-14.641ZM35.839,66.109l11.877-2.017a2.014,2.014,0,0,1,2.092,1.569,2.134,2.134,0,0,1-.075,1.2h0L45.177,77.837a23.545,23.545,0,0,1-9.337-11.728ZM63.1,80.974a24.4,24.4,0,0,1-5.229.6,25.309,25.309,0,0,1-7.545-1.2l5.9-10.682a1.961,1.961,0,0,1,2.39-.523,3.184,3.184,0,0,1,.9.822h0l5.752,10.383c-.672.224-1.419.373-2.166.6ZM77.671,70.591A23.708,23.708,0,0,1,70.5,77.837l-4.706-11.28a2.011,2.011,0,0,1,1.046-2.316,2.386,2.386,0,0,1,1.046-.224l11.952,2.017a15.033,15.033,0,0,1-2.166,4.557Z" fill="#fff"></path>
</svg>