<svg xmlns="http://www.w3.org/2000/svg">
                                
                            
    <path fill="#1372B8" d="M45.26,20.129c-0.332,0-0.655,0.035-0.968,0.1c-1.205-3.091-3.559-5.598-6.54-7.009 c0.025-0.196,0.042-0.394,0.042-0.596c0-2.618-2.122-4.739-4.74-4.739c-1.109,0-2.127,0.384-2.935,1.023v3.243v2.262v1.928 c0.808,0.639,1.826,1.023,2.935,1.023c1.617,0,3.043-0.811,3.898-2.047c2.443,1.205,4.355,3.306,5.314,5.88 c-1.065,0.869-1.745,2.191-1.745,3.672c0,1.498,0.697,2.832,1.782,3.701c-0.945,2.621-2.876,4.762-5.351,5.984 c-0.856-1.236-2.282-2.047-3.899-2.047c-1.109,0-2.127,0.384-2.935,1.022v1.929v2.261v3.244c0.807,0.639,1.826,1.023,2.935,1.023 c2.618,0,4.74-2.122,4.74-4.74c0-0.202-0.017-0.4-0.041-0.596c3.02-1.43,5.394-3.986,6.585-7.132 c0.299,0.059,0.607,0.091,0.923,0.091c2.618,0,4.74-2.122,4.74-4.74C50,22.251,47.878,20.129,45.26,20.129z"></path>
    <path fill="#1372B8" d="M0,6.567v36.867l27.518,5.003V1.564L0,6.567z M15.564,34.211c-2.244,1.628-5.183,0.94-7.545-0.032 c-0.031-1.375-0.063-2.749-0.11-4.131c1.517,1.122,3.76,2.773,5.569,1.24c1.399-2.346-1.35-3.84-2.939-4.977 c-3.412-2.062-3.539-7.702-0.229-9.907c1.936-1.224,4.298-0.837,6.431-0.538c0.031,1.296,0.063,2.6,0.094,3.895 c-1.777-0.561-4.044-1.69-5.506,0.118c-1.019,2.663,2.204,3.666,3.761,5.056C18.132,26.904,18.392,31.96,15.564,34.211z"></path>
</svg>