<svg xmlns="http://www.w3.org/2000/svg" viewBox="0 0 32 32">
                                
                            
    <path fill="#00AAEB" d="M28,8v20c0,0.552-0.107,1.07-0.32,1.555c-0.214,0.484-0.5,0.906-0.859,1.266s-0.784,0.646-1.273,0.859 C25.057,31.894,24.541,32,24,32H6c-0.553,0-1.07-0.106-1.555-0.32s-0.906-0.5-1.266-0.859s-0.646-0.781-0.859-1.266 C2.106,29.07,2,28.552,2,28V8h4V6c0-0.823,0.158-1.599,0.477-2.328c0.317-0.729,0.747-1.364,1.289-1.906 c0.541-0.542,1.177-0.971,1.906-1.289C10.4,0.159,11.177,0,12,0c1.083,0,2.088,0.271,3.016,0.813C15.942,0.271,16.938,0,18,0 c0.822,0,1.599,0.159,2.328,0.477c0.729,0.318,1.364,0.748,1.906,1.289c0.541,0.542,0.971,1.177,1.289,1.906 C23.841,4.401,24,5.177,24,6v2H28z M20.531,30C20.177,29.375,20,28.708,20,28V10H4v18c0,0.281,0.052,0.542,0.156,0.781 c0.104,0.239,0.247,0.45,0.43,0.633c0.182,0.183,0.393,0.325,0.633,0.43C5.458,29.948,5.719,30,6,30H20.531z M8,8h8V6 c0-0.542-0.107-1.057-0.32-1.547c-0.214-0.489-0.5-0.914-0.859-1.273s-0.784-0.646-1.273-0.859C13.057,2.107,12.541,2,12,2 c-0.553,0-1.07,0.107-1.555,0.32C9.961,2.534,9.539,2.82,9.18,3.18S8.533,3.964,8.32,4.453C8.106,4.943,8,5.458,8,6V8z M22,6 c0-0.542-0.107-1.057-0.32-1.547c-0.214-0.489-0.5-0.914-0.859-1.273s-0.784-0.646-1.273-0.859C19.057,2.107,18.541,2,18,2 c-0.469,0-0.912,0.078-1.328,0.234c0.375,0.469,0.656,0.927,0.844,1.375c0.188,0.448,0.314,0.901,0.383,1.359 C17.966,5.427,18,5.904,18,6.398C18,6.894,18,7.427,18,8h4V6z M26,10h-4v18c0,0.281,0.052,0.542,0.156,0.781 c0.104,0.239,0.247,0.45,0.43,0.633c0.182,0.183,0.393,0.325,0.633,0.43C23.458,29.948,23.719,30,24,30s0.541-0.052,0.781-0.156 c0.239-0.104,0.45-0.247,0.633-0.43c0.182-0.183,0.325-0.394,0.43-0.633C25.947,28.542,26,28.281,26,28V10z"></path>
</svg>