<svg xmlns="http://www.w3.org/2000/svg">
                                
                            
    <path fill="#027DCD" transform="translate(-772, 1054) scale(1, -1)" d="M818,1049.34326 L818,1014.48575 L803.62837,1014.48575 C802.495897,1014.48575 801.579132,1014.3042 800.878077,1013.9411 C800.177022,1013.578 799.54787,1013.17859 798.990621,1012.74288 C798.433372,1012.30716 797.858148,1011.90775 797.264947,1011.54465 C796.671747,1011.18155 795.916764,1011 795,1011 C794.083236,1011 793.328253,1011.18155 792.735053,1011.54465 C792.141852,1011.90775 791.566628,1012.30716 791.009379,1012.74288 C790.45213,1013.17859 789.822978,1013.578 789.121923,1013.9411 C788.420868,1014.3042 787.504103,1014.48575 786.37163,1014.48575 L772,1014.48575 L772,1049.34326 L776.583822,1049.34326 L776.583822,1052.82901 L782.354045,1052.82901 L782.354045,1054 L791.548652,1054 L791.548652,1052.72008 C792.231731,1052.57484 792.874365,1052.31159 793.476553,1051.93034 C794.078742,1051.54908 794.586557,1051.07705 795,1050.51425 C795.539273,1051.2586 796.213365,1051.83048 797.022274,1052.22989 C797.831184,1052.6293 798.694021,1052.82901 799.610785,1052.82901 L813.416178,1052.82901 L813.416178,1049.34326 L818,1049.34326 L818,1049.34326 Z M799.775626,1050.47541 C799.300077,1050.47541 798.859753,1050.38438 798.454655,1050.20233 C798.049557,1050.02028 797.692895,1049.76996 797.384668,1049.45137 C797.076441,1049.13278 796.834263,1048.76413 796.658134,1048.34541 C796.482004,1047.9267 796.393939,1047.47157 796.393939,1046.98003 L796.393939,1020.16393 C797.802976,1020.94675 799.300077,1021.33816 800.885242,1021.33816 L811.030303,1021.33816 L811.030303,1050.47541 L799.775626,1050.47541 L799.775626,1050.47541 Z M784.545455,1042.72131 L786.970583,1043.8906 L789.424242,1042.72131 L789.424242,1051.88525 L784.545455,1051.88525 L784.545455,1042.72131 L784.545455,1042.72131 Z M778.969697,1021.33816 L789.114758,1021.33816 C790.699923,1021.33816 792.197024,1020.94675 793.606061,1020.16393 L793.606061,1046.98003 C793.606061,1047.72644 793.399108,1048.40003 792.985204,1049.0008 C792.5713,1049.60157 792.029701,1050.02939 791.360409,1050.28426 L791.360409,1038.67851 L786.842687,1041.02697 L782.351384,1038.67851 L782.351384,1050.47541 L778.969697,1050.47541 L778.969697,1021.33816 L778.969697,1021.33816 Z M815.212121,1046.95082 L812.936533,1046.95082 L812.936533,1018.96364 L800.353871,1018.96364 C799.7292,1018.96364 799.158072,1018.89986 798.640487,1018.77232 C798.122902,1018.64477 797.641013,1018.45801 797.194819,1018.21203 C796.748626,1017.96605 796.32028,1017.67451 795.909781,1017.33743 C795.499283,1017.00034 795.079861,1016.61315 794.651515,1016.17585 C794.223169,1016.61315 793.803747,1017.00034 793.393249,1017.33743 C792.982751,1017.67451 792.554405,1017.96605 792.108211,1018.21203 C791.662017,1018.45801 791.180128,1018.64477 790.662543,1018.77232 C790.144959,1018.89986 789.573831,1018.96364 788.94916,1018.96364 L776.366497,1018.96364 L776.366497,1046.95082 L774.090909,1046.95082 L774.090909,1016.64048 L786.084596,1016.64048 C787.369634,1016.64048 788.538661,1016.41272 789.591679,1015.9572 C790.644696,1015.50168 791.64417,1014.83662 792.5901,1013.96202 C793.196924,1013.39718 793.884062,1013.11475 794.651515,1013.11475 C795.418968,1013.11475 796.106107,1013.39718 796.71293,1013.96202 C797.658861,1014.83662 798.658335,1015.50168 799.711352,1015.9572 C800.764369,1016.41272 801.933396,1016.64048 803.218434,1016.64048 L815.212121,1016.64048 L815.212121,1046.95082 Z"></path>
</svg>