<svg>
                                <symbol id="svg-machine-learning-mono" viewBox="0 0 24 24">
  <path d="M23.619,21.336L16,7.453V1h2V0H6v1h2v6.453L0.368,21.336C-0.496,22.776,0.224,24,1.879,24h20.228 C23.835,24,24.483,22.848,23.619,21.336z M1.045,22.709c-0.1-0.177-0.031-0.506,0.199-0.891L8.876,7.935L9,7.71V7.453V1h6v6.453 V7.71l0.123,0.225L17.903,13H10L4.55,23H1.879C1.467,23,1.147,22.888,1.045,22.709z M22.964,22.744 C22.89,22.872,22.596,23,22.107,23H5.689l4.905-9h7.858l4.299,7.832C23.005,22.277,23.041,22.611,22.964,22.744z"></path>
</symbol>
                            </svg>