<svg xmlns="http://www.w3.org/2000/svg">
                                
                            
	<g fill="none">
		<path d="M 29.785 128.948L 186.942 128.948C 208.046 125.491 224.061 107.156 224.061 84.9133C 224.061 60.2659 204.154 40.2775 179.608 40.2775C 174.818 40.2775 170.328 41.0289 165.988 42.3815C 157.007 17.7341 133.359 2.86654e-07 105.669 2.86654e-07C 72.4418 2.86654e-07 45.2013 25.2486 41.7588 57.5607C 39.8131 57.2601 38.017 57.1098 36.0712 57.1098C 16.1647 57.1098 -3.56849e-08 73.341 -3.56849e-08 93.3295C 0.149673 111.214 13.0216 125.942 29.785 128.948Z" stroke-width="3" stroke-miterlimit="10" transform="translate(2 12.7227)" stroke="#00A2F2"></path>
		<path opacity="0.2" d="M 80.0752 43.8844L 80.0752 34.5665L 79.6261 34.1156L 70.0471 30.9595L 67.6523 24.3468L 72.4418 14.578L 72.8909 13.526L 69.8974 10.5202L 66.3052 6.91329L 65.1078 7.51445L 55.6784 12.3237L 49.2425 10.5202L 45.2013 -5.73307e-07L 35.9216 -5.73307e-07L 35.4726 0.450868L 32.3294 10.0694L 25.8935 12.474L 15.117 7.21387L 8.53137 13.8266L 9.13007 15.0289L 13.9196 24.3468L 11.2255 30.8093L -1.14192e-06 34.8671L -1.14192e-06 44.185L 1.34706 44.6358L 11.2255 47.9422L 13.9196 54.4046L 8.83072 65.2254L 15.4163 71.8381L 16.6137 71.237L 25.8935 66.4277L 32.3294 69.1329L 36.3706 80.4046L 45.6503 80.4046L 46.0993 79.052L 49.3922 69.1329L 55.6784 66.4277L 66.6046 71.5376L 73.1902 64.9249L 72.5915 63.7225L 67.802 54.4046L 69.598 47.9422L 80.0752 43.8844ZM 40.8608 52.6012C 33.6765 52.6012 27.8392 46.7399 27.8392 39.526C 27.8392 32.3121 33.6765 26.4509 40.8608 26.4509C 48.0451 26.4509 53.8824 32.3121 53.8824 39.526C 53.8824 46.7399 48.0451 52.6012 40.8608 52.6012Z" transform="translate(68.455 41.4277)" fill="#22A6FF"></path>
		<path opacity="0.2" d="M 45.2013 29.7572L 46.249 24.4971L 45.9497 24.1965L 41.0105 21.341L 40.4118 17.4335L 44.1536 12.474L 44.6026 11.8728L 43.2556 9.91907L 41.6091 7.51445L 41.0105 7.51445L 35.1732 9.16763L 31.7307 7.36416L 30.683 1.05202L 25.4444 0L 25.1451 0.150287L 22.3013 5.10983L 18.4098 5.71098L 12.8719 1.50289L 8.3817 4.50867L 8.53138 5.26012L 10.1778 11.1214L 7.93268 14.4277L 1.04772 15.4798L -2.28383e-06 20.7399L 0.598693 21.0405L 5.83726 24.0462L 6.58562 27.9538L 2.39477 33.5145L 5.38823 38.0231L 6.1366 37.8728L 11.9739 36.2196L 15.2667 38.474L 16.3144 45.3873L 21.5529 46.4393L 21.8523 45.6879L 24.8457 40.4277L 28.7373 39.6763L 34.2752 43.8844L 38.7654 40.8786L 38.6157 40.1272L 36.9693 34.2659L 38.7654 30.8092L 45.2013 29.7572ZM 22.1516 30.0578C 18.1105 29.1561 15.4163 25.2486 16.3144 21.1907C 17.2124 17.1329 21.1039 14.4277 25.1451 15.3295C 29.1863 16.2312 31.8804 20.1387 30.9824 24.1965C 30.0843 28.2543 26.1928 30.9595 22.1516 30.0578Z" transform="translate(157.959 74.6416)" fill="#22A6FF"></path>
		<path opacity="0.2" d="M 28.7373 30.659L 31.4314 27.6532L 31.4314 27.3526L 29.336 23.5954L 30.3837 20.8902L 34.7242 19.237L 35.1732 19.0867L 35.1732 17.2832L 35.1732 15.0289L 34.5745 14.8786L 30.234 13.6763L 28.7373 11.2717L 30.5333 6.76301L 27.6895 4.0578L 27.3902 4.0578L 23.6484 6.16185L 20.9542 4.95954L 19.0085 0L 14.9673 0.150287L 14.8176 0.751445L 13.6203 5.10983L 10.9261 6.31214L 6.1366 4.20809L 3.44248 7.21388L 3.74183 7.66474L 5.83726 11.5722L 4.78954 14.4277L -1.14192e-06 16.3815L 0.149673 20.4393L 0.748365 20.5896L 5.08889 21.7919L 6.28627 24.4971L 4.34052 29.3064L 7.33399 32.0116L 7.78301 31.711L 11.6745 29.6069L 14.5183 30.659L 16.4641 35.4682L 20.5052 35.3179L 20.6549 34.7168L 21.8523 30.3584L 24.3967 28.8555L 28.7373 30.659ZM 13.9196 21.7919C 11.6745 19.6879 11.5248 16.0809 13.6203 13.8266C 15.7157 11.5722 19.3078 11.422 21.5529 13.526C 23.798 15.6301 23.9477 19.237 21.8523 21.4913C 19.7569 23.7457 16.1647 23.896 13.9196 21.7919Z" transform="translate(24.3013 88.9191)" fill="#22A6FF"></path>
		<path opacity="0.2" d="M 56.7261 0C 56.7261 0 11.9739 4.20809 0 47.4913" stroke-width="2" stroke-miterlimit="20" stroke-linecap="round" stroke-dasharray="5 5" transform="translate(35.0778 1)" stroke="#22A6FF"></path>
		<path opacity="0.2" d="M 49.8412 -2.29323e-06C 49.8412 -2.29323e-06 38.466 25.0983 -2.28383e-06 25.0983" stroke-width="2" stroke-miterlimit="20" stroke-linecap="round" stroke-dasharray="5 5" transform="translate(181.159 131.902)" stroke="#22A6FF"></path>
	</g>
</svg>