<svg>
                                <symbol id="svg-ai-models" viewBox="0 0 187 120">
  <path fill-rule="evenodd" clip-rule="evenodd" d="M73.339 27.742C72.623 27.742 71.925 27.816 71.248 27.947C71.358 26.994 71.42 26.027 71.42 25.044C71.42 11.213 60.208 0 46.377 0C35.485 0 26.222 6.955 22.775 16.665C20.982 16.025 19.06 15.658 17.048 15.658C7.632 15.658 0 23.291 0 32.706C0 42.122 7.632 49.754 17.048 49.754H73.339C79.417 49.754 84.345 44.827 84.345 38.748C84.345 32.67 79.417 27.742 73.339 27.742Z" transform="translate(0 60.3245)" fill="#ACD1EF"></path>
  <path fill-rule="evenodd" clip-rule="evenodd" d="M73.339 27.742C72.623 27.742 71.925 27.816 71.248 27.947C71.358 26.994 71.42 26.027 71.42 25.044C71.42 11.213 60.208 0 46.377 0C35.485 0 26.222 6.955 22.775 16.665C20.982 16.025 19.06 15.658 17.048 15.658C7.632 15.658 0 23.291 0 32.706C0 42.122 7.632 49.754 17.048 49.754H73.339C79.417 49.754 84.345 44.827 84.345 38.748C84.345 32.67 79.417 27.742 73.339 27.742Z" transform="translate(102 21.3245)" fill="#ACD1EF"></path>
  <path fill-rule="evenodd" clip-rule="evenodd" d="M16 16.5L43.5 0.375L56.125 8.375L69.5 0L96.375 16.875L96.125 36L112.5 45.375V74.375L96.25 83.125V99.125L67.375 115.75L56 107.5L45.375 115.75L16.375 98.625L16.125 83.25L0.625 73.75L0 45.875L16.125 35.875L16 16.5Z" transform="translate(37.2422 1.61243)" fill="white"></path>
  <path fill-rule="evenodd" clip-rule="evenodd" d="M11.241 79.4978C10.764 80.0818 10.089 80.4448 9.339 80.5208C7.78 80.6788 6.402 79.5468 6.246 77.9978C6.089 76.4488 7.22001 75.0608 8.769 74.9048C8.866 74.8948 8.962 74.8908 9.056 74.8908C10.486 74.8908 11.715 75.9768 11.862 77.4288C11.938 78.1788 11.718 78.9138 11.241 79.4978ZM9.339 7.63379C8.582 7.71079 7.853 7.4888 7.269 7.0128C6.685 6.5358 6.322 5.8598 6.246 5.1098C6.17 4.3598 6.39 3.6258 6.867 3.0408C7.344 2.4568 8.019 2.09379 8.769 2.01779C8.866 2.00779 8.962 2.0028 9.056 2.0028C10.486 2.0028 11.715 3.0888 11.862 4.5408C12.019 6.0898 10.887 7.47679 9.339 7.63379ZM11.658 73.6818H12.166V59.2118C12.166 58.9638 12.044 58.7318 11.839 58.5928L1.5 51.5348V35.6698L11.832 28.7888C12.041 28.6498 12.166 28.4158 12.166 28.1648V8.50379C13.336 7.51079 14.018 5.9788 13.852 4.3398C13.583 1.6938 11.212 -0.253204 8.568 0.0267957C7.286 0.156796 6.132 0.777796 5.317 1.7768C4.503 2.7748 4.126 4.02979 4.256 5.31079C4.386 6.59379 5.007 7.7478 6.005 8.5618C6.874 9.27079 7.938 9.6478 9.045 9.6478C9.209 9.6478 9.375 9.6408 9.54 9.6238C9.935 9.5838 10.307 9.48379 10.666 9.35579V27.7638L0.334 34.6438C0.125 34.7828 0 35.0178 0 35.2688V51.9318C0 52.1798 0.122003 52.4108 0.327003 52.5508L10.666 59.6078V73.1858C10.013 72.9518 9.305 72.8428 8.568 72.9148C5.922 73.1838 3.988 75.5538 4.256 78.1988C4.508 80.6808 6.607 82.5358 9.051 82.5358C9.212 82.5358 9.376 82.5278 9.54 82.5118C10.822 82.3818 11.976 81.7608 12.791 80.7628C13.605 79.7648 13.982 78.5088 13.852 77.2268C13.699 75.7128 12.846 74.4498 11.658 73.6818Z" transform="translate(69.291 18.0814)" fill="#0078D7"></path>
  <path fill-rule="evenodd" clip-rule="evenodd" d="M4.82115 74.889C4.91615 74.889 5.01115 74.894 5.10815 74.904C6.65715 75.06 7.78915 76.448 7.63215 77.996C7.47415 79.544 6.09215 80.676 4.53915 80.52C3.78915 80.444 3.11315 80.08 2.63615 79.496C2.16015 78.912 1.93915 78.177 2.01515 77.427C2.16315 75.975 3.39115 74.889 4.82115 74.889ZM2.01515 4.53896C2.16315 3.08696 3.39115 2.00096 4.82115 2.00096C4.91615 2.00096 5.01115 2.00596 5.10815 2.01596C5.85815 2.09196 6.53415 2.45496 7.01015 3.03896C7.48715 3.62396 7.70815 4.35896 7.63215 5.10896C7.55515 5.85896 7.19215 6.53496 6.60815 7.01096C6.02415 7.48796 5.29815 7.70896 4.53915 7.63196C2.99015 7.47596 1.85815 6.08796 2.01515 4.53896ZM5.58715 29.145V9.58196C6.41815 9.45096 7.20415 9.10696 7.87315 8.56096C8.87115 7.74596 9.49215 6.59196 9.62215 5.30996C9.75215 4.02896 9.37515 2.77396 8.56015 1.77596C7.74615 0.776957 6.59215 0.155957 5.30915 0.0259567C2.66115 -0.249043 0.294147 1.69296 0.0251471 4.33796C-0.233853 6.89696 1.57415 9.17996 4.08715 9.57196V29.538C4.08715 29.785 4.20815 30.015 4.41015 30.156L12.3782 35.66V51.534L2.03915 58.591C1.83415 58.731 1.71215 58.962 1.71215 59.21V73.596H2.34215C1.09015 74.356 0.184147 75.66 0.0251471 77.226C-0.104853 78.507 0.272151 79.763 1.08715 80.761C1.90115 81.759 3.05515 82.38 4.33815 82.51C4.50215 82.527 4.66615 82.535 4.82715 82.535C7.26915 82.535 9.37015 80.679 9.62215 78.198C9.88915 75.552 7.95615 73.182 5.30915 72.913C4.57415 72.837 3.86615 72.947 3.21215 73.181V59.607L13.5501 52.549C13.7561 52.41 13.8782 52.178 13.8782 51.93V35.267C13.8782 35.021 13.7571 34.79 13.5541 34.65L5.58715 29.145Z" transform="translate(103.61 18.0828)" fill="#0078D7"></path>
  <path fill-rule="evenodd" clip-rule="evenodd" d="M100.625 60.668C100.625 62.225 99.359 63.49 97.803 63.49C96.246 63.49 94.979 62.225 94.979 60.668C94.979 59.111 96.246 57.846 97.803 57.846C99.359 57.846 100.625 59.111 100.625 60.668ZM89.157 44.138C89.157 45.694 87.892 46.96 86.335 46.96C84.778 46.96 83.512 45.694 83.512 44.138C83.512 42.581 84.778 41.315 86.335 41.315C87.892 41.315 89.157 42.581 89.157 44.138ZM66.812 60.668C66.812 59.111 68.078 57.846 69.635 57.846C71.191 57.846 72.458 59.111 72.458 60.668C72.458 62.225 71.191 63.49 69.635 63.49C68.078 63.49 66.812 62.225 66.812 60.668ZM86.335 80.744C84.778 80.744 83.512 79.478 83.512 77.921C83.512 76.364 84.778 75.099 86.335 75.099C87.892 75.099 89.157 76.364 89.157 77.921C89.157 79.478 87.892 80.744 86.335 80.744ZM96.803 83.815L90.533 80.248C90.918 79.555 91.157 78.77 91.157 77.921C91.157 75.262 88.994 73.099 86.335 73.099C83.676 73.099 81.512 75.262 81.512 77.921C81.512 80.58 83.676 82.744 86.335 82.744C87.599 82.744 88.742 82.245 89.603 81.446L96.068 85.125V99.38L68.577 115.964L59.113 109.208V61.151H64.862C65.108 63.581 67.141 65.49 69.635 65.49C72.294 65.49 74.458 63.327 74.458 60.668C74.458 58.009 72.294 55.846 69.635 55.846C67.325 55.846 65.394 57.48 64.925 59.651H59.113V10.394L70.556 3.5L96.068 18.815V36.943L93.847 38.243L89.805 40.804C88.927 39.891 87.699 39.315 86.335 39.315C83.676 39.315 81.512 41.479 81.512 44.138C81.512 46.797 83.676 48.96 86.335 48.96C88.994 48.96 91.157 46.797 91.157 44.138C91.157 43.383 90.968 42.677 90.657 42.04L94.627 39.524L96.743 38.287L112.07 47.313V59.711H102.528C102.083 57.509 100.134 55.846 97.803 55.846C95.144 55.846 92.979 58.009 92.979 60.668C92.979 63.327 95.144 65.49 97.803 65.49C100.276 65.49 102.296 63.612 102.57 61.211H112.07V74.513L96.803 83.815ZM48.258 60.668C48.258 62.225 46.992 63.49 45.436 63.49C43.879 63.49 42.612 62.225 42.612 60.668C42.612 59.111 43.879 57.846 45.436 57.846C46.992 57.846 48.258 59.111 48.258 60.668ZM28.735 41.315C30.292 41.315 31.559 42.581 31.559 44.138C31.559 45.694 30.292 46.96 28.735 46.96C27.179 46.96 25.913 45.694 25.913 44.138C25.913 42.581 27.179 41.315 28.735 41.315ZM14.445 60.668C14.445 59.111 15.711 57.846 17.268 57.846C18.824 57.846 20.091 59.111 20.091 60.668C20.091 62.225 18.824 63.49 17.268 63.49C15.711 63.49 14.445 62.225 14.445 60.668ZM25.913 77.921C25.913 76.364 27.179 75.099 28.735 75.099C30.292 75.099 31.559 76.364 31.559 77.921C31.559 79.478 30.292 80.744 28.735 80.744C27.179 80.744 25.913 79.478 25.913 77.921ZM46.493 115.964L19.002 99.38V85.062L25.28 81.272C26.157 82.177 27.379 82.744 28.735 82.744C31.395 82.744 33.559 80.58 33.559 77.921C33.559 75.262 31.395 73.099 28.735 73.099C26.076 73.099 23.913 75.262 23.913 77.921C23.913 78.684 24.107 79.395 24.423 80.036L18.215 83.783L3 74.513V61.211H12.5C12.774 63.612 14.794 65.49 17.268 65.49C19.927 65.49 22.091 63.327 22.091 60.668C22.091 58.009 19.927 55.846 17.268 55.846C14.937 55.846 12.988 57.509 12.542 59.711H3V47.313L18.298 38.305L24.43 42.01C24.11 42.654 23.913 43.37 23.913 44.138C23.913 46.797 26.076 48.96 28.735 48.96C31.395 48.96 33.559 46.797 33.559 44.138C33.559 41.479 31.395 39.315 28.735 39.315C27.384 39.315 26.165 39.878 25.289 40.776L19.002 36.979V18.815L44.515 3.5L55.957 10.394V59.651H50.146C49.677 57.48 47.746 55.846 45.436 55.846C42.776 55.846 40.612 58.009 40.612 60.668C40.612 63.327 42.776 65.49 45.436 65.49C47.929 65.49 49.962 63.581 50.209 61.151H55.957V109.208L46.493 115.964ZM99.068 36.175V17.118L70.554 0L57.535 7.842L44.517 0L16.002 17.118V36.175L0 45.598V76.198L16.002 85.948V101.073L46.632 119.552L57.535 111.768L68.438 119.552L99.068 101.073V85.948L115.07 76.198V45.598L99.068 36.175Z" transform="translate(35.8545)" fill="#0078D7"></path>
</symbol>
                            </svg>