<svg xmlns="http://www.w3.org/2000/svg">
                                
                            
    <rect x="8.046" y="22.885" width="22.213" height="5.377" rx="0.28" ry="0.28" fill="#fff"></rect>
    <path d="M40.614,22.922a.9.9,0,0,0,.276.711,1.709,1.709,0,0,0,.74.363V21.891a1.334,1.334,0,0,0-.7.3A.891.891,0,0,0,40.614,22.922Z" fill="#fff"></path>
    <path d="M42.631,26.377V28.67a1.046,1.046,0,0,0,1.06-1.132.944.944,0,0,0-.3-.762A2.143,2.143,0,0,0,42.631,26.377Z" fill="#fff"></path>
    <path d="M51.683,0H50.455a3.576,3.576,0,0,1-3.46,2.7A3.576,3.576,0,0,1,43.535,0H40.52a3.576,3.576,0,0,1-3.46,2.7A3.576,3.576,0,0,1,33.6,0H30.584a3.576,3.576,0,0,1-3.46,2.7A3.576,3.576,0,0,1,23.664,0H20.649a3.576,3.576,0,0,1-3.46,2.7A3.576,3.576,0,0,1,13.728,0H10.713a3.576,3.576,0,0,1-3.46,2.7A3.576,3.576,0,0,1,3.792,0H2.575A2.574,2.574,0,0,0,0,2.575V33.587a2.361,2.361,0,0,0,2.647,2.4H51.755a2.316,2.316,0,0,0,2.5-2.4V2.575A2.574,2.574,0,0,0,51.683,0ZM32.359,27.982a2.38,2.38,0,0,1-2.38,2.38H8.326a2.38,2.38,0,0,1-2.38-2.38V23.165a2.38,2.38,0,0,1,2.38-2.38H29.979a2.38,2.38,0,0,1,2.38,2.38Zm.024-11.2H5.947v-2.1H32.383Zm0-5.2H5.947v-2.1H32.383ZM45.7,28.793a2.885,2.885,0,0,1-.754.98,3.349,3.349,0,0,1-1.074.6,4.142,4.142,0,0,1-1.242.217v1.06H41.557v-1.06a6.509,6.509,0,0,1-1.9-.355,4.793,4.793,0,0,1-1.684-.98l.762-.792q.384-.4.763-.805a2.4,2.4,0,0,0,.449.4,3.733,3.733,0,0,0,.538.313,3.638,3.638,0,0,0,.551.21,1.877,1.877,0,0,0,.523.08v-2.54q-.625-.174-1.2-.392a3.693,3.693,0,0,1-1.01-.566,2.493,2.493,0,0,1-.958-2.076,2.722,2.722,0,0,1,.29-1.27,3.009,3.009,0,0,1,.755-.943,3.475,3.475,0,0,1,1.046-.6,3.94,3.94,0,0,1,1.146-.24v-1h1.06v.987a6.76,6.76,0,0,1,1.7.29,4.522,4.522,0,0,1,1.554.813q-.712.814-1.408,1.583a2.572,2.572,0,0,0-.871-.565,2.874,2.874,0,0,0-.973-.218v2.322q.567.175,1.146.392a4.205,4.205,0,0,1,1.06.581,2.99,2.99,0,0,1,.784.886,2.561,2.561,0,0,1,.305,1.306A3.16,3.16,0,0,1,45.7,28.793Zm2.483-12.012H36.234v-2.1h11.95Zm0-5.2H36.234v-2.1h11.95Z" fill="#fff"></path>
</svg>