<svg xmlns="http://www.w3.org/2000/svg" viewBox="0 0 71 71">
                                
                            
    <path d="M35.5,57.6875 L35.5,35.5 L48.8125,35.5 L48.8125,31.0625 L31.0625,31.0625 L31.0625,57.6875 L35.5,57.6875 Z M71,35.5 C71,32.2643229 70.5724284,29.1210937 69.7172852,26.0703125 C68.8621419,23.0195312 67.642985,20.1478678 66.0598145,17.4553223 C64.4766439,14.7627767 62.5525716,12.3071289 60.2875977,10.0883789 C58.0226237,7.86962891 55.46875,5.9860026 52.6259766,4.4375 L62.125,4.4375 L62.125,0 L44.375,0 L44.375,17.75 L48.8125,17.75 L48.8125,7.45361328 C51.5166016,8.72477214 53.9606934,10.3426107 56.1447754,12.3071289 C58.3288574,14.2716471 60.1951497,16.4730632 61.7436523,18.911377 C63.2921549,21.3496908 64.4824219,23.9786784 65.3144531,26.7983398 C66.1464844,29.6180013 66.5625,32.5185547 66.5625,35.5 C66.5625,38.3427734 66.1927083,41.087321 65.453125,43.7336426 C64.7135417,46.3799642 63.6677246,48.852946 62.3156738,51.1525879 C60.963623,53.4522298 59.3400065,55.5496419 57.4448242,57.4448242 C55.5496419,59.3400065 53.4522298,60.963623 51.1525879,62.3156738 C48.852946,63.6677246 46.3799642,64.7135417 43.7336426,65.453125 C41.087321,66.1927083 38.3427734,66.5625 35.5,66.5625 C32.6572266,66.5625 29.912679,66.1927083 27.2663574,65.453125 C24.6200358,64.7135417 22.147054,63.6677246 19.8474121,62.3156738 C17.5477702,60.963623 15.4503581,59.3400065 13.5551758,57.4448242 C11.6599935,55.5496419 10.036377,53.4522298 8.68432617,51.1525879 C7.33227539,48.852946 6.28645833,46.3799642 5.546875,43.7336426 C4.80729167,41.087321 4.4375,38.3427734 4.4375,35.5 C4.4375,32.0332031 4.99796549,28.6935221 6.11889648,25.480957 C7.23982747,22.2683919 8.80566406,19.3447266 10.8164063,16.7099609 C12.8271484,14.0751953 15.2250163,11.7928874 18.0100098,9.86303711 C20.7950033,7.93318685 23.8631185,6.50602214 27.2143555,5.58154297 L26.0356445,1.31738281 C22.199056,2.35742187 18.6860352,3.98103841 15.496582,6.18823242 C12.3071289,8.39542643 9.56258138,11.0070801 7.26293945,14.0231934 C4.96329753,17.0393066 3.17789714,20.3789876 1.90673828,24.0422363 C0.635579427,27.705485 0,31.5247396 0,35.5 C0,38.7587891 0.42179362,41.9020182 1.26538086,44.9296875 C2.1089681,47.9573568 3.29923503,50.7885742 4.83618164,53.4233398 C6.37312826,56.0581055 8.22208659,58.4559733 10.3830566,60.6169434 C12.5440267,62.7779134 14.9418945,64.6268717 17.5766602,66.1638184 C20.2114258,67.700765 23.0368652,68.8910319 26.0529785,69.7346191 C29.0690918,70.5782064 32.218099,71 35.5,71 C38.7587891,71 41.9020182,70.5782064 44.9296875,69.7346191 C47.9573568,68.8910319 50.7885742,67.700765 53.4233398,66.1638184 C56.0581055,64.6268717 58.4559733,62.7779134 60.6169434,60.6169434 C62.7779134,58.4559733 64.6268717,56.0581055 66.1638184,53.4233398 C67.700765,50.7885742 68.8910319,47.9573568 69.7346191,44.9296875 C70.5782064,41.9020182 71,38.7587891 71,35.5 Z" transform="translate(35.500000, 35.500000) scale(-1, 1) rotate(-180.000000) translate(-35.500000, -35.500000) "></path>
</svg>