<svg>
                                <symbol id="svg-app-service-logic" viewBox="0 0 50 38.8">
  <path d="M26,21.3v-5H23.5v5c0,.9-.8,1.7-2.1,2.1l-3.4.7c-2.3.7-3.9,2.5-3.9,4.5v5.7h2.5V28.6c0-.9.8-1.7,2.1-2.1l3.4-.8A4.833,4.833,0,0,0,26,21.3Z" transform="translate(0 -5.6)" fill="#59b4d9"></path>
  <path d="M19.6,36.9V32.3a2.006,2.006,0,0,0-2-2H13a2.006,2.006,0,0,0-2,2v4.6a2.006,2.006,0,0,0,2,2h4.6A2.006,2.006,0,0,0,19.6,36.9Z" transform="translate(0 -5.6)" fill="#7fba00"></path>
  <path d="M23.2,21.3v-5h2.5v5c0,.9.8,1.7,2.1,2.1l4.2.9c2.3.7,3.9,2.5,3.9,4.5v5.7H33.4V28.8c0-.9-.8-1.7-2.1-2.1l-4.2-.9C24.8,25.1,23.2,23.3,23.2,21.3Z" transform="translate(0 -5.6)" fill="#59b4d9"></path>
  <path d="M30.4,37.1V32.5a2.006,2.006,0,0,1,2-2H37a2.006,2.006,0,0,1,2,2v4.6a2.006,2.006,0,0,1-2,2H32.4A2.006,2.006,0,0,1,30.4,37.1Z" transform="translate(0 -5.6)" fill="#7fba00"></path>
  <rect x="23.2" y="10.7" width="2.8" height="4.8" fill="#59b4d9"></rect>
  <path d="M26.5,11.7v3.7H22.8V11.7h3.7m.8-2.8H22a2.006,2.006,0,0,0-2,2v5.3a2.006,2.006,0,0,0,2,2h5.3a2.006,2.006,0,0,0,2-2V10.9a2.006,2.006,0,0,0-2-2Z" transform="translate(0 -5.6)" fill="#0072c6"></path>
  <path d="M7.9,44.4a7.41,7.41,0,0,1-4.5-1.1c-.9-.8-1.3-2.1-1.3-4V28.9c0-1.7-.7-2.6-2.1-2.6V23.7q2.1,0,2.1-2.7V10.8c0-1.9.4-3.3,1.3-4.1S5.8,5.6,7.9,5.6V8.2c-1.5,0-2.3.8-2.3,2.5v10c0,2.3-.7,3.7-2.2,4.3h0c1.4.6,2.2,2,2.2,4.3v9.9a3.439,3.439,0,0,0,.5,2,2.2,2.2,0,0,0,1.7.6l.1,2.6Z" transform="translate(0 -5.6)" fill="#59b4d9"></path>
  <path d="M42.1,5.6a7.41,7.41,0,0,1,4.5,1.1c.9.8,1.3,2.1,1.3,4V21.1c0,1.7.7,2.6,2.1,2.6v2.6q-2.1,0-2.1,2.7V39.1c0,1.9-.4,3.3-1.3,4.1s-2.4,1.2-4.5,1.2V41.8c1.5,0,2.3-.8,2.3-2.5v-10c0-2.3.7-3.7,2.2-4.3h0c-1.4-.6-2.2-2-2.2-4.3V10.8a3.439,3.439,0,0,0-.5-2,2.2,2.2,0,0,0-1.7-.6l-.1-2.6Z" transform="translate(0 -5.6)" fill="#59b4d9"></path>
</symbol>
                            </svg>