<svg>
                                <symbol id="svg-cloud-lock" viewBox="0 0 206 100">
		<path fill-rule="evenodd" clip-rule="evenodd" d="M 59.3715 18.6733L 62.6061 18.6733C 61.8269 8.24084 52.6491 -2.62173e-08 41.4123 -2.62173e-08C 31.5987 -2.62173e-08 23.3611 6.28836 20.9057 14.8297C 19.1483 14.1597 17.2327 13.7825 15.2196 13.7825C 6.81434 13.7825 0 20.2217 0 28.1672C 0 36.1114 6.81434 42.5519 15.2196 42.5519L 58.6666 42.5519L 58.6666 19.3395C 58.6666 18.9699 58.9818 18.6733 59.3715 18.6733Z" transform="translate(0 17.5444)" fill-opacity="0.2"></path>
		<path fill-rule="evenodd" clip-rule="evenodd" d="M 128.623 96.1641L 53.5014 96.1641C 44.0152 96.1641 35.9535 90.3731 33.0124 82.3407L 66.359 82.3407C 66.7486 82.3407 67.0638 82.0428 67.0638 81.6758L 67.0638 47.389C 73.0854 39.5407 82.8151 34.6358 93.3809 34.6358C 111.328 34.6358 125.931 48.4375 125.931 65.3654L 125.87 68.5825L 128.35 68.4828C 128.44 68.4764 128.531 68.4687 128.623 68.4687C 136.702 68.4687 143.274 74.6803 143.274 82.3164C 143.274 89.9524 136.702 96.1641 128.623 96.1641ZM 33.1544 48.692C 36.6678 48.692 39.5169 51.3848 39.5169 54.7041C 39.5169 56.865 38.3007 58.7434 36.4906 59.8033L 38.3602 69.1899L 27.8053 69.1899L 29.6884 59.7369C 27.9473 58.6641 26.792 56.8152 26.792 54.7041C 26.792 51.3848 29.6411 48.692 33.1544 48.692ZM 17.3639 22.5156C 17.3639 13.8477 24.8263 6.79214 34.0013 6.79214C 43.1764 6.79214 50.6428 13.8477 50.6428 22.5156L 50.6428 36.2175L 17.3639 36.2175L 17.3639 22.5156ZM 129.981 64.6788C 129.574 45.9314 113.311 30.7999 93.3809 30.7999C 83.2615 30.7999 73.8294 34.8046 67.0638 41.4369L 67.0638 36.8837C 67.0638 36.5154 66.7486 36.2175 66.359 36.2175L 57.8278 36.2175L 57.8278 22.5156C 57.8278 10.1 47.1416 5.20931e-07 34.0013 5.20931e-07C 20.8665 5.20931e-07 10.1789 10.1 10.1789 22.5156L 10.1789 36.2175L 0.703484 36.2175C 0.315214 36.2175 -2.15512e-06 36.5154 -2.15512e-06 36.8837L -2.15512e-06 81.6758C -2.15512e-06 82.0428 0.315214 82.3407 0.703484 82.3407L 28.7577 82.3407C 31.8395 92.52 41.7546 100 53.5014 100L 128.623 100C 138.94 100 147.333 92.0673 147.333 82.3164C 147.333 72.9976 139.666 65.3386 129.981 64.6788Z" transform="translate(58.668 0)"></path>
</symbol>
                            </svg>