<svg xmlns="http://www.w3.org/2000/svg" viewBox="0 0 171.014 112.277">
                                
                            
    <path d="M92.905,18.657a10.632,10.632,0,0,0-1.655.132,19.811,19.811,0,0,0-38.923-4.1,14.647,14.647,0,0,0-25.01,8.8,13.533,13.533,0,0,0-6.965,3.239,8.138,8.138,0,1,0-6.606,12.889H93.541v-.021a10.478,10.478,0,0,0-.636-20.938Z" fill="#00abec" opacity="0.23"></path>
    <path d="M46.735,83.2a9.26,9.26,0,0,0-.95.049A9.2,9.2,0,1,0,28.4,78.081a9.2,9.2,0,0,0-16.017,5.682A9.2,9.2,0,1,0,9.2,101.6H46.735a9.2,9.2,0,0,0,0-18.4Z" fill="#00abec" opacity="0.23"></path>
    <circle cx="93.584" cy="55.247" r="44.999" fill="#83cfea"></circle>
    <path d="M71.07,41.857c-1.761-2.79-4.414-5.684-3.591-8.879,1.046-4.061,6.6-4.745,9.484-7.791,2.96-3.127,2.4-8.551-.506-11.728s-7.52-4.335-11.814-4.021a21.518,21.518,0,0,0-12.231,4.995c-4.616,3.906-7.378,9.621-8.935,15.464a49.992,49.992,0,0,0,.07,25.689c1.037,3.861,1.5,6.7,5.211,8.175,4.311,1.721,10.276,1.506,14.81,1.038a11.891,11.891,0,0,0,5.51-1.638,10.032,10.032,0,0,0,3.425-4.6A18.555,18.555,0,0,0,71.07,41.857Z" fill="#8ec152"></path>
    <path d="M144.968,32c-1.2-4.253-4.359-11.352-8.991-12.9-4.066-1.362-11.759.607-15.4,2.571-4.3,2.321-7.445,7.556-5.742,12.132,1.21,3.253,4.495,5.41,5.645,8.685.785,2.233.471,4.68.224,7.033-.6,5.748-.714,11.715,1.3,17.133s6.54,10.209,12.249,11.11a4.126,4.126,0,0,0,2.238-.129,4.484,4.484,0,0,0,1.648-1.428c5.8-7.2,7.288-16.886,7.925-26.105C146.485,44.042,146.613,37.852,144.968,32Z" fill="#8ec152"></path>
    <path d="M91.427,64.812a17.288,17.288,0,0,0-6.22-1.4c-3.855-.146-8.425,1.454-10.521,5.74a9.675,9.675,0,0,0-.641,6.865,5.9,5.9,0,0,0,4.045,4.135c1.7.417,3.906.142,4.706,1.943a10.492,10.492,0,0,1,.448,2.534,7.257,7.257,0,0,0,5.173,5.58,3.463,3.463,0,0,0,1.573.241,3.724,3.724,0,0,0,1.939-1.06A8.538,8.538,0,0,0,94.485,83.6c.075-2.385-1.637-3.6-1.711-5.687-.1-2.741,2.6-5.13,2.619-8.01C95.407,67.284,93.387,65.659,91.427,64.812Z" fill="#8ec152"></path>
    <path d="M119.091,84.15c-1.861.3-3.85.907-4.914,2.463a8.074,8.074,0,0,0-1.057,3.334l-1.659,10.233c7.11-5.174,13.431-9.885,20.387-14.969A26.823,26.823,0,0,0,119.091,84.15Z" fill="#8ec152"></path>
    <path d="M131.849,85.212c.7.235,1.392.5,2.07.79a2.956,2.956,0,0,0,.18-2.432C133.338,84.123,132.593,84.668,131.849,85.212Z" fill="#8ec152"></path>
    <path d="M99.111,93.312A44.989,44.989,0,0,1,61.327,23.886a44.991,44.991,0,1,0,70.041,55.787A44.854,44.854,0,0,1,99.111,93.312Z" opacity="0.1"></path>
    <path d="M160.321,90.888c-.1,0-.2.006-.3.006a21.152,21.152,0,0,0-42.146-2.344,14.651,14.651,0,1,0-11.5,23.727h53.947a10.695,10.695,0,0,0,0-21.389Z" fill="#00abec" opacity="0.23"></path>
</svg>