<svg>
                                <symbol id="svg-business-health" viewBox="0 0 163.603 102.964">
    <path d="M142.878,29.914a18.029,18.029,0,0,0-2.117.08,21.5,21.5,0,0,0,2.117-9.181A20.759,20.759,0,0,0,101.5,18.371,20.746,20.746,0,0,0,65.319,31.22a19.687,19.687,0,0,0-7.232-1.306,20.772,20.772,0,0,0,0,41.543h84.791a20.772,20.772,0,0,0,0-41.543Z" fill="#b1e1f2"></path>
    <path d="M97.487,98.78l-3.635.274a8.754,8.754,0,0,1-7.983-3.221V85.881H102.4v10.98Z" fill="#eacaa0"></path>
    <rect x="99.623" y="64.749" width="2.639" height="11.527" fill="#f0ae00"></rect>
    <path d="M119.718,24.2v28.61l1.5,4.253V25.988A1.86,1.86,0,0,0,119.718,24.2ZM76.534,56.312V77.031A2.515,2.515,0,0,0,79.1,79.5h5.7l-.357-.891H80.1a2.333,2.333,0,0,1-2.35-2.267V59.675Zm44.683,19.006-1.5.48v2.815h-8.547l-2.709.891h10.615a2.105,2.105,0,0,0,2.14-2.063Z" fill="#e5a600"></path>
    <path d="M77.749,32.851l-1.215,1.165v22.3l1.215,3.362Zm41.969,19.96V75.8l1.5-.48V57.064Zm-8.547,25.8H102.4V79.5h6.057Zm-15.325,0h-11.4l.357.891H95.846Z" fill="#969696"></path>
    <path d="M119.718,78.613H80.1a2.333,2.333,0,0,1-2.35-2.267V32.64L86.8,23.447h32.918V78.613Z" fill="#fff"></path>
    <polygon points="86.8 23.447 86.8 32.64 77.749 32.64 86.8 23.447" fill="#d1d1d1"></polygon>
    <path d="M119.718,78.613h0V23.447h0a1.435,1.435,0,0,1,1.5,1.446V77.168A1.438,1.438,0,0,1,119.718,78.613Z" fill="#d1d1d1"></path>
    <polygon points="79.243 39.778 79.243 59.538 117.083 59.538 117.083 59.264 79.53 59.264 79.53 39.778 79.243 39.778" fill="#d1d1d1"></polygon>
    <rect x="90.928" y="49.523" width="4.347" height="9.877" fill="#001a41"></rect>
    <rect x="96.419" y="46.16" width="4.347" height="13.24" fill="#001a41"></rect>
    <rect x="101.908" y="42.798" width="4.347" height="16.603" fill="#001a41"></rect>
    <rect x="80.882" y="56.792" width="1.429" height="2.609" fill="#001a41"></rect>
    <rect x="116.3" y="55.284" width="1.423" height="4.117" fill="#001a41"></rect>
    <rect x="113.805" y="55.284" width="1.429" height="4.117" fill="#001a41"></rect>
    <rect x="83.307" y="55.284" width="1.423" height="4.117" fill="#001a41"></rect>
    <polygon points="48.243 41.838 48.243 58.99 63.853 58.99 63.853 57.962 49.316 57.962 49.316 41.838 48.243 41.838" fill="#fff"></polygon>
    <rect x="47.602" y="43.962" width="2.355" height="0.206" fill="#fff"></rect>
    <rect x="47.602" y="46.024" width="2.355" height="0.137" fill="#fff"></rect>
    <rect x="47.602" y="48.009" width="2.355" height="0.206" fill="#fff"></rect>
    <rect x="47.602" y="50.071" width="2.355" height="0.137" fill="#fff"></rect>
    <rect x="47.602" y="52.058" width="2.355" height="0.206" fill="#fff"></rect>
    <rect x="47.602" y="54.12" width="2.355" height="0.137" fill="#fff"></rect>
    <rect x="47.602" y="56.175" width="2.355" height="0.137" fill="#fff"></rect>
    <rect x="61.782" y="57.477" width="0.142" height="2.198" fill="#fff"></rect>
    <rect x="59.649" y="57.477" width="0.142" height="2.198" fill="#fff"></rect>
    <rect x="57.579" y="57.477" width="0.142" height="2.198" fill="#fff"></rect>
    <rect x="55.443" y="57.477" width="0.142" height="2.198" fill="#fff"></rect>
    <rect x="53.38" y="57.477" width="0.142" height="2.198" fill="#fff"></rect>
    <rect x="51.237" y="57.477" width="0.142" height="2.198" fill="#fff"></rect>
    <polygon points="61.855 42.455 62.281 42.455 63.995 44.852 63.711 46.572 63.284 46.572 62.354 45.337 60.502 56.039 60.076 56.039 61.855 42.455" fill="#002050"></polygon>
    <polygon points="60.076 56.039 57.649 51.716 55.443 55.626 53.45 50.688 52.662 53.085 51.452 52.744 53.38 46.982 55.658 52.744 57.649 49.175 59.435 52.333 61.001 43.687 62.211 43.894 60.076 56.039" fill="#001a41"></polygon>
    <polygon points="63.284 46.572 61.498 44.168 59.078 45.887 59.362 44.098 61.855 42.455 63.568 44.852 63.284 46.572" fill="#002050"></polygon>
    <polygon points="57.649 49.175 58.082 49.175 59.507 51.783 59.435 52.333 57.649 49.175" fill="#002050"></polygon>
    <polygon points="55.443 55.626 55.87 55.626 57.863 52.196 57.649 51.716 55.443 55.626" fill="#002050"></polygon>
    <polygon points="53.38 46.982 53.806 46.982 55.87 52.333 55.658 52.744 53.38 46.982" fill="#002050"></polygon>
    <polygon points="52.662 53.085 53.088 53.085 53.734 51.236 53.45 50.688 52.662 53.085" fill="#002050"></polygon>
    <path d="M69.2,50.755h.215c0-7.2-6.127-13.033-13.611-13.033a13.078,13.078,0,1,0,0,26.139A13.407,13.407,0,0,0,69.411,50.755h-.357a12.389,12.389,0,0,1-3.849,9.056A13.428,13.428,0,0,1,55.8,63.584a13.568,13.568,0,0,1-9.408-3.773,12.7,12.7,0,0,1-3.849-9.056,12.538,12.538,0,0,1,3.849-8.987A13.568,13.568,0,0,1,55.8,38a13.428,13.428,0,0,1,9.405,3.773,12.229,12.229,0,0,1,3.849,8.987Z" fill="#fff"></path>
    <path d="M145.089,50.688v9.4a9.557,9.557,0,0,1-9.762-9.4,7.936,7.936,0,0,1,.5-2.884Z" fill="#fff"></path>
    <path d="M145.089,50.688v-9.33a9.372,9.372,0,1,1,0,18.728Z" fill="#001a41"></path>
    <path d="M158.488,50.688h.142a13.292,13.292,0,0,0-13.541-13.036c-7.484,0-13.611,5.831-13.611,13.036a13.585,13.585,0,0,0,27.153,0h-.284a12.7,12.7,0,0,1-3.849,9.054,13.56,13.56,0,0,1-9.408,3.775,13.419,13.419,0,0,1-9.405-3.775,12.383,12.383,0,0,1-3.849-9.054,12.225,12.225,0,0,1,3.849-8.987,13.419,13.419,0,0,1,9.405-3.775A13.56,13.56,0,0,1,154.5,41.7a12.534,12.534,0,0,1,3.849,8.987Z" fill="#fff"></path>
    <path d="M102.4,72.024H95.846v29.707a1.257,1.257,0,0,0,1.287,1.233h3.919a1.272,1.272,0,0,0,1.352-1.233Z" fill="#001a41"></path>
    <path d="M97.7,72.024H95.846V82.449H97.7Zm0,14.337H95.846v.274H97.7Zm-1.856,4.186v11.184a1.257,1.257,0,0,0,1.287,1.233H97.7V98.232a1.962,1.962,0,0,1-1.282-1.782v-.07h0A1.965,1.965,0,0,1,97.7,94.594v-.548a2.191,2.191,0,0,1-.711-1.576h0a1.953,1.953,0,0,1,.711-1.513v-.411H95.846Z" fill="#66768d"></path>
    <path d="M102.4,72.024h-1.926V82.449H102.4Zm0,14.337h-1.926v.274H102.4Z" fill="#000a1a"></path>
    <path d="M102.4,98.369h-1.926v4.6h.574a1.272,1.272,0,0,0,1.352-1.233Z" fill="#000a1a"></path>
    <path d="M96.419,96.45a2.018,2.018,0,0,0,2.066,1.919h4.845a1.967,1.967,0,0,0,1.993-1.989v-.274a1.656,1.656,0,0,0-1.709-1.65H98.485a1.978,1.978,0,0,0-2.066,1.924h0Z" fill="#edbf9f"></path>
    <path d="M103.614,94.457h0a1.656,1.656,0,0,1,1.709,1.65v0A1.656,1.656,0,0,0,103.614,94.457Z" fill="#ffc733"></path>
    <path d="M103.614,94.457H98.485a1.588,1.588,0,0,0-.783.137,1.965,1.965,0,0,0-1.282,1.787h0v.07c0,.067,0,.067.072.137a1.935,1.935,0,0,1,1.993-1.719h5.129a1.65,1.65,0,0,1,1.709,1.582v-.343A1.656,1.656,0,0,0,103.614,94.457Z" opacity="0.11"></path>
    <path d="M96.991,92.471a1.966,1.966,0,0,0,1.991,1.986h6.7a2.028,2.028,0,0,0,2.063-1.986V92.2a1.659,1.659,0,0,0-1.707-1.65h-7.06a1.913,1.913,0,0,0-1.991,1.924Z" fill="#edbf9f"></path>
    <path d="M106.041,90.547h0a1.659,1.659,0,0,1,1.707,1.65v0A1.659,1.659,0,0,0,106.041,90.547Z" fill="#ffc733"></path>
    <path d="M100.478,90.547h-1.5a2.04,2.04,0,0,0-1.28.411h0a2.04,2.04,0,0,1,1.28-.411Z" fill="#334867"></path>
    <path d="M97.7,90.958a1.953,1.953,0,0,0-.711,1.513h0a1.953,1.953,0,0,1,.711-1.513Z" fill="#8591a4"></path>
    <path d="M106.041,90.547h-7.06a2.04,2.04,0,0,0-1.28.411,1.953,1.953,0,0,0-.711,1.513h0v.2a1.931,1.931,0,0,1,1.991-1.717h7.06a1.693,1.693,0,0,1,1.707,1.58V92.2A1.659,1.659,0,0,0,106.041,90.547Z" opacity="0.11"></path>
    <path d="M93.852,88.558a2.029,2.029,0,0,0,2.063,1.989h10.268a2.029,2.029,0,0,0,2.063-1.989v-.274a1.661,1.661,0,0,0-1.709-1.65H95.915a1.977,1.977,0,0,0-2.063,1.924Z" fill="#edbf9f"></path>
    <path d="M95.846,86.635a2,2,0,0,0-1.993,1.924h0a2,2,0,0,1,1.993-1.924Z" fill="#896349"></path>
    <path d="M106.538,86.635H95.846a2,2,0,0,0-1.993,1.924h0v.207a2.05,2.05,0,0,1,2.063-1.712h10.622a1.691,1.691,0,0,1,1.709,1.576v-.343h0a1.642,1.642,0,0,0-1.637-1.65Z" opacity="0.11"></path>
    <path d="M99.2,63.448a12.426,12.426,0,1,1,12.9-12.416A12.664,12.664,0,0,1,99.2,63.448Zm0-26.273c-8.766,0-15.889,6.857-15.889,15.3S90.43,67.77,99.2,67.77s15.9-6.864,15.9-15.3S107.962,37.174,99.2,37.174Z" fill="#ce9109"></path>
    <path d="M99.2,39.5A12.426,12.426,0,1,1,86.3,51.92,12.659,12.659,0,0,1,99.2,39.5Zm0,26.273c8.766,0,15.9-6.857,15.9-15.3,0-7.2-7.13-14.272-15.9-14.272S83.307,43.551,83.307,50.481C83.307,58.921,90.43,65.777,99.2,65.777Z" fill="#ce9109"></path>
    <path d="M99.2,63.448a12.426,12.426,0,1,1,12.9-12.416A12.664,12.664,0,0,1,99.2,63.448Zm0-27.719c-8.766,0-15.889,6.864-15.889,15.3s7.123,15.3,15.889,15.3,15.9-6.864,15.9-15.3S107.962,35.729,99.2,35.729Z" fill="#f0ae00"></path>
    <path d="M99.2,63.448a12.426,12.426,0,1,1,12.9-12.416A12.664,12.664,0,0,1,99.2,63.448Zm0-27.719c-8.766,0-15.889,6.864-15.889,15.3s7.123,15.3,15.889,15.3,15.9-6.864,15.9-15.3S107.962,35.729,99.2,35.729Z" fill="#f0ae00"></path>
    <path d="M115.092,51.031v0Zm-31.785,0v0Z" fill="#fff"></path>
    <path d="M99.2,35.729c-8.766,0-15.889,6.864-15.889,15.3h0v.615A15.669,15.669,0,0,1,99.2,36.9c8.552,0,15.6,6.516,15.9,14.748v-.615C115.092,42.592,107.962,35.729,99.2,35.729Z" fill="#f5c64d"></path>
    <rect x="97.702" y="67.016" width="2.776" height="5.007" fill="#f0ae00"></rect>
    <rect x="97.702" y="70.996" width="2.776" height="1.028" fill="#a87900"></rect>
    <path d="M93.568,84.442a1.91,1.91,0,0,0,1.993,1.919h9.547a1.955,1.955,0,0,0,2-1.919V84.1a1.709,1.709,0,0,0-1.716-1.652H95.561a1.972,1.972,0,0,0-1.993,1.993Z" fill="#edbf9f"></path>
    <path d="M105.393,82.449h0a1.709,1.709,0,0,1,1.716,1.652v0A1.709,1.709,0,0,0,105.393,82.449Z" fill="#ffc733"></path>
    <path d="M105.393,82.449H95.561a1.972,1.972,0,0,0-1.993,1.993h0v.207a1.926,1.926,0,0,1,1.993-1.712h9.832a1.646,1.646,0,0,1,1.716,1.576V84.1A1.709,1.709,0,0,0,105.393,82.449Z" opacity="0.11"></path>
    <path d="M83.095,82.792H98.627l8.482,3.638a3.156,3.156,0,0,1-1.357,1.856,5.2,5.2,0,0,1-4.989.548c-1.707-.617-3.919-1.719-5.7-.137,0,0-5.631,5.485-11.97.891v6.587l-11.618.411Z" opacity="0.11"></path>
    <path d="M81.451,82.449H97.487l8.482,3.638a3.156,3.156,0,0,1-1.357,1.856,5.2,5.2,0,0,1-4.989.548c-1.707-.617-3.919-1.719-5.7-.137,0,0-5.631,5.485-11.97.891v6.587l-6.274.411Z" fill="#f6caa7"></path>
    <polygon points="75.396 96.243 73.829 96.313 75.396 96.313 75.396 96.243" fill="#b28100"></polygon>
    <rect x="80.099" y="87.668" width="5.771" height="8.165" fill="#f6caa7"></rect>
    <path d="M99.2,39.5A12.86,12.86,0,0,0,90.5,42.729l5.917,5.622v-2.19h4.348v6.376l1.14,1.172V42.8h4.346v15.1l1.425,1.371h1.21a11.993,11.993,0,0,0,3.208-7.822A12.631,12.631,0,0,0,99.2,39.5ZM108.6,59.538h-.571l.284.274C108.461,59.742,108.531,59.605,108.6,59.538Z" fill="#fff"></path>
    <path d="M108.888,59.264h-1.21l.354.274h.571C108.746,59.468,108.816,59.331,108.888,59.264Z" fill="#e8e8e8"></path>
    <polygon points="100.768 46.161 96.419 46.161 96.419 48.351 100.768 52.537 100.768 46.161" fill="#808da0"></polygon>
    <polygon points="106.254 42.796 101.908 42.796 101.908 53.709 106.254 57.893 106.254 42.796" fill="#808da0"></polygon>
    <path d="M99.2,38.613a13.208,13.208,0,0,0-9.121,3.636l.427.48A12.86,12.86,0,0,1,99.2,39.5a12.631,12.631,0,0,1,12.9,11.938v-.411h0a12.343,12.343,0,0,0-3.779-8.783A13.2,13.2,0,0,0,99.2,38.613Z" fill="#e7c884"></path>
    <path d="M112.1,51.031h0v.411a11.993,11.993,0,0,1-3.208,7.822c-.072.067-.142.2-.284.274-.072.067-.142.2-.287.274h0A11.954,11.954,0,0,0,112.1,51.031Z" fill="#f8d780"></path>
    <polygon points="75.681 96.243 75.681 94.526 77.322 96.106 75.681 96.243" fill="#8e562e"></polygon>
    <path d="M72.043,96.517V83l7.629-.485c.354,0,.711-.07,1.068-.07h.853V93.566A2.549,2.549,0,0,1,79.1,96.106l-4.346.274-.856.07Z" fill="#fff"></path>
    <path d="M44.683,82.519a2.947,2.947,0,0,1-2.068-.617c-1.494-1.165-4.989-3.151-9.478-6.376L0,51.579V79.5L33.634,96.039A18.422,18.422,0,0,0,45.823,98.3l32.067-2.056V82.449Z" fill="#0078d7"></path>
    <line x1="86.8" y1="23.447" x2="119.718" y2="23.447" fill="none" stroke="#eee" stroke-miterlimit="10" stroke-width="0.657"></line>
</symbol>
                            </svg>