<svg>
                                <symbol id="svg-blog-alt-dark" viewBox="0 0 48 36">
    <rect width="48" height="31.2" rx="1" fill="#303030"></rect>
    <path fill-rule="evenodd" clip-rule="evenodd" d="M14.9145 15.8571C14.9145 17.9869 13.1878 19.7143 11.0573 19.7143C8.92755 19.7143 7.2002 17.9869 7.2002 15.8571C7.2002 13.7267 8.92755 12 11.0573 12C13.1878 12 14.9145 13.7267 14.9145 15.8571Z" fill="#0078D4"></path>
    <path fill-rule="evenodd" clip-rule="evenodd" d="M27.7709 15.8571C27.7709 17.9869 26.0442 19.7143 23.9138 19.7143C21.784 19.7143 20.0566 17.9869 20.0566 15.8571C20.0566 13.7267 21.784 12 23.9138 12C26.0442 12 27.7709 13.7267 27.7709 15.8571Z" fill="#0078D4"></path>
    <path fill-rule="evenodd" clip-rule="evenodd" d="M40.6274 15.8571C40.6274 17.9869 38.9007 19.7143 36.7702 19.7143C34.6404 19.7143 32.9131 17.9869 32.9131 15.8571C32.9131 13.7267 34.6404 12 36.7702 12C38.9007 12 40.6274 13.7267 40.6274 15.8571Z" fill="#0078D4"></path>
    <path fill-rule="evenodd" clip-rule="evenodd" d="M13.6539 31.2L9.22652 35.6267L4.7998 31.2H13.6539Z" fill="#303030"></path>
</symbol>
                            </svg>