<svg xmlns="http://www.w3.org/2000/svg">
                                
                            
    <g stroke="none" stroke-width="1" fill-rule="evenodd" fill="#0063B1" transform="translate(68.000000, 159.000000)">
        <path d="M188.160996,68.5555556 C196.449707,68.5555556 203.236551,71.2236444 208.521529,76.5655111 C213.806507,81.9130667 216.446151,88.6657778 216.446151,96.8293333 C216.446151,105.106667 213.834951,111.939022 208.595484,117.337778 C203.361707,122.736533 196.552107,125.444444 188.160996,125.444444 C179.866596,125.444444 173.028551,122.656889 167.635484,117.076089 C162.248107,111.512356 159.557262,104.759644 159.557262,96.8293333 C159.557262,88.5463111 162.270862,81.7708444 167.720818,76.4915556 C173.159396,71.2008889 179.974684,68.5555556 188.160996,68.5555556 Z"></path>
        <path d="M347.449884,68.5555556 C339.263573,68.5555556 332.448284,71.2008889 327.009707,76.4915556 C321.559751,81.7708444 318.846151,88.5463111 318.846151,96.8293333 C318.846151,104.759644 321.536996,111.512356 326.924373,117.076089 C332.31744,122.656889 339.155484,125.444444 347.449884,125.444444 C355.840996,125.444444 362.650596,122.736533 367.884373,117.337778 C373.12384,111.939022 375.73504,105.106667 375.73504,96.8293333 C375.73504,88.6657778 373.095396,81.9130667 367.810418,76.5655111 C362.52544,71.2236444 355.738596,68.5555556 347.449884,68.5555556"></path>
        <path d="M28.8721067,68.5555556 C20.6857956,68.5555556 13.8705067,71.2008889 8.43192889,76.4915556 C2.98197333,81.7708444 0.268373333,88.5463111 0.268373333,96.8293333 C0.268373333,104.759644 2.95921778,111.512356 8.34659556,117.076089 C13.7396622,122.656889 20.5777067,125.444444 28.8721067,125.444444 C37.2632178,125.444444 44.0728178,122.736533 49.3065956,117.337778 C54.5460622,111.939022 57.1572622,105.106667 57.1572622,96.8293333 C57.1572622,88.6657778 54.5176178,81.9130667 49.23264,76.5655111 C43.9476622,71.2236444 37.1608178,68.5555556 28.8721067,68.5555556"></path>
        <path d="M114.044444,170.955556 L261.955556,170.955556 L261.955556,23.0444444 L114.044444,23.0444444 L114.044444,170.955556 Z M91.2888889,193.711111 L284.711111,193.711111 L284.711111,0.288888889 L91.2888889,0.288888889 L91.2888889,193.711111 Z"></path>
    </g>
</svg>