<svg>
                                <symbol id="svg-event-grid" viewBox="0 0 324.999 325">
	<polygon points="150 120 100 170 65 170 145 90 205 90 205 80 205 70 140 70 40 170 25 170 25 180 25 190 75 190 125 240 235 240 235 230 235 230 235 220 130 220 100 190 185 190 185 180 185 170 125 170 155 140 250 140 250 130 250 120 150 120" fill="#0072c6"></polygon>
	<circle cx="195.5" cy="180.5" r="19.5" fill="#0072c6"></circle>
	<circle cx="219.991" cy="80.002" r="19.5" transform="translate(7.864 178.989) rotate(-45)" fill="#0072c6"></circle>
	<circle cx="264.99" cy="130.002" r="19.5" transform="translate(-14.311 225.453) rotate(-45)" fill="#0072c6"></circle>
	<circle cx="239.49" cy="230.5" r="19.5" transform="translate(-92.843 236.857) rotate(-45)" fill="#0072c6"></circle>
	<path d="M5,0A5,5,0,0,0,0,5V73.72a6.268,6.268,0,0,0,6.25,6.25H28.74A6.277,6.277,0,0,0,35,73.72V35H290V73.3c0,3.33,1.775,6.665,6.21,6.665H318.8c3.105,0,6.08-3.33,6.08-6.665V6c.62-4-1.24-6-4.345-6H5Z" fill="#0072c6"></path>
	<path d="M320.535,325h0c3.105,0,4.965-2,4.345-6V251.695c0-3.33-2.975-6.665-6.08-6.665H296.21c-4.43,0-6.21,3.33-6.21,6.665V290H35V251.28a6.28,6.28,0,0,0-6.26-6.25H6.25A6.268,6.268,0,0,0,0,251.28v
	68.715A5,5,0,0,0,5,325Z" fill="#0072c6"></path>
</symbol>
                            </svg>