<svg xmlns="http://www.w3.org/2000/svg">
                                
                            
    <path d="M24.53,5.47a3.77,3.77,0,0,1-.24-.69,3,3,0,0,1-.09-.73,4.15,4.15,0,0,1,.13-1,4.19,4.19,0,0,1,.38-.89,4,4,0,0,1,.59-.76,3.61,3.61,0,0,1,.76-.59A3.91,3.91,0,0,1,27,.43a3.71,3.71,0,0,1,2.89.38,3.61,3.61,0,0,1,.76.59,3.61,3.61,0,0,1,.59.76,3.61,3.61,0,0,1,.51,1.89,3.55,3.55,0,0,1-.08.73,3.83,3.83,0,0,1-.25.69L28,12.3ZM28,1.05a3.09,3.09,0,0,0-1.17.23,3.12,3.12,0,0,0-1.6,1.6A3.09,3.09,0,0,0,25,4.05a2.67,2.67,0,0,0,.06.56,2.33,2.33,0,0,0,.2.52L28,10.62l2.74-5.49a2.33,2.33,0,0,0,.2-.52A2.67,2.67,0,0,0,31,4.05a3.09,3.09,0,0,0-.23-1.17,3.12,3.12,0,0,0-1.6-1.6A3.09,3.09,0,0,0,28,1.05Z" fill="#0063b1"></path>
    <path d="M28,13,24.26,5.6A4.21,4.21,0,0,1,24,4.85a3.57,3.57,0,0,1-.09-.8A3.91,3.91,0,0,1,24.05,3a3.89,3.89,0,0,1,.4-1,3.93,3.93,0,0,1,.64-.82,3.93,3.93,0,0,1,.82-.64,3.89,3.89,0,0,1,1-.4A4,4,0,0,1,29,.15a3.89,3.89,0,0,1,1,.4,3.93,3.93,0,0,1,.82.64,3.93,3.93,0,0,1,.64.82,3.89,3.89,0,0,1,.4,1A3.91,3.91,0,0,1,32,4.05a3.57,3.57,0,0,1-.09.8,4.21,4.21,0,0,1-.27.75ZM24.8,5.33,28,11.63l3.15-6.3a2.87,2.87,0,0,0,.22-.62,3,3,0,0,0,.08-.66,3.52,3.52,0,0,0-.12-.92,3.75,3.75,0,0,0-.35-.82,3.45,3.45,0,0,0-1.24-1.24,3.75,3.75,0,0,0-.82-.35A3.55,3.55,0,0,0,27,.72a3.47,3.47,0,0,0-1.53.89,3.35,3.35,0,0,0-.54.7,3.75,3.75,0,0,0-.35.82,3.52,3.52,0,0,0-.12.92,3,3,0,0,0,.08.66A2.87,2.87,0,0,0,24.8,5.33Zm3.15,6-3-6a2.65,2.65,0,0,1-.29-1.22,3.3,3.3,0,0,1,.26-1.29,3.45,3.45,0,0,1,.7-1A3.45,3.45,0,0,1,26.66,1a3.39,3.39,0,0,1,2.58,0,3.45,3.45,0,0,1,1.05.7,3.45,3.45,0,0,1,.7,1,3.3,3.3,0,0,1,.26,1.29A2.65,2.65,0,0,1,31,5.27Zm0-10a2.66,2.66,0,0,0-1.05.21,2.56,2.56,0,0,0-.86.58,2.56,2.56,0,0,0-.58.86,2.63,2.63,0,0,0-.21,1,2.05,2.05,0,0,0,.06.49,1.93,1.93,0,0,0,.16.46L28,10,30.42,5a1.6,1.6,0,0,0,.17-.46,2.05,2.05,0,0,0,.06-.49,2.63,2.63,0,0,0-.21-1,2.56,2.56,0,0,0-.58-.86A2.56,2.56,0,0,0,29,1.56,2.66,2.66,0,0,0,28,1.35Z" fill="#0063b1"></path>
    <path d="M13,31V29.69a6.07,6.07,0,0,0,1.7-.24l.37,1.31A7.65,7.65,0,0,1,13,31Zm4.41-1.37-.76-1.13A7.88,7.88,0,0,0,18,27.41l1,.92A9,9,0,0,1,17.41,29.67Zm3-3.43-1.19-.63A9.4,9.4,0,0,0,19.92,24l1.3.39A10.34,10.34,0,0,1,20.44,26.24Zm1.23-4.37-1.35-.09c0-.22,0-.45,0-.67a10.56,10.56,0,0,1,.08-1.27l1.34.17a10,10,0,0,0-.07,1.1C21.69,21.37,21.69,21.62,21.67,21.87Zm.66-4-1.25-.52a8.34,8.34,0,0,1,1-1.8l1.08.82A6.89,6.89,0,0,0,22.33,17.89ZM24.75,15l-.7-1.16a5.75,5.75,0,0,1,2-.76l.24,1.34A4.25,4.25,0,0,0,24.75,15Z" fill="#0063b1"></path>
    <path d="M.78,16.06A7.39,7.39,0,0,1,.2,14.45a7.52,7.52,0,0,1-.2-1.7A8.78,8.78,0,0,1,6.43,4.31,8.49,8.49,0,0,1,8.75,4a8.49,8.49,0,0,1,2.32.31,8.79,8.79,0,0,1,6.12,6.12,8.49,8.49,0,0,1,.31,2.32,7.52,7.52,0,0,1-.2,1.7,7.39,7.39,0,0,1-.58,1.61L8.75,32Zm8-10.31A6.8,6.8,0,0,0,6,6.3,6.87,6.87,0,0,0,2.3,10a6.8,6.8,0,0,0-.55,2.73,5.7,5.7,0,0,0,.15,1.3,5.33,5.33,0,0,0,.45,1.23l6.4,12.81,6.4-12.81a5.33,5.33,0,0,0,.45-1.23,5.7,5.7,0,0,0,.15-1.3A6.8,6.8,0,0,0,15.2,10,6.87,6.87,0,0,0,11.48,6.3,6.76,6.76,0,0,0,8.75,5.75Z" fill="#0063b1"></path> 
</svg>