<svg>
                                <symbol id="svg-authentic" viewBox="0 0 32 32">
    <path fill="#00ABEC" d="M27.484,3.906c-0.813-0.063-1.604-0.177-2.375-0.344c-0.771-0.167-1.531-0.401-2.281-0.703 c-0.75-0.302-1.5-0.692-2.25-1.172c-0.448-0.281-0.891-0.528-1.328-0.742c-0.438-0.213-0.883-0.391-1.336-0.531 s-0.92-0.245-1.398-0.313C16.036,0.034,15.531,0,15,0c-1.063,0-2.037,0.138-2.922,0.414c-0.886,0.276-1.771,0.701-2.656,1.273 c-0.75,0.479-1.5,0.87-2.25,1.172c-0.75,0.302-1.511,0.537-2.281,0.703C4.119,3.729,3.328,3.844,2.516,3.906S0.864,4,0,4v8 c0,1.573,0.197,3.058,0.594,4.453c0.396,1.396,0.942,2.714,1.641,3.953c0.697,1.24,1.523,2.401,2.477,3.484 c0.953,1.084,1.984,2.102,3.094,3.055s2.275,1.844,3.5,2.672c1.224,0.828,2.455,1.607,3.695,2.336 c1.239-0.729,2.471-1.508,3.695-2.336c1.224-0.828,2.391-1.719,3.5-2.672s2.141-1.971,3.094-3.055 c0.953-1.083,1.778-2.244,2.477-3.484c0.697-1.239,1.244-2.557,1.641-3.953C29.802,15.058,30,13.573,30,12V4 C29.135,4,28.297,3.969,27.484,3.906z M28,12c0,1.323-0.175,2.594-0.523,3.813c-0.35,1.219-0.826,2.378-1.43,3.477 c-0.604,1.1-1.323,2.141-2.156,3.125c-0.834,0.984-1.729,1.912-2.688,2.781c-0.959,0.87-1.967,1.675-3.023,2.414 c-1.058,0.74-2.117,1.417-3.18,2.031c-1.063-0.614-2.123-1.291-3.18-2.031c-1.058-0.739-2.065-1.544-3.023-2.414 c-0.959-0.869-1.854-1.797-2.688-2.781c-0.834-0.984-1.553-2.025-2.156-3.125c-0.604-1.099-1.081-2.258-1.43-3.477 C2.174,14.594,2,13.323,2,12V5.969c1.552-0.083,3.039-0.333,4.461-0.75c1.422-0.417,2.789-1.047,4.102-1.891 c0.708-0.458,1.414-0.794,2.117-1.008C13.383,2.107,14.156,2,15,2s1.617,0.107,2.32,0.32c0.703,0.214,1.408,0.55,2.117,1.008 c1.313,0.844,2.68,1.474,4.102,1.891c1.422,0.417,2.908,0.667,4.461,0.75V12z"></path>
    <polygon fill="#00ABEC" points="23,12 21.938,10.938 14.531,18.409 10.063,13.94 9,15.003 13.469,19.472 13.472,19.469  14.534,20.531"></polygon>
</symbol>
                            </svg>