<svg>
                                <symbol id="svg-computer-vision-service" viewBox="0 0 50.001 46.149">
  <path d="M32.426,36.534H18.83c1.634,5.768-.561,6.6-10.175,6.6v3.02H41.347v-3.02c-9.614,0-10.557-.824-8.921-6.6" fill="#7a7a7a"></path>
  <path d="M46.98,0H2.718A2.828,2.828,0,0,0,0,2.847V33.713a2.812,2.812,0,0,0,2.717,2.823H46.98A3.09,3.09,0,0,0,50,33.713V2.847A3.1,3.1,0,0,0,46.98,0" fill="#a0a1a2"></path>
  <path d="M47.011,0,46.98,0H2.717A2.827,2.827,0,0,0,0,2.848V33.713a2.812,2.812,0,0,0,2.717,2.824H3.77Z" fill="#fff" opacity="0.2" style="isolation: isolate"></path>
  <polygon points="46.098 3.848 46.098 32.689 3.79 32.689 3.79 3.848 46.098 3.848" fill="#59b4d9"></polygon>
  <polygon points="3.79 32.689 3.848 32.689 3.848 3.849 42.528 3.791 42.53 3.791 3.79 3.849 3.79 32.689" fill="#59b4d9"></polygon>
  <rect x="8.655" y="43.128" width="32.692" height="3.021" fill="#a0a1a2"></rect>
  <path d="M25.518,2.095a.709.709,0,1,1-.71-.71.71.71,0,0,1,.71.71" fill="#b8d432"></path>
  <path d="M24.847,11a15.518,15.518,0,0,1,13.038,7.061.29.29,0,0,1,.006.386,15.157,15.157,0,0,1-10.817,6.884A15.35,15.35,0,0,1,11.979,18.47a.313.313,0,0,1-.012-.408,15.3,15.3,0,0,1,10.8-6.871C23.48,11.084,24.2,11.057,24.847,11ZM14.1,18.251a13.561,13.561,0,0,0,21.658,0A13.56,13.56,0,0,0,14.1,18.251Z" fill="#fff" opacity="0.4" style="isolation: isolate"></path>
  <path d="M24.917,21.9a3.635,3.635,0,1,1,3.645-3.632A3.63,3.63,0,0,1,24.917,21.9Z" fill="#fff" opacity="0.7" style="isolation: isolate"></path>
</symbol>
                            </svg>