<svg>
                                <symbol id="svg-database-cloud" viewBox="0 0 50 50">
    <path fill="#A0A1A2" d="M0.039,6.8v36.3c0,3.8,8.4,6.8,18.9,6.8V6.8H0.039z"></path>
    <path opacity="0.1" fill="#FFFFFF" d="M0.039,6.8v36.3c0,3.8,8.4,6.8,18.9,6.8V6.8H0.039z"></path>
    <path fill="#A0A1A2" d="M18.639,50h0.3c10.4,0,18.9-3.1,18.9-6.8V6.8h-19.2V50z"></path>
    <path fill="#FFFFFF" d="M37.839,6.8c0,3.8-8.4,6.8-18.9,6.8s-18.9-3-18.9-6.8c0-3.7,8.5-6.8,18.9-6.8S37.839,3.1,37.839,6.8"></path>
    <path fill="#7FBA00" d="M33.939,6.4c0,2.5-6.7,4.5-15,4.5s-15-2-15-4.5s6.7-4.5,15-4.5S33.939,3.9,33.939,6.4"></path>
    <path fill="#B8D432" d="M30.839,9.2c2-0.8,3.1-1.7,3.1-2.8c0-2.5-6.7-4.5-15-4.5s-15,2-15,4.5c0,1,1.2,2,3.1,2.8 c2.7-1.1,7-1.8,11.9-1.8C23.739,7.4,28.039,8.1,30.839,9.2"></path>
    <path fill="#59B4D9" d="M49.961,44.926c0-2.802-2.249-5.073-5.028-5.073c-0.209,0-0.416,0.016-0.613,0.044 c0.307-1.139,0.476-2.338,0.476-3.576c0-7.467-6.004-13.521-13.407-13.521c-5.916,0-10.931,3.863-12.713,9.225 c-0.939-0.33-1.943-0.516-2.994-0.516c-5.065,0-9.164,4.139-9.164,9.244c0,5.108,4.099,9.247,9.164,9.247 c0,0,0.009-0.003,0.013-0.003V50h29.646l-0.005-0.025C47.923,49.771,49.961,47.592,49.961,44.926"></path>
    <path opacity="0.2" fill="#FFFFFF" d="M20.551,50c-1.205-1.197-2.103-2.737-2.511-4.521 c-1.136-4.976,1.939-9.925,6.876-11.052c1.024-0.234,2.044-0.276,3.033-0.163c0.448-4.649,3.284-8.784,7.509-10.825 c-1.284-0.412-2.65-0.639-4.07-0.639c-5.916,0-10.931,3.863-12.713,9.225c-0.939-0.33-1.942-0.516-2.994-0.516 c-5.065,0-9.164,4.139-9.164,9.244c0,5.108,4.099,9.247,9.164,9.247c0,0,0.009-0.003,0.013-0.003V50H20.551z"></path>
</symbol>
                            </svg>