<svg xmlns="http://www.w3.org/2000/svg">
                                
                            
  <path d="M23.732,12.402c-0.179-0.401-0.422-0.749-0.729-1.044c-0.308-0.294-0.668-0.529-1.081-0.7 S21.068,10.4,20.599,10.4c-0.082-0.624-0.268-1.205-0.558-1.745c-0.29-0.538-0.658-1.003-1.103-1.396 c-0.445-0.392-0.957-0.7-1.534-0.924S16.213,6,15.562,6c-0.434,0-0.856,0.052-1.266,0.155c-0.41,0.103-0.797,0.252-1.16,0.447 c-0.364,0.195-0.699,0.434-1.006,0.718c-0.308,0.284-0.579,0.604-0.813,0.958C11.042,8.226,10.769,8.2,10.5,8.2 c-0.621,0-1.205,0.115-1.753,0.344c-0.548,0.23-1.025,0.544-1.433,0.941c-0.408,0.399-0.728,0.866-0.962,1.401 C6.118,11.422,6,11.993,6,12.6c0,0.608,0.118,1.18,0.352,1.714c0.234,0.536,0.555,1.003,0.962,1.401 c0.408,0.399,0.884,0.712,1.433,0.941C9.295,16.886,9.879,17,10.5,17h10.125c0.463,0,0.9-0.086,1.31-0.258s0.769-0.408,1.077-0.709 s0.549-0.65,0.725-1.048C23.912,14.587,24,14.159,24,13.7C24,13.236,23.911,12.804,23.732,12.402z M22.699,14.555 c-0.118,0.266-0.278,0.501-0.483,0.7c-0.205,0.201-0.444,0.359-0.716,0.473c-0.272,0.115-0.564,0.172-0.875,0.172H10.5 c-0.469,0-0.906-0.086-1.314-0.258s-0.765-0.408-1.072-0.709s-0.549-0.65-0.725-1.048c-0.176-0.397-0.264-0.826-0.264-1.285 c0-0.452,0.088-0.879,0.264-1.28c0.176-0.401,0.417-0.752,0.725-1.053S8.778,9.73,9.186,9.558S10.031,9.3,10.5,9.3 c0.487,0,0.949,0.101,1.389,0.301c0.146-0.378,0.343-0.72,0.589-1.027c0.246-0.306,0.528-0.568,0.848-0.786 c0.32-0.217,0.669-0.387,1.05-0.507s0.777-0.18,1.187-0.18c0.545,0,1.056,0.101,1.534,0.301c0.478,0.201,0.895,0.476,1.252,0.825 c0.357,0.35,0.638,0.758,0.844,1.225c0.205,0.467,0.308,0.967,0.308,1.5v0.55h1.125c0.311,0,0.602,0.058,0.875,0.172 c0.272,0.115,0.511,0.273,0.716,0.473c0.205,0.201,0.366,0.434,0.483,0.7s0.176,0.552,0.176,0.855 C22.875,14.004,22.817,14.289,22.699,14.555z M11.453,6.584C11.689,6.366,11.947,6.176,12.214,6H3v1h8.061 C11.189,6.858,11.313,6.713,11.453,6.584z M5.593,15H1v1h5.253C5.998,15.693,5.777,15.361,5.593,15z M5.272,11H0v-1h5.704 c-0.091,0.161-0.194,0.313-0.269,0.485C5.363,10.651,5.326,10.828,5.272,11z"></path>
</svg>