<svg xmlns="http://www.w3.org/2000/svg">
                                
                            
  <path fill-rule="evenodd" clip-rule="evenodd" d="M124.823 0H5.9305C2.65538 0 0 2.66262 0 5.94667V106.734C0 110.018 2.65538 112.68 5.9305 112.68H124.823C128.097 112.68 130.754 110.018 130.754 106.734V5.94667C130.754 2.66262 128.097 0 124.823 0Z" transform="translate(1.2002 2.39813)" fill="white"></path>
  <path fill-rule="evenodd" clip-rule="evenodd" d="M29.7242 41.795C23.1051 41.795 17.7399 36.4136 17.7399 29.7765C17.7399 23.1394 23.1051 17.7594 29.7242 17.7594C36.3433 17.7594 41.7086 23.1394 41.7086 29.7765C41.7086 36.4136 36.3433 41.795 29.7242 41.795ZM58.1989 25.1647L50.5972 24.6843C50.1109 24.6541 49.7106 24.316 49.5715 23.8485C49.1683 22.4848 48.6304 21.1801 47.969 19.9502C47.7395 19.5216 47.7869 19.0009 48.1068 18.6355L53.1364 12.9147C53.6083 12.3781 53.5825 11.5682 53.079 11.0633L48.4295 6.40123C47.926 5.89488 47.1169 5.86899 46.5833 6.34225L40.8895 11.3755C40.5251 11.6977 40.0043 11.7423 39.5768 11.5107C38.346 10.8418 37.0405 10.2966 35.6734 9.88666C35.2086 9.74712 34.8729 9.34435 34.8428 8.85958L34.365 1.2673C34.3206 0.555253 33.7324 0 33.0194 0H26.4434C25.7318 0 25.1422 0.555253 25.0963 1.2673L24.62 8.85526C24.5899 9.34147 24.2542 9.74281 23.788 9.88234C22.4208 10.2923 21.1125 10.8375 19.8802 11.5064C19.4527 11.738 18.932 11.6919 18.5676 11.3697L12.8795 6.34225C12.3459 5.86899 11.5368 5.89488 11.0333 6.40123L6.38239 11.0633C5.88029 11.5682 5.85303 12.3781 6.325 12.9147L11.346 18.6268C11.6673 18.9908 11.7132 19.5129 11.4837 19.9402C10.8209 21.1744 10.2815 22.482 9.87699 23.85C9.73784 24.3175 9.33616 24.6541 8.85128 24.6857L1.26385 25.1647C0.553742 25.2093 0 25.8005 0 26.5155V33.1094C0 33.8229 0.553742 34.4141 1.26385 34.4587L8.8728 34.9392C9.35625 34.9694 9.75792 35.306 9.89708 35.7721C10.3045 37.13 10.8453 38.4289 11.5067 39.6531C11.7391 40.0832 11.6932 40.6053 11.3704 40.9707L6.325 46.7102C5.85303 47.2454 5.88029 48.0567 6.38239 48.5616L11.0333 53.2237C11.5368 53.7286 12.3459 53.7545 12.8795 53.2812L18.6164 48.2106C18.9808 47.8898 19.5001 47.8423 19.9261 48.0725C21.1455 48.7299 22.4352 49.265 23.7837 49.6692C24.2499 49.8087 24.5856 50.2115 24.6157 50.6963L25.0963 58.3562C25.1422 59.0682 25.7318 59.6249 26.4434 59.6249H33.0194C33.7324 59.6249 34.3206 59.0682 34.365 58.3562L34.8471 50.6934C34.8772 50.2072 35.2129 49.8044 35.6777 49.6649C37.0262 49.2607 38.313 48.7241 39.5295 48.0682C39.957 47.838 40.4777 47.884 40.8407 48.2063L46.5833 53.2812C47.1169 53.7545 47.926 53.7286 48.4295 53.2237L53.079 48.5616C53.5825 48.0567 53.6083 47.2454 53.1364 46.7102L48.0838 40.9606C47.761 40.5953 47.7151 40.0731 47.9461 39.6444C48.606 38.4217 49.144 37.1271 49.5514 35.7721C49.6905 35.3074 50.0908 34.9708 50.5742 34.9406L58.1989 34.4587C58.909 34.4141 59.4614 33.8229 59.4614 33.1094V26.514C59.4614 25.8005 58.909 25.2093 58.1989 25.1647Z" transform="translate(22.3945 41.0967)" fill="#ACD1EF"></path>
  <path fill-rule="evenodd" clip-rule="evenodd" d="M18.8735 22.4901C15.4492 23.9516 11.4926 22.3534 10.0365 18.9198C8.57902 15.4862 10.1743 11.5203 13.5971 10.0588C17.02 8.59728 20.978 10.1969 22.4341 13.6291C23.8916 17.0627 22.2978 21.0286 18.8735 22.4901ZM29.9512 7.60473L25.9129 9.03458C25.6561 9.12521 25.3735 9.0389 25.1985 8.82744C24.6921 8.21177 24.1269 7.65508 23.5143 7.16456C23.302 6.99482 23.2116 6.71432 23.2977 6.45539L24.6433 2.3845C24.7681 2.00474 24.5787 1.59046 24.2072 1.44086L20.7786 0.0556064C20.407 -0.0954337 19.9824 0.0714284 19.8103 0.432486L17.9711 4.29192C17.8535 4.53934 17.5924 4.67887 17.3213 4.65298C16.538 4.57818 15.7418 4.58393 14.9471 4.67456C14.6745 4.70477 14.4134 4.56955 14.2915 4.32645L12.3778 0.504412C12.1984 0.146231 11.7724 -0.0120024 11.4037 0.14623L8.00233 1.59765C7.63365 1.75445 7.45002 2.1716 7.58344 2.55136L9.00222 6.58054C9.09404 6.83803 9.00796 7.11997 8.79851 7.29546C8.18022 7.809 7.6236 8.37864 7.13298 8.99718C6.96227 9.21151 6.68396 9.30358 6.42431 9.21583L2.37883 7.87085C1.99867 7.7457 1.58551 7.93702 1.43775 8.30959L0.054828 11.7475C-0.0943669 12.1201 0.0706089 12.5445 0.43212 12.7185L4.2825 14.5626C4.52925 14.6806 4.6684 14.941 4.64258 15.2128C4.56941 15.9968 4.57802 16.7937 4.66983 17.5892C4.69996 17.8625 4.56654 18.1258 4.32123 18.248L0.502413 20.1713C0.145206 20.3511 -0.011157 20.7783 0.145211 21.148L1.59269 24.5586C1.74905 24.9283 2.16651 25.111 2.5438 24.9772L6.58498 23.5474C6.84033 23.4553 7.12294 23.5416 7.29652 23.7502C7.80579 24.3644 8.37101 24.9168 8.9807 25.403C9.19589 25.5742 9.28483 25.8547 9.20019 26.1151L7.85027 30.196C7.72546 30.5787 7.91482 30.9915 8.28638 31.1411L11.7164 32.5278C12.088 32.6774 12.5097 32.512 12.6833 32.1495L14.5382 28.2613C14.6544 28.0139 14.9126 27.8758 15.1852 27.9002C15.9584 27.9707 16.7446 27.9635 17.5293 27.8743C17.8019 27.8441 18.0644 27.9779 18.1863 28.2224L20.1158 32.0775C20.2951 32.4357 20.7226 32.5925 21.0913 32.4357L24.4912 30.9843C24.8599 30.8275 25.0436 30.4104 24.9101 30.032L23.477 25.9626C23.3866 25.7037 23.4713 25.4217 23.6821 25.2477C24.289 24.7399 24.837 24.1789 25.3219 23.5704C25.4926 23.3575 25.7723 23.2669 26.0305 23.3532L30.1147 24.7097C30.4949 24.8363 30.9081 24.6449 31.0573 24.2724L32.4387 20.8344C32.5894 20.4618 32.423 20.0375 32.0615 19.8649L28.1852 18.0064C27.9385 17.8884 27.8008 17.628 27.8266 17.3562C27.8998 16.578 27.894 15.7897 27.8065 14.9985C27.7764 14.7281 27.9098 14.4648 28.1537 14.3426L31.9912 12.4121C32.3484 12.2309 32.5047 11.8037 32.3484 11.434L30.9009 8.02333C30.7431 7.65508 30.3271 7.47096 29.9512 7.60473Z" transform="translate(79.2773 37.2798)" fill="#ACD1EF"></path>
  <path fill-rule="evenodd" clip-rule="evenodd" d="M8.64183 2.87695H1.43457C0.641251 2.87695 0 2.23252 0 1.43848C0 0.644438 0.641251 0 1.43457 0H8.64183C9.43514 0 10.0764 0.644438 10.0764 1.43848C10.0764 2.23252 9.43514 2.87695 8.64183 2.87695ZM23.0564 2.87695H15.8477C15.0558 2.87695 14.4131 2.23252 14.4131 1.43848C14.4131 0.644438 15.0558 0 15.8477 0H23.0564C23.8497 0 24.4909 0.644438 24.4909 1.43848C24.4909 2.23252 23.8497 2.87695 23.0564 2.87695ZM37.4709 2.87695H30.2636C29.4717 2.87695 28.8291 2.23252 28.8291 1.43848C28.8291 0.644438 29.4717 0 30.2636 0H37.4709C38.2628 0 38.9054 0.644438 38.9054 1.43848C38.9054 2.23252 38.2628 2.87695 37.4709 2.87695ZM51.8854 2.87695H44.6781C43.8848 2.87695 43.2436 2.23252 43.2436 1.43848C43.2436 0.644438 43.8848 0 44.6781 0H51.8854C52.6773 0 53.32 0.644438 53.32 1.43848C53.32 2.23252 52.6773 2.87695 51.8854 2.87695ZM66.2985 2.87695H59.0927C58.2994 2.87695 57.6581 2.23252 57.6581 1.43848C57.6581 0.644438 58.2994 0 59.0927 0H66.2985C67.0918 0 67.7331 0.644438 67.7331 1.43848C67.7331 2.23252 67.0918 2.87695 66.2985 2.87695ZM80.7145 2.87695H73.5072C72.7139 2.87695 72.0726 2.23252 72.0726 1.43848C72.0726 0.644438 72.7139 0 73.5072 0H80.7145C81.5078 0 82.149 0.644438 82.149 1.43848C82.149 2.23252 81.5078 2.87695 80.7145 2.87695ZM95.129 2.87695H87.9217C87.1284 2.87695 86.4872 2.23252 86.4872 1.43848C86.4872 0.644438 87.1284 0 87.9217 0H95.129C95.9223 0 96.5636 0.644438 96.5636 1.43848C96.5636 2.23252 95.9223 2.87695 95.129 2.87695ZM109.544 2.87695H102.336C101.543 2.87695 100.902 2.23252 100.902 1.43848C100.902 0.644438 101.543 0 102.336 0H109.544C110.337 0 110.978 0.644438 110.978 1.43848C110.978 2.23252 110.337 2.87695 109.544 2.87695Z" transform="translate(11.5107 18.925)" fill="#0078D7"></path>
  <path fill-rule="evenodd" clip-rule="evenodd" d="M126.885 112.685H7.11689C5.56612 112.685 4.3037 111.42 4.3037 109.865V21.8016H5.7397C6.53158 21.8016 7.17427 21.1586 7.17427 20.3631C7.17427 19.569 6.53158 18.9246 5.7397 18.9246H4.3037V7.13629C4.3037 5.58129 5.56612 4.31543 7.11689 4.31543H126.885C128.435 4.31543 129.696 5.58129 129.696 7.13629V18.9246H128.262C127.468 18.9246 126.827 19.569 126.827 20.3631C126.827 21.1586 127.468 21.8016 128.262 21.8016H129.696V109.865C129.696 111.42 128.435 112.685 126.885 112.685ZM126.885 0H7.11689C3.19191 0 0 3.20205 0 7.13629V109.865C0 113.799 3.19191 117 7.11689 117H126.885C130.808 117 134 113.799 134 109.865V7.13629C134 3.20205 130.808 0 126.885 0Z" fill="#0078D7"></path>
</svg>