<svg xmlns="http://www.w3.org/2000/svg">
                                
                            
	<g fill="none">
		<path d="M 144.054 9.62844e-07C 144.054 9.62844e-07 88.2584 2.77644 56.3028 52.7524L 1.93494e-06 131.755L 68.9836 180.469L 127.062 98.9423C 127.062 99.1947 160.539 57.5481 144.054 9.62844e-07Z" stroke-width="4" stroke-miterlimit="10" transform="translate(63.6431 22.9688)" stroke="#00A2F2"></path>
		<path d="M 3.99829e-06 0C 3.99829e-06 0 20.1765 30.36 49 33" stroke-width="4" stroke-miterlimit="10" transform="translate(160 39)" stroke="#00A2F2"></path>
		<path d="M 32.7165 49.7236L 4.83735e-07 55.2764L 35.5063 5.55289L 69.2372 1.92569e-06" stroke-width="4" stroke-miterlimit="10" transform="translate(32.1949 100.204)" stroke="#00A2F2"></path>
		<path d="M 1.93494e-06 50.7332L 5.57956 83.2933L 41.0858 33.8221L 35.2526 1.92569e-06" stroke-width="4" stroke-miterlimit="10" transform="translate(135.924 149.423)" stroke="#00A2F2"></path>
		<path d="M 31.9556 3.53365L 28.1514 19.9399L 1.93494e-06 -3.85138e-06" stroke-width="4" stroke-miterlimit="10" transform="translate(83.9323 190.818)" stroke="#00A2F2"></path>
		<path d="M 14.2025 7.70275e-06L 9.67469e-07 9.08654L 28.1514 29.0265" stroke-width="4" stroke-miterlimit="10" transform="translate(63.3895 167.344)" stroke="#00A2F2"></path>
		<path opacity="0.2" d="M 28.1514 7.70275e-06L 0 39.1226" stroke-width="2" stroke-miterlimit="20" stroke-linecap="round" stroke-dasharray="5 5" transform="translate(30.1658 191.322)" stroke="#00A2F2"></path>
    <path opacity="0.2" d="M 51.4841 3.85138e-06L 9.67469e-07 71.9351" stroke-width="2" stroke-miterlimit="20" stroke-linecap="round" stroke-dasharray="5 5" transform="translate(48.1725 220.601)" stroke="#00A2F2"></path>
    <path opacity="0.2" d="M 77.8602 -3.85138e-06L 0 109.038" stroke-width="2" stroke-miterlimit="20" stroke-linecap="round" stroke-dasharray="5 5" transform="translate(1 205.961)" stroke="#00A2F2"></path>
    <path opacity="0.2" d="M 34.682 28.7109L 30.8778 23.158C 27.8344 18.6148 26.8199 12.8095 28.3416 7.50901L 30.1169 0.946518C 30.1169 0.694114 30.1169 0.441703 29.8633 0.189299C 29.6097 -0.0631048 29.3561 -0.0631048 29.1025 0.189299L 23.5229 3.97536C 18.9578 7.0042 13.1246 8.01382 7.79869 6.49939L 0.951065 4.98498C 0.697448 4.98498 0.443824 4.98497 0.190208 5.23738C -0.0634079 5.48978 -0.0634079 5.74219 0.190208 5.99459L 3.99445 11.5475C 7.03785 16.0907 8.05231 21.896 6.53061 27.1965L 5.00892 33.759C 5.00892 34.0114 5.00892 34.2638 5.26253 34.5162C 5.51615 34.7686 5.76977 34.7686 6.02339 34.5162L 11.6029 30.7302C 16.168 27.7013 22.0012 26.6917 27.3272 28.2061L 33.9212 29.973C 34.1748 29.973 34.4284 29.973 34.682 29.7206C 34.682 29.2158 34.682 28.9633 34.682 28.7109Z" transform="translate(229.318 154.03)" fill="#00A2F2"></path>
    <path opacity="0.2" d="M 17.7531 14.8918L 15.7242 11.863C 14.2025 9.59134 13.6953 6.5625 14.4561 3.78606L 15.4706 0.252404C 15.4706 0 15.4706 0 15.4706 0L 15.217 0L 12.1736 2.01923C 9.89104 3.53365 6.84764 4.03846 4.05786 3.28125L 0.253618 2.52404C 1.92738e-06 2.52404 -3.86988e-06 2.52404 -3.86988e-06 2.52404L -3.86988e-06 2.77644L 2.02893 5.80529C 3.55063 8.07692 4.05786 11.1058 3.29701 13.8822L 2.28255 17.4159C 2.28255 17.6683 2.28255 17.6683 2.28255 17.6683L 2.53616 17.6683L 5.57955 15.649C 7.8621 14.1346 10.9055 13.6298 13.6953 14.387L 17.2459 15.3966C 17.4995 15.3966 17.4995 15.3966 17.4995 15.3966C 18.0068 15.1442 18.0067 14.8918 17.7531 14.8918Z" transform="translate(109.04 0)" fill="#00A2F2"></path>
	</g>
</svg>