<svg xmlns="http://www.w3.org/2000/svg">
                                
                            
	<path d="M14.3,48H0V3c0-0.4,0.1-0.8,0.2-1.2c0.2-0.4,0.4-0.7,0.6-0.9c0.3-0.3,0.6-0.5,0.9-0.6C2.2,0.1,2.6,0,3,0h18
		c0.4,0,0.8,0.1,1.2,0.2c0.4,0.2,0.7,0.4,0.9,0.6c0.3,0.3,0.5,0.6,0.6,0.9C23.9,2.2,24,2.6,24,3v20.6L21,25V3H3v42h6.2L14.3,48z
		  M36,45h3c0.8,0,1.6-0.2,2.3-0.5c0.7-0.3,1.4-0.7,1.9-1.3c0.5-0.6,1-1.2,1.3-1.9c0.3-0.7,0.5-1.5,0.5-2.3c0-0.8-0.2-1.6-0.5-2.4
		c-0.3-0.7-0.8-1.4-1.3-1.9c-0.6-0.5-1.2-1-2-1.2c-0.8-0.3-1.6-0.4-2.4-0.4c-0.5-3.8-3.1-7-6.6-8.3c-2.3-0.9-4.8-0.9-7.1-0.1
		c-1.1,0.4-2.1,0.9-3,1.6c-0.9,0.7-1.7,1.5-2.3,2.5c-0.6,1-1.1,2-1.4,3.2c-0.7-0.6-1.4-1.1-2.3-1.4c-0.8-0.3-1.7-0.5-2.6-0.5
		c-1,0-2,0.2-2.9,0.6c-0.9,0.4-1.7,0.9-2.4,1.6c-0.7,0.7-1.2,1.5-1.6,2.4C6.2,35.5,6,36.5,6,37.5c0,1,0.2,2,0.6,2.9
		c0.8,1.8,2.2,3.2,4,4c0.9,0.4,1.9,0.6,2.9,0.6L36,45L36,45z M12.2,27.1c0.2,0,0.4-0.1,0.7-0.1s0.4,0,0.7,0c1.2,0,2.3,0.2,3.4,0.6
		c1-1.6,2.2-3,3.7-4.1c1.5-1.1,3.2-1.9,5-2.3c0,0,1.1-0.2,1.7-0.2c0.6-0.1,1.6-0.1,1.6-0.1c1.4,0,2.7,0.3,4,0.8
		c1.3,0.5,2.5,1.1,3.6,1.9c1.1,0.8,2.1,1.8,2.9,2.9c0.8,1.1,1.4,2.4,1.9,3.7c1.9,0.5,3.6,1.6,4.8,3.2c0.6,0.8,1.1,1.6,1.4,2.6
		c0.7,2.1,0.7,4.4-0.2,6.4c-0.5,1.1-1.1,2-1.9,2.9c-0.8,0.8-1.8,1.5-2.9,1.9C41.4,47.8,40.2,48,39,48H13.5c-1.4,0-2.8-0.3-4.1-0.8
		c-1.2-0.5-2.4-1.3-3.3-2.3c-1-1-1.7-2.1-2.3-3.3c-0.9-2.3-1.1-4.8-0.4-7.1c0.3-1,0.7-1.9,1.3-2.7c0.5-0.8,1.2-1.6,2-2.2
		c0.8-0.7,1.6-1.2,2.6-1.6c0,0,1-0.4,1.5-0.5C11.2,27.2,11.7,27.1,12.2,27.1z M6,6h12v3H6V6z M6,12h12v3H6V12z M6,18h12v3H6V18z"></path>
</svg>