<svg>
                                <symbol id="svg-play" viewBox="0 0 16 16">
    <path d="M15.715,5.875c-0.19-0.682-0.46-1.319-0.809-1.91c-0.349-0.591-0.767-1.13-1.254-1.617 c-0.487-0.487-1.026-0.905-1.617-1.254c-0.591-0.349-1.228-0.618-1.91-0.809C9.442,0.095,8.734,0,8,0S6.558,0.095,5.875,0.285 c-0.683,0.19-1.319,0.46-1.91,0.809c-0.591,0.349-1.13,0.767-1.617,1.254C1.86,2.835,1.442,3.374,1.094,3.965 c-0.349,0.591-0.619,1.228-0.809,1.91C0.095,6.558,0,7.266,0,8c0,0.74,0.095,1.449,0.285,2.129c0.19,0.68,0.458,1.316,0.805,1.91 c0.346,0.594,0.763,1.134,1.25,1.621c0.487,0.487,1.027,0.904,1.621,1.25c0.594,0.347,1.231,0.615,1.914,0.805 C6.558,15.905,7.266,16,8,16s1.442-0.095,2.125-0.285c0.683-0.19,1.319-0.459,1.91-0.809c0.591-0.349,1.13-0.767,1.617-1.254 c0.487-0.487,0.905-1.026,1.254-1.617c0.349-0.591,0.618-1.228,0.809-1.91C15.905,9.443,16,8.734,16,8S15.905,6.558,15.715,5.875z M14.75,9.863c-0.167,0.597-0.402,1.154-0.707,1.672c-0.305,0.519-0.669,0.99-1.094,1.414c-0.425,0.425-0.896,0.789-1.414,1.094 s-1.075,0.541-1.672,0.707C9.267,14.917,8.646,15,8,15s-1.267-0.083-1.863-0.25c-0.597-0.167-1.153-0.401-1.672-0.703 c-0.519-0.302-0.991-0.667-1.418-1.094c-0.427-0.427-0.792-0.899-1.094-1.418C1.651,11.017,1.417,10.46,1.25,9.863 C1.083,9.267,1,8.646,1,8c0-0.646,0.083-1.267,0.25-1.863c0.167-0.596,0.402-1.153,0.707-1.672c0.305-0.518,0.669-0.989,1.094-1.414 c0.425-0.424,0.896-0.789,1.414-1.094S5.54,1.417,6.137,1.25C6.733,1.083,7.354,1,8,1s1.267,0.083,1.863,0.25 c0.597,0.167,1.153,0.402,1.672,0.707s0.989,0.669,1.414,1.094c0.425,0.425,0.789,0.896,1.094,1.414 c0.305,0.519,0.54,1.076,0.707,1.672C14.917,6.733,15,7.354,15,8C15,8.646,14.917,9.267,14.75,9.863z"></path>
    <path d="M6,4v8l6-4.023L6,4z M7,5.859l3.195,2.125L7,10.125V5.859z"></path>
</symbol>
                            </svg>