<svg xmlns="http://www.w3.org/2000/svg" viewBox="0 0 50 50">
                                
                            
    <path fill="#0072C6" d="M6.3,6.9v36.1c0,3.7,8.4,6.8,18.7,6.8V6.9H6.3z"></path>
    <path fill="#0072C6" d="M24.7,49.8H25c10.4,0,18.7-3,18.7-6.8V6.9h-19V49.8z"></path>
    <path opacity="0.15" fill="#FFFFFF" d="M24.7,49.8H25c10.4,0,18.7-3,18.7-6.8V6.9h-19V49.8z"></path>
    <path fill="#FFFFFF" d="M43.7,6.9c0,3.7-8.4,6.8-18.7,6.8s-18.7-3-18.7-6.8c0-3.7,8.4-6.8,18.7-6.8S43.7,3.2,43.7,6.9"></path>
    <path fill="#7FBA00" d="M39.9,6.6C39.9,9,33.2,11,25,11S10.1,9,10.1,6.6c0-2.5,6.7-4.5,14.9-4.5S39.9,4.1,39.9,6.6"></path>
    <path fill="#B8D432" d="M36.8,9.3c2-0.8,3.1-1.7,3.1-2.7c0-2.5-6.7-4.5-14.9-4.5c-8.2,0-14.9,2-14.9,4.5c0,1,1.2,2,3.1,2.7 c2.7-1.1,7-1.7,11.8-1.7C29.8,7.5,34.1,8.2,36.8,9.3"></path>
    <path fill="#FFFFFF" d="M23.7,20c0.8,0.8,1.4,1.6,1.7,2.5c0.3,0.6,0.7,2.1,1.4,4.5l2.1-3.1c0.6-0.8,1.2-1.5,2-2.2 c0.8-0.7,1.5-1.2,2.1-1.4c0.4-0.2,0.8-0.2,1.2-0.2c0.7,0,1.2,0.2,1.6,0.5c0.4,0.4,0.6,0.8,0.6,1.3c0,0.6-0.1,1-0.4,1.2 c-0.4,0.4-0.9,0.6-1.5,0.6c-0.3,0-0.7-0.1-1.1-0.2c-0.7-0.3-1.2-0.4-1.5-0.4c-0.4,0-0.8,0.2-1.3,0.7c-1,0.8-2.1,2.4-3.5,4.7l1.9,8.1 c0.3,1.2,0.6,2,0.8,2.2c0.2,0.2,0.4,0.4,0.6,0.4c0.3,0,0.7-0.2,1.2-0.5c0.9-0.7,1.6-1.7,2.2-2.8l0.8,0.4c-1,1.9-2.2,3.4-3.8,4.6 c-0.9,0.7-1.6,1-2.2,1c-0.9,0-1.6-0.5-2.1-1.5c-0.3-0.6-1-3.3-2.1-7.9c-2.5,4.3-4.4,7-5.9,8.2c-1,0.8-1.9,1.2-2.8,1.2 c-0.6,0-1.2-0.2-1.7-0.7c-0.4-0.3-0.6-0.8-0.6-1.4c0-0.5,0.2-1,0.5-1.3c0.3-0.3,0.8-0.5,1.3-0.5c0.5,0,1,0.3,1.6,0.8 c0.4,0.4,0.7,0.5,0.9,0.5c0.2,0,0.4-0.1,0.7-0.4c0.7-0.6,1.7-1.9,3-3.9s2.1-3.4,2.5-4.3c-1-3.8-1.5-5.8-1.6-6.1 c-0.4-1-0.8-1.7-1.4-2.2c-0.6-0.4-1.4-0.6-2.6-0.6c-0.4,0-0.8,0-1.2,0v-0.8L23.7,20z"></path>
</svg>