<svg xmlns="http://www.w3.org/2000/svg">
                                
                            
    <path d="M32.622,37.917h-13.6c1.6,5.8-.6,6.6-10.2,6.6v3h32.6v-3c-9.5,0-10.4-.8-8.8-6.6" fill="#7c7b7b"></path>
    <path d="M47.222.217H2.922a2.866,2.866,0,0,0-2.7,2.9v32a2.775,2.775,0,0,0,2.7,2.8h44.3a3.045,3.045,0,0,0,3-2.8v-32a3.134,3.134,0,0,0-3-2.9m-.8,3.9v29.9H4.022V4.117l42.4-.1Z" fill="#9fa0a2"></path>
    <polygon points="46.422 34.017 4.022 34.017 4.022 4.117 46.422 4.017 46.422 34.017" fill="#5bb4da"></polygon>
    <path d="M4.022,34.017h0V4.117l38.7-.1,4.5-3.8H2.922a2.866,2.866,0,0,0-2.7,2.9v32a2.775,2.775,0,0,0,2.7,2.8h1.1l4.6-3.8h-4.6Z" fill="#fff" opacity="0.2" style="isolation:isolate"></path>
    <polygon points="4.022 34.017 4.022 34.017 4.022 4.117 42.722 4.017 42.722 4.017 4.022 4.117 4.022 34.017" fill="#5bb4da"></polygon><rect x="8.922" y="44.517" width="32.7" height="3" fill="#9fa0a2"></rect>
    <path d="M18.809,19.417l-.5-.5a.446.446,0,0,1,0-.5l1.4-1.2c0-.1.1-.1.2-.1s.2,0,.2.1l3.7,4,6.4-8.1a.367.367,0,0,1,.3-.1c.1,0,.1,0,.2.1l1.5,1c.1.1.1.1.1.2s0,.2-.1.2l-8.3,10.5Z" fill="#fff"></path>
</svg>