<svg>
                                <symbol id="svg-search-category" viewBox="0 0 512 512">
          <path stroke="none" stroke-width="1" fill-rule="evenodd" fill="#0063B1" transform="translate(113.000000, 130.000000)" d="M159.183192,182.939256 C115.212986,182.939256 79.5167122,147.299887 79.5167122,103.272776 C79.5167122,59.2456646 115.212986,23.6062958 159.183192,23.6062958 C203.153398,23.6062958 238.849672,59.2456646 238.849672,103.272776 C238.849672,147.299887 203.153398,182.939256 159.183192,182.939256 M159.183192,0.844444444 C102.585849,0.844444444 56.7548608,46.7323368 56.7548608,103.272776 C56.7548608,129.118858 66.4058858,152.671684 82.2083011,170.69907 L0.777777778,252.129593 L16.8704067,268.222222 L99.0406902,186.057629 C115.935674,198.354719 136.671721,205.701107 159.183192,205.701107 C215.780536,205.701107 261.611523,159.813215 261.611523,103.272776 C261.611523,46.7323368 215.780536,0.844444444 159.183192,0.844444444"></path>
</symbol>
                            </svg>