<svg xmlns="http://www.w3.org/2000/svg" viewBox="0 0 31 35">
                                
                            
    <path d="M1348.16 0H1207.69V543.028L1055.65 390.98L952.833 492.345L1275.75 812.369L1601.57 485.105L1500.2 385.188L1348.16 537.235V0ZM1655.15 1760.86L1980.96 1435.04L1660.94 1115.02L1559.58 1214.93L1778.23 1435.04L1553.78 1659.49L1655.15 1760.86ZM794.992 1435.04L1015.1 1214.93L913.735 1115.02L593.71 1435.04L918.079 1760.86L1020.89 1659.49L794.992 1435.04ZM1304.71 1876.7L1432.15 1860.77L1313.4 960.073L1185.97 977.45L1304.71 1876.7ZM2229.31 2474.03C2229.31 2474.03 2224.12 2468.84 2213.74 2458.47C2203.36 2448.09 2183.21 2442.9 2153.29 2442.9C2123.36 2442.9 2098.02 2453.28 2077.26 2474.03C2056.51 2494.79 2046.13 2520.13 2046.13 2550.06C2046.13 2579.98 2056.51 2605.33 2077.26 2626.08C2098.02 2646.84 2123.36 2657.22 2153.29 2657.22C2183.21 2657.22 2208.55 2646.84 2229.31 2626.08C2250.07 2605.33 2260.44 2579.98 2260.44 2550.06C2260.44 2520.13 2250.07 2494.79 2229.31 2474.03ZM1862.22 2474.03C1862.22 2474.03 1856.91 2468.84 1846.29 2458.47C1835.67 2448.09 1815.88 2442.9 1786.92 2442.9C1757.96 2442.9 1733.34 2453.28 1713.07 2474.03C1692.8 2494.79 1682.66 2520.13 1682.66 2550.06C1682.66 2579.98 1692.8 2605.33 1713.07 2626.08C1733.34 2646.84 1757.96 2657.22 1786.92 2657.22C1815.88 2657.22 1840.98 2646.84 1862.22 2626.08C1883.46 2605.33 1894.08 2579.98 1894.08 2550.06C1894.08 2520.13 1883.46 2494.79 1862.22 2474.03ZM1499.48 2474.03C1499.48 2474.03 1494.29 2468.84 1483.91 2458.47C1473.54 2448.09 1453.38 2442.9 1423.46 2442.9C1393.53 2442.9 1368.19 2453.28 1347.43 2474.03C1326.68 2494.79 1316.3 2520.13 1316.3 2550.06C1316.3 2579.98 1326.68 2605.33 1347.43 2626.08C1368.19 2646.84 1393.53 2657.22 1423.46 2657.22C1453.38 2657.22 1478.72 2646.84 1499.48 2626.08C1520.24 2605.33 1530.61 2579.98 1530.61 2550.06C1530.61 2520.13 1520.24 2494.79 1499.48 2474.03ZM2426.97 2823.74H141.911V2272.03H2426.97V2823.74ZM2567.43 396.772H1759.41V538.683H2426.97V2128.67H141.911V538.683H797.889V396.772H0V2965.66H2567.43V396.772Z" transform="translate(0 34.6982) scale(0.0117 -0.0117)" fill="#78787D"></path>
</svg>