<svg xmlns="http://www.w3.org/2000/svg" viewBox="0 0 24 18">
                                
                            
  <path d="M20.6739,13.497 C19.6833,13.4658 18.74535,13.32735 17.86005,13.08165 C16.97475,12.83595 16.13625,12.49665 15.34455,12.06375 C14.55285,11.63085 13.8021,11.1141 13.0923,10.5135 C12.3825,9.9129 11.7117,9.2499 11.0799,8.5245 C10.8147,8.2203 10.5495,7.9239 10.2843,7.6353 C10.0191,7.3467 9.7383,7.0659 9.4419,6.7929 C8.1315,5.5995 6.6807,4.6713 5.0895,4.0083 C3.4983,3.3453 1.8096,3.0138 0.0234,3.0138 L0.0234,4.5114 C1.0452,4.5114 2.01435,4.63035 2.93085,4.86825 C3.84735,5.10615 4.7151,5.44155 5.5341,5.87445 C6.3531,6.30735 7.12725,6.82995 7.85655,7.44225 C8.58585,8.05455 9.2781,8.7351 9.9333,9.4839 C10.2063,9.8037 10.48125,10.1118 10.75815,10.4082 C11.03505,10.7046 11.3295,10.9932 11.6415,11.274 C12.2733,11.8356 12.93825,12.3426 13.63635,12.795 C14.33445,13.2474 15.06375,13.6335 15.82425,13.9533 C16.58475,14.2731 17.37255,14.52075 18.18765,14.69625 C19.00275,14.87175 19.8354,14.9712 20.6856,14.9946 L18.9657,16.7145 L20.0187,17.7675 L23.5521,14.2458 L20.0187,10.7241 L18.9657,11.7771 L20.6739,13.497 L20.6739,13.497 Z M9.4419,11.2038 C9.2703,11.0166 9.10455,10.82745 8.94465,10.63635 C8.78475,10.44525 8.6151,10.2561 8.4357,10.0689 C7.8585,10.5993 7.24425,11.07705 6.59295,11.50215 C5.94165,11.92725 5.2611,12.288 4.5513,12.5844 C3.8415,12.8808 3.1083,13.107 2.3517,13.263 C1.5951,13.419 0.819,13.497 0.0234,13.497 L0.0234,14.9946 C1.8096,14.9946 3.4983,14.66115 5.0895,13.99425 C6.6807,13.32735 8.1315,12.3972 9.4419,11.2038 L9.4419,11.2038 Z M20.0187,7.2843 L23.5521,3.7626 L20.0187,0.2409 L18.9657,1.2939 L20.6856,3.0138 C19.8276,3.0372 18.98715,3.1386 18.16425,3.318 C17.34135,3.4974 16.5477,3.74895 15.7833,4.07265 C15.0189,4.39635 14.28375,4.7883 13.57785,5.2485 C12.87195,5.7087 12.2031,6.2274 11.5713,6.8046 C11.7429,6.9918 11.90865,7.18095 12.06855,7.37205 C12.22845,7.56315 12.3981,7.7523 12.5775,7.9395 C13.1391,7.4247 13.7319,6.9606 14.3559,6.5472 C14.9799,6.1338 15.63315,5.7789 16.31565,5.4825 C16.99815,5.1861 17.70405,4.956 18.43335,4.7922 C19.16265,4.6284 19.9095,4.5348 20.6739,4.5114 L18.9657,6.2313 L20.0187,7.2843 Z" transform="matrix(1 0 0 -1 0 18.008)"></path>
</svg>