<svg xmlns="http://www.w3.org/2000/svg">
                                
                            
    <path d="M291.1,498.9l-41.4,40.9l-41.4,40.7c-8.4,8.4-12.7,19.5-12.7,30.4c0,11.1,4.2,22.2,12.4,30.6l0.3,0.3
			l0.3,0.3c4.2,4.2,9,7.4,14,9.8s11.1,3.4,16.9,3.4l0,0l0,0c5.5,0,11.4-1.1,16.4-3.4c5-2.4,9.8-5.3,13.7-9.2l41.2-40.7l41.2-40.7
			c-11.9-8.4-22.7-18-32.7-28.5C308.5,522.7,299.3,511.3,291.1,498.9z"></path>
    <path d="M488.8,162.8c-55.4,0-105.9,22.7-142.3,59.1s-58.9,86.6-58.6,142.6c0,55.4,22.7,105.9,59.1,142.3
			c36.7,36.4,86.6,58.9,142.6,58.6c55.4,0,105.9-22.7,142.3-59.1c36.4-36.7,58.9-86.6,58.6-142.6c0-55.4-22.7-105.9-59.1-142.3
			S544.8,162.6,488.8,162.8z M488,497.8c-36.7-0.3-70-15.3-93.7-39.9c-23.8-24.6-38.3-58.1-38-95c0.5-36.4,15.6-69.2,39.9-92.9
			c24.3-23.8,57.8-38.3,94.8-38c36.4,0.3,69.4,15.3,93.2,39.3c23.8,24,38.5,57.3,38.5,94c0,37-15,70.2-39.3,94.2
			C558.5,483.3,525,498.1,488,497.8z"></path>
</svg>