<svg xmlns="http://www.w3.org/2000/svg">
                                
                            
    <path d="M1180.93 1539.5C1158.9 1504.04 1133.28 1471.7 1104.07 1442.47C1074.85 1413.24 1042.53 1387.61 1007.09 1365.57L1080.36 1187.32L910.836 1118.33L837.567 1295.13C799.256 1285.55 758.073 1280.76 714.015 1280.76C669.958 1280.76 628.774 1285.55 590.463 1295.13L517.194 1118.33L347.669 1187.32L420.939 1365.57C385.501 1387.61 353.177 1413.24 323.965 1442.47C294.753 1471.7 269.133 1504.04 247.104 1539.5L68.9592 1466.19L0 1635.8L176.708 1709.11C167.13 1747.45 162.341 1788.65 162.341 1832.73C162.341 1876.82 167.13 1918.02 176.708 1956.35L0 2029.66L68.9592 2199.28L247.104 2125.97C291.161 2197.84 349.106 2255.82 420.939 2299.9L347.669 2478.14L517.194 2547.14L590.463 2370.34C628.774 2379.92 669.958 2384.71 714.015 2384.71C758.073 2384.71 799.256 2379.92 837.567 2370.34L910.836 2547.14L1080.36 2478.14L1007.09 2299.9C1078.92 2255.82 1136.87 2197.84 1180.93 2125.97L1359.07 2199.28L1428.03 2029.66L1251.32 1956.35C1260.9 1918.02 1265.69 1876.82 1265.69 1832.73C1265.69 1788.65 1260.9 1747.45 1251.32 1709.11L1428.03 1635.8L1359.07 1466.19L1180.93 1539.5ZM714.015 1464.75C764.777 1464.75 812.426 1474.33 856.962 1493.5C901.498 1512.66 940.527 1539.02 974.049 1572.56C1007.57 1606.1 1033.91 1645.15 1053.06 1689.71C1072.22 1734.27 1081.8 1781.94 1081.8 1832.73C1081.8 1883.52 1072.22 1931.2 1053.06 1975.76C1033.91 2020.32 1007.57 2059.37 974.049 2092.91C940.527 2126.45 901.498 2152.8 856.962 2171.97C812.426 2191.13 764.777 2200.72 714.015 2200.72C663.254 2200.72 615.605 2191.13 571.068 2171.97C526.532 2152.8 487.503 2126.45 453.982 2092.91C420.46 2059.37 394.121 2020.32 374.966 1975.76C355.81 1931.2 346.233 1883.52 346.233 1832.73C346.233 1781.94 355.81 1734.27 374.966 1689.71C394.121 1645.15 420.46 1606.1 453.982 1572.56C487.503 1539.02 526.532 1512.66 571.068 1493.5C615.605 1474.33 663.254 1464.75 714.015 1464.75ZM2736.82 820.777C2736.82 768.071 2730.11 714.886 2716.71 661.222L2913.53 580.725L2844.57 409.67L2646.31 491.604C2589.8 397.691 2515.1 322.944 2422.19 267.363L2504.08 70.4345L2333.12 0L2252.67 196.929C2199.03 183.513 2145.88 176.805 2093.2 176.805C2040.52 176.805 1987.37 183.513 1933.73 196.929L1853.28 0L1682.32 70.4345L1764.21 267.363C1670.35 322.944 1595.64 397.691 1540.09 491.604L1341.83 409.67L1272.87 580.725L1469.69 661.222C1456.28 714.886 1449.58 768.071 1449.58 820.777C1449.58 873.483 1456.28 926.668 1469.69 980.333L1272.87 1060.83L1341.83 1231.88L1540.09 1149.95C1595.64 1242.9 1670.35 1317.65 1764.21 1374.19L1682.32 1572.56L1853.28 1641.55L1933.73 1444.63C1987.37 1458.04 2040.52 1464.75 2093.2 1464.75C2145.88 1464.75 2199.03 1458.04 2252.67 1444.63L2333.12 1641.55L2504.08 1572.56L2422.19 1374.19C2515.1 1317.65 2589.8 1242.9 2646.31 1149.95L2844.57 1231.88L2913.53 1060.83L2716.71 980.333C2730.11 926.668 2736.82 873.483 2736.82 820.777ZM2093.2 360.797C2156.41 360.797 2215.79 372.776 2271.34 396.733C2326.89 420.69 2375.5 453.512 2417.16 495.197C2458.83 536.883 2491.87 585.756 2516.29 641.816C2540.72 697.876 2552.93 757.53 2552.93 820.777C2552.93 884.024 2540.72 943.439 2516.29 999.02C2491.87 1054.6 2458.83 1103.23 2417.16 1144.92C2375.5 1186.61 2326.89 1219.67 2271.34 1244.1C2215.79 1268.54 2156.41 1280.76 2093.2 1280.76C2029.99 1280.76 1970.37 1268.54 1914.34 1244.1C1858.31 1219.67 1809.46 1186.61 1767.8 1144.92C1726.14 1103.23 1693.33 1054.6 1669.39 999.02C1645.44 943.439 1633.47 884.024 1633.47 820.777C1633.47 757.53 1645.44 697.876 1669.39 641.816C1693.33 585.756 1726.14 536.883 1767.8 495.197C1809.46 453.512 1858.31 420.69 1914.34 396.733C1970.37 372.776 2029.99 360.797 2093.2 360.797Z" transform="translate(0 29.8018) scale(0.0117 -0.0117)" fill="#0078D7"></path>
</svg>