<svg xmlns="http://www.w3.org/2000/svg" viewBox="0 0 44 50">
                                
                            
    <polygon points="42 6.8 37.2 2 35.2 0 35 0 0 0 0 50 44 50 44 9 44 8.8 42 6.8" fill="#59b4d9"></polygon>
    <polygon points="35 2 2 2 2 48 42 48 42 9 35 9 35 2" fill="#fff" opacity="0.8" style="isolation:isolate"></polygon>
    <path d="M25.8,42.88a1.11,1.11,0,0,1-1.1,1.1H9.6a1.1,1.1,0,1,1,0-2.2H24.7a1.11,1.11,0,0,1,1.1,1.1" fill="#59b4d9"></path>
    <path d="M35.9,24.2a1.11,1.11,0,0,1-1.1,1.1H9.6a1.1,1.1,0,1,1,0-2.2H34.7a1.135,1.135,0,0,1,1.2,1.1" fill="#59b4d9"></path>
    <path d="M35.9,16.7a1.11,1.11,0,0,1-1.1,1.1H9.6a1.1,1.1,0,1,1,0-2.2H34.7a1.135,1.135,0,0,1,1.2,1.1" fill="#59b4d9"></path>
    <path d="M35.9,31.977a1.11,1.11,0,0,1-1.1,1.1H9.6a1.1,1.1,0,1,1,0-2.2H34.7a1.135,1.135,0,0,1,1.2,1.1" fill="#59b4d9"></path>
</svg>