<svg xmlns="http://www.w3.org/2000/svg">
                                
                            
    <path d="M76.473,44.262H36.064a.625.625,0,0,1,0-1.25H76.473a.625.625,0,0,1,0,1.25Z" fill="#fff"></path>
    <path d="M18.9,30.509a.626.626,0,0,1-.625-.625V.625A.626.626,0,0,1,18.9,0H85.714a.626.626,0,0,1,.625.625v28.1a.625.625,0,0,1-1.25,0V1.25H19.529V29.884A.626.626,0,0,1,18.9,30.509Z" fill="#fff"></path>
    <path d="M18.9,52.889A4.213,4.213,0,0,1,14.7,48.682a.626.626,0,0,1,.625-.625h7.165a.626.626,0,0,1,.625.625A4.212,4.212,0,0,1,18.9,52.889Zm-2.892-3.582a2.958,2.958,0,0,0,5.782,0Z" fill="#fff"></path>
    <path d="M19,57.649h-.2A11.574,11.574,0,0,1,7.244,46.089v-.2A11.584,11.584,0,0,1,18.8,34.285H19A11.574,11.574,0,0,1,30.563,45.846v.243A11.574,11.574,0,0,1,19,57.649Zm-.2-22.114A10.322,10.322,0,0,0,8.494,45.846v.243A10.322,10.322,0,0,0,18.8,56.4H19A10.322,10.322,0,0,0,29.313,46.089v-.243A10.322,10.322,0,0,0,19,35.535Z" fill="#fff"></path>
    <path d="M32.624,47.216A.626.626,0,0,1,32,46.591v-.3A12.989,12.989,0,0,0,19.026,33.314h-.245A12.988,12.988,0,0,0,5.808,46.288v.3a.625.625,0,0,1-1.25,0v-.245A14.251,14.251,0,0,1,18.781,32.064h.245A14.24,14.24,0,0,1,33.249,46.288v.3A.626.626,0,0,1,32.624,47.216Z" fill="#fff"></path>
    <path d="M37.182,80.613H.625A.626.626,0,0,1,0,79.988V70.145A19.025,19.025,0,0,1,10.669,53.124a.625.625,0,0,1,.545,1.125,17.768,17.768,0,0,0-9.964,15.9v9.219H36.557V70.145a17.77,17.77,0,0,0-9.964-15.9.625.625,0,1,1,.545-1.125A19.027,19.027,0,0,1,37.807,70.145v9.844A.626.626,0,0,1,37.182,80.613Z" fill="#fff"></path>
    <path d="M3.967,50.039a.626.626,0,0,1-.625-.625V40.99a.625.625,0,0,1,1.25,0v8.424A.626.626,0,0,1,3.967,50.039Z" fill="#fff"></path>
    <path d="M33.841,50.039a.626.626,0,0,1-.625-.625V40.99a.625.625,0,0,1,1.25,0v8.424A.626.626,0,0,1,33.841,50.039Z" fill="#fff"></path>
    <path d="M75.8,65.5l6.118-14.88a.381.381,0,0,0-.007-.347.374.374,0,0,0-.312-.132l-6.316.007,7.36-19.524a1.227,1.227,0,0,1,1.079-.741H94.992L87,43.278c-.032.055-.1.2-.046.3s.217.114.282.114l7.843-.046Zm5.8-16.608a1.557,1.557,0,0,1,1.477,2.2v0l-3.286,7.993L92.3,44.908l-5.056.03a1.478,1.478,0,0,1-1.315-2.3L92.79,31.132h-9L77.1,48.9Zm2.124-17.759,0,0,.006,0Z" fill="#fff"></path>
    <path d="M52.309,35.535a14.2,14.2,0,1,1,14.2-14.2A14.218,14.218,0,0,1,52.309,35.535Zm0-27.154A12.952,12.952,0,1,0,65.261,21.333,12.967,12.967,0,0,0,52.309,8.381Z" fill="#fff"></path>
    <path d="M48.009,27.909V14.759L59.4,21.333Zm1.25-10.986v8.82l7.64-4.41Z" fill="#fff"></path>
    <rect x="52.904" y="43.637" width="1.25" height="7.064" fill="#fff"></rect>
    <rect x="44.786" y="50.076" width="17.612" height="1.25" fill="#fff"></rect>
</svg>