<svg>
                                <symbol id="svg-text-analytics-service" viewBox="0 0 63.727 50.981">
  <path d="M51.844,12.745q.863,0,2.074-.1t2.523-.116a23.1,23.1,0,0,1,2.622.116,7.2,7.2,0,0,1,2.34.614,4.251,4.251,0,0,1,1.676,1.377,3.936,3.936,0,0,1,.647,2.357V46.733a4.117,4.117,0,0,1-.332,1.66,4.327,4.327,0,0,1-2.257,2.257,4.117,4.117,0,0,1-1.66.332H4.248a4.117,4.117,0,0,1-1.66-.332A4.327,4.327,0,0,1,.332,48.392,4.117,4.117,0,0,1,0,46.733V16.994a4.117,4.117,0,0,1,.332-1.66,4.327,4.327,0,0,1,2.257-2.257,4.117,4.117,0,0,1,1.66-.332H33.125L43.912,1.958A6.708,6.708,0,0,1,46.052.514,6.43,6.43,0,0,1,48.592,0a6.221,6.221,0,0,1,2.556.531,6.78,6.78,0,0,1,3.518,3.535A6.337,6.337,0,0,1,55.2,6.638a6.546,6.546,0,0,1-.249,1.908,6.056,6.056,0,0,1-.7,1.51A9.127,9.127,0,0,1,53.188,11.4q-.614.647-1.344,1.344m-3.253-8.5a2.266,2.266,0,0,0-1.66.7L19.715,32.162l-1.128,4.481,4.481-1.128,22.6-22.57q-.066-.066.017-.166t.149-.033q.4-.4,1.261-1.128t1.726-1.577A13.606,13.606,0,0,0,50.334,8.3a2.9,2.9,0,0,0,.647-1.66,2.278,2.278,0,0,0-.714-1.693,2.321,2.321,0,0,0-1.676-.7M59.478,16.994H47.6L25.258,39.364l-12.513,3.12,3.12-12.513L28.876,16.994H4.248V46.733h55.23Z" fill="#59b4d9"></path>
</symbol>
                            </svg>