<svg xmlns="http://www.w3.org/2000/svg">
                                
                            
    <path d="M14.7,44.253h-1.25V3.851A3.855,3.855,0,0,1,17.3,0h22.82V1.25H17.3a2.6,2.6,0,0,0-2.6,2.6Z"></path>
    <path d="M80.677,44.253h-1.25V3.851a2.6,2.6,0,0,0-2.6-2.6H40.116V0H76.827a3.855,3.855,0,0,1,3.851,3.851Z"></path>
    <polygon points="38.07 40.506 18.846 40.506 18.846 5.145 36.134 5.145 36.134 6.395 20.096 6.395 20.096 39.256 38.07 39.256 38.07 40.506"></polygon>
    <polygon points="75.276 40.506 62.969 40.506 62.969 39.256 74.026 39.256 74.026 6.395 58.31 6.395 58.31 5.145 75.276 5.145 75.276 40.506"></polygon>
    <path d="M90.272,50.9H71.406v-1.25H90.272a2.6,2.6,0,0,0,2.6-2.6V44.878H71.406v-1.25H94.123v3.418A3.855,3.855,0,0,1,90.272,50.9Z"></path>
    <path d="M37.746,50.9H3.85A3.855,3.855,0,0,1,0,47.046V43.628H38.07v1.25H1.25v2.168a2.6,2.6,0,0,0,2.6,2.6h33.9Z"></path>
    <rect x="59.166" y="5.145" width="13.035" height="1.25"></rect>
    <rect x="21.922" y="5.145" width="36.389" height="1.25"></rect>
    <path d="M55.419,49.517h-1.25V37.595a3.528,3.528,0,1,0-7.056,0V49.517h-1.25V37.595a4.778,4.778,0,1,1,9.556,0Z"></path>
    <path d="M63.724,49.517h-1.25v-8.6a3.528,3.528,0,1,0-7.056,0v8.6h-1.25v-8.6a4.778,4.778,0,1,1,9.556,0Z"></path>
    <path d="M72.031,73.6h-1.25V44.239a3.528,3.528,0,0,0-7.057,0v5.277h-1.25V44.239a4.778,4.778,0,0,1,9.557,0Z"></path>
    <path d="M72.031,77.114l-34.173-.037-.546-.2-.1-.1L22.024,61.594a6.247,6.247,0,0,1,8.835-8.835l6.586,6.267V22.259a4.778,4.778,0,1,1,9.556,0v22.72h-1.25V22.259a3.528,3.528,0,1,0-7.056,0V61.939l-8.709-8.285a5,5,0,1,0-7.077,7.056L38,75.8l.182.065h32.6V59.158h1.25Z"></path>
</svg>