<svg>
                                <symbol id="svg-globe-wrapped" viewBox="0 0 150 158">
		<path fill-rule="evenodd" clip-rule="evenodd" d="M 0.827948 7.73339C 0.936039 7.76456 1.04298 7.77957 1.14992 7.77957C 1.64898 7.77957 2.10664 7.45285 2.25383 6.94834C 2.78048 5.13811 3.38533 3.32672 4.05112 1.56267C 4.27535 0.966962 3.97638 0.300828 3.38303 0.0733953C 2.78738 -0.148265 2.12619 0.148434 1.89966 0.744147C 1.21317 2.56361 0.589918 4.43387 0.0460142 6.30183C -0.131071 6.9137 0.2185 7.55444 0.827948 7.73339Z" transform="translate(2.95703 55.8818)"></path>
		<path fill-rule="evenodd" clip-rule="evenodd" d="M 1.00317 7.98985C 1.05262 7.99562 1.10206 7.99909 1.15151 7.99909C 1.72071 7.99909 2.21632 7.57539 2.29106 6.99238C 2.53254 5.11288 2.84992 3.22761 3.23283 1.39083C 3.36392 0.767412 2.96606 0.155533 2.34396 0.0250765C 1.72416 -0.106535 1.11356 0.29292 0.982475 0.917495C 0.586909 2.81316 0.260336 4.75731 0.00965767 6.69684C -0.0719854 7.32949 0.373027 7.90788 1.00317 7.98985Z" transform="translate(0.605469 66.9504)"></path>
		<path fill-rule="evenodd" clip-rule="evenodd" d="M 1.14949 6.9456C 1.51746 6.9456 1.87853 6.76897 2.10161 6.44109C 3.15837 4.88139 4.28873 3.34593 5.46393 1.87627C 5.86179 1.37984 5.7813 0.652515 5.28684 0.253064C 4.79238 -0.144079 4.06909 -0.0655723 3.66893 0.430855C 2.45808 1.94785 1.28978 3.53295 0.199674 5.1423C -0.157946 5.6699 -0.0222576 6.38683 0.503248 6.74588C 0.701031 6.88095 0.927561 6.9456 1.14949 6.9456Z" transform="translate(12.7207 35.9227)"></path>
		<path fill-rule="evenodd" clip-rule="evenodd" d="M 0.659376 7.31842C 0.818062 7.39347 0.984798 7.42926 1.14923 7.42926C 1.58045 7.42926 1.99441 7.1845 2.1899 6.76658C 2.99138 5.0591 3.8699 3.36317 4.79902 1.72727C 5.1141 1.17427 4.92206 0.468876 4.37011 0.153702C 3.81701 -0.16609 3.11557 0.0301734 2.80164 0.584325C 1.84263 2.27102 0.937653 4.02007 0.109723 5.78181C -0.160504 6.35905 0.0855747 7.04712 0.659376 7.31842Z" transform="translate(7.02734 45.4498)"></path>
		<path fill-rule="evenodd" clip-rule="evenodd" d="M 1.15129 5.65961C 1.39737 5.65961 1.6446 5.58111 1.85388 5.41833C 3.3269 4.27424 4.87582 3.16478 6.45924 2.11997C 6.98934 1.76901 7.13653 1.05323 6.78811 0.519857C 6.43969 -0.0123597 5.7279 -0.160133 5.19549 0.189676C 3.56378 1.26681 1.96542 2.41205 0.446396 3.59194C -0.056111 3.98215 -0.148102 4.70717 0.240565 5.21168C 0.467096 5.50492 0.807467 5.65961 1.15129 5.65961Z" transform="translate(28.4102 20.4711)"></path>
		<path fill-rule="evenodd" clip-rule="evenodd" d="M 1.212 8.07975C 1.84674 8.06128 2.3458 7.53022 2.3297 6.89294C 2.31015 6.21642 2.2998 5.54104 2.2998 4.86451C 2.2998 3.65808 2.33085 2.42971 2.3918 1.21288C 2.42399 0.576761 1.93529 0.0341586 1.30054 0.00183306C 0.71179 -0.0339559 0.127639 0.459005 0.094292 1.09743C 0.0321973 2.35236 0 3.61998 0 4.86451C 0 5.56067 0.0103491 6.25913 0.0298975 6.95759C 0.047146 7.58332 0.558853 8.07975 1.17865 8.07975L 1.212 8.07975Z" transform="translate(0 78.3884)"></path>
		<path fill-rule="evenodd" clip-rule="evenodd" d="M 4.47825 0.300171C 3.03742 1.61282 1.63569 2.99358 0.312155 4.40551C -0.122508 4.86961 -0.100661 5.6004 0.3616 6.03795C 0.583531 6.24691 0.866407 6.35081 1.14928 6.35081C 1.45516 6.35081 1.76103 6.2296 1.98756 5.98831C 3.26855 4.61909 4.62774 3.28105 6.02372 2.0088C 6.49403 1.58049 6.52853 0.852012 6.10191 0.378674C 5.67415 -0.0946637 4.94741 -0.128142 4.47825 0.300171Z" transform="translate(19.9062 27.5284)"></path>
		<path fill-rule="evenodd" clip-rule="evenodd" d="M 1.15178 4.89698C 1.33922 4.89698 1.5301 4.8508 1.70489 4.75382C 3.3596 3.83831 5.0603 2.98169 6.76446 2.20703C 7.34286 1.94265 7.59814 1.2592 7.33711 0.678494C 7.07378 0.0989439 6.39304 -0.160815 5.81464 0.103562C 4.05643 0.903618 2.30169 1.78795 0.596381 2.73117C 0.0386784 3.03941 -0.163706 3.74134 0.143318 4.29895C 0.35375 4.68109 0.745866 4.89698 1.15178 4.89698Z" transform="translate(38.0117 14.9054)"></path>
		<path fill-rule="evenodd" clip-rule="evenodd" d="M 5.3701 9.54065C 5.82776 7.50991 7.04551 5.77934 8.80026 4.66757C 10.0433 3.88022 11.4738 3.46345 12.933 3.46345C 15.6215 3.46345 18.0811 4.82343 19.5116 7.10122C 21.7965 10.7367 20.7098 15.5613 17.0876 17.8552C 15.8434 18.6437 14.4152 19.0594 12.9549 19.0594C 10.2675 19.0594 7.8079 17.6994 6.37627 15.4227C 5.27006 13.6598 4.91244 11.5725 5.3701 9.54065ZM 1.14881 11.9835C 1.22125 11.9835 1.2937 11.9766 1.3673 11.9639C 1.49378 11.9385 1.62142 11.92 1.75021 11.8946C 1.8514 13.7441 2.40566 15.5924 3.45897 17.2699C 5.59204 20.6641 9.23263 22.5228 12.9549 22.5228C 15.0005 22.5228 17.0715 21.9617 18.9286 20.7842C 22.3001 18.6495 24.1388 15.0083 24.1503 11.2839C 25.3842 11.4432 26.618 11.6233 27.8311 11.8438C 27.9013 11.8577 27.9691 11.8635 28.0381 11.8635C 28.5832 11.8635 29.0673 11.4733 29.1673 10.9145C 29.2823 10.2876 28.8684 9.68727 28.2428 9.57297C 26.8123 9.31321 25.36 9.10541 23.9054 8.92877C 23.6375 7.65884 23.1591 6.41431 22.4289 5.2529C 20.2958 1.85987 16.6552 0 12.933 0C 10.8885 0 8.81751 0.562233 6.95927 1.73865C 4.10866 3.54426 2.35621 6.42816 1.87325 9.52679C 1.56048 9.58336 1.24655 9.63531 0.933779 9.69535C 0.310532 9.81541 -0.098832 10.4204 0.0207578 11.0472C 0.125399 11.5991 0.608357 11.9835 1.14881 11.9835Z" transform="translate(59.5527 0)"></path>
		<path fill-rule="evenodd" clip-rule="evenodd" d="M 1.14985 4.05765C 1.27979 4.05765 1.41318 4.03572 1.54197 3.98838C 3.30362 3.3488 5.11701 2.76925 6.93156 2.2682C 7.54561 2.1008 7.90438 1.46468 7.73649 0.850498C 7.56861 0.23285 6.92696 -0.128504 6.32326 0.0423593C 4.45007 0.559568 2.57688 1.15644 0.757734 1.81795C 0.162084 2.035 -0.147238 2.69652 0.0689434 3.29685C 0.237979 3.76557 0.67954 4.05765 1.14985 4.05765Z" transform="translate(48.4746 10.9814)"></path>
		<path fill-rule="evenodd" clip-rule="evenodd" d="M 3.116 6.65014C 2.76988 4.79835 2.49276 2.90846 2.29267 1.03127C 2.22598 0.398614 1.66483 -0.0585616 1.02778 0.00608946C 0.396484 0.074204 -0.0611772 0.64337 0.00666702 1.27718C 0.213649 3.2144 0.498825 5.16547 0.856445 7.07614C 0.959936 7.63145 1.4429 8.0182 1.98565 8.0182C 2.05579 8.0182 2.12709 8.01128 2.19838 7.99743C 2.82278 7.87967 3.23444 7.27703 3.116 6.65014Z" transform="translate(0.416016 89.9186)"></path>
		<path fill-rule="evenodd" clip-rule="evenodd" d="M 2.8701 7.81583C 2.99773 7.81583 3.12997 7.79389 3.25761 7.74771C 3.85441 7.53413 4.16719 6.87377 3.95215 6.27228C 3.32316 4.50362 2.75281 2.67953 2.2595 0.853141C 2.09391 0.237802 1.46262 -0.128164 0.848567 0.0415451C 0.235669 0.207791 -0.1254 0.841599 0.0401859 1.45694C 0.548443 3.34221 1.13604 5.22402 1.78804 7.05041C 1.95592 7.52144 2.39864 7.81583 2.8701 7.81583Z" transform="translate(2.5332 101.254)"></path>
		<path fill-rule="evenodd" clip-rule="evenodd" d="M 4.51757 0.345956C 3.19978 1.69208 1.81185 3.00126 0.396318 4.23656C -0.0831912 4.65333 -0.134935 5.38296 0.28133 5.86438C 0.50901 6.12876 0.82868 6.26268 1.1495 6.26268C 1.41743 6.26268 1.68651 6.16916 1.90384 5.97983C 3.36651 4.70528 4.79699 3.35338 6.15732 1.96453C 6.60233 1.50967 6.59659 0.778886 6.14353 0.332101C 5.68817 -0.115838 4.96143 -0.110065 4.51757 0.345956Z" transform="translate(121.559 133.621)"></path>
		<path fill-rule="evenodd" clip-rule="evenodd" d="M 6.29635 0.0607214C 4.5209 0.662207 2.69486 1.2025 0.868819 1.66429C 0.253621 1.81899 -0.120104 2.44703 0.0351325 3.06584C 0.166221 3.58997 0.634234 3.93748 1.14824 3.93748C 1.24138 3.93748 1.33683 3.92709 1.43112 3.90284C 3.31466 3.42604 5.2005 2.87072 7.03344 2.24845C 7.63484 2.04411 7.95682 1.38838 7.75443 0.784581C 7.5509 0.180786 6.8989 -0.142468 6.29635 0.0607214Z" transform="translate(91.2637 151.848)"></path>
		<path fill-rule="evenodd" clip-rule="evenodd" d="M 6.96648 1.07432C 5.10938 0.800704 3.23849 0.448596 1.4044 0.030673C 0.785753 -0.115946 0.169406 0.277722 0.0291179 0.899988C -0.11232 1.5211 0.275195 2.1399 0.894992 2.28075C 2.78543 2.71368 4.71612 3.07619 6.63186 3.35904C 6.68935 3.36712 6.7457 3.37058 6.79974 3.37058C 7.36205 3.37058 7.85305 2.95844 7.93699 2.38467C 8.02899 1.75316 7.59432 1.16667 6.96648 1.07432Z" transform="translate(57.0859 153.843)"></path>
		<path fill-rule="evenodd" clip-rule="evenodd" d="M 6.6591 0.0146345C 4.8089 0.329808 2.92076 0.57341 1.04757 0.741964C 0.41512 0.798534 -0.0517376 1.35962 0.00460766 1.99459C 0.0575032 2.59376 0.558864 3.04631 1.14876 3.04631C 1.18211 3.04631 1.21775 3.04516 1.25225 3.0417C 3.18524 2.86968 5.13317 2.61685 7.04316 2.29244C 7.66986 2.18507 8.09072 1.58935 7.98493 0.960156C 7.87914 0.330963 7.28119 -0.084651 6.6591 0.0146345Z" transform="translate(79.9375 154.665)"></path>
		<path fill-rule="evenodd" clip-rule="evenodd" d="M 6.89399 0.166666L 6.88364 0.166666L 6.13851 0.170119C 4.51485 0.170119 2.86244 0.113553 1.22727 0.00156862C 0.601727 -0.0307569 0.0463215 0.439117 0.00262525 1.07639C -0.0399211 1.71251 0.439588 2.26206 1.07318 2.30708C 2.75894 2.42022 4.4631 2.47908 6.13851 2.47908L 6.90434 2.47563C 7.54024 2.46986 8.04964 1.94803 8.04389 1.31076C 8.03814 0.67579 7.52529 0.166666 6.89399 0.166666Z" transform="translate(68.4531 155.521)"></path>
		<path fill-rule="evenodd" clip-rule="evenodd" d="M 5.21605 0.227783C 3.76833 1.30376 2.25735 2.34048 0.729133 3.31025L 0.527896 3.43724C -0.00565825 3.78128 -0.160899 4.49591 0.182922 5.03274C 0.401404 5.37563 0.772825 5.56265 1.15114 5.56265C 1.36388 5.56265 1.57891 5.50377 1.77209 5.37908L 1.95262 5.26479C 3.53259 4.2627 5.09186 3.1925 6.58328 2.08304C 7.09499 1.70437 7.20308 0.980506 6.82361 0.46907C 6.44644 -0.0435205 5.72661 -0.15435 5.21605 0.227783Z" transform="translate(112.328 141.184)"></path>
		<path fill-rule="evenodd" clip-rule="evenodd" d="M 5.80793 0.133341C 4.14632 1.00728 2.42722 1.82811 0.697772 2.5716C 0.113621 2.82212 -0.156607 3.50096 0.0929219 4.08744C 0.279206 4.52614 0.704668 4.78706 1.14968 4.78706C 1.30147 4.78706 1.45555 4.7582 1.60274 4.69355C 3.38739 3.92698 5.16054 3.08074 6.87504 2.17793C 7.43734 1.88354 7.65468 1.18508 7.3603 0.620538C 7.06478 0.0559958 6.36908 -0.16567 5.80793 0.133341Z" transform="translate(102.152 147.312)"></path>
		<path fill-rule="evenodd" clip-rule="evenodd" d="M 1.88422 0.26669C 1.39551 -0.141997 0.671071 -0.0727319 0.265156 0.417923C -0.14076 0.908579 -0.0729149 1.63591 0.415794 2.04344C 1.91182 3.29144 3.46993 4.49094 5.04415 5.60848C 5.24653 5.75164 5.47766 5.8209 5.70649 5.8209C 6.06756 5.8209 6.42288 5.65004 6.64711 5.33256C 7.01393 4.81189 6.89089 4.0915 6.37114 3.72322C 4.84522 2.64147 3.33654 1.47774 1.88422 0.26669Z" transform="translate(26.4414 138.666)"></path>
		<path fill-rule="evenodd" clip-rule="evenodd" d="M 6.90933 1.98081C 5.11319 1.41973 3.31934 0.781308 1.57609 0.0828456C 0.991936 -0.153823 0.319243 0.133632 0.0823634 0.728191C -0.153367 1.32044 0.134111 1.99236 0.725161 2.22788C 2.52246 2.94827 4.37265 3.60633 6.22629 4.18588C 6.34013 4.22051 6.45397 4.23783 6.56781 4.23783C 7.05882 4.23783 7.51188 3.9215 7.66597 3.42622C 7.85455 2.81897 7.51533 2.17015 6.90933 1.98081Z" transform="translate(46.1172 150.416)"></path>
		<path fill-rule="evenodd" clip-rule="evenodd" d="M 6.70843 2.87105C 5.02267 2.03521 3.34956 1.12432 1.7374 0.162634C 1.19235 -0.164085 0.486305 0.0171678 0.162033 0.565547C -0.16339 1.11393 0.0171444 1.82163 0.562198 2.14719C 2.22726 3.14005 3.95211 4.08095 5.69076 4.94104C 5.8552 5.02185 6.02768 5.05995 6.19902 5.05995C 6.62333 5.05995 7.0304 4.82329 7.23048 4.41691C 7.51221 3.84544 7.27763 3.15275 6.70843 2.87105Z" transform="translate(35.8184 145.319)"></path>
		<path fill-rule="evenodd" clip-rule="evenodd" d="M 3.66983 6.4198C 3.89291 6.7419 4.25053 6.91507 4.6139 6.91507C 4.84158 6.91507 5.07042 6.84811 5.2705 6.70726C 5.79141 6.3436 5.92019 5.62435 5.55682 5.10022C 4.44602 3.49895 3.26277 1.92424 2.04042 0.424564C 1.63681 -0.0707088 0.91352 -0.142287 0.422511 0.260628C -0.0696468 0.664697 -0.142089 1.39202 0.259227 1.88498C 1.44478 3.34079 2.59237 4.86586 3.66983 6.4198Z" transform="translate(130.109 35.328)"></path>
		<path fill-rule="evenodd" clip-rule="evenodd" d="M 0.00196561 1.22173C 0.0836087 2.63712 0.126156 4.07215 0.127306 5.48408C 0.127306 5.95857 0.122705 6.4296 0.114656 6.90178C 0.103157 7.53906 0.606817 8.0655 1.24271 8.07704L 1.26456 8.07704C 1.8901 8.07704 2.40181 7.57485 2.41446 6.9445C 2.42251 6.45846 2.42711 5.97127 2.42711 5.48293C 2.42596 4.02597 2.38226 2.54592 2.29716 1.08666C 2.26037 0.449382 1.74407 -0.0297315 1.08173 0.00143958C 0.449281 0.0395375 -0.0348313 0.584453 0.00196561 1.22173Z" transform="translate(146.613 77.6284)"></path>
		<path fill-rule="evenodd" clip-rule="evenodd" d="M 2.82982 6.74671C 3.02876 7.15771 3.43812 7.39669 3.86474 7.39669C 4.03377 7.39669 4.20396 7.35974 4.36609 7.28124C 4.93759 7.00301 5.17563 6.31148 4.8985 5.73885C 4.05792 4.0002 3.1311 2.26155 2.14103 0.57023C 1.82021 0.0206963 1.11762 -0.16402 0.567964 0.159235C 0.0206102 0.481336 -0.163369 1.19019 0.158604 1.73857C 1.11647 3.37793 2.01569 5.06348 2.82982 6.74671Z" transform="translate(136.668 44.7961)"></path>
		<path fill-rule="evenodd" clip-rule="evenodd" d="M 2.04617 0.00388051C 1.40683 -0.0469167 0.85257 0.40679 0.789325 1.03945C 0.605341 2.91664 0.345457 4.81114 0.0177349 6.66755C -0.0926557 7.29559 0.323615 7.89477 0.949162 8.00676C 1.01701 8.0183 1.08484 8.02407 1.15154 8.02407C 1.69774 8.02407 2.18301 7.6304 2.2819 7.07163C 2.62112 5.15634 2.88789 3.20295 3.07762 1.26572C 3.13971 0.630759 2.67862 0.0662226 2.04617 0.00388051Z" transform="translate(145.605 89.16)"></path>
		<path fill-rule="evenodd" clip-rule="evenodd" d="M 0.0271809 1.40309C 0.430797 3.24449 0.765424 5.12515 1.023 6.99425C 1.1035 7.57265 1.5945 7.99057 2.16025 7.99057C 2.212 7.99057 2.26605 7.98711 2.31894 7.97903C 2.94794 7.89245 3.38835 7.30943 3.30096 6.67793C 3.03533 4.74763 2.6892 2.80694 2.27293 0.906666C 2.13725 0.283245 1.52091 -0.11159 0.903408 0.0281025C 0.28361 0.164331 -0.109657 0.780828 0.0271809 1.40309Z" transform="translate(145.039 66.2021)"></path>
		<path fill-rule="evenodd" clip-rule="evenodd" d="M 1.93938 6.93991C 2.09117 7.43865 2.54652 7.75844 3.03983 7.75844C 3.15022 7.75844 3.26291 7.74228 3.37445 7.7088C 3.9816 7.52293 4.32427 6.87757 4.14029 6.26801C 3.57684 4.40929 2.93059 2.54595 2.21995 0.731103C 1.98882 0.137699 1.31728 -0.152076 0.728535 0.0799755C 0.138635 0.313181 -0.152294 0.982783 0.0799866 1.57619C 0.767628 3.33446 1.39318 5.13892 1.93938 6.93991Z" transform="translate(141.693 55.168)"></path>
		<path fill-rule="evenodd" clip-rule="evenodd" d="M 0.858155 2.26972C 2.6773 2.75114 4.49875 3.3076 6.2696 3.92871C 6.39494 3.97258 6.52258 3.9922 6.64792 3.9922C 7.12398 3.9922 7.56899 3.69319 7.73343 3.21755C 7.94271 2.61606 7.62648 1.95685 7.02623 1.74789C 5.19788 1.10831 3.3201 0.532219 1.44231 0.0369456C 0.836311 -0.121219 0.200414 0.242444 0.0382779 0.860092C -0.123858 1.47659 0.244108 2.10693 0.858155 2.26972Z" transform="translate(92.0508 10.8054)"></path>
		<path fill-rule="evenodd" clip-rule="evenodd" d="M 1.77119 0.183259C 1.23534 -0.161931 0.524694 -0.00492144 0.182023 0.531913C -0.160648 1.06875 -0.00540845 1.78337 0.529296 2.12741C 2.10121 3.13989 3.66163 4.23319 5.1657 5.37613C 5.37383 5.53429 5.61762 5.61048 5.8591 5.61048C 6.20637 5.61048 6.55018 5.45232 6.77671 5.15331C 7.16078 4.64418 7.06074 3.92032 6.55363 3.53588C 5.00241 2.356 3.39256 1.22807 1.77119 0.183259Z" transform="translate(113.018 20.0386)"></path>
		<path fill-rule="evenodd" clip-rule="evenodd" d="M 0.68879 2.21199C 2.40444 2.96702 4.11665 3.80286 5.77711 4.69413C 5.9496 4.78648 6.13472 4.83151 6.31871 4.83151C 6.72922 4.83151 7.12594 4.60985 7.33293 4.22079C 7.63305 3.65971 7.42146 2.95894 6.86146 2.65877C 5.14926 1.73865 3.38301 0.877405 1.61216 0.0969741C 1.02686 -0.158167 0.353019 0.107365 0.0965911 0.691533C -0.157537 1.27455 0.106939 1.95569 0.68879 2.21199Z" transform="translate(102.896 14.5961)"></path>
		<path fill-rule="evenodd" clip-rule="evenodd" d="M 15.3612 22.8192C 14.117 23.6077 12.6876 24.0245 11.2273 24.0245C 8.53993 24.0245 6.08144 22.6634 4.64981 20.3867C 2.3638 16.7501 3.45161 11.9255 7.07266 9.63157C 8.31685 8.84537 9.74618 8.42745 11.2066 8.42745C 13.8939 8.42745 16.3524 9.78743 17.784 12.0664C 20.07 15.7018 18.981 20.5253 15.3612 22.8192ZM 20.7024 10.2169C 19.8377 8.8419 18.7166 7.73245 17.4517 6.88275C 18.0588 5.09677 18.6062 3.26921 19.0776 1.44513C 19.2375 0.828636 18.8684 0.198295 18.2543 0.0389759C 17.6368 -0.126115 17.0113 0.249087 16.8526 0.865581C 16.4271 2.51418 15.9304 4.16279 15.3899 5.78022C 14.0606 5.24685 12.6416 4.964 11.2066 4.964C 9.15973 4.964 7.09106 5.52623 5.23167 6.70265C -0.0061395 10.0218 -1.57346 16.9752 1.73136 22.2339C 2.62599 23.6574 3.79428 24.7922 5.11322 25.6512C 4.21515 26.8784 3.28373 28.0883 2.31321 29.2497C 1.90615 29.738 1.96939 30.4665 2.4558 30.8764C 2.67198 31.0576 2.93301 31.1465 3.19403 31.1465C 3.52291 31.1465 3.84834 31.0057 4.07717 30.7332C 5.15462 29.4425 6.18838 28.0952 7.1796 26.7306C 8.46864 27.2282 9.84162 27.488 11.2273 27.488C 13.2741 27.488 15.3428 26.9257 17.2021 25.7482C 22.4399 22.4302 24.0073 15.4767 20.7024 10.2169Z" transform="translate(127.566 100.513)"></path>
		<path fill-rule="evenodd" clip-rule="evenodd" d="M 4.45337 5.95525C 4.67875 6.19076 4.98118 6.31083 5.2836 6.31083C 5.56993 6.31083 5.85625 6.20346 6.07933 5.98873C 6.537 5.54772 6.55309 4.81808 6.11268 4.35629C 4.76844 2.94898 3.35636 1.58091 1.91439 0.291357C 1.44063 -0.130029 0.716194 -0.0907761 0.29073 0.386025C -0.131284 0.861672 -0.088737 1.5913 0.385023 2.01615C 1.781 3.2653 3.14938 4.5895 4.45337 5.95525Z" transform="translate(122.164 27.0054)"></path>
		<path fill-rule="evenodd" clip-rule="evenodd" d="M 15.3609 20.9135C 14.1167 21.702 12.6885 22.1176 11.227 22.1176C 8.53965 22.1176 6.08116 20.7576 4.64953 18.481C 3.54333 16.7192 3.18456 14.6308 3.64337 12.5989C 4.10103 10.5682 5.31993 8.83758 7.07353 7.72581C 7.23106 7.62653 7.3978 7.55149 7.56109 7.46375C 7.70827 7.44758 7.85431 7.41295 7.9923 7.3356C 8.08774 7.28365 8.15674 7.20745 8.23033 7.13356C 9.1721 6.73873 10.1794 6.52169 11.2074 6.52169C 13.8947 6.52169 16.3532 7.88167 17.7837 10.1606C 18.8911 11.9212 19.2487 14.0097 18.791 16.0404C 18.3334 18.0723 17.1145 19.8017 15.3609 20.9135ZM 20.7022 8.31114C 18.5691 4.91811 14.9285 3.05824 11.2063 3.05824C 9.92759 3.05824 8.64429 3.3053 7.4047 3.75786C 6.89184 2.74191 6.39394 1.71558 5.93167 0.682314C 5.6718 0.0993006 4.9899 -0.159302 4.41265 0.101611C 3.8331 0.36137 3.57322 1.04482 3.83425 1.62668C 4.30226 2.67495 4.80592 3.71629 5.32568 4.74609C 5.29463 4.76572 5.26243 4.77726 5.23138 4.79689C -0.00527096 8.11487 -1.57374 15.0695 1.73108 20.3281C 3.8653 23.7235 7.50589 25.581 11.227 25.581C 13.2738 25.581 15.3436 25.02 17.2019 23.8424C 17.5848 23.6 17.9413 23.3333 18.2851 23.0539C 18.8071 23.5965 19.3234 24.1472 19.8558 24.669C 20.0801 24.8872 20.3687 24.9969 20.6585 24.9969C 20.9574 24.9969 21.2564 24.8814 21.4818 24.6482C 21.9257 24.1934 21.9165 23.4614 21.4623 23.0158C 20.9367 22.502 20.4262 21.9571 19.911 21.4214C 22.8663 17.7756 23.3377 12.5077 20.7022 8.31114Z" transform="translate(2.66797 112.116)"></path>
		<path fill-rule="evenodd" clip-rule="evenodd" d="M 45.9168 41.2081C 45.3625 41.3594 43.9516 41.3086 43.1949 41.1573C 42.4394 41.0049 42.6407 39.892 42.137 39.5376C 41.6322 39.1832 41.1286 39.69 41.1286 39.69C 41.1286 39.69 39.7763 39.0816 39.6164 39.0816C 38.8092 39.0816 38.5079 39.4868 37.6513 39.5376C 36.7934 39.5884 37.5006 38.9303 38.4067 38.5262C 39.314 38.121 40.3731 38.1718 41.078 38.3231C 41.784 38.4755 41.884 38.7791 44.1022 39.3355C 46.3204 39.892 46.471 41.0557 45.9168 41.2081ZM 50.5532 42.6755C 49.6965 42.6247 49.3941 42.321 48.8904 42.6755C 48.3856 43.0287 47.0253 43.3335 47.0253 42.0682C 47.0253 41.3432 47.177 40.8525 48.5374 40.8029C 49.8989 40.7521 51.3592 41.5117 51.6628 41.9158C 51.9652 42.321 51.4098 42.7251 50.5532 42.6755ZM 73.9399 63.0682C 73.8387 63.5739 72.5289 64.1812 71.6217 64.7884C 70.7144 65.3957 69.7565 66.661 69.5047 68.0268C 69.2529 69.3925 68.0432 70.9614 67.4383 71.5191C 66.8335 72.0744 64.1622 72.8837 62.8019 73.5429C 61.4404 74.1998 60.3814 75.8195 59.7777 77.0848C 59.1717 78.3501 57.4077 79.261 56.2486 79.5647C 55.0907 79.8671 53.881 80.5263 52.9231 81.3864C 51.9652 82.2465 51.058 83.461 50.4025 83.9159C 49.7471 84.3719 49.8989 85.0288 49.5458 86.547C 49.1928 88.0651 48.8904 87.9647 48.0843 87.7107C 47.2782 87.459 46.7228 86.6486 46.1191 85.2828C 45.5131 83.9159 45.8156 83.2082 45.9168 82.5501C 46.0179 81.8921 46.571 81.1324 46.6722 80.4247C 46.7734 79.7159 46.5216 78.603 46.6722 77.8433C 46.824 77.0848 47.3783 75.9707 47.6301 75.3138C 47.8831 74.6558 47.7313 71.5191 47.7313 70.6578C 47.7313 69.7989 46.7228 68.7356 45.765 68.178C 44.8082 67.6227 43.4974 66.8122 42.6901 66.1542C 41.884 65.4961 41.6322 64.4848 41.2297 63.5739C 40.8261 62.663 39.7165 61.3469 39.1634 60.9428C 38.6091 60.5376 38.6586 59.6267 38.7092 58.8174C 38.7598 58.0082 38.961 56.9449 39.1128 56.288C 39.2634 55.6288 40.0706 55.1739 41.078 54.3138C 42.0864 53.4526 42.0864 53.1501 41.884 52.3408C 41.6828 51.5303 41.6322 50.8215 40.8767 50.1646C 40.1212 49.5054 39.4152 50.2154 38.4067 50.1646C 37.3994 50.1138 36.8946 49.4061 36.2898 48.9501C 35.6861 48.4952 34.4764 46.8247 34.0728 46.4702C 33.6691 46.1158 33.0137 46.2174 32.2076 46.1666C 31.4015 46.1158 31.2497 46.1158 30.8967 45.863C 30.5449 45.6102 29.8894 44.6485 29.3846 44.3956C 28.8821 44.1428 28.5785 43.9396 27.7218 43.838C 26.8652 43.7376 26.0579 43.5356 25.0506 43.1811C 24.0433 42.8267 21.2697 41.0557 20.7166 40.6009C 20.1624 40.1448 20.2118 39.892 20.2118 39.1831C 20.2118 38.4755 20.2118 38.1718 19.8588 37.8162C 19.5058 37.463 19.1033 36.0961 18.5985 35.5408C 18.096 34.9831 17.5912 33.465 17.3382 32.9593C 17.0875 32.4537 17.3382 30.9863 17.1381 30.6827C 16.9358 30.3791 16.6839 30.8351 16.5321 31.2888C 16.3815 31.7448 16.3309 32.4029 16.4816 33.2122C 16.6333 34.0215 16.8357 34.7315 17.037 35.2868C 17.2393 35.8444 17.1887 36.9562 17.2393 37.5646C 17.2888 38.1718 16.8024 37.8509 16.1964 37.4457C 15.5915 37.0416 15.9284 36.2993 15.5915 35.4218C 15.2558 34.5456 15.2558 32.3856 14.92 30.5638C 14.5842 28.742 15.1879 27.4605 15.5915 25.977C 15.9951 24.4924 17.1381 23.0077 18.0109 22.4004C 18.8848 21.7932 19.7588 21.321 20.2291 20.7818C 20.6982 20.2416 20.9006 19.3641 21.1697 18.4867C 21.4388 17.6105 22.0425 17.6774 22.7152 16.396C 23.3867 15.1133 23.5891 15.0464 23.5891 15.0464C 24.1928 14.2879 23.1855 13.7811 21.9263 13.6795C 20.666 13.5779 18.3973 12.921 17.7418 13.7811C 17.0875 14.6412 15.7767 15.2992 14.4658 15.4008C 13.156 15.5012 12.803 15.6536 11.5933 15.8557C 10.3836 16.0589 12.2488 15.35 12.9042 15.0464C 13.5585 14.7427 14.7176 13.8827 14.7176 13.8827C 14.7176 13.8827 15.9284 12.7686 16.9358 12.2121C 17.9442 11.6557 18.8515 11.5044 19.9094 11.0484C 20.9685 10.5924 21.3709 10.1375 21.9263 9.93548C 22.4794 9.73229 23.9421 9.68149 24.8494 9.78309C 25.7567 9.88468 25.3025 9.48062 26.2603 9.42982C 27.217 9.37902 28.3773 9.53141 29.5364 9.83389C 30.6955 10.1375 31.1486 10.2391 32.0558 10.1375C 32.9631 10.0371 34.9789 9.93548 35.9367 10.0371C 36.8946 10.1375 40.3225 11.2008 40.3225 11.2008C 40.3225 11.2008 41.7334 10.9976 42.8925 10.9976C 44.0516 10.9976 45.1613 11.2516 46.1191 10.8464C 47.0759 10.4423 46.1191 10.4423 48.3856 9.88468C 50.6543 9.32822 50.5026 10.8972 50.7049 11.6049C 50.9062 12.3137 49.5458 12.921 48.0843 13.0226C 46.6216 13.123 46.4204 13.377 45.1107 14.0339C 43.7998 14.6919 44.3046 15.7033 44.6565 16.0081C 45.0095 16.3117 45.765 16.2609 46.3204 16.4121C 46.8746 16.5634 47.2782 17.3242 47.7819 17.4246C 48.2867 17.5251 48.5374 18.2351 48.9916 18.8412C 49.4446 19.4484 49.6965 19.3468 50.3013 18.892C 50.9062 18.4359 51.1086 17.7282 51.4098 17.6774C 51.7134 17.6266 52.2665 17.4743 52.7713 16.9189C 53.275 16.3625 53.3256 15.7541 53.3762 15.2992C 53.4268 14.8432 54.1822 13.5779 55.5943 13.9335C 57.0053 14.2879 56.551 15.35 56.9052 15.6028C 57.2571 15.8557 58.2644 15.8557 58.2644 15.8557C 58.2644 15.8557 58.921 15.7541 59.3741 15.4008C 59.8283 15.0464 60.2307 15.552 60.7355 16.3625C 61.2392 17.1718 61.7935 18.1843 62.2971 18.9936C 62.8019 19.8028 62.3983 20.0557 61.5922 20.0049C 60.7861 19.9552 59.1717 19.5997 58.2644 19.8028C 57.3583 20.0049 58.0137 20.8661 57.9631 21.3706C 57.9125 21.8775 57.9125 22.1811 56.9052 22.9407C 55.8968 23.6992 55.2402 23.3448 54.3835 23.6484C 53.5268 23.9521 53.5268 24.4069 53.1243 25.0661C 52.7207 25.723 52.2171 25.4702 51.5616 25.5718C 50.9062 25.6722 51.0074 25.5718 50.2519 26.4827C 49.4952 27.3924 48.6386 28.0516 48.6386 28.0516C 48.6386 28.0516 48.2867 27.95 48.0843 27.4432C 47.8831 26.9387 47.6807 27.494 47.4783 28.9625C 47.2782 30.4287 46.371 30.9863 45.3119 31.0868C 44.254 31.1884 42.5901 31.7448 42.2382 32.3521C 41.884 32.9593 42.0864 34.0215 42.0864 35.3884C 42.0864 36.7553 42.2382 37.2101 41.7334 36.9562C 41.2297 36.7045 40.8261 36.0453 40.7249 35.0847C 40.6238 34.1231 40.5249 33.719 39.667 33.465C 38.8092 33.2122 37.5006 33.6174 35.4837 33.6682C 33.4679 33.719 32.7124 33.2122 31.1992 33.3138C 29.6882 33.4154 28.9315 34.8827 28.4785 35.8444C 28.0243 36.8061 26.6639 38.3739 27.3688 40.1448C 28.0737 41.9158 29.7388 42.2702 30.4943 42.2702C 31.2497 42.2702 31.4521 41.663 31.9546 40.8525C 32.4594 40.0432 33.1655 39.5376 34.2234 39.1831C 35.2825 38.8287 35.5849 39.69 35.4331 40.2464C 35.2825 40.8029 34.3246 41.2578 33.921 42.6247C 33.5185 43.9904 34.7776 43.8888 36.1391 43.434C 37.5006 42.9779 37.9537 44.092 37.9031 44.7489C 37.8525 45.4081 37.45 46.0142 37.0958 46.9759C 36.7428 47.9376 37.5006 48.6961 38.1043 48.8993C 38.7092 49.1013 39.7165 48.8993 40.2719 48.7469C 40.8261 48.5957 41.6322 48.7977 41.9346 49.2029C 42.2382 49.607 42.9431 50.1138 43.2455 49.7594C 43.548 49.4061 44.1528 48.8485 44.8577 48.3428C 45.5637 47.836 47.177 47.2299 48.1855 47.3303C 49.1928 47.4319 50.5532 48.6961 51.7134 49.0009C 52.8725 49.3045 53.881 48.8993 54.6871 48.8993C 55.4931 48.8993 57.1053 50.0122 57.3077 50.1646C 57.5089 50.317 58.0632 50.6195 59.1717 50.7707C 60.2813 50.9231 61.0874 51.9864 61.0874 51.9864C 61.0874 51.9864 61.9947 52.29 62.6501 52.5417C 63.3056 52.7957 64.3129 53.7573 64.3129 54.263C 64.3129 54.7687 64.3635 55.6796 64.9683 56.4381C 65.5732 57.1989 66.5816 56.9957 67.6913 57.2993C 68.7987 57.6029 69.7565 58.7666 70.1601 59.1719C 70.5638 59.5759 70.9662 59.3739 72.2265 59.6267C 73.4868 59.8796 74.0411 62.5614 73.9399 63.0682ZM 38.6091 8.06291C 39.1634 7.30441 41.2297 8.2153 41.2297 8.2153C 41.2297 8.2153 42.5395 8.82141 44.254 8.61937C 45.9673 8.41734 46.1421 9.06962 46.0685 9.48061C 45.9673 10.0371 45.3119 10.1375 44.1022 10.2391C 42.8925 10.3407 41.431 10.6432 39.9189 10.3915C 38.4067 10.1375 38.0537 8.8214 38.6091 8.06291ZM 42.4394 7.40601C 43.4479 6.696 44.8082 6.44432 46.471 6.79759C 48.1349 7.15202 48.3856 8.06291 47.8325 8.46813C 47.2782 8.8722 46.571 8.61937 46.1191 8.36654C 45.6649 8.11371 45.3119 7.81008 43.7998 8.11371C 42.2877 8.41734 42.0991 7.64498 42.4394 7.40601ZM 48.7386 7.35521C 48.9456 6.59556 50.1001 8.01211 50.6544 8.36654C 51.2098 8.72096 50.3013 8.923 49.5458 8.923C 48.7892 8.923 48.588 7.91052 48.7386 7.35521ZM 50.8567 5.58423C 51.7134 5.33025 53.0243 5.07741 55.1907 5.17901C 57.3583 5.2806 57.1559 6.0391 56.551 6.34273C 55.9474 6.64636 55.4425 7.20282 54.6871 7.60804C 53.9304 8.01211 53.275 7.91052 51.9146 7.86087C 50.5532 7.81008 50.1587 7.21552 49.8483 6.79759C 49.3941 6.19034 50.0001 5.83591 50.8567 5.58423ZM 53.1243 10.5427C 51.8134 10.7956 50.9027 10.3199 50.8061 9.78309C 50.7049 9.22663 50.6543 9.27743 51.511 8.8214C 52.3677 8.36654 53.7292 8.56973 55.0401 8.8214C 56.3498 9.07539 57.8619 10.1375 58.315 10.5924C 58.7692 11.0484 58.2644 11.3024 58.4668 11.5541C 58.668 11.8069 59.2223 12.4153 58.7692 13.2246C 58.315 14.0339 57.7113 14.1355 56.551 13.6287C 55.3919 13.123 54.8377 12.7686 54.8883 12.2629C 54.9389 11.7573 55.4425 11.7573 55.4425 11.3024C 55.4425 10.8464 54.4341 10.2899 53.1243 10.5427ZM 59.3235 6.39353C 60.3319 6.0391 60.9368 6.29193 61.5416 6.94999C 62.1453 7.60804 62.5489 7.86087 63.1032 8.1645C 63.6586 8.46813 64.7671 9.58106 65.4225 10.0867C 66.0768 10.5924 65.9757 11.5541 65.8756 13.1738C 65.7756 14.7935 65.8756 14.8432 65.3214 14.7427C 64.7671 14.6412 64.0611 14.1355 63.1032 13.3262C 62.1453 12.5158 61.7934 11.2008 61.2392 10.0867C 60.6849 8.9738 60.432 8.8722 59.3741 8.8722C 58.315 8.8722 58.3656 8.8214 57.1559 8.36654C 55.9474 7.91052 56.6327 7.31711 57.3077 7.00079C 58.0632 6.64636 58.315 6.7468 59.3235 6.39353ZM 44.0861 -2.17734e-06C 19.7381 -2.17734e-06 -9.58018e-07 19.8155 -9.58018e-07 44.2606C -9.58018e-07 68.7044 19.7381 88.52 44.0861 88.52C 68.4341 88.52 88.1711 68.7044 88.1711 44.2606C 88.1711 19.8155 68.4341 -2.17734e-06 44.0861 -2.17734e-06Z" transform="translate(30.0449 38.1641)"></path>
</symbol>
                            </svg>