<svg>
                                <symbol id="svg-iot-hub-large" viewBox="0 0 163 163">
    <path d="M 15.7904 31.6805C 24.5112 31.6805 31.5808 24.5886 31.5808 15.8403C 31.5808 7.09193 24.5112 0 15.7904 0C 7.06961 0 0 7.09193 0 15.8403C 0 24.5886 7.06961 31.6805 15.7904 31.6805Z" transform="translate(52.4683 9.19824)" fill="#1A1A1A"></path>
    <path d="M 18.8466 37.8122C 29.2553 37.8122 37.6932 29.3477 37.6932 18.9061C 37.6932 8.46456 29.2553 0 18.8466 0C 8.43792 0 -3.88617e-06 8.46456 -3.88617e-06 18.9061C -3.88617e-06 29.3477 8.43792 37.8122 18.8466 37.8122Z" transform="translate(85.5776 57.229)" fill="#1A1A1A"></path>
    <path d="M 14.7717 29.6366C 22.9299 29.6366 29.5434 23.0022 29.5434 14.8183C 29.5434 6.63438 22.9299 0 14.7717 0C 6.61351 0 -3.88617e-06 6.63438 -3.88617e-06 14.8183C -3.88617e-06 23.0022 6.61351 29.6366 14.7717 29.6366Z" transform="translate(121.234 117.525)" fill="#1A1A1A"></path>
    <path d="M 12.7342 25.5488C 19.7671 25.5488 25.4684 19.8295 25.4684 12.7744C 25.4684 5.71929 19.7671 -1.94922e-06 12.7342 -1.94922e-06C 5.7013 -1.94922e-06 0 5.71929 0 12.7744C 0 19.8295 5.7013 25.5488 12.7342 25.5488Z" transform="translate(64.6855 109.348)" fill="#1A1A1A"></path>
    <path d="M 12.7342 25.5488C 19.7671 25.5488 25.4684 19.8295 25.4684 12.7744C 25.4684 5.71929 19.7671 0 12.7342 0C 5.7013 0 0 5.71929 0 12.7744C 0 19.8295 5.7013 25.5488 12.7342 25.5488Z" transform="translate(13.2412 70.5146)" fill="#1A1A1A"></path>
    <path d="M 62.7847 0L 0 0L 0 8.15841L 62.7847 8.15841L 62.7847 0Z" transform="matrix(0.573887 0.818952 -0.817246 0.576313 71.0127 22.0005)" fill="#1A1A1A"></path>
    <path d="M 64.3331 -1.9446e-06L 3.89542e-06 -1.9446e-06L 3.89542e-06 8.15625L 64.3331 8.15625L 64.3331 -1.9446e-06Z" transform="matrix(0.495621 0.868574 -0.867223 0.49798 107.565 73.4404)" fill="#1A1A1A"></path>
    <path d="M 8.17544 0L -1.94918e-06 0L -1.94918e-06 77.935L 8.17544 77.935L 8.17544 0Z" transform="matrix(0.0824891 0.996621 -0.996578 0.0830072 103.247 71.7388)" fill="#1A1A1A"></path>
    <path d="M 8.15675 1.94759e-06L -1.94472e-06 1.94759e-06L -1.94472e-06 53.097L 8.15675 53.097L 8.15675 1.94759e-06Z" transform="matrix(0.85578 0.517294 -0.514907 0.857218 100.393 73.7852)" fill="#1A1A1A"></path>
    <path d="M 43.8057 0L 2.54684 0C 1.01873 0 -1.94309e-06 1.02195 -1.94309e-06 3.06586L -1.94309e-06 17.8842C -1.94309e-06 19.4171 1.01873 20.4391 2.54684 20.4391L 25.9778 20.4391L 25.9778 43.433C 25.9778 44.9659 26.9965 45.9879 29.034 45.9879L 43.8057 45.9879C 45.3338 45.9879 46.3525 44.9659 46.3525 43.433L 46.3525 2.55488C 46.3525 1.02195 45.3338 0 43.8057 0Z" transform="translate(116.647 0)" fill="#1A1A1A"></path>
    <path d="M 2.54684 45.9879L 43.8057 45.9879C 45.3338 45.9879 46.3525 44.9659 46.3525 42.922L 46.3525 28.1037C 46.3525 26.5708 45.3338 25.5488 43.8057 25.5488L 20.3747 25.5488L 20.3747 2.55488C 20.3747 1.02195 19.356 -1.94922e-06 17.3185 -1.94922e-06L 2.54684 -1.94922e-06C 1.01874 -1.94922e-06 0 1.02195 0 2.55488L 0 43.433C 0 44.9659 1.01874 45.9879 2.54684 45.9879Z" transform="translate(0 117.012)" fill="#1A1A1A"></path>
</symbol>
                            </svg>