<svg>
                                <symbol id="svg-machine-learning-studio" viewBox="0 0 50 50">
    <path fill="#59B4D9" d="M48.288,44.623L32.72,17.659V6.743h0.281c1.862,0,3.372-1.51,3.372-3.372S34.863,0,33.001,0H16.016 c-1.862,0-3.372,1.51-3.372,3.372s1.51,3.372,3.372,3.372h0.281v10.915L0.729,44.623C-0.979,47.58,0.418,50,3.833,50h41.351 C48.598,50,49.995,47.58,48.288,44.623z"></path>
    <polygon fill="#B8D432" points="13.551,33.017 7.127,44.143 41.889,44.143 35.466,33.017 "></polygon>
    <path fill="#7FBA00" d="M25.334,37.532c1.735,0,3.141-1.406,3.141-3.141c0-0.493-0.117-0.958-0.32-1.374h-5.643 c-0.203,0.415-0.32,0.88-0.32,1.374C22.193,36.126,23.599,37.532,25.334,37.532z"></path>
    <circle fill="#7FBA00" cx="29.232" cy="39.956" r="1.541"></circle>
    <path opacity="0.25" fill="#FFFFFF" d="M0.729,44.623l15.568-26.965V6.743h-0.281c-1.862,0-3.372-1.51-3.372-3.372 S14.153,0,16.016,0l7.319,0v17.572L15.13,50H3.833C0.418,50-0.979,47.58,0.729,44.623z"></path>
</symbol>
                            </svg>