<svg xmlns="http://www.w3.org/2000/svg">
                                
                            
    <path fill="#009580" d="M-36.636-86.307c-3.504-8.302-10.753-15.332-20.133-19.63c-4.324-14.539-16.426-29.079-34.475-29.079 c-0.575,0-1.156,0.015-1.741,0.044c-7.528-5.398-14.84-8.029-22.287-8.029c-4.489,0-9.076,0.991-13.674,2.952 c-3.405-1.785-7.312-2.715-11.487-2.715c-9.237,0-17.998,4.266-23.406,9.264c-1.702-0.401-3.475-0.604-5.304-0.604 c-13.779,0-27.433,11.384-31.124,25.186c-11.877,4.309-20.551,12.139-24.624,22.323c-3.952,9.882-3.083,20.93,2.384,30.313 c5.43,9.319,14.928,14.883,25.408,14.883c4.021,0,7.896-0.821,11.431-2.402c6.372,5.793,14.571,9.256,22.334,9.256 c2.707,0,5.299-0.4,7.749-1.193c6.286,5.17,15.922,7.109,23.74,7.109c9.226,0,17.242-2.437,22.557-6.693 c3.444,1.594,7.237,2.421,11.194,2.42h0.003c9.899,0,20.127-5.274,25.713-12.607c3.116,1.277,6.396,1.938,9.712,1.938 c0,0,0.002,0,0.003,0c10.816-0.002,20.86-7.063,25.589-17.989C-33.47-69.889-33.318-78.446-36.636-86.307z"></path>
    <path fill="#FFFFFF" d="M-165.281-34.625v-33.997c0-4.219-3.432-7.65-7.65-7.65h-12.74v5.408h12.74 c1.236,0,2.242,1.006,2.242,2.242v33.091C-168.893-35.057-167.08-34.756-165.281-34.625z"></path>
    <path fill="#FFFFFF" d="M-141.77-92.783h-17.115c-1.236,0-2.242-1.006-2.242-2.243v-40.697c-0.973,0.717-1.886,1.459-2.712,2.223 c-0.88-0.208-1.78-0.36-2.696-0.46v38.934c0,4.219,3.432,7.651,7.65,7.651h17.115c1.234,0,2.24,1.005,2.24,2.24v12.673h5.408 v-12.673C-134.121-89.353-137.553-92.783-141.77-92.783z"></path>
    <path fill="#FFFFFF" d="M-69.771-71.164v-4.85h-5.41v4.85c0,1.236-1.004,2.242-2.24,2.242H-99.09v-38.774 c0-4.218-3.431-7.65-7.649-7.65h-14.741v5.408h14.741c1.236,0,2.241,1.005,2.241,2.242v74.031 c1.75,0.423,3.559,0.672,5.408,0.737v-30.585h21.668C-73.203-63.514-69.771-66.945-69.771-71.164z"></path>
    <path fill="#FFFFFF" d="M-136.825-50.096c-6.643,0-12.048-5.406-12.048-12.05c0-6.645,5.405-12.051,12.048-12.051 c6.644,0,12.049,5.406,12.049,12.051C-124.776-55.501-130.182-50.096-136.825-50.096z M-136.825-69.196 c-3.886,0-7.048,3.163-7.048,7.051c0,3.887,3.162,7.05,7.048,7.05c3.887,0,7.049-3.163,7.049-7.05 C-129.776-66.033-132.938-69.196-136.825-69.196z"></path>
    <path fill="#FFFFFF" d="M-194.415-61.564c-6.644,0-12.049-5.406-12.049-12.051c0-6.645,5.405-12.05,12.049-12.05 s12.049,5.406,12.049,12.05C-182.366-66.971-187.771-61.564-194.415-61.564z M-194.415-80.666c-3.887,0-7.049,3.163-7.049,7.05 c0,3.888,3.162,7.051,7.049,7.051s7.049-3.163,7.049-7.051C-187.366-77.503-190.528-80.666-194.415-80.666z"></path>
    <path fill="#FFFFFF" d="M-72.43-73.066c-6.644,0-12.049-5.405-12.049-12.05c0-6.644,5.405-12.049,12.049-12.049 c6.643,0,12.047,5.405,12.047,12.049C-60.383-78.471-65.787-73.066-72.43-73.066z M-72.43-92.165 c-3.887,0-7.049,3.162-7.049,7.049s3.162,7.05,7.049,7.05c3.886,0,7.047-3.163,7.047-7.05S-68.544-92.165-72.43-92.165z"></path>
    <path fill="#FFFFFF" d="M-130.226-100.64c-6.644,0-12.049-5.405-12.049-12.048c0-6.644,5.405-12.05,12.049-12.05 s12.049,5.406,12.049,12.05C-118.177-106.045-123.582-100.64-130.226-100.64z M-130.226-119.738c-3.887,0-7.049,3.163-7.049,7.05 c0,3.886,3.162,7.048,7.049,7.048s7.049-3.162,7.049-7.048C-123.177-116.576-126.339-119.738-130.226-119.738z"></path>
</svg>