<svg>
                                <symbol id="svg-templates-2" viewBox="0 0 58.799 53.683">
    <line x1="28.339" y1="13.982" x2="27.839" y2="13.982" fill="none" stroke="#7a7a7a" stroke-miterlimit="10"></line>
    <line x1="26.737" y1="13.982" x2="20.677" y2="13.982" fill="none" stroke="#7a7a7a" stroke-miterlimit="10" stroke-dasharray="1.102 1.102"></line>
    <line x1="20.126" y1="13.982" x2="19.626" y2="13.982" fill="none" stroke="#7a7a7a" stroke-miterlimit="10"></line>
    <polygon points="31.468 13.982 30.018 14.819 28.569 15.656 28.569 13.982 28.569 12.308 30.018 13.145 31.468 13.982" fill="#7a7a7a"></polygon>
    <line x1="46.256" y1="30.285" x2="46.256" y2="30.785" fill="none" stroke="#7a7a7a" stroke-miterlimit="10"></line>
    <line x1="46.256" y1="31.886" x2="46.256" y2="37.946" fill="none" stroke="#7a7a7a" stroke-miterlimit="10" stroke-dasharray="1.102 1.102"></line>
    <line x1="46.256" y1="38.497" x2="46.256" y2="38.997" fill="none" stroke="#7a7a7a" stroke-miterlimit="10"></line>
    <polygon points="14.929 2.37 13.257 0.697 12.56 0 12.49 0 0.293 0 0.293 17.424 15.626 17.424 15.626 3.136 15.626 3.067 14.929 2.37" fill="#59b4d9"></polygon>
    <polygon points="12.49 0.697 0.99 0.697 0.99 16.727 14.929 16.727 14.929 3.136 12.49 3.136 12.49 0.697" fill="#fff" opacity="0.8" style="isolation:isolate"></polygon>
    <polygon points="18.929 6.136 17.257 4.463 16.56 3.766 16.49 3.766 4.293 3.766 4.293 21.19 19.626 21.19 19.626 6.902 19.626 6.833 18.929 6.136" fill="#59b4d9"></polygon>
    <polygon points="16.49 4.463 4.99 4.463 4.99 20.493 18.929 20.493 18.929 6.902 16.49 6.902 16.49 4.463" fill="#fff" opacity="0.8" style="isolation:isolate"></polygon>
    <polygon points="22.732 10.51 21.06 8.837 20.363 8.14 20.293 8.14 8.096 8.14 8.096 25.564 23.429 25.564 23.429 11.276 23.429 11.207 22.732 10.51" fill="#59b4d9"></polygon>
    <polygon points="20.293 8.837 8.793 8.837 8.793 24.867 22.732 24.867 22.732 11.276 20.293 11.276 20.293 8.837" fill="#fff" opacity="0.8" style="isolation:isolate"></polygon>
    <polygon points="45.011 21 38.047 17.401 38.047 9.045 45.011 12.644 45.011 21" fill="#59b3d9"></polygon>
    <polygon points="52.501 18.261 46.094 20.962 46.094 12.605 52.501 9.904 52.501 18.261" fill="#acdaec"></polygon>
    <polygon points="38.954 8.164 45.569 11.64 52.123 8.919 45.539 5.629 38.954 8.164" fill="#3899c6"></polygon>
    <path d="M52.767,48.617c-.046.029-.092.053-.138.08l-.5-.855.5-1.4,2.443-.915-.051-1.972-.271-.083L52.544,42.9l-.574-1.375,1.061-2.314-1.425-1.353-.129.069-.11-.1-.094-.085-.262.148-1.907,1.1-1.2-.453-.958-2.352-2.017.052-.024.077-.166.008-.076.273-.6,2.1-1.211.5-2.4-.969-1.4,1.426.081.153L39,39.977l.148.262,1.174,1.916-.467,1.415-2.419.975.1,1.97.273.076,2.226.516.608,1.361-.518,1.209c-.046.016-.09.035-.137.049l-.381.862.09.086-.058.134,1.458,1.318.262-.148,1.963-1.132,1.444.5.793,2.269.209-.005.031.07,2.015-.1.076-.273.565-2.138,1.264-.564,2.379.96.1-.111.047.017,1.362-1.46-.148-.262Zm-8.8-6.243a3.433,3.433,0,0,1,3.512-.672c.139.083.228.078.275.121a4.662,4.662,0,0,1,.788.5c.065,0,.11.042.181.064.058.05.117.1.178.158a3.414,3.414,0,0,1,.371.484,3.5,3.5,0,0,1-.78,4.5,3.433,3.433,0,0,1-3.528.584c-.137-.086-.226-.084-.272-.128a4.659,4.659,0,0,1-.776-.518c-.072,0-.119-.053-.2-.073l-.032-.027A3.42,3.42,0,0,1,43.3,46.9,3.5,3.5,0,0,1,43.967,42.374Z" fill="#7a7a7a"></path>
    <path d="M42.7,45.041a3.578,3.578,0,0,1,5.969-2.678.336.336,0,0,0,.051.023c.058.05.117.1.178.158a3.354,3.354,0,0,1,.367.478c.04.059.067.125.1.187l3.658-4-1.425-1.353-.129.069-.11-.1-.094-.085-.262.148-1.906,1.1-1.2-.453-.958-2.352-2.017.052-.024.077-.166.008-.076.273-.6,2.1-1.211.5-2.4-.969-1.4,1.426.081.153L39,39.977l.148.262,1.174,1.916-.467,1.415-2.419.975.1,1.97.273.076,2.226.516.607,1.361-.518,1.209c-.046.016-.09.035-.137.049l-.381.862.09.086-.058.134,1.458,1.318.262-.148,3.39-3.708A3.584,3.584,0,0,1,42.7,45.041Z" fill="#fff" opacity="0.08"></path>
    <polygon points="46.256 27.386 47.093 28.835 47.929 30.285 46.256 30.285 44.582 30.285 45.419 28.835 46.256 27.386" fill="#7a7a7a"></polygon>
    <polyline points="51.403 3.766 56.833 6.917 56.804 19.891 51.36 23.018" fill="none" stroke="#7a7a7a" stroke-miterlimit="10" stroke-width="1.5"></polyline>
    <polyline points="39.541 22.863 34.333 19.841 34.362 6.867 39.76 3.766" fill="none" stroke="#7a7a7a" stroke-miterlimit="10" stroke-width="1.5"></polyline>
</symbol>
                            </svg>