<svg>
                                <symbol id="svg-innovative-tools" viewBox="0 0 120 120">
  <path fill-rule="evenodd" clip-rule="evenodd" d="M80.2291 66.0108C83.6997 69.3296 83.8214 74.8299 80.4993 78.2971C77.1798 81.7657 71.6729 81.8872 68.2023 78.5697L26.6816 38.8831C26.2001 39.052 25.7186 39.2196 25.2166 39.3527C14.4999 42.202 3.50661 35.8535 0.663521 25.1741C-0.147144 22.1342 -0.185565 19.0751 0.388176 16.1836L10.7783 23.7693C14.6433 26.6211 20.0887 25.8023 22.9421 21.941C25.7967 18.081 24.9758 12.6408 21.112 9.79028L10.8231 2.27621C12.1025 1.61346 13.4677 1.06715 14.9187 0.680763C25.6366 -2.16724 36.6299 4.18127 39.473 14.8594C40.5462 18.8883 40.3029 22.9569 39.0119 26.616L80.2291 66.0108ZM75.5636 77.7867C78.6141 76.9755 80.4289 73.8486 79.6169 70.801C78.805 67.7547 75.675 65.9417 72.6245 66.7516C69.5739 67.5628 67.7592 70.6897 68.5711 73.7373C69.3831 76.7849 72.513 78.5978 75.5636 77.7867Z" transform="translate(37.0859 39.0197)" fill="#0078D7"></path>
  <path fill-rule="evenodd" clip-rule="evenodd" d="M8.98961 3.18485C8.37104 3.18485 7.82548 2.73577 7.72687 2.10501C7.61545 1.40773 8.09186 0.75266 8.7911 0.64135C10.9401 0.302302 13.1326 0.0860794 15.3097 0.00163726C15.9974 -0.0341867 16.6109 0.522364 16.6391 1.22989C16.666 1.93613 16.1153 2.53106 15.4096 2.55793C13.3349 2.63981 11.2423 2.84452 9.19067 3.1695C9.1228 3.17973 9.0562 3.18485 8.98961 3.18485ZM28.0985 3.561C28.0153 3.561 27.932 3.55332 27.8475 3.53669C25.8138 3.13239 23.7314 2.84452 21.658 2.68076C20.9536 2.62574 20.4273 2.00906 20.4824 1.30537C20.54 0.600409 21.1445 0.0771234 21.8604 0.12958C24.0324 0.302302 26.2146 0.602968 28.347 1.02646C29.0398 1.16464 29.4919 1.83761 29.3523 2.53106C29.2319 3.14007 28.6979 3.561 28.0985 3.561ZM1.28125 4.98756C0.736961 4.98756 0.232374 4.63828 0.0594829 4.09196C-0.153109 3.41771 0.222132 2.69995 0.898326 2.48756C1.39138 2.33147 1.89085 2.18306 2.39159 2.04232C3.07675 1.85169 3.77983 2.24703 3.97193 2.92641C4.16275 3.60706 3.76703 4.3133 3.08699 4.50522C2.61186 4.63956 2.13673 4.78029 1.66545 4.92871C1.53866 4.96837 1.40931 4.98756 1.28125 4.98756ZM40.2444 7.51699C40.0651 7.51699 39.882 7.4786 39.7065 7.398C37.8252 6.52671 35.8683 5.75905 33.8923 5.1155C33.2199 4.89672 32.8524 4.17385 33.0713 3.50215C33.2903 2.83045 34.0139 2.46325 34.685 2.68203C36.7584 3.35757 38.81 4.16361 40.7848 5.07712C41.4264 5.37395 41.7056 6.13521 41.4072 6.7762C41.1921 7.24319 40.7285 7.51699 40.2444 7.51699ZM51.116 14.2276C50.8368 14.2276 50.5551 14.1367 50.3181 13.9487C48.6904 12.6539 46.9705 11.4448 45.207 10.356C44.6064 9.985 44.4194 9.19687 44.7908 8.59554C45.1622 7.99421 45.9511 7.80742 46.553 8.17973C48.4023 9.32098 50.2067 10.5889 51.9151 11.9476C52.4671 12.3865 52.5593 13.1925 52.1188 13.7452C51.8652 14.0625 51.4925 14.2276 51.116 14.2276ZM60.1153 23.2923C59.7336 23.2923 59.3571 23.1234 59.1048 22.801C57.8293 21.171 56.4385 19.596 54.9721 18.1196C54.4752 17.6181 54.4778 16.8082 54.9798 16.3105C55.4793 15.8128 56.2925 15.8153 56.7907 16.3169C58.3262 17.865 59.7849 19.5154 61.1232 21.2248C61.5586 21.7813 61.46 22.5848 60.9029 23.0198C60.6698 23.2027 60.3906 23.2923 60.1153 23.2923ZM66.7364 34.202C66.2484 34.202 65.7835 33.9231 65.5684 33.451C64.7142 31.5676 63.7332 29.7112 62.6549 27.9328C62.2886 27.3276 62.4832 26.5408 63.0877 26.1749C63.6909 25.8102 64.4785 26.0021 64.8461 26.6073C65.9769 28.4714 67.0053 30.4187 67.9018 32.3941C68.1938 33.0377 67.9082 33.7951 67.264 34.0868C67.0924 34.1649 66.9131 34.202 66.7364 34.202ZM70.5925 46.3655C69.9893 46.3655 69.4527 45.9394 69.3348 45.3266C68.9455 43.291 68.4307 41.2542 67.8057 39.2749C67.5918 38.6019 67.9658 37.8829 68.6394 37.6692C69.3195 37.4568 70.0328 37.8304 70.2467 38.5034C70.9037 40.5786 71.4441 42.7127 71.8514 44.8468C71.9833 45.5402 71.5274 46.2107 70.8332 46.3437C70.7525 46.3591 70.6719 46.3655 70.5925 46.3655ZM71.4953 59.0983C71.4748 59.0983 71.4531 59.0983 71.4339 59.097C70.7269 59.0638 70.1814 58.465 70.2147 57.7588C70.2531 56.9246 70.2736 56.0904 70.2736 55.2549C70.2736 54.0126 70.2288 52.7549 70.1417 51.5164C70.0917 50.8115 70.6232 50.1999 71.3288 50.15C72.0268 50.1116 72.6454 50.6311 72.6953 51.336C72.7875 52.6347 72.8349 53.9525 72.8349 55.2549C72.8349 56.1301 72.8144 57.0052 72.7734 57.879C72.7402 58.5648 72.1741 59.0983 71.4953 59.0983ZM69.395 71.6904C69.2772 71.6904 69.1568 71.6738 69.0377 71.6393C68.3577 71.4422 67.9684 70.7309 68.1656 70.0528C68.7445 68.062 69.2119 66.0136 69.5538 63.9665C69.6704 63.2693 70.3312 62.7959 71.0266 62.9149C71.7246 63.0313 72.1959 63.6902 72.0806 64.3875C71.722 66.5343 71.2328 68.6799 70.6245 70.768C70.4618 71.3271 69.9508 71.6904 69.395 71.6904Z" transform="translate(45.3799)" fill="#ACD1EF"></path>
  <path fill-rule="evenodd" clip-rule="evenodd" d="M20.1575 3.48483C20.0525 3.48483 19.9475 3.47204 19.8412 3.44517C17.8626 2.94491 15.8224 2.64553 13.7785 2.55725C13.0716 2.52782 12.5234 1.93033 12.5542 1.22408C12.5849 0.519121 13.1779 -0.0259158 13.8874 0.000952095C16.108 0.096909 18.3223 0.420603 20.4713 0.965639C21.1564 1.13964 21.5714 1.83437 21.3985 2.52014C21.2512 3.09972 20.7287 3.48483 20.1575 3.48483ZM1.28171 4.60689C0.766877 4.60689 0.281505 4.29471 0.0855618 3.78678C-0.168011 3.12659 0.161118 2.38708 0.820664 2.13248C2.89279 1.33667 5.05329 0.751976 7.24579 0.395016C7.96041 0.273471 8.6033 0.755814 8.716 1.4531C8.82998 2.15039 8.35614 2.80801 7.65817 2.9206C5.63855 3.24942 3.64711 3.78805 1.74147 4.52117C1.59035 4.57874 1.43411 4.60689 1.28171 4.60689ZM31.5709 9.07336C31.2955 9.07336 31.0176 8.98508 30.7845 8.80212C29.1696 7.54317 27.4228 6.45054 25.5914 5.55494C24.9575 5.24404 24.6949 4.47638 25.0049 3.84307C25.3161 3.20847 26.0845 2.94619 26.7197 3.25709C28.7086 4.23073 30.6065 5.41804 32.3598 6.78575C32.9181 7.22076 33.0167 8.02423 32.5813 8.58078C32.329 8.90448 31.9525 9.07336 31.5709 9.07336ZM39.7953 18.765C39.3407 18.765 38.9002 18.5219 38.6683 18.0959C37.6963 16.3047 36.5309 14.6056 35.2041 13.0447C34.7469 12.5061 34.8122 11.6987 35.3514 11.242C35.8906 10.7865 36.6987 10.8492 37.1572 11.3891C38.5966 13.0844 39.8645 14.9293 40.9198 16.8753C41.2579 17.4971 41.0261 18.2737 40.4049 18.6102C40.2103 18.7151 40.0015 18.765 39.7953 18.765ZM43.4286 30.9388C42.7691 30.9388 42.2107 30.4334 42.1543 29.7668C41.9814 27.7261 41.5985 25.7021 41.0158 23.7497C40.8135 23.0728 41.199 22.3602 41.8764 22.1581C42.5629 21.9559 43.2685 22.3423 43.4696 23.0191C44.1022 25.1391 44.5185 27.3372 44.7054 29.5519C44.7656 30.2555 44.2431 30.8748 43.5375 30.9336C43.5016 30.9375 43.4645 30.9388 43.4286 30.9388ZM41.8969 43.5501C41.7599 43.5501 41.6229 43.5283 41.4858 43.4822C40.816 43.2545 40.4574 42.5291 40.6828 41.8599C41.3373 39.9293 41.7945 37.9206 42.0404 35.8889C42.1262 35.1864 42.7819 34.69 43.4657 34.7732C44.1688 34.8576 44.6696 35.4961 44.5838 36.1972C44.3148 38.4029 43.8205 40.5843 43.1097 42.68C42.9291 43.2136 42.431 43.5501 41.8969 43.5501Z" transform="translate(50.3945 22.9664)" fill="#ACD1EF"></path>
  <path fill-rule="evenodd" clip-rule="evenodd" d="M2.01834 8.79341C1.9479 8.79341 1.87874 8.78829 1.80703 8.7755C1.10906 8.66035 0.637774 8.00017 0.754315 7.30288C1.11162 5.15728 1.60212 3.00913 2.20916 0.922381C2.40638 0.244286 3.10947 -0.145939 3.79719 0.0510926C4.47595 0.248124 4.86655 0.958203 4.66805 1.63758C4.08918 3.62837 3.62174 5.67545 3.2798 7.72509C3.17606 8.34945 2.63306 8.79341 2.01834 8.79341ZM1.41386 21.5429C0.747912 21.5429 0.185697 21.0286 0.138313 20.3543C0.0461042 19.0557 0 17.7366 0 16.4354C0 15.5603 0.0192101 14.6852 0.0614722 13.8113C0.0947697 13.1051 0.669791 12.5549 1.40105 12.5933C2.1067 12.6266 2.65227 13.2253 2.62025 13.9316C2.58055 14.7645 2.56134 15.6 2.56134 16.4354C2.56134 17.6765 2.60489 18.9341 2.69197 20.1739C2.74192 20.8789 2.21044 21.4904 1.50607 21.5403C1.47533 21.5416 1.4446 21.5429 1.41386 21.5429ZM3.80744 34.0813C3.26443 34.0813 2.75985 33.732 2.58696 33.1857C1.93125 31.1117 1.39081 28.9776 0.982275 26.8436C0.850366 26.1488 1.30628 25.4797 2.00041 25.3466C2.69709 25.2161 3.36688 25.669 3.49879 26.3638C3.88812 28.3993 4.40295 30.4362 5.0292 32.4155C5.24307 33.0884 4.86911 33.8075 4.1942 34.0211C4.06613 34.0621 3.9355 34.0813 3.80744 34.0813ZM9.08508 45.6997C8.65222 45.6997 8.22959 45.4797 7.98755 45.083C6.85671 43.2176 5.82962 41.2704 4.93187 39.2962C4.64115 38.6527 4.92674 37.894 5.56964 37.6022C6.21638 37.3093 6.97326 37.5958 7.26653 38.2394C8.12074 40.1214 9.10045 41.9779 10.1788 43.7576C10.545 44.3615 10.3517 45.1483 9.74591 45.5142C9.53972 45.6396 9.31048 45.6997 9.08508 45.6997ZM16.9522 55.7509C16.6231 55.7509 16.2927 55.6255 16.043 55.3722C14.5049 53.8228 13.0462 52.1723 11.7105 50.4656C11.2763 49.909 11.3749 49.1056 11.9307 48.6693C12.4878 48.233 13.2946 48.3341 13.7301 48.8893C15.0031 50.5168 16.3939 52.0917 17.8615 53.5708C18.3597 54.0723 18.3571 54.8822 17.8538 55.3799C17.6041 55.6268 17.2788 55.7509 16.9522 55.7509ZM26.953 63.7013C26.7225 63.7013 26.4907 63.6398 26.2807 63.5106C24.4314 62.3694 22.6282 61.1015 20.9198 59.7427C20.3665 59.3039 20.2756 58.4978 20.7161 57.9451C21.1541 57.3937 21.9584 57.3003 22.5155 57.7417C24.1432 59.0365 25.8632 60.2455 27.6266 61.333C28.2286 61.7041 28.4143 62.4935 28.0429 63.0935C27.8021 63.4863 27.382 63.7013 26.953 63.7013ZM38.5456 69.071C38.415 69.071 38.2805 69.0505 38.1499 69.007C36.0778 68.3328 34.0249 67.5267 32.0501 66.6132C31.4085 66.3164 31.1293 65.5551 31.4277 64.9142C31.7235 64.2732 32.4829 63.9942 33.1284 64.2911C35.011 65.1636 36.9666 65.9313 38.9427 66.5748C39.615 66.7936 39.9838 67.5152 39.7648 68.1882C39.5881 68.7281 39.0848 69.071 38.5456 69.071ZM70.0937 69.6954C69.5366 69.6954 69.0218 69.3269 68.8617 68.7627C68.6709 68.082 69.0666 67.3758 69.7479 67.1838C70.2243 67.0495 70.6982 66.9088 71.1695 66.7604C71.8469 66.5493 72.5628 66.9267 72.7741 67.5997C72.9855 68.2739 72.6089 68.9917 71.9353 69.2028C71.4384 69.3576 70.9415 69.506 70.4433 69.6468C70.3268 69.6787 70.209 69.6954 70.0937 69.6954ZM51.077 71.5633C51.0424 71.5633 51.0091 71.562 50.9746 71.5595C48.8013 71.388 46.619 71.0861 44.4867 70.6626C43.7938 70.5257 43.343 69.8514 43.4814 69.1593C43.6184 68.4658 44.2882 68.0206 44.9874 68.1537C47.0211 68.5567 49.1035 68.8458 51.1769 69.0083C51.8813 69.0633 52.4076 69.68 52.3526 70.385C52.2988 71.0554 51.7378 71.5633 51.077 71.5633ZM57.4753 71.6887C56.7914 71.6887 56.2228 71.1488 56.1971 70.4592C56.169 69.7529 56.7197 69.1593 57.4266 69.1311C59.5013 69.0505 61.5939 68.8445 63.6442 68.5208C64.3448 68.4108 65.0005 68.8868 65.1093 69.5841C65.2207 70.2826 64.7443 70.9377 64.0451 71.0477C61.8949 71.388 59.7023 71.603 57.5265 71.6874C57.5085 71.6887 57.4919 71.6887 57.4753 71.6887Z" transform="translate(0 45.6091)" fill="#ACD1EF"></path>
  <path fill-rule="evenodd" clip-rule="evenodd" d="M1.40065 8.78592C1.34942 8.78592 1.29692 8.78336 1.24569 8.77696C0.542602 8.69124 0.0418601 8.05409 0.127665 7.35168C0.396606 5.14595 0.892225 2.96453 1.60172 0.870107C1.8284 0.199688 2.55454 -0.15855 3.22561 0.0679088C3.8954 0.294367 4.25527 1.0198 4.02859 1.68894C3.37417 3.6196 2.91825 5.6283 2.67108 7.6613C2.59168 8.30997 2.03971 8.78592 1.40065 8.78592ZM2.46745 21.4458C1.9142 21.4458 1.40577 21.0863 1.24057 20.531C0.607916 18.411 0.191698 16.213 0.00471975 13.9996C-0.0554718 13.2946 0.467043 12.6767 1.17269 12.6165C1.87066 12.5564 2.49563 13.0797 2.55582 13.7846C2.72871 15.8228 3.11163 17.8481 3.69433 19.8005C3.89668 20.4773 3.5112 21.19 2.83372 21.3921C2.71078 21.4279 2.58783 21.4458 2.46745 21.4458ZM8.53271 32.6114C8.169 32.6114 7.80913 32.4579 7.55556 32.1598C6.11608 30.4658 4.8495 28.6196 3.79295 26.6749C3.45485 26.0543 3.68665 25.2764 4.30906 24.9399C4.93018 24.6047 5.70755 24.8325 6.04437 25.4543C7.01768 27.2442 8.18181 28.9433 9.50858 30.5042C9.96578 31.0428 9.90047 31.8501 9.36131 32.3069C9.11926 32.5116 8.82598 32.6114 8.53271 32.6114ZM18.5565 40.4236C18.367 40.4236 18.1749 40.3813 17.993 40.2918C16.0041 39.3181 14.1062 38.1308 12.353 36.7631C11.7946 36.3281 11.696 35.5246 12.1314 34.9681C12.5655 34.4103 13.3698 34.3092 13.9282 34.7468C15.5431 36.0057 17.2899 37.0983 19.1213 37.9952C19.7552 38.3061 20.0178 39.0725 19.7079 39.7058C19.485 40.16 19.0304 40.4236 18.5565 40.4236ZM37.2607 43.1692C36.6447 43.1692 36.1004 42.7227 35.998 42.0958C35.884 41.3985 36.3579 40.7409 37.0558 40.627C39.0767 40.2969 41.0669 39.7595 42.9712 39.0277C43.6321 38.7757 44.3723 39.1032 44.6272 39.7621C44.8807 40.4223 44.5503 41.1618 43.892 41.4164C41.8225 42.2109 39.662 42.7956 37.4682 43.1526C37.3978 43.1641 37.3299 43.1692 37.2607 43.1692ZM30.8817 43.5479C30.8625 43.5479 30.8433 43.5479 30.8254 43.5466C28.6047 43.452 26.3904 43.1283 24.2414 42.5832C23.5563 42.4092 23.1413 41.7132 23.3142 41.0287C23.4884 40.343 24.1838 39.9271 24.8715 40.1037C26.8502 40.604 28.8903 40.9034 30.9355 40.9904C31.6411 41.0211 32.1893 41.6185 32.1598 42.3235C32.1291 43.0106 31.563 43.5479 30.8817 43.5479Z" transform="translate(23.1064 50.7836)" fill="#ACD1EF"></path>
</symbol>
                            </svg>