<svg xmlns="http://www.w3.org/2000/svg">
                                
                            
    <path fill="#59B4D9" d="M18.5,50h0.3c10.4,0,18.8-3,18.8-6.8V6.9H18.5L18.5,50L18.5,50z"></path>
    <path fill="#3999C6" d="M0,6.8v36.3c0,3.8,8.4,6.8,18.8,6.8V6.8L0,6.8L0,6.8z"></path>
    <path fill="#FFFFFF" d="M37.6,6.8c0,3.8-8.4,6.8-18.8,6.8S0,10.6,0,6.8S8.4,0,18.8,0S37.6,3,37.6,6.8"></path>
    <path fill="#7FBA00" d="M33.7,6.4c0,2.5-6.7,4.5-14.9,4.5S3.9,8.9,3.9,6.4s6.7-4.5,14.9-4.5S33.7,3.9,33.7,6.4"></path>
    <path fill="#B8D432" d="M30.6,9.2c2-0.8,3.1-1.8,3.1-2.8c0-2.5-6.7-4.5-14.9-4.5S3.9,3.9,3.9,6.4c0,1,1.1,2,3.1,2.8 c2.8-1,7-1.8,11.8-1.8S27.8,8.2,30.6,9.2"></path>
    <polygon fill="#0072C6" points="48.569,29.114 45.136,25.681 43.706,24.25 43.563,24.25 26.396,24.25 26.396,50 50,50 50,30.688 50,30.544 "></polygon>
    <polygon opacity="0.8" fill="#FFFFFF" points="43.563,25.681 27.826,25.681 27.826,48.569 48.569,48.569 48.569,30.688 43.563,30.688 "></polygon>
    <path fill="#0072C6" d="M43.419,45.136c0,0.429-0.358,0.787-0.787,0.787H31.832c-0.429,0-0.787-0.358-0.787-0.787 s0.358-0.787,0.787-0.787h10.801C43.062,44.349,43.419,44.707,43.419,45.136"></path>
    <path fill="#0072C6" d="M45.637,37.268c0,0.429-0.358,0.787-0.787,0.787H31.832c-0.429,0-0.787-0.358-0.787-0.787 c0-0.429,0.358-0.787,0.787-0.787h12.947C45.279,36.481,45.637,36.839,45.637,37.268"></path>
    <path fill="#0072C6" d="M45.637,41.202c0,0.429-0.358,0.787-0.787,0.787H31.832c-0.429,0-0.787-0.358-0.787-0.787 c0-0.429,0.358-0.787,0.787-0.787h12.947C45.279,40.415,45.637,40.773,45.637,41.202"></path>
    <path fill="#0072C6" d="M45.637,33.334c0,0.429-0.358,0.787-0.787,0.787H31.832c-0.429,0-0.787-0.358-0.787-0.787 c0-0.429,0.358-0.787,0.787-0.787h12.947C45.279,32.547,45.637,32.905,45.637,33.334"></path>
</svg>