<svg xmlns="http://www.w3.org/2000/svg" viewBox="0 0 77.17 45.129">
                                
                            
    <path d="M27.17,40.6a2.006,2.006,0,0,0,2,2h46a2.006,2.006,0,0,0,2-2V9.3h-50Z" fill="#89c302"></path>
    <path d="M75.17,0h-46a2.006,2.006,0,0,0-2,2V9.6h50V2a2.006,2.006,0,0,0-2-2" fill="#a0a1a2"></path>
    <path d="M29.17,0a2.006,2.006,0,0,0-2,2V40.6a2.006,2.006,0,0,0,2,2h2.2L70.77,0Z" fill="#fff" opacity="0.2" style="isolation:isolate"></path>
    <text transform="translate(28.744 33.099)" font-size="28.722" fill="#fff" font-family="SegoeUI, Segoe UI" letter-spacing="0.04em">
        &lt;<tspan x="20.797" y="0" font-size="23" letter-spacing="0.04em"> </tspan><tspan x="28.018" y="0">&gt;</tspan>
    </text>
    <line x1="48.326" y1="31.437" x2="56.326" y2="16.937" fill="none" stroke="#fff" stroke-miterlimit="10" stroke-width="1.5"></line>
    <path d="M40.734,40.277a4.714,4.714,0,0,0-4.725-4.725h-.638a13.882,13.882,0,0,0,.511-3.32,12.566,12.566,0,0,0-24.517-3.958,9.961,9.961,0,0,0-2.809-.511,8.684,8.684,0,0,0,0,17.366H36.393a4.856,4.856,0,0,0,4.342-4.852" fill="#59b4d9"></path>
    <path d="M13.152,45.129a8.68,8.68,0,0,1,4.214-14.557,7.055,7.055,0,0,1,2.809-.128A12.666,12.666,0,0,1,27.2,20.229a12.038,12.038,0,0,0-3.831-.638,12.5,12.5,0,0,0-11.875,8.683,9.961,9.961,0,0,0-2.809-.511,8.684,8.684,0,0,0,0,17.366h4.469Z" fill="#fff" opacity="0.2" style="isolation:isolate"></path>
</svg>