<svg>
                                <symbol id="svg-backup-one-cloud" viewBox="0 0 16 16">
    <path fill="#00ABEC" d="M3.5,13h8.25C14.094,13,16,11.094,16,8.75c0-2.248-1.754-4.094-3.966-4.24C11.279,2.974,9.73,2,8,2 C5.688,2,3.777,3.753,3.528,6C3.518,6,3.509,6,3.5,6C1.57,6,0,7.57,0,9.5S1.57,13,3.5,13z M3.5,7c0.13,0,0.267,0.012,0.419,0.038 L4.5,7.092V6.5C4.5,4.57,6.07,3,8,3c1.433,0,2.706,0.859,3.244,2.19l0.169,0.31h0.337C13.542,5.5,15,6.958,15,8.75 S13.542,12,11.75,12H3.5C2.122,12,1,10.878,1,9.5S2.122,7,3.5,7z"></path>
    <path fill="#00ABEC" d="M11.59,4.655C9.533,5.113,7.81,6.556,7,8.527V6.5H6V10h3.5V9H7.887C8.701,6.912,10.716,5.5,13,5.5 L11.59,4.655z"></path>
</symbol>
                            </svg>