<svg xmlns="http://www.w3.org/2000/svg" viewBox="0 0 45 43">
                                
                            
    <g stroke="none" stroke-width="1" fill="none" fill-rule="evenodd">
        <polygon fill="#FFFFFF" points="0.75 35.6187 35.62 35.6187 35.62 0.7507 0.75 0.7507"></polygon>
        <path d="M0,0.0002 L0,1.5002 L0,34.8702 L0,36.3692 L1.5,36.3692 L34.869,36.3692 L36.369,36.3692 L36.369,34.8702 L36.369,1.5002 L36.369,0.0002 L0,0.0002 Z M1.5,34.8692 L34.868,34.8692 L34.868,1.5002 L1.5,1.5002 L1.5,34.8692 Z" fill="#0078D7"></path>
        <polygon fill="#0078D7" points="9.0625 17.8686 13.5675 15.3596 13.5655 13.8986 6.9965 17.5976 6.9965 18.2206 13.5795 21.5106 13.5765 20.0656"></polygon>
        <polygon fill="#0078D7" points="16.3955 24.06 21.5085 11.571 20.0345 11.573 14.9355 24.062"></polygon>
        <polygon fill="#0078D7" points="22.9844 15.3432 27.5264 17.8432 27.3524 17.9272 22.9934 20.0492 22.9954 21.4942 29.5654 18.1792 29.5654 17.5572 22.9814 13.8832"></polygon>
        <path d="M33.5313,42.2192 C27.9873,42.2192 23.4773,37.7092 23.4773,32.1652 C23.4773,26.6212 27.9873,22.1112 33.5313,22.1112 C39.0753,22.1112 43.5853,26.6212 43.5853,32.1652 C43.5853,37.7092 39.0753,42.2192 33.5313,42.2192" fill="#FFFFFF"></path>
        <path d="M33.5313,21.4858 C27.6423,21.4858 22.8513,26.2768 22.8513,32.1658 C22.8513,38.0538 27.6423,42.8438 33.5313,42.8438 C39.4203,42.8438 44.2113,38.0538 44.2113,32.1658 C44.2113,26.2768 39.4203,21.4858 33.5313,21.4858 M33.5313,22.7358 C38.7303,22.7358 42.9613,26.9658 42.9613,32.1658 C42.9613,37.3638 38.7303,41.5938 33.5313,41.5938 C28.3323,41.5938 24.1013,37.3638 24.1013,32.1658 C24.1013,26.9658 28.3323,22.7358 33.5313,22.7358" fill="#0078D7"></path>
        <polygon fill="#0078D7" points="31.6953 36.395 28.1153 32.815 29.0373 31.893 31.6953 34.552 38.1673 28.08 39.0893 29"></polygon>
    </g>
</svg>