<svg>
                                <symbol id="svg-resell-azure" viewBox="0 0 31.5 36">
    <path d="M29.848,14.766a5.617,5.617,0,0,1,1.23,1.819,5.534,5.534,0,0,1,.422,2.153V36H29.25V18.738A3.386,3.386,0,0,0,29,17.446a3.306,3.306,0,0,0-.729-1.1L22.5,10.6v6.926l1.916,1.934-1.582,1.582-6.5-6.486a1.607,1.607,0,0,0-1.178-.492,1.55,1.55,0,0,0-.633.132,1.727,1.727,0,0,0-.888.888,1.55,1.55,0,0,0-.132.633,1.607,1.607,0,0,0,.492,1.178l2.883,2.9V22.5a5.51,5.51,0,0,0,.439,2.188,5.6,5.6,0,0,0,3,3,5.51,5.51,0,0,0,2.188.439V36H0V0H22.5V7.4Zm-14.7-2.953a3.945,3.945,0,0,1,1.5.29,3.836,3.836,0,0,1,1.274.853l2.32,2.32V6.75A4.379,4.379,0,0,1,18.5,6.4,4.534,4.534,0,0,1,16.1,4,4.379,4.379,0,0,1,15.75,2.25h-9A4.379,4.379,0,0,1,6.4,4,4.534,4.534,0,0,1,4,6.4,4.379,4.379,0,0,1,2.25,6.75v22.5A4.379,4.379,0,0,1,4,29.6,4.534,4.534,0,0,1,6.4,32,4.379,4.379,0,0,1,6.75,33.75h9a4.339,4.339,0,0,1,.229-1.4,4.669,4.669,0,0,1,.633-1.239,4.441,4.441,0,0,1,.976-.984,4.493,4.493,0,0,1,1.257-.65,7.791,7.791,0,0,1-4.113-5.7,6.4,6.4,0,0,1-1.679.721,6.844,6.844,0,0,1-1.8.246,6.559,6.559,0,0,1-2.628-.527,6.825,6.825,0,0,1-3.595-3.595,6.79,6.79,0,0,1,0-5.247,6.8,6.8,0,0,1,3.595-3.6,6.559,6.559,0,0,1,2.628-.527,6.949,6.949,0,0,1,1.521.167,5.992,5.992,0,0,1,1.433.519A3.509,3.509,0,0,1,15.152,11.813ZM2.25,4.5a2.18,2.18,0,0,0,.879-.176,2.291,2.291,0,0,0,1.2-1.2A2.18,2.18,0,0,0,4.5,2.25H2.25ZM4.5,33.75a2.18,2.18,0,0,0-.176-.879,2.291,2.291,0,0,0-1.2-1.2A2.18,2.18,0,0,0,2.25,31.5v2.25Zm7.893-15.258a3.836,3.836,0,0,1-.853-1.274,3.945,3.945,0,0,1-.29-1.5,3.841,3.841,0,0,1,.65-2.162,3.95,3.95,0,0,0-.65-.053,4.379,4.379,0,0,0-1.749.352,4.534,4.534,0,0,0-2.4,2.4,4.526,4.526,0,0,0,0,3.5,4.534,4.534,0,0,0,2.4,2.4,4.379,4.379,0,0,0,1.749.352,4.429,4.429,0,0,0,1.854-.4,4.479,4.479,0,0,0,1.521-1.134v-.264ZM18,2.25a2.18,2.18,0,0,0,.176.879,2.291,2.291,0,0,0,1.2,1.2,2.18,2.18,0,0,0,.879.176V2.25ZM20.25,31.5a2.18,2.18,0,0,0-.879.176,2.291,2.291,0,0,0-1.2,1.2A2.18,2.18,0,0,0,18,33.75h2.25Z" fill="#fff"></path>
</symbol>
                            </svg>