<svg xmlns="http://www.w3.org/2000/svg" viewBox="0 0 49 49">
                                
                            
  <path d="M24.7922 39.7274C33.3029 39.7274 40.2021 32.833 40.2021 24.3283C40.2021 15.8237 33.3029 8.92926 24.7922 8.92926C16.2816 8.92926 9.38232 15.8237 9.38232 24.3283C9.38232 32.833 16.2816 39.7274 24.7922 39.7274Z" fill="#0078D4"></path>
  <path d="M33.3992 19.1223L31.2664 16.9826L20.5604 27.6811L17.357 24.4715L15.2158 26.6112L20.5604 31.9521L33.3992 19.1223Z" fill="#50E6FF"></path>
  <path d="M42.4612 40.5698C45.9849 36.6274 48.2273 31.5056 48.5223 25.8699H43.6161C43.3379 30.1493 41.635 34.0412 38.9712 37.0823L42.4612 40.5698Z" fill="#0078D4"></path>
  <path d="M6.79447 8.55017C3.21175 12.5095 0.935672 17.6649 0.640625 23.3427H5.77445C6.06107 19.0718 7.75548 15.1883 10.4025 12.1556L6.79447 8.55017Z" fill="#50E6FF"></path>
  <path d="M8.59814 42.4737C12.5686 46.0202 17.7193 48.2694 23.4011 48.5474V43.5267C19.1271 43.2402 15.2409 41.5302 12.2062 38.8766L8.59814 42.4737Z" fill="#0078D4"></path>
  <path d="M0.640625 25.8699C0.935672 31.5477 3.21175 36.7032 6.78604 40.6625L10.394 37.057C7.74705 34.0244 6.05264 30.1409 5.77445 25.8699H0.640625Z" fill="#0078D4"></path>
  <path d="M42.4529 8.64284L38.9629 12.1304C41.6267 15.163 43.3296 19.0549 43.6162 23.3427H48.5224C48.2274 17.7071 45.985 12.5853 42.4529 8.64284Z" fill="#50E6FF"></path>
  <path d="M25.9297 48.5305C31.5862 48.2188 36.7116 45.9443 40.6568 42.381L37.1583 38.885C34.1151 41.5386 30.2121 43.2402 25.9297 43.5182V48.5305Z" fill="#0078D4"></path>
  <path d="M25.9297 0.699005V5.71129C30.2121 5.98928 34.1067 7.68251 37.1415 10.3276L40.6399 6.83168C36.7031 3.27675 31.5777 1.01069 25.9297 0.699005Z" fill="#50E6FF"></path>
  <path d="M23.4008 0.690582C17.7359 0.960151 12.5852 3.20936 8.61475 6.74744L12.2143 10.3445C15.2491 7.69936 19.1269 5.99771 23.3924 5.71129V0.690582H23.4008Z" fill="#50E6FF"></path>
</svg>