<svg>
                                <symbol id="svg-bing-image-search-api" viewBox="0 0 512 512">
    <g stroke="none" fill-rule="evenodd" stroke-width="1" fill="#0063B1" transform="translate(96.000000, 147.000000)">
        <polygon points="188.444444 217.086613 268.0832 217.086613 268.0832 137.442169 188.444444 137.442169"></polygon>
        <polygon points="188.444444 80.55328 268.0832 80.55328 268.0832 0.914524444 188.444444 0.914524444"></polygon>
        <polygon points="51.9111111 80.55328 131.555556 80.55328 131.555556 0.914524444 51.9111111 0.914524444"></polygon>
        <path d="M115.205689,200.900018 C101.967644,214.138062 80.7025778,214.263218 67.7091556,201.269796 C54.7214222,188.276373 54.8465778,167.011307 68.0846222,153.773262 C81.3226667,140.535218 102.587733,140.410062 115.581156,153.397796 C128.574578,166.396907 128.449422,187.656284 115.205689,200.900018 M51.6664889,137.360818 C32.2503111,156.776996 29.6220444,186.615218 43.9296,208.591396 L0.711111111,251.809884 L16.8049778,267.898062 L59.9438222,224.753529 C81.9598222,239.396729 112.071111,236.865173 131.623822,217.312462 C153.884444,195.05184 154.094933,159.086684 131.9936,136.985351 C109.892267,114.884018 73.9328,115.094507 51.6664889,137.360818"></path>
    </g>
</symbol>
                            </svg>