<svg>
                                <symbol id="svg-powerapps" viewBox="0 0 67 50">
    <path d="M44.051,37.462c-0.82-0.82-2.161-0.82-2.981,0l-4.472,4.471c-0.82,0.82-0.82,2.161,0,2.981l4.472,4.472
			c0.82,0.819,2.161,0.819,2.981,0l4.472-4.472c0.82-0.82,0.82-2.161,0-2.981L44.051,37.462z"></path>
    <path d="M53.367,28.132c-0.82-0.82-2.161-0.82-2.981,0l-4.472,4.471c-0.82,0.82-0.82,2.161,0,2.981l4.472,4.471
			c0.82,0.82,2.161,0.82,2.981,0l4.472-4.471c0.82-0.82,0.82-2.161,0-2.981L53.367,28.132z"></path>
    <path d="M39.223,32.603l-1.455-1.455l0,0L25.436,18.817c-0.82-0.82-2.161-0.82-2.981,0L10.122,31.149l0,0l-1.455,1.455
			c-0.82,0.82-0.82,2.161,0,2.981l1.455,1.455l0,0l12.333,12.332c0.82,0.82,2.161,0.82,2.981,0l12.333-12.332l0,0l1.455-1.455
			C40.043,34.765,40.043,33.423,39.223,32.603z M22.455,40.056l-3.329-3.329l-1.143-1.142c-0.82-0.82-0.82-2.161,0-2.981
			l4.472-4.472c0.82-0.82,2.161-0.82,2.981,0l4.472,4.472c0.82,0.82,0.82,2.161,0,2.981l-1.143,1.142l-3.329,3.329
			C24.616,40.875,23.275,40.875,22.455,40.056z"></path>
    <path d="M44.051,30.74l4.472-4.472c0.82-0.82,0.82-2.161,0-2.981l-4.472-4.471c-0.82-0.82-2.161-0.82-2.981,0l-4.472,4.471
			c-0.82,0.82-0.82,2.161,0,2.981l4.472,4.472C41.89,31.56,43.231,31.56,44.051,30.74z"></path>
    <path d="M58.92,43.278h-1.347v-2.694h1.347c2.858,0,5.184-2.326,5.184-5.184V7.879c0-2.859-2.326-5.185-5.184-5.185H7.879
		c-2.858,0-5.184,2.326-5.184,5.185v27.52c0,2.858,2.326,5.184,5.184,5.184h1.347v2.694H7.879C3.534,43.278,0,39.744,0,35.399V7.879
		C0,3.534,3.534,0,7.879,0H58.92c4.345,0,7.879,3.534,7.879,7.879v27.52C66.799,39.744,63.265,43.278,58.92,43.278"></path>
</symbol>
                            </svg>