<svg xmlns="http://www.w3.org/2000/svg">
                                
                            
    <path d="M28.431,27.562a2.593,2.593,0,0,1-.764,1.955,3.732,3.732,0,0,1-2.23.908v1.59h-1.07V30.469A6,6,0,0,1,21.6,29.8V27.767a4.326,4.326,0,0,0,1.264.626,5.954,5.954,0,0,0,1.5.348V26.075a6.108,6.108,0,0,1-2.293-1.314,2.845,2.845,0,0,1,.154-3.846,3.479,3.479,0,0,1,2.139-.934V18.619h1.07v1.333a5.432,5.432,0,0,1,2.307.5v1.978a5.642,5.642,0,0,0-2.307-.762v2.775a6,6,0,0,1,2.307,1.318A2.536,2.536,0,0,1,28.431,27.562Zm-4.064-3.545V21.695q-1.017.183-1.018,1.063C23.349,23.269,23.689,23.69,24.367,24.017Zm2.117,3.647q0-.709-1.047-1.172v2.22Q26.483,28.543,26.484,27.664Z" fill="#0f0f0f"></path>
    <path d="M25,38.81a13.81,13.81,0,1,1,0-27.619h0A13.809,13.809,0,0,1,38.809,25H50A25,25,0,0,0,25,0h0a25,25,0,1,0,16.642,43.65l-7.457-8.358A13.742,13.742,0,0,1,25,38.81Z" fill="#7fba00"></path>
    <path d="M25,38.81a13.81,13.81,0,1,1,0-27.619h0A13.809,13.809,0,0,1,38.809,25H50A25,25,0,0,0,25,0h0a25,25,0,1,0,16.642,43.65l-7.457-8.358A13.742,13.742,0,0,1,25,38.81Z" fill="#fff" opacity="0.1" style="isolation: isolate"></path>
    <path d="M50,25H38.809a13.757,13.757,0,0,1-4.625,10.292l7.457,8.359A24.937,24.937,0,0,0,50,25" fill="#fcd116"></path>
    <path d="M38.809,25H50A25,25,0,0,0,25,0V11.191A13.81,13.81,0,0,1,38.809,25" fill="#b8d432" opacity="0.9" style="isolation: isolate"></path>
</svg>