<svg xmlns="http://www.w3.org/2000/svg">
                                
                            
    <path d="M0,5.9V37.27c0,3.257,7.291,5.9,16.284,5.9V5.9Z" fill="#0072c6"></path>
    <path d="M16.061,43.167h.223c8.993,0,16.284-2.639,16.284-5.9V5.9H16.061Z" fill="#0072c6"></path>
    <path d="M16.061,43.167h.223c8.993,0,16.284-2.639,16.284-5.9V5.9H16.061Z" fill="#fff" opacity="0.15" style="isolation: isolate"></path>
    <path d="M32.568,5.9c0,3.257-7.291,5.9-16.284,5.9S0,9.154,0,5.9,7.291,0,16.284,0,32.568,2.64,32.568,5.9" fill="#fff"></path>
    <path d="M29.239,5.558c0,2.151-5.8,3.891-12.955,3.891S3.328,7.708,3.328,5.558s5.8-3.891,12.956-3.891S29.239,3.409,29.239,5.558" fill="#dd5900"></path>
    <path d="M26.524,7.935c1.7-.658,2.715-1.482,2.715-2.376,0-2.151-5.8-3.892-12.956-3.892S3.329,3.409,3.329,5.559c0,.894,1.019,1.718,2.715,2.376A30.239,30.239,0,0,1,16.284,6.423a30.248,30.248,0,0,1,10.24,1.513" fill="#ff8c00"></path>
    <path d="M3.206,29.04H5.293V20.8l3.232,7.187a1.779,1.779,0,0,0,1.927,1.178,1.756,1.756,0,0,0,1.907-1.178L15.592,20.8V29.04H17.68V20.809a1.254,1.254,0,0,0-.983-1.392c-1.586-.5-2.65-.067-3.131,1l-3.172,7.093L7.321,20.421c-.462-1.071-1.545-1.5-3.131-1a1.254,1.254,0,0,0-.983,1.392V29.04Z" fill="#fff"></path>
    <path d="M19.416,22.329H21.5v4.542c-.02.247.079.826,1.223.844.584.009,4.5,0,4.54,0V22.307h2.092c.009,0,0,7.375,0,7.407.011,1.819-2.257,2.214-3.3,2.245H19.461v-1.4c.011,0,6.587,0,6.6,0,1.343-.142,1.185-.81,1.185-1.034v-.547H22.812c-2.064-.019-3.379-.92-3.4-1.956,0-.1.045-4.641,0-4.686Z" fill="#fff"></path>
</svg>