<svg xmlns="http://www.w3.org/2000/svg">
                                
                            
  <path d="M24.981,22.2a.957.957,0,0,0-.956.958v4.32h1.318l-.362-6.051Z" fill="none"></path>
  <rect x="23.551" y="41.4" width="2.638" height="5.084" fill="none"></rect>
  <polygon points="28.575 17.954 28.575 17.962 28.6 17.951 28.575 17.954" fill="none"></polygon>
  <path d="M25.139,17.893V16.671a.7.7,0,0,0-1.391,0v1.222Z" fill="none"></path>
  <rect x="18.282" y="40.434" width="2.638" height="6.05" fill="none"></rect>
  <rect x="13.025" y="40.434" width="2.638" height="6.05" fill="none"></rect>
  <rect x="7.749" y="40.434" width="2.638" height="6.05" fill="none"></rect>
  <path d="M17.569,31.561a.956.956,0,0,0-1.912,0v6.474h1.911Z" fill="none"></path>
  <path d="M22.357,38.035h1.912V31.561q0-.031,0-.062a.957.957,0,0,0-1.913.062Z" fill="none"></path>
  <path d="M20.92,31.561q0-.031,0-.062a.957.957,0,1,0-1.913.062v6.474h1.912Z" fill="none"></path>
  <path d="M22.587,27.485v-4.32a.956.956,0,0,0-1.912,0v4.32Z" fill="none"></path>
  <path d="M22.365,16.671h0a.7.7,0,1,0-1.4,0v1.222h1.4Z" fill="none"></path>
  <path d="M29.194,3.244h1V6.326h-.532V7.361H30.4a12.327,12.327,0,0,0-4.7,9.691v.839h.9V16.677a.713.713,0,0,1,.2-.5.671.671,0,0,1,.489-.2l0-.005a.644.644,0,0,1,.495.2.682.682,0,0,1,.19.509v1.21h.594v.063l.025,0-.025.011v2.329H24.981v1.141l.362,6.051H27.41V23.177a.977.977,0,0,1,1.66-.679.949.949,0,0,1,.287.679v4.314h-.782v2.392H26.656v.72a.957.957,0,0,0-.956.958v6.474h3.413V31.616a.958.958,0,0,1,.287-.683.977.977,0,0,1,1.66.683v6.418h.405v2.4H30.146v.033h1.319v6.017h2.676V40.467h2.6v6.017h2.672V40.467h2.6v6.017h2.676V40.47H47.36v6.014h2.352V40.467h2.676v6.017h5.245c.108-1.575.046-3.559.046-6.107H52.392V38.045H45.611V29.9h.958V27.5H40.336V20.314h1.2v-2.4h-1.2v-.237a10.3,10.3,0,0,0-7.924-10.01V6.347h-.97V3.29H31.7V2.875h-.257a1.431,1.431,0,0,0-.924-1.129V.426a.482.482,0,0,0-.958,0V1.713a1.431,1.431,0,0,0-.924,1.129h-.3V3.29H28.6V6.325h.594ZM54.5,42.251h1.7v1.7H54.5Zm-12-10.635a.957.957,0,0,1,.285-.68.977.977,0,0,1,.688-.282h0a.967.967,0,0,1,.972.962v6.5H42.494Zm-11.757-13.7H29.36V16.677a.712.712,0,0,1,.2-.5.673.673,0,0,1,.489-.2l0-.005a.644.644,0,0,1,.5.2.679.679,0,0,1,.19.509Zm9.405,12.736a.968.968,0,0,1,.974.962v6.5H39.169v-6.5A.968.968,0,0,1,40.142,30.654ZM37.71,16.681a.7.7,0,0,1,.69-.705v.005a.7.7,0,0,1,.689.7v1.241H37.71Zm-.244,6.5a.948.948,0,0,1,.933-.956h0a.947.947,0,0,1,.932.956v4.314H37.466Zm-.729,7.477a.967.967,0,0,1,.972.962v6.5H35.763v-6.5a.968.968,0,0,1,.973-.962Zm-1.784-13.97a.684.684,0,0,1,.179-.5.648.648,0,0,1,.474-.208l.033.005a.7.7,0,0,1,.692.7v1.244H34.953Zm-.812,6.493a.948.948,0,0,1,.3-.686.976.976,0,0,1,.686-.268l-.013,0h.027l-.014,0a.963.963,0,0,1,.961.954v4.314H34.141Zm.244,8.439v6.5H32.519v-6.5a.972.972,0,0,1,.28-.683.937.937,0,0,1,.673-.279A.955.955,0,0,1,34.385,31.616ZM32.2,16.684a.684.684,0,0,1,.179-.5.648.648,0,0,1,.474-.208l.036.005a.677.677,0,0,1,.489.2.716.716,0,0,1,.2.5v1.244H32.2Zm-.437,5.536h.034a.964.964,0,0,1,.97.957v4.314H30.816V23.177A.964.964,0,0,1,31.759,22.22ZM30.411,3.244h1V6.326h-1Z" fill="#969696"></path>
  <polygon points="30.194 3.244 29.194 3.244 29.194 6.325 29.662 6.325 29.662 6.326 30.194 6.326 30.194 3.244" fill="#fff"></polygon>
  <rect x="30.411" y="3.244" width="1" height="3.082" fill="#fff"></rect>
  <path d="M30.09,30.654a.973.973,0,0,0-.69.279.958.958,0,0,0-.287.683v6.418H31.06V31.616A.967.967,0,0,0,30.09,30.654Z" fill="#fff"></path>
  <path d="M32.8,30.933a.972.972,0,0,0-.28.683v6.5h1.866v-6.5a.955.955,0,0,0-.913-.962A.937.937,0,0,0,32.8,30.933Z" fill="#fff"></path>
  <path d="M35.763,31.616v6.5h1.946v-6.5a.967.967,0,0,0-.972-.962h0A.968.968,0,0,0,35.763,31.616Z" fill="#fff"></path>
  <path d="M39.169,38.116h1.947v-6.5a.974.974,0,0,0-1.947,0Z" fill="#fff"></path>
  <path d="M44.44,31.616a.967.967,0,0,0-.972-.962h0a.977.977,0,0,0-.688.282.957.957,0,0,0-.285.68v6.5H44.44Z" fill="#fff"></path>
  <path d="M29.357,23.177a.949.949,0,0,0-.287-.679.977.977,0,0,0-1.66.679v4.306h1.165v.008h.782Z" fill="#fff"></path>
  <path d="M30.816,23.177v4.314h1.947V23.177a.964.964,0,0,0-.97-.957h-.034A.964.964,0,0,0,30.816,23.177Z" fill="#fff"></path>
  <path d="M36.088,23.177a.963.963,0,0,0-.961-.954.976.976,0,0,0-.686.268.948.948,0,0,0-.3.686v4.314h1.947Z" fill="#fff"></path>
  <path d="M35.114,22.221l.013,0,.014,0Z" fill="#fff"></path>
  <polygon points="38.392 22.22 38.399 22.221 38.405 22.22 38.392 22.22" fill="#fff"></polygon>
  <path d="M39.331,23.177a.933.933,0,1,0-1.865,0v4.314h1.865Z" fill="#fff"></path>
  <path d="M27.791,16.172a.644.644,0,0,0-.495-.2l0,.005a.671.671,0,0,0-.489.2.713.713,0,0,0-.2.5v1.214h1.378v-1.21A.682.682,0,0,0,27.791,16.172Z" fill="#fff"></path>
  <path d="M30.047,15.972l0,.005a.673.673,0,0,0-.489.2.712.712,0,0,0-.2.5v1.241h1.377V16.681a.679.679,0,0,0-.19-.509A.644.644,0,0,0,30.047,15.972Z" fill="#fff"></path>
  <path d="M33.574,16.681a.716.716,0,0,0-.2-.5.677.677,0,0,0-.489-.2l-.036-.005a.648.648,0,0,0-.474.208.684.684,0,0,0-.179.5v1.241h1.378Z" fill="#fff"></path>
  <path d="M36.331,16.681a.7.7,0,0,0-.692-.7l-.033-.005a.648.648,0,0,0-.474.208.684.684,0,0,0-.179.5v1.241h1.378Z" fill="#fff"></path>
  <path d="M39.089,16.681a.7.7,0,0,0-.689-.7v-.005a.7.7,0,0,0-.69.705v1.241h1.379Z" fill="#fff"></path>
  <path d="M7.749,40.434h2.638v6.05h2.638v-6.05h2.638v6.05h2.619v-6.05H20.92v6.05h2.631V41.4h2.638v5.084H28.87V40.467h1.276v-.033h1.319v-2.4H25.7V31.561a.957.957,0,0,1,.956-.958v-.72h1.919v-2.4h-4.55v-4.32a.957.957,0,0,1,.956-.958V20.291h3.594v-2.4H25.7v-.839a12.327,12.327,0,0,1,4.7-9.691h-.738V6.326H27.62V7.647a10.3,10.3,0,0,0-7.914,10.021v.238H18.519v2.4h1.2v7.181H13.494v2.4h.956v8.152H7.677v2.339l-6.268.06v6.046h6.34ZM24.523,16.055a.7.7,0,0,1,.616.616v1.222h-1.39V16.671A.7.7,0,0,1,24.523,16.055Zm-1.24,14.519a.957.957,0,0,1,.987.926q0,.031,0,.062v6.474H22.357V31.561A.957.957,0,0,1,23.283,30.574Zm-2.318-13.9a.7.7,0,1,1,1.4,0h0v1.222h-1.4Zm.666,5.538a.956.956,0,0,1,.956.956v4.32H20.676v-4.32A.956.956,0,0,1,21.631,22.209Zm-2.624,9.352A.957.957,0,1,1,20.92,31.5q0,.031,0,.062v6.474H19.007Zm-3.35,0a.956.956,0,0,1,1.912,0v6.474H15.657ZM5.6,43.954h-1.7v-1.7H5.6Z" fill="#6a6a6a"></path>
  <polygon points="30.146 40.467 28.87 40.467 28.87 46.484 31.465 46.484 31.465 40.467 30.146 40.467" fill="#fff"></polygon>
  <rect x="34.141" y="40.467" width="2.595" height="6.017" fill="#fff"></rect>
  <rect x="39.408" y="40.467" width="2.6" height="6.017" fill="#fff"></rect>
  <rect x="3.893" y="42.251" width="1.703" height="1.703" fill="#fff"></rect>
  <rect x="54.496" y="42.251" width="1.703" height="1.703" fill="#fff"></rect>
  <rect x="49.712" y="40.467" width="2.676" height="6.017" fill="#fff"></rect>
  <rect x="44.684" y="40.47" width="2.676" height="6.014" fill="#fff"></rect>
  <rect y="45.484" width="59.032" height="1" fill="#7eba02"></rect>
</svg>