<svg>
                                <symbol id="svg-broadcast" viewBox="0 0 32 32">
    <path d="M7.266,16.719c-0.521-0.5-0.987-1.047-1.398-1.641c-0.412-0.594-0.758-1.219-1.039-1.875 s-0.495-1.338-0.641-2.047C4.041,10.448,3.969,9.729,3.969,9c0-0.729,0.072-1.448,0.219-2.156c0.146-0.708,0.359-1.391,0.641-2.047 s0.627-1.281,1.039-1.875c0.411-0.594,0.877-1.141,1.398-1.641l1.391,1.438C7.791,3.552,7.127,4.508,6.664,5.586 C6.2,6.664,5.969,7.802,5.969,9c0,1.198,0.231,2.336,0.695,3.414c0.463,1.078,1.127,2.034,1.992,2.867L7.266,16.719z"></path>
    <path d="M10.047,13.844c-0.667-0.646-1.18-1.383-1.539-2.211S7.969,9.927,7.969,9c0-0.927,0.18-1.805,0.539-2.633 s0.872-1.565,1.539-2.211l1.391,1.438c-0.469,0.448-0.831,0.964-1.086,1.547C10.096,7.724,9.969,8.344,9.969,9 s0.127,1.276,0.383,1.859c0.255,0.583,0.617,1.099,1.086,1.547L10.047,13.844z"></path>
    <path d="M18,9c0,0.469-0.102,0.909-0.305,1.32c-0.203,0.412-0.487,0.758-0.852,1.039L23.047,30h-2.094l-1.344-4 h-9.219l-1.344,4H6.953l6.203-18.641c-0.365-0.281-0.648-0.627-0.852-1.039C12.102,9.909,12,9.469,12,9 c0-0.417,0.078-0.807,0.234-1.172c0.156-0.364,0.369-0.682,0.641-0.953c0.271-0.271,0.588-0.484,0.953-0.641 C14.192,6.078,14.583,6,15,6c0.416,0,0.807,0.078,1.172,0.234c0.364,0.156,0.682,0.37,0.953,0.641 c0.271,0.271,0.484,0.589,0.641,0.953C17.922,8.193,18,8.583,18,9z M18.953,24l-1.344-4h-5.219l-1.344,4H18.953z M15,12.156 L13.047,18h3.906L15,12.156z M15,8c-0.271,0-0.506,0.099-0.703,0.297C14.099,8.495,14,8.729,14,9c0,0.271,0.099,0.505,0.297,0.703 C14.494,9.901,14.729,10,15,10c0.271,0,0.505-0.099,0.703-0.297C15.9,9.505,16,9.271,16,9c0-0.271-0.1-0.505-0.297-0.703 C15.505,8.099,15.271,8,15,8z"></path>
    <path d="M18.563,12.406c0.469-0.448,0.83-0.963,1.086-1.547c0.255-0.583,0.383-1.203,0.383-1.859 s-0.128-1.276-0.383-1.859c-0.256-0.583-0.617-1.099-1.086-1.547l1.391-1.438c0.666,0.646,1.18,1.383,1.539,2.211 S22.031,8.073,22.031,9c0,0.927-0.18,1.805-0.539,2.633s-0.873,1.565-1.539,2.211L18.563,12.406z"></path>
    <path d="M22.734,1.281c0.521,0.5,0.986,1.047,1.398,1.641c0.411,0.594,0.758,1.219,1.039,1.875 s0.494,1.339,0.641,2.047C25.958,7.552,26.031,8.271,26.031,9c0,0.729-0.073,1.448-0.219,2.156 c-0.146,0.708-0.359,1.391-0.641,2.047s-0.628,1.281-1.039,1.875c-0.412,0.594-0.878,1.141-1.398,1.641l-1.391-1.438 c0.864-0.833,1.528-1.789,1.992-2.867c0.463-1.078,0.695-2.216,0.695-3.414c0-1.198-0.232-2.336-0.695-3.414 c-0.464-1.078-1.128-2.034-1.992-2.867L22.734,1.281z"></path>
</symbol>
                            </svg>