<svg xmlns="http://www.w3.org/2000/svg">
                                
                            
    <path fill="#00ABEC" d="M7.5,15.977c-0.62-0.365-1.236-0.754-1.848-1.168c-0.612-0.414-1.195-0.859-1.75-1.336 s-1.07-0.986-1.547-1.527c-0.477-0.542-0.89-1.122-1.238-1.742c-0.349-0.62-0.623-1.279-0.82-1.977C0.099,7.529,0,6.787,0,6V2 c0.432,0,0.852-0.016,1.258-0.047S2.06,1.865,2.445,1.781c0.385-0.083,0.766-0.2,1.141-0.352c0.375-0.151,0.75-0.346,1.125-0.586 c0.442-0.286,0.885-0.499,1.328-0.637C6.481,0.069,6.969,0,7.5,0c0.266,0,0.518,0.017,0.758,0.051 C8.497,0.085,8.73,0.137,8.957,0.207s0.449,0.159,0.668,0.266c0.219,0.107,0.44,0.23,0.664,0.371 c0.375,0.24,0.75,0.435,1.125,0.586c0.375,0.151,0.755,0.268,1.141,0.352c0.385,0.083,0.781,0.141,1.188,0.172S14.567,2,15,2v4 c0,0.787-0.099,1.529-0.297,2.227c-0.198,0.698-0.472,1.357-0.82,1.977c-0.349,0.62-0.762,1.201-1.238,1.742 c-0.477,0.542-0.992,1.051-1.547,1.527s-1.138,0.922-1.75,1.336C8.735,15.223,8.12,15.612,7.5,15.977z M1,2.984V6 c0,0.662,0.087,1.297,0.262,1.906c0.174,0.609,0.413,1.189,0.715,1.738c0.302,0.55,0.661,1.07,1.078,1.563 c0.417,0.492,0.864,0.956,1.344,1.391c0.479,0.435,0.983,0.837,1.512,1.207c0.528,0.37,1.059,0.708,1.59,1.016 c0.531-0.307,1.061-0.646,1.59-1.016c0.528-0.37,1.032-0.772,1.512-1.207c0.479-0.435,0.927-0.898,1.344-1.391 c0.417-0.492,0.776-1.013,1.078-1.563c0.302-0.549,0.54-1.129,0.715-1.738C13.913,7.297,14,6.662,14,6V2.984 c-0.776-0.042-1.52-0.167-2.23-0.375c-0.711-0.208-1.395-0.523-2.051-0.945C9.364,1.435,9.012,1.267,8.66,1.16 C8.309,1.053,7.922,1,7.5,1S6.691,1.053,6.34,1.16C5.988,1.267,5.635,1.435,5.281,1.664C4.625,2.086,3.941,2.401,3.23,2.609 C2.52,2.818,1.776,2.943,1,2.984z M8,3H7v7h1V3z M8,12H7v-1h1V12z"></path>
</svg>