<svg xmlns="http://www.w3.org/2000/svg" viewBox="0 0 59 59">
                                
                            
    <path d="M396.361913,2683.66278 C399.047826,2683.66278 401.637087,2683.31178 404.129696,2682.60978 C406.622304,2681.90778 408.957217,2680.92091 411.134435,2679.64917 C413.311652,2678.37743 415.290478,2676.85135 417.070913,2675.07091 C418.851348,2673.29048 420.377435,2671.31165 421.649174,2669.13443 C422.920913,2666.95722 423.907783,2664.6223 424.609783,2662.1297 C425.311783,2659.63709 425.662783,2657.04783 425.662783,2654.36191 C425.662783,2651.676 425.311783,2649.08674 424.609783,2646.59413 C423.907783,2644.10152 422.920913,2641.76661 421.649174,2639.58939 C420.377435,2637.41217 418.851348,2635.43335 417.070913,2633.65291 C415.290478,2631.87248 413.311652,2630.34639 411.134435,2629.07465 C408.957217,2627.80291 406.622304,2626.81604 404.129696,2626.11404 C401.637087,2625.41204 399.047826,2625.06104 396.361913,2625.06104 C393.676,2625.06104 391.086739,2625.41204 388.59413,2626.11404 C386.101522,2626.81604 383.766609,2627.80291 381.589391,2629.07465 C379.412174,2630.34639 377.433348,2631.87248 375.652913,2633.65291 C373.872478,2635.43335 372.346391,2637.41217 371.074652,2639.58939 C369.802913,2641.76661 368.816043,2644.10152 368.114043,2646.59413 C367.412043,2649.08674 367.061043,2651.676 367.061043,2654.36191 C367.061043,2657.04783 367.412043,2659.63709 368.114043,2662.1297 C368.816043,2664.6223 369.802913,2666.95722 371.074652,2669.13443 C372.346391,2671.31165 373.872478,2673.29048 375.652913,2675.07091 C377.433348,2676.85135 379.412174,2678.37743 381.589391,2679.64917 C383.766609,2680.92091 386.101522,2681.90778 388.59413,2682.60978 C391.086739,2683.31178 393.676,2683.66278 396.361913,2683.66278 Z M396.361913,2628.96783 C398.701913,2628.96783 400.950348,2629.27304 403.107217,2629.88348 C405.264087,2630.49391 407.283609,2631.34852 409.165783,2632.4473 C411.047957,2633.54609 412.762261,2634.8687 414.308696,2636.41513 C415.85513,2637.96157 417.177739,2639.67587 418.276522,2641.55804 C419.375304,2643.44022 420.229913,2645.45974 420.840348,2647.61661 C421.450783,2649.77348 421.756,2652.02191 421.756,2654.36191 C421.756,2656.70191 421.450783,2658.95035 420.840348,2661.10722 C420.229913,2663.26409 419.375304,2665.28361 418.276522,2667.16578 C417.177739,2669.04796 415.85513,2670.76226 414.308696,2672.3087 C412.762261,2673.85513 411.047957,2675.17774 409.165783,2676.27652 C407.283609,2677.3753 405.264087,2678.22991 403.107217,2678.84035 C400.950348,2679.45078 398.701913,2679.756 396.361913,2679.756 C394.021913,2679.756 391.773478,2679.45078 389.616609,2678.84035 C387.459739,2678.22991 385.440217,2677.3753 383.558043,2676.27652 C381.67587,2675.17774 379.961565,2673.85513 378.41513,2672.3087 C376.868696,2670.76226 375.546087,2669.04796 374.447304,2667.16578 C373.348522,2665.28361 372.493913,2663.26409 371.883478,2661.10722 C371.273043,2658.95035 370.967826,2656.70191 370.967826,2654.36191 C370.967826,2652.02191 371.273043,2649.77348 371.883478,2647.61661 C372.493913,2645.45974 373.348522,2643.44022 374.447304,2641.55804 C375.546087,2639.67587 376.868696,2637.96157 378.41513,2636.41513 C379.961565,2634.8687 381.67587,2633.54609 383.558043,2632.4473 C385.440217,2631.34852 387.459739,2630.49391 389.616609,2629.88348 C391.773478,2629.27304 394.021913,2628.96783 396.361913,2628.96783 Z M401.611652,2656.92574 C402.018609,2656.11183 402.222087,2655.25722 402.222087,2654.36191 C402.222087,2653.548 402.069478,2652.78496 401.764261,2652.07278 C401.459043,2651.36061 401.041913,2650.74 400.51287,2650.21096 C399.983826,2649.68191 399.363217,2649.26478 398.651043,2648.95957 C397.93887,2648.65435 397.175826,2648.50174 396.361913,2648.50174 C395.548,2648.50174 394.784957,2648.65435 394.072783,2648.95957 C393.360609,2649.26478 392.74,2649.68191 392.210957,2650.21096 C391.681913,2650.74 391.264783,2651.36061 390.959565,2652.07278 C390.654348,2652.78496 390.501739,2653.548 390.501739,2654.36191 C390.501739,2655.17583 390.654348,2655.93887 390.959565,2656.65104 C391.264783,2657.36322 391.681913,2657.98383 392.210957,2658.51287 C392.74,2659.04191 393.360609,2659.45904 394.072783,2659.76426 C394.784957,2660.06948 395.548,2660.22209 396.361913,2660.22209 C397.257217,2660.22209 398.111826,2660.01861 398.925739,2659.61165 L398.895217,2659.64217 L410.127217,2670.87417 L412.874174,2668.12722 L401.642174,2656.89522 L401.611652,2656.92574 Z M396.361913,2652.40852 C396.890957,2652.40852 397.348783,2652.60183 397.735391,2652.98843 C398.122,2653.37504 398.315304,2653.83287 398.315304,2654.36191 C398.315304,2654.89096 398.122,2655.34878 397.735391,2655.73539 C397.348783,2656.122 396.890957,2656.3153 396.361913,2656.3153 C395.83287,2656.3153 395.375043,2656.122 394.988435,2655.73539 C394.601826,2655.34878 394.408522,2654.89096 394.408522,2654.36191 C394.408522,2653.83287 394.601826,2653.37504 394.988435,2652.98843 C395.375043,2652.60183 395.83287,2652.40852 396.361913,2652.40852 Z M415.895826,2663.15217 C416.526609,2661.76852 416.999696,2660.33909 417.315087,2658.86387 C417.630478,2657.38865 417.788174,2655.888 417.788174,2654.36191 C417.788174,2651.51322 417.254043,2648.77135 416.185783,2646.1363 C415.117522,2643.50126 413.576174,2641.17652 411.561739,2639.16209 L408.784261,2641.93957 C410.432435,2643.58774 411.704174,2645.46991 412.599478,2647.58609 C413.494783,2649.70226 413.942435,2651.93035 413.942435,2654.27035 C413.942435,2656.79348 413.413391,2659.22504 412.355304,2661.56504 L415.895826,2663.15217 Z M403.565043,2670.3553 C401.225043,2671.41339 398.793478,2671.94243 396.270348,2671.94243 C394.66287,2671.94243 393.116435,2671.73387 391.631043,2671.31674 C390.145652,2670.89961 388.751826,2670.30443 387.449565,2669.53122 C386.147304,2668.758 384.96713,2667.83726 383.909043,2666.769 C382.850957,2665.70074 381.940391,2664.51548 381.177348,2663.21322 C380.414304,2661.91096 379.824217,2660.51204 379.407087,2659.01648 C378.989957,2657.52091 378.781391,2655.96939 378.781391,2654.36191 C378.781391,2652.02191 379.229043,2649.77857 380.124348,2647.63187 C381.019652,2645.48517 382.291391,2643.58774 383.939565,2641.93957 L381.162087,2639.16209 C379.127304,2641.19687 377.570696,2643.52161 376.492261,2646.1363 C375.413826,2648.751 374.874609,2651.49287 374.874609,2654.36191 C374.874609,2656.33565 375.128957,2658.23817 375.637652,2660.06948 C376.146348,2661.90078 376.868696,2663.61 377.804696,2665.19713 C378.740696,2666.78426 379.859826,2668.22896 381.162087,2669.53122 C382.464348,2670.83348 383.909043,2671.94752 385.496174,2672.87335 C387.083304,2673.79917 388.792522,2674.51643 390.623826,2675.02513 C392.45513,2675.53383 394.367826,2675.78817 396.361913,2675.78817 C397.888,2675.78817 399.388652,2675.63048 400.86387,2675.31509 C402.339087,2674.9997 403.768522,2674.52661 405.152174,2673.89583 L403.565043,2670.3553 Z" transform="translate(29.361913, 29.361913) scale(-1, 1) rotate(-180.000000) translate(-396.361913, -2654.361913) "></path>
</svg>