<svg xmlns="http://www.w3.org/2000/svg">
                                
                            
    <rect x="0" y="28" fill="#DD5900" width="22" height="22"></rect>
    <path fill="#FFFFFF" d="M18.773,38.267l-7.04-7.04c-0.367-0.367-1.027-0.367-1.393,0l-1.54,1.54l1.833,1.833
	c0.147-0.073,0.293-0.073,0.44-0.073c0.66,0,1.247,0.513,1.247,1.247c0,0.147,0,0.293-0.073,0.44l1.76,1.76
	C14.153,37.9,14.3,37.9,14.447,37.9c0.66,0,1.247,0.587,1.247,1.247s-0.513,1.247-1.247,1.247c-0.66,0-1.247-0.513-1.247-1.247
	c0-0.147,0-0.293,0.073-0.44l-1.687-1.687v4.4c0.44,0.22,0.66,0.587,0.66,1.1c0,0.66-0.513,1.247-1.247,1.247
	c-0.66,0-1.247-0.513-1.247-1.247c0-0.513,0.293-0.953,0.807-1.173v-4.473c-0.44-0.147-0.807-0.587-0.807-1.173
	c0-0.147,0-0.293,0.073-0.44l-1.76-1.833l-4.84,4.84c-0.367,0.367-0.367,1.027,0,1.393l7.04,7.04c0.367,0.367,1.027,0.367,1.393,0
	l7.04-7.04C19.14,39.293,19.14,38.707,18.773,38.267z"></path>
    <rect x="28" y="28" fill="#0072C6" width="22" height="22"></rect>
    <rect x="28" y="28" opacity="0.5" fill="#1E1E1E" width="22" height="22"></rect>
    <ellipse fill="#FFFFFF" cx="39.293" cy="38.826" rx="1.007" ry="1.007"></ellipse>
    <path fill="#FFFFFF" d="M39.284,31.777c-3.492,0-6.324,0.925-6.324,2.07l1.049,6.183c0,1.225,2.358,2.212,5.275,2.212
	c2.911,0,5.275-0.987,5.275-2.212l1.049-6.183C45.602,32.701,42.776,31.777,39.284,31.777z M39.295,40.837
	c-1.117,0-2.014-0.903-2.014-2.014s0.897-2.009,2.014-2.009c1.112,0,2.009,0.897,2.009,2.009S40.407,40.837,39.295,40.837z
	 M39.284,34.546c-2.234,0-4.039-0.389-4.039-0.869s1.805-0.869,4.039-0.869c2.229,0,4.034,0.389,4.034,0.869
	C43.317,34.157,41.512,34.546,39.284,34.546z"></path>
    <path fill="#FFFFFF" d="M35.038,42.216c-0.079-0.062-0.147-0.124-0.214-0.186c-0.017-0.006-0.04-0.006-0.062-0.006
	c-0.136,0-0.249,0.096-0.282,0.22l0.051,0.249l0.429,2.122c0,0.869,1.935,1.738,4.322,1.738c2.392,0,4.327-0.869,4.327-1.738
	l0.429-2.122l0.051-0.249c-0.034-0.124-0.147-0.22-0.287-0.22c-0.017,0-0.04,0-0.062,0.006c-0.062,0.062-0.13,0.124-0.209,0.186
	c-0.807,0.62-2.403,1.044-4.248,1.044C37.441,43.261,35.844,42.838,35.038,42.216z"></path>
    <rect x="0" fill="#68217A" width="22" height="22"></rect>
    <path fill="#FFFFFF" d="M10.812,10.944L14.3,8.229v5.431L10.812,10.944z M5.72,12.924v-3.96l1.98,1.98L5.72,12.924z M14.3,4.344
	L9.063,9.582L5.72,6.984L4.4,7.644v6.6l1.32,0.66l3.343-2.597l5.237,5.237l3.3-1.32V5.664L14.3,4.344z"></path>
    <rect x="28" fill="#1E1E1E" width="22" height="22"></rect>
    <path fill="#FFFFFF" d="M39,2.933c-4.454,0-8.067,3.613-8.067,8.067c0,4.459,3.613,8.067,8.067,8.067s8.067-3.607,8.067-8.067
	C47.067,6.546,43.454,2.933,39,2.933z M41.133,18.003v-1.378c0-0.532-0.29-1.003-0.737-1.299c0.03-0.006,0.067-0.012,0.103-0.012
	c0.767-0.097,1.462-0.338,1.462-0.338s0.997-0.308,1.535-0.936c0.568-0.664,0.713-1.649,0.713-1.649s0.187-1.076,0-1.91
	c-0.187-0.815-0.785-1.384-0.785-1.384s0.205-0.532,0.187-1.088c-0.018-0.532-0.266-1.088-0.266-1.088s-0.472-0.043-0.973,0.151
	c-0.61,0.235-1.275,0.713-1.275,0.713s-0.465-0.151-1.009-0.224c-0.502-0.073-1.088-0.078-1.088-0.078s-0.586,0.006-1.088,0.078
	c-0.544,0.073-1.009,0.224-1.009,0.224s-0.659-0.477-1.275-0.713c-0.494-0.194-0.972-0.152-0.972-0.152s-0.242,0.556-0.26,1.088
	c-0.018,0.556,0.187,1.088,0.187,1.088s-0.604,0.568-0.785,1.384c-0.194,0.834,0,1.91,0,1.91s0.145,0.985,0.707,1.649
	c0.538,0.628,1.541,0.936,1.541,0.936s0.689,0.242,1.456,0.338c0.036,0,0.073,0.006,0.109,0.012
	c-0.447,0.296-0.743,0.767-0.743,1.299v1.378c-3.003-0.912-5.185-3.704-5.185-7.003c0-4.042,3.275-7.317,7.317-7.317
	s7.324,3.275,7.324,7.317C46.324,14.299,44.136,17.091,41.133,18.003z"></path>
</svg>