<svg xmlns="http://www.w3.org/2000/svg" >
                            <path d="M491.736,493.2v12.6h-2.177v-9.876h-0.035l-3.891,9.876H484.19l-3.987-9.876h-0.026V505.8h-2.011V493.2h3.121l3.6,9.341h0.052l3.8-9.341h2.99Zm1.821,0.958a1.16,1.16,0,0,1,.38-0.883,1.279,1.279,0,0,1,.9-0.356,1.262,1.262,0,0,1,.927.365,1.188,1.188,0,0,1,.367.874,1.143,1.143,0,0,1-.376.87,1.3,1.3,0,0,1-.918.351,1.27,1.27,0,0,1-.914-0.356A1.153,1.153,0,0,1,493.557,494.157Zm2.335,2.61V505.8h-2.116v-9.033h2.116Zm6.418,7.486a2.91,2.91,0,0,0,1.04-.22,4.369,4.369,0,0,0,1.049-.58v1.977a4.225,4.225,0,0,1-1.15.439,6.235,6.235,0,0,1-1.412.149,4.327,4.327,0,0,1-3.226-1.261,4.4,4.4,0,0,1-1.242-3.22,5.167,5.167,0,0,1,1.268-3.59,4.582,4.582,0,0,1,3.594-1.41,4.89,4.89,0,0,1,1.2.154,4,4,0,0,1,.966.356v2.039a4.321,4.321,0,0,0-1-.558,2.878,2.878,0,0,0-1.045-.2,2.645,2.645,0,0,0-2.02.817,3.086,3.086,0,0,0-.77,2.205,2.945,2.945,0,0,0,.739,2.135A2.66,2.66,0,0,0,502.31,504.253Zm8.114-7.636a2.669,2.669,0,0,1,.455.035,1.892,1.892,0,0,1,.341.088v2.153a1.843,1.843,0,0,0-.485-0.233,2.393,2.393,0,0,0-.774-0.11,1.64,1.64,0,0,0-1.316.659,3.177,3.177,0,0,0-.538,2.03v4.56H505.99v-9.033h2.116v1.423h0.035a2.492,2.492,0,0,1,.874-1.155A2.364,2.364,0,0,1,510.423,496.618Zm0.91,4.8a4.906,4.906,0,0,1,1.259-3.55,4.624,4.624,0,0,1,3.5-1.309,4.3,4.3,0,0,1,3.292,1.261,5.486,5.486,0,0,1-.074,6.9,4.548,4.548,0,0,1-3.428,1.3,4.47,4.47,0,0,1-3.318-1.234A4.566,4.566,0,0,1,511.334,501.415Zm2.2-.07a3.238,3.238,0,0,0,.638,2.162,2.271,2.271,0,0,0,1.827.747,2.126,2.126,0,0,0,1.757-.747,3.466,3.466,0,0,0,.6-2.214,3.345,3.345,0,0,0-.625-2.2,2.166,2.166,0,0,0-1.753-.742,2.212,2.212,0,0,0-1.806.778A3.4,3.4,0,0,0,513.537,501.345Zm10.177-2.205a0.913,0.913,0,0,0,.289.716,4.929,4.929,0,0,0,1.277.654,4.325,4.325,0,0,1,1.779,1.147,2.385,2.385,0,0,1,.511,1.542,2.483,2.483,0,0,1-.975,2.047,4.127,4.127,0,0,1-2.636.773,6.315,6.315,0,0,1-1.237-.136,5.492,5.492,0,0,1-1.15-.347v-2.091a5.2,5.2,0,0,0,1.242.641,3.622,3.622,0,0,0,1.207.237,2.141,2.141,0,0,0,1.058-.2,0.723,0.723,0,0,0,.341-0.677,0.941,0.941,0,0,0-.354-0.743,5.24,5.24,0,0,0-1.342-.7,4.145,4.145,0,0,1-1.661-1.107,2.433,2.433,0,0,1-.49-1.564,2.476,2.476,0,0,1,.966-2.008,3.842,3.842,0,0,1,2.505-.786,6.034,6.034,0,0,1,1.058.105,4.661,4.661,0,0,1,.979.273v2.021a4.51,4.51,0,0,0-.979-0.483,3.253,3.253,0,0,0-1.11-.2,1.612,1.612,0,0,0-.94.237A0.753,0.753,0,0,0,523.715,499.14Zm4.765,2.276a4.906,4.906,0,0,1,1.259-3.55,4.624,4.624,0,0,1,3.5-1.309,4.3,4.3,0,0,1,3.292,1.261,5.486,5.486,0,0,1-.074,6.9,4.548,4.548,0,0,1-3.428,1.3,4.47,4.47,0,0,1-3.318-1.234A4.566,4.566,0,0,1,528.48,501.415Zm2.2-.07a3.238,3.238,0,0,0,.638,2.162,2.271,2.271,0,0,0,1.827.747,2.126,2.126,0,0,0,1.757-.747,3.466,3.466,0,0,0,.6-2.214,3.345,3.345,0,0,0-.625-2.2,2.166,2.166,0,0,0-1.753-.742,2.212,2.212,0,0,0-1.806.778A3.4,3.4,0,0,0,530.683,501.345Zm14.05-2.838h-3.151V505.8h-2.142v-7.293h-1.5v-1.74h1.5v-1.257a3.134,3.134,0,0,1,.922-2.333,3.226,3.226,0,0,1,2.365-.91,5.224,5.224,0,0,1,.682.04,2.694,2.694,0,0,1,.525.119v1.837a2.184,2.184,0,0,0-.367-0.149,1.9,1.9,0,0,0-.6-0.088,1.275,1.275,0,0,0-1.023.417,1.849,1.849,0,0,0-.358,1.234v1.09h3.151v-2.03l2.125-.65v2.68H549v1.74h-2.142v4.226a1.788,1.788,0,0,0,.3,1.177,1.2,1.2,0,0,0,.949.343,1.408,1.408,0,0,0,.442-0.088,2.068,2.068,0,0,0,.45-0.211v1.757a2.48,2.48,0,0,1-.669.211,4.543,4.543,0,0,1-.922.1,2.616,2.616,0,0,1-2.007-.716,3.061,3.061,0,0,1-.669-2.157v-4.639Z" transform="translate(-451 -489)" fill="#fff"></path>
                            <rect width="9.932" height="9.981" fill="#f16623"></rect>
                            <rect x="10.965" width="9.932" height="9.981" fill="#8dc640"></rect>
                            <rect y="11.019" width="9.932" height="9.981" fill="#2babe2"></rect>
                            <rect x="10.965" y="11.019" width="9.932" height="9.981" fill="#fdc214"></rect>
                        </svg>