<svg>
                                <symbol id="svg-consultants" viewBox="0 0 131 107">
  <path d="M39.4 73.0998C44.8676 73.0998 49.3 68.6674 49.3 63.1998C49.3 57.7322 44.8676 53.2998 39.4 53.2998C33.9324 53.2998 29.5 57.7322 29.5 63.1998C29.5 68.6674 33.9324 73.0998 39.4 73.0998Z" stroke="#1A1A1F" stroke-width="2" stroke-miterlimit="10"></path>
  <path d="M47.7 78.2998H28.8C24.5 78.2998 21 81.7998 21 86.0998V105.5H55.5V85.9998C55.5 81.7998 52 78.2998 47.7 78.2998Z" stroke="#1A1A1F" stroke-width="2" stroke-miterlimit="10"></path>
  <path d="M88.7 73.0998C94.1676 73.0998 98.6 68.6674 98.6 63.1998C98.6 57.7322 94.1676 53.2998 88.7 53.2998C83.2324 53.2998 78.8 57.7322 78.8 63.1998C78.8 68.6674 83.2324 73.0998 88.7 73.0998Z" stroke="#1A1A1F" stroke-width="2" stroke-miterlimit="10"></path>
  <path d="M97.1 78.2998H78.1C73.8 78.2998 70.3 81.7998 70.3 86.0998V105.5H104.8V85.9998C104.8 81.7998 101.3 78.2998 97.1 78.2998Z" stroke="#1A1A1F" stroke-width="2" stroke-miterlimit="10"></path>
  <path d="M5.8 1.8999H47.3C50 1.8999 52.1 4.0999 52.1 6.6999V33.1999C52.1 35.8999 49.9 37.9999 47.3 37.9999H39V45.6999C39 46.1999 38.5 46.3999 38.1 46.0999L27.3 37.9999H5.8C3.1 37.9999 1 35.7999 1 33.1999V6.6999C1 4.0999 3.2 1.8999 5.8 1.8999Z" stroke="#1A1A1F" stroke-width="2" stroke-miterlimit="10"></path>
  <path d="M124.2 1H82.7C80 1 77.9 3.2 77.9 5.8V32.3C77.9 35 80.1 37.1 82.7 37.1H91V44.8C91 45.3 91.5 45.5 91.9 45.2L102.7 37.1H124.3C127 37.1 129.1 34.9 129.1 32.3V5.8C129 3.2 126.8 1 124.2 1Z" stroke="#1A1A1F" stroke-width="2" stroke-miterlimit="10"></path>
</symbol>
                            </svg>