<svg xmlns="http://www.w3.org/2000/svg">
                                
                            
    <path fill="#59B4D9" d="M31.39,35.018c-3.538,2.705-7.706,4.023-11.845,4.023c-5.873,0-11.68-2.637-15.518-7.656
		C-2.53,22.824-0.912,10.581,7.664,4.02C11.201,1.299,15.374,0,19.508,0c5.873,0,11.682,2.637,15.518,7.661
		C41.585,16.219,39.95,28.465,31.39,35.018"></path>
    <path fill="#FFFFFF" d="M27.803,22.944c1.418,1.849,4.05,2.184,5.889,0.784c0.096-0.073,0.17-0.162,0.258-0.241
		c1.881,1.325,3.188,2.2,3.924,2.701c0.218-0.565,0.369-1.107,0.523-1.673c-0.778-0.579-1.83-1.389-3.35-2.621
		c0.499-1.312,0.341-2.843-0.57-4.038c-1.303-1.687-3.613-2.116-5.417-1.075c-1.988-1.784-4.173-3.828-6.477-6.117
		c7.158-3.849,12.243-3.286,12.243-3.286c-0.849-1.082-1.8-2.031-2.816-2.887c-3.018-0.466-7.707-0.414-13.065,2.436l-0.002-0.002
		h-0.001C17.157,5.054,15.34,3.051,13.489,0.9c-0.886,0.283-1.751,0.634-2.587,1.052c1.366,2.235,3.204,4.49,5.275,6.689l0,0
		c0.004,0.005,0.009,0.009,0.013,0.013c-1.727,1.207-3.65,2.822-5.423,4.698c-0.226,0.241-0.444,0.484-0.658,0.727
		c-1.06-0.222-2.174-0.157-3.215,0.22c-1.768-3.815-1.626-6.88-1.346-8.46C4.78,6.645,4.063,7.49,3.446,8.392
		c-0.462,1.886-0.593,4.606,0.769,7.884c-1.577,2.063-1.651,4.99-0.004,7.148c0.137,0.179,0.284,0.345,0.437,0.504
		c-0.719,2.45-1.041,4.813-1.14,6.842c0.185,0.251,0.185,0.455,0.369,0.7c0.936,1.201,2.113,2.213,3.249,3.13
		c-0.141-2.148,0.011-5.315,1.339-8.881c0.916,0.07,1.848-0.075,2.72-0.442c0.5,0.44,1.023,0.884,1.581,1.336
		c1.916,1.517,3.827,2.697,5.689,3.626c-0.097,0.947,0.141,1.932,0.756,2.747c1.316,1.699,3.753,2.016,5.454,0.718
		c0.354-0.271,0.633-0.598,0.865-0.95c3.037,0.676,5.691,0.796,7.658,0.796c0.301,0,1.7-1.902,2.501-3.082
		c-1.198,0.251-4.751,0.739-9.606-0.656c-0.117-0.545-0.341-1.075-0.701-1.546c-1.233-1.617-3.488-1.967-5.169-0.885
		c-1.688-0.915-3.455-2.063-5.278-3.507c-0.368-0.291-0.721-0.582-1.061-0.873c1.114-1.755,1.232-4.004,0.248-5.896
		c0.223-0.223,0.443-0.448,0.68-0.669c1.805-1.686,3.503-3.036,5.091-4.119c-0.064-0.059-0.122-0.122-0.184-0.182
		c0.063,0.059,0.123,0.119,0.187,0.177c-0.001,0-0.001,0.001-0.002,0.001c2.437,2.254,5.022,4.39,7.469,6.299
		C26.716,19.984,26.818,21.656,27.803,22.944z"></path>
    <circle fill="#FFFFFF" cx="34.938" cy="34.938" r="15.062"></circle>
    <path fill="#464342" d="M22.975,34.938c0,4.735,2.752,8.828,6.743,10.767l-5.707-15.636
        C23.347,31.557,22.975,33.203,22.975,34.938z"></path>
    <path fill="#464342" d="M43.014,34.334c0-1.479-0.531-2.503-0.986-3.299c-0.606-0.986-1.175-1.82-1.175-2.806
        c0-1.1,0.834-2.123,2.009-2.123c0.053,0,0.103,0.006,0.155,0.01c-2.128-1.95-4.964-3.141-8.079-3.141
        c-4.18,0-7.857,2.145-9.996,5.392c0.281,0.009,0.545,0.015,0.77,0.015c1.251,0,3.188-0.152,3.188-0.152
        c0.645-0.038,0.721,0.91,0.077,0.986c0,0-0.648,0.076-1.369,0.114l4.356,12.959l2.618-7.852l-1.864-5.107
        c-0.645-0.038-1.255-0.114-1.255-0.114c-0.645-0.038-0.569-1.024,0.076-0.986c0,0,1.975,0.152,3.151,0.152
        c1.251,0,3.189-0.152,3.189-0.152c0.645-0.038,0.721,0.91,0.076,0.986c0,0-0.649,0.076-1.369,0.114l4.324,12.86l1.194-3.987
        C42.621,36.546,43.014,35.358,43.014,34.334z"></path>
    <path fill="#464342" d="M35.148,35.984l-3.59,10.43c1.072,0.315,2.206,0.487,3.38,0.487c1.393,0,2.729-0.241,3.973-0.678
        c-0.032-0.051-0.061-0.106-0.086-0.165L35.148,35.984z"></path>
    <path fill="#464342" d="M45.436,29.198c0.051,0.381,0.08,0.79,0.08,1.23c0,1.214-0.227,2.578-0.91,4.285l-3.654,10.565
        c3.557-2.074,5.949-5.927,5.949-10.341C46.901,32.858,46.37,30.902,45.436,29.198z"></path>
    <path fill="#464342" d="M34.938,20.992c-7.69,0-13.946,6.256-13.946,13.946c0,7.69,6.256,13.946,13.946,13.946
        c7.69,0,13.946-6.256,13.946-13.946C48.884,27.248,42.628,20.992,34.938,20.992z M34.938,48.245
        c-7.337,0-13.306-5.97-13.306-13.307c0-7.337,5.969-13.306,13.306-13.306c7.337,0,13.307,5.969,13.307,13.306
        C48.245,42.275,42.275,48.245,34.938,48.245z"></path>
</svg>