<svg xmlns="http://www.w3.org/2000/svg">
                                
                            
    <path fill="#FFFFFF" d="M12.781,5.414c0.339,0.172,0.645,0.384,0.918,0.637c0.273,0.253,0.507,0.534,0.699,0.844c0.192,0.31,0.341,0.644,0.445,1 C14.948,8.251,15,8.62,15,9h-1c0-0.411-0.079-0.799-0.238-1.164c-0.159-0.364-0.374-0.682-0.645-0.953 c-0.271-0.271-0.589-0.485-0.953-0.645C11.8,6.08,11.411,6,11,6s-0.8,0.08-1.164,0.238C9.472,6.397,9.153,6.612,8.883,6.883 C8.612,7.154,8.397,7.472,8.238,7.836C8.079,8.201,8,8.589,8,9c0,0.475-0.108,0.925-0.324,1.352 c-0.216,0.428-0.515,0.781-0.895,1.063c0.339,0.172,0.645,0.385,0.918,0.637c0.273,0.253,0.507,0.534,0.699,0.844 c0.192,0.311,0.341,0.644,0.445,1C8.948,14.252,9,14.62,9,15H8c0-0.411-0.079-0.799-0.238-1.164 c-0.159-0.364-0.374-0.682-0.645-0.953c-0.271-0.271-0.589-0.485-0.953-0.645C5.799,12.08,5.411,12,5,12 c-0.412,0-0.8,0.08-1.164,0.238c-0.365,0.159-0.683,0.374-0.953,0.645c-0.271,0.271-0.486,0.589-0.645,0.953 C2.079,14.201,2,14.589,2,15H1c0-0.38,0.052-0.748,0.156-1.105c0.104-0.356,0.252-0.689,0.445-1c0.192-0.31,0.426-0.591,0.699-0.844 c0.273-0.252,0.579-0.465,0.918-0.637c-0.38-0.281-0.679-0.635-0.895-1.063C2.108,9.925,2,9.475,2,9 c0-0.411,0.079-0.799,0.238-1.164c0.159-0.364,0.374-0.682,0.645-0.953c0.271-0.271,0.588-0.485,0.953-0.645C4.2,6.08,4.588,6,5,6 c0.474,0,0.924,0.108,1.352,0.324c0.427,0.216,0.781,0.515,1.063,0.895c0.198-0.391,0.45-0.739,0.758-1.047 c0.308-0.307,0.656-0.56,1.047-0.758C8.839,5.133,8.54,4.779,8.324,4.352C8.108,3.925,8,3.474,8,3c0-0.411,0.079-0.799,0.238-1.164 c0.159-0.364,0.374-0.682,0.645-0.953c0.271-0.271,0.589-0.485,0.953-0.645C10.2,0.08,10.589,0,11,0s0.8,0.08,1.164,0.238 c0.364,0.159,0.683,0.374,0.953,0.645c0.271,0.271,0.485,0.589,0.645,0.953C13.921,2.201,14,2.589,14,3 c0,0.474-0.108,0.925-0.324,1.352C13.46,4.779,13.161,5.133,12.781,5.414z M5,11c0.271,0,0.528-0.053,0.773-0.16 c0.245-0.106,0.457-0.25,0.637-0.43s0.323-0.391,0.43-0.633S7,9.276,7,9c0-0.271-0.054-0.528-0.16-0.773 C6.733,7.982,6.59,7.77,6.41,7.59S6.019,7.267,5.773,7.16C5.528,7.054,5.271,7,5,7C4.724,7,4.465,7.054,4.223,7.16 C3.98,7.267,3.77,7.41,3.59,7.59S3.267,7.982,3.16,8.227C3.053,8.472,3,8.729,3,9c0,0.276,0.053,0.535,0.16,0.777 c0.106,0.242,0.25,0.453,0.43,0.633s0.391,0.323,0.633,0.43C4.465,10.947,4.724,11,5,11z M9,3c0,0.276,0.054,0.535,0.16,0.777 S9.41,4.23,9.59,4.41s0.391,0.323,0.633,0.43C10.465,4.947,10.724,5,11,5c0.271,0,0.528-0.053,0.773-0.16 c0.245-0.106,0.457-0.25,0.637-0.43s0.323-0.391,0.43-0.633S13,3.276,13,3c0-0.271-0.054-0.528-0.16-0.773 c-0.106-0.245-0.25-0.457-0.43-0.637s-0.392-0.323-0.637-0.43C11.528,1.054,11.271,1,11,1c-0.276,0-0.535,0.054-0.777,0.16 C9.98,1.267,9.77,1.41,9.59,1.59S9.267,1.982,9.16,2.227C9.054,2.472,9,2.729,9,3z"></path>
</svg>