<svg xmlns="http://www.w3.org/2000/svg" viewBox="0 0 157 157">
                                
                            
	<path d="M7.50684 12.6465C10.1992 12.6465 12.3818 10.4639 12.3818 7.77148C12.3818 5.0791 10.1992 2.89648 7.50684 2.89648C4.81445 2.89648 2.63184 5.0791 2.63184 7.77148C2.63184 10.4639 4.81445 12.6465 7.50684 12.6465Z" fill="#0078D4"></path>
	<path d="M35.7808 12.6465C38.4731 12.6465 40.6558 10.4639 40.6558 7.77148C40.6558 5.0791 38.4731 2.89648 35.7808 2.89648C33.0884 2.89648 30.9058 5.0791 30.9058 7.77148C30.9058 10.4639 33.0884 12.6465 35.7808 12.6465Z" fill="#0078D4"></path>
	<path d="M64.0547 12.6465C66.7471 12.6465 68.9297 10.4639 68.9297 7.77148C68.9297 5.0791 66.7471 2.89648 64.0547 2.89648C61.3623 2.89648 59.1797 5.0791 59.1797 7.77148C59.1797 10.4639 61.3623 12.6465 64.0547 12.6465Z" fill="#0078D4"></path>
	<path d="M92.8193 12.6465C95.5117 12.6465 97.6943 10.4639 97.6943 7.77148C97.6943 5.0791 95.5117 2.89648 92.8193 2.89648C90.1269 2.89648 87.9443 5.0791 87.9443 7.77148C87.9443 10.4639 90.1269 12.6465 92.8193 12.6465Z" fill="#50E6FF"></path>
	<path d="M122.069 12.6465C124.762 12.6465 126.944 10.4639 126.944 7.77148C126.944 5.0791 124.762 2.89648 122.069 2.89648C119.377 2.89648 117.194 5.0791 117.194 7.77148C117.194 10.4639 119.377 12.6465 122.069 12.6465Z" fill="#0078D4"></path>
	<path d="M148.882 12.6465C151.574 12.6465 153.757 10.4639 153.757 7.77148C153.757 5.0791 151.574 2.89648 148.882 2.89648C146.189 2.89648 144.007 5.0791 144.007 7.77148C144.007 10.4639 146.189 12.6465 148.882 12.6465Z" fill="#0078D4"></path>
	<path d="M7.50684 40.9219C10.1992 40.9219 12.3818 38.7393 12.3818 36.0469C12.3818 33.3545 10.1992 31.1719 7.50684 31.1719C4.81445 31.1719 2.63184 33.3545 2.63184 36.0469C2.63184 38.7393 4.81445 40.9219 7.50684 40.9219Z" fill="#0078D4"></path>
	<path d="M35.7808 40.9219C38.4731 40.9219 40.6558 38.7393 40.6558 36.0469C40.6558 33.3545 38.4731 31.1719 35.7808 31.1719C33.0884 31.1719 30.9058 33.3545 30.9058 36.0469C30.9058 38.7393 33.0884 40.9219 35.7808 40.9219Z" fill="#0078D4"></path>
	<path d="M64.0547 43.3594C68.0933 43.3594 71.3672 40.0855 71.3672 36.0469C71.3672 32.0083 68.0933 28.7344 64.0547 28.7344C60.0161 28.7344 56.7422 32.0083 56.7422 36.0469C56.7422 40.0855 60.0161 43.3594 64.0547 43.3594Z" fill="#0078D4"></path>
	<path d="M92.8193 43.3594C96.8579 43.3594 100.132 40.0855 100.132 36.0469C100.132 32.0083 96.8579 28.7344 92.8193 28.7344C88.7808 28.7344 85.5068 32.0083 85.5068 36.0469C85.5068 40.0855 88.7808 43.3594 92.8193 43.3594Z" fill="#50E6FF"></path>
	<path d="M122.069 43.3594C126.108 43.3594 129.382 40.0855 129.382 36.0469C129.382 32.0083 126.108 28.7344 122.069 28.7344C118.031 28.7344 114.757 32.0083 114.757 36.0469C114.757 40.0855 118.031 43.3594 122.069 43.3594Z" fill="#0078D4"></path>
	<path d="M148.882 43.3594C152.92 43.3594 156.194 40.0855 156.194 36.0469C156.194 32.0083 152.92 28.7344 148.882 28.7344C144.843 28.7344 141.569 32.0083 141.569 36.0469C141.569 40.0855 144.843 43.3594 148.882 43.3594Z" fill="#0078D4"></path>
	<path d="M7.50684 69.1973C10.1992 69.1973 12.3818 67.0147 12.3818 64.3223C12.3818 61.6299 10.1992 59.4473 7.50684 59.4473C4.81445 59.4473 2.63184 61.6299 2.63184 64.3223C2.63184 67.0147 4.81445 69.1973 7.50684 69.1973Z" fill="#0078D4"></path>
	<path d="M35.7808 71.6348C39.8193 71.6348 43.0933 68.3608 43.0933 64.3223C43.0933 60.2837 39.8193 57.0098 35.7808 57.0098C31.7422 57.0098 28.4683 60.2837 28.4683 64.3223C28.4683 68.3608 31.7422 71.6348 35.7808 71.6348Z" fill="#0078D4"></path>
	<path d="M64.0547 71.6348C68.0933 71.6348 71.3672 68.3608 71.3672 64.3223C71.3672 60.2837 68.0933 57.0098 64.0547 57.0098C60.0161 57.0098 56.7422 60.2837 56.7422 64.3223C56.7422 68.3608 60.0161 71.6348 64.0547 71.6348Z" fill="#50E6FF"></path>
	<path d="M92.8193 74.0723C98.2041 74.0723 102.569 69.707 102.569 64.3223C102.569 58.9375 98.2041 54.5723 92.8193 54.5723C87.4346 54.5723 83.0693 58.9375 83.0693 64.3223C83.0693 69.707 87.4346 74.0723 92.8193 74.0723Z" fill="#50E6FF"></path>
	<path d="M122.069 71.6348C126.108 71.6348 129.382 68.3608 129.382 64.3223C129.382 60.2837 126.108 57.0098 122.069 57.0098C118.031 57.0098 114.757 60.2837 114.757 64.3223C114.757 68.3608 118.031 71.6348 122.069 71.6348Z" fill="#50E6FF"></path>
	<path d="M148.882 71.6348C152.92 71.6348 156.194 68.3608 156.194 64.3223C156.194 60.2837 152.92 57.0098 148.882 57.0098C144.843 57.0098 141.569 60.2837 141.569 64.3223C141.569 68.3608 144.843 71.6348 148.882 71.6348Z" fill="#0078D4"></path>
	<path d="M7.50684 97.959C10.1992 97.959 12.3818 95.7764 12.3818 93.084C12.3818 90.3916 10.1992 88.209 7.50684 88.209C4.81445 88.209 2.63184 90.3916 2.63184 93.084C2.63184 95.7764 4.81445 97.959 7.50684 97.959Z" fill="#0078D4"></path>
	<path d="M35.7808 100.396C39.8193 100.396 43.0933 97.1226 43.0933 93.084C43.0933 89.0454 39.8193 85.7715 35.7808 85.7715C31.7422 85.7715 28.4683 89.0454 28.4683 93.084C28.4683 97.1226 31.7422 100.396 35.7808 100.396Z" fill="#50E6FF"></path>
	<path d="M64.0547 102.834C69.4395 102.834 73.8047 98.4688 73.8047 93.084C73.8047 87.6992 69.4395 83.334 64.0547 83.334C58.6699 83.334 54.3047 87.6992 54.3047 93.084C54.3047 98.4688 58.6699 102.834 64.0547 102.834Z" fill="#50E6FF"></path>
	<path d="M92.8193 107.709C100.896 107.709 107.444 101.161 107.444 93.084C107.444 85.0068 100.896 78.459 92.8193 78.459C84.7422 78.459 78.1943 85.0068 78.1943 93.084C78.1943 101.161 84.7422 107.709 92.8193 107.709Z" fill="#50E6FF"></path>
	<path d="M122.069 102.834C127.454 102.834 131.819 98.4688 131.819 93.084C131.819 87.6992 127.454 83.334 122.069 83.334C116.685 83.334 112.319 87.6992 112.319 93.084C112.319 98.4688 116.685 102.834 122.069 102.834Z" fill="#50E6FF"></path>
	<path d="M148.882 97.959C151.574 97.959 153.757 95.7764 153.757 93.084C153.757 90.3916 151.574 88.209 148.882 88.209C146.189 88.209 144.007 90.3916 144.007 93.084C144.007 95.7764 146.189 97.959 148.882 97.959Z" fill="#50E6FF"></path>
	<path d="M7.50684 125.746C10.1992 125.746 12.3818 123.563 12.3818 120.871C12.3818 118.179 10.1992 115.996 7.50684 115.996C4.81445 115.996 2.63184 118.179 2.63184 120.871C2.63184 123.563 4.81445 125.746 7.50684 125.746Z" fill="#0078D4"></path>
	<path d="M35.7808 125.746C38.4731 125.746 40.6558 123.563 40.6558 120.871C40.6558 118.179 38.4731 115.996 35.7808 115.996C33.0884 115.996 30.9058 118.179 30.9058 120.871C30.9058 123.563 33.0884 125.746 35.7808 125.746Z" fill="#0078D4"></path>
	<path d="M64.0547 128.184C68.0933 128.184 71.3672 124.91 71.3672 120.871C71.3672 116.833 68.0933 113.559 64.0547 113.559C60.0161 113.559 56.7422 116.833 56.7422 120.871C56.7422 124.91 60.0161 128.184 64.0547 128.184Z" fill="#50E6FF"></path>
	<path d="M92.8193 130.621C98.2041 130.621 102.569 126.256 102.569 120.871C102.569 115.486 98.2041 111.121 92.8193 111.121C87.4346 111.121 83.0693 115.486 83.0693 120.871C83.0693 126.256 87.4346 130.621 92.8193 130.621Z" fill="#50E6FF"></path>
	<path d="M122.069 129.135C126.108 129.135 129.382 125.861 129.382 121.822C129.382 117.784 126.108 114.51 122.069 114.51C118.031 114.51 114.757 117.784 114.757 121.822C114.757 125.861 118.031 129.135 122.069 129.135Z" fill="#50E6FF"></path>
	<path d="M148.882 125.746C151.574 125.746 153.757 123.563 153.757 120.871C153.757 118.179 151.574 115.996 148.882 115.996C146.189 115.996 144.007 118.179 144.007 120.871C144.007 123.563 146.189 125.746 148.882 125.746Z" fill="#50E6FF"></path>
	<path d="M7.50684 154.021C10.1992 154.021 12.3818 151.839 12.3818 149.146C12.3818 146.454 10.1992 144.271 7.50684 144.271C4.81445 144.271 2.63184 146.454 2.63184 149.146C2.63184 151.839 4.81445 154.021 7.50684 154.021Z" fill="#0078D4"></path>
	<path d="M35.7808 154.021C38.4731 154.021 40.6558 151.839 40.6558 149.146C40.6558 146.454 38.4731 144.271 35.7808 144.271C33.0884 144.271 30.9058 146.454 30.9058 149.146C30.9058 151.839 33.0884 154.021 35.7808 154.021Z" fill="#0078D4"></path>
	<path d="M64.0547 156.459C68.0933 156.459 71.3672 153.185 71.3672 149.146C71.3672 145.108 68.0933 141.834 64.0547 141.834C60.0161 141.834 56.7422 145.108 56.7422 149.146C56.7422 153.185 60.0161 156.459 64.0547 156.459Z" fill="#0078D4"></path>
	<path d="M92.8193 156.459C96.8579 156.459 100.132 153.185 100.132 149.146C100.132 145.108 96.8579 141.834 92.8193 141.834C88.7808 141.834 85.5068 145.108 85.5068 149.146C85.5068 153.185 88.7808 156.459 92.8193 156.459Z" fill="#50E6FF"></path>
	<path d="M122.069 156.459C126.108 156.459 129.382 153.185 129.382 149.146C129.382 145.108 126.108 141.834 122.069 141.834C118.031 141.834 114.757 145.108 114.757 149.146C114.757 153.185 118.031 156.459 122.069 156.459Z" fill="#0078D4"></path>
	<path d="M148.882 154.021C151.574 154.021 153.757 151.839 153.757 149.146C153.757 146.454 151.574 144.271 148.882 144.271C146.189 144.271 144.007 146.454 144.007 149.146C144.007 151.839 146.189 154.021 148.882 154.021Z" fill="#50E6FF"></path>
</svg>