<svg>
                                <symbol id="svg-dsvm" viewBox="0 0 113 104">
<path d="M53.28 0.0100021H22.8101C26.4701 12.94 21.55 14.8 0 14.8V21.57H73.28V14.79C51.73 14.79 49.61 12.94 53.28 0" transform="translate(19.4102 81.8999)" fill="#7A7A7A"></path>
<path d="M105.32 0H6.09019C4.44548 0.0648635 2.89046 0.766826 1.75394 1.95746C0.61743 3.14809 -0.0115039 4.73405 0.000159365 6.38V75.58C-0.00856241 77.2203 0.622796 78.7993 1.76005 79.9814C2.8973 81.1634 4.45078 81.8553 6.09019 81.91H105.32C108.69 81.91 112.09 78.91 112.09 75.58V6.38C112.09 3 108.68 0 105.32 0" fill="#A0A1A2"></path>
<path opacity="0.2" d="M105.39 0H6.09019C4.44548 0.0648635 2.89046 0.766826 1.75394 1.95746C0.61743 3.14809 -0.0115039 4.73406 0.000159365 6.38V75.58C-0.00603373 77.2195 0.626191 78.7971 1.76292 79.9786C2.89964 81.1602 4.45163 81.8529 6.09019 81.91H8.45017L105.39 0Z" transform="translate(0 0.0100098)" fill="white"></path>
<path d="M94.85 0V64.66H0V0H94.85Z" transform="translate(8.50049 8.62988)" fill="#060606"></path>
<path d="M3.71002 7.42C5.759 7.42 7.41998 5.75898 7.41998 3.71C7.41998 1.66103 5.759 0 3.71002 0C1.66105 0 0 1.66103 0 3.71C0 5.75898 1.66105 7.42 3.71002 7.42Z" transform="translate(47.3105 20.45)" fill="#9BC349"></path>
<path d="M1.81 3.62C2.80963 3.62 3.62 2.80964 3.62 1.81C3.62 0.810366 2.80963 0 1.81 0C0.810362 0 0 0.810366 0 1.81C0 2.80964 0.810362 3.62 1.81 3.62Z" transform="translate(48.397 12.6504) rotate(-33.6)" fill="#9BC349"></path>
<path d="M18.1806 22.9001L12.8606 2.68013C13.8606 2.05013 14.4706 1.41013 14.3406 0.890126C14.0706 -0.169874 10.9606 -0.299877 7.34062 0.590123C3.72062 1.48012 1.09062 3.08013 1.34062 4.14013C1.47062 4.67013 2.3406 4.97012 3.5706 5.02012L8.85063 25.0901C5.75917 26.7997 3.27104 29.4222 1.72636 32.5993C0.181684 35.7763 -0.344173 39.3529 0.220624 42.8401H3.78062C3.13011 39.7478 3.55582 36.5261 4.98716 33.7089C6.41851 30.8916 8.76953 28.6481 11.6506 27.3501C11.6506 27.3501 8.21062 16.4901 8.40062 15.6301C8.67062 14.4501 10.7206 14.7901 11.5706 14.0201C12.5706 13.1101 13.5106 11.7001 12.7506 8.31012C14.7506 15.9001 16.3406 22.1401 17.3506 26.1101C19.4249 26.0936 21.4764 26.5426 23.3542 27.424C25.232 28.3054 26.8882 29.5967 28.2008 31.203C29.5135 32.8092 30.4491 34.6894 30.9388 36.7051C31.4286 38.7208 31.4599 40.8207 31.0306 42.8501H34.5906C34.9808 40.4401 34.8539 37.9746 34.2181 35.6175C33.5823 33.2603 32.4522 31.0654 30.9029 29.1785C29.3537 27.2916 27.4207 25.7559 25.2324 24.6734C23.0441 23.591 20.6505 22.9865 18.2106 22.9001H18.1806Z" transform="translate(47.6597 30.4397)" fill="white"></path>
<path d="M27.7369 31.67C27.7369 27.9914 26.2756 24.4636 23.6745 21.8624C21.0733 19.2613 17.5455 17.8 13.8669 17.8C12.8669 13.8 11.2569 7.59 9.26686 0C10.0269 3.39 9.10687 4.79 8.08687 5.71C7.23687 6.48 5.18689 6.14 4.91689 7.32C4.71689 8.17 8.16689 19.04 8.16689 19.04C5.2858 20.338 2.93472 22.5815 1.50337 25.3987C0.0720289 28.216 -0.353627 31.4377 0.29689 34.53H27.4769C27.6619 33.5882 27.7491 32.6297 27.7369 31.67V31.67Z" transform="translate(51.2134 38.76)" fill="#9BC349"></path>
<path d="M1.81 3.62C2.80963 3.62 3.62 2.80963 3.62 1.81C3.62 0.810362 2.80963 0 1.81 0C0.810362 0 0 0.810362 0 1.81C0 2.80963 0.810362 3.62 1.81 3.62Z" transform="translate(52.9429 37.3594) rotate(-33.6)" fill="#9BC349"></path>
<path d="M0 64.79H0.130005V0.129997L86.84 0H86.85L0 0.129997V64.79Z" transform="translate(8.50049 8.5)" fill="#59B4D9"></path>
<path d="M73.29 0H0V6.77H73.29V0Z" transform="translate(19.4004 96.6899)" fill="#A0A1A2"></path>
</symbol>
                            </svg>