<svg xmlns="http://www.w3.org/2000/svg" viewBox="0 0 512 512">
                                
                            
    <g stroke="none" stroke-width="1" fill-rule="evenodd" fill="#0063B1" transform="translate(85.000000, 136.000000)">
        <path d="M170.345664,0.533333333 C216.162054,0.533333333 258.643418,17.771371 292.533726,46.2308632 C320.956243,70.0987617 340.378891,100.062704 340.378891,120.082955 C340.378891,140.104509 320.958542,169.951782 292.512347,193.720915 C258.636173,222.027243 216.157539,239.168498 170.345664,239.168498 C124.765174,239.168498 82.4625834,221.172179 48.0660255,191.590423 C20.2550057,167.672367 0.333333333,137.722188 0.333333333,120.082955 C0.333333333,102.445347 20.257505,72.3753211 48.0454028,48.3612265 C82.4535691,18.6259452 124.75851,0.533333333 170.345664,0.533333333 Z M170.345664,23.2888889 C130.65267,23.2888889 93.4476839,39.2003961 62.9243704,65.5784166 C39.666056,85.6780789 23.0888889,110.696727 23.0888889,120.082955 C23.0888889,129.444547 39.644558,154.334288 62.9037477,174.337675 C93.4183755,200.58089 130.633587,216.412942 170.345664,216.412942 C210.512097,216.412942 247.94255,201.308762 277.921433,176.258941 C301.706148,156.384857 317.623336,131.921619 317.623336,120.082955 C317.623336,108.219983 301.683724,83.6294326 277.900055,63.6570212 C247.91017,38.4729217 210.490689,23.2888889 170.345664,23.2888889 Z" fill-rule="nonzero"></path>
        <path d="M171,142.755556 C158.433244,142.755556 148.244444,132.566756 148.244444,120 C148.244444,107.433244 158.433244,97.2444444 171,97.2444444 C183.566756,97.2444444 193.755556,107.433244 193.755556,120 C193.755556,132.566756 183.566756,142.755556 171,142.755556 L171,142.755556 Z M214.076267,108.098844 C213.0864,104.509156 211.641422,101.084444 209.838044,97.9157333 L216.812622,85.4001778 L205.599822,74.1873778 L193.084267,81.1619556 C189.915556,79.3585778 186.490844,77.9136 182.895467,76.9237333 L178.930311,63.1111111 L163.069689,63.1111111 L159.104533,76.9237333 C155.509156,77.9136 152.084444,79.3585778 148.915733,81.1619556 L136.400178,74.1873778 L125.187378,85.4001778 L132.161956,97.9157333 C130.358578,101.084444 128.9136,104.509156 127.923733,108.098844 L114.111111,112.064 L114.111111,127.936 L127.923733,131.901156 C128.9136,135.490844 130.358578,138.915556 132.161956,142.084267 L125.187378,154.599822 L136.400178,165.812622 L148.915733,158.838044 C152.084444,160.641422 155.509156,162.0864 159.104533,163.076267 L163.069689,176.888889 L178.930311,176.888889 L182.895467,163.076267 C186.490844,162.0864 189.915556,160.641422 193.084267,158.838044 L205.599822,165.812622 L216.812622,154.599822 L209.838044,142.084267 C211.641422,138.915556 213.0864,135.490844 214.076267,131.901156 L227.888889,127.936 L227.888889,112.064 L214.076267,108.098844 Z"></path>
    </g>
</svg>