<svg>
                                <symbol id="svg-private-cloud" viewBox="0 0 144.382 108.1">
    <path d="M110.144,55.184c-.162,0-.325.01-.483.01A33.963,33.963,0,0,0,41.99,51.431a23.524,23.524,0,1,0-18.465,38.1h86.619a17.172,17.172,0,0,0,0-34.343Z" fill="#00abec" opacity="0.23"></path>
    <path d="M117.072,73.757c-.143,0-.285.01-.425.01-.171-18.584-13.474-33.593-29.854-33.593C71.531,40.174,58.946,53.2,57.152,70a19.852,19.852,0,0,0-16.234-8.958c-11.424,0-20.683,10.536-20.683,23.528S29.494,108.1,40.918,108.1h76.155c8.333,0,15.094-7.688,15.094-17.171S125.405,73.757,117.072,73.757Z" fill="#00abec" opacity="0.23"></path>
    <path d="M142.836,25.216l-23.67-23.67a5.279,5.279,0,0,0-7.466,0L88.03,25.216a5.279,5.279,0,0,0,0,7.466L107.4,52.057V96.015l8.028,8.028,8.028-8.028V93.989l-2.534-2.534,2.534-2.534V87.233L120.927,84.7l2.534-2.534v-2.02L120.316,77l3.145-3.145V72.2l-3.145-3.145,3.145-3.145V64.055l-3.145-3.145,3.145-3.145V52.057l19.375-19.375A5.279,5.279,0,0,0,142.836,25.216Zm-27.4-8.326a4.636,4.636,0,1,1,4.636-4.636A4.636,4.636,0,0,1,115.433,16.89Z" fill="#fcd116"></path>
    <path d="M115.433,104.043V16.89a4.636,4.636,0,1,1,0-9.272V0A5.263,5.263,0,0,0,111.7,1.546L88.03,25.216a5.279,5.279,0,0,0,0,7.466L107.4,52.057V96.015Z" fill="#ffb900"></path>
    <rect x="110.105" y="54.462" width="2.997" height="39.35" fill="#f68c1f" opacity="0.58"></rect>
    <rect x="99.416" y="22.811" width="32.751" height="3.666" fill="#f68c1f" opacity="0.71"></rect>
    <rect x="99.416" y="29.655" width="32.751" height="3.666" fill="#f68c1f" opacity="0.71"></rect>
</symbol>
                            </svg>