<svg>
                                <symbol id="svg-storage-files" viewBox="0 0 50 50">
  <path fill="#A0A1A2" d="M0,45.1c0,1,0.8,1.9,1.8,1.9h46.3c1,0,1.9-0.8,1.9-1.9V12H0V45.1z"></path>
  <path fill="#7A7A7A" d="M48.1,4.1H1.8C0.8,4.1,0,5,0,6v6h50V6c0-1-0.8-1.6-1.9-1.6"></path>
  <rect x="4" y="25.5" fill="#B8D432" width="42" height="7"></rect>
  <rect x="4" y="15" fill="#FFFFFF" width="42" height="7"></rect>
  <rect x="4" y="36" fill="#B8D432" width="42" height="7"></rect>
  <path opacity="0.2" fill="#FFFFFF" d="M2,4C0.9,4,0,4.9,0,6v7.3v3.3v28c0,1.1,0.9,2,2,2h2.2L43.6,4H2z"></path>
</symbol>
                            </svg>