<svg>
                                <symbol id="svg-migration" viewBox="0 0 48 48">
  <path d="M0 0H10.1053V10.1053L0 0Z" fill="#0078D4"></path>
  <path d="M12.6316 0H22.7369V10.1053L12.6316 0Z" fill="#50E6FF"></path>
  <path d="M25.2632 0H35.3684V10.1053L25.2632 0Z" fill="#50E6FF"></path>
  <path d="M37.8948 0H48.0001V10.1053L37.8948 0Z" fill="#50E6FF"></path>
  <path d="M0 12.6313H10.1053V22.7366L0 12.6313Z" fill="#0078D4"></path>
  <path d="M12.6316 12.6313H22.7369V22.7366L12.6316 12.6313Z" fill="#0078D4"></path>
  <path d="M25.2632 12.6313H35.3684V22.7366L25.2632 12.6313Z" fill="#50E6FF"></path>
  <path d="M37.8948 12.6313H48.0001V22.7366L37.8948 12.6313Z" fill="#50E6FF"></path>
  <path d="M0 25.2632H10.1053V35.3684L0 25.2632Z" fill="#0078D4"></path>
  <path d="M12.6316 25.2632H22.7369V35.3684L12.6316 25.2632Z" fill="#0078D4"></path>
  <path d="M25.2632 25.2632H35.3684V35.3684L25.2632 25.2632Z" fill="#0078D4"></path>
  <path d="M37.8948 25.2632H48.0001V35.3684L37.8948 25.2632Z" fill="#50E6FF"></path>
  <path d="M0 37.8945H10.1053V47.9998L0 37.8945Z" fill="#0078D4"></path>
  <path d="M12.6316 37.8945H22.7369V47.9998L12.6316 37.8945Z" fill="#0078D4"></path>
  <path d="M25.2632 37.8945H35.3684V47.9998L25.2632 37.8945Z" fill="#0078D4"></path>
  <path d="M37.8948 37.8945H48.0001V47.9998L37.8948 37.8945Z" fill="#0078D4"></path>
</symbol>
                            </svg>