<svg xmlns="http://www.w3.org/2000/svg">
                                
                            
    <rect width="34" height="34" fill="#0078d7"></rect>
    <path d="M12.512,27.23A14.5,14.5,0,0,0,27.106,12.636c0-.222,0-.443-.015-.663A10.436,10.436,0,0,0,29.65,9.318a10.238,10.238,0,0,1-2.946.807,5.147,5.147,0,0,0,2.255-2.837A10.279,10.279,0,0,1,25.7,8.533a5.134,5.134,0,0,0-8.741,4.678A14.562,14.562,0,0,1,6.39,7.852,5.133,5.133,0,0,0,7.978,14.7a5.091,5.091,0,0,1-2.328-.642v.065A5.131,5.131,0,0,0,9.765,19.15a5.121,5.121,0,0,1-2.316.088A5.135,5.135,0,0,0,12.241,22.8,10.292,10.292,0,0,1,5.871,25a10.441,10.441,0,0,1-1.221-.074,14.521,14.521,0,0,0,7.862,2.3" transform="translate(-0.15 -0.073)" fill="#fff"></path>
</svg>