<svg xmlns="http://www.w3.org/2000/svg">
                                
                            
    <path stroke="none" stroke-width="1" fill-rule="evenodd" fill="#0063B1" transform="translate(136.000000, 113.000000)" d="M153.485938,28.3330489 C150.419627,12.6317156 136.601316,0.776071111 120.001138,0.776071111 C101.14816,0.776071111 85.8678044,16.0621156 85.8678044,34.9094044 C85.8678044,53.7623822 101.14816,69.0427378 120.001138,69.0427378 C132.960427,69.0427378 144.235804,61.8235378 150.015716,51.1853156 C185.229938,62.6768711 211.512604,93.7723378 215.967004,131.620516 L23.98976,131.620516 C27.52256,101.623004 44.8054044,75.8694044 69.3472711,60.7255822 C65.8144711,53.8022044 63.6811378,46.0596267 63.26016,37.8562489 C25.9126044,58.0518044 0.534471111,97.5554489 0.534471111,142.998293 C0.534471111,197.349938 36.84096,243.191004 86.5163378,257.669227 C89.5826489,273.364871 103.40096,285.220516 120.001138,285.220516 C138.848427,285.220516 154.134471,269.94016 154.134471,251.087182 C154.134471,232.239893 138.848427,216.953849 120.001138,216.953849 C107.03616,216.953849 95.7664711,224.178738 89.98656,234.81696 C54.7666489,223.319716 28.4896711,192.229938 24.0352711,154.376071 L216.006827,154.376071 C212.479716,184.379271 195.196871,210.127182 170.649316,225.271004 C174.187804,232.200071 176.321138,239.93696 176.736427,248.146027 C214.089671,227.950471 239.467804,188.446827 239.467804,142.998293 C239.467804,88.6523378 203.161316,42.8112711 153.485938,28.3330489"></path>
</svg>