<svg>
                                <symbol id="svg-java" viewBox="0 0 47.406 64.287">
        <path d="M15.311,49.7s-2.469,1.5,1.717,1.932a35.186,35.186,0,0,0,13.31-.537,20.135,20.135,0,0,0,3.542,1.718C21.322,58.179,5.435,52.49,15.311,49.7ZM13.7,42.722s-2.683,2.039,1.5,2.469a50.766,50.766,0,0,0,17.175-.859,6.549,6.549,0,0,0,2.576,1.61c-15.135,4.508-32.095.429-21.253-3.22h0ZM43.327,54.958s1.825,1.5-2.04,2.684c-7.192,2.147-30.163,2.791-36.6,0-2.254-.966,2.04-2.362,3.435-2.576a10.7,10.7,0,0,1,2.147-.322C7.8,53.026-6.158,58.286,3.181,59.789c25.654,4.186,46.8-1.825,40.145-4.83h0ZM16.491,35.422s-11.7,2.791-4.186,3.757a93.336,93.336,0,0,0,15.457-.107c4.83-.429,9.661-1.288,9.661-1.288a25.838,25.838,0,0,0-2.9,1.5C22.61,42.4-.254,41,6.294,37.784a22.268,22.268,0,0,1,10.2-2.362Zm20.932,11.7C49.445,40.9,43.864,34.886,40,35.637a6.711,6.711,0,0,0-1.4.429,1.841,1.841,0,0,1,1.073-.859c7.621-2.684,13.632,8.051-2.469,12.237a1.332,1.332,0,0,0,.215-.322ZM17.672,64.082c11.593.751,29.3-.429,29.733-5.9,0,0-.859,2.147-9.553,3.757a96.62,96.62,0,0,1-29.3.429s1.5,1.288,9.124,1.718Z" fill="#4e7896"></path>
        <path d="M30.124,0s6.655,6.763-6.333,16.96c-10.412,8.265-2.361,12.988,0,18.355-6.118-5.474-10.519-10.3-7.514-14.813C20.678,13.847,32.807,10.627,30.124,0ZM26.689,30.807c3.113,3.542-.859,6.763-.859,6.763s7.943-4.079,4.294-9.124c-3.328-4.83-5.9-7.192,8.051-15.242,0,0-22,5.474-11.485,17.6Z" fill="#f58219"></path>
</symbol>
                            </svg>