<svg xmlns="http://www.w3.org/2000/svg">
                                
                            
  <path d="M49.546,14.52a33.689,33.689,0,0,1,21.67,9.27l9.657-9.96A47.286,47.286,0,0,0,66.455,4.055,45.956,45.956,0,0,0,49.546.455Z" fill="#50e6ff"></path>
  <path d="M22.645,73.86l-9.59,9.876c-.05-.051-.1-.118-.151-.169a48.921,48.921,0,0,1-9.321-14.7,50.086,50.086,0,0,1-3.5-17.43h13.56a35.881,35.881,0,0,0,8.984,22.393Z" fill="#0078d4"></path>
  <path d="M13.661,48.32A35.888,35.888,0,0,1,22.7,25.943l-9.641-9.909A49.118,49.118,0,0,0,3.566,30.89,50.468,50.468,0,0,0,.084,48.32Z" fill="#0078d4"></path>
  <path d="M24.816,23.74A33.776,33.776,0,0,1,46.52,14.5V.455a46.03,46.03,0,0,0-16.909,3.6A46.893,46.893,0,0,0,15.193,13.83Z" fill="#0078d4"></path>
  <path d="M85.906,46.335v8.008H96V29.107H70.764V39.2h8.008L58.785,59.172,48.034,48.421,25.96,70.5l7.134,7.133,14.94-14.94L58.785,73.439Z" fill="#0078d4"></path>
</svg>