<svg xmlns="http://www.w3.org/2000/svg">
                                
                            
	<circle fill="#59B4D9" cx="24" cy="25.011" r="6.9"></circle>
	<circle fill="#59B4D9" cx="35.5" cy="18.511" r="3.4"></circle>
	<circle fill="#59B4D9" cx="35.5" cy="31.511" r="3.4"></circle>
	<circle fill="#59B4D9" cx="44" cy="36.011" r="2.9"></circle>
	<circle fill="#59B4D9" cx="44" cy="14.011" r="2.9"></circle>
	<circle fill="#59B4D9" cx="44" cy="25.011" r="2.9"></circle>
	<path fill="#3999C6" d="M34.05,39.989c-0.392,0-0.756,0.117-1.064,0.312l-0.003-0.005L24,45.399L6,35.172V14.828L24,4.601
	l8.982,5.104l0.003-0.005c0.309,0.195,0.672,0.312,1.064,0.312c1.105,0,2-0.895,2-2c0-0.761-0.43-1.414-1.055-1.753L35,6.25L24,0
	L2,12.5v25L24,50l11-6.25l-0.005-0.009c0.625-0.338,1.055-0.992,1.055-1.753C36.05,40.884,35.155,39.989,34.05,39.989z"></path>
</svg>