<svg xmlns="http://www.w3.org/2000/svg">
                                
                            
    <path d="M204.322,85.829a10.045,10.045,0,0,0-1.031.053,9.981,9.981,0,1,0-18.859-5.6,9.98,9.98,0,0,0-17.376,6.164A9.982,9.982,0,1,0,163.6,105.79h40.722a9.98,9.98,0,0,0,0-19.961Z" fill="#00abec" opacity="0.23"></path>
    <path d="M145.464,31.55c-.132,0-.265.008-.394.008A27.689,27.689,0,0,0,89.9,28.49,19.178,19.178,0,1,0,74.846,59.549h70.617a14,14,0,0,0,0-28Z" fill="#00abec" opacity="0.23"></path>
    <circle cx="138.436" cy="59.549" r="40.795" fill="#83cfea"></circle>
    <path d="M118.026,47.411c-1.6-2.53-4-5.153-3.256-8.049.948-3.682,5.984-4.3,8.6-7.063,2.683-2.835,2.176-7.752-.459-10.632s-6.818-3.93-10.711-3.645a19.508,19.508,0,0,0-11.088,4.528c-4.185,3.541-6.689,8.722-8.1,14.02a45.321,45.321,0,0,0,.064,23.288c.94,3.5,1.362,6.07,4.724,7.412,3.908,1.56,9.316,1.365,13.426.941a10.78,10.78,0,0,0,4.995-1.485,9.1,9.1,0,0,0,3.1-4.172A16.821,16.821,0,0,0,118.026,47.411Z" fill="#8ec152"></path>
    <path d="M185.018,38.478c-1.085-3.856-3.952-10.292-8.151-11.7-3.686-1.235-10.661.55-13.957,2.331-3.9,2.1-6.75,6.85-5.206,11,1.1,2.949,4.075,4.9,5.118,7.873.711,2.024.427,4.242.2,6.376-.545,5.211-.647,10.621,1.177,15.532s5.929,9.255,11.1,10.072a3.741,3.741,0,0,0,2.029-.117,4.065,4.065,0,0,0,1.494-1.295c5.254-6.525,6.607-15.308,7.184-23.666C186.394,49.391,186.51,43.779,185.018,38.478Z" fill="#8ec152"></path>
    <path d="M136.481,68.22a15.673,15.673,0,0,0-5.639-1.273c-3.5-.132-7.638,1.318-9.538,5.2a8.771,8.771,0,0,0-.581,6.224,5.344,5.344,0,0,0,3.667,3.748c1.543.378,3.541.129,4.266,1.762a9.512,9.512,0,0,1,.406,2.3,6.579,6.579,0,0,0,4.69,5.059,3.14,3.14,0,0,0,1.426.218,3.376,3.376,0,0,0,1.757-.961,7.74,7.74,0,0,0,2.317-5.243c.068-2.162-1.484-3.266-1.551-5.156-.088-2.485,2.359-4.651,2.374-7.262C140.089,70.461,138.257,68.989,136.481,68.22Z" fill="#8ec152"></path>
    <path d="M161.56,85.751c-1.687.273-3.49.823-4.455,2.233a7.319,7.319,0,0,0-.958,3.023l-1.5,9.277c6.446-4.69,12.176-8.962,18.482-13.57A24.317,24.317,0,0,0,161.56,85.751Z" fill="#8ec152"></path>
    <path d="M173.125,86.714c.635.213,1.262.45,1.877.716a2.68,2.68,0,0,0,.163-2.2C174.475,85.727,173.8,86.221,173.125,86.714Z" fill="#8ec152"></path>
    <path d="M143.447,94.057a40.785,40.785,0,0,1-34.254-62.939,40.787,40.787,0,1,0,63.5,50.574A40.663,40.663,0,0,1,143.447,94.057Z" opacity="0.1"></path>
    <path d="M79.053,50.345a15.662,15.662,0,0,0-1.607.083,15.562,15.562,0,1,0-29.4-8.737A15.56,15.56,0,0,0,20.949,51.3,15.564,15.564,0,1,0,15.56,81.467H79.053a15.561,15.561,0,0,0,0-31.122Z" fill="#00abec" opacity="0.23"></path>
    <path d="M60.7,12.005,36.916.422a4.172,4.172,0,0,0-5.578,1.924L19.754,26.132a4.172,4.172,0,0,0,1.924,5.578l19.47,9.481,11.33,32.842,8.067,3.929,3.929-8.067-.522-1.514-2.546-1.24,1.24-2.546-.435-1.262-2.546-1.24,1.24-2.546-.521-1.509L57.223,56.5l1.539-3.16L58.336,52.1l-3.16-1.539,1.539-3.16-.479-1.387-3.16-1.539,1.539-3.16-1.471-4.265,9.481-19.469A4.172,4.172,0,0,0,60.7,12.005Zm-22.619.843A3.664,3.664,0,1,1,40.35,8.19,3.664,3.664,0,0,1,38.082,12.848Z" fill="#fcd116"></path>
    <path d="M60.546,77.961,38.082,12.848a3.664,3.664,0,1,1-2.39-6.927L33.728.229a4.159,4.159,0,0,0-2.39,2.117L19.754,26.132a4.172,4.172,0,0,0,1.924,5.578l19.47,9.481,11.33,32.842Z" fill="#ffb900"></path>
    <rect x="48.792" y="41.055" width="2.369" height="31.099" transform="translate(-15.728 19.394) rotate(-19.034)" fill="#f68c1f" opacity="0.58"></rect>
    <rect x="27.406" y="17.1" width="25.884" height="2.897" transform="translate(-3.843 14.173) rotate(-19.034)" fill="#f68c1f" opacity="0.71"></rect>
    <rect x="29.17" y="22.213" width="25.884" height="2.897" transform="translate(-5.414 15.028) rotate(-19.034)" fill="#f68c1f" opacity="0.71"></rect>
</svg>