<svg xmlns="http://www.w3.org/2000/svg">
                                
                            
<path d="M21,18v1.5h-6c0,0.4-0.1,0.8-0.2,1.2c-0.2,0.4-0.4,0.7-0.6,1c-0.3,0.3-0.6,0.5-1,0.6c-0.4,0.2-0.8,0.2-1.2,0.2
	s-0.8-0.1-1.2-0.2c-0.4-0.2-0.7-0.4-1-0.6c-0.3-0.3-0.5-0.6-0.6-1C9.1,20.3,9,19.9,9,19.5H3V18h1.5V9c0-0.7,0.1-1.3,0.3-2
	C5,6.4,5.2,5.8,5.5,5.2s0.7-1.1,1.2-1.5c0.5-0.5,1-0.8,1.5-1.2S9.4,2,10,1.8c0.6-0.2,1.3-0.3,2-0.3c0.7,0,1.3,0.1,2,0.3
	c0.6,0.2,1.2,0.4,1.8,0.8c0.6,0.3,1.1,0.7,1.5,1.2c0.5,0.5,0.8,1,1.2,1.5C18.8,5.8,19,6.4,19.2,7c0.2,0.6,0.3,1.3,0.3,2v9H21 M18,18
	V9c0-0.8-0.2-1.6-0.5-2.3c-0.3-0.7-0.7-1.4-1.3-1.9c-0.5-0.5-1.2-1-1.9-1.3S12.8,3,12,3c-0.8,0-1.6,0.2-2.3,0.5S8.3,4.2,7.8,4.8
	S6.8,6,6.5,6.7S6,8.2,6,9v9H18 M12,21c0.2,0,0.4,0,0.6-0.1s0.3-0.2,0.5-0.3c0.1-0.1,0.2-0.3,0.3-0.5c0.1-0.2,0.1-0.4,0.1-0.6h-3
	c0,0.2,0,0.4,0.1,0.6c0.1,0.2,0.2,0.3,0.3,0.5c0.1,0.1,0.3,0.2,0.5,0.3C11.6,21,11.8,21,12,21z" fill="#0072C6"></path>
</svg>