<svg xmlns="http://www.w3.org/2000/svg">
                                
                            
    <path fill="#FFFFFF" d="M22.9,19H9.1c-0.8,0-1.5-0.7-1.5-1.5c0-0.8,0.7-1.5,1.5-1.5h13.8c0.8,0,1.5,0.7,1.5,1.5 C24.4,18.3,23.7,19,22.9,19z"></path>
    <path fill="#FFFFFF" d="M22.9,25H9.1c-0.8,0-1.5-0.7-1.5-1.5S8.3,22,9.1,22h13.8c0.8,0,1.5,0.7,1.5,1.5S23.7,25,22.9,25z"></path>
    <path fill="#FFFFFF" d="M27.8,32H4.2C3.5,32,3,31.4,3,30.8V1.2C3,0.6,3.5,0,4.2,0h14.2c0.3,0,0.6,0.1,0.9,0.4l9.4,9.4 c0.2,0.2,0.4,0.5,0.4,0.9v20.1C29,31.4,28.5,32,27.8,32z M5.4,29.5h21.2V11.2l-8.7-8.7H5.4V29.5z"></path>
    <path fill="#FFFFFF" d="M27.5,11.9h-9.1c-0.7,0-1.2-0.6-1.2-1.2V1.5c0-0.7,0.6-1.2,1.2-1.2s1.2,0.6,1.2,1.2v7.9h7.9 c0.7,0,1.2,0.6,1.2,1.2S28.2,11.9,27.5,11.9z"></path>
</svg>