<svg xmlns="http://www.w3.org/2000/svg">
                                
                            
    <path d="M109.6652,60.345 C106.6952,90.554 79.7972,112.636 49.5882,109.665 C19.3792,106.695 -2.7028,79.797 0.2682,49.588 C3.2382,19.379 30.1352,-2.703 60.3452,0.268 C90.5542,3.239 112.6352,30.136 109.6652,60.345" fill="#FFFFFF"></path>
    <path d="M104.4552,59.8324 C101.7672,87.1644 77.4322,107.1434 50.1002,104.4554 C22.7682,101.7684 2.7902,77.4324 5.4782,50.1004 C8.1652,22.7694 32.5012,2.7904 59.8322,5.4784 C87.1642,8.1654 107.1432,32.5014 104.4552,59.8324" fill="#EB0716"></path>
    <polygon fill="#FFFFFF" points="75.6249 77.6214 61.6969 55.7344 75.3749 34.0384 63.2079 34.0384 55.1959 50.2154 47.7079 33.7884 35.5419 33.7884 48.4569 56.2074 34.0419 77.8714 46.2079 77.8714 54.9019 61.9594 63.4579 77.6214"></polygon>
</svg>