<svg xmlns="http://www.w3.org/2000/svg">
                                
                            
  <path fill="#505050" d="M22.4874,4.5162 L20.9898,4.5162 L20.9898,0.0234 L1.521,0.0234 L1.521,4.5162 L0.0234,4.5162 L0.0234,16.497 L1.521,16.497 L1.521,23.985 L16.0641,23.985 L20.9898,19.0593 L20.9898,16.497 L22.4874,16.497 L22.4874,4.5162 L22.4874,4.5162 Z M16.497,19.4922 L18.4275,19.4922 L16.497,21.4227 L16.497,19.4922 L16.497,19.4922 Z M3.0186,16.497 L19.4922,16.497 L19.4922,17.9946 L14.9994,17.9946 L14.9994,22.4874 L3.0186,22.4874 L3.0186,16.497 L3.0186,16.497 Z M19.4922,4.5162 L3.0186,4.5162 L3.0186,1.521 L19.4922,1.521 L19.4922,4.5162 L19.4922,4.5162 Z M20.9898,14.9994 L1.521,14.9994 L1.521,6.0138 L20.9898,6.0138 L20.9898,14.9994 L20.9898,14.9994 Z M5.265,13.5018 C5.577,13.5018 5.8695,13.4433 6.1425,13.3263 C6.4155,13.2093 6.6534,13.0494 6.8562,12.8466 C7.059,12.6438 7.2189,12.4059 7.3359,12.1329 C7.4529,11.8599 7.5114,11.5674 7.5114,11.2554 C7.5114,10.9434 7.4529,10.6509 7.3359,10.3779 C7.2189,10.1049 7.059,9.867 6.8562,9.6642 C6.6534,9.4614 6.4155,9.3015 6.1425,9.1845 C5.8695,9.0675 5.577,9.009 5.265,9.009 L4.5162,9.009 L4.5162,7.5114 L3.0186,7.5114 L3.0186,13.5018 L5.265,13.5018 L5.265,13.5018 Z M5.265,10.5066 C5.4678,10.5066 5.6433,10.5807 5.7915,10.7289 C5.9397,10.8771 6.0138,11.0526 6.0138,11.2554 C6.0138,11.4582 5.9397,11.6337 5.7915,11.7819 C5.6433,11.9301 5.4678,12.0042 5.265,12.0042 L4.5162,12.0042 L4.5162,10.5066 L5.265,10.5066 L5.265,10.5066 Z M10.5066,13.5018 C10.92,13.5018 11.30805,13.4238 11.67075,13.2678 C12.03345,13.1118 12.3513,12.8973 12.6243,12.6243 C12.8973,12.3513 13.1118,12.03345 13.2678,11.67075 C13.4238,11.30805 13.5018,10.92 13.5018,10.5066 C13.5018,10.0932 13.4238,9.70515 13.2678,9.34245 C13.1118,8.97975 12.8973,8.6619 12.6243,8.3889 C12.3513,8.1159 12.03345,7.9014 11.67075,7.7454 C11.30805,7.5894 10.92,7.5114 10.5066,7.5114 L9.009,7.5114 L9.009,13.5018 L10.5066,13.5018 L10.5066,13.5018 Z M10.5066,9.009 C10.7172,9.009 10.9122,9.048 11.0916,9.126 C11.271,9.204 11.42895,9.31125 11.56545,9.44775 C11.70195,9.58425 11.8092,9.7422 11.8872,9.9216 C11.9652,10.101 12.0042,10.296 12.0042,10.5066 C12.0042,10.7172 11.9652,10.9122 11.8872,11.0916 C11.8092,11.271 11.70195,11.42895 11.56545,11.56545 C11.42895,11.70195 11.271,11.8092 11.0916,11.8872 C10.9122,11.9652 10.7172,12.0042 10.5066,12.0042 L10.5066,9.009 L10.5066,9.009 Z M14.9994,13.5018 L18.7434,13.5018 L18.7434,12.0042 L16.497,12.0042 L16.497,10.5066 L18.7434,10.5066 L18.7434,9.009 L16.497,9.009 L16.497,7.5114 L14.9994,7.5114 L14.9994,13.5018 Z" transform="translate(11.255400, 12.004200) scale(-1, 1) rotate(-180.000000) translate(-11.255400, -12.004200)"></path>
</svg>