<svg xmlns="http://www.w3.org/2000/svg">
                                
                            
  <path d="M32.538,14.612h0v-.3c0-7.7-6.6-14.1-14.7-14.2-.2-.3-4.8.1-4.8.1h0c-7.3.9-13,7-13,14.1,0,.2-.8,5.8,4.9,10.5,2.6,2.3,5.3,8.5,5.7,10.3l.3.6h10.6l.3-.6c.4-1.8,3.2-8,5.7-10.2C33.238,20.112,32.538,14.812,32.538,14.612Z" fill="#68217a"></path>
  <rect x="11.138" y="39.312" width="10.6" height="3.4" fill="#7a7a7a"></rect>
  <polygon points="14.438 49.912 18.338 49.912 21.638 46.412 11.138 46.412 14.438 49.912" fill="#7a7a7a"></polygon>
  <path opacity="0.65" d="M19.038,35.212h-2v-12.7h-1.7v12.6h-2v-12.6h-1.7a3.757,3.757,0,0,1-3.7-3.7,3.7,3.7,0,0,1,7.4,0v1.7h1.7v-1.7a3.7,3.7,0,1,1,3.7,3.7h-1.7Zm-7.4-18.1a1.685,1.685,0,0,0-1.7,1.7,1.752,1.752,0,0,0,1.7,1.7h1.7v-1.7A1.828,1.828,0,0,0,11.638,17.112Zm9.1,0a1.752,1.752,0,0,0-1.7,1.7v1.7h1.7a1.752,1.752,0,0,0,1.7-1.7A1.685,1.685,0,0,0,20.738,17.112Z" fill="#fff"></path>
  <path opacity="0.15" d="M17.838.112c-.2-.3-4.8.1-4.8.1-7.3.9-13,7-13,14.1a11.913,11.913,0,0,0,3.9,9.6l21.6-21.6A14.687,14.687,0,0,0,17.838.112Z" fill="#fff"></path>
</svg>