<svg>
                                <symbol id="svg-location-services-search" viewBox="0 0 85 85">
    <path d="M46.5673828,33.7219238 C46.5673828,33.7219238 47.2937012,33.4141032 48.7463379,32.7984619 C50.1989746,32.1828206 52.5439453,31.875 55.78125,31.875 C59.0185547,31.875 62.0898438,32.4906413 64.9951172,33.7219238 C67.9003906,34.9532064 70.4597982,36.6756185 72.6733398,38.8891602 C74.8868815,41.1027018 76.6092936,43.6621094 77.8405762,46.5673828 C79.0718587,49.4726562 79.6875,52.5439453 79.6875,55.78125 C79.6875,59.0185547 79.0718587,62.0898437 77.8405762,64.9951172 C76.6092936,67.9003906 74.8868815,70.4597982 72.6733398,72.6733398 C70.4597982,74.8868815 67.9003906,76.6092936 64.9951172,77.8405762 C62.0898438,79.0718587 59.0185547,79.6875 55.78125,79.6875 C52.5439453,79.6875 49.4726563,79.0718587 46.5673828,77.8405762 C43.6621094,76.6092936 41.1027018,74.8868815 38.8891602,72.6733398 C36.6756185,70.4597982 34.9532064,67.9003906 33.7219238,64.9951172 C32.4906413,62.0898437 31.875,59.0185547 31.875,55.78125 C31.875,52.5439453 32.4906413,49.4726562 33.7219238,46.5673828 C34.9532064,43.6621094 36.6756185,41.1027018 38.8891602,38.8891602 C41.1027018,36.6756185 43.6621094,34.9532064 46.5673828,33.7219238 Z M26.5625,55.78125 C26.5625,63.8330078 28.9005534,70.1969401 33.5766602,74.8730469 C38.2527669,79.5491536 42.4654134,82.4060059 46.2145996,83.4436035 C49.9637858,84.4812012 54.5084635,85 59.8486328,85 C65.1888021,85 70.1969401,82.6619466 74.8730469,77.9858398 C79.5491536,73.3097331 82.4060059,69.0970866 83.4436035,65.3479004 C84.4812012,61.5987142 85,57.0540365 85,51.7138672 C85,46.3736979 82.6619466,41.3655599 77.9858398,36.6894531 C73.3097331,32.0133464 69.0970866,29.1564941 65.3479004,28.1188965 C61.5987142,27.0812988 58.4098307,26.5625 55.78125,26.5625 C48.8639323,26.5625 42.6383464,28.8175456 37.1044922,33.3276367 L4.52392578,0.788574219 C3.99820964,0.262858073 3.37565104,0 2.65625,0 C1.93684896,0 1.31429036,0.262858073 0.788574219,0.788574219 C0.262858073,1.31429036 0,1.93684896 0,2.65625 C0,3.37565104 0.262858073,3.99820964 0.788574219,4.52392578 L33.3276367,37.1044922 C28.8175456,42.6383464 26.5625,48.8639323 26.5625,55.78125 Z" transform="translate(42.500000, 42.500000) scale(-1, 1) rotate(-180.000000) translate(-42.500000, -42.500000) "></path>
</symbol>
                            </svg>