<svg>
                                <symbol id="svg-local-insights" viewBox="0 0 26.25 31.38">
    <path d="M16.8.4,15.25,0l-.62,2.5a8.72,8.72,0,0,1,1.54.41Z" fill="#0063b1"></path>
    <path d="M10.86,0,9.33.44,10,2.93a8.83,8.83,0,0,1,1.55-.41Z" fill="#0063b1"></path>
    <path d="M7.54,4.33,5.74,2.59,4.63,3.75,6.38,5.43A8.63,8.63,0,0,1,7.54,4.33Z" fill="#0063b1"></path>
    <path d="M2.4,7.32,2,8.87l2.33.58a8,8,0,0,1,.48-1.53Z" fill="#0063b1"></path>
    <path d="M19.91,5.48l1.87-1.93L20.63,2.43,18.76,4.37A8.62,8.62,0,0,1,19.91,5.48Z" fill="#0063b1"></path>
    <path d="M24.38,8.67l-.45-1.54-2.52.72a9.72,9.72,0,0,1,.48,1.53Z" fill="#0063b1"></path>
    <path d="M26.19,24.67a.75.75,0,0,0,0-.16,2.49,2.49,0,0,0-.14-.44S26,24,26,24a4.29,4.29,0,0,0-.28-.51l-.11-.16c-.08-.11-.18-.23-.28-.35a2.09,2.09,0,0,0-.14-.17,6.14,6.14,0,0,0-.45-.43l-.21-.18-.35-.26-.29-.21-.35-.21c-.19-.12-.4-.24-.61-.35L22.59,21l-.46-.21-.27-.12A17,17,0,0,0,20,20l-.24-.07-.66-.17h0l-.76,1.51h0q.45.09.87.21l.1,0,.74.22.29.1.53.19c.28.11.55.22.81.34,1.82.85,2.9,1.92,2.9,2.87s-1.08,2-2.9,2.86q-.41.19-.84.36l-.33.12-.56.19-.45.13L19,29l-.53.13-.44.09-.61.12-.4.06-.68.1-.34,0-.76.08H15c-.29,0-.58,0-.88.06l-1,0-1,0c-.3,0-.59,0-.88-.06H11l-.76-.08-.34,0-.68-.1-.4-.06-.61-.12-.44-.09L7.21,29l-.49-.14-.45-.13-.56-.19-.33-.12q-.43-.16-.84-.36c-1.82-.85-2.9-1.92-2.9-2.86s1.08-2,2.9-2.87c.26-.12.53-.23.81-.34l.53-.19.29-.1.74-.22.1,0q.42-.12.87-.21h0l-.76-1.51h0l-.66.17L6.22,20a16.11,16.11,0,0,0-1.82.64l-.28.12L3.66,21l-.31.16c-.21.11-.42.23-.61.35l-.35.21-.29.21-.35.26-.21.18a6.14,6.14,0,0,0-.45.43,2.09,2.09,0,0,0-.14.17c-.1.12-.2.24-.28.35l-.11.16A4.29,4.29,0,0,0,.28,24s0,.07,0,.11a2.49,2.49,0,0,0-.14.44.75.75,0,0,0,0,.16,2.6,2.6,0,0,0-.06.56,2.56,2.56,0,0,0,.07.62,1.83,1.83,0,0,0,.08.25,2.47,2.47,0,0,0,.11.36c0,.1.11.2.17.3s.09.19.15.29.18.22.27.33l.17.23c.11.12.24.24.37.36s.11.12.17.17l.5.39.15.11c.2.14.41.28.64.41l.1.06c.25.14.51.28.78.41l0,0c.29.13.6.27.92.39h0a23.43,23.43,0,0,0,8.42,1.44,23.45,23.45,0,0,0,8.43-1.44h0c.32-.12.63-.26.92-.39l.05,0c.27-.13.53-.27.78-.41l.1-.06c.23-.13.44-.27.64-.41l.15-.11.5-.39.17-.17c.13-.12.26-.24.37-.36l.17-.23c.09-.11.19-.22.27-.33s.1-.19.15-.29.12-.2.17-.3a2.47,2.47,0,0,0,.11-.36,1.83,1.83,0,0,0,.08-.25,2.56,2.56,0,0,0,.07-.62A2.6,2.6,0,0,0,26.19,24.67Z" fill="#0063b1"></path>
    <path d="M6.15,14.43A7.21,7.21,0,0,1,5.64,13a6.72,6.72,0,0,1-.17-1.48,7.66,7.66,0,0,1,.27-2,8.27,8.27,0,0,1,.78-1.83A7.5,7.5,0,0,1,9.26,4.93a8.27,8.27,0,0,1,1.83-.78,7.8,7.8,0,0,1,4.07,0A8.27,8.27,0,0,1,17,4.93,7.73,7.73,0,0,1,20.51,9.5a7.66,7.66,0,0,1,.27,2A6.72,6.72,0,0,1,20.61,13a7.21,7.21,0,0,1-.51,1.41l-7,14Zm7-9A6.11,6.11,0,0,0,7.48,9.15,6,6,0,0,0,7,11.54a4.78,4.78,0,0,0,.13,1.13,4.52,4.52,0,0,0,.4,1.08L13.12,25l5.6-11.21a4.52,4.52,0,0,0,.4-1.08,4.78,4.78,0,0,0,.13-1.13,6.11,6.11,0,0,0-3.74-5.65A6,6,0,0,0,13.12,5.41Z" fill="#0063b1"></path>
</symbol>
                            </svg>