<svg xmlns="http://www.w3.org/2000/svg" viewBox="0 0 630 630">
                                
                            
  <rect width="630" height="630" fill="none"></rect>
  <rect x="30" y="30" width="120" height="120"></rect>
  <rect x="180" y="30" width="420" height="270" fill="#0078d4"></rect>
  <rect x="30" y="180" width="120" height="120" fill="#0078d4"></rect>
  <rect x="180" y="330" width="420" height="270" fill="#0078d4"></rect>
  <path d="M397,142A135,135,0,0,0,281.26,346.52c1,1.65,2,3.27,3.07,4.87L397,530,509.67,351.39c1.06-1.6,2.09-3.22,3.07-4.87A135,135,0,0,0,397,142Z" fill="#50e6ff"></path>
  <path d="M464.5,277a67.48,67.48,0,0,1-2.86,19.5,66.38,66.38,0,0,1-6.77,15.26c-.49.82-1,1.64-1.54,2.44a67.51,67.51,0,0,1-112.66,0c-.53-.8-1.05-1.62-1.54-2.44a66.38,66.38,0,0,1-6.77-15.26A67.51,67.51,0,1,1,464.5,277Z" fill="#0078d4"></path>
  <rect x="30" y="330" width="120" height="270"></rect>
</svg>