<svg xmlns="http://www.w3.org/2000/svg">
                                
                            
<rect fill="#3A96DD" width="380" height="380"></rect>
<path fill="#FFFFFF" d="M191.73,81.27c60.05,0,108.73,48.68,108.73,108.73s-48.68,108.73-108.73,108.73S83,250.05,83,190l0,0
	C83.066,129.977,131.707,81.336,191.73,81.27 M191.73,65.74c-68.627,0.006-124.256,55.643-124.25,124.27
	s55.643,124.256,124.27,124.25C260.373,314.254,316,258.623,316,190c0-68.627-55.633-124.26-124.26-124.26
	C191.737,65.74,191.733,65.74,191.73,65.74z"></path>
<circle fill="#FFFFFF" cx="172.31" cy="190" r="11.65"></circle>
<circle fill="#FFFFFF" cx="211.14" cy="190" r="11.65"></circle>
<path fill="#FFFFFF" d="M162.94,257.62l-62.13-62.13c-3.038-3.023-3.049-7.937-0.026-10.974c0.009-0.009,0.017-0.017,0.026-0.026
	l62.13-62.13l11,11L117.28,190l56.64,56.64L162.94,257.62z"></path>
<path fill="#FFFFFF" d="M220.52,257.62l-11-11L266.17,190l-56.64-56.64l11-11l62.13,62.13c3.038,3.023,3.049,7.937,0.026,10.974
	c-0.009,0.009-0.017,0.017-0.026,0.026L220.52,257.62z"></path>
</svg>