<svg>
                                <symbol id="svg-product-details" viewBox="0 0 40 40">
    <path d="M5,27.5v-5H0V0H30V5h5V15.352q-.625-.157-1.25-.254A8.045,8.045,0,0,0,32.5,15V7.5H7.5V25h15a8.045,8.045,0,0,0,.1,1.25q.1.625.254,1.25ZM5,20V5H27.5V2.5H2.5V20Zm27.5-2.5a7.2,7.2,0,0,1,2.91.6A7.584,7.584,0,0,1,39.4,22.09a7.406,7.406,0,0,1,0,5.82A7.584,7.584,0,0,1,35.41,31.9a7.2,7.2,0,0,1-2.91.6,7.544,7.544,0,0,1-2.285-.352,7.064,7.064,0,0,1-2.051-1.035q-.312.312-1.045,1.084T25.43,33.955q-.957.986-2.021,2.051t-2,1.953q-.937.889-1.66,1.465a2.249,2.249,0,0,1-1,.576,1.267,1.267,0,0,1-1.25-1.25,2.249,2.249,0,0,1,.576-1q.576-.722,1.465-1.66t1.953-2q1.065-1.065,2.051-2.021T25.3,30.381q.772-.732,1.084-1.045a7.064,7.064,0,0,1-1.035-2.051A7.544,7.544,0,0,1,25,25a7.2,7.2,0,0,1,.6-2.91A7.584,7.584,0,0,1,29.59,18.1,7.2,7.2,0,0,1,32.5,17.5Zm0,12.5a4.792,4.792,0,0,0,1.934-.4A5.065,5.065,0,0,0,37.1,26.943a4.893,4.893,0,0,0,0-3.877A5.038,5.038,0,0,0,34.434,20.4a4.893,4.893,0,0,0-3.877,0A5.065,5.065,0,0,0,27.9,23.066a4.893,4.893,0,0,0,0,3.877A5.092,5.092,0,0,0,30.557,29.6,4.768,4.768,0,0,0,32.5,30Z" fill="#525252"></path>
</symbol>
                            </svg>