<svg>
                                <symbol id="svg-iot-hub-plain" viewBox="0 0 32 32">
    <circle cx="13.4" cy="4.9" r="3.1"></circle>
    <circle cx="20.5" cy="14.9" r="3.7"></circle>
    <circle cx="26.7" cy="25.9" r="2.9"></circle>
    <circle cx="15.2" cy="23.9" r="2.5"></circle>
    <circle cx="5.1" cy="16.3" r="2.5"></circle>
    <rect x="10.7" y="9" transform="matrix(0.5751 0.8181 -0.8181 0.5751 15.1512 -9.6241)" width="12.3" height="1.6"></rect>
    <rect x="17.2" y="19.4" transform="matrix(0.4968 0.8679 -0.8679 0.4968 29.4089 -10.1933)" width="12.6" height="1.6"></rect>
    <rect x="11.9" y="7.9" transform="matrix(8.274771e-002 0.9966 -0.9966 8.274771e-002 27.1578 1.5262)" width="1.6" height="15.3"></rect>
    <rect x="16.9" y="14.1" transform="matrix(0.8565 0.5161 -0.5161 0.8565 12.5121 -6.3586)" width="1.6" height="10.4"></rect>
    <path d="M31.5,0h-8.1c-0.3,0-0.5,0.2-0.5,0.6v2.9c0,0.3,0.2,0.5,0.5,0.5H28v4.5C28,8.8,28.2,9,28.6,9h2.9 C31.8,9,32,8.8,32,8.5v-8C32,0.2,31.8,0,31.5,0z"></path>
    <path d="M0.5,31.9h8.1c0.3,0,0.5-0.2,0.5-0.6v-2.9c0-0.3-0.2-0.5-0.5-0.5H4v-4.5c0-0.3-0.2-0.5-0.6-0.5H0.5 c-0.3,0-0.5,0.2-0.5,0.5l0,8C0,31.7,0.2,31.9,0.5,31.9z"></path>
</symbol>
                            </svg>