<svg xmlns="http://www.w3.org/2000/svg" viewBox="0 0 512 512">
                                
                            
    <g stroke="none" stroke-width="1" fill-rule="evenodd" transform="translate(108.000000, 103.000000)">
        <path d="M188.771,83 L147,153.059 L188.771,223.117 L271.634,223.117 L313.404,153.059 L271.634,83 L188.771,83 Z M174.942,153.059 L202.404,106.999 L258.002,106.999 L285.462,153.059 L258.002,199.117 L202.404,199.117 L174.942,153.059 Z"></path>
        <path d="M41.7699,0 L-0.0001,70.059 L41.7699,140.117 L124.6329,140.117 L166.4039,70.059 L124.6329,0 L41.7699,0 Z M27.9419,70.059 L55.4019,24 L111.0009,24 L138.4609,70.059 L111.0009,116.117 L55.4019,116.117 L27.9419,70.059 Z"></path>
        <path d="M41.7699,165.8826 L-0.0001,235.9416 L41.7699,305.9996 L124.6329,305.9996 L166.4039,235.9416 L124.6329,165.8826 L41.7699,165.8826 Z M27.9419,235.9416 L55.4019,189.8826 L111.0009,189.8826 L138.4609,235.9416 L111.0009,281.9996 L55.4019,281.9996 L27.9419,235.9416 Z"></path>
    </g>
</svg>