<svg>
                                <symbol id="svg-group-of-three" viewBox="0 0 40 24">
<path d="M6.29921 0C5.35433 0 4.56693 0.16 3.77953 0.48C3.30709 0.64 2.83465 0.96 2.3622 1.28C1.88976 1.6 1.5748 2.08 1.25984 2.56C0.472443 3.68 0 4.96 0 6.4H2.04725H3.62205H5.19685H12.5984C12.5984 2.72 9.76378 0 6.29921 0Z" transform="translate(27.4016 17.6)" fill="#0078D4"></path>
<path d="M3.62205 7.84C3.77953 7.84 3.77953 7.84 3.93701 7.84C4.09449 7.84 4.09449 7.84 4.25197 7.84C5.19685 7.84 6.14173 7.36 6.77166 6.72C7.40158 5.92 7.87402 4.96 7.87402 4C7.87402 1.76 6.14173 0 3.93701 0C1.73228 0 0 1.76 0 4C0 5.12 0.472442 6.08 1.10236 6.72C1.73228 7.36 2.67717 7.68 3.62205 7.84Z" transform="translate(29.7638 8.15991)" fill="#0078D4"></path>
<path d="M0 6.4H7.40157C7.40157 4.32 7.87402 2.24 8.8189 0.639999C8.0315 0.159999 7.24409 0 6.29921 0C2.83465 0 0 2.88 0 6.4Z" transform="translate(0 17.6)" fill="#50E6FF"></path>
<path d="M4.72441 0C2.04724 0 0 2.24 0 4.8C0 6.24 0.629921 7.52 1.73228 8.48C2.51969 9.12 3.46457 9.6 4.40945 9.6C4.56693 9.6 4.56693 9.6 4.72441 9.6C4.88189 9.6 4.88189 9.6 5.03937 9.6C6.14173 9.6 7.08661 9.12 7.71654 8.48C8.8189 7.52 9.44882 6.24 9.44882 4.8C9.44882 2.24 7.40158 0 4.72441 0Z" transform="translate(1.5748 6.40002)" fill="#50E6FF"></path>
<path d="M2.51969 2.88C2.20473 3.2 1.73228 3.68 1.5748 4.16C1.25984 4.64 0.944882 5.12 0.787402 5.6C0.314961 6.72 0 8 0 9.44H2.04724H3.62205H5.19685H13.7008C13.7008 6.88 14.6457 4.64 16.378 2.88C14.6457 1.12 12.126 0 9.44882 0C6.77165 0 4.25197 1.12 2.51969 2.88Z" transform="translate(10.5512 14.4)" fill="#243A5E"></path>
<path d="M2.67717 11.68C3.62205 12.32 4.72441 12.64 5.82677 12.8C5.98425 12.8 6.14173 12.8 6.29921 12.8C6.45669 12.8 6.61417 12.8 6.77165 12.8C7.87402 12.64 8.97638 12.32 9.92126 11.68C11.4961 10.56 12.5984 8.64 12.5984 6.4C12.5984 3.84 11.0236 1.6 8.97638 0.64C8.18898 0.16 7.24409 0 6.29921 0C5.35433 0 4.56693 0.16 3.62205 0.64C1.5748 1.6 0 3.84 0 6.4C0 8.64 1.10236 10.56 2.67717 11.68Z" transform="translate(13.7008)" fill="#243A5E"></path>
</symbol>
                            </svg>