<svg xmlns="http://www.w3.org/2000/svg">
                                
                            
    <path d="M28,14v12c0.188,0.563,0.352,1.055,0.492,1.477s0.294,0.883,0.461,1.383c0.166,0.5,0.322,0.972,0.469,1.414 c0.146,0.443,0.273,0.826,0.383,1.148C29.914,31.745,29.979,31.938,30,32H0c0.021-0.063,0.086-0.255,0.195-0.578 c0.109-0.322,0.237-0.705,0.383-1.148c0.146-0.442,0.302-0.914,0.469-1.414c0.167-0.5,0.32-0.961,0.461-1.383S1.813,26.563,2,26V14 H0v-2l14-7V0h5.984v4H16v1l14,7v2H28z M27.219,30l-0.656-2H3.438l-0.656,2H27.219z M4,26h2V14H4V26z M4.469,12h21.063L15,6.734 L4.469,12z M8,26h2V14H8V26z M12,26h2V14h-2V26z M16,26h2V14h-2V26z M20,26h2V14h-2V26z M26,14h-2v12h2V14z"></path>
</svg>