<svg xmlns="http://www.w3.org/2000/svg">
                                
                            
<path fill-rule="evenodd" clip-rule="evenodd" d="M37.5887 0H2.10547C0.842163 0 0 0.8396 0 2.09937V40.3064C0 41.356 0.842163 42.4058 2.10547 42.4058H30.9508V48.2837H20.6339V52.4824H46.3209V48.2837H36.004V42.1958H65.2705C66.3232 42.1958 67.376 41.356 67.376 40.0964V2.09937C67.376 1.04956 66.5338 0 65.2705 0H58.3339L37.5887 21.2771V0Z" transform="translate(0 47.5176)" fill="#50E6FF"></path>
<path fill-rule="evenodd" clip-rule="evenodd" d="M65.9575 0H0V40.4255L14.0336 40.4258V54.6101L28.0671 40.4258L65.9575 40.4255V0Z" transform="translate(29.7873)" fill="white"></path>
<path fill-rule="evenodd" clip-rule="evenodd" d="M7.09216 3.54614C7.09216 5.50464 5.50452 7.09229 3.54614 7.09229C1.58765 7.09229 0 5.50464 0 3.54614C0 1.58765 1.58765 0 3.54614 0C5.50452 0 7.09216 1.58765 7.09216 3.54614ZM21.2765 3.54614C21.2765 5.50464 19.6888 7.09229 17.7305 7.09229C15.772 7.09229 14.1843 5.50464 14.1843 3.54614C14.1843 1.58765 15.772 0 17.7305 0C19.6888 0 21.2765 1.58765 21.2765 3.54614ZM31.9149 7.09229C33.8733 7.09229 35.4609 5.50464 35.4609 3.54614C35.4609 1.58765 33.8733 0 31.9149 0C29.9564 0 28.3688 1.58765 28.3688 3.54614C28.3688 5.50464 29.9564 7.09229 31.9149 7.09229Z" transform="translate(46.0994 17.0212)" fill="#243A5E"></path>
</svg>