<svg>
                                <symbol id="svg-watch-video" viewBox="0 0 44 33">
    <path d="M1192.5625,1035.33008 L1196.88086,1037.5 L1192.5625,1039.66992 L1192.5625,1035.33008 L1192.5625,1035.33008 Z M1201.5,1037.5 L1190.5,1032 L1190.5,1043 L1201.5,1037.5 L1201.5,1037.5 Z M1182.25,1045.75 L1182.25,1029.25 L1209.75,1029.25 L1209.75,1045.75 L1182.25,1045.75 L1182.25,1045.75 Z M1179.5,1026.5 L1179.5,1048.5 L1212.5,1048.5 L1212.5,1026.5 L1179.5,1026.5 L1179.5,1026.5 Z M1176.75,1051.25 L1176.75,1023.75 L1215.25,1023.75 L1215.25,1051.25 L1176.75,1051.25 L1176.75,1051.25 Z M1218,1021 L1174,1021 L1174,1054 L1218,1054 L1218,1021 Z" fill="#027DCD" transform="translate(-1174.000000, -1021.000000)"></path>
</symbol>
                            </svg>