<svg>
                                <symbol id="svg-payg-icon" viewBox="0 0 434.974 149.647">
    <path d="M209.267,83.13l-1-.461-.792-.229c-42.176-17.5-109.4-16.97-149.885,1.234-4.794,2.215-13.2,2.271-18.37.123-2.586-1.074-4.013-2.468-4.075-3.949s1.052-2.892,3.742-4c50.268-22.636,134.1-23.351,186.818-1.558l.8.54.593.152c42.371,17.5,109.6,16.969,150.08-1.235,4.99-2.217,13.2-2.271,18.37-.123,2.586,1.074,4.016,2.546,4.075,3.949.062,1.481-1.247,2.893-3.547,4C345.621,104.209,261.788,104.924,209.267,83.13Z" fill="#00abec"></path>
    <path d="M303.114,74.161c-22.667.229-43.93-3.372-60.243-10.125l-1.2-.616-1.586-.535c-29.44-12.123-67.833-18.651-108.479-18.3S53.14,52.046,24.935,64.71c-4.99,2.217-13.2,2.271-18.37.123-2.586-1.074-4.013-2.468-4.075-3.949-.059-1.4,1.052-2.892,3.547-4,33-14.8,77.416-23.207,124.9-23.6,47.682-.4,92.768,7.257,127.185,21.53l1,.539,1.782.534c11.143,4.682,25.908,7.157,41.543,7.052s29.985-2.851,40.73-7.679c4.986-2.294,13.39-2.351,18.563-.2,2.586,1.074,4.016,2.546,4.075,3.949.062,1.481-1.247,2.893-3.742,4C346.535,70.05,325.588,74.011,303.114,74.161Z" fill="#00abec"></path>
    <path d="M428.938,100.534c-33.006,14.723-77.224,23.127-124.906,23.523s-92.768-7.257-127.185-21.53l-1-.461-1.785-.612c-11.143-4.682-25.908-7.157-41.543-7.052-15.631.182-30.177,2.93-40.922,7.758-4.99,2.217-13.2,2.271-18.37.123-2.586-1.074-4.013-2.468-4.075-3.949s1.247-2.893,3.742-4c15.542-6.965,36.485-11,58.96-11.154,22.667-.229,43.933,3.45,60.246,10.2l1,.461a16.342,16.342,0,0,1,1.785.612c29.443,12.2,68.032,18.728,108.678,18.379,40.451-.348,78.272-7.462,106.477-20.125,4.99-2.217,13.194-2.349,18.367-.2,2.59,1.152,4.016,2.546,4.079,4.027C432.544,97.937,431.43,99.348,428.938,100.534Z" fill="#00abec"></path>
    <path d="M217.94,14.315a60.662,60.662,0,1,0,44.075,12.844,59.561,59.561,0,0,0-37.58-13.183,62.6,62.6,0,0,0-6.5.339" fill="#fff"></path>
    <path d="M199.308,58.46,184.552,46.516a48.6,48.6,0,0,0-8.743,29.91l18.866-1.985a29.8,29.8,0,0,1,4.633-15.981" fill="#7fba00" opacity="0.4" style="isolation: isolate"></path>
    <path d="M240.58,49.126l11.947-14.759A48.635,48.635,0,0,0,222.6,25.651l1.985,18.863a29.835,29.835,0,0,1,16,4.613" fill="#7fba00" opacity="0.8" style="isolation: isolate"></path>
    <path d="M218.008,45.259,216.02,26.376a48.673,48.673,0,0,0-27.326,14.975l14.744,11.938a29.78,29.78,0,0,1,14.569-8.03" fill="#7fba00" opacity="0.6" style="isolation: isolate"></path>
    <path d="M195.406,81.018l-18.884,1.994a48.637,48.637,0,0,0,14.969,27.352l11.935-14.744a29.791,29.791,0,0,1-8.021-14.6" fill="#7fba00" opacity="0.25" style="isolation: isolate"></path>
    <path d="M296.951,66.969a73.446,73.446,0,0,0-27.106-49.483,70.864,70.864,0,0,0-9.062-6.139l-5.738,11.041a57.934,57.934,0,0,1,6.972,4.771,60.638,60.638,0,0,1-31.383,107.777,60.264,60.264,0,0,1-31.406-5.148l-5.732,11.032A73.009,73.009,0,0,0,296.951,66.969" fill="#a0a1a2"></path>
    <path d="M186.139,121.755a60.626,60.626,0,0,1,68.9-99.37l5.738-11.038a73.024,73.024,0,0,0-93.3,17.3l-.02.026A72.813,72.813,0,0,0,193.5,140.817l5.732-11.032a60.841,60.841,0,0,1-13.09-8.03" fill="#a0a1a2"></path>
    <path d="M186.139,121.755a60.626,60.626,0,0,1,68.9-99.37l5.738-11.038a73.024,73.024,0,0,0-93.3,17.3l-.02.026A72.813,72.813,0,0,0,193.5,140.817l5.732-11.032a60.841,60.841,0,0,1-13.09-8.03" fill="#fff" opacity="0.2" style="isolation: isolate"></path>
    <path d="M257.7,38.51,245.757,53.257A29.7,29.7,0,0,1,252.375,63.3h19.8A48.593,48.593,0,0,0,257.7,38.51Z" fill="#7fba00"></path>
    <path d="M218.677,80.586A8.543,8.543,0,0,1,224.7,65.979a8.414,8.414,0,0,1,6.013,2.377c.02.02.029-.023.056,0h41.76l1.815-.015.012.015a6.212,6.212,0,1,1,.035,12.423H230.3a8.7,8.7,0,0,1-5.621,2.277,8.491,8.491,0,0,1-6-2.47" fill="#dd5900"></path>
    <path d="M274.357,68.408l-.012-.015-1.815.015H230.77c-.026-.023-.035.02-.056,0a8.414,8.414,0,0,0-6.013-2.377,8.543,8.543,0,0,0-8.55,8.539H280.59A6.223,6.223,0,0,0,274.357,68.408Z" fill="#ff8c00"></path>
</symbol>
                            </svg>