<svg>
                                <symbol id="svg-prebuilt-machine" viewBox="0 0 143 135">
  <path fill-rule="evenodd" clip-rule="evenodd" d="M18.6829 10.991C22.8419 10.991 26.2118 14.309 26.2118 18.401C26.2118 22.493 22.8419 25.811 18.6829 25.811C14.5238 25.811 11.1521 22.493 11.1521 18.401C11.1521 14.309 14.5238 10.991 18.6829 10.991ZM0.794742 21.2448L5.5687 21.5389C5.87338 21.5591 6.12667 21.7669 6.21293 22.0555C6.46806 22.8956 6.80394 23.7007 7.22059 24.4599C7.36375 24.7228 7.33438 25.0445 7.13432 25.2688L3.97371 28.7964C3.67637 29.1273 3.69289 29.6273 4.01042 29.9379L6.93242 32.813C7.24812 33.1237 7.7547 33.1402 8.09058 32.8498L11.6678 29.7468C11.8973 29.5482 12.224 29.5188 12.4919 29.6622C13.2665 30.074 14.0869 30.4104 14.9441 30.6641C15.2359 30.7505 15.447 30.9968 15.4672 31.2964L15.7664 35.9766C15.7939 36.4178 16.1646 36.7597 16.6125 36.7597H20.7422C21.1901 36.7597 21.5608 36.4178 21.5883 35.9766L21.8875 31.2983C21.9077 31.0005 22.1188 30.7523 22.4106 30.6659C23.2696 30.4141 24.0919 30.0777 24.8664 29.6659C25.1344 29.5225 25.4611 29.5501 25.6905 29.7486L29.2641 32.8498C29.6 33.1402 30.1084 33.1255 30.4223 32.813L33.3443 29.9379C33.6618 29.6273 33.6783 29.1273 33.3828 28.7964L30.2277 25.2761C30.0258 25.05 29.9965 24.7283 30.1396 24.4654C30.5581 23.7044 30.8958 22.8974 31.1509 22.0555C31.2372 21.7669 31.4905 21.5591 31.7952 21.5389L36.56 21.2448C37.006 21.2154 37.3547 20.8514 37.3547 20.4121V16.3458C37.3547 15.9065 37.006 15.5425 36.56 15.5131L31.7823 15.2171C31.4776 15.1988 31.2262 14.991 31.1381 14.7043C30.8811 13.866 30.5416 13.0664 30.1249 12.3109C29.9799 12.0461 30.0111 11.7244 30.2112 11.4983L33.3828 7.96152C33.6783 7.63063 33.6618 7.13062 33.3443 6.81995L30.4223 3.94491C30.1084 3.63425 29.6 3.6177 29.2641 3.90815L25.6612 7.03503C25.4317 7.23356 25.105 7.26298 24.8371 7.12143C24.0735 6.71517 23.2604 6.38613 22.4143 6.13612C22.1225 6.04973 21.9114 5.80156 21.8912 5.50192L21.5883 0.78126C21.5608 0.341915 21.1901 0 20.744 0H16.6125C16.1646 0 15.7939 0.341915 15.7664 0.78126L15.4635 5.50559C15.4433 5.80523 15.2341 6.05156 14.9422 6.13796C14.0961 6.38796 13.2867 6.71885 12.5231 7.12327C12.2533 7.26481 11.9266 7.23724 11.6972 7.03871L8.09058 3.90815C7.7547 3.6177 7.24812 3.63425 6.93242 3.94491L4.01042 6.81995C3.69289 7.13062 3.67637 7.63063 3.97371 7.96152L7.149 11.5057C7.3509 11.73 7.38027 12.0535 7.23527 12.3164C6.82046 13.07 6.48274 13.8679 6.22578 14.7043C6.13952 14.991 5.88623 15.1988 5.58338 15.2171L0.794742 15.5131C0.348732 15.5425 0 15.9065 0 16.3458V20.4121C0 20.8514 0.348732 21.2154 0.794742 21.2448Z" transform="translate(0 76.037)" fill="#D7E8F6"></path>
  <path fill-rule="evenodd" clip-rule="evenodd" d="M92.9958 68.6279H58.7338L57.2049 78.4313L62.2523 87.777H26.9203L36.4168 79.6905L35.1797 68.6279H0V0H92.9958V68.6279Z" transform="translate(23.8955 23.6411)" fill="white"></path>
  <path fill-rule="evenodd" clip-rule="evenodd" d="M51.1067 24.6033L43.6658 24.1346C43.1923 24.1051 42.7995 23.7743 42.6618 23.3165C42.2672 21.9838 41.7404 20.708 41.0944 19.5058C40.8704 19.0867 40.9145 18.5775 41.2284 18.2209L46.1528 12.6252C46.6153 12.1031 46.5896 11.3108 46.0978 10.8163L41.544 6.25745C41.0503 5.76295 40.2611 5.73906 39.738 6.20046L34.1656 11.1215C33.8077 11.4358 33.2974 11.4818 32.879 11.2538C31.6731 10.5994 30.3956 10.0663 29.0576 9.66742C28.6024 9.52955 28.2757 9.13617 28.2445 8.66189L27.7783 1.23899C27.7361 0.542287 27.1579 0 26.4605 0H20.0218C19.3262 0 18.748 0.542287 18.7058 1.23899L18.2396 8.65822C18.2084 9.13249 17.878 9.52588 17.4228 9.66191C16.0848 10.0626 14.8055 10.5957 13.5978 11.2502C13.1811 11.4763 12.6709 11.4303 12.313 11.116L6.74611 6.20046C6.22301 5.73906 5.43011 5.76295 4.93821 6.25745L0.386343 10.8163C-0.105552 11.3108 -0.131252 12.1031 0.329441 12.6252L5.24656 18.2098C5.56042 18.5665 5.60448 19.0775 5.38055 19.4966C4.73081 20.7025 4.2022 21.9801 3.80575 23.3184C3.66993 23.7743 3.27898 24.1033 2.80728 24.1346H12.6177C14.4916 20.1363 18.5351 17.3624 23.2338 17.3624C29.7147 17.3624 34.9677 22.6235 34.9677 29.1126C34.9677 34.8627 30.8398 39.6403 25.3923 40.655V58.295H26.4605C27.1579 58.295 27.7361 57.7527 27.7783 57.056L28.25 49.5632C28.2776 49.089 28.6079 48.6937 29.0631 48.5577C30.381 48.1625 31.6437 47.6386 32.8331 46.997C33.2497 46.7728 33.76 46.8169 34.1161 47.1312L39.738 52.0945C40.2611 52.5559 41.0503 52.5302 41.544 52.0375L46.0978 47.4786C46.5896 46.9842 46.6153 46.1919 46.1528 45.668L41.2045 40.0484C40.8925 39.6918 40.8447 39.1789 41.0723 38.7598C41.7184 37.5649 42.2452 36.3002 42.6435 34.9748C42.7793 34.5207 43.1721 34.1917 43.6456 34.1623L51.1067 33.6917C51.8023 33.6476 52.3456 33.0685 52.3456 32.3718V25.9232C52.3456 25.2246 51.8023 24.6474 51.1067 24.6033Z" transform="translate(90.2295)" fill="#D7E8F6"></path>
  <path fill-rule="evenodd" clip-rule="evenodd" d="M1.5491 0.45221C1.06271 0.233456 0.543288 0.0863983 0 0V0.45221H1.5491Z" transform="translate(21.9014 91.0546)" fill="white"></path>
  <path fill-rule="evenodd" clip-rule="evenodd" d="M0.0238615 0C0.0146843 0 0.00917716 0 0 0C0.00734172 0 0.0146854 0 0.0220271 0H0.0238615Z" transform="translate(113.437 21.6934)" fill="white"></path>
  <path fill-rule="evenodd" clip-rule="evenodd" d="M18.0973 21.3119C18.0074 21.3119 17.9138 21.2843 17.8294 21.2347L0.262466 11.0801C0.0991126 10.9845 0 10.8062 0 10.6187C0 10.4294 0.0991126 10.2529 0.262466 10.1592L17.7248 0.0689349C17.8881 -0.0229783 18.0863 -0.0229783 18.2479 0.0689349L35.8203 10.229C35.9836 10.3228 36.0827 10.4992 36.0827 10.6886C36.0827 10.8798 35.9836 11.0544 35.8203 11.1481L18.3653 21.2347C18.2809 21.2843 18.1946 21.3119 18.0973 21.3119Z" transform="translate(52.5352 35.1361)" fill="#D7E8F6"></path>
  <path fill-rule="evenodd" clip-rule="evenodd" d="M18.5782 30.9743V10.6596C18.5782 10.4666 18.4736 10.2938 18.3176 10.1927L0.802084 0.0730709C0.633224 -0.024357 0.431325 -0.024357 0.269807 0.0730709C0.104618 0.168661 0.00183543 0.339618 0 0.528959V20.8583C0.00183543 21.0513 0.104618 21.2204 0.269807 21.3124L17.7835 31.4357C17.8606 31.4835 17.9487 31.5074 18.0515 31.5074H18.0551C18.1414 31.5074 18.2313 31.4835 18.3176 31.4357C18.4736 31.3401 18.5782 31.1673 18.5782 30.9743Z" transform="translate(50.0557 49.6234)" fill="#ACD1EF"></path>
  <path fill-rule="evenodd" clip-rule="evenodd" d="M8.62798 68.0874C8.05349 68.3319 7.45514 68.4477 6.8678 68.4477C5.11313 68.4477 3.44472 67.4146 2.71422 65.694C1.74328 63.3962 2.81333 60.7454 5.10578 59.7729C5.68211 59.5285 6.27862 59.4127 6.86412 59.4127C8.62063 59.4127 10.289 60.4458 11.0177 62.1664C11.9905 64.4624 10.9204 67.1131 8.62798 68.0874ZM56.2794 9.66926C55.8151 8.57549 55.2387 7.56996 54.5762 6.64164L49.8444 15.5278C48.6018 17.8311 46.2396 19.1382 43.7985 19.1382C42.6972 19.1382 41.5813 18.8716 40.5461 18.3109C37.2093 16.5076 35.9649 12.3384 37.7654 8.9983L42.5449 0.0238983C42.2512 0.00919221 41.9576 0 41.6639 0C39.6192 0 37.5452 0.38971 35.5446 1.24083C27.5091 4.65264 23.7666 13.9598 27.1823 22.0279C27.342 22.4047 27.5274 22.7632 27.711 23.1217L1.28625 60.0211C-0.921769 63.1057 -0.216969 67.3999 2.86288 69.6132C4.0761 70.4827 5.47287 70.9018 6.85679 70.9018C8.99506 70.9018 11.1003 69.9055 12.4402 68.0341L38.6721 31.403C39.6871 31.6071 40.726 31.7119 41.774 31.7119C43.826 31.7119 45.9093 31.3093 47.9154 30.4563C55.9509 27.0445 59.6952 17.7374 56.2794 9.66926Z" transform="translate(85.4561 64.0981)" fill="#0078D7"></path>
  <path fill-rule="evenodd" clip-rule="evenodd" d="M37.6851 87.7237C38.6138 87.0859 39.4232 86.3524 40.0821 85.4811C42.8592 81.799 42.2865 77.071 41.2697 73.1243H61.0226C59.8149 77.6096 58.9871 82.5141 61.7109 86.1226C62.1661 86.7237 62.6965 87.2513 63.2912 87.7237H37.6851ZM0.0330393 2.56621L2.22433e-06 70.4661C-0.00183321 71.8687 1.13246 73.0048 2.5329 73.0066L37.586 73.0489C40.8457 84.573 36.4645 87.7237 17.2843 87.7237V92.2587H71.5066H71.5084L74.7534 87.7237L74.9241 87.4866C62.8855 86.573 61.9458 82.8248 64.7136 73.0489H85.265L88.8294 68.0709H4.80149V4.31992H94.767V45.3205C96.2096 43.8904 97.9001 42.7176 99.7796 41.8297V2.54048C99.7796 1.13788 98.6434 0 97.243 0L2.56961 0.0275746C1.16917 0.0275746 0.0348748 1.16546 0.0330393 2.56621Z" transform="translate(19.6455 21.6514)" fill="#0078D7"></path>
  <path fill-rule="evenodd" clip-rule="evenodd" d="M18.2956 21.1786C18.4644 21.0849 18.5636 20.9121 18.5636 20.7172V0.531258C18.5636 0.341917 18.4644 0.165444 18.2956 0.0716922C18.1322 -0.0238974 17.9395 -0.0238974 17.7706 0.0716922L0.256959 10.1913C0.102783 10.2888 0.00183543 10.4616 0 10.6472V30.846C0.00183543 31.0372 0.102783 31.2082 0.256959 31.3019C0.34506 31.3497 0.435001 31.3736 0.528608 31.3736H0.534111C0.625883 31.3736 0.717654 31.3497 0.789236 31.3019L18.2956 21.1786Z" transform="translate(72.5342 49.7574)" fill="#50A0DF"></path>
</symbol>
                            </svg>