<svg xmlns="http://www.w3.org/2000/svg">
                                
                            
    <g stroke="none" stroke-width="1" fill="none" fill-rule="evenodd">
        <polygon fill="#FFFFFF" points="5.0841 11.4155 0.7501 22.8325 32.9161 11.4155 0.7501 0.7495"></polygon>
        <path d="M2.0566,1.9732 L5.7796,11.1332 C5.8506,11.3092 5.8526,11.5042 5.7856,11.6822 L2.0266,21.5832 L30.6066,11.4402 L2.0566,1.9732 Z M0.7496,23.5822 C0.5516,23.5822 0.3576,23.5032 0.2136,23.3572 C0.0096,23.1482 -0.0544,22.8392 0.0486,22.5662 L4.2786,11.4252 L0.0546,1.0322 C-0.0544,0.7612 0.0026,0.4512 0.2026,0.2372 C0.4026,0.0232 0.7076,-0.0528 0.9866,0.0372 L33.1536,10.7032 C33.4566,10.8042 33.6636,11.0872 33.6666,11.4082 C33.6696,11.7282 33.4696,12.0152 33.1676,12.1222 L1.0006,23.5392 C0.9186,23.5692 0.8336,23.5822 0.7496,23.5822 Z" fill="#0078D4"></path>
        <polygon fill="#0078D4" points="5.375 12.2076 31.875 12.2076 31.875 10.7076 5.375 10.7076"></polygon>
    </g>
</svg>