<svg xmlns="http://www.w3.org/2000/svg">
                                
                            
    <path d="M7.5,0c1,0,2,0.2,2.9,0.6c1.8,0.8,3.2,2.2,4,4C14.8,5.5,15,6.5,15,7.5c0,1.2-0.3,2.3-0.8,3.3
		  c-0.5,1-1.3,1.9-2.2,2.6v30c0,0.6-0.1,1.2-0.4,1.8c-0.5,1.1-1.3,1.9-2.4,2.4c-1.1,0.5-2.4,0.5-3.5,0c-1.1-0.5-1.9-1.3-2.4-2.4
		  C3.1,44.7,3,44.1,3,43.5v-30c-0.9-0.7-1.7-1.6-2.2-2.6c-1-1.9-1.1-4.2-0.2-6.2C1,3.7,1.5,2.9,2.2,2.2C2.9,1.5,3.7,1,4.6,0.6
		  C5.5,0.2,6.5,0,7.5,0z M9,11.8c0.4-0.2,0.8-0.5,1.2-0.8c0.4-0.3,0.7-0.6,0.9-0.9c0.3-0.3,0.5-0.7,0.6-1.1C11.9,8.5,12,8,12,7.5
		  c0-0.5-0.1-0.9-0.2-1.4c-0.1-0.4-0.4-0.8-0.6-1.2c-0.3-0.4-0.6-0.7-0.9-1C9.8,3.7,9.4,3.4,9,3.3v4.2L7.5,9L6,7.5V3.3
		  C5.1,3.6,4.4,4.2,3.8,4.9C3.6,5.3,3.4,5.7,3.2,6.1C3.1,6.6,3,7,3,7.5C3,8,3.1,8.5,3.2,9c0.1,0.4,0.4,0.8,0.6,1.1
		  c0.3,0.3,0.6,0.7,0.9,0.9c0.4,0.3,0.8,0.6,1.2,0.8v31.7C6,44.3,6.7,45,7.5,45c0.4,0,0.8-0.2,1.1-0.4C8.8,44.3,9,43.9,9,43.5V11.8z
			M30,27h-3v16.5c0,0.6-0.1,1.2-0.4,1.8c-0.5,1.1-1.3,1.9-2.4,2.4c-1.1,0.5-2.4,0.5-3.5,0c-1.1-0.5-1.9-1.3-2.4-2.4
		  c-0.2-0.6-0.4-1.2-0.3-1.8V27h-3v-3h6V11.1l-3-3V0h9v8.1l-3,3V24h6V27z M21,6.9l1.5,1.5L24,6.9V3h-3V6.9z M24,27h-3v16.5
		  c0,0.8,0.7,1.5,1.5,1.5s1.5-0.7,1.5-1.5V27z"></path>
</svg>