<svg xmlns="http://www.w3.org/2000/svg" viewBox="0 0 48 48"><path d="M34 48c7.732 0 14-6.268 14-14s-6.268-14-14-14-14 6.268-14 14 6.268 14 14 14z" fill="#50E6FF"/><path d="M29.5 33c-1.93 0-3.5-1.57-3.5-3.5s1.57-3.5 3.5-3.5 3.5 1.57 3.5 3.5-1.58 3.5-3.5 3.5zm0-5.655a2.166 2.166 0 100 4.332 2.166 2.166 0 000-4.332zM38.5 42c-1.93 0-3.5-1.57-3.5-3.5s1.57-3.5 3.5-3.5 3.5 1.57 3.5 3.5-1.57 3.5-3.5 3.5zm0-5.655a2.166 2.166 0 100 4.332 2.166 2.166 0 000-4.332zm3.701-9.578l-.943-.943-15.24 15.24.943.943 15.24-15.24zM16.034 1.941a151.74 151.74 0 00-2.846 5.473 72.685 72.685 0 00-2.427 5.423 59.43 59.43 0 00-1.89 5.506A43.227 43.227 0 007.63 24H3.566a41.947 41.947 0 011.138-5.138 60.732 60.732 0 011.757-5.138 76.299 76.299 0 012.243-5.172c.837-1.73 1.724-3.475 2.661-5.238H0V0h16.034v1.941zM32.815 24H18v-1.827c0-.746.104-1.443.313-2.09a8.258 8.258 0 01.84-1.844 9.798 9.798 0 011.234-1.63c.472-.516.976-1.01 1.514-1.481a32.295 32.295 0 011.646-1.383c.56-.45 1.109-.9 1.646-1.35.505-.428.966-.845 1.383-1.251a8.736 8.736 0 001.07-1.284c.296-.439.527-.9.691-1.383a5.016 5.016 0 00.247-1.596c0-.626-.098-1.17-.296-1.63a2.978 2.978 0 00-.806-1.169 3.211 3.211 0 00-1.219-.708 4.67 4.67 0 00-1.547-.246c-.966 0-1.948.225-2.947.674-.998.45-1.958 1.125-2.88 2.025v-3.67c.483-.363.971-.676 1.465-.939a9.018 9.018 0 011.53-.675 8.984 8.984 0 011.663-.411A12.472 12.472 0 0125.407 0c1.065 0 2.03.143 2.898.428.867.274 1.607.686 2.222 1.235a5.274 5.274 0 011.415 2.024c.34.812.51 1.745.51 2.799 0 .954-.12 1.816-.361 2.584a8.011 8.011 0 01-1.005 2.123 10.75 10.75 0 01-1.563 1.877 35.95 35.95 0 01-2.058 1.827c-.637.516-1.273 1.02-1.91 1.514-.625.483-1.19.96-1.695 1.433a7.9 7.9 0 00-1.235 1.399c-.307.46-.46.927-.46 1.399v.082h10.65V24z" fill="#0078D4"/></svg>