<svg xmlns="http://www.w3.org/2000/svg" viewBox="0 0 49 49"><path d="M45.994 24.304l-3.23-3.233-13.227 13.232 3.232 3.232 13.225-13.231z" fill="#0078D4"/><path d="M32.312 10.616l-3.23 3.232 13.682 13.69 3.23-3.233-13.682-13.69zM15.812 37.535l3.23-3.232L5.818 21.071l-3.231 3.233 13.226 13.232z" fill="#0078D4"/><path d="M2.585 24.303l3.231 3.233L19.5 13.846l-3.23-3.232-13.684 13.69z" fill="#0078D4"/><path d="M20.102 30.59a2.285 2.285 0 10-.002-4.57 2.285 2.285 0 00.002 4.57zM24.29 26.4a2.285 2.285 0 10-.002-4.57 2.285 2.285 0 00.001 4.57zM28.476 22.21a2.285 2.285 0 10-.001-4.57 2.285 2.285 0 00.001 4.57z" fill="#50E6FF"/></svg>