<svg xmlns="http://www.w3.org/2000/svg" viewBox="0 0 48 48"><path d="M47.882.312H.11v40.185h16.8l-.025.025 7.15 7.15 7.15-7.15-.026-.025h16.724V.312z" fill="#0078D4"/><path d="M38.804 29.213L25.465 8.219a1.878 1.878 0 00-2.66.017L9.22 29.558c-1.196 1.204-.37 3.242 1.305 3.225l26.922-.328c1.676-.009 2.527-2.055 1.356-3.242z" fill="#50E6FF"/><path d="M24.943 26.636A1.312 1.312 0 0024 26.24c-.362 0-.69.135-.952.396-.26.26-.395.59-.395.951 0 .37.134.69.395.952a1.3 1.3 0 00.952.387c.362 0 .682-.134.943-.387.27-.261.404-.581.404-.96a1.32 1.32 0 00-.404-.943zm-.008-2.333l.185-9.777h-2.274l.169 9.777h1.92z" fill="#0078D4"/></svg>