<svg xmlns="http://www.w3.org/2000/svg" viewBox="0 0 90.344 76.522"><path d="M56.27 62.775A34.988 34.988 0 1113.739 7.207 34.988 34.988 0 0156.27 62.775" fill="#59b4d9"/><path d="M49.84 41.129a7.54 7.54 0 0010.56 1.406c.172-.132.305-.291.462-.433 3.373 2.376 5.715 3.944 7.035 4.843a30.192 30.192 0 00.938-3c-1.394-1.037-3.28-2.489-6.006-4.7a7.476 7.476 0 00-10.735-9.165c-3.564-3.2-7.48-6.863-11.61-10.966 12.831-6.9 21.946-5.89 21.946-5.89a35.153 35.153 0 00-5.048-5.176c-5.411-.836-13.817-.742-23.421 4.367q-4.8-5.025-9.776-10.8A32.57 32.57 0 0019.544 3.5 75.376 75.376 0 0029 15.491l.024.024a64.811 64.811 0 00-9.724 8.421c-.406.433-.8.868-1.179 1.3a10.564 10.564 0 00-5.764.395C9.189 18.795 9.444 13.3 9.945 10.469a36.894 36.894 0 00-3.769 4.574 22.422 22.422 0 001.38 14.133 10.554 10.554 0 00-.007 12.814 10.84 10.84 0 00.783.9 53.018 53.018 0 00-2.045 12.269c.332.451.332.815.661 1.254a35.525 35.525 0 005.824 5.611 38.579 38.579 0 012.4-15.921 10.509 10.509 0 004.876-.792c.9.788 1.834 1.585 2.835 2.4a58.341 58.341 0 0010.2 6.5 6.918 6.918 0 0011.131 6.212 6.886 6.886 0 001.551-1.7 62.443 62.443 0 0013.728 1.427c.54 0 3.048-3.41 4.484-5.524-2.148.449-8.516 1.324-17.22-1.176a6.878 6.878 0 00-10.522-4.358 65.594 65.594 0 01-9.462-6.292q-.989-.783-1.9-1.565a10.609 10.609 0 00.445-10.57c.4-.4.794-.8 1.219-1.2a76.842 76.842 0 019.127-7.384c-.115-.106-.218-.218-.33-.326.113.1.22.213.335.318 4.369 4.04 9 7.869 13.39 11.291a7.487 7.487 0 00.781 7.765z" fill="#fff"/><circle cx="56.103" cy="60.275" r="25" fill="#fff"/><path d="M56.1 37.775a22.5 22.5 0 1022.375 22.5 22.438 22.438 0 00-22.375-22.5zm.221 38.825a16.452 16.452 0 1116.361-16.452A16.406 16.406 0 0156.321 76.6z" fill="#e43127"/><path d="M41.144 64.326S43.824 74.8 54.3 75.919 70 67.941 70 67.941L67.2 66.2s-4.366 7.35-12.157 7.1-11.717-4.923-13.899-8.974z" fill="#e43127"/><path d="M46.655 70.242a14.947 14.947 0 008.4 2.666c7.46.239 11.761-6.841 11.8-6.913l.205-.346.341.212 2.63 1.639a14.3 14.3 0 001.835-8.4l-4.855.057s.374 7.168-8.227 11.219c-3.582 1.687-9.6 1.412-13.213-1.433a6.3 6.3 0 001.084 1.299z" fill="#e43127"/><path d="M66.294 58.776l-.021-.409h.409l5.11-.053c-.228-3.961-3.224-7.447-3.224-7.447l-5.734 3.553s3.65 2.729.345 9.178a14.148 14.148 0 01-5.894 5.73 13.811 13.811 0 01-4.91 1.368c.28.112 2.965.646 6.731-1.027a11.786 11.786 0 007.188-10.893z" fill="#e43127"/></svg>