<svg xmlns="http://www.w3.org/2000/svg" viewBox="0 0 81.27 88.016"><path d="M56.27 62.775A34.988 34.988 0 1113.739 7.207 34.988 34.988 0 0156.27 62.775" fill="#59b4d9"/><path d="M49.84 41.129a7.54 7.54 0 0010.56 1.406c.172-.132.305-.291.462-.433 3.373 2.376 5.715 3.944 7.035 4.843a30.192 30.192 0 00.938-3c-1.394-1.037-3.28-2.489-6.006-4.7a7.476 7.476 0 00-10.735-9.165c-3.564-3.2-7.48-6.863-11.61-10.966 12.831-6.9 21.946-5.89 21.946-5.89a35.153 35.153 0 00-5.048-5.176c-5.411-.836-13.817-.742-23.421 4.367q-4.8-5.025-9.776-10.8A32.57 32.57 0 0019.544 3.5 75.376 75.376 0 0029 15.491l.024.024a64.811 64.811 0 00-9.724 8.421c-.406.433-.8.868-1.179 1.3a10.564 10.564 0 00-5.764.395C9.189 18.795 9.444 13.3 9.945 10.469a36.894 36.894 0 00-3.769 4.574 22.422 22.422 0 001.38 14.133 10.554 10.554 0 00-.007 12.814 10.84 10.84 0 00.783.9 53.018 53.018 0 00-2.045 12.269c.332.451.332.815.661 1.254a35.525 35.525 0 005.824 5.611 38.579 38.579 0 012.4-15.921 10.509 10.509 0 004.876-.792c.9.788 1.834 1.585 2.835 2.4a58.341 58.341 0 0010.2 6.5 6.918 6.918 0 0011.131 6.212 6.886 6.886 0 001.551-1.7 62.443 62.443 0 0013.728 1.427c.54 0 3.048-3.41 4.484-5.524-2.148.449-8.516 1.324-17.22-1.176a6.878 6.878 0 00-10.522-4.358 65.594 65.594 0 01-9.462-6.292q-.989-.783-1.9-1.565a10.609 10.609 0 00.445-10.57c.4-.4.794-.8 1.219-1.2a76.842 76.842 0 019.127-7.384c-.115-.106-.218-.218-.33-.326.113.1.22.213.335.318 4.369 4.04 9 7.869 13.39 11.291a7.487 7.487 0 00.781 7.765z" fill="#fff"/><circle cx="56.27" cy="63.016" r="25" fill="#fff"/><path d="M56.27 40.016a23 23 0 11-23 23 23 23 0 0123-23" fill="#696f57"/><path d="M56.27 42.683A20.247 20.247 0 1061.82 82.4a1.459 1.459 0 001.879.879 4.531 4.531 0 003.1-3.05A20.248 20.248 0 0056.27 42.683zM67.4 74.449a11.125 11.125 0 00-9.7-9.516c2.47 2.467 6.779 6.157 6.529 10.61a4.057 4.057 0 01-.4 1.559 16.98 16.98 0 113.571-2.653zm-23.78-4.415c5.676 3.4 12.467.521 13.263-4.693-5.083-4.116-11.931-.625-13.261 4.693zm12.855-7.55c.82-7.894-2.62-11.527-9.794-11.427-1.397 7.666 3.337 10.943 9.796 11.427zM67.5 53.1c-6.23.435-10.255 3.076-9.386 10.61 6.856.19 10.166-3.161 9.386-10.61z" fill="#fff"/></svg>