<svg xmlns="http://www.w3.org/2000/svg" viewBox="0 0 213.735 100.167"><path d="M42.563 42.246h22.483a1.012 1.012 0 011.012 1.012v47.29a1.013 1.013 0 01-1.013 1.013H42.562a1.012 1.012 0 01-1.012-1.012v-47.29a1.013 1.013 0 011.013-1.013z"/><path fill="#00aeef" d="M43.711 52.274H63.93v9.796H43.711z"/><path fill="#fff" d="M43.711 62.458h4.676v4.676h-4.676z"/><path fill="#00aeef" d="M48.892 62.458h4.676v4.676h-4.676zm5.182 0h4.674v4.676h-4.674zm5.181 0h4.675v4.676h-4.675zm-15.544 5.058h9.857v9.798h-9.857z"/><path fill="#fdb813" d="M54.074 67.516h4.674v4.675h-4.674z"/><path fill="#00aeef" d="M59.255 67.516h4.675v4.675h-4.675z"/><path fill="#fff" d="M54.074 72.637h4.674v4.677h-4.674z"/><path fill="#00aeef" d="M59.255 72.637h4.675v4.677h-4.675zm0 10.142h4.675v2.836h-4.675zm-10.363-.388h9.856v3.225h-9.856zm-5.181.388h4.676v2.836h-4.676z"/><path fill="#4bc1bf" d="M43.711 77.715h4.676v4.676h-4.676z"/><path fill="#00aeef" d="M48.892 77.715h9.856v4.676h-9.856z"/><path fill="#68217a" d="M59.255 77.715h4.675v4.676h-4.675z"/><path fill="none" stroke="#969696" stroke-linecap="round" stroke-miterlimit="10" stroke-width=".309" d="M46.049 89.497l-.791-.66.791-.66m-.791.66h1.384"/><circle cx="61.726" cy="88.684" r=".503" fill="none" stroke="#969696" stroke-linecap="round" stroke-miterlimit="10" stroke-width=".309"/><path fill="none" stroke="#969696" stroke-linecap="round" stroke-miterlimit="10" stroke-width=".309" d="M61.376 89.034l-.475.475"/><path fill="#969696" d="M53.7 88.837h.83v-.728l-.83.113v.615zm-.059 0v-.604l-.631.086v.518h.631zm.059.06v.615l.83.114v-.729h-.83zm-.059 0h-.631v.518l.631.088v-.606z"/><path d="M64.872 79.015h1.547v5.673h-1.547z"/><path d="M56.982 45.237a.413.413 0 01-.413.413h-4.993a.413.413 0 01-.412-.413.411.411 0 01.412-.412h4.993a.411.411 0 01.413.412z" fill="#969696"/><path fill="#fff" d="M44.012 48.589h.231v.851h-.231zm-.232.224h.232v.627h-.232zm-.232.138h.232v.488h-.232zm-.232.137h.232v.351h-.232z"/><path fill="#fff" d="M43.084 49.195h.233v.244h-.233zm17.421-.606h.98v.851h-.98zm-.686.244h.241v.362h-.241z"/><path d="M203.256 18.657a10.632 10.632 0 00-1.655.132 19.811 19.811 0 00-38.923-4.1 14.647 14.647 0 00-25.01 8.8 13.533 13.533 0 00-6.965 3.239 8.138 8.138 0 10-6.603 12.888h79.794v-.021a10.478 10.478 0 00-.636-20.938z" fill="#00abec" opacity=".23"/><path d="M83.318 21.992h83.309a1.228 1.228 0 011.228 1.228v50.738a1.228 1.228 0 01-1.228 1.228h-83.31a1.227 1.227 0 01-1.227-1.226V23.219a1.228 1.228 0 011.228-1.227z"/><path d="M89.773 28.377h70.4a1.037 1.037 0 011.037 1.037v37.9a1.037 1.037 0 01-1.037 1.037h-70.4a1.038 1.038 0 01-1.038-1.038V29.415a1.039 1.039 0 011.038-1.038z" fill="#34306d"/><path fill="#079dad" d="M94.566 37.489h16.759v8.098H94.566z"/><path fill="#5d499d" d="M111.949 37.489h16.76v8.098h-16.76z"/><path fill="#4573b8" d="M129.275 37.489h8.098v8.098h-8.098z"/><path fill="#0a8b44" d="M137.827 37.489h8.096v8.098h-8.096z"/><path fill="#973693" d="M129.275 46.096h8.098v8.097h-8.098z"/><path fill="#58843b" d="M94.566 46.096h8.097v8.097h-8.097z"/><path fill="#5894ce" d="M94.566 54.815h8.097v8.098h-8.097z"/><path fill="#973693" d="M103.313 54.815h8.098v8.098h-8.098z"/><path fill="#f9f7f8" d="M111.949 46.096h16.76v8.097h-16.76z"/><path fill="#315daa" d="M111.949 54.815h16.76v8.098h-16.76z"/><path fill="#bc1f4a" d="M129.163 60.196h16.76v2.717h-16.76z"/><path fill="#f9f7f8" d="M129.163 54.815h16.76v5.381h-16.76z"/><path fill="#315daa" d="M137.827 46.096h8.096v8.097h-8.096z"/><path fill="#109c49" d="M149.83 46.096h8.098v8.097h-8.098z"/><path fill="#da562c" d="M149.83 54.704h8.098v8.098h-8.098z"/><path fill="#8a288f" d="M158.295 46.096h2.917v8.097h-2.917z"/><path fill="#b01e40" d="M158.295 54.704h2.917v8.098h-2.917z"/><path fill="#f69a83" d="M149.83 37.489h11.382v8.098H149.83z"/><path fill="#cbc9b4" d="M107.259 46.096h-4.078v8.153h8.154v-8.153h-4.076z"/><path fill="#f69a83" d="M157.305 31.034h2.208v2.096h-2.208z"/><text transform="translate(94.566 33.225)" font-size="2.944" fill="#fff" font-family="Segoe-Light, Segoe Light">S<tspan x="1.451" y="0" letter-spacing=".024em">t</tspan><tspan x="2.495" y="0" letter-spacing=".015em">a</tspan><tspan x="3.959" y="0" letter-spacing=".043em">r</tspan><tspan x="5.05" y="0">t</tspan></text><text transform="translate(153.114 32.013)" font-size="1.518" fill="#fff" font-family="Segoe-Light, Segoe Light" letter-spacing=".018em">J<tspan x=".589" y="0" letter-spacing=".014em">u</tspan><tspan x="1.446" y="0" letter-spacing=".025em">s</tspan><tspan x="2.085" y="0" letter-spacing=".014em">ti</tspan><tspan x="2.984" y="0" letter-spacing=".001em">n</tspan></text><path d="M170.828 78.778c-.1 0-.2.006-.3.006a21.152 21.152 0 00-42.146-2.344 14.651 14.651 0 10-11.5 23.727h53.947a10.695 10.695 0 000-21.389zM46.735 81.181a9.26 9.26 0 00-.95.049A9.2 9.2 0 1028.4 76.065a9.2 9.2 0 00-16.017 5.682A9.2 9.2 0 109.2 99.581h37.535a9.2 9.2 0 000-18.4z" fill="#00abec" opacity=".23"/></svg>