<svg xmlns="http://www.w3.org/2000/svg" viewBox="0 0 48 48"><path d="M23.979 1.457c-12.487 0-22.607 10.12-22.607 22.606 0 12.486 10.12 22.607 22.607 22.607 12.486 0 22.606-10.12 22.606-22.607 0-12.486-10.12-22.606-22.606-22.606z" fill="#50E6FF"/><path d="M35.286 24.064c0 3.023-1.178 5.86-3.317 7.999a11.235 11.235 0 01-7.998 3.317c-3.023 0-5.86-1.178-7.999-3.317a11.234 11.234 0 01-3.317-7.999c0-3.022 1.178-5.86 3.317-7.998a11.235 11.235 0 017.999-3.317c1.709 0 3.359.378 4.858 1.086l1.869-1.87a13.772 13.772 0 00-6.727-1.742c-7.645 0-13.834 6.196-13.834 13.833 0 7.637 6.197 13.842 13.842 13.842 7.645 0 13.833-6.197 13.833-13.834 0-2.45-.64-4.74-1.75-6.735L34.2 19.198a11.274 11.274 0 011.086 4.866z" fill="#0078D4"/><path d="M43.664 15.744a21.279 21.279 0 011.676 8.318 21.28 21.28 0 01-1.676 8.319A21.45 21.45 0 0132.29 43.755a21.279 21.279 0 01-8.318 1.676 21.28 21.28 0 01-8.319-1.675A21.451 21.451 0 014.277 32.38a21.28 21.28 0 01-1.675-8.319c0-2.888.564-5.683 1.675-8.318a21.452 21.452 0 014.58-6.795 21.7 21.7 0 016.804-4.572 21.28 21.28 0 018.318-1.675 21.28 21.28 0 0112.528 4.05V3.72A23.777 23.777 0 0023.98.176C10.786.176.093 10.869.093 24.062c0 13.194 10.693 23.887 23.886 23.887 13.194 0 23.886-10.693 23.886-23.887a23.77 23.77 0 00-3.57-12.57h-3.039a21.602 21.602 0 012.408 4.252z" fill="#0078D4"/><path d="M44.396 3.602l.017-3.586-5.38 5.38-.008 1.818-14.339 14.347a2.63 2.63 0 00-.69-.092 2.522 2.522 0 00-2.526 2.526 2.523 2.523 0 002.526 2.525 2.523 2.523 0 002.526-2.525c0-.22-.026-.421-.076-.623l14.38-14.398 1.768-.008 5.38-5.38-3.578.016z" fill="#0078D4"/></svg>