<svg xmlns="http://www.w3.org/2000/svg" viewBox="0 0 50 50"><path d="M20.325.871H15.21v5.117h5.116V.87z" fill="#0078D4"/><path d="M27.574.871h-5.117v5.117h5.117V.87z" fill="#50E6FF"/><path d="M27.574 8.117h-5.117v5.117h5.117V8.117z" fill="#0078D4"/><path d="M34.822 8.117h-5.116v5.117h5.116V8.117z" fill="#50E6FF"/><path d="M34.822 15.367h-5.116v5.117h5.116v-5.117z" fill="#0078D4"/><path d="M42.07 15.367h-5.116v5.117h5.117v-5.117z" fill="#50E6FF"/><path d="M5.828 22.617H.711v5.117h5.117v-5.117zM13.077 22.617H7.96v5.117h5.117v-5.117zM20.325 22.617H15.21v5.117h5.116v-5.117zM25.015 27.734a2.555 2.555 0 01-2.558-2.559 2.555 2.555 0 012.558-2.558 2.555 2.555 0 012.559 2.558 2.566 2.566 0 01-2.559 2.559zM34.822 22.617h-5.116v5.117h5.116v-5.117zM42.07 22.617h-5.116v5.117h5.117v-5.117z" fill="#0078D4"/><path d="M49.319 22.617h-5.117v5.117h5.117v-5.117z" fill="#50E6FF"/><path d="M34.822 29.867h-5.116v5.117h5.116v-5.117z" fill="#0078D4"/><path d="M39.512 34.984a2.555 2.555 0 01-2.558-2.559 2.555 2.555 0 012.558-2.558 2.555 2.555 0 012.559 2.558 2.566 2.566 0 01-2.559 2.559z" fill="#50E6FF"/><path d="M25.015 42.23a2.555 2.555 0 01-2.558-2.558 2.555 2.555 0 012.558-2.559 2.555 2.555 0 012.559 2.559 2.566 2.566 0 01-2.559 2.558z" fill="#0078D4"/><path d="M34.822 37.113h-5.116v5.117h5.116v-5.117z" fill="#50E6FF"/><path d="M20.325 44.363H15.21v5.117h5.116v-5.117z" fill="#0078D4"/><path d="M27.574 44.363h-5.117v5.117h5.117v-5.117z" fill="#50E6FF"/></svg>