<svg xmlns="http://www.w3.org/2000/svg" viewBox="0 0 49 49"><path d="M39.772 34.242l-1.765 1.765 4.104 4.104H35.9a19.775 19.775 0 01-3.829 2.497h10.122l-4.187 4.187 1.765 1.764 7.158-7.158-7.158-7.159zM7.809 24.73c0-3.254 1.015-6.268 2.747-8.756l-1.798-1.798A17.736 17.736 0 005.312 24.73c0 4.778 1.856 9.265 5.235 12.644.383.383.783.75 1.19 1.09h4.529c-5.011-2.538-8.457-7.74-8.457-13.734z" fill="#0078D4"/><path d="M23.182 40.111s-.008 0 0 0H1.915v2.497h21.276-.009c9.823-.033 17.772-8.09 17.772-17.921 0-9.83-7.958-17.805-17.78-17.838h0-12.577l4.053-4.054-1.773-1.756L5.72 8.198l4.37 4.37 2.788 2.788 1.765-1.765-2.73-2.73-1.507-1.506h12.769c8.457.033 15.3 6.867 15.3 15.332s-6.843 15.39-15.292 15.424z" fill="#50E6FF"/></svg>