<svg xmlns="http://www.w3.org/2000/svg" viewBox="0 0 48 48"><path d="M42.858 30.949h-25.15a.313.313 0 01-.312-.313V5.556a.313.313 0 01.313-.314h25.149a.313.313 0 01.326.313v25.081a.312.312 0 01-.326.313zm-24.836-.626h24.482V5.841H18.022v24.482z" fill="#50E6FF"/><path d="M30.29 43.53H5.196a.326.326 0 01-.327-.312V18.055a.326.326 0 01.327-.258H30.29a.313.313 0 01.313.313v25.162a.313.313 0 01-.313.259zm-24.836-.625h24.482V18.423H5.454v24.482z" fill="#50E6FF"/><path d="M5.196 18.382a.38.38 0 01-.232-.095.326.326 0 010-.449L17.437 5.257a.317.317 0 01.449.449L5.304 18.287a.38.38 0 01-.108.095zm25.094 0a.38.38 0 01-.23-.095.326.326 0 010-.449L42.64 5.257a.317.317 0 11.45.449L30.507 18.287a.326.326 0 01-.218.095zM5.196 43.533a.38.38 0 01-.232-.095.326.326 0 010-.449l12.473-12.568a.326.326 0 01.449 0 .301.301 0 01.069.337.3.3 0 01-.07.099l-12.58 12.58a.38.38 0 01-.11.096zm25.094 0a.38.38 0 01-.23-.095.326.326 0 010-.449l12.58-12.568a.326.326 0 01.45 0 .3.3 0 010 .436l-12.582 12.58a.326.326 0 01-.218.096z" fill="#50E6FF"/><path d="M5.141 8.318a2.83 2.83 0 100-5.658 2.83 2.83 0 000 5.658z" fill="#fff"/><path d="M5.196 8.631a3.142 3.142 0 113.087-3.074 3.155 3.155 0 01-3.087 3.074zm0-5.658a2.516 2.516 0 10-.135 5.03 2.516 2.516 0 00.135-5.03z" fill="#50E6FF"/><path d="M5.141 20.885a2.83 2.83 0 100-5.658 2.83 2.83 0 000 5.658z" fill="#fff"/><path d="M5.195 21.213a3.155 3.155 0 11-.027-6.31 3.155 3.155 0 01.027 6.31zm0-5.671a2.516 2.516 0 10-.027 5.033 2.516 2.516 0 00.027-5.033z" fill="#50E6FF"/><path d="M17.709 20.885a2.83 2.83 0 100-5.658 2.83 2.83 0 000 5.658z" fill="#fff"/><path d="M17.71 21.213a3.156 3.156 0 11-.028-6.31 3.156 3.156 0 01.027 6.31zm0-5.671a2.516 2.516 0 10-.001 5.032 2.516 2.516 0 000-5.032z" fill="#50E6FF"/><path d="M5.141 33.467a2.829 2.829 0 100-5.658 2.829 2.829 0 000 5.658z" fill="#fff"/><path d="M5.196 33.776a3.142 3.142 0 113.141-3.142 3.156 3.156 0 01-3.141 3.142zm0-5.658a2.517 2.517 0 10-.027 5.033 2.517 2.517 0 00.027-5.033z" fill="#50E6FF"/><path d="M30.29 33.467a2.83 2.83 0 100-5.659 2.83 2.83 0 000 5.659z" fill="#fff"/><path d="M30.29 33.776a3.142 3.142 0 110-6.284 3.142 3.142 0 010 6.284zm0-5.658a2.516 2.516 0 100 5.032 2.516 2.516 0 000-5.032z" fill="#50E6FF"/><path d="M17.709 46.049a2.829 2.829 0 100-5.658 2.829 2.829 0 000 5.658z" fill="#fff"/><path d="M17.71 46.358a3.155 3.155 0 11-.028-6.311 3.155 3.155 0 01.027 6.31zm0-5.658a2.516 2.516 0 100 5.032 2.516 2.516 0 000-5.032z" fill="#50E6FF"/><path d="M30.29 46.049a2.83 2.83 0 100-5.659 2.83 2.83 0 000 5.659z" fill="#fff"/><path d="M30.29 46.358a3.155 3.155 0 113.142-3.142 3.142 3.142 0 01-3.142 3.142zm0-5.658a2.516 2.516 0 100 5.032 2.516 2.516 0 000-5.032z" fill="#50E6FF"/><path d="M42.857 46.049a2.829 2.829 0 100-5.658 2.829 2.829 0 000 5.658z" fill="#fff"/><path d="M42.858 46.358a3.155 3.155 0 11-.028-6.311 3.155 3.155 0 01.028 6.31zm0-5.658a2.516 2.516 0 100 5.032 2.516 2.516 0 000-5.032zm1.836-10.116h-3.482V7.394H17.519V3.898h27.175v26.686z" fill="#50E6FF"/><path d="M41.473 4.16L3.821 41.812l2.472 2.472L43.945 6.632 41.473 4.16z" fill="#50E6FF"/><path d="M17.709 8.318a2.83 2.83 0 100-5.658 2.83 2.83 0 000 5.658z" fill="#0078D4"/><path d="M17.709 8.631a3.142 3.142 0 113.142-3.073 3.155 3.155 0 01-3.142 3.073zm0-5.658a2.516 2.516 0 10.002 5.033 2.516 2.516 0 00-.002-5.033zM30.29 8.318a2.83 2.83 0 100-5.658 2.83 2.83 0 000 5.658z" fill="#0078D4"/><path d="M30.29 8.631a3.142 3.142 0 11.001-6.283 3.142 3.142 0 010 6.283zm0-5.658a2.516 2.516 0 10.002 5.033 2.516 2.516 0 00-.002-5.033zm12.567 5.345a2.829 2.829 0 100-5.658 2.829 2.829 0 000 5.658z" fill="#0078D4"/><path d="M42.858 8.631a3.142 3.142 0 113.141-3.073 3.155 3.155 0 01-3.142 3.073zm0-5.658a2.516 2.516 0 10.001 5.033 2.516 2.516 0 00-.002-5.033zM30.29 20.885a2.83 2.83 0 100-5.659 2.83 2.83 0 000 5.659z" fill="#0078D4"/><path d="M30.29 21.213a3.155 3.155 0 113.142-3.155 3.141 3.141 0 01-3.142 3.155zm0-5.671a2.516 2.516 0 100 5.032 2.516 2.516 0 000-5.032zm12.567 5.343a2.829 2.829 0 100-5.658 2.829 2.829 0 000 5.658z" fill="#0078D4"/><path d="M42.858 21.213a3.155 3.155 0 11-.028-6.31 3.155 3.155 0 01.028 6.31zm0-5.671a2.516 2.516 0 100 5.032 2.516 2.516 0 000-5.032zM17.709 33.467a2.829 2.829 0 100-5.658 2.829 2.829 0 000 5.658z" fill="#0078D4"/><path d="M17.71 33.776a3.142 3.142 0 113.141-3.142 3.156 3.156 0 01-3.142 3.142zm0-5.658a2.516 2.516 0 100 5.032 2.516 2.516 0 000-5.032zm25.147 5.349a2.829 2.829 0 100-5.658 2.829 2.829 0 000 5.658z" fill="#0078D4"/><path d="M42.858 33.776A3.142 3.142 0 1146 30.634a3.155 3.155 0 01-3.142 3.142zm0-5.658a2.516 2.516 0 100 5.032 2.516 2.516 0 000-5.032zM5.141 46.049a2.829 2.829 0 100-5.658 2.829 2.829 0 000 5.658z" fill="#0078D4"/><path d="M5.196 46.358a3.142 3.142 0 113.141-3.142 3.155 3.155 0 01-3.141 3.142zm0-5.658a2.517 2.517 0 100 5.034 2.517 2.517 0 000-5.034z" fill="#0078D4"/></svg>