<svg xmlns="http://www.w3.org/2000/svg" viewBox="0 0 34 34"><g fill="none" fill-rule="evenodd"><path d="M31.227 17.337c0 8.488-6.881 15.369-15.37 15.369C7.372 32.706.49 25.825.49 17.336.49 8.85 7.37 1.97 15.858 1.97s15.369 6.88 15.369 15.368" fill="#FFF"/><path d="M15.847 33.34c-4.231 0-8.192-1.642-11.204-4.656C1.516 25.553-.13 21.389.008 16.957.274 8.514 7.367 1.623 15.82 1.596c2.777 0 5.466.704 7.829 2.035a.5.5 0 11-.49.87 14.875 14.875 0 00-7.288-1.905C7.903 2.62 1.256 9.078 1.008 16.988.878 21.14 2.42 25.043 5.35 27.977c2.936 2.939 6.82 4.468 10.982 4.355 3.826-.115 7.424-1.7 10.135-4.461 2.71-2.76 4.23-6.388 4.276-10.216a14.872 14.872 0 00-1.792-7.265.5.5 0 01.878-.477 15.866 15.866 0 011.914 7.754c-.05 4.087-1.67 7.959-4.563 10.905-2.892 2.947-6.733 4.637-10.817 4.76-.172.005-.344.008-.516.008" fill="#0078D4"/><path d="M15.89 26.52a9.084 9.084 0 01-6.276-2.51 9.07 9.07 0 01-2.79-6.862c.157-4.579 3.857-8.406 8.423-8.714a9.242 9.242 0 014.658.909.5.5 0 01-.438.899 8.274 8.274 0 00-4.154-.81c-4.06.272-7.35 3.678-7.49 7.751a8.071 8.071 0 002.482 6.105 8.063 8.063 0 006.222 2.209c3.878-.306 7.046-3.46 7.37-7.337a8.102 8.102 0 00-.728-4.104.5.5 0 01.907-.423 9.106 9.106 0 01.818 4.611c-.364 4.36-3.93 7.905-8.29 8.248a8.986 8.986 0 01-.713.028" fill="#0078D4"/><path d="M23.673 6.423L23.68 8.5l-8.046 8.047c-.424-.234 1.694 1.43 1.51 1.045l7.834-7.835 2.051.024c.287.003.563-.11.765-.312l5.625-5.625a.139.139 0 00-.097-.237l-3.165-.037a.3.3 0 01-.298-.3l-.01-3.131A.14.14 0 0029.61.04l-5.625 5.626c-.201.2-.313.473-.312.756" fill="#0078D4"/><path d="M17.857 17.455a1.987 1.987 0 11-3.974 0 1.987 1.987 0 013.974 0" fill="#0078D4"/></g></svg>