<svg xmlns="http://www.w3.org/2000/svg" viewBox="0 0 49 49"><path d="M23.998 1.969c-12.486 0-22.606 10.12-22.606 22.606 0 12.487 10.12 22.607 22.606 22.607 12.486 0 22.607-10.12 22.607-22.607 0-12.486-10.12-22.606-22.607-22.606z" fill="#50E6FF"/><path d="M35.306 24.576c0 3.023-1.179 5.86-3.317 7.999a11.235 11.235 0 01-7.999 3.317c-3.022 0-5.86-1.179-7.998-3.317a11.235 11.235 0 01-3.318-7.999c0-3.023 1.179-5.86 3.318-7.998a11.235 11.235 0 017.998-3.318c1.71 0 3.36.38 4.858 1.086l1.87-1.869a13.771 13.771 0 00-6.728-1.743c-7.645 0-13.833 6.197-13.833 13.834 0 7.636 6.197 13.841 13.841 13.841 7.645 0 13.834-6.196 13.834-13.833 0-2.45-.64-4.74-1.751-6.736l-1.861 1.87a11.273 11.273 0 011.086 4.866z" fill="#0078D4"/><path d="M43.684 16.255a21.279 21.279 0 011.675 8.319c0 2.888-.564 5.683-1.675 8.318a21.452 21.452 0 01-11.375 11.375 21.28 21.28 0 01-8.319 1.676c-2.888 0-5.683-.564-8.318-1.676A21.453 21.453 0 014.297 32.892a21.28 21.28 0 01-1.676-8.318c0-2.888.564-5.683 1.676-8.319a21.452 21.452 0 014.58-6.794 21.7 21.7 0 016.803-4.572A21.279 21.279 0 0124 3.213a21.279 21.279 0 0112.528 4.05v-3.03A23.777 23.777 0 0023.999.687C10.805.688.112 11.38.112 24.573.112 37.767 10.805 48.46 24 48.46c13.193 0 23.886-10.693 23.886-23.886a23.77 23.77 0 00-3.57-12.57h-3.04a21.602 21.602 0 012.409 4.251z" fill="#0078D4"/><path d="M44.416 4.114l.017-3.587-5.38 5.38-.009 1.82-14.338 14.346a2.63 2.63 0 00-.69-.093 2.522 2.522 0 00-2.527 2.526 2.523 2.523 0 002.526 2.526 2.523 2.523 0 002.526-2.526c0-.219-.025-.42-.076-.623l14.38-14.397 1.769-.009 5.38-5.38-3.578.017z" fill="#0078D4"/></svg>