<svg xmlns="http://www.w3.org/2000/svg" viewBox="0 0 50 50"><path d="M45.728 36.744H31.87l-16.859-26.01H3.158c-.708 0-1.28.572-1.28 1.28 0 .707.572 1.279 1.28 1.279H13.62l16.86 26.01h15.238c.708 0 1.28-.572 1.28-1.28a1.27 1.27 0 00-1.271-1.28z" fill="#0078D4"/><path d="M47.732 38.862l-5.262 4.222c-.742.597-1.842.068-1.842-.887v-8.434c0-.947 1.1-1.475 1.842-.887l5.253 4.221c.572.452.572 1.313.009 1.765z" fill="#0078D4"/><path d="M47.732 12.956l-5.253 4.221c-.742.597-1.842.069-1.842-.886V7.857c0-.947 1.1-1.476 1.842-.887l5.253 4.221a1.134 1.134 0 010 1.765zM12.47 36.493H3.192c-.69 0-1.279.528-1.313 1.219a1.28 1.28 0 001.279 1.339h10.83c.64 0 1.237-.324 1.578-.861l6.319-9.79-1.518-2.345-6.123 9.474a2.096 2.096 0 01-1.774.964z" fill="#50E6FF"/><path d="M33.03 12.957h12.663c.691 0 1.28-.529 1.314-1.22a1.28 1.28 0 00-1.28-1.339H31.504c-.64 0-1.236.325-1.577.862L23.41 21.34l1.526 2.353 6.31-9.773a2.13 2.13 0 011.783-.963z" fill="#50E6FF"/></svg>