<svg xmlns="http://www.w3.org/2000/svg" viewBox="0 0 49 49"><path d="M31.349 18.418H18.814v12.535h12.535V18.418z" fill="#0078D4"/><path d="M48.757.91V.903h-9.962v2.466h5.68l-11.61 11.61 1.74 1.741L46.3 5.025v5.872h2.465V.911h-.008zM48.715 48.384h.009v-9.962h-2.466v5.681l-11.61-11.61-1.741 1.74L44.6 45.927h-5.864v2.465h9.978v-.008zM1.24 48.387v.008h9.97V45.93H5.52l11.611-11.611-1.74-1.74L3.695 44.271v-5.864H1.231v9.979h.008zM1.28.91h-.008v9.97h2.466V5.193l11.61 11.61 1.742-1.74L5.395 3.368h5.872V.902H1.281v.009z" fill="#50E6FF"/></svg>