<svg xmlns="http://www.w3.org/2000/svg" viewBox="0 0 16.5 24"><path d="M16.5 12v4.242a4.615 4.615 0 01-.375 1.852 4.777 4.777 0 01-2.531 2.531 4.615 4.615 0 01-1.852.375H9v1.5h3V24H4.5v-1.5h3V21H4.758a4.615 4.615 0 01-1.852-.375 4.777 4.777 0 01-2.531-2.531A4.615 4.615 0 010 16.242V12h1.5q0 .645-.041 1.453T1.441 15.1a11.624 11.624 0 00.159 1.629 4.091 4.091 0 00.5 1.406 2.768 2.768 0 001 .99 3.247 3.247 0 001.658.375h6.984a3.247 3.247 0 001.658-.375 2.768 2.768 0 001-.99 4.091 4.091 0 00.5-1.406 11.624 11.624 0 00.158-1.629q.023-.838-.018-1.641T15 12zM5.25 18a2.207 2.207 0 01-.879-.176 2.238 2.238 0 01-1.2-1.2A2.207 2.207 0 013 15.75V2.25a2.207 2.207 0 01.176-.879 2.238 2.238 0 011.2-1.2A2.207 2.207 0 015.25 0h6a2.207 2.207 0 01.879.176 2.238 2.238 0 011.2 1.2 2.207 2.207 0 01.176.879v13.5a2.207 2.207 0 01-.176.879 2.238 2.238 0 01-1.2 1.2 2.207 2.207 0 01-.879.166zm-.75-2.25a.76.76 0 00.75.75h6a.76.76 0 00.75-.75V2.25a.721.721 0 00-.223-.527.721.721 0 00-.527-.223h-6a.721.721 0 00-.527.223.721.721 0 00-.223.527z"/></svg>