<svg xmlns="http://www.w3.org/2000/svg" viewBox="0 0 53 53"><path fill-rule="evenodd" clip-rule="evenodd" d="M40.483 27.088l-25.3-19.26L16.7 5.84l25.299 19.259-1.515 1.989zM26.12 42.698L4.81 15.12l1.978-1.528 21.31 27.578-1.978 1.528z" fill="#0078D4"/><path fill-rule="evenodd" clip-rule="evenodd" d="M38.392 51.664c-7.313 0-13.262-5.95-13.262-13.261 0-7.313 5.95-13.262 13.262-13.262s13.262 5.949 13.262 13.262c0 7.312-5.95 13.26-13.262 13.26z" fill="#fff"/><path fill-rule="evenodd" clip-rule="evenodd" d="M38.392 23.89c-8.002 0-14.512 6.51-14.512 14.513 0 8 6.51 14.51 14.512 14.51 8.001 0 14.512-6.51 14.512-14.51 0-8.002-6.51-14.512-14.512-14.512zm0 2.5c6.634 0 12.012 5.378 12.012 12.013 0 6.634-5.378 12.01-12.012 12.01S26.38 45.038 26.38 38.404c0-6.635 5.378-12.012 12.012-12.012z" fill="#0078D4"/><path fill-rule="evenodd" clip-rule="evenodd" d="M9.363 17.477c-4.474 0-8.113-3.64-8.113-8.113 0-4.474 3.639-8.114 8.113-8.114s8.113 3.64 8.113 8.114c0 4.473-3.639 8.113-8.113 8.113z" fill="#fff"/><path fill-rule="evenodd" clip-rule="evenodd" d="M9.363 0C4.2 0 0 4.2 0 9.363c0 5.163 4.2 9.364 9.363 9.364 5.163 0 9.363-4.201 9.363-9.364C18.726 4.2 14.526 0 9.363 0zm0 2.5a6.863 6.863 0 016.863 6.863 6.863 6.863 0 11-13.726 0A6.863 6.863 0 019.363 2.5z" fill="#0078D4"/></svg>