<svg xmlns="http://www.w3.org/2000/svg" viewBox="0 0 211 155"><path d="M83.207 110.588H47.894v8.882h35.313v-8.882z"/><path d="M162.885 39.971c-2.922 0-5.774.307-8.559.809C145.789 17.015 123.236 0 96.672 0c-33.89 0-61.359 27.638-61.359 61.733 0 1.924.115 3.824.287 5.703C15.326 71.353 0 89.27 0 110.81c0 24.33 19.546 44.058 43.7 44.182V155h39.508v-8.883H43.714l-.013-.013c-19.246-.12-34.873-15.904-34.873-35.295 0-16.894 11.959-31.47 28.437-34.65l7.857-1.52-.733-8.016a53.79 53.79 0 01-.247-4.89c0-29.143 23.563-52.85 52.53-52.85 22.013 0 41.846 14.03 49.351 34.912l2.529 7.04 7.328-1.32c2.498-.448 4.789-.666 7.005-.666 21.661 0 39.287 17.734 39.287 39.528 0 22.042-17.626 39.971-39.287 39.971H48.115v8.883h114.77c26.574 0 48.115-22.118 48.115-48.854 0-26.737-21.541-48.406-48.115-48.406z"/></svg>