<svg xmlns="http://www.w3.org/2000/svg" viewBox="0 0 170 169"><path d="M160.764 98.328H10.069a7.316 7.316 0 00-7.328 7.347v47.556a7.317 7.317 0 007.328 7.348h150.695a7.317 7.317 0 007.329-7.348v-47.556c.066-4.074-3.265-7.347-7.329-7.347z" fill="#3E3E3E"/><path opacity=".2" d="M130.985 98.328H10.069a7.316 7.316 0 00-7.328 7.347v47.556a7.317 7.317 0 007.328 7.348h28.314l92.602-62.25z" fill="#fff"/><path d="M154.902 110.818h-9.927v9.952h9.927v-9.952zm-19.853 0h-9.926v9.952h9.926v-9.952zm-19.853 0h-9.926v9.952h9.926v-9.952z" fill="#B8D432"/><path d="M118.194 42.824c0-19.036-15.389-34.465-34.376-34.465S49.375 23.788 49.375 42.824c0 16.163 11.126 29.722 26.115 33.463v41.144H58.97v16.564h16.52v13.292h16.522v-71c15.057-3.74 26.182-17.233 26.182-33.463zm-34.443 18.1c-9.926 0-18.054-8.081-18.054-18.1 0-10.02 8.061-18.101 18.054-18.101 9.993 0 18.055 8.082 18.055 18.1 0 10.02-8.061 18.101-18.055 18.101z" fill="#FCD116"/></svg>