<svg xmlns="http://www.w3.org/2000/svg" viewBox="0 0 24 24"><path d="M9.36 4.848c.432-2.736 2.784-4.8 5.664-4.8 3.168 0 5.712 2.592 5.712 5.76 0 .384-.048.72-.096 1.056 1.872.192 3.312 1.92 3.312 3.984 0 2.208-1.68 4.032-3.696 4.032H9.696c-2.688 0-4.896-2.304-4.896-5.088.048-2.592 2.064-4.704 4.56-4.944z" fill="#59B4D9"/><path d="M19.68 10.56a.963.963 0 00-.96-.96h-5.28a.948.948 0 00-.48.134.948.948 0 00-.48-.134H7.2a.948.948 0 00-.48.134.948.948 0 00-.48-.134H.96a.963.963 0 00-.96.96v2.4c0 .175.05.338.134.48a.948.948 0 00-.134.48v2.4c0 .175.05.338.134.48a.948.948 0 00-.134.48v2.4c0 .175.05.338.134.48a.948.948 0 00-.134.48v2.4c0 .528.432.96.96.96h5.28c.175 0 .338-.05.48-.134A.947.947 0 007.2 24h5.28c.175 0 .338-.05.48-.134a.947.947 0 00.48.134h5.28c.528 0 .96-.432.96-.96v-2.4a.948.948 0 00-.134-.48.948.948 0 00.134-.48v-2.4a.948.948 0 00-.134-.48.948.948 0 00.134-.48v-2.4a.948.948 0 00-.134-.48.948.948 0 00.134-.48v-2.4z" fill="#A0A1A2"/><path d="M7.2 10.56h5.28v2.4H7.2v-2.4z" fill="#DD5900"/><path d="M13.44 10.56h5.28v2.4h-5.28v-2.4zm-12.48 0h5.28v2.4H.96v-2.4zm6.24 3.36h5.28v2.4H7.2v-2.4z" fill="#BA141A"/><path d="M.96 17.28h5.28v2.4H.96v-2.4z" fill="#DD5900"/><path d="M.96 13.92h5.28v2.4H.96v-2.4zm6.24 6.72h5.28v2.4H7.2v-2.4zm6.24-3.36h5.28v2.4h-5.28v-2.4zm0-3.36h5.28v2.4h-5.28v-2.4zM7.2 17.28h5.28v2.4H7.2v-2.4z" fill="#BA141A"/><path d="M13.44 20.64h5.28v2.4h-5.28v-2.4z" fill="#DD5900"/><path d="M.96 20.64h5.28v2.4H.96v-2.4z" fill="#BA141A"/></svg>