<svg xmlns="http://www.w3.org/2000/svg" viewBox="0 0 193 115"><path fill-rule="evenodd" clip-rule="evenodd" d="M163.884 57.025c-4.285 0-8.341.945-12.005 2.6 1.828-4.832 2.874-10.045 2.874-15.515 0-24.361-19.836-44.11-44.306-44.11-21.107 0-38.734 14.709-43.19 34.383-4.38-4.507-10.508-7.319-17.304-7.319-13.31 0-24.1 10.742-24.1 23.993 0 .202.026.396.03.597C11.132 54.546 0 67.484 0 83.02 0 100.684 14.38 115 32.12 115h131.764C179.964 115 193 102.023 193 86.013c0-16.01-13.036-28.988-29.116-28.988" fill="#fff"/><path fill-rule="evenodd" clip-rule="evenodd" d="M95.44 67.003l19.53 23.285L77 97h62l-33.394-58L95.44 67.003zM79.757 55.222L59 90.943h18.715V91L104 35 79.757 55.222z" fill="#0078D4"/></svg>