<svg xmlns="http://www.w3.org/2000/svg" viewBox="0 0 49 49"><path d="M10.54 28.16H.545v20.062h9.993V28.159z" fill="#50E6FF"/><path d="M48.199 13.144h-9.994v35.069H48.2v-35.07z" fill="#0078D4"/><path d="M23.14 23.124h-9.994v25.093h9.994V23.124z" fill="#50E6FF"/><path d="M35.665 10.648h-9.993v37.567h9.993V10.647zM9.378 12.62l1.997 1.997-6.534 6.534-1.997-1.997 6.534-6.534z" fill="#0078D4"/><path d="M13.456 2.542a7.138 7.138 0 017.135 7.136 7.132 7.132 0 01-7.136 7.136A7.132 7.132 0 016.32 9.678a7.132 7.132 0 017.136-7.136zm0 11.43a4.285 4.285 0 004.286-4.286A4.285 4.285 0 0013.455 5.4 4.29 4.29 0 009.17 9.686a4.285 4.285 0 004.287 4.287z" fill="#0078D4"/></svg>