<svg xmlns="http://www.w3.org/2000/svg" viewBox="0 0 43 48"><path d="M42 37.5h-4.5V48H42V37.5zM34.5 30H30v18h4.5V30zM27 22.5h-4.5V48H27V22.5zM19.5 15H15v33h4.5V15zM12 7.5H7.5V48H12V7.5zM4.5 0H0v48h4.5V0z" fill="#0078D4"/><path d="M42 15.446a4.383 4.383 0 01-1.297 3.304c-.863.835-2.123 1.349-3.78 1.541v2.959H35.11v-2.876a10.19 10.19 0 01-4.691-1.125V15.79a7.25 7.25 0 002.141 1.061c.82.308 1.678.508 2.55.593v-4.523c-1.83-.675-3.123-1.42-3.885-2.227A4.448 4.448 0 0130.1 7.51a4.469 4.469 0 011.4-3.332 5.906 5.906 0 013.626-1.583V0h1.812v2.546c1.75.083 3.053.364 3.91.844v3.36a9.498 9.498 0 00-3.91-1.29v4.695c1.83.665 3.133 1.415 3.91 2.25A4.283 4.283 0 0142 15.446zm-6.889-6V5.501c-1.15.208-1.725.808-1.725 1.8-.011.87.574 1.579 1.725 2.134v.011zM38.7 15.63c0-.803-.593-1.465-1.778-1.988v3.75c1.186-.187 1.778-.778 1.778-1.773v.011z" fill="#50E6FF"/></svg>