<svg xmlns="http://www.w3.org/2000/svg" viewBox="0 0 61 61"><path d="M32.813 21.625a7.338 7.338 0 00-7.34 7.34c0 1.628.514 3.113 1.428 4.341l-5.198 5.198 1.4 1.4 5.169-5.142a7.238 7.238 0 004.54 1.571 7.338 7.338 0 007.34-7.34c0-4.084-3.284-7.368-7.34-7.368zm0 12.595a5.229 5.229 0 01-5.227-5.227 5.229 5.229 0 015.227-5.226 5.229 5.229 0 015.226 5.226 5.229 5.229 0 01-5.226 5.227zM15.421 46.16v-4.713h-2v6.712h6.97v-2h-4.97zm0-30.503h4.97v-2.17h-6.97v6.768h2v-4.598zM46.099 46.16H41.3v1.999h6.797v-6.712h-2v4.713zm0-30.503v4.598h1.999v-6.769h-6.797v2.17h4.798z" fill="#0078D4"/></svg>