<svg xmlns="http://www.w3.org/2000/svg" viewBox="0 0 61 61"><path d="M24.921 29.162a7.116 7.116 0 00-7.119 7.12c0 1.445.428 2.783 1.178 3.907l-5.62 5.567 1.98 1.98 5.567-5.567c1.124.75 2.462 1.178 3.96 1.178a7.116 7.116 0 007.12-7.12 7.025 7.025 0 00-7.066-7.065zm0 11.509c-2.408 0-4.389-1.98-4.389-4.39 0-2.408 1.98-4.389 4.39-4.389 2.408 0 4.389 1.98 4.389 4.39 0 2.408-1.98 4.389-4.39 4.389zm23.711-26.765H19.566v2.73h29.066v-2.73zm0 7.922H19.566v2.73h29.066v-2.73zm-.002 7.922H32.465c.696.803 1.284 1.713 1.66 2.73H48.63v-2.73zm.002 10.706v-2.73H34.767a11.5 11.5 0 01-.803 2.73H48.63z" fill="#0078D4"/></svg>