<svg xmlns="http://www.w3.org/2000/svg" viewBox="0 0 61 61"><path d="M34.51 13.174c-7.28 0-13.145 5.92-13.145 13.2 0 3.313 1.249 6.354 3.259 8.69L14.086 45.547l2.01 2.01 10.592-10.592c2.172 1.63 4.888 2.553 7.822 2.553 7.278 0 13.199-5.92 13.199-13.2 0-7.224-5.92-13.144-13.2-13.144zm0 23.628c-5.758 0-10.43-4.671-10.43-10.429 0-5.812 4.672-10.483 10.43-10.483 5.757 0 10.429 4.671 10.429 10.429.054 5.812-4.617 10.483-10.43 10.483z" fill="#0078D4"/><path d="M41.411 25.177h-.543c-.543 0-.977-.325-1.195-.76-.054-.109-.108-.272-.163-.38-.217-.435-.108-.978.272-1.358l.434-.435c.11-.108.11-.326 0-.489l-1.14-1.14c-.109-.109-.326-.109-.49 0l-.434.434c-.38.38-.923.49-1.358.272-.108-.055-.271-.109-.38-.163-.489-.163-.76-.652-.76-1.195v-.543a.35.35 0 00-.326-.326h-1.63a.35.35 0 00-.326.326v.543c0 .543-.326.978-.76 1.195-.109.054-.272.108-.38.163-.435.217-.978.108-1.358-.272l-.49-.434c-.108-.109-.325-.109-.488 0l-1.14 1.14c-.11.109-.11.326 0 .49l.434.434c.38.38.489.923.271 1.358-.054.108-.108.271-.162.38-.163.489-.652.76-1.195.76h-.544a.35.35 0 00-.326.326v1.63a.35.35 0 00.326.326h.544c.543 0 .977.326 1.195.76.054.109.108.272.162.38.218.435.11.978-.271 1.358l-.435.435c-.108.109-.108.326 0 .489l1.141 1.14c.109.11.326.11.489 0l.434-.434c.38-.38.924-.489 1.358-.272.109.055.272.109.38.163.49.163.761.652.761 1.195v.544a.35.35 0 00.326.325h1.63a.35.35 0 00.325-.325v-.544c0-.543.326-.977.76-1.195.11-.054.272-.108.381-.163.435-.217.978-.108 1.358.272l.435.435c.108.108.325.108.488 0l1.141-1.141c.109-.109.109-.326 0-.49l-.38-.38c-.38-.38-.489-.923-.272-1.357.055-.109.109-.272.163-.38.163-.49.652-.76 1.195-.76h.543a.35.35 0 00.326-.327v-1.63c0-.217-.163-.38-.326-.38zm-6.952 4.129c-1.63 0-2.988-1.358-2.988-2.988s1.358-2.987 2.988-2.987 2.987 1.358 2.987 2.987a2.979 2.979 0 01-2.987 2.988z" fill="#0078D4"/></svg>