<svg xmlns="http://www.w3.org/2000/svg" viewBox="0 0 50 50"><circle cx="24" cy="22" r="5" fill="#0072c6"/><path d="M38.2 17.2a14.983 14.983 0 00-28.994 2.422A11.991 11.991 0 1023 37.572v-8.683a6.977 6.977 0 01-4.215-2.26l-.9.9a6.03 6.03 0 11-1.414-1.414l1.192-1.192a6.993 6.993 0 1112.758-.142l2.2 1.575a4.9 4.9 0 01.583-.505 5.263 5.263 0 11-1.746 2.131l-2.116-1.512A6.977 6.977 0 0125 28.885V36.9c.01.015.016.032.026.047A12.992 12.992 0 1038.2 17.2z" fill="#0072c6"/><circle cx="13" cy="31" r="4" fill="#0072c6"/><path d="M13.206 23.622A14.932 14.932 0 0136.373 13.6a14.95 14.95 0 00-27.167 6.022 11.983 11.983 0 00-2.443 21.615 11.969 11.969 0 016.443-17.615z" fill="#fff" opacity=".3"/><path fill="none" d="M0 0h50v50H0z"/></svg>