<svg xmlns="http://www.w3.org/2000/svg" viewBox="0 0 60 61"><path fill-rule="evenodd" clip-rule="evenodd" d="M49.282 32.619h-2.154v2.321c0 .466.359.816.837.816h.48c.478 0 .837-.35.837-.816V32.62zm-2.752 0v2.321c0 .757.658 1.398 1.435 1.398h.48c.777 0 1.435-.64 1.435-1.398V32.62h3.594l4.906 5.651-.42 19.689-19.864.582-5.884-6.466V32.62H46.53zM38.096 27.84l19.281-.99.998-19.35-4.9-5.64H32.211v13.96h2.658c.829 0 1.53.6 1.53 1.44v.48c0 .78-.701 1.44-1.53 1.44h-2.658v2.136l5.883 6.524zm-5.884-9.26h2.658c.51 0 .892-.36.892-.84v-.48c0-.48-.382-.84-.892-.84h-2.658v2.16z" fill="#0078D4"/><path d="M48.41 22.714h-.466a.796.796 0 00-.815.815V33.5h2.155v-9.97c-.058-.467-.466-.816-.873-.816zM23.477 16.48a.796.796 0 00-.816.816v.466c0 .466.35.816.816.816h8.738v-2.156h-8.738v.059z" fill="#0078D4"/><path d="M39.377 39.318l-6.7-6.7h-.465v.583l6.64 6.641.525-.524z" fill="#50E6FF"/><path d="M58.377 38.268H37.988v20.33h20.389v-20.33zM39.377 8.559l-6.7-6.7h-.465v.583l6.64 6.64.525-.523z" fill="#50E6FF"/><path d="M58.377 7.509H37.988v20.33h20.389V7.51z" fill="#50E6FF"/><path d="M25.514 25.51L7.397 27.782l-5.883-6.466V1.859h21.262L27.67 7.5l-2.156 18.01z" fill="#0078D4"/><path d="M8.679 8.559l-6.7-6.7h-.465v.583l6.64 6.64.525-.523z" fill="#50E6FF"/><path d="M27.669 7.509H7.28v20.33H27.67V7.51z" fill="#50E6FF"/><path fill-rule="evenodd" clip-rule="evenodd" d="M16.665 40.656a4.674 4.674 0 00-4.66 4.66c0 1.515.699 2.855 1.864 3.728l-.002.002c.816.582 1.747.931 2.795.931a4.674 4.674 0 004.66-4.66 4.606 4.606 0 00-2.621-4.194v-.002a4.57 4.57 0 00-2.036-.465zm6.288-6.52l.003-.005v-.873c0-1.923-2.388-2.738-3.611-1.282l-3.146 3.32-3.379-3.378c-1.281-1.165-3.379-.233-3.379 1.514v5.069H3.85c-1.922 0-2.854 2.33-1.514 3.67l3.553 3.145-2.97 2.971c-1.457 1.282-.583 3.728 1.397 3.728h5.126v4.249l-.003.005v.699c0 2.097 2.564 3.204 4.078 1.689l2.738-3.146 2.563 2.505c1.457 1.631 4.195.641 4.195-1.573v-4.485h4.893c1.922 0 2.854-2.505 1.281-3.787l-3.087-2.97 3.262-3.205c1.223-1.398.291-3.553-1.573-3.553h-4.835v-4.307z" fill="#0078D4"/><path d="M23.477 16.48a.796.796 0 00-.816.816v.466c0 .466.35.816.816.816h4.252v-2.156h-4.252v.059zM49.226 23.53a.796.796 0 00-.816-.816h-.466a.796.796 0 00-.815.815v4.311h2.155v-4.31h-.058z" fill="#0078D4" fill-opacity=".4"/><path d="M48.179 23.705a5.825 5.825 0 100-11.65 5.825 5.825 0 000 11.65z" fill="#D9EBF3"/><path d="M48.172 22.424a4.544 4.544 0 100-9.088 4.544 4.544 0 000 9.088z" fill="#0078D4"/><path d="M17.476 23.705a5.825 5.825 0 100-11.65 5.825 5.825 0 000 11.65z" fill="#D9EBF3"/><path d="M17.478 22.424a4.544 4.544 0 100-9.088 4.544 4.544 0 000 9.088z" fill="#0078D4"/><path d="M48.179 54.462a5.825 5.825 0 100-11.65 5.825 5.825 0 000 11.65z" fill="#D9EBF3"/><path d="M48.172 53.18a4.544 4.544 0 100-9.087 4.544 4.544 0 000 9.088z" fill="#0078D4"/></svg>