<svg xmlns="http://www.w3.org/2000/svg" viewBox="0 0 49 49"><path d="M41.339.016l1.808 1.808-4.724 4.724 3.615 3.615 4.724-4.724 1.808 1.808V.016h-7.231zm1.807 14.573l-4.724 4.724 3.616 3.615 4.724-4.724 1.807 1.816v-7.24h-7.23l1.807 1.809z" fill="#0078D4"/><path d="M41.339 25.546l1.807 1.808-4.724 4.724 3.616 3.615 4.724-4.715 1.807 1.807v-7.239h-7.23zm0 12.844l1.808 1.808-4.724 4.724 3.615 3.615 4.724-4.715 1.808 1.808v-7.24h-7.231z" fill="#50E6FF"/><path d="M10.215.016h-7.24l1.817 1.808L.068 6.547l3.615 3.616 4.724-4.724 1.808 1.808V.016zm0 12.764h-7.24l1.817 1.809-4.724 4.724 3.616 3.615 4.724-4.724 1.807 1.816v-7.24z" fill="#0078D4"/><path d="M10.215 25.546h-7.24l1.817 1.808-4.724 4.724 3.616 3.615 4.724-4.715 1.807 1.807v-7.239zm.001 12.844h-7.24l1.816 1.808-4.724 4.724 3.616 3.615 4.724-4.715 1.808 1.808v-7.24zm15.25-12.803v10.232h10.232V25.587H25.466z" fill="#50E6FF"/><path d="M35.694 17.897a5.12 5.12 0 01-5.116 5.116 5.12 5.12 0 01-5.117-5.116 5.12 5.12 0 015.117-5.116 5.115 5.115 0 015.116 5.116z" fill="#0078D4"/><path d="M22.904 30.698a5.12 5.12 0 01-5.117 5.116 5.12 5.12 0 01-5.116-5.116 5.12 5.12 0 015.116-5.116 5.115 5.115 0 015.117 5.116z" fill="#50E6FF"/><path d="M35.694 0H25.46v10.232h10.233V0zm-12.79 5.116a5.12 5.12 0 01-5.117 5.116 5.12 5.12 0 01-5.116-5.116A5.12 5.12 0 0117.787 0a5.115 5.115 0 015.117 5.116zm0 7.664H12.67v10.233h10.233V12.781z" fill="#0078D4"/><path d="M35.694 43.487a5.12 5.12 0 01-5.116 5.116 5.12 5.12 0 01-5.117-5.116 5.12 5.12 0 015.117-5.117 5.115 5.115 0 015.116 5.117zm-23.019-5.112v10.233h10.232V38.375H12.675z" fill="#50E6FF"/></svg>