<svg xmlns="http://www.w3.org/2000/svg" viewBox="0 0 96 96"><path fill-rule="evenodd" clip-rule="evenodd" d="M72 30.031a6 6 0 11-12 0 6 6 0 0112 0m0 35.985a6 6 0 11-12 0 6 6 0 0112 0M36 30.031a6 6 0 11-12 0 6 6 0 0112 0m0 35.985a6 6 0 11-12 0 6 6 0 0112 0M57 24a9 9 0 11-18 0 9 9 0 0118 0m0 48a9 9 0 11-18 0 9 9 0 0118 0" fill="#0078D4"/><path fill-rule="evenodd" clip-rule="evenodd" d="M52.5 4.5a4.5 4.5 0 11-9.001-.001A4.5 4.5 0 0152.5 4.5" fill="#50E6FF"/><path fill-rule="evenodd" clip-rule="evenodd" d="M52.5 91.5a4.5 4.5 0 11-9.001-.001 4.5 4.5 0 019.001.001" fill="#0078D4"/><path fill-rule="evenodd" clip-rule="evenodd" d="M52.5 4.5a4.5 4.5 0 11-9.001-.001A4.5 4.5 0 0152.5 4.5m0 87a4.5 4.5 0 11-9.001-.001 4.5 4.5 0 019.001.001" fill="#50E6FF"/><path fill-rule="evenodd" clip-rule="evenodd" d="M33 48a9 9 0 11-18 0 9 9 0 0118 0m48 0a9 9 0 11-18 0 9 9 0 0118 0" fill="#0078D4"/><path fill-rule="evenodd" clip-rule="evenodd" d="M4.5 43.5a4.5 4.5 0 110 9 4.5 4.5 0 010-9" fill="#50E6FF"/><path fill-rule="evenodd" clip-rule="evenodd" d="M91.5 43.5a4.5 4.5 0 110 9 4.5 4.5 0 010-9M57 48a9 9 0 11-18 0 9 9 0 0118 0" fill="#0078D4"/><path fill-rule="evenodd" clip-rule="evenodd" d="M4.5 43.5a4.5 4.5 0 110 9 4.5 4.5 0 010-9m87 0a4.5 4.5 0 110 9 4.5 4.5 0 010-9m-8.803-23.818a4.499 4.499 0 01-6.364 0 4.5 4.5 0 116.364 0M19.703 82.698a4.5 4.5 0 11-6.364-6.364 4.5 4.5 0 016.364 6.364m0-69.38a4.5 4.5 0 11-6.364 6.364 4.5 4.5 0 016.364-6.364m62.979 63.016a4.5 4.5 0 11-6.364 6.364 4.5 4.5 0 016.364-6.364" fill="#50E6FF"/></svg>