<svg xmlns="http://www.w3.org/2000/svg" viewBox="0 0 48 48"><path d="M5.053.025H0v5.05h5.053V.025zm0 7.155H0v5.05h5.053V7.18zm35.452 0h-5.052v5.05h5.052V7.18z" fill="#0078D4"/><path d="M48 7.18h-5.053v5.05H48V7.18zM48 0h-5.053v5.05H48V0z" fill="#50E6FF"/><path d="M5.053 14.334H0v5.05h5.053v-5.05zm35.452 0h-5.052v5.05h5.052v-5.05z" fill="#0078D4"/><path d="M48 14.334h-5.053v5.05H48v-5.05z" fill="#50E6FF"/><path d="M5.053 21.488H0v5.05h5.053v-5.05z" fill="#0078D4"/><path d="M12.632 21.488H7.579v5.05h5.053v-5.05z" fill="#50E6FF"/><path d="M40.505 21.488h-5.052v5.05h5.052v-5.05z" fill="#0078D4"/><path d="M48 21.488h-5.053v5.05H48v-5.05z" fill="#50E6FF"/><path d="M5.053 28.642H0v5.05h5.053v-5.05z" fill="#0078D4"/><path d="M12.632 28.642H7.579v5.05h5.053v-5.05z" fill="#50E6FF"/><path d="M40.505 28.642h-5.052v5.05h5.052v-5.05z" fill="#0078D4"/><path d="M48 28.642h-5.053v5.05H48v-5.05z" fill="#50E6FF"/><path d="M5.053 35.796H0v5.05h5.053v-5.05z" fill="#0078D4"/><path d="M12.632 35.796H7.579v5.05h5.053v-5.05z" fill="#50E6FF"/><path d="M40.505 35.796h-5.052v5.05h5.052v-5.05z" fill="#0078D4"/><path d="M48 35.796h-5.053v5.05H48v-5.05z" fill="#50E6FF"/><path d="M5.053 42.95H0V48h5.053v-5.05z" fill="#0078D4"/><path d="M12.632 42.95H7.579V48h5.053v-5.05z" fill="#50E6FF"/><path d="M40.505 42.95h-5.052V48h5.052v-5.05z" fill="#0078D4"/><path d="M48 42.95h-5.053V48H48v-5.05z" fill="#50E6FF"/><path d="M30.332 30.342l-5.077-5.067v2.559h-7.58V32.9h7.58v2.517l5.078-5.075zm0-12.692l-5.077-5.076v2.567h-7.58v5.067h7.58v2.517l5.078-5.076zm0 25.275l-5.077-5.067v2.559h-7.58v5.066h7.58V48l5.078-5.075z" fill="#0078D4"/></svg>