<svg xmlns="http://www.w3.org/2000/svg" viewBox="0 0 34 26"><g fill="none" fill-rule="evenodd"><path d="M17.019 3.423s-2.422-2.034-5.757-2.47c-3.334-.434-8.916.508-8.916.508l-.144 20.985 30.554.654-.834-21.385S27.68.155 24.347.773c-3.335.616-7.328 2.65-7.328 2.65" fill="#FFF"/><path d="M27.186 20.63c-3.31 0-6.802.722-8.855 1.67-.434.2-.86.436-1.123.759v-7.837l.42.373V4.155c1.456-1.771 5.07-3.113 8.506-3.152 2.067-.023 3.875.278 5.256.83l.072 19.628a11.243 11.243 0 00-4.276-.831zm-10.457 2.416c-1.243-1.15-5.791-2.27-9.878-2.27-1.816 0-3.225.34-4.277.734V1.816C3.933 1.272 5.699.956 7.73.979c3.383.039 7.098 1.287 8.53 3.03v11.586l.468-.401v7.852zM32.392 3.3V1.737a.672.672 0 00-.404-.616l-.45-.196C30.157.372 28.2-.023 26.134 0c-4.08.049-7.66 1.65-9.116 3.422l-.245-.27C15.113 1.15 11.113.04 7.73.002 5.903-.02 3.601.446 2.167.936a.667.667 0 00-.45.634v1.584s-1.429.037-1.71.88c-.015.046 0 20.286 0 20.286H14.85c.46.56 1.23.929 2.101.929s1.64-.368 2.1-.93h14.636V4.133c0-.342-.44-.758-1.297-.831z" fill="#0078D4"/><path fill="#0078D4" d="M16.26 2.625l1.378.143-.01 12.827-.67-.586-.697.586z"/></g></svg>