<svg xmlns="http://www.w3.org/2000/svg" viewBox="0 0 48 48"><path d="M0 42.947h47.992V6.062H0v36.885z" fill="#0078D4"/><path d="M0 10.053h47.975V5.05H0v5.002z" fill="#50E6FF"/><path d="M7.47 8.875a1.222 1.222 0 10-.002-2.443 1.222 1.222 0 00.002 2.443zm-3.79 0a1.222 1.222 0 10-.002-2.443 1.222 1.222 0 00.002 2.443zm7.663 0a1.222 1.222 0 000-2.442 1.222 1.222 0 000 2.442z" fill="#0078D4"/><path d="M35.326 27.663v-2.392H32.86a8.955 8.955 0 00-1.752-4.235l1.743-1.743-1.692-1.685-1.735 1.744a8.871 8.871 0 00-4.236-1.752v-2.467h-2.391V17.6a8.955 8.955 0 00-4.236 1.752l-1.743-1.744-1.693 1.693 1.743 1.743a8.87 8.87 0 00-1.751 4.236h-2.468v2.392h2.468a8.955 8.955 0 001.751 4.235l-1.743 1.744 1.693 1.692L18.56 33.6a8.87 8.87 0 004.236 1.752v2.459h2.391v-2.468a8.955 8.955 0 004.236-1.752l1.743 1.744 1.693-1.693-1.743-1.743a8.87 8.87 0 001.751-4.236h2.46zM24 31.495a5.035 5.035 0 01-5.027-5.028A5.035 5.035 0 0124 21.44a5.035 5.035 0 015.027 5.027A5.03 5.03 0 0124 31.495z" fill="#50E6FF"/></svg>