<svg xmlns="http://www.w3.org/2000/svg" viewBox="0 0 48 48"><path d="M0 42.69h48V5.73H0v36.96z" fill="#0078D4"/><path d="M0 10.006h47.983V5.004H0v5.002z" fill="#50E6FF"/><path d="M7.478 8.825a1.221 1.221 0 100-2.442 1.221 1.221 0 000 2.442zm-3.79 0a1.221 1.221 0 100-2.442 1.221 1.221 0 000 2.442zm7.663 0a1.221 1.221 0 100-2.442 1.221 1.221 0 000 2.442z" fill="#0078D4"/><path d="M13.082 36.148h-1.194v1.166h1.194v-1.166zm2.389-1.222h-1.194v2.388h1.194v-2.388zm3.582-1.196h-2.389v3.583h2.389V33.73zm3.583-2.386h-2.388v5.97h2.388v-5.97zm5.374-4.778h-3.583v10.748h3.583V26.566z" fill="#fff"/><path d="M34.578 14.625h-4.777v22.69h4.777v-22.69z" fill="#50E6FF"/></svg>