<svg xmlns="http://www.w3.org/2000/svg" viewBox="0 0 48 49"><path d="M3.747 3.007c0 .824-.673 1.497-1.499 1.497A1.501 1.501 0 01.75 3.007 1.5 1.5 0 012.248 1.51c.826 0 1.5.673 1.5 1.497zm8.691 0c0 .824-.674 1.497-1.5 1.497A1.501 1.501 0 019.44 3.007c0-.824.674-1.497 1.499-1.497.825 0 1.499.673 1.499 1.497zm8.699 0c0 .824-.674 1.497-1.5 1.497a1.501 1.501 0 01-1.498-1.497c0-.824.673-1.497 1.499-1.497.825 0 1.499.673 1.499 1.497z" fill="#0078D4"/><path d="M29.98 3.007c0 .824-.674 1.497-1.5 1.497a1.501 1.501 0 01-1.499-1.497c0-.824.674-1.497 1.5-1.497a1.5 1.5 0 011.498 1.497z" fill="#50E6FF"/><path d="M21.482 11.652a1.847 1.847 0 01-1.844 1.843 1.847 1.847 0 01-1.844-1.842c0-1.015.829-1.842 1.844-1.842 1.015 0 1.844.827 1.844 1.841z" fill="#0078D4"/><path d="M30.325 11.652a1.847 1.847 0 01-1.845 1.843 1.847 1.847 0 01-1.844-1.842c0-1.015.83-1.842 1.845-1.842 1.015 0 1.844.827 1.844 1.841zm8.648-8.645c0 .824-.674 1.497-1.499 1.497a1.501 1.501 0 01-1.499-1.497c0-.824.674-1.497 1.5-1.497.824 0 1.498.673 1.498 1.497zm8.245 0c0 .824-.674 1.497-1.5 1.497a1.501 1.501 0 01-1.498-1.497c0-.824.673-1.497 1.499-1.497.825 0 1.499.673 1.499 1.497z" fill="#50E6FF"/><path d="M3.747 11.651c0 .825-.673 1.498-1.499 1.498A1.501 1.501 0 01.75 11.65a1.5 1.5 0 011.498-1.497c.826 0 1.5.673 1.5 1.497zm8.691 0c0 .825-.674 1.498-1.5 1.498A1.501 1.501 0 019.44 11.65c0-.824.674-1.497 1.499-1.497.825 0 1.499.673 1.499 1.497zm-8.691 8.747c0 .824-.673 1.497-1.499 1.497A1.501 1.501 0 01.75 20.398c0-.825.673-1.498 1.498-1.498.826 0 1.5.665 1.5 1.498zm0 8.496c0 .824-.673 1.497-1.499 1.497A1.501 1.501 0 01.75 28.894a1.5 1.5 0 012.998 0z" fill="#0078D4"/><path d="M47.218 29.206c0 .824-.674 1.497-1.5 1.497a1.501 1.501 0 01-1.498-1.497c0-.824.673-1.497 1.499-1.497.825 0 1.499.673 1.499 1.497zm0-8.808c0 .824-.674 1.497-1.5 1.497a1.501 1.501 0 01-1.498-1.497c0-.825.673-1.498 1.499-1.498.825 0 1.499.665 1.499 1.498zm0-8.747c0 .825-.674 1.498-1.5 1.498a1.501 1.501 0 01-1.498-1.498c0-.824.673-1.497 1.499-1.497.825 0 1.499.673 1.499 1.497zm-7.874-.001a1.88 1.88 0 01-1.878 1.876 1.88 1.88 0 01-1.878-1.876 1.88 1.88 0 011.878-1.875c1.044 0 1.878.843 1.878 1.875z" fill="#50E6FF"/><path d="M21.636 20.4a2 2 0 01-1.998 1.995A2 2 0 0117.64 20.4a2 2 0 011.998-1.996c1.1 0 1.997.886 1.997 1.995z" fill="#0078D4"/><path d="M30.478 20.4a2 2 0 01-1.997 1.995 2 2 0 01-1.998-1.995 2 2 0 011.998-1.996c1.1 0 1.997.886 1.997 1.995z" fill="#50E6FF"/><path d="M12.937 20.4a2 2 0 01-1.998 1.995A2 2 0 018.941 20.4a2 2 0 011.998-1.996c1.1 0 1.998.886 1.998 1.995zm8.545 8.495a1.847 1.847 0 01-1.844 1.842 1.847 1.847 0 01-1.844-1.842c0-1.014.829-1.842 1.844-1.842a1.84 1.84 0 011.844 1.842zm-8.56-.002c0 1.09-.89 1.98-1.983 1.98a1.986 1.986 0 01-1.983-1.98c0-1.09.891-1.98 1.983-1.98a1.98 1.98 0 011.983 1.98zm-9.175 8.548c0 .824-.673 1.497-1.499 1.497A1.501 1.501 0 01.75 37.441a1.5 1.5 0 011.498-1.497c.826 0 1.5.673 1.5 1.497zm8.691 0c0 .824-.674 1.497-1.5 1.497a1.501 1.501 0 01-1.498-1.497c0-.824.674-1.497 1.499-1.497.825 0 1.499.673 1.499 1.497z" fill="#0078D4"/><path d="M39.464 20.4a2 2 0 01-1.998 1.995 2 2 0 01-1.998-1.995 2 2 0 011.998-1.996c1.111 0 1.998.886 1.998 1.995z" fill="#50E6FF"/><path d="M40.397 25.951H27.655v22.701h12.742v-22.7zm-12.742 7.434h-9.988V48.65h9.988V33.385z" fill="#0078D4"/><path d="M48 38.534H37.92v10.11H48v-10.11zm-35.495 4.39h-.758l-.893 4.971h1.356a1.019 1.019 0 011.028-.992c.564 0 1.01.437 1.027.992h.707V45.39h.017a2.5 2.5 0 00-2.484-2.465zm.253 2.053v-1.228c.774 0 1.398.546 1.398 1.228h-1.398z" fill="#0078D4"/><path d="M11.748 41.686H2.796v6.199h.716a1.018 1.018 0 011.027-.959c.547 0 .994.42 1.027.959l6.182.008v-6.207zm1.482 5.477a.79.79 0 00-.792.79c0 .446.345.79.792.79a.78.78 0 00.791-.79.79.79 0 00-.791-.79z" fill="#0078D4"/><path d="M4.539 47.178a.79.79 0 00-.792.79.78.78 0 00.792.791.78.78 0 00.791-.79.796.796 0 00-.791-.79z" fill="#0078D4"/><path d="M37.929 29.447h-7.604v2.507h7.604v-2.507zm0 6.614h-7.604v2.507h7.604V36.06zm0 7.703h-7.604v2.506h7.604v-2.506zm-10.122-7.703h-7.604v2.507h7.604V36.06zm0 7.703h-7.604v2.506h7.604v-2.506z" fill="#50E6FF"/></svg>