<svg xmlns="http://www.w3.org/2000/svg" viewBox="0 0 49 49"><path d="M.608 48.512h48v-48h-48v48z" fill="#0078D4"/><path d="M3.148 38.498h17.701v-5.139H3.148v5.139z" fill="#50E6FF"/><path d="M3.148 46.005h9.964v-5.138H3.148v5.139z" fill="#fff"/><path d="M30.612 23.418l-3.544 3.544L38.687 38.58l3.543-3.544-11.618-11.618z" fill="#50E6FF"/><path d="M23.373 5.516c-7.003 0-12.682 5.678-12.682 12.68 0 7.004 5.679 12.682 12.682 12.682S36.054 25.2 36.054 18.197c0-7.003-5.678-12.681-12.681-12.681zm0 20.308a7.616 7.616 0 01-7.62-7.619 7.616 7.616 0 017.62-7.618 7.616 7.616 0 017.619 7.618 7.616 7.616 0 01-7.62 7.62z" fill="#50E6FF"/></svg>