<svg xmlns="http://www.w3.org/2000/svg" viewBox="0 0 49 49"><path d="M35.995.516h12.209v12.209h-5.052V5.568h-7.157V.516zM19.57 12.72H14.52V.513h12.208v5.052H19.57v7.157zM43.152 21.953h5.051v12.209H35.995V29.11h7.157v-7.157zM14.519 34.17V21.96h5.051v7.158h7.157v5.052H14.52z" fill="#0078D4"/><path d="M24.207 19.884a2.523 2.523 0 01-2.526-2.526 2.523 2.523 0 012.526-2.526 2.523 2.523 0 012.526 2.526 2.533 2.533 0 01-2.526 2.526zM31.363 12.728a2.523 2.523 0 01-2.526-2.526 2.523 2.523 0 012.526-2.526 2.523 2.523 0 012.526 2.526 2.533 2.533 0 01-2.526 2.526zM38.52 19.884a2.523 2.523 0 01-2.525-2.526 2.523 2.523 0 012.526-2.526 2.523 2.523 0 012.526 2.526 2.533 2.533 0 01-2.526 2.526zM31.363 27.04a2.523 2.523 0 01-2.526-2.526 2.523 2.523 0 012.526-2.526 2.522 2.522 0 012.526 2.526 2.533 2.533 0 01-2.526 2.526zM31.363 19.884a2.523 2.523 0 01-2.526-2.526 2.523 2.523 0 012.526-2.526 2.523 2.523 0 012.526 2.526 2.533 2.533 0 01-2.526 2.526zM2.735 5.568A2.523 2.523 0 01.209 3.042 2.523 2.523 0 012.735.516a2.523 2.523 0 012.526 2.526 2.533 2.533 0 01-2.526 2.526zM12.418.516H7.366v5.052h5.052V.516zM5.261 7.676H.21v5.052h5.052V7.676zM12.418 7.676H7.366v5.052h5.052V7.676zM5.261 14.832H.21v5.052h5.052v-5.052zM9.892 19.884a2.523 2.523 0 01-2.526-2.526 2.523 2.523 0 012.526-2.526 2.523 2.523 0 012.526 2.526 2.533 2.533 0 01-2.526 2.526zM5.261 29.145H.21v5.052h5.052v-5.053zM12.418 36.3H7.366v5.053h5.052V36.3zM45.677 48.513a2.523 2.523 0 01-2.526-2.526 2.523 2.523 0 012.526-2.526 2.523 2.523 0 012.526 2.526 2.533 2.533 0 01-2.526 2.526zM33.89 43.46h-5.053v5.053h5.052V43.46zM41.047 36.3h-5.052v5.053h5.052V36.3zM17.05 48.513a2.523 2.523 0 01-2.527-2.526 2.523 2.523 0 012.526-2.526 2.523 2.523 0 012.526 2.526 2.533 2.533 0 01-2.526 2.526zM12.418 43.46H7.366v5.053h5.052V43.46zM26.733 36.3H21.68v5.053h5.052V36.3z" fill="#50E6FF"/></svg>