<svg xmlns="http://www.w3.org/2000/svg" viewBox="0 0 49 49"><path d="M15.51.555H2.862V3.04h1.281v40.576c0 2.51 2.251 4.887 5.034 4.887 2.782 0 5.033-2.376 5.033-4.887V3.04h1.298V.555z" fill="#0078D4"/><path d="M12.972 5.531H5.35v37.29a3.806 3.806 0 003.811 3.808 3.806 3.806 0 003.81-3.808V5.531z" fill="#50E6FF"/><path d="M30.677 13.164H18.022v2.494h1.29v27.955c0 2.51 2.251 4.886 5.033 4.886 2.783 0 5.034-2.376 5.034-4.886V15.658h1.298v-2.494z" fill="#0078D4"/><path d="M28.139 20.61h-7.622v22.225a3.806 3.806 0 003.811 3.808 3.806 3.806 0 003.81-3.808V20.61z" fill="#50E6FF"/><path d="M45.785 5.594H33.13v2.494h1.416v35.537c0 2.51 2.251 4.887 5.034 4.887 2.782 0 5.033-2.376 5.033-4.887V8.08h1.164V5.594h.008z" fill="#0078D4"/><path d="M43.374 13.117h-7.622v29.716a3.806 3.806 0 003.81 3.808 3.806 3.806 0 003.812-3.808V13.117z" fill="#50E6FF"/></svg>