<svg xmlns="http://www.w3.org/2000/svg" viewBox="0 0 49 49"><path d="M4.217 3.01c0 .826-.674 1.5-1.5 1.5s-1.5-.674-1.5-1.5.674-1.5 1.5-1.5 1.5.674 1.5 1.5zm8.696 0c0 .826-.675 1.5-1.5 1.5-.826 0-1.5-.674-1.5-1.5s.674-1.5 1.5-1.5c.825 0 1.5.674 1.5 1.5zm8.705 0c0 .826-.674 1.5-1.5 1.5s-1.5-.674-1.5-1.5.674-1.5 1.5-1.5 1.5.674 1.5 1.5z" fill="#0078D4"/><path d="M30.466 3.01c0 .826-.674 1.5-1.5 1.5s-1.5-.674-1.5-1.5.674-1.5 1.5-1.5 1.5.674 1.5 1.5z" fill="#50E6FF"/><path d="M22.238 11.672c0 1.167-.953 2.12-2.12 2.12a2.125 2.125 0 01-2.12-2.12c0-1.167.953-2.12 2.12-2.12 1.167 0 2.12.953 2.12 2.12z" fill="#0078D4"/><path d="M31.086 11.672c0 1.167-.953 2.12-2.12 2.12a2.125 2.125 0 01-2.12-2.12c0-1.167.953-2.12 2.12-2.12 1.167 0 2.12.953 2.12 2.12zm8.381-8.662c0 .826-.674 1.5-1.5 1.5s-1.5-.674-1.5-1.5.674-1.5 1.5-1.5 1.5.674 1.5 1.5zm8.25 0c0 .826-.674 1.5-1.5 1.5s-1.5-.674-1.5-1.5.674-1.5 1.5-1.5 1.5.674 1.5 1.5z" fill="#50E6FF"/><path d="M4.217 11.673c0 .826-.674 1.5-1.5 1.5s-1.5-.674-1.5-1.5c0-.825.674-1.5 1.5-1.5s1.5.675 1.5 1.5zm8.696 0c0 .826-.675 1.5-1.5 1.5-.826 0-1.5-.674-1.5-1.5 0-.825.674-1.5 1.5-1.5.825 0 1.5.675 1.5 1.5zm-8.696 8.763c0 .825-.674 1.5-1.5 1.5s-1.5-.675-1.5-1.5c0-.826.674-1.5 1.5-1.5s1.5.665 1.5 1.5zm0 8.511c0 .826-.674 1.5-1.5 1.5s-1.5-.674-1.5-1.5.674-1.5 1.5-1.5 1.5.666 1.5 1.5z" fill="#0078D4"/><path d="M47.717 29.26c0 .825-.674 1.5-1.5 1.5s-1.5-.675-1.5-1.5c0-.827.674-1.5 1.5-1.5s1.5.673 1.5 1.5zm0-8.824c0 .825-.674 1.5-1.5 1.5s-1.5-.675-1.5-1.5c0-.826.674-1.5 1.5-1.5s1.5.665 1.5 1.5zm0-8.763c0 .826-.674 1.5-1.5 1.5s-1.5-.674-1.5-1.5c0-.825.674-1.5 1.5-1.5s1.5.675 1.5 1.5zm-8.259 0c0 .826-.675 1.5-1.5 1.5-.826 0-1.5-.674-1.5-1.5 0-.825.674-1.5 1.5-1.5.834 0 1.5.675 1.5 1.5z" fill="#50E6FF"/><path d="M22.238 20.438c0 1.168-.953 2.12-2.12 2.12a2.125 2.125 0 01-2.12-2.12c0-1.167.953-2.12 2.12-2.12 1.167 0 2.12.941 2.12 2.12z" fill="#0078D4"/><path d="M31.086 20.438c0 1.168-.953 2.12-2.12 2.12a2.125 2.125 0 01-2.12-2.12c0-1.167.953-2.12 2.12-2.12 1.167 0 2.12.941 2.12 2.12z" fill="#50E6FF"/><path d="M12.913 20.436c0 .825-.675 1.5-1.5 1.5-.826 0-1.5-.675-1.5-1.5 0-.826.674-1.5 1.5-1.5.825 0 1.5.665 1.5 1.5z" fill="#0078D4"/><path d="M39.458 20.436c0 .825-.675 1.5-1.5 1.5-.826 0-1.5-.675-1.5-1.5 0-.826.674-1.5 1.5-1.5.834 0 1.5.665 1.5 1.5zm-8.372 8.822c0 1.167-.953 2.12-2.12 2.12a2.125 2.125 0 01-2.12-2.12c0-1.167.953-2.12 2.12-2.12 1.167 0 2.12.953 2.12 2.12zm8.372.002c0 .825-.675 1.5-1.5 1.5-.826 0-1.5-.675-1.5-1.5 0-.827.674-1.5 1.5-1.5.834 0 1.5.673 1.5 1.5z" fill="#50E6FF"/><path d="M23.245 23.486h-12.75v25.256h12.75V23.486zm-12.751 9.961H.5v15.295h9.994V33.447z" fill="#0078D4"/><path d="M28.503 38.603h-7.735v10.13h7.735v-10.13z" fill="#0078D4"/><path d="M20.767 25.998h-7.61v2.511h7.61v-2.511zm0 10.129h-7.61v2.51h7.61v-2.51zm0 7.719h-7.61v2.51h7.61v-2.51zm-10.121-7.719h-7.61v2.51h7.61v-2.51zm0 7.719h-7.61v2.51h7.61v-2.51zM38.868 32.57a7.24 7.24 0 00-4.896 2.664 7.276 7.276 0 00-1.584 5.351 7.24 7.24 0 002.663 4.896 7.266 7.266 0 005.342 1.584 7.278 7.278 0 004.905-2.663 7.266 7.266 0 001.584-5.342c-.21-2.023-1.239-3.75-2.713-4.939a7.126 7.126 0 00-4.517-1.592c-.261 0-.514.017-.784.042z" fill="#50E6FF"/><path d="M36.635 37.871l-1.77-1.432a5.849 5.849 0 00-1.053 3.59l2.267-.236c0-.666.185-1.332.556-1.922zm4.955-1.121l1.433-1.769a5.85 5.85 0 00-3.599-1.045l.236 2.267a3.531 3.531 0 011.93.548zm-2.713-.462l-.236-2.266a5.91 5.91 0 00-3.287 1.794l1.77 1.433a3.65 3.65 0 011.752-.96zm-2.714 4.296l-2.267.235a5.882 5.882 0 001.795 3.287l1.432-1.77a3.614 3.614 0 01-.96-1.752z" fill="#0078D4"/><path d="M48.365 38.899c-.252-2.435-1.5-4.525-3.252-5.941a8.813 8.813 0 00-1.087-.742l-.691 1.323c.294.177.573.363.834.573 1.475 1.197 2.503 2.916 2.713 4.939a7.287 7.287 0 01-1.584 5.35 7.277 7.277 0 01-8.68 2.048l-.69 1.324a8.708 8.708 0 004.617.775 8.772 8.772 0 005.907-3.21 8.749 8.749 0 001.913-6.44z" fill="#0078D4"/><path d="M35.05 45.483a7.26 7.26 0 01-2.662-4.896 7.25 7.25 0 011.584-5.35 7.259 7.259 0 014.896-2.664 7.232 7.232 0 014.458.97l.69-1.324a8.703 8.703 0 00-5.3-1.129 8.796 8.796 0 00-5.907 3.202 8.78 8.78 0 001.306 12.346 9 9 0 001.82 1.13l.691-1.324a7.174 7.174 0 01-1.575-.96z" fill="#A0A1A2"/><path d="M35.05 45.483a7.26 7.26 0 01-2.662-4.896 7.25 7.25 0 011.584-5.35 7.259 7.259 0 014.896-2.664 7.232 7.232 0 014.458.97l.69-1.324a8.703 8.703 0 00-5.3-1.129 8.796 8.796 0 00-5.907 3.202 8.78 8.78 0 001.306 12.346 9 9 0 001.82 1.13l.691-1.324a7.174 7.174 0 01-1.575-.96zm8.596-10.005l-1.433 1.77c.354.354.615.767.792 1.205h2.377a5.765 5.765 0 00-1.736-2.975z" fill="#0078D4"/><path d="M38.96 40.535a1.025 1.025 0 01.725-1.752c.262 0 .523.084.725.286h5.251a.745.745 0 11.008 1.492h-5.301a1.04 1.04 0 01-.674.27c-.27 0-.531-.102-.733-.296z" fill="#0078D4"/><path d="M45.652 39.07h-5.25a1.004 1.004 0 00-.725-.287c-.261 0-.53.1-.733.303a1.012 1.012 0 00-.295.725h7.744a.743.743 0 00-.741-.742z" fill="#0078D4"/></svg>