<svg xmlns="http://www.w3.org/2000/svg" viewBox="0 0 49 48"><path d="M34.535 17.704a3.783 3.783 0 100-7.566 3.783 3.783 0 000 7.566z" fill="#0078D4"/><path d="M34.535 16.035a2.115 2.115 0 100-4.23 2.115 2.115 0 000 4.23z" fill="#50E6FF"/><path d="M41.815 1.679L40.492.423a.991.991 0 00-1.205-.126c-.842.514-2.57 1.76-4.634 4.381-2.83 3.59-2.856 6.522-2.856 6.64v.53l.514-.126c1.323-.329 2.932-.649 3.294-.607.253.177.994.902 1.466 1.382l.59.607.118-.834c.008-.034.514-3.581 1.163-5.418.497-1.407 2.19-3.219 2.89-3.935a.858.858 0 00.244-.623.84.84 0 00-.261-.615zM31.494 16.177l.067.497c.152 1.113.228 4.584-.573 9.774-.631 4.07-1.533 6.361-4.575 11.66-2.064 3.607-4.22 6.059-5.047 6.943a.961.961 0 00-.042 1.264l.944 1.163a.956.956 0 00.716.354h.034c.27 0 .522-.11.708-.303 1.575-1.694 5.358-5.806 6.378-7.457 1.811-2.915 3.092-5.451 4.65-10.456.624-1.988 1.087-4.752 1.382-8.223.22-2.579.261-4.6.261-4.617l.009-.405-4.912-.194zM48.025 9.17l-1.23-1.585a.832.832 0 00-.59-.32.83.83 0 00-.632.228c-.438.421-1.315 1.221-2.208 1.786-.648.413-2.03.893-3.791 1.314a1 1 0 00-.657.523 1.014 1.014 0 00-.017.842 4.71 4.71 0 01.413 1.955 4.72 4.72 0 01-.278 1.61.958.958 0 00.901 1.28c.152 0 .295-.034.438-.101 1.66-.843 3.86-2.073 4.946-3.151a36.349 36.349 0 002.696-3.042c.312-.388.312-.944.009-1.34zm-17.248.973a.84.84 0 00-.783-.438l-.455.034-.118.118c-.025.025-2.216 2.334-4.617 3.168-.994.345-2.115.623-3.303.918-1.786.447-3.808.952-5.932 1.812-.32.135-.631.26-.943.379C11.534 17.38 9.3 18.282 6.84 20.16c-2.03 1.55-4.398 3.783-5.317 4.668a1.057 1.057 0 00-.076 1.44l.776.91c.185.22.438.346.724.371h.084c.253 0 .497-.092.691-.26 1.601-1.4 7.339-6.1 14.003-8.064 5.544-1.634 9.943-2.123 11.569-2.258a.94.94 0 00.8-1.28 4.72 4.72 0 01-.337-1.77 4.78 4.78 0 01.96-2.881.82.82 0 00.06-.894z" fill="#0078D4"/></svg>