<svg xmlns="http://www.w3.org/2000/svg" viewBox="0 0 49 49"><path d="M48.288 27.055v-5.029h-5.206a18.797 18.797 0 00-3.704-8.935l3.679-3.679-3.56-3.56-3.67 3.678a18.881 18.881 0 00-8.936-3.704V.63h-5.037v5.206a18.797 18.797 0 00-8.935 3.704l-3.67-3.687-3.561 3.56 3.679 3.679a18.88 18.88 0 00-3.704 8.935H.465v5.037h5.206a18.915 18.915 0 005.366 10.834 18.915 18.915 0 0010.834 5.366v5.206h5.037v-5.206a18.797 18.797 0 008.935-3.704l3.679 3.678 3.56-3.56-3.678-3.679a18.88 18.88 0 003.704-8.935h5.18v-.008zM10.531 24.54c0-3.206 1.114-6.302 3.139-8.783a13.864 13.864 0 017.998-4.792 13.858 13.858 0 019.23 1.367 13.808 13.808 0 016.261 6.91 13.838 13.838 0 01-5.105 16.807 13.856 13.856 0 01-9.044 2.27 13.789 13.789 0 01-8.429-3.991 13.826 13.826 0 01-3.012-4.489 14.047 14.047 0 01-1.038-5.299z" fill="#50E6FF"/><path d="M29.347 25.664l-6.05-6.05 5.46-5.458a11.227 11.227 0 00-12.142 2.329 11.184 11.184 0 00-3.13 5.644 11.255 11.255 0 00.498 6.438L1.926 40.615A4.534 4.534 0 00.6 43.821c0 1.199.473 2.354 1.325 3.207a4.534 4.534 0 003.206 1.324 4.534 4.534 0 003.206-1.324l12.049-12.032c2.05.793 4.286.962 6.437.498a11.212 11.212 0 005.645-3.13 11.217 11.217 0 002.329-12.142l-5.45 5.442zM6.743 45.433c-.32.32-.725.532-1.164.624a2.31 2.31 0 01-1.308-.126 2.295 2.295 0 01-1.02-.835 2.225 2.225 0 01-.38-1.258c0-.447.135-.886.38-1.257a2.295 2.295 0 011.02-.835 2.24 2.24 0 011.308-.127 2.282 2.282 0 011.83 2.227c.001.583-.244 1.157-.666 1.587z" fill="#0078D4"/><path d="M27.508 32.118h-2.531c0-4.252-3.46-7.72-7.72-7.72v-2.53c5.652 0 10.25 4.598 10.25 10.25z" fill="#50E6FF"/><path d="M23.541 32.117h-2.53a3.748 3.748 0 00-3.747-3.746V25.84c3.46-.009 6.277 2.81 6.277 6.277z" fill="#50E6FF"/></svg>