<svg xmlns="http://www.w3.org/2000/svg" viewBox="0 0 48 49"><path d="M0 48.759h23.996v-48H0v48z" fill="#0078D4"/><path d="M23.995 48.76h23.996V24.754H23.995V48.76zM5.02 10.825h5.053V5.77H5.02v5.054zm7.58 0h5.054V5.77H12.6v5.054zm-7.58 7.562h5.053v-5.053H5.02v5.053zm7.58 0h5.054v-5.053H12.6v5.053zm-7.58 7.531h5.053v-5.053H5.02v5.053zm7.58 0h5.054v-5.053H12.6v5.053zm-7.58 7.614h5.053v-5.054H5.02v5.053zm7.58 0h5.054v-5.054H12.6v5.053z" fill="#50E6FF"/><path d="M30.245 33.438h5.053v-5.054h-5.053v5.054zm7.58 0h5.054v-5.054h-5.054v5.054zm5.601-18.978h-.034c.169-.412.261-.858.261-1.322a3.533 3.533 0 00-3.529-3.529c-.412 0-.808.076-1.179.203a5.283 5.283 0 00-4.118-1.963 5.295 5.295 0 00-5.13 6.612 1.978 1.978 0 00-1.928 1.979 1.99 1.99 0 001.987 1.988h13.678a1.991 1.991 0 001.988-1.988 2.002 2.002 0 00-1.996-1.98zm-3.057 26.525h-7.597v7.766h7.597v-7.766z" fill="#0078D4"/><path d="M14.976 40.985H7.378v7.766h7.598v-7.766z" fill="#50E6FF"/></svg>