<svg xmlns="http://www.w3.org/2000/svg" viewBox="0 0 49 48"><path d="M35.975.004h12.209v12.209h-5.052V5.056h-7.157V.004zM19.551 12.209h-5.052V0h12.209v5.052H19.55v7.157zm23.581 9.231h5.052v12.21H35.975v-5.052h7.157V21.44zM14.499 33.658v-12.21h5.052v7.158h7.157v5.052H14.499z" fill="#0078D4"/><path d="M24.187 19.372a2.523 2.523 0 01-2.526-2.526 2.523 2.523 0 012.526-2.526 2.523 2.523 0 012.526 2.526 2.533 2.533 0 01-2.526 2.526zm7.157-7.156a2.523 2.523 0 01-2.526-2.526 2.523 2.523 0 012.526-2.526A2.523 2.523 0 0133.87 9.69a2.533 2.533 0 01-2.526 2.526zm7.157 7.156a2.523 2.523 0 01-2.526-2.526 2.523 2.523 0 012.526-2.526 2.523 2.523 0 012.526 2.526 2.533 2.533 0 01-2.526 2.526zm-7.157 7.156a2.522 2.522 0 01-2.526-2.526 2.522 2.522 0 012.526-2.526 2.523 2.523 0 012.526 2.526 2.533 2.533 0 01-2.526 2.526zm0-7.156a2.523 2.523 0 01-2.526-2.526 2.523 2.523 0 012.526-2.526 2.523 2.523 0 012.526 2.526 2.533 2.533 0 01-2.526 2.526zM2.715 5.056A2.523 2.523 0 01.19 2.53 2.523 2.523 0 012.715.004 2.523 2.523 0 015.241 2.53a2.533 2.533 0 01-2.526 2.526zM12.399.004H7.347v5.052h5.052V.004zm-7.157 7.16H.19v5.052h5.052V7.164zm7.157 0H7.347v5.052h5.052V7.164zM5.242 14.32H.19v5.052h5.052V14.32zm4.631 5.052a2.523 2.523 0 01-2.526-2.526 2.523 2.523 0 012.526-2.526 2.523 2.523 0 012.526 2.526 2.533 2.533 0 01-2.526 2.526zm-4.631 9.26H.19v5.052h5.052v-5.052zm7.157 7.156H7.347v5.052h5.052v-5.052zM45.658 48a2.523 2.523 0 01-2.526-2.526 2.523 2.523 0 012.526-2.526 2.523 2.523 0 012.526 2.526A2.533 2.533 0 0145.658 48zM33.87 42.948h-5.052V48h5.052v-5.052zm7.157-7.16h-5.052v5.052h5.052v-5.052zM17.03 48a2.523 2.523 0 01-2.526-2.526 2.523 2.523 0 012.526-2.526 2.523 2.523 0 012.526 2.526A2.533 2.533 0 0117.03 48zm-4.631-5.052H7.347V48h5.052v-5.052zm14.314-7.16h-5.052v5.052h5.052v-5.052z" fill="#50E6FF"/></svg>