<svg xmlns="http://www.w3.org/2000/svg" viewBox="0 0 49 49"><path d="M17.923 34.568c8.808 0 15.957-7.14 15.957-15.958 0-8.808-7.14-15.958-15.957-15.958S1.973 9.802 1.973 18.61c0 8.817 7.141 15.958 15.95 15.958z" fill="#50E6FF"/><path d="M47.514 45.069l-15.739-15.74a17.534 17.534 0 003.63-10.702c0-9.718-7.883-17.592-17.6-17.592C8.095 1.044.213 8.917.213 18.627c0 9.718 7.874 17.591 17.591 17.591 3.9 0 7.504-1.271 10.417-3.41l15.773 15.764 3.52-3.503zM5.274 18.627c0-6.93 5.617-12.548 12.547-12.548 6.93 0 12.548 5.617 12.548 12.548 0 6.93-5.626 12.547-12.556 12.547-6.922 0-12.54-5.617-12.54-12.547z" fill="#0078D4"/><path d="M23.405 14.51c0-3.09-2.535-5.658-5.66-5.658-2.778 0-5.102 2.046-5.549 4.724h2.29a3.527 3.527 0 01.868-1.457c.657-.657 1.49-1.01 2.392-1.01.9 0 1.735.345 2.391 1.01.657.657 1.011 1.49 1.011 2.392v1.355h-9.027v11.318h11.284V14.51z" fill="#0078D4"/><path d="M17.746 22.872a1.355 1.355 0 100-2.712 1.355 1.355 0 100 2.712z" fill="#50E6FF"/></svg>