<svg xmlns="http://www.w3.org/2000/svg" viewBox="0 0 48 49"><path d="M27.024 48.106H48V20.208H27.024v27.898z" fill="#50E6FF"/><path d="M6.047 48.105h21.801V12.673h-21.8v35.432z" fill="#50E6FF"/><path d="M0 5.148h10.101V.123H0v5.025z" fill="#0078D4"/><path d="M2.683 48.106h4.92V3.869h-4.92v44.237zM39.152 48.123v-7.551H34.09v7.55h5.063zM18.966 48.123v-7.551h-5.063v7.55h5.063zM10.11 22.832h5.03v-5.034h-5.03v5.034zM17.68 22.832h5.029v-5.034h-5.03v5.034zM10.11 30.325h5.03V25.29h-5.03v5.034zM17.68 30.325h5.029V25.29h-5.03v5.034zM10.11 37.903h5.03v-5.034h-5.03v5.034zM17.68 37.903h5.029v-5.034h-5.03v5.034zM30.295 30.325h5.03V25.29h-5.03v5.034zM30.295 37.903h5.03v-5.034h-5.03v5.034zM37.865 30.325h5.03V25.29h-5.03v5.034zM37.865 37.903h5.03v-5.034h-5.03v5.034z" fill="#0078D4"/></svg>