<svg xmlns="http://www.w3.org/2000/svg" viewBox="0 0 49 48"><path d="M9.431 34.275a5.077 5.077 0 011.432 2.089l4.379-2.569a5.02 5.02 0 01-1.28-2.18l-4.53 2.66z" fill="#50E6FF"/><path d="M5.524 36.568l2.737-1.608a3.78 3.78 0 00-5.937 3.107 3.788 3.788 0 003.781 3.79 3.78 3.78 0 003.63-4.834l-2.94 1.726-1.27-2.18z" fill="#0078D4"/><path d="M8.261 34.959l-2.737 1.608 1.28 2.181 2.94-1.726a3.772 3.772 0 00-1.483-2.063zm14.308-5.182a3.78 3.78 0 10-7.47 1.162l3.503-2.055 3.967.893zm-6.19 3.352a3.778 3.778 0 005.642-.884l-2.998-.666-2.644 1.55z" fill="#0078D4"/><path d="M16.379 33.132l2.644-1.558 2.998.665a3.801 3.801 0 00.556-2.467l-3.966-.884-3.504 2.054a3.664 3.664 0 001.272 2.19zm31.394-15.064a3.78 3.78 0 10-7.563 0c0 .91.32 1.751.86 2.4l1.844-3.057 2.164 1.305-1.844 3.057a3.779 3.779 0 004.539-3.705z" fill="#0078D4"/><path d="M42.905 17.408l-1.844 3.057a3.776 3.776 0 002.164 1.305l1.844-3.057-2.164-1.305zm-5.811-4.202v-2.51h-2.602A9.239 9.239 0 0032.64 6.25l1.836-1.836-1.777-1.768-1.836 1.827A9.404 9.404 0 0026.4 2.63V.044h-2.518v2.594a9.37 9.37 0 00-4.463 1.844l-1.836-1.836-1.777 1.768 1.827 1.836a9.44 9.44 0 00-1.852 4.447h-2.602v2.509h2.602a9.239 9.239 0 001.852 4.446l-1.835 1.836 1.777 1.769 1.835-1.836a9.405 9.405 0 004.463 1.844v2.594h2.518v-2.594a9.37 9.37 0 004.464-1.844l1.835 1.836 1.777-1.769-1.836-1.836a9.439 9.439 0 001.853-4.446h2.61zm-11.949 4.505c-3.183 0-5.768-2.576-5.768-5.751 0-3.175 2.585-5.752 5.768-5.752s5.768 2.577 5.768 5.752c0 3.174-2.585 5.751-5.768 5.751zM43.983 5.074a7.17 7.17 0 012.114 5.111h2.4a9.583 9.583 0 00-2.821-6.804 9.584 9.584 0 00-6.804-2.82v2.4a7.17 7.17 0 015.111 2.113zM40.514 8.54a2.3 2.3 0 01.682 1.634h2.4a4.682 4.682 0 00-1.381-3.335 4.703 4.703 0 00-3.335-1.381v2.4a2.337 2.337 0 011.634.682z" fill="#0078D4"/><path d="M42.542 22.896a5.093 5.093 0 01-2.164-1.305l-3.334 5.524c.8.303 1.532.75 2.164 1.305l3.334-5.524zm-18.685 7.168c0 .058.008.109.008.168 0 .825-.202 1.608-.556 2.299l4.152.926a7.118 7.118 0 01.547-2.467l-4.151-.926zm10.669 7.452a3.781 3.781 0 100-7.562 3.781 3.781 0 000 7.562z" fill="#50E6FF"/><path d="M48.623 46.208l-7.452-7.453a8.31 8.31 0 001.718-5.069c0-4.606-3.74-8.337-8.337-8.337a8.334 8.334 0 00-8.337 8.337 8.334 8.334 0 0013.271 6.72l7.47 7.47 1.667-1.668zM28.606 33.686a5.944 5.944 0 015.946-5.945 5.944 5.944 0 015.945 5.945 5.944 5.944 0 01-5.945 5.945c-3.285-.008-5.946-2.67-5.946-5.945z" fill="#0078D4"/><path d="M13.179 7.607V6.453h-1.196a4.27 4.27 0 00-.85-2.046l.841-.842-.816-.817-.851.842a4.336 4.336 0 00-2.055-.85V1.544H7.1V2.74a4.336 4.336 0 00-2.055.85l-.842-.842-.817.817.842.842a4.27 4.27 0 00-.85 2.046H2.18v1.154h1.195a4.27 4.27 0 00.851 2.046l-.842.842.817.817.842-.842c.59.447 1.288.75 2.055.85v1.197H8.26V11.32a4.336 4.336 0 002.054-.85l.843.841.816-.816-.842-.843a4.27 4.27 0 00.85-2.046h1.197zm-5.5 2.072a2.65 2.65 0 01-2.652-2.645A2.658 2.658 0 017.68 4.382a2.65 2.65 0 012.652 2.644A2.658 2.658 0 017.68 9.68z" fill="#50E6FF"/></svg>