<svg xmlns="http://www.w3.org/2000/svg" viewBox="0 0 48 49"><path d="M6.047 48.742h21.8V13.31h-21.8v35.431z" fill="#0078D4"/><path d="M27.024 48.742H48V20.846H27.024v27.898z" fill="#0078D4"/><path d="M0 5.785h10.101V.759H0v5.026z" fill="#50E6FF"/><path d="M2.683 48.742h4.92V4.505h-4.92v44.237zM39.152 48.759v-7.551h-5.063v7.551h5.063zM18.966 48.759v-7.551h-5.063v7.551h5.063zM10.11 23.469h5.029v-5.034h-5.03v5.034zM17.679 23.469h5.03v-5.034h-5.03v5.034zM10.11 30.961h5.029v-5.034h-5.03v5.034zM17.679 30.961h5.03v-5.034h-5.03v5.034zM10.11 38.539h5.03v-5.034h-5.03v5.034zM17.68 38.539h5.029v-5.034h-5.03v5.034zM30.295 30.961h5.03v-5.034h-5.03v5.034zM30.295 38.539h5.03v-5.034h-5.03v5.034zM37.865 30.961h5.03v-5.034h-5.03v5.034zM37.865 38.539h5.03v-5.034h-5.03v5.034zM40.952 11.44a4.52 4.52 0 01-4.517 4.52 4.52 4.52 0 01-4.516-4.52c0-2.5 2.018-4.52 4.516-4.52a4.52 4.52 0 014.517 4.52z" fill="#50E6FF"/><path d="M43.77 15.96H32.111a1.691 1.691 0 010-3.384h11.666a1.691 1.691 0 11-.009 3.384z" fill="#50E6FF"/><path d="M43.962 11.44a3.01 3.01 0 01-3.01 3.014 3.01 3.01 0 01-3.012-3.013 3.01 3.01 0 013.011-3.014 3.01 3.01 0 013.011 3.014z" fill="#50E6FF"/></svg>