<svg xmlns="http://www.w3.org/2000/svg" viewBox="0 0 49 49"><path d="M46.895 42.672L30.997 26.768l-5.124 5.125 15.899 15.904 5.123-5.125zM22.052 17.7L6.153 1.798 1.03 6.922l15.898 15.904 5.123-5.125z" fill="#0078D4"/><path d="M5.577 8.368L3.38 6.17l-.895.895 2.196 2.197.895-.895zM7.14 6.909L4.944 4.712l-.895.895 2.196 2.197.895-.895zM8.622 5.45L6.426 3.251l-.895.895 2.196 2.197.895-.895zm33.946 39.994l-2.196-2.197-.895.895 2.196 2.197.895-.895zm1.482-1.459l-2.196-2.197-.895.895 2.196 2.197.895-.895zm1.522-1.5l-2.196-2.197-.895.895 2.196 2.197.895-.895z" fill="#50E6FF"/><path d="M31.055 24.436l-6.83-6.834-7.28 7.28 6.832 6.834 7.278-7.28z" fill="#0078D4"/><path d="M31.184 21.893l-4.351-4.352-8.62 8.623 4.35 4.352 8.62-8.623zM20.685 34.53c.786-.787-.07-2.918-1.91-4.76-1.842-1.842-3.972-2.698-4.758-1.911-.786.786.07 2.916 1.91 4.759 1.842 1.842 3.972 2.698 4.758 1.911z" fill="#50E6FF"/><path d="M20.035 33.878c.516-.516-.267-2.137-1.749-3.62-1.482-1.482-3.102-2.265-3.618-1.749-.517.517.266 2.138 1.748 3.62 1.482 1.483 3.102 2.266 3.619 1.75z" fill="#0078D4"/><path d="M15.419 40.402c-2.013 0-3.91-.806-5.348-2.244-1.437-1.438-2.242-3.336-2.242-5.35m2.645.058c0 1.38.575 2.589 1.437 3.51a4.999 4.999 0 003.508 1.437m.001-2.531c-.633 0-1.266-.23-1.726-.69a2.435 2.435 0 01-.69-1.726" stroke="#0078D4" stroke-miterlimit="10"/></svg>