<svg xmlns="http://www.w3.org/2000/svg" viewBox="0 0 49 49"><path d="M16.519 25.115c3.53-5.832 8.21-10.022 15.108-10.022 5.748 0 10.51 6.572 12.481 9.94 4.434 7.392-19.789 9.692-19.789 9.692-.41-.246-7.8.904-7.226-6.489l-.574-3.121z" fill="#50E6FF"/><path d="M41.973 38.422H18.818c-1.15 0-2.053-.822-2.3-1.89l-2.71-13.224h33.01l-2.463 13.225a2.465 2.465 0 01-2.382 1.889z" fill="#0078D4"/><path d="M13.89 7.618l-2.709-.821-.985 3.45 2.71.821 1.067-3.45h-.082z" fill="#50E6FF"/><path d="M12.33 11.89l-2.134-.658L4.53 29.468c-.164.493.164 1.068.657 1.232l.246.082c.493.165 1.068-.164 1.232-.657l5.666-18.235z" fill="#0078D4"/><path d="M10.184 11.195l-.193.628 2.199.676.193-.628-2.199-.676z" fill="#50E6FF"/><path d="M1.492 8.03l.493-.494c.082-.082.246-.164.328-.246.821-.164 3.531-.575 7.719.41 5.009 1.15 9.032 3.533 10.1 4.6.739.74.985 1.397 1.15 1.643 0 .083-.083.165-.083.083-.739-.329-3.613-1.725-6.24-2.629-3.038-1.068-4.68-1.479-4.68-1.479S5.35 8.44 1.573 8.193c-.082 0-.082-.082-.082-.164z" fill="#0078D4"/><path d="M14.22 8.275l-3.614-1.15-.985 3.286 3.613 1.068.985-3.204zm33.255 15.033H13.152v2.3h34.323v-2.3z" fill="#0078D4"/><path d="M37.375 41.954a3.367 3.367 0 10-.001-6.735 3.367 3.367 0 000 6.735z" fill="#fff"/><path d="M37.375 41.297a2.71 2.71 0 100-5.42 2.71 2.71 0 000 5.42z" fill="#0078D4"/><path d="M37.375 40.147a1.56 1.56 0 100-3.121 1.56 1.56 0 000 3.12zM23.58 41.954a3.367 3.367 0 10-.001-6.735 3.367 3.367 0 00.001 6.735z" fill="#fff"/><path d="M23.58 41.297a2.71 2.71 0 100-5.42 2.71 2.71 0 000 5.42z" fill="#0078D4"/><path d="M23.58 40.147a1.56 1.56 0 100-3.121 1.56 1.56 0 000 3.12z" fill="#fff"/><path d="M46.325 26.018H14.383l-.082-.41h32.106l-.082.41z" fill="#50E6FF"/></svg>