<svg xmlns="http://www.w3.org/2000/svg" viewBox="0 0 49 49"><path d="M43.4 26.036h-7.574v22.72H43.4v-22.72zM24.466.794C11.221.794.484 11.532.484 24.777h5.049a18.81 18.81 0 015.545-13.388 18.81 18.81 0 0113.388-5.546 18.81 18.81 0 0113.389 5.546A18.81 18.81 0 0143.4 24.777h5.049C48.449 11.532 37.712.794 24.466.794z" fill="#50E6FF"/><path d="M35.826 13.415h-22.72v35.343h22.72V13.415z" fill="#0078D4"/><path d="M21.942 27.302H6.795v20.196h15.147V27.302z" fill="#fff"/><path d="M20.68 28.56v17.672H8.056V28.561h12.622zm2.524-2.524H5.532v22.72h17.672v-22.72z" fill="#50E6FF"/><path d="M18.155 31.087H10.58v2.524h7.574v-2.524zm0 5.051H10.58v2.524h7.574v-2.524zm0 5.047H10.58v2.524h7.574v-2.524z" fill="#50E6FF"/><path d="M23.204 18.466h-5.049v5.049h5.049v-5.05zm7.573 0h-5.049v5.049h5.05v-5.05zm0 7.57h-5.049v5.05h5.05v-5.05zm0 7.574h-5.049v5.049h5.05v-5.05zm0 7.575h-5.049v5.048h5.05v-5.048zM43.4 43.71a2.524 2.524 0 100-5.05 2.524 2.524 0 000 5.05z" fill="#fff"/><path d="M47.187 41.186c0-2.087-1.7-3.787-3.787-3.787a3.792 3.792 0 00-3.787 3.787 3.783 3.783 0 002.525 3.568v4.005h2.524v-4.005a3.791 3.791 0 002.525-3.568zM43.4 42.448a1.26 1.26 0 01-1.262-1.262 1.26 1.26 0 011.262-1.263 1.26 1.26 0 011.262 1.263 1.26 1.26 0 01-1.262 1.262z" fill="#0078D4"/></svg>