<svg xmlns="http://www.w3.org/2000/svg" viewBox="0 0 49 49"><path d="M48.211 27.275v-5.044h-5.204a18.78 18.78 0 00-3.705-8.943l3.68-3.68-3.563-3.562-3.68 3.68a18.778 18.778 0 00-8.943-3.705V.816h-5.044v5.205c-3.25.43-6.332 1.71-8.943 3.705l-3.68-3.68-3.562 3.562 3.68 3.68a18.779 18.779 0 00-3.705 8.943H.329v5.044h5.204a18.942 18.942 0 005.373 10.846 18.916 18.916 0 0010.846 5.373v5.204h5.044v-5.204c3.25-.43 6.333-1.71 8.944-3.705l3.68 3.68 3.562-3.562-3.68-3.68a18.778 18.778 0 003.705-8.943h5.204v-.009zM10.41 24.757a13.83 13.83 0 013.15-8.791 13.881 13.881 0 018.008-4.8 13.856 13.856 0 019.238 1.373 13.85 13.85 0 016.273 6.922 13.83 13.83 0 01.455 9.33 13.9 13.9 0 01-5.566 7.503 13.813 13.813 0 01-9.061 2.265 13.882 13.882 0 01-8.446-3.991 13.803 13.803 0 01-3.015-4.497 14.048 14.048 0 01-1.036-5.314z" fill="#50E6FF"/><path d="M29.087 25.575l-5.76-5.76 5.187-5.187a10.694 10.694 0 00-14.543 7.596 10.698 10.698 0 00.472 6.122L2.99 39.798a4.328 4.328 0 000 6.114 4.328 4.328 0 006.114 0l11.453-11.453c1.953.758 4.075.918 6.122.472a10.692 10.692 0 005.372-2.981 10.749 10.749 0 002.846-5.44 10.702 10.702 0 00-.623-6.114l-5.187 5.18zM7.588 44.371c-.303.303-.69.505-1.103.59-.421.084-.85.042-1.246-.127a2.123 2.123 0 01-.969-.791 2.168 2.168 0 01-.362-1.196 2.148 2.148 0 011.33-1.988 2.25 2.25 0 011.247-.126 2.154 2.154 0 011.103 3.638z" fill="#0078D4"/></svg>