<svg xmlns="http://www.w3.org/2000/svg" viewBox="0 0 49 49"><path d="M5.158 8.367a2.52 2.52 0 01-2.522-2.525 2.52 2.52 0 012.522-2.526A2.52 2.52 0 017.68 5.842a2.531 2.531 0 01-2.522 2.525zM12.725 8.367a2.52 2.52 0 01-2.522-2.525 2.52 2.52 0 012.522-2.526 2.52 2.52 0 012.522 2.526 2.531 2.531 0 01-2.522 2.525zM20.318 8.367a2.52 2.52 0 01-2.523-2.525 2.52 2.52 0 012.523-2.526 2.526 2.526 0 010 5.05zM27.884 8.367a2.52 2.52 0 01-2.522-2.525 2.52 2.52 0 012.522-2.526 2.526 2.526 0 010 5.05zM35.427 8.367a2.52 2.52 0 01-2.523-2.525 2.52 2.52 0 012.523-2.526 2.52 2.52 0 012.522 2.526 2.531 2.531 0 01-2.522 2.525zM43.018 8.367a2.52 2.52 0 01-2.522-2.525 2.52 2.52 0 012.522-2.526 2.526 2.526 0 010 5.05zM5.158 15.945a2.52 2.52 0 01-2.522-2.525 2.52 2.52 0 012.522-2.525A2.52 2.52 0 017.68 13.42a2.531 2.531 0 01-2.522 2.525zM12.725 15.945a2.52 2.52 0 01-2.522-2.525 2.52 2.52 0 012.522-2.525 2.52 2.52 0 012.522 2.525 2.531 2.531 0 01-2.522 2.525zM20.318 15.945a2.52 2.52 0 01-2.523-2.525 2.52 2.52 0 012.523-2.525 2.526 2.526 0 010 5.05zM27.884 15.945a2.52 2.52 0 01-2.522-2.525 2.52 2.52 0 012.522-2.525 2.526 2.526 0 010 5.05zM35.427 15.945a2.52 2.52 0 01-2.523-2.525 2.52 2.52 0 012.523-2.525 2.52 2.52 0 012.522 2.525 2.531 2.531 0 01-2.522 2.525zM43.018 15.945a2.52 2.52 0 01-2.522-2.525 2.52 2.52 0 012.522-2.525 2.526 2.526 0 010 5.05zM5.158 23.547a2.52 2.52 0 01-2.522-2.526 2.52 2.52 0 012.522-2.525 2.526 2.526 0 010 5.05zM12.725 23.547a2.52 2.52 0 01-2.522-2.526 2.52 2.52 0 012.522-2.525 2.526 2.526 0 010 5.05zM20.318 23.547a2.52 2.52 0 01-2.523-2.526 2.52 2.52 0 012.523-2.525 2.52 2.52 0 012.522 2.525 2.52 2.52 0 01-2.522 2.526zM27.884 23.547a2.52 2.52 0 01-2.522-2.526 2.52 2.52 0 012.522-2.525 2.52 2.52 0 012.523 2.525 2.52 2.52 0 01-2.523 2.526zM35.427 23.547a2.52 2.52 0 01-2.523-2.526 2.52 2.52 0 012.523-2.525 2.526 2.526 0 010 5.05zM43.018 23.547a2.52 2.52 0 01-2.522-2.526 2.52 2.52 0 012.522-2.525 2.52 2.52 0 012.523 2.525 2.52 2.52 0 01-2.523 2.526zM5.158 31.121a2.52 2.52 0 01-2.522-2.525 2.52 2.52 0 012.522-2.526 2.526 2.526 0 010 5.05zM12.725 31.121a2.52 2.52 0 01-2.522-2.525 2.52 2.52 0 012.522-2.526 2.526 2.526 0 010 5.05zM20.318 31.121a2.52 2.52 0 01-2.523-2.525 2.52 2.52 0 012.523-2.526 2.52 2.52 0 012.522 2.526 2.52 2.52 0 01-2.522 2.525zM5.158 38.7a2.52 2.52 0 01-2.522-2.526 2.52 2.52 0 012.522-2.526 2.526 2.526 0 010 5.05zM12.725 38.7a2.52 2.52 0 01-2.522-2.526 2.52 2.52 0 012.522-2.526 2.526 2.526 0 010 5.05zM20.318 38.7a2.52 2.52 0 01-2.523-2.526 2.52 2.52 0 012.523-2.526 2.52 2.52 0 012.522 2.526 2.52 2.52 0 01-2.522 2.525zM5.158 46.27a2.52 2.52 0 01-2.522-2.526 2.52 2.52 0 012.522-2.525 2.526 2.526 0 010 5.05zM12.725 46.27a2.52 2.52 0 01-2.522-2.526 2.52 2.52 0 012.522-2.525 2.526 2.526 0 010 5.05zM20.318 46.27a2.52 2.52 0 01-2.523-2.526 2.52 2.52 0 012.523-2.525 2.52 2.52 0 012.522 2.525 2.52 2.52 0 01-2.522 2.525z" fill="#50E6FF"/><path d="M48.122 47.016l-7.306-7.24a8.563 8.563 0 001.757-5.202c0-4.739-3.843-8.586-8.576-8.586-4.734 0-8.576 3.847-8.576 8.586 0 4.74 3.842 8.587 8.576 8.587a8.502 8.502 0 005.011-1.617l7.34 7.273 1.774-1.801zm-14.125-6.38c-3.338 0-6.054-2.72-6.054-6.062 0-3.341 2.716-6.06 6.054-6.06s6.053 2.719 6.053 6.06c0 3.342-2.715 6.061-6.053 6.061z" fill="#0078D4"/></svg>