<svg xmlns="http://www.w3.org/2000/svg" viewBox="0 0 163.603 102.964"><path d="M142.878 29.914a18.029 18.029 0 00-2.117.08 21.5 21.5 0 002.117-9.181 20.759 20.759 0 00-41.378-2.442A20.746 20.746 0 0065.319 31.22a19.687 19.687 0 00-7.232-1.306 20.772 20.772 0 000 41.543h84.791a20.772 20.772 0 000-41.543z" fill="#b1e1f2"/><path d="M97.487 98.78l-3.635.274a8.754 8.754 0 01-7.983-3.221v-9.952H102.4v10.98z" fill="#eacaa0"/><path fill="#f0ae00" d="M99.623 64.749h2.639v11.527h-2.639z"/><path d="M119.718 24.2v28.61l1.5 4.253V25.988a1.86 1.86 0 00-1.5-1.788zM76.534 56.312v20.719A2.515 2.515 0 0079.1 79.5h5.7l-.357-.891H80.1a2.333 2.333 0 01-2.35-2.267V59.675zm44.683 19.006l-1.5.48v2.815h-8.547l-2.709.891h10.615a2.105 2.105 0 002.14-2.063z" fill="#e5a600"/><path d="M77.749 32.851l-1.215 1.165v22.3l1.215 3.362zm41.969 19.96V75.8l1.5-.48V57.064zm-8.547 25.8H102.4v.889h6.057zm-15.325 0h-11.4l.357.891h11.043z" fill="#969696"/><path d="M119.718 78.613H80.1a2.333 2.333 0 01-2.35-2.267V32.64l9.05-9.193h32.918v55.166z" fill="#fff"/><path fill="#d1d1d1" d="M86.8 23.447v9.193h-9.051l9.051-9.193zm32.918 55.166V23.447a1.435 1.435 0 011.5 1.446v52.275a1.438 1.438 0 01-1.5 1.445zM79.243 39.778v19.76h37.84v-.274H79.53V39.778h-.287z"/><path fill="#001a41" d="M90.928 49.523h4.347V59.4h-4.347zm5.491-3.363h4.347V59.4h-4.347zm5.489-3.362h4.347v16.603h-4.347zM80.882 56.792h1.429v2.609h-1.429zm35.418-1.508h1.423v4.117H116.3zm-2.495 0h1.429v4.117h-1.429zm-30.498 0h1.423v4.117h-1.423z"/><path fill="#fff" d="M48.243 41.838V58.99h15.61v-1.028H49.316V41.838h-1.073z"/><path fill="#fff" d="M47.602 43.962h2.355v.206h-2.355zm0 2.062h2.355v.137h-2.355zm0 1.985h2.355v.206h-2.355zm0 2.062h2.355v.137h-2.355zm0 1.987h2.355v.206h-2.355zm0 2.062h2.355v.137h-2.355zm0 2.055h2.355v.137h-2.355zm14.18 1.302h.142v2.198h-.142zm-2.133 0h.142v2.198h-.142zm-2.07 0h.142v2.198h-.142zm-2.136 0h.142v2.198h-.142zm-2.063 0h.142v2.198h-.142zm-2.143 0h.142v2.198h-.142z"/><path fill="#002050" d="M61.855 42.455h.426l1.714 2.397-.284 1.72h-.427l-.93-1.235-1.852 10.702h-.426l1.779-13.584z"/><path fill="#001a41" d="M60.076 56.039l-2.427-4.323-2.206 3.91-1.993-4.938-.788 2.397-1.21-.341 1.928-5.762 2.278 5.762 1.991-3.569 1.786 3.158 1.566-8.646 1.21.207-2.135 12.145z"/><path fill="#002050" d="M63.284 46.572l-1.786-2.404-2.42 1.719.284-1.789 2.493-1.643 1.713 2.397-.284 1.72zm-5.635 2.603h.433l1.425 2.608-.072.55-1.786-3.158zm-2.206 6.451h.427l1.993-3.43-.214-.48-2.206 3.91zm-2.063-8.644h.426l2.064 5.351-.212.411-2.278-5.762zm-.718 6.103h.426l.646-1.849-.284-.548-.788 2.397z"/><path d="M69.2 50.755h.215c0-7.2-6.127-13.033-13.611-13.033a13.078 13.078 0 100 26.139 13.407 13.407 0 0013.607-13.106h-.357a12.389 12.389 0 01-3.849 9.056 13.428 13.428 0 01-9.405 3.773 13.568 13.568 0 01-9.408-3.773 12.7 12.7 0 01-3.849-9.056 12.538 12.538 0 013.849-8.987A13.568 13.568 0 0155.8 38a13.428 13.428 0 019.405 3.773 12.229 12.229 0 013.849 8.987zm75.889-.067v9.4a9.557 9.557 0 01-9.762-9.4 7.936 7.936 0 01.5-2.884z" fill="#fff"/><path d="M145.089 50.688v-9.33a9.372 9.372 0 110 18.728z" fill="#001a41"/><path d="M158.488 50.688h.142a13.292 13.292 0 00-13.541-13.036c-7.484 0-13.611 5.831-13.611 13.036a13.585 13.585 0 0027.153 0h-.284a12.7 12.7 0 01-3.849 9.054 13.56 13.56 0 01-9.408 3.775 13.419 13.419 0 01-9.405-3.775 12.383 12.383 0 01-3.849-9.054 12.225 12.225 0 013.849-8.987 13.419 13.419 0 019.405-3.775 13.56 13.56 0 019.41 3.774 12.534 12.534 0 013.849 8.987z" fill="#fff"/><path d="M102.4 72.024h-6.554v29.707a1.257 1.257 0 001.287 1.233h3.919a1.272 1.272 0 001.352-1.233z" fill="#001a41"/><path d="M97.7 72.024h-1.854v10.425H97.7zm0 14.337h-1.854v.274H97.7zm-1.856 4.186v11.184a1.257 1.257 0 001.287 1.233h.569v-4.732a1.962 1.962 0 01-1.282-1.782v-.07a1.965 1.965 0 011.282-1.786v-.548a2.191 2.191 0 01-.711-1.576 1.953 1.953 0 01.711-1.513v-.411h-1.854z" fill="#66768d"/><path d="M102.4 72.024h-1.926v10.425h1.926zm0 14.337h-1.926v.274h1.926zm0 12.008h-1.926v4.6h.574a1.272 1.272 0 001.352-1.233z" fill="#000a1a"/><path d="M96.419 96.45a2.018 2.018 0 002.066 1.919h4.845a1.967 1.967 0 001.993-1.989v-.274a1.656 1.656 0 00-1.709-1.65h-5.129a1.978 1.978 0 00-2.066 1.924z" fill="#edbf9f"/><path d="M103.614 94.457a1.656 1.656 0 011.709 1.65 1.656 1.656 0 00-1.709-1.65z" fill="#ffc733"/><path d="M103.614 94.457h-5.129a1.588 1.588 0 00-.783.137 1.965 1.965 0 00-1.282 1.787v.07c0 .067 0 .067.072.137a1.935 1.935 0 011.993-1.719h5.129a1.65 1.65 0 011.709 1.582v-.343a1.656 1.656 0 00-1.709-1.651z" opacity=".11"/><path d="M96.991 92.471a1.966 1.966 0 001.991 1.986h6.7a2.028 2.028 0 002.063-1.986V92.2a1.659 1.659 0 00-1.707-1.65h-7.06a1.913 1.913 0 00-1.991 1.924z" fill="#edbf9f"/><path d="M106.041 90.547a1.659 1.659 0 011.707 1.65 1.659 1.659 0 00-1.707-1.65z" fill="#ffc733"/><path d="M100.478 90.547h-1.5a2.04 2.04 0 00-1.28.411 2.04 2.04 0 011.28-.411z" fill="#334867"/><path d="M97.7 90.958a1.953 1.953 0 00-.711 1.513 1.953 1.953 0 01.711-1.513z" fill="#8591a4"/><path d="M106.041 90.547h-7.06a2.04 2.04 0 00-1.28.411 1.953 1.953 0 00-.711 1.513v.2a1.931 1.931 0 011.991-1.717h7.06a1.693 1.693 0 011.707 1.58V92.2a1.659 1.659 0 00-1.707-1.653z" opacity=".11"/><path d="M93.852 88.558a2.029 2.029 0 002.063 1.989h10.268a2.029 2.029 0 002.063-1.989v-.274a1.661 1.661 0 00-1.709-1.65H95.915a1.977 1.977 0 00-2.063 1.924z" fill="#edbf9f"/><path d="M95.846 86.635a2 2 0 00-1.993 1.924 2 2 0 011.993-1.924z" fill="#896349"/><path d="M106.538 86.635H95.846a2 2 0 00-1.993 1.924v.207a2.05 2.05 0 012.063-1.712h10.622a1.691 1.691 0 011.709 1.576v-.343a1.642 1.642 0 00-1.637-1.65z" opacity=".11"/><path d="M99.2 63.448a12.426 12.426 0 1112.9-12.416 12.664 12.664 0 01-12.9 12.416zm0-26.273c-8.766 0-15.889 6.857-15.889 15.3S90.43 67.77 99.2 67.77s15.9-6.864 15.9-15.3-7.138-15.296-15.9-15.296z" fill="#ce9109"/><path d="M99.2 39.5a12.426 12.426 0 11-12.9 12.42A12.659 12.659 0 0199.2 39.5zm0 26.273c8.766 0 15.9-6.857 15.9-15.3 0-7.2-7.13-14.272-15.9-14.272s-15.893 7.35-15.893 14.28c0 8.44 7.123 15.296 15.893 15.296z" fill="#ce9109"/><path d="M99.2 63.448a12.426 12.426 0 1112.9-12.416 12.664 12.664 0 01-12.9 12.416zm0-27.719c-8.766 0-15.889 6.864-15.889 15.3s7.123 15.3 15.889 15.3 15.9-6.864 15.9-15.3-7.138-15.3-15.9-15.3z" fill="#f0ae00"/><path d="M99.2 63.448a12.426 12.426 0 1112.9-12.416 12.664 12.664 0 01-12.9 12.416zm0-27.719c-8.766 0-15.889 6.864-15.889 15.3s7.123 15.3 15.889 15.3 15.9-6.864 15.9-15.3-7.138-15.3-15.9-15.3z" fill="#f0ae00"/><path d="M115.092 51.031zm-31.785 0z" fill="#fff"/><path d="M99.2 35.729c-8.766 0-15.889 6.864-15.889 15.3v.615A15.669 15.669 0 0199.2 36.9c8.552 0 15.6 6.516 15.9 14.748v-.615c-.008-8.441-7.138-15.304-15.9-15.304z" fill="#f5c64d"/><path fill="#f0ae00" d="M97.702 67.016h2.776v5.007h-2.776z"/><path fill="#a87900" d="M97.702 70.996h2.776v1.028h-2.776z"/><path d="M93.568 84.442a1.91 1.91 0 001.993 1.919h9.547a1.955 1.955 0 002-1.919V84.1a1.709 1.709 0 00-1.716-1.652h-9.831a1.972 1.972 0 00-1.993 1.993z" fill="#edbf9f"/><path d="M105.393 82.449a1.709 1.709 0 011.716 1.652 1.709 1.709 0 00-1.716-1.652z" fill="#ffc733"/><path d="M105.393 82.449h-9.832a1.972 1.972 0 00-1.993 1.993v.207a1.926 1.926 0 011.993-1.712h9.832a1.646 1.646 0 011.716 1.576V84.1a1.709 1.709 0 00-1.716-1.651z" opacity=".11"/><path d="M83.095 82.792h15.532l8.482 3.638a3.156 3.156 0 01-1.357 1.856 5.2 5.2 0 01-4.989.548c-1.707-.617-3.919-1.719-5.7-.137 0 0-5.631 5.485-11.97.891v6.587l-11.618.411z" opacity=".11"/><path d="M81.451 82.449h16.036l8.482 3.638a3.156 3.156 0 01-1.357 1.856 5.2 5.2 0 01-4.989.548c-1.707-.617-3.919-1.719-5.7-.137 0 0-5.631 5.485-11.97.891v6.587l-6.274.411z" fill="#f6caa7"/><path fill="#b28100" d="M75.396 96.243l-1.567.07h1.567v-.07z"/><path fill="#f6caa7" d="M80.099 87.668h5.771v8.165h-5.771z"/><path d="M99.2 39.5a12.86 12.86 0 00-8.7 3.229l5.917 5.622v-2.19h4.348v6.376l1.14 1.172V42.8h4.346v15.1l1.425 1.371h1.21a11.993 11.993 0 003.208-7.822A12.631 12.631 0 0099.2 39.5zm9.4 20.038h-.571l.284.274c.148-.07.218-.207.287-.274z" fill="#fff"/><path d="M108.888 59.264h-1.21l.354.274h.571c.143-.07.213-.207.285-.274z" fill="#e8e8e8"/><path fill="#808da0" d="M100.768 46.161h-4.349v2.19l4.349 4.186v-6.376zm5.486-3.365h-4.346v10.913l4.346 4.184V42.796z"/><path d="M99.2 38.613a13.208 13.208 0 00-9.121 3.636l.427.48A12.86 12.86 0 0199.2 39.5a12.631 12.631 0 0112.9 11.938v-.411a12.343 12.343 0 00-3.779-8.783 13.2 13.2 0 00-9.121-3.631z" fill="#e7c884"/><path d="M112.1 51.031v.411a11.993 11.993 0 01-3.208 7.822c-.072.067-.142.2-.284.274-.072.067-.142.2-.287.274a11.954 11.954 0 003.779-8.781z" fill="#f8d780"/><path fill="#8e562e" d="M75.681 96.243v-1.717l1.641 1.58-1.641.137z"/><path d="M72.043 96.517V83l7.629-.485c.354 0 .711-.07 1.068-.07h.853v11.121a2.549 2.549 0 01-2.493 2.54l-4.346.274-.856.07z" fill="#fff"/><path d="M44.683 82.519a2.947 2.947 0 01-2.068-.617c-1.494-1.165-4.989-3.151-9.478-6.376L0 51.579V79.5l33.634 16.539A18.422 18.422 0 0045.823 98.3l32.067-2.056V82.449z" fill="#0078d7"/><path fill="none" stroke="#eee" stroke-miterlimit="10" stroke-width=".657" d="M86.8 23.447h32.918"/></svg>