<svg xmlns="http://www.w3.org/2000/svg" viewBox="0 0 48 49"><path d="M39.862.81H7.55v47h32.312v-47z" fill="#0078D4"/><path d="M33.987 6.685H13.425v8.812h20.562V6.685zM16.362 21.372h-2.937v2.938h2.937v-2.938zM16.362 30.185h-2.937v2.938h2.937v-2.938zM16.362 38.998h-2.937v2.937h2.937v-2.937zM25.175 21.372h-2.938v2.938h2.938v-2.938zM25.175 30.185h-2.938v2.938h2.938v-2.938zM25.175 38.998h-2.938v2.937h2.938v-2.937zM33.987 21.372H31.05v2.938h2.937v-2.938zM33.987 30.185H31.05v2.938h2.937v-2.938zM33.987 38.998H31.05v2.937h2.937v-2.937z" fill="#50E6FF"/></svg>