<svg xmlns="http://www.w3.org/2000/svg" viewBox="0 0 49 49"><path d="M36.739 43.84h-3.134v5.014h3.134V43.84zM36.739 38.078a6.815 6.815 0 011.559-4.316h-4.694v5.014h3.135v-.698zM43.715.898H5.801v17.644h37.914V.898z" fill="#0078D7"/><path d="M38.618 5.938H10.84v7.597h27.78V5.937z" fill="#50E6FF"/><path d="M43.707 23.656H33.605v5.015h10.102v-5.015zM15.835 43.84H5.733v5.014h10.102V43.84zM15.835 33.762H5.733v5.014h10.102v-5.014zM15.835 23.656H5.733v5.015h10.102v-5.015zM29.855 43.84H19.753v5.014h10.102V43.84zM29.855 33.762H19.753v5.014h10.102v-5.014zM29.855 23.656H19.753v5.015h10.102v-5.015z" fill="#0078D7"/><path d="M48.711 37.59c0-2.768-2.266-5.04-5.047-5.04-2.493 0-4.575 1.835-4.97 4.208h2.064c.134-.488.404-.934.775-1.305a2.998 2.998 0 012.131-.883c.8 0 1.56.311 2.132.883a2.99 2.99 0 01.885 2.13v1.21h-8.063v10.105h10.085v-9.431c.008-.917.008-1.658.008-1.876z" fill="#0078D4"/><path d="M43.665 44.96c.716 0 1.306-.58 1.306-1.304a1.306 1.306 0 00-2.612 0c.008.715.59 1.304 1.306 1.304z" fill="#50E6FF"/></svg>