<svg xmlns="http://www.w3.org/2000/svg" viewBox="0 0 17.423 17.404"><path d="M5.808 12.776H6.97l-1.162 1.162H1.5L0 12.44V1.161A1.125 1.125 0 01.091.708 1.174 1.174 0 01.341.34 1.187 1.187 0 01.708.09 1.137 1.137 0 011.162 0h11.615a1.129 1.129 0 01.453.09 1.177 1.177 0 01.617.617 1.125 1.125 0 01.091.454v4.646l-1.161 1.162V1.161h-1.162v5.808H2.323V1.161H1.162v10.79l.825.826h.336V8.13h8.131v1.162l-1.162 1.161V9.292H3.485v3.484h1.161v-2.323h1.162zM3.485 5.807h6.969V1.161H3.485zm12.123 1.162a1.852 1.852 0 01.712.136 1.78 1.78 0 01.576.376 1.758 1.758 0 01.386.572 1.847 1.847 0 010 1.4 1.753 1.753 0 01-.391.59l-6.506 6.506-3.415.851.853-3.421 6.507-6.5a1.7 1.7 0 01.59-.39 1.889 1.889 0 01.688-.12zm.463 2.26a.632.632 0 00.19-.463.605.605 0 00-.187-.458.651.651 0 00-.467-.177.738.738 0 00-.245.041.536.536 0 00-.209.131l-6.278 6.279-.309 1.225 1.226-.307z"/></svg>