<svg xmlns="http://www.w3.org/2000/svg" viewBox="0 0 49 49"><path d="M43.837 43.358H33.735v5.019h10.102v-5.019zM43.837 33.273H33.735v5.018h10.102v-5.018zM43.846.386H5.93v17.656h37.915V.386z" fill="#0078D7"/><path d="M38.748 5.429H10.97v7.603h27.778V5.429z" fill="#50E6FF"/><path d="M43.837 23.161H33.735v5.018h10.102v-5.018zM15.965 43.358H5.863v5.019h10.102v-5.019zM15.965 33.273H5.863v5.018h10.102v-5.018zM15.965 23.161H5.863v5.018h10.102v-5.018zM29.985 43.358H19.883v5.019h10.102v-5.019zM29.985 33.273H19.883v5.018h10.102v-5.018zM29.985 23.161H19.883v5.018h10.102v-5.018z" fill="#0078D7"/></svg>