<svg xmlns="http://www.w3.org/2000/svg" viewBox="0 0 24 24"><path d="M16.497 17.995l1.498-1.498v4.493H.023V6.014h1.498v13.478h14.976v-1.497m-1.498-5.99q-1.497 0-2.93.298-1.434.298-2.768.877-1.333.58-2.544 1.416t-2.24 1.901v-1.498q0-1.45.374-2.79t1.058-2.504q.685-1.164 1.638-2.118.954-.953 2.118-1.638 1.164-.684 2.504-1.058 1.34-.375 2.79-.375V.023l8.237 8.237L15 16.497v-4.493m1.498-5.99q-.714 0-1.334.006-.62.006-1.21.064-.592.059-1.188.205-.597.146-1.264.427-1.018.421-1.89 1.076-.871.655-1.556 1.492-.684.837-1.158 1.813-.474.977-.696 2.054 1.966-1.31 4.2-1.977 2.235-.667 4.598-.667h1.498v2.375L21.12 8.26l-4.622-4.621v2.375z"/></svg>