<svg xmlns="http://www.w3.org/2000/svg" viewBox="0 0 49 49"><path d="M.02 48.363h48v-48h-48v48z" fill="#0078D4"/><path d="M.02 5.395h48V.371h-48v5.024zM19.563 15.11v21.45h-4.614V20.32c-.49.431-1.139.812-1.957 1.158a9.83 9.83 0 01-2.505.677v-3.89c2.32-.686 4.412-1.735 6.275-3.147h2.8v-.009zM28.612 32.735h8.898v3.831H23.543v-1.581c0-1.117.202-2.123.607-3.045a9.769 9.769 0 011.637-2.546c.683-.778 1.788-1.717 3.306-2.808 1.35-.964 2.302-1.819 2.876-2.571.573-.745.86-1.54.86-2.377 0-1.819-1.029-2.724-3.087-2.724-1.805 0-3.534.72-5.178 2.149v-4.069c1.821-1.184 3.88-1.767 6.174-1.767 2.108 0 3.77.532 4.984 1.598 1.215 1.066 1.822 2.52 1.822 4.365 0 1.031-.177 1.97-.54 2.808a8.3 8.3 0 01-1.552 2.351c-.674.727-1.754 1.607-3.247 2.639-1.425 1.015-2.378 1.793-2.86 2.326-.497.541-.733 1.015-.733 1.42z" fill="#50E6FF"/></svg>