<svg xmlns="http://www.w3.org/2000/svg" viewBox="0 0 25.346 24.596"><path d="M19.5 2.026H24l-.006 21.061L0 23.092.006 2.031H4.5V.525H6v1.5h12V.521h1.5zm-18 19.561l20.992-.006V8.042L1.5 8.048zm3-18.053h-3v3.01l21-.006V3.529h-3v1.5H18V3.53H6v1.5H4.5zm0 13.539v-1.5H6v1.5zm0 3.009v-1.5H6v1.5zm0-6.018v-1.5H6v1.5zM9 17.072v-1.5h1.5v1.5zm0 3.009v-1.5h1.5v1.5zm0-6.018v-1.5h1.5v1.5zm0-3.009v-1.5h1.5v1.5zm4.5 6.017v-1.5H15v1.5zm0 3.009v-1.5H15v1.5zm0-6.018v-1.5H15v1.5zm0-3.009V9.55H15v1.5zm4.5 6.016v-1.5h1.5v1.5zm0-3.009v-1.5h1.5v1.5zm0-3.009v-1.5h1.5v1.5z" fill="#fff" stroke="#fff" stroke-miterlimit="10" stroke-width=".207"/></svg>