<svg xmlns="http://www.w3.org/2000/svg" viewBox="0 0 49 49"><path d="M.02 48.297h48V4.793h-48v43.504z" fill="#0078D4"/><path d="M.02 5.4h48V.297h-48V5.4zM11.278 35.54H6.251v5.026h5.027V35.54zM18.883 35.54h-5.027v5.026h5.027V35.54zM26.453 35.54h-5.027v5.026h5.027V35.54z" fill="#50E6FF"/><path d="M34.015 35.54h-5.027v5.026h5.027V35.54z" fill="#fff"/><path d="M41.62 35.54h-5.028v5.026h5.027V35.54zM11.278 27.977H6.251v5.027h5.027v-5.027z" fill="#50E6FF"/><path d="M18.883 27.977h-5.027v5.027h5.027v-5.027z" fill="#fff"/><path d="M26.453 27.977h-5.027v5.027h5.027v-5.027zM34.015 27.977h-5.027v5.027h5.027v-5.027zM41.62 27.977h-5.028v5.027h5.027v-5.027zM11.278 20.414H6.251v5.027h5.027v-5.027zM18.883 20.414h-5.027v5.027h5.027v-5.027z" fill="#50E6FF"/><path d="M26.453 20.414h-5.027v5.027h5.027v-5.027z" fill="#fff"/><path d="M34.015 20.414h-5.027v5.027h5.027v-5.027zM41.62 20.414h-5.028v5.027h5.027v-5.027z" fill="#50E6FF"/><path d="M11.278 12.895H6.251v5.027h5.027v-5.027z" fill="#fff"/><path d="M18.883 12.895h-5.027v5.027h5.027v-5.027zM26.453 12.895h-5.027v5.027h5.027v-5.027zM34.015 12.895h-5.027v5.027h5.027v-5.027zM41.62 12.895h-5.028v5.027h5.027v-5.027z" fill="#50E6FF"/></svg>