<svg xmlns="http://www.w3.org/2000/svg" viewBox="0 0 32 30"><path d="M26 0h-2v2H8V0H6v2H0v28h32V2h-6V0zM8 26H6v-2h2v2zm0-4H6v-2h2v2zm0-4H6v-2h2v2zm6 8h-2v-2h2v2zm0-4h-2v-2h2v2zm0-4h-2v-2h2v2zm0-4h-2v-2h2v2zm6 12h-2v-2h2v2zm0-4h-2v-2h2v2zm0-4h-2v-2h2v2zm0-4h-2v-2h2v2zm6 8h-2v-2h2v2zm0-4h-2v-2h2v2zm0-4h-2v-2h2v2zm4-10v4H2V4h4v2h2V4h16v2h2V4h4z" fill="#243A5E"/><path d="M8 24H6v2h2v-2zm6 0h-2v2h2v-2zm6 0h-2v2h2v-2z" fill="#0078D4"/><path d="M14 20h-2v2h2v-2zm0-4h-2v2h2v-2z" fill="#50E6FF"/><path d="M14 12h-2v2h2v-2z" fill="#0078D4"/><path d="M26 12h-2v2h2v-2z" fill="#50E6FF"/></svg>