<svg xmlns="http://www.w3.org/2000/svg" viewBox="0 0 47.881 66.403"><path fill="none" stroke="#7e7e7e" stroke-miterlimit="10" stroke-width="1.5" d="M21.359 6.456h9.038m-9.038 4.61h19.243m-19.243 4.611h19.243M3.664 21.08h9.279M3.664 39.326h9.279M3.664 25.641h17.502M3.664 30.203h13.717M3.664 34.764h12.221"/><path fill="none" stroke="#7e7e7e" stroke-miterlimit="10" stroke-width="1.75" d="M.875.875h46.131v55.076H.875z"/><path d="M14.77 16.464H13.2v-.43a3.715 3.715 0 00-3.628-3.8H9.4a3.807 3.807 0 00-1.92.5 3.681 3.681 0 00-1.373 1.378 3.8 3.8 0 00-.51 1.925v.43H4.031v-.43A5.284 5.284 0 015 12.932 5.183 5.183 0 016.842 11.3a3.918 3.918 0 01-.842-1 3.792 3.792 0 01-.561-1.9 4.261 4.261 0 01.3-1.655A3.919 3.919 0 016.6 5.472a3.989 3.989 0 011.269-.854 4.95 4.95 0 011.905-.3A3.446 3.446 0 0112.2 5.472a3.845 3.845 0 011.157 2.812 3.336 3.336 0 01-.841 2.479c-.2.2-.393.373-.564.519a5.063 5.063 0 011.867 1.652 5.358 5.358 0 01.95 3.1zM9.4 5.88A2.4 2.4 0 007 8.28a2.253 2.253 0 00.7 1.682 2.25 2.25 0 001.68.7 2.4 2.4 0 002.4-2.4A2.393 2.393 0 009.4 5.88z" fill="#7e7e7e"/><circle cx="29.338" cy="36.28" r="13.476" fill="none" stroke="#7e7e7e" stroke-miterlimit="10" stroke-width="1.75"/><path fill="none" stroke="#7e7e7e" stroke-miterlimit="10" stroke-width="1.75" d="M20.774 47.132L6.582 65.875"/><path d="M37.358 39.818s1.445-.877 1.4-1.289c-.226-1.938-1.41-5.5-2.493-6.346a25.423 25.423 0 00-6.125-2.606c-1.052-.239-1.369.357-2.3.985-1.126.763-3.617 3.289-3.208 4.591a1.013 1.013 0 00.284.4c1.117 1.107 3.718-2.414 4.863-1.868a25.417 25.417 0 017.909 6.933c.306.48-.864 1.666-1.4 1.844-.321.106-.743-.233-.743-.233S34.516 43.687 34 43.8c-.246.054-.8-.406-.8-.406s-1.21 1.259-1.815 1.3c-.247.016-.637-.41-.637-.41s-1.079 1.284-1.7 1.018c-2.868-1.234-8.231-6.4-9.739-9.215-.5-.939 3.584-6.829 4.026-7.424.417-.562 4.22 1.95 4.22 1.95" fill="none" stroke="#008272" stroke-linejoin="round"/><path fill="none" stroke="#008272" stroke-linecap="round" stroke-miterlimit="10" d="M35.914 42.378l-3.857-3.696m1.72 5.013l-3.885-3.528m1.371 4.33l-3.394-2.988"/></svg>