<svg xmlns="http://www.w3.org/2000/svg" viewBox="0 0 49 49"><path d="M25.287.52H22.76V48.51h2.526V.52zM19.393 7.676H.028V27.04h19.365V7.676zM38.337 27.04c-5.347 0-9.683-4.335-9.683-9.682 0-5.346 4.336-9.682 9.683-9.682 5.346 0 9.682 4.336 9.682 9.682 0 5.347-4.336 9.683-9.682 9.683zM2.554 36.305A2.522 2.522 0 00.028 38.83a2.522 2.522 0 002.526 2.525 2.522 2.522 0 002.526-2.525 2.522 2.522 0 00-2.526-2.526z" fill="#0078D4"/><path d="M9.71 41.356a2.526 2.526 0 100-5.051 2.526 2.526 0 000 5.051z" fill="#50E6FF"/><path d="M16.868 36.305a2.522 2.522 0 00-2.526 2.526 2.522 2.522 0 002.526 2.525 2.522 2.522 0 002.526-2.525 2.522 2.522 0 00-2.526-2.526zM31.18 36.305a2.522 2.522 0 00-2.526 2.526 2.522 2.522 0 002.526 2.525 2.522 2.522 0 002.526-2.525 2.522 2.522 0 00-2.526-2.526z" fill="#0078D4"/><path d="M38.337 41.356a2.526 2.526 0 100-5.051 2.526 2.526 0 000 5.051zM45.494 41.356a2.526 2.526 0 100-5.051 2.526 2.526 0 000 5.051z" fill="#50E6FF"/></svg>