<svg xmlns="http://www.w3.org/2000/svg" viewBox="0 0 49 49"><path d="M7.752.766H.19V8.31h7.56V.766zm40.432 0H12.82V8.31h35.363V.766zM7.752 13.395H.19v7.536h7.56v-7.536zm40.432 0H12.82v7.536h35.363v-7.536zM7.752 26.025H.19v7.544h7.56v-7.544zm40.432 0H12.82v7.544h35.363v-7.544zM7.752 38.657H.19v7.51h7.56v-7.51zm40.432 0H12.82v7.502h35.363v-7.502z" fill="#0078D4"/><path d="M43.233.766H12.82V8.31h30.412V.766zM38.03 13.395H12.82v7.536h25.21v-7.536zm-7.545 12.63H12.821v7.544h17.664v-7.544zm-7.544 12.632h-10.12v7.502h10.12v-7.502zM5.251.766H.191V8.31h5.06V.766zm-.008 12.629H.19v7.536h5.052v-7.536zm.008 12.63H.191v7.544h5.06v-7.544zm0 12.632H.191v7.502h5.06v-7.502z" fill="#50E6FF"/></svg>