<svg xmlns="http://www.w3.org/2000/svg" viewBox="0 0 49 49"><path d="M24.034.512C10.77.512.02 11.263.02 24.526S10.77 48.54 24.034 48.54c13.262 0 24.014-10.751 24.014-24.014C48.019 11.263 37.296.512 24.034.512zm0 35.217c-6.18 0-11.203-5.023-11.203-11.203s5.023-11.203 11.203-11.203 11.203 5.023 11.203 11.203-5.024 11.203-11.203 11.203z" fill="#0078D4"/><path d="M24.006 13.323L23.949.512C15.512.54 8.09 4.914 3.829 11.545l10.526 7.365c1.918-3.33 5.53-5.587 9.65-5.587z" fill="#50E6FF"/><path d="M12.83 24.527c0-2.031.537-3.95 1.496-5.587L3.83 11.547l-.056.085A23.891 23.891 0 00.02 24.528c0 3.527.761 6.885 2.144 9.904l11.71-5.164a11.102 11.102 0 01-1.043-4.74z" fill="#3BCAF4"/></svg>