<svg xmlns="http://www.w3.org/2000/svg" viewBox="0 0 49 49"><path d="M44.907 43.812H3.09a2.985 2.985 0 01-2.986-2.983V8.97A2.985 2.985 0 013.09 5.988h41.817a2.985 2.985 0 012.986 2.983V40.83a2.985 2.985 0 01-2.986 2.983z" fill="#0078D4"/><path d="M15.136 25.276l4.392 4.05 6.864-6.873 3.928 3.655 12.67-13.647v23.79H5.016l10.12-10.975z" fill="#50E6FF"/><path d="M29.723 39.386H18.3a.635.635 0 01-.63-.63c0-.345.285-.631.63-.631h11.424c.345 0 .631.286.631.63 0 .345-.286.63-.63.63z" fill="#fff"/></svg>