<svg xmlns="http://www.w3.org/2000/svg" viewBox="0 0 48 48"><path d="M24.758 10.202c4.174.19 7.962 1.914 10.846 4.638l4.834-4.984c-2.195-2.142-4.62-3.79-7.217-4.896-2.598-1.107-5.442-1.715-8.463-1.8v7.042z" fill="#0078D4"/><path d="M11.29 39.901l-4.8 4.943a8.12 8.12 0 00-.077-.084c-2.034-2.242-3.605-4.712-4.667-7.357C.674 34.726.084 31.795 0 28.68h6.789a17.954 17.954 0 004.495 11.21l.007.011zM6.79 27.12a17.953 17.953 0 014.52-11.2l-4.815-4.963c-2.077 2.264-3.677 4.765-4.75 7.442C.675 21.076.086 24.006 0 27.122l6.79-.002zm5.59-12.3c2.888-2.72 6.682-4.439 10.862-4.62V3.16c-3.018.085-5.861.693-8.46 1.8-2.597 1.106-5.022 2.754-7.218 4.896l4.816 4.965zm30.568 11.309v4.007H48V17.504H35.368v5.053h4.007l-9.997 9.997-5.377-5.378-.002-.001L12.953 38.22l.001.002 3.571 3.571L24 34.321l5.38 5.378 13.569-13.57z" fill="#50E6FF"/></svg>