<svg xmlns="http://www.w3.org/2000/svg" viewBox="0 0 48 48"><path d="M3.566 6.248A2.72 2.72 0 01.853 3.535C.853 2.04 2.05.8 3.566.8a2.724 2.724 0 010 5.448zM11.727 6.248a2.706 2.706 0 01-2.713-2.713C9.014 2.04 10.213.8 11.727.8a2.72 2.72 0 012.713 2.714c.021 1.514-1.22 2.734-2.713 2.734zM19.909 6.248a2.706 2.706 0 01-2.714-2.713C17.195 2.04 18.395.8 19.91.8a2.706 2.706 0 012.713 2.714c0 1.493-1.199 2.734-2.713 2.734zM28.154 6.248a2.706 2.706 0 01-2.714-2.713C25.44 2.04 26.64.8 28.154.8a2.706 2.706 0 012.713 2.714c0 1.493-1.22 2.734-2.713 2.734zM36.294 6.248a2.706 2.706 0 01-2.713-2.713C33.581 2.04 34.78.8 36.294.8a2.706 2.706 0 012.714 2.714c0 1.493-1.22 2.734-2.714 2.734zM44.476 6.248a2.706 2.706 0 01-2.713-2.713C41.763 2.04 42.983.8 44.476.8a2.72 2.72 0 012.713 2.714 2.698 2.698 0 01-2.713 2.734zM3.566 14.41a2.707 2.707 0 01-2.713-2.714 2.72 2.72 0 012.713-2.714 2.706 2.706 0 012.713 2.714 2.72 2.72 0 01-2.713 2.713zM44.476 14.41a2.707 2.707 0 01-2.713-2.714 2.72 2.72 0 012.713-2.714 2.706 2.706 0 012.713 2.714c.021 1.493-1.199 2.713-2.713 2.713zM3.524 22.696a2.725 2.725 0 010-5.448 2.707 2.707 0 012.713 2.714c.021 1.514-1.22 2.734-2.713 2.734zM19.888 22.696a2.706 2.706 0 01-2.713-2.713 2.72 2.72 0 012.713-2.713 2.72 2.72 0 012.713 2.713c.021 1.493-1.198 2.713-2.713 2.713zM28.154 22.696a2.707 2.707 0 01-2.714-2.713 2.72 2.72 0 012.714-2.713 2.707 2.707 0 012.713 2.713 2.72 2.72 0 01-2.713 2.713zM44.476 22.612a2.706 2.706 0 01-2.713-2.713 2.72 2.72 0 012.713-2.713 2.707 2.707 0 012.713 2.713c.021 1.493-1.199 2.713-2.713 2.713zM41.742 28.123a2.706 2.706 0 012.714-2.713 2.72 2.72 0 012.713 2.713 2.706 2.706 0 01-2.713 2.713 2.72 2.72 0 01-2.714-2.713zM41.742 36.242a2.706 2.706 0 012.714-2.714 2.72 2.72 0 012.713 2.714 2.706 2.706 0 01-2.713 2.713 2.706 2.706 0 01-2.714-2.713zM41.742 44.445a2.707 2.707 0 012.714-2.714 2.72 2.72 0 012.713 2.714 2.72 2.72 0 01-2.713 2.713c-1.494.021-2.714-1.199-2.714-2.713zM33.581 44.445a2.707 2.707 0 012.713-2.714 2.72 2.72 0 012.714 2.714 2.706 2.706 0 01-2.714 2.713c-1.493.021-2.713-1.199-2.713-2.713zM25.378 44.445a2.707 2.707 0 012.713-2.714 2.72 2.72 0 012.714 2.714 2.706 2.706 0 01-2.714 2.713c-1.493.021-2.713-1.199-2.713-2.713zM3.63 30.857a2.706 2.706 0 01-2.714-2.713 2.72 2.72 0 012.713-2.713 2.706 2.706 0 012.714 2.713 2.72 2.72 0 01-2.714 2.713zM19.994 30.857a2.706 2.706 0 01-2.714-2.713 2.72 2.72 0 012.714-2.713 2.72 2.72 0 012.713 2.713 2.72 2.72 0 01-2.713 2.713zM28.154 25.43a2.707 2.707 0 012.713 2.714 2.72 2.72 0 01-2.713 2.713 2.72 2.72 0 01-2.713-2.713c-.021-1.493 1.199-2.713 2.713-2.713zM3.63 39.04a2.706 2.706 0 01-2.714-2.714 2.706 2.706 0 012.713-2.713 2.706 2.706 0 012.714 2.713 2.72 2.72 0 01-2.714 2.713zM3.63 47.2a2.706 2.706 0 01-2.714-2.713 2.706 2.706 0 012.713-2.713 2.707 2.707 0 012.714 2.713 2.72 2.72 0 01-2.714 2.714zM11.79 47.2a2.707 2.707 0 01-2.713-2.713 2.706 2.706 0 012.713-2.713 2.72 2.72 0 012.714 2.713 2.72 2.72 0 01-2.713 2.714zM19.994 47.2a2.706 2.706 0 01-2.714-2.713 2.706 2.706 0 012.714-2.713 2.72 2.72 0 012.713 2.713 2.72 2.72 0 01-2.713 2.714z" fill="#50E6FF"/><path d="M11.748 19.898H9.056V8.94h10.853v2.776h-8.161v8.182zM19.95 36.347v2.692H8.993V28.186h2.756v8.161h8.203zM28.112 11.717V9.003h10.896V19.92H36.23v-8.203h-8.119zM36.252 28.08h2.692V39.04H28.091v-2.776h8.16V28.08z" fill="#0078D4"/></svg>