<svg xmlns="http://www.w3.org/2000/svg" viewBox="0 0 50 50"><path d="M.395 43.997h48.607V6.569H.395v37.428z" fill="#0078D4"/><path d="M.395 10.899h48.59V5.834H.395v5.065z" fill="#50E6FF"/><path d="M7.967 9.703a1.237 1.237 0 100-2.474 1.237 1.237 0 000 2.474zm-3.837 0a1.237 1.237 0 100-2.474 1.237 1.237 0 000 2.474zm7.76 0a1.237 1.237 0 100-2.474 1.237 1.237 0 000 2.474z" fill="#0078D4"/><path d="M13.642 37.372h-1.209v1.181h1.21v-1.18zm2.419-1.238h-1.209v2.418h1.21v-2.418zm3.628-1.21H17.27v3.628h2.419v-3.628zm3.628-2.417h-2.419v6.047h2.42v-6.047zm5.442-4.838H25.13v10.884h3.628V27.669z" fill="#fff"/><path d="M35.41 15.576h-4.837v22.977h4.838V15.576z" fill="#50E6FF"/></svg>