<svg xmlns="http://www.w3.org/2000/svg" viewBox="0 0 49 49"><path d="M23.57 24.467L4.623 43.414l.893.893L24.464 25.36l-.893-.893z" fill="#50E6FF"/><path d="M23.42 24.714l-6.318 18.95 1.198.4 6.318-18.95-1.198-.4z" fill="#50E6FF"/><path d="M23.823 24.315l-18.95 6.318.4 1.198 18.95-6.318-.4-1.198z" fill="#50E6FF"/><path d="M5.276 18.005l-.399 1.198 18.95 6.316.4-1.198-18.95-6.316z" fill="#50E6FF"/><path d="M24.463 24.466l-.893.893 18.948 18.948.893-.893-18.948-18.948z" fill="#50E6FF"/><path d="M24.62 24.726l-1.198.399 6.316 18.95 1.198-.4-6.316-18.95z" fill="#50E6FF"/><path d="M24.222 24.317l-.4 1.199 18.95 6.316.4-1.199-18.95-6.316z" fill="#50E6FF"/><path d="M42.769 17.998l-18.95 6.318.399 1.199 18.95-6.318-.4-1.199z" fill="#50E6FF"/><path d="M18.306 5.772l-1.199.4 6.317 18.95 1.198-.4-6.316-18.95z" fill="#50E6FF"/><path d="M42.518 5.521L23.57 24.47l.893.893L43.412 6.415l-.893-.894z" fill="#50E6FF"/><path d="M24.019 36.284c-6.282 0-11.369-5.086-11.369-11.369 0-6.282 5.087-11.368 11.369-11.368s11.368 5.086 11.368 11.368c0 6.283-5.086 11.369-11.368 11.369zM10.125 38.809H.02v10.105h10.105V38.809zM20.23 41.336h-5.052v5.053h5.052v-5.053zM35.389 38.809H25.282v10.105h10.105V38.809zM45.494 41.336h-5.053v5.053h5.053v-5.053zM10.125 13.547H.02v10.105h10.105V13.547zM7.598 28.703H2.545v5.053h5.053v-5.053zM45.494 16.07h-5.053v5.053h5.053V16.07zM48.021 26.18H37.916v10.105h10.105V26.18zM20.23 3.438h-5.052V8.49h5.052V3.437zM48.021.914H37.916V11.02h10.105V.914z" fill="#0078D4"/></svg>