<svg xmlns="http://www.w3.org/2000/svg" viewBox="0 0 48 49"><path d="M48 .766c0 13.255-10.745 24-24 24S0 14.021 0 .766m5.053 48a5.053 5.053 0 100-10.105 5.053 5.053 0 000 10.105zm12.674-15.201a2.526 2.526 0 100-5.052 2.526 2.526 0 000 5.052z" fill="#0078D4"/><path d="M17.727 18.52a5.053 5.053 0 100-10.106 5.053 5.053 0 000 10.106z" fill="#50E6FF"/><path d="M30.316 48.766a5.053 5.053 0 100-10.105 5.053 5.053 0 000 10.105zm12.631 0a5.053 5.053 0 100-10.105 5.053 5.053 0 000 10.105z" fill="#0078D4"/></svg>