<svg xmlns="http://www.w3.org/2000/svg" viewBox="0 0 48 49"><path d="M7.372 27.529l-.589-.79 7.897-5.921 10.292-4.162 6.154 6.13-.694.694-5.702-5.663-9.566 3.872-7.792 5.84z" fill="#50E6FF"/><path d="M24.851 19.213c1.09 0 1.976-.88 1.976-1.977 0-1.088-.879-1.976-1.976-1.976-1.089 0-1.976.88-1.976 1.976a1.985 1.985 0 001.976 1.977zM30.78 25.109c1.088 0 1.975-.88 1.975-1.976 0-1.089-.879-1.976-1.976-1.976-1.088 0-1.976.879-1.976 1.976 0 1.089.88 1.976 1.976 1.976zM14.994 23.205c1.09 0 1.976-.879 1.976-1.976 0-1.089-.879-1.976-1.976-1.976-1.089 0-1.976.88-1.976 1.976a1.984 1.984 0 001.976 1.976zM7.082 29.11c1.089 0 1.976-.88 1.976-1.977 0-1.088-.88-1.976-1.976-1.976-1.09 0-1.977.88-1.977 1.976a1.98 1.98 0 001.977 1.977z" fill="#0078D4"/><path d="M7.372 37.393l-.589-.79 7.897-5.92 10.292-4.163 6.154 6.13-.694.694-5.702-5.67-9.566 3.872-7.792 5.847z" fill="#50E6FF"/><path d="M24.851 29.07c1.09 0 1.976-.88 1.976-1.977 0-1.089-.879-1.976-1.976-1.976-1.089 0-1.976.88-1.976 1.976a1.98 1.98 0 001.976 1.977zM30.78 34.974c1.088 0 1.975-.88 1.975-1.976 0-1.09-.879-1.976-1.976-1.976-1.088 0-1.976.879-1.976 1.976 0 1.089.88 1.976 1.976 1.976zM14.994 33.062c1.09 0 1.976-.88 1.976-1.976 0-1.09-.879-1.977-1.976-1.977-1.089 0-1.976.88-1.976 1.976a1.98 1.98 0 001.976 1.977zM7.082 38.966c1.089 0 1.976-.88 1.976-1.976 0-1.09-.88-1.976-1.976-1.976-1.09 0-1.977.879-1.977 1.976s.888 1.976 1.977 1.976z" fill="#0078D4"/><path d="M3.146 45.177V11.324H1v36.313h.008v.008h33.917v-2.468H3.145zM1.089 9.001H47V1.766H1.09v7.235z" fill="#0078D4"/><path d="M7.227 7.509l-1.702-1.71c.25-.323.395-.726.395-1.162A1.909 1.909 0 004.01 2.734a1.904 1.904 0 100 3.807c.42 0 .814-.137 1.129-.371l1.71 1.71.38-.371zM2.646 4.637c0-.75.613-1.363 1.363-1.363s1.363.605 1.363 1.363c0 .75-.613 1.364-1.363 1.364s-1.363-.613-1.363-1.364z" fill="#fff"/><path d="M47 11.373h-9.67v7.38H47v-7.38z" fill="#0078D4"/><path d="M46.984 38.014h-9.655v9.655h9.647v-9.655h.008z" fill="#50E6FF"/><path d="M46.992 21.076H37.33v2.347h9.663v-2.347zM46.992 24.722H37.33v2.347h9.663v-2.347zM46.992 33.167H37.33v2.428h9.663v-2.428z" fill="#0078D4"/><path d="M46.992 28.416H37.33v2.347h9.663v-2.347z" fill="#50E6FF"/></svg>