<svg xmlns="http://www.w3.org/2000/svg" viewBox="0 0 50 50"><path d="M.412 43.74h48.607V6.313H.412V43.74z" fill="#0078D4"/><path d="M.412 10.644h48.59V5.578H.412v5.066z" fill="#50E6FF"/><path d="M7.984 9.45a1.237 1.237 0 100-2.473 1.237 1.237 0 000 2.473zM4.147 9.45a1.237 1.237 0 100-2.473 1.237 1.237 0 000 2.473zM11.907 9.45a1.237 1.237 0 100-2.473 1.237 1.237 0 000 2.473z" fill="#0078D4"/><path d="M13.66 37.117h-1.21v1.181h1.21v-1.18zM16.078 35.879H14.87v2.419h1.21v-2.42zM19.706 34.668h-2.419v3.628h2.419v-3.628zM23.334 32.254h-2.418V38.3h2.418v-6.047zM28.776 27.414h-3.628v10.884h3.628V27.414z" fill="#fff"/><path d="M35.428 15.32H30.59v22.977h4.838V15.32z" fill="#50E6FF"/></svg>