<svg xmlns="http://www.w3.org/2000/svg" viewBox="0 0 49 49"><path d="M6.79 42.375H5.525V24.223h13.489v1.26H6.789v16.892zM41.562 6.43H6.157v1.26h35.405V6.43z" fill="#0078D4"/><path d="M42.202 25.484H21.11v-1.26H40.94V7.062h1.263v18.422zM42.85 41.762H6.588v1.26H42.85v-1.26zM12.868 1.09H.138v12.695h12.73V1.09zM30.406.914h-12.73V13.61h12.73V.914z" fill="#50E6FF"/><path d="M47.936 1.008h-12.73v12.695h12.73V1.008z" fill="#0078D4"/><path d="M12.776 18.52H.045v12.695h12.73V18.52z" fill="#50E6FF"/><path d="M30.406 18.52h-12.73v12.695h12.73V18.52zM47.936 18.52h-12.73v12.695h12.73V18.52zM12.952 36.043H.222v12.695h12.73V36.043zM30.406 36.219h-12.73v12.695h12.73V36.219zM48.02 36.137H35.29v12.695h12.73V36.137z" fill="#0078D4"/></svg>