<svg xmlns="http://www.w3.org/2000/svg" viewBox="0 0 49 49"><path d="M2.45 21.098h17.728V3.336H2.451v17.762zM27.895 21.098h17.727V3.336H27.895v17.762zM2.45 46.461h17.728V28.7H2.451v17.762zM27.895 46.461h17.727V28.7H27.895v17.762z" fill="#0078D4"/><path d="M37.34 38.267H10.657V11.539h26.685v26.728zm-25.418-1.269h24.152v-24.19H11.924v24.19z" fill="#50E6FF"/><path d="M39.181 37.715a2.564 2.564 0 01-2.558 2.563 2.564 2.564 0 010-5.126c1.41 0 2.558 1.15 2.558 2.563zM13.974 37.633a2.564 2.564 0 01-2.558 2.563 2.564 2.564 0 010-5.126c1.41 0 2.558 1.15 2.558 2.563zM13.974 12.121a2.564 2.564 0 01-2.558 2.563 2.564 2.564 0 010-5.125c1.41 0 2.558 1.15 2.558 2.562zM39.181 12.121a2.564 2.564 0 01-2.558 2.563 2.564 2.564 0 01-2.558-2.563 2.564 2.564 0 012.558-2.562c1.41 0 2.558 1.15 2.558 2.562z" fill="#50E6FF"/></svg>