<svg xmlns="http://www.w3.org/2000/svg" viewBox="0 0 48 49"><path d="M6.77 42.227H5.507V24.075h13.488v1.26H6.77v16.892zM41.543 6.282H6.138v1.26h35.405v-1.26z" fill="#0078D4"/><path d="M42.182 25.336H21.091v-1.26h19.828V6.915h1.263v18.42zm.649 16.278H6.567v1.26h36.264v-1.26zM12.848.942H.118v12.695h12.73V.942zM30.386.766h-12.73v12.695h12.73V.766z" fill="#50E6FF"/><path d="M47.916.86h-12.73v12.695h12.73V.86z" fill="#0078D4"/><path d="M12.756 18.372H.026v12.695h12.73V18.372z" fill="#50E6FF"/><path d="M30.386 18.372h-12.73v12.695h12.73V18.372zm17.531 0H35.186v12.695h12.73V18.372zM12.933 35.895H.203V48.59h12.73V35.895zm17.453.175h-12.73v12.696h12.73V36.07zM48 35.989H35.27v12.695H48V35.989z" fill="#0078D4"/></svg>