<svg xmlns="http://www.w3.org/2000/svg" viewBox="0 0 49 49"><path d="M5.072.938H.02v5.05h5.052V.937zM5.072 8.094H.02v5.05h5.052v-5.05zM40.526 8.094h-5.053v5.05h5.053v-5.05z" fill="#0078D4"/><path d="M48.02 8.094h-5.053v5.05h5.052v-5.05zM48.02.914h-5.053v5.05h5.052V.914z" fill="#50E6FF"/><path d="M5.072 15.25H.02v5.05h5.052v-5.05zM40.526 15.25h-5.053v5.05h5.053v-5.05z" fill="#0078D4"/><path d="M48.02 15.25h-5.053v5.05h5.052v-5.05z" fill="#50E6FF"/><path d="M5.072 22.402H.02v5.05h5.052v-5.05z" fill="#0078D4"/><path d="M12.65 22.402H7.598v5.05h5.052v-5.05z" fill="#50E6FF"/><path d="M40.526 22.402h-5.053v5.05h5.053v-5.05z" fill="#0078D4"/><path d="M48.02 22.402h-5.053v5.05h5.052v-5.05z" fill="#50E6FF"/><path d="M5.072 29.555H.02v5.05h5.052v-5.05z" fill="#0078D4"/><path d="M12.65 29.555H7.598v5.05h5.052v-5.05z" fill="#50E6FF"/><path d="M40.526 29.555h-5.053v5.05h5.053v-5.05z" fill="#0078D4"/><path d="M48.02 29.555h-5.053v5.05h5.052v-5.05z" fill="#50E6FF"/><path d="M5.072 36.71H.02v5.05h5.052v-5.05z" fill="#0078D4"/><path d="M12.65 36.71H7.598v5.05h5.052v-5.05z" fill="#50E6FF"/><path d="M40.526 36.71h-5.053v5.05h5.053v-5.05z" fill="#0078D4"/><path d="M48.02 36.71h-5.053v5.05h5.052v-5.05z" fill="#50E6FF"/><path d="M5.072 43.863H.02v5.05h5.052v-5.05z" fill="#0078D4"/><path d="M12.65 43.863H7.598v5.05h5.052v-5.05z" fill="#50E6FF"/><path d="M40.526 43.863h-5.053v5.05h5.053v-5.05z" fill="#0078D4"/><path d="M48.02 43.863h-5.053v5.05h5.052v-5.05z" fill="#50E6FF"/><path d="M30.353 31.254l-5.078-5.067v2.56h-7.58v5.066h7.58v2.516l5.078-5.075zM30.353 18.563l-5.078-5.075v2.567h-7.58v5.067h7.58v2.516l5.078-5.075zM30.353 43.84l-5.078-5.067v2.559h-7.58v5.067h7.58v2.516l5.078-5.075z" fill="#0078D4"/></svg>