<svg xmlns="http://www.w3.org/2000/svg" viewBox="0 0 48 31"><path fill-rule="evenodd" clip-rule="evenodd" d="M27.035 16.066c0 5.645-5.922 10.22-13.226 10.22-.944 0-1.865-.076-2.753-.221-.768-.126-1.446 2.325-2.159 2.102-.35-.11-1.94 1.688-2.274 1.556-.485-.192.229-4.953-.22-5.188-3.512-1.837-5.82-4.945-5.82-8.47 0-5.644 5.921-10.22 13.226-10.22 7.304 0 13.226 4.576 13.226 10.22z" fill="#0078D4"/><path fill-rule="evenodd" clip-rule="evenodd" d="M6.869 30.264a.766.766 0 01-.321-.07.761.761 0 01-.452-.702v-4.505C2.273 22.992 0 19.693 0 16.113 0 10.212 6.204 5.411 13.83 5.411c7.624 0 13.828 4.801 13.828 10.702s-6.204 10.702-13.829 10.702c-.843 0-1.689-.059-2.518-.176l-3.938 3.434a.764.764 0 01-.504.191zm6.96-23.896C6.732 6.368.958 10.74.958 16.113c0 3.29 2.179 6.338 5.83 8.152a.48.48 0 01.265.429v4.387l3.795-3.309a.478.478 0 01.388-.112c.851.131 1.723.198 2.593.198 7.097 0 12.871-4.371 12.871-9.745 0-5.373-5.774-9.745-12.87-9.745z" fill="#0078D4"/><path fill-rule="evenodd" clip-rule="evenodd" d="M9.67 16.293a1.858 1.858 0 11-3.716 0 1.858 1.858 0 013.716 0zm6.33 0a1.858 1.858 0 11-3.716 0 1.858 1.858 0 013.715 0zm6.354 0a1.858 1.858 0 11-3.716 0 1.858 1.858 0 013.716 0z" fill="#fff"/><path fill-rule="evenodd" clip-rule="evenodd" d="M37.461 18.728c0-4.591-4.583-8.44-10.571-8.461 1.622 1.77 2.318 4.049 2.318 6.376 0 4.127-2.994 7.717-7.41 9.568 1.444.542 3.06.853 4.777.853.945 0 1.862-.092 2.736-.265l3.358 2.928a.255.255 0 00.422-.192v-4.128c2.653-1.521 4.37-3.946 4.37-6.68zm10.119-.609a2.095 2.095 0 11-3.35 2.52L35.91 9.574c-.122.02-.243.041-.367.054a4.832 4.832 0 01-5.284-4.333 4.793 4.793 0 01.286-2.15l2.174 2.21a2.096 2.096 0 003.003-2.922L33.569.243a4.83 4.83 0 016.32 4.112 4.794 4.794 0 01-.569 2.78l8.26 10.984zm-1.57 2.62a1.377 1.377 0 10-.268-2.74 1.377 1.377 0 00.268 2.74z" fill="#50E6FF"/></svg>