<svg xmlns="http://www.w3.org/2000/svg" viewBox="0 0 49 49"><path d="M24.188 39.36c8.51 0 15.41-6.894 15.41-15.398 0-8.505-6.9-15.4-15.41-15.4s-15.41 6.895-15.41 15.4c0 8.504 6.9 15.399 15.41 15.399z" fill="#0078D4"/><path d="M32.795 18.753l-2.133-2.14-10.706 10.699-3.203-3.21-2.141 2.14 5.344 5.34 12.84-12.829z" fill="#50E6FF"/><path d="M41.857 40.204a23.89 23.89 0 006.061-14.7h-4.906a18.833 18.833 0 01-4.645 11.212l3.49 3.488z" fill="#0078D4"/><path d="M6.19 8.184A23.841 23.841 0 00.037 22.976H5.17A18.899 18.899 0 019.798 11.79L6.19 8.184z" fill="#50E6FF"/><path d="M7.994 42.105a23.914 23.914 0 0014.803 6.074v-5.021a18.9 18.9 0 01-11.195-4.65l-3.608 3.597zM.037 25.504a23.88 23.88 0 006.145 14.793L9.79 36.69a18.838 18.838 0 01-4.62-11.187H.037z" fill="#0078D4"/><path d="M41.849 8.273l-3.49 3.488a18.85 18.85 0 014.653 11.212h4.906a23.85 23.85 0 00-6.07-14.7z" fill="#50E6FF"/><path d="M25.326 48.161a23.879 23.879 0 0014.727-6.15l-3.499-3.495a18.926 18.926 0 01-11.228 4.633v5.012z" fill="#0078D4"/><path d="M25.326.332v5.012a18.891 18.891 0 0111.212 4.617l3.498-3.496A23.863 23.863 0 0025.326.332zM22.797.324C17.132.594 11.98 2.843 8.01 6.381l3.6 3.597a18.909 18.909 0 0111.177-4.633V.325h.009z" fill="#50E6FF"/></svg>