<svg xmlns="http://www.w3.org/2000/svg" viewBox="0 0 24 24"><path fill="#1B348E" d="M17.468 6.985l1.053 1.052-8.763 8.764-4.27-4.27 1.052-1.054 3.218 3.218 7.71-7.71zM12.004.023c1.1 0 2.16.142 3.183.427 1.021.285 1.977.686 2.866 1.205a11.89 11.89 0 012.428 1.872 11.91 11.91 0 011.872 2.428c.519.89.92 1.845 1.205 2.866.285 1.022.427 2.083.427 3.183 0 1.1-.142 2.16-.427 3.182a12.116 12.116 0 01-1.205 2.867 11.897 11.897 0 01-1.872 2.427c-.73.73-1.539 1.354-2.428 1.872-.89.52-1.845.92-2.866 1.206a11.801 11.801 0 01-3.183.427c-1.1 0-2.16-.143-3.182-.427a12.116 12.116 0 01-2.867-1.206 11.897 11.897 0 01-2.427-1.872 11.897 11.897 0 01-1.872-2.427c-.52-.89-.92-1.843-1.206-2.861a11.782 11.782 0 01-.427-3.188c0-1.1.143-2.16.427-3.183a12.116 12.116 0 011.206-2.866 11.897 11.897 0 011.872-2.428 11.876 11.876 0 012.427-1.872c.89-.519 1.843-.92 2.861-1.205a11.782 11.782 0 013.188-.427zm0 22.464c.96 0 1.886-.125 2.779-.374a10.484 10.484 0 004.627-2.703 10.51 10.51 0 002.703-4.622c.25-.889.374-1.817.374-2.784 0-.96-.124-1.886-.374-2.779a10.484 10.484 0 00-2.703-4.627 10.484 10.484 0 00-4.627-2.703c-.893-.25-1.82-.374-2.779-.374-.96 0-1.885.124-2.779.374a10.484 10.484 0 00-4.627 2.703 10.484 10.484 0 00-2.703 4.627c-.25.893-.374 1.82-.374 2.779 0 .96.125 1.885.374 2.779a10.484 10.484 0 002.703 4.627 10.51 10.51 0 004.622 2.703c.889.25 1.817.374 2.784.374z"/></svg>