<svg xmlns="http://www.w3.org/2000/svg" viewBox="0 0 48.559 57"><path d="M27.588 7.068a16.828 16.828 0 00-14.934 18.468A16.828 16.828 0 0031.122 40.47 16.828 16.828 0 0046.056 22 16.827 16.827 0 0029.412 6.954a10.432 10.432 0 01-1.824.114" fill="#fff"/><path d="M48.45 21.774a19.578 19.578 0 00-7.3-13.338c-.8-.57-1.6-1.14-2.394-1.6L37.164 9.8a10.331 10.331 0 011.824 1.254 16.067 16.067 0 016.042 11.062 16.247 16.247 0 01-14.478 17.9 16.134 16.134 0 01-8.436-1.368l-1.6 2.964a18.578 18.578 0 0010.374 1.71 19.9 19.9 0 0013.224-7.182 19.37 19.37 0 004.336-14.366" fill="#3999c6"/><path d="M18.7 36.48a16.278 16.278 0 018.55-28.842A16.193 16.193 0 0137.164 9.8l1.6-2.964A19.178 19.178 0 0026.9 4.332a19.9 19.9 0 00-13.22 7.182 19.3 19.3 0 00-4.218 14.364A19.9 19.9 0 0016.644 39.1a18.851 18.851 0 004.1 2.508l1.6-2.964A16.241 16.241 0 0118.7 36.48" fill="#a0a1a2"/><path d="M18.7 36.48a16.278 16.278 0 018.55-28.842A16.193 16.193 0 0137.164 9.8l1.6-2.964A19.178 19.178 0 0026.9 4.332a19.9 19.9 0 00-13.22 7.182 19.3 19.3 0 00-4.218 14.364A19.9 19.9 0 0016.644 39.1a18.851 18.851 0 004.1 2.508l1.6-2.964A16.241 16.241 0 0118.7 36.48" fill="#59b4d9"/><path d="M36.582 26.9l-6.6-2.4a1.393 1.393 0 111-2.6l6.6 2.4a1.367 1.367 0 01.8 1.8 1.5 1.5 0 01-1.8.8z" fill="#7a7a7a"/><path d="M29.182 24.3a1.367 1.367 0 01-1.4-1.4V11.2a1.4 1.4 0 012.8 0v11.7a1.367 1.367 0 01-1.4 1.4z" fill="#7a7a7a"/><circle cx="29.182" cy="22.9" r="2" fill="#1e1e1e"/><path d="M26.9 41.382l7.98 7.41L27.7 57l.114-5.358h-1.936a25.821 25.821 0 1118.468-43.89 22.492 22.492 0 00-38.19 15.96c0 11.856 9.69 21.546 21.318 22.344z" fill="#b8d432"/><path d="M28.272 49.476a25.658 25.658 0 01-12.54-47.424 25.89 25.89 0 0010.146 49.7h1.938L27.7 57l7.068-8.094a29.986 29.986 0 01-6.496.57z" fill="#1e1e1e" opacity=".2" style="isolation:isolate"/></svg>