<svg xmlns="http://www.w3.org/2000/svg" viewBox="0 0 48 48"><path d="M24.006 4.914h.041V.5C15.424.5 8.05 4.766 3.734 12.248l3.754 2.166c3.307-5.68 9.466-9.5 16.518-9.5z" fill="#0078D4"/><path d="M7.487 14.42l-3.754-2.174c-4.315 7.482-4.315 16.014 0 23.496l3.746-2.166a18.97 18.97 0 01-2.572-9.573c0-3.49.943-6.771 2.58-9.582zm16.519 28.683c-7.052 0-13.211-3.828-16.518-9.516l-3.745 2.166c4.315 7.482 11.682 11.748 20.313 11.748v-4.398h-.05z" fill="#50E6FF"/><path d="M47.501 23.995C47.501 11.015 37.001.5 24.047.5v4.414c10.524.025 19.048 8.565 19.048 19.09 0 10.524-8.524 19.073-19.048 19.097V47.5C37.002 47.5 47.5 36.975 47.5 23.995z" fill="#50E6FF"/><path d="M26.618 27.925c0-.794-.587-1.447-1.753-1.96v3.713c1.174-.19 1.753-.77 1.753-1.753zm-3.538-6.093v-3.886c-1.133.207-1.703.794-1.703 1.778.008.86.57 1.562 1.703 2.108zm6.795 5.92c0 1.355-.43 2.446-1.281 3.265-.852.827-2.092 1.33-3.729 1.521v2.654H23.08v-2.58c-1.679-.016-3.225-.388-4.63-1.124v-3.39c.438.356 1.14.712 2.108 1.05.967.34 1.802.53 2.513.58V25.27c-1.802-.67-3.083-1.405-3.828-2.199-.752-.794-1.124-1.844-1.124-3.142 0-1.298.463-2.389 1.38-3.282.927-.893 2.117-1.413 3.572-1.562v-2.274h1.786v2.224c1.72.083 3.01.356 3.853.835v3.307c-1.133-.686-2.423-1.108-3.853-1.273v4.638c1.802.653 3.092 1.389 3.853 2.199.785.818 1.165 1.819 1.165 3.01z" fill="#0078D4"/></svg>