<svg xmlns="http://www.w3.org/2000/svg" viewBox="0 0 48 48"><path d="M47.57 23.984C47.57 10.98 37.037.438 24.035.422v4.791c10.358.017 18.745 8.413 18.745 18.77 0 10.359-8.396 18.763-18.745 18.771v4.792c12.993-.017 23.537-10.56 23.537-23.562z" fill="#0078D4"/><path d="M3.596 12.169l4.151 2.408c3.25-5.6 9.305-9.364 16.253-9.364h.025v-4.8H24c-8.707 0-16.32 4.733-20.404 11.756z" fill="#fff"/><path d="M3.596 12.169l4.151 2.408a18.836 18.836 0 011.828-2.61C13.019 7.84 18.198 5.213 24 5.213h.025v-4.8H24c-7.183 0-13.617 3.217-17.945 8.286a24.384 24.384 0 00-2.46 3.47z" fill="#0078D4"/><path d="M5.22 23.984a18.7 18.7 0 012.527-9.407l-4.151-2.4A23.536 23.536 0 00.438 23.985c0 4.311 1.153 8.345 3.174 11.814l4.152-2.391a18.653 18.653 0 01-2.543-9.423zm2.527-9.406l-4.151-2.4 4.151 2.4z" fill="#50E6FF"/><path d="M24 42.763c-6.94 0-12.994-3.756-16.245-9.356l-4.151 2.4C7.688 42.83 15.292 47.546 24 47.546h.025v-4.792c-.009.009-.017.009-.025.009zM3.604 35.798l4.151-2.391-4.151 2.391zm10.788-.522c0-5.44 4.412-9.844 9.86-9.844 5.45 0 9.862 4.404 9.862 9.844H14.392zM29.86 18.013c0 3.082-2.5 5.575-5.59 5.575-3.091 0-5.593-2.493-5.593-5.575 0-3.082 2.502-5.575 5.592-5.575s5.592 2.493 5.592 5.575z" fill="#0078D4"/><path d="M9.861 11.638L6.122 8.632c-.017.025-.042.05-.059.076-.252.295-.497.598-.732.91l3.739 3.006c.168-.22.336-.438.513-.649a3.47 3.47 0 01.278-.337zm8.901-5.684l-1.524-4.547c-.404.118-.809.252-1.196.396l1.524 4.547a14.2 14.2 0 011.196-.396zm3.95-.699L22.198.49a31.72 31.72 0 00-1.255.126l.514 4.767c.413-.05.834-.101 1.255-.127zm-7.209 1.988l-2.35-4.177c-.37.193-.74.395-1.103.614l2.35 4.17c.362-.22.724-.421 1.103-.606zm-2.981 1.886l-3.09-3.672c-.329.261-.657.53-.969.809l3.09 3.663c.312-.278.64-.547.97-.8z" fill="#50E6FF"/></svg>