<svg xmlns="http://www.w3.org/2000/svg" viewBox="0 0 48 48"><path d="M47.916 26.651c0 6.518-2.615 12.421-6.85 16.733-.379.387-1.172 1.12-1.172 1.12l-31.584.185s-.582-.514-.86-.783C2.894 39.552.068 33.43.068 26.651.068 13.464 10.782 2.77 23.992 2.77c13.211 0 23.924 10.695 23.924 23.882z" fill="#50E6FF"/><path d="M24.017 2.746C10.807 2.746.093 13.44.093 26.628a23.77 23.77 0 006.42 16.278 24.766 24.766 0 001.855 1.785l2.742-2.737 2.843-2.838a17.678 17.678 0 01-1.873-1.768l-2.834 2.83a19.916 19.916 0 01-5.23-11.925h3.247a17.327 17.327 0 01-.05-2.568h-3.24c.11-2.375.633-4.674 1.552-6.847a19.76 19.76 0 013.392-5.398l2.303 2.3a16.792 16.792 0 011.813-1.82l-2.303-2.299a19.978 19.978 0 015.467-3.444 19.895 19.895 0 016.808-1.55v3.235c.329-.017.666-.034 1.003-.034.532 0 1.055.025 1.57.076V6.662c2.15.168 4.243.673 6.234 1.507a20.074 20.074 0 015.77 3.714l-2.295 2.29a15.482 15.482 0 011.772 1.87l2.303-2.3a19.93 19.93 0 014.682 11.941h-3.24a17.334 17.334 0 01-.05 2.57H44a19.662 19.662 0 01-1.51 6.163 19.936 19.936 0 01-3.45 5.457l-2.817-2.82a17.603 17.603 0 01-1.823 1.81l2.826 2.82 2.734 2.73a24.65 24.65 0 001.822-1.811 23.777 23.777 0 006.15-15.984C47.94 13.441 37.227 2.746 24.016 2.746z" fill="#0078D4"/><path d="M27.391 25.506a3.32 3.32 0 010 4.698 3.334 3.334 0 01-4.707 0c-1.3-1.296-7.61-12.294-7.61-12.294s11.018 6.299 12.317 7.596z" fill="#0078D4"/></svg>