<svg xmlns="http://www.w3.org/2000/svg" viewBox="0 0 48 48"><path d="M6.162 7.883A23.934 23.934 0 000 22.703h5.135a18.94 18.94 0 014.638-11.208l-3.61-3.612z" fill="#50E6FF"/><path d="M7.972 41.877a23.929 23.929 0 0014.816 6.088V42.93a18.894 18.894 0 01-11.213-4.657l-3.603 3.604zM0 25.238A23.917 23.917 0 006.145 40.06l3.612-3.612a18.975 18.975 0 01-4.622-11.209H0z" fill="#0078D4"/><path d="M41.855 7.977L38.36 11.47a18.83 18.83 0 014.656 11.234h4.916a23.895 23.895 0 00-6.078-14.728zM25.322.008v5.019a18.929 18.929 0 0111.23 4.623l3.501-3.503A23.96 23.96 0 0025.322.007zM22.788 0A23.937 23.937 0 007.98 6.072l3.603 3.604A18.942 18.942 0 0122.78 5.027V0h.009z" fill="#50E6FF"/><path d="M47.1 30.4c.454-1.659.74-3.385.833-5.162h-4.916c-.017.253-.042.506-.068.758A8.738 8.738 0 0147.1 30.4zM25.322 42.93v5.018a23.71 23.71 0 005.042-.825v-5.221c-1.6.564-3.291.91-5.043 1.027z" fill="#0078D4"/><path d="M37.722 25.186a5.96 5.96 0 00.059-.875 6.206 6.206 0 00-6.205-6.207c-.48 0-.942.051-1.389.16a7.973 7.973 0 00-6.742-3.713 7.982 7.982 0 00-7.973 8.311 4.036 4.036 0 00-1.279-.21 3.931 3.931 0 00-3.931 3.932 3.924 3.924 0 003.544 3.908l17.19.033a8.755 8.755 0 016.726-5.338z" fill="#50E6FF"/><path d="M45.408 33.735c0-3.478-2.846-6.333-6.33-6.333-3.124 0-5.734 2.3-6.23 5.289h2.593c.176-.615.505-1.17.968-1.634a3.778 3.778 0 015.354 0 3.765 3.765 0 011.11 2.678v1.524H32.756v12.69H45.4V36.077c.009-1.145.009-2.072.009-2.341z" fill="#0078D4"/><path d="M39.052 43.165a1.55 1.55 0 000-3.1 1.55 1.55 0 000 3.1z" fill="#50E6FF"/></svg>