<svg xmlns="http://www.w3.org/2000/svg" viewBox="0 0 60 51"><path d="M52.007 17.618a15.07 15.07 0 00.349-3.176C52.356 6.478 45.878 0 37.914 0a14.4 14.4 0 00-12.972 8.096 10.385 10.385 0 00-7.337-3.033C11.89 5.063 7.24 9.721 7.24 15.444c0 .776.086 1.56.261 2.365C2.794 19.73 0 23.714 0 28.56c0 6.534 5.332 11.653 12.136 11.653h.775C13.043 46.184 17.927 51 23.908 51c4.026 0 7.671-2.174 9.595-5.626a7.974 7.974 0 005.232 1.957c4.104 0 7.499-3.114 7.98-7.118h1.153C54.672 40.213 60 35.094 60 28.56c0-5.047-3.053-9.2-7.993-10.942" fill="#0076D2"/><path d="M47.13 23.303l.87-2.06-.252-.217-1.898-1.65.009-1.666L48 15.795l-.842-2.071-.33.022-2.511.18-1.172-1.189.16-2.869L41.245 9l-.217.25-1.651 1.902-1.668-.012L35.794 9l-2.07.84.024.332.177 2.511-1.186 1.17-2.87-.16-.869 2.06.252.217 1.9 1.651-.011 1.668-2.139 1.916.84 2.07.333-.025 2.508-.176 1.172 1.188-.16 2.866 2.06.87.218-.252 1.65-1.9 1.667.012L41.206 28l2.07-.841-.024-.334-.177-2.51 1.189-1.171 2.866.16zm-10.408-.59a4.572 4.572 0 01-2.437-5.991 4.574 4.574 0 118.43 3.556 4.573 4.573 0 01-5.993 2.436zM34 34.099V31.82l-.32-.104-2.437-.797-.648-1.57 1.251-2.644-1.608-1.609-.302.153-2.285 1.158-1.57-.651-.984-2.755L22.82 23l-.104.324-.798 2.434-1.57.648-2.644-1.25-1.609 1.609.153.302 1.158 2.286-.65 1.567-2.756.985v2.275l.321.106 2.437.796.649 1.571-1.252 2.642 1.608 1.613.302-.154 2.287-1.16 1.567.65.985 2.755L25.18 43l.105-.32.797-2.437 1.57-.648 2.643 1.251 1.611-1.607-.153-.302-1.16-2.285.653-1.57L34 34.099zM23.997 37.66a4.66 4.66 0 11.008-9.319 4.66 4.66 0 01-.008 9.32z" fill="#FFF"/><path d="M41.764 19.166a2.999 2.999 0 11-5.526-2.331 2.999 2.999 0 015.526 2.331M27 33.001A3 3 0 1120.999 33 3 3 0 0127 33" fill="#B8D432"/></svg>