<svg xmlns="http://www.w3.org/2000/svg" viewBox="0 0 48 49"><path d="M47.714 30.038c.025-.11.042-.21.067-.32.126-.657.194-1.34.194-2.038 0-5.979-4.85-10.813-10.811-10.813-.834 0-1.65.093-2.416.278-2.467-3.89-6.812-6.476-11.763-6.476-7.687 0-13.909 6.24-13.909 13.912 0 .194 0 .379.009.564a6.965 6.965 0 00-2.231-.37A6.85 6.85 0 000 31.629a6.841 6.841 0 006.172 6.813l30.992.059a10.81 10.81 0 009.455-5.558c.05-.093.101-.185.152-.286.278-.573.69-1.465.943-2.62z" fill="#0078D4"/><path d="M29.689 20.638c0-3.479-2.853-6.37-6.37-6.37-3.126 0-5.744 2.305-6.252 5.314h2.579a3.92 3.92 0 01.977-1.641 3.751 3.751 0 012.696-1.133c1.016 0 1.954.39 2.697 1.133.742.743 1.133 1.68 1.133 2.697v1.524h-10.16v12.742h12.7V20.638z" fill="#50E6FF"/><path d="M23.32 29.738a1.524 1.524 0 100-3.049 1.524 1.524 0 000 3.049z" fill="#0078D4"/></svg>