<svg xmlns="http://www.w3.org/2000/svg" viewBox="0 0 49 49"><path d="M48.02.516h-48v48h48v-48z" fill="#fff"/><path d="M.02 48.516h48v-48h-48v48z"/><path d="M.02 48.516h48v-48h-48v48z" fill="#0078D4"/><path d="M38.707 27.172h-.084a7.95 7.95 0 00.556-2.916c0-4.29-3.393-7.77-7.578-7.77-.884 0-1.734.16-2.526.456-2.08-2.647-5.27-4.34-8.84-4.34-6.273 0-11.367 5.216-11.367 11.654 0 1.011.135 1.989.38 2.924-2.308.06-4.16 1.98-4.16 4.357 0 2.41 1.911 4.374 4.26 4.374h29.36c2.357 0 4.26-1.956 4.26-4.374 0-2.41-1.903-4.365-4.26-4.365z" fill="#50E6FF"/></svg>