<svg xmlns="http://www.w3.org/2000/svg" viewBox="0 0 113 80"><g fill="none"><path fill="#A0A1A2" d="M0 65.906C0 67.534 1.148 69 3.116 69h75.768C80.524 69 82 67.86 82 65.906V12H0v53.906z"/><path fill="#7A7A7A" d="M78.884 0H3.116C1.148 0 0 1.421 0 3v9h82V3c0-1.579-1.148-3-3.116-3"/><path fill="#0072C6" d="M5 17h72v47H5z"/><path fill="#FFF" d="M3.138 0C1.65 0 0 1.479 0 3.122v63.756C0 68.52 1.651 70 3.138 70h3.468L72 0H3.138z" opacity=".2"/><path fill="#FFF" d="M23 28.375L10 23v2.591l10.054 3.885v.051L10 33.411V36l13-5.375z"/><path fill="#CAE3F3" d="M101.818 57.83h-.338c0-11.94-9.828-21.83-21.686-21.83-11.183 0-20.331 8.527-21.687 19.441-2.71-3.751-7.115-5.798-11.859-5.798C37.776 49.643 31 56.465 31 64.652 31 73.179 37.776 80 46.248 80h55.57c6.1 0 11.182-4.775 11.182-11.256 0-6.14-5.083-10.914-11.182-10.914"/><path fill="#FFF" d="M26 33h12v2H26z"/></g></svg>