<svg xmlns="http://www.w3.org/2000/svg" viewBox="0 0 49 49"><path d="M41.548 29.355a6.205 6.205 0 006.203-6.2 6.158 6.158 0 00-5.325-6.111c.234-.965.38-1.989.38-3.041-.03-6.843-5.56-12.37-12.407-12.37-4.71 0-8.807 2.66-10.914 6.55a7.854 7.854 0 00-3.424-.79c-4.272 0-7.754 3.48-7.754 7.75 0 .643.088 1.287.234 1.9-.234-.028-.468-.028-.702-.028-3.395-.03-6.174 2.72-6.174 6.14 0 3.422 2.78 6.2 6.203 6.2h33.68zM31.13 34.122c-1.726 2.573-6.378 7.603-6.378 7.603s-5.677-5.527-6.994-8.305c-.79-1.637-1.375-2.895-1.755-4.065h-4.829c.644 2.37 1.844 5.527 3.395 7.75 2.165 3.129 3.804 4.708 5.384 6.316 1.58 1.609 4.799 4.299 4.799 4.299s4.974-4.386 6.847-6.697c1.873-2.31 4.887-6.375 5.706-8.919.351-1.11.614-1.959.82-2.748h-4.829c-.41 1.579-1.083 3.216-2.165 4.766z" fill="#0078D4"/><path d="M38.622 18.39s-1.141.058-1.727-.088c-1.082-.234-2.984-1.229-4.886-2.72-1.902-1.491-4.828-3.129-7.257-3.129-2.429 0-5.033 1.52-6.525 2.69-1.493 1.17-3.804 3.012-5.502 3.071-1.024.03-2.077 0-2.077 0v8.334c0 .556.175 1.58.527 2.808h4.886c-.263-.79-.41-1.55-.497-2.37-.176-2.017-.088-4.912-.088-4.912s1.2 0 2.136-.614c.937-.614 2.926-2.076 4.185-2.983.819-.614 1.872-1.17 2.692-1.17.819 0 1.433-.233 3.716 1.492 2.282 1.725 2.78 1.988 3.423 2.31.673.322 2.02.907 2.02.907s.175 2.602.087 4.328c-.058.964-.205 1.959-.468 2.982h4.828c.264-1.082.41-2.047.468-3.392.147-2.34.059-7.545.059-7.545z" fill="#50E6FF"/></svg>