<svg xmlns="http://www.w3.org/2000/svg" viewBox="0 0 49 49"><path d="M38.571 12.992H48.69V2.88H38.57v10.112z" fill="#50E6FF"/><path d="M23.267 41.837c.009-.05.017-.101.034-.152a5.107 5.107 0 00-5.017-6.07c-.396 0-.783.042-1.145.135a6.565 6.565 0 00-5.556-3.057 6.579 6.579 0 00-6.575 6.576v.27a3.322 3.322 0 00-1.052-.177 3.221 3.221 0 00-3.232 3.224 3.235 3.235 0 002.912 3.217l14.64.025a5.11 5.11 0 004.47-2.627c.025-.042.05-.084.075-.135a5.7 5.7 0 00.446-1.229zM36.03 15.492H24.015v3.486h6.137l-11.7 11.686 2.449 2.45L32.595 21.42v6.129h3.485V15.492h-.05z" fill="#0078D4"/></svg>