<svg xmlns="http://www.w3.org/2000/svg" viewBox="0 0 49 49"><path d="M6.18 8.395a23.938 23.938 0 00-6.16 14.82h5.133A18.944 18.944 0 019.79 12.008L6.18 8.395z" fill="#50E6FF"/><path d="M7.989 42.39a23.916 23.916 0 0014.81 6.088v-5.036a18.885 18.885 0 01-11.208-4.657L7.989 42.39zM.02 25.75a23.921 23.921 0 006.143 14.821l3.61-3.612a18.979 18.979 0 01-4.62-11.209H.02z" fill="#0078D4"/><path d="M41.86 8.488l-3.492 3.495a18.834 18.834 0 014.653 11.234h4.915A23.9 23.9 0 0041.86 8.488zM25.332.52v5.019c4.284.277 8.18 1.97 11.226 4.623l3.501-3.503A23.948 23.948 0 0025.333.519zM22.8.512A23.924 23.924 0 007.996 6.583l3.602 3.605A18.932 18.932 0 0122.79 5.539V.512h.008zM36.811 26.231c.009-.059.025-.118.034-.168.067-.354.1-.716.1-1.087a5.773 5.773 0 00-5.772-5.776c-.446 0-.875.05-1.288.151a7.426 7.426 0 00-13.692 4.278A3.703 3.703 0 0015 23.435a3.65 3.65 0 00-3.652 3.655 3.662 3.662 0 003.29 3.638l16.536.034a5.783 5.783 0 005.05-2.965c.024-.05.058-.1.083-.151.152-.32.37-.8.505-1.415z" fill="#50E6FF"/><path d="M47.936 25.75H43.02a19.149 19.149 0 01-.522 3.36 4.838 4.838 0 011.423 3.47 4.93 4.93 0 01-2.786 4.437v.194h3.19a23.728 23.728 0 003.61-11.461zM29.086 44.302V42.82a19.074 19.074 0 01-3.762.623v5.02a23.713 23.713 0 008.6-2.123h-2.793a2.04 2.04 0 01-2.045-2.038z" fill="#0078D4"/><path d="M47.212 38.473h-6.715v5.802h-2.98v-1.414h-1.724v-2.922h1.725v-1.474H31.13a.776.776 0 00-.783.783v5.053c0 .43.345.783.783.783h16.081a.776.776 0 00.783-.783v-5.053a.77.77 0 00-.783-.775zm-4.864 2.383h-1.06v-1.06h1.06v1.06zm2.12 0h-1.06v-1.06h1.06v1.06zm2.121 0h-1.06v-1.06h1.06v1.06z" fill="#50E6FF"/><path d="M38.999 28.914a3.666 3.666 0 00-3.67 3.663 3.665 3.665 0 002.786 3.554v4.37h-1.759v1.76h1.759v1.415h1.759v-7.545a3.658 3.658 0 002.785-3.554A3.654 3.654 0 0039 28.914zm0 5.583a1.926 1.926 0 01-1.928-1.92A1.92 1.92 0 0139 30.657a1.92 1.92 0 011.927 1.92c0 1.061-.867 1.92-1.927 1.92z" fill="#0078D4"/></svg>