<svg xmlns="http://www.w3.org/2000/svg" viewBox="0 0 48 44"><rect y=".58" width="48" height="43" rx="5" fill="#0078D4"/><path d="M10.115 30.58C7.292 30.58 5 28.275 5 25.436a5.098 5.098 0 014.391-5.07 10.789 10.789 0 01-.314-2.524c.025-5.677 4.585-10.262 10.23-10.262 3.885 0 7.263 2.207 9 5.434a6.442 6.442 0 012.823-.655c3.522 0 6.393 2.887 6.393 6.43 0 .533-.072 1.067-.193 1.576.193-.024.386-.024.58-.024 2.798-.024 5.09 2.256 5.09 5.095s-2.292 5.144-5.115 5.144h-27.77z" fill="#50E6FF"/><path fill="#fff" d="M16 34.58h16v1H16z"/></svg>