<svg xmlns="http://www.w3.org/2000/svg" viewBox="0 0 48 49"><path d="M29.186 40.226H.5V11.541h28.686v28.685zM47.49 28.808H30.224V11.54H47.5v17.268h-.01zm-7.073 11.517H30.158v-10.26h10.26v10.26zm7.083-4.289h-5.97v-5.97h5.97v5.97zm0 4.088h-3.28v-3.28h3.28v3.28z" fill="#0078D7"/><path d="M21.066 23.302a4.717 4.717 0 00-4.719-4.719 4.701 4.701 0 00-4.597 3.682 2.547 2.547 0 00-1.84-.785 2.568 2.568 0 00-2.57 2.57v.065a3.42 3.42 0 00.663 6.774h14.035a3.106 3.106 0 003.102-3.102 3.106 3.106 0 00-3.102-3.102c-.458 0-.888.102-1.28.28a4.654 4.654 0 00.308-1.663z" fill="#50E6FF"/></svg>