<svg xmlns="http://www.w3.org/2000/svg" viewBox="0 0 48 49"><path d="M41.857 40.55a23.96 23.96 0 006.068-14.728H43.01a18.899 18.899 0 01-4.645 11.234l3.492 3.495z" fill="#0078D4"/><path d="M6.16 8.467A23.938 23.938 0 000 23.288h5.133A18.944 18.944 0 019.77 12.079L6.16 8.467z" fill="#50E6FF"/><path d="M7.97 42.462a23.916 23.916 0 0014.81 6.088v-5.036a18.884 18.884 0 01-11.209-4.657L7.97 42.462zM0 25.822a23.922 23.922 0 006.143 14.822l3.61-3.613a18.979 18.979 0 01-4.62-11.209H0z" fill="#0078D4"/><path d="M41.84 8.56l-3.492 3.495a18.834 18.834 0 014.654 11.234h4.914A23.9 23.9 0 0041.841 8.56z" fill="#50E6FF"/><path d="M25.313 48.532a23.9 23.9 0 0014.735-6.156l-3.5-3.503a18.91 18.91 0 01-11.244 4.64v5.02h.009z" fill="#0078D4"/><path d="M25.313.591v5.02a18.92 18.92 0 0111.226 4.622l3.5-3.503A23.948 23.948 0 0025.314.591zM22.78.583A23.924 23.924 0 007.978 6.655l3.601 3.604a18.932 18.932 0 0111.192-4.648V.583h.009zm14.011 25.72c.009-.059.025-.118.034-.169a5.79 5.79 0 00.1-1.086 5.773 5.773 0 00-5.772-5.777c-.446 0-.875.05-1.288.152A7.426 7.426 0 0016.173 23.7a3.703 3.703 0 00-1.194-.194 3.65 3.65 0 00-3.652 3.655 3.662 3.662 0 003.29 3.638l16.536.034a5.783 5.783 0 005.05-2.965c.024-.05.058-.1.083-.151.152-.32.37-.8.505-1.415z" fill="#50E6FF"/></svg>