<svg xmlns="http://www.w3.org/2000/svg" viewBox="0 0 49 49"><path d="M48.173 27.568c.16-.75.253-1.524.253-2.325 0-5.894-4.784-10.669-10.67-10.669-.825 0-1.625.093-2.383.278a13.711 13.711 0 00-11.604-6.383c-7.58 0-13.718 6.147-13.718 13.718 0 .193 0 .379.008.555a6.809 6.809 0 00-2.206-.362 6.757 6.757 0 00-6.762 6.762 6.756 6.756 0 006.088 6.72l30.569.06c4.134 0 7.705-2.342 9.482-5.769.59-1.23.648-1.499.943-2.585z" fill="#50E6FF"/><path d="M24.67 19.386l-9.01 9.01 2.61 2.61 4.598-4.597-.009 17.533h3.672V26.409l4.598 4.598 2.61-2.61-9.027-9.053-.042.042z" fill="#0078D4"/></svg>