<svg xmlns="http://www.w3.org/2000/svg" viewBox="0 0 158 90"><path d="M20.824 89.992h110.224c14.784-2.437 26.063-15.27 26.063-30.742 0-17.212-13.953-31.165-31.164-31.165-3.331 0-6.536.527-9.544 1.494-6.31-17.26-22.876-29.58-42.32-29.58-23.254 0-42.388 17.623-44.788 40.239-1.317-.212-2.66-.351-4.035-.351C11.309 39.887 0 51.195 0 65.145 0 77.58 8.992 87.892 20.824 89.992" fill="#0078D4"/><path d="M75.163 56.684c-5.053 0-9.168-4.119-9.168-9.169 0-5.05 4.118-9.168 9.168-9.168 5.05 0 9.116 4.118 9.116 9.168 0 5.05-4.066 9.17-9.116 9.17zm27.51-6.04V44.11l-.359-.33-6.684-2.253-1.722-4.5 3.31-6.864.365-.77-2.069-2.088-2.517-2.526-.875.438-6.532 3.35-4.502-1.262-2.85-7.303h-6.48l-.33.331-2.253 6.67-4.554 1.715-7.577-3.644-4.614 4.575.44.861 3.348 6.526-1.866 4.498-7.907 2.85v6.533l.935.274 6.972 2.305 1.866 4.502-3.57 7.577 4.614 4.667.878-.44 6.533-3.348 4.502 1.866 2.857 7.91h6.533l.274-.935 2.305-6.972 4.45-1.867 7.632 3.571 4.614-4.614-.439-.878-3.349-6.534 1.29-4.557 7.33-2.8zm22.105 13.581a5.29 5.29 0 01-4.123-6.229 5.293 5.293 0 016.23-4.123c2.85.581 4.672 3.373 4.092 6.224-.58 2.851-3.349 4.71-6.2 4.128zM141 63.977l.751-3.689-.163-.227-3.516-2.04-.454-2.738 2.657-3.495.295-.392-.928-1.417-1.13-1.715-.546.148-4.073 1.14-2.394-1.23-.77-4.45-3.66-.746-.223.15-2.04 3.506-2.767.444-3.859-2.928-3.13 2.053.15.536 1.14 4.07-1.57 2.324-4.791.7-.752 3.688.497.262 3.67 2.104.537 2.754-2.886 3.868 2.067 3.165.546-.148 4.073-1.139 2.328 1.571.703 4.794 3.688.751.263-.496 2.103-3.67 2.725-.544 3.898 2.893 3.137-2.074-.148-.547-1.14-4.073 1.253-2.425 4.46-.738zM25.28 68.412a3.947 3.947 0 01-.189-5.57 3.948 3.948 0 015.57-.188c1.586 1.483 1.654 3.969.172 5.555-1.483 1.586-3.969 1.685-5.554.203zm10.41 6.178l1.918-2.052-.016-.21-1.438-2.67.781-1.918 3.054-1.183.341-.135-.038-1.263-.048-1.532-.404-.12-3.035-.865-1.043-1.717 1.248-3.13-2.034-1.903-.2.007-2.666 1.434-1.934-.8-1.31-3.367-2.792.083-.114.398-.865 3.034-1.906.864-3.319-1.426-1.918 2.052.213.36 1.513 2.77-.735 1.963-3.346 1.33.08 2.82.404.12 3.035.866.866 1.907-1.425 3.324 2.052 1.917.36-.213 2.77-1.513 1.946.72 1.348 3.362 2.804-.095.12-.405.866-3.034 1.743-1.053 3.124 1.273z" fill="#FFF"/></svg>