<svg xmlns="http://www.w3.org/2000/svg" viewBox="0 0 48 49"><path d="M22.724.58H0v22.736h22.724V.58zm0 25.261H0v22.737h22.724V25.841zm25.276 0H25.275v22.737H48V25.841z" fill="#0078D4"/><path d="M22.724 25.841H0v22.737h22.724V25.841z" fill="#0078D4"/><path d="M44.413 13.74h-.042a4.043 4.043 0 00-3.747-5.558c-.47 0-.925.085-1.346.228a6.035 6.035 0 00-4.707-2.248 6.055 6.055 0 00-5.86 7.57 2.274 2.274 0 00.059 4.547h15.652a2.275 2.275 0 002.273-2.273 2.286 2.286 0 00-2.282-2.265z" fill="#50E6FF"/></svg>