<svg xmlns="http://www.w3.org/2000/svg" viewBox="0 0 48 49"><path d="M47.528 27.535c.16-.749.253-1.524.253-2.324 0-5.894-4.783-10.67-10.67-10.67a10 10 0 00-2.383.279 13.711 13.711 0 00-11.604-6.383c-7.579 0-13.718 6.147-13.718 13.717 0 .194 0 .38.009.556a6.81 6.81 0 00-2.207-.362A6.757 6.757 0 00.446 29.11a6.756 6.756 0 006.089 6.72l30.568.06c4.135 0 7.705-2.342 9.482-5.77.59-1.229.649-1.498.943-2.585z" fill="#50E6FF"/><path d="M24.025 19.35l-9.01 9.01 2.61 2.611 4.598-4.598-.008 17.533h3.671V26.373l4.598 4.598 2.61-2.61-9.027-9.053-.042.042z" fill="#0078D4"/></svg>