<svg xmlns="http://www.w3.org/2000/svg" viewBox="0 0 50 50"><path fill="#59B4D9" d="M18.5 50h.3c10.4 0 18.8-3 18.8-6.8V6.9H18.5V50z"/><path fill="#3999C6" d="M0 6.8v36.3c0 3.8 8.4 6.8 18.8 6.8V6.8H0z"/><path fill="#FFF" d="M37.6 6.8c0 3.8-8.4 6.8-18.8 6.8S0 10.6 0 6.8 8.4 0 18.8 0s18.8 3 18.8 6.8"/><path fill="#7FBA00" d="M33.7 6.4c0 2.5-6.7 4.5-14.9 4.5S3.9 8.9 3.9 6.4s6.7-4.5 14.9-4.5 14.9 2 14.9 4.5"/><path fill="#B8D432" d="M30.6 9.2c2-.8 3.1-1.8 3.1-2.8 0-2.5-6.7-4.5-14.9-4.5S3.9 3.9 3.9 6.4c0 1 1.1 2 3.1 2.8 2.8-1 7-1.8 11.8-1.8s9 .8 11.8 1.8"/><path fill="#0072C6" d="M48.569 29.114l-3.433-3.433-1.43-1.431h-17.31V50H50V30.544z"/><path opacity=".8" fill="#FFF" d="M43.563 25.681H27.826v22.888h20.743V30.688h-5.006z"/><path fill="#0072C6" d="M43.419 45.136a.794.794 0 01-.787.787h-10.8c-.429 0-.787-.358-.787-.787s.358-.787.787-.787h10.801c.429 0 .786.358.786.787m2.218-7.868a.794.794 0 01-.787.787H31.832a.794.794 0 01-.787-.787c0-.429.358-.787.787-.787h12.947c.5 0 .858.358.858.787m0 3.934a.794.794 0 01-.787.787H31.832a.794.794 0 01-.787-.787c0-.429.358-.787.787-.787h12.947c.5 0 .858.358.858.787m0-7.868a.794.794 0 01-.787.787H31.832a.794.794 0 01-.787-.787c0-.429.358-.787.787-.787h12.947c.5 0 .858.358.858.787"/></svg>