<svg xmlns="http://www.w3.org/2000/svg" viewBox="0 0 48 49"><path d="M12.553 42.988h32.864V.074H12.553v42.914z" fill="#50E6FF"/><path d="M2.533 48.074h32.864V5.16H2.533v42.914z" fill="#0078D4"/><path d="M13.397 37.859c-1.418 0-2.465-.304-3.132-.91-.667-.608-.996-1.603-.996-2.978v-3.39c0-1.519-.625-2.278-1.874-2.278v-1.864c1.25 0 1.874-.801 1.874-2.395v-3.18c0-1.358.338-2.362 1.013-3.011.675-.65 1.714-.97 3.107-.97v1.864c-1.25 0-1.874.717-1.874 2.142v3.028c0 1.822-.625 2.96-1.874 3.416v.05c1.249.405 1.874 1.519 1.874 3.34v3.012c0 .776.143 1.35.43 1.712.287.362.768.54 1.444.54v1.872h.008zm10.94-1.865c.676 0 1.165-.177 1.444-.54.287-.362.43-.927.43-1.712v-3.01c0-1.822.625-2.936 1.875-3.34v-.051c-1.25-.456-1.874-1.594-1.874-3.416v-3.028c0-1.434-.625-2.142-1.875-2.142V16.89c1.402 0 2.432.32 3.115.97.684.649 1.013 1.653 1.013 3.01v3.18c0 1.595.625 2.396 1.875 2.396v1.864c-1.25 0-1.875.759-1.875 2.277v3.39c0 1.375-.329 2.37-.996 2.978-.667.607-1.705.91-3.132.91v-1.872z" fill="#50E6FF"/></svg>