<svg xmlns="http://www.w3.org/2000/svg" viewBox="0 0 50 50"><path fill="#3999C6" d="M-.5 45.1c0 1.1.9 2 2 2h46c1.1 0 2-.9 2-2v-32h-50v32z"/><path fill="#A0A1A2" d="M47.5 4.5h-46c-1.1 0-2 .9-2 2v7.3h50V6.5c0-1.1-.9-2-2-2z"/><path opacity=".15" fill="#FFF" d="M-.5 13.8h50v3.3h-50z"/><path opacity=".1" fill="#FFF" d="M1.5 4.5c-1.1 0-2 .9-2 2v38.6c0 1.1.9 2 2 2h19.2L43.1 4.5H1.5z"/><path fill="#FFF" d="M30.6 22.2L23.1 40h-2.7l7.4-17.8zM9.8 31.1l7.9-4.2v-2.7L6.5 30.1v2.1l11.2 5.9v-2.7zm30.6 0l-8-4.2v-2.7l11.2 5.9v2.1l-11.2 5.9v-2.7z"/></svg>