<svg xmlns="http://www.w3.org/2000/svg" viewBox="0 0 49 49"><path d="M15.028 15.585l-1.76-1.76L2.555 24.537 13.277 35.26l1.768-1.77-8.961-8.96 8.944-8.946zM33.103 33.62l1.76 1.76 10.765-10.764-10.823-10.823-1.76 1.769 9.054 9.054-8.996 9.004z" fill="#0078D4"/><path d="M16.494 26.982a2.518 2.518 0 100-5.037 2.518 2.518 0 000 5.037zM24.04 26.982a2.518 2.518 0 100-5.037 2.518 2.518 0 000 5.037z" fill="#50E6FF"/><path d="M31.637 26.982a2.518 2.518 0 100-5.037 2.518 2.518 0 000 5.037z" fill="#0078D4"/></svg>