<svg xmlns="http://www.w3.org/2000/svg" viewBox="0 0 49 49"><path d="M12.572 43.5h32.864V.586H12.572V43.5z" fill="#50E6FF"/><path d="M2.552 48.586h32.864V5.672H2.552v42.914z" fill="#0078D4"/><path d="M13.417 38.37c-1.419 0-2.465-.303-3.132-.91-.667-.607-.996-1.603-.996-2.977v-3.391c0-1.518-.625-2.277-1.874-2.277V26.95c1.249 0 1.874-.802 1.874-2.396v-3.18c0-1.357.337-2.361 1.013-3.01.675-.65 1.713-.97 3.106-.97v1.864c-1.25 0-1.874.716-1.874 2.142v3.028c0 1.822-.625 2.96-1.874 3.416v.05c1.25.405 1.874 1.518 1.874 3.34v3.011c0 .776.144 1.35.43 1.712.288.363.769.54 1.444.54v1.873h.009zM24.357 36.506c.675 0 1.165-.177 1.444-.54.287-.362.43-.927.43-1.712v-3.01c0-1.823.625-2.936 1.874-3.34v-.052c-1.25-.455-1.874-1.594-1.874-3.415v-3.028c0-1.434-.625-2.143-1.874-2.143v-1.864c1.401 0 2.431.32 3.115.97.684.65 1.013 1.653 1.013 3.011v3.18c0 1.594.625 2.396 1.874 2.396v1.863c-1.25 0-1.874.76-1.874 2.278v3.39c0 1.375-.33 2.37-.996 2.978-.667.607-1.705.91-3.132.91v-1.872z" fill="#50E6FF"/></svg>