<svg xmlns="http://www.w3.org/2000/svg" viewBox="0 0 77.17 45.129"><path d="M27.17 40.6a2.006 2.006 0 002 2h46a2.006 2.006 0 002-2V9.3h-50z" fill="#89c302"/><path d="M75.17 0h-46a2.006 2.006 0 00-2 2v7.6h50V2a2.006 2.006 0 00-2-2" fill="#a0a1a2"/><path d="M29.17 0a2.006 2.006 0 00-2 2v38.6a2.006 2.006 0 002 2h2.2L70.77 0z" fill="#fff" opacity=".2" style="isolation:isolate"/><text transform="translate(28.744 33.099)" font-size="28.722" fill="#fff" font-family="SegoeUI, Segoe UI" letter-spacing=".04em">&lt;<tspan x="20.797" y="0" font-size="23"> </tspan><tspan x="28.018" y="0">&gt;</tspan></text><path fill="none" stroke="#fff" stroke-miterlimit="10" stroke-width="1.5" d="M48.326 31.437l8-14.5"/><path d="M40.734 40.277a4.714 4.714 0 00-4.725-4.725h-.638a13.882 13.882 0 00.511-3.32 12.566 12.566 0 00-24.517-3.958 9.961 9.961 0 00-2.809-.511 8.684 8.684 0 000 17.366h27.837a4.856 4.856 0 004.342-4.852" fill="#59b4d9"/><path d="M13.152 45.129a8.68 8.68 0 014.214-14.557 7.055 7.055 0 012.809-.128A12.666 12.666 0 0127.2 20.229a12.038 12.038 0 00-3.831-.638 12.5 12.5 0 00-11.875 8.683 9.961 9.961 0 00-2.809-.511 8.684 8.684 0 000 17.366h4.469z" fill="#fff" opacity=".2" style="isolation:isolate"/></svg>