<svg xmlns="http://www.w3.org/2000/svg" viewBox="0 0 48 48"><path d="M0 42.971h48V6.011H0v36.96z" fill="#0078D4"/><path d="M0 10.002h47.983V5H0v5.002z" fill="#50E6FF"/><path d="M7.478 8.825a1.221 1.221 0 100-2.442 1.221 1.221 0 000 2.442zm-3.79 0a1.221 1.221 0 100-2.442 1.221 1.221 0 000 2.442zm7.663 0a1.221 1.221 0 100-2.442 1.221 1.221 0 000 2.442z" fill="#0078D4"/><path d="M35.25 17.574l-1.802 1.802 5.836 5.836-5.903 5.903 1.802 1.802 7.705-7.705-7.638-7.638zM12.59 32.917l1.81-1.802-5.836-5.836 5.903-5.903-1.802-1.802-7.713 7.705 7.638 7.638z" fill="#50E6FF"/><path d="M31.554 27.813a2.543 2.543 0 100-5.087 2.543 2.543 0 000 5.087zm-7.664 0a2.543 2.543 0 100-5.087 2.543 2.543 0 000 5.087zm-7.494 0a2.543 2.543 0 100-5.087 2.543 2.543 0 000 5.087z" fill="#fff"/></svg>