<svg xmlns="http://www.w3.org/2000/svg" viewBox="0 0 46 35"><g fill="none" fill-rule="evenodd"><path fill="#FFF" d="M1.048 33.543h43.375V3.168H1.048z"/><path d="M3.246 2.581a.665.665 0 100 1.33.665.665 0 000-1.33m1.996 0a.666.666 0 000 1.33.664.664 0 000-1.33m1.995 0a.665.665 0 100 1.33.665.665 0 000-1.33" fill="#FFF"/><path d="M7.237 3.911a.665.665 0 110-1.33.665.665 0 010 1.33zm-2.661-.665a.666.666 0 011.33 0 .664.664 0 11-1.33 0zm-1.995 0a.665.665 0 111.33 0 .665.665 0 01-1.33 0zM1.25 33.18h42.572V5.242H1.25V33.18zM0 34.43h45.072V0H0v34.43z" fill="#0078D7"/><path fill="#0078D7" d="M10.078 18.922v-.037l5.97-3.324-.002-1.397-7.997 4.5v.55l8.013 4.008-.003-1.388zm8.233 7.692l1.424-.002 6.376-15.575-1.443.003zM28.51 14.142l.001 1.396 6 3.303.001.057-5.989 2.914.002 1.387 7.998-4.036v-.548z"/></g></svg>