<svg xmlns="http://www.w3.org/2000/svg" viewBox="0 0 48 49"><path d="M15.009 15.073l-1.76-1.76L2.535 24.026l10.722 10.722 1.769-1.769-8.962-8.962 8.945-8.944zm18.075 18.035l1.76 1.76 10.764-10.764-10.823-10.823-1.76 1.769 9.054 9.054-8.995 9.004z" fill="#0078D4"/><path d="M16.475 26.47a2.518 2.518 0 100-5.037 2.518 2.518 0 000 5.037zm7.546 0a2.518 2.518 0 100-5.037 2.518 2.518 0 000 5.037z" fill="#50E6FF"/><path d="M31.618 26.47a2.518 2.518 0 100-5.037 2.518 2.518 0 000 5.037z" fill="#0078D4"/></svg>