<svg xmlns="http://www.w3.org/2000/svg" viewBox="0 0 49 49"><path d="M48.011 10.566H.045v30.46H48.01v-30.46z" fill="#0078D4"/><path d="M48.02 5.656H.028v5.045H48.02V5.655z" fill="#50E6FF"/><path d="M12.597 30.58a5.899 5.899 0 005.894-5.903 5.899 5.899 0 00-5.894-5.904 5.899 5.899 0 00-5.894 5.904 5.899 5.899 0 005.894 5.903z" fill="#0078D4"/><path d="M21.418 25.612v-1.87H19.5a7.033 7.033 0 00-1.362-3.3l1.354-1.356-1.312-1.314-1.353 1.356a6.925 6.925 0 00-3.296-1.364v-1.92h-1.858v1.92a7.01 7.01 0 00-3.296 1.364l-1.354-1.356-1.311 1.314 1.353 1.356a6.877 6.877 0 00-1.37 3.3H3.77v1.862h1.916a7.033 7.033 0 001.363 3.3l-1.354 1.357 1.312 1.313 1.353-1.356a6.925 6.925 0 003.296 1.365v1.928h1.858v-1.92a7.01 7.01 0 003.296-1.364l1.354 1.356 1.311-1.314-1.353-1.356a6.948 6.948 0 001.362-3.3h1.933zm-13.924-.935a5.06 5.06 0 011.497-3.612 5.058 5.058 0 013.607-1.5c1.362 0 2.648.531 3.607 1.5a5.074 5.074 0 011.496 3.612 5.06 5.06 0 01-1.496 3.613 5.058 5.058 0 01-3.607 1.499A5.044 5.044 0 018.99 28.29a5.06 5.06 0 01-1.497-3.613z" fill="#50E6FF"/><path d="M13.203 23.374h-.1l1.799-4.362h-2.884l-1.96 5.92h2.557l-1.993 5.246 5.087-6.804h-2.506zM42.908 15.703h-17.58v2.51h17.58v-2.51zM40.436 23.313H25.327v2.509h15.109v-2.51zM37.863 30.895H25.327v2.509h12.536v-2.51z" fill="#50E6FF"/></svg>