<svg xmlns="http://www.w3.org/2000/svg" viewBox="0 0 49 49"><path d="M38.029 5.68h-10.1v10.112h10.108L38.03 5.68zM40.503 38.426h-7.625v7.636h7.634l-.009-7.636zM25.269 18.277h-7.625v7.637h7.633l-.008-7.637zM17.711 33.254h-10.1v10.112H17.72V33.254h-.009zM10.204 13.184H.112v10.112h10.109V13.184h-.017z" fill="#50E6FF"/><path d="M15.245 26.402H.155v15.105h15.099V26.402h-.009zM47.977 10.727H32.811v15.172h15.166V10.727zM22.795 5.68H7.3v15.5h15.495V5.68zM35.42 30.898H20.278v15.147H35.42V30.898z" fill="#0078D4"/><path d="M37.38 17.848c.312 0 .514.059.615.168.101.11.127.312.076.581-.059.287-.168.489-.328.615s-.404.185-.733.185h-.488l.303-1.55h.556zm-1.986 3.132h.817l.194-.985h.698c.303 0 .556-.034.758-.093.202-.067.378-.168.538-.32a1.69 1.69 0 00.328-.412c.085-.152.144-.32.177-.497.084-.438.017-.783-.193-1.027-.22-.244-.556-.37-1.027-.37h-1.566l-.724 3.704zm4.116-4.707h.808l-.193.986h.715c.455 0 .766.075.934.235.169.16.228.413.152.758l-.337 1.726h-.816l.32-1.642c.033-.185.025-.311-.043-.379-.067-.067-.201-.1-.403-.1h-.64l-.413 2.121h-.808l.724-3.705zm4.225 1.575c.312 0 .514.059.615.168.1.11.126.312.076.581-.06.287-.169.489-.329.615s-.404.185-.732.185h-.497l.303-1.55h.564zM41.75 20.98h.816l.186-.985h.698c.312 0 .556-.034.758-.093.202-.067.379-.168.538-.32.135-.126.245-.26.329-.412.084-.152.143-.32.176-.497.085-.438.017-.783-.193-1.027-.219-.244-.556-.37-1.027-.37h-1.566l-.715 3.704zM29.907 37.467c-.286.135-.934.26-1.709.311-1.035.084-1.885 0-1.902-.16 0-.084.404-.26.867-.395-.867.067-1.507.244-1.49.438.017.227.96.378 2.146.353 1.179-.025 2.13-.26 2.121-.488-.008-.017-.025-.042-.033-.06zM28.375 38.578c-.926.092-1.7 0-1.709-.202-.017-.068.084-.152.244-.228-.353.093-.58.228-.572.354.017.261.825.421 1.818.396.614-.026 1.136-.127 1.465-.244l-.295-.228c-.278.06-.606.11-.951.152zM30.824 39.872a.513.513 0 01-.126.202.574.574 0 01-.202.11c-.27.134-1.069.244-2.062.269h-.354c-1.38 0-2.592-.135-2.592-.337 0-.11.37-.227.817-.295l-.093-.067c-.715.067-1.246.286-1.246.488v.017c.026.261.817.396 1.835.463.337.025.716.017 1.103.017 1.666 0 3.038-.311 3.038-.707a.44.44 0 00-.118-.16z" fill="#fff"/><path d="M31.287 40.219c-.126.404-1.414.774-3.046.774-.506 0-1.33-.05-2.147-.134.556.218 1.086.311 2.155.311 1.709 0 3.047-.396 3.047-.842.017-.034.008-.076-.009-.11zM31.245 37.489c-.177-.354-.64-.488-1.035-.295a.723.723 0 00-.135.084c.37-.126.716-.017.842.261.151.312-.025.615-.379.884-.084.068-.471.354-.572.37.227 0 .53-.083.858-.294.387-.244.598-.64.421-1.01zM28.3 39.479c-.758.05-1.381-.042-1.398-.219 0-.025.017-.05.042-.084-.227.067-.379.177-.379.27 0 .227.682.42 1.524.42.648 0 1.195-.11 1.414-.27-.126-.083-.27-.193-.379-.26a5.23 5.23 0 01-.825.143zM28.443 37.484s.244-.135.227-.514c-.017-.37-.556-.732-.539-1.237.017-.506.64-.935.884-1.087.244-.151 1.044-.404 1.044-.404s-.64.396-.96.649c-.328.26-.438.614-.395.867.042.244.538.64.446.934-.101.303-.43.75-.707.792z" fill="#fff"/><path d="M29.023 32.465s.37.488.126 1.086c-.244.598-.715 1.002-1.043 1.246-.329.244-.707.615-.615 1.128.093.514.438.867.514.952.067.084.151.337.151.337s-.58-.506-.8-.792c-.218-.286-.488-.775-.227-1.212.244-.421.8-.733 1.397-1.246.59-.514.548-1.255.497-1.5zM27.466 44.362h-.328v-.286h-.017c-.134.244-.294.37-.572.37-.194 0-.354-.05-.463-.16a.514.514 0 01-.177-.42c0-.38.177-.582.623-.649l.53-.042c0-.337-.084-.514-.353-.514-.244 0-.505.042-.69.202v-.328c.05-.042.328-.16.715-.16.42 0 .707.16.707.665v1.322h.025zm-.387-.943l-.42.042c-.16.025-.177.042-.245.093-.067.05-.092.151-.092.27 0 .092.016.15.084.201.067.05.126.068.227.068.16 0 .202-.026.311-.135.11-.11.127-.27.127-.438v-.11h.008v.009zM31.17 44.362h-.329v-.286h-.017c-.134.244-.294.37-.572.37-.194 0-.354-.05-.463-.16a.514.514 0 01-.177-.42c0-.38.177-.582.623-.649l.53-.042c0-.337-.084-.514-.353-.514-.244 0-.505.042-.69.202v-.328c.05-.042.328-.16.715-.16.421 0 .707.16.707.665v1.322h.025zm-.38-.943l-.42.042c-.16.025-.177.042-.244.093-.068.05-.093.151-.093.27 0 .092.017.15.084.201.068.05.127.068.227.068.16 0 .203-.026.312-.135.11-.11.126-.27.126-.438v-.11h.009v.009zM29.47 42.367l-.573 1.97h-.539l-.665-1.97h.463l.463 1.524.404-1.524h.446zM25.606 43.501v-1.802h-.446v1.802c0 .505.067.994-.177 1.17a.946.946 0 01-.286.152l.261.295a1.7 1.7 0 00.53-.438c.135-.185.118-.85.118-1.179zM10.364 12.427a.677.677 0 00-.227-.034c-.345 0-.547.21-.547.58 0 .363.193.565.538.565.076 0 .135-.008.236-.017v-1.094zm0-1.583h.682v3.149a4.448 4.448 0 01-.884.092c-.833 0-1.263-.379-1.263-1.094 0-.69.463-1.145 1.17-1.145.11 0 .194.008.295.033v-1.035z" fill="#fff"/><path d="M11.45 11.55h.68v-.698h-.68v.698zm.68.346v1.574c0 .547-.041.8-.16 1.027-.109.22-.26.354-.555.505l-.63-.303c.302-.143.445-.26.538-.454.1-.194.126-.421.126-1.01v-1.34h.682zM13.612 13.132c-.454.042-.597.118-.597.295 0 .134.084.193.27.193.1 0 .193-.008.327-.033v-.455zm-1.069-1.086c.304-.143.59-.202.901-.202.354 0 .58.092.682.27.059.1.075.235.075.513v1.38c-.303.043-.69.076-.976.076-.572 0-.825-.202-.825-.64 0-.48.337-.698 1.179-.766v-.151c0-.127-.06-.169-.236-.169-.252 0-.539.068-.8.21v-.521zM14.538 12.003c.404-.11.732-.151 1.069-.151.354 0 .606.075.75.235.142.143.184.303.184.649v1.33h-.681V12.76c0-.261-.093-.354-.329-.354a.947.947 0 00-.311.05v1.617h-.682v-2.07zM18.166 12.4H18.09a.784.784 0 00-.396.092c-.16.093-.245.261-.245.497 0 .337.169.53.472.53a.834.834 0 00.252-.042v-.236-.26l-.008-.312-.009-.228V12.4h.009zm-1.355 2.029c.235.126.48.185.732.185.446 0 .64-.185.64-.615v-.017a.94.94 0 01-.446.093c-.598 0-.977-.396-.977-1.019 0-.774.564-1.212 1.557-1.212.295 0 .564.033.892.1l-.235.49c-.185-.035-.017-.01-.152-.018v.068l.009.286.008.37c.009.093.009.186.009.278v.185c0 .581-.05.86-.194 1.078-.21.329-.58.497-1.103.497a1.92 1.92 0 01-.732-.135v-.614h-.008zM20.253 13.57c.26 0 .412-.219.412-.589s-.151-.59-.412-.59c-.27 0-.421.22-.421.59s.151.59.42.59zm.008-1.734c.682 0 1.094.43 1.094 1.12 0 .707-.437 1.153-1.127 1.153-.682 0-1.103-.43-1.103-1.12.008-.707.446-1.153 1.136-1.153z" fill="#fff"/><path d="M48.011 26.016h-10.1v10.111H48.02V26.016h-.008z" fill="#50E6FF"/><path d="M44.021 28.087c-.244-.151-.471-.21-.698-.362-.143-.093-.337-.328-.505-.522-.034.32-.126.446-.236.539-.236.185-.379.236-.58.345-.169.084-1.095.64-1.095 1.819 0 1.179.993 2.054 2.104 2.054 1.103 0 2.063-.8 2.063-2.012 0-1.22-.901-1.777-1.053-1.86z" fill="#0078D4"/><path d="M43.651 30.922c.076 0 .152.008.21.042.06.034.085.118.11.168.017.042 0 .076-.033.093-.034.017-.034.008-.068-.05-.033-.06-.059-.118-.219-.118s-.21.059-.286.117c-.076.068-.11.085-.134.051-.026-.034-.017-.076.033-.118.05-.042.135-.118.21-.151.06-.034.102-.034.177-.034zM42.894 31.447c.092.076.227.135.522.135.294 0 .496-.084.589-.152.042-.033.059-.008.067.017.008.017.017.042-.017.076a1.012 1.012 0 01-.48.194c-.252.025-.58.033-.782-.143-.034-.034-.026-.076 0-.093.025-.017.042-.034.067-.034.017-.008.017-.008.034 0z" fill="#fff"/><path d="M41.766 31.098c.345-.008.413-.067.724-.202 1.658-.74 1.97-1.423 2.028-1.574.06-.152.143-.405.06-.69a2.141 2.141 0 01-.043-.136c-.219-.244-.438-.378-.505-.42-.236-.152-.471-.211-.698-.363-.144-.092-.337-.328-.505-.522-.034.32-.127.447-.236.54-.236.184-.379.235-.58.345-.17.092-1.095.63-1.095 1.818 0 .379.101.724.278 1.019h.042c.084.084.236.185.53.185z" fill="#0078D4"/><path d="M44.585 28.618c.303.379.455.816.455 1.322 0 .286-.06.564-.169.816a1.807 1.807 0 01-.446.623 2.07 2.07 0 01-1.422.547 2.09 2.09 0 01-1.44-.572 1.956 1.956 0 01-.622-1.44c0-.488.16-.926.471-1.296.244-.278.497-.438.598-.489.05-.025.092-.05.135-.076.134-.067.269-.134.446-.277.092-.076.202-.186.244-.48.151.177.328.379.463.471.117.076.244.135.361.186.11.05.228.1.346.176h.008c.328.194.513.413.572.489zm-.564-.53c-.235-.152-.471-.211-.698-.363-.143-.093-.337-.328-.505-.522-.034.32-.126.446-.236.539-.236.185-.379.236-.58.345-.169.093-1.095.632-1.095 1.819 0 .379.101.724.278 1.019a2.134 2.134 0 001.826 1.035c1.103 0 2.063-.8 2.063-2.012 0-.665-.27-1.128-.54-1.431a1.91 1.91 0 00-.513-.43z" fill="#0078D4"/><path d="M42.843 27.285c.067.185.059.286.059.328 0 .043-.025.152-.093.203-.033.025-.042.042-.042.042 0 .017.042.033.042.075 0 .051-.025.152-.269.396-.244.244-.59.455-.867.59-.27.134-.395.126-.438.058-.033-.067.017-.202.186-.395.168-.186.707-.455.707-.455l.673-.463.034-.177" fill="#50E6FF"/><path d="M42.843 27.285c-.042.303-.134.396-.26.488-.211.152-.413.253-.455.278-.118.06-.547.295-.774.64-.068.101 0 .143.016.152.017.008.169.025.505-.177.337-.202.48-.32.674-.514.1-.1.118-.168.118-.193 0-.034-.026-.042-.06-.06-.016-.008-.025-.016 0-.024.026-.017.118-.06.144-.076.025-.017.134-.093.134-.21a1.647 1.647 0 00-.042-.304zM41.808 30.613c.009-.354.337-.69.766-.699.539-.008.91.53 1.179.522.227-.008.673-.454.883-.454.228 0 .295.235.295.378 0 .143-.042.396-.16.556-.11.16-.177.219-.303.21-.168-.016-.497-.521-.707-.538-.27-.009-.842.555-1.296.555-.278 0-.362-.042-.446-.1-.152-.085-.22-.228-.21-.43z" fill="#fff"/><path d="M42.986 32.852h-.252v.471c0 .135-.06.253-.202.253-.143 0-.202-.11-.202-.253v-.471h-.253v.471c0 .278.177.497.455.497.277 0 .454-.22.454-.497v-.471zM45.275 33.804h.253v-1.238h-.253v1.238zM41.868 32.843c-.22-.05-.354.169-.362.177 0 .009 0 .009-.009.009-.008 0-.008-.009-.008-.009l-.025-.168h-.228v.943h.253v-.514c0-.042.11-.244.328-.193.11.025.16.075.16.075v-.286a.54.54 0 00-.11-.034zM43.575 33.087c.143 0 .253.11.253.253 0 .143-.11.252-.253.252a.248.248 0 01-.252-.252c0-.143.11-.253.252-.253zm-.252 1.027v-.463s0-.008.008-.008c.009 0 .009.008.009.008.016.05.126.228.362.177a.498.498 0 00-.135-.976.503.503 0 00-.497.496v.775h.253v-.008zM44.922 33.34c0 .144-.11.253-.253.253a.248.248 0 01-.252-.253c0-.143.11-.252.252-.252.144 0 .253.11.253.252zm-.008.464h.252v-.464a.498.498 0 00-.497-.496.498.498 0 00-.135.977c.236.058.337-.127.363-.169 0-.008 0-.008.008-.008s.008.008.008.008M40.512 32.776h-.101v.809h.1c.22 0 .354-.017.354-.405 0-.37-.126-.404-.353-.404zm-.076 1.027h-.286v-1.229h.311c.38 0 .657.068.657.615 0 .539-.303.614-.682.614z" fill="#0078D4"/><path d="M12.476 33.652a4.87 4.87 0 01-4.873 4.866 4.87 4.87 0 01-4.874-4.866 4.87 4.87 0 014.874-4.867c2.693.009 4.873 2.18 4.873 4.867z" fill="#fff"/><path d="M7.603 38.493a4.739 4.739 0 01-4.747-4.732c0-2.618 2.13-4.74 4.747-4.74a4.746 4.746 0 014.747 4.74c0 2.619-2.13 4.732-4.747 4.732zm0-9.766c-2.786 0-5.05 2.256-5.05 5.034 0 2.779 2.264 5.035 5.05 5.035s5.05-2.256 5.05-5.035c0-2.778-2.264-5.034-5.05-5.034z" fill="#0078D7"/><path d="M7.603 29.434c1.136 0 2.163.429 2.937 1.145-.379-.009-.757.21-.774.732-.034 1.044 1.245 1.263.555 3.351l-.572 1.726L8.2 31.825c-.025-.068 0-.11.093-.11h.438c.025 0 .042-.017.042-.042v-.26c0-.026-.017-.043-.042-.043-.834.034-1.658.034-2.475 0-.025 0-.042.017-.042.042v.261c0 .026.017.042.042.042h.438c.1 0 .126.034.151.093l.64 1.743-.96 2.888-1.573-4.631c-.017-.059 0-.093.058-.093h.505c.026 0 .043-.017.043-.042v-.26c0-.026-.017-.043-.043-.043-.53.025-1.06.034-1.548.042a4.297 4.297 0 013.636-1.978z" fill="#0078D4"/><path d="M11.415 31.7c.337.614.522 1.313.522 2.062a4.312 4.312 0 01-2.255 3.797l1.355-3.822c.21-.59.404-1.39.378-2.038zM9.05 37.846a4.371 4.371 0 01-2.718.067l1.347-3.831 1.372 3.764zM5.743 37.677a4.334 4.334 0 01-2.096-5.708l2.096 5.708z" fill="#0078D7"/></svg>