<svg xmlns="http://www.w3.org/2000/svg" viewBox="0 0 49 48"><path d="M.135 38.666h48v-36.9h-48v36.9z" fill="#0078D4"/><path d="M.135 5.766h48v-5h-48v5z" fill="#50E6FF"/><path d="M7.635 4.566c.7 0 1.2-.5 1.2-1.2s-.6-1.2-1.2-1.2c-.7 0-1.2.5-1.2 1.2s.5 1.2 1.2 1.2zm-3.8 0c.7 0 1.2-.5 1.2-1.2s-.5-1.2-1.2-1.2-1.2.5-1.2 1.2.5 1.2 1.2 1.2zm7.6 0c.7 0 1.2-.5 1.2-1.2s-.5-1.2-1.2-1.2-1.2.5-1.2 1.2.6 1.2 1.2 1.2z" fill="#0078D4"/><path d="M20.835 14.866l-8.9 8.9 3.6 3.6 6.4-6.4v26.1h5.1v-26.1l6.4 6.4 3.6-3.6-8.9-8.9-3.6-3.6-3.7 3.6z" fill="#50E6FF"/></svg>