<svg xmlns="http://www.w3.org/2000/svg" viewBox="0 0 49 49"><path d="M.02 43.483h48V6.523h-48v36.96z" fill="#0078D4"/><path d="M.02 10.518h47.983V5.516H.02v5.002z" fill="#50E6FF"/><path d="M7.497 9.337a1.221 1.221 0 100-2.442 1.221 1.221 0 000 2.442zM3.708 9.337a1.221 1.221 0 100-2.442 1.221 1.221 0 000 2.442zM11.371 9.337a1.221 1.221 0 100-2.442 1.221 1.221 0 000 2.442z" fill="#fff"/><path d="M15.043 20.71H2.419v12.624h12.624V20.711zM17.611 20.71v12.624h12.632L17.61 20.711zM39.135 20.71a6.318 6.318 0 00-6.316 6.317 6.318 6.318 0 006.316 6.316 6.318 6.318 0 006.316-6.316 6.313 6.313 0 00-6.316-6.316z" fill="#50E6FF"/></svg>