<svg xmlns="http://www.w3.org/2000/svg" viewBox="0 0 49 49"><path d="M.02 43.558h48V6.598h-48v36.96z" fill="#0078D4"/><path d="M.02 10.588h47.983V5.586H.02v5.002z" fill="#50E6FF"/><path d="M7.497 9.41a1.221 1.221 0 100-2.441 1.221 1.221 0 000 2.442zM3.708 9.41a1.221 1.221 0 100-2.441 1.221 1.221 0 000 2.442zM11.371 9.41a1.221 1.221 0 100-2.441 1.221 1.221 0 000 2.442z" fill="#0078D4"/><path d="M35.27 18.16l-1.802 1.802 5.835 5.836-5.903 5.903 1.803 1.802 7.705-7.705-7.638-7.638zM12.61 33.503l1.81-1.802-5.836-5.836 5.903-5.903-1.802-1.802-7.714 7.705 7.638 7.638z" fill="#50E6FF"/><path d="M31.573 28.399a2.543 2.543 0 100-5.086 2.543 2.543 0 000 5.086zM23.91 28.399a2.543 2.543 0 100-5.086 2.543 2.543 0 000 5.086zM16.415 28.399a2.543 2.543 0 100-5.086 2.543 2.543 0 000 5.086z" fill="#fff"/></svg>