<svg xmlns="http://www.w3.org/2000/svg" viewBox="0 0 50 49"><path d="M18.567 33.193c8.119 0 14.7-6.581 14.7-14.7s-6.581-14.7-14.7-14.7c-8.118 0-14.7 6.581-14.7 14.7s6.582 14.7 14.7 14.7z" fill="#50E6FF"/><path d="M48.767 44.892l-15.7-15.7c2.3-3 3.6-6.7 3.6-10.7 0-9.6-7.9-17.5-17.6-17.5-9.6 0-17.5 7.9-17.5 17.5 0 9.7 7.9 17.5 17.5 17.5 3.9 0 7.5-1.3 10.4-3.4l15.7 15.7 3.6-3.4zm-42.2-26.4c0-6.9 5.6-12.5 12.6-12.5s12.5 5.6 12.5 12.5-5.6 12.5-12.5 12.5c-7 .1-12.6-5.5-12.6-12.5z" fill="#0078D4"/><path d="M20.567 16.594h-3.5v3.5h3.5v-3.5zM24.067 13.195l-1.2 1.2 4 4-4 4 1.2 1.2 5.2-5.2-5.2-5.2zM13.567 23.595l1.2-1.2-4-4 4-4-1.2-1.2-5.2 5.2 5.2 5.2z" fill="#0078D4"/></svg>