<svg xmlns="http://www.w3.org/2000/svg" viewBox="0 0 48 49"><path d="M24.066 18.97a27.552 27.552 0 0118.304 6.92l5.207-4.845a34.598 34.598 0 00-23.511-9.16A34.64 34.64 0 00.423 21.16l5.231 4.819a27.596 27.596 0 0118.412-7.01z" fill="#0078D7"/><path d="M9.386 29.415l3.69 3.394a17.617 17.617 0 0110.998-3.84c4.127 0 7.925 1.418 10.932 3.782l3.666-3.419a22.565 22.565 0 00-14.598-5.338 22.619 22.619 0 00-14.688 5.42z" fill="#0078D7"/><path d="M16.8 36.24l1.87 1.723a10.21 10.21 0 015.396-1.54c1.969 0 3.806.551 5.363 1.515l1.853-1.73a12.62 12.62 0 00-7.216-2.249c-2.702 0-5.206.84-7.266 2.282z" fill="#50E6FF"/></svg>