<svg xmlns="http://www.w3.org/2000/svg" viewBox="0 0 48 48"><path d="M30.708 36.403H18.485c1.472 5.191-.504 5.935-9.143 5.935v2.72H38.73v-2.72c-8.647.008-9.487-.736-8.023-5.935z" fill="#50E6FF"/><path d="M46.77 2.942H1.23v33.525h45.54V2.942z" fill="#0078D4"/><path d="M27.844 11.43h-15.63v.4h15.63v-.4zm0 14.39h-15.63v.4h15.63v-.4z" fill="#fff"/><path d="M42.162 11.653c0-.624-.504-1.128-1.127-1.128H27.748c-.624 0-1.208.504-1.208 1.128 0 .624.584 1.128 1.208 1.128h13.287c.623 0 1.127-.504 1.127-1.128z" fill="#fff"/><path d="M28.956 11.653c0 1.24 1.008 2.24 2.24 2.24 1.24 0 2.24-1.008 2.24-2.24 0-1.24-1.009-2.24-2.24-2.24a2.236 2.236 0 00-2.24 2.24z" fill="#50E6FF"/><path d="M42.162 18.957c0-.624-.504-1.128-1.127-1.128H27.748c-.624 0-1.208.504-1.208 1.128 0 .624.584 1.128 1.208 1.128h13.287a1.137 1.137 0 001.127-1.128z" fill="#fff"/><path d="M35.707 18.949c0 1.24 1.008 2.24 2.24 2.24 1.24 0 2.24-1.008 2.24-2.24 0-1.24-1.008-2.24-2.24-2.24-1.24 0-2.24 1-2.24 2.24z" fill="#50E6FF"/><path d="M42.162 26.028c0-.624-.504-1.128-1.127-1.128H27.748c-.624 0-1.208.504-1.208 1.128 0 .624.584 1.128 1.208 1.128h13.287c.623 0 1.127-.504 1.127-1.128z" fill="#fff"/><path d="M29.027 26.02c0 1.24 1.008 2.24 2.24 2.24 1.24 0 2.24-1.008 2.24-2.24 0-1.24-1.008-2.24-2.24-2.24a2.246 2.246 0 00-2.24 2.24zM15.43 9.27v4.808h7.374V9.27H15.43zM5.99 28.668v3.183h3.343v-3.183H5.99z" fill="#50E6FF"/><path d="M10.134 30.244a.789.789 0 00-.792-.792.789.789 0 00-.792.792c0 .44.352.791.792.791.44 0 .792-.352.792-.791z" fill="#fff"/><path d="M5.99 21.716V24.9h3.343v-3.184H5.99z" fill="#50E6FF"/><path d="M10.134 23.285a.789.789 0 00-.792-.792.789.789 0 00-.792.792c0 .44.352.791.792.791.44 0 .792-.352.792-.791z" fill="#fff"/><path d="M5.99 14.765v3.184h3.343v-3.184H5.99z" fill="#50E6FF"/><path d="M10.134 16.34a.789.789 0 00-.792-.791.789.789 0 00-.792.792c0 .44.352.792.792.792.44 0 .792-.352.792-.792z" fill="#fff"/><path d="M5.99 7.806v3.183h3.343V7.806H5.99z" fill="#50E6FF"/><path d="M10.134 9.39a.789.789 0 00-.792-.792.789.789 0 00-.792.792c0 .44.352.791.792.791.44 0 .792-.36.792-.791zm6.111 2.231a.789.789 0 00-.792-.791.789.789 0 00-.792.791c0 .44.352.792.792.792.44 0 .792-.351.792-.792z" fill="#fff"/><path d="M15.43 16.55v4.807h7.374v-4.808H15.43z" fill="#50E6FF"/><path d="M16.245 18.909a.789.789 0 00-.792-.792.789.789 0 00-.792.792c0 .44.352.792.792.792.44 0 .792-.36.792-.792z" fill="#fff"/><path d="M15.43 23.676v4.808h7.374v-4.808H15.43z" fill="#50E6FF"/><path d="M16.245 26.028a.789.789 0 00-.792-.792.789.789 0 00-.792.792c0 .44.352.792.792.792.44 0 .792-.352.792-.792z" fill="#fff"/><path d="M12.414 11.83h2.92v-.4h-2.92V9.198H9.341v.4h2.671v6.487H9.343v.4h2.671v6.575H9.343v.4h2.671v6.656H9.343v.4h3.072V26.22h2.92v-.4h-2.92v-6.743h2.92v-.4h-2.92v-6.848z" fill="#fff"/></svg>