<svg xmlns="http://www.w3.org/2000/svg" viewBox="0 0 61 61"><path d="M30.634 17.883c4.704 0 9.022 1.772 12.502 4.672 2.9 2.449 4.898 5.51 4.898 7.572 0 2.062-1.998 5.091-4.898 7.54-3.48 2.9-7.83 4.64-12.502 4.64-4.672 0-8.99-1.837-12.502-4.866-2.868-2.449-4.898-5.51-4.898-7.314 0-1.804 2.03-4.898 4.898-7.346 3.512-3.062 7.83-4.898 12.502-4.898zm0 2.32c-4.06 0-7.862 1.643-10.988 4.317-2.384 2.063-4.092 4.64-4.092 5.607 0 .967 1.708 3.512 4.06 5.542 3.126 2.675 6.928 4.318 10.988 4.318 4.124 0 7.926-1.547 11.02-4.125 2.448-2.03 4.06-4.543 4.06-5.735 0-1.224-1.644-3.738-4.06-5.768-3.062-2.61-6.896-4.156-10.988-4.156z" fill="#0078D4"/><path d="M34.258 30.146h5.445V24.41h-5.445v5.736z" fill="#0078D4"/></svg>