<svg xmlns="http://www.w3.org/2000/svg" viewBox="0 0 48 48"><path d="M30.713 36.906H18.33c1.494 5.267-.51 6.019-9.267 6.019v2.755h29.786v-2.755c-8.765.008-9.621-.743-8.135-6.019z" fill="#50E6FF"/><path d="M9.054 45.688h29.794v-2.755H9.054v2.755z" fill="#50E6FF"/><path d="M47 3H1v33.979h46V3z" fill="#0078D4"/><path fill-rule="evenodd" clip-rule="evenodd" d="M15.017 25.394V11.596c0-.34-.097-.663-.259-.937a.518.518 0 00-.064-.114v-.008a2.37 2.37 0 00-2.044-1.18 2.369 2.369 0 00-2.343 2.045 3.365 3.365 0 00-3.587 4.177 7.697 7.697 0 00-2.004 5.17 7.696 7.696 0 004.993 7.206c.008.04.008.08.016.121A3.387 3.387 0 0014.42 30.5c.363-.162.606-.517.606-.913l-.008-4.193zm1.316 0V11.596c0-.34.097-.663.259-.937a.55.55 0 01.064-.114v-.008a2.37 2.37 0 012.044-1.18 2.37 2.37 0 012.343 2.045 3.365 3.365 0 013.587 4.177 7.697 7.697 0 012.004 5.17 7.696 7.696 0 01-4.993 7.206c-.008.04-.008.08-.016.121A3.387 3.387 0 0116.93 30.5a1.006 1.006 0 01-.606-.913l.008-4.193z" fill="#50E6FF"/><path d="M30.212 12.032h11.884v-2.61H30.212v2.61z" fill="#fff"/><path d="M30.212 15.95h11.884v-2.61H30.212v2.61zm0 3.789h11.884v-2.61H30.212v2.61zm0 3.87h11.884v-2.61H30.212v2.61zm0 3.999h6.6v-2.61h-6.6v2.61z" fill="#50E6FF"/></svg>