<svg xmlns="http://www.w3.org/2000/svg" viewBox="0 0 49 49"><path d="M24.085 18.354a27.552 27.552 0 0118.305 6.92l5.206-4.844a34.598 34.598 0 00-23.51-9.16A34.64 34.64 0 00.442 20.544l5.23 4.82a27.595 27.595 0 0118.412-7.01z" fill="#0078D7"/><path d="M9.406 28.8l3.69 3.393a17.617 17.617 0 0110.998-3.838c4.127 0 7.925 1.416 10.931 3.78l3.666-3.418a22.564 22.564 0 00-14.597-5.338 22.617 22.617 0 00-14.688 5.42z" fill="#0078D7"/><path d="M16.82 35.626l1.87 1.721a10.211 10.211 0 015.396-1.54c1.968 0 3.806.552 5.362 1.516l1.854-1.73a12.62 12.62 0 00-7.216-2.25c-2.702 0-5.207.841-7.266 2.283z" fill="#50E6FF"/></svg>