<svg xmlns="http://www.w3.org/2000/svg" viewBox="0 0 49 48"><path d="M31.232 36.73H18.686c1.511 5.33-.517 6.093-9.385 6.093v2.792h30.167v-2.792c-8.876.008-9.738-.755-8.236-6.093z" fill="#50E6FF"/><path d="M9.293 45.615h30.175v-2.792H9.293v2.792z" fill="#50E6FF"/><path d="M47.72 2.385H.976v34.411H47.72V2.385z" fill="#0078D4"/><path d="M42.99 11.08c0-.64-.517-1.158-1.157-1.158H28.194c-.64 0-1.24.518-1.24 1.158 0 .64.6 1.158 1.24 1.158h13.639c.64 0 1.157-.518 1.157-1.158z" fill="#fff"/><path d="M29.434 11.08a2.3 2.3 0 002.3 2.299 2.3 2.3 0 002.298-2.3 2.3 2.3 0 00-2.299-2.298 2.295 2.295 0 00-2.299 2.299z" fill="#50E6FF"/><path d="M42.99 18.494c0-.64-.517-1.158-1.157-1.158H28.194c-.64 0-1.24.518-1.24 1.158 0 .64.6 1.158 1.24 1.158h13.639a1.167 1.167 0 001.157-1.158z" fill="#fff"/><path d="M36.364 18.486a2.3 2.3 0 002.3 2.3 2.3 2.3 0 002.298-2.3 2.3 2.3 0 00-2.299-2.299 2.295 2.295 0 00-2.299 2.299z" fill="#50E6FF"/><path d="M42.99 25.753c0-.641-.517-1.158-1.157-1.158H28.194c-.64 0-1.24.517-1.24 1.158 0 .64.6 1.157 1.24 1.157h13.639c.64 0 1.157-.517 1.157-1.157z" fill="#fff"/><path d="M29.508 25.744a2.3 2.3 0 002.3 2.3 2.3 2.3 0 002.298-2.3 2.3 2.3 0 00-2.299-2.299 2.306 2.306 0 00-2.299 2.3zM14.392 9.807a.405.405 0 00-.5-.394.415.415 0 00-.313.41v18.401c0 .197.164.361.361.361h.099a.364.364 0 00.361-.36V9.806h-.008zm1.643 4.804a.408.408 0 00-.51-.394.414.414 0 00-.312.41v13.598c0 .197.165.36.362.36h.098a.365.365 0 00.362-.36V14.61zm1.51-2.332a.405.405 0 00-.501-.395.415.415 0 00-.312.411v15.929c0 .197.164.361.361.361h.099a.364.364 0 00.361-.361V12.279h-.008zm3.022 10.838a.408.408 0 00-.51-.394.415.415 0 00-.311.41v5.091c0 .197.164.361.36.361h.1a.364.364 0 00.36-.36v-5.108zM6.854 26.13a.408.408 0 00-.509-.394.415.415 0 00-.312.41v2.078c0 .197.164.361.361.361h.099a.365.365 0 00.361-.361V26.13zm-1.51 1.642a.408.408 0 00-.51-.394.415.415 0 00-.312.41v.436c0 .197.165.361.362.361h.098a.364.364 0 00.362-.361v-.452zm16.758-1.231a.408.408 0 00-.51-.394.415.415 0 00-.311.41v1.668c0 .197.164.36.361.36h.099a.364.364 0 00.36-.36V26.54zm1.511 1.478a.405.405 0 00-.501-.394.415.415 0 00-.312.41v.19c0 .196.164.36.361.36h.099a.364.364 0 00.36-.36v-.206h-.007zm-4.557-7.784a.408.408 0 00-.51-.394.414.414 0 00-.311.41v7.981c0 .198.164.362.361.362h.099a.364.364 0 00.36-.362v-7.997zm-6.282 0c0-.222-.164-.41-.361-.41-.197 0-.361.188-.361.41v7.989c0 .197.164.361.361.361a.365.365 0 00.361-.361v-7.99zm-1.395-1.921a.408.408 0 00-.51-.394.415.415 0 00-.311.41v9.894c0 .197.164.361.36.361h.1a.365.365 0 00.36-.36v-9.911zm-1.511 4.663a.408.408 0 00-.51-.394.415.415 0 00-.311.41v5.231c0 .197.164.361.361.361h.099a.364.364 0 00.361-.361v-5.247zm-1.511-1.371a.408.408 0 00-.509-.394.415.415 0 00-.312.41v6.602c0 .197.164.361.361.361h.099a.364.364 0 00.361-.36v-6.619z" fill="#50E6FF"/></svg>