<svg xmlns="http://www.w3.org/2000/svg" viewBox="0 0 49 49"><path d="M31.01 38.83H18.087c1.557 5.495-.531 6.278-9.675 6.278v2.874h31.085v-2.874c-9.143.009-10.036-.775-8.487-6.278z" fill="#50E6FF"/><path d="M8.404 47.989h31.093v-2.874H8.404v2.874z" fill="#50E6FF"/><path d="M48.001 3.443h-48v35.461h48V3.444z" fill="#0078D4"/><path d="M45.416 5.979H2.544v30.328h42.872V5.98z" fill="#0078D4"/><path d="M44.623 9.017L42.819 7.21l-7.305 7.305-2.41-2.413-1.81 1.808 4.217 4.213.006-.006.003.006 9.105-9.105zm0 13.684l-1.805-1.808-7.305 7.305-2.41-2.414-1.81 1.809 4.217 4.213.006-.006.003.006 9.105-9.105zM9.345 23.87H4.37v11.155h4.975V23.87zm6.21-3.669h-4.967v14.864h4.967V20.2zm6.206-2.539h-4.95v17.411h4.955v-17.41h-.005zm6.218-3.195h-4.95v20.612h4.946V14.467h.004z" fill="#50E6FF"/></svg>