<svg xmlns="http://www.w3.org/2000/svg" viewBox="0 0 49 49"><path d="M8.576 8.996V39.34h30.203V8.996H8.576zm26.181 4.2v21.686H12.768V13.196h21.99z" fill="#50E6FF"/><path d="M8.576 39.34V8.997h30.203V39.34H8.576zM26.03.254V4.71h-4.449V.254h-4.45V4.71h-4.363V.254H8.49V4.71H4.04v4.286H.02v4.371h4.02v4.372H.02v4.371h4.02v4.372H.02v4.37h4.02v4.372H.02v4.286h4.02v4.629h4.536v4.114h4.278V44.14h4.363v4.114h4.364V44.14h4.364v4.114h4.363V44.14h4.364v4.028h4.364V44.14h4.363V39.51h4.45v-4.286h-4.45v-4.371h4.62v-4.286h-4.534v-4.2h4.449v-4.543h-4.45v-4.457h4.45V9.254h-4.45V4.71h-4.363V.254h-4.107v4.371H30.48V.254H26.03z" fill="#0078D4"/><path d="M34.757 13.2H12.768v21.685h21.99V13.199z" fill="#0078D4"/></svg>