<svg xmlns="http://www.w3.org/2000/svg" viewBox="0 0 49 49"><path d="M47.947.309H.02v42.98h47.927V.308z" fill="#0078D4"/><path d="M8.802 2.837a1.265 1.265 0 10.001-2.53 1.265 1.265 0 000 2.53zM3.779 2.837a1.265 1.265 0 100-2.53 1.265 1.265 0 000 2.53z" fill="#50E6FF"/><path d="M3.779 2.837a1.265 1.265 0 100-2.53 1.265 1.265 0 000 2.53zM8.839 2.837a1.265 1.265 0 100-2.53 1.265 1.265 0 000 2.53zM29.043 2.837a1.265 1.265 0 10.001-2.53 1.265 1.265 0 000 2.53zM34.14 2.837a1.265 1.265 0 100-2.53 1.265 1.265 0 000 2.53z" fill="#50E6FF"/><path d="M34.104 2.837a1.265 1.265 0 100-2.53 1.265 1.265 0 000 2.53zM29.08 2.837a1.265 1.265 0 100-2.53 1.265 1.265 0 000 2.53zM48.02.309H37.898v32.866h10.12V.31z" fill="#50E6FF"/><path d="M48.02.309h-7.59v2.528h7.59V.309z" fill="#0078D4"/><path d="M48.02.309h-7.59v2.528h7.59V.309z" fill="#0078D4"/><path d="M48.02.309h-7.59v2.528h7.59V.309z" fill="#0078D4"/><path d="M48.02.309h-7.59v2.528h7.59V.309z" fill="#0078D4"/><path d="M48.02.309h-7.59v2.528h7.59V.309z" fill="#0078D4"/><path d="M48.02.309h-7.59v2.528h7.59V.309z" fill="#0078D4"/></svg>