<svg xmlns="http://www.w3.org/2000/svg" viewBox="0 0 49 49"><path d="M31.547 36.926H18.386c1.549 5.612-.58 6.387-9.87 6.387v2.903h31.547v-2.903c-9.097 0-10.064-.968-8.516-6.387z" fill="#0078D4"/><path d="M8.516 46.217h31.547v-2.903H8.516v2.903zM48.773.924H0v35.999h48.773v-36z" fill="#0078D4"/><path d="M46.257 3.441H2.709v30.774h43.547V3.44z" fill="#50E6FF"/><path d="M7.935 48.924C6.968 48.924 6 48.15 6 46.989V23.764c0-.968.774-1.936 1.935-1.936h11.032c.968 0 1.936.774 1.936 1.936v23.225c0 .967-.774 1.935-1.936 1.935H7.935z" fill="#0078D4"/><path d="M11.612 47.379h3.29v-1.162h-3.29v1.162zm2.323-23.42c0 .387-.193.58-.58.58-.388 0-.581-.193-.581-.58 0-.388.194-.581.58-.581.194 0 .581.193.581.58z" fill="#50E6FF"/><path d="M6.968 44.863h12.58V25.895H6.968v18.968z" fill="#fff"/><path d="M7.936 28.6H18.58v-1.548H7.936v1.549z" fill="#50E6FF"/><path d="M7.936 42.73H18.58v-.58H7.936v.58zm0 1.165H18.58v-.581H7.936v.58z" fill="#0078D4"/><path d="M7.936 41.566H18.58v-8.322H7.936v8.322z" fill="#3BCAF4"/><path d="M7.936 32.474H18.58v-3.29H7.936v3.29z" fill="#50E6FF"/></svg>