<svg xmlns="http://www.w3.org/2000/svg" viewBox="0 0 49 49"><path d="M30.84 37.83H18.456c1.494 5.267-.51 6.019-9.267 6.019v2.755h29.786v-2.755c-8.765.008-9.621-.743-8.135-6.019z" fill="#50E6FF"/><path d="M9.181 46.612h29.794v-2.755H9.181v2.755z" fill="#50E6FF"/><path d="M47.127 3.924h-46v33.979h46V3.923z" fill="#0078D4"/><path fill-rule="evenodd" clip-rule="evenodd" d="M15.144 26.318V12.519c0-.339-.097-.662-.259-.937a.514.514 0 00-.065-.113v-.008a2.37 2.37 0 00-2.043-1.18 2.37 2.37 0 00-2.343 2.045 3.365 3.365 0 00-3.587 4.177 7.697 7.697 0 00-2.004 5.17 7.696 7.696 0 004.993 7.206c.008.04.008.08.016.121a3.387 3.387 0 004.694 2.424c.363-.162.606-.517.606-.913l-.008-4.193zm1.316 0V12.519c0-.339.097-.662.259-.937.016-.04.04-.08.064-.113v-.008a2.37 2.37 0 012.044-1.18 2.37 2.37 0 012.343 2.045c.105-.008.218-.017.331-.017a3.365 3.365 0 013.256 4.193 7.697 7.697 0 012.003 5.17 7.696 7.696 0 01-4.992 7.207c-.008.04-.008.08-.016.121a3.387 3.387 0 01-4.694 2.424 1.006 1.006 0 01-.606-.913l.008-4.193z" fill="#50E6FF"/><path d="M30.34 12.956h11.883v-2.61H30.34v2.61z" fill="#fff"/><path d="M30.34 16.874h11.883v-2.61H30.34v2.61zm0 3.789h11.883v-2.61H30.34v2.61zm0 3.87h11.883v-2.61H30.34v2.61zm0 3.998h6.6v-2.61h-6.6v2.61z" fill="#50E6FF"/></svg>