<svg xmlns="http://www.w3.org/2000/svg" viewBox="0 0 47 28"><path d="M39.891 13.892c-1.032 0-2.041.24-2.93.622.456-1.172.697-2.439.697-3.778C37.682 4.806 32.854 0 26.898 0c-5.14 0-9.438 3.587-10.519 8.369a5.854 5.854 0 00-4.203-1.793c-3.242 0-5.86 2.606-5.86 5.834v.143C2.714 13.271 0 16.427 0 20.205 0 24.509 3.506 28 7.83 28h32.085C43.83 28 47 24.844 47 20.946c0-3.897-3.194-7.054-7.109-7.054z" fill="#0078D4"/><path d="M26.682 15.877v-1.1c0-.956-.672-1.793-1.609-1.984a1.973 1.973 0 00-2.354 1.936v1.148h-.552v3.467h5.043v-3.467h-.528zm-3.266-1.1c0-.598.384-1.148.96-1.291.841-.215 1.61.43 1.61 1.243v1.148l-2.57.024v-1.124z" fill="#fff"/><path d="M32.854 12.793v-1.029h-1.897V10.21a.369.369 0 00-.36-.359H29.06V7.962h-1.033v1.89h-1.56v-1.89h-1.034v1.89h-1.56v-1.89H22.84v1.89h-1.561v-1.89h-1.033v1.89h-1.561a.369.369 0 00-.36.358v1.554h-1.898v1.029h1.898v1.554h-1.898v1.028h1.898v1.554h-1.898v1.028h1.898v1.555h-1.898v1.028h1.898v1.554c0 .191.168.359.36.359h1.56v1.889h1.034v-1.89h1.56v1.89h1.033v-1.89h1.561v1.89h1.033v-1.89h1.561v1.89h1.033v-1.89h1.56a.368.368 0 00.361-.358V20.54h1.897v-1.028h-1.897v-1.555h1.897V16.93h-1.897v-1.554h1.897v-1.028h-1.897v-1.554h1.873zm-2.93 8.608H19.381V10.903h10.543v10.498z" fill="#fff"/><path d="M24.88 17.622v.933h-.383v-.933c-.169-.095-.313-.286-.289-.502a.463.463 0 01.265-.334c.312-.168.672.095.672.43 0 .167-.096.359-.264.406z" fill="#0078D4"/></svg>