<svg xmlns="http://www.w3.org/2000/svg" viewBox="0 0 48 48"><path d="M10.105 0H0v10.105h10.105V0zM22.737 0H12.632v10.105h10.105V0zM35.368 0H25.263v10.105h10.105V0zM48 0H37.895v10.105H48V0z" fill="#0078D4"/><path d="M10.105 12.632H0v10.105h10.105V12.632zM22.737 12.632H12.632v10.105h10.105V12.632zM35.368 12.632H25.263v10.105h10.105V12.632zM48 12.632H37.895v10.105H48V12.632zM10.105 25.263H0v10.105h10.105V25.263zM22.737 25.263H12.632v10.105h10.105V25.263zM35.368 25.263H25.263v10.105h10.105V25.263z" fill="#50E6FF"/><path d="M48 25.263H37.895v10.105H48V25.263z" fill="#0078D4"/><path d="M10.105 37.895H0V48h10.105V37.895z" fill="#50E6FF"/><path d="M22.737 37.895H12.632V48h10.105V37.895zM35.368 37.895H25.263V48h10.105V37.895zM48 37.895H37.895V48H48V37.895z" fill="#0078D4"/></svg>