<svg xmlns="http://www.w3.org/2000/svg" viewBox="0 0 27 36"><path d="M13.5 0a13.21 13.21 0 013.586.483 13.683 13.683 0 013.226 1.362 13.508 13.508 0 014.843 4.843 13.683 13.683 0 011.362 3.226A13.21 13.21 0 0127 13.5v7.875a3.311 3.311 0 01-.264 1.318 3.357 3.357 0 01-1.793 1.793 3.311 3.311 0 01-1.318.264H20.25V13.5h3.375a2.707 2.707 0 01.58.062 5.311 5.311 0 01.545.149 11.593 11.593 0 00-3.226-8.095 11.1 11.1 0 00-3.568-2.461 11.35 11.35 0 00-7.444-.5 11.411 11.411 0 00-2.69 1.133 11.279 11.279 0 00-4.034 4.034 11.411 11.411 0 00-1.134 2.689 11.012 11.012 0 00-.4 2.988v.211a5.311 5.311 0 01.545-.149 2.707 2.707 0 01.58-.062H6.75V24.75H4.5V27a4.379 4.379 0 00.352 1.749 4.534 4.534 0 002.4 2.4A4.379 4.379 0 009 31.5a2.18 2.18 0 01.176-.879 2.291 2.291 0 011.2-1.2 2.18 2.18 0 01.879-.176h4.5a2.18 2.18 0 01.879.176 2.291 2.291 0 011.2 1.2A2.18 2.18 0 0118 31.5v2.25a2.18 2.18 0 01-.176.879 2.291 2.291 0 01-1.2 1.2 2.18 2.18 0 01-.874.171h-4.5a2.18 2.18 0 01-.879-.176 2.291 2.291 0 01-1.2-1.2A2.18 2.18 0 019 33.75a6.559 6.559 0 01-2.628-.527 6.825 6.825 0 01-3.595-3.595A6.559 6.559 0 012.25 27v-2.461a3.246 3.246 0 01-.923-.492 3.316 3.316 0 01-.7-.729 3.514 3.514 0 01-.46-.918A3.231 3.231 0 010 21.375V13.5a13.21 13.21 0 01.483-3.586 13.683 13.683 0 011.363-3.226 13.508 13.508 0 014.842-4.842A13.683 13.683 0 019.914.483 13.21 13.21 0 0113.5 0zM3.375 15.75a1.081 1.081 0 00-.791.334 1.081 1.081 0 00-.334.791v4.5a1.081 1.081 0 00.334.791 1.081 1.081 0 00.791.334H4.5v-6.75zm7.875 18h4.5V31.5h-4.5zm13.5-16.875a1.141 1.141 0 00-1.125-1.125H22.5v6.75h1.125a1.141 1.141 0 001.125-1.125z" fill="#fff"/></svg>