<svg xmlns="http://www.w3.org/2000/svg" viewBox="0 0 49 48"><path d="M41.68 12.8a6.335 6.335 0 01-6.337-6.337c0-3.5 2.836-6.337 6.337-6.337 3.5 0 6.337 2.836 6.337 6.337.008 3.5-2.828 6.336-6.337 6.336zm0 17.587a6.335 6.335 0 01-6.337-6.337c0-3.5 2.836-6.336 6.337-6.336 3.5 0 6.337 2.836 6.337 6.337.008 3.492-2.828 6.336-6.337 6.336z" fill="#50E6FF"/><path d="M12.614 17.714H0v12.614h12.614V17.714zm0-17.714H0v12.614h12.614V0zm0 35.386H0V48h12.614V35.386z" fill="#0078D4"/><path d="M41.68 47.966a6.335 6.335 0 01-6.337-6.336 6.336 6.336 0 016.337-6.337c3.5 0 6.337 2.836 6.337 6.337.008 3.5-2.828 6.336-6.337 6.336z" fill="#50E6FF"/><path d="M31.616 41.815l-5.133-5.133v2.566h-7.456v5.125h7.456v2.567l5.133-5.125zm0-17.672l-5.133-5.133v2.566h-7.456v5.125h7.456v2.567l5.133-5.125zm0-17.731L26.483 1.28v2.567h-7.456V8.98h7.456v2.567l5.133-5.134z" fill="#0078D4"/></svg>