<svg xmlns="http://www.w3.org/2000/svg" viewBox="0 0 138 114"><path opacity=".03" d="M27.373 55.53l6.767-3.685 5.74 3.263-6.646 3.988-5.861-3.565z"/><path d="M11.3 33.053v13.293l11.6-6.706-.06-13.294-11.54 6.707z" fill="#2195DC"/><path d="M11.3 33.053L0 26.346l.06 13.293 11.24 6.707V33.053z" fill="#0078D4"/><path d="M22.84 26.345l-11.238-6.707L0 26.345l11.3 6.708 11.54-6.708z" fill="#45CAF2"/><path d="M24.835 54.806l.06 11.36 9.85-5.74v-11.36l-9.91 5.74z" fill="#50E6FF"/><path d="M24.835 54.806l-9.608-5.74v11.36l9.668 5.74-.06-11.36z" fill="#45CAF2"/><path d="M34.745 49.065l-9.668-5.68-9.85 5.68 9.608 5.74 9.91-5.74z" fill="#84ECFD"/><path d="M32.146 27.614v6.829l5.922-3.445-.06-6.767-5.862 3.383z" fill="#243A5E"/><path d="M32.146 27.614l-5.74-3.383v6.767l5.74 3.445v-6.829z" fill="#1D4A79"/><path d="M38.008 24.23l-5.74-3.383-5.862 3.384 5.74 3.383 5.862-3.383z" fill="#156AB3"/><path d="M100.245 33.053l-.06 12.266-10.575-6.164V26.95l10.635 6.104z" fill="#243A5E"/><path d="M100.245 33.053l10.333-6.103v12.205l-10.393 6.164.06-12.267z" fill="#1D4A79"/><path d="M89.61 26.95l10.393-6.164 10.575 6.164-10.333 6.103L89.61 26.95z" fill="#156AB3"/><path d="M112.633 12.266v12.206l-10.635-6.103V6.163l10.635 6.103z" fill="#0078D4"/><path d="M112.632 12.266l10.393-6.103-.06 12.206-10.333 6.103V12.266z" fill="#2195DC"/><path d="M101.998 6.163L112.391 0l10.635 6.163-10.394 6.103-10.634-6.103zm29.427 9.789v7.251l-6.345-3.625v-7.312l6.345 3.686z" fill="#45CAF2"/><path d="M131.425 15.952l6.224-3.686-.061 7.312-6.163 3.625v-7.25z" fill="#50E6FF"/><path d="M125.08 12.266l6.224-3.686 6.345 3.686-6.224 3.686-6.345-3.686z" fill="#50E6FF"/><path opacity=".15" d="M4.109 81.997l46.527-25.56 47.132 31.724c.846.543.785 1.812-.06 2.356l-37.948 22.72c-1.752 1.027-3.988 1.027-5.74-.06L4.109 81.997z"/><path d="M100.004 29.004l-4.29 49.066-53.9-29.609 2.599-46.104c.12-1.028 1.269-1.571 2.115-1.088l53.476 27.735z" fill="#0078D4"/><path opacity=".5" d="M100.004 29.004l-4.29 49.065-53.9-29.608 2.66-46.467c.12-.846 1.026-1.33 1.752-.906l53.778 27.916z" fill="#50E6FF"/><path d="M40.787 47.253L4.532 67.676l3.505 2.236 50.455 28.762 1.087.665 35.833-20.061 1.268-.604-.785-1.148L42.54 47.313c-.544-.363-1.21-.423-1.753-.06z" fill="#0078D4"/><path d="M50.214 80.245l-8.4 4.773a.896.896 0 01-.785 0l-12.508-7.19c-.242-.121-.242-.484 0-.605L36.8 72.45a.896.896 0 01.786 0l12.629 7.19c.242.121.242.484 0 .605z" fill="#50E6FF"/><path d="M4.593 67.314c.12.302.362.664.725.906 6.284 4.592 50.636 29.548 52.086 30.334 1.571.846 1.51 1.148 3.686-.06 1.934-1.089 28.883-16.074 34.563-19.518.725-.423.725-1.27.725-1.27.363-.24.544 1.995.363 3.022-.06.363-.423.907-.725 1.088-3.988 2.417-33.234 18.852-34.684 19.88-2.478 1.752-3.082 1.269-4.713 0C54.383 99.943 8.883 73.96 4.713 71.06c-.241-.181-.362-.423-.362-.665l.06-2.96s.06-.363.182-.121z" fill="#0078D4"/><path opacity=".5" d="M4.593 67.314c.12.302.362.664.725.906 6.284 4.592 50.636 29.548 52.086 30.334 1.571.846 1.51 1.148 3.686-.06 1.934-1.089 28.883-16.074 34.563-19.518.725-.423.725-1.27.725-1.27.363-.24.484 1.995.363 3.022-.06.363-.423.906-.725 1.088-3.988 2.417-33.234 18.852-34.684 19.88-2.478 1.752-3.203 1.208-4.713 0C54.383 99.883 8.883 73.96 4.713 71.06c-.241-.181-.362-.423-.362-.665l.06-2.96s.06-.363.182-.121z" fill="#50E6FF"/><path d="M57.827 99.46L4.774 68.764a.88.88 0 01-.302-.906c0-.242.12-.544.362-.726l35.53-20.182c.423-.302 1.027-.241 1.45 0l54.383 30.394c.363.182.483.846.483 1.209 0 .362-.18.725-.543.967L60.244 99.46c-.362.242-.785.302-1.208.302-.423.06-.846-.06-1.209-.302zM5.922 67.737c-.06.06-.181.12-.181.181 0 .12.06.242.18.302L58.19 98.372c.604.363 1.329.363 1.873 0L95.35 78.674c.181-.121.302-.302.302-.484a.635.635 0 00-.302-.543l-54.2-30.032L5.922 67.737z" fill="#0078D4"/><path d="M42.48 47.313s.18.604.724 1.209c.363.362-1.208-.665-1.208-.665l.483-.544z" fill="#0078D4"/><path d="M44.836 45.923l48.098 26.225L96.681 31.3 47.193 6.043a.184.184 0 00-.242 0c-.06.06-.121.12-.121.18-.06 0-2.115 39.64-1.994 39.7z" fill="#9B9BA0"/><path d="M44.836 45.923l48.098 26.225L96.681 31.3 47.193 6.043a.184.184 0 00-.242 0c-.06.06-.121.12-.121.18-.06 0-2.115 39.64-1.994 39.7z" fill="#E1E1E1"/><path d="M41.814 46.588c.363-3.324 2.115-42.54 2.175-43.93.06-1.45 1.39-3.02 2.961-2.235.725.363 51.301 26.648 52.026 27.13 1.934 1.21 1.632 1.693 1.632 4.23-.061 1.934-3.746 43.567-4.049 44.836-.423 1.934.423 1.39-.846 1.27v-.061h-.06c-.302-.06-.483-.303-.423-.605 0-.12 3.928-44.352 3.928-44.352.241-2.84-.121-3.202-1.028-3.867-.785-.544-51.482-27.13-51.482-27.13s-.906-.363-1.39.24c-.241.303-.362.786-.483 1.511-.181 1.39-1.813 40.546-2.175 43.87-.06.603 0 .362.06.664.121.242-.242-.242-.483-.181-.242.12.12.423 0 .12-.182-.543-.423-.846-.363-1.51z" fill="#0078D4"/><path d="M41.754 57.283l-2.357 1.39 3.263 1.873 2.357-1.39-3.263-1.873zm4.109 2.357l-2.357 1.39 2.72 1.57 2.356-1.39-2.72-1.57zm3.565 2.054l-2.356 1.39 2.719 1.571 2.356-1.39-2.719-1.57zm-10.333-2.296l-5.74-3.263-2.417 1.39 5.74 3.323 2.417-1.45zm25.137 20.967l2.296-1.329-2.9-1.692-2.236 1.33 2.84 1.691zm3.263 1.874l2.296-1.33-2.356-1.39-2.296 1.33 2.356 1.39zM60.546 68.16l-2.296 1.329 2.84 1.692 2.357-1.39-2.9-1.631zm1.39 4.41l-2.477 1.45 2.84 1.572 2.417-1.39-2.78-1.631zm3.625 2.116l-2.417 1.45 2.9 1.692 2.478-1.45-2.96-1.692zm-.664-1.33l2.296-1.39-2.9-1.631-2.296 1.33 2.9 1.691zm-6.465-2.779l-2.417 1.39 2.598 1.51 2.417-1.39-2.598-1.51zm10.091 4.894l2.356-1.39-2.78-1.631-2.356 1.39 2.78 1.631zM56.68 65.924l-2.358 1.33 3.022 1.752 2.356-1.39-3.02-1.692zm-3.687-2.175l-2.357 1.39 2.84 1.63 2.357-1.389-2.84-1.631zm-2.719 8.52l2.296-1.33-2.719-1.57-2.296 1.389 2.72 1.51zm3.323 1.933l2.297-1.33-2.417-1.45-2.297 1.39 2.417 1.39zM40.002 59.881l-2.478 1.45 3.021 1.753 2.478-1.45-3.021-1.753zm6.707 10.333l2.296-1.33-2.659-1.51-2.235 1.33 2.598 1.51zm23.203 9.849l2.478-1.45-3.021-1.752-2.478 1.45 3.021 1.752zm5.922-.423l2.296-1.329-2.78-1.631-2.295 1.39 2.78 1.57zm-15.348-1.45l2.296-1.33-2.477-1.45-2.297 1.33 2.478 1.45zm-5.499-9.607l-2.417 1.45 2.538 1.45 2.477-1.45-2.598-1.45zm-3.686-2.176l-2.477 1.45 2.9 1.632 2.417-1.39-2.84-1.692zm-3.625-2.054l-2.417 1.45 2.72 1.571 2.416-1.45-2.719-1.571zm9.426 11.904l2.296-1.39-2.598-1.51-2.296 1.329 2.598 1.57zM43.869 62.178l-2.417 1.39 2.9 1.691 2.478-1.39-2.961-1.691zm31.179 10.816l-2.236 1.269 2.72 1.57 2.235-1.268-2.719-1.571zM43.204 68.22l2.297-1.33-2.538-1.51-2.297 1.39 2.538 1.45zm28.642 2.9l-2.236 1.33 2.357 1.33 2.235-1.27-2.356-1.39zm6.768 3.928l-2.236 1.33 3.142 1.752 2.176-1.33-3.082-1.752zm-6.889-.483l-2.356 1.39 2.78 1.631 2.356-1.39-2.78-1.631zm14.623 3.988l2.114-1.209-4.169-2.417-2.115 1.27 4.17 2.356zm-17.947-9.427l-2.235 1.33 2.598 1.51L71 70.638l-2.599-1.51zM54.02 60.848l-2.235 1.33 2.84 1.631 2.235-1.33-2.84-1.63zm27.313 14.804l2.115-1.208-2.66-1.51-2.054 1.208 2.599 1.51zm-31.18-17.04l-2.236 1.27 3.022 1.812 2.236-1.33-3.022-1.752zm-3.444-1.994l-2.236 1.33 2.538 1.45 2.236-1.33-2.538-1.45zm18.249 10.514l-2.236 1.33 2.598 1.51 2.236-1.329-2.598-1.51zm-3.566-2.054l-2.235 1.33 2.658 1.57 2.236-1.33-2.659-1.57zM40.908 56.8l-4.41-2.538-2.297 1.39 4.35 2.537 2.357-1.39zm16.798 6.163l-2.235 1.33 2.78 1.57 2.235-1.269-2.78-1.631zm-8.399-5.74l2.115-1.209-2.296-1.33-2.115 1.21 2.296 1.329zm28.521 16.435l2.115-1.208-2.96-1.752-2.116 1.268 2.961 1.692zM52.691 59.156l2.055-1.208-2.478-1.45-2.054 1.208 2.477 1.45zm3.565 2.054l2.115-1.208-2.719-1.57-2.115 1.208 2.72 1.57zm-11.42-9.003l-2.417-1.39-2.054 1.21 2.356 1.389 2.115-1.209zm-2.538 1.873l-2.78-1.57-2.235 1.269 2.78 1.631 2.235-1.33zm3.867 1.33l2.115-1.21-2.598-1.51-2.115 1.208 2.598 1.51zm27.796 16.013l2.115-1.209-2.357-1.33-2.054 1.21 2.296 1.329zm-13.958-8.037l2.114-1.209-2.9-1.691-2.054 1.208 2.84 1.692zm10.755 6.224l2.115-1.27-2.598-1.51-2.115 1.27 2.598 1.51zm-3.444-2.055l2.055-1.208-2.66-1.571-2.114 1.269 2.72 1.51zM63.749 65.5l2.054-1.208-2.84-1.631-2.115 1.209 2.9 1.63zM43.204 54.564l-2.296 1.33 2.72 1.51 2.235-1.269-2.659-1.571zm11.723 21.33l-2.477 1.45 2.84 1.632 2.477-1.45-2.84-1.632zm-3.989-2.296l.484.302-2.417 1.45 2.598 1.51 2.478-1.45-3.143-1.812zM34.564 60.546l-4.411-2.538-2.297 1.33 4.411 2.538 2.297-1.33zm-7.494-.725l-2.477 1.45 2.66 1.571 2.537-1.45-2.72-1.571zm3.566 2.055l-2.478 1.45 2.538 1.51 2.478-1.51-2.538-1.45zm10.272 5.921l-2.478 1.45 2.478 1.45 2.477-1.45-2.477-1.45zm-3.504-1.994l-2.478 1.45 2.599 1.51 2.538-1.45-2.66-1.51zM34.08 63.87l-2.537 1.45 2.477 1.45 2.538-1.51-2.478-1.39zm48.522 13.474l-2.236 1.27 2.96 1.751 2.236-1.329-2.96-1.692zm-38.31-7.614l-2.538 1.45 2.9 1.693 2.478-1.45-2.84-1.692zm3.747 2.176l-2.538 1.45 2.598 1.51 2.538-1.45-2.598-1.51zm28.641 8.278l3.504 1.994 2.357-1.39-3.505-1.993-2.356 1.39zm-8.278 2.538l5.438 3.203 2.296-1.39-5.498-3.142-2.236 1.33zm-2.84-.665l-2.477 1.45 2.416 1.39 2.478-1.45-2.417-1.39zm.785 3.323l4.23 2.418 2.478-1.45-4.23-2.417-2.478 1.45zM39.82 66.226l2.297-1.33-2.961-1.691-2.296 1.33 2.96 1.691zm18.853 11.783l-2.538 1.51 2.599 1.45 2.477-1.45-2.538-1.51zm3.444 1.994l-2.538 1.51 2.66 1.511 2.477-1.51-2.599-1.511zM36.014 64.05l2.296-1.329-2.9-1.691-2.296 1.329 2.9 1.692zm34.805 16.497l6.103 3.565 2.477-1.45-6.163-3.565-2.417 1.45z" fill="#50E6FF"/><path d="M72.027 34.322c-.181.12-.483.302-.665.423-.241.12-.543.362-.785.543a21.52 21.52 0 00-1.45 1.028c-.484.362-.967.785-1.45 1.148-.484.362-.907.846-1.39 1.269-.423.423-.846.846-1.27 1.329-.18.181-.422.423-.603.665a7.677 7.677 0 00-.605.725c-.12.181-.362.423-.483.604l-.544.725c-.12.181-.302.423-.423.604-.12.242-.302.484-.423.726l-.242.483-.241.483c-.06.121-.121.302-.181.423-.061.181-.182.423-.242.665 0 .12-.06.242-.121.363-.06.18-.06.362-.06.543v.484c0 .06 0 .181.06.241.06.121.06.242.12.363.061.06.122.181.182.242.181.181 0 .604-.362.906-.786-.906-.544-2.598.725-4.894 2.598-4.532 8.52-9.668 13.233-11.481-.121.181-.182.241-.302.302-.302.12-.786.302-1.088.483-.181.121-.484.242-.665.363-.181-.06-.483.06-.725.242z" fill="#185A97"/><path d="M61.271 48.28c-.725-.846-.544-2.417.725-4.593 2.417-4.23 7.916-9.003 12.327-10.695.06.06.181.121.302.06-.302.121-.785.303-1.087.484-.242.12-.544.242-.725.363-.182.12-.484.241-.726.362a5.51 5.51 0 00-.785.484c-.181.12-.484.302-.665.423-.483.302-.967.664-1.45 1.027-.483.362-.967.785-1.45 1.148-.484.362-.907.846-1.39 1.269-.423.423-.846.846-1.269 1.33-.181.18-.423.483-.604.664a6.456 6.456 0 00-.544.664c-.181.242-.423.484-.544.726-.12.18-.302.423-.423.604-.12.242-.362.483-.483.725-.121.181-.242.423-.363.604-.06.181-.181.363-.302.484-.06.12-.181.302-.242.483a3.24 3.24 0 01-.302.665c-.06.12-.06.302-.12.362a2.125 2.125 0 00-.121.605c0 .12 0 .241-.06.302v.302c0 .12 0 .302.06.423 0 .12.06.241.12.302 0 .181.06.302.121.423zm17.343-15.227l-.121-.121c-.06-.06-.121-.06-.121-.121-.06 0-.12-.06-.181-.12-.06-.061-.182-.061-.302-.122-.06 0-.182-.06-.242-.06-.121 0-.363-.06-.484-.06h-.302c-.18 0-.423.06-.604.06-.242.06-.604.12-.906.242-.242.06-.544.18-.786.241a.729.729 0 00.302-.302c2.296-.906 3.928-.785 4.653.06-.302.363-.725.484-.906.303z" fill="#185A97"/><path d="M77.163 32.509c-.18 0-.423 0-.604.06-.12 0-.242.06-.362.06-.182.061-.484.122-.665.182-.302.06-.725.242-.967.302-.12.06-.242 0-.302-.06 2.175-.846 3.625-.725 4.29.06l-.12-.12-.122-.122a.458.458 0 00-.241-.12c-.06 0-.121-.061-.182-.061-.12-.06-.302-.06-.483-.12 0-.061-.12-.061-.242-.061z" fill="#185A97"/><path d="M77.888 31.12h.363c.181 0 .423.06.604.12.06 0 .181.06.242.12l.362.182.181.181.182.182c.06.12.181.302.302.423.06.181.12.302.181.543.06.182.06.423.06.605v.423c0 .12 0 .302-.06.423l-.181.725c-.06.12-.12.362-.181.483-.121.242-.242.605-.363.846-.06.181-.181.363-.242.544-.12.181-.241.423-.302.604-.12.181-.302.484-.423.665-.181.242-.362.544-.543.846-.121.181-.363.483-.484.665a7.657 7.657 0 01-.665.785c-.18.242-.423.483-.604.725s-.483.544-.664.786c-.424.483-.907.966-1.39 1.45-.484.483-.967.906-1.511 1.33-.483.422-1.027.845-1.571 1.268-.544.423-1.088.786-1.571 1.148-.242.121-.544.363-.725.484-.242.181-.604.362-.907.543-.241.121-.543.303-.785.423l-.846.423c-.363.182-.906.363-1.269.544-.362.121-.846.302-1.209.423-.302.06-.725.182-1.027.242-.12 0-.302.06-.423.06h-.725c-.12 0-.242 0-.302-.06-.12 0-.362-.06-.483-.12a.458.458 0 01-.242-.122c-.12-.06-.302-.12-.363-.181-.06-.06-.12-.06-.18-.12-.061-.061-.182-.122-.242-.242a1.84 1.84 0 01-.303-.423c-.06-.121-.12-.303-.18-.484-.061-.181-.061-.423-.061-.604v-.423c0-.121 0-.302.06-.423l.181-.725c.06-.121.121-.363.182-.484.12-.241.241-.604.362-.846.06-.18.181-.362.242-.543.12-.182.242-.423.302-.605.12-.18.302-.483.423-.664.181-.242.362-.605.544-.846.12-.182.362-.484.483-.665.181-.242.423-.544.665-.846.181-.242.423-.483.604-.725s.483-.544.665-.785a30.07 30.07 0 011.39-1.45c.483-.484.966-.907 1.51-1.33a35.746 35.746 0 011.571-1.269c.544-.423 1.088-.786 1.571-1.148.242-.121.544-.363.725-.483.242-.182.605-.363.907-.544.242-.121.544-.303.785-.423l.846-.423c.363-.182.907-.363 1.27-.544.12-.06.24 0 .301.06.182.182.121.605-.06.907-4.713 1.812-10.635 6.949-13.233 11.48-1.33 2.297-1.51 4.049-.725 4.895.725.846 2.296.906 4.652.06 4.714-1.812 10.635-6.949 13.234-11.48 1.329-2.297 1.51-4.049.725-4.895-.725-.846-2.296-.906-4.653-.06.181-.302.181-.725.06-.907-.06-.06-.18-.12-.302-.06.363-.121.846-.302 1.209-.363.241-.06.604-.12.846-.18.12 0 .302-.061.423-.061.241-.06.544-.06.785-.06z" fill="#185A97"/><path d="M61.997 43.688c-1.209 2.175-1.39 3.746-.725 4.592-.182-.181-.605-.06-.967.242-.786-.907-.544-2.599.725-4.895 2.598-4.532 8.52-9.668 13.233-11.48-.181.301-.181.724-.06.906-4.29 1.631-9.79 6.405-12.206 10.635z" fill="#185A97"/><path d="M78.976 32.146c-.363.302-.544.725-.363.907-.665-.786-2.175-.846-4.29-.06-.181-.182-.121-.605.06-.907 2.236-.846 3.868-.786 4.593.06z" fill="#185A97"/><path d="M65.622 48.28c4.41-1.692 9.91-6.466 12.326-10.696 1.209-2.175 1.39-3.746.726-4.592.18.181.604.06.966-.241.786.906.544 2.598-.725 4.894-2.598 4.532-8.52 9.668-13.233 11.48-2.296.907-3.928.786-4.653-.06.363-.302.544-.725.363-.906.544.906 2.054.967 4.23.12z" fill="#185A97"/><path d="M65.622 48.28c-2.175.846-3.626.725-4.29-.06l.12.12c.061.06.122.06.122.121.06 0 .12.06.18.121.061.06.182.06.303.12.06 0 .12.061.181.061.121 0 .242.06.363.06h.302c.181 0 .423 0 .604-.06.302-.06.665-.12.907-.181.302-.06.664-.242.966-.302.302-.121.786-.302 1.088-.483.181-.121.483-.242.665-.363.241-.12.543-.302.725-.423.181-.12.483-.302.664-.423.242-.12.544-.363.786-.544.483-.302.967-.664 1.45-1.087.484-.424.967-.786 1.45-1.149.484-.422.907-.846 1.39-1.269.423-.422.906-.846 1.269-1.329.181-.181.423-.423.604-.665.182-.18.423-.483.605-.725.12-.18.362-.423.483-.604l.544-.725c.12-.181.302-.423.423-.604.12-.242.302-.484.423-.725l.241-.484.242-.483c.06-.121.121-.302.181-.423.06-.181.182-.423.242-.665 0-.12.06-.242.121-.362.06-.182.06-.363.06-.544v-.484c0-.06 0-.18-.06-.241 0-.121-.06-.242-.12-.363-.061-.12-.122-.181-.182-.302.725.846.544 2.417-.725 4.592-2.417 4.472-7.976 9.245-12.327 10.877z" fill="#185A97"/><path d="M78.915 33.657c0-.06-.06-.12-.06-.181 0-.06-.06-.121-.06-.182-.06-.06-.121-.18-.182-.302-.18-.181 0-.604.363-.906.785.906.544 2.598-.725 4.894-2.598 4.532-8.52 9.668-13.233 11.481-2.296.907-3.928.786-4.653-.06.362-.302.785-.423.967-.242.06.06.06.12.12.12 0 0 .061.061.122.061.06.06.18.121.241.121.06 0 .121.06.181.06.121 0 .242.061.303.061h.785c.121 0 .242 0 .302-.06.242-.06.604-.121.846-.182.302-.06.725-.241 1.027-.362.303-.121.786-.302 1.088-.484.242-.12.544-.241.725-.362.181-.121.484-.242.725-.363a5.51 5.51 0 00.786-.483c.181-.121.483-.302.665-.423.483-.302.966-.665 1.45-1.088.483-.423.967-.785 1.45-1.148.483-.423.906-.846 1.39-1.269.423-.423.906-.846 1.269-1.33.18-.18.423-.483.604-.664.181-.181.362-.423.544-.664.181-.242.423-.484.544-.726.12-.18.302-.423.422-.604.121-.242.363-.483.484-.725.12-.181.242-.423.362-.604.06-.181.182-.363.303-.484.06-.12.18-.302.241-.483a3.24 3.24 0 01.302-.665c.06-.12.06-.302.121-.362.06-.182.121-.423.121-.604 0-.121 0-.242.06-.303v-.302c.061.121 0-.06 0-.181z" fill="#185A97"/><path d="M78.977 32.146c-.726-.846-2.297-.906-4.653-.06.12-.181.181-.242.302-.302a7.93 7.93 0 01.906-.302c.363-.121.786-.182 1.088-.242.242-.06.604-.06.846-.121h.423c.181 0 .483.06.665.06.12 0 .241.06.302.06.12.061.302.122.423.182.06.06.18.121.241.121l.182.181.18.181c.061.061.122.121.182.242.06.06.06.181.121.242.06.12.12.363.181.483 0 .121.06.242.06.363v.665c0 .18-.06.483-.12.664 0 .121-.06.302-.121.484-.06.241-.181.544-.242.785-.06.181-.181.363-.241.544a2.8 2.8 0 01-.303.604c-.06.181-.241.423-.302.605-.12.241-.362.543-.483.785-.12.181-.302.483-.484.665-.18.241-.422.544-.604.846-.181.181-.362.483-.544.664a7.657 7.657 0 01-.664.786c-.181.242-.423.483-.605.725-.422.483-.906.967-1.39 1.45-.483.484-.966.907-1.51 1.33a35.76 35.76 0 01-1.571 1.269c-.544.423-1.088.785-1.571 1.148-.242.18-.604.422-.906.543a7.848 7.848 0 00-.725.423c-.242.121-.605.303-.847.484-.241.12-.543.241-.785.362-.362.182-.906.363-1.269.544-.362.121-.785.302-1.148.363-.363.12-.785.181-1.088.241-.241 0-.544.06-.785.06h-.363c-.181 0-.362-.06-.483-.06s-.181-.06-.302-.06c-.121-.06-.302-.12-.423-.181a.459.459 0 00-.242-.121c-.06-.06-.181-.121-.242-.181l-.18-.182c-.061-.12-.182-.241-.243-.362-.06-.121-.12-.363-.18-.544 0-.12-.061-.242-.061-.363v-.664c0-.182.06-.484.12-.665 0-.12.061-.302.121-.483.06-.242.182-.544.242-.786.06-.181.181-.363.242-.544.06-.181.181-.423.302-.604.06-.181.242-.423.302-.604.12-.242.363-.544.483-.786.121-.181.303-.483.484-.664.181-.242.423-.605.604-.846.181-.182.363-.484.544-.665a7.59 7.59 0 01.665-.786c.18-.241.423-.483.604-.725.423-.483.906-.966 1.39-1.45a15.97 15.97 0 011.51-1.33c.484-.422 1.028-.845 1.571-1.268.544-.423 1.088-.786 1.571-1.148.242-.182.605-.423.907-.544a7.71 7.71 0 00.725-.423c.242-.12.604-.302.846-.483.242-.121.544-.242.785-.363.363-.181.907-.363 1.27-.544a.729.729 0 00-.303.302c-4.713 1.813-10.635 6.95-13.233 11.481-1.33 2.296-1.51 4.048-.725 4.895.725.845 2.296.906 4.653.06 4.713-1.813 10.635-6.949 13.233-11.48 1.208-2.357 1.39-4.05.665-4.956zm-6.164 12.508l.181-.181.182-.181.18-.182.182-.18.181-.182.182-.181.181-.182.181-.18.182-.182.12-.181.121-.182.121-.12.121-.121.06-.121.06-.121v-.362h-.18l-.121.06-.121.06-.181.121-.121.242-.242.181-.242.242-.302.241-.06.06-.06.061-.061.06-.06.061-.06.06-.061.06-.06.061-.061.06-.06.061-.061.06-.06.061-.06.06-.122.06-.12.122-.121.12-.182.121-.12.121-.121.121-.121.121-.182.12-.18.182-.182.181-.181.182-.182.18-.181.182-.12.121-.122.12-.12.122-.06.12-.061.122v.18l.06.061h.181l.121-.06.181-.06.182-.121.181-.121.181-.121.182-.121.18-.12.182-.122.181-.12.182-.122.181-.12.181-.121.121-.363z" fill="#243A5E"/><path d="M70.093 48.34a7.916 7.916 0 100-15.831 7.916 7.916 0 000 15.831z"/><path d="M74.564 33.053c-.181.06-.362.18-.544.241.181-.06.423-.181.544-.241zM61.09 47.978c-.06-.121-.06-.242-.121-.363.06.12.06.242.12.363zm-.121-1.028c0-.12.06-.302.06-.423v.121c-.06.06-.06.181-.06.302zm1.268-3.323c.061-.12.121-.181.182-.302 0 0 0 .06-.06.06 0 .06-.061.121-.122.242zm-1.087 2.417c.06-.12.121-.362.181-.483 0 .06-.06.06-.06.12-.06.06-.12.242-.12.363zm.846-2.054c-.06.12-.181.302-.242.483.121-.181.182-.363.242-.483zm.423-.665c.06-.121.12-.181.181-.302-.06.06-.12.18-.181.302 0-.06 0 0 0 0zm-1.45 4.29c0-.12-.06-.242-.06-.363v.06c.06.122.06.243.06.303zm.121.363c.06.06.12.18.18.241-.06-.06-.12-.12-.18-.241zm-.06-1.511c.06-.181.06-.363.12-.483 0 .12-.06.241-.12.362v.12zm.24-.967c.061-.181.182-.362.242-.544-.06.121-.12.302-.18.423 0 .06 0 .06-.061.121zm.968-1.873c-.06.12-.182.242-.242.362.12-.12.181-.241.242-.362zm-.483.906c-.06.121-.182.303-.182.423 0-.12.121-.302.181-.423zm12.024-11.118c.06-.06.181-.06.242-.12-.121.06-.182.12-.242.12z" fill="#185A97"/><path d="M74.02 33.294c.182-.06.424-.181.545-.241-.121.06-.242 0-.302-.06-.242.12-.484.18-.726.301.06 0 .121.06.182.06.12.061.18 0 .302-.06zM61.09 47.978c-.061-.121-.121-.242-.121-.363 0-.06-.06-.181-.06-.242v-.483c0-.12 0-.242.06-.302v-.241c0-.122.06-.242.12-.363s.06-.242.121-.363c0-.06.06-.06.06-.12 0-.061.061-.061.061-.122.06-.12.121-.302.181-.423.06-.12.121-.302.182-.423v-.06c.06-.12.181-.302.241-.483.06-.121.121-.242.242-.363.06-.06.12-.181.12-.242 0 0 0-.06.061-.06 0 0 0-.06.06-.06.061-.061.122-.182.182-.242 0-.06-.06-.121-.06-.181-.303.422-.544.845-.846 1.268-1.028 1.934-1.088 3.384-.484 4.11 0-.061-.06-.121-.12-.242zM75.47 32.75c.242-.06.544-.12.786-.18-.181.06-.483.12-.664.18h-.121zm.786-.18c.182 0 .363-.061.544-.061h-.181c-.12.06-.242.06-.363.06zm1.692.06c.06 0 .181.06.242.12h-.06a.869.869 0 00-.182-.12zm-.785-.121c.12 0 .242 0 .362.06h-.12c0-.06-.121-.06-.242-.06zm.423.061c.12 0 .241.06.362.06-.06 0-.181-.06-.241-.06h-.121zm-2.236.24c-.242.061-.544.182-.785.242.241-.12.604-.18.906-.302-.06.06-.06.06-.121.06zm2.78-.12c.06.06.12.06.18.12 0 0-.06-.06-.18-.12.06.06.06.06 0 0zm.302.182l-.06-.061c0 .06.06.06.06.06z" fill="#185A97"/><path d="M74.564 33.053c.121-.06.182-.121.303-.303l-.544.182s-.06 0-.06.06c.12.12.24.12.301.06z" fill="#185A97"/><path d="M75.47 32.75c.061 0 .061 0 .121-.06.182-.06.484-.12.665-.181.121 0 .242-.06.363-.06h1.148c.06 0 .181.06.242.06.06 0 .12.06.18.06h.121c.061 0 .121.06.182.121l.06.06h.06c-.664-.604-1.872-.664-3.625-.12a.728.728 0 01-.302.302c.242-.06.544-.181.786-.242-.06.12-.06.12 0 .06zm-2.9 0c-.06 0-.06.06-.12.06.06 0 .06-.06.12-.06zm3.868 8.4l.12-.121c-.06.06-.06.12-.12.12 0 .061 0 .061 0 0zm-3.687-8.52c.182-.121.423-.242.605-.303-.182.06-.363.182-.605.303zM61.452 42.781c.121-.12.181-.302.242-.423-.06.12-.181.242-.242.423zm15.892-2.719c-.121.12-.242.302-.302.423a1.88 1.88 0 00.302-.423zM62.6 50.213c.121 0 .302-.06.423-.06-.181 0-.423.06-.604.06h.181zm6.405-2.598c.121-.06.181-.12.302-.181-.12.06-.241.181-.362.242 0-.06.06-.06.06-.06zM79.157 31.36c-.06-.06-.181-.06-.242-.12.12.06.242.06.363.12h-.121zM67.373 48.582c.06 0 .06-.06.121-.06-.06 0-.12.06-.12.06-.061 0-.061 0 0 0zm-.241.06zm-1.208.604c-.242.121-.484.182-.665.242.181-.06.423-.12.665-.242zm-4.411.907c.12 0 .241 0 .302.06-.121 0-.302-.06-.423-.06h.12zm7.069-2.296c-.181.12-.302.181-.423.242.06-.061.242-.121.423-.242zm-7.855 2.115c.06.06.181.06.242.12-.121-.06-.242-.06-.363-.12.12-.06.12 0 .12 0zm3.323-.061c-.302.06-.725.181-1.027.242.302-.06.665-.121 1.027-.242zm16.194-17.523c.06.12.121.302.121.423-.06-.121-.06-.242-.12-.423zM59.82 45.863c-.06.12-.12.362-.18.483.06-.181.12-.423.241-.665 0 .06-.06.121-.06.182zm-.301 1.208c0 .121-.06.302-.06.423 0-.181.06-.362.06-.544v.121zM74.02 32.086c.242-.121.484-.182.665-.242-.242 0-.484.12-.665.242zM59.7 48.944zm20.061-17.221zM60.063 49.489c-.061-.061-.061-.061 0 0-.061-.061-.061-.061 0 0zm15.77-18.068c-.06 0-.12 0-.12.06.302-.06.664-.18.966-.241-.242 0-.604.06-.846.181zM61.15 43.144c-.06.06-.12.18-.181.241l.181-.362c.06.12 0 .12 0 .12zm15.952-12.025c-.12 0-.302.06-.423.06.182-.06.484-.06.665-.06h-.242zm-16.919 18.49c.06 0 .06.06.121.06-.06 0-.12-.06-.12-.06zm18.067-18.49h-.362c.181 0 .362 0 .543.06-.06-.06-.12-.06-.18-.06zM62.177 41.693c-.06.06-.12.182-.181.302.06-.12.181-.241.242-.362l-.06.06zm-1.692 2.72c.06-.182.182-.363.303-.544-.121.12-.242.362-.303.544zm19.578-8.943c.06-.121.121-.363.182-.484-.06.181-.121.423-.242.665 0-.06.06-.121.06-.182zm-1.329 2.658c.06-.06.12-.181.18-.242l-.18.363c-.06-.06 0-.06 0-.12zm1.631-3.867c0-.12.06-.302.06-.423 0 .181-.06.363-.06.544v-.12zm-.967 2.659c-.06.181-.181.362-.302.544.121-.121.242-.363.302-.544zm-.966 1.631c-.121.121-.182.302-.242.423.06-.12.181-.241.242-.423zm-.725 1.088c.06-.06.12-.181.18-.242-.06.121-.18.242-.24.363 0-.06.06-.06.06-.121zM62.54 42.781l-.544.906c-.06.121-.181.303-.242.423.242-.423.544-.846.846-1.268-.06 0-.06-.06-.06-.06zm11.058-9.426c.242-.121.483-.242.725-.302-.302.06-.544.18-.725.302-.06-.06-.06 0 0 0zM61.754 44.11c0 .06-.06.06-.06.121-.967 1.753-1.33 3.142-1.149 4.11.303-.182.605-.242.726-.122-.665-.725-.544-2.175.483-4.108z" fill="#185A97"/><path d="M74.262 32.992c-.181-.181-.12-.604.06-.906-.604.241-1.208.483-1.812.785.362.121.664.242 1.027.423.242-.06.483-.181.725-.302zM61.694 44.231c0-.06.06-.06.06-.12.06-.121.181-.303.242-.424l.544-.906c-.121-.302-.182-.665-.242-1.027-.483.604-.846 1.269-1.209 1.873-1.329 2.296-1.51 4.048-.725 4.894.06-.06.121-.12.182-.12-.182-1.028.12-2.418 1.148-4.17zM74.927 32.75c-.181.06-.362.121-.544.242.182-.06.363-.12.544-.242-.06.06 0 0 0 0z" fill="#185A97"/><path d="M78.492 32.932c.06.06.12.06.12.12-.12-.18-.06-.483.182-.724-.846-.303-2.175-.182-3.927.422v.06c1.752-.543 2.96-.483 3.625.122z" fill="#185A97"/><path d="M78.492 32.932l.121.12-.12-.12z" fill="#185A97"/><path d="M78.613 33.053c0-.06-.06-.06-.12-.121l.12.12zm-3.686-.303c1.692-.664 3.021-.785 3.928-.422l.18-.182c-.664-.785-2.053-.906-3.987-.302.06.242.06.604-.121.907z" fill="#185A97"/><path d="M74.262 32.992h.06c.182-.06.363-.181.544-.242.182-.302.182-.664.06-.906-.18.06-.422.12-.664.242-.12.302-.12.725 0 .906zM71.06 45.138l-.182.18-.12.122-.121.12-.121.121-.06.121-.061.121v.181l.06.06h.181l.121-.06.182-.06.18-.12.182-.122.181-.12.182-.122.181-.12.181-.121.181-.121.182-.12.181-.122.181-.12.121-.121.181-.182.182-.181.181-.181.181-.181.182-.182.18-.181.182-.181.181-.182.182-.18.12-.182.121-.181.121-.121.121-.121.06-.121.06-.12v-.363h-.18l-.121.06-.121.06-.181.121-.182.181-.241.182-.182.12a37.084 37.084 0 01-2.84 2.539zm-2.176 1.208c-.12.06-.241.121-.362.242 0 0 .06 0 .06-.06.121-.061.242-.121.302-.182zm-5.498 2.417c-.12 0-.302 0-.483.06h.12c.121 0 .303-.06.363-.06zm.906-.181l-.906.181.906-.181zm-2.357.121a.458.458 0 01-.241-.121h.06c.06.06.121.06.181.12zm.605.121c-.06 0-.182 0-.303-.06h.061c.06 0 .12 0 .242.06zm-1.148-.424l.06.061c0-.06 0-.06-.06-.06z" fill="#185A97"/><path d="M73.477 42.962l-.121.06-.06.061-.061.06-.06.061-.06.06-.061.06-.06.061-.061.06-.06.061-.061.06-.06.061-.121.06-.121.121-.121.121-.181.12-.121.122-.12.12-.122.122-.181.12-.181.182-.182.18-.18.182-.122.121a55.57 55.57 0 002.84-2.477l-.12.12-.242.121zm2.115-2.477c-.06.06-.06.12-.121.12.06 0 .06-.06.12-.12zm-8.339 6.828c-.06 0-.12.06-.181.06.12 0 .12 0 .181-.06zm9.547-8.278c-.06.12-.12.18-.241.302l.06-.06a.81.81 0 01.181-.242zm-8.943 7.975c.12-.06.242-.18.423-.241-.181.12-.302.181-.423.242zm-1.45.786c.181-.06.362-.18.544-.302-.181.121-.363.181-.544.302zm-1.087.424c.18-.061.362-.182.543-.242-.181.12-.423.18-.544.241zm9.547-6.89c.12-.18.302-.362.483-.543-.181.181-.363.363-.483.544zm2.175-2.718c.06-.121.181-.242.241-.363a.927.927 0 01-.241.363zm-1.028 1.39c.06-.121.182-.242.303-.363-.121.12-.182.242-.303.362zm1.632-2.297c-.06.121-.12.182-.181.303 0 0 0-.06.06-.06.06-.122.06-.182.121-.243zm1.148-2.417c-.06.182-.121.363-.181.484 0-.06.06-.06.06-.121 0-.121.06-.242.12-.363zm0-1.933c.06.12.06.241.12.302 0-.06-.06-.121-.06-.181s-.06-.06-.06-.121zm-.906 3.988c.06-.121.181-.303.241-.484-.06.121-.18.302-.241.484zm1.087-2.961c0 .12-.06.302-.06.423v-.12c0-.061 0-.182.06-.303zM61.392 48.4l-.121-.12.06.06s.06 0 .06.06zm.363.182c-.06-.06-.121-.06-.182-.121 0 .06.06.06.181.12-.06 0-.06 0 0 0zm.483.181c-.06 0-.182-.06-.242-.06.06 0 .12.06.181.06h.06zm16.374-15.71c.061.06.121.18.182.241-.06-.06-.121-.181-.181-.241zm.303.604c0 .12.06.181.06.302v-.06c-.06-.061-.06-.182-.06-.242zm-.302 2.115c-.06.18-.181.362-.242.544.06-.121.12-.303.181-.424 0 0 .06-.06.06-.12zm-9.728 10.574c.12-.06.302-.181.362-.242-.06.06-.181.182-.362.242zm6.707-5.861c.12-.181.302-.363.423-.544a4.293 4.293 0 01-.423.544zm1.873-2.477c-.06.12-.12.18-.181.302.06-.121.12-.182.181-.303zm-.423.604c-.06.12-.181.241-.302.362.12-.06.242-.241.302-.362z" fill="#185A97"/><path d="M78.915 34.805c-.06.181-.06.362-.121.483 0-.12.06-.241.12-.362-.06-.06-.06-.06 0-.121zM67.253 47.313a5.48 5.48 0 01.544-.302c-.121.12-.363.241-.544.302zm10.393-9.608c.06-.12.181-.241.242-.362-.06.06-.181.241-.242.362zM65.863 48.038c.181-.06.363-.181.544-.242-.181.06-.363.121-.544.242zm1.269-.604c-.06 0-.12.06-.12.06s.06-.06.12-.06c-.06 0-.06 0 0 0zm8.339-6.768c-.06.06-.06.121-.12.121l.12-.12zm-6.889 5.922l-.362.181c.12-.06.181-.12.241-.181h.121zm9.608-9.789c.06-.121.12-.302.181-.423-.06.12-.12.302-.181.423zm-1.632 2.538c-.06.12-.181.181-.242.302.06-.12.121-.181.242-.302zM65.32 48.22c-.303.12-.726.241-1.028.302h.06c.242-.06.665-.182.967-.303zm-4.049.06c-.12-.121-.423-.121-.725.12.06.182.06.303.181.484l.363.181c.241-.362.362-.664.181-.785zm17.342-15.227c.12.12.423.12.725-.121-.06-.181-.06-.302-.181-.484l-.363-.18c-.242.301-.302.603-.181.785z" fill="#185A97"/><path d="M79.217 32.509c-.06-.121-.12-.242-.242-.363l-.181.181c.181.06.302.121.423.182zM60.364 48.521c.121.121.242.242.363.303-.06-.121-.12-.303-.181-.484l-.181.181zm1.028-.121c0-.06 0-.06 0 0l-.121-.12-.06-.06c.12.18.06.483-.182.724.846.303 2.175.182 3.928-.422.181-.06.362-.121.544-.242-1.934.785-3.384.785-4.11.12zM78.13 37.161c0-.06.06-.06.06-.12.967-1.753 1.33-3.143 1.148-4.11-.302.182-.604.242-.725.122.665.785.544 2.175-.484 4.108z" fill="#185A97"/><path d="M78.794 33.355c0 .06.06.12.06.18 0 .061.061.122.061.182s.06.181.06.242v.483c0 .121 0 .242-.06.302v.242c0 .121-.06.242-.12.363-.061.12-.061.241-.122.362 0 .06-.06.06-.06.121 0 .06-.06.06-.06.12-.06.122-.121.303-.182.424-.06.12-.12.302-.181.423v.06c-.06.121-.181.302-.242.484-.06.12-.12.241-.241.362a.458.458 0 00-.121.242s0 .06-.06.06c0 0 0 .06-.061.06-.06.061-.121.182-.181.242-.06.121-.182.242-.242.363-.06.12-.181.242-.302.363-.06.06-.121.18-.181.241l-.061.06s0 .061-.06.061c-.06.06-.121.181-.182.242-.12.12-.18.242-.302.362-.12.182-.302.363-.423.544l-.12.121-.121.121c-.182.181-.303.363-.484.544-.423.423-.846.906-1.269 1.33-.423.422-.906.845-1.39 1.268-.483.423-.966.786-1.45 1.148l-1.45 1.088c-.12.06-.242.181-.362.242-.121.06-.182.12-.303.18 0 0-.06 0-.06.061 0 0-.06 0-.06.06-.06.061-.182.122-.242.182-.121.06-.302.181-.423.242-.181.12-.363.241-.544.302-.06 0-.06.06-.12.06-.061 0-.061.06-.122.06-.181.121-.423.182-.544.303-.18.06-.362.181-.543.241-.182.06-.423.182-.544.242a5.885 5.885 0 01-.967.302h-.12c-.243.06-.605.121-.847.181-.12 0-.241.06-.302.06h-.906c-.06 0-.121-.06-.182-.06-.06 0-.12-.06-.18-.06h-.121c-.061 0-.122-.06-.182-.12h-.06l-.06-.061c.724.664 2.114.664 4.108-.06 4.592-1.934 10.091-6.829 12.629-11.119 1.027-1.934 1.088-3.384.483-4.109 0-.181.06-.06.121.06 0-.06 0-.06 0 0zM61.392 48.34l-.06-.06c0 .06.06.06.06.06z" fill="#185A97"/><path d="M79.7 36.316c-.06.18-.18.362-.241.543.12-.18.181-.362.241-.543zm.242-.544c0-.06.06-.121.06-.182a2.19 2.19 0 01-.302.665c.121-.12.182-.302.242-.483zm-19.759 9.245c.06-.181.182-.363.242-.544-.12.181-.181.363-.242.544zm18.974-7.553c-.06.12-.181.241-.242.423.06-.121.12-.303.242-.423zm-18.43 6.405c.06-.121.181-.242.242-.423-.06.12-.121.302-.242.423zm.543-.846s0 .06-.06.06c.06-.12.12-.242.242-.362-.06.12-.182.241-.182.302zm19.035-8.46v-.12c-.06.18-.12.422-.12.604.06-.182.12-.363.12-.484zm-1.692 3.747s0-.06.06-.06c-.06.12-.12.24-.241.362.12-.121.18-.242.18-.302zM66.528 49.005c-.181.06-.423.181-.604.241.18-.06.423-.18.604-.241zm-2.418.906c.363-.12.786-.241 1.149-.362-.363.12-.846.241-1.148.362zm3.143-1.329c.06 0 .06 0 0 0 0 0-.06.06-.12.06.06 0 .12 0 .12-.06zm.847-.423c-.182.12-.424.242-.605.362.181-.12.423-.302.604-.362zm9.486-8.399l.06-.06c-.06.12-.181.241-.242.362.06-.121.121-.181.182-.302zM61.331 50.153h.121c-.12 0-.302-.06-.362-.06 0 0 .12 0 .241.06zm7.493-2.478l.06-.06c-.12.06-.241.12-.362.242.12-.06.241-.121.302-.181zm.906-.543zm7.312-6.647c-.12.181-.302.423-.483.604.18-.242.362-.423.483-.604zM59.7 49.005zm18.49-10.031c-.06.121-.181.242-.302.423.12-.181.241-.302.302-.423zM59.58 46.77v.12c.06-.181.06-.423.12-.604-.06.181-.12.362-.12.483zm.543 2.779s.06.06 0 0l-.121-.121.12.12zm16.315-8.339a7.661 7.661 0 00-.605.725 7.68 7.68 0 00.605-.725zm-16.074 8.52l-.06-.06c0 .06.06.06.06.06zm-.422-4.17c0 .06-.06.121-.06.182.06-.242.18-.484.302-.665-.061.12-.182.302-.242.483zm.664 4.351s.06 0 .06.06c-.12-.06-.241-.12-.301-.18.06 0 .18.06.241.12zM80.365 32.81c0 .122.06.303.06.484v-.12c0-.121-.06-.242-.06-.363zm-.302-.664c-.06-.06-.12-.181-.18-.242.06.121.18.303.24.424 0-.06 0-.121-.06-.182zm-7.613.664s-.061 0-.061.062c0 0 0-.061.06-.061zm7.734-.482s0 .06.06.06c0 0-.06 0-.06-.06zm-7.554.362s.061-.06.122-.06c-.06.06-.06.06-.121.06zM59.458 48.038v.12c0 .122.06.243.06.363 0-.18-.06-.362-.06-.483zm2.538-6.103c-.12.12-.181.302-.302.423.12-.12.181-.242.302-.423zM78.552 31.18h-.18c.18 0 .362.06.483.12a.462.462 0 00-.303-.12zm-2.961.302c-.241.06-.664.18-.906.302.302-.121.725-.242 1.027-.363-.06 0-.12.06-.12.06zm-2.175.845c.182-.06.424-.18.605-.241-.242.06-.423.181-.605.241zm6.104-.785c.06.06.12.12.18.12-.06 0-.12-.06-.18-.12zm-.242-.121s-.061 0-.061-.06c.12.06.242.12.302.18-.06 0-.12-.06-.242-.12zM60.727 48.824c.06.12.12.241.242.362l.181-.181a2.93 2.93 0 01-.423-.181zM79.58 32.81c-.121-.12-.242-.24-.363-.301.06.12.12.302.181.483 0-.06.06-.12.182-.181z" fill="#243A5E"/><path d="M80.245 32.388s0-.06-.06-.06c-.061-.121-.182-.303-.243-.424l-.18-.18c-.061-.061-.122-.122-.182-.122-.06-.06-.181-.12-.302-.181-.121-.06-.242-.12-.363-.12-.12-.061-.302-.061-.483-.122-.181 0-.363-.06-.544-.06h-.604c-.242 0-.484.06-.665.06-.302.06-.665.121-.967.242-.362.12-.725.242-1.027.363.12-.06.242 0 .302.06 1.994-.665 3.323-.483 3.988.302.06.121.181.242.242.363.12.06.242.181.362.302.786.906.544 2.598-.725 4.894-2.598 4.532-8.52 9.668-13.233 11.481-2.296.906-3.927.786-4.653-.06-.06-.121-.18-.242-.241-.363-.121-.06-.242-.181-.363-.302-.785-.906-.544-2.598.725-4.895.363-.604.725-1.208 1.209-1.873v-.181l-.06.06c-.061.121-.182.242-.242.363-.121.12-.182.302-.302.423-.06.12-.182.242-.242.423-.06.12-.181.242-.242.363l-.181.362c-.06.12-.181.302-.242.423-.06.181-.181.363-.302.544v.12c-.06.182-.181.363-.242.544-.06.182-.18.484-.302.665-.06.181-.181.423-.242.665-.06.181-.12.423-.12.604-.06.181-.06.423-.06.544v.544c0 .181.06.362.06.483.06.121.12.363.181.484.06.12.181.302.302.423l.06.06.121.12c.06.061.121.061.121.122l.06.06c.061.06.182.121.303.181.12.06.241.121.362.121.121.06.242.06.363.06.12 0 .302.061.423.061h.544c.18 0 .423-.06.604-.06.302-.06.725-.121 1.088-.242.362-.12.846-.242 1.208-.423.181-.06.423-.181.665-.242.241-.12.423-.181.604-.241.181-.121.423-.182.604-.302.06 0 .121-.06.181-.06.061 0 .121-.061.182-.061.181-.121.423-.242.604-.363.12-.06.302-.181.423-.242.12-.06.242-.18.363-.241.12-.06.241-.182.362-.242.121-.12.302-.181.423-.302.544-.363 1.088-.725 1.571-1.148.544-.423 1.027-.846 1.571-1.27.484-.422 1.028-.906 1.51-1.329.484-.483.968-.966 1.39-1.45.182-.241.484-.483.665-.725.06-.06.06-.12.121-.181.181-.181.363-.423.484-.604.12-.121.18-.242.302-.423.12-.121.181-.242.241-.363.06-.12.182-.242.242-.362.12-.121.181-.303.302-.423.06-.121.181-.242.242-.423.06-.121.181-.242.242-.363l.18-.363c.061-.12.182-.302.243-.422.06-.182.18-.363.302-.544v-.121c.06-.181.181-.363.241-.544a3.24 3.24 0 01.303-.665c.06-.18.18-.423.241-.664.06-.182.121-.423.121-.605.06-.18.06-.422.06-.543v-.544c0-.181-.06-.363-.06-.484.121-.06.121-.18.06-.362z" fill="#243A5E"/><path d="M72.51 32.932c.604-.303 1.209-.605 1.813-.786.12-.181.181-.242.302-.302-.181.06-.423.181-.665.242-.241.12-.423.181-.604.241-.181.121-.423.182-.604.303-.06 0-.121.06-.181.06s-.121.06-.182.06c0 0-.06 0-.06.06.06.061.12.061.181.122z" fill="#243A5E"/><path d="M74.323 32.086c.242-.06.423-.181.664-.242-.06-.06-.18-.12-.302-.06-.12.06-.241.18-.362.302zm3.867 4.954c0 .061-.06.061-.06.121-.061.121-.182.303-.242.423-.967 1.632-2.357 3.384-3.988 5.016l.18-.121.243-.181.18-.121.182-.121.121-.06.12-.061h.182v.363l-.06.12-.06.121-.122.121-.12.121-.121.181-.121.181-.181.182-.182.181-.18.181-.182.182-.181.18-.182.182-.181.181-.181.182-.182.181-.12.12-.182.122-.181.12-.181.121-.182.121-.18.121-.182.12-.181.122-.182.12-.18.121-.182.121-.181.06-.121.061h-.181l-.061-.06v-.181l.06-.121.06-.121.122-.121.12-.12.121-.122.182-.181c-1.813 1.39-3.747 2.538-5.439 3.203h-.06c-.181.06-.363.18-.544.241-1.692.665-3.021.786-3.927.423l-.182.181c.725.846 2.296.907 4.653.06 4.713-1.812 10.635-6.948 13.233-11.48 1.33-2.296 1.51-4.048.725-4.894-.06.06-.12.12-.181.12.242.846-.121 2.297-1.148 3.989z" fill="#243A5E"/><path d="M65.5 48.34h.06c1.753-.664 3.626-1.813 5.44-3.202l.12-.121.181-.181.182-.182.18-.181.182-.12.121-.122.12-.12.122-.121.181-.121.12-.121.122-.12.12-.061.06-.06.061-.061.06-.06.061-.061.06-.06.061-.06.06-.061.06-.06.061-.061.06-.06.061-.061.06-.06.303-.242.12-.121c1.632-1.632 3.082-3.323 3.989-5.015.06-.121.18-.302.241-.423-2.477 4.471-8.036 9.366-12.629 11.3z" fill="#243A5E"/><path d="M61.15 35.41a.26.26 0 01-.242-.242c0-1.572-1.329-2.84-2.9-2.84a.26.26 0 01-.242-.242.26.26 0 01.242-.242 2.9 2.9 0 002.9-2.9c0-.121.121-.242.242-.242s.242.12.242.242c0 1.57 1.33 2.84 2.9 2.84.121 0 .242.12.242.241a.26.26 0 01-.242.242 2.901 2.901 0 00-2.9 2.9c0 .121-.06.242-.242.242z" fill="#156AB3"/><path d="M80.365 50.153c-.06 0-.18-.06-.18-.181 0-1.028-.847-1.813-1.874-1.813-.06 0-.181-.06-.181-.181 0-.06.06-.182.18-.182a1.818 1.818 0 001.814-1.812c0-.06.06-.182.18-.182.061 0 .182.06.182.182 0 1.027.846 1.812 1.873 1.812.06 0 .182.06.182.182 0 .06-.06.18-.182.18a1.818 1.818 0 00-1.812 1.814c0 .12-.06.18-.182.18z" fill="#1D4A79"/><path d="M121.757 65.622l-.06 17.523-19.759-11.42V54.2l19.819 11.42z" fill="#0078D4"/><path d="M121.757 65.682l2.901-1.631-.061 17.523-2.9 1.571.06-17.463z" fill="#156AB3"/><path d="M101.998 54.202l2.9-1.572 19.759 11.42-2.9 1.572-19.759-11.42z" fill="#0078D4"/><path d="M121.757 63.507l-.06 2.357-19.759-11.42v-2.357l19.819 11.42z" fill="#45CAF2"/><path d="M121.757 63.507l2.84-1.571v2.357l-2.9 1.57.06-2.356z" fill="#32B0E7"/><path d="M101.938 52.087l2.9-1.572 19.759 11.42-2.84 1.572-19.819-11.42z" fill="#50E6FF"/><path d="M107.617 61.573l.665 1.27-3.202 1.812 3.444 5.861-1.027.544-4.109-7.07 4.229-2.417z" fill="#45CAF2"/><path d="M112.754 67.858V71l-2.719-1.571v-3.203l2.719 1.632z" fill="#E6E6E6"/><path d="M115.654 66.105l4.108 7.13-4.169 2.357-.665-1.208 3.203-1.813-3.444-5.922.967-.544z" fill="#45CAF2"/><path d="M103.146 53.416c.302.181.483.544.483.846 0 .302-.241.423-.483.302a1.041 1.041 0 01-.483-.846c-.061-.302.181-.423.483-.302zm1.51.786c.302.18.484.543.484.845 0 .303-.242.423-.484.303a1.041 1.041 0 01-.483-.846c0-.302.242-.484.483-.302zm1.511 1.027c.302.181.484.544.484.846 0 .302-.242.423-.484.302a1.041 1.041 0 01-.483-.846c0-.302.181-.423.483-.302z" fill="#0078D4"/><path opacity=".06" d="M101.696 81.937l1.45-.786c.604-.302 1.329-.302 1.873 0l16.315 9.185c.725.423.725 1.45 0 1.813l-.665.422a1.964 1.964 0 01-1.994 0l-17.04-9.788c-.302-.182-.302-.665.061-.846z"/></svg>