<svg xmlns="http://www.w3.org/2000/svg" viewBox="0 0 75 74"><path d="M16.406 0H.99v54.727h15.416V0zm19.635 7.958H20.477v46.58h15.566V7.957zm19.663 13.625H40.301v33.144h15.416V21.583h-.013zm19.27 17.415H59.46v15.565h15.501V38.998h.013z" fill="#0078D4"/><path d="M74.975 58.367h-61.86v3.882h61.849v-3.882h.01z" fill="#0078D7"/><path d="M18.555 73.984c9.645 0 17.46-7.815 17.46-17.46 0-9.646-7.815-17.461-17.46-17.461-9.646 0-17.461 7.815-17.461 17.46 0 9.646 7.815 17.461 17.46 17.461z" fill="#50E6FF"/><path d="M23.124 56.81c-.727-.767-1.934-1.455-3.635-2.078V50.37c1.35.182 2.558.558 3.635 1.22v-3.115c-.804-.455-2.012-.727-3.635-.805v-2.103h-1.7v2.142c-1.35.104-2.493.584-3.35 1.454-.87.87-1.324 1.895-1.324 3.116 0 1.22.35 2.167 1.078 2.933.688.753 1.895 1.454 3.596 2.065v4.193c-.688-.04-1.493-.247-2.376-.558-.935-.338-1.597-.65-2.012-1v3.18a9.158 9.158 0 004.362 1.078v2.415h1.7v-2.48c1.558-.182 2.727-.662 3.532-1.428.791-.753 1.207-1.804 1.207-3.077 0-1.13-.35-2.064-1.078-2.79zm-5.335-2.766c-1.065-.532-1.597-1.181-1.597-2.012 0-.896.532-1.454 1.597-1.662v3.674zm1.674 7.4v-3.492c1.104.493 1.662 1.064 1.662 1.83 0 .896-.558 1.454-1.662 1.662z" fill="#0078D4"/></svg>