<svg xmlns="http://www.w3.org/2000/svg" viewBox="0 0 60 60"><path d="M12.64 15.767H0v28.347h12.64V15.767zM28.416 6.45H15.797v37.77h12.619V6.45zM44.182 0H31.605v44.242h12.587V0h-.01zm15.797 31.621H47.402v12.621h12.566v-12.62h.011zm0 15.703H9.829v3.148h50.14v-3.148h.01z" fill="#50E6FF"/><path d="M14.24 59.99c7.82 0 14.156-6.336 14.156-14.157S22.06 31.675 14.241 31.675C6.42 31.675.085 38.012.085 45.833c0 7.82 6.336 14.158 14.156 14.158z" fill="#0078D4"/><path d="M17.944 46.064c-.59-.621-1.568-1.179-2.947-1.684v-3.537c1.095.147 2.073.453 2.947.99v-2.527c-.652-.368-1.631-.59-2.947-.652v-1.706h-1.379v1.737c-1.094.084-2.02.474-2.715 1.18-.705.704-1.073 1.536-1.073 2.525 0 .99.284 1.758.873 2.38.558.61 1.537 1.178 2.915 1.673v3.4c-.557-.032-1.21-.2-1.925-.453-.758-.273-1.295-.526-1.632-.81v2.579a7.423 7.423 0 003.537.873v1.958h1.378v-2.01c1.263-.147 2.21-.537 2.863-1.158.642-.61.979-1.463.979-2.495 0-.916-.285-1.673-.874-2.263zm-4.325-2.242c-.864-.432-1.295-.958-1.295-1.632 0-.726.431-1.179 1.294-1.347v2.979zm1.357 6V46.99c.895.4 1.347.864 1.347 1.485 0 .726-.452 1.179-1.347 1.347z" fill="#50E6FF"/></svg>