<svg xmlns="http://www.w3.org/2000/svg" viewBox="0 0 48 48"><path d="M43.647 43.656H4.244V4.254h39.403v39.402zM5.518 42.391H42.39V5.52H5.52v36.87z" fill="#50E6FF"/><path d="M35.47 12.605H12.497v22.798H35.47V12.605z" fill="#50E6FF"/><path d="M18.275 30.401a5.733 5.733 0 015.738-5.737 5.733 5.733 0 015.737 5.737H18.275zM27.286 20.494a3.259 3.259 0 01-3.257 3.257 3.259 3.259 0 01-3.256-3.257 3.259 3.259 0 013.256-3.256 3.259 3.259 0 013.257 3.256zM39.178 8.879h7.594V1.285h-7.594V8.88zM26.532 8.879h7.594V1.285h-7.594V8.88zM13.876 8.879h7.594V1.285h-7.594V8.88zM1.22 8.879h7.593V1.285H1.22V8.88zM39.263 46.933h7.593v-7.594h-7.593v7.594zM26.616 46.933h7.594v-7.594h-7.594v7.594zM13.96 46.933h7.594v-7.594H13.96v7.594zM1.304 46.933h7.593v-7.594H1.304v7.594zM39.263 34.363h7.593V26.77h-7.593v7.593zM1.304 34.363h7.593V26.77H1.304v7.593zM39.263 21.535h7.593v-7.593h-7.593v7.593zM1.304 21.535h7.593v-7.593H1.304v7.593z" fill="#0078D4"/></svg>