<svg xmlns="http://www.w3.org/2000/svg" viewBox="0 0 61 61"><path d="M30.675 42.447c-7.26.802-17.683-6.592-17.683-12.293 0-5.568 9.265-12.56 17.683-12.471 9.13.089 17.638 7.482 17.638 12.47 0 5.257-9.666 12.828-17.638 12.294zm0-22.404c-3.207 0-7.26 1.114-10.423 3.608-2.806 2.182-5.39 5.167-4.944 6.726 1.292 4.72 8.374 9.798 15.322 9.843 7.706.044 15.322-6.681 15.322-10.066 0-3.207-7.616-10.11-15.277-10.11z" fill="#0078D4"/><path d="M36.688 30.91v-1.603l-1.56-.4c-.088-.402-.267-.758-.49-1.114l.847-1.381-1.114-1.114-1.425.847c-.356-.179-.712-.357-1.113-.446l-.401-1.603h-1.604l-.356 1.603c-.4.09-.757.267-1.113.446l-1.426-.847-1.113 1.114.846 1.425c-.178.356-.356.713-.445 1.114l-1.604.4v1.604l1.604.4c.089.402.267.758.445 1.114l-.846 1.426 1.113 1.113 1.381-.846c.356.223.713.356 1.114.445l.4 1.604h1.604l.4-1.56a4.106 4.106 0 001.114-.445l1.381.847 1.114-1.114-.847-1.38c.223-.357.357-.713.49-1.159l1.604-.49zm-6.013 1.648a2.471 2.471 0 01-2.45-2.45 2.471 2.471 0 012.45-2.45 2.471 2.471 0 012.45 2.45 2.471 2.471 0 01-2.45 2.45z" fill="#0078D4"/></svg>