<svg xmlns="http://www.w3.org/2000/svg" viewBox="0 0 49 49"><path d="M26.38 39.125c-.522.017-1.054.026-1.585.026h-.126c-10.39 0-18.856-2.89-18.856-6.606v9.268c0 3.707 8.466 6.606 18.856 6.606h.126c3.02 0 5.853-.245 8.366-.691a11.28 11.28 0 01-6.78-8.603z" fill="#0078D4"/><path d="M24.669 35.779h.126c.523 0 1.046-.008 1.56-.025.768-5.477 5.473-9.698 11.174-9.698 2.26 0 4.36.666 6.13 1.803V7.049l-.168-.178-37.678.05v22.252c0 3.708 8.458 6.606 18.856 6.606z" fill="#0078D4"/><path d="M24.669 39.15h.126c.54 0 1.063-.009 1.586-.026a11.448 11.448 0 01-.144-1.794c0-.531.043-1.062.11-1.576a47.54 47.54 0 01-1.56.026h-.127c-10.389 0-18.856-2.89-18.856-6.606v3.37c.009 3.707 8.467 6.606 18.865 6.606zm.118-16.008h-.127c-10.389 0-18.856-2.89-18.856-6.606v3.37c0 3.707 8.467 6.606 18.856 6.606h.127c10.516 0 18.856-3.008 18.856-6.724v-3.37c0 3.707-8.34 6.724-18.856 6.724zM43.643 7.023c0 3.59-8.458 6.606-18.856 6.606-10.39 0-18.983-3.008-18.983-6.606C5.813 3.433 14.271.426 24.67.426c10.507-.009 18.974 3 18.974 6.597z" fill="#50E6FF"/><path d="M39.898 6.67c0 2.435-6.763 4.398-14.985 4.398S9.802 9.105 9.802 6.67c0-2.435 6.771-4.398 14.985-4.398 8.222 0 15.111 1.971 15.111 4.398z" fill="#0078D4"/><path d="M31.314 39.563a6.517 6.517 0 01.168-5.064 6.624 6.624 0 013.702-3.47 6.382 6.382 0 012.994-.388l-.287 1.617 3.61-1.955-2.699-3.15-.312 1.769a8.259 8.259 0 00-3.913.48 8.38 8.38 0 00-4.68 4.381 8.272 8.272 0 00-.202 6.404 8.227 8.227 0 002.833 3.749l.312.236 1.037-1.407-.312-.236a6.526 6.526 0 01-2.251-2.966zm14.049-5.3a8.319 8.319 0 00-2.412-3.421l-1.138 1.314a6.644 6.644 0 011.914 2.722c1.29 3.42-.438 7.254-3.862 8.543a6.338 6.338 0 01-1.822.396l.093-1.778-3.373 2.334 3.044 3.143.118-1.938a8.731 8.731 0 002.539-.522c4.334-1.635 6.527-6.471 4.9-10.793z" fill="#0078D7"/></svg>