<svg xmlns="http://www.w3.org/2000/svg" viewBox="0 0 49 49"><path d="M43.967 15.195H20.316V38.82h23.65V15.195z" fill="#50E6FF"/><path d="M20.29 31.03v8.135h23.668v-4.977.054l-3.753-3.77-3.743 3.77-9.892-9.652-6.299 6.307.018.133zM40.826 21.093a3.074 3.074 0 01-3.078 3.079 3.08 3.08 0 01-3.079-3.079c0-1.703 1.358-3.105 3.052-3.105a3.108 3.108 0 013.105 3.105zM17.38 1.879H4.071v9.235h2.05v2.031l2.049-2.031h9.208V1.879z" fill="#0078D4"/><path d="M17.353 31.223H4.055v15.906h13.298V31.223z" fill="#50E6FF"/><path d="M43.984 41.824H20.28v5.323h23.704v-5.323zM43.976 1.922h-23.66v3.903h23.66V1.922zM17.37 15.21H4.117v3.257H17.37V15.21zM17.37 19.566H4.117v3.256H17.37v-3.256z" fill="#0078D4"/><path d="M17.37 23.922H4.117v3.256H17.37v-3.256z" fill="#50E6FF"/><path d="M43.976 7.2h-23.66v3.903h23.66V7.199z" fill="#0078D4"/></svg>