<svg xmlns="http://www.w3.org/2000/svg" viewBox="0 0 48 49"><path d="M2.56 5.968A2.514 2.514 0 01.042 3.45 2.514 2.514 0 012.56.932 2.509 2.509 0 015.078 3.45 2.52 2.52 0 012.56 5.968zM10.114 5.968a2.52 2.52 0 010-5.037 2.52 2.52 0 012.518 2.519 2.514 2.514 0 01-2.518 2.518zM17.684 5.968a2.52 2.52 0 010-5.037 2.52 2.52 0 010 5.037zM25.314 5.968a2.514 2.514 0 01-2.518-2.518c0-1.39 1.12-2.518 2.518-2.518a2.52 2.52 0 010 5.037zM32.842 5.968a2.52 2.52 0 010-5.037 2.52 2.52 0 010 5.037zM40.43 5.968a2.52 2.52 0 010-5.037 2.52 2.52 0 010 5.037zM2.56 13.523a2.52 2.52 0 010-5.037 2.52 2.52 0 010 5.037zM40.43 13.523a2.52 2.52 0 010-5.037 2.52 2.52 0 010 5.037zM2.534 21.195a2.52 2.52 0 010-5.037 2.514 2.514 0 012.518 2.518 2.525 2.525 0 01-2.517 2.519zM17.676 21.195a2.52 2.52 0 010-5.037 2.52 2.52 0 010 5.037zM25.314 21.195a2.52 2.52 0 010-5.037 2.52 2.52 0 010 5.037zM40.43 21.113a2.52 2.52 0 010-5.037 2.52 2.52 0 010 5.037zM2.62 28.753a2.52 2.52 0 010-5.037 2.514 2.514 0 012.517 2.52 2.525 2.525 0 01-2.518 2.517zM17.76 28.753a2.52 2.52 0 010-5.037 2.52 2.52 0 010 5.037zM2.619 36.316a2.514 2.514 0 01-2.518-2.518 2.514 2.514 0 012.518-2.519 2.514 2.514 0 012.518 2.519 2.525 2.525 0 01-2.518 2.518zM2.619 43.87a2.514 2.514 0 01-2.518-2.518 2.514 2.514 0 012.518-2.518 2.514 2.514 0 012.518 2.518 2.525 2.525 0 01-2.518 2.519zM10.173 43.87a2.514 2.514 0 01-2.518-2.518 2.514 2.514 0 012.518-2.518 2.52 2.52 0 010 5.037zM17.76 43.87a2.514 2.514 0 01-2.518-2.518 2.514 2.514 0 012.518-2.518 2.52 2.52 0 010 5.037z" fill="#50E6FF"/><path d="M45.524 44.529l-7.293-7.218a8.506 8.506 0 001.752-5.189c0-4.725-3.84-8.565-8.564-8.565s-8.564 3.84-8.564 8.565 3.84 8.566 8.564 8.566c1.87 0 3.604-.598 5.002-1.609l7.326 7.252 1.777-1.802zM31.419 38.16a6.053 6.053 0 01-6.047-6.047 6.053 6.053 0 016.047-6.047 6.053 6.053 0 016.046 6.047 6.053 6.053 0 01-6.046 6.047zM10.13 18.611H7.639V8.471h10.046v2.56h-7.553v7.58zM17.735 33.815v2.493H7.587V26.26h2.56v7.555h7.588zM25.271 11.032V8.514H35.36v10.098H32.8v-7.58h-7.528z" fill="#0078D4"/></svg>