<svg xmlns="http://www.w3.org/2000/svg" viewBox="0 0 49 49"><path d="M6.003 6.859v34.666c0 3.688 8.062 6.562 17.958 6.562h.117c10.014 0 17.958-2.992 17.958-6.679V6.985l-.16-.176-35.873.05z" fill="#0078D4"/><path d="M42.036 6.96c0 3.57-8.053 6.561-17.958 6.561-9.896 0-18.075-2.992-18.075-6.561 0-3.57 8.062-6.562 17.958-6.562C33.975.39 42.036 3.382 42.036 6.96zM37.804 30.131v-6.21h-3.687v3.872c0 .252.05.453-.176.453h-2.992c-.477 0-.419-.57-.419-.57v-3.754h-4.483l.796.528v3.989s-.192 2.69 2.204 2.69h4.693c.36 0 .838-.269.863-.411.025-.134.042 1.09-1.181 1.173h-6.1v2.874h7.206c.729 0 1.734-.117 2.446-1.131.629-.897.822-1.617.822-2.162.008-.394.008-1.34.008-1.34zM12.917 25.783v5.756H9.724v-9.217s.277-2.003 2.12-2.003c1.844 0 2.238.36 3.1 2.011.864 1.651 2.54 4.718 2.54 4.718s2.262-5.112 2.58-5.882c.32-.771 1.291-.98 2.347-.905 1.039.075 2.112.636 2.162 2.103v9.175H21.38v-5.756s-1.952 4.474-2.32 5.002c-.361.528-.965.771-1.652.771-.687 0-1.6-.075-2.036-.88-.444-.804-2.455-4.893-2.455-4.893z" fill="#50E6FF"/><path d="M38.466 6.609c0 2.421-6.444 4.374-14.27 4.374-7.827 0-14.388-1.961-14.388-4.374 0-2.422 6.444-4.375 14.27-4.375 7.827 0 14.388 1.961 14.388 4.375z" fill="#0078D4"/></svg>