<svg xmlns="http://www.w3.org/2000/svg" viewBox="0 0 48 49"><path d="M30.754 10.733c-.16-1.945-1.777-3.478-3.672-3.478-1.97 0-3.57 1.6-3.57 3.57v2.898c0 1.894 1.524 3.511 3.57 3.68 1.996 0 3.68-1.684 3.68-3.68l-.008-2.99zm-2.232 2.99c0 .85-.766 1.448-1.355 1.448-.792-.067-1.432-.716-1.432-1.448v-2.897c0-.724.615-1.34 1.339-1.34.732 0 1.39.641 1.448 1.34v2.897z" fill="#0078D4"/><path d="M18.543 17.444c-.69 0-1.255-.564-1.255-1.254V8.577c0-.69.564-1.255 1.255-1.255.69 0 1.255.564 1.255 1.255v7.604a1.26 1.26 0 01-1.255 1.263z" fill="#50E6FF"/><path d="M13.566 10.733c-.16-1.945-1.777-3.478-3.671-3.478-1.97 0-3.57 1.6-3.57 3.57v2.898c0 1.894 1.523 3.511 3.57 3.68 1.995 0 3.68-1.684 3.68-3.68l-.009-2.99zm-2.223 2.99c0 .85-.766 1.448-1.356 1.448-.791-.067-1.431-.716-1.431-1.448v-2.897c0-.724.615-1.34 1.339-1.34.732 0 1.39.641 1.448 1.34v2.897z" fill="#0078D4"/><path d="M1.355 17.444c-.69 0-1.254-.564-1.254-1.254V8.577a1.247 1.247 0 011.254-1.255c.69 0 1.255.564 1.255 1.255v7.604a1.26 1.26 0 01-1.255 1.263z" fill="#50E6FF"/><path d="M47.941 10.733c-.16-1.945-1.777-3.478-3.671-3.478-1.97 0-3.57 1.6-3.57 3.57v2.898c0 1.894 1.523 3.511 3.57 3.68 1.995 0 3.68-1.684 3.68-3.68l-.009-2.99zm-2.231 2.99c0 .85-.767 1.448-1.356 1.448-.792-.067-1.432-.716-1.432-1.448v-2.897c0-.724.615-1.34 1.34-1.34.732 0 1.389.641 1.448 1.34v2.897z" fill="#0078D4"/><path d="M35.722 17.444c-.69 0-1.255-.564-1.255-1.254V8.577c0-.69.565-1.255 1.255-1.255s1.255.564 1.255 1.255v7.604a1.25 1.25 0 01-1.255 1.263z" fill="#50E6FF"/><path d="M30.754 36c-.16-1.946-1.777-3.478-3.672-3.478-1.97 0-3.57 1.6-3.57 3.57v2.897c0 1.895 1.524 3.511 3.57 3.68 1.996 0 3.68-1.684 3.68-3.68l-.008-2.99zm-2.232 2.989c0 .85-.766 1.448-1.355 1.448-.792-.067-1.432-.715-1.432-1.448v-2.897a1.36 1.36 0 011.339-1.339c.732 0 1.39.64 1.448 1.339v2.897z" fill="#0078D4"/><path d="M18.543 42.71c-.69 0-1.255-.565-1.255-1.255V33.85c0-.69.564-1.254 1.255-1.254.69 0 1.255.564 1.255 1.254v7.605c0 .69-.565 1.254-1.255 1.254z" fill="#50E6FF"/><path d="M13.566 36c-.16-1.946-1.777-3.478-3.671-3.478-1.97 0-3.57 1.6-3.57 3.57v2.897c0 1.895 1.523 3.511 3.57 3.68 1.995 0 3.68-1.684 3.68-3.68l-.009-2.99zm-2.223 2.989c0 .85-.766 1.448-1.356 1.448-.791-.067-1.431-.715-1.431-1.448v-2.897a1.36 1.36 0 011.339-1.339c.732 0 1.39.64 1.448 1.339v2.897z" fill="#0078D4"/><path d="M1.356 42.71A1.26 1.26 0 01.1 41.454V33.85c0-.69.564-1.254 1.255-1.254.69 0 1.255.564 1.255 1.254v7.605c0 .69-.565 1.254-1.255 1.254z" fill="#50E6FF"/><path d="M47.941 36c-.16-1.946-1.777-3.478-3.671-3.478-1.97 0-3.57 1.6-3.57 3.57v2.897c0 1.895 1.523 3.511 3.57 3.68 1.995 0 3.68-1.684 3.68-3.68l-.009-2.99zm-2.231 2.989c0 .85-.767 1.448-1.356 1.448-.792-.067-1.432-.715-1.432-1.448v-2.897a1.36 1.36 0 011.34-1.339c.732 0 1.389.64 1.448 1.339v2.897z" fill="#0078D4"/><path d="M35.722 42.71c-.69 0-1.255-.565-1.255-1.255V33.85c0-.69.565-1.254 1.255-1.254s1.255.564 1.255 1.254v7.605a1.247 1.247 0 01-1.255 1.254zM17.289 26.683c.16 1.945 1.776 3.478 3.671 3.478 1.97 0 3.57-1.6 3.57-3.57v-2.897c0-1.895-1.523-3.512-3.57-3.68-1.995 0-3.68 1.684-3.68 3.68l.009 2.99zm2.223-2.99c0-.85.766-1.448 1.356-1.448.791.068 1.431.716 1.431 1.449v2.896c0 .725-.614 1.34-1.339 1.34-.732 0-1.39-.64-1.448-1.34v-2.896z" fill="#50E6FF"/><path d="M29.499 19.97c.69 0 1.255.565 1.255 1.255v7.605c0 .69-.565 1.254-1.255 1.254s-1.255-.564-1.255-1.254v-7.605c0-.69.564-1.254 1.255-1.254z" fill="#0078D4"/><path d="M34.476 26.683c.16 1.945 1.776 3.478 3.671 3.478 1.97 0 3.57-1.6 3.57-3.57v-2.897c0-1.895-1.523-3.512-3.57-3.68-1.995 0-3.68 1.684-3.68 3.68l.009 2.99zm2.223-2.99c0-.85.766-1.448 1.356-1.448.791.068 1.431.716 1.431 1.449v2.896c0 .725-.614 1.34-1.339 1.34-.732 0-1.39-.64-1.448-1.34v-2.896z" fill="#50E6FF"/><path d="M46.686 19.97c.69 0 1.255.565 1.255 1.255v7.605c0 .69-.564 1.254-1.255 1.254-.69 0-1.254-.564-1.254-1.254v-7.605c0-.69.564-1.254 1.254-1.254z" fill="#0078D4"/><path d="M.101 26.683c.16 1.945 1.777 3.478 3.672 3.478 1.97 0 3.57-1.6 3.57-3.57v-2.897c0-1.895-1.524-3.512-3.57-3.68-1.996 0-3.68 1.684-3.68 3.68l.008 2.99zm2.223-2.99c0-.85.767-1.448 1.356-1.448.792.068 1.432.716 1.432 1.449v2.896a1.36 1.36 0 01-1.34 1.34c-.732 0-1.389-.64-1.448-1.34v-2.896z" fill="#50E6FF"/><path d="M12.311 19.97c.69 0 1.255.565 1.255 1.255v7.605c0 .69-.564 1.254-1.255 1.254-.69 0-1.254-.564-1.254-1.254v-7.605c0-.69.564-1.254 1.254-1.254z" fill="#0078D4"/></svg>