<svg xmlns="http://www.w3.org/2000/svg" viewBox="0 0 48 49"><path d="M6.188 7.393v34.195c0 3.525 7.906 6.477 17.717 6.477V7.394H6.188z" fill="#50E6FF"/><path d="M23.714 48.066H24c9.811 0 17.717-2.858 17.717-6.478V7.393H23.714v40.672z" fill="#0072C5"/><path d="M23.523 48.067h.286c9.906 0 18.003-2.858 18.003-6.477V7.299H23.619l-.096 40.768z" fill="#3BCAF4"/><path d="M41.715 7.394c0 3.524-7.906 6.477-17.717 6.477-9.81 0-17.717-2.858-17.717-6.477 0-3.62 7.906-6.477 17.717-6.477s17.717 2.952 17.717 6.477z" fill="#fff"/><path d="M38.098 7.011c0 2.381-6.287 4.286-14.098 4.286-7.81 0-14.097-1.905-14.097-4.286 0-2.381 6.286-4.286 14.097-4.286S38.098 4.63 38.098 7.01z" fill="#0078D4"/><path d="M35.145 9.583c1.81-.762 2.953-1.62 2.953-2.572 0-2.381-6.287-4.286-14.098-4.286-7.81 0-14.097 1.905-14.097 4.286 0 .953 1.143 1.905 2.953 2.572 2.572-1.048 6.667-1.62 11.144-1.62s8.573.667 11.145 1.62z" fill="#3BCAF4"/></svg>