<svg xmlns="http://www.w3.org/2000/svg" viewBox="0 0 49 49"><path d="M4.604 5.555h-2v10h2v-10zM11.604 15.555c-1.9 0-4-1.9-4-5s2.1-5 4-5 4 1.9 4 5-2.1 5-4 5zm0-8c-.8 0-2 1-2 3s1.2 3 2 3 2-1 2-3-1.2-3-2-3zM20.605 5.555h-2v10h2v-10zM27.605 15.555c-1.9 0-4-1.9-4-5s2.1-5 4-5 4 1.9 4 5-2.1 5-4 5zm0-8c-.8 0-2 1-2 3s1.2 3 2 3 2-1 2-3-1.2-3-2-3zM36.605 5.555h-2v10h2v-10zM43.605 15.555c-1.9 0-4-1.9-4-5s2.1-5 4-5 4 1.9 4 5-2.1 5-4 5zm0-8c-.8 0-2 1-2 3s1.2 3 2 3 2-1 2-3-1.2-3-2-3zM5.604 29.555c-1.9 0-4-1.9-4-5s2.1-5 4-5 4 1.9 4 5-2.1 5-4 5zm0-8c-.8 0-2 1-2 3s1.2 3 2 3 2-1 2-3-1.2-3-2-3zM14.604 19.555h-2v10h2v-10zM21.605 29.555c-1.9 0-4-1.9-4-5s2.1-5 4-5 4 1.9 4 5-2.1 5-4 5zm0-8c-.8 0-2 1-2 3s1.2 3 2 3 2-1 2-3-1.2-3-2-3zM30.605 19.555h-2v10h2v-10zM46.605 19.555h-2v10h2v-10zM37.605 29.555c-1.9 0-4-1.9-4-5s2.1-5 4-5 4 1.9 4 5-2.1 5-4 5zm0-8c-.8 0-2 1-2 3s1.2 3 2 3 2-1 2-3-1.2-3-2-3zM4.604 33.555h-2v10h2v-10zM11.604 43.555c-1.9 0-4-1.9-4-5s2.1-5 4-5 4 1.9 4 5-2.1 5-4 5zm0-8c-.8 0-2 1-2 3s1.2 3 2 3 2-1 2-3-1.2-3-2-3zM20.605 33.555h-2v10h2v-10zM27.605 43.555c-1.9 0-4-1.9-4-5s2.1-5 4-5 4 1.9 4 5-2.1 5-4 5zm0-8c-.8 0-2 1-2 3s1.2 3 2 3 2-1 2-3-1.2-3-2-3zM36.605 33.555h-2v10h2v-10zM43.605 43.555c-1.9 0-4-1.9-4-5s2.1-5 4-5 4 1.9 4 5-2.1 5-4 5zm0-8c-.8 0-2 1-2 3s1.2 3 2 3 2-1 2-3-1.2-3-2-3z" fill="#0078D4"/></svg>