<svg xmlns="http://www.w3.org/2000/svg" viewBox="0 0 49 49"><path d="M6.208 7.117v34.196c0 3.524 7.905 6.477 17.716 6.477V7.117H6.208z" fill="#50E6FF"/><path d="M23.734 47.79h.286c9.81 0 17.717-2.858 17.717-6.477V7.117H23.734V47.79z" fill="#0072C5"/><path d="M23.543 47.792h.286c9.906 0 18.002-2.858 18.002-6.478V7.024H23.638l-.095 40.768z" fill="#3BCAF4"/><path d="M41.735 7.118c0 3.524-7.906 6.477-17.717 6.477S6.3 10.737 6.3 7.118C6.3 3.498 14.207.64 24.018.64c9.81 0 17.717 2.952 17.717 6.477z" fill="#fff"/><path d="M38.117 6.736c0 2.38-6.286 4.286-14.097 4.286S9.922 9.117 9.922 6.736c0-2.382 6.287-4.287 14.098-4.287 7.81 0 14.097 1.905 14.097 4.287z" fill="#0078D4"/><path d="M35.164 9.307c1.81-.762 2.953-1.619 2.953-2.571 0-2.382-6.286-4.287-14.097-4.287S9.922 4.354 9.922 6.736c0 .952 1.143 1.905 2.953 2.571 2.572-1.047 6.668-1.619 11.145-1.619 4.477 0 8.573.667 11.144 1.62z" fill="#3BCAF4"/></svg>