<svg xmlns="http://www.w3.org/2000/svg" viewBox="0 0 49 49"><path d="M42.867 27.867H5.055v11.345c0 4.944 8.487 8.953 18.96 8.953 10.474 0 18.953-4.009 18.953-8.953 0 0-.017-11.269-.101-11.345z" fill="#0078D7"/><path d="M42.951 25.852l.026 9.921c0 4.944-8.487 8.953-18.961 8.953-10.474 0-18.961-4.017-18.961-8.953v-9.921H42.95z" fill="#50E6FF"/><path d="M42.867 15.61H5.055v11.345c0 4.944 8.487 8.953 18.96 8.953 10.474 0 18.962-4.01 18.962-8.954-.009 0-.026-11.269-.11-11.345z" fill="#0078D7"/><path d="M42.968 8.586H5.053v9.4c0 4.944 8.487 8.953 18.961 8.953 10.474 0 18.953-4.01 18.953-8.954v-9.4z" fill="#50E6FF"/><path d="M24.015 17.91c10.472 0 18.961-3.96 18.961-8.844 0-4.884-8.49-8.843-18.96-8.843-10.473 0-18.962 3.96-18.962 8.843 0 4.884 8.49 8.844 18.961 8.844z" fill="#0078D7"/></svg>