<svg xmlns="http://www.w3.org/2000/svg" viewBox="0 0 48 49"><path d="M43.947 15.606h-23.65V39.23h23.65V15.606z" fill="#50E6FF"/><path d="M20.27 31.441v8.135h23.668v-4.977.053l-3.752-3.77-3.744 3.77L26.55 25l-6.298 6.308.018.133zm20.537-9.936a3.074 3.074 0 01-3.079 3.079 3.08 3.08 0 01-3.078-3.079c0-1.703 1.357-3.105 3.052-3.105a3.108 3.108 0 013.105 3.105zM17.36 2.29H4.053v9.235h2.05v2.031l2.049-2.031h9.208V2.29z" fill="#0078D4"/><path d="M17.333 31.636H4.035v15.906h13.298V31.636z" fill="#50E6FF"/><path d="M43.965 42.237H20.261v5.323h23.704v-5.323zm-.009-39.903h-23.66v3.904h23.66V2.334zM17.351 15.623H4.098v3.256H17.35v-3.256zm0 4.357H4.098v3.255H17.35V19.98z" fill="#0078D4"/><path d="M17.351 24.335H4.098v3.256H17.35v-3.256z" fill="#50E6FF"/><path d="M43.956 7.613h-23.66v3.903h23.66V7.613z" fill="#0078D4"/></svg>