<svg xmlns="http://www.w3.org/2000/svg" viewBox="0 0 49 49"><path d="M48.174 2.703H.246v42.98h47.928V2.703z" fill="#0078D4"/><path d="M9.03 7.759a1.265 1.265 0 10.002-2.53 1.265 1.265 0 00-.001 2.53zM4.007 12.817a1.265 1.265 0 10.001-2.529 1.265 1.265 0 000 2.53zM4.007 38.134a1.265 1.265 0 10.001-2.53 1.265 1.265 0 000 2.53zM9.066 43.192a1.265 1.265 0 100-2.529 1.265 1.265 0 000 2.53zM29.273 43.192a1.265 1.265 0 100-2.529 1.265 1.265 0 000 2.53zM34.367 38.099a1.265 1.265 0 100-2.53 1.265 1.265 0 000 2.53zM34.328 12.817a1.265 1.265 0 100-2.529 1.265 1.265 0 000 2.53zM29.304 7.759a1.265 1.265 0 10.001-2.53 1.265 1.265 0 000 2.53zM48.245 7.758h-10.12v32.867h10.12V7.758z" fill="#50E6FF"/><path d="M48.247 10.25h-7.59v2.528h7.59V10.25zM48.247 15.309h-7.59v2.528h7.59v-2.528zM48.247 20.367h-7.59v2.528h7.59v-2.528zM48.247 25.422h-7.59v2.528h7.59v-2.528zM48.247 30.441h-7.59v2.529h7.59V30.44zM48.247 35.46h-7.59v2.53h7.59v-2.53z" fill="#0078D4"/></svg>