<svg xmlns="http://www.w3.org/2000/svg" viewBox="0 0 48 49"><path d="M5.984 7.134v34.667c0 3.687 8.061 6.561 17.958 6.561h.117c10.013 0 17.957-2.991 17.957-6.678V7.26l-.159-.176-35.873.05z" fill="#0078D4"/><path d="M42.016 7.235c0 3.57-8.052 6.561-17.957 6.561-9.897 0-18.075-2.991-18.075-6.56 0-3.57 8.061-6.562 17.958-6.562C33.955.665 42.016 3.657 42.016 7.235zm-4.231 23.172v-6.21h-3.688v3.872c0 .251.05.452-.175.452H30.93c-.478 0-.419-.57-.419-.57v-3.754h-4.483l.796.528v3.989s-.193 2.69 2.204 2.69h4.692c.36 0 .838-.268.864-.41.025-.135.041 1.089-1.182 1.172h-6.1v2.875h7.206c.73 0 1.735-.118 2.447-1.132.628-.896.821-1.617.821-2.162.008-.393.008-1.34.008-1.34zm-24.888-4.348v5.756H9.705v-9.217s.276-2.003 2.12-2.003c1.843 0 2.237.36 3.1 2.011.863 1.65 2.54 4.718 2.54 4.718s2.262-5.112 2.58-5.883c.318-.77 1.29-.98 2.346-.905 1.04.076 2.112.637 2.162 2.104v9.175h-3.192V26.06s-1.953 4.474-2.322 5.002c-.36.528-.963.771-1.65.771-.687 0-1.6-.075-2.037-.88-.444-.804-2.455-4.893-2.455-4.893z" fill="#50E6FF"/><path d="M38.447 6.884c0 2.422-6.444 4.375-14.271 4.375-7.827 0-14.388-1.961-14.388-4.375 0-2.421 6.444-4.374 14.27-4.374 7.827 0 14.389 1.961 14.389 4.374z" fill="#0078D4"/></svg>