<svg xmlns="http://www.w3.org/2000/svg" viewBox="0 0 49 49"><path d="M19.42 39.03c10.638 0 19.262-8.624 19.262-19.261C38.682 9.13 30.058.508 19.42.508 8.783.508.16 9.13.16 19.768c0 10.638 8.623 19.262 19.26 19.262z" fill="#50E6FF"/><path d="M10.643 17.464c.917 0 1.522.168 1.825.505.303.336.378.916.219 1.74-.169.857-.488 1.463-.959 1.833-.47.361-1.194.546-2.169.546H8.096l.9-4.624h1.647zm-5.86 9.299h2.405l.572-2.935h2.06c.908 0 1.656-.092 2.244-.285a4.393 4.393 0 001.606-.959 4.788 4.788 0 001.505-2.707c.252-1.312.059-2.329-.572-3.06-.639-.732-1.656-1.093-3.043-1.093H6.936L4.784 26.762zM16.94 12.78h2.388l-.572 2.934h2.128c1.336 0 2.261.236 2.765.698.505.471.665 1.22.454 2.27l-1 5.137h-2.421l.95-4.885c.11-.554.067-.933-.118-1.135-.185-.201-.588-.302-1.194-.302h-1.908l-1.228 6.33h-2.387l2.143-11.047zm12.485 4.683c.917 0 1.522.168 1.825.505.302.336.378.916.218 1.74-.168.857-.487 1.463-.958 1.833-.471.361-1.194.546-2.17.546h-1.462l.9-4.624h1.647zm-5.86 9.299h2.405l.572-2.935h2.06c.907 0 1.656-.092 2.244-.285a4.395 4.395 0 001.606-.959 4.79 4.79 0 001.505-2.707c.252-1.312.059-2.329-.572-3.06-.639-.732-1.656-1.093-3.043-1.093h-4.624l-2.153 11.038zM29.93 27.52v17.37c0 1.849 4.035 3.286 8.995 3.286h.06c5.018 0 8.995-1.496 8.995-3.346V27.46l-18.05.06z" fill="#0078D4"/><path d="M47.989 27.518c0 1.79-4.036 3.287-9.005 3.287-4.96 0-9.063-1.497-9.063-3.287 0-1.791 4.036-3.288 9.005-3.288 5.027 0 9.063 1.497 9.063 3.288z" fill="#50E6FF"/><path d="M46.206 27.343c0 1.21-3.228 2.194-7.154 2.194-3.918 0-7.205-.984-7.205-2.194s3.228-2.195 7.154-2.195c3.926 0 7.205.984 7.205 2.195z" fill="#0078D4"/><path d="M45.803 39.13v-3.11h-1.85v1.942c0 .126.025.227-.084.227h-1.497c-.235 0-.21-.286-.21-.286V36.02h-2.245l.396.26v2.001s-.101 1.345 1.11 1.345h2.353c.185 0 .42-.134.43-.201.008-.068.024.546-.59.588h-3.06v1.438h3.607c.362 0 .875-.06 1.228-.572.32-.454.412-.807.412-1.085v-.664zM33.335 36.942v2.883h-1.598V35.21s.143-1 1.068-1 1.118.184 1.555 1.008c.42.824 1.261 2.363 1.261 2.363s1.135-2.565 1.295-2.943c.16-.386.648-.496 1.177-.454.521.034 1.06.32 1.085 1.051v4.599H37.58V36.95s-.983 2.245-1.16 2.506c-.185.269-.488.386-.824.386-.344 0-.798-.042-1.025-.437-.227-.403-1.236-2.463-1.236-2.463z" fill="#50E6FF"/></svg>