<svg xmlns="http://www.w3.org/2000/svg" viewBox="0 0 48 49"><path d="M45.12 13.435v23.3L24.81 48.462v-23.3l20.31-11.726zM23.93.488L3.75 12.138l.024.014 20.285 11.712 3.544-2.047 16.608-9.586.003-.004.024-.013L23.929.488zm-.621 24.672v23.301L3 36.736V13.439L23.309 25.16z" fill="#0078D4"/><path d="M45.118 13.435v.003L24.81 25.16l20.308-11.725zm-.908-1.208l-16.607 9.59 16.608-9.59zM23.94.468L23.926.46l-20.2 11.66.024.014.024.014L23.926.516l20.285 11.711.024-.013.024-.014L23.939.468z" fill="#0078D4"/><path d="M39.002 23.939v16.28l-14.192 8.19V32.133l14.192-8.195zm-.847-1.245l-14.096 8.14L9.87 22.638l14.097-8.137 14.188 8.191zm-14.846 9.439V48.41L9.12 40.219V23.942l14.189 8.191z" fill="#50E6FF"/><path d="M39.002 23.939v.003L24.81 32.133l14.192-8.194zm-.847-1.246l-14.096 8.14 14.096-8.14z" fill="#6B6B6B"/><path d="M24.217 5.213l-6.14 3.545.006.003 4.125.01v2.576H26.3V8.778l4.087.007h.004l.007-.003-6.182-3.569z" fill="#50E6FF"/></svg>