<svg xmlns="http://www.w3.org/2000/svg" viewBox="0 0 49 49"><path d="M25.704 38.924c-.523.017-1.054.025-1.585.025h-.127c-10.389 0-18.855-2.89-18.855-6.605v9.267c0 3.707 8.466 6.606 18.855 6.606h.127c3.018 0 5.852-.245 8.364-.691a11.279 11.279 0 01-6.78-8.602z" fill="#0078D4"/><path d="M23.993 35.574h.126c.523 0 1.046-.008 1.56-.025.767-5.476 5.473-9.697 11.173-9.697 2.26 0 4.36.665 6.13 1.803V6.845l-.168-.177-37.676.05V28.97c0 3.707 8.457 6.605 18.855 6.605z" fill="#0078D4"/><path d="M23.993 38.944h.126a49.1 49.1 0 001.585-.025 11.446 11.446 0 01-.143-1.795c0-.53.042-1.061.11-1.575-.515.017-1.029.025-1.56.025h-.127c-10.389 0-18.855-2.89-18.855-6.605v3.37c.009 3.707 8.466 6.605 18.864 6.605zM24.11 22.938h-.126c-10.389 0-18.855-2.89-18.855-6.605v3.37c0 3.707 8.466 6.605 18.855 6.605h.127c10.515 0 18.855-3.008 18.855-6.723v-3.37c0 3.707-8.34 6.723-18.855 6.723zM42.966 6.82c0 3.588-8.458 6.605-18.855 6.605-10.389 0-18.982-3.008-18.982-6.606C5.138 3.23 13.595.223 23.993.223 34.499.214 42.966 3.222 42.966 6.819z" fill="#50E6FF"/><path d="M39.222 6.468c0 2.435-6.763 4.398-14.985 4.398-8.221 0-15.11-1.963-15.11-4.398 0-2.435 6.77-4.398 14.984-4.398 8.221 0 15.11 1.972 15.11 4.398z" fill="#0078D4"/><path d="M30.638 39.36a6.517 6.517 0 01.168-5.064 6.624 6.624 0 013.702-3.471 6.38 6.38 0 012.994-.388l-.287 1.618 3.609-1.955-2.698-3.15-.312 1.768a8.258 8.258 0 00-3.913.48 8.38 8.38 0 00-4.68 4.382 8.272 8.272 0 00-.202 6.403 8.226 8.226 0 002.833 3.749l.312.236L33.2 42.56l-.312-.236a6.526 6.526 0 01-2.251-2.966zM44.687 34.061a8.32 8.32 0 00-2.412-3.42l-1.139 1.314a6.645 6.645 0 011.915 2.721c1.29 3.42-.439 7.254-3.863 8.543a6.34 6.34 0 01-1.82.396l.092-1.778-3.373 2.334 3.044 3.143.118-1.938c.869-.05 1.72-.22 2.538-.522 4.334-1.635 6.527-6.47 4.9-10.793z" fill="#0078D7"/></svg>