<svg xmlns="http://www.w3.org/2000/svg" viewBox="0 0 49 49"><path d="M48.174 2.703H.246v42.98h47.928V2.703z" fill="#0078D4"/><path d="M9.03 7.759a1.265 1.265 0 10.002-2.53 1.265 1.265 0 00-.001 2.53zm-5.023 5.058a1.265 1.265 0 10.001-2.529 1.265 1.265 0 000 2.53zm0 25.317a1.265 1.265 0 10.001-2.53 1.265 1.265 0 000 2.53zm5.059 5.058a1.265 1.265 0 100-2.529 1.265 1.265 0 000 2.53zm20.207 0a1.265 1.265 0 100-2.529 1.265 1.265 0 000 2.53zm5.094-5.093a1.265 1.265 0 100-2.53 1.265 1.265 0 000 2.53zm-.039-25.282a1.265 1.265 0 100-2.529 1.265 1.265 0 000 2.53zm-5.024-5.058a1.265 1.265 0 10.001-2.53 1.265 1.265 0 000 2.53zm18.941-.001h-10.12v32.867h10.12V7.758z" fill="#50E6FF"/><path d="M48.247 10.25h-7.59v2.528h7.59V10.25zm0 5.059h-7.59v2.528h7.59v-2.528zm0 5.058h-7.59v2.528h7.59v-2.528zm0 5.055h-7.59v2.528h7.59v-2.528zm0 5.019h-7.59v2.529h7.59v-2.53zm0 5.019h-7.59v2.53h7.59v-2.53z" fill="#0078D4"/></svg>