<svg xmlns="http://www.w3.org/2000/svg" viewBox="0 0 48 49"><path d="M19.401 39.305c10.638 0 19.261-8.623 19.261-19.26C38.662 9.406 30.04.782 19.402.782 8.763.783.14 9.407.14 20.044c0 10.638 8.624 19.261 19.261 19.261z" fill="#50E6FF"/><path d="M10.624 17.74c.917 0 1.522.168 1.825.504.302.336.378.916.218 1.74-.168.858-.487 1.463-.958 1.833-.471.361-1.194.546-2.17.546H8.078l.9-4.623h1.647zm-5.86 9.298H7.17l.572-2.934H9.8c.907 0 1.656-.093 2.244-.286a4.395 4.395 0 001.606-.959 4.79 4.79 0 001.505-2.707c.252-1.311.059-2.329-.572-3.06-.639-.731-1.656-1.093-3.043-1.093H6.917L4.764 27.038zm12.157-13.981h2.388l-.572 2.934h2.127c1.337 0 2.262.235 2.766.698.505.47.664 1.219.454 2.27l-1 5.136h-2.421l.95-4.884c.109-.555.067-.933-.118-1.135-.185-.202-.589-.303-1.194-.303h-1.909l-1.227 6.33h-2.388l2.144-11.046zm12.485 4.682c.916 0 1.522.169 1.824.505.303.336.379.916.219 1.74-.168.858-.488 1.463-.959 1.833-.47.361-1.193.546-2.169.546H26.86l.9-4.623h1.647zm-5.86 9.299h2.405l.571-2.934h2.06c.908 0 1.656-.093 2.245-.286a4.396 4.396 0 001.606-.959 4.792 4.792 0 001.505-2.707c.252-1.311.058-2.329-.572-3.06-.64-.731-1.656-1.093-3.044-1.093h-4.624l-2.152 11.039zm6.364.757v17.37c0 1.85 4.036 3.287 8.996 3.287h.059c5.02 0 8.996-1.497 8.996-3.346v-17.37l-18.05.06z" fill="#0078D4"/><path d="M47.969 27.793c0 1.79-4.035 3.287-9.004 3.287-4.96 0-9.063-1.496-9.063-3.287 0-1.79 4.035-3.287 9.004-3.287 5.028 0 9.063 1.496 9.063 3.287z" fill="#50E6FF"/><path d="M46.187 27.618c0 1.21-3.229 2.194-7.155 2.194-3.918 0-7.205-.983-7.205-2.194 0-1.21 3.229-2.194 7.155-2.194s7.205.983 7.205 2.194z" fill="#0078D4"/><path d="M45.783 39.406v-3.11h-1.85v1.941c0 .127.026.227-.083.227h-1.497c-.235 0-.21-.285-.21-.285v-1.884h-2.245l.395.261v2.001s-.1 1.345 1.11 1.345h2.354c.185 0 .42-.134.429-.202.008-.067.025.547-.589.589h-3.06v1.438h3.607c.361 0 .874-.06 1.227-.572.32-.454.412-.807.412-1.085v-.664zm-12.468-2.189v2.884h-1.597v-4.616s.143-1 1.067-1c.925 0 1.119.185 1.556 1.009.42.824 1.26 2.362 1.26 2.362s1.136-2.564 1.296-2.942c.16-.387.647-.496 1.177-.454.52.033 1.059.32 1.084 1.05v4.6h-1.597v-2.884s-.984 2.244-1.16 2.505c-.185.269-.488.387-.824.387-.345 0-.799-.042-1.026-.438-.227-.403-1.236-2.463-1.236-2.463z" fill="#50E6FF"/></svg>