<svg xmlns="http://www.w3.org/2000/svg" viewBox="0 0 49 49"><path d="M40.024 24.35c-.2 2.038-1.643 4.04-4.33 5.59-5.833 3.37-15.323 3.35-21.194-.037-2.77-1.597-4.239-3.66-4.405-5.75v5.492a5.125 5.125 0 000 .803c.166 2.089 1.635 4.152 4.405 5.75 5.87 3.39 15.36 3.407 21.193.038 2.692-1.552 4.132-3.558 4.331-5.592a4.838 4.838 0 000-.982V24.35z" fill="#0078D4"/><path d="M40.024 33.058c-.2 2.039-1.643 4.04-4.33 5.592-5.833 3.37-15.323 3.349-21.194-.038-2.77-1.597-4.239-3.66-4.405-5.75v5.492a5.125 5.125 0 000 .803c.166 2.089 1.635 4.153 4.405 5.75 5.87 3.39 15.36 3.407 21.193.037 2.692-1.551 4.132-3.557 4.331-5.591a4.837 4.837 0 000-.982v-5.313zm0-12.202V15.43a4.716 4.716 0 000-.969c-.2-2.06-1.668-4.09-4.397-5.666-5.87-3.391-15.36-3.408-21.193-.038-2.725 1.573-4.169 3.603-4.34 5.67-.02.275-.02.55 0 .825v5.587a5.38 5.38 0 000 .803c.167 2.088 1.636 4.152 4.407 5.75 5.87 3.39 15.36 3.407 21.192.037 2.692-1.552 4.132-3.557 4.331-5.591a4.838 4.838 0 000-.982z" fill="#0078D4"/><path d="M40.023 14.994c.025-4.78-6.663-8.69-14.94-8.735-8.275-.045-15.006 3.793-15.032 8.572-.026 4.78 6.663 8.69 14.94 8.735 8.275.045 15.006-3.793 15.032-8.572z" fill="#50E6FF"/><path d="M30.353 18.423l1.876.761 2.397-1.98-1.848-.75c.171-.265.3-.54.387-.815l2.23-.108-.378-2.413-2.193.108a4.405 4.405 0 00-.649-.81l1.606-.929-2.991-1.726-1.606.928c-.429-.146-.87-.262-1.327-.358l.191-1.31-4.202-.221-.191 1.31c-.479.046-.953.121-1.41.217L20.93 9.245l-3.445 1.39 1.315 1.081a5.83 5.83 0 00-.837.69l-2.2-.344-1.078 2.35 2.205.345c0 .283.046.562.133.84l-2.063.554 1.793 2.21 2.063-.554c.154.108.32.212.495.312.183.108.375.208.575.3l-.957 1.194 3.806 1.031.966-1.202c.47.05.948.075 1.427.075l.603 1.285 4.048-.62-.6-1.277c.404-.145.8-.303 1.174-.482z" fill="#0078D4"/><path d="M29.39 14.794c.008-1.372-1.912-2.494-4.288-2.507-2.375-.013-4.307 1.089-4.315 2.46-.007 1.372 1.913 2.495 4.288 2.508 2.376.012 4.308-1.089 4.316-2.46zM13.48 1.46H1.816v11.647h3.47V4.922h8.194V1.461zm34.397 11.646V1.46h-11.66v3.461h8.194v8.184h3.466zm-11.66 23.031h11.66V24.492h-3.466v8.184h-8.194v3.461zM1.815 24.495V36.14H13.48v-3.462H5.286v-8.183h-3.47z" fill="#50E6FF"/></svg>