<svg xmlns="http://www.w3.org/2000/svg" viewBox="0 0 48 49"><path d="M26.518 35.866c6.265 0 11.343-1.685 11.343-3.764 0-2.079-5.078-3.764-11.343-3.764-6.264 0-11.343 1.685-11.343 3.764 0 2.079 5.079 3.764 11.343 3.764z" fill="#0078D4"/><path d="M26.518 33.273c6.265 0 11.343-1.686 11.343-3.765s-5.078-3.764-11.343-3.764c-6.264 0-11.343 1.685-11.343 3.764 0 2.08 5.079 3.765 11.343 3.765z" fill="#50E6FF"/><path d="M26.518 30.648c6.265 0 11.343-1.686 11.343-3.765s-5.078-3.764-11.343-3.764c-6.264 0-11.343 1.685-11.343 3.764 0 2.08 5.079 3.765 11.343 3.765z" fill="#0078D4"/><path d="M26.518 27.968c6.265 0 11.343-1.685 11.343-3.764 0-2.08-5.078-3.765-11.343-3.765-6.264 0-11.343 1.686-11.343 3.765s5.079 3.764 11.343 3.764z" fill="#50E6FF"/><path d="M26.518 25.5c6.265 0 11.343-1.686 11.343-3.765s-5.078-3.764-11.343-3.764c-6.264 0-11.343 1.685-11.343 3.764 0 2.079 5.079 3.764 11.343 3.764z" fill="#0078D4"/><path d="M26.518 22.898c6.265 0 11.343-1.686 11.343-3.765s-5.078-3.764-11.343-3.764c-6.264 0-11.343 1.685-11.343 3.764 0 2.08 5.079 3.765 11.343 3.765z" fill="#50E6FF"/><path d="M26.518 20.644c6.265 0 11.343-1.686 11.343-3.765s-5.078-3.764-11.343-3.764c-6.264 0-11.343 1.685-11.343 3.764 0 2.08 5.079 3.765 11.343 3.765z" fill="#0078D4"/><path d="M24 .49C14.855.49 6.914 5.602 2.863 13.122h2.484C9.187 6.84 16.101 2.646 24 2.646c12.06 0 21.844 9.777 21.844 21.844 0 12.068-9.785 21.844-21.844 21.844-7.899 0-14.813-4.193-18.653-10.475H2.863c4.05 7.52 12 12.631 21.137 12.631 13.255 0 24-10.745 24-24 0-13.254-10.745-24-24-24z" fill="#0078D4"/><path d="M5.053 16.912A5.067 5.067 0 000 21.965V32.07h10.105V21.965c0-2.78-2.273-5.053-5.052-5.053zM3.267 20.18a2.518 2.518 0 013.57 0c.48.48.742 1.111.742 1.785H2.526c0-.666.261-1.305.741-1.785zm1.786 8.1a1.261 1.261 0 01-1.264-1.263c0-.699.565-1.263 1.264-1.263.699 0 1.263.564 1.263 1.263 0 .7-.564 1.264-1.263 1.264z" fill="#0078D4"/></svg>