<svg xmlns="http://www.w3.org/2000/svg" viewBox="0 0 48 49"><path d="M47.924 1.021H.034V6.06h47.89V1.021z" fill="#50E6FF"/><path d="M47.924 5.975H.034v17.648h47.89V5.975zM10.117 26.092H.033v10.083h10.084V26.092zm12.603 0H12.637v10.083H22.72V26.092z" fill="#0078D4"/><path d="M35.322 26.092H25.238v10.083h10.084V26.092zm12.603 0H37.85v10.083h10.083V26.092h-.008z" fill="#50E6FF"/><path d="M22.72 38.693H.032v10.084H22.72V38.693z" fill="#0078D4"/><path d="M47.924 38.693H25.238V48.77h22.686V38.693zm-6.356-24.035L35.33 8.42v4.19H6.188v4.433H35.33v3.853l6.238-6.238z" fill="#50E6FF"/></svg>