<svg xmlns="http://www.w3.org/2000/svg" viewBox="0 0 49 49"><path d="M30.773 10.372c-.16-1.945-1.776-3.477-3.671-3.477-1.97 0-3.57 1.6-3.57 3.57v2.897c0 1.895 1.523 3.511 3.57 3.68 1.996 0 3.68-1.684 3.68-3.68l-.009-2.99zm-2.231 2.99c0 .85-.767 1.448-1.356 1.448-.792-.067-1.432-.716-1.432-1.448v-2.897c0-.724.615-1.339 1.34-1.339.732 0 1.389.64 1.448 1.34v2.896z" fill="#0078D4"/><path d="M18.562 17.083c-.69 0-1.254-.564-1.254-1.255V8.216c0-.69.564-1.255 1.254-1.255.69 0 1.255.564 1.255 1.255v7.604a1.26 1.26 0 01-1.255 1.263z" fill="#50E6FF"/><path d="M13.586 10.372c-.16-1.945-1.777-3.477-3.672-3.477-1.97 0-3.57 1.6-3.57 3.57v2.897c0 1.895 1.524 3.511 3.57 3.68 1.996 0 3.68-1.684 3.68-3.68l-.008-2.99zm-2.223 2.99c0 .85-.767 1.448-1.356 1.448-.792-.067-1.432-.716-1.432-1.448v-2.897c0-.724.615-1.339 1.34-1.339.732 0 1.389.64 1.448 1.34v2.896z" fill="#0078D4"/><path d="M1.375 17.083c-.69 0-1.255-.564-1.255-1.255V8.216A1.247 1.247 0 011.375 6.96c.69 0 1.255.564 1.255 1.255v7.604a1.26 1.26 0 01-1.255 1.263z" fill="#50E6FF"/><path d="M47.96 10.372c-.16-1.945-1.776-3.477-3.67-3.477-1.971 0-3.571 1.6-3.571 3.57v2.897c0 1.895 1.524 3.511 3.57 3.68 1.996 0 3.68-1.684 3.68-3.68l-.008-2.99zm-2.23 2.99c0 .85-.767 1.448-1.356 1.448-.792-.067-1.432-.716-1.432-1.448v-2.897c0-.724.615-1.339 1.339-1.339.733 0 1.39.64 1.448 1.34v2.896z" fill="#0078D4"/><path d="M35.742 17.083c-.691 0-1.255-.564-1.255-1.255V8.216c0-.69.564-1.255 1.255-1.255.69 0 1.254.564 1.254 1.255v7.604a1.249 1.249 0 01-1.254 1.263z" fill="#50E6FF"/><path d="M30.773 35.638c-.16-1.945-1.776-3.478-3.671-3.478-1.97 0-3.57 1.6-3.57 3.57v2.898c0 1.894 1.523 3.511 3.57 3.68 1.996 0 3.68-1.685 3.68-3.68l-.009-2.99zm-2.231 2.99c0 .85-.767 1.448-1.356 1.448-.792-.067-1.432-.716-1.432-1.449v-2.896c0-.724.615-1.34 1.34-1.34.732 0 1.389.64 1.448 1.34v2.896z" fill="#0078D4"/><path d="M18.562 42.348c-.69 0-1.254-.564-1.254-1.255V33.49c0-.69.564-1.255 1.254-1.255.69 0 1.255.565 1.255 1.255v7.604c0 .69-.564 1.255-1.255 1.255z" fill="#50E6FF"/><path d="M13.586 35.638c-.16-1.945-1.777-3.478-3.672-3.478-1.97 0-3.57 1.6-3.57 3.57v2.898c0 1.894 1.524 3.511 3.57 3.68 1.996 0 3.68-1.685 3.68-3.68l-.008-2.99zm-2.223 2.99c0 .85-.767 1.448-1.356 1.448-.792-.067-1.432-.716-1.432-1.449v-2.896a1.36 1.36 0 011.34-1.34c.732 0 1.389.64 1.448 1.34v2.896z" fill="#0078D4"/><path d="M1.375 42.348c-.69 0-1.254-.564-1.254-1.255V33.49c0-.69.564-1.255 1.254-1.255.69 0 1.255.565 1.255 1.255v7.604c0 .69-.564 1.255-1.255 1.255z" fill="#50E6FF"/><path d="M47.96 35.638c-.16-1.945-1.776-3.478-3.67-3.478-1.971 0-3.571 1.6-3.571 3.57v2.898c0 1.894 1.524 3.511 3.57 3.68 1.996 0 3.68-1.685 3.68-3.68l-.008-2.99zm-2.23 2.99c0 .85-.767 1.448-1.356 1.448-.792-.067-1.432-.716-1.432-1.449v-2.896c0-.724.615-1.34 1.339-1.34.733 0 1.39.64 1.448 1.34v2.896z" fill="#0078D4"/><path d="M35.742 42.348c-.691 0-1.255-.564-1.255-1.255V33.49c0-.69.564-1.255 1.255-1.255.69 0 1.254.565 1.254 1.255v7.604a1.247 1.247 0 01-1.254 1.255zM17.308 26.322c.16 1.945 1.777 3.478 3.672 3.478 1.97 0 3.57-1.6 3.57-3.57v-2.898c0-1.894-1.524-3.511-3.57-3.68-1.996 0-3.68 1.685-3.68 3.68l.008 2.99zm2.223-2.99c0-.85.767-1.448 1.356-1.448.792.067 1.432.716 1.432 1.448v2.897c0 .724-.615 1.34-1.34 1.34-.732 0-1.389-.64-1.448-1.34v-2.897z" fill="#50E6FF"/><path d="M29.518 19.61c.69 0 1.255.564 1.255 1.254v7.604c0 .69-.564 1.255-1.255 1.255-.69 0-1.254-.564-1.254-1.255v-7.604c0-.69.564-1.255 1.254-1.255z" fill="#0078D4"/><path d="M34.495 26.322c.16 1.945 1.777 3.478 3.672 3.478 1.97 0 3.57-1.6 3.57-3.57v-2.898c0-1.894-1.524-3.511-3.57-3.68-1.996 0-3.68 1.685-3.68 3.68l.008 2.99zm2.223-2.99c0-.85.767-1.448 1.356-1.448.792.067 1.432.716 1.432 1.448v2.897c0 .724-.615 1.34-1.34 1.34-.732 0-1.389-.64-1.448-1.34v-2.897z" fill="#50E6FF"/><path d="M46.706 19.61c.69 0 1.255.564 1.255 1.254v7.604c0 .69-.565 1.255-1.255 1.255s-1.255-.564-1.255-1.255v-7.604c0-.69.564-1.255 1.255-1.255z" fill="#0078D4"/><path d="M.12 26.322C.28 28.267 1.899 29.8 3.793 29.8c1.97 0 3.57-1.6 3.57-3.57v-2.898c0-1.894-1.523-3.511-3.57-3.68-1.995 0-3.68 1.685-3.68 3.68l.009 2.99zm2.224-2.99c0-.85.766-1.448 1.356-1.448.791.067 1.431.716 1.431 1.448v2.897c0 .724-.614 1.34-1.339 1.34-.732 0-1.39-.64-1.448-1.34v-2.897z" fill="#50E6FF"/><path d="M12.33 19.61c.691 0 1.256.564 1.256 1.254v7.604c0 .69-.565 1.255-1.255 1.255s-1.255-.564-1.255-1.255v-7.604c0-.69.564-1.255 1.255-1.255z" fill="#0078D4"/></svg>