<svg xmlns="http://www.w3.org/2000/svg" viewBox="0 0 49 49"><path d="M1.822 8.207L.25 10.11l15.97 13.407 1.573-1.903L1.823 8.207zm13.241 33.435c1.242 0 2.318-1.076 2.318-2.317s-1.076-2.317-2.318-2.317c-1.241 0-2.317 1.076-2.317 2.317a2.313 2.313 0 002.317 2.317zm26.563 0c1.241 0 2.317-1.076 2.317-2.317s-1.076-2.317-2.317-2.317-2.317 1.076-2.317 2.317a2.313 2.313 0 002.317 2.317z" fill="#0078D4"/><path d="M48.164 18.305H8.114V34.36h40.05V18.305z" fill="#50E6FF"/><path d="M48.247 31.875H8.113v4.469h40.134v-4.469zM8.113 15.488V30.22h40.134V15.49H8.113zm19.695 11.09h-3.31v-3.31h3.31v3.31zm0-4.055h-3.31v-3.31h3.31v3.31zm4.055 4.055h-3.31v-3.31h3.31v3.31zm0-4.055h-3.31v-3.31h3.31v3.31z" fill="#0078D4"/></svg>