<svg xmlns="http://www.w3.org/2000/svg" viewBox="0 0 49 49"><path d="M43.414 4.11c.965 0 1.738.29 2.317.868.579.676.868 1.448.868 2.413 0 .676-.096 1.64-.772 2.316-.579.58-1.351.869-2.316.869-.676 0-1.64-.097-2.316-.772-.869-.676-1.158-1.448-1.158-2.413 0-.965.386-1.737.965-2.316.675-.676 1.544-.965 2.412-.965zm0 16.888c.965 0 1.738.29 2.317.869.482.482.772 1.351.772 2.316 0 .676-.097 1.64-.772 2.316-.58.58-1.352.869-2.317.869-.675 0-1.64-.097-2.316-.772-.579-.58-.868-1.351-.868-2.316 0-.966.386-1.738.965-2.317.482-.579 1.35-.965 2.22-.965zm0 16.889c.965 0 1.738.29 2.317.868.579.676.868 1.448.868 2.413 0 .676-.096 1.64-.772 2.316-.579.58-1.351.869-2.316.869-.676 0-1.64-.097-2.316-.772-.58-.58-.869-1.351-.869-2.316 0-.965.386-1.737.965-2.316.386-.773 1.255-1.062 2.123-1.062zm0-35.707c-1.447 0-2.702.579-3.667 1.447-.965.869-1.544 2.22-1.544 3.668 0 1.447.483 2.702 1.448 3.667.868.965 2.22 1.447 3.667 1.447 1.448 0 2.702-.482 3.667-1.447.965-.869 1.448-2.22 1.448-3.667 0-1.448-.483-2.703-1.351-3.668-.965-.965-2.22-1.447-3.668-1.447zm0 16.888c-1.447 0-2.702.58-3.667 1.448-.965.868-1.544 2.22-1.544 3.667 0 1.448.483 2.702 1.448 3.667.868 1.062 2.22 1.448 3.667 1.448 1.448 0 2.702-.483 3.667-1.448.965-.868 1.448-2.22 1.448-3.667 0-1.448-.483-2.799-1.351-3.667-.965-.965-2.22-1.448-3.668-1.448zm0 16.889c-1.447 0-2.702.579-3.667 1.447-.965.869-1.544 2.22-1.544 3.668 0 1.447.483 2.702 1.448 3.667.868.965 2.22 1.448 3.667 1.448 1.448 0 2.702-.483 3.667-1.448.965-.869 1.448-2.22 1.448-3.667 0-1.448-.483-2.703-1.351-3.668-.965-1.061-2.22-1.447-3.668-1.447zM25.078 4.11c.966 0 1.738.29 2.317.868.579.676.868 1.448.868 2.413 0 .676-.096 1.64-.772 2.316-.579.58-1.35.869-2.316.869-.675 0-1.64-.097-2.316-.772C21.99 9.128 21.7 8.356 21.7 7.39c0-.965.386-1.737.965-2.316.675-.676 1.544-.965 2.412-.965zm0 33.777c.966 0 1.738.29 2.317.868.579.676.868 1.448.868 2.413 0 .676-.096 1.64-.772 2.316-.579.58-1.35.869-2.316.869-.675 0-1.64-.097-2.316-.772-.58-.58-.869-1.351-.869-2.316 0-.965.386-1.737.965-2.316.386-.773 1.255-1.062 2.123-1.062zm0-35.707c-1.447 0-2.702.579-3.667 1.447-.965.869-1.544 2.22-1.544 3.668 0 1.447.483 2.702 1.448 3.667.868.965 2.22 1.447 3.667 1.447 1.448 0 2.702-.482 3.667-1.447.965-.869 1.448-2.22 1.448-3.667 0-1.448-.483-2.703-1.351-3.668-.965-.965-2.22-1.447-3.668-1.447zm0 33.777c-1.447 0-2.702.579-3.667 1.447-.965.869-1.544 2.22-1.544 3.668 0 1.447.483 2.702 1.448 3.667.868.965 2.22 1.448 3.667 1.448 1.448 0 2.702-.483 3.667-1.448.965-.869 1.448-2.22 1.448-3.667 0-1.448-.483-2.703-1.351-3.668-.965-1.061-2.22-1.447-3.668-1.447z" fill="#0078D4"/><path d="M10.31 26.498c-.192.29-.385.58-.675.772-.193.193-.482.386-.772.58L20.83 39.815c.193-.676.58-1.255 1.062-1.737L10.31 26.498zm.002-4.534l11.58-11.58c-.482-.483-.771-1.062-.964-1.738L8.96 20.613l.868.58c.097.289.29.578.483.771zM27.68 10.671l11.773 11.774a2.63 2.63 0 01.869-1.158c.096-.097.29-.193.386-.29l-11.87-11.87c-.193.482-.483.869-.869 1.255l-.29.29zm11.775 15.444L27.777 37.792l.29.29c.386.386.579.868.772 1.351L40.613 27.66l-.29-.29c-.386-.385-.675-.771-.868-1.254z" fill="#0078D4"/><path d="M6.738 4.11c.965 0 1.737.29 2.316.868.579.676.868 1.448.868 2.413 0 .676-.096 1.64-.772 2.316-.772.58-1.544.869-2.509.869-.772 0-1.737-.097-2.316-.772-.676-.676-.965-1.448-.965-2.413 0-.965.386-1.737.965-2.316C5 4.399 5.869 4.11 6.738 4.11zm0 16.888c.965 0 1.737.29 2.316.869.482.482.772 1.351.772 2.316 0 .676-.097 1.64-.772 2.316-.58.58-1.351.869-2.316.869-.676 0-1.641-.097-2.317-.772-.772-.58-1.061-1.351-1.061-2.316 0-.966.386-1.738.965-2.317.675-.579 1.544-.965 2.413-.965zm0 16.889c.965 0 1.737.29 2.316.868.579.676.868 1.448.868 2.413 0 .676-.096 1.64-.772 2.316-.579.58-1.35.869-2.316.869-.676 0-1.64-.097-2.316-.772-.869-.772-1.158-1.448-1.158-2.51a3.2 3.2 0 01.965-2.316 3.706 3.706 0 012.413-.868zm0-35.707c-1.448 0-2.703.579-3.764 1.447-.965.869-1.544 2.22-1.544 3.764 0 1.544.482 2.702 1.447 3.667.869.965 2.22 1.448 3.668 1.448 1.447 0 2.702-.483 3.667-1.448.965-.868 1.447-2.22 1.447-3.667 0-1.448-.482-2.702-1.35-3.667-.87-1.062-2.124-1.544-3.571-1.544zm0 16.888c-1.448 0-2.703.58-3.668 1.448-1.061.965-1.64 2.316-1.64 3.764 0 1.447.482 2.702 1.447 3.667.869 1.061 2.22 1.447 3.668 1.447 1.447 0 2.702-.482 3.667-1.447.965-.869 1.447-2.22 1.447-3.667 0-1.448-.482-2.8-1.35-3.668-.87-1.061-2.124-1.544-3.571-1.544zm0 16.889c-1.448 0-2.703.579-3.668 1.447-.965.869-1.544 2.22-1.544 3.668 0 1.447.483 2.702 1.448 3.667.868.965 2.22 1.448 3.667 1.448 1.448 0 2.702-.483 3.667-1.448.965-.869 1.448-2.22 1.448-3.667 0-1.448-.483-2.703-1.351-3.668-.965-1.061-2.22-1.447-3.667-1.447zM30.097 24.28c0 1.448-.483 2.8-1.448 3.668-1.061 1.062-2.22 1.448-3.667 1.448-1.448 0-2.799-.483-3.667-1.448-.965-.965-1.448-2.22-1.448-3.667 0-1.448.58-2.799 1.544-3.667.965-.869 2.22-1.448 3.667-1.448 1.448 0 2.703.482 3.668 1.448.965.868 1.35 2.22 1.35 3.667z" fill="#0078D4"/></svg>