<svg xmlns="http://www.w3.org/2000/svg" viewBox="0 0 49 49"><path d="M48.102 21.174V7.451L36.214.59 24.334 7.45v13.723l11.88 6.87 11.888-6.87z" fill="#0078D4"/><path d="M5.64 15.773a.724.724 0 01-.726-.726v-4.308a5.84 5.84 0 015.832-5.833h8.314c.399 0 .726.32.726.726a.729.729 0 01-.726.726h-8.314a4.396 4.396 0 00-4.388 4.388v4.309c0 .399-.319.718-.718.718z" fill="#0078D7"/><path d="M18.485 3.855l2.944 1.9-2.944 1.898V3.855zM43.051 35.043c.4 0 .727.32.727.726v2.154a5.84 5.84 0 01-5.833 5.832h-5.202a.724.724 0 01-.726-.726c0-.406.327-.726.726-.726h5.202a4.396 4.396 0 004.388-4.388v-2.154c0-.399.32-.718.718-.718z" fill="#0078D7"/><path d="M33.318 44.81l-2.944-1.9 2.944-1.898v3.797z" fill="#0078D7"/><path d="M26.855 19.691l9.016 5.178V14.96l-9.016-5.21v9.941zM36.334 3.352l-9.112 5.25 9.088 5.385 9.16-5.425-9.136-5.21zM36.725 15.048v9.917l9.095-5.266V9.758l-9.095 5.29zM25.435 40.014V26.291L13.547 19.43 1.667 26.29v13.723l11.88 6.862 11.888-6.862z" fill="#50E6FF"/><path d="M4.188 38.531l9.016 5.178V33.8l-9.016-5.21v9.942zM13.666 22.18l-9.111 5.25 9.087 5.385 9.16-5.425-9.136-5.21zM14.057 33.88v9.917l9.096-5.266v-9.933l-9.096 5.282z" fill="#0078D7"/></svg>