<svg xmlns="http://www.w3.org/2000/svg" viewBox="0 0 49 49"><path d="M24.65 24.712v-7.7h-1.262v7.7H6.457v11.57h1.262V25.974h15.67v8.373h1.262v-8.373h15.652v10.308h1.262v-11.57H24.651z" fill="#50E6FF"/><path d="M13.972 42.365v-8.861H1.332v8.861H.121v1.262h15.063v-1.262h-1.212z" fill="#0078D4"/><path d="M12.878 34.691H2.426v7.742h10.452v-7.742z" fill="#50E6FF"/><path d="M46.757 42.365v-8.861h-12.64v8.861h-1.211v1.262h15.063v-1.262h-1.212z" fill="#0078D4"/><path d="M45.663 34.691H35.211v7.742h10.452v-7.742z" fill="#50E6FF"/><path d="M30.347 42.365v-8.861h-12.64v8.861h-1.21v1.262h15.062v-1.262h-1.212z" fill="#0078D4"/><path d="M29.254 34.691H18.802v7.742h10.452v-7.742z" fill="#50E6FF"/><path d="M30.34 17.205V8.344H17.7v8.86h-1.212v1.263H31.55v-1.262h-1.212z" fill="#0078D4"/><path d="M29.246 9.527H18.794v7.742h10.452V9.527z" fill="#50E6FF"/><path d="M20.115 13.071c.033-1.43 1.052-1.85 1.851-1.85.59 0 1.077.226 1.658.799.067.067.227.235.227.235l-.522.707-.21-.26c-.488-.59-.74-.758-1.254-.758-.673-.009-1.052.673-1.027 1.254.026.589.497.993 1.019.993.446 0 .993-.236 1.615-1.052.093-.118.185-.261.287-.413.067-.117.15-.227.227-.328.665-.9 1.287-1.178 1.96-1.195.665-.008 1.869.472 1.869 1.852 0 1.38-1.052 1.85-1.852 1.85-.648 0-1.161-.26-1.809-.967-.025-.025-.059-.067-.059-.067l.497-.64s.025.034.05.05c.58.724.875.876 1.43.884.674.009 1.053-.673 1.027-1.253a1.027 1.027 0 00-1.018-.994c-.446 0-.993.236-1.616 1.052-.092.118-.185.261-.286.413a1.847 1.847 0 01-.235.32c-.699.9-1.515 1.178-1.953 1.195-.968.05-1.927-.463-1.876-1.827zM7.652 36.113l-2.541 2.542h1.918v2.507H8.3v-2.507h1.894l-2.542-2.542zM24.028 36.113l-2.541 2.542h1.919v2.507h1.27v-2.507h1.894l-2.542-2.542zM40.438 36.113l-2.541 2.542h1.927v2.507h1.27v-2.507h1.885l-2.541-2.542z" fill="#0078D4"/></svg>