<svg xmlns="http://www.w3.org/2000/svg" viewBox="0 0 48 49"><path d="M39.206 7.856a4.137 4.137 0 00-4.771-4.089A4.179 4.179 0 0030.47.907a4.163 4.163 0 00-4.149 3.861 3.685 3.685 0 00-4.611 3.567 3.684 3.684 0 003.105 3.635l.219.026c.118.008 10.064-.009 10.064-.009a4.133 4.133 0 004.107-4.13zM2.34 41.342l.16.016c.059.009 3.122 0 5.25 0v-.967c-.134-1.002-1.8-1.792-3.837-1.792-1.632 0-3.02.505-3.576 1.22.37.799 1.11 1.38 2.003 1.523z" fill="#50E6FF"/><path d="M9.736 35.388c-.16 0-.31.009-.454.034a3.008 3.008 0 00-2.853-2.062 3 3 0 00-2.996 2.794 2.502 2.502 0 00-.673-.084 2.65 2.65 0 00-2.625 2.263c.185-.126.395-.244.622-.353.876-.413 2.003-.64 3.165-.64 1.16 0 2.288.227 3.164.64 1.11.521 1.792 1.32 1.91 2.255l.008.075v1.043h.75a2.99 2.99 0 002.97-2.986 2.986 2.986 0 00-2.988-2.979z" fill="#50E6FF"/><path d="M7.734 44.524H.077v2.432c0 1.06 1.716 1.918 3.837 1.918 2.12 0 3.837-.858 3.837-1.918 0 0 0-2.415-.017-2.432z" fill="#0078D7"/><path d="M7.751 44.095l.009 2.128c0 1.06-1.717 1.919-3.838 1.919-2.12 0-3.845-.867-3.845-1.919v-2.128H7.75z" fill="#50E6FF"/><path d="M7.734 41.9H.077v2.431c0 1.06 1.716 1.918 3.837 1.918 2.12 0 3.837-.858 3.837-1.918 0 0 0-2.415-.017-2.432z" fill="#0078D7"/><path d="M7.751 40.392H.077v2.01c0 1.06 1.716 1.919 3.837 1.919 2.12 0 3.837-.858 3.837-1.918v-2.011z" fill="#50E6FF"/><path d="M3.914 42.435c2.12 0 3.837-.858 3.837-1.918s-1.718-1.918-3.837-1.918c-2.12 0-3.837.859-3.837 1.918 0 1.06 1.718 1.918 3.837 1.918z" fill="#0078D7"/><path d="M37.574 41.342l.16.016c.058.009 3.121 0 5.25 0v-.967c-.126-1.002-1.792-1.792-3.828-1.792-1.633 0-3.021.505-3.577 1.22a2.632 2.632 0 001.995 1.523z" fill="#50E6FF"/><path d="M44.962 35.388c-.16 0-.311.009-.454.034a3.008 3.008 0 00-2.853-2.062 3 3 0 00-2.996 2.794 2.502 2.502 0 00-.673-.084 2.65 2.65 0 00-2.626 2.263 4.82 4.82 0 01.623-.353c.875-.413 2.003-.64 3.164-.64 1.162 0 2.29.227 3.164.64 1.111.521 1.793 1.32 1.91 2.255l.009.075v1.043h.749a2.99 2.99 0 002.97-2.986c.009-1.641-1.338-2.979-2.987-2.979z" fill="#50E6FF"/><path d="M42.968 44.524H35.31v2.432c0 1.06 1.717 1.918 3.837 1.918 2.121 0 3.838-.858 3.838-1.918 0 0-.009-2.415-.017-2.432z" fill="#0078D7"/><path d="M42.976 44.095l.009 2.128c0 1.06-1.717 1.919-3.838 1.919-2.12 0-3.837-.858-3.837-1.919v-2.128h7.666z" fill="#50E6FF"/><path d="M42.968 41.9H35.31v2.431c0 1.06 1.717 1.918 3.837 1.918 2.121 0 3.838-.858 3.838-1.918 0 0-.009-2.415-.017-2.432z" fill="#0078D7"/><path d="M42.985 40.392H35.31v2.01c0 1.06 1.717 1.919 3.837 1.919 2.121 0 3.838-.858 3.838-1.918v-2.011z" fill="#50E6FF"/><path d="M39.147 42.435c2.12 0 3.838-.858 3.838-1.918s-1.718-1.918-3.838-1.918c-2.119 0-3.837.859-3.837 1.918 0 1.06 1.718 1.918 3.837 1.918z" fill="#0078D7"/><path d="M19.952 41.342l.16.016c.06.009 3.122 0 5.251 0v-.967c-.126-1.002-1.792-1.792-3.829-1.792-1.632 0-3.02.505-3.576 1.22a2.647 2.647 0 001.994 1.523z" fill="#50E6FF"/><path d="M27.35 35.388c-.16 0-.312.009-.455.034a3.008 3.008 0 00-2.853-2.062 3 3 0 00-2.996 2.794 2.502 2.502 0 00-.673-.084 2.65 2.65 0 00-2.625 2.263 4.82 4.82 0 01.622-.353c.875-.413 2.003-.64 3.164-.64 1.162 0 2.29.227 3.165.64 1.11.521 1.792 1.32 1.91 2.255l.008.075v1.052h.75a2.988 2.988 0 00-.017-5.974z" fill="#50E6FF"/><path d="M25.346 44.524H17.69v2.432c0 1.06 1.716 1.918 3.837 1.918 2.12 0 3.837-.858 3.837-1.918.009 0 0-2.415-.017-2.432z" fill="#0078D7"/><path d="M25.363 44.095l.009 2.128c0 1.06-1.717 1.919-3.837 1.919-2.121 0-3.838-.858-3.838-1.919v-2.128h7.666z" fill="#50E6FF"/><path d="M25.346 41.9H17.69v2.431c0 1.06 1.716 1.918 3.837 1.918 2.12 0 3.837-.858 3.837-1.918.009 0 0-2.415-.017-2.432z" fill="#0078D7"/><path d="M25.372 40.392h-7.675v2.01c0 1.06 1.717 1.919 3.838 1.919 2.12 0 3.837-.858 3.837-1.918v-2.011z" fill="#50E6FF"/><path d="M21.535 42.435c2.119 0 3.837-.858 3.837-1.918s-1.718-1.918-3.837-1.918c-2.12 0-3.838.859-3.838 1.918 0 1.06 1.718 1.918 3.838 1.918z" fill="#0078D7"/><path d="M24.573 26.022v-4.896h-1.262v4.896H.05v5.2h1.263v-3.938H23.31v3.938h1.262v-3.938h22.132v3.938h1.262v-5.2H24.573zm5.839-20.217H17.714V15.9h12.698V5.805z" fill="#0078D4"/><path d="M29.083 7.125H19.035v7.455h10.048V7.125z" fill="#50E6FF"/><path d="M30.421 15.915V5.785H17.697v10.13h5.462v1.288h-5.445v1.338h12.699v-1.338h-5.411v-1.287h5.419zM19.035 7.123h10.048v7.455H19.035V7.123z" fill="#0078D4"/></svg>