<svg xmlns="http://www.w3.org/2000/svg" viewBox="0 0 49 49"><path d="M35.815 37.988H24.03v1.263h11.784v-1.263z" fill="#50E6FF"/><path d="M35.377 36.113l2.5 2.493-2.5 2.501v-4.994zM24.663 37.129H23.4v-24.32h12.415v1.263H24.663v23.057zM43.626 13.55h-1.262v26.948h1.262V13.551z" fill="#50E6FF"/><path d="M36.153 25.367H25.97v1.263h10.184v-1.263zM16.627 25.367H5.937v1.263h10.69v-1.263z" fill="#50E6FF"/><path d="M42.986 18.353a5.037 5.037 0 01-5.033-5.036 5.037 5.037 0 015.033-5.036 5.037 5.037 0 015.034 5.036 5.037 5.037 0 01-5.034 5.036zM48.02 20.965H37.953v10.071H48.02V20.965zM42.986 43.556a5.037 5.037 0 01-5.033-5.036 5.037 5.037 0 015.033-5.036 5.037 5.037 0 015.034 5.036 5.037 5.037 0 01-5.034 5.036zM5.053 31.036A5.037 5.037 0 01.02 26.001a5.037 5.037 0 015.033-5.036A5.037 5.037 0 0110.086 26a5.037 5.037 0 01-5.033 5.035zM23.99 31.036a5.037 5.037 0 01-5.033-5.035 5.037 5.037 0 015.033-5.036A5.037 5.037 0 0129.023 26a5.037 5.037 0 01-5.033 5.035zM29.023 8.254H18.957v10.072h10.066V8.254zM29.023 33.512H18.957v10.071h10.066V33.512z" fill="#0078D4"/><path d="M35.496 23.566l2.491 2.493-2.49 2.501v-4.994zM35.377 10.934l2.5 2.492-2.5 2.501v-4.993zM15.91 23.566l2.491 2.493-2.49 2.501v-4.994z" fill="#50E6FF"/></svg>