<svg xmlns="http://www.w3.org/2000/svg" viewBox="0 0 48 48"><path d="M24.631 24.042v-7.7H23.37v7.7H6.438v11.57H7.7V25.305h15.669v8.373h1.262v-8.373h15.652v10.309h1.263V24.042H24.63z" fill="#50E6FF"/><path d="M13.952 41.697v-8.861H1.312v8.861H.102v1.262h15.063v-1.262h-1.212z" fill="#0078D4"/><path d="M12.858 34.023H2.407v7.741h10.451v-7.742z" fill="#50E6FF"/><path d="M46.738 41.697v-8.861h-12.64v8.861h-1.212v1.262H47.95v-1.262h-1.212z" fill="#0078D4"/><path d="M45.644 34.023H35.192v7.741h10.452v-7.742z" fill="#50E6FF"/><path d="M30.328 41.697v-8.861h-12.64v8.861h-1.211v1.262H31.54v-1.262h-1.212z" fill="#0078D4"/><path d="M29.234 34.023H18.782v7.741h10.452v-7.742z" fill="#50E6FF"/><path d="M30.32 16.536V7.675H17.68v8.86h-1.212v1.263h15.064v-1.262H30.32z" fill="#0078D4"/><path d="M29.226 8.861H18.774v7.742h10.452V8.861z" fill="#50E6FF"/><path d="M20.095 12.404c.034-1.43 1.052-1.851 1.852-1.851.589 0 1.077.227 1.658.799.067.067.227.236.227.236l-.522.707-.21-.261c-.489-.59-.741-.758-1.254-.758-.674-.008-1.052.674-1.027 1.254.025.59.497.993 1.018.993.446 0 .993-.236 1.616-1.052.093-.118.185-.26.286-.412.067-.118.152-.227.227-.328.665-.9 1.288-1.178 1.961-1.195.665-.009 1.868.471 1.868 1.851s-1.052 1.851-1.851 1.851c-.648 0-1.161-.26-1.81-.967a1.127 1.127 0 01-.058-.068l.496-.64s.026.034.05.051c.581.724.876.875 1.431.884.674.008 1.052-.673 1.027-1.254a1.027 1.027 0 00-1.018-.993c-.446 0-.993.236-1.616 1.052-.093.118-.185.26-.286.412a1.852 1.852 0 01-.236.32c-.698.9-1.514 1.178-1.952 1.195-.968.05-1.927-.463-1.877-1.826zM7.633 35.445L5.09 37.986h1.92v2.508h1.27v-2.508h1.894l-2.541-2.541zm16.376 0l-2.542 2.541h1.919v2.508h1.27v-2.508h1.894l-2.541-2.541zm16.409 0l-2.541 2.541h1.927v2.508h1.27v-2.508h1.886l-2.542-2.541z" fill="#0078D4"/></svg>