<svg xmlns="http://www.w3.org/2000/svg" viewBox="0 0 48 49"><path d="M30.333 13.266H17.802v3.985c0 1.74 2.808 3.14 6.282 3.14 3.475 0 6.283-1.41 6.283-3.14 0 0-.009-3.96-.034-3.985z" fill="#0078D7"/><path d="M30.358 12.559l.009 3.487c0 1.739-2.808 3.14-6.283 3.14-3.474 0-6.282-1.41-6.282-3.14v-3.487h12.556z" fill="#50E6FF"/><path d="M30.333 8.96H17.802v3.986c0 1.74 2.808 3.141 6.282 3.141 3.475 0 6.283-1.41 6.283-3.14 0 0-.009-3.96-.034-3.986z" fill="#0078D7"/><path d="M30.367 6.496H17.802v3.301c0 1.74 2.808 3.141 6.282 3.141 3.475 0 6.283-1.41 6.283-3.14V6.495z" fill="#50E6FF"/><path d="M24.084 9.84c3.47 0 6.283-1.406 6.283-3.14 0-1.735-2.813-3.141-6.283-3.141s-6.282 1.406-6.282 3.14c0 1.735 2.813 3.141 6.282 3.141z" fill="#0078D7"/><path d="M10.111 42.136v-1.064H9.015a3.976 3.976 0 00-.784-1.89l.776-.778-.75-.751-.777.777a3.932 3.932 0 00-1.889-.785v-1.098H4.53v1.098c-.7.092-1.35.371-1.89.785l-.775-.777-.75.751.775.777a3.94 3.94 0 00-.784 1.892H.01v1.063h1.096c.093.701.371 1.351.784 1.892l-.776.776.751.752.776-.777c.54.414 1.18.692 1.889.785v1.098h1.06v-1.098c.7-.093 1.35-.371 1.89-.785l.775.777.75-.752-.775-.776c.413-.54.691-1.182.784-1.892h1.096zm-5.05 1.385a1.92 1.92 0 01-1.915-1.917 1.92 1.92 0 011.914-1.916 1.92 1.92 0 011.914 1.916 1.92 1.92 0 01-1.914 1.917zM20.4 46.71l-8.07.035v-7.59l1.542-.82 1.004-1.714h5.523v10.09z" fill="#0078D4"/><path d="M14.867 36.613v2.55H12.32l2.547-2.55z" fill="#50E6FF"/><path d="M35.468 38.723h-10.11v8.046h10.11v-8.046z" fill="#0078D4"/><path d="M34.398 37.72v-1.064h-1.594v1.064h-4.79v-1.064H26.42v1.064h-1.063v1.064h10.111V37.72h-1.07zm13.594 7.98H37.88v1.063h10.11V45.7z" fill="#50E6FF"/><path d="M43.682 44.582h-1.467v1.545h1.467v-1.545zm-15.137-4.203H26.42v2.128h2.125v-2.128zm5.853 0h-2.126v2.128h2.126v-2.128zm-2.918 0h-2.134v2.128h2.125v-2.128h.009zm-2.935 3.199H26.42v2.128h2.125v-2.128zm5.853 0h-2.126v2.128h2.126v-2.128zm-2.918 0h-2.134v2.128h2.125v-2.128h.009z" fill="#50E6FF"/><path d="M47.992 36.613H37.88v8.047h10.11v-8.047z" fill="#0078D4"/><path d="M46.937 37.66h-8.002v5.944h8.002V37.66z" fill="#0078D4"/><path d="M37.872 36.598v8.071H48v-8.071H37.872zm9.065 7.008h-8.002V37.66h8.002v5.945z" fill="#50E6FF"/><path d="M24.7 26.532v-5.184h-1.265v5.184H4.798v7.734h1.265v-6.468h36.236v6.468h1.265v-7.734H24.7z" fill="#0078D4"/></svg>