<svg xmlns="http://www.w3.org/2000/svg" viewBox="0 0 48 49"><path d="M2.617 33.496v15.41H6.28v-15.41H2.617z" fill="#50E6FF"/><path d="M6.392 33.496v15.41h3.73v-15.41h-3.73zM5.128 3.467v17.65h2.51V3.467h-2.51zM.068 23.643v7.529h12.506v-7.529H.068z" fill="#0078D4"/><path d="M6.373.94L9.9 4.47H2.836L6.373.94z" fill="#0078D4"/><path d="M20.42 33.496v15.41h3.613v-15.41h-3.612z" fill="#50E6FF"/><path d="M24.042 33.496v15.41h3.874v-15.41h-3.874z" fill="#0078D4"/><path d="M22.922 3.467v17.65h2.51V3.467h-2.51zm-5.145 20.184v7.529h12.505v-7.53H17.777z" fill="#50E6FF"/><path d="M24.084.94l3.529 3.529h-7.066L24.084.94zm13.912 32.556v15.41h3.865v-15.41h-3.865z" fill="#50E6FF"/><path d="M41.809 33.496v15.41h3.688v-15.41h-3.688zM40.504 3.467v17.65h2.51V3.467h-2.51z" fill="#0078D4"/><path d="M40.504 7.676v9.027h2.51V7.676h-2.51z" fill="#50E6FF"/><path d="M35.445 23.651v7.529h12.506v-7.53H35.445z" fill="#0078D4"/><path d="M35.445 23.652v3.84h12.506v-3.84H35.445z" fill="#50E6FF"/><path d="M41.752.94l3.528 3.53h-7.065L41.752.94z" fill="#0078D4"/></svg>