<svg xmlns="http://www.w3.org/2000/svg" viewBox="0 0 49 49"><path d="M48.082 21.413V7.69L36.194.83l-11.88 6.86v13.723l11.88 6.87 11.888-6.87z" fill="#0078D4"/><path d="M5.62 16.012a.724.724 0 01-.726-.726v-4.308a5.84 5.84 0 015.832-5.832h8.314c.399 0 .726.319.726.726a.729.729 0 01-.726.726h-8.314a4.396 4.396 0 00-4.388 4.388v4.308c0 .4-.319.718-.718.718z" fill="#0078D7"/><path d="M18.466 4.092l2.944 1.9-2.944 1.898V4.092zM43.032 35.28c.399 0 .726.32.726.726v2.154a5.84 5.84 0 01-5.833 5.833h-5.202a.724.724 0 01-.726-.726c0-.407.327-.726.726-.726h5.202a4.396 4.396 0 004.389-4.388v-2.155c0-.399.319-.718.718-.718z" fill="#0078D7"/><path d="M33.298 45.046l-2.944-1.9 2.944-1.898v3.798z" fill="#0078D7"/><path d="M26.835 19.93l9.016 5.178v-9.91l-9.016-5.21v9.942zm9.479-16.34l-9.112 5.25 9.088 5.385 9.16-5.426-9.136-5.21zm.391 11.696v9.917l9.095-5.266v-9.94l-9.095 5.289zM25.415 40.25V26.529l-11.888-6.862-11.88 6.862V40.25l11.88 6.861 11.888-6.861z" fill="#50E6FF"/><path d="M4.168 38.767l9.016 5.178v-9.91l-9.016-5.21v9.942zm9.479-16.348l-9.112 5.25 9.088 5.385 9.16-5.425-9.136-5.21zm.391 11.696v9.918l9.095-5.266v-9.934l-9.095 5.282z" fill="#0078D7"/></svg>