<svg xmlns="http://www.w3.org/2000/svg" viewBox="0 0 49 49"><path d="M39.226 7.618a4.137 4.137 0 00-4.772-4.09 4.179 4.179 0 00-3.963-2.86 4.163 4.163 0 00-4.149 3.862 3.684 3.684 0 00-4.611 3.567 3.684 3.684 0 003.105 3.635l.219.026c.117.008 10.064-.009 10.064-.009a4.134 4.134 0 004.107-4.131zM2.36 41.102l.16.017c.058.008 3.121 0 5.25 0v-.968c-.134-1-1.8-1.792-3.837-1.792-1.633 0-3.021.505-3.577 1.22.37.8 1.111 1.38 2.003 1.523z" fill="#50E6FF"/><path d="M9.756 35.149c-.16 0-.311.008-.454.033a3.008 3.008 0 00-2.853-2.06 3 3 0 00-2.996 2.792 2.502 2.502 0 00-.673-.084 2.65 2.65 0 00-2.626 2.264c.185-.127.396-.244.623-.354.875-.412 2.003-.64 3.164-.64s2.289.228 3.164.64c1.111.522 1.793 1.321 1.91 2.255l.009.076v1.043h.749a2.99 2.99 0 002.97-2.987 2.986 2.986 0 00-2.987-2.978z" fill="#50E6FF"/><path d="M7.754 44.285H.096v2.432c0 1.06 1.717 1.918 3.837 1.918 2.121 0 3.838-.858 3.838-1.918 0 0 0-2.415-.017-2.432z" fill="#0078D7"/><path d="M7.77 43.855l.01 2.13c0 1.06-1.717 1.918-3.838 1.918-2.12 0-3.846-.867-3.846-1.919v-2.129h7.675" fill="#50E6FF"/><path d="M7.754 41.66H.096v2.432c0 1.06 1.717 1.918 3.837 1.918 2.121 0 3.838-.858 3.838-1.918 0 0 0-2.415-.017-2.432z" fill="#0078D7"/><path d="M7.77 40.152H.097v2.011c0 1.06 1.717 1.919 3.837 1.919 2.121 0 3.838-.859 3.838-1.919v-2.01z" fill="#50E6FF"/><path d="M3.933 42.196c2.12 0 3.838-.859 3.838-1.918 0-1.06-1.718-1.919-3.837-1.919-2.12 0-3.838.86-3.838 1.919 0 1.06 1.718 1.918 3.837 1.918z" fill="#0078D7"/><path d="M37.593 41.102l.16.017c.059.008 3.122 0 5.251 0v-.968c-.126-1-1.792-1.792-3.829-1.792-1.633 0-3.021.505-3.576 1.22.353.8 1.102 1.38 1.994 1.523z" fill="#50E6FF"/><path d="M44.982 35.149c-.16 0-.312.008-.455.033a3.008 3.008 0 00-2.853-2.06 3 3 0 00-2.995 2.792 2.502 2.502 0 00-.674-.084 2.65 2.65 0 00-2.625 2.264 4.83 4.83 0 01.623-.354c.875-.412 2.002-.64 3.164-.64 1.161 0 2.289.228 3.164.64 1.11.522 1.792 1.321 1.91 2.255l.008.076v1.043H45a2.99 2.99 0 002.97-2.987c.008-1.64-1.338-2.978-2.987-2.978z" fill="#50E6FF"/><path d="M42.987 44.285H35.33v2.432c0 1.06 1.716 1.918 3.837 1.918 2.12 0 3.837-.858 3.837-1.918 0 0-.008-2.415-.017-2.432z" fill="#0078D7"/><path d="M42.996 43.855l.008 2.13c0 1.06-1.716 1.918-3.837 1.918-2.12 0-3.837-.859-3.837-1.919v-2.129h7.666z" fill="#50E6FF"/><path d="M42.987 41.66H35.33v2.432c0 1.06 1.716 1.918 3.837 1.918 2.12 0 3.837-.858 3.837-1.918 0 0-.008-2.415-.017-2.432z" fill="#0078D7"/><path d="M43.004 40.152H35.33v2.011c0 1.06 1.716 1.919 3.837 1.919 2.12 0 3.837-.859 3.837-1.919v-2.01z" fill="#50E6FF"/><path d="M39.167 42.196c2.12 0 3.837-.859 3.837-1.918 0-1.06-1.718-1.919-3.837-1.919-2.12 0-3.837.86-3.837 1.919 0 1.06 1.718 1.918 3.837 1.918z" fill="#0078D7"/><path d="M19.972 41.102l.16.017c.059.008 3.122 0 5.25 0v-.968c-.125-1-1.792-1.792-3.828-1.792-1.633 0-3.021.505-3.576 1.22.361.8 1.102 1.38 1.994 1.523z" fill="#50E6FF"/><path d="M27.369 35.149c-.16 0-.312.008-.455.033a3.009 3.009 0 00-2.852-2.06 3 3 0 00-2.996 2.792 2.502 2.502 0 00-.673-.084 2.65 2.65 0 00-2.626 2.264 4.83 4.83 0 01.623-.354c.875-.412 2.003-.64 3.164-.64s2.289.228 3.164.64c1.11.522 1.792 1.321 1.91 2.255l.009.076v1.052h.749a2.988 2.988 0 00-.017-5.974z" fill="#50E6FF"/><path d="M25.366 44.285h-7.658v2.432c0 1.06 1.717 1.918 3.837 1.918s3.838-.858 3.838-1.918c.008 0 0-2.415-.017-2.432z" fill="#0078D7"/><path d="M25.383 43.855l.008 2.13c0 1.06-1.716 1.918-3.837 1.918-2.12 0-3.837-.859-3.837-1.919v-2.129h7.666z" fill="#50E6FF"/><path d="M25.366 41.66h-7.658v2.432c0 1.06 1.717 1.918 3.837 1.918s3.838-.858 3.838-1.918c.008 0 0-2.415-.017-2.432z" fill="#0078D7"/><path d="M25.391 40.152h-7.674v2.011c0 1.06 1.716 1.919 3.837 1.919 2.12 0 3.837-.859 3.837-1.919v-2.01z" fill="#50E6FF"/><path d="M21.554 42.196c2.12 0 3.837-.859 3.837-1.918 0-1.06-1.718-1.919-3.837-1.919-2.12 0-3.837.86-3.837 1.919 0 1.06 1.718 1.918 3.837 1.918z" fill="#0078D7"/><path d="M24.593 25.784v-4.897H23.33v4.897H.07v5.2h1.263v-3.938H23.33v3.937h1.263v-3.937h22.131v3.937h1.263v-5.2H24.592zM30.432 5.566H17.733v10.097h12.699V5.566z" fill="#0078D4"/><path d="M29.102 6.887H19.055v7.454h10.047V6.887z" fill="#50E6FF"/><path d="M30.44 15.677V5.547H17.718v10.13h5.461v1.288h-5.444v1.337h12.698v-1.337h-5.41v-1.288h5.419zM19.056 6.885h10.047v7.454H19.055V6.885z" fill="#0078D4"/></svg>