<svg xmlns="http://www.w3.org/2000/svg" viewBox="0 0 49 49"><path d="M2.637 33.257v15.411H6.3v-15.41H2.637z" fill="#50E6FF"/><path d="M6.411 33.257v15.411h3.73v-15.41h-3.73zM5.148 3.228v17.65h2.51V3.229h-2.51zM.088 23.405v7.529h12.505v-7.529H.088z" fill="#0078D4"/><path d="M6.392.702L9.921 4.23H2.855L6.392.702z" fill="#0078D4"/><path d="M20.44 33.257v15.411h3.613v-15.41H20.44z" fill="#50E6FF"/><path d="M24.061 33.257v15.411h3.874v-15.41h-3.873z" fill="#0078D4"/><path d="M22.941 3.228v17.65h2.51V3.229h-2.51zM17.796 23.413v7.528h12.506v-7.528H17.796z" fill="#50E6FF"/><path d="M24.104.702l3.528 3.528h-7.065L24.104.702zM38.015 33.257v15.411h3.865v-15.41h-3.865z" fill="#50E6FF"/><path d="M41.828 33.257v15.411h3.688v-15.41h-3.688zM40.523 3.228v17.65h2.51V3.229h-2.51z" fill="#0078D4"/><path d="M40.523 7.437v9.028h2.51V7.437h-2.51z" fill="#50E6FF"/><path d="M35.465 23.413v7.528H47.97v-7.528H35.465z" fill="#0078D4"/><path d="M35.465 23.414v3.84H47.97v-3.84H35.465z" fill="#50E6FF"/><path d="M41.771.702L45.3 4.23h-7.066L41.771.702z" fill="#0078D4"/></svg>