<svg xmlns="http://www.w3.org/2000/svg" viewBox="0 0 49 49"><path d="M2.904 5.92A2.523 2.523 0 01.378 3.393 2.523 2.523 0 012.904.867a2.523 2.523 0 012.527 2.526A2.534 2.534 0 012.904 5.92zM12.589.867H7.536V5.92h5.053V.867zm7.156 0h-5.053V5.92h5.053V.867zm7.16 0h-5.053V5.92h5.053V.867zm7.157 0h-5.053V5.92h5.053V.867zm4.631 5.053a2.523 2.523 0 01-2.526-2.527A2.523 2.523 0 0138.693.867a2.523 2.523 0 012.527 2.526 2.534 2.534 0 01-2.527 2.527zm7.159 0a2.523 2.523 0 01-2.527-2.527A2.523 2.523 0 0145.851.867a2.523 2.523 0 012.527 2.526 2.534 2.534 0 01-2.526 2.527zM5.43 8.027H.379v5.053H5.43V8.027zm7.159 0H7.536v5.053h5.053V8.027zm7.156 0h-5.053v5.053h5.053V8.027z" fill="#0078D4"/><path d="M26.905 8.027h-5.053v5.053h5.053V8.027z" fill="#50E6FF"/><path d="M34.062 8.027h-5.053v5.053h5.053V8.027zm4.631 5.053a2.523 2.523 0 01-2.526-2.527 2.523 2.523 0 012.526-2.526 2.523 2.523 0 012.527 2.526 2.534 2.534 0 01-2.527 2.527zm9.685-5.053h-5.053v5.053h5.053V8.027zM5.43 15.183H.379v5.053H5.43v-5.053zm7.159 0H7.536v5.053h5.053v-5.053z" fill="#0078D4"/><path d="M19.745 15.183h-5.053v5.053h5.053v-5.053zm7.16 0h-5.053v5.053h5.053v-5.053zm7.157 0h-5.053v5.053h5.053v-5.053z" fill="#50E6FF"/><path d="M41.22 15.183h-5.053v5.053h5.053v-5.053zm7.158 0h-5.053v5.053h5.053v-5.053zM5.43 22.34H.379v5.052H5.43V22.34z" fill="#0078D4"/><path d="M12.589 22.34H7.536v5.052h5.053V22.34zm7.156 0h-5.053v5.052h5.053V22.34zm4.634 5.052a2.523 2.523 0 01-2.527-2.526 2.523 2.523 0 012.527-2.526 2.523 2.523 0 012.526 2.526 2.534 2.534 0 01-2.526 2.526zm9.683-5.052h-5.053v5.052h5.053V22.34zm7.158 0h-5.053v5.052h5.053V22.34z" fill="#50E6FF"/><path d="M48.378 22.34h-5.053v5.052h5.053V22.34zM5.43 29.496H.379v5.052H5.43v-5.052zm7.159 0H7.536v5.052h5.053v-5.052z" fill="#0078D4"/><path d="M17.219 34.548a2.523 2.523 0 01-2.527-2.526 2.523 2.523 0 012.527-2.526 2.523 2.523 0 012.526 2.526 2.534 2.534 0 01-2.526 2.526zm9.686-5.052h-5.053v5.052h5.053v-5.052zm7.157 0h-5.053v5.052h5.053v-5.052z" fill="#50E6FF"/><path d="M38.693 34.548a2.523 2.523 0 01-2.526-2.526 2.523 2.523 0 012.526-2.526 2.523 2.523 0 012.527 2.526 2.534 2.534 0 01-2.527 2.526zm9.685-5.052h-5.053v5.052h5.053v-5.052zM5.43 36.656H.379v5.053H5.43v-5.053zm7.159 0H7.536v5.053h5.053v-5.053zm7.156 0h-5.053v5.053h5.053v-5.053z" fill="#0078D4"/><path d="M24.379 41.709a2.523 2.523 0 01-2.527-2.527 2.523 2.523 0 012.527-2.526 2.523 2.523 0 012.526 2.526 2.534 2.534 0 01-2.526 2.527z" fill="#50E6FF"/><path d="M34.062 36.656h-5.053v5.053h5.053v-5.053zm7.158 0h-5.053v5.053h5.053v-5.053zm7.158 0h-5.053v5.053h5.053v-5.053zM5.43 43.816H.379v5.053H5.43v-5.053zm7.159 0H7.536v5.053h5.053v-5.053zm7.156 0h-5.053v5.053h5.053v-5.053zm7.16 0h-5.053v5.053h5.053v-5.053zm7.157 0h-5.053v5.053h5.053v-5.053zm4.631 5.053a2.523 2.523 0 01-2.526-2.527 2.523 2.523 0 012.526-2.526 2.523 2.523 0 012.527 2.526 2.534 2.534 0 01-2.527 2.527zm9.685-5.053h-5.053v5.053h5.053v-5.053z" fill="#0078D4"/></svg>