<svg xmlns="http://www.w3.org/2000/svg" viewBox="0 0 49 49"><path d="M2.904 5.92A2.523 2.523 0 01.378 3.393 2.523 2.523 0 012.904.867a2.523 2.523 0 012.527 2.526A2.534 2.534 0 012.904 5.92zM12.589.867H7.536V5.92h5.053V.867zM19.745.867h-5.053V5.92h5.053V.867zM26.905.867h-5.053V5.92h5.053V.867zM34.062.867h-5.053V5.92h5.053V.867zM38.693 5.92a2.523 2.523 0 01-2.526-2.527A2.523 2.523 0 0138.693.867a2.523 2.523 0 012.527 2.526 2.534 2.534 0 01-2.527 2.527zM45.852 5.92a2.523 2.523 0 01-2.527-2.527A2.523 2.523 0 0145.851.867a2.523 2.523 0 012.527 2.526 2.534 2.534 0 01-2.526 2.527zM5.43 8.027H.379v5.053H5.43V8.027zM12.589 8.027H7.536v5.053h5.053V8.027zM19.745 8.027h-5.053v5.053h5.053V8.027z" fill="#0078D4"/><path d="M26.905 8.027h-5.053v5.053h5.053V8.027z" fill="#50E6FF"/><path d="M34.062 8.027h-5.053v5.053h5.053V8.027zM38.693 13.08a2.523 2.523 0 01-2.526-2.527 2.523 2.523 0 012.526-2.526 2.523 2.523 0 012.527 2.526 2.534 2.534 0 01-2.527 2.527zM48.378 8.027h-5.053v5.053h5.053V8.027zM5.43 15.183H.379v5.053H5.43v-5.053zM12.589 15.183H7.536v5.053h5.053v-5.053z" fill="#0078D4"/><path d="M19.745 15.183h-5.053v5.053h5.053v-5.053zM26.905 15.183h-5.053v5.053h5.053v-5.053zM34.062 15.183h-5.053v5.053h5.053v-5.053z" fill="#50E6FF"/><path d="M41.22 15.183h-5.053v5.053h5.053v-5.053zM48.378 15.183h-5.053v5.053h5.053v-5.053zM5.43 22.34H.379v5.052H5.43V22.34z" fill="#0078D4"/><path d="M12.589 22.34H7.536v5.052h5.053V22.34zM19.745 22.34h-5.053v5.052h5.053V22.34zM24.379 27.392a2.523 2.523 0 01-2.527-2.526 2.523 2.523 0 012.527-2.526 2.523 2.523 0 012.526 2.526 2.534 2.534 0 01-2.526 2.526zM34.062 22.34h-5.053v5.052h5.053V22.34zM41.22 22.34h-5.053v5.052h5.053V22.34z" fill="#50E6FF"/><path d="M48.378 22.34h-5.053v5.052h5.053V22.34zM5.43 29.496H.379v5.052H5.43v-5.052zM12.589 29.496H7.536v5.052h5.053v-5.052z" fill="#0078D4"/><path d="M17.219 34.548a2.523 2.523 0 01-2.527-2.526 2.523 2.523 0 012.527-2.526 2.523 2.523 0 012.526 2.526 2.534 2.534 0 01-2.526 2.526zM26.905 29.496h-5.053v5.052h5.053v-5.052zM34.062 29.496h-5.053v5.052h5.053v-5.052z" fill="#50E6FF"/><path d="M38.693 34.548a2.523 2.523 0 01-2.526-2.526 2.523 2.523 0 012.526-2.526 2.523 2.523 0 012.527 2.526 2.534 2.534 0 01-2.527 2.526zM48.378 29.496h-5.053v5.052h5.053v-5.052zM5.43 36.656H.379v5.053H5.43v-5.053zM12.589 36.656H7.536v5.053h5.053v-5.053zM19.745 36.656h-5.053v5.053h5.053v-5.053z" fill="#0078D4"/><path d="M24.379 41.709a2.523 2.523 0 01-2.527-2.527 2.523 2.523 0 012.527-2.526 2.523 2.523 0 012.526 2.526 2.534 2.534 0 01-2.526 2.527z" fill="#50E6FF"/><path d="M34.062 36.656h-5.053v5.053h5.053v-5.053zM41.22 36.656h-5.053v5.053h5.053v-5.053zM48.378 36.656h-5.053v5.053h5.053v-5.053zM5.43 43.816H.379v5.053H5.43v-5.053zM12.589 43.816H7.536v5.053h5.053v-5.053zM19.745 43.816h-5.053v5.053h5.053v-5.053zM26.905 43.816h-5.053v5.053h5.053v-5.053zM34.062 43.816h-5.053v5.053h5.053v-5.053zM38.693 48.869a2.523 2.523 0 01-2.526-2.527 2.523 2.523 0 012.526-2.526 2.523 2.523 0 012.527 2.526 2.534 2.534 0 01-2.527 2.527zM48.378 43.816h-5.053v5.053h5.053v-5.053z" fill="#0078D4"/></svg>