<svg xmlns="http://www.w3.org/2000/svg" viewBox="0 0 147.851 125.685"><path fill="#7fba00" d="M147.851 98.912c0 14.788-33.1 26.773-73.925 26.773S0 113.7 0 98.912v-14.43h147.851z"/><path fill="#b8d432" d="M147.851 84.482c0 14.788-33.1 26.773-73.925 26.773S0 99.27 0 84.482s33.1-26.773 73.925-26.773 73.926 11.991 73.926 26.773"/><path fill="#7fba00" d="M97.62 82.941c0 3.933-10.61 7.118-23.7 7.118s-23.7-3.185-23.7-7.118 10.613-7.118 23.7-7.118 23.7 3.188 23.7 7.118"/><path fill="#fff" opacity=".25" d="M127.362 66.14c-10.356-3.924-23.962-6.71-39.262-7.786l-9.6 17.754a54.679 54.679 0 0112.2 1.958zM17.452 101.9c10.648 4.563 25.424 7.815 42.25 9l11.216-20.755a60.208 60.208 0 01-12.325-1.632z"/><path fill="#0072c6" d="M147.851 41.2c0 14.788-33.1 26.773-73.925 26.773S0 55.988 0 41.2V26.773h147.851z"/><path fill="#59b4d9" d="M147.851 26.773c0 14.788-33.1 26.773-73.925 26.773S0 41.558 0 26.773 33.1 0 73.925 0s73.925 11.985 73.925 26.773"/><path fill="#0072c6" d="M97.62 25.232c0 3.933-10.61 7.118-23.7 7.118s-23.7-3.185-23.7-7.118 10.613-7.118 23.7-7.118 23.7 3.185 23.7 7.118"/><path fill="#fff" opacity=".25" d="M127.362 8.283C117.006 4.359 103.4 1.573 88.1.5l-9.6 17.751a54.679 54.679 0 0112.2 1.958zM17.452 44.042c10.648 4.563 25.424 7.815 42.25 9l11.216-20.754a60.208 60.208 0 01-12.325-1.632z"/></svg>