<svg xmlns="http://www.w3.org/2000/svg" viewBox="0 0 48 48"><path d="M24.11 46.16L4.051 34.384l1.283-2.178 18.783 11.016L42.47 32.62l1.266 2.195L24.11 46.16z" fill="#0078D4"/><path d="M24.11 35.133L4.052 23.365l1.283-2.186 18.783 11.025L42.47 21.6l1.267 2.195L24.11 35.133z" fill="#0078D4"/><path d="M24.11 25.645L4.052 13.877l1.283-2.186 18.783 11.025L42.47 12.113l1.267 2.195L24.11 25.645z" fill="#0078D4"/><path d="M24.11 15.762L4.051 3.986 5.335 1.81l18.783 11.016L42.47 2.222l1.266 2.195L24.11 15.762z" fill="#0078D4"/><path d="M7.2 0H0v7.2h7.2V0z" fill="#50E6FF"/><path d="M27.596 0h-7.2v7.2h7.2V0zM48 0h-7.201v7.2h7.2V0z" fill="#0078D4"/><path d="M7.2 10.199H0v7.2h7.2v-7.2z" fill="#50E6FF"/><path d="M27.596 10.199h-7.2v7.2h7.2v-7.2z" fill="#0078D4"/><path d="M48 10.199h-7.201v7.2h7.2v-7.2z" fill="#50E6FF"/><path d="M7.2 20.402H0v7.2h7.2v-7.2z" fill="#0078D4"/><path d="M48 20.4h-7.201v7.2h7.2v-7.2z" fill="#50E6FF"/><path d="M7.2 30.6H0v7.2h7.2v-7.2zm20.396-20.401h-7.2v7.2h7.2v-7.2z" fill="#0078D4"/><path d="M48 30.6h-7.201v7.2h7.2v-7.2z" fill="#50E6FF"/><path d="M7.2 40.8H0V48h7.2v-7.2z" fill="#0078D4"/><path d="M27.596 20.4h-7.2v7.2h7.2v-7.2zM48 40.8h-7.201V48h7.2v-7.2z" fill="#50E6FF"/><path d="M27.596 20.402h-7.2v7.2h7.2v-7.2zm0 20.398h-7.2V48h7.2v-7.2zm0-10.2h-7.2v7.2h7.2v-7.2z" fill="#0078D4"/></svg>