<svg xmlns="http://www.w3.org/2000/svg" viewBox="0 0 49 49"><path fill="#fff" d="M3.362 18.09h30.905v22.413H3.362z"/><path d="M13.154 32.051l.009 4.28 5.33-5.187-5.347-4.91.008 3.968H2.176v1.85h10.978z" fill="#0078D4"/><path d="M41.602 13.248a8.094 8.094 0 00-8.096-8.096c-3.858 0-7.078 2.699-7.893 6.314a4.406 4.406 0 00-3.161-1.345 4.41 4.41 0 00-4.405 4.404c0 .034.008.076.008.11A5.868 5.868 0 0019.19 26.26h24.084a5.317 5.317 0 005.322-5.322 5.317 5.317 0 00-5.322-5.32c-.781 0-1.521.176-2.194.478a7.98 7.98 0 00.522-2.85z" fill="#50E6FF"/><path d="M33.397 17.156l-3.06 2.606h2.446V39.34H7.388l-3.06 2.615H33.38c1.01 0 2.035-.9 2.035-1.917V19.081c-.009-1.017-1.017-1.916-2.018-1.925z" fill="#0078D4"/><path d="M4.337 39.34V19.762h26l3.06-2.606H3.614c-.437 0-.833.177-1.144.446-.411.361-.68.9-.68 1.48v20.956c0 1.017.815 1.917 1.824 1.917h.706l3.06-2.614H4.337z" fill="#0078D4"/><path d="M.596 44.622h35.331v-2.724H.596v2.724z" fill="#50E6FF"/><path d="M18.947 18.569c0 .269-.21.48-.48.48a.484.484 0 01-.479-.48c0-.269.21-.48.48-.48.26 0 .479.22.479.48z" fill="#0078D4"/></svg>