<svg xmlns="http://www.w3.org/2000/svg" viewBox="0 0 49 49"><path d="M32.126 38.664a6.222 6.222 0 01-1.877-4.462 6.265 6.265 0 016.259-6.259c.49 0 .974.057 1.433.17V11.607L29.59 7.944l-2.119-6.83H4.08v45.983h22.899c0-2.537.99-4.913 2.779-6.71a9.637 9.637 0 012.368-1.723z" fill="#0078D4"/><path d="M37.933 11.576h-10.47V1.113l10.47 10.463z" fill="#50E6FF"/><path d="M28.992 47.113a7.479 7.479 0 017.483-7.483c4.14 0 7.483 3.35 7.483 7.483H28.992zm9.042-8.953a4.245 4.245 0 10-3.07-7.915 4.245 4.245 0 003.07 7.915z" fill="#0078D4"/><path d="M17.184 5.912l-4.623 4.64-1.385-1.386-.927.927 2.312 2.32 5.55-5.566-.927-.935zm-6.983 13.655h16.923v-3.802H10.201v3.802z" fill="#fff"/><path d="M10.201 25.268h16.923v-3.801H10.201v3.801zm0 5.526h16.923v-3.802H10.201v3.802zm0 5.63h16.923v-3.802H10.201v3.802zm0 5.825h9.4v-3.802h-9.4v3.802z" fill="#50E6FF"/></svg>