<svg xmlns="http://www.w3.org/2000/svg" viewBox="0 0 48 49"><path d="M41.634 47.985H6.333V.036H30.72l2.206 7.124 8.708 3.823v37.002z" fill="#0078D4"/><path d="M41.634 10.95H30.721V.036L41.633 10.95z" fill="#50E6FF"/><path d="M33.996 18.117c0-.8-.648-1.448-1.448-1.448H15.259a1.448 1.448 0 100 2.896h17.289c.8 0 1.448-.648 1.448-1.448z" fill="#fff"/><path d="M25.28 18.115a2.879 2.879 0 002.88 2.88 2.879 2.879 0 002.88-2.88 2.879 2.879 0 00-2.88-2.88 2.873 2.873 0 00-2.88 2.88z" fill="#50E6FF"/><path d="M33.996 26.648c0-.8-.648-1.448-1.448-1.448H15.259a1.448 1.448 0 100 2.896h17.289c.8 0 1.448-.648 1.448-1.448z" fill="#fff"/><path d="M16.699 26.638a2.879 2.879 0 002.88 2.88 2.879 2.879 0 002.88-2.88 2.879 2.879 0 00-2.88-2.88 2.879 2.879 0 00-2.88 2.88z" fill="#50E6FF"/><path d="M33.996 35.343c0-.8-.648-1.448-1.448-1.448H15.259a1.448 1.448 0 100 2.897h17.289a1.46 1.46 0 001.448-1.449z" fill="#fff"/><path d="M22.425 35.337a2.879 2.879 0 002.88 2.88 2.879 2.879 0 002.88-2.88 2.879 2.879 0 00-2.88-2.88 2.884 2.884 0 00-2.88 2.88z" fill="#50E6FF"/></svg>