<svg xmlns="http://www.w3.org/2000/svg" viewBox="0 0 49 49"><path d="M25.221 18.58V.925H0v27.85h20.597V18.58h4.624z" fill="#0078D7"/><path d="M20.117 22.251a31.411 31.411 0 01-5.055-2.67 13.39 13.39 0 001.382-1.567c2.08-2.805 3.2-6.529 3.622-8.34.009-.042.034-1.264.034-1.264V6.507l-6.167.016V3.592h-2.872V6.54l-5.754.017V9.43l11.718-.05c-.463 1.785-1.415 4.792-2.948 6.856a10.89 10.89 0 01-1.374 1.5 11.396 11.396 0 01-1.373-1.5c-1.272-1.71-2.367-4.077-2.88-5.787-.034-.101-.093-.303-.093-.303l-3.058.042c.598 2.266 1.895 5.459 3.647 7.817.413.548.876 1.07 1.382 1.567a31.07 31.07 0 01-5.055 2.679l1.079 2.755c.193-.076 3.352-1.331 6.335-3.471 2.99 2.14 6.15 3.395 6.335 3.47l1.095-2.754z" fill="#50E6FF"/><path d="M48.008 21.049H22.711v27.875h25.297V21.049z" fill="#0078D7"/><path d="M43.998 43.92H40.78l-1.592-4.507H32.23l-1.533 4.507h-3.21l6.63-17.7h3.31l6.571 17.7zm-5.585-6.9l-2.46-7.059c-.075-.227-.151-.598-.235-1.112h-.051c-.076.472-.16.842-.244 1.112l-2.435 7.06h5.425z" fill="#50E6FF"/><path d="M43.695 13.568c-3.42-5.804-9.35-9.94-16.3-10.918v2.898c5.711.918 10.597 4.297 13.554 9.014l-2.94 1.061 5.273 2.469 2.469-5.274-2.056.75zM7.37 35.26l2.393-.868-5.265-2.468-2.469 5.273 2.603-.943c3.32 5.779 9.123 9.949 15.964 11.052V44.4c-5.602-1.045-10.362-4.448-13.226-9.14z" fill="#0078D7"/></svg>