<svg xmlns="http://www.w3.org/2000/svg" viewBox="0 0 48 48"><path fill="#0072c6" d="M43.211 6.789l-4.106-4.105L37.316 1H7v40h37.895V8.579l-1.684-1.79z"/><path fill="#fff" opacity=".8" style="isolation:isolate" d="M36.474 3.105H9.105v35.79h33.684V9.421h-6.315V3.105z"/><path fill="#0072c6" d="M38.211 13.789l-4.106-4.105L32.316 8H2v40h37.895V15.579l-1.684-1.79z"/><path fill="#fff" opacity=".8" style="isolation:isolate" d="M31.474 10.105H4.105v35.79h33.684V16.421h-6.315v-6.316z"/><path d="M17.724 37.75q-3.659-.042-3.659-3.2v-3.1q0-2.083-1.6-2.188v-1.54q1.6-.1 1.6-2.23v-3.02q0-3.2 3.659-3.241v1.631q-1.635.042-1.635 2.01v2.968a2.437 2.437 0 01-2.045 2.619v.032a2.4 2.4 0 012.045 2.6v2.936a2.7 2.7 0 00.365 1.6 1.548 1.548 0 001.27.5zm12.52-8.492q-1.594.105-1.594 2.188v3.1q0 3.157-3.639 3.2v-1.617a1.561 1.561 0 001.27-.5 2.647 2.647 0 00.375-1.6v-2.94a2.4 2.4 0 012.025-2.6v-.032a2.432 2.432 0 01-2.025-2.619v-2.967q0-1.967-1.645-2.01V19.23q3.639.042 3.639 3.241v3.02q0 2.125 1.594 2.23z" fill="#0072c6"/></svg>