<svg xmlns="http://www.w3.org/2000/svg" viewBox="0 0 49 49"><path d="M.02 43.41h48V6.45h-48v36.96z" fill="#0078D4"/><path d="M.02 10.444h47.983V5.44H.02v5.003z" fill="#50E6FF"/><path d="M7.497 9.262a1.221 1.221 0 100-2.442 1.221 1.221 0 000 2.442zM3.708 9.262a1.221 1.221 0 100-2.442 1.221 1.221 0 000 2.442zM11.371 9.262a1.221 1.221 0 100-2.442 1.221 1.221 0 000 2.442z" fill="#0078D4"/><path d="M16.407 30.865l6.871 3.941v-7.899l-6.871-3.958v7.916zM23.97 18.172l-6.797 3.924 6.796 3.924 6.796-3.924-6.796-3.924zM24.65 26.908v7.899l6.873-3.941V22.94l-6.872 3.967z" fill="#50E6FF"/></svg>