<svg xmlns="http://www.w3.org/2000/svg" viewBox="0 0 49 49"><path fill="#fff" d="M3.343 17.504h30.905v22.413H3.343z"/><path d="M13.135 31.466l.008 4.278 5.33-5.186-5.346-4.91.008 3.968H2.156v1.85h10.979z" fill="#0078D4"/><path d="M41.582 12.662a8.094 8.094 0 00-8.096-8.096c-3.858 0-7.078 2.699-7.893 6.314a4.406 4.406 0 00-3.16-1.345 4.41 4.41 0 00-4.406 4.404c0 .034.009.076.009.11a5.868 5.868 0 001.135 11.626h24.084a5.317 5.317 0 005.32-5.322 5.317 5.317 0 00-5.32-5.32 5.33 5.33 0 00-2.194.478 7.978 7.978 0 00.52-2.85z" fill="#50E6FF"/><path d="M33.377 16.57l-3.06 2.606h2.447v19.579H7.368l-3.06 2.614h29.053c1.008 0 2.034-.9 2.034-1.917V18.495c-.009-1.017-1.017-1.916-2.018-1.925z" fill="#0078D4"/><path d="M4.317 38.755V19.176h26l3.06-2.606H3.595c-.437 0-.832.177-1.143.446-.412.361-.681.9-.681 1.48v20.956c0 1.017.815 1.917 1.824 1.917H4.3l3.06-2.614H4.317z" fill="#0078D4"/><path d="M.576 44.036h35.332v-2.724H.576v2.724z" fill="#50E6FF"/><path d="M18.927 17.983c0 .27-.21.48-.48.48a.484.484 0 01-.479-.48c0-.269.21-.48.48-.48.26 0 .479.22.479.48z" fill="#0078D4"/></svg>