<svg xmlns="http://www.w3.org/2000/svg" viewBox="0 0 48 49"><path d="M28.754 41.867a12.253 12.253 0 01-8.73-3.618 12.267 12.267 0 01-3.618-8.73c0-3.295 1.284-6.396 3.618-8.73a12.267 12.267 0 018.73-3.618c2.212 0 4.345.582 6.21 1.664V1.924H13.16L.997 14.046l.049 33.878h33.918v-7.616l-.064-.064a12.33 12.33 0 01-6.146 1.623z" fill="#0078D7"/><path d="M37.282 36.05a10.697 10.697 0 002.212-6.532 10.72 10.72 0 00-4.538-8.763 10.683 10.683 0 00-6.21-1.97c-5.928 0-10.733 4.805-10.733 10.732 0 5.928 4.805 10.733 10.732 10.733 2.31 0 4.45-.735 6.21-1.978.05-.033.098-.073.146-.105l9.618 9.618 2.149-2.14-9.586-9.594zm-2.318-2.042a7.658 7.658 0 01-6.21 3.165 7.65 7.65 0 01-7.648-7.656 7.651 7.651 0 017.656-7.655 7.617 7.617 0 016.194 3.165 7.603 7.603 0 011.461 4.498 7.512 7.512 0 01-1.453 4.483z" fill="#0078D7"/><path d="M32.468 25.699h-7.583v1.51h7.583v-1.51z" fill="#0078D4"/><path d="M32.468 28.753h-7.583v1.51h7.583v-1.51zm0 3.067h-7.583v1.51h7.583v-1.51zM.997 14.046L13.16 1.924v12.122H.997z" fill="#50E6FF"/></svg>