<svg xmlns="http://www.w3.org/2000/svg" viewBox="0 0 32.5 40"><path d="M32.5 0v40H5a4.859 4.859 0 01-1.943-.391 5.038 5.038 0 01-2.666-2.666A4.859 4.859 0 010 35V5a4.4 4.4 0 01.42-1.865A5.542 5.542 0 013.125.42 4.371 4.371 0 015 0zm-30 30.664A4.994 4.994 0 015 30h25V2.5H5a2 2 0 00-.9.225A3.064 3.064 0 002.725 4.1 2 2 0 002.5 5zM30 32.5H5a2.429 2.429 0 00-.977.2A2.546 2.546 0 002.7 34.023a2.539 2.539 0 000 1.953A2.546 2.546 0 004.023 37.3a2.429 2.429 0 00.977.2h25zM7.5 7.5H25V15H7.5zm2.5 5h12.5V10H10z"/></svg>