<svg xmlns="http://www.w3.org/2000/svg" viewBox="0 0 48 49"><path d="M0 43.821h48V6.861H0v36.96z" fill="#0078D4"/><path d="M0 10.856h47.983V5.854H0v5.002z" fill="#50E6FF"/><path d="M7.478 9.675a1.221 1.221 0 100-2.443 1.221 1.221 0 000 2.443zm-3.79 0a1.221 1.221 0 100-2.443 1.221 1.221 0 000 2.443zm7.663 0a1.221 1.221 0 100-2.443 1.221 1.221 0 000 2.443z" fill="#fff"/><path d="M16.387 31.277l6.872 3.941V27.32l-6.872-3.958v7.916zm7.563-12.693l-6.796 3.924 6.796 3.924 6.795-3.924-6.795-3.924zm.681 8.736v7.899l6.872-3.941v-7.924L24.63 27.32z" fill="#50E6FF"/></svg>