<svg xmlns="http://www.w3.org/2000/svg" viewBox="0 0 48 48"><circle cx="24" cy="24" r="21.75" fill="none" stroke="#0078d4" stroke-width="4.5"/><path d="M26.676 27.939q0-1.212-1.788-2v3.788q1.788-.288 1.788-1.788m-3.612-6.226V17.75q-1.738.313-1.738 1.813 0 1.313 1.738 2.15M30 27.764a4.431 4.431 0 01-1.3 3.336 6.364 6.364 0 01-3.807 1.55v2.713h-1.83v-2.636a10.265 10.265 0 01-4.726-1.15v-3.463a7.41 7.41 0 002.157 1.069 10.063 10.063 0 002.569.594v-4.551a10.382 10.382 0 01-3.913-2.244A4.478 4.478 0 0118 19.776a4.492 4.492 0 011.413-3.357 5.919 5.919 0 013.65-1.594V12.5h1.825v2.275a9.268 9.268 0 013.938.85V19a9.615 9.615 0 00-3.938-1.3v4.737a10.163 10.163 0 013.938 2.251A4.321 4.321 0 0130 27.764" fill="#50e6ff"/></svg>