<svg xmlns="http://www.w3.org/2000/svg" viewBox="0 0 116.6 45.5"><path d="M0 0h6.3c3.8 0 6.6 2.4 6.6 7.2 0 4.2-2.2 7.3-6.6 7.3H0V0zm3.2 11.8H6c1.8 0 3.6-1.1 3.6-4.3 0-2.9-1-4.8-4.2-4.8H3.2v9.1zm16.1-8.1c3.1-.1 5.6 2.4 5.6 5.4.1 3.1-2.4 5.6-5.4 5.6-3.1.1-5.6-2.4-5.6-5.4v-.1c-.1-3.3 2.1-5.5 5.4-5.5zm0 8.9c2 0 2.6-1.7 2.6-3.3 0-1.7-.6-3.4-2.6-3.4-1.9 0-2.5 1.7-2.5 3.4-.1 1.6.5 3.3 2.5 3.3zm16.5 1.9h-2.7V13H33c-.7 1.1-1.9 1.8-3.2 1.7-3.1 0-3.8-1.7-3.8-4.3V4h2.9v5.9c0 1.7.5 2.6 1.8 2.6 1.6 0 2.2-.9 2.2-3V4h2.9v10.5zM37.5 0h2.9v5.3c.8-1 2-1.6 3.3-1.6 2.1 0 4.3 1.7 4.3 5.5 0 3.9-2.3 5.5-4.3 5.5-1.4.2-2.7-.5-3.4-1.6v1.3h-2.7L37.5 0zm5.2 5.9c-1.7 0-2.5 1.6-2.5 3.4 0 1.7.8 3.3 2.5 3.3s2.5-1.6 2.5-3.3c0-1.8-.8-3.4-2.5-3.4zM49.4 0h2.9v14.5h-2.9V0zm6.9 9.9c.1 1.8 1 2.7 2.6 2.7 1 .1 1.9-.5 2.3-1.4h2.5c-.6 2.2-2.6 3.7-4.9 3.5-3.3 0-5.4-2.3-5.4-5.5-.2-2.9 2.1-5.4 5-5.5h.4c3.6 0 5.3 3 5.1 6.2h-7.6zM61 8.1c-.3-1.5-.9-2.2-2.3-2.2-1.3-.1-2.3.9-2.4 2.1v.1H61zm4-.4h6.1v2.5H65V7.7z"/><path fill="#ED2024" d="M74.3 2.7H70V0h11.9v2.7h-4.3v11.8h-3.2l-.1-11.8z"/><path fill="#ED2024" d="M80.2 7.2c.2-2.7 2.6-3.5 4.9-3.5 2.1 0 4.6.5 4.6 3v5.5c-.1.8.1 1.6.4 2.3h-2.9c-.1-.3-.2-.7-.2-1-1 .9-2.2 1.4-3.5 1.3-2 0-3.6-1-3.6-3.1 0-2.4 1.8-2.9 3.6-3.2 1.8-.3 3.4-.2 3.4-1.4S86 5.7 85 5.7c-.9-.1-1.7.5-1.9 1.4v.2l-2.9-.1zm6.7 2.2c-.7.4-1.6.6-2.4.6-.9.2-1.7.5-1.7 1.5 0 1.1.8 1.3 1.8 1.3 1.2.1 2.2-.7 2.3-1.9V9.4zM91.7 0h2.9v7.8L98.2 4h3.4l-4 3.9 4.4 6.6h-3.5l-2.9-4.7-1.1 1.1v3.6h-2.9L91.7 0z"/><path fill="#ED2024" d="M104.2 9.9c.1 1.8 1 2.7 2.6 2.7 1 .1 1.9-.5 2.3-1.4h2.5c-.6 2.2-2.6 3.7-4.9 3.5-3.3 0-5.4-2.3-5.4-5.5-.2-2.9 2.1-5.4 5-5.5h.4c3.6 0 5.3 3 5.1 6.2h-7.6zm4.7-1.8c-.3-1.5-.9-2.2-2.3-2.2-1.3-.1-2.3.9-2.4 2.1v.1h4.7z"/><path d="M35.8 21.3h8.3c7.5 0 11.6 3.7 11.6 11.5 0 8.1-3.6 12.7-11.6 12.7h-8.3V21.3zM39 42.8h5.4c2.2 0 8.1-.6 8.1-9.5 0-5.8-2.1-9.3-8.1-9.3H39v18.8zm19.7-21.5h11.4c4.6 0 7.4 2.5 7.4 6.4 0 2.9-1.3 5.3-4.2 6.1v.1c2.8.5 3.4 2.6 3.6 5 .2 2.4.1 5 1.4 6.7h-3.6c-.9-1-.4-3.6-.9-6-.3-2.4-.9-4.4-4-4.4H62v10.4h-3.2l-.1-24.3zm10 11.2c3 0 5.6-.8 5.6-4.3 0-2.4-1.3-4.1-4.3-4.1h-8v8.5l6.7-.1zm11.4-11.8h-.9v-.3h2.2v.3h-.9v2.4h-.4v-2.4zm1.5-.3h.5l.9 2.3.9-2.3h.5v2.7H84v-2.3l-.9 2.3h-.3l-.9-2.3v2.3h-.3v-2.7zm32-20.4c1.7 0 3 1.4 3 3 0 1.7-1.4 3-3 3s-3-1.4-3-3c-.1-1.6 1.3-3 3-3-.1 0-.1 0 0 0zm0 5.6c1.4 0 2.6-1.1 2.6-2.5S115.1.5 113.7.5s-2.6 1.1-2.6 2.5v.1c-.1 1.4 1 2.5 2.4 2.6 0-.1 0-.1.1-.1zm-1.2-4.3h1.4c.5-.1 1.1.2 1.2.7v.3c0 .5-.3.9-.8 1h-.1l1 1.5h-.6l-1-1.5h-.6v1.5h-.5V1.3zm.5 1.5h.6c.5 0 .9 0 .9-.6 0-.5-.4-.5-.8-.5h-.7v1.1z"/></svg>