<svg xmlns="http://www.w3.org/2000/svg" viewBox="0 0 113 104"><path d="M72.69 81.91H42.22c3.66 12.93-1.26 14.79-22.81 14.79v6.77h73.28v-6.78c-21.55 0-23.67-1.85-20-14.79" fill="#7A7A7A"/><path d="M105.32 0H6.09A6.34 6.34 0 000 6.38v69.2a6.3 6.3 0 006.09 6.33h99.23c3.37 0 6.77-3 6.77-6.33V6.38c0-3.38-3.41-6.38-6.77-6.38" fill="#A0A1A2"/><path opacity=".2" d="M105.39.01H6.09A6.34 6.34 0 000 6.39v69.2a6.31 6.31 0 006.09 6.33h2.36L105.39.01z" fill="#fff"/><path d="M103.35 8.63v64.66H8.5V8.63h94.85z" fill="#060606"/><path d="M51.02 27.87a3.71 3.71 0 100-7.42 3.71 3.71 0 000 7.42zm.888-13.206a1.81 1.81 0 10-2.003-3.015 1.81 1.81 0 002.003 3.015z" fill="#9BC349"/><path d="M65.84 53.34l-5.32-20.22c1-.63 1.61-1.27 1.48-1.79-.27-1.06-3.38-1.19-7-.3-3.62.89-6.25 2.49-6 3.55.13.53 1 .83 2.23.88l5.28 20.07a17.15 17.15 0 00-8.63 17.75h3.56a13.86 13.86 0 017.87-15.49s-3.44-10.86-3.25-11.72c.27-1.18 2.32-.84 3.17-1.61 1-.91 1.94-2.32 1.18-5.71 2 7.59 3.59 13.83 4.6 17.8a13.87 13.87 0 0113.68 16.74h3.56a17.21 17.21 0 00-16.38-19.95h-.03z" fill="#fff"/><path d="M78.95 70.43a13.87 13.87 0 00-13.87-13.87c-1-4-2.61-10.21-4.6-17.8.76 3.39-.16 4.79-1.18 5.71-.85.77-2.9.43-3.17 1.61-.2.85 3.25 11.72 3.25 11.72a13.86 13.86 0 00-7.87 15.49h27.18c.185-.942.273-1.9.26-2.86zM56.454 39.373a1.81 1.81 0 10-2.004-3.015 1.81 1.81 0 002.004 3.015z" fill="#9BC349"/><path d="M8.5 73.29h.13V8.63l86.71-.13h.01L8.5 8.63v64.66z" fill="#59B4D9"/><path d="M92.69 96.69H19.4v6.77h73.29v-6.77z" fill="#A0A1A2"/></svg>