<svg xmlns="http://www.w3.org/2000/svg" viewBox="0 0 145 145"><path d="M136.856 64.226c-3.634 0-6.661 2.574-7.393 5.98H15.641c-.732-3.406-3.76-5.98-7.393-5.98A7.549 7.549 0 00.703 71.77a7.549 7.549 0 007.545 7.545 7.525 7.525 0 007.216-5.35h114.15c.959 3.104 3.836 5.35 7.217 5.35a7.549 7.549 0 007.544-7.544c.051-4.164-3.356-7.545-7.519-7.545z" fill="#0078D4"/><path d="M121.59 15.253a7.55 7.55 0 00-7.545 7.545c0 1.463.404 2.8 1.111 3.961l-44.03 44.03 2.674 2.675 44.081-44.08a7.404 7.404 0 003.709.983 7.549 7.549 0 007.544-7.544c.025-4.189-3.381-7.57-7.544-7.57zM68.905 73.01l-41.608 41.607a7.562 7.562 0 00-3.886-1.085 7.549 7.549 0 00-7.544 7.545 7.549 7.549 0 007.544 7.544 7.549 7.549 0 007.544-7.544c0-1.363-.378-2.65-1.009-3.76L71.58 75.684l-2.674-2.675z" fill="#50E6FF"/><path d="M121.666 113.684a7.33 7.33 0 00-3.709.984l-88.06-88.06a7.491 7.491 0 001.034-3.81 7.549 7.549 0 00-7.544-7.545 7.549 7.549 0 00-7.545 7.545 7.549 7.549 0 007.545 7.544 7.448 7.448 0 003.86-1.06l88.01 88.01a7.55 7.55 0 00-1.11 3.962 7.548 7.548 0 007.544 7.544 7.549 7.549 0 007.545-7.544c-.026-4.164-3.407-7.57-7.57-7.57z" fill="#50E6FF"/><path d="M74.557 129.051V15.178a7.555 7.555 0 005.602-7.292A7.549 7.549 0 0072.614.34a7.549 7.549 0 00-7.544 7.545c0 3.532 2.447 6.51 5.728 7.342v113.797a7.56 7.56 0 00-5.728 7.343 7.549 7.549 0 007.544 7.544 7.549 7.549 0 007.545-7.544 7.561 7.561 0 00-5.602-7.317z" fill="#0078D4"/><path d="M87.603 71.723c0 8.352-6.762 15.114-15.114 15.114s-15.114-6.762-15.114-15.114 6.762-15.114 15.114-15.114 15.114 6.762 15.114 15.114z" fill="#50E6FF"/></svg>