<svg xmlns="http://www.w3.org/2000/svg" viewBox="0 0 30 30"><path fill="#59B4D9" d="M18.4 18.5h3.4v3.4h-3.4zm-5 0h3.4v3.4h-3.4zm5-5h3.4v3.4h-3.4zm-5 0h3.4v3.4h-3.4zm0-5h3.4v3.4h-3.4zm5 15h3.4v3.4h-3.4zm5-10h3.4v3.4h-3.4zm0-5h3.4v3.4h-3.4zm-5 0h3.4v3.4h-3.4zm5 10h3.4v3.4h-3.4zm-20 0h3.4v3.4H3.4zm0 5h3.4v3.4H3.4zm10 0h3.4v3.4h-3.4zm-10-10h3.4v3.4H3.4z"/><path fill="#59B4D9" d="M29.9 1.5c-.1-.2-.3-.4-.4-.6s-.2-.4-.5-.5-.4-.2-.6-.2V0H1.6c-.2 0-.5.1-.6.2S.6.5.5.7s-.2.4-.4.7-.1.3-.1.6v26.4c0 .2 0 .4.1.6.1.1.3.4.4.5s.3.2.5.4.4.1.6.1h26.8c.3 0 .4 0 .6-.1s.4-.2.5-.4.3-.4.4-.5c.1-.2.1-.4.1-.6V2.1c0-.2 0-.4-.1-.6zm-1.5 26.8H1.8V6.7h26.6v21.6z"/><path fill="#59B4D9" d="M8.4 23.5h3.4v3.4H8.4zm0-15h3.4v3.4H8.4zm0 5h3.4v3.4H8.4zm0 5h3.4v3.4H8.4z"/><path fill="#5E5E5E" d="M18.4 13.5h3.4v3.4h-3.4zm-10 5h3.4v3.4H8.4z"/></svg>