<svg xmlns="http://www.w3.org/2000/svg" viewBox="0 0 48 48"><path d="M1 47h46V5.309H1v41.69z" fill="#0078D4"/><path d="M1 5.89h46V1H1v4.89zM11.79 34.773H6.972v4.818h4.818v-4.818zM19.077 34.773H14.26v4.818h4.818v-4.818zM26.332 34.773h-4.818v4.818h4.818v-4.818z" fill="#50E6FF"/><path d="M33.58 34.773H28.76v4.818h4.818v-4.818z" fill="#fff"/><path d="M40.867 34.773h-4.818v4.818h4.818v-4.818zM11.79 27.527H6.972v4.818h4.818v-4.818z" fill="#50E6FF"/><path d="M19.077 27.527H14.26v4.818h4.818v-4.818z" fill="#fff"/><path d="M26.332 27.527h-4.818v4.818h4.818v-4.818zM33.58 27.527H28.76v4.818h4.818v-4.818zM40.867 27.527h-4.818v4.818h4.818v-4.818zM11.79 20.277H6.972v4.818h4.818v-4.818zM19.077 20.277H14.26v4.818h4.818v-4.818z" fill="#50E6FF"/><path d="M26.332 20.277h-4.818v4.818h4.818v-4.818z" fill="#fff"/><path d="M33.58 20.277H28.76v4.818h4.818v-4.818zM40.867 20.277h-4.818v4.818h4.818v-4.818z" fill="#50E6FF"/><path d="M11.79 13.074H6.972v4.818h4.818v-4.818z" fill="#fff"/><path d="M19.077 13.074H14.26v4.818h4.818v-4.818zM26.332 13.074h-4.818v4.818h4.818v-4.818zM33.58 13.074H28.76v4.818h4.818v-4.818zM40.867 13.074h-4.818v4.818h4.818v-4.818z" fill="#50E6FF"/></svg>