<svg xmlns="http://www.w3.org/2000/svg" viewBox="0 0 50 50"><path d="M5.592 39.392l16.945-19.047a1.404 1.404 0 00-.116-1.977l-3.1-2.758a1.404 1.404 0 00-1.977.115L.4 34.772a1.404 1.404 0 00.115 1.977l3.1 2.758c.576.512 1.466.46 1.978-.115" fill="#505050"/><path d="M12.656 20.953l-.368.392c-.82.985-.001 2.573 1.45 3.865 1.452 1.291 3.19 1.642 3.83.832l.368-.392" fill="#2E2E2E"/><path d="M12.035 13.838c0 6.37 5.164 11.534 11.534 11.534 6.37 0 11.535-5.164 11.535-11.534 0-6.37-5.164-11.534-11.535-11.534-6.37 0-11.534 5.164-11.534 11.534" fill="#A9EFFF"/><path d="M23.57 23.027a9.07 9.07 0 110-18.142 9.07 9.07 0 010 18.142m0-23.006C15.872.02 9.633 6.26 9.633 13.956c0 7.696 6.239 13.936 13.935 13.936 7.697 0 13.936-6.24 13.936-13.936S31.265.021 23.569.021" fill="#505050"/></svg>