<svg xmlns="http://www.w3.org/2000/svg" viewBox="0 0 48 48"><path d="M23.899 2.596a7.49 7.49 0 015.332 2.207l1.77-1.77a10.005 10.005 0 00-7.102-2.94c-2.57 0-5.139.977-7.102 2.94l1.77 1.77a7.527 7.527 0 015.332-2.207zm0 5.131c.649 0 1.255.253 1.71.708l1.77-1.77a4.911 4.911 0 00-3.48-1.44c-1.255 0-2.519.48-3.48 1.44l1.77 1.77a2.367 2.367 0 011.71-.708zm23.949 19.871h-9.595v20.284h9.595V27.598z" fill="#0078D4"/><path d="M.177 27.598v20.124h14.396v-5.73h7.43v5.73h16.25V27.598H.177zM14.413 11.03H8.997l-.312 4.18 6.04.152-.312-4.331z" fill="#50E6FF"/><path d="M8.694 15.21l-.615 12.388h7.278l-.615-12.227-6.048-.16z" fill="#0078D4"/><path d="M7.758 33.48H5.282v2.478h2.476v-2.477zm6.352 0h-2.476v2.478h2.476v-2.477zm19.19 0h-2.477v2.478H33.3v-2.477zm-6.343 0H24.48v2.478h2.477v-2.477zm-6.352 0h-2.477v2.478h2.477v-2.477z" fill="#0078D7"/><path d="M26.797 11.03h-5.569l-.151 4.18 6.04.152-.32-4.331z" fill="#50E6FF"/><path d="M21.069 15.21l-.775 12.388h7.43l-.616-12.227-6.04-.16z" fill="#0078D4"/><path d="M39.18 11.03h-5.568l-.312 4.18 6.04.152-.16-4.331z" fill="#50E6FF"/><path d="M33.3 15.21l-.615 12.388h7.43l-.775-12.227-6.04-.16z" fill="#0078D4"/></svg>