<svg xmlns="http://www.w3.org/2000/svg" viewBox="0 0 48 48"><path d="M10.125 37.875H.034v10.091h10.091V37.875zM22.739 37.875H12.648v10.091h10.09V37.875zM35.352 37.875h-10.09v10.091h10.09V37.875zM47.966 37.875H37.875v10.091h10.091V37.875zM10.125 25.262H.034v10.09h10.091v-10.09zM22.739 25.262H12.648v10.09h10.09v-10.09zM35.352 25.262h-10.09v10.09h10.09v-10.09zM47.966 25.262H37.875v10.09h10.091v-10.09zM22.739 7.602H12.648v10.09h10.09V7.603zM10.125 5.078H.034v10.091h10.091V5.078zM35.352 10.125h-10.09v10.091h10.09V10.125zM47.966 12.648H37.875V22.74h10.091V12.648z" fill="#50E6FF"/></svg>