<svg xmlns="http://www.w3.org/2000/svg" viewBox="0 0 40 50"><path fill-rule="evenodd" clip-rule="evenodd" d="M1 48.084h27.582V10.193H1v37.891z" fill="#fff"/><path fill-rule="evenodd" clip-rule="evenodd" d="M0 49.084h29.582V9.193H0v39.891zm2-2h25.583V11.193H2v35.891z" fill="#0078D4"/><path fill-rule="evenodd" clip-rule="evenodd" d="M6.015 43.905h27.582V6.014H6.015v37.891z" fill="#fff"/><path fill-rule="evenodd" clip-rule="evenodd" d="M7.015 42.905h25.582V7.014H7.015v35.891zm-2 2h29.582V5.014H5.015v39.891z" fill="#0078D4"/><path fill-rule="evenodd" clip-rule="evenodd" d="M10.751 38.89h27.582V.999H10.751V38.89z" fill="#fff"/><path fill-rule="evenodd" clip-rule="evenodd" d="M9.751 39.891h29.582V0H9.751v39.891zm2-2.001h25.582V2H11.751v35.89z" fill="#0078D4"/><path fill-rule="evenodd" clip-rule="evenodd" d="M16.044 9.243h17.83v-2h-17.83v2zm0 4.514h17.83v-2h-17.83v2zm0 4.513h17.83v-2h-17.83v2zm0 4.514h17.83v-2h-17.83v2zm0 4.513h17.83v-2h-17.83v2zm0 4.514h17.83v-2h-17.83v2z" fill="#0078D4"/></svg>