<svg xmlns="http://www.w3.org/2000/svg" viewBox="0 0 49 49"><path d="M36.394 37.794H24.61v1.264h11.784v-1.264z" fill="#50E6FF"/><path d="M35.956 35.916l2.5 2.492-2.5 2.501v-4.993zm-10.714 1.019H23.98v-24.32h12.414v1.263H25.242v23.057zm18.963-23.578h-1.263v26.947h1.263V13.357z" fill="#50E6FF"/><path d="M36.732 25.171H26.548v1.264h10.184V25.17zm-19.526 0H6.516v1.264h10.69V25.17z" fill="#50E6FF"/><path d="M43.565 18.157a5.037 5.037 0 01-5.033-5.036 5.037 5.037 0 015.033-5.036 5.037 5.037 0 015.034 5.036 5.037 5.037 0 01-5.034 5.036z" fill="#0078D4"/><path d="M48.599 20.767H38.532V30.84H48.6V20.767z" fill="#50E6FF"/><path d="M43.565 43.36a5.037 5.037 0 01-5.033-5.036 5.037 5.037 0 015.033-5.035 5.037 5.037 0 015.034 5.035 5.037 5.037 0 01-5.034 5.036z" fill="#0078D4"/><path d="M5.632 30.839a5.037 5.037 0 01-5.033-5.036 5.037 5.037 0 015.033-5.036 5.037 5.037 0 015.033 5.036 5.037 5.037 0 01-5.033 5.036zm18.938 0a5.037 5.037 0 01-5.034-5.036 5.037 5.037 0 015.033-5.036 5.037 5.037 0 015.033 5.036 5.037 5.037 0 01-5.033 5.036z" fill="#50E6FF"/><path d="M29.602 8.06H19.536v10.072h10.066V8.06zm0 25.254H19.536v10.072h10.066V33.314z" fill="#0078D4"/><path d="M36.075 23.369l2.491 2.492-2.49 2.501V23.37zm-.119-12.631l2.5 2.492-2.5 2.502v-4.994zM16.49 23.369l2.49 2.492-2.49 2.501V23.37z" fill="#50E6FF"/></svg>