<svg xmlns="http://www.w3.org/2000/svg" viewBox="0 0 49 49"><path d="M47.338 21.328a5.052 5.052 0 00-6.605-.43L28.882 9.021a5.052 5.052 0 00-.481-6.631 5.058 5.058 0 00-7.145.042 5.047 5.047 0 00-.312 6.757L5.137 25.05 25.22 44.704 40.876 29.04a5.046 5.046 0 006.512-.574 5.041 5.041 0 00-.05-7.137zM25.204 42.933L6.934 25.04l14.938-14.982a4.99 4.99 0 002.42.937V41.7h1.266V10.986a5.068 5.068 0 002.446-1.054l11.826 11.86a5.049 5.049 0 00.11 6.403L25.204 42.933z" fill="#0078D4"/><path d="M28.401 40.264a5.059 5.059 0 01.043 7.145 5.058 5.058 0 01-7.145.043 5.059 5.059 0 01-.042-7.146c1.965-1.982 5.162-2.007 7.144-.042zM9.506 28.473a5.058 5.058 0 01-7.144.042 5.059 5.059 0 01-.043-7.145 5.058 5.058 0 017.145-.043 5.044 5.044 0 01.042 7.146z" fill="#50E6FF"/></svg>