<svg xmlns="http://www.w3.org/2000/svg" viewBox="0 0 49 49"><path d="M45.46 22.207c-1.212 0-2.221.858-2.465 1.993H5.055a2.516 2.516 0 00-4.98.521 2.516 2.516 0 002.515 2.516 2.508 2.508 0 002.405-1.783h38.05a2.524 2.524 0 002.406 1.783 2.516 2.516 0 002.515-2.515c.017-1.388-1.119-2.515-2.507-2.515z" fill="#0078D4"/><path d="M40.37 5.883a2.516 2.516 0 00-2.515 2.515c0 .487.135.933.37 1.32L23.548 24.395l.892.891 14.693-14.693c.362.21.791.328 1.237.328a2.516 2.516 0 002.515-2.515 2.513 2.513 0 00-2.515-2.523zM22.808 25.133L8.94 39.003a2.52 2.52 0 00-1.295-.363 2.516 2.516 0 00-2.515 2.515 2.516 2.516 0 002.515 2.515 2.516 2.516 0 002.514-2.515c0-.454-.126-.883-.336-1.253L23.7 26.024l-.892-.891z" fill="#50E6FF"/><path d="M40.395 38.693c-.455 0-.875.118-1.237.328L9.805 9.668a2.516 2.516 0 00-2.17-3.785A2.516 2.516 0 005.12 8.398a2.516 2.516 0 003.802 2.161l29.336 29.337c-.235.387-.37.832-.37 1.32a2.516 2.516 0 002.515 2.515 2.516 2.516 0 002.515-2.515 2.536 2.536 0 00-2.523-2.523z" fill="#50E6FF"/><path d="M24.692 43.817V5.86a2.516 2.516 0 00-.648-4.946A2.516 2.516 0 0021.53 3.43c0 1.177.816 2.17 1.909 2.447V43.81a2.52 2.52 0 00.606 4.962 2.52 2.52 0 00.648-4.954z" fill="#0078D4"/><path d="M29.04 24.706a5.036 5.036 0 01-5.037 5.038 5.036 5.036 0 01-5.038-5.038 5.036 5.036 0 015.038-5.038 5.036 5.036 0 015.038 5.038z" fill="#50E6FF"/></svg>