<svg xmlns="http://www.w3.org/2000/svg" viewBox="0 0 48 49"><path d="M36.513 10.033c-2.703-.718-4.494-.068-6.386.633-1.588.583-3.395 1.25-6.233 1.25-2.838 0-4.646-.667-6.233-1.25-1.892-.7-3.675-1.36-6.386-.633-5.279 1.419-7.627 6.52-9.688 14.3C-.71 32.965-.186 39.163 2.94 40.507c3.353 1.444 6.79-2.432 9.299-5.253l.6-.685c2.137-2.466 6.453-3.59 11.056-3.59 5.515 0 8.92 1.124 11.056 3.59l.6.684c2.137 2.408 4.94 5.567 7.796 5.567.498 0 .996-.093 1.503-.313 3.125-1.343 3.649-7.542 1.36-16.174-2.07-7.78-4.41-12.89-9.697-14.3z" fill="#0078D4"/><path d="M17.669 22.06a3.85 3.85 0 01-3.852 3.852 3.85 3.85 0 01-3.851-3.851 3.85 3.85 0 013.851-3.852 3.855 3.855 0 013.852 3.852z" fill="#50E6FF"/><path d="M35.33 19.526a1.31 1.31 0 01-2.618 0c0-.726.591-1.31 1.31-1.31.717 0 1.309.592 1.309 1.31zm-2.533 4.984a1.31 1.31 0 01-2.618 0c0-.726.59-1.309 1.309-1.309.718 0 1.309.591 1.309 1.31z" fill="#fff"/></svg>