<svg xmlns="http://www.w3.org/2000/svg" viewBox="0 0 49 49"><path d="M45.417 24.487l-.017-.033.46-.46L35.6 13.728 45.81 3.503l-.469-.468-.26-.519-13.8 6.886L24.483 2.6l-.452.443-.402-.401-6.813 6.793-13.86-6.927-.284.56-.435.435 10.236 10.258L2.397 23.818l-.067.033.008.026-.092.091.285.285.083.159-.41.41 10.278 10.274L2.279 45.32l.561.561.201.402 13.751-6.878L23.59 46.2l.443-.444.444.444 6.754-6.769 13.735 6.886.167-.326.645-.636-10.228-10.25 10.236-10.249-.368-.368zM24.66 22.906v-8.132l5.415 2.71-5.415 5.422zm6.604-4.836l11.416 5.714H25.555l5.709-5.714zm-5.86-4.334l5.625-2.803 2.796 2.795-2.813 2.81-5.607-2.802zm-2 1.004v8.208l-5.465-5.48 5.465-2.728zm-6.394 1.79l-2.754-2.76 2.813-2.803 5.532 2.769-5.591 2.794zm5.465 7.254h-17.2l11.484-5.73 5.716 5.73zm.05 1.256l-5.733 5.747L5.334 25.04h17.192zm.88.895V34.1l-5.433-2.728 5.432-5.438zm-.804 9.161l-5.557 2.778-2.78-2.778 2.78-2.786 5.557 2.786zm2.059-1.029v-8.09l5.39 5.396-5.39 2.694zm6.327-1.757l2.796 2.795-2.796 2.794-5.59-2.803 5.59-2.786zm-5.482-7.27h17.217l-11.484 5.739-5.733-5.74zm16.748-2.87l-10.06-5.037 2.519-2.518 7.54 7.555zm-.1-16.784l-7.45 7.455-2.494-2.493 9.944-4.962zm-17.493 7.32V4.559l5.432 5.438-5.432 2.71zm-1.256-8.065v8.091l-5.406-2.702 5.406-5.389zM5.87 5.37l10.01 5.004-2.51 2.501-7.5-7.505zm7.49 9.287l2.462 2.46-9.868 4.928 7.407-7.388zM5.87 26.713l9.985 5.003-2.486 2.493-7.499-7.496zm.067 16.717l7.44-7.447 2.486 2.485-9.926 4.962zm17.468-7.33v8.15l-5.433-5.43 5.432-2.72zm1.263 8.141v-8.107l5.39 2.702-5.39 5.405zm17.493-.736l-9.994-5.012 2.495-2.502 7.499 7.514zm-9.994-11.789l9.96-4.978-7.465 7.48-2.495-2.502z" fill="#50E6FF"/><path d="M45.324 5.53a2.494 2.494 0 10.001-4.988 2.494 2.494 0 000 4.988zM24.049 5.53a2.494 2.494 0 100-4.988 2.494 2.494 0 000 4.988zM2.622 5.53a2.494 2.494 0 100-4.988 2.494 2.494 0 000 4.988zM45.308 26.948a2.494 2.494 0 100-4.988 2.494 2.494 0 000 4.988zM24.049 26.948a2.494 2.494 0 100-4.988 2.494 2.494 0 000 4.988zM2.622 26.948a2.494 2.494 0 100-4.988 2.494 2.494 0 000 4.988zM45.308 48.201a2.494 2.494 0 100-4.987 2.494 2.494 0 000 4.987zM24.049 48.201a2.494 2.494 0 100-4.987 2.494 2.494 0 000 4.987zM2.622 48.201a2.494 2.494 0 100-4.987 2.494 2.494 0 000 4.987z" fill="#0078D4"/></svg>