<svg xmlns="http://www.w3.org/2000/svg" viewBox="0 0 48 48"><path d="M47.057 24.362l-.455.152-.26-.741.429-.337-.27-.413.447-.295-.034-.27-.143-.285.176-.085.27-.74-.084-.523c.017-.025.033-.034.042-.05.05-.06.076-.11.067-.186a.229.229 0 01.034-.168c.034-.05.05-.067.059-.219a.475.475 0 01.05-.202l-.362-.236-.42-.135.05-.244-.43-.32-.118.118-.193.009-.16.185-.135.446-.202.067.16.346-.244.025-.581-.143-.076.455.034.555-.371.05-.312.22-.572.1-.093-.117-.1-.126-.397-.009-.328-.539-.312-.092-.134-.093h-.556l-.497-.328-.025-.48.21-.455-.202-.143.059-.21-.16-.018-.177.169-.21.008-.53-.37h-.304l-.783-.287-.48.118-.261-.151-.455.21-.194-.286-.598.27c0-.051.034-.11.093-.186.034-.034.067-.076.11-.126.244-.253.235-.37.143-.69a6.105 6.105 0 00-.22-.624c-.109-.27-.092-.413-.008-.648.076-.236.295-.775.396-.977.068-.135.126-.261.21-.388.043-.059.085-.117.144-.168a.86.86 0 00.252-.488c.034-.177.11-.295.261-.455l.304-.034.168-.286-.219-.202a2.032 2.032 0 000-.32c-.017-.177-.017-.228.034-.295a.282.282 0 00.05-.135l-.783-.26-.143-.33c-.025-.016-.042-.033-.067-.05-.009-.008-.017-.025-.034-.033l-.008-.009c-.009-.008-.017-.008-.017-.017 0 0-.009 0-.009-.008-.008 0-.017 0-.017-.008h-.008c-.008 0-.025 0-.034.008-.033.008-.075.042-.143.084-.126.084-.219.126-.37.202-.135.068-.236.026-.312-.092-.084-.118-.185-.194-.295-.211-.11-.025-.11-.059-.092-.11.017-.05.008-.075-.093-.151-.093-.067-.27-.202-.387-.278-.118-.076-.144-.152-.11-.27.034-.109.026-.151-.143-.269a13.046 13.046 0 00-.876-.564 15.19 15.19 0 00-.918-.446 23.757 23.757 0 01-.05-.026l-.236-.11-.118-.125c-.11.008-.168.025-.252 0l-.312-.135-.682-.126-.312.075-.758.43-.32.042-.32-.067c.009-.017.06-.017.135 0 .025.008.042.008.068.008l.008-.034-.219-.362-.118-.034.017-.185.202-.017-.05-.16h-.228l-.337-.202-.092-.294-.354.277v.21l.328.077-.1.387c-.093-.017-.17-.067-.304-.135a.91.91 0 00-.37-.067l.117-.396-.227-.067-.042-.135.118-.227.185-.06-.286-.243-.194.059-.354-.573-.16.067.076.354-.16.152-.168-.051-.034-.556-.572-.025.092.455-.143-.135-.69.202c-.017.025-.026.042-.051.067a1.82 1.82 0 01-.328.38l-.026.15-.059.228-.168.118a1.97 1.97 0 01-.135.177l.16.219-.16.152.076.117.547.16v.228l.7-.135-.102-.185.438-.143.22-.068.21.169c0 .059.033.1.084.134.185.11-.11.438-.11.152 0-.21-.252-.067-.126.244.11.261.059.38-.11.53l-.193-.067.084-.235-.26-.143-.355-.135-.134.202-.203.025-.26.168.244.438c-.042.017-.093.034-.152.06-.177.075-.278.1-.354.092-.058-.008-.1-.034-.151-.059-.127-.067-.177-.05-.261.034-.084.084-.169.067-.354.05a.5.5 0 01-.37-.151c-.127-.093-.21-.202-.203-.303.009-.101-.025-.127-.109-.152a1.45 1.45 0 00-.396-.059c-.067.042-.143.067-.194.05-.025-.008-.042-.025-.058-.058-.05-.11-.118-.135-.253.008-.16.168-.27.244-.413.312-.067.033-.134.059-.219.092-.202.076-.252.076-.294.194-.043.118-.093.21-.228.177-.134-.034-.193 0-.303.05-.168.085-.21.093-.438.034a.837.837 0 00-.454.008c-.034.009-.06.026-.093.034-.27.135-.489.017-.505-.253-.017-.193-.16-.336-.396-.27-.152.043-.152.068-.303.043-.152-.025-.177-.008-.22.185-.041.194-.193.27-.404.32-.21.05-.395.093-.58.16l-.051.017c-.168.127-.286.16-.396.093a.896.896 0 01-.21-.202.496.496 0 00-.144-.135l.489-.194-.009-.42-.336-.01a.828.828 0 01-.27.304l-.328-.185-.404.379-.573.395.303.21-.253.127.127.228-.362.26-.438-.26-.11.26.337.144-.126.143-.27.303-.387.152-.463-.11-.48.034-.421.236-.127-.32-.32.084-.328-.067.219-.649.059-.135-.37.034-.32-.177-.582.202-.48-.227-.387.177.092.623-.547.278-.042.404-.227.009-.085.286-.219.092-.067.396.253-.042.345.017.37-.067.43-.118.32.067.059.413-.084.118-.346.05-.025.354c-.017.008-.033.025-.05.042-.06.05-.135.067-.236.084-.101.009-.177.05-.295.05-.118.01-.126.034-.092.102.033.067.033.151.025.294-.009.144-.009.169.034.245.042.067.05.092-.034.143-.27.151-.573.455-.649.539-.033.034-.075.076-.092.118a.254.254 0 01-.076.126c-.042.042-.093.067-.168.118-.076.05-.068.076-.043.126.026.034.017.034.034.076.009.034-.017.067-.034.084-.058.06-.143.11-.235.194-.093.092-.21.219-.346.26a2.68 2.68 0 00-.387.17c-.11.058-.135.126-.101.21.017.05-.008.093-.05.118a.444.444 0 01-.127.042c-.118.017-.16.042-.219.152-.05.092-.084.117-.16.176l.312.253-.236.219-.194.008-.27.186-.125.328-.27.177-.16-.042-.926.379-.093-.143-.16.109-.286.413-.27.16.346.598-.034.555-.354.615.05.16.237.177-.068.295-.236.227-.345.093-.126.277-.607.337-.538.27-.346.43-1.33 1.203.446.455a.322.322 0 01-.076.076c-.05.05-.1.11-.177.185-.059.06-.126.143-.185.202l-.185.514-.253.236.11.337-.27.37.388.11.758.614-.489.775-.059.295-.202.202.227.472-.202.227-.16-.152-.539.186-.303.084-.126.168-.185-.025-.177.303.345.194-.126.236c-.076.059-.118.185-.202.37a.416.416 0 01-.118.16l.025.11.396-.244.396.126.143-.093.033-.143.43-.008.05.143.354.025.64-.387-.067-.152.497-.413.117.043.514-.287.177-.396-.152-.202-.26.253-.329-.472.177-.185-.118-.261-.21-.135.1-.185.11-.21.118-.22.876-.648.917-.151.994-.607 1.684.06 1.415.403-.168.497.033.185-.345.236-.05.152.168.32.312.26.252.355.16.168v.387l-.185.068-.194.26-.219.439.026.396-.144.202.085.42.176.077h.22l.656.134-.134.27-.034.42-.16.363.21.126.43-.362.185.261.135.21.26.514.152.068.194.252-.151.169.143.21.202.017-.06.219.11.261.194.278.143.312.169.202.05.21h.202l.236-.26.177-.026.219.21.168.034.076-.202.286-.286.21.025.11.059.38-.505.286.168.286-.042.362.261.185-.185.186-.05.395-.371.186-.017.017-.169.134-.11.21-.083.22.084.151-.11v-.286l.16-.076h.152l.084.194.236.067.295-.008.27-.084.218.244.312.135-.026.235.085.144h.219l.1-.186.169-.016.396.336.177-.151.496.118.135-.093-.093-.219.127-.514.253-.311.168-.067.699.025.236-.27.067-.345.143-.135-.093-.37.144-.455.74-.151.11-.329.388-.202-.076-.244.177-.303-.144-.22-.185-.471-.278-.286-.286-.236.632-.598.168.152.53-.236.203-.455.311-.168.076-.194.27-.067.286-.312-.093-.236-.143-.084.025-.21.312-.093.379-.354.168-.05.649-.202.134.244-.033.42.092.178-.067 1.179-.303.438.27.446-.102.32.261.076.009.177.202.05.286.16.185.042.725 1.103.134.329.362-.076.581.32.11.067.126-.21.169-.127.067.245.514.168.135-.126.454.328-.034.244-.294.514-.253.126-.1.413c.041-.008.083-.017.125-.017.068 0 .152.017.312.093.152.076.219.194.286.294.068.093.118.135.21.152l.085-.017.11-.008.05.11-.034.286.085.143.16.059.016.059.034.092.21.598-.294.329v.21l.471-.21.573.353.21-.042.22-.716.379-.496-.354-.312-.337-.11-.118-.437-.21-.194.353-.303-.025-.093-.067-.185-.169-.253.135-.278.564-.27.152-.302-.152-.489.472-.26.252-.312.135-.152.37-.21.051-.354.202-.236v-.177l.287-.008.033-.489.261-.471.186-.421-.034-.404-.219-.236.008-.741-.311-.295-.017-.185.16-.025.118-.127.042-.59.337-.16.522-.05.034.194.218.286.27.101.227-.497.278-.151.017.32-.017.404-.042.598.101.253-.017.412.37.169.245.522.286.412.11-.05.32.151.185.009.101.11h.22l.454-.228.194.143.193-.042.135-.312-.11-.16.093-.227.16-.177.32.244.64-.404.37-.067.33-.278.218.177.27-.118.134.227.303.177-.1.185v.202l.185.186-.042.404.404.084.27.152.024.252-.126.27.295.168.126-.168.54.017.353-.447-.025-.177-.152-.1-.042-.27-.244-.21-.228-.312-.042-.27.185-.176.009-.27.168-.135.152-.017.042-.404-.337-.26-.463.21-.438-.463.008-.186-.042-.176-.025-.438.076-.278-.067-.287.235-.244.253-.354.059-.488.312.067.547-.328.059.025c.042-.008.1 0 .185.05.025.018.05.026.068.043l.075-.253.152.009.202.37-.143.22-.034.218.169.118.168-.017.152.127.042.176.513.06.11-.093h.219l.32.117.135-.143.404.278.176-.177.135-.438.042-.454.085-.093-.573-.463zM28.682 9.221c-.1.025-.16.042-.244.017l-.059-.345.404-.06.084.354c-.059.009-.126.017-.185.034zm3.42 25.962l-.127-.05-.06-.017.102-.329.067.026.05.042.035.11-.068.218z" fill="#0078D7"/><path d="M29.196 17.186a3.882 3.882 0 100-7.764 3.882 3.882 0 000 7.764z" fill="#50E6FF"/><path d="M29.196 16.2a2.897 2.897 0 100-5.794 2.897 2.897 0 000 5.794z" fill="#0078D7"/><path d="M29.196 15.022a1.718 1.718 0 100-3.436 1.718 1.718 0 000 3.436zM4.009 25.887a3.878 3.878 0 00-3.883 3.882A3.878 3.878 0 004.01 33.65a3.878 3.878 0 003.882-3.882 3.889 3.889 0 00-3.882-3.882zm0 6.779a2.897 2.897 0 110-5.794 2.897 2.897 0 010 5.794z" fill="#50E6FF"/><path d="M4.008 31.479a1.718 1.718 0 100-3.436 1.718 1.718 0 000 3.436z" fill="#50E6FF"/></svg>