<svg xmlns="http://www.w3.org/2000/svg" viewBox="0 0 72 72"><path d="M69.002 33.493l-24.3-24.4c-1.4-1.4-3.6-1.4-5 0l-.8.8 23.5 23.5c1.4 1.4 1.4 3.6 0 5l-23.5 23.6.8.8c1.4 1.4 3.6 1.4 5 0l24.4-24.4c1.3-1.3 1.3-3.5-.1-4.9z" fill="#50E6FF"/><path d="M56.203 33.493l-24.3-24.4c-1.4-1.4-3.6-1.4-5 0l-5.1 5.1 6.4 6.4c.4-.1.8-.2 1.3-.2 2.3 0 4.2 1.9 4.2 4.2 0 .5-.1.9-.2 1.3l6.2 6.2c.4-.2.9-.2 1.4-.2 2.3 0 4.2 1.9 4.2 4.2 0 2.3-1.9 4.2-4.2 4.2-2.3 0-4.2-1.9-4.2-4.2 0-.6.1-1.2.4-1.7l-5.8-5.8v15.4c1.3.7 2.3 2.1 2.3 3.8 0 2.3-1.9 4.2-4.2 4.2-2.3 0-4.2-1.9-4.2-4.2 0-1.8 1.1-3.3 2.6-3.9v-15.3c-1.5-.6-2.6-2.2-2.6-3.9 0-.6.1-1.2.4-1.8l-6.2-6.2-17.1 16.8c-1.4 1.4-1.4 3.6 0 5l24.4 24.4c1.4 1.4 3.6 1.4 5 0l24.4-24.4c1.3-1.4 1.3-3.6-.1-5z" fill="#0078D4"/></svg>