<svg xmlns="http://www.w3.org/2000/svg" viewBox="0 0 48 49"><path d="M34.808 11.085v-.49H30.85v.49h3.958zm-17.721 0v-.49h-3.958v.49h3.958zm1.843-4.936l.346-.347-2.799-2.799-.346.347 2.798 2.799zm4.794-2.191h.49V0h-.49v3.958zm4.937 1.845l.347.347 2.799-2.8-.347-.346-2.799 2.8zm.459 5.123a5.206 5.206 0 10-10.398.35h10.387c.007-.116.012-.232.012-.35z" fill="#50E6FF"/><path d="M45 12.556H3v29.54h42v-29.54z" fill="#0078D7"/><path d="M10.635 23.845H5.98v6.998h4.655v-6.998zm0 8.168H5.98v6.998h4.655v-6.998zm0-16.32H5.98v6.998h4.655v-6.998zm5.806 0h-4.655v6.998h4.655v-6.998zm0 8.152h-4.655v6.998h4.655v-6.998zm0 8.168h-4.655v6.998h4.655v-6.998zm19.671-16.32h-4.655v6.998h4.655v-6.998zm0 8.152h-4.655v6.998h4.655v-6.998zm0 8.168h-4.655v6.998h4.655v-6.998zm5.806-16.32h-4.655v6.998h4.655v-6.998zm0 8.152h-4.655v6.998h4.655v-6.998zm0 8.168h-4.655v6.998h4.655v-6.998z" fill="#50E6FF"/><path d="M30.141 44.61h-12.32v2.442h12.32v-2.441z" fill="#0078D7"/><path d="M25.215 46.526v-6.763h-2.469v6.763h2.469z" fill="#0078D7"/><path d="M23.398 15.685h-4.656v6.998h4.656v-6.998zm0 8.152h-4.656v6.999h4.656v-6.999zm0 8.168h-4.656v6.998h4.656v-6.998zm5.805-16.32h-4.656v6.998h4.656v-6.998zm0 8.152h-4.656v6.999h4.656v-6.999zm0 8.168h-4.656v6.998h4.656v-6.998z" fill="#50E6FF"/></svg>