<svg xmlns="http://www.w3.org/2000/svg" viewBox="0 0 48 48"><path d="M40.968 7.031l-1.785 1.786a21.48 21.48 0 014.606 6.829A21.304 21.304 0 0145.474 24a21.3 21.3 0 01-1.685 8.353 21.305 21.305 0 01-4.606 6.83l1.785 1.785A23.902 23.902 0 0048 24a23.902 23.902 0 00-7.032-16.97zM25.516 10.72c-.287-.396-.598-.615-.91-.615a.792.792 0 00-.354.093c-.016.008-.033.025-.05.034-.042.034-.093.059-.135.092-.017.009-.025.026-.042.034-1.204 1.027-2.156 5.17-2.434 10.493a3.024 3.024 0 012.08.892c.556.556.893 1.314.893 2.165a3.058 3.058 0 01-2.981 3.056c.261 5.424 1.221 9.66 2.442 10.703.05.043.101.085.16.118a.79.79 0 00.421.127c.32 0 .623-.22.91-.615.825-1.145 1.507-3.823 1.878-7.293.193-1.81.303-3.84.303-5.987 0-2.147-.11-4.168-.303-5.987-.371-3.487-1.045-6.165-1.878-7.31z" fill="#50E6FF"/><path d="M26.652 10.315a1.05 1.05 0 01.118-.085l-.294.093.126.025c.017-.008.034-.025.05-.033zm.186-.115c-.025.008-.042.025-.068.033l.017-.008.05-.026zm-.051.03l-.017.009c-.042.025-.084.05-.118.084.05-.034.093-.067.135-.093zm-.311 27.447l.219.067c-.043-.025-.085-.059-.127-.084-.034.009-.059.009-.092.017zM2.467 30.316c.009.009.026 0 .034 0-.017.009-.025.009-.034 0zm-.194-.007c.06.008.127.016.194.016v-.008c-.067 0-.126-.008-.194-.008z" fill="#fff"/><path d="M21.591 26.949a3.005 3.005 0 001.98-.792 3.045 3.045 0 001.002-2.265c0-.842-.346-1.609-.893-2.165a3.023 3.023 0 00-2.08-.892c.278-5.322 1.23-9.465 2.434-10.493.017-.008.025-.025.042-.033a.15.15 0 00-.05.033 46.963 46.963 0 01-14.333 6.19 48.092 48.092 0 01-7.057 1.162 1.034 1.034 0 00-.16-.017c-.11 0-.21.017-.32.05C.935 18.14 0 20.793 0 24.01c0 3.326 1.002 6.054 2.274 6.299.067.008.126.008.193.016h.034c1.339.118 2.67.287 3.975.506 1.095.185 2.172.412 3.233.673.11.026.22.06.329.085v11.36h5.053v-9.777a47.012 47.012 0 018.884 4.488c.042.025.084.06.126.084l.076.026c-.05-.034-.11-.068-.16-.118-1.204-1.036-2.173-5.28-2.425-10.703z" fill="#0078D4"/><path d="M37.895 24a16.34 16.34 0 00-3.621-10.281l-1.794 1.793a13.843 13.843 0 012.888 8.489 13.81 13.81 0 01-2.88 8.48l1.794 1.794A16.36 16.36 0 0037.895 24z" fill="#50E6FF"/></svg>