<svg xmlns="http://www.w3.org/2000/svg" viewBox="0 0 48 49"><path d="M34.808 11.085v-.49H30.85v.49h3.958zM17.087 11.085v-.49h-3.958v.49h3.958zM18.93 6.149l.346-.347-2.799-2.799-.346.347 2.798 2.799zM23.724 3.958h.49V0h-.49v3.958zM28.661 5.803l.347.347 2.799-2.8-.347-.346-2.799 2.8zM29.12 10.926a5.206 5.206 0 10-10.398.35h10.387c.007-.116.012-.232.012-.35z" fill="#50E6FF"/><path d="M45 12.556H3v29.54h42v-29.54z" fill="#0078D7"/><path d="M10.635 23.845H5.98v6.998h4.655v-6.998zM10.635 32.013H5.98v6.998h4.655v-6.998zM10.635 15.693H5.98v6.998h4.655v-6.998zM16.441 15.693h-4.655v6.998h4.655v-6.998zM16.441 23.845h-4.655v6.998h4.655v-6.998zM16.441 32.013h-4.655v6.998h4.655v-6.998zM36.112 15.693h-4.655v6.998h4.655v-6.998zM36.112 23.845h-4.655v6.998h4.655v-6.998zM36.112 32.013h-4.655v6.998h4.655v-6.998zM41.918 15.693h-4.655v6.998h4.655v-6.998zM41.918 23.845h-4.655v6.998h4.655v-6.998zM41.918 32.013h-4.655v6.998h4.655v-6.998z" fill="#50E6FF"/><path d="M30.141 44.61h-12.32v2.442h12.32v-2.441z" fill="#0078D7"/><path d="M25.215 46.526v-6.763h-2.469v6.763h2.469z" fill="#0078D7"/><path d="M23.398 15.685h-4.656v6.998h4.656v-6.998zM23.398 23.837h-4.656v6.999h4.656v-6.999zM23.398 32.005h-4.656v6.998h4.656v-6.998zM29.203 15.685h-4.656v6.998h4.656v-6.998zM29.203 23.837h-4.656v6.999h4.656v-6.999zM29.203 32.005h-4.656v6.998h4.656v-6.998z" fill="#50E6FF"/></svg>