<svg xmlns="http://www.w3.org/2000/svg" viewBox="0 0 97 96"><path fill-rule="evenodd" clip-rule="evenodd" d="M74.287 17.166c-5.468-1.46-9.098-.129-12.927 1.284-3.22 1.186-6.87 2.536-12.607 2.536-5.741 0-9.394-1.35-12.616-2.537-3.825-1.412-7.436-2.75-12.918-1.283C12.53 20.032 7.792 30.366 3.617 46.11-1.025 63.577.025 76.116 6.356 78.838c6.783 2.921 13.736-4.919 18.813-10.639l1.208-1.383c4.327-4.988 13.05-7.27 22.376-7.27 11.164 0 18.041 2.278 22.369 7.27l1.211 1.383c4.316 4.87 9.994 11.267 15.777 11.267a7.58 7.58 0 003.034-.628c6.325-2.718 7.379-15.257 2.745-32.726-4.182-15.745-8.918-26.08-19.602-28.946z" fill="#0078D4"/><path fill-rule="evenodd" clip-rule="evenodd" d="M36.75 40.499a9 9 0 11-18.002 0 9 9 0 0118.001 0" fill="#50E6FF"/><path fill-rule="evenodd" clip-rule="evenodd" d="M78.758 36.007a4.5 4.5 0 11-9.002-.002 4.5 4.5 0 019.002.002m-9.009 8.992a4.5 4.5 0 11-9 0 4.5 4.5 0 019 0" fill="#fff"/></svg>