<svg xmlns="http://www.w3.org/2000/svg" viewBox="0 0 48 48"><path d="M41.025 48h-3.72v-2.525h3.72c.572 0 .757-.193.816-.252.513-.53.471-1.986.437-2.861-.008-.219-.008-.42-.008-.606 0-1.506-.059-10.376-.059-10.46v-.008c0-2.861 1.085-5.386 3.08-7.262a9.495 9.495 0 01-1.607-2.13c-.648-1.16-1.422-3.096-1.422-5.738V6.203c0-1.136.008-2.853-.556-3.417-.059-.059-.219-.219-.69-.219h-3.719V.043h3.72c1.009 0 1.842.32 2.481.96 1.305 1.304 1.296 3.466 1.288 5.208v9.947c0 2.095.597 3.61 1.093 4.502.547.976 1.254 1.758 2.104 2.322L48 25.078c-1.49 1.018-3.273 2.92-3.273 6.201 0 .236.059 8.98.059 10.477 0 .151.008.337.008.53.042 1.355.101 3.4-1.153 4.696-.64.673-1.523 1.018-2.616 1.018zm-30.272 0H7.034c-1.01 0-1.842-.32-2.482-.96-1.304-1.304-1.296-3.466-1.287-5.208v-9.947c0-2.095-.598-3.61-1.094-4.502-.547-.976-1.254-1.758-2.103-2.322L.05 22.965c1.489-1.018 3.273-2.92 3.273-6.201 0-.236-.06-8.98-.06-10.477 0-.152-.008-.337-.008-.53-.042-1.355-.109-3.4 1.145-4.696C5.057.388 5.94.043 7.026.043h3.719v2.524h-3.71c-.573 0-.758.194-.817.253-.513.53-.471 1.986-.437 2.861.008.219.008.42.008.606 0 1.506.059 10.376.059 10.46v.008c0 2.861-1.085 5.386-3.08 7.262a9.496 9.496 0 011.607 2.13c.648 1.16 1.422 3.096 1.422 5.738v9.955c0 1.136-.008 2.853.556 3.417.059.059.218.218.69.218h3.719V48h-.009z" fill="#50E6FF"/><path d="M40.478 25.702v-3.467h-3.584a12.898 12.898 0 00-2.55-6.151l2.533-2.533-2.449-2.449-2.54 2.525a12.928 12.928 0 00-6.151-2.55V7.492H22.27v3.585a12.894 12.894 0 00-6.15 2.55l-2.533-2.533-2.448 2.449 2.532 2.533a12.933 12.933 0 00-2.549 6.15H7.529v3.468h3.585a12.898 12.898 0 002.549 6.151l-2.533 2.533 2.449 2.449 2.532-2.533a12.93 12.93 0 006.15 2.55v3.584h3.467v-3.567a12.895 12.895 0 006.15-2.55l2.533 2.533 2.449-2.45-2.533-2.532a12.933 12.933 0 002.55-6.151h3.6v-.009zm-16.474 6.219c-4.384 0-7.952-3.568-7.952-7.952 0-4.385 3.568-7.952 7.952-7.952 4.383 0 7.95 3.567 7.95 7.952 0 4.384-3.567 7.952-7.95 7.952z" fill="#0078D4"/></svg>