<svg xmlns="http://www.w3.org/2000/svg" viewBox="0 0 49 49"><path d="M.02 43.869H48.01V6.984H.02V43.87z" fill="#0078D4"/><path d="M.02 10.975h47.974V5.973H.02v5.002z" fill="#50E6FF"/><path d="M7.49 9.798a1.222 1.222 0 10-.003-2.444 1.222 1.222 0 00.002 2.444zM3.7 9.798a1.222 1.222 0 10-.002-2.444A1.222 1.222 0 003.7 9.798zM11.363 9.798a1.222 1.222 0 000-2.443 1.222 1.222 0 000 2.443z" fill="#0078D4"/><path d="M35.346 28.585v-2.391h-2.467a8.955 8.955 0 00-1.752-4.236l1.743-1.743-1.693-1.684-1.734 1.743a8.87 8.87 0 00-4.236-1.752v-2.467h-2.392v2.467a8.954 8.954 0 00-4.236 1.752l-1.743-1.744-1.692 1.693 1.743 1.743a8.871 8.871 0 00-1.752 4.236h-2.467v2.392h2.467a8.955 8.955 0 001.752 4.235l-1.743 1.744 1.692 1.692 1.744-1.743a8.87 8.87 0 004.235 1.752v2.459h2.392v-2.468a8.953 8.953 0 004.236-1.751l1.743 1.743 1.693-1.693-1.744-1.743a8.869 8.869 0 001.752-4.236h2.459zM24.02 32.417a5.035 5.035 0 01-5.028-5.028 5.035 5.035 0 015.027-5.027 5.035 5.035 0 015.028 5.027 5.03 5.03 0 01-5.027 5.028z" fill="#50E6FF"/></svg>