<svg xmlns="http://www.w3.org/2000/svg" viewBox="0 0 49 49"><path d="M36.123 39.299l-1.94-1.636 10.574-12.529-10.245-12.976 1.982-1.568L48.02 25.185 36.123 39.299zM11.545 39.247L.02 24.661l11.905-14.114 1.93 1.627L3.282 24.712l10.245 12.967-1.982 1.568z" fill="#0078D4"/><path d="M24.16 29.744a4.486 4.486 0 100-8.97 4.486 4.486 0 000 8.97z" fill="#50E6FF"/><path d="M35.693 23.676l-3.39-.397-.1-.345a8.135 8.135 0 00-.802-1.872l-.185-.32 1.813-2.285c.143-.186.151-.422.025-.548L31.3 16.155c-.135-.135-.37-.127-.548.025l-2.344 1.855-.312-.169a8.41 8.41 0 00-1.82-.7l-.363-.092-.38-3.263c-.025-.228-.185-.405-.37-.405h-2.48c-.185 0-.345.177-.37.405l-.397 3.381-.329.11a7.737 7.737 0 00-1.703.784l-.32.194-2.521-1.99c-.186-.143-.422-.152-.548-.025l-1.754 1.753c-.135.135-.118.371.025.548l2.083 2.64-.152.311a8.3 8.3 0 00-.565 1.434l-.101.345-3.39.397c-.227.025-.404.185-.404.37v2.48c0 .185.177.345.405.37l3.397.397.101.345c.144.473.33.953.566 1.408l.16.312-2.1 2.656c-.143.186-.152.422-.025.548l1.754 1.754c.135.135.37.118.548-.025l2.554-2.024.32.194c.524.312 1.08.565 1.636.742l.33.11.379 3.246c.025.227.185.404.37.404h2.48c.185 0 .345-.177.37-.404l.363-3.103.363-.093a8.293 8.293 0 001.82-.691l.313-.16 2.31 1.83c.186.143.422.151.548.025l1.754-1.754c.135-.135.126-.371-.026-.548l-1.762-2.226.194-.32c.363-.608.641-1.24.826-1.88l.102-.346 3.406-.397c.228-.025.405-.185.405-.37v-2.48c0-.202-.177-.362-.405-.387zm-11.534 7.158a5.58 5.58 0 01-5.573-5.573 5.58 5.58 0 015.573-5.573 5.585 5.585 0 015.573 5.573 5.585 5.585 0 01-5.573 5.573z" fill="#0078D7"/></svg>