<svg xmlns="http://www.w3.org/2000/svg" viewBox="0 0 156 156"><path d="M148.571 85.255V70.423h-15.302a55.453 55.453 0 00-10.896-26.297l10.821-10.821L122.72 22.83l-10.821 10.821a55.447 55.447 0 00-26.297-10.895V7.428H70.769v15.303a55.446 55.446 0 00-26.297 10.896l-10.82-10.821L23.176 33.28 33.998 44.1a55.447 55.447 0 00-10.895 26.298H7.75V85.23h15.303a55.449 55.449 0 0010.896 26.298l-10.821 10.82 10.474 10.475 10.82-10.821a55.442 55.442 0 0026.298 10.895V148.2h14.832v-15.303a55.444 55.444 0 0026.298-10.895l10.82 10.821 10.475-10.475-10.821-10.82a55.444 55.444 0 0010.895-26.298h15.352v.025zM37.44 77.827c0-10.87 4.234-21.098 11.935-28.798 7.701-7.702 17.928-11.936 28.798-11.936 10.87 0 21.097 4.234 28.798 11.935 7.701 7.701 11.936 17.928 11.936 28.799 0 10.87-4.259 21.121-11.936 28.798-7.7 7.701-17.927 11.935-28.798 11.935-10.87 0-21.097-4.234-28.798-11.935-7.7-7.677-11.935-17.903-11.935-28.798z" fill="#0078D4"/><path d="M78.173 113.112c19.488 0 35.286-15.797 35.286-35.285 0-19.488-15.798-35.286-35.286-35.286-19.487 0-35.285 15.798-35.285 35.286 0 19.487 15.798 35.285 35.285 35.285z" fill="#50E6FF"/><path d="M70.324 96.051L57.448 83.175l5.25-5.25 7.626 7.627L93.65 62.227l5.25 5.25L70.323 96.05z"/></svg>