<svg xmlns="http://www.w3.org/2000/svg" viewBox="0 0 49 49"><path d="M47.372 25.303a23.162 23.162 0 00-7.031-16.678l-1.752 1.768.249.25a20.813 20.813 0 014.433 6.59 20.435 20.435 0 011.61 8.062 20.684 20.684 0 01-1.635 8.052 20.673 20.673 0 01-4.441 6.575 20.911 20.911 0 01-3.562 2.856l-1.768-2.217L32.852 46l5.438.622-1.494-1.884c6.359-4.134 10.568-11.29 10.576-19.434zM29.117 45.385c-1.61.39-3.263.598-4.948.598h-.033a20.583 20.583 0 01-8.061-1.644 20.699 20.699 0 01-6.575-4.45 20.644 20.644 0 01-4.292-6.276l2.557-.382-4.4-3.262-3.262 4.4 2.556-.382c3.446 8.476 11.756 14.461 21.468 14.478h.042c1.967 0 3.885-.25 5.712-.706l-.764-2.374zM36.264 6.343L34.081 1.32l-.996 2.516a23.19 23.19 0 00-8.875-1.777h-.041C11.509 2.06 1.215 12.204.974 24.814h2.49a20.79 20.79 0 011.628-7.646 20.674 20.674 0 014.441-6.575 20.686 20.686 0 016.583-4.433 20.527 20.527 0 018.053-1.627h.033a20.73 20.73 0 017.97 1.602l-.938 2.366 5.03-2.158z" fill="#50E6FF"/><path d="M40.689 27.345l.008-4.864-3.52-.009a13.184 13.184 0 00-2.117-5.213l2.466-2.457-3.429-3.446-2.449 2.45a13.25 13.25 0 00-5.221-2.167l.008-3.47-4.865-.009-.008 3.503a13.196 13.196 0 00-5.164 2.184l-2.507-2.516-3.445 3.429 2.54 2.548a13.321 13.321 0 00-2.075 5.123l-3.653-.009-.008 4.865 3.71.008a13.412 13.412 0 002.11 5.031l-2.657 2.648 3.428 3.446 2.665-2.657a13.122 13.122 0 005.014 2.092V41.6l4.865.008.009-3.727a13.227 13.227 0 005.072-2.042l2.59 2.606 3.445-3.428-2.565-2.574a13.187 13.187 0 002.183-5.105l3.57.008zm-16.653 5.92c-4.699-.009-8.501-3.828-8.493-8.527.009-4.698 3.82-8.5 8.518-8.492 4.698.008 8.5 3.827 8.492 8.526 0 4.698-3.818 8.5-8.517 8.492z" fill="#0078D4"/></svg>