<svg xmlns="http://www.w3.org/2000/svg" viewBox="0 0 48 49"><path d="M24 40.813c9.102 0 16.48-7.378 16.48-16.479 0-9.101-7.378-16.48-16.48-16.48-9.1 0-16.479 7.379-16.479 16.48s7.378 16.48 16.48 16.48z" fill="#50E6FF"/><path d="M42.802 21.791c-.443-3.207-1.66-6.304-3.76-8.958l3.65-3.65-3.54-3.539-3.65 3.65c-2.654-1.991-5.75-3.318-8.958-3.76v-5.2h-5.088v5.198c-3.207.443-6.304 1.66-8.958 3.76l-3.65-3.649-3.54 3.54 3.65 3.649c-1.99 2.654-3.317 5.751-3.76 8.958H0v5.088h5.198c.443 3.318 1.77 6.304 3.76 8.958l-3.65 3.65 3.54 3.54 3.65-3.65c2.654 1.99 5.64 3.318 8.958 3.76v5.198h5.088v-5.198c3.207-.442 6.304-1.659 8.958-3.76l3.65 3.65 3.54-3.54-3.65-3.65c1.99-2.654 3.317-5.75 3.76-8.958H48V21.79h-5.198zm-4.535 6.858c-.995 3.317-3.097 6.193-5.972 8.073-2.876 1.88-6.304 2.765-9.733 2.434-3.428-.332-6.636-1.88-9.069-4.314-1.438-1.438-2.544-2.986-3.207-4.866-.774-1.77-1.106-3.76-1.106-5.751 0-3.429 1.216-6.858 3.428-9.512 2.212-2.654 5.198-4.534 8.627-5.198a15.39 15.39 0 019.954 1.438c3.097 1.659 5.42 4.313 6.746 7.41 1.217 3.428 1.328 6.968.332 10.286z" fill="#0078D4"/><path d="M31.742 16.261l-10.949 10.95-4.424-4.425-2.322 2.212 6.746 6.857 13.162-13.271-2.212-2.323z" fill="#0075DA"/></svg>