<svg xmlns="http://www.w3.org/2000/svg" viewBox="0 0 49 49"><path d="M47.645 24.945a23.162 23.162 0 00-7.032-16.678l-1.752 1.768.25.249a20.814 20.814 0 014.433 6.591 20.433 20.433 0 011.61 8.061 20.684 20.684 0 01-1.635 8.053 20.674 20.674 0 01-4.442 6.575 20.915 20.915 0 01-3.561 2.855l-1.768-2.216-.623 5.438 5.438.622-1.495-1.884c6.36-4.134 10.568-11.29 10.577-19.434zM29.39 45.026c-1.611.39-3.263.598-4.949.598h-.033a20.583 20.583 0 01-8.06-1.644 20.698 20.698 0 01-6.576-4.45 20.644 20.644 0 01-4.292-6.275l2.557-.382-4.4-3.263-3.262 4.4 2.557-.382C6.377 42.104 14.687 48.09 24.4 48.106h.041a23.58 23.58 0 005.712-.705l-.764-2.375zm7.147-39.043L34.353.961l-.996 2.515A23.191 23.191 0 0024.483 1.7h-.042c-12.66 0-22.954 10.144-23.194 22.755h2.49a20.79 20.79 0 011.627-7.646 20.674 20.674 0 014.442-6.575A20.685 20.685 0 0116.389 5.8a20.527 20.527 0 018.052-1.627h.034a20.73 20.73 0 017.97 1.602l-.939 2.366 5.03-2.159z" fill="#50E6FF"/><path d="M40.961 26.987l.009-4.865-3.52-.008a13.184 13.184 0 00-2.117-5.214l2.465-2.457-3.428-3.445-2.45 2.449a13.249 13.249 0 00-5.22-2.167l.008-3.47-4.865-.008-.009 3.503a13.196 13.196 0 00-5.163 2.183l-2.507-2.515-3.445 3.429 2.54 2.548a13.32 13.32 0 00-2.075 5.122l-3.653-.008-.009 4.865 3.711.008a13.412 13.412 0 002.109 5.03l-2.657 2.649 3.429 3.445 2.665-2.656a13.122 13.122 0 005.014 2.092v3.744l4.865.008.008-3.727a13.226 13.226 0 005.072-2.043l2.59 2.607 3.446-3.428-2.566-2.574a13.189 13.189 0 002.184-5.106l3.57.009zm-16.653 5.919c-4.698-.008-8.5-3.827-8.492-8.526a8.502 8.502 0 018.517-8.492c4.699.008 8.501 3.827 8.493 8.525 0 4.699-3.819 8.501-8.518 8.493z" fill="#0078D4"/></svg>