<svg xmlns="http://www.w3.org/2000/svg" viewBox="0 0 49 49"><path d="M41.043 48.922h-3.719v-2.525h3.72c.571 0 .756-.193.815-.252.513-.53.471-1.986.438-2.861-.009-.219-.009-.42-.009-.606 0-1.506-.059-10.376-.059-10.46v-.008c0-2.861 1.086-5.386 3.08-7.262a9.497 9.497 0 01-1.607-2.13c-.648-1.16-1.422-3.096-1.422-5.738V7.428v-.303c0-1.136.008-2.853-.555-3.417-.06-.059-.22-.219-.69-.219h-3.72V.965h3.72c1.01 0 1.842.32 2.482.96 1.304 1.303 1.295 3.466 1.287 5.208v9.947c0 2.095.597 3.61 1.094 4.502.547.976 1.253 1.758 2.103 2.322L48.018 26c-1.49 1.019-3.273 2.92-3.273 6.202 0 .236.059 8.98.059 10.477 0 .151.008.337.008.53.042 1.355.101 3.4-1.152 4.696-.64.673-1.523 1.018-2.617 1.018zM10.772 48.922H7.054c-1.01 0-1.843-.32-2.482-.96-1.305-1.304-1.296-3.466-1.288-5.208v-.295-9.652c0-2.095-.597-3.61-1.093-4.502-.547-.976-1.254-1.759-2.104-2.322L.07 23.887c1.49-1.018 3.273-2.92 3.273-6.202 0-.235-.059-8.978-.059-10.476 0-.152-.008-.337-.008-.53-.042-1.355-.11-3.4 1.144-4.696C5.076 1.31 5.96.965 7.045.965h3.719v2.524h-3.71c-.573 0-.758.194-.817.253-.513.53-.47 1.986-.437 2.86.008.22.008.422.008.607 0 1.506.06 10.375.06 10.46v.008c0 2.861-1.086 5.386-3.08 7.262a9.496 9.496 0 011.607 2.13c.648 1.16 1.422 3.096 1.422 5.738v9.955c0 1.136-.009 2.853.555 3.417.059.058.219.218.69.218h3.719v2.525h-.009z" fill="#50E6FF"/><path d="M40.496 26.624v-3.467H36.91a12.898 12.898 0 00-2.549-6.151l2.533-2.533-2.449-2.449-2.54 2.525a12.929 12.929 0 00-6.15-2.55V8.414h-3.467V12a12.894 12.894 0 00-6.15 2.55l-2.533-2.533-2.448 2.448 2.532 2.533a12.933 12.933 0 00-2.55 6.152H7.549v3.467h3.585a12.898 12.898 0 002.549 6.151L11.149 35.3l2.449 2.449 2.532-2.533a12.928 12.928 0 006.15 2.55v3.584h3.467v-3.568a12.894 12.894 0 006.15-2.55l2.532 2.534 2.449-2.45-2.533-2.532a12.932 12.932 0 002.55-6.151h3.6v-.009zm-16.474 6.219c-4.383 0-7.95-3.568-7.95-7.952 0-4.385 3.567-7.953 7.95-7.953s7.95 3.568 7.95 7.953c0 4.384-3.567 7.952-7.95 7.952z" fill="#0078D4"/></svg>