<svg xmlns="http://www.w3.org/2000/svg" viewBox="0 0 48 49"><path d="M41.023 48.335h-3.718v-2.524h3.718c.572 0 .758-.194.816-.253.514-.53.472-1.986.438-2.86-.008-.22-.008-.422-.008-.607 0-1.506-.06-10.375-.06-10.46v-.008c0-2.861 1.086-5.386 3.08-7.262a9.498 9.498 0 01-1.607-2.13c-.648-1.16-1.422-3.096-1.422-5.738V6.537c0-1.136.009-2.853-.555-3.417-.06-.058-.219-.218-.69-.218h-3.719V.378h3.719c1.01 0 1.843.32 2.482.96 1.304 1.304 1.296 3.466 1.287 5.208v9.947c0 2.095.598 3.61 1.094 4.502.547.976 1.254 1.759 2.103 2.322l.017 2.096c-1.49 1.018-3.273 2.92-3.273 6.202 0 .235.06 8.978.06 10.476 0 .152.008.337.008.53.042 1.355.1 3.4-1.153 4.696-.64.673-1.523 1.018-2.617 1.018zm-30.27 0H7.034c-1.01 0-1.843-.32-2.482-.96-1.304-1.303-1.296-3.466-1.287-5.208v-9.946c0-2.096-.598-3.61-1.094-4.502-.547-.977-1.254-1.76-2.103-2.323L.05 23.3c1.489-1.019 3.273-2.92 3.273-6.202 0-.236-.06-8.979-.06-10.477 0-.151-.008-.337-.008-.53-.042-1.355-.109-3.4 1.145-4.696C5.057.723 5.94.378 7.026.378h3.718v2.525h-3.71c-.572 0-.757.193-.816.252-.513.53-.471 1.986-.438 2.861.009.219.009.421.009.606 0 1.506.059 10.376.059 10.46v.008c0 2.861-1.086 5.386-3.08 7.262a9.496 9.496 0 011.607 2.13c.648 1.16 1.422 3.096 1.422 5.739v9.954c0 1.137-.008 2.853.556 3.417.058.059.218.219.69.219h3.718v2.524h-.008z" fill="#50E6FF"/><path d="M40.476 26.037v-3.466h-3.584a12.899 12.899 0 00-2.55-6.152l2.533-2.533-2.448-2.449-2.54 2.525a12.928 12.928 0 00-6.151-2.55V7.827H22.27v3.585a12.893 12.893 0 00-6.15 2.55l-2.533-2.533-2.449 2.449 2.533 2.533a12.934 12.934 0 00-2.55 6.151H7.53v3.467h3.584a12.898 12.898 0 002.55 6.151l-2.533 2.533 2.448 2.45 2.533-2.534a12.929 12.929 0 006.15 2.55v3.585h3.466v-3.568a12.893 12.893 0 006.15-2.55l2.533 2.533 2.449-2.449-2.533-2.533a12.934 12.934 0 002.55-6.151h3.6v-.009zm-16.473 6.22c-4.384 0-7.951-3.569-7.951-7.953s3.567-7.952 7.95-7.952c4.384 0 7.951 3.568 7.951 7.952s-3.567 7.952-7.95 7.952z" fill="#0078D4"/></svg>