<svg xmlns="http://www.w3.org/2000/svg" viewBox="0 0 48 48"><path d="M47.991 15.09v-4.943H45.6v-7.79h-7.705V0h-5.07v2.358h-6.307V0h-5.044v2.358h-6.308V0h-5.044v2.358H2.4v7.73H.042v5.045H2.4v6.307H0v5.044h2.4v6.308H0v5.103h2.4v7.663h7.705V48h5.07v-2.442h6.307V48h5.044v-2.442h6.308V48h5.044v-2.442h7.73v-7.672H48v-5.044h-2.392v-6.324H48v-5.044h-2.392V15.09h2.383zm-5.035 27.857H5.053V5.053h37.903v37.894z" fill="#50E6FF"/><path d="M41.516 20.11v-2.585h-2.67a9.615 9.615 0 00-1.903-4.59l1.895-1.894-1.827-1.827-1.895 1.894a9.615 9.615 0 00-4.59-1.903v-2.67h-2.585v2.67a9.615 9.615 0 00-4.59 1.903l-1.894-1.894-1.836 1.827 1.895 1.895a9.615 9.615 0 00-1.903 4.59h-2.67v2.584h2.67a9.615 9.615 0 001.903 4.59l-1.895 1.895 1.828 1.827 1.894-1.895a9.615 9.615 0 004.59 1.903v2.67h2.585v-2.67a9.615 9.615 0 004.59-1.903l1.894 1.895 1.828-1.827-1.895-1.895a9.614 9.614 0 001.903-4.59h2.678zM29.23 23.48a4.661 4.661 0 01-4.657-4.657 4.661 4.661 0 014.657-4.657 4.661 4.661 0 014.656 4.657 4.661 4.661 0 01-4.656 4.657zm-7.882 12.056v-2.518H18.66a5.082 5.082 0 00-.539-1.305l1.904-1.903-1.786-1.785-1.903 1.911a5.076 5.076 0 00-1.305-.539v-2.686h-2.518v2.695a4.905 4.905 0 00-1.297.539L9.314 28.04l-1.785 1.77 1.903 1.903a5.026 5.026 0 00-.539 1.297H6.198v2.526h2.695c.118.463.303.901.539 1.297l-1.903 1.903 1.785 1.786 1.903-1.904c.404.236.834.421 1.297.54v2.694h2.518v-2.686a5.08 5.08 0 001.305-.54l1.903 1.904 1.786-1.785-1.904-1.903a5.08 5.08 0 00.54-1.306h2.686zm-7.57 1.263a2.52 2.52 0 01-2.519-2.517 2.52 2.52 0 012.518-2.518 2.52 2.52 0 012.518 2.518 2.514 2.514 0 01-2.518 2.517z" fill="#0078D4"/></svg>