<svg xmlns="http://www.w3.org/2000/svg" viewBox="0 0 48 49"><path d="M47.352 24.716A23.162 23.162 0 0040.321 8.04l-1.752 1.768.25.249a20.812 20.812 0 014.432 6.591 20.435 20.435 0 011.61 8.061 20.684 20.684 0 01-1.635 8.053 20.674 20.674 0 01-4.441 6.575 20.911 20.911 0 01-3.561 2.855l-1.769-2.216-.622 5.438 5.437.622-1.494-1.884c6.36-4.135 10.568-11.29 10.576-19.435zM29.097 44.798c-1.61.39-3.262.598-4.948.598h-.033a20.583 20.583 0 01-8.06-1.644 20.699 20.699 0 01-6.576-4.45 20.641 20.641 0 01-4.291-6.276l2.556-.381-4.4-3.263-3.262 4.4L2.64 33.4c3.445 8.476 11.755 14.462 21.468 14.478h.041a23.55 23.55 0 005.712-.706l-.764-2.374zm7.148-39.042L34.062.734l-.997 2.515a23.19 23.19 0 00-8.874-1.777h-.042C11.49 1.472 1.195 11.617.955 24.227h2.49a20.79 20.79 0 011.627-7.646 20.674 20.674 0 014.442-6.574 20.685 20.685 0 0114.635-6.06h.034a20.73 20.73 0 017.97 1.602l-.939 2.366 5.03-2.159z" fill="#50E6FF"/><path d="M40.67 26.759l.008-4.865-3.52-.008a13.185 13.185 0 00-2.117-5.214l2.466-2.457-3.429-3.445-2.449 2.449a13.248 13.248 0 00-5.222-2.167l.009-3.47-4.865-.009-.008 3.504a13.194 13.194 0 00-5.164 2.183l-2.507-2.515-3.445 3.428 2.54 2.549a13.32 13.32 0 00-2.075 5.122l-3.653-.008-.008 4.864 3.71.009a13.412 13.412 0 002.11 5.03l-2.657 2.649 3.428 3.445 2.665-2.657a13.122 13.122 0 005.014 2.092v3.744l4.865.009.008-3.728a13.227 13.227 0 005.073-2.042l2.59 2.607 3.445-3.429-2.565-2.573A13.189 13.189 0 0037.1 26.75l3.57.009zm-16.653 5.919a8.51 8.51 0 01-8.493-8.526 8.504 8.504 0 018.518-8.493c4.698.009 8.5 3.827 8.492 8.526 0 4.699-3.819 8.5-8.517 8.493z" fill="#0078D4"/></svg>