<svg xmlns="http://www.w3.org/2000/svg" viewBox="0 0 49 49"><path d="M43.083 24.886c0 10.463-8.481 18.953-18.953 18.953-10.471 0-18.953-8.49-18.953-18.953C5.177 14.456 13.6 6 24.004 5.932V.944C10.845 1.012.19 11.702.19 24.886c0 13.217 10.715 23.94 23.941 23.94 13.226 0 23.941-10.723 23.941-23.94v-.101h-4.988v.1z" fill="#0078D4"/><path d="M28.287 24.886a4.16 4.16 0 01-4.156 4.157 4.16 4.16 0 01-4.157-4.157 4.149 4.149 0 014.022-4.148v-4.72c-4.837.068-8.742 4.015-8.742 8.868a8.87 8.87 0 008.868 8.868 8.87 8.87 0 008.868-8.868v-.1h-4.72a.213.213 0 01.017.1z" fill="#50E6FF"/><path d="M24.13 8.628c-4.509 0-8.59 1.839-11.537 4.803L16.06 16.9a11.303 11.303 0 018.07-3.367c6.273 0 11.361 5.089 11.361 11.362S30.403 36.257 24.13 36.257a11.314 11.314 0 01-8.171-3.468l-3.468 3.468A16.219 16.219 0 0024.13 41.16c8.977 0 16.257-7.28 16.257-16.258 0-8.977-7.272-16.274-16.257-16.274z" fill="#50E6FF"/></svg>