<svg xmlns="http://www.w3.org/2000/svg" viewBox="0 0 21 21"><path d="M10.5.5C4.8.5.2 5.1.2 10.8c0 4.5 2.9 8.4 7 9.7.6.1.8-.2.8-.5v-1.7c-2.9.6-3.5-1.4-3.5-1.4-.5-1.2-1.1-1.5-1.1-1.5-.9-.6.1-.6.1-.6 1 .1 1.6 1.1 1.6 1.1.9 1.6 2.4 1.1 3 .9.1-.7.4-1.1.7-1.4C6.4 15 4 14.1 4 10.2c0-1.1.4-2 1.1-2.8-.2-.2-.5-1.2 0-2.6 0 0 .9-.3 2.8 1.1.8-.2 1.7-.3 2.6-.3.9 0 1.7.1 2.6.3 2-1.3 2.8-1.1 2.8-1.1.6 1.4.2 2.5.1 2.7.7.7 1.1 1.6 1.1 2.8 0 3.9-2.4 4.8-4.7 5.1.4.3.7.9.7 1.9v2.8c0 .3.2.6.7.5 4.1-1.4 7-5.2 7-9.7C20.8 5.1 16.2.5 10.5.5z"/></svg>