<svg xmlns="http://www.w3.org/2000/svg" viewBox="0 0 22 22"><path d="M11 0C4.923 0 0 5.05 0 11.28c0 4.984 3.152 9.21 7.521 10.7.55.107.752-.242.752-.542 0-.268-.01-.977-.014-1.917-3.06.68-3.705-1.514-3.705-1.514-.5-1.301-1.224-1.65-1.224-1.65-.996-.698.077-.684.077-.684 1.105.079 1.685 1.161 1.685 1.161.981 1.725 2.575 1.227 3.204.938.099-.729.382-1.226.697-1.508-2.443-.282-5.011-1.252-5.011-5.574 0-1.231.426-2.237 1.132-3.027-.124-.284-.495-1.431.096-2.985 0 0 .922-.303 3.025 1.156.88-.25 1.815-.375 2.75-.38a10.3 10.3 0 012.75.38c2.09-1.459 3.012-1.156 3.012-1.156.59 1.554.22 2.7.11 2.985.7.79 1.127 1.796 1.127 3.027 0 4.333-2.571 5.287-5.019 5.564.385.339.743 1.03.743 2.087 0 1.51-.014 2.722-.014 3.089 0 .296.193.648.756.535C18.851 20.486 22 16.256 22 11.28 22 5.05 17.075 0 11 0z" fill="#fff"/></svg>