<svg xmlns="http://www.w3.org/2000/svg" viewBox="0 0 49 49"><path d="M8.07 41.92a23.89 23.89 0 0014.695 6.055v-4.901a18.833 18.833 0 01-11.208-4.64L8.07 41.92z" fill="#0078D4"/><path d="M25.291.137v5.128a18.9 18.9 0 0111.183 4.623l3.604-3.604A23.802 23.802 0 0025.291.137z" fill="#50E6FF"/><path d="M6.168 8.086A23.88 23.88 0 00.096 22.873h5.02a18.898 18.898 0 014.648-11.191L6.168 8.086zM22.765.137a23.871 23.871 0 00-14.787 6.13l3.604 3.604a18.838 18.838 0 0111.183-4.614V.137z" fill="#0078D4"/><path d="M36.5 38.418a18.871 18.871 0 01-11.209 4.648v4.901a23.85 23.85 0 0014.695-6.063l-3.487-3.486z" fill="#50E6FF"/><path d="M.105 25.398A23.824 23.824 0 006.252 40.11l3.495-3.495a18.856 18.856 0 01-4.631-11.217H.105z" fill="#0078D4"/><path d="M47.935 25.398h-5.01a18.91 18.91 0 01-4.615 11.209l3.495 3.495a23.873 23.873 0 006.13-14.704zM41.889 8.102l-3.596 3.595a18.884 18.884 0 014.632 11.175h5.019a23.866 23.866 0 00-6.055-14.77zM24.609 12.765a7.915 7.915 0 00-8.388 7.41c-.27 4.363 7.866 15.159 7.866 15.159s7.663-9.82 7.932-14.181a7.915 7.915 0 00-7.41-8.388z" fill="#50E6FF"/><path d="M28.887 20.937a4.774 4.774 0 01-5.053 4.471 4.774 4.774 0 01-4.471-5.053 4.774 4.774 0 015.052-4.471c2.628.16 4.64 2.425 4.472 5.053z" fill="#0078D4"/></svg>