<svg xmlns="http://www.w3.org/2000/svg" viewBox="0 0 49 49"><path d="M27.588 23.762h.447M27.588 5.355h.447" stroke="#75757A" stroke-width="1.013" stroke-miterlimit="10"/><path d="M24.024 47.78c13.114 0 23.818-10.675 23.818-23.752C47.842 10.951 37.13.285 24.024.285 10.909.285.205 10.96.205 24.028c0 13.07 10.704 23.751 23.819 23.751z" fill="#0078D4"/><path d="M24.286.371h-.447v47.41h.447V.371z" fill="#fff"/><path d="M24.024 35.77C10.817 35.77.028 30.526.028 24.121c0-6.404 10.789-11.648 23.996-11.648 13.207 0 23.995 5.244 23.995 11.648-.008 6.405-10.796 11.65-23.995 11.65zm0-22.944C11.002 12.826.475 17.894.475 24.029s10.527 11.203 23.549 11.203 23.549-5.068 23.549-11.203c-.009-6.135-10.527-11.203-23.55-11.203z" fill="#fff"/><path d="M24.023 48.05c-6.422 0-11.681-10.757-11.681-23.927S17.602.195 24.023.195c6.423 0 11.682 10.766 11.682 23.928s-5.26 23.928-11.681 23.928zm0-47.502c-6.245 0-11.234 10.498-11.234 23.483 0 12.985 5.082 23.482 11.234 23.482 6.153 0 11.235-10.497 11.235-23.482S30.26.548 24.023.548z" fill="#fff"/><path d="M47.833 23.852H.297v.445H47.84v-.445h-.008zM24.023 37.637c1.163 0 2.14-.975 2.14-2.135 0-1.16-.977-2.135-2.14-2.135-1.163 0-2.141.975-2.141 2.135 0 1.16.977 2.135 2.14 2.135z" fill="#fff"/><path d="M12.52 25.814a1.79 1.79 0 001.786-1.782c0-.975-.8-1.782-1.787-1.782a1.79 1.79 0 00-1.787 1.782c0 .983.801 1.782 1.787 1.782z" fill="#fff"/><path d="M24.09 26.433a2.432 2.432 0 002.445-2.437 2.432 2.432 0 00-2.444-2.437 2.432 2.432 0 00-2.445 2.437 2.432 2.432 0 002.445 2.437zM24.09 15.004a2.432 2.432 0 002.445-2.438 2.432 2.432 0 00-2.444-2.437 2.432 2.432 0 00-2.445 2.437 2.432 2.432 0 002.445 2.438zM35.427 26.433a2.432 2.432 0 002.444-2.437 2.432 2.432 0 00-2.444-2.437 2.432 2.432 0 00-2.445 2.437 2.432 2.432 0 002.445 2.437z" fill="#50E6FF"/><path d="M34.103 35.368c.692 0 1.256-.563 1.256-1.252 0-.69-.564-1.253-1.256-1.253-.69 0-1.255.563-1.255 1.253 0 .689.564 1.252 1.255 1.252zM13.85 35.368c.691 0 1.256-.563 1.256-1.252 0-.69-.565-1.253-1.256-1.253-.691 0-1.256.563-1.256 1.253 0 .689.565 1.252 1.256 1.252zM34.103 15.087c.692 0 1.256-.563 1.256-1.253 0-.689-.564-1.252-1.256-1.252a1.252 1.252 0 100 2.505zM13.85 15.087c.691 0 1.256-.563 1.256-1.253 0-.689-.565-1.252-1.256-1.252a1.252 1.252 0 100 2.505z" fill="#fff"/></svg>