<svg xmlns="http://www.w3.org/2000/svg" viewBox="0 0 48 49"><path d="M27.569 23.92h.447m-.447-18.405h.447" stroke="#75757A" stroke-width="1.013" stroke-miterlimit="10"/><path d="M24.004 47.94c13.115 0 23.819-10.674 23.819-23.752C47.823 11.111 37.11.445 24.004.445 10.89.445.186 11.12.186 24.188c0 13.07 10.704 23.751 23.818 23.751z" fill="#0078D4"/><path d="M24.266.531h-.447v47.41h.447V.531z" fill="#fff"/><path d="M24.005 35.93C10.797 35.93.009 30.685.009 24.28c0-6.404 10.788-11.649 23.996-11.649C37.212 12.632 48 17.877 48 24.281c-.008 6.404-10.797 11.649-23.995 11.649zm0-22.945c-13.022 0-23.55 5.068-23.55 11.204 0 6.135 10.528 11.203 23.55 11.203 13.021 0 23.548-5.068 23.548-11.203-.008-6.136-10.527-11.204-23.548-11.204z" fill="#fff"/><path d="M24.004 48.21c-6.423 0-11.682-10.757-11.682-23.927S17.582.355 24.004.355c6.422 0 11.681 10.767 11.681 23.928 0 13.162-5.259 23.928-11.681 23.928zm0-47.502c-6.246 0-11.235 10.498-11.235 23.483 0 12.985 5.082 23.482 11.235 23.482 6.152 0 11.235-10.497 11.235-23.482S30.24.708 24.004.708z" fill="#fff"/><path d="M47.813 24.011H.279v.445h47.544v-.445h-.009zm-23.81 13.785c1.163 0 2.141-.975 2.141-2.135 0-1.16-.977-2.135-2.14-2.135-1.164 0-2.142.975-2.142 2.135 0 1.16.978 2.135 2.141 2.135z" fill="#fff"/><path d="M12.5 25.973a1.79 1.79 0 001.787-1.782c0-.975-.801-1.782-1.787-1.782a1.79 1.79 0 00-1.787 1.782c0 .983.8 1.782 1.787 1.782z" fill="#fff"/><path d="M24.071 26.593a2.432 2.432 0 002.445-2.438 2.432 2.432 0 00-2.445-2.437 2.432 2.432 0 00-2.444 2.437 2.432 2.432 0 002.444 2.438zm0-11.43a2.432 2.432 0 002.445-2.437 2.432 2.432 0 00-2.445-2.437 2.432 2.432 0 00-2.444 2.437 2.432 2.432 0 002.444 2.437zm11.336 11.43a2.432 2.432 0 002.445-2.438 2.432 2.432 0 00-2.445-2.437 2.432 2.432 0 00-2.444 2.437 2.432 2.432 0 002.444 2.438z" fill="#50E6FF"/><path d="M34.084 35.527c.69 0 1.255-.563 1.255-1.252a1.257 1.257 0 00-2.511 0c0 .689.565 1.252 1.256 1.252zm-20.254 0c.692 0 1.256-.563 1.256-1.252a1.257 1.257 0 00-2.511 0c0 .689.564 1.252 1.256 1.252zm20.254-20.281c.69 0 1.255-.563 1.255-1.252a1.256 1.256 0 00-2.511 0c0 .698.565 1.252 1.256 1.252zm-20.254 0c.692 0 1.256-.563 1.256-1.252 0-.69-.564-1.252-1.255-1.252a1.252 1.252 0 100 2.505z" fill="#fff"/></svg>