<svg xmlns="http://www.w3.org/2000/svg" viewBox="0 0 49 49"><path d="M26.972 1.155c-.3-.1-.6-.1-.9-.1h-1c-11.3 0-20.5 9.2-20.5 20.5v.5h-2v20h15v4h-6v2h14v-2h-6v-4h15v-2.4c6.5-3.4 11-10.3 11-18.1 0-10.7-8.2-19.5-18.6-20.4zm-1.2 1.9h.9c2.2.6 4.1 4.4 5.1 9.9h-11.4c1.1-5.6 3.1-9.5 5.4-9.9zm-3.8.3c-1.8 2.2-2.9 5.7-3.6 9.7h-9.7c2.6-5 7.5-8.7 13.3-9.7zm-14.2 11.7h10.2c-.3 2.3-.4 4.7-.5 7h-10.9v-.5c0-2.3.4-4.5 1.2-6.5zm24.8 25h-28v-16h28v16zm-13-18c0-2.5.2-4.8.5-7h12.1c.3 2.2.5 4.5.5 7h-13.1zm11-18.1c4.7 1.5 8.6 4.8 10.9 9.1h-7.7c-.6-3.7-1.7-7-3.2-9.1zm4 33.4v-7.8h7.2c-1.6 3.3-4.1 6-7.2 7.8zm0-9.8v-5.3c0-2.4-.1-4.9-.5-7.2h8.2c.8 2 1.2 4.2 1.2 6.5 0 2.1-.4 4.1-1 6h-7.9z" fill="#0078D4"/></svg>