<svg xmlns="http://www.w3.org/2000/svg" viewBox="0 0 49 49"><path d="M21.662 37.837c9.004 0 16.303-7.3 16.303-16.303 0-9.004-7.3-16.304-16.303-16.304-9.004 0-16.304 7.3-16.304 16.304 0 9.004 7.3 16.303 16.304 16.303z" fill="#0078D4"/><path d="M38.024 3.875l-3.596 3.596-.034.033a18.807 18.807 0 014.724 6.653 18.857 18.857 0 011.491 7.369c0 2.551-.497 5.035-1.49 7.368a18.807 18.807 0 01-4.06 6.021 18.803 18.803 0 01-6.02 4.059 18.606 18.606 0 01-7.377 1.499c-2.56 0-5.036-.497-7.369-1.49a18.805 18.805 0 01-6.652-4.725l-1.786 1.785A21.395 21.395 0 0020.24 42.94v2.577H10.142v2.518h22.711v-2.518H22.748v-2.552c11.352-.564 20.379-9.945 20.379-21.44a21.355 21.355 0 00-5.204-14.004L39.8 5.643l-1.777-1.768z" fill="#50E6FF"/><path d="M24.239 8.293a4.212 4.212 0 00-4.464 3.941c-.143 2.325 4.186 8.06 4.186 8.06s4.076-5.222 4.219-7.546a4.214 4.214 0 00-3.941-4.455z" fill="#50E6FF"/><path d="M26.512 12.64a2.535 2.535 0 11-5.06-.31 2.535 2.535 0 015.06.31z" fill="#0078D4"/></svg>