<svg xmlns="http://www.w3.org/2000/svg" viewBox="0 0 48 49"><path d="M21.65 37.999c9 0 16.3-7.209 16.3-16.096s-7.3-16.096-16.3-16.096-16.3 7.209-16.3 16.096S12.65 38 21.65 38z" fill="#0078D4"/><path d="M38 4.426l-3.6 3.555-.05.05c.25.197.45.394.65.641a18.458 18.458 0 014.05 5.925c1 2.32 1.5 4.74 1.5 7.258s-.5 4.987-1.5 7.258c-.95 2.222-2.3 4.246-4.05 5.925a18.718 18.718 0 01-6 4c-2.35.987-4.8 1.48-7.4 1.48-2.6 0-5.05-.493-7.35-1.48-2.25-.939-4.3-2.272-6-4l-.65-.642-1.75 1.827c3.6 3.9 8.7 6.468 14.4 6.813v2.568H10.1v2.469h22.7v-2.469H22.75v-2.518c11.35-.543 20.4-9.825 20.4-21.182a20.88 20.88 0 00-5.2-13.824l1.9-1.877L38 4.426z" fill="#50E6FF"/><path d="M29.3 14.251l-11.95 11.8-3.6-3.555-2.4 2.37 6 5.925 14.35-14.17-2.4-2.37z" fill="#50E6FF"/></svg>