<svg xmlns="http://www.w3.org/2000/svg" viewBox="0 0 61 61"><path d="M49.376 12.195h-37.47v37.47h37.47v-37.47z" fill="#50E6FF"/><path d="M16.04 12.435h-3.932v3.919h3.932v-3.919zM21.918 12.435h-3.931v3.919h3.931v-3.919zM37.468 16.354h-3.92v-3.919h1.998l1.922 2.2v1.719zM25.749 12.435h-1.934v3.919h1.934v-3.919zM28.644 12.435H26.71v3.919h1.934v-3.919zM16.04 18.263h-3.932v5.89h3.932v-5.89zM23.751 18.2H17.95v5.802h5.802V18.2zM31.602 18.2h-5.803v5.802h5.803V18.2zM37.455 20.31l-1.922 1.872-1.947.025V18.2h3.869v2.11zM39.351 27.971h-5.587V26.05l3.704-3.868h1.883v5.79zM12.134 39.754V26.088h4.943v9.747l-2.73 3.893-2.213.026zM43.384 19.4l-1.998 1.859v4.867h1.998V19.4zM38.53 18.238h.922l1.909-1.922v-3.843h-2.832v5.764zM42.107 15.583l.923-.91V12.46h-.923v3.123zM28.77 26.088h-3.868v5.802h3.868v-5.802zM19.858 35.658l3.868-4.008v-5.499h-3.868v9.507zM29.63 33.85h-5.866v5.866h5.866V33.85zM49.085 41.7H39.39v7.737h9.696V41.7zM35.47 41.675h-3.893v7.737h3.893v-7.737zM35.495 35.81h-3.97v3.969h3.97v-3.97zM41.361 37.743H39.34v-1.908l-1.884.012v-3.944h1.846l2.06 1.77v4.07zM29.617 40.879H12.07V42.8h17.547V40.88zM21.868 44.557h-9.721v4.905h9.72v-4.905zM29.617 44.557h-5.866v4.905h5.866v-4.905zM22.715 34.95L18 39.74h4.715v-4.79zM35.508 28.97H29.63v2.971h5.878v-2.97zM49.11 36.277l-7.774-6.308v-1.922h7.775v8.23zM49.06 12.486h-3.843v9.708h3.843v-9.708zM49.085 24.179h-3.894v1.922h3.894v-1.922zM43.32 39.754h5.79v-.051l-5.79-4.98v5.03z" fill="#0078D4"/></svg>