<svg xmlns="http://www.w3.org/2000/svg" viewBox="0 0 48 49"><path d="M23.899 37.096c9.725 0 17.612-7.888 17.612-17.612 0-9.725-7.887-17.613-17.612-17.613-9.725 0-17.612 7.888-17.612 17.613 0 9.733 7.879 17.612 17.612 17.612z" fill="#0078D4"/><path d="M41.578.406l-3.885 3.885-.033.034a20.364 20.364 0 015.098 7.188 20.436 20.436 0 011.61 7.964c0 2.755-.54 5.443-1.61 7.963a20.457 20.457 0 01-4.382 6.506 20.363 20.363 0 01-6.505 4.382 20.186 20.186 0 01-7.972 1.618c-2.764 0-5.444-.54-7.964-1.61a20.456 20.456 0 01-7.188-5.098l-1.93 1.93c3.91 4.255 9.396 7.053 15.54 7.449v2.78H11.452v2.723h24.54v-2.722H25.07v-2.756c12.261-.607 22.02-10.744 22.02-23.166A23.075 23.075 0 0041.469 4.35l2.022-2.03L41.578.405z" fill="#50E6FF"/><path d="M24.017 8.008c-3.345 0-6.093 2.671-6.228 5.983h1.99a4.209 4.209 0 011.238-2.739 4.207 4.207 0 013-1.247c1.13 0 2.191.447 3 1.247a4.208 4.208 0 011.247 3c0 .447 0 1.13-.008 1.669-.354.32-.843.741-1.4 1.154-1.407 1.054-2.392 1.424-2.839 1.424-.152 0-1.003-.067-2.831-1.457-.48-.363-.91-.734-1.248-1.037h-2.157v.7s3.7 3.783 6.244 3.783c2.57 0 6.22-3.708 6.22-3.708s.016-1.668.016-2.528c-.008-3.438-2.814-6.244-6.244-6.244z" fill="#50E6FF"/><path d="M30.253 15.996H17.78v12.008h12.472V15.997z" fill="#50E6FF"/><path d="M24.017 24.075a1.559 1.559 0 100-3.118 1.559 1.559 0 000 3.118z" fill="#0078D4"/></svg>