<svg xmlns="http://www.w3.org/2000/svg" viewBox="0 0 49 48"><path d="M21.67 37.836c9 0 16.3-7.208 16.3-16.095 0-8.888-7.3-16.096-16.3-16.096S5.37 12.853 5.37 21.74c0 8.887 7.3 16.095 16.3 16.095z" fill="#0078D4"/><path d="M38.02 4.266l-3.6 3.555-.05.049c.25.197.45.395.65.642a18.458 18.458 0 014.05 5.925c1 2.32 1.5 4.74 1.5 7.258s-.5 4.986-1.5 7.258c-.95 2.221-2.3 4.246-4.05 5.924a18.718 18.718 0 01-6 4c-2.35.987-4.8 1.481-7.4 1.481-2.6 0-5.05-.494-7.35-1.481-2.25-.938-4.3-2.271-6-4l-.65-.641-1.75 1.827c3.6 3.9 8.7 6.468 14.4 6.813v2.568H10.12v2.468h22.7v-2.468H22.77v-2.519c11.35-.543 20.4-9.825 20.4-21.181a20.88 20.88 0 00-5.2-13.825l1.9-1.876-1.85-1.777z" fill="#50E6FF"/><path d="M29.32 14.09l-11.95 11.8-3.6-3.555-2.4 2.37 6 5.925 14.35-14.17-2.4-2.37z" fill="#50E6FF"/></svg>