<svg xmlns="http://www.w3.org/2000/svg" viewBox="0 0 49 49"><path d="M23.919 36.936c9.724 0 17.612-7.888 17.612-17.613 0-9.724-7.888-17.612-17.612-17.612-9.725 0-17.613 7.888-17.613 17.612 0 9.733 7.88 17.613 17.613 17.613z" fill="#0078D4"/><path d="M41.598.246l-3.885 3.885-.033.034a20.364 20.364 0 015.098 7.188 20.436 20.436 0 011.61 7.963c0 2.756-.54 5.444-1.61 7.964a20.456 20.456 0 01-4.382 6.505 20.363 20.363 0 01-6.506 4.382 20.184 20.184 0 01-7.972 1.618c-2.764 0-5.443-.539-7.963-1.61a20.455 20.455 0 01-7.188-5.097l-1.93 1.93c3.91 4.255 9.396 7.053 15.54 7.449v2.78H11.471v2.723h24.54v-2.722H25.09v-2.756c12.261-.607 22.02-10.744 22.02-23.166 0-5.789-2.124-11.073-5.621-15.126l2.022-2.031L41.598.246z" fill="#50E6FF"/><path d="M33.407 16.634H14.666a1.987 1.987 0 01-1.99-1.989c0-1.095.886-1.989 1.99-1.989h18.741c1.096 0 1.989.885 1.989 1.989a1.987 1.987 0 01-1.989 1.989z" fill="#50E6FF"/><path d="M30.096 15.936a1.272 1.272 0 100-2.545 1.272 1.272 0 000 2.545zM33.416 15.936a1.272 1.272 0 100-2.545 1.272 1.272 0 000 2.545z" fill="#0078D4"/><path d="M14.632 21.285h18.741c1.096 0 1.99.885 1.99 1.989a1.987 1.987 0 01-1.99 1.989H14.632a1.987 1.987 0 01-1.989-1.99 1.992 1.992 0 011.989-1.988z" fill="#50E6FF"/><path d="M33.087 24.557a1.272 1.272 0 100-2.545 1.272 1.272 0 000 2.545zM29.767 24.557a1.272 1.272 0 100-2.545 1.272 1.272 0 000 2.545z" fill="#0078D4"/></svg>