<svg xmlns="http://www.w3.org/2000/svg" viewBox="0 0 97 97"><path d="M44.029 75.621c18 0 32.6-14.6 32.6-32.6s-14.6-32.6-32.6-32.6-32.6 14.6-32.6 32.6 14.6 32.6 32.6 32.6z" fill="#0078D4"/><path d="M76.729 7.621l-7.2 7.2-.1.1c.5.4.9.8 1.3 1.3 3.5 3.5 6.2 7.5 8.1 12 2 4.7 3 9.6 3 14.7s-1 10.1-3 14.7c-1.9 4.5-4.6 8.6-8.1 12-3.5 3.5-7.5 6.2-12 8.1-4.7 2-9.6 3-14.8 3-5.2 0-10.1-1-14.7-3-4.5-1.9-8.6-4.6-12-8.1l-1.3-1.3-3.5 3.7c7.2 7.9 17.4 13.1 28.8 13.8v5.2h-20.3v5h45.4v-5h-20.1v-5.1c22.7-1.1 40.8-19.9 40.8-42.9 0-10.7-3.9-20.5-10.4-28l3.8-3.8-3.7-3.6z" fill="#50E6FF"/><path d="M59.329 27.521l-23.9 23.9-7.2-7.2-4.8 4.8 12 12 28.7-28.7-4.8-4.8z" fill="#50E6FF"/></svg>