<svg xmlns="http://www.w3.org/2000/svg" viewBox="0 0 48 49"><path d="M19.405.878H0v7.579h19.405V.877zM0 11v7.545h19.414V11H0zM19.405 21.056H0v7.604h19.405v-7.604zM19.405 31.193H0v7.579h19.405v-7.579zM19.405 41.3H0v7.578h19.405v-7.579zM41.26.878h-2.543v7.579h2.544V.877zM41.26 10.99h-2.543v7.545h2.544V10.99zM41.26 21.037h-2.543v7.604h2.544v-7.604zM41.26 31.177h-2.543v7.58h2.544v-7.58zM41.26 41.29h-2.543v7.579h2.544v-7.58zM32.856.878h-7.597v7.579h7.597V.877zM32.856 11h-7.597v7.545h7.597V11zM32.856 21.056h-7.597v7.604h7.597v-7.604zM32.856 31.193h-7.597v7.579h7.597v-7.579zM32.856 41.3h-7.597v7.578h7.597v-7.579z" fill="#0078D4"/><path d="M23.498.878h-2.383v47.999h2.383v-48zM36.966.878h-2.383v47.999h2.383v-48zM45.338.878h-2.384v47.999h2.384v-48z" fill="#50E6FF"/></svg>