<svg xmlns="http://www.w3.org/2000/svg" viewBox="0 0 48 49"><path d="M48 .988H0v48h48v-48z" fill="#C4C4C4"/><path d="M48 .988H.1v47.9H48V.988z" fill="#fff"/><path d="M.1 48.888H48V.988H.1v47.9z" fill="#0078D4"/><path d="M31.25 14.84c0 .5-.2.85-.55 1.15-.35.25-.85.4-1.45.4-.55 0-.95-.1-1.3-.3v-1.15c.4.35.85.55 1.35.55.25 0 .4-.05.55-.15.15-.1.2-.2.2-.4 0-.15-.05-.3-.2-.4-.1-.1-.4-.25-.75-.45-.8-.35-1.15-.9-1.15-1.5 0-.45.15-.85.5-1.1.35-.3.8-.4 1.35-.4.5 0 .9.05 1.25.2v1.1c-.35-.25-.75-.35-1.15-.35-.2 0-.4.05-.5.15-.15.1-.2.2-.2.4 0 .15.05.3.15.4.1.1.3.25.65.4.5.25.8.45 1 .7.15.1.25.4.25.75zm4.25-1.151c0-.5-.1-.9-.35-1.2-.2-.3-.55-.45-.9-.45-.4 0-.7.15-.95.45-.25.3-.35.7-.35 1.2s.1.9.35 1.2c.25.3.55.45.95.45.4 0 .7-.15.95-.45.2-.3.3-.7.3-1.2zm1.2-.05c0 .6-.15 1.1-.4 1.55-.25.45-.65.75-1.15.95l1.5 1.35h-1.5l-1.05-1.2c-.45 0-.85-.15-1.2-.35-.35-.2-.65-.55-.85-.9-.2-.4-.3-.8-.3-1.3 0-.55.1-1 .3-1.4.2-.4.5-.75.9-.95.4-.2.85-.35 1.35-.35.45 0 .9.1 1.25.3.35.2.65.5.85.9.2.45.3.9.3 1.4zm3.9 2.75h-3.05v-5.35h1.15v4.45h1.9v.9z" fill="#50E6FF"/><path d="M10.1 16.039h5v-5h-5v5z" fill="#fff"/><path d="M10.1 23.636h5v-5h-5v5z" fill="#50E6FF"/><path d="M17.75 23.636h5v-5h-5v5z" fill="#fff"/><path d="M10.1 31.289h5v-5h-5v5zm7.65 0h5v-5h-5v5z" fill="#50E6FF"/><path d="M25.3 31.289h5v-5h-5v5z" fill="#fff"/><path d="M10.1 38.84h5v-5h-5v5zm7.65 0h5v-5h-5v5zm7.55 0h5v-5h-5v5z" fill="#50E6FF"/><path d="M32.9 38.84h5v-5h-5v5z" fill="#fff"/></svg>