<svg xmlns="http://www.w3.org/2000/svg" viewBox="0 0 49 50"><path d="M5.177 10.616a5.107 5.107 0 100-10.214 5.107 5.107 0 000 10.214zM17.945 10.616a5.107 5.107 0 100-10.214 5.107 5.107 0 000 10.214zM30.711 10.616a5.107 5.107 0 100-10.214 5.107 5.107 0 000 10.214zM43.478 10.616a5.107 5.107 0 100-10.214 5.107 5.107 0 000 10.214zM5.178 23.381a5.107 5.107 0 100-10.213 5.107 5.107 0 000 10.213zM5.178 36.151a5.107 5.107 0 100-10.214 5.107 5.107 0 000 10.214zM5.178 48.917a5.107 5.107 0 100-10.214 5.107 5.107 0 000 10.214zM17.945 48.917a5.107 5.107 0 100-10.214 5.107 5.107 0 000 10.214zM30.711 48.917a5.107 5.107 0 100-10.214 5.107 5.107 0 000 10.214zM43.478 48.917a5.107 5.107 0 100-10.214 5.107 5.107 0 000 10.214zM43.478 36.151a5.107 5.107 0 100-10.214 5.107 5.107 0 000 10.214zM43.478 23.381a5.107 5.107 0 100-10.213 5.107 5.107 0 000 10.213z" fill="#0078D4"/><path d="M24.328 36.148c6.346 0 11.49-5.144 11.49-11.49s-5.144-11.49-11.49-11.49-11.49 5.144-11.49 11.49 5.144 11.49 11.49 11.49z" fill="#50E6FF"/></svg>