<svg xmlns="http://www.w3.org/2000/svg" viewBox="0 0 49 49"><path d="M48.042.988H25.319v48h22.723v-48z" fill="#0078D4"/><path d="M22.723.988H0v48h22.723v-48z" fill="#50E6FF"/><path d="M8 2.988H2v6h6v-6zM21 2.988h-6v6h6v-6zM8 15.988H2v6h6v-6zM21 15.988h-6v6h6v-6zM8 27.988H2v6h6v-6zM21 27.988h-6v6h6v-6zM8 40.988H2v6h6v-6zM21 40.988h-6v6h6v-6z" fill="#0078D4"/><path d="M30.41 9.863a3.793 3.793 0 110-7.586 3.793 3.793 0 010 7.586zM43.078 9.863a3.793 3.793 0 110-7.586 3.793 3.793 0 010 7.586zM30.41 22.421a3.793 3.793 0 110-7.586 3.793 3.793 0 010 7.586zM43.078 22.421a3.793 3.793 0 110-7.586 3.793 3.793 0 010 7.586zM30.41 35.097a3.793 3.793 0 110-7.586 3.793 3.793 0 010 7.586zM43.078 35.097a3.793 3.793 0 110-7.586 3.793 3.793 0 010 7.586zM30.41 47.715a3.793 3.793 0 110-7.586 3.793 3.793 0 010 7.586zM43.078 47.715a3.793 3.793 0 110-7.586 3.793 3.793 0 010 7.586z" fill="#50E6FF"/></svg>