<svg xmlns="http://www.w3.org/2000/svg" viewBox="0 0 49 49"><path d="M5.072.41H.02v12.21h5.052V.41zM12.23.41H7.178v26.526h5.052V.41zM26.547.41H14.336v12.21h12.21V.41zM33.703 14.727H28.65v26.525h5.053V14.727zM33.703.41H28.65v12.21h5.053V.41zM48.02.41H35.808v5.053h12.21V.41zM40.861 7.57H35.81v19.368h5.052V7.57zM48.02 7.57h-5.053v19.368h5.052V7.57zM26.547 14.727H14.336v5.052h12.21v-5.052zM19.389 21.883h-5.053V41.25h5.053V21.883zM26.547 21.883h-5.053v12.21h5.053v-12.21zM26.547 36.2h-5.053v12.21h5.053V36.2z" fill="#0078D4"/><path d="M12.23 29.043H.02v19.368h12.21V29.043z" fill="#50E6FF"/><path d="M5.072 14.727H.02v12.21h5.052v-12.21zM48.02 29.043H35.808v12.21h12.21v-12.21zM48.019 43.36H28.65v5.052H48.02v-5.053zM19.389 43.36h-5.053v5.052h5.053v-5.053z" fill="#0078D4"/></svg>