<svg xmlns="http://www.w3.org/2000/svg" viewBox="0 0 49 50"><path d="M10.26.41H.028v10.233h10.234V.41zM23.053.41H12.819v10.233h10.234V.41zM35.836.41H25.603v10.233h10.233V.41zM48.627.41H38.394v10.233h10.233V.41zM10.261 13.203H.028v10.233H10.26V13.203zM23.053 13.203H12.819v10.233h10.234V13.203zM35.836 13.203H25.603v10.233h10.233V13.203zM48.627 13.203H38.394v10.233h10.233V13.203z" fill="#0078D4"/><path d="M5.144 25.992A5.12 5.12 0 00.028 31.11a5.12 5.12 0 005.116 5.116 5.12 5.12 0 005.117-5.116 5.115 5.115 0 00-5.117-5.117zM17.936 36.218a5.12 5.12 0 01-5.117-5.117 5.12 5.12 0 015.117-5.117 5.12 5.12 0 015.117 5.117 5.12 5.12 0 01-5.117 5.117zM30.72 25.992a5.12 5.12 0 00-5.117 5.117 5.12 5.12 0 005.116 5.116 5.12 5.12 0 005.117-5.116 5.11 5.11 0 00-5.117-5.117zM43.51 25.992a5.12 5.12 0 00-5.116 5.117 5.12 5.12 0 005.117 5.116 5.12 5.12 0 005.116-5.116 5.115 5.115 0 00-5.116-5.117z" fill="#50E6FF"/><path d="M10.261 38.777H.028v10.234H10.26V38.777zM23.053 38.777H12.819v10.234h10.234V38.777zM35.836 38.777H25.603v10.234h10.233V38.777zM48.627 38.777H38.394v10.234h10.233V38.777z" fill="#0078D4"/></svg>