<svg xmlns="http://www.w3.org/2000/svg" viewBox="0 0 48 49"><path d="M34.895 23.777v-9.684H25.21v9.684h9.684zM47 23.777v-9.684h-9.684v9.684H47zM47 11.672V1.988h-9.684v9.684H47zM22.79 11.672V6.83h-4.842v4.842h4.842z" fill="#0078D4"/><path d="M17.947 6.83V1.988h-4.842V6.83h4.842z" fill="#50E6FF"/><path d="M22.79 35.883V31.04h-4.842v4.843h4.842zM17.947 31.04v-4.842h-4.842v4.842h4.842z" fill="#0078D4"/><path d="M22.79 18.935v-4.842h-4.842v4.842h4.842zM17.947 23.777v-4.842h-4.842v4.842h4.842z" fill="#50E6FF"/><path d="M34.895 11.672V1.988H25.21v9.684h9.684z" fill="#0078D4"/><path d="M34.895 11.672V6.83h-4.843v4.842h4.843zM30.053 6.83V1.988H25.21V6.83h4.842z" fill="#50E6FF"/><path d="M34.895 11.672V6.83h-4.843v4.842h4.843z" fill="#50E6FF"/><path d="M34.895 23.777v-9.684H25.21v9.684h9.684z" fill="#0078D4"/><path d="M34.895 23.777v-4.842h-4.843v4.842h4.843zM30.053 18.935v-4.842H25.21v4.842h4.842z" fill="#50E6FF"/><path d="M34.895 23.777v-4.842h-4.843v4.842h4.843z" fill="#50E6FF"/><path d="M34.895 35.882v-9.684H25.21v9.684h9.684z" fill="#0078D4"/><path d="M34.895 35.883V31.04h-4.843v4.843h4.843zM30.053 31.04v-4.842H25.21v4.842h4.842z" fill="#50E6FF"/><path d="M34.895 35.883V31.04h-4.843v4.843h4.843z" fill="#50E6FF"/><path d="M34.895 47.988v-9.684H25.21v9.684h9.684z" fill="#0078D4"/><path d="M34.895 47.988v-4.843h-4.843v4.843h4.843z" fill="#50E6FF"/><path d="M30.053 43.146v-4.843H25.21v4.843h4.842z" fill="#50E6FF"/><path d="M34.895 47.988v-4.843h-4.843v4.843h4.843zM22.79 35.883V31.04h-4.842v4.843h4.842z" fill="#50E6FF"/><path d="M17.947 31.04v-4.842h-4.842v4.842h4.842z" fill="#0078D4"/><path d="M22.79 43.146v-4.843h-4.842v4.843h4.842z" fill="#50E6FF"/><path d="M17.947 47.988v-4.843h-4.842v4.843h4.842zM47 35.882v-9.684h-9.684v9.684H47z" fill="#0078D4"/><path d="M10.684 23.777v-9.684H1v9.684h9.684zM10.684 11.672V1.988H1v9.684h9.684zM10.684 47.988v-9.684H1v9.684h9.684zM10.684 35.882v-9.684H1v9.684h9.684z" fill="#50E6FF"/><path d="M47 47.988v-9.684h-9.684v9.684H47zM47 23.777v-9.684h-9.684v9.684H47zM47 11.672V1.988h-9.684v9.684H47z" fill="#0078D4"/></svg>