<svg xmlns="http://www.w3.org/2000/svg" viewBox="0 0 49 49"><path d="M10.144 38.277H.054v10.091h10.09v-10.09zM22.758 38.277H12.667v10.091h10.091v-10.09zM35.372 38.277H25.28v10.091h10.09v-10.09zM47.986 38.277H37.895v10.091h10.09v-10.09zM10.144 25.664H.054v10.091h10.09v-10.09zM22.758 25.664H12.667v10.091h10.091v-10.09zM35.372 25.664H25.28v10.091h10.09v-10.09zM47.986 25.664H37.895v10.091h10.09v-10.09zM22.758 8.004H12.667v10.091h10.091V8.004zM10.144 5.48H.054v10.092h10.09V5.48zM35.372 10.527H25.28V20.62h10.09V10.527zM47.986 13.05H37.895v10.092h10.09V13.05z" fill="#0078D4"/></svg>