<svg xmlns="http://www.w3.org/2000/svg" viewBox="0 0 49 49"><path d="M17.851 31.303H.167v5.053h17.684v12.631h5.053V18.671H17.85v12.632zM30.482 23.725h5.053V.988H17.85V6.04h12.631v17.685zM35.536 43.934v-7.579h-5.053v12.632h17.685v-5.053H35.536z" fill="#0078D4"/><path d="M48.167 6.039h-5.053v30.315h5.053V6.04zM10.272 43.937H.167v5.053h10.105v-5.053zM.167.988V6.04H5.22v17.685h5.052V.988H.167zM20.377 16.146a2.526 2.526 0 100-5.053 2.526 2.526 0 000 5.053zM33.01 31.302a2.526 2.526 0 100-5.052 2.526 2.526 0 000 5.052z" fill="#50E6FF"/></svg>