<svg xmlns="http://www.w3.org/2000/svg" viewBox="0 0 49 50"><path d="M10.241.886H.008v10.233H10.24V.886zm12.792 0H12.8v10.233h10.233V.886zm12.783 0H25.583v10.233h10.233V.886zm12.792 0H38.375v10.233h10.233V.886zM10.242 13.679H.008v10.233h10.234V13.679zm12.791 0H12.8v10.233h10.233V13.679zm12.783 0H25.583v10.233h10.233V13.679zm12.792 0H38.375v10.233h10.233V13.679z" fill="#0078D4"/><path d="M5.125 26.468a5.12 5.12 0 00-5.117 5.116 5.12 5.12 0 005.117 5.117 5.12 5.12 0 005.117-5.117 5.115 5.115 0 00-5.117-5.116zm12.791 10.225a5.12 5.12 0 01-5.116-5.117 5.12 5.12 0 015.116-5.117 5.12 5.12 0 015.117 5.117 5.12 5.12 0 01-5.117 5.117zM30.7 26.468a5.12 5.12 0 00-5.117 5.116 5.12 5.12 0 005.117 5.117 5.12 5.12 0 005.116-5.117 5.11 5.11 0 00-5.116-5.116zm12.791 0a5.12 5.12 0 00-5.117 5.116 5.12 5.12 0 005.117 5.117 5.12 5.12 0 005.117-5.117 5.115 5.115 0 00-5.117-5.116z" fill="#50E6FF"/><path d="M10.242 39.252H.008v10.233h10.234V39.252zm12.791 0H12.8v10.233h10.233V39.252zm12.783 0H25.583v10.233h10.233V39.252zm12.792 0H38.375v10.233h10.233V39.252z" fill="#0078D4"/></svg>