<svg xmlns="http://www.w3.org/2000/svg" viewBox="0 0 48 49"><path d="M7.201.886h-7.2v7.2h7.2v-7.2zM17.398.886h-7.2v7.2h7.2v-7.2zM27.596.886h-7.2v7.2h7.2v-7.2zM37.802.886h-7.2v7.2h7.2v-7.2z" fill="#50E6FF"/><path d="M48 .886h-7.201v7.2h7.2v-7.2z" fill="#0078D4"/><path d="M7.2 11.085H0v7.2h7.2v-7.2zM17.399 11.085h-7.2v7.2h7.2v-7.2zM27.596 11.085h-7.2v7.2h7.2v-7.2z" fill="#50E6FF"/><path d="M48 11.085h-7.201v7.2h7.2v-7.2z" fill="#0078D4"/><path d="M7.2 21.288H0v7.2h7.2v-7.2zM17.399 21.288h-7.2v7.2h7.2v-7.2z" fill="#50E6FF"/><path d="M37.802 21.288h-7.2v7.2h7.2v-7.2zM48 21.288h-7.201v7.2h7.2v-7.2z" fill="#0078D4"/><path d="M7.2 31.487H0v7.2h7.2v-7.2z" fill="#50E6FF"/><path d="M17.398 31.487h-7.2v7.2h7.2v-7.2zM27.596 31.487h-7.2v7.2h7.2v-7.2zM48 31.487h-7.201v7.2h7.2v-7.2zM7.2 41.686H0v7.2h7.2v-7.2zM17.399 41.686h-7.2v7.2h7.2v-7.2zM27.596 41.686h-7.2v7.2h7.2v-7.2zM37.802 41.686h-7.2v7.2h7.2v-7.2zM48 41.686h-7.201v7.2h7.2v-7.2zM37.802 11.085h-7.2v7.2h7.2v-7.2zM27.596 21.288h-7.2v7.2h7.2v-7.2zM37.802 31.487h-7.2v7.2h7.2v-7.2z" fill="#0078D4"/></svg>