<svg xmlns="http://www.w3.org/2000/svg" viewBox="0 0 48 49"><path d="M3.75 3.136c0 .826-.674 1.5-1.5 1.5s-1.5-.674-1.5-1.5.674-1.5 1.5-1.5 1.5.674 1.5 1.5zM12.447 3.136c0 .826-.674 1.5-1.5 1.5s-1.5-.674-1.5-1.5.674-1.5 1.5-1.5 1.5.674 1.5 1.5zM21.152 3.136c0 .826-.674 1.5-1.5 1.5s-1.5-.674-1.5-1.5.674-1.5 1.5-1.5 1.5.674 1.5 1.5z" fill="#0078D4"/><path d="M30 3.136c0 .826-.674 1.5-1.5 1.5s-1.5-.674-1.5-1.5.674-1.5 1.5-1.5 1.5.674 1.5 1.5z" fill="#50E6FF"/><path d="M39 3.136c0 .826-.674 1.5-1.5 1.5s-1.5-.674-1.5-1.5.674-1.5 1.5-1.5 1.5.674 1.5 1.5zM47.25 3.136c0 .826-.674 1.5-1.5 1.5s-1.5-.674-1.5-1.5.674-1.5 1.5-1.5 1.5.674 1.5 1.5zM3.75 11.832c0 .825-.674 1.5-1.5 1.5s-1.5-.675-1.5-1.5c0-.826.674-1.5 1.5-1.5s1.5.674 1.5 1.5zM12.447 11.832c0 .825-.674 1.5-1.5 1.5s-1.5-.675-1.5-1.5c0-.826.674-1.5 1.5-1.5s1.5.674 1.5 1.5zM21.902 11.832a2.255 2.255 0 01-2.25 2.25 2.255 2.255 0 01-2.25-2.25 2.255 2.255 0 012.25-2.25 2.255 2.255 0 012.25 2.25z" fill="#0078D4"/><path d="M30.75 11.832a2.255 2.255 0 01-2.25 2.25 2.255 2.255 0 01-2.25-2.25 2.25 2.25 0 114.5 0z" fill="#50E6FF"/><path d="M39.75 11.832a2.255 2.255 0 01-2.25 2.25 2.255 2.255 0 01-2.25-2.25 2.25 2.25 0 114.5 0zM48 11.832a2.255 2.255 0 01-2.25 2.25 2.255 2.255 0 01-2.25-2.25 2.25 2.25 0 114.5 0zM3.75 20.539c0 .825-.674 1.5-1.5 1.5s-1.5-.675-1.5-1.5c0-.826.674-1.5 1.5-1.5s1.5.665 1.5 1.5zM13.197 20.539a2.255 2.255 0 01-2.25 2.25 2.255 2.255 0 01-2.25-2.25 2.25 2.25 0 114.5 0z" fill="#0078D4"/><path d="M21.902 20.539a2.255 2.255 0 01-2.25 2.25 2.255 2.255 0 01-2.25-2.25 2.25 2.25 0 114.5 0zM31.5 20.539c0 1.66-1.34 3-3 3s-3-1.34-3-3 1.34-3 3-3 3 1.34 3 3zM39.75 20.539a2.255 2.255 0 01-2.25 2.25 2.255 2.255 0 01-2.25-2.25 2.255 2.255 0 012.25-2.25 2.244 2.244 0 012.25 2.25z" fill="#50E6FF"/><path d="M48 20.539a2.255 2.255 0 01-2.25 2.25 2.255 2.255 0 01-2.25-2.25 2.255 2.255 0 012.25-2.25 2.244 2.244 0 012.25 2.25zM3.75 29.386c0 .826-.674 1.5-1.5 1.5s-1.5-.674-1.5-1.5.674-1.5 1.5-1.5 1.5.674 1.5 1.5z" fill="#0078D4"/><path d="M13.197 29.386a2.255 2.255 0 01-2.25 2.25 2.255 2.255 0 01-2.25-2.25 2.255 2.255 0 012.25-2.25 2.255 2.255 0 012.25 2.25zM22.652 29.386c0 1.66-1.34 3-3 3s-3-1.34-3-3 1.34-3 3-3 3 1.34 3 3zM33 29.386a4.5 4.5 0 01-4.5 4.5 4.5 4.5 0 01-4.5-4.5 4.5 4.5 0 014.5-4.5 4.5 4.5 0 014.5 4.5zM40.5 29.386c0 1.66-1.34 3-3 3s-3-1.34-3-3 1.34-3 3-3 3 1.34 3 3zM47.25 29.386c0 .826-.674 1.5-1.5 1.5s-1.5-.674-1.5-1.5.674-1.5 1.5-1.5 1.5.674 1.5 1.5z" fill="#50E6FF"/><path d="M3.75 37.94c0 .827-.674 1.5-1.5 1.5s-1.5-.673-1.5-1.5c0-.825.674-1.5 1.5-1.5s1.5.667 1.5 1.5zM12.447 37.94c0 .827-.674 1.5-1.5 1.5s-1.5-.673-1.5-1.5c0-.825.674-1.5 1.5-1.5s1.5.667 1.5 1.5z" fill="#0078D4"/><path d="M21.902 37.94a2.255 2.255 0 01-2.25 2.25 2.255 2.255 0 01-2.25-2.25 2.25 2.25 0 114.5 0zM31.5 37.94c0 1.661-1.34 3-3 3s-3-1.339-3-3c0-1.66 1.34-3 3-3s3 1.34 3 3zM39.75 38.226a2.255 2.255 0 01-2.25 2.25 2.255 2.255 0 01-2.25-2.25 2.25 2.25 0 114.5 0zM47.25 37.94c0 .827-.674 1.5-1.5 1.5s-1.5-.673-1.5-1.5c0-.825.674-1.5 1.5-1.5s1.5.667 1.5 1.5z" fill="#50E6FF"/><path d="M3.75 46.636c0 .826-.674 1.5-1.5 1.5s-1.5-.674-1.5-1.5.674-1.5 1.5-1.5 1.5.674 1.5 1.5zM12.447 46.636c0 .826-.674 1.5-1.5 1.5s-1.5-.674-1.5-1.5.674-1.5 1.5-1.5 1.5.674 1.5 1.5zM21.902 46.636a2.255 2.255 0 01-2.25 2.25 2.255 2.255 0 01-2.25-2.25 2.255 2.255 0 012.25-2.25 2.255 2.255 0 012.25 2.25z" fill="#0078D4"/><path d="M30.75 46.636a2.255 2.255 0 01-2.25 2.25 2.255 2.255 0 01-2.25-2.25 2.25 2.25 0 114.5 0z" fill="#50E6FF"/><path d="M39.75 46.636a2.255 2.255 0 01-2.25 2.25 2.255 2.255 0 01-2.25-2.25 2.25 2.25 0 114.5 0z" fill="#0078D4"/><path d="M47.25 46.636c0 .826-.674 1.5-1.5 1.5s-1.5-.674-1.5-1.5.674-1.5 1.5-1.5 1.5.674 1.5 1.5z" fill="#50E6FF"/></svg>