<svg xmlns="http://www.w3.org/2000/svg" viewBox="0 0 49 49"><path d="M7.22.41H.02v7.2h7.2V.41zM17.418.41h-7.2v7.2h7.2V.41zM27.616.41h-7.201v7.2h7.2V.41zM37.822.41h-7.2v7.2h7.2V.41z" fill="#50E6FF"/><path d="M48.02.41h-7.202v7.2h7.201V.41z" fill="#0078D4"/><path d="M7.22 10.61H.02v7.2h7.2v-7.2zM17.419 10.61h-7.201v7.2h7.2v-7.2zM27.616 10.61h-7.201v7.2h7.2v-7.2z" fill="#50E6FF"/><path d="M48.02 10.61h-7.202v7.2h7.201v-7.2z" fill="#0078D4"/><path d="M7.22 20.813H.02v7.2h7.2v-7.2zM17.419 20.813h-7.201v7.2h7.2v-7.2z" fill="#50E6FF"/><path d="M37.822 20.813h-7.2v7.2h7.2v-7.2zM48.02 20.813h-7.202v7.2h7.201v-7.2z" fill="#0078D4"/><path d="M7.22 31.012H.02v7.2h7.2v-7.2z" fill="#50E6FF"/><path d="M17.418 31.012h-7.2v7.2h7.2v-7.2zM27.616 31.012h-7.201v7.2h7.2v-7.2zM48.02 31.012h-7.202v7.2h7.201v-7.2zM7.22 41.21H.02v7.201h7.2v-7.2zM17.419 41.21h-7.201v7.201h7.2v-7.2zM27.616 41.21h-7.201v7.201h7.2v-7.2zM37.822 41.21h-7.2v7.201h7.2v-7.2zM48.02 41.21h-7.202v7.201h7.201v-7.2zM37.822 10.61h-7.2v7.2h7.2v-7.2zM27.616 20.813h-7.201v7.2h7.2v-7.2zM37.822 31.012h-7.2v7.2h7.2v-7.2z" fill="#0078D4"/></svg>