<svg xmlns="http://www.w3.org/2000/svg" viewBox="0 0 49 49"><path d="M24.129 46.57L4.07 34.796l1.283-2.178 18.783 11.016L42.49 33.031l1.267 2.195L24.129 46.57z" fill="#50E6FF"/><path d="M24.13 35.544L4.071 23.776l1.283-2.186 18.783 11.024L42.49 22.012l1.266 2.195L24.13 35.544z" fill="#50E6FF"/><path d="M24.13 26.055L4.071 14.288l1.283-2.186 18.783 11.024L42.49 12.524l1.266 2.194L24.13 26.055z" fill="#50E6FF"/><path d="M24.129 16.172L4.07 4.397l1.283-2.178 18.783 11.016L42.49 2.632l1.267 2.195-19.627 11.345z" fill="#50E6FF"/><path d="M7.22.41H.02v7.2h7.2V.41z" fill="#0078D4"/><path d="M27.616.41h-7.201v7.2h7.2V.41zM48.02.41h-7.202v7.2h7.201V.41z" fill="#50E6FF"/><path d="M7.22 10.61H.02v7.2h7.2v-7.2z" fill="#0078D4"/><path d="M27.616 10.61h-7.201v7.2h7.2v-7.2z" fill="#50E6FF"/><path d="M48.02 10.61h-7.202v7.2h7.201v-7.2z" fill="#0078D4"/><path d="M7.22 20.813H.02v7.2h7.2v-7.2z" fill="#50E6FF"/><path d="M48.02 20.813h-7.202v7.2h7.201v-7.2z" fill="#0078D4"/><path d="M7.22 31.012H.02v7.2h7.2v-7.2z" fill="#50E6FF"/><path d="M27.616 31.012h-7.201v7.2h7.2v-7.2zM48.02 31.012h-7.202v7.2h7.201v-7.2z" fill="#0078D4"/><path d="M7.22 41.21H.02v7.201h7.2v-7.2z" fill="#50E6FF"/><path d="M27.616 41.21h-7.201v7.201h7.2v-7.2zM48.02 41.21h-7.202v7.201h7.201v-7.2z" fill="#0078D4"/><path d="M27.616 20.813h-7.201v7.2h7.2v-7.2z" fill="#50E6FF"/></svg>