<svg xmlns="http://www.w3.org/2000/svg" viewBox="0 0 48 49"><path d="M5.053 0H0v12.21h5.053V0zm7.157 0H7.159v26.526h5.053V0zm14.317 0h-12.21v12.21h12.21V0zm7.157 14.316H28.63v26.527h5.053V14.316zm0-14.316H28.63v12.21h5.053V0zM48 0H35.79v5.053H48V0zm-7.158 7.16h-5.053v19.37h5.053V7.16zm7.158 0h-5.053v19.37H48V7.16zm-21.473 7.156h-12.21v5.053h12.21v-5.053zm-7.157 7.157h-5.054V40.84h5.053V21.473zm7.157 0h-5.052v12.21h5.052v-12.21zm0 14.317h-5.052V48h5.052V35.79z" fill="#0078D4"/><path d="M12.21 28.633H0V48h12.21V28.633z" fill="#50E6FF"/><path d="M5.053 14.316H0v12.211h5.053v-12.21zM48 28.633H35.79v12.21H48v-12.21zm0 14.317H28.63v5.052H48v-5.053zm-28.63 0h-5.054v5.052h5.053v-5.053z" fill="#0078D4"/></svg>