<svg xmlns="http://www.w3.org/2000/svg" viewBox="0 0 49 49"><path d="M3.77 2.66c0 .826-.675 1.5-1.5 1.5-.826 0-1.5-.674-1.5-1.5s.674-1.5 1.5-1.5c.825 0 1.5.674 1.5 1.5zM12.466 2.66c0 .826-.674 1.5-1.5 1.5-.825 0-1.5-.674-1.5-1.5s.675-1.5 1.5-1.5c.826 0 1.5.674 1.5 1.5zM21.171 2.66c0 .826-.674 1.5-1.5 1.5-.825 0-1.5-.674-1.5-1.5s.675-1.5 1.5-1.5c.826 0 1.5.674 1.5 1.5z" fill="#0078D4"/><path d="M30.02 2.66c0 .826-.675 1.5-1.5 1.5-.826 0-1.5-.674-1.5-1.5s.674-1.5 1.5-1.5c.825 0 1.5.674 1.5 1.5z" fill="#50E6FF"/><path d="M39.02 2.66c0 .826-.675 1.5-1.5 1.5-.826 0-1.5-.674-1.5-1.5s.674-1.5 1.5-1.5c.825 0 1.5.674 1.5 1.5zM47.27 2.66c0 .826-.675 1.5-1.5 1.5-.826 0-1.5-.674-1.5-1.5s.674-1.5 1.5-1.5c.825 0 1.5.674 1.5 1.5zM3.77 11.355c0 .826-.675 1.5-1.5 1.5-.826 0-1.5-.674-1.5-1.5 0-.825.674-1.5 1.5-1.5.825 0 1.5.675 1.5 1.5zM12.467 11.355c0 .826-.674 1.5-1.5 1.5s-1.5-.674-1.5-1.5c0-.825.674-1.5 1.5-1.5s1.5.675 1.5 1.5zM21.922 11.355a2.255 2.255 0 01-2.25 2.25 2.255 2.255 0 01-2.25-2.25 2.255 2.255 0 012.25-2.25 2.255 2.255 0 012.25 2.25z" fill="#0078D4"/><path d="M30.77 11.355a2.255 2.255 0 01-2.25 2.25 2.255 2.255 0 01-2.25-2.25 2.25 2.25 0 114.5 0z" fill="#50E6FF"/><path d="M39.77 11.355a2.255 2.255 0 01-2.25 2.25 2.255 2.255 0 01-2.25-2.25 2.25 2.25 0 114.5 0zM48.02 11.355a2.255 2.255 0 01-2.25 2.25 2.255 2.255 0 01-2.25-2.25 2.25 2.25 0 114.5 0zM3.77 20.063c0 .825-.675 1.5-1.5 1.5-.826 0-1.5-.675-1.5-1.5 0-.826.674-1.5 1.5-1.5.825 0 1.5.665 1.5 1.5zM13.216 20.063a2.255 2.255 0 01-2.25 2.25 2.255 2.255 0 01-2.25-2.25 2.25 2.25 0 114.5 0z" fill="#0078D4"/><path d="M21.922 20.063a2.255 2.255 0 01-2.25 2.25 2.255 2.255 0 01-2.25-2.25 2.25 2.25 0 114.5 0zM31.52 20.063c0 1.66-1.34 3-3 3s-3-1.34-3-3 1.34-3 3-3 3 1.34 3 3zM39.77 20.063a2.255 2.255 0 01-2.25 2.25 2.255 2.255 0 01-2.25-2.25 2.255 2.255 0 012.25-2.25 2.244 2.244 0 012.25 2.25z" fill="#50E6FF"/><path d="M48.02 20.063a2.255 2.255 0 01-2.25 2.25 2.255 2.255 0 01-2.25-2.25 2.255 2.255 0 012.25-2.25 2.244 2.244 0 012.25 2.25zM3.77 28.91c0 .826-.675 1.5-1.5 1.5-.826 0-1.5-.674-1.5-1.5s.674-1.5 1.5-1.5c.825 0 1.5.674 1.5 1.5z" fill="#0078D4"/><path d="M13.216 28.91a2.255 2.255 0 01-2.25 2.25 2.255 2.255 0 01-2.25-2.25 2.255 2.255 0 012.25-2.25 2.255 2.255 0 012.25 2.25zM22.671 28.91c0 1.66-1.34 3-3 3s-3-1.34-3-3 1.34-3 3-3 3 1.34 3 3zM33.02 28.91a4.5 4.5 0 01-4.5 4.5 4.5 4.5 0 01-4.5-4.5 4.5 4.5 0 014.5-4.5 4.5 4.5 0 014.5 4.5zM40.52 28.91c0 1.66-1.34 3-3 3s-3-1.34-3-3 1.34-3 3-3 3 1.34 3 3zM47.27 28.91c0 .826-.675 1.5-1.5 1.5-.826 0-1.5-.674-1.5-1.5s.674-1.5 1.5-1.5c.825 0 1.5.674 1.5 1.5z" fill="#50E6FF"/><path d="M3.77 37.465c0 .826-.675 1.5-1.5 1.5-.826 0-1.5-.674-1.5-1.5s.674-1.5 1.5-1.5c.825 0 1.5.666 1.5 1.5zM12.467 37.465c0 .826-.674 1.5-1.5 1.5s-1.5-.674-1.5-1.5.674-1.5 1.5-1.5 1.5.666 1.5 1.5z" fill="#0078D4"/><path d="M21.922 37.465a2.255 2.255 0 01-2.25 2.25 2.255 2.255 0 01-2.25-2.25 2.25 2.25 0 114.5 0zM31.52 37.465c0 1.66-1.34 3-3 3s-3-1.34-3-3 1.34-3 3-3 3 1.34 3 3zM39.77 37.75A2.255 2.255 0 0137.52 40a2.255 2.255 0 01-2.25-2.25 2.25 2.25 0 114.5 0zM47.27 37.465c0 .826-.675 1.5-1.5 1.5-.826 0-1.5-.674-1.5-1.5s.674-1.5 1.5-1.5c.825 0 1.5.666 1.5 1.5z" fill="#50E6FF"/><path d="M3.77 46.16c0 .826-.675 1.5-1.5 1.5-.826 0-1.5-.674-1.5-1.5s.674-1.5 1.5-1.5c.825 0 1.5.674 1.5 1.5zM12.466 46.16c0 .826-.674 1.5-1.5 1.5-.825 0-1.5-.674-1.5-1.5s.675-1.5 1.5-1.5c.826 0 1.5.674 1.5 1.5zM21.922 46.16a2.255 2.255 0 01-2.25 2.25 2.255 2.255 0 01-2.25-2.25 2.255 2.255 0 012.25-2.25 2.255 2.255 0 012.25 2.25z" fill="#0078D4"/><path d="M30.77 46.16a2.255 2.255 0 01-2.25 2.25 2.255 2.255 0 01-2.25-2.25 2.25 2.25 0 114.5 0z" fill="#50E6FF"/><path d="M39.77 46.16a2.255 2.255 0 01-2.25 2.25 2.255 2.255 0 01-2.25-2.25 2.25 2.25 0 114.5 0z" fill="#0078D4"/><path d="M47.27 46.16c0 .826-.675 1.5-1.5 1.5-.826 0-1.5-.674-1.5-1.5s.674-1.5 1.5-1.5c.825 0 1.5.674 1.5 1.5z" fill="#50E6FF"/></svg>