<svg xmlns="http://www.w3.org/2000/svg" viewBox="0 0 48 49"><path d="M19.405.878H0v7.579h19.405V.877zM0 11v7.545h19.414V11H0zm19.405 10.056H0v7.604h19.405v-7.604zm0 10.137H0v7.579h19.405v-7.579zm0 10.107H0v7.578h19.405v-7.579zM41.26.878h-2.543v7.579h2.544V.877zm0 10.112h-2.543v7.545h2.544V10.99zm0 10.047h-2.543v7.604h2.544v-7.604zm0 10.14h-2.543v7.58h2.544v-7.58zm0 10.113h-2.543v7.579h2.544v-7.58zM32.856.878h-7.597v7.579h7.597V.877zm0 10.122h-7.597v7.545h7.597V11zm0 10.056h-7.597v7.604h7.597v-7.604zm0 10.137h-7.597v7.579h7.597v-7.579zm0 10.107h-7.597v7.578h7.597v-7.579z" fill="#0078D4"/><path d="M23.498.878h-2.383v47.999h2.383v-48zm13.468 0h-2.383v47.999h2.383v-48zm8.372 0h-2.384v47.999h2.384v-48z" fill="#50E6FF"/></svg>