<svg xmlns="http://www.w3.org/2000/svg" viewBox="0 0 49 49"><path d="M2.546 5.463A2.523 2.523 0 01.02 2.936 2.523 2.523 0 012.546.41a2.523 2.523 0 012.526 2.526 2.534 2.534 0 01-2.526 2.527zM12.23.41H7.178v5.053h5.052V.41zM19.372.41H14.32v5.053h5.052V.41zM26.547.41h-5.053v5.053h5.053V.41zM33.703.41H28.65v5.053h5.053V.41zM38.335 5.463a2.523 2.523 0 01-2.526-2.527A2.523 2.523 0 0138.335.41a2.523 2.523 0 012.526 2.526 2.534 2.534 0 01-2.526 2.527zM45.493 5.463a2.523 2.523 0 01-2.526-2.527A2.523 2.523 0 0145.493.41a2.523 2.523 0 012.526 2.526 2.534 2.534 0 01-2.526 2.527zM5.072 7.57H.02v5.053h5.052V7.57zM12.23 7.57H7.178v5.053h5.052V7.57zM19.373 7.57H14.32v5.053h5.053V7.57z" fill="#0078D4"/><path d="M26.547 7.57h-5.053v5.053h5.053V7.57z" fill="#50E6FF"/><path d="M33.703 7.57H28.65v5.053h5.053V7.57zM38.335 12.623a2.523 2.523 0 01-2.526-2.526 2.523 2.523 0 012.526-2.527 2.523 2.523 0 012.526 2.527 2.534 2.534 0 01-2.526 2.526zM48.02 7.57h-5.053v5.053h5.053V7.57zM5.072 14.727H.02v5.052h5.052v-5.052zM12.23 14.727H7.178v5.052h5.052v-5.052z" fill="#0078D4"/><path d="M19.373 14.727H14.32v5.052h5.053v-5.052zM26.547 14.727h-5.053v5.052h5.053v-5.052zM33.703 14.727H28.65v5.052h5.053v-5.052z" fill="#50E6FF"/><path d="M40.861 14.727H35.81v5.052h5.052v-5.052zM48.02 14.727h-5.053v5.052h5.053v-5.052zM5.072 21.883H.02v5.052h5.052v-5.052z" fill="#0078D4"/><path d="M12.23 21.883H7.178v5.052h5.052v-5.052zM19.373 21.883H14.32v5.052h5.053v-5.052zM24.02 26.935a2.523 2.523 0 01-2.526-2.526 2.523 2.523 0 012.526-2.526 2.523 2.523 0 012.527 2.526 2.534 2.534 0 01-2.527 2.526zM33.703 21.883H28.65v5.052h5.053v-5.052zM40.861 21.883H35.81v5.052h5.052v-5.052z" fill="#50E6FF"/><path d="M48.02 21.883h-5.053v5.052h5.053v-5.052zM5.072 29.04H.02v5.052h5.052v-5.053zM12.23 29.04H7.178v5.052h5.052v-5.053z" fill="#0078D4"/><path d="M16.847 34.092a2.523 2.523 0 01-2.527-2.527 2.523 2.523 0 012.527-2.526 2.523 2.523 0 012.526 2.526 2.534 2.534 0 01-2.526 2.527zM26.547 29.04h-5.053v5.052h5.053v-5.053zM33.703 29.04H28.65v5.052h5.053v-5.053z" fill="#50E6FF"/><path d="M38.335 34.092a2.523 2.523 0 01-2.526-2.527 2.523 2.523 0 012.526-2.526 2.523 2.523 0 012.526 2.526 2.534 2.534 0 01-2.526 2.527zM48.02 29.04h-5.053v5.052h5.053v-5.053zM5.072 36.2H.02v5.052h5.052v-5.053zM12.23 36.2H7.178v5.052h5.052v-5.053zM19.373 36.2H14.32v5.052h5.053v-5.053z" fill="#0078D4"/><path d="M24.02 41.252a2.523 2.523 0 01-2.526-2.527A2.523 2.523 0 0124.02 36.2a2.523 2.523 0 012.527 2.526 2.534 2.534 0 01-2.527 2.527z" fill="#50E6FF"/><path d="M33.703 36.2H28.65v5.052h5.053v-5.053zM40.861 36.2H35.81v5.052h5.052v-5.053zM48.02 36.2h-5.053v5.052h5.053v-5.053zM5.072 43.36H.02v5.052h5.052v-5.053zM12.23 43.36H7.178v5.052h5.052v-5.053zM19.373 43.36H14.32v5.052h5.053v-5.053zM26.547 43.36h-5.053v5.052h5.053v-5.053zM33.703 43.36H28.65v5.052h5.053v-5.053zM38.335 48.412a2.523 2.523 0 01-2.526-2.526 2.523 2.523 0 012.526-2.527 2.523 2.523 0 012.526 2.527 2.534 2.534 0 01-2.526 2.526zM48.02 43.36h-5.053v5.052h5.053v-5.053z" fill="#0078D4"/></svg>