<svg xmlns="http://www.w3.org/2000/svg" viewBox="0 0 49 50"><path d="M41.339.894l1.807 1.808-4.724 4.723 3.616 3.616 4.724-4.724 1.807 1.808V.894h-7.23zM43.146 15.467l-4.724 4.724 3.616 3.615 4.724-4.724 1.807 1.816v-7.24h-7.23l1.807 1.809z" fill="#0078D4"/><path d="M41.339 26.424l1.807 1.808-4.724 4.724 3.616 3.615 4.724-4.715 1.807 1.807v-7.24h-7.23zM41.339 39.268l1.807 1.808-4.724 4.724 3.616 3.615 4.724-4.715 1.807 1.807v-7.239h-7.23z" fill="#50E6FF"/><path d="M10.214.894H2.975l1.816 1.808L.067 7.425l3.616 3.616 4.724-4.724 1.807 1.808V.894zM10.215 13.659H2.976l1.816 1.808L.068 20.19l3.616 3.615 4.724-4.724 1.807 1.816v-7.24z" fill="#0078D4"/><path d="M10.215 26.424H2.976l1.816 1.808-4.724 4.724 3.616 3.615 4.724-4.715 1.807 1.807v-7.24zM10.215 39.268H2.976l1.816 1.808L.068 45.8l3.616 3.615L8.408 44.7l1.807 1.807v-7.239zM25.466 26.465v10.232h10.232V26.465H25.466z" fill="#50E6FF"/><path d="M35.694 18.775a5.12 5.12 0 01-5.116 5.116 5.12 5.12 0 01-5.117-5.116 5.12 5.12 0 015.117-5.116 5.115 5.115 0 015.116 5.116z" fill="#0078D4"/><path d="M22.903 31.576a5.12 5.12 0 01-5.116 5.116 5.12 5.12 0 01-5.116-5.116 5.12 5.12 0 015.116-5.117 5.115 5.115 0 015.116 5.117z" fill="#50E6FF"/><path d="M35.694.878H25.46V11.11h10.233V.878zM22.903 5.994a5.12 5.12 0 01-5.116 5.116 5.12 5.12 0 01-5.116-5.116A5.12 5.12 0 0117.787.878a5.115 5.115 0 015.116 5.116zM22.903 13.659H12.671V23.89h10.232V13.66z" fill="#0078D4"/><path d="M35.694 44.364a5.12 5.12 0 01-5.116 5.117 5.12 5.12 0 01-5.117-5.117 5.12 5.12 0 015.117-5.116 5.115 5.115 0 015.116 5.117zM12.675 39.253v10.233h10.233V39.253H12.675z" fill="#50E6FF"/></svg>