<svg xmlns="http://www.w3.org/2000/svg" viewBox="0 0 48 49"><path d="M10.125 38.753H.034v10.091h10.09V38.753zM22.739 38.753H12.648v10.091h10.09V38.753zM35.352 38.753h-10.09v10.091h10.09V38.753zM47.966 38.753H37.875v10.091h10.091V38.753zM10.125 26.14H.034v10.09h10.09V26.14zM22.739 26.14H12.648v10.09h10.09V26.14zM35.352 26.14h-10.09v10.09h10.09V26.14zM47.966 26.14H37.875v10.09h10.091V26.14zM22.739 8.48H12.648v10.09h10.09V8.48zM10.125 5.956H.034v10.091h10.09V5.957zM35.352 11.003h-10.09v10.091h10.09V11.003zM47.966 13.526H37.875v10.091h10.091v-10.09z" fill="#0078D4"/></svg>