<svg xmlns="http://www.w3.org/2000/svg" viewBox="0 0 49 49"><path d="M7.617.088H.055V7.65h7.562V.088zM48.054.088H12.686v7.545h35.368V.088zM7.617 12.703H.055v7.562h7.562v-7.562zM48.054 12.71H12.686v7.546h35.368v-7.545zM7.617 25.334H.055v7.562h7.562v-7.562zM48.054 25.351H12.686v7.545h35.368v-7.545zM7.617 37.932H.055v7.562h7.562v-7.562zM48.054 37.94H12.686v7.546h35.368V37.94z" fill="#0078D4"/><path d="M17.705.088h-5.019v7.545h5.019V.088zM17.705 12.71h-5.019v7.546h5.019v-7.545zM17.705 25.351h-5.019v7.545h5.019v-7.545zM17.705 37.94h-5.019v7.546h5.019V37.94zM5.116.088H.055v7.545h5.06V.088zM5.116 12.71H.055v7.546h5.06v-7.545zM5.116 25.351H.055v7.545h5.06v-7.545zM5.116 37.94H.055v7.546h5.06V37.94z" fill="#50E6FF"/></svg>