<svg xmlns="http://www.w3.org/2000/svg" viewBox="0 0 48 49"><path d="M0 48.988h48v-48H0v48z" fill="#0078D4"/><path d="M15.188 33.78h-5.104v5.072h5.104v-5.071zM22.762 33.78h-5.105v5.072h5.105v-5.071zM30.242 33.78h-5.105v5.072h5.105v-5.071zM15.188 26.203h-5.104v5.07h5.104v-5.07zM22.762 26.203h-5.105v5.07h5.105v-5.07zM15.188 18.617h-5.104v5.071h5.104v-5.071z" fill="#50E6FF"/><path d="M15.188 10.953h-5.104v5.07h5.104v-5.07zM22.762 18.617h-5.105v5.071h5.105v-5.071zM30.242 26.203h-5.105v5.07h5.105v-5.07zM37.959 33.78h-5.106v5.072h5.105v-5.071z" fill="#fff"/></svg>