<svg xmlns="http://www.w3.org/2000/svg" viewBox="0 0 49 49"><path d="M16.19 16.709v4.962h4.963V16.71H16.19z" fill="#0078D4"/><path d="M8.758 16.709v4.962h4.963V16.71H8.758zm-5.08 2.494v2.485h2.485v-2.485H3.678zm7.515-7.524v2.485h2.486V11.68h-2.486zm7.432-7.491v2.486h2.485V4.188h-2.485z" fill="#50E6FF"/><path d="M8.75 24.157v4.962h4.963v-4.962H8.75z" fill="#0078D4"/><path d="M1.26 24.157v4.962h4.962v-4.962H1.26z" fill="#50E6FF"/><path d="M1.218 31.69v4.962H6.18v-4.963H1.218z" fill="#0078D4"/><path d="M38.61 9.16l-7.465.033v7.482H23.63v7.465h-7.465v7.49H8.683v7.482H1.218v7.507H48.56l.016-44.958H38.61v7.498z" fill="#0078D4"/><path d="M23.671 9.21v4.963h4.963V9.21h-4.963z" fill="#0078D4"/><path d="M16.19 9.21v4.963h4.963V9.21H16.19z" fill="#50E6FF"/><path d="M31.137 1.855v4.962h4.962V1.855h-4.962z" fill="#0078D4"/><path d="M23.646 1.855v4.962h4.963V1.855h-4.963z" fill="#50E6FF"/><path d="M31.137 1.855v4.962h4.962V1.855h-4.962z" fill="#0078D4"/></svg>