<svg xmlns="http://www.w3.org/2000/svg" viewBox="0 0 49 49"><path d="M5.073.41H.02v5.053h5.053V.41zM5.072 7.57H.02v5.053h5.052V7.57z" fill="#50E6FF"/><path d="M26.547 7.57h-5.053v5.053h5.053V7.57z" fill="#0078D4"/><path d="M33.703 7.57H28.65v5.053h5.053V7.57zM5.072 14.727H.02v5.052h5.052v-5.052z" fill="#50E6FF"/><path d="M26.547 14.727h-5.053v5.052h5.053v-5.052z" fill="#0078D4"/><path d="M33.703 14.727H28.65v5.052h5.053v-5.052zM5.072 21.883H.02v5.052h5.052v-5.052z" fill="#50E6FF"/><path d="M12.23 21.883H7.178v5.052h5.052v-5.052z" fill="#0078D4"/><path d="M19.389 21.883h-5.053v5.052h5.053v-5.052z" fill="#50E6FF"/><path d="M26.547 21.883h-5.053v5.052h5.053v-5.052z" fill="#0078D4"/><path d="M33.703 21.883H28.65v5.052h5.053v-5.052zM5.072 29.043H.02v5.052h5.052v-5.052z" fill="#50E6FF"/><path d="M12.23 29.043H7.178v5.052h5.052v-5.052z" fill="#0078D4"/><path d="M19.389 29.043h-5.053v5.052h5.053v-5.052z" fill="#50E6FF"/><path d="M26.547 29.043h-5.053v5.052h5.053v-5.052z" fill="#0078D4"/><path d="M33.703 29.043H28.65v5.052h5.053v-5.052zM5.072 36.2H.02v5.052h5.052v-5.053z" fill="#50E6FF"/><path d="M12.23 36.2H7.178v5.052h5.052v-5.053z" fill="#0078D4"/><path d="M19.389 36.2h-5.053v5.052h5.053v-5.053z" fill="#50E6FF"/><path d="M26.547 36.2h-5.053v5.052h5.053v-5.053z" fill="#0078D4"/><path d="M33.703 36.2H28.65v5.052h5.053v-5.053z" fill="#50E6FF"/><path d="M40.861 36.2H35.81v5.052h5.052v-5.053z" fill="#0078D4"/><path d="M48.02 36.2h-5.053v5.052h5.052v-5.053zM5.072 43.36H.02v5.052h5.052v-5.053z" fill="#50E6FF"/><path d="M12.23 43.36H7.178v5.052h5.052v-5.053z" fill="#0078D4"/><path d="M19.389 43.36h-5.053v5.052h5.053v-5.053z" fill="#50E6FF"/><path d="M26.547 43.36h-5.053v5.052h5.053v-5.053z" fill="#0078D4"/><path d="M33.703 43.36H28.65v5.052h5.053v-5.053z" fill="#50E6FF"/><path d="M40.861 43.36H35.81v5.052h5.052v-5.053z" fill="#0078D4"/><path d="M48.02 43.36h-5.053v5.052h5.052v-5.053z" fill="#50E6FF"/></svg>