<svg xmlns="http://www.w3.org/2000/svg" viewBox="0 0 48 49"><path d="M5.053.886H0v12.21h5.053V.886zm7.157 0H7.159v26.526h5.053V.886zm14.317 0h-12.21v12.21h12.21V.886zm7.157 14.316H28.63v26.525h5.053V15.202zm0-14.316H28.63v12.21h5.053V.886zM48 .886H35.788V5.94h12.21V.886zm-7.158 7.16h-5.053v19.368h5.053V8.046zm7.158 0h-5.053v19.368H48V8.046zm-21.473 7.156h-12.21v5.052h12.21v-5.052zm-7.158 7.156h-5.053v19.368h5.053V22.358zm7.158 0h-5.052v12.21h5.052v-12.21zm0 14.316h-5.052v12.21h5.052v-12.21z" fill="#0078D4"/><path d="M12.21 29.518H0v19.368h12.21V29.518z" fill="#50E6FF"/><path d="M5.053 15.202H0v12.21h5.053v-12.21zM48 29.518H35.788v12.21h12.21v-12.21zm0 14.316H28.63v5.052H48v-5.052zm-28.631 0h-5.053v5.052h5.053v-5.052z" fill="#0078D4"/></svg>