<svg xmlns="http://www.w3.org/2000/svg" viewBox="0 0 192 192"><path d="M34.316 93.517h5.9l9.37-15.506 14.229-23.26c-5.9-7.753-9.37-15.506-9.37-25.52H30.497L1 78.01l13.188 20.997c5.9-3.23 12.84-5.491 20.128-5.491zm45.116-28.751L57.915 99.978c9.37 6.784 15.27 15.506 16.658 26.489h17.005c1.735-19.382 13.535-36.504 30.193-46.518l-9.37-15.183c-10.759 4.522-22.558 4.522-32.97 0zm12.838 78.5H73.53c-3.47 8.722-9.37 17.767-19.087 21.967L65.202 183h54.832c-14.576-9.045-24.64-23.259-27.763-39.734zm65.246-72.686c12.146 0 23.252 2.908 32.969 8.077l.347-.323-29.499-48.457h-23.599c0 8.722-3.47 17.767-10.758 25.52l11.105 18.09c5.9-1.937 12.494-2.906 19.435-2.906z" fill="#fff"/><path d="M114.396 36.863c4.254-9.56-.623-20.521-10.894-24.481-10.27-3.96-22.045.58-26.3 10.14-4.254 9.56.624 20.52 10.894 24.48 10.27 3.961 22.046-.579 26.3-10.14zm43.118 114.156c11.117 0 20.129-8.389 20.129-18.737 0-10.348-9.012-18.737-20.129-18.737-11.116 0-20.128 8.389-20.128 18.737 0 10.348 9.012 18.737 20.128 18.737zm-123.198 0c11.116 0 20.128-8.389 20.128-18.737 0-10.348-9.012-18.737-20.128-18.737-11.117 0-20.129 8.389-20.129 18.737 0 10.348 9.012 18.737 20.129 18.737z" fill="#59B3D8"/><path d="M137.735 73.165l3.123 4.846 9.37 15.506h5.9c7.288 0 14.229 2.261 20.128 5.492l13.882-20.675c-9.717-5.17-20.822-8.077-32.969-8.077-6.594.324-13.187 1.293-19.434 2.908z" fill="#fff"/><path d="M137.735 73.165l3.123 4.846 9.37 15.506h5.9c7.288 0 14.229 2.261 20.128 5.492l13.882-20.675c-9.717-5.17-20.822-8.077-32.969-8.077-6.594.324-13.187 1.293-19.434 2.908z" fill="#DEDEDE"/><path d="M119.687 183h4.512l10.758-17.767c-7.288-5.492-14.229-13.245-16.658-21.967H92.271c3.123 16.475 13.188 30.689 27.416 39.734z" fill="#fff"/><path d="M119.687 183h4.512l10.758-17.767c-7.288-5.492-14.229-13.245-16.658-21.967H92.271c3.123 16.475 13.188 30.689 27.416 39.734z" fill="#DEDEDE"/><path d="M91.577 126.79h24.64c1.041-10.983 8.329-20.028 17.699-26.489l-12.147-20.03c-17.005 10.015-28.457 26.814-30.192 46.519z" fill="#fff"/><path d="M91.577 126.79h24.64c1.041-10.983 8.329-20.028 17.699-26.489l-12.147-20.03c-17.005 10.015-28.457 26.814-30.192 46.519z" fill="#DEDEDE"/></svg>