<svg xmlns="http://www.w3.org/2000/svg" viewBox="0 0 49 49"><path d="M42.776 21.96c-1.123-8.431-7.807-15.106-16.238-16.228V.512h-5.045v5.21C13.063 6.855 6.388 13.53 5.265 21.96H.025v5.045h5.24c1.123 8.43 7.797 15.115 16.228 16.237v5.27h5.045v-5.27c8.431-1.122 15.115-7.796 16.238-16.237h5.24V21.96h-5.24zm-8.939 12.334a13.87 13.87 0 01-17.525 1.727 13.87 13.87 0 01-5.904-14.246 13.87 13.87 0 0118.92-10.11 13.87 13.87 0 016.227 5.113 13.908 13.908 0 012.342 7.71 13.813 13.813 0 01-4.06 9.806z" fill="#0078D4"/><path d="M32.9 25.742H15.15a2.482 2.482 0 00-2.478 2.479 2.482 2.482 0 002.478 2.478H32.9a2.482 2.482 0 002.479-2.478 2.482 2.482 0 00-2.479-2.479z" fill="#0078D4"/><path d="M15.19 29.482c.693 0 1.26-.566 1.26-1.258 0-.693-.567-1.26-1.26-1.26-.692 0-1.258.567-1.258 1.26 0 .692.566 1.258 1.258 1.258zM32.85 29.482c.693 0 1.26-.566 1.26-1.258 0-.693-.567-1.26-1.26-1.26-.692 0-1.258.567-1.258 1.26 0 .692.566 1.258 1.259 1.258zM20.867 28.224c0-.693-.566-1.26-1.259-1.26-.692 0-1.258.567-1.258 1.26 0 .692.566 1.258 1.258 1.258.693 0 1.26-.566 1.26-1.258zM25.29 28.224c0-.693-.567-1.26-1.26-1.26-.693 0-1.259.567-1.259 1.26 0 .692.566 1.258 1.26 1.258.692 0 1.258-.566 1.258-1.258zM29.7 28.224c0-.693-.567-1.26-1.26-1.26-.692 0-1.258.567-1.258 1.26 0 .692.566 1.258 1.258 1.258.693 0 1.26-.566 1.26-1.258zM22.723 19.434h-5.045v5.044h5.045v-5.044z" fill="#50E6FF"/></svg>