<svg xmlns="http://www.w3.org/2000/svg" viewBox="0 0 48 49"><path d="M12.57 18.583a17.6 17.6 0 01.57-4.458C5.58 16.099 0 22.974 0 31.152 0 40.873 7.877 48.75 17.598 48.75c8.178 0 15.053-5.58 17.027-13.14a17.6 17.6 0 01-4.458.57c-9.72 0-17.597-7.877-17.597-17.597z" fill="#0078D4"/><path d="M47.765 18.583c0-9.72-7.877-17.598-17.598-17.598-8.178 0-15.053 5.58-17.027 13.14 1.455-.38 2.953-.57 4.458-.57 9.72 0 17.597 7.877 17.597 17.598a17.605 17.605 0 01-.57 4.458c7.56-1.975 13.14-8.85 13.14-17.028z" fill="#50E6FF"/><path d="M17.598 13.555c-1.504 0-3.002.19-4.458.57a17.651 17.651 0 00-.57 4.458c0 9.72 7.877 17.597 17.598 17.597 1.504.001 3.002-.19 4.458-.57.379-1.455.57-2.953.57-4.457 0-9.721-7.877-17.598-17.598-17.598z" fill="#0078D4"/><path opacity=".75" d="M17.598 13.555c-1.504 0-3.002.19-4.458.57a17.651 17.651 0 00-.57 4.458c0 9.72 7.877 17.597 17.598 17.597 1.504.001 3.002-.19 4.457-.57a17.61 17.61 0 00.57-4.457c0-9.721-7.876-17.598-17.597-17.598z" fill="#50E6FF"/></svg>