<svg xmlns="http://www.w3.org/2000/svg" viewBox="0 0 179 90"><path d="M170.55 73.7c-.5 0-1 .1-1.5.1.7-1.2 1.1-2.6 1.1-4.1 0-4.5-3.6-8.1-8.1-8.1-3.8 0-7 2.6-7.8 6.1-1.6-1.5-3.8-2.4-6.2-2.4-4 0-7.5 2.6-8.8 6.2-.6-.1-1.1-.2-1.7-.2-5.1 0-9.3 4.2-9.3 9.3 0 5.1 4.2 9.3 9.3 9.3h33c4.5 0 8.2-3.7 8.2-8.2 0-4.5-3.7-8-8.2-8zM99.05 5.5c-11.9 0-21.7 8.9-23.2 20.3-2.9-3.9-7.6-6.5-12.8-6.5-8.9 0-16 7.2-16 16s7.2 16 16 16c7.3 0 27.1.8 36 .8 12.9 0 23.4-10.5 23.4-23.4 0-12.9-10.5-23.2-23.4-23.2z" fill="#CCEEFA"/><path d="M116.95 85.1c18.557 0 33.6-15.043 33.6-33.6 0-18.557-15.043-33.6-33.6-33.6-18.557 0-33.6 15.043-33.6 33.6 0 18.557 15.043 33.6 33.6 33.6z" fill="#91D5EB"/><path d="M102.35 60.9c-1.2 3.2-1.3 7.8 1.5 9.5 2.8 1.7 4.2 0 5.2 3s1.3 5.5 5.2 4.7c3.8-.8 3.2-3 2.7-7.3s1.5-4.8 2.3-7c.8-2.2-3.3-7.7-9.7-6.8-6.3.7-7.2 3.9-7.2 3.9zm-4.5-28.5c1.5-2.8 7.2-1.8 8.5-5.5 1.3-3.7-1.5-8-6.3-9.5s-12.2-1.7-17.5 6.7c-5.3 8.4-6.7 15.5-4 26s9.7 9.5 12.7 9.3c3-.2 9.5.5 10.7-9.3 1.1-9.9-7.6-11-4.1-17.7z" fill="#99C864"/><path d="M143.75 73.9c-2.5-1.7-8.8-1.5-10.3 1.3s-3.2 9.3-2 10c1.1.7 14.8-9.6 12.3-11.3z" fill="#98C873"/><path d="M87.15 47c0-7.3 2.3-14 6.2-19.5-6.2 6.1-10 14.6-10 24 0 18.6 15 33.6 33.6 33.6 11.3 0 21.3-5.6 27.4-14.1-6.1 6-14.4 9.6-23.5 9.6-18.6 0-33.7-15-33.7-33.6z" fill="#83C3D8"/><path d="M142.45 73.3c-.2-.1-.4-.1-.6-.2-2.9 2.4-6.3 4.3-9.9 5.5-.3 1.1-.6 2.2-.8 3.2 4.4-1.9 8.2-4.9 11.3-8.5zm-52.9-13.8c-1.5-3.9-2.4-8.1-2.4-12.5 0-7.3 2.3-14 6.2-19.5-6.2 6.1-10 14.6-10 24 0 2.4.2 4.7.7 6.9 1.9 1 3.9 1.1 5.5 1.1z" fill="#90BC5C"/><path d="M67.35 43.6c-.6 0-1.3.1-1.9.2 1-1.8 1.5-3.9 1.5-6.2 0-7.3-5.9-13.2-13.2-13.2-5.3 0-9.9 3.2-12 7.7-2.2-1.1-4.8-1.8-7.4-1.8-8.4 0-15.3 6.2-16.5 14.2-1.5-.6-3.2-1-4.9-1-6.8.1-12.4 5.7-12.4 12.6 0 6.9 5.6 12.5 12.5 12.5h54.3c6.9 0 12.5-5.6 12.5-12.5s-5.6-12.5-12.5-12.5z" fill="#CCEEFA"/><path d="M67.35 43.6c-.6 0-1.3.1-1.9.2 1-1.8 1.5-3.9 1.5-6.2 0-7.3-5.9-13.2-13.2-13.2-1 0-1.9.1-2.8.3-2.5 2.8-4.1 6.6-4.1 10.6 0 8.9 7.2 16 16 16 3.4 0 9.6.2 16 .4-1.5-4.7-6.1-8.1-11.5-8.1z" fill="#A3E0F6"/><path d="M52.45 12.3l-21.2-11c-1.3-.7-2.9-.2-3.5 1.1l-11 21.2c-.7 1.4-.2 3 1.2 3.7l17.1 8.9 8.9 27.5 6.8 2.8 3-5.7-9.5-26.7 9.4-18.1c.7-1.3.2-3-1.2-3.7z" fill="#FCBC30"/><path d="M53.65 16c.7-1.4.2-3-1.2-3.7l-21.2-11c-.7-.3-1.4-.4-2-.2l21 65.2.5.2 3-5.7-9.5-26.7 9.4-18.1zm-3.4 50.3l.5.3-.5-.3z" fill="#FBD63C"/><path d="M31.75 12.8a3.7 3.7 0 100-7.4 3.7 3.7 0 000 7.4z" fill="#fff"/><path d="M43.52 12.715L24.458 18.77l.515 1.62 19.062-6.053-.515-1.62zm1.105 4.81l-19.062 6.054.515 1.62 19.062-6.054-.515-1.62z" fill="#FAB232"/><path d="M133.55 31.2c-1.6 4.4 2 6 4 9s1 8 0 11.8c-1 3.8.4 10.1 3.2 12.6 2.8 2.5 6.6 6.2 9.8 1.9 3.2-4.3 7.2-12 6.5-23.2-.7-11.2-4.5-15.8-6.8-17.8s-13.3-3.4-16.7 5.7z" fill="#99C864"/></svg>