<svg xmlns="http://www.w3.org/2000/svg" viewBox="0 0 50 50"><path fill="#07B1EA" d="M0 28h22v22H0z"/><path fill="#FFF" d="M18.174 35.365c-.287.096-.478.191-.765.287-.287.096-.574.096-.765.191.287-.191.574-.383.765-.67.191-.287.383-.574.478-.861-.287.096-.574.287-.861.383-.287.096-.574.191-.957.287-.191-.287-.478-.478-.861-.67-.287-.191-.67-.191-1.148-.191-.765 0-1.435.287-1.913.765-.478.478-.765 1.243-.765 2.009 0 .191 0 .383.096.574-1.243-.096-2.296-.383-3.252-.861-.957-.574-1.817-1.243-2.487-2.104a2.7 2.7 0 00-.383 1.435c0 1.052.383 1.817 1.243 2.296-.478 0-.861-.096-1.243-.287 0 .67.191 1.243.574 1.722.383.478.957.861 1.53.957-.096 0-.191 0-.287.096H6.79c-.096 0-.287 0-.478-.096.191.574.478.957.957 1.339.478.383.957.574 1.626.574-.957.765-2.104 1.148-3.443 1.148h-.67c.574.383 1.243.67 2.009.861a8.698 8.698 0 002.2.287c1.243 0 2.391-.191 3.348-.67.957-.478 1.817-1.052 2.487-1.817.67-.765 1.148-1.626 1.53-2.487.287-.957.478-1.817.478-2.774V36.8c.287-.191.574-.383.765-.67.192-.287.384-.573.575-.765z"/><path fill="#4585F1" d="M28.003 28h22v22h-22z"/><path fill="#FFF" d="M45.883 37.659h-6.736c0 .932-.001 1.862.001 2.794h3.901a3.362 3.362 0 01-1.433 2.21 4.107 4.107 0 01-1.576.623 4.648 4.648 0 01-1.708-.006 4.206 4.206 0 01-1.594-.688 4.446 4.446 0 01-1.64-2.198 4.339 4.339 0 01.001-2.787 4.438 4.438 0 011.039-1.687 4.263 4.263 0 012.138-1.187 4.242 4.242 0 012.102.085 3.87 3.87 0 011.543.907c.44-.437.878-.878 1.317-1.316.231-.236.473-.462.695-.704a6.938 6.938 0 00-2.303-1.427 7.24 7.24 0 00-4.822-.042 7.192 7.192 0 00-4.055 3.553 7.167 7.167 0 00-.001 6.428 7.207 7.207 0 001.945 2.39 7.11 7.11 0 002.601 1.311c1.193.319 2.462.313 3.662.039a6.468 6.468 0 002.931-1.525c.867-.796 1.484-1.845 1.811-2.972a8.449 8.449 0 00.181-3.801z"/><path fill="#59B4D9" d="M11 22a2.013 2.013 0 01-1.435-.595L.594 12.434A2.039 2.039 0 010 11c0-.534.216-1.057.594-1.434L9.565.595A2.015 2.015 0 0111 0c.542 0 1.052.211 1.435.595l8.97 8.971c.384.381.595.891.595 1.434 0 .543-.211 1.052-.595 1.436l-8.969 8.97A2.02 2.02 0 0111 22"/><path fill="#FFF" d="M16.99 9.281a1.72 1.72 0 00-1.436 2.663l-3.407 3.407a2.05 2.05 0 00-.289-.164V6.494a1.713 1.713 0 00-.857-3.203 1.714 1.714 0 00-.858 3.203v8.693a2.036 2.036 0 00-.278.155L6.453 11.93a1.72 1.72 0 10-1.444.79c.197 0 .384-.04.561-.101l3.586 3.586a2.002 2.002 0 103.69.015l3.596-3.596c.172.058.354.097.546.097a1.72 1.72 0 00.002-3.44z"/><path opacity=".5" fill="#FFF" d="M10.588 5.346l.785-.785 6.434 6.431-.785.785z"/><path opacity=".5" fill="#FFF" d="M4.2 11l6.433-6.434.786.785-6.433 6.434z"/><path fill="#B8D432" d="M12.173 16.99a1.192 1.192 0 11-2.385 0 1.192 1.192 0 012.385 0m-.216-11.979a.957.957 0 11-1.914 0 .957.957 0 011.914 0M5.968 11a.958.958 0 11-1.915-.001.958.958 0 011.915.001m11.979 0a.958.958 0 11-1.915-.001.958.958 0 011.915.001"/><path opacity=".1" fill="#FFF" d="M12.435.595A2.012 2.012 0 0011 0c-.542 0-1.051.211-1.434.595L.595 9.565A2.04 2.04 0 000 11c0 .535.216 1.057.595 1.435l5.079 5.079 9.555-14.127L12.435.595z"/><path fill="#305CAF" d="M28.003 0h22v22h-22z"/><path fill="#FFF" d="M41.68 7.237c-.411-.001-.821.001-1.232-.001-.26-.016-.528.181-.575.439-.006.448-.002.897-.002 1.345.602.002 1.204-.001 1.806.002a24.676 24.676 0 01-.219 1.937c-.532.005-1.064-.001-1.595.003-.005 1.913.002 3.826-.004 5.739-.79.003-1.58-.002-2.37.002-.015-1.913.001-3.827-.008-5.741-.385-.004-.771.003-1.156-.003l.001-1.929c.385-.005.77.001 1.155-.003.012-.625-.012-1.251.012-1.876.039-.495.227-.993.597-1.335.448-.426 1.084-.57 1.685-.588.635-.006 1.27-.002 1.905-.002.003.671.003 1.341 0 2.011z"/></svg>