<svg xmlns="http://www.w3.org/2000/svg" viewBox="0 0 24 24"><path d="M0 21.3a.894.894 0 00.888.9H23.1a.894.894 0 00.9-.888V5.4H0z" fill="#a0a1a2"/><path d="M23.1 1.8H.9a.9.9 0 00-.9.9v2.8h24V2.7a.9.9 0 00-.9-.9" fill="#7a7a7a"/><path fill="#fcd116" d="M16.4 19.1h2l.1-7.6 3.3 3.3 1.3-1.3-5.6-5.3-5.5 4.7 1.1 1.5 3.4-2.9-.1 7.6z"/><path fill="#fff" d="M5.6 9.6h2l.1 7.5 3.3-3.2 1.3 1.3-5.5 5.2-5.6-4.7 1.1-1.5 3.4 3-.1-7.6z"/><path d="M.9 1.8a.9.9 0 00-.9.9v18.6a.9.9 0 00.9.9h1l19-20.4z" fill="#fff" opacity=".2" style="isolation:isolate"/></svg>