<svg xmlns="http://www.w3.org/2000/svg" viewBox="0 0 120 120"><path fill-rule="evenodd" clip-rule="evenodd" d="M117.315 105.03a8.683 8.683 0 01.27 12.287 8.702 8.702 0 01-12.297.272l-41.52-39.686a19.56 19.56 0 01-1.466.47c-10.716 2.849-21.71-3.5-24.553-14.18a19.81 19.81 0 01-.275-8.99l10.39 7.586a8.702 8.702 0 0012.164-1.828c2.855-3.86 2.034-9.3-1.83-12.151l-10.289-7.514a20.195 20.195 0 014.096-1.596c10.717-2.848 21.71 3.501 24.554 14.18a19.853 19.853 0 01-.461 11.756l41.217 39.395zm-4.666 11.776a5.708 5.708 0 004.054-6.985 5.717 5.717 0 00-6.993-4.05 5.709 5.709 0 00-4.053 6.986 5.715 5.715 0 006.992 4.05z" fill="#0078D7"/><path fill-rule="evenodd" clip-rule="evenodd" d="M54.37 3.185a1.28 1.28 0 01-.2-2.545A55.88 55.88 0 0160.689 0c.687-.035 1.3.521 1.329 1.229a1.28 1.28 0 01-1.23 1.328 53.35 53.35 0 00-6.218.612 1.38 1.38 0 01-.201.015zm19.108.376c-.083 0-.166-.008-.25-.024a53.446 53.446 0 00-6.19-.856A1.28 1.28 0 1167.24.13c2.172.172 4.354.473 6.487.896a1.278 1.278 0 01-.249 2.535zM46.661 4.988a1.279 1.279 0 01-.383-2.5c.493-.157.993-.305 1.493-.446a1.28 1.28 0 11.696 2.463c-.475.135-.95.275-1.422.424a1.27 1.27 0 01-.384.059zm38.963 2.529c-.179 0-.362-.038-.538-.119a52.784 52.784 0 00-5.814-2.282 1.28 1.28 0 11.793-2.434 55.63 55.63 0 016.1 2.395 1.278 1.278 0 01-.54 2.44zm10.872 6.71c-.28 0-.561-.09-.798-.278a52.8 52.8 0 00-5.111-3.593 1.28 1.28 0 111.346-2.176 55.34 55.34 0 015.362 3.768 1.28 1.28 0 01-.8 2.28zm9 9.065a1.28 1.28 0 01-1.011-.491 53.15 53.15 0 00-4.133-4.681 1.28 1.28 0 011.819-1.803 56.162 56.162 0 014.332 4.908 1.278 1.278 0 01-1.008 2.067zm6.62 10.91c-.488 0-.953-.279-1.168-.751a52.553 52.553 0 00-2.913-5.518 1.28 1.28 0 012.191-1.326 55.13 55.13 0 013.056 5.787 1.278 1.278 0 01-1.166 1.808zm3.856 12.163a1.28 1.28 0 01-1.257-1.038 53.642 53.642 0 00-1.53-6.052 1.28 1.28 0 112.442-.772 55.682 55.682 0 011.604 6.344 1.282 1.282 0 01-1.259 1.518zm.903 12.733l-.061-.001a1.28 1.28 0 01-1.22-1.338 53.522 53.522 0 00-.073-6.242 1.28 1.28 0 011.188-1.367 1.292 1.292 0 011.366 1.186 55.567 55.567 0 01.078 6.543 1.28 1.28 0 01-1.278 1.22zm-2.1 12.592a1.28 1.28 0 01-1.23-1.638 53.374 53.374 0 001.389-6.086 1.281 1.281 0 012.527.421 55.709 55.709 0 01-1.457 6.381 1.28 1.28 0 01-1.23.922zM70.552 26.451c-.105 0-.21-.013-.316-.04-1.979-.5-4.02-.8-6.063-.887a1.279 1.279 0 11.109-2.557c2.22.096 4.435.42 6.584.965.685.174 1.1.869.927 1.555a1.28 1.28 0 01-1.241.964zm-18.876 1.122a1.28 1.28 0 01-.461-2.474 32.536 32.536 0 016.425-1.738 1.267 1.267 0 011.47 1.059 1.278 1.278 0 01-1.057 1.467c-2.02.329-4.011.867-5.917 1.6a1.293 1.293 0 01-.46.086zm30.29 4.467a1.27 1.27 0 01-.787-.271 29.65 29.65 0 00-5.193-3.248 1.281 1.281 0 01-.587-1.712 1.283 1.283 0 011.715-.586 32.228 32.228 0 015.64 3.53c.559.434.657 1.238.222 1.794a1.276 1.276 0 01-1.01.493zm8.224 9.691c-.455 0-.895-.243-1.127-.669a29.652 29.652 0 00-3.464-5.05 1.278 1.278 0 01.147-1.804 1.283 1.283 0 011.806.147 32.256 32.256 0 013.762 5.487 1.278 1.278 0 01-1.124 1.89zm3.633 12.174a1.28 1.28 0 01-1.274-1.172 29.908 29.908 0 00-1.139-6.017 1.28 1.28 0 01.86-1.592 1.277 1.277 0 011.594.861 32.432 32.432 0 011.236 6.533 1.278 1.278 0 01-1.277 1.387zm-1.532 12.611a1.281 1.281 0 01-1.214-1.69 29.778 29.778 0 001.358-5.97 1.291 1.291 0 011.425-1.116 1.279 1.279 0 011.118 1.424 32.452 32.452 0 01-1.474 6.482 1.28 1.28 0 01-1.213.87zM2.018 54.403a1.279 1.279 0 01-1.264-1.49A55.69 55.69 0 012.21 46.53c.197-.678.9-1.068 1.588-.87.679.196 1.07.906.871 1.586a53.286 53.286 0 00-1.388 6.087 1.28 1.28 0 01-1.262 1.069zm-.604 12.749a1.279 1.279 0 01-1.276-1.189 55.584 55.584 0 01-.077-6.543 1.262 1.262 0 011.34-1.218 1.281 1.281 0 011.22 1.339 53.587 53.587 0 00.072 6.242 1.28 1.28 0 01-1.187 1.366 1.39 1.39 0 01-.092.003zM3.807 79.69a1.281 1.281 0 01-1.22-.895 56.137 56.137 0 01-1.605-6.342 1.281 1.281 0 012.517-.48c.39 2.035.904 4.072 1.53 6.052a1.279 1.279 0 01-1.222 1.665zm5.278 11.62c-.433 0-.855-.22-1.097-.617a55.609 55.609 0 01-3.056-5.787 1.282 1.282 0 012.335-1.056 52.804 52.804 0 002.912 5.518 1.278 1.278 0 01-1.094 1.942zm7.867 10.051c-.329 0-.66-.125-.909-.379a55.872 55.872 0 01-4.332-4.906 1.282 1.282 0 012.02-1.577 53.281 53.281 0 004.13 4.682 1.277 1.277 0 01-.909 2.18zm10.001 7.95c-.23 0-.462-.061-.672-.19a55.297 55.297 0 01-5.361-3.768 1.28 1.28 0 011.596-2.001 52.572 52.572 0 005.11 3.591 1.278 1.278 0 01-.673 2.368zm11.593 5.37c-.131 0-.265-.02-.396-.064a55.458 55.458 0 01-6.1-2.394 1.28 1.28 0 011.078-2.322 52.636 52.636 0 005.815 2.284 1.28 1.28 0 01-.397 2.496zm31.548.624a1.28 1.28 0 01-.346-2.512c.476-.133.95-.274 1.422-.423a1.281 1.281 0 01.765 2.443 58.58 58.58 0 01-1.492.444 1.327 1.327 0 01-.35.048zm-19.017 1.868a1.4 1.4 0 01-.102-.003 56.07 56.07 0 01-6.488-.897 1.278 1.278 0 11.5-2.51c2.034.404 4.116.693 6.19.855a1.28 1.28 0 01-.1 2.555zm6.398.126a1.279 1.279 0 01-.048-2.558 53.297 53.297 0 006.217-.61 1.279 1.279 0 11.401 2.527c-2.15.34-4.343.555-6.519.64h-.05zM24.507 59.57a1.28 1.28 0 01-1.273-1.434 32.506 32.506 0 011.474-6.482 1.28 1.28 0 012.427.819 29.864 29.864 0 00-1.358 5.972 1.28 1.28 0 01-1.27 1.125zm1.067 12.66a1.28 1.28 0 01-1.227-.915 32.437 32.437 0 01-1.236-6.532 1.279 1.279 0 112.551-.215 29.929 29.929 0 001.139 6.016 1.279 1.279 0 01-1.227 1.645zm6.065 11.165c-.364 0-.723-.153-.977-.452a32.314 32.314 0 01-3.763-5.484 1.281 1.281 0 012.251-1.22 29.771 29.771 0 003.465 5.049 1.278 1.278 0 01-.976 2.107zm10.024 7.812c-.19 0-.382-.042-.564-.132a32.227 32.227 0 01-5.64-3.528 1.277 1.277 0 01-.221-1.795 1.277 1.277 0 011.797-.222 29.736 29.736 0 005.193 3.249 1.28 1.28 0 01-.565 2.428zm18.704 2.746a1.28 1.28 0 01-.205-2.542 30.005 30.005 0 005.916-1.6 1.284 1.284 0 011.656.735c.253.66-.077 1.4-.736 1.654a32.54 32.54 0 01-6.423 1.736c-.07.012-.139.017-.208.017zm-6.379.378h-.056a32.442 32.442 0 01-6.584-.964 1.281 1.281 0 01-.927-1.555 1.278 1.278 0 011.557-.925c1.979.5 4.019.8 6.064.887a1.28 1.28 0 011.224 1.333 1.281 1.281 0 01-1.278 1.225z" fill="#ACD1EF"/></svg>