<svg xmlns="http://www.w3.org/2000/svg" viewBox="0 0 49 48"><path d="M3.077 5.053A2.523 2.523 0 01.551 2.526 2.523 2.523 0 013.077 0a2.523 2.523 0 012.526 2.526 2.534 2.534 0 01-2.526 2.527zM12.761 0H7.71v5.053h5.052V0zM19.919 0h-5.053v5.053h5.053V0z" fill="#0078D4"/><path d="M31.708 0a2.523 2.523 0 00-2.526 2.526 2.523 2.523 0 002.526 2.527 2.523 2.523 0 002.527-2.527A2.523 2.523 0 0031.708 0zM39.069 5.044a2.521 2.521 0 01-2.72-2.72A2.532 2.532 0 0138.664.01a2.521 2.521 0 012.72 2.72 2.525 2.525 0 01-2.315 2.315z" fill="#50E6FF"/><path d="M5.603 7.158H.551v5.053h5.052V7.158zM12.761 7.158H7.71v5.053h5.052V7.158zM19.919 7.158h-5.053v5.053h5.053V7.158zM27.077 7.158h-5.053v5.053h5.053V7.158zM34.235 7.158h-5.053v5.053h5.053V7.158z" fill="#0078D4"/><path d="M38.866 12.21a2.523 2.523 0 01-2.526-2.526 2.523 2.523 0 012.526-2.526 2.523 2.523 0 012.527 2.526 2.534 2.534 0 01-2.527 2.527z" fill="#50E6FF"/><path d="M5.603 14.316H.551v5.053h5.052v-5.053zM12.761 14.316H7.71v5.053h5.052v-5.053zM19.919 14.316h-5.053v5.053h5.053v-5.053zM27.077 14.316h-5.053v5.053h5.053v-5.053z" fill="#0078D4"/><path d="M31.708 14.316a2.523 2.523 0 00-2.526 2.526 2.523 2.523 0 002.526 2.527 2.523 2.523 0 002.527-2.527 2.523 2.523 0 00-2.527-2.526z" fill="#50E6FF"/><path d="M41.393 14.316H36.34v5.053h5.053v-5.053z" fill="#0078D4"/><path d="M46.024 14.316a2.523 2.523 0 00-2.526 2.526 2.523 2.523 0 002.526 2.527 2.523 2.523 0 002.526-2.527 2.523 2.523 0 00-2.526-2.526z" fill="#50E6FF"/><path d="M5.603 21.474H.551v5.052h5.052v-5.052zM12.761 21.474H7.71v5.052h5.052v-5.052zM19.919 21.474h-5.053v5.052h5.053v-5.052z" fill="#0078D4"/><path d="M24.55 26.526A2.523 2.523 0 0122.024 24a2.523 2.523 0 012.526-2.526A2.523 2.523 0 0127.078 24a2.534 2.534 0 01-2.527 2.526z" fill="#50E6FF"/><path d="M34.235 21.474h-5.053v5.052h5.053v-5.052zM41.393 21.474H36.34v5.052h5.053v-5.052zM5.603 28.632H.551v5.052h5.052v-5.052zM12.761 28.632H7.71v5.052h5.052v-5.052z" fill="#0078D4"/><path d="M17.392 33.684a2.523 2.523 0 01-2.526-2.526 2.523 2.523 0 012.526-2.526 2.523 2.523 0 012.527 2.526 2.534 2.534 0 01-2.527 2.526z" fill="#50E6FF"/><path d="M27.077 28.632h-5.053v5.052h5.053v-5.052zM34.235 28.632h-5.053v5.052h5.053v-5.052zM38.866 33.684a2.523 2.523 0 01-2.526-2.526 2.523 2.523 0 012.526-2.526 2.523 2.523 0 012.527 2.526 2.534 2.534 0 01-2.527 2.526zM48.55 28.632h-5.052v5.052h5.052v-5.052zM5.603 35.79H.551v5.052h5.052V35.79z" fill="#0078D4"/><path d="M10.235 35.79a2.523 2.523 0 00-2.526 2.526 2.523 2.523 0 002.526 2.526 2.523 2.523 0 002.526-2.526 2.523 2.523 0 00-2.526-2.526z" fill="#50E6FF"/><path d="M19.919 35.79h-5.053v5.052h5.053V35.79zM24.55 40.842a2.523 2.523 0 01-2.526-2.526 2.523 2.523 0 012.526-2.526 2.523 2.523 0 012.527 2.526 2.534 2.534 0 01-2.527 2.526zM34.235 35.79h-5.053v5.052h5.053V35.79zM41.393 35.79H36.34v5.052h5.053V35.79zM48.55 35.79h-5.052v5.052h5.052V35.79z" fill="#0078D4"/><path d="M3.077 42.947a2.523 2.523 0 00-2.526 2.527A2.523 2.523 0 003.077 48a2.523 2.523 0 002.526-2.526 2.523 2.523 0 00-2.526-2.527z" fill="#50E6FF"/><path d="M12.761 42.947H7.71V48h5.052v-5.053zM19.919 42.947h-5.053V48h5.053v-5.053zM27.077 42.947h-5.053V48h5.053v-5.053zM34.235 42.947h-5.053V48h5.053v-5.053zM38.866 48a2.523 2.523 0 01-2.526-2.526 2.523 2.523 0 012.526-2.527 2.523 2.523 0 012.527 2.527A2.534 2.534 0 0138.866 48zM48.55 42.947h-5.052V48h5.052v-5.053z" fill="#0078D4"/><path d="M48.55 21.474h-5.052v5.052h5.052v-5.052zM48.55 0h-5.052v5.053h5.052V0zM48.55 7.158h-5.052v5.053h5.052V7.158zM27.077 0h-5.053v5.053h5.053V0z" fill="#50E6FF"/></svg>