<svg xmlns="http://www.w3.org/2000/svg" viewBox="0 0 60 60"><path d="M25.126 15.047c3.21 0 5.813-2.61 5.813-5.83s-2.603-5.831-5.813-5.831c-3.21 0-5.812 2.61-5.812 5.83s2.602 5.83 5.812 5.83zm13.313 19.937c3.83 0 6.937-3.116 6.937-6.96 0-3.843-3.106-6.959-6.937-6.959-3.832 0-6.938 3.116-6.938 6.96 0 3.843 3.106 6.959 6.938 6.959zm11.624 19.185c3.003 0 5.438-2.442 5.438-5.455 0-3.012-2.435-5.454-5.438-5.454-3.003 0-5.437 2.442-5.437 5.454 0 3.012 2.434 5.455 5.437 5.455zm-21.565-4.515a4.695 4.695 0 004.688-4.702 4.695 4.695 0 00-4.688-4.702 4.695 4.695 0 00-4.687 4.702 4.695 4.695 0 004.687 4.702zM9.562 35.36a4.695 4.695 0 004.687-4.702 4.695 4.695 0 00-4.687-4.702 4.695 4.695 0 00-4.688 4.702 4.695 4.695 0 004.688 4.702z"/><path d="M39.403 27.024L26.14 8.098l-2.454 1.73 13.263 18.927 2.454-1.73z"/><path d="M51.33 47.6L39.595 27.034l-2.603 1.495 11.736 20.568 2.604-1.495z"/><path d="M38.253 29.406l-.248-3-28.59 2.382.248 2.999 28.59-2.381z"/><path d="M39.523 28.713l-2.57-1.553L26.89 43.914l2.57 1.553 10.063-16.754zM59.063 0H43.874c-.562 0-.937.376-.937 1.129v5.454c0 .564.375.94.937.94H52.5v8.464c0 .565.375.94 1.125.94h5.437c.563 0 .938-.375.938-.94V.94c0-.564-.375-.94-.938-.94zM.937 60h15.188c.562 0 .937-.377.937-1.13v-5.454c0-.564-.375-.94-.937-.94H7.5v-8.464c0-.564-.375-.94-1.125-.94H.937c-.562 0-.937.376-.937.94v15.047c0 .564.375.94.937.94z"/></svg>