<svg xmlns="http://www.w3.org/2000/svg" viewBox="0 0 225.543 311.855"><path d="M222.148 150.275c0 61.786-48.969 111.874-109.375 111.874S3.4 212.061 3.4 150.275 52.367 38.4 112.773 38.4s109.375 50.088 109.375 111.875" fill="#d33833"/><path d="M7.855 177.983s-7.918-116.666 99.583-120l-7.5-12.5-58.333 19.583-16.667 19.167-14.583 27.917-8.334 32.5 2.5 21.666" fill="#ef3d3a"/><path d="M37.86 73.956A109.421 109.421 0 006.8 150.693a109.41 109.41 0 0031.065 76.73 104.408 104.408 0 0074.911 31.745 104.406 104.406 0 0074.911-31.745 109.417 109.417 0 0031.066-76.73 109.428 109.428 0 00-31.066-76.736 104.43 104.43 0 00-74.911-31.744A104.432 104.432 0 0037.86 73.956zM33 232.172a116.222 116.222 0 01-33-81.479A116.224 116.224 0 0133 69.21a111.217 111.217 0 0179.768-33.79 111.209 111.209 0 0179.768 33.79 116.211 116.211 0 0133 81.483 116.2 116.2 0 01-33 81.479 111.23 111.23 0 01-79.768 33.791A111.237 111.237 0 0133 232.172" fill="#231f20"/><path d="M158.814 150.9l-16.667 2.5-22.5 2.5-14.584.416L90.9 155.9l-10.834-3.334-9.584-10.416-7.5-21.25-1.666-4.584-10-3.333-5.837-9.583-4.166-13.75L45.9 77.561l10.833-3.75 8.75 4.167 4.167 9.166 5-.834 1.666-2.083-1.666-9.584-.417-12.084 2.5-16.666-.1-9.52 7.6-12.146 13.334-9.584 23.334-10L146.729 8.4l22.5 16.25 10.417 16.666 6.666 12.084 1.666 30-5 25.834-9.166 22.916-8.75 12.084" fill="#f0d6b7"/><path d="M144.646 222.978l-59.584 2.5v10l5 35-2.5 2.917L45.9 259.228l-2.917-5-4.167-47.083-9.586-28.334-2.084-6.666 33.333-22.916 10.421-4.168 9.166 11.25 7.916 7.084 9.167 2.916 4.166 1.25 5 21.666 3.75 4.584 9.584-3.334-6.67 12.923 36.25 17.083-4.583 2.5" fill="#335061"/><path d="M45.9 77.561l10.833-3.75 8.75 4.167 4.167 9.166 5-.834 1.25-5-2.5-9.583 2.5-22.917-2.084-12.5 7.5-8.75 16.25-12.916L92.979 8.4 70.062 19.645l-9.584 7.5-5.416 11.666-8.334 11.25L44.229 63.4 45.9 77.561" fill="#6d6b6d"/><path d="M62.979 38.4s6.25-15.416 31.25-22.916 1.25-5.417 1.25-5.417L68.4 20.479 57.978 30.9 53.4 39.229l9.583-.834m-12.504 36.25s-8.75-29.167 24.583-33.334l-1.25-5L50.9 41.729 44.228 63.4 45.9 77.561l4.583-2.916" fill="#dcd9d8"/><path d="M63.812 113.4l5.456-5.286a3.513 3.513 0 012.878 3.2c.416 2.917 1.666 29.167 19.582 43.335 1.634 1.292-13.333-2.085-13.333-2.085l-13.333-20.835m75.419-26.25s.971-12.63 4.373-11.659a4.682 4.682 0 013.4 4.373s-8.26 5.344-7.774 7.286m34.583-46.25s-6.868 1.45-7.5 7.5 7.5 1.25 8.75.834m-51.667-7.917s-9.167 1.25-9.167 7.083 10.418 5.417 13.334 2.917M67.979 86.729s-15.834-9.584-17.5-.416-5.417 15.834 2.5 25.416l-5.416-1.666-5-12.916L40.9 84.646l9.583-10 10.833.834 6.25 5 .416 6.25m7.497-26.251s7.083-36.666 42.917-43.75c29.5-5.831 45 1.25 50.833 7.916 0 0-26.25-31.249-51.25-21.666S74.646 30.063 75.062 41.311c.71 19.16.416 19.167.416 19.167m96.668-31.667s-12.083-.416-12.5 10.417a8.283 8.283 0 00.833 3.333s9.585-10.834 15.417-5" fill="#f7e4cd"/><path d="M119.236 43.69s-2.08-16.629-16.257-6.961c-9.166 6.25-8.333 15-6.666 16.666s1.213 5.024 2.482 2.72.85-9.8 5.435-11.886 12.1-4.411 15.007-.539" fill="#f7e4cd"/><path d="M80.062 156.311l-39.162 17.5S57.146 238.4 48.812 258.4l-5.834-2.083-.416-24.584-10.832-46.67-4.584-12.917 40.832-27.5 12.084 11.665m4.027 35.722l5.557 6.78v25h-6.668s-.833-17.5-.833-19.584.833-9.584.833-9.584m1.25 32.918l-18.75.833 5.417 3.75 13.333 2.084" fill="#49728b"/><path d="M148.4 223.4l15.416-.416 3.75 38.334-15.837 2.082-3.333-40" fill="#335061"/><path d="M152.563 223.4l23.334-1.25s9.583-24.166 9.583-25.416 8.334-35 8.334-35l-18.75-19.583-3.75-3.334-10 10v38.75l-8.75 35.833" fill="#335061"/><path d="M162.979 220.479L148.4 223.4l2.083 11.667c5.416 2.5 14.584-4.167 14.584-4.167m-1.667-83.337l29.166 21.666.834-10-22.084-20.416-7.916 8.75" fill="#49728b"/><path d="M98.688 305.483l-8.626-35-4.29-25.828-.71-19.171 39.044-2.079h24.291l-2.209 43.754 3.75 33.75-.416 6.25-31.666 2.5-19.167-4.167" fill="#fff"/><path d="M142.979 222.979s-2.083 43.334 4.167 74.166a79.6 79.6 0 01-30.834 10l35-1.25 4.166-2.5-5-68.333-1.25-14.585" fill="#dcd9d8"/><path d="M168.272 257.983l16.25-4.584 30.833-1.666 4.584-14.166-8.339-24.584-9.583-1.25-13.328 4.167-12.789 6.245-6.8-1.245-5.292 2.079" fill="#fff"/><path d="M167.979 249.645s10.833-5 12.5-4.583l-4.579-22.917 5.416-2.083s3.75 21.666 3.75 24.166c0 0 23.333 1.25 25.416 1.25 0 0 5-9.584 3.75-19.584l4.584 13.334.416 7.5-6.666 10-7.5 1.666-12.5-.416-4.166-5.416-14.584 2.083-4.584 1.667" fill="#dcd9d8"/><path d="M151.6 220.067l-9.166-23.334-9.584-13.75s2.083-5.834 5-5.834h9.584l9.166 3.334-.833 15.416-4.167 24.168" fill="#fff"/><path d="M153.4 212.145s-11.667-22.5-11.667-25.833c0 0 2.083-5 5-3.75s9.167 4.583 9.167 4.583v-7.916l-14.167-2.917-9.583 1.25L148.4 215.9l3.333.417" fill="#dcd9d8"/><path d="M102.439 157.15L90.9 155.9l-10.834-3.334v3.75l5.294 5.837 16.666 7.5" fill="#fff"/><path d="M83.813 158.4s12.917 5.417 17.084 4.167l.414 5-11.665-2.5-7.084-5 1.25-1.667" fill="#dcd9d8"/><path d="M168.228 178.568a79.171 79.171 0 01-19.05-2.625c.38-2.292-.331-4.543.24-6.194 1.559-1.123 4.171-1.105 6.528-1.369a11.357 11.357 0 00-7.251-.819c-.055-1.591-.769-2.577-1.2-3.822 3.975-1.419 13.359-10.72 18.638-7.64 2.515 1.465 3.584 9.832 3.779 13.9.163 3.375-.306 6.78-1.681 8.568" fill="#d33833"/><path d="M168.228 178.568a79.171 79.171 0 01-19.05-2.625c.38-2.292-.331-4.543.24-6.194 1.559-1.123 4.171-1.105 6.528-1.369a11.357 11.357 0 00-7.251-.819c-.055-1.591-.769-2.577-1.2-3.822 3.975-1.419 13.359-10.72 18.638-7.64 2.515 1.465 3.584 9.832 3.779 13.9.159 3.376-.312 6.781-1.684 8.569z" fill="none" stroke="#d33833" stroke-width="2"/><path d="M134.419 167.01c-.019.535-.041 1.074-.063 1.614-2.207 1.45-5.771 1.433-8.194 2.651a21.291 21.291 0 018.815 2.229q-.081 2.021-.157 4.041c-4.046 2.77-7.743 6.895-12.507 9.493-2.253 1.229-10.158 4.39-12.554 3.831-1.356-.315-1.478-2-2.02-3.583-1.155-3.4-3.813-8.8-4.045-13.915-.3-6.458-.947-17.28 6.012-15.95a62.168 62.168 0 0116.491 6.033c2.656 1.453 4.192 3.247 8.223 3.558" fill="#d33833"/><path d="M134.419 167.01c-.019.535-.041 1.074-.063 1.614-2.207 1.45-5.771 1.433-8.194 2.651a21.291 21.291 0 018.815 2.229q-.081 2.021-.157 4.041c-4.046 2.77-7.743 6.895-12.507 9.493-2.253 1.229-10.158 4.39-12.554 3.831-1.356-.315-1.478-2-2.02-3.583-1.155-3.4-3.813-8.8-4.045-13.915-.3-6.458-.947-17.28 6.012-15.95a62.168 62.168 0 0116.491 6.033c2.656 1.451 4.192 3.246 8.222 3.556z" fill="none" stroke="#d33833" stroke-width="2"/><path d="M138.438 174.715c-.618-3.518-1.331-4.521-1.055-7.59 9.381-6.255 11.143 10.744 1.055 7.59" fill="#d33833"/><path d="M138.438 174.715c-.618-3.518-1.331-4.521-1.055-7.59 9.381-6.255 11.142 10.744 1.055 7.59z" fill="none" stroke="#d33833" stroke-width="2"/><path d="M152.021 177.566s-2.917-4.167-.834-5.417 4.167 0 5.417-2.083 0-3.334.416-5.834 2.5-2.917 4.584-3.334 7.917-1.25 8.75.834l-2.5-7.5-5-1.666-15.834 9.166-.834 4.584v9.166m-37.914 15.835q-.751-9.754-1.62-19.493c-.882-9.7 2.33-8.007 10.738-8.007 1.284 0 7.907 1.531 8.381 2.5 2.273 4.641-3.8 3.61 2.618 7.11 5.417 2.954 14.987-1.794 12.8-8.36-1.225-1.46-6.383-.455-8.231-1.414l-9.765-5.063c-4.142-2.149-13.713-5.281-18.129-2.279-11.188 7.609.706 26.62 4.7 34.557" fill="#ef3d3a"/><path d="M119.236 43.69c-11.356-2.645-17 4.753-20.442 12.425-3.074-.745-1.851-4.925-1.074-7.055 2.033-5.59 10.225-13.031 16.918-12.022 2.88.434 6.778 3.067 4.6 6.653m55.331 12.932l.539.021c2.566 5.331 4.788 10.979 8.025 15.685-2.169 5.051-16.423 9.521-16.2.451 3.083-1.348 8.4-.275 11.136-2-1.58-4.336-3.86-8.027-3.5-14.161m-49.519.142c2.435 4.464 3.228 9.154 6.689 12.528 1.559 1.519 4.59 3.37 3.088 7.594-.351 1-2.917 3.218-4.4 3.654-5.411 1.6-18.02.33-13.75-6.416 4.475.209 10.49 2.906 13.835-.343-2.569-4.106-7.148-12.23-5.463-17.016m47.488 45.367c-8.148 5.234-17.233 10.925-30.583 9.605a9.054 9.054 0 01-1.169-11.644c1.442 2.48.536 7.041 4.556 7.728 7.575 1.3 16.391-4.634 21.84-6.706 3.379-5.7-.291-7.791-3.335-11.458-6.231-7.511-14.59-16.821-14.286-28.066 2.519-1.826 2.736 2.787 3.1 3.627 3.254 7.615 11.443 17.354 17.419 23.871 1.467 1.6 3.884 3.145 4.153 4.206.775 3.086-2.016 6.784-1.693 8.836M65.127 96.619c-2.554-1.458-3.162-7.878-6.16-8.06-4.285-.26-3.5 8.329-3.486 13.351-2.949-2.677-3.468-10.921-1.3-15.155-2.469-1.213-3.572 1.338-4.942 2.236C51 76.2 67.944 83.06 65.127 96.619m112.598 10.835c-3.792 7.219-9.158 15.169-20.286 15.4-.226-2.331-.4-5.879.013-7.283 8.508-.818 13.76-5.147 20.274-8.118m-53.318 4.681c7.1 3.733 20.143 4.134 29.79 3.851a33.78 33.78 0 01.525 7.3c-12.4.619-27.064-2.45-30.316-11.154m-1.348 6.963c4.908 12.324 21.778 10.9 36 10.565a7.609 7.609 0 01-3.671 4.174c-4.559 1.855-17.133 3.263-23.461-.1-4.014-2.134-6.593-6.955-8.792-9.781-1.062-1.365-6.35-4.851-.08-4.859" fill="#231f20"/><path d="M171.945 187.072c-5.76 9.865-11.271 20-18.105 28.7 2.865-8.424 4.091-22.523 4.524-33.272 5.994-2.805 11.126.631 13.581 4.572" fill="#81b0c4"/><path d="M202.94 222.529c-6.449 1.291-10.98 7.558-17.271 7.156 3.458-4.874 9.516-6.929 17.271-7.156m2.845 10.092c-5.256.555-11.43 1.406-16.761.968 2.524-3.855 12.248-2.525 16.761-.968m1.821 8.701c-5.907.128-13.25.01-18.865-.461 3.321-3.567 15.034-1.324 18.865.461" fill="#231f20"/><path d="M160.83 265.134c.847 7.419 3.789 14.936 3.42 23.061-3.266 1.1-5.142 2.065-9.519 2.059-.309-6.905-1.232-17.461-.956-24.044 2.153.142 5.326-1.538 7.055-1.076" fill="#dcd9d8"/><path d="M151.306 155.794c-2.966 1.936-5.492 4.354-8.341 6.421-6.318.313-9.765-.437-14.406-4.065.076-.291.542-.161.56-.519 6.763 3.014 15.359-1.228 22.188-1.838" fill="#f0d6b7"/><path d="M115.806 201.891c1.858-8.051 9.138-12.221 15.749-16.655 6.824 8.66 10.974 19.8 15.544 30.545-10.8-3.255-21.83-8.536-31.293-13.89" fill="#81b0c4"/><path d="M153.775 266.21c-.276 6.582.647 17.139.956 24.044 4.376.006 6.253-.958 9.519-2.059.369-8.125-2.572-15.642-3.42-23.061-1.73-.461-4.902 1.219-7.055 1.076zm-68.143-37.436C88.518 255.3 92.7 277.6 100.364 301.1c17.014 5.166 37.525 5.616 52.564.955-2.761-13.259-1.555-29.4-3.169-43.55-1.216-10.635-.6-21.335-2.264-32.185-18.223-3.796-43.979-.891-61.863 2.454zm66.171-2.292c-.154 11.393.51 22.632 1.38 34.04 4.375-.657 7.344-1.1 11.409-1.986-1.32-10.982-1.157-23.34-3.846-33.055-3.107.029-5.846-.037-8.946 1.001zM174 224.645c-2.076-.476-4.494-.019-6.478.02.933 9.288 3.195 19.536 3.991 29.285 3.121.1 4.789-1.375 7.356-1.87.138-8.558-.748-20.348-4.87-27.435zm33.605 30.7c6.506-1.58 10.6-9.549 8.778-17.732-1.221-5.5-3.4-15.857-5.724-19.375-1.72-2.6-6.384-6.01-10.107-3.625-6.057 3.879-16.729 5-21.146 9.7 2.215 7.375 2.9 17.5 3.816 26.85 7.568.472 16.879-2.083 23.172.628-4.394 1.423-10.1 1.434-13.891 3.509 3.1 1.5 10.366 1.2 15.1.046zm-60.5-39.567c-4.57-10.747-8.72-21.885-15.544-30.545-6.611 4.434-13.891 8.6-15.749 16.655 9.457 5.357 20.488 10.639 31.288 13.893zm11.259-33.278c-.433 10.749-1.659 24.848-4.524 33.272 6.834-8.7 12.345-18.834 18.105-28.7-2.455-3.941-7.588-7.372-13.581-4.572zm-12.77-4.537c-2.589-.279-4.786 2.976-8.153 1.569-.771.852-1.473 1.776-2.259 2.609 7.435 8.96 10.814 21.672 16.556 32.2 3.081-10.115 2.726-21.2 3.4-32.236-4.228.27-6.577-3.827-9.544-4.142zm-8.211-10.837c-.276 3.069.437 4.073 1.055 7.59 10.087 3.153 8.326-13.846-1.055-7.591zm-11.183-3.673a62.168 62.168 0 00-16.491-6.033c-6.959-1.331-6.307 9.493-6.012 15.95.232 5.113 2.891 10.519 4.045 13.915.542 1.586.664 3.269 2.02 3.583 2.4.559 10.3-2.6 12.554-3.831 4.764-2.6 8.46-6.723 12.507-9.493l.157-4.041a21.29 21.29 0 00-8.815-2.229c2.423-1.219 5.986-1.2 8.194-2.651.021-.54.044-1.079.063-1.614-4.033-.309-5.569-2.104-8.222-3.556zm-41.517-7.541c-3.608 3.663 10.118 8.655 14.488 8.924-.024-2.317 1.321-4.5 1.05-6.165-5.194-.912-12.015-.311-15.542-2.76zm44.44 1.72c-.017.358-.484.227-.56.519 4.641 3.628 8.089 4.377 14.406 4.065 2.849-2.067 5.375-4.485 8.341-6.421-6.832.605-15.429 4.85-22.191 1.836zM169.909 170c-.2-4.069-1.264-12.436-3.779-13.9-5.279-3.081-14.662 6.221-18.638 7.64.433 1.245 1.146 2.231 1.2 3.822a11.357 11.357 0 017.251.819c-2.356.264-4.969.246-6.528 1.369-.571 1.651.14 3.9-.24 6.194a79.171 79.171 0 0019.05 2.625c1.375-1.789 1.846-5.194 1.684-8.569zm-91.3-10.546c-1.133-.808-8.8-10.779-9.846-10.365-13.867 5.469-26.834 14.925-38.42 23.869 11.047 23.705 15.507 52.748 16.295 80.74 12.655 5.919 23.771 14.452 40.944 15.343-1.987-14.06-3.8-26.6-4.929-39.841-4.315-1.819-10.505.083-14.543-.564-.034-4.866 6.167-2.131 6.683-5.4.389-2.475-3.412-2.663-2.174-6.56 3.157 1.147 4.815 3.682 8.181 4.634 3.076-6.73-.043-18.638.4-24.263.084-1.056.527-5.851 2.893-5.01 2.094.745-.12 12.752.11 18.076.209 4.9-.592 9.651 1.394 12.73A474.19 474.19 0 01137 218.628c-3.95-1.695-8.643-3.3-13.787-6.2-2.789-1.572-11.58-4.844-12.385-7.493-1.284-4.221 3.369-6.47 4.165-10.088-8.376 4.568-10.011-4.379-11.992-10.718a83.307 83.307 0 01-3.258-13.341c-7.216-3.44-14.931-6.924-21.142-11.335zm83.971-9.154c11.554-5.6 13.636 20.939 9.107 29.489.7 2.55 3.108 3.526 4.09 5.819-6.448 11.55-13.609 22.331-20.188 33.745 4.894-3.046 11.884-.545 17.643-2.825 2.105-.833 3.629-5.651 5.222-9.506 4.384-10.606 8.986-23.977 11.034-34.1.462-2.306 1.723-7.331 1.44-9.384-.5-3.675-5.49-6.4-8.026-8.673-4.673-4.2-7.615-7.891-12.489-11.816-1.976 2.917-6.217 4.877-7.834 7.25zM52.183 47.835c-5.506 6.058-4.353 17.408-3.683 25.483 9.951-6.26 23.159.495 23.035 11.143 4.751-.126 1.775-5.934.915-9.675-2.808-12.22 4.732-25.5.342-36.671a30.2 30.2 0 00-20.605 9.721zm39.392-35.157C79.111 16.21 63.138 25.266 58.017 36.463c3.966-.576 6.719-2.576 10.631-2.824 1.479-.1 3.415.62 5.115.2 3.386-.84 6.244-8.433 8.8-11.257 2.49-2.759 5.483-3.937 7.532-6.453 1.316-.635 3.262-.591 3.336-2.568-.572-.612-1.173-1.077-1.856-.883zM156.454 16c-12.936-7.3-34.833-12.789-48.593-5.929-11.1 5.536-26.112 14.7-31.23 26.3 4.78 11.2-1.416 21.465-1.811 32.838-.21 6.051 2.849 11.334 3.084 17.921-1.636 2.7-6.633 3.031-10.093 2.846-1.164-5.828-3.2-12.378-9.2-13.035-8.491-.929-14.7 6.1-15.086 13.442-.457 8.636 6.633 22.95 16.682 21.956 3.882-.384 4.836-4.275 9.065-4.235 2.292 4.574-3.536 6.01-4.136 9.281a26.277 26.277 0 00.855 5.7c1.825 7.541 5.894 17.3 9.9 23.043 5.083 7.283 15.069 8.38 25.813 9.094 1.919-4.134 8.988-3.794 13.594-2.712-5.52-2.186-10.652-7.486-14.9-12.177-4.898-5.383-9.844-11.157-10.098-18.192 9.232 12.808 16.859 23.993 33.646 29.626 12.7 4.26 27.537-1.952 37.3-8.806 4.05-2.849 6.467-7.369 9.346-11.506 10.771-15.494 15.8-37.609 14.692-59.044-.455-8.84-.435-17.65-3.4-23.6-3.1-6.219-13.585-11.782-19.722-6.157-1.138-6.047 5.1-9.788 12.435-7.611C169.37 28.3 163.884 20.193 156.454 16zm24.1 199.459c10.109-5.025 29-13.526 35.334.019a114.847 114.847 0 016.294 18.587c1.711 7.271-1.855 22.554-9.329 24.994-6.6 2.155-14.3 2.024-22.255.426a12.124 12.124 0 01-2.708-3.551c-5.678-.22-10.994.3-15.479 2.639.425 4.2-2.415 4.873-5.077 5.737-1.974 7.826 3.949 18.046 2.531 25.183-1.011 5.084-7.266 5.87-11.864 6.821a39.057 39.057 0 00.515 7.574c-1.051 3.874-5.766 6.079-10.234 6.619-14.7 1.768-37.017 2.562-51.155-2.522-3.945-9.677-7.053-21.447-10.339-32.5-13.789 1.473-24.941-5.95-35.455-10.812-3.64-1.687-8.676-2.617-10.036-5.515-1.318-2.805-.779-8.182-1.106-13.26-.833-12.971-1.545-25.482-4.971-38.764-1.538-5.96-4.219-11.219-6.089-16.961-1.728-5.322-4.748-11.9-5.536-17.207-1.168-7.866 6.239-8.3 10.976-11.713 7.322-5.271 13.069-8.186 21-12.944 2.349-1.409 9.431-4.975 10.237-6.618 1.6-3.256-2.749-7.847-3.912-10.4a31.281 31.281 0 01-3.063-11.448 22.085 22.085 0 01-14.74-9.474c-5.038-7.388-8.533-21.055-4.173-31.451.342-.819 2.047-2.429 2.3-3.686.5-2.476-.934-5.769-1.023-8.4-.458-13.512 2.286-25.155 11.383-29.23C56.271 22.889 69.488 18 81.941 10.686c4.659-2.732 9.786-4.478 15.085-6.428 19.01-7 48.177-5.679 63.955 6.254 6.69 5.06 17.384 15.744 21.209 23.479 10.1 20.421 9.385 54.55 2.319 79.391a79.913 79.913 0 01-4.251 12.244c-1.341 2.8-5.51 8.4-5 10.865.521 2.554 9.505 9.375 11.431 11.232 3.469 3.346 10.059 7.788 10.592 12.01.574 4.494-1.98 10.641-3.274 14.978-4.325 14.471-8.545 27.848-13.449 40.749" fill="#231f20"/><path d="M113.114 115.286c.548-.73 3.563-1.839 7.782.193 0 0-5 .834-4.584 9.17l-2.084-.417s-2.153-7.559-1.115-8.945" fill="#f7e4cd"/><path d="M149.646 186.938a2.292 2.292 0 11-2.292-2.292 2.292 2.292 0 012.292 2.292m2.292 10.625a2.292 2.292 0 11-2.292-2.292 2.292 2.292 0 012.292 2.292" fill="#1d1919"/></svg>