<svg xmlns="http://www.w3.org/2000/svg" viewBox="0 0 72 73"><path d="M42.666 22.83a3.22 3.22 0 003.224-3.215 3.22 3.22 0 00-3.224-3.217 3.22 3.22 0 00-3.225 3.216 3.22 3.22 0 003.224 3.216zM19.353 53.01a3.22 3.22 0 003.224-3.216 3.22 3.22 0 00-3.224-3.216 3.22 3.22 0 00-3.224 3.216 3.22 3.22 0 003.224 3.216z" fill="#DA3A00"/><path d="M5.898 6.813v5.875H1v2.969h4.898v18.492H1v2.969h4.898v18.616H1v2.968h4.898v5.505l50.16 7.854V.937L5.898 6.814zM47.501 52.95a4.572 4.572 0 01-4.588 4.576 4.572 4.572 0 01-4.588-4.576c0-.495.062-.99.248-1.423L21.523 27.47v16.327c2.48.866 4.216 3.216 4.216 6a6.37 6.37 0 01-6.387 6.37 6.37 6.37 0 01-6.386-6.37c0-2.784 1.798-5.134 4.278-6V24.872a4.613 4.613 0 01-2.852-4.267 4.572 4.572 0 014.588-4.577 4.572 4.572 0 014.589 4.577c0 .618-.124 1.237-.372 1.793l17.608 24.986V25.8c-2.666-.804-4.65-3.278-4.65-6.185 0-3.525 2.914-6.432 6.448-6.432 3.534 0 6.448 2.907 6.448 6.432 0 2.783-1.736 5.134-4.216 6.061V48.87c1.612.742 2.666 2.288 2.666 4.082zm12.092 13.854l11.409 1.546V4.215l-11.47.68 6.571 2.412v57.456l-6.51 2.04z" fill="#DA3A00"/></svg>