<svg xmlns="http://www.w3.org/2000/svg" viewBox="0 0 50 50"><path fill="#FCD116" d="M39.337 19.525a5.688 5.688 0 000-8.045l-9.812-9.813a5.69 5.69 0 00-8.046 0l-9.813 9.813a5.69 5.69 0 000 8.045l8.633 8.633v16.641l5.202 5.202 4.519-4.519v-.033l2.652-2.653-2.629-2.629 2.629-2.629-2.629-2.629 2.629-2.629-2.652-2.653v-.784l9.317-9.318zM25.502 4.039a3.23 3.23 0 110 6.459 3.23 3.23 0 010-6.459z"/><path opacity=".4" fill="#FF8C00" d="M22.728 43.961l2.03 2V30.008l-2.03-1z"/><path opacity=".5" fill="#FFF" d="M15.868 13.617h18.64v2.679h-18.64zM15.868 17.976h18.64v2.679h-18.64z"/></svg>