<svg xmlns="http://www.w3.org/2000/svg" viewBox="0 0 61 61"><path d="M51.722 18.709H8.882c-4.607 0-8.362 3.75-8.362 8.362v6.84c0 4.607 3.75 8.362 8.363 8.362h42.839c4.608 0 8.362-3.75 8.362-8.363v-6.839c0-4.612-3.754-8.362-8.362-8.362z"/><path d="M12.525 21.474c-4.969 0-9.01 4.041-9.01 9.01 0 4.968 4.041 9.01 9.01 9.01 4.969 0 9.01-4.041 9.01-9.01.004-4.964-4.041-9.01-9.01-9.01zm17.785 2.743a6.28 6.28 0 00-6.272 6.271 6.277 6.277 0 006.271 6.268 6.27 6.27 0 000-12.539z" fill="#0178D4"/><path d="M49.242 27.212H46.13v3.112h3.112v-3.112z" fill="#fff"/><path d="M49.336 30.418h-3.3v-3.3h3.3v3.3zm-3.112-.187h2.925v-2.925h-2.925v2.925z"/><path d="M52.678 27.212h-3.112v3.112h3.112v-3.112z" fill="#fff"/><path d="M52.772 30.418h-3.3v-3.3h3.3v3.3zm-3.113-.187h2.925v-2.925H49.66v2.925z"/><path d="M49.242 30.648H46.13v3.112h3.112v-3.112z" fill="#fff"/><path d="M49.336 33.859h-3.3v-3.3h3.3v3.3zm-3.112-.192h2.925v-2.925h-2.925v2.925z"/><path d="M52.678 30.648h-3.112v3.112h3.112v-3.112z" fill="#fff"/><path d="M52.772 33.859h-3.3v-3.3h3.3v3.3zm-3.113-.192h2.925v-2.925H49.66v2.925z"/></svg>