<svg xmlns="http://www.w3.org/2000/svg" viewBox="0 0 52.178 62.21"><path d="M26.089 0A26.089 26.089 0 000 26.086V62.21h43.3v-8.588c-.177.006-.35.034-.525.034a9.793 9.793 0 01-8.467-4.866H43.3v-7.445h8.877V26.086A26.087 26.087 0 0026.089 0zM35.1 32.426a3.072 3.072 0 113.076-3.073 3.076 3.076 0 01-3.076 3.073z" fill="#59b4d9"/><path d="M26.089 0A26.089 26.089 0 000 26.086V62.21h43.3v-8.588c-.177.006-.35.034-.525.034a9.793 9.793 0 01-8.467-4.866H43.3v-7.445h8.877V26.086A26.087 26.087 0 0026.089 0zM35.1 32.426a3.072 3.072 0 113.076-3.073 3.076 3.076 0 01-3.076 3.073z" fill="#59b4d9"/><path d="M52.178 26.641v-.554A26.1 26.1 0 0033.921 1.2a26.1 26.1 0 00-18.259 24.886V62.21H43.3v-8.588c-.177.006-.35.034-.525.034a9.793 9.793 0 01-8.467-4.866H43.3v-7.445h8.877v-9.28m-20.151-2.713a3.075 3.075 0 113.074 3.074 3.073 3.073 0 01-3.074-3.074z" fill="#fff" opacity=".29"/><path d="M26.089 0A26.089 26.089 0 000 26.086V62.21h43.3v-8.588c-.177.006-.35.034-.525.034a9.793 9.793 0 01-8.467-4.866H43.3v-7.445h8.877V26.086A26.087 26.087 0 0026.089 0zM35.1 32.426a3.072 3.072 0 113.076-3.073 3.076 3.076 0 01-3.076 3.073z" fill="none"/><path d="M4.985 15.562l1.235.74a.842.842 0 01.48.907.008.008 0 010 .009 5.461 5.461 0 00-.045.771.821.821 0 01-.534.821l-1.341.626a.565.565 0 00-.3.621l.42 1.149a.574.574 0 00.62.3l1.4-.352a.849.849 0 01.945.259 5.648 5.648 0 00.627.694.837.837 0 01.125.893l-.507 1.385a.576.576 0 00.231.655l1.1.521a.567.567 0 00.649-.228l.743-1.238a.848.848 0 01.89-.479 5.66 5.66 0 00.784.039.823.823 0 01.832.536l.626 1.342a.562.562 0 00.621.3l1.15-.4a.584.584 0 00.3-.626l-.353-1.4a.846.846 0 01.306-.983l.01-.008a6.627 6.627 0 00.547-.494l.014-.007a.82.82 0 01.964-.213l1.4.508a.566.566 0 00.646-.229l.525-1.1a.578.578 0 00-.228-.651l-1.235-.743a.84.84 0 01-.479-.909v-.03a5.79 5.79 0 00.039-.7v-.03a.825.825 0 01.538-.835l1.344-.625a.563.563 0 00.293-.622l-.41-1.15a.567.567 0 00-.618-.3l-1.4.347a.841.841 0 01-.982-.3c-.007-.013-.017-.017-.025-.024a6.589 6.589 0 00-.467-.509.1.1 0 00-.016-.032.821.821 0 01-.211-.97l.5-1.392a.563.563 0 00-.236-.65l-1.1-.524a.56.56 0 00-.647.229l-.747 1.24a.839.839 0 01-.905.475.267.267 0 00-.034 0 5.582 5.582 0 00-.7-.034.085.085 0 00-.03 0 .835.835 0 01-.832-.541l-.628-1.338a.575.575 0 00-.623-.3l-1.146.411a.569.569 0 00-.3.622l.35 1.4a.842.842 0 01-.307.983.023.023 0 00-.011.014 5.1 5.1 0 00-.543.49l-.015.007a.824.824 0 01-.972.21l-1.382-.523a.573.573 0 00-.652.232l-.521 1.1a.581.581 0 00.228.653zm8.735-.386A3.015 3.015 0 119.7 16.6a3.012 3.012 0 014.021-1.424zm10.939-9.74l.885 1.544a1.041 1.041 0 01-.03 1.269.01.01 0 010 .012 6.752 6.752 0 00-.515.8 1.015 1.015 0 01-1.073.563l-1.826-.13a.7.7 0 00-.7.49l-.253 1.487a.71.71 0 00.488.7l1.721.466c.608.186.8.5.862.851a6.984 6.984 0 00.257 1.128 1.035 1.035 0 01-.4 1.041l-1.387 1.191a.712.712 0 00-.146.846l.874 1.229a.7.7 0 00.838.147l1.55-.886a1.048 1.048 0 011.25.022 7 7 0 00.822.516 1.018 1.018 0 01.573 1.082l-.136 1.826a.7.7 0 00.489.7l1.484.26a.722.722 0 00.7-.494l.464-1.721c.2-.652.542-.826.924-.876h.016a8.2 8.2 0 00.889-.2h.019a1.013 1.013 0 011.168.353l1.2 1.392a.7.7 0 00.835.144l1.232-.871a.714.714 0 00.147-.841l-.883-1.548a1.039 1.039 0 01.033-1.27c.009-.015 0-.021.015-.035a7.159 7.159 0 00.467-.735c0-.013.014-.018.023-.029a1.02 1.02 0 011.084-.575l1.828.138a.7.7 0 00.692-.494l.253-1.488a.7.7 0 00-.487-.693l-1.721-.473c-.648-.2-.83-.539-.876-.921a.1.1 0 00-.012-.041 8.148 8.148 0 00-.2-.831.124.124 0 000-.045 1.015 1.015 0 01.359-1.174l1.386-1.2a.7.7 0 00.138-.844l-.851-1.238a.692.692 0 00-.837-.144l-1.555.886a1.037 1.037 0 01-1.264-.035.33.33 0 00-.037-.02 6.9 6.9 0 00-.737-.462.1.1 0 00-.03-.022A1.033 1.033 0 0134.1 5.1l.132-1.823a.711.711 0 00-.489-.7l-1.485-.249a.7.7 0 00-.7.492l-.468 1.719c-.2.653-.544.829-.925.874a.028.028 0 00-.021.008 6.305 6.305 0 00-.882.2h-.02a1.019 1.019 0 01-1.175-.361l-1.19-1.393a.708.708 0 00-.844-.144l-1.228.872a.719.719 0 00-.146.841zm9.655 4.864a3.728 3.728 0 11-5.2-.891 3.725 3.725 0 015.2.891zm-6.872 13.676l-1.577.75-.01.007a3.759 3.759 0 00-.85-.47v-.021l-.179-1.742a.593.593 0 00-1.15-.136l-.585 1.644a.267.267 0 00-.009.038 3.6 3.6 0 00-.913.26l-.029-.031-1.355-1.1a.593.593 0 00-.91.716l.748 1.576.023.036a3.585 3.585 0 00-.466.826h-.038l-1.742.181a.593.593 0 00-.135 1.15l1.645.584a.11.11 0 00.021.005 3.677 3.677 0 00.254.938s-.007 0-.008.008l-1.1 1.354a.593.593 0 00.716.91l1.565-.746a3.642 3.642 0 00.877.5l.175 1.715a.593.593 0 001.15.136l.57-1.608a3.657 3.657 0 001-.276l1.321 1.074a.593.593 0 00.91-.715l-.73-1.536a3.75 3.75 0 00.5-.906l1.7-.174a.593.593 0 00.138-1.148l-1.625-.575a3.726 3.726 0 00-.28-.968l1.092-1.345a.592.592 0 00-.715-.909zm-2.312 5.665a2.407 2.407 0 11.405-3.38 2.405 2.405 0 01-.405 3.38z" fill="#fff"/></svg>