<svg xmlns="http://www.w3.org/2000/svg" viewBox="0 0 48 48"><g clip-path="url(#knowledge-mining:97e9dfc8-2fc9-46ba-93f3-d7334ddbcce3-81e51066)"><path fill="#fff" d="M0 0h48v48H0z"/><path d="M48.19 42.903v-3.886h-3.886v3.886h3.885zM39.594 46.044a1.956 1.956 0 113.912.002 1.956 1.956 0 01-3.912-.002zM38.53 42.885v-3.886h-3.885v3.886h3.886zM33.827 47.998v-3.885h-3.886v3.886h3.886zM28.777 42.887V39H24.89v3.886h3.886zM20.19 46.044A1.956 1.956 0 1122.146 48a1.94 1.94 0 01-1.956-1.956z" fill="#50E6FF"/><path d="M10.06 4.016V.13H6.175v3.886h3.885zM0 7.035a1.956 1.956 0 113.913.002A1.956 1.956 0 010 7.035zM10.073 13.832V9.946H6.188v3.886h3.885zM3.892 18.797V14.91H.006v3.886h3.886zM10.08 23.49v-3.886H6.196v3.886h3.886zM0 26.514a1.956 1.956 0 113.913.002A1.956 1.956 0 010 26.514zM10.073 33.26v-3.886H6.187v3.886h3.886zM3.892 38.225v-3.886H.006v3.886h3.886z" fill="#0078D4"/><path d="M10.067 42.88v-3.887H6.18v3.886h3.886z" fill="#50E6FF"/><path d="M0 46.044A1.956 1.956 0 111.956 48 1.94 1.94 0 010 46.044z" fill="#0078D4"/><path d="M19.486 42.882v-3.885H15.6v3.885h3.886zM14.874 48.006V44.12h-3.886v3.886h3.886zM12.755 29.018v6.4h6.4v-6.4h-6.4z" fill="#50E6FF"/><path d="M12.75 21.867v.228a3.057 3.057 0 003.047 3.048h.228a3.057 3.057 0 003.048-3.048v-.228a3.057 3.057 0 00-3.048-3.048h-.228a3.057 3.057 0 00-3.048 3.048zM12.765 9.41v6.325h6.323V9.41h-6.323zM12.75 3.048v.228a3.057 3.057 0 003.047 3.048h.228a3.057 3.057 0 003.048-3.048v-.228A3.057 3.057 0 0016.025 0h-.228a3.057 3.057 0 00-3.048 3.048z" fill="#0078D4"/><path d="M22.425 32.05v.306a3.057 3.057 0 003.048 3.047h.305a3.057 3.057 0 003.047-3.047v-.305a3.057 3.057 0 00-3.047-3.048h-.305a3.057 3.057 0 00-3.048 3.048zM32.095 29.006v6.4h6.4v-6.4h-6.4zM41.778 32.05v.306a3.057 3.057 0 003.047 3.047h.305a3.057 3.057 0 003.048-3.047v-.305a3.057 3.057 0 00-3.048-3.048h-.305a3.04 3.04 0 00-3.047 3.048zM35.556 17.32a4.932 4.932 0 01-4.927-4.926 4.932 4.932 0 014.927-4.927 4.932 4.932 0 014.927 4.927c.025 2.717-2.185 4.927-4.927 4.927z" fill="#50E6FF"/><path d="M45.029 10.311v-7.06H38.12V0h10.158v10.311h-3.25zM22.857 10.311V0h10.337v3.25h-7.086v7.061h-3.25zM38.12 24.762v-3.25h6.909v-6.934h3.25v10.184H38.121zM22.857 24.762V14.578h3.25v6.933h7.087v3.25H22.857z" fill="#0078D4"/></g><defs><clipPath id="knowledge-mining:97e9dfc8-2fc9-46ba-93f3-d7334ddbcce3-81e51066"><path fill="#fff" d="M0 0h48v48H0z"/></clipPath></defs></svg>