<svg xmlns="http://www.w3.org/2000/svg" viewBox="0 0 115.527 112.497"><path d="M36.885 110.7a8.811 8.811 0 01-6.947-3.361L3.793 74.849a8.77 8.77 0 01-1.718-7.619l9.337-40.562a8.837 8.837 0 014.855-6.051L54.066 2.54a8.864 8.864 0 017.769 0l37.8 18a8.837 8.837 0 014.855 6.051l9.337 40.562a9.011 9.011 0 01-1.718 7.619l-26.146 32.496a9.043 9.043 0 01-6.947 3.361l-42.13.075z" fill="#326de6"/><path d="M57.876 3.511a7.307 7.307 0 013.063.672l37.8 18a7.254 7.254 0 013.884 4.855l9.335 40.562a6.985 6.985 0 01-1.419 6.125l-26.145 32.497a7.116 7.116 0 01-5.6 2.689H36.885a7.116 7.116 0 01-5.6-2.689L5.138 73.728A7.479 7.479 0 013.719 67.6l9.337-40.562a7.133 7.133 0 013.884-4.855l37.8-18.077a9 9 0 013.137-.6zm0-3.511a11.3 11.3 0 00-4.631 1.046l-37.8 18.077a10.579 10.579 0 00-5.825 7.246L.283 66.931a10.592 10.592 0 002.092 9.113l26.145 32.494a10.552 10.552 0 008.29 3.962h41.907a10.552 10.552 0 008.292-3.959l26.145-32.494a10.537 10.537 0 002.092-9.113l-9.337-40.562a10.579 10.579 0 00-5.827-7.246l-37.65-18.08A10.708 10.708 0 0057.876 0z" fill="#fff"/><path d="M95.748 64.391h-.075c-.075 0-.149 0-.149-.075-.149 0-.3-.075-.448-.075a10.207 10.207 0 00-1.419-.149 2.8 2.8 0 01-.747-.075h-.075a19.716 19.716 0 01-4.034-.672 1.455 1.455 0 01-.822-.822c0-.075-.075-.075-.075-.149l-.971-.3a29.547 29.547 0 00-.523-10.533 30.779 30.779 0 00-4.183-9.786l.747-.672v-.149a1.688 1.688 0 01.374-1.12A21.791 21.791 0 0186.71 37.5c.224-.149.448-.224.672-.373a11.245 11.245 0 001.27-.747c.075-.075.224-.149.373-.3.075-.075.149-.075.149-.149a2.5 2.5 0 00.523-3.361 2.125 2.125 0 00-1.718-.822 2.776 2.776 0 00-1.643.6l-.149.149c-.149.075-.224.224-.373.3a12.4 12.4 0 00-.971 1.046 3.451 3.451 0 01-.523.523 18.992 18.992 0 01-2.988 2.689 1.2 1.2 0 01-.672.224.947.947 0 01-.448-.075h-.149l-.9.6a36.276 36.276 0 00-3.063-2.845 29.832 29.832 0 00-15.612-6.2l-.075-.971-.149-.149a1.561 1.561 0 01-.6-.971 26.212 26.212 0 01.224-4.034v-.075a2.654 2.654 0 01.149-.747c.075-.448.149-.9.224-1.419v-.672A2.279 2.279 0 0056.307 18a2.366 2.366 0 00-.672 1.718v.6a4.349 4.349 0 00.224 1.419c.075.224.075.448.149.747v.075a19.3 19.3 0 01.224 4.034 1.561 1.561 0 01-.6.971l-.149.149-.075.971a37.533 37.533 0 00-4.034.6 28.8 28.8 0 00-14.79 8.366l-.747-.523h-.147c-.149 0-.3.075-.448.075a1.2 1.2 0 01-.672-.224 19.809 19.809 0 01-2.988-2.764 3.451 3.451 0 00-.523-.523 12.4 12.4 0 00-.971-1.046c-.075-.075-.224-.149-.373-.3-.075-.075-.149-.075-.149-.149a2.61 2.61 0 00-1.643-.6 2.125 2.125 0 00-1.718.822 2.5 2.5 0 00.523 3.361c.075 0 .075.075.149.075.149.075.224.224.373.3a11.245 11.245 0 001.27.747 3.028 3.028 0 01.672.373 21.791 21.791 0 013.361 2.316 1.372 1.372 0 01.373 1.12v.149l.747.672a2.621 2.621 0 00-.373.6 29.093 29.093 0 00-4.183 19.721l-.971.3c0 .075-.075.075-.075.149a1.737 1.737 0 01-.822.822 18.865 18.865 0 01-4.034.672h-.075a2.541 2.541 0 00-.747.075 10.207 10.207 0 00-1.419.149c-.149 0-.3.075-.448.075a.274.274 0 00-.224.075 2.45 2.45 0 00-1.942 2.764 2.3 2.3 0 002.39 1.718 1.645 1.645 0 00.6-.075c.075 0 .149 0 .149-.075.149 0 .3-.075.448-.075a7.19 7.19 0 001.343-.526c.224-.075.448-.224.672-.3h.075a18.35 18.35 0 013.884-1.12h.149a1.663 1.663 0 01.971.373c.075 0 .075.075.149.075l1.046-.149a29.544 29.544 0 009.786 14.043 30.239 30.239 0 003.212 2.166l-.448.971c0 .075.075.075.075.149a1.534 1.534 0 01.149 1.2 21.061 21.061 0 01-1.942 3.511v.075c-.149.224-.3.373-.448.6-.3.373-.523.747-.822 1.2a1.633 1.633 0 00-.224.373.261.261 0 01-.075.149 2.363 2.363 0 00.971 3.212 1.989 1.989 0 00.9.224 2.686 2.686 0 002.241-1.419.261.261 0 01.075-.149 1.633 1.633 0 01.224-.373 14.147 14.147 0 00.448-1.345l.224-.672a17.555 17.555 0 011.569-3.735 1.918 1.918 0 01.971-.672c.075 0 .075 0 .149-.075l.523-.971a29.185 29.185 0 0010.458 1.942 27.114 27.114 0 006.5-.747 33.2 33.2 0 003.884-1.12l.448.822c.075 0 .075 0 .149.075a1.385 1.385 0 01.971.672 25.574 25.574 0 011.566 3.725v.075l.224.672a9.461 9.461 0 00.448 1.345c.075.149.149.224.224.373a.261.261 0 00.075.149 2.538 2.538 0 002.241 1.419 1.989 1.989 0 00.9-.224A2.225 2.225 0 0077 93.075a2.7 2.7 0 00-.149-1.867c0-.075-.075-.075-.075-.149a1.633 1.633 0 00-.224-.373 6.769 6.769 0 00-.822-1.2c-.149-.224-.3-.373-.448-.6v-.075A16.766 16.766 0 0173.34 85.3a2.081 2.081 0 01.075-1.2c0-.075.075-.075.075-.149l-.373-.9a29.635 29.635 0 0013-16.359l.9.149c.075 0 .075-.075.149-.075a1.9 1.9 0 01.971-.373h.149a18.35 18.35 0 013.884 1.12h.075c.224.075.448.224.672.3a7.19 7.19 0 001.345.523c.149 0 .3.075.448.075a.274.274 0 01.224.075 1.645 1.645 0 00.6.075 2.514 2.514 0 002.39-1.718 2.875 2.875 0 00-2.166-2.465zm-34.586-3.66L57.876 62.3l-3.287-1.569-.822-3.511 2.241-2.839h3.66l2.241 2.839-.747 3.511zm19.5-7.769a23.554 23.554 0 01.523 7.545L69.753 57.22a2.025 2.025 0 01-1.419-2.39 1.781 1.781 0 01.448-.822l9.039-8.142a23.934 23.934 0 012.839 7.1zm-6.427-11.579l-9.786 6.947a1.989 1.989 0 01-2.614-.448 1.658 1.658 0 01-.373-.822l-.672-12.176a22.673 22.673 0 0113.446 6.5zm-21.663-6.125c.822-.149 1.569-.3 2.39-.448l-.672 11.952a2.044 2.044 0 01-2.017 1.938 1.774 1.774 0 01-.9-.224l-9.935-7.1a22.788 22.788 0 0111.13-6.125zM37.856 45.865l8.889 7.918a1.989 1.989 0 01.224 2.764 1.487 1.487 0 01-.9.6l-11.574 3.359a24.047 24.047 0 013.361-14.641zm-2.017 20.244l11.877-2.017a2.014 2.014 0 012.092 1.569 2.134 2.134 0 01-.075 1.2l-4.556 10.976a23.545 23.545 0 01-9.337-11.728zM63.1 80.974a24.4 24.4 0 01-5.229.6 25.309 25.309 0 01-7.545-1.2l5.9-10.682a1.961 1.961 0 012.39-.523 3.184 3.184 0 01.9.822l5.752 10.383c-.672.224-1.419.373-2.166.6zm14.571-10.383a23.708 23.708 0 01-7.171 7.246l-4.706-11.28a2.011 2.011 0 011.046-2.316 2.386 2.386 0 011.046-.224l11.952 2.017a15.033 15.033 0 01-2.166 4.557z" fill="#fff"/></svg>