<svg xmlns="http://www.w3.org/2000/svg" viewBox="0 0 95.081 80.613"><path d="M76.473 44.262H36.064a.625.625 0 010-1.25h40.409a.625.625 0 010 1.25zM18.9 30.509a.626.626 0 01-.625-.625V.625A.626.626 0 0118.9 0h66.814a.626.626 0 01.625.625v28.1a.625.625 0 01-1.25 0V1.25h-65.56v28.634a.626.626 0 01-.629.625zm0 22.38a4.213 4.213 0 01-4.2-4.207.626.626 0 01.625-.625h7.165a.626.626 0 01.625.625 4.212 4.212 0 01-4.215 4.207zm-2.892-3.582a2.958 2.958 0 005.782 0z" fill="#fff"/><path d="M19 57.649h-.2a11.574 11.574 0 01-11.556-11.56v-.2A11.584 11.584 0 0118.8 34.285h.2a11.574 11.574 0 0111.563 11.561v.243A11.574 11.574 0 0119 57.649zm-.2-22.114A10.322 10.322 0 008.494 45.846v.243A10.322 10.322 0 0018.8 56.4h.2a10.322 10.322 0 0010.313-10.311v-.243A10.322 10.322 0 0019 35.535z" fill="#fff"/><path d="M32.624 47.216a.626.626 0 01-.624-.625v-.3a12.989 12.989 0 00-12.974-12.977h-.245A12.988 12.988 0 005.808 46.288v.3a.625.625 0 01-1.25 0v-.245a14.251 14.251 0 0114.223-14.279h.245a14.24 14.24 0 0114.223 14.224v.3a.626.626 0 01-.625.628zm4.558 33.397H.625A.626.626 0 010 79.988v-9.843a19.025 19.025 0 0110.669-17.021.625.625 0 01.545 1.125 17.768 17.768 0 00-9.964 15.9v9.219h35.307v-9.223a17.77 17.77 0 00-9.964-15.9.625.625 0 11.545-1.125 19.027 19.027 0 0110.669 17.025v9.844a.626.626 0 01-.625.624z" fill="#fff"/><path d="M3.967 50.039a.626.626 0 01-.625-.625V40.99a.625.625 0 011.25 0v8.424a.626.626 0 01-.625.625zm29.874 0a.626.626 0 01-.625-.625V40.99a.625.625 0 011.25 0v8.424a.626.626 0 01-.625.625zM75.8 65.5l6.118-14.88a.381.381 0 00-.007-.347.374.374 0 00-.312-.132l-6.316.007 7.36-19.524a1.227 1.227 0 011.079-.741h11.27L87 43.278c-.032.055-.1.2-.046.3s.217.114.282.114l7.843-.046zm5.8-16.608a1.557 1.557 0 011.477 2.2l-3.286 7.993L92.3 44.908l-5.056.03a1.478 1.478 0 01-1.315-2.3l6.861-11.506h-9L77.1 48.9zm2.124-17.759h.006zm-31.415 4.402a14.2 14.2 0 1114.2-14.2 14.218 14.218 0 01-14.2 14.2zm0-27.154a12.952 12.952 0 1012.952 12.952A12.967 12.967 0 0052.309 8.381z" fill="#fff"/><path d="M48.009 27.909v-13.15L59.4 21.333zm1.25-10.986v8.82l7.64-4.41zm3.645 26.714h1.25v7.064h-1.25z" fill="#fff"/><path fill="#fff" d="M44.786 50.076h17.612v1.25H44.786z"/></svg>