<svg xmlns="http://www.w3.org/2000/svg" viewBox="0 0 48 48"><path d="M2.527 5.052A2.523 2.523 0 010 2.526 2.523 2.523 0 012.527 0a2.523 2.523 0 012.526 2.526 2.534 2.534 0 01-2.526 2.526zM12.211 0H7.158v5.052h5.053V0zM19.353 0H14.3v5.052h5.053V0zM26.527 0h-5.052v5.052h5.052V0zM33.684 0H28.63v5.052h5.053V0zM38.315 5.052a2.523 2.523 0 01-2.526-2.526A2.523 2.523 0 0138.315 0a2.523 2.523 0 012.527 2.526 2.534 2.534 0 01-2.527 2.526zM45.474 5.052a2.523 2.523 0 01-2.527-2.526A2.523 2.523 0 0145.474 0 2.523 2.523 0 0148 2.526a2.534 2.534 0 01-2.526 2.526zM5.053 7.16H0v5.052h5.053V7.16zM12.211 7.16H7.158v5.052h5.053V7.16zM19.353 7.16H14.3v5.052h5.053V7.16z" fill="#0078D4"/><path d="M26.527 7.16h-5.052v5.052h5.052V7.16z" fill="#50E6FF"/><path d="M33.684 7.16H28.63v5.052h5.053V7.16zM38.315 12.212a2.523 2.523 0 01-2.526-2.526 2.523 2.523 0 012.526-2.526 2.523 2.523 0 012.527 2.526 2.534 2.534 0 01-2.527 2.526zM48 7.16h-5.053v5.052H48V7.16zM5.053 14.316H0v5.052h5.053v-5.052zM12.211 14.316H7.158v5.052h5.053v-5.052z" fill="#0078D4"/><path d="M19.353 14.316H14.3v5.052h5.053v-5.052zM26.527 14.316h-5.052v5.052h5.052v-5.052zM33.684 14.316H28.63v5.052h5.053v-5.052z" fill="#50E6FF"/><path d="M40.842 14.316h-5.053v5.052h5.053v-5.052zM48 14.316h-5.053v5.052H48v-5.052zM5.053 21.472H0v5.052h5.053v-5.052z" fill="#0078D4"/><path d="M12.211 21.472H7.158v5.052h5.053v-5.052zM19.353 21.472H14.3v5.052h5.053v-5.052zM24 26.524a2.523 2.523 0 01-2.525-2.526A2.523 2.523 0 0124 21.472a2.523 2.523 0 012.526 2.526 2.534 2.534 0 01-2.526 2.526zM33.684 21.472H28.63v5.052h5.053v-5.052zM40.842 21.472h-5.053v5.052h5.053v-5.052z" fill="#50E6FF"/><path d="M48 21.472h-5.053v5.052H48v-5.052zM5.053 28.628H0v5.052h5.053v-5.052zM12.211 28.628H7.158v5.052h5.053v-5.052z" fill="#0078D4"/><path d="M16.827 33.68a2.523 2.523 0 01-2.527-2.526 2.523 2.523 0 012.527-2.526 2.523 2.523 0 012.526 2.526 2.534 2.534 0 01-2.526 2.526zM26.527 28.628h-5.052v5.052h5.052v-5.052zM33.684 28.628H28.63v5.052h5.053v-5.052z" fill="#50E6FF"/><path d="M38.315 33.68a2.523 2.523 0 01-2.526-2.526 2.523 2.523 0 012.526-2.526 2.523 2.523 0 012.527 2.526 2.534 2.534 0 01-2.527 2.526zM48 28.628h-5.053v5.052H48v-5.052zM5.053 35.788H0v5.052h5.053v-5.052zM12.211 35.788H7.158v5.052h5.053v-5.052zM19.353 35.788H14.3v5.052h5.053v-5.052z" fill="#0078D4"/><path d="M24 40.84a2.523 2.523 0 01-2.525-2.526A2.523 2.523 0 0124 35.788a2.523 2.523 0 012.526 2.526 2.534 2.534 0 01-2.526 2.526z" fill="#50E6FF"/><path d="M33.684 35.788H28.63v5.052h5.053v-5.052zM40.842 35.788h-5.053v5.052h5.053v-5.052zM48 35.788h-5.053v5.052H48v-5.052zM5.053 42.947H0V48h5.053v-5.053zM12.211 42.947H7.158V48h5.053v-5.053zM19.353 42.947H14.3V48h5.053v-5.053zM26.527 42.947h-5.052V48h5.052v-5.053zM33.684 42.947H28.63V48h5.053v-5.053zM38.315 48a2.523 2.523 0 01-2.526-2.526 2.523 2.523 0 012.526-2.527 2.523 2.523 0 012.527 2.527A2.534 2.534 0 0138.315 48zM48 42.947h-5.053V48H48v-5.053z" fill="#0078D4"/></svg>