<svg xmlns="http://www.w3.org/2000/svg" viewBox="0 0 48 48"><path d="M38.805 13.117H6.528V5h8.487l2.913 2.518h20.877v5.6z" fill="#0078D4"/><path d="M40.333 11.195H5v24.11h35.333v-24.11z" fill="#0078D4"/><path d="M35.237 10.047H10.112v1.301h25.125v-1.301zm7.269 14.263c0-4.803-3.929-8.74-8.731-8.74-4.311 0-7.907 3.172-8.597 7.3h3.578a5.25 5.25 0 011.332-2.256 5.18 5.18 0 013.695-1.531c1.39 0 2.697.55 3.696 1.531a5.18 5.18 0 011.531 3.696v2.105H25.044v17.511H42.49V27.54c.017-1.582.017-2.863.017-3.23z" fill="#50E6FF"/><path d="M33.734 37.317a2.138 2.138 0 10.001-4.28 2.138 2.138 0 00-.001 4.28z" fill="#0078D4"/></svg>