<svg xmlns="http://www.w3.org/2000/svg" viewBox="0 0 150 150"><path d="M147.619 133.35l-47.62-86.769V8.08H112.5V0h-75v8.08H50v38.5L2.3 133.35c-5.4 9-.9 16.65 9.443 16.65h126.425c10.801 0 14.851-7.2 9.451-16.65zM9.274 140.102c-.585-1.535-1.108-3.163.33-5.569l47.7-84.94.775-1.406V8.08H91.92v40.107l.769 1.407 17.375 31.656H62.499l-34.062 60.671H13.572c-2.575 0-3.054-.61-4.298-1.819zm133.336.219c-1.299 1.6-3.215 1.6-6.271 1.6H37.385L68.04 89.329h45.454l26.869 45.292c1.588 2.781 2.246 3.489 2.246 5.7z" fill="#1A1A1A"/></svg>