<svg xmlns="http://www.w3.org/2000/svg" viewBox="0 0 43.944 36.94"><path d="M22.058 16.211a.422.422 0 01-.2-.058L8.471 8.428a.412.412 0 01-.2-.351.405.405 0 01.2-.35L21.773.052a.407.407 0 01.4 0L35.56 7.78a.406.406 0 010 .7l-13.3 7.673a.41.41 0 01-.205.058" fill="#0072c6"/><path d="M20.135 34.987a.382.382 0 01-.2-.055l-13.343-7.7a.4.4 0 01-.207-.351V11.427A.41.41 0 017 11.076l13.342 7.7a.424.424 0 01.2.354v15.451a.413.413 0 01-.2.351.426.426 0 01-.2.055m3.77 0a.436.436 0 01-.21-.055.412.412 0 01-.2-.351V19.225a.42.42 0 01.2-.351l13.342-7.7a.4.4 0 01.4 0 .4.4 0 01.205.35V26.88a.4.4 0 01-.205.351l-13.337 7.7a.359.359 0 01-.2.055" fill="#0072c6" style="isolation:isolate"/><path d="M9.462 36.94a1.228 1.228 0 01-.615-.166L.331 31.861 0 5.144 8.878.347a1.234 1.234 0 111.173 2.17L2.487 6.605l.3 23.821 7.3 4.211a1.234 1.234 0 01-.618 2.3zm25.021 0a1.234 1.234 0 01-.618-2.3l7.3-4.211.3-23.821-7.573-4.09A1.234 1.234 0 1135.066.347l8.879 4.8-.332 26.717-8.513 4.91a1.228 1.228 0 01-.617.166z" fill="#0072c6"/></svg>