<svg xmlns="http://www.w3.org/2000/svg" viewBox="0 0 39.761 34.989"><path d="M0 33.4a1.531 1.531 0 001.59 1.59h36.58a1.531 1.531 0 001.59-1.59V6.892H0z" fill="#59b4d9"/><path d="M38.17 0H1.59A1.531 1.531 0 000 1.59v5.832h39.761V1.59A1.531 1.531 0 0038.17 0z" fill="#a0a1a2"/><path d="M1.59 0A1.531 1.531 0 000 1.59V33.4a1.531 1.531 0 001.59 1.59h15.242L34.724 0z" fill="#fff" opacity=".1" style="isolation:isolate"/><path d="M6.759 16.7l-.4-.4a.249.249 0 010-.4l1.06-.928.133-.133c.133 0 .133 0 .133.133l2.915 3.185 5.169-6.494a.463.463 0 01.265-.133h.133l1.193.928.133.133v.133l-6.627 8.35z" fill="#fff"/><path fill="#fff" opacity=".6" style="isolation:isolate" d="M17.495 16.567h15.904v2.651H17.495z"/><path d="M6.759 27.037l-.4-.4a.249.249 0 010-.4l1.06-.928.133-.133c.133 0 .133 0 .133.133L10.6 28.5l5.172-6.5a.463.463 0 01.265-.133h.133l1.193.928.133.133v.133l-6.627 8.35z" fill="#fff"/><path fill="#fff" opacity=".6" style="isolation:isolate" d="M17.495 27.037h15.904v2.651H17.495z"/></svg>