<svg xmlns="http://www.w3.org/2000/svg" viewBox="0 0 48 48"><path d="M46.4 1.814H1.6a1.6 1.6 0 00-1.6 1.6v28.8a1.6 1.6 0 001.6 1.6h44.8a1.6 1.6 0 001.6-1.6v-28.8a1.6 1.6 0 00-1.6-1.6z" fill="url(#managed-desktop:291f5698-265e-5y9g-k4e0-bkl658t15293-779388ea)"/><path d="M44.453 4.48H3.547a.88.88 0 00-.88.88v24.907c0 .486.394.88.88.88h40.906a.88.88 0 00.88-.88V5.36a.88.88 0 00-.88-.88z" fill="#fff"/><path d="M33.627 43.493c-4.747-.746-4.934-4.16-4.907-9.68h-9.44c0 5.52-.16 8.934-4.907 9.68A2.8 2.8 0 0012 46.16h24a2.8 2.8 0 00-2.373-2.666z" fill="url(#managed-desktop:456p0677-490e-5y9g-h7f5-opt999p28974-2b785579)"/><path d="M22.888 24.183l-1.791 1.79a.773.773 0 01-1.094 0l-7.09-7.09a.773.773 0 010-1.093l1.245-1.244a.773.773 0 011.094 0l7.542 7.542.094.095z" fill="#86D633"/><path d="M20.029 25.951l-1.792-1.791L34.51 7.887a.773.773 0 011.094 0l1.226 1.226a.773.773 0 010 1.093L21.104 25.933a.774.774 0 01-1.094 0l.019.018z" fill="#5E9624"/><defs><linearGradient id="managed-desktop:291f5698-265e-5y9g-k4e0-bkl658t15293-779388ea" x1="24" y1="33.813" x2="24" y2="1.814" gradientUnits="userSpaceOnUse"><stop stop-color="#0078D4"/><stop offset=".82" stop-color="#5EA0EF"/></linearGradient><linearGradient id="managed-desktop:456p0677-490e-5y9g-h7f5-opt999p28974-2b785579" x1="24" y1="46.187" x2="24" y2="33.813" gradientUnits="userSpaceOnUse"><stop stop-color="#1490DF"/><stop offset=".98" stop-color="#1F56A3"/></linearGradient></defs></svg>