<svg xmlns="http://www.w3.org/2000/svg" viewBox="0 0 36 33.75"><path d="M22.5 33.75l2.461-4.939L20.25 24.1v6.275a3.311 3.311 0 01-.264 1.318 3.357 3.357 0 01-1.793 1.793 3.428 3.428 0 01-2.637 0 3.357 3.357 0 01-1.793-1.793 3.311 3.311 0 01-.264-1.318v-4.236l-.018-.035a1.216 1.216 0 01-.316.563l-4.921 4.938a3.412 3.412 0 01-1.143.756 3.525 3.525 0 01-1.336.264 3.449 3.449 0 01-1.365-.272 3.49 3.49 0 01-1.116-.747 3.612 3.612 0 01-.756-1.116 3.356 3.356 0 01-.281-1.362 3.469 3.469 0 01.272-1.354 3.526 3.526 0 01.765-1.143L6.75 23.15v-6.468a3.549 3.549 0 01-1.125.193 3.311 3.311 0 01-1.318-.264 3.357 3.357 0 01-1.793-1.793A3.311 3.311 0 012.25 13.5V7.875a1.125 1.125 0 01.738-1.055L.334 4.166a1.1 1.1 0 010-1.582 1.081 1.081 0 01.791-.334 1.081 1.081 0 01.791.334L5.52 6.17l6.592-1.635a2.012 2.012 0 01.686-.062q.369.026.7.026a4.379 4.379 0 01.352-1.749 4.534 4.534 0 012.4-2.4 4.526 4.526 0 013.5 0 4.534 4.534 0 012.4 2.4 4.379 4.379 0 01.35 1.75 4.452 4.452 0 01-.343 1.723 4.4 4.4 0 01-.957 1.441L23.555 18.4q.035.176.053.352t.018.352a3.367 3.367 0 01-.554 1.872 3.286 3.286 0 01-1.5 1.257l4.465 4.447 3.213-6.43L36 33.75zM5.625 14.625A1.141 1.141 0 006.75 13.5v-2.021a1.072 1.072 0 01.246-.7 1.112 1.112 0 01.615-.387q.246-.07.773-.211l1.09-.29q.563-.149 1.063-.264a3.745 3.745 0 01.694-.114 1.11 1.11 0 01.8.334 1.087 1.087 0 01.343.809 1.1 1.1 0 01-.1.492.911.911 0 01-.272.325 1.5 1.5 0 01-.4.211q-.22.079-.448.149L15.75 16.4v-2.18a1.1 1.1 0 01.325-.791 1.053 1.053 0 01.782-.334 1.17 1.17 0 01.721.237 1.054 1.054 0 01.4.642q.316 1.354.571 2.707t.606 2.689a1.19 1.19 0 00.4.642 1.088 1.088 0 00.712.237 1.11 1.11 0 001.107-1.107 1.481 1.481 0 00-.035-.264L19.16 8.842A4.265 4.265 0 0118 9a4.429 4.429 0 01-2.25-.6 4.471 4.471 0 01-1.65-1.65h-1.584l-8.016 2v4.75a1.141 1.141 0 001.125 1.125zM18 23.889q-.053-.088-.211-.413T17.4 22.7q-.229-.448-.475-.949l-.457-.932q-.211-.431-.36-.721t-.167-.308q-.3-.369-.571-.65t-.545-.536q-.272-.255-.571-.519t-.633-.615L9 12.85v10.775a1.081 1.081 0 01-.334.791l-3.8 3.8a1.262 1.262 0 000 1.784 1.187 1.187 0 00.879.378 1.221 1.221 0 00.9-.369L11.25 25.4v-4.025a1.141 1.141 0 011.125-1.125 1.107 1.107 0 01.589.167 1.087 1.087 0 01.413.448l2.25 4.5a1.058 1.058 0 01.123.51v4.5a1.125 1.125 0 002.25 0zM18 2.25a2.18 2.18 0 00-.879.176 2.291 2.291 0 00-1.2 1.2 2.285 2.285 0 000 1.758 2.291 2.291 0 001.2 1.2 2.285 2.285 0 001.758 0 2.291 2.291 0 001.2-1.2 2.285 2.285 0 000-1.758 2.291 2.291 0 00-1.2-1.2A2.18 2.18 0 0018 2.25zm11.25 23.027L26.139 31.5h6.223z" fill="#fff"/></svg>