<svg xmlns="http://www.w3.org/2000/svg" viewBox="0 0 172.364 123.898"><path d="M85.657 111.821c-.077 0-.143.018-.219.02a12.608 12.608 0 00-20.681-12.677 16.55 16.55 0 00-32.457 2.808 11.756 11.756 0 00-.412-.066 12.587 12.587 0 00-20.477 5.247A8.6 8.6 0 108.6 123.884h20.151a11.176 11.176 0 001.636.121h55.27a6.092 6.092 0 100-12.184z" fill="#cbebf5"/><path d="M82.722 43.079l.168-.031a9.906 9.906 0 00-1.712-19.663h-.1c.056-.63.087-1.266.087-1.909a21.476 21.476 0 00-41.839-6.827 14.677 14.677 0 10-4.8 28.548h47.518l-.01-.034a7.89 7.89 0 00.62-.075zm82.892 41.859l.077-.014a4.515 4.515 0 00-.779-8.962h-.046c.025-.287.04-.578.04-.87a9.789 9.789 0 00-19.07-3.112 6.69 6.69 0 10-2.187 13.012H165.3v-.015c.1-.008.189-.019.282-.034z" fill="#cbebf5" opacity=".8"/><path d="M51.814 108.828a3.5 3.5 0 003.484 3.494h87.283a3.5 3.5 0 003.494-3.494l.008-62.48H51.814z" fill="#a0a1a2"/><path d="M142.589 32.023H55.3a3.5 3.5 0 00-3.484 3.5V46.35h94.264V35.518a3.506 3.506 0 00-3.495-3.5" fill="#7a7a7a"/><path fill="#0072c6" d="M58.792 52.974h38.404v24.429H58.792zm0 27.919h38.404v24.449H58.792z"/><path fill="#fff" d="M100.692 52.974h38.365v24.429h-38.365z"/><path fill="#0072c6" d="M100.692 80.893h38.365v24.449h-38.365z"/><path d="M55.6 31.975a3.785 3.785 0 00-3.785 3.784v72.813a3.788 3.788 0 003.785 3.786h4.125l74.318-80.383z" fill="#fff" opacity=".2"/></svg>