<svg xmlns="http://www.w3.org/2000/svg" viewBox="0 0 84 96"><path d="M41.568 93.113L2.5 70.557V25.443L41.568 2.887l39.07 22.556v45.114l-39.07 22.556z" stroke="#CDCDD0" stroke-width="5" fill="none"/><path d="M59.85 28.72c-10.656-10.61-27.874-10.61-38.542 0-10.654 10.654-10.654 27.907 0 38.56 10.654 10.609 27.886 10.609 38.542 0 10.643-10.646 10.643-27.899 0-38.56z" fill="none"/><path d="M26.1 62.481c-8-8.002-8.001-20.96 0-28.965 8.017-7.972 20.952-7.971 28.956 0 7.996 8.01 7.995 20.97 0 28.965-8.004 7.97-20.948 7.971-28.955 0z" stroke="#CDCDD0" stroke-width="3" fill="none"/><path d="M36 58V38l14 10-14 10z" fill="none" stroke="#CDCDD0" stroke-width="2"/></svg>