<svg xmlns="http://www.w3.org/2000/svg" viewBox="0 0 50 50"><path fill="#3E3E3E" d="M34.69 41.507H15.792a3.521 3.521 0 010-7.042H34.69a4.544 4.544 0 004.539-4.539V11.581a4.544 4.544 0 00-4.539-4.539H15.792a3.521 3.521 0 010-7.042H34.69c6.386 0 11.581 5.195 11.581 11.581v18.346c0 6.385-5.195 11.58-11.581 11.58zM10.044 45.77H29.1v1.76H10.044zm6.008 1.76h7.042V50h-7.042z"/><path fill="#3E3E3E" d="M18.692 7.042h1.76v40.489h-1.76z"/><path fill="#5B8ED8" d="M3.729 20.364h28.166v7.922H3.729z"/><path fill="#59B4D9" d="M9.01 12.443h19.364v7.922H9.01z"/><path fill="#666" d="M16.052 9.802h7.042v2.641h-7.042zm0 18.484h7.042v2.47h-7.042z"/></svg>