<svg xmlns="http://www.w3.org/2000/svg" viewBox="0 0 50 50"><path fill="#FFF" d="M44.004 21.558c-1.497 5.837-6.586 9.878-12.572 9.878-1.048 0-2.095-.15-3.143-.449-1.497-.449-2.993-1.048-4.191-1.946-1.347-.898-2.395-2.095-3.293-3.293-1.946-2.993-2.844-6.586-1.946-10.327 1.497-5.837 6.586-9.878 12.572-9.878 1.048 0 2.095.15 3.143.449 3.293.898 6.137 2.844 7.933 5.837 1.796 2.844 2.395 6.436 1.497 9.729"/><path opacity=".1" fill="#59B4D9" d="M44.004 21.558c-1.497 5.837-6.586 9.878-12.572 9.878-1.048 0-2.095-.15-3.143-.449-1.497-.449-2.993-1.048-4.191-1.946-1.347-.898-2.395-2.095-3.293-3.293-1.946-2.993-2.844-6.586-1.946-10.327 1.497-5.837 6.586-9.878 12.572-9.878 1.048 0 2.095.15 3.143.449 3.293.898 6.137 2.844 7.933 5.837 1.796 2.844 2.395 6.436 1.497 9.729"/><path opacity=".3" fill="#59B4D9" d="M38.466 7.638c-1.197-.748-2.544-1.347-3.891-1.646a11.406 11.406 0 00-3.143-.449c-5.987 0-11.076 4.041-12.572 9.878-.898 3.742-.15 7.484 1.946 10.327.299.449.748 1.048 1.197 1.497A33.472 33.472 0 0138.466 7.638"/><path fill="#3E3E3E" d="M47.297 8.985A18.49 18.49 0 0035.922.603c-1.497-.299-2.993-.599-4.49-.599-8.531 0-15.865 5.837-17.961 14.069-1.197 4.64-.449 9.429 1.946 13.62l-14.07 14.22c-1.796 1.796-1.796 4.939 0 6.735 1.048.898 2.245 1.347 3.442 1.347s2.395-.449 3.442-1.347L22.3 34.429c1.497.898 3.143 1.497 4.79 1.946 1.497.299 2.993.599 4.49.599 8.531 0 15.865-5.837 17.961-14.069 1.048-4.79.3-9.729-2.244-13.92zm-3.293 12.573c-1.497 5.837-6.586 9.878-12.572 9.878-1.048 0-2.095-.15-3.143-.449-1.497-.449-2.993-1.048-4.191-1.946-1.347-.898-2.395-2.095-3.293-3.293-1.946-2.993-2.844-6.586-1.946-10.327 1.497-5.837 6.586-9.878 12.572-9.878 1.048 0 2.095.15 3.143.449 3.293.898 6.137 2.844 7.933 5.837 1.796 2.993 2.395 6.436 1.497 9.729z"/><path opacity=".5" fill="#1E1E1E" d="M20.954 33.681a18.23 18.23 0 01-4.79-4.79c-.299-.449-.449-.748-.748-1.197l-1.292 1.305-.084.085c.15.299.328.705.627 1.005 1.497 2.095 3.143 3.891 5.239 5.388.15.15.465.299.914.449l1.481-1.497c-.598-.449-.898-.449-1.347-.748z"/><path fill="#59B4D9" d="M27.097 11.041l11 7.316-11 7.315z"/></svg>