<svg xmlns="http://www.w3.org/2000/svg" viewBox="0 0 48 49"><path d="M34.803 34.058l3.586 3.588-3.586 3.588v-7.176z" fill="#50E6FF"/><path d="M13.256 15.806l-3.585-3.588 3.585-3.588v7.176z" fill="#0078D4"/><path d="M11.329 48.873h12.7c6.254 0 11.33-5.078 11.33-11.336S30.282 26.2 24.028 26.2h-12.7c-6.254-.008-11.33 5.07-11.33 11.328 0 6.267 5.076 11.345 11.33 11.345z" fill="#50E6FF"/><path d="M20.15 37.317a2.485 2.485 0 01-2.677 2.678 2.485 2.485 0 01.404-4.952 2.494 2.494 0 012.273 2.274zm-7.576 0a2.485 2.485 0 01-2.676 2.678 2.485 2.485 0 01.404-4.952 2.494 2.494 0 012.272 2.274zm15.15 0a2.485 2.485 0 01-2.676 2.678 2.485 2.485 0 01.404-4.952 2.494 2.494 0 012.273 2.274z" fill="#fff"/><path d="M23.895 23.597h12.7c6.255 0 11.33-5.079 11.33-11.337 0-6.257-5.067-11.336-11.33-11.336h-12.7c-6.254 0-11.329 5.079-11.329 11.337 0 6.266 5.075 11.336 11.33 11.336z" fill="#0078D4"/><path d="M32.716 12.05a2.485 2.485 0 01-2.677 2.678 2.485 2.485 0 01.404-4.952 2.48 2.48 0 012.273 2.274zm-7.576 0a2.485 2.485 0 01-2.676 2.678 2.485 2.485 0 01.404-4.952 2.48 2.48 0 012.273 2.274zm15.15 0a2.485 2.485 0 01-2.676 2.678 2.485 2.485 0 01.404-4.952 2.48 2.48 0 012.272 2.274z" fill="#50E6FF"/></svg>