<svg xmlns="http://www.w3.org/2000/svg" viewBox="0 0 48 49"><path fill="#fff" d="M4.883 4.071h40.346v29.408H4.883z"/><path d="M0 .029v37.893h48V.03H0zm35.368 27.788h-30.4v-2.526h30.4v2.526zm0-8.841h-30.4v-2.527h30.4v2.527zm5.053 10.105a2.526 2.526 0 110-5.053 2.526 2.526 0 010 5.053zm0-8.842a2.526 2.526 0 110-5.053 2.526 2.526 0 010 5.053zM35.37 42.976H12.633v5.053H35.37v-5.053z" fill="#0078D4"/><path d="M42.947 10.133h-5.053l2.527-4.042 2.526 4.042zm-7.579-2.527h-30.4v2.527h30.4V7.606z" fill="#50E6FF"/></svg>