<svg xmlns="http://www.w3.org/2000/svg" viewBox="0 0 49 49"><path d="M34.823 33.75l3.585 3.588-3.585 3.588V33.75z" fill="#50E6FF"/><path d="M13.276 15.5L9.69 11.912l3.586-3.588V15.5z" fill="#0078D4"/><path d="M11.348 48.568H24.05c6.254 0 11.33-5.079 11.33-11.337s-5.076-11.337-11.33-11.337h-12.7C5.094 25.887.018 30.965.018 37.224c0 6.266 5.076 11.345 11.33 11.345z" fill="#50E6FF"/><path d="M20.17 37.008a2.485 2.485 0 01-2.677 2.679 2.485 2.485 0 01.404-4.952 2.494 2.494 0 012.273 2.273zM12.594 37.008a2.485 2.485 0 01-2.676 2.679 2.485 2.485 0 01.404-4.952 2.494 2.494 0 012.272 2.273zM27.744 37.008a2.485 2.485 0 01-2.676 2.679 2.485 2.485 0 01.404-4.952 2.494 2.494 0 012.272 2.273z" fill="#fff"/><path d="M23.915 23.29h12.7c6.254 0 11.33-5.078 11.33-11.336S42.878.617 36.615.617h-12.7c-6.254 0-11.33 5.079-11.33 11.337 0 6.266 5.076 11.337 11.33 11.337z" fill="#0078D4"/><path d="M32.736 11.743a2.485 2.485 0 01-2.677 2.678 2.485 2.485 0 01.404-4.952 2.48 2.48 0 012.273 2.274zM25.16 11.743a2.485 2.485 0 01-2.676 2.678 2.485 2.485 0 01.404-4.952 2.48 2.48 0 012.272 2.274zM40.31 11.743a2.485 2.485 0 01-2.676 2.678 2.485 2.485 0 01.404-4.952 2.48 2.48 0 012.272 2.274z" fill="#50E6FF"/></svg>