<svg xmlns="http://www.w3.org/2000/svg" viewBox="0 0 49 49"><path fill="#fff" d="M4.902 4.66h40.346v29.408H4.902z"/><path d="M.02.617v37.894h48V.617h-48zm35.368 27.789h-30.4V25.88h30.4v2.526zm0-8.842h-30.4v-2.526h30.4v2.526zm5.053 10.105a2.526 2.526 0 110-5.053 2.526 2.526 0 010 5.053zm0-8.842a2.527 2.527 0 110-5.053 2.527 2.527 0 010 5.053zM35.39 43.566H12.651v5.053H35.39v-5.053z" fill="#0078D4"/><path d="M42.967 10.722h-5.053L40.44 6.68l2.527 4.042zM35.388 8.195h-30.4v2.527h30.4V8.195z" fill="#50E6FF"/></svg>