<svg xmlns="http://www.w3.org/2000/svg" viewBox="0 0 49 49"><path d="M41.577 40.298a23.489 23.489 0 005.954-14.45h-4.825A18.52 18.52 0 0138.15 36.87l3.427 3.427z" fill="#0078D4"/><path d="M6.554 8.82A23.467 23.467 0 00.508 23.363h5.036a18.566 18.566 0 014.547-10.997L6.554 8.82z" fill="#50E6FF"/><path d="M8.323 42.178a23.456 23.456 0 0014.535 5.97v-4.943a18.518 18.518 0 01-10.998-4.572l-3.537 3.545zM.508 25.848a23.45 23.45 0 006.03 14.543l3.545-3.545a18.601 18.601 0 01-4.531-10.998H.508z" fill="#0078D4"/><path d="M41.561 8.914l-3.427 3.427a18.457 18.457 0 014.564 11.024h4.825a23.429 23.429 0 00-5.962-14.45z" fill="#50E6FF"/><path d="M25.341 48.13a23.439 23.439 0 0014.46-6.038l-3.436-3.436a18.597 18.597 0 01-11.032 4.556l.008 4.918z" fill="#0078D4"/><path d="M25.342 1.09v4.926a18.553 18.553 0 0111.014 4.54l3.436-3.437a23.544 23.544 0 00-14.45-6.03zM22.857 1.078A23.52 23.52 0 008.331 7.04l3.537 3.537a18.618 18.618 0 0110.98-4.564l.01-4.935z" fill="#50E6FF"/><path d="M27.759 13.234H12.677v10.097h2.34v2.585l2.73-2.585h10.012V13.234z" fill="#0078D4"/><path d="M25.3 25.855v7.622h5.06l2.569 2.467v-2.468h2.484v-7.62H25.299z" fill="#50E6FF"/></svg>