<svg xmlns="http://www.w3.org/2000/svg" viewBox="0 0 49 49"><path d="M31.14 47.292a6.59 6.59 0 10-.001-13.18 6.59 6.59 0 000 13.18z" fill="#0078D7"/><path d="M34.462 1.29H2.412v4.78h32.05V1.29z" fill="#50E6FF"/><path d="M34.462 8.269H2.412v9.96h32.05V8.27z" fill="#3BCAF4"/><path d="M31.123 32.46c1.188 0 2.32.25 3.34.711V20.307H2.41v24.67h21.702a8.196 8.196 0 01-1.213-4.294c0-4.536 3.687-8.223 8.223-8.223z" fill="#0078D7"/><path d="M31.713 36.509h-1.18v8.368h1.18V36.51z" fill="#50E6FF"/><path d="M35.303 40.162h-8.368v1.18h8.377v-1.18h-.008z" fill="#50E6FF"/></svg>