<svg xmlns="http://www.w3.org/2000/svg" viewBox="0 0 48 48"><path d="M35.532 32.783v-1.928h-2.648v-3.268h-3.029v-2.669h-1.932v2.67h-2.8v-2.67H23.19v2.67h-2.81v-2.67h-1.93v2.67h-3.18v3.267h-2.658v1.928h2.658v2.804h-2.658v1.929h2.658v2.796h-2.658v1.928h2.658v2.93h3.18v2.822h1.932V45.17h2.809v2.82h1.932v-2.82h2.8v2.82h1.932v-2.82h3.029v-2.93h2.648v-1.93h-2.648v-2.795h2.648v-1.929h-2.648v-2.804h2.648z" fill="#0078D4"/><path d="M29.888 30.574H18.264v11.604h11.624V30.574z" fill="#50E6FF"/><path d="M23.924 2.08c3.231 0 6.378.615 9.364 1.82a24.547 24.547 0 018.225 5.457l1.367-1.365A26.763 26.763 0 0023.924.152c-6.858 0-13.717 2.61-18.955 7.84l1.366 1.356a24.843 24.843 0 018.225-5.457 24.906 24.906 0 019.364-1.81z" fill="#0078D4"/><path d="M23.924 8.53c4.918 0 9.541 1.912 13.017 5.381l1.366-1.364a20.291 20.291 0 00-14.383-5.945 20.29 20.29 0 00-14.383 5.945l1.367 1.364A18.333 18.333 0 0123.924 8.53zm0 7.336c2.953 0 5.728 1.145 7.82 3.234l1.367-1.365a12.958 12.958 0 00-9.187-3.797 12.958 12.958 0 00-9.187 3.797l1.367 1.365a11.026 11.026 0 017.82-3.234z" fill="#0078D4"/></svg>