<svg xmlns="http://www.w3.org/2000/svg" viewBox="0 0 48 48"><path d="M0 0h10.105v10.105L0 0z" fill="#0078D4"/><path d="M12.632 0h10.105v10.105L12.632 0zM25.263 0h10.105v10.105L25.263 0zM37.895 0H48v10.105L37.895 0z" fill="#50E6FF"/><path d="M0 12.631h10.105v10.106L0 12.63zM12.632 12.631h10.105v10.106L12.632 12.63z" fill="#0078D4"/><path d="M25.263 12.631h10.105v10.106L25.263 12.63zM37.895 12.631H48v10.106L37.895 12.63z" fill="#50E6FF"/><path d="M0 25.263h10.105v10.105L0 25.263zM12.632 25.263h10.105v10.105L12.632 25.263zM25.263 25.263h10.105v10.105L25.263 25.263z" fill="#0078D4"/><path d="M37.895 25.263H48v10.105L37.895 25.263z" fill="#50E6FF"/><path d="M0 37.895h10.105V48L0 37.895zM12.632 37.895h10.105V48L12.632 37.895zM25.263 37.895h10.105V48L25.263 37.895zM37.895 37.895H48V48L37.895 37.895z" fill="#0078D4"/></svg>