<svg xmlns="http://www.w3.org/2000/svg" viewBox="0 0 39 51"><path d="M.757 7.288v36.111c0 3.749 8.392 6.789 18.743 6.789v-42.9H.757z" fill="#505050"/><path d="M19.243 50.187h.257c10.351 0 18.743-3.038 18.743-6.788V7.288h-19v42.899z" fill="#505050"/><path d="M19.243 50.187h.257c10.351 0 18.743-3.038 18.743-6.788V7.288h-19v42.899z" fill="#FFF" opacity=".15"/><path d="M38.243 7.288c0 3.749-8.392 6.788-18.743 6.788C9.149 14.076.757 11.037.757 7.288S9.149.5 19.5.5c10.351 0 18.743 3.039 18.743 6.788" fill="#FFF"/><path d="M34.411 6.897c0 2.475-6.676 4.479-14.911 4.479S4.588 9.372 4.588 6.897c0-2.474 6.677-4.479 14.912-4.479 8.235 0 14.911 2.005 14.911 4.479" fill="#0072C6"/><path d="M31.287 9.634c1.952-.757 3.125-1.705 3.125-2.735 0-2.475-6.676-4.48-14.912-4.48-8.235 0-14.911 2.005-14.911 4.48 0 1.03 1.173 1.978 3.125 2.735C10.44 8.576 14.7 7.893 19.5 7.893c4.801 0 9.059.683 11.787 1.741" fill="#00ABEC"/><text font-family="SegoeUI-Bold, Segoe UI" font-size="15" font-weight="bold" letter-spacing="-.002" fill="#FFF"><tspan x="2" y="33">{</tspan> <tspan x="7.535" y="33" font-family="SegoeUI-Semibold, Segoe UI" font-size="11" font-weight="500">LEAF</tspan> <tspan x="31.612" y="33">}</tspan></text></svg>