<svg xmlns="http://www.w3.org/2000/svg" viewBox="0 0 48 48"><path fill="#fff" d="M4.883 4.042h40.346V33.45H4.883z"/><path d="M0 0v37.894h48V0H0zm35.368 27.789h-30.4v-2.527h30.4v2.527zm0-8.842h-30.4V16.42h30.4v2.526zm5.053 10.105a2.526 2.526 0 110-5.053 2.526 2.526 0 010 5.053zm0-8.842a2.527 2.527 0 110-5.055 2.527 2.527 0 010 5.055zM35.37 42.948H12.633V48H35.37v-5.052z" fill="#0078D4"/><path d="M42.947 10.104h-5.053l2.527-4.042 2.526 4.042zm-7.579-2.526h-30.4v2.526h30.4V7.578z" fill="#50E6FF"/></svg>