<svg xmlns="http://www.w3.org/2000/svg" viewBox="0 0 49 49"><path d="M24.02 47.165c12.504 0 22.641-10.137 22.641-22.641 0-12.504-10.137-22.641-22.641-22.641-12.504 0-22.641 10.137-22.641 22.64 0 12.505 10.137 22.642 22.641 22.642z" fill="#0078D4"/><path d="M33.345 8.142a18.808 18.808 0 00-9.325-2.458c-10.41 0-18.85 8.439-18.85 18.849 0 3.652 1.035 7.056 2.837 9.952l.229-.219a14.98 14.98 0 01-1.921-7.364c0-8.33 6.747-15.078 15.077-15.078 2.06 0 4.021.418 5.812 1.165l6.14-4.847zM40.191 14.828l-4.826 6.37A15.128 15.128 0 0135.912 31l3.971 3.731a18.725 18.725 0 002.996-10.2c0-3.553-.986-6.878-2.688-9.704zM37.973 11.843c.239-.806-.448-1.613-1.234-1.613-.12 0-.24.02-.359.06-.139.05-.288.12-.428.23l-5.493 4.318-6.658 5.235.03.279-.11.08 4.469 4.438 5.294-6.976 4.25-5.603c.12-.15.199-.299.239-.448z" fill="#50E6FF"/><path d="M24.02 29.37a4.847 4.847 0 100-9.694 4.847 4.847 0 000 9.693z" fill="#50E6FF"/></svg>