<svg xmlns="http://www.w3.org/2000/svg" viewBox="0 0 48 49"><path d="M5.74 22.844a2.433 2.433 0 10-1.78 1.8l2.54 3.804 1.011-.678-2.477-3.709a2.42 2.42 0 00.706-1.217zm39.448 4.225a2.414 2.414 0 00-1.114-.002l-2.624-4.424-1.047.62 2.591 4.37a2.433 2.433 0 102.194-.564zm-8.305 8.245l-.111-11.291-1.217.012.108 11.006a2.434 2.434 0 00-1.188.363l-9.47-9.486 4.352-4.424-.867-.853-4.346 4.417-10.2-10.216a2.433 2.433 0 10-2.657 1.13c.031.008.061.013.09.019l-.096 10.358 1.217.013.098-10.44c.171-.056.334-.13.488-.22l10.208 10.223-3.07 3.087.867.853 3.062-3.08 9.484 9.5a2.433 2.433 0 103.248-.97z" fill="#50E6FF"/><path d="M35.11 4.371a9.032 9.032 0 00-6.107 3.322 9.078 9.078 0 00-1.976 6.675 9.032 9.032 0 003.322 6.108 9.066 9.066 0 006.664 1.976 9.079 9.079 0 006.119-3.322 9.066 9.066 0 001.976-6.665c-.263-2.523-1.546-4.678-3.386-6.16a8.888 8.888 0 00-5.634-1.987c-.325.001-.641.022-.978.053z" fill="#50E6FF"/><path d="M32.324 10.984l-2.207-1.787a7.296 7.296 0 00-1.314 4.478l2.828-.294c0-.83.231-1.66.693-2.397zm6.182-1.399l1.787-2.207a7.298 7.298 0 00-4.488-1.303l.294 2.827c.84-.01 1.671.221 2.407.683zm-3.386-.578l-.294-2.828a7.375 7.375 0 00-4.1 2.239l2.208 1.787a4.572 4.572 0 012.187-1.198zm-3.384 5.358l-2.828.295a7.34 7.34 0 002.24 4.1l1.787-2.208a4.504 4.504 0 01-1.199-2.187z" fill="#0078D4"/><path d="M46.958 12.265c-.316-3.038-1.872-5.645-4.058-7.411-.42-.347-.895-.638-1.367-.922l-.847 1.54-.018.109c.368.22.729.45 1.055.714 1.84 1.492 3.123 3.637 3.385 6.16a9.092 9.092 0 01-1.976 6.675 9.078 9.078 0 01-10.828 2.555l-.862 1.65c1.745.81 3.71 1.188 5.761.968a10.945 10.945 0 007.37-4.005 10.915 10.915 0 002.385-8.033z" fill="#0078D4"/><path d="M30.348 20.479a9.054 9.054 0 01-3.322-6.108 9.046 9.046 0 011.977-6.675 9.055 9.055 0 016.107-3.322 9.024 9.024 0 015.56 1.209l.863-1.651a10.863 10.863 0 00-6.612-1.408 10.972 10.972 0 00-7.369 3.995 10.956 10.956 0 00-2.376 8.031 10.945 10.945 0 004.005 7.37 11.22 11.22 0 002.27 1.408l.863-1.651a8.936 8.936 0 01-1.966-1.198z" fill="#A0A1A2"/><path d="M30.348 20.479a9.054 9.054 0 01-3.322-6.108 9.046 9.046 0 011.977-6.675 9.055 9.055 0 016.107-3.322 9.024 9.024 0 015.56 1.209l.863-1.651a10.863 10.863 0 00-6.612-1.408 10.972 10.972 0 00-7.369 3.995 10.956 10.956 0 00-2.376 8.031 10.945 10.945 0 004.005 7.37 11.22 11.22 0 002.27 1.408l.863-1.651a8.936 8.936 0 01-1.966-1.198zM41.07 7.998l-1.786 2.207c.441.442.767.957.988 1.504h2.964a7.185 7.185 0 00-2.165-3.71z" fill="#0078D4"/><path d="M35.226 14.305a1.279 1.279 0 01.904-2.187c.326 0 .652.106.904.358h6.55c.515 0 .935.41.935.925 0 .515-.41.935-.924.935h-6.612c-.242.21-.537.337-.842.337-.336 0-.663-.126-.915-.368z" fill="#0078D4"/><path d="M12.159 27.523a9.032 9.032 0 00-6.108 3.322 9.078 9.078 0 00-1.976 6.676 9.032 9.032 0 003.322 6.107 9.066 9.066 0 006.665 1.976 9.078 9.078 0 006.118-3.322 9.066 9.066 0 001.976-6.664c-.263-2.523-1.545-4.679-3.385-6.16a8.889 8.889 0 00-5.635-1.987c-.326 0-.642.02-.977.052z" fill="#50E6FF"/><path d="M9.373 34.137L7.166 32.35a7.296 7.296 0 00-1.314 4.477l2.828-.294c-.001-.83.23-1.66.693-2.396zm6.181-1.399l1.787-2.207a7.298 7.298 0 00-4.489-1.304l.295 2.828c.84-.01 1.671.22 2.407.683zm-3.384-.577l-.295-2.828a7.375 7.375 0 00-4.1 2.24l2.207 1.786a4.564 4.564 0 012.187-1.198zM8.784 37.52l-2.828.295a7.34 7.34 0 002.24 4.1l1.786-2.207a4.51 4.51 0 01-1.198-2.188z" fill="#0078D4"/><path d="M24.006 35.417c-.315-3.038-1.871-5.645-4.057-7.41-.42-.348-.895-.64-1.369-.923l-.27.148-.592 1.503c.368.22.727.45 1.053.712 1.84 1.493 3.122 3.637 3.385 6.16a9.091 9.091 0 01-1.976 6.676 9.078 9.078 0 01-10.828 2.554l-.862 1.651c1.745.81 3.71 1.188 5.76.967a10.945 10.945 0 007.37-4.005 10.922 10.922 0 002.386-8.033z" fill="#0078D4"/><path d="M7.396 43.632a9.055 9.055 0 01-3.322-6.108A9.046 9.046 0 016.05 30.85a9.054 9.054 0 016.108-3.322 9.024 9.024 0 015.56 1.208l.863-1.65a10.854 10.854 0 00-6.612-1.41 10.975 10.975 0 00-7.37 3.995 10.956 10.956 0 00-2.375 8.032 10.945 10.945 0 004.005 7.369c.693.557 1.46 1.03 2.27 1.408l.863-1.65a8.834 8.834 0 01-1.966-1.197z" fill="#A0A1A2"/><path d="M7.396 43.632a9.055 9.055 0 01-3.322-6.108A9.046 9.046 0 016.05 30.85a9.054 9.054 0 016.108-3.322 9.024 9.024 0 015.56 1.208l.863-1.65a10.854 10.854 0 00-6.612-1.41 10.975 10.975 0 00-7.37 3.995 10.956 10.956 0 00-2.375 8.032 10.945 10.945 0 004.005 7.369c.693.557 1.46 1.03 2.27 1.408l.863-1.65a8.834 8.834 0 01-1.966-1.197zm10.522-12.638l-1.788 2.207.066.07 2.507-1.435a7.324 7.324 0 00-.785-.842z" fill="#0078D4"/><path d="M12.838 37.834a1.278 1.278 0 01-.306-2.346 1.25 1.25 0 01.962-.14l.009-.005 2.89-1.66 2.542-1.462.237-.136a.93.93 0 11.936 1.608l-5.732 3.294a1.29 1.29 0 01-.562.71 1.32 1.32 0 01-.976.137z" fill="#0078D4"/></svg>