<svg xmlns="http://www.w3.org/2000/svg" viewBox="0 0 48 49"><path fill="#fff" d="M13.197 15.597h19.26v18.952h-19.26z"/><path fill="#fff" d="M13.197 15.597h19.26v18.952h-19.26z"/><path d="M24.078 1.307C10.867 1.307.156 11.948.156 25.074s10.71 23.767 23.922 23.767S48 38.201 48 25.074C48 11.948 37.29 1.307 24.078 1.307zm1.31 15.74v8.037H17.28l8.11-8.036zm-3.847 16.085v-8.037h8.11l-8.11 8.037z" fill="#50E6FF"/><path d="M24.078 11.344c.423 0 .843.019 1.26.056v3.904l7.121-7.076-7.122-7.076v5.23a18.898 18.898 0 00-1.259-.041c-10.43 0-18.886 8.4-18.886 18.763a18.595 18.595 0 001.43 7.172 18.692 18.692 0 004.087 6.08l3.56-3.537a13.733 13.733 0 01-3.778-7.046 13.678 13.678 0 01.796-7.945 13.78 13.78 0 015.101-6.168 13.913 13.913 0 017.69-2.316zm13.339.476l-3.561 3.54.016.014a13.732 13.732 0 013.79 7.045c.534 2.67.26 5.436-.788 7.95a13.78 13.78 0 01-5.1 6.175 13.915 13.915 0 01-7.695 2.32v-4.379l-7.122 7.076 7.122 7.077v-4.77c10.43 0 18.886-8.401 18.886-18.764a18.597 18.597 0 00-1.438-7.193 18.695 18.695 0 00-4.11-6.09z" fill="#0078D4"/></svg>