<svg xmlns="http://www.w3.org/2000/svg" viewBox="0 0 49 49"><circle cx="23.998" cy="24.213" r="21.779" fill="#fff"/><path d="M24.011 43.408c-10.424 0-18.876-8.435-18.876-18.834 0-10.4 8.452-18.835 18.876-18.835 10.425 0 18.868 8.435 18.868 18.835s-8.451 18.834-18.868 18.834zM24.02.715C10.87.715.21 11.374.21 24.524s10.66 23.808 23.81 23.808c13.15 0 23.808-10.659 23.808-23.808 0-13.15-10.667-23.81-23.808-23.81z" fill="#0078D4"/><path d="M35.322 13.213l-6.295-.025-12.59 12.59 6.295.016-9.998 9.998 6.295.017 12.54-12.523-6.295-.025 10.048-10.048z" fill="#50E6FF"/></svg>