<svg xmlns="http://www.w3.org/2000/svg" viewBox="0 0 49 49"><path d="M42.972 24.523c0 10.463-8.481 18.953-18.953 18.953-10.471 0-18.953-8.49-18.953-18.953 0-10.43 8.423-18.886 18.827-18.953V.582C10.734.649.078 11.339.078 24.523c0 13.218 10.715 23.942 23.941 23.942 13.226 0 23.942-10.724 23.942-23.942v-.1h-4.989v.1z" fill="#0078D4"/><path d="M28.176 24.524a4.16 4.16 0 01-4.156 4.157 4.16 4.16 0 01-4.157-4.157 4.149 4.149 0 014.022-4.148v-4.72c-4.837.067-8.741 4.014-8.741 8.868a8.87 8.87 0 008.867 8.868 8.87 8.87 0 008.868-8.868v-.1h-4.72c.017.033.017.066.017.1z" fill="#50E6FF"/><path d="M24.02 8.266c-4.51 0-8.59 1.839-11.538 4.803l3.468 3.468a11.303 11.303 0 018.07-3.367c6.273 0 11.362 5.089 11.362 11.362s-5.09 11.361-11.362 11.361a11.315 11.315 0 01-8.171-3.468l-3.468 3.468a16.219 16.219 0 0011.639 4.904c8.977 0 16.257-7.28 16.257-16.257S33.005 8.266 24.02 8.266z" fill="#50E6FF"/></svg>