<svg xmlns="http://www.w3.org/2000/svg" viewBox="0 0 96 100"><path fill-rule="evenodd" clip-rule="evenodd" d="M37.589 47.518H2.105c-1.263 0-2.105.84-2.105 2.099v38.207c0 1.05.842 2.1 2.105 2.1h28.846V95.8H20.634v4.2H46.32v-4.199H36.004v-6.088h29.267c1.052 0 2.105-.84 2.105-2.099V49.617c0-1.05-.842-2.1-2.106-2.1h-6.936L37.589 68.796V47.518z" fill="#50E6FF"/><path fill-rule="evenodd" clip-rule="evenodd" d="M95.745 0H29.787v40.425h14.034V54.61l14.033-14.184h37.89V0z" fill="#fff"/><path fill-rule="evenodd" clip-rule="evenodd" d="M53.192 20.567a3.546 3.546 0 11-7.093 0 3.546 3.546 0 017.093 0zm14.184 0a3.546 3.546 0 11-7.092 0 3.546 3.546 0 017.092 0zm10.638 3.546a3.546 3.546 0 100-7.092 3.546 3.546 0 000 7.092z" fill="#243A5E"/></svg>