<svg xmlns="http://www.w3.org/2000/svg" viewBox="0 0 49 49"><path d="M24.039 41.412c-9.328 0-16.868-7.54-16.868-16.868S14.71 7.676 24.039 7.676h.077V.68h-.077C10.824.68.136 11.368.136 24.582c0 13.215 10.688 23.903 23.903 23.903 13.175 0 23.864-10.688 23.902-23.825h-6.995c-.04 9.212-7.58 16.752-16.907 16.752z" fill="#0078D4"/><path d="M24.039 31.074c-3.615 0-6.569-2.954-6.569-6.569 0-3.614 2.954-6.568 6.569-6.568h.077v-7.074h-.077c-7.54 0-13.643 6.102-13.643 13.642 0 7.54 6.102 13.643 13.643 13.643 7.5 0 13.603-6.103 13.642-13.604h-7.074c-.039 3.615-2.954 6.53-6.568 6.53z" fill="#50E6FF"/></svg>