<svg xmlns="http://www.w3.org/2000/svg" viewBox="0 0 506 72"><path fill-rule="evenodd" clip-rule="evenodd" d="M371.243 22.413l-6.387 18.195h12.954l-6.356-18.195h-.211zm4.458-8.014l16.268 43.2h-8.254l-3.826-10.724h-17.021L359.193 57.6h-8.194l16.267-43.201h8.435zm19.983 12.231h24.733v2.922l-16.238 22.263h16.328V57.6h-25.968v-3.465l15.997-21.72h-14.852V26.63zm56.908 0V57.6h-7.351v-4.07h-.12c-.964 1.407-2.255 2.506-3.871 3.3-1.617.792-3.429 1.19-5.437 1.19-3.596 0-6.332-1.02-8.21-3.059-1.878-2.038-2.817-5.206-2.817-9.504V26.63h7.381v17.955c0 2.611.517 4.574 1.552 5.89 1.034 1.315 2.595 1.973 4.685 1.973 2.068 0 3.724-.728 4.97-2.184 1.245-1.456 1.867-3.36 1.867-5.709V26.63h7.351zm20.952-.512c.582 0 1.104.04 1.566.12.462.08.854.18 1.175.302v7.38c-.382-.281-.939-.546-1.672-.798-.733-.251-1.622-.376-2.666-.376-1.788 0-3.299.753-4.534 2.259-1.235 1.507-1.852 3.826-1.852 6.959v15.635h-7.291v-30.97h7.291v4.882h.12c.663-1.688 1.667-3.008 3.012-3.962 1.346-.953 2.962-1.431 4.851-1.431zm24.435 12.862c0-2.41-.558-4.246-1.672-5.512-1.115-1.265-2.686-1.897-4.715-1.897-1.747 0-3.313.628-4.699 1.883-1.386 1.255-2.31 3.097-2.771 5.527h13.857zm4.67 10.816v5.996c-1.205.763-2.782 1.38-4.731 1.852-1.948.472-4.026.708-6.235.708-4.721 0-8.391-1.395-11.012-4.187-2.62-2.791-3.93-6.678-3.93-11.66 0-4.798 1.4-8.751 4.202-11.853 2.802-3.104 6.351-4.654 10.649-4.654 4.279 0 7.607 1.309 9.987 3.93 2.379 2.62 3.57 6.24 3.57 10.86v3.526h-21.208c.32 3.113 1.32 5.286 2.997 6.52 1.677 1.237 3.841 1.854 6.492 1.854 1.747 0 3.414-.266 5.001-.798 1.586-.532 2.992-1.23 4.218-2.094zM322.948 32.595H312.09V57.6h-7.38V32.595h-5.182V26.63h5.182v-4.308c0-3.254 1.058-5.92 3.178-7.998 2.118-2.08 4.834-3.119 8.148-3.119.884 0 1.667.045 2.35.136a9.367 9.367 0 011.808.406v6.297c-.242-.14-.663-.31-1.266-.512-.602-.2-1.295-.3-2.078-.3-1.527 0-2.701.475-3.525 1.43-.824.954-1.235 2.365-1.235 4.232v3.736h10.858v-6.96l7.32-2.228v9.188h7.382v5.965h-7.382v14.49c0 1.908.347 3.254 1.04 4.036.693.784 1.782 1.175 3.268 1.175.422 0 .929-.099 1.522-.3a7.178 7.178 0 001.552-.723v6.024c-.463.262-1.231.502-2.306.724-1.074.22-2.133.331-3.178.331-3.073 0-5.377-.818-6.913-2.455-1.537-1.637-2.305-4.102-2.305-7.397V32.595zm-48.407 9.73c0 3.234.733 5.704 2.199 7.412 1.465 1.707 3.564 2.56 6.296 2.56 2.65 0 4.67-.853 6.055-2.56 1.386-1.708 2.079-4.239 2.079-7.593 0-3.333-.718-5.849-2.154-7.546s-3.45-2.545-6.04-2.545c-2.672 0-4.745.888-6.221 2.666-1.477 1.776-2.214 4.313-2.214 7.606zm-7.592.241c0-5.12 1.446-9.178 4.338-12.17 2.892-2.993 6.909-4.489 12.05-4.489 4.84 0 8.62 1.441 11.343 4.323 2.72 2.883 4.08 6.773 4.08 11.674 0 5.021-1.445 9.017-4.336 11.99-2.893 2.972-6.83 4.458-11.81 4.458-4.8 0-8.611-1.41-11.432-4.233-2.822-2.82-4.233-6.672-4.233-11.553zm-16.418-7.802c0 1.044.332 1.862.995 2.455.662.592 2.128 1.34 4.398 2.244 2.912 1.165 4.956 2.476 6.13 3.932 1.175 1.456 1.763 3.218 1.763 5.287 0 2.912-1.12 5.252-3.36 7.018-2.24 1.77-5.266 2.652-9.082 2.652-1.285 0-2.707-.155-4.263-.467-1.557-.31-2.877-.708-3.962-1.19v-7.169a18 18 0 004.278 2.198c1.527.543 2.912.814 4.158.814 1.646 0 2.862-.23 3.645-.693.783-.462 1.175-1.235 1.175-2.319 0-1.005-.407-1.854-1.22-2.546-.813-.694-2.355-1.492-4.625-2.396-2.691-1.124-4.598-2.389-5.723-3.795-1.125-1.406-1.688-3.193-1.688-5.363 0-2.79 1.11-5.086 3.329-6.884 2.219-1.797 5.097-2.695 8.632-2.695 1.084 0 2.299.12 3.645.36 1.345.242 2.47.554 3.374.935v6.93c-.964-.644-2.09-1.196-3.374-1.659-1.286-.462-2.561-.692-3.826-.692-1.386 0-2.466.271-3.24.813-.772.542-1.16 1.286-1.16 2.23zm-35.065 7.561c0 3.234.732 5.704 2.199 7.412 1.466 1.707 3.565 2.56 6.296 2.56 2.652 0 4.67-.853 6.055-2.56 1.386-1.708 2.079-4.239 2.079-7.593 0-3.333-.718-5.849-2.154-7.546s-3.45-2.545-6.04-2.545c-2.671 0-4.745.888-6.221 2.666-1.477 1.776-2.214 4.313-2.214 7.606zm-7.592.241c0-5.12 1.446-9.178 4.338-12.17 2.892-2.993 6.909-4.489 12.05-4.489 4.84 0 8.62 1.441 11.343 4.323 2.72 2.883 4.082 6.773 4.082 11.674 0 5.021-1.447 9.017-4.338 11.99-2.892 2.972-6.83 4.458-11.81 4.458-4.8 0-8.611-1.41-11.432-4.233-2.822-2.82-4.233-6.672-4.233-11.553zm-3.136-16.449c.582 0 1.105.041 1.566.122.462.08.854.18 1.176.3v7.381c-.382-.28-.94-.547-1.672-.798-.734-.252-1.623-.377-2.666-.377-1.788 0-3.3.753-4.534 2.26-1.235 1.506-1.853 3.825-1.853 6.958V57.6h-7.291V26.63h7.29v4.88h.12c.664-1.687 1.668-3.007 3.014-3.962 1.345-.953 2.962-1.43 4.85-1.43zm-27.956 26.18c1.084 0 2.279-.25 3.584-.753a15.084 15.084 0 003.616-1.989v6.778c-1.165.663-2.486 1.165-3.962 1.506-1.475.342-3.098.513-4.865.513-4.56 0-8.265-1.44-11.116-4.323-2.853-2.882-4.278-6.562-4.278-11.04 0-4.982 1.456-9.083 4.368-12.308 2.912-3.223 7.039-4.834 12.382-4.834 1.366 0 2.746.176 4.142.527 1.396.351 2.505.757 3.329 1.22v6.99c-1.125-.825-2.275-1.462-3.45-1.915a9.966 9.966 0 00-3.6-.677c-2.872 0-5.191.934-6.96 2.802-1.766 1.867-2.65 4.388-2.65 7.561 0 3.133.848 5.574 2.546 7.321 1.697 1.747 4.002 2.62 6.914 2.62zm-29.403 5.302h7.29V26.63h-7.29V57.6zm-.753-39.916c0-1.205.437-2.215 1.31-3.028.874-.814 1.913-1.22 3.118-1.22 1.285 0 2.35.417 3.194 1.25.844.833 1.265 1.833 1.265 2.998 0 1.184-.432 2.18-1.295 2.981-.864.804-1.918 1.205-3.164 1.205-1.245 0-2.294-.406-3.147-1.219-.855-.814-1.281-1.803-1.281-2.967zm-6.273-3.284v43.2h-7.501V23.74h-.121L119.325 57.6h-4.97l-13.738-33.86h-.09V57.6h-6.93V14.4h10.756l12.412 32.023h.18L130.05 14.4h10.303z" fill="#fff"/><path fill-rule="evenodd" clip-rule="evenodd" d="M.005 34.225h34.219V.006H.005v34.219z" fill="#F25022"/><path fill-rule="evenodd" clip-rule="evenodd" d="M37.779 34.219h34.219V0H37.779v34.219z" fill="#7FBA00"/><path fill-rule="evenodd" clip-rule="evenodd" d="M0 71.998h34.219V37.779H0v34.219z" fill="#00A4EF"/><path fill-rule="evenodd" clip-rule="evenodd" d="M37.779 71.998h34.219V37.779H37.779v34.219z" fill="#FFB900"/></svg>