<svg xmlns="http://www.w3.org/2000/svg" viewBox="0 0 14 13"><path fill-rule="evenodd" d="M10.35 12.5c.32 0 .59-.029.806-.087.217-.057.412-.14.586-.25.174-.109.343-.245.508-.407.166-.163.355-.347.57-.552a.557.557 0 00.18-.417.543.543 0 00-.097-.273 2.416 2.416 0 00-.251-.33 6.212 6.212 0 00-.345-.357 13.59 13.59 0 00-.374-.346c-.123-.11-.237-.21-.342-.302a7.89 7.89 0 01-.244-.221.614.614 0 00-.442-.174.575.575 0 00-.321.097 2.048 2.048 0 00-.295.237c-.098.094-.2.198-.304.311-.105.114-.22.217-.345.312a1.918 1.918 0 01-.418.237 1.54 1.54 0 01-1.09-.01 1.442 1.442 0 01-.48-.304L3.966 6.128a1.375 1.375 0 01-.428-1.002c0-.188.033-.356.1-.503.067-.148.15-.282.248-.401.098-.12.206-.23.324-.331.118-.1.227-.198.325-.292a2.01 2.01 0 00.247-.282.564.564 0 00-.08-.732 7.83 7.83 0 01-.23-.234l-.315-.327a13.525 13.525 0 00-.362-.36 6.274 6.274 0 00-.371-.33 2.51 2.51 0 00-.345-.24A.6.6 0 002.794 1a.606.606 0 00-.435.173l-.573.546c-.167.158-.31.32-.428.487a1.86 1.86 0 00-.268.562 2.79 2.79 0 00-.09.767c0 .479.081.973.244 1.482a8.13 8.13 0 00.676 1.528c.288.509.628 1.01 1.02 1.505a13.6 13.6 0 001.286 1.402c.464.44.954.847 1.469 1.219a12.2 12.2 0 001.566.966 8.842 8.842 0 001.58.635 5.42 5.42 0 001.509.228z"/></svg>