<svg xmlns="http://www.w3.org/2000/svg" viewBox="0 0 49 49"><path d="M28.717 24.89a3.841 3.841 0 01-3.843 3.842 3.841 3.841 0 01-3.843-3.842 3.841 3.841 0 013.843-3.843 3.841 3.841 0 013.843 3.843z" fill="#0078D4"/><path d="M31.269 7.991a2.523 2.523 0 00-2.478-2.073c-.826 0-1.559.396-2.014 1.003a19.541 19.541 0 00-1.862-.093c-9.944 0-18.009 8.056-18.009 18.009 0 9.943 8.056 18.008 18.009 18.008 9.944 0 18.008-8.065 18.008-18.008-.008-7.703-4.845-14.276-11.654-16.846zm5.477 28.685a16.637 16.637 0 01-5.326 3.59 16.571 16.571 0 01-6.514 1.315 16.72 16.72 0 01-6.514-1.315 16.637 16.637 0 01-5.326-3.59 16.684 16.684 0 01-3.59-5.325 16.572 16.572 0 01-1.314-6.514c0-2.259.438-4.45 1.314-6.514a16.638 16.638 0 013.59-5.326 16.681 16.681 0 015.326-3.59 16.571 16.571 0 016.514-1.315c.464 0 .919.017 1.374.06a2.521 2.521 0 002.503 2.815 2.515 2.515 0 002.368-1.661c.084.033.177.067.26.11a16.638 16.638 0 015.327 3.589 16.548 16.548 0 013.59 5.326 16.571 16.571 0 011.314 6.514c0 2.258-.446 4.45-1.314 6.514a16.67 16.67 0 01-3.582 5.317z" fill="#0078D4"/><path d="M48.824 24.838c0-4.425-1.205-8.57-3.295-12.127a2.521 2.521 0 00-1.736-4.348c-.447 0-.877.118-1.239.329A23.85 23.85 0 0024.908.922C11.703.922.992 11.624.992 24.838a23.76 23.76 0 003.27 12.075 2.532 2.532 0 00-.826 1.871c0 1.39 1.13 2.52 2.52 2.52.472 0 .91-.127 1.28-.354 4.374 4.795 10.67 7.803 17.672 7.803 4.087 0 7.938-1.028 11.309-2.84a2.521 2.521 0 003.944-2.081c0-.185-.017-.362-.06-.53 5.327-4.383 8.723-11.023 8.723-18.464zm-9.312 17.317a2.514 2.514 0 00-1.88-.834 2.52 2.52 0 00-2.519 2.52c0 .395.093.766.253 1.095a22.505 22.505 0 01-10.458 2.553c-3.06 0-6.025-.598-8.815-1.778a22.545 22.545 0 01-7.963-5.654 2.521 2.521 0 00-2.747-3.725 23.312 23.312 0 01-1.349-2.671 22.505 22.505 0 01-1.778-8.815c0-3.059.599-6.025 1.778-8.815a22.544 22.544 0 014.854-7.205 22.453 22.453 0 017.205-4.854 22.505 22.505 0 018.815-1.778c3.059 0 6.025.599 8.814 1.778a22.544 22.544 0 017.206 4.854c.244.245.48.498.716.75a2.52 2.52 0 00-.37 1.323 2.52 2.52 0 002.519 2.52c.219 0 .43-.025.632-.084.505.86.96 1.761 1.357 2.688a22.505 22.505 0 011.778 8.815c0 3.059-.599 6.025-1.779 8.814a22.546 22.546 0 01-6.27 8.503z" fill="#50E6FF"/><path d="M35.527 30.322a11.884 11.884 0 001.331-5.486c0-6.598-5.35-11.95-11.95-11.95-5.763 0-10.567 4.08-11.696 9.498a2.52 2.52 0 00-2.107 2.486c0 1.255.919 2.3 2.124 2.494 1.163 5.385 5.95 9.422 11.68 9.422 2.806 0 5.385-.97 7.424-2.587a2.521 2.521 0 003.194-3.876zM17.35 32.395a10.582 10.582 0 01-2.857-5.149 2.527 2.527 0 001.652-2.368c0-1.095-.7-2.022-1.669-2.376a10.635 10.635 0 012.874-5.225 10.605 10.605 0 017.559-3.126 10.64 10.64 0 017.559 3.126 10.605 10.605 0 013.126 7.56c0 1.718-.404 3.37-1.163 4.853a2.521 2.521 0 00-2.933 3.548 10.602 10.602 0 01-6.598 2.275 10.591 10.591 0 01-7.55-3.118z" fill="#0078D4"/></svg>