<svg xmlns="http://www.w3.org/2000/svg" viewBox="0 0 48 49"><path d="M24.11 46.161L4.051 34.385l1.283-2.178 18.783 11.017L42.47 32.62l1.266 2.194L24.11 46.162z" fill="#50E6FF"/><path d="M24.11 35.134L4.052 23.366l1.283-2.186 18.783 11.025 18.353-10.603 1.266 2.195L24.11 35.134z" fill="#50E6FF"/><path d="M24.11 25.646L4.052 13.878l1.283-2.187 18.783 11.025 18.353-10.603 1.266 2.195L24.11 25.646z" fill="#50E6FF"/><path d="M24.11 15.763L4.051 3.987l1.283-2.178 18.783 11.016L42.47 2.222l1.266 2.195L24.11 15.763z" fill="#50E6FF"/><path d="M7.2 0H0v7.2h7.2V0z" fill="#0078D4"/><path d="M27.596 0h-7.2v7.2h7.2V0zM48 0h-7.201v7.2h7.2V0z" fill="#50E6FF"/><path d="M7.2 10.2H0v7.2h7.2v-7.2z" fill="#0078D4"/><path d="M27.596 10.2h-7.2v7.2h7.2v-7.2z" fill="#50E6FF"/><path d="M48 10.2h-7.201v7.2h7.2v-7.2z" fill="#0078D4"/><path d="M7.2 20.402H0v7.201h7.2v-7.2z" fill="#50E6FF"/><path d="M48 20.402h-7.201v7.201h7.2v-7.2z" fill="#0078D4"/><path d="M7.2 30.602H0v7.2h7.2v-7.2z" fill="#50E6FF"/><path d="M27.596 30.602h-7.2v7.2h7.2v-7.2zm20.404 0h-7.201v7.2h7.2v-7.2z" fill="#0078D4"/><path d="M7.2 40.8H0v7.202h7.2V40.8z" fill="#50E6FF"/><path d="M27.596 40.8h-7.2v7.202h7.2V40.8zM48 40.8h-7.201v7.202h7.2V40.8z" fill="#0078D4"/><path d="M27.596 20.402h-7.2v7.201h7.2v-7.2z" fill="#50E6FF"/></svg>