<svg xmlns="http://www.w3.org/2000/svg" viewBox="0 0 48 48"><path d="M35.334 12.668H12.666v22.668h22.668V12.668z" fill="#50E6FF"/><path d="M24 .234C10.88.234.236 10.877.236 23.998.236 37.12 10.87 47.762 24 47.762c13.122 0 23.764-10.634 23.764-23.764C47.764 10.877 37.122.234 24 .234zM5.296 23.998c0-4.992 1.948-9.69 5.481-13.223A18.583 18.583 0 0124 5.295a18.58 18.58 0 0111.494 3.946L9.243 35.492a18.587 18.587 0 01-3.947-11.494zm31.927 13.223A18.583 18.583 0 0124 42.702a18.57 18.57 0 01-11.131-3.668l26.167-26.167c2.387 3.204 3.668 7.067 3.668 11.131 0 4.992-1.948 9.69-5.481 13.223z" fill="#0078D4"/></svg>