<svg xmlns="http://www.w3.org/2000/svg" viewBox="0 0 49 49"><path d="M43.522 44.206H3.498L41.484 6.31H4.517V5.047h40.024L6.555 42.943h36.967v1.263z" fill="#50E6FF"/><path d="M48.02 43.659a5.02 5.02 0 01-10.04 0 5.02 5.02 0 0110.04 0z" fill="#50E6FF"/><path d="M10.22 43.659a5.02 5.02 0 01-5.02 5.018 5.013 5.013 0 01-5.012-5.018 5.02 5.02 0 015.02-5.018 5.013 5.013 0 015.011 5.018zM10.22 5.693a5.02 5.02 0 01-5.02 5.018A5.013 5.013 0 01.187 5.693c0-2.77 2.24-5.01 5.011-5.01s5.02 2.24 5.02 5.01zM48.002 5.694a5.02 5.02 0 01-10.04 0 5.02 5.02 0 0110.04 0zM29.136 24.612a5.02 5.02 0 01-10.04 0 5.02 5.02 0 0110.04 0z" fill="#0078D4"/></svg>