<svg xmlns="http://www.w3.org/2000/svg" viewBox="0 0 49 49"><path d="M32.803 18.028v6.047a3.895 3.895 0 01-1.137 2.753 3.86 3.86 0 01-2.745 1.137h-.008l-8.657-.017h-.009a6.377 6.377 0 00-3.89 1.314V7.637H13.83v31.41h2.526v-2.214h.008v-2.468a3.88 3.88 0 013.882-3.89h.009l8.657.016h.008c1.71 0 3.318-.665 4.53-1.877a6.377 6.377 0 001.887-4.54v-6.046h-2.535z" fill="#0078D4"/><path d="M34.008 22.83a6.307 6.307 0 100-12.615 6.307 6.307 0 000 12.615zM15.094 12.867a6.299 6.299 0 100-12.597 6.299 6.299 0 000 12.597zM15.094 48.2a6.307 6.307 0 100-12.614 6.307 6.307 0 000 12.615z" fill="#50E6FF"/></svg>