<svg xmlns="http://www.w3.org/2000/svg" viewBox="0 0 48 49"><path d="M27.834 24.162a3.841 3.841 0 01-3.843 3.843 3.841 3.841 0 01-3.843-3.843 3.841 3.841 0 013.843-3.843 3.841 3.841 0 013.843 3.843z" fill="#0078D4"/><path d="M30.388 7.267a2.523 2.523 0 00-2.478-2.073c-.825 0-1.558.396-2.014 1.003a19.541 19.541 0 00-1.862-.093c-9.944 0-18.008 8.057-18.008 18.009 0 9.944 8.056 18.008 18.008 18.008 9.944 0 18.008-8.064 18.008-18.008-.008-7.702-4.845-14.275-11.654-16.846zm5.477 28.686a16.637 16.637 0 01-5.325 3.59 16.571 16.571 0 01-6.514 1.314c-2.259 0-4.45-.446-6.514-1.314a16.639 16.639 0 01-5.326-3.59 16.682 16.682 0 01-3.59-5.326 16.571 16.571 0 01-1.315-6.514c0-2.258.438-4.45 1.315-6.514a16.637 16.637 0 013.59-5.326 16.684 16.684 0 015.326-3.59 16.571 16.571 0 016.514-1.315c.463 0 .918.017 1.373.06a2.521 2.521 0 002.503 2.815 2.515 2.515 0 002.368-1.661c.084.034.177.067.261.11a16.638 16.638 0 015.326 3.59 16.547 16.547 0 013.59 5.325 16.571 16.571 0 011.315 6.514c0 2.259-.447 4.45-1.315 6.514a16.671 16.671 0 01-3.582 5.318z" fill="#0078D4"/><path d="M47.94 24.114c0-4.424-1.204-8.57-3.294-12.126A2.521 2.521 0 0042.91 7.64c-.447 0-.877.117-1.239.328A23.85 23.85 0 0024.025.198C10.82.198.11 10.901.11 24.114c0 4.407 1.189 8.528 3.27 12.076a2.532 2.532 0 00-.826 1.87c0 1.391 1.13 2.52 2.52 2.52.472 0 .91-.126 1.28-.354 4.374 4.795 10.67 7.804 17.672 7.804 4.087 0 7.938-1.028 11.31-2.84a2.521 2.521 0 003.944-2.081 2.248 2.248 0 00-.06-.532c5.326-4.382 8.722-11.022 8.722-18.463zm-9.31 17.317a2.513 2.513 0 00-1.88-.834 2.521 2.521 0 00-2.519 2.52c0 .396.093.767.253 1.095a22.507 22.507 0 01-10.458 2.553c-3.059 0-6.025-.598-8.815-1.777a22.545 22.545 0 01-7.963-5.655A2.521 2.521 0 004.5 35.608a23.313 23.313 0 01-1.348-2.671 22.505 22.505 0 01-1.779-8.815c0-3.059.599-6.025 1.779-8.814a22.545 22.545 0 014.853-7.205 22.452 22.452 0 017.205-4.854 22.505 22.505 0 018.815-1.778c3.06 0 6.025.598 8.815 1.778a22.545 22.545 0 017.205 4.854c.244.244.48.497.716.75a2.52 2.52 0 00-.37 1.323c0 1.39 1.129 2.52 2.519 2.52.219 0 .43-.026.632-.085.506.86.96 1.761 1.357 2.688a22.505 22.505 0 011.778 8.815c0 3.059-.599 6.025-1.778 8.815a22.544 22.544 0 01-6.27 8.502z" fill="#50E6FF"/><path d="M34.644 29.599a11.884 11.884 0 001.331-5.486c0-6.599-5.35-11.95-11.949-11.95-5.764 0-10.567 4.079-11.697 9.497a2.52 2.52 0 00-2.106 2.486c0 1.256.918 2.3 2.123 2.495 1.163 5.384 5.95 9.421 11.68 9.421 2.806 0 5.385-.97 7.424-2.587a2.521 2.521 0 003.194-3.876zm-18.177 2.073a10.583 10.583 0 01-2.857-5.15 2.527 2.527 0 001.652-2.367c0-1.096-.7-2.023-1.669-2.377a10.636 10.636 0 012.874-5.224 10.606 10.606 0 017.559-3.127 10.64 10.64 0 017.559 3.127 10.605 10.605 0 013.126 7.559c0 1.719-.404 3.37-1.163 4.854a2.521 2.521 0 00-2.933 3.548 10.602 10.602 0 01-6.597 2.274 10.592 10.592 0 01-7.551-3.117z" fill="#0078D4"/></svg>