<svg xmlns="http://www.w3.org/2000/svg" viewBox="0 0 48 49"><path d="M41.1 6.23H7.297v2.426H41.1V6.23zM41.1 23.163H7.297v2.426H41.1v-2.426zM41.1 40.042H7.297v2.426H41.1v-2.426z" fill="#50E6FF"/><path d="M6.99 30.362a5.984 5.984 0 100-11.968 5.984 5.984 0 000 11.968zM40.817 30.362a5.984 5.984 0 100-11.968 5.984 5.984 0 000 11.968zM6.99 13.425a5.984 5.984 0 100-11.969 5.984 5.984 0 000 11.969zM40.817 13.425a5.984 5.984 0 100-11.969 5.984 5.984 0 000 11.969zM6.99 47.238a5.984 5.984 0 100-11.968 5.984 5.984 0 000 11.968zM40.817 47.238a5.984 5.984 0 100-11.968 5.984 5.984 0 000 11.968z" fill="#0078D4"/></svg>