<svg xmlns="http://www.w3.org/2000/svg" viewBox="0 0 44 48"><path d="M23.193 2.617h-2.527v15.697h2.527V2.617zM4.328 12.379l-1.263 2.188 13.243 7.646 1.264-2.188L4.328 12.38zM39.355 12.484L26.31 20.017l1.263 2.188 13.046-7.533-1.263-2.188z" fill="#50E6FF"/><path d="M21.924 12.36l-2.013 1.167-6.041 3.49-2.014 1.169V29.81l2.014 1.168 6.054 3.49 2.014 1.168 2.014-1.168 6.054-3.49 2.014-1.168V18.186l-2.014-1.168-6.068-3.49-2.014-1.169z" fill="#50E6FF"/><path d="M18.14 44.245v-.06a3.754 3.754 0 013.756-3.755h.059a3.754 3.754 0 013.756 3.755v.06A3.754 3.754 0 0121.955 48h-.06a3.76 3.76 0 01-3.755-3.755zM18.14 3.823v-.059A3.763 3.763 0 0121.904 0h.06a3.761 3.761 0 013.755 3.764v.06a3.76 3.76 0 01-3.756 3.755h-.059a3.761 3.761 0 01-3.764-3.756zM4.287 17.684h-.059a3.754 3.754 0 01-3.755-3.756v-.059a3.754 3.754 0 013.755-3.756h.06a3.754 3.754 0 013.755 3.756v.059a3.749 3.749 0 01-3.756 3.756zM41.56 17.16l-.051.035a3.764 3.764 0 01-5.137-1.373l-.034-.05a3.764 3.764 0 011.373-5.138l.05-.033a3.765 3.765 0 015.137 1.372l.034.051a3.764 3.764 0 01-1.373 5.137zM23.02 25.07h-2v14h2v-14z" fill="#0078D4"/></svg>