<svg xmlns="http://www.w3.org/2000/svg" viewBox="0 0 48 49"><path d="M5.045 35.278a3.752 3.752 0 015.307 0 3.765 3.765 0 010 5.313 3.752 3.752 0 01-5.307 0 3.765 3.765 0 010-5.313z" fill="#0078D4"/><path d="M21.983 36.097a2.52 2.52 0 00-4.222 1.154h-2.49a7.573 7.573 0 00-2.186-4.69 7.514 7.514 0 00-2.548-1.685l1.631-2.644a2.53 2.53 0 003.204-2.998 2.526 2.526 0 00-3.035-1.878 2.53 2.53 0 00-1.876 3.04c.11.455.337.85.64 1.17l-1.809 2.931a7.58 7.58 0 00-6.946 2.055c-2.96 2.964-2.96 7.79 0 10.753 2.96 2.965 7.779 2.965 10.74 0a7.532 7.532 0 002.194-4.8h2.481a2.52 2.52 0 104.222-2.408zm-10.1 6.03c-2.305 2.307-6.055 2.307-8.351 0-2.296-2.308-2.305-6.064 0-8.363 2.304-2.299 6.055-2.307 8.35 0 2.305 2.3 2.305 6.055 0 8.362z" fill="#50E6FF"/><path d="M21.394 7.203a3.753 3.753 0 015.307 0 3.765 3.765 0 010 5.314 3.752 3.752 0 01-5.307 0 3.765 3.765 0 010-5.314z" fill="#0078D4"/><path d="M31.697 16.88a2.532 2.532 0 00-1.329.042l-1-1.626c.016-.016.041-.033.058-.058 2.96-2.965 2.96-7.79 0-10.754-2.96-2.964-7.779-2.964-10.74 0-2.96 2.964-2.96 7.79 0 10.754l.01.008-1.035 1.676a2.53 2.53 0 00-3.204 2.998 2.526 2.526 0 003.036 1.878 2.53 2.53 0 001.875-3.04 2.573 2.573 0 00-.64-1.17l.934-1.517a7.608 7.608 0 008.721.042l.909 1.483a2.53 2.53 0 00-.64 1.17 2.53 2.53 0 001.876 3.04 2.526 2.526 0 003.036-1.878 2.519 2.519 0 00-1.867-3.048zm-11.824-2.838c-2.305-2.308-2.305-6.063 0-8.362 2.304-2.3 6.055-2.308 8.35 0 2.305 2.307 2.305 6.063 0 8.362-2.295 2.307-6.046 2.307-8.35 0z" fill="#50E6FF"/><path d="M37.768 35.238a3.752 3.752 0 015.307.025 3.765 3.765 0 01-.026 5.314 3.752 3.752 0 01-5.306-.026 3.757 3.757 0 01.025-5.313z" fill="#0078D4"/><path d="M45.808 32.56a7.591 7.591 0 00-7.072-2.064l-1.8-2.922c.303-.311.53-.716.639-1.17a2.53 2.53 0 00-1.875-3.04 2.526 2.526 0 00-1.161 4.918c.454.11.908.084 1.329-.042l1.64 2.652a7.487 7.487 0 00-2.43 1.617 7.612 7.612 0 00-2.22 4.75h-2.6a2.52 2.52 0 00-4.222-1.154 2.528 2.528 0 000 3.57 2.52 2.52 0 004.223-1.153h2.59a7.586 7.586 0 002.17 4.75c2.943 2.98 7.762 3.006 10.739.05 2.968-2.965 2.993-7.79.05-10.762zm-1.245 9.549c-2.312 2.299-6.063 2.274-8.35-.042-2.296-2.316-2.271-6.072.042-8.362 2.312-2.3 6.063-2.274 8.35.042 2.296 2.316 2.28 6.072-.041 8.362z" fill="#50E6FF"/></svg>