<svg xmlns="http://www.w3.org/2000/svg" viewBox="0 0 48 49"><path d="M15.459 17.366l-1.498.77 1.54 2.996 1.498-.77-1.54-2.996zM5.978 16.072L3.7 18.554l1.24 1.139L7.22 17.21l-1.241-1.139zM.144 22.464l.808 1.566 2.282-2.476-1.246-1.145-1.844 2.055zM42.708 27.197l-1.393.947 1.893 2.786 1.393-.947-1.893-2.786zM46.018 32.076l-1.393.947 1.893 2.785 1.393-.946-1.893-2.786z" fill="#0075DA"/><path d="M11.428 16.416c-.22 0-.43-.017-.64-.042v30.745h1.263V16.382a4.963 4.963 0 01-.623.034zM12.06 6.363V.89h-1.264v5.473c.21-.025.421-.042.64-.042.21 0 .412.017.623.042zM16.42 12.145h30.898v-1.263H16.455c.016.16.025.32.025.48 0 .27-.017.53-.06.783zM6.408 10.882H.286v1.263h6.156a4.762 4.762 0 01-.059-.783c0-.16.008-.32.025-.48zM36.017 24.737h-1.263v22.384h1.263V24.736zM36.017 23.085a5.773 5.773 0 01-.665.042c-.202 0-.404-.017-.598-.034v.38h1.263v-.388z" fill="#50E6FF"/><path d="M36.017 13.083V.89h-1.263v12.185c.194-.025.396-.034.598-.034.219 0 .446.017.665.042zM.286 23.472v1.263H29.92l.185-.287.438.287h4.21v-1.263H.287zM36.017 23.472v1.263h2.98l-.858-1.263h-2.122zM47.317 23.472h-7.149l.859 1.263h6.29v-1.263zM36.017 23.472h-1.263v1.263h1.263v-1.263z" fill="#50E6FF"/><path d="M30.636 23.651L28.16 27.4l1.415.918 2.476-3.748-1.415-.918zM39.385 22.32l-1.39.95.144.203h2.03l-.784-1.154zM39.89 26.051l1.39-.943-.252-.37h-2.03l.893 1.313z" fill="#0075DA"/><path d="M38.139 23.472l.859 1.263h2.03l-.86-1.263h-2.03zM31.47 22.328l1.414.91.362-.565a4.913 4.913 0 01-1.39-.951l-.387.606z" fill="#0075DA"/><path d="M24.64 30.389V.889h-1.263v29.466a5.3 5.3 0 01.522-.025c.253 0 .497.017.741.059zM23.377 40.4v6.72h1.263v-6.746a5.382 5.382 0 01-.74.059 10.218 10.218 0 01-.523-.034zM18.88 34.843H.286v1.263h18.62a5.174 5.174 0 01-.051-.733c-.009-.176.008-.353.025-.53zM47.57 34.843H28.919a5.573 5.573 0 01-.025 1.263H47.57v-1.263z" fill="#50E6FF"/><path d="M20.85 27.843l-1.498.766 1.44 2.796a5.063 5.063 0 011.482-.809l-1.424-2.753zM28.32 30.319l-1.415-.91-.9 1.39c.513.235.985.564 1.389.951l.926-1.431z" fill="#0075DA"/><path d="M11.428 7.581a3.78 3.78 0 110 7.562 3.78 3.78 0 010-7.562z" fill="#0078D4"/><path d="M23.9 31.593a3.78 3.78 0 11-3.782 3.78c-.008-2.088 1.693-3.78 3.781-3.78zM35.351 14.304a3.78 3.78 0 11-3.78 3.78c-.01-2.088 1.692-3.78 3.78-3.78zM19.697 25.595l-1.541-2.998-1.5.774 1.542 2.998" fill="#0075DA"/><path d="M46.737 1.31v45.473H1.263V1.309h45.474zM48 .045H0v48h48v-48z" fill="#50E6FF"/></svg>