<svg xmlns="http://www.w3.org/2000/svg" viewBox="0 0 49 49"><path d="M28.622 24.14a3.841 3.841 0 01-3.842 3.842 3.841 3.841 0 01-3.843-3.842 3.841 3.841 0 013.843-3.843 3.841 3.841 0 013.842 3.843z" fill="#0078D4"/><path d="M31.176 7.245A2.523 2.523 0 0028.7 5.172c-.826 0-1.56.396-2.014 1.003a19.548 19.548 0 00-1.863-.093c-9.943 0-18.008 8.056-18.008 18.008 0 9.944 8.056 18.009 18.008 18.009 9.944 0 18.009-8.065 18.009-18.009-.009-7.702-4.846-14.275-11.655-16.845zm5.478 28.685a16.639 16.639 0 01-5.326 3.59 16.571 16.571 0 01-6.514 1.315c-2.259 0-4.45-.447-6.514-1.315a16.637 16.637 0 01-5.326-3.59 16.682 16.682 0 01-3.59-5.325A16.571 16.571 0 018.07 24.09c0-2.258.438-4.449 1.314-6.514a16.638 16.638 0 013.59-5.325A16.682 16.682 0 0118.3 8.66a16.571 16.571 0 016.514-1.315c.463 0 .919.017 1.374.059a2.521 2.521 0 002.503 2.815 2.515 2.515 0 002.367-1.66c.085.033.177.067.262.11a16.636 16.636 0 015.325 3.589 16.545 16.545 0 013.59 5.326 16.571 16.571 0 011.315 6.514c0 2.258-.447 4.45-1.315 6.514a16.67 16.67 0 01-3.581 5.317z" fill="#3BCAF4"/><path d="M48.73 24.091c0-4.424-1.206-8.57-3.295-12.126a2.521 2.521 0 00-1.736-4.348c-.447 0-.877.118-1.24.328A23.85 23.85 0 0024.815.175C11.609.176.898 10.879.898 24.092c0 4.408 1.188 8.529 3.27 12.076a2.521 2.521 0 001.694 4.39c.471 0 .91-.126 1.28-.353 4.374 4.795 10.669 7.803 17.672 7.803 4.087 0 7.938-1.028 11.309-2.84a2.521 2.521 0 003.944-2.081c0-.185-.017-.362-.06-.531 5.326-4.382 8.722-11.023 8.722-18.463zM39.417 41.41a2.514 2.514 0 00-1.88-.834c-1.39 0-2.52 1.129-2.52 2.52 0 .395.093.766.254 1.095a22.484 22.484 0 01-10.458 2.553c-3.06 0-6.026-.598-8.815-1.778a22.544 22.544 0 01-7.963-5.654 2.521 2.521 0 00-2.747-3.725 23.312 23.312 0 01-1.349-2.672A22.505 22.505 0 012.162 24.1c0-3.059.598-6.025 1.778-8.815A22.544 22.544 0 018.794 8.08a22.452 22.452 0 017.205-4.854 22.505 22.505 0 018.815-1.778c3.059 0 6.025.599 8.814 1.778A22.544 22.544 0 0141.55 8.83a2.52 2.52 0 00-.371 1.323c0 1.39 1.13 2.52 2.52 2.52.219 0 .43-.025.632-.084.505.86.96 1.76 1.356 2.688a22.505 22.505 0 011.778 8.815c0 3.059-.598 6.025-1.778 8.814a22.545 22.545 0 01-6.27 8.503z" fill="#50E6FF"/><path d="M35.433 29.576a11.884 11.884 0 001.331-5.486c0-6.598-5.351-11.95-11.95-11.95-5.763 0-10.567 4.08-11.696 9.498a2.52 2.52 0 00-2.107 2.486c0 1.255.919 2.3 2.124 2.494 1.163 5.385 5.95 9.421 11.68 9.421 2.806 0 5.384-.969 7.424-2.587a2.521 2.521 0 003.194-3.876zm-18.177 2.073a10.583 10.583 0 01-2.857-5.149 2.527 2.527 0 001.652-2.368c0-1.095-.7-2.022-1.669-2.376a10.635 10.635 0 012.874-5.225 10.605 10.605 0 017.559-3.126 10.64 10.64 0 017.559 3.126 10.605 10.605 0 013.126 7.56c0 1.718-.404 3.37-1.163 4.853a2.521 2.521 0 00-2.933 3.548 10.602 10.602 0 01-6.598 2.275 10.592 10.592 0 01-7.55-3.118z" fill="#0078D4"/></svg>