<svg xmlns="http://www.w3.org/2000/svg" viewBox="0 0 61 60"><path d="M48.747 48.766V40.88H11.29v7.887h37.457z" fill="#0078D4"/><path d="M48.747 31.055H11.291v7.887h37.456v-7.887zM48.747 11.234H11.291v7.9h37.456v-7.9z" fill="#50E6FF"/><path d="M48.75 29.092v-7.947H11.292v7.947h37.456z" fill="#0078D4"/><path d="M37.065 22.953h-4.2v4.2h4.2v-4.2zM27.209 22.953h-4.2v4.2h4.2v-4.2zM17.317 22.953h-4.2v4.2h4.2v-4.2zM46.958 22.953h-4.2v4.2h4.2v-4.2z" fill="#50E6FF"/><path d="M37.068 17.302v-4.2h-4.2v4.2h4.2zM27.208 17.306v-4.2h-4.2v4.2h4.2zM17.32 17.298v-4.2h-4.2v4.2h4.2zM46.96 17.302v-4.2h-4.2v4.2h4.2z" fill="#0078D4"/><path d="M15.18 46.9a2.124 2.124 0 100-4.248 2.124 2.124 0 000 4.248zM25.097 46.9a2.124 2.124 0 100-4.248 2.124 2.124 0 000 4.248zM34.965 46.9a2.124 2.124 0 100-4.248 2.124 2.124 0 000 4.248zM44.786 46.9a2.124 2.124 0 100-4.248 2.124 2.124 0 000 4.248z" fill="#50E6FF"/><path d="M15.18 37.022a2.124 2.124 0 100-4.249 2.124 2.124 0 000 4.248zM25.097 37.022a2.124 2.124 0 100-4.249 2.124 2.124 0 000 4.248zM34.965 37.022a2.124 2.124 0 100-4.249 2.124 2.124 0 000 4.248zM44.786 37.022a2.124 2.124 0 100-4.249 2.124 2.124 0 000 4.248z" fill="#0078D4"/></svg>