<svg xmlns="http://www.w3.org/2000/svg" viewBox="0 0 60 61"><path d="M48.727 49.136v-7.888H11.27v7.888h37.457z" fill="#0078D4"/><path d="M48.728 31.425H11.27v7.887h37.457v-7.887zm0-19.821H11.27v7.9h37.457v-7.9z" fill="#50E6FF"/><path d="M48.73 29.461v-7.947H11.273v7.947H48.73z" fill="#0078D4"/><path d="M37.045 23.322h-4.2v4.2h4.2v-4.2zm-9.855 0h-4.201v4.2h4.2v-4.2zm-9.893 0h-4.2v4.2h4.2v-4.2zm29.641 0h-4.2v4.2h4.2v-4.2z" fill="#50E6FF"/><path d="M37.048 17.67v-4.2h-4.2v4.2h4.2zm-9.859.004v-4.2h-4.2v4.2h4.2zM17.3 17.67v-4.201h-4.2v4.2h4.2zm29.64 0v-4.2h-4.2v4.2h4.2z" fill="#0078D4"/><path d="M15.161 47.272a2.124 2.124 0 100-4.249 2.124 2.124 0 000 4.248zm9.916 0a2.124 2.124 0 100-4.249 2.124 2.124 0 000 4.248zm9.868 0a2.124 2.124 0 100-4.249 2.124 2.124 0 000 4.248zm9.821 0a2.124 2.124 0 100-4.249 2.124 2.124 0 000 4.248z" fill="#50E6FF"/><path d="M15.161 37.391a2.124 2.124 0 100-4.248 2.124 2.124 0 000 4.248zm9.916 0a2.124 2.124 0 100-4.248 2.124 2.124 0 000 4.248zm9.868 0a2.124 2.124 0 100-4.248 2.124 2.124 0 000 4.248zm9.821 0a2.124 2.124 0 100-4.248 2.124 2.124 0 000 4.248z" fill="#0078D4"/></svg>