<svg xmlns="http://www.w3.org/2000/svg" viewBox="0 0 48 49"><path d="M44.884 42.248H6.331l18.552-30.084 20.001 30.084zm-33.941-2.572h29.14L24.97 16.93 10.943 39.675z" fill="#50E6FF"/><path d="M6.345 6.16l-.958 2.386 19.293 7.748.959-2.386L6.345 6.159z" fill="#50E6FF"/><path d="M6.022 12.653a5.067 5.067 0 100-10.134 5.067 5.067 0 000 10.134zm19.264 7.596a5.067 5.067 0 100-10.134 5.067 5.067 0 000 10.134zM8.568 46.269a5.067 5.067 0 100-10.134 5.067 5.067 0 000 10.134zm33.41 0a5.067 5.067 0 100-10.134 5.067 5.067 0 000 10.134z" fill="#0078D4"/></svg>