<svg xmlns="http://www.w3.org/2000/svg" viewBox="0 0 49 49"><path d="M45.437 24.432l-.017-.034.46-.46-10.27-10.266L45.83 3.448l-.469-.469-.26-.518-13.813 6.885-6.802-6.802-.452.444-.402-.402-6.82 6.794L2.94 2.452l-.284.56-.436.436 10.245 10.257L2.38 23.762l-.067.034.009.025-.093.092.285.284.084.16-.41.41L12.473 35.04 2.262 45.265l.561.56.201.402 13.764-6.877 6.802 6.793.444-.443.444.443 6.76-6.768 13.746 6.885.168-.326.645-.636L35.56 35.05 45.805 24.8l-.368-.367zM24.662 22.85v-8.132l5.42 2.71-5.42 5.422zm6.61-4.836l11.425 5.715H25.558l5.713-5.715zm-5.864-4.334l5.629-2.803 2.798 2.795-2.815 2.811-5.613-2.803zm-2.003 1.004v8.208l-5.47-5.48 5.47-2.728zm-6.4 1.79l-2.756-2.76 2.815-2.803 5.537 2.77-5.596 2.794zm5.47 7.255H5.262l11.493-5.731 5.721 5.73zm.05 1.255l-5.737 5.748L5.32 24.984h17.206zm.88.895v8.166l-5.436-2.728 5.436-5.438zm-.804 9.162l-5.562 2.777-2.781-2.777 2.78-2.786 5.563 2.786zm2.06-1.03v-8.09l5.396 5.396-5.395 2.694zm6.334-1.757l2.798 2.795-2.798 2.794-5.596-2.802 5.596-2.786zm-5.487-7.27h17.231l-11.493 5.74-5.738-5.74zm16.762-2.87l-10.069-5.037 2.522-2.518 7.547 7.555zm-.1-16.784l-7.456 7.455-2.496-2.493L42.17 5.33zm-17.508 7.321V4.502l5.437 5.438-5.437 2.711zm-1.257-8.065v8.09l-5.411-2.702 5.411-5.388zm-17.55.728l10.02 5.003-2.514 2.502-7.505-7.505zm7.498 9.287l2.463 2.46-9.877 4.927 7.414-7.387zM5.856 26.657l9.993 5.003-2.488 2.494-7.505-7.497zm.067 16.717l7.447-7.447 2.488 2.485-9.935 4.962zm17.482-7.33v8.15l-5.436-5.43 5.436-2.72zm1.265 8.142v-8.108l5.395 2.703-5.395 5.404zm17.508-.737l-10.002-5.011 2.496-2.502 7.506 7.513zM32.176 31.66l9.969-4.978-7.473 7.48-2.496-2.502z" fill="#50E6FF"/><path d="M45.344 5.474a2.495 2.495 0 002.497-2.493A2.495 2.495 0 0045.344.487a2.495 2.495 0 00-2.496 2.494 2.495 2.495 0 002.496 2.493zm-21.294 0a2.495 2.495 0 002.496-2.493A2.495 2.495 0 0024.05.487a2.495 2.495 0 00-2.496 2.494 2.495 2.495 0 002.496 2.493zm-21.445 0A2.495 2.495 0 005.102 2.98 2.495 2.495 0 002.605.487 2.495 2.495 0 00.11 2.981a2.495 2.495 0 002.496 2.493zm42.723 21.418a2.495 2.495 0 002.496-2.493 2.495 2.495 0 00-2.496-2.494A2.495 2.495 0 0042.83 24.4a2.495 2.495 0 002.497 2.493zm-21.278 0a2.495 2.495 0 002.496-2.493 2.495 2.495 0 00-2.496-2.494 2.495 2.495 0 00-2.496 2.494 2.495 2.495 0 002.496 2.493zm-21.445 0a2.495 2.495 0 002.497-2.493 2.495 2.495 0 00-2.497-2.494A2.495 2.495 0 00.11 24.4a2.495 2.495 0 002.496 2.493zm42.723 21.254a2.495 2.495 0 002.496-2.493 2.495 2.495 0 00-2.496-2.494 2.495 2.495 0 00-2.497 2.494 2.495 2.495 0 002.497 2.493zm-21.278 0a2.495 2.495 0 002.496-2.493 2.495 2.495 0 00-2.496-2.494 2.495 2.495 0 00-2.496 2.494 2.495 2.495 0 002.496 2.493zm-21.445 0a2.495 2.495 0 002.497-2.493 2.495 2.495 0 00-2.497-2.494A2.495 2.495 0 00.11 45.653a2.495 2.495 0 002.496 2.493z" fill="#0078D4"/></svg>