<svg xmlns="http://www.w3.org/2000/svg" viewBox="0 0 49 49"><path fill-rule="evenodd" clip-rule="evenodd" d="M36.635 15.691a3 3 0 11-6 0 3 3 0 016 0M36.635 33.684a3 3 0 11-6 0 3 3 0 016 0M18.635 15.691a3 3 0 11-6 0 3 3 0 016 0M18.635 33.684a3 3 0 11-6 0 3 3 0 016 0M29.135 12.676a4.5 4.5 0 11-9 0 4.5 4.5 0 019 0M29.135 36.676a4.5 4.5 0 11-9 0 4.5 4.5 0 019 0" fill="#0078D4"/><path fill-rule="evenodd" clip-rule="evenodd" d="M26.885 2.926a2.25 2.25 0 11-4.501-.001 2.25 2.25 0 014.5 0" fill="#50E6FF"/><path fill-rule="evenodd" clip-rule="evenodd" d="M26.885 46.426a2.25 2.25 0 11-4.501-.001 2.25 2.25 0 014.5 0" fill="#0078D4"/><path fill-rule="evenodd" clip-rule="evenodd" d="M26.885 2.926a2.25 2.25 0 11-4.501-.001 2.25 2.25 0 014.5 0M26.885 46.426a2.25 2.25 0 11-4.501-.001 2.25 2.25 0 014.5 0" fill="#50E6FF"/><path fill-rule="evenodd" clip-rule="evenodd" d="M17.135 24.676a4.5 4.5 0 11-9 0 4.5 4.5 0 019 0M41.135 24.676a4.5 4.5 0 11-9 0 4.5 4.5 0 019 0" fill="#0078D4"/><path fill-rule="evenodd" clip-rule="evenodd" d="M2.885 22.426a2.25 2.25 0 110 4.5 2.25 2.25 0 010-4.5" fill="#50E6FF"/><path fill-rule="evenodd" clip-rule="evenodd" d="M46.385 22.426a2.25 2.25 0 110 4.5 2.25 2.25 0 010-4.5M29.135 24.676a4.5 4.5 0 11-9 0 4.5 4.5 0 019 0" fill="#0078D4"/><path fill-rule="evenodd" clip-rule="evenodd" d="M2.885 22.426a2.25 2.25 0 110 4.5 2.25 2.25 0 010-4.5M46.385 22.426a2.25 2.25 0 110 4.5 2.25 2.25 0 010-4.5M41.983 10.517a2.25 2.25 0 11-3.182-3.18 2.25 2.25 0 013.182 3.18M10.486 42.025a2.25 2.25 0 11-3.182-3.182 2.25 2.25 0 013.182 3.182M10.486 7.335a2.25 2.25 0 11-3.181 3.182 2.25 2.25 0 013.181-3.182M41.976 38.843a2.25 2.25 0 11-3.182 3.182 2.25 2.25 0 013.182-3.182" fill="#50E6FF"/></svg>