<svg xmlns="http://www.w3.org/2000/svg" viewBox="0 0 49 49"><path fill-rule="evenodd" clip-rule="evenodd" d="M45.203 15.59L31.245 32.536l-12.07-12.36-10.489 15.27-3.831-2.631 13.692-19.934 12.403 12.7 10.663-12.948 3.589 2.955z" fill="#0078D4"/><path d="M6.658 38.814a4.86 4.86 0 100-9.721 4.86 4.86 0 000 9.72z" fill="#50E6FF"/><path d="M6.658 38.024a4.07 4.07 0 100-8.141 4.07 4.07 0 000 8.141z" fill="#fff"/><path d="M6.658 37.169a3.216 3.216 0 100-6.432 3.216 3.216 0 000 6.432z" fill="#0078D4"/><path d="M30.911 33.88a4.86 4.86 0 100-9.721 4.86 4.86 0 000 9.72z" fill="#50E6FF"/><path d="M30.911 33.09a4.07 4.07 0 100-8.142 4.07 4.07 0 000 8.142z" fill="#fff"/><path d="M30.911 32.236a3.216 3.216 0 100-6.432 3.216 3.216 0 000 6.432z" fill="#0078D4"/><path d="M18.894 21.708a4.86 4.86 0 100-9.72 4.86 4.86 0 000 9.72z" fill="#50E6FF"/><path d="M18.895 20.918a4.07 4.07 0 100-8.141 4.07 4.07 0 000 8.141z" fill="#fff"/><path d="M18.895 20.064a3.216 3.216 0 100-6.432 3.216 3.216 0 000 6.432z" fill="#0078D4"/><path d="M43.295 19.005a4.86 4.86 0 100-9.72 4.86 4.86 0 000 9.72z" fill="#50E6FF"/><path d="M43.294 18.216a4.07 4.07 0 100-8.142 4.07 4.07 0 000 8.142z" fill="#fff"/><path d="M43.294 17.36a3.216 3.216 0 100-6.432 3.216 3.216 0 000 6.432z" fill="#0078D4"/></svg>