<svg xmlns="http://www.w3.org/2000/svg" viewBox="0 0 48 49"><path d="M5.037 7.421V20.01M23.975 7.421V20.01m-8.67-12.589L5.029 20.01M42.87 7.421V20.01m-18.9-9.476l19.012 7.898" stroke="#0078D4" stroke-width="1.519" stroke-miterlimit="10"/><path d="M10.083 29.73H0v2.581h10.083V29.73zm18.878 0H18.878v2.581h10.083V29.73zm19.014 0H37.892v2.581h10.083V29.73z" fill="#50E6FF"/><path d="M10.083 18.359H.051v9.973h10.032v-9.973zm37.774-.141H37.825v9.974h10.032v-9.974zm-18.912.141H18.913v9.973h10.032v-9.973zM5.004 40.214h-3.33v6.433c0 .656 1.463 1.211 3.296 1.22h.05c1.842 0 3.33-.539 3.33-1.22v-6.433H5.005z" fill="#0078D4"/><path d="M8.35 40.215c0 .664-1.488 1.219-3.33 1.219-1.841 0-3.33-.538-3.33-1.22 0-.68 1.489-1.219 3.33-1.219 1.842 0 3.33.555 3.33 1.22z" fill="#fff"/><path d="M7.67 40.15c0 .446-1.186.807-2.65.807-1.463 0-2.648-.361-2.648-.807 0-.446 1.185-.807 2.649-.807 1.463 0 2.648.353 2.648.807z" fill="#50E6FF"/><path d="M23.924 40.105h-3.33v6.433c0 .656 1.463 1.21 3.297 1.22h.05c1.842 0 3.33-.539 3.33-1.22v-6.433h-3.347z" fill="#0078D4"/><path d="M27.271 40.106c0 .664-1.488 1.219-3.33 1.219-1.841 0-3.33-.538-3.33-1.22 0-.68 1.489-1.219 3.33-1.219 1.842 0 3.33.564 3.33 1.22z" fill="#fff"/><path d="M26.59 40.041c0 .446-1.186.808-2.65.808-1.47 0-2.648-.362-2.648-.808 0-.445 1.186-.807 2.649-.807 1.472 0 2.649.361 2.649.807z" fill="#50E6FF"/><path d="M42.938 40.105h-3.331v6.433c0 .656 1.464 1.21 3.297 1.22h.05c1.842 0 3.33-.539 3.33-1.22v-6.433h-3.346z" fill="#0078D4"/><path d="M46.285 40.106c0 .664-1.489 1.219-3.33 1.219-1.842 0-3.33-.538-3.33-1.22 0-.68 1.488-1.219 3.33-1.219 1.841 0 3.33.564 3.33 1.22z" fill="#fff"/><path d="M45.603 40.041c0 .446-1.186.808-2.649.808-1.471 0-2.649-.362-2.649-.808 0-.445 1.186-.807 2.65-.807 1.462 0 2.648.361 2.648.807z" fill="#50E6FF"/><path d="M7.56.726H2.498v5.062H7.56V.726z" fill="#0078D4"/><path d="M7.56 5.687H2.498v5.062H7.56V5.687z" fill="#50E6FF"/><path d="M26.506.726h-5.063v5.062h5.063V.726z" fill="#0078D4"/><path d="M26.506 5.687h-5.063v5.062h5.063V5.687z" fill="#50E6FF"/><path d="M17.659.726h-5.062v5.062h5.062V.726z" fill="#0078D4"/><path d="M17.659 5.687h-5.062v5.062h5.062V5.687z" fill="#50E6FF"/><path d="M45.427.726h-5.063v5.062h5.063V.726z" fill="#0078D4"/><path d="M45.427 5.687h-5.063v5.062h5.063V5.687z" fill="#50E6FF"/><path d="M35.31 22.835l1.816 1.816-1.816 1.817v-3.633zm-2.9 3.633l-1.817-1.817 1.817-1.816v3.633z" fill="#0078D4"/><path d="M35.706 23.8h-4.28v1.682h4.28V23.8zm-19.922-.965l1.817 1.816-1.817 1.817v-3.633zm-2.901 3.633l-1.816-1.817 1.816-1.816v3.633z" fill="#0078D4"/><path d="M16.18 23.8h-4.281v1.682h4.28V23.8z" fill="#0078D4"/></svg>