<svg xmlns="http://www.w3.org/2000/svg" viewBox="0 0 49 49"><path d="M38.01 32.623v-5.49h-3.065a11.21 11.21 0 00-1.238-2.788l2.232-2.231-3.882-3.882-2.333 2.332a10.963 10.963 0 00-2.686-1.06V16.16h-5.49v3.394c-.927.244-1.802.615-2.62 1.078l-2.4-2.4-3.881 3.882 2.35 2.35a10.962 10.962 0 00-1.163 2.669h-3.267v5.49h3.116a10.858 10.858 0 001.103 2.872l-2.148 2.147 3.882 3.882 2.047-2.046a10.64 10.64 0 002.972 1.288v2.838h5.49v-2.787a10.892 10.892 0 003.04-1.264l1.971 1.971 3.882-3.882-2.02-2.021a10.89 10.89 0 001.17-2.998h2.938zM24.294 34.93a5.056 5.056 0 01-5.053-5.052 5.057 5.057 0 015.053-5.053 5.057 5.057 0 015.052 5.053 5.056 5.056 0 01-5.052 5.052z" fill="#50E6FF"/><path d="M24.25 10.803a2.526 2.526 0 100-5.053 2.526 2.526 0 000 5.053zM9.935 17.963a2.526 2.526 0 100-5.053 2.526 2.526 0 000 5.053zM38.563 17.963a2.526 2.526 0 100-5.053 2.526 2.526 0 000 5.053zM2.777 10.803a2.526 2.526 0 100-5.053 2.526 2.526 0 000 5.053zM45.724 10.803a2.526 2.526 0 100-5.053 2.526 2.526 0 000 5.053zM2.777 25.119a2.526 2.526 0 100-5.053 2.526 2.526 0 000 5.053zM45.724 25.119a2.526 2.526 0 100-5.053 2.526 2.526 0 000 5.053zM24.25 32.275a2.526 2.526 0 100-5.052 2.526 2.526 0 000 5.052z" fill="#0078D4"/></svg>