<svg xmlns="http://www.w3.org/2000/svg" viewBox="0 0 49 49"><path d="M26.186 29.737h-2.527V43.7h2.527V29.737zm0-27.074h-2.527V18.36h2.527V2.663zm4.497 23.254l-1.264 2.188 12.777 7.376 1.263-2.188-12.776-7.376zM7.321 12.425l-1.263 2.187 13.244 7.647 1.263-2.188L7.32 12.424zm35.027.108l-13.046 7.532 1.263 2.188 13.046-7.532-1.263-2.188zM19.213 25.882L5.838 33.605 7.1 35.791l13.375-7.722-1.263-2.188z" fill="#50E6FF"/><path d="M24.922 19.659l3.798 2.19v4.378l-3.798 2.198-3.79-2.19v-4.378l3.79-2.198zm0-2.914l-1.263.733-3.79 2.19-1.263.732v7.292l1.264.733 3.797 2.19 1.264.732 1.263-.733 3.798-2.189 1.263-.733V20.4l-1.263-.733-3.807-2.19-1.263-.732zM21.133 44.29v-.059a3.754 3.754 0 013.756-3.755h.059a3.754 3.754 0 013.756 3.755v.06a3.754 3.754 0 01-3.756 3.755h-.059a3.76 3.76 0 01-3.756-3.756zm0-40.421V3.81A3.763 3.763 0 0124.898.046h.058a3.761 3.761 0 013.756 3.764v.059a3.76 3.76 0 01-3.756 3.756h-.058a3.761 3.761 0 01-3.765-3.756zm19.638 33.584l-.05-.034a3.75 3.75 0 01-1.373-5.136l.034-.051a3.75 3.75 0 015.137-1.373l.05.034a3.75 3.75 0 011.373 5.137l-.034.05a3.768 3.768 0 01-5.137 1.373zM7.28 17.73h-.058a3.754 3.754 0 01-3.756-3.756v-.059a3.754 3.754 0 013.756-3.756h.059a3.754 3.754 0 013.755 3.756v.059a3.748 3.748 0 01-3.755 3.756zm37.272-.523l-.05.033a3.764 3.764 0 01-5.137-1.372l-.034-.05a3.764 3.764 0 011.373-5.138l.05-.033a3.765 3.765 0 015.137 1.372l.034.05a3.764 3.764 0 01-1.373 5.138zM7.28 37.94h-.058a3.754 3.754 0 01-3.756-3.755v-.06a3.754 3.754 0 013.756-3.755h.059a3.754 3.754 0 013.755 3.756v.059a3.748 3.748 0 01-3.755 3.756z" fill="#0078D4"/></svg>