<svg xmlns="http://www.w3.org/2000/svg" viewBox="0 0 60 61"><path d="M48.727 49.136v-7.888H11.27v7.888h37.457z" fill="#0078D4"/><path d="M48.728 31.425H11.27v7.887h37.457v-7.887zM48.728 11.604H11.27v7.9h37.457v-7.9z" fill="#50E6FF"/><path d="M48.73 29.461v-7.947H11.273v7.947H48.73z" fill="#0078D4"/><path d="M37.045 23.322h-4.2v4.2h4.2v-4.2zM27.19 23.322h-4.201v4.2h4.2v-4.2zM17.297 23.322h-4.2v4.2h4.2v-4.2zM46.938 23.322h-4.2v4.2h4.2v-4.2z" fill="#50E6FF"/><path d="M37.048 17.67v-4.2h-4.2v4.2h4.2zM27.189 17.674v-4.2h-4.2v4.2h4.2zM17.3 17.67v-4.201h-4.2v4.2h4.2zM46.94 17.67v-4.2h-4.2v4.2h4.2z" fill="#0078D4"/><path d="M15.161 47.272a2.124 2.124 0 100-4.249 2.124 2.124 0 000 4.248zM25.077 47.272a2.124 2.124 0 100-4.249 2.124 2.124 0 000 4.248zM34.945 47.272a2.124 2.124 0 100-4.249 2.124 2.124 0 000 4.248zM44.766 47.272a2.124 2.124 0 100-4.249 2.124 2.124 0 000 4.248z" fill="#50E6FF"/><path d="M15.161 37.391a2.124 2.124 0 100-4.248 2.124 2.124 0 000 4.248zM25.077 37.391a2.124 2.124 0 100-4.248 2.124 2.124 0 000 4.248zM34.945 37.391a2.124 2.124 0 100-4.248 2.124 2.124 0 000 4.248zM44.766 37.391a2.124 2.124 0 100-4.248 2.124 2.124 0 000 4.248z" fill="#0078D4"/></svg>