<svg xmlns="http://www.w3.org/2000/svg" viewBox="0 0 48 49"><path d="M24.337 24.453l-.902-.883-7.041 7.162a2.493 2.493 0 00-1.265-.337 2.515 2.515 0 00-2.522 2.517 2.515 2.515 0 002.522 2.517 2.515 2.515 0 002.167-3.805l7.041-7.17z" fill="#50E6FF"/><path d="M29.043 31.573c-.27 0-.523.026-.776.076l-3.812-7.912-1.138.548 3.77 7.827a3.774 3.774 0 001.956 7.011c2.1 0 3.786-1.683 3.786-3.779a3.77 3.77 0 00-3.786-3.77z" fill="#50E6FF"/><path d="M37.889 25.337c-.945 0-1.763.514-2.193 1.28l-11.645-3.215-.338 1.22 11.655 3.215v.017a2.515 2.515 0 002.521 2.517c1.4 0 2.521-1.128 2.521-2.517a2.515 2.515 0 00-2.521-2.517z" fill="#50E6FF"/><path d="M24.151 23.445l-7.85-3.737a3.85 3.85 0 00.075-.766 3.777 3.777 0 00-3.786-3.779 3.772 3.772 0 00-3.786 3.78 3.772 3.772 0 003.786 3.778 3.766 3.766 0 003.247-1.834l7.766 3.695.548-1.137z" fill="#50E6FF"/><path d="M45.478 12.796a2.515 2.515 0 00-2.437 3.156l-19.387 7.466.456 1.178 19.556-7.533a2.523 2.523 0 001.813.766c1.4 0 2.521-1.128 2.521-2.517a2.515 2.515 0 00-2.522-2.516z" fill="#50E6FF"/><path d="M25.062 12.629a2.515 2.515 0 00-2.521-2.517 2.515 2.515 0 00-.329 5.008l1.046 8.964 1.256-.143-1.045-8.972a2.508 2.508 0 001.593-2.34z" fill="#50E6FF"/><path d="M23.882 29.023a5.013 5.013 0 005.017-5.008 5.013 5.013 0 00-5.017-5.008 5.013 5.013 0 00-5.018 5.008 5.013 5.013 0 005.018 5.008zM19.017 7.681a1.271 1.271 0 110-2.541 1.271 1.271 0 110 2.542z" fill="#0078D4"/><path d="M8.82 40.413a1.271 1.271 0 110-2.542 1.27 1.27 0 11.001 2.542zm35.503-9.93a1.271 1.271 0 110-2.542 1.271 1.271 0 110 2.542z" fill="#50E6FF"/><path d="M21.226 43.24l3.432-20.057-14.825 3.392a2.503 2.503 0 00-2.218-1.322 2.515 2.515 0 00-2.521 2.517 2.515 2.515 0 002.521 2.517 2.52 2.52 0 002.522-2.492l12.961-2.963-3.112 18.19a2.515 2.515 0 00.194 5.025 2.517 2.517 0 002.522-2.518 2.502 2.502 0 00-1.476-2.29z" fill="#0078D4"/><path d="M35.36 10.104a2.515 2.515 0 00-2.168 3.805l-9.757 9.654.894.9 9.765-9.662c.371.219.81.345 1.273.345 1.4 0 2.522-1.128 2.522-2.517a2.53 2.53 0 00-2.53-2.524zm-3.779 32.844a1.271 1.271 0 110-2.542 1.27 1.27 0 110 2.542z" fill="#0078D4"/><path d="M41.616 7.596a1.271 1.271 0 110-2.542 1.27 1.27 0 110 2.542z" fill="#50E6FF"/></svg>