<svg xmlns="http://www.w3.org/2000/svg" viewBox="0 0 49 49"><path d="M26.205 30.367h-2.526V44.33h2.526V30.367zM26.205 3.293h-2.526V18.99h2.526V3.293zM30.702 26.547l-1.263 2.187 12.777 7.377 1.263-2.188-12.777-7.376zM7.34 13.054l-1.262 2.188 13.243 7.646 1.263-2.187-13.243-7.647zM42.368 13.163L29.32 20.695l1.263 2.188 13.047-7.532-1.263-2.188zM19.232 26.512L5.857 34.234l1.264 2.188L20.495 28.7l-1.263-2.188z" fill="#50E6FF"/><path d="M24.942 20.289l3.798 2.19v4.378l-3.798 2.198-3.79-2.19v-4.378l3.79-2.198zm0-2.914l-1.263.733-3.79 2.19-1.263.732v7.292l1.263.733 3.798 2.19 1.263.732 1.263-.733 3.798-2.19 1.263-.732V21.03l-1.263-.733-3.806-2.19-1.263-.732zM21.153 44.92v-.059a3.754 3.754 0 013.756-3.755h.059a3.754 3.754 0 013.755 3.755v.06a3.754 3.754 0 01-3.755 3.755h-.06a3.76 3.76 0 01-3.755-3.756zM21.153 4.499V4.44A3.763 3.763 0 0124.917.676h.059a3.761 3.761 0 013.756 3.764v.059a3.76 3.76 0 01-3.756 3.756h-.059a3.761 3.761 0 01-3.764-3.756zM40.79 38.083l-.05-.034a3.75 3.75 0 01-1.372-5.137l.033-.05a3.75 3.75 0 015.137-1.373l.05.034a3.75 3.75 0 011.373 5.137l-.033.05a3.768 3.768 0 01-5.137 1.373zM7.3 18.36h-.059a3.754 3.754 0 01-3.756-3.756v-.06a3.754 3.754 0 013.756-3.755h.06a3.754 3.754 0 013.755 3.756v.059A3.748 3.748 0 017.3 18.36zM44.572 17.837l-.05.033a3.764 3.764 0 01-5.137-1.372l-.034-.05a3.764 3.764 0 011.372-5.138l.051-.033a3.764 3.764 0 015.137 1.372l.033.05a3.765 3.765 0 01-1.372 5.138zM7.3 38.57h-.059a3.754 3.754 0 01-3.756-3.755v-.06A3.754 3.754 0 017.241 31h.06a3.754 3.754 0 013.755 3.756v.059A3.748 3.748 0 017.3 38.57z" fill="#0078D4"/></svg>