<svg xmlns="http://www.w3.org/2000/svg" viewBox="0 0 49 49"><path d="M.077 10.151V.046h10.105L.077 10.15z" fill="#0078D4"/><path d="M10.182 12.679v10.105H.077L10.182 12.68zM22.814.046v10.105H12.71L22.814.046z" fill="#50E6FF"/><path d="M25.34 12.679h10.106v10.105L25.34 12.68zM37.972.046h10.105v10.105L37.972.046z" fill="#0078D4"/><path d="M48.077 22.784H37.972V12.68l10.105 10.105zM35.446 10.151H25.34V.046l10.106 10.105z" fill="#50E6FF"/><path d="M35.446 25.308v10.105H25.34l10.106-10.105zM48.077 37.94v10.106H37.972L48.077 37.94z" fill="#0078D4"/><path d="M37.972 35.413V25.308h10.105L37.972 35.413zM25.34 48.046V37.94h10.106L25.34 48.046z" fill="#50E6FF"/><path d="M22.814 35.413H12.71V25.308l10.105 10.105zM10.182 48.046H.077V37.94l10.105 10.105z" fill="#0078D4"/><path d="M.077 25.308h10.105v10.105L.077 25.308zM12.709 37.94h10.105v10.106L12.71 37.94z" fill="#50E6FF"/><path d="M12.709 22.784V12.68h10.105L12.71 22.784zm11.377 5.22a3.79 3.79 0 100-7.579 3.79 3.79 0 000 7.579z" fill="#0078D4"/></svg>