<svg xmlns="http://www.w3.org/2000/svg" viewBox="0 0 48 49"><path d="M41.305 29.472H24.22v2.526h17.086v-2.526zM42.29 4.42L23.283 17.173l1.408 2.098L43.697 6.518 42.29 4.42z" fill="#50E6FF"/><path d="M23.99 16.965l-.008 2.526 19.082.063.008-2.526-19.082-.063z" fill="#50E6FF"/><path d="M23.628 16.937l-19.03 6.527.82 2.39 19.03-6.527-.82-2.39z" fill="#50E6FF"/><path d="M42.333 44.655l-18.931-12.48-18.796-6.324.8-2.392 19.116 6.426.135.084 19.065 12.573-1.39 2.113z" fill="#50E6FF"/><path d="M42.939 10.828a4.977 4.977 0 100-9.954 4.977 4.977 0 000 9.954zm0 12.269a4.977 4.977 0 100-9.953 4.977 4.977 0 000 9.953zm0 12.666a4.977 4.977 0 100-9.954 4.977 4.977 0 000 9.954zM24.126 23.097a4.977 4.977 0 100-9.953 4.977 4.977 0 000 9.953zm0 12.666a4.977 4.977 0 100-9.954 4.977 4.977 0 000 9.954zM42.939 48.58a4.977 4.977 0 100-9.954 4.977 4.977 0 000 9.954zM5.061 29.599a4.977 4.977 0 100-9.954 4.977 4.977 0 000 9.954z" fill="#0078D4"/></svg>