<svg xmlns="http://www.w3.org/2000/svg" viewBox="0 0 49 49"><path d="M24.535 24.622a5.55 5.55 0 100-11.099 5.55 5.55 0 000 11.1z" fill="#50E6FF"/><path d="M24.536 1.129c-9.912 0-17.946 8.034-17.946 17.945 0 9.912 8.034 17.945 17.946 17.945 9.911 0 17.945-8.033 17.945-17.945C42.472 9.163 34.439 1.13 24.536 1.13zm0 26.063a8.117 8.117 0 01-8.118-8.118 8.117 8.117 0 018.118-8.118 8.122 8.122 0 018.117 8.118 8.117 8.117 0 01-8.117 8.118z" fill="#0078D4"/><path d="M24.535 8.16a1.895 1.895 0 100-3.789 1.895 1.895 0 000 3.79z" fill="#50E6FF"/><path d="M24.536 40.876c-5.508 0-10.527-2.054-14.358-5.423L7.003 48.59h35.074l-3.175-13.137c-3.849 3.368-8.86 5.423-14.366 5.423z" fill="#0078D4"/></svg>