<svg xmlns="http://www.w3.org/2000/svg" viewBox="0 0 49 49"><path d="M33.965 17.9a3.783 3.783 0 100-7.566 3.783 3.783 0 000 7.567z" fill="#0078D4"/><path d="M33.965 16.233a2.115 2.115 0 100-4.23 2.115 2.115 0 000 4.23z" fill="#50E6FF"/><path d="M41.245 1.875L39.922.62a.991.991 0 00-1.205-.126c-.843.514-2.57 1.76-4.634 4.381-2.83 3.59-2.856 6.521-2.856 6.64v.53l.514-.126c1.323-.329 2.932-.65 3.294-.607.253.177.994.902 1.466 1.382l.59.606.118-.834c.008-.033.514-3.58 1.163-5.417.497-1.407 2.19-3.219 2.89-3.935a.858.858 0 00.244-.623.84.84 0 00-.261-.616zM30.923 16.376l.068.497c.151 1.112.227 4.583-.573 9.773-.632 4.07-1.534 6.362-4.575 11.661-2.064 3.606-4.221 6.058-5.047 6.943a.961.961 0 00-.042 1.264l.943 1.162c.177.22.439.346.717.354h.033c.27 0 .523-.11.708-.303 1.576-1.694 5.359-5.805 6.378-7.457 1.812-2.915 3.092-5.45 4.651-10.456.623-1.988 1.087-4.752 1.382-8.223.219-2.578.261-4.6.261-4.617l.008-.404-4.912-.194zm16.531-7.01l-1.23-1.584a.832.832 0 00-.59-.32.83.83 0 00-.632.227c-.438.421-1.314 1.222-2.207 1.786-.649.413-2.03.893-3.791 1.315a1 1 0 00-.658.522 1.014 1.014 0 00-.016.843c.278.615.412 1.272.412 1.954 0 .556-.092 1.096-.278 1.61a.958.958 0 00.902 1.28c.151 0 .295-.034.438-.1 1.66-.843 3.859-2.074 4.946-3.152a36.365 36.365 0 002.696-3.042c.312-.387.312-.943.008-1.34zm-17.247.977a.84.84 0 00-.783-.438l-.455.034-.118.118c-.026.025-2.216 2.333-4.617 3.168-.995.345-2.115.623-3.303.918-1.787.446-3.809.952-5.932 1.811-.32.135-.632.262-.944.38-3.092 1.247-5.324 2.148-7.785 4.027-2.03 1.55-4.398 3.783-5.316 4.668a1.056 1.056 0 00-.076 1.44l.775.91c.186.22.438.346.725.371h.084c.253 0 .497-.093.691-.261 1.6-1.399 7.339-6.1 14.003-8.063 5.544-1.635 9.942-2.123 11.568-2.258a.94.94 0 00.8-1.28 4.718 4.718 0 01-.336-1.77c0-1.053.337-2.048.96-2.882a.82.82 0 00.06-.893z" fill="#0078D4"/></svg>