<svg xmlns="http://www.w3.org/2000/svg" viewBox="0 0 49 49"><path d="M33.202 25.433H15.379l2.662 22.606h12.465l2.696-22.606z" fill="#0078D4"/><path d="M15.38 20.356h17.822l-.295-2.502H15.674l-.295 2.502zm20.197 1.221H12.912v2.527h22.665v-2.527z" fill="#50E6FF"/><path d="M22.926 14.399s-3.765-1.828-3.765-4.49c0-3.705 5.281-3.705 5.281-6.51C24.442.477 23.01.14 23.01.14s3.698.615 3.731 3.26c.06 4.32-5.053 3.984-5.053 7.522.008 2.358 1.238 3.478 1.238 3.478z" fill="#0078D4"/><path d="M25.57 16.315s-2.922-1.879-2.922-4.549c0-3.705 5.163-3.933 5.163-7.352 0-2.502-1.12-2.974-1.12-2.974s2.863 1.07 2.863 3.706c0 4.91-4.944 3.984-4.944 6.738 0 2.99.96 4.43.96 4.43z" fill="#0078D4"/></svg>