<svg xmlns="http://www.w3.org/2000/svg" viewBox="0 0 49 49"><path d="M.915 41.147h48V8.355h-48v32.792z" fill="#0078D4"/><path d="M36.233 17.207a7.57 7.57 0 00-7.571 7.57c0 1.971.75 3.765 1.987 5.112H18.92a7.524 7.524 0 001.987-5.111 7.57 7.57 0 00-15.14 0 7.565 7.565 0 007.57 7.57c.151 0 .303-.008.454-.017h21.97c.153.009.304.017.456.017a7.57 7.57 0 007.57-7.57c0-4.186-3.377-7.571-7.553-7.571zM8.3 24.769a5.053 5.053 0 015.044-5.044 5.053 5.053 0 015.044 5.044 5.053 5.053 0 01-5.044 5.044A5.048 5.048 0 018.3 24.77zm27.933 5.044a5.053 5.053 0 01-5.045-5.044 5.053 5.053 0 015.045-5.044 5.053 5.053 0 015.044 5.044 5.053 5.053 0 01-5.044 5.044z" fill="#50E6FF"/></svg>