<svg xmlns="http://www.w3.org/2000/svg" viewBox="0 0 49 49"><path d="M24.516 24.11a5.55 5.55 0 100-11.098 5.55 5.55 0 000 11.099z" fill="#50E6FF"/><path d="M24.516.616C14.605.616 6.571 8.649 6.571 18.56s8.034 17.945 17.945 17.945c9.912 0 17.945-8.033 17.945-17.945C42.453 8.649 34.42.616 24.516.616zm0 26.063a8.117 8.117 0 01-8.118-8.118 8.117 8.117 0 018.118-8.118 8.122 8.122 0 018.118 8.118 8.117 8.117 0 01-8.118 8.118z" fill="#0078D4"/><path d="M24.516 7.647a1.895 1.895 0 100-3.79 1.895 1.895 0 000 3.79z" fill="#50E6FF"/><path d="M24.516 40.363c-5.507 0-10.526-2.055-14.358-5.423L6.983 48.077h35.074L38.882 34.94c-3.848 3.368-8.859 5.423-14.366 5.423z" fill="#0078D4"/></svg>