<svg xmlns="http://www.w3.org/2000/svg" viewBox="0 0 48 49"><path d="M22.76 40.224a11.398 11.398 0 01-2.447-7.07c0-6.316 5.137-11.454 11.452-11.454 2.721 0 5.223.955 7.19 2.547V5.915H6.71v34.31h16.052z" fill="#50E6FF"/><path d="M39.421 24.642a11.577 11.577 0 011.623 1.805c.17.234.539.118.539-.171V.422h-2.627v5.491h.466v18.729zM23.296 40.856H6.311V5.913h.399V.422H4.083v42.283h20.45a.297.297 0 00.181-.533 11.618 11.618 0 01-1.418-1.316z" fill="#0078D4"/><path d="M6.31 40.857h16.987a11.747 11.747 0 01-.536-.633H6.71V5.914h-.4v34.943zm33.111-16.214V5.915h-.466v18.332c.159.127.315.26.466.396z" fill="#0078D4"/><path d="M16.552 7.914H5.43v2.508h11.122V7.914zM5.862.422h-4.31V2.93h4.31V.422zm38.038 0h-4.309V2.93h4.31V.422zM16.552 15.43H5.43v2.508h11.122V15.43zm0 7.511H5.43v2.509h11.122v-2.51zm0 7.517H5.43v2.508h11.122v-2.508zm24.161 2.698c0-4.936-4.012-8.949-8.948-8.949-4.936 0-8.948 4.013-8.948 8.95 0 4.936 4.012 8.949 8.948 8.949a8.9 8.9 0 005.226-1.68l7.654 7.576 1.857-1.883-7.62-7.541a8.888 8.888 0 001.83-5.422zm-8.948 6.31a6.324 6.324 0 01-6.317-6.319 6.324 6.324 0 016.317-6.318 6.324 6.324 0 016.317 6.318 6.324 6.324 0 01-6.317 6.319z" fill="#0078D4"/></svg>