<svg xmlns="http://www.w3.org/2000/svg" viewBox="0 0 49 49"><path d="M32.528 25.153l4.147-3.94c3.734-3.735 8.989-12.704 5.254-16.439-3.734-3.734-12.703 1.54-16.438 5.254L2.561 34.16 12.563 44.16l14.899-14.167v-4.822h5.066v-.02zM16.597 45.66l-2.027-2.026 2.759-2.758 5.235-3.228 1.032 1.032-7 6.98z" fill="#0078D4"/><path d="M6.389 32.36a.394.394 0 01-.206.074.35.35 0 00.206-.075z" fill="#0078D4"/><path d="M33.579 17.236a4.09 4.09 0 100-8.181 4.09 4.09 0 000 8.181zM14.897 33.83l-2.03-2.03L4.6 40.068l2.03 2.03 8.267-8.266z" fill="#50E6FF"/><path d="M19.111 42.587h6.718c.807 0 1.483-.657 1.483-1.464v-9.701l-9.964 9.401 1.764 1.764zM27.255 44.48c0 .02-.019.038-.019.057 0-.019.02-.038.02-.056zM27.255 44.463c.038-.131.057-.281.057-.413v-.675.675c.018.15-.02.282-.057.413z" fill="#0078D4"/><path d="M27.236 44.538c-.206.581-.75.994-1.407.994h-5.948c-.488 0-.957-.187-1.314-.544l-2.683-2.683 2.965 2.946a.938.938 0 00.656.262h6.343c.638.02 1.182-.412 1.388-.975z" fill="#50E6FF"/><path d="M25.83 42.585h-6.718l-1.745-1.745-1.464 1.463 2.683 2.684c.338.338.826.544 1.314.544h5.948c.638 0 1.201-.413 1.407-.995 0-.018.02-.037.02-.056v-.019c.037-.13.056-.281.056-.412V41.12a1.498 1.498 0 01-1.502 1.464z" fill="#50E6FF"/><path d="M1.041 30.109l2.045 2.045 2.759-2.777 3.209-5.236L8.04 23.11l-6.999 7z" fill="#0078D4"/><path d="M4.119 27.59v-6.717c0-.807.656-1.482 1.463-1.482h9.702l-9.401 9.964-1.764-1.764zM2.223 19.469c-.018 0-.037.018-.056.018.038-.018.038-.018.056-.018zM2.242 19.447c.132-.038.282-.056.413-.056h.676-.676c-.131 0-.281.018-.413.056z" fill="#0078D4"/><path d="M2.186 19.484c-.582.207-.995.751-.995 1.408v5.948c0 .488.188.957.545 1.314l2.683 2.683-2.965-2.965a.938.938 0 01-.263-.657v-6.342c0-.638.413-1.201.995-1.389z" fill="#50E6FF"/><path d="M4.119 20.873v6.718l1.745 1.745L4.4 30.799l-2.664-2.664a1.893 1.893 0 01-.545-1.314v-5.948c0-.638.413-1.2.995-1.407.019 0 .037-.02.056-.02h.019c.131-.037.281-.055.413-.055H5.6c-.826 0-1.482.675-1.482 1.482zM31.215 25.96h-3.003v3.003h3.003v-3.002z" fill="#50E6FF"/><path d="M47.259 25.96H33.223v3.003h14.036v-3.002z" fill="#0078D4"/><path d="M31.215 30.969h-3.003v3.002h3.003V30.97z" fill="#50E6FF"/><path d="M47.259 30.969H33.223v3.002h14.036V30.97z" fill="#0078D4"/><path d="M31.215 35.98h-3.003v3.003h3.003V35.98z" fill="#50E6FF"/><path d="M47.259 35.98H33.223v3.003h14.036V35.98z" fill="#0078D4"/><path d="M31.215 40.973h-3.003v3.002h3.003v-3.002z" fill="#50E6FF"/><path d="M47.259 40.992H33.223v3.003h14.036v-3.003z" fill="#0078D4"/><path d="M47.259 25.96h-1.99v3.003h1.99v-3.002zM47.259 30.969h-1.99v3.002h1.99V30.97zM47.259 35.98h-1.99v3.003h1.99V35.98zM47.259 40.992h-1.99v3.003h1.99v-3.003z" fill="#50E6FF"/></svg>