<svg xmlns="http://www.w3.org/2000/svg" viewBox="0 0 49 49"><path d="M33.99 43.253h-2.56v-3.477l1.275-5.315h1.284v8.792zM19.202 41.316zM24.21 1.633c-4.685 0-7.023 8.945-7.023 13.63l.731 29.575h12.568l.731-29.575c.017-4.685-2.313-13.63-7.006-13.63z" fill="#0078D4"/><path d="M24.21 15.77a3.64 3.64 0 100-7.278 3.64 3.64 0 000 7.279zM25.469 36.875h-2.551v10.39h2.55v-10.39z" fill="#50E6FF"/><path d="M33.632 39.742l4.226-4.226c.51-.51.51-1.343.009-1.853l-6.089-6.089-.348 12.168h2.202zM39.942 35.813c.008.017.017.025.017.042-.009-.017-.009-.025-.017-.042zM39.933 35.797a1.294 1.294 0 00-.22-.298l-.426-.425.425.425c.085.094.162.196.221.298z" fill="#0078D4"/><path d="M37.867 33.664s.008 0 0 0l1.411 1.412-1.411-1.412zM39.933 35.797c0 .008.009.008.009.017-.009-.009-.009-.009-.009-.017zM39.958 35.855a1.33 1.33 0 01-.255 1.506l-3.741 3.741a1.647 1.647 0 01-1.165.485H31.43h3.707a.824.824 0 00.578-.239l3.988-3.987a1.328 1.328 0 00.255-1.505z" fill="#50E6FF"/><path d="M37.858 35.518l-4.226 4.226H31.43v1.845h3.367c.434 0 .859-.17 1.165-.485l3.741-3.741a1.314 1.314 0 00.255-1.505c-.008-.017-.008-.026-.017-.043 0-.008-.008-.008-.008-.017a1.286 1.286 0 00-.221-.297l-.425-.425-1.412-1.412c.502.51.502 1.344-.017 1.854z" fill="#50E6FF"/><path d="M14.432 43.253h2.56v-3.477l-1.276-5.315h-1.284v8.792z" fill="#0078D4"/><path d="M14.789 39.742l-4.226-4.226a1.322 1.322 0 01-.009-1.853l6.089-6.089.348 12.168H14.79zM8.48 35.813c-.009.017-.017.025-.017.042.008-.017.017-.025.017-.042zM8.488 35.797c.06-.11.136-.213.221-.298l.426-.425-.426.425a1.798 1.798 0 00-.22.298z" fill="#0078D4"/><path d="M10.554 33.664l-1.42 1.412 1.42-1.412zM8.488 35.797c0 .008-.009.008-.009.017.009-.009.009-.009.009-.017zM8.463 35.855a1.33 1.33 0 00.255 1.506l3.741 3.741c.306.306.723.485 1.165.485h3.367-3.707a.824.824 0 01-.578-.239l-3.988-3.987a1.343 1.343 0 01-.255-1.505z" fill="#50E6FF"/><path d="M10.563 35.518l4.226 4.226h2.202v1.845h-3.367c-.434 0-.859-.17-1.165-.485l-3.741-3.741a1.315 1.315 0 01-.255-1.505c.008-.017.008-.026.017-.043 0-.008.008-.008.008-.017.06-.11.136-.212.221-.297l.425-.425 1.412-1.412a1.322 1.322 0 00.017 1.854z" fill="#50E6FF"/></svg>