<svg xmlns="http://www.w3.org/2000/svg" viewBox="0 0 49 49"><path d="M4.787 35.02V12.98L23.873 1.958l19.095 11.024V35.02L23.873 46.043 4.787 35.02z" fill="#50E6FF"/><path d="M23.873 3.377l17.856 10.31v20.62L23.873 44.625 6.017 34.315v-20.62L23.873 3.377zm0-2.838l-1.23.714-17.856 10.31-1.23.713v23.458l1.23.714 17.856 10.31 1.23.713 1.23-.713 17.856-10.31 1.23-.714V12.268l-1.23-.713L25.103 1.253l-1.23-.714z" fill="#0078D4"/><path d="M24.611 23.938h-1.23v21.358h1.23V23.938z" fill="#0078D4"/><path d="M41.976 12.872L23.48 23.55l.615 1.065L42.59 13.937l-.615-1.065z" fill="#0078D4"/><path d="M6.028 12.876l-.615 1.065 18.496 10.68.615-1.066L6.028 12.876z" fill="#0078D4"/><path d="M14.326 29.517V18.485l9.547-5.52 9.555 5.52v11.032l-9.555 5.52-9.547-5.52z" fill="#50E6FF"/><path d="M24.554 23.973h-1.23v10.695h1.23V23.973z" fill="#0078D4"/><path d="M32.782 18.164l-9.262 5.348.615 1.065 9.262-5.348-.615-1.065z" fill="#0078D4"/><path d="M15.096 18.161l-.615 1.066 9.262 5.347.615-1.065-9.262-5.348z" fill="#0078D4"/><path d="M14.818 18.36l9.21-5.282 9.261 5.676-9.391 5.02-9.08-5.414z" fill="#fff"/><path d="M33.51 18.926l-9.26 5.282.041 10.26 9.13-4.847.09-10.695z" fill="#0078D4"/><path d="M23.873 13.409l9.172 5.293v10.595l-9.172 5.293-9.173-5.293V18.702l9.173-5.293zm0-1.456l-.631.362-9.173 5.293-.63.362v12.059l.63.362 9.173 5.293.631.362.631-.362 9.173-5.293.63-.362V17.97l-.63-.362-9.173-5.293-.631-.362z" fill="#0078D4"/></svg>