<svg xmlns="http://www.w3.org/2000/svg" viewBox="0 0 49 49"><path d="M16.345 40.197L1.08 46.955V8.32l15.265-6.75v38.627zM47.077 40.197L31.82 46.955V8.32l15.257-6.75v38.627z" fill="#0078D7"/><path d="M12.549 16.154l-7.786 3.509v-8.131l7.786-3.509v8.131zM43.639 16.246l-8.098 3.65v-8.458l8.098-3.649v8.457zM13.901 23.042L3.426 27.92v-2.346l10.475-4.87v2.338zM13.901 27.881l-10.475 4.88v-2.347l10.475-4.871v2.338zM13.901 32.721l-10.475 4.88v-2.347l10.475-4.871v2.338zM45.504 23.042L35.03 27.92v-2.346l10.475-4.87v2.338zM45.504 27.881l-10.475 4.88v-2.347l10.475-4.871v2.338zM45.504 32.721l-10.475 4.88v-2.347l10.475-4.871v2.338zM31.828 46.956l-15.485-6.8.012-38.593L31.828 8.32v38.635z" fill="#50E6FF"/><path d="M18.805 23.042L29.28 27.92v-2.346l-10.475-4.87v2.338zM18.805 27.881l10.475 4.88v-2.347l-10.475-4.871v2.338zM18.805 32.721l10.475 4.88v-2.347l-10.475-4.871v2.338zM19.845 16.597l8.429 3.798v-8.807l-8.43-3.799v8.808z" fill="#0078D7"/></svg>