<svg xmlns="http://www.w3.org/2000/svg" viewBox="0 0 49 46"><path d="M48.289 36.266h-48v8.932h48v-8.932zM23.635 5.777a20.35 20.35 0 0113.519 5.11l3.842-3.58A25.542 25.542 0 0023.635.546a25.57 25.57 0 00-17.462 6.85l3.862 3.56a20.379 20.379 0 0113.6-5.18z" fill="#0078D4"/><path d="M12.771 13.472l2.726 2.505a13.008 13.008 0 018.128-2.837c3.048 0 5.854 1.046 8.077 2.796l2.706-2.524a16.701 16.701 0 00-10.783-3.943 16.646 16.646 0 00-10.854 4.003z" fill="#0078D4"/><path d="M18.243 18.51l1.378 1.268a7.574 7.574 0 017.947-.02l1.367-1.278a9.331 9.331 0 00-5.33-1.66 9.302 9.302 0 00-5.362 1.69z" fill="#50E6FF"/><path d="M23.585 27.284a2.937 2.937 0 100-5.874 2.937 2.937 0 000 5.874zM6.424 41.578H3.638l1.117-19.312h.553l1.116 19.312zM44.94 36.438h-2.787l1.116-19.313h.554l1.116 19.313z" fill="#0078D4"/><path d="M5.036 42.661a2.092 2.092 0 100-4.184 2.092 2.092 0 000 4.184z" fill="#50E6FF"/><path d="M45.18 41.686a1.117 1.117 0 100-2.233 1.117 1.117 0 000 2.233zM41.036 41.686a1.116 1.116 0 100-2.233 1.116 1.116 0 000 2.233zM36.228 41.686a1.116 1.116 0 100-2.233 1.116 1.116 0 000 2.233z" fill="#fff"/></svg>