<svg xmlns="http://www.w3.org/2000/svg" viewBox="0 0 49 49"><path d="M.953 48.27h24v-48h-24v48z" fill="#0078D4"/><path d="M5.98 10.324h5.044V5.297H5.98v5.027zM13.576 10.324h5.044V5.297h-5.044v5.027zM5.98 17.86h5.044v-5.028H5.98v5.027zM13.576 17.86h5.044v-5.028h-5.044v5.027zM5.98 25.422h5.044v-5.027H5.98v5.027zM13.576 25.422h5.044v-5.027h-5.044v5.027zM5.98 33h5.044v-5.027H5.98V33zM13.576 33h5.044v-5.027h-5.044V33zM9.197 48.27H15.2v-7.782H9.197v7.781zM24.953 48.27h24v-48h-24v48z" fill="#50E6FF"/><path d="M31.252 10.324h5.044V5.297h-5.044v5.027zM38.856 10.324H43.9V5.297h-5.044v5.027zM31.252 17.86h5.044v-5.028h-5.044v5.027zM38.856 17.86H43.9v-5.028h-5.044v5.027zM31.252 25.422h5.044v-5.027h-5.044v5.027zM38.856 25.422H43.9v-5.027h-5.044v5.027zM31.252 33h5.044v-5.027h-5.044V33zM38.856 33H43.9v-5.027h-5.044V33zM34.603 48.27h6.004v-7.782h-6.004v7.781z" fill="#0078D4"/></svg>