<svg xmlns="http://www.w3.org/2000/svg" viewBox="0 0 49 49"><path d="M3.767 2.517c0 .824-.674 1.497-1.499 1.497A1.501 1.501 0 01.769 2.517c0-.825.674-1.497 1.499-1.497.825 0 1.499.672 1.499 1.497zM12.457 2.517c0 .824-.673 1.497-1.499 1.497A1.501 1.501 0 019.46 2.517c0-.825.674-1.497 1.5-1.497.825 0 1.498.672 1.498 1.497zM21.156 2.517c0 .824-.674 1.497-1.499 1.497a1.501 1.501 0 01-1.499-1.497c0-.825.674-1.497 1.5-1.497.824 0 1.498.672 1.498 1.497z" fill="#0078D4"/><path d="M29.999 2.517c0 .824-.674 1.497-1.5 1.497a1.501 1.501 0 01-1.498-1.497c0-.825.674-1.497 1.499-1.497.825 0 1.499.672 1.499 1.497z" fill="#50E6FF"/><path d="M21.502 11.162a1.847 1.847 0 01-1.844 1.842 1.847 1.847 0 01-1.845-1.842c0-1.014.83-1.842 1.845-1.842 1.015 0 1.844.828 1.844 1.842z" fill="#0078D4"/><path d="M30.344 11.162a1.847 1.847 0 01-1.844 1.842 1.847 1.847 0 01-1.844-1.842c0-1.014.829-1.842 1.844-1.842 1.015 0 1.844.828 1.844 1.842zM38.993 2.517c0 .824-.674 1.497-1.5 1.497a1.501 1.501 0 01-1.498-1.497c0-.825.673-1.497 1.499-1.497.825 0 1.499.672 1.499 1.497zM47.237 2.517c0 .824-.674 1.497-1.499 1.497a1.501 1.501 0 01-1.499-1.497c0-.825.674-1.497 1.5-1.497.825 0 1.498.672 1.498 1.497z" fill="#50E6FF"/><path d="M3.767 11.161c0 .825-.674 1.497-1.499 1.497a1.501 1.501 0 01-1.499-1.497c0-.824.674-1.497 1.499-1.497.825 0 1.499.673 1.499 1.497zM12.457 11.161c0 .825-.673 1.497-1.499 1.497a1.501 1.501 0 01-1.499-1.497c0-.824.674-1.497 1.5-1.497.825 0 1.498.673 1.498 1.497zM3.767 19.907c0 .825-.674 1.497-1.499 1.497a1.501 1.501 0 01-1.499-1.497c0-.824.674-1.497 1.499-1.497.825 0 1.499.665 1.499 1.497zM3.767 28.403c0 .825-.674 1.498-1.499 1.498a1.501 1.501 0 01-1.499-1.498c0-.824.674-1.497 1.499-1.497.825 0 1.499.665 1.499 1.497z" fill="#0078D4"/><path d="M47.237 28.716c0 .824-.674 1.497-1.499 1.497a1.501 1.501 0 01-1.499-1.497c0-.824.674-1.497 1.5-1.497.825 0 1.498.673 1.498 1.497zM47.237 19.907c0 .825-.674 1.497-1.499 1.497a1.501 1.501 0 01-1.499-1.497c0-.824.674-1.497 1.5-1.497.825 0 1.498.665 1.498 1.497zM47.237 11.161c0 .825-.674 1.497-1.499 1.497a1.501 1.501 0 01-1.499-1.497c0-.824.674-1.497 1.5-1.497.825 0 1.498.673 1.498 1.497zM39.363 11.16a1.88 1.88 0 01-1.878 1.876 1.88 1.88 0 01-1.878-1.875 1.88 1.88 0 011.878-1.876c1.045 0 1.878.843 1.878 1.876z" fill="#50E6FF"/><path d="M21.655 19.91a2 2 0 01-1.998 1.994 2 2 0 01-1.997-1.995 2 2 0 011.997-1.995c1.1 0 1.998.886 1.998 1.995z" fill="#0078D4"/><path d="M30.498 19.91a2 2 0 01-1.998 1.994 2 2 0 01-1.998-1.995 2 2 0 011.998-1.995c1.1 0 1.998.886 1.998 1.995z" fill="#50E6FF"/><path d="M12.956 19.91a2 2 0 01-1.997 1.994A2 2 0 018.96 19.91a2 2 0 011.998-1.995c1.1 0 1.997.886 1.997 1.995zM21.502 28.404a1.847 1.847 0 01-1.844 1.842 1.847 1.847 0 01-1.845-1.841c0-1.015.83-1.843 1.845-1.843a1.84 1.84 0 011.844 1.842zM12.942 28.403c0 1.09-.891 1.98-1.983 1.98a1.986 1.986 0 01-1.983-1.98c0-1.09.89-1.981 1.983-1.981a1.98 1.98 0 011.983 1.98zM3.767 36.95c0 .825-.674 1.497-1.499 1.497A1.501 1.501 0 01.769 36.95c0-.824.674-1.497 1.499-1.497.825 0 1.499.673 1.499 1.497zM12.457 36.95c0 .825-.673 1.497-1.499 1.497A1.501 1.501 0 019.46 36.95c0-.824.674-1.497 1.5-1.497.825 0 1.498.673 1.498 1.497z" fill="#0078D4"/><path d="M39.483 19.91a2 2 0 01-1.997 1.994 2 2 0 01-1.998-1.995 2 2 0 011.998-1.995c1.11 0 1.997.886 1.997 1.995z" fill="#50E6FF"/><path d="M40.416 25.46H27.675v22.702h12.741V25.46zM27.674 32.895h-9.987V48.16h9.987V32.895z" fill="#0078D4"/><path d="M48.02 38.043H37.94v10.11h10.08v-10.11zM12.525 42.434h-.758l-.893 4.97h1.356a1.019 1.019 0 011.027-.992c.564 0 1.01.437 1.028.992h.707v-2.506h.017a2.5 2.5 0 00-2.484-2.464zm.252 2.052v-1.228c.775 0 1.398.547 1.398 1.228h-1.398z" fill="#0078D4"/><path d="M11.767 41.195H2.815v6.2h.716a1.018 1.018 0 011.028-.96c.547 0 .993.42 1.027.96l6.181.008v-6.208zM13.25 46.672a.79.79 0 00-.793.79c0 .446.346.791.792.791a.78.78 0 00.792-.79.79.79 0 00-.792-.791z" fill="#0078D4"/><path d="M4.558 46.688a.79.79 0 00-.791.79c0 .446.345.79.791.79a.78.78 0 00.792-.79.796.796 0 00-.792-.79z" fill="#0078D4"/><path d="M37.949 28.957h-7.605v2.506h7.605v-2.506zM37.949 35.57h-7.605v2.507h7.605V35.57zM37.949 43.273h-7.605v2.507h7.605v-2.507zM27.826 35.57h-7.604v2.507h7.604V35.57zM27.826 43.273h-7.604v2.507h7.604v-2.507z" fill="#50E6FF"/></svg>