<svg xmlns="http://www.w3.org/2000/svg" viewBox="0 0 49 49"><path d="M.02 48.27h23.995v-48H.02v48z" fill="#0078D4"/><path d="M24.015 48.27H48.01V24.266H24.015V48.27zM5.04 10.335h5.053V5.28H5.04v5.054zm7.58 0h5.053V5.28H12.62v5.054zm-7.58 7.562h5.053v-5.053H5.04v5.053zm7.58 0h5.053v-5.053H12.62v5.053zm-7.58 7.531h5.053v-5.053H5.04v5.053zm7.58 0h5.053v-5.053H12.62v5.053zm-7.58 7.614h5.053v-5.054H5.04v5.054zm7.58 0h5.053v-5.054H12.62v5.054z" fill="#50E6FF"/><path d="M30.264 32.948h5.054v-5.053h-5.054v5.053zm7.581 0h5.053v-5.053h-5.053v5.053zm5.6-18.977h-.033c.168-.413.26-.86.26-1.322a3.533 3.533 0 00-3.528-3.53c-.413 0-.809.076-1.18.203a5.283 5.283 0 00-4.118-1.963 5.295 5.295 0 00-5.13 6.612 1.978 1.978 0 00-1.928 1.98c0 1.094.893 1.987 1.988 1.987h13.678a1.991 1.991 0 001.987-1.988 2.002 2.002 0 00-1.996-1.979zm-3.056 26.525H32.79v7.766h7.598v-7.766z" fill="#0078D4"/><path d="M14.995 40.496H7.398v7.766h7.597v-7.766z" fill="#50E6FF"/></svg>