<svg xmlns="http://www.w3.org/2000/svg" viewBox="0 0 49 49"><path d="M4.236 2.52c0 .825-.674 1.5-1.5 1.5s-1.5-.675-1.5-1.5c0-.826.674-1.5 1.5-1.5s1.5.674 1.5 1.5zm8.696 0c0 .825-.674 1.5-1.5 1.5s-1.5-.675-1.5-1.5c0-.826.674-1.5 1.5-1.5s1.5.674 1.5 1.5zm8.705 0c0 .825-.674 1.5-1.5 1.5s-1.5-.675-1.5-1.5c0-.826.674-1.5 1.5-1.5s1.5.674 1.5 1.5z" fill="#0078D4"/><path d="M30.486 2.52c0 .825-.674 1.5-1.5 1.5s-1.5-.675-1.5-1.5c0-.826.674-1.5 1.5-1.5s1.5.674 1.5 1.5z" fill="#50E6FF"/><path d="M22.258 11.182c0 1.168-.953 2.12-2.12 2.12a2.125 2.125 0 01-2.12-2.12c0-1.167.952-2.12 2.12-2.12 1.167 0 2.12.953 2.12 2.12z" fill="#0078D4"/><path d="M31.106 11.182c0 1.168-.953 2.12-2.12 2.12a2.125 2.125 0 01-2.12-2.12c0-1.167.953-2.12 2.12-2.12 1.167 0 2.12.953 2.12 2.12zm8.38-8.662c0 .825-.674 1.5-1.5 1.5-.825 0-1.5-.675-1.5-1.5 0-.826.675-1.5 1.5-1.5.826 0 1.5.674 1.5 1.5zm8.25 0c0 .825-.674 1.5-1.5 1.5-.825 0-1.5-.675-1.5-1.5 0-.826.675-1.5 1.5-1.5.826 0 1.5.674 1.5 1.5z" fill="#50E6FF"/><path d="M4.236 11.184c0 .825-.674 1.5-1.5 1.5s-1.5-.675-1.5-1.5c0-.826.674-1.5 1.5-1.5s1.5.674 1.5 1.5zm8.696 0c0 .825-.674 1.5-1.5 1.5s-1.5-.675-1.5-1.5c0-.826.674-1.5 1.5-1.5s1.5.674 1.5 1.5zm-8.696 8.761c0 .826-.674 1.5-1.5 1.5s-1.5-.674-1.5-1.5.674-1.5 1.5-1.5 1.5.666 1.5 1.5zm0 8.512c0 .826-.674 1.5-1.5 1.5s-1.5-.674-1.5-1.5.674-1.5 1.5-1.5 1.5.666 1.5 1.5z" fill="#0078D4"/><path d="M47.736 28.77c0 .825-.674 1.5-1.5 1.5-.825 0-1.5-.675-1.5-1.5 0-.826.675-1.5 1.5-1.5.826 0 1.5.674 1.5 1.5zm0-8.825c0 .826-.674 1.5-1.5 1.5-.825 0-1.5-.674-1.5-1.5s.675-1.5 1.5-1.5c.826 0 1.5.666 1.5 1.5zm0-8.761c0 .825-.674 1.5-1.5 1.5-.825 0-1.5-.675-1.5-1.5 0-.826.675-1.5 1.5-1.5.826 0 1.5.674 1.5 1.5zm-8.259 0c0 .825-.674 1.5-1.5 1.5s-1.5-.675-1.5-1.5c0-.826.674-1.5 1.5-1.5.834 0 1.5.674 1.5 1.5z" fill="#50E6FF"/><path d="M22.258 19.948c0 1.167-.953 2.12-2.12 2.12a2.125 2.125 0 01-2.12-2.12c0-1.167.952-2.12 2.12-2.12 1.167 0 2.12.941 2.12 2.12z" fill="#0078D4"/><path d="M31.106 19.948c0 1.167-.953 2.12-2.12 2.12a2.125 2.125 0 01-2.12-2.12c0-1.167.953-2.12 2.12-2.12 1.167 0 2.12.941 2.12 2.12z" fill="#50E6FF"/><path d="M12.932 19.945c0 .826-.674 1.5-1.5 1.5s-1.5-.674-1.5-1.5.674-1.5 1.5-1.5 1.5.666 1.5 1.5z" fill="#0078D4"/><path d="M39.477 19.945c0 .826-.674 1.5-1.5 1.5s-1.5-.674-1.5-1.5.674-1.5 1.5-1.5c.834 0 1.5.666 1.5 1.5zm-8.371 8.823c0 1.168-.953 2.12-2.12 2.12a2.125 2.125 0 01-2.12-2.12c0-1.167.953-2.12 2.12-2.12 1.167 0 2.12.953 2.12 2.12zm8.371.002c0 .825-.674 1.5-1.5 1.5s-1.5-.675-1.5-1.5c0-.826.674-1.5 1.5-1.5.834 0 1.5.674 1.5 1.5z" fill="#50E6FF"/><path d="M23.264 22.996h-12.75v25.256h12.75V22.996zm-12.75 9.961H.52v15.295h9.994V32.957z" fill="#0078D4"/><path d="M28.523 38.113h-7.736v10.13h7.736v-10.13z" fill="#0078D4"/><path d="M20.786 25.508h-7.61v2.511h7.61v-2.511zm0 10.129h-7.61v2.511h7.61v-2.511zm0 7.718h-7.61v2.512h7.61v-2.511zm-10.12-7.718h-7.61v2.511h7.61v-2.511zm0 7.718h-7.61v2.512h7.61v-2.511zm28.222-11.274a7.24 7.24 0 00-4.896 2.663 7.276 7.276 0 00-1.585 5.351 7.24 7.24 0 002.663 4.896 7.266 7.266 0 005.343 1.585 7.278 7.278 0 004.904-2.663 7.266 7.266 0 001.585-5.343c-.211-2.023-1.24-3.75-2.714-4.938a7.125 7.125 0 00-4.517-1.593 8.28 8.28 0 00-.783.042z" fill="#50E6FF"/><path d="M36.654 37.382l-1.77-1.433a5.848 5.848 0 00-1.053 3.59l2.267-.236c0-.666.186-1.331.556-1.921zm4.956-1.122l1.432-1.769a5.85 5.85 0 00-3.598-1.045l.236 2.267a3.532 3.532 0 011.93.548zm-2.714-.462l-.236-2.267a5.91 5.91 0 00-3.286 1.795l1.77 1.433a3.65 3.65 0 011.752-.96zm-2.714 4.296l-2.267.236a5.882 5.882 0 001.796 3.286l1.432-1.77a3.613 3.613 0 01-.96-1.752z" fill="#0078D4"/><path d="M48.385 38.41c-.253-2.436-1.5-4.526-3.253-5.942a8.821 8.821 0 00-1.087-.741l-.69 1.323c.294.177.572.362.833.573 1.475 1.196 2.503 2.915 2.714 4.938a7.287 7.287 0 01-1.584 5.351 7.278 7.278 0 01-8.68 2.048l-.691 1.323a8.707 8.707 0 004.618.775 8.772 8.772 0 005.907-3.21 8.75 8.75 0 001.913-6.439z" fill="#0078D4"/><path d="M35.07 44.993a7.259 7.259 0 01-2.663-4.896 7.25 7.25 0 011.584-5.35 7.259 7.259 0 014.897-2.664 7.234 7.234 0 014.457.97l.691-1.324a8.702 8.702 0 00-5.3-1.129 8.796 8.796 0 00-5.907 3.202 8.78 8.78 0 001.306 12.346 9 9 0 001.82 1.129l.69-1.323a7.171 7.171 0 01-1.575-.96z" fill="#A0A1A2"/><path d="M35.07 44.993a7.259 7.259 0 01-2.663-4.896 7.25 7.25 0 011.584-5.35 7.259 7.259 0 014.897-2.664 7.234 7.234 0 014.457.97l.691-1.324a8.702 8.702 0 00-5.3-1.129 8.796 8.796 0 00-5.907 3.202 8.78 8.78 0 001.306 12.346 9 9 0 001.82 1.129l.69-1.323a7.171 7.171 0 01-1.575-.96zm8.596-10.005l-1.433 1.77c.354.354.615.767.792 1.205h2.377a5.765 5.765 0 00-1.736-2.975z" fill="#0078D4"/><path d="M38.98 40.046a1.025 1.025 0 01.725-1.753c.261 0 .522.084.725.287h5.25a.745.745 0 11.008 1.492h-5.3c-.194.168-.43.269-.675.269-.27 0-.53-.101-.733-.295z" fill="#0078D4"/><path d="M45.671 38.58h-5.25a1.004 1.004 0 00-.724-.287c-.262 0-.531.101-.734.303a1.013 1.013 0 00-.294.725h7.744a.743.743 0 00-.742-.741z" fill="#0078D4"/></svg>