<svg xmlns="http://www.w3.org/2000/svg" viewBox="0 0 49 49"><path d="M6.067 48.252h21.8V12.82h-21.8v35.432z" fill="#0078D4"/><path d="M27.044 48.253H48.02V20.355H27.043v27.898z" fill="#0078D4"/><path d="M.02 5.295h10.1V.27H.02v5.025z" fill="#50E6FF"/><path d="M2.703 48.252h4.92V4.016h-4.92v44.236zm36.469.018v-7.551h-5.064v7.55h5.064zm-20.186 0v-7.551h-5.064v7.55h5.064zm-8.857-25.29h5.03v-5.035h-5.03v5.034zm7.569 0h5.03v-5.035h-5.03v5.034zm-7.569 7.491h5.03v-5.034h-5.03v5.034zm7.569 0h5.03v-5.034h-5.03v5.034zM10.13 38.05h5.029v-5.034h-5.03v5.034zm7.569 0h5.03v-5.034h-5.03v5.034zm12.615-7.579h5.03v-5.034h-5.03v5.034zm0 7.579h5.03v-5.034h-5.03v5.034zm7.571-7.579h5.03v-5.034h-5.03v5.034zm0 7.579h5.03v-5.034h-5.03v5.034zm3.086-27.1a4.52 4.52 0 01-4.516 4.52 4.52 4.52 0 01-4.517-4.52c0-2.5 2.018-4.52 4.517-4.52a4.52 4.52 0 014.516 4.52z" fill="#50E6FF"/><path d="M43.79 15.47H32.131a1.691 1.691 0 010-3.384h11.666a1.691 1.691 0 11-.009 3.384z" fill="#50E6FF"/><path d="M43.982 10.951a3.01 3.01 0 01-3.011 3.014 3.01 3.01 0 01-3.011-3.014 3.01 3.01 0 013.011-3.014 3.01 3.01 0 013.011 3.014z" fill="#50E6FF"/></svg>