<svg xmlns="http://www.w3.org/2000/svg" viewBox="0 0 65 65"><path fill="#5bb4da" d="M8.57 28.53h3.97v3.97H8.57zM8.57 34.48h3.97v3.97H8.57zM8.57 26.55h4V23a22.33 22.33 0 00-4 2.61zM14.52 46.51h3.97v3.97h-3.97zM14.52 52.46h3.97v3.97h-3.97zM14.52 58.53h3.97v3.97h-3.97zM14.52 40.56h3.97v3.97h-3.97zM2.5 34.48h3.97v3.97H2.5zM8.57 52.46h3.97v3.97H8.57zM2.5 46.51h3.97v3.97H2.5zM2.5 40.56h3.97v3.97H2.5zM8.57 59.4a27.36 27.36 0 004 2.6v-3.59h-4zM3 32.5h3.59v-4h-1a13.62 13.62 0 00-2.59 4zM8.57 46.51h3.97v3.97H8.57zM38.45 56.43h1a28.29 28.29 0 002.61-4h-3.6zM14.52 34.48h3.97v3.97h-3.97zM32.5 52.46h3.97v3.97H32.5z"/><path fill="#7fbb42" d="M41.55 2.5a21 21 0 00-20.95 21v21h20.95a21 21 0 100-41.9z"/><path fill="#7682a7a" d="M30.52 20.48h3.97V32.5h-3.97zM38.45 24.44h3.97v8.06h-3.97zM46.51 16.51h3.97V32.5h-3.97z"/><path fill="#5bb4da" d="M32.5 62a21.75 21.75 0 004-2.6v-1h-4zM38.45 46.51h3.97v3.97h-3.97zM32.5 46.51h3.97v3.97H32.5zM20.48 52.46h3.97v3.97h-3.97zM14.53 26.55h3.96v-4.09h-3.96v4.09zM26.55 52.46h3.97v3.97h-3.97zM26.55 58.53h3.97v3.97h-3.97zM20.48 46.51h3.97v3.97h-3.97z"/></svg>