<svg xmlns="http://www.w3.org/2000/svg" viewBox="0 0 48 49"><path d="M42.747 13.325H5.222c-2.72 0-4.903-2.183-4.903-4.874a4.887 4.887 0 014.904-4.903h37.554a4.906 4.906 0 014.904 4.903 4.926 4.926 0 01-4.934 4.874z" fill="#50E6FF"/><path d="M26.81 13.325h-5.8a4.907 4.907 0 01-4.904-4.903 4.907 4.907 0 014.904-4.904h5.8a4.906 4.906 0 014.904 4.904c-.03 2.72-2.212 4.903-4.903 4.903z" fill="#0078D4"/><path d="M42.747 29.142H5.222A4.887 4.887 0 01.32 24.24a4.906 4.906 0 014.904-4.904h37.554a4.906 4.906 0 014.904 4.904 4.932 4.932 0 01-4.934 4.903z" fill="#50E6FF"/><path d="M11.173 29.142h-5.95A4.887 4.887 0 01.319 24.24a4.906 4.906 0 014.904-4.904h5.95a4.906 4.906 0 014.903 4.904c-.03 2.72-2.212 4.903-4.903 4.903z" fill="#0078D4"/><path d="M5.223 35.003h37.554a4.907 4.907 0 014.904 4.904 4.906 4.906 0 01-4.904 4.903H5.222A4.906 4.906 0 01.32 39.907a4.888 4.888 0 014.904-4.904z" fill="#50E6FF"/><path d="M36.797 35.003h5.95a4.907 4.907 0 014.904 4.904 4.906 4.906 0 01-4.903 4.903h-5.95a4.906 4.906 0 01-4.904-4.903c.03-2.721 2.212-4.904 4.904-4.904z" fill="#0078D4"/></svg>