<svg xmlns="http://www.w3.org/2000/svg" viewBox="0 0 49 48"><path d="M42.289 47.95H6.988V0h24.387l2.206 7.124 8.708 3.823V47.95z" fill="#0078D4"/><path d="M42.29 10.914H31.374V0L42.29 10.914z" fill="#50E6FF"/><path d="M34.651 18.081c0-.8-.648-1.448-1.448-1.448H15.914a1.448 1.448 0 100 2.897h17.289c.8 0 1.448-.649 1.448-1.449z" fill="#fff"/><path d="M25.935 18.08a2.879 2.879 0 002.88 2.88 2.879 2.879 0 002.88-2.88 2.879 2.879 0 00-2.88-2.88 2.873 2.873 0 00-2.88 2.88z" fill="#50E6FF"/><path d="M34.651 26.613c0-.8-.648-1.449-1.448-1.449H15.914a1.448 1.448 0 100 2.897h17.289c.8 0 1.448-.648 1.448-1.448z" fill="#fff"/><path d="M17.354 26.603a2.879 2.879 0 002.88 2.88 2.879 2.879 0 002.88-2.88 2.879 2.879 0 00-2.88-2.88 2.879 2.879 0 00-2.88 2.88z" fill="#50E6FF"/><path d="M34.651 35.308c0-.8-.648-1.449-1.448-1.449H15.914a1.448 1.448 0 100 2.897h17.289a1.46 1.46 0 001.448-1.448z" fill="#fff"/><path d="M23.08 35.302a2.879 2.879 0 002.88 2.88 2.879 2.879 0 002.88-2.88 2.879 2.879 0 10-5.76 0z" fill="#50E6FF"/></svg>