<svg xmlns="http://www.w3.org/2000/svg" viewBox="0 0 49 49"><path d="M48.45 7H.55v35.2h47.9V7z" fill="#0078D4"/><path d="M38.45 15.6c0-.7-.6-1.3-1.3-1.3h-25.2c-.7 0-1.3.6-1.3 1.3 0 .7.6 1.3 1.3 1.3h25.2c.7 0 1.3-.6 1.3-1.3z" fill="#50E6FF"/><path d="M30.85 15.602c0 1.4 1.1 2.5 2.5 2.5s2.5-1.1 2.5-2.5-1.1-2.5-2.5-2.5-2.5 1.1-2.5 2.5z" fill="#fff"/><path d="M38.45 24.5c0-.7-.6-1.3-1.3-1.3h-25.2c-.7 0-1.3.6-1.3 1.3 0 .7.6 1.3 1.3 1.3h25.2c.7-.1 1.3-.6 1.3-1.3z" fill="#50E6FF"/><path d="M21.95 24.498c0 1.4 1.1 2.5 2.5 2.5s2.5-1.1 2.5-2.5-1.1-2.5-2.5-2.5c-1.3-.1-2.5 1.1-2.5 2.5z" fill="#fff"/><path d="M38.45 33.3c0-.7-.6-1.3-1.3-1.3h-25.2c-.7 0-1.3.6-1.3 1.3 0 .7.6 1.3 1.3 1.3h25.2c.7 0 1.3-.6 1.3-1.3z" fill="#50E6FF"/><path d="M13.25 33.3c0 1.4 1.1 2.5 2.5 2.5s2.5-1.1 2.5-2.5-1.1-2.5-2.5-2.5-2.5 1.1-2.5 2.5z" fill="#fff"/></svg>