<svg xmlns="http://www.w3.org/2000/svg" viewBox="0 0 48 49"><path d="M33.506 48.392h-19.35a2.999 2.999 0 01-2.999-2.998V3.39A2.999 2.999 0 0114.155.393h19.35a3 3 0 013 2.998v41.994a3 3 0 01-3 3.007z" fill="#0078D4"/><path d="M25.288 43.138c0 .71-.583 1.292-1.292 1.292a1.292 1.292 0 111.292-1.292zm-10.263-4.771h5.102V28.291h-5.102v10.076z" fill="#fff"/><path d="M21.352 38.366h5.101V18.154h-5.101v20.212zm6.419.001h5.102v-27.78H27.77v27.78z" fill="#50E6FF"/><path d="M26.461 6.12h-5.093a.638.638 0 01-.633-.633c0-.346.287-.633.633-.633h5.085c.346 0 .633.287.633.633a.63.63 0 01-.625.633z" fill="#fff"/></svg>