<svg xmlns="http://www.w3.org/2000/svg" viewBox="0 0 48 48"><path d="M12.187 4.933c0-.631-.513-1.153-1.154-1.153h-.673L9.686.766H3.344L2.66 3.788h-.69c-.632 0-1.154.514-1.154 1.154v9.068c0 .631.514 1.153 1.154 1.153h.69l.683 3.115h6.342l.682-3.115h.69c.304 0 .607-.126.818-.345.21-.219.32-.497.311-.8V4.933zM47.015 10.559H28.089a.64.64 0 00-.64.64V47.2c0 .353.287.64.64.64h18.926a.64.64 0 00.64-.64V11.19a.65.65 0 00-.64-.632z" fill="#0078D4"/><path d="M23.55 41.836h-4.936v1.684h4.935v-1.684zM14.992 41.836h-4.178v1.684h4.178v-1.684zM7.117 43.521H4.169v-2.947h1.684v1.263h1.264v1.684zM43.502 7.156h-1.684V5.893h-1.264V4.209h2.948v2.947zM5.853 20.678H4.17v2.669h1.684v-2.67zM5.853 33.477H4.17v4.176h1.684v-4.176zM5.853 25.957H4.17v4.176h1.684v-4.176zM37.21 4.209h-4.177v1.684h4.178V4.209zM14.049 4.512v1.38h1.642V4.21h-1.66c.01.101.018.202.018.303zM22.168 4.209H17.99v1.684h4.178V4.209zM29.69 4.209h-4.178v1.684h4.177V4.209zM10.157 13.546H2.872a.467.467 0 01-.463-.463V5.834c0-.252.21-.463.463-.463h7.269c.252 0 .463.21.463.463V13.1c0 .261-.21.447-.447.447zM35.324 45.76h4.456v-1.55h-4.456v1.55zM38.331 13.353a.709.709 0 01-.724.724.709.709 0 01-.725-.724c0-.413.312-.724.725-.724.412 0 .724.303.724.724zM28.898 42.24h17.3V16.149h-17.3v26.093z" fill="#50E6FF"/></svg>