<svg xmlns="http://www.w3.org/2000/svg" viewBox="0 0 49 49"><path d="M47.034 11.46H28.11a.64.64 0 00-.64.64v36.003c0 .354.286.64.64.64h18.925a.64.64 0 00.64-.64v-36.01a.65.65 0 00-.64-.632zM23.57 42.738h-4.936v1.684h4.935v-1.684zM15.012 42.738h-4.178v1.684h4.178v-1.684zM7.136 44.423H4.188v-2.946h1.685v1.263h1.263v1.683zM43.522 8.06h-1.684V6.797h-1.264V5.113h2.948V8.06zM5.873 21.582H4.188v2.669h1.685v-2.669zM5.873 34.379H4.188v4.176h1.685v-4.176zM5.873 26.86H4.188v4.175h1.685V26.86zM37.23 5.113h-4.177v1.684h4.177V5.113zM22.188 5.113h-4.177v1.684h4.177V5.113zM29.709 5.113H25.53v1.684h4.178V5.113z" fill="#0078D4"/><path d="M35.344 46.663h4.455v-1.55h-4.455v1.55zM38.35 14.255a.709.709 0 01-.724.724.709.709 0 01-.724-.724c0-.412.312-.724.724-.724.413 0 .724.303.724.724zM28.918 43.143h17.3V17.051h-17.3v26.092z" fill="#50E6FF"/><path d="M16.561 7.329V6.015h-1.81v-2.23h-2.072V1.956h-1.323v1.827H9.444V1.957H8.122v1.827h-1.92V1.957H4.888v1.827H2.715v2.231H.895V7.33h1.82v1.92H.895v1.313h1.82v1.911H.895v1.313h1.82v2.004h2.173v1.928H6.21V15.79h1.92v1.928h1.323V15.79h1.912v1.928h1.322V15.79h2.072v-2.003h1.81v-1.314h-1.81v-1.911h1.81V9.248h-1.81v-1.92h1.802z" fill="#0078D4"/><path d="M12.704 5.816H4.76v7.932h7.943V5.816z" fill="#50E6FF"/></svg>