<svg xmlns="http://www.w3.org/2000/svg" viewBox="0 0 48 49"><path d="M12.187 5.326c0-.631-.513-1.153-1.154-1.153h-.673l-.674-3.015H3.344L2.66 4.181h-.69c-.632 0-1.154.514-1.154 1.154v9.067c0 .632.514 1.154 1.154 1.154h.69l.683 3.115h6.342l.682-3.115h.69c.304 0 .607-.126.818-.345.21-.22.32-.497.311-.8V5.326zm34.827 5.625H28.09a.64.64 0 00-.64.64v36.002c0 .354.286.64.64.64h18.925a.64.64 0 00.64-.64v-36.01a.65.65 0 00-.64-.632z" fill="#0078D4"/><path d="M23.55 42.229h-4.936v1.684h4.935v-1.684zm-8.558 0h-4.178v1.684h4.178v-1.684zm-7.875 1.685H4.169v-2.947h1.684v1.263h1.264v1.684zM43.502 7.55h-1.684V6.288h-1.264V4.604h2.948V7.55zM5.853 21.072H4.17v2.67h1.684v-2.67zm0 12.798H4.17v4.175h1.684V33.87zm0-7.52H4.17v4.176h1.684V26.35zM37.21 4.604h-4.177v1.684h4.178V4.604zm-23.162.303v1.38h1.643V4.605h-1.66c.009.1.017.202.017.303zm8.12-.303H17.99v1.684h4.178V4.604zm7.522 0h-4.178v1.684h4.177V4.604zM10.157 13.94H2.872a.467.467 0 01-.463-.464V6.227c0-.253.21-.463.463-.463h7.269c.252 0 .463.21.463.463v7.266c0 .261-.21.446-.447.446zm25.167 32.213h4.456v-1.55h-4.456v1.55zm3.007-32.407a.709.709 0 01-.724.724.709.709 0 01-.725-.724c0-.413.312-.724.725-.724.412 0 .724.303.724.724zm-9.434 28.887h17.3V16.541h-17.3v26.092z" fill="#50E6FF"/></svg>