<svg xmlns="http://www.w3.org/2000/svg" viewBox="0 0 48 49"><path d="M33.506 48.393h-19.35a3 3 0 01-2.999-2.999V3.391A3 3 0 0114.156.393h19.35a2.999 2.999 0 012.998 2.998v41.995a3 3 0 01-2.998 3.007z" fill="#0078D4"/><path d="M25.289 43.138c0 .71-.583 1.292-1.292 1.292-.71 0-1.293-.583-1.293-1.292a1.292 1.292 0 112.585 0zM26.462 6.12H21.37a.638.638 0 01-.633-.633c0-.346.287-.633.633-.633h5.085c.346 0 .633.287.633.633a.63.63 0 01-.625.633z" fill="#50E6FF"/><path d="M20.01 15.565a2.5 2.5 0 11-2.5-2.5c1.384 0 2.5 1.114 2.5 2.5z" fill="#fff"/><path d="M26.48 15.565a2.5 2.5 0 11-5 0 2.5 2.5 0 015 0zm6.283 0a2.5 2.5 0 11-5 0 2.5 2.5 0 015 0z" fill="#50E6FF"/><path d="M20.01 22.064a2.5 2.5 0 11-2.5-2.5c1.384 0 2.5 1.115 2.5 2.5zm6.47 0a2.5 2.5 0 11-5 .001 2.5 2.5 0 015 0z" fill="#fff"/><path d="M32.763 22.064a2.5 2.5 0 11-5 .001 2.5 2.5 0 015 0zm-12.753 6.25a2.5 2.5 0 11-2.5-2.5c1.384 0 2.5 1.115 2.5 2.5z" fill="#50E6FF"/><path d="M26.48 28.314a2.5 2.5 0 11-5 .001 2.5 2.5 0 015 0z" fill="#fff"/><path d="M26.48 34.986a2.5 2.5 0 11-5 0 2.5 2.5 0 015 0zm6.283-6.672a2.5 2.5 0 11-5 .001 2.5 2.5 0 015 0z" fill="#50E6FF"/></svg>