<svg xmlns="http://www.w3.org/2000/svg" viewBox="0 0 49 49"><path d="M33.526 48.902h-19.35a2.999 2.999 0 01-3-2.998V3.9a2.999 2.999 0 013-2.999h19.35a2.999 2.999 0 012.998 2.999v41.994a3 3 0 01-2.998 3.007z" fill="#0078D4"/><path d="M25.308 43.648c0 .71-.583 1.292-1.292 1.292a1.292 1.292 0 111.292-1.292zM26.481 6.63h-5.093a.638.638 0 01-.633-.633c0-.347.287-.634.633-.634h5.085c.346 0 .634.287.634.634a.63.63 0 01-.626.633z" fill="#50E6FF"/><path d="M20.029 16.074a2.5 2.5 0 11-2.5-2.5c1.385 0 2.5 1.115 2.5 2.5z" fill="#fff"/><path d="M26.5 16.074a2.5 2.5 0 11-5 0 2.5 2.5 0 015 0zM32.782 16.074a2.5 2.5 0 11-5 0 2.5 2.5 0 015 0z" fill="#50E6FF"/><path d="M20.029 22.574a2.5 2.5 0 11-2.5-2.5c1.385 0 2.5 1.115 2.5 2.5zM26.5 22.574a2.5 2.5 0 11-5 0 2.5 2.5 0 015 0z" fill="#fff"/><path d="M32.782 22.574a2.5 2.5 0 11-5 0 2.5 2.5 0 015 0zM20.029 28.824a2.5 2.5 0 11-2.5-2.5c1.385 0 2.5 1.115 2.5 2.5z" fill="#50E6FF"/><path d="M26.5 28.824a2.5 2.5 0 11-5 0 2.5 2.5 0 015 0z" fill="#fff"/><path d="M26.5 35.496a2.5 2.5 0 11-5 0 2.5 2.5 0 015 0zM32.782 28.824a2.5 2.5 0 11-5 0 2.5 2.5 0 015 0z" fill="#50E6FF"/></svg>