<svg xmlns="http://www.w3.org/2000/svg" viewBox="0 0 24 23"><path fill="#1B348E" d="M6.763 9.008a.72.72 0 01.526.223.72.72 0 01.222.526.72.72 0 01-.222.527.72.72 0 01-.526.222.72.72 0 01-.527-.222.72.72 0 01-.222-.527.72.72 0 01.222-.526.72.72 0 01.527-.223zm12.893-3.79c.655.304 1.25.692 1.784 1.164a7.519 7.519 0 012.24 3.51c.204.682.305 1.386.305 2.111 0 .617-.07 1.217-.21 1.802a8.48 8.48 0 01-.597 1.685 8.294 8.294 0 01-.942 1.521 9.72 9.72 0 01-1.246 1.322v1.907a2.254 2.254 0 01-.655 1.591 2.254 2.254 0 01-1.592.656h-1.497a2.26 2.26 0 01-1.299-.41 2.265 2.265 0 01-.491-.474 2.16 2.16 0 01-.328-.614h-3.252a2.16 2.16 0 01-.328.614c-.14.184-.304.342-.492.474a2.26 2.26 0 01-1.299.41H8.26a2.254 2.254 0 01-1.591-.655 2.254 2.254 0 01-.655-1.592v-.936a6.112 6.112 0 01-1.504-.62 5.91 5.91 0 01-1.27-.983 6.307 6.307 0 01-.964-1.275 5.504 5.504 0 01-.591-1.51 2.058 2.058 0 01-.679-.303 2.256 2.256 0 01-.86-1.135 2.18 2.18 0 01-.123-.726v-1.497a2.26 2.26 0 01.515-1.433c.164-.2.357-.367.58-.504.222-.136.465-.228.73-.275a18.98 18.98 0 011.896-2.27 14.776 14.776 0 012.27-1.895V.69l4.668 2.328h1.44c.108-.437.284-.839.526-1.205A3.942 3.942 0 0114.637.245a3.82 3.82 0 011.298-.222c.539 0 1.048.103 1.527.31.48.206.897.487 1.252.842s.636.772.843 1.252c.206.48.31.989.31 1.527 0 .437-.07.858-.211 1.263zm-3.72-3.698c-.336 0-.652.065-.948.193a2.472 2.472 0 00-.772.52 2.472 2.472 0 00-.521.773 2.354 2.354 0 00-.193.948c0 .273.039.526.117.76l4.001.995a2.44 2.44 0 00.55-.802c.133-.308.199-.626.199-.953a2.35 2.35 0 00-.193-.948 2.472 2.472 0 00-.52-.772 2.472 2.472 0 00-.773-.52 2.354 2.354 0 00-.948-.194zm3.556 16.123c.445-.359.85-.745 1.217-1.158.367-.414.683-.855.948-1.323a6.262 6.262 0 00.83-3.159c0-.592-.085-1.168-.257-1.725a6.062 6.062 0 00-.725-1.55 6.067 6.067 0 00-2.598-2.212 3.421 3.421 0 01-.439.45c-.16.137-.33.26-.509.37L12.554 5.99a11.42 11.42 0 01-.316-.714 3.296 3.296 0 01-.199-.76h-1.708L7.511 3.11v2.551c-.546.367-1.037.723-1.474 1.07-.437.348-.842.71-1.217 1.089a15.76 15.76 0 00-1.082 1.216c-.347.433-.704.923-1.07 1.469-.133 0-.268.006-.404.017a1.19 1.19 0 00-.369.088.62.62 0 00-.269.222c-.07.102-.105.242-.105.422v1.497a.72.72 0 00.222.527.72.72 0 00.527.222h.749c0 .624.117 1.207.35 1.75a4.547 4.547 0 002.393 2.392 4.366 4.366 0 001.75.35v2.247a.72.72 0 00.222.527.72.72 0 00.526.222h1.498a.72.72 0 00.526-.222.72.72 0 00.223-.527v-.749h5.99c0 .14-.002.299-.006.474-.004.176.014.34.053.492a.787.787 0 00.216.38c.106.101.267.152.486.152h1.497a.72.72 0 00.527-.222.72.72 0 00.222-.527v-2.597z"/></svg>