<svg xmlns="http://www.w3.org/2000/svg" viewBox="0 0 48 49"><path d="M0 48.328h23.996v-48H0v48z" fill="#0078D4"/><path d="M23.995 48.329h23.996V24.325H23.995v24.004zM5.02 10.394h5.053V5.34H5.02v5.054zm7.58 0h5.054V5.34h-5.053v5.054zm-7.58 7.562h5.053v-5.053H5.02v5.053zm7.58 0h5.054v-5.053h-5.053v5.053zm-7.58 7.532h5.053v-5.054H5.02v5.054zm7.58 0h5.054v-5.054h-5.053v5.054zM5.02 33.1h5.053v-5.053H5.02v5.054zm7.58 0h5.054v-5.053h-5.053v5.054z" fill="#50E6FF"/><path d="M30.245 33.007H35.3v-5.053h-5.054v5.053zm7.58 0h5.054v-5.053h-5.054v5.053z" fill="#0078D4"/><path d="M43.426 14.03h-.034c.169-.413.261-.859.261-1.322a3.533 3.533 0 00-3.529-3.53c-.412 0-.808.077-1.179.203a5.283 5.283 0 00-4.118-1.963 5.295 5.295 0 00-5.13 6.612 1.978 1.978 0 00-1.928 1.98 1.99 1.99 0 001.987 1.987h13.678a1.991 1.991 0 001.988-1.988 2.002 2.002 0 00-1.996-1.979z" fill="#50E6FF"/><path d="M40.368 40.555h-7.596v7.765h7.596v-7.765z" fill="#0078D4"/><path d="M14.975 40.555H7.378v7.765h7.597v-7.765z" fill="#50E6FF"/></svg>