<svg xmlns="http://www.w3.org/2000/svg" viewBox="0 0 48 48"><path d="M43.108 13.292c0 .988-.107 1.958-.314 2.883 2.971.617 5.215 3.273 5.206 6.465 0 3.645-2.917 6.591-6.525 6.591H6.525C2.917 29.231 0 26.285 0 22.64s2.917-6.592 6.525-6.592h.74a8 8 0 0111.21-9.257C20.724 2.737 25.019 0 29.95 0c7.27 0 13.157 5.948 13.157 13.292z" fill="#0078D4"/><path d="M30.547 16.994c1.475.993 3.31 2.23 5.453 2.824v3.044h-.01l.001 2.501c.004 5.347-3.12 10.422-6.613 14.365A45.445 45.445 0 0124 44.854a45.5 45.5 0 01-5.378-5.13c-3.494-3.944-6.618-9.019-6.614-14.36l.001-2.502H12v-2.969c2.613-.589 4.605-2.003 6.2-3.136l.095-.067c2.217-1.573 3.686-2.557 5.705-2.557 2.073 0 3.834 1.046 6.154 2.597l.393.264z" stroke="#0078D4" stroke-width="5" stroke-linecap="square" fill="none"/><path d="M9.955 29.231a17.32 17.32 0 01-.446-3.847v-.022H9.5V17.67c3.095 0 5.268-1.542 7.417-3.068 2.103-1.492 4.184-2.969 7.083-2.969 3.036 0 5.454 1.62 7.786 3.18 2.17 1.454 4.265 2.857 6.714 2.857v7.692h-.009v.022c0 1.312-.16 2.598-.445 3.847H32.87c.4-1.282.622-2.577.621-3.866l-.002-3.794c-1.766-.756-3.23-1.75-4.287-2.467a51.36 51.36 0 00-.438-.296c-2.382-1.593-3.548-2.175-4.764-2.175-1.107 0-1.95.458-4.259 2.096l-.184.131c-1.224.871-2.896 2.06-5.046 2.877l-.002 3.628c-.001 1.289.222 2.584.622 3.866H9.955z" fill="#50E6FF"/></svg>