<svg xmlns="http://www.w3.org/2000/svg" viewBox="0 0 95 96"><path fill-rule="evenodd" clip-rule="evenodd" d="M78.394 43.229c3.992 16.321-6.15 32.752-22.652 36.701-16.5 3.947-33.114-6.082-37.105-22.404-3.992-16.321 6.15-32.752 22.65-36.701.018-.004.037-.01.056-.013 16.423-3.97 32.989 5.978 37.004 22.222l.047.195z" fill="#0078D4"/><path fill-rule="evenodd" clip-rule="evenodd" d="M44.167 62.536c-.01-4.462-3.675-8.07-8.187-8.06h-1.236c1.048-4.313-1.634-8.648-5.995-9.685a8.139 8.139 0 00-1.966-.223h-8.488c-1.836 9.344.905 18.996 7.397 26.026h10.287c4.51.01 8.176-3.598 8.188-8.058zm10.136-33.41c0 .472.062.942.187 1.4h-3.535c-4.685 0-8.483 3.757-8.483 8.391 0 4.633 3.797 8.39 8.483 8.39h28.097c-.916-10.023-6.898-18.91-15.895-23.611h-3.349c-3.036-.002-5.497 2.427-5.505 5.43zm24.752 24.416H62.293c-3.823-.009-6.929 3.044-6.944 6.824a6.717 6.717 0 00.834 3.25c-3.637 1.125-5.664 4.954-4.528 8.554.904 2.86 3.59 4.804 6.621 4.79h4.673c8.953-4.691 14.982-13.457 16.106-23.418zM14.092 30.137a.935.935 0 01-.945-.927v-.002c-.015-5.863-4.825-10.605-10.753-10.6a.935.935 0 01-.939-.93c0-.51.42-.926.94-.926 5.92.005 10.728-4.728 10.752-10.582a.939.939 0 01.986-.891c.489.02.88.406.902.891.015 5.862 4.827 10.604 10.755 10.598.518 0 .94.417.94.93a.936.936 0 01-.94.929c-5.924-.008-10.736 4.73-10.755 10.59a.94.94 0 01-.943.92z" fill="#50E6FF"/><path fill-rule="evenodd" clip-rule="evenodd" d="M80.411 89.873a.555.555 0 01-.558-.552c-.013-3.504-2.893-6.338-6.437-6.33a.554.554 0 01-.56-.55c0-.306.249-.553.557-.553h.003c3.542.002 6.417-2.83 6.43-6.333a.56.56 0 01.565-.557.56.56 0 01.564.557c.013 3.503 2.888 6.335 6.43 6.333a.554.554 0 01.56.55.552.552 0 01-.557.552h-.004c-3.541-.002-6.418 2.83-6.429 6.335a.555.555 0 01-.562.548h-.002z" fill="#0072C5"/><path fill-rule="evenodd" clip-rule="evenodd" d="M93.293 23.017c-2.933-4.754-10.306-5.852-21.306-3.187a88.361 88.361 0 00-10.101 3.187 31.161 31.161 0 015.952 3.761c1.872-.608 3.709-1.156 5.462-1.58a38.739 38.739 0 018.968-1.256c3.603 0 5.591.881 6.256 1.953 1.088 1.762.087 6.41-6.31 13.72-1.14 1.301-2.419 2.618-3.766 3.943a127.96 127.96 0 01-23.151 17.558A127.982 127.982 0 0128.884 73.55c-11.136 3.589-18.738 3.516-20.444.762-1.702-2.754 1.704-9.486 10.016-17.66a29.787 29.787 0 01-.682-7.078C4.541 61.405.26 71.653 3.68 77.19c1.79 2.897 5.702 4.529 11.418 4.529a58.727 58.727 0 0019.764-4.313 141.54 141.54 0 0023.344-11.58 140.583 140.583 0 0021-15.375 86.234 86.234 0 007.232-7.227c7.421-8.474 9.79-15.463 6.856-20.207z" fill="#0078D4"/></svg>