<svg xmlns="http://www.w3.org/2000/svg" viewBox="0 0 48 48"><path d="M44.75 35.426H31.064L14.417 9.742H2.71c-.699 0-1.263.564-1.263 1.263 0 .7.564 1.263 1.263 1.263h10.333l16.648 25.685H44.74c.699 0 1.263-.565 1.263-1.263a1.254 1.254 0 00-1.255-1.264z" fill="#0078D4"/><path d="M16.003 24.378H10.07v-9.804L.2 24.444h5.934v9.803l9.87-9.869z" fill="#50E6FF"/><path d="M46.729 37.515l-5.196 4.168c-.733.59-1.82.068-1.82-.875v-8.329c0-.934 1.087-1.457 1.82-.876l5.187 4.169c.564.446.564 1.297.009 1.743z" fill="#0078D4"/><path d="M46.728 11.933l-5.187 4.168c-.732.59-1.819.068-1.819-.875V6.897c0-.935 1.087-1.457 1.82-.876l5.186 4.169a1.12 1.12 0 010 1.743zm-34.82 23.242H2.746c-.683 0-1.264.522-1.297 1.204A1.265 1.265 0 002.712 37.7h10.695c.631 0 1.22-.32 1.557-.85l6.24-9.668-1.498-2.316-6.047 9.356a2.07 2.07 0 01-1.751.952z" fill="#50E6FF"/><path d="M32.21 11.933h12.506c.682 0 1.263-.522 1.297-1.205a1.265 1.265 0 00-1.264-1.322H30.703c-.632 0-1.221.32-1.558.85l-6.434 9.954 1.508 2.325 6.231-9.65a2.104 2.104 0 011.76-.952z" fill="#50E6FF"/></svg>