<svg xmlns="http://www.w3.org/2000/svg" viewBox="0 0 24 24"><path fill="#EDBD11" d="M21.17 18.549h-.485v-.968h.485a1.865 1.865 0 001.862-1.862V5.83a1.865 1.865 0 00-1.862-1.862H2.831A1.865 1.865 0 00.968 5.83v9.888c0 1.026.836 1.862 1.863 1.862h.484v.968h-.484A2.832 2.832 0 010 15.719V5.83C0 4.27 1.27 3 2.831 3H21.17C22.731 3 24 4.27 24 5.83v9.888a2.833 2.833 0 01-2.83 2.831M5.804 20.964c.725 0 1.314-.588 1.314-1.314l-.001-3.029a1.314 1.314 0 10-2.628.001l.001 3.028a1.314 1.314 0 001.314 1.314m4.131 0c.725 0 1.314-.588 1.314-1.314l-.001-7.775a1.313 1.313 0 10-2.628 0l.001 7.775c0 .726.589 1.314 1.314 1.314m8.262-.038c.725 0 1.314-.588 1.314-1.314L19.51 8.601a1.314 1.314 0 00-2.628 0l.001 11.012a1.315 1.315 0 001.314 1.313m-4.13.038c.725 0 1.314-.588 1.314-1.314l-.001-5.775a1.314 1.314 0 00-2.628 0l.001 5.775c0 .726.588 1.314 1.314 1.314"/></svg>