<svg xmlns="http://www.w3.org/2000/svg" viewBox="0 0 143 135"><path fill-rule="evenodd" clip-rule="evenodd" d="M18.683 87.028c4.159 0 7.529 3.318 7.529 7.41 0 4.092-3.37 7.41-7.53 7.41-4.158 0-7.53-3.318-7.53-7.41 0-4.092 3.372-7.41 7.53-7.41zM.795 97.282l4.774.294c.304.02.558.228.644.517.255.84.59 1.645 1.008 2.404a.703.703 0 01-.087.809l-3.16 3.527c-.298.331-.281.831.036 1.142l2.922 2.875a.857.857 0 001.159.037l3.577-3.103a.73.73 0 01.824-.085c.774.412 1.595.748 2.452 1.002a.715.715 0 01.523.632l.3 4.68a.841.841 0 00.846.784h4.13a.841.841 0 00.845-.783l.3-4.679a.717.717 0 01.523-.632 13.05 13.05 0 002.455-1 .73.73 0 01.825.083l3.573 3.1a.855.855 0 001.158-.036l2.922-2.875a.824.824 0 00.039-1.142l-3.155-3.52a.704.704 0 01-.088-.81c.418-.762.756-1.569 1.01-2.41a.722.722 0 01.645-.517l4.765-.294a.843.843 0 00.795-.833v-4.066a.843.843 0 00-.795-.833l-4.778-.296a.72.72 0 01-.644-.513 12.588 12.588 0 00-1.013-2.393.706.706 0 01.086-.813L33.383 84a.824.824 0 00-.039-1.142l-2.922-2.875a.857.857 0 00-1.158-.037l-3.603 3.127a.733.733 0 01-.824.086 13.002 13.002 0 00-2.423-.985.717.717 0 01-.523-.634l-.303-4.72a.84.84 0 00-.844-.782h-4.131a.841.841 0 00-.847.781l-.303 4.725c-.02.3-.229.546-.52.632-.847.25-1.656.58-2.42.985a.735.735 0 01-.826-.084l-3.606-3.13a.857.857 0 00-1.159.036L4.01 82.857a.822.822 0 00-.036 1.142l3.175 3.544a.7.7 0 01.086.81 12.645 12.645 0 00-1.01 2.388.718.718 0 01-.642.513l-4.788.296a.843.843 0 00-.795.833v4.066c0 .44.349.803.795.833z" fill="#D7E8F6"/><path fill-rule="evenodd" clip-rule="evenodd" d="M116.891 92.269H82.63l-1.529 9.803 5.048 9.346H50.816l9.496-8.086-1.237-11.063h-35.18V23.641h92.996V92.27z" fill="#fff"/><path fill-rule="evenodd" clip-rule="evenodd" d="M141.336 24.603l-7.44-.468a1.13 1.13 0 01-1.005-.819 20.111 20.111 0 00-1.567-3.81c-.224-.42-.18-.928.134-1.285l4.924-5.596a1.323 1.323 0 00-.055-1.809l-4.554-4.559a1.317 1.317 0 00-1.806-.057l-5.572 4.921c-.358.315-.868.36-1.287.133a19.962 19.962 0 00-3.82-1.587 1.131 1.131 0 01-.814-1.005l-.466-7.423A1.32 1.32 0 00116.69 0h-6.439a1.32 1.32 0 00-1.316 1.239l-.466 7.42a1.13 1.13 0 01-.817 1.003 20.16 20.16 0 00-3.825 1.588c-.416.226-.927.18-1.285-.134L96.976 6.2a1.32 1.32 0 00-1.808.057l-4.552 4.56a1.324 1.324 0 00-.057 1.808l4.917 5.585c.314.357.358.867.134 1.287a20.063 20.063 0 00-1.575 3.821 1.126 1.126 0 01-.998.817h9.81c1.874-3.999 5.918-6.773 10.616-6.773 6.481 0 11.734 5.262 11.734 11.75 0 5.75-4.128 10.528-9.575 11.543v17.64h1.068a1.32 1.32 0 001.318-1.239l.471-7.493c.028-.474.358-.87.814-1.005a20.1 20.1 0 003.77-1.561c.416-.224.926-.18 1.283.134l5.621 4.963a1.32 1.32 0 001.806-.056l4.554-4.56a1.325 1.325 0 00.055-1.81l-4.948-5.62a1.132 1.132 0 01-.132-1.288 20.125 20.125 0 001.571-3.785 1.124 1.124 0 011.002-.813l7.461-.47a1.324 1.324 0 001.24-1.32v-6.449c0-.698-.544-1.276-1.24-1.32z" fill="#D7E8F6"/><path fill-rule="evenodd" clip-rule="evenodd" d="M23.45 91.507a6.097 6.097 0 00-1.549-.452v.452h1.55zM113.46 21.693h-.023.024z" fill="#fff"/><path fill-rule="evenodd" clip-rule="evenodd" d="M70.633 56.448a.536.536 0 01-.268-.077L52.798 46.216a.536.536 0 010-.92L70.26 35.204a.53.53 0 01.523 0l17.573 10.16c.163.094.262.27.262.46s-.1.365-.262.46L70.9 56.37a.516.516 0 01-.268.077z" fill="#D7E8F6"/><path fill-rule="evenodd" clip-rule="evenodd" d="M68.634 80.598V60.283a.56.56 0 00-.26-.467l-17.516-10.12a.521.521 0 00-.532 0 .532.532 0 00-.27.456v20.33a.52.52 0 00.27.454l17.513 10.123a.495.495 0 00.268.072h.004a.543.543 0 00.262-.072.544.544 0 00.26-.461z" fill="#ACD1EF"/><path fill-rule="evenodd" clip-rule="evenodd" d="M94.084 132.185a4.489 4.489 0 01-1.76.36 4.513 4.513 0 01-4.154-2.753 4.52 4.52 0 014.15-6.281 4.518 4.518 0 011.764 8.675zm47.651-58.418a15.891 15.891 0 00-1.703-3.027l-4.732 8.886a6.862 6.862 0 01-6.045 3.61 6.877 6.877 0 01-6.033-10.14L128 64.122a17.615 17.615 0 00-.881-.024c-2.045 0-4.119.39-6.12 1.24-8.035 3.413-11.777 12.72-8.362 20.788.16.377.345.735.53 1.094l-26.426 36.9a6.882 6.882 0 001.577 9.591A6.835 6.835 0 0092.313 135a6.85 6.85 0 005.583-2.868l26.232-36.63a15.657 15.657 0 009.243-.947c8.036-3.412 11.78-12.72 8.364-20.788z" fill="#0078D7"/><path fill-rule="evenodd" clip-rule="evenodd" d="M57.33 109.375c.93-.638 1.739-1.371 2.398-2.243 2.777-3.682 2.204-8.41 1.187-12.356h19.753c-1.208 4.485-2.035 9.39.688 12.998a8.929 8.929 0 001.58 1.601H57.332zM19.68 24.218l-.033 67.9a2.536 2.536 0 002.532 2.54l35.053.042c3.26 11.524-1.121 14.675-20.301 14.675v4.535H91.154l3.245-4.535.17-.237c-12.038-.914-12.978-4.662-10.21-14.438h20.552l3.564-4.978H24.447v-63.75h89.965v41a18.035 18.035 0 015.013-3.49v-39.29a2.54 2.54 0 00-2.537-2.54l-94.673.027a2.54 2.54 0 00-2.536 2.539z" fill="#0078D7"/><path fill-rule="evenodd" clip-rule="evenodd" d="M90.83 70.936a.52.52 0 00.268-.461V50.289c0-.19-.1-.366-.268-.46a.516.516 0 00-.525 0L72.79 59.95a.552.552 0 00-.257.456v20.198a.54.54 0 00.257.456.561.561 0 00.272.072h.005a.464.464 0 00.255-.072L90.83 70.936z" fill="#50A0DF"/></svg>