<svg xmlns="http://www.w3.org/2000/svg" viewBox="0 0 49 49"><path d="M10.9 48.442h27.8V.59H10.9v47.852z" fill="#0078D4"/><path d="M27.45 28.532c0-.798-.6-1.447-1.8-1.995v3.792c1.2-.2 1.8-.799 1.8-1.797zm-3.6-6.237v-3.942c-1.15.2-1.75.799-1.75 1.796 0 .899.6 1.597 1.75 2.146zm6.9 6.038c0 1.397-.45 2.495-1.3 3.343-.85.848-2.15 1.347-3.8 1.547v2.694h-1.8v-2.644c-1.7 0-3.3-.4-4.7-1.148v-3.443c.45.35 1.15.699 2.15 1.048 1 .35 1.85.549 2.55.599v-4.54c-1.85-.7-3.15-1.448-3.9-2.246-.75-.799-1.15-1.896-1.15-3.194 0-1.297.45-2.445 1.4-3.343.95-.898 2.15-1.447 3.65-1.597v-2.295h1.8v2.245c1.75.1 3.05.35 3.95.849v3.343c-1.15-.699-2.45-1.148-3.95-1.298v4.79c1.85.65 3.15 1.398 3.95 2.246.8.798 1.15 1.846 1.15 3.044z" fill="#50E6FF"/></svg>