<svg xmlns="http://www.w3.org/2000/svg" viewBox="0 0 49 49"><path d="M27.53 29.738c0-.987-.725-1.806-2.182-2.448v4.635c1.457-.236 2.181-.962 2.181-2.187zm-4.405-7.607v-4.846c-1.415.253-2.122.996-2.122 2.22 0 1.064.707 1.942 2.122 2.626zm8.463 7.396c0 1.689-.53 3.057-1.591 4.078-1.062 1.03-2.611 1.664-4.64 1.892v3.318h-2.232V35.59c-2.097-.017-4.017-.49-5.76-1.41v-4.23c.547.447 1.423.886 2.627 1.308 1.204.422 2.249.667 3.133.726V26.42c-2.248-.836-3.84-1.748-4.775-2.744-.935-.996-1.406-2.296-1.406-3.917 0-1.622.573-2.99 1.726-4.104 1.145-1.114 2.636-1.764 4.455-1.95v-2.846h2.223v2.778c2.147.101 3.747.448 4.8 1.039v4.128c-1.415-.852-3.015-1.384-4.8-1.587v5.792c2.248.82 3.849 1.731 4.8 2.753.96 1.021 1.44 2.28 1.44 3.765z" fill="#0078D4"/><path d="M48.186 18.51V5.845h-5.06v4.534c-4.354-5.632-11.167-9.254-18.813-9.254C11.159 1.125.506 11.805.506 24.994c0 13.188 10.661 23.869 23.807 23.869 13.145 0 23.806-10.69 23.806-23.869 0-.473-.017-.937-.042-1.402H43.42c.034.465.05.93.05 1.402 0 10.605-8.572 19.208-19.157 19.208-10.586 0-19.158-8.603-19.158-19.208 0-10.605 8.572-19.208 19.158-19.208 6.223 0 11.747 2.972 15.242 7.582h-4.009v5.074h7.58v.068h5.06z" fill="#50E6FF"/></svg>