<svg xmlns="http://www.w3.org/2000/svg" viewBox="0 0 49 49"><path d="M10.131 13.477H.02v22.678H10.13V13.476zM22.752 6.023H12.657v30.215h10.095V6.023zM35.365.863H25.304v35.394h10.07V.863h-.009zM48.003 26.16H37.94v10.097h10.053V26.16h.009z" fill="#0078D4"/><path d="M48.002 38.723H7.883v2.518h40.112v-2.518h.007z" fill="#0078D7"/><path d="M11.412 48.856c6.256 0 11.324-5.07 11.324-11.327 0-6.256-5.068-11.326-11.324-11.326S.088 31.273.088 37.53c0 6.257 5.068 11.327 11.324 11.327z" fill="#50E6FF"/><path d="M14.375 37.715c-.472-.497-1.255-.944-2.358-1.348v-2.83c.876.119 1.659.363 2.358.792v-2.02c-.522-.295-1.305-.472-2.358-.523v-1.364h-1.103v1.39c-.875.067-1.616.378-2.172.942-.564.565-.859 1.23-.859 2.022 0 .791.228 1.406.7 1.903.445.488 1.228.943 2.331 1.339v2.72c-.446-.026-.968-.16-1.54-.362-.607-.22-1.036-.421-1.305-.649v2.063a5.938 5.938 0 002.829.7v1.566H12v-1.609c1.01-.118 1.768-.43 2.29-.926.513-.489.783-1.17.783-1.996 0-.733-.228-1.339-.7-1.81zm-3.46-1.794c-.691-.345-1.036-.767-1.036-1.305 0-.581.345-.944 1.035-1.078v2.383zM12 40.72v-2.265c.715.32 1.077.69 1.077 1.187 0 .581-.362.943-1.077 1.078z" fill="#0078D4"/></svg>