<svg xmlns="http://www.w3.org/2000/svg" viewBox="0 0 49 49"><path d="M24.626 5.778h.041V1.363c-8.622 0-15.997 4.266-20.313 11.748l3.754 2.166c3.307-5.68 9.466-9.499 16.518-9.499z" fill="#0078D4"/><path d="M8.107 15.284l-3.753-2.175c-4.316 7.482-4.316 16.014 0 23.496l3.745-2.166a18.97 18.97 0 01-2.571-9.573c0-3.49.942-6.771 2.58-9.582zM24.627 43.965c-7.052 0-13.212-3.828-16.519-9.516l-3.745 2.166c4.316 7.482 11.682 11.748 20.313 11.748v-4.398h-.05z" fill="#50E6FF"/><path d="M48.121 24.86c0-12.98-10.499-23.497-23.454-23.497v4.415c10.524.025 19.048 8.565 19.048 19.09 0 10.524-8.524 19.072-19.048 19.097v4.398c12.955 0 23.454-10.524 23.454-23.504z" fill="#50E6FF"/><path d="M27.238 28.788c0-.793-.587-1.446-1.753-1.959v3.712c1.174-.19 1.753-.769 1.753-1.753zM23.7 22.695V18.81c-1.133.207-1.703.794-1.703 1.777.008.86.57 1.563 1.703 2.108zm6.796 5.92c0 1.356-.43 2.447-1.282 3.266-.851.826-2.092 1.33-3.729 1.52v2.655H23.7v-2.58c-1.679-.016-3.225-.388-4.63-1.124v-3.39c.438.356 1.14.711 2.108 1.05.967.34 1.802.53 2.513.579v-4.456c-1.802-.67-3.083-1.406-3.827-2.2-.753-.793-1.125-1.843-1.125-3.141s.463-2.39 1.38-3.282c.927-.893 2.117-1.414 3.572-1.563v-2.273h1.786V15.9c1.72.082 3.01.355 3.853.835v3.307c-1.133-.687-2.423-1.108-3.853-1.274v4.639c1.802.653 3.092 1.388 3.853 2.199.785.818 1.166 1.818 1.166 3.009z" fill="#0078D4"/></svg>