<svg xmlns="http://www.w3.org/2000/svg" viewBox="0 0 49 49"><path d="M40.508 48.86h5.017V38.685h-5.017V48.86zM30.348 48.859h5.016V33.703h-5.016V48.86zM10.188 48.861h5.017V10.88h-5.017V48.86zM20.356 48.863h5.017V23.54h-5.017v25.324zM.02 48.862h5.042V.863H.02v48z" fill="#0078D4"/><path d="M41.528 16.137c0-.785-.582-1.434-1.737-1.94v3.679c1.164-.186 1.737-.768 1.737-1.739zm-3.508-6.05V6.239c-1.121.202-1.686.784-1.686 1.763 0 .853.565 1.545 1.686 2.085zm6.737 5.881c0 1.342-.421 2.422-1.265 3.24-.843.82-2.074 1.317-3.693 1.503v2.886h-1.77v-2.81c-1.67-.017-3.196-.388-4.587-1.114v-3.367c.438.354 1.138.7 2.091 1.038.961.337 1.788.532 2.496.574v-4.422c-1.788-.667-3.053-1.393-3.795-2.177-.741-.794-1.112-1.831-1.112-3.114s.455-2.371 1.374-3.257c.91-.886 2.09-1.401 3.541-1.545V.863h1.77v2.49c1.704.084 2.977.354 3.82.827v3.274c-1.121-.684-2.394-1.097-3.82-1.266v4.6c1.788.649 3.061 1.375 3.82 2.185.75.818 1.13 1.814 1.13 2.995z" fill="#50E6FF"/></svg>