<svg xmlns="http://www.w3.org/2000/svg" viewBox="0 0 49 49"><path d="M5.4 24.49c0-10.7 8.7-19.4 19.45-19.4h.05V.59C16.1.59 8.6 4.94 4.2 12.54c-4.4 7.6-4.4 16.3 0 23.9l3.8-2.2c-1.65-2.85-2.6-6.2-2.6-9.75z" fill="#50E6FF"/><path d="M24.9.59v4.5c10.7 0 19.4 8.7 19.4 19.45s-8.7 19.45-19.45 19.45c-7.2 0-13.45-3.9-16.8-9.7l-3.8 2.2C8.6 44.09 16.1 48.44 24.9 48.44c13.2 0 23.85-10.7 23.85-23.9C48.75 11.29 38.05.59 24.9.59zM8.05 34.238l-3.85 2.2 3.85-2.2z" fill="#0078D4"/><path d="M27.5 28.49c0-.8-.6-1.45-1.8-2v3.75c1.2-.15 1.8-.75 1.8-1.75zm-3.6-6.2v-3.95c-1.15.2-1.75.8-1.75 1.8 0 .9.6 1.6 1.75 2.15zm6.9 6.05c0 1.4-.45 2.5-1.3 3.35-.85.85-2.15 1.35-3.8 1.55v2.7h-1.8v-2.65c-1.7 0-3.3-.4-4.7-1.15v-3.45c.45.35 1.15.7 2.15 1.05 1 .35 1.85.55 2.55.6v-4.55c-1.85-.7-3.15-1.45-3.9-2.25s-1.15-1.85-1.15-3.2c0-1.3.45-2.45 1.4-3.35.95-.9 2.15-1.45 3.65-1.6v-2.3h1.8v2.25c1.75.1 3.05.35 3.9.85v3.4a9.247 9.247 0 00-3.9-1.3v4.7c1.85.65 3.15 1.4 3.9 2.25.85.85 1.2 1.85 1.2 3.1z" fill="#0078D4"/></svg>