<svg xmlns="http://www.w3.org/2000/svg" viewBox="0 0 49 49"><path d="M23.927 48.754c13.246 0 23.907-10.737 23.907-23.908C47.91 11.6 37.174.863 23.927.863 10.757.863.02 11.6.02 24.771c0 13.246 10.736 23.983 23.907 23.983z" fill="#50E6FF"/><path d="M30.235 25.198c-1.003-1.078-2.653-2.004-4.944-2.863V16.39c1.861.219 3.512.791 4.944 1.65v-4.294c-1.078-.649-2.796-1.002-4.944-1.078V9.805h-2.366v2.939c-1.861.143-3.436.791-4.581 2.004-.573.572-1.002 1.22-1.364 1.937-.287.716-.506 1.507-.43 2.29 0 1.65.506 3.006 1.508 4.009.934 1.002 2.576 2.004 4.943 2.863v5.726c-.935-.076-2.08-.362-3.293-.791-1.288-.506-2.147-.86-2.796-1.365v4.37a12.423 12.423 0 005.946 1.508v3.293h2.366v-3.369c2.147-.219 3.722-.934 4.867-1.937 1.078-1.077 1.65-2.433 1.65-4.227-.075-1.633-.504-2.855-1.506-3.857zm-7.31-3.79c-1.432-.715-2.147-1.65-2.147-2.795 0-1.221.715-2.004 2.147-2.29v5.086zm2.29 10.098v-4.8c1.508.648 2.291 1.431 2.291 2.51-.067 1.288-.783 2.003-2.29 2.29z" fill="#0078D4"/></svg>