<svg xmlns="http://www.w3.org/2000/svg" viewBox="0 0 49 49"><path d="M24.42 38.615c-7.596 0-13.752-6.156-13.752-13.752 0-7.596 6.156-13.751 13.752-13.751V.863c-13.255 0-24 10.745-24 24s10.745 24 24 24c6.72 0 12.8-2.762 17.154-7.217l-7.25-7.242a13.717 13.717 0 01-9.904 4.21z" fill="#0078D4"/><path d="M38.172 24.476H48.42C48.21 11.398 37.548.863 24.42.863v10.249c7.47 0 13.541 5.945 13.752 13.364z" fill="#50E6FF"/><path d="M24.42 36.366c6.279 0 11.369-5.09 11.369-11.369 0-6.278-5.09-11.368-11.369-11.368-6.278 0-11.368 5.09-11.368 11.368 0 6.279 5.09 11.369 11.368 11.369z" fill="#50E6FF"/><path d="M27.392 25.182c-.471-.497-1.263-.943-2.366-1.356v-2.838c.876.118 1.667.362 2.366.792v-2.03c-.522-.294-1.313-.471-2.366-.522v-1.373h-1.103v1.398c-.876.068-1.625.38-2.181.944-.564.564-.86 1.237-.86 2.029 0 .792.228 1.415.7 1.912.446.488 1.238.943 2.34 1.347v2.728c-.445-.025-.968-.16-1.549-.362-.606-.219-1.036-.42-1.313-.648v2.071a5.975 5.975 0 002.838.7v1.574h1.111v-1.617c1.01-.118 1.777-.43 2.3-.926.513-.488.782-1.17.782-2.004 0-.741-.227-1.348-.699-1.82zm-3.47-1.802c-.69-.346-1.035-.767-1.035-1.314 0-.581.345-.943 1.036-1.078v2.392zm1.087 4.817v-2.274c.716.32 1.078.69 1.078 1.187 0 .59-.362.952-1.078 1.087z" fill="#0078D4"/><path d="M48.378 24.864c0-.126 0-.261-.009-.387H38.172c0 .126.008.252.008.387 0 3.705-1.465 7.074-3.849 9.541l7.234 7.217a23.949 23.949 0 006.813-16.758z" fill="#50E6FF"/></svg>