<svg xmlns="http://www.w3.org/2000/svg" viewBox="0 0 49 49"><path d="M10.92 48.716h27.8V.863h-27.8v47.853z" fill="#0078D4"/><path d="M27.47 28.805c0-.798-.6-1.447-1.8-1.996v3.793c1.2-.2 1.8-.799 1.8-1.797zm-3.6-6.237v-3.942c-1.15.2-1.75.798-1.75 1.796 0 .898.6 1.597 1.75 2.146zm6.9 6.038c0 1.397-.45 2.495-1.3 3.343-.85.848-2.15 1.347-3.8 1.547v2.694h-1.8v-2.644c-1.7 0-3.3-.4-4.7-1.148v-3.443c.45.35 1.15.699 2.15 1.048 1 .35 1.85.549 2.55.599V26.06c-1.85-.699-3.15-1.447-3.9-2.245-.75-.799-1.15-1.897-1.15-3.194s.45-2.445 1.4-3.343c.95-.898 2.15-1.447 3.65-1.597v-2.295h1.8v2.245c1.75.1 3.05.35 3.95.848v3.344c-1.15-.699-2.45-1.148-3.95-1.298v4.79c1.85.65 3.15 1.398 3.95 2.246.8.798 1.15 1.846 1.15 3.044z" fill="#50E6FF"/></svg>