<svg xmlns="http://www.w3.org/2000/svg" viewBox="0 0 49 49"><path d="M39.769 36.159h-28.04l-2.19-20.17H46.87l-7.102 20.17z" fill="#0078D7"/><path d="M11.645 8.887H1.652v3.303h7.49l1.138 10.582 3.462-.489-2.098-13.396zM15.436 46.37a3.775 3.775 0 100-7.55 3.775 3.775 0 000 7.55zM35.944 46.37a3.775 3.775 0 100-7.55 3.775 3.775 0 000 7.55z" fill="#0078D7"/><path d="M30.779 25.896c-.48-.506-1.273-.944-2.368-1.349v-2.805a5.95 5.95 0 012.368.775v-2.03c-.514-.304-1.34-.472-2.368-.506v-1.348h-1.129v1.39c-.893.067-1.643.37-2.19.944-.27.27-.48.573-.65.918-.134.337-.244.708-.201 1.078 0 .776.244 1.416.724 1.896.447.472 1.23.944 2.368 1.348v2.705c-.447-.034-.994-.169-1.576-.37-.615-.237-1.028-.405-1.34-.641v2.064a6.01 6.01 0 002.84.708v1.558h1.129V30.64c1.028-.101 1.778-.438 2.325-.918.514-.506.792-1.146.792-1.997-.042-.784-.244-1.357-.724-1.828zM27.282 24.1c-.682-.337-1.028-.775-1.028-1.323 0-.573.346-.944 1.028-1.078V24.1zm1.096 4.769v-2.267c.724.304 1.095.674 1.095 1.188-.034.607-.38.944-1.095 1.079z" fill="#50E6FF"/></svg>