<svg xmlns="http://www.w3.org/2000/svg" viewBox="0 0 48 49"><path d="M10.112 13.203H0v22.678h10.112V13.203zM22.733 5.75H12.638v30.215h10.095V5.75zM35.346.59H25.284v35.394h10.07V.59h-.008zm12.637 25.297H37.922v10.097h10.053V25.887h.008z" fill="#0078D4"/><path d="M47.983 38.45H7.863v2.517h40.113V38.45h.007z" fill="#0078D7"/><path d="M11.393 48.582c6.255 0 11.324-5.07 11.324-11.326 0-6.257-5.069-11.326-11.324-11.326C5.137 25.93.068 31 .068 37.256c0 6.257 5.069 11.326 11.325 11.326z" fill="#50E6FF"/><path d="M14.355 37.441c-.471-.497-1.254-.943-2.357-1.347v-2.83c.875.118 1.658.362 2.357.792v-2.021c-.522-.295-1.305-.472-2.357-.522v-1.365h-1.103v1.39c-.876.067-1.617.379-2.172.943-.565.564-.86 1.23-.86 2.021 0 .792.228 1.406.7 1.903.446.489 1.229.944 2.332 1.34v2.72c-.446-.026-.968-.16-1.541-.363-.606-.219-1.036-.42-1.305-.648v2.063a5.94 5.94 0 002.829.699v1.566h1.103v-1.608c1.01-.118 1.768-.43 2.29-.927.514-.488.783-1.17.783-1.995 0-.733-.227-1.34-.699-1.81zm-3.46-1.794c-.69-.345-1.036-.766-1.036-1.305 0-.58.345-.943 1.036-1.078v2.383zm1.086 4.8v-2.265c.716.32 1.078.69 1.078 1.188 0 .58-.362.943-1.078 1.077z" fill="#0078D4"/></svg>