<svg xmlns="http://www.w3.org/2000/svg" viewBox="0 0 49 49"><path d="M25.694 3.418v5.141a18.947 18.947 0 0111.212 4.635l3.613-3.613a23.862 23.862 0 00-14.825-6.163z" fill="#50E6FF"/><path d="M6.522 11.39A23.941 23.941 0 00.435 26.216h5.032c.287-4.28 2-8.18 4.66-11.22l-3.605-3.604zM23.162 3.41A23.94 23.94 0 008.337 9.565l3.613 3.613a18.886 18.886 0 0111.212-4.626V3.41z" fill="#0078D4"/><path d="M.444 28.746a23.885 23.885 0 006.163 14.749l3.503-3.504a18.947 18.947 0 01-4.643-11.245H.444z" fill="#0078D7"/><path d="M48.396 28.746h-5.023a18.958 18.958 0 01-4.627 11.237l3.504 3.504a23.932 23.932 0 006.146-14.74zM42.334 11.406l-3.605 3.605a18.932 18.932 0 014.644 11.203h5.032a23.926 23.926 0 00-6.07-14.808z" fill="#50E6FF"/><path d="M32.482 27.524H26.43V17.519L16.357 27.591h6.054v10.005l10.071-10.072z" fill="#0078D4"/></svg>