<svg xmlns="http://www.w3.org/2000/svg" viewBox="0 0 49 49"><path d="M25.675 3.145v5.141a18.947 18.947 0 0111.211 4.635L40.5 9.308a23.862 23.862 0 00-14.825-6.163z" fill="#50E6FF"/><path d="M6.502 11.118A23.94 23.94 0 00.416 25.942h5.031a18.95 18.95 0 014.66-11.22l-3.605-3.604zm16.64-7.981A23.94 23.94 0 008.317 9.292l3.614 3.613a18.886 18.886 0 0111.211-4.627v-5.14z" fill="#0078D4"/><path d="M.424 28.473a23.885 23.885 0 006.163 14.749l3.504-3.504a18.948 18.948 0 01-4.643-11.245H.424z" fill="#0078D7"/><path d="M48.376 28.473h-5.023a18.958 18.958 0 01-4.626 11.237l3.503 3.503a23.932 23.932 0 006.146-14.74zm-6.061-17.34l-3.605 3.605a18.932 18.932 0 014.643 11.203h5.032a23.926 23.926 0 00-6.07-14.808z" fill="#50E6FF"/><path d="M32.463 27.25h-6.054V17.247L16.338 27.318h6.053v10.004l10.072-10.071z" fill="#0078D4"/></svg>