<svg xmlns="http://www.w3.org/2000/svg" viewBox="0 0 144.382 108.1"><path d="M110.144 55.184c-.162 0-.325.01-.483.01a33.963 33.963 0 00-67.671-3.763 23.524 23.524 0 10-18.465 38.1h86.619a17.172 17.172 0 000-34.343z" fill="#00abec" opacity=".23"/><path d="M117.072 73.757c-.143 0-.285.01-.425.01-.171-18.584-13.474-33.593-29.854-33.593C71.531 40.174 58.946 53.2 57.152 70a19.852 19.852 0 00-16.234-8.958c-11.424 0-20.683 10.536-20.683 23.528s9.259 23.53 20.683 23.53h76.155c8.333 0 15.094-7.688 15.094-17.171s-6.762-17.172-15.095-17.172z" fill="#00abec" opacity=".23"/><path d="M142.836 25.216l-23.67-23.67a5.279 5.279 0 00-7.466 0l-23.67 23.67a5.279 5.279 0 000 7.466l19.37 19.375v43.958l8.028 8.028 8.028-8.028v-2.026l-2.534-2.534 2.534-2.534v-1.688l-2.529-2.533 2.534-2.534v-2.02L120.316 77l3.145-3.145V72.2l-3.145-3.145 3.145-3.145v-1.855l-3.145-3.145 3.145-3.145v-5.708l19.375-19.375a5.279 5.279 0 000-7.466zm-27.4-8.326a4.636 4.636 0 114.636-4.636 4.636 4.636 0 01-4.639 4.636z" fill="#fcd116"/><path d="M115.433 104.043V16.89a4.636 4.636 0 110-9.272V0a5.263 5.263 0 00-3.733 1.546l-23.67 23.67a5.279 5.279 0 000 7.466l19.37 19.375v43.958z" fill="#ffb900"/><path fill="#f68c1f" opacity=".58" d="M110.105 54.462h2.997v39.35h-2.997z"/><path fill="#f68c1f" opacity=".71" d="M99.416 22.811h32.751v3.666H99.416zm0 6.844h32.751v3.666H99.416z"/></svg>