<svg xmlns="http://www.w3.org/2000/svg" viewBox="0 0 48 48"><path d="M42.948 0H17.684a5.053 5.053 0 100 10.105h25.264a5.053 5.053 0 000-10.105zM5.053 10.105A5.053 5.053 0 105.053 0a5.053 5.053 0 000 10.105zm37.895 2.527H17.684a5.053 5.053 0 100 10.105h25.264a5.053 5.053 0 000-10.105zM5.053 22.737a5.053 5.053 0 100-10.106 5.053 5.053 0 000 10.106z" fill="#0078D4"/><path d="M42.948 25.263H17.684a5.053 5.053 0 100 10.105h25.264a5.053 5.053 0 100-10.105zM5.053 35.368a5.053 5.053 0 100-10.105 5.053 5.053 0 000 10.105z" fill="#50E6FF"/><path d="M42.948 37.895H17.684a5.053 5.053 0 100 10.105h25.264a5.053 5.053 0 100-10.105zM5.053 48a5.053 5.053 0 100-10.105 5.053 5.053 0 000 10.105z" fill="#0078D4"/></svg>