<svg xmlns="http://www.w3.org/2000/svg" viewBox="0 0 48 48"><path d="M7.2 0H0v7.2h7.2V0zM17.398 0h-7.2v7.2h7.2V0zM27.596 0h-7.2v7.2h7.2V0zM37.802 0h-7.2v7.2h7.2V0z" fill="#50E6FF"/><path d="M48 0h-7.201v7.2h7.2V0z" fill="#0078D4"/><path d="M7.2 10.199H0v7.2h7.2v-7.2zM17.399 10.199h-7.2v7.2h7.2v-7.2zM27.596 10.199h-7.2v7.2h7.2v-7.2z" fill="#50E6FF"/><path d="M48 10.199h-7.201v7.2h7.2v-7.2z" fill="#0078D4"/><path d="M7.2 20.402H0v7.2h7.2v-7.2zM17.399 20.402h-7.2v7.2h7.2v-7.2z" fill="#50E6FF"/><path d="M37.802 20.402h-7.2v7.2h7.2v-7.2zM48 20.402h-7.201v7.2h7.2v-7.2z" fill="#0078D4"/><path d="M7.2 30.6H0v7.201h7.2v-7.2z" fill="#50E6FF"/><path d="M17.398 30.6h-7.2v7.201h7.2v-7.2zM27.596 30.6h-7.2v7.201h7.2v-7.2zM48 30.6h-7.201v7.201h7.2v-7.2zM7.2 40.8H0V48h7.2v-7.2zM17.399 40.8h-7.2V48h7.2v-7.2zM27.596 40.8h-7.2V48h7.2v-7.2zM37.802 40.8h-7.2V48h7.2v-7.2zM48 40.8h-7.201V48h7.2v-7.2zM37.802 10.199h-7.2v7.2h7.2v-7.2zM27.596 20.402h-7.2v7.2h7.2v-7.2zM37.802 30.6h-7.2v7.201h7.2v-7.2z" fill="#0078D4"/></svg>