<svg xmlns="http://www.w3.org/2000/svg" viewBox="0 0 38 40"><path d="M31.728 8.917l.4.4 2-1.734 3.332-5.47-.8-.8-5.332 3.469-1.6 2.134.4.4-10.531 10.806-2.133-2.268-2.4 2.535c.133 1.2-.267 2.534-1.066 3.468-.933.934-2.133 1.334-3.333 1.2L0 33.998 5.999 40l10.532-10.939c-.134-1.2.266-2.535 1.2-3.468.932-.934 2.132-1.334 3.332-1.201l2.4-2.535-2.133-2.268L31.728 8.917z" fill="#50E6FF"/><path d="M30.795 36.799c1.466 1.6 4 1.6 5.466 0 .8-.8 1.066-1.868 1.066-2.935 0-1.068-.4-2.135-1.066-2.935l-11.865-12.14-1.066 1.2 2.133 2.269-.934.933-2.4 2.535-.266.267-.533-.134c-.267 0-.667 0-1.067.134l10.532 10.806zM15.065 2.514C12.932.246 9.732-.421 7.066.246l4.666 4.803-1.067 4.669L6 11.052 1.334 6.249c-.667 2.935 0 6.003 2.133 8.271 2.133 2.268 5.332 2.935 8.132 2.135l.133.133 2.133 2.268c.133-.267.133-.534.133-.667v-.4l-.133-.267 3.6-3.735.666.667 1.466 1.467 1.067-1.2-3.466-3.736c.8-2.935.266-6.27-2.133-8.671z" fill="#243A5E"/></svg>