<svg xmlns="http://www.w3.org/2000/svg" viewBox="0 0 48 49"><path fill-rule="evenodd" clip-rule="evenodd" d="M1 47.126h46V5.438H1v41.688z" fill="#0078D4"/><path fill-rule="evenodd" clip-rule="evenodd" d="M7.469 17.657h4.312v-4.312H7.47v4.312zm14.375 7.188h4.312v-4.313h-4.312v4.313zm-7.188 7.187h4.313V27.72h-4.313v4.312zm14.375 7.188h4.313v-4.313H29.03v4.313z" fill="#fff"/><path fill-rule="evenodd" clip-rule="evenodd" d="M1 5.438h46V1.126H1v4.312zm13.656 12.219h4.313v-4.312h-4.313v4.312zm7.188 0h4.312v-4.312h-4.312v4.312zm7.187 0h4.313v-4.312H29.03v4.312zM7.469 24.845h4.312v-4.313H7.47v4.313zm7.187 0h4.313v-4.313h-4.313v4.313zm14.375 0h4.313v-4.313H29.03v4.313zM7.469 32.032h4.312V27.72H7.47v4.312zm14.375 0h4.312V27.72h-4.312v4.312zm7.187 0h4.313V27.72H29.03v4.312zM7.469 39.22h4.312v-4.313H7.47v4.313zm7.187 0h4.313v-4.313h-4.313v4.313zm7.188 0h4.312v-4.313h-4.312v4.313zm14.375-21.563h4.312v-4.312H36.22v4.312zm0 7.188h4.312v-4.313H36.22v4.313zm0 7.187h4.312V27.72H36.22v4.312zm0 7.188h4.312v-4.313H36.22v4.313z" fill="#50E6FF"/></svg>