<svg xmlns="http://www.w3.org/2000/svg" viewBox="0 0 40 42"><path d="M33.42 9.363l.421.42 2.106-1.82 3.51-5.744-.842-.84L33 5.02l-1.685 2.241.42.42-11.092 11.346-2.247-2.381-2.528 2.661c.14 1.26-.28 2.662-1.123 3.642-.983.98-2.247 1.4-3.51 1.26L0 35.698 6.319 42l11.093-11.486c-.14-1.26.28-2.661 1.264-3.642.983-.98 2.247-1.4 3.51-1.26l2.528-2.662-2.247-2.381L33.42 9.363z" fill="#303030"/><path d="M32.437 38.638a3.917 3.917 0 005.757 0c.843-.84 1.124-1.96 1.124-3.081 0-1.12-.421-2.241-1.124-3.082L25.697 19.73l-1.123 1.26 2.246 2.381-.983.98-2.527 2.662-.281.28-.562-.14c-.28 0-.702 0-1.123.14l11.093 11.346zM15.868 2.64C13.621.258 10.251-.442 7.443.258l4.915 5.043-1.124 4.903-4.914 1.4-4.915-5.042c-.702 3.081 0 6.303 2.247 8.684 2.246 2.382 5.616 3.082 8.565 2.241l.14.14 2.247 2.382c.14-.28.14-.56.14-.7v-.42l-.14-.281 3.792-3.922.702.7 1.544 1.541 1.124-1.26-3.651-3.923c.842-3.081.28-6.583-2.247-9.104z" fill="#0078D4"/></svg>