<svg xmlns="http://www.w3.org/2000/svg" viewBox="0 0 193 192"><path d="M96.604 156.729c-34.067 0-61.653-27.586-61.653-61.652 0-33.974 27.586-61.56 61.56-61.653V8.615c-47.674 0-86.369 38.695-86.369 86.462s38.695 86.461 86.462 86.461c47.674 0 86.369-38.602 86.461-86.276h-24.809c-.092 33.881-27.679 61.467-61.652 61.467z" fill="#0078D4"/><path d="M96.604 119.331c-13.423 0-24.254-10.831-24.254-24.254 0-13.33 10.831-24.161 24.161-24.254v-25.18c-27.308 0-49.34 22.125-49.34 49.434 0 27.308 22.124 49.433 49.433 49.433 27.308 0 49.34-22.032 49.433-49.34h-25.272c0 13.33-10.831 24.161-24.161 24.161z" fill="#50E6FF"/></svg>