<svg xmlns="http://www.w3.org/2000/svg" viewBox="0 0 85 85"><path d="M66.192 3.213l-27.167 40.16 4.413 2.986L70.606 6.2z" fill="#50e6ff"/><path d="M66.007 15.262a7.193 7.193 0 100-14.386 7.193 7.193 0 000 14.386zm-24.443 21.18c5.927 0 10.723 4.728 10.856 10.59h6.86c-.2-9.658-8.06-17.384-17.716-17.384-9.658 0-17.517 7.726-17.717 17.317h6.86c.134-5.861 4.93-10.523 10.857-10.523z" fill="#1f1d21"/><path d="M41.564 36.441c-5.928 0-10.723 4.73-10.856 10.59h2.93c.2-4.262 3.663-7.659 7.926-7.659s7.792 3.397 7.926 7.66h2.93c-.2-5.928-4.995-10.59-10.856-10.59z" fill="#e7e8ea"/><path d="M41.564 39.372c-4.263 0-7.793 3.397-7.926 7.66h15.918c-.2-4.263-3.73-7.66-7.992-7.66z" fill="#1f1d21"/><path d="M66.192 3.213l-27.167 40.16 4.413 2.986L70.606 6.2z" fill="#0078d4"/><path d="M66.007 15.262a7.193 7.193 0 100-14.386 7.193 7.193 0 000 14.386z" fill="#0078d4"/><path d="M41.564 36.442c5.927 0 10.723 4.728 10.856 10.59h6.86c-.2-9.658-8.06-17.384-17.716-17.384-9.658 0-17.517 7.726-17.717 17.317h6.86c.134-5.861 4.93-10.523 10.857-10.523z" fill="#50e6ff"/><path d="M41.564 36.441c-5.928 0-10.723 4.73-10.856 10.59h2.93c.2-4.262 3.663-7.659 7.926-7.659s7.792 3.397 7.926 7.66h2.93c-.2-5.928-4.995-10.59-10.856-10.59z" fill="#0078d4"/><path d="M41.564 39.372c-4.263 0-7.793 3.397-7.926 7.66h15.918c-.2-4.263-3.73-7.66-7.992-7.66z" fill="#50e6ff"/><g fill="#0078d4"><path d="M76.953 49.557v-3.62H7.513v3.62zm.007 26.279H62.348v3.486H76.96z"/><path d="M71.398 84.876V70.264h-3.485v14.612zM22.119 75.82H7.507v3.485h14.612zM7.597 56.09v10.892h18.091V56.09z"/></g><path d="M58.862 56.102v10.892h18.092V56.102z" fill="#50e6ff"/><path d="M33.23 56.102v10.892h18.09V56.102z" fill="#0078d4"/><path d="M33.23 56.102v5.556h18.09v-5.556z" fill="#50e6ff"/></svg>