<svg xmlns="http://www.w3.org/2000/svg" viewBox="0 0 140 139"><path fill-rule="evenodd" clip-rule="evenodd" d="M108.2 133.886V30.74H4.956l-.443 102.78 103.687.366z" fill="#D7E8F6"/><path fill-rule="evenodd" clip-rule="evenodd" d="M86.66 133.52V51.951H4.956l-.444 81.933 82.146-.366z" fill="#ACD1EF"/><path fill-rule="evenodd" clip-rule="evenodd" d="M66.579 131.703V71.44H4.946l-.07 61.711 61.703-1.448z" fill="#7FB9E7"/><path fill-rule="evenodd" clip-rule="evenodd" d="M4.286 134.552h45.936V88.334H4.286v46.218z" fill="#fff"/><path fill-rule="evenodd" clip-rule="evenodd" d="M140 133.704L132.348 139v-3.882H5.207a1.372 1.372 0 01-1.366-1.376V7.696H0L5.264 0l5.267 7.696H6.576v78.897H50.15c.755 0 1.368.617 1.368 1.375v44.398h80.831v-3.962l7.652 5.3zM6.576 132.366h42.205v-43.02H6.576v43.02z" fill="#0078D7"/></svg>