<svg xmlns="http://www.w3.org/2000/svg" viewBox="0 0 48 48"><path d="M39.916 3.019L21.771 29.844l2.948 1.994L42.864 5.013l-2.947-1.994z" fill="#50E6FF"/><path d="M39.793 11.07a4.804 4.804 0 100-9.61 4.804 4.804 0 000 9.61zM23.466 25.217a7.245 7.245 0 017.252 7.073H35.3c-.134-6.45-5.383-11.61-11.834-11.61-6.45 0-11.7 5.16-11.833 11.566h4.582c.09-3.915 3.292-7.029 7.251-7.029z" fill="#1F1D21"/><path d="M23.466 25.215a7.245 7.245 0 00-7.25 7.073h1.957c.133-2.847 2.446-5.116 5.293-5.116 2.848 0 5.205 2.269 5.294 5.116h1.957c-.133-3.96-3.336-7.073-7.25-7.073z" fill="#E7E8EA"/><path d="M23.466 27.176c-2.847 0-5.205 2.269-5.294 5.116h10.632c-.133-2.848-2.49-5.116-5.338-5.116z" fill="#1F1D21"/><path d="M39.916 3.019L21.771 29.844l2.948 1.994L42.864 5.013l-2.947-1.994z" fill="#0078D4"/><path d="M39.793 11.07a4.804 4.804 0 100-9.61 4.804 4.804 0 000 9.61z" fill="#0078D4"/><path d="M23.466 25.217a7.245 7.245 0 017.252 7.073H35.3c-.134-6.45-5.383-11.61-11.834-11.61-6.45 0-11.7 5.16-11.833 11.566h4.582c.09-3.915 3.292-7.029 7.251-7.029z" fill="#50E6FF"/><path d="M23.466 25.215a7.245 7.245 0 00-7.25 7.073h1.957c.133-2.847 2.446-5.116 5.293-5.116 2.848 0 5.205 2.269 5.294 5.116h1.957c-.133-3.96-3.336-7.073-7.25-7.073z" fill="#0078D4"/><path d="M23.466 27.176c-2.847 0-5.205 2.269-5.294 5.116h10.632c-.133-2.848-2.49-5.116-5.338-5.116z" fill="#50E6FF"/><path d="M47.104 33.976V31.56H.723v2.417h46.381zm.004 6.384h-9.76v2.327h9.76V40.36z" fill="#0078D4"/><path d="M43.394 46.4v-9.76h-2.328v9.76h2.328zm-32.915-6.048H.719v2.328h9.76v-2.328z" fill="#0078D4"/></svg>