<svg xmlns="http://www.w3.org/2000/svg" viewBox="0 0 46.912 46.115"><path d="M29.63 41.983q-1.1.3-2.055.536t-1.861.4q-.9.16-1.792.24t-1.826.08a22.4 22.4 0 01-5.707-.731 20.78 20.78 0 01-5.274-2.192A22.04 22.04 0 016.6 36.9a21.818 21.818 0 01-3.5-4.482 22.357 22.357 0 01-2.189-5.183 20.755 20.755 0 01-.753-5.616A21.331 21.331 0 013.034 10.8a21.658 21.658 0 017.9-7.876 21.485 21.485 0 0121.6-.023 21.59 21.59 0 017.876 7.83 21.268 21.268 0 012.968 10.89 20.258 20.258 0 01-.331 3.687 20.806 20.806 0 01-.97 3.5h-3.041a18.061 18.061 0 001.438-7.191 18.085 18.085 0 00-2.511-9.337 18.553 18.553 0 00-6.894-6.872 18.511 18.511 0 00-18.7 0 19.26 19.26 0 00-3.89 2.97 18.153 18.153 0 00-2.956 3.881 18.554 18.554 0 000 18.72 18.483 18.483 0 006.849 6.849 17.266 17.266 0 004.68 1.895 21.093 21.093 0 005.045.616 17.894 17.894 0 001.826-.091q.89-.091 1.792-.263t1.861-.434q.959-.263 2.055-.628v3.059m3.9-25.683a12.955 12.955 0 011.169 5.389 12.406 12.406 0 01-3.812 9.086l2.055 2.055a15.28 15.28 0 004.634-11.3 15.051 15.051 0 00-1.415-6.392L33.534 16.3M15.2 10.41a12.065 12.065 0 012.991-1.324 11.327 11.327 0 013.1-.434 13.829 13.829 0 015.759 1.165l1.164-2.625a15.257 15.257 0 00-6.484-1.415A15.3 15.3 0 0010.5 10.41a15.259 15.259 0 00-4.613 11.209 15.221 15.221 0 004.634 11.209l2.055-2.055a12.436 12.436 0 01-3.812-9.155 21.321 21.321 0 01.936-5.112q.959-3.356 5.5-6.1m10.433 9.337l-.023-.023a4.373 4.373 0 01.434 1.849 5.485 5.485 0 01-.068.879 3.035 3.035 0 01-.251.81 4.334 4.334 0 01-.936 1.415 4.4 4.4 0 01-1.393.936 4.5 4.5 0 01-3.333 0 7.66 7.66 0 01-.742-.4 3.091 3.091 0 01-.651-.536 4.087 4.087 0 01-.936-1.393 5.5 5.5 0 01-.32-2.123 3.692 3.692 0 011.256-2.6 4.163 4.163 0 013.061-1.257 4.467 4.467 0 011.895.434l-.023-.023 8.287-8.282 2.032 2.032-8.287 8.287m-2.466 1.872a1.483 1.483 0 10-.434 1 1.331 1.331 0 00.434-1m18.013 10.09h-2.9v5.753h-5.753v2.9h5.753v5.753h2.9v-5.754h5.73v-2.9h-5.73z" fill="#0072c6"/></svg>