<svg xmlns="http://www.w3.org/2000/svg" viewBox="0 0 49 49"><path d="M23.596 31.403l-11.51 11.515a4.568 4.568 0 01-6.462 0 4.573 4.573 0 010-6.465l11.51-11.515" fill="#0078D4"/><path d="M29.809 23.294a4.57 4.57 0 004.569-4.571 4.57 4.57 0 10-4.57 4.571z" fill="#50E6FF"/><path d="M29.824 7.294c6.024 0 11.026 4.724 11.387 10.743A11.434 11.434 0 0134.806 29a11.42 11.42 0 01-5.012 1.152 11.421 11.421 0 01-7.957-3.23 11.431 11.431 0 017.986-19.628zm-.001-4.572c-.323 0-.647.01-.973.03-8.817.533-15.536 8.109-15.003 16.93.507 8.494 7.552 15.04 15.946 15.04.323 0 .648-.009.974-.029 8.816-.53 15.535-8.109 15.002-16.93-.506-8.493-7.55-15.04-15.945-15.04h-.001z" fill="#0078D4"/></svg>