<svg xmlns="http://www.w3.org/2000/svg" viewBox="0 0 34 34"><path d="M19.424 23.375a9.504 9.504 0 01-.3-2.125H6.375V6.375h21.25v6.375a7.937 7.937 0 012.125.299V4.25H25.5V0H0v19.125h4.266v4.25h15.158zM4.267 17V4.25h19.108V2.125H2.125V17h2.142zm8.483 2.124v-9.28h2.141v9.28H12.75zm4.25 0v-7.32h2.125v7.32H17zm-8.5-5.81v5.81h2.125v-5.81H8.5zm17.464 11.837a4.127 4.127 0 003.32 0 4.329 4.329 0 002.259-2.258 4.1 4.1 0 000-3.303 4.245 4.245 0 00-2.275-2.258A3.908 3.908 0 0027.633 17a4.137 4.137 0 00-1.668.332 4.33 4.33 0 00-2.241 2.274 4.05 4.05 0 000 3.287 4.262 4.262 0 002.24 2.258zm1.694-10.277a6.405 6.405 0 00-6.409 6.376 6.173 6.173 0 001.178 3.686 44.07 44.07 0 01-.747.722 627.529 627.529 0 00-1.243 1.183l-.414.391-.435.41c-.553.542-1.25 1.25-2.091 2.125a74.025 74.025 0 00-1.57 1.66 27.09 27.09 0 00-.671.797 1.334 1.334 0 00-.366.796c0 .258.116.502.316.664.171.188.41.301.664.316.221 0 .597-.216 1.129-.648.542-.442 1.51-1.361 2.905-2.756l1.41-1.41c.111-.111.482-.498 1.113-1.162l.791-.83c.204-.211.356-.367.454-.465l.284-.283c1.051.785 2.363 1.178 3.934 1.178 1.572 0 2.983-.625 4.233-1.874A6.175 6.175 0 0034 21.216a6.406 6.406 0 00-6.342-6.342z" fill-rule="evenodd"/></svg>