<svg xmlns="http://www.w3.org/2000/svg" viewBox="0 0 49 49"><path d="M37.015 10.624c-.824 0-1.615.092-2.38.283a13.705 13.705 0 00-11.61-6.384C15.441 4.523 9.3 10.674 9.3 18.256c0 .183 0 .375.017.558a6.857 6.857 0 00-2.214-.358 6.763 6.763 0 00-6.75 6.766c0 3.504 2.68 6.384 6.084 6.725l16.13.033v-6.85c0-6.15 4.985-11.144 11.144-11.144a11.14 11.14 0 0111.144 11.145v3.454a11.024 11.024 0 001.498-2.056c.05-.092.108-.183.158-.283.283-.591.683-1.481.932-2.613.017-.109.05-.217.059-.308a10.7 10.7 0 00.183-2.006c.008-5.91-4.77-10.695-10.67-10.695z" fill="#50E6FF"/><path d="M42.525 24.759c0-4.803-3.928-8.74-8.73-8.74-4.312 0-7.907 3.172-8.598 7.3h3.579a5.25 5.25 0 011.332-2.256 5.18 5.18 0 013.695-1.531c1.39 0 2.697.55 3.695 1.531a5.18 5.18 0 011.532 3.696v2.105H25.064v17.511h17.444V27.988c.017-1.582.017-2.863.017-3.23z" fill="#0078D4"/><path d="M33.753 37.766a2.138 2.138 0 10.002-4.28 2.138 2.138 0 00-.002 4.28z" fill="#50E6FF"/></svg>