<svg xmlns="http://www.w3.org/2000/svg" viewBox="0 0 48 49"><path d="M37.89 17.235v1.154h6.31a3.785 3.785 0 003.791-3.79 3.785 3.785 0 00-3.79-3.789h-7.33a13.867 13.867 0 011.062 5.33c0 .371-.008.733-.042 1.095zm-27.764-1.128a13.855 13.855 0 011.061-5.297H3.791A3.785 3.785 0 000 14.6a3.785 3.785 0 003.79 3.789h6.302v-2.282h.034zm13.908-13.87c4.768 0 8.971 2.4 11.473 6.046h8.702A3.785 3.785 0 0048 4.494a3.785 3.785 0 00-3.79-3.79H3.791A3.785 3.785 0 000 4.495a3.785 3.785 0 003.79 3.79h8.762a13.897 13.897 0 0111.482-6.047z" fill="#0078D4"/><path d="M44.2 28.494a3.785 3.785 0 003.791-3.79 3.785 3.785 0 00-3.79-3.789h-6.31v7.58h6.31zM3.79 20.915A3.785 3.785 0 000 24.705a3.785 3.785 0 003.79 3.79h6.302v-7.58H3.791z" fill="#50E6FF"/><path d="M44.2 38.6a3.785 3.785 0 003.791-3.79 3.785 3.785 0 00-3.79-3.79h-6.31v7.58h6.31zM3.79 31.02A3.785 3.785 0 000 34.81a3.785 3.785 0 003.79 3.79h6.302v-7.58H3.791zm6.302 12.657v-2.551H3.791A3.785 3.785 0 000 44.916a3.785 3.785 0 003.79 3.789H44.2a3.785 3.785 0 003.791-3.79 3.785 3.785 0 00-3.79-3.79h-6.31v2.552H10.092z" fill="#0078D4"/><path d="M35.406 15.643c0-6.24-5.105-11.36-11.364-11.36-5.602 0-10.302 4.118-11.195 9.499h4.65a6.827 6.827 0 011.744-2.94 6.759 6.759 0 014.801-1.995c1.803 0 3.513.716 4.802 1.996a6.754 6.754 0 011.996 4.8v2.745H12.678v22.778H35.39v-21.33c.017-2.046.017-3.705.017-4.193z" fill="#0078D4"/><path d="M23.983 32.57a2.782 2.782 0 002.78-2.778 2.782 2.782 0 00-2.78-2.78 2.782 2.782 0 00-2.78 2.78 2.782 2.782 0 002.78 2.779z" fill="#50E6FF"/></svg>