<svg xmlns="http://www.w3.org/2000/svg" viewBox="0 0 48 48"><path d="M22.94 26.391c-.779 0-1.537.519-1.537 1.277 0 0-.26 5.148-3.093 8.48-2.573 3.092-8.22 3.092-8.739 3.092-.259 0-.778 0-1.037.26-.26.259-.519.518-.519 1.037 0 .778.519 1.536 1.277 1.536h.26c1.276 0 7.701-.26 10.794-4.11 3.331-4.37 3.59-10.016 3.59-10.275.28-.778-.238-1.297-.997-1.297z" fill="#0078D7"/><path d="M24.475 20.485c-4.37-.518-7.202.779-8.22 4.11-.26.779-.519 1.537-.778 2.315-.519 1.536-.778 3.332-1.796 4.888-1.277 2.315-4.11 1.796-4.37 1.537-.777-.26-1.536.26-1.795 1.037 0 .26 0 .778.26 1.038l.778.778c1.795.519 5.905.519 7.701-3.093 1.038-1.795 1.536-3.85 1.796-5.387.26-.778.519-1.536.519-2.314.518-1.277 1.276-2.315 3.85-2.315h1.537c3.332.52 4.628 1.796 4.11 5.647-.519 4.37-1.537 6.424-3.332 9.258l-.26.259c-1.536 2.833-5.147 5.148-5.147 5.148-.778.518-.778 1.276-.519 2.055.519.778 1.277.778 2.055.518.26 0 4.11-2.573 6.165-6.165l.26-.26c1.795-3.092 3.332-5.646 3.591-10.534.798-5.188-1.516-8.02-6.405-8.52z" fill="#0078D7"/><path d="M23.438 14.32s-.24 0 0 0c-4.629 0-7.961 1.277-10.535 3.851-4.37 4.37-4.37 10.794-4.37 11.054 0 .518.26.778.52 1.037.259.26.518.519 1.037.519.778 0 1.536-.778 1.277-1.536 0 0 0-5.387 3.332-8.999 2.055-2.055 4.888-3.092 8.22-3.092h.26c3.85 0 6.684 1.277 8.48 3.591 3.331 4.37 2.832 11.313 2.573 13.368-1.038 4.888-5.387 9.497-5.387 9.757-.519.518-.519 1.536 0 2.055.519.518 1.536.518 2.055 0 .26-.26 4.888-5.387 6.165-11.054.778-3.332 1.038-10.535-3.092-15.682-2.295-3.073-5.906-4.869-10.535-4.869z" fill="#0078D7"/><path d="M23.697 8.137h-.518c-11.812 0-16.44 7.701-16.44 7.701-.52.778-.26 1.537.518 2.055.778.519 1.536.26 2.055-.518.26-.26 4.11-6.425 13.867-6.425h.518c10.535.26 14.905 8.998 15.164 9.258.26.778 1.277 1.037 1.796.778.778-.26 1.037-1.277.778-1.796-.26-.519-5.407-10.794-17.738-11.053z" fill="#0078D7"/><path d="M9.052 8.654c.26 0 .779-.26 1.038-.519 0 0 3.092-3.591 11.313-3.591h1.037c8.999.26 13.368 3.85 13.628 4.11.518.519 1.536.519 2.055-.26.259-.259.259-.778.259-1.037 0-.26-.26-.778-.519-1.037-.28-.24-5.167-4.35-15.443-4.61C11.886 1.472 8.035 6.34 7.775 6.6c-.259.26-.259.778-.259 1.037 0 .26.26.779.519 1.038.519-.02.758.24 1.017-.02z" fill="#0078D7"/></svg>