<svg xmlns="http://www.w3.org/2000/svg" viewBox="0 0 48 49"><path d="M24.048 12.445h-11.81v2.352H24.04v-2.352h.008z" fill="#0078D4"/><path d="M24.048 17.205h-11.81v2.353H24.04v-2.353h.008zm0 4.77h-11.81v2.352H24.04v-2.352h.008z" fill="#50E6FF"/><path d="M9.999 25.655c-3.24 0-5.937 2.377-6.457 5.473h2.68a3.952 3.952 0 011-1.696 3.893 3.893 0 012.769-1.152c1.04 0 2.024.408 2.768 1.152A3.893 3.893 0 0113.91 32.2v1.576H3.446v13.138h13.097V32.207c0-3.608-2.944-6.553-6.544-6.553z" fill="#0078D4"/><path d="M9.998 41.777a1.688 1.688 0 000-3.376c-.928 0-1.688.76-1.688 1.688 0 .928.752 1.688 1.688 1.688z" fill="#50E6FF"/><path d="M31.537 28.56a16.676 16.676 0 003.448-10.17c0-5.632-2.792-10.609-7.064-13.641a16.643 16.643 0 00-9.674-3.064c-9.225 0-16.706 7.48-16.706 16.705 0 2.945.76 5.705 2.097 8.113a8.615 8.615 0 014.096-2.544 11.855 11.855 0 01-1.376-5.569c0-6.584 5.329-11.92 11.921-11.92 3.977 0 7.481 1.935 9.642 4.928a11.83 11.83 0 012.272 7c.016 2.6-.832 5.017-2.265 6.977a11.909 11.909 0 01-9.593 4.929c.136.616.208 1.248.208 1.888v2.896a16.725 16.725 0 009.378-3.08c.072-.048.152-.112.224-.16l14.97 14.97 3.344-3.329-14.922-14.93z" fill="#0078D7"/><path d="M11.35 30.84a1.902 1.902 0 00-2.712 0c-.24.24-.408.528-.496.84l-.008.016c.04.024.072.056.112.08h3.625a1.914 1.914 0 00-.52-.936z" fill="#0078D7"/></svg>