<svg xmlns="http://www.w3.org/2000/svg" viewBox="0 0 48 49"><path d="M27.569 24.01h.447m-.447-18.405h.447" stroke="#75757A" stroke-width="1.013" stroke-miterlimit="10"/><path d="M24.004 48.03c13.115 0 23.819-10.675 23.819-23.752C47.823 11.201 37.11.535 24.004.535 10.89.535.186 11.21.186 24.278c0 13.069 10.704 23.751 23.818 23.751z" fill="#0078D4"/><path d="M24.266.621h-.447v47.41h.447V.621z" fill="#fff"/><path d="M24.004 36.02C10.797 36.02.01 30.775.01 24.37c0-6.403 10.788-11.648 23.995-11.648S48 17.967 48 24.371c-.01 6.404-10.797 11.649-23.996 11.649zm0-22.945C10.982 13.075.455 18.143.455 24.278c0 6.136 10.527 11.204 23.55 11.204 13.021 0 23.548-5.068 23.548-11.204-.008-6.135-10.527-11.203-23.549-11.203z" fill="#fff"/><path d="M24.004 48.3c-6.422 0-11.682-10.757-11.682-23.927S17.582.445 24.004.445c6.422 0 11.682 10.766 11.682 23.928s-5.26 23.928-11.682 23.928zm0-47.502c-6.245 0-11.235 10.498-11.235 23.483 0 12.985 5.082 23.482 11.235 23.482S35.239 37.266 35.239 24.28 30.241.798 24.004.798z" fill="#fff"/><path d="M47.813 24.1H.277v.446h47.545v-.445h-.009zm-23.81 13.786c1.163 0 2.14-.975 2.14-2.135 0-1.16-.977-2.135-2.14-2.135-1.163 0-2.14.975-2.14 2.135 0 1.16.977 2.135 2.14 2.135z" fill="#fff"/><path d="M12.5 26.063a1.79 1.79 0 001.787-1.782c0-.975-.801-1.782-1.787-1.782a1.79 1.79 0 00-1.787 1.782c0 .983.8 1.782 1.787 1.782z" fill="#fff"/><path d="M24.071 26.683a2.432 2.432 0 002.444-2.438 2.432 2.432 0 00-2.444-2.437 2.432 2.432 0 00-2.444 2.437 2.432 2.432 0 002.444 2.438zm0-11.43a2.432 2.432 0 002.444-2.437 2.432 2.432 0 00-2.444-2.438 2.432 2.432 0 00-2.444 2.438 2.432 2.432 0 002.444 2.437zm11.336 11.43a2.432 2.432 0 002.444-2.438 2.432 2.432 0 00-2.444-2.437 2.432 2.432 0 00-2.444 2.437 2.432 2.432 0 002.444 2.438z" fill="#50E6FF"/><path d="M34.084 35.617c.691 0 1.256-.563 1.256-1.253 0-.689-.565-1.252-1.256-1.252-.691 0-1.256.563-1.256 1.252 0 .69.565 1.253 1.256 1.253zm-20.254 0c.692 0 1.256-.563 1.256-1.253a1.256 1.256 0 00-2.511 0c0 .69.564 1.253 1.256 1.253zm20.254-20.281c.691 0 1.256-.563 1.256-1.252 0-.69-.565-1.252-1.256-1.252a1.252 1.252 0 100 2.505zm-20.254 0c.692 0 1.256-.563 1.256-1.252 0-.69-.564-1.252-1.255-1.252a1.252 1.252 0 100 2.505z" fill="#fff"/></svg>