<svg xmlns="http://www.w3.org/2000/svg" viewBox="0 0 49 49"><path d="M35.874 17.157c0-6.39-5.233-11.626-11.619-11.626-5.746 0-10.542 4.226-11.46 9.715h4.754a6.966 6.966 0 011.784-3.014 6.913 6.913 0 014.914-2.045c1.85 0 3.592.723 4.913 2.045a6.92 6.92 0 012.045 4.916c0 .37 0 1.423-.009 2.803h-18.56v23.327h23.23V21.484c.008-2.113.008-3.822.008-4.327z" fill="#0078D4"/><path d="M24.255 34.155a3.006 3.006 0 000-6.01 3.006 3.006 0 000 6.01z" fill="#50E6FF"/><path d="M45.626 45.752h-5.023v2.592h7.539v-7.61h-2.516v5.018zM45.592 2.915v5.026h2.592V.398h-7.615v2.517h5.023zM2.758 2.956h5.023V.363H.243v7.61h2.515V2.956zM2.834 45.772v-5.026H.243v7.543h7.606v-2.517H2.834z" fill="#0078D4"/></svg>