<svg xmlns="http://www.w3.org/2000/svg" viewBox="0 0 49 49"><path d="M23.998.215A54.144 54.144 0 017.625 6.387v28.947l16.298 12.849 16.575-12.815V6.387A54.139 54.139 0 0124.116.215h-.118z" fill="#0078D4"/><path d="M29.44 21.406h-.615c-.379 0-.758.101-1.061.32a6.845 6.845 0 01-4.026 1.305 6.845 6.845 0 01-4.026-1.305 1.813 1.813 0 00-1.061-.32 2.255 2.255 0 00-2.24 1.97l-1.323 9.877h17.915l-1.323-9.877a2.255 2.255 0 00-2.24-1.97zM24.04 20.441a5.036 5.036 0 10-5.036-5.035 5.036 5.036 0 005.037 5.035z" fill="#50E6FF"/></svg>