<svg xmlns="http://www.w3.org/2000/svg" viewBox="0 0 144.922 82.027"><path d="M121.132 34.339a20.7 20.7 0 00-2.43.092 24.683 24.683 0 002.43-10.539 23.83 23.83 0 00-47.5-2.8A23.814 23.814 0 0032.1 35.838a22.6 22.6 0 00-8.3-1.5 23.844 23.844 0 000 47.688h97.332a23.844 23.844 0 000-47.688z" fill="#b1e1f2"/><path d="M121.132 34.339a20.7 20.7 0 00-2.43.092 20.7 20.7 0 012.43-.092z" fill="#0074d0"/><path d="M120.946 21.088L92.386 43.3a20.881 20.881 0 01-31.353 27.433l-1.771-1.771-16.8 13.065h78.671a23.794 23.794 0 0023.79-23.891c0-.931 0-1.862-.092-2.8a23.83 23.83 0 00-23.7-21 20.7 20.7 0 00-2.43.092h-.095a23.433 23.433 0 002.525-10.539 27.857 27.857 0 00-.185-2.801z" fill="#6dc2e9" opacity=".37"/><path d="M61.033 70.733a20.883 20.883 0 1029.491-29.576l-4.577-4.574-29.491 29.491z" opacity=".62"/><path d="M93.507 52.817a20.858 20.858 0 11-20.9-20.9 20.852 20.852 0 0120.9 20.9z" fill="#0078d7"/><path d="M52.17 56.923a20.909 20.909 0 0040.964 0 48.149 48.149 0 00-40.964 0z" fill="#006fc8"/><path d="M85.947 53.568a12.457 12.457 0 11-12.411-12.5 12.466 12.466 0 0112.411 12.5z" fill="#006fc8"/><path d="M72.6 31.915h-.278v5.6a.3.3 0 00.278.281.249.249 0 00.281-.281v-5.6zM67.564 32.568c-.186 0-.372.092-.653.092l1.026 3.829c.095.095.186.186.281.186h.092c.186-.092.281-.186.186-.372zM62.431 34.525a1.87 1.87 0 01-.467.287l1.957 3.447c0 .095.186.095.281.095h.092a.223.223 0 00.095-.372zM58.135 37.8l-.467.464 2.806 2.711c.092.095.092.095.186.095s.186 0 .186-.095a.2.2 0 000-.379zM54.685 42.091c-.092.186-.186.278-.278.464l3.447 2.052h.186a.21.21 0 00.2-.186.23.23 0 00-.1-.372zM52.542 47.129c-.092.189-.092.376-.186.562l3.914 1.023h.095c.092 0 .186-.092.281-.186 0-.186-.095-.372-.281-.372zM57.482 52.536h-5.691v.559h5.691a.417.417 0 00.372-.278c.001-.186-.186-.281-.372-.281zM52.356 57.949c.095.186.095.281.186.467-.091-.186-.091-.281-.186-.467z" fill="#000b79"/><path d="M56.365 56.832l-.095.092-3.914 1.026c.095.186.095.281.186.467v.092l3.914-1.023c.189-.095.281-.189.189-.376a.3.3 0 00-.28-.278z" fill="#000a70"/><path d="M54.408 62.99l.278.559-.278-.559z" fill="#000b79"/><path d="M58.041 60.938a.091.091 0 00-.092.095l-3.541 1.957.278.559 3.55-2.049c.092-.095.186-.281.092-.372s-.193-.19-.287-.19zM60.752 64.483a.294.294 0 00-.186.092l-2.9 2.8.467.467 2.9-2.9a.287.287 0 000-.372.349.349 0 00-.281-.087zM64.294 67.1c-.092 0-.186.092-.278.186l-1.957 3.447a.911.911 0 00.464.372l2.058-3.542c.095-.092 0-.278-.092-.372s-.101-.091-.195-.091zM68.4 68.776a.249.249 0 00-.281.281L67.1 72.886c.186.092.372.092.559.186l1.026-3.923a.712.712 0 00-.189-.372zM72.791 67.564c-.186 0-.278.186-.278.376v5.69h.559v-5.691c0-.189-.095-.375-.281-.375zM77.178 68.776h-.092a.233.233 0 00-.186.372l1.026 3.829c.186 0 .372-.092.559-.092l-1.026-3.923c0-.091-.186-.186-.281-.186zM81.282 67.005a.318.318 0 00-.186.095.231.231 0 00-.095.372l1.957 3.447c.2-.092.382-.186.568-.278l-2.058-3.45a.2.2 0 00-.186-.186zM84.738 64.294a.317.317 0 00-.186.095c-.186.186-.186.372 0 .467l2.793 2.8c.095-.186.281-.281.376-.467l-2.8-2.8a.33.33 0 00-.183-.095zM87.44 60.847c-.095 0-.281 0-.281.092a.41.41 0 00.095.467l3.362 1.957c.095-.186.281-.372.372-.559l-3.456-1.957zM89.116 56.737c-.186 0-.278.095-.278.186-.095.186 0 .372.186.372l3.734 1.026c.095-.186.095-.372.189-.559l-3.832-1.026z" fill="#000a70"/><path d="M93.507 52.35h-5.6a.279.279 0 100 .559h5.6v-.559zM92.667 46.936l-3.737 1.033a.491.491 0 00-.186.372c0 .095.186.186.281.186h.092l3.737-.931c-.095-.278-.095-.467-.187-.66zM90.524 42l-3.365 1.957c-.092.095-.186.281-.092.372s.186.186.278.186a.092.092 0 00.095-.092l3.36-1.868c-.09-.186-.185-.372-.276-.555zM87.159 37.8l-2.7 2.7a.2.2 0 000 .382c0 .092.095.092.186.092s.095 0 .186-.092l2.7-2.711a8.67 8.67 0 00-.372-.371zM82.772 34.525l-1.957 3.362c-.095.095 0 .281.186.372l.095.095c.092 0 .186-.095.278-.186l1.872-3.355a2.316 2.316 0 00-.474-.288zM77.74 32.568L76.7 36.3c0 .095.095.281.2.281l.092.092a.247.247 0 00.281-.278L78.3 32.66c-.187 0-.374-.092-.56-.092z" fill="#000b79"/><path d="M85.016 52.817A12.411 12.411 0 1172.6 40.406a12.4 12.4 0 0112.416 12.411z" fill="#00188f"/><path d="M72.327 60.1v5.126h.273V60.1zM70.455 59.821l-1.307 4.848a.349.349 0 00.281.092l1.313-4.845zM68.684 58.975l-2.519 4.387c.095.095.186.095.281.186l2.516-4.387zM77.645 58.23l3.542 3.548c.095-.092.186-.092.186-.186l-3.542-3.643zM78.858 56.737l4.387 2.519c0-.095.095-.189.186-.281l-4.482-2.516zM79.7 54.966l4.855 1.307c0-.095.092-.186.092-.281l-4.946-1.3zM79.975 53.095h5.041v-.278h-5.041zM74.284 60.007l1.3 4.848c.095 0 .186-.095.281-.095l-1.307-4.845zM76.055 59.256l2.522 4.479c.095-.092.186-.186.281-.186l-2.525-4.387z" fill="#0078d7"/><path d="M67.658 47.41l-3.643-3.643a.2.2 0 01-.186.186l3.643 3.647zM67.191 57.763l-3.548 3.643c.092 0 .092.095.186.186l3.643-3.643zM65.607 50.579l-4.855-1.3a.343.343 0 00-.092.278l4.855 1.307zM66.446 48.9l-4.387-2.62c-.095.095-.095.186-.186.281l4.387 2.525zM65.421 54.408l-4.855 1.3a.338.338 0 00.095.281l4.855-1.3zM65.329 52.444h-5.136v.372h5.136zM66.165 56.178l-4.482 2.61c.095 0 .095.092.189.186l4.387-2.516zM79.789 51.138l4.949-1.3a.342.342 0 01-.095-.281L79.7 50.86zM72.886 45.447v-5.041H72.6v5.041zM69.243 46.283l-2.61-4.383a.33.33 0 01-.186.095l2.516 4.381zM71.02 45.633l-1.313-4.949a.322.322 0 01-.278.1l1.313 4.94zM79.138 49.367l4.387-2.525c0-.092-.095-.186-.095-.278l-4.482 2.525zM74.843 45.724l1.3-4.845c-.092 0-.186-.095-.278-.095l-1.307 4.94zM78.018 47.782l3.636-3.548c-.095-.095-.186-.186-.281-.186L77.832 47.6zM76.519 46.564l2.525-4.381s-.095-.092-.186-.186l-2.525 4.381z" fill="#4052ab"/><path d="M79.416 48.808l-13.251 7.557.095.095-.559.372-.467 2.9 1.957-1.966.281.186-2.332 2.336-.278 2.143a13.587 13.587 0 001.4 1.026 11.93 11.93 0 005.038 1.676 5.626 5.626 0 001.3.095 12.631 12.631 0 003.355-.467 20.885 20.885 0 002.617-1.026l-2.522-4.479.278-.095 2.525 4.387c-.095 0-.186.095-.281.095h.186c.376-.281.748-.467 1.121-.745a12.341 12.341 0 003.456-3.832 11.982 11.982 0 001.676-4.937v-1.034h-5.036v-.278h5.041a9.188 9.188 0 00-.092-1.585l-2.058-.932-3.078.84-.088-.28 2.8-.748-2.705-1.117-.65.372-.189-.278.562-.281zm5.136 7.465L79.7 54.966v-.278l4.946 1.3c-.003.099-.094.19-.094.285zm-1.307 2.983l-4.387-2.519.092-.278 4.482 2.516c-.092.092-.187.186-.187.281zm-2.058 2.522l-3.542-3.548.186-.281 3.542 3.643c0 .094-.091.094-.186.186zm-14.741 1.771c-.095-.092-.186-.092-.281-.186l2.519-4.387.278.186zm2.983 1.212a.349.349 0 01-.281-.092l1.307-4.848.287.095zm6.158.095l-1.3-4.848.278-.092 1.307 4.845c-.098 0-.19.095-.285.095zm-2.983.372h-.278V60.1h.274z" fill="#002050"/><path d="M72.6 60.1h-.278v5.126h.278zM67.191 57.763l-1.957 1.966-.094.559 2.332-2.339-.281-.186zM70.455 59.821l-1.307 4.848a.349.349 0 00.281.092l1.313-4.845zM68.684 58.975l-2.519 4.387c.095.095.186.095.281.186l2.516-4.387zM66.165 56.365l-.464.186v.281l.559-.373-.095-.094zM77.832 57.949l-.186.281 3.542 3.548c.095-.092.186-.092.186-.186zM78.949 56.459l-.092.278 4.387 2.519c0-.095.095-.189.186-.281zM79.7 54.689v.278l4.855 1.307c0-.095.092-.186.092-.281zM85.016 52.817h-5.041v.278h5.041v-.278zM74.562 59.916l-.278.092 1.3 4.848c.095 0 .186-.095.281-.095zM82.494 50.112l-2.797.748.092.278 3.077-.84-.372-.186zM76.332 59.161l-.278.095 2.522 4.479v-.092c.095 0 .186-.095.281-.095zM79.511 48.808l-.562.281.189.278.651-.373-.278-.186z" fill="#4052ab"/><path d="M80.534 52.817a7.883 7.883 0 11-7.934-7.932 7.907 7.907 0 017.934 7.932z" fill="#fff"/><path d="M79.975 52.817a7.323 7.323 0 11-7.37-7.37 7.315 7.315 0 017.37 7.37z" fill="#0078d7"/></svg>