<svg xmlns="http://www.w3.org/2000/svg" viewBox="0 0 49 49"><path d="M47.316 23.637c.016-.108.05-.215.057-.306.125-.654.183-1.316.183-1.995 0-5.868-4.752-10.628-10.62-10.628-.82 0-1.606.091-2.367.282A13.593 13.593 0 0023.03 4.633c-7.54 0-13.65 6.117-13.65 13.657 0 .182 0 .372.017.555a6.822 6.822 0 00-2.201-.356 6.726 6.726 0 00-6.713 6.729c0 3.485 2.665 6.348 6.05 6.688l30.41.058c3.99 0 7.458-2.202 9.287-5.455.05-.091.108-.182.157-.281.282-.58.68-1.457.928-2.591z" fill="#50E6FF"/><path d="M42.556 24.757c0-4.776-3.907-8.69-8.682-8.69-4.288 0-7.864 3.153-8.55 7.258h3.558a5.22 5.22 0 011.325-2.243 5.152 5.152 0 013.675-1.523c1.382 0 2.682.547 3.675 1.523a5.152 5.152 0 011.523 3.675v2.094H25.19v17.415h17.35V27.97c.016-1.573.016-2.848.016-3.212z" fill="#0078D4"/><path d="M33.831 37.692a2.127 2.127 0 10.001-4.256 2.127 2.127 0 000 4.256z" fill="#50E6FF"/></svg>