<svg xmlns="http://www.w3.org/2000/svg" viewBox="0 0 48 49"><path d="M47.296 24.127c.017-.107.05-.215.058-.306a10.66 10.66 0 00.182-1.995c0-5.868-4.751-10.628-10.62-10.628a9.68 9.68 0 00-2.367.282 13.593 13.593 0 00-11.538-6.357c-7.54 0-13.649 6.117-13.649 13.657 0 .182 0 .372.017.555a6.822 6.822 0 00-2.202-.356 6.726 6.726 0 00-6.713 6.729c0 3.485 2.666 6.349 6.05 6.688l30.41.058c3.99 0 7.458-2.202 9.288-5.455.05-.09.107-.182.157-.281a11.4 11.4 0 00.927-2.59z" fill="#50E6FF"/><path d="M42.537 25.247c0-4.775-3.907-8.69-8.683-8.69-4.287 0-7.863 3.153-8.55 7.259h3.559a5.22 5.22 0 011.324-2.244 5.152 5.152 0 013.675-1.523c1.383 0 2.682.547 3.675 1.523a5.152 5.152 0 011.523 3.675v2.095H25.171v17.415h17.35V28.459c.016-1.573.016-2.847.016-3.212z" fill="#0078D4"/><path d="M33.812 38.182a2.127 2.127 0 10.001-4.256 2.127 2.127 0 00-.001 4.256z" fill="#50E6FF"/></svg>