<svg xmlns="http://www.w3.org/2000/svg" viewBox="0 0 49 49"><path d="M34.175 18.61c0-5.16-4.222-9.383-9.382-9.383-4.638 0-8.51 3.409-9.254 7.842h3.84a5.666 5.666 0 011.439-2.435 5.584 5.584 0 013.97-1.653c1.491 0 2.903.587 3.969 1.653a5.584 5.584 0 011.654 3.97c0 .302 0 1.147-.006 2.262H15.41v18.825h18.76V22.099c.005-1.702.005-3.08.005-3.49z" fill="#0078D4"/><path d="M24.793 32.328a2.424 2.424 0 100-4.848 2.424 2.424 0 000 4.848z" fill="#50E6FF"/><path d="M.793.453v10.105h5.053V5.506h5.052V.453H.793zM38.688.453v5.053h5.052v5.052h5.053V.453H38.688zM5.846 38.348H.793v10.105h10.105V43.4H5.846v-5.052zM43.74 43.4h-5.053v5.053h10.106V38.348H43.74V43.4z" fill="#0078D4"/></svg>