<svg xmlns="http://www.w3.org/2000/svg" viewBox="0 0 49 49"><path d="M37.91 16.745V17.9h6.31a3.785 3.785 0 003.79-3.79 3.785 3.785 0 00-3.79-3.789h-7.329a13.866 13.866 0 011.062 5.33c0 .371-.009.733-.043 1.095zM10.145 15.617c.009-1.878.38-3.663 1.062-5.297H3.81a3.785 3.785 0 00-3.79 3.79 3.785 3.785 0 003.79 3.79h6.301v-2.283h.034zM24.053 1.747c4.768 0 8.972 2.4 11.474 6.047h8.702a3.785 3.785 0 003.79-3.79 3.785 3.785 0 00-3.79-3.79H3.81a3.785 3.785 0 00-3.79 3.79 3.785 3.785 0 003.79 3.79h8.761a13.897 13.897 0 0111.482-6.047z" fill="#0078D4"/><path d="M44.22 28.005a3.785 3.785 0 003.79-3.79 3.785 3.785 0 00-3.79-3.79h-6.31v7.58h6.31zM3.81 20.426a3.785 3.785 0 00-3.79 3.79 3.785 3.785 0 003.79 3.789h6.301v-7.58h-6.3z" fill="#50E6FF"/><path d="M44.22 38.11a3.785 3.785 0 003.79-3.79 3.785 3.785 0 00-3.79-3.789h-6.31v7.579h6.31zM3.81 30.531a3.785 3.785 0 00-3.79 3.79 3.785 3.785 0 003.79 3.789h6.301v-7.579h-6.3zM10.111 43.188v-2.551h-6.3a3.785 3.785 0 00-3.791 3.79 3.785 3.785 0 003.79 3.788h40.41a3.785 3.785 0 003.791-3.789 3.785 3.785 0 00-3.79-3.79h-6.31v2.552h-27.8z" fill="#0078D4"/><path d="M35.426 15.153c0-6.24-5.105-11.36-11.364-11.36-5.602 0-10.303 4.118-11.196 9.499h4.65a6.827 6.827 0 011.744-2.94 6.759 6.759 0 014.802-1.995c1.802 0 3.512.716 4.801 1.996a6.753 6.753 0 011.997 4.8v2.745H12.698v22.778h22.71v-21.33c.018-2.046.018-3.705.018-4.193z" fill="#0078D4"/><path d="M24.003 32.081a2.782 2.782 0 002.78-2.779 2.782 2.782 0 00-2.78-2.779 2.782 2.782 0 00-2.78 2.78 2.782 2.782 0 002.78 2.778z" fill="#50E6FF"/></svg>