<svg xmlns="http://www.w3.org/2000/svg" viewBox="0 0 48 48"><path d="M48 22.185c0-6.14-5.08-11.107-11.36-11.107-.6 0-1.177.045-1.73.136-1.525-4.47-5.82-7.676-10.875-7.676-6.026 0-10.967 4.583-11.383 10.362a10.424 10.424 0 00-2.54-.316C4.526 13.584 0 18.009 0 23.472c0 4.921 3.694 9.008 8.52 9.753l.6.067c.323.023 27.613-.022 27.613-.022C42.943 33.247 48 28.28 48 22.185zm-33.095 13.91H4v3.428c0 1.494 2.445 2.704 5.464 2.704 3.02 0 5.465-1.21 5.465-2.704 0 0 0-3.405-.024-3.428z" fill="#0078D4"/><path d="M14.905 29.962H4v5.142c0 2.242 2.445 4.057 5.464 4.057 3.02 0 5.465-1.815 5.465-4.057 0 0 0-5.107-.024-5.142z" fill="#50E6FF"/><path d="M14.929 28.429H4v3.923c0 2.068 2.445 3.742 5.464 3.742 3.02 0 5.465-1.674 5.465-3.742v-3.923z" fill="#50E6FF"/><path d="M9.464 31.495c3.018 0 5.465-1.373 5.465-3.066 0-1.694-2.447-3.066-5.465-3.066S4 26.735 4 28.428c0 1.693 2.446 3.066 5.464 3.066z" fill="#fff"/><path d="M9.464 30.18c2.347 0 4.25-.808 4.25-1.806s-1.903-1.807-4.25-1.807-4.25.81-4.25 1.807c0 .998 1.903 1.807 4.25 1.807z" fill="#0062AD"/><path d="M29.476 36.095H18.571v3.428c0 1.494 2.445 2.704 5.465 2.704s5.464-1.21 5.464-2.704c0 0 0-3.405-.024-3.428z" fill="#0078D4"/><path d="M29.476 29.962H18.571v5.142c0 2.242 2.445 4.057 5.465 4.057s5.464-1.815 5.464-4.057c0 0 0-5.107-.024-5.142z" fill="#50E6FF"/><path d="M29.5 28.429H18.571v3.923c0 2.068 2.445 3.742 5.465 3.742S29.5 34.42 29.5 32.352v-3.923z" fill="#50E6FF"/><path d="M24.036 31.495c3.018 0 5.464-1.373 5.464-3.066 0-1.694-2.446-3.066-5.464-3.066-3.018 0-5.465 1.372-5.465 3.066 0 1.693 2.447 3.066 5.465 3.066z" fill="#fff"/><path d="M24.036 30.18c2.347 0 4.25-.808 4.25-1.806s-1.903-1.807-4.25-1.807c-2.348 0-4.25.81-4.25 1.807 0 .998 1.902 1.807 4.25 1.807z" fill="#0062AD"/><path d="M44.047 36.095H33.143v3.428c0 1.494 2.444 2.704 5.464 2.704 3.02 0 5.464-1.21 5.464-2.704 0 0 0-3.405-.024-3.428z" fill="#0078D4"/><path d="M44.047 29.962H33.143v5.142c0 2.242 2.444 4.057 5.464 4.057 3.02 0 5.464-1.815 5.464-4.057 0 0 0-5.107-.024-5.142z" fill="#50E6FF"/><path d="M44.071 28.429H33.143v3.923c0 2.068 2.444 3.742 5.464 3.742 3.02 0 5.464-1.674 5.464-3.742v-3.923z" fill="#50E6FF"/><path d="M38.607 31.495c3.018 0 5.464-1.373 5.464-3.066 0-1.694-2.446-3.066-5.464-3.066-3.018 0-5.464 1.372-5.464 3.066 0 1.693 2.446 3.066 5.464 3.066z" fill="#fff"/><path d="M38.607 30.18c2.347 0 4.25-.808 4.25-1.806s-1.903-1.807-4.25-1.807-4.25.81-4.25 1.807c0 .998 1.903 1.807 4.25 1.807z" fill="#0062AD"/></svg>