<svg xmlns="http://www.w3.org/2000/svg" viewBox="0 0 49 49"><path d="M10.125.047H.02v47.966h10.105V.047zM22.756.047H12.65v47.966h10.106V.047zM35.389.047H25.282v47.966h10.105V.047zM48.02.047H37.913v47.966H48.02V.047z" fill="#0078D4"/><path d="M6.268 41.734H3.725v2.545h2.543v-2.545zM6.268 36.68H3.725v2.545h2.543V36.68zM18.96 41.734h-2.544v2.545h2.543v-2.545zM18.96 36.68h-2.544v2.545h2.543V36.68zM31.615 41.734h-2.543v2.545h2.543v-2.545zM31.615 36.68h-2.543v2.545h2.543V36.68zM44.196 41.734h-2.543v2.545h2.543v-2.545zM44.196 36.68h-2.543v2.545h2.543V36.68z" fill="#50E6FF"/></svg>