<svg xmlns="http://www.w3.org/2000/svg" viewBox="0 0 49 49"><path d="M.02 10.205h48V.031h-48v10.174zM.02 35.44h48V25.265h-48v10.173zM.02 22.94h48V12.765h-48v10.173zM.02 47.955h48V37.781h-48v10.174z" fill="#0078D4"/><path d="M22.634 5.153A2.475 2.475 0 0120.16 7.62a2.475 2.475 0 01-2.475-2.466 2.475 2.475 0 012.475-2.465 2.47 2.47 0 012.475 2.465z" fill="#fff"/><path d="M7.48 5.153A2.475 2.475 0 015.004 7.62 2.475 2.475 0 012.53 5.153a2.475 2.475 0 012.475-2.465A2.47 2.47 0 017.48 5.152zM15.057 5.153a2.475 2.475 0 01-2.475 2.466 2.475 2.475 0 01-2.476-2.466 2.475 2.475 0 012.476-2.465 2.47 2.47 0 012.475 2.465z" fill="#50E6FF"/><path d="M22.634 17.74a2.475 2.475 0 01-2.475 2.465 2.475 2.475 0 01-2.475-2.466 2.475 2.475 0 012.475-2.466 2.47 2.47 0 012.475 2.466z" fill="#fff"/><path d="M7.48 17.74a2.475 2.475 0 01-2.476 2.465A2.475 2.475 0 012.53 17.74a2.475 2.475 0 012.475-2.466A2.47 2.47 0 017.48 17.74zM15.057 17.74a2.475 2.475 0 01-2.475 2.465 2.475 2.475 0 01-2.476-2.466 2.475 2.475 0 012.476-2.466 2.47 2.47 0 012.475 2.466z" fill="#50E6FF"/><path d="M22.634 30.317a2.475 2.475 0 01-2.475 2.466 2.475 2.475 0 01-2.475-2.466 2.475 2.475 0 012.475-2.465 2.47 2.47 0 012.475 2.465z" fill="#fff"/><path d="M7.48 30.317a2.475 2.475 0 01-2.476 2.466 2.475 2.475 0 01-2.475-2.466 2.475 2.475 0 012.475-2.465 2.47 2.47 0 012.476 2.465zM15.057 30.317a2.475 2.475 0 01-2.475 2.466 2.475 2.475 0 01-2.476-2.466 2.475 2.475 0 012.476-2.465 2.47 2.47 0 012.475 2.465z" fill="#50E6FF"/><path d="M22.634 42.896a2.475 2.475 0 01-2.475 2.465 2.475 2.475 0 01-2.475-2.465 2.475 2.475 0 012.475-2.466 2.47 2.47 0 012.475 2.466z" fill="#fff"/><path d="M7.48 42.896a2.475 2.475 0 01-2.476 2.465 2.475 2.475 0 01-2.475-2.465 2.475 2.475 0 012.475-2.466 2.47 2.47 0 012.476 2.466zM15.057 42.896a2.475 2.475 0 01-2.475 2.465 2.475 2.475 0 01-2.476-2.465 2.475 2.475 0 012.476-2.466 2.47 2.47 0 012.475 2.466z" fill="#50E6FF"/></svg>