<svg xmlns="http://www.w3.org/2000/svg" viewBox="0 0 49 49"><path d="M47.944.266H.053v5.037h47.89V.266z" fill="#50E6FF"/><path d="M47.944 5.219H.053v17.648h47.89V5.22zM10.136 25.336H.053V35.42h10.083V25.335zM22.74 25.336H12.657V35.42H22.74V25.335z" fill="#0078D4"/><path d="M35.341 25.336H25.258V35.42H35.34V25.335zM47.944 25.336H37.87V35.42h10.084V25.335h-.009z" fill="#50E6FF"/><path d="M22.739 37.938H.053V48.02h22.686V37.937z" fill="#0078D4"/><path d="M47.944 37.938H25.258v10.075h22.686V37.938zM41.588 13.902L35.35 7.664v4.19H6.207v4.433H35.35v3.854l6.238-6.239z" fill="#50E6FF"/></svg>