<svg xmlns="http://www.w3.org/2000/svg" viewBox="0 0 49 49"><path d="M45.885 28.838h2.612V16.301h-48v12.546h27.788a12.52 12.52 0 018.796-3.59c3.42 0 6.538 1.365 8.804 3.581zm-19.631 2.588H.497v12.546h25.605a12.51 12.51 0 01-1.6-6.142c0-2.334.64-4.525 1.752-6.404zM48.497 1.075h-48V13.62h48V1.075z" fill="#0078D7"/><path d="M8.325 10.033a2.612 2.612 0 100-5.224 2.612 2.612 0 000 5.224zm0 30.347a2.612 2.612 0 100-5.223 2.612 2.612 0 000 5.224zm0-15.124a2.612 2.612 0 100-5.224 2.612 2.612 0 000 5.224z" fill="#50E6FF"/><path d="M30.282 40.18a7.036 7.036 0 01.176-5.452 7.09 7.09 0 013.977-3.733 6.902 6.902 0 013.219-.421l-.312 1.744 3.876-2.106-2.899-3.387-.337 1.904a8.98 8.98 0 00-9.234 5.232 8.931 8.931 0 00-.219 6.892 8.878 8.878 0 003.042 4.036l.337.253 1.112-1.517-.337-.253a7.113 7.113 0 01-2.401-3.193zm15.098-5.705a8.963 8.963 0 00-2.595-3.682l-1.222 1.416a7.137 7.137 0 01-2.098 12.116 6.998 6.998 0 01-1.955.43l.11-1.913-3.623 2.51 3.269 3.38.126-2.082a9.164 9.164 0 002.73-.564c4.651-1.753 7.01-6.96 5.258-11.61z" fill="#0078D7"/></svg>