<svg xmlns="http://www.w3.org/2000/svg" viewBox="0 0 49 49"><path d="M10.603.919H.497v47.966h10.106V.92zM23.233.918H13.128v47.967h10.105V.918zM35.866.918H25.761v47.967h10.105V.918zM48.497.918H38.392v47.967h10.105V.918z" fill="#0078D4"/><path d="M6.746 42.606H4.202v2.545h2.544v-2.545zM6.746 37.551H4.202v2.545h2.544v-2.545zM19.437 42.606h-2.543v2.545h2.543v-2.545zM19.437 37.551h-2.543v2.545h2.543v-2.545zM32.093 42.606H29.55v2.545h2.543v-2.545zM32.093 37.551H29.55v2.545h2.543v-2.545zM44.674 42.606H42.13v2.545h2.543v-2.545zM44.674 37.551H42.13v2.545h2.543v-2.545z" fill="#50E6FF"/></svg>