<svg xmlns="http://www.w3.org/2000/svg" viewBox="0 0 49 49"><path d="M10.603.919H.497v47.966h10.106V.92zm12.63-.001H13.128v47.967h10.105V.918zm12.633 0H25.761v47.967h10.105V.918zm12.631 0H38.392v47.967h10.105V.918z" fill="#0078D4"/><path d="M6.746 42.606H4.202v2.545h2.544v-2.545zm0-5.055H4.202v2.545h2.544v-2.545zm12.691 5.055h-2.543v2.545h2.543v-2.545zm0-5.055h-2.543v2.545h2.543v-2.545zm12.656 5.055H29.55v2.545h2.543v-2.545zm0-5.055H29.55v2.545h2.543v-2.545zm12.581 5.055H42.13v2.545h2.543v-2.545zm0-5.055H42.13v2.545h2.543v-2.545z" fill="#50E6FF"/></svg>