<svg xmlns="http://www.w3.org/2000/svg" viewBox="0 0 49 49"><path d="M.498 11.077h48V.903h-48v10.174zm0 25.235h48V26.138h-48v10.174zm0-12.5h48V13.638h-48v10.174zm0 25.016h48V38.654h-48v10.174z" fill="#0078D4"/><path d="M23.112 6.026a2.475 2.475 0 01-2.475 2.466 2.475 2.475 0 01-2.475-2.466 2.475 2.475 0 012.475-2.466 2.47 2.47 0 012.475 2.466z" fill="#fff"/><path d="M7.958 6.026a2.475 2.475 0 01-2.476 2.466 2.475 2.475 0 01-2.475-2.466A2.475 2.475 0 015.482 3.56a2.47 2.47 0 012.476 2.466zm7.577 0a2.475 2.475 0 01-2.475 2.466 2.475 2.475 0 01-2.476-2.466A2.475 2.475 0 0113.06 3.56a2.47 2.47 0 012.475 2.466z" fill="#50E6FF"/><path d="M23.112 18.612a2.475 2.475 0 01-2.475 2.466 2.475 2.475 0 01-2.475-2.466 2.475 2.475 0 012.475-2.466 2.47 2.47 0 012.475 2.466z" fill="#fff"/><path d="M7.958 18.612a2.475 2.475 0 01-2.476 2.466 2.475 2.475 0 01-2.475-2.466 2.475 2.475 0 012.475-2.466 2.47 2.47 0 012.476 2.466zm7.577 0a2.475 2.475 0 01-2.475 2.466 2.475 2.475 0 01-2.476-2.466 2.475 2.475 0 012.476-2.466 2.47 2.47 0 012.475 2.466z" fill="#50E6FF"/><path d="M23.112 31.19a2.475 2.475 0 01-2.475 2.466 2.475 2.475 0 01-2.475-2.466 2.475 2.475 0 012.475-2.466 2.47 2.47 0 012.475 2.466z" fill="#fff"/><path d="M7.958 31.19a2.475 2.475 0 01-2.476 2.466 2.475 2.475 0 01-2.475-2.466 2.475 2.475 0 012.475-2.466 2.47 2.47 0 012.476 2.466zm7.577 0a2.475 2.475 0 01-2.475 2.466 2.475 2.475 0 01-2.476-2.466 2.475 2.475 0 012.476-2.466 2.47 2.47 0 012.475 2.466z" fill="#50E6FF"/><path d="M23.112 43.769a2.475 2.475 0 01-2.475 2.465 2.475 2.475 0 01-2.475-2.465 2.475 2.475 0 012.475-2.466 2.47 2.47 0 012.475 2.466z" fill="#fff"/><path d="M7.958 43.769a2.475 2.475 0 01-2.476 2.465 2.475 2.475 0 01-2.475-2.465 2.475 2.475 0 012.475-2.466 2.47 2.47 0 012.476 2.466zm7.577 0a2.475 2.475 0 01-2.475 2.465 2.475 2.475 0 01-2.476-2.465 2.475 2.475 0 012.476-2.466 2.47 2.47 0 012.475 2.466z" fill="#50E6FF"/></svg>