<svg xmlns="http://www.w3.org/2000/svg" viewBox="0 0 49 49"><path d="M48.421 1.137H.531v5.038h47.89V1.137z" fill="#50E6FF"/><path d="M48.421 6.09H.531v17.65h47.89V6.09zM10.614 26.207H.531v10.084h10.083V26.208zm12.604 0H13.134v10.084h10.084V26.208z" fill="#0078D4"/><path d="M35.82 26.207H25.735v10.084h10.083V26.208zm12.602 0H38.347v10.084H48.43V26.208h-.009z" fill="#50E6FF"/><path d="M23.216 38.81H.532v10.083h22.686V38.809z" fill="#0078D4"/><path d="M48.422 38.81H25.736v10.074h22.686V38.81zm-6.356-24.036l-6.239-6.238v4.19H6.685v4.432h29.142v3.854l6.239-6.238z" fill="#50E6FF"/></svg>