<svg xmlns="http://www.w3.org/2000/svg" viewBox="0 0 210 184"><g fill="none" stroke="#00A2F2"><path d="M133.872 84.184l6.682-6.686c12.278 4.82 26.886 2.177 36.832-7.774 9.946-9.951 12.587-24.567 7.77-36.85l-20.203 20.213-19.736-19.59 20.202-20.214c-12.277-4.82-26.885-2.177-36.83 7.774-9.947 9.951-12.589 24.567-7.771 36.85l-15.696 15.548M85.851 93.046l-17.716 17.57c-12.277-4.82-26.885-2.177-36.831 7.774-9.946 9.95-12.588 24.566-7.77 36.85l20.203-20.213 19.58 19.59-20.202 20.213c12.277 4.82 26.885 2.177 36.83-7.774 9.947-9.95 12.589-24.566 7.771-36.85l8.703-8.706m10.257-19.591L57.878 53.242l-8.08-1.865-11.034-11.04-3.575-11.661 3.264-3.265" stroke-width="4" stroke-miterlimit="10"/><path d="M114.135 94.29L65.493 45.624l-1.865-8.241-11.033-11.04-11.656-3.42-3.263 3.11" stroke-width="4" stroke-miterlimit="10"/><path opacity=".2" d="M157.027 107.972L208 158.97l-13.365 13.528M28.507 1v18.814m-1.399 18.657v25.5m-9.324-36.228H1" stroke-width="2" stroke-miterlimit="20" stroke-linecap="round" stroke-dasharray="5 5"/><path d="M0 0h40.571v18.653H0V0z" stroke-width="4" stroke-miterlimit="10" transform="matrix(.70692 -.70728 .70692 .70728 95.277 111.368)"/><path d="M0 0h29.534v85.183H0V0z" stroke-width="4" stroke-miterlimit="10" transform="matrix(.70692 -.70728 .70692 .70728 112.475 120.752)"/></g></svg>