<svg xmlns="http://www.w3.org/2000/svg" viewBox="0 0 50 50"><path fill="#1372B8" d="M45.26 20.129c-.332 0-.655.035-.968.1a12.989 12.989 0 00-6.54-7.009c.025-.196.042-.394.042-.596a4.739 4.739 0 00-4.74-4.739 4.715 4.715 0 00-2.935 1.023v7.433a4.731 4.731 0 006.833-1.024 10.75 10.75 0 015.314 5.88 4.727 4.727 0 00-1.745 3.672c0 1.498.697 2.832 1.782 3.701a10.75 10.75 0 01-5.351 5.984 4.734 4.734 0 00-6.834-1.025v7.434a4.712 4.712 0 002.935 1.023 4.74 4.74 0 004.74-4.74c0-.202-.017-.4-.041-.596a12.994 12.994 0 006.585-7.132 4.74 4.74 0 10.923-9.389zM0 6.567v36.867l27.518 5.003V1.564L0 6.567zm15.564 27.644c-2.244 1.628-5.183.94-7.545-.032a360.1 360.1 0 00-.11-4.131c1.517 1.122 3.76 2.773 5.569 1.24 1.399-2.346-1.35-3.84-2.939-4.977-3.412-2.062-3.539-7.702-.229-9.907 1.936-1.224 4.298-.837 6.431-.538l.094 3.895c-1.777-.561-4.044-1.69-5.506.118-1.019 2.663 2.204 3.666 3.761 5.056 3.042 1.969 3.302 7.025.474 9.276z"/></svg>