<svg xmlns="http://www.w3.org/2000/svg" viewBox="0 0 49 49"><path d="M24.244.922A54.146 54.146 0 017.871 7.093V36.04L24.17 48.888l16.575-12.814V7.094A54.14 54.14 0 0124.362.921h-.117z" fill="#0078D4"/><path d="M29.688 22.113h-.615a1.81 1.81 0 00-1.061.32 6.845 6.845 0 01-4.026 1.305 6.845 6.845 0 01-4.026-1.305 1.812 1.812 0 00-1.061-.32 2.255 2.255 0 00-2.24 1.97l-1.323 9.877H33.25l-1.323-9.877a2.255 2.255 0 00-2.24-1.97zm-5.401-.965a5.036 5.036 0 10-5.037-5.035 5.036 5.036 0 005.037 5.035z" fill="#50E6FF"/></svg>