<svg xmlns="http://www.w3.org/2000/svg" viewBox="0 0 48 48"><path fill-rule="evenodd" clip-rule="evenodd" d="M15.324 46.704a3.658 3.658 0 01-2.886-1.401L1.575 31.755a3.669 3.669 0 01-.713-3.177L4.74 11.666a3.68 3.68 0 012.017-2.524l15.704-7.538a3.675 3.675 0 013.228 0l15.705 7.507a3.678 3.678 0 012.017 2.522l3.88 16.913a3.767 3.767 0 01-.714 3.178l-10.863 13.55a3.757 3.757 0 01-2.886 1.4l-17.505.031z" fill="#0078D4"/><path fill-rule="evenodd" clip-rule="evenodd" d="M24.045.545a4.692 4.692 0 00-1.923.436L6.417 8.519a4.41 4.41 0 00-2.42 3.021L.117 28.453a4.425 4.425 0 00.87 3.8l10.861 13.55a4.382 4.382 0 003.445 1.652h17.41a4.38 4.38 0 003.446-1.652l10.863-13.548a4.408 4.408 0 00.869-3.8L44 11.54a4.41 4.41 0 00-2.42-3.02L25.939.98a4.442 4.442 0 00-1.894-.436zm0 1.464c.44 0 .874.096 1.273.28l15.705 7.506a3.022 3.022 0 011.614 2.025l3.878 16.913a2.917 2.917 0 01-.59 2.553l-10.862 13.55a2.953 2.953 0 01-2.327 1.121H15.324a2.954 2.954 0 01-2.326-1.12L2.134 31.286a3.126 3.126 0 01-.59-2.554l3.88-16.913a2.97 2.97 0 011.613-2.025l15.706-7.538c.416-.16.857-.245 1.302-.25v.002z" fill="#50E6FF"/><path fill-rule="evenodd" clip-rule="evenodd" d="M32.27 29.98A9.878 9.878 0 0129.29 33l-1.955-4.702a.84.84 0 01.435-.966.987.987 0 01.435-.094l4.965.842a6.299 6.299 0 01-.9 1.9zm-6.054 4.33c-.713.16-1.441.244-2.172.25a10.486 10.486 0 01-3.135-.502l2.45-4.453a.814.814 0 01.994-.219c.146.09.272.206.373.344l2.39 4.328c-.279.094-.589.156-.899.251zm-11.326-6.2l4.935-.84a.837.837 0 01.869.654.894.894 0 01-.032.5l-1.893 4.577a9.813 9.813 0 01-3.879-4.89zm.837-8.44l3.694 3.3a.83.83 0 01.093 1.153.615.615 0 01-.374.251l-4.808 1.4a10.048 10.048 0 011.395-6.104zm6.115-4.423c.342-.062.652-.124.993-.187l-.28 4.984a.85.85 0 01-.838.808.733.733 0 01-.374-.093l-4.127-2.961a9.453 9.453 0 014.624-2.554l.002.003zm9 2.554l-4.066 2.896a.825.825 0 01-1.086-.186.703.703 0 01-.155-.343l-.278-5.077a9.404 9.404 0 015.585 2.71zm2.67 4.828c.24 1.03.315 2.093.217 3.145l-4.749-1.37a.842.842 0 01-.59-.996.727.727 0 01.187-.342l3.755-3.396a9.997 9.997 0 011.18 2.961v-.002zm-8.102 3.24l-1.365.654-1.365-.655-.342-1.464.932-1.183h1.52l.931 1.183-.31 1.464zm14.37 1.525h-.03c-.032 0-.062 0-.062-.03-.062 0-.125-.032-.187-.032a4.224 4.224 0 00-.59-.062 1.127 1.127 0 01-.31-.032h-.031a8.093 8.093 0 01-1.676-.28.607.607 0 01-.342-.342c0-.032-.031-.032-.031-.062l-.404-.126a12.331 12.331 0 00-.217-4.391 12.822 12.822 0 00-1.738-4.081l.311-.28v-.062a.712.712 0 01.155-.468 9.034 9.034 0 011.397-.964c.093-.062.186-.094.28-.156a4.81 4.81 0 00.527-.31c.031-.032.092-.063.154-.126.032-.032.062-.032.062-.063.427-.337.522-.949.218-1.401a.883.883 0 00-.714-.343 1.145 1.145 0 00-.682.251l-.063.062c-.062.031-.092.093-.154.125a5.27 5.27 0 00-.403.435 1.478 1.478 0 01-.218.22c-.373.415-.79.792-1.242 1.12a.495.495 0 01-.278.093.398.398 0 01-.186-.03h-.062l-.374.25a15.05 15.05 0 00-1.274-1.187 12.365 12.365 0 00-6.485-2.585l-.032-.405-.062-.062a.65.65 0 01-.249-.405c-.011-.562.02-1.125.094-1.682v-.031c.005-.106.026-.212.062-.312.03-.186.06-.375.092-.591v-.28a.95.95 0 00-.867-1.025.949.949 0 00-.776.306.99.99 0 00-.279.717v.25c-.001.202.03.401.094.593.03.093.03.186.062.31v.032c.089.556.12 1.12.093 1.681a.65.65 0 01-.25.405l-.061.063-.032.405c-.563.053-1.123.136-1.676.25a11.958 11.958 0 00-6.145 3.488l-.31-.218h-.061c-.062 0-.125.032-.186.032a.498.498 0 01-.28-.094 8.223 8.223 0 01-1.24-1.153 1.51 1.51 0 00-.218-.218 5.431 5.431 0 00-.403-.435c-.032-.032-.094-.063-.156-.126-.03-.031-.062-.031-.062-.062a1.078 1.078 0 00-.682-.25.88.88 0 00-.713.343 1.045 1.045 0 00.216 1.401c.032 0 .032.03.062.03.062.032.093.095.155.126.17.116.346.22.528.312.1.04.193.092.279.155a9.19 9.19 0 011.397.966.575.575 0 01.155.467v.063l.31.28c-.062.076-.114.16-.155.25a12.164 12.164 0 00-1.738 8.223l-.403.125c0 .032-.032.032-.032.062a.725.725 0 01-.341.343 7.842 7.842 0 01-1.676.28h-.031a1.025 1.025 0 00-.31.03 4.224 4.224 0 00-.59.063c-.062 0-.125.032-.186.032a.11.11 0 00-.093.031 1.02 1.02 0 00-.807 1.153.956.956 0 00.993.716.69.69 0 00.25-.032c.03 0 .06 0 .06-.03.063 0 .126-.032.188-.032.192-.054.379-.127.558-.22.092-.03.186-.093.278-.125h.032a7.648 7.648 0 011.613-.467h.062c.148.007.29.062.404.156.031 0 .031.032.062.032l.434-.062a12.326 12.326 0 004.066 5.855c.425.329.87.63 1.334.903l-.186.405c0 .031.032.031.032.062.087.15.11.332.062.5a8.82 8.82 0 01-.808 1.464v.032c-.061.093-.124.155-.186.25-.124.156-.217.31-.342.5a.687.687 0 00-.092.155.107.107 0 01-.032.063.988.988 0 00.397 1.336l.007.003c.116.06.244.093.374.094.392-.02.746-.244.93-.592a.114.114 0 01.032-.062.642.642 0 01.094-.156c.07-.184.132-.37.186-.561l.092-.28a7.302 7.302 0 01.652-1.557.786.786 0 01.404-.28c.03 0 .03 0 .062-.032l.216-.404c1.387.534 2.86.809 4.346.809.91.006 1.815-.1 2.7-.311a13.696 13.696 0 001.614-.468l.186.343c.031 0 .031 0 .062.032a.57.57 0 01.403.28c.258.499.476 1.018.65 1.553v.031l.094.28c.048.191.11.379.186.56.032.063.062.094.094.157a.107.107 0 00.03.062c.175.356.535.586.931.591a.826.826 0 00.375-.092.928.928 0 00.463-.561 1.13 1.13 0 00-.06-.778c0-.032-.032-.032-.032-.063a.642.642 0 00-.093-.156 2.78 2.78 0 00-.342-.5c-.062-.093-.124-.155-.186-.25v-.03a7.046 7.046 0 01-.807-1.466.876.876 0 01.032-.5c0-.03.03-.03.03-.061l-.154-.376a12.353 12.353 0 005.401-6.82l.374.061c.031 0 .031-.031.062-.031a.778.778 0 01.402-.155h.062a7.595 7.595 0 011.615.466h.03c.094.031.187.094.28.125.178.091.366.165.56.218.06 0 .123.032.185.032a.113.113 0 01.094.03c.08.026.164.037.248.032.45.001.85-.287.993-.717a1.2 1.2 0 00-.9-1.027l-.004.005z" fill="#50E6FF"/></svg>