<svg xmlns="http://www.w3.org/2000/svg" viewBox="0 0 94.123 77.114"><path d="M14.7 44.253h-1.25V3.851A3.855 3.855 0 0117.3 0h22.82v1.25H17.3a2.6 2.6 0 00-2.6 2.6z"/><path d="M80.677 44.253h-1.25V3.851a2.6 2.6 0 00-2.6-2.6H40.116V0h36.711a3.855 3.855 0 013.851 3.851zM38.07 40.506H18.846V5.145h17.288v1.25H20.096v32.861H38.07v1.25z"/><path d="M75.276 40.506H62.969v-1.25h11.057V6.395H58.31v-1.25h16.966v35.361zM90.272 50.9H71.406v-1.25h18.866a2.6 2.6 0 002.6-2.6v-2.172H71.406v-1.25h22.717v3.418a3.855 3.855 0 01-3.851 3.854zm-52.526 0H3.85A3.855 3.855 0 010 47.046v-3.418h38.07v1.25H1.25v2.168a2.6 2.6 0 002.6 2.6h33.9z"/><path d="M59.166 5.145h13.035v1.25H59.166zm-37.244 0h36.389v1.25H21.922zm33.497 44.372h-1.25V37.595a3.528 3.528 0 10-7.056 0v11.922h-1.25V37.595a4.778 4.778 0 119.556 0z"/><path d="M63.724 49.517h-1.25v-8.6a3.528 3.528 0 10-7.056 0v8.6h-1.25v-8.6a4.778 4.778 0 119.556 0z"/><path d="M72.031 73.6h-1.25V44.239a3.528 3.528 0 00-7.057 0v5.277h-1.25v-5.277a4.778 4.778 0 019.557 0z"/><path d="M72.031 77.114l-34.173-.037-.546-.2-.1-.1-15.188-15.183a6.247 6.247 0 018.835-8.835l6.586 6.267V22.259a4.778 4.778 0 119.556 0v22.72h-1.25v-22.72a3.528 3.528 0 10-7.056 0v39.68l-8.709-8.285a5 5 0 10-7.077 7.056L38 75.8l.182.065h32.6V59.158h1.25z"/></svg>