<svg xmlns="http://www.w3.org/2000/svg" viewBox="0 0 48 48"><path d="M4.509 2.673H43.49c2.536 0 4.509 2.13 4.509 4.649v25.667c0 2.615-2.066 4.65-4.509 4.65h-7.796v7.457c0 .485-.47.678-.846.388l-10.144-7.846H4.508C1.973 37.638 0 35.508 0 32.99V7.322c0-2.518 2.067-4.65 4.509-4.65z" fill="#0078D4"/><path d="M15.917 31.35c1.669 0 3.021-1.368 3.021-3.054 0-1.687-1.352-3.054-3.02-3.054-1.669 0-3.021 1.367-3.021 3.054 0 1.686 1.352 3.053 3.02 3.053zm14.808.15h4.378C34.588 19.316 24.961 9.525 12.927 8.914v4.435c9.607.6 17.283 8.41 17.798 18.151z" fill="#fff"/><path d="M23.276 31.5h4.477c-.495-8.08-6.854-14.556-14.827-15.157v4.535c5.507.57 9.865 5.036 10.35 10.622z" fill="#fff"/></svg>