<svg xmlns="http://www.w3.org/2000/svg" viewBox="0 0 48 48"><path d="M18.025 36.495h-1.101V13.98l12.802-.058.025 1.101-11.726.058v21.414z" fill="#50E6FF"/><path d="M22.886 24.3h-4v1.102h4v-1.101z" fill="#50E6FF"/><path d="M22.298 26.892l3.536-2.046-3.536-2.045v4.09zM10.986 24.3h-4v1.102h4v-1.101z" fill="#50E6FF"/><path d="M10.382 26.892l3.536-2.046-3.536-2.045v4.09zM35.738 24.3h-4v1.102h4v-1.101z" fill="#50E6FF"/><path d="M35.158 26.892l3.536-2.046-3.536-2.045v4.09z" fill="#50E6FF"/><path d="M33.37 11h-7.064v7.088h7.089V11h-.025zM47 24.855l-4.14-4.14-4.14 4.14 4.14 4.14 4.14-4.14zm-26.018-3.539h-7.089v7.064h7.088v-7.064zM19.044 31.75h-3.205c-1.076 0-1.93.853-1.93 1.93v3.204c0 1.077.854 1.93 1.93 1.93h3.205c1.076 0 1.93-.853 1.93-1.93V33.68c.008-1.076-.878-1.929-1.93-1.929zM19.491 11H15.41l-2.046 3.536 2.046 3.528h4.082l2.046-3.536L19.49 11zM5.033 28.878a4.022 4.022 0 004.033-4.033 4.022 4.022 0 00-4.033-4.032A4.029 4.029 0 001 24.852a4.015 4.015 0 004.033 4.025zm24.801 0a4.022 4.022 0 004.033-4.033 4.022 4.022 0 00-4.033-4.032 4.022 4.022 0 00-4.033 4.032 4.043 4.043 0 004.033 4.033z" fill="#0078D7"/></svg>