<svg xmlns="http://www.w3.org/2000/svg" viewBox="0 0 48 49"><g clip-path="url(#speech09:clip0-221d82f8)"><path fill="#50E6FF" d="M20 7.548h12v24H20z"/><path d="M24 38.229a9.334 9.334 0 004.464-1.142 9.341 9.341 0 002.132-1.61 9.33 9.33 0 001.57-2.095 9.314 9.314 0 001.167-4.534V9.928c0-.328-.015-.641-.046-.954C32.804 4.238 28.837.548 24 .548c-5.149 0-9.333 4.206-9.333 9.381v19.153c.14 5.081 4.262 9.147 9.333 9.147zm7.467-11.258H26.8a.938.938 0 010-1.876h4.667v1.876zm0-3.752h-6.534a.939.939 0 010-1.876h6.534v1.876zM26.8 10.085h4.667v1.876H26.8a.938.938 0 010-1.876zm-1.867 3.753h6.534v1.876h-6.534a.939.939 0 010-1.876zm-1.866 3.752h8.4v1.876h-8.4a.938.938 0 010-1.876zm1.866 25.298v3.784h6.534a.939.939 0 010 1.876H16.533a.939.939 0 010-1.876h6.534v-3.784C15.787 42.403 10 36.29 10 28.848a.94.94 0 01.933-.939.94.94 0 01.934.939c0 6.723 5.444 12.195 12.133 12.195 6.689 0 12.133-5.472 12.133-12.195a.94.94 0 01.934-.939.94.94 0 01.933.939c0 7.442-5.787 13.555-13.067 14.04z" fill="#0078D4"/></g><defs><clipPath id="speech09:clip0-221d82f8"><path d="M0 .548h48v48H0v-48z" fill="#fff"/></clipPath></defs></svg>