<svg xmlns="http://www.w3.org/2000/svg" viewBox="0 0 49 40"><path d="M30.092 25.4v-6.5c0-1.6 2.8-3 6.6-3.4l.4-.1V2.7l-33.4-.1v23.5h2.9l.8-.7h22.7z" fill="#36C4EA"/><path d="M30.093 33.5c-4.7-.2-5.1-1.2-4-5.1h-10.6c1.2 4.4-.4 5.1-7.7 5.2l22.3-.1z" fill="#7A7A7A"/><path d="M7.393 25.4l-3.5 3h26.2v-3h-22.7zM37.192 0l-3.5 3h2.9v12.5c.3 0 .5-.1.8-.1.7-.1 1.4-.1 2.3-.1V2.2c-.1-1.1-1.4-2.2-2.5-2.2z" fill="#3E3E3E"/><path d="M20.792 13.5l-7-3.9c-.1 0-.1-.1-.1-.2s0-.1.1-.2l6.8-3.9h.2l6.9 3.9c.1 0 .1.1.1.2s0 .1-.1.2l-6.9 3.9z" fill="#fff"/><path d="M19.993 22.9V15c0-.1 0-.1-.1-.2l-6.8-3.9h-.2V19c0 .1 0 .1.1.2l6.8 3.9h.1c0-.1.1-.2.1-.2z" fill="#BEEDF7"/><path d="M28.593 19.1c.1 0 .1-.1.1-.2v-7.8c0-.1 0-.1-.1-.2h-.2l-6.8 3.9c-.1 0-.1.1-.1.2v7.9c0 .1 0 .1.1.2h.2l6.8-4z" fill="#7CDBF1"/><path d="M3.893 25.4V3h30l3.5-3h-34.4c-.5 0-1 .2-1.3.5-.5.5-.8 1-.8 1.7v24c0 1.1 1 2.2 2.1 2.2h.9l3.5-3h-3.5z" fill="#707070"/><path d="M20.693 1.6c0 .3-.3.6-.6.6s-.6-.3-.6-.6.3-.6.6-.6c.4.1.6.3.6.6z" fill="#B7D332"/><path d="M31.093 19v17.1c0 1.7 3.9 3.3 8.9 3.3V19h-8.9z" fill="#0072C5"/><path d="M39.893 39.3c5 0 9-1.4 9-3.3V19h-9v20.3z" fill="#0072C5"/><path d="M39.792 39.3c5.1 0 9.1-1.4 9.1-3.3V18.9h-9.1v20.4z" fill="#3A93CE"/><path d="M48.893 19c0 1.7-3.9 3.3-8.9 3.3s-8.9-1.4-8.9-3.3 3.9-3.3 8.9-3.3 8.9 1.5 8.9 3.3z" fill="#fff"/><path d="M47.093 18.8c0 1.1-3.2 2.1-7.1 2.1-3.9 0-7.1-.9-7.1-2.1 0-1.2 3.2-2.1 7.1-2.1 3.9-.1 7.1.9 7.1 2.1z" fill="#7FB900"/><path d="M45.593 20.1c.9-.4 1.4-.8 1.4-1.2 0-1.1-3.2-2.1-7.1-2.1-3.9 0-7.1 1-7.1 2.1 0 .5.6 1 1.4 1.2 1.2-.5 3.3-.8 5.5-.8 2.6 0 4.6.3 5.9.8z" fill="#B7D332"/><path d="M37.093 30.9c0 .5-.2 1-.6 1.2-.4.3-.9.4-1.6.4-.6 0-1.1-.1-1.4-.3V31c.4.4 1 .6 1.4.6.2 0 .5 0 .6-.1.1-.1.2-.2.2-.4s0-.3-.2-.4c-.1-.1-.4-.3-.9-.5-.9-.4-1.2-1-1.2-1.6 0-.5.2-.9.6-1.1.4-.3.9-.5 1.4-.5.5 0 1 .1 1.3.2v1.1c-.4-.2-.8-.4-1.2-.4-.2 0-.4 0-.6.1-.1.1-.2.2-.2.4s.1.3.2.4c.1.1.3.2.7.4.5.2.9.5 1.1.8.3.2.4.5.4.9zm4.8-1.3c0-.6-.1-1-.4-1.3-.2-.3-.6-.5-1-.5s-.8.1-1.1.5c-.3.3-.4.8-.4 1.3s.1 1 .4 1.3c.2.3.6.5 1.1.5.4 0 .8-.1 1.1-.5.1-.2.3-.7.3-1.3zm1.4 0c0 .7-.1 1.2-.4 1.7-.3.5-.7.8-1.2 1l1.6 1.5h-1.6l-1.1-1.2c-.5 0-1-.1-1.3-.4-.4-.2-.7-.6-.9-1-.2-.4-.3-.9-.3-1.4 0-.5.1-1.1.3-1.5.2-.5.6-.8 1-1.1.4-.2.9-.4 1.4-.4.5 0 1 .1 1.3.3.4.2.7.6 1 1 .1.5.2 1 .2 1.5zm4.199 2.8h-3.3v-5.5h1.2v4.6h2.1v.9z" fill="#fff"/><path d="M30.093 35.9v-2.4h-22.5v2.4h22.5z" fill="#9FA0A1"/></svg>