<svg xmlns="http://www.w3.org/2000/svg" viewBox="0 0 157 157"><path d="M7.507 12.646a4.875 4.875 0 100-9.75 4.875 4.875 0 000 9.75zm28.273 0a4.875 4.875 0 100-9.75 4.875 4.875 0 000 9.75zm28.275 0a4.875 4.875 0 100-9.75 4.875 4.875 0 000 9.75z" fill="#0078D4"/><path d="M92.82 12.646a4.875 4.875 0 100-9.75 4.875 4.875 0 000 9.75z" fill="#50E6FF"/><path d="M122.069 12.646a4.875 4.875 0 100-9.749 4.875 4.875 0 000 9.75zm26.813 0a4.875 4.875 0 100-9.75 4.875 4.875 0 000 9.75zM7.507 40.922a4.875 4.875 0 100-9.75 4.875 4.875 0 000 9.75zm28.273 0a4.875 4.875 0 100-9.75 4.875 4.875 0 000 9.75zm28.275 2.438a7.312 7.312 0 100-14.626 7.312 7.312 0 000 14.625z" fill="#0078D4"/><path d="M92.82 43.36a7.313 7.313 0 100-14.626 7.313 7.313 0 000 14.625z" fill="#50E6FF"/><path d="M122.069 43.36a7.313 7.313 0 100-14.626 7.313 7.313 0 000 14.625zm26.813 0a7.312 7.312 0 100-14.625 7.312 7.312 0 000 14.624zM7.507 69.197a4.875 4.875 0 100-9.75 4.875 4.875 0 000 9.75zm28.273 2.438a7.313 7.313 0 100-14.625 7.313 7.313 0 000 14.625z" fill="#0078D4"/><path d="M64.055 71.635a7.313 7.313 0 100-14.625 7.313 7.313 0 000 14.625zm28.765 2.437c5.384 0 9.749-4.365 9.749-9.75s-4.365-9.75-9.75-9.75c-5.384 0-9.75 4.365-9.75 9.75s4.366 9.75 9.75 9.75zm29.249-2.437a7.313 7.313 0 100-14.626 7.313 7.313 0 000 14.626z" fill="#50E6FF"/><path d="M148.882 71.635a7.312 7.312 0 10-.001-14.625 7.312 7.312 0 00.001 14.625zM7.507 97.959a4.875 4.875 0 100-9.75 4.875 4.875 0 000 9.75z" fill="#0078D4"/><path d="M35.78 100.396a7.312 7.312 0 100-14.624 7.312 7.312 0 100 14.624zm28.275 2.438c5.384 0 9.75-4.365 9.75-9.75s-4.366-9.75-9.75-9.75c-5.385 0-9.75 4.365-9.75 9.75s4.365 9.75 9.75 9.75zm28.765 4.875c8.076 0 14.624-6.548 14.624-14.625s-6.548-14.625-14.625-14.625-14.625 6.548-14.625 14.625 6.548 14.625 14.625 14.625zm29.249-4.875c5.385 0 9.75-4.365 9.75-9.75s-4.365-9.75-9.75-9.75c-5.384 0-9.75 4.365-9.75 9.75s4.366 9.75 9.75 9.75zm26.813-4.875a4.875 4.875 0 100-9.75 4.875 4.875 0 000 9.75z" fill="#50E6FF"/><path d="M7.507 125.746a4.875 4.875 0 100-9.75 4.875 4.875 0 000 9.75zm28.273 0a4.875 4.875 0 100-9.75 4.875 4.875 0 000 9.75z" fill="#0078D4"/><path d="M64.055 128.184a7.313 7.313 0 100-14.625 7.313 7.313 0 000 14.625zm28.765 2.437c5.384 0 9.749-4.365 9.749-9.75s-4.365-9.75-9.75-9.75c-5.384 0-9.75 4.365-9.75 9.75s4.366 9.75 9.75 9.75zm29.249-1.486a7.313 7.313 0 100-14.626 7.313 7.313 0 000 14.626zm26.813-3.389a4.875 4.875 0 10-.001-9.751 4.875 4.875 0 00.001 9.751z" fill="#50E6FF"/><path d="M7.507 154.021a4.875 4.875 0 100-9.75 4.875 4.875 0 000 9.75zm28.273 0a4.875 4.875 0 10.001-9.75 4.875 4.875 0 000 9.75zm28.275 2.438a7.313 7.313 0 100-14.625 7.313 7.313 0 000 14.625z" fill="#0078D4"/><path d="M92.82 156.459a7.313 7.313 0 100-14.626 7.313 7.313 0 000 14.626z" fill="#50E6FF"/><path d="M122.069 156.459a7.313 7.313 0 100-14.626 7.313 7.313 0 000 14.626z" fill="#0078D4"/><path d="M148.882 154.021a4.875 4.875 0 100-9.75 4.875 4.875 0 000 9.75z" fill="#50E6FF"/></svg>