<svg xmlns="http://www.w3.org/2000/svg" viewBox="0 0 48 48"><path d="M7.263 41.152H6V23h13.488v1.26H7.263v16.892zM41.405 6H6v1.26h35.405V6z" fill="#0078D4"/><path d="M42.091 24.421H21v-1.26h19.828V6h1.263v18.421zM43.264 41H7v1.26h36.264V41zM12.73 0H0v12.695h12.73V0zm18 0H18v12.695h12.73V0z" fill="#50E6FF"/><path d="M47.73 0H35v12.695h12.73V0z" fill="#0078D4"/><path d="M12.73 18H0v12.695h12.73V18z" fill="#50E6FF"/><path d="M30.73 18H18v12.695h12.73V18zm17 0H35v12.695h12.73V18zm-35 17H0v12.695h12.73V35zm18 0H18v12.695h12.73V35zm17 0H35v12.695h12.73V35z" fill="#0078D4"/></svg>