<svg xmlns="http://www.w3.org/2000/svg" viewBox="0 0 48 48"><path d="M41.666 12.798A6.334 6.334 0 0135.33 6.46a6.334 6.334 0 1112.669 0 6.323 6.323 0 01-6.334 6.337zm0 17.589a6.334 6.334 0 01-6.335-6.336 6.334 6.334 0 1112.669 0c.008 3.492-2.827 6.336-6.334 6.336z" fill="#50E6FF"/><path d="M12.61 17.714H0v12.614h12.61V17.714zM12.61 0H0v12.614h12.61V0zm0 35.386H0V48h12.61V35.386z" fill="#0078D4"/><path d="M41.666 47.965a6.334 6.334 0 01-6.335-6.337 6.334 6.334 0 1112.669 0 6.323 6.323 0 01-6.334 6.337z" fill="#50E6FF"/><path d="M31.605 41.812l-5.132-5.133v2.566H19.02v5.125h7.453v2.567l5.132-5.125zm0-17.668l-5.132-5.133v2.567H19.02v5.125h7.453v2.566l5.132-5.125zm0-17.734l-5.132-5.133v2.567H19.02v5.133h7.453v2.567l5.132-5.134z" fill="#0078D4"/></svg>