<svg xmlns="http://www.w3.org/2000/svg" viewBox="0 0 48 48"><path d="M0 48h48V0H0v48z" fill="#0078D4"/><path d="M15.188 32.793h-5.104v5.071h5.104v-5.071zM22.762 32.793h-5.105v5.071h5.105v-5.071zM30.242 32.793h-5.105v5.071h5.105v-5.071zM15.188 25.215h-5.104v5.071h5.104v-5.071zM22.762 25.215h-5.105v5.071h5.105v-5.071zM15.188 17.629h-5.104V22.7h5.104V17.63z" fill="#50E6FF"/><path d="M15.188 9.965h-5.104v5.071h5.104V9.965zM22.762 17.629h-5.105V22.7h5.105V17.63zM30.242 25.215h-5.105v5.071h5.105v-5.071zM37.959 32.793h-5.105v5.071h5.105v-5.071z" fill="#fff"/></svg>