<svg xmlns="http://www.w3.org/2000/svg" viewBox="0 0 60 60"><path d="M59.027 27.432c.031-.137.052-.263.083-.4.157-.819.24-1.66.24-2.531 0-7.428-5.993-13.427-13.367-13.427-1.036 0-2.04.116-2.992.347-3.054-4.833-8.42-8.037-14.55-8.037-9.508 0-17.197 7.753-17.197 17.272 0 .241 0 .472.01.704a8.556 8.556 0 00-2.76-.463C3.806 20.897.02 24.7.02 29.407c0 4.413 3.347 8.037 7.635 8.457l38.327.074c5.042 0 9.414-2.795 11.694-6.903.063-.115.126-.23.189-.357.334-.704.847-1.817 1.16-3.246z" fill="#50E6FF"/><path d="M60 33.379L36.16 43.422 12.334 33.38 36.16 23.335 60 33.379z" fill="#0078D7"/><path d="M36.161 45.41l-13.87-5.884v3.867c0 3.908 6.004 7.08 13.525 7.08 7.51 0 14.11-3.172 14.11-7.08V39.82l-13.764 5.59zM52.5 52.994a2.526 2.526 0 002.521-2.532 2.526 2.526 0 00-2.52-2.532 2.526 2.526 0 00-2.521 2.532 2.526 2.526 0 002.52 2.532z" fill="#0078D7"/><path d="M53.431 51.267s1.046 2.563 2.699 3.614c1.653 1.05 3.222 1.502 3.222 1.502l-4.718 3.614s-2.469-.756-2.845-4.444c-.377-3.687.941-5.084.941-5.084l.701.798zm.136-17.869h-2.175v15.665h2.175V33.398z" fill="#0078D7"/></svg>