<svg xmlns="http://www.w3.org/2000/svg" viewBox="0 0 50 50"><path fill="#0072C6" d="M25 21.4L1.1 11.8v-.1L25 2l23.9 9.6v.1L25 21.4z"/><path fill="#0072C6" d="M25 50l23.9-9.7V11.7L25 21.4V50z"/><path opacity=".15" fill="#FFF" d="M25 50l23.9-9.7V11.7L25 21.4V50z"/><path fill="#0072C6" d="M25 50L1.1 40.4V11.8L25 21.4V50z"/><path opacity=".25" fill="#1E1E1E" d="M25 50L1.1 40.4V11.8L25 21.4V50z"/><path fill="#B8D432" d="M34.9 17.4V46l6.3-2.6V14.7z"/><path fill="#7FBA00" d="M14.9 17.4V46l-6.5-2.6V14.7zm-4-9.8v.1l24 9.7 6.3-2.7v-.1L17.3 5z"/><path fill="#B8D432" d="M39.1 7.6v.1l-24.2 9.7-6.5-2.7v-.1L32.7 5z"/><path fill="#7FBA00" d="M19 15.3c.5.1 1.1.1 1.7-.2l7.7-3.1-5.9-3.1-6.9-2.5c-.6-.2-1.1-.3-1.8 0-1.7.7-3.1 2.6-3.1 4.3 0 .8.4 1.5.9 1.8l7.4 2.8z"/><path fill="#7FBA00" d="M21.6 9.5l5.9-7.8c.6-.6 1.1-1.1 1.8-1.4.6-.2 1.2-.3 1.7-.2l7 2.6c.7.3 1.2 1 1.2 2 0 1.7-1.4 3.6-3.1 4.3l-7.7 3.1-6.8-2.6z"/><path opacity=".25" fill="#FCD116" d="M38.1 2.7l-7-2.6C30.6 0 30 0 29.4.3c-.7.3-1.3.8-1.8 1.4l-5.4 7.2-6.5-2.4c-.6-.2-1.1-.3-1.8 0-1.7.7-3.1 2.6-3.1 4.3 0 .8.4 1.5.9 1.8l7.3 2.7c.5.1 1.1.1 1.7-.2l7.7-3.1-.7-.4.8.3 7.7-3.1c1.7-.7 3.1-2.6 3.1-4.3 0-.9-.5-1.6-1.2-1.8z"/><path opacity=".25" fill="#1E1E1E" d="M34.4 4.2c.6-.6 1.1-1.1 1.8-1.4 1.7-.7 3.1.2 3.1 1.9S37.9 8.3 36.2 9l-7.7 3.1 5.9-7.9zM22.5 8.9c-.6-.2-1.1-.3-1.8 0-1.7.7-3.1 2.6-3.1 4.3s1.4 2.5 3.1 1.9l7.7-3.1-5.9-3.1z"/></svg>