<svg xmlns="http://www.w3.org/2000/svg" viewBox="0 0 93.79 49.512"><path fill="#7fba00" d="M47.011 0l-.116.057L46.778 0 28.192 9.146h37.406L47.011 0zM22.8 10.975h48.189v35.179H22.8zM92.145 29.673H70.989v18.95h21.156v-18.95zM1.644 29.673H22.8v18.95H1.644v-18.95z"/><path fill="#008a00" opacity=".2" d="M22.801 10.975v18.598H1.644v16.581H46.895V10.975H22.801z"/><path d="M46.894 29.673a4.531 4.531 0 0 0-4.53 4.527v11.874h9.062V34.2a4.532 4.532 0 0 0-4.532-4.527zM61.067 29.673a4.532 4.532 0 0 0-4.532 4.527v11.874H65.6V34.2a4.531 4.531 0 0 0-4.533-4.527zM32.723 29.673a4.531 4.531 0 0 0-4.531 4.527v11.874h9.061V34.2a4.531 4.531 0 0 0-4.53-4.527zM0 46.074h93.79v3.439H0zM21.419 22.273h50.953v2.809H21.419zM21.419 10.975h50.953v2.809H21.419zM7.795 34.758h3.624v4.389H7.795zM14.856 34.758h3.624v4.389h-3.624zM75.267 34.758h3.624v4.389h-3.624zM82.328 34.758h3.624v4.389h-3.624z" fill="#008a00"/><path fill="#008a00" opacity=".2" d="M28.192 9.146h18.703V.057L28.192 9.146z"/></svg>