<svg xmlns="http://www.w3.org/2000/svg" viewBox="0 0 156 157">
    <path d="M81.739 15.355v15.08a55.573 55.573 0 0132.884 13.594l10.598-10.598c-11.613-10.524-26.768-17.21-43.482-18.076z" fill="#50E6FF"/>
    <path d="M25.505 38.73C15.08 50.393 8.469 65.522 7.65 82.212h14.76c.841-12.554 5.868-23.994 13.668-32.909L25.505 38.73zm48.805-23.4c-16.689.867-31.843 7.553-43.481 18.052L41.427 43.98c8.914-7.776 20.33-12.753 32.884-13.57V15.33z" fill="#0078D4"/>
    <path d="M7.676 89.64c.916 16.616 7.602 31.696 18.077 43.26l10.276-10.277c-7.8-8.939-12.802-20.403-13.62-32.982H7.677z"/>
    <path d="M148.324 89.64h-14.733c-.818 12.58-5.795 24.02-13.57 32.959l10.276 10.276c10.45-11.589 17.111-26.644 18.027-43.234zm-17.779-50.86l-10.574 10.573c7.776 8.914 12.778 20.305 13.619 32.859h14.759c-.818-16.665-7.404-31.794-17.804-43.433z" fill="#50E6FF"/>
    <path d="M101.648 86.05H83.893V56.707l-29.54 29.541h17.754v29.343l29.541-29.541z" fill="#0078D4"/>
</svg>
