<svg xmlns="http://www.w3.org/2000/svg" viewBox="0 0 115 115">
                                
                            
    <polygon fill="#0072C6" points="0,0 0,115 115,115 115,0 "></polygon>
	<path fill="#FFFFFF" d="M84.459,55.75c-0.002,5.861,0.033,11.723-0.014,17.584c-0.033,4.066-1.902,6.766-5.107,7.602
		c-4.756,1.24-8.762-2.175-8.779-7.564c-0.029-9.184-0.008-18.369-0.008-27.554c0-2.9-0.006-5.801,0.004-8.701
		c0.002-0.809,0.097-1.607-1.146-1.499c-0.613,0.053-1.076-0.314-1.015-0.986c0.062-0.674,0.595-0.835,1.188-0.834
		c5.319,0.001,10.636,0.004,15.953,0.006c0.593,0,1.14,0.168,1.194,0.831c0.052,0.651-0.4,1.021-1.03,0.976
		c-1.319-0.095-1.243,0.768-1.242,1.65C84.464,43.423,84.461,49.586,84.459,55.75L84.459,55.75z M72.646,47.771
		c-0.047,1.065,0.363,1.33,1.357,1.306c2.416-0.061,4.835-0.055,7.25-0.003c0.949,0.021,1.256-0.299,1.244-1.247
		c-0.043-3.625-0.043-7.252,0-10.877c0.012-0.969-0.363-1.255-1.276-1.24c-2.417,0.039-4.836,0.056-7.251-0.008
		c-1.061-0.027-1.354,0.377-1.32,1.375c0.063,1.811,0.018,3.625,0.018,5.438C72.668,44.267,72.726,46.022,72.646,47.771
		L72.646,47.771z M73.947,44.12c0.004,1.28,0.639,2.191,2,2.366c1.248,0.159,2.455-0.813,2.5-2.06
		c0.049-1.352-0.715-2.103-1.838-2.328C75.129,41.934,73.943,42.839,73.947,44.12L73.947,44.12z M80.078,38.528
		c-0.738,0.042-1.09,0.566-1.113,1.191c-0.025,0.678,0.451,1.152,1.127,1.163c0.727,0.012,1.247-0.372,1.299-1.199
		C81.279,38.934,80.889,38.482,80.078,38.528L80.078,38.528z"></path>
	<path fill="#FFFFFF" d="M50.555,55.836c0-6.221-0.001-12.442,0.001-18.664c0-0.795,0.13-1.636-1.126-1.547
		c-0.624,0.045-1.075-0.282-1.033-0.965c0.051-0.832,0.701-0.865,1.329-0.867c2.597-0.003,5.194-0.003,7.792-0.003
		c2.477-0.001,4.952-0.01,7.428,0.007c0.637,0.005,1.449-0.157,1.569,0.79c0.12,0.948-0.587,1.048-1.3,1.063
		c-1.078,0.022-0.83,0.838-0.834,1.45c-0.019,3.2-0.01,6.401-0.01,9.603c0,9.18,0.018,18.359-0.014,27.541
		c-0.011,3.095-1.551,5.264-4.4,6.427c-2.746,1.122-5.22,0.444-7.322-1.513c-1.423-1.326-2.093-3.039-2.087-5.022
		C50.568,68.035,50.555,61.936,50.555,55.836L50.555,55.836z M62.459,37.323c0.018-1.103-0.218-1.67-1.486-1.625
		c-2.35,0.081-4.706,0.071-7.057,0.003c-1.153-0.034-1.428,0.452-1.423,1.502c0.031,6.756,0.038,13.512-0.005,20.269
		c-0.008,1.149,0.423,1.43,1.491,1.399c2.35-0.066,4.708-0.074,7.057,0.002c1.136,0.036,1.443-0.385,1.426-1.462
		c-0.055-3.377-0.021-6.756-0.021-10.134C62.441,43.959,62.409,40.641,62.459,37.323L62.459,37.323z M58.373,54.055
		c-0.089-1.3-0.808-2.16-2.17-2.189c-1.332-0.03-2.161,0.708-2.327,2.033c-0.148,1.199,0.947,2.349,2.17,2.389
		C57.297,56.328,58.457,55.275,58.373,54.055L58.373,54.055z M60.014,48.322c-0.709,0.067-1.096,0.467-1.094,1.175
		c0.004,0.833,0.561,1.19,1.287,1.175c0.687-0.013,1.047-0.501,1.152-1.246C61.125,48.853,60.871,48.239,60.014,48.322
		L60.014,48.322z"></path>
	<path fill="#FFFFFF" d="M37.487,33.793c2.475-0.002,4.952-0.007,7.427,0c0.654,0.002,1.458-0.117,1.597,0.774
		c0.143,0.918-0.561,1.08-1.286,1.077c-1.124-0.003-0.811,0.846-0.812,1.43c-0.02,5.616-0.008,11.231-0.012,16.847
		c-0.006,6.702,0.027,13.405-0.046,20.107c-0.042,3.747-2.266,6.324-5.811,7.018c-3.711,0.727-7.519-2.043-7.93-5.801
		c-0.098-0.896-0.097-1.807-0.097-2.713c-0.006-11.654-0.008-23.308,0.001-34.962c0.001-1.059,0.139-2.116-1.481-1.997
		c-0.58,0.042-0.834-0.47-0.756-0.998c0.102-0.678,0.655-0.781,1.235-0.781C32.173,33.797,34.83,33.796,37.487,33.793L37.487,33.793
		z M42.311,37.26c0.015-1.167-0.308-1.605-1.522-1.563c-2.355,0.083-4.714,0.05-7.07,0.013c-0.91-0.014-1.286,0.271-1.284,1.242
		c0.027,9.428,0.027,18.857-0.001,28.285c-0.002,0.95,0.31,1.267,1.252,1.245c2.235-0.051,4.477-0.107,6.706,0.016
		c1.472,0.082,1.972-0.301,1.935-1.861c-0.109-4.529-0.039-9.063-0.039-13.597C42.288,46.447,42.254,41.853,42.311,37.26
		L42.311,37.26z M33.834,61.547c-0.084,1.289,0.891,2.362,2.17,2.346c1.341-0.016,2.143-0.717,2.253-2.072
		c0.109-1.332-0.83-2.32-2.312-2.352C34.807,59.578,33.926,60.146,33.834,61.547L33.834,61.547z M40.139,55.945
		c-0.8-0.04-1.225,0.379-1.242,1.157c-0.019,0.806,0.484,1.213,1.228,1.178c0.657-0.031,1.075-0.444,1.062-1.321
		C41.155,56.442,40.872,55.981,40.139,55.945L40.139,55.945z"></path>
</svg>