<svg xmlns="http://www.w3.org/2000/svg" viewBox="0 0 193 115">
                                
                            
<path fill-rule="evenodd" clip-rule="evenodd" d="M163.884 57.0249C159.599 57.0249 155.543 57.9703 151.879 59.6259C153.707 54.7934 154.753 49.5795 154.753 44.11C154.753 19.7485 134.917 0 110.447 0C89.3398 0 71.7128 14.7085 67.2579 34.3827C62.8777 29.8765 56.749 27.0644 49.9527 27.0644C36.6433 27.0644 25.8536 37.8055 25.8536 51.0575C25.8536 51.2591 25.8789 51.4534 25.8837 51.6538C11.1307 54.5463 0 67.484 0 83.0204C0 100.684 14.3806 115 32.1209 115H163.884C179.964 115 193 102.023 193 86.0125C193 70.0034 179.964 57.0249 163.884 57.0249" fill="white"></path>
<path fill-rule="evenodd" clip-rule="evenodd" d="M18.4405 28.003L37.97 51.2877L0 58H62L28.6058 0L18.4405 28.003Z" transform="translate(77 39)" fill="#0078D4"></path>
<path fill-rule="evenodd" clip-rule="evenodd" d="M20.7567 20.2217L0 55.9433H18.715V56L45 0L20.7567 20.2217Z" transform="translate(59 35)" fill="#0078D4"></path>
</svg>