<svg xmlns="http://www.w3.org/2000/svg" viewBox="0 0 264 316">
    <g fill="none">
        <path d="M207.697 22.969s-55.796 2.776-87.751 52.752l-56.303 79.003 68.984 48.714 58.078-81.527c0 .253 33.477-41.394 16.992-98.942zM160 39s20.176 30.36 49 33M64.911 149.928l-32.716 5.552L67.7 105.757l33.731-5.553" stroke-width="4" stroke-miterlimit="10" stroke="#00A2F2"/>
        <path d="M135.924 200.156l5.58 32.56 35.506-49.47-5.833-33.823m-55.289 44.929l-3.804 16.406-28.152-19.94" stroke-width="4" stroke-miterlimit="10" stroke="#00A2F2"/>
        <path d="M77.592 167.344l-14.202 9.087 28.15 19.94" stroke-width="4" stroke-miterlimit="10" stroke="#00A2F2"/>
        <path opacity=".2" d="M58.317 191.322l-28.151 39.123m69.491-9.844l-51.484 71.935m30.687-86.575L1 314.999" stroke-width="2" stroke-miterlimit="20" stroke-linecap="round" stroke-dasharray="5 5" stroke="#00A2F2"/>
        <path opacity=".2" d="M264 182.74l-3.804-5.552c-3.044-4.543-4.058-10.348-2.536-15.649l1.775-6.562c0-.253 0-.505-.254-.758-.253-.252-.507-.252-.76 0l-5.58 3.786c-4.565 3.03-10.398 4.039-15.724 2.524l-6.848-1.514c-.254 0-.507 0-.76.252-.254.253-.254.505 0 .758l3.803 5.553c3.044 4.543 4.058 10.348 2.537 15.649l-1.522 6.562c0 .252 0 .505.254.757.253.253.507.253.76 0l5.58-3.786c4.565-3.029 10.398-4.038 15.724-2.524l6.594 1.767c.254 0 .507 0 .761-.252v-1.01zM126.793 14.892l-2.029-3.029c-1.521-2.272-2.029-5.3-1.268-8.077l1.015-3.534V0h-.254l-3.043 2.02c-2.283 1.514-5.326 2.018-8.116 1.261l-3.804-.757h-.254v.252l2.029 3.03c1.522 2.27 2.029 5.3 1.268 8.076l-1.014 3.534v.252h.253l3.044-2.019c2.282-1.514 5.325-2.02 8.115-1.262l3.55 1.01h.255c.507-.253.507-.505.253-.505z" fill="#00A2F2"/>
    </g>
</svg>
