<svg xmlns="http://www.w3.org/2000/svg" viewBox="0 0 30 30">
    <path fill="#00ABEC" d="M15 0c8.3 0 15 6.7 15 15s-6.7 15-15 15S0 23.3 0 15 6.7 0 15 0m0 1.9C7.8 1.9 1.9 7.8 1.9 15c0 7.2 5.9 13.1 13.1 13.1 7.2 0 13.1-5.9 13.1-13.1 0-7.2-5.9-13.1-13.1-13.1"/>
    <path fill="#00ABEC" d="M7 13.8h16v2.4H7z"/>
    <path fill="#00ABEC" d="M7 13.8h16v2.4H7z"/>
    <path fill="#00ABEC" d="M7 13.8h16v2.4H7z"/>
    <path fill="#00ABEC" d="M7 13.8h16v2.4H7z"/>
    <path fill="#00ABEC" d="M7 13.8h16v2.4H7z"/>
    <path fill="#00ABEC" d="M7 13.8h16v2.4H7z"/>
    <path fill="#00ABEC" d="M7 13.8h16v2.4H7z"/>
</svg>
