<svg xmlns="http://www.w3.org/2000/svg" viewBox="0 0 29.833 25.833">
    <path d="M23.5 11.023a8.869 8.869 0 01.879 2.15 9.043 9.043 0 01.293 2.294v1.472l-9.145 4.586-9.143-4.586q0-.858.021-1.6a11.7 11.7 0 01.129-1.45 8.088 8.088 0 01.342-1.4 8.536 8.536 0 01.68-1.465l-3-1.5v8.388a2.659 2.659 0 01.75.4 2.81 2.81 0 01.578.6 2.689 2.689 0 01.371.75 2.752 2.752 0 01.129.836v4.572H.9V20.5a2.752 2.752 0 01.129-.836 2.637 2.637 0 01.371-.75 2.763 2.763 0 01.578-.6 2.659 2.659 0 01.75-.4v-9.3L.9 7.694 15.529.379 30.16 7.694zM4.556 20.5a.927.927 0 00-.916-.915.927.927 0 00-.914.915v2.74h1.83zm.428-12.8l10.545 5.272 10.545-5.278-10.545-5.272zm17.861 8.116a9.333 9.333 0 00-.215-2.051 7.157 7.157 0 00-.758-1.922l-6.343 3.167-6.344-3.172a7.54 7.54 0 00-.723 1.751 7.169 7.169 0 00-.25 1.879v.343l7.316 3.657z" fill="#fff"/>
</svg>
