<svg xmlns="http://www.w3.org/2000/svg" viewBox="0 0 24 24">
    <path d="M19.977 13.947c.172.026.344.053.523.053a3.505 3.505 0 003.409-4.309c-.289-1.291-1.35-2.33-2.643-2.609a3.477 3.477 0 00-3.146.864l-3.082-2.239c.444-.788.625-1.744.289-2.782C14.923 1.678 13.812.72 12.514.536A3.503 3.503 0 008.5 4c0 .624.177 1.201.462 1.708L5.88 7.947a3.477 3.477 0 00-3.146-.864C1.44 7.362.38 8.4.091 9.691A3.505 3.505 0 003.5 14c.179 0 .351-.027.523-.053l1.086 3.343a3.504 3.504 0 00-2.023 3.997 3.488 3.488 0 002.668 2.635A3.492 3.492 0 009.95 21h4.101a3.491 3.491 0 004.195 2.923 3.488 3.488 0 002.668-2.635 3.503 3.503 0 00-2.023-3.997l1.086-3.344zm-.099-5.871a2.508 2.508 0 013.047 3.046 2.488 2.488 0 01-1.802 1.802 2.508 2.508 0 01-3.047-3.047 2.488 2.488 0 011.802-1.801zm-8.5-6.5a2.508 2.508 0 013.047 3.046 2.488 2.488 0 01-1.802 1.802 2.508 2.508 0 01-3.047-3.047 2.488 2.488 0 011.802-1.801zM1.075 11.122a2.507 2.507 0 013.047-3.046 2.49 2.49 0 011.802 1.802 2.508 2.508 0 01-3.047 3.047 2.494 2.494 0 01-1.802-1.803zm3.906 2.539A3.492 3.492 0 007 10.5c0-.649-.189-1.249-.496-1.77l3.06-2.223a3.485 3.485 0 004.872 0l3.06 2.223A3.472 3.472 0 0017 10.5c0 1.402.829 2.602 2.019 3.161l-1.099 3.382c-.139-.017-.276-.043-.42-.043a3.49 3.49 0 00-3.45 3h-4.1a3.49 3.49 0 00-3.45-3c-.144 0-.281.026-.421.042l-1.098-3.381zm2.141 9.263a2.508 2.508 0 01-3.047-3.047 2.49 2.49 0 011.802-1.802 2.508 2.508 0 013.047 3.046 2.488 2.488 0 01-1.802 1.803zm12.802-3.046a2.508 2.508 0 01-3.047 3.047 2.49 2.49 0 01-1.802-1.802 2.507 2.507 0 013.047-3.046c.874.211 1.59.927 1.802 1.801z"/>
</svg>
