<svg xmlns="http://www.w3.org/2000/svg" viewBox="0 0 51 47">
    <g fill="none" fill-rule="evenodd">
        <path d="M17.935 32.363c-3.782.81-6.194 4.544-5.389 8.341.806 3.798 4.526 6.22 8.308 5.412 3.782-.808 6.196-4.542 5.391-8.34a7.031 7.031 0 00-3.038-4.435 6.98 6.98 0 00-5.272-.978zm2.19 10.332a3.515 3.515 0 01-3.635-1.453 3.547 3.547 0 01-.054-3.929 3.515 3.515 0 016.399 1.19 3.535 3.535 0 01-2.71 4.192z" fill="#969696" fill-rule="nonzero"/>
        <g transform="translate(0 3.535)" fill-rule="nonzero">
            <ellipse fill="#0072C6" transform="rotate(-31.749 32.91 15.668)" cx="32.911" cy="15.668" rx="2.854" ry="5.182"/>
            <rect fill="#969696" transform="rotate(-31.749 4.542 33.293)" x="2.599" y="28.111" width="3.887" height="10.364" rx="1.943"/>
            <path d="M41.123 31.394s-18.317 1.732-23.948 3.825c-1.454.54-4.486 2.55-6.316 3.807a1.825 1.825 0 01-2.557-.677L1.708 27.654a1.844 1.844 0 01.537-2.6c1.98-1.108 5.228-3 6.4-4.089C12.99 16.935 22.808 1.68 22.808 1.68l18.315 29.715z" fill="#DEDEDE"/>
            <path d="M10.14 19.395a21.725 21.725 0 01-1.494 1.57c-1.173 1.089-4.42 2.98-6.4 4.09a1.844 1.844 0 00-.537 2.6l6.594 10.698a1.825 1.825 0 002.557.677c1.83-1.258 4.859-3.267 6.315-3.807a22.075 22.075 0 012.301-.68l-9.335-15.148z" fill="#0072C6"/>
            <path d="M5.006 33.005l3.296 5.348a1.825 1.825 0 002.557.677c1.831-1.258 4.86-3.267 6.316-3.807a22.057 22.057 0 012.3-.68l-4.691-7.614-9.778 6.076z" fill="#0072C6"/>
            <path d="M31.84 16.333L22.807 1.68s-9.82 15.257-14.163 19.286c-1.172 1.089-4.42 2.98-6.4 4.09a1.844 1.844 0 00-.537 2.6l3.298 5.35L31.84 16.333z" fill="#FFF" opacity=".29"/>
            <rect fill="#969696" transform="rotate(-31.749 32.395 16.273)" x="31.089" y="-1.682" width="2.612" height="35.91" rx="1.306"/>
        </g>
        <path d="M30.135 9.302l2.46-8.99m6.217 15.026l8.076-4.6m-5.951 15.366l8.967 2.421" stroke="#FFF" stroke-width="2"/>
    </g>
</svg>
