<svg xmlns="http://www.w3.org/2000/svg" viewBox="0 0 71 71">
    <path d="M35.5 13.312V35.5h13.313v4.437h-17.75V13.312H35.5zM71 35.5a34.78 34.78 0 01-1.283 9.43 36.193 36.193 0 01-3.657 8.615 35.378 35.378 0 01-5.772 7.367 34.403 34.403 0 01-7.662 5.65h9.499V71h-17.75V53.25h4.438v10.296a29.95 29.95 0 007.332-4.853 31.73 31.73 0 005.599-6.604 30.998 30.998 0 003.57-7.887 30.586 30.586 0 001.249-8.702c0-2.843-.37-5.587-1.11-8.234a31.065 31.065 0 00-3.137-7.419 31.3 31.3 0 00-4.871-6.292 31.3 31.3 0 00-6.292-4.87 31.065 31.065 0 00-7.42-3.138 30.446 30.446 0 00-8.233-1.11c-2.843 0-5.587.37-8.234 1.11a31.065 31.065 0 00-7.419 3.137 31.3 31.3 0 00-6.292 4.871 31.3 31.3 0 00-4.87 6.292 31.065 31.065 0 00-3.138 7.42 30.446 30.446 0 00-1.11 8.233c0 3.467.561 6.806 1.682 10.019a31.41 31.41 0 004.697 8.771 31.673 31.673 0 007.194 6.847c2.785 1.93 5.853 3.357 9.204 4.281l-1.178 4.265c-3.837-1.04-7.35-2.664-10.54-4.871a36.125 36.125 0 01-8.233-7.835 35.72 35.72 0 01-5.356-10.02C.636 43.296 0 39.476 0 35.5c0-3.259.422-6.402 1.265-9.43a35.9 35.9 0 013.571-8.493 35.253 35.253 0 015.547-7.194 35.253 35.253 0 017.194-5.547 35.977 35.977 0 018.476-3.57C29.069.421 32.218 0 35.5 0c3.259 0 6.402.422 9.43 1.265a35.9 35.9 0 018.493 3.571 35.253 35.253 0 017.194 5.547 35.253 35.253 0 015.547 7.194 35.9 35.9 0 013.57 8.493C70.579 29.098 71 32.241 71 35.5z"/>
</svg>
