<svg xmlns="http://www.w3.org/2000/svg" viewBox="0 0 49 48">
    <path d="M45.313 24.42a4.876 4.876 0 00-4.873-4.872h-.587c.335-1.092.42-2.268.42-3.444C40.355 8.88 34.476 3 27.336 3a12.863 12.863 0 00-12.263 8.904 8.18 8.18 0 00-2.857-.504c-4.955 0-8.903 4.032-8.903 8.988 0 4.956 3.948 8.904 8.82 8.904h28.643c2.604-.252 4.536-2.352 4.536-4.872z" fill="#0072C6"/>
    <path d="M16.92 29.292c-1.176-1.176-2.016-2.688-2.436-4.368-1.091-4.788 1.848-9.576 6.636-10.668 1.008-.252 2.017-.252 2.94-.168.42-4.536 3.193-8.484 7.225-10.5-1.26-.336-2.52-.588-3.948-.588a12.863 12.863 0 00-12.264 8.904 8.18 8.18 0 00-2.857-.504c-4.955 0-8.903 4.032-8.903 8.988 0 4.956 3.948 8.904 8.82 8.904h4.788z" fill="#2686CD"/>
    <path d="M42.206 41.892l-8.82-15.373v-6.215h.168a1.9 1.9 0 001.932-1.932c0-1.093-.924-1.933-1.932-1.933H23.81a1.9 1.9 0 00-1.932 1.933 1.9 1.9 0 001.932 1.931h.168v6.216l-8.904 15.373c-1.008 1.68-.168 3.107 1.764 3.107h23.604c2.016 0 2.772-1.343 1.764-3.108z" fill="#59B4D9"/>
    <path d="M34.898 35.34h-4.2c.084.252.168.504.168.756 0 1.008-.84 1.764-1.764 1.764-.925 0-1.765-.84-1.765-1.764 0-.252.085-.588.169-.756H22.38l-3.611 6.3h19.823l-3.696-6.3z" fill="#804998"/>
    <path d="M18.768 41.64l3.612-6.3h3.36l2.268-8.82V16.44h-4.2a1.9 1.9 0 00-1.932 1.931 1.9 1.9 0 001.932 1.933h.168v6.216l-8.904 15.372c-.924 1.764-.168 3.107 1.764 3.107h6.468l.84-3.36h-5.376z" fill="#90CDE3"/>
    <path d="M18.77 41.64h5.375l1.596-6.3h-3.36l-3.611 6.3z" fill="#A07BB1"/>
    <path d="M29.1 37.86c1.008 0 1.764-.84 1.764-1.764 0-.252-.084-.588-.168-.756h-3.192c-.084.252-.168.504-.168.756 0 1.008.84 1.764 1.764 1.764zm2.267 2.267a.84.84 0 100-1.68.84.84 0 000 1.68z" fill="#68217A"/>
</svg>
