<svg xmlns="http://www.w3.org/2000/svg" viewBox="0 0 137 94">
                                
                            
    <polygon fill="#FFFFFF" points="9.424 78.347 128.028 78.347 128.028 3.68 9.424 3.68"></polygon>
    <path d="M7.0561,6.6054 C7.0561,3.5094 9.5661,0.9994 12.6621,0.9994 L125.8031,0.9994 C128.8991,0.9994 131.4091,3.5094 131.4091,6.6054 L131.4091,75.8294 C131.4091,78.9244 128.8991,81.4344 125.8031,81.4344 L12.6621,81.4344 C9.5661,81.4344 7.0561,78.9244 7.0561,75.8294 L7.0561,6.6054 Z M12.9841,9.6414 L12.9841,72.9254 C12.9841,74.3664 14.1531,75.5354 15.5941,75.5354 L122.8741,75.5354 C124.3151,75.5354 125.4841,74.3664 125.4841,72.9254 L125.4841,9.6414 C125.4841,8.2004 124.3151,7.0324 122.8741,7.0324 L15.5941,7.0324 C14.1531,7.0324 12.9841,8.2004 12.9841,9.6414 Z"></path>
    <path d="M2.2624,87.3938 L136.2054,87.3938 C136.9034,87.3938 137.4684,87.9588 137.4684,88.6558 L137.4684,93.4768 C137.4684,94.1738 136.9034,94.7388 136.2054,94.7388 L2.2624,94.7388 C1.5654,94.7388 0.9994,94.1738 0.9994,93.4768 L0.9994,88.6558 C0.9994,87.9588 1.5654,87.3938 2.2624,87.3938"></path>
    <path d="M53.9421,90.0032 L84.5261,90.0032 C84.7271,90.0032 84.8911,90.1672 84.8911,90.3682 L84.8911,91.7642 C84.8911,91.9662 84.7271,92.1292 84.5261,92.1292 L53.9421,92.1292 C53.7411,92.1292 53.5771,91.9662 53.5771,91.7642 L53.5771,90.3682 C53.5771,90.1672 53.7411,90.0032 53.9421,90.0032"></path>
    <path d="M54.077,91.63 L84.391,91.63 L84.391,90.504 L54.077,90.504 L54.077,91.63 Z M84.526,92.63 L53.942,92.63 C53.465,92.63 53.077,92.241 53.077,91.764 L53.077,90.368 C53.077,89.891 53.465,89.503 53.942,89.503 L84.526,89.503 C85.004,89.503 85.391,89.891 85.391,90.368 L85.391,91.764 C85.391,92.241 85.004,92.63 84.526,92.63 Z"></path>
    <polygon points="36.2673 43.6468 56.3713 53.7468 56.3713 48.3638 43.9383 42.2828 56.3713 35.3878 56.3713 29.9348 36.2673 41.2018"></polygon>
    <polygon points="58.9538 60.8094 64.3368 60.8094 79.6428 23.6104 74.2168 23.6104"></polygon>
    <polygon points="82.5612 29.9348 82.5612 35.3888 95.0672 42.3028 82.5612 48.3618 82.5612 53.7468 102.6652 43.6468 102.6652 41.2018"></polygon>
</svg>