<svg xmlns="http://www.w3.org/2000/svg" viewBox="0 0 50 50">
    <path fill="#0072C6" d="M0 27.2c0 .7.5 1.2 1.2 1.2h27.6c.7 0 1.2-.5 1.2-1.2v-20H0v20z"/>
    <path fill="#A0A1A2" d="M28.8 2H1.2C.5 2 0 2.5 0 3.2v4.4h30V3.2c0-.7-.5-1.2-1.2-1.2z"/>
    <path opacity=".1" fill="#FFF" d="M1.2 2C.5 2 0 2.5 0 3.2v24c0 .7.5 1.2 1.2 1.2h11.5L26.2 2h-25z"/>
    <path fill="#FFF" d="M5.1 14.6l-.3-.3c-.1-.1-.1-.2 0-.3l.8-.7.1-.1c.1 0 .1 0 .1.1L8 15.7l3.9-4.9s.1-.1.2-.1h.1l.9.7.1.1v.1l-5 6.3-3.1-3.3zm0 7.8l-.3-.3c-.1-.1-.1-.2 0-.3l.8-.7.1-.1c.1 0 .1 0 .1.1L8 23.5l3.9-4.9s.1-.1.2-.1h.1l.9.7.1.1v.1l-5 6.3-3.1-3.3z"/>
    <path fill="#3999C6" d="M10 37.2c0 .7.5 1.2 1.2 1.2h27.6c.7 0 1.2-.5 1.2-1.2v-20H10v20z"/>
    <path fill="#A0A1A2" d="M38.8 12H11.2c-.7 0-1.2.5-1.2 1.2v4.4h30v-4.4c0-.7-.5-1.2-1.2-1.2z"/>
    <path opacity=".1" fill="#FFF" d="M11.2 12c-.7 0-1.2.5-1.2 1.2v24c0 .7.5 1.2 1.2 1.2h11.5L36.2 12h-25z"/>
    <path fill="#FFF" d="M15.1 24.6l-.3-.3c-.1-.1-.1-.2 0-.3l.8-.7.1-.1c.1 0 .1 0 .1.1l2.2 2.4 3.9-4.9s.1-.1.2-.1h.1l.9.7.1.1v.1l-5 6.3-3.1-3.3zm0 7.8l-.3-.3c-.1-.1-.1-.2 0-.3l.8-.7.1-.1c.1 0 .1 0 .1.1l2.2 2.4 3.9-4.9s.1-.1.2-.1h.1l.9.7.1.1v.1l-5 6.3-3.1-3.3z"/>
    <path fill="#59B4D9" d="M20 47.2c0 .7.5 1.2 1.2 1.2h27.6c.7 0 1.2-.5 1.2-1.2v-20H20v20z"/>
    <path fill="#A0A1A2" d="M48.8 22H21.2c-.7 0-1.2.5-1.2 1.2v4.4h30v-4.4c0-.7-.5-1.2-1.2-1.2z"/>
    <path opacity=".15" fill="#FFF" d="M20 27.6h30v2H20z"/>
    <path opacity=".1" fill="#FFF" d="M21.2 22c-.7 0-1.2.5-1.2 1.2v24c0 .7.5 1.2 1.2 1.2h11.5L46.2 22h-25z"/>
    <path fill="#FFF" d="M25.1 34.6l-.3-.3c-.1-.1-.1-.2 0-.3l.8-.7.1-.1c.1 0 .1 0 .1.1l2.2 2.4 3.9-4.9s.1-.1.2-.1h.1l.9.7.1.1v.1l-5 6.3-3.1-3.3z"/>
    <path opacity=".6" fill="#FFF" d="M33.2 34.5h12v2h-12z"/>
    <path fill="#FFF" d="M25.1 42.4l-.3-.3c-.1-.1-.1-.2 0-.3l.8-.7.1-.1c.1 0 .1 0 .1.1l2.2 2.4 3.9-4.9s.1-.1.2-.1h.1l.9.7.1.1v.1l-5 6.3-3.1-3.3z"/>
    <path opacity=".6" fill="#FFF" d="M33.2 42.4h12v2h-12z"/>
</svg>
