<svg xmlns="http://www.w3.org/2000/svg" viewBox="0 0 49 49">
    <path d="M25.558 48.101a.919.919 0 01-.953 0c-1.307-.817-5.092-3.295-9.259-6.917-5.174-4.493-7.625-8.387-8.742-10.511-1.116-2.124-2.178-4.548-2.178-8.007V7.852c0-.327.272-.6.599-.6.844 0 2.45-.026 3.73-.217 1.825-.272 5.039-1.117 6.428-1.988 1.389-.872 3.268-2.505 5.228-3.214 1.198-.435 2.778-.544 3.84-.571.68-.028.762-.028 1.389-.028 1.062.028 2.696.137 3.921.572 1.961.708 4.004 2.206 5.392 3.078 1.39.871 4.44 1.851 6.264 2.124 1.252.19 2.805.218 3.676.218.354 0 .654.3.654.653v14.76c0 3.486-.817 5.882-1.934 8.006-1.116 2.125-3.785 6.291-8.96 10.757-4.138 3.622-7.815 5.937-9.095 6.7z" fill="#0078D4"/>
    <path d="M29.317 2.978c-1.171-.408-2.724-.517-3.731-.544h-1.307c-1.008.027-2.506.136-3.65.544-1.851.654-3.649 2.233-4.956 3.05-1.307.817-4.384 1.634-6.1 1.907-1.716.272-4.112.217-4.112.217v14.624c0 3.295.98 5.583 2.042 7.598 1.062 2.015 3.404 5.719 8.306 9.967a75.207 75.207 0 003.268 2.669L32.53 4.667c-1.008-.627-2.124-1.28-3.213-1.689z" fill="#2687CE"/>
    <path d="M25.07 31.653a5.855 5.855 0 100-11.71 5.855 5.855 0 000 11.71z" fill="#fff"/>
    <path d="M25.068 15.07c5.637 0 10.267 4.356 10.703 9.885h5.065C40.4 16.622 33.51 10.03 25.068 10.03S9.736 16.65 9.301 24.955h5.065c.436-5.529 5.065-9.886 10.702-9.886z" fill="#fff"/>
</svg>
