<svg xmlns="http://www.w3.org/2000/svg" viewBox="0 0 401 80">
    <path d="M168.884 45.716h24.2l-12.8-20.6-23.5 37.2h-10.7l28.5-44.7c1.2-1.8 3.3-2.9 5.6-2.9 2.2 0 4.3 1.1 5.5 2.8l28.6 44.7h-10.7l-5-8.3h-24.5l-5.2-8.2zm110.9 8.3v-38.7h-9.1v42.5c0 1.2.5 2.3 1.3 3.2.9.9 2 1.4 3.3 1.4h41.3l5.3-8.3h-42.1v-.1zm-149.9-6.9c8.8 0 15.9-7.1 15.9-15.9s-7.1-15.9-15.9-15.9h-39.6v47.1h9.1v-38.8h30c4.2 0 7.6 3.4 7.6 7.6 0 4.2-3.4 7.6-7.6 7.6h-25.5l27 23.6h13.1l-18.2-15.3h4.1zm-95.3 15.2c-13 0-23.6-10.5-23.6-23.5s10.6-23.5 23.6-23.5h27.4c13 0 23.5 10.6 23.5 23.6 0 13-10.5 23.5-23.5 23.5h-27.4v-.1zm26.7-8.3c8.4 0 15.2-6.8 15.2-15.2 0-8.4-6.8-15.3-15.2-15.3h-26.1c-8.5.1-15.3 6.9-15.3 15.3s6.8 15.2 15.2 15.2h26.2zm172 8.3c-13 0-23.6-10.5-23.6-23.5s10.6-23.6 23.6-23.6h32.5l-5.3 8.3h-26.6c-8.4 0-15.3 6.8-15.3 15.3 0 8.4 6.8 15.2 15.3 15.2h32.7l-5.3 8.3h-28zm110.8-8.3c-7 0-12.9-4.7-14.7-11.1h38.7l5.3-8.3h-44.1c1.8-6.4 7.7-11.1 14.7-11.1h26.6l5.4-8.3h-32.5c-13 0-23.6 10.6-23.6 23.6 0 13 10.6 23.5 23.6 23.5h27.9l5.3-8.3h-32.6zm36.801-33.8c0-2.3 1.8-4.1 4.1-4.1 2.301 0 4.201 1.8 4.201 4.1s-1.8 4.2-4.201 4.2c-2.3 0-4.1-1.8-4.1-4.2zm4.1 5.4c2.901 0 5.301-2.4 5.301-5.3s-2.4-5.3-5.301-5.3c-2.9 0-5.3 2.4-5.3 5.3s2.4 5.3 5.3 5.3zm-.5-8.5c.8 0 1.2 0 1.501.2 1.1.3 1.2 1.3 1.2 1.7 0 .1 0 .3-.1.5 0 .2-.2.7-.7 1-.1 0-.1.1-.3.2l1.4 2.4h-1.3l-1.201-2.3h-.8v2.3h-1.2v-6h1.5zm.4 2.7c.4 0 .8 0 1-.4.1-.2.201-.3.201-.5 0-.3-.201-.6-.501-.7-.3-.1-.5-.1-1.1-.1h-.3v1.7h.7z" fill="#F80000"/>
</svg>
