<svg xmlns="http://www.w3.org/2000/svg" viewBox="0 0 96 96"><path d="M49.546 14.52a33.689 33.689 0 0 1 21.67 9.27l9.657-9.96a47.286 47.286 0 0 0-14.418-9.775 45.956 45.956 0 0 0-16.909-3.6z" fill="#50e6ff"/><path d="M22.645 73.86l-9.59 9.876c-.05-.051-.1-.118-.151-.169a48.921 48.921 0 0 1-9.321-14.7 50.086 50.086 0 0 1-3.5-17.43h13.56a35.881 35.881 0 0 0 8.984 22.393zM13.661 48.32A35.888 35.888 0 0 1 22.7 25.943l-9.641-9.909A49.118 49.118 0 0 0 3.566 30.89 50.468 50.468 0 0 0 .084 48.32zM24.816 23.74A33.776 33.776 0 0 1 46.52 14.5V.455a46.03 46.03 0 0 0-16.909 3.6 46.893 46.893 0 0 0-14.418 9.775zM85.906 46.335v8.008H96V29.107H70.764V39.2h8.008L58.785 59.172 48.034 48.421 25.96 70.5l7.134 7.133 14.94-14.94 10.751 10.746z" fill="#0078d4"/></svg>