<svg xmlns="http://www.w3.org/2000/svg" viewBox="0 0 307.603 147.566">
    <path fill="none" stroke="#e6e6e6" stroke-linecap="round" stroke-miterlimit="10" stroke-width="5.395" d="M126.12 137.205h171.04"/>
    <path fill="none" stroke="#e6e6e6" stroke-linecap="round" stroke-miterlimit="10" stroke-width="2.697" d="M6.079 137.205h65.875"/>
    <path fill="#afe5fd" d="M156.698 10.446h134.269v92.956H156.698z"/>
    <path fill="#fff" opacity=".25" d="M290.967 10.446v92.956H156.698"/>
    <path d="M251.422 108.65c-4.8 18.892-.641 21.193 27.7 21.193v7.357H168.995v-7.362c28.341 0 32.5-2.3 27.7-21.193z" fill="#035b7a"/>
    <path d="M288.022 14.129v86.525H160.094V14.129h127.928m1.143-9.138H158.951a7.994 7.994 0 00-7.995 8V101.8a8 8 0 007.995 8h130.214a8 8 0 008-8V12.986a7.994 7.994 0 00-8-8z" fill="#0372b0"/>
    <path fill="#afe5fd" d="M8.666 80.092h60.497v41.883H8.666z"/>
    <path fill="#fff" opacity=".25" d="M69.163 80.092v41.882H8.666"/>
    <path d="M51.346 124.339c-2.163 8.512-.289 9.549 12.48 9.549v3.312H14.207v-3.317c12.769 0 14.643-1.037 12.48-9.549z" fill="#494949"/>
    <path d="M67.836 81.751v38.985H10.2V81.751h57.64m.515-4.117H9.682a3.6 3.6 0 00-3.6 3.6v40.015a3.6 3.6 0 003.6 3.6h58.67a3.6 3.6 0 003.6-3.6V81.236a3.6 3.6 0 00-3.6-3.6z" fill="#585959"/>
    <path fill="none" stroke="#9b9b9b" stroke-miterlimit="10" stroke-width="2.697" d="M14.207 73.353l2.435-1.16"/>
    <path fill="none" stroke="#9b9b9b" stroke-miterlimit="10" stroke-width="2.697" stroke-dasharray="0.01 0" d="M19.075 71.032l.009-.004"/>
    <path fill="none" stroke="#9b9b9b" stroke-miterlimit="10" stroke-width="2.697" stroke-dasharray="5.412 2.696 0.01 0" d="M19.084 71.028l109.912-52.406"/>
    <path fill="none" stroke="#9b9b9b" stroke-miterlimit="10" stroke-width="2.697" d="M128.996 18.622l2.435-1.161"/>
    <path fill="#9b9b9b" d="M132.325 22.994l6.094-8.865-10.724-.846 4.63 9.711z"/>
    <path fill="#ccd42a" d="M214.53 33.598l-12.187 6.638-12.187-6.638 12.187-6.636 12.187 6.636z"/>
    <path fill="#8dc640" d="M202.327 55.19l.016-14.954-12.187-6.638-.015 14.955 12.186 6.637z"/>
    <path fill="#b2db11" d="M202.359 55.19l-.016-14.954 12.188-6.638.015 14.955-12.187 6.637z"/>
    <path fill="#ccd42a" d="M257.915 33.598l-12.186 6.638-12.188-6.638 12.188-6.636 12.186 6.636z"/>
    <path fill="#8dc640" d="M245.713 55.19l.016-14.954-12.188-6.638-.015 14.955 12.187 6.637z"/>
    <path fill="#b2db11" d="M245.745 55.19l-.017-14.954 12.188-6.638.015 14.955-12.186 6.637z"/>
    <path fill="#ccd42a" d="M214.53 68.707l-12.187 6.637-12.187-6.637 12.187-6.636 12.187 6.636z"/>
    <path fill="#8dc640" d="M202.327 90.299l.016-14.955-12.187-6.637-.015 14.955 12.186 6.637z"/>
    <path fill="#b2db11" d="M202.359 90.299l-.016-14.955 12.188-6.637.015 14.955-12.187 6.637z"/>
    <path fill="#ccd42a" d="M257.915 68.707l-12.186 6.637-12.188-6.637 12.188-6.636 12.186 6.636z"/>
    <path fill="#8dc640" d="M245.713 90.299l.016-14.955-12.188-6.637-.015 14.955 12.187 6.637z"/>
    <path fill="#b2db11" d="M245.745 90.299l-.017-14.955 12.188-6.637.015 14.955-12.186 6.637z"/>
    <path fill="#ccd42a" d="M49.046 95.487l-10.131 5.517-10.132-5.517 10.132-5.517 10.131 5.517z"/>
    <path fill="#8dc640" d="M38.901 113.436l.014-12.432-10.132-5.517-.012 12.432 10.13 5.517z"/>
    <path fill="#b2db11" d="M38.928 113.436l-.013-12.432 10.132-5.517.012 12.432-10.131 5.517z"/>
    <path fill="none" stroke="#9b9b9b" stroke-miterlimit="10" stroke-width="2.697" d="M76.767 121.974l2.692-.176"/>
    <path fill="none" stroke="#9b9b9b" stroke-miterlimit="10" stroke-width="2.697" stroke-dasharray="0.01 0" d="M82.144 121.621h.01"/>
    <path fill="none" stroke="#9b9b9b" stroke-miterlimit="10" stroke-width="2.697" stroke-dasharray="5.403 2.691 0.01 0" d="M82.154 121.621l202.164-13.272"/>
    <path fill="none" stroke="#9b9b9b" stroke-miterlimit="10" stroke-width="2.697" d="M284.318 108.349l2.691-.177"/>
    <path fill="#9b9b9b" d="M285.791 113.644l8.944-5.979-9.649-4.758.705 10.737z"/>
</svg>
