<svg xmlns="http://www.w3.org/2000/svg" viewBox="0 0 50 50">
    <path d="M24.996 9.48l15.78 13.101-5.321 18.032H14.197L9.18 22.61 24.996 9.48zm0-5.586L4.293 21.082l6.641 23.828h27.734l7.031-23.828L24.996 3.894z" fill="#DD5900"/>
    <path d="M25 0a7.813 7.813 0 110 15.626A7.813 7.813 0 0125 0zm17.188 13.281a7.812 7.812 0 110 15.624 7.813 7.813 0 110-15.624zm-5.86 21.094a7.813 7.813 0 110 15.626 7.813 7.813 0 010-15.626zm-22.666 0a7.813 7.813 0 11-7.813 7.812 7.813 7.813 0 017.813-7.812zM7.813 13.281a7.812 7.812 0 110 15.624 7.813 7.813 0 010-15.624z" fill="#DD5900"/>
</svg>
