<svg xmlns="http://www.w3.org/2000/svg" viewBox="-227.333 -143 193.076 114.371">
    <path fill="#009580" d="M-36.636-86.307c-3.504-8.302-10.753-15.332-20.133-19.63-4.324-14.539-16.426-29.079-34.475-29.079-.575 0-1.156.015-1.741.044-7.528-5.398-14.84-8.029-22.287-8.029-4.489 0-9.076.991-13.674 2.952-3.405-1.785-7.312-2.715-11.487-2.715-9.237 0-17.998 4.266-23.406 9.264a23.086 23.086 0 00-5.304-.604c-13.779 0-27.433 11.384-31.124 25.186-11.877 4.309-20.551 12.139-24.624 22.323-3.952 9.882-3.083 20.93 2.384 30.313 5.43 9.319 14.928 14.883 25.408 14.883 4.021 0 7.896-.821 11.431-2.402 6.372 5.793 14.571 9.256 22.334 9.256 2.707 0 5.299-.4 7.749-1.193 6.286 5.17 15.922 7.109 23.74 7.109 9.226 0 17.242-2.437 22.557-6.693 3.444 1.594 7.237 2.421 11.194 2.42h.003c9.899 0 20.127-5.274 25.713-12.607 3.116 1.277 6.396 1.938 9.712 1.938h.003c10.816-.002 20.86-7.063 25.589-17.989 3.604-8.329 3.756-16.886.438-24.747z"/>
    <path fill="#FFF" d="M-165.281-34.625v-33.997c0-4.219-3.432-7.65-7.65-7.65h-12.74v5.408h12.74a2.245 2.245 0 012.242 2.242v33.091c1.796.474 3.609.775 5.408.906zm23.511-58.158h-17.115a2.245 2.245 0 01-2.242-2.243v-40.697a31.657 31.657 0 00-2.712 2.223 22.18 22.18 0 00-2.696-.46v38.934c0 4.219 3.432 7.651 7.65 7.651h17.115a2.243 2.243 0 012.24 2.24v12.673h5.408v-12.673c.001-4.218-3.431-7.648-7.648-7.648zm71.999 21.619v-4.85h-5.41v4.85a2.243 2.243 0 01-2.24 2.242H-99.09v-38.774c0-4.218-3.431-7.65-7.649-7.65h-14.741v5.408h14.741a2.243 2.243 0 012.241 2.242v74.031c1.75.423 3.559.672 5.408.737v-30.585h21.668c4.219-.001 7.651-3.432 7.651-7.651z"/>
    <path fill="#FFF" d="M-136.825-50.096c-6.643 0-12.048-5.406-12.048-12.05 0-6.645 5.405-12.051 12.048-12.051 6.644 0 12.049 5.406 12.049 12.051 0 6.645-5.406 12.05-12.049 12.05zm0-19.1c-3.886 0-7.048 3.163-7.048 7.051 0 3.887 3.162 7.05 7.048 7.05 3.887 0 7.049-3.163 7.049-7.05 0-3.888-3.162-7.051-7.049-7.051zm-57.59 7.632c-6.644 0-12.049-5.406-12.049-12.051 0-6.645 5.405-12.05 12.049-12.05s12.049 5.406 12.049 12.05c0 6.644-5.405 12.051-12.049 12.051zm0-19.102c-3.887 0-7.049 3.163-7.049 7.05 0 3.888 3.162 7.051 7.049 7.051s7.049-3.163 7.049-7.051c0-3.887-3.162-7.05-7.049-7.05zm121.985 7.6c-6.644 0-12.049-5.405-12.049-12.05 0-6.644 5.405-12.049 12.049-12.049 6.643 0 12.047 5.405 12.047 12.049 0 6.645-5.404 12.05-12.047 12.05zm0-19.099c-3.887 0-7.049 3.162-7.049 7.049s3.162 7.05 7.049 7.05c3.886 0 7.047-3.163 7.047-7.05s-3.161-7.049-7.047-7.049zm-57.796-8.475c-6.644 0-12.049-5.405-12.049-12.048 0-6.644 5.405-12.05 12.049-12.05s12.049 5.406 12.049 12.05c0 6.643-5.405 12.048-12.049 12.048zm0-19.098c-3.887 0-7.049 3.163-7.049 7.05 0 3.886 3.162 7.048 7.049 7.048s7.049-3.162 7.049-7.048c0-3.888-3.162-7.05-7.049-7.05z"/>
</svg>
