<svg xmlns="http://www.w3.org/2000/svg" viewBox="0 0 49 49">
    <path d="M41.642 48.218h-3.719v-2.525h3.72c.571 0 .757-.193.815-.252.514-.53.472-1.986.438-2.861-.008-.22-.008-.421-.008-.606 0-1.507-.06-10.376-.06-10.46v-.009c0-2.861 1.086-5.386 3.08-7.262a9.498 9.498 0 01-1.607-2.13c-.648-1.16-1.422-3.096-1.422-5.738V6.42c0-1.136.009-2.853-.555-3.417-.06-.059-.219-.219-.69-.219h-3.719V.26h3.719c1.01 0 1.843.32 2.482.96 1.304 1.303 1.296 3.466 1.287 5.208v9.947c0 2.095.598 3.61 1.094 4.502.547.976 1.254 1.759 2.103 2.322l.017 2.096c-1.489 1.018-3.273 2.92-3.273 6.202 0 .235.06 8.979.06 10.477 0 .151.008.336.008.53.042 1.355.1 3.4-1.153 4.695-.64.674-1.523 1.019-2.617 1.019zm-30.271 0H7.652c-1.01 0-1.842-.32-2.482-.96-1.304-1.304-1.295-3.467-1.287-5.209v-9.946c0-2.096-.597-3.61-1.094-4.502-.547-.977-1.253-1.76-2.103-2.323l-.017-2.095c1.49-1.019 3.273-2.92 3.273-6.202 0-.236-.059-8.98-.059-10.477 0-.152-.008-.337-.008-.53-.043-1.355-.11-3.4 1.144-4.696C5.675.605 6.559.26 7.644.26h3.719v2.524h-3.71c-.573 0-.758.194-.817.253-.513.53-.471 1.986-.437 2.86.008.22.008.422.008.607 0 1.506.059 10.376.059 10.46v.008c0 2.861-1.085 5.386-3.08 7.262a9.498 9.498 0 011.608 2.13c.647 1.16 1.421 3.096 1.421 5.739v9.955c0 1.136-.008 2.852.556 3.416.059.06.219.22.69.22h3.719v2.524h-.009z" fill="#50E6FF"/>
    <path d="M41.095 25.917V22.45h-3.584a12.898 12.898 0 00-2.55-6.151l2.533-2.533-2.448-2.449-2.541 2.525a12.928 12.928 0 00-6.15-2.55V7.707h-3.467v3.585a12.893 12.893 0 00-6.15 2.55l-2.533-2.533-2.448 2.449 2.532 2.533a12.934 12.934 0 00-2.549 6.15H8.147v3.468h3.585a12.899 12.899 0 002.549 6.151l-2.533 2.533 2.449 2.45 2.532-2.534a12.928 12.928 0 006.15 2.55v3.585h3.467v-3.568a12.895 12.895 0 006.15-2.55l2.533 2.533 2.448-2.449-2.532-2.533a12.934 12.934 0 002.55-6.151h3.6v-.009zm-16.474 6.22c-4.383 0-7.95-3.569-7.95-7.953s3.567-7.952 7.95-7.952c4.384 0 7.951 3.568 7.951 7.952s-3.567 7.952-7.95 7.952z" fill="#0078D4"/>
</svg>
