<svg xmlns="http://www.w3.org/2000/svg" viewBox="0 0 36 36">
    <path d="M36 23.15V27h-2.25v-2.9l-1.916-1.934.053-.053a3.36 3.36 0 01-2.988.07L27 24.1V27h-2.25v-3.85l2.55-2.531-.053-.123-4.412-9.879-7.172 7.4q.035.281.062.554t.026.554V33.75H18V36H0v-2.25h2.25V19.125a6.517 6.517 0 01.492-2.525 6.805 6.805 0 013.349-3.56 6.6 6.6 0 012.487-.65L19.266 1.371A4.281 4.281 0 0120.742.352 4.526 4.526 0 0122.5 0a4.352 4.352 0 011.239.185 4.831 4.831 0 011.178.527 4.915 4.915 0 01.993.809 3.815 3.815 0 01.7 1.046l6.75 15.082a3.219 3.219 0 01.229.721 3.938 3.938 0 01.07.738 3.652 3.652 0 01-.1.835 3.3 3.3 0 01-.29.782l.141-.141zm-22.5 10.6V19.125a4.379 4.379 0 00-.352-1.749 4.534 4.534 0 00-2.4-2.4 4.526 4.526 0 00-3.5 0 4.534 4.534 0 00-2.4 2.4 4.379 4.379 0 00-.348 1.749V33.75zM9 18a2.18 2.18 0 01.879.176 2.291 2.291 0 011.2 1.2 2.285 2.285 0 010 1.758 2.291 2.291 0 01-1.2 1.2 2.285 2.285 0 01-1.758 0 2.291 2.291 0 01-1.2-1.2 2.285 2.285 0 010-1.758 2.291 2.291 0 011.2-1.2A2.18 2.18 0 019 18zm2.32-5.221a6.851 6.851 0 011.986 1.143 6.651 6.651 0 011.494 1.74l9.316-9.6a2.262 2.262 0 00.457-2.443 2.291 2.291 0 00-1.2-1.2 2.18 2.18 0 00-.873-.169 2.138 2.138 0 00-1.617.686zm14.854-5.7a4.542 4.542 0 01-.782.94q-.466.431-.87.853l3.463 7.752 2.057-.879zm4.148 13.171a1.031 1.031 0 00.809-.334 1.17 1.17 0 00.3-.809 1.463 1.463 0 00-.167-.677q-.167-.325-.308-.624l-2.057.879q.105.264.211.545a2.325 2.325 0 00.264.51 1.331 1.331 0 00.378.369 1.044 1.044 0 00.57.141z" fill="#fff"/>
</svg>
