<svg xmlns="http://www.w3.org/2000/svg" viewBox="0 0 156 156">
    <path d="M127.896 28.105l-5.25 5.25a63.192 63.192 0 0113.545 20.081c3.293 7.775 4.952 16.046 4.952 24.564s-1.659 16.788-4.952 24.564c-3.17 7.527-7.726 14.263-13.545 20.082l5.25 5.249c12.777-12.752 20.676-30.407 20.676-49.895 0-19.488-7.899-37.143-20.676-49.895zM82.457 38.95c-.841-1.163-1.758-1.807-2.674-1.807-.347 0-.693.099-1.04.272-.05.025-.099.075-.148.1-.124.098-.273.173-.397.272-.05.024-.074.074-.123.099-3.541 3.02-6.34 15.203-7.157 30.853a8.89 8.89 0 016.116 2.625 8.92 8.92 0 012.625 6.364c0 2.65-1.139 5.002-2.946 6.66a8.886 8.886 0 01-5.82 2.328c.768 15.947 3.591 28.402 7.181 31.473.15.123.298.247.471.346a2.32 2.32 0 001.238.372c.941 0 1.832-.644 2.674-1.808 2.427-3.368 4.433-11.242 5.522-21.444.57-5.324.892-11.291.892-17.606 0-6.314-.322-12.257-.892-17.605-1.09-10.252-3.07-18.126-5.522-21.494z" fill="#50E6FF"/>
    <path d="M85.8 37.762c.124-.1.223-.174.347-.248l-.867.272.371.075c.05-.025.1-.075.149-.1zm.545-.347c-.075.025-.124.075-.198.1l.05-.025.148-.075zm-.149.099l-.05.025c-.123.074-.247.148-.346.247.149-.099.272-.198.396-.272zm-.916 80.699l.644.198c-.124-.074-.248-.173-.372-.247-.099.025-.173.025-.272.049zM14.684 96.571c.025.025.074 0 .099 0-.05.025-.074.025-.1 0z" fill="#fff"/>
    <path d="M14.114 96.547c.174.024.372.05.57.05v-.026c-.198 0-.372-.024-.57-.024z" fill="#fff"/>
    <path d="M70.918 86.667a8.835 8.835 0 005.819-2.328 8.952 8.952 0 002.947-6.661 9.068 9.068 0 00-2.625-6.364 8.89 8.89 0 00-6.116-2.625c.817-15.65 3.615-27.832 7.156-30.853.05-.025.074-.074.124-.099-.05.025-.1.05-.149.1-12.752 8.245-26.965 14.485-42.145 18.2-3.12.767-6.29 1.41-9.483 1.955-3.715.644-7.479 1.115-11.267 1.461a3.028 3.028 0 00-.47-.05c-.322 0-.62.05-.941.15-3.591 1.213-6.34 9.013-6.34 18.472 0 9.78 2.947 17.803 6.686 18.522.198.024.372.024.57.05h.099c3.937.346 7.85.841 11.687 1.485 3.22.545 6.389 1.213 9.509 1.981.322.074.644.173.966.247v33.404h14.857v-28.748a138.17 138.17 0 0126.124 13.198c.123.074.247.173.371.247l.223.075c-.149-.099-.322-.198-.47-.347-3.541-3.046-6.39-15.526-7.132-31.472z" fill="#0078D4"/>
    <path d="M118.857 78a48.05 48.05 0 00-10.647-30.234l-5.275 5.274c5.497 7.131 8.494 15.823 8.494 24.96s-2.972 17.804-8.469 24.935l5.274 5.274c6.637-8.27 10.623-18.77 10.623-30.21z" fill="#50E6FF"/>
</svg>
