<svg xmlns="http://www.w3.org/2000/svg" viewBox="0 0 48 48">
    <path d="M40.488 47.957h5.017V37.79h-5.017v10.168zm-10.16 0h5.016V32.815h-5.016v15.142zm-20.16.001h5.017v-37.95h-5.017v37.95zm10.168-.001h5.017V22.654h-5.017v25.303zM0 47.958h5.042V0H0v47.958z" fill="#0078D4"/>
    <path d="M41.508 15.26c0-.783-.582-1.432-1.737-1.938v3.676c1.163-.186 1.737-.768 1.737-1.737zM38 9.217V5.37c-1.121.202-1.686.784-1.686 1.762 0 .852.565 1.543 1.686 2.083zm6.737 5.876c0 1.34-.422 2.42-1.265 3.238-.843.818-2.074 1.315-3.693 1.5v2.884h-1.77v-2.807c-1.67-.017-3.196-.388-4.587-1.113V15.43c.438.354 1.138.7 2.09 1.037.962.337 1.788.53 2.497.573v-4.418c-1.788-.666-3.053-1.391-3.794-2.175-.743-.793-1.113-1.83-1.113-3.112 0-1.281.455-2.369 1.374-3.254.91-.886 2.09-1.4 3.541-1.543V0h1.77v2.487c1.704.085 2.977.354 3.82.827v3.27c-1.121-.682-2.394-1.095-3.82-1.264v4.595c1.788.65 3.061 1.375 3.82 2.184.75.818 1.13 1.813 1.13 2.993z" fill="#50E6FF"/>
</svg>
