<svg xmlns="http://www.w3.org/2000/svg" viewBox="0 0 324.999 325">
    <path fill="#0072c6" d="M150 120l-50 50H65l80-80h60V70h-65L40 170H25v20h50l50 50h110v-20H130l-30-30h85v-20h-60l30-30h95v-20H150z"/>
    <circle cx="195.5" cy="180.5" r="19.5" fill="#0072c6"/>
    <circle cx="219.991" cy="80.002" r="19.5" transform="rotate(-45 219.99 80.002)" fill="#0072c6"/>
    <circle cx="264.99" cy="130.002" r="19.5" transform="rotate(-45 264.99 130.001)" fill="#0072c6"/>
    <circle cx="239.49" cy="230.5" r="19.5" transform="rotate(-45 239.49 230.5)" fill="#0072c6"/>
    <path d="M5 0a5 5 0 00-5 5v68.72a6.268 6.268 0 006.25 6.25h22.49A6.277 6.277 0 0035 73.72V35h255v38.3c0 3.33 1.775 6.665 6.21 6.665h22.59c3.105 0 6.08-3.33 6.08-6.665V6c.62-4-1.24-6-4.345-6H5zm315.535 325c3.105 0 4.965-2 4.345-6v-67.305c0-3.33-2.975-6.665-6.08-6.665h-22.59c-4.43 0-6.21 3.33-6.21 6.665V290H35v-38.72a6.28 6.28 0 00-6.26-6.25H6.25A6.268 6.268 0 000 251.28v68.715A5 5 0 005 325z" fill="#0072c6"/>
</svg>
