<svg xmlns="http://www.w3.org/2000/svg" viewBox="0 0 32 32">
    <path d="M24.53 5.47a3.77 3.77 0 01-.24-.69 3 3 0 01-.09-.73 4.15 4.15 0 01.13-1 4.19 4.19 0 01.38-.89 4 4 0 01.59-.76 3.61 3.61 0 01.76-.59A3.91 3.91 0 0127 .43a3.71 3.71 0 012.89.38 3.61 3.61 0 01.76.59 3.61 3.61 0 01.59.76 3.61 3.61 0 01.51 1.89 3.55 3.55 0 01-.08.73 3.83 3.83 0 01-.25.69L28 12.3zM28 1.05a3.09 3.09 0 00-1.17.23 3.12 3.12 0 00-1.6 1.6A3.09 3.09 0 0025 4.05a2.67 2.67 0 00.06.56 2.33 2.33 0 00.2.52L28 10.62l2.74-5.49a2.33 2.33 0 00.2-.52 2.67 2.67 0 00.06-.56 3.09 3.09 0 00-.23-1.17 3.12 3.12 0 00-1.6-1.6A3.09 3.09 0 0028 1.05z" fill="#0063b1"/>
    <path d="M28 13l-3.74-7.4a4.21 4.21 0 01-.26-.75 3.57 3.57 0 01-.09-.8A3.91 3.91 0 0124.05 3a3.89 3.89 0 01.4-1 3.93 3.93 0 01.64-.82 3.93 3.93 0 01.82-.64 3.89 3.89 0 011-.4A4 4 0 0129 .15a3.89 3.89 0 011 .4 3.93 3.93 0 01.82.64 3.93 3.93 0 01.64.82 3.89 3.89 0 01.4 1A3.91 3.91 0 0132 4.05a3.57 3.57 0 01-.09.8 4.21 4.21 0 01-.27.75zm-3.2-7.67l3.2 6.3 3.15-6.3a2.87 2.87 0 00.22-.62 3 3 0 00.08-.66 3.52 3.52 0 00-.12-.92 3.75 3.75 0 00-.35-.82 3.45 3.45 0 00-1.24-1.24 3.75 3.75 0 00-.82-.35 3.55 3.55 0 00-1.92 0 3.47 3.47 0 00-1.53.89 3.35 3.35 0 00-.54.7 3.75 3.75 0 00-.35.82 3.52 3.52 0 00-.12.92 3 3 0 00.08.66 2.87 2.87 0 00.26.62zm3.15 6l-3-6a2.65 2.65 0 01-.29-1.22 3.3 3.3 0 01.26-1.29 3.45 3.45 0 01.7-1A3.45 3.45 0 0126.66 1a3.39 3.39 0 012.58 0 3.45 3.45 0 011.05.7 3.45 3.45 0 01.7 1 3.3 3.3 0 01.26 1.29A2.65 2.65 0 0131 5.27zm0-10a2.66 2.66 0 00-1.05.21 2.56 2.56 0 00-.86.58 2.56 2.56 0 00-.58.86 2.63 2.63 0 00-.21 1 2.05 2.05 0 00.06.49 1.93 1.93 0 00.16.46L28 10l2.42-5a1.6 1.6 0 00.17-.46 2.05 2.05 0 00.06-.49 2.63 2.63 0 00-.21-1 2.56 2.56 0 00-.58-.86 2.56 2.56 0 00-.86-.63 2.66 2.66 0 00-1-.21zM13 31v-1.31a6.07 6.07 0 001.7-.24l.37 1.31A7.65 7.65 0 0113 31zm4.41-1.37l-.76-1.13A7.88 7.88 0 0018 27.41l1 .92a9 9 0 01-1.59 1.34zm3-3.43l-1.19-.63a9.4 9.4 0 00.7-1.57l1.3.39a10.34 10.34 0 01-.78 1.85zm1.23-4.37l-1.35-.09v-.67a10.56 10.56 0 01.08-1.27l1.34.17a10 10 0 00-.07 1.1c.05.3.05.55.03.8zm.66-4l-1.25-.52a8.34 8.34 0 011-1.8l1.08.82a6.89 6.89 0 00-.8 1.56zM24.75 15l-.7-1.16a5.75 5.75 0 012-.76l.24 1.34a4.25 4.25 0 00-1.54.58zM.78 16.06a7.39 7.39 0 01-.58-1.61 7.52 7.52 0 01-.2-1.7 8.78 8.78 0 016.43-8.44A8.49 8.49 0 018.75 4a8.49 8.49 0 012.32.31 8.79 8.79 0 016.12 6.12 8.49 8.49 0 01.31 2.32 7.52 7.52 0 01-.2 1.7 7.39 7.39 0 01-.58 1.61L8.75 32zm8-10.31A6.8 6.8 0 006 6.3 6.87 6.87 0 002.3 10a6.8 6.8 0 00-.55 2.73 5.7 5.7 0 00.15 1.3 5.33 5.33 0 00.45 1.23l6.4 12.81 6.4-12.81a5.33 5.33 0 00.45-1.23 5.7 5.7 0 00.15-1.3A6.8 6.8 0 0015.2 10a6.87 6.87 0 00-3.72-3.7 6.76 6.76 0 00-2.73-.55z" fill="#0063b1"/>
</svg>
