<svg xmlns="http://www.w3.org/2000/svg" viewBox="0 0 25 25"><circle fill="#2AA2D9" cx="12.5" cy="12.5" r="12"/><path fill="#FFF" d="M19.932 7.946a6.058 6.058 0 0 1-1.74.477 3.033 3.033 0 0 0 1.332-1.676 6.061 6.061 0 0 1-1.923.735 3.033 3.033 0 0 0-5.163 2.764A8.6 8.6 0 0 1 6.194 7.08a3.032 3.032 0 0 0 .937 4.045 3.01 3.01 0 0 1-1.372-.379v.039a3.031 3.031 0 0 0 2.43 2.97 3.033 3.033 0 0 1-1.368.052 3.034 3.034 0 0 0 2.831 2.1 6.082 6.082 0 0 1-3.762 1.3 6.253 6.253 0 0 1-.723-.042 8.616 8.616 0 0 0 13.262-7.259c0-.131 0-.261-.008-.392a6.162 6.162 0 0 0 1.511-1.568z"/></svg>