<svg xmlns="http://www.w3.org/2000/svg" viewBox="0 0 32 32">
                                
                            
    <path d="M28.906,10.75c0.469,0.261,0.896,0.581,1.281,0.961c0.385,0.38,0.711,0.797,0.977,1.25 s0.471,0.938,0.617,1.453C31.927,14.93,32,15.458,32,16h-2c0-0.542-0.107-1.057-0.32-1.547c-0.214-0.489-0.5-0.914-0.859-1.273 s-0.784-0.646-1.273-0.859C27.057,12.107,26.541,12,26,12c-0.553,0-1.07,0.107-1.555,0.32c-0.484,0.214-0.906,0.5-1.266,0.859 s-0.646,0.784-0.859,1.273C22.106,14.943,22,15.458,22,16c0,0.948-0.217,1.85-0.648,2.703c-0.433,0.854-1.029,1.563-1.789,2.125 c0.677,0.344,1.289,0.769,1.836,1.273c0.547,0.506,1.013,1.068,1.398,1.688c0.385,0.62,0.682,1.287,0.891,2 C23.896,26.503,24,27.24,24,28h-2c0-0.822-0.159-1.599-0.477-2.328c-0.318-0.729-0.748-1.364-1.289-1.906 c-0.542-0.541-1.178-0.971-1.906-1.289C17.599,22.159,16.822,22,16,22c-0.823,0-1.6,0.159-2.328,0.477 c-0.729,0.318-1.365,0.748-1.906,1.289c-0.542,0.542-0.972,1.178-1.289,1.906C10.158,26.401,10,27.178,10,28H8 c0-0.76,0.104-1.497,0.313-2.211c0.208-0.713,0.505-1.38,0.891-2c0.385-0.619,0.852-1.182,1.398-1.688 c0.547-0.505,1.158-0.93,1.836-1.273c-0.761-0.563-1.357-1.271-1.789-2.125C10.216,17.85,10,16.948,10,16 c0-0.542-0.107-1.057-0.32-1.547c-0.214-0.489-0.5-0.914-0.859-1.273s-0.784-0.646-1.273-0.859C7.057,12.107,6.541,12,6,12 c-0.553,0-1.07,0.107-1.555,0.32c-0.484,0.214-0.906,0.5-1.266,0.859s-0.646,0.784-0.859,1.273C2.106,14.943,2,15.458,2,16H0 c0-0.542,0.072-1.07,0.219-1.586c0.146-0.516,0.352-1,0.617-1.453s0.591-0.87,0.977-1.25c0.385-0.38,0.813-0.7,1.281-0.961 C2.75,10.386,2.481,9.964,2.289,9.484C2.096,9.005,2,8.511,2,8c0-0.542,0.106-1.057,0.32-1.547C2.533,5.964,2.82,5.539,3.18,5.18 S3.961,4.534,4.445,4.32C4.93,4.107,5.447,4,6,4c0.541,0,1.057,0.107,1.547,0.32C8.036,4.534,8.461,4.82,8.82,5.18 S9.466,5.964,9.68,6.453C9.893,6.943,10,7.458,10,8c0,0.511-0.097,1.005-0.289,1.484C9.518,9.964,9.25,10.386,8.906,10.75 c0.854,0.469,1.552,1.115,2.094,1.938c0.563-0.833,1.283-1.489,2.164-1.969C14.044,10.24,14.989,10,16,10 c1.01,0,1.955,0.24,2.836,0.719c0.88,0.479,1.602,1.136,2.164,1.969c0.541-0.823,1.239-1.469,2.094-1.938 c-0.344-0.364-0.612-0.786-0.805-1.266C22.096,9.005,22,8.511,22,8c0-0.542,0.106-1.057,0.32-1.547 c0.213-0.489,0.5-0.914,0.859-1.273s0.781-0.646,1.266-0.859C24.93,4.107,25.447,4,26,4c0.541,0,1.057,0.107,1.547,0.32 c0.489,0.214,0.914,0.5,1.273,0.859s0.646,0.784,0.859,1.273C29.893,6.943,30,7.458,30,8c0,0.511-0.097,1.005-0.289,1.484 C29.518,9.964,29.25,10.386,28.906,10.75z M4,8c0,0.281,0.052,0.542,0.156,0.781c0.104,0.24,0.247,0.451,0.43,0.633 c0.182,0.183,0.393,0.326,0.633,0.43C5.458,9.948,5.719,10,6,10s0.541-0.052,0.781-0.156c0.239-0.104,0.45-0.247,0.633-0.43 c0.182-0.182,0.325-0.393,0.43-0.633C7.947,8.542,8,8.281,8,8S7.947,7.458,7.844,7.219c-0.104-0.239-0.248-0.45-0.43-0.633 c-0.183-0.182-0.394-0.325-0.633-0.43C6.541,6.052,6.281,6,6,6S5.458,6.052,5.219,6.156c-0.24,0.104-0.451,0.248-0.633,0.43 C4.403,6.769,4.26,6.979,4.156,7.219C4.052,7.458,4,7.719,4,8z M16,20c0.541,0,1.057-0.106,1.547-0.32 c0.489-0.213,0.914-0.5,1.273-0.859s0.646-0.781,0.859-1.266C19.893,17.07,20,16.552,20,16c0-0.542-0.107-1.057-0.32-1.547 c-0.214-0.489-0.5-0.914-0.859-1.273s-0.784-0.646-1.273-0.859C17.057,12.107,16.541,12,16,12c-0.553,0-1.07,0.107-1.555,0.32 c-0.484,0.214-0.906,0.5-1.266,0.859s-0.646,0.784-0.859,1.273C12.106,14.943,12,15.458,12,16c0,0.552,0.106,1.07,0.32,1.555 c0.213,0.484,0.5,0.906,0.859,1.266s0.781,0.646,1.266,0.859C14.93,19.894,15.447,20,16,20z M24,8c0,0.281,0.052,0.542,0.156,0.781 c0.104,0.24,0.247,0.451,0.43,0.633c0.182,0.183,0.393,0.326,0.633,0.43C25.458,9.948,25.719,10,26,10s0.541-0.052,0.781-0.156 c0.239-0.104,0.45-0.247,0.633-0.43c0.182-0.182,0.325-0.393,0.43-0.633C27.947,8.542,28,8.281,28,8s-0.053-0.542-0.156-0.781 c-0.104-0.239-0.248-0.45-0.43-0.633c-0.183-0.182-0.394-0.325-0.633-0.43C26.541,6.052,26.281,6,26,6s-0.542,0.052-0.781,0.156 c-0.24,0.104-0.451,0.248-0.633,0.43c-0.183,0.183-0.326,0.394-0.43,0.633C24.052,7.458,24,7.719,24,8z"></path>
</svg>