<svg xmlns="http://www.w3.org/2000/svg" viewBox="0 0 131 107">
    <path d="M39.4 73.1c5.468 0 9.9-4.433 9.9-9.9 0-5.468-4.432-9.9-9.9-9.9s-9.9 4.432-9.9 9.9c0 5.467 4.432 9.9 9.9 9.9zm8.3 5.2H28.8c-4.3 0-7.8 3.5-7.8 7.8v19.4h34.5V86c0-4.2-3.5-7.7-7.8-7.7zm41-5.2c5.468 0 9.9-4.433 9.9-9.9 0-5.468-4.432-9.9-9.9-9.9s-9.9 4.432-9.9 9.9c0 5.467 4.432 9.9 9.9 9.9zm8.4 5.2h-19c-4.3 0-7.8 3.5-7.8 7.8v19.4h34.5V86c0-4.2-3.5-7.7-7.7-7.7zM5.8 1.9h41.5c2.7 0 4.8 2.2 4.8 4.8v26.5c0 2.7-2.2 4.8-4.8 4.8H39v7.7c0 .5-.5.7-.9.4L27.3 38H5.8C3.1 38 1 35.8 1 33.2V6.7c0-2.6 2.2-4.8 4.8-4.8zM124.2 1H82.7c-2.7 0-4.8 2.2-4.8 4.8v26.5c0 2.7 2.2 4.8 4.8 4.8H91v7.7c0 .5.5.7.9.4l10.8-8.1h21.6c2.7 0 4.8-2.2 4.8-4.8V5.8c-.1-2.6-2.3-4.8-4.9-4.8z" stroke="#1A1A1F" stroke-width="2" stroke-miterlimit="10"/>
</svg>
