<svg xmlns="http://www.w3.org/2000/svg" viewBox="0 0 49 49">
    <path d="M48.337 26.477v-5.044h-5.204a18.856 18.856 0 00-3.706-8.943l3.68-3.68-3.562-3.562-3.68 3.68a18.856 18.856 0 00-8.943-3.705V.01h-5.044v5.204a18.856 18.856 0 00-8.943 3.705l-3.68-3.68-3.562 3.563 3.68 3.68a18.857 18.857 0 00-3.705 8.943H.447v5.044H5.65a18.856 18.856 0 003.705 8.943l-3.68 3.68 3.562 3.562 3.68-3.68a18.855 18.855 0 008.943 3.705v5.204h5.044V42.68a18.855 18.855 0 008.944-3.705l3.68 3.68 3.562-3.562-3.68-3.68a18.856 18.856 0 003.705-8.943h5.22v.008zm-37.794-2.526a13.76 13.76 0 014.06-9.794 13.76 13.76 0 019.793-4.059 13.76 13.76 0 019.794 4.06 13.76 13.76 0 014.059 9.793 13.78 13.78 0 01-4.06 9.794 13.76 13.76 0 01-9.793 4.059c-3.697 0-7.175-1.44-9.794-4.06a13.73 13.73 0 01-4.059-9.793z" fill="#0078D4"/>
    <path d="M24.396 35.951c6.627 0 12-5.373 12-12s-5.373-12-12-12-12 5.373-12 12 5.373 12 12 12z" fill="#50E6FF"/>
    <path d="M21.727 30.149l-4.38-4.379 1.786-1.785 2.594 2.593 7.932-7.932 1.786 1.785-9.718 9.718z" fill="#0078D7"/>
</svg>
