<svg xmlns="http://www.w3.org/2000/svg" viewBox="0 0 49 49">
    <path fill="#FFF" d="M3.17 10.38h9.375V1.069H3.17zM1.25 40.764l6.63 6.63 6.585-6.585-6.63-6.629zM6.29 17.33l-2.2-1.334-2.197 2.268 1.15 1.536.676.666-2.942.267-.203 3.002 2.367.4.44.634-1.488 2.236 2.097 1.6 1.59-1.367.912.067.134 2.468 2.976-.1.744-2.335 2.266 1.3 1.894-1.833-1.218-2.136.203-.266 1.994-.267.17-3.27-2.164-.233-.237-.634 1.285-1.835-2.467-1.801-2.03 1.068-.54-2.402-2.47-.067z"/>
    <path d="M8.212 23.94c.884 0 1.603-.71 1.603-1.583 0-.872-.72-1.58-1.603-1.58-.885 0-1.604.708-1.604 1.58 0 .873.719 1.582 1.604 1.582m0-4.364c1.558 0 2.82 1.246 2.82 2.782 0 1.538-1.262 2.783-2.82 2.783-1.558 0-2.82-1.245-2.82-2.783 0-1.536 1.262-2.782 2.82-2.782"/>
    <path d="M15.21 23.13c0 .164-.13.301-.298.311l-1.793.112a.27.27 0 00-.242.192 4.7 4.7 0 01-.377.897.263.263 0 00.032.305l1.19 1.331a.312.312 0 01-.014.43l-1.095 1.078a.32.32 0 01-.434.014l-1.351-1.175a.268.268 0 00-.308-.032c-.288.152-.59.276-.907.37a.27.27 0 00-.196.237l-.113 1.775a.316.316 0 01-.317.293H7.439a.315.315 0 01-.316-.293l-.113-1.774a.271.271 0 00-.196-.238 4.813 4.813 0 01-.908-.369.276.276 0 00-.308.032L4.248 27.8a.323.323 0 01-.434-.014l-1.095-1.079a.312.312 0 01-.014-.429l1.188-1.329a.264.264 0 00.032-.305 4.79 4.79 0 01-.379-.899.27.27 0 00-.241-.192l-1.79-.112a.315.315 0 01-.298-.312v-1.526c0-.166.131-.303.298-.313l1.785-.11a.27.27 0 00.241-.195c.096-.316.223-.619.379-.905a.264.264 0 00-.033-.305l-1.182-1.322a.31.31 0 01.014-.428l1.095-1.08a.317.317 0 01.434-.013l1.338 1.163c.05.044.113.066.176.066a.28.28 0 00.134-.034 4.82 4.82 0 01.918-.375.27.27 0 00.197-.239l.112-1.757a.315.315 0 01.316-.293h1.548c.167 0 .306.128.317.293l.112 1.76a.269.269 0 00.196.236c.322.095.628.221.919.376a.271.271 0 00.309-.03l1.339-1.166a.316.316 0 01.434.013l1.095 1.08a.31.31 0 01.014.428l-1.184 1.325a.26.26 0 00-.032.304c.155.285.281.588.377.903a.27.27 0 00.24.194l1.789.111c.168.01.298.147.298.313v1.526zm1.217-1.362v-.165c0-.798-.632-1.462-1.439-1.512l-1.049-.066.696-.777a1.502 1.502 0 00-.067-2.073l-1.093-1.079a1.538 1.538 0 00-1.086-.444c-.374 0-.735.134-1.015.378l-.789.687-.066-1.036a1.529 1.529 0 00-1.532-1.419H7.439c-.808 0-1.48.623-1.531 1.42l-.066 1.035-.789-.687a1.547 1.547 0 00-2.1.066l-1.095 1.08a1.503 1.503 0 00-.065 2.072l.695.777-1.05.066A1.525 1.525 0 000 21.603v1.526c0 .797.631 1.461 1.438 1.512l1.05.064-.695.78a1.502 1.502 0 00.065 2.071l1.095 1.08a1.547 1.547 0 002.1.065l.789-.687.066 1.036a1.528 1.528 0 001.531 1.42h1.548a1.53 1.53 0 001.532-1.42l.066-1.036.789.686c.28.245.641.38 1.015.38.41 0 .796-.159 1.086-.444l1.093-1.08a1.501 1.501 0 00.067-2.072l-.696-.779 1.05-.064a1.527 1.527 0 001.438-1.512v-.16h.013v-1.2h-.013z"/>
    <path d="M7.753 46.49l-5.848-5.77 5.848-5.77 5.848 5.77-5.848 5.77zM3.77 9.659h8.27V1.5H3.77v8.158zm44.22 12.229l-2.406-1.861a.537.537 0 00-.865.427l.013 1.064H30.498V5.605a.856.856 0 00-.86-.85H13.56V.75A.756.756 0 0012.8 0H3.01a.756.756 0 00-.758.75v9.659c0 .414.34.75.759.75h9.79a.755.755 0 00.759-.75V6.456h15.22v15.062H15.754v1.7H28.78v16.689H14.925L8.289 33.36a.786.786 0 00-1.072 0L.295 40.19a.75.75 0 00-.223.53.75.75 0 00.223.532l6.922 6.83c.143.14.334.218.536.218a.763.763 0 00.536-.218l6.56-6.474h14.79a.856.856 0 00.859-.85v-17.54h14.255l.014 1.06a.538.538 0 00.857.42l2.358-1.752a.663.663 0 00.008-1.058z"/>
</svg>
