<svg xmlns="http://www.w3.org/2000/svg" viewBox="0 0 31 31">
    <path d="M21.825 18.5h-3.4v3.4h3.4v-3.4zm-5 0h-3.4v3.4h3.4v-3.4z" fill="#303030"/>
    <path d="M21.825 13.5h-3.4v3.4h3.4v-3.4z" fill="#59B4D9"/>
    <path d="M16.825 13.5h-3.4v3.4h3.4v-3.4zm0-5h-3.4v3.4h3.4V8.5zm5 15h-3.4v3.4h3.4v-3.4zm5-10h-3.4v3.4h3.4v-3.4zm0-5h-3.4v3.4h3.4V8.5zm-5 0h-3.4v3.4h3.4V8.5zm5 10h-3.4v3.4h3.4v-3.4zm-20 0h-3.4v3.4h3.4v-3.4zm0 5h-3.4v3.4h3.4v-3.4zm10 0h-3.4v3.4h3.4v-3.4zm-10-10h-3.4v3.4h3.4v-3.4z" fill="#303030"/>
    <path d="M29.925 1.5c-.1-.2-.3-.4-.4-.6-.1-.2-.2-.4-.5-.5-.3-.1-.4-.2-.6-.2V0h-26.8c-.2 0-.5.1-.6.2-.1.1-.4.3-.5.5-.1.2-.2.4-.4.7-.2.3-.1.3-.1.6v26.4c0 .2 0 .4.1.6.1.1.3.4.4.5.1.1.3.2.5.4s.4.1.6.1h26.8c.3 0 .4 0 .6-.1.2-.1.4-.2.5-.4.1-.2.3-.4.4-.5.1-.2.1-.4.1-.6V2.1c0-.2 0-.4-.1-.6zm-1.5 26.8h-26.6V6.7h26.6v21.6z" fill="#303030"/>
    <path d="M11.825 23.5h-3.4v3.4h3.4v-3.4zm0-15h-3.4v3.4h3.4V8.5zm0 5h-3.4v3.4h3.4v-3.4z" fill="#303030"/>
    <path d="M11.825 18.5h-3.4v3.4h3.4v-3.4z" fill="#59B4D9"/>
    <path d="M21.825 13.5h-3.4v3.4h3.4v-3.4zm-10 5h-3.4v3.4h3.4v-3.4z" fill="#0078D4"/>
</svg>
