<svg xmlns="http://www.w3.org/2000/svg" viewBox="0 0 118 127">
    <path d="M40.258 35.523h-38.6c-.7 0-1.2-.5-1.2-1.2v-32.4c0-.7.5-1.2 1.2-1.2h38.6c.7 0 1.2.5 1.2 1.2v32.4c0 .7-.5 1.2-1.2 1.2z" fill="#50E6FF"/>
    <path d="M40.258.723h-38.6c-.7 0-1.2.5-1.2 1.2v5.2h41v-5.2c0-.7-.5-1.2-1.2-1.2z" fill="#0078D4"/>
    <path d="M40.258 80.923h-38.6c-.7 0-1.2-.5-1.2-1.2v-32.4c0-.7.5-1.2 1.2-1.2h38.6c.7 0 1.2.5 1.2 1.2v32.4c0 .7-.5 1.2-1.2 1.2z" fill="#50E6FF"/>
    <path d="M40.258 46.123h-38.6c-.7 0-1.2.5-1.2 1.2v5.2h41v-5.2c0-.7-.5-1.2-1.2-1.2z" fill="#0078D4"/>
    <path d="M40.258 126.323h-38.6c-.7 0-1.2-.5-1.2-1.2v-32.4c0-.7.5-1.2 1.2-1.2h38.6c.7 0 1.2.5 1.2 1.2v32.4c0 .6-.5 1.2-1.2 1.2z" fill="#0078D7"/>
    <path d="M40.258 91.523h-38.6c-.7 0-1.2.5-1.2 1.2v5.2h41v-5.2c0-.7-.5-1.2-1.2-1.2z" fill="#50E6FF"/>
    <path d="M117.359 64.123v-5.5l-6.3-1c-.4-1.7-1.1-3.3-2-4.8l3.8-5.2-1.9-1.9-2-2-5.3 3.9c-1.5-.9-3-1.5-4.7-1.9l-1-6.6h-5.5l-1 6.6c-1.7.4-3.2 1-4.6 1.9l-5.4-3.9-3.9 3.9 4 5.4c-.9 1.4-1.6 2.9-2 4.6l-6.5 1v5.5l6.4 1c.4 1.7 1 3.3 1.9 4.8l-3.8 5.2 2.1 2.1 1.8 1.8 5.1-3.7c1.5 1 3.1 1.7 4.9 2.1l1 6.2h5.5l1-6.1c1.8-.4 3.5-1.1 5-2.1l5 3.7 3.9-3.9-3.7-5.1c.9-1.5 1.6-3.2 2-5l6.2-1zm-16.9 8.1c-1.6.8-3.3 1.2-5.2 1.2-.6 0-1.3-.1-1.9-.2-2.3-.4-4.6-1.4-6.3-3.1-2.3-2.2-3.6-5.3-3.6-8.5 0-6.6 5.3-11.9 11.9-11.9 3.2 0 6.2 1.3 8.5 3.6 2.1 2.2 3.3 5.1 3.3 8.2 0 4.7-2.8 8.7-6.7 10.7z" fill="#0078D7"/>
    <path d="M101.758 55.423c-1.6-1.7-3.9-2.7-6.4-2.7-4.2 0-7.7 2.9-8.6 6.8-.2.7-.3 1.4-.3 2.1 0 2.5 1 4.7 2.8 6.3 1.6 1.5 3.7 2.5 6.1 2.5 4.9 0 8.9-4 8.9-8.9 0-1.3-.3-2.5-.8-3.6-.5-1-1-1.8-1.7-2.5zm-6.4 11.8c-1.6 0-2.9-.6-3.9-1.6-1.1-1-1.8-2.5-1.8-4.1 0-3.1 2.6-5.7 5.7-5.7 1.6 0 3.1.7 4.1 1.8 1 1 1.6 2.4 1.6 3.9 0 3.2-2.6 5.7-5.7 5.7z" fill="#0078D7"/>
    <path d="M94.259 109.623l-29.5-.1v-4.3l-9.1 5.2 9.1 5.3v-4.4l31.3.1.1-24.8h-1.8l-.1 23zm2.1-94l-42.4-.2v1.8l40.6.1v18.8h1.7l.1-20.5z" fill="#50E6FF"/>
</svg>
