<svg xmlns="http://www.w3.org/2000/svg" viewBox="0 0 61 61"><path d="M23.365 26.273c.61 0 1.173.188 1.549.61.422.423.61.939.61 1.549s-.188 1.173-.61 1.548c-.423.422-.939.61-1.549.61s-1.173-.235-1.548-.657c-.375-.422-.61-.938-.61-1.548 0-.61.188-1.126.61-1.549.422-.375.938-.563 1.548-.563zm7.46 0c.61 0 1.173.188 1.548.61.422.423.61.939.61 1.549s-.188 1.173-.61 1.548c-.422.422-.938.61-1.548.61-.61 0-1.173-.235-1.548-.657-.376-.422-.61-.938-.61-1.548 0-.61.188-1.126.61-1.549.375-.375.938-.563 1.548-.563zm7.413 0c.61 0 1.173.188 1.548.61.422.423.61.939.61 1.549s-.188 1.173-.61 1.548c-.422.422-.938.61-1.548.61-.61 0-1.173-.235-1.548-.657-.376-.422-.61-.938-.61-1.548 0-.61.187-1.126.61-1.549.422-.375.938-.563 1.548-.563z" fill="#0078D4"/><path d="M45.916 28.293c0 5.395-4.316 9.806-9.618 9.806H25.132c-.235 0-.47 0-.657-.047l-6.24 2.674 1.689-4.27c-2.627-1.689-4.363-4.691-4.363-8.163v-.798c0-5.395 4.316-9.805 9.618-9.805h11.166c5.302 0 9.618 4.41 9.618 9.805v.798h-.047zM36.345 15.25H25.179c-6.662 0-12.058 5.536-12.058 12.292v.798c0 3.472 1.454 6.709 3.847 9.008l-3.237 8.117 11.213-4.88h11.401c6.662 0 12.058-5.536 12.058-12.292v-.798c0-6.709-5.396-12.245-12.058-12.245z" fill="#0078D4"/></svg>