<svg xmlns="http://www.w3.org/2000/svg" viewBox="0 0 331 344.9">
                                
                            
    <circle fill="#2E69B2" cx="131.5" cy="69.5" r="25"></circle>
    <circle fill="#2E69B2" cx="188.6" cy="150" r="29.8"></circle>
    <circle fill="#2E69B2" cx="238.5" cy="238.6" r="23.3"></circle>
    <circle fill="#2E69B2" cx="146" cy="222.5" r="20.1"></circle>
    <circle fill="#2E69B2" cx="64.6" cy="161.3" r="20.1"></circle>
    <rect style="fill:#2E69B2;stroke:#2E69B2;stroke-width:5.2118;stroke-miterlimit:10;" x="152.6" y="59.4" transform="matrix(0.8181 -0.5751 0.5751 0.8181 -33.7215 111.2752)" width="12.9" height="99"></rect>
    <rect style="fill:#2E69B2;stroke:#2E69B2;stroke-width:5.2118;stroke-miterlimit:10;" x="206.8" y="142.3" transform="matrix(0.8679 -0.4968 0.4968 0.8679 -67.7093 131.4122)" width="12.9" height="101.4"></rect>
    <rect style="fill:#2E69B2;stroke:#2E69B2;stroke-width:5.2118;stroke-miterlimit:10;" x="64.3" y="148.2" transform="matrix(0.9966 -8.274528e-02 8.274528e-02 0.9966 -12.3616 10.9496)" width="123.2" height="12.9"></rect>
    <rect style="fill:#2E69B2;stroke:#2E69B2;stroke-width:5.2118;stroke-miterlimit:10;" x="124.3" y="179.1" transform="matrix(0.5161 -0.8565 0.8565 0.5161 -78.4776 232.0936)" width="83.7" height="12.9"></rect>
    <circle fill="#2E69B2" cx="37.2" cy="88.2" r="24"></circle>
    <circle fill="#2E69B2" cx="293.2" cy="88.2" r="24"></circle>
    <circle fill="#2E69B2" cx="171.6" cy="316.2" r="24"></circle>
    <path fill="#2E69B2" d="M63.5,67.1c25.7-26.9,61.9-43.6,102-43.6c39.9,0,76,16.6,101.7,43.3c4.5-5.5,10.8-9.6,17.9-11.4 c-1.6-1.8-3.3-3.6-5.1-5.3c-14.9-14.9-32.2-26.5-51.5-34.7c-20-8.5-41.2-12.7-63.1-12.7c-21.9,0-43.1,4.3-63.1,12.7 c-19.3,8.2-36.6,19.8-51.5,34.7c-1.8,1.8-3.5,3.6-5.2,5.4C52.9,57.4,59,61.5,63.5,67.1z"></path>
    <path fill="#2E69B2" d="M318.3,110.8c-4.8,5.3-11.2,9-18.5,10.5c4.4,13.7,6.8,28.2,6.8,43.4c0,65.4-44.5,120.4-104.9,136.4 c2.3,4.6,3.6,9.7,3.6,15.2c0,1.9-0.2,3.8-0.5,5.6c8.1-2,16-4.7,23.7-7.9c19.3-8.2,36.6-19.8,51.5-34.7 c14.9-14.9,26.5-32.2,34.7-51.5c8.5-20,12.7-41.2,12.7-63.1C327.4,146.1,324.4,128,318.3,110.8z"></path>
    <path fill="#2E69B2" d="M140.3,303.5C74.4,291.6,24.4,234,24.4,164.6c0-15.1,2.4-29.6,6.8-43.3c-7.3-1.3-13.7-5-18.6-10.1 c-6,17.1-9,35-9,53.4c0,21.9,4.3,43.1,12.7,63.1c8.2,19.3,19.8,36.6,34.7,51.5c14.9,14.9,32.2,26.5,51.5,34.7 c11.7,5,23.9,8.5,36.4,10.5c-0.7-2.6-1-5.4-1-8.2C137.8,311.7,138.7,307.4,140.3,303.5z"></path>
</svg>