<svg xmlns="http://www.w3.org/2000/svg" viewBox="0 0 116 130">
    <path d="M54.248.994L3.842 29.738A7.623 7.623 0 000 36.361v57.276a7.622 7.622 0 003.841 6.624l50.407 28.744a7.578 7.578 0 007.504 0l50.407-28.744A7.622 7.622 0 00116 93.638V36.361a7.624 7.624 0 00-3.841-6.625L61.751.995a7.575 7.575 0 00-7.502 0z" fill="#1A1A1F"/>
    <path d="M58 27.695c4.223 0 7.646-3.435 7.646-7.673 0-4.237-3.423-7.672-7.646-7.672-4.222 0-7.645 3.435-7.645 7.672 0 4.238 3.423 7.673 7.645 7.673zm0 89.955c4.223 0 7.646-3.435 7.646-7.673 0-4.237-3.423-7.672-7.646-7.672-4.222 0-7.645 3.435-7.645 7.672 0 4.238 3.423 7.673 7.645 7.673zm26.419-37.715c0 11.226-11.094 19.372-26.382 19.372-13.44 0-21.866-5.082-25.731-15.533l13.12-2.479c1.699 3.68 5.448 7.882 13.705 7.882 8.262 0 11.341-4.98 11.341-8.117 0-6.528-7.843-8.79-11.217-9.459-14.324-2.852-24.463-6.14-24.463-22.6 0-13.514 12.52-18.308 23.242-18.308 11.73 0 19.356 3.891 23.3 11.892l-11.336 3.612c-2.378-4.07-6.438-6.22-11.764-6.22-7.777 0-9.833 5.378-9.833 8.222 0 3.919 3.894 7.353 9.918 8.758 7.555 1.76 12.862 3.111 15.958 4.418 4.903 2.072 10.142 8.035 10.142 18.56z" fill="#303030"/>
</svg>
