<svg xmlns="http://www.w3.org/2000/svg" viewBox="0 0 21 21"><path d="M10.5 20.5a9.78 9.78 0 0 1-10-10 9.78 9.78 0 0 1 10-10 9.78 9.78 0 0 1 10 10 9.78 9.78 0 0 1-10 10z" fill="#83bb41"/><path d="M10.5 1a9.292 9.292 0 0 1 9.5 9.5 9.292 9.292 0 0 1-9.5 9.5A9.292 9.292 0 0 1 1 10.5 9.292 9.292 0 0 1 10.5 1m0-1A10.253 10.253 0 0 0 0 10.5 10.253 10.253 0 0 0 10.5 21 10.253 10.253 0 0 0 21 10.5 10.253 10.253 0 0 0 10.5 0z" fill="#6abd45"/><path fill="#fff" d="M4.5 10.5L6 9l3 3 6-6 1.5 1.5L9 15l-4.5-4.5z"/></svg>