<svg xmlns="http://www.w3.org/2000/svg" viewBox="0 0 197 165"><g fill="none" fill-rule="evenodd"><path d="M86.762 144.506L2.48 109.474c-3.238-1.347-3.324-5.903-.139-7.37L97.51 58.29l96.436 43.895c2.735 1.245 2.703 5.14-.052 6.342l-83.163 35.776a30.604 30.604 0 0 1-23.969.204" fill="#BC0F0F"/><path d="M196.016 124.79c.117 1.387-.576 2.835-2.072 3.486l-78.638 32.732a40.847 40.847 0 0 1-31.994.272L2.52 127.64a3.951 3.951 0 0 1-2.44-3.146l-.04-19.387c-.04 1.554.792 3.127 2.48 3.829l84.82 35.313a30.597 30.597 0 0 0 23.967-.204l82.637-36.01a3.417 3.417 0 0 0 2.073-2.9v19.656z" fill="#951515"/><path d="M86.762 111.453L2.48 76.42c-3.238-1.346-3.324-5.903-.139-7.37l95.17-43.814 96.436 43.895c2.735 1.245 2.703 5.14-.052 6.342l-83.163 35.776a30.608 30.608 0 0 1-23.969.204" fill="#BC0F0F"/><path d="M196.027 91.489c.117 1.386-.575 2.834-2.072 3.486l-79.226 32.979a40.843 40.843 0 0 1-31.994.272L2.479 94.868A3.949 3.949 0 0 1 .04 91.722L.002 72.336c-.042 1.553.79 3.127 2.477 3.828l84.283 35.032a30.6 30.6 0 0 0 23.969-.204l83.224-36.259c1.287-.56 1.912-1.574 2.007-2.765l.065 19.521z" fill="#951515"/><path d="M86.762 78.4L2.48 43.366c-3.238-1.346-3.324-5.903-.139-7.369L85.823 2.283a31.378 31.378 0 0 1 23.39-.045l84.733 33.84c2.735 1.244 2.703 5.14-.052 6.342l-83.163 35.775a30.6 30.6 0 0 1-23.969.204" fill="#BC0F0F"/><path d="M195.96 58.554c.118 1.386-.575 2.834-2.071 3.485l-79.16 32.862a40.85 40.85 0 0 1-31.994.273L2.48 61.815A3.951 3.951 0 0 1 .04 58.67L.002 39.282c-.042 1.553.79 3.127 2.478 3.828l84.283 35.033a30.602 30.602 0 0 0 23.968-.205l83.158-36.14a3.417 3.417 0 0 0 2.073-2.9l-.002 19.655z" fill="#951515"/><path d="M80.412 38.465c0 5.854-10.53 10.6-23.521 10.6-12.991 0-23.522-4.746-23.522-10.6 0-5.854 10.53-10.6 23.522-10.6 12.99 0 23.52 4.746 23.52 10.6M66.634 55.854l.406.188 34.697 16.083 12.683-21.78z" fill="#FFF"/><path fill="#951515" d="M140.17 51.242V25.877l28.056 12.682z"/><path fill="#771819" d="M140.17 51.242l-27.286-12.683 27.287-12.682z"/><path d="M88.797 23.57l3.716 8.712 9.992-7.687 18.449 1.153-12.62-6.822 8.264-7.687-17.871 3.651-14.124-5.957 1.922 8.648s-16.817 4.324-16.529 4.324c.29 0 18.802 1.665 18.802 1.665" fill="#FFF"/></g></svg>