<svg xmlns="http://www.w3.org/2000/svg" viewBox="0 0 168.705 97.003">
                                
                            
    <path d="M165.151,90.527h-9.789a2.536,2.536,0,0,0,.178-1.134,3.366,3.366,0,0,0-3.554-3.241H3.554a3.256,3.256,0,1,0,0,6.484H71.589a2.391,2.391,0,0,0-.265,1.131A3.414,3.414,0,0,0,74.878,97h90.273a3.252,3.252,0,1,0,0-6.476Z" fill="#969696"></path>
    <path d="M116.326,50.762l-6.849-6.638a2.657,2.657,0,0,0-1.42-.737V28.167H28.1V47.924h4.619V32.536h70.7V46.792l-3.65,3.89a6.608,6.608,0,0,0-1.688,4.052V87.048a2.474,2.474,0,0,0,2.585,2.345h14.844a2.474,2.474,0,0,0,2.585-2.345V54.734A6.333,6.333,0,0,0,116.326,50.762Z" fill="#a80000"></path>
    <path d="M74.433,12.536,71.412,5.728a1.455,1.455,0,0,0-1.156-.808l-.442-.082-.888,5.75-2.142,2.271-3.554-.4L61.81,9.618,62.7,3.948l-.445-.079a1.6,1.6,0,0,0-1.33.485l-4.983,5.829a1.346,1.346,0,0,0-.178,1.3l3.018,6.8a1.586,1.586,0,0,0,1.155.89l.629.079L56.026,48.491l6.761.9,4.532-29.32.62.079a1.613,1.613,0,0,0,1.342-.485l4.974-5.75A1.533,1.533,0,0,0,74.433,12.536Z" fill="#1b348e"></path>
    <path d="M74.433,12.536l-2.489-5.75-.62,4.046L69.1,13.182l-2.32-.323-3.554-.4L61.81,9.618,62.7,3.948l-.265,1.7-4.186,4.78a1.554,1.554,0,0,0-.178,1.381l3.03,6.8a1.455,1.455,0,0,0,1.152.808l.713.162L58.425,48.814l4.363.573,4.532-29.32.62.079a1.613,1.613,0,0,0,1.342-.485l4.974-5.75A1.533,1.533,0,0,0,74.433,12.536Z" fill="#0078d7"></path>
    <path d="M54.784,14.234C51.311,5.244,37.975,7.191,37.975,7.191h-.087a22.437,22.437,0,0,0-3.831.567h-.265c-.09,0-.178.079-.268.079h-.178c-2.753.646-4.441,1.457-4.532,1.781a1.66,1.66,0,0,1-1.252,1.455,4.113,4.113,0,0,1-2.043-.323,17.179,17.179,0,0,0-3.108-.567l-1.155.244-.8.244h-.178a1.236,1.236,0,0,0-.984,1.381L20.9,18.124a1.307,1.307,0,0,0,1.511.808h.178l2.133-.485a9.645,9.645,0,0,0,2.308-1.616,4.409,4.409,0,0,1,1.7-1.14,1.871,1.871,0,0,1,1.065.241v.082l.178.567a1.413,1.413,0,0,0,1.6.9l2.043-.485,5.693,22.351,4.532-1.052L38.152,16.015,40.2,15.61a1.212,1.212,0,0,0,.891-1.455L41,13.749C46.957,9.78,53.983,13.993,54.784,14.234Z" fill="#ffb900"></path>
    <path d="M50.6,53.835a1.2,1.2,0,0,1-.975,1.463l-7.117,1.537a1.339,1.339,0,0,1-1.6-.888L33.524,27.192a1.166,1.166,0,0,1,.978-1.375l7.117-1.537a1.332,1.332,0,0,1,1.6.888Z" fill="#0078d7"></path>
    <path d="M35.745,25.573l-1.243.244a1.166,1.166,0,0,0-.978,1.375l7.381,28.756a1.339,1.339,0,0,0,1.6.888l1.243-.323Z" opacity="0.28"></path>
    <path d="M23.035,17.639l-1.511-5.994a1.213,1.213,0,0,1,.888-1.463h0l-1.155.244-.8.244h-.178a1.236,1.236,0,0,0-.984,1.381L20.9,18.124a1.307,1.307,0,0,0,1.511.808h.178l2.133-.485h0l-.09.082A1.414,1.414,0,0,1,23.035,17.639Z" fill="#db9d00"></path>
    <polygon points="35.035 16.67 33.524 16.993 35.745 25.573 37.174 25.25 35.035 16.67" fill="#db9d00"></polygon>
    <path d="M55.048,36.426a9.2,9.2,0,0,1-.265-2.186c0-6.073,5.425-10.933,12.091-10.933a12.957,12.957,0,0,1,7.117,2.1A15.578,15.578,0,0,1,87.156,18.53c8.182,0,14.94,5.991,15.03,13.522h.178c6.671,0,12.091,4.86,12.091,10.933S109.035,54,102.364,54H55.316c-5.338,0-9.692-3.961-9.692-8.821C45.624,40.4,49.8,36.506,55.048,36.426Z" fill="#bbe2ef"></path>
    <path d="M49.533,38.125a8.073,8.073,0,0,0-1.243,4.213c0,4.86,4.36,8.829,9.692,8.829H105.03a12.676,12.676,0,0,0,7.646-2.515A12.448,12.448,0,0,1,102.364,54H55.316c-5.338,0-9.692-3.961-9.692-8.821A8.57,8.57,0,0,1,49.533,38.125Z" fill="#d2d2d2"></path>
    <rect x="30.238" y="52.381" width="87.866" height="37.012" fill="#e81123"></rect>
    <path d="M38.863,81.945S52.382,52.381,118.1,52.381H38.863Z" fill="#ba1121"></path>
    <path d="M118.1,89.393v-1.94H40.286a2.534,2.534,0,0,1-2.579,1.94Z" fill="#8a0000"></path>
    <path d="M40.818,52.46l-8.627-8.336a2.411,2.411,0,0,0-3.463,0L20.9,52.3a.28.28,0,0,0-.09.244V88.262a1.164,1.164,0,0,0,1.246,1.131H39.485a1.246,1.246,0,0,0,1.333-1.131Z" fill="#a80000"></path>
    <path d="M80.126,92.554a1.434,1.434,0,0,1-1.511-1.3V49.387a1.494,1.494,0,0,1,1.511-1.381h32.995a1.472,1.472,0,0,1,1.42,1.381V91.253a1.407,1.407,0,0,1-1.42,1.3Z"></path>
    <path d="M80.662,92.554a1.351,1.351,0,0,1-1.423-1.3V49.387a1.412,1.412,0,0,1,1.423-1.381h32.992a1.412,1.412,0,0,1,1.423,1.381V91.253a1.351,1.351,0,0,1-1.423,1.3Z" fill="#505050"></path>
    <rect x="83.238" y="51.573" width="27.84" height="37.418" fill="#ffb900"></rect>
    <polygon points="112.321 70.439 112.411 71.74 113.476 71.74 113.744 70.439 112.321 70.439" fill="#969696"></polygon>
    <path d="M146.381,91.5l-1.333-2.345,1.688-.811,1.342,2.427a.786.786,0,0,1-.355,1.134h0A1.015,1.015,0,0,1,146.381,91.5Z" fill="#e81123"></path>
    <polygon points="106.54 8.484 100.23 11.405 97.113 12.859 137.576 84.695 140.784 83.24 147.004 80.32 106.54 8.484" fill="#0078d7"></polygon>
    <polygon points="96.58 9.698 98.091 12.374 105.562 8.89 103.961 6.222 96.58 9.698" fill="#1b348e"></polygon>
    <polygon points="148.165 89.475 147.004 80.32 137.576 84.695 145.138 90.85 148.165 89.475" fill="#0078d7"></polygon>
    <polygon points="97.113 12.859 137.576 84.695 140.784 83.24 100.23 11.405 97.113 12.859" opacity="0.28"></polygon>
    <path d="M102.186.795A1.585,1.585,0,0,0,100.143.14L96.58,1.847c-.355.162-.888.4-1.42.647-.445.162-.978.4-1.333.564l-.445.244a1.361,1.361,0,0,0-.623,1.86L95.6,10.183l3.111-1.537,6.226-2.917Z" fill="#0078d7"></path>
    <path d="M98.536,8.323,95.425,2.816a.627.627,0,0,0-.623-.162,8.887,8.887,0,0,1-.975.4h0a1.88,1.88,0,0,0-.891,2.509l2.4,4.213c.178.241.442.323.62.162L98.268,8.89A.434.434,0,0,0,98.536,8.323Z" opacity="0.28"></path>
    <polygon points="139.445 66.798 133.58 56.512 134.823 55.865 140.606 66.234 139.445 66.798" fill="#5c2d91"></polygon>
    <polygon points="139.445 66.798 133.58 56.512 134.29 56.109 140.161 66.475 139.445 66.798" opacity="0.28"></polygon>
    <rect x="85.555" y="58.535" width="23.212" height="26.727" fill="#fff"></rect>
    <path d="M95.425,55.621A1.716,1.716,0,0,1,97.2,54a1.693,1.693,0,0,1,1.688,1.624Zm9.069,0H100.32a3.176,3.176,0,0,0-6.316,0H89.641a.674.674,0,0,0-.71.649v2.263a.732.732,0,0,0,.71.649h14.853a.672.672,0,0,0,.713-.649V56.271A.629.629,0,0,0,104.494,55.621Z" fill="#002050"></path>
    <path d="M104.584,70.439H89.731a.732.732,0,1,1,0-1.457h14.853a.732.732,0,1,1,0,1.457Z" fill="#0078d7"></path>
    <path d="M96.935,65.908h-7.2a.764.764,0,0,1-.8-.734.831.831,0,0,1,.8-.808h7.2a.831.831,0,0,1,.8.808A.764.764,0,0,1,96.935,65.908Z" fill="#0078d7"></path>
    <path d="M104.584,73.033H89.731a.731.731,0,1,1,0-1.455h14.853a.731.731,0,1,1,0,1.455Z" fill="#0078d7"></path>
    <path d="M104.584,75.7H89.731a.732.732,0,1,1,0-1.457h14.853a.732.732,0,1,1,0,1.457Z" fill="#0078d7"></path>
    <path d="M104.584,78.3H89.731a.731.731,0,1,1,0-1.455h14.853a.731.731,0,1,1,0,1.455Z" fill="#0078d7"></path>
    <path d="M104.584,80.967H89.731a.731.731,0,1,1,0-1.455h14.853a.731.731,0,1,1,0,1.455Z" fill="#0078d7"></path>
</svg>