<svg xmlns="http://www.w3.org/2000/svg" viewBox="0 0 16 16">
    <path fill="#00ABEC" d="M3.5 13h8.25A4.254 4.254 0 0016 8.75a4.254 4.254 0 00-3.966-4.24A4.477 4.477 0 008 2a4.506 4.506 0 00-4.472 4H3.5C1.57 6 0 7.57 0 9.5S1.57 13 3.5 13zm0-6c.13 0 .267.012.419.038l.581.054V6.5C4.5 4.57 6.07 3 8 3c1.433 0 2.706.859 3.244 2.19l.169.31h.337C13.542 5.5 15 6.958 15 8.75S13.542 12 11.75 12H3.5C2.122 12 1 10.878 1 9.5S2.122 7 3.5 7z"/>
    <path fill="#00ABEC" d="M11.59 4.655A6.499 6.499 0 007 8.527V6.5H6V10h3.5V9H7.887A5.49 5.49 0 0113 5.5l-1.41-.845z"/>
</svg>
