<svg xmlns="http://www.w3.org/2000/svg" viewBox="0 0 73 77">
    <path d="M73 77H0l14.6-43.313h19.467v-9.85c-1.496-.3-2.801-.815-3.916-1.542a12.297 12.297 0 01-3.08-2.631 10.753 10.753 0 01-2.015-3.535c-.482-1.253-.723-2.619-.723-4.098 0-1.68.317-3.233.95-4.662a11.79 11.79 0 012.586-3.797c1.09-1.078 2.383-1.943 3.878-2.594a11.946 11.946 0 019.468 0 12.74 12.74 0 013.84 2.594 12.602 12.602 0 012.623 3.797 11.5 11.5 0 01.989 4.662c0 .727-.064 1.429-.19 2.106a13.6 13.6 0 01-.533 1.992 13.704 13.704 0 01-2.015 3.535c-.43.5-.906.977-1.426 1.428-.52.451-1.07.852-1.654 1.203-1.165.727-2.47 1.241-3.916 1.542v9.85H58.4L73 77zM6.768 72.187h59.464L54.902 38.5H38.933v18.047c0 .2-.101.4-.304.601-.152.126-.38.251-.684.376-.127.05-.26.088-.4.113-.139.025-.272.05-.399.075a1.864 1.864 0 01-.36.038h-.609c-.114 0-.235-.013-.361-.038-.127-.025-.26-.05-.4-.075a2.086 2.086 0 01-.399-.113c-.304-.125-.532-.25-.684-.376a.824.824 0 01-.266-.601V38.5h-15.97L6.768 72.188zM29.2 12.032c0 1.028.19 1.968.57 2.82.203.426.425.833.666 1.222.24.389.538.746.893 1.072.608.651 1.382 1.165 2.32 1.541.861.376 1.812.564 2.851.564.989 0 1.94-.188 2.852-.564a7.33 7.33 0 002.319-1.541 7.239 7.239 0 001.559-2.294c.38-.852.57-1.792.57-2.82a7.2 7.2 0 00-.57-2.82 7.535 7.535 0 00-1.56-2.293 7.63 7.63 0 00-2.318-1.542 7.414 7.414 0 00-2.852-.564c-1.04 0-1.99.188-2.852.564a7.063 7.063 0 00-2.319 1.542 7.239 7.239 0 00-1.559 2.293 7.191 7.191 0 00-.57 2.82z"/>
</svg>
