<svg xmlns="http://www.w3.org/2000/svg" viewBox="0 0 39 51">
                                
                            
    <path d="M0.757,7.288 L0.757,43.399 C0.757,47.148 9.149,50.188 19.5,50.188 L19.5,7.288 C19.5,7.288 0.757,7.288 0.757,7.288 Z" fill="#505050" fill-rule="nonzero"></path>
    <path d="M19.243,50.187 L19.5,50.187 C29.851,50.187 38.243,47.149 38.243,43.399 L38.243,7.288 L19.243,7.288 L19.243,50.187 Z" fill="#505050" fill-rule="nonzero"></path>
    <path d="M19.243,50.187 L19.5,50.187 C29.851,50.187 38.243,47.149 38.243,43.399 L38.243,7.288 L19.243,7.288 L19.243,50.187 Z" fill="#FFFFFF" fill-rule="nonzero" opacity="0.15"></path>
    <path d="M38.243,7.288 C38.243,11.037 29.851,14.076 19.5,14.076 C9.149,14.076 0.757,11.037 0.757,7.288 C0.757,3.539 9.149,0.5 19.5,0.5 C29.851,0.5 38.243,3.539 38.243,7.288" fill="#FFFFFF" fill-rule="nonzero"></path>
    <path d="M34.411,6.897 C34.411,9.372 27.735,11.376 19.5,11.376 C11.265,11.376 4.588,9.372 4.588,6.897 C4.588,4.423 11.265,2.418 19.5,2.418 C27.735,2.418 34.411,4.423 34.411,6.897" fill="#0072C6" fill-rule="nonzero"></path>
    <path d="M31.287,9.634 C33.239,8.877 34.412,7.929 34.412,6.899 C34.412,4.424 27.736,2.419 19.5,2.419 C11.265,2.419 4.589,4.424 4.589,6.899 C4.589,7.929 5.762,8.877 7.714,9.634 C10.44,8.576 14.7,7.893 19.5,7.893 C24.301,7.893 28.559,8.576 31.287,9.634" fill="#00ABEC" fill-rule="nonzero"></path>
    <text font-family="SegoeUI-Bold, Segoe UI" font-size="15" font-weight="bold" letter-spacing="-0.00174776127" fill="#FFFFFF">
        <tspan x="2" y="33">{</tspan>
        <tspan x="7.53536161" y="33" font-family="SegoeUI-Semibold, Segoe UI" font-size="11" font-weight="500">LEAF</tspan>
        <tspan x="31.6123549" y="33">}</tspan>
    </text>
</svg>