<svg xmlns="http://www.w3.org/2000/svg" viewBox="0 0 48 48"><path d="M2.56 5.045A2.514 2.514 0 0 1 .042 2.527 2.514 2.514 0 0 1 2.56.008a2.509 2.509 0 0 1 2.518 2.519A2.52 2.52 0 0 1 2.56 5.045zM10.114 5.045a2.52 2.52 0 0 1 0-5.037 2.52 2.52 0 0 1 2.518 2.519 2.514 2.514 0 0 1-2.518 2.518zM17.684 5.045a2.52 2.52 0 0 1 0-5.037 2.52 2.52 0 0 1 0 5.037zM25.314 5.045a2.514 2.514 0 0 1-2.518-2.518c0-1.39 1.12-2.519 2.518-2.519a2.52 2.52 0 0 1 0 5.037zM32.842 5.045a2.52 2.52 0 0 1 0-5.037 2.52 2.52 0 0 1 0 5.037zM40.43 5.045a2.52 2.52 0 0 1 0-5.037 2.52 2.52 0 0 1 0 5.037zM2.56 12.6a2.52 2.52 0 0 1 0-5.037 2.52 2.52 0 0 1 0 5.037zM40.43 12.6a2.52 2.52 0 0 1 0-5.037 2.52 2.52 0 0 1 0 5.037zM2.534 20.271a2.52 2.52 0 0 1 0-5.037 2.514 2.514 0 0 1 2.518 2.519 2.525 2.525 0 0 1-2.517 2.518zM17.676 20.271a2.52 2.52 0 0 1 0-5.037 2.52 2.52 0 0 1 0 5.037zM25.314 20.271a2.52 2.52 0 0 1 0-5.037 2.52 2.52 0 0 1 0 5.037zM40.43 20.189a2.52 2.52 0 0 1 0-5.037 2.52 2.52 0 0 1 0 5.037zM2.62 27.83a2.52 2.52 0 0 1 0-5.037 2.514 2.514 0 0 1 2.517 2.518A2.525 2.525 0 0 1 2.62 27.83zM17.76 27.83a2.52 2.52 0 0 1 0-5.037 2.52 2.52 0 0 1 0 5.037zM2.619 35.391a2.514 2.514 0 0 1-2.518-2.518 2.514 2.514 0 0 1 2.518-2.518 2.514 2.514 0 0 1 2.518 2.518 2.525 2.525 0 0 1-2.518 2.518zM2.619 42.947a2.514 2.514 0 0 1-2.518-2.519A2.514 2.514 0 0 1 2.62 37.91a2.514 2.514 0 0 1 2.518 2.518 2.525 2.525 0 0 1-2.518 2.519zM10.173 42.947a2.514 2.514 0 0 1-2.518-2.519 2.514 2.514 0 0 1 2.518-2.518 2.52 2.52 0 0 1 0 5.037zM17.76 42.947a2.514 2.514 0 0 1-2.518-2.519 2.514 2.514 0 0 1 2.518-2.518 2.52 2.52 0 0 1 0 5.037z" fill="#50E6FF"/><path d="M45.524 43.605l-7.293-7.218a8.506 8.506 0 0 0 1.752-5.189c0-4.724-3.84-8.565-8.564-8.565s-8.564 3.84-8.564 8.566c0 4.725 3.84 8.565 8.564 8.565 1.87 0 3.604-.598 5.002-1.608l7.326 7.251 1.777-1.802zm-14.105-6.367a6.053 6.053 0 0 1-6.047-6.048 6.053 6.053 0 0 1 6.047-6.047 6.053 6.053 0 0 1 6.046 6.047 6.053 6.053 0 0 1-6.046 6.047zM10.13 17.687H7.639V7.547h10.046v2.56h-7.553v7.58zM17.735 32.89v2.493H7.587V25.335h2.56v7.555h7.588zM25.271 10.108V7.59H35.36v10.099H32.8v-7.58h-7.528z" fill="#0078D4"/></svg>