<svg xmlns="http://www.w3.org/2000/svg" viewBox="0 0 155 99">
    <path d="M20.77 62.887c0 7.471 6.2 14.01 14.26 14.943h91.76C142.29 77.83 155 66 155 51.368c0-14.944-12.71-26.462-28.21-26.462-3.41 0-6.2.934-9.3 1.556C111.91 10.896 96.41 0 78.43 0h-.31C55.18 0 36.89 17.434 36.89 38.604c0 3.424.93 7.16 1.55 10.273h-2.17c-8.37-.622-15.5 5.604-15.5 14.01z"/>
    <path d="M0 82.5C0 90.906 6.82 98.066 15.81 99H117.8c17.36 0 31.31-13.075 31.31-29.575s-13.95-29.576-31.31-29.576c-3.72 0-7.13.934-10.23 1.868-6.2-17.434-23.25-29.575-43.4-29.575h-.31c-25.42 0-45.88 19.301-45.88 42.962 0 4.047.93 7.783 1.86 11.207h-2.48C8.06 66.311 0 73.161 0 82.5z" fill="#1A1A1F"/>
    <path opacity=".2" d="M64.17 12.142h-.31c-25.42 0-45.88 19.302-45.88 42.962 0 4.047.93 7.783 1.86 11.207h-2.48C8.06 66.311 0 73.161 0 82.5 0 90.906 6.82 98.066 15.81 99h2.48c-9.3-21.17 13.64-25.528 13.64-25.528-2.17-51.99 46.5-57.906 47.74-58.529-4.65-1.867-9.92-2.801-15.5-2.801z" fill="#1A1A1F"/>
    <path d="M50.53 47.32h15.19l22.32 22.416L58.59 99H43.71l28.83-29.264L50.53 47.32zm34.1-33.31h15.5l17.67 18.056-22.01 21.481H81.53l20.77-21.792-17.67-17.746zm17.98 40.16h15.19l14.88 14.943-20.46 20.236H97.34l19.84-20.236-14.57-14.943z" fill="#303030"/>
</svg>
