<svg xmlns="http://www.w3.org/2000/svg" viewBox="0 0 132 127">
    <path d="M116.6 124.111c-1.32 0 .025.272-1.1 0v-13.715h-99c-.56 0-13.75-.127-13.75-11.068V13.555c0-7.415 6.416-10.79 12.376-10.79 5.959 0 12.374 3.378 12.374 10.79v2.767h77.275c14.87 0 24.475 4.515 24.475 19.645v79.963c0 6.209-5.557 8.181-12.65 8.181z" fill="#59B4D9"/>
    <path opacity=".7" d="M116.6 124.111c-1.32 0 .025.272-1.1 0v-13.715h-99c-.56 0-13.75-.127-13.75-11.068V13.555c0-7.415 6.416-10.79 12.376-10.79 5.959 0 12.374 3.378 12.374 10.79v2.767h77.275c14.87 0 24.475 4.515 24.475 19.645v79.963c0 6.209-5.557 8.181-12.65 8.181z" fill="#fff"/>
    <path d="M104.775 13.558H30.25C30.25 5.258 23.375 0 15.125 0S0 5.257 0 13.558v83.006c0 13.835 8.25 16.602 16.5 16.602h96.25V127S132 127 132 113.166V35.969c0-16.6-8.25-22.411-27.225-22.411zM126.5 113.719s-5.5-6.087-16.225-6.087H16.5c-5.5 0-11-1.384-11-9.684 0-4.704 3.575-9.684 11-9.684 8.25 0 13.475 8.3 13.475 8.3h.275V19.092h77.275c11 0 18.975 3.043 18.975 14.11v80.517z" fill="#0072C6"/>
    <path d="M96.251 82.594l4.125 11.068 4.125-11.068h-8.25zm8.251-38.734h-8.25v33.203h8.25V43.86zm-4.127-13.557c2.277 0 4.125 1.79 4.125 4l-.074 4.024-8.175-.072v-3.954c0-2.208 1.847-3.998 4.124-3.998zM63.25 27.536c1.519 0 2.75 1.79 2.75 4l-.049 4.024-5.45-.072v-3.954c0-2.208 1.232-3.998 2.75-3.998z" fill="#0072C6"/>
    <path d="M63.25 33.07c-5.924 0-10.725 4.83-10.725 10.79 0 5.96 4.801 10.791 10.725 10.791 5.923 0 10.725-4.83 10.725-10.79 0-5.96-4.802-10.791-10.725-10.791zm0 18.815c-4.397 0-7.975-3.6-7.975-8.024 0-4.425 3.578-8.024 7.975-8.024s7.975 3.6 7.975 8.024c0 4.424-3.578 8.024-7.975 8.024z" fill="#0072C6"/>
    <path d="M63.25 51.923v-5.295l-5.134 3.616-11.047 34.21-.784 11.377 6.012-9.667h.002l11.047-34.21-.096-.03z" fill="#0072C6"/>
    <path d="M79.431 84.454l-11.047-34.21-5.134-3.616v5.295l-.096.03L74.2 86.164h.002l6.012 9.668-.784-11.377z" fill="#0072C6"/>
    <path d="M85.25 71.53h-44a1.38 1.38 0 01-1.374-1.384 1.38 1.38 0 011.375-1.383h44c.758 0 1.374.62 1.374 1.383a1.38 1.38 0 01-1.374 1.384z" fill="#0072C6"/>
</svg>
