<svg xmlns="http://www.w3.org/2000/svg" viewBox="0 0 50 50"><path fill="#3E3E3E" d="M36 7.6s-.5 0-.8.3-2 1.7-3.3 2.3c-.7.3-1.2.7-1.5.7-.7.1-2.4.3-5.4.3s-4.7-.2-5.3-.3c-.3-.2-.8-.3-1.5-.7-1.2-.7-3-2.2-3.3-2.3-.3-.3-.8-.3-.8-.3-1.3.2-2.5.3-3.7.7C8.4 9 6.9 10 6.9 10s-4 9.1-5 13.3c-1.3 6-2.7 11.8-1.5 16 .3 1.5 1.2 3.3 3.8 3.3 2.3 0 7.6-5.2 10.3-7.5 2.3-2 4.7-2.3 10.5-2.3s8.2.2 10.5 2.2c2.5 2.3 8 7.3 10.1 7.5h.2c2.8 0 3.5-1.8 3.8-3.2 1-4.2-.2-10-1.5-16-1-4.2-5-13.3-5-13.3s-1.5-1-3.5-1.7c-1.1-.4-2.3-.6-3.6-.7z"/><path fill="#A0A1A2" d="M14.1 16.3c-2.8 0-5 2.2-5 5s2.2 5 5 5 5-2.2 5-5-2.3-5-5-5zm0 7.9c-1.6 0-2.9-1.3-2.9-2.9 0-1.6 1.3-2.9 2.9-2.9s2.9 1.3 2.9 2.9c0 1.5-1.4 2.9-2.9 2.9z"/><circle fill="#0072C6" cx="32.1" cy="20.8" r="2.1"/><circle fill="#BA141A" cx="40.8" cy="20.8" r="2.1"/><circle fill="#FCD116" cx="36.4" cy="16.4" r="2.1"/><circle fill="#7FBA00" cx="36.4" cy="25.2" r="2.1"/><path fill="#3E3E3E" d="M14.1 24.9c-2 0-3.7-1.7-3.7-3.7s1.7-3.7 3.7-3.7 3.7 1.7 3.7 3.7-1.7 3.7-3.7 3.7z"/></svg>