<svg xmlns="http://www.w3.org/2000/svg" viewBox="0 0 51 47">
                                
                            
    <path fill="#A0A1A2" d="M0,41.4 C0,42.4 0.7,43.3 1.9,43.3 L48.1,43.3 C49.1,43.3 50,42.6 50,41.4 L50,8.3 L0,8.3 L0,41.4 Z"></path>
    <path fill="#7A7A7A" d="M48.1,0.7 L1.9,0.7 C0.7,0.7 0,1.6 0,2.6 L0,8.3 L50,8.3 L50,2.6 C50,1.6 49.3,0.7 48.1,0.7"></path>
    <rect width="42.6" height="7.6" x="3.8" y="21.9" fill="#89C402"></rect>
    <rect width="42.6" height="7.6" x="3.8" y="11.6" fill="#FFF"></rect>
    <rect width="42.6" height="7.6" x="3.8" y="32.1" fill="#89C402"></rect>
    <path fill="#FFF" d="M1.9,0.7 C1,0.7 0,1.6 0,2.6 L0,10 L0,13.3 L0,41.4 C0,42.4 1,43.3 1.9,43.3 L4,43.3 L43.6,0.7 L1.9,0.7 Z" opacity=".2"></path>
</svg>