<svg xmlns="http://www.w3.org/2000/svg" viewBox="0 0 145 117"><path d="M41.959 7.823h-37v2.5h35.6l9.8 15.4c.8-.3 1.6-.5 2.5-.8l-10.9-17.1zM103.359 109.223h30.9v-2.5h-29.5l-12.2-19.1c-.8.2-1.6.5-2.5.7l13.3 20.9zM40.659 106.723h-35.6v2.5h37l13.1-20.7c-.9-.2-1.8-.4-2.6-.6l-11.9 18.8zM104.658 10.323h29.5v-2.5h-30.9l-11 17.5c.9.3 1.7.5 2.5.8l9.9-15.8zM137.759 58.123h-34.7v2.5h34.7v-2.5zM41.759 58.123h-32.6v2.5h32.6v-2.5zM96.958 46.723h-49.2v-11.1s-.7-5.3 23.9-6.1c24.7-.7 25.2 6.1 25.2 6.1v11.1h.1z" fill="#50E6FF"/><path d="M72.359 54.523c8.8 0 15.5-1 19.7-2.2 2.5-.7 3.2-.9 4.4-1.6.7-.4 1.3-.8 1.7-1.3.1-.1.1-.2.1-.3v-13.4-.3c0-5-13.5-7.2-26.1-7.2-12.6 0-26.1 2.3-26.1 7.2V49.023c0 .2.1.5.3.6 2.5 1.9 12 4.9 26 4.9zm-.1-23.8c15.3 0 23.6 3.1 23.6 4.8 0 1.7-8.3 4.8-23.6 4.8s-23.6-3.1-23.6-4.8c0-1.7 8.3-4.8 23.6-4.8z" fill="#0078D4"/><path d="M72.359 70.123c8.9 0 15.5-1 19.7-2.2 2.4-.7 3.5-1.2 4.5-1.8.7-.4 1.2-.8 1.7-1.4v-13.3c-.4.2-.9.5-1.4.8-4.9 2.8-15 3.8-24.5 3.8-9.9 0-20.7-1.3-25.5-4.1 0 0-.4-.2-.7-.4v13.5c1.7 1.9 11.5 5.1 26.2 5.1z" fill="#0078D4"/><path d="M72.359 71.723c-9.9 0-20.7-1.3-25.5-4.1 0 0-.4-.2-.7-.4V78.023c0 5 13.5 7.2 26.1 7.2 12.6 0 26.1-2.3 26.1-7.2v-10.9c-.4.3-.7.5-1.4.9-1 .5-2.2 1-3.6 1.4-5.4 1.7-13.4 2.3-21 2.3zM136.058 17.123c4.5 0 8.2-3.7 8.2-8.2 0-4.5-3.7-8.2-8.2-8.2-4.5 0-8.2 3.7-8.2 8.2 0 4.5 3.7 8.2 8.2 8.2zM136.058 100.223c-4.5 0-8.2 3.7-8.2 8.2 0 4.5 3.7 8.2 8.2 8.2 4.5 0 8.2-3.7 8.2-8.2 0-4.6-3.7-8.2-8.2-8.2zM136.058 50.323c-4.5 0-8.2 3.7-8.2 8.2 0 4.5 3.7 8.2 8.2 8.2 4.5 0 8.2-3.7 8.2-8.2 0-4.5-3.7-8.2-8.2-8.2zM8.659.723c-4.5 0-8.2 3.7-8.2 8.2 0 4.5 3.7 8.2 8.2 8.2 4.5 0 8.2-3.7 8.2-8.2 0-4.5-3.7-8.2-8.2-8.2zM8.659 100.223c-4.5 0-8.2 3.7-8.2 8.2 0 4.5 3.7 8.2 8.2 8.2 4.5 0 8.2-3.7 8.2-8.2 0-4.6-3.7-8.2-8.2-8.2zM8.659 50.323c-4.5 0-8.2 3.7-8.2 8.2 0 4.5 3.7 8.2 8.2 8.2 4.5 0 8.2-3.7 8.2-8.2 0-4.5-3.7-8.2-8.2-8.2z" fill="#0078D4"/></svg>