<svg xmlns="http://www.w3.org/2000/svg" viewBox="0 0 35 35">
                                
                            
  <path transform="matrix(0.0117 0 0 -0.0117 0 35)" d="M 1954.38 1524.94C 2032.28 1505.46 2106.29 1495.73 2176.4 1495.73C 2246.51 1495.73 2321.49 1512.77 2401.34 1546.85C 2481.19 1580.93 2551.3 1628.16 2611.68 1688.54C 2740.22 1817.07 2804.49 1970.93 2804.49 2150.11C 2804.49 2222.17 2792.8 2290.82 2769.43 2356.06L 2243.59 1831.68L 1831.68 2243.59L 2356.06 2769.43C 2289.84 2792.8 2216.81 2804.49 2136.96 2804.49C 2057.11 2804.49 1977.5 2787.45 1898.14 2753.36C 1818.78 2719.28 1748.91 2672.05 1688.54 2611.68C 1560 2483.14 1495.73 2329.28 1495.73 2150.11C 1495.73 2097.52 1505.46 2032.28 1524.94 1954.38L 276.067 704.043C 216.666 645.616 186.966 574.53 186.966 490.785C 186.966 407.04 216.666 335.467 276.067 276.067C 335.467 216.666 407.04 186.966 490.785 186.966C 574.53 186.966 645.616 216.666 704.043 276.067L 1954.38 1524.94ZM 2991.45 2164.71C 2991.45 1921.27 2908.68 1717.75 2743.14 1554.15C 2577.6 1390.56 2379.92 1308.76 2150.11 1308.76C 2108.23 1308.76 2062.95 1312.66 2014.26 1320.45L 836.964 143.146C 741.534 47.7152 625.654 0 489.325 0C 352.995 0 238.089 48.2021 144.606 144.606C 48.2021 239.063 0 353.969 0 489.325C 0 625.654 47.7152 741.534 143.146 836.964L 1320.45 2014.26C 1312.66 2063.93 1308.76 2117.97 1308.76 2176.4C 1308.76 2309.81 1347.23 2442.24 1424.15 2573.7C 1542.95 2774.3 1674.66 2894.08 1819.27 2933.03C 1963.87 2971.98 2079.02 2991.45 2164.71 2991.45C 2250.41 2991.45 2331.23 2977.82 2407.19 2950.55C 2481.19 2923.29 2568.83 2879.47 2670.11 2819.09L 2094.6 2243.59L 2243.59 2094.6L 2819.09 2670.11C 2879.47 2568.83 2923.29 2481.19 2950.55 2407.19C 2977.82 2331.23 2991.45 2250.41 2991.45 2164.71Z"></path>
</svg>