<svg xmlns="http://www.w3.org/2000/svg" viewBox="0 0 72 72">
                                
                            
    <path d="M52.734375,22.5 C51.3984375,15.7734375 49.2539062,10.3476562 46.3007812,6.22265625 C50.2617188,7.60546875 53.8359375,9.7265625 57.0234375,12.5859375 C60.2109375,15.4453125 62.6835938,18.75 64.4414062,22.5 L52.734375,22.5 Z M30.3046875,7.59375 C31.9921875,5.53125 33.890625,4.5 36,4.5 C38.109375,4.5 40.0078125,5.53125 41.6953125,7.59375 C44.671875,11.25 46.8164062,16.21875 48.1289062,22.5 L23.8710938,22.5 C25.1835938,16.21875 27.328125,11.25 30.3046875,7.59375 Z M25.6992188,6.22265625 C22.7460938,10.3242187 20.6015625,15.75 19.265625,22.5 L7.55859375,22.5 C9.31640625,18.75 11.7890625,15.4453125 14.9765625,12.5859375 C18.1640625,9.7265625 21.7382812,7.60546875 25.6992188,6.22265625 Z M66.1992188,27 C67.0664062,29.8359375 67.5,32.8359375 67.5,36 C67.5,39.1640625 67.0664062,42.1640625 66.1992188,45 L53.4375,45 C53.8125,42.09375 54,39.09375 54,36 C54,32.90625 53.8125,29.90625 53.4375,27 L66.1992188,27 Z M23.0976562,45 C22.6992187,41.9296875 22.5,38.9296875 22.5,36 C22.5,33.0703125 22.6992187,30.0703125 23.0976562,27 L48.9023438,27 C49.3007812,30.0703125 49.5,33.0703125 49.5,36 C49.5,38.9296875 49.3007812,41.9296875 48.9023438,45 L23.0976562,45 Z M5.80078125,45 C4.93359375,42.1640625 4.5,39.1640625 4.5,36 C4.5,32.8359375 4.93359375,29.8359375 5.80078125,27 L18.5625,27 C18.1875,29.90625 18,32.90625 18,36 C18,39.09375 18.1875,42.09375 18.5625,45 L5.80078125,45 Z M46.3007812,65.7773438 C49.2539062,61.6289063 51.3984375,56.203125 52.734375,49.5 L64.4414062,49.5 C62.6835938,53.25 60.2109375,56.5546875 57.0234375,59.4140625 C53.8359375,62.2734375 50.2617188,64.3945312 46.3007812,65.7773438 Z M19.265625,49.5 C20.6015625,56.2265625 22.7460938,61.6523438 25.6992188,65.7773438 C21.7382812,64.3945312 18.1640625,62.2734375 14.9765625,59.4140625 C11.7890625,56.5546875 9.31640625,53.25 7.55859375,49.5 L19.265625,49.5 Z M41.6953125,64.40625 C40.0078125,66.46875 38.109375,67.5 36,67.5 C33.890625,67.5 31.9921875,66.46875 30.3046875,64.40625 C27.328125,60.75 25.1835938,55.78125 23.8710938,49.5 L48.1289062,49.5 C46.8164062,55.78125 44.671875,60.75 41.6953125,64.40625 Z M17.9648438,67.1484375 C17.9648438,67.1484375 19.3535156,67.9570312 22.1308594,69.5742187 C24.9082031,71.1914062 29.53125,72 36,72 C42.46875,72 48.4804688,70.3828125 54.0351562,67.1484375 C59.5664062,63.9140625 63.9375,59.5429687 67.1484375,54.0351562 C70.3828125,48.5039062 72,42.4980469 72,36.0175781 C72,29.5371094 70.3828125,23.5195312 67.1484375,17.9648437 C63.9140625,12.4101562 59.5429688,8.02734375 54.0351562,4.81640625 C48.5273438,1.60546875 42.515625,0 36,0 C29.484375,0 23.4609375,1.60546875 17.9296875,4.81640625 C12.3984375,8.02734375 8.02734375,12.3984375 4.81640625,17.9296875 C1.60546875,23.4609375 0,29.484375 0,36 C0,42.515625 1.60546875,48.5273437 4.81640625,54.0351562 C8.02734375,59.5429687 12.4101562,63.9140625 17.9648438,67.1484375 Z" transform="translate(36.000000, 36.000000) scale(-1, 1) rotate(-180.000000) translate(-36.000000, -36.000000) "></path>
</svg>