<svg xmlns="http://www.w3.org/2000/svg" viewBox="0 0 31 41">
    <path d="M14.76 40.18l1.312-.576.117-34.113H-.001v29.206c0 2.983 6.575 5.406 14.76 5.483" fill="#193563"/>
    <path d="M30.319 5.49v-.093h-15.56V40.18c.066 0 .13.001.195.003v.003h.208c8.373 0 15.16-2.458 15.16-5.49V5.49h-.003z" fill="#2E4B79"/>
    <path d="M30.319 5.49c0 3.032-6.787 5.49-15.16 5.49C6.784 10.98 0 8.522 0 5.49S6.788 0 15.16 0c8.371 0 15.16 2.457 15.16 5.49" fill="#FFF"/>
    <path d="M27.219 5.174c0 2.003-5.4 3.622-12.061 3.622-6.66 0-12.06-1.621-12.06-3.622 0-2.002 5.4-3.623 12.06-3.623s12.06 1.62 12.06 3.623" fill="#7FB900"/>
    <path d="M24.692 7.387c1.579-.612 2.528-1.38 2.528-2.212 0-2.003-5.4-3.624-12.061-3.624S3.099 3.173 3.099 5.175c0 .833.948 1.6 2.528 2.212a32.975 32.975 0 0119.069 0" fill="#B7D332"/>
    <path d="M22.48 27.311s.148.54.41 1.14c.262.6.513 1.107.497 1.119-.016.011-.786.05-1.173-.082-.387-.131-1.07-.425-.933-.77.137-.343 1.004-1.287 1.2-1.407" fill="#FFF"/>
    <path d="M27.484 15.789c0 .017.125.726.109.737-.016.01-.208.24-.208.24l-.29.169-.724-.971-.028-.355.344-.071.797.25z" fill="#193563"/>
    <path d="M27.385 16.766s-.114.464-.736 1.048c-.622.584-1.266.736-1.6 1.276-.331.54-.484.759-.62 1.375-.137.616-.306 1.915-.645 2.985-.337 1.068-.823 2.323-1.346 3.316-.525.993-.922 1.276-1.027 1.342-.103.065-.261.088-.261.088s-.186.382-.273.424c-.087.044-.213-.065-.278-.141a11.242 11.242 0 00-.268-.283s-.447.753-.763 1.308c-.317.557-.884 1.173-1.664 1.686-.78.514-1.697.71-1.937.73-.24.023-.371.007-.371.007s.704-1.162 1.14-2.1c.437-.94.705-1.648.764-2.03.06-.382.044-.66.044-.66s-.371.72-.464 1.004c-.092.283-.11.458-.17.583-.06.126-.272.388-.665.546-.392.158-.671.099-.883.076-.213-.021-2.193-.344-3.366-.382-1.173-.038-1.12-.06-1.55-.015-.43.043-.877.08-1.472.32s-1.08.623-1.462.863c-.382.24-1.01.67-1.392.889-.381.219-.78.344-1.232.366-.453.022-1.107-.012-1.49-.012-.381 0-.65-.097-.682-.12a.173.173 0 01-.05-.053s.328-.382.509-.568c.18-.185.37-.415.37-.415s-.567.082-.834-.005c-.267-.088-.46-.267-.497-.344-.038-.077-.07-.202-.07-.202s1.074-.42 1.374-.518c.3-.098 1.446-.23 1.893-.224.448.006.857.11 1.5-.491.644-.6.486-.606.819-1.03.333-.426 1.194-1.41 2.166-2.046.97-.64 1.789-.906 2.749-1.08.96-.175 2.035-.448 2.815-.726.78-.278 2.04-.797 3-1.713.96-.917 1.567-2.041 1.817-2.417.25-.377.9-1.352 1.195-1.757.295-.403.846-1.025 1.5-1.402a3.685 3.685 0 011.932-.507c.643.006 1.516-.196 1.636-.267.119-.071.376-.317.43-.366.056-.048.366-.11.552-.005.185.103.217.404.202.725-.017.322-.131.683-.131.683s-.46-.131-.698-.34c-.185-.158-.296-.276-.328-.348a1.14 1.14 0 00-.104-.202c-.015-.017-.05.114-.043.18.005.065.087.213.327.43.24.219.595.514.638.519" fill="#FFF"/>
    <path d="M24.657 16.64c-.017 0-.496-.081-.834.219-.37.329-.398.508-.398.508s.42.446 1.003.086c.425-.261.23-.812.23-.812m.789 1.137c.105-.573.526-1.023.745-1.322.098-.12.133-.058.075.032-.149.212-.637.701-.74 1.29-.018.1-.105.155-.08 0m.423.052c-.01.103-.094.165-.08.008.057-.58.31-.943.502-1.258.088-.13.13-.068.078.025-.13.224-.448.63-.5 1.225" fill="#193563"/>
    <path d="M26.484 16.693c-.112.234-.326.536-.326 1.133-.001.102-.077.173-.08.014.007-.583.16-.835.325-1.166.076-.135.122-.08.08.019" fill="#193563"/>
</svg>
