<svg xmlns="http://www.w3.org/2000/svg" viewBox="0 0 54.258 36.008">
    <rect x="8.046" y="22.885" width="22.213" height="5.377" rx=".28" ry=".28" fill="#fff"/>
    <path d="M40.614 22.922a.9.9 0 00.276.711 1.709 1.709 0 00.74.363v-2.105a1.334 1.334 0 00-.7.3.891.891 0 00-.316.731zm2.017 3.455v2.293a1.046 1.046 0 001.06-1.132.944.944 0 00-.3-.762 2.143 2.143 0 00-.76-.399z" fill="#fff"/>
    <path d="M51.683 0h-1.228a3.576 3.576 0 01-3.46 2.7 3.576 3.576 0 01-3.46-2.7H40.52a3.576 3.576 0 01-3.46 2.7A3.576 3.576 0 0133.6 0h-3.016a3.576 3.576 0 01-3.46 2.7 3.576 3.576 0 01-3.46-2.7h-3.015a3.576 3.576 0 01-3.46 2.7A3.576 3.576 0 0113.728 0h-3.015a3.576 3.576 0 01-3.46 2.7A3.576 3.576 0 013.792 0H2.575A2.574 2.574 0 000 2.575v31.012a2.361 2.361 0 002.647 2.4h49.108a2.316 2.316 0 002.5-2.4V2.575A2.574 2.574 0 0051.683 0zM32.359 27.982a2.38 2.38 0 01-2.38 2.38H8.326a2.38 2.38 0 01-2.38-2.38v-4.817a2.38 2.38 0 012.38-2.38h21.653a2.38 2.38 0 012.38 2.38zm.024-11.2H5.947v-2.1h26.436zm0-5.2H5.947v-2.1h26.436zM45.7 28.793a2.885 2.885 0 01-.754.98 3.349 3.349 0 01-1.074.6 4.142 4.142 0 01-1.242.217v1.06h-1.073v-1.06a6.509 6.509 0 01-1.9-.355 4.793 4.793 0 01-1.684-.98l.762-.792q.384-.4.763-.805a2.4 2.4 0 00.449.4 3.733 3.733 0 00.538.313 3.638 3.638 0 00.551.21 1.877 1.877 0 00.523.08v-2.54q-.625-.174-1.2-.392a3.693 3.693 0 01-1.01-.566 2.493 2.493 0 01-.958-2.076 2.722 2.722 0 01.29-1.27 3.009 3.009 0 01.755-.943 3.475 3.475 0 011.046-.6 3.94 3.94 0 011.146-.24v-1h1.06v.987a6.76 6.76 0 011.7.29 4.522 4.522 0 011.554.813q-.712.814-1.408 1.583a2.572 2.572 0 00-.871-.565 2.874 2.874 0 00-.973-.218v2.322q.567.175 1.146.392a4.205 4.205 0 011.06.581 2.99 2.99 0 01.784.886 2.561 2.561 0 01.305 1.306 3.16 3.16 0 01-.285 1.382zm2.483-12.012H36.234v-2.1h11.95zm0-5.2H36.234v-2.1h11.95z" fill="#fff"/>
</svg>
