<svg xmlns="http://www.w3.org/2000/svg" viewBox="0 0 36 33.75">
                                
                            
    <path d="M22.5,33.75l2.461-4.939L20.25,24.1v6.275a3.311,3.311,0,0,1-.264,1.318,3.357,3.357,0,0,1-1.793,1.793,3.428,3.428,0,0,1-2.637,0,3.357,3.357,0,0,1-1.793-1.793,3.311,3.311,0,0,1-.264-1.318V26.139l-.018-.035a1.216,1.216,0,0,1-.316.563L8.244,31.605a3.412,3.412,0,0,1-1.143.756,3.525,3.525,0,0,1-1.336.264A3.449,3.449,0,0,1,4.4,32.353a3.49,3.49,0,0,1-1.116-.747,3.612,3.612,0,0,1-.756-1.116,3.356,3.356,0,0,1-.281-1.362,3.469,3.469,0,0,1,.272-1.354,3.526,3.526,0,0,1,.765-1.143L6.75,23.15V16.682a3.549,3.549,0,0,1-1.125.193,3.311,3.311,0,0,1-1.318-.264,3.357,3.357,0,0,1-1.793-1.793A3.311,3.311,0,0,1,2.25,13.5V7.875A1.125,1.125,0,0,1,2.988,6.82L.334,4.166a1.1,1.1,0,0,1,0-1.582,1.081,1.081,0,0,1,.791-.334,1.081,1.081,0,0,1,.791.334L5.52,6.17l6.592-1.635a2.012,2.012,0,0,1,.686-.062q.369.026.7.026a4.379,4.379,0,0,1,.352-1.749,4.534,4.534,0,0,1,2.4-2.4,4.526,4.526,0,0,1,3.5,0,4.534,4.534,0,0,1,2.4,2.4A4.379,4.379,0,0,1,22.5,4.5a4.452,4.452,0,0,1-.343,1.723A4.4,4.4,0,0,1,21.2,7.664L23.555,18.4q.035.176.053.352t.018.352a3.367,3.367,0,0,1-.554,1.872,3.286,3.286,0,0,1-1.5,1.257l4.465,4.447L29.25,20.25,36,33.75ZM5.625,14.625A1.141,1.141,0,0,0,6.75,13.5V11.479a1.072,1.072,0,0,1,.246-.7,1.112,1.112,0,0,1,.615-.387q.246-.07.773-.211l1.09-.29q.563-.149,1.063-.264a3.745,3.745,0,0,1,.694-.114,1.11,1.11,0,0,1,.8.334,1.087,1.087,0,0,1,.343.809,1.1,1.1,0,0,1-.1.492.911.911,0,0,1-.272.325,1.5,1.5,0,0,1-.4.211q-.22.079-.448.149L15.75,16.4v-2.18a1.1,1.1,0,0,1,.325-.791,1.053,1.053,0,0,1,.782-.334,1.17,1.17,0,0,1,.721.237,1.054,1.054,0,0,1,.4.642q.316,1.354.571,2.707t.606,2.689a1.19,1.19,0,0,0,.4.642,1.088,1.088,0,0,0,.712.237,1.11,1.11,0,0,0,1.107-1.107,1.481,1.481,0,0,0-.035-.264L19.16,8.842A4.265,4.265,0,0,1,18,9a4.429,4.429,0,0,1-2.25-.6A4.471,4.471,0,0,1,14.1,6.75H12.516l-8.016,2V13.5a1.141,1.141,0,0,0,1.125,1.125ZM18,23.889q-.053-.088-.211-.413T17.4,22.7q-.229-.448-.475-.949l-.457-.932q-.211-.431-.36-.721t-.167-.308q-.3-.369-.571-.65t-.545-.536q-.272-.255-.571-.519t-.633-.615L9,12.85V23.625a1.081,1.081,0,0,1-.334.791l-3.8,3.8a1.262,1.262,0,0,0,0,1.784,1.187,1.187,0,0,0,.879.378,1.221,1.221,0,0,0,.9-.369L11.25,25.4V21.375a1.141,1.141,0,0,1,1.125-1.125,1.107,1.107,0,0,1,.589.167,1.087,1.087,0,0,1,.413.448l2.25,4.5a1.058,1.058,0,0,1,.123.51v4.5a1.125,1.125,0,0,0,2.25,0ZM18,2.25a2.18,2.18,0,0,0-.879.176,2.291,2.291,0,0,0-1.2,1.2,2.285,2.285,0,0,0,0,1.758,2.291,2.291,0,0,0,1.2,1.2,2.285,2.285,0,0,0,1.758,0,2.291,2.291,0,0,0,1.2-1.2,2.285,2.285,0,0,0,0-1.758,2.291,2.291,0,0,0-1.2-1.2A2.18,2.18,0,0,0,18,2.25ZM29.25,25.277,26.139,31.5h6.223Z" fill="#fff"></path>
</svg>