<svg xmlns="http://www.w3.org/2000/svg" viewBox="0 0 48 48"><path d="M27.31 28.875c0-.988-.725-1.807-2.182-2.448v4.635c1.457-.236 2.181-.963 2.181-2.187zm-4.405-7.607V16.42c-1.415.254-2.122.997-2.122 2.221 0 1.064.707 1.942 2.122 2.626zm8.463 7.396c0 1.689-.53 3.057-1.591 4.078-1.061 1.03-2.61 1.664-4.64 1.892v3.318h-2.232v-3.226c-2.097-.017-4.017-.49-5.76-1.41v-4.23c.547.448 1.423.887 2.628 1.309 1.204.422 2.248.667 3.132.726v-5.564c-2.248-.836-3.84-1.748-4.775-2.744-.934-.996-1.406-2.297-1.406-3.918 0-1.62.573-2.989 1.726-4.103 1.146-1.115 2.636-1.765 4.455-1.95V9.995h2.223v2.778c2.148.101 3.748.447 4.8 1.038v4.13c-1.414-.854-3.014-1.386-4.8-1.588v5.792c2.249.819 3.849 1.73 4.8 2.752.96 1.022 1.44 2.28 1.44 3.766z" fill="#0078D4"/><path d="M47.966 17.646V4.981h-5.06v4.535C38.55 3.884 31.738.262 24.092.262 10.939.262.286 10.942.286 24.13.286 37.319 10.947 48 24.092 48 37.239 48 47.9 37.31 47.9 24.13c0-.472-.017-.936-.042-1.4H43.2c.033.464.05.928.05 1.4 0 10.606-8.572 19.21-19.157 19.21-10.586 0-19.158-8.605-19.158-19.21 0-10.604 8.572-19.208 19.158-19.208 6.223 0 11.747 2.972 15.242 7.582h-4.009v5.075h7.58v.067h5.06z" fill="#50E6FF"/></svg>