<svg xmlns="http://www.w3.org/2000/svg" viewBox="0 0 24 24">
    <path d="M5.872 19.4a5.778 5.778 0 01-2.287-.459 5.841 5.841 0 01-3.127-3.122 5.944 5.944 0 010-4.574 5.844 5.844 0 013.127-3.127 5.765 5.765 0 012.287-.458 5.686 5.686 0 011.065.1l.169.032.094-.142a6.93 6.93 0 011.068-1.286A6.423 6.423 0 019.585 5.4a6.52 6.52 0 011.521-.6 6.66 6.66 0 011.66-.2 6.529 6.529 0 012.414.449 6.58 6.58 0 013.458 3.113 6.879 6.879 0 01.733 2.343l.029.223h.225a4.321 4.321 0 011.7.339 4.5 4.5 0 011.394.923 4.351 4.351 0 01.937 1.373 4.394 4.394 0 01.006 3.393 4.377 4.377 0 01-2.32 2.315 4.239 4.239 0 01-1.682.339zm0-10.724a4.736 4.736 0 00-1.891.38A4.883 4.883 0 001.4 11.648a4.871 4.871 0 000 3.775A4.908 4.908 0 003.981 18a4.758 4.758 0 001.891.38H19.66a3.254 3.254 0 001.292-.26 3.341 3.341 0 001.767-1.768 3.33 3.33 0 000-2.583A3.342 3.342 0 0020.952 12a3.254 3.254 0 00-1.292-.26h-1.276v-.51a5.52 5.52 0 00-.44-2.189 5.626 5.626 0 00-2.989-2.989 5.631 5.631 0 00-3.884-.176 5.615 5.615 0 00-3.447 3.14 4.7 4.7 0 00-1.752-.336z"/>
</svg>
