<svg xmlns="http://www.w3.org/2000/svg" viewBox="0 0 163 163">
    <path d="M68.259 40.879c8.72 0 15.79-7.092 15.79-15.84 0-8.749-7.07-15.84-15.79-15.84-8.721 0-15.79 7.091-15.79 15.84 0 8.748 7.069 15.84 15.79 15.84zm36.165 54.162c10.409 0 18.847-8.464 18.847-18.906 0-10.441-8.438-18.906-18.847-18.906-10.408 0-18.846 8.465-18.846 18.906 0 10.442 8.438 18.906 18.846 18.906zm31.582 52.121c8.158 0 14.771-6.635 14.771-14.819 0-8.184-6.613-14.818-14.771-14.818-8.158 0-14.772 6.634-14.772 14.818s6.614 14.819 14.772 14.819zM77.42 134.897c7.033 0 12.734-5.72 12.734-12.775 0-7.055-5.701-12.774-12.734-12.774s-12.734 5.72-12.734 12.774c0 7.055 5.7 12.775 12.734 12.775zM25.975 96.063c7.033 0 12.735-5.719 12.735-12.774 0-7.055-5.702-12.774-12.735-12.774-7.033 0-12.734 5.719-12.734 12.774 0 7.055 5.702 12.774 12.734 12.774z" fill="#1A1A1A"/>
    <path d="M107.044 73.418L71.013 22l-6.668 4.702 36.032 51.418 6.667-4.702z" fill="#1A1A1A"/>
    <path d="M139.45 129.318L107.565 73.44l-7.073 4.062 31.885 55.878 7.073-4.062z" fill="#1A1A1A"/>
    <path d="M103.921 79.887l-.674-8.148-77.668 6.469.674 8.148 77.668-6.47z" fill="#1A1A1A"/>
    <path d="M107.373 78.005l-6.98-4.22-27.34 45.516 6.98 4.22 27.34-45.516zM160.453 0h-41.26c-1.527 0-2.546 1.022-2.546 3.066v14.818c0 1.533 1.019 2.555 2.547 2.555h23.43v22.994c0 1.533 1.02 2.555 3.057 2.555h14.772c1.528 0 2.546-1.022 2.546-2.555V2.555C163 1.022 161.981 0 160.453 0zM2.547 163h41.259c1.528 0 2.547-1.022 2.547-3.066v-14.818c0-1.533-1.02-2.555-2.547-2.555H20.375v-22.994c0-1.533-1.019-2.555-3.056-2.555H2.546c-1.528 0-2.547 1.022-2.547 2.555v40.878C0 161.978 1.019 163 2.547 163z" fill="#1A1A1A"/>
</svg>
