<svg xmlns="http://www.w3.org/2000/svg" viewBox="0 0 116.6 45.5">
                                
                            
    <path d="M0,0h6.3c3.8,0,6.6,2.4,6.6,7.2c0,4.2-2.2,7.3-6.6,7.3H0V0z M3.2,11.8H6c1.8,0,3.6-1.1,3.6-4.3c0-2.9-1-4.8-4.2-4.8H3.2
		L3.2,11.8L3.2,11.8z"></path>
    <path d="M19.3,3.7c3.1-0.1,5.6,2.4,5.6,5.4c0.1,3.1-2.4,5.6-5.4,5.6c-3.1,0.1-5.6-2.4-5.6-5.4c0,0,0-0.1,0-0.1
		C13.8,5.9,16,3.7,19.3,3.7z M19.3,12.6c2,0,2.6-1.7,2.6-3.3c0-1.7-0.6-3.4-2.6-3.4c-1.9,0-2.5,1.7-2.5,3.4
		C16.7,10.9,17.3,12.6,19.3,12.6L19.3,12.6z"></path>
    <path d="M35.8,14.5h-2.7V13H33c-0.7,1.1-1.9,1.8-3.2,1.7c-3.1,0-3.8-1.7-3.8-4.3V4h2.9v5.9c0,1.7,0.5,2.6,1.8,2.6
		c1.6,0,2.2-0.9,2.2-3V4h2.9V14.5L35.8,14.5z"></path>
    <path d="M37.5,0h2.9v5.3h0c0.8-1,2-1.6,3.3-1.6c2.1,0,4.3,1.7,4.3,5.5c0,3.9-2.3,5.5-4.3,5.5c-1.4,0.2-2.7-0.5-3.4-1.6h0v1.3h-2.7
		L37.5,0L37.5,0z M42.7,5.9c-1.7,0-2.5,1.6-2.5,3.4c0,1.7,0.8,3.3,2.5,3.3s2.5-1.6,2.5-3.3C45.2,7.5,44.4,5.9,42.7,5.9z"></path>
    <path d="M49.4,0h2.9v14.5h-2.9V0z"></path>
    <path d="M56.3,9.9c0.1,1.8,1,2.7,2.6,2.7c1,0.1,1.9-0.5,2.3-1.4h2.5c-0.6,2.2-2.6,3.7-4.9,3.5c-3.3,0-5.4-2.3-5.4-5.5
		c-0.2-2.9,2.1-5.4,5-5.5c0.1,0,0.3,0,0.4,0c3.6,0,5.3,3,5.1,6.2L56.3,9.9L56.3,9.9z M61,8.1c-0.3-1.5-0.9-2.2-2.3-2.2
		c-1.3-0.1-2.3,0.9-2.4,2.1c0,0,0,0.1,0,0.1H61z"></path>
    <path d="M65,7.7h6.1v2.5H65V7.7z"></path>
    <path fill="#ED2024" d="M74.3,2.7h-4.3V0h11.9v2.7h-4.3v11.8h-3.2L74.3,2.7L74.3,2.7z"></path>
    <path fill="#ED2024" d="M80.2,7.2c0.2-2.7,2.6-3.5,4.9-3.5c2.1,0,4.6,0.5,4.6,3v5.5c-0.1,0.8,0.1,1.6,0.4,2.3h-2.9
		c-0.1-0.3-0.2-0.7-0.2-1c-1,0.9-2.2,1.4-3.5,1.3c-2,0-3.6-1-3.6-3.1c0-2.4,1.8-2.9,3.6-3.2c1.8-0.3,3.4-0.2,3.4-1.4
		c0-1.2-0.9-1.4-1.9-1.4c-0.9-0.1-1.7,0.5-1.9,1.4c0,0.1,0,0.2,0,0.2L80.2,7.2L80.2,7.2z M86.9,9.4c-0.7,0.4-1.6,0.6-2.4,0.6
		c-0.9,0.2-1.7,0.5-1.7,1.5c0,1.1,0.8,1.3,1.8,1.3c1.2,0.1,2.2-0.7,2.3-1.9c0-0.2,0-0.3,0-0.5V9.4L86.9,9.4z"></path>
    <path fill="#ED2024" d="M91.7,0h2.9v7.8L98.2,4h3.4l-4,3.9l4.4,6.6h-3.5l-2.9-4.7l-1.1,1.1v3.6h-2.9L91.7,0L91.7,0z"></path>
    <path fill="#ED2024" d="M104.2,9.9c0.1,1.8,1,2.7,2.6,2.7c1,0.1,1.9-0.5,2.3-1.4h2.5c-0.6,2.2-2.6,3.7-4.9,3.5c-3.3,0-5.4-2.3-5.4-5.5
		c-0.2-2.9,2.1-5.4,5-5.5c0.1,0,0.3,0,0.4,0c3.6,0,5.3,3,5.1,6.2L104.2,9.9L104.2,9.9z M108.9,8.1c-0.3-1.5-0.9-2.2-2.3-2.2
		c-1.3-0.1-2.3,0.9-2.4,2.1c0,0,0,0.1,0,0.1H108.9z"></path>
    <path d="M35.8,21.3h8.3c7.5,0,11.6,3.7,11.6,11.5c0,8.1-3.6,12.7-11.6,12.7h-8.3V21.3L35.8,21.3z M39,42.8h5.4
			c2.2,0,8.1-0.6,8.1-9.5c0-5.8-2.1-9.3-8.1-9.3H39L39,42.8L39,42.8z"></path>
    <path d="M58.7,21.3h11.4c4.6,0,7.4,2.5,7.4,6.4c0,2.9-1.3,5.3-4.2,6.1v0.1c2.8,0.5,3.4,2.6,3.6,5c0.2,2.4,0.1,5,1.4,6.7h-3.6
			c-0.9-1-0.4-3.6-0.9-6c-0.3-2.4-0.9-4.4-4-4.4H62v10.4h-3.2L58.7,21.3L58.7,21.3z M68.7,32.5c3,0,5.6-0.8,5.6-4.3
			c0-2.4-1.3-4.1-4.3-4.1h-8v8.5L68.7,32.5L68.7,32.5z"></path>
    <path d="M80.1,20.7h-0.9v-0.3h2.2v0.3h-0.9v2.4h-0.4L80.1,20.7L80.1,20.7z"></path>
    <path d="M81.6,20.4h0.5l0.9,2.3l0.9-2.3h0.5v2.7H84v-2.3h0l-0.9,2.3h-0.3l-0.9-2.3h0v2.3h-0.3L81.6,20.4L81.6,20.4z"></path>
    <path d="M113.6,0c1.7,0,3,1.4,3,3c0,1.7-1.4,3-3,3c-1.6,0-3-1.4-3-3C110.5,1.4,111.9,0,113.6,0C113.5,0,113.5,0,113.6,0z
		 M113.6,5.6c1.4,0,2.6-1.1,2.6-2.5c0-1.4-1.1-2.6-2.5-2.6c-1.4,0-2.6,1.1-2.6,2.5c0,0,0,0,0,0.1c-0.1,1.4,1,2.5,2.4,2.6
		C113.5,5.6,113.5,5.6,113.6,5.6z M112.4,1.3h1.4c0.5-0.1,1.1,0.2,1.2,0.7c0,0.1,0,0.2,0,0.3c0,0.5-0.3,0.9-0.8,1c0,0,0,0-0.1,0
		l1,1.5h-0.6l-1-1.5h-0.6v1.5h-0.5L112.4,1.3L112.4,1.3z M112.9,2.8h0.6c0.5,0,0.9,0,0.9-0.6c0-0.5-0.4-0.5-0.8-0.5h-0.7L112.9,2.8
		L112.9,2.8z"></path>
</svg>