<svg xmlns="http://www.w3.org/2000/svg" viewBox="0 0 630 630"><path fill="none" d="M0 0h630v630H0z"/><path fill="#50e6ff" d="M30 30h38.07v570H30z"/><path fill="#0078d4" d="M68 30h38.07v570H68z"/><path fill="#50e6ff" d="M105.99 30h38.07v570h-38.07z"/><path fill="#0078d4" d="M143.99 30h38.07v570h-38.07z"/><path fill="#50e6ff" d="M181.98 30h38.07v570h-38.07z"/><path fill="#0078d4" d="M219.98 30h38.07v570h-38.07z"/><path fill="#50e6ff" d="M257.97 30h38.07v570h-38.07z"/><path fill="#0078d4" d="M295.97 30h38.07v570h-38.07z"/><path fill="#50e6ff" d="M333.96 30h38.07v570h-38.07z"/><path fill="#0078d4" d="M371.96 30h38.07v570h-38.07z"/><path fill="#fff" d="M409.95 30h38.07v570h-38.07z"/><path fill="#0078d4" d="M447.95 30h38.07v570h-38.07z"/><path fill="#50e6ff" d="M485.94 30h38.07v570h-38.07z"/><path fill="#0078d4" d="M523.94 30h38.07v570h-38.07z"/><path fill="#50e6ff" d="M561.93 30H600v570h-38.07z"/><circle cx="428" cy="315" r="142.5" fill="#fff"/><path d="M476.08 348.94L438 310.86V257a10 10 0 0 0-20 0v58.95c0 .15 0 .3.07.45s0 .34.08.51.08.33.12.5.07.3.12.45.11.32.16.48l.17.45.19.42.23.47c.07.13.15.25.23.38s.17.31.27.45.2.27.29.4.19.27.29.39.38.43.57.63l.09.1 41 41a10 10 0 0 0 14.14-14.14z"/></svg>