<svg xmlns="http://www.w3.org/2000/svg" viewBox="0 0 28.333 19.417">
                                
                            
    <path d="M27.306,3.547V15.276a3.193,3.193,0,0,1-.269,1.3,3.389,3.389,0,0,1-1.787,1.78,3.209,3.209,0,0,1-1.3.269H3.758a3.1,3.1,0,0,1-1.264-.262A3.3,3.3,0,0,1,.76,16.63,3.1,3.1,0,0,1,.5,15.367V.2H23.955V3.547ZM25.631,5.223H23.955v9.215a.837.837,0,0,1-1.675,0V1.871H2.174v13.5a1.529,1.529,0,0,0,.124.615,1.6,1.6,0,0,0,.845.845,1.529,1.529,0,0,0,.615.124h20.2a1.616,1.616,0,0,0,.655-.131,1.707,1.707,0,0,0,.89-.89,1.631,1.631,0,0,0,.131-.654Zm-5.026,0H3.849V3.547H20.6ZM12.227,15.276H3.849V6.859h8.378ZM5.525,13.6h5.026V8.535H5.525ZM20.6,8.574H13.9V6.9h6.7Zm0,3.351H13.9V10.249h6.7Zm0,3.352H13.9V13.6h6.7Z" fill="#fff"></path>
</svg>