<svg xmlns="http://www.w3.org/2000/svg" viewBox="0 0 96 97"><path fill-rule="evenodd" clip-rule="evenodd" d="M0 21.879h6v-21H0v21z" fill="#50E6FF"/><path fill-rule="evenodd" clip-rule="evenodd" d="M0 6.879h21v-6H0v6zM0 96.879h21v-6H0v6z" fill="#50E6FF"/><path fill-rule="evenodd" clip-rule="evenodd" d="M0 96.879h6v-21H0v21zM90 21.879h6v-21h-6v21z" fill="#50E6FF"/><path fill-rule="evenodd" clip-rule="evenodd" d="M75 6.879h21v-6H75v6zM75 96.879h21v-6H75v6z" fill="#50E6FF"/><path fill-rule="evenodd" clip-rule="evenodd" d="M90 96.879h6v-21h-6v21z" fill="#50E6FF"/><path fill-rule="evenodd" clip-rule="evenodd" d="M15 69.879h15v-39H15v39zM33 69.879h6v-39h-6v39zM42 69.879h3v-39h-3v39zM48 69.879h3v-39h-3v39zM54 69.879h9v-39h-9v39zM66 69.879h3v-39h-3v39zM72 69.879h9v-39h-9v39z" fill="#0078D4"/></svg>