<svg xmlns="http://www.w3.org/2000/svg" viewBox="0 0 32 32">
    <path fill="#00ABEC" d="M26 12.958V30H3.953V2H26v4.957l2-1.625V0H1.953v4.016H0v2h1.953v4H0v2h1.953v8H0v2.016h1.953v4H0v2h1.953V32H28V11.167l-2 1.791z"/>
    <path fill="#00ABEC" d="M32 7.125c0 .417-.081.815-.242 1.195-.162.38-.389.716-.68 1.008L15.891 24.531 10 26l1.469-5.891L26.672 4.922a3.147 3.147 0 011.008-.68c.38-.161.778-.242 1.195-.242.427 0 .83.083 1.211.25.38.167.711.391.992.672s.505.612.672.992c.166.38.25.784.25 1.211zM14.859 22.719L29.672 7.906c.219-.218.328-.479.328-.781 0-.313-.109-.578-.328-.797S29.188 6 28.875 6c-.303 0-.563.109-.781.328L13.281 21.141l-.531 2.109 2.109-.531z"/>
</svg>
