<svg xmlns="http://www.w3.org/2000/svg" viewBox="0 0 49 49">
    <path d="M24.09 47.699c-12.546 0-22.729-10.283-22.729-22.83 0-12.556 10.183-22.738 22.73-22.738s22.83 10.182 22.83 22.73c0 12.546-10.182 22.838-22.83 22.838z" fill="#50E6FF"/>
    <path d="M24.099 5.968a18.955 18.955 0 0118.993 18.993c0 10.519-8.474 18.9-18.993 18.9-10.435 0-18.9-8.474-18.9-18.993 0-10.518 8.465-18.9 18.9-18.9zm-.009-4.763C11.03 1.205.436 11.8.436 24.86S11.03 48.515 24.09 48.515 47.745 37.92 47.745 24.86 37.151 1.205 24.091 1.205z" fill="#0078D7"/>
    <path d="M24.09 37.618c-.412 0-.723-.312-.723-.615L20.9 26.72l-9.972-2.466c-.311-.1-.614-.412-.614-.723 0-.312.202-.615.513-.724L32.22 15.2a.814.814 0 01.824.202c.202.202.312.513.202.824l-8.432 20.878a.79.79 0 01-.724.514z" fill="#0078D4"/>
</svg>
