<svg xmlns="http://www.w3.org/2000/svg" viewBox="0 0 131 40">
    <path d="M42.213 19.662v5.021H58.51l-5.68 5.775 3.457 3.514 11.605-11.8-11.604-11.799-3.457 3.515 5.679 5.774H42.213z" fill="#CDCDD0"/>
    <path d="M16.067 21.423c5.858 0 10.711-4.854 10.711-10.712 0-4.351-2.51-8.033-6.36-9.707C19.248.334 17.742 0 16.068 0s-3.013.335-4.351 1.004c-3.682 1.674-6.36 5.356-6.36 9.707 0 5.858 4.853 10.712 10.711 10.712zm0 2.51C7.197 23.933 0 31.13 0 40h32.134c0-8.87-7.197-16.067-16.067-16.067z" fill="#243A5E"/>
    <path d="M90.546 39.996l24.568-4.3-12.638-14.922 6.582-17.948L130.667 40l-40.12-.004zM107.335 0l-16.74 35.633v-.035H78.666l13.225-22.737L107.335 0z" fill="#0078D4"/>
</svg>
