<svg xmlns="http://www.w3.org/2000/svg" viewBox="0 0 512 512">
    <path fill-rule="evenodd" d="M377.443 277.409l-39.948-17.29a57.044 57.044 0 01-4.326.166h-1.547c-7.928-38.967-41.796-68.58-82.4-68.58h-48.76c.188-34.602 27.699-62.85 61.316-62.85h71.397c33.726 0 61.328 28.436 61.328 63.192v5.04c0 22.083-11.141 41.612-27.916 52.92l10.856 27.402zm-128.216 68.58h-71.396c-1.461 0-2.894-.056-4.326-.165l-39.948 17.29 10.862-27.403c-16.78-11.307-27.922-30.837-27.922-52.92v-5.04c0-34.755 27.602-63.192 61.328-63.192h71.397c27.853 0 51.47 19.404 58.885 45.726 1.558 5.56 2.449 11.41 2.449 17.467v5.04c0 .12-.018.228-.018.348-.182 34.602-27.699 62.85-61.31 62.85zm144.563-89.31c14.85-15.786 23.543-36.995 23.543-59.592v-5.04c0-47.234-37.67-86.047-84.158-86.047h-71.397c-46.38 0-83.964 38.63-84.147 85.716-46.397.108-83.964 38.87-83.964 86.036v5.04c0 22.597 8.692 43.806 23.543 59.592L92 406l85.848-37.156h71.38c46.34 0 83.901-38.584 84.135-85.613L419 320.296l-25.21-63.616z"/>
</svg>
