<svg xmlns="http://www.w3.org/2000/svg" viewBox="0 0 286 185.128">
    <path d="M161.27 54.6A83.006 83.006 0 1055.876 169.692a141.237 141.237 0 0065.624-37.265A141.259 141.259 0 00161.27 54.6" fill="#8fdaf7"/>
    <path d="M8.052 77.156L18.835 68.8l7.9-6.71-.386-.116a1.511 1.511 0 01-.97-1.99c.529-1.357 2.35-5.88 3.689-7.219l6.854-6.852a24.016 24.016 0 013.835-2.535 1.508 1.508 0 011.271-.091c.157.062 1.2.468 2.158.942a11.477 11.477 0 00.363-1.225v-5.616a1.525 1.525 0 01.121-.591l1.611-3.763-1 .2a1.5 1.5 0 01-1.519-2.357l4.721-6.548a1.308 1.308 0 01.157-.185l7.16-7.158a1.506 1.506 0 011.777-.262 1.7 1.7 0 01.164.1l1.02-1.268A83.047 83.047 0 005.49 81.3l2.183-3.721a1.55 1.55 0 01.379-.427M161.27 54.6a141.259 141.259 0 01-39.77 77.827 141.237 141.237 0 01-65.625 37.265A83.027 83.027 0 00161.27 54.6" fill="#8fdaf7"/>
    <path d="M21.837 44.474l4.735-1.72a1.258 1.258 0 00.121-.053l6.288-2.93 4.116-.75 5.21 2.079.308 3.085-2.006 6.217-4.224 7.178a1.52 1.52 0 00-.191.976l1.075 7.749a1.512 1.512 0 00.173.523l3.416 6.188 2.772 6.188a1.512 1.512 0 002.889-.618 1.482 1.482 0 00-.13-.616l-2.674-8.193 1.029-.315 2.425 6.409.207 6.211a1.511 1.511 0 00.8 1.282l7.324 3.879a1.506 1.506 0 001.1.121l1.72-.47 3.094 2a1.509 1.509 0 00.586.226l3.308.523 2.03 4.241a1.5 1.5 0 00.685.694l4.734 2.368a1.516 1.516 0 001.152.085l.208-.069.127.928-4.644 8.392a1.5 1.5 0 00-.007 1.44l7.034 13.137a1.523 1.523 0 00.433.5l6.754 4.964 1.463 24.277a1.423 1.423 0 00.087.424l2.8 7.751a1.412 1.412 0 00.3.5l4.093 4.524a1.482 1.482 0 00.669.427l6.884 2.152a1.6 1.6 0 00.45.071 1.512 1.512 0 001.072-2.578l-4.3-4.294v-9.4l17.328-21.769a1.6 1.6 0 00.226-.406l5.384-14.208a1.5 1.5 0 00-.014-1.116l-2.156-5.168a1.507 1.507 0 00-1.072-.894c-5.063-1.1-10.913-2.556-13.035-3.32a29.306 29.306 0 00.228-4.038 1.506 1.506 0 00-.555-1.166l-10.55-8.613a1.5 1.5 0 00-.954-.342h-12.7a1.472 1.472 0 00-.774.214l-3.733 2.24-2.526-.776v-3.182a1.512 1.512 0 00-1.075-1.447l-3.5-1.047 1.4-3.886a1.509 1.509 0 00-1.419-2.017H64.6a1.488 1.488 0 00-1.157.541 8.3 8.3 0 01-.938.947 27.645 27.645 0 01-2.968-.919l1.766-6.254 8.779-2.617 1.971 4.4a1.5 1.5 0 001.527.881L75.733 76a1.51 1.51 0 001.349-1.319l.57-4.782 5.341-4.351a1.483 1.483 0 00.548-.981l.34-2.736 10.009-6.284h4.52a1.507 1.507 0 001.467-1.166l.648-2.8a1.522 1.522 0 00-.324-1.317l-1.278-1.494.425-.326h4.876a1.516 1.516 0 00.887-.288l2.364-1.721a1.5 1.5 0 00.16-2.3l-5.957-5.747-1.662-2.088a1.5 1.5 0 00-1.175-.566h-6.459a1.508 1.508 0 00-1.431 1.031l-1.659 4.972-2.525.472a1.418 1.418 0 00-.107-.388 1.5 1.5 0 00-.9-.837L81.156 39.4l3.5-3.5 6.395-.518a1.507 1.507 0 001.371-1.282l.4-2.671h4.586l1.488 2.149a1.482 1.482 0 00.536.475l.8.422a1.488 1.488 0 00.493.158l3.014.431a1.5 1.5 0 001.353-.506l.543-.63 2.87-.359a1.507 1.507 0 001.314-1.65l-.434-4.093a1.5 1.5 0 00-.742-1.146l-3.824-2.215-.326-.434 6.673-1.366 4.6 2.028 2.245 2.8-1.339 1.007a1.472 1.472 0 00-.527.726c-1.236 3.707-.976 4.5-.865 4.83.1.294.328.985 3.813 4.469a1.507 1.507 0 001.958.144l4.073-3 2.784-1.989 10.7-2.729a1.49 1.49 0 00.572-.285l2.02-1.606a83.023 83.023 0 00-19.66-12.266l-1.618.182a.987.987 0 00-.048-.192 1.493 1.493 0 00-1.439-1.068h-10.123a1.594 1.594 0 00-.242.02l-7.963 1.293a1.509 1.509 0 00-.6 2.742l.849.564-3.8 1.52a1.484 1.484 0 00-.5.335l-3.974 3.97a10.887 10.887 0 01-1.125.609 26.921 26.921 0 00-.862-2.19 1.487 1.487 0 00-.961-.835 23.934 23.934 0 00-4.5-.92h-9.698c-1.887 0-6.381 1.912-7.709 2.5a1.526 1.526 0 00-.823.888 1.548 1.548 0 00.1 1.2l.192.356-10.336-.851L42.826 25.2a1.5 1.5 0 00-.568.037l-4.171 1.083a83.55 83.55 0 00-17.813 18.273l1.083-.027a1.527 1.527 0 00.481-.092" fill="#89c402"/>
    <path d="M104.164 52a1.467 1.467 0 00.2.433h6.306a1.492 1.492 0 00-.1-.755l-.506-1.189.506-1.188a1.508 1.508 0 00-2.343-1.755l-3.55 2.907a1.5 1.5 0 00-.513 1.547M82.513 80.962L79.468 79.7l-2.081-1.145a1.521 1.521 0 00-.728-.185h-4.518a1.507 1.507 0 100 3.014h4.134l.139.078-.356.041a1.507 1.507 0 00.173 3c.055 0 .114 0 .169-.007l5.708-.648a1.507 1.507 0 00.406-2.891m10.723 1.305l-5.273-.751a1.507 1.507 0 00-.427 2.984l5.275.755a1.247 1.247 0 00.215.013 1.507 1.507 0 00.21-3m4.233 5.97l-.648-1.941a1.506 1.506 0 10-2.857.954l.644 1.939a1.513 1.513 0 001.431 1.031 1.488 1.488 0 00.477-.078 1.507 1.507 0 00.952-1.9" fill="#89c402" opacity=".7"/>
    <rect x="46.002" y="51.331" width="52.266" height="88.998" rx="4.517" ry="4.517" fill="#777"/>
    <path d="M53.684 99.433a5.68 5.68 0 015.68-5.68h26.013a5.68 5.68 0 015.68 5.68 5.68 5.68 0 01-5.68 5.68H59.364a5.68 5.68 0 01-5.68-5.68z" fill="#1e1e1e"/>
    <circle cx="59.606" cy="99.433" r="3.813" fill="#b8d432"/>
    <path d="M53.684 82.56a5.68 5.68 0 015.68-5.68h26.013a5.68 5.68 0 015.68 5.68 5.68 5.68 0 01-5.68 5.68H59.364a5.68 5.68 0 01-5.68-5.68z" fill="#1e1e1e"/>
    <circle cx="59.606" cy="82.56" r="3.813" fill="#b8d432"/>
    <path d="M53.684 65.687a5.68 5.68 0 015.68-5.68h26.013a5.68 5.68 0 015.68 5.68 5.68 5.68 0 01-5.68 5.68H59.364a5.68 5.68 0 01-5.68-5.68z" fill="#1e1e1e"/>
    <circle cx="59.606" cy="65.687" r="3.813" fill="#b8d432"/>
    <rect x="106.002" y="51.331" width="52.266" height="88.998" rx="4.517" ry="4.517" fill="#777"/>
    <path d="M113.684 99.433a5.68 5.68 0 015.68-5.68h26.013a5.68 5.68 0 015.68 5.68 5.68 5.68 0 01-5.68 5.68h-26.013a5.68 5.68 0 01-5.68-5.68z" fill="#1e1e1e"/>
    <circle cx="119.606" cy="99.433" r="3.813" fill="#b8d432"/>
    <path d="M113.684 82.56a5.68 5.68 0 015.68-5.68h26.013a5.68 5.68 0 015.68 5.68 5.68 5.68 0 01-5.68 5.68h-26.013a5.68 5.68 0 01-5.68-5.68z" fill="#1e1e1e"/>
    <circle cx="119.606" cy="82.56" r="3.813" fill="#b8d432"/>
    <path d="M113.684 65.687a5.68 5.68 0 015.68-5.68h26.013a5.68 5.68 0 015.68 5.68 5.68 5.68 0 01-5.68 5.68h-26.013a5.68 5.68 0 01-5.68-5.68z" fill="#1e1e1e"/>
    <circle cx="119.606" cy="65.687" r="3.813" fill="#b8d432"/>
    <rect x="166.002" y="51.331" width="52.266" height="88.998" rx="4.517" ry="4.517" fill="#777"/>
    <path d="M173.684 99.433a5.68 5.68 0 015.68-5.68h26.013a5.68 5.68 0 015.68 5.68 5.68 5.68 0 01-5.68 5.68h-26.013a5.68 5.68 0 01-5.68-5.68z" fill="#1e1e1e"/>
    <circle cx="179.606" cy="99.433" r="3.813" fill="#b8d432"/>
    <path d="M173.684 82.56a5.68 5.68 0 015.68-5.68h26.013a5.68 5.68 0 015.68 5.68 5.68 5.68 0 01-5.68 5.68h-26.013a5.68 5.68 0 01-5.68-5.68z" fill="#1e1e1e"/>
    <circle cx="179.606" cy="82.56" r="3.813" fill="#b8d432"/>
    <path d="M173.684 65.687a5.68 5.68 0 015.68-5.68h26.013a5.68 5.68 0 015.68 5.68 5.68 5.68 0 01-5.68 5.68h-26.013a5.68 5.68 0 01-5.68-5.68z" fill="#1e1e1e"/>
    <circle cx="179.606" cy="65.687" r="3.813" fill="#b8d432"/>
    <rect x="226.002" y="51.331" width="52.266" height="88.998" rx="4.517" ry="4.517" fill="#777"/>
    <path d="M233.684 99.433a5.68 5.68 0 015.68-5.68h26.013a5.68 5.68 0 015.68 5.68 5.68 5.68 0 01-5.68 5.68h-26.013a5.68 5.68 0 01-5.68-5.68z" fill="#1e1e1e"/>
    <circle cx="239.606" cy="99.433" r="3.813" fill="#b8d432"/>
    <path d="M233.684 82.56a5.68 5.68 0 015.68-5.68h26.013a5.68 5.68 0 015.68 5.68 5.68 5.68 0 01-5.68 5.68h-26.013a5.68 5.68 0 01-5.68-5.68z" fill="#1e1e1e"/>
    <circle cx="239.606" cy="82.56" r="3.813" fill="#b8d432"/>
    <path d="M233.684 65.687a5.68 5.68 0 015.68-5.68h26.013a5.68 5.68 0 015.68 5.68 5.68 5.68 0 01-5.68 5.68h-26.013a5.68 5.68 0 01-5.68-5.68z" fill="#1e1e1e"/>
    <circle cx="239.606" cy="65.687" r="3.813" fill="#b8d432"/>
    <path d="M186.544 42.662a50.636 50.636 0 1036.79 10.721 49.717 49.717 0 00-31.369-11 52.242 52.242 0 00-5.422.283" fill="#fff"/>
    <path d="M170.992 79.513l-12.317-9.97a40.572 40.572 0 00-7.3 24.966l15.747-1.657a24.873 24.873 0 013.868-13.34" fill="#7fba00" opacity=".4"/>
    <path d="M205.443 71.721l9.972-12.32a40.6 40.6 0 00-24.981-7.276l1.656 15.745a24.906 24.906 0 0113.352 3.85" fill="#7fba00" opacity=".8"/>
    <path d="M186.6 68.492l-1.66-15.762a40.627 40.627 0 00-22.809 12.5l12.307 9.965a24.86 24.86 0 0112.161-6.7" fill="#7fba00" opacity=".6"/>
    <path d="M167.733 98.341l-15.763 1.664a40.6 40.6 0 0012.5 22.831l9.963-12.307a24.866 24.866 0 01-6.7-12.188" fill="#7fba00" opacity=".25"/>
    <path d="M252.5 86.613a61.308 61.308 0 00-22.627-41.3 59.127 59.127 0 00-7.564-5.124l-4.79 9.216a48.335 48.335 0 015.819 3.982 50.616 50.616 0 01-26.2 89.963 50.306 50.306 0 01-26.216-4.3l-4.785 9.209A60.942 60.942 0 00252.5 86.613" fill="#a0a1a2"/>
    <path d="M160 132.347A50.606 50.606 0 01217.514 49.4l4.79-9.213a60.954 60.954 0 00-77.878 14.438l-.017.022a60.779 60.779 0 0021.731 93.611l4.785-9.209a50.769 50.769 0 01-10.926-6.7" fill="#a0a1a2"/>
    <path d="M160 132.347A50.606 50.606 0 01217.514 49.4l4.79-9.213a60.954 60.954 0 00-77.878 14.438l-.017.022a60.779 60.779 0 0021.731 93.611l4.785-9.209a50.769 50.769 0 01-10.926-6.7" fill="#fff" opacity=".2"/>
    <path d="M219.729 62.858l-9.965 12.31a24.767 24.767 0 015.523 8.385h16.532a40.568 40.568 0 00-12.09-20.695z" fill="#7fba00"/>
    <path d="M187.159 97.979a7.131 7.131 0 015.029-12.193 7.023 7.023 0 015.019 1.984c.017.017.024-.02.046 0h34.858l1.515-.012.01.012a5.185 5.185 0 11.029 10.37h-36.807a7.259 7.259 0 01-4.692 1.9 7.087 7.087 0 01-5.007-2.062" fill="#dd5900"/>
    <path d="M233.637 87.815l-.01-.013-1.515.013h-34.858c-.022-.02-.029.017-.046 0a7.024 7.024 0 00-5.019-1.984 7.13 7.13 0 00-7.137 7.127h53.788a5.2 5.2 0 00-5.203-5.143z" fill="#ff8c00"/>
</svg>
