<svg xmlns="http://www.w3.org/2000/svg" viewBox="0 0 24 24">
                                
                            
  <path d="M9.204,15.323c0,0.484-0.174,0.859-0.523,1.124c-0.349,0.266-0.831,0.398-1.446,0.398 c-0.523,0-0.961-0.095-1.312-0.285v-1.138c0.406,0.346,0.852,0.52,1.34,0.52c0.236,0,0.418-0.047,0.547-0.142 c0.129-0.095,0.193-0.22,0.193-0.377c0-0.154-0.062-0.288-0.186-0.402S7.441,14.76,7.062,14.58c-0.773-0.365-1.16-0.863-1.16-1.494 c0-0.458,0.168-0.825,0.506-1.101c0.337-0.276,0.785-0.414,1.344-0.414c0.495,0,0.905,0.066,1.231,0.196v1.063 c-0.342-0.237-0.731-0.356-1.167-0.356c-0.219,0-0.392,0.047-0.52,0.14c-0.127,0.094-0.191,0.219-0.191,0.375 c0,0.161,0.051,0.294,0.154,0.397c0.102,0.103,0.313,0.231,0.631,0.382c0.474,0.226,0.812,0.454,1.013,0.687 C9.104,14.688,9.204,14.977,9.204,15.323z M14.354,12.816c-0.204-0.398-0.49-0.705-0.859-0.921s-0.787-0.324-1.254-0.324 c-0.5,0-0.943,0.112-1.33,0.334c-0.387,0.223-0.686,0.541-0.9,0.955c-0.213,0.414-0.32,0.885-0.32,1.414 c0,0.477,0.099,0.909,0.295,1.297c0.197,0.388,0.476,0.693,0.838,0.916c0.362,0.223,0.768,0.343,1.218,0.359l1.05,1.185h1.485 l-1.471-1.37c0.493-0.178,0.874-0.487,1.145-0.928s0.407-0.962,0.407-1.561C14.66,13.666,14.558,13.214,14.354,12.816z M13.111,15.421c-0.231,0.288-0.543,0.432-0.937,0.432c-0.387,0-0.696-0.149-0.93-0.446c-0.233-0.298-0.35-0.695-0.35-1.193 c0-0.5,0.119-0.901,0.357-1.202s0.555-0.451,0.951-0.451c0.389,0,0.695,0.15,0.92,0.45c0.224,0.3,0.336,0.709,0.336,1.226 C13.458,14.738,13.343,15.133,13.111,15.421z M18.518,15.825H16.64v-4.169h-1.142v5.101h3.02V15.825z M12,0C7.029,0,3,1.567,3,3.5 v17c0,1.933,4.029,3.5,9,3.5s9-1.567,9-3.5v-17C21,1.567,16.971,0,12,0z M12,1c5.176,0,8,1.651,8,2.5S17.176,6,12,6S4,4.349,4,3.5 S6.824,1,12,1z M12,23c-5.176,0-8-1.651-8-2.5V5.099C5.494,6.227,8.512,7,12,7c3.504,0,6.533-0.78,8.019-1.917L20,20.5 C20,21.349,17.176,23,12,23z"></path>
</svg>