<svg xmlns="http://www.w3.org/2000/svg" viewBox="0 0 31 31">
                                
                            
  <path d="M3.4 0H0V3.4H3.4V0Z" transform="translate(18.425 18.5)" fill="#303030"></path>
  <path d="M3.4 0H0V3.4H3.4V0Z" transform="translate(13.425 18.5)" fill="#303030"></path>
  <path d="M3.4 0H0V3.4H3.4V0Z" transform="translate(18.425 13.5)" fill="#59B4D9"></path>
  <path d="M3.4 0H0V3.4H3.4V0Z" transform="translate(13.425 13.5)" fill="#303030"></path>
  <path d="M3.4 0H0V3.4H3.4V0Z" transform="translate(13.425 8.5)" fill="#303030"></path>
  <path d="M3.4 0H0V3.4H3.4V0Z" transform="translate(18.425 23.5)" fill="#303030"></path>
  <path d="M3.4 0H0V3.4H3.4V0Z" transform="translate(23.425 13.5)" fill="#303030"></path>
  <path d="M3.4 0H0V3.4H3.4V0Z" transform="translate(23.425 8.5)" fill="#303030"></path>
  <path d="M3.4 0H0V3.4H3.4V0Z" transform="translate(18.425 8.5)" fill="#303030"></path>
  <path d="M3.4 0H0V3.4H3.4V0Z" transform="translate(23.425 18.5)" fill="#303030"></path>
  <path d="M3.4 0H0V3.4H3.4V0Z" transform="translate(3.42505 18.5)" fill="#303030"></path>
  <path d="M3.4 0H0V3.4H3.4V0Z" transform="translate(3.42505 23.5)" fill="#303030"></path>
  <path d="M3.4 0H0V3.4H3.4V0Z" transform="translate(13.425 23.5)" fill="#303030"></path>
  <path d="M3.4 0H0V3.4H3.4V0Z" transform="translate(3.42505 13.5)" fill="#303030"></path>
  <path d="M29.925 1.5C29.825 1.3 29.625 1.1 29.525 0.9C29.425 0.7 29.325 0.5 29.025 0.4C28.725 0.3 28.625 0.2 28.425 0.2V0H1.625C1.425 0 1.125 0.1 1.025 0.2C0.925 0.3 0.625 0.5 0.525 0.7C0.425 0.9 0.325 1.1 0.125 1.4C-0.075 1.7 0.025 1.7 0.025 2V28.4C0.025 28.6 0.025 28.8 0.125 29C0.225 29.1 0.425 29.4 0.525 29.5C0.625 29.6 0.825 29.7 1.025 29.9C1.225 30.1 1.425 30 1.625 30H28.425C28.725 30 28.825 30 29.025 29.9C29.225 29.8 29.425 29.7 29.525 29.5C29.625 29.3 29.825 29.1 29.925 29C30.025 28.8 30.025 28.6 30.025 28.4V2.1C30.025 1.9 30.025 1.7 29.925 1.5ZM28.425 28.3H1.825V6.7H28.425V28.3V28.3Z" fill="#303030"></path>
  <path d="M3.4 0H0V3.4H3.4V0Z" transform="translate(8.42505 23.5)" fill="#303030"></path>
  <path d="M3.4 0H0V3.4H3.4V0Z" transform="translate(8.42505 8.5)" fill="#303030"></path>
  <path d="M3.4 0H0V3.4H3.4V0Z" transform="translate(8.42505 13.5)" fill="#303030"></path>
  <path d="M3.4 0H0V3.4H3.4V0Z" transform="translate(8.42505 18.5)" fill="#59B4D9"></path>
  <path d="M3.4 0H0V3.4H3.4V0Z" transform="translate(18.425 13.5)" fill="#0078D4"></path>
  <path d="M3.4 0H0V3.4H3.4V0Z" transform="translate(8.42505 18.5)" fill="#0078D4"></path>
</svg>