<svg xmlns="http://www.w3.org/2000/svg" viewBox="0 0 49 49">
    <path d="M26.165 30.038h-2.526V44h2.526V30.038zm0-27.073h-2.526v15.697h2.526V2.965zm4.497 23.253l-1.264 2.188 12.777 7.377 1.263-2.188-12.776-7.377zM7.3 12.726l-1.263 2.188 13.244 7.646 1.263-2.187L7.3 12.726zm35.027.107l-13.046 7.532 1.263 2.188L43.59 15.02l-1.263-2.187zM19.192 26.18L5.817 33.902 7.08 36.09l13.375-7.722-1.263-2.188z" fill="#50E6FF"/>
    <path d="M24.902 19.959l3.798 2.19v4.378l-3.798 2.198-3.79-2.19v-4.378l3.79-2.198zm0-2.914l-1.263.733-3.79 2.189-1.263.733v7.292l1.263.733 3.798 2.19 1.263.732 1.263-.733 3.798-2.19 1.263-.732V20.7l-1.263-.733-3.806-2.19-1.263-.732zm-3.79 27.545v-.059a3.754 3.754 0 013.756-3.756h.059a3.754 3.754 0 013.756 3.756v.06a3.754 3.754 0 01-3.756 3.755h-.059a3.76 3.76 0 01-3.756-3.756zm0-40.421v-.06A3.763 3.763 0 0124.877.347h.059A3.761 3.761 0 0128.69 4.11v.059a3.76 3.76 0 01-3.755 3.756h-.06a3.761 3.761 0 01-3.764-3.756zM40.75 37.752l-.05-.034a3.75 3.75 0 01-1.373-5.137l.034-.05a3.75 3.75 0 015.137-1.373l.05.034a3.75 3.75 0 011.373 5.137l-.034.05a3.768 3.768 0 01-5.137 1.373zM7.26 18.03H7.2a3.754 3.754 0 01-3.755-3.756v-.06A3.754 3.754 0 017.2 10.46h.059a3.754 3.754 0 013.755 3.756v.059a3.748 3.748 0 01-3.755 3.755zm37.271-.521l-.05.033a3.764 3.764 0 01-5.137-1.373l-.034-.05a3.764 3.764 0 011.373-5.137l.05-.034a3.764 3.764 0 015.137 1.373l.034.05a3.764 3.764 0 01-1.373 5.138zM7.26 38.24H7.2a3.754 3.754 0 01-3.755-3.755v-.06A3.754 3.754 0 017.2 30.67h.059a3.754 3.754 0 013.755 3.756v.059A3.748 3.748 0 017.26 38.24z" fill="#0078D4"/>
</svg>
