<svg xmlns="http://www.w3.org/2000/svg" viewBox="0 0 193 193">
    <path d="M60.455 96.265c0 2.789-.959 5.49-2.44 7.93l29.452 29.452c.959-.348 1.568-.958 2.44-1.22V58.099L58.712 89.294c1.132 2.092 1.742 4.444 1.742 6.971zm75.024-6.535l-30.846-30.847v73.283c.958.61 1.568.958 2.44 1.568l29.452-29.452a15.113 15.113 0 01-2.44-8.278c0-2.266.523-4.357 1.394-6.274z" fill="#1A1A1F"/>
    <path d="M186.542 83.98L109.251 6.688c-3.05-3.399-7.668-5.229-12.286-5.229-4.619 0-8.888 1.83-12.287 5.229L7.04 83.979c-3.398 3.05-5.228 7.668-5.228 12.286 0 4.619 1.83 8.888 5.228 12.287l77.64 77.29c3.05 3.399 7.667 5.229 12.286 5.229 4.618 0 9.236-1.83 12.286-5.229l77.291-77.29c3.398-3.05 5.228-7.668 5.228-12.287 0-4.618-1.917-8.888-5.228-12.286zm-37.731 27.012c-1.568 0-3.05-.349-4.618-.959l-31.021 31.021c.61 2.178 1.22 4.27 1.22 6.709 0 9.498-7.668 17.166-17.166 17.166-9.498 0-17.166-7.668-17.166-17.166 0-2.439.61-4.618 1.569-6.709L50.608 110.12c-1.569.61-3.05.959-4.88.959-8.017 0-14.726-6.71-14.726-14.726 0-8.017 6.448-14.727 14.726-14.727 2.091 0 4.183.436 6.013 1.307l32.24-32.24c-.871-1.917-1.394-3.921-1.394-6.187 0-8.017 6.448-14.726 14.726-14.726 7.93 0 14.726 6.448 14.726 14.726 0 2.353-.61 4.618-1.568 6.622l31.892 31.718c1.917-.958 4.183-1.568 6.535-1.568 8.017 0 14.727 6.71 14.727 14.987-.088 8.017-6.536 14.727-14.814 14.727z" fill="#1A1A1F"/>
    <path d="M108.554 148.199c0 6.361-5.054 11.415-11.415 11.415-6.361 0-11.415-5.054-11.415-11.415 0-6.361 5.054-11.415 11.415-11.415 6.361.262 11.415 5.316 11.415 11.415zm-3.311-103.78c0 4.618-3.66 8.278-8.278 8.278-4.619 0-8.279-3.66-8.279-8.278s3.66-8.278 8.278-8.278c4.619 0 8.279 3.747 8.279 8.278zM53.396 96.265c0 4.619-3.66 8.278-8.278 8.278s-8.278-3.659-8.278-8.278c0-4.618 3.66-8.278 8.278-8.278s8.278 3.66 8.278 8.278zm103.345 0c0 4.619-3.66 8.278-8.278 8.278-4.619 0-8.278-3.659-8.278-8.278 0-4.618 3.659-8.278 8.278-8.278 4.618 0 8.278 3.66 8.278 8.278z" fill="#1A1A1F"/>
</svg>
