<svg xmlns="http://www.w3.org/2000/svg" viewBox="0 0 24 24"><path d="M12 0a12 12 0 1 0 12 12A12 12 0 0 0 12 0zm0 23c-2.12 0-3.778-2.935-4.562-6.5h9.124C15.778 20.065 14.12 23 12 23zm-4.756-7.5a21.206 21.206 0 0 1-.3-3.5 21.206 21.206 0 0 1 .3-3.5h9.511a21.206 21.206 0 0 1 .3 3.5 21.206 21.206 0 0 1-.3 3.5zM12 1c2.12 0 3.778 2.935 4.562 6.5H7.438C8.222 3.935 9.88 1 12 1zm5.795 7.5h4.625a10.839 10.839 0 0 1 0 7h-4.625a23.074 23.074 0 0 0 .263-3.5 23.074 23.074 0 0 0-.263-3.5zm4.232-1h-4.413a12.615 12.615 0 0 0-2.8-6.121A11.033 11.033 0 0 1 22.027 7.5zM9.185 1.379A12.615 12.615 0 0 0 6.386 7.5H1.973a11.033 11.033 0 0 1 7.212-6.121zM1.581 8.5h4.624a23.378 23.378 0 0 0 0 7H1.581a10.839 10.839 0 0 1 0-7zm.392 8h4.413a12.615 12.615 0 0 0 2.8 6.121A11.033 11.033 0 0 1 1.973 16.5zm12.842 6.121a12.615 12.615 0 0 0 2.8-6.121h4.413a11.033 11.033 0 0 1-7.213 6.121z"/></svg>