<svg xmlns="http://www.w3.org/2000/svg" viewBox="0 0 41 51">
    <path d="M1.613 9.244S7.53 9.66 12.28 6.91s7.833-6 7.833-6 3.5 4.416 9.5 6.083c6 1.667 9.75 2.667 9.75 2.667s.167 11.25-.166 14.25c-.334 3-1.75 10.833-5.584 16.083-3.833 5.25-10.416 9-12.916 9S9.197 45.577 6.03 39.16s-4.917-11.417-5-16.584c-.083-5.166.583-13.333.583-13.333" fill="#FFF"/>
    <path d="M17.55 35.129l-7.77-7.864 2.135-2.108 5.64 5.709 13.88-13.983 2.129 2.114z"/>
    <path d="M2 10.37v12.094c0 16.563 13.467 25.723 18.102 25.862 4.635-.14 18.102-9.3 18.102-25.862v-12.18c-2.596-.177-9.725-1.265-17.946-7.642C12.39 9.75 4.841 10.402 2 10.37zm18.207 39.957l-.21-.005C14.621 50.072 0 40.506 0 22.464V8.18l1.126.142c.088.012 9.18 1 18.394-7.722l.634-.6.68.548c9.817 7.909 18.264 7.77 18.34 7.768l1.028-.028.002 14.176c0 18.042-14.621 27.609-19.997 27.858v.005z"/>
</svg>
