<svg xmlns="http://www.w3.org/2000/svg" viewBox="0 0 60.137 35.093">
    <path d="M54.258 3.076A3.076 3.076 0 0051.181 0H3.076A3.076 3.076 0 000 3.076h54.258zm0 25.446v-5.164L48.5 29.113l-4.385-4.385-2.99 2.99 3.884 3.882h6.172a3.042 3.042 0 00.992-.178l1.906-1.906a3.045 3.045 0 00.179-.994z" fill="#fff"/>
    <path d="M39.713 29.132L38.3 27.718l1.413-1.418 2.99-2.99 1.414-1.41 1.414 1.415 2.969 2.97 5.755-5.755V9.179H0v19.343A3.077 3.077 0 003.077 31.6h39.1zm-26.579-1.694H4.321v-2h8.812z" fill="#fff"/>
    <path fill="#fff" d="M60.137 23.458l-2.99-2.99-8.645 8.645-4.385-4.385-2.99 2.99 4.385 4.385 2.99 2.99 2.99-2.99 8.645-8.645z"/>
</svg>
