<svg xmlns="http://www.w3.org/2000/svg" viewBox="0 0 49 49"><path d="M5.577 7.781A2.522 2.522 0 0 1 3.05 5.256 2.522 2.522 0 0 1 5.577 2.73a2.522 2.522 0 0 1 2.525 2.526A2.533 2.533 0 0 1 5.577 7.78zM13.153 7.781a2.522 2.522 0 0 1-2.526-2.525 2.522 2.522 0 0 1 2.526-2.526 2.522 2.522 0 0 1 2.525 2.526 2.533 2.533 0 0 1-2.525 2.525zM20.754 7.781a2.522 2.522 0 0 1-2.525-2.525 2.522 2.522 0 0 1 2.525-2.526 2.522 2.522 0 0 1 2.526 2.526 2.527 2.527 0 0 1-2.526 2.525zM28.33 7.781a2.522 2.522 0 0 1-2.525-2.525 2.522 2.522 0 0 1 2.526-2.526 2.522 2.522 0 0 1 2.525 2.526 2.527 2.527 0 0 1-2.525 2.525zM35.882 7.781a2.522 2.522 0 0 1-2.526-2.525 2.522 2.522 0 0 1 2.526-2.526 2.522 2.522 0 0 1 2.525 2.526 2.533 2.533 0 0 1-2.525 2.525zM43.483 7.781a2.522 2.522 0 0 1-2.525-2.525 2.522 2.522 0 0 1 2.525-2.526 2.522 2.522 0 0 1 2.526 2.526 2.527 2.527 0 0 1-2.526 2.525zM5.577 15.357a2.522 2.522 0 0 1-2.526-2.525 2.522 2.522 0 0 1 2.526-2.525 2.522 2.522 0 0 1 2.525 2.525 2.533 2.533 0 0 1-2.525 2.525zM13.153 15.357a2.522 2.522 0 0 1-2.526-2.525 2.522 2.522 0 0 1 2.526-2.525 2.522 2.522 0 0 1 2.525 2.525 2.533 2.533 0 0 1-2.525 2.525zM20.754 15.357a2.522 2.522 0 0 1-2.525-2.525 2.522 2.522 0 0 1 2.525-2.525 2.522 2.522 0 0 1 2.526 2.525 2.528 2.528 0 0 1-2.526 2.525zM28.33 15.357a2.522 2.522 0 0 1-2.525-2.525 2.522 2.522 0 0 1 2.526-2.525 2.522 2.522 0 0 1 2.525 2.525 2.527 2.527 0 0 1-2.525 2.525zM35.882 15.357a2.522 2.522 0 0 1-2.526-2.525 2.522 2.522 0 0 1 2.526-2.525 2.522 2.522 0 0 1 2.525 2.525 2.533 2.533 0 0 1-2.525 2.525zM43.483 15.357a2.522 2.522 0 0 1-2.525-2.525 2.522 2.522 0 0 1 2.525-2.525 2.522 2.522 0 0 1 2.526 2.525 2.528 2.528 0 0 1-2.526 2.525zM5.577 22.959a2.522 2.522 0 0 1-2.526-2.525 2.522 2.522 0 0 1 2.526-2.526 2.522 2.522 0 0 1 2.525 2.526 2.527 2.527 0 0 1-2.525 2.525zM13.153 22.959a2.522 2.522 0 0 1-2.526-2.525 2.522 2.522 0 0 1 2.526-2.526 2.522 2.522 0 0 1 2.525 2.526 2.527 2.527 0 0 1-2.525 2.525zM20.754 22.959a2.522 2.522 0 0 1-2.525-2.525 2.522 2.522 0 0 1 2.525-2.526 2.522 2.522 0 0 1 2.526 2.526 2.522 2.522 0 0 1-2.526 2.525zM28.33 22.959a2.522 2.522 0 0 1-2.525-2.525 2.522 2.522 0 0 1 2.526-2.526 2.522 2.522 0 0 1 2.525 2.526 2.522 2.522 0 0 1-2.525 2.525zM35.882 22.959a2.522 2.522 0 0 1-2.526-2.525 2.522 2.522 0 0 1 2.526-2.526 2.522 2.522 0 0 1 2.525 2.526 2.527 2.527 0 0 1-2.525 2.525zM43.483 22.959a2.522 2.522 0 0 1-2.525-2.525 2.522 2.522 0 0 1 2.525-2.526 2.522 2.522 0 0 1 2.526 2.526 2.522 2.522 0 0 1-2.526 2.525zM5.577 30.535A2.522 2.522 0 0 1 3.05 28.01a2.522 2.522 0 0 1 2.526-2.525 2.522 2.522 0 0 1 2.525 2.525 2.527 2.527 0 0 1-2.525 2.525zM13.153 30.535a2.522 2.522 0 0 1-2.526-2.525 2.522 2.522 0 0 1 2.526-2.525 2.522 2.522 0 0 1 2.525 2.525 2.527 2.527 0 0 1-2.525 2.525zM20.754 30.535a2.522 2.522 0 0 1-2.525-2.525 2.522 2.522 0 0 1 2.525-2.525 2.522 2.522 0 0 1 2.526 2.525 2.522 2.522 0 0 1-2.526 2.525zM5.577 38.112a2.522 2.522 0 0 1-2.526-2.526 2.522 2.522 0 0 1 2.526-2.525 2.522 2.522 0 0 1 2.525 2.525 2.527 2.527 0 0 1-2.525 2.526zM13.153 38.112a2.522 2.522 0 0 1-2.526-2.526 2.522 2.522 0 0 1 2.526-2.525 2.522 2.522 0 0 1 2.525 2.525 2.527 2.527 0 0 1-2.525 2.526zM20.754 38.112a2.522 2.522 0 0 1-2.525-2.526 2.522 2.522 0 0 1 2.525-2.525 2.522 2.522 0 0 1 2.526 2.525 2.522 2.522 0 0 1-2.526 2.526zM5.577 45.688a2.522 2.522 0 0 1-2.526-2.525 2.522 2.522 0 0 1 2.526-2.526 2.522 2.522 0 0 1 2.525 2.526 2.527 2.527 0 0 1-2.525 2.525zM13.153 45.688a2.522 2.522 0 0 1-2.526-2.525 2.522 2.522 0 0 1 2.526-2.526 2.522 2.522 0 0 1 2.525 2.526 2.527 2.527 0 0 1-2.525 2.525zM20.754 45.688a2.522 2.522 0 0 1-2.525-2.525 2.522 2.522 0 0 1 2.525-2.526 2.522 2.522 0 0 1 2.526 2.526 2.522 2.522 0 0 1-2.526 2.525z" fill="#50E6FF"/><path d="M48.593 46.429l-7.315-7.24a8.557 8.557 0 0 0 1.76-5.202c0-4.74-3.848-8.587-8.587-8.587-4.74 0-8.587 3.847-8.587 8.587s3.847 8.586 8.587 8.586a8.52 8.52 0 0 0 5.017-1.616l7.349 7.273 1.776-1.801zm-14.142-6.381a6.068 6.068 0 0 1-6.061-6.061 6.068 6.068 0 0 1 6.06-6.061 6.068 6.068 0 0 1 6.062 6.06 6.068 6.068 0 0 1-6.061 6.062z" fill="#0078D4"/></svg>