<svg xmlns="http://www.w3.org/2000/svg" viewBox="0 0 512 512"><g fill="#0063B1" fill-rule="evenodd"><path d="M255.346 136.533c45.816 0 88.297 17.238 122.188 45.698 28.422 23.868 47.845 53.832 47.845 73.852 0 20.022-19.42 49.869-47.867 73.638-33.876 28.306-76.354 45.447-122.166 45.447-45.58 0-87.883-17.996-122.28-47.578-27.811-23.918-47.733-53.868-47.733-71.507 0-17.638 19.925-47.708 47.712-71.722 34.409-29.735 76.714-47.828 122.3-47.828zm0 22.756c-39.693 0-76.898 15.911-107.422 42.29-23.258 20.1-39.835 45.118-39.835 54.504 0 9.362 16.556 34.251 39.815 54.255 30.514 26.243 67.73 42.075 107.442 42.075 40.166 0 77.597-15.104 107.575-40.154 23.785-19.874 39.702-44.337 39.702-56.176 0-11.863-15.94-36.454-39.723-56.426-29.99-25.184-67.41-40.368-107.554-40.368z" fill-rule="nonzero"/><path d="M287.858 257.184h53.181v-56.159h-53.181z"/></g></svg>