<svg xmlns="http://www.w3.org/2000/svg" viewBox="0 0 82 82">
    <g fill="#0078D7" fill-rule="evenodd">
        <path d="M65.23 8.172l3.62-7.07a.75.75 0 00-.71-1.1l-26.56 1.35a.75.75 0 00-.59 1.16l14.44 22.33a.76.76 0 001.31-.07l3.17-6.2a.759.759 0 011.2-.21c5 4.85 10.28 12.29 10.28 22.11 0 17.176-13.922 31.1-31.097 31.1a31.09 31.09 0 01-14.903-3.8.74.74 0 00-1 .27l-4.13 7.16a.761.761 0 00.29 1c19.752 10.913 44.612 3.748 55.525-16.004a40.852 40.852 0 005.095-19.726c0-11.7-5.56-22.72-15.73-31.39a.741.741 0 01-.21-.91"/>
        <path d="M25.71 77.482l1.89-3.28c18.34 6.85 38.762-2.462 45.614-20.803 6.851-18.34-2.462-38.762-20.802-45.614a35.414 35.414 0 00-6.542-1.753v-3.79c0-.47-.48 0-.86-.23l-2.58.09c-.58 0-.23.71.08 1.2l8.19 14.22a26.207 26.207 0 017.23 4.92l2-3.87a.77.77 0 01.68-.42c.194 0 .38.075.52.21 5 4.85 10.28 12.29 10.28 22.11.001 17.176-13.923 31.1-31.098 31.1a31.091 31.091 0 01-14.902-3.8.739.739 0 00-1.01.27l-4.13 7.16a.708.708 0 00-.081.53l3.731 2.15.26.11a1.24 1.24 0 001.53-.51"/>
        <path d="M19.04 74.511l4.13-7.15a2.1 2.1 0 011.83-1.06c.35.006.692.095 1 .26 14.404 7.881 32.471 2.593 40.352-11.81A29.74 29.74 0 0070 40.47c0-9.13-4.9-16.11-9.26-20.52l-1.81 3.54c9.733 10.467 9.138 26.843-1.328 36.576-10.467 9.733-26.843 9.138-36.577-1.329-9.733-10.467-9.138-26.842 1.33-36.576a25.88 25.88 0 0126.124-5.49L39.83 3.261a2.16 2.16 0 01-.11-2.13l.11-.15h-4.41c-.69 0-1.25.56-1.25 1.25v3.8a35.128 35.128 0 00-6.57 1.76l-1.89-3.28a1.262 1.262 0 00-1.719-.472v.001l-8 4.6a1.26 1.26 0 00-.46 1.72l1.94 3.31a36.896 36.896 0 00-4.8 4.8l-3.29-1.9a1.26 1.26 0 00-1.72.46l-4.59 7.93a1.26 1.26 0 00.46 1.71l3.28 1.9a34.455 34.455 0 00-1.75 6.56h-3.8A1.27 1.27 0 000 36.391v9.19a1.269 1.269 0 001.26 1.26h3.8a34.435 34.435 0 001.75 6.56l-3.28 1.89a1.26 1.26 0 00-.46 1.72l4.59 8a1.259 1.259 0 001.72.46l3.29-1.9a37.53 37.53 0 004.8 4.8l-1.9 3.3a1.26 1.26 0 00.46 1.72l2.81 1.62c.042-.175.11-.344.2-.5"/>
        <path d="M51.66 32.511v11.74c0 3.15-1.41 9.11-11.41 13.6l-.23.1-.24-.1c-10-4.49-11.44-10.45-11.4-13.63v-11.69l.51-.06a20.456 20.456 0 0010.77-4.26l.37-.3.36.3a20.486 20.486 0 0010.78 4.26l.49.04zm2.93-2.84a.177.177 0 00-.12 0H54c-6.08 0-11.64-2.49-13.83-6.17a.17.17 0 00-.29 0c-2.21 3.68-7.71 6.17-13.84 6.17h-.47a.248.248 0 00-.13.05.22.22 0 00-.05.13v14.37c0 4.1 1.78 11.75 14.55 16.94h.13c12.77-5.19 14.6-12.84 14.55-16.94v-14.37a.21.21 0 00-.03-.18z"/>
        <path d="M36.08 40.761h1.66a.17.17 0 00.17-.169v-2.63a2.11 2.11 0 114.21 0v2.62a.18.18 0 00.17.18h1.67a.18.18 0 00.17-.18v-2.62a4.11 4.11 0 00-8.22 0v2.62a.17.17 0 00.16.18h.01zm4.98 7.281a.17.17 0 010 .14.168.168 0 01-.13.07h-1.76a.17.17 0 01-.17-.21l.45-2.05a1.27 1.27 0 111.859-1.13 1.26 1.26 0 01-.688 1.13l.439 2.05zm4.47-6.69a.18.18 0 00-.18-.17H34.68a.18.18 0 00-.17.17v7.41c0 1.12 3.14 2.62 5.51 2.64 2.37.02 5.51-1.52 5.51-2.66v-7.39z"/>
    </g>
</svg>
