<svg xmlns="http://www.w3.org/2000/svg" viewBox="7 -7 64 64">
    <path fill="#3999C6" d="M70.6 25.4c.6-.6.5-1.7 0-2.3L67.5 20 53.7 6.6c-.6-.6-1.5-.6-2.2 0-.6.6-.8 1.7 0 2.3L66 23.1c.6.6.6 1.7 0 2.3L51.2 40.1c-.6.6-.6 1.7 0 2.3.6.6 1.7.5 2.2 0l13.7-13.6.1-.1 3.4-3.3zm-63.2 0c-.6-.6-.5-1.7 0-2.3l3.1-3.1L24.3 6.6c.6-.6 1.5-.6 2.2 0 .6.6.8 1.7 0 2.3L12.3 23.1c-.6.6-.6 1.7 0 2.3l14.5 14.7c.6.6.6 1.7 0 2.3-.6.6-1.7.5-2.2 0L10.6 29l-.1-.1-3.1-3.5z"/>
    <path fill="#FCD116" d="M54.6-4.5H35.1L24.6 25.1l12.8.1-10 29.3L55 15.4H41.6z"/>
    <path opacity=".3" fill="#FF8C00" d="M41.6 15.4l13-19.9H44.4L33.6 20.1l12.8.1-19 34.3L55 15.4z"/>
</svg>
