<svg xmlns="http://www.w3.org/2000/svg" viewBox="0 0 48 49">
    <path fill="#FFF" d="M46.697 24.417h-7.583v-5H15.281l-2.75-3.917H1.114v32.417h38.833z"/>
    <path d="M2 16.197h10.063l2.563 3.746a.999.999 0 00.825.435h23.038v3.191H8.512a1 1 0 00-.954.7L2 41.894V16.197zm36.97 30.515H2.579L9.245 25.57h36.391L38.97 46.712zm8.837-22.734A1.003 1.003 0 0047 23.57h-6.511v-4.19a1 1 0 00-1-1h-23.51l-2.564-3.747a1 1 0 00-.825-.435H1a1 1 0 00-1 1V48a1 1 0 001 1h38.489a.993.993 0 00.897-.574.997.997 0 00.271-.414l7.297-23.142a1 1 0 00-.147-.892z"/>
    <path d="M41.134 5.536L33.622.056c-.214-.144-.5 0-.5.289l.41 3.454a31.187 31.187 0 00-18.95 9.3l3.599 3.474a26.149 26.149 0 0115.94-7.81l.432 3.622c0 .289.357.36.5.144l6.153-6.056c.215-.36.215-.721-.072-.937"/>
</svg>
