<svg xmlns="http://www.w3.org/2000/svg" viewBox="0 0 512 512">
                                
                            
    <path stroke="none" stroke-width="1" fill-rule="evenodd" fill="#0063B1" transform="translate(113.000000, 130.000000)" d="M42.2082489,127.236196 L89.0391822,174.129707 L219.530916,43.4673067 L235.630471,59.5497956 L89.0391822,206.328818 L26.1086933,143.312996 L42.2082489,127.236196 Z M255.797013,231.586347 C244.749191,231.233636 235.260124,223.775502 233.570524,213.194169 C231.49408,201.287324 240.328924,190.222436 253.197191,188.30528 C265.934613,186.621369 279.969102,192.992924 283.348302,209.462258 C286.596658,233.270258 268.011058,252.86848 240.072924,255.758436 C239.031858,255.877902 238.901013,255.27488 238.901013,255.27488 L237.729102,247.822436 C237.729102,247.822436 237.603947,247.099947 238.377636,246.861013 C246.307947,244.699236 253.197191,240.967324 255.797013,231.586347 Z M193.219236,231.586347 C182.171413,231.233636 172.682347,223.775502 170.992747,213.194169 C168.916302,201.287324 177.751147,190.222436 190.619413,188.30528 C203.356836,186.621369 217.391324,192.992924 220.770524,209.462258 C224.01888,233.270258 205.43328,252.86848 177.495147,255.758436 C176.45408,255.877902 176.323236,255.27488 176.323236,255.27488 L175.151324,247.822436 C175.151324,247.822436 175.026169,247.099947 175.799858,246.861013 C183.730169,244.699236 190.619413,240.967324 193.219236,231.586347 Z M91.2749156,25.0307556 C102.322738,25.3834667 111.811804,32.8416 113.501404,43.4229333 C115.577849,55.3297778 106.743004,66.3946667 93.8747378,68.3118222 C81.1373156,69.9957333 67.1028267,63.6241778 63.7236267,47.1548444 C60.4752711,23.3468444 79.0608711,3.74862222 106.999004,0.858666667 C108.040071,0.7392 108.170916,1.34222222 108.170916,1.34222222 L109.342827,8.79466667 C109.342827,8.79466667 109.467982,9.51715556 108.694293,9.75608889 C100.763982,11.9178667 93.8747378,15.6497778 91.2749156,25.0307556 Z M28.6971378,25.0307556 C39.74496,25.3834667 49.2340267,32.8416 50.9236267,43.4229333 C53.0000711,55.3297778 44.1652267,66.3946667 31.29696,68.3118222 C18.5595378,69.9957333 4.52504889,63.6241778 1.14584889,47.1548444 C-2.10250667,23.3468444 16.4830933,3.74862222 44.4212267,0.858666667 C45.4622933,0.7392 45.5931378,1.34222222 45.5931378,1.34222222 L46.7650489,8.79466667 C46.7650489,8.79466667 46.8902044,9.51715556 46.1165156,9.75608889 C38.1862044,11.9178667 31.29696,15.6497778 28.6971378,25.0307556 Z"></path>
</svg>