<svg xmlns="http://www.w3.org/2000/svg" viewBox="0 0 50 50">
    <path fill="#59B4D9" d="M24.7 50h.3c10.4 0 18.8-3 18.8-6.8V6.9H24.7V50z"/>
    <path fill="#3999C6" d="M6.2 6.8v36.3c0 3.8 8.4 6.8 18.8 6.8V6.8H6.2z"/>
    <path fill="#FFF" d="M43.8 6.8c0 3.8-8.4 6.8-18.8 6.8s-18.8-3-18.8-6.8S14.6 0 25 0s18.8 3 18.8 6.8"/>
    <path fill="#7FBA00" d="M39.9 6.4c0 2.5-6.7 4.5-14.9 4.5s-14.9-2-14.9-4.5S16.8 1.9 25 1.9s14.9 2 14.9 4.5"/>
    <path fill="#B8D432" d="M36.8 9.2c2-.8 3.1-1.8 3.1-2.8 0-2.5-6.7-4.5-14.9-4.5s-14.9 2-14.9 4.5c0 1 1.1 2 3.1 2.8 2.8-1 7-1.8 11.8-1.8s9 .8 11.8 1.8"/>
</svg>
