<svg xmlns="http://www.w3.org/2000/svg" viewBox="0 0 114 116">
    <path d="M106.547 87c1.466 1.45 3.91 1.45 5.376 0 1.466-1.45 1.466-3.867 0-5.317l-17.595-17.4c-.977-.966-2.444-.966-3.421 0l-1.955 1.934c-.978.966-.978 2.416 0 3.383L106.547 87z" fill="#303030"/>
    <path opacity=".1" d="M89.93 64.767L112.411 87c1.466-1.45 1.466-3.867 0-5.317l-17.595-17.4c-.978-.966-2.444-.966-3.422 0l-1.466.484z" fill="#303030"/>
    <path d="M1.467 1.933h73.312v23.2S62.56 32.383 62.07 43.017c0 9.183 4.888 17.4 13.196 21.266v17.884l-.488 31.416-72.823-.966-.49-110.684z" fill="#303030"/>
    <path d="M19.061 32.867h48.386v-4.834H19.06v4.834zm0 19.333h48.386v-4.833H19.06V52.2zm0 19.333h48.386V66.7H19.06v4.833z" fill="#1A1A1F"/>
    <path d="M72.823 63.8v47.367H4.887V4.833h67.936v20.784l4.888-1.45V0H0v116h77.71V64.767l-4.887-.967z" fill="#1A1A1F"/>
    <path d="M69.401 64.767c11.337 0 20.528-9.089 20.528-20.3 0-11.212-9.19-20.3-20.528-20.3-11.337 0-20.527 9.088-20.527 20.3 0 11.211 9.19 20.3 20.527 20.3z" fill="#303030"/>
    <path d="M46.43 44.467c0 12.566 10.264 22.716 22.482 22.716 5.377 0 11.242-1.933 15.152-5.8l3.42 3.384c-.977.966-.977 2.9 0 3.866l19.551 19.334c1.466 1.45 4.398 1.45 5.865 0 1.466-1.45 1.466-4.35 0-5.8L93.35 62.833c-.978-.966-2.933-.966-3.91 0l-3.421-3.383c8.308-9.183 7.33-23.683-1.955-31.9-9.287-8.217-23.949-7.25-32.258 1.933-3.42 3.867-5.376 9.184-5.376 14.984zM89.93 66.7l1.954-1.933 19.55 19.333c.489.483.489 1.45 0 1.933-.488.484-1.466.484-1.955 0L89.928 66.7zM48.874 44.467c0-11.117 8.797-19.817 20.038-19.817 11.242 0 20.04 8.7 20.04 19.817 0 11.116-8.798 19.816-20.04 19.816C58.16 63.8 49.362 55.1 48.874 44.467z" fill="#1A1A1F"/>
</svg>
