<svg xmlns="http://www.w3.org/2000/svg" viewBox="0 0 216 140">
    <path fill-rule="evenodd" clip-rule="evenodd" d="M94.02 135.242h1.891v-5.946h-1.892v5.946zm-8.62-8.85a.409.409 0 01.02-.436l3.75-5.599h11.81l3.748 5.599a.41.41 0 01.022.436.41.41 0 01-.375.223h-18.6a.41.41 0 01-.375-.223zm6.306-15.598h6.738l4.395 7.019-.072.13H87.382l-.073-.13 4.397-7.019zm3.368-10.919l4.65 8.505h-9.298l4.648-8.505zm4.465-42.117h53.317V47.06H99.539v10.698zm2.579 49.963l-1.85-3.384h52.588v7.12H101.71l-.544-.87a2.05 2.05 0 00.95-2.866zm-2.579-39.224h53.317v-7.118H99.539v7.118zm0 10.74h53.317V72.12H99.539v7.118zm0 10.74h53.317v-7.119H99.539v7.119zm0 10.739h53.317v-7.118H99.539v7.118zm7.2 23.898l-2.998-4.478a2.481 2.481 0 001.217-1.068 2.498 2.498 0 00-.067-2.535l-.912-1.455h48.877v19.782H99.539v-5.831h4.836a2.842 2.842 0 002.508-1.5 2.829 2.829 0 00-.144-2.915zM143.324 8.177H151V3.621h28.424v4.556h7.676v127.065h-30.616V43.438h-13.16V8.178zm47.404 127.065V4.556h-7.675V0h-35.681v4.556h-7.677v38.882H95.911v54.115a2.304 2.304 0 00-.836-.174h-.001c-.858 0-1.646.466-2.056 1.219l-4.987 9.122a2.05 2.05 0 00.95 2.867l-3.723 5.946a2.5 2.5 0 00-.066 2.536c.274.495.712.853 1.215 1.067l-2.998 4.478a2.84 2.84 0 002.366 4.415H91.6v6.213H67.607V140h148.391v-4.758h-25.27zM9.464 70.56V59.181c0-5.082 2.231-5.823 4.415-5.877a1.813 1.813 0 001.768-1.856c-.026-1-.874-1.769-1.86-1.765-2.97.076-7.951 1.409-7.951 9.498v11.377c0 6.119-2.61 7.661-4.575 8.287A1.813 1.813 0 000 80.571v.156a1.81 1.81 0 001.292 1.733c1.95.587 4.544 2.075 4.544 8.205v11.223c0 3.299.568 5.664 1.742 7.24 1.273 1.69 3.363 2.581 6.213 2.645h.043c.982 0 1.79-.783 1.813-1.768.023-1-.77-1.829-1.773-1.853-1.683-.037-2.823-.44-3.388-1.19-.467-.625-1.022-2.013-1.022-5.074V90.665c0-5.333-1.776-8.346-3.932-10.04 2.154-1.723 3.932-4.755 3.932-10.066z"/>
    <path fill-rule="evenodd" clip-rule="evenodd" d="M73.506 90.665v11.224c0 3.027-.571 4.409-1.054 5.04-.588.773-1.732 1.186-3.4 1.224a1.811 1.811 0 00.043 3.62h.042c2.828-.065 4.917-.959 6.205-2.654 1.205-1.58 1.792-3.945 1.792-7.23V90.665c0-6.134 2.571-7.62 4.506-8.206a1.81 1.81 0 001.288-1.732v-.156a1.81 1.81 0 00-1.259-1.723c-1.946-.626-4.535-2.167-4.535-8.288V59.182c0-8.09-5.008-9.423-7.993-9.498-.99-.004-1.834.767-1.86 1.766a1.812 1.812 0 001.768 1.855c2.203.055 4.457.796 4.457 5.877V70.56c0 5.312 1.767 8.342 3.907 10.066-2.142 1.693-3.907 4.707-3.907 10.04zM49.69 104.202h11.88V92.347H49.69v11.855zm-28.156 0h11.878V92.347H21.534v11.855zm13.992-36.29h11.88V56.057h-11.88V67.91zm27.857 20.814h-6.025v-4.498c0-3.44-2.805-6.241-6.253-6.241h-3.029a4.797 4.797 0 01-4.797-4.787v-1.667h5.94a1.812 1.812 0 001.813-1.81V54.248c0-1-.811-1.81-1.814-1.81H33.712a1.812 1.812 0 00-1.814 1.81v15.475c0 1 .811 1.81 1.814 1.81h5.938V73.2a4.797 4.797 0 01-4.796 4.787h-3.029c-3.448 0-6.253 2.8-6.253 6.241v4.498h-5.854a1.813 1.813 0 00-1.814 1.81v15.476c0 1 .813 1.81 1.814 1.81h15.508a1.813 1.813 0 001.814-1.81V90.537c0-1-.813-1.81-1.814-1.81h-6.025v-4.499a2.625 2.625 0 012.624-2.62h3.029c2.68 0 5.066-1.26 6.61-3.213a8.416 8.416 0 006.613 3.213h3.028a2.625 2.625 0 012.625 2.62v4.498h-5.854a1.813 1.813 0 00-1.815 1.81v15.476c0 1 .813 1.81 1.815 1.81h15.507a1.812 1.812 0 001.814-1.81V90.537c0-1-.811-1.81-1.814-1.81z"/>
</svg>
