<svg xmlns="http://www.w3.org/2000/svg" viewBox="0 0 150 40">
    <path d="M44 18.329v5.021h16.296l-5.679 5.774 3.457 3.515 11.605-11.8L58.074 9.04l-3.457 3.515 5.68 5.774H44z" fill="#CDCDD0"/>
    <path fill-rule="evenodd" clip-rule="evenodd" d="M85.315 18.667c0-4.534 3.443-8 7.946-8 4.502 0 7.945 3.733 7.945 8 0 2.666-1.06 4.8-2.913 6.133a6.368 6.368 0 01-4.503 1.867h-1.058c-1.589 0-3.178-.8-4.502-1.867-1.854-1.6-2.914-3.733-2.914-6.133zM95.115 40H82.667c0-5.867 4.767-10.667 10.594-10.667 1.589 0 2.913.267 4.237 1.067-1.589 2.666-2.383 6.133-2.383 9.6zm44.23-13.333h-.53c-1.589 0-3.178-.8-4.237-1.867a6.455 6.455 0 01-1.854-4.533c0-3.734 2.913-6.667 6.621-6.667 3.708 0 6.621 2.933 6.621 6.667 0 1.6-.794 3.2-1.854 4.533-1.059 1.067-2.648 1.867-4.237 1.867h-.53zm-4.238 3.466c1.325-.533 2.649-.8 4.238-.8 5.827 0 10.594 4.8 10.594 10.667h-21.188c0-2.4.795-4.534 2.119-6.4v-.001c.53-.8 1.06-1.6 1.854-2.133.794-.533 1.589-1.066 2.383-1.333z" fill="#50E6FF"/>
    <path d="M104.65 29.067c-.53.533-1.325 1.333-1.59 2.133-.53.8-1.059 1.6-1.324 2.4-.794 1.867-1.324 4-1.324 6.4h23.042c0-4.267 1.59-8 4.503-10.933-2.914-3.2-7.151-5.067-11.654-5.067-4.502 0-8.74 1.867-11.653 5.067zm5.561-9.6c1.59 1.066 3.444 1.6 5.298 1.866h1.589c1.854-.266 3.708-.8 5.297-1.866 2.648-1.867 4.502-5.067 4.502-8.8 0-4.267-2.648-8-6.091-9.6C119.48.533 117.892 0 116.303 0s-2.913.267-4.502 1.067c-3.708 1.6-6.092 5.333-6.092 9.6 0 3.733 1.854 6.933 4.502 8.8z" fill="#0078D4"/>
    <path d="M16.067 21.423c5.858 0 10.711-4.854 10.711-10.712 0-4.351-2.51-8.033-6.36-9.707C19.248.334 17.742 0 16.068 0s-3.013.335-4.351 1.004c-3.682 1.674-6.36 5.356-6.36 9.707 0 5.858 4.853 10.712 10.711 10.712zm0 2.51C7.197 23.933 0 31.13 0 40h32.134c0-8.87-7.197-16.067-16.067-16.067z" fill="#243A5E"/>
</svg>
