<svg xmlns="http://www.w3.org/2000/svg" viewBox="0 0 48 23">
    <path fill-rule="evenodd" clip-rule="evenodd" d="M44.728 3.138C41.926.298 39.114-.046 36.493.012c-4.564.096-8.227 2.343-11.877 7.283-.481.652-.96 1.347-1.423 2.067a42.564 42.564 0 01-1.865 2.674c-3.639 4.796-7.259 7.127-11.067 7.127-3.925 0-7.01-3.108-7.177-7.231-.11-2.725.738-5.226 2.328-6.862 1.361-1.402 3.082-2.117 4.963-2.093 2.248.027 3.813.545 5.401 1.789.29.236.555.439.808.635.584.45 1.142.88 1.756 1.493.569-.786 1.179-1.627 1.746-2.406-1.622-1.663-2.884-2.593-4-3.349C14.536.373 12.907 0 11.016 0 5.847 0 .24 2.912.007 11.084c-.097 3.471.816 6.197 2.717 8.101 1.956 1.959 4.93 2.993 8.369 2.883 2.896-.077 7.741-2.044 11.873-7.332.505-.646.987-1.326 1.434-2.019a42.64 42.64 0 011.864-2.675c3.639-4.796 7.259-7.127 11.067-7.127 3.976 0 7.218 3.161 7.381 7.195.124 3.049-.792 5.515-2.578 6.941-1.29 1.03-2.922 2.099-4.916 2.05-3.982-.046-6.657-2.439-10.526-6.366l-1.847 2.661c4.338 4.685 8.379 7.038 11.981 6.974 3.285-.052 10.924-1.267 10.924-11.375 0-3.136-1.044-5.853-3.022-7.857z"/>
    <path fill-rule="evenodd" clip-rule="evenodd" d="M21.52 8.805L16.478 7.56a.193.193 0 01-.081-.333l4.489-3.92a.193.193 0 01.319.126l.554 5.164a.194.194 0 01-.239.208z"/>
</svg>
