<svg xmlns="http://www.w3.org/2000/svg" viewBox="0 0 73 73">
    <path d="M10.497 12.884A35.533 35.533 0 001.354 34.89h7.628a28.112 28.112 0 016.888-16.645l-5.373-5.36z" fill="#50E6FF"/>
    <path d="M13.19 63.361c5.9 5.273 13.552 8.63 21.993 9.043v-7.477c-6.362-.426-12.136-2.969-16.645-6.914l-5.348 5.348zM1.354 38.648a35.508 35.508 0 009.118 22.005l5.36-5.36A28.21 28.21 0 018.97 38.648H1.354z" fill="#0078D4"/>
    <path d="M63.488 13.01l-5.197 5.198a27.993 27.993 0 016.913 16.683h7.302a35.54 35.54 0 00-9.018-21.88zM38.94 1.192v7.452a28.125 28.125 0 0116.67 6.863l5.198-5.197C54.946 5.024 47.33 1.655 38.94 1.192zm-3.757-.015c-8.441.413-16.081 3.758-21.98 9.018l5.348 5.348a28.144 28.144 0 0116.62-6.901V1.177h.012zm20.803 38.185c.013-.087.038-.175.05-.25.1-.526.15-1.065.15-1.616 0-4.734-3.832-8.579-8.566-8.579-.664 0-1.302.075-1.916.225a11.002 11.002 0 00-9.318-5.122c-6.087 0-11.022 4.935-11.022 11.034 0 .15 0 .3.013.45a5.514 5.514 0 00-1.779-.287 5.425 5.425 0 00-5.423 5.423c0 2.818 2.154 5.123 4.885 5.398l24.548.05c3.218 0 6.024-1.778 7.502-4.396.037-.075.087-.15.125-.225.225-.476.551-1.19.751-2.105z" fill="#50E6FF"/>
    <path d="M72.556 50.912v-.05l-31.512.05v21.442h31.512V50.912zm-19.664 16.42v-11.06l9.569 5.524-9.569 5.535z" fill="#0078D4"/>
    <path d="M52.893 67.332l9.568-5.536-9.568-5.523v11.059z" fill="#50E6FF"/>
    <path d="M72.519 38.648h-7.302a27.897 27.897 0 01-1.79 8.203l7.69-.012a35.364 35.364 0 001.402-8.191z" fill="#0078D4"/>
</svg>
