<svg xmlns="http://www.w3.org/2000/svg" viewBox="0 0 193 193">
    <path fill-rule="evenodd" clip-rule="evenodd" d="M79.333 126.039H45.442c-16.755 0-30.464-13.877-30.464-31.224S27.925 63.59 45.442 63.59c3.046 0 6.474.77 10.282 1.156l6.473 1.928 1.904-6.554c6.093-20.045 25.133-32.38 46.839-32.38 26.275 0 46.458 20.43 46.458 47.029 0 4.24-.762 8.48-1.905 12.721l-2.665 9.638 10.282-1.157h1.904c7.616 0 13.708 6.553 13.708 13.878 0 7.324-5.331 12.721-11.804 13.877h-33.892c-1.142-9.637-6.093-18.118-12.566-24.671-8.378-8.48-19.802-13.492-31.607-13.492-8.377 0-16.755 2.313-23.229 6.553l7.236 11.565c5.33-3.084 10.662-4.24 16.755-4.24 8.378 0 16.755 3.083 22.086 9.637 6.093 6.168 9.52 13.877 9.52 22.358s-3.046 16.962-9.52 22.359c-6.092 6.553-13.708 9.637-22.086 9.637-6.093 0-11.805-1.927-16.755-5.397L65.624 169.6c7.236 4.24 15.613 7.324 23.23 7.324 11.804 0 23.228-4.24 31.606-13.106 7.235-7.325 11.424-16.962 12.566-26.985h35.415c13.709-1.156 23.99-13.107 23.99-27.755 0-11.565-10.662-22.359-23.229-24.672.762-2.313.762-3.47.762-7.324 0-33.923-23.61-60.908-61.309-60.908-23.99 0-45.315 13.878-54.074 36.236-3.046 0-5.331-1.156-8.758-1.156-24.752-.385-44.554 18.89-44.554 43.56 0 24.287 19.802 43.561 43.411 43.561H82l-2.666-12.336z" fill="#59B3D8"/>
    <path fill-rule="evenodd" clip-rule="evenodd" d="M88.092 109.464c11.805 0 21.325 9.638 21.325 21.588 0 11.95-9.52 21.587-21.325 21.587-11.808 0-21.328-9.637-21.328-21.587s9.52-21.588 21.328-21.588z" fill="#68217A"/>
</svg>
