<svg xmlns="http://www.w3.org/2000/svg" viewBox="0 0 50 50">
    <path fill="#FFF" d="M22.83 4.37a20.662 20.662 0 00-13.953 7.579 20.672 20.672 0 00-4.508 15.227 20.668 20.668 0 007.581 13.949c4.134 3.346 9.52 5.109 15.222 4.509 5.705-.601 10.606-3.451 13.955-7.581 3.34-4.132 5.106-9.519 4.505-15.225-.608-5.751-3.528-10.669-7.724-14.064-3.531-2.859-8.032-4.51-12.856-4.51-.733 0-1.474.038-2.222.116"/>
    <path opacity=".4" fill="#7FBA00" d="M16.456 19.472l-5.048-4.086a16.628 16.628 0 00-2.991 10.232l6.454-.679c0-1.89.521-3.788 1.585-5.467"/>
    <path opacity=".8" fill="#7FBA00" d="M30.575 16.279l4.087-5.049a16.638 16.638 0 00-10.238-2.982l.679 6.453a10.206 10.206 0 015.472 1.578"/>
    <path opacity=".6" fill="#7FBA00" d="M22.853 14.956l-.68-6.46a16.65 16.65 0 00-9.348 5.123l5.044 4.084a10.188 10.188 0 014.984-2.747"/>
    <path opacity=".25" fill="#7FBA00" d="M15.121 27.189l-6.46.682a16.639 16.639 0 005.121 9.357l4.083-5.044a10.191 10.191 0 01-2.744-4.995"/>
    <path fill="#A0A1A2" d="M49.859 22.383c-.728-6.937-4.271-12.883-9.273-16.928-.971-.786-2.018-1.472-3.1-2.1l-1.963 3.777a19.82 19.82 0 012.385 1.632c4.196 3.395 7.116 8.312 7.723 14.063.602 5.706-1.165 11.093-4.504 15.226-3.349 4.131-8.25 6.98-13.955 7.581-3.82.4-7.489-.277-10.744-1.761l-1.961 3.774c3.976 1.851 8.479 2.708 13.151 2.214a24.914 24.914 0 0016.814-9.133 24.908 24.908 0 005.427-18.345"/>
    <path fill="#A0A1A2" d="M11.951 41.125A20.66 20.66 0 014.37 27.177a20.664 20.664 0 014.508-15.228 20.656 20.656 0 0113.951-7.578c4.613-.484 9.016.574 12.694 2.76l1.963-3.776A24.829 24.829 0 0022.381.141 24.944 24.944 0 005.569 9.272l-.007.009A24.94 24.94 0 00.139 27.619a24.935 24.935 0 009.135 16.815c1.582 1.282 3.335 2.346 5.194 3.212l1.961-3.774a20.814 20.814 0 01-4.478-2.747"/>
    <path opacity=".2" fill="#FFF" d="M11.951 41.125A20.66 20.66 0 014.37 27.177a20.664 20.664 0 014.508-15.228 20.656 20.656 0 0113.951-7.578c4.613-.484 9.016.574 12.694 2.76l1.963-3.776A24.829 24.829 0 0022.381.141 24.944 24.944 0 005.569 9.272l-.007.009A24.94 24.94 0 00.139 27.619a24.935 24.935 0 009.135 16.815c1.582 1.282 3.335 2.346 5.194 3.212l1.961-3.774a20.814 20.814 0 01-4.478-2.747"/>
    <path fill="#7FBA00" d="M36.43 12.647l-4.084 5.045a10.16 10.16 0 012.264 3.437h6.775a16.623 16.623 0 00-4.955-8.482z"/>
    <path fill="#DD5900" d="M23.082 27.041a2.92 2.92 0 01-.018-4.131 2.919 2.919 0 012.079-.866c.743 0 1.487.248 2.057.813.007.007.01-.008.019 0h14.286l.621-.005.004.005a2.13 2.13 0 012.133 2.113 2.128 2.128 0 01-2.121 2.137H27.057c-.55.481-1.235.779-1.923.779-.74 0-1.482-.28-2.052-.845"/>
    <path fill="#FF8C00" d="M42.13 22.875l-.004-.005-.621.005H27.219c-.009-.008-.012.007-.019 0-.57-.565-1.314-.813-2.057-.813a2.919 2.919 0 00-2.925 2.921h22.044a2.129 2.129 0 00-2.132-2.108z"/>
</svg>
