<svg xmlns="http://www.w3.org/2000/svg" viewBox="0 0 21 21">
                                
                            
    <path d="M11,21A9.78,9.78,0,0,1,1,11,9.78,9.78,0,0,1,11,1,9.78,9.78,0,0,1,21,11,9.78,9.78,0,0,1,11,21Z" transform="translate(-0.5 -0.5)" style="fill:#83bb41"></path>
    <path d="M11,1.5A9.292,9.292,0,0,1,20.5,11,9.292,9.292,0,0,1,11,20.5,9.292,9.292,0,0,1,1.5,11,9.292,9.292,0,0,1,11,1.5m0-1A10.253,10.253,0,0,0,.5,11,10.253,10.253,0,0,0,11,21.5,10.253,10.253,0,0,0,21.5,11,10.253,10.253,0,0,0,11,.5Z" transform="translate(-0.5 -0.5)" style="fill:#6abd45"></path>
    <polygon points="4.5 10.5 4.5 10.5 6 9 6 9 6 9 9 12 15 6 15 6 15 6 16.5 7.5 16.5 7.5 16.5 7.5 9 15 4.5 10.5" style="fill:#fff"></polygon>
</svg>