<?xml version="1.0" encoding="UTF-8" standalone="no"?>
<svg
   xmlns:dc="http://purl.org/dc/elements/1.1/"
   xmlns:cc="http://creativecommons.org/ns#"
   xmlns:rdf="http://www.w3.org/1999/02/22-rdf-syntax-ns#"
   xmlns:svg="http://www.w3.org/2000/svg"
   xmlns="http://www.w3.org/2000/svg"
   xmlns:sodipodi="http://sodipodi.sourceforge.net/DTD/sodipodi-0.dtd"
   xmlns:inkscape="http://www.inkscape.org/namespaces/inkscape"
   version="1.1"
   id="svg4546"
   sodipodi:docname="svg-1.svg"
   width="98"
   height="21"
   inkscape:version="0.92.4 (5da689c313, 2019-01-14)">
  <metadata
     id="metadata4552">
    <rdf:RDF>
      <cc:Work
         rdf:about="">
        <dc:format>image/svg+xml</dc:format>
        <dc:type
           rdf:resource="http://purl.org/dc/dcmitype/StillImage" />
        <dc:title></dc:title>
      </cc:Work>
    </rdf:RDF>
  </metadata>
  <defs
     id="defs4550" />
  <sodipodi:namedview
     pagecolor="#ffffff"
     bordercolor="#666666"
     borderopacity="1"
     objecttolerance="10"
     gridtolerance="10"
     guidetolerance="10"
     inkscape:pageopacity="0"
     inkscape:pageshadow="2"
     inkscape:window-width="1788"
     inkscape:window-height="870"
     id="namedview4548"
     showgrid="false"
     fit-margin-top="0"
     fit-margin-left="0"
     fit-margin-right="0"
     fit-margin-bottom="0"
     inkscape:zoom="7.98"
     inkscape:cx="50"
     inkscape:cy="-9.7338468"
     inkscape:window-x="914"
     inkscape:window-y="300"
     inkscape:window-maximized="0"
     inkscape:current-layer="svg4546" />
  <path
     d="M 40.736,4.2 V 16.8 H 38.559 V 6.924 H 38.524 L 34.633,16.8 H 33.19 L 29.203,6.924 H 29.177 V 16.8 H 27.166 V 4.2 h 3.121 l 3.6,9.341 h 0.052 l 3.8,-9.341 h 2.99 z m 1.821,0.958 a 1.16,1.16 0 0 1 0.38,-0.883 1.279,1.279 0 0 1 0.9,-0.356 1.262,1.262 0 0 1 0.927,0.365 1.188,1.188 0 0 1 0.367,0.874 1.143,1.143 0 0 1 -0.376,0.87 1.3,1.3 0 0 1 -0.918,0.351 1.27,1.27 0 0 1 -0.914,-0.356 1.153,1.153 0 0 1 -0.366,-0.866 z m 2.335,2.61 V 16.8 H 42.776 V 7.767 h 2.116 z m 6.418,7.486 a 2.91,2.91 0 0 0 1.04,-0.22 4.369,4.369 0 0 0 1.049,-0.58 v 1.977 a 4.225,4.225 0 0 1 -1.15,0.439 6.235,6.235 0 0 1 -1.412,0.149 4.327,4.327 0 0 1 -3.226,-1.261 4.4,4.4 0 0 1 -1.242,-3.22 5.167,5.167 0 0 1 1.268,-3.59 4.582,4.582 0 0 1 3.594,-1.41 4.89,4.89 0 0 1 1.2,0.154 4,4 0 0 1 0.966,0.356 v 2.039 a 4.321,4.321 0 0 0 -1,-0.558 2.878,2.878 0 0 0 -1.045,-0.2 2.645,2.645 0 0 0 -2.02,0.817 3.086,3.086 0 0 0 -0.77,2.205 2.945,2.945 0 0 0 0.739,2.135 2.66,2.66 0 0 0 2.009,0.767 z m 8.114,-7.636 a 2.669,2.669 0 0 1 0.455,0.035 1.892,1.892 0 0 1 0.341,0.088 V 9.894 A 1.843,1.843 0 0 0 59.735,9.661 2.393,2.393 0 0 0 58.961,9.551 1.64,1.64 0 0 0 57.645,10.21 3.177,3.177 0 0 0 57.107,12.24 V 16.8 H 54.99 V 7.767 h 2.116 V 9.19 h 0.035 a 2.492,2.492 0 0 1 0.874,-1.155 2.364,2.364 0 0 1 1.408,-0.417 z m 0.91,4.8 a 4.906,4.906 0 0 1 1.259,-3.55 4.624,4.624 0 0 1 3.5,-1.309 4.3,4.3 0 0 1 3.292,1.261 5.486,5.486 0 0 1 -0.074,6.9 4.548,4.548 0 0 1 -3.428,1.3 4.47,4.47 0 0 1 -3.318,-1.234 4.566,4.566 0 0 1 -1.231,-3.371 z m 2.2,-0.07 a 3.238,3.238 0 0 0 0.638,2.162 2.271,2.271 0 0 0 1.827,0.747 2.126,2.126 0 0 0 1.757,-0.747 3.466,3.466 0 0 0 0.6,-2.214 3.345,3.345 0 0 0 -0.625,-2.2 2.166,2.166 0 0 0 -1.753,-0.742 2.212,2.212 0 0 0 -1.806,0.778 3.4,3.4 0 0 0 -0.635,2.213 z m 10.177,-2.205 a 0.913,0.913 0 0 0 0.289,0.716 4.929,4.929 0 0 0 1.277,0.654 4.325,4.325 0 0 1 1.779,1.147 2.385,2.385 0 0 1 0.511,1.542 2.483,2.483 0 0 1 -0.975,2.047 4.127,4.127 0 0 1 -2.636,0.773 6.315,6.315 0 0 1 -1.237,-0.136 5.492,5.492 0 0 1 -1.15,-0.347 v -2.091 a 5.2,5.2 0 0 0 1.242,0.641 3.622,3.622 0 0 0 1.207,0.237 2.141,2.141 0 0 0 1.058,-0.2 0.723,0.723 0 0 0 0.341,-0.677 0.941,0.941 0 0 0 -0.354,-0.743 5.24,5.24 0 0 0 -1.342,-0.7 4.145,4.145 0 0 1 -1.661,-1.107 2.433,2.433 0 0 1 -0.49,-1.564 2.476,2.476 0 0 1 0.966,-2.008 3.842,3.842 0 0 1 2.505,-0.786 6.034,6.034 0 0 1 1.058,0.105 4.661,4.661 0 0 1 0.979,0.273 V 9.94 a 4.51,4.51 0 0 0 -0.979,-0.483 3.253,3.253 0 0 0 -1.11,-0.2 1.612,1.612 0 0 0 -0.94,0.237 0.753,0.753 0 0 0 -0.334,0.646 z m 4.765,2.276 a 4.906,4.906 0 0 1 1.259,-3.55 4.624,4.624 0 0 1 3.5,-1.309 4.3,4.3 0 0 1 3.292,1.261 5.486,5.486 0 0 1 -0.074,6.9 4.548,4.548 0 0 1 -3.428,1.3 4.47,4.47 0 0 1 -3.318,-1.234 4.566,4.566 0 0 1 -1.227,-3.372 z m 2.2,-0.07 a 3.238,3.238 0 0 0 0.638,2.162 2.271,2.271 0 0 0 1.827,0.747 2.126,2.126 0 0 0 1.757,-0.747 3.466,3.466 0 0 0 0.6,-2.214 3.345,3.345 0 0 0 -0.625,-2.2 2.166,2.166 0 0 0 -1.753,-0.742 2.212,2.212 0 0 0 -1.806,0.778 3.4,3.4 0 0 0 -0.631,2.212 z M 93.726,9.511 H 90.575 V 16.8 H 88.433 V 9.507 h -1.5 v -1.74 h 1.5 V 6.51 a 3.134,3.134 0 0 1 0.922,-2.333 3.226,3.226 0 0 1 2.365,-0.91 5.224,5.224 0 0 1 0.682,0.04 2.694,2.694 0 0 1 0.525,0.119 V 5.263 A 2.184,2.184 0 0 0 92.56,5.114 1.9,1.9 0 0 0 91.96,5.026 1.275,1.275 0 0 0 90.937,5.443 1.849,1.849 0 0 0 90.579,6.677 v 1.09 h 3.151 v -2.03 l 2.125,-0.65 v 2.68 H 98 v 1.74 h -2.142 v 4.226 a 1.788,1.788 0 0 0 0.3,1.177 1.2,1.2 0 0 0 0.949,0.343 1.408,1.408 0 0 0 0.442,-0.088 2.068,2.068 0 0 0 0.45,-0.211 v 1.757 a 2.48,2.48 0 0 1 -0.669,0.211 4.543,4.543 0 0 1 -0.922,0.1 2.616,2.616 0 0 1 -2.007,-0.716 3.061,3.061 0 0 1 -0.669,-2.157 V 9.51 Z"
     id="path4536"
     inkscape:connector-curvature="0"
     style="fill:#ffffff" />
  <path
     d="M 0,0 H 9.932 V 9.981 H 0 Z"
     id="path4538"
     inkscape:connector-curvature="0"
     style="fill:#f16623" />
  <path
     d="m 10.965,0 h 9.932 v 9.981 h -9.932 z"
     id="path4540"
     inkscape:connector-curvature="0"
     style="fill:#8dc640" />
  <path
     d="M 0,11.019 H 9.932 V 21 H 0 Z"
     id="path4542"
     inkscape:connector-curvature="0"
     style="fill:#2babe2" />
  <path
     d="m 10.965,11.019 h 9.932 V 21 h -9.932 z"
     id="path4544"
     inkscape:connector-curvature="0"
     style="fill:#fdc214" />
</svg>
