<svg xmlns="http://www.w3.org/2000/svg" viewBox="0 0 28.333 19.417">
    <path d="M27.306 3.547v11.729a3.193 3.193 0 01-.269 1.3 3.389 3.389 0 01-1.787 1.78 3.209 3.209 0 01-1.3.269H3.758a3.1 3.1 0 01-1.264-.262A3.3 3.3 0 01.76 16.63a3.1 3.1 0 01-.26-1.263V.2h23.455v3.347zm-1.675 1.676h-1.676v9.215a.837.837 0 01-1.675 0V1.871H2.174v13.5a1.529 1.529 0 00.124.615 1.6 1.6 0 00.845.845 1.529 1.529 0 00.615.124h20.2a1.616 1.616 0 00.655-.131 1.707 1.707 0 00.89-.89 1.631 1.631 0 00.131-.654zm-5.026 0H3.849V3.547H20.6zm-8.378 10.053H3.849V6.859h8.378zM5.525 13.6h5.026V8.535H5.525zM20.6 8.574h-6.7V6.9h6.7zm0 3.351h-6.7v-1.676h6.7zm0 3.352h-6.7V13.6h6.7z" fill="#fff"/>
</svg>
