<svg xmlns="http://www.w3.org/2000/svg" viewBox="0 0 59.032 47.407"><path d="M24.981 22.2a.957.957 0 0 0-.956.958v4.32h1.318l-.362-6.051zM23.551 41.4h2.638v5.084h-2.638zM28.575 17.954v.008l.025-.011-.025.003zM25.139 17.893v-1.222a.7.7 0 0 0-1.391 0v1.222zM18.282 40.434h2.638v6.05h-2.638zM13.025 40.434h2.638v6.05h-2.638zM7.749 40.434h2.638v6.05H7.749zM17.569 31.561a.956.956 0 0 0-1.912 0v6.474h1.911zM22.357 38.035h1.912v-6.474-.062a.957.957 0 0 0-1.913.062zM20.92 31.561v-.062a.957.957 0 1 0-1.913.062v6.474h1.912zM22.587 27.485v-4.32a.956.956 0 0 0-1.912 0v4.32zM22.365 16.671a.7.7 0 1 0-1.4 0v1.222h1.4z" fill="none"/><path d="M29.194 3.244h1v3.082h-.532v1.035h.738a12.327 12.327 0 0 0-4.7 9.691v.839h.9v-1.214a.713.713 0 0 1 .2-.5.671.671 0 0 1 .489-.2v-.005a.644.644 0 0 1 .495.2.682.682 0 0 1 .19.509v1.21h.594v.063h.025l-.025.011v2.329h-3.587v1.141l.362 6.051h2.067v-4.309a.977.977 0 0 1 1.66-.679.949.949 0 0 1 .287.679v4.314h-.782v2.392h-1.919v.72a.957.957 0 0 0-.956.958v6.474h3.413v-6.419a.958.958 0 0 1 .287-.683.977.977 0 0 1 1.66.683v6.418h.405v2.4h-1.319v.033h1.319v6.017h2.676v-6.017h2.6v6.017h2.672v-6.017h2.6v6.017h2.676V40.47h2.671v6.014h2.352v-6.017h2.676v6.017h5.245c.108-1.575.046-3.559.046-6.107h-5.287v-2.332h-6.781V29.9h.958v-2.4h-6.233v-7.186h1.2v-2.4h-1.2v-.237a10.3 10.3 0 0 0-7.924-10.01v-1.32h-.97V3.29h.258v-.415h-.257a1.431 1.431 0 0 0-.924-1.129V.426a.482.482 0 0 0-.958 0v1.287a1.431 1.431 0 0 0-.924 1.129h-.3v.448h.263v3.035h.594zM54.5 42.251h1.7v1.7h-1.7zm-12-10.635a.957.957 0 0 1 .285-.68.977.977 0 0 1 .688-.282.967.967 0 0 1 .972.962v6.5h-1.951zm-11.757-13.7H29.36v-1.239a.712.712 0 0 1 .2-.5.673.673 0 0 1 .489-.2v-.005a.644.644 0 0 1 .5.2.679.679 0 0 1 .19.509zm9.405 12.736a.968.968 0 0 1 .974.962v6.5h-1.953v-6.5a.968.968 0 0 1 .973-.96zM37.71 16.681a.7.7 0 0 1 .69-.705v.005a.7.7 0 0 1 .689.7v1.241H37.71zm-.244 6.5a.948.948 0 0 1 .933-.956.947.947 0 0 1 .932.956v4.314h-1.865zm-.729 7.477a.967.967 0 0 1 .972.962v6.5h-1.946v-6.5a.968.968 0 0 1 .973-.962zm-1.784-13.97a.684.684 0 0 1 .179-.5.648.648 0 0 1 .474-.208l.033.005a.7.7 0 0 1 .692.7v1.244h-1.378zm-.812 6.493a.948.948 0 0 1 .3-.686.976.976 0 0 1 .686-.268h-.013.027-.014a.963.963 0 0 1 .961.954v4.314h-1.947zm.244 8.439v6.5h-1.866v-6.5a.972.972 0 0 1 .28-.683.937.937 0 0 1 .673-.279.955.955 0 0 1 .913.958zM32.2 16.684a.684.684 0 0 1 .179-.5.648.648 0 0 1 .474-.208l.036.005a.677.677 0 0 1 .489.2.716.716 0 0 1 .2.5v1.244H32.2zm-.437 5.536h.034a.964.964 0 0 1 .97.957v4.314h-1.951v-4.314a.964.964 0 0 1 .943-.957zM30.411 3.244h1v3.082h-1z" fill="#969696"/><path fill="#fff" d="M30.194 3.244h-1v3.081h.468v.001h.532V3.244zM30.411 3.244h1v3.082h-1zM30.09 30.654a.973.973 0 0 0-.69.279.958.958 0 0 0-.287.683v6.418h1.947v-6.418a.967.967 0 0 0-.97-.962zM32.8 30.933a.972.972 0 0 0-.28.683v6.5h1.866v-6.5a.955.955 0 0 0-.913-.962.937.937 0 0 0-.673.279zM35.763 31.616v6.5h1.946v-6.5a.967.967 0 0 0-.972-.962.968.968 0 0 0-.974.962zM39.169 38.116h1.947v-6.5a.974.974 0 0 0-1.947 0zM44.44 31.616a.967.967 0 0 0-.972-.962.977.977 0 0 0-.688.282.957.957 0 0 0-.285.68v6.5h1.945zM29.357 23.177a.949.949 0 0 0-.287-.679.977.977 0 0 0-1.66.679v4.306h1.165v.008h.782zM30.816 23.177v4.314h1.947v-4.314a.964.964 0 0 0-.97-.957h-.034a.964.964 0 0 0-.943.957zM36.088 23.177a.963.963 0 0 0-.961-.954.976.976 0 0 0-.686.268.948.948 0 0 0-.3.686v4.314h1.947zM35.114 22.221h.027zM38.392 22.22l.007.001.006-.001h-.013z"/><path d="M39.331 23.177a.933.933 0 1 0-1.865 0v4.314h1.865zM27.791 16.172a.644.644 0 0 0-.495-.2v.005a.671.671 0 0 0-.489.2.713.713 0 0 0-.2.5v1.214h1.378v-1.21a.682.682 0 0 0-.194-.509zM30.047 15.972v.005a.673.673 0 0 0-.489.2.712.712 0 0 0-.2.5v1.241h1.377v-1.237a.679.679 0 0 0-.19-.509.644.644 0 0 0-.498-.2zM33.574 16.681a.716.716 0 0 0-.2-.5.677.677 0 0 0-.489-.2l-.036-.005a.648.648 0 0 0-.474.208.684.684 0 0 0-.179.5v1.241h1.378zM36.331 16.681a.7.7 0 0 0-.692-.7l-.033-.005a.648.648 0 0 0-.474.208.684.684 0 0 0-.179.5v1.241h1.378zM39.089 16.681a.7.7 0 0 0-.689-.7v-.005a.7.7 0 0 0-.69.705v1.241h1.379z" fill="#fff"/><path d="M7.749 40.434h2.638v6.05h2.638v-6.05h2.638v6.05h2.619v-6.05h2.638v6.05h2.631V41.4h2.638v5.084h2.681v-6.017h1.276v-.033h1.319v-2.4H25.7v-6.473a.957.957 0 0 1 .956-.958v-.72h1.919v-2.4h-4.55v-4.32a.957.957 0 0 1 .956-.958v-1.914h3.594v-2.4H25.7v-.839a12.327 12.327 0 0 1 4.7-9.691h-.738V6.326H27.62v1.321a10.3 10.3 0 0 0-7.914 10.021v.238h-1.187v2.4h1.2v7.181h-6.225v2.4h.956v8.152H7.677v2.339l-6.268.06v6.046h6.34zm16.774-24.379a.7.7 0 0 1 .616.616v1.222h-1.39v-1.222a.7.7 0 0 1 .774-.616zm-1.24 14.519a.957.957 0 0 1 .987.926V38.036h-1.913v-6.475a.957.957 0 0 1 .926-.987zm-2.318-13.9a.7.7 0 1 1 1.4 0v1.222h-1.4zm.666 5.538a.956.956 0 0 1 .956.956v4.32h-1.911v-4.32a.956.956 0 0 1 .955-.959zm-2.624 9.352a.957.957 0 1 1 1.913-.064V38.036h-1.913zm-3.35 0a.956.956 0 0 1 1.912 0v6.474h-1.912zM5.6 43.954H3.9v-1.7h1.7z" fill="#6a6a6a"/><path fill="#fff" d="M30.146 40.467H28.87v6.017h2.595v-6.017h-1.319zM34.141 40.467h2.595v6.017h-2.595zM39.408 40.467h2.6v6.017h-2.6zM3.893 42.251h1.703v1.703H3.893zM54.496 42.251h1.703v1.703h-1.703zM49.712 40.467h2.676v6.017h-2.676zM44.684 40.47h2.676v6.014h-2.676z"/><path fill="#7eba02" d="M0 45.484h59.032v1H0z"/></svg>