<svg xmlns="http://www.w3.org/2000/svg" viewBox="0 0 50 50">
    <path fill="#A0A1A2" d="M46.281 23.344c0-.375-.031-.734-.063-1.109L50 20.141a18.722 18.722 0 00-.969-3.625l-4.313.078a16.795 16.795 0 00-1.094-1.938l2.219-3.703a19.217 19.217 0 00-2.641-2.641l-2.188 1.297-.922 1.375-1.984 2.922c2.813 2.188 4.625 5.594 4.625 9.438 0 6.594-5.328 11.938-11.922 11.938-6.578 0-11.922-5.344-11.922-11.938 0-5.906 4.281-10.781 9.906-11.75l.906-3.672-2.094-3.781A18.654 18.654 0 0024 5.109l.063 4.328a13.84 13.84 0 00-1.922 1.094l-3.703-2.219a18.314 18.314 0 00-2.641 2.641l2.219 3.703c-.422.609-.766 1.266-1.094 1.938l-4.328-.078a19.911 19.911 0 00-.953 3.625l3.766 2.094a13.266 13.266 0 000 2.218l-3.766 2.094c.203 1.25.531 2.469.969 3.625l4.313-.078c.328.672.672 1.328 1.094 1.938l-2.219 3.703a19.27 19.27 0 002.641 2.656l3.703-2.234c.609.422 1.266.781 1.922 1.109L24 41.578c1.156.438 2.359.766 3.609.969l2.109-3.781c.359.031.719.063 1.094.063s.75-.031 1.109-.063l2.094 3.781a18.722 18.722 0 003.625-.969l-.078-4.313a15.99 15.99 0 001.938-1.109l3.703 2.234a20.27 20.27 0 002.641-2.656l-2.219-3.703c.406-.609.766-1.266 1.094-1.938l4.313.078c.438-1.156.766-2.375.969-3.625l-3.781-2.094c.03-.374.061-.733.061-1.108z"/>
    <path fill="#7A7A7A" d="M16 39.719V37.86l-.102-.094-1.902-.641-.49-1.281.942-1.953.104-.219-.589-.594-.716-.719-.249.125-1.859.953-1.281-.359L9.047 31H7.203l-.094.094-.641 1.898-1.296.488-2.156-1.037-1.313 1.302.125.245.953 1.857-.531 1.28-2.25.811v1.859l.266.078 1.984.656.531 1.281-1.016 2.156 1.313 1.328.25-.125 1.859-.953 1.281.531L7.281 47H9.14l.078-.266.656-1.984 1.266-.531 2.172 1.016 1.313-1.313-.125-.25-.953-1.859.367-1.297L16 39.719zm-7.828 1.719c-1.438 0-2.609-1.172-2.609-2.609s1.172-2.609 2.609-2.609 2.594 1.172 2.594 2.609-1.157 2.609-2.594 2.609z"/>
    <path fill="#FCD116" d="M33.297 1.688l-.719 2.266-1.234 3.938-.594 1.889-.516 1.656-3.594 11.422c-.078.219.031.391.281.391h3.313c.109 0 .188.031.234.094.078.078.094.188.047.313l-3.422 8.297c-.094.219-.031.266.125.078L38.047 19.75c.156-.188.094-.328-.141-.328l-3.547.016-.656.016c-.234 0-.344-.172-.219-.375l3.375-6.016.797-1.438.922-1.656 1.969-3.484 1.125-2.031a21.541 21.541 0 00-8.375-2.766z"/>
    <path opacity=".3" fill="#FF8C00" d="M39.505 3.367l-7.844 16.07h1.953c-.174-.037-.249-.183-.14-.359l3.375-6.016.797-1.438.922-1.656 1.969-3.484 1.125-2.031a22.191 22.191 0 00-2.157-1.086zM37.92 19.422l-2.189.01-8.093 12.14L38.061 19.75c.156-.187.094-.328-.141-.328z"/>
</svg>
