<svg xmlns="http://www.w3.org/2000/svg" viewBox="0 0 60.744 40.654">
    <path d="M34.44 21.208A4.062 4.062 0 0031 23.383H9.607a6.526 6.526 0 010-13.051h3.081a10.219 10.219 0 01.725-2.175 7.851 7.851 0 01.181-.906A8.47 8.47 0 0121.208 2.9a8.837 8.837 0 017.069 3.625 13.584 13.584 0 012.9-.906A11.894 11.894 0 0021.208 0a11.85 11.85 0 00-10.876 7.432h-.725A9.4 9.4 0 000 16.858a9.671 9.671 0 009.607 9.607h21.57a3.7 3.7 0 007.069-1.45 3.717 3.717 0 00-3.806-3.807z" fill="#fff"/>
    <path d="M44.58 36.25l2.971-2.971-2.971-2.971-1.414-1.414 1.414-1.414 2.99-2.99 1.414-1.414L50.4 24.49l2.971 2.971 2.969-2.971 1.39-1.39a11.7 11.7 0 00-11.33-9.142 13.419 13.419 0 00-11.96-7.433 13.048 13.048 0 00-12.87 10.332 10.533 10.533 0 00-7.432 4.351h15.77a6.05 6.05 0 014.532-2.175 5.8 5.8 0 010 11.6 6.051 6.051 0 01-4.532-2.175h-17.4a10.326 10.326 0 0010.15 8.882h20.831z" fill="#fff"/>
    <path d="M48.984 25.9l-2.99 2.99 4.385 4.385-4.056 4.057a11.744 11.744 0 0011.653-11.205l-.222-.222-4.385 4.385z" fill="#fff"/>
    <path fill="#fff" d="M60.744 28.894l-2.99-2.99-4.385 4.385-4.385-4.385-2.99 2.99 4.385 4.385-4.385 4.385 2.99 2.99 4.385-4.385 4.385 4.385 2.99-2.99-4.385-4.385 4.385-4.385z"/>
</svg>
