<svg xmlns="http://www.w3.org/2000/svg" viewBox="0 0 26 32"><path d="M13.082 16.006h2.84c1.895 0 3.536-.442 4.926-1.327 1.39-.885 2.085-1.532 2.085-1.94V9.437c-2.386 1.475-5.455 2.212-9.207 2.212-3.751 0-6.42-.263-8.007-.79-1.587-.528-2.72-1.002-3.4-1.422v3.302c0 .567.847 1.253 2.54 2.059 1.695.805 4.436 1.208 8.223 1.208zm9.85 3.268v-3.302c-2.325 1.475-5.382 2.212-9.17 2.212-3.787 0-6.472-.26-8.052-.782-1.58-.522-2.711-.999-3.391-1.43v3.302c0 .567.847 1.253 2.54 2.059 1.695.805 4.433 1.208 8.214 1.208 3.782 0 6.37-.442 7.766-1.327s2.094-1.532 2.094-1.94zm-9.85 9.802h2.84c1.895 0 3.536-.442 4.926-1.327 1.39-.885 2.085-1.532 2.085-1.94v-3.302c-2.326 1.475-5.383 2.212-9.17 2.212-3.788 0-6.473-.26-8.053-.782-1.58-.522-2.711-.999-3.391-1.43v3.302c0 .567.847 1.253 2.54 2.059 1.695.805 4.436 1.208 8.223 1.208zM2.32 6.204c0 .158.095.368.286.63.191.272.522.544.993.816.472.272 1.002.51 1.593.715.59.204 1.22.377 1.888.519a24.64 24.64 0 0 0 2.004.34 31.33 31.33 0 0 0 1.915.188c.608.04 1.15.06 1.628.06.477 0 1.02-.02 1.628-.06.609-.04 1.45-.128 2.523-.264 1.074-.136 2.276-.434 3.606-.894s2.088-.893 2.273-1.302c.184-.408.277-.692.277-.85 0-.34-.698-.953-2.094-1.838-1.395-.885-4.136-1.328-8.222-1.328-4.086 0-6.824.443-8.213 1.328-1.39.885-2.085 1.531-2.085 1.94zm4.957-4.97L8.385.996c.74-.159 2.153-.238 4.24-.238 2.089 0 4.418.275 6.989.825 2.57.55 4.148 1.33 4.733 2.34.584 1.01.876 1.77.876 2.28V25.81c0 .885-.363 1.667-1.091 2.348a8.162 8.162 0 0 1-2.514 1.574c-.949.38-1.95.684-3.007.91a25.453 25.453 0 0 1-3.158.477c-1.05.091-2.305.136-3.767.136-1.46 0-3.477-.275-6.048-.825-2.57-.55-4.148-1.33-4.733-2.34-.584-1.01-.877-1.77-.877-2.28V6.204c0-.885.364-1.668 1.092-2.349a8.162 8.162 0 0 1 2.514-1.574c.949-.38 2.162-.729 3.642-1.047z"/></svg>