<svg xmlns="http://www.w3.org/2000/svg" viewBox="0 0 69 70"><path d="M44.517 3.973s-3.362 1.504-5.889 4.218c-2.527 2.715-3.8 6.473-3.8 6.473s-3.842.731-7.246 3.363c-3.404 2.631-5.492 7.12-5.68 10.294-.188 3.174.48 6.578 1.942 8.729 1.462 2.151 2.777 3.675 4.928 5.199 2.151 1.525 2.297 1.399 2.36 1.399.05 0 .02-7.659.006-10.635a1.166 1.166 0 0 0-1.169-1.16l-5.82.013c-.83.002-1.248-.999-.663-1.587l9.398-9.449a1.038 1.038 0 0 1 1.468-.002l9.397 9.38c.63.629.185 1.705-.705 1.705h-5.756c-.644 0-1.166.522-1.166 1.166v23.687c0 .736-.596 1.332-1.332 1.332h-5.599c-.903 0-1.357 1.092-.719 1.732l9.337 9.37a.958.958 0 0 0 1.352.005l9.506-9.39c.646-.638.194-1.738-.713-1.738H42.3a1.332 1.332 0 0 1-1.332-1.332V45.047H52.16c1.461 0 6.984-.814 10.555-4.197 3.571-3.383 6.234-8.018 6.171-13.061-.063-5.043-2.537-8.927-4.51-11.276-1.974-2.35-5.986-4.227-7.79-4.813-1.796-.585-3.894-.763-3.894-.763s-2.005-2.631-3.602-4.103-4.573-2.861-4.573-2.861" fill="#1B70BC"/><path d="M39.005 1.164s-3.08 1.807-5.305 4.312c-2.224 2.506-3.623 6.024-3.623 6.024s-7.016 1.62-11.119 8.01c-4.103 6.388-2.808 12.851-1.4 16.015 1.41 3.163 2.055 3.718 3.593 5.492 1.628 1.88 4.886 3.78 4.886 3.78H14.793c-2.413 0-8.207-1.034-12.06-6.297C-1.12 33.238.102 27.287.508 25.878c.408-1.41 1.817-5.607 6.016-8.363 4.196-2.757 7.171-2.413 7.171-2.413s1.88-7.893 7.58-11.557C26.977-.12 32.46-.997 39.005 1.165" fill="#58B3DD"/></svg>