<svg xmlns="http://www.w3.org/2000/svg" viewBox="0 0 292.306 149.424">
    <path d="M265.186 113.481c-.146 0-.273.034-.42.039a24.107 24.107 0 00-39.543-24.24 31.644 31.644 0 00-62.051 5.37 21.17 21.17 0 00-.788-.127 24.068 24.068 0 00-39.153 10.032 16.447 16.447 0 10-5.375 31.99h38.524a21.369 21.369 0 003.129.232h105.677a11.648 11.648 0 100-23.3z" fill="#cbebf5"/>
    <path d="M78.486 59.439l.184-.033a10.844 10.844 0 00-1.87-21.525h-.109c.061-.69.095-1.386.095-2.09a23.509 23.509 0 00-45.8-7.474 16.067 16.067 0 10-5.252 31.25h52.009l-.011-.038c.229-.018.455-.046.679-.082.025-.001.05-.005.075-.008z" fill="#cbebf5" opacity=".8"/>
    <path fill="#804998" d="M104.215 50.695l-18.568 7.093V27.841l18.568 6.576v16.278z"/>
    <path d="M68.759 32.766v19.667l13.908 5.291V27.841zm1.525 18.243l-.758-.236V34.487l.758-.214.8-.223.847-.238v17.706l-.847-.262zm3.487 1.081l-.952-.294V33.56l.952-.267 1.008-.284 1.078-.3v20.03l-1.079-.339zm4.468 1.382L77 53.089V32.382l1.233-.347 1.316-.372 1.423-.4V54.32l-1.423-.439z" fill="#68217a"/>
    <path fill="#804998" d="M147.678 50.695l-18.57 7.093V27.841l18.57 6.576v16.278z"/>
    <path d="M112.223 32.766v19.667l13.908 5.291V27.841zm1.522 18.243l-.758-.236V34.487l.758-.214.8-.223.847-.238v17.706l-.847-.262zm3.487 1.081l-.952-.294V33.56l.952-.267 1.008-.284 1.078-.3v20.03l-1.078-.339zm4.468 1.38l-1.233-.381V32.382l1.233-.347 1.316-.372 1.423-.4V54.32l-1.423-.439z" fill="#68217a"/>
    <path fill="#804998" d="M104.215 110.412l-18.568 7.091V87.556l18.568 6.578v16.278z"/>
    <path d="M68.759 92.483v19.668l13.908 5.291V87.556zm1.525 18.243l-.758-.236V94.2l.758-.214.8-.223.847-.238v17.706l-.847-.262zm3.487 1.078l-.952-.294V93.277l.952-.27 1.008-.284 1.078-.3v20.03l-1.078-.335zm4.468 1.384L77 112.807V92.1l1.233-.347 1.316-.372 1.423-.4v23.058l-1.423-.439z" fill="#68217a"/>
    <path fill="#804998" d="M147.678 110.412l-18.57 7.091V87.556l18.57 6.578v16.278z"/>
    <path d="M112.223 92.483v19.668l13.908 5.291V87.556zm1.522 18.243l-.758-.236V94.2l.758-.214.8-.223.847-.238v17.706l-.847-.262zm3.487 1.078l-.952-.294V93.277l.952-.27 1.008-.284 1.078-.3v20.03l-1.078-.335zm4.468 1.384l-1.233-.381V92.1l1.233-.347 1.316-.372 1.423-.4v23.058l-1.423-.439z" fill="#68217a"/>
    <path fill="#804998" d="M127.345 80.466l-18.57 7.09V57.613l18.57 6.575v16.278z"/>
    <path d="M91.889 62.537V82.2l13.911 5.3V57.613zm1.523 18.243l-.758-.236V64.258l.758-.214.8-.223.847-.238v17.706l-.847-.262zm3.488 1.08l-.952-.294V63.333l.952-.267 1.008-.284 1.078-.3v20.03l-1.078-.335zm4.468 1.382l-1.233-.381V62.153l1.233-.347 1.316-.372 1.423-.4v23.057l-1.423-.439z" fill="#68217a"/>
    <path fill="#804998" d="M84.107 80.466l-18.57 7.09V57.613l18.57 6.575v16.278z"/>
    <path d="M48.652 62.537V82.2l13.908 5.3V57.613zm1.522 18.243l-.758-.236V64.258l.758-.214.8-.223.847-.238v17.706l-.847-.262zm3.487 1.081l-.952-.294V63.333l.952-.267 1.008-.284 1.081-.308V82.5l-1.078-.335zm4.468 1.382L56.9 82.86V62.153l1.233-.347 1.316-.372 1.423-.4v23.057l-1.423-.439z" fill="#68217a"/>
    <path fill="#804998" d="M170.039 80.466l-18.57 7.09V57.613l18.57 6.575v16.278z"/>
    <path d="M134.583 62.537V82.2l13.909 5.3V57.613zm1.522 18.243l-.758-.236V64.258l.758-.214.8-.223.847-.238v17.706l-.847-.262zm3.487 1.081l-.952-.294V63.333l.952-.267 1.008-.284 1.078-.3v20.03l-1.078-.335zm4.468 1.382l-1.233-.381V62.153l1.233-.347 1.316-.372 1.423-.4v23.057l-1.423-.439z" fill="#68217a"/>
</svg>
