<svg xmlns="http://www.w3.org/2000/svg" viewBox="0 0 156 157">
    <path fill-rule="evenodd" clip-rule="evenodd" d="M148.248 112.316c0 13.839-31.456 25.056-70.25 25.056-38.795 0-70.248-11.217-70.248-25.056V98.81h140.498v13.506z" fill="#7FBA00"/>
    <path fill-rule="evenodd" clip-rule="evenodd" d="M148.248 98.811c0 13.839-31.456 25.056-70.25 25.056-38.795 0-70.248-11.217-70.248-25.056 0-13.84 31.453-25.056 70.248-25.056 38.794 0 70.25 11.222 70.25 25.056z" fill="#B8D432"/>
    <path fill-rule="evenodd" clip-rule="evenodd" d="M100.514 97.37c0 3.68-10.082 6.66-22.52 6.66-12.439 0-22.521-2.98-22.521-6.66 0-3.682 10.085-6.662 22.52-6.662 12.436 0 22.521 2.983 22.521 6.661z" fill="#7FBA00"/>
    <path fill-rule="evenodd" clip-rule="evenodd" d="M128.778 81.645c-9.842-3.673-22.772-6.28-37.31-7.288l-9.121 16.618c3.922.176 7.81.792 11.592 1.831l34.839-11.161zM24.334 115.113c10.118 4.269 24.159 7.315 40.148 8.423l10.657-19.425a58.021 58.021 0 01-11.712-1.529l-39.093 12.531z" fill="#CADD6D"/>
    <path fill-rule="evenodd" clip-rule="evenodd" d="M148.248 58.304c0 13.839-31.456 25.056-70.25 25.056-38.795 0-70.248-11.217-70.248-25.056V44.8h140.498v13.504z" fill="#0072C6"/>
    <path fill-rule="evenodd" clip-rule="evenodd" d="M148.25 44.801c0 13.84-31.456 25.056-70.25 25.056-38.795 0-70.248-11.22-70.248-25.056s31.453-25.055 70.247-25.055c38.795 0 70.251 11.216 70.251 25.055z" fill="#59B4D9"/>
    <path fill-rule="evenodd" clip-rule="evenodd" d="M100.514 43.36c0 3.68-10.082 6.661-22.52 6.661-12.439 0-22.521-2.98-22.521-6.661 0-3.681 10.085-6.661 22.52-6.661 12.436 0 22.521 2.98 22.521 6.66z" fill="#0072C6"/>
    <path fill-rule="evenodd" clip-rule="evenodd" d="M128.778 27.497c-9.842-3.673-22.772-6.282-37.31-7.285l-9.121 16.613c3.922.178 7.81.794 11.592 1.833l34.839-11.161zM24.334 60.963c10.118 4.27 24.159 7.316 40.148 8.423l10.657-19.422a58.393 58.393 0 01-11.712-1.529L24.334 60.963z" fill="#83C7E1"/>
</svg>
