<svg xmlns="http://www.w3.org/2000/svg" viewBox="0 0 24 24">
    <path d="M9.204 15.323c0 .484-.174.859-.523 1.124-.349.266-.831.398-1.446.398-.523 0-.961-.095-1.312-.285v-1.138c.406.346.852.52 1.34.52.236 0 .418-.047.547-.142a.445.445 0 00.193-.377c0-.154-.062-.288-.186-.402s-.376-.261-.755-.441c-.773-.365-1.16-.863-1.16-1.494 0-.458.168-.825.506-1.101.337-.276.785-.414 1.344-.414.495 0 .905.066 1.231.196v1.063a2 2 0 00-1.167-.356c-.219 0-.392.047-.52.14a.444.444 0 00-.191.375c0 .161.051.294.154.397.102.103.313.231.631.382.474.226.812.454 1.013.687.201.233.301.522.301.868zm5.15-2.507c-.204-.398-.49-.705-.859-.921s-.787-.324-1.254-.324c-.5 0-.943.112-1.33.334a2.282 2.282 0 00-.9.955c-.213.414-.32.885-.32 1.414 0 .477.099.909.295 1.297.197.388.476.693.838.916.362.223.768.343 1.218.359l1.05 1.185h1.485l-1.471-1.37c.493-.178.874-.487 1.145-.928s.407-.962.407-1.561c.002-.506-.1-.958-.304-1.356zm-1.243 2.605c-.231.288-.543.432-.937.432-.387 0-.696-.149-.93-.446-.233-.298-.35-.695-.35-1.193 0-.5.119-.901.357-1.202s.555-.451.951-.451c.389 0 .695.15.92.45.224.3.336.709.336 1.226 0 .501-.115.896-.347 1.184zm5.407.404H16.64v-4.169h-1.142v5.101h3.02v-.932zM12 0C7.029 0 3 1.567 3 3.5v17c0 1.933 4.029 3.5 9 3.5s9-1.567 9-3.5v-17C21 1.567 16.971 0 12 0zm0 1c5.176 0 8 1.651 8 2.5S17.176 6 12 6 4 4.349 4 3.5 6.824 1 12 1zm0 22c-5.176 0-8-1.651-8-2.5V5.099C5.494 6.227 8.512 7 12 7c3.504 0 6.533-.78 8.019-1.917L20 20.5c0 .849-2.824 2.5-8 2.5z"/>
</svg>
