<svg xmlns="http://www.w3.org/2000/svg" viewBox="0 0 137 94">
    <path fill="#FFF" d="M9.424 78.347h118.604V3.68H9.424z"/>
    <path d="M7.056 6.605A5.606 5.606 0 0112.662 1h113.141a5.606 5.606 0 015.606 5.606V75.83a5.606 5.606 0 01-5.606 5.605H12.663a5.606 5.606 0 01-5.607-5.605V6.605zm5.928 3.036v63.284a2.61 2.61 0 002.61 2.61h107.28a2.61 2.61 0 002.61-2.61V9.641a2.61 2.61 0 00-2.61-2.609H15.594a2.61 2.61 0 00-2.61 2.61zM2.262 87.394h133.943c.698 0 1.263.565 1.263 1.262v4.82c0 .698-.565 1.263-1.263 1.263H2.262A1.263 1.263 0 011 93.477v-4.821c0-.697.566-1.262 1.263-1.262"/>
    <path d="M53.942 90.003h30.584c.201 0 .365.164.365.365v1.396a.365.365 0 01-.365.365H53.942a.365.365 0 01-.365-.365v-1.396c0-.2.164-.365.365-.365"/>
    <path d="M54.077 91.63h30.314v-1.126H54.077v1.126zm30.449 1H53.942a.867.867 0 01-.865-.866v-1.396c0-.477.388-.865.865-.865h30.584c.478 0 .865.388.865.865v1.396a.866.866 0 01-.865.866zM36.267 43.647l20.104 10.1v-5.383l-12.433-6.081 12.433-6.895v-5.453L36.267 41.202zM58.954 60.81h5.383l15.306-37.2h-5.426zm23.607-30.875v5.454l12.506 6.914-12.506 6.059v5.385l20.104-10.1v-2.445z"/>
</svg>
