<svg xmlns="http://www.w3.org/2000/svg" viewBox="0 0 49 49">
    <path d="M14.278 35.797a9.988 9.988 0 019.992-9.993 9.988 9.988 0 019.992 9.993H14.278zM29.96 18.556a5.662 5.662 0 01-5.665 5.665 5.662 5.662 0 01-5.665-5.665 5.662 5.662 0 015.665-5.665 5.667 5.667 0 015.666 5.665z" fill="#0078D7"/>
    <path d="M24.304 46.934L4.714 35.62V13l19.59-11.313L43.893 13v22.62l-19.59 11.314zM5.978 34.896l18.326 10.581 18.326-10.58V13.724L24.304 3.143 5.978 13.724v21.172z" fill="#50E6FF"/>
    <path d="M24.177 5.618a2.61 2.61 0 100-5.22 2.61 2.61 0 000 5.22zm0 42.755a2.61 2.61 0 100-5.22 2.61 2.61 0 000 5.22zm19.025-9.958a2.61 2.61 0 100-5.22 2.61 2.61 0 000 5.22zm0-22.797a2.61 2.61 0 100-5.219 2.61 2.61 0 000 5.22zM5.313 38.347a2.517 2.517 0 100-5.034 2.517 2.517 0 000 5.034zm0-22.644a2.517 2.517 0 100-5.035 2.517 2.517 0 000 5.035z" fill="#0078D7"/>
</svg>
