<svg xmlns="http://www.w3.org/2000/svg" viewBox="0 0 107 92">
    <path fill="#FFF" d="M98.763 7.324C88.109-4.216 66.359.666 53.486 18.644 37.506-.445 18.419-4.217 7.544 7.323-3.554 19.31-.668 33.292 5.99 44.833l11.32-.222 10.874-.444 8.212-21.75c.444-1.332 1.332-3.774 4.661-3.774 3.551 0 3.773 2.664 3.773 3.995l.222 36.177 5.77-12.207c.445-1.11 1.554-1.775 2.664-1.775h34.623c1.554 0 2.885 1.553 2.885 3.107 0 1.553-1.331 3.773-2.885 3.773H57.037L45.94 73.907c-.666 2.22-1.776 2.886-4.217 2.664-1.332-.222-2.441-2.22-2.441-3.551l-.444-33.292-3.33 9.1c-.221 1.11-1.331 2.885-2.44 3.107H9.097c13.538 19.753 36.842 36.399 43.5 39.284 13.317-4.883 76.127-51.491 46.165-83.895z"/>
</svg>
