<svg xmlns="http://www.w3.org/2000/svg" viewBox="0 0 51 47">
    <path fill="#7A7A7A" d="M32.9 36.9H19.3c1.6 5.7-.6 6.6-10.2 6.6v3h32.6v-3c-9.5 0-10.4-.8-8.8-6.6z"/>
    <path fill="#3E3E3E" d="M47.5.5H3.2C1.7.5.5 1.8.5 3.3v30.8c0 1.5 1.2 2.8 2.7 2.8h44.3c1.5 0 3-1.3 3-2.8V3.3c0-1.5-1.5-2.8-3-2.8zm-.8 3.8V33H4.3V4.3l42.4-.1v.1z"/>
    <path fill="#00BBF1" d="M46.6 4.3v28.8H4.3V4.3h42.4z"/>
    <path fill="#7A7A7A" d="M4.3 33.1V4.3H43L47.5.5H3.2C1.7.5.5 1.8.5 3.3v30.8c0 1.5 1.2 2.8 2.7 2.8h1.1l4.6-3.8H4.3z"/>
    <path fill="#59B4D9" d="M4.3 33.1V4.3H43 4.3z"/>
    <path fill="#B0B0B0" d="M9.2 43.5h32.7v3H9.2z"/>
    <circle fill="#BAC84A" cx="25.3" cy="2.6" r=".7"/>
    <path opacity=".9" fill="#FFF" d="M25.5 18.2h-.1l-8.8-5.1c-.1 0-.1-.1-.1-.2s.1-.2.1-.2l8.7-5h.3l8.8 5.1c.1 0 .1.1.1.2s0 .2-.1.2l-8.7 5h-.2z"/>
    <path opacity=".8" fill="#FFF" d="M24.2 30.5h-.1l-8.8-5c-.1 0-.1-.1-.1-.2V15.1c0-.1 0-.2.1-.2h.3l8.8 5c.1 0 .1.1.1.2v10.1c0 .1-.1.2-.1.2-.1.1-.1.1-.2.1z"/>
    <path opacity=".5" fill="#FFF" d="M26.7 30.5h-.1c-.1 0-.1-.1-.1-.2V20.2c0-.1.1-.2.1-.2l8.8-5h.3c.1 0 .1.1.1.2v10.1c0 .1-.1.2-.1.2l-8.8 5h-.2z"/>
</svg>
