<svg xmlns="http://www.w3.org/2000/svg" viewBox="0 0 27 36"><path d="M13.5 0a13.21 13.21 0 0 1 3.586.483 13.683 13.683 0 0 1 3.226 1.362 13.508 13.508 0 0 1 4.843 4.843 13.683 13.683 0 0 1 1.362 3.226A13.21 13.21 0 0 1 27 13.5v7.875a3.311 3.311 0 0 1-.264 1.318 3.357 3.357 0 0 1-1.793 1.793 3.311 3.311 0 0 1-1.318.264H20.25V13.5h3.375a2.707 2.707 0 0 1 .58.062 5.311 5.311 0 0 1 .545.149 11.593 11.593 0 0 0-3.226-8.095 11.1 11.1 0 0 0-3.568-2.461 11.35 11.35 0 0 0-7.444-.5 11.411 11.411 0 0 0-2.69 1.133 11.279 11.279 0 0 0-4.034 4.034 11.411 11.411 0 0 0-1.134 2.689 11.012 11.012 0 0 0-.4 2.988v.211a5.311 5.311 0 0 1 .545-.149 2.707 2.707 0 0 1 .58-.062H6.75V24.75H4.5V27a4.379 4.379 0 0 0 .352 1.749 4.534 4.534 0 0 0 2.4 2.4A4.379 4.379 0 0 0 9 31.5a2.18 2.18 0 0 1 .176-.879 2.291 2.291 0 0 1 1.2-1.2 2.18 2.18 0 0 1 .879-.176h4.5a2.18 2.18 0 0 1 .879.176 2.291 2.291 0 0 1 1.2 1.2A2.18 2.18 0 0 1 18 31.5v2.25a2.18 2.18 0 0 1-.176.879 2.291 2.291 0 0 1-1.2 1.2 2.18 2.18 0 0 1-.874.171h-4.5a2.18 2.18 0 0 1-.879-.176 2.291 2.291 0 0 1-1.2-1.2A2.18 2.18 0 0 1 9 33.75a6.559 6.559 0 0 1-2.628-.527 6.825 6.825 0 0 1-3.595-3.595A6.559 6.559 0 0 1 2.25 27v-2.461a3.246 3.246 0 0 1-.923-.492 3.316 3.316 0 0 1-.7-.729 3.514 3.514 0 0 1-.46-.918A3.231 3.231 0 0 1 0 21.375V13.5a13.21 13.21 0 0 1 .483-3.586 13.683 13.683 0 0 1 1.363-3.226 13.508 13.508 0 0 1 4.842-4.842A13.683 13.683 0 0 1 9.914.483 13.21 13.21 0 0 1 13.5 0zM3.375 15.75a1.081 1.081 0 0 0-.791.334 1.081 1.081 0 0 0-.334.791v4.5a1.081 1.081 0 0 0 .334.791 1.081 1.081 0 0 0 .791.334H4.5v-6.75zm7.875 18h4.5V31.5h-4.5zm13.5-16.875a1.141 1.141 0 0 0-1.125-1.125H22.5v6.75h1.125a1.141 1.141 0 0 0 1.125-1.125z" fill="#fff"/></svg>