<svg xmlns="http://www.w3.org/2000/svg" viewBox="0 0 24.152 21"><path d="M2.188 20.74a1.44 1.44 0 0 1-1.183-.785 1.545 1.545 0 0 1 .041-1.5l4.983-8.722 4.92-8.179a1.343 1.343 0 0 1 1.108-.733 1.26 1.26 0 0 1 1.063.693L23.043 18.4a1.661 1.661 0 0 1 .064 1.563 1.434 1.434 0 0 1-1.193.773z" fill="#fd6500"/><path d="M12.058 1.374a.718.718 0 0 1 .58.423l5 8.5 4.931 8.4a.607.607 0 0 1 .055.713c-.132.232-.375.209-.706.209H2.188c-.422 0-.616-.084-.693-.222a.745.745 0 0 1 .044-.812L6.5 9.963l4.927-8.155a.769.769 0 0 1 .626-.434zm0-1.122a1.88 1.88 0 0 0-1.588 1L5.543 9.421.567 17.953a1.8 1.8 0 0 0 1.624 2.787h19.723a1.764 1.764 0 0 0 1.613-2.771L18.6 9.657l-5-8.466a1.767 1.767 0 0 0-1.547-.94z" fill="#fff"/><circle cx="12.052" cy="16.427" r="1.609" fill="#fff"/><path fill="#fff" d="M12.375 6.609h-1.684l.43 7.462h2.026l.43-7.462h-1.202z"/></svg>