<svg xmlns="http://www.w3.org/2000/svg" viewBox="0 0 24 24">
    <path fill="#0072C6" d="M21.8 18c.3.3.8.3 1.1 0 .3-.3.3-.8 0-1.1l-3.6-3.6c-.2-.2-.5-.2-.7 0l-.4.4c-.2.2-.2.5 0 .7l3.6 3.6z"/>
    <path opacity=".1" fill="#FFF" d="M18.4 13.4L23 18c.3-.3.3-.8 0-1.1l-3.6-3.6c-.2-.2-.5-.2-.7 0l-.3.1z"/>
    <path fill="#FFF" d="M.3.4h15v4.8s-2.5 1.5-2.6 3.7c0 1.9 1 3.6 2.7 4.4V17l-.1 6.5-14.9-.2L.3.4z"/>
    <path fill="#4A4A4A" d="M3.9 6.8h9.9v-1H3.9v1zm0 4h9.9v-1H3.9v1zm0 4h9.9v-1H3.9v1z"/>
    <path fill="#4A4A4A" d="M14.9 13.2V23H1V1h13.9v4.3l1-.3V0H0v24h15.9V13.4z"/>
    <circle fill="#EEF7FB" cx="14.2" cy="9.2" r="4.2"/>
    <path fill="#4A4A4A" d="M9.5 9.2c0 2.6 2.1 4.7 4.6 4.7 1.1 0 2.3-.4 3.1-1.2l.7.7c-.2.2-.2.6 0 .8l4 4c.3.3.9.3 1.2 0 .3-.3.3-.9 0-1.2l-4-4c-.2-.2-.6-.2-.8 0l-.7-.7c1.7-1.9 1.5-4.9-.4-6.6s-4.9-1.5-6.6.4c-.7.8-1.1 1.9-1.1 3.1zm8.9 4.6l.4-.4 4 4c.1.1.1.3 0 .4-.1.1-.3.1-.4 0l-4-4zM10 9.2c0-2.3 1.8-4.1 4.1-4.1s4.1 1.8 4.1 4.1-1.8 4.1-4.1 4.1c-2.2-.1-4-1.9-4.1-4.1z"/>
</svg>
