<svg xmlns="http://www.w3.org/2000/svg" viewBox="0 0 30 30"><path fill="none" d="M0 0h29.786v29.704H0z"/><path d="M14.893 7.426v7.963l5.308 5.308-1.309 1.305-5.86-5.83V7.426h1.86zm7.446 1.856h4.32a12.98 12.98 0 0 0-2.044-3.067 13.02 13.02 0 0 0-9.723-4.358c-1.192 0-2.343.154-3.453.464a13.051 13.051 0 0 0-5.752 3.35 12.976 12.976 0 0 0-3.36 5.736 12.704 12.704 0 0 0-.465 3.445c0 1.19.155 2.337.465 3.445a12.978 12.978 0 0 0 3.36 5.736 13.08 13.08 0 0 0 5.745 3.35c1.105.31 2.259.464 3.46.464 1.455 0 2.856-.234 4.204-.703a13.187 13.187 0 0 0 3.68-1.965 13.266 13.266 0 0 0 2.872-3.01 12.565 12.565 0 0 0 1.796-3.85l1.79.492a14.21 14.21 0 0 1-2.044 4.41 15.132 15.132 0 0 1-3.287 3.444 14.998 14.998 0 0 1-4.203 2.241 14.592 14.592 0 0 1-4.807.798c-1.367 0-2.686-.177-3.956-.53a15.086 15.086 0 0 1-3.563-1.493 14.787 14.787 0 0 1-3.018-2.321 14.754 14.754 0 0 1-2.327-3.01A15.028 15.028 0 0 1 .53 18.804 14.567 14.567 0 0 1 0 14.852c0-1.363.177-2.678.53-3.945A14.997 14.997 0 0 1 2.03 7.353a14.753 14.753 0 0 1 2.327-3.01 14.784 14.784 0 0 1 3.018-2.32A15.115 15.115 0 0 1 10.93.53 14.683 14.683 0 0 1 14.893 0c1.357 0 2.676.179 3.956.537 1.28.357 2.484.867 3.614 1.53a14.666 14.666 0 0 1 3.083 2.415 14.889 14.889 0 0 1 2.378 3.205V3.713h1.862v7.426h-7.447V9.282z" fill="#505055"/></svg>