<svg xmlns="http://www.w3.org/2000/svg" viewBox="0 0 160 160">
    <path d="M114.144 30.772a32.577 32.577 0 00-58.969-17.224 25.789 25.789 0 00-40.778 26.758 24.494 24.494 0 0010.083 46.81h82.96a28.573 28.573 0 006.7-56.344z" fill="#fff"/>
    <path d="M114.144 30.772a32.577 32.577 0 00-58.969-17.224 25.789 25.789 0 00-40.778 26.758 24.494 24.494 0 0010.083 46.81h82.96a28.573 28.573 0 006.7-56.344z" fill="#25a8e0" opacity=".6" style="isolation:isolate"/>
    <path d="M35.229 59.807a2.732 2.732 0 00-2.731 2.731v71a2.732 2.732 0 002.731 2.731h65.537a2.732 2.732 0 002.731-2.731v-71a2.732 2.732 0 00-2.731-2.731z" fill="#672a7b"/>
    <path d="M35.229 59.807a2.732 2.732 0 00-2.731 2.731v71a2.732 2.732 0 002.731 2.731h8.193l49.156-76.462z" fill="#fff" opacity=".15" style="isolation:isolate"/>
    <path fill="#fff" d="M62.538 59.807V40.691h-8.193L68 21.574l13.655 19.117h-8.193v19.116H62.538z"/>
    <path d="M89.847 68H40.69v60.08h54.619V68zm-32.771 54.618H46.152V73.462h10.924zm16.386 0H62.538V73.462h10.928zm16.386 0H78.923V73.462h10.924z" fill="#b92025" opacity=".3" style="isolation:isolate"/>
    <path d="M89.847 68H40.69v60.08h54.619V68zm-32.771 54.618H46.152V73.462h10.924zm16.386 0H62.538V73.462h10.928zm16.386 0H78.923V73.462h10.924z" fill="#fff" style="isolation:isolate"/>
</svg>
