<svg xmlns="http://www.w3.org/2000/svg" viewBox="0 0 40 33">
                                
                            
    <path d="M2444.48 1943.72L2443.49 1944.76L2444.48 1945.79L2595.86 2103.9L2596.94 2105.03L2598.02 2103.9L3321.27 1350.24L3322.26 1349.21L3321.27 1348.17L2598.02 594.51L2596.94 593.38L2595.86 594.511L2444.48 752.621L2443.49 753.657L2444.48 754.694L3011.99 1349.21L2444.48 1943.72ZM724.325 594.511L723.243 593.38L722.159 594.51L-1.08227 1348.17L-2.07895 1349.21L-1.08227 1350.24L722.159 2103.9L723.243 2105.03L724.325 2103.9L875.701 1945.79L876.693 1944.76L875.703 1943.72L308.19 1349.21L875.703 754.694L876.693 753.657L875.701 752.621L724.325 594.511ZM2203.36 2699.91H2205.42L2204.79 2697.96L1343.63 -0.456044L1343.3 -1.5H1342.2H1116.82H1114.77L1115.39 0.456044L1976.55 2698.87L1976.89 2699.91H1977.98H2203.36Z" transform="translate(1 32.5713) scale(0.0117 -0.0117)" fill="#0078D7" stroke="#0078D7" stroke-width="3"></path>
</svg>