<svg xmlns="http://www.w3.org/2000/svg" viewBox="0 0 49 49"><path d="M24.81 22.025c-.11 0-.11 0-.22-.11l-14.124-8.176c-.11-.11-.22-.22-.22-.331 0-.11.11-.332.22-.332L24.48 4.901c.11-.11.33-.11.441 0l14.124 8.175c.11.11.22.221.22.332 0 .11-.11.331-.22.331l-14.014 8.176c-.11 0-.11.11-.22.11z" fill="#0F74C4"/><path d="M22.824 41.912c-.11 0-.11 0-.22-.11L8.479 33.735c-.11-.11-.22-.22-.22-.331V16.943c0-.11.11-.331.22-.331.11-.11.332-.11.442 0l14.124 8.065c.11.11.22.22.22.331V41.36c0 .111-.11.332-.22.332-.11.221-.22.221-.22.221z" fill="#0F5E9A"/><path d="M26.797 41.912c-.11 0-.11 0-.22-.11-.111-.111-.222-.222-.222-.332V25.23c0-.111.11-.332.221-.332L40.7 16.722c.11-.11.331-.11.442 0 .11.11.22.221.22.331v16.241c0 .11-.11.332-.22.332L27.017 41.8c-.11.11-.11.11-.22.11z" fill="#59B4D9"/><path opacity=".5" d="M26.797 41.912c-.11 0-.11 0-.22-.11-.111-.111-.222-.222-.222-.332V25.23c0-.111.11-.332.221-.332L40.7 16.722c.11-.11.331-.11.442 0 .11.11.22.221.22.331v16.241c0 .11-.11.332-.22.332L27.017 41.8c-.11.11-.11.11-.22.11z" fill="#2E89CB"/><path d="M9.914 43.79c-.22 0-.441-.11-.662-.221l-6.62-3.867C1.527 39.039.754 37.713.754 36.388V12.082c0-1.326.773-2.652 1.876-3.315L9.251 4.9c.663-.331 1.546-.11 1.877.553.441.663.22 1.546-.442 1.988l-6.62 3.757c-.221.11-.552.663-.552.884v24.306c0 .22.331.773.552.883l6.62 3.867c.662.442.883 1.216.552 1.879-.33.441-.772.773-1.324.773zM39.597 4.79c.22 0 .441.11.662.221l6.62 3.867c1.104.663 1.876 1.989 1.876 3.314v24.306c0 1.326-.772 2.652-1.876 3.315l-6.62 3.867c-.662.441-1.545.11-1.876-.553-.442-.663-.11-1.547.552-1.878l6.62-3.867c.221-.11.552-.663.552-.884V12.192c0-.22-.331-.773-.552-.883l-6.62-3.867c-.663-.442-.883-1.326-.552-1.99.33-.441.772-.662 1.214-.662z" fill="#3F9AC5"/></svg>