<svg xmlns="http://www.w3.org/2000/svg" viewBox="0 0 60 60">
                                
                            
    <path d="M 5.81243 11.6613C 9.02254 11.6613 11.6249 9.05083 11.6249 5.83065C 11.6249 2.61047 9.02254 0 5.81243 0C 2.60231 0 0 2.61047 0 5.83065C 0 9.05083 2.60231 11.6613 5.81243 11.6613Z" transform="translate(19.3137 3.38562)"></path>
    <path d="M 6.93742 13.9183C 10.7688 13.9183 13.8748 10.8026 13.8748 6.95916C 13.8748 3.11572 10.7688 0 6.93742 0C 3.10599 0 0 3.11572 0 6.95916C 0 10.8026 3.10599 13.9183 6.93742 13.9183Z" transform="translate(31.5011 21.0654)"></path>
    <path d="M 5.43744 10.909C 8.44045 10.909 10.8749 8.4669 10.8749 5.45448C 10.8749 2.44205 8.44045 0 5.43744 0C 2.43442 0 0 2.44205 0 5.45448C 0 8.4669 2.43442 10.909 5.43744 10.909Z" transform="translate(44.626 43.2596)"></path>
    <path d="M 4.68744 9.40427C 7.27625 9.40427 9.37489 7.29905 9.37489 4.70214C 9.37489 2.10522 7.27625 0 4.68744 0C 2.09864 0 0 2.10522 0 4.70214C 0 7.29905 2.09864 9.40427 4.68744 9.40427Z" transform="translate(23.8108 40.2501)"></path>
    <path d="M 4.68744 9.40427C 7.27625 9.40427 9.37489 7.29905 9.37489 4.70214C 9.37489 2.10522 7.27625 0 4.68744 0C 2.09864 0 0 2.10522 0 4.70214C 0 7.29905 2.09864 9.40427 4.68744 9.40427Z" transform="translate(4.87427 25.9558)"></path>
    <path d="M 23.1106 0L 0 0L 0 3.00308L 23.1106 3.00308L 23.1106 0Z" transform="matrix(0.573895 0.818946 -0.817252 0.576305 26.1398 8.0979)"></path>
    <path d="M 23.6805 0L 0 0L 0 3.00229L 23.6805 3.00229L 23.6805 0Z" transform="matrix(0.495629 0.868569 -0.867228 0.497972 39.5942 27.0326)"></path>
    <path d="M 3.0093 0L 0 0L 0 28.6878L 3.0093 28.6878L 3.0093 0Z" transform="matrix(0.0824909 0.996621 -0.996579 0.0830053 38.0049 26.4064)"></path>
    <path d="M 3.00247 0L 0 0L 0 19.5446L 3.00247 19.5446L 3.00247 0Z" transform="matrix(0.855785 0.517285 -0.514915 0.857213 36.9539 27.1599)"></path>
    <path d="M 16.1248 0L 0.937488 0C 0.374995 0 -7.15247e-07 0.376171 -7.15247e-07 1.12851L -7.15247e-07 6.58299C -7.15247e-07 7.14725 0.374995 7.52342 0.937488 7.52342L 9.56238 7.52342L 9.56238 15.9873C 9.56238 16.5515 9.93738 16.9277 10.6874 16.9277L 16.1248 16.9277C 16.6873 16.9277 17.0623 16.5515 17.0623 15.9873L 17.0623 0.940427C 17.0623 0.376171 16.6873 0 16.1248 0Z" transform="translate(42.9377 0)"></path>
    <path d="M 0.937489 16.9277L 16.1248 16.9277C 16.6873 16.9277 17.0623 16.5515 17.0623 15.7992L 17.0623 10.3447C 17.0623 9.78045 16.6873 9.40427 16.1248 9.40427L 7.49991 9.40427L 7.49991 0.940427C 7.49991 0.37617 7.12491 -7.17489e-07 6.37492 -7.17489e-07L 0.937489 -7.17489e-07C 0.374995 -7.17489e-07 0 0.37617 0 0.940427L 0 15.9873C 0 16.5515 0.374995 16.9277 0.937489 16.9277Z" transform="translate(0 43.0714)"></path>
</svg>