<svg xmlns="http://www.w3.org/2000/svg" viewBox="0 0 31.5 36">
    <path d="M29.848 14.766a5.617 5.617 0 011.23 1.819 5.534 5.534 0 01.422 2.153V36h-2.25V18.738a3.386 3.386 0 00-.25-1.292 3.306 3.306 0 00-.729-1.1L22.5 10.6v6.926l1.916 1.934-1.582 1.582-6.5-6.486a1.607 1.607 0 00-1.178-.492 1.55 1.55 0 00-.633.132 1.727 1.727 0 00-.888.888 1.55 1.55 0 00-.132.633 1.607 1.607 0 00.492 1.178l2.883 2.9V22.5a5.51 5.51 0 00.439 2.188 5.6 5.6 0 003 3 5.51 5.51 0 002.188.439V36H0V0h22.5v7.4zm-14.7-2.953a3.945 3.945 0 011.5.29 3.836 3.836 0 011.274.853l2.32 2.32V6.75A4.379 4.379 0 0118.5 6.4 4.534 4.534 0 0116.1 4a4.379 4.379 0 01-.35-1.75h-9A4.379 4.379 0 016.4 4 4.534 4.534 0 014 6.4a4.379 4.379 0 01-1.75.35v22.5A4.379 4.379 0 014 29.6 4.534 4.534 0 016.4 32a4.379 4.379 0 01.35 1.75h9a4.339 4.339 0 01.229-1.4 4.669 4.669 0 01.633-1.239 4.441 4.441 0 01.976-.984 4.493 4.493 0 011.257-.65 7.791 7.791 0 01-4.113-5.7 6.4 6.4 0 01-1.679.721 6.844 6.844 0 01-1.8.246 6.559 6.559 0 01-2.628-.527 6.825 6.825 0 01-3.595-3.595 6.79 6.79 0 010-5.247 6.8 6.8 0 013.595-3.6 6.559 6.559 0 012.628-.527 6.949 6.949 0 011.521.167 5.992 5.992 0 011.433.519 3.509 3.509 0 01.945-.121zM2.25 4.5a2.18 2.18 0 00.879-.176 2.291 2.291 0 001.2-1.2A2.18 2.18 0 004.5 2.25H2.25zM4.5 33.75a2.18 2.18 0 00-.176-.879 2.291 2.291 0 00-1.2-1.2 2.18 2.18 0 00-.874-.171v2.25zm7.893-15.258a3.836 3.836 0 01-.853-1.274 3.945 3.945 0 01-.29-1.5 3.841 3.841 0 01.65-2.162 3.95 3.95 0 00-.65-.053 4.379 4.379 0 00-1.749.352 4.534 4.534 0 00-2.4 2.4 4.526 4.526 0 000 3.5 4.534 4.534 0 002.4 2.4 4.379 4.379 0 001.749.352 4.429 4.429 0 001.854-.4 4.479 4.479 0 001.521-1.134v-.264zM18 2.25a2.18 2.18 0 00.176.879 2.291 2.291 0 001.2 1.2 2.18 2.18 0 00.879.176V2.25zm2.25 29.25a2.18 2.18 0 00-.879.176 2.291 2.291 0 00-1.2 1.2 2.18 2.18 0 00-.171.874h2.25z" fill="#fff"/>
</svg>
