<svg xmlns="http://www.w3.org/2000/svg" viewBox="0 0 213.786 122.59"><path d="M153.657 63.959a19.785 19.785 0 1 1 0-39.569V8.357A35.817 35.817 0 1 0 177.5 70.895L166.815 58.92a19.686 19.686 0 0 1-13.158 5.039z" fill="#89ae61"/><path d="M173.442 44.174h16.032a35.817 35.817 0 0 0-35.817-35.817V24.39a19.785 19.785 0 0 1 19.785 19.784z" fill="#b9c462"/><path d="M189.474 44.174h-16.032a19.714 19.714 0 0 1-6.627 14.746L177.5 70.895a35.724 35.724 0 0 0 11.974-26.721z" fill="#e1c855"/><path d="M46.86 36.254L39.627 30.4a23.836 23.836 0 0 0-4.285 14.659l9.247-.973a14.61 14.61 0 0 1 2.271-7.832z" fill="#bac84a"/><path d="M67.089 31.679l5.856-7.234a23.842 23.842 0 0 0-14.669-4.271l.974 9.245a14.622 14.622 0 0 1 7.839 2.26z" fill="#128e52"/><path d="M56.025 29.783l-.975-9.256a23.844 23.844 0 0 0-13.391 7.343l7.226 5.849a14.605 14.605 0 0 1 7.14-3.936z" fill="#85b351"/><path d="M73.562 40.784l9.02-2.136a23.838 23.838 0 0 0-7.1-12.174L69.627 33.7a14.6 14.6 0 0 1 3.935 7.084z" fill="#128e52"/><path d="M44.947 47.311l-9.255.976a23.839 23.839 0 0 0 7.336 13.407l5.849-7.227a14.609 14.609 0 0 1-3.93-7.156z" fill="#d1d78d"/><path d="M62.214 73.736A29.719 29.719 0 0 0 77.6 20.912a28.785 28.785 0 0 0-3.418-2.338l-27.36 52.638a29.519 29.519 0 0 0 15.392 2.524z" fill="none"/><path d="M94.717 40.424a35.987 35.987 0 0 0-13.285-24.252 34.78 34.78 0 0 0-4.441-3.009l-2.813 5.411a28.785 28.785 0 0 1 3.422 2.338 29.721 29.721 0 0 1-15.386 52.824 29.519 29.519 0 0 1-15.392-2.524l-2.81 5.407a35.783 35.783 0 0 0 50.7-36.195z" fill="#a0a1a2"/><path d="M40.406 67.277a29.714 29.714 0 0 1 33.772-48.7l2.813-5.411a35.792 35.792 0 0 0-45.728 8.474l-.01.013a35.687 35.687 0 0 0 12.759 54.966l2.81-5.407a29.874 29.874 0 0 1-6.416-3.935z" fill="#b7b8b9"/><path d="M86.7 44.132a3.054 3.054 0 0 0-3.063-3.032l-.889.007-9.579.039-10.889.043c-.012-.012-.02-.027-.028-.035a4.187 4.187 0 0 0-7.134 3.025h31.575c0-.018.007-.032.007-.047z" fill="#ff8c00"/><path d="M62.047 47.277l21.613-.085a3.043 3.043 0 0 0 3.032-3.017H55.117a4.179 4.179 0 0 0 6.93 3.1z" fill="#ff8c00"/><path d="M62.047 47.277l21.613-.085a3.043 3.043 0 0 0 3.032-3.017H55.117a4.179 4.179 0 0 0 6.93 3.1z" fill="#d16b37" opacity=".5" style="mix-blend-mode:multiply"/><path d="M55.991 14.618a29.682 29.682 0 0 0-9.17 56.594l27.357-52.638a29.453 29.453 0 0 0-18.187-3.956z" fill="#fff" opacity=".2"/><circle cx="59.102" cy="44.124" r="31.225" fill="none" stroke="#3c454f" stroke-miterlimit="10" opacity=".3"/><circle cx="59.103" cy="61.33" r="3.084" fill="#85b351"/><path fill="#969696" d="M191.982 97.155l-6.588-6.218h5.357l8.819 8.319-8.779 8.28h-5.358l6.549-6.181h-16.42v-4.2h16.42zM169.343 97.155h4.201v4.2h-4.201zM163.171 97.155h4.201v4.2h-4.201zM157 97.155h4.202v4.2H157zM150.829 97.155h4.201v4.2h-4.201zM144.657 97.155h4.201v4.2h-4.201zM138.486 97.155h4.202v4.2h-4.202zM132.316 97.155h4.201v4.2h-4.201zM126.144 97.155h4.201v4.2h-4.201zM119.973 97.155h4.201v4.2h-4.201zM113.801 97.155h4.202v4.2h-4.202zM107.631 97.155h4.201v4.2h-4.201zM101.46 97.155h4.2v4.2h-4.2zM95.288 97.155h4.202v4.2h-4.202zM89.117 97.155h4.202v4.2h-4.202zM82.946 97.155h4.201v4.2h-4.201zM76.775 97.155h4.201v4.2h-4.201zM70.603 97.155h4.202v4.2h-4.202zM64.432 97.155h4.202v4.2h-4.202zM58.261 97.155h4.201v4.2h-4.201zM52.09 97.155h4.201v4.2H52.09zM45.918 97.155h4.202v4.2h-4.202zM39.748 97.155h4.201v4.2h-4.201zM33.576 97.155h4.201v4.2h-4.201zM27.405 97.155h4.201v4.2h-4.201zM21.235 97.155h4.201v4.2h-4.201zM15.063 97.155h4.201v4.2h-4.201z"/></svg>