<svg xmlns="http://www.w3.org/2000/svg" viewBox="0 0 512 512">
                                
                            
    <g stroke="none" stroke-width="1" fill-rule="evenodd" fill="#0063B1" transform="translate(96.000000, 121.000000)">
        <path d="M94.6887111,97.0983467 C100.491378,97.0983467 105.2416,98.9643022 108.939378,102.701902 C112.642844,106.445191 114.486044,111.172658 114.486044,116.889991 C114.486044,122.686969 112.6656,127.465636 108.996267,131.248747 C105.332622,135.026169 100.565333,136.920569 94.6887111,136.920569 C88.8860444,136.920569 84.096,134.963591 80.3242667,131.066702 C76.5525333,127.169813 74.6638222,122.442347 74.6638222,116.889991 C74.6638222,111.087324 76.5639111,106.34848 80.3811556,102.650702 C84.1870222,98.9529244 88.96,97.0983467 94.6887111,97.0983467 Z M162.955378,97.0983467 C168.758044,97.0983467 173.508267,98.9643022 177.206044,102.701902 C180.909511,106.445191 182.752711,111.172658 182.752711,116.889991 C182.752711,122.686969 180.932267,127.465636 177.262933,131.248747 C173.599289,135.026169 168.832,136.920569 162.955378,136.920569 C157.152711,136.920569 152.362667,134.963591 148.590933,131.066702 C144.8192,127.169813 142.930489,122.442347 142.930489,116.889991 C142.930489,111.087324 144.830578,106.34848 148.647822,102.650702 C152.453689,98.9529244 157.226667,97.0983467 162.955378,97.0983467 Z M231.222044,97.0983467 C237.024711,97.0983467 241.774933,98.9643022 245.472711,102.701902 C249.176178,106.445191 251.019378,111.172658 251.019378,116.889991 C251.019378,122.686969 249.198933,127.465636 245.5296,131.248747 C241.865956,135.026169 237.098667,136.920569 231.222044,136.920569 C225.419378,136.920569 220.629333,134.963591 216.8576,131.066702 C213.085867,127.169813 211.197156,122.442347 211.197156,116.889991 C211.197156,111.087324 213.097244,106.34848 216.914489,102.650702 C220.720356,98.9529244 225.493333,97.0983467 231.222044,97.0983467 Z"></path>
        <path d="M302.294471,120.309582 C302.294471,169.842738 262.625849,210.370382 214.150827,210.370382 L111.546027,210.370382 C109.452516,210.370382 107.38176,210.285049 105.322382,210.137138 L47.9158044,234.775716 L63.5204267,195.721493 C39.4166044,179.604871 23.3966933,151.774827 23.3966933,120.303893 L23.3966933,113.124516 C23.3966933,63.5970489 63.0653156,23.0694044 111.540338,23.0694044 L214.145138,23.0694044 C262.62016,23.0694044 302.288782,63.5970489 302.294471,113.124516 L302.294471,120.309582 Z M214.145138,0.387804444 L111.540338,0.387804444 C50.4246044,0.387804444 0.709404444,51.1782044 0.709404444,113.124516 L0.709404444,120.303893 C0.709404444,152.133227 13.94176,181.834916 36.2308267,202.878116 L6.52344889,277.226204 L109.486649,233.029227 C110.175004,233.046293 110.86336,233.051982 111.546027,233.051982 L214.150827,233.051982 C275.26656,233.051982 324.976071,182.261582 324.976071,120.309582 L324.976071,113.124516 C324.970382,51.1725156 275.260871,0.387804444 214.145138,0.387804444 L214.145138,0.387804444 Z"></path>
    </g>
</svg>