<svg xmlns="http://www.w3.org/2000/svg" viewBox="0 0 318 100">
    <path fill-rule="evenodd" clip-rule="evenodd" d="M81.518 71.59h10.316V9.236H81.518V71.59zm53.186-4.676h-39.87v-53h38.097a1.5 1.5 0 000-3H94.834V6.238H78.518V74.59h16.316v-4.675h39.87a1.5 1.5 0 000-3z"/>
    <path fill-rule="evenodd" clip-rule="evenodd" d="M171.103 74.694c-19.521 0-35.347-15.825-35.347-35.347C135.756 19.826 151.582 4 171.103 4s35.348 15.826 35.348 35.347c0 19.522-15.827 35.347-35.348 35.347zm60.398 21.839l-30.858-31.236c6.098-6.932 9.808-16.014 9.808-25.95C210.451 17.651 192.799 0 171.103 0c-21.695 0-39.347 17.651-39.347 39.347s17.652 39.347 39.347 39.347c10.323 0 19.726-4.002 26.752-10.528l30.801 31.177a1.99 1.99 0 001.423.595 1.999 1.999 0 001.422-3.405z"/>
    <path fill-rule="evenodd" clip-rule="evenodd" d="M250.517 71.59h10.316V9.236h-10.316V71.59zm-3-65.352v4.676H207.34a1.5 1.5 0 100 3h39.993v53h-37.472a1.5 1.5 0 100 3h37.656v4.675h16.316V6.24h-16.316zm25.065 37.384h3.667v-7.29h-3.667v7.29zm-1.5 1.5h6.667v-10.29h-6.667v10.29zm30.5-1.5h3.667v-7.29h-3.667v7.29zm-1.5 1.5h6.667v-10.29h-6.667v10.29zm-14.164-1.542h-1.167v-8.666h-4.083v1.5h2.583v7.167h-1.917v1.5h6.084v-3.917h-1.5v2.417zm10 0h-1.167v-8.666h-4.083v1.5h2.583v7.167h-1.917v1.5h6.084v-3.917h-1.5v2.417zm20-2.416v2.417h-1.167v-8.667h-4.083v1.5h2.583v7.167h-1.917v1.5h6.084v-3.917h-1.5zm-172.766-6.562h5.472V24.24h-5.472v10.363zm-1.5 1.5h8.472V22.74h-8.472v13.363zm40.633-1.5h5.473V24.24h-5.473v10.363zm-1.5 1.5h8.473V22.74h-8.473v13.363zm-37.633 17.091h5.472V42.83h-5.472v10.363zm-1.5 1.5h8.472V41.33h-8.472v13.363zm27.967-1.5h5.472V42.83h-5.472v10.363zm-1.5 1.5h8.472V41.33h-8.472v13.363zm-6.45-20.147h-2.099V22.852h-5.248v1.5h3.748v10.194h-2.848v1.5h7.947v-5.022h-1.5v3.522zm13.494 0h-2.099V22.852h-5.248v1.5h3.748v10.194h-2.848v1.5h7.947v-5.022h-1.5v3.522zm24.989-3.523v3.522h-2.099V22.851h-5.248v1.5h3.748v10.194h-2.847v1.5h7.946v-5.022h-1.5zm-38.483 22.114h-2.099V41.442h-5.248v1.5h3.748v10.195h-2.848v1.5h7.947v-5.023h-1.5v3.523zm26.494 0h-2.099V41.442h-5.248v1.5h3.748v10.195h-2.848v1.5h7.947v-5.023h-1.5v3.523zm11.989 0h-2.099V41.442h-5.248v1.5h3.748v10.195h-2.847v1.5h7.946v-5.023h-1.5v3.523zM11.25 23.831h3.667V16.54H11.25v7.292zm-1.5 1.5h6.667V15.04H9.75v10.292zm26.832-2.041h3.667v-7.293h-3.667v7.292zm-1.5 1.5h6.667V14.496h-6.667V24.79zm32.5 2.832h3.667v-7.29h-3.667v7.29zm-1.5 1.5h6.667v-10.29h-6.667v10.29zm-6.164-2.792v2.417h-1.167V20.08h-4.083v1.5h2.583v7.166h-1.917v1.5h6.084V26.33h-1.5zM28.25 22.414h-1.167v-8.667H23v1.5h2.583v7.167h-1.916v1.5h6.083v-3.917h-1.5v2.417zm21.333 11.583v2.417h-1.167v-8.667h-4.084v1.5h2.584v7.167h-1.917v1.5h6.084v-3.917h-1.5zM24.25 50.414h3.667v-7.292H24.25v7.292zm-1.5 1.5h6.667V41.622H22.75v10.292zM4.918 60.54h3.666v-7.293H4.918v7.292zm-1.5 1.5h6.666V51.746H3.418V62.04zM5.25 32.414H4.083v-8.667H0v1.5h2.583v7.167H.667v1.5H6.75v-3.917h-1.5v2.417zm34 9.5v2.417h-1.167v-8.667H34v1.5h2.583v7.167h-1.916v1.5h6.083v-3.917h-1.5zM18.583 53.497h-1.167V44.83h-4.084v1.5h2.584v7.166h-1.917v1.5h6.084V51.08h-1.5v2.416zm38.667 1.959h3.667v-7.292H57.25v7.292zm-1.5 1.5h6.667V46.664H55.75v10.292zm15.168-10.959v2.417h-1.167v-8.667h-4.083v1.5h2.583v7.167h-1.917v1.5h6.084v-3.917h-1.5z"/>
</svg>
