<svg xmlns="http://www.w3.org/2000/svg" viewBox="0 0 1327.24 1025.711">
    <path fill="#5ab4da" d="M816.86 442.412l-35.84-11.12v156.95l35.84-19.78v-126.05z"/>
    <path fill="#5ab4da" d="M781.02 242.212v122.35l35.84 11.12v-42.02h473.31v290.41H846.52l-65.5 35.84v1.24h546.22v-418.94H781.02zm-234.8 150.77v-37.07l-35.84-11.13v37.08H328.72l6.18 37.07h211.32v-25.95z"/>
    <path fill="#5ab4da" d="M264.46 381.861H37.074V91.449h473.31v186.605l35.838 11.122V0H0v418.935h270.639l-6.179-37.074zm339.844 608.011h-473.31V698.225h182.898l-14.829-91.449H93.921v418.935h546.221V735.299l-35.838 18.536v236.037z"/>
    <path fill="#5ab4da" d="M378.15 698.222h196.5l65.49-35.84v-55.61H363.32l14.83 91.45z"/>
    <path d="M782.26 638.9l27.69-14.83 6.91-3.7 185.37-98.87c8.65 9.89 19.77 18.54 33.37 22.25 6.18 2.47 13.59 2.47 19.77 2.47a69.694 69.694 0 0066.73-50.67c11.12-37.07-11.12-75.38-46.96-86.5-6.18-1.24-12.36-2.48-19.77-2.48a69.336 69.336 0 00-64.26 43.26l-174.25-55.61-35.84-11.13-234.8-75.38-35.84-11.12-1.23-.39-166.83-52.75a73.281 73.281 0 00-7.42-39.55c-12.36-23.48-37.07-37.07-61.79-37.07-11.12 0-22.24 2.47-32.13 8.65-33.37 18.54-46.96 60.55-28.42 93.92 12.35 22.25 34.6 35.84 58.08 37.08L283 383.092l6.18 35.84 29.65 187.84 13.6 91.45 12.36 81.56c-19.78 7.42-37.08 23.49-43.26 45.73-11.12 37.07 11.13 75.38 46.96 86.51 6.18 1.23 12.36 2.47 19.78 2.47a69.706 69.706 0 0066.73-50.67c3.71-13.59 3.71-25.95 0-38.31l170.54-91.45 35.84-19.77 139.64-74.73zm-2.47-30.89l-139.65 74.15-35.84 19.77-184.13 98.86c-8.65-9.88-19.77-18.53-33.37-22.24-4.94-1.24-9.88-2.47-14.83-2.47l-12.35-77.86-13.6-91.45-29.66-187.84-6.17-35.84-12.36-81.56q3.7-1.845 7.41-3.71c12.36-6.17 21.01-16.06 27.19-27.18l176.72 56.84 35.84 11.13 1.23.39 233.57 74.99 35.84 11.12 169.3 54.38c0 6.18 1.24 11.12 2.47 17.3l-170.54 90.8-1.23.65-34.61 19.09z" fill="#5ab4da"/>
</svg>
