<svg xmlns="http://www.w3.org/2000/svg" viewBox="0 0 48 48">
                                
                            
    <path fill="#00abec" d="M24,45A21.66,21.66,0,0,0,44.813,29.555l2.859.891a23.8,23.8,0,0,1-3.492,7.137,24.956,24.956,0,0,1-12.34,9.141A24.215,24.215,0,0,1,24,48a24.6,24.6,0,0,1-12.012-3.105,25.093,25.093,0,0,1-5-3.68A24.047,24.047,0,0,1,3,36.3V42H0V30H12v3H4.594a21.511,21.511,0,0,0,3.434,4.957,21.8,21.8,0,0,0,4.582,3.773,22.417,22.417,0,0,0,5.426,2.414A20.935,20.935,0,0,0,24,45ZM48,6V18H36V15h7.406a21.511,21.511,0,0,0-3.434-4.957A21.8,21.8,0,0,0,35.391,6.27a22.417,22.417,0,0,0-5.426-2.414A20.935,20.935,0,0,0,24,3,21.66,21.66,0,0,0,3.188,18.445L.328,17.555A24.012,24.012,0,0,1,3.82,10.43,24.886,24.886,0,0,1,16.16,1.277,24.215,24.215,0,0,1,24,0,24.6,24.6,0,0,1,36.012,3.105a25.093,25.093,0,0,1,5,3.68A24.047,24.047,0,0,1,45,11.7V6Z"></path>
</svg>