<svg xmlns="http://www.w3.org/2000/svg" viewBox="0 0 49 49"><path d="M.396 48.41h48V4.906h-48V48.41z" fill="#0078D4"/><path d="M.396 5.513h48V.41h-48v5.103zM11.655 35.652H6.628v5.028h5.027v-5.028zM19.26 35.652h-5.028v5.028h5.028v-5.028zM26.83 35.652h-5.027v5.028h5.027v-5.028z" fill="#50E6FF"/><path d="M34.392 35.652h-5.027v5.028h5.027v-5.028z" fill="#fff"/><path d="M41.997 35.652h-5.028v5.028h5.028v-5.028zM11.655 28.09H6.628v5.027h5.027V28.09z" fill="#50E6FF"/><path d="M19.26 28.09h-5.028v5.027h5.028V28.09z" fill="#fff"/><path d="M26.83 28.09h-5.027v5.027h5.027V28.09zM34.392 28.09h-5.027v5.027h5.027V28.09zM41.997 28.09h-5.028v5.027h5.028V28.09zM11.655 20.527H6.628v5.028h5.027v-5.028zM19.26 20.527h-5.028v5.028h5.028v-5.028z" fill="#50E6FF"/><path d="M26.83 20.527h-5.027v5.028h5.027v-5.028z" fill="#fff"/><path d="M34.392 20.527h-5.027v5.028h5.027v-5.028zM41.997 20.527h-5.028v5.028h5.028v-5.028z" fill="#50E6FF"/><path d="M11.655 13.008H6.628v5.027h5.027v-5.027z" fill="#fff"/><path d="M19.26 13.008h-5.028v5.027h5.028v-5.027zM26.83 13.008h-5.027v5.027h5.027v-5.027zM34.392 13.008h-5.027v5.027h5.027v-5.027zM41.997 13.008h-5.028v5.027h5.028v-5.027z" fill="#50E6FF"/></svg>