<svg xmlns="http://www.w3.org/2000/svg" viewBox="0 0 78.065 76.842"><path d="M25.156 49.463c-1.729 0-2.9-.47-3.433-1.4-.87-1.506.127-3.831 2.885-6.723a49.7 49.7 0 0 1 10.806-8.127c8.095-4.675 17.752-7.817 19.705-4.432.87 1.506-.127 3.831-2.885 6.723a49.7 49.7 0 0 1-10.805 8.126 49.7 49.7 0 0 1-12.441 5.295 16.649 16.649 0 0 1-3.832.538zm26.555-21.072c-3.262 0-9.146 1.847-15.8 5.687a48.7 48.7 0 0 0-10.582 7.952c-2.315 2.428-3.341 4.5-2.743 5.532s2.9 1.182 6.163.392a48.684 48.684 0 0 0 12.177-5.188 48.7 48.7 0 0 0 10.582-7.952c2.315-2.428 3.341-4.5 2.743-5.532-.338-.592-1.227-.891-2.54-.891z" fill="#0e5896"/><path d="M51.686 49.463a16.649 16.649 0 0 1-3.831-.538 49.7 49.7 0 0 1-12.44-5.295 49.7 49.7 0 0 1-10.807-8.13c-2.758-2.892-3.755-5.217-2.885-6.723.869-1.507 3.382-1.8 7.264-.863a49.688 49.688 0 0 1 12.441 5.295 49.7 49.7 0 0 1 10.806 8.127c2.758 2.892 3.755 5.217 2.885 6.723-.537.934-1.704 1.404-3.433 1.404zM25.159 28.385c-1.323 0-2.228.3-2.57.9-.6 1.036.428 3.1 2.743 5.532a48.7 48.7 0 0 0 10.582 7.952 48.694 48.694 0 0 0 12.176 5.184c3.265.79 5.565.644 6.164-.392s-.428-3.1-2.743-5.532a48.7 48.7 0 0 0-10.582-7.952 48.714 48.714 0 0 0-12.177-5.187 15.7 15.7 0 0 0-3.593-.505z" fill="#0264c2"/><path d="M51.686 49.463a16.649 16.649 0 0 1-3.831-.538 49.7 49.7 0 0 1-12.44-5.295 49.7 49.7 0 0 1-10.807-8.13c-2.758-2.892-3.755-5.217-2.885-6.723.869-1.507 3.382-1.8 7.264-.863a49.688 49.688 0 0 1 12.441 5.295 49.7 49.7 0 0 1 10.806 8.127c2.758 2.892 3.755 5.217 2.885 6.723-.537.934-1.704 1.404-3.433 1.404zM25.159 28.385c-1.323 0-2.228.3-2.57.9-.6 1.036.428 3.1 2.743 5.532a48.7 48.7 0 0 0 10.582 7.952 48.694 48.694 0 0 0 12.176 5.184c3.265.79 5.565.644 6.164-.392s-.428-3.1-2.743-5.532a48.7 48.7 0 0 0-10.582-7.952 48.714 48.714 0 0 0-12.177-5.187 15.7 15.7 0 0 0-3.593-.505z" fill="#0264c2"/><path d="M38.421 57.7c-3.906 0-6.015-9.935-6.015-19.281s2.109-19.279 6.015-19.279 6.016 9.935 6.016 19.281S42.328 57.7 38.421 57.7zm0-37.562c-2.372 0-5.015 7.508-5.015 18.281S36.049 56.7 38.421 56.7s5.016-7.508 5.016-18.281-2.644-18.279-5.016-18.279z" fill="#62aeed"/><circle cx="34.446" cy="51.191" r="1.491" fill="#0264c2"/><circle cx="49.452" cy="28.434" r="1.491" fill="#0264c2"/><circle cx="23.913" cy="33.9" r="1.491" fill="#0264c2"/><path fill="#62aeed" d="M75.819 48.018v-2.246h-3.048v2.246h-2.246v3.048h2.246v2.246h3.048v-2.246h2.246v-3.048h-2.246z"/><path d="M38.421 67a28.6 28.6 0 0 1-26.337-39.71l.461.2a28.109 28.109 0 1 0 6.445-9.346l-.346-.361A28.584 28.584 0 1 1 38.421 67z" fill="#0264c2"/><path d="M38.421 76.842a38.421 38.421 0 1 1 38.422-38.421 39.023 39.023 0 0 1-.28 4.659l-.5-.061a38.4 38.4 0 0 0 .276-4.6 37.9 37.9 0 1 0-4.218 17.4l.443.23a38.315 38.315 0 0 1-34.143 20.793z" fill="#0264c2"/><path d="M18.693 24.063l.171-.831-.037-.051-.792-.462-.1-.618.6-.787.067-.088-.209-.32-.254-.388-.123.033-.919.255-.54-.279-.171-1-.825-.17-.051.033-.462.79-.625.1-.869-.662-.707.461.033.121.255.918-.355.524-1.081.155-.171.831.112.059.827.476.119.622-.653.871.465.715.123-.033.919-.255.524.356.156 1.082.831.171.059-.112.476-.827.615-.121.878.655.708-.466-.033-.123-.255-.919.284-.546zm-3.66.048a1.191 1.191 0 1 1 1.4-.928 1.193 1.193 0 0 1-1.4.928z" fill="#62aeed"/></svg>