<svg xmlns="http://www.w3.org/2000/svg" viewBox="0 0 49 49">
    <path d="M48.273.52h-48v48h48v-48z" fill="#0072C6"/>
    <path d="M37.589 14.126v-.083c0-1.294-2.88-2.338-6.386-2.338-3.548 0-6.387 1.127-6.387 2.42v13.4c0 1.293 2.88 2.337 6.387 2.337h.083c3.506 0 6.303-1.044 6.303-2.338V14.126z" fill="#fff"/>
    <path d="M36.462 14.126c0 .834-2.379 1.502-5.259 1.502-2.88 0-5.3-.668-5.3-1.502 0-.835 2.379-1.503 5.259-1.503 2.88 0 5.3.668 5.3 1.503z" fill="#0072C6"/>
    <path d="M23.73 14.126v-.083c0-1.294-2.88-2.338-6.387-2.338-3.548 0-6.386 1.127-6.386 2.42v13.4c0 1.293 2.88 2.337 6.386 2.337h.084c3.506 0 6.302-1.044 6.302-2.338V14.126z" fill="#fff"/>
    <path d="M22.603 14.126c0 .834-2.38 1.502-5.26 1.502s-5.3-.668-5.3-1.502c0-.835 2.337-1.503 5.26-1.503 2.92 0 5.3.668 5.3 1.503zm9.14 8.266c0-2.129-4.55-3.214-7.47-3.214-2.923 0-7.472 1.085-7.472 3.214V36.04c0 2.338 3.882 3.381 7.471 3.381h1.169v-.041c3.214-.21 6.302-1.294 6.302-3.381V22.392z" fill="#0072C6"/>
    <path d="M29.364 22.558c0 .793-2.296 1.419-5.092 1.419-2.797 0-5.092-.626-5.092-1.42 0-.792 2.295-1.418 5.092-1.418 2.796 0 5.092.626 5.092 1.419z" fill="#0072C6"/>
    <path d="M30.659 22.683v-.084c0-1.294-2.88-2.337-6.386-2.337-3.548 0-6.386 1.127-6.386 2.42v13.399c0 1.294 2.88 2.337 6.386 2.337h.083c3.506 0 6.303-1.043 6.303-2.337V22.683z" fill="#fff"/>
    <path d="M29.533 22.682c0 .835-2.38 1.503-5.26 1.503s-5.3-.668-5.3-1.503c0-.834 2.379-1.502 5.3-1.502 2.922 0 5.26.668 5.26 1.502z" fill="#0072C6"/>
</svg>
