<svg xmlns="http://www.w3.org/2000/svg" viewBox="0 0 49 49">
    <path fill-rule="evenodd" clip-rule="evenodd" d="M24.501 48.093c-1.143 0-2.287-.458-3.048-1.296L2.17 27.591c-.838-.839-1.296-1.905-1.296-3.05 0-1.142.458-2.285 1.296-3.047L21.453 2.287C22.29 1.448 23.358.991 24.5.991s2.287.457 3.049 1.296l19.206 19.207c.838.838 1.296 1.905 1.296 3.048 0 1.144-.458 2.287-1.296 3.05L27.55 46.796c-.762.838-1.906 1.296-3.049 1.296z" fill="#0078D4"/>
    <path fill-rule="evenodd" clip-rule="evenodd" d="M39.134 24.543l-9.908-9.908-1.372 1.982 9.528 9.603 1.752-1.677z" fill="#50E6FF"/>
    <path fill-rule="evenodd" clip-rule="evenodd" d="M25.263 10.748l-1.676 1.676 4.267 4.193 1.372-1.982-3.963-3.887z" fill="#50E6FF"/>
    <path fill-rule="evenodd" clip-rule="evenodd" d="M9.92 24.55l13.798-13.797 1.67 1.672L11.592 26.22l-1.671-1.67z" fill="#50E6FF"/>
    <path fill-rule="evenodd" clip-rule="evenodd" d="M37.381 20.809a3.659 3.659 0 00-3.658 3.658c0 .762.228 1.448.61 2.057l-7.317 7.318c-.228-.153-.381-.23-.61-.381V14.863c1.067-.61 1.83-1.829 1.83-3.2a3.659 3.659 0 00-7.318 0c0 1.371.763 2.515 1.83 3.2v18.674c-.229.076-.38.229-.61.305l-7.317-7.318c.382-.61.61-1.296.61-1.98a3.658 3.658 0 00-7.316 0c0 1.98 1.676 3.658 3.658 3.658.458 0 .839-.077 1.22-.229l7.697 7.698c-.228.533-.381 1.067-.381 1.676a4.261 4.261 0 004.268 4.268 4.261 4.261 0 004.268-4.268c0-.61-.152-1.143-.304-1.676l7.697-7.698a3.07 3.07 0 001.143.229 3.66 3.66 0 003.658-3.659c0-2.058-1.676-3.734-3.658-3.734z" fill="#fff"/>
    <path fill-rule="evenodd" clip-rule="evenodd" d="M27.385 37.444a2.823 2.823 0 01-2.846 2.845 2.823 2.823 0 01-2.846-2.845 2.823 2.823 0 012.846-2.846c1.59.084 2.846 1.339 2.846 2.846zm-.826-25.782A2.05 2.05 0 0124.5 13.72a2.05 2.05 0 01-2.058-2.058A2.05 2.05 0 0124.5 9.605a2.05 2.05 0 012.058 2.057zM13.678 24.543a2.05 2.05 0 01-2.057 2.058 2.05 2.05 0 01-2.059-2.058 2.05 2.05 0 012.059-2.058c1.143 0 2.057.915 2.057 2.058zm25.685 0a2.05 2.05 0 01-2.057 2.058 2.05 2.05 0 01-2.059-2.058 2.05 2.05 0 012.059-2.058c1.143 0 2.057.915 2.057 2.058z" fill="#50E6FF"/>
</svg>
