<svg xmlns="http://www.w3.org/2000/svg" viewBox="0 0 16 16">
                                
                            
    <path fill="#FFFFFF" d="M1.8,16c-0.5,0-0.9-0.2-1.2-0.5C0.2,15.2,0,14.7,0,14.3c0-0.5,0.2-0.9,0.5-1.2l4.2-4.2C4,7.5,3.8,6,4.2,4.6 C4.8,1.9,7.2,0,10,0c0.5,0,1,0.1,1.4,0.2c1.6,0.4,2.9,1.4,3.7,2.7s1,3,0.7,4.6c-0.6,2.7-3,4.6-5.8,4.6c-0.5,0-1-0.1-1.4-0.2 c-0.5-0.2-1-0.3-1.4-0.6L3,15.4C2.6,15.8,2.2,16,1.8,16 M10,2.2c-1.8,0-3.2,1.2-3.6,2.9c-0.2,1-0.1,2.1,0.6,3c0.2,0.4,0.6,0.7,1,1 c0.4,0.2,0.8,0.5,1.2,0.6C9.5,9.7,9.7,9.7,10,9.7c1.8,0,3.2-1.2,3.6-2.9c0.2-1,0.1-2-0.4-2.8c-0.6-0.8-1.4-1.4-2.3-1.6 C10.6,2.3,10.3,2.2,10,2.2"></path>
</svg>