<svg xmlns="http://www.w3.org/2000/svg" viewBox="0 0 123.974 126.47"><path d="M41.854 13.786L33.581 7.9l-6.859 7.685 6.207-8.16-3.044-2.184-6.1 9.02 4.782-9.4-5.214 1.716-2.717 5.788 1.738-5.505-3.7 1.233-2.721 22.591-.869.851L26.5 38.747l10.445-5.98 1.2-3.894 1.741-5.695 1.966-6.738c-2.076-.379-4.249.664-4.793 2.472l-2.934 8.445-4.793 1.7-.652-7.874 5.12-8.912 2.717 1.99a4.2 4.2 0 005.337-.475z" fill="#f6caa7"/><path fill="#fff" d="M13.995 30.873l-3.369 4.17 13.272 8.355 3.479-4.083-13.382-8.442z"/><path d="M24.44 43.684l-14.248-8.927c-15.89 19.937-12.727 46.6 6.2 63.4a15.517 15.517 0 016.966-1.611 18.727 18.727 0 014.024.472 18.462 18.462 0 015.335-6.641C16.388 79.273 12.692 58.864 24.44 43.684z" fill="#0078d7"/><path d="M18.678 46.242a1.4 1.4 0 001.522-1.325 1.416 1.416 0 00-1.524-1.422 1.453 1.453 0 00-1.638 1.422c.002.757.653 1.325 1.64 1.325z" fill="#40cdf5"/><path d="M86.994 93.7l-1.2 3.9-1.738 5.695-1.956 6.73c2.065.379 4.241-.664 4.782-2.465l2.945-8.452 4.782-1.7.655 7.967-5.11 8.831-2.728-2a4.178 4.178 0 00-5.327.472l8.273 5.887 6.958-7.688-6.307 8.169 3.045 2.18 6.2-9.02-5.007 9.4 5.339-1.706 2.717-5.788-1.738 5.505 3.7-1.242 2.821-22.583.762-.863-11.424-7.21z" fill="#f6caa7"/><path d="M99.839 22.514A67.327 67.327 0 0092 18.534v18.127c15.662 11.3 19.041 31.224 7.51 46.121l14.248 8.924c17.842-22.493 11.756-53.338-13.919-69.192z" fill="#0078d7"/><path d="M105.276 80.223a1.4 1.4 0 00-1.524 1.326 1.416 1.416 0 001.524 1.422 1.394 1.394 0 100-2.748z" fill="#40cdf5"/><path fill="#004880" d="M51.853 3.437h18.716V38.84H51.853z"/><path d="M55.122 6.008s-1.3 0-1.3 1.04v.189s0 1.043 1.3 1.043h12.186s1.3 0 1.3-1.043v-.188s0-1.04-1.3-1.04H55.122zm0 3.981s-1.3 0-1.3 1.043v.189s0 1.05 1.3 1.05h12.186s1.3 0 1.3-1.05v-.189s0-1.043-1.3-1.043H55.122zm0 3.987s-1.3 0-1.3 1.043v.189s0 1.043 1.3 1.043h12.186s1.3 0 1.3-1.043v-.189s0-1.043-1.3-1.043H55.122zm0 4.083s-1.3 0-1.3.95v.191s0 1.043 1.3 1.043h12.186s1.3 0 1.3-1.043v-.189s0-.95-1.3-.95H55.122zm0 3.887s-1.3 0-1.3 1.043v.189s0 1.05 1.3 1.05h12.186s1.3 0 1.3-1.05v-.189s0-1.043-1.3-1.043H55.122zm0 3.99s-1.3 0-1.3 1.043v.282s0 .947 1.3.947h12.186s1.3 0 1.3-.947v-.282s0-1.043-1.3-1.043H55.122zm0 3.987s-1.3 0-1.3 1.043v.189s0 1.043 1.3 1.043h12.186s1.3 0 1.3-1.043v-.189s0-1.043-1.3-1.043H55.122zm0 3.983s-1.3 0-1.3 1.04v.189s0 1.053 1.3 1.053h12.186s1.3 0 1.3-1.053v-.189s0-1.04-1.3-1.04H55.122z" fill="#409ae1"/><path d="M66.546 7.713a.7.7 0 00.762-.568.7.7 0 00-.762-.664.773.773 0 00-.758.664c0 .282.434.568.758.568zm0 4.087a.707.707 0 00.762-.671.769.769 0 00-.762-.664.87.87 0 00-.758.664.779.779 0 00.758.671zm0 3.976a.669.669 0 100-1.326.773.773 0 00-.758.664.771.771 0 00.758.662zm0 3.894c.434 0 .762-.189.762-.568a.7.7 0 00-.762-.661.771.771 0 00-.758.661c0 .379.434.568.758.568zm0 3.99c.434 0 .762-.2.762-.578s-.328-.568-.762-.568c-.324 0-.758.189-.758.568s.434.578.758.578zm0 4.077a.631.631 0 100-1.233c-.324 0-.758.282-.758.568a.773.773 0 00.758.665zm0 3.987a.629.629 0 100-1.229c-.324 0-.758.282-.758.568a.771.771 0 00.758.661zm0 3.99a.707.707 0 00.762-.671.7.7 0 00-.762-.568c-.324 0-.758.282-.758.568a.779.779 0 00.758.671z" fill="#40cdf5"/><path fill="#004880" d="M73.287 3.437h18.716V38.84H73.287z"/><path d="M76.556 6.008s-1.2 0-1.2 1.04v.189a1.079 1.079 0 001.2 1.043h12.293s1.2 0 1.2-1.043v-.188a1.074 1.074 0 00-1.2-1.04H76.556zm0 3.981s-1.2 0-1.2 1.043v.189a1.083 1.083 0 001.2 1.05h12.293s1.2 0 1.2-1.05v-.189a1.076 1.076 0 00-1.2-1.043H76.556zm0 3.987s-1.2 0-1.2 1.043v.189a1.079 1.079 0 001.2 1.043h12.293s1.2 0 1.2-1.043v-.189a1.076 1.076 0 00-1.2-1.043H76.556zm0 4.083s-1.2 0-1.2.95v.191a1.079 1.079 0 001.2 1.043h12.293s1.2 0 1.2-1.043v-.189s0-.95-1.2-.95H76.556zm0 3.887s-1.2 0-1.2 1.043v.189a1.083 1.083 0 001.2 1.05h12.293s1.2 0 1.2-1.05v-.189a1.076 1.076 0 00-1.2-1.043H76.556zm0 3.99s-1.2 0-1.2 1.043v.282s0 .947 1.2.947h12.293s1.2 0 1.2-.947v-.282a1.076 1.076 0 00-1.2-1.043H76.556zm0 3.987s-1.2 0-1.2 1.043v.189a1.079 1.079 0 001.2 1.043h12.293s1.2 0 1.2-1.043v-.189a1.076 1.076 0 00-1.2-1.043H76.556zm0 3.983s-1.2 0-1.2 1.04v.189a1.085 1.085 0 001.2 1.053h12.293s1.2 0 1.2-1.053v-.189a1.074 1.074 0 00-1.2-1.04H76.556z" fill="#409ae1"/><path d="M88.091 7.713a.664.664 0 00.652-.568.674.674 0 00-.652-.664.7.7 0 00-.769.664.7.7 0 00.769.568zm0 4.087a.68.68 0 00.652-.671.75.75 0 00-.652-.664.768.768 0 00-.769.664.707.707 0 00.769.671zm0 3.976a.663.663 0 000-1.326.67.67 0 100 1.326zm0 3.894a.593.593 0 00.652-.568.671.671 0 00-.652-.661.7.7 0 00-.769.661c-.001.379.323.568.769.568zm0 3.99a.578.578 0 100-1.146c-.445 0-.769.189-.769.568s.323.578.769.578zm0 4.077a.674.674 0 00.652-.664.661.661 0 00-.652-.568.632.632 0 100 1.233zm0 3.987a.671.671 0 00.652-.661.661.661 0 00-.652-.568.631.631 0 100 1.229zm0 3.99a.68.68 0 00.652-.671.661.661 0 00-.652-.568.7.7 0 00-.769.568.707.707 0 00.769.671z" fill="#40cdf5"/><path d="M11.388 115.719a11.594 11.594 0 01-2.288-6.737c0-6.927 6.417-12.432 14.251-12.432a18.727 18.727 0 014.024.472c3.055-6.642 10.554-11.293 19.261-11.293 11.1 0 20.238 7.588 20.783 17.084 5.868.1 10.551 4.272 10.551 9.486a7.824 7.824 0 01-.758 3.422z" fill="#b1e1f2"/><path fill="#fff" d="M109.842 95.506l3.486-4.083-13.489-8.452-3.38 4.18 13.383 8.355z"/><path d="M58.06.311C52.722-.928 47.181 1.64 45.657 6.2a7.862 7.862 0 00.328 5.695l-5.556 2.462-5.869 2.559s-1.086.472-.545 1.428v.189a1.267 1.267 0 001.741.379l11.531-5.03a9.862 9.862 0 005.11 3.127c5.228 1.335 10.772-1.233 12.3-5.884 1.632-4.548-1.42-9.392-6.637-10.814zm7.834 125.851c5.327 1.233 10.879-1.335 12.4-5.884a7.864 7.864 0 00-.328-5.7l5.544-2.472 5.88-2.558s1.086-.475.652-1.422l-.107-.189a1.17 1.17 0 00-1.631-.379l-11.641 5.024a10.414 10.414 0 00-5.117-3.13c-5.221-1.326-10.772 1.233-12.293 5.887-1.521 4.561 1.413 9.391 6.641 10.823z" fill="#0078d7"/><path d="M71.115 110.782c-4.458-1.233-9.141 1.043-10.448 4.937s1.307 7.967 5.662 9.107c4.458 1.146 9.134-1.043 10.445-4.931 1.413-3.895-1.204-7.976-5.659-9.113zM63.6 8.66c0 4.083-3.807 7.306-8.372 7.306-4.683 0-8.49-3.223-8.49-7.306 0-3.987 3.807-7.306 8.49-7.306 4.572 0 8.372 3.319 8.372 7.306z" fill="#002050"/><path d="M47.832 8.849c-.217 0-.328.1-.328.286v1.043h-.544V7.049a5.8 5.8 0 00.221 3.6h.652c.107 0 .324 0 .324-.282V9.135c-.001-.189-.107-.286-.325-.286zm4.238-6.166c-.217 0-.217.093-.217.282v1.044H51.2v-1.8a2.434 2.434 0 01-.545.286v1.514h-.869c-.217 0-.324 0-.324.286 0 .093.107.189.324.189h2.284c.217 0 .328-.1.328-.189v-1.33c.002-.189.002-.282-.328-.282zm-.217 7.5h-1.738V7.145h1.738zm0-3.509h-1.738c-.328 0-.652.189-.652.475v3.033c0 .282.324.472.652.472h1.738a.484.484 0 00.545-.472V7.145a.484.484 0 00-.545-.475zm0 6.17h-1.738c-.328 0-.652.189-.652.475v.758c.217.093.434.282.652.379v-1.142h1.738V15.4c.11.1.328.1.545.189v-2.275a.484.484 0 00-.545-.475zM56.1 1.354v2.655h-1.847V1.354a.891.891 0 01-.541.1v2.555a.483.483 0 00.541.475H56.1a.484.484 0 00.545-.475V1.45a.909.909 0 01-.545-.096zm.217 7.5c-.217 0-.217.1-.217.286v1.043h-.65V6.67h-1.414c-.217 0-.324.1-.324.286s.107.189.324.189h.864v3.033h-.869c-.217 0-.324 0-.324.189 0 .282.107.282.324.282h2.283c.217 0 .328 0 .328-.282V9.135c.004-.189-.106-.286-.323-.286zm-.217 3.99h-1.847a.483.483 0 00-.541.475v2.558a5.254 5.254 0 01.541.093v-2.656H56.1v2.651a1.358 1.358 0 00.545-.093v-2.558a.484.484 0 00-.545-.475zm4.241-9.967v1.132h-.652V2.494c-.217-.1-.328-.189-.545-.286v1.8h-.869c-.11 0-.328 0-.328.286 0 .093.217.189.328.189h2.389a.22.22 0 00.217-.189V3.251zm0 7.306h-1.847V7.145h1.848zm0-3.509h-1.847a.484.484 0 00-.545.475v3.033a.484.484 0 00.545.472h1.848a.482.482 0 00.541-.472V7.145a.483.483 0 00-.54-.475zm-2.065 6.17c-.11 0-.328.1-.328.286s.217.189.328.189h.869v1.8c.217 0 .328-.189.545-.286v-1.99zm4.565-5.695h.545a.756.756 0 00-.11-.475h-.434a.484.484 0 00-.545.475v3.033a.484.484 0 00.545.472h.434c0-.189.11-.282.11-.472h-.545zm11.425 114.833c-.328 0-.652.189-.652.475v1.229a2.285 2.285 0 00.652-.379v-.851h.869a.984.984 0 00.434-.475zM76 119.327h-1.734v-3.04H76zm0-3.515h-1.734c-.328 0-.652.189-.652.475v3.04c0 .286.324.475.652.475H76a.487.487 0 00.552-.475v-3.04a.487.487 0 00-.552-.474zm-1.2-3.136v.481h-.869c-.217 0-.324 0-.324.193s.107.282.324.282h1.749a7.439 7.439 0 00-.872-.956zm-4.782 12.346a11.293 11.293 0 001.741-.385zm1.741-3.04h-1.734c-.324 0-.652.189-.652.475v2.661c.217 0 .434-.1.652-.1v-2.565h1.741v2.18a1.961 1.961 0 01.541-.189v-1.99a.483.483 0 00-.54-.472zm.217-3.99c-.217 0-.217.1-.217.189v1.146h-.545v-3.515H69.7c-.217 0-.328 0-.328.286 0 .189.11.189.328.189h.869v3.04H69.7c-.217 0-.328 0-.328.189s.11.286.328.286h2.283c.107 0 .324-.1.324-.286v-1.335c.001-.093-.107-.189-.323-.189zm-.217-7.02v2.186h-1.734v-2.565a1.536 1.536 0 00-.652-.1v2.661c0 .286.328.475.652.475h1.741a.483.483 0 00.541-.475v-2c-.107-.089-.323-.089-.54-.182zm-4.024 13.19c-.107 0-.324.1-.324.286v.575c.217 0 .434.1.652.1v-.671c.007-.194-.103-.29-.32-.29zm-2.283-2.18c-.107 0-.328.1-.328.189 0 .286.221.286.328.286h.869v2.369c.217 0 .434.1.652.1v-2.947zm2.283-3.99c-.107 0-.324.1-.324.189v1.146h-.431v-3.515h-1.52c-.107 0-.328 0-.328.286 0 .189.221.189.328.189h.869v3.04h-.869c-.107 0-.328 0-.328.189s.221.286.328.286h2.283c.217 0 .328-.1.328-.286v-1.335c-.001-.093-.111-.189-.328-.189zm-.324-7.5v2.661h-1.623v-2.186a1.711 1.711 0 00-.655.189v2c0 .286.328.475.655.475h1.631c.324 0 .652-.189.652-.475V110.5zm-4.241 11.49h-1.307a2.294 2.294 0 00.434.475h.873v.851a2.285 2.285 0 00.652.379v-1.229c0-.286-.328-.476-.652-.476zm.324-3.99c-.217 0-.324.1-.324.189v1.146h-.545v-3.515h-1.414c-.107 0-.328 0-.328.286 0 .189.221.189.328.189h.869v3.04h-.869c-.107 0-.328 0-.328.189s.221.286.328.286h2.283c.217 0 .328-.1.328-.286v-1.335c0-.093-.111-.189-.328-.189zm.217-6.073c-.107.1-.324.189-.541.379v.86h-.545v-.385a5.77 5.77 0 00-.762.86h1.631c.217 0 .328-.093.328-.282v-1.242c0-.094 0-.19-.111-.19z" fill="#f3f3f3"/></svg>