<svg xmlns="http://www.w3.org/2000/svg" viewBox="0 0 58.799 53.683"><path fill="none" stroke="#7a7a7a" stroke-miterlimit="10" d="M28.339 13.982h-.5"/><path fill="none" stroke="#7a7a7a" stroke-miterlimit="10" stroke-dasharray="1.102 1.102" d="M26.737 13.982h-6.06"/><path fill="none" stroke="#7a7a7a" stroke-miterlimit="10" d="M20.126 13.982h-.5"/><path fill="#7a7a7a" d="M31.468 13.982l-1.45.837-1.449.837v-3.348l1.449.837 1.45.837z"/><path fill="none" stroke="#7a7a7a" stroke-miterlimit="10" d="M46.256 30.285v.5"/><path fill="none" stroke="#7a7a7a" stroke-miterlimit="10" stroke-dasharray="1.102 1.102" d="M46.256 31.886v6.06"/><path fill="none" stroke="#7a7a7a" stroke-miterlimit="10" d="M46.256 38.497v.5"/><path fill="#59b4d9" d="M14.929 2.37L13.257.697 12.56 0H.293v17.424h15.333V3.067l-.697-.697z"/><path fill="#fff" opacity=".8" style="isolation:isolate" d="M12.49.697H.99v16.03h13.939V3.136H12.49V.697z"/><path fill="#59b4d9" d="M18.929 6.136l-1.672-1.673-.697-.697H4.293V21.19h15.333V6.833l-.697-.697z"/><path fill="#fff" opacity=".8" style="isolation:isolate" d="M16.49 4.463H4.99v16.03h13.939V6.902H16.49V4.463z"/><path fill="#59b4d9" d="M22.732 10.51L21.06 8.837l-.697-.697H8.096v17.424h15.333V11.207l-.697-.697z"/><path fill="#fff" opacity=".8" style="isolation:isolate" d="M20.293 8.837h-11.5v16.03h13.939V11.276h-2.439V8.837z"/><path fill="#59b3d9" d="M45.011 21l-6.964-3.599V9.045l6.964 3.599V21z"/><path fill="#acdaec" d="M52.501 18.261l-6.407 2.701v-8.357l6.407-2.701v8.357z"/><path fill="#3899c6" d="M38.954 8.164l6.615 3.476 6.554-2.721-6.584-3.29-6.585 2.535z"/><path d="M52.767 48.617c-.046.029-.092.053-.138.08l-.5-.855.5-1.4 2.443-.915-.051-1.972-.271-.083-2.206-.572-.574-1.375 1.061-2.314-1.425-1.353-.129.069-.11-.1-.094-.085-.262.148-1.907 1.1-1.2-.453-.958-2.352-2.017.052-.024.077-.166.008-.076.273-.6 2.1-1.211.5-2.4-.969-1.4 1.426.081.153-.133.172.148.262 1.174 1.916-.467 1.415-2.419.975.1 1.97.273.076 2.226.516.608 1.361-.518 1.209c-.046.016-.09.035-.137.049l-.381.862.09.086-.058.134 1.458 1.318.262-.148 1.963-1.132 1.444.5.793 2.269.209-.005.031.07 2.015-.1.076-.273.565-2.138 1.264-.564 2.379.96.1-.111.047.017 1.362-1.46-.148-.262zm-8.8-6.243a3.433 3.433 0 013.512-.672c.139.083.228.078.275.121a4.662 4.662 0 01.788.5c.065 0 .11.042.181.064.058.05.117.1.178.158a3.414 3.414 0 01.371.484 3.5 3.5 0 01-.78 4.5 3.433 3.433 0 01-3.528.584c-.137-.086-.226-.084-.272-.128a4.659 4.659 0 01-.776-.518c-.072 0-.119-.053-.2-.073l-.032-.027a3.42 3.42 0 01-.384-.467 3.5 3.5 0 01.667-4.526z" fill="#7a7a7a"/><path d="M42.7 45.041a3.578 3.578 0 015.969-2.678.336.336 0 00.051.023c.058.05.117.1.178.158a3.354 3.354 0 01.367.478c.04.059.067.125.1.187l3.658-4-1.425-1.353-.129.069-.11-.1-.094-.085-.262.148-1.906 1.1-1.2-.453-.958-2.352-2.017.052-.024.077-.166.008-.076.273-.6 2.1-1.211.5-2.4-.969-1.4 1.426.081.153-.126.174.148.262 1.174 1.916-.467 1.415-2.419.975.1 1.97.273.076 2.226.516.607 1.361-.518 1.209c-.046.016-.09.035-.137.049l-.381.862.09.086-.058.134 1.458 1.318.262-.148 3.39-3.708a3.584 3.584 0 01-2.048-3.229z" fill="#fff" opacity=".08"/><path fill="#7a7a7a" d="M46.256 27.386l.837 1.449.836 1.45h-3.347l.837-1.45.837-1.449z"/><path fill="none" stroke="#7a7a7a" stroke-miterlimit="10" stroke-width="1.5" d="M51.403 3.766l5.43 3.151-.029 12.974-5.444 3.127m-11.819-.155l-5.208-3.022.029-12.974 5.398-3.101"/></svg>