<svg xmlns="http://www.w3.org/2000/svg" viewBox="0 0 49 49"><path d="M15.408 32.76c-3.736 0-7.185-1.21-9.979-3.262v19.28h42.81V17.55l-15.212.067-.926.916C30.822 26.598 23.84 32.76 15.408 32.76z" fill="#0078D4"/><path d="M31.538 10.832c.252.799.445 1.623.572 2.472.126.84.193 1.698.193 2.572 0 .9-.075 1.791-.21 2.657H48.23v-7.676l-16.692-.025zm-16.13 20.146c8.346 0 15.111-6.76 15.111-15.1S23.754.778 15.408.778.297 7.537.297 15.877s6.765 15.1 15.111 15.1z" fill="#50E6FF"/><path d="M17.99 4.511h-2.557v13.84h2.558V4.51z" fill="#0078D4"/><path d="M4.035 15.791v2.556h13.95v-2.556H4.035z" fill="#0078D4"/></svg>