<svg xmlns="http://www.w3.org/2000/svg" viewBox="0 0 49 49"><path d="M24.12 45.378c11.35 0 20.552-9.202 20.552-20.553 0-11.35-9.201-20.552-20.552-20.552-11.35 0-20.552 9.202-20.552 20.552 0 11.351 9.201 20.553 20.552 20.553z" fill="#fff"/><path d="M24.288 1.07c-13.092 0-23.7 10.617-23.7 23.71 0 13.092 10.617 23.71 23.709 23.71 13.092 0 23.71-10.618 23.71-23.71 0-13.093-10.626-23.71-23.718-23.71zm0 42.67c-10.465 0-18.96-8.486-18.96-18.96s8.495-18.961 18.96-18.961c10.466 0 18.961 8.487 18.961 18.96 0 10.475-8.486 18.961-18.96 18.961z" fill="#0078D4"/><path d="M26.89 23.698V10.984h-5.136v14.844l8.908 8.908 3.629-3.629-7.401-7.41z" fill="#50E6FF"/></svg>