<svg xmlns="http://www.w3.org/2000/svg" viewBox="0 0 61 61"><path d="M20.103 32.682c-1.591 0-3.144.66-4.696 1.94l-.854.7v-3.028l.194-.155c.621-.505 1.475-.931 2.523-1.242 1.048-.35 2.018-.504 2.95-.504 1.746 0 3.143.543 4.113 1.668.97 1.087 1.436 2.678 1.436 4.696V47.43h-2.406v-1.98a7.736 7.736 0 01-1.436 1.32 6.128 6.128 0 01-3.454 1.048c-1.63 0-2.91-.465-3.881-1.397-.97-.931-1.475-2.135-1.475-3.532 0-3.027 2.018-4.85 5.86-5.433l4.386-.699c-.116-2.794-1.164-4.075-3.26-4.075zm-.466 6.947c-1.552.233-2.639.583-3.221 1.048-.543.427-.815 1.126-.815 2.135 0 .776.272 1.436.776 1.94.505.505 1.242.738 2.212.738 1.359 0 2.484-.505 3.377-1.514.892-1.009 1.358-2.329 1.358-3.959v-.931l-3.687.543zm20.39 2.887a4.83 4.83 0 00.582-.738l-3.88-3.492 9.818-.544c.427 0 .777.31.777.738l.543 9.78L44.219 45c-3.26 2.833-8.228 2.91-11.527-.078-.155-.155-.31-.272-.465-.427a7.328 7.328 0 007.8-1.98zm-19.07-21.813a4.835 4.835 0 00-.582.737l3.88 3.493-9.818.544c-.427 0-.776-.311-.776-.738l-.544-9.78 3.648 3.26c3.26-2.833 8.228-2.91 11.527.078.155.155.31.271.466.427-2.678-.932-5.783-.272-7.801 1.979zm26.253-5.504l.504-.039.116 2.018-.504.039c-2.29.155-5.2.272-8.81.31-.039.583-.078 1.242-.116 1.941a15.07 15.07 0 012.755-.272c.272 0 .543 0 .815.04l.31-1.282 2.019.427-.117.505c-.078.233-.116.427-.194.698a6.77 6.77 0 011.902.97c1.552 1.087 2.367 2.601 2.367 4.464 0 1.901-.66 3.493-1.98 4.618-1.202 1.01-2.949 1.708-5.16 1.98l-.389.038-.815-1.94.66-.078c1.824-.233 3.182-.737 4.114-1.552.931-.815 1.397-1.824 1.397-3.066 0-1.242-.544-2.174-1.591-2.91-.35-.234-.699-.428-1.087-.544-.621 1.824-1.358 3.376-2.212 4.735-1.863 2.91-4.153 4.424-6.87 4.424-1.125 0-2.018-.35-2.639-1.048-.62-.66-.931-1.591-.931-2.756 0-2.056.97-3.842 2.91-5.355a9.759 9.759 0 012.523-1.475 50.53 50.53 0 01.156-2.561h-5.24V15.47h5.434c.077-.699.194-1.398.349-2.213l.116-.504 2.096.466-.116.504c-.117.582-.233 1.126-.31 1.747 3.53-.04 6.364-.156 8.537-.272zm-6.055 6.054c-1.01 0-1.94.117-2.794.31v.04c0 1.785.116 3.376.31 4.773a7.59 7.59 0 00.776-1.087c.776-1.203 1.397-2.522 1.902-4.036h-.194zm-6.054 1.94c-1.436 1.126-2.174 2.407-2.174 3.765 0 1.281.427 1.786 1.436 1.786.815 0 1.63-.233 2.406-.699-.31-1.63-.504-3.532-.543-5.666-.388.271-.776.504-1.125.815z" fill="#FFF"/></svg>