<svg xmlns="http://www.w3.org/2000/svg" viewBox="0 0 49 49"><path d="M48.188 1.004H.297v5.038h47.89V1.004z" fill="#50E6FF"/><path d="M48.188 5.96H.297v17.65h47.89V5.96zM10.38 26.074H.297v10.084H10.38V26.074zm12.606 0H12.902v10.084h10.084V26.074z" fill="#0078D4"/><path d="M35.587 26.074H25.505v10.084h10.083V26.074zm12.605 0H38.117v10.084h10.084V26.074h-.009z" fill="#50E6FF"/><path d="M22.983 38.68H.297v10.083h22.686V38.68z" fill="#0078D4"/><path d="M48.19 38.68H25.504v10.075H48.19V38.68zm-6.356-24.04l-6.238-6.238v4.19H6.453v4.433h29.143v3.854l6.238-6.238z" fill="#50E6FF"/></svg>