<svg xmlns="http://www.w3.org/2000/svg" viewBox="0 0 48 48"><path d="M23.853 5.65c2.012 0 3.906.784 5.33 2.207l1.767-1.769a10 10 0 00-7.097-2.939 10 10 0 00-7.098 2.94l1.768 1.768a7.489 7.489 0 015.33-2.207zm0 5.12a2.4 2.4 0 011.709.708L27.33 9.71a4.895 4.895 0 00-3.477-1.44 4.91 4.91 0 00-3.478 1.44l1.768 1.768a2.4 2.4 0 011.71-.707z" fill="#0078D4"/><path d="M38.25 20.169h-2.997v19.62h1.818a4.018 4.018 0 014.05-3.907 4.017 4.017 0 014.05 3.907h2.77v-9.877h.05c0-5.365-4.378-9.743-9.74-9.743zm.994 8.092v-4.85c3.056 0 5.506 2.164 5.506 4.85h-5.506z" fill="#50E6FF"/><path d="M35.261 15.276H0v24.472h2.812a4.016 4.016 0 014.042-3.782 4.013 4.013 0 014.04 3.798l24.367.026V15.276zm5.86 21.608a3.105 3.105 0 00-3.107 3.108 3.073 3.073 0 003.107 3.107 3.073 3.073 0 003.107-3.107 3.105 3.105 0 00-3.107-3.108z" fill="#0078D4"/><path d="M6.854 36.96a3.105 3.105 0 00-3.107 3.107 3.073 3.073 0 003.107 3.108 3.073 3.073 0 003.106-3.108 3.11 3.11 0 00-3.106-3.107z" fill="#0078D4"/></svg>