<svg xmlns="http://www.w3.org/2000/svg" viewBox="0 0 48 48"><path d="M3.747 2.246c0 .824-.673 1.497-1.499 1.497A1.501 1.501 0 01.75 2.246a1.5 1.5 0 012.998 0zm8.691 0c0 .824-.674 1.497-1.5 1.497A1.501 1.501 0 019.44 2.246c0-.825.674-1.497 1.499-1.497.825 0 1.499.672 1.499 1.497zm8.699 0c0 .824-.674 1.497-1.5 1.497a1.501 1.501 0 01-1.498-1.497c0-.825.674-1.497 1.499-1.497.825 0 1.499.672 1.499 1.497z" fill="#0078D4"/><path d="M29.979 2.246c0 .824-.674 1.497-1.5 1.497a1.501 1.501 0 01-1.498-1.497c0-.825.674-1.497 1.499-1.497.825 0 1.499.672 1.499 1.497z" fill="#50E6FF"/><path d="M21.482 10.892a1.847 1.847 0 01-1.844 1.842 1.847 1.847 0 01-1.844-1.842c0-1.014.829-1.842 1.844-1.842 1.015 0 1.844.828 1.844 1.842z" fill="#0078D4"/><path d="M30.324 10.892a1.847 1.847 0 01-1.844 1.842 1.847 1.847 0 01-1.844-1.842c0-1.014.829-1.842 1.844-1.842 1.015 0 1.844.828 1.844 1.842zm8.649-8.646c0 .824-.674 1.497-1.5 1.497a1.501 1.501 0 01-1.498-1.497A1.5 1.5 0 0137.474.749c.825 0 1.499.672 1.499 1.497zm8.244 0c0 .824-.674 1.497-1.5 1.497a1.501 1.501 0 01-1.498-1.497c0-.825.674-1.497 1.499-1.497.825 0 1.499.672 1.499 1.497z" fill="#50E6FF"/><path d="M3.747 10.892c0 .824-.673 1.497-1.499 1.497A1.501 1.501 0 01.75 10.892a1.5 1.5 0 011.498-1.497c.826 0 1.5.673 1.5 1.497zm8.691 0c0 .824-.674 1.497-1.5 1.497a1.501 1.501 0 01-1.498-1.497c0-.824.674-1.497 1.499-1.497.825 0 1.499.673 1.499 1.497zM3.747 19.64a1.5 1.5 0 01-1.499 1.496A1.501 1.501 0 01.75 19.64a1.5 1.5 0 011.498-1.497c.826 0 1.5.665 1.5 1.497zm0 8.494c0 .824-.673 1.497-1.499 1.497A1.501 1.501 0 01.75 28.134a1.5 1.5 0 011.498-1.497c.826 0 1.5.664 1.5 1.497z" fill="#0078D4"/><path d="M47.217 28.445c0 .824-.674 1.497-1.5 1.497a1.501 1.501 0 01-1.498-1.497c0-.824.674-1.497 1.499-1.497.825 0 1.499.673 1.499 1.497zm0-8.805c0 .823-.674 1.496-1.5 1.496a1.501 1.501 0 01-1.498-1.497c0-.824.674-1.497 1.499-1.497.825 0 1.499.665 1.499 1.497zm0-8.748c0 .824-.674 1.497-1.5 1.497a1.501 1.501 0 01-1.498-1.497c0-.824.674-1.497 1.499-1.497.825 0 1.499.673 1.499 1.497zm-7.874 0a1.88 1.88 0 01-1.878 1.875 1.88 1.88 0 01-1.878-1.875 1.88 1.88 0 011.878-1.876c1.045 0 1.878.843 1.878 1.876z" fill="#50E6FF"/><path d="M21.635 19.64a2 2 0 01-1.997 1.994 2 2 0 01-1.998-1.995c0-1.098.898-1.995 1.998-1.995s1.997.886 1.997 1.995z" fill="#0078D4"/><path d="M30.478 19.64a2 2 0 01-1.998 1.994 2 2 0 01-1.998-1.995 2 2 0 011.998-1.995c1.1 0 1.998.886 1.998 1.995z" fill="#50E6FF"/><path d="M12.937 19.64a2 2 0 01-1.998 1.994 2 2 0 01-1.998-1.995 2 2 0 011.998-1.995c1.1 0 1.998.886 1.998 1.995zm8.545 8.494a1.847 1.847 0 01-1.844 1.842 1.847 1.847 0 01-1.844-1.842c0-1.014.829-1.842 1.844-1.842a1.84 1.84 0 011.844 1.842zm-8.56 0c0 1.09-.891 1.98-1.983 1.98a1.986 1.986 0 01-1.983-1.98c0-1.09.891-1.98 1.983-1.98a1.98 1.98 0 011.983 1.98zM3.747 36.68a1.5 1.5 0 01-1.499 1.496A1.501 1.501 0 01.75 36.68a1.5 1.5 0 011.498-1.497c.826 0 1.5.673 1.5 1.497zm8.691 0c0 .824-.674 1.496-1.5 1.496A1.501 1.501 0 019.44 36.68c0-.824.674-1.497 1.499-1.497.825 0 1.499.673 1.499 1.497z" fill="#0078D4"/><path d="M39.463 19.64a2 2 0 01-1.998 1.994 2 2 0 01-1.998-1.995 2 2 0 011.998-1.995c1.111 0 1.998.886 1.998 1.995z" fill="#50E6FF"/><path d="M40.396 25.19H27.655v22.7h12.74v-22.7zm-12.741 7.435h-9.988v15.266h9.988V32.625z" fill="#0078D4"/><path d="M48 37.773H37.92v10.11H48v-10.11zm-35.495 4.39h-.758l-.892 4.97h1.355a1.019 1.019 0 011.028-.992c.564 0 1.01.438 1.027.993h.708v-2.507h.016a2.5 2.5 0 00-2.484-2.464zm.253 2.052v-1.228c.775 0 1.398.547 1.398 1.228h-1.398z" fill="#0078D4"/><path d="M11.748 40.927H2.796v6.199h.716a1.019 1.019 0 011.027-.96c.547 0 .994.421 1.027.96l6.182.008v-6.207zm1.482 5.475a.79.79 0 00-.792.79.78.78 0 00.792.791.78.78 0 00.791-.79.79.79 0 00-.791-.791z" fill="#0078D4"/><path d="M4.539 46.419a.79.79 0 00-.792.79.78.78 0 00.792.791.78.78 0 00.791-.79.796.796 0 00-.791-.791z" fill="#0078D4"/><path d="M37.928 28.689h-7.604v2.506h7.604V28.69zm0 6.611h-7.604v2.506h7.604V35.3zm0 7.704h-7.604v2.506h7.604v-2.506zM27.806 35.3h-7.604v2.506h7.604V35.3zm0 7.704h-7.604v2.506h7.604v-2.506z" fill="#50E6FF"/></svg>