<svg xmlns="http://www.w3.org/2000/svg" viewBox="0 0 48 41"><path d="M9.772 33.632h17.172V41H0v-3.037c0-2.062.348-3.909 1.045-5.54.697-1.65 1.572-3.121 2.627-4.415a22.236 22.236 0 013.445-3.459 80.05 80.05 0 013.587-2.727 40.963 40.963 0 003.107-2.419c.903-.768 1.657-1.528 2.26-2.277.62-.77 1.082-1.538 1.383-2.306a6.944 6.944 0 00.452-2.503c0-1.725-.49-3.028-1.469-3.909-.979-.881-2.476-1.322-4.49-1.322-3.484 0-6.816 1.378-9.998 4.134V3.403C5.469 1.134 9.442 0 13.867 0c2.052 0 3.888.272 5.508.816 1.638.524 3.021 1.284 4.151 2.277a9.611 9.611 0 012.57 3.628C26.7 8.127 27 9.7 27 11.445c0 1.856-.292 3.506-.875 4.95a14.678 14.678 0 01-2.288 3.936 20.693 20.693 0 01-3.276 3.262 76.06 76.06 0 01-3.87 2.84c-.903.638-1.779 1.275-2.626 1.913a22.789 22.789 0 00-2.203 1.856c-.64.6-1.149 1.19-1.525 1.771-.377.581-.565 1.135-.565 1.66z" fill="#0078D4"/><path d="M23 39.3v-7.402c2.72 1.645 5.614 2.467 8.685 2.467 2.312 0 4.116-.539 5.41-1.617 1.314-1.097 1.97-2.577 1.97-4.442 0-3.893-2.783-5.84-8.351-5.84-2.054 0-4.421.156-7.104.467L25.11 1h21.06v7.073H31.796l-.555 7.869a49.043 49.043 0 013.69-.165c4.088 0 7.288 1.06 9.6 3.18C46.845 21.078 48 23.93 48 27.511c0 3.966-1.378 7.21-4.134 9.733C41.109 39.748 37.373 41 32.656 41c-3.83 0-7.048-.567-9.656-1.7z" fill="#50E6FF"/><path fill-rule="evenodd" clip-rule="evenodd" d="M26.82 33.633l.123.037v6.826c-1.44-.28-2.755-.68-3.943-1.196v-5.667h3.82zM24.868 4.54a9.83 9.83 0 011.23 2.18c.602 1.406.903 2.98.903 4.724 0 1.856-.292 3.506-.875 4.95a14.678 14.678 0 01-2.341 4.003L24.867 4.54z" fill="#3CCAF4"/></svg>