<svg xmlns="http://www.w3.org/2000/svg" viewBox="0 0 48 49"><path d="M47.907 18.198H.06V30.77h47.849V18.198z" fill="#0078D4"/><path d="M47.908 18.198H35.31V30.77h12.598V18.198z" fill="#50E6FF"/><path d="M43.392 25.434a3.664 3.664 0 00-.789-5.22 3.605 3.605 0 00-2.115-.672 3.657 3.657 0 00-3.66 3.659 3.657 3.657 0 003.66 3.66c.79 0 1.52-.252 2.115-.672.017-.009.034-.025.05-.034l3.282 3.282.73-.73-3.273-3.273zm-.789-.697a2.608 2.608 0 01-4.725-1.527 2.608 2.608 0 014.725-1.528c.31.428.495.965.495 1.536a2.478 2.478 0 01-.495 1.519z" fill="#0078D7"/><path d="M42.872 1.732H31.365v8.813h2.702v2.703l2.703-2.703h6.102V1.732z" fill="#50E6FF"/><path d="M34.622 5.123c-.31 0-.596.075-.831.226l-.017.009v.503l.067-.058c.218-.185.478-.286.747-.286.294 0 .437.177.445.53l-.68.091c-.546.076-.822.353-.822.815 0 .218.075.394.218.528.142.135.335.202.587.202a.826.826 0 00.697-.344v.285h.462V6.029c.008-.596-.294-.906-.873-.906zm.41 1.318v.193a.674.674 0 01-.175.478.565.565 0 01-.437.185.438.438 0 01-.302-.101.32.32 0 01-.11-.252c0-.143.043-.243.118-.302a.91.91 0 01.378-.126l.529-.075zm2.359-1.318a.93.93 0 00-.789.395V4.032h-.461v3.61h.461v-.27a.83.83 0 00.68.32c.344 0 .63-.126.831-.378.201-.243.302-.58.302-.982 0-.37-.092-.663-.268-.881-.185-.219-.437-.328-.756-.328zm.546 1.209c0 .302-.067.545-.185.713a.603.603 0 01-.512.252.596.596 0 01-.453-.193.674.674 0 01-.185-.47v-.336a.84.84 0 01.193-.554.641.641 0 01.504-.218c.201 0 .352.067.462.21.117.143.176.344.176.596zm2.098-.806c.193 0 .378.058.546.176l.067.05V5.25l-.026-.009a1.264 1.264 0 00-.57-.117c-.386 0-.697.126-.932.37-.235.243-.352.57-.352.973 0 .36.109.663.327.89.218.226.504.344.856.344.26 0 .487-.06.671-.168l.017-.009v-.47l-.067.05a.906.906 0 01-.562.202.734.734 0 01-.563-.227c-.142-.15-.21-.369-.21-.629 0-.269.076-.495.227-.663a.708.708 0 01.57-.26z" fill="#0078D4"/><path d="M13.815 5.617H2.308v8.812h2.703l2.702 2.703v-2.703h6.102V5.617z" fill="#50E6FF"/><path d="M5.95 9.008a.93.93 0 00-.788.394V7.917H4.7v3.609h.462v-.269c.167.21.394.319.68.319.344 0 .629-.126.83-.378.202-.243.302-.579.302-.982 0-.369-.092-.663-.268-.88-.185-.22-.437-.328-.755-.328zm.546 1.208c0 .303-.067.546-.185.714a.603.603 0 01-.512.252.596.596 0 01-.453-.194.674.674 0 01-.184-.47v-.335a.84.84 0 01.193-.554.642.642 0 01.503-.218c.202 0 .353.067.462.21.117.142.176.344.176.595zm2.116-1.209c-.387 0-.697.126-.932.37-.235.243-.353.57-.353.973 0 .361.11.663.328.89.218.226.503.344.856.344.26 0 .487-.059.671-.168l.017-.008v-.47l-.067.05a.906.906 0 01-.562.201.733.733 0 01-.563-.226c-.142-.151-.21-.37-.21-.63 0-.268.076-.495.227-.663a.727.727 0 01.57-.252c.194 0 .378.06.546.177l.067.05V9.15l-.025-.009c-.168-.1-.36-.134-.57-.134zm1.988 0c-.31 0-.595.076-.83.227l-.017.008v.504l.067-.059a1.15 1.15 0 01.747-.285c.294 0 .436.176.445.528l-.68.093c-.546.075-.823.352-.823.814a.7.7 0 00.218.529c.143.134.336.201.588.201a.825.825 0 00.697-.344v.285h.461V9.914c.009-.596-.285-.907-.873-.907zm.42 1.318v.193a.674.674 0 01-.176.478.565.565 0 01-.437.185.438.438 0 01-.302-.1.32.32 0 01-.109-.252c0-.143.042-.244.118-.303a.9.9 0 01.377-.126l.529-.075z" fill="#0078D4"/><path d="M11.28 43.36h11.507v-8.813h-2.702v-2.702l-2.703 2.702H11.28v8.813z" fill="#50E6FF"/><path d="M14.814 38.098c-.386 0-.697.126-.932.37-.235.242-.352.57-.352.973 0 .36.109.663.327.89.218.226.504.343.856.343.26 0 .487-.058.672-.167l.016-.009v-.47l-.067.05a.906.906 0 01-.562.202.734.734 0 01-.562-.227c-.143-.15-.21-.369-.21-.63 0-.268.075-.494.226-.662a.727.727 0 01.571-.252c.193 0 .378.059.546.176l.067.05v-.495l-.025-.008a1.127 1.127 0 00-.571-.134zm2.341.002a.93.93 0 00-.789.394v-1.477h-.461v3.609h.461v-.269c.168.21.395.319.68.319.344 0 .63-.126.831-.378.202-.243.302-.579.302-.982 0-.369-.092-.663-.268-.881-.185-.227-.437-.336-.756-.336zm.546 1.208c0 .302-.067.545-.185.713a.603.603 0 01-.512.252.595.595 0 01-.453-.193.674.674 0 01-.185-.47v-.336a.84.84 0 01.193-.554.642.642 0 01.504-.218c.202 0 .353.067.462.21.117.143.176.344.176.596zm1.846-1.21c-.31 0-.596.075-.83.227l-.017.008v.503l.067-.058c.218-.185.478-.286.747-.286.294 0 .436.177.445.53l-.68.091c-.546.076-.823.353-.823.815 0 .218.076.394.218.528.143.135.336.202.588.202a.826.826 0 00.697-.344v.285h.461v-1.595c.009-.596-.294-.906-.873-.906zm.412 1.318v.193a.674.674 0 01-.177.478.565.565 0 01-.436.185.438.438 0 01-.302-.101.32.32 0 01-.11-.252c0-.142.043-.243.118-.302a.9.9 0 01.378-.126l.529-.075z" fill="#0078D4"/></svg>