<svg xmlns="http://www.w3.org/2000/svg" viewBox="0 0 48 49"><path d="M15.364.949H.584v9.898h14.78V.949zM31.386.949h-14.78v9.898h14.78V.949zM47.417.949H32.636v9.898h14.78V.949zM15.364 12.121H.584v1.2h14.78v-1.2zM31.386 12.121h-14.78v1.2h14.78v-1.2zM47.417 12.121H32.636v1.2h14.78v-1.2z" fill="#0078D4"/><path d="M15.364 14.463H.584v1.2h14.78v-1.2zM31.386 14.463h-14.78v1.2h14.78v-1.2zM47.417 14.463H32.636v1.2h14.78v-1.2zM15.364 17.103H.584v9.898h14.78v-9.898zM31.386 17.103h-14.78v9.898h14.78v-9.898zM47.417 17.103H32.636v9.898h14.78v-9.898z" fill="#3BCAF4"/><path d="M15.364 28.284H.584v1.2h14.78v-1.2zM31.386 28.284h-14.78v1.2h14.78v-1.2zM47.417 28.284H32.636v1.2h14.78v-1.2z" fill="#0078D4"/><path d="M15.364 30.626H.584v1.2h14.78v-1.2zM31.386 30.626h-14.78v1.2h14.78v-1.2zM47.417 30.626H32.636v1.2h14.78v-1.2z" fill="#3BCAF4"/><path d="M15.364 33.423H.584v9.898h14.78v-9.898zM31.386 33.423h-14.78v9.898h14.78v-9.898zM47.417 33.423H32.636v9.898h14.78v-9.898z" fill="#50E6FF"/><path d="M15.364 44.605H.584v1.2h14.78v-1.2zM31.386 44.605h-14.78v1.2h14.78v-1.2zM47.417 44.605H32.636v1.2h14.78v-1.2z" fill="#3BCAF4"/><path d="M15.364 46.946H.584v1.2h14.78v-1.2zM31.386 46.946h-14.78v1.2h14.78v-1.2zM47.417 46.946H32.636v1.2h14.78v-1.2zM14.371 1.752H1.427v7.29h12.944v-7.29z" fill="#50E6FF"/><path d="M1.42 6.642v2.516h13.183l-1.763-1.68-2.251 2.094-3.02-3.103-1.16 1.167-3.053-2.98L1.41 6.601l.008.041zM7.758 3.572a.952.952 0 11-1.903 0c0-.53.422-.96.943-.96.53 0 .96.43.96.96z" fill="#0078D4"/><path d="M30.559 1.752H17.615v7.29H30.56v-7.29z" fill="#50E6FF"/><path d="M17.607 6.642v2.516H30.79l-1.763-1.68-2.251 2.094-3.021-3.103-1.159 1.167-3.053-2.98-1.945 1.945.008.041zM23.946 3.572a.952.952 0 01-1.904 0c0-.53.423-.96.944-.96.53 0 .96.43.96.96z" fill="#0078D4"/><path d="M46.59 1.752H33.644v7.29H46.59v-7.29z" fill="#50E6FF"/><path d="M33.637 6.643v2.516h13.184l-1.763-1.68-2.251 2.094-3.013-3.096-1.158 1.167-3.054-2.98-1.945 1.946v.033zM39.977 3.572a.952.952 0 01-1.904 0c0-.53.422-.96.944-.96.53 0 .96.43.96.96zM14.371 18.544H1.427v7.29h12.944v-7.29z" fill="#0078D4"/><path d="M1.42 23.434v2.508h13.183l-1.763-1.68-2.26 2.094-3.012-3.096-1.158 1.167-3.054-2.98-1.945 1.946.008.041zM7.758 20.364a.952.952 0 01-1.903 0c0-.53.422-.96.943-.96.53 0 .96.43.96.96z" fill="#3BCAF4"/><path d="M30.559 18.544H17.615v7.29H30.56v-7.29z" fill="#0078D4"/><path d="M17.607 23.434v2.508H30.79l-1.763-1.68-2.26 2.094-3.012-3.096-1.159 1.167-3.053-2.98-1.945 1.946.008.041zM23.946 20.364a.952.952 0 01-1.904 0c0-.53.423-.96.944-.96.53 0 .96.43.96.96z" fill="#3BCAF4"/><path d="M46.59 18.544H33.644v7.29H46.59v-7.29z" fill="#0078D4"/><path d="M33.637 23.434v2.508h13.184l-1.763-1.68-2.251 2.094-3.013-3.096-1.158 1.167-3.054-2.98-1.945 1.946v.041zM39.977 20.364a.952.952 0 01-1.904 0c0-.53.422-.96.944-.96.53 0 .96.43.96.96z" fill="#3BCAF4"/><path d="M14.371 34.673H1.427v7.291h12.944v-7.291z" fill="#0078D4"/><path d="M1.42 39.565v2.515h13.183L12.84 40.4l-2.251 2.094L7.576 39.4l-1.158 1.167-3.054-2.98-1.953 1.937.008.041zM7.758 36.494a.952.952 0 01-1.903 0c0-.53.422-.96.943-.96.53 0 .96.43.96.96z" fill="#50E6FF"/><path d="M30.559 34.673H17.615v7.291H30.56v-7.291z" fill="#0078D4"/><path d="M17.607 39.564v2.516H30.79l-1.763-1.68-2.251 2.094-3.021-3.104-1.159 1.167-3.053-2.98-1.945 1.946.008.041zM23.946 36.494c0 .53-.422.951-.952.951a.952.952 0 01-.951-.951c0-.53.422-.96.943-.96.53 0 .96.43.96.96z" fill="#50E6FF"/><path d="M46.59 34.673H33.644v7.291H46.59v-7.291z" fill="#0078D4"/><path d="M33.637 39.565v2.515h13.184l-1.763-1.68-2.251 2.094-3.013-3.095-1.158 1.167-3.054-2.98-1.945 1.945v.034zM39.977 36.494c0 .53-.422.951-.952.951a.952.952 0 01-.952-.951c0-.53.422-.96.944-.96.53 0 .96.43.96.96z" fill="#50E6FF"/></svg>