<svg xmlns="http://www.w3.org/2000/svg" viewBox="0 0 48 49"><path d="M47.387 24.654H.613v12.287h46.774V24.654z" fill="#50E6FF"/><path d="M42.804 31.628c.41-.542.657-1.216.657-1.947a3.185 3.185 0 00-3.195-3.186 3.193 3.193 0 00-3.195 3.194 3.193 3.193 0 005.043 2.604.179.179 0 00.041-.033l2.858 2.858.641-.632-2.85-2.858zm-.69-.6a2.275 2.275 0 11-1.848-3.606c.756 0 1.43.37 1.84.945.271.378.435.838.435 1.339.009.485-.148.945-.427 1.322z" fill="#0078D7"/><path d="M27.388 12.163h-5.01v7.293h5.01v-7.293z" fill="#0078D4"/><path d="M26.477 13.074h-3.195v1.372h3.195v-1.372zM23.742 15.349h-.46v.46h.46v-.46zM23.742 16.713h-.46v.46h.46v-.46zM23.742 18.084h-.46v.46h.46v-.46zM25.113 15.349h-.46v.46h.46v-.46zM25.113 16.713h-.46v.46h.46v-.46zM25.113 18.084h-.46v.46h.46v-.46zM26.477 15.349h-.46v.46h.46v-.46zM26.477 16.713h-.46v.46h.46v-.46zM26.477 18.084h-.46v.46h.46v-.46z" fill="#50E6FF"/><path d="M8.366 12.162H1.402a.762.762 0 00-.764.763v5.807c0 .427.345.764.764.764h6.964a.762.762 0 00.764-.764v-5.806a.752.752 0 00-.764-.764z" fill="#0078D4"/><path d="M4.884 16.187a.365.365 0 00.362-.361.365.365 0 00-.362-.361.365.365 0 00-.361.361.365.365 0 00.361.361z" fill="#50E6FF"/><path d="M4.884 14.134c-.936 0-1.7.764-1.7 1.7 0 .936.764 1.7 1.7 1.7.936 0 1.7-.764 1.7-1.7 0-.945-.755-1.7-1.7-1.7zm0 3.055a1.369 1.369 0 01-1.371-1.371 1.378 1.378 0 011.371-1.364c.748 0 1.38.608 1.38 1.372 0 .755-.616 1.363-1.38 1.363zM19.29 12.163h-7.236v7.227h7.236v-7.227z" fill="#50E6FF"/><path d="M12.046 17v2.497h7.244v-1.528.016l-1.15-1.158-1.15 1.158-3.03-2.956-1.93 1.93.016.04zM18.329 13.97a.945.945 0 01-1.89 0 .945.945 0 111.89 0zM35.856 19.472h-5.38v-7.31h3.72l.337 1.085 1.33.583v5.642h-.007z" fill="#0078D4"/><path d="M35.847 13.822H34.18v-1.668l1.667 1.668z" fill="#50E6FF"/><path d="M34.492 14.635h-2.677v.443h2.677v-.443zM34.492 15.998h-2.677v.444h2.677v-.444zM34.492 17.328h-2.677v.444h2.677v-.444z" fill="#fff"/><path d="M44.669 13.526l-.575 5.98h2.521a.659.659 0 00.657-.658v-4.665a.659.659 0 00-.657-.657H44.67z" fill="#50E6FF"/><path d="M39.174 19.513h5.166c.345 0 .632-.279.632-.632v-6.086a.633.633 0 00-.632-.632h-5.166a.633.633 0 00-.633.632v6.086c0 .345.28.632.633.632z" fill="#0078D4"/><path d="M41.227 13.066h-1.766v1.766h1.766v-1.766zM44.053 13.066h-2.3v.255h2.3v-.255zM44.07 14.577h-2.3v.255h2.3v-.255zM44.053 13.822h-2.3v.254h2.3v-.254zM42.312 18.52h1.765v-1.766h-1.765v1.765zM39.461 18.495h2.3v-.255h-2.3v.255zM39.461 16.992h2.3v-.255h-2.3v.255zM39.461 17.747h2.3v-.254h-2.3v.255zM44.044 15.374h-4.583v.772h4.583v-.772z" fill="#50E6FF"/></svg>