<svg xmlns="http://www.w3.org/2000/svg" viewBox="0 0 48 49"><path d="M15.5 1.32H.95v9.743H15.5V1.32zM31.27 1.32H16.722v9.742H31.27V1.32zM47.048 1.32H32.5v9.742h14.548V1.32zM15.5 12.317H.95v1.181H15.5v-1.181zM31.27 12.317H16.722v1.181H31.27v-1.181zM47.048 12.317H32.5v1.181h14.548v-1.181zM15.5 14.622H.95v1.181H15.5v-1.18zM31.27 14.622H16.722v1.181H31.27v-1.18zM47.048 14.622H32.5v1.181h14.548v-1.18z" fill="#0078D4"/><path d="M15.5 17.22H.95v9.743H15.5V17.22zM31.27 17.22H16.722v9.743H31.27V17.22zM47.048 17.22H32.5v9.743h14.548V17.22z" fill="#3BCAF4"/><path d="M15.5 28.226H.95v1.18H15.5v-1.18zM31.27 28.226H16.722v1.18H31.27v-1.18zM47.048 28.226H32.5v1.18h14.548v-1.18zM15.5 30.531H.95v1.181H15.5v-1.18zM31.27 30.531H16.722v1.181H31.27v-1.18zM47.048 30.531H32.5v1.181h14.548v-1.18z" fill="#0078D4"/><path d="M15.5 33.284H.95v9.743H15.5v-9.743zM31.27 33.284H16.722v9.743H31.27v-9.743zM47.048 33.284H32.5v9.743h14.548v-9.743z" fill="#50E6FF"/><path d="M15.5 44.29H.95v1.18H15.5v-1.18zM31.27 44.29H16.722v1.18H31.27v-1.18zM47.048 44.29H32.5v1.18h14.548v-1.18zM15.5 46.594H.95v1.181H15.5v-1.18zM31.27 46.594H16.722v1.181H31.27v-1.18zM47.048 46.594H32.5v1.181h14.548v-1.18z" fill="#0078D4"/></svg>