<svg xmlns="http://www.w3.org/2000/svg" viewBox="0 0 48 49"><path d="M47.874 10.65H.042v12.568h47.832V10.65z" fill="#50E6FF"/><path d="M43.184 17.781c.42-.554.671-1.242.671-1.988a3.254 3.254 0 00-3.264-3.256 3.262 3.262 0 00-3.263 3.264 3.262 3.262 0 005.151 2.66.182.182 0 00.042-.034l2.92 2.92.654-.646-2.911-2.92zm-.705-.62a2.324 2.324 0 11-1.888-3.683c.772-.001 1.46.377 1.88.964.277.386.445.856.445 1.367.008.496-.152.965-.437 1.351z" fill="#0078D7"/><path d="M27.42 30.828h-5.127v7.459h5.126v-7.46z" fill="#0078D4"/><path d="M26.488 31.76h-3.264v1.4h3.264v-1.4zM23.694 34.083h-.47v.47h.47v-.47zM23.694 35.484h-.47v.47h.47v-.47zM23.694 36.886h-.47v.47h.47v-.47zM25.095 34.083h-.47v.47h.47v-.47zM25.095 35.484h-.47v.47h.47v-.47zM25.095 36.886h-.47v.47h.47v-.47zM26.488 34.083h-.47v.47h.47v-.47zM26.488 35.484h-.47v.47h.47v-.47zM26.488 36.886h-.47v.47h.47v-.47z" fill="#50E6FF"/><path d="M7.97 30.828H.848a.779.779 0 00-.78.78v5.94c0 .437.353.78.78.78h7.124c.436 0 .78-.352.78-.78v-5.94a.768.768 0 00-.78-.78z" fill="#0078D4"/><path d="M4.413 34.947c.201 0 .37-.167.37-.369a.372.372 0 00-.37-.369.372.372 0 00-.37.37c0 .2.169.368.37.368z" fill="#50E6FF"/><path d="M4.413 32.842a1.74 1.74 0 00-1.736 1.736c0 .957.78 1.737 1.736 1.737a1.74 1.74 0 001.737-1.737 1.73 1.73 0 00-1.737-1.736zm0 3.13c-.772 0-1.4-.622-1.4-1.402a1.405 1.405 0 012.81 0 1.4 1.4 0 01-1.41 1.401zM19.138 30.828h-7.4v7.392h7.4v-7.392z" fill="#50E6FF"/><path d="M11.73 35.778v2.55h7.408v-1.56.017l-1.175-1.183-1.174 1.183-3.096-3.02-1.972 1.971.008.042zM18.156 32.674a.965.965 0 01-1.93 0 .965.965 0 111.93 0zM36.078 38.304h-5.504v-7.476h3.8l.344 1.107 1.36.596v5.773z" fill="#0078D4"/><path d="M36.07 32.523h-1.704v-1.704l1.703 1.704z" fill="#50E6FF"/><path d="M34.685 33.353H31.95v.453h2.735v-.453zM34.685 34.746H31.95v.453h2.735v-.453zM34.685 36.114H31.95v.453h2.735v-.453z" fill="#fff"/><path d="M45.097 32.22l-.587 6.117h2.576c.369 0 .67-.302.67-.671v-4.774a.673.673 0 00-.67-.671h-1.989z" fill="#50E6FF"/><path d="M39.476 38.346h5.285a.646.646 0 00.646-.646v-6.226a.646.646 0 00-.646-.646h-5.285a.646.646 0 00-.646.646V37.7c0 .352.285.645.646.645z" fill="#0078D4"/><path d="M41.573 31.75H39.77v1.805h1.804V31.75zM44.468 31.75h-2.35v.26h2.35v-.26zM44.484 33.295h-2.349v.26h2.35v-.26zM44.468 32.523h-2.35v.26h2.35v-.26zM42.68 37.33h1.804v-1.804h-1.803v1.804zM39.77 37.305h2.348v-.26H39.77v.26zM39.77 35.77h2.348v-.26H39.77v.26zM39.77 36.541h2.348v-.26H39.77v.26zM44.46 34.108h-4.69v.79h4.69v-.79z" fill="#50E6FF"/></svg>