<svg xmlns="http://www.w3.org/2000/svg" viewBox="0 0 48 48"><path fill="none" d="M0 0h48v48H0z"/><path fill-rule="evenodd" clip-rule="evenodd" d="M0 48h48V4.5H0V48zm6.75-30.75h4.5v-4.5h-4.5v4.5zm19.5 7.5h-4.5v-4.5h4.5v4.5zm-12 7.5h4.5v-4.5h-4.5v4.5zm19.5 7.5h-4.5v-4.5h4.5v4.5z" fill="#303030"/><path fill-rule="evenodd" clip-rule="evenodd" d="M0 4.5h48V1a1 1 0 00-1-1H1a1 1 0 00-1 1v3.5zM14.25 17.25h4.5v-4.5h-4.5v4.5zM21.75 17.25h4.5v-4.5h-4.5v4.5zM29.25 17.25h4.5v-4.5h-4.5v4.5zM6.75 24.75h4.5v-4.5h-4.5v4.5zM14.25 24.75h4.5v-4.5h-4.5v4.5zM29.25 24.75h4.5v-4.5h-4.5v4.5zM6.75 32.25h4.5v-4.5h-4.5v4.5zM21.75 32.25h4.5v-4.5h-4.5v4.5zM29.25 32.25h4.5v-4.5h-4.5v4.5zM6.75 39.75h4.5v-4.5h-4.5v4.5zM14.25 39.75h4.5v-4.5h-4.5v4.5zM21.75 39.75h4.5v-4.5h-4.5v4.5zM36.75 17.25h4.5v-4.5h-4.5v4.5zM36.75 24.75h4.5v-4.5h-4.5v4.5zM36.75 32.25h4.5v-4.5h-4.5v4.5zM36.75 39.75h4.5v-4.5h-4.5v4.5z" fill="#0078D4"/></svg>