<svg xmlns="http://www.w3.org/2000/svg" viewBox="0 0 49 49"><path d="M.396 48.41h48V4.906h-48V48.41z" fill="#0078D4"/><path d="M.396 5.513h48V.41h-48v5.103zm11.259 30.139H6.628v5.028h5.027v-5.028zm7.605 0h-5.028v5.028h5.028v-5.028zm7.57 0h-5.027v5.028h5.027v-5.028z" fill="#50E6FF"/><path d="M34.392 35.652h-5.027v5.028h5.027v-5.028z" fill="#fff"/><path d="M41.997 35.652h-5.028v5.028h5.028v-5.028zM11.655 28.09H6.628v5.027h5.027V28.09z" fill="#50E6FF"/><path d="M19.26 28.09h-5.028v5.027h5.028V28.09z" fill="#fff"/><path d="M26.83 28.09h-5.027v5.027h5.027V28.09zm7.562 0h-5.027v5.027h5.027V28.09zm7.605 0h-5.028v5.027h5.028V28.09zm-30.342-7.563H6.628v5.028h5.027v-5.028zm7.605 0h-5.028v5.028h5.028v-5.028z" fill="#50E6FF"/><path d="M26.83 20.527h-5.027v5.028h5.027v-5.028z" fill="#fff"/><path d="M34.392 20.527h-5.027v5.028h5.027v-5.028zm7.605 0h-5.028v5.028h5.028v-5.028z" fill="#50E6FF"/><path d="M11.655 13.008H6.628v5.027h5.027v-5.027z" fill="#fff"/><path d="M19.26 13.008h-5.028v5.027h5.028v-5.027zm7.57 0h-5.027v5.027h5.027v-5.027zm7.562 0h-5.027v5.027h5.027v-5.027zm7.605 0h-5.028v5.027h5.028v-5.027z" fill="#50E6FF"/></svg>