<svg xmlns="http://www.w3.org/2000/svg" viewBox="0 0 48 48"><path d="M40.968 6l-1.785 1.785c1.97 1.97 3.52 4.27 4.606 6.83a21.304 21.304 0 011.685 8.353c0 2.897-.565 5.71-1.685 8.354a21.305 21.305 0 01-4.606 6.83l1.785 1.785A23.902 23.902 0 0048 22.968 23.902 23.902 0 0040.968 6zM25.516 9.689c-.287-.396-.598-.615-.91-.615a.792.792 0 00-.354.093c-.016.008-.033.025-.05.034-.042.033-.093.058-.135.092-.017.009-.025.025-.042.034-1.204 1.027-2.156 5.17-2.434 10.493a3.024 3.024 0 012.08.892c.556.556.893 1.314.893 2.164a3.058 3.058 0 01-2.981 3.057c.261 5.423 1.221 9.66 2.442 10.703.05.042.101.084.16.118a.79.79 0 00.421.127c.32 0 .623-.22.91-.615.825-1.145 1.507-3.823 1.878-7.293.193-1.81.303-3.84.303-5.987 0-2.148-.11-4.169-.303-5.988-.371-3.486-1.045-6.164-1.878-7.309z" fill="#50E6FF"/><path d="M26.652 9.283c.043-.033.076-.059.118-.084l-.294.093.126.025c.017-.008.034-.025.05-.034zm.186-6.115c-.025.008-.042.025-.068.034l.017-.009.05-.025zM26.787 9.2l-.017.008c-.042.025-.084.05-.118.084.05-.034.093-.068.135-.093zm-.311 27.446l.219.067c-.043-.025-.085-.059-.127-.084-.034.008-.059.008-.092.017zM2.467 29.285c.009.009.026 0 .034 0-.017.009-.025.009-.034 0zm-.194-.008c.06.009.127.017.194.017v-.008c-.067 0-.126-.009-.194-.009z" fill="#fff"/><path d="M21.591 25.917a3.005 3.005 0 001.98-.791 3.045 3.045 0 001.002-2.266c0-.842-.346-1.608-.893-2.164a3.023 3.023 0 00-2.08-.892c.278-5.322 1.23-9.466 2.434-10.493.017-.008.025-.025.042-.034-.017.009-.034.017-.05.034a46.963 46.963 0 01-14.333 6.19 48.092 48.092 0 01-7.057 1.162 1.034 1.034 0 00-.16-.017c-.11 0-.21.017-.32.05C.935 17.11 0 19.762 0 22.978c0 3.327 1.002 6.055 2.274 6.3.067.008.126.008.193.016h.034c1.339.118 2.67.286 3.975.505 1.095.186 2.172.413 3.233.674.11.025.22.059.329.084v11.36h5.053V32.14a47.012 47.012 0 018.884 4.489c.042.025.084.059.126.084l.076.025c-.05-.033-.11-.067-.16-.118-1.204-1.035-2.173-5.28-2.425-10.703z" fill="#0078D4"/><path d="M37.895 22.97c0-3.89-1.356-7.47-3.621-10.282L32.48 14.48a13.843 13.843 0 012.888 8.489 13.81 13.81 0 01-2.88 8.48l1.794 1.793a16.36 16.36 0 003.613-10.273z" fill="#50E6FF"/></svg>