<svg xmlns="http://www.w3.org/2000/svg" viewBox="0 0 48 48"><path fill="none" d="M0 0h48v48H0z"/><path fill-rule="evenodd" clip-rule="evenodd" d="M0 48h48V4.5H0V48zm6.75-30.75h4.5v-4.5h-4.5v4.5zm19.5 7.5h-4.5v-4.5h4.5v4.5zm-12 7.5h4.5v-4.5h-4.5v4.5zm19.5 7.5h-4.5v-4.5h4.5v4.5z" fill="#303030"/><path fill-rule="evenodd" clip-rule="evenodd" d="M0 4.5h48V1a1 1 0 00-1-1H1a1 1 0 00-1 1v3.5zm14.25 12.75h4.5v-4.5h-4.5v4.5zm7.5 0h4.5v-4.5h-4.5v4.5zm7.5 0h4.5v-4.5h-4.5v4.5zm-22.5 7.5h4.5v-4.5h-4.5v4.5zm7.5 0h4.5v-4.5h-4.5v4.5zm15 0h4.5v-4.5h-4.5v4.5zm-22.5 7.5h4.5v-4.5h-4.5v4.5zm15 0h4.5v-4.5h-4.5v4.5zm7.5 0h4.5v-4.5h-4.5v4.5zm-22.5 7.5h4.5v-4.5h-4.5v4.5zm7.5 0h4.5v-4.5h-4.5v4.5zm7.5 0h4.5v-4.5h-4.5v4.5zm15-22.5h4.5v-4.5h-4.5v4.5zm0 7.5h4.5v-4.5h-4.5v4.5zm0 7.5h4.5v-4.5h-4.5v4.5zm0 7.5h4.5v-4.5h-4.5v4.5z" fill="#0078D4"/></svg>