<svg xmlns="http://www.w3.org/2000/svg" viewBox="0 0 25 25"><path d="M12.004 11.571v7.921h-1.497v-7.92l-1.72 1.708-1.053-1.053 3.521-3.522 3.522 3.522-1.053 1.053-1.72-1.709m7.126-3.92q.737.2 1.35.615.615.415 1.066.989.45.573.696 1.275.245.702.245 1.474 0 .936-.35 1.75-.352.813-.966 1.427-.614.614-1.433.965-.82.351-1.743.351h-4.493v-1.498h4.493q.62 0 1.164-.234.544-.234.953-.643.41-.41.644-.954.234-.544.234-1.164 0-.643-.24-1.193t-.661-.948q-.421-.398-.983-.626-.562-.228-1.193-.228-.14-.96-.597-1.784-.456-.825-1.14-1.428-.685-.602-1.563-.941-.877-.34-1.86-.34-.9 0-1.714.293-.813.292-1.48.807-.667.515-1.153 1.24-.485.726-.707 1.58-.515-.445-1.135-.685-.62-.24-1.299-.24-.772 0-1.457.293-.684.292-1.193.801-.509.51-.802 1.194-.292.684-.292 1.456 0 .773.292 1.457.293.685.802 1.193.509.51 1.193.802.685.292 1.457.292h3.744v1.498H5.265q-1.088 0-2.042-.415-.953-.416-1.661-1.124-.708-.707-1.123-1.661-.416-.954-.416-2.042 0-1.088.416-2.041.415-.954 1.123-1.662T3.223 6.43q.954-.415 2.042-.415.866 0 1.72.292.456-.76 1.082-1.369.626-.608 1.369-1.035.743-.427 1.585-.655.843-.228 1.732-.228 1.088 0 2.088.339 1 .34 1.843.953.843.615 1.474 1.463.632.848.971 1.878z"/></svg>