<svg xmlns="http://www.w3.org/2000/svg" viewBox="0 0 61 61"><path d="M4.85 47.212a8.25 8.25 0 018.255-8.255 8.25 8.25 0 018.255 8.255H4.85zM17.807 32.978a4.683 4.683 0 01-4.677 4.678 4.683 4.683 0 01-4.677-4.678 4.683 4.683 0 014.677-4.677 4.683 4.683 0 014.677 4.677zM54.468 49.426H4.812v1.997h49.656v-1.997z" fill="#0078D7"/><path d="M50.878 11.352l-12.136 17.66L25.936 15.89l-9.33 11.327c.493.303.936.657 1.328 1.074l8.116-9.835 12.932 13.236 13.312-19.367-1.416-.973z" fill="#0078D4"/><path d="M51.7 17.128a5.107 5.107 0 100-10.214 5.107 5.107 0 000 10.214z" fill="#50E6FF"/><path d="M51.7 16.305a4.286 4.286 0 100-8.57 4.286 4.286 0 000 8.57z" fill="#fff"/><path d="M51.7 14.938a2.92 2.92 0 100-5.84 2.92 2.92 0 000 5.84z" fill="#0078D4"/><path d="M26.177 22.324a5.107 5.107 0 100-10.215 5.107 5.107 0 000 10.215z" fill="#50E6FF"/><path d="M26.177 21.5a4.286 4.286 0 100-8.57 4.286 4.286 0 000 8.57z" fill="#fff"/><path d="M26.177 20.16a2.946 2.946 0 100-5.89 2.946 2.946 0 000 5.89z" fill="#0078D4"/><path d="M38.83 35.117a5.107 5.107 0 100-10.215 5.107 5.107 0 000 10.215z" fill="#50E6FF"/><path d="M38.83 34.294a4.285 4.285 0 100-8.571 4.285 4.285 0 000 8.57z" fill="#fff"/><path d="M38.83 32.953a2.945 2.945 0 100-5.89 2.945 2.945 0 000 5.89zM51.548 47.441l5.196 2.959-5.196 3.008v-5.967z" fill="#0078D4"/></svg>