<svg xmlns="http://www.w3.org/2000/svg" viewBox="0 0 49 49"><path d="M.972 48.382c0-11.512 9.316-20.827 20.828-20.827 9.812 0 18.033 6.774 20.247 15.904.378 1.582-5.874 4.932-5.874 4.932H.973v-.009zM33.673 12.448c0 6.521-5.285 11.814-11.815 11.814-6.53 0-11.815-5.284-11.815-11.814S15.336.633 21.858.633c6.522 0 11.815 5.285 11.815 11.815z" fill="#0078D7"/><path d="M36.206 48.413c7.013 0 12.699-5.686 12.699-12.699s-5.686-12.698-12.699-12.698S23.508 28.7 23.508 35.714c0 7.013 5.685 12.699 12.698 12.699z" fill="#50E6FF"/><path d="M42.248 30.969a2.801 2.801 0 00-2.802 2.802c0 .597.48 1.077 1.077 1.077s1.077-.48 1.077-1.077c0-.362.295-.648.648-.648.354 0 .648.295.648.648 0 .597.48 1.077 1.077 1.077.598 0 1.077-.48 1.077-1.077-.008-1.54-1.262-2.802-2.802-2.802zM29.82 30.969a2.801 2.801 0 00-2.803 2.802c0 .597.48 1.077 1.077 1.077.598 0 1.077-.48 1.077-1.077 0-.362.295-.648.648-.648.354 0 .648.295.648.648 0 .597.48 1.077 1.077 1.077.598 0 1.078-.48 1.078-1.077a2.807 2.807 0 00-2.803-2.802zM42.475 38.407a1.077 1.077 0 00-1.523-.042 6.866 6.866 0 01-4.73 1.877 6.903 6.903 0 01-4.838-1.978 1.082 1.082 0 00-1.835.783c0 .286.118.555.32.757a8.993 8.993 0 006.345 2.6 9.034 9.034 0 006.21-2.465c.21-.194.329-.463.337-.75a1.114 1.114 0 00-.286-.782z" fill="#0078D4"/></svg>