<svg xmlns="http://www.w3.org/2000/svg" viewBox="0 0 48 49"><path d="M37 12.133h11v-5H37v5zm0-7h11v-5H37v5z" fill="#50E6FF"/><path d="M0 .063h48v30H0v-30z" fill="#50E6FF"/><path d="M13 33.383c0-6.25 5.069-11.313 11.332-11.313 6.262 0 11.331 5.064 11.331 11.313H13zm17.845-19.841c0 3.54-2.875 6.409-6.422 6.409-3.548 0-6.423-2.868-6.423-6.41 0-3.54 2.875-6.408 6.422-6.408 3.548 0 6.423 2.868 6.423 6.409z" fill="#0078D4"/><path d="M0 32.133h48" stroke="#50E6FF" stroke-width="4"/><path d="M8 4.133H4v9h4v-9z" fill="#0078D4"/><path d="M4 4.133v4h9v-4H4zm36 0h4v9h-4v-9z" fill="#0078D4"/><path d="M44 4.133v4h-9v-4h9zm-4 44h4v-9h-4v9z" fill="#0078D4"/><path d="M44 48.133v-4h-9v4h9zm-36 0H4v-9h4v9z" fill="#0078D4"/><path d="M4 48.133v-4h9v4H4zm32-14H12v4h24v-4z" fill="#0078D4"/></svg>