<svg xmlns="http://www.w3.org/2000/svg" viewBox="0 0 49 49"><path d="M.953 47.934c0-11.512 9.315-20.828 20.827-20.828 9.812 0 18.034 6.775 20.247 15.905.379 1.582-5.874 4.931-5.874 4.931H.953v-.008zM33.653 12c0 6.521-5.284 11.814-11.815 11.814-6.53 0-11.815-5.285-11.815-11.815 0-6.53 5.294-11.814 11.815-11.814 6.522 0 11.815 5.284 11.815 11.814z" fill="#0078D7"/><path d="M36.187 47.964c7.013 0 12.698-5.685 12.698-12.698 0-7.013-5.685-12.699-12.698-12.699-7.013 0-12.699 5.686-12.699 12.699s5.686 12.698 12.699 12.698z" fill="#50E6FF"/><path d="M42.228 30.52a2.801 2.801 0 00-2.802 2.803c0 .597.48 1.077 1.077 1.077.598 0 1.078-.48 1.078-1.077a.648.648 0 111.295 0c0 .597.48 1.077 1.078 1.077.597 0 1.077-.48 1.077-1.077-.009-1.54-1.262-2.803-2.803-2.803zm-12.428 0a2.801 2.801 0 00-2.802 2.803c0 .597.48 1.077 1.077 1.077s1.077-.48 1.077-1.077a.648.648 0 111.296 0c0 .597.48 1.077 1.077 1.077s1.077-.48 1.077-1.077A2.807 2.807 0 0029.8 30.52zm12.656 7.439a1.077 1.077 0 00-1.524-.042 6.866 6.866 0 01-4.729 1.877 6.903 6.903 0 01-4.839-1.978 1.083 1.083 0 00-1.834.783c0 .286.118.555.32.757a8.993 8.993 0 006.345 2.6 9.034 9.034 0 006.21-2.466c.21-.193.328-.462.337-.748a1.114 1.114 0 00-.286-.783z" fill="#0078D4"/></svg>