<svg xmlns="http://www.w3.org/2000/svg" viewBox="0 0 49 49"><path d="M.02 43.437h48V6.477h-48v36.96z" fill="#0078D4"/><path d="M15.169 35.772a8.787 8.787 0 018.791-8.791 8.787 8.787 0 018.792 8.791H15.17zM.02 10.467h47.983V5.465H.02v5.002z" fill="#50E6FF"/><path d="M7.497 9.29a1.221 1.221 0 100-2.442 1.221 1.221 0 000 2.442zM3.708 9.29a1.221 1.221 0 100-2.442 1.221 1.221 0 000 2.442zM11.371 9.29a1.221 1.221 0 100-2.442 1.221 1.221 0 000 2.442z" fill="#fff"/><path d="M28.971 20.606a4.985 4.985 0 11-9.97 0 4.985 4.985 0 119.97 0z" fill="#50E6FF"/></svg>