<svg xmlns="http://www.w3.org/2000/svg" viewBox="0 0 48 49"><path d="M47.74 24.552c.016-.11.05-.219.067-.32.126-.666.193-1.35.193-2.05 0-5.995-4.836-10.86-10.816-10.86-.841 0-1.649.092-2.422.286-2.482-3.913-6.813-6.485-11.767-6.485-7.688 0-13.92 6.249-13.92 13.973 0 .194 0 .38.017.574a7.001 7.001 0 00-2.246-.363C3.07 19.307 0 22.385 0 26.172a6.866 6.866 0 006.165 6.83l30.994.068c4.062 0 7.603-2.252 9.47-5.566.05-.093.11-.194.16-.287.294-.598.698-1.51.95-2.665z" fill="#50E6FF"/><path d="M.076 42.968c0-4.9 3.953-8.863 8.84-8.863 4.886 0 8.839 3.964 8.839 8.863H.075zM13.953 27.68c0 2.775-2.245 5.026-5.012 5.026a5.02 5.02 0 01-5.013-5.026c0-2.774 2.245-5.026 5.013-5.026a5.016 5.016 0 015.012 5.026z" fill="#0078D7"/><path d="M43.02 20.235v-5.026h-5.012v5.026h1.876v5.178h-1.876v1.88h-5.223v-1.88h-1.876v-5.178h1.876v-5.026h-5.013v1.88h-5.055v-1.88h-5.012v5.026h1.875v5.178h-1.875v5.026h5.012v-5.026h-1.875v-5.178h1.875v-1.88h5.055v1.88h1.876v5.178h-1.876v5.026h5.013v-1.881h5.223v1.88h5.013v-5.025h-1.876v-5.178h1.876z" fill="#0078D4"/></svg>