<svg xmlns="http://www.w3.org/2000/svg" viewBox="0 0 48 49"><path d="M14.016 35.461a9.988 9.988 0 019.992-9.992 9.988 9.988 0 019.993 9.992H14.016zM29.7 18.22a5.662 5.662 0 01-5.666 5.665 5.662 5.662 0 01-5.665-5.665 5.662 5.662 0 015.665-5.665 5.667 5.667 0 015.665 5.665z" fill="#0078D7"/><path d="M24.042 46.599L4.453 35.285v-22.62L24.042 1.353l19.589 11.313v22.62L24.042 46.599zM5.716 34.56l18.326 10.581 18.326-10.581V13.389L24.042 2.808 5.716 13.389v21.172z" fill="#50E6FF"/><path d="M23.916 5.282a2.61 2.61 0 100-5.22 2.61 2.61 0 000 5.22zM23.916 48.036a2.61 2.61 0 100-5.22 2.61 2.61 0 000 5.22zM42.94 38.079a2.61 2.61 0 100-5.22 2.61 2.61 0 000 5.22zM42.94 15.282a2.61 2.61 0 100-5.22 2.61 2.61 0 000 5.22zM5.05 38.01a2.517 2.517 0 100-5.033 2.517 2.517 0 000 5.034zM5.05 15.366a2.517 2.517 0 100-5.034 2.517 2.517 0 000 5.034z" fill="#0078D7"/></svg>