<svg xmlns="http://www.w3.org/2000/svg" viewBox="0 0 48 49"><path d="M24 47.063c-12.778 0-23-10.223-23-23 0-12.778 10.222-23 23-23s23 10.222 23 23c0 12.777-10.222 23-23 23z" fill="#0078D4"/><path d="M14.63 20.654c1.704 0 2.981-1.277 2.981-2.981s-1.277-2.982-2.981-2.982-2.982 1.278-2.982 2.982c0 1.704 1.278 2.981 2.982 2.981zm17.89 0a2.982 2.982 0 10-.001-5.963 2.982 2.982 0 000 5.963zM24 26.188c-5.538 0-10.649 3.407-11.927 8.944-.426.852 0 1.704.852 2.13h1.278c.426-.426.852-.426.852-.852 1.278-3.834 4.685-6.815 8.944-6.815 4.26 0 8.093 2.981 8.945 6.815 0 .852 1.277 1.278 2.13.852.851-.426 1.277-1.278 1.277-2.13-1.704-5.111-6.815-8.944-12.352-8.944z" fill="#50E6FF"/></svg>