<svg xmlns="http://www.w3.org/2000/svg" viewBox="0 0 49 49"><path d="M36.73.438h12.208v12.195h-5.052V5.484H36.73V.438zM5.99 12.633H.938V.438h12.208v5.046H5.99v7.15zM43.886 36.242h5.052v12.196H36.73v-5.047h7.156v-7.149zM.938 48.438V36.242H5.99v7.15h7.156v5.046H.938z" fill="#0078D4"/><path d="M10.626 41.228c0-8 6.476-14.47 14.485-14.47 8.008 0 14.485 6.47 14.485 14.47h-28.97zM33.203 14.744c0 4.467-3.632 8.095-8.103 8.095-4.472 0-8.103-3.628-8.103-8.095 0-4.467 3.631-8.096 8.103-8.096 4.471 0 8.103 3.629 8.103 8.096z" fill="#50E6FF"/></svg>