<svg xmlns="http://www.w3.org/2000/svg" viewBox="0 0 48 49"><path d="M24 47.063c-12.778 0-23-10.223-23-23 0-12.778 10.222-23 23-23s23 10.222 23 23c0 12.777-10.222 23-23 23z" fill="#0078D4"/><path d="M15.054 20.654c1.704 0 2.982-1.277 2.982-2.981s-1.278-2.982-2.982-2.982c-1.704 0-2.981 1.278-2.981 2.982 0 1.704 1.277 2.981 2.981 2.981zm17.89 0c1.704 0 2.981-1.277 2.981-2.981s-1.703-2.982-2.981-2.982c-1.704 0-2.982 1.278-2.982 2.982 0 1.704 1.278 2.981 2.982 2.981zm2.129 7.244c-1.277 0-2.13.426-2.13 1.278-1.277 3.834-4.684 6.815-8.944 6.815-4.259 0-8.092-2.981-8.944-6.815 0-.852-.852-1.278-1.704-1.278h-.426c-.852 0-1.278.852-.852 1.704 1.278 5.537 6.39 9.37 11.926 9.37 5.537 0 10.648-3.833 11.926-8.944V28.75l-.852-.852z" fill="#50E6FF"/></svg>