<svg xmlns="http://www.w3.org/2000/svg" viewBox="0 0 49 49"><path d="M48.489 24.973c0-13.002-10.535-23.545-23.537-23.562v4.792c10.358.017 18.745 8.413 18.745 18.77 0 10.358-8.395 18.763-18.745 18.77v4.792c12.994-.016 23.537-10.56 23.537-23.562z" fill="#0078D4"/><path d="M4.514 13.158l4.152 2.409c3.25-5.6 9.305-9.364 16.252-9.364h.026v-4.8h-.026c-8.707 0-16.32 4.732-20.404 11.755z" fill="#fff"/><path d="M4.514 13.158l4.152 2.409a18.831 18.831 0 011.827-2.61c3.444-4.127 8.623-6.754 14.425-6.754h.026v-4.8h-.026c-7.183 0-13.616 3.216-17.945 8.286a24.39 24.39 0 00-2.459 3.47z" fill="#0078D4"/><path d="M6.14 24.974c0-3.436.926-6.645 2.526-9.407l-4.152-2.4a23.537 23.537 0 00-3.158 11.807c0 4.311 1.154 8.345 3.175 11.814l4.152-2.391a18.653 18.653 0 01-2.543-9.423zm2.526-9.407l-4.152-2.4 4.152 2.4z" fill="#50E6FF"/><path d="M24.918 43.752c-6.939 0-12.993-3.756-16.244-9.355l-4.152 2.4c4.085 7.023 11.689 11.738 20.396 11.738h.026v-4.791c-.009.008-.017.008-.026.008zM4.522 36.788l4.152-2.391-4.152 2.391zm10.788-.522c0-5.44 4.413-9.844 9.861-9.844s9.861 4.404 9.861 9.844H15.31zm15.47-17.263c0 3.082-2.502 5.575-5.592 5.575s-5.592-2.493-5.592-5.575c0-3.082 2.501-5.575 5.592-5.575 3.09 0 5.591 2.493 5.591 5.575z" fill="#0078D4"/><path d="M10.78 12.628L7.04 9.622c-.016.025-.042.05-.058.076-.253.294-.497.597-.733.909l3.739 3.006c.168-.219.337-.438.514-.648.084-.118.176-.227.277-.337zm8.9-5.684l-1.524-4.548a18.08 18.08 0 00-1.196.396l1.525 4.548a14.19 14.19 0 011.195-.396zm3.95-.699l-.513-4.766c-.422.033-.843.076-1.255.126l.514 4.766c.412-.05.833-.1 1.254-.126zm-7.209 1.987l-2.35-4.177c-.37.194-.74.396-1.102.615l2.35 4.169c.361-.22.723-.422 1.102-.607zm-2.981 1.887l-3.09-3.672c-.328.261-.657.53-.968.809l3.09 3.663c.312-.278.64-.548.969-.8z" fill="#50E6FF"/></svg>