<svg xmlns="http://www.w3.org/2000/svg" viewBox="0 0 48 49"><path d="M24.024 29.138a6.277 6.277 0 00-6.289 6.289h12.679c-.1-3.483-2.907-6.29-6.39-6.29zm-17.539 0a6.277 6.277 0 00-6.289 6.289h12.679c-.1-3.483-2.907-6.29-6.39-6.29zm35.079 0a6.277 6.277 0 00-6.29 6.289h12.68c-.101-3.483-2.907-6.29-6.39-6.29zM6.536 26.522a3.732 3.732 0 003.758-3.759 3.732 3.732 0 00-3.758-3.758 3.732 3.732 0 00-3.759 3.758 3.732 3.732 0 003.759 3.759zm17.464 0a3.732 3.732 0 003.758-3.759A3.732 3.732 0 0024 19.005a3.732 3.732 0 00-3.759 3.758A3.732 3.732 0 0024 26.522zm17.614 0a3.732 3.732 0 003.759-3.759 3.732 3.732 0 00-3.759-3.758 3.732 3.732 0 00-3.758 3.758 3.732 3.732 0 003.758 3.759z" fill="#0078D4"/></svg>