<svg xmlns="http://www.w3.org/2000/svg" viewBox="0 0 49 49"><path d="M30.273 33.73a8.869 8.869 0 018.873-8.874 8.869 8.869 0 018.874 8.873H30.272zM44.117 17.48a4.961 4.961 0 01-4.963 4.963 4.967 4.967 0 01-4.964-4.964 4.967 4.967 0 014.964-4.963 4.967 4.967 0 014.963 4.963z" fill="#50E6FF"/><path d="M15.104 23.616a8.869 8.869 0 018.873-8.874 8.869 8.869 0 018.874 8.874H15.104zM28.95 7.37a4.961 4.961 0 01-4.964 4.963 4.967 4.967 0 01-4.963-4.963 4.96 4.96 0 014.954-4.964c2.74 0 4.972 2.225 4.972 4.964z" fill="#0078D7"/><path d="M15.104 46.53a8.869 8.869 0 018.873-8.874 8.869 8.869 0 018.874 8.874H15.104zM28.95 30.288a4.961 4.961 0 01-4.964 4.963 4.967 4.967 0 01-4.963-4.963 4.967 4.967 0 014.963-4.964 4.961 4.961 0 014.963 4.964z" fill="#50E6FF"/><path d="M.02 33.73a8.869 8.869 0 018.873-8.874 8.869 8.869 0 018.874 8.873H.02zM13.865 17.48a4.961 4.961 0 01-4.963 4.963 4.967 4.967 0 01-4.964-4.964 4.96 4.96 0 014.956-4.963c2.738 0 4.971 2.224 4.971 4.963z" fill="#0078D7"/></svg>