<svg xmlns="http://www.w3.org/2000/svg" viewBox="0 0 16 16"><path fill="#FFF" d="M12.781 5.414a4.073 4.073 0 011.617 1.481c.192.31.341.644.445 1C14.948 8.251 15 8.62 15 9h-1c0-.411-.079-.799-.238-1.164a3.074 3.074 0 00-.645-.953 3.091 3.091 0 00-.953-.645C11.8 6.08 11.411 6 11 6s-.8.08-1.164.238a3.062 3.062 0 00-.953.645 3.074 3.074 0 00-.645.953A2.882 2.882 0 008 9c0 .475-.108.925-.324 1.352a2.974 2.974 0 01-.895 1.063 4.046 4.046 0 012.062 2.481C8.948 14.252 9 14.62 9 15H8c0-.411-.079-.799-.238-1.164a3.074 3.074 0 00-.645-.953 3.091 3.091 0 00-.953-.645A2.9 2.9 0 005 12c-.412 0-.8.08-1.164.238a3.05 3.05 0 00-1.598 1.598A2.882 2.882 0 002 15H1c0-.38.052-.748.156-1.105A4.028 4.028 0 012.3 12.051c.273-.252.579-.465.918-.637a2.965 2.965 0 01-.895-1.063A2.958 2.958 0 012 9c0-.411.079-.799.238-1.164.159-.364.374-.682.645-.953a3.08 3.08 0 01.953-.645A2.892 2.892 0 015 6c.474 0 .924.108 1.352.324.427.216.781.515 1.063.895A4.068 4.068 0 019.22 5.414a2.963 2.963 0 01-.896-1.062A2.957 2.957 0 018 3c0-.411.079-.799.238-1.164.159-.364.374-.682.645-.953.271-.271.589-.485.953-.645C10.2.08 10.589 0 11 0s.8.08 1.164.238c.364.159.683.374.953.645.271.271.485.589.645.953.159.365.238.753.238 1.164 0 .474-.108.925-.324 1.352a2.97 2.97 0 01-.895 1.062zM5 11c.271 0 .528-.053.773-.16A2.033 2.033 0 006.84 9.777 1.9 1.9 0 007 9c0-.271-.054-.528-.16-.773-.107-.245-.25-.457-.43-.637s-.391-.323-.637-.43A1.925 1.925 0 005 7c-.276 0-.535.054-.777.16-.243.107-.453.25-.633.43s-.323.392-.43.637C3.053 8.472 3 8.729 3 9c0 .276.053.535.16.777a2.05 2.05 0 001.063 1.063A1.9 1.9 0 005 11zm4-8c0 .276.054.535.16.777s.25.453.43.633.391.323.633.43A1.9 1.9 0 0011 5c.271 0 .528-.053.773-.16a2.033 2.033 0 001.067-1.063A1.9 1.9 0 0013 3c0-.271-.054-.528-.16-.773a2.033 2.033 0 00-1.067-1.067A1.925 1.925 0 0011 1c-.276 0-.535.054-.777.16-.243.107-.453.25-.633.43s-.323.392-.43.637C9.054 2.472 9 2.729 9 3z"/></svg>