<svg xmlns="http://www.w3.org/2000/svg" viewBox="0 0 48 49"><path d="M47.628 27.031c.017-.11.05-.22.06-.312.126-.666.185-1.34.185-2.032 0-5.96-4.824-10.798-10.786-10.798-.835 0-1.636.093-2.412.286-2.479-3.894-6.797-6.449-11.73-6.449-7.665 0-13.88 6.213-13.88 13.884 0 .186 0 .38.017.565a6.952 6.952 0 00-2.244-.362c-3.77 0-6.83 3.06-6.83 6.828 0 3.55 2.715 6.449 6.147 6.795l30.907.059c4.056 0 7.58-2.243 9.445-5.53.05-.093.11-.186.16-.287.295-.599.708-1.492.961-2.647z" fill="#50E6FF"/><path d="M15.095 32.797a8.856 8.856 0 018.863-8.86c4.9 0 8.863 3.962 8.863 8.86H15.095zm13.914-15.285a5.027 5.027 0 01-10.052 0 5.027 5.027 0 0110.052 0zM23.898 5.123A2.521 2.521 0 1023.9.081a2.521 2.521 0 000 5.042zm0 42.94a2.521 2.521 0 10.001-5.043 2.521 2.521 0 000 5.042zm19.017-12.61a2.52 2.52 0 100-5.042 2.52 2.52 0 000 5.042zm-37.931 0a2.521 2.521 0 100-5.042 2.521 2.521 0 000 5.042zm37.931-17.705a2.52 2.52 0 100-5.042 2.52 2.52 0 000 5.042zm-37.931 0a2.521 2.521 0 100-5.042 2.521 2.521 0 000 5.042z" fill="#0078D7"/></svg>