<svg xmlns="http://www.w3.org/2000/svg" viewBox="0 0 49 49"><path d="M24.044 29.586a6.277 6.277 0 00-6.29 6.289h12.68c-.101-3.483-2.907-6.29-6.39-6.29zM6.505 29.586a6.277 6.277 0 00-6.29 6.289h12.68c-.101-3.483-2.907-6.29-6.39-6.29zM41.584 29.586a6.277 6.277 0 00-6.29 6.289h12.679c-.1-3.483-2.907-6.29-6.39-6.29zM6.555 26.97a3.732 3.732 0 003.759-3.758 3.732 3.732 0 00-3.759-3.759 3.732 3.732 0 00-3.758 3.759 3.732 3.732 0 003.758 3.758zM24.02 26.97a3.732 3.732 0 003.758-3.758 3.732 3.732 0 00-3.759-3.759 3.732 3.732 0 00-3.758 3.759 3.732 3.732 0 003.758 3.758zM41.634 26.97a3.732 3.732 0 003.758-3.758 3.732 3.732 0 00-3.758-3.759 3.732 3.732 0 00-3.758 3.759 3.732 3.732 0 003.758 3.758z" fill="#0078D4"/></svg>