<svg xmlns="http://www.w3.org/2000/svg" viewBox="0 0 49 49"><path d="M23.698 36.127c7.013 0 12.698-5.685 12.698-12.698 0-7.013-5.685-12.698-12.698-12.698-7.014 0-12.699 5.685-12.699 12.698 0 7.013 5.685 12.698 12.699 12.698z" fill="#50E6FF"/><path d="M29.74 18.684a2.801 2.801 0 00-2.802 2.802c0 .597.48 1.077 1.077 1.077s1.077-.48 1.077-1.077a.648.648 0 111.296 0c0 .597.48 1.077 1.077 1.077s1.077-.48 1.077-1.077c-.008-1.54-1.262-2.802-2.802-2.802zm-12.43 0a2.801 2.801 0 00-2.802 2.802c0 .597.48 1.077 1.077 1.077.598 0 1.078-.48 1.078-1.077a.648.648 0 111.296 0c0 .597.48 1.077 1.077 1.077s1.077-.48 1.077-1.077a2.807 2.807 0 00-2.802-2.802zm12.657 7.438a1.077 1.077 0 00-1.523-.042 6.866 6.866 0 01-4.73 1.877 6.903 6.903 0 01-4.838-1.978 1.082 1.082 0 00-1.834.783c-.001.286.117.555.319.757a8.993 8.993 0 006.345 2.6 9.034 9.034 0 006.21-2.465 1.06 1.06 0 00.337-.75 1.114 1.114 0 00-.286-.782zM35.796.066h12.21v12.21h-5.053V5.119h-7.157V.066zM5.052 12.272H0V.062h12.21v5.053H5.051v7.157zm37.901 23.626h5.052v12.21h-12.21v-5.052h7.158v-7.158zM0 48.115V35.906h5.052v7.157h7.157v5.052H0z" fill="#0078D4"/></svg>