<svg xmlns="http://www.w3.org/2000/svg" viewBox="0 0 49 49"><path d="M47.82 9.11H.109v30.382h47.713V9.109z" fill="#50E6FF"/><path d="M7.238 30.718a4.716 4.716 0 100-9.433 4.716 4.716 0 000 9.433zM7.238 32.363a7.115 7.115 0 00-7.13 7.13h14.369c-.11-3.949-3.29-7.13-7.24-7.13zM24.348 30.718a4.716 4.716 0 100-9.433 4.716 4.716 0 000 9.433zM24.348 32.363a7.115 7.115 0 00-7.13 7.13h14.37c-.11-3.949-3.291-7.13-7.24-7.13zM40.691 30.718a4.716 4.716 0 100-9.433 4.716 4.716 0 000 9.433zM40.691 32.363a7.115 7.115 0 00-7.129 7.13h14.369c-.11-3.949-3.29-7.13-7.24-7.13z" fill="#0078D4"/></svg>