<svg xmlns="http://www.w3.org/2000/svg" viewBox="0 0 49 49"><path d="M42.403 7.03c0 3.249-2.648 6.017-6.017 6.017-3.25 0-6.018-2.648-6.018-6.018 0-3.25 2.648-6.017 6.018-6.017 3.37 0 6.017 2.647 6.017 6.017zM36.385 15.215c6.018 0 10.952 4.934 10.952 10.952v1.444H25.434v-1.444c0-6.018 4.934-10.952 10.951-10.952z" fill="#50E6FF"/><path d="M18.333 26.408c0 3.25-2.647 6.018-6.017 6.018-3.25 0-6.018-2.648-6.018-6.018 0-3.37 2.648-6.017 6.018-6.017 3.37 0 6.017 2.768 6.017 6.017zM12.316 34.59c6.017 0 10.951 4.934 10.951 10.952v1.323H1.364v-1.323c0-6.018 4.934-10.952 10.952-10.952z" fill="#0078D4"/></svg>