<svg xmlns="http://www.w3.org/2000/svg" viewBox="0 0 48 42"><path fill-rule="evenodd" clip-rule="evenodd" d="M41.983 11.837a5.97 5.97 0 00-2.48.54 9.118 9.118 0 00.593-3.22c0-5.058-4.1-9.157-9.156-9.157-4.362 0-8.005 3.053-8.926 7.137a4.963 4.963 0 00-3.576-1.52 4.98 4.98 0 00-4.98 4.981c0 .042.005.083.005.124a6.639 6.639 0 001.29 13.15h27.23a6.017 6.017 0 100-12.035z" fill="#0078D4"/><path fill-rule="evenodd" clip-rule="evenodd" d="M0 15.064v25.962h21.21V15.064H0z" fill="#50E6FF"/><path fill-rule="evenodd" clip-rule="evenodd" d="M14.923 29.758c-.562-.333-1.278-.41-1.891-.153-.741.306-1.636.485-2.325.485a5.73 5.73 0 01-1.994-.384c-.613-.255-1.303-.255-1.865.052-2.096 1.2-4.651 2.973-4.651 3.612 0 .792-.102 3.543-.153 4.769a.55.55 0 00.587.588l16.329-.033c.321 0 .58-.263.575-.584-.017-1.32-.057-4.447-.066-4.74-.06-.725-2.542-2.445-4.546-3.612zm-4.216-1.278a4.6 4.6 0 100-9.2 4.6 4.6 0 000 9.2z" fill="#0078D4"/></svg>