<svg xmlns="http://www.w3.org/2000/svg" viewBox="0 0 49 49"><path d="M24.025 5.878a7.49 7.49 0 015.33 2.206l1.768-1.768a10 10 0 00-7.098-2.939c-2.567 0-5.135.977-7.097 2.939l1.768 1.768a7.49 7.49 0 015.33-2.206zm.38 5.122a2.4 2.4 0 011.71.707l1.767-1.769a4.895 4.895 0 00-3.477-1.44 4.91 4.91 0 00-3.477 1.44l1.768 1.768A2.4 2.4 0 0124.405 11z" fill="#0078D4"/><path d="M38.751 21.229h-2.823v19h1.713c.071-2.12 1.721-3.784 3.815-3.784 2.086 0 3.743 1.655 3.815 3.783h2.61v-9.565h.047c0-5.194-4.124-9.434-9.177-9.434zm.936 7.836v-4.697c2.88 0 5.187 2.096 5.187 4.697h-5.187z" fill="#50E6FF"/><path d="M34.928 16.229h-34v23.958h2.711c.13-2.086 1.803-3.701 3.897-3.701 2.095 0 3.775 1.615 3.897 3.718l23.495.024v-24zm6.577 20.999c-1.634 0-3 1.318-3 3 0 1.683 1.317 3 3 3s3-1.317 3-3c0-1.682-1.366-3-3-3z" fill="#0078D4"/><path d="M7.472 37.228c-1.634 0-3 1.318-3 3 0 1.683 1.317 3 3 3s3-1.317 3-3c0-1.674-1.366-3-3-3z" fill="#0078D4"/></svg>