<svg xmlns="http://www.w3.org/2000/svg" viewBox="0 0 49 49"><path d="M25.948.44c-9.17-.564-17.07 6.417-17.634 15.588-.564 9.17 16.539 31.856 16.539 31.856s16.11-20.64 16.674-29.819c.572-9.162-6.409-17.06-15.58-17.625z" fill="#50E6FF"/><path d="M24.928 30.283c7.553 0 13.676-6.123 13.676-13.676 0-7.552-6.123-13.675-13.676-13.675S11.252 9.055 11.252 16.607c0 7.553 6.123 13.676 13.676 13.676z" fill="#0078D4"/><path d="M25.03 6.502c.918 0 1.785.362 2.433 1.01l.809-.808a4.578 4.578 0 00-3.242-1.339c-1.17 0-2.35.447-3.242 1.34l.808.808a3.428 3.428 0 012.434-1.01zm0 2.341c.294 0 .572.117.782.32l.809-.809a2.232 2.232 0 00-1.583-.657c-.573 0-1.146.22-1.583.657l.808.809a1.06 1.06 0 01.766-.32zm7.882 12.178c-.632 0-1.162.514-1.162 1.163 0 .656.513 1.162 1.162 1.162.657 0 1.162-.514 1.162-1.162a1.154 1.154 0 00-1.162-1.163zm-15.655 0c-.631 0-1.162.514-1.162 1.163a1.15 1.15 0 001.162 1.162c.657 0 1.162-.514 1.162-1.162a1.154 1.154 0 00-1.162-1.163z" fill="#50E6FF"/><path d="M31.683 12.709H30.36v6.973H13.973v2.391h1.457c.059-.96.85-1.71 1.844-1.71.994 0 1.785.75 1.844 1.719l11.958.017a1.832 1.832 0 011.844-1.786c1.011 0 1.811.783 1.845 1.786h1.347v-4.186l.025-1.086c0-2.198-2.391-4.118-4.454-4.118zm-.38 4.446v-3.402c2.148 0 3.866 1.516 3.866 3.402h-3.865z" fill="#50E6FF"/><path d="M29.662 11.006H13.973v7.924h15.689v-7.924z" fill="#50E6FF"/></svg>