<svg xmlns="http://www.w3.org/2000/svg" viewBox="0 0 48 49"><path d="M42.947 28.018H5.053a5.052 5.052 0 100 10.105v10.105h7.579v-5.052h22.736v5.052h7.58V38.123a5.053 5.053 0 100-10.105zM2.527 33.07a2.526 2.526 0 115.052 0 2.526 2.526 0 01-5.053 0zm40.42 2.527a2.526 2.526 0 110-5.052 2.526 2.526 0 010 5.052z" fill="#0078D4"/><path d="M15.16 30.541h-2.527v5.053h2.526V30.54zm10.105 0h-2.527v5.053h2.527V30.54zm-5.055 0h-2.526v5.053h2.526V30.54zm15.158 0h-2.526v5.053h2.526V30.54zm-5.052 0h-2.527v5.053h2.527V30.54z" fill="#50E6FF"/><path d="M24.447 23.815L9.755 9.124a2.526 2.526 0 10-.893.893l14.692 14.691.893-.893z" fill="#0078D4"/><path d="M40.422 5.314a2.526 2.526 0 00-2.176 3.81l-14.691 14.69.892.894L39.14 10.017a2.526 2.526 0 101.283-4.703z" fill="#50E6FF"/><path d="M24.63 5.201h-1.263v19.06h1.263V5.2z" fill="#0078D4"/><path d="M39.917 20.44l-4.547-7.578H12.633L8.085 20.44H2.528v5.052h42.947V20.44h-5.558zm-30.4 2.527l4.547-7.58h19.874l4.547 7.58H9.517z" fill="#0078D4"/><path d="M24 5.281A2.526 2.526 0 1024.002.23a2.526 2.526 0 000 5.052z" fill="#50E6FF"/></svg>