<svg xmlns="http://www.w3.org/2000/svg" viewBox="0 0 48 49"><path d="M43.961 3.386H16.322a3.046 3.046 0 00-3.038 3.038v23.049a3.04 3.04 0 003.038 3.038h27.64A3.04 3.04 0 0047 29.473V6.424a3.04 3.04 0 00-3.039-3.038z" fill="#0078D4"/><path d="M37.981 9.285H10.342a3.046 3.046 0 00-3.038 3.039v23.048a3.04 3.04 0 003.038 3.04h27.64a3.04 3.04 0 003.038-3.04V12.324a3.04 3.04 0 00-3.039-3.039z" fill="#50E6FF"/><path d="M31.677 15.427H4.04A3.046 3.046 0 001 18.466v23.048a3.04 3.04 0 003.039 3.039h27.638a3.04 3.04 0 003.04-3.039V18.466a3.04 3.04 0 00-3.04-3.039z" fill="#0078D4"/><path d="M17.882 31.42c.8 0 1.439-.646 1.439-1.438 0-.8-.647-1.438-1.439-1.438-.8 0-1.438.646-1.438 1.438 0 .792.646 1.439 1.438 1.439z" fill="#50E6FF"/><path d="M17.882 23.242a6.736 6.736 0 00-6.74 6.74 6.736 6.736 0 006.74 6.74 6.736 6.736 0 006.74-6.74 6.736 6.736 0 00-6.74-6.74zm0 12.163a5.422 5.422 0 01-5.43-5.431 5.42 5.42 0 015.43-5.43c2.99 0 5.455 2.407 5.455 5.43 0 3.022-2.432 5.43-5.455 5.43z" fill="#50E6FF"/></svg>