<svg xmlns="http://www.w3.org/2000/svg" viewBox="0 0 24 24"><path d="M20.958 13.74a7.598 7.598 0 01-4.63 1.573 7.616 7.616 0 01-6.066-2.993 7.626 7.626 0 011.422-10.699A7.56 7.56 0 0116.314.05a7.611 7.611 0 016.066 2.996 7.627 7.627 0 01-1.422 10.695z" fill="#59B4D9"/><path d="M19.556 9.02a1.644 1.644 0 002.302.306c.038-.028.067-.063.101-.094.735.518 1.246.86 1.534 1.056a6.62 6.62 0 00.205-.654 39.724 39.724 0 01-1.31-1.025 1.638 1.638 0 00-.223-1.579 1.636 1.636 0 00-2.117-.42 68.297 68.297 0 01-2.531-2.392c2.798-1.505 4.785-1.285 4.785-1.285a7.735 7.735 0 00-1.101-1.128c-1.18-.183-3.013-.162-5.108.952A60.918 60.918 0 0113.96.4a7.026 7.026 0 00-1.011.412c.534.874 1.252 1.755 2.062 2.615l.005.005a14.112 14.112 0 00-2.12 1.836c-.088.095-.173.19-.257.285a2.302 2.302 0 00-1.256.085c-.691-1.49-.636-2.69-.526-3.307-.3.314-.58.645-.822.997-.18.738-.232 1.801.3 3.083a2.301 2.301 0 00.17 2.991 11.567 11.567 0 00-.446 2.675c.072.099.072.178.144.274.366.47.825.865 1.27 1.224a8.422 8.422 0 01.523-3.473c.358.028.723-.029 1.063-.172a12.723 12.723 0 002.842 1.94c-.038.37.055.755.296 1.074a1.526 1.526 0 002.132.28c.138-.105.247-.233.338-.37a13.63 13.63 0 002.994.31c.117 0 .665-.744.978-1.204-.469.098-1.857.289-3.755-.257a1.514 1.514 0 00-.274-.604 1.51 1.51 0 00-2.02-.347 14.329 14.329 0 01-2.479-1.712 2.314 2.314 0 00.097-2.305c.088-.088.174-.175.266-.262a16.756 16.756 0 011.99-1.61c-.024-.023-.047-.048-.072-.071l.073.069a45.75 45.75 0 002.92 2.463 1.632 1.632 0 00.17 1.695z" fill="#fff"/><path d="M20.16 13.56v-3.12a.36.36 0 00-.36-.36h-2.16a.36.36 0 00-.36.36.36.36 0 00-.36-.36h-5.04a.36.36 0 00-.36.36.36.36 0 00-.36-.36H6.12a.36.36 0 00-.36.36.36.36 0 00-.36-.36H.36a.36.36 0 00-.36.36v3.12c0 .199.161.36.36.36a.36.36 0 00-.36.36v2.64c0 .199.161.36.36.36a.36.36 0 00-.36.36v2.64c0 .199.161.36.36.36A.36.36 0 000 21v2.64c0 .199.161.36.36.36h2.16a.36.36 0 00.36-.36c0 .199.161.36.36.36h5.04a.36.36 0 00.36-.36c0 .199.161.36.36.36h5.04a.36.36 0 00.36-.36c0 .199.161.36.36.36h5.04a.36.36 0 00.36-.36V21a.36.36 0 00-.36-.36.36.36 0 00.36-.36v-2.64a.36.36 0 00-.36-.36.36.36 0 00.36-.36v-2.64a.36.36 0 00-.36-.36.36.36 0 00.36-.36z" fill="#A0A1A2"/><path d="M11.04 11.04h-4.8v2.4h4.8v-2.4zm5.76 0H12v2.4h4.8v-2.4z" fill="#BA141A"/><path d="M5.28 11.04H.48v2.4h4.8v-2.4zm8.64 3.36h-4.8v2.4h4.8v-2.4z" fill="#DD5900"/><path d="M19.68 14.4h-4.8v2.4h4.8v-2.4zm-17.28 0H.48v2.4H2.4v-2.4zm5.76 0h-4.8v2.4h4.8v-2.4zm2.88 3.36h-4.8v2.4h4.8v-2.4z" fill="#BA141A"/><path d="M16.8 17.76H12v2.4h4.8v-2.4zm-11.52 0H.48v2.4h4.8v-2.4z" fill="#DD5900"/><path d="M19.68 21.12h-4.8v2.4h4.8v-2.4zm-5.76 0h-4.8v2.4h4.8v-2.4z" fill="#BA141A"/><path d="M2.4 21.12H.48v2.4H2.4v-2.4zm17.28-10.08h-1.92v2.4h1.92v-2.4zm0 6.72h-1.92v2.4h1.92v-2.4z" fill="#DD5900"/><path d="M8.16 21.12h-4.8v2.4h4.8v-2.4z" fill="#BA141A"/></svg>