<svg xmlns="http://www.w3.org/2000/svg" viewBox="0 0 35 35"><path d="M22.866 17.158a10.72 10.72 0 002.598.342c.82 0 1.697-.2 2.632-.598a7.745 7.745 0 002.46-1.658c1.505-1.504 2.257-3.304 2.257-5.4a7.09 7.09 0 00-.41-2.41L26.25 13.57l-4.82-4.82 6.136-6.152c-.775-.274-1.63-.41-2.564-.41-.934 0-1.865.199-2.794.598a7.772 7.772 0 00-2.452 1.657c-1.504 1.504-2.256 3.304-2.256 5.4 0 .616.114 1.38.342 2.29L3.23 26.764c-.695.683-1.042 1.515-1.042 2.495 0 .98.347 1.817 1.042 2.512a3.424 3.424 0 002.512 1.042c.98 0 1.812-.347 2.495-1.042l14.63-14.612zM35 9.673c0 2.848-.968 5.23-2.905 7.143-1.937 1.914-4.25 2.872-6.939 2.872-.49 0-1.02-.046-1.59-.137L9.793 33.325C8.676 34.442 7.32 35 5.725 35c-1.595 0-2.94-.564-4.033-1.692C.564 32.203 0 30.858 0 29.275c0-1.595.558-2.95 1.675-4.067l13.774-13.775a12.27 12.27 0 01-.137-1.897c0-1.56.45-3.11 1.35-4.648 1.39-2.347 2.932-3.749 4.623-4.204C22.977.228 24.325 0 25.327 0c1.003 0 1.948.16 2.837.479.866.319 1.891.831 3.076 1.538L24.507 8.75l1.743 1.743 6.733-6.733c.707 1.185 1.22 2.21 1.538 3.076A8.31 8.31 0 0135 9.673z"/></svg>