<svg xmlns="http://www.w3.org/2000/svg" width="50" height="50"><path fill="#FCD116" d="M50 37.571a3.57 3.57 0 0 1-3.571 3.571H3.571A3.57 3.57 0 0 1 0 37.571v-30A3.571 3.571 0 0 1 3.571 4h42.857A3.571 3.571 0 0 1 50 7.571v30z"/><path fill="#FFF" d="M4.286 8.286h41.429v28.571H4.286z"/><circle fill="#DD5900" cx="12.143" cy="30.429" r="5.714"/><circle fill="#FF8C00" cx="12.143" cy="30.429" r="4.286"/><path fill="#DD5900" d="M12.143 34.714a6.4 6.4 0 0 1-4.317-1.679l-.678 13.031 4.923-4.923 5 5 .072-.714-.683-12.394a6.395 6.395 0 0 1-4.317 1.679z"/><path fill="#7A7A7A" d="M40.962 29.085a.8.8 0 0 1-.799.799H22.227a.8.8 0 0 1 0-1.598h17.936a.8.8 0 0 1 .799.799M40.962 24.714a.8.8 0 0 1-.799.799H22.227a.8.8 0 0 1 0-1.598h17.936a.8.8 0 0 1 .799.799M40.962 18.286a.8.8 0 0 1-.799.799H10.084a.8.8 0 0 1 0-1.598h30.078c.442-.001.8.357.8.799"/></svg>