<svg xmlns="http://www.w3.org/2000/svg" viewBox="0 0 50 50" class="fxs-portal-svg">
    <path d="M37.858 5.96C26.842 4.745 24.999 0 24.999 0S22.52 6.242 6.673 6.242v25.611c0 3.097 1.721 5.997 4.104 8.532C16.179 46.133 25 50.001 25 50.001s18.327-8.029 18.327-18.149V6.242c-2.038 0-3.851-.103-5.469-.282z" class="msportalfx-svg-c19" fill="#0072c6"/>
    <path opacity=".2" d="M29.533 16.543L37.858 5.96C26.842 4.745 24.999 0 24.999 0S22.52 6.242 6.673 6.242v25.611c0 3.097 1.721 5.997 4.104 8.532l6.154-7.822 12.602-16.02z" class="msportalfx-svg-c01" fill="#fff"/>
    <path d="M13.971 29.998h.03V15.001l20.113-.03h.001l-20.144.03z" class="msportalfx-svg-c15" fill="#59b4d9"/>
    <path opacity=".95" d="M36.429 13H13.413c-.782 0-1.413.699-1.413 1.48v16.05c0 .776.631 1.468 1.413 1.468h8.573L21.98 32c.795 2.981-.265 3.423-4.897 3.429H17V37h16v-1.571h-.083c-4.632-.005-5.692-.448-4.897-3.429l-.006-.002h8.415c.78 0 1.571-.692 1.571-1.468V14.48c0-.783-.791-1.48-1.571-1.48zm-.459 16.998h-22V15.001h22v14.997z" class="msportalfx-svg-c01" fill="#fff"/>
    <path opacity=".95" d="M25.014 22.045a.143.143 0 01-.07-.02l-4.578-2.643a.141.141 0 01-.069-.12c0-.049.027-.095.069-.12l4.55-2.625a.14.14 0 01.137 0l4.58 2.644c.043.024.068.07.068.12 0 .05-.025.095-.068.12l-4.549 2.625a.153.153 0 01-.07.019" class="msportalfx-svg-c01" fill="#fff"/>
    <path opacity=".8" d="M24.357 28.468a.13.13 0 01-.07-.019l-4.564-2.634a.135.135 0 01-.071-.12v-5.286c0-.05.027-.095.071-.12a.138.138 0 01.139 0l4.564 2.633a.144.144 0 01.068.121v5.286c0 .05-.027.095-.068.12a.153.153 0 01-.069.019" class="msportalfx-svg-c01" fill="#fff"/>
    <path opacity=".6" d="M25.649 28.468a.146.146 0 01-.072-.019.14.14 0 01-.067-.12v-5.253c0-.049.027-.095.067-.12l4.564-2.633a.134.134 0 01.137 0c.044.024.07.07.07.12v5.252a.136.136 0 01-.07.12l-4.562 2.634a.128.128 0 01-.067.019" class="msportalfx-svg-c01" fill="#fff"/>
</svg>
