<svg xmlns="http://www.w3.org/2000/svg" viewBox="0 0 60 60">
    <path fill="#0078d4" d="M60 0H0l60 60V0z"/>
    <rect x="-3.108" y="43.585" width="33.071" height="5.991" rx=".941" transform="rotate(-45 13.428 46.58)" class="msportalfx-svg-c13" fill="#b8d432"/>
    <rect x="-1.347" y="30.819" width="21.126" height="5.991" rx=".941" transform="rotate(-45 9.216 33.814)" class="msportalfx-svg-c13" fill="#b8d432"/>
    <path d="M17.747 17.747l24.506 24.506L60 24.506V0H35.494L17.747 17.747z" class="msportalfx-svg-c15" fill="#59b4d9"/>
    <rect x="15.498" y="47.789" width="21.126" height="5.991" rx=".941" transform="rotate(-45 26.062 50.785)" class="msportalfx-svg-c13" fill="#b8d432"/>
    <path opacity=".2" d="M60 60V0L30 30l30 30z" class="msportalfx-svg-c01" fill="#fff"/>
    <rect x="30.484" y="15.004" width="5.991" height="5.991" rx="1.333" transform="rotate(-45 33.479 18)" class="msportalfx-svg-c01" fill="#fff"/>
    <rect x="38.957" y="6.532" width="5.991" height="5.991" rx="1.333" transform="rotate(-45 41.952 9.527)" class="msportalfx-svg-c01" fill="#fff"/>
    <rect x="38.957" y="23.477" width="5.991" height="5.991" rx="1.333" transform="rotate(-45 41.952 26.473)" class="msportalfx-svg-c01" fill="#fff"/>
    <rect x="47.429" y="15.004" width="5.991" height="5.991" rx="1.333" transform="rotate(-45 50.425 18)" class="msportalfx-svg-c01" fill="#fff"/>
</svg>
