<svg xmlns="http://www.w3.org/2000/svg" width="50" height="50">
    <circle fill="#59B4D9" stroke="#0072C6" stroke-width="2" stroke-miterlimit="10" cx="25" cy="27" r="22"/>
    <circle opacity=".6" fill="#FFF" cx="25" cy="27" r="21"/>
    <path fill="#0072C6" d="M24.476 42.852C21.784 41.196 13 35.258 13 28.325v-8.864l.938-.058c3.758-.231 5.215-1.199 6.5-2.053C21.534 16.626 22.481 16 25 16c2.516 0 3.506.653 4.555 1.346 1.29.856 2.751 1.826 6.507 2.058l.938.057v8.864c0 6.934-8.784 12.871-11.477 14.526l-.523.323-.524-.322z"/>
    <circle fill="#FFF" cx="43" cy="40" r="4"/>
    <path fill="#0072C6" d="M43 36a4 4 0 110 8 4 4 0 010-8m0-2c-3.308 0-6 2.692-6 6s2.692 6 6 6 6-2.692 6-6-2.692-6-6-6z"/>
    <circle fill="#FFF" cx="7" cy="40" r="4"/>
    <path fill="#0072C6" d="M7 36a4 4 0 110 8 4 4 0 010-8m0-2c-3.308 0-6 2.692-6 6s2.692 6 6 6 6-2.692 6-6-2.692-6-6-6z"/>
    <circle fill="#FFF" cx="25" cy="6" r="4"/>
    <path fill="#0072C6" d="M25 2a4 4 0 110 8 4 4 0 010-8m0-2c-3.308 0-6 2.692-6 6s2.692 6 6 6 6-2.692 6-6-2.692-6-6-6z"/>
</svg>
