<svg xmlns="http://www.w3.org/2000/svg" width="50" height="50">
    <path fill="#0072C6" d="M36.7 35.7h1.6V0H7C6 .1 3.9 2.6 3.9 2.9v34.5c0 1 .8 1.9 1.9 1.9h28.5v-.6l2.4-3z"/>
    <path fill="#E5E5E5" d="M8.4 1.6c-.9 0-1.2.1-2 .8-1.7 1.5.4 1.5 1.2 1.5h26.7v34.8l2.4-3.1v-34H8.4z"/>
    <path opacity=".5" fill="#A0A1A2" d="M34.3 38.7l2.4-3V1.6l-2.4 2.3z"/>
    <path fill="#A0A1A2" d="M8.4 21.2c0 .8-.6 1.4-1.4 1.4H2.4c-.8 0-1.4-.6-1.4-1.4 0-.8.6-1.4 1.4-1.4H7c.8-.1 1.4.6 1.4 1.4zm0-10.3c0 .8-.6 1.4-1.4 1.4H2.4c-.8 0-1.4-.6-1.4-1.4 0-.8.6-1.4 1.4-1.4H7c.8 0 1.4.7 1.4 1.4zm0 20.5c0 .8-.6 1.4-1.4 1.4H2.4c-.8 0-1.4-.6-1.4-1.4 0-.8.6-1.4 1.4-1.4H7c.8 0 1.4.6 1.4 1.4z"/>
    <path fill="#3999C6" d="M23.6 22.2v23.5c0 2.4 5.5 4.4 12.2 4.4v-28H23.6z"/>
    <path fill="#59B4D9" d="M35.6 50.2h.2c6.7 0 12.2-2 12.2-4.4V22.2H35.6v28z"/>
    <path fill="#FFF" d="M48 22.2c0 2.4-5.5 4.4-12.2 4.4s-12.2-2-12.2-4.4c0-2.4 5.5-4.4 12.2-4.4s12.2 2 12.2 4.4"/>
    <path fill="#7FBA00" d="M45.5 21.9c0 1.6-4.4 2.9-9.7 2.9s-9.7-1.3-9.7-2.9c0-1.6 4.4-2.9 9.7-2.9s9.7 1.3 9.7 2.9"/>
    <path fill="#B8D432" d="M43.5 23.7c1.3-.5 2-1.1 2-1.8 0-1.6-4.4-2.9-9.7-2.9-5.4 0-9.7 1.3-9.7 2.9 0 .7.8 1.3 2 1.8 1.8-.7 4.6-1.1 7.7-1.1 3.1 0 5.9.4 7.7 1.1"/>
</svg>
