<svg xmlns="http://www.w3.org/2000/svg" width="50" height="50">
    <path fill="#3E3E3E" d="M42.445 47a3 3 0 01-3 3H11a3 3 0 01-3-3V3a3 3 0 013-3h28.445a3 3 0 013 3v44z"/>
    <path fill="#59B4D9" d="M10.224 5h30v35.222h-30z"/>
    <path fill="#FFF" d="M28.112 45.11a2.89 2.89 0 11-5.779 0 2.89 2.89 0 015.779 0"/>
    <path fill="#B8D432" d="M27.117 45.11a1.895 1.895 0 11-3.79 0 1.895 1.895 0 013.79 0"/>
    <path opacity=".15" fill="#FFF" d="M10.223 40.222V5H32.99l2.031-5H11a3 3 0 00-3 3v44a3 3 0 003 3h3.695l3.974-9.778h-8.446z"/>
    <path fill="#1E1E1E" d="M30.334 2.817c0 .408-.33.738-.738.738h-8.744a.739.739 0 110-1.477h8.744c.408 0 .738.331.738.739"/>
    <path fill="#FFF" d="M30.334 2.817c0 .408-.33.738-.738.738h-8.744a.739.739 0 110-1.477h8.744c.408 0 .738.331.738.739m-5.083 18.494a.278.278 0 01-.134-.038l-8.804-5.082a.267.267 0 010-.461l8.751-5.049a.268.268 0 01.263 0l8.807 5.084a.264.264 0 01.131.23.262.262 0 01-.131.23l-8.748 5.048a.27.27 0 01-.135.038"/>
    <path opacity=".7" fill="#FFF" d="M23.987 33.663a.251.251 0 01-.134-.036l-8.778-5.066a.26.26 0 01-.136-.231V18.164c0-.096.051-.183.136-.231a.263.263 0 01.268 0l8.777 5.064a.28.28 0 01.13.233v10.166a.272.272 0 01-.13.231.28.28 0 01-.133.036"/>
    <path opacity=".4" fill="#FFF" d="M26.471 33.663a.287.287 0 01-.138-.036.27.27 0 01-.129-.231V23.294c0-.094.051-.182.129-.231l8.777-5.064a.26.26 0 01.264 0 .263.263 0 01.135.23V28.33a.261.261 0 01-.135.231L26.6 33.627a.236.236 0 01-.129.036"/>
</svg>
