<svg xmlns="http://www.w3.org/2000/svg" width="50" height="50">
    <path fill="#3E3E3E" d="M44 50H6a6 6 0 01-6-6V8h50v36a6 6 0 01-6 6z"/>
    <path fill="#804998" d="M41.45 37c-2.235 0-4.16-.953-5.038-2.326a.489.489 0 00-.827-.002C34.699 36.046 32.757 37 30.5 37c-2.258 0-4.202-.956-5.087-2.331a.488.488 0 00-.826 0C23.702 36.044 21.758 37 19.5 37c-2.255 0-4.196-.952-5.082-2.324a.489.489 0 00-.828.003C12.717 36.049 10.812 37 8.6 37c-1.491 0-2.841-.432-3.831-1.133-.323-.228-.769.026-.769.421V46h42V35.287C44.997 36.322 43.334 37 41.45 37z"/>
    <path opacity=".1" fill="#FFF" d="M41.45 37c-2.235 0-4.16-.953-5.038-2.326a.489.489 0 00-.827-.002C34.699 36.046 32.757 37 30.5 37c-2.258 0-4.202-.956-5.087-2.331a.488.488 0 00-.826 0C23.702 36.044 21.758 37 19.5 37c-2.255 0-4.196-.952-5.082-2.324a.489.489 0 00-.828.003C12.717 36.049 10.812 37 8.6 37c-1.491 0-2.841-.432-3.831-1.133-.323-.228-.769.026-.769.421V46h42V35.287C44.997 36.322 43.334 37 41.45 37z"/>
    <path opacity=".2" fill="#FFF" d="M41.45 37c-2.235 0-4.16-.953-5.038-2.326a.489.489 0 00-.827-.002C34.699 36.046 32.757 37 30.5 37c-2.258 0-4.202-.956-5.087-2.331a.488.488 0 00-.826 0C23.702 36.044 21.758 37 19.5 37c-2.255 0-4.196-.952-5.082-2.324a.489.489 0 00-.828.003C12.717 36.049 10.812 37 8.6 37c-1.491 0-2.841-.432-3.831-1.133-.323-.228-.769.026-.769.421v1.901C4.982 39.279 6.674 40 8.6 40c2.687 0 4.92-1.402 5.401-3.254C14.49 38.598 16.764 40 19.5 40c2.738 0 5.013-1.404 5.5-3.258.487 1.854 2.762 3.258 5.5 3.258 2.737 0 5.011-1.403 5.5-3.256.484 1.853 2.738 3.256 5.45 3.256 1.885 0 3.547-.678 4.55-1.713v-3C44.997 36.322 43.334 37 41.45 37z"/>
    <path fill="#59B4D9" d="M41.45 7c-2.235 0-4.16-.953-5.038-2.326a.489.489 0 00-.827-.002C34.699 6.046 32.757 7 30.5 7c-2.258 0-4.202-.956-5.087-2.331a.488.488 0 00-.826 0C23.702 6.044 21.758 7 19.5 7c-2.255 0-4.196-.952-5.082-2.324a.489.489 0 00-.828.003C12.717 6.049 10.812 7 8.6 7c-1.491 0-2.841-.432-3.831-1.133-.323-.228-.769.026-.769.421V16h42V6.349c0-.391-.438-.647-.762-.428C44.247 6.59 42.916 7 41.45 7z"/>
    <path fill="#B8D432" d="M41.45 22c-2.235 0-4.16-.953-5.038-2.326a.489.489 0 00-.827-.002C34.699 21.046 32.757 22 30.5 22c-2.258 0-4.202-.956-5.087-2.331a.488.488 0 00-.826 0C23.702 21.044 21.758 22 19.5 22c-2.255 0-4.196-.952-5.082-2.324a.489.489 0 00-.828.003C12.717 21.049 10.812 22 8.6 22c-1.491 0-2.841-.432-3.831-1.133-.323-.228-.769.026-.769.421V31h42V20.287C44.997 21.322 43.334 22 41.45 22z"/>
    <path opacity=".2" fill="#FFF" d="M41.45 22c-2.235 0-4.16-.953-5.038-2.326a.489.489 0 00-.827-.002C34.699 21.046 32.757 22 30.5 22c-2.258 0-4.202-.956-5.087-2.331a.488.488 0 00-.826 0C23.702 21.044 21.758 22 19.5 22c-2.255 0-4.196-.952-5.082-2.324a.489.489 0 00-.828.003C12.717 21.049 10.812 22 8.6 22c-1.491 0-2.841-.432-3.831-1.133-.323-.228-.769.026-.769.421v1.901C4.982 24.279 6.674 25 8.6 25c2.687 0 4.92-1.402 5.401-3.254C14.49 23.598 16.764 25 19.5 25c2.738 0 5.013-1.404 5.5-3.258.487 1.854 2.762 3.258 5.5 3.258 2.737 0 5.011-1.403 5.5-3.256.484 1.853 2.738 3.256 5.45 3.256 1.885 0 3.547-.678 4.55-1.713v-3C44.997 21.322 43.334 22 41.45 22z"/>
</svg>
