<svg xmlns="http://www.w3.org/2000/svg" width="50" height="50">
    <path fill="#3E3E3E" d="M6.1 6.8v36.3c0 3.8 8.4 6.8 18.9 6.8V6.8H6.1z"/>
    <path fill="#A0A1A2" d="M24.7 50h.3c10.4 0 18.9-3.1 18.9-6.8V6.8H24.7V50z"/>
    <path fill="#FFF" d="M43.9 6.8c0 3.8-8.4 6.8-18.9 6.8s-18.9-3-18.9-6.8C6.1 3.1 14.6 0 25 0s18.9 3.1 18.9 6.8"/>
    <path fill="#7FBA00" d="M40 6.4c0 2.5-6.7 4.5-15 4.5s-15-2-15-4.5 6.7-4.5 15-4.5 15 2 15 4.5"/>
    <path fill="#B8D432" d="M36.9 9.2c2-.8 3.1-1.7 3.1-2.8 0-2.5-6.7-4.5-15-4.5s-15 2-15 4.5c0 1 1.2 2 3.1 2.8 2.7-1.1 7-1.8 11.9-1.8 4.8 0 9.1.7 11.9 1.8"/>
    <path fill="#3999C6" d="M24.7 50V32c-2.8 0-5.2-1.5-6.6-3.7-1.4 2.2-3.7 3.7-6.5 3.7-2.2 0-4.1-.9-5.5-2.4v13.6c0 3.7 8.3 6.7 18.6 6.8zm.3 0z"/>
    <path fill="#59B4D9" d="M24.7 50h.3-.3zm13.4-18c-2.8 0-5.3-1.5-6.7-3.7-1.3 2.2-3.7 3.6-6.5 3.7v18c10.4 0 18.9-3.1 18.9-6.8V29.5C42.4 31 40.4 32 38.1 32zm-13.3 0l-.1 18h.2V32h-.1z"/>
</svg>
