<svg xmlns="http://www.w3.org/2000/svg" width="50" height="50">
    <path fill="#7FBA00" d="M9.5 18h-4a.5.5 0 01-.5-.5v-3a.5.5 0 01.5-.5h4a.5.5 0 01.5.5v3a.5.5 0 01-.5.5zm0 7h-4a.5.5 0 01-.5-.5v-3a.5.5 0 01.5-.5h4a.5.5 0 01.5.5v3a.5.5 0 01-.5.5zm0-14h-4a.5.5 0 01-.5-.5v-3a.5.5 0 01.5-.5h4a.5.5 0 01.5.5v3a.5.5 0 01-.5.5z"/>
    <path fill="#7A7A7A" d="M0 1.5v6a.5.5 0 00.5.5h2a.5.5 0 00.5-.5v-3a.5.5 0 01.5-.5h21a.5.5 0 01.5.5v3a.5.5 0 00.5.5h2a.5.5 0 00.5-.5v-6a.5.5 0 00-.5-.5H.5a.5.5 0 00-.5.5z"/>
    <path fill="#7FBA00" d="M20.5 27h-4a.5.5 0 01-.5-.5v-3a.5.5 0 01.5-.5h4a.5.5 0 01.5.5v3a.5.5 0 01-.5.5zm0 7h-4a.5.5 0 01-.5-.5v-3a.5.5 0 01.5-.5h4a.5.5 0 01.5.5v3a.5.5 0 01-.5.5zm0-14h-4a.5.5 0 01-.5-.5v-3a.5.5 0 01.5-.5h4a.5.5 0 01.5.5v3a.5.5 0 01-.5.5z"/>
    <path fill="#7A7A7A" d="M11 10.5v6a.5.5 0 00.5.5h2a.5.5 0 00.5-.5v-3a.5.5 0 01.5-.5h21a.5.5 0 01.5.5v3a.5.5 0 00.5.5h2a.5.5 0 00.5-.5v-6a.5.5 0 00-.5-.5h-27a.5.5 0 00-.5.5z"/>
    <path fill="#7FBA00" d="M31.5 36h-4a.5.5 0 01-.5-.5v-3a.5.5 0 01.5-.5h4a.5.5 0 01.5.5v3a.5.5 0 01-.5.5zm7-4h-4a.5.5 0 01-.5-.5v-3a.5.5 0 01.5-.5h4a.5.5 0 01.5.5v3a.5.5 0 01-.5.5zm0 7h-4a.5.5 0 01-.5-.5v-3a.5.5 0 01.5-.5h4a.5.5 0 01.5.5v3a.5.5 0 01-.5.5zm7-3h-4a.5.5 0 01-.5-.5v-3a.5.5 0 01.5-.5h4a.5.5 0 01.5.5v3a.5.5 0 01-.5.5zm-14 7h-4a.5.5 0 01-.5-.5v-3a.5.5 0 01.5-.5h4a.5.5 0 01.5.5v3a.5.5 0 01-.5.5zm0-14h-4a.5.5 0 01-.5-.5v-3a.5.5 0 01.5-.5h4a.5.5 0 01.5.5v3a.5.5 0 01-.5.5z"/>
    <path fill="#3999C6" d="M22 19.5v6a.5.5 0 00.5.5h2a.5.5 0 00.5-.5v-3a.5.5 0 01.5-.5h21a.5.5 0 01.5.5v3a.5.5 0 00.5.5h2a.5.5 0 00.5-.5v-6a.5.5 0 00-.5-.5h-27a.5.5 0 00-.5.5zm28 29v-6a.5.5 0 00-.5-.5h-2a.5.5 0 00-.5.5v3a.5.5 0 01-.5.5h-21a.5.5 0 01-.5-.5v-3a.5.5 0 00-.5-.5h-2a.5.5 0 00-.5.5v6a.5.5 0 00.5.5h27a.5.5 0 00.5-.5z"/>
    <path fill="#7A7A7A" d="M11 28H3.5a.5.5 0 01-.5-.5v-3a.5.5 0 00-.5-.5h-2a.5.5 0 00-.5.5v6a.5.5 0 00.5.5H11v-3zm11 9h-7.5a.5.5 0 01-.5-.5v-3a.5.5 0 00-.5-.5h-2a.5.5 0 00-.5.5v6a.5.5 0 00.5.5H22v-3z"/>
</svg>
