<svg data-name="Layer 1" xmlns="http://www.w3.org/2000/svg" viewBox="0 0 42.062 45">
    <path d="M35.591 10.128l.449.449 2.247-1.887 3.775-6.2-.989-.989-5.931 3.953-1.8 2.337.449.449L22.02 20.374l-2.427-2.517-2.7 2.786a4.832 4.832 0 01-1.258 3.865 4.262 4.262 0 01-3.685 1.348L.004 38.08l6.651 6.921 11.86-12.314a4.61 4.61 0 011.348-3.865 4.262 4.262 0 013.685-1.348l2.7-2.786-2.427-2.517z" fill="#00abec"/>
    <path d="M34.513 41.405a4.24 4.24 0 006.2 0 4.469 4.469 0 001.258-3.236 4.877 4.877 0 00-1.258-3.236l-13.3-13.661-1.259 1.349 2.427 2.517-1.079.989-2.7 2.786-.36.36-.539-.09a5.125 5.125 0 00-1.168.09zM16.931 2.924A9.24 9.24 0 007.984.266l5.22 5.476-1.432 5.281-5.237 1.355-5.131-5.474a9.838 9.838 0 002.28 9.294 9.1 9.1 0 009.038 2.569l.177.183 2.387 2.554a2.488 2.488 0 00.1-.807l.018-.448-.174-.362 4.111-4.16.706.82 1.591 1.733 1.274-1.331-3.8-4.195a9.962 9.962 0 00-2.181-9.83z" fill="#525252" opacity=".8"/>
</svg>
