<svg xmlns="http://www.w3.org/2000/svg" width="50" height="50">
    <path fill-rule="evenodd" clip-rule="evenodd" fill="#A0A1A2" d="M20 44h12l-3-7 3-7V19H20z"/>
    <path opacity=".5" fill-rule="evenodd" clip-rule="evenodd" fill="#E5E5E5" d="M20 44h12l-3-7 3-7V19H20z"/>
    <path fill="#3E3E3E" d="M25.328 41.757l-.49-1.194-2.733-.896L21 39.252v-4.361l3.884-1.387.488-1.191-1.511-2.978-.322-.645 3.09-3.09 3.617 1.726 1.191-.488.563-1.715V3c0-1.657-1.323-3-2.956-3H6.956C5.323 0 4 1.343 4 3v38c0 1.657 1.323 3 2.956 3h17.318l1.054-2.243z"/>
    <path fill="#59B4D9" d="M21 34.891l3.884-1.387.488-1.191-1.511-2.978-.322-.645 3.09-3.089L30 27.209V5H6v33h15z"/>
    <path fill="#FFF" d="M23 2.817c0 .408-.53.738-1.186.738h-7.625c-.657 0-1.189-.33-1.189-.738s.532-.739 1.189-.739h7.625c.656 0 1.186.331 1.186.739"/>
    <path opacity=".15" fill="#FFF" d="M26.021 0H7a3 3 0 00-3 3v38a3 3 0 003 3h2.6L26.021 0z"/>
    <path fill="#7A7A7A" d="M48 38.404V35.44l-.416-.156-3.172-1.04-.832-2.028 1.612-3.432-2.08-2.08-.416.208-2.964 1.508-2.028-.832-1.3-3.588H33.44l-.156.416-1.04 3.172-2.028.832-3.38-1.612-2.08 2.08.208.416 1.508 2.964-.832 2.028-3.64 1.3v2.964l.416.156 3.172 1.04.832 2.028-1.612 3.432 2.08 2.08.416-.208 2.964-1.508 2.028.832 1.3 3.588h2.964l.156-.416 1.04-3.172 2.028-.832 3.432 1.612 2.08-2.08-.208-.416-1.508-2.964.832-2.028 3.588-1.3zM35 41.42c-2.444 0-4.42-1.976-4.42-4.42s1.976-4.42 4.42-4.42 4.42 1.976 4.42 4.42-1.976 4.42-4.42 4.42z"/>
</svg>
