<svg xmlns="http://www.w3.org/2000/svg" width="50" height="50">
    <circle fill="#0072C6" cx="21" cy="21" r="21"/>
    <path opacity=".2" fill="#FFF" d="M6.15 35.85c-8.201-8.201-8.201-21.497 0-29.698s21.497-8.201 29.698 0L6.15 35.85z"/>
    <path opacity=".8" fill="#FFF" d="M40.32 20.997c0-4.328-1.468-8.501-4.173-11.901l-.155-.155c-.077-.077-.077-.155-.155-.232l-1.236-1.314C30.969 3.686 26.178 1.677 21 1.677h-.154c-5.1.077-9.815 2.009-13.447 5.641L6.085 8.709c-.077.077-.077.155-.155.232l-.154.077A19.692 19.692 0 001.68 20.996c0 4.328 1.468 8.501 4.173 11.901l.155.155c.077.077.077.155.155.232l1.236 1.314c3.632 3.632 8.346 5.641 13.447 5.641H21c5.1 0 9.969-2.009 13.601-5.641l1.236-1.391c.077-.077.077-.155.155-.232l.155-.155c2.705-3.245 4.173-7.496 4.173-11.823zM32.515 8.4c-.077 0-.155.077-.232.077-.155.077-.309.155-.386.155-.309.155-.696.232-1.082.386-.077 0-.155.077-.232.077-.464.155-.85.232-1.314.386-.077 0-.232.077-.309.077-.696-1.855-1.546-3.478-2.55-4.714 2.241.697 4.327 1.933 6.105 3.556zm-11.67-4.482h.077c2.087 0 4.25 2.241 5.796 6.105-1.777.309-3.709.464-5.719.464s-4.019-.155-5.873-.464c1.469-3.787 3.633-6.028 5.719-6.105zm-5.486 1.004c-.927 1.236-1.777 2.782-2.473 4.637h-.155c-.464-.155-.927-.232-1.314-.386-.077 0-.155-.077-.232-.077-.309-.155-.696-.309-1.005-.464-.155-.077-.232-.077-.386-.155-.077-.077-.154-.077-.309-.154 1.778-1.469 3.71-2.705 5.874-3.401zM9.485 33.593c.077 0 .155-.077.232-.077.155-.077.232-.077.386-.155.309-.155.696-.232 1.082-.386.077 0 .155-.077.232-.077.464-.155.85-.232 1.314-.386h.155c.696 1.777 1.546 3.4 2.473 4.637-2.164-.774-4.174-2.01-5.874-3.556zm11.438 4.483h-.077c-2.087-.077-4.25-2.241-5.719-6.028 1.855-.309 3.864-.464 5.873-.464s3.864.155 5.719.464c-1.469 3.786-3.71 6.028-5.796 6.028zm5.487-.928c1.005-1.236 1.855-2.859 2.55-4.714.077 0 .232.077.309.077.464.155.927.232 1.314.386.077 0 .155.077.232.077.386.155.696.232 1.082.386.155.077.232.077.386.155.077 0 .155.077.309.155-1.855 1.546-3.941 2.783-6.182 3.478zm7.805-5.332c-.232 0-.386-.077-.618-.155-.232-.077-.541-.232-.773-.309-.077 0-.155-.077-.232-.077-.927-.386-1.932-.618-2.937-.927.232-.927.464-1.855.618-2.782h-2.318c-.155.85-.309 1.623-.541 2.318-2.009-.386-4.173-.541-6.414-.541-2.318 0-4.482.232-6.569.618-.232-.773-.386-1.546-.541-2.396h-2.318c.155 1.005.386 1.932.618 2.859-.927.232-1.855.541-2.705.85-.077.077-.232.077-.309.155-.232.077-.541.232-.773.309-.155 0-.386.077-.541.155-2.318-2.782-3.632-6.26-3.864-9.815H5.93v-2.241H3.998c.232-3.555 1.546-6.955 3.787-9.66l.077-.077c.155.077.386.155.541.232.309.155.541.232.85.386.077 0 .155.077.232.077.85.309 1.777.618 2.782.85-.232.85-.386 1.7-.541 2.55h2.318c.155-.696.309-1.468.464-2.087 2.087.386 4.328.618 6.569.618s4.405-.232 6.414-.541c.155.618.309 1.314.464 2.087h2.318c-.155-.85-.309-1.7-.541-2.55a17.686 17.686 0 002.859-.927c.077 0 .232-.077.309-.077.309-.077.541-.232.85-.309.155-.077.386-.155.541-.232 2.241 2.782 3.632 6.182 3.864 9.737h-2.318v2.241h2.318c-.385 3.478-1.699 6.956-3.94 9.661z"/>
    <path fill="#FFF" d="M16.146 20.878c0 .916-.12 1.699-.359 2.349-.239.651-.583 1.182-1.03 1.593a4.112 4.112 0 01-1.632.906c-.64.192-1.403.289-2.287.289H8.455a.631.631 0 01-.428-.15c-.116-.101-.173-.264-.173-.49v-8.702c0-.227.058-.39.173-.49a.628.628 0 01.428-.15h2.561c.89 0 1.645.104 2.265.313.62.208 1.142.517 1.567.926.424.409.747.914.969 1.515.219.602.329 1.3.329 2.091zm-2.098.07c0-.474-.055-.913-.166-1.32a2.806 2.806 0 00-.533-1.057 2.464 2.464 0 00-.942-.698c-.383-.168-.885-.251-1.509-.251H9.873v6.789h1.058c.555 0 1.023-.071 1.404-.216.381-.144.698-.361.953-.652s.445-.652.571-1.084c.125-.431.189-.935.189-1.511zm11.996 4.36a.708.708 0 01-.228.548.62.62 0 01-.246.134.994.994 0 01-.29.043h-.864c-.181 0-.335-.018-.468-.054a.92.92 0 01-.362-.197 1.688 1.688 0 01-.32-.386 7.126 7.126 0 01-.346-.629l-2.485-4.668a20.64 20.64 0 01-.841-1.836h-.014a37.592 37.592 0 01.061 2.243v5.223a.234.234 0 01-.043.139.318.318 0 01-.147.104c-.07.029-.164.05-.281.065a3.51 3.51 0 01-.455.024c-.18 0-.329-.008-.448-.024a1.132 1.132 0 01-.277-.065.29.29 0 01-.139-.104.262.262 0 01-.039-.139v-8.972c0-.242.071-.423.212-.544a.777.777 0 01.521-.181h1.087c.196 0 .36.017.494.05.134.034.253.088.359.166.105.077.206.184.297.32.092.137.187.305.285.506l1.945 3.649c.112.221.225.439.335.652.11.213.218.428.32.641l.301.628c.097.206.192.412.285.617h.008a54.539 54.539 0 01-.045-2.244v-4.683c0-.051.015-.097.045-.139a.364.364 0 01.155-.108c.071-.031.167-.053.285-.066a4.33 4.33 0 01.455-.019c.175 0 .32.006.439.019a.864.864 0 01.275.066.317.317 0 01.135.108.264.264 0 01.038.139v8.973l.001.001zm8.094-2.285c0 .526-.098.985-.293 1.381-.196.396-.46.727-.795.991a3.469 3.469 0 01-1.173.598c-.447.134-.926.2-1.435.2-.344 0-.664-.029-.96-.085a5.458 5.458 0 01-.783-.204 3.351 3.351 0 01-.567-.251 1.611 1.611 0 01-.328-.232.595.595 0 01-.143-.289 2.655 2.655 0 01-.043-.544c0-.16.005-.293.016-.401.01-.108.026-.196.05-.263a.299.299 0 01.092-.143.224.224 0 01.135-.043c.072 0 .174.043.304.128.131.084.3.179.506.281.206.102.451.197.737.281.285.085.616.128.991.128.246 0 .468-.029.663-.089s.361-.143.497-.251a1.07 1.07 0 00.312-.401c.072-.16.108-.337.108-.533a.927.927 0 00-.186-.582 1.837 1.837 0 00-.483-.433 4.933 4.933 0 00-.675-.354 42.948 42.948 0 01-.779-.352 7.132 7.132 0 01-.779-.42 3.1 3.1 0 01-.675-.564 2.668 2.668 0 01-.483-.776c-.124-.298-.186-.655-.186-1.073 0-.478.089-.899.266-1.262.178-.363.417-.663.717-.903a3.061 3.061 0 011.065-.536 4.67 4.67 0 011.299-.177 4.792 4.792 0 011.373.201c.205.062.389.131.548.208.16.077.265.141.316.193.051.051.086.095.104.131s.034.084.046.143c.013.06.022.134.026.224a6.17 6.17 0 01-.005.714 1.564 1.564 0 01-.038.255.313.313 0 01-.077.147.192.192 0 01-.135.046c-.057 0-.147-.035-.27-.108a6.515 6.515 0 00-.455-.236 4.52 4.52 0 00-.624-.232 2.739 2.739 0 00-.779-.104c-.221 0-.414.027-.578.081a1.177 1.177 0 00-.412.224.883.883 0 00-.247.343 1.126 1.126 0 00-.081.424c0 .221.06.412.181.575.121.162.283.306.486.432s.433.244.691.354c.257.111.519.228.787.352.267.123.529.264.787.42.257.157.486.344.687.564.2.218.362.476.486.772.128.301.191.649.191 1.05z"/>
    <circle fill="#1E1E1E" cx="37" cy="37" r="12"/>
    <path fill="#E5E5E5" d="M37 26c6.065 0 11 4.935 11 11s-4.935 11-11 11-11-4.935-11-11 4.935-11 11-11m0-2c-7.18 0-13 5.82-13 13s5.82 13 13 13 13-5.82 13-13-5.82-13-13-13z"/>
    <path fill="#E5E5E5" d="M40.193 42.412c-.321 0-.626-.154-.814-.414L37 38.744l-2.379 3.254a1.007 1.007 0 01-1.81-.44.991.991 0 01.183-.749l2.451-3.354-3.688-1.076a1.01 1.01 0 01.565-1.937l3.67 1.07V31.44a1.01 1.01 0 012.018 0v4.071l3.67-1.07a1.014 1.014 0 011.251.686 1.01 1.01 0 01-.686 1.251l-3.688 1.076 2.451 3.354a.996.996 0 01.183.749.997.997 0 01-.401.659 1.002 1.002 0 01-.597.196z"/>
    <path fill="#FFF" d="M37 37l-3.788 5.217a.996.996 0 01-.401-.659.991.991 0 01.183-.749l2.451-3.354-3.688-1.076a1.01 1.01 0 01.565-1.937l3.67 1.07V31.44a1.01 1.01 0 011.009-1.008L37 37z"/>
</svg>
