<svg xmlns="http://www.w3.org/2000/svg" width="50" height="50">
    <path fill="#0072C6" d="M39 22v-2H24.004l-.008-.004L16.991 27H11.82l12-12H32v-2h-9v.005L22.992 13 8.991 27H7v2h6l7 6.999V36h17v-2H20.828l-4.999-5H28v-2h-8.18l5-5z"/>
    <circle fill="#59B4D9" cx="30" cy="28" r="2.9"/>
    <circle transform="rotate(-45.001 33 14)" fill="#59B4D9" cx="33" cy="14" r="2.9"/>
    <circle transform="rotate(-45.001 40 21)" fill="#B8D432" cx="40" cy="21" r="2.9"/>
    <circle transform="rotate(-45.001 37 35)" fill="#B8D432" cx="37" cy="35" r="2.9"/>
    <path fill="#0072C6" d="M.801 0C.3 0 0 .3 0 .8v10c0 .5.3.8.801.8h5.008c.501 0 .801-.3.801-.8V6.7h36.76v4.2c0 .5.3.8 1.002.8h4.808c.501 0 .801-.3.801-.8V.9c.1-.6-.2-.9-.701-.9H.801zM49.2 50c.5 0 .8-.3.8-.8v-9.8c0-.5-.3-.8-.8-.8h-4.8c-.5 0-.8.3-.8.8v4H6.7v-4.2c0-.5-.3-.8-1-.8H.8c-.5 0-.8.3-.8 1v9.8c0 .5.3.8.8.8h48.4z"/>
</svg>
