<svg xmlns="http://www.w3.org/2000/svg" width="50" height="50">
    <path fill="#7FBA00" d="M25.001 50a4.575 4.575 0 01-3.261-1.352L1.351 28.26A4.64 4.64 0 010 24.999c0-1.214.492-2.402 1.351-3.26L21.74 1.351a4.578 4.578 0 013.261-1.352c1.231 0 2.39.48 3.261 1.352l20.386 20.388A4.565 4.565 0 0150 24.999a4.574 4.574 0 01-1.353 3.263L28.262 48.648A4.578 4.578 0 0125.001 50"/>
    <path fill="#FFF" d="M45.613 24.66L39 18.048v4.668l-7.016-.006A7.276 7.276 0 0027 17.69V11h4.613L25 4.387 18.388 11H23v6.689a7.28 7.28 0 00-4.981 5.008L11 22.691v-4.618l-6.613 6.613L11 31.298V26.63l7.022.006A7.278 7.278 0 0023 31.632v4.636c-1 .728-2.528 2.258-2.528 4.04 0 2.481 2.033 4.5 4.514 4.5s4.51-2.019 4.51-4.5c0-1.762-1.496-3.274-2.496-4.013v-4.663a7.28 7.28 0 004.975-4.983l7.025.006v4.618l6.613-6.613z"/>
    <path fill="#59B4D9" d="M25 19.402c-2.899 0-5.258 2.359-5.258 5.258s2.359 5.258 5.258 5.258 5.258-2.358 5.258-5.258-2.359-5.258-5.258-5.258z"/>
    <path opacity=".15" fill="#FFF" d="M28.262 1.351a4.578 4.578 0 00-3.261-1.352c-1.231 0-2.389.48-3.26 1.352L1.352 21.739A4.635 4.635 0 000 24.999c0 1.215.492 2.403 1.352 3.261l11.543 11.544L34.61 7.698l-6.348-6.347z"/>
</svg>
