<svg width="800" height="800" fill="none" xmlns="http://www.w3.org/2000/svg">
    <path fill-rule="evenodd" clip-rule="evenodd" d="M420 362v-76h-44v76c0 61-141 0-141 99v79h33v-79c0-53 130-20.5 130-69.5 0 49.351 130 16.5 130 69.5v79h33v-79c0-99-141-38-141-99z" fill="#59B4D9"/>
    <path fill-rule="evenodd" clip-rule="evenodd" d="M435.786 180h-76.58C343.269 180 332 191.976 332 208v77c0 16.024 11.269 27 27.206 27h76.58C451.737 312 464 301.024 464 285v-77c0-16.024-13.488-28-28.214-28zm-64.488 93h52.397v-53h-52.397v53z" fill="#0072C6"/>
    <path fill-rule="evenodd" clip-rule="evenodd" d="M161 683c-53 0-82-23.471-82-74V461c0-24.652-9.523-34-29-34v-37c19.477 0 29-9.118 29-35V208c0-53.969 30.365-75 82-75v37c-20.692 0-32 13.348-32 38v147c0 32.049-10.294 44.386-31 53 19.477 8.627 31 20.965 31 53v148c0 21.1 9.504 37 32 37v37zm474-550c50 0 82 24.624 82 75v147c0 24.652 9.523 35 29 35v37c-19.477 0-29.1 8.118-29.1 34v148c0 53.534-30.29 74-81.9 74v-37c20.692 0 31.993-12.348 31.993-37V461c0-32.049 9.301-44.373 30.007-53-19.477-9.858-30.007-20.965-30.007-53L667 208c0-21.109-9.493-38-32-38v-37z" fill="#59B4D9"/>
    <rect x="190" y="483" width="122" height="122" rx="30" fill="#7FBA00"/>
    <rect x="482" y="483" width="122" height="122" rx="30" fill="#7FBA00"/>
</svg>
