<svg xmlns="http://www.w3.org/2000/svg" width="50" height="50">
    <path fill="#59B4D9" d="M.5 45.1c0 1.1.9 2 2 2h46c1.1 0 2-.9 2-2V13.8H.5v31.3z"/>
    <path fill="#0072C6" d="M48.5 4.5h-46c-1.1 0-2 .9-2 2v10.6h50V6.5c0-1.1-.9-2-2-2"/>
    <path fill="#FFF" d="M13.4 9.3h33.7v3.9H13.4z"/>
    <path fill="#59B4D9" d="M11.8 11.2c0 2.7-2.2 4.9-4.9 4.9S2 13.9 2 11.2s2.2-4.9 4.9-4.9 4.9 2.2 4.9 4.9"/>
    <path fill="#FFF" d="M6.4 11.7l2.2 2.4H7.4l-2.9-2.8 2.9-2.9h1.2l-2.2 2.4h5.4v.9z"/>
    <path fill="#0072C6" d="M17.9 36.6c0 .6-.2 1-.6 1.4s-.9.5-1.6.5c-.6 0-1.1-.2-1.5-.6s-.6-.8-.6-1.4c0-.6.2-1 .6-1.4s.9-.5 1.6-.5c.6 0 1.1.2 1.5.6s.6.8.6 1.4zm8.9 0c0 .6-.2 1-.6 1.4s-.9.5-1.6.5c-.6 0-1.1-.2-1.5-.6s-.6-.8-.6-1.4c0-.6.2-1 .6-1.4s.9-.5 1.6-.5c.6 0 1.1.2 1.5.6s.6.8.6 1.4zm8.9 0c0 .6-.2 1-.6 1.4s-.9.5-1.6.5c-.6 0-1.1-.2-1.5-.6s-.6-.8-.6-1.4c0-.6.2-1 .6-1.4.4-.4.9-.5 1.6-.5.6 0 1.1.2 1.5.6s.6.8.6 1.4z"/>
</svg>
