<svg xmlns="http://www.w3.org/2000/svg" width="50" height="50"><path fill="#3999C6" d="M25.561 23.167a.562.562 0 0 1-.288-.083L6.011 12.045a.578.578 0 0 1 0-1.002L25.149.075c.182-.1.405-.1.579 0L44.994 11.12c.174.102.29.291.29.496 0 .212-.116.4-.29.504L25.853 23.084a.573.573 0 0 1-.292.083"/><path fill="#59B4D9" d="M22.792 50a.57.57 0 0 1-.295-.077L3.295 38.917A.567.567 0 0 1 3 38.416V16.331a.586.586 0 0 1 .881-.506L23.08 26.831a.587.587 0 0 1 .286.504v22.086a.575.575 0 0 1-.574.579M28.225 50a.575.575 0 0 1-.583-.579V27.478c0-.207.11-.397.288-.504l19.196-11.002a.601.601 0 0 1 .587 0 .583.583 0 0 1 .287.5v21.943a.58.58 0 0 1-.287.502L28.511 49.923a.534.534 0 0 1-.286.077"/><path opacity=".5" fill="#FFF" d="M28.225 50a.575.575 0 0 1-.583-.579V27.478c0-.207.11-.397.288-.504l19.196-11.002a.601.601 0 0 1 .587 0 .583.583 0 0 1 .287.5v21.943a.58.58 0 0 1-.287.502L28.511 49.923a.534.534 0 0 1-.286.077"/></svg>