<svg xmlns="http://www.w3.org/2000/svg" viewBox="0 0 50 50" class="fxs-portal-svg">
    <path d="M41.681 36.313L39.199 46l-8.605-5.095z" class="msportalfx-svg-c17" fill="#804998"/>
    <path d="M24.025 25.996s-.475.862-1 1c6.594 0 10.902 10.95 13.469 17.34l3.331-.962c-2.623-6.939-5.8-17.378-15.8-17.378zm17.656-12.317l-2.482-9.687-8.605 5.095z" class="msportalfx-svg-c17" fill="#804998"/>
    <path d="M24.025 23.996s-.475-.862-1-1c6.594 0 10.902-10.95 13.469-17.34l3.331.962c-2.623 6.939-5.8 17.378-15.8 17.378zm18.018-5l8 6-8 6z" class="msportalfx-svg-c17" fill="#804998"/>
    <path d="M45.204 22.996V27H21v-4.004z" class="msportalfx-svg-c17" fill="#804998"/>
    <path d="M4.754 38H19a4.754 4.754 0 004.754-4.754V16.75A4.754 4.754 0 0019 11.996H4.754A4.753 4.753 0 000 16.75v16.497A4.753 4.753 0 004.754 38z" class="msportalfx-svg-c14" fill="#7fba00"/>
    <path opacity=".2" d="M4.754 38L19 11.996H4.754A4.753 4.753 0 000 16.75v16.497A4.753 4.753 0 004.754 38z" class="msportalfx-svg-c01" fill="#fff"/>
    <path d="M14 21.996h6v6h-6zM4 16h6v6H4zm0 12h6v6H4z" class="msportalfx-svg-c01" fill="#fff"/>
</svg>
