<svg xmlns="http://www.w3.org/2000/svg" width="50" height="50">
    <path fill="#DD5900" d="M24.996 9.48l15.78 13.101-5.321 18.032H14.197L9.18 22.61 24.996 9.48m0-5.586L4.293 21.082l6.641 23.828h27.734l7.031-23.828L24.996 3.894z"/>
    <path fill-rule="evenodd" clip-rule="evenodd" fill="#FF8C00" d="M25 0a7.813 7.813 0 110 15.626A7.813 7.813 0 0125 0zm17.188 13.281a7.812 7.812 0 110 15.624 7.813 7.813 0 110-15.624zm-5.86 21.094a7.813 7.813 0 110 15.626 7.813 7.813 0 010-15.626zm-22.666 0a7.813 7.813 0 11-7.813 7.812 7.813 7.813 0 017.813-7.812zM7.813 13.281a7.812 7.812 0 110 15.624 7.813 7.813 0 010-15.624z"/>
    <path opacity=".25" fill-rule="evenodd" clip-rule="evenodd" fill="#FFF" d="M15.055 49.875l3.183-14.018a7.775 7.775 0 00-4.576-1.481c-.401 0-.794.03-1.179.089l-1.711-6.139a7.814 7.814 0 004.146-10.479l4.972-4.127a7.81 7.81 0 003.007 1.619L26.352.12a7.812 7.812 0 00-8.824 9.975l-5.402 4.485a7.812 7.812 0 10-5.687 14.204l2.094 7.514a7.79 7.79 0 00-2.684 5.89 7.813 7.813 0 009.206 7.687z"/>
</svg>
