<svg xmlns="http://www.w3.org/2000/svg" width="50" height="50">
    <path fill="#3999C6" d="M2.293 32L23 17.293 43.707 32 23 47.707 2.293 32z"/>
    <path fill="#FFF" d="M7.362 32.079L23 20.973l15.638 11.106L23 43.941z"/>
    <path opacity=".4" fill="#59B4D9" d="M7.362 32.079L23 20.973l15.638 11.106L23 43.941z"/>
    <circle fill="#FFF" cx="40" cy="32" r="6.9"/>
    <path fill="#3999C6" d="M40 28.1c2.15 0 3.9 1.75 3.9 3.9s-1.75 3.9-3.9 3.9-3.9-1.75-3.9-3.9 1.75-3.9 3.9-3.9m0-3a6.9 6.9 0 100 13.8 6.9 6.9 0 100-13.8z"/>
    <path fill="#804998" d="M48.773 9.551C48.773 4.388 44.845.1 40 .1s-8.773 4.113-8.773 9.451S40 29.5 40 33c0-3.5 8.773-18.286 8.773-23.449z"/>
    <circle fill="#FFF" cx="40" cy="9" r="3.9"/>
    <circle fill="#804998" cx="23" cy="20" r="4.9"/>
    <circle fill="#804998" cx="6" cy="32" r="4.9"/>
    <circle fill="#804998" cx="23" cy="45" r="4.9"/>
</svg>
