<svg xmlns="http://www.w3.org/2000/svg" viewBox="-0.5 0.5 50 50" class="fxs-portal-svg">
    <path d="M5.757 7.288v36.111c0 3.749 8.392 6.789 18.743 6.789v-42.9H5.757z" class="msportalfx-svg-c19" fill="#0072c6"/>
    <path d="M24.243 50.187h.257c10.351 0 18.743-3.038 18.743-6.788V7.288h-19v42.899z" class="msportalfx-svg-c19" fill="#0072c6"/>
    <path opacity=".15" d="M24.243 50.187h.257c10.351 0 18.743-3.038 18.743-6.788V7.288h-19v42.899z" class="msportalfx-svg-c01" fill="#fff"/>
    <path d="M43.243 7.288c0 3.749-8.392 6.788-18.743 6.788S5.757 11.037 5.757 7.288 14.149.5 24.5.5s18.743 3.039 18.743 6.788" class="msportalfx-svg-c01" fill="#fff"/>
    <path d="M39.411 6.897c0 2.475-6.676 4.479-14.911 4.479S9.588 9.372 9.588 6.897c0-2.474 6.677-4.479 14.912-4.479s14.911 2.005 14.911 4.479" class="msportalfx-svg-c14" fill="#7fba00"/>
    <path d="M36.287 9.634c1.952-.757 3.125-1.705 3.125-2.735 0-2.475-6.676-4.48-14.912-4.48-8.235 0-14.911 2.005-14.911 4.48 0 1.03 1.173 1.978 3.125 2.735C15.44 8.576 19.7 7.893 24.5 7.893c4.801 0 9.059.683 11.787 1.741" class="msportalfx-svg-c13" fill="#b8d432"/>
    <path d="M18.547 32.354c0 1.122-.407 1.991-1.221 2.607-.814.616-1.938.924-3.373.924-1.221 0-2.241-.22-3.061-.66v-2.64c.946.803 1.988 1.205 3.126 1.205.55 0 .975-.11 1.275-.33s.45-.511.45-.875c0-.357-.144-.668-.433-.932s-.876-.605-1.761-1.023c-1.804-.846-2.706-2.002-2.706-3.464 0-1.061.393-1.912 1.18-2.553.786-.64 1.831-.961 3.134-.961 1.155 0 2.111.152 2.871.454v2.466c-.797-.55-1.705-.825-2.722-.825-.511 0-.915.108-1.212.325a1.026 1.026 0 00-.445.87c0 .374.119.681.359.92.239.239.73.535 1.472.887 1.106.523 1.893 1.053 2.364 1.592.468.54.703 1.211.703 2.013zm12.727-2.672c0 1.391-.317 2.599-.949 3.621-.633 1.023-1.523 1.74-2.672 2.153l3.431 3.176H27.62l-2.45-2.747c-1.05-.038-1.998-.316-2.842-.833-.844-.516-1.496-1.225-1.955-2.124s-.689-1.902-.689-3.007c0-1.226.249-2.319.746-3.279.498-.96 1.197-1.698 2.099-2.215.902-.516 1.935-.775 3.102-.775 1.088 0 2.063.25 2.924.751.86.5 1.528 1.212 2.004 2.136.477.924.715 1.972.715 3.143zm-2.804.149c0-1.199-.261-2.146-.784-2.842s-1.237-1.044-2.145-1.044c-.924 0-1.663.349-2.219 1.047-.555.699-.833 1.628-.833 2.788 0 1.155.272 2.077.816 2.767.545.69 1.267 1.035 2.169 1.035.919 0 1.647-.334 2.186-1.002.54-.667.81-1.584.81-2.749zm11.803 5.848h-7.044V23.851h2.664v9.667h4.38z" class="msportalfx-svg-c01" fill="#fff"/>
</svg>
