<svg xmlns="http://www.w3.org/2000/svg" viewBox="-0.5 0.5 50 50" class="fxs-portal-svg">
    <path d="M-.5 7.288v36.111c0 3.749 8.392 6.789 18.743 6.789v-42.9H-.5z" class="msportalfx-svg-c19" fill="#0072c6"/>
    <path d="M17.986 50.187h.257c10.351 0 18.743-3.038 18.743-6.788V7.288h-19v42.899z" class="msportalfx-svg-c19" fill="#0072c6"/>
    <path opacity=".15" d="M17.986 50.187h.257c10.351 0 18.743-3.038 18.743-6.788V7.288h-19v42.899z" class="msportalfx-svg-c01" fill="#fff"/>
    <path d="M36.986 7.288c0 3.749-8.392 6.788-18.743 6.788S-.5 11.037-.5 7.288 7.892.5 18.243.5s18.743 3.039 18.743 6.788" class="msportalfx-svg-c01" fill="#fff"/>
    <path d="M33.154 6.897c0 2.475-6.676 4.479-14.911 4.479S3.331 9.372 3.331 6.897c0-2.474 6.677-4.479 14.912-4.479s14.911 2.005 14.911 4.479" class="msportalfx-svg-c14" fill="#7fba00"/>
    <path d="M30.03 9.634c1.952-.757 3.125-1.705 3.125-2.735 0-2.475-6.676-4.48-14.912-4.48-8.235 0-14.911 2.005-14.911 4.48 0 1.03 1.173 1.978 3.125 2.735 2.726-1.058 6.986-1.741 11.786-1.741 4.801 0 9.059.683 11.787 1.741" class="msportalfx-svg-c13" fill="#b8d432"/>
    <path d="M12.29 31.354c0 1.122-.407 1.991-1.221 2.607-.814.616-1.938.924-3.373.924-1.221 0-2.241-.22-3.061-.66v-2.64c.946.803 1.988 1.205 3.126 1.205.55 0 .975-.11 1.275-.33s.45-.511.45-.875c0-.357-.144-.668-.433-.932s-.876-.605-1.761-1.023c-1.804-.846-2.706-2.002-2.706-3.464 0-1.061.393-1.912 1.18-2.553.786-.64 1.831-.961 3.134-.961 1.155 0 2.111.152 2.871.454v2.466c-.797-.55-1.705-.825-2.722-.825-.511 0-.915.108-1.212.325a1.026 1.026 0 00-.445.87c0 .374.119.681.359.92.239.239.73.535 1.472.887 1.106.523 1.893 1.053 2.364 1.592.468.54.703 1.211.703 2.013zm12.727-2.672c0 1.391-.317 2.599-.949 3.621-.633 1.023-1.523 1.74-2.672 2.153l3.431 3.176h-3.464l-2.45-2.747c-1.05-.038-1.998-.316-2.842-.833-.844-.516-1.496-1.225-1.955-2.124s-.689-1.902-.689-3.007c0-1.226.249-2.319.746-3.279.498-.96 1.197-1.698 2.099-2.215.902-.516 1.935-.775 3.102-.775 1.088 0 2.063.25 2.924.751.86.5 1.528 1.212 2.004 2.136.477.924.715 1.972.715 3.143zm-2.804.149c0-1.199-.261-2.146-.784-2.842s-1.237-1.044-2.145-1.044c-.924 0-1.663.349-2.219 1.047-.555.699-.833 1.628-.833 2.788 0 1.155.272 2.077.816 2.767.545.69 1.267 1.035 2.169 1.035.919 0 1.647-.334 2.186-1.002.54-.667.81-1.584.81-2.749zm11.803 5.848h-7.044V22.851h2.664v9.667h4.38z" class="msportalfx-svg-c01" fill="#fff"/>
    <path d="M34.755 49.584l2.123.916.224-.265 1.7-1.999 1.719.01 1.973 2.254 2.135-.887-.023-.347-.185-2.643 1.225-1.234 2.957.168.897-2.167-.258-.229-1.96-1.738.012-1.756 2.205-2.016-.866-2.179-.342.025-2.588.186-1.206-1.249.164-3.02-2.124-.914-.224.265-1.702 2-1.72-.011-1.975-2.251-2.134.884.026.35.181 2.64-1.224 1.234-2.955-.168-.896 2.167.259.229 1.959 1.736-.012 1.756-2.207 2.016.867 2.179.343-.025 2.587-.186 1.208 1.251-.163 3.018zm.608-10.956c1.012-2.452 3.778-3.6 6.177-2.565 2.402 1.036 3.525 3.858 2.513 6.308-1.013 2.451-3.78 3.598-6.179 2.565-2.4-1.034-3.524-3.857-2.511-6.308" class="msportalfx-svg-c03" fill="#a0a1a2"/>
</svg>
