<svg xmlns="http://www.w3.org/2000/svg" width="50" height="50">
    <path fill="#59B4D9" d="M43.347 13.981a9.532 9.532 0 00.577-3.257C43.924 4.856 38.573.1 31.972.1c-5.153 0-9.532 2.904-11.21 6.968-1.518-1.553-3.757-2.545-6.255-2.545-4.579 0-8.309 3.329-8.309 7.44 0 .72.116 1.39.319 2.034C2.778 15.231.1 18.455.1 22.23.1 27.067 4.48 31 9.892 31h30.213c5.426 0 9.795-3.927 9.795-8.77.013-3.82-2.727-7.057-6.553-8.249z"/>
    <path opacity=".2" fill="#FFF" d="M8.449 19.96a7.63 7.63 0 01-.364-2.321c0-4.694 4.258-8.494 9.485-8.494 2.851 0 5.407 1.133 7.14 2.906 1.916-4.638 6.914-7.954 12.797-7.954 1.516 0 2.969.229 4.332.635C39.686 1.936 36.072.1 31.973.1c-5.153 0-9.532 2.904-11.21 6.968-1.518-1.553-3.758-2.545-6.255-2.545-4.579 0-8.309 3.329-8.309 7.44 0 .72.116 1.39.319 2.034C2.778 15.231.1 18.455.1 22.23c0 1.656.523 3.2 1.416 4.523.948-3.142 3.558-5.678 6.933-6.793z"/>
    <path opacity=".8" fill="#FFF" d="M37.999 15.5L16 15v-2.562a.75.75 0 00-1.252-.557L8.005 17.5l6.743 5.619A.75.75 0 0016 22.561V20h5v27.122A1.89 1.89 0 0022.901 49h15.098a1.89 1.89 0 001.901-1.878V17.378a1.89 1.89 0 00-1.901-1.878zM21 16h.23a1.84 1.84 0 00-.23.878V16z"/>
    <path fill="#7A7A7A" d="M40 48.122A1.89 1.89 0 0138.099 50H22.901A1.89 1.89 0 0121 48.122V17.878A1.89 1.89 0 0122.901 16h15.198A1.89 1.89 0 0140 17.878v30.244z"/>
    <path fill="#1E1E1E" d="M23.05 44.393A2.397 2.397 0 0125.451 42h9.997a2.397 2.397 0 012.401 2.393 2.397 2.397 0 01-2.401 2.393h-9.997a2.397 2.397 0 01-2.401-2.393z"/>
    <circle fill="#B8D432" cx="25.682" cy="44.393" r="1.607"/>
    <path fill="#1E1E1E" d="M23.05 37.393A2.397 2.397 0 0125.451 35h9.997a2.397 2.397 0 012.401 2.393 2.397 2.397 0 01-2.401 2.393h-9.997a2.397 2.397 0 01-2.401-2.393z"/>
    <circle fill="#B8D432" cx="25.682" cy="37.393" r="1.607"/>
    <path fill="#1E1E1E" d="M23.05 21.5a2.397 2.397 0 012.401-2.393h9.997a2.397 2.397 0 012.401 2.393 2.397 2.397 0 01-2.401 2.393h-9.997A2.396 2.396 0 0123.05 21.5z"/>
    <circle fill="#B8D432" cx="25.682" cy="21.5" r="1.607"/>
    <path opacity=".9" fill="#FFF" d="M29 32h-8.05v-4H20l1-1h8v-2.561a.75.75 0 011.252-.557l6.743 5.619-6.743 5.619A.751.751 0 0129 34.561V32z"/>
    <path fill="#59B4D9" d="M18.95 31h11v3l5.5-4.5-5.5-4.5v3h-11z"/>
    <path fill="#7A7A7A" d="M26 16H15v-3l-5.5 4.5L15 22v-3h11z"/>
</svg>
