<svg xmlns="http://www.w3.org/2000/svg" width="50" height="50">
    <path fill="#59B4D9" d="M34.256 14.928a9.066 9.066 0 11-18.132-.002 9.066 9.066 0 0118.132.002M31.818 27.1l-6.628 9.287-6.628-9.287H9.001V50H41.38V27.1z"/>
    <path opacity=".2" fill="#FFF" d="M16.126 14.928c0 4.931 3.939 8.935 8.843 9.054l2.277-17.875a9.03 9.03 0 00-2.055-.243 9.063 9.063 0 00-9.065 9.064M18.564 27.1H9V50h12.696l2.002-15.703z"/>
    <path fill="#3E3E3E" d="M39.966 24.14h-6.881v-3.33h3.552v-5.827c0-6.426-5.228-11.654-11.654-11.654S13.329 8.557 13.329 14.983v1.665h-3.33v-1.665C9.999 6.722 16.721 0 24.982 0s14.983 6.722 14.983 14.983v9.157z"/>
    <path opacity=".2" fill="#FFF" d="M24.982 0C16.721 0 9.999 6.722 9.999 14.983v1.665h3.33v-1.665c0-6.426 5.228-11.654 11.654-11.654.964 0 1.896.131 2.793.352l.416-3.327A15.028 15.028 0 0024.982 0z"/>
</svg>
