<svg xmlns="http://www.w3.org/2000/svg" viewBox="0 0 50 50">
    <path d="M28.969 8c0 4.363-3.568 7.9-7.969 7.9s-7.968-3.537-7.968-7.9S16.599.1 21 .1s7.969 3.537 7.969 7.9m-2.033 11L21 27.11 15.064 19H6.501v20H35.5V19z" class="msportalfx-svg-c16" fill="#3999c6"/>
    <path opacity=".2" d="M13.032 8c0 4.298 3.463 7.787 7.773 7.891L22.806.313A7.95 7.95 0 0021 .1c-4.401 0-7.968 3.537-7.968 7.9m2.034 11H6.5v20h11.371l1.793-13.716z" class="msportalfx-svg-c01" fill="#fff"/>
    <path opacity=".4" d="M35.5 39V25.682C33.383 24.493 33 23 33 23s-1 4.121-9 4.121h-1V39h12.5z" class="msportalfx-svg-c01" fill="#fff"/>
    <path d="M39.314 27.98C33.905 27.372 33 25 33 25s-1.217 3.121-9 3.121v12.805c0 1.548.845 2.998 2.015 4.266C28.668 48.066 33 50 33 50s9-4.014 9-9.074V28.121c-1.001 0-1.891-.052-2.686-.141z" class="msportalfx-svg-c14" fill="#7fba00"/>
    <path opacity=".4" d="M35.226 33.271l4.088-5.291C33.905 27.372 33 25 33 25s-1.217 3.121-9 3.121v12.805c0 1.548.845 2.998 2.015 4.266l3.022-3.911 6.189-8.01z" class="msportalfx-svg-c13" fill="#b8d432"/>
</svg>
