<svg xmlns="http://www.w3.org/2000/svg" width="50" height="50"><path fill="#7A7A7A" d="M33 38H19.271c1.649 5.999-.566 6.859-10.271 6.859V48h33v-3.141c-9.705 0-10.656-.857-9.005-6.859"/><path fill="#A0A1A2" d="M46.98 2H2.719C1.215 2 .002 3.345.002 4.847v31.329c0 1.493 1.213 2.823 2.717 2.823H46.98c1.501 0 3.021-1.33 3.021-2.823V4.847C50.001 3.341 48.481 2 46.98 2"/><path opacity=".2" fill="#FFF" d="M47.011 2.003l-.031-.002H2.718C1.214 2.001.001 3.345.001 4.848v31.328C.001 37.67 1.214 39 2.718 39h1.053l43.24-36.997z"/><path fill="#59B4D9" d="M46 6v29H4V6z"/><path fill="#A0A1A2" d="M9 45h33v3H9z"/><path fill="#B8D432" d="M25.518 4.095a.71.71 0 1 1-1.42 0 .71.71 0 0 1 1.42 0"/><g opacity=".85"><path opacity=".4" fill="#FFF" d="M26.705 13.831l-.512.315-.443-.807c-.169-.308-.193-.569-.078-.846a.581.581 0 0 1 .556-.375l.06.002c.285.023.569.318.655.58.091.278.091.929-.238 1.131z"/><path fill="#FBFBF9" d="M21.73 29.349c.001-.031-2.533-4.095-2.384-4.8 1.194-5.673 2.614-6.501 3.134-7.7.52-1.199.22-2.305.842-2.319.621-.014 2.443.123 2.887.271.444.147 1.074.595 1.423 1.574.473.895.938 1.793 1.084 2.814a.476.476 0 0 0 .119.254c1.18 1.301 1.419 2.881 1.333 4.551-.022.423-.077 1.046-.134 1.264-.057.219-1.651 5.377-4.161 5.315-2.511-.064-3.847-.998-4.143-1.224z"/><path fill="#FF8C00" d="M35.229 28.146c-.919-.046-1.404-.598-1.408-1.126-.005-.618.255-1.395-.64-1.473-.895-.079-2.726-.174-3.217-.264-1.071-.197-1.125.24-1.142.55-.008.146.127 1.597-.014 2.163.009.246-.008.489-.046.735-.102.66-.18 1.325-.267 1.987l-.017.969c.779 1.146 2.293 1.189 3.23.196.879-.894 1.94-1.511 3.057-2.052.316-.154.615-.385.783-.83.169-.446.011-.839-.319-.855z"/><path fill="#1E1E1E" d="M23.01 27.593c-.126.618-.796 1.165-1.143 1.118-.215-.118-.799-.889-.925-1.079-.38-.577-2.044-2.962-2.529-2.779-.158.02-.248.129-.329.249l-.099.039a1.68 1.68 0 0 1 .05-1.58c.613-1.12.896-2.271 1.208-3.515.105-.418.36-.766.624-1.1.492-.625.48-1.253.982-1.869.321-.394.602-.823.572-1.333-.085-1.437-.268-2.834-.207-4.274.06-1.411 1.292-2.596 2.675-3.104 1.434-.527 2.791-.268 3.943.764.905.81 1.301 1.874 1.37 3.07.013.219.024.44.015.658-.103 2.247.842 4.076 2.274 5.709 1.374 1.566 1.912 3.443 2.036 5.471.032.53-.138 1.025-.355 1.502-.3.691-.731 1.12-1.124 1.297-.394.177-1.947.299-1.646-.721.148-.502.172-.715-.447-.84.046-.421.112-.842.134-1.264.087-1.671-.206-2.99-1.472-4.177-.391-.367-.024-.427-.037-.757-.033-.891-.554-1.79-1.027-2.684a1.111 1.111 0 0 0-.228-.442c.035-.14-.053-.241-.109-.352.07-.283.191-.557.134-.859.004-.26-2.666-.372-2.999-.239-.14-.047-1.562-.108-1.558-.084a1.014 1.014 0 0 0-.387.56c-.057.216.29.663.327.736l-.048.916-.09.321c-.227.35-.46.697-.679 1.052-.197.319-.422.629-.45 1.023-.155.4.399.93-.105 1.396-.504.466-1.011 2.714-1.019 3.244-.009.57 1.032 1.872 1.43 2.248.731.688 1.387.951 1.238 1.679zM22.506 29.738c1.076.304 4.105.395 5.576-1.08l.74-.675c.009.246-.008.489-.046.735-.102.66-.18 1.325-.267 1.987l-.017.969c-1.356-.373-3.391-.505-3.999-.473-.607.032-1.437.184-1.918.31l-.069-1.773z"/><path fill="#DDA516" d="M33.902 27.184zM33.507 25.783l-.087-.083.087.083z"/><path fill="#8C5F07" d="M21.889 28.837l.043.069a.99.99 0 0 0-.043-.069z"/><path fill="#E3A906" d="M33.42 25.7l.001.001h.001z"/><path fill="#FF8C00" d="M21.449 28.189c-.786-.815-1.389-1.804-1.942-2.911-.291-.582-1.18-1.044-1.512-.13-.332.914-.86 1.285-1.724 1.171-.63-.084-1.223.401-.959 1.198.285.86.61 1.533-.014 2.135-.624.603-.371 1.225.508 1.344s3.19.645 4.523 1.35c1.334.704 2.398-.628 2.539-1.022.352-.976-.632-2.32-1.419-3.135z"/><path fill="#1E1E1E" d="M24.423 18.628c-.751 0-1.253-.711-1.607-1.331-.003 0-1.162-1.626-.739-2.524.059-.126.158-.338 1.351-1.075l.222-.188.212-.107.137-.054c.164-.052.351-.104.528-.104h.082l.158.037.355.119 2.897 1.07.081.434c.066.353-.022.659-.094.905l-.11.425-.248.091c-.219.08-.561.446-.836.741-.273.292-.531.568-.796.739-.094.066-.198.145-.298.219-.415.309-.806.603-1.295.603z"/><path fill="#FF8C00" d="M26.356 15.069c-.513.443-1.099.824-1.828.844-.027.023-.027.023 0 0 .005-.166-.005-.325-.146-.446-.117-.1-.131-.248-.097-.378.137-.524.053-1.055.073-1.582-.137-.046-.451.069-.492.079l-.191.096-.218.182c-.093.058-1.078.659-1.179.873-.26.552.596 1.905.721 2.063 1 1.755 1.555.994 2.494.337.504-.326 1.16-1.32 1.73-1.53.07-.283.191-.557.134-.859-.36.02-.68.044-1.001.321z"/><path fill="#E3A906" d="M23.943 13.516c.003.002.005.001.008.002-.002-.005 0-.006-.003-.011l-.005.009z"/><path fill="#FCD116" d="M26.947 14.351c.217.109.415.233.411.518-.395.024-.746.05-1.096.353-.561.485-1.321 1.203-2.119 1.225.032-.262-.345-.639-.243-1.086.132-.577.153-1.272.175-1.85.365-.146.704-.013 1.046.094l.427.258.747.286c.196.134.429.151.652.202z"/></g><path opacity=".9" fill="#FFF" d="M23 12.554h1v1h-1zM26 12.554h1v1h-1z"/></svg>