<svg xmlns="http://www.w3.org/2000/svg" width="50" height="50">
    <path fill="#7A7A7A" d="M33 38H19.271c1.649 5.999-.566 6.859-10.271 6.859V48h33v-3.141c-9.705 0-10.656-.857-9.005-6.859"/>
    <path fill="#A0A1A2" d="M46.98 2H2.719C1.215 2 .002 3.345.002 4.847v31.329c0 1.493 1.213 2.823 2.717 2.823H46.98c1.501 0 3.021-1.33 3.021-2.823V4.847C50.001 3.341 48.481 2 46.98 2"/>
    <path opacity=".2" fill="#FFF" d="M47.011 2.003l-.031-.002H2.718C1.214 2.001.001 3.345.001 4.848v31.328C.001 37.67 1.214 39 2.718 39h1.053l43.24-36.997z"/>
    <path fill="#59B4D9" d="M46 6v29H4V6z"/>
    <path fill="#A0A1A2" d="M9 45h33v3H9z"/>
    <path fill="#B8D432" d="M25.518 4.095a.71.71 0 11-1.42 0 .71.71 0 011.42 0"/>
    <path opacity=".2" fill="#0072C6" d="M35.434 30.997l-19.61-1.579a.902.902 0 01-.824-.894V13.473c0-.464.362-.856.825-.894L35.441 11c.564 0 .962.401.962.894v18.21a.893.893 0 01-.894.896l-.075-.003z"/>
    <path opacity=".8" fill="#FFF" d="M25.701 12.683v7.616h9.805v-8.405zm-9.805.79v6.826h8.405v-7.503zm9.805 15.841v-7.615h9.805v8.404zm-9.805-.79v-6.825h8.405v7.502z"/>
</svg>
