<svg xmlns="http://www.w3.org/2000/svg" width="50" height="50">
    <path fill="#59B4D9" d="M43.663 28.626a15.83 15.83 0 01-9.646 3.277c-4.783 0-9.512-2.148-12.637-6.236-5.34-6.973-4.022-16.946 2.962-22.289A15.75 15.75 0 0133.987.103c4.783 0 9.513 2.148 12.637 6.24 5.341 6.971 4.01 16.946-2.961 22.283"/>
    <path fill="#FFF" d="M40.742 18.791a3.425 3.425 0 004.796.639c.078-.06.139-.132.21-.197 1.532 1.08 2.596 1.792 3.196 2.2.177-.46.3-.901.426-1.363a82.769 82.769 0 01-2.728-2.135 3.413 3.413 0 00-.464-3.289 3.409 3.409 0 00-4.411-.876 142.388 142.388 0 01-5.274-4.983c5.829-3.135 9.97-2.676 9.97-2.676a16.124 16.124 0 00-2.295-2.351c-2.458-.38-6.277-.337-10.64 1.984l-.001-.002h-.001A126.817 126.817 0 0129.085.836c-.721.231-1.426.517-2.106.857 1.112 1.821 2.609 3.657 4.296 5.448l.011.011a29.404 29.404 0 00-4.416 3.826c-.184.197-.362.394-.536.592a4.795 4.795 0 00-2.618.179c-1.44-3.107-1.324-5.604-1.096-6.891a16.761 16.761 0 00-1.712 2.078c-.376 1.536-.483 3.752.626 6.422a4.795 4.795 0 00-.003 5.822c.112.146.232.281.356.41a24.096 24.096 0 00-.929 5.573c.151.205.151.37.3.57.763.978 1.72 1.803 2.646 2.55a17.545 17.545 0 011.09-7.234 4.767 4.767 0 002.215-.36c.407.358.833.72 1.288 1.088a26.517 26.517 0 004.633 2.954 3.16 3.16 0 00.616 2.238 3.18 3.18 0 004.441.585c.288-.221.516-.487.705-.774 2.473.551 4.635.648 6.237.648.245 0 1.385-1.55 2.037-2.51-.976.204-3.869.602-7.823-.534a3.154 3.154 0 00-.571-1.26c-1.004-1.317-2.84-1.602-4.209-.721a29.848 29.848 0 01-4.298-2.856c-.3-.237-.587-.474-.864-.711a4.82 4.82 0 00.202-4.803c.182-.182.361-.365.554-.545 1.47-1.373 2.852-2.473 4.146-3.355-.052-.048-.099-.099-.15-.148.052.048.1.097.152.144l-.001.001c1.985 1.836 4.089 3.576 6.083 5.13-.53 1.121-.447 2.483.355 3.531z"/>
    <path fill="#A0A1A2" d="M42 28.25v-6.5a.75.75 0 00-.75-.75h-4.5a.75.75 0 00-.75.75.75.75 0 00-.75-.75h-10.5a.75.75 0 00-.75.75.75.75 0 00-.75-.75h-10.5a.75.75 0 00-.75.75.75.75 0 00-.75-.75H.75a.75.75 0 00-.75.75v6.5c0 .414.336.75.75.75a.75.75 0 00-.75.75v5.5c0 .414.336.75.75.75a.75.75 0 00-.75.75v5.5c0 .414.336.75.75.75a.75.75 0 00-.75.75v5.5c0 .414.336.75.75.75h4.5a.75.75 0 00.75-.75c0 .414.336.75.75.75h10.5a.75.75 0 00.75-.75c0 .414.336.75.75.75h10.5a.75.75 0 00.75-.75c0 .414.336.75.75.75h10.5a.75.75 0 00.75-.75v-5.5a.75.75 0 00-.75-.75.75.75 0 00.75-.75v-5.5a.75.75 0 00-.75-.75.75.75 0 00.75-.75v-5.5a.75.75 0 00-.75-.75.75.75 0 00.75-.75z"/>
    <path fill="#BA141A" d="M13 23h10v5H13zm12 0h10v5H25z"/>
    <path fill="#DD5900" d="M1 23h10v5H1zm18 7h10v5H19z"/>
    <path fill="#BA141A" d="M31 30h10v5H31zM1 30h4v5H1zm6 0h10v5H7zm6 7h10v5H13z"/>
    <path fill="#DD5900" d="M25 37h10v5H25zM1 37h10v5H1z"/>
    <path fill="#BA141A" d="M31 44h10v5H31zm-12 0h10v5H19z"/>
    <path fill="#DD5900" d="M1 44h4v5H1zm36-21h4v5h-4zm0 14h4v5h-4z"/>
    <path fill="#BA141A" d="M7 44h10v5H7z"/>
</svg>
