<svg viewBox="0 0 186 85" xmlns="http://www.w3.org/2000/svg"><g fill="none" fill-rule="evenodd"><path fill="#FFF" d="M155.388 8.958v28.667h-37.15V8.958m-1.517-.001h40.185V1.5h-40.185zm13.275 45.282v28.667h-37.15V54.239"/><path fill="#FFF" d="M91.328 54.24h40.184v-7.46H91.328zm91.407-.001v28.667h-37.15V54.239"/><path fill="#FFF" d="M144.068 54.24h40.184v-7.46h-40.184z"/><path d="M118.221 7.458h37.184V3h-37.184v4.46zm1.517 28.666h34.15V10.458h-34.15v25.666zm-3.017-25.666h.017v28.666h40.15V10.458h.017a1.5 1.5 0 001.5-1.5V1.5a1.5 1.5 0 00-1.5-1.5h-40.184a1.5 1.5 0 00-1.5 1.5v7.46a1.5 1.5 0 001.5 1.5zM94.346 81.406h34.15V55.74h-34.15v25.666zM92.828 52.74h37.185v-4.459H92.828v4.46zm38.684-7.459H91.328a1.5 1.5 0 00-1.5 1.5v7.458a1.5 1.5 0 001.5 1.5h.017v28.667h40.151V55.74h.016a1.5 1.5 0 001.5-1.5v-7.458a1.5 1.5 0 00-1.5-1.5zm15.573 36.125h34.15V55.74h-34.15v25.666zm-1.518-28.666h37.185v-4.459h-37.185v4.46zm38.685-7.459h-40.185a1.5 1.5 0 00-1.5 1.5v7.458a1.5 1.5 0 001.5 1.5h.018v28.667h40.15V55.74h.017a1.5 1.5 0 001.5-1.5v-7.458a1.5 1.5 0 00-1.5-1.5zM54.023 71.236h18.484v-3H54.023zM0 7.14h102.507v-3H0zm19.041 20.867h83.466v-3H19.041zm17.268 21.256h35.867v-3H36.309z" fill="#0078D7"/></g></svg>