<svg xmlns="http://www.w3.org/2000/svg" viewBox="0 0 64 64"><defs><style>.cls-4{fill:none;stroke:#556a8a;stroke-miterlimit:10;stroke-width:2px}</style></defs><g id="ICONS-64x"><rect x="10" y="1" width="43" height="62" rx="2" ry="2" fill="#fff"/><path d="M53 52v9a2 2 0 01-2 2H12a2 2 0 01-2-2v-9z" fill-rule="evenodd" fill="#e5e5e5"/><path d="M53 3v5H10V3a2 2 0 012-2h39a2 2 0 012 2z" fill="#2bc7f4" fill-rule="evenodd"/><rect class="cls-4" x="10" y="1" width="43" height="62" rx="2" ry="2"/><path class="cls-4" d="M10 8h43M10 52h43"/><circle class="cls-4" cx="31.5" cy="23" r="8"/><path class="cls-4" d="M19 43a12.26 12.26 0 0112.5-12A12.26 12.26 0 0144 43"/><path fill="none" d="M0 0h64v64H0z"/></g></svg>