<svg data-name="Layer 1" xmlns="http://www.w3.org/2000/svg" viewBox="0 0 90 90"><path d="M25.717 38.03c-2.337 7.64-3.839 16.328-3.394 24.034 6.181-7.313 10.236-12.27 10.236-12.27s10.208 6.142 15.074 8.993A111.059 111.059 0 0130.9 25.906a59.536 59.536 0 00-5.183 12.124z" fill="#0070b1"/><path d="M45 6.171A38.83 38.83 0 1084 45 38.959 38.959 0 0045 6.171zM80.72 44.34a53.721 53.721 0 00-1.634-2.185c.455-.727.88-1.466 1.284-2.213a35.537 35.537 0 01.35 4.398zM46.622 9.461a35.776 35.776 0 0132.6 25.285 36.119 36.119 0 01-2.357 4.8A55.876 55.876 0 0057.22 25.48a58.341 58.341 0 00-22.735-4.58A43.46 43.46 0 0146.622 9.461zM33.7 24.157a55.2 55.2 0 0122.24 4.312 52.651 52.651 0 0119.083 13.9c-4.955 6.954-12.472 12.766-21.878 16.681-.613.255-1.229.5-1.846.732A113.805 113.805 0 0133.7 24.157zm14.4 36.75zM40.674 9.69a48.213 48.213 0 00-8.437 8.764q-.7-3.11-1.182-6.212a35.574 35.574 0 019.619-2.552zm-12.68 4.023q.612 3.67 1.514 7.352a70.931 70.931 0 00-12.753 2.175 35.945 35.945 0 0111.239-9.527zM16.1 65.887c1.194.253 2.4.479 3.616.658q.194 2.047.507 4.054a35.906 35.906 0 01-4.123-4.712zm3.374-2.658a53.967 53.967 0 01-5.89-1.291 35.356 35.356 0 01.356-34.494 70.071 70.071 0 0114.393-3 66.312 66.312 0 00-5.8 13.747 75.593 75.593 0 00-3.063 25.038zm6.185-24.112a63.338 63.338 0 015.309-12.727 117.783 117.783 0 0014.846 31.233 2815.806 2815.806 0 01-12.293-7.538l-1.24-.765-.9 1.142c-.034.042-3.185 4.028-8.7 10.739a72.363 72.363 0 012.974-22.084zm20.318 22.41a62.678 62.678 0 01-21.227 2.281c4.068-4.943 6.925-8.5 8.287-10.2 2.631 1.62 8.863 5.453 12.94 7.919zM22.763 63.66zM45 80.58a35.637 35.637 0 01-20.842-6.705 63.44 63.44 0 01-1.129-6.928q2.844.26 5.742.261a66.819 66.819 0 0021.374-3.572 98.011 98.011 0 0011.705 12.73A35.635 35.635 0 0145 80.58zm19.775-5.963A93.373 93.373 0 0153.342 62.46c.353-.14.711-.265 1.062-.411 9.642-4.014 17.45-9.933 22.755-17.049a54.021 54.021 0 013.248 4.768 35.6 35.6 0 01-15.632 24.849z" fill="#002050"/></svg>