<svg xmlns="http://www.w3.org/2000/svg" viewBox="0 0 50 50"><path fill="#D7D7D7" d="M25.737 47.683L9.276 38.178l.021-18.528 16.238-9.374 16.533 9.542v18.438l-16.331 9.427zM10.369 37.548l15.368 8.874 15.24-8.797V20.449l-15.441-8.911-15.146 8.744-.021 17.266z"/><path fill="#148FC0" d="M25.641 16.094l-6.981-4.03V3.976l6.981 4.03z"/><path fill="#2BA1DB" d="M18.659 3.962l6.958-4.017 7.006 4.043-6.961 4.018z"/><path fill="#44BAE9" d="M32.623 12.064l-6.982 4.03V8.059l6.982-4.031z"/><path fill="#D60C13" d="M9.843 23.823l-5.949-3.435v-6.892l5.949 3.434z"/><path fill="#FB3900" d="M3.894 13.484l5.929-3.423 5.97 3.445-5.932 3.424z"/><path fill="#FA5900" d="M15.793 20.388l-5.95 3.435v-6.848l5.95-3.435z"/><path fill="#653675" d="M41.522 23.823l-5.949-3.435v-6.892l5.949 3.434z"/><path fill="#7F498D" d="M35.573 13.484l5.929-3.423 5.97 3.445-5.931 3.424z"/><path fill="#9863A9" d="M47.472 20.388l-5.95 3.435v-6.848l5.95-3.435z"/><path fill="#653675" d="M9.843 41.551l-5.949-3.435v-6.892l5.949 3.434z"/><path fill="#7F498D" d="M3.894 31.212l5.929-3.423 5.97 3.446-5.932 3.424z"/><path fill="#9863A9" d="M15.793 38.116l-5.95 3.435v-6.847l5.95-3.436z"/><path fill="#739A04" d="M41.522 41.551l-5.949-3.435v-6.892l5.949 3.434z"/><path fill="#7FB900" d="M35.573 31.212l5.929-3.423 5.97 3.446-5.931 3.424z"/><path fill="#9BCB17" d="M47.472 38.116l-5.95 3.435v-6.847l5.95-3.436z"/><path fill="#148FC0" d="M25.641 49.945l-6.981-4.03v-8.088l6.981 4.03z"/><path fill="#2BA1DB" d="M18.659 37.813l6.958-4.017 7.006 4.043-6.961 4.018z"/><path fill="#44BAE9" d="M32.623 45.915l-6.982 4.03V41.91l6.982-4.031z"/></svg>