<svg xmlns="http://www.w3.org/2000/svg" viewBox="0 0 14 14" class="fxs-portal-svg" data-type="1"><rect y="4" width="14" height="10" rx=".5" ry=".5" class="msportalfx-svg-c13" fill="#b8d432"/><rect x="2" y="2" width="10" height="1" rx=".5" ry=".5" class="msportalfx-svg-c03" fill="#a0a1a2"/><rect x="4" width="6" height="1" rx=".5" ry=".5" class="msportalfx-svg-c03" fill="#a0a1a2"/><path d="M.5 4h13a.5.5 0 01.5.5V6H0V4.5A.5.5 0 01.5 4z" class="msportalfx-svg-c03" fill="#a0a1a2"/><path d="M7 4h6.5a.5.5 0 01.5.5v9a.5.5 0 01-.5.5H7V4zm0-2h4.5a.5.5 0 01.5.5.5.5 0 01-.5.5H7V2zm0-2h2.5a.5.5 0 01.5.5.5.5 0 01-.5.5H7V0z" opacity=".48" class="msportalfx-svg-c01" fill="#fff"/></svg>