<svg viewBox="0 0 192 164" xmlns="http://www.w3.org/2000/svg" data-bind="sanitizedAttr: { 'aria-label': svgText }" class="ext-icon" aria-label="Azure security center"><path d="M52.17 9.17c6.98-6.67 17.47-9.64 26.86-7.2 6.74 1.74 11.78 7.4 14.34 13.69 1.99 4.34 2.31 9.16 3.2 13.79 4.68 1.04 9.03 3.23 12.19 6.9-5.16 4.96-11.99 7.95-19 9.12-5.41.95-10.92.04-16.35.74-.27 2.56-.47 5.13-.49 7.71-8.97.31-17.95-.1-26.92.09-4.2-.04-8.47.4-12.6-.53-8.68-2.78-14.88-12.53-12.57-21.58 1.04-6.16 5.75-11.48 11.76-13.19 4.17-1.21 8.67-.07 12.82-1.27 2.45-2.59 4.14-5.83 6.76-8.27z" fill="#c7e7ee"/><path d="M108.76 36.35c1.85-1.87 3.56-3.89 5.35-5.82 3.22 1.77 5.14 5.13 8.11 7.25 5.68 4.67 12.87 6.74 19.94 8.24-5.49 8.17-11.5 15.96-17.21 23.97-3.02-2.52-6.85-4.56-10.92-3.92-4.82.4-8.94 4.1-10.27 8.69-1.45 4.34-.23 9.05-1.39 13.4-1.55 1.26-3.26 2.31-4.91 3.42-.87 6.06-.21 12.19-.65 18.28-4.26 4.09-7.89 8.83-10.4 14.18-2.86-5.27-7.59-9.27-13.1-11.55-.8-19.5-.07-39.05-.39-58.57.02-2.58.22-5.15.49-7.71 5.43-.7 10.94.21 16.35-.74 7.01-1.17 13.84-4.16 19-9.12z" fill="#95c515"/><path d="M142.16 46.02c4.25.04 8.5-.3 12.75-.23 2.12.07 2.06 2.65 2.11 4.17.04 10.84 0 21.67.02 32.51-3.58 1.41-6.96 4.47-6.79 8.62-.18 4.22 3.54 6.9 6.64 9.03.32 6.36.72 13.29-2.77 18.94-7.86 12.51-19.7 22.05-32.64 28.93-1.39-.54-2.81-.95-4.23-1.36-.91-6.65-.5-14.87-6.54-19.31-6.65-4.64-14.95-1.95-21.78.75-.84-1.34-1.68-2.69-2.52-4.03 2.51-5.35 6.14-10.09 10.4-14.18.62 2.16 1.54 5.06 4.3 4.99 9.3.34 18.64.15 27.95.1 2.41.21 4.75-1.56 4.69-4.09.31-5.6.22-11.23.07-16.83.29-3.28-3.31-4.39-5.6-5.68-.31-6.22.24-12.85-3.27-18.36 5.71-8.01 11.72-15.8 17.21-23.97z" fill="#7fba00"/><path d="M103.76 74.76c1.33-4.59 5.45-8.29 10.27-8.69 4.07-.64 7.9 1.4 10.92 3.92 3.51 5.51 2.96 12.14 3.27 18.36 2.29 1.29 5.89 2.4 5.6 5.68.15 5.6.24 11.23-.07 16.83.06 2.53-2.28 4.3-4.69 4.09-9.31.05-18.65.24-27.95-.1-2.76.07-3.68-2.83-4.3-4.99.44-6.09-.22-12.22.65-18.28 1.65-1.11 3.36-2.16 4.91-3.42 1.16-4.35-.06-9.06 1.39-13.4z" fill="#fff"/><path d="M110.57 76.6c1.52-4.51 9.08-3.87 10.03.72.82 3.82.36 7.77.36 11.64-3.63.12-7.27.12-10.9-.03 0-4.1-.55-8.32.51-12.33z" fill="#95c515"/><path d="M161.47 81.51c2.61-2.05 4.12-5.75 7.69-6.34 4.13-.86 9.02-.67 12.2 2.46 3.27 2.83 3.16 7.77 6.24 10.76 1.33 1.66 3.54 3.19 3.22 5.6-.39 2.88-2.43 6.33-5.79 5.89-9.38.16-18.76-.13-28.14.24-3.1-2.13-6.82-4.81-6.64-9.03-.17-4.15 3.21-7.21 6.79-8.62 1.46-.37 2.97-.57 4.43-.96zm-88.16 30.98c5.51 2.28 10.24 6.28 13.1 11.55.84 1.34 1.68 2.69 2.52 4.03 6.83-2.7 15.13-5.39 21.78-.75 6.04 4.44 5.63 12.66 6.54 19.31 1.42.41 2.84.82 4.23 1.36 5.35 3.76 1.64 15.18-5.42 14-34.7-.05-69.4-.09-104.1.02-2.44-.11-5.24-.04-7.13-1.86-2.85-2.77-4.05-7.04-3.57-10.94.87-4.28 4.19-8.3 8.58-9.21 2.21-.54 4.49-.74 6.67-1.44 2.49-2.54 3.91-6.09 7.05-8 3.6-2.24 8.09-3.74 12.33-2.58 3.12.87 5.96 2.48 8.92 3.77 1.66-4.91 2.99-10.32 7.1-13.83 5.72-5.32 14.1-5.12 21.4-5.43z" fill="#c7e7ee"/></svg>