<svg xmlns="http://www.w3.org/2000/svg" viewBox="0 0 50 50"><path fill="#FFF" d="M22.83 4.368a20.662 20.662 0 00-13.953 7.579 20.672 20.672 0 00-4.508 15.227 20.668 20.668 0 007.581 13.949c4.134 3.346 9.52 5.109 15.222 4.509 5.705-.601 10.606-3.451 13.955-7.581 3.34-4.132 5.106-9.519 4.505-15.225-.608-5.751-3.528-10.669-7.724-14.064-3.531-2.859-8.032-4.51-12.856-4.51-.733 0-1.474.038-2.222.116"/><path fill="#A0A1A2" d="M49.859 22.381c-.728-6.937-4.271-12.883-9.273-16.928-.971-.786-2.018-1.472-3.1-2.1L35.523 7.13a19.82 19.82 0 012.385 1.632c4.196 3.395 7.116 8.312 7.723 14.063.602 5.706-1.165 11.093-4.504 15.226-3.349 4.131-8.25 6.98-13.955 7.581-3.82.4-7.489-.277-10.744-1.761l-1.961 3.774c3.976 1.851 8.479 2.708 13.151 2.214a24.914 24.914 0 0016.814-9.133 24.908 24.908 0 005.427-18.345"/><path fill="#A0A1A2" d="M11.951 41.123A20.664 20.664 0 014.37 27.174a20.664 20.664 0 014.508-15.228 20.656 20.656 0 0113.951-7.578c4.613-.484 9.016.574 12.694 2.76l1.963-3.776A24.829 24.829 0 0022.381.138 24.949 24.949 0 005.569 9.27l-.007.009A24.94 24.94 0 00.139 27.617a24.935 24.935 0 009.135 16.815c1.582 1.282 3.335 2.346 5.194 3.212l1.961-3.774a20.814 20.814 0 01-4.478-2.747"/><path opacity=".2" fill="#FFF" d="M11.951 41.123A20.664 20.664 0 014.37 27.174a20.664 20.664 0 014.508-15.228 20.656 20.656 0 0113.951-7.578c4.613-.484 9.016.574 12.694 2.76l1.963-3.776A24.829 24.829 0 0022.381.138 24.949 24.949 0 005.569 9.27l-.007.009A24.94 24.94 0 00.139 27.617a24.935 24.935 0 009.135 16.815c1.582 1.282 3.335 2.346 5.194 3.212l1.961-3.774a20.814 20.814 0 01-4.478-2.747"/><path fill="#BA141A" d="M29.678 27.103L25 12.803v-.002.002l-4.678 14.301H25v-.001z"/><path fill="#3E3E3E" d="M25 27.103h-4.678L25 41.406l4.678-14.303z"/><path d="M27.834 12.422h-1.433l-2.596-3.959a5.735 5.735 0 01-.318-.523h-.016c.022.234.035.574.035 1.019v3.463h-1.341V6.12h1.529l2.5 3.837.318.514h.016a7.188 7.188 0 01-.035-.865V6.12h1.341v6.302z"/><path opacity=".3" fill="#FFF" d="M29.678 27.103L25 12.801v28.605l4.678-14.303z"/></svg>