<svg xmlns="http://www.w3.org/2000/svg" viewBox="0 0 16 16" data-type="1"><path fill="#63707e" d="M14.8 10.7h-2.2V8.5h-1.5v2.2H8.9v1.5h2.2v2.2h1.5v-2.2h2.2zM3.9 5.5C1.7 5.5 0 6.1 0 6.9v7.5c0 .8 1.7 1.4 3.8 1.4 2.2 0 3.9-.6 3.9-1.4V6.9c.1-.8-1.7-1.4-3.8-1.4zm0 2.3C2.2 7.8.8 7.4.8 6.9S2.2 6 3.9 6c1.7-.1 3.1.3 3.1.8s-1.4 1-3.1 1z"/><path d="M3 4.5v-.2c0-1.7 1.4-3 3-3 1 0 1.9.5 2.5 1.2l.6.8.9-.5c.3-.2.7-.3 1.1-.3 1.1 0 2 .9 2 2v.9l.6.3c.8.4 1.2 1 1.2 1.8 0 .9-.5 1.7-1.3 2h1.7c.4-.5.7-1.2.7-1.9 0-1.2-.6-2.2-1.8-2.8v-.2c0-1.7-1.4-3.1-3.1-3.1-.6 0-1.2.2-1.7.5C8.6.8 7.4.2 6 .2 3.8.2 1.9 2 1.9 4.3v.4c.4-.1.7-.2 1.1-.2z" fill="#63707e"/></svg>