<svg id="Titles" xmlns="http://www.w3.org/2000/svg" viewBox="0 0 64 64"><defs><style>.cls-2{fill:#556a8a}.cls-3{fill:#fff;opacity:.2}</style></defs><path fill="none" stroke="#556a8a" stroke-miterlimit="10" stroke-width="2" d="M59 21v36H5V21"/><path class="cls-2" d="M28 42h8v8h-8zm13 0h8v8h-8zm-26 0h8v8h-8z"/><path class="cls-3" d="M23 42v8l-8-8h8zm13 0v8l-8-8h8zm13 0v8l-8-8h8z"/><path class="cls-2" d="M28 29h8v8h-8zm13 0h8v8h-8zm-26 0h8v8h-8z"/><path class="cls-3" d="M23 29v8l-8-8h8zm13 0v8l-8-8h8zm13 0v8l-8-8h8z"/><path class="cls-2" d="M28 16h8v8h-8zm-13 0h8v8h-8z"/><path class="cls-3" d="M23 16v8l-8-8h8zm13 0v8l-8-8h8z"/><path class="cls-2" d="M50 5h8v8h-8z"/><path class="cls-3" d="M58 5v8l-8-8h8z"/></svg>