<svg xmlns="http://www.w3.org/2000/svg" shape-rendering="geometricPrecision" text-rendering="geometricPrecision" image-rendering="optimizeQuality" fill-rule="evenodd" clip-rule="evenodd" viewBox="0 0 32 32"><defs><style>.fil5{fill:#00bcf2}.fil4{fill:#66d7f7}.fil3{fill:#bad80a}.fil2{fill:#d6e86c}.fil1{fill:#fff}</style></defs><g id="Layer_x0020_1"><path fill="none" d="M0 0h32v32H0z"/><g id="_2418311076000"><path class="fil1" d="M7 7C4 7 1 6 1 4s3-3 6-3 6 1 6 3-3 3-6 3z"/><path class="fil2" d="M7 6C5 6 3 5 3 4s2-2 4-2c3 0 5 1 5 2s-2 2-5 2z"/><path class="fil3" d="M3 5c1-1 3-1 4-1s3 0 4 1c-1 0-3 1-4 1S4 5 3 5z"/><path class="fil4" d="M7 18c-3 0-6-2-6-4V4c0 2 3 3 6 3s6-1 6-3v10c0 2-3 4-6 4z"/><path class="fil5" d="M7 7v11c-3 0-6-2-6-4V4c0 2 3 3 6 3z"/><path class="fil4" d="M17 17c-1-1-2-2-2-3V4c0 2 3 3 6 3s6-1 6-3v10c-1-1-3 0-4 0-3 0-4 2-6 3z"/><path class="fil5" d="M21 7v7c-1 1-3 2-4 3-1-1-2-2-2-3V4c0 2 3 3 6 3z"/><path class="fil1" d="M21 7c-3 0-6-1-6-3s3-3 6-3 6 1 6 3-3 3-6 3z"/><path class="fil2" d="M21 6c-2 0-4-1-4-2s2-2 4-2c3 0 5 1 5 2s-2 2-5 2z"/><path class="fil3" d="M17 5c1-1 3-1 4-1s3 0 4 1c-1 0-3 1-4 1s-3-1-4-1z"/><path class="fil1" d="M14 14c-3 0-6-2-6-4 0-1 3-3 6-3s6 2 6 3c0 2-3 4-6 4z"/><path class="fil2" d="M14 12c-2 0-4-1-4-2s2-1 4-1c3 0 5 0 5 1s-2 2-5 2z"/><path class="fil3" d="M10 11h8c-1 1-3 1-4 1s-3 0-4-1z"/><path class="fil4" d="M14 24c-3 0-6-2-6-3V10c0 2 3 4 6 4s6-2 6-4v5c-1 0-2 1-3 2-2 2-3 4-3 7z"/><path class="fil5" d="M14 14v10c-3 0-6-2-6-3V10c0 2 3 4 6 4z"/><g fill-rule="nonzero"><path d="M20 21c-2 2-5 5-3 8 3 2 6-1 8-3 3-3 6-6 3-8-2-3-5 0-8 3zm7 7c1-1 2-3 3-5l-4 4-3 3c2-1 3-1 4-2zm-4-12c-2 1-3 1-5 3-1 1-1 3-2 4l3-3 4-4zm5 12c-2 2-7 4-10 3 0-1-1-1-2-1 0-1 0-2-1-2-1-3 1-8 3-10s7-4 10-3c0 1 1 1 1 2 1 0 1 1 2 1 1 3-1 8-3 10z" fill="#ffb900"/><path d="M22 23c-1 1-7 3-5 6 3 2 5-4 6-5 2-2 8-4 5-6-2-3-4 3-6 5zm-6 7c-4-4 3-6 5-8 3-3 5-10 9-6s-3 6-6 9c-2 2-4 9-8 5z" fill="#ff8c00"/></g></g></g></svg>