<svg xmlns="http://www.w3.org/2000/svg" viewBox="0 0 99.768 50.019"><path d="M83.694 9.837H19.9a4.81 4.81 0 01-4.8-4.8 4.81 4.81 0 014.8-4.8h55.64c2.645.008 12.942 2.15 12.95 4.8a4.81 4.81 0 01-4.796 4.8zm-12.95 40.048h-58.99a4.81 4.81 0 01-4.8-4.8 4.81 4.81 0 014.8-4.8h58.99a4.81 4.81 0 014.8 4.8 4.81 4.81 0 01-4.8 4.8zM63.79 30.46H4.8a4.81 4.81 0 01-4.8-4.8 4.81 4.81 0 014.8-4.8h58.985a4.81 4.81 0 014.8 4.8 4.81 4.81 0 01-4.795 4.8z" fill="#7a7a7a"/><path d="M72.623 4.39a20.767 20.767 0 1022.9 18.5 21.244 21.244 0 00-7.7-14.1 20.171 20.171 0 00-13-4.5 16.951 16.951 0 00-2.2.1" fill="#fff"/><path d="M66.223 19.49l-5-4.1a16.954 16.954 0 00-3 10.2l6.4-.7a11.329 11.329 0 011.6-5.4" fill="#7fba00" opacity=".4" style="isolation:isolate"/><path d="M80.423 16.29l4.1-5a16.954 16.954 0 00-10.2-3l.7 6.5a9.065 9.065 0 015.4 1.5" fill="#7fba00" opacity=".8" style="isolation:isolate"/><path d="M72.623 14.99l-.7-6.5a15.96 15.96 0 00-9.3 5.1l5 4.1a10.258 10.258 0 015-2.7" fill="#7fba00" opacity=".6" style="isolation:isolate"/><path d="M64.923 27.19l-6.5.7a16.527 16.527 0 005.1 9.4l4.1-5a11.48 11.48 0 01-2.7-5.1" fill="#7fba00" opacity=".25" style="isolation:isolate"/><path d="M99.623 22.39a24.673 24.673 0 00-9.3-16.9 21.123 21.123 0 00-3.1-2.1l-2 3.8c.8.5 1.6 1 2.4 1.6a20.762 20.762 0 01-10.8 36.9 19.632 19.632 0 01-10.7-1.8l-2 3.8a25.043 25.043 0 0033.2-12.1 24.114 24.114 0 002.3-13.2" fill="#a0a1a2"/><path d="M61.723 41.09a20.712 20.712 0 0123.6-33.9l2-3.8a24.829 24.829 0 00-31.9 5.9 24.935 24.935 0 003.6 35.1 26.177 26.177 0 005.3 3.3l2-3.8a19.516 19.516 0 01-4.6-2.8" fill="#a0a1a2"/><path d="M61.723 41.09a20.712 20.712 0 0123.6-33.9l2-3.8a24.829 24.829 0 00-31.9 5.9 24.935 24.935 0 003.6 35.1 26.177 26.177 0 005.3 3.3l2-3.8a19.516 19.516 0 01-4.6-2.8" fill="#fff" opacity=".2" style="isolation:isolate"/><path d="M86.223 12.59l-4.1 5a10.768 10.768 0 012.3 3.4h6.8a17.381 17.381 0 00-5-8.4z" fill="#7fba00"/><path d="M72.923 26.99a2.95 2.95 0 012.1-5 3.227 3.227 0 012.1.8h14.9a2.1 2.1 0 010 4.2h-15.2a2.732 2.732 0 01-1.9.8 2.174 2.174 0 01-2-.8" fill="#dd5900"/></svg>