<svg version="1.1" id="Layer_1" xmlns="http://www.w3.org/2000/svg" x="0" y="0" viewBox="0 0 65 65" xml:space="preserve"><style>.st19{fill:#010101}</style><path class="st19" d="M2.4 41.5h12.8v18.3H2.4zm14.1 4.1h12.2v14.2H16.5zm26.3 14.2H30.1V30.1l12.7 2.4z"/><path class="st19" d="M22 44.2h-5.5v-3.9H9.8V28.8H22z"/><path d="M5.8 44.2h2.7v2.7H5.8zm4 0h2.7v2.7H9.8zm-4 4.1h2.7V51H5.8zm4 0h2.7V51H9.8zm-4 4.1h2.7v2.7H5.8zm4 0h2.7v2.7H9.8zm9.4-4.1h2.7V51h-2.7zm4 0h2.7V51h-2.7zM12.5 31.4h2.7v2.7h-2.7zm4 0h2.7v2.7h-2.7zm-4 4.1h2.7v2.7h-2.7zm4 0h2.7v2.7h-2.7zm2.7 16.9h2.7v2.7h-2.7zm4 0h2.7v2.7h-2.7zm10.2-18.9h2v2h-2zm4.1 0h2v2h-2zm-4.1 3.8h2v2h-2zm4.1 0h2v2h-2zm-4.1 3.9h2v2h-2zm4.1 0h2v2h-2zM33.4 45h2v2h-2zm4.1 0h2v2h-2zm-4.1 3.8h2v2h-2zm4.1 0h2v2h-2zm-4.1 3.8h2v2h-2zm4.1 0h2v2h-2zM7.8 56.5h2v3.3h-2zm13.5 0H24v3.3h-2.7zm14.1 0h2.1v3.3h-2.1z" fill="#fff"/><path d="M63.4 22.2c0-3.3-2.3-6-5.4-6.5 0-4.1-3.3-7.4-7.4-7.4-2.6 0-4.8 1.3-6.1 3.3-1-.7-2.3-1.2-3.7-1.2-3.5 0-6.3 2.8-6.3 6.3 0 .5.1 1 .2 1.5-1.9.9-3.2 2.8-3.2 5.1 0 3 2.3 5.4 5.2 5.6h20.8c3.3-.4 5.9-3.3 5.9-6.7z" fill="#5bb4da"/></svg>