<svg xmlns="http://www.w3.org/2000/svg" viewBox="0 0 50 50"><path d="M10.907 34.286a2.186 2.186 0 012.081-2.278 2.287 2.287 0 010 4.555 2.185 2.185 0 01-2.081-2.277zM31.29 13.275a2.09 2.09 0 10-4.162 0 2.089 2.089 0 104.162.365 2.023 2.023 0 000-.365zM3.515 4.173L38.665 0v50l-35.15-5.234v-4.088L0 40.492v-2.05l3.515.107V25.53H0v-2.2h3.515V10.35L0 10.448V8.331l3.515-.186zm7.837 12.938v12.952a4.612 4.612 0 00-2.791 4.272 4.545 4.545 0 004.445 4.627 4.544 4.544 0 004.445-4.627 4.615 4.615 0 00-3.015-4.362V18.625l11.843 16.937a3.8 3.8 0 00-.153 1.033 3.246 3.246 0 106.474.505 3.326 3.326 0 000-.509 3.544 3.544 0 00-1.737-3.091V17.552a4.623 4.623 0 002.791-4.277 4.449 4.449 0 10-8.89-.377v.377a4.62 4.62 0 003.016 4.362v14.789L15.636 15.18a3.678 3.678 0 00.229-1.267 3.377 3.377 0 00-3.236-3.5 3.376 3.376 0 00-3.236 3.5 3.514 3.514 0 001.959 3.198zM40.832 2.92L45.7 4.25v40.939l-5.106 1.158L49.21 47.5V1.936z" fill="#D83B01"/></svg>