<svg xmlns="http://www.w3.org/2000/svg" shape-rendering="geometricPrecision" text-rendering="geometricPrecision" image-rendering="optimizeQuality" fill-rule="evenodd" clip-rule="evenodd" viewBox="0 0 32 32"><defs><style>.fil2{fill:#7fba00}.fil6{fill:#fcd116}.fil4{fill:#ffb900}</style></defs><g id="Layer_x0020_1"><path fill="none" d="M0 0h32v32H0z"/><g id="_2418311050848"><path d="M16 21c-1 0-2 0-2-1v-2c0 1 0 1 1 1h1v2zm0-2v-2c-1-1-2-1-2-2 0 0-1-1-1-2 0 0 1-1 1-2 1 0 2 0 2-1V9h2v1c1 0 1 1 2 1v2c-1 0-2-1-2-1v3c1 0 1 1 2 1-1 1-1 1-2 1v1c-1 0-1 1-2 1zm0-4v-3l-1 1c0 1 1 1 1 2z" fill="#777"/><path class="fil2" d="M5 5c-2 3-3 6-3 9h8c0-1 1-2 1-3L5 5z"/><path d="M16 0c-3 0-6 1-9 3l6 6c1 0 2-1 3-1V0z" fill="#b8d432"/><path class="fil4" d="M27 3c-3-2-6-3-9-3v8c1 0 2 1 3 1l6-6z"/><path d="M32 15c0-4-1-7-3-10l-6 6c1 1 1 3 1 4h8z" fill="#dd5900"/><path class="fil2" d="M5 25c-2-3-3-6-3-9h8c0 1 1 2 1 3l-6 6z"/><path class="fil4" d="M8 32c3 0 6-1 6-1v-3H2v3s3 1 6 1z"/><ellipse class="fil6" cx="8" cy="28" rx="6" ry="2"/><path class="fil4" d="M7 28c3 0 6-1 6-1v-3H1v3s3 1 6 1z"/><ellipse class="fil6" cx="7" cy="24" rx="6" ry="2"/><g fill-rule="nonzero"><path d="M22 22c-3 2-6 5-3 8 2 2 5-1 8-3 2-2 5-6 3-8-3-3-6 1-8 3zm7 7c1-1 1-3 2-5-1 1-2 3-3 4-2 1-3 2-4 3 2-1 3-1 5-2zm-5-12c-2 1-3 2-4 3-2 1-2 3-3 5 1-2 2-3 4-4 1-1 2-3 3-4zm5 12c-2 2-7 4-10 3l-1-1c-1-1-1-2-2-2-1-3 1-8 3-10s7-4 10-2c0 0 1 0 2 1 0 0 0 1 1 1 1 3-1 8-3 10z" fill="#ffb900"/><path d="M24 24c-2 1-8 4-5 6 2 2 4-4 6-5 1-2 7-4 5-6-3-2-5 3-6 5zm-7 7c-4-4 3-6 6-8 2-3 4-10 8-6s-3 6-5 9c-3 2-5 9-9 5z" fill="#ff8c00"/></g><path class="fil4" d="M9 24c3 0 6-1 6-1v-3H3v3s3 1 6 1z"/><ellipse class="fil6" cx="9" cy="20" rx="6" ry="2"/></g></g></svg>