<svg id="ICONS-64x" xmlns="http://www.w3.org/2000/svg" viewBox="0 0 64 64"><defs><style>.cls-1{fill:#556a8a}.cls-2{fill:#fff}</style></defs><path class="cls-1" d="M30 1h4v10h-4z"/><path class="cls-1" transform="rotate(-45 51.972 14.032)" d="M48.46 12.54h7v3h-7z"/><path class="cls-1" transform="rotate(-135 55.55 10.45)" d="M51.55 7.45h8v6h-8z"/><path class="cls-2" d="M32 61.5a27.5 27.5 0 010-55 27.48 27.48 0 0115.68 50.06A27.15 27.15 0 0132 61.5z"/><path class="cls-2" d="M32 61a27 27 0 01-4.81-.43 26.61 26.61 0 01-14-7.11l-.35-.34a27 27 0 010-38.18 26.64 26.64 0 0114.38-7.49A27 27 0 0132 7a26.77 26.77 0 0119.05 7.89l.33.34A27 27 0 0132 61z"/><path d="M51.45 53.45A27.46 27.46 0 0127.14 61a27.08 27.08 0 01-14.22-7.25l38.87-38.83a27.51 27.51 0 01-.35 38.53z" fill="#e5e5e5"/><path class="cls-1" d="M32 8a26 26 0 0114.82 47.33A26 26 0 016 34a25.67 25.67 0 014.67-14.83A26 26 0 0132 8m0-2a28 28 0 000 56 28 28 0 0019.72-47.86A27.89 27.89 0 0032 6z"/><path d="M32 45a11 11 0 1111-11 11 11 0 01-11 11z" fill="#2bc7f4"/><circle class="cls-2" cx="32" cy="34" r="4"/><rect class="cls-1" x="25" y="1" width="14" height="2" rx="1" ry="1" transform="rotate(-180 32 2)"/><path class="cls-1" d="M32.85 35.12l-1.89-2.03 17.33-15.83.82.85-16.26 17.01z"/><path d="M32 11v6m0 35v6M9 34h6m34 0h6" fill="none" stroke="#556a8a" stroke-miterlimit="10" stroke-width="2"/></svg>