<svg xmlns="http://www.w3.org/2000/svg" viewBox="0 0 50 50" class="fxs-portal-svg" data-type="1"><path d="M43 15.9c0 4.9-3.9 8.8-8.8 8.8s-8.8-3.9-8.8-8.8c.1-4.9 4-8.8 8.8-8.8 4.9 0 8.8 3.9 8.8 8.8m-2.4 11.9l-6.4 9-6.4-9h-9.3V50H50V27.8z" class="msportalfx-svg-c15" fill="#59b4d9"/><path opacity=".2" d="M25.5 15.9c0 4.8 3.9 8.7 8.6 8.8l2.2-17.3c-.7-.3-1.4-.3-2.1-.3-4.8 0-8.7 3.9-8.7 8.8m2.3 11.9h-9.3V50h12.4l1.9-15.3z" class="msportalfx-svg-c01" fill="#fff"/><path d="M5.6 18.4l4.9 5.2h-4L0 16.9l6.5-6.7h4l-4.9 5.1H20v3.1z" class="msportalfx-svg-c03" fill="#a0a1a2"/><path d="M20 0v18.4h-3.1V0z" class="msportalfx-svg-c03" fill="#a0a1a2"/></svg>