<svg viewBox="0 0 246 136" xmlns="http://www.w3.org/2000/svg"><g fill="none" fill-rule="evenodd"><path d="M213.725 86.583h17.568c7.948 0 14.39-6.442 14.39-14.39 0-7.94-6.431-14.378-14.37-14.388-.775-8.694-8.068-15.511-16.964-15.511-7.382 0-13.65 4.703-16.018 11.269-.114-.002-.226-.017-.341-.017-6.761 0-12.547 4.146-14.971 10.03l-.01 2.882 8.667.71 9.68 5.98 4.562 6.032 1.52 4.663 6.287 2.74z" fill="#ACD1EF"/><path d="M115.132 131.828c-.072 0-.155-.011-.23-.013-.073.002-.156.013-.228.013h.458z" fill="#0078D7"/><path d="M201.836 122.927h-.007c-.092-.004-.181-.009-.275-.009h-61.597c12.96-11.363 25.059-30.21 25.059-55.637V45.362c8.759 1.684 15.583 9.131 16.182 18.333l.019.278c.023.345.049.688.049 1.037 0 .71-.044 1.442-.134 2.24l-.276 2.46 2.43-.463c1.22-.232 2.433-.35 3.603-.35 8.963 0 16.82 6.356 18.685 15.114l.232 1.091 1.078.291a18.992 18.992 0 015.809 2.694A19.083 19.083 0 01221 103.821c0 10.535-8.57 19.106-19.165 19.106zM93.153 97.734V66.907h6.567v-11.61c0-8.466 6.888-15.353 15.353-15.353 8.467 0 15.355 6.887 15.355 15.353v11.61h6.224v30.827h-43.5zm-10.33-67.07c-5.038 1.242-9.096 1.507-11.605 1.507-1.49 0-2.332-.098-2.34-.098a3.658 3.658 0 00-4.088 3.623v26.571H19.14c-8.541 0-15.491-6.949-15.491-15.49 0-7.379 5.25-13.77 12.483-15.194l1.505-.296-.034-1.533a4.692 4.692 0 00-.016-.284c0-6.158 5.009-11.167 11.166-11.167 3.044 0 5.892 1.21 8.018 3.407l2.348 2.426.743-3.293C42.145 10.72 50.986 3.65 61.364 3.65c12.164 0 22.059 9.894 22.059 22.058 0 1.664-.215 3.321-.6 4.955zm131.934 54.413a22.78 22.78 0 00-5.87-2.895c-2.613-9.876-11.693-16.935-21.998-16.935-.652 0-1.312.031-1.977.091l.003-.328c0-.434-.027-.86-.058-1.286l-.017-.266c-.726-11.12-9.138-20.074-19.824-21.8v-5.962a3.65 3.65 0 00-3.65-3.65c-.035 0-.07 0-.105.002h-.108c-2.101 0-21.178-.517-43.753-18.437a3.645 3.645 0 00-4.766.198c-9.238 8.674-18.348 13.294-25.878 15.731a25.13 25.13 0 00.317-3.832C87.073 11.532 75.54 0 61.363 0c-11.11 0-20.71 6.955-24.262 17.233a14.656 14.656 0 00-8.348-2.578c-7.791 0-14.197 6.046-14.773 13.693C5.797 30.632 0 38.157 0 46.777c0 10.553 8.586 19.14 19.14 19.14h45.65v1.364c0 43.565 35.512 67.858 50.03 68.181l.083.002c.028 0 .054 0 .08-.002 5.065-.112 12.683-3.15 20.457-8.894l66.149.001c.1.006.2.011.302.011 12.549 0 22.759-10.21 22.759-22.759a22.733 22.733 0 00-9.893-18.744z" fill="#0078D7"/><path d="M115.002 75.692a3.874 3.874 0 00-3.868 3.868c0 1.397.756 2.674 1.955 3.357v6.68h3.826v-6.68a3.867 3.867 0 001.955-3.357 3.873 3.873 0 00-3.868-3.868m11.776-20.395c0-6.453-5.25-11.703-11.704-11.703-6.454 0-11.705 5.25-11.705 11.703v11.61h23.41v-11.61z" fill="#0078D7"/></g></svg>