<svg xmlns="http://www.w3.org/2000/svg" viewBox="0 0 102 102" shape-rendering="geometricPrecision" text-rendering="geometricPrecision" image-rendering="optimizeQuality" fill-rule="evenodd" clip-rule="evenodd"><defs><style>.fil1{fill:#000}.fil2{fill:#b8d432}</style></defs><g id="Layer_x0020_1"><g id="_2417059572336"><path d="M29 102h48c3 0 6-2 6-6V6c0-3-3-6-6-6H29c-4 0-7 3-7 6v90c0 4 3 6 7 6z" fill="#777"/><path class="fil1" d="M35 10c-3 0-6 2-6 6s3 6 6 6h35c4 0 7-2 7-6s-3-6-7-6H35z"/><circle class="fil2" cx="35" cy="16" r="3"/><path class="fil1" d="M35 29c-3 0-6 3-6 6 0 4 3 7 6 7h35c4 0 7-3 7-7 0-3-3-6-7-6H35z"/><circle class="fil2" cx="35" cy="35" r="3"/><path class="fil1" d="M35 48c-3 0-6 3-6 6 0 4 3 7 6 7h35c4 0 7-3 7-7 0-3-3-6-7-6H35z"/><circle class="fil2" cx="35" cy="54" r="3"/><path d="M72 99c5 0 10-4 10-9 0-6-5-11-11-10 3-15-8-29-24-29-10 0-18 6-22 15-10-2-20 6-20 16s7 17 17 17h50z" fill="#fff"/><path d="M71 70c-2-11-12-19-24-19-10 0-18 6-22 15h-3C12 66 5 73 5 82c0 10 7 17 17 17h11c-8 0-14-6-14-13 0-8 6-14 14-14h3c3-7 10-12 18-12 7 0 14 4 17 10z" fill="#c0ecfc"/><path d="M51 93c1 0 2 0 3-1v1h4v-3l-1-1c0-1 1-2 1-3v-3c0-3-3-6-7-6-3 0-6 3-6 6v3c0 4 3 7 6 7zM34 77c-3 0-5 2-5 5 0 2 2 4 5 4h3c1 0 1 1 1 2s0 2-1 2h-8v3h8c2 0 5-2 5-5s-3-5-5-5h-3c-1 0-2-1-2-1 0-1 1-2 2-2h8v-3h-8zm27 0h3v13h6v3h-9V77zm-7 9h-3v4c-2 0-3-2-3-4v-3c0-2 1-3 3-3s3 1 3 3v3z" fill="#8ba208"/></g><path fill="none" d="M0 0h102v102H0z"/></g></svg>