<svg xmlns="http://www.w3.org/2000/svg" viewBox="0 0 80 80"><style>.st0{fill:#444}.st12{fill:#fff}.st13{fill:#6e6e6e}</style><g id="Layer_1"><path class="st12" d="M40 53.466c-12.376 0-21-4.231-21-8.028V23.394h42v22.044c0 3.796-8.624 8.028-21 8.028z"/><path class="st13" d="M59.5 24.894v20.544c0 2.216-6.883 6.528-19.5 6.528s-19.5-4.312-19.5-6.528V24.894h39m3-3h-45v23.544c0 5.262 10.074 9.528 22.5 9.528s22.5-4.266 22.5-9.528V21.894z"/><path class="st0" d="M10.875 19.976h2v32.815h-2z"/><path class="st0" d="M16.375 56.864a4.505 4.505 0 00-5.43-4.407c-2.121.425-3.57 2.413-3.57 4.576v8.636h9v-8.805z"/><path class="st12" d="M8.873 20.272L40 10.202l31.127 10.07L40 30.342z"/><path class="st13" d="M40 11.778l26.254 8.494L40 28.766l-26.254-8.494L40 11.778m0-3.153L4 20.272l36 11.647 36-11.647L40 8.625z"/></g></svg>