<svg id="ICONS-64x" xmlns="http://www.w3.org/2000/svg" viewBox="0 0 64 64"><defs><style>.cls-1{fill:#fff;stroke:#556a8a;stroke-miterlimit:10;stroke-width:2px}.cls-2{fill:none}.cls-3{fill:#2bc7f4}</style></defs><path class="cls-1" d="M52 60a3 3 0 01-3 3H17a3 3 0 01-3-3V4a3 3 0 013-3h32a3 3 0 013 3z"/><path class="cls-2" d="M17 15h32v32H17z"/><rect class="cls-3" x="23" y="4" width="20" height="2" rx="1" ry="1"/><circle class="cls-3" cx="32" cy="59" r="2"/><path fill="#e5e5e5" d="M15 7h36v49H15z"/><path class="cls-1" d="M33 17a14 14 0 1014 14 14 14 0 00-14-14z"/><path d="M46.81 28H19.13l1-2h26.01l.67 2zm-.97 9h-26l-.4-2h27.25l-.85 2z" fill="#556a8a"/><path d="M33 17c-3.87 0-7 6.27-7 14s3.13 14 7 14 7-6.27 7-14-3.13-14-7-14z" fill="none" stroke="#556a8a" stroke-miterlimit="10" stroke-width="2"/><path class="cls-2" d="M17 15h32v32H17z"/></svg>