<svg xmlns="http://www.w3.org/2000/svg" viewBox="0 0 214 98"><path d="M151.882 43.541c-9.963-9.507-22.83-19.251-42.725-19.422l.022-2.516c20.77.179 34.12 10.27 44.439 20.119l-1.736 1.819zm50.112-19.421h7.24l-7.797 7.795 1.78 1.78 10.756-10.759-10.756-10.755-1.78 1.778 7.644 7.643-7.13.001c-16.68.582-27.807 12.448-39.586 25.01-13.82 14.737-28.109 29.978-53.208 30.194l.022 2.516c26.175-.225 41.501-16.569 55.021-30.988 11.415-12.173 22.195-23.67 37.794-24.216m-.556 44.891l7.796 7.798h-7.196c-13.925-.485-23.887-9.651-32.897-18.995l-1.81 1.746c9.367 9.717 19.755 19.246 34.663 19.765h7.088l-7.644 7.643 1.779 1.779 10.756-10.756-10.757-10.758-1.779 1.779zM48.88 65.016c-8.92 0-16.178-7.258-16.178-16.18 0-8.92 7.258-16.177 16.179-16.177 8.92 0 16.179 7.257 16.179 16.178 0 8.92-7.258 16.179-16.18 16.179M54.02 0H43.764a4.628 4.628 0 00-4.611 4.33l-.711 11.29a34.69 34.69 0 00-5.685 2.356l-8.486-7.481a4.621 4.621 0 00-3.055-1.154 4.593 4.593 0 00-3.27 1.354l-7.252 7.252a4.631 4.631 0 00-.2 6.324l7.495 8.5a34.675 34.675 0 00-2.337 5.668l-11.32.713A4.63 4.63 0 000 43.764V54.02a4.63 4.63 0 004.33 4.612l11.356.715a34.644 34.644 0 002.339 5.625l-7.531 8.54a4.632 4.632 0 00.199 6.324l7.253 7.253a4.593 4.593 0 003.269 1.354 4.61 4.61 0 003.055-1.155l8.563-7.548c1.79.929 3.67 1.706 5.6 2.31l.719 11.402a4.628 4.628 0 004.61 4.33h10.259a4.63 4.63 0 004.612-4.33l.718-11.408a34.796 34.796 0 005.59-2.311l8.573 7.555a4.615 4.615 0 003.055 1.155 4.587 4.587 0 003.267-1.354l7.254-7.253a4.629 4.629 0 00.199-6.323l-7.544-8.558a34.558 34.558 0 002.33-5.607l11.378-.716a4.63 4.63 0 004.33-4.612V43.764a4.629 4.629 0 00-4.33-4.612l-11.343-.714a34.515 34.515 0 00-2.33-5.651l7.509-8.516a4.628 4.628 0 00-.2-6.323l-7.253-7.254a4.59 4.59 0 00-3.267-1.353c-1.126 0-2.21.41-3.055 1.154l-8.494 7.488a34.986 34.986 0 00-5.676-2.356L58.633 4.33A4.63 4.63 0 0054.02 0m-5.14 67.533c10.324 0 18.695-8.371 18.695-18.696 0-10.325-8.371-18.695-18.695-18.695-10.325 0-18.695 8.37-18.695 18.695 0 10.325 8.37 18.696 18.695 18.696m5.14-65.016c1.11 0 2.03.863 2.1 1.973l.743 11.809c.048.756.573 1.38 1.297 1.598a32.076 32.076 0 016.088 2.527c.278.15.582.226.883.226.42 0 .835-.147 1.166-.44l8.88-7.827a2.1 2.1 0 012.88.091l7.253 7.253c.786.785.825 2.046.09 2.88l-7.846 8.9c-.5.568-.573 1.378-.215 2.044a32.059 32.059 0 012.499 6.066c.216.726.842 1.253 1.599 1.299l11.857.747a2.106 2.106 0 011.973 2.1v10.258a2.104 2.104 0 01-1.973 2.1l-11.891.749a1.79 1.79 0 00-1.596 1.294 32.14 32.14 0 01-2.503 6.023 1.792 1.792 0 00.213 2.048l7.884 8.943a2.105 2.105 0 01-.091 2.88l-7.253 7.254a2.102 2.102 0 01-2.88.09l-8.957-7.896a1.752 1.752 0 00-1.165-.438c-.3 0-.603.075-.88.223a32.024 32.024 0 01-6.008 2.485c-.725.218-1.25.844-1.297 1.598l-.75 11.92a2.104 2.104 0 01-2.1 1.974H43.763a2.106 2.106 0 01-2.101-1.973l-.75-11.914a1.793 1.793 0 00-1.298-1.598 32.018 32.018 0 01-6.015-2.484 1.86 1.86 0 00-.88-.223c-.42 0-.834.146-1.165.438l-8.948 7.888a2.102 2.102 0 01-2.88-.09l-7.253-7.254a2.105 2.105 0 01-.091-2.88l7.87-8.927c.502-.57.573-1.382.212-2.048a32.218 32.218 0 01-2.511-6.04c-.218-.724-.843-1.247-1.596-1.294L4.489 56.12a2.103 2.103 0 01-1.972-2.1V43.764c0-1.111.863-2.03 1.972-2.101l11.834-.745c.756-.048 1.383-.574 1.599-1.3a32.068 32.068 0 012.508-6.081c.358-.667.286-1.478-.215-2.045l-7.833-8.885a2.105 2.105 0 01.09-2.88l7.254-7.253a2.1 2.1 0 012.88-.091l8.872 7.82c.33.292.746.439 1.166.439.299 0 .604-.075.882-.226a31.986 31.986 0 016.096-2.525c.726-.217 1.25-.843 1.298-1.6l.742-11.801a2.106 2.106 0 012.1-1.973h10.259" fill="#0078D7" fill-rule="evenodd"/></svg>