<svg xmlns="http://www.w3.org/2000/svg" width="18" height="18" viewBox="0 0 18 18">
  <title>Icon-Blockchain-365</title>
  <polygon points="13.77 4.58 13.77 10.73 8.49 13.83 8.49 7.66 13.77 4.58" fill="#773adc"/>
  <polygon points="13.77 4.58 8.49 7.67 3.2 4.58 8.49 1.49 13.77 4.58" fill="#b796f9"/>
  <polygon points="8.49 7.67 8.49 13.83 3.2 10.73 3.2 4.58 8.49 7.67" fill="#a67af4"/>
  <path d="M11.15,7.69c.7-.4,1.26-.08,1.26.72a2.77,2.77,0,0,1-1.25,2.17c-.7.4-1.26.08-1.26-.72A2.77,2.77,0,0,1,11.15,7.69Z" fill="#552f99"/>
  <path d="M14.66,9.83H11.51a.63.63,0,0,1,0-1.26h3.15a2.06,2.06,0,0,0,2-2.13,2.06,2.06,0,0,0-2-2.14h0a.63.63,0,0,1,0-1.26h0a3.31,3.31,0,0,1,3.22,3.4A3.31,3.31,0,0,1,14.66,9.83Z" fill="#50e6ff"/>
  <path d="M11.94,13.87,9.51,11.44a.13.13,0,0,0-.2,0v1.87h-6a2.06,2.06,0,0,1-2-2.14A2.07,2.07,0,0,1,3.2,9.06V7.8A3.33,3.33,0,0,0,.12,11.19a3.32,3.32,0,0,0,3.22,3.4h6v1.86a.13.13,0,0,0,.2,0L11.94,14A.11.11,0,0,0,11.94,13.87Z" fill="#32bedd"/>
</svg>
