<svg xmlns="http://www.w3.org/2000/svg" width="18" height="18" viewBox="0 0 18 18">
  <defs>
    <linearGradient id="a9e1aa53-cf0c-4b38-a3d6-09e6340b101e" x1="13.308" y1="8.911" x2="13.308" y2="17.61" gradientUnits="userSpaceOnUse">
      <stop offset="0" stop-color="#32d4f5"/>
      <stop offset="1" stop-color="#198ab3"/>
    </linearGradient>
  </defs>
  <title>Icon-664-BC-DevKit</title>
  <g id="baf6b521-065e-4c82-997c-8a943b8c8d98">
    <g>
      <g>
        <polygon points="14.207 4.408 14.207 12.424 7.318 16.452 7.318 8.424 14.207 4.408" fill="#773adc"/>
        <polygon points="14.207 4.408 7.319 8.435 0.43 4.407 7.319 0.379 14.207 4.408" fill="#b796f9"/>
        <polygon points="7.318 8.435 7.318 16.452 0.43 12.424 0.43 4.407 7.318 8.435" fill="#a67af4"/>
      </g>
      <path id="b27129ef-d9eb-4579-8bb0-024170dc327f" d="M16.273,10.589l.042.042a.076.076,0,0,0,.1,0l.4-.339.737-1.211a.077.077,0,0,0-.011-.094l-.115-.115a.077.077,0,0,0-.1-.009l-1.156.77-.325.423a.075.075,0,0,0,.007.1l.044.044-2.4,2.471-.495-.513-.548.568a.983.983,0,0,1-.257.786.867.867,0,0,1-.75.275L9.13,16.174a.152.152,0,0,0,0,.212l1.142,1.188a.152.152,0,0,0,.22,0l2.3-2.392a.94.94,0,0,1,.274-.787.87.87,0,0,1,.751-.275l.549-.567-.494-.512Z" fill="#198ab3"/>
      <path d="M17.219,16.018l-.572-.587-3.639-3.758h0l-.181-.193a2.03,2.03,0,0,0-.475-2,1.882,1.882,0,0,0-1.692-.543.076.076,0,0,0-.041.129l.952.969a.077.077,0,0,1,.02.072l-.253.995a.077.077,0,0,1-.054.055l-.975.269a.077.077,0,0,1-.075-.021l-.93-.962a.077.077,0,0,0-.131.04A2,2,0,0,0,9.7,12.23a1.851,1.851,0,0,0,1.848.494l.037.036.2.212h0l4.169,4.363a.863.863,0,0,0,1.221.042q.021-.019.042-.042a.909.909,0,0,0,.256-.659A.994.994,0,0,0,17.219,16.018Z" fill="url(#a9e1aa53-cf0c-4b38-a3d6-09e6340b101e)"/>
    </g>
  </g>
</svg>
