<svg xmlns="http://www.w3.org/2000/svg" width="16" height="16" viewBox="0 0 16 16">
  <title>Icon-command-1121Artboard 2</title>
  <g id="bc797264-376b-4f97-88ab-966235980222">
    <g>
      <path d="M9.34,7.34A1.4,1.4,0,0,1,9.5,8a1.48,1.48,0,0,1-.12.59,1.52,1.52,0,0,1-.79.79,1.51,1.51,0,0,1-1.18,0,1.52,1.52,0,0,1-.79-.79,1.51,1.51,0,0,1,0-1.18,1.52,1.52,0,0,1,.79-.79A1.48,1.48,0,0,1,8,6.5a1.4,1.4,0,0,1,.66.16h0L11,4.27s.63-.62,1-.27-.27,1-.27,1L9.35,7.35ZM8,8.5a.49.49,0,0,0,.35-.15.48.48,0,0,0,0-.7A.49.49,0,0,0,8,7.5a.5.5,0,0,0,0,1Z"/>
      <path d="M8,.5A7.5,7.5,0,1,0,15.5,8,7.5,7.5,0,0,0,8,.5Zm0,14A6.5,6.5,0,1,1,14.5,8,6.51,6.51,0,0,1,8,14.5Z"/>
      <g>
        <path d="M5.56,4.85a3.9,3.9,0,0,1,1.94-.8v-1A5,5,0,0,0,4.85,4.14Z"/>
        <path d="M4.85,10.44a3.9,3.9,0,0,1-.8-1.94h-1a5,5,0,0,0,1.09,2.65Z"/>
        <path d="M4.05,7.5a3.9,3.9,0,0,1,.8-1.94l-.71-.71A5,5,0,0,0,3.05,7.5Z"/>
        <path d="M12,8.5a3.9,3.9,0,0,1-.8,1.94l.71.71A5,5,0,0,0,13,8.5Z"/>
      </g>
      <path d="M11.67,6.45a4.06,4.06,0,0,1,.28,1h1a5.17,5.17,0,0,0-.54-1.79Z"/>
    </g>
  </g>
</svg>
