<svg xmlns="http://www.w3.org/2000/svg" viewBox="0 0 16 16"><title>Asset 45</title><path d="M15.4,4.9a8.3,8.3,0,0,1,0,6.2,9,9,0,0,1-1.7,2.6,9,9,0,0,1-2.6,1.7A8.1,8.1,0,0,1,8,16a7.5,7.5,0,0,1-2.6-.4,7.6,7.6,0,0,1-2.3-1.3,7.3,7.3,0,0,1-1.7-1.8L.7,11.4c-.1-.4-.3-.8-.4-1.3l1-.2a7.2,7.2,0,0,0,.9,2,8.7,8.7,0,0,0,1.6,1.7,6.9,6.9,0,0,0,1.9,1A6.2,6.2,0,0,0,8,15l1.9-.2,1.6-.8a4.9,4.9,0,0,0,1.4-1.1A4.9,4.9,0,0,0,14,11.5a8,8,0,0,0,.8-1.6A12.3,12.3,0,0,0,15,8a12.3,12.3,0,0,0-.2-1.9A8,8,0,0,0,14,4.5a4.9,4.9,0,0,0-1.1-1.4A4.9,4.9,0,0,0,11.5,2a4.6,4.6,0,0,0-1.6-.7A6.3,6.3,0,0,0,8,1a6.9,6.9,0,0,0-2,.3,5.3,5.3,0,0,0-1.7.8A4.7,4.7,0,0,0,2.8,3.4,4.6,4.6,0,0,0,1.7,5H4V6H0V2H1V4.1l.3-.4.3-.5A9.1,9.1,0,0,1,3.3,1.5,7.6,7.6,0,0,1,5.5.4,7.3,7.3,0,0,1,8,0a8.1,8.1,0,0,1,3.1.6,9,9,0,0,1,2.6,1.7A9,9,0,0,1,15.4,4.9Z"/><polygon points="8 3 8 7.3 10.9 10.1 10.1 10.9 7 7.7 7 3 8 3"/></svg>