<svg xmlns="http://www.w3.org/2000/svg" viewBox="0 0 10 16"><title>Asset 78</title><path d="M2.5,0l1,.2.8.5a3.5,3.5,0,0,1,.5.8,3.6,3.6,0,0,1,.2,1,2,2,0,0,1-.3,1.1,1.6,1.6,0,0,1-.7.9v10a1.3,1.3,0,0,1-.1.6l-.3.5-.5.3H1.9l-.5-.3-.3-.5a1.3,1.3,0,0,1-.1-.6V4.5a1.6,1.6,0,0,1-.7-.9A2,2,0,0,1,0,2.5a3.6,3.6,0,0,1,.2-1A3.5,3.5,0,0,1,.7.7L1.5.2ZM3,3.9l.4-.2.3-.3A.8.8,0,0,0,3.9,3,.9.9,0,0,0,4,2.5.9.9,0,0,0,3.9,2c0-.1-.1-.2-.2-.4l-.3-.3L3,1.1V2.5L2.5,3,2,2.5V1.1a.5.5,0,0,0-.4.2l-.3.3c-.1.2-.2.3-.2.4a.9.9,0,0,0-.1.5.9.9,0,0,0,.1.5.8.8,0,0,0,.2.4l.3.3.4.2V14.5a.6.6,0,0,0,.1.4h.8a.6.6,0,0,0,.1-.4ZM10,9H9v5.5a1.3,1.3,0,0,1-.1.6l-.3.5-.5.3H6.9l-.5-.3-.3-.5a1.3,1.3,0,0,1-.1-.6V9H5V8H7V3.7l-1-1V0H9V2.7l-1,1V8h2ZM7,2.3l.5.5L8,2.3V1H7ZM8,9H7v5.5a.6.6,0,0,0,.1.4h.8a.6.6,0,0,0,.1-.4Z"/></svg>