<svg xmlns="http://www.w3.org/2000/svg" viewBox="0 0 16 12"><title>Asset 102</title><path d="M5,4a4.3,4.3,0,0,0,.2,1.1,2.4,2.4,0,0,0,.6.9,2.7,2.7,0,0,0,.8.7L7.7,7h.6L8,8,5.7,7.7,3.6,6.9,1.7,5.6A12.9,12.9,0,0,1,0,4,12.9,12.9,0,0,1,1.7,2.4L3.6,1.1,5.7.3A9.1,9.1,0,0,1,8,0a8.5,8.5,0,0,1,2.3.3,6.6,6.6,0,0,1,2.1.8,8.6,8.6,0,0,1,2,1.3A8.1,8.1,0,0,1,16,4l-.7.7h-.1a9.8,9.8,0,0,0-1.8-1.7,11.6,11.6,0,0,0-2.2-1.3,3.4,3.4,0,0,1,.6,1.2A5,5,0,0,1,12,4h0l-1,.3V4a5,5,0,0,0-.2-1.2l-.7-.9-.9-.7L8,1l-1.2.2-.9.7-.7.9A5,5,0,0,0,5,4ZM4.7,6.3a5.4,5.4,0,0,1-.5-1.1A5,5,0,0,1,4,4a5,5,0,0,1,.2-1.2,5.4,5.4,0,0,1,.5-1.1l-1.8,1L1.4,4,2.9,5.3ZM8,3h.4l.3.2c.1.1.2.2.2.3A.6.6,0,0,1,9,4a.6.6,0,0,1-.1.4l-.2.3-.3.2H7.6l-.3-.2-.2-.3A.6.6,0,0,1,7,4a.6.6,0,0,1,.1-.4c0-.1.1-.2.2-.3l.3-.2Zm4.5,2a3.5,3.5,0,0,1,1.4.3A4.1,4.1,0,0,1,15,6a4.1,4.1,0,0,1,.7,1.1,3.4,3.4,0,0,1,0,2.8A4.1,4.1,0,0,1,15,11a4.1,4.1,0,0,1-1.1.7,3.4,3.4,0,0,1-2.8,0A4.1,4.1,0,0,1,10,11a4.1,4.1,0,0,1-.7-1.1,3.4,3.4,0,0,1,0-2.8A4.1,4.1,0,0,1,10,6a4.1,4.1,0,0,1,1.1-.7A3.5,3.5,0,0,1,12.5,5ZM10,8.5a3.6,3.6,0,0,0,.2,1,3.5,3.5,0,0,0,.5.8l.8.5,1,.2h.7l.7-.3L10.4,7.1l-.3.7A1.7,1.7,0,0,0,10,8.5Zm4.6,1.4.3-.7a1.7,1.7,0,0,0,.1-.7,3.6,3.6,0,0,0-.2-1,3.5,3.5,0,0,0-.5-.8l-.8-.5-1-.2h-.7l-.7.3Z"/></svg>