<svg xmlns="http://www.w3.org/2000/svg" viewBox="0 0 15.5 15.5"><path d="M15.5 5.4l-.5.5-.5.3-.5.3h-1.2l-1.1 1h-1.4l2.2-2.1h.8a1.2 1.2 0 00.8-.2l-3.9-3.7a1.9 1.9 0 00-.2.8.4.4 0 00.1.3V3h.1L6.3 6.9H4l-.8.4L7 10.8v1.5l-1.5-1.5-4.4 4.4-1.1.3.4-1L4.8 10l-3-3 .3-.3a3.8 3.8 0 011.3-.9l1.5-.2h.6l.6.2 3-3a.9.9 0 01-.1-.5 1.5 1.5 0 01.1-.7 1.4 1.4 0 01.2-.6l.4-.5.5-.5zm-4 3.1a3.5 3.5 0 011.4.3l1.1.8a4.1 4.1 0 01.7 1.1A3.1 3.1 0 0115 12a3.2 3.2 0 01-.3 1.4 4.1 4.1 0 01-.7 1.1l-1.1.8a3.4 3.4 0 01-1.4.2 3.4 3.4 0 01-1.4-.2L9 14.5a4.1 4.1 0 01-.7-1.1A3.2 3.2 0 018 12a3.1 3.1 0 01.3-1.3A4.1 4.1 0 019 9.6l1.1-.8a3.5 3.5 0 011.4-.3zM9 12a3 3 0 00.2 1 2.2 2.2 0 00.5.8l.8.6h1.7a.9.9 0 00.7-.3l-3.5-3.4-.3.6a2 2 0 00-.1.7zm4.6 1.4l.3-.6a2.2 2.2 0 00.1-.8 2.9 2.9 0 00-.2-.9 2.2 2.2 0 00-.5-.8l-.8-.6-1-.2-.7.2a.9.9 0 00-.7.3z"/></svg>