<svg xmlns="http://www.w3.org/2000/svg" viewBox="0 0 10 16"><path d="M2.5 0l1 .2.8.5a3.5 3.5 0 01.5.8 3.6 3.6 0 01.2 1 2 2 0 01-.3 1.1 1.6 1.6 0 01-.7.9v10a1.3 1.3 0 01-.1.6l-.3.5-.5.3H1.9l-.5-.3-.3-.5a1.3 1.3 0 01-.1-.6v-10a1.6 1.6 0 01-.7-.9A2 2 0 010 2.5a3.6 3.6 0 01.2-1A3.5 3.5 0 01.7.7l.8-.5zM3 3.9l.4-.2.3-.3a.8.8 0 00.2-.4.9.9 0 00.1-.5.9.9 0 00-.1-.5c0-.1-.1-.2-.2-.4l-.3-.3-.4-.2v1.4l-.5.5-.5-.5V1.1a.5.5 0 00-.4.2l-.3.3c-.1.2-.2.3-.2.4a.9.9 0 00-.1.5.9.9 0 00.1.5.8.8 0 00.2.4l.3.3.4.2v10.6a.6.6 0 00.1.4h.8a.6.6 0 00.1-.4zM10 9H9v5.5a1.3 1.3 0 01-.1.6l-.3.5-.5.3H6.9l-.5-.3-.3-.5a1.3 1.3 0 01-.1-.6V9H5V8h2V3.7l-1-1V0h3v2.7l-1 1V8h2zM7 2.3l.5.5.5-.5V1H7zM8 9H7v5.5a.6.6 0 00.1.4h.8a.6.6 0 00.1-.4z"/></svg>