<svg xmlns="http://www.w3.org/2000/svg" viewBox="0 0 12 15.9"><title>Asset 60</title><path d="M7,4h3.3L9.2,2.9A4.8,4.8,0,0,0,8.1,2,4.1,4.1,0,0,0,7,1.3,4,4,0,0,0,5.5,1a3.9,3.9,0,0,0-1.8.4,3.3,3.3,0,0,0-1.4,1,3.4,3.4,0,0,0-.9,1.4A3.3,3.3,0,0,0,1,5.5a5.1,5.1,0,0,0,.3,1.7,7.1,7.1,0,0,0,1,1.4l6.5,6.5-.7.8L1.6,9.3A6.6,6.6,0,0,1,.4,7.6,5.2,5.2,0,0,1,0,5.5,5.9,5.9,0,0,1,.2,4.1,3.1,3.1,0,0,1,.8,2.8a5,5,0,0,1,.8-1.2L2.7.8A7.5,7.5,0,0,1,4,.2L5.5,0,6.7.2a1.9,1.9,0,0,1,1,.3l.9.5.8.7.7.7.9.9V0h1V5H7Z"/></svg>