<svg xmlns="http://www.w3.org/2000/svg" viewBox="0 0 16 15"><title>Asset 64</title><path d="M16,13H7a2,2,0,0,1-.4.8,1.5,1.5,0,0,1-.5.6l-.7.5H3.6l-.7-.5a1.5,1.5,0,0,1-.5-.6A2,2,0,0,1,2,13H0V12H2a2,2,0,0,1,.4-.8,1.5,1.5,0,0,1,.5-.6l.7-.5H5.4l.7.5a1.5,1.5,0,0,1,.5.6A2,2,0,0,1,7,12h9ZM4.5,14h.6l.5-.3.3-.5a1.3,1.3,0,0,0,.1-.6,1.3,1.3,0,0,0-.1-.6l-.3-.5-.5-.3H3.9l-.5.3-.3.5a1.3,1.3,0,0,0-.1.6,1.3,1.3,0,0,0,.1.6l.3.5.5.3Z"/><path d="M16,3H7a2,2,0,0,1-.4.8,1.5,1.5,0,0,1-.5.6l-.7.5H3.6l-.7-.5a1.5,1.5,0,0,1-.5-.6A2,2,0,0,1,2,3H0V2H2a2,2,0,0,1,.4-.8A1.5,1.5,0,0,1,2.9.6L3.6.1H5.4l.7.5a1.5,1.5,0,0,1,.5.6A2,2,0,0,1,7,2h9ZM4.5,4h.6l.5-.3.3-.5A1.3,1.3,0,0,0,6,2.5a1.3,1.3,0,0,0-.1-.6l-.3-.5-.5-.3H3.9l-.5.3-.3.5a1.3,1.3,0,0,0-.1.6,1.3,1.3,0,0,0,.1.6l.3.5.5.3Z"/><path d="M0,7H9a2,2,0,0,1,.4-.8,1.5,1.5,0,0,1,.5-.6l.7-.5h1.8l.7.5a1.5,1.5,0,0,1,.5.6A2,2,0,0,1,14,7h2V8H14a2,2,0,0,1-.4.8,1.5,1.5,0,0,1-.5.6l-.7.5H10.6l-.7-.5a1.5,1.5,0,0,1-.5-.6A2,2,0,0,1,9,8H0ZM12.1,8.9l.5-.3.3-.5a1.3,1.3,0,0,0,.1-.6,1.3,1.3,0,0,0-.1-.6l-.3-.5-.5-.3H10.9l-.5.3-.3.5a1.3,1.3,0,0,0-.1.6,1.3,1.3,0,0,0,.1.6l.3.5.5.3h1.2Z"/></svg>