<svg xmlns="http://www.w3.org/2000/svg" viewBox="0 0 15 16"><title>Asset 10</title><path d="M8,10a5,5,0,0,1,.2-1.2L7,9a4.1,4.1,0,0,1-1.6-.3,3.4,3.4,0,0,1-1.2-.9,3.4,3.4,0,0,1-.9-1.2A4.1,4.1,0,0,1,3,5a4.1,4.1,0,0,1,.3-1.6,3.4,3.4,0,0,1,.9-1.2,3.4,3.4,0,0,1,1.2-.9A4.1,4.1,0,0,1,7,1a4.1,4.1,0,0,1,1.6.3,3.4,3.4,0,0,1,1.2.9,3.4,3.4,0,0,1,.9,1.2A4.1,4.1,0,0,1,11,5a2.2,2.2,0,0,1-.1.8L12,5.6V5a4.1,4.1,0,0,0-.4-1.9,3.8,3.8,0,0,0-1.1-1.6A3.8,3.8,0,0,0,8.9.4,4.1,4.1,0,0,0,7,0,4.1,4.1,0,0,0,5.1.4,3.8,3.8,0,0,0,3.5,1.5,3.8,3.8,0,0,0,2.4,3.1,4.1,4.1,0,0,0,2,5a5.1,5.1,0,0,0,.2,1.3,5,5,0,0,0,.5,1.3l.8,1,1.1.8-1.9,1A7,7,0,0,0,1.3,12a6.4,6.4,0,0,0-1,1.8A8.3,8.3,0,0,0,0,16H1a7.8,7.8,0,0,1,.2-1.6l.6-1.5.9-1.2,1.2-.9,1.5-.6L7,10H8Z"/><path d="M12.5,7.5l1,.2.8.5a3.5,3.5,0,0,1,.5.8,3.6,3.6,0,0,1,.2,1,1.9,1.9,0,0,1-.1.8l-.4.6L14,12l-.5.4-.4.5a1.3,1.3,0,0,0-.1.6V14H12v-.5a1.9,1.9,0,0,1,.1-.8l.4-.6.5-.6.5-.4.4-.5A1.3,1.3,0,0,0,14,10a1.3,1.3,0,0,0-.1-.6l-.3-.5-.5-.3H11.9l-.5.3-.3.5a1.3,1.3,0,0,0-.1.6H10a3.6,3.6,0,0,1,.2-1,3.5,3.5,0,0,1,.5-.8l.8-.5ZM12,15h1v1H12Z"/></svg>