<svg xmlns="http://www.w3.org/2000/svg" width="16" height="16" viewBox="0 0 16 16">
  <title>Icon-404-ApplySplitting</title>
  <g id="b472b934-0fa0-4e4b-a4e8-ffc9ffac4c92">
    <g>
      <circle cx="7.72" cy="5.15" r="1.15"/>
      <circle cx="14.18" cy="4.57" r="1.15"/>
      <circle cx="4.11" cy="8.77" r="1.15"/>
      <circle cx="10.66" cy="8.14" r="1.15"/>
      <polygon points="4.25 8.92 3.96 8.63 7.72 4.86 10.66 7.85 14.04 4.43 14.32 4.71 10.66 8.43 7.72 5.44 4.25 8.92"/>
      <circle cx="8.09" cy="10.98" r="1.15"/>
      <circle cx="14.55" cy="10.4" r="1.15"/>
      <circle cx="4.47" cy="14.6" r="1.15"/>
      <circle cx="11.03" cy="13.97" r="1.15"/>
      <polygon points="4.62 14.75 4.33 14.46 8.09 10.69 11.03 13.68 14.4 10.26 14.69 10.54 11.03 14.26 8.09 11.27 4.62 14.75"/>
      <polygon points="6.16 2.45 3.96 2.45 3.96 0.25 2.5 0.25 2.5 2.45 0.3 2.45 0.3 3.9 2.5 3.9 2.5 6.11 3.96 6.11 3.96 3.9 6.16 3.9 6.16 2.45"/>
    </g>
  </g>
</svg>
