<svg xmlns="http://www.w3.org/2000/svg" viewBox="0 0 9 16"><title>Asset 62</title><path d="M4.5,0,5.7.2,6.8.6l.9.7.7.9a4.9,4.9,0,0,1,.4,1.1A5,5,0,0,1,9,4.5a5,5,0,0,1-.2,1.2,4.2,4.2,0,0,1-.4,1l-.7.8a4.6,4.6,0,0,1-.7.7l-.7.7-.7.7a3.6,3.6,0,0,0-.4.9,3,3,0,0,0-.2,1V13H4V11.5a5,5,0,0,1,.2-1.2,4.2,4.2,0,0,1,.4-1l.7-.8L6,7.8l.7-.7a4.6,4.6,0,0,0,.7-.7,3.6,3.6,0,0,0,.4-.9,3,3,0,0,0,.2-1,3.5,3.5,0,0,0-.3-1.4A4.1,4.1,0,0,0,7,2a4.1,4.1,0,0,0-1.1-.7A3.5,3.5,0,0,0,4.5,1a3.5,3.5,0,0,0-1.4.3A4.1,4.1,0,0,0,2,2a4.1,4.1,0,0,0-.7,1.1A3.5,3.5,0,0,0,1,4.5H0A5,5,0,0,1,.2,3.3,4.9,4.9,0,0,1,.6,2.2l.7-.9L2.2.6,3.3.2ZM4,15H5v1H4Z"/></svg>