<svg xmlns="http://www.w3.org/2000/svg" viewBox="0 0 15.7 15.7"><title>Asset 34</title><path d="M10,9.2,7.9,11.4l.7.7L6.8,13.8a2.8,2.8,0,0,1-1.1.8,3.1,3.1,0,0,1-1.3.3l-1.2-.2-.9-.5L.7,15.7,0,15l1.5-1.6a4.1,4.1,0,0,1-.5-.9,4.5,4.5,0,0,1-.1-1.1A3.2,3.2,0,0,1,1.1,10a2.8,2.8,0,0,1,.8-1.1L3.6,7.1l.8.7L6.5,5.7l.7.7L5.1,8.5l2.1,2.1L9.3,8.5ZM4.4,13.9l.9-.2a2.4,2.4,0,0,0,.8-.6l1.1-1L3.6,8.5l-1,1.1-.6.8a3.1,3.1,0,0,0-.1,1,2.8,2.8,0,0,0,.1.9l.6.8.8.6ZM14.2,2.3a4.1,4.1,0,0,1,.5.9,5,5,0,0,1,.2,1.2,3.1,3.1,0,0,1-.3,1.3,2.8,2.8,0,0,1-.8,1.1L12.1,8.6l-5-5L8.9,1.9A2.8,2.8,0,0,1,10,1.1,3.2,3.2,0,0,1,11.4.9h1.1l.9.5L15,0l.7.7ZM13.1,6.1a2.4,2.4,0,0,0,.6-.8,2.9,2.9,0,0,0,.2-.9,3,3,0,0,0-.2-1l-.6-.8-.8-.5a1.5,1.5,0,0,0-.9-.2h-1l-.8.6-1.1,1,3.6,3.6Z"/></svg>