<svg xmlns="http://www.w3.org/2000/svg" width="16" height="15" viewBox="0 0 16 15">
  <title>Icon-command-1108-Asset 2</title>
  <g id="ad0b6d99-5291-43a0-905e-0934f851119a">
    <g id="ff73f746-bbd4-4ed5-8d3b-5c445acd1d21">
      <path d="M6,6H7V7H6Zm3,6h1v1H9Zm3-6h1V7H12ZM9,6h1V7H9ZM6,8H7V9H6ZM3,8H4V9H3Zm9,0h1V9H12ZM9,8h1V9H9ZM6,10H7v1H6ZM3,10H4v1H3Zm9,0h1v1H12ZM9,10h1v1H9ZM6,12H7v1H6ZM3,12H4v1H3ZM16,1V15H0V1H3V0H4V1h8V0h1V1ZM1,2V4H15V2H13V3H12V2H4V3H3V2ZM15,14V5H1v9Z"/>
    </g>
  </g>
</svg>
