<svg xmlns="http://www.w3.org/2000/svg" viewBox="0 0 16 16"><path d="M5.2 7.1c0-.3-.1-.6-.1-.8a2.2 2.2 0 01-.1-.8A7.7 7.7 0 015.2 4a3.8 3.8 0 01.6-1.3 4.4 4.4 0 01.8-1.1L7.7.7 9 .2l1.5-.2 1.5.2a3.8 3.8 0 011.3.6l1.1.8.9 1.1a6.9 6.9 0 01.5 1.3 7.7 7.7 0 01.2 1.5 7.7 7.7 0 01-.2 1.5 6.9 6.9 0 01-.5 1.3l-.9 1.1-1.1.9-1.3.5-1.5.2-1.3-.2-1.2-.4V12H6v2H4v2H0v-3.7zM1 15h2v-2h2v-2h2V9h.7a3.3 3.3 0 001.3.7 4 4 0 001.5.3 3.9 3.9 0 001.8-.4 4.2 4.2 0 001.4-.9 4.2 4.2 0 00.9-1.4 3.9 3.9 0 00.4-1.8 3.3 3.3 0 00-.4-1.7 3.8 3.8 0 00-.9-1.5 4.2 4.2 0 00-1.4-.9 3.9 3.9 0 00-1.8-.4 3.3 3.3 0 00-1.7.4 3.8 3.8 0 00-1.5.9 4.2 4.2 0 00-.9 1.4A3.9 3.9 0 006 5.5a2.8 2.8 0 00.1.9l.3.9L1 12.7zM12.4 3.1l.3.2c.1.1.2.2.2.3a.6.6 0 01.1.4.6.6 0 01-.1.4l-.2.3-.3.2h-.8l-.3-.2-.2-.3A.6.6 0 0111 4a.6.6 0 01.1-.4c0-.1.1-.2.2-.3l.3-.2h.8z"/></svg>