<svg xmlns="http://www.w3.org/2000/svg" viewBox="0 0 16 16"><path d="M8 0a7.6 7.6 0 012.1.3 6.4 6.4 0 011.9.8 10.4 10.4 0 011.7 1.2A10.4 10.4 0 0114.9 4a6.4 6.4 0 01.8 1.9 7.5 7.5 0 010 4.2 6.4 6.4 0 01-.8 1.9 10.4 10.4 0 01-1.2 1.7 10.4 10.4 0 01-1.7 1.2 6.4 6.4 0 01-1.9.8 7.5 7.5 0 01-4.2 0 6.4 6.4 0 01-1.9-.8 10.4 10.4 0 01-1.7-1.2A10.4 10.4 0 011.1 12a6.4 6.4 0 01-.8-1.9 7.5 7.5 0 010-4.2A6.4 6.4 0 011.1 4a10.4 10.4 0 011.2-1.7A10.4 10.4 0 014 1.1 6.4 6.4 0 015.9.3 7.6 7.6 0 018 0zm0 15a6.1 6.1 0 002.4-.4 9.8 9.8 0 002.2-1.3L2.7 3.4a9.8 9.8 0 00-1.3 2.2A6.1 6.1 0 001 8a6.3 6.3 0 00.3 1.9 4.6 4.6 0 00.7 1.6 3.8 3.8 0 001.1 1.4A3.8 3.8 0 004.5 14l1.6.8zm5.3-2.4a9.8 9.8 0 001.3-2.2A6.1 6.1 0 0015 8a12.3 12.3 0 00-.2-1.9 8 8 0 00-.8-1.6 3.8 3.8 0 00-1.1-1.4A3.8 3.8 0 0011.5 2a4.6 4.6 0 00-1.6-.7A6.3 6.3 0 008 1a6.1 6.1 0 00-2.4.4 9.8 9.8 0 00-2.2 1.3z"/></svg>