<svg xmlns="http://www.w3.org/2000/svg" viewBox="0 0 15 15"><title>Asset 1</title><path d="M7.5,0a6.4,6.4,0,0,1,2,.3,6.7,6.7,0,0,1,1.8.7,5.7,5.7,0,0,1,1.5,1.2A5.7,5.7,0,0,1,14,3.7a6.7,6.7,0,0,1,.7,1.8,6.4,6.4,0,0,1,.3,2,6.4,6.4,0,0,1-.3,2,6.7,6.7,0,0,1-.7,1.8,5.7,5.7,0,0,1-1.2,1.5A5.7,5.7,0,0,1,11.3,14a6.7,6.7,0,0,1-1.8.7,6.4,6.4,0,0,1-2,.3,6.4,6.4,0,0,1-2-.3A6.7,6.7,0,0,1,3.7,14a5.7,5.7,0,0,1-1.5-1.2A5.7,5.7,0,0,1,1,11.3,6.7,6.7,0,0,1,.3,9.5a6.4,6.4,0,0,1-.3-2,6.4,6.4,0,0,1,.3-2A6.7,6.7,0,0,1,1,3.7,5.7,5.7,0,0,1,2.2,2.2,5.7,5.7,0,0,1,3.7,1,6.7,6.7,0,0,1,5.5.3,6.4,6.4,0,0,1,7.5,0Zm0,14,1.7-.2,1.6-.7,1.3-1a6.4,6.4,0,0,0,1-1.3,7.7,7.7,0,0,0,.7-1.6A8.8,8.8,0,0,0,14,7.5a8.8,8.8,0,0,0-.2-1.7,7.7,7.7,0,0,0-.7-1.6,6.4,6.4,0,0,0-1-1.3l-1.3-1L9.2,1.2,7.5,1l-1.7.2-1.6.7-1.3,1a6.4,6.4,0,0,0-1,1.3,7.7,7.7,0,0,0-.7,1.6A8.8,8.8,0,0,0,1,7.5a8.8,8.8,0,0,0,.2,1.7,7.7,7.7,0,0,0,.7,1.6,6.4,6.4,0,0,0,1,1.3l1.3,1,1.6.7ZM8,7h4V8H8v4H7V8H3V7H7V3H8Z"/></svg>