<svg xmlns="http://www.w3.org/2000/svg" viewBox="0 0 16 15"><path d="M16 13H7a2 2 0 01-.4.8 1.5 1.5 0 01-.5.6l-.7.5H3.6l-.7-.5a1.5 1.5 0 01-.5-.6A2 2 0 012 13H0v-1h2a2 2 0 01.4-.8 1.5 1.5 0 01.5-.6l.7-.5h1.8l.7.5a1.5 1.5 0 01.5.6 2 2 0 01.4.8h9zM4.5 14h.6l.5-.3.3-.5a1.3 1.3 0 00.1-.6 1.3 1.3 0 00-.1-.6l-.3-.5-.5-.3H3.9l-.5.3-.3.5a1.3 1.3 0 00-.1.6 1.3 1.3 0 00.1.6l.3.5.5.3zM16 3H7a2 2 0 01-.4.8 1.5 1.5 0 01-.5.6l-.7.5H3.6l-.7-.5a1.5 1.5 0 01-.5-.6A2 2 0 012 3H0V2h2a2 2 0 01.4-.8 1.5 1.5 0 01.5-.6l.7-.5h1.8l.7.5a1.5 1.5 0 01.5.6A2 2 0 017 2h9zM4.5 4h.6l.5-.3.3-.5a1.3 1.3 0 00.1-.7 1.3 1.3 0 00-.1-.6l-.3-.5-.5-.3H3.9l-.5.3-.3.5a1.3 1.3 0 00-.1.6 1.3 1.3 0 00.1.6l.3.5.5.3zM0 7h9a2 2 0 01.4-.8 1.5 1.5 0 01.5-.6l.7-.5h1.8l.7.5a1.5 1.5 0 01.5.6 2 2 0 01.4.8h2v1h-2a2 2 0 01-.4.8 1.5 1.5 0 01-.5.6l-.7.5h-1.8l-.7-.5a1.5 1.5 0 01-.5-.6A2 2 0 019 8H0zm12.1 1.9l.5-.3.3-.5a1.3 1.3 0 00.1-.6 1.3 1.3 0 00-.1-.6l-.3-.5-.5-.3h-1.2l-.5.3-.3.5a1.3 1.3 0 00-.1.6 1.3 1.3 0 00.1.6l.3.5.5.3h1.2z"/></svg>