<svg xmlns="http://www.w3.org/2000/svg" viewBox="0 0 16 16"><title>Asset 106</title><path d="M8,0a7.6,7.6,0,0,1,2.1.3,6.4,6.4,0,0,1,1.9.8,10.4,10.4,0,0,1,1.7,1.2A10.4,10.4,0,0,1,14.9,4a6.4,6.4,0,0,1,.8,1.9,7.5,7.5,0,0,1,0,4.2,6.4,6.4,0,0,1-.8,1.9,10.4,10.4,0,0,1-1.2,1.7A10.4,10.4,0,0,1,12,14.9a6.4,6.4,0,0,1-1.9.8,7.5,7.5,0,0,1-4.2,0A6.4,6.4,0,0,1,4,14.9a10.4,10.4,0,0,1-1.7-1.2A10.4,10.4,0,0,1,1.1,12a6.4,6.4,0,0,1-.8-1.9,7.5,7.5,0,0,1,0-4.2A6.4,6.4,0,0,1,1.1,4,10.4,10.4,0,0,1,2.3,2.3,10.4,10.4,0,0,1,4,1.1,6.4,6.4,0,0,1,5.9.3,7.6,7.6,0,0,1,8,0ZM8,15l1.9-.2,1.6-.8a4.9,4.9,0,0,0,1.4-1.1A4.9,4.9,0,0,0,14,11.5a8,8,0,0,0,.8-1.6A12.3,12.3,0,0,0,15,8a12.3,12.3,0,0,0-.2-1.9A8,8,0,0,0,14,4.5a4.9,4.9,0,0,0-1.1-1.4A4.9,4.9,0,0,0,11.5,2a4.6,4.6,0,0,0-1.6-.7,6.2,6.2,0,0,0-3.8,0A4.6,4.6,0,0,0,4.5,2,4.9,4.9,0,0,0,3.1,3.1,4.9,4.9,0,0,0,2,4.5a4.6,4.6,0,0,0-.7,1.6,6.2,6.2,0,0,0,0,3.8A4.6,4.6,0,0,0,2,11.5a4.9,4.9,0,0,0,1.1,1.4A4.9,4.9,0,0,0,4.5,14l1.6.8Zm0-3,1.1-.2,1-.4a2.7,2.7,0,0,0,.8-.7l.7-.9.9.4-.8,1.2-1.1.9-1.2.5L8,13l-1.4-.2-1.2-.5-1.1-.9-.8-1.2.9-.4.7.9a2.7,2.7,0,0,0,.8.7l1,.4ZM5,7H4.6l-.3-.2-.2-.3A.6.6,0,0,1,4,6a.6.6,0,0,1,.1-.4l.2-.3.3-.2h.8l.3.2.2.3A.6.6,0,0,1,6,6a.6.6,0,0,1-.1.4l-.2.3-.3.2Zm6,0h-.4l-.3-.2-.2-.3A.6.6,0,0,1,10,6a.6.6,0,0,1,.1-.4l.2-.3.3-.2h.8l.3.2.2.3A.6.6,0,0,1,12,6a.6.6,0,0,1-.1.4l-.2.3-.3.2Z"/></svg>