<svg xmlns="http://www.w3.org/2000/svg" viewBox="0 0 15.5 15.5"><title>Asset 93</title><path d="M15.5,5.4l-.5.5-.5.3-.5.3H12.8l-1.1,1H10.3l2.2-2.1h.8a1.2,1.2,0,0,0,.8-.2L10.2,1.5a1.9,1.9,0,0,0-.2.8.4.4,0,0,0,.1.3V3h.1L6.3,6.9H4l-.8.4L7,10.8v1.5L5.5,10.8,1.1,15.2,0,15.5l.4-1L4.8,10l-3-3,.3-.3a3.8,3.8,0,0,1,1.3-.9l1.5-.2h.6l.6.2,3-3A.9.9,0,0,1,9,2.3a1.5,1.5,0,0,1,.1-.7A1.4,1.4,0,0,1,9.3,1L9.7.5l.5-.5Zm-4,3.1a3.5,3.5,0,0,1,1.4.3l1.1.8a4.1,4.1,0,0,1,.7,1.1A3.1,3.1,0,0,1,15,12a3.2,3.2,0,0,1-.3,1.4,4.1,4.1,0,0,1-.7,1.1l-1.1.8a3.4,3.4,0,0,1-1.4.2,3.4,3.4,0,0,1-1.4-.2L9,14.5a4.1,4.1,0,0,1-.7-1.1A3.2,3.2,0,0,1,8,12a3.1,3.1,0,0,1,.3-1.3A4.1,4.1,0,0,1,9,9.6l1.1-.8A3.5,3.5,0,0,1,11.5,8.5ZM9,12a3,3,0,0,0,.2,1,2.2,2.2,0,0,0,.5.8l.8.6h1.7a.9.9,0,0,0,.7-.3L9.4,10.7l-.3.6A2,2,0,0,0,9,12Zm4.6,1.4.3-.6A2.2,2.2,0,0,0,14,12a2.9,2.9,0,0,0-.2-.9,2.2,2.2,0,0,0-.5-.8l-.8-.6-1-.2-.7.2a.9.9,0,0,0-.7.3Z"/></svg>