<svg xmlns="http://www.w3.org/2000/svg" viewBox="0 0 16 16"><path d="M13.4 1a1.6 1.6 0 011.2.4c1.2 1.2-.3 5.4-4.1 9.1S4.4 15 2.6 15a1.6 1.6 0 01-1.2-.4c-1.2-1.2.3-5.4 4.1-9.1S11.6 1 13.4 1m0-1c-2.3 0-5.7 1.8-8.6 4.8S-1.1 13.5.7 15.3a2.5 2.5 0 001.9.7c2.3 0 5.7-1.8 8.6-4.8S17.1 2.5 15.3.7a2.5 2.5 0 00-1.9-.7z"/><path d="M2.6 1c1.8 0 4.9 1.4 7.9 4.5s5.3 7.9 4.1 9.1a1.6 1.6 0 01-1.2.4c-1.8 0-4.9-1.4-7.9-4.5S.2 2.6 1.4 1.4A1.6 1.6 0 012.6 1m0-1A2.5 2.5 0 00.7.7c-1.8 1.8 0 6.5 4.1 10.5s6.3 4.8 8.6 4.8a2.5 2.5 0 001.9-.7c1.8-1.8 0-6.5-4.1-10.5S4.9 0 2.6 0z"/><circle cx="8" cy="8" r="1.7"/></svg>