<svg xmlns="http://www.w3.org/2000/svg" viewBox="0 0 16 16"><title>Asset 98</title><path d="M10.5,0,12,.2a3.8,3.8,0,0,1,1.3.6l1.1.8.9,1.1A6.9,6.9,0,0,1,15.8,4,7.7,7.7,0,0,1,16,5.5,7.7,7.7,0,0,1,15.8,7a6.9,6.9,0,0,1-.5,1.3l-.9,1.1-1.1.9-1.3.5-1.5.2a5.8,5.8,0,0,1-1.9-.3A5.4,5.4,0,0,1,7,9.7L.9,15.9H.1a.8.8,0,0,1,0-.8L6.3,9a5.4,5.4,0,0,1-1-1.6A5.8,5.8,0,0,1,5,5.5,7.7,7.7,0,0,1,5.2,4a3.8,3.8,0,0,1,.6-1.3,4.4,4.4,0,0,1,.8-1.1L7.7.8A3.8,3.8,0,0,1,9,.2Zm0,10a3.9,3.9,0,0,0,1.8-.4,4.2,4.2,0,0,0,1.4-.9,4.2,4.2,0,0,0,.9-1.4A3.9,3.9,0,0,0,15,5.5a3.3,3.3,0,0,0-.4-1.7,3.8,3.8,0,0,0-.9-1.5,4.2,4.2,0,0,0-1.4-.9A3.9,3.9,0,0,0,10.5,1a3.3,3.3,0,0,0-1.7.4,3.8,3.8,0,0,0-1.5.9,3.8,3.8,0,0,0-.9,1.5A3.3,3.3,0,0,0,6,5.5a3.9,3.9,0,0,0,.4,1.8,4.2,4.2,0,0,0,.9,1.4,3.8,3.8,0,0,0,1.5.9A3.3,3.3,0,0,0,10.5,10Z"/></svg>