<svg xmlns="http://www.w3.org/2000/svg" viewBox="0 0 15.55 15.55"><title>Asset 102</title><g id="Layer_2"><g id="grid"><path d="M15.55,5.39c-.17.17-.34.33-.51.47a2.8,2.8,0,0,1-.5.37,2.7,2.7,0,0,1-.58.23,2.84,2.84,0,0,1-.69.08,2.76,2.76,0,0,1-.51,0l-3,3a6,6,0,0,1,.15.61,4.44,4.44,0,0,1,0,.63,3.76,3.76,0,0,1-.1.92,3.3,3.3,0,0,1-.29.78,3.57,3.57,0,0,1-.47.7,9.1,9.1,0,0,1-.61.68l-3-3L1.06,15.2,0,15.55l.35-1.07L4.8,10.05l-3-3,.35-.35a4.09,4.09,0,0,1,1.26-.84,3.9,3.9,0,0,1,1.48-.29,3.85,3.85,0,0,1,1.22.2l3-3a2.78,2.78,0,0,1,0-.51,3,3,0,0,1,.08-.69A2.06,2.06,0,0,1,9.32,1,3.46,3.46,0,0,1,9.68.5c.15-.16.3-.33.48-.5Zm-2.28.15a1.8,1.8,0,0,0,.81-.2L10.21,1.47a1.76,1.76,0,0,0-.2.81,1.36,1.36,0,0,0,.05.41c0,.13.07.26.11.4L6.33,6.92,6,6.77l-.34-.11a2.33,2.33,0,0,0-.36-.08,2.38,2.38,0,0,0-.39,0A3.16,3.16,0,0,0,4,6.68a3.25,3.25,0,0,0-.77.38l5.25,5.26a2.85,2.85,0,0,0,.39-.78A2.74,2.74,0,0,0,9,10.69a2.6,2.6,0,0,0,0-.4,2.33,2.33,0,0,0-.08-.36,2.3,2.3,0,0,0-.12-.34,3.59,3.59,0,0,0-.15-.37l3.84-3.84.4.11A1.7,1.7,0,0,0,13.27,5.54Z"/></g></g></svg>