<svg id="Layer_1" xmlns="http://www.w3.org/2000/svg" viewBox="0 0 16 16"><title>more-02</title><path d="M2,7a1,1,0,0,1,.39.08.94.94,0,0,1,.53.53,1,1,0,0,1,0,.78.94.94,0,0,1-.53.53,1,1,0,0,1-.78,0,.94.94,0,0,1-.53-.53,1,1,0,0,1,0-.78.94.94,0,0,1,.53-.53A1,1,0,0,1,2,7ZM8,7a1,1,0,0,1,.39.08.94.94,0,0,1,.53.53,1,1,0,0,1,0,.78.94.94,0,0,1-.53.53,1,1,0,0,1-.78,0,.94.94,0,0,1-.53-.53,1,1,0,0,1,0-.78.94.94,0,0,1,.53-.53A1,1,0,0,1,8,7Zm6,0a1,1,0,0,1,.39.08.94.94,0,0,1,.53.53,1,1,0,0,1,0,.78.94.94,0,0,1-.53.53,1,1,0,0,1-.78,0,.94.94,0,0,1-.53-.53,1,1,0,0,1,0-.78.94.94,0,0,1,.53-.53A1,1,0,0,1,14,7Z"/></svg>