<svg id="e88e7012-6ae0-43b5-9280-053e991d49c6"  xmlns="http://www.w3.org/2000/svg"  width="18" height="18" viewBox="0 0 18 18"><defs><linearGradient id="b9c03c70-29a5-4e17-9674-29577b4b9674" x1="8.51" y1="0.58" x2="8.51" y2="17.27" gradientUnits="userSpaceOnUse"><stop offset="0.09" stop-color="#6cc6b9"/><stop offset="0.46" stop-color="#6ac4b7"/><stop offset="0.64" stop-color="#62bdb0"/><stop offset="0.77" stop-color="#56b1a4"/><stop offset="0.88" stop-color="#439f93"/><stop offset="0.98" stop-color="#2c897d"/><stop offset="1" stop-color="#258277"/></linearGradient></defs><title>Icon-general-15</title><path d="M.06,2.49H17a.52.52,0,0,1,.54.49V14.75a.52.52,0,0,1-.54.49H.06a.53.53,0,0,1-.55-.49V3A.53.53,0,0,1,.06,2.49Z" fill="url(#b9c03c70-29a5-4e17-9674-29577b4b9674)"/><path id="bd0aa3dd-0b00-4321-a08d-35d4016600a8" d="M7,4h8.09a.16.16,0,0,1,.16.15V8.62a.16.16,0,0,1-.16.15H7a.16.16,0,0,1-.16-.15V4.14A.16.16,0,0,1,7,4Z" fill="#fff"/><rect id="bda038fc-05f8-4c73-8191-dcc998cc8c65" x="1.75" y="3.99" width="3.41" height="9.61" rx="0.15" fill="#fff"/><path id="f698805f-4654-42cb-b2bf-38f0a925cdbf" d="M11.92,10.12h3.14a.15.15,0,0,1,.15.15v3.19a.15.15,0,0,1-.15.14H11.92a.15.15,0,0,1-.15-.14V10.27A.15.15,0,0,1,11.92,10.12Z" fill="#fff"/><path id="f83fd769-9efd-4d02-bd0d-a012d7e875a2" d="M6.95,10.12H10a.15.15,0,0,1,.15.15v3.19a.14.14,0,0,1-.14.14H7a.15.15,0,0,1-.15-.15V10.27A.14.14,0,0,1,6.95,10.12Z" fill="#fff"/></svg>