<svg id="eb1a4934-a6f3-4d14-9c9e-7742dc2d8aeb" xmlns="http://www.w3.org/2000/svg" width="17.38" height="11.575" viewBox="0 0 17.38 11.575">
  <defs>
    <linearGradient id="a8afc1e7-9940-40db-9a03-4408662d7f77" x1="-1.672" y1="9.26" x2="4.676" y2="9.197" gradientUnits="userSpaceOnUse">
      <stop offset="0" stop-color="#5e9624"/>
      <stop offset="1" stop-color="#76bc2d"/>
    </linearGradient>
  </defs>
  <title>Icon-general-20-AllServices</title>
  <path d="M4.46,4.04H16.97a.728.728,0,0,1,.73.725h0a.728.728,0,0,1-.73.725H4.46a.728.728,0,0,1-.73-.725h0A.728.728,0,0,1,4.46,4.04Z" transform="translate(-0.32 -3.44)" fill="#8a8a8a"/>
  <path d="M4.46,8.42H16.97a.728.728,0,0,1,.73.725h0a.728.728,0,0,1-.73.725H4.46a.728.728,0,0,1-.73-.725h0A.728.728,0,0,1,4.46,8.42Z" transform="translate(-0.32 -3.44)" fill="#8a8a8a"/>
  <path d="M4.46,12.97H16.97a.728.728,0,0,1,.73.725h0a.728.728,0,0,1-.73.725H4.46a.728.728,0,0,1-.73-.725h0A.728.728,0,0,1,4.46,12.97Z" transform="translate(-0.32 -3.44)" fill="#8a8a8a"/>
  <path d="M1.64,3.44h0A1.32,1.32,0,0,1,2.96,4.76h0A1.32,1.32,0,0,1,1.64,6.08h0A1.32,1.32,0,0,1,.32,4.76h0A1.32,1.32,0,0,1,1.64,3.44Zm0,4.39h0A1.32,1.32,0,0,1,2.96,9.15h0a1.32,1.32,0,0,1-1.32,1.32h0A1.32,1.32,0,0,1,.32,9.15h0A1.32,1.32,0,0,1,1.64,7.83Zm0,4.54h0a1.32,1.32,0,0,1,1.32,1.32h0a1.32,1.32,0,0,1-1.32,1.32h0A1.32,1.32,0,0,1,.32,13.69h0A1.32,1.32,0,0,1,1.64,12.37Zm0,.005h0A1.32,1.32,0,0,1,2.96,13.7h0a1.32,1.32,0,0,1-1.32,1.32h0A1.32,1.32,0,0,1,.32,13.7h0A1.32,1.32,0,0,1,1.64,12.375Z" transform="translate(-0.32 -3.44)" fill="url(#a8afc1e7-9940-40db-9a03-4408662d7f77)"/>
</svg>
