<svg xmlns="http://www.w3.org/2000/svg" viewBox="0 0 18 18"><defs><linearGradient id="a" x1="9" y1="17.4" x2="9" y2=".4" gradientUnits="userSpaceOnUse"><stop offset="0" stop-color="#0078d4"/><stop offset=".82" stop-color="#5ea0ef"/></linearGradient></defs><path d="M14 4.8A4.61 4.61 0 009.22.4 4.73 4.73 0 004.7 3.48 4.36 4.36 0 00.87 7.67a4.43 4.43 0 004.58 4.25H8.38v2.63a.13.13 0 01-.13.13H6.78a.13.13 0 00-.09.22l2.47 2.47a.19.19 0 00.26 0l2.47-2.47a.13.13 0 00-.09-.22h-1.48a.12.12 0 01-.12-.13V11.9h3.06a.64.64 0 00.2 0 3.69 3.69 0 003.67-3.56A3.65 3.65 0 0014 4.8z" fill="url(#a)"/><path d="M4.87 8.18l2.47-2.46a.17.17 0 01.26 0l2.47 2.46a.13.13 0 01-.07.22H8.51a.13.13 0 00-.13.13v3.37H6.57V8.53a.13.13 0 00-.13-.13H5a.13.13 0 01-.13-.22z" fill="#fff"/></svg>