<svg id="bc97ffad-dee6-4b60-8654-ab2f12a2850d" xmlns="http://www.w3.org/2000/svg" width="18" height="18" viewBox="0 0 18 18">
  <defs>
    <linearGradient id="b5068be5-88cc-4507-8d6b-1e637c3b98df" x1="5.05" y1="9.45" x2="5.05" y2="6.52" gradientTransform="matrix(1, 0, 0, -1, 0, 19.99)" gradientUnits="userSpaceOnUse">
      <stop offset="0" stop-color="#76bc2d"/>
      <stop offset="1" stop-color="#5e9624"/>
    </linearGradient>
    <linearGradient id="e4ea6ef0-0b2a-43b6-a159-7afc1fc1b4d7" x1="12.85" y1="9.43" x2="12.85" y2="6.5" gradientTransform="matrix(1, 0, 0, -1, 0, 19.97)" gradientUnits="userSpaceOnUse">
          <stop offset="0" stop-color="#76bc2d"/>
      <stop offset="1" stop-color="#5e9624"/>
      </linearGradient>
  </defs>
  <title>Artboard 1</title>
  <path id="a56afd94-d721-4550-ae1d-704f89515c63" d="M3.19,15.6a2.492,2.492,0,0,1-1.53-.38,1.7,1.7,0,0,1-.45-1.36V10.33c0-.58-.23-.89-.71-.89V8.56c.48,0,.71-.31.71-.92V4.17a1.788,1.788,0,0,1,.45-1.39A2.291,2.291,0,0,1,3.19,2.4v.89c-.51,0-.79.27-.79.85v3.4c0,.78-.23,1.26-.74,1.46a1.419,1.419,0,0,1,.74,1.46v3.37a1.257,1.257,0,0,0,.17.68.743.743,0,0,0,.58.2v.89Z" fill="#949494"/>
  <path id="ed788fb2-47f3-4cba-a596-e4bb521daaea" d="M14.81,2.4a2.492,2.492,0,0,1,1.53.38,1.7,1.7,0,0,1,.45,1.36V7.67c0,.58.23.89.71.89v.88c-.48,0-.71.31-.71.92v3.43a1.8,1.8,0,0,1-.45,1.4,2.278,2.278,0,0,1-1.53.41v-.89c.51,0,.79-.27.79-.85v-3.4c0-.78.23-1.26.74-1.46a1.419,1.419,0,0,1-.74-1.46V4.17a1.257,1.257,0,0,0-.17-.68.743.743,0,0,0-.58-.2Z" fill="#949494"/>
  <path id="bc226d16-6871-4fff-8a9f-d5162bf24f24" d="M9.41,8.35V7.08h-.9V8.35a.181.181,0,0,1-.18.18H5a.36.36,0,0,0-.36.36v1.65h.9V9.63a.18.18,0,0,1,.17-.18h6.54a.181.181,0,0,1,.18.18h0v.93h.89V8.89a.36.36,0,0,0-.35-.36H9.59a.181.181,0,0,1-.18-.18Z" fill="#005ba1"/>
  <rect id="a5de6e7c-d282-45e2-81e9-a224ff2cf92a" x="3.58" y="10.54" width="2.94" height="2.94" rx="0.27" fill="url(#b5068be5-88cc-4507-8d6b-1e637c3b98df)"/>
  <rect id="ba3b4708-62b1-4b9f-8a90-312f5f02c9a9" x="11.38" y="10.54" width="2.94" height="2.94" rx="0.27" fill="url(#e4ea6ef0-0b2a-43b6-a159-7afc1fc1b4d7)"/>
  <path id="e3d305a1-d336-49be-abbf-69378e6b65fd" d="M10.326,3.81H7.666a.3.3,0,0,0-.3.3v2.68a.294.294,0,0,0,.293.295h2.668a.3.3,0,0,0,.309-.279v-2.7a.3.3,0,0,0-.309-.3Zm-.253,2.528a.2.2,0,0,1-.2.191H8.109a.2.2,0,0,1-.2-.191V4.56a.2.2,0,0,1,.2-.2H9.843a.2.2,0,0,1,.2.2h0Z" fill="#0078d4"/>
  <path d="M10.073,6.338a.2.2,0,0,1-.2.191H8.109a.2.2,0,0,1-.2-.191V4.56a.2.2,0,0,1,.2-.2H9.843a.2.2,0,0,1,.2.2h0Z" fill="#fff"/>
</svg>
