<svg xmlns="http://www.w3.org/2000/svg"  width="18" height="18" viewBox="0 0 18 18">
  <defs>
    <linearGradient id="f3c5571b-6c5d-4ae5-a065-2abae5a20b33" x1="12.11" y1="14.5" x2="12.3" y2="3.41" gradientUnits="userSpaceOnUse">
      <stop offset="0" stop-color="#198ab3"/>
      <stop offset="0" stop-color="#198ab3"/>
      <stop offset="0.11" stop-color="#22a5cb"/>
      <stop offset="0.23" stop-color="#29bade"/>
      <stop offset="0.37" stop-color="#2ec9eb"/>
      <stop offset="0.53" stop-color="#31d1f3"/>
      <stop offset="0.78" stop-color="#32d4f5"/>
    </linearGradient>
  </defs>
  <title>Icon-iot-183</title>
  <g>
    <g id="e4f568b0-c196-4105-9a73-9d7776531ae2">
      <polygon points="13.96 8.26 7.12 8.26 9.05 6.32 12.28 6.32 12.28 5.57 8.74 5.57 6.06 8.26 3.16 8.26 3.16 9.01 3.68 9.01 6.37 11.72 10.38 11.72 10.38 10.97 6.68 10.97 4.73 9.01 13.96 9.01 13.96 8.26" fill="#949494"/>
      <path d="M11.09,4.66A1.29,1.29,0,1,1,9.8,5.94,1.28,1.28,0,0,1,11.09,4.66Zm1.17,4a1.29,1.29,0,1,0,1.29-1.28A1.29,1.29,0,0,0,12.26,8.64ZM9.54,11.33a1.29,1.29,0,1,0,1.29-1.28A1.28,1.28,0,0,0,9.54,11.33Z" fill="url(#f3c5571b-6c5d-4ae5-a065-2abae5a20b33)"/>
      <g>
        <path d="M1.07,1.43H2.36a0,0,0,0,1,0,0V5a.29.29,0,0,1-.29.29H.79A.29.29,0,0,1,.5,5V2A.57.57,0,0,1,1.07,1.43Z" fill="#999"/>
        <path d="M1.07,1.43H2.36a0,0,0,0,1,0,0V5a.29.29,0,0,1-.29.29H.79A.29.29,0,0,1,.5,5V2A.57.57,0,0,1,1.07,1.43Z" fill="#999" opacity="0.5"/>
      </g>
      <g>
        <path d="M15.64,1.43h1.29A.57.57,0,0,1,17.5,2V5a.29.29,0,0,1-.29.29H15.92A.29.29,0,0,1,15.64,5V1.43A0,0,0,0,1,15.64,1.43Z" fill="#999"/>
        <path d="M15.64,1.43h1.29A.57.57,0,0,1,17.5,2V5a.29.29,0,0,1-.29.29H15.92A.29.29,0,0,1,15.64,5V1.43A0,0,0,0,1,15.64,1.43Z" fill="#999" opacity="0.5"/>
      </g>
      <path d="M8.66-6.16H9.91a0,0,0,0,1,0,0v17a0,0,0,0,1,0,0H8.66a.57.57,0,0,1-.57-.57V-5.6A.57.57,0,0,1,8.66-6.16Z" transform="translate(11.34 -6.66) rotate(90)" fill="#949494"/>
      <g>
        <path d="M.79,12.68H2.08a.29.29,0,0,1,.29.29v3.6a0,0,0,0,1,0,0H1.07A.57.57,0,0,1,.5,16V13A.29.29,0,0,1,.79,12.68Z" fill="#999"/>
        <path d="M.79,12.68H2.08a.29.29,0,0,1,.29.29v3.6a0,0,0,0,1,0,0H1.07A.57.57,0,0,1,.5,16V13A.29.29,0,0,1,.79,12.68Z" fill="#999" opacity="0.5"/>
      </g>
      <g>
        <path d="M15.92,12.68h1.29a.29.29,0,0,1,.29.29v3a.57.57,0,0,1-.57.57H15.64a0,0,0,0,1,0,0V13A.29.29,0,0,1,15.92,12.68Z" fill="#999"/>
        <path d="M15.92,12.68h1.29a.29.29,0,0,1,.29.29v3a.57.57,0,0,1-.57.57H15.64a0,0,0,0,1,0,0V13A.29.29,0,0,1,15.92,12.68Z" fill="#999" opacity="0.5"/>
      </g>
      <path d="M8.66,7.16H9.91a0,0,0,0,1,0,0v17a0,0,0,0,1,0,0H8.66a.57.57,0,0,1-.57-.57V7.73A.57.57,0,0,1,8.66,7.16Z" transform="translate(-6.66 24.66) rotate(-90)" fill="#949494"/>
    </g>
  </g>
</svg>
