<svg id="bab54f3f-5820-4f7d-bbb6-bdb09f38617d" xmlns="http://www.w3.org/2000/svg"  width="18" height="18" viewBox="0 0 18 18"><defs><linearGradient id="a44ec2dd-6dd3-4c61-a369-820f3ca390fb" x1="6.21" y1="7.1" x2="6.32" y2="17.48" gradientUnits="userSpaceOnUse"><stop offset="0" stop-color="#32d4f5"/><stop offset="0.32" stop-color="#31d1f3"/><stop offset="0.53" stop-color="#2ec9eb"/><stop offset="0.7" stop-color="#29bade"/><stop offset="0.86" stop-color="#22a5cb"/><stop offset="1" stop-color="#198ab3"/><stop offset="1" stop-color="#198ab3"/></linearGradient></defs><title>Icon-iot-193</title><path d="M6.46.6H17.62A.37.37,0,0,1,18,.94V9.53a.36.36,0,0,1-.38.34H6.46a.36.36,0,0,1-.38-.34V.94A.37.37,0,0,1,6.46.6Z" fill="#e6e6e6"/><path d="M6.44.6h11.2A.35.35,0,0,1,18,.92h0v1.3H6.08V.92A.35.35,0,0,1,6.44.6Z" fill="#5ea0ef"/><rect x="6.08" y="2.22" width="3.98" height="3.83" fill="#83b9f9"/><rect x="10.04" y="2.22" width="3.98" height="3.83" fill="#0078d4"/><rect x="14.02" y="2.22" width="3.98" height="3.83" fill="#83b9f9"/><path d="M14.59,6H18a0,0,0,0,1,0,0V9.87a0,0,0,0,1,0,0H14a0,0,0,0,1,0,0V6.61A.57.57,0,0,1,14.59,6Z" transform="translate(32.02 15.91) rotate(-180)" fill="#0078d4"/><rect x="10.06" y="6.04" width="3.98" height="3.83" transform="translate(24.11 15.91) rotate(-180)" fill="#83b9f9"/><rect x="6.08" y="6.04" width="3.98" height="3.83" transform="translate(16.15 15.91) rotate(-180)" fill="#0078d4"/><path d="M11.23,17.4H1.39c-.31,0-.5-.5-.32-.76l3.39-5a.34.34,0,0,0,.07-.22V8.2A.2.2,0,0,0,4.34,8H4.15a.39.39,0,0,1-.39-.39V7.44a.39.39,0,0,1,.39-.38H8.47a.38.38,0,0,1,.39.38v.18A.38.38,0,0,1,8.47,8H8.29a.2.2,0,0,0-.2.19v3.28a.41.41,0,0,0,.07.22l3.4,4.94C11.73,16.9,11.55,17.4,11.23,17.4Z" fill="url(#a44ec2dd-6dd3-4c61-a369-820f3ca390fb)"/><path d="M2.69,16l2.46-3.59a.86.86,0,0,0,.16-.51V10.4a.29.29,0,0,1,.29-.29H7a.28.28,0,0,1,.28.29V12a.6.6,0,0,0,.11.34L9.91,16a.21.21,0,0,1-.18.34H2.86A.21.21,0,0,1,2.69,16Z" fill="#fff"/></svg>