<svg id="ac37fbc4-e771-460e-af15-b5f96bcfed33" xmlns="http://www.w3.org/2000/svg" width="18" height="18" viewBox="0 0 18 18">
  <defs>
    <radialGradient id="b7f6dd19-2ce6-47fa-ad52-a852bd006279" cx="-80.08" cy="-34.121" r="5.954" gradientTransform="translate(91.928 43.431) scale(1.036 1.027)" gradientUnits="userSpaceOnUse">
      <stop offset="0.183" stop-color="#5ea0ef"/>
      <stop offset="1" stop-color="#0078d4"/>
    </radialGradient>
    <clipPath id="b5ec6f8f-6575-44c6-bf5c-ee6b7ff7c178">
      <path d="M14.969,6.971A6.137,6.137,0,1,1,7.574,2.427,6.136,6.136,0,0,1,14.969,6.971Z" fill="none"/>
    </clipPath>
  </defs>
  <title>Icon-iot-191</title>
  <path d="M2.954,4.707a.176.176,0,0,1-.176-.176h0A2.011,2.011,0,0,0,.769,2.522a.177.177,0,0,1-.176-.176h0a.178.178,0,0,1,.176-.177A2.011,2.011,0,0,0,2.778.161a.176.176,0,0,1,.176-.177h0A.176.176,0,0,1,3.13.161h0A2.011,2.011,0,0,0,5.139,2.169a.176.176,0,0,1,.176.177h0a.176.176,0,0,1-.176.176h0A2.011,2.011,0,0,0,3.13,4.531.178.178,0,0,1,2.954,4.707Z" fill="#50e6ff"/>
  <path d="M15.611,16.9a.141.141,0,0,1-.141-.141h0a1.609,1.609,0,0,0-1.607-1.607.141.141,0,0,1-.141-.14h0a.141.141,0,0,1,.141-.141h0A1.609,1.609,0,0,0,15.47,13.26a.141.141,0,0,1,.141-.141h0a.141.141,0,0,1,.141.141h0a1.609,1.609,0,0,0,1.607,1.607.141.141,0,0,1,0,.282h0a1.609,1.609,0,0,0-1.607,1.607A.141.141,0,0,1,15.611,16.9Z" fill="#50e6ff"/>
  <g>
    <path d="M14.969,6.971A6.137,6.137,0,1,1,7.574,2.427,6.136,6.136,0,0,1,14.969,6.971Z" fill="url(#b7f6dd19-2ce6-47fa-ad52-a852bd006279)"/>
    <g clip-path="url(#b5ec6f8f-6575-44c6-bf5c-ee6b7ff7c178)">
      <path d="M5.709,12.556a1.638,1.638,0,1,0,.005-3.275,1.307,1.307,0,0,0,.007-.139A1.652,1.652,0,0,0,4.06,7.5H2.832a6.254,6.254,0,0,0,1.595,5.052Z" fill="#f2f2f2"/>
      <path d="M15.045,7.255c0-.014,0-.029-.007-.044a5.987,5.987,0,0,0-1.406-2.88,1.724,1.724,0,0,0-.289-.089,1.806,1.806,0,0,0-2.3,1.663,1.736,1.736,0,0,0-.785,3.36,1.452,1.452,0,0,0,.541.1h2.03A13.425,13.425,0,0,0,15.045,7.255Z" fill="#f2f2f2"/>
    </g>
  </g>
  <path d="M17.191,3.273c-.629-1.048-2.1-1.456-4.155-1.149a14.737,14.737,0,0,0-2.082.451,6.494,6.494,0,0,1,1.528.767c.241-.053.483-.116.715-.15A7.5,7.5,0,0,1,14.3,3.1a2.188,2.188,0,0,1,1.959.725h0c.383.638.06,1.73-.886,3a16.707,16.707,0,0,1-4.749,4.051A16.758,16.758,0,0,1,4.8,13.135c-1.564.234-2.682,0-3.065-.635s-.06-1.73.886-2.995c.117-.158.146-.235.279-.392a6.251,6.251,0,0,1,.026-1.63A11.545,11.545,0,0,0,1.756,8.859C.517,10.517.181,12.007.809,13.054a3.167,3.167,0,0,0,2.9,1.248,8.563,8.563,0,0,0,1.251-.1,17.839,17.839,0,0,0,6.219-2.4,17.793,17.793,0,0,0,5.061-4.332C17.483,5.81,17.819,4.32,17.191,3.273Z" fill="#50e6ff"/>
</svg>
