<svg id="a89335dc-15c5-4fbd-b0b7-415a1d78db3c" xmlns="http://www.w3.org/2000/svg"  width="18" height="18" viewBox="0 0 18 18"><defs><linearGradient id="afe4db2a-550c-412d-b54e-a8363092c196" x1="9.83" y1="1.62" x2="9.83" y2="8.97" gradientUnits="userSpaceOnUse"><stop offset="0" stop-color="#fff"/><stop offset="0.56" stop-color="#fbfbfb"/><stop offset="1" stop-color="#f2f2f2"/></linearGradient><linearGradient id="bef7b477-6120-43cc-aca4-e16c677d459b" x1="5.71" y1="7.16" x2="5.82" y2="17.54" gradientUnits="userSpaceOnUse"><stop offset="0" stop-color="#32d4f5"/><stop offset="0.32" stop-color="#31d1f3"/><stop offset="0.53" stop-color="#2ec9eb"/><stop offset="0.7" stop-color="#29bade"/><stop offset="0.86" stop-color="#22a5cb"/><stop offset="1" stop-color="#198ab3"/><stop offset="1" stop-color="#198ab3"/></linearGradient></defs><title>Icon-iot-194</title><path d="M9.83.54C14.45.54,17.27,4,17.5,8.68a1.19,1.19,0,0,1-1.19,1.25h-13A1.18,1.18,0,0,1,2.16,8.68C2.39,4,5.21.54,9.83.54Z" fill="#0078d4"/><path d="M3.34,9.14A.35.35,0,0,1,3.06,9,.34.34,0,0,1,3,8.72c.22-4.49,3.31-7.38,6.88-7.38s6.66,2.89,6.88,7.38A.42.42,0,0,1,16.6,9a.4.4,0,0,1-.29.13Z" fill="url(#afe4db2a-550c-412d-b54e-a8363092c196)"/><path d="M13.55,3.82A5.56,5.56,0,0,0,10.22,2.4V5a3.07,3.07,0,0,1,1.55.66Z" fill="#5ea0ef"/><path d="M6.11,3.82,7.89,5.65A3,3,0,0,1,9.43,5V2.4A5.51,5.51,0,0,0,6.11,3.82Z" fill="#0078d4"/><path d="M12.33,6.22A3.27,3.27,0,0,1,13,7.81h2.52a6,6,0,0,0-1.38-3.42Z" fill="#5ea0ef"/><path d="M7.33,6.22,5.55,4.39A5.89,5.89,0,0,0,4.17,7.81H6.68A3.39,3.39,0,0,1,7.33,6.22Z" fill="#005ba1"/><path d="M14.46,5.65a.4.4,0,0,0-.52-.22L10.23,6.91l.29.74,3.71-1.48A.42.42,0,0,0,14.46,5.65Z" fill="#005ba1"/><circle cx="9.83" cy="7.44" r="1.08" fill="#767676"/><path d="M10.73,17.46H.89c-.31,0-.5-.51-.32-.76L4,11.75A.34.34,0,0,0,4,11.53V8.26a.19.19,0,0,0-.19-.19H3.65a.4.4,0,0,1-.39-.39V7.5a.4.4,0,0,1,.39-.39H8a.39.39,0,0,1,.39.39v.18A.39.39,0,0,1,8,8.07H7.79a.19.19,0,0,0-.2.19v3.28a.44.44,0,0,0,.07.22l3.4,4.94C11.23,17,11.05,17.46,10.73,17.46Z" fill="url(#bef7b477-6120-43cc-aca4-e16c677d459b)"/><path d="M2.19,16l2.46-3.59a.89.89,0,0,0,.16-.52V10.46a.29.29,0,0,1,.29-.29H6.5a.28.28,0,0,1,.28.29V12a.61.61,0,0,0,.11.35L9.41,16a.22.22,0,0,1-.18.34H2.36A.22.22,0,0,1,2.19,16Z" fill="#fff"/></svg>