<svg id="f2d90da4-ac74-474f-824b-4d9ee139d4e6" xmlns="http://www.w3.org/2000/svg"  width="18" height="18" viewBox="0 0 18 18"><defs><linearGradient id="af90c772-6e29-4516-bd14-58b705974e62" x1="9" y1="1.36" x2="9" y2="17.87" gradientUnits="userSpaceOnUse"><stop offset="0" stop-color="#6bb9f2"/><stop offset="1" stop-color="#1b93eb"/></linearGradient></defs><title>Icon-networking-83</title><path d="M16.36,8.4c0,4.84-5.85,8.74-7.12,9.53a.46.46,0,0,1-.48,0c-1.27-.79-7.12-4.69-7.12-9.53V2.58a.46.46,0,0,1,.45-.46C6.64,2,5.59,0,9,0s2.36,2,6.91,2.12a.46.46,0,0,1,.45.46Z" fill="#1b93eb"/><path d="M15.75,8.45c0,4.44-5.36,8-6.53,8.74a.43.43,0,0,1-.44,0c-1.17-.72-6.53-4.3-6.53-8.74V3.11a.42.42,0,0,1,.41-.42C6.83,2.58,5.87.75,9,.75s2.17,1.83,6.34,1.94a.42.42,0,0,1,.41.42Z" fill="url(#af90c772-6e29-4516-bd14-58b705974e62)"/><path d="M11.05,12.94c-1.12-.15-1.11-.88-1.1-2H7.83c0,1.17,0,1.9-1.1,2a.58.58,0,0,0-.53.52h5.39A.59.59,0,0,0,11.05,12.94Z" fill="#1f56a3"/><rect x="4.02" y="4.04" width="9.72" height="6.88" rx="0.33" fill="#1490df"/><rect x="4.58" y="4.57" width="8.59" height="5.71" rx="0.16" fill="#fff"/><polygon points="10.62 6.42 10.63 8.43 8.88 9.44 8.88 7.43 10.62 6.42" fill="#0078d4"/><polygon points="10.62 6.42 8.88 7.43 7.13 6.42 8.87 5.41 10.62 6.42" fill="#83b9f9"/><polygon points="8.88 7.43 8.87 9.44 7.13 8.43 7.13 6.42 8.88 7.43" fill="#5ea0ef"/><polygon points="8.88 7.43 8.88 7.43 8.88 9.44 8.88 9.44 10.62 8.43 8.88 7.43" fill="#5ea0ef" opacity="0.2"/><polygon points="8.87 7.45 8.88 7.46 8.88 9.47 8.87 9.47 7.13 8.46 8.87 7.45" fill="#83b9f9" opacity="0.2"/></svg>