<svg id="ac1d7f84-9a46-4293-921e-7195cf58b1e2" xmlns="http://www.w3.org/2000/svg"  width="18" height="18" viewBox="0 0 18 18"><defs><linearGradient id="f35044f7-1c92-42a7-a9cf-4098eb3f41eb" x1="9" y1="13.07" x2="9" y2="0.31" gradientUnits="userSpaceOnUse"><stop offset="0" stop-color="#0078d4"/><stop offset="0.82" stop-color="#5ea0ef"/></linearGradient><linearGradient id="b427c007-66b0-42b8-81ad-cf005949ee17" x1="9" y1="17.69" x2="9" y2="7.94" gradientUnits="userSpaceOnUse"><stop offset="0" stop-color="#6f4bb2"/><stop offset="0.19" stop-color="#7854b8"/><stop offset="0.51" stop-color="#926bc9"/><stop offset="0.91" stop-color="#bb90e4"/><stop offset="1" stop-color="#c69aeb"/></linearGradient></defs><title>Icon-networking-74</title><path d="M18,9.07a4.05,4.05,0,0,0-3.51-3.89A5.1,5.1,0,0,0,9.24.31a5.23,5.23,0,0,0-5,3.41A4.82,4.82,0,0,0,0,8.36a4.9,4.9,0,0,0,5.07,4.71l.44,0h8.21a.78.78,0,0,0,.22,0A4.09,4.09,0,0,0,18,9.07Z" fill="url(#f35044f7-1c92-42a7-a9cf-4098eb3f41eb)"/><path id="f5bcc86d-e9e9-4a14-9536-944056da2666" d="M9,17.48a4.66,4.66,0,1,1,4.66-4.66A4.66,4.66,0,0,1,9,17.48Z" fill="#fff"/><path d="M9,7.94a4.88,4.88,0,0,0-2.79,8.87h0l0,0h0A4.88,4.88,0,1,0,9,7.94Zm4.44,4.88a3.77,3.77,0,0,1,0,.58,5.32,5.32,0,0,0-.78-.32.92.92,0,0,0-1.3-.74,5.32,5.32,0,0,0-2.5-2,1,1,0,0,0-.25-.48,4.85,4.85,0,0,1,1.92-1.22A4.46,4.46,0,0,1,13.44,12.82Zm-1.79,3.56a4.37,4.37,0,0,1-2.31.86,4.78,4.78,0,0,1-1.56-1.73.88.88,0,0,0,.29-.41A.9.9,0,0,0,8,14.33a5,5,0,0,1,2.79-1,.92.92,0,0,0,.59.72,1.06,1.06,0,0,0,.23.05A5,5,0,0,1,11.65,16.38Zm-4.07-5h0a.92.92,0,0,0,1.17-.55A4.79,4.79,0,0,1,11,12.62a1.14,1.14,0,0,0-.12.22A5.47,5.47,0,0,0,7.67,14l-.14-.07a.74.74,0,0,0-.28-.06A4.84,4.84,0,0,1,7.58,11.34Zm-.76,4.28.08,0a.84.84,0,0,0,.47,0A5.14,5.14,0,0,0,8.6,17.24a4.42,4.42,0,0,1-2.19-.81A5.12,5.12,0,0,1,6.82,15.62ZM9,8.37a4.9,4.9,0,0,1,.77.07A5.17,5.17,0,0,0,8.18,9.61a.92.92,0,0,0-1,.38H6.92a5.51,5.51,0,0,0-1.51.22A4.48,4.48,0,0,1,9,8.37ZM4.56,12.82a4.41,4.41,0,0,1,.48-2,4.94,4.94,0,0,1,2-.38,1,1,0,0,0,.22.65A5.32,5.32,0,0,0,6.81,14a.92.92,0,0,0-.46.51.94.94,0,0,0,.11.85,5.52,5.52,0,0,0-.42.8A4.41,4.41,0,0,1,4.56,12.82Zm7.62,3.1c0-.21,0-.42,0-.64A5.38,5.38,0,0,0,12.07,14a.88.88,0,0,0,.47-.46,5.25,5.25,0,0,1,.77.33A4.37,4.37,0,0,1,12.18,15.92Z" fill="url(#b427c007-66b0-42b8-81ad-cf005949ee17)"/></svg>