<svg id="f7e217c3-d8bd-4f28-854e-f981a4671119" data-name="azure-fluent-icons" xmlns="http://www.w3.org/2000/svg" xmlns:xlink="http://www.w3.org/1999/xlink" width="18" height="18" viewBox="0 0 18 18">
  <defs>
    <linearGradient id="eb410ff0-4988-4ddd-9544-4e5a135e3dca" x1="10.98" y1="23.3" x2="10.98" y2="6.01" gradientUnits="userSpaceOnUse">
      <stop offset="0" stop-color="#198ab3"/>
      <stop offset="0.23" stop-color="#1d95bd"/>
      <stop offset="0.62" stop-color="#27b2d7"/>
      <stop offset="1" stop-color="#32d4f5"/>
    </linearGradient>
    <linearGradient id="abbb5629-6d04-4e2d-ae83-172a29e90c77" x1="7.75" y1="17.66" x2="7.75" y2="0.37" gradientUnits="userSpaceOnUse">
      <stop offset="0" stop-color="#005ba1"/>
      <stop offset="0.02" stop-color="#025ea2"/>
      <stop offset="0.18" stop-color="#0c72aa"/>
      <stop offset="0.37" stop-color="#137faf"/>
      <stop offset="0.59" stop-color="#1888b2"/>
      <stop offset="1" stop-color="#198ab3"/>
    </linearGradient>
    <linearGradient id="b755348a-6863-490c-9d81-de10cec94dbf" x1="5.5" y1="23.3" x2="5.5" y2="6.01" xlink:href="#eb410ff0-4988-4ddd-9544-4e5a135e3dca"/>
  </defs>
  <title>Icon-other-356</title>
  <path d="M14,7.22h0l-.12,0-.11,0h0L13.26,7h0A6.58,6.58,0,0,0,9.65,6a4.11,4.11,0,0,1,.76.75.19.19,0,0,1-.12.28h-.08a6.8,6.8,0,0,0-3.62.28,5.65,5.65,0,0,1,.84.36.28.28,0,0,1,0,.47h0l-.1,0A6.71,6.71,0,0,0,4.14,9.72a3.65,3.65,0,0,1,1.12.1.14.14,0,0,1,0,.22,8.32,8.32,0,0,0-1,1.56A5,5,0,0,0,6.91,14a5,5,0,0,1,4.85-3.9h.45a29.31,29.31,0,0,1,5,2.18c.11,0,.35-.16.44-.28C18.13,11.41,17.72,8.28,14,7.22Z" fill="url(#eb410ff0-4988-4ddd-9544-4e5a135e3dca)"/>
  <path d="M4.34,11.6A5,5,0,0,1,8.82,4.5l.39,0h0l.06,0a28.66,28.66,0,0,1,5,2.17c.11,0,.35-.15.44-.28.46-.65,0-3.78-3.67-4.84h0l-.12,0-.11,0h0c-.17-.05-.34-.08-.51-.12h0a6.58,6.58,0,0,0-3.61-1,3.94,3.94,0,0,1,.76.76.18.18,0,0,1-.12.27H7.27a6.62,6.62,0,0,0-3.61.27A5.73,5.73,0,0,1,4.49,2a.28.28,0,0,1,0,.47h0a.29.29,0,0,1-.1,0A6.75,6.75,0,0,0,1.2,4.08a4,4,0,0,1,1.12.1.15.15,0,0,1,.05.22A8.16,8.16,0,0,0,3.59,15.76s0-.09,0-.13A8.22,8.22,0,0,1,4.34,11.6Z" fill="url(#abbb5629-6d04-4e2d-ae83-172a29e90c77)"/>
  <path d="M4.34,11.6a8.22,8.22,0,0,0-.77,4s0,.09,0,.13a8,8,0,0,0,3.85,1.78,4.91,4.91,0,0,1-.65-2.44A4.66,4.66,0,0,1,6.91,14,5,5,0,0,1,4.34,11.6Z" fill="url(#b755348a-6863-490c-9d81-de10cec94dbf)"/>
  <path d="M11.21,4.28l1.25.57a2.77,2.77,0,0,0-1.62-1.64Z" fill="#fff"/>
  <path d="M14.44,10l1.25.58a2.77,2.77,0,0,0-1.62-1.64Z" fill="#fff"/>
</svg>
