<svg id="f2c8403f-b9a8-48cd-bbdb-e8a243110506" 
  xmlns="http://www.w3.org/2000/svg" width="18" height="18" viewBox="0 0 18 18">
  <defs>
    <linearGradient id="a0465d80-2dfb-431f-af36-d6d5429ea956" x1="13.18" y1="10.12" x2="13.18" y2="17.5" gradientUnits="userSpaceOnUse">
      <stop offset="0" stop-color="#b77af4"/>
      <stop offset="0.24" stop-color="#b376f2"/>
      <stop offset="0.5" stop-color="#a669ee"/>
      <stop offset="0.75" stop-color="#9255e6"/>
      <stop offset="1" stop-color="#773adc"/>
    </linearGradient>
  </defs>
  <title>Icon-other-354</title>
  <g>
    <g>
      <polygon points="15.77 4.76 15.77 13.23 8.45 17.49 8.45 9 15.77 4.76" fill="#32bedd"/>
      <polygon points="15.77 4.76 8.45 9.01 1.12 4.75 8.45 0.5 15.77 4.76" fill="#9cebff"/>
      <polygon points="8.45 9.01 8.45 17.49 1.12 13.23 1.12 4.75 8.45 9.01" fill="#50e6ff"/>
      <polygon points="1.12 13.23 8.45 9 8.45 17.49 1.12 13.23" fill="#9cebff"/>
      <polygon points="15.77 13.23 8.45 9 8.45 17.49 15.77 13.23" fill="#50e6ff"/>
    </g>
    <g>
      <rect x="9.49" y="10.12" width="7.39" height="7.39" rx="3.69" fill="url(#a0465d80-2dfb-431f-af36-d6d5429ea956)"/>
      <path d="M10.8,13.35l2.2-2.2a.27.27,0,0,1,.37,0l2.2,2.2a.12.12,0,0,1-.08.2H14.13a.11.11,0,0,0-.11.11v2.75a.11.11,0,0,1-.1.1H12.45a.1.1,0,0,1-.1-.1V13.66a.11.11,0,0,0-.12-.11H10.88A.12.12,0,0,1,10.8,13.35Z" fill="#fff"/>
    </g>
  </g>
</svg>
