<svg id="bd6c6729-a2d9-405c-a808-b1fe7ebd56ae" xmlns="http://www.w3.org/2000/svg"  width="18" height="18" viewBox="0 0 18 18">
  <defs>
    <linearGradient id="f8976be4-4963-4ae4-bf41-5b866009614b" x1="9" y1="19.45" x2="9" y2="-0.65" gradientTransform="translate(9 -3.73) rotate(45)" gradientUnits="userSpaceOnUse">
      <stop offset="0" stop-color="#5e9624"/>
      <stop offset="0.14" stop-color="#629c25"/>
      <stop offset="1" stop-color="#76bc2d"/>
    </linearGradient>
    <linearGradient id="f900d952-676f-495b-8bdc-58751aa3d53f" x1="7.51" y1="6.39" x2="7.5" y2="5.11" gradientUnits="userSpaceOnUse">
      <stop offset="0" stop-color="#ccc"/>
      <stop offset="0.12" stop-color="#d7d7d7"/>
      <stop offset="0.42" stop-color="#ebebeb"/>
      <stop offset="0.72" stop-color="#f8f8f8"/>
      <stop offset="1" stop-color="#fcfcfc"/>
    </linearGradient>
    <linearGradient id="e76f58c1-2306-4708-bc0c-166f85e2e018" x1="9.37" y1="7.67" x2="9.37" y2="6.52" href="#f900d952-676f-495b-8bdc-58751aa3d53f"/>
  </defs>
  <title>Icon-security-242</title>
  <rect x="2.7" y="2.7" width="12.6" height="12.6" rx="0.58" transform="translate(-3.73 9) rotate(-45)" fill="url(#f8976be4-4963-4ae4-bf41-5b866009614b)"/>
  <g>
    <path d="M10.93,10.54h2.89a.11.11,0,0,0,.11-.11V7.54a.1.1,0,0,0-.18-.07l-.8.79,0,.06a.11.11,0,0,1-.15,0L9.27,4.83a.11.11,0,0,0-.15,0l-.9.9a.11.11,0,0,0,0,.15l3.49,3.48a.11.11,0,0,1,0,.15l-.06.05-.79.8A.1.1,0,0,0,10.93,10.54Z" fill="#fff"/>
    <path d="M6.87,10.54H4a.11.11,0,0,1-.1-.11V7.54a.1.1,0,0,1,.18-.07l.79.79.06.06a.1.1,0,0,0,.14,0L8.54,4.83a.11.11,0,0,1,.15,0l.89.9a.09.09,0,0,1,0,.15L6.1,9.36a.11.11,0,0,0,0,.15l.05.05.8.8A.11.11,0,0,1,6.87,10.54Z" fill="#fff"/>
    <path d="M6.78,13.16l2,2a.11.11,0,0,0,.15,0l2-2a.1.1,0,0,0-.07-.18H9.74a.11.11,0,0,1-.11-.1V8a.1.1,0,0,0-.1-.11H8.26a.1.1,0,0,0-.1.11v4.93a.11.11,0,0,1-.11.1H6.85A.1.1,0,0,0,6.78,13.16Z" fill="#fff"/>
  </g>
  <path id="baa25bd4-d04a-410c-bf96-1762a79e4f8f" d="M10.68,7.75A2.76,2.76,0,1,1,7.3,3.39l0,0a2.76,2.76,0,0,1,3.35,4.38" fill="#0078d4"/>
  <circle cx="7.5" cy="5.48" r="0.88" fill="url(#f900d952-676f-495b-8bdc-58751aa3d53f)"/>
  <g>
    <path d="M6.62,7a2,2,0,0,0,.2.3c.06.08.12.14.18.21a6.16,6.16,0,0,1,.35-1.12.85.85,0,0,1-.46-.24A5.62,5.62,0,0,0,6.62,7Z" fill="#f2f2f2" opacity="0.55"/>
    <path d="M7.21,4.65a4.21,4.21,0,0,1-.23-1,3.27,3.27,0,0,0-.35.48,4.55,4.55,0,0,0,.18.76A.81.81,0,0,1,7.21,4.65Z" fill="#f2f2f2" opacity="0.55"/>
    <path d="M8.15,6.08a.89.89,0,0,1-.48.27,3.21,3.21,0,0,0,.47.41,3.59,3.59,0,0,0,.66.41s0,0,0-.08A.58.58,0,0,1,9,6.68,3.46,3.46,0,0,1,8.15,6.08Z" fill="#f2f2f2" opacity="0.55"/>
    <path d="M10.83,7.16a3.74,3.74,0,0,1-.89-.1v0a.56.56,0,0,1-.16.4,4,4,0,0,0,1.1.08,2.16,2.16,0,0,0,.37-.43Z" fill="#f2f2f2" opacity="0.55"/>
  </g>
  <circle cx="9.37" cy="7.09" r="0.57" fill="url(#e76f58c1-2306-4708-bc0c-166f85e2e018)"/>
  <circle cx="10.68" cy="5.67" r="0.61" fill="#f2f2f2"/>
  <g>
    <path d="M9.22,4.32a4.43,4.43,0,0,1,1.92-.47,3,3,0,0,0-.48-.47,4.9,4.9,0,0,0-1.52.36,2.91,2.91,0,0,0-.3.17h0A5.45,5.45,0,0,1,8.19,3a2.67,2.67,0,0,0-.36.14,6.1,6.1,0,0,0,.67,1,4.05,4.05,0,0,0-.68.56A.89.89,0,0,1,8.25,5a3.47,3.47,0,0,1,.63-.49,10.25,10.25,0,0,0,1.19,1,.57.57,0,0,1,.2-.32A7.81,7.81,0,0,1,9.22,4.32Z" fill="#f2f2f2" opacity="0.55"/>
    <path d="M11.6,6h0l-.1,0h0l-.08,0h0l-.11-.06a.52.52,0,0,1-.2.3l.12.07h0a.41.41,0,0,0,.11.07h0l.28.15h0a2.37,2.37,0,0,0,.09-.36Z" fill="#f2f2f2" opacity="0.55"/>
  </g>
  <circle cx="7.5" cy="5.48" r="0.88" fill="#f2f2f2"/>
  <circle cx="9.37" cy="7.09" r="0.57" fill="#f2f2f2"/>
</svg>
