<?xml version="1.0" encoding="utf-8"?>
<!-- Generator: Adobe Illustrator 22.1.0, SVG Export Plug-In . SVG Version: 6.00 Build 0)  -->
<svg version="1.1" id="Layer_1" xmlns="http://www.w3.org/2000/svg" xmlns:xlink="http://www.w3.org/1999/xlink" x="0px" y="0px"
	 width="16px" height="16px" viewBox="0 0 16 16" enable-background="new 0 0 16 16" xml:space="preserve">
<path fill="#015CDA" d="M8,15.4c-4.08,0-7.4-3.319-7.4-7.4c0-4.08,3.32-7.4,7.4-7.4c4.081,0,7.4,3.32,7.4,7.4
	C15.4,12.081,12.081,15.4,8,15.4z"/>
<path fill="#FFFFFF" d="M8,1.013c3.859,0,6.987,3.128,6.987,6.987S11.859,14.987,8,14.987S1.013,11.859,1.013,8S4.141,1.013,8,1.013
	 M8,0C3.589,0,0,3.589,0,8s3.589,8,8,8s8-3.589,8-8S12.411,0,8,0L8,0z"/>
<path fill="#FFFFFF" d="M7.843,3.794H7.796c-0.977,0-1.884,0.344-2.617,0.888L3.697,3.2v3.902h3.901L6.126,5.629
	c0.491-0.38,1.096-0.583,1.717-0.577c1.464,0,2.678,1.03,2.933,2.376h1.287C11.752,5.337,9.956,3.791,7.843,3.794z M12.257,8.888
	H8.402l0.019,0.01H8.402l1.426,1.426c-0.484,0.339-1.061,0.52-1.717,0.52c-1.321,0-2.445-0.893-2.829-2.096h-1.35
	c0.43,1.962,2.17,3.358,4.178,3.354h0.046c0.963,0,1.858-0.332,2.586-0.862l1.56,1.56V8.888H12.257z"/>
</svg>
