<?xml version="1.0" encoding="utf-8"?>
<!-- Generator: Adobe Illustrator 22.1.0, SVG Export Plug-In . SVG Version: 6.00 Build 0)  -->
<svg version="1.1" id="Layer_1" xmlns="http://www.w3.org/2000/svg" xmlns:xlink="http://www.w3.org/1999/xlink" x="0px" y="0px"
	 width="16px" height="16px" viewBox="0 0 16 16" enable-background="new 0 0 16 16" xml:space="preserve">
<circle fill="#015CDA" cx="8" cy="8" r="8"/>
<path fill="#FFFFFF" d="M7.821,3.184H7.767c-1.119,0-2.157,0.394-2.996,1.017L3.074,2.504v4.467H7.54L5.855,5.285
	C6.417,4.85,7.11,4.617,7.821,4.624c1.676,0,3.066,1.179,3.358,2.72h1.474C12.296,4.951,10.24,3.181,7.821,3.184z M12.874,9.017
	H8.461l0.022,0.012H8.461l1.633,1.633c-0.554,0.388-1.215,0.595-1.966,0.595c-1.512,0-2.799-1.022-3.239-2.4H3.343
	c0.493,2.246,2.485,3.845,4.784,3.84H8.18c1.102,0,2.127-0.38,2.961-0.987l1.786,1.786V9.017H12.874z"/>
</svg>
