<?xml version="1.0" encoding="utf-8"?>
<!-- Generator: Adobe Illustrator 22.1.0, SVG Export Plug-In . SVG Version: 6.00 Build 0)  -->
<svg version="1.1" id="Layer_1" xmlns="http://www.w3.org/2000/svg" xmlns:xlink="http://www.w3.org/1999/xlink" x="0px" y="0px"
	 width="16px" height="16px" viewBox="0 0 16 16" enable-background="new 0 0 16 16" xml:space="preserve">
<circle fill="#8A2DA5" cx="8" cy="8" r="6.987"/>
<path fill="#FFFFFF" d="M8,1.013c1.788,0,3.577,0.683,4.941,2.047c2.729,2.729,2.729,7.152,0,9.882
	C11.577,14.305,9.788,14.987,8,14.987s-3.577-0.683-4.941-2.047c-2.729-2.729-2.729-7.152,0-9.882C4.423,1.695,6.212,1.013,8,1.013
	 M8,0C5.863,0,3.854,0.832,2.343,2.343c-3.119,3.119-3.119,8.194,0,11.313C3.854,15.168,5.863,16,8,16s4.146-0.832,5.657-2.343
	c3.119-3.119,3.119-8.194,0-11.313C12.146,0.832,10.137,0,8,0L8,0z"/>
<path fill="#FFFFFF" d="M12.045,3.956c0,0-1.518-0.072-2.56,0.971c-0.01,0.01-2.076,2.075-2.254,2.254c0,0-1.694-0.423-2.523,0.406
	L2.793,9.505l2.97-0.839l-1.377,1.889l1.059,1.059l1.895-1.367l-0.844,2.959l1.919-1.915c0.839-0.839,0.41-2.527,0.41-2.527
	c0.177-0.177,2.239-2.239,2.249-2.249C12.115,5.473,12.045,3.956,12.045,3.956z"/>
<circle fill="#8A2DA5" cx="10.184" cy="5.816" r="0.655"/>
</svg>
