<?xml version="1.0" encoding="utf-8"?>
<!-- Generator: Adobe Illustrator 22.1.0, SVG Export Plug-In . SVG Version: 6.00 Build 0)  -->
<svg version="1.1" id="Layer_1" xmlns="http://www.w3.org/2000/svg" xmlns:xlink="http://www.w3.org/1999/xlink" x="0px" y="0px"
	 width="16px" height="16px" viewBox="0 0 16 16" enable-background="new 0 0 16 16" xml:space="preserve">
<circle fill="#7A7A7A" cx="8" cy="8" r="8"/>
<path fill="#FFFFFF" d="M10.667,5.636c0,0.8-0.427,1.547-1.227,2.24c-0.32,0.267-0.587,0.48-0.693,0.693
	c-0.107,0.16-0.16,0.427-0.16,0.693v0.32H7.093v-0.48c0-0.693,0.267-1.28,0.853-1.76C8.32,7.076,8.533,6.809,8.64,6.649
	s0.213-0.427,0.213-0.693S8.747,5.529,8.587,5.369c-0.19-0.211-0.463-0.328-0.747-0.32c-0.64,0-1.227,0.267-1.813,0.747V4.089
	c0.587-0.373,1.28-0.533,2.027-0.533c0.8,0,1.493,0.213,1.92,0.587C10.453,4.462,10.667,4.996,10.667,5.636z M8.889,11.627
	c0,0.267-0.107,0.533-0.32,0.693s-0.48,0.267-0.747,0.267c-0.32,0-0.533-0.107-0.747-0.267c-0.213-0.16-0.32-0.427-0.32-0.693
	c0-0.267,0.107-0.533,0.32-0.693c0.212-0.16,0.48-0.267,0.8-0.267c0.32,0,0.587,0.107,0.747,0.267
	C8.782,11.093,8.889,11.36,8.889,11.627z"/>
</svg>
