<?xml version="1.0" encoding="utf-8"?>
<!-- Generator: Adobe Illustrator 22.1.0, SVG Export Plug-In . SVG Version: 6.00 Build 0)  -->
<svg version="1.1" id="Layer_1" xmlns="http://www.w3.org/2000/svg" xmlns:xlink="http://www.w3.org/1999/xlink" x="0px" y="0px"
	 width="16px" height="16px" viewBox="0 0 16 16" enable-background="new 0 0 16 16" xml:space="preserve">
<path fill="#7A7A7A" d="M8,15.4c-4.08,0-7.4-3.319-7.4-7.4c0-4.08,3.32-7.4,7.4-7.4c4.081,0,7.4,3.32,7.4,7.4
	C15.4,12.081,12.081,15.4,8,15.4z"/>
<path fill="#FFFFFF" d="M8,1.013c3.859,0,6.987,3.128,6.987,6.987S11.859,14.987,8,14.987S1.013,11.859,1.013,8S4.141,1.013,8,1.013
	 M8,0C3.589,0,0,3.589,0,8s3.589,8,8,8s8-3.589,8-8S12.411,0,8,0L8,0z"/>
<path fill="#FFFFFF" d="M5.38,5.38h5.241v5.241H5.38V5.38z"/>
</svg>
