<?xml version="1.0" encoding="utf-8"?>
<!-- Generator: Adobe Illustrator 22.1.0, SVG Export Plug-In . SVG Version: 6.00 Build 0)  -->
<svg version="1.1" id="Layer_1" xmlns="http://www.w3.org/2000/svg" xmlns:xlink="http://www.w3.org/1999/xlink" x="0px" y="0px"
	 width="16px" height="16px" viewBox="0 0 16 16" enable-background="new 0 0 16 16" xml:space="preserve">
<circle fill="#E00B1C" cx="8" cy="8" r="7"/>
<path fill="#FFFFFF" d="M8,1.013c3.859,0,6.987,3.128,6.987,6.987S11.859,14.987,8,14.987S1.013,11.859,1.013,8S4.141,1.013,8,1.013
	 M8,0C3.589,0,0,3.589,0,8s3.589,8,8,8s8-3.589,8-8S12.411,0,8,0L8,0z"/>
<path fill="#FFFFFF" d="M12.1,5.142L10.858,3.9L8,6.758L5.142,3.9L3.9,5.142L6.758,8L3.9,10.858L5.142,12.1L8,9.242l2.858,2.858
	l1.242-1.242L9.242,8L12.1,5.142z"/>
</svg>
