<?xml version="1.0" encoding="utf-8"?>
<!-- Generator: Adobe Illustrator 24.0.1, SVG Export Plug-In . SVG Version: 6.00 Build 0)  -->
<svg version="1.1" id="b70acf0a-34b4-4bdf-9024-7496043ff915"
	 xmlns="http://www.w3.org/2000/svg" xmlns:xlink="http://www.w3.org/1999/xlink" x="0px" y="0px" viewBox="0 0 18 18"
	 style="enable-background:new 0 0 18 18;" xml:space="preserve">
<style type="text/css">
	.st0{fill:url(#ee75dd06-1aca-4f76-9d11-d05a284020ad_1_);}
	.st1{opacity:0.6;fill:#FFFFFF;enable-background:new    ;}
	.st2{opacity:0.55;fill:#F2F2F2;enable-background:new    ;}
	.st3{fill:url(#SVGID_1_);}
	.st4{fill:url(#SVGID_2_);}
	.st5{opacity:0.7;fill:#F2F2F2;enable-background:new    ;}
	.st6{fill:url(#SVGID_3_);}
	.st7{fill:url(#SVGID_4_);}
	.st8{fill:url(#SVGID_5_);}
</style>
<title>Icon-web-41</title>
<radialGradient id="ee75dd06-1aca-4f76-9d11-d05a284020ad_1_" cx="17242.4043" cy="-5618.1934" r="56.7063" gradientTransform="matrix(0.15 0 0 -0.15 -2577.3799 -833.73)" gradientUnits="userSpaceOnUse">
	<stop  offset="0.18" style="stop-color:#5EA0EF"/>
	<stop  offset="1" style="stop-color:#0078D4"/>
</radialGradient>
<path id="ee75dd06-1aca-4f76-9d11-d05a284020ad" class="st0" d="M14.2,15.7c-3.7,2.9-9.1,2.2-11.9-1.5S0.1,5.2,3.8,2.3l0.1-0.1
	c3.8-2.8,9.1-2,11.9,1.7C18.5,7.6,17.8,12.9,14.2,15.7"/>
<path class="st1" d="M6.7,7.2c2.4-2.3,5.6-3.6,8.9-3.6c-0.4-0.5-0.9-1-1.5-1.4c-1.6,0.1-3.2,0.5-4.7,1.1C7.9,4,6.5,4.9,5.3,6.1
	C5.9,6.3,6.4,6.7,6.7,7.2z"/>
<path class="st1" d="M2.5,10.6c-0.3,0.9-0.6,1.7-0.8,2.6c0.2,0.3,0.4,0.6,0.6,0.9c0.2,0.2,0.3,0.4,0.5,0.6c0.2-1.2,0.6-2.4,1.1-3.5
	C3.4,11.3,2.9,11,2.5,10.6z"/>
<path class="st2" d="M3.5,6.1C3.1,5.2,2.9,4.2,2.8,3.2C2.4,3.6,2,4.1,1.7,4.6C1.8,5.4,2,6.2,2.2,7C2.6,6.6,3,6.3,3.5,6.1z"/>
<linearGradient id="SVGID_1_" gradientUnits="userSpaceOnUse" x1="4.4013" y1="8.52" x2="4.3713" y2="12.47" gradientTransform="matrix(1 0 0 -1 0 20)">
	<stop  offset="0" style="stop-color:#CCCCCC"/>
	<stop  offset="1" style="stop-color:#FCFCFC"/>
</linearGradient>
<circle class="st3" cx="4.4" cy="8.7" r="2.7"/>
<path class="st2" d="M8.4,13.7c0-0.5,0.2-0.9,0.5-1.3c-0.9-0.5-1.8-1.1-2.5-1.9C6,11,5.5,11.3,4.9,11.4c0.5,0.5,0.9,0.9,1.4,1.3
	c0.6,0.5,1.3,0.9,2.1,1.3C8.4,13.8,8.4,13.7,8.4,13.7z"/>
<path class="st2" d="M14.7,13.9c-0.9,0-1.9-0.1-2.8-0.3c0,0,0,0.1,0,0.1c0,0.5-0.2,0.9-0.5,1.2c1.1,0.2,2.3,0.3,3.4,0.2
	c0.4-0.4,0.8-0.9,1.2-1.3C15.6,13.9,15.1,13.9,14.7,13.9z"/>
<linearGradient id="SVGID_2_" gradientUnits="userSpaceOnUse" x1="10.13" y1="4.55" x2="10.13" y2="8.1" gradientTransform="matrix(1 0 0 -1 0 20)">
	<stop  offset="0" style="stop-color:#CCCCCC"/>
	<stop  offset="1" style="stop-color:#FCFCFC"/>
</linearGradient>
<circle class="st4" cx="10.1" cy="13.7" r="1.8"/>
<path class="st5" d="M12.3,8.9c0.1-0.4,0.3-0.7,0.6-1c-1.6-1.2-3.1-2.6-4.5-4.1C7.7,2.9,7,1.9,6.5,0.9C6.1,1,5.7,1.1,5.4,1.3
	C6,2.4,6.7,3.5,7.5,4.5C8.9,6.1,10.5,7.6,12.3,8.9z"/>
<linearGradient id="SVGID_3_" gradientUnits="userSpaceOnUse" x1="14.18" y1="8.85" x2="14.18" y2="12.62" gradientTransform="matrix(1 0 0 -1 0 20)">
	<stop  offset="0" style="stop-color:#CCCCCC"/>
	<stop  offset="1" style="stop-color:#FCFCFC"/>
</linearGradient>
<circle class="st6" cx="14.2" cy="9.3" r="1.9"/>
<path class="st2" d="M17.4,10.5L17,10.4l0,0l-0.3-0.2h-0.1L16.4,10h-0.1L16,9.8c-0.1,0.4-0.3,0.7-0.6,0.9c0.1,0.1,0.3,0.1,0.4,0.2
	l0.1,0.1l0.4,0.2l0,0l0.9,0.4l0,0C17.2,11.3,17.2,10.9,17.4,10.5L17.4,10.5z"/>
<linearGradient id="SVGID_4_" gradientUnits="userSpaceOnUse" x1="4.4013" y1="8.52" x2="4.3713" y2="12.47" gradientTransform="matrix(1 0 0 -1 0 20)">
	<stop  offset="0" style="stop-color:#CCCCCC"/>
	<stop  offset="1" style="stop-color:#FCFCFC"/>
</linearGradient>
<circle class="st7" cx="4.4" cy="8.7" r="2.7"/>
<linearGradient id="SVGID_5_" gradientUnits="userSpaceOnUse" x1="10.13" y1="4.55" x2="10.13" y2="8.1" gradientTransform="matrix(1 0 0 -1 0 20)">
	<stop  offset="0" style="stop-color:#CCCCCC"/>
	<stop  offset="1" style="stop-color:#FCFCFC"/>
</linearGradient>
<circle class="st8" cx="10.1" cy="13.7" r="1.8"/>
</svg>
