<svg xmlns="http://www.w3.org/2000/svg" viewBox="0 0 48 49"><path d="M45.467 44.41H2.716a1.347 1.347 0 01-1.152-2.048L23.145 7.24a1.04 1.04 0 011.776 0l21.697 35.102c.546.898-.097 2.069-1.151 2.069z" fill="#0078D4"/><path d="M24.101 40.82c-.663 0-1.21-.214-1.678-.624a1.99 1.99 0 01-.683-1.541c0-.625.234-1.152.683-1.6a2.392 2.392 0 011.678-.664 2.3 2.3 0 011.659.664c.468.429.702.975.702 1.6 0 .605-.234 1.112-.702 1.541-.469.43-1.015.624-1.659.624zm1.834-23.883l-.312 16.644h-3.122l-.43-16.644h3.864z" fill="#50E6FF"/></svg>