<svg xmlns="http://www.w3.org/2000/svg" viewBox="0 0 48 49"><path d="M24.167 47.772c12.742 0 23.076-10.335 23.076-23.077 0-12.741-10.305-23.105-23.076-23.105-12.742 0-23.076 10.334-23.076 23.076s10.334 23.106 23.076 23.106z" fill="#50E6FF"/><path d="M24.167 43.459c10.364 0 18.79-8.397 18.79-18.79 0-10.393-8.397-18.79-18.79-18.79-10.364 0-18.79 8.397-18.79 18.79 0 10.393 8.427 18.79 18.79 18.79z" fill="#0078D4"/><path d="M37.379 8.61L8.313 37.498l3.435 3.464 28.86-28.684c-1.086-1.233-2.26-2.554-3.23-3.67z" fill="#50E6FF"/></svg>