<svg xmlns="http://www.w3.org/2000/svg" viewBox="0 0 48 49"><path d="M35.334 13.168H12.666v22.668h22.668V13.168z" fill="#50E6FF"/><path d="M24 .734C10.88.734.236 11.377.236 24.498.236 37.62 10.87 48.262 24 48.262c13.122 0 23.764-10.634 23.764-23.764C47.764 11.377 37.122.734 24 .734zM5.296 24.498c0-4.992 1.948-9.69 5.481-13.223A18.583 18.583 0 0124 5.795a18.58 18.58 0 0111.494 3.946L9.243 35.992a18.587 18.587 0 01-3.947-11.494zm31.927 13.223A18.583 18.583 0 0124 43.202a18.57 18.57 0 01-11.131-3.668l26.167-26.167c2.387 3.204 3.668 7.067 3.668 11.131 0 4.992-1.948 9.69-5.481 13.223z" fill="#0075DA"/></svg>