<svg xmlns="http://www.w3.org/2000/svg" viewBox="0 0 500 500"><path fill="#9FBF3B" d="M301.314 83.298l20.159-29.272c1.197-1.74.899-4.024-.666-5.104-1.563-1.074-3.805-.543-4.993 1.199L294.863 80.53c-13.807-5.439-29.139-8.47-45.299-8.47s-31.496 3.028-45.302 8.47l-20.948-30.41c-1.201-1.74-3.439-2.273-5.003-1.199-1.564 1.077-1.861 3.362-.664 5.104l20.166 29.272c-32.063 14.916-54.548 43.26-57.413 76.34h218.316c-2.855-33.08-25.341-61.423-57.402-76.339"/><path fill="#FFF" d="M203.956 129.438c-6.673 0-12.08-5.407-12.08-12.079 0-6.671 5.404-12.08 12.08-12.08 6.668 0 12.073 5.407 12.073 12.08.001 6.671-5.405 12.079-12.073 12.079m91.205 0c-6.668 0-12.074-5.407-12.074-12.079 0-6.673 5.406-12.08 12.074-12.08 6.675 0 12.079 5.409 12.079 12.08s-5.406 12.079-12.079 12.079"/><path fill="#9FBF3B" d="M126.383 297.598c0 13.45-10.904 24.354-24.355 24.354-13.45 0-24.354-10.904-24.354-24.354V199.09c0-13.45 10.904-24.354 24.354-24.354 13.451 0 24.355 10.904 24.355 24.354v98.508zm14.013-122.109v177.915c0 10.566 8.566 19.133 19.135 19.133h22.633v54.744c0 13.451 10.903 24.354 24.354 24.354 13.451 0 24.355-10.903 24.355-24.354v-54.744h37.371v54.744c0 13.451 10.902 24.354 24.354 24.354s24.354-10.903 24.354-24.354v-54.744h22.633c10.569 0 19.137-8.562 19.137-19.133V175.489H140.396zm232.338 122.109c0 13.45 10.903 24.354 24.354 24.354 13.45 0 24.354-10.904 24.354-24.354V199.09c0-13.45-10.904-24.354-24.354-24.354-13.451 0-24.354 10.904-24.354 24.354v98.508z"/></svg>