<svg xmlns="http://www.w3.org/2000/svg" xmlns:xlink="http://www.w3.org/1999/xlink" version="1.0" viewBox="0 0 562.5 562.5"><defs><linearGradient id="c"><stop offset="0"/><stop offset="1" stop-opacity="0"/></linearGradient><linearGradient id="u" gradientUnits="userSpaceOnUse" gradientTransform="rotate(3.546 1744.91 387.439)" x1="178.967" y1="286.362" x2="423.566" y2="433.986" xlink:href="#a"/><linearGradient id="d"><stop offset="0" stop-color="#00f"/><stop offset="1" stop-opacity="0"/></linearGradient><linearGradient id="e"><stop offset="0" stop-color="#3700d0"/><stop offset="1" stop-opacity="0"/></linearGradient><linearGradient id="i"><stop offset="0" stop-color="red" stop-opacity=".546"/><stop offset="1" stop-color="#ff0067" stop-opacity=".423"/></linearGradient><linearGradient id="b"><stop offset="0" stop-color="#4700aa"/><stop offset="1" stop-color="#80a" stop-opacity="0"/></linearGradient><linearGradient id="h"><stop offset="0" stop-color="#cd00ff"/><stop offset="1" stop-color="#f0f" stop-opacity="0"/></linearGradient><linearGradient id="j"><stop offset="0" stop-color="#ff0"/><stop offset="1" stop-color="#a8650a" stop-opacity=".454"/></linearGradient><linearGradient id="a"><stop offset="0" stop-color="#062e05"/><stop offset="1" stop-color="#062e05" stop-opacity="0"/></linearGradient><linearGradient id="f"><stop offset="0"/><stop offset="1" stop-opacity="0"/></linearGradient><linearGradient id="g"><stop offset="0" stop-color="#4200d2"/><stop offset="1" stop-color="#d42aff" stop-opacity="0"/></linearGradient><linearGradient id="v" gradientUnits="userSpaceOnUse" gradientTransform="rotate(3.546 1744.91 387.439)" x1="305.082" y1="525.774" x2="211.425" y2="392.584" xlink:href="#b"/><linearGradient id="k"><stop offset="0" stop-color="#ff0"/><stop offset="1" stop-color="#a8650a" stop-opacity="0"/></linearGradient><linearGradient id="t" gradientUnits="userSpaceOnUse" x1="41.702" y1="372.207" x2="607.31" y2="372.207" xlink:href="#c"/><linearGradient id="w" gradientUnits="userSpaceOnUse" gradientTransform="rotate(3.546 1744.91 387.439)" x1="313.861" y1="372.63" x2="380.471" y2="424.511" xlink:href="#d"/><linearGradient id="r" gradientUnits="userSpaceOnUse" gradientTransform="rotate(3.546 1744.91 387.439)" x1="178.967" y1="286.362" x2="423.566" y2="433.986" xlink:href="#e"/><linearGradient id="p" gradientUnits="userSpaceOnUse" gradientTransform="rotate(3.546 1744.91 387.439)" x1="647.755" y1="795.022" x2="365.511" y2="185.841" xlink:href="#f"/><radialGradient id="m" gradientUnits="userSpaceOnUse" gradientTransform="matrix(-.87198 1.15116 -.20616 -.15616 1391.21 -417.115)" cx="953.099" cy="1745.23" r="341.543" fx="1171.38" fy="2532.96" xlink:href="#g"/><radialGradient id="l" gradientUnits="userSpaceOnUse" gradientTransform="matrix(-.92287 .66931 -.23711 -.32695 819.081 106.884)" cx="358.895" cy="264.81" r="341.543" fx="366.263" fy="365.949" xlink:href="#h"/><radialGradient id="o" gradientUnits="userSpaceOnUse" gradientTransform="matrix(.99954 -.03037 .01425 .46914 -.373 106.33)" cx="269.143" cy="359.912" r="261.018" fx="269.143" fy="359.912" xlink:href="#i"/><radialGradient id="q" gradientUnits="userSpaceOnUse" gradientTransform="matrix(-.52798 .5262 -.0539 -.05408 590.227 100.804)" cx="532.465" cy="285.888" r="387.202" fx="550.084" fy="591.353" xlink:href="#g"/><radialGradient id="s" gradientUnits="userSpaceOnUse" gradientTransform="matrix(-.75033 .65079 -.05002 -.05767 698.66 31)" cx="265.337" cy="112.915" r="387.202" fx="265.337" fy="112.915" xlink:href="#g"/><radialGradient id="n" gradientUnits="userSpaceOnUse" gradientTransform="matrix(.00992 .21145 -.21859 .01026 618.085 92.108)" cx="-93.079" cy="-281.508" r="341.543" fx="111.927" fy="171.26" xlink:href="#j"/><radialGradient id="x" gradientUnits="userSpaceOnUse" gradientTransform="matrix(.16572 -.1181 .17615 .24718 618.742 313.198)" cx="756.098" cy="-549.389" r="341.543" fx="1187.24" fy="-507.591" xlink:href="#k"/></defs><path style="marker:none" d="M663.922 164.582a150.492 150.492 0 005.63-5.556c-1.083-6.033-2.802-13.612-5.415-19.645-3.884-8.966-21.963-22.65-30.755-28.932 3.289 2.289 10.656 7.401 24.68 17.222 9.09 6.366 15.711 15.04 19.89 21.66 20.301-25.908 27.998-58.008 14.914-102.277-6.018-7.556-26.956-6.227-56.552 1.944a2362.597 2362.597 0 01-8.4 20.685c-5.732 13.878-8.223 19.498-8.223 19.498s4.614-23 6.088-37.071c-82.051 25.303-218.104 95.337-298.433 173.861C153.1 396.303 138.57 453.805 162.978 480.161c116.799-45.184 102.527 25.28 268.194-140.612 74.4-74.501 174.867-120.617 232.75-174.967z" overflow="visible" fill="url(#l)" transform="translate(15.854 69.954) scale(.69317)"/><path style="marker:none" d="M142.639 397.062s64.71-77.434 134.317-136.918C339.138 207.05 425.24 149.542 425.24 149.542s-66.063 37.83-96.07 59.978c-30.871 22.787-69.166 47.52-104.577 86.592-35.411 39.071-76.228 78.317-76.228 78.317l-20.98 24.947s14.19-.975 15.252-2.313z" overflow="visible" fill-opacity=".929"/><path style="marker:none" d="M663.922 164.582a150.492 150.492 0 005.63-5.556c-1.083-6.033-2.802-13.612-5.415-19.645-3.884-8.966-21.963-22.65-30.755-28.932 3.289 2.289 10.656 7.401 24.68 17.222 9.09 6.366 15.711 15.04 19.89 21.66 20.301-25.908 27.998-58.008 14.914-102.277-6.018-7.556-26.956-6.227-56.552 1.944a2362.597 2362.597 0 01-8.4 20.685c-5.732 13.878-8.223 19.498-8.223 19.498s4.614-23 6.088-37.071c-82.051 25.303-218.104 95.337-298.433 173.861C153.1 396.303 138.57 453.805 162.978 480.161c116.799-45.184 102.527 25.28 268.194-140.612 74.4-74.501 174.867-120.617 232.75-174.967z" overflow="visible" fill="url(#m)" transform="translate(15.854 69.954) scale(.69317)"/><path style="marker:none" d="M663.922 164.582a150.492 150.492 0 005.63-5.556c-1.083-6.033-2.802-13.612-5.415-19.645-3.884-8.966-21.963-22.65-30.755-28.932 3.289 2.289 10.656 7.401 24.68 17.222 9.09 6.366 15.711 15.04 19.89 21.66 20.301-25.908 27.998-58.008 14.914-102.277-6.018-7.556-26.956-6.227-56.552 1.944a2362.597 2362.597 0 01-8.4 20.685c-5.732 13.878-8.223 19.498-8.223 19.498s4.614-23 6.088-37.071c-82.051 25.303-218.104 95.337-298.433 173.861C153.1 396.303 138.57 453.805 162.978 480.161c116.799-45.184 102.527 25.28 268.194-140.612 74.4-74.501 174.867-120.617 232.75-174.967z" overflow="visible" fill="url(#n)" transform="translate(15.854 69.954) scale(.69317)"/><path style="marker:none" d="M436.766 144.035s-108.3 55.743-218.118 164.467C108.83 417.227 73.598 483.338 73.598 483.338l-27.609 28.54-1.229-1.157s66.838-114.11 144.845-187.609c168.51-158.752 249.69-178.72 247.16-179.078z" overflow="visible" opacity=".845"/><path style="marker:none" d="M173.446 476.805c26.368-9.954 55.32-16.77 82.787-18.4 15.49-.679 30.658-4.873 44.486-11.335 9.392-2.253 15.31-11.416 24.136-12.738 12.968-9.887 27.184-21.222 39.111-30.654 11.775-11.828 25.871-23.555 38.049-36.153 34.397-32.546 67.754-66.469 107.508-92.889 27.984-20.122 57.105-38.34 85.643-57.67 16.295-9.354 30.467-22.195 45.95-33.26 11.048-10.417 34.254-19.68 25.324-38.205-1.493-12.026-12.712-17.213-19.255-25.128 11.883 7.052 21.838 16.707 30.763 27.353 11.636-10.694 16.34-27.49 20.098-42.517 1.16-8.188 1.326-14.97 1.226-21.81-.803-6.642.203-11.79-2.737-18.485-.868-8.48-3.332-18.197-7.506-21.398-5.474 1.098-14.766-5.04-18.84-.223-2.542-2.204-9.397-.433-12.93.62-6.974 1.444-14.299 2.843-19.592 5.011-6.187 4.41-6.977 18.842-12.986 26.566-2.39 14.98-5.498 5.187-1.626-2.103 1.135-9.462.751-12.55 3.306-20.724-4.812 1.372-11.71 4.079-19.178 4.618-10.304 6.79-24.47 9.673-35.85 14.795-15.55 6.742-31.342 14.575-47.021 21.72-10.433 7.226-22.836 10.037-33.17 16.939-8.002 5.742-16.894 8.572-24.376 13.92-7.24 4.05-14.97 8.386-18.263 11.897-4.271.308-6.896 2.502-9.86 4.735-7.462 2.318-12.387 8.904-19.061 11.822-7.663 7.27-18.622 10.357-25.906 17.775-14.406 11.297-31.38 23.017-45.647 36.19-16.254 14.312-31.377 29.338-46.922 44.332-7.41 11.116-19.407 17.32-26.373 27.867-8.435 8.141-13.35 17.155-22.334 23.676-4.81 10.632-14.486 11.576-16.794 19.781-6.501 5.038-11.336 12.459-17.313 19.604-12.524 15.047-26.504 31.35-37.363 49.169-13.871 21.381-28.715 46.472-25.139 72.986M675.219 42.083l.163.467zm14.777 2.043l.022.366zm-.446 1.131l-.105-.139zm1.698.387c1.146 1.026-1.148.067 0 0zm-44.911 1.726c1.208.998-1.134-.577 0 0zm-.803-.176l-.294.169zM620.46 86.5c-.004 3.697-2.634 2.316 0 0zm18.646 28.52l.313.16zm1.566.505c16.388 10.299-2.999.191 0 0zm4.887 3.997l.05-.128zm.79.393l-.13.053zm.232.297l-.36.155zm1.85 2.494l.173.207zm29.533 26.127l.25.14zm.234.265l.141.098zm-34.808 33.724l.02-.098zm-5.028 3.821l.117.27zm-14.468 10.156l.445-.032zm-18.65 13.466l-.14-.002zm-8.98 5.455l-.225-.097zm-318.028 59.85l-.13-.01zM263.3 290.738l.06-.044zm-13.173 16.028c1.464 1.745-1.558.147 0 0zm-11.807 11.166l-.274-.08zm.79.895c-.225 1.766-1.584-1.05 0 0zm-2.382 2.576c1.418 2.19-1.858 1.497 0 0zm-2.227 2.085l.079-.07zm-4.903 2.827l.24.41zm-3.253 5.497l.263.126zm-5.314 5.933l.011.15zm-1.77 3.804l-.605.34zm-3.163 5.064l.034.144zm-3.57 1.532l.028.06zm-2.46 3.824l.09.089zm-1.973 1.506l.211.27zm195.302 13.793l.06-.02zm-15.889 14.389l-.19.153zm-2.98 3.134l.083.003zm-3.835 3.27l.223-.176zm-16.684 16.092l.066.024zm-5.159 4.94l.031-.496zm-1.583-.223l-.14.086zm-11.186 8.73l.256.042zm-6.136 4.035l.207.167zm-.152 1.431l.002.175zm.034.973l.208-.098zm-2.095 1.968l.044.174zm-2.387.635l-.03.159zm.45.31l-.164.295zm.706.23l-.037-.116zm-.335.356l.113.246zm-9.792 5.937l-.038.228zm-3.068.499l-.073.041zm.942.966l.266.063zm.618.132l.06-.044zm-4.69.398l.262-.18zm3.144.29l.052.252zm-3.646.744l-.154-.041zm.263.298l.048.183zm-2.132 1.057l.09-.08zm-4.25-.138l.07.105zm.467.562l.074.13zm-1.028 3.443l.123-.13zm.583.192l.008.076zm-1.481.66l-.268.325zm.759.892l-.088-.39zm-6.818 1.394l-.226-.355zm-5.478 3.511l.08-.164zm-1.164.085l-.06.235zm-.036.592l-.022.09zm-4.328.609l.23-.054zm-.31.45l.061-.076zm-3.985.661l.225.045zm-.6.59l.124.097zm-.066.559l.267-.295zm-6.856 3.02l-.006.047zm-16.189 1.031l.002.102zm-4.183.805l.06.077z" overflow="visible" fill="url(#o)" stroke="url(#p)" stroke-width="2" stroke-linejoin="round" stroke-dashoffset="68" transform="translate(15.854 69.954) scale(.69317)"/><path style="marker:none" d="M607.228 106.873S450.989 187.29 292.561 344.141C134.131 500.992 83.306 596.367 83.306 596.367L43.474 637.54l-1.772-1.67s96.423-164.62 208.96-270.652c243.1-229.024 360.215-257.831 356.565-258.346z" overflow="visible" opacity=".678" fill="url(#q)" transform="translate(15.854 69.954) scale(.69317)"/><path style="marker:none" d="M182.914 474.232s50.398-17.495 87.66-38.095c37.261-20.6 39.548-17.165 50.212-27.959 10.665-10.793 26.65-21.4 26.65-21.4l-25.427-14.462 31.859 10.135s20.958-15.596 31.906-30.954 21.471-23.87 31.995-32.381c10.523-8.512 13.207-11.496 13.207-11.496l-32.123-19.315 34.205 15.292s15.188-8.509 28.127-23.743c12.94-15.235 41.84-46.089 48.31-53.706 6.47-7.618 35.695-27.57 54.326-37.87 18.63-10.3 39.324-21.618 51.698-27.724 12.373-6.106 34.16-18.93 34.16-18.93l-7.448-16.928-10.744-12.12s2.62-12.724 7.042-14.168c4.42-1.444 39.126-13.04 43.392-17.357 4.266-4.317 11.425-23.06 11.425-23.06l-8.395-12.404-42.266 31.458 15.7-27.52-14.476 2.396s-15.227 25.259-17.59 31.126c-2.362 5.867-20.46 26.366-20.46 26.366s-51.049 25.33-57.815 32.356c-6.766 7.026-84.378 65.789-96.769 72.18-12.391 6.391-51.223 36.2-55.56 41.66-4.337 5.458-68.336 59.624-68.336 59.624l-53.202 54.691-62.234 66.016-42.606 42.319 13.577-4.027z" overflow="visible" opacity=".785" fill="url(#r)" transform="translate(15.854 69.954) scale(.69317)"/><path style="marker:none" d="M607.228 106.873S450.989 187.29 292.561 344.141C134.131 500.992 83.306 596.367 83.306 596.367L43.474 637.54l-1.772-1.67s96.423-164.62 208.96-270.652c243.1-229.024 360.215-257.831 356.565-258.346z" overflow="visible" opacity=".755" fill="url(#s)" transform="translate(15.854 69.954) scale(.69317)"/><path style="marker:none" d="M607.228 106.873S450.989 187.29 292.561 344.141C134.131 500.992 83.306 596.367 83.306 596.367L43.474 637.54l-1.772-1.67s96.423-164.62 208.96-270.652c243.1-229.024 360.215-257.831 356.565-258.346z" overflow="visible" fill="url(#t)" transform="translate(15.854 69.954) scale(.69317)"/><path style="marker:none" d="M182.914 474.232s50.398-17.495 87.66-38.095c37.261-20.6 39.548-17.165 50.212-27.959 10.665-10.793 26.65-21.4 26.65-21.4l-25.427-14.462 31.859 10.135s20.958-15.596 31.906-30.954 21.471-23.87 31.995-32.381c10.523-8.512 13.207-11.496 13.207-11.496l-32.123-19.315 34.205 15.292s15.188-8.509 28.127-23.743c12.94-15.235 41.84-46.089 48.31-53.706 6.47-7.618 35.695-27.57 54.326-37.87 18.63-10.3 39.324-21.618 51.698-27.724 12.373-6.106 34.16-18.93 34.16-18.93l-7.448-16.928-10.744-12.12s2.62-12.724 7.042-14.168c4.42-1.444 39.126-13.04 43.392-17.357 4.266-4.317 11.425-23.06 11.425-23.06l-8.395-12.404-42.266 31.458 15.7-27.52-14.476 2.396s-15.227 25.259-17.59 31.126c-2.362 5.867-20.46 26.366-20.46 26.366s-51.049 25.33-57.815 32.356c-6.766 7.026-84.378 65.789-96.769 72.18-12.391 6.391-51.223 36.2-55.56 41.66-4.337 5.458-68.336 59.624-68.336 59.624l-53.202 54.691-62.234 66.016-42.606 42.319 13.577-4.027z" overflow="visible" opacity=".722" fill="url(#u)" transform="translate(15.854 69.954) scale(.69317)"/><path style="marker:none" d="M159.666 464.875s128.31-129.503 166.562-166.078C364.48 262.222 469.35 185.675 469.35 185.675s90.873-60.375 96.918-61.146c6.046-.771 33.476-15.967 33.476-15.967l11.754-6.86s1.773-23.229.993-32.154c-.78-8.926-21.211 3.554-21.211 3.554l-8.386 11.65-4.694-7.593s-64.658 24.486-84.497 38.148c-19.84 13.661-22.668 24.368-22.668 24.368l-5.043 27.608s-.953-11.514-2.414-20.195c-1.461-8.682 3.53-13.956 3.53-13.956s-41.45 26.354-51.903 33.724c-10.452 7.37-30.38 22.458-30.38 22.458l-.527 16.577 4.522 15.743s-10.21-12.66-9.628-22.073c.584-9.414-73.365 57.45-73.365 57.45l8.37 20.851-14.287-16.778s-54.458 64.207-59.631 67.036c-5.174 2.83-14.622 10.12-14.622 10.12l17.978 10.993-22.927-3.712s-71.835 78.45-61.042 119.354z" overflow="visible" fill="url(#v)" transform="translate(15.854 69.954) scale(.69317)"/><path style="marker:none" d="M182.914 474.232s50.398-17.495 87.66-38.095c37.261-20.6 39.548-17.165 50.212-27.959 10.665-10.793 26.65-21.4 26.65-21.4l-25.427-14.462 31.859 10.135s20.958-15.596 31.906-30.954 21.471-23.87 31.995-32.381c10.523-8.512 13.207-11.496 13.207-11.496l-32.123-19.315 34.205 15.292s15.188-8.509 28.127-23.743c12.94-15.235 41.84-46.089 48.31-53.706 6.47-7.618 35.695-27.57 54.326-37.87 18.63-10.3 39.324-21.618 51.698-27.724 12.373-6.106 34.16-18.93 34.16-18.93l-7.448-16.928-10.744-12.12s2.62-12.724 7.042-14.168c4.42-1.444 39.126-13.04 43.392-17.357 4.266-4.317 11.425-23.06 11.425-23.06l-8.395-12.404-42.266 31.458 15.7-27.52-14.476 2.396s-15.227 25.259-17.59 31.126c-2.362 5.867-20.46 26.366-20.46 26.366s-51.049 25.33-57.815 32.356c-6.766 7.026-84.378 65.789-96.769 72.18-12.391 6.391-51.223 36.2-55.56 41.66-4.337 5.458-68.336 59.624-68.336 59.624l-53.202 54.691-62.234 66.016-42.606 42.319 13.577-4.027z" overflow="visible" opacity=".695" fill="url(#w)" transform="translate(15.854 69.954) scale(.69317)"/><path style="marker:none" d="M663.922 164.582a150.492 150.492 0 005.63-5.556c-1.083-6.033-2.802-13.612-5.415-19.645-3.884-8.966-21.963-22.65-30.755-28.932 3.289 2.289 10.656 7.401 24.68 17.222 9.09 6.366 15.711 15.04 19.89 21.66 20.301-25.908 27.998-58.008 14.914-102.277-6.018-7.556-26.956-6.227-56.552 1.944a2362.597 2362.597 0 01-8.4 20.685c-5.732 13.878-8.223 19.498-8.223 19.498s4.614-23 6.088-37.071c-82.051 25.303-218.104 95.337-298.433 173.861C153.1 396.303 138.57 453.805 162.978 480.161c116.799-45.184 102.527 25.28 268.194-140.612 74.4-74.501 174.867-120.617 232.75-174.967z" overflow="visible" fill="url(#x)" transform="translate(15.854 69.954) scale(.69317)"/></svg>