<svg xmlns="http://www.w3.org/2000/svg" viewBox="0 0 512 512"><g fill="none" fill-rule="evenodd"><path fill="#0063B1" d="M0 0h512v512H0z"/><path d="M182.044 352.323c-18.488 0-33.53-15.076-33.53-33.747 0-18.665 15.042-33.74 33.53-33.74 18.49 0 33.53 15.075 33.53 33.74 0 18.671-15.04 33.747-33.53 33.747m0-90.636c31.449 0 56.89 25.503 56.89 56.89 0 31.39-25.441 56.888-56.89 56.888a56.63 56.63 0 01-31.601-9.586l-43.327 43.332-16.094-16.088 43.43-43.434c-5.86-8.943-9.296-19.621-9.296-31.113 0-31.386 25.44-56.889 56.888-56.889zm-39.822-96.711V142.22h227.556v22.756H142.222zm0 62.577v-22.755h227.556v22.755H142.222zm114.334 62.58c-3.197-8.345-7.703-16.031-13.358-22.755h126.578v22.755h-113.22zm-2.445 62.578a78.844 78.844 0 006.861-22.755h108.806v22.755H254.11z" fill="#FFF"/></g></svg>