<svg xmlns="http://www.w3.org/2000/svg" viewBox="0 0 512 512"><g fill="none" fill-rule="evenodd"><path fill="#0063B1" d="M0 0h512v512H0z"/><path d="M272.183 312.94c-43.97 0-79.666-35.64-79.666-79.667s35.696-79.667 79.666-79.667 79.667 35.64 79.667 79.667-35.697 79.666-79.667 79.666m0-182.095c-56.597 0-102.428 45.888-102.428 102.429 0 25.846 9.65 49.399 25.453 67.426l-81.43 81.43 16.092 16.093 82.17-82.164c16.896 12.297 37.632 19.643 60.143 19.643 56.598 0 102.429-45.888 102.429-102.428S328.78 130.844 272.183 130.844" fill="#FFF"/><path d="M272.142 256c-12.567 0-22.755-10.189-22.755-22.756 0-12.566 10.188-22.755 22.755-22.755 12.567 0 22.756 10.189 22.756 22.755 0 12.567-10.189 22.756-22.756 22.756zm43.076-34.657a44.596 44.596 0 00-4.238-10.183l6.975-12.515-11.213-11.213-12.516 6.974a44.533 44.533 0 00-10.188-4.238l-3.965-13.812h-15.861l-3.965 13.812a44.533 44.533 0 00-10.189 4.238l-12.516-6.974-11.212 11.213 6.974 12.515a44.596 44.596 0 00-4.238 10.183l-13.813 3.965v15.872l13.813 3.966a44.596 44.596 0 004.238 10.183l-6.974 12.515 11.212 11.213 12.516-6.975a44.533 44.533 0 0010.189 4.239l3.965 13.812h15.86l3.966-13.812a44.533 44.533 0 0010.188-4.239l12.516 6.975 11.213-11.213-6.975-12.515a44.596 44.596 0 004.238-10.183l13.813-3.966v-15.872l-13.813-3.965z" fill="#FFF"/></g></svg>