<svg xmlns="http://www.w3.org/2000/svg" viewBox="0 0 512 512"><g fill="none" fill-rule="evenodd"><path fill="#0063B1" d="M0 0h512v512H0z"/><path fill="#FFF" d="M284.444 364.087h79.64v-79.645h-79.64zm0-136.534h79.64v-79.638h-79.64zm-136.533 0h79.645v-79.638H147.91zM211.206 347.9c-13.238 13.238-34.503 13.363-47.497.37-12.988-12.994-12.862-34.259.376-47.497s34.503-13.363 47.496-.375c12.994 12.999 12.868 34.258-.375 47.502m-63.54-63.54c-19.416 19.417-22.044 49.255-7.736 71.231L96.71 398.81l16.094 16.088 43.139-43.144c22.016 14.643 52.127 12.111 71.68-7.442 22.26-22.26 22.47-58.225.37-80.327-22.102-22.101-58.061-21.89-80.328.376"/></g></svg>