<svg xmlns="http://www.w3.org/2000/svg" viewBox="0 0 50 50"><path fill="#7A7A7A" d="M50 27.7V22l-.8-.2-6.1-2-1.6-3.9 3.1-6.6-4-4.1-.8.4-5.7 2.9-3.9-1.6L27.7 0H22l-.2.8-2 6.1-3.9 1.6-6.6-3.1-4.1 4 .4.8 2.9 5.7-1.6 3.9L0 22.3V28l.8.2 6.1 2 1.6 3.9-3.1 6.7 4 4 .8-.4 5.7-2.9 3.9 1.6 2.5 6.9H28l.2-.8 2-6.1 3.9-1.6 6.7 3.1 4-4-.4-.8-2.9-5.7 1.6-3.9z"/><path opacity=".2" fill="#FFF" d="M39.7 5.6l-5.6 2.9-3.9-1.6L27.7 0H22l-.3.8-2 6.1-3.9 1.6-6.6-3.1-4 4 .4.8 2.9 5.7-1.6 3.9L0 22.3V28l.8.3 6.1 2 1.6 3.9-3.1 6.6 4 4 .8-.4 2.4-1.2 3.5-4.8 19-26.3 4.6-6.5z"/><g clip-rule="evenodd" fill-rule="evenodd"><path d="M22.417 29.348H17.42c-2.47 0-4.492-2.046-4.492-4.604 0-2.557 1.909-4.604 4.492-4.604.449 0 .955.114 1.516.17l.954.285.281-.966c.899-2.956 3.706-4.775 6.907-4.775 3.874 0 6.85 3.013 6.85 6.935 0 .625-.113 1.25-.281 1.875l-.393 1.421 1.516-.17h.28c1.124 0 2.022.966 2.022 2.046 0 1.08-.786 1.876-1.74 2.046h-4.998c-.168-1.42-.898-2.671-1.853-3.637-1.235-1.25-2.92-1.99-4.66-1.99-1.235 0-2.47.341-3.425.966l1.067 1.706c.786-.455 1.572-.626 2.47-.626 1.236 0 2.47.455 3.257 1.421.898.91 1.403 2.047 1.403 3.297s-.449 2.501-1.403 3.297a4.314 4.314 0 01-3.257 1.42 4.27 4.27 0 01-2.47-.795l-1.067 1.705c1.067.626 2.302 1.08 3.425 1.08 1.74 0 3.425-.625 4.66-1.932 1.067-1.08 1.685-2.501 1.853-3.98h5.222c2.021-.17 3.537-1.932 3.537-4.092 0-1.705-1.572-3.296-3.425-3.637.113-.342.113-.512.113-1.08 0-5.002-3.482-8.981-9.04-8.981-3.538 0-6.682 2.046-7.974 5.343-.449 0-.786-.17-1.29-.17-3.65-.057-6.57 2.785-6.57 6.422 0 3.581 2.92 6.423 6.4 6.423h5.503l-.393-1.819z" fill="#59b3d8"/><path d="M23.709 26.904c1.74 0 3.144 1.421 3.144 3.183 0 1.762-1.404 3.183-3.144 3.183-1.741 0-3.145-1.42-3.145-3.183 0-1.762 1.404-3.183 3.145-3.183z" fill="#68217a"/></g></svg>