<svg xmlns="http://www.w3.org/2000/svg" viewBox="0 0 48 47"><path d="M0 37.9h48V1H0v36.9z" fill="#0078D4"/><path d="M0 5h48V0H0v5z" fill="#50E6FF"/><path d="M7.5 3.802c.7 0 1.2-.5 1.2-1.2s-.6-1.2-1.2-1.2c-.7 0-1.2.5-1.2 1.2s.5 1.2 1.2 1.2zm-3.8 0c.7 0 1.2-.5 1.2-1.2s-.5-1.2-1.2-1.2-1.2.5-1.2 1.2.5 1.2 1.2 1.2zm7.6 0c.7 0 1.2-.5 1.2-1.2s-.5-1.2-1.2-1.2-1.2.5-1.2 1.2.6 1.2 1.2 1.2z" fill="#0078D4"/><path d="M20.7 14.1L11.8 23l3.6 3.6 6.4-6.4v26.1h5.1V20.2l6.4 6.4 3.6-3.6-8.9-8.9-3.6-3.6-3.7 3.6z" fill="#50E6FF"/></svg>