<svg xmlns="http://www.w3.org/2000/svg" viewBox="0 0 50 49"><path d="M20.306.359h-5.117v5.116h5.117V.36z" fill="#0078D4"/><path d="M27.554.359h-5.117v5.116h5.117V.36z" fill="#50E6FF"/><path d="M27.554 7.606h-5.117v5.117h5.117V7.606z" fill="#0078D4"/><path d="M34.803 7.606h-5.117v5.117h5.117V7.606z" fill="#50E6FF"/><path d="M34.803 14.856h-5.117v5.117h5.117v-5.117z" fill="#0078D4"/><path d="M42.051 14.856h-5.116v5.117h5.116v-5.117z" fill="#50E6FF"/><path d="M5.808 22.104H.692v5.116h5.116v-5.116zm7.249 0H7.941v5.116h5.116v-5.116zm7.249 0h-5.117v5.116h5.117v-5.116zm4.69 5.116a2.555 2.555 0 01-2.559-2.558 2.555 2.555 0 012.559-2.558 2.555 2.555 0 012.558 2.558 2.566 2.566 0 01-2.558 2.558zm9.807-5.116h-5.117v5.116h5.117v-5.116zm7.248 0h-5.116v5.116h5.116v-5.116z" fill="#0078D4"/><path d="M49.3 22.104h-5.117v5.116H49.3v-5.116z" fill="#50E6FF"/><path d="M34.803 29.355h-5.117v5.116h5.117v-5.116z" fill="#0078D4"/><path d="M39.493 34.471a2.555 2.555 0 01-2.558-2.558 2.555 2.555 0 012.558-2.558 2.555 2.555 0 012.558 2.558 2.566 2.566 0 01-2.558 2.558z" fill="#50E6FF"/><path d="M24.996 41.718a2.555 2.555 0 01-2.559-2.559 2.555 2.555 0 012.559-2.558 2.555 2.555 0 012.558 2.558 2.566 2.566 0 01-2.558 2.559z" fill="#0078D4"/><path d="M34.803 36.601h-5.117v5.117h5.117V36.6z" fill="#50E6FF"/><path d="M20.306 43.852h-5.117v5.117h5.117v-5.117z" fill="#0078D4"/><path d="M27.554 43.852h-5.117v5.117h5.117v-5.117z" fill="#50E6FF"/></svg>