<svg xmlns="http://www.w3.org/2000/svg" viewBox="0 0 48 49"><path d="M41.85 2.805l3.6 3.593-19.6 19.61-3.6-3.593 19.6-19.61z" fill="#0078D4"/><path d="M26.1 22.865L8.5 5.301h6.7V.211H0v15.12h5.1V9.143l17.4 17.365 3.6-3.643z" fill="#50E6FF"/><path d="M26.1 25.708l-3.6-3.593L5.1 39.48v-6.487H0v15.17h15.15v-5.09H8.7l17.4-17.365z" fill="#50E6FF"/><path d="M48 15.38V.211H32.85v5.09H42.9v10.08H48z" fill="#0078D4"/><path d="M42.9 33.044v6.586L25.85 22.615l-3.65 3.592 16.9 16.866h-6.3v5.09H48v-15.12h-5.1z" fill="#50E6FF"/></svg>