<svg xmlns="http://www.w3.org/2000/svg" viewBox="0 0 48 48"><path d="M42.414 5.008H6.006v7.664h36.408V5.008z" fill="#50E6FF"/><path d="M42.414 14.586H6.006v7.665h36.408v-7.665zm0 9.582H6.006v7.665h36.408v-7.665zm0 9.578H6.006v7.665h36.408v-7.665z" fill="#0078D4"/><path d="M40.897 8.185h-2.428V5.758h-1.214v2.427h-2.427V9.4h2.427v2.428h1.214V9.399h2.428V8.185z" fill="#0078D7"/><path d="M16.583 23.002L9 30.459h4.203v13.025h6.678V30.46h4.291l-7.589-7.457zm22.079 13.28v1.929h1.93v-1.93h-1.93zm-3.834 0v1.929h1.93v-1.93h-1.93zm3.834-9.602v1.93h1.93v-1.93h-1.93zm-3.834 0v1.93h1.93v-1.93h-1.93zm3.834-9.543v1.93h1.93v-1.93h-1.93zm-3.834 0v1.93h1.93v-1.93h-1.93z" fill="#50E6FF"/></svg>