<svg xmlns="http://www.w3.org/2000/svg" viewBox="0 0 48 48"><path d="M46.563 22.665H17.957a8.77 8.77 0 00-2.55-4.986 9.09 9.09 0 00-6.382-2.59 9.09 9.09 0 00-6.383 2.59 8.707 8.707 0 000 12.495 9.09 9.09 0 006.383 2.59 9.09 9.09 0 006.383-2.59 8.744 8.744 0 002.55-4.987H36.2v3.451h7.752v-3.45h2.61v-2.523zm-32.982 5.72a6.473 6.473 0 01-4.556 1.848 6.488 6.488 0 01-4.557-1.848 6.228 6.228 0 010-8.918 6.473 6.473 0 014.557-1.847c1.723 0 3.333.658 4.556 1.847a6.208 6.208 0 011.887 4.463 6.203 6.203 0 01-1.887 4.455z" fill="#0078D4"/><path d="M48 6.277L41.583 0v4.218H.1v4.463h41.483v3.881L48 6.277zm0 35.438l-6.417-6.278v4.219H.1v4.463h41.483V48L48 41.715z" fill="#50E6FF"/></svg>