<svg xmlns="http://www.w3.org/2000/svg" viewBox="0 0 48 48"><path d="M39.349 33.443l-1.765 1.765 4.104 4.104h-6.21a19.772 19.772 0 01-3.829 2.497h10.122l-4.187 4.187 1.765 1.764 7.158-7.158-7.158-7.159zM7.386 23.93a15.27 15.27 0 012.747-8.758l-1.798-1.798A17.736 17.736 0 004.889 23.93c0 4.778 1.856 9.265 5.235 12.644.383.383.783.75 1.19 1.09h4.529c-5.011-2.538-8.457-7.74-8.457-13.734z" fill="#0078D4"/><path d="M22.76 39.312s-.009 0 0 0H1.492v2.497h21.276-.008c9.822-.033 17.77-8.09 17.77-17.921 0-9.83-7.957-17.805-17.779-17.838H10.174l4.054-4.054L12.455.24 5.296 7.398l4.37 4.37 2.789 2.789 1.764-1.765-2.73-2.73-1.507-1.507h12.769c8.457.034 15.3 6.867 15.3 15.333 0 8.465-6.843 15.39-15.291 15.424z" fill="#50E6FF"/></svg>