<svg xmlns="http://www.w3.org/2000/svg" viewBox="0 0 48 48"><path d="M37.848 12.562h10.118V2.45H37.848v10.112z" fill="#50E6FF"/><path d="M22.544 41.41c.008-.051.017-.102.033-.152a5.107 5.107 0 00-5.017-6.07c-.396 0-.783.041-1.145.134a6.565 6.565 0 00-5.556-3.056 6.579 6.579 0 00-6.574 6.575v.27a3.325 3.325 0 00-1.052-.177A3.221 3.221 0 000 42.159a3.235 3.235 0 002.913 3.216l14.639.025a5.11 5.11 0 004.47-2.627c.025-.042.05-.084.076-.135.126-.26.32-.681.446-1.229zm12.762-26.347H23.293v3.485h6.137L17.729 30.235l2.45 2.45L31.87 20.99v6.13h3.485V15.061h-.05z" fill="#0078D4"/></svg>