<svg xmlns="http://www.w3.org/2000/svg" viewBox="0 0 48 49"><path d="M38.686 23.632a3.918 3.918 0 00-3.916 3.924 3.918 3.918 0 003.916 3.923 3.918 3.918 0 003.916-3.923c0-2.16-1.76-3.924-3.916-3.924z" fill="#0078D7"/><path d="M38.686 30.612a3.05 3.05 0 003.048-3.054 3.05 3.05 0 00-3.048-3.055 3.05 3.05 0 00-3.048 3.055 3.05 3.05 0 003.048 3.054z" fill="#50E6FF"/><path d="M38.686 31.405a3.847 3.847 0 010-7.695 3.842 3.842 0 013.84 3.848c-.008 2.126-1.726 3.847-3.84 3.847zm0-6.1a2.26 2.26 0 00-2.257 2.261 2.26 2.26 0 002.257 2.262 2.26 2.26 0 002.257-2.262 2.27 2.27 0 00-2.257-2.26zM8.893 31.49a3.92 3.92 0 003.916-3.923 3.92 3.92 0 00-3.916-3.923 3.92 3.92 0 00-3.916 3.923 3.92 3.92 0 003.916 3.924z" fill="#0078D7"/><path d="M8.893 30.612a3.05 3.05 0 003.048-3.054 3.05 3.05 0 00-3.048-3.055 3.05 3.05 0 00-3.049 3.055 3.05 3.05 0 003.049 3.054z" fill="#50E6FF"/><path d="M8.893 31.405a3.847 3.847 0 010-7.695 3.842 3.842 0 013.84 3.848 3.847 3.847 0 01-3.84 3.847zm0-6.1a2.26 2.26 0 00-2.257 2.261 2.26 2.26 0 002.257 2.262 2.26 2.26 0 002.257-2.262 2.265 2.265 0 00-2.257-2.26z" fill="#0078D7"/><path d="M46.872 24.274c-.514-1.51-1.625-1.907-3.444-2.337-1.819-.439-7.318-1.266-8.067-1.426-.472-.076-1.23-.354-2.687-1.19-1.465-.835-4.471-2.26-7.402-2.733-2.93-.473-5.457-.44-9.137-.194-3.68.236-7.318 2.337-8.623 2.936-1.305.599-3.958.75-4.985.717-1.027-.034-1.263.236-1.305.75-.042.516.193 1.984.193 1.984-.075.278-.867 1.383-1.027 1.628-.16.236-.076 2.025-.118 2.573-.042.557.792 1.114 1.861 1.469.632.194 1.465.354 1.98.472.16.042.277-.118.235-.278a4.999 4.999 0 01-.076-1.747c.32-2.177 2.173-3.881 4.396-3.965 2.652-.119 4.791 2.024 4.791 4.64 0 .59-.117 1.148-.32 1.662a.294.294 0 00.278.397h20.69a.295.295 0 00.279-.397 4.164 4.164 0 01-.278-2.219 4.584 4.584 0 014.118-4.041c2.77-.279 5.06 1.906 5.06 4.598 0 .515-.075 1.03-.277 1.51-.076.237.118.44.354.44a88.732 88.732 0 002.812-.322c.985-.118 1.145-.472 1.145-.793-.008-.329.068-2.632-.446-4.134z" fill="#0078D7"/><path d="M21.915 9.584a6.24 6.24 0 014.441 1.838L27.83 9.95a8.334 8.334 0 00-5.914-2.45c-2.14 0-4.28.815-5.915 2.45l1.473 1.473a6.241 6.241 0 014.442-1.838zm0 4.267a2 2 0 011.424.59l1.474-1.474c-.8-.8-1.845-1.2-2.898-1.2a4.09 4.09 0 00-2.898 1.2l1.474 1.474a2 2 0 011.424-.59z" fill="#0078D4"/><path d="M12.253 21.414l.076-1.148c.118-.118.193-.194.32-.278 1.423-1.148 3.402-1.823 5.819-1.983a31.009 31.009 0 011.979-.076l.395 3.485h-8.59zm10.29 0l-.472-3.485c1.777.076 3.478.32 4.43.633 1.903.675 2.77 1.147 3.444 1.628h-.32a.44.44 0 00-.438.44l-.076.75h-6.568v.034z" fill="#50E6FF"/></svg>