<svg xmlns="http://www.w3.org/2000/svg" viewBox="0 0 50 50"><path fill="#0072C6" d="M11.95 32h8v2h-8z"/><path fill="#0072C6" d="M38 16.1c-.662 0-1.308.069-1.939.182C34.127 10.931 29.018 7.1 23 7.1 15.323 7.1 9.1 13.323 9.1 21c0 .433.026.861.065 1.284C4.572 23.166 1.1 27.2 1.1 32.05c0 5.478 4.428 9.92 9.9 9.948V42h8.95v-2h-8.947L11 39.997c-4.36-.027-7.9-3.581-7.9-7.947a7.952 7.952 0 016.442-7.802l1.78-.342-.166-1.805A12.044 12.044 0 0111.1 21c0-6.562 5.338-11.9 11.9-11.9 4.987 0 9.48 3.159 11.18 7.861l.573 1.585 1.66-.297a8.968 8.968 0 011.587-.15c4.907 0 8.9 3.993 8.9 8.9 0 4.963-3.993 9-8.9 9H12v2h26c6.02 0 10.9-4.98 10.9-11S44.02 16.1 38 16.1z"/></svg>