<svg xmlns="http://www.w3.org/2000/svg" viewBox="0 0 96 71"><path d="M37.856 50.313H21.79v4.04h16.067v-4.04z" fill="#CDCDD0"/><path d="M74.109 18.186c-1.33 0-2.627.14-3.894.368C66.33 7.74 56.07 0 43.983 0 28.565 0 16.067 12.575 16.067 28.087c0 .875.052 1.74.13 2.595C6.974 32.464 0 40.615 0 50.416 0 61.485 8.893 70.46 19.883 70.517v.004h17.975V66.48h-17.97l-.005-.006c-8.757-.055-15.866-7.236-15.866-16.058 0-7.687 5.44-14.319 12.938-15.766l3.575-.69-.334-3.648a24.46 24.46 0 01-.112-2.225c0-13.26 10.72-24.046 23.9-24.046 10.015 0 19.039 6.384 22.453 15.885l1.15 3.203 3.334-.6a17.914 17.914 0 013.188-.304c9.855 0 17.874 8.069 17.874 17.984 0 10.029-8.02 18.186-17.874 18.186H21.89v4.042h52.22C86.199 62.437 96 52.374 96 40.209c0-12.164-9.8-22.023-21.891-22.023z" fill="#CDCDD0"/></svg>