<svg xmlns="http://www.w3.org/2000/svg" viewBox="0 0 36 28"><path d="M34.302 10.321a6.672 6.672 0 00-4.1-2.194 8.543 8.543 0 00-2.675-5.854 8.368 8.368 0 00-5.978-2.27 8.591 8.591 0 00-5.041 1.54 8.729 8.729 0 00-3.222 4.206A7.929 7.929 0 008.354 8.31a8.043 8.043 0 00-1.665 2.877h12.086v10.265h10.518a6.736 6.736 0 004.724-2.002A6.872 6.872 0 0036 14.681a6.79 6.79 0 00-1.698-4.36z" fill="url(#azure-stack-hci:6a11934d-7557-48ea-8112-64abeb905a10-9a9d1019)"/><path d="M18.848 10.51H0v4.848h18.848V10.51z" fill="#0078D4"/><path d="M2.866 14.087a1.152 1.152 0 100-2.303 1.152 1.152 0 000 2.303z" fill="#50E6FF"/><path d="M18.848 16.607H0v4.847h18.848v-4.847z" fill="#0078D4"/><path d="M2.866 20.184a1.152 1.152 0 100-2.304 1.152 1.152 0 000 2.304z" fill="#50E6FF"/><path d="M18.848 22.764H0v4.847h18.848v-4.847z" fill="#0078D4"/><path d="M2.866 26.34a1.152 1.152 0 100-2.304 1.152 1.152 0 000 2.304z" fill="#50E6FF"/><path d="M34.302 10.321a6.672 6.672 0 00-4.1-2.194 8.543 8.543 0 00-2.675-5.854 8.368 8.368 0 00-5.978-2.27 8.591 8.591 0 00-5.041 1.54 8.729 8.729 0 00-3.222 4.206A7.929 7.929 0 008.354 8.31a8.043 8.043 0 00-1.665 2.877h12.086v10.265h10.518a6.736 6.736 0 004.724-2.002A6.872 6.872 0 0036 14.681a6.79 6.79 0 00-1.698-4.36z" fill="url(#azure-stack-hci:69b5f558-531a-46d2-8437-16827ce7221c-4b2053f1)"/><path d="M18.848 10.51H0v4.848h18.848V10.51z" fill="#0078D4"/><path d="M2.866 14.087a1.152 1.152 0 100-2.303 1.152 1.152 0 000 2.303z" fill="#50E6FF"/><path d="M18.848 16.607H0v4.847h18.848v-4.847z" fill="#0078D4"/><path d="M2.866 20.184a1.152 1.152 0 100-2.304 1.152 1.152 0 000 2.304z" fill="#50E6FF"/><path d="M18.848 22.764H0v4.847h18.848v-4.847z" fill="#0078D4"/><path d="M2.866 26.34a1.152 1.152 0 100-2.304 1.152 1.152 0 000 2.304z" fill="#50E6FF"/><path d="M34.302 10.321a6.672 6.672 0 00-4.1-2.194 8.543 8.543 0 00-2.675-5.854 8.368 8.368 0 00-5.978-2.27 8.591 8.591 0 00-5.041 1.54 8.729 8.729 0 00-3.222 4.206A7.929 7.929 0 008.354 8.31a8.043 8.043 0 00-1.665 2.877h12.086v10.265h10.518a6.736 6.736 0 004.724-2.002A6.872 6.872 0 0036 14.681a6.79 6.79 0 00-1.698-4.36z" fill="url(#azure-stack-hci:05499cad-a3cc-473a-be9f-483769b21f67-e2e5287a)"/><path d="M18.848 10.51H0v4.848h18.848V10.51z" fill="#0078D4"/><path d="M2.866 14.087a1.152 1.152 0 100-2.303 1.152 1.152 0 000 2.303z" fill="#50E6FF"/><path d="M18.848 16.607H0v4.847h18.848v-4.847z" fill="#0078D4"/><path d="M2.866 20.184a1.152 1.152 0 100-2.304 1.152 1.152 0 000 2.304z" fill="#50E6FF"/><path d="M18.848 22.764H0v4.847h18.848v-4.847z" fill="#0078D4"/><path d="M2.866 26.34a1.152 1.152 0 100-2.304 1.152 1.152 0 000 2.304z" fill="#50E6FF"/><path d="M34.302 10.321a6.672 6.672 0 00-4.1-2.194 8.543 8.543 0 00-2.675-5.854 8.368 8.368 0 00-5.978-2.27 8.591 8.591 0 00-5.041 1.54 8.729 8.729 0 00-3.222 4.206A7.929 7.929 0 008.354 8.31a8.043 8.043 0 00-1.665 2.877h12.086v10.265h10.518a6.736 6.736 0 004.724-2.002A6.872 6.872 0 0036 14.681a6.79 6.79 0 00-1.698-4.36z" fill="url(#azure-stack-hci:7891e48f-14c8-42dd-b87d-9dca3ec4c48c-9cb8d2d6)"/><path d="M18.848 10.51H0v4.848h18.848V10.51z" fill="#0078D4"/><path d="M2.866 14.087a1.152 1.152 0 100-2.303 1.152 1.152 0 000 2.303z" fill="#50E6FF"/><path d="M18.848 16.607H0v4.847h18.848v-4.847z" fill="#0078D4"/><path d="M2.866 20.184a1.152 1.152 0 100-2.304 1.152 1.152 0 000 2.304z" fill="#50E6FF"/><path d="M18.848 22.764H0v4.847h18.848v-4.847z" fill="#0078D4"/><path d="M2.866 26.34a1.152 1.152 0 100-2.304 1.152 1.152 0 000 2.304z" fill="#50E6FF"/><path d="M34.302 10.321a6.672 6.672 0 00-4.1-2.194 8.543 8.543 0 00-2.675-5.854 8.368 8.368 0 00-5.978-2.27 8.591 8.591 0 00-5.041 1.54 8.729 8.729 0 00-3.222 4.206A7.929 7.929 0 008.354 8.31a8.043 8.043 0 00-1.665 2.877h12.086v10.265h10.518a6.736 6.736 0 004.724-2.002A6.872 6.872 0 0036 14.681a6.79 6.79 0 00-1.698-4.36z" fill="url(#azure-stack-hci:d40a3a8b-cb4d-4e53-9cb2-02a6dda99ffe-c110943d)"/><path d="M18.848 10.51H0v4.848h18.848V10.51z" fill="#0078D4"/><path d="M2.866 14.087a1.152 1.152 0 100-2.303 1.152 1.152 0 000 2.303z" fill="#50E6FF"/><path d="M18.848 16.607H0v4.847h18.848v-4.847z" fill="#0078D4"/><path d="M2.866 20.184a1.152 1.152 0 100-2.304 1.152 1.152 0 000 2.304z" fill="#50E6FF"/><path d="M18.848 22.764H0v4.847h18.848v-4.847z" fill="#0078D4"/><path d="M2.866 26.34a1.152 1.152 0 100-2.304 1.152 1.152 0 000 2.304z" fill="#50E6FF"/><path d="M34.302 10.321a6.672 6.672 0 00-4.1-2.194 8.543 8.543 0 00-2.675-5.854 8.368 8.368 0 00-5.978-2.27 8.591 8.591 0 00-5.041 1.54 8.729 8.729 0 00-3.222 4.206A7.929 7.929 0 008.354 8.31a8.043 8.043 0 00-1.665 2.877h12.086v10.265h10.518a6.736 6.736 0 004.724-2.002A6.872 6.872 0 0036 14.681a6.79 6.79 0 00-1.698-4.36z" fill="url(#azure-stack-hci:ef06d980-c6dd-4e1f-b800-ff6587aa1fd8-f60d0f76)"/><path d="M18.848 10.51H0v4.848h18.848V10.51z" fill="#0078D4"/><path d="M2.866 14.087a1.152 1.152 0 100-2.303 1.152 1.152 0 000 2.303z" fill="#50E6FF"/><path d="M18.848 16.607H0v4.847h18.848v-4.847z" fill="#0078D4"/><path d="M2.866 20.184a1.152 1.152 0 100-2.304 1.152 1.152 0 000 2.304z" fill="#50E6FF"/><path d="M18.848 22.764H0v4.847h18.848v-4.847z" fill="#0078D4"/><path d="M2.866 26.34a1.152 1.152 0 100-2.304 1.152 1.152 0 000 2.304z" fill="#50E6FF"/><path d="M34.302 10.321a6.672 6.672 0 00-4.1-2.194 8.543 8.543 0 00-2.675-5.854 8.368 8.368 0 00-5.978-2.27 8.591 8.591 0 00-5.041 1.54 8.729 8.729 0 00-3.222 4.206A7.929 7.929 0 008.354 8.31a8.043 8.043 0 00-1.665 2.877h12.086v10.265h10.518a6.736 6.736 0 004.724-2.002A6.872 6.872 0 0036 14.681a6.79 6.79 0 00-1.698-4.36z" fill="url(#azure-stack-hci:d1ef1007-bc68-40cb-b1ef-7396be72c7e7-d51619cd)"/><path d="M18.848 10.51H0v4.848h18.848V10.51z" fill="#0078D4"/><path d="M2.866 14.087a1.152 1.152 0 100-2.303 1.152 1.152 0 000 2.303z" fill="#50E6FF"/><path d="M18.848 16.607H0v4.847h18.848v-4.847z" fill="#0078D4"/><path d="M2.866 20.184a1.152 1.152 0 100-2.304 1.152 1.152 0 000 2.304z" fill="#50E6FF"/><path d="M18.848 22.764H0v4.847h18.848v-4.847z" fill="#0078D4"/><path d="M2.866 26.34a1.152 1.152 0 100-2.304 1.152 1.152 0 000 2.304z" fill="#50E6FF"/><path d="M34.302 10.321a6.672 6.672 0 00-4.1-2.194 8.543 8.543 0 00-2.675-5.854 8.368 8.368 0 00-5.978-2.27 8.591 8.591 0 00-5.041 1.54 8.729 8.729 0 00-3.222 4.206A7.929 7.929 0 008.354 8.31a8.043 8.043 0 00-1.665 2.877h12.086v10.265h10.518a6.736 6.736 0 004.724-2.002A6.872 6.872 0 0036 14.681a6.79 6.79 0 00-1.698-4.36z" fill="url(#azure-stack-hci:a1883467-0827-4469-bfa4-6ee320e53eec-f275098d)"/><path d="M18.848 10.51H0v4.848h18.848V10.51z" fill="#0078D4"/><path d="M2.866 14.087a1.152 1.152 0 100-2.303 1.152 1.152 0 000 2.303z" fill="#50E6FF"/><path d="M18.848 16.607H0v4.847h18.848v-4.847z" fill="#0078D4"/><path d="M2.866 20.184a1.152 1.152 0 100-2.304 1.152 1.152 0 000 2.304z" fill="#50E6FF"/><path d="M18.848 22.764H0v4.847h18.848v-4.847z" fill="#0078D4"/><path d="M2.866 26.34a1.152 1.152 0 100-2.304 1.152 1.152 0 000 2.304z" fill="#50E6FF"/><path d="M34.302 10.321a6.672 6.672 0 00-4.1-2.194 8.543 8.543 0 00-2.675-5.854 8.368 8.368 0 00-5.978-2.27 8.591 8.591 0 00-5.041 1.54 8.729 8.729 0 00-3.222 4.206A7.929 7.929 0 008.354 8.31a8.043 8.043 0 00-1.665 2.877h12.086v10.265h10.518a6.736 6.736 0 004.724-2.002A6.872 6.872 0 0036 14.681a6.79 6.79 0 00-1.698-4.36z" fill="url(#azure-stack-hci:4bb6119a-818a-42fd-98bf-0fd6ca3bfd19-0d54cad5)"/><path d="M18.848 10.51H0v4.848h18.848V10.51z" fill="#50E6FF"/><path d="M2.866 14.087a1.152 1.152 0 100-2.303 1.152 1.152 0 000 2.303z" fill="#fff"/><path d="M18.848 16.607H0v4.847h18.848v-4.847z" fill="#50E6FF"/><path d="M2.866 20.184a1.152 1.152 0 100-2.304 1.152 1.152 0 000 2.304z" fill="#fff"/><path d="M18.848 22.764H0v4.847h18.848v-4.847z" fill="#50E6FF"/><path d="M2.866 26.34a1.152 1.152 0 100-2.304 1.152 1.152 0 000 2.304z" fill="#fff"/><defs><linearGradient id="azure-stack-hci:6a11934d-7557-48ea-8112-64abeb905a10-9a9d1019" x1="22.137" y1="24.878" x2="20.485" y2="-.146" gradientUnits="userSpaceOnUse"><stop stop-color="#0078D4"/><stop offset=".16" stop-color="#1380DA"/><stop offset=".53" stop-color="#3C91E5"/><stop offset=".82" stop-color="#559CEC"/><stop offset="1" stop-color="#5EA0EF"/></linearGradient><linearGradient id="azure-stack-hci:69b5f558-531a-46d2-8437-16827ce7221c-4b2053f1" x1="22.137" y1="24.878" x2="20.485" y2="-.146" gradientUnits="userSpaceOnUse"><stop stop-color="#0078D4"/><stop offset=".16" stop-color="#1380DA"/><stop offset=".53" stop-color="#3C91E5"/><stop offset=".82" stop-color="#559CEC"/><stop offset="1" stop-color="#5EA0EF"/></linearGradient><linearGradient id="azure-stack-hci:05499cad-a3cc-473a-be9f-483769b21f67-e2e5287a" x1="22.137" y1="24.878" x2="20.485" y2="-.146" gradientUnits="userSpaceOnUse"><stop stop-color="#0078D4"/><stop offset=".16" stop-color="#1380DA"/><stop offset=".53" stop-color="#3C91E5"/><stop offset=".82" stop-color="#559CEC"/><stop offset="1" stop-color="#5EA0EF"/></linearGradient><linearGradient id="azure-stack-hci:7891e48f-14c8-42dd-b87d-9dca3ec4c48c-9cb8d2d6" x1="22.137" y1="24.878" x2="20.485" y2="-.146" gradientUnits="userSpaceOnUse"><stop stop-color="#0078D4"/><stop offset=".16" stop-color="#1380DA"/><stop offset=".53" stop-color="#3C91E5"/><stop offset=".82" stop-color="#559CEC"/><stop offset="1" stop-color="#5EA0EF"/></linearGradient><linearGradient id="azure-stack-hci:d40a3a8b-cb4d-4e53-9cb2-02a6dda99ffe-c110943d" x1="22.137" y1="24.878" x2="20.485" y2="-.146" gradientUnits="userSpaceOnUse"><stop stop-color="#0078D4"/><stop offset=".16" stop-color="#1380DA"/><stop offset=".53" stop-color="#3C91E5"/><stop offset=".82" stop-color="#559CEC"/><stop offset="1" stop-color="#5EA0EF"/></linearGradient><linearGradient id="azure-stack-hci:ef06d980-c6dd-4e1f-b800-ff6587aa1fd8-f60d0f76" x1="22.137" y1="24.878" x2="20.485" y2="-.146" gradientUnits="userSpaceOnUse"><stop stop-color="#0078D4"/><stop offset=".16" stop-color="#1380DA"/><stop offset=".53" stop-color="#3C91E5"/><stop offset=".82" stop-color="#559CEC"/><stop offset="1" stop-color="#5EA0EF"/></linearGradient><linearGradient id="azure-stack-hci:d1ef1007-bc68-40cb-b1ef-7396be72c7e7-d51619cd" x1="22.137" y1="24.878" x2="20.485" y2="-.146" gradientUnits="userSpaceOnUse"><stop stop-color="#0078D4"/><stop offset=".16" stop-color="#1380DA"/><stop offset=".53" stop-color="#3C91E5"/><stop offset=".82" stop-color="#559CEC"/><stop offset="1" stop-color="#5EA0EF"/></linearGradient><linearGradient id="azure-stack-hci:a1883467-0827-4469-bfa4-6ee320e53eec-f275098d" x1="22.137" y1="24.878" x2="20.485" y2="-.146" gradientUnits="userSpaceOnUse"><stop stop-color="#0078D4"/><stop offset=".16" stop-color="#1380DA"/><stop offset=".53" stop-color="#3C91E5"/><stop offset=".82" stop-color="#559CEC"/><stop offset="1" stop-color="#5EA0EF"/></linearGradient><linearGradient id="azure-stack-hci:4bb6119a-818a-42fd-98bf-0fd6ca3bfd19-0d54cad5" x1="22.137" y1="24.878" x2="20.485" y2="-.146" gradientUnits="userSpaceOnUse"><stop stop-color="#0078D4"/><stop offset=".16" stop-color="#1380DA"/><stop offset=".53" stop-color="#3C91E5"/><stop offset=".82" stop-color="#559CEC"/><stop offset="1" stop-color="#5EA0EF"/></linearGradient></defs></svg>