<svg xmlns="http://www.w3.org/2000/svg" width="50" height="50">
    <path fill="#59B4D9" d="M44.352 22.649h-.784c.313-1.41.627-2.821.627-4.231 0-8.776-6.269-15.829-15.045-15.829-6.896 0-12.851 4.545-14.888 10.814-1.097-.313-2.351-.627-3.604-.627C4.858 12.776 0 17.791 0 23.746c0 6.269 4.388 10.5 10.343 10.5h4.231v-2.664h11.911v5.328H38.24v-2.664h6.112c3.291 0 5.642-2.351 5.642-5.642.156-3.291-2.508-5.955-5.642-5.955zm-18.023 6.269H14.575V26.41h11.754v2.508zm0-5.172H14.575v-2.508h11.754v2.508zm.157 15.829H38.24v2.508H26.486zm0 5.328H38.24v2.508H26.486z"/>
    <path opacity=".2" d="M19.594 16.391c1.2-.3 2.4-.3 3.5-.2.499-5.393 4.752-10.792 9.545-13.196a15.42 15.42 0 00-3.489-.405c-6.896 0-12.851 4.545-14.888 10.814-1.097-.313-2.351-.627-3.604-.627C4.858 12.776 0 17.791 0 23.746c0 6.269 4.388 10.5 10.343 10.5h4.212a10.687 10.687 0 01-2.861-5.156c-1.3-5.699 2.2-11.399 7.9-12.699zM32.656 2.985l-.017.009.01.003.007-.012z" fill="#FFF"/>
</svg>
