<svg xmlns="http://www.w3.org/2000/svg" fill="none" viewBox="0 0 72 85"><rect width="100%" height="100%"/><g class="currentLayer"><path d="M62.19 14.517h-.264C61.256 6.38 55.013 0 47.371 0 42.18 0 37.63 2.967 35.032 7.434a12.665 12.665 0 00-2.712-.32c-7.176 0-12.98 6.35-12.98 14.199 0 7.848 5.804 14.197 12.98 14.197h29.87c5.279 0 9.596-4.69 9.596-10.496 0-5.807-4.317-10.497-9.597-10.497z" fill="#6BBCDA"/><path d="M39.029 11.486c1.02 0 2.041.127 3.004.35 2.48-4.913 7.263-8.263 12.776-8.263.67 0 1.342.064 1.984.16C54.226 1.403 50.959 0 47.37 0c-5.19 0-9.74 2.967-12.338 7.434a12.665 12.665 0 00-2.712-.32c-7.176 0-12.98 6.35-12.98 14.199 0 5.647 3.033 10.528 7.408 12.825-1.108-2.17-1.72-4.69-1.72-7.338.028-8.487 6.27-15.314 14-15.314z" fill="#8ACAE1"/><path d="M0 30.756v41.86c0 7.05 10.18 12.762 22.752 12.794V40.328L0 30.756z" fill="#50A7E1"/><path d="M16.16 21.313c0-.607.029-1.18.087-1.787C6.855 21.057 0 25.81 0 31.458c0 6.892 10.18 12.475 22.752 12.475v-8.359c-3.996-3.254-6.592-8.423-6.592-14.261zm24.794 17.675H32.32c-3.588 0-6.884-1.276-9.568-3.446v8.36h.03c7.438.031 14.03-1.915 18.172-4.914z" fill="#C0D557"/><path d="M39.329 63.523l.116-.287 1.08-2.84.116-.287 1.138-2.935 2.684 1.244.262.128.583.255V39.05H40.7c-4.172 3-10.735 4.946-18.173 4.946h-.029v20.068h16.627l.204-.542zM40.75 78.39l-1.08-2.87-.116-.288-1.109-2.967 2.713-1.213.263-.127 1.108-.51c-.03-.352-.03-.67-.03-1.022 0-.382 0-.734.03-1.116l-1.108-.51-.205-.097H22.752v17.644h.03c7.642 0 14.409-2.106 18.551-5.36l-.496-1.34-.087-.223z" fill="#1E80C6"/><path d="M41.158 67.703l-2.684-1.245.934-2.457H20.769l-2.626 6.988-7.934-23.93-5.804 17.23H0v3.03h6.68l3.675-11.134 8.022 24.47 4.23-12.92h18.608l-.058-.032z" fill="#fff"/><path d="M68.169 72.552c.233-.99.35-2.042.35-3.095a14.82 14.82 0 00-.32-3.03l3.208-1.437.262-.127-.116-.287-1.08-2.872-.117-.287-.262.128-3.209 1.435a12.262 12.262 0 00-3.938-4.339l1.342-3.51.117-.286-.262-.128-2.597-1.18-.262-.128-.117.287-1.342 3.51a10.47 10.47 0 00-2.829-.383c-.963 0-1.867.128-2.77.35l-1.314-3.509-.117-.287-.262.128-2.625 1.18-.263.128.117.287 1.312 3.51c-1.633 1.052-2.975 2.552-3.966 4.307l-1.517-.702-1.692-.766-.263-.128-.116.287-1.08 2.84-.116.287.262.128 3.209 1.468c-.088.35-.146.67-.204 1.02-.059.383-.088.766-.117 1.15v.03c-.03.288-.03.575-.03.862 0 .224 0 .447.03.638 0 .096 0 .192.03.287 0 .096.028.192.028.32.03.414.088.829.175 1.212.03.192.059.383.117.543l-.175.063-3.033 1.372-.263.128.117.287 1.079 2.871.117.287.262-.127 3.209-1.436a12.261 12.261 0 003.937 4.34l-1.341 3.509-.117.287.263.127 2.596 1.181.262.128.117-.288 1.342-3.509a10.48 10.48 0 002.83.383 11.4 11.4 0 002.77-.351l1.313 3.51.116.287.263-.128 2.625-1.18.263-.128-.117-.287-1.313-3.51c1.634-1.053 2.976-2.552 3.968-4.307l3.208 1.468.263.127.117-.287 1.079-2.84.116-.287-.262-.127-3.267-1.404zm-11.201 5.68c-4.434 0-8.05-3.925-8.05-8.807a9.35 9.35 0 011.69-5.391l.03-.033c1.458-2.042 3.763-3.35 6.33-3.35 4.434 0 8.05 3.925 8.05 8.806-.028 4.85-3.616 8.774-8.05 8.774z" fill="#0E4DA7"/><path d="M50.667 64.001h-.029l-.03.033s0 .031-.028.031l.087-.064z" fill="#fff"/></g></svg>