<svg xmlns="http://www.w3.org/2000/svg" xmlns:xlink="http://www.w3.org/1999/xlink" viewBox="0 0 66 63">
    <style>
        .st0{fill-rule:evenodd;clip-rule:evenodd;fill:none}.st1{display:none}.st2{display:inline;fill-rule:evenodd;clip-rule:evenodd;fill:#0072c6}.st3,.st4{fill:#59b4d9;display:inline}.st4{fill:#fff;opacity:.2}.st6{fill:#ff8c00}.st6,.st7,.st8{display:inline}.st7{opacity:.12}.st8{fill:#fcd116}.st9{opacity:.2;fill:#ff8c00}.st10,.st9{display:inline}.st11{opacity:.15}.st12{fill:#ff8c00}.st13,.st14{display:inline;fill:#dd5900}.st14{opacity:.2;fill:#fcd116}.st15{fill:#dd5900}.st16{opacity:.2;fill:#ff8c00}.st17{display:inline;opacity:.4}.st17,.st18{fill:#fff}.st18,.st19{display:inline}.st19,.st20{fill:#0072c6}.st21{opacity:.2;fill:#1e1e1e}.st22{display:inline;fill:#7a7a7a}.st23{fill:#1e1e1e}.st23,.st24{display:inline;opacity:.2}.st25{fill:#1e1e1e}.st26{fill:#7a7a7a}.st27{fill:#a0a1a2}.st28{opacity:.2;fill:#fff;enable-background:new}.st29{fill:#59b4d9}.st30{fill:#b8d432}.st31{display:inline;opacity:.3;fill:#0072c6}.st32{fill:#3999c6}.st36{opacity:.4;fill:#dd5900}.st36,.st37,.st38{display:inline}.st37{stroke:#fff;stroke-width:2;stroke-miterlimit:10;fill:none}.st38,.st39{opacity:.6;fill:#dd5900}.st39{fill:#0072c6}.st41{fill:#fff}.st42,.st43{display:inline}.st42{fill:#3999c6}.st43{opacity:.7}.st44,.st47{display:inline;fill:none;stroke:#fff;stroke-width:2.5;stroke-miterlimit:10}.st47{stroke-width:.7229}.st48{fill:#ba141a}.st53,.st74{clip-path:url(#SVGID_2_)}.st53{fill-rule:evenodd;clip-rule:evenodd;fill:#a0a1a2}.st74{fill:#929497}.st76{fill:#804998}.st77{fill:#7fba00}
    </style>
    <g id="slices">
        <path id="_x3C_Slice_x3E__7_" class="st0" d="M343 137h115v115H343z"/>
        <path id="_x3C_Slice_x3E__6_" class="st0" d="M273 277h255v115H273z"/>
        <path id="_x3C_Slice_x3E__5_" class="st0" d="M513 137h90v90h-90z"/>
        <path id="_x3C_Slice_x3E__1_" class="st0" d="M643 137h40v40h-40z"/>
    </g>
    <g id="tiles" class="st1">
        <path class="st2" d="M488 257h40v40h-40zm-130 0h90v90h-90zm-170 0h115v115H188zm-70 140h255v115H118zm870-140h40v40h-40zm-130 0h90v90h-90zm-170 0h115v115H688zm-70 140h255v115H618z"/>
    </g>
    <g id="archive" class="st1">
        <path class="st3" d="M241.1 74.1c.8-2 1-4.2.5-6.5-.9-4.2-4.4-7.5-8.6-8.3-2.5-.5-4.8-.1-6.8.9-2.4-3.1-6.1-5-10.2-5-7.2 0-12.9 5.8-12.9 12.9 0 .6.1 1.1.1 1.7-4.5 1.7-7.6 6.3-7 11.6.7 5.6 5.6 9.6 11.2 9.6h29.3c4.5 0 8.5-3.2 9.1-7.7.5-4-1.5-7.5-4.7-9.2z"/>
        <path class="st4" d="M241.1 74.1c.8-2 1-4.2.5-6.5-.9-4.2-4.4-7.5-8.6-8.3-2.5-.5-4.8-.1-6.8.9-2.4-3.1-6.1-5-10.2-5-7.2 0-12.9 5.8-12.9 12.9 0 .6.1 1.1.1 1.7-4.5 1.7-7.6 6.3-7 11.6.7 5.6 5.6 9.6 11.2 9.6h29.3c4.5 0 8.5-3.2 9.1-7.7.5-4-1.5-7.5-4.7-9.2z"/>
        <path class="st3" d="M341.1 74.1c.8-2 1-4.2.5-6.5-.9-4.2-4.4-7.5-8.6-8.3-2.5-.5-4.8-.1-6.8.9-2.4-3.1-6.1-5-10.2-5-7.2 0-12.9 5.8-12.9 12.9 0 .6.1 1.1.1 1.7-4.5 1.7-7.6 6.3-7 11.6.7 5.6 5.6 9.6 11.2 9.6h29.3c4.5 0 8.5-3.2 9.1-7.7.5-4-1.5-7.5-4.7-9.2z"/>
        <path class="st4" d="M341.1 74.1c.8-2 1-4.2.5-6.5-.9-4.2-4.4-7.5-8.6-8.3-2.5-.5-4.8-.1-6.8.9-2.4-3.1-6.1-5-10.2-5-7.2 0-12.9 5.8-12.9 12.9 0 .6.1 1.1.1 1.7-4.5 1.7-7.6 6.3-7 11.6.7 5.6 5.6 9.6 11.2 9.6h29.3c4.5 0 8.5-3.2 9.1-7.7.5-4-1.5-7.5-4.7-9.2z"/>
        <path class="st3" d="M449.1 71.5c.6-1.6.8-3.3.4-5.2-.8-3.3-3.5-6-6.9-6.6-2-.4-3.8-.1-5.4.7-1.9-2.4-4.9-4-8.2-4-5.7 0-10.3 4.6-10.3 10.3 0 .5 0 .9.1 1.4-3.6 1.4-6.1 5-5.6 9.2.5 4.4 4.5 7.7 8.9 7.7h23.4c3.6 0 6.8-2.6 7.3-6.2.5-3.1-1.2-5.9-3.7-7.3z"/>
        <path class="st4" d="M449.1 71.5c.6-1.6.8-3.3.4-5.2-.8-3.3-3.5-6-6.9-6.6-2-.4-3.8-.1-5.4.7-1.9-2.4-4.9-4-8.2-4-5.7 0-10.3 4.6-10.3 10.3 0 .5 0 .9.1 1.4-3.6 1.4-6.1 5-5.6 9.2.5 4.4 4.5 7.7 8.9 7.7h23.4c3.6 0 6.8-2.6 7.3-6.2.5-3.1-1.2-5.9-3.7-7.3z"/>
        <path class="st3" d="M644.8 84.2c.5-1.3.7-2.7.3-4.2-.6-2.7-2.9-4.8-5.7-5.3-1.6-.3-3.2-.1-4.5.6-1.6-2-4-3.2-6.8-3.2-4.7 0-8.6 3.7-8.6 8.3 0 .4 0 .7.1 1.1-3 1.1-5.1 4.1-4.7 7.4.4 3.6 3.7 6.2 7.4 6.2h19.4c3 0 5.7-2.1 6.1-5 .5-2.6-.9-4.8-3-5.9z"/>
        <path class="st4" d="M644.8 84.2c.5-1.3.7-2.7.3-4.2-.6-2.7-2.9-4.8-5.7-5.3-1.6-.3-3.2-.1-4.5.6-1.6-2-4-3.2-6.8-3.2-4.7 0-8.6 3.7-8.6 8.3 0 .4 0 .7.1 1.1-3 1.1-5.1 4.1-4.7 7.4.4 3.6 3.7 6.2 7.4 6.2h19.4c3 0 5.7-2.1 6.1-5 .5-2.6-.9-4.8-3-5.9z"/>
        <path d="M214.1 84.7c.9-.8 3.1-1.9 5.4-3 .7-.3 1.4-.7 2.2-1 2.3.7 4.2 1.3 5 2.4.7 1 1.1 4.6.1 6.8 1.5-.5 4.8-3.7 4.4-7.4-.2-2.4-1.9-3.8-4-4.8 2.7-1.8 4.7-3.9 4.8-6.5.3-5.9-5.1-7.9-10.2-9.5 1.2-.8 2.4-1.7 3.4-2.8-1.4-1.4-3.1-2.4-5-3.1-1.2.9-2.8 1.6-4.4 2.4-.5.2-.9.4-1.4.7-1.1-.7-1.9-1.6-2.1-2.7v-.4c-1.9.6-3.7 1.7-5.1 3 .3 1.5 1 2.7 1.9 3.6-1.4 1.5-2.3 3.4-2.3 6 0 5.2 3.1 7.9 6.8 9.6-3.7 2.3-7 5.2-6.2 10.1.2 1 .7 2.1 1.2 2.9h3.2c-.5-2.4.4-4.6 2.3-6.3zm2-18.3c3.8 1.4 6.1 2.6 6.1 5.4 0 .9-1 1.8-2.6 2.8-2-1.1-3.6-2.5-4.1-4.9-.2-1.4 0-2.4.6-3.3zm98 18.3c.9-.8 3.1-1.9 5.4-3 .7-.3 1.4-.7 2.2-1 2.3.7 4.2 1.3 5 2.4.7 1 1.1 4.6.1 6.8 1.5-.5 4.8-3.7 4.4-7.4-.2-2.4-1.9-3.8-4-4.8 2.7-1.8 4.7-3.9 4.8-6.5.3-5.9-5.1-7.9-10.2-9.5 1.2-.8 2.4-1.7 3.4-2.8-1.4-1.4-3.1-2.4-5-3.1-1.2.9-2.8 1.6-4.4 2.4-.5.2-.9.4-1.4.7-1.1-.7-1.9-1.6-2.1-2.7v-.4c-1.9.6-3.7 1.7-5.1 3 .3 1.5 1 2.7 1.9 3.6-1.4 1.5-2.3 3.4-2.3 6 0 5.2 3.1 7.9 6.8 9.6-3.7 2.3-7 5.2-6.2 10.1.2 1 .7 2.1 1.2 2.9h3.2c-.5-2.4.4-4.6 2.3-6.3zm2-18.3c3.8 1.4 6.1 2.6 6.1 5.4 0 .9-1 1.8-2.6 2.8-2-1.1-3.6-2.5-4.1-4.9-.2-1.4 0-2.4.6-3.3z" opacity=".15"/>
        <path class="st6" d="M214.6 49.7s-4.3 1.9-3.5 6.7c1.1 7.4 20.2 4.7 19.7 14.8-.3 6.1-14.2 9.9-17.4 12.8-2.9 2.6-3.8 6-1.5 10.9 0 0-2.8-1.7-3.7-6.9-1.5-9.6 15.1-11.2 15-16.2-.2-7.6-13.7-5.3-15.3-13.2-.9-4.9 4.9-8.9 6.7-8.9z"/>
        <path class="st7" d="M217.8 76.8c-1 .6-2.1 1.1-3.2 1.7 1.8.7 3.7 1.3 5.5 1.7h.1l3-1.5-5.4-1.9z"/>
        <path class="st8" d="M218.6 45.1c2.2 1 5.4 2.7 5.4 5.6 0 9.7-16.3 7.3-16.3 17.8 0 11.4 16.5 9.8 19.8 14 1 1.4.9 3.7.2 6.3 0 0 2.8-2.9 2.5-6.2-.6-6.2-13.8-4.3-15.6-12.6-1.6-7.5 10.3-8 12.1-15.9 1.5-6.8-6.3-8.8-8.1-9z"/>
        <path class="st9" d="M218.6 45.1c2.2 1 5.4 2.7 5.4 5.6 0 9.7-16.3 7.3-16.3 17.8 0 11.4 16.5 9.8 19.8 14 1 1.4.9 3.7.2 6.3 0 0 2.8-2.9 2.5-6.2-.6-6.2-13.8-4.3-15.6-12.6-1.6-7.5 10.3-8 12.1-15.9 1.5-6.8-6.3-8.8-8.1-9z"/>
        <g class="st10">
            <path class="st11" d="M209.6 63.1c1.6 1.3 3.4 2.1 5.5 2.8.5-.8 1.1-1.5 1.9-2.2l-5-2.6c-.9.7-1.7 1.3-2.4 2z"/>
            <path class="st12" d="M215.7 65.1c.8-1 2.3-2.1 3.7-3.1-1.9-.6-3.8-1.2-5.3-2-1.4.7-2.7 1.4-3.8 2.4 1.5 1.2 3.5 2 5.4 2.7z"/>
        </g>
        <path class="st13" d="M314.6 49.7s-4.3 1.9-3.5 6.7c1.1 7.4 20.2 4.7 19.7 14.8-.3 6.1-14.2 9.9-17.4 12.8-2.9 2.6-3.8 6-1.5 10.9 0 0-2.8-1.7-3.7-6.9-1.5-9.6 15.1-11.2 15-16.2-.2-7.6-13.7-5.3-15.3-13.2-.9-4.9 4.9-8.9 6.7-8.9z"/>
        <path class="st9" d="M314.6 49.7s-4.3 1.9-3.5 6.7c1.1 7.4 20.2 4.7 19.7 14.8-.3 6.1-14.2 9.9-17.4 12.8-2.9 2.6-3.8 6-1.5 10.9 0 0-2.8-1.7-3.7-6.9-1.5-9.6 15.1-11.2 15-16.2-.2-7.6-13.7-5.3-15.3-13.2-.9-4.9 4.9-8.9 6.7-8.9z"/>
        <path class="st7" d="M317.8 76.8c-1 .6-2.1 1.1-3.2 1.7 1.8.7 3.7 1.3 5.5 1.7h.1l3-1.5-5.4-1.9z"/>
        <path class="st6" d="M318.6 45.1c2.2 1 5.4 2.7 5.4 5.6 0 9.7-16.3 7.3-16.3 17.8 0 11.4 16.5 9.8 19.8 14 1 1.4.9 3.7.2 6.3 0 0 2.8-2.9 2.5-6.2-.6-6.2-13.8-4.3-15.6-12.6-1.6-7.5 10.3-8 12.1-15.9 1.5-6.8-6.3-8.8-8.1-9z"/>
        <path class="st14" d="M318.6 45.1c2.2 1 5.4 2.7 5.4 5.6 0 9.7-16.3 7.3-16.3 17.8 0 11.4 16.5 9.8 19.8 14 1 1.4.9 3.7.2 6.3 0 0 2.8-2.9 2.5-6.2-.6-6.2-13.8-4.3-15.6-12.6-1.6-7.5 10.3-8 12.1-15.9 1.5-6.8-6.3-8.8-8.1-9z"/>
        <g class="st10">
            <path class="st11" d="M309.6 63.1c1.6 1.3 3.4 2.1 5.5 2.8.5-.8 1.1-1.5 1.9-2.2l-5-2.6c-.9.7-1.7 1.3-2.4 2z"/>
            <path class="st15" d="M315.7 65.1c.8-1 2.3-2.1 3.7-3.1-1.9-.6-3.8-1.2-5.3-2-1.4.7-2.7 1.4-3.8 2.4 1.5 1.2 3.5 2 5.4 2.7z"/>
            <path class="st16" d="M315.7 65.1c.8-1 2.3-2.1 3.7-3.1-1.9-.6-3.8-1.2-5.3-2-1.4.7-2.7 1.4-3.8 2.4 1.5 1.2 3.5 2 5.4 2.7z"/>
        </g>
        <path class="st3" d="M241.1 174.1c.8-2 1-4.2.5-6.5-.9-4.2-4.4-7.5-8.6-8.3-2.5-.5-4.8-.1-6.8.9-2.4-3.1-6.1-5-10.2-5-7.2 0-12.9 5.8-12.9 12.9 0 .6.1 1.1.1 1.7-4.5 1.7-7.6 6.3-7 11.6.7 5.6 5.6 9.6 11.2 9.6h29.3c4.5 0 8.5-3.2 9.1-7.7.5-4-1.5-7.5-4.7-9.2z"/>
        <path class="st4" d="M241.1 174.1c.8-2 1-4.2.5-6.5-.9-4.2-4.4-7.5-8.6-8.3-2.5-.5-4.8-.1-6.8.9-2.4-3.1-6.1-5-10.2-5-7.2 0-12.9 5.8-12.9 12.9 0 .6.1 1.1.1 1.7-4.5 1.7-7.6 6.3-7 11.6.7 5.6 5.6 9.6 11.2 9.6h29.3c4.5 0 8.5-3.2 9.1-7.7.5-4-1.5-7.5-4.7-9.2z"/>
        <path class="st3" d="M341.1 174.1c.8-2 1-4.2.5-6.5-.9-4.2-4.4-7.5-8.6-8.3-2.5-.5-4.8-.1-6.8.9-2.4-3.1-6.1-5-10.2-5-7.2 0-12.9 5.8-12.9 12.9 0 .6.1 1.1.1 1.7-4.5 1.7-7.6 6.3-7 11.6.7 5.6 5.6 9.6 11.2 9.6h29.3c4.5 0 8.5-3.2 9.1-7.7.5-4-1.5-7.5-4.7-9.2z"/>
        <path class="st17" d="M214.1 184.7c.9-.8 3.1-1.9 5.4-3 .7-.3 1.4-.7 2.2-1 2.3.7 4.2 1.3 5 2.4.7 1 1.1 4.6.1 6.8 1.5-.5 4.8-3.7 4.4-7.4-.2-2.4-1.9-3.8-4-4.8 2.7-1.8 4.7-3.9 4.8-6.5.3-5.9-5.1-7.9-10.2-9.5 1.2-.8 2.4-1.7 3.4-2.8-1.4-1.4-3.1-2.4-5-3.1-1.2.9-2.8 1.6-4.4 2.4-.5.2-.9.4-1.4.7-1.1-.7-1.9-1.6-2.1-2.7v-.4c-1.9.6-3.7 1.7-5.1 3 .3 1.5 1 2.7 1.9 3.6-1.4 1.5-2.3 3.4-2.3 6 0 5.2 3.1 7.9 6.8 9.6-3.7 2.3-7 5.2-6.2 10.1.2 1 .7 2.1 1.2 2.9h3.2c-.5-2.4.4-4.6 2.3-6.3zm2-18.3c3.8 1.4 6.1 2.6 6.1 5.4 0 .9-1 1.8-2.6 2.8-2-1.1-3.6-2.5-4.1-4.9-.2-1.4 0-2.4.6-3.3zm98 18.3c.9-.8 3.1-1.9 5.4-3 .7-.3 1.4-.7 2.2-1 2.3.7 4.2 1.3 5 2.4.7 1 1.1 4.6.1 6.8 1.5-.5 4.8-3.7 4.4-7.4-.2-2.4-1.9-3.8-4-4.8 2.7-1.8 4.7-3.9 4.8-6.5.3-5.9-5.1-7.9-10.2-9.5 1.2-.8 2.4-1.7 3.4-2.8-1.4-1.4-3.1-2.4-5-3.1-1.2.9-2.8 1.6-4.4 2.4-.5.2-.9.4-1.4.7-1.1-.7-1.9-1.6-2.1-2.7v-.4c-1.9.6-3.7 1.7-5.1 3 .3 1.5 1 2.7 1.9 3.6-1.4 1.5-2.3 3.4-2.3 6 0 5.2 3.1 7.9 6.8 9.6-3.7 2.3-7 5.2-6.2 10.1.2 1 .7 2.1 1.2 2.9h3.2c-.5-2.4.4-4.6 2.3-6.3zm2-18.3c3.8 1.4 6.1 2.6 6.1 5.4 0 .9-1 1.8-2.6 2.8-2-1.1-3.6-2.5-4.1-4.9-.2-1.4 0-2.4.6-3.3z"/>
        <path class="st6" d="M214.6 149.7s-4.3 1.9-3.5 6.7c1.1 7.4 20.2 4.7 19.7 14.8-.3 6.1-14.2 9.9-17.4 12.8-2.9 2.6-3.8 6-1.5 10.9 0 0-2.8-1.7-3.7-6.9-1.5-9.6 15.1-11.2 15-16.2-.2-7.6-13.7-5.3-15.3-13.2-.9-4.9 4.9-8.9 6.7-8.9z"/>
        <path class="st7" d="M217.8 176.8c-1 .6-2.1 1.1-3.2 1.7 1.8.7 3.7 1.3 5.5 1.7h.1l3-1.5-5.4-1.9z"/>
        <path class="st8" d="M218.6 145.1c2.2 1 5.4 2.7 5.4 5.6 0 9.7-16.3 7.3-16.3 17.8 0 11.4 16.5 9.8 19.8 14 1 1.4.9 3.7.2 6.3 0 0 2.8-2.9 2.5-6.2-.6-6.2-13.8-4.3-15.6-12.6-1.6-7.5 10.3-8 12.1-15.9 1.5-6.8-6.3-8.8-8.1-9z"/>
        <path class="st9" d="M218.6 145.1c2.2 1 5.4 2.7 5.4 5.6 0 9.7-16.3 7.3-16.3 17.8 0 11.4 16.5 9.8 19.8 14 1 1.4.9 3.7.2 6.3 0 0 2.8-2.9 2.5-6.2-.6-6.2-13.8-4.3-15.6-12.6-1.6-7.5 10.3-8 12.1-15.9 1.5-6.8-6.3-8.8-8.1-9z"/>
        <g class="st10">
            <path class="st11" d="M209.6 163.1c1.6 1.3 3.4 2.1 5.5 2.8.5-.8 1.1-1.5 1.9-2.2l-5-2.6c-.9.7-1.7 1.3-2.4 2z"/>
            <path class="st12" d="M215.7 165.1c.8-1 2.3-2.1 3.7-3.1-1.9-.6-3.8-1.2-5.3-2-1.4.7-2.7 1.4-3.8 2.4 1.5 1.2 3.5 2 5.4 2.7z"/>
        </g>
        <path class="st13" d="M314.6 149.7s-4.3 1.9-3.5 6.7c1.1 7.4 20.2 4.7 19.7 14.8-.3 6.1-14.2 9.9-17.4 12.8-2.9 2.6-3.8 6-1.5 10.9 0 0-2.8-1.7-3.7-6.9-1.5-9.6 15.1-11.2 15-16.2-.2-7.6-13.7-5.3-15.3-13.2-.9-4.9 4.9-8.9 6.7-8.9z"/>
        <path class="st9" d="M314.6 149.7s-4.3 1.9-3.5 6.7c1.1 7.4 20.2 4.7 19.7 14.8-.3 6.1-14.2 9.9-17.4 12.8-2.9 2.6-3.8 6-1.5 10.9 0 0-2.8-1.7-3.7-6.9-1.5-9.6 15.1-11.2 15-16.2-.2-7.6-13.7-5.3-15.3-13.2-.9-4.9 4.9-8.9 6.7-8.9z"/>
        <path class="st7" d="M317.8 176.8c-1 .6-2.1 1.1-3.2 1.7 1.8.7 3.7 1.3 5.5 1.7h.1l3-1.5-5.4-1.9z"/>
        <path class="st6" d="M318.6 145.1c2.2 1 5.4 2.7 5.4 5.6 0 9.7-16.3 7.3-16.3 17.8 0 11.4 16.5 9.8 19.8 14 1 1.4.9 3.7.2 6.3 0 0 2.8-2.9 2.5-6.2-.6-6.2-13.8-4.3-15.6-12.6-1.6-7.5 10.3-8 12.1-15.9 1.5-6.8-6.3-8.8-8.1-9z"/>
        <path class="st14" d="M318.6 145.1c2.2 1 5.4 2.7 5.4 5.6 0 9.7-16.3 7.3-16.3 17.8 0 11.4 16.5 9.8 19.8 14 1 1.4.9 3.7.2 6.3 0 0 2.8-2.9 2.5-6.2-.6-6.2-13.8-4.3-15.6-12.6-1.6-7.5 10.3-8 12.1-15.9 1.5-6.8-6.3-8.8-8.1-9z"/>
        <g class="st10">
            <path class="st11" d="M309.6 163.1c1.6 1.3 3.4 2.1 5.5 2.8.5-.8 1.1-1.5 1.9-2.2l-5-2.6c-.9.7-1.7 1.3-2.4 2z"/>
            <path class="st15" d="M315.7 165.1c.8-1 2.3-2.1 3.7-3.1-1.9-.6-3.8-1.2-5.3-2-1.4.7-2.7 1.4-3.8 2.4 1.5 1.2 3.5 2 5.4 2.7z"/>
            <path class="st16" d="M315.7 165.1c.8-1 2.3-2.1 3.7-3.1-1.9-.6-3.8-1.2-5.3-2-1.4.7-2.7 1.4-3.8 2.4 1.5 1.2 3.5 2 5.4 2.7z"/>
        </g>
        <path class="st13" d="M413.6 48.7s-5.3 1.9-4.5 6.7c1.1 6.9 22.4 3.8 23.7 13.8.9 7.2-17.9 12.1-21 15.1-3.2 3.1-2.6 7.8 0 10.7-1.5-.7-6.7-5.4-4.2-10.9 3-6.6 17.1-9.2 17-14.2-.2-7.6-17.3-4.5-18.7-13.2-.7-5.1 5.9-8 7.7-8z"/>
        <path class="st6" d="M418.6 45.1c2.2 1 7.5 3.4 4.6 8.6-3.6 6.4-18.6 6.5-18.6 15.7 0 11.4 20.4 10.9 23.8 15 1.5 1.8.9 3.7.2 6.3 0 0 2.8-2.9 2.5-6.2-.6-6.2-16.8-6.3-18.6-14.6-1.6-7.5 12.3-8 14.1-15.9 1.6-6.7-5.9-8.7-8-8.9z"/>
        <path class="st13" d="M614.1 48.7s-5.3 1.9-4.5 6.7c1.1 6.9 22.5 3.8 23.7 13.8 1 7.7-16.1 10.5-21 15.1-3.3 3.1-2.6 7.8 0 10.7-1.5-.7-6.7-5.4-4.2-10.9 3-6.6 17.1-9.2 17-14.2-.2-7.6-17.3-4.5-18.7-13.2-.7-5.1 5.9-8 7.7-8z"/>
        <path class="st6" d="M619.1 45.1c2.2 1 7.5 3.4 4.6 8.6-3.6 6.4-18.6 6.5-18.6 15.7 0 11.4 20.4 10.9 23.8 15 1.5 1.8.9 3.7.2 6.3 0 0 2.8-2.9 2.5-6.2-.6-6.2-16.8-6.3-18.6-14.6-1.6-7.5 12.3-8 14.1-15.9 1.6-6.7-5.9-8.7-8-8.9z"/>
        <path class="st13" d="M424.7 69.8c-.2-7.6-17.3-4.5-18.7-13.2-.8-4.9 5.9-7.9 7.7-7.9 0 0-5.3 1.9-4.5 6.7 1.1 6.9 22.4 3.8 23.7 13.8"/>
        <path class="st13" d="M424.7 69.8c-.2-7.6-17.3-4.5-18.7-13.2-.8-4.9 5.9-7.9 7.7-7.9 0 0-5.3 1.9-4.5 6.7 1.1 6.9 22.4 3.8 23.7 13.8m192.3.6c-.2-7.6-17.3-4.5-18.7-13.2-.8-4.9 5.9-7.9 7.7-7.9 0 0-5.3 1.9-4.5 6.7 1.1 6.9 22.5 3.8 23.7 13.8"/>
        <path class="st18" d="M424.1 304.1c.8-2 1-4.2.5-6.5-.9-4.2-4.4-7.5-8.6-8.3-2.5-.5-4.8-.1-6.8.9-2.4-3.1-6.1-5-10.2-5-7.2 0-12.9 5.8-12.9 12.9 0 .6.1 1.1.1 1.7-4.5 1.7-7.6 6.3-7 11.6.7 5.6 5.6 9.6 11.2 9.6h29.3c4.5 0 8.5-3.2 9.1-7.7.5-4-1.5-7.5-4.7-9.2z"/>
        <path class="st19" d="M391.1 321.5l-.1-.2c-.5-.7-1.1-2-1.2-3.1-.8-5 2.5-8 5.7-10.1-4.2-2.2-6.3-5.4-6.3-9.7 0-2.3.7-4.3 2.1-6-.9-1-1.4-2.2-1.7-3.5l-.1-.3.2-.2c1.5-1.4 3.3-2.5 5.3-3.2l.6-.2v1c.1.8.7 1.5 1.6 2.2l1.2-.6c1.4-.7 3.1-1.5 4.3-2.3l.2-.1.2.1c2 .6 3.8 1.7 5.2 3.2l.4.3-.3.4c-.7.8-1.6 1.5-2.7 2.3 5.1 1.7 9.8 3.9 9.6 9.7-.1 2.2-1.5 4.3-4.3 6.4 1.6.9 3.3 2.3 3.6 4.8.4 4.2-3.2 7.5-4.8 8l-1.1.3.5-1c1-2 .6-5.5 0-6.3-.7-.9-2.6-1.6-4.6-2.1-.7.3-1.4.7-2 1-2.3 1.1-4.4 2.1-5.3 2.9-1.8 1.6-2.6 3.6-2.3 5.9l.1.6h-4zm8.2-24.5c-.4.8-.5 1.6-.3 2.6.4 1.8 1.5 3.3 3.6 4.4.7-.5 2.1-1.4 2.1-2.2 0-2.3-1.7-3.4-5.4-4.8z"/>
        <path class="st18" d="M397.6 279.7s-4.3 1.9-3.5 6.7c1.1 7.4 20.2 4.7 19.7 14.8-.3 6.1-14.2 9.9-17.4 12.8-2.9 2.6-3.8 6-1.5 10.9 0 0-2.8-1.7-3.7-6.9-1.5-9.6 15.1-11.2 15-16.2-.2-7.6-13.7-5.3-15.3-13.2-.9-4.9 4.9-8.9 6.7-8.9z"/>
        <path class="st18" d="M401.6 275.1c2.2 1 5.4 2.7 5.4 5.6 0 9.7-16.3 7.3-16.3 17.8 0 11.4 16.5 9.8 19.8 14 1 1.4.9 3.7.2 6.3 0 0 2.8-2.9 2.5-6.2-.6-6.2-13.8-4.3-15.6-12.6-1.6-7.5 10.3-8 12.1-15.9 1.5-6.8-6.3-8.8-8.1-9z"/>
        <g class="st10">
            <path class="st11" d="M393.7 292.2l.1-.1s-.1 0-.1.1z"/>
        </g>
        <path class="st18" d="M1026.9 302.4c.5-1.2.6-2.6.3-4.1-.6-2.6-2.7-4.7-5.4-5.2-1.5-.3-3-.1-4.3.5-1.5-1.9-3.8-3.2-6.4-3.2-4.5 0-8.1 3.6-8.1 8.1 0 .4 0 .7.1 1.1-2.8 1.1-4.8 4-4.4 7.2.4 3.5 3.5 6 7 6h18.4c2.8 0 5.4-2 5.7-4.8.4-2.3-.9-4.5-2.9-5.6z"/>
        <path class="st19" d="M999.7 306.9c-.3-.1-.6-.3-1-.4v.4c.4 3.5 3.5 6 7 6h2.6c-1.1-2.8-4.8-4.3-8.6-6z"/>
        <path class="st19" d="M987.3 326.3c-1.9-.9-7.9-6.3-4.9-12.9 1.7-3.7 6.2-6.2 10.3-8.4 3.1-1.7 6.6-3.6 6.6-5.2-.1-2.4-2.9-3.4-7.5-4.7-4.8-1.4-10.3-2.9-11.2-8.3-.3-2 .3-3.9 1.7-5.6 2.1-2.5 5.8-4 7.5-4l.5 2.9c-.2.1-4.1 1.5-3.5 5 .3 2.1 4.8 3.1 9.1 4.1 6.5 1.5 13.8 3.2 14.7 9.7.8 6.1-8.2 10-15.4 13.2-2.6 1.2-5.3 2.3-6.1 3.1-2.7 2.6-1.9 6.4.1 8.6l-1.9 2.5z"/>
        <path class="st18" d="M1008.9 299.1c-1.3-10-22.7-6.9-23.7-13.8-.8-4.8 4.5-6.7 4.5-6.7-1.8 0-8.5 3-7.7 7.9 1.4 8.8 18.5 5.6 18.7 13.2.1 5-14 7.6-17 14.2-2.5 5.5 2.7 10.2 4.2 10.9-2.6-2.9-3.3-7.6 0-10.7 3.1-2.9 21.9-7.7 21-15z"/>
        <g class="st10">
            <path class="st20" d="M991.9 307.1c-1.7.9-3.4 1.9-4.8 3 1.6.7 3.3 1.2 5 1.7 1.5-.7 3.2-1.4 5-2.2-1.8-.8-3.6-1.6-5.2-2.5z"/>
        </g>
        <path class="st18" d="M994.6 275.1c2.2 1 7.5 3.4 4.6 8.6-3.6 6.4-18.6 6.5-18.6 15.7 0 11.4 20.4 10.9 23.8 15 1.5 1.8.9 3.7.2 6.3 0 0 2.8-2.9 2.5-6.2-.6-6.2-16.8-6.3-18.6-14.6-1.6-7.5 12.3-8 14.1-15.9 1.6-6.7-5.9-8.7-8-8.9z"/>
        <path class="st19" d="M994 292.3c-2.1-.5-4.2-1-5.9-1.6-1.4.7-2.7 1.4-3.9 2.2 1.7.9 3.8 1.5 5.8 2.1 1.2-1 2.6-1.9 4-2.7z"/>
        <path class="st18" d="M1000.7 299.8c-.2-7.6-17.3-4.5-18.7-13.2-.8-4.9 5.9-7.9 7.7-7.9 0 0-5.3 1.9-4.5 6.7 1.1 6.9 22.4 3.8 23.7 13.8"/>
    </g>
    <g id="archive2" class="st1">
        <path class="st2" d="M238 137h90v90h-90zm0 200h90v90h-90z"/>
        <path class="st18" d="M308.9 188.5c0-2.3-1.4-4.3-3.5-5.1.4-.9.7-1.9.7-2.9 0-3.6-2.9-6.5-6.5-6.5-1.6 0-3.1.6-4.3 1.6-1.2-2.4-3.7-4.1-6.7-4.1-4.1 0-7.5 3.3-7.5 7.5 0 .6.1 1.2.2 1.7-2.7.9-4.6 3.5-4.6 6.5 0 3.8 3.1 6.8 6.8 6.9h19.9c3.1-.1 5.5-2.6 5.5-5.6z"/>
        <path class="st19" d="M287.9 180c-.4-2.9-2.2-4.8-4.6-6.1-1.3 1.3-2 3.1-2 5.1 0 .6.1 1.2.2 1.7-2.7.9-4.6 3.5-4.6 6.5 0 1.2.3 2.3.9 3.3 5.5-2.8 10.6-6.1 10.1-10.5z"/>
        <path class="st19" d="M277.5 188.4c-.2-.1-.4-.2-.6-.2.5 3.3 3.3 5.8 6.7 5.8h2.1c-1.1-2.6-4.6-4.1-8.2-5.6z"/>
        <path class="st18" d="M267.6 159.7s-5.3 1.9-4.5 6.7c1.1 6.9 22.4 3.8 23.7 13.8.9 7.2-17.9 12.1-21 15.1-3.2 3.1-2.6 7.8 0 10.7-1.5-.7-6.7-5.4-4.2-10.9 3-6.6 17.1-9.2 17-14.2-.2-7.6-17.3-4.5-18.7-13.2-.7-5.1 5.9-8 7.7-8z"/>
        <g class="st10">
            <path class="st21" d="M263.3 172.1c2.2 1.3 5.2 2.1 7.9 2.9.7-.4 1.4-.9 2.3-1.4.7-.4 1.5-.9 2.2-1.3-3-.7-6-1.3-8.4-2.2-1.4.6-2.8 1.3-4 2z"/>
            <path class="st20" d="M269 188.6c-1 .6-2.1 1.2-3 1.9 1.7.7 3.5 1.3 5.3 1.8.9-.4 1.9-.8 2.9-1.3 1.4-.7-3.9-3.2-5.2-2.4z"/>
        </g>
        <path class="st18" d="M272.6 156.1c2.2 1 7.5 3.4 4.6 8.6-3.6 6.4-18.6 6.5-18.6 15.7 0 11.4 20.4 10.9 23.8 15 1.5 1.8.9 3.7.2 6.3 0 0 2.8-2.9 2.5-6.2-.6-6.2-16.8-6.3-18.6-14.6-1.6-7.5 12.3-8 14.1-15.9 1.6-6.7-5.9-8.7-8-8.9z"/>
        <path class="st13" d="M278.7 180.8c-.2-7.6-17.3-4.5-18.7-13.2-.8-4.9 5.9-7.9 7.7-7.9 0 0-5.3 1.9-4.5 6.7 1.1 6.9 22.4 3.8 23.7 13.8"/>
        <path class="st19" d="M271 173.9c-.2-.1-.4-.1-.6-.2-1.7-.5-3.5-1-5-1.6-.7.4-1.5.8-2.1 1.2 1.7.9 3.7 1.5 5.6 2.1.6-.5 1.3-1 2.1-1.5z"/>
        <path class="st18" d="M279 181l4 1 3.9-1.9c-1.3-10-22.7-6.9-23.7-13.8-.8-4.8 4.5-6.7 4.5-6.7-1.8 0-8.5 3-7.7 7.9 1.4 8.8 18.5 5.6 18.7 13.2"/>
        <path class="st3" d="M133.7 377.7c0-2.3-1.4-4.2-3.4-5 .4-.9.7-1.8.7-2.9 0-3.5-2.9-6.4-6.4-6.4-1.6 0-3.1.6-4.2 1.6-1.2-2.4-3.7-4-6.5-4-4 0-7.3 3.3-7.3 7.3 0 .6.1 1.1.2 1.7-2.6.9-4.5 3.4-4.5 6.3 0 3.7 3 6.7 6.7 6.7h19.5c2.9 0 5.2-2.4 5.2-5.3zm341 3c0-2.3-1.4-4.2-3.4-5 .4-.9.7-1.8.7-2.9 0-3.5-2.9-6.4-6.4-6.4-1.6 0-3.1.6-4.2 1.6-1.2-2.4-3.7-4-6.5-4-4 0-7.3 3.3-7.3 7.3 0 .6.1 1.1.2 1.7-2.6.9-4.5 3.4-4.5 6.3 0 3.7 3 6.7 6.7 6.7h19.5c2.9 0 5.2-2.4 5.2-5.3zm-319.8-203c0-2.3-1.4-4.2-3.5-4.9.4-.9.7-1.8.7-2.9 0-3.5-2.9-6.3-6.5-6.3-1.6 0-3.1.6-4.3 1.6-1.2-2.4-3.7-4-6.6-4-4.1 0-7.4 3.3-7.4 7.3 0 .6.1 1.1.2 1.7-2.7.9-4.6 3.4-4.6 6.3 0 3.7 3 6.7 6.8 6.7h19.8c3-.2 5.4-2.6 5.4-5.5z"/>
        <path class="st17" d="M125.8 178.4c4.7-2.5 8.6-5.5 8.1-9.4-.4-2.8-2-4.6-4.3-5.9-1.5 1.3-2.4 3.2-2.4 5.3 0 .6.1 1.1.2 1.7-2.7.9-4.6 3.4-4.6 6.3 0 3.7 3 6.7 6.8 6.7h2.1c-.8-2.1-3.2-3.5-5.9-4.7z"/>
        <path class="st13" d="M113.6 148.7s-5.3 1.9-4.5 6.7c1.1 6.9 22.4 3.8 23.7 13.8.9 7.2-17.9 12.1-21 15.1-3.2 3.1-2.6 7.8 0 10.7-1.5-.7-6.7-5.4-4.2-10.9 3-6.6 17.1-9.2 17-14.2-.2-7.6-17.3-4.5-18.7-13.2-.7-5.1 5.9-8 7.7-8z"/>
        <g class="st10">
            <path class="st21" d="M109.3 161.1c2.2 1.3 5.2 2.1 7.9 2.9.7-.4 1.4-.9 2.3-1.4.7-.4 1.5-.9 2.2-1.3-3-.7-6-1.3-8.4-2.2-1.4.6-2.8 1.3-4 2zm5.7 16.5c-1 .6-2.1 1.2-3 1.9 1.7.7 3.5 1.3 5.3 1.8.9-.4 1.9-.8 2.9-1.3 1.4-.7-3.9-3.2-5.2-2.4z"/>
        </g>
        <path class="st6" d="M118.6 145.1c2.2 1 7.5 3.4 4.6 8.6-3.6 6.4-18.6 6.5-18.6 15.7 0 11.4 20.4 10.9 23.8 15 1.5 1.8.9 3.7.2 6.3 0 0 2.8-2.9 2.5-6.2-.6-6.2-16.8-6.3-18.6-14.6-1.6-7.5 12.3-8 14.1-15.9 1.6-6.7-5.9-8.7-8-8.9z"/>
        <path class="st13" d="M124.7 169.8c-.2-7.6-17.3-4.5-18.7-13.2-.8-4.9 5.9-7.9 7.7-7.9 0 0-5.3 1.9-4.5 6.7 1.1 6.9 22.4 3.8 23.7 13.8"/>
        <path class="st18" d="M308.9 188.5c0-2.3-1.4-4.3-3.5-5.1.4-.9.7-1.9.7-2.9 0-3.6-2.9-6.5-6.5-6.5-1.6 0-3.1.6-4.3 1.6-1.2-2.4-3.7-4.1-6.7-4.1-4.1 0-7.5 3.3-7.5 7.5 0 .6.1 1.2.2 1.7-2.7.9-4.6 3.5-4.6 6.5 0 3.8 3.1 6.8 6.8 6.9h19.9c3.1-.1 5.5-2.6 5.5-5.6z"/>
        <g class="st10">
            <path class="st21" d="M117 162.9c-.2-.1-.4-.1-.6-.2-1.7-.5-3.5-1-5-1.6-.7.4-1.5.8-2.1 1.2 1.7.9 3.7 1.5 5.6 2.1.6-.5 1.3-1 2.1-1.5z"/>
        </g>
        <path class="st13" d="M124.7 169.8c-.2-7.6-17.3-4.5-18.7-13.2-.8-4.9 5.9-7.9 7.7-7.9 0 0-5.3 1.9-4.5 6.7 1.1 6.9 22.4 3.8 23.7 13.8"/>
        <path class="st3" d="M504 179.5c0-2.3-1.4-4.2-3.5-4.9.4-.9.7-1.8.7-2.9 0-3.5-2.9-6.3-6.5-6.3-1.6 0-3.1.6-4.3 1.6-1.2-2.4-3.7-4-6.6-4-4.1 0-7.4 3.3-7.4 7.3 0 .6.1 1.1.2 1.7-2.7.9-6.4 8-6.4 8 0 6.7 4.9 5 8.7 5h19.8c2.9-.2 5.3-2.6 5.3-5.5z"/>
        <path class="st19" d="M265.5 206.8c-1.7-.8-7.5-6.1-4.7-12.2 1.6-3.6 6.1-6 10-8.2 3.4-1.8 6.9-3.7 6.8-5.6-.1-2.8-3-3.8-7.8-5.2-4.7-1.3-10-2.8-10.9-7.9-.3-1.8.3-3.6 1.6-5.2 2-2.4 5.5-3.8 7.1-3.8l.3 1.9c-.2.1-4.5 1.7-3.9 5.6.4 2.5 4.8 3.5 9.4 4.5 6.3 1.5 13.5 3.1 14.3 9.3.7 5.7-8 9.6-15.1 12.7-2.8 1.2-5.4 2.4-6.2 3.2-2.9 2.8-2.1 6.9.1 9.3l-1 1.6z"/>
        <path class="st18" d="M267.6 159.7s-5.3 1.9-4.5 6.7c1.1 6.9 22.4 3.8 23.7 13.8.9 7.2-17.9 12.1-21 15.1-3.2 3.1-2.6 7.8 0 10.7-1.5-.7-6.7-5.4-4.2-10.9 3-6.6 17.1-9.2 17-14.2-.2-7.6-17.3-4.5-18.7-13.2-.7-5.1 5.9-8 7.7-8z"/>
        <g class="st10">
            <path class="st21" d="M263.3 172.1c2.2 1.3 5.2 2.1 7.9 2.9.7-.4 1.4-.9 2.3-1.4.7-.4 1.5-.9 2.2-1.3-3-.7-6-1.3-8.4-2.2-1.4.6-2.8 1.3-4 2z"/>
        </g>
        <path class="st19" d="M281.7 201.4c.7-2.6 1.1-4 0-5.4-1-1.2-4.2-2.1-7.7-3-7.3-2-16.4-4.5-16.4-12.6 0-6 5.6-8.5 10.6-10.8 3.5-1.6 6.7-3 8.1-5.4.7-1.2.9-2.3.6-3.3-.7-2-3.4-3.3-4.7-3.9l.5-1.9c1.9.2 5.9 1.3 8 4.2 1.2 1.7 1.5 3.7 1 5.9-.9 4.1-4.8 6.4-8.2 8.4-4.1 2.4-6.5 4-5.9 7.1.8 3.9 5.5 5.9 9.9 7.8 4.3 1.8 8.3 3.5 8.7 7 .4 3.8-2.6 6.9-2.8 7l-1.7-1.1z"/>
        <path class="st18" d="M272.6 156.1c2.2 1 7.5 3.4 4.6 8.6-3.6 6.4-18.6 6.5-18.6 15.7 0 11.4 20.4 10.9 23.8 15 1.5 1.8.9 3.7.2 6.3 0 0 2.8-2.9 2.5-6.2-.6-6.2-16.8-6.3-18.6-14.6-1.6-7.5 12.3-8 14.1-15.9 1.6-6.7-5.9-8.7-8-8.9z"/>
        <path class="st13" d="M278.7 180.8c-.2-7.6-17.3-4.5-18.7-13.2-.8-4.9 5.9-7.9 7.7-7.9 0 0-5.3 1.9-4.5 6.7 1.1 6.9 22.4 3.8 23.7 13.8"/>
        <path class="st22" d="M469 186s-.1 8-1 8-1-8-1-8v-36h2v36z"/>
        <path class="st17" d="M473.6 181.6c3.5-2.3 6.3-5.4 6.3-10.1 0-2.4-.7-4.3-1.8-6-1.1 1.3-1.7 2.9-1.7 4.7 0 .6.1 1.1.2 1.7-2.7.9-6.4 8-6.4 8 0 6.2 4.3 5.2 7.9 5-1.3-1.2-2.9-2.2-4.5-3.3z"/>
        <path class="st13" d="M478.9 171.5c0-12.3-18.9-11.8-18.9-19.6 0-3.9 3-4.9 3-4.9s-5 1-5 5.9c0 6.9 16 10.7 16 18.6 0 7.8-18 11.8-18 18.6 0 3.9 3 4.9 3 4.9s-1-1-1-3.9c0-6.9 20.9-7.3 20.9-19.6z"/>
        <path class="st23" d="M463.9 160.3c1.6 1.2 3.3 2.3 4.9 3.5.7-.5 1.4-1 2.2-1.6.4-.3.8-.5 1.1-.8-1.7-1-3.5-1.9-5.2-2.7-1 .6-2 1.1-3 1.6z"/>
        <path class="st6" d="M457.1 171.5c0-12.3 18.9-11.8 18.9-19.6 0-3.9-3-4.9-3-4.9s5 1 5 5.9c0 6.9-16 10.7-16 18.6 0 7.8 18 11.8 18 18.6 0 3.9-3 4.9-3 4.9s1-1 1-3.9c0-5.9-20.9-7.3-20.9-19.6z"/>
        <path class="st23" d="M466.5 184.2c.4-.2.8-.4 1.1-.5-1.2-.6-2.4-1.3-3.5-2l-.9.6c1 .7 2.1 1.3 3.3 1.9z"/>
        <circle class="st22" cx="468" cy="150" r="3"/>
        <path class="st13" d="M478.9 171.5c0-12.3-18.9-11.8-18.9-19.6 0-3.9 3-4.9 3-4.9s-5 1-5 5.9c0 6.9 16 10.7 16 18.6"/>
        <g class="st24">
            <path class="st25" d="M464.8 161c-.3.2-.6.4-.9.5.4.3.8.5 1.1.8.7.5 1.5 1 2.2 1.6.3-.2.5-.4.8-.6-1-.8-2.1-1.6-3.2-2.3z"/>
        </g>
        <path class="st17" d="M133.7 377.7c0-2.3-1.4-4.2-3.4-5 .4-.9.7-1.8.7-2.9 0-3-2.1-5.6-5-6.2-1.4 1.5-2.4 3.4-2.4 5.8 0 4.8 3.2 7.7 7.3 9.6-1.6 1.2-3 2.5-3.8 4h1.3c3 0 5.3-2.4 5.3-5.3z"/>
        <path class="st13" d="M133.6 348.7s-5.3 1.9-4.5 6.7c1.1 6.9 21.8 3.8 23.1 13.8.9 7.2-17.3 12.1-20.4 15.1-3.2 3.1-2.6 7.8 0 10.7-1.5-.7-6.7-5.4-4.2-10.9 3-6.6 17.1-9.2 17-14.2-.2-7.6-17.3-4.5-18.7-13.2-.7-5.1 5.9-8 7.7-8z"/>
        <g class="st10">
            <path class="st21" d="M129.3 361.1c2.2 1.3 5.2 2.1 7.9 2.9.7-.4 1.4-.9 2.3-1.4.7-.4 1.5-.9 2.2-1.3-3-.7-6-1.3-8.4-2.2-1.4.6-2.8 1.3-4 2zm5.7 16.5c-1 .6-2.1 1.2-3 1.9 1.7.7 3.5 1.3 5.3 1.8.9-.4 1.9-.8 2.9-1.3 1.4-.7-3.9-3.2-5.2-2.4z"/>
        </g>
        <path class="st6" d="M138.6 345.1c2.2 1 7.5 3.4 4.6 8.6-3.6 6.4-18.6 6.5-18.6 15.7 0 11.4 20.4 10.9 23.8 15 1.5 1.8.9 3.7.2 6.3 0 0 2.8-2.9 2.5-6.2-.6-6.2-16.8-6.3-18.6-14.6-1.6-7.5 12.3-8 14.1-15.9 1.6-6.7-5.9-8.7-8-8.9z"/>
        <path class="st13" d="M144.7 369.8c-.2-7.6-17.3-4.5-18.7-13.2-.8-4.9 5.9-7.9 7.7-7.9 0 0-5.3 1.9-4.5 6.7 1.1 6.9 21.8 3.8 23.1 13.8"/>
        <g class="st10">
            <path class="st21" d="M137 362.9c-.2-.1-.4-.1-.6-.2-1.7-.5-3.5-1-5-1.6-.7.4-1.5.8-2.1 1.2 1.7.9 3.7 1.5 5.6 2.1.6-.5 1.3-1 2.1-1.5z"/>
        </g>
        <path class="st13" d="M144.7 369.8c-.2-7.6-17.3-4.5-18.7-13.2-.8-4.9 5.9-7.9 7.7-7.9 0 0-5.3 1.9-4.5 6.7 1.1 6.9 21.8 3.8 23.1 13.8"/>
        <path class="st22" d="M479 386s-.1 8-1 8-1-8-1-8v-36h2v36z"/>
        <path class="st17" d="M483.6 381.6c3.5-2.3 6.3-5.4 6.3-10.1 0-2.4-.7-4.3-1.8-6-1.1 1.3-1.7 2.9-1.7 4.7 0 .6.1 1.1.2 1.7-2.7.9-6.4 8-6.4 8 0 6.2 4.3 5.2 7.9 5-1.3-1.2-2.9-2.2-4.5-3.3zm-16.8 4.4h2.6c2.9 0 5.3-2.4 5.3-5.3 0-2.3-1.4-4.2-3.4-5 .4-.9.7-1.8.7-2.9 0-3-2-5.4-4.8-6.2-.7 1.4-1.1 3-1.1 4.8 0 4.6 2.7 7.8 6.1 10.2-2.1 1.5-4.1 2.9-5.4 4.4z"/>
        <path class="st13" d="M488.9 371.5c0-12.3-18.9-11.8-18.9-19.6 0-3.9 3-4.9 3-4.9s-5 1-5 5.9c0 6.9 16 10.7 16 18.6 0 7.8-18 11.8-18 18.6 0 3.9 3 4.9 3 4.9s-1-1-1-3.9c0-6.9 20.9-7.3 20.9-19.6z"/>
        <path class="st23" d="M473.9 360.3c1.6 1.2 3.3 2.3 4.9 3.5.7-.5 1.4-1 2.2-1.6.4-.3.8-.5 1.1-.8-1.7-1-3.5-1.9-5.2-2.7-1 .6-2 1.1-3 1.6z"/>
        <path class="st6" d="M467.1 371.5c0-12.3 18.9-11.8 18.9-19.6 0-3.9-3-4.9-3-4.9s5 1 5 5.9c0 6.9-16 10.7-16 18.6 0 7.8 18 11.8 18 18.6 0 3.9-3 4.9-3 4.9s1-1 1-3.9c0-5.9-20.9-7.3-20.9-19.6z"/>
        <path class="st23" d="M476.5 384.2c.4-.2.8-.4 1.1-.5-1.2-.6-2.4-1.3-3.5-2l-.9.6c1 .7 2.1 1.3 3.3 1.9z"/>
        <circle class="st22" cx="478" cy="350" r="3"/>
        <path class="st13" d="M488.9 371.5c0-12.3-18.9-11.8-18.9-19.6 0-3.9 3-4.9 3-4.9s-5 1-5 5.9c0 6.9 16 10.7 16 18.6"/>
        <g class="st24">
            <path class="st25" d="M474.8 361c-.3.2-.6.4-.9.5.4.3.8.5 1.1.8.7.5 1.5 1 2.2 1.6.3-.2.5-.4.8-.6-1-.8-2.1-1.6-3.2-2.3z"/>
        </g>
        <path class="st18" d="M287.7 387.7c0-2.3-1.4-4.2-3.4-5 .4-.9.7-1.8.7-2.9 0-3.5-2.9-6.4-6.4-6.4-1.6 0-3.1.6-4.2 1.6-1.2-2.4-3.7-4-6.5-4-4 0-7.3 3.3-7.3 7.3 0 .6.1 1.1.2 1.7-2.6.9-4.5 3.4-4.5 6.3 0 3.7 3 6.7 6.7 6.7h19.5c2.9 0 5.2-2.4 5.2-5.3z"/>
        <path class="st19" d="M287.7 387.7c0-2.3-1.4-4.2-3.4-5 .4-.9.7-1.8.7-2.9 0-3-2.1-5.6-5-6.2-1.4 1.5-2.4 3.4-2.4 5.8 0 4.8 3.2 7.7 7.3 9.6-1.6 1.2-3 2.5-3.8 4h1.3c3 0 5.3-2.4 5.3-5.3z"/>
        <path class="st18" d="M287.6 358.7s-5.3 1.9-4.5 6.7c1.1 6.9 21.8 3.8 23.1 13.8.9 7.2-17.3 12.1-20.4 15.1-3.2 3.1-2.6 7.8 0 10.7-1.5-.7-6.7-5.4-4.2-10.9 3-6.6 17.1-9.2 17-14.2-.2-7.6-17.3-4.5-18.7-13.2-.7-5.1 5.9-8 7.7-8z"/>
        <g class="st10">
            <path class="st21" d="M283.3 371.1c2.2 1.3 5.2 2.1 7.9 2.9.7-.4 1.4-.9 2.3-1.4.7-.4 1.5-.9 2.2-1.3-3-.7-6-1.3-8.4-2.2-1.4.6-2.8 1.3-4 2z"/>
        </g>
        <path class="st19" d="M301.7 400.4c.7-2.6 1.1-4 0-5.4-1-1.2-4.2-2.1-7.7-3-7.3-2-16.4-4.5-16.4-12.6 0-6 5.6-8.5 10.6-10.8 3.5-1.6 6.7-3 8.1-5.4.7-1.2.9-2.3.6-3.3-.7-2-3.4-3.3-4.7-3.9l.5-1.9c1.9.2 5.9 1.3 8 4.2 1.2 1.7 1.5 3.7 1 5.9-.9 4.1-4.8 6.4-8.2 8.4-4.1 2.4-6.5 4-5.9 7.1.8 3.9 5.5 5.9 9.9 7.8 4.3 1.8 8.3 3.5 8.7 7 .4 3.8-2.6 6.9-2.8 7l-1.7-1.1z"/>
        <path class="st18" d="M292.6 355.1c2.2 1 7.5 3.4 4.6 8.6-3.6 6.4-18.6 6.5-18.6 15.7 0 11.4 20.4 10.9 23.8 15 1.5 1.8.9 3.7.2 6.3 0 0 2.8-2.9 2.5-6.2-.6-6.2-16.8-6.3-18.6-14.6-1.6-7.5 12.3-8 14.1-15.9 1.6-6.7-5.9-8.7-8-8.9z"/>
        <path class="st13" d="M298.7 379.8c-.2-7.6-17.3-4.5-18.7-13.2-.8-4.9 5.9-7.9 7.7-7.9 0 0-5.3 1.9-4.5 6.7 1.1 6.9 21.8 3.8 23.1 13.8"/>
        <path class="st19" d="M297.7 379.8c-.1-2.8-3-3.8-7.8-5.2-4.7-1.3-10-2.8-10.9-7.9-.3-1.8.3-3.6 1.6-5.2 2-2.4 5.5-3.8 7.1-3.8l.3 1.9c-.2.1-4.5 1.7-3.9 5.6.4 2.5 4.7 3.5 9.2 4.5 6.2 1.5 13.2 3.1 14 9.3l-2 .3c-.6-4.8-6.6-6.2-12.4-7.6-5.2-1.2-10.1-2.4-10.7-6.2-.2-1.1-.1-2.1.2-3l-.3.3c-1 1.1-1.3 2.3-1.1 3.6.6 3.9 5.1 5.1 9.4 6.3 4.5 1.3 9.2 2.6 9.3 7l-2 .1z"/>
        <path class="st18" d="M306.3 379.1c-1.3-10-22.1-6.9-23.1-13.8-.8-4.8 4.5-6.7 4.5-6.7-1.8 0-8.5 3-7.7 7.9 1.4 8.8 18.5 5.6 18.7 13.2l4.2 1.6 3.4-2.2z"/>
        <path class="st19" d="M279.1 180.8l.6-.6c-.5-4-5-5.2-9.3-6.4-4.3-1.2-8.8-2.5-9.4-6.3-.2-1.2.2-2.5 1.1-3.6l.3-.3c-.3.9-.4 1.9-.2 3 .6 3.8 5.6 5 11 6.2 3.2.7 6.5 1.5 9 2.8.3-.6.7-1.1 1.2-1.6-2.8-1.5-6.3-2.4-9.7-3.1-4.7-1.1-9.1-2.1-9.4-4.5-.6-3.9 3.7-5.5 3.9-5.6l-.3-1.9c-1.6 0-5.1 1.5-7.1 3.8-1.3 1.6-1.9 3.4-1.6 5.2.8 5.1 6.2 6.6 10.9 7.9 4.8 1.4 7.8 2.4 7.8 5.2l1.2-.2z"/>
        <path class="st18" d="M279 181l4 1 3.9-1.9c-1.3-10-22.7-6.9-23.7-13.8-.8-4.8 4.5-6.7 4.5-6.7-1.8 0-8.5 3-7.7 7.9 1.4 8.8 18.5 5.6 18.7 13.2"/>
        <g class="st10">
            <path class="st26" d="M252 544c2 6 .5 8.1-9 8.1l-1 2.9h32l-1-2.9c-9.5 0-10-2.1-8-8.1"/>
            <path class="st27" d="M279 510h-42.2c-1.5 0-2.7 1.3-2.7 2.8v28.4c0 1.5 1.2 2.8 2.7 2.8H279c1.5 0 3-1.3 3-2.8v-28.4c0-1.5-1.5-2.8-3-2.8"/>
            <path class="st28" d="M278.9 510c-.1 0-.1 0 0 0h-42.1c-1.5 0-2.7 1.3-2.7 2.8v28.4c0 1.5 1.2 2.8 2.7 2.8h1.1l41-34z"/>
            <path class="st29" d="M278 514v26h-40v-26z"/>
            <path class="st27" d="M242 552h32v3h-32z"/>
            <path class="st30" d="M258.9 512c0 .5-.4 1-1 1-.5 0-.9-.4-.9-1 0-.5.4-1 .9-1 .6 0 1 .5 1 1"/>
        </g>
        <path class="st3" d="M171.8 536.5c0-3.6-2.2-6.7-5.4-7.9.7-1.4 1.1-2.9 1.1-4.6 0-5.6-4.5-10.1-10.1-10.1-2.6 0-4.9 1-6.7 2.5-1.9-3.8-5.8-6.4-10.3-6.4-6.4 0-11.6 5.2-11.6 11.6 0 .9.1 1.8.3 2.7-4.1 1.5-7.1 5.4-7.1 10 0 5.9 4.7 10.6 10.6 10.6h30.9c4.6 0 8.3-3.7 8.3-8.4z"/>
        <path class="st31" d="M171 533h-11l-2-5-3 7-3-10-2 8h-7l-2-4-3 6-2.3-11-2.7 9h-10.9c-.1.4-.1.9-.1 1.4v.7h12.5l.7-2.6 2.1 10 4.1-9.4.7 1.8h8.8l1.1-3.3 2.3 10.9 4.1-9.4.7 1.8h12.5c-.1-.6-.3-1.3-.6-1.9z"/>
        <path class="st18" d="M170.5 532h-9.3l-2.6-6.6-3.2 7.3-2.6-12.6-3.9 11.8h-4.6l-2.6-6.6-3.2 7.3-2.7-13-3.4 12.3h-10c-.1.6-.2 1.3-.2 2h11.7l1.6-5.8 2.3 11 3.8-8.7 1.4 3.4h7.4l2-6.2 2.4 11.4 3.8-8.7 1.4 3.4h11.6c-.4-.4-.7-1.1-1.1-1.7z"/>
        <g class="st10">
            <path class="st29" d="M122.3 632h10l3.4-12.3 2.7 13 3.2-7.3 2.6 6.6h4.6l3.9-11.8 2.6 12.6 3.2-7.3 2.6 6.6h9.3c-1-1.5-2.4-2.7-4.1-3.3.7-1.4 1.1-2.9 1.1-4.6 0-5.6-4.5-10.1-10.1-10.1-2.6 0-4.9 1-6.7 2.5-1.9-3.8-5.8-6.4-10.3-6.4-6.4 0-11.6 5.2-11.6 11.6 0 .9.1 1.8.3 2.7-3.3.9-5.9 3.8-6.7 7.5z"/>
            <path class="st32" d="M159.8 634.1l-1.4-3.4-3.8 8.7-2.4-11.4-2 6.2h-7.4l-1.4-3.4-3.8 8.7-2.3-11-1.6 5.8H122v.3c0 5.9 4.7 10.6 10.6 10.6h30.9c4.6-.1 8.3-3.8 8.3-8.5 0-.9-.1-1.7-.4-2.5h-11.6z"/>
            <path d="M159.8 634.1l-1.4-3.4-3.8 8.7-2.4-11.4-2 6.2h-7.4l-1.4-3.4-3.8 8.7-2.3-11-1.6 5.8H122v.3c0 5.9 4.7 10.6 10.6 10.6h30.9c4.6-.1 8.3-3.8 8.3-8.5 0-.9-.1-1.7-.4-2.5h-11.6z" opacity=".3" fill="#59b4d9"/>
        </g>
        <path class="st31" d="M246.2 529.5l-.7 2.6H234V530h10l2.7-9 2.3 11 3-6 2 4h7l2-8 3 10 3-7 2 5h11v2h-11.9l-.7-1.8-4.1 9.3-2.2-10.8-1.1 3.3h-8.9l-.7-1.8-4.1 9.3z"/>
        <path class="st18" d="M272.2 529l-2.7-6.6-3.2 7.3-2.6-12.5-3.9 11.8h-4.6l-2.7-6.6-3.2 7.3-1.7-12.9-4.4 12.3H234v2h10.8l1.6-5.8 2.3 11 3.8-8.7 1.3 3.4h7.4l2.1-6.2 2.4 11.5 3.8-8.7 1.3 3.4H282v-2z"/>
        <g class="st10">
            <path class="st26" d="M252 644c2 6 .5 8.1-9 8.1l-1 2.9h32l-1-2.9c-9.5 0-10-2.1-8-8.1"/>
            <path class="st27" d="M279 610h-42.2c-1.5 0-2.7 1.3-2.7 2.8v28.4c0 1.5 1.2 2.8 2.7 2.8H279c1.5 0 3-1.3 3-2.8v-28.4c0-1.5-1.5-2.8-3-2.8"/>
            <path class="st28" d="M278.9 610c-.1 0-.1 0 0 0h-42.1c-1.5 0-2.7 1.3-2.7 2.8v28.4c0 1.5 1.2 2.8 2.7 2.8h1.1l41-34z"/>
            <path class="st29" d="M278 614v26h-40v-26z"/>
            <path class="st27" d="M242 652h32v3h-32z"/>
            <path class="st30" d="M258.9 612c0 .5-.4 1-1 1-.5 0-.9-.4-.9-1 0-.5.4-1 .9-1 .6 0 1 .5 1 1"/>
        </g>
        <path class="st18" d="M272.2 629l-2.7-6.6-3.2 7.3-2.6-12.5-3.9 11.8h-4.6l-2.7-6.6-3.2 7.3-1.7-12.9-4.4 12.2h-9.3v2h10.9l1.6-5.7 2.3 11 3.8-8.7 1.3 3.4h7.4l2.1-6.2 2.4 11.5 3.8-8.7 1.3 3.4h11.3v-2z"/>
        <path opacity=".8" fill="#3999c6" d="M271.2 631.2l-1.3-3.5-3.8 8.7-2.4-11.4-2.1 6.2h-7.4l-1.3-3.5-3.8 8.7-2.3-11-1.6 5.8H239v8.4h38.8v-8.4z"/>
        <path d="M234 631h4v1h-4zm44 0h4v1h-4z" opacity=".6" fill="#7a7a7a"/>
        <text transform="translate(139 697)" fill="gray" font-family="MyriadPro-Regular" font-size="12">
            a b c d
        </text>
        <text transform="translate(86 533)" class="st10">
            <tspan x="0" y="0" fill="gray" font-family="MyriadPro-Regular" font-size="12">1</tspan><tspan x="0" y="100" fill="gray" font-family="MyriadPro-Regular" font-size="12">2</tspan>
        </text>
        <g class="st10">
            <path class="st26" d="M352 544c2 6 .5 8.1-9 8.1l-1 2.9h32l-1-2.9c-9.5 0-10-2.1-8-8.1"/>
            <path class="st27" d="M379 510h-42.2c-1.5 0-2.7 1.3-2.7 2.8v28.4c0 1.5 1.2 2.8 2.7 2.8H379c1.5 0 3-1.3 3-2.8v-28.4c0-1.5-1.5-2.8-3-2.8"/>
            <path class="st28" d="M378.9 510c-.1 0-.1 0 0 0h-42.1c-1.5 0-2.7 1.3-2.7 2.8v28.4c0 1.5 1.2 2.8 2.7 2.8h1.1l41-34z"/>
            <path class="st12" d="M378 514v26h-40v-26z"/>
            <path class="st27" d="M342 552h32v3h-32z"/>
            <path class="st30" d="M358.9 512c0 .5-.4 1-1 1-.5 0-.9-.4-.9-1 0-.5.4-1 .9-1 .6 0 1 .5 1 1"/>
        </g>
        <path class="st36" d="M364.8 529.1l-.8 2.9h-10.9l-.4-1.1-3.4 9-2.5-10.8-.8 2.9h-12v-2h10l3-9 3 11 3-6 1 4h8l3-8 3 9 3-6 2 5h9v2h-10.9l-.4-1.1-3.4 9z"/>
        <path class="st37" d="M334 530h10.5l2.5-9 2.8 12 3-8 1.7 5h6.5"/>
        <path class="st37" d="M356 530h6.5l2.5-9 2.8 12 3-8 1.7 5h9.5"/>
        <g class="st10">
            <path class="st26" d="M352 644c2 6 .5 8.1-9 8.1l-1 2.9h32l-1-2.9c-9.5 0-10-2.1-8-8.1"/>
            <path class="st27" d="M379 610h-42.2c-1.5 0-2.7 1.3-2.7 2.8v28.4c0 1.5 1.2 2.8 2.7 2.8H379c1.5 0 3-1.3 3-2.8v-28.4c0-1.5-1.5-2.8-3-2.8"/>
            <path class="st28" d="M378.9 610c-.1 0-.1 0 0 0h-42.1c-1.5 0-2.7 1.3-2.7 2.8v28.4c0 1.5 1.2 2.8 2.7 2.8h1.1l41-34z"/>
            <path class="st12" d="M378 614v26h-40v-26z"/>
            <path class="st27" d="M342 652h32v3h-32z"/>
            <path class="st30" d="M358.9 612c0 .5-.4 1-1 1-.5 0-.9-.4-.9-1 0-.5.4-1 .9-1 .6 0 1 .5 1 1"/>
        </g>
        <path class="st18" d="M373.2 629l-2.4-6.9-2.8 7.4-2.9-12.6-3.4 12.1h-6.5l-2.4-6.9-2.8 7.4-2.9-12.6-3.4 12.1H334v2h11.3l1.6-5.9 2.6 11.4 3.2-8.6 1.1 3.1h9.5l1.6-5.9 2.6 11.4 3.2-8.6 1.1 3.1H382v-2z"/>
        <path class="st38" d="M371.8 631l-1.1-3.1-3.2 8.6-2.6-11.4-1.6 5.9h-9.5l-1.1-3.1-3.2 8.6-2.6-11.4-1.6 5.9h-6.7v8.4h38.8V631z"/>
        <g class="st10">
            <path class="st32" d="M452 544c2 6 .5 8.1-9 8.1l-1 2.9h32l-1-2.9c-9.5 0-10-2.1-8-8.1"/>
            <path class="st39" d="M452 544c2 6 .5 8.1-9 8.1l-1 2.9h32l-1-2.9c-9.5 0-10-2.1-8-8.1"/>
            <path class="st32" d="M479 510h-42.2c-1.5 0-2.7 1.3-2.7 2.8v28.4c0 1.5 1.2 2.8 2.7 2.8H479c1.5 0 3-1.3 3-2.8v-28.4c0-1.5-1.5-2.8-3-2.8"/>
            <path class="st28" d="M478.9 510c-.1 0-.1 0 0 0h-42.1c-1.5 0-2.7 1.3-2.7 2.8v28.4c0 1.5 1.2 2.8 2.7 2.8h1.1l41-34z"/>
            <path class="st12" d="M478 514v26h-40v-26z"/>
            <path class="st32" d="M442 552h32v3h-32z"/>
            <path class="st30" d="M458.9 512c0 .5-.4 1-1 1-.5 0-.9-.4-.9-1 0-.5.4-1 .9-1 .6 0 1 .5 1 1"/>
        </g>
        <path class="st36" d="M464.8 529.1l-.8 2.9h-10.9l-.4-1.1-3.4 9-2.5-10.8-.8 2.9h-12v-2h10l3-9 3 11 3-6 1 4h8l3-8 3 9 3-6 2 5h9v2h-10.9l-.4-1.1-3.4 9z"/>
        <path class="st37" d="M434 530h10.5l2.5-9 2.8 12 3-8 1.7 5h6.5"/>
        <path class="st37" d="M456 530h6.5l2.5-9 2.8 12 3-8 1.7 5h9.5"/>
        <g class="st10">
            <path class="st32" d="M452 644c2 6 .5 8.1-9 8.1l-1 2.9h32l-1-2.9c-9.5 0-10-2.1-8-8.1"/>
            <path class="st39" d="M452 644c2 6 .5 8.1-9 8.1l-1 2.9h32l-1-2.9c-9.5 0-10-2.1-8-8.1"/>
            <path class="st32" d="M479 610h-42.2c-1.5 0-2.7 1.3-2.7 2.8v28.4c0 1.5 1.2 2.8 2.7 2.8H479c1.5 0 3-1.3 3-2.8v-28.4c0-1.5-1.5-2.8-3-2.8"/>
            <path class="st28" d="M478.9 610c-.1 0-.1 0 0 0h-42.1c-1.5 0-2.7 1.3-2.7 2.8v28.4c0 1.5 1.2 2.8 2.7 2.8h1.1l41-34z"/>
            <path class="st12" d="M478 614v26h-40v-26z"/>
            <path class="st32" d="M442 652h32v3h-32z"/>
            <path class="st30" d="M458.9 612c0 .5-.4 1-1 1-.5 0-.9-.4-.9-1 0-.5.4-1 .9-1 .6 0 1 .5 1 1"/>
        </g>
        <path class="st18" d="M473.2 629l-2.4-6.9-2.8 7.4-2.9-12.6-3.4 12.1h-6.5l-2.4-6.9-2.8 7.4-2.9-12.6-3.4 12.1H434v2h11.3l1.6-5.9 2.6 11.4 3.2-8.6 1.1 3.1h9.5l1.6-5.9 2.6 11.4 3.2-8.6 1.1 3.1H482v-2z"/>
        <path class="st38" d="M471.8 631l-1.1-3.1-3.2 8.6-2.6-11.4-1.6 5.9h-9.5l-1.1-3.1-3.2 8.6-2.6-11.4-1.6 5.9h-6.7v8.4h38.8V631z"/>
        <path d="M434 631h4v1h-4zm44 0h4v1h-4z" opacity=".6" fill="#0072c6"/>
        <path class="st2" d="M588 137h90v90h-90zm0 200h90v90h-90zm-50 150h90v90h-90zm150 0h90v90h-90z"/>
        <path class="st18" d="M658.9 190.7c0-2.3-1.4-4.2-3.5-4.9.4-.9.7-1.8.7-2.9 0-3.5-2.9-6.3-6.5-6.3-1.6 0-3.1.6-4.3 1.6-1.2-2.4-3.7-4-6.6-4-4.1 0-7.4 3.3-7.4 7.3 0 .6.1 1.1.2 1.7-2.7.9-4.6 3.4-4.6 6.3 0 6.7 3 6.7 6.8 6.7h19.8c3-.2 5.4-2.6 5.4-5.5zM624 197s-.1 8-1 8-1-8-1-8v-36h2v36z"/>
        <path class="st17" d="M634.3 196c-1.3-1.5-3.2-2.7-5.3-4 3.3-2.3 5.8-5.4 5.8-10 0-2.3-.6-4.1-1.5-5.7-1.3 1.3-2.1 3.1-2.1 5.1 0 .6.1 1.1.2 1.7-2.7.9-4.6 3.4-4.6 6.3 0 6.7 3 6.7 6.8 6.7h.7z"/>
        <path class="st19" d="M634.9 182c0-2.3-.6-4.1-1.5-5.7-1.3 1.3-2.1 3.1-2.1 5.1 0 .6.1 1.1.2 1.7-2.7.9-4.6 3.4-4.6 6.3 0 1.6.2 2.8.5 3.8 4-2.6 7.5-5.9 7.5-11.2z"/>
        <path class="st19" d="M631.4 205.4c-.1-.1.6-1 .6-3.4 0-1.8-3.4-3.5-7.1-5.3-6.2-3-13.8-6.7-13.8-14.7 0-7.6 6.4-10.8 11.6-13.4 3.9-2 7.3-3.7 7.3-6.6 0-3.2-2.3-4-2.3-4.1l.5-1.9c2 .4 5.8 2.4 5.8 7 0 3.9-3.9 6.7-8 9.6-3.9 2.8-8 5.7-8 9.4 0 3.5 4.5 6.2 8.9 8.7 4.7 2.7 9.1 5.3 9.1 9.3 0 5.7-3.5 6.9-3.7 6.9l-.9-1.5z"/>
        <path class="st18" d="M612.1 182c0-12.5 18.9-12 18.9-20 0-4-3-5-3-5s5 1 5 6c0 7-16 11-16 19s18 11 18 18c0 5-3 6-3 6s1-1 1-4c0-6-20.9-7.5-20.9-20z"/>
        <path class="st4" d="M618.9 170.6c1.6 1.2 3.3 2.4 4.9 3.6.7-.5 1.4-1.1 2.2-1.6.4-.3.8-.5 1.1-.8-1.7-1-3.5-1.9-5.2-2.8-1 .5-2 1-3 1.6z"/>
        <path class="st19" d="M618.9 170.6c1.6 1.2 3.3 2.4 4.9 3.6.7-.5 1.4-1.1 2.2-1.6.4-.3.8-.5 1.1-.8-1.7-1-3.5-1.9-5.2-2.8-1 .5-2 1-3 1.6z"/>
        <circle class="st18" cx="623" cy="161" r="3"/>
        <path class="st19" d="M634.9 182h-2c0-6.3-5.3-9-10.5-11.6-4.1-2.1-8.1-4.1-8.4-7.9v.5c0 2.9 3.5 5.4 7.2 8 4.3 3.1 8.8 6.3 8.8 11h-2c0-3.6-4.1-6.6-8-9.4-4.1-2.9-8-5.7-8-9.6 0-4.6 3.8-6.6 5.8-7l.5 1.9c-.1 0-2.3.9-2.3 4.1 0 2.9 3.4 4.6 7.3 6.6 5.2 2.6 11.6 5.8 11.6 13.4z"/>
        <path class="st18" d="M633.9 182c0-12.5-18.9-12-18.9-20 0-4 3-5 3-5s-5 1-5 6c0 7 16 11 16 19"/>
        <path class="st18" d="M658.9 190.7c0-2.3-1.4-4.2-3.5-4.9.4-.9.7-1.8.7-2.9 0-3.5-2.9-6.3-6.5-6.3-1.6 0-3.1.6-4.3 1.6-1.2-2.4-3.7-4-6.6-4-4.1 0-7.4 3.3-7.4 7.3 0 .6.1 1.1.2 1.7-2.7.9-4.6 3.4-4.6 6.3 0 6.7 3 6.7 6.8 6.7h19.8c3-.2 5.4-2.6 5.4-5.5zM624 197s-.1 8-1 8-1-8-1-8v-36h2v36z"/>
        <path class="st17" d="M634.3 196c-1.3-1.5-3.2-2.7-5.3-4 3.3-2.3 5.8-5.4 5.8-10 0-2.3-.6-4.1-1.5-5.7-1.3 1.3-2.1 3.1-2.1 5.1 0 .6.1 1.1.2 1.7-2.7.9-4.6 3.4-4.6 6.3 0 6.7 3 6.7 6.8 6.7h.7z"/>
        <path class="st19" d="M634.9 182c0-2.3-.6-4.1-1.5-5.7-1.3 1.3-2.1 3.1-2.1 5.1 0 .6.1 1.1.2 1.7-2.7.9-4.6 3.4-4.6 6.3 0 1.6.2 2.8.5 3.8 4-2.6 7.5-5.9 7.5-11.2z"/>
        <path class="st18" d="M633.9 182c0-12.5-18.9-12-18.9-20 0-4 3-5 3-5s-5 1-5 6c0 7 16 11 16 19s-18 12-18 19c0 4 3 5 3 5s-1-1-1-4c0-7 20.9-7.5 20.9-20z"/>
        <path class="st19" d="M631.4 205.4c-.1-.1.6-1 .6-3.4 0-1.8-3.4-3.5-7.1-5.3-6.2-3-13.8-6.7-13.8-14.7 0-7.6 6.4-10.8 11.6-13.4 3.9-2 7.3-3.7 7.3-6.6 0-3.2-2.3-4-2.3-4.1l.5-1.9c2 .4 5.8 2.4 5.8 7 0 3.9-3.9 6.7-8 9.6-3.9 2.8-8 5.7-8 9.4 0 3.5 4.5 6.2 8.9 8.7 4.7 2.7 9.1 6.3 9.1 10.3 0 5.7-3.5 5.9-3.7 5.9l-.9-1.5z"/>
        <path class="st18" d="M612.1 182c0-12.5 18.9-12 18.9-20 0-4-3-5-3-5s5 1 5 6c0 7-16 11-16 19s18 12 18 19c0 4-3 5-3 5s1-1 1-4c0-6-20.9-7.5-20.9-20z"/>
        <path class="st4" d="M618.9 170.6c1.6 1.2 3.3 2.4 4.9 3.6.7-.5 1.4-1.1 2.2-1.6.4-.3.8-.5 1.1-.8-1.7-1-3.5-1.9-5.2-2.8-1 .5-2 1-3 1.6z"/>
        <path class="st19" d="M618.9 170.6c1.6 1.2 3.3 2.4 4.9 3.6.7-.5 1.4-1.1 2.2-1.6.4-.3.8-.5 1.1-.8-1.7-1-3.5-1.9-5.2-2.8-1 .5-2 1-3 1.6z"/>
        <circle class="st18" cx="623" cy="161" r="3"/>
        <path class="st19" d="M634.9 182h-2c0-6.3-5.3-9-10.5-11.6-4.1-2.1-8.1-4.1-8.4-7.9v.5c0 2.9 3.5 5.4 7.2 8 4.3 3.1 8.8 6.3 8.8 11h-2c0-3.6-4.1-6.6-8-9.4-4.1-2.9-8-5.7-8-9.6 0-4.6 3.8-6.6 5.8-7l.5 1.9c-.1 0-2.3.9-2.3 4.1 0 2.9 3.4 4.6 7.3 6.6 5.2 2.6 11.6 5.8 11.6 13.4z"/>
        <path class="st18" d="M633.9 182c0-12.5-18.9-12-18.9-20 0-4 3-5 3-5s-5 1-5 6c0 7 16 11 16 19m10.7 207.7c0-2.3-1.4-4.2-3.4-5 .4-.9.7-1.8.7-2.9 0-3.5-2.9-6.4-6.4-6.4-1.6 0-3.1.6-4.2 1.6-1.2-2.4-3.7-4-6.5-4-4 0-7.3 3.3-7.3 7.3 0 .6.1 1.1.2 1.7-2.6.9-4.5 3.4-4.5 6.3 0 3.7 3 6.7 6.7 6.7h19.5c2.9 0 5.2-2.4 5.2-5.3zm4.3 5.3s-.1 8-1 8-1-8-1-8v-36h2v36z"/>
        <path class="st17" d="M631.8 395h2.6c2.9 0 5.3-2.4 5.3-5.3 0-2.3-1.4-4.2-3.4-5 .4-.9.7-1.8.7-2.9 0-3-2-5.4-4.8-6.2-.7 1.4-1.1 3-1.1 4.8 0 4.6 2.7 7.8 6.1 10.2-2.1 1.5-4.1 2.9-5.4 4.4z"/>
        <path class="st19" d="M648 380.4v.1c0 3.5-4.6 6.3-9 9.1-4.6 2.9-9 5.7-9 9.5 0 4.5 3.5 5.8 3.7 5.8l3.5 1.1-2.5-2.8s-.7-.9-.7-3.2c0-2.3 3.7-4 7.6-5.8 5.9-2.7 13.3-6.1 13.3-13.8v-.1H648z"/>
        <path class="st18" d="M653.9 380.5c0-12.3-18.9-11.8-18.9-19.6 0-3.9 3-4.9 3-4.9s-5 1-5 5.9c0 6.9 16 10.7 16 18.6 0 7.8-18 11.8-18 18.6 0 3.9 3 4.9 3 4.9s-1-1-1-3.9c0-6.9 20.9-7.3 20.9-19.6z"/>
        <path class="st4" d="M638.9 369.3c1.6 1.2 3.3 2.3 4.9 3.5.7-.5 1.4-1 2.2-1.6.4-.3.8-.5 1.1-.8-1.7-1-3.5-1.9-5.2-2.7-1 .6-2 1.1-3 1.6z"/>
        <path class="st19" d="M651.4 403.4c-.1-.1.6-.9.6-3.3 0-1.8-3.4-3.4-7-5.1-6.2-2.9-13.8-6.6-13.8-14.5 0-7.4 6.4-10.6 11.6-13.1 3.9-1.9 7.3-3.6 7.3-6.5 0-3.2-2.3-3.9-2.3-3.9l.5-1.9c2 .4 5.8 2.3 5.8 6.9 0 3.8-3.9 6.6-8 9.4-3.9 2.8-8 5.6-8 9.2 0 3.5 4.6 6.3 9 9.1 4.6 2.9 9 5.7 9 9.5 0 4.5-3.5 5.8-3.7 5.8l-1-1.6z"/>
        <path class="st18" d="M632.1 380.5c0-12.3 18.9-11.8 18.9-19.6 0-3.9-3-4.9-3-4.9s5 1 5 5.9c0 6.9-16 10.7-16 18.6 0 7.8 18 11.8 18 18.6 0 3.9-3 4.9-3 4.9s1-1 1-3.9c0-5.9-20.9-7.3-20.9-19.6z"/>
        <circle class="st18" cx="643" cy="359" r="3"/>
        <path class="st19" d="M654.9 380.5h-2c0-6.2-5.3-8.8-10.4-11.3-4.2-2-8.1-4-8.4-7.8v.5c0 2.8 3.5 5.2 7.2 7.8 4.3 3 8.8 6.2 8.8 10.8h-2c0-3.6-4.1-6.4-8-9.2-4.1-2.9-8-5.6-8-9.4 0-4.5 3.8-6.5 5.8-6.9l.5 1.9c-.1 0-2.3.8-2.3 3.9 0 2.9 3.4 4.5 7.3 6.5 5.1 2.6 11.5 5.8 11.5 13.2z"/>
        <path class="st18" d="M653.9 380.5c0-12.3-18.9-11.8-18.9-19.6 0-3.9 3-4.9 3-4.9s-5 1-5 5.9c0 6.9 16 10.7 16 18.6"/>
        <g class="st10">
            <path class="st41" d="M754 507h-42.2c-1.5 0-2.7 1.3-2.7 2.8v28.4c0 1.5 1.2 2.8 2.7 2.8H754c1.5 0 3-1.3 3-2.8v-28.4c0-1.5-1.5-2.8-3-2.8zm-1 30h-40v-26h40v26zm-8.2 12c-6.3-.5-6.5-2.8-4.8-8h-13c1.7 5.2.8 7.5-5.7 8H717v3h32v-3h-4.2z"/>
            <path class="st20" d="M733.9 509c0 .5-.4 1-1 1-.5 0-.9-.4-.9-1 0-.5.4-1 .9-1 .6 0 1 .5 1 1"/>
        </g>
        <path class="st19" d="M708 526h6v4h-6zm44 0h6v4h-6z"/>
        <path class="st18" d="M747.2 525.9l-2.7-6.5-3.2 7.3-2.6-12.6-3.9 11.8h-4.6l-2.7-6.5-3.2 7.3-1.7-13-4.4 12.3H709v2h10.8l1.6-5.8 2.3 11 3.8-8.7 1.3 3.4h7.4l2.1-6.1 2.4 11.4 3.8-8.7 1.3 3.4H757v-2zm-139.4 12.6c0-3.6-2.2-6.7-5.4-7.9.7-1.4 1.1-2.9 1.1-4.6 0-5.6-4.5-10.1-10.1-10.1-2.6 0-4.9 1-6.7 2.5-1.9-3.8-5.8-6.4-10.3-6.4-6.4 0-11.6 5.2-11.6 11.6 0 .9.1 1.8.3 2.7-4.1 1.5-7.1 5.4-7.1 10 0 5.9 4.7 10.6 10.6 10.6h30.9c4.6 0 8.3-3.7 8.3-8.4z"/>
        <path class="st19" d="M588.3 530.2l-1.9 5.9h-7.6l-1.3-3.3-3.8 8.8-2.3-10.9-1.5 5.5h-12v-.1c0-.7.1-1.4.2-2v-.1h10.1l3.4-12.2h.2l2.6 12.7 3.2-7.2 2.7 6.7h4.5l4-12.1 2.6 12.6 3.2-7.2 2.7 6.7h9.3c.5.7.8 1.4 1 2.1v.1h-11.9l-1.3-3.3-3.8 8.8-2.3-11.5z"/>
        <path class="st18" d="M756 526h3v2h-3zm-49 0h3v2h-3z"/>
        <path class="st42" d="M569.5 606c-5.2 0-9.6 3.1-11.5 7.6-1.9-4.5-6.3-7.6-11.5-7.6-8.5 0-12.5 8.1-12.5 15 0 21 24 33 24 33s24-12 24-33c0-6.9-4-15-12.5-15z"/>
        <g class="st43">
            <path class="st20" d="M572 632.8l-1.4-3.9-2.1 6.6c-.3 1-1.7.9-1.9-.1l-2.2-10.7-2.1 8.1H555l-1.4-3.9-2.1 6.6c-.3 1-1.7.9-1.9-.1l-2.2-10.7-2.1 8.1h-8.7C542.9 646.4 558 654 558 654s15.1-7.6 21.4-21.2H572z"/>
        </g>
        <path class="st3" d="M669.5 606c-5.2 0-9.6 3.1-11.5 7.6-1.9-4.5-6.3-7.6-11.5-7.6-8.5 0-12.5 8.1-12.5 15 0 21 24 33 24 33s24-12 24-33c0-6.9-4-15-12.5-15z"/>
        <path class="st42" d="M658 632c-12 0-20-5.4-24-11.6v.6c0 21 24 33 24 33s24-12 24-33v-.6c-4 6.2-12 11.6-24 11.6z"/>
        <circle class="st18" cx="661" cy="642" r="3.9"/>
        <path class="st44" d="M661 642c19.9-6.9 25-20 20-31.8-4.8-11.2-34-11.2-39-6.2-8.1 8.1 0 14.7 0 14.7"/>
        <path class="st18" d="M650.9 639.8c-.3 0-.7-.1-.9-.4-7.4-7.6-14.1-15.5-8.4-21.3 1.4-1.4 3.1-2.2 4.9-2.2 5 0 10.8 5.2 16.3 10.5.2.2.4.5.4.9 0 .3-.1.7-.4.9l-1.3 1.3c-.2.2-.6.4-.9.4-.3 0-.6-.1-.9-.4l-.7-.7c-.5-.5-.5-1.3 0-1.8l.6-.6c-6-5.7-10.1-8.3-13.1-8.3-1.3 0-2.4.5-3.4 1.5-3.2 3.2-1.3 8 6.8 16.5l.6-.6c.2-.2.5-.4.9-.4.3 0 .6.1.9.4l.7.7c.2.2.4.5.4.9s-.1.6-.4.9l-.7.7v.1l-.5.5c-.3.4-.6.5-.9.5z"/>
        <path class="st42" d="M737.3 636c-1.9 0-3.6 1.2-4.3 2.8-.7-1.7-2.4-2.8-4.3-2.8-3.2 0-4.7 3-4.7 5.6 0 7.9 9 12.4 9 12.4s9-4.5 9-12.4c0-2.6-1.5-5.6-4.7-5.6z"/>
        <path fill="none" stroke="#fff" stroke-width=".787" stroke-linecap="round" stroke-miterlimit="10" d="M741.6 645.7h-3.1l-.8-2.4-1.1 3.6-1.1-5.6-1.2 4.4h-2.1l-.8-2.4-1.2 3.6-1.1-5.6-1.1 4.4h-3.6"/>
        <g class="st43">
            <path class="st20" d="M738.3 646l-.5-1.5-1.2 3.9-1.1-5.4-.8 3h-2.8l-.5-1.5-1.2 3.9-1.2-5.4-.8 3H725c2.3 5.1 8 8 8 8s5.7-2.8 8-8h-2.7z"/>
        </g>
        <path d="M574.2 630l-2.2-6.4c-.2-.6-.8-1-1.4-1-.6 0-1.2.4-1.4 1l-1.1 3.8-2-9.9c-.1-.7-.7-1.2-1.4-1.2s-1.2.4-1.4 1.1L560 630h-2.8l-2.2-6.4c-.2-.6-.8-1-1.4-1-.6 0-1.2.4-1.4 1l-1.1 3.8-2-9.9c-.1-.7-.7-1.2-1.4-1.2s-1.2.4-1.4 1.1L543 630h-7.5c.5 1.4 1.1 2.7 1.7 4h7.8c.7 0 1.2-.5 1.4-1.1l.9-3.8 1.8 8.6c.1.7.7 1.2 1.4 1.2.6 0 1.2-.4 1.4-1l1.8-5.8.3 1c.2.6.8 1 1.4 1h6.6c.7 0 1.2-.5 1.4-1.1l.9-3.8 1.8 8.6c.1.7.7 1.2 1.4 1.2.6 0 1.2-.4 1.4-1l1.8-5.8.3 1c.2.6.8 1 1.4 1h6.4c.6-1.3 1.2-2.6 1.7-4h-6.3z" opacity=".4" fill="#0072c6"/>
        <path class="st18" d="M567.5 638c-.2 0-.5-.1-.5-.4l-2.6-12.6-1.9 7.7c-.1.2-.3.4-.5.4h-6.6c-.2 0-.4-.1-.5-.4l-1.2-3.6-2.6 8.4c-.1.2-.3.4-.5.4s-.5-.1-.5-.4l-2.6-12.6-1.9 7.7c-.1.2-.3.4-.5.4h-10v-2.2h8.4c.2 0 .4-.1.4-.3l3.3-12.9c.1-.3.3-.4.5-.4s.5.1.5.4l2.7 13.4 2.2-7.2c.1-.2.3-.4.5-.4s.4.1.5.4l2.3 6.7c.1.2.2.3.4.3h3.5c.2 0 .4-.1.4-.3l3.3-12.9c.1-.3.3-.4.5-.4s.5.1.5.4l2.7 13.4 2.2-7.2c.1-.2.3-.4.5-.4s.4.1.5.4l2.3 6.7c.1.2.2.3.4.3h7.1v2.2h-8.6c-.2 0-.4-.1-.5-.4l-1.2-3.6-2.6 8.4c.2.4 0 .6-.3.6z"/>
        <g class="st10">
            <path class="st29" d="M820.6 646l1.2-.9c9.2-7.1 15.5-17.3 14.7-23.6-.5-3.7-4.8-6.5-9.1-6.5-2.6 0-4.9 1-6.7 2.5-1.9-3.8-5.8-6.4-10.3-6.4-2.4 0-4.3.4-6.2 1.7-.8.5-1.1 1.7-.8 2.6 1.2 2.8 3.3 5.5 3.3 5.5l-1.8 2c-.1-.1-2.9-3.1-4.3-6.6-1.3 1.9-1.9 4-1.9 6.4 0 .9.1 1.8.3 2.7-4.1 1.5-7.1 5.4-7.1 10 0 5.9 4.7 10.6 10.6 10.6h18.1z"/>
            <path class="st32" d="M820.6 646l1.2-.9c9.2-7.1 15.5-17.3 14.7-23.6-.5-3.7-4.8-6.5-9.1-6.5-2.6 0-4.9 1-6.7 2.5-1.9-3.8-5.8-6.4-10.3-6.4-2.4 0-4.3.4-6.2 1.7-.8.5-1.1 1.7-.8 2.6 1.2 2.8 3.3 5.5 3.3 5.5l-1.8 2c-.1-.1-2.9-3.1-4.3-6.6-1.3 1.9-1.9 4-1.9 6.4 0 .9.1 1.8.3 2.7-4.1 1.5-7.1 5.4-7.1 10 0 5.9 4.7 10.6 10.6 10.6h18.1z"/>
            <path class="st29" d="M837.5 630.2c-2.6 6.7-13.9 19.3-24.7 23.7l.8 2.4c5.5-1.9 11.6-6.9 15.7-10.3h4.2c4.6-.1 8.3-3.8 8.3-8.5 0-3.1-1.7-5.8-4.3-7.3z"/>
        </g>
        <g class="st10">
            <path class="st32" d="M837.5 630.2c-2.3 6-11.7 16.8-21.5 22.2-.7-.7-1.7-1.2-2.8-1.2-2.2 0-3.9 1.7-3.9 3.9s1.7 3.9 3.9 3.9 3.9-1.7 3.9-3.9v-.4c4.5-2.4 9-6 12.2-8.7h4.2c4.6-.1 8.3-3.8 8.3-8.5 0-3.1-1.7-5.8-4.3-7.3z"/>
        </g>
        <path class="st37" d="M816.8 638.4l-4.5.7c-.3 0-.6-.1-.8-.4 0 0-3.1-4.8-5.3-8.2-2.2-3.3-2.1-6.4 0-8.5 2.1-2.1 5.1-2.3 8.5 0 3.4 2.3 8.1 5.3 8.1 5.3.2.2.4.5.4.8l-.7 4.5"/>
        <circle class="st18" cx="816.8" cy="638.4" r="1.5"/>
        <circle class="st18" cx="822.5" cy="632.7" r="1.5"/>
        <g class="st10">
            <path class="st29" d="M902.3 654.3c.2-.1.3-.2.4-.3 3.3-2.6 5.6-6.2 5.3-8.5-.2-1.3-1.7-2.3-3.3-2.3-.9 0-1.8.3-2.4.9-.7-1.4-2.1-2.3-3.7-2.3-.9 0-1.6.2-2.2.6-.3.2-.4.6-.3.9.4 1 1.2 2 1.2 2l-.6.7s-1-1.1-1.5-2.4c-.5.7-.7 1.4-.7 2.3 0 .3 0 .6.1 1-1.5.5-2.6 1.9-2.6 3.6 0 2.1 1.7 3.8 3.8 3.8h6.5z"/>
            <path class="st32" d="M902.3 654.3c.2-.1.3-.2.4-.3 3.3-2.6 5.6-6.2 5.3-8.5-.2-1.3-1.7-2.3-3.3-2.3-.9 0-1.8.3-2.4.9-.7-1.4-2.1-2.3-3.7-2.3-.9 0-1.6.2-2.2.6-.3.2-.4.6-.3.9.4 1 1.2 2 1.2 2l-.6.7s-1-1.1-1.5-2.4c-.5.7-.7 1.4-.7 2.3 0 .3 0 .6.1 1-1.5.5-2.6 1.9-2.6 3.6 0 2.1 1.7 3.8 3.8 3.8h6.5z"/>
            <path class="st29" d="M908.4 648.6c-.9 2.4-5 7-8.9 8.6l.3.9c2-.7 4.2-2.5 5.7-3.7h1.5c1.7 0 3-1.4 3-3.1 0-1.2-.6-2.2-1.6-2.7z"/>
        </g>
        <g class="st10">
            <path class="st32" d="M908.4 648.6c-.8 2.2-4.2 6.1-7.8 8-.3-.3-.6-.4-1-.4-.8 0-1.4.6-1.4 1.4 0 .8.6 1.4 1.4 1.4.8 0 1.4-.6 1.4-1.4v-.1c1.6-.9 3.3-2.2 4.4-3.2h1.5c1.7 0 3-1.4 3-3.1.1-1.1-.5-2.1-1.5-2.6z"/>
        </g>
        <path class="st47" d="M901 651.6l-1.6.3c-.1 0-.2 0-.3-.1 0 0-1.1-1.7-1.9-2.9-.8-1.2-.8-2.3 0-3.1.8-.8 1.8-.8 3.1 0s2.9 1.9 2.9 1.9c.1.1.1.2.1.3l-.3 1.6"/>
        <circle class="st18" cx="901" cy="651.6" r=".5"/>
        <circle class="st18" cx="903" cy="649.5" r=".5"/>
        <g class="st10">
            <path class="st15" d="M1126.6 609.2c-4.4 0-8.2 2.8-10.1 6.8-1.9-4-5.7-6.8-10.1-6.8-6.3 0-11.3 5.5-11.3 12.3 0 1.5.2 3.1.6 4.6h-5.7l1.5 3h11.7l6.5-10.1 7.6 15.6 7.2-10 5.3 6.5h6.2c1.2-3 2-6.2 2-9.6-.1-6.8-5.2-12.3-11.4-12.3z"/>
            <path class="st48" d="M1140 634.1h-11.7l-3.7-4.5-7.8 11-7.4-15.4-4.5 6.9h-6.7c5.9 11.3 18.4 20.9 18.4 20.9s9.8-6.3 16.2-15.9h5.8l1.4-3z"/>
        </g>
        <circle class="st3" cx="1113.2" cy="755.1" r="3.9"/>
        <g class="st10">
            <path class="st29" d="M1120.6 746l1.2-.9c9.2-7.1 15.5-17.3 14.7-23.6-.5-3.7-4.8-6.5-9.1-6.5-2.6 0-4.9 1-6.7 2.5-1.9-3.8-5.8-6.4-10.3-6.4-2.4 0-4.5.5-6.4 1.8-.8.5-1.1 1.7-.8 2.6 1.2 2.8 3.4 5.4 3.4 5.4l-1.6 1.9c-.1-.1-2.9-3.1-4.3-6.6-1.3 1.9-2 4.1-2 6.5 0 .9.1 1.8.3 2.7-4.1 1.5-7.1 5.4-7.1 10 0 5.9 4.7 10.6 10.6 10.6h18.1z"/>
            <path class="st29" d="M1137.5 730.2c-2.6 6.7-13.9 19.3-24.7 23.7l.8 2.4c5.5-1.9 11.6-6.9 15.7-10.3h4.2c4.6-.1 8.3-3.8 8.3-8.5 0-3.1-1.7-5.8-4.3-7.3z"/>
        </g>
        <path class="st18" d="M1114.6 742.8c-.3 0-.7-.1-.9-.4-7.4-7.6-14.1-15.5-8.4-21.3 1.4-1.4 3.1-2.2 4.9-2.2 5 0 10.8 5.2 16.3 10.5.2.2.4.5.4.9 0 .3-.1.7-.4.9l-1.3 1.3c-.2.2-.6.4-.9.4-.3 0-.6-.1-.9-.4l-.7-.7c-.5-.5-.5-1.3 0-1.8l.6-.6c-6-5.7-10.1-8.3-13.1-8.3-1.3 0-2.4.5-3.4 1.5-3.2 3.2-1.3 8 6.8 16.5l.6-.6c.2-.2.5-.4.9-.4.3 0 .6.1.9.4l.7.7c.2.2.4.5.4.9s-.1.6-.4.9l-.7.7v.1l-.5.5c-.2.4-.5.5-.9.5z"/>
        <circle class="st6" cx="913.2" cy="755.1" r="3.9"/>
        <g class="st10">
            <path class="st12" d="M919.6 746l1.2-.9c9.2-7.1 15.5-17.3 14.7-23.6-.5-3.7-3.8-6.5-8.1-6.5-2.6 0-4.9 1-6.7 2.5-1.9-3.8-5.8-6.4-10.3-6.4-2.4 0-4.3.4-6.2 1.7-.8.5-1.1 1.7-.8 2.6 1.2 2.8 3.3 5.5 3.3 5.5l-1.8 2c-.1-.1-2.9-3.1-4.3-6.6-1.3 1.9-1.9 4-1.9 6.4 0 .9.1 1.8.3 2.7-4.1 1.5-7.1 5.4-7.1 10 0 5.9 4.7 10.6 10.6 10.6h17.1z"/>
            <path class="st15" d="M919.6 746l1.2-.9c9.2-7.1 15.5-17.3 14.7-23.6-.5-3.7-3.8-6.5-8.1-6.5-2.6 0-4.9 1-6.7 2.5-1.9-3.8-5.8-6.4-10.3-6.4-2.4 0-4.3.4-6.2 1.7-.8.5-1.1 1.7-.8 2.6 1.2 2.8 3.3 5.5 3.3 5.5l-1.8 2c-.1-.1-2.9-3.1-4.3-6.6-1.3 1.9-1.9 4-1.9 6.4 0 .9.1 1.8.3 2.7-4.1 1.5-7.1 5.4-7.1 10 0 5.9 4.7 10.6 10.6 10.6h17.1z"/>
            <path class="st12" d="M937.5 730.2c-2.6 6.7-13.9 19.3-24.7 23.7l.8 2.4c5.5-1.9 11.6-6.9 15.7-10.3h4.2c4.6-.1 8.3-3.8 8.3-8.5 0-3.1-1.7-5.8-4.3-7.3z"/>
        </g>
        <g class="st10">
            <path class="st15" d="M937.5 730.2c-2.3 6-11.7 16.8-21.5 22.2-.7-.7-1.7-1.2-2.8-1.2-2.2 0-3.9 1.7-3.9 3.9s1.7 3.9 3.9 3.9 3.9-1.7 3.9-3.9v-.4c4.5-2.4 9-6 12.2-8.7h4.2c4.6-.1 8.3-3.8 8.3-8.5 0-3.1-1.7-5.8-4.3-7.3z"/>
        </g>
        <image width="225" height="225" xlink:href="16046A76.jpg" transform="translate(1187.167 603) scale(.2311)" overflow="visible"/>
        <path class="st6" d="M569.5 706c-5.2 0-9.6 3.1-11.5 7.6-1.9-4.5-6.3-7.6-11.5-7.6-8.5 0-12.5 8.1-12.5 15 0 21 24 33 24 33s24-12 24-33c0-6.9-4-15-12.5-15z"/>
        <path class="st48" d="M572 732.8l-1.4-3.9-2.1 6.6c-.3 1-1.7.9-1.9-.1l-2.2-10.7-2.1 8.1H555l-1.4-3.9-2.1 6.6c-.3 1-1.7.9-1.9-.1l-2.2-10.7-2.1 8.1h-8.7C542.9 746.4 558 754 558 754s15.1-7.6 21.4-21.2H572z" opacity=".4"/>
        <path d="M574.2 730l-2.2-6.4c-.2-.6-.8-1-1.4-1-.6 0-1.2.4-1.4 1l-1.1 3.8-2-9.9c-.1-.7-.7-1.2-1.4-1.2s-1.2.4-1.4 1.1L560 730h-2.8l-2.2-6.4c-.2-.6-.8-1-1.4-1-.6 0-1.2.4-1.4 1l-1.1 3.8-2-9.9c-.1-.7-.7-1.2-1.4-1.2s-1.2.4-1.4 1.1L543 730h-7.5c.5 1.4 1.1 2.7 1.7 4h7.8c.7 0 1.2-.5 1.4-1.1l.9-3.8 1.8 8.6c.1.7.7 1.2 1.4 1.2.6 0 1.2-.4 1.4-1l1.8-5.8.3 1c.2.6.8 1 1.4 1h6.6c.7 0 1.2-.5 1.4-1.1l.9-3.8 1.8 8.6c.1.7.7 1.2 1.4 1.2.6 0 1.2-.4 1.4-1l1.8-5.8.3 1c.2.6.8 1 1.4 1h6.4c.6-1.3 1.2-2.6 1.7-4h-6.3z" opacity=".2" fill="#ba141a"/>
        <path class="st18" d="M567.5 738c-.2 0-.5-.1-.5-.4l-2.6-12.6-1.9 7.7c-.1.2-.3.4-.5.4h-6.6c-.2 0-.4-.1-.5-.4l-1.2-3.6-2.6 8.4c-.1.2-.3.4-.5.4s-.5-.1-.5-.4l-2.6-12.6-1.9 7.7c-.1.2-.3.4-.5.4h-10v-2.2h8.4c.2 0 .4-.1.4-.3l3.3-12.9c.1-.3.3-.4.5-.4s.5.1.5.4l2.7 13.4 2.2-7.2c.1-.2.3-.4.5-.4s.4.1.5.4l2.3 6.7c.1.2.2.3.4.3h3.5c.2 0 .4-.1.4-.3l3.3-12.9c.1-.3.3-.4.5-.4s.5.1.5.4l2.7 13.4 2.2-7.2c.1-.2.3-.4.5-.4s.4.1.5.4l2.3 6.7c.1.2.2.3.4.3h7.1v2.2h-8.6c-.2 0-.4-.1-.5-.4l-1.2-3.6-2.6 8.4c.2.4 0 .6-.3.6z"/>
        <path class="st37" d="M916.8 738.4l-4.5.7c-.3 0-.6-.1-.8-.4 0 0-3.1-4.8-5.3-8.2-2.2-3.3-2.1-6.4 0-8.5 2.1-2.1 5.1-2.3 8.5 0 3.4 2.3 8.1 5.3 8.1 5.3.2.2.4.5.4.8l-.7 4.5"/>
        <circle class="st18" cx="916.8" cy="738.4" r="1.5"/>
        <circle class="st18" cx="922.5" cy="732.7" r="1.5"/>
        <circle class="st6" cx="999.7" cy="757.6" r="1.4"/>
        <g class="st10">
            <path class="st12" d="M1002 754.3c.2-.1.3-.2.4-.3 3.3-2.6 5.6-6.2 5.3-8.5-.2-1.3-1.4-2.3-2.9-2.3-.9 0-1.8.3-2.4.9-.7-1.4-2.1-2.3-3.7-2.3-.9 0-1.6.2-2.2.6-.3.2-.4.6-.3.9.4 1 1.2 2 1.2 2l-.6.7s-1-1.1-1.5-2.4c-.5.7-.7 1.4-.7 2.3 0 .3 0 .6.1 1-1.5.5-2.6 1.9-2.6 3.6 0 2.1 1.7 3.8 3.8 3.8h6.1z"/>
            <path class="st15" d="M1002 754.3c.2-.1.3-.2.4-.3 3.3-2.6 5.6-6.2 5.3-8.5-.2-1.3-1.4-2.3-2.9-2.3-.9 0-1.8.3-2.4.9-.7-1.4-2.1-2.3-3.7-2.3-.9 0-1.6.2-2.2.6-.3.2-.4.6-.3.9.4 1 1.2 2 1.2 2l-.6.7s-1-1.1-1.5-2.4c-.5.7-.7 1.4-.7 2.3 0 .3 0 .6.1 1-1.5.5-2.6 1.9-2.6 3.6 0 2.1 1.7 3.8 3.8 3.8h6.1z"/>
            <path class="st12" d="M1008.4 748.6c-.9 2.4-5 7-8.9 8.6l.3.9c2-.7 4.2-2.5 5.7-3.7h1.5c1.7 0 3-1.4 3-3.1 0-1.2-.6-2.2-1.6-2.7z"/>
        </g>
        <g class="st10">
            <path class="st15" d="M1008.4 748.6c-.8 2.2-4.2 6.1-7.8 8-.3-.3-.6-.4-1-.4-.8 0-1.4.6-1.4 1.4 0 .8.6 1.4 1.4 1.4.8 0 1.4-.6 1.4-1.4v-.1c1.6-.9 3.3-2.2 4.4-3.2h1.5c1.7 0 3-1.4 3-3.1.1-1.1-.5-2.1-1.5-2.6z"/>
        </g>
        <path class="st47" d="M1001 751.6l-1.6.3c-.1 0-.2 0-.3-.1 0 0-1.1-1.7-1.9-2.9-.8-1.2-.8-2.3 0-3.1.8-.8 1.8-.8 3.1 0s2.9 1.9 2.9 1.9c.1.1.1.2.1.3l-.3 1.6"/>
        <circle class="st18" cx="1001" cy="751.6" r=".5"/>
        <circle class="st18" cx="1003" cy="749.5" r=".5"/>
        <path class="st6" d="M819.5 706c-5.2 0-9.6 3.1-11.5 7.6-1.9-4.5-6.3-7.6-11.5-7.6-8.5 0-12.5 8.1-12.5 15 0 21 24 33 24 33s24-12 24-33c0-6.9-4-15-12.5-15z"/>
        <path d="M808 733c-10.7 0-19.9-4-23.9-9.7C785.8 742.9 808 754 808 754s22.2-11.1 23.9-30.7c-4 5.7-13.2 9.7-23.9 9.7z" opacity=".25" fill="#ba141a"/>
        <circle class="st18" cx="811" cy="742" r="3.9"/>
        <path class="st44" d="M792 704c-8.1 8.1 0 14.7 0 14.7m19 23.3c19.9-6.9 25-20 20-31.8"/>
        <path class="st18" d="M811.8 724.9c0-.7-.3-1.3-.8-1.7l-.1-.1c-.1 0-5.3-3.4-8.9-5.8-4-2.7-7.9-2.7-10.7.1-2.8 2.8-2.8 6.7-.1 10.7 2.4 3.7 5.9 9 5.9 9l.1.1c.4.5 1 .8 1.7.8h.1l3.9-.6c.6.5 1.5.4 2.1-.1.6-.6.6-1.7 0-2.3-.6-.6-1.7-.6-2.3 0-.1.1-.1.2-.2.3l-3.6.6c-.5-.8-3.6-5.5-5.8-8.9-1.5-2.2-2.7-5.4-.1-7.9 2.6-2.6 5.7-1.3 7.9.1 3.4 2.3 8.1 5.3 8.9 5.8l-.6 3.6c-.1.1-.2.1-.3.2-.6.6-.6 1.7 0 2.3.6.6 1.7.6 2.3 0 .6-.6.6-1.5.1-2.2l.6-3.8-.1-.2z"/>
    </g>
    <g id="white_icons" class="st1">
        <path class="st18" d="M422.1 302.9c.8-2 1-4.2.5-6.5-.9-4.2-4.4-7.5-8.6-8.3-2.5-.5-4.8-.1-6.8.9-2.4-3.1-6.1-5-10.2-5-7.2 0-12.9 5.8-12.9 12.9 0 .6.1 1.1.1 1.7-4.5 1.7-7.6 6.3-7 11.6.7 5.6 5.6 9.6 11.2 9.6h29.3c4.5 0 8.5-3.2 9.1-7.7.5-4-1.5-7.5-4.7-9.2z"/>
        <path class="st18" d="M395.6 278.7s-5.3 1.9-4.5 6.7c1.1 7.4 20.2 4.7 19.7 14.8-.3 6.1-14.2 9.9-17.4 12.8-2.9 2.6-2.8 6-.5 10.9 0 0-4.5-2.1-5.2-6.4-1.5-9.6 15.6-8.7 15.5-13.7-.2-7.6-14.5-7.7-15.9-16.5-.7-5 6-8.6 8.3-8.6z"/>
        <path class="st18" d="M399.1 274.1c2.2 1 4.5 2.7 4.4 5.6-.3 8.7-15.8 5-15.8 16.8 0 11.4 16.5 10.8 19.8 15 1 1.4.9 3.7.2 6.3 0 0 2.8-2.9 2.5-6.2-.6-6.2-13.8-4.3-15.6-12.6-1.6-7.5 10.3-8 12.1-15.9 1.5-6.8-5.8-8.8-7.6-9z"/>
        <path class="st19" d="M395.6 278.7s-4.3 1.9-3.5 6.7c1.1 7.4 20.2 4.7 19.7 14.8-.3 6.1-14.2 9.9-17.4 12.8-2.9 2.6-3.8 6-1.5 10.9 0 0-3-2.6-3.7-6.9-1.5-9.6 15.1-11.2 15-16.2-.2-7.6-13.7-5.3-15.3-13.2-.9-4.9 4.9-8.9 6.7-8.9z"/>
        <path class="st19" d="M399.6 274.1c2.2 1 5.4 2.7 5.4 5.6 0 9.7-16.3 7.3-16.3 17.8 0 11.4 16.5 9.8 19.8 14 1 1.4.9 3.7.2 6.3 0 0 2.8-2.9 2.5-6.2-.6-6.2-13.8-4.3-15.6-12.6-1.6-7.5 10.3-8 12.1-15.9 1.5-6.8-6.3-8.8-8.1-9z"/>
    </g>
    <g id="icons">
        <defs>
            <path id="SVGID_1_" d="M1394.3 2.8h336v500h-336z"/>
        </defs>
        <clipPath id="SVGID_2_">
            <use xlink:href="#SVGID_1_" overflow="visible"/>
        </clipPath>
        <path clip-path="url(#SVGID_2_)" fill-rule="evenodd" clip-rule="evenodd" fill="#e5e5e5" d="M1397.8 59.9h11v10h-11z"/>
        <path class="st53" d="M1397.3 38.9h12v12h-12z"/>
        <path clip-path="url(#SVGID_2_)" fill-rule="evenodd" clip-rule="evenodd" fill="#fff" d="M1398.3 39.9h10v10h-10z"/>
        <path class="st53" d="M1397.8 79.9h11v10h-11z"/>
        <path clip-path="url(#SVGID_2_)" fill-rule="evenodd" clip-rule="evenodd" fill="#7a7a7a" d="M1397.8 99.9h11v10h-11z"/>
        <path clip-path="url(#SVGID_2_)" fill-rule="evenodd" clip-rule="evenodd" fill="#3e3e3e" d="M1397.8 119.9h11v10h-11z"/>
        <path clip-path="url(#SVGID_2_)" fill-rule="evenodd" clip-rule="evenodd" fill="#777" d="M1647.3 119.8h11v10h-11z"/>
        <path class="st53" d="M1628.3 157.8h13v12h-13z"/>
        <path clip-path="url(#SVGID_2_)" fill-rule="evenodd" clip-rule="evenodd" fill="#f2f2f2" d="M1629.3 158.8h11v10h-11z"/>
        <path d="M1397.8 139.9h11v10h-11zm0 20h11v10h-11z" fill-rule="evenodd" clip-rule="evenodd" fill="#1e1e1e" clip-path="url(#SVGID_2_)"/>
        <path clip-path="url(#SVGID_2_)" fill-rule="evenodd" clip-rule="evenodd" fill="#ba141a" d="M1397.8 179.9h11v10h-11z"/>
        <path clip-path="url(#SVGID_2_)" fill-rule="evenodd" clip-rule="evenodd" fill="#dd5900" d="M1397.8 199.9h11v10h-11z"/>
        <path clip-path="url(#SVGID_2_)" fill-rule="evenodd" clip-rule="evenodd" fill="#ff8c00" d="M1397.8 219.9h11v10h-11z"/>
        <path clip-path="url(#SVGID_2_)" fill-rule="evenodd" clip-rule="evenodd" fill="#fcd116" d="M1397.8 239.9h11v10h-11z"/>
        <path clip-path="url(#SVGID_2_)" fill-rule="evenodd" clip-rule="evenodd" fill="#fee087" d="M1397.8 259.9h11v10h-11z"/>
        <path clip-path="url(#SVGID_2_)" fill-rule="evenodd" clip-rule="evenodd" fill="#b8d432" d="M1397.8 279.9h11v10h-11z"/>
        <path clip-path="url(#SVGID_2_)" fill-rule="evenodd" clip-rule="evenodd" fill="#7fba00" d="M1397.8 299.9h11v10h-11z"/>
        <path clip-path="url(#SVGID_2_)" fill-rule="evenodd" clip-rule="evenodd" fill="#59b4d9" d="M1397.8 319.9h11v10h-11z"/>
        <path clip-path="url(#SVGID_2_)" fill-rule="evenodd" clip-rule="evenodd" fill="#3999c6" d="M1397.8 339.9h11v10h-11z"/>
        <path clip-path="url(#SVGID_2_)" fill-rule="evenodd" clip-rule="evenodd" fill="#804998" d="M1397.8 359.9h11v10h-11z"/>
        <path clip-path="url(#SVGID_2_)" fill-rule="evenodd" clip-rule="evenodd" fill="#ec008c" d="M1397.8 379.9h11v10h-11z"/>
        <path clip-path="url(#SVGID_2_)" fill-rule="evenodd" clip-rule="evenodd" fill="#0072c6" d="M1397.8 399.9h11v10h-11z"/>
        <path clip-path="url(#SVGID_2_)" fill-rule="evenodd" clip-rule="evenodd" fill="#68217a" d="M1397.8 419.9h11v10h-11z"/>
        <path clip-path="url(#SVGID_2_)" fill-rule="evenodd" clip-rule="evenodd" fill="#00188f" d="M1397.8 439.9h11v10h-11z"/>
        <path class="st74" d="M1426.8 48.9v-5h-2.4v5h-1v-5h-.8v-.8h.8v-.2c0-.8.2-1.5.6-2 .3-.3.8-.5 1.5-.5.3 0 .6.1.8.2l-.2.8c-.2-.1-.4-.1-.6-.1-.8 0-1.1.7-1.1 1.6v.3h2.4v-.3c0-.8.2-1.6.7-2 .4-.4.9-.5 1.4-.5.4 0 .7.1.9.2l-.1.8c-.2-.1-.4-.1-.7-.1-.9 0-1.1.8-1.1 1.7v.3h1.4v.8h-1.4v5h-1.1zm7 0v-5h-2.4v5h-1v-5h-.8v-.8h.8v-.2c0-.8.2-1.5.6-2 .3-.3.8-.5 1.5-.5.3 0 .6.1.8.2l-.2.8c-.2-.1-.4-.1-.6-.1-.8 0-1.1.7-1.1 1.6v.3h2.4v-.3c0-.8.2-1.6.7-2 .4-.4.9-.5 1.4-.5.4 0 .7.1.9.2l-.1.8c-.2-.1-.4-.1-.7-.1-.9 0-1.1.8-1.1 1.7v.3h1.4v.8h-1.4v5h-1.1zm7 0v-5h-2.4v5h-1v-5h-.8v-.8h.8v-.2c0-.8.2-1.5.6-2 .3-.3.8-.5 1.5-.5.3 0 .6.1.8.2l-.2.8c-.2-.1-.4-.1-.6-.1-.8 0-1.1.7-1.1 1.6v.3h2.4v-.3c0-.8.2-1.6.7-2 .4-.4.9-.5 1.4-.5.4 0 .7.1.9.2l-.1.8c-.2-.1-.4-.1-.7-.1-.9 0-1.1.8-1.1 1.7v.3h1.4v.8h-1.4v5h-1.1z"/>
        <g clip-path="url(#SVGID_2_)">
            <text transform="translate(1422.327 68.89)" fill="#929497" font-family="MyriadPro-Regular" font-size="12">
                e5e5e5
            </text>
        </g>
        <g clip-path="url(#SVGID_2_)">
            <text transform="translate(1422.327 88.894)" fill="#929497" font-family="MyriadPro-Regular" font-size="12">
                a0a1a2
            </text>
        </g>
        <g clip-path="url(#SVGID_2_)">
            <text transform="translate(1422.327 108.898)" fill="#929497" font-family="MyriadPro-Regular" font-size="12">
                7a7a7a
            </text>
        </g>
        <g clip-path="url(#SVGID_2_)">
            <text transform="translate(1422.327 128.902)">
                <tspan x="0" y="0" fill="#929497" font-family="MyriadPro-Regular" font-size="12">3e3e3e - Upd</tspan><tspan x="66.6" y="0" fill="#929497" font-family="MyriadPro-Regular" font-size="12">a</tspan><tspan x="72.4" y="0" fill="#929497" font-family="MyriadPro-Regular" font-size="12">t</tspan><tspan x="76.3" y="0" fill="#929497" font-family="MyriadPro-Regular" font-size="12">es </tspan><tspan x="89.6" y="0" fill="#929497" font-family="MyriadPro-Regular" font-size="12">t</tspan><tspan x="93.5" y="0" fill="#929497" font-family="MyriadPro-Regular" font-size="12">o 777777 in da</tspan><tspan x="166.7" y="0" fill="#929497" font-family="MyriadPro-Regular" font-size="12">r</tspan><tspan x="170.6" y="0" fill="#929497" font-family="MyriadPro-Regular" font-size="12">k them</tspan><tspan x="205.5" y="0" fill="#929497" font-family="MyriadPro-Regular" font-size="12">e</tspan><tspan x="211.3" y="0" fill="#929497" font-family="MyriadPro-Regular" font-size="12">.</tspan>
            </text>
        </g>
        <g clip-path="url(#SVGID_2_)">
            <text transform="translate(1422.327 148.906)" fill="#929497" font-family="MyriadPro-Regular" font-size="12">
                1e1e1e
            </text>
        </g>
        <g clip-path="url(#SVGID_2_)">
            <text transform="translate(1422.327 168.91)">
                <tspan x="0" y="0" fill="#929497" font-family="MyriadPro-Regular" font-size="12">0f0f0f - Upd</tspan><tspan x="59.1" y="0" fill="#929497" font-family="MyriadPro-Regular" font-size="12">a</tspan><tspan x="64.8" y="0" fill="#929497" font-family="MyriadPro-Regular" font-size="12">t</tspan><tspan x="68.7" y="0" fill="#929497" font-family="MyriadPro-Regular" font-size="12">es </tspan><tspan x="82.1" y="0" fill="#929497" font-family="MyriadPro-Regular" font-size="12">t</tspan><tspan x="86" y="0" fill="#929497" font-family="MyriadPro-Regular" font-size="12">o f2f2f2 in da</tspan><tspan x="151.2" y="0" fill="#929497" font-family="MyriadPro-Regular" font-size="12">r</tspan><tspan x="155.1" y="0" fill="#929497" font-family="MyriadPro-Regular" font-size="12">k them</tspan><tspan x="190" y="0" fill="#929497" font-family="MyriadPro-Regular" font-size="12">e</tspan><tspan x="195.8" y="0" fill="#929497" font-family="MyriadPro-Regular" font-size="12">.</tspan>
            </text>
        </g>
        <g clip-path="url(#SVGID_2_)">
            <text transform="translate(1422.327 188.914)" fill="#929497" font-family="MyriadPro-Regular" font-size="12">
                ba141a
            </text>
        </g>
        <g clip-path="url(#SVGID_2_)">
            <text transform="translate(1422.327 208.918)" fill="#929497" font-family="MyriadPro-Regular" font-size="12">
                dd5900
            </text>
        </g>
        <path class="st74" d="M1426.8 228.9v-5h-2.4v5h-1v-5h-.8v-.8h.8v-.2c0-.8.2-1.5.6-2 .3-.3.8-.5 1.5-.5.3 0 .6.1.8.2l-.2.8c-.2-.1-.4-.1-.6-.1-.8 0-1.1.7-1.1 1.6v.3h2.4v-.3c0-.8.2-1.6.7-2 .4-.4.9-.5 1.4-.5.4 0 .7.1.9.2l-.1.8c-.2-.1-.4-.1-.7-.1-.9 0-1.1.8-1.1 1.7v.3h1.4v.8h-1.4v5h-1.1zm3-2c0-1 .6-1.7 1.5-2.1-.9-.4-1.2-1.1-1.2-1.8 0-1.2 1-2.1 2.4-2.1 1.5 0 2.3.9 2.3 1.9 0 .7-.3 1.4-1.3 1.8 1 .4 1.6 1.1 1.6 2 0 1.4-1.2 2.3-2.7 2.3-1.6.2-2.6-.8-2.6-2zm4.2 0c0-.9-.7-1.4-1.7-1.7-.9.3-1.4.9-1.4 1.6 0 .8.6 1.5 1.6 1.5.9 0 1.5-.6 1.5-1.4zm-2.9-3.9c0 .8.6 1.2 1.5 1.4.7-.2 1.2-.7 1.2-1.4 0-.6-.4-1.3-1.3-1.3-1 0-1.4.6-1.4 1.3zm9.4 5.7c-.3.1-.9.3-1.7.3-1.8 0-2.9-1.2-2.9-3s1.2-3.1 3.1-3.1c.6 0 1.2.2 1.5.3l-.2.8c-.3-.1-.6-.3-1.2-.3-1.3 0-2.1 1-2.1 2.2 0 1.3.9 2.2 2 2.2.6 0 1-.2 1.3-.3l.2.9zm6.1-3.8c0 2.7-1 4.1-2.7 4.1-1.5 0-2.6-1.4-2.6-4s1.1-4.1 2.7-4.1c1.6.1 2.6 1.6 2.6 4zm-4.3.2c0 2 .6 3.2 1.6 3.2 1.1 0 1.6-1.3 1.6-3.3 0-1.9-.5-3.2-1.6-3.2-.9 0-1.6 1.1-1.6 3.3zm10.4-.2c0 2.7-1 4.1-2.7 4.1-1.5 0-2.6-1.4-2.6-4s1.1-4.1 2.7-4.1c1.7.1 2.6 1.6 2.6 4zm-4.2.2c0 2 .6 3.2 1.6 3.2 1.1 0 1.6-1.3 1.6-3.3 0-1.9-.5-3.2-1.6-3.2-.9 0-1.6 1.1-1.6 3.3z"/>
        <g clip-path="url(#SVGID_2_)">
            <text transform="translate(1422.327 248.926)">
                <tspan x="0" y="0" fill="#929497" font-family="MyriadPro-Regular" font-size="12">f</tspan><tspan x="3.4" y="0" fill="#929497" font-family="MyriadPro-Regular" font-size="12">c</tspan><tspan x="8.7" y="0" fill="#929497" font-family="MyriadPro-Regular" font-size="12">d116</tspan>
            </text>
        </g>
        <g clip-path="url(#SVGID_2_)">
            <text transform="translate(1422.327 268.93)">
                <tspan x="0" y="0" fill="#929497" font-family="MyriadPro-Regular" font-size="12">f</tspan><tspan x="3.4" y="0" fill="#929497" font-family="MyriadPro-Regular" font-size="12">ee087</tspan>
            </text>
        </g>
        <g clip-path="url(#SVGID_2_)">
            <text transform="translate(1422.327 288.934)" fill="#929497" font-family="MyriadPro-Regular" font-size="12">
                b8d432
            </text>
        </g>
        <g clip-path="url(#SVGID_2_)">
            <text transform="translate(1422.327 308.938)" fill="#929497" font-family="MyriadPro-Regular" font-size="12">
                7fba00
            </text>
        </g>
        <g clip-path="url(#SVGID_2_)">
            <text transform="translate(1422.327 328.942)" fill="#929497" font-family="MyriadPro-Regular" font-size="12">
                59b4d9
            </text>
        </g>
        <g clip-path="url(#SVGID_2_)">
            <text transform="translate(1422.327 348.946)" fill="#929497" font-family="MyriadPro-Regular" font-size="12">
                3999c6
            </text>
        </g>
        <g clip-path="url(#SVGID_2_)">
            <text transform="translate(1422.327 368.95)" fill="#929497" font-family="MyriadPro-Regular" font-size="12">
                804998
            </text>
        </g>
        <g clip-path="url(#SVGID_2_)">
            <text transform="translate(1422.327 388.954)" fill="#929497" font-family="MyriadPro-Regular" font-size="12">
                ec008c
            </text>
        </g>
        <g clip-path="url(#SVGID_2_)">
            <text transform="translate(1422.327 408.958)" fill="#929497" font-family="MyriadPro-Regular" font-size="12">
                0072c6
            </text>
        </g>
        <g clip-path="url(#SVGID_2_)">
            <text transform="translate(1422.327 428.962)" fill="#929497" font-family="MyriadPro-Regular" font-size="12">
                68217a
            </text>
        </g>
        <g clip-path="url(#SVGID_2_)">
            <text transform="translate(1422.327 448.966)" fill="#929497" font-family="MyriadPro-Regular" font-size="12">
                00188f
            </text>
        </g>
        <g id="Layer_9">
            <path class="st76" d="M19 11.1h12v25.5C31 39 25.7 41 19.2 41H19c-6.6 0-12-2-12-4.4V11.1h12z"/>
            <path class="st28" d="M19.3 41C12.6 41 7 39 7 36.6V10.7l12.3.3v30z"/>
            <path class="st41" d="M31 11.5c0 2.4-5.4 4.7-12 4.7S7 13.9 7 11.5c0-2.4 5.4-4.4 12-4.4s12 2 12 4.4"/>
            <path class="st30" d="M28.6 11.4c0 1.5-4.3 2.7-9.5 2.7s-9.5-1.2-9.5-2.7c0-1.5 4.3-2.7 9.5-2.7s9.5 1.2 9.5 2.7"/>
            <path class="st77" d="M11.4 13c1.7.7 4.5 1.1 7.6 1.1 3.1 0 5.9-.4 7.6-1.1-1.7-.7-4.5-1.1-7.6-1.1-3.1 0-5.8.5-7.6 1.1z"/>
            <path class="st76" d="M45 11.1h12v25.5C57 39 51.7 41 45.2 41H45c-6.6 0-12-2-12-4.4V11.1h12z"/>
            <path class="st28" d="M45.3 41C38.6 41 33 39 33 36.6V10.7l12.3.3v30z"/>
            <path class="st41" d="M56.9 11.5c0 2.4-5.4 4.7-12 4.7s-12-2.3-12-4.7c0-2.4 5.4-4.4 12-4.4s12 2 12 4.4"/>
            <path class="st30" d="M54.5 11.4c0 1.5-4.3 2.7-9.5 2.7s-9.5-1.2-9.5-2.7c0-1.5 4.3-2.7 9.5-2.7s9.5 1.2 9.5 2.7"/>
            <path class="st77" d="M37.3 13c1.7.7 4.5 1.1 7.6 1.1 3.1 0 5.9-.4 7.6-1.1-1.7-.7-4.5-1.1-7.6-1.1-3.1 0-5.8.5-7.6 1.1z"/>
            <path d="M45 41V29.4c0-1.4-1.2-3.3-2-3.3H21c-.8 0-2 1.9-2 3.3V41h26z" opacity=".4" fill="#fff"/>
            <path class="st76" d="M32 27.1h12v25.5C44 55 38.7 57 32.2 57H32c-6.6 0-12-2-12-4.4V27.1h12z"/>
            <path class="st28" d="M32.3 57C25.6 57 20 55 20 52.6V26.7l12.3.3v30z"/>
            <path class="st41" d="M44 27.4c0 2.4-5.4 4.7-12 4.7s-12-2.3-12-4.7C20 25 25.4 23 32 23s12 2 12 4.4"/>
            <path class="st30" d="M41.6 27.3c0 1.5-4.3 2.7-9.6 2.7s-9.6-1.2-9.6-2.7 4.3-2.7 9.6-2.7 9.6 1.2 9.6 2.7"/>
            <path class="st77" d="M24.3 28.9c1.7.7 4.5 1.1 7.7 1.1 3.1 0 5.9-.4 7.7-1.1-1.7-.7-4.5-1.1-7.7-1.1-3.1 0-5.9.5-7.7 1.1z"/>
        </g>
    </g>
</svg>
