<svg xmlns="http://www.w3.org/2000/svg" viewBox="0 0 18 18"><defs><radialGradient id="a" cx="7.98" cy="6.94" r="6.17" gradientUnits="userSpaceOnUse"><stop offset=".22" stop-color="#0078d4"/><stop offset=".42" stop-color="#0075cf"/><stop offset=".67" stop-color="#006dc0"/><stop offset=".94" stop-color="#005ea7"/><stop offset="1" stop-color="#005ba1"/></radialGradient></defs><path d="M8.42 14.07h-.7a.26.26 0 00-.26.3c.15 1.56-.81 1.86-2.41 1.89a.26.26 0 00-.26.26V17a.27.27 0 00.26.27h5.8a.27.27 0 00.26-.27v-.47a.26.26 0 00-.26-.26c-1.58 0-2.34-.33-2.17-1.89a.26.26 0 00-.26-.31z" fill="#ef7100"/><path d="M8.71 11a.85.85 0 01.29-.21.72.72 0 01.29-.06.8.8 0 01.3.06 1 1 0 01.21.21L8.59 9.75a.75.75 0 010-1.08.73.73 0 01.54-.23.76.76 0 01.54.23L10 9l.25.22.59.6a.77.77 0 001.08 0 .76.76 0 000-1.09l-.59-.59-.33-.38L9.15 6a.75.75 0 010-1.08.73.73 0 01.54-.23.76.76 0 01.54.23l.79.79a.77.77 0 01.54-1.31.79.79 0 01.54.22l2 2.05A6.18 6.18 0 008.6.77l.92.92a1 1 0 01.28.68 1 1 0 01-1 1 .94.94 0 01-.68-.29l-.63-.62a1 1 0 00-1.64.68.93.93 0 00.28.68L7.39 5a.94.94 0 01.29.68.92.92 0 01-.29.68 1 1 0 01-.68.29A1 1 0 016 6.39L4.67 5a.91.91 0 010 .65 1 1 0 01-1 .71 1 1 0 01-.6-.28l1 1a.93.93 0 01.28.68 1 1 0 01-.07.37 1 1 0 01-.52.52 1 1 0 01-.37.07.94.94 0 01-.37-.07.85.85 0 01-.31-.21l-.92-.92a6.18 6.18 0 007.78 5.38l-.86-.9a.77.77 0 010-1.08z" fill="url(#a)"/><path d="M14.14 6.63l-2-2a.79.79 0 00-.54-.22.76.76 0 00-.54.22.76.76 0 000 1.09l-.79-.79a.76.76 0 00-.54-.23.73.73 0 00-.54.23A.75.75 0 009.15 6L11 7.76l.37.37.59.59a.76.76 0 010 1.09.77.77 0 01-1.08 0l-.59-.59L10 9l-.32-.32a.76.76 0 00-.54-.23.73.73 0 00-.54.23.75.75 0 000 1.08L9.79 11a.76.76 0 00-.54-.23.8.8 0 00-.54.23.77.77 0 000 1.08l.86.86a6.24 6.24 0 002.77-1.6 6.15 6.15 0 001.4-2.15 6 6 0 00.4-2.56zM4.1 8.47a1.06 1.06 0 00.21-.31 1 1 0 00.07-.37.9.9 0 00-.07-.37 1 1 0 00-.21-.32l-1-1a1 1 0 00.25.33 1.11 1.11 0 00.37.2 1 1 0 00.42 0 1 1 0 00.39-.16.84.84 0 00.28-.31A.79.79 0 005 5.8a1 1 0 000-.41A1 1 0 004.67 5L6 6.39a1 1 0 00.68.29A1 1 0 007.39 5L6.16 3.79a1 1 0 01-.29-.68 1 1 0 011.65-.68l.63.62a.94.94 0 00.68.29.92.92 0 00.68-.29.92.92 0 00.29-.68.94.94 0 00-.29-.68L8.6.77a6.19 6.19 0 00-6.78 6.78l.91.92a1 1 0 00.32.21.94.94 0 00.37.07 1 1 0 00.37-.07 1.06 1.06 0 00.31-.21z" fill="#9cebff"/><path d="M8 15.16a8.14 8.14 0 01-5.82-2.41.5.5 0 01-.18-.19.54.54 0 010-.22.57.57 0 010-.22.46.46 0 01.13-.18.46.46 0 01.18-.13.57.57 0 01.22 0 .54.54 0 01.22 0 .5.5 0 01.19.13 7.15 7.15 0 002.3 1.54A7 7 0 008 14a7 7 0 002.72-.53A7.15 7.15 0 0013 11.94a7.09 7.09 0 000-10 .58.58 0 01-.17-.41.54.54 0 01.17-.43.56.56 0 01.4-.17.57.57 0 01.41.17 8.24 8.24 0 010 11.65A8.17 8.17 0 018 15.16z" fill="#faa21d"/></svg>