<svg xmlns="http://www.w3.org/2000/svg" viewBox="0 0 49 49"><path d="M36.7.02H11.789c-.96 0-1.733.772-1.733 1.733v5.676h28.38V1.753A1.733 1.733 0 0036.7.02z" fill="#BC3200"/><path d="M39.634 3.488H8.858a2.503 2.503 0 00-2.506 2.506v1.972H42.14V5.994a2.503 2.503 0 00-2.506-2.506z" fill="#D13600"/><path d="M43.24 7.043H5.252a2.503 2.503 0 00-2.506 2.506v35.68a2.52 2.52 0 002.516 2.516H43.23a2.52 2.52 0 002.516-2.516V9.549a2.503 2.503 0 00-2.506-2.506z" fill="#E15815"/><path d="M15.435 10.719a4.777 4.777 0 00-4.775 4.774 4.777 4.777 0 004.775 4.775 4.777 4.777 0 004.774-4.775 4.777 4.777 0 00-4.774-4.774zm0 7.865a3.099 3.099 0 01-3.1-3.1 3.098 3.098 0 013.1-3.101c1.713 0 3.1 1.387 3.1 3.1 0 1.714-1.387 3.1-3.1 3.1z" fill="#FFB290"/><path d="M17.228 19.75H13.69v9.678h3.537V19.75z" fill="#FFB290"/><path d="M38.11 15.56a4.777 4.777 0 00-4.774-4.775 4.777 4.777 0 00-4.775 4.775 4.78 4.78 0 003.061 4.457v3.279l-17.929 5.923h-.03v6.072a4.776 4.776 0 00-2.991 4.428 4.777 4.777 0 004.774 4.775 4.777 4.777 0 004.775-4.775 4.788 4.788 0 00-2.922-4.408v-3.764l17.83-5.894-.04-.069h.04v-5.607a4.768 4.768 0 002.981-4.417zM18.537 39.73c0 1.713-1.387 3.1-3.1 3.1a3.099 3.099 0 01-3.101-3.1 3.099 3.099 0 013.1-3.101c1.714 0 3.1 1.387 3.1 3.1zm14.799-21.08a3.099 3.099 0 01-3.1-3.1c0-1.714 1.386-3.1 3.1-3.1 1.713 0 3.1 1.386 3.1 3.1 0 1.713-1.397 3.1-3.1 3.1z" fill="#FFDBCA"/></svg>