<svg xmlns="http://www.w3.org/2000/svg" width="400" height="400">
    <path fill="#7fbb42" d="M107.3 128.6H143v35.7h-35.7zM79 225.4h35.7v35.7H79zm50.8 0h35.7v35.7h-35.7zm50.3 0h35.7v35.7h-35.7zM79 177h35.7v35.7H79zm50.8 0h35.7v35.7h-35.7z"/>
    <path fill="#3999c6" d="M158.1 14.9L17.5 89.6v21.8h28.7v150.9h24V111.4H245v141.3h26.4V111.4h26.3V89.6z"/>
    <path opacity=".8" fill="#b8d433" d="M143 164.3h-4.1v-31.1h-31.6v-4.6H143z"/>
    <path opacity=".5" fill="#b8d433" d="M107.3 128.6h4.1v31.2H143v4.5h-35.7z"/>
    <path opacity=".8" fill="#b8d433" d="M114.7 212.7h-4v-31.1H79V177h35.7z"/>
    <path opacity=".5" fill="#b8d433" d="M79 177h4.1v31.1h31.6v4.6H79z"/>
    <path opacity=".8" fill="#b8d433" d="M165.7 212.7h-4.3v-31.1h-31.6V177h35.9z"/>
    <path opacity=".5" fill="#b8d433" d="M129.8 177h4.3v31.1h31.6v4.6h-35.9z"/>
    <path opacity=".8" fill="#b8d433" d="M114.7 261.1h-4v-31.2H79v-4.5h35.7z"/>
    <path opacity=".5" fill="#b8d433" d="M79 225.4h4.1v31.1h31.6v4.6H79z"/>
    <path opacity=".8" fill="#b8d433" d="M165.7 261.1h-4.3v-31.2h-31.6v-4.5h35.9z"/>
    <path opacity=".5" fill="#b8d433" d="M129.8 225.4h4.3v31.1h31.6v4.6h-35.9z"/>
    <path opacity=".8" fill="#b8d433" d="M215.8 261.1h-4.1v-31.2h-31.6v-4.5h35.7z"/>
    <path opacity=".5" fill="#b8d433" d="M180.1 225.4h4.1v31.1h31.6v4.6h-35.7z"/>
    <path opacity=".8" fill="#b8d433" d="M112.6 164.3h-5.3v-4.1l30.9-31.6h4.8v3.6zm22.5 48.4h-5.3v-4.1L161 177h4.7v3.6zm-50.8 0H79v-4.1l30.9-31.6h4.8v3.6zm0 48.4H79V257l30.9-31.6h4.8v3.6zm50.8 0h-5.3V257l31.2-31.6h4.7v3.6zm50.3 0h-5.3V257l30.9-31.6h4.8v3.6z"/>
    <path d="M229 192.8v155.4c0 16 36.2 29.2 80.7 29.2V192.8H229z" fill="#3999c6"/>
    <path d="M308.5 377.5h1.2c44.6 0 80.7-13.2 80.7-29.2V192.8h-81.9v184.7z" fill="#5ab4d9"/>
    <path d="M390.4 192.8c0 16-36.2 29.2-80.7 29.2S229 208.9 229 192.8s36.2-29.2 80.7-29.2 80.7 12.9 80.7 29.2" fill="#fff"/>
    <path d="M373.9 191.1c0 10.5-28.7 19.4-64.2 19.4s-64.2-8.6-64.2-19.4c0-10.5 28.7-19.4 64.2-19.4s64.2 8.7 64.2 19.4" fill="#7fbb42"/>
    <path d="M360.5 202.9c8.4-3.4 13.4-7.4 13.4-11.7 0-10.5-28.7-19.4-64.2-19.4s-64.2 8.6-64.2 19.4c0 4.6 5 8.6 13.4 11.7 11.7-4.6 30.2-7.4 50.8-7.4 20.6-.3 39 2.8 50.8 7.4" fill="#b8d433"/>
    <path d="M249.1 304.2v-11c1.9 1.7 4.1 2.9 6.5 3.8 2.4.7 4.8 1.2 6.9 1.2 1.4 0 2.6-.2 3.6-.5 1-.2 1.9-.5 2.6-1 .7-.5 1.2-1 1.4-1.7.2-.7.5-1.2.5-1.9 0-1-.2-1.9-.7-2.6-.5-.7-1.2-1.4-2.2-2.2-1-.7-2.2-1.2-3.4-1.9-1.2-.5-2.6-1.2-4.3-1.9-3.8-1.7-6.7-3.6-8.6-5.7-1.9-2.4-2.9-5-2.9-8.4 0-2.6.5-4.8 1.4-6.5 1-1.9 2.4-3.4 4.1-4.6 1.7-1.2 3.8-2.2 6.2-2.6 2.4-.5 4.8-.7 7.4-.7 2.6 0 4.8.2 6.7.5 1.9.2 3.8.7 5.5 1.4v10.3c-.7-.5-1.7-1-2.6-1.4s-1.9-.7-2.9-1c-1-.2-2.2-.5-3.1-.7-1-.2-1.9-.2-2.9-.2-1.2 0-2.4 0-3.4.2s-1.9.5-2.6 1c-.7.5-1.2 1-1.7 1.4-.5.7-.5 1.2-.5 1.9s.2 1.4.7 2.2c.5.7 1 1.2 1.9 1.9.7.5 1.7 1.2 2.9 1.7s2.4 1.2 3.8 1.7c1.9.7 3.8 1.7 5.3 2.6 1.7 1 2.9 1.9 4.1 3.1s1.9 2.4 2.6 4.1c.5 1.4 1 3.1 1 5.3 0 2.6-.5 5-1.4 6.9-1 1.9-2.4 3.4-4.3 4.6-1.7 1.2-3.8 1.9-6.2 2.4s-4.8.7-7.4.7-5.3-.2-7.7-.7c-2.5 0-4.6-.8-6.3-1.7zm62 2.9c-6.9 0-12.7-2.4-17.2-6.9-4.3-4.6-6.7-10.5-6.7-18 0-7.7 2.2-13.9 6.7-18.7 4.6-4.8 10.3-7.2 17.7-7.2 6.9 0 12.7 2.4 17 6.9s6.5 10.5 6.5 18.2-2.2 13.9-6.7 18.7l-.5.5-.5.5 12.5 12h-15.6l-6.5-6.7c-1.6.4-4 .7-6.7.7zm.5-41.2c-3.8 0-6.9 1.4-9.3 4.3-2.4 2.9-3.4 6.7-3.4 11.5s1.2 8.6 3.4 11.5c2.4 2.9 5.3 4.3 8.9 4.3 3.8 0 6.7-1.4 9.1-4.1 2.2-2.9 3.4-6.7 3.4-11.5 0-5-1.2-9.1-3.4-12-2-2.6-4.9-4-8.7-4zm61.1 40.2h-29.2V257h11v40h18.2v9.1z" fill="#fff"/>
</svg>
