<svg xmlns="http://www.w3.org/2000/svg" viewBox="0 0 18 18"><defs><linearGradient id="a" x1="3.439" y1="6.801" x2="3.439" y2="1.432" gradientUnits="userSpaceOnUse"><stop offset=".2" stop-color="#0078d4"/><stop offset=".287" stop-color="#1380da"/><stop offset=".759" stop-color="#5ea0ef"/></linearGradient><linearGradient id="b" x1="3.439" y1="11.998" x2="3.439" y2="6.628" gradientUnits="userSpaceOnUse"><stop offset=".2" stop-color="#0078d4"/><stop offset=".287" stop-color="#1380da"/><stop offset=".759" stop-color="#5ea0ef"/></linearGradient><linearGradient id="c" x1="3.439" y1="17.194" x2="3.439" y2="11.824" gradientUnits="userSpaceOnUse"><stop offset=".2" stop-color="#0078d4"/><stop offset=".287" stop-color="#1380da"/><stop offset=".759" stop-color="#5ea0ef"/></linearGradient></defs><path d="M6.437 1.856l-.292-.292a.5.5 0 00-.707 0L2.606 4.392 1.441 3.229a.5.5 0 00-.707 0l-.293.293a.5.5 0 000 .707l1.812 1.815a.5.5 0 00.354.146.5.5 0 00.353-.146l3.477-3.481a.5.5 0 000-.707z" fill="url(#a)"/><rect x="7.339" y="2.949" width="10.366" height="1.895" rx=".923" fill="#a3a3a3"/><rect x="7.339" y="8.073" width="10.366" height="1.895" rx=".923" fill="#a3a3a3"/><rect x="7.339" y="13.196" width="10.366" height="1.895" rx=".923" fill="#a3a3a3"/><path d="M6.437 7.053l-.292-.293a.5.5 0 00-.707 0L2.606 9.588 1.441 8.425a.5.5 0 00-.707 0l-.293.293a.5.5 0 000 .707l1.812 1.815a.5.5 0 00.354.147.5.5 0 00.353-.147l3.477-3.48a.5.5 0 000-.707z" fill="url(#b)"/><path d="M6.437 12.249l-.292-.293a.5.5 0 00-.354-.146.494.494 0 00-.353.146l-2.832 2.828-1.165-1.163a.5.5 0 00-.707 0l-.293.292a.5.5 0 000 .707l1.812 1.815a.5.5 0 00.707 0l3.477-3.48a.5.5 0 000-.706z" fill="url(#c)"/></svg>