<svg xmlns="http://www.w3.org/2000/svg" viewBox="0 0 80 73.74"><path d="M51.88 58.376H30.125c2.613 9.216-.9 10.538-16.28 10.538v4.827H66.15v-4.825c-15.379 0-16.888-1.317-14.27-10.54" fill="#7a7a7a"/><path d="M75.167 0H4.349A4.52 4.52 0 00.002 4.549v49.319a4.5 4.5 0 004.347 4.511h70.817c2.4 0 4.833-2.125 4.833-4.511V4.549A4.96 4.96 0 0075.166 0" fill="#a0a1a2"/><path d="M75.217.007H4.347A4.52 4.52 0 000 4.556v49.317a4.5 4.5 0 004.347 4.511h1.685z" fill="#fff" opacity=".2" style="isolation:isolate"/><path fill="#a3ddef" d="M73.917 52.234H6.064V6.15l67.853-.101v46.185z"/><path fill="#a0a1a2" d="M13.847 68.913h52.305v4.827H13.847z"/><path d="M40.829 3.348a1.135 1.135 0 11-1.136-1.134 1.135 1.135 0 011.136 1.134" fill="#b8d432"/><path fill="#0072c6" d="M22.136 28.612h6.481v18.632h-6.481z"/><path fill="#59b4d9" d="M32.225 23.53h6.481v23.714h-6.481z"/><path fill="#3999c6" d="M42.388 31.631h6.481v15.613h-6.481z"/><path fill="#0072c6" d="M52.478 26.034h6.481v21.21h-6.481z"/><path fill="#68217a" d="M45.039 25.372l-7.217-10.458-12.446 9.132-.957-1.326L38.19 12.557l7.144 10.384 11.047-9.721.736.81-.589.589.368.442-11.857 10.311z"/><circle cx="24.566" cy="23.53" r="2.43" fill="#804998"/><circle cx="37.969" cy="14.03" r="2.43" fill="#804998"/><circle cx="44.966" cy="24.193" r="2.43" fill="#804998"/><circle cx="56.528" cy="14.325" r="2.43" fill="#804998"/></svg>