<svg xmlns="http://www.w3.org/2000/svg" viewBox="0 0 61 61"><path d="M22.94 28.813a6.769 6.769 0 00-6.773 6.771c0 1.375.408 2.648 1.12 3.717l-5.346 5.295 1.884 1.884 5.296-5.295c1.069.713 2.342 1.12 3.767 1.12a6.769 6.769 0 006.772-6.772 6.682 6.682 0 00-6.72-6.72zm0 10.896c-2.292 0-4.176-1.884-4.176-4.176 0-2.29 1.884-4.175 4.175-4.175s4.175 1.884 4.175 4.175c0 2.292-1.884 4.175-4.175 4.175zm4.937-25.459h-9.674v9.674h9.674V14.25zm16.445 0h-9.674v9.674h9.674V14.25zm0 16.293h-9.674v9.674h9.674v-9.674z" fill="#0078D4"/></svg>