<svg xmlns="http://www.w3.org/2000/svg" viewBox="0 0 61 61"><path d="M21.212 30.084c-3.619 0-6.593 3.015-6.593 6.796a6.83 6.83 0 001.09 3.73l-5.205 5.313 1.834 1.89 5.206-5.313a6.39 6.39 0 003.668 1.124c3.62 0 6.594-3.015 6.594-6.796 0-3.78-2.975-6.744-6.594-6.744zm0 10.985c-2.23 0-4.065-1.89-4.065-4.19 0-2.299 1.834-4.19 4.065-4.19 2.231 0 4.065 1.891 4.065 4.19 0 2.3-1.834 4.19-4.065 4.19z" fill="#0078D4"/><path d="M45.504 12.865H18.387V27.53a8.636 8.636 0 012.825-.46h.05V15.42H42.58v21.97H30.681a10.153 10.153 0 01-.595 3.015h15.418v-27.54z" fill="#0078D4"/><path d="M36.926 26.508l-8.328 5.518V21.092l8.328 5.416z" fill="#0078D4"/></svg>