<svg xmlns="http://www.w3.org/2000/svg" viewBox="0 0 37.125 37.126"><path d="M31.93 6.241a3.47 3.47 0 00-.73-.738c-.61-.475-1.296-.814-2.01-1.102-1.515-.61-3.096-.97-4.7-1.229-1.958-.313-3.932-.438-6.006-.45-1.854.016-3.797.133-5.725.434-1.37.215-2.721.506-4.035.951-.87.297-1.71.65-2.477 1.164a4.165 4.165 0 00-.976.87c-.344.437-.491.925-.402 1.478.173 1.092.333 2.185.513 3.272.264 1.611.537 3.222.81 4.828.307 1.787.62 3.573.919 5.36.07.416.246.77.526 1.07.179.193.37.377.574.543.73.59 1.562 1.01 2.432 1.354 2.082.83 4.259 1.205 6.485 1.328 1.616.09 3.23.033 4.838-.187 1.369-.185 2.709-.479 4.01-.948.966-.349 1.892-.775 2.726-1.382.355-.26.683-.547.945-.9A1.79 1.79 0 0030 21.15c.397-2.34.809-4.679 1.196-7.02.362-2.173.7-4.347 1.058-6.519a1.78 1.78 0 00-.325-1.37zM18.542 22.362c-2.4-.008-4.341-1.97-4.333-4.383a4.344 4.344 0 014.369-4.338 4.352 4.352 0 014.35 4.387c-.011 2.398-1.98 4.342-4.386 4.334zm8.702-15.246a1.832 1.832 0 01-.436.357c-.45.268-.951.41-1.454.541-.952.243-1.923.383-2.896.485a37.503 37.503 0 01-3.791.188c-1.49-.008-2.914-.068-4.332-.238-1.064-.129-2.124-.29-3.146-.633a6.893 6.893 0 01-.883-.38 1.385 1.385 0 01-.386-.305c-.197-.215-.196-.45.005-.663.117-.125.26-.232.407-.316.424-.246.89-.389 1.359-.512.983-.256 1.985-.402 2.994-.509a37.618 37.618 0 014.967-.172c1.524.045 3.045.158 4.55.431.706.127 1.407.274 2.075.545.236.096.463.217.683.346.109.064.208.164.288.266.142.182.148.397-.004.57zm1.664 18.367a.955.955 0 01-.021.271c-.305 1.604-.614 3.205-.911 4.811a2.6 2.6 0 01-.724 1.377c-.422.432-.918.752-1.448 1.023-.98.498-2.018.811-3.085 1.031-1.377.286-2.771.414-3.563.407-2.41-.006-4.184-.198-5.917-.698-.802-.23-1.577-.529-2.3-.953a5.078 5.078 0 01-1.042-.789 2.603 2.603 0 01-.741-1.396c-.296-1.604-.61-3.207-.915-4.81a1.12 1.12 0 01-.02-.245c.02-.394.37-.597.725-.423.036.021.072.041.105.063 1.174.853 2.484 1.423 3.858 1.856 1.262.4 2.556.641 3.873.758 1.52.138 3.03.104 4.54-.11 2-.28 3.91-.85 5.687-1.827.354-.194.686-.43 1.025-.646.056-.035.108-.076.167-.104.34-.15.674.038.707.404zm-8.16-7.477a2.192 2.192 0 01-2.196 2.178 2.182 2.182 0 01-2.172-2.196 2.175 2.175 0 012.192-2.175 2.183 2.183 0 012.177 2.193z" fill="#205081"/></svg>