<svg xmlns="http://www.w3.org/2000/svg" viewBox="0 0 60 60"><path d="M30.266 15.343l-13.638 7.874.259-15.387L30.524-.044l-.258 15.387zm16.537 28.909V28.504L60 36.422V52.17l-13.197-7.918zm-33.606 0V28.504l13.196 7.918V52.17l-13.196-7.918zm0 0V28.504L0 36.422V52.17l13.197-7.918z" fill="#50E6FF"/><path opacity=".4" d="M13.197 44.252V28.504L0 36.422V52.17l13.197-7.918z" fill="#0078D4"/><path fill-rule="evenodd" clip-rule="evenodd" d="M0 52.082L13.24 60l13.24-7.918-13.24-7.83L0 52.082z" fill="#0078D4"/><path d="M46.803 44.252V28.504l-13.196 7.918V52.17l13.197-7.918z" fill="#50E6FF"/><path opacity=".4" d="M46.803 44.252V28.504L60 36.422V52.17l-13.197-7.918z" fill="#0078D4"/><path fill-rule="evenodd" clip-rule="evenodd" d="M60 52.082L46.76 60l-13.24-7.918 13.24-7.83L60 52.082z" fill="#0078D4"/><path d="M30.266 15.343l-13.638 7.874 13.455 7.47 13.638-7.874-13.455-7.47z" fill="#50E6FF"/><path opacity=".4" d="M30.266 15.343l-13.638 7.874.259-15.387L30.524-.044l-.258 15.387z" fill="#0078D4"/><path fill-rule="evenodd" clip-rule="evenodd" d="M30.448 0l13.477 7.507-.236 15.426-13.401-7.552L30.448 0z" fill="#0078D4"/></svg>