<svg xmlns="http://www.w3.org/2000/svg" viewBox="0 0 48 48"><path d="M37.507 11.713v21.171L19.253 43.597V22.19l18.254-10.477z" fill="#773ADC"/><path d="M37.506 11.713L19.253 22.172 1 11.712 19.253 1l18.253 10.713z" fill="#B796F9"/><path d="M19.253 22.19v21.17L1 32.65V11.712L19.253 22.19z" fill="#A67AF4"/><path d="M34.534 35.24l1.577 1.16 1.323-1.703c-.217-.707-.054-1.523.453-2.14a2.795 2.795 0 012.048-1.032l5.855-7.577-4.332-3.154-5.837 7.504c.218.707.055 1.523-.453 2.14a2.638 2.638 0 01-2.048.996l-1.323 1.704 1.577 1.16-5.8 7.486-.29-.217-1.179 1.16-1.722 3.625.634.508 3.136-2.556.889-1.378-.29-.217 5.782-7.468z" fill="#3999C6"/><path d="M38.304 34.044c0 .218.018.435.054.653l.073.29-.163.2-1.324 1.703-.47.616-1.578-1.16-.634.798 8.646 6.344c.58.435 1.233.544 1.885.453.653-.09 1.233-.435 1.686-.942a2.387 2.387 0 00-.471-3.426l-7.704-5.529zm-9.462-.689l2.61 1.904.635-.798-1.07-.78-.49-.344 2.03-2.556h.29c.11-.018.146-.018.255-.036.145-.018.29-.036.435-.09l-1.577-1.16-.127-.091c.272-1.813-.471-3.644-2.048-4.84-1.523-1.124-3.59-1.287-5.293-.598l3.39 2.465-.4 2.99-2.81 1.143-3.389-2.502c-.272 1.813.508 3.644 2.067 4.768 1.613 1.214 3.752 1.36 5.492.525z" fill="#59B4D9"/></svg>