<svg xmlns="http://www.w3.org/2000/svg" viewBox="0 0 96 96"><path d="M38.843 77.2L42 77.166l-.064-4.374-3.11.035a17.891 17.891 0 00-3.638-8.736l2.18-2.2-3.341-3.2-2.119 2.137a17.886 17.886 0 00-9.034-3.617L22.837 54l-4.45.063.037 3.248a17.894 17.894 0 00-8.66 3.745l-2.119-2.03-3.255 3.282 2.163 2.073a17.881 17.881 0 00-3.4 8.418L0 72.834l.064 4.374 3.036-.034a17.879 17.879 0 003.69 8.984l-2.062 2.08 3.34 3.2 2.009-2.024a17.883 17.883 0 009.052 3.6L19.163 96l4.451-.062-.035-3.031a17.893 17.893 0 008.747-3.837l2.124 2.035 3.256-3.282-2.2-2.11a17.89 17.89 0 003.337-8.513zM21.1 84.112h-.122a9 9 0 01-6.44-15.281 8.94 8.94 0 016.328-2.718h.122a9 9 0 01.112 18z" fill="#0078d4"/><path d="M22.193 40.258l1.8-.021-.036-2.5-1.776.02a10.214 10.214 0 00-2.078-4.99l1.244-1.256-1.907-1.827-1.21 1.22a10.212 10.212 0 00-5.161-2.065l-.022-1.836-2.541.035.021 1.856a10.219 10.219 0 00-4.947 2.139l-1.209-1.157-1.858 1.875 1.234 1.184A10.222 10.222 0 001.8 37.743l-1.8.02.035 2.5 1.734-.02a10.205 10.205 0 002.109 5.131l-1.173 1.188 1.908 1.827 1.148-1.157a10.219 10.219 0 005.171 2.06l.02 1.7 2.542-.036-.02-1.731a10.231 10.231 0 005-2.192l1.209 1.167 1.86-1.876-1.258-1.2a10.225 10.225 0 001.908-4.866zm-10.138 3.947h-.069a5.142 5.142 0 01-3.679-8.729 5.1 5.1 0 013.616-1.552h.07a5.141 5.141 0 01.062 10.282z" fill="#50e6ff"/><path d="M91.975 42.4a31.332 31.332 0 00-.219-16.6l3.982-1.711-3.121-7.262-3.98 1.711A31.34 31.34 0 0076.9 7.034l1.637-4.105L71.2 0l-1.62 4.062a31.326 31.326 0 00-16.783.169L51.088.263l-7.261 3.12 1.7 3.966a31.342 31.342 0 00-11.6 11.9l-4-1.6L27 24.993l4 1.6a31.334 31.334 0 00.222 16.619l-3.961 1.7 3.12 7.262 3.962-1.7a31.343 31.343 0 0011.908 11.59l-1.6 4.008L51.994 69l1.6-4.01a31.335 31.335 0 0016.606-.227l1.709 3.974 7.261-3.119-1.706-3.978a31.341 31.341 0 0011.585-11.9l4.023 1.6L96 44.007zm-9.6.431a22.493 22.493 0 11-.227-17.213 22.391 22.391 0 01.231 17.215z" fill="#0078d4"/></svg>