<svg xmlns="http://www.w3.org/2000/svg" viewBox="0 0 48 48"><path d="M42.953 24c0 10.463-8.482 18.953-18.953 18.953-10.472 0-18.953-8.49-18.953-18.953 0-10.43 8.422-18.886 18.827-18.953V.059C10.715.126.059 10.816.059 23.999c0 13.218 10.715 23.942 23.94 23.942 13.227 0 23.942-10.724 23.942-23.941v-.101h-4.988v.1z" fill="#0078D4"/><path d="M28.157 24A4.16 4.16 0 0124 28.158a4.16 4.16 0 01-4.157-4.156 4.149 4.149 0 014.023-4.149v-4.72c-4.837.068-8.742 4.015-8.742 8.869a8.87 8.87 0 008.868 8.867 8.87 8.87 0 008.867-8.867V23.9H28.14a.213.213 0 01.017.1z" fill="#50E6FF"/><path d="M24 7.742c-4.51 0-8.59 1.84-11.538 4.804l3.468 3.468A11.302 11.302 0 0124 12.646c6.273 0 11.362 5.09 11.362 11.362 0 6.273-5.089 11.362-11.362 11.362a11.314 11.314 0 01-8.17-3.468l-3.47 3.468A16.219 16.219 0 0024 40.274c8.976 0 16.257-7.28 16.257-16.258 0-8.976-7.273-16.274-16.258-16.274z" fill="#50E6FF"/></svg>