<svg xmlns="http://www.w3.org/2000/svg" viewBox="0 0 48 48"><path d="M23.242 2.915c-3.022.084-5.865.69-8.463 1.8C12.18 5.824 9.756 7.469 7.56 9.61l4.835 4.984c2.884-2.724 6.672-4.448 10.846-4.638V2.915zM6.495 10.712c-2.077 2.264-3.674 4.765-4.75 7.442C.67 20.83.086 23.762 0 26.877h6.83a17.953 17.953 0 014.5-11.18l-4.835-4.985z" fill="#0078D4"/><path d="M41.505 44.6c2.077-2.264 3.674-4.764 4.75-7.442 1.075-2.678 1.66-5.608 1.745-8.723h-6.79a17.958 17.958 0 01-4.501 11.221l4.796 4.943z" fill="#50E6FF"/><path d="M48 26.877c-.084-3.116-.674-6.046-1.746-8.723-1.072-2.677-2.672-5.178-4.75-7.442l-4.814 4.963a17.957 17.957 0 014.52 11.2l6.79.002zM40.436 9.61c-2.195-2.14-4.62-3.789-7.218-4.895-2.598-1.107-5.441-1.713-8.46-1.8v7.04c4.18.181 7.975 1.899 10.863 4.62l4.815-4.964z" fill="#0078D4"/></svg>