<svg xmlns="http://www.w3.org/2000/svg" viewBox="0 0 40 39"><path d="M40 2.786V39H0V2.786h5.333V0h8c1.245 0 2.311.186 3.556.557 1.067.372 2.133.929 3.2 1.672.889-.558 1.955-1.3 3.022-1.672C24.178.186 25.422 0 26.667 0h8v2.786H40zm-13.333 0c-.89 0-1.956.185-2.845.557-.889.371-1.778.928-2.489 1.486v27.3c.89-.558 1.6-.929 2.667-1.115.889-.185 1.778-.371 2.667-.371H32V2.786h-5.333zM8 30.643h5.333c.89 0 1.778.186 2.667.371.889.186 1.778.557 2.667 1.115v-27.3c-.711-.743-1.6-1.115-2.49-1.486a7.094 7.094 0 00-2.844-.557H8v27.857zm-5.333 5.571h16.889c-.356-.371-.89-.928-1.423-1.114-.533-.371-.889-.557-1.422-.929l-1.6-.557c-.533-.185-1.067-.185-1.778-.185h-8V5.57H2.667v30.643zM37.333 5.571h-2.666V33.43h-8c-.711 0-1.245 0-1.778.185l-1.6.557c-.533.186-.889.558-1.422.929-.534.371-.89.743-1.423 1.114h16.89V5.571z"/></svg>