<svg xmlns="http://www.w3.org/2000/svg" viewBox="0 0 27 33"><path fill="none" d="M0 0h26.373v32.379H0z"/><path d="M26.373 0v32.38H4.057c-.56 0-1.085-.106-1.577-.317a4.098 4.098 0 01-2.163-2.158A3.93 3.93 0 010 28.332V4.047c0-.516.114-1.02.34-1.51a4.47 4.47 0 01.904-1.296A4.516 4.516 0 012.536.34 3.56 3.56 0 014.057 0h22.316zm-2.029 26.308H4.057c-.285 0-.55.053-.792.158a2.062 2.062 0 00-1.078 1.075 1.957 1.957 0 00-.158.79c0 .285.053.549.158.791a2.057 2.057 0 001.078 1.075c.243.106.507.159.792.159h20.287v-4.048zM2.03 24.822a4.059 4.059 0 012.028-.538h20.287V2.024H4.057c-.243 0-.486.06-.729.182A2.483 2.483 0 002.211 3.32a1.61 1.61 0 00-.182.727v20.775zm4.057-18.75h14.2v6.07h-14.2v-6.07zm2.029 4.046h10.143V8.095H8.115v2.023z" fill="#505055"/></svg>