<svg xmlns="http://www.w3.org/2000/svg" viewBox="0 0 18 18"><defs><linearGradient id="a" x1="9" y1="19.848" x2="9" y2="-1.014" gradientTransform="rotate(45 9 9)" gradientUnits="userSpaceOnUse"><stop offset="0" stop-color="#0078d4"/><stop offset=".502" stop-color="#4093e6"/><stop offset=".775" stop-color="#5ea0ef"/></linearGradient></defs><rect x="2.46" y="2.46" width="13.079" height="13.079" rx=".6" transform="rotate(-45 9 9)" fill="url(#a)"/><path d="M14.728 8.735l-1.692-1.526c-.23-.229-.334-.172-.334.172v.676a.213.213 0 01-.213.212 2.41 2.41 0 01-2.549-1.49V3.62a.291.291 0 00-.291-.291H8.191a.291.291 0 00-.291.291v7.98a.143.143 0 01-.143.143H6.1a.144.144 0 00-.1.245l2.695 2.7a.32.32 0 00.454 0l2.7-2.695a.144.144 0 00-.1-.245h-1.666a.143.143 0 01-.143-.148V8.917a4.437 4.437 0 002.548.7.209.209 0 01.214.211v.73c0 .286.155.351.334.172l1.692-1.646a.211.211 0 000-.349z" fill="#c3f1ff"/></svg>