<svg xmlns="http://www.w3.org/2000/svg" viewBox="0 0 32 32"><path d="M7.266 16.719a10.733 10.733 0 01-3.078-5.563A10.579 10.579 0 013.969 9c0-.729.072-1.448.219-2.156a10.58 10.58 0 011.68-3.922c.411-.594.877-1.141 1.398-1.641l1.391 1.438a8.72 8.72 0 00-1.993 2.867A8.543 8.543 0 005.969 9c0 1.198.231 2.336.695 3.414a8.733 8.733 0 001.992 2.867l-1.39 1.438z"/><path d="M10.047 13.844c-.667-.646-1.18-1.383-1.539-2.211S7.969 9.927 7.969 9s.18-1.805.539-2.633.872-1.565 1.539-2.211l1.391 1.438a4.76 4.76 0 00-1.086 1.547c-.256.583-.383 1.203-.383 1.859s.127 1.276.383 1.859a4.76 4.76 0 001.086 1.547l-1.391 1.438z"/><path d="M18 9c0 .469-.102.909-.305 1.32a2.928 2.928 0 01-.852 1.039L23.047 30h-2.094l-1.344-4H10.39l-1.344 4H6.953l6.203-18.641A2.954 2.954 0 0112 9a2.995 2.995 0 011.828-2.766A2.945 2.945 0 0115 6c.416 0 .807.078 1.172.234.364.156.682.37.953.641.271.271.484.589.641.953.156.365.234.755.234 1.172zm.953 15l-1.344-4H12.39l-1.344 4h7.907zM15 12.156L13.047 18h3.906L15 12.156zM15 8a.959.959 0 00-.703.297A.96.96 0 0014 9a.96.96 0 00.297.703A.959.959 0 0015 10a.96.96 0 00.703-.297A.964.964 0 0016 9c0-.271-.1-.505-.297-.703A.96.96 0 0015 8z"/><path d="M18.563 12.406c.469-.448.83-.963 1.086-1.547.255-.583.383-1.203.383-1.859s-.128-1.276-.383-1.859a4.775 4.775 0 00-1.086-1.547l1.391-1.438c.666.646 1.18 1.383 1.539 2.211s.538 1.706.538 2.633-.18 1.805-.539 2.633-.873 1.565-1.539 2.211l-1.39-1.438z"/><path d="M22.734 1.281a10.79 10.79 0 012.437 3.516A10.72 10.72 0 0126.031 9a10.65 10.65 0 01-1.899 6.078 10.847 10.847 0 01-1.398 1.641l-1.391-1.438a8.763 8.763 0 001.992-2.867A8.56 8.56 0 0024.03 9a8.56 8.56 0 00-.695-3.414 8.763 8.763 0 00-1.992-2.867l1.391-1.438z"/></svg>