<svg xmlns="http://www.w3.org/2000/svg" viewBox="0 0 48 48"><path d="M0 42.971h48V6.011H0v36.96z" fill="#0078D4"/><path d="M0 10.006h47.983V5.004H0v5.002z" fill="#50E6FF"/><path d="M7.478 8.825a1.221 1.221 0 100-2.442 1.221 1.221 0 000 2.442zm-3.79 0a1.221 1.221 0 100-2.442 1.221 1.221 0 000 2.442zm7.663 0a1.221 1.221 0 100-2.442 1.221 1.221 0 000 2.442z" fill="#fff"/><path d="M16.387 30.427l6.872 3.941V26.47l-6.872-3.957v7.915zm7.563-12.693l-6.796 3.924 6.796 3.925 6.795-3.924-6.795-3.925zm.681 8.736v7.9l6.872-3.942v-7.924L24.63 26.47z" fill="#50E6FF"/></svg>