<svg xmlns="http://www.w3.org/2000/svg" viewBox="0 0 48 48"><path d="M7.5 15a7.141 7.141 0 012.906.6 7.681 7.681 0 014 4A7.141 7.141 0 0115 22.5a7.223 7.223 0 01-.6 2.918 7.69 7.69 0 01-1.617 2.391 7.563 7.563 0 01-2.379 1.605A7.263 7.263 0 017.5 30a7.347 7.347 0 01-2.918-.586 7.468 7.468 0 01-4-4A7.347 7.347 0 010 22.5a7.263 7.263 0 01.586-2.906 7.563 7.563 0 011.605-2.379A7.69 7.69 0 014.582 15.6 7.223 7.223 0 017.5 15zm0 12a4.415 4.415 0 001.758-.352 4.476 4.476 0 002.391-2.391 4.57 4.57 0 000-3.516 4.476 4.476 0 00-2.391-2.391 4.57 4.57 0 00-3.516 0 4.476 4.476 0 00-2.391 2.391 4.57 4.57 0 000 3.516 4.476 4.476 0 002.391 2.391A4.415 4.415 0 007.5 27zm35.906 1.828a9.6 9.6 0 011.934 1.664 10.243 10.243 0 011.441 2.086 10.908 10.908 0 01.9 2.379 10.518 10.518 0 01-.5 6.633 10.522 10.522 0 01-5.59 5.59 10.606 10.606 0 01-8.18 0 10.522 10.522 0 01-5.59-5.59A10.254 10.254 0 0127 37.5a9.923 9.923 0 01.234-2.2 13.132 13.132 0 01-3.762-1.945 13.531 13.531 0 01-4.8-6.656A13.249 13.249 0 0118 22.5a13.061 13.061 0 011.066-5.25 13.576 13.576 0 017.184-7.184A13.061 13.061 0 0131.5 9q.422 0 .844.023t.844.07A7.143 7.143 0 0133 7.5a7.263 7.263 0 01.586-2.906 7.563 7.563 0 011.605-2.379A7.69 7.69 0 0137.582.6 7.223 7.223 0 0140.5 0a7.141 7.141 0 012.906.6 7.681 7.681 0 014 4A7.141 7.141 0 0148 7.5a7.443 7.443 0 01-1.523 4.512 7.755 7.755 0 01-1.734 1.652 7.544 7.544 0 01-2.2 1.055 13.065 13.065 0 011.84 3.691A13.587 13.587 0 0145 22.5a13.381 13.381 0 01-.4 3.258 13.168 13.168 0 01-1.194 3.07zM21 22.5a10.272 10.272 0 00.527 3.27 10.576 10.576 0 003.785 5.215 10.127 10.127 0 002.953 1.5 10.922 10.922 0 013.867-4.02A10.145 10.145 0 0137.5 27a10.526 10.526 0 013.211.492 10.382 10.382 0 00.961-2.414 10.374 10.374 0 00-.574-6.82 10.723 10.723 0 00-2.52-3.516l-.094-.023a13.857 13.857 0 00-1.629-1.172 14.218 14.218 0 00-1.793-.914l-.023-.023A10.471 10.471 0 0031.5 12a10.129 10.129 0 00-4.09.832 10.585 10.585 0 00-5.578 5.578A10.129 10.129 0 0021 22.5zM37.5 45a7.263 7.263 0 002.906-.586 7.563 7.563 0 002.379-1.605 7.69 7.69 0 001.615-2.391A7.223 7.223 0 0045 37.5a7.274 7.274 0 00-2.273-5.379 7.721 7.721 0 00-2.461-1.559 8 8 0 00-3-.562 6.569 6.569 0 00-2.824.621 7.553 7.553 0 00-2.309 1.664 8.048 8.048 0 00-1.559 2.391A7.132 7.132 0 0030 37.5a7.347 7.347 0 00.586 2.918 7.468 7.468 0 004 4A7.347 7.347 0 0037.5 45zM36 7.5a4.206 4.206 0 00.867 2.6 12.8 12.8 0 011.594.82 13.862 13.862 0 011.477 1.031q.141.023.281.035T40.5 12a4.415 4.415 0 001.758-.352 4.476 4.476 0 002.391-2.391 4.57 4.57 0 000-3.516 4.476 4.476 0 00-2.391-2.391 4.57 4.57 0 00-3.516 0 4.476 4.476 0 00-2.391 2.391A4.415 4.415 0 0036 7.5z" fill="#00abec"/></svg>