<svg xmlns="http://www.w3.org/2000/svg" viewBox="0 0 48 49"><path d="M17.903 34.056c8.809 0 15.958-7.14 15.958-15.957 0-8.809-7.141-15.958-15.958-15.958S1.953 9.29 1.953 18.099c0 8.816 7.142 15.957 15.95 15.957z" fill="#50E6FF"/><path d="M47.495 44.557l-15.74-15.739a17.534 17.534 0 003.63-10.703c0-9.718-7.882-17.592-17.6-17.592C8.075.532.194 8.406.194 18.115c0 9.718 7.873 17.592 17.591 17.592 3.9 0 7.503-1.272 10.417-3.41L43.975 48.06l3.52-3.503zM5.255 18.115c0-6.93 5.616-12.547 12.547-12.547 6.93 0 12.547 5.617 12.547 12.547 0 6.93-5.625 12.547-12.555 12.547-6.923 0-12.54-5.616-12.54-12.547z" fill="#0078D4"/><path d="M23.385 14c0-3.091-2.535-5.66-5.659-5.66-2.779 0-5.103 2.047-5.55 4.725h2.291a3.527 3.527 0 01.867-1.457c.657-.657 1.491-1.01 2.392-1.01.901 0 1.735.344 2.392 1.01.657.656 1.01 1.49 1.01 2.391v1.356h-9.027v11.318h11.284V13.999z" fill="#0078D4"/><path d="M17.726 22.36a1.355 1.355 0 100-2.712 1.355 1.355 0 100 2.712z" fill="#50E6FF"/></svg>