<svg xmlns="http://www.w3.org/2000/svg" viewBox="0 0 48 48"><path d="M39.003 34.985l-7.693.008-4.935 7.39c-.83 1.248.057 2.915 1.56 2.915h14.738c1.52 0 2.406-1.716 1.536-2.956l-5.206-7.357z" fill="#50E6FF"/><path d="M46.795 42.204l-9.204-13.228V18.96h1.568v-1.65H30.62v1.65h1.675v10.247l-8.638 13.072c-1.462 2.184.107 5.123 2.734 5.123h17.71c2.678-.008 4.238-3.013 2.694-5.197zm-4.13 3.095H27.927c-1.503 0-2.39-1.675-1.56-2.914l4.934-7.39 7.694-.008 5.197 7.356c.879 1.24-.008 2.956-1.527 2.956z" fill="#0078D4"/><path d="M30.25 20.977a2.055 2.055 0 01-1.675-2.02v-1.65c0-1.133.92-2.053 2.053-2.053H37.6V.5H25.242v12.307H12.967v12.317H.74v12.275l23.647.05 5.87-8.868v-7.604h-.008z" fill="#0078D4"/></svg>