<svg xmlns="http://www.w3.org/2000/svg" viewBox="0 0 48 48"><path d="M41.118 38.618h-4.823v-.178a3.246 3.246 0 00-3.255-3.255h-1.627c-.119-3.994-3.433-7.22-7.487-7.22s-7.368 3.226-7.546 7.25h-1.33a3.246 3.246 0 00-3.255 3.255v.178H6.882c-2.397-.03-4.32 1.923-4.32 4.29a4.325 4.325 0 004.32 4.32h34.236a4.306 4.306 0 004.32-4.32 4.306 4.306 0 00-4.32-4.32zm-16.067 1.894a1.06 1.06 0 01-1.066 1.065 1.06 1.06 0 01-1.065-1.065V32.73a1.06 1.06 0 011.065-1.066 1.06 1.06 0 011.066 1.066v7.782z" fill="#50E6FF"/><path d="M28.04 16.188c.236-1.331.354-2.81.354-4.35 0-6.125-3.018-11.096-4.409-11.096-1.48-.03-4.409 4.971-4.409 11.096 0 1.51.119 2.93.326 4.261-2.634 1.894-4.41 5.445-4.41 8.641v4.912c0 .444.533.621.83.296l4.29-4.883v.415c.06.296.385.592.917.799v2.663c.06.473 1.154.858 2.456.858s2.397-.385 2.456-.858v-2.663c.533-.207.888-.503.918-.8v-.177l4.083 4.646c.296.325.829.118.829-.296V24.74c.059-3.137-1.657-6.628-4.232-8.552z" fill="#0078D4"/></svg>