<svg xmlns="http://www.w3.org/2000/svg" viewBox="0 0 49 49"><path d="M.933 48.76h24v-48h-24v48z" fill="#0078D4"/><path d="M5.96 10.815h5.045V5.787H5.96v5.028zm7.596 0H18.6V5.787h-5.044v5.028zM5.96 18.35h5.045v-5.028H5.96v5.027zm7.596 0H18.6v-5.028h-5.044v5.027zM5.96 25.912h5.045v-5.028H5.96v5.028zm7.596 0H18.6v-5.028h-5.044v5.028zM5.96 33.49h5.045v-5.027H5.96v5.027zm7.596 0H18.6v-5.027h-5.044v5.027zM9.177 48.76h6.004v-7.782H9.177v7.781zm15.756 0h24v-48h-24v48z" fill="#50E6FF"/><path d="M31.232 10.815h5.044V5.787h-5.044v5.028zm7.604 0h5.045V5.787h-5.045v5.028zm-7.604 7.535h5.044v-5.028h-5.044v5.027zm7.604 0h5.045v-5.028h-5.045v5.027zm-7.604 7.562h5.044v-5.028h-5.044v5.028zm7.604 0h5.045v-5.028h-5.045v5.028zm-7.604 7.578h5.044v-5.027h-5.044v5.027zm7.604 0h5.045v-5.027h-5.045v5.027zm-4.252 15.27h6.004v-7.782h-6.005v7.781z" fill="#0078D4"/></svg>