<svg xmlns="http://www.w3.org/2000/svg" viewBox="0 0 48 48"><path d="M21.833 17.209V2.825h2.541V.375H11.676v2.45h2.616v14.724L1.312 37c-2.176 3.255.158 7.615 4.077 7.615h15.613a15.256 15.256 0 01-1.046-3.114H7.665c-2.234 0-3.563-2.483-2.325-4.343l7.914-11.851 10.19-.133 1.204 1.702a15.605 15.605 0 012.658-1.926l-5.473-7.74z" fill="#0078D4"/><path d="M13.254 25.305L5.34 37.164c-1.238 1.852.091 4.343 2.325 4.343h12.291a15.194 15.194 0 01-.349-3.272c0-4.5 1.944-8.554 5.041-11.352l-1.204-1.703-10.19.125zM47.57 38.16a12.64 12.64 0 01-3.63 8.87c-.2.207-.623.59-.623.59l-16.734.1s-.307-.275-.457-.416a12.592 12.592 0 01-3.911-9.144c0-6.984 5.68-12.656 12.673-12.656 7.01.008 12.681 5.672 12.681 12.656z" fill="#50E6FF"/><path d="M34.913 25.496c-7.001 0-12.673 5.663-12.673 12.656 0 3.33 1.295 6.37 3.405 8.62.307.333.64.648.98.947l1.453-1.453 1.503-1.503a8.797 8.797 0 01-.988-.939l-1.503 1.503a10.597 10.597 0 01-1.968-3.047 10.332 10.332 0 01-.798-3.264h1.72a9.865 9.865 0 01-.042-.864c0-.166.008-.332.016-.498H24.3c.059-1.263.332-2.475.823-3.63a10.426 10.426 0 011.793-2.856l1.221 1.22c.3-.34.615-.672.963-.963l-1.22-1.22a10.752 10.752 0 012.898-1.828 10.551 10.551 0 013.604-.822v1.711c.175-.008.357-.017.532-.017.282 0 .556.017.83.042v-1.72c1.138.092 2.25.358 3.305.798a10.525 10.525 0 013.057 1.968l-1.213 1.213a8.1 8.1 0 01.939.988l1.22-1.22a10.496 10.496 0 012.483 6.328h-1.719c.009.166.017.332.017.498 0 .29-.017.581-.041.863h1.719a10.504 10.504 0 01-2.625 6.154l-1.494-1.495c-.3.34-.623.665-.964.964l1.495 1.495 1.445 1.445c.34-.308.664-.623.963-.964a12.577 12.577 0 003.256-8.47c0-6.968-5.68-12.64-12.673-12.64z" fill="#0078D4"/><path d="M36.698 37.554c.69.69.69 1.802 0 2.492a1.76 1.76 0 01-2.491 0c-.69-.69-4.028-6.511-4.028-6.511s5.83 3.338 6.52 4.02z" fill="#0078D4"/></svg>