<svg xmlns="http://www.w3.org/2000/svg" viewBox="0 0 48 48"><path d="M42.947 25.262v13.894a1.263 1.263 0 000 2.527v6.316h-7.579V25.262h7.58zM24 0C10.745 0 0 10.745 0 24h5.053a18.948 18.948 0 0137.894 0H48C48 10.745 37.255 0 24 0z" fill="#50E6FF"/><path d="M30.316 22.736h-5.052v2.527h5.052v-2.527zm-12.633 7.58h-7.579v2.527h7.58v-2.527zm0 5.054h-7.579v2.525h7.58V35.37zm0 5.052h-7.579v2.526h7.58v-2.526z" fill="#0078D4"/><path d="M12.632 12.63v12.632h-7.58V48h30.316V12.631H12.632zm7.579 32.843H7.579V27.789h12.632v17.684zm2.526-22.737h-5.053v-5.053h5.053v5.053zm7.579 22.737h-5.053V40.42h5.053v5.053zm0-7.58h-5.053v-5.052h5.053v5.053zm0-7.578h-5.053v-5.053h5.053v5.053zm0-7.579h-5.053v-5.053h5.053v5.053zm16.42 17.684a3.79 3.79 0 10-5.052 3.573V48h2.526v-4.007a3.795 3.795 0 002.526-3.572zm-3.79 1.264a1.263 1.263 0 110-2.527 1.263 1.263 0 010 2.527z" fill="#0078D4"/></svg>