<svg xmlns="http://www.w3.org/2000/svg" viewBox="0 0 49 48"><path d="M15.49.043H2.843v2.485h1.282v40.576c0 2.51 2.25 4.887 5.033 4.887 2.782 0 5.033-2.376 5.033-4.887V2.528h1.299V.043z" fill="#0078D4"/><path d="M12.952 5.02H5.33v37.29a3.806 3.806 0 003.811 3.808 3.806 3.806 0 003.811-3.809V5.02z" fill="#50E6FF"/><path d="M30.657 12.652H18.002v2.494h1.29V43.1c0 2.51 2.251 4.886 5.034 4.886 2.782 0 5.033-2.376 5.033-4.886V15.146h1.298v-2.494z" fill="#0078D4"/><path d="M28.12 20.097h-7.622v22.226a3.806 3.806 0 003.81 3.808 3.806 3.806 0 003.811-3.808V20.097z" fill="#50E6FF"/><path d="M45.766 5.082H33.11v2.494h1.416v35.537c0 2.511 2.251 4.887 5.033 4.887 2.783 0 5.034-2.376 5.034-4.887V7.567h1.163V5.082h.009z" fill="#0078D4"/><path d="M43.354 12.605h-7.622v29.716a3.806 3.806 0 003.811 3.808 3.806 3.806 0 003.811-3.808V12.605z" fill="#50E6FF"/></svg>