<svg xmlns="http://www.w3.org/2000/svg" viewBox="0 0 48 48"><path d="M2.56 5.045A2.514 2.514 0 01.042 2.527 2.514 2.514 0 012.56.01a2.509 2.509 0 012.518 2.518A2.52 2.52 0 012.56 5.045zm7.553 0a2.52 2.52 0 010-5.037 2.52 2.52 0 012.518 2.52 2.514 2.514 0 01-2.518 2.517zm7.571 0a2.52 2.52 0 010-5.037 2.52 2.52 0 010 5.037zm7.63 0a2.514 2.514 0 01-2.518-2.518c0-1.39 1.12-2.518 2.518-2.518a2.52 2.52 0 010 5.037zm7.528 0a2.52 2.52 0 010-5.037 2.514 2.514 0 012.518 2.52 2.52 2.52 0 01-2.518 2.517zm7.588 0a2.52 2.52 0 010-5.037 2.52 2.52 0 010 5.037zM2.56 12.6a2.52 2.52 0 010-5.037 2.52 2.52 0 010 5.037zm37.87 0a2.52 2.52 0 010-5.037 2.52 2.52 0 010 5.037zM2.534 20.272a2.52 2.52 0 010-5.037 2.514 2.514 0 012.518 2.519 2.525 2.525 0 01-2.517 2.518zm15.142 0a2.52 2.52 0 010-5.037 2.52 2.52 0 010 5.037zm7.638 0a2.52 2.52 0 010-5.037 2.52 2.52 0 010 5.037zm15.116-.082a2.52 2.52 0 010-5.037 2.52 2.52 0 010 5.037zM2.62 27.83A2.514 2.514 0 01.1 25.313a2.52 2.52 0 012.518-2.518 2.514 2.514 0 012.518 2.518 2.525 2.525 0 01-2.518 2.519zm15.14 0a2.514 2.514 0 01-2.518-2.518 2.52 2.52 0 012.518-2.518 2.52 2.52 0 010 5.037zM2.619 35.393A2.514 2.514 0 01.1 32.875a2.514 2.514 0 012.518-2.519 2.514 2.514 0 012.518 2.519 2.525 2.525 0 01-2.518 2.518zm0 7.555A2.514 2.514 0 01.1 40.429a2.514 2.514 0 012.518-2.518 2.514 2.514 0 012.518 2.518 2.525 2.525 0 01-2.518 2.519zm7.553 0a2.514 2.514 0 01-2.517-2.519 2.514 2.514 0 012.517-2.518 2.52 2.52 0 010 5.037zm7.588 0a2.514 2.514 0 01-2.518-2.519 2.514 2.514 0 012.518-2.518 2.52 2.52 0 010 5.037z" fill="#50E6FF"/><path d="M45.524 43.606l-7.293-7.218a8.507 8.507 0 001.752-5.188c0-4.726-3.84-8.566-8.564-8.566-4.725 0-8.565 3.84-8.565 8.566 0 4.725 3.84 8.565 8.565 8.565a8.527 8.527 0 005.002-1.608l7.326 7.251 1.777-1.802zm-14.105-6.367a6.053 6.053 0 01-6.047-6.048 6.053 6.053 0 016.047-6.047 6.053 6.053 0 016.046 6.047 6.053 6.053 0 01-6.047 6.048zM10.13 17.689H7.639V7.548h10.046v2.56h-7.553v7.58zm7.605 15.203v2.493H7.587V25.337h2.56v7.555h7.588zm7.536-22.782V7.59H35.36v10.1H32.8v-7.58h-7.53z" fill="#0078D4"/></svg>