<svg xmlns="http://www.w3.org/2000/svg" viewBox="0 0 48 49"><path d="M5.06 23.5a5.052 5.052 0 100-10.104 5.052 5.052 0 000 10.104z" fill="#50E6FF"/><path d="M5.06 36.128a5.052 5.052 0 100-10.103 5.052 5.052 0 000 10.103zM48 18.448v23.465c0 2.425-.497 4.74-1.39 6.846H14.028a17.503 17.503 0 01-1.39-6.846V18.448c0-9.724 7.957-17.68 17.682-17.68 4.866 0 9.278 1.986 12.486 5.194S48 13.582 48 18.448z" fill="#0078D4"/><path d="M42.805 29.959c-3.208-3.208-7.62-5.195-12.486-5.195-9.725 0-17.681 7.956-17.681 17.68v6.315h12.63v-5.051a5.056 5.056 0 015.05-5.052 5.056 5.056 0 015.052 5.052v5.051H48v-6.314c0-4.867-1.987-9.279-5.195-12.486z" fill="#50E6FF"/></svg>