<svg xmlns="http://www.w3.org/2000/svg" viewBox="0 0 49 49"><path d="M48.191 26.764v-5.045h-5.204a18.777 18.777 0 00-3.705-8.943l3.68-3.68L39.4 5.534l-3.68 3.68a18.778 18.778 0 00-8.943-3.705V.305h-5.044v5.204c-3.25.43-6.333 1.71-8.944 3.705l-3.68-3.68-3.562 3.562 3.68 3.68a18.778 18.778 0 00-3.705 8.943H.31v5.044h5.204a18.942 18.942 0 005.372 10.847 18.916 18.916 0 0010.847 5.372v5.205h5.044v-5.205a18.775 18.775 0 008.943-3.705l3.68 3.68 3.562-3.562-3.68-3.68a18.777 18.777 0 003.705-8.943h5.204v-.008zM10.39 24.245a13.83 13.83 0 013.15-8.792 13.881 13.881 0 018.008-4.8 13.857 13.857 0 019.238 1.373 13.85 13.85 0 016.274 6.922 13.83 13.83 0 01.455 9.33 13.9 13.9 0 01-5.567 7.503 13.813 13.813 0 01-9.06 2.266 13.882 13.882 0 01-8.447-3.992 13.804 13.804 0 01-3.015-4.497 14.05 14.05 0 01-1.036-5.313z" fill="#50E6FF"/><path d="M29.067 25.064l-5.76-5.76 5.188-5.188a10.695 10.695 0 00-14.543 7.596 10.697 10.697 0 00.471 6.122L2.971 39.287a4.328 4.328 0 000 6.113 4.328 4.328 0 006.113 0l11.453-11.452c1.954.758 4.076.918 6.122.471a10.69 10.69 0 005.373-2.98 10.747 10.747 0 002.846-5.44 10.702 10.702 0 00-.623-6.114l-5.188 5.178zM7.57 43.859a2.19 2.19 0 01-1.104.59c-.42.084-.85.042-1.246-.127a2.123 2.123 0 01-.968-.791 2.168 2.168 0 01-.362-1.196 2.147 2.147 0 011.33-1.987 2.25 2.25 0 011.246-.127 2.154 2.154 0 011.103 3.638z" fill="#0078D4"/></svg>