<svg xmlns="http://www.w3.org/2000/svg" viewBox="0 0 48 49"><path d="M6.047 48.741h21.8v-35.43h-21.8v35.43z" fill="#0078D4"/><path d="M27.023 48.742H48V20.846H27.023v27.898z" fill="#0078D4"/><path d="M0 5.785h10.101V.759H0v5.026z" fill="#50E6FF"/><path d="M2.683 48.742h4.92V4.507h-4.92v44.236zm36.469.017v-7.551h-5.064v7.551h5.064zm-20.187 0v-7.551h-5.063v7.551h5.063zm-8.855-25.29h5.03v-5.034h-5.03v5.034zm7.569 0h5.03v-5.034h-5.03v5.034zm-7.569 7.492h5.03v-5.034h-5.03v5.034zm7.569 0h5.03v-5.034h-5.03v5.034zM10.11 38.54h5.03v-5.035h-5.03v5.034zm7.569 0h5.03v-5.035h-5.03v5.034zm12.616-7.579h5.03v-5.034h-5.03v5.034zm0 7.579h5.03v-5.035h-5.03v5.034zm7.57-7.579h5.03v-5.034h-5.03v5.034zm0 7.579h5.03v-5.035h-5.03v5.034z" fill="#50E6FF"/></svg>