<svg xmlns="http://www.w3.org/2000/svg" viewBox="0 0 49 49"><path d="M18.443 16.394a12.647 12.647 0 012.84-6.844l-3.48-3.481a17.637 17.637 0 00-4.207 9.55 12.68 12.68 0 014.754 1.508l.093-.733zm4.627-8.639a12.765 12.765 0 016.844-2.84V0A17.664 17.664 0 0019.59 4.274l3.48 3.48zM32.442 0v4.914a12.647 12.647 0 016.844 2.84l3.481-3.48A17.664 17.664 0 0032.442 0z" fill="#0078D4"/><path d="M43.913 16.394h4.914a17.664 17.664 0 00-4.273-10.325l-3.481 3.48a12.647 12.647 0 012.84 6.845zm-2.831 9.371l3.48 3.48a17.61 17.61 0 004.274-10.324h-4.914a12.775 12.775 0 01-2.84 6.844z" fill="#50E6FF"/><path d="M32.139 46.762l-11.21-11.21a11.312 11.312 0 002.554-7.164c0-6.254-5.074-11.328-11.328-11.328S.835 22.134.835 28.388s5.075 11.327 11.33 11.327c2.63 0 5.04-.893 6.961-2.393l11.227 11.226 1.787-1.786z" fill="#0078D4"/><path d="M12.163 37.287a8.9 8.9 0 100-17.801 8.9 8.9 0 000 17.8z" fill="#50E6FF"/><path d="M13.479 22.117H10.95v8.917h2.529v-8.917zm-.001 10.098h-2.537v2.546h2.537v-2.546zM39.1 11.178l-1.786-1.786-4.737 4.736a3.83 3.83 0 00-1.399-.27 3.793 3.793 0 00-3.793 3.793 3.798 3.798 0 003.793 3.793 3.799 3.799 0 003.793-3.793c0-.674-.177-1.314-.49-1.862l4.62-4.61z" fill="#0078D4"/></svg>