<svg xmlns="http://www.w3.org/2000/svg" viewBox="0 0 48 49"><path d="M37.76 32.239v-5.49h-3.065a11.205 11.205 0 00-1.238-2.788l2.232-2.232-3.882-3.882-2.333 2.333a10.96 10.96 0 00-2.686-1.061v-3.343h-5.49v3.393c-.927.244-1.803.615-2.62 1.078l-2.4-2.4-3.882 3.882 2.35 2.35a10.964 10.964 0 00-1.162 2.67h-3.268v5.49h3.116a10.854 10.854 0 001.103 2.871l-2.147 2.148 3.882 3.881 2.046-2.046c.91.573 1.912 1.01 2.973 1.289v2.837h5.49v-2.787a10.89 10.89 0 003.04-1.263l1.97 1.97 3.883-3.882-2.021-2.02c.53-.927.926-1.929 1.17-2.998h2.94zm-13.717 2.307a5.057 5.057 0 01-5.053-5.053 5.056 5.056 0 015.053-5.052 5.057 5.057 0 015.052 5.052 5.057 5.057 0 01-5.052 5.053z" fill="#50E6FF"/><path d="M23.999 10.418a2.526 2.526 0 100-5.052 2.526 2.526 0 000 5.052zm-14.315 7.16a2.526 2.526 0 100-5.053 2.526 2.526 0 000 5.053zm28.629 0a2.526 2.526 0 100-5.052 2.526 2.526 0 000 5.052zm-35.787-7.16a2.526 2.526 0 100-5.052 2.526 2.526 0 000 5.052zm42.948 0a2.526 2.526 0 100-5.052 2.526 2.526 0 000 5.052zM2.526 24.734a2.526 2.526 0 100-5.052 2.526 2.526 0 000 5.052zm42.948 0a2.526 2.526 0 100-5.052 2.526 2.526 0 000 5.052zM23.999 31.89a2.526 2.526 0 100-5.052 2.526 2.526 0 000 5.053z" fill="#0078D4"/></svg>