<svg xmlns="http://www.w3.org/2000/svg" viewBox="0 0 49 49"><path d="M28.353 24.697H6.961v4.2h21.392v-4.2z" fill="#0078D4"/><path d="M13.159 25.197v1.3H6.96v-3.8c0-.7 1.4-1.3 3.099-1.3 1.7 0 3.099.6 3.099 1.3v2.5z" fill="#0078D4"/><path d="M10.06 21.297c-1.7 0-3.1.6-3.1 1.3v1.1c0-.7 1.4-1.3 3.1-1.3 1.7 0 3.099.6 3.099 1.3v-1.1c0-.7-1.4-1.3-3.1-1.3zm0 2.8c-1.7 0-3.1.5-3.1 1v.2c0-.6 1.4-1 3.1-1 1.7 0 3.099.5 3.099 1v-.2c0-.5-1.4-1-3.1-1z" fill="#50E6FF"/><path d="M19.356 24.597v3.4H12.26v-8.5c0-.8 1.6-1.5 3.598-1.5 2 0 3.6.7 3.6 1.5v5.1h-.1z" fill="#0078D4"/><path d="M15.758 17.797c-2 0-3.599.7-3.599 1.5v1.2c0-.8 1.6-1.5 3.599-1.5 2 0 3.599.7 3.599 1.5v-1.2c0-.8-1.6-1.5-3.6-1.5zm0 4c-2 0-3.599.5-3.599 1.1v.2c0-.6 1.6-1.1 3.599-1.1 2 0 3.599.5 3.599 1.1v-.2c0-.6-1.6-1.1-3.6-1.1zm0 1.4c-2 0-3.599.5-3.599 1.1v.2c0-.6 1.6-1.1 3.599-1.1 2 0 3.599.5 3.599 1.1v-.2c0-.6-1.6-1.1-3.6-1.1z" fill="#50E6FF"/><path d="M31.352 27.097l3.299-23h3.898l3.3 23" stroke="#0078D4" stroke-width=".75" stroke-miterlimit="10" stroke-linecap="round" stroke-linejoin="round"/><path d="M39.449 3.597H33.65v.6h5.798v-.6zm4.299 23.3H29.553v2h14.195v-2zm-4.998-25.1h-4.3v1.3h4.3v-1.3z" fill="#0078D4"/><path d="M31.352 27.097l8.997-9.3-6.498-8 4.498-5.5" stroke="#0078D4" stroke-width=".75" stroke-miterlimit="10" stroke-linecap="round" stroke-linejoin="round"/><path d="M41.848 27.097c-.2-.3-9.197-9.3-9.197-9.3l6.498-8-4.498-5.5" stroke="#0078D4" stroke-width=".75" stroke-miterlimit="10" stroke-linecap="round" stroke-linejoin="round"/><path d="M28.353 24.997v2.9H16.657v-11.2c0-1.4 2.6-2.5 5.798-2.5 3.199 0 5.798 1.1 5.798 2.5v8.3h.1zm17.693 6.2H4.662v3.3h41.384v-3.3zm-30.488 5.6H10.56v8.3h4.998v-8.3zm23.891 0H34.45v8.3h4.998v-8.3z" fill="#0078D4"/><path d="M16.357 47.397c-.8 0-1.499-.1-2.299-.8l-.3-.2c-.5-.4-.7-.6-1.1-.6-.399 0-.499 0-.799.3-.1.1-.3.2-.4.3-.8.6-1.2.9-2.499.9h-.1c-1 0-1.7-.3-2.299-1-.4-.2-.8-.5-.9-.5h-.8v-1.8l-.799-.5 1.2-.2h.3c.4 0 1.299.1 1.999.8l.1.1c.8.6.8.6 1.3.6.399 0 .699-.2 1.299-.7.6-.6 1.4-.9 2.299-.9h.2c.7 0 1.5.1 2.499.9l.1.1c.7.6.7.6 1.1.6.4 0 .8-.4 1.099-.6.1-.1.2-.2.3-.2.4-.3 1-.8 2.2-.8h.099c1.2 0 1.6.2 2.6 1 .699.6.799.6.999.6h.1c.3 0 .6-.2 1-.5.1-.1.2-.2.4-.3.599-.4 1.199-.8 2.298-.8 1.2 0 1.6.3 2.4.9l.3.3c.4.4.5.4.899.4.4 0 .6-.2 1.1-.5l.3-.3c.7-.5 1.199-.8 2.398-.8 1.3 0 1.9.5 2.6 1.1.4.5.5.5.9.5s.599-.2.999-.5l.2-.2c.4-.4 1.1-.9 2.299-.9 1 0 1.7.1 2.499.9.1.1.5.4.7.6.2.1.3.1.5.1h.1l.6-.1v2.6l-.4.1h-.3c-.5 0-1.3-.1-2-.7l-.4-.4c-.4-.4-.5-.5-.9-.5-.699 0-.999.2-1.299.6-.6.6-1.4 1-2.299 1h-.1c-.9 0-1.5-.1-2.399-.8l-.3-.2c-.5-.4-.6-.6-1.1-.6-.5 0-.6.1-1 .4-.099.1-.199.2-.299.2-.7.5-1.2.9-2.3.9-1.299 0-1.798-.3-2.498-.8l-.3-.3c-.4-.3-.5-.5-1-.5s-.6.1-.9.4l-.4.4c-.599.5-1.099.8-2.298.8-1 0-1.6-.1-2.4-.8l-.1-.1c-.5-.5-.7-.6-.999-.6-.5 0-.6 0-1.2.6-1.1.7-1.899 1-2.799 1z" fill="#50E6FF"/><path d="M5.562 43.697c.4 0 1.1.1 1.7.7.9.9 1 .9 1.699 1h.1c.6 0 1-.3 1.6-.9.6-.5 1.199-.7 1.899-.7h.2c.7 0 1.3.1 2.199.8.8.7.9.8 1.5.8.699 0 1.199-.7 1.599-1 .4-.3.9-.7 1.899-.7h.1c1 0 1.4.1 2.299.9.8.7 1 .7 1.3.7h.2c.6 0 1-.4 1.599-.9.6-.4 1-.7 2-.7.999 0 1.299.2 2.098.8.7.6.9.8 1.5.8.7 0 1-.4 1.6-.9.599-.5.999-.7 2.098-.7 1.1 0 1.6.4 2.3 1 .6.5.8.7 1.399.7.7 0 1.1-.5 1.5-.9.4-.4 1-.7 1.999-.7h.1c.9 0 1.4.1 2.099.8 0 0 .4.4.8.6.2.1.5.2.7.2h.2v1.6h-.3c-.4 0-1.1-.1-1.7-.6-.6-.6-.9-1.1-1.6-1.1h-.1c-.8 0-1.199.3-1.599.8-.5.5-1.1.8-1.999.8h-.1c-.9 0-1.4-.1-2.1-.7-.699-.6-.899-.9-1.699-.9s-1 .3-1.599.8c-.6.5-1 .8-2 .8-1.099 0-1.599-.2-2.198-.7-.6-.5-.8-.9-1.7-.9-.9 0-1.1.5-1.6.9-.599.4-.999.7-1.898.7-.9 0-1.4-.1-2.1-.7-.6-.6-.9-.9-1.5-.9-.599 0-.799.1-1.499.7-.7.6-1.4.9-2.199.9h-.1c-.8 0-1.3-.1-1.999-.7-.7-.6-1-.9-1.7-.9s-.8.2-1.499.8c-.8.6-1 .8-2.199.8h-.1c-1.1 0-1.6-.4-1.9-.8-.3-.4-.799-.7-1.099-.8h-.4v-1.6h.2zm0-1h-.4l-2.699.5 1.8 1.1v2.1l1.1-.1h.2s.3.2.499.4c.7.8 1.6 1.1 2.699 1.1h.1c1.4 0 1.8-.3 2.699-1 .2-.2.3-.3.5-.4.1-.1.2-.2.3-.2h.2c.3 0 .3 0 .8.5l.3.2c.999.8 1.699.9 2.598.9h.1c1 0 1.9-.4 2.8-1.2.499-.5.499-.5.899-.5.2 0 .2 0 .7.5l.2.1c.9.8 1.599 1 2.799 1 1.299 0 1.899-.4 2.599-.9.2-.1.3-.3.4-.4.3-.3.3-.3.6-.3.399 0 .399 0 .699.3.1.1.2.2.4.3.8.7 1.6.9 2.799 1 1.3 0 1.999-.5 2.599-1l.3-.3c.4-.3.4-.3.7-.3.3 0 .3 0 .8.4l.299.2c1 .8 1.7.9 2.699.9h.1c1 0 2-.4 2.699-1.2.3-.3.5-.4.9-.5.1 0 .2 0 .5.4l.4.4c.799.7 1.799.8 2.298.8h.4l.9-.1v-3.6l-1.1.2h-.2c-.2-.1-.5-.4-.6-.5-.999-.9-1.799-1.1-2.798-1.1h-.1c-1.4 0-2.2.5-2.7 1l-.2.2c-.3.3-.4.4-.599.4-.3 0-.3 0-.8-.4-.7-.6-1.4-1.2-2.899-1.2-1.4 0-1.999.4-2.699.9l-.3.3c-.4.3-.5.4-.7.4-.2 0-.2 0-.6-.3l-.299-.3c-.8-.7-1.4-1-2.699-1-1.4 0-2 .5-2.699.9-.1.1-.3.2-.4.3-.3.2-.5.4-.6.4h-.2c-.1 0-.2-.1-.7-.5-1.099-.9-1.599-1.1-2.898-1.1h-.1c-1.4 0-2.1.6-2.5.9l-.3.3c-.199.2-.499.5-.699.5h-.2c-.1 0-.3-.3-.6-.5l-.2.2c-1.099-1-1.999-1-2.698-1h-.2c-1 0-1.9.3-2.5 1-.6.5-.7.6-.9.6h-.299c-.1 0-.4-.3-.7-.6l-.1-.1c-1.1-.9-1.999-1-2.499-1z" fill="#fff"/><path d="M24.255 21.497c0 .9-.7 1.6-1.6 1.6-.9 0-1.6-.7-1.6-1.6 0-.9 1.4-3.4 1.6-3.4.2 0 1.6 2.5 1.6 3.4z" fill="#50E6FF"/><path d="M21.956 21.297c0-.2 0-.3.1-.4-.2.2-.4.4-.4.7 0 .5.4.9.9.9.3 0 .6-.2.7-.4-.1.1-.3.2-.5.2-.4-.1-.8-.5-.8-1z" fill="#0078D4"/><path d="M22.455 14.097c-3.199 0-5.798 1.1-5.798 2.5v1.2c0-1.4 2.6-2.5 5.798-2.5 3.199 0 5.798 1.1 5.798 2.5v-1.2c.1-1.4-2.5-2.5-5.798-2.5z" fill="#50E6FF"/></svg>