<svg xmlns="http://www.w3.org/2000/svg" viewBox="0 0 49 49"><path d="M43.367 10.332l-25.271 22.99H.403V.497h42.965v9.835z" fill="#50E6FF"/><path d="M27.595 33.736c0-3.107 1.212-6.038 3.41-8.236a11.581 11.581 0 018.236-3.41 11.581 11.581 0 019.154 4.446V5.559H5.455v32.859H28.58c-.11-.253-.21-.505-.303-.766a11.51 11.51 0 01-.683-3.916z" fill="#0078D7"/><path d="M39.25 24.606a9.121 9.121 0 00-7.133 14.804l-6.434 6.434 2.552 2.551 6.652-6.652a9.121 9.121 0 0013.482-8.008c0-5.045-4.084-9.129-9.12-9.129zm0 14.61a5.477 5.477 0 01-5.483-5.482 5.477 5.477 0 015.482-5.482 5.477 5.477 0 015.482 5.482c-.008 3.032-2.458 5.483-5.482 5.483z" fill="#0078D4"/></svg>