<svg xmlns="http://www.w3.org/2000/svg" viewBox="0 0 49 49"><path d="M42.948 26.021v13.896a1.263 1.263 0 100 2.526v6.316H35.37V26.02h7.58zM24 .76c-13.255 0-24 10.745-24 24h5.053a18.948 18.948 0 0137.895 0h5.053c0-13.255-10.745-24-24-24z" fill="#50E6FF"/><path d="M30.317 23.495h-5.053v2.526h5.053v-2.526zm-12.633 7.582h-7.58v2.526h7.58v-2.526zm0 5.05h-7.58v2.527h7.58v-2.527zm0 5.055h-7.58v2.526h7.58v-2.526z" fill="#0078D4"/><path d="M12.632 13.389V26.02H5.053v22.737H35.37v-35.37H12.632zm7.58 32.843H7.578V28.547H20.21v17.685zm2.526-22.738h-5.053v-5.053h5.053v5.053zm7.579 22.738h-5.053v-5.053h5.053v5.053zm0-7.58h-5.053V33.6h5.053v5.052zm0-7.579h-5.053v-5.052h5.053v5.052zm0-7.579h-5.053v-5.053h5.053v5.053zm16.42 17.686a3.79 3.79 0 10-5.052 3.572v4.006h2.526v-4.006a3.796 3.796 0 002.526-3.573zm-3.79 1.263a1.263 1.263 0 110-2.527 1.263 1.263 0 010 2.527z" fill="#0078D4"/></svg>