<svg xmlns="http://www.w3.org/2000/svg" viewBox="0 0 48 48"><path d="M33.779 42.808h-2.56V39.33l1.276-5.314h1.284v8.792zm-14.787-1.94zM24 1.184c-4.685 0-7.023 8.945-7.023 13.63l.73 29.575h12.569l.73-29.575c.018-4.685-2.312-13.63-7.006-13.63z" fill="#0078D4"/><path d="M24 15.326a3.64 3.64 0 100-7.28 3.64 3.64 0 000 7.28zm1.259 21.104h-2.552v10.39h2.552V36.43z" fill="#50E6FF"/><path d="M33.422 39.293l4.226-4.226c.51-.51.51-1.343.008-1.854l-6.088-6.088-.349 12.168h2.203zm6.309-3.926c.009.017.017.025.017.042-.008-.017-.008-.025-.017-.042zm-.008-.019a1.286 1.286 0 00-.221-.298l-.425-.425.425.425c.085.094.161.196.22.298z" fill="#0078D4"/><path d="M37.656 33.215s.009 0 0 0l1.412 1.412-1.412-1.412zm2.067 2.133c0 .008.008.008.008.017-.008-.009-.008-.009-.008-.017zm.025.062a1.33 1.33 0 01-.255 1.505l-3.742 3.742a1.647 1.647 0 01-1.164.484h-3.368 3.708a.825.825 0 00.578-.238l3.988-3.988a1.328 1.328 0 00.255-1.505z" fill="#50E6FF"/><path d="M37.648 35.069l-4.226 4.226h-2.203v1.845h3.367c.434 0 .86-.17 1.166-.484l3.74-3.742a1.314 1.314 0 00.256-1.505c-.008-.017-.008-.025-.017-.042 0-.009-.009-.009-.009-.017a1.296 1.296 0 00-.22-.298l-.426-.425-1.411-1.412c.501.51.501 1.344-.017 1.854z" fill="#50E6FF"/><path d="M14.222 42.808h2.56V39.33l-1.276-5.314h-1.284v8.792z" fill="#0078D4"/><path d="M14.579 39.293l-4.227-4.226a1.322 1.322 0 01-.008-1.854l6.088-6.088.349 12.168h-2.202zM8.27 35.367c-.01.017-.018.025-.018.042.009-.017.017-.025.017-.042zm.008-.019c.06-.11.136-.213.22-.298l.426-.425-.425.425a1.793 1.793 0 00-.221.298z" fill="#0078D4"/><path d="M10.344 33.215l-1.42 1.412 1.42-1.412zm-2.066 2.133c0 .008-.009.008-.009.017.009-.009.009-.009.009-.017zm-.026.062a1.33 1.33 0 00.255 1.505l3.742 3.742c.306.306.723.484 1.165.484h3.367-3.707a.825.825 0 01-.579-.238l-3.988-3.988a1.343 1.343 0 01-.255-1.505z" fill="#50E6FF"/><path d="M10.352 35.069l4.227 4.226h2.202v1.845h-3.367c-.434 0-.86-.17-1.165-.484l-3.742-3.742a1.314 1.314 0 01-.255-1.505c.009-.017.009-.025.017-.042 0-.009.009-.009.009-.017.06-.11.136-.213.22-.298l.426-.425 1.412-1.412a1.322 1.322 0 00.016 1.854z" fill="#50E6FF"/></svg>