<svg xmlns="http://www.w3.org/2000/svg" viewBox="0 0 49 48"><path d="M48.269 26.544v-5.029h-5.206a18.797 18.797 0 00-3.704-8.935l3.678-3.679-3.56-3.56-3.67 3.679a18.882 18.882 0 00-8.936-3.704V.118h-5.037v5.206A18.797 18.797 0 0012.9 9.028L9.23 5.341 5.67 8.9l3.678 3.68a18.881 18.881 0 00-3.704 8.934H.446v5.037h5.206a18.915 18.915 0 005.366 10.834 18.915 18.915 0 0010.833 5.366v5.206h5.037v-5.206a18.797 18.797 0 008.936-3.704l3.678 3.679 3.56-3.56-3.678-3.68a18.882 18.882 0 003.704-8.935h5.18v-.008zM10.51 24.03c0-3.207 1.114-6.303 3.14-8.784a13.864 13.864 0 017.998-4.792 13.858 13.858 0 019.23 1.367 13.808 13.808 0 016.26 6.91 13.839 13.839 0 01-5.105 16.807 13.856 13.856 0 01-9.044 2.27 13.788 13.788 0 01-8.428-3.991 13.825 13.825 0 01-3.013-4.489 14.048 14.048 0 01-1.037-5.298z" fill="#50E6FF"/><path d="M29.328 25.154l-6.05-6.05 5.459-5.459a11.228 11.228 0 00-12.141 2.329 11.184 11.184 0 00-3.13 5.644 11.254 11.254 0 00.497 6.438L1.906 40.105A4.534 4.534 0 00.582 43.31c0 1.198.472 2.354 1.324 3.206a4.534 4.534 0 003.206 1.325 4.534 4.534 0 003.207-1.325l12.048-12.032c2.05.793 4.286.962 6.438.498a11.212 11.212 0 005.644-3.13 11.219 11.219 0 002.33-12.142l-5.452 5.443zM6.724 44.922c-.32.32-.726.532-1.164.625a2.31 2.31 0 01-1.308-.127 2.294 2.294 0 01-1.021-.835 2.225 2.225 0 01-.38-1.257c0-.448.135-.886.38-1.258a2.294 2.294 0 011.02-.835 2.24 2.24 0 011.309-.127 2.282 2.282 0 011.83 2.227c0 .583-.244 1.157-.666 1.587z" fill="#0078D4"/><path d="M27.488 31.608h-2.531c0-4.253-3.46-7.72-7.72-7.72v-2.532c5.653 0 10.251 4.599 10.251 10.252z" fill="#50E6FF"/><path d="M23.522 31.607h-2.531a3.748 3.748 0 00-3.746-3.747v-2.53c3.459-.01 6.277 2.809 6.277 6.277z" fill="#50E6FF"/></svg>