<svg xmlns="http://www.w3.org/2000/svg" viewBox="0 0 48 48"><g clip-path="url(#calculator04:clip0-b44927dc)" fill="#0078D4"><path d="M38 1.9H9.1V13H38V1.9zM14.4 20.3h-3.7V24h3.7v-3.7zm0 11h-3.7V35h3.7v-3.7zm0 11h-3.7V46h3.7v-3.7zm11-22h-3.7V24h3.7v-3.7zm0 11h-3.7V35h3.7v-3.7zm0 11h-3.7V46h3.7v-3.7zm11-22h-3.7V24h3.7v-3.7zm0 11h-3.7V35h3.7v-3.7zm0 11h-3.7V46h3.7v-3.7z"/></g><defs><clipPath id="calculator04:clip0-b44927dc"><path transform="rotate(-180 38 46)" fill="#fff" d="M38 46h28.9v44.1H38z"/></clipPath></defs></svg>