<svg xmlns="http://www.w3.org/2000/svg" viewBox="0 0 49 49"><path d="M36.72 43.327h-3.135v5.014h3.134v-5.014zm0-5.762a6.816 6.816 0 011.558-4.316h-4.693v5.015h3.134v-.699zM43.696.386H5.781v17.643h37.915V.386z" fill="#0078D7"/><path d="M38.599 5.425h-27.78v7.597H38.6V5.425z" fill="#50E6FF"/><path d="M43.687 23.144H33.585v5.014h10.102v-5.014zM15.816 43.327H5.714v5.014h10.102v-5.014zm0-10.078H5.714v5.015h10.102v-5.015zm0-10.105H5.714v5.014h10.102v-5.014zm14.02 20.183H19.734v5.014h10.102v-5.014zm0-10.078H19.734v5.015h10.102v-5.015zm0-10.105H19.734v5.014h10.102v-5.014z" fill="#0078D7"/><path d="M48.692 37.078c0-2.768-2.266-5.04-5.047-5.04-2.494 0-4.575 1.834-4.97 4.207h2.064c.134-.488.404-.934.775-1.304a2.998 2.998 0 012.131-.884c.8 0 1.559.312 2.132.884a2.99 2.99 0 01.884 2.128v1.212h-8.063v10.105h10.086v-9.432c.008-.917.008-1.657.008-1.876z" fill="#0078D4"/><path d="M43.645 44.447c.717 0 1.306-.58 1.306-1.304a1.306 1.306 0 00-2.611 0c.008.715.59 1.304 1.305 1.304z" fill="#50E6FF"/></svg>