<svg xmlns="http://www.w3.org/2000/svg" viewBox="0 0 11.947 14.705"><path d="M11.947 2.757h-.918v10.569a1.352 1.352 0 01-.108.538 1.37 1.37 0 01-.732.733 1.358 1.358 0 01-.539.108H2.3a1.352 1.352 0 01-.539-.108 1.37 1.37 0 01-.732-.733 1.351 1.351 0 01-.107-.538V2.757H0v-.919h3.676V.919A.869.869 0 013.748.56a.925.925 0 01.2-.291.954.954 0 01.291-.2A.9.9 0 014.6 0h2.752a.893.893 0 01.359.072A.933.933 0 018 .269a.945.945 0 01.2.291.9.9 0 01.071.359v.919h3.677zm-1.838 0H1.838v10.569a.466.466 0 00.46.46H9.65a.466.466 0 00.46-.46zM4.6 11.948h-.924V4.6H4.6zm0-10.11h2.752V.919H4.6zm1.838 10.11h-.924V4.6h.918zm1.838 0h-.924V4.6h.918z"/></svg>