<svg xmlns="http://www.w3.org/2000/svg" viewBox="0 0 48 48"><path d="M0 47.865h48V0H0v47.865z" fill="#0078D4"/><path d="M0 5.018h48V.008H0v5.01zm19.543 9.691v21.39h-4.614V19.903c-.489.43-1.138.81-1.956 1.156a9.856 9.856 0 01-2.505.674v-3.88a19.425 19.425 0 006.275-3.137h2.8v-.008zm9.05 17.571h8.898v3.821H23.523v-1.577c0-1.113.203-2.117.608-3.036a9.733 9.733 0 011.636-2.539c.683-.776 1.788-1.712 3.306-2.8 1.35-.962 2.303-1.814 2.877-2.564.573-.742.86-1.535.86-2.37 0-1.814-1.03-2.716-3.087-2.716-1.805 0-3.534.717-5.179 2.142v-4.057c1.822-1.18 3.88-1.762 6.174-1.762 2.109 0 3.77.53 4.985 1.594 1.214 1.062 1.822 2.513 1.822 4.352 0 1.029-.178 1.965-.54 2.8a8.275 8.275 0 01-1.552 2.345c-.675.725-1.755 1.602-3.247 2.631-1.426 1.012-2.379 1.788-2.86 2.32-.497.54-.733 1.012-.733 1.417z" fill="#50E6FF"/></svg>