<svg xmlns="http://www.w3.org/2000/svg" viewBox="0 0 48 48"><path d="M28.757 39.943a12.253 12.253 0 01-8.73-3.618 12.267 12.267 0 01-3.618-8.73c0-3.295 1.284-6.396 3.618-8.73a12.267 12.267 0 018.73-3.618c2.212 0 4.345.582 6.21 1.664V0H13.162L1 12.122 1.048 46h33.919v-7.615l-.065-.065a12.33 12.33 0 01-6.145 1.623z" fill="#0078D7"/><path d="M37.285 34.126a10.697 10.697 0 002.213-6.534 10.72 10.72 0 00-4.539-8.762 10.683 10.683 0 00-6.21-1.97c-5.928 0-10.733 4.805-10.733 10.732 0 5.928 4.805 10.733 10.733 10.733 2.31 0 4.45-.735 6.21-1.979.049-.032.097-.072.146-.105l9.618 9.619 2.148-2.14-9.586-9.594zm-2.318-2.044a7.658 7.658 0 01-6.21 3.166 7.65 7.65 0 01-7.648-7.656 7.651 7.651 0 017.656-7.656 7.617 7.617 0 016.194 3.166 7.603 7.603 0 011.462 4.498 7.512 7.512 0 01-1.454 4.482z" fill="#0078D7"/><path d="M32.472 23.773h-7.583v1.51h7.583v-1.51z" fill="#0078D4"/><path d="M32.472 26.828h-7.583v1.51h7.583v-1.51zm0 3.067h-7.583v1.51h7.583v-1.51zM1 12.122L13.162 0v12.122H1z" fill="#50E6FF"/></svg>