<svg xmlns="http://www.w3.org/2000/svg" viewBox="0 0 49 48"><path d="M7.704 22.106l-.795-1.32 11.492-6.892 11.777-7.046 11.708-2.439.316 1.513-11.46 2.385-11.546 6.907-11.492 6.892z" fill="#0078D4"/><path d="M6.908 23.626a2.284 2.284 0 10-2.284-2.284 2.294 2.294 0 002.284 2.284zm11.862-6.823a2.284 2.284 0 100-4.57 2.284 2.284 0 000 4.57zm11.646-7.069a2.284 2.284 0 100-4.57 2.284 2.284 0 000 4.57zm11.469-2.169a2.284 2.284 0 100-4.57 2.284 2.284 0 000 4.57z" fill="#50E6FF"/><path d="M11.933 26.103H2.579v14.386h9.354V26.103z" fill="#0078D4"/><path d="M11.933 37.81H2.579v2.679h9.354V37.81z" fill="#50E6FF"/><path d="M23.494 21.342h-9.353v19.14h9.353v-19.14z" fill="#0078D4"/><path d="M23.494 26.45h-9.353v14.03h9.353V26.45z" fill="#50E6FF"/><path d="M35.132 14.52h-9.354v25.97h9.354V14.52z" fill="#0078D4"/><path d="M35.132 31.235h-9.354v9.254h9.354v-9.254z" fill="#50E6FF"/><path d="M46.694 9.819H37.34v30.67h9.354V9.819z" fill="#0078D4"/><path d="M46.694 21.812H37.34v18.677h9.354V21.812z" fill="#50E6FF"/></svg>