<svg xmlns="http://www.w3.org/2000/svg" viewBox="0 0 48 48"><path d="M3.566 6.248A2.72 2.72 0 01.853 3.535C.853 2.04 2.05.8 3.566.8a2.724 2.724 0 010 5.448zm8.161 0a2.706 2.706 0 01-2.713-2.713C9.014 2.04 10.213.8 11.727.8a2.72 2.72 0 012.713 2.714c.021 1.514-1.22 2.734-2.713 2.734zm8.182 0a2.706 2.706 0 01-2.714-2.713C17.195 2.04 18.395.8 19.91.8a2.706 2.706 0 012.713 2.714c0 1.493-1.199 2.734-2.713 2.734zm8.245 0a2.706 2.706 0 01-2.714-2.713C25.44 2.04 26.64.8 28.154.8a2.706 2.706 0 012.713 2.714c0 1.493-1.22 2.734-2.713 2.734zm8.14 0a2.706 2.706 0 01-2.713-2.713C33.581 2.04 34.78.8 36.294.8a2.706 2.706 0 012.714 2.714c0 1.493-1.22 2.734-2.714 2.734zm8.182 0a2.706 2.706 0 01-2.713-2.713C41.763 2.04 42.983.8 44.476.8a2.72 2.72 0 012.713 2.714 2.698 2.698 0 01-2.713 2.734zM3.566 14.41a2.707 2.707 0 01-2.713-2.714 2.72 2.72 0 012.713-2.714 2.706 2.706 0 012.713 2.714 2.72 2.72 0 01-2.713 2.713zm40.91 0a2.707 2.707 0 01-2.713-2.714 2.72 2.72 0 012.713-2.714 2.706 2.706 0 012.713 2.714c.021 1.493-1.199 2.713-2.713 2.713zM3.524 22.696a2.725 2.725 0 010-5.448 2.707 2.707 0 012.713 2.714c.021 1.514-1.22 2.734-2.713 2.734zm16.364 0a2.706 2.706 0 01-2.713-2.713 2.72 2.72 0 012.713-2.713 2.72 2.72 0 012.713 2.713c.021 1.493-1.198 2.713-2.713 2.713zm8.266 0a2.707 2.707 0 01-2.714-2.713 2.72 2.72 0 012.714-2.713 2.707 2.707 0 012.713 2.713 2.72 2.72 0 01-2.713 2.713zm16.322-.084a2.706 2.706 0 01-2.713-2.713 2.72 2.72 0 012.713-2.713 2.707 2.707 0 012.713 2.713c.021 1.493-1.199 2.713-2.713 2.713zm-2.734 5.511a2.706 2.706 0 012.714-2.713 2.72 2.72 0 012.713 2.713 2.706 2.706 0 01-2.713 2.713 2.72 2.72 0 01-2.714-2.713zm0 8.119a2.706 2.706 0 012.714-2.714 2.72 2.72 0 012.713 2.714 2.706 2.706 0 01-2.713 2.713 2.706 2.706 0 01-2.714-2.713zm0 8.203a2.707 2.707 0 012.714-2.714 2.72 2.72 0 012.713 2.714 2.72 2.72 0 01-2.713 2.713c-1.494.021-2.714-1.199-2.714-2.713zm-8.161 0a2.707 2.707 0 012.713-2.714 2.72 2.72 0 012.714 2.714 2.706 2.706 0 01-2.714 2.713c-1.493.021-2.713-1.199-2.713-2.713zm-8.203 0a2.707 2.707 0 012.713-2.714 2.72 2.72 0 012.714 2.714 2.706 2.706 0 01-2.714 2.713c-1.493.021-2.713-1.199-2.713-2.713zM3.63 30.857a2.706 2.706 0 01-2.714-2.713 2.72 2.72 0 012.713-2.713 2.706 2.706 0 012.714 2.713 2.72 2.72 0 01-2.714 2.713zm16.364 0a2.706 2.706 0 01-2.714-2.713 2.72 2.72 0 012.714-2.713 2.72 2.72 0 012.713 2.713 2.72 2.72 0 01-2.713 2.713zm8.16-5.427a2.707 2.707 0 012.713 2.714 2.72 2.72 0 01-2.713 2.713 2.72 2.72 0 01-2.713-2.713c-.021-1.493 1.199-2.713 2.713-2.713zM3.63 39.04a2.706 2.706 0 01-2.714-2.714 2.706 2.706 0 012.713-2.713 2.706 2.706 0 012.714 2.713 2.72 2.72 0 01-2.714 2.713zm0 8.16a2.706 2.706 0 01-2.714-2.713 2.706 2.706 0 012.713-2.713 2.707 2.707 0 012.714 2.713 2.72 2.72 0 01-2.714 2.714zm8.16 0a2.707 2.707 0 01-2.713-2.713 2.706 2.706 0 012.713-2.713 2.72 2.72 0 012.714 2.713 2.72 2.72 0 01-2.713 2.714zm8.204 0a2.706 2.706 0 01-2.714-2.713 2.706 2.706 0 012.714-2.713 2.72 2.72 0 012.713 2.713 2.72 2.72 0 01-2.713 2.714z" fill="#50E6FF"/><path d="M11.748 19.898H9.056V8.94h10.853v2.776h-8.161v8.182zm8.202 16.449v2.692H8.993V28.186h2.756v8.161h8.203zm8.162-24.63V9.003h10.896V19.92H36.23v-8.203h-8.119zm8.14 16.363h2.692v10.96H28.091v-2.776h8.16V28.08z" fill="#0078D4"/></svg>