<svg xmlns="http://www.w3.org/2000/svg" viewBox="0 0 48 48"><path d="M15.89 1.619H1.808v7.053H15.89V1.62zm15.27 0H17.074v7.053H31.16V1.62zm15.032 0H32.108v7.053h14.084V1.62zm-32.184 9.344H1.806v7.054h12.2v-7.054zm15.268 0h-12.2v7.054h12.2v-7.054zm15.034 0H32.107v7.054H44.31v-7.054z" fill="#0078D4"/><path d="M11.418 20.865H1.807v7.054h9.611v-7.054zm15.269 0h-9.612v7.054h9.612v-7.054zm15.033 0h-9.612v7.054h9.612v-7.054z" fill="#3BCAF4"/><path d="M9.064 29.826H1.807v7.053h7.257v-7.053zm15.269 0h-7.258v7.053h7.258v-7.053zm15.033 0h-7.258v7.053h7.258v-7.053zM6.554 39.328H1.807v7.053h4.747v-7.053zm15.268 0h-4.747v7.053h4.747v-7.053zm15.033 0h-4.747v7.053h4.747v-7.053z" fill="#50E6FF"/></svg>