<svg xmlns="http://www.w3.org/2000/svg" viewBox="0 0 49 49"><path d="M25.259 10.84c4.174.188 7.962 1.89 10.846 4.58l4.834-4.921c-2.195-2.115-4.62-3.743-7.217-4.835-2.598-1.093-5.442-1.694-8.463-1.777v6.953z" fill="#50E6FF"/><path d="M11.792 40.167l-4.8 4.882a2.116 2.116 0 00-.079-.083C4.88 42.75 3.31 40.312 2.247 37.7 1.175 35.057.585 32.163.5 29.087h6.79a17.61 17.61 0 004.495 11.07l.007.01zm-4.5-12.62a17.61 17.61 0 014.518-11.06l-4.814-4.901c-2.077 2.235-3.677 4.705-4.75 7.348C1.176 21.578.587 24.472.502 27.55l6.79-.002zm5.588-12.146c2.889-2.687 6.683-4.384 10.864-4.562V3.887c-3.02.083-5.862.684-8.46 1.777-2.598 1.092-5.023 2.72-7.219 4.835l4.816 4.902zm30.569 11.167v3.957H48.5V18.05H35.87v4.99h4.007l-9.997 9.872-5.378-5.31-.001-.002-11.046 10.908v.002l3.572 3.527 7.474-7.38 5.38 5.31 13.569-13.4z" fill="#0078D4"/></svg>