<svg xmlns="http://www.w3.org/2000/svg" viewBox="0 0 48 49"><path d="M25.267.774h-2.526v47.991h2.526V.774zM19.374 7.93H.009v19.365h19.365V7.93zm18.943 19.365c-5.346 0-9.682-4.336-9.682-9.682 0-5.347 4.336-9.683 9.682-9.683 5.347 0 9.683 4.336 9.683 9.683 0 5.346-4.336 9.682-9.683 9.682zM2.535 36.56a2.522 2.522 0 00-2.526 2.525 2.522 2.522 0 002.526 2.526 2.522 2.522 0 002.526-2.526 2.522 2.522 0 00-2.526-2.526z" fill="#0078D4"/><path d="M9.69 41.61a2.526 2.526 0 10.001-5.05 2.526 2.526 0 000 5.05z" fill="#50E6FF"/><path d="M16.848 36.56a2.522 2.522 0 00-2.526 2.525 2.522 2.522 0 002.526 2.526 2.522 2.522 0 002.526-2.526 2.522 2.522 0 00-2.526-2.526zm14.312 0a2.522 2.522 0 00-2.525 2.525 2.522 2.522 0 002.526 2.526 2.522 2.522 0 002.526-2.526 2.522 2.522 0 00-2.526-2.526z" fill="#0078D4"/><path d="M38.318 41.61a2.526 2.526 0 100-5.05 2.526 2.526 0 000 5.05zm7.156 0a2.526 2.526 0 100-5.05 2.526 2.526 0 000 5.05z" fill="#50E6FF"/></svg>