<svg xmlns="http://www.w3.org/2000/svg" viewBox="0 0 49 49"><path d="M31.51 38.672H18.587c1.557 5.495-.531 6.279-9.675 6.279v2.873h31.084v-2.873c-9.143.008-10.035-.776-8.486-6.279z" fill="#50E6FF"/><path d="M8.904 47.831h31.093v-2.873H8.904v2.873zM48.5 3.286H.502v35.46h48V3.286z" fill="#0078D4"/><path d="M45.916 5.82H3.044v30.33h42.872V5.82z" fill="#50E6FF"/><path d="M15.563 20.047h-4.942v11.031h4.942v-11.03zm7.687-4.113h-5.06v15.143h5.06V15.934zm7.579-5.129h-5.06v20.276h5.06V10.805zm7.56 5.179h-5.111v15.101h5.11v-15.1z" fill="#0078D4"/></svg>