<svg xmlns="http://www.w3.org/2000/svg" viewBox="0 0 48 49"><path d="M7.113 22.303l-.795-1.32L17.81 14.09l11.777-7.046 11.708-2.439.316 1.513-11.46 2.384-11.546 6.908-11.492 6.892z" fill="#50E6FF"/><path d="M6.45 23.915a2.284 2.284 0 10-2.284-2.284 2.294 2.294 0 002.283 2.284zM18.18 17a2.284 2.284 0 100-4.57 2.284 2.284 0 000 4.57zm11.646-7.069a2.284 2.284 0 100-4.57 2.284 2.284 0 000 4.57zM45.393 45.2v-2.57H1.896v2.57h43.497zM41.295 7.762a2.284 2.284 0 100-4.57 2.284 2.284 0 000 4.57z" fill="#0078D4"/><path d="M11.343 26.3H1.99v14.385h9.354V26.3z" fill="#50E6FF"/><path d="M11.343 38.007H1.99v2.678h9.354v-2.678z" fill="#0078D4"/><path d="M22.904 21.539H13.55v19.14h9.354v-19.14z" fill="#50E6FF"/><path d="M22.904 26.647H13.55v14.03h9.354v-14.03z" fill="#0078D4"/><path d="M34.542 14.716h-9.354v25.97h9.354v-25.97z" fill="#50E6FF"/><path d="M34.542 31.432h-9.354v9.254h9.354v-9.254z" fill="#0078D4"/><path d="M46.103 10.016h-9.354v30.67h9.354v-30.67z" fill="#50E6FF"/><path d="M46.103 22.009h-9.354v18.677h9.354V22.009z" fill="#0078D4"/></svg>