<svg xmlns="http://www.w3.org/2000/svg" viewBox="0 0 48 49"><path d="M47.996.766H0v12.21h47.996V.766zM12.21 15.081H0v19.367h12.21V15.08zm29.68 33.682a6.11 6.11 0 01-6.104-6.105V21.186a6.11 6.11 0 016.105-6.105 6.11 6.11 0 016.105 6.105v21.472a6.11 6.11 0 01-6.105 6.105zm-8.209-12.211H0v12.21h33.681v-12.21zm.001-21.471H14.315v5.052h19.367v-5.052z" fill="#0078D4"/><path d="M16.841 34.447a2.523 2.523 0 01-2.526-2.526v-7.158a2.523 2.523 0 012.527-2.526 2.523 2.523 0 012.526 2.526v7.158a2.528 2.528 0 01-2.526 2.526z" fill="#50E6FF"/><path d="M33.68 29.396H21.47v5.053h12.21v-5.052zm-7.157-7.159h-5.052v5.053h5.052v-5.053z" fill="#0078D4"/><path d="M31.155 27.29a2.523 2.523 0 01-2.526-2.527 2.523 2.523 0 012.526-2.526 2.523 2.523 0 012.526 2.526 2.528 2.528 0 01-2.526 2.526z" fill="#50E6FF"/></svg>