<svg xmlns="http://www.w3.org/2000/svg" viewBox="0 0 48 49"><path d="M5.053.79H0v5.05h5.053V.79zm0 7.155H0v5.05h5.053v-5.05zm35.453 0h-5.052v5.05h5.052v-5.05z" fill="#0078D4"/><path d="M48 7.945h-5.053v5.05H48v-5.05zm0-7.179h-5.053v5.05H48V.766z" fill="#50E6FF"/><path d="M5.053 15.102H0v5.05h5.053v-5.05zm35.453 0h-5.052v5.05h5.052v-5.05z" fill="#0078D4"/><path d="M48 15.102h-5.053v5.05H48v-5.05z" fill="#50E6FF"/><path d="M5.053 22.254H0v5.05h5.053v-5.05z" fill="#0078D4"/><path d="M12.63 22.254H7.579v5.05h5.053v-5.05z" fill="#50E6FF"/><path d="M40.506 22.254h-5.052v5.05h5.052v-5.05z" fill="#0078D4"/><path d="M48 22.254h-5.053v5.05H48v-5.05z" fill="#50E6FF"/><path d="M5.053 29.406H0v5.05h5.053v-5.05z" fill="#0078D4"/><path d="M12.63 29.406H7.579v5.05h5.053v-5.05z" fill="#50E6FF"/><path d="M40.506 29.406h-5.052v5.05h5.052v-5.05z" fill="#0078D4"/><path d="M48 29.406h-5.053v5.05H48v-5.05z" fill="#50E6FF"/><path d="M5.053 36.562H0v5.05h5.053v-5.05z" fill="#0078D4"/><path d="M12.63 36.562H7.579v5.05h5.053v-5.05z" fill="#50E6FF"/><path d="M40.506 36.562h-5.052v5.05h5.052v-5.05z" fill="#0078D4"/><path d="M48 36.562h-5.053v5.05H48v-5.05z" fill="#50E6FF"/><path d="M5.053 43.714H0v5.05h5.053v-5.05z" fill="#0078D4"/><path d="M12.63 43.714H7.579v5.05h5.053v-5.05z" fill="#50E6FF"/><path d="M40.506 43.714h-5.052v5.05h5.052v-5.05z" fill="#0078D4"/><path d="M48 43.714h-5.053v5.05H48v-5.05z" fill="#50E6FF"/><path d="M30.333 31.105l-5.078-5.066v2.558h-7.579v5.067h7.58v2.516l5.077-5.075zm0-12.69l-5.078-5.075v2.567h-7.579v5.067h7.58v2.516l5.077-5.075zm0 25.275l-5.078-5.066v2.559h-7.579v5.066h7.58v2.517l5.077-5.075z" fill="#0078D4"/></svg>