<svg xmlns="http://www.w3.org/2000/svg" viewBox="0 0 48 49"><path d="M21.65 37.907c9 0 16.3-7.3 16.3-16.3s-7.3-16.3-16.3-16.3-16.3 7.3-16.3 16.3 7.3 16.3 16.3 16.3z" fill="#0078D4"/><path d="M38 3.909l-3.6 3.6-.05.05c.25.2.45.4.65.65 1.75 1.75 3.1 3.75 4.05 6 1 2.35 1.5 4.8 1.5 7.35s-.5 5.05-1.5 7.35c-.95 2.25-2.3 4.3-4.05 6-1.75 1.75-3.75 3.1-6 4.05-2.35 1-4.8 1.5-7.4 1.5-2.6 0-5.05-.5-7.35-1.5-2.25-.95-4.3-2.3-6-4.05l-.65-.65-1.75 1.85c3.6 3.95 8.7 6.55 14.4 6.9v2.6H10.1v2.5h22.7v-2.5H22.75v-2.55c11.35-.55 20.4-9.95 20.4-21.45a21.3 21.3 0 00-5.2-14l1.9-1.9-1.85-1.8z" fill="#50E6FF"/><path d="M29.3 13.858l-11.95 11.95-3.6-3.6-2.4 2.4 6 6 14.35-14.35-2.4-2.4z" fill="#50E6FF"/></svg>