<svg xmlns="http://www.w3.org/2000/svg" viewBox="0 0 49 49"><path d="M41.06 32.67a8.2 8.2 0 011.493.136V1.108H1.558v40.464h31.333a9.472 9.472 0 01-.032-.683c0-4.532 3.678-8.22 8.2-8.22zM26.424 11.303c0-2.94 2.345-5.367 5.27-5.367a5.375 5.375 0 015.364 5.367 5.314 5.314 0 01-5.317 5.32 5.324 5.324 0 01-5.317-5.32z" fill="#50E6FF"/><path d="M37.059 11.304a5.37 5.37 0 00-5.366-5.367c-2.923 0-5.269 2.419-5.269 5.367a5.324 5.324 0 005.317 5.32 5.314 5.314 0 005.318-5.32zM41.06 32.67h.12l-5.197-5.167-6.466 6.516-17.084-16.672L1.478 28.242l.032.233v13.7h31.453a8.388 8.388 0 01-.096-1.278c-.008-4.54 3.67-8.228 8.192-8.228z" fill="#0078D4"/><path d="M41.059 47.108c3.42 0 6.193-2.78 6.193-6.21 0-3.431-2.773-6.212-6.193-6.212-3.42 0-6.193 2.78-6.193 6.211 0 3.43 2.773 6.211 6.193 6.211z" fill="#0078D4"/><path d="M43.999 37.9l-4.61 4.628-1.382-1.39-.924.924 2.305 2.314 5.534-5.552L44 37.9z" fill="#50E6FF"/></svg>