<svg xmlns="http://www.w3.org/2000/svg" viewBox="0 0 48 49"><path d="M33.565 24.032c0 5.3-4.298 9.597-9.598 9.597-5.3 0-9.597-4.297-9.597-9.597s9.598-21.553 9.598-21.553 9.597 16.253 9.597 21.553z" fill="#0078D7"/><path d="M24 40.257c-3.692 0-7.168-.44-9.787-1.238-2.775-.846-4.241-1.974-4.241-3.262 0-1.398 1.784-2.635 5.024-3.483a.32.32 0 11.162.62c-2.847.745-4.546 1.815-4.546 2.863 0 .95 1.38 1.915 3.788 2.649 2.56.78 5.97 1.21 9.6 1.21s7.04-.43 9.6-1.21c2.407-.734 3.788-1.7 3.788-2.649 0-1.094-1.817-2.194-4.862-2.943a.32.32 0 01.153-.623c3.45.849 5.35 2.116 5.35 3.566 0 1.288-1.468 2.416-4.242 3.262-2.619.798-6.095 1.238-9.787 1.238z" fill="#0078D4"/><path d="M24 44.67c-6.068 0-11.78-.835-16.083-2.35C3.457 40.752 1 38.6 1 36.264c0-2.899 3.715-5.455 10.194-7.015a.482.482 0 01.225.935c-5.833 1.404-9.457 3.733-9.457 6.08 0 1.87 2.286 3.748 6.274 5.15 4.204 1.48 9.802 2.295 15.764 2.295s11.56-.815 15.764-2.294c3.988-1.403 6.274-3.28 6.274-5.15 0-2.373-3.684-4.717-9.614-6.117a.481.481 0 01.221-.936c3.064.723 5.622 1.713 7.4 2.86C45.979 33.32 47 34.768 47 36.263c0 2.337-2.457 4.488-6.917 6.058-4.304 1.514-10.015 2.348-16.083 2.348z" fill="#0078D4"/><path d="M30.75 19.67l-1.802-1.804-7.288 7.288-2.405-2.408-1.804 1.805 4.206 4.203.005-.006.003.006 9.084-9.084z" fill="#50E6FF"/></svg>