<svg xmlns="http://www.w3.org/2000/svg" viewBox="0 0 49 49"><path d="M24.792 39.727c8.51 0 15.41-6.894 15.41-15.399 0-8.504-6.9-15.399-15.41-15.399s-15.41 6.895-15.41 15.4c0 8.504 6.9 15.398 15.41 15.398z" fill="#0078D4"/><path d="M33.4 19.122l-2.134-2.14-10.706 10.7-3.203-3.21-2.141 2.14 5.344 5.34 12.84-12.83z" fill="#50E6FF"/><path d="M42.461 40.57a23.889 23.889 0 006.061-14.7h-4.906a18.833 18.833 0 01-4.645 11.212l3.49 3.488z" fill="#0078D4"/><path d="M6.794 8.55A23.84 23.84 0 00.641 23.343h5.133a18.9 18.9 0 014.628-11.187L6.794 8.55z" fill="#50E6FF"/><path d="M8.598 42.474a23.914 23.914 0 0014.803 6.073v-5.02a18.9 18.9 0 01-11.195-4.65l-3.608 3.597zM.64 25.87a23.88 23.88 0 006.146 14.793l3.608-3.606a18.838 18.838 0 01-4.62-11.187H.641z" fill="#0078D4"/><path d="M42.453 8.643l-3.49 3.487a18.85 18.85 0 014.653 11.213h4.906a23.85 23.85 0 00-6.07-14.7z" fill="#50E6FF"/><path d="M25.93 48.53a23.879 23.879 0 0014.727-6.149l-3.499-3.496a18.926 18.926 0 01-11.228 4.633v5.013z" fill="#0078D4"/><path d="M25.93.699v5.012a18.892 18.892 0 0111.212 4.617l3.498-3.496A23.863 23.863 0 0025.93.699zM23.4.69C17.737.96 12.586 3.21 8.616 6.748l3.6 3.598A18.91 18.91 0 0123.391 5.71V.691h.009z" fill="#50E6FF"/></svg>