<svg xmlns="http://www.w3.org/2000/svg" viewBox="0 0 73 73"><path d="M54.02 16.097a7.585 7.585 0 007.58-7.58A7.585 7.585 0 0054.02.94a7.585 7.585 0 00-7.579 7.579 7.569 7.569 0 007.58 7.579z" fill="#50E6FF"/><path d="M46.441 37.684A5.685 5.685 0 1040.757 32a5.677 5.677 0 005.684 5.684z" fill="#0078D4"/><path d="M26.673 56.834a2.846 2.846 0 002.842-2.843 2.846 2.846 0 00-2.842-2.842 2.846 2.846 0 00-2.842 2.842 2.846 2.846 0 002.842 2.843z" fill="#0078D7"/><path d="M36.336 50.581a3.784 3.784 0 003.79-3.79 3.784 3.784 0 00-3.79-3.789 3.784 3.784 0 00-3.79 3.79 3.784 3.784 0 003.79 3.79z" fill="#0078D4"/><path d="M17.604 60.712a1.892 1.892 0 001.894-1.895 1.892 1.892 0 00-1.895-1.895 1.892 1.892 0 00-1.894 1.895 1.9 1.9 0 001.895 1.895zm-8.54 2.235a1.892 1.892 0 001.895-1.894 1.892 1.892 0 00-1.895-1.895 1.892 1.892 0 00-1.894 1.895c0 1.048.846 1.894 1.894 1.894z" fill="#0078D7"/><path d="M65.376.951c0 35.57-28.825 64.409-64.408 64.409v7.579h71.987V.95h-7.58z" fill="#0078D4"/></svg>