<svg xmlns="http://www.w3.org/2000/svg" viewBox="0 0 48 48"><path d="M7.975 41.785A23.89 23.89 0 0022.67 47.84v-4.901a18.832 18.832 0 01-11.209-4.64l-3.486 3.486z" fill="#0078D4"/><path d="M25.196 0v5.128a18.9 18.9 0 0111.183 4.624l3.604-3.605A23.802 23.802 0 0025.196 0z" fill="#50E6FF"/><path d="M6.072 7.95A23.88 23.88 0 000 22.736h5.019a18.898 18.898 0 014.648-11.192L6.072 7.95zM22.67 0A23.872 23.872 0 007.882 6.13l3.604 3.605A18.838 18.838 0 0122.67 5.12V0z" fill="#0078D4"/><path d="M36.404 38.282a18.871 18.871 0 01-11.208 4.649v4.9a23.85 23.85 0 0014.695-6.063l-3.487-3.486z" fill="#50E6FF"/><path d="M.008 25.263a23.824 23.824 0 006.148 14.712L9.65 36.48a18.856 18.856 0 01-4.63-11.217H.009z" fill="#0078D4"/><path d="M47.84 25.263h-5.01a18.91 18.91 0 01-4.615 11.209l3.494 3.494a23.873 23.873 0 006.131-14.703zM41.794 7.966l-3.596 3.596a18.884 18.884 0 014.631 11.175h5.02a23.866 23.866 0 00-6.055-14.77zm-17.28 4.666a7.915 7.915 0 00-8.388 7.41c-.27 4.362 7.865 15.158 7.865 15.158s7.664-9.819 7.933-14.181a7.914 7.914 0 00-7.41-8.387z" fill="#50E6FF"/><path d="M28.791 20.8a4.775 4.775 0 01-5.052 4.472 4.774 4.774 0 01-4.472-5.053 4.774 4.774 0 015.053-4.472c2.627.16 4.64 2.426 4.471 5.053z" fill="#0078D4"/></svg>