<svg xmlns="http://www.w3.org/2000/svg" viewBox="0 0 49 48"><path fill-rule="evenodd" clip-rule="evenodd" d="M24.046 43.5H24c-7.203 0-13.493-3.905-16.87-9.713L3.305 36c4.402 7.646 11.932 12 20.74 12v-4.5z" fill="#0078D4"/><path fill-rule="evenodd" clip-rule="evenodd" d="M24.046 4.5H24c-7.203 0-13.493 3.905-16.87 9.713L3.305 12C7.707 4.35 15.237 0 24.045 0v4.5z" fill="#50E6FF"/><path fill-rule="evenodd" clip-rule="evenodd" d="M7.13 14.213A19.41 19.41 0 004.5 24c0 3.567.958 6.91 2.63 9.787L3.305 36c-4.407-7.65-4.407-16.361 0-24l3.825 2.213z" fill="#50E6FF"/><path fill-rule="evenodd" clip-rule="evenodd" d="M24.045 4.5C34.794 4.524 43.5 13.245 43.5 24s-8.706 19.476-19.455 19.5V48a24 24 0 000-48v4.5z" fill="#0078D4"/><path d="M30 27.825a4.43 4.43 0 01-1.305 3.338c-.88.84-2.15 1.356-3.81 1.548v2.715H23.06v-2.625a10.253 10.253 0 01-4.725-1.147v-3.48a7.36 7.36 0 002.156 1.076c.827.308 1.69.509 2.569.596v-4.56c-1.843-.682-3.146-1.432-3.911-2.25A4.5 4.5 0 0118 19.837a4.5 4.5 0 011.41-3.337 5.93 5.93 0 013.649-1.594v-2.344h1.826v2.277c1.75.082 3.063.365 3.938.847v3.375a9.626 9.626 0 00-3.938-1.297V22.5c1.84.668 3.153 1.418 3.938 2.25A4.312 4.312 0 0130 27.825zm-6.941-6.049v-3.963c-1.155.206-1.736.813-1.736 1.81 0 .878.581 1.595 1.736 2.153zm3.615 6.225c0-.81-.596-1.477-1.789-2.002v3.787c1.193-.192 1.789-.787 1.789-1.785z" fill="#50E6FF"/></svg>