<svg xmlns="http://www.w3.org/2000/svg" viewBox="0 0 49 48"><path d="M24.765 4.915h.042V.5C16.184.5 8.809 4.766 4.494 12.248l3.753 2.166c3.307-5.68 9.466-9.5 16.518-9.5z" fill="#50E6FF"/><path d="M8.246 14.42l-3.753-2.174c-4.316 7.482-4.316 16.014 0 23.496l3.745-2.166a18.97 18.97 0 01-2.571-9.574c0-3.488.942-6.77 2.58-9.582zm16.52 28.682c-7.052 0-13.211-3.828-16.518-9.516l-3.746 2.166C8.818 43.234 16.184 47.5 24.815 47.5v-4.398h-.05z" fill="#0078D4"/><path d="M48.26 23.996C48.26 11.016 37.762.5 24.807.5v4.415c10.524.025 19.048 8.565 19.048 19.09 0 10.524-8.523 19.072-19.048 19.097V47.5c12.955 0 23.455-10.524 23.455-23.504z" fill="#0078D4"/><path d="M27.377 27.925c0-.793-.587-1.447-1.752-1.96v3.713c1.174-.19 1.752-.769 1.752-1.753zm-3.538-6.093v-3.886c-1.133.207-1.703.794-1.703 1.778.008.86.57 1.563 1.703 2.108zm6.796 5.92c0 1.356-.43 2.447-1.282 3.265-.851.827-2.091 1.331-3.728 1.521v2.654h-1.786v-2.58c-1.678-.016-3.224-.388-4.63-1.124v-3.39c.438.356 1.141.712 2.108 1.05.968.34 1.803.53 2.514.58V25.27c-1.803-.67-3.084-1.405-3.828-2.199-.753-.793-1.125-1.843-1.125-3.141s.463-2.39 1.381-3.282c.926-.893 2.116-1.414 3.572-1.563v-2.274h1.785v2.224c1.72.083 3.01.356 3.853.835v3.307c-1.133-.686-2.422-1.108-3.853-1.273v4.638c1.803.653 3.092 1.39 3.853 2.2.785.818 1.166 1.818 1.166 3.009z" fill="#0078D4"/></svg>