<svg xmlns="http://www.w3.org/2000/svg" viewBox="0 0 49 49"><path d="M47.625 24.24C47.625 11.238 37.09.694 24.088.677V5.47c10.358.017 18.745 8.413 18.745 18.77 0 10.358-8.396 18.763-18.745 18.771v4.792c12.994-.017 23.537-10.56 23.537-23.562z" fill="#0078D4"/><path d="M3.65 12.425l4.15 2.408c3.251-5.6 9.306-9.364 16.253-9.364h.025v-4.8h-.025c-8.707 0-16.32 4.733-20.404 11.756z" fill="#fff"/><path d="M3.65 12.425l4.15 2.408a18.83 18.83 0 011.828-2.61c3.444-4.127 8.623-6.754 14.425-6.754h.025v-4.8h-.025c-7.183 0-13.617 3.217-17.945 8.286a24.39 24.39 0 00-2.46 3.47z" fill="#fff"/><path d="M5.275 24.24a18.7 18.7 0 012.527-9.406l-4.152-2.4A23.536 23.536 0 00.492 24.24c0 4.311 1.154 8.345 3.175 11.814l4.152-2.391a18.652 18.652 0 01-2.544-9.423zm2.526-9.406l-4.151-2.4 4.151 2.4z" fill="#50E6FF"/><path d="M24.054 43.019c-6.939 0-12.993-3.756-16.244-9.356l-4.152 2.4c4.085 7.023 11.689 11.739 20.396 11.739h.026V43.01c-.009.009-.017.009-.026.009z" fill="#0078D4"/><path d="M3.658 36.054l4.152-2.391-4.152 2.391zm10.788-.522c0-5.44 4.412-9.844 9.86-9.844 5.45 0 9.862 4.404 9.862 9.844H14.446zM29.915 18.27c0 3.081-2.5 5.574-5.591 5.574-3.09 0-5.592-2.493-5.592-5.575 0-3.082 2.501-5.575 5.592-5.575 3.09 0 5.591 2.493 5.591 5.575z" fill="#0078D4"/><path d="M9.915 11.894L6.176 8.888c-.016.025-.042.05-.059.076a19.21 19.21 0 00-.732.91l3.739 3.006c.168-.22.337-.438.513-.649a3.47 3.47 0 01.278-.337z" fill="#50E6FF"/><path d="M18.816 6.21l-1.524-4.547c-.404.118-.808.252-1.196.396l1.524 4.547a14.2 14.2 0 011.196-.396z" fill="#0078D4"/><path d="M22.766 5.511L22.252.745a30.11 30.11 0 00-1.255.126l.514 4.767c.413-.05.834-.101 1.255-.127zm-7.209 1.987l-2.35-4.176c-.37.193-.74.395-1.102.614l2.35 4.169c.361-.22.723-.421 1.102-.607z" fill="#50E6FF"/><path d="M12.576 9.385l-3.09-3.672c-.329.261-.657.53-.969.809l3.09 3.663c.312-.278.64-.547.97-.8z" fill="#0078D4"/></svg>