<svg xmlns="http://www.w3.org/2000/svg" viewBox="0 0 96 96"><path d="M83.714 79.933c7.052-7.9 11.546-18.173 12.135-29.457h-9.83a37.797 37.797 0 01-9.29 22.467l6.985 6.99z" fill="#0078D4"/><path d="M12.32 15.764A47.876 47.876 0 000 45.406h10.267A37.887 37.887 0 0119.54 22.99l-7.22-7.226z" fill="#50E6FF"/><path d="M15.938 83.756c7.944 7.107 18.261 11.62 29.622 12.177V85.86c-8.567-.573-16.342-3.992-22.418-9.314l-7.204 7.209zM0 50.476c.59 11.385 5.133 21.71 12.286 29.642l7.22-7.225a37.957 37.957 0 01-9.24-22.417H0z" fill="#0078D4"/><path d="M83.68 15.95l-6.984 6.989a37.668 37.668 0 019.307 22.467h9.829c-.59-11.3-5.083-21.558-12.152-29.456z" fill="#50E6FF"/><path d="M50.625 95.899c11.31-.623 21.594-5.187 29.47-12.312l-7.001-7.006a37.821 37.821 0 01-22.486 9.28V95.9h.017z" fill="#0078D4"/><path d="M50.626.017v10.038A37.838 37.838 0 0173.077 19.3l7.002-7.006C72.184 5.187 61.919.64 50.626.017zM45.56 0C34.2.556 23.899 5.053 15.955 12.143l7.203 7.209a37.863 37.863 0 0122.385-9.297V0h.017zm28.022 51.436c.017-.118.05-.236.067-.337.135-.707.202-1.432.202-2.173 0-6.383-5.167-11.553-11.545-11.553-.892 0-1.75.1-2.576.303-2.642-4.16-7.27-6.906-12.555-6.906-8.196 0-14.844 6.653-14.844 14.855 0 .202 0 .404.017.607a7.404 7.404 0 00-2.39-.388 7.3 7.3 0 00-7.305 7.31c0 3.79 2.895 6.905 6.581 7.275l33.072.068c4.342 0 8.112-2.392 10.098-5.929.05-.1.118-.202.168-.303.303-.64.74-1.6 1.01-2.83z" fill="#50E6FF"/></svg>