<svg xmlns="http://www.w3.org/2000/svg" viewBox="0 0 48 49"><path d="M35.328 10.836C34.764 5.079 29.894.583 23.971.583c-6.26 0-11.35 5.034-11.409 11.27v8.269l5.073.017v-8.32l-.009-.008a6.323 6.323 0 016.32-6.127 6.317 6.317 0 016.319 6.127v8.32h5.038v-8.303c.017-.396.042-.807.025-.992z" fill="#50E6FF"/><path d="M40.384 48.494H7.558V18.232h32.826v30.262z" fill="#0078D4"/><path d="M32.8 33.66h-.092c.05-.26.084-.529.084-.806a4.08 4.08 0 00-4.086-4.076c-.809 0-1.559.236-2.19.63a6.531 6.531 0 00-5.983-3.89c-3.606 0-6.538 2.916-6.538 6.52 0 .589.076 1.16.227 1.698a2.445 2.445 0 00.607 4.816h5.392c.102.008.203.008.304.008.1 0 .202 0 .303-.008h11.964a2.446 2.446 0 002.452-2.446 2.438 2.438 0 00-2.443-2.445z" fill="#fff"/></svg>