<svg xmlns="http://www.w3.org/2000/svg" viewBox="0 0 48 49"><path d="M43.039 7.58h-9.915v3.96h7.112l-14.499 14.5 2.803 2.802 14.499-14.49v7.111h3.96V7.58h-3.96z" fill="#0078D4"/><path d="M42.116 31.32c0-5.378-4.358-9.744-9.745-9.744a9.03 9.03 0 00-1.49.114 9.772 9.772 0 00-9.283-6.707c-5.168 0-9.404 4.01-9.76 9.088a8.84 8.84 0 00-2.187-.275C4.88 23.788 1 27.668 1 32.455A8.648 8.648 0 008.298 41l.51.065c.284.032 23.653-.016 23.653-.016 5.346-.033 9.655-4.374 9.655-9.728z" fill="#50E6FF"/><path d="M32.347 27.522v-2.446h-19.44v2.446h19.44zm0 4.9v-2.446h-19.44v2.446h19.44zm0 4.715V34.69h-19.44v2.447h19.44z" fill="#0078D4"/></svg>