<svg xmlns="http://www.w3.org/2000/svg" viewBox="0 0 48 49"><g clip-path="url(#cloud09:clip0-5a5c35d6)"><path d="M47.74 32.638c.024-.11.041-.21.067-.32.126-.657.193-1.34.193-2.03 0-5.962-4.839-10.787-10.78-10.787-.833 0-1.649.092-2.406.278a13.86 13.86 0 00-11.731-6.46c-7.666 0-13.868 6.224-13.868 13.879 0 .193 0 .379.008.564a6.83 6.83 0 00-9.055 6.467 6.822 6.822 0 006.152 6.796l30.9.059c4.065 0 7.59-2.24 9.425-5.55.05-.092.101-.185.152-.286.278-.564.69-1.457.942-2.61z" fill="#0078D4"/><path d="M37.986 13.303h9.921v-9.92h-9.921v9.92zm-2.676 2.399H17.647v5.12h9.02L12.06 35.432l3.602 3.605 14.609-14.61v9.018h5.124V15.702h-.084z" fill="#50E6FF"/></g><defs><clipPath id="cloud09:clip0-5a5c35d6"><path fill="#fff" d="M0 .58h48v48H0z"/></clipPath></defs></svg>