<svg xmlns="http://www.w3.org/2000/svg" viewBox="0 0 97 56"><path d="M95.495 38.75c.05-.219.084-.42.134-.64a21.58 21.58 0 00.388-4.077c0-11.962-9.705-21.633-21.633-21.633a20.63 20.63 0 00-4.835.556C64.595 5.172 55.902 0 45.995 0 30.613 0 18.162 12.484 18.162 27.833c0 .387 0 .758.017 1.129a13.94 13.94 0 00-4.465-.742C6.133 28.22 0 34.37 0 41.935c0 7.11 5.408 12.956 12.35 13.63l62.017.118c8.155 0 15.23-4.499 18.92-11.12.102-.185.203-.37.304-.573.573-1.146 1.398-2.931 1.904-5.24z" fill="#0078D4"/><path d="M65.842 29.67v-3.724h-3.858a13.901 13.901 0 00-2.746-6.621l2.729-2.73-2.645-2.645-2.713 2.73a13.972 13.972 0 00-6.621-2.747v-3.858h-3.74v3.858a13.902 13.902 0 00-6.621 2.747l-2.73-2.73-2.645 2.645 2.73 2.73a13.971 13.971 0 00-2.747 6.621h-3.858v3.74h3.858a13.902 13.902 0 002.746 6.622l-2.729 2.729 2.645 2.645 2.73-2.73a13.972 13.972 0 006.62 2.747v3.858h3.741V41.7a13.901 13.901 0 006.621-2.746l2.73 2.73 2.645-2.646-2.73-2.73a13.972 13.972 0 002.747-6.62h3.841v-.018zm-17.724 5.997c-4.347 0-7.868-3.538-7.868-7.868s3.538-7.868 7.868-7.868c4.347 0 7.868 3.538 7.868 7.868s-3.538 7.868-7.868 7.868zm36.543.809v-1.668h-1.718a6.298 6.298 0 00-1.23-2.965l1.23-1.23-1.18-1.18-1.23 1.23a6.298 6.298 0 00-2.965-1.23v-1.718H75.9v1.718a6.298 6.298 0 00-2.965 1.23l-1.23-1.23-1.18 1.18 1.23 1.23a6.297 6.297 0 00-1.23 2.965h-1.718v1.668h1.719a6.297 6.297 0 001.23 2.965l-1.23 1.23 1.18 1.18 1.23-1.23a6.296 6.296 0 002.964 1.23v1.718h1.668V41.85a6.296 6.296 0 002.966-1.23l1.23 1.23 1.179-1.179-1.23-1.23a6.298 6.298 0 001.23-2.965h1.718zm-7.935 2.173a3.013 3.013 0 01-3.016-3.016 3.013 3.013 0 013.016-3.015 3.013 3.013 0 013.016 3.015 3.023 3.023 0 01-3.016 3.016z" fill="#50E6FF"/></svg>