<svg xmlns="http://www.w3.org/2000/svg" viewBox="0 0 48 49"><path d="M10.116 48.074h27.768v-48H10.116v48z" fill="#0078D4"/><path d="M15.168 10h17.664V4.983H15.168v5.019zm0 32.862h17.664v-5.026H15.168v5.026zm0-7.527h17.664V30.31H15.168v5.026z" fill="#50E6FF"/><path d="M30.677 21.038h-.606a3.31 3.31 0 00-4.084-3.216 4.965 4.965 0 00-4.193-2.299 4.966 4.966 0 00-4.967 4.968c0 .202.016.404.033.606a2.15 2.15 0 00-1.692 2.105v.11a2.16 2.16 0 002.155 2.155h13.354a2.16 2.16 0 002.155-2.155v-.11a2.156 2.156 0 00-2.155-2.164z" fill="#fff"/></svg>