<svg xmlns="http://www.w3.org/2000/svg" viewBox="0 0 206 100"><path fill-rule="evenodd" clip-rule="evenodd" d="M59.371 36.218h3.235c-.78-10.433-9.957-18.674-21.194-18.674-9.813 0-18.05 6.289-20.506 14.83a15.928 15.928 0 00-5.686-1.047C6.814 31.327 0 37.767 0 45.712c0 7.944 6.814 14.384 15.22 14.384h43.447V36.884c0-.37.315-.666.704-.666z" fill-opacity=".2"/><path fill-rule="evenodd" clip-rule="evenodd" d="M187.291 96.164h-75.122c-9.486 0-17.547-5.79-20.489-13.823h33.347c.39 0 .705-.298.705-.665V47.389c6.021-7.848 15.751-12.753 26.317-12.753 17.947 0 32.55 13.801 32.55 30.73l-.061 3.216 2.48-.1c.09-.006.181-.013.273-.013 8.079 0 14.651 6.211 14.651 13.847 0 7.636-6.572 13.848-14.651 13.848zM91.822 48.692c3.514 0 6.363 2.693 6.363 6.012 0 2.161-1.216 4.04-3.026 5.1l1.87 9.386H86.472l1.883-9.453c-1.74-1.073-2.896-2.922-2.896-5.033 0-3.32 2.85-6.012 6.362-6.012zm-15.79-26.176c0-8.668 7.462-15.724 16.637-15.724s16.642 7.056 16.642 15.724v13.702H76.03V22.516zm112.617 42.163c-.407-18.748-16.67-33.88-36.6-33.88-10.12 0-19.552 4.006-26.317 10.638v-4.553c0-.369-.315-.666-.705-.666h-8.531V22.516C116.496 10.1 105.81 0 92.669 0 79.534 0 68.847 10.1 68.847 22.516v13.702H59.37c-.388 0-.703.297-.703.666v44.792c0 .367.315.665.703.665h28.055C90.507 92.52 100.423 100 112.169 100h75.122c10.317 0 18.71-7.933 18.71-17.684 0-9.318-7.667-16.977-17.352-17.637z"/></svg>