<svg xmlns="http://www.w3.org/2000/svg" viewBox="0 0 48 49"><path d="M46.727 23.054a10.27 10.27 0 00-10.13-10.4 9.907 9.907 0 00-2.74.39 13.08 13.08 0 00-24.29 8 6.4 6.4 0 10-2.32 12.42h29.88a10.28 10.28 0 009.6-10.41z" fill="#0078D4"/><path d="M15.468 27.806h-.83v-8.84h4.15v.73h-3.32v3.23h3.14v.74h-3.14v4.14zm4.889 0v-8.84h.82v3.96h4.52v-3.96h.83v8.84h-.83v-4.14h-4.52v4.14h-.82zm9.12-8.84h-.83v8.85h.83v-8.85zm6.54 6.081c-.55-1.75-1.36-1.75-1.36-1.75 1.93 0 1.84-2.12 1.84-2.12a2.11 2.11 0 00-2.14-2.21h-2.7v8.84h.83v-4.14h1.29c.64 0 1 .92 1 .92l1.39 3.22h.92a15.002 15.002 0 01-1.07-2.76zm-2.21-2.21h-1.29v-3.14h1.47c1.75 0 1.57 1.48 1.57 1.48a1.549 1.549 0 01-1.75 1.66z" fill="#fff" stroke="#fff" stroke-width=".41" stroke-miterlimit="10"/><path d="M23.947 42.575c11.438 0 20.71-.743 20.71-1.66 0-.916-9.272-1.66-20.71-1.66s-20.71.744-20.71 1.66c0 .917 9.272 1.66 20.71 1.66z" fill="#50E6FF"/></svg>