<svg xmlns="http://www.w3.org/2000/svg" viewBox="0 0 49 49"><path d="M37.277 10.678c-.823 0-1.612.092-2.376.283-2.433-3.845-6.702-6.383-11.586-6.383-7.566 0-13.696 6.15-13.696 13.732 0 .183 0 .375.017.558a6.83 6.83 0 00-2.21-.358c-3.72.008-6.735 3.03-6.735 6.766a6.766 6.766 0 006.071 6.725l16.096.033v-6.85c0-6.15 4.975-11.143 11.121-11.143 6.147 0 11.122 4.985 11.122 11.144v3.454a11.017 11.017 0 001.495-2.056c.05-.092.108-.183.157-.283.283-.59.681-1.481.93-2.613.017-.108.05-.217.059-.308.124-.658.183-1.324.183-2.006.008-5.91-4.76-10.695-10.648-10.695z" fill="#50e6ff"/><path d="M42.775 24.81c0-4.802-3.92-8.738-8.713-8.738-4.302 0-7.89 3.17-8.58 7.299h3.572a5.25 5.25 0 011.329-2.256 5.164 5.164 0 013.687-1.531 5.227 5.227 0 015.216 5.227v2.105H25.35v17.511h17.409V28.04c.017-1.582.017-2.863.017-3.23z" fill="#0078d4"/><path d="M34.02 37.819a2.141 2.141 0 002.135-2.14 2.136 2.136 0 00-2.135-2.138 2.136 2.136 0 00-2.134 2.139c0 1.182.955 2.139 2.134 2.139z" fill="#50e6ff"/></svg>