<svg xmlns="http://www.w3.org/2000/svg" viewBox="0 0 79 67"><g fill="none" fill-rule="evenodd"><path d="M67.008 23.764c.293-1.353.437-2.642.437-3.924C67.445 10.002 59.348 2 49.393 2c-6.947 0-13.2 3.893-16.216 10a13.06 13.06 0 00-9.17-3.745c-7.145 0-12.958 5.753-12.958 12.823 0 .959.108 1.927.327 2.922C5.492 26.372 2 31.294 2 37.28c0 8.072 6.664 14.395 15.17 14.395h.968C18.303 59.051 24.408 65 31.884 65c5.033 0 9.59-2.686 11.994-6.95a10.037 10.037 0 006.54 2.417c5.13 0 9.374-3.846 9.976-8.792h1.441C70.34 51.675 77 45.352 77 37.28c0-6.234-3.816-11.364-9.992-13.516" stroke="#00ABEC" stroke-width="4" stroke-linecap="round"/><path d="M60.901 31.067L62 28.466l-.318-.275-2.398-2.084.012-2.106L62 21.584l-1.064-2.617-.417.029-3.171.226-1.48-1.501.2-3.624-2.6-1.097-.274.316-2.085 2.402-2.108-.015-2.419-2.702-2.615 1.062.03.42.224 3.17-1.499 1.478-3.623-.201L38 21.53l.318.275 2.4 2.085-.014 2.108-2.701 2.419 1.061 2.615.42-.032 3.168-.222 1.48 1.5-.2 3.621 2.6 1.099.275-.318 2.084-2.4 2.108.015L53.418 37l2.615-1.063-.03-.42-.224-3.17 1.502-1.481 3.62.201zm-13.147-.745a5.775 5.775 0 01-3.078-7.568 5.778 5.778 0 1110.648 4.492 5.777 5.777 0 01-7.57 3.076zM45 43.873v-2.847l-.4-.13-3.046-.996-.81-1.962 1.564-3.306-2.01-2.01-.377.19-2.857 1.447-1.963-.813-1.23-3.443L31.027 30l-.131.405-.997 3.042-1.962.81-3.306-1.562-2.01 2.011.19.378 1.447 2.857-.812 1.959-3.444 1.231L20 43.975l.402.133 3.045.994.811 1.964-1.564 3.303 2.01 2.015.377-.192 2.86-1.45 1.958.814 1.231 3.442 2.845.002.13-.4.998-3.046 1.963-.81 3.303 1.564 2.014-2.01-.191-.377-1.45-2.856.815-1.963L45 43.873zm-12.504 4.452a5.824 5.824 0 11.009-11.646 5.824 5.824 0 11-.009 11.646z" fill="#00ABEC"/><path d="M53.685 26.555a3.998 3.998 0 01-5.24 2.129 3.999 3.999 0 115.24-2.129M36.5 42.502a4 4 0 11-4-4.002 4 4 0 014 4.002" fill-opacity=".7" fill="#00ABEC"/></g></svg>