<svg xmlns="http://www.w3.org/2000/svg" viewBox="0 0 48 48"><path d="M0 43h48V10H0v33z" fill="#0078D4"/><path d="M0 10.002h47.983V5H0v5.002z" fill="#50E6FF"/><path d="M7.478 8.821a1.221 1.221 0 100-2.442 1.221 1.221 0 000 2.442zm-3.79 0a1.221 1.221 0 100-2.442 1.221 1.221 0 000 2.442zm7.663 0a1.221 1.221 0 100-2.442 1.221 1.221 0 000 2.442z" fill="#0078D4"/><path d="M26.518 23.895h-5.112v5.111h5.112v-5.111z" fill="#fff"/><path d="M31.63 18.836l-1.802 1.802 5.835 5.836-5.903 5.903 1.802 1.802 7.706-7.705-7.638-7.638zM16.126 34.18l1.81-1.803-5.835-5.836 5.903-5.903-1.802-1.802-7.714 7.705 7.638 7.638z" fill="#50E6FF"/></svg>