<svg xmlns="http://www.w3.org/2000/svg" viewBox="0 0 48 49"><path d="M47.992 10.054H.026v30.46h47.966v-30.46z" fill="#0078D4"/><path d="M48 5.145H.01v5.044h47.992V5.145z" fill="#50E6FF"/><path d="M12.577 30.067a5.899 5.899 0 005.894-5.903 5.899 5.899 0 00-5.894-5.903 5.899 5.899 0 00-5.893 5.903 5.898 5.898 0 005.893 5.903z" fill="#0078D4"/><path d="M21.398 25.1v-1.87h-1.917a7.033 7.033 0 00-1.362-3.3l1.354-1.356-1.312-1.314-1.354 1.356a6.925 6.925 0 00-3.295-1.364v-1.92h-1.858v1.92a7.01 7.01 0 00-3.296 1.364L7.004 17.26l-1.312 1.314 1.354 1.355a6.877 6.877 0 00-1.37 3.302H3.75v1.86h1.917a7.033 7.033 0 001.362 3.302l-1.353 1.355 1.311 1.314 1.354-1.356a6.925 6.925 0 003.296 1.364V33h1.858v-1.92a7.01 7.01 0 003.296-1.364l1.353 1.355 1.312-1.313-1.354-1.356a6.948 6.948 0 001.362-3.301h1.934zm-13.923-.935a5.06 5.06 0 011.496-3.612 5.058 5.058 0 013.607-1.5 5.04 5.04 0 013.607 1.5 5.074 5.074 0 011.497 3.612 5.06 5.06 0 01-1.497 3.613 5.058 5.058 0 01-3.607 1.499 5.044 5.044 0 01-3.607-1.5 5.06 5.06 0 01-1.496-3.612z" fill="#50E6FF"/><path d="M13.184 22.862h-.101l1.799-4.362h-2.884l-1.959 5.92h2.556l-1.993 5.246 5.087-6.804h-2.505zm29.705-7.672H25.308v2.51h17.58v-2.51zm-2.472 7.61h-15.11v2.51h15.11V22.8zm-2.573 7.582H25.308v2.51h12.536v-2.51z" fill="#50E6FF"/></svg>