<svg xmlns="http://www.w3.org/2000/svg" viewBox="0 0 48 49"><path d="M42.934 5.139H15.256v15.105h2.432V7.68h22.713v22.662H27.87v.076h.017v2.474h15.054V5.139h-.008z" fill="#50E6FF"/><path d="M5.065 25.346v17.672H22.73V25.346H5.065zm15.3 2.432v12.665H7.496V27.778h12.867z" fill="#50E6FF"/><path d="M47.983 10.198h.009v-5.05h-2.509V2.583h-2.549V.074h-5.066v2.517h-2.474V.073H30.32V2.59h-2.474V.073H22.72V2.59h-2.474V.073h-5.091V2.59h-2.533v2.566h-2.474v5.05h2.474v2.473h-2.474v5.1h2.474v2.465h-2.524v2.609H7.573v-2.6H5.066v2.6H2.398v2.483H0v2.524h2.398v2.525H0v2.541h2.398v2.525H0v2.524h2.398V40.5H0v2.49h2.398v2.685h2.668v2.382h2.508v-2.381h2.524v2.381h2.542v-2.381h2.524v2.381h2.525v-2.381h2.524v2.381h2.533v-2.381h2.533V43h2.592v-2.516h-2.592v-2.525h2.676v-.017h.009v-2.474h-.009v-.025h2.365v2.533h5.074v-2.533h2.474v2.533h5.075v-2.533h2.55v-2.609H48V27.82h-2.508v-2.474H48v-5.1h-2.508v-2.474H48v-5.1h-2.508v-2.473h2.491zm-32.726 10.09v2.549h-2.575v-2.575h2.575v.025zm10.022 15.138v-2.474h2.609v2.474h-2.609zm0-5.141V27.71h2.6v2.575h-2.6zm2.592-4.982h-2.592v-2.466h-2.55v-2.584h5.167v5.041h-.025v.009zm-10.174-5.04h2.634v2.566h-2.634v-2.567zM5.066 43.024v-17.68h17.663v17.672H5.066v.008zm37.877-10.19v.05H27.888v-2.466h-.017v-.076H40.41V7.682H17.689v12.555h-2.424V5.14h27.686v27.694h-.008z" fill="#0078D4"/><path d="M20.355 27.775H7.497V40.44h12.858V27.775z" fill="#0078D4"/></svg>