<svg xmlns="http://www.w3.org/2000/svg" viewBox="0 0 38.5 50"><path d="M19.262 49.975l-1.239-.022C6.309 49.715 0 45.977 0 42.485V7.292a.902.902 0 111.806.001v35.192c0 2.644 7.033 5.625 17.124 5.675l.898.007c9.828-.109 16.627-3.043 16.627-5.682V7.292a.903.903 0 111.806 0v35.192c0 2.167-2.088 4.122-5.879 5.505-3.511 1.281-8.171 1.986-13.12 1.986z"/><path d="M19.261 14.965c-4.955 0-9.626-.704-13.154-1.981C2.292 11.602.191 9.648.191 7.483s2.101-4.12 5.916-5.501C9.635.704 14.306 0 19.261 0s9.626.704 13.154 1.981c3.815 1.382 5.917 3.336 5.917 5.501s-2.101 4.12-5.917 5.501c-3.527 1.279-8.199 1.982-13.154 1.982zm0-13.159c-10.174 0-17.264 2.992-17.264 5.677 0 2.685 7.09 5.677 17.264 5.677s17.265-2.992 17.265-5.677c0-2.686-7.09-5.677-17.265-5.677zm0 24.766c-4.955 0-9.626-.704-13.154-1.981C2.292 23.209.191 21.255.191 19.09a.903.903 0 111.806 0c0 2.685 7.09 5.677 17.264 5.677s17.265-2.992 17.265-5.677a.903.903 0 111.806 0c0 2.166-2.101 4.12-5.917 5.501-3.527 1.278-8.199 1.981-13.154 1.981zm0 23.428c-4.955 0-9.626-.704-13.154-1.981C2.292 46.637.191 44.683.191 42.518a.903.903 0 111.806 0c0 2.685 7.09 5.677 17.264 5.677s17.265-2.992 17.265-5.677a.903.903 0 111.806 0c0 2.166-2.101 4.12-5.917 5.501C28.888 49.296 24.216 50 19.261 50z"/><path d="M19.261 14.859c-4.955 0-9.626-.704-13.154-1.981C2.292 11.496.191 9.543.191 7.377a.903.903 0 111.806 0c0 2.685 7.09 5.677 17.264 5.677s17.265-2.992 17.265-5.677a.903.903 0 111.806 0c0 2.166-2.101 4.12-5.917 5.501-3.527 1.277-8.199 1.981-13.154 1.981zm0 23.427c-4.955 0-9.626-.704-13.154-1.981C2.292 34.923.191 32.969.191 30.803a.903.903 0 111.806 0c0 2.685 7.09 5.677 17.264 5.677s17.265-2.992 17.265-5.677a.903.903 0 111.806 0c0 2.166-2.101 4.12-5.917 5.502-3.527 1.278-8.199 1.981-13.154 1.981z"/><path d="M19.261 12.857c-7.631 0-15.356-1.717-15.356-5s7.725-5 15.356-5 15.356 1.718 15.356 5-7.725 5-15.356 5zm0-8.278c-3.775 0-7.312.418-9.96 1.176-2.834.812-3.59 1.703-3.59 2.103s.756 1.291 3.59 2.102c2.648.758 6.185 1.176 9.96 1.176 3.775 0 7.312-.418 9.96-1.176 2.834-.812 3.59-1.703 3.59-2.102s-.756-1.291-3.59-2.103c-2.647-.759-6.185-1.176-9.96-1.176z"/><path d="M30.686 10l-.326-.096c-2.665-.783-6.711-1.232-11.098-1.232s-8.433.449-11.098 1.232L7.837 10l-.327-.096c-2.392-.703-3.605-1.593-3.605-2.645 0-2.607 7.725-3.97 15.356-3.97s15.356 1.364 15.356 3.97c0 1.053-1.213 1.943-3.605 2.645l-.326.096zM19.262 7.305c4.424 0 8.554.446 11.412 1.229 1.571-.5 2.138-.993 2.138-1.275 0-.317-.756-1.025-3.59-1.669-2.648-.602-6.185-.934-9.96-.934s-7.312.332-9.96.934c-2.834.644-3.59 1.353-3.59 1.669 0 .282.567.775 2.138 1.275 2.858-.783 6.987-1.229 11.412-1.229z"/></svg>