<svg xmlns="http://www.w3.org/2000/svg" viewBox="0 0 16 14"><path d="M14.5 5h.6l.5.3.3.5a1.3 1.3 0 01.1.6.9.9 0 01-.1.5l-2 6a.8.8 0 01-.2.4l-.3.3-.4.2H8.5a8.6 8.6 0 01-2.7-.5l-1.1-.4H0V6h3.3l.9-.2.8-.5L9.9.4l.4-.3h.9l.4.3.3.4a.7.7 0 01.1.5 4.9 4.9 0 01-.1 1.2l-.5 1.1a6.4 6.4 0 00-.2.7c-.1.2-.1.5-.2.7zm-2 8h.3l.2-.2a4.3 4.3 0 00.1-.5l.3-.7.3-1a7.6 7.6 0 01.4-1.1l.3-1 .3-.9a2.5 2.5 0 00.2-.7v-.4a.6.6 0 00-.1-.4H10v-.9c0-.2.1-.4.1-.7a1.4 1.4 0 01.2-.6.9.9 0 01.3-.7l.3-1a2.8 2.8 0 00.1-.9c0-.1 0-.2-.1-.2a.1.1 0 00-.1-.1h-.2L5.7 6l-.5.4-.6.3a3.1 3.1 0 01-1.3.3H1v5h2.5a8.6 8.6 0 012.7.5 5.9 5.9 0 002.3.5z"/></svg>