<svg xmlns="http://www.w3.org/2000/svg" viewBox="0 0 16 14"><path d="M11.8 0a4.5 4.5 0 011.6.3l1.4.9.9 1.4a4.7 4.7 0 01.3 1.7 4.5 4.5 0 01-.3 1.6 4.2 4.2 0 01-.9 1.4L8 14 1.2 7.3a4.2 4.2 0 01-.9-1.4A4.5 4.5 0 010 4.3a4.7 4.7 0 01.3-1.7l.9-1.4L2.6.3A4.7 4.7 0 014.3 0h1.1l.9.5a2.4 2.4 0 01.9.6L8 2l.8-.8a2.4 2.4 0 01.9-.6l.9-.5zM14 6.5a2.5 2.5 0 00.8-1 5 5 0 00.2-1.2 2.8 2.8 0 00-.3-1.3 2.4 2.4 0 00-.6-1 2.6 2.6 0 00-1.1-.7L11.8 1l-1.2.2-1 .6-.8.7-.8.9-.8-.8-.9-.8-.9-.6L4.3 1a2.8 2.8 0 00-1.3.3 3.9 3.9 0 00-1.1.6A3.9 3.9 0 001.3 3 2.8 2.8 0 001 4.3a5 5 0 00.2 1.2 2.5 2.5 0 00.8 1l6 6.1z"/></svg>