<svg xmlns="http://www.w3.org/2000/svg" viewBox="0 0 15.7 15.7"><path d="M10 9.2l-2.1 2.2.7.7-1.8 1.7a2.8 2.8 0 01-1.1.8 3.1 3.1 0 01-1.3.3l-1.2-.2-.9-.5-1.6 1.5L0 15l1.5-1.6a4.1 4.1 0 01-.5-.9 4.5 4.5 0 01-.1-1.1 3.2 3.2 0 01.2-1.4 2.8 2.8 0 01.8-1.1l1.7-1.8.8.7 2.1-2.1.7.7-2.1 2.1 2.1 2.1 2.1-2.1zm-5.6 4.7l.9-.2a2.4 2.4 0 00.8-.6l1.1-1-3.6-3.6-1 1.1-.6.8a3.1 3.1 0 00-.1 1 2.8 2.8 0 00.1.9l.6.8.8.6zm9.8-11.6a4.1 4.1 0 01.5.9 5 5 0 01.2 1.2 3.1 3.1 0 01-.3 1.3 2.8 2.8 0 01-.8 1.1l-1.7 1.8-5-5 1.8-1.7a2.8 2.8 0 011.1-.8 3.2 3.2 0 011.4-.2h1.1l.9.5L15 0l.7.7zm-1.1 3.8a2.4 2.4 0 00.6-.8 2.9 2.9 0 00.2-.9 3 3 0 00-.2-1l-.6-.8-.8-.5a1.5 1.5 0 00-.9-.2h-1l-.8.6-1.1 1 3.6 3.6z"/></svg>