<svg xmlns="http://www.w3.org/2000/svg" viewBox="0 0 16 16"><path d="M15.1 1.7l.3.7a.9.9 0 01.3.6 2.5 2.5 0 01.2.7 2.2 2.2 0 01.1.8 5 5 0 01-.2 1.2 4.9 4.9 0 01-.4 1.1l-.7.9-.9.7-1.1.4-1.2.2h-.7l-6.3 6.2-.9.6-1 .2-1-.2a1.6 1.6 0 01-.8-.6 1.6 1.6 0 01-.6-.8 3.6 3.6 0 01-.2-1 3 3 0 01.2-1 2.4 2.4 0 01.6-.9l6.3-6.3a.4.4 0 01-.1-.3v-.4a5 5 0 01.2-1.2 4.9 4.9 0 01.4-1.1l.7-.9.9-.7 1.1-.4 1.2-.2h.8l.7.2a.9.9 0 01.6.3l.7.3L11.2 4l.8.8zM11.5 8a3.5 3.5 0 001.4-.3A4.1 4.1 0 0014 7a4.1 4.1 0 00.7-1.1 3.5 3.5 0 00.3-1.4 4.3 4.3 0 00-.2-1.1L12 6.2 9.8 4l2.8-2.8-1.1-.2a3.5 3.5 0 00-1.4.3A4.1 4.1 0 009 2a4.1 4.1 0 00-.7 1.1A3.5 3.5 0 008 4.5V5c.1.2.1.4.2.5l-6.7 6.7-.4.6a1.3 1.3 0 00-.1.6 1.3 1.3 0 00.1.6 1 1 0 00.4.5 1 1 0 00.5.4h1.2l.6-.4 6.7-6.7.5.2z"/></svg>