<svg xmlns="http://www.w3.org/2000/svg" viewBox="0 0 16 16"><path d="M16 13v1h-2v2h-1v-2h-2v-1h2v-2h1v2h2zm-5.4-2h1c0-.2-.1-.3-.1-.5a6 6 0 00-.9-1.3L9.5 8.1l-1.4-.7a2.7 2.7 0 00.8-.7l.6-.8a3.6 3.6 0 00.4-.9 3.4 3.4 0 00.1-1 4.1 4.1 0 00-.3-1.6 3.4 3.4 0 00-.9-1.2A3.4 3.4 0 007.6.3 4.1 4.1 0 006 0a4.1 4.1 0 00-1.6.3 3.4 3.4 0 00-1.2.9 3.4 3.4 0 00-.9 1.2A4.1 4.1 0 002 4a3.8 3.8 0 00.5 1.9 4 4 0 001.4 1.5 5.1 5.1 0 00-1.6.9 4.9 4.9 0 00-1.2 1.3 4.8 4.8 0 00-.8 1.6A5.7 5.7 0 000 13h1a5.1 5.1 0 01.2-1.3 3.3 3.3 0 01.5-1.2 3.9 3.9 0 01.8-1 3.9 3.9 0 011-.8 3.3 3.3 0 011.2-.5L6 8a4.7 4.7 0 011.7.3l1.5.8a6.9 6.9 0 011.1 1.3zM7.2 6.8L6 7l-1.2-.2-.9-.7-.7-.9A5 5 0 013 4a5 5 0 01.2-1.2l.7-.9.9-.7L6 1l1.2.2.9.7.7.9A5 5 0 019 4a5 5 0 01-.2 1.2l-.7.9z"/></svg>