<svg xmlns="http://www.w3.org/2000/svg" viewBox="0 0 16 16"><path d="M16 2.62a2.7 2.7 0 01-.2 1 2.58 2.58 0 01-.57.86L5 14.77 0 16l1.23-4.95L11.52.77a2.58 2.58 0 01.86-.57 2.7 2.7 0 011-.2 2.52 2.52 0 011 .21 2.48 2.48 0 01.83.56 2.64 2.64 0 01.56.83A2.52 2.52 0 0116 2.62zm-14.62 12L4 14a3 3 0 00-.26-.68 3 3 0 00-.42-.57 3 3 0 00-.57-.42 3 3 0 00-.75-.28zm1.17-3.47a3.57 3.57 0 012.29 2.29L13.29 5 11 2.71zM14 4.29l.38-.37a3.73 3.73 0 00.32-.36 2.1 2.1 0 00.22-.42 1.56 1.56 0 00.08-.51 1.45 1.45 0 00-.13-.63 1.54 1.54 0 00-.35-.52 1.54 1.54 0 00-.52-.35 1.44 1.44 0 00-.62-.13 1.58 1.58 0 00-.52.08 2.1 2.1 0 00-.42.22 2.24 2.24 0 00-.36.33l-.37.37z"/></svg>