<svg xmlns="http://www.w3.org/2000/svg" viewBox="0 0 48 48"><path d="M31.01 37.906H18.085c1.557 5.495-.531 6.278-9.675 6.278v2.874h31.085v-2.874c-9.144.009-10.036-.775-8.487-6.278z" fill="#50E6FF"/><path d="M8.403 47.065h31.093v-2.874H8.403v2.874zM48 2.52H0v35.46h48V2.52z" fill="#0078D4"/><path d="M45.416 5.055H2.543v30.328h42.873V5.055z" fill="#50E6FF"/><path d="M15.062 19.281H10.12v11.031h4.942v-11.03zm7.688-4.113h-5.06v15.143h5.06V15.168zm7.578-5.128h-5.06v20.274h5.06V10.04zm7.56 5.179h-5.11v15.1h5.11v-15.1z" fill="#0078D4"/></svg>