<svg xmlns="http://www.w3.org/2000/svg" viewBox="0 0 18 18"><defs><linearGradient id="a" x1="8.91" y1="12.07" x2="8.91" y2=".12" gradientUnits="userSpaceOnUse"><stop offset="0" stop-color="#0078d4"/><stop offset=".16" stop-color="#1380da"/><stop offset=".53" stop-color="#3c91e5"/><stop offset=".82" stop-color="#559cec"/><stop offset="1" stop-color="#5ea0ef"/></linearGradient></defs><path d="M17.34 8.33a3.78 3.78 0 00-3.29-3.64A4.77 4.77 0 009.13.12a4.91 4.91 0 00-4.68 3.19 4.53 4.53 0 00-4 4.35 4.59 4.59 0 004.75 4.41h8.1a.64.64 0 00.2 0 3.84 3.84 0 003.84-3.74z" fill="url(#a)"/><path d="M6.27 6.58L8.85 4a.31.31 0 01.44 0l2.59 2.59a.14.14 0 01-.1.24h-1.59a.13.13 0 00-.14.13v3.24a.11.11 0 01-.11.11H8.2a.11.11 0 01-.11-.11V7A.13.13 0 008 6.82H6.36a.14.14 0 01-.09-.24z" fill="#f2f2f2"/><path d="M13.86 11.49a.14.14 0 00-.09-.13l-4.7-1.59h-.13v8.35h.13l4.71-1.88a.13.13 0 00.08-.13z" fill="#a67af4"/><path d="M8.91 9.8l-4.51.83a.14.14 0 00-.12.13V17a.14.14 0 00.11.14l4.52 1a.14.14 0 00.16-.14v-8a.14.14 0 00-.16-.2z" fill="#552f99"/><path fill="#b77af4" opacity=".75" d="M6.82 11.04v5.81l1.57.25v-6.33l-1.57.27zm-1.93.32v5.08l1.37.28v-5.59l-1.37.23z"/></svg>