<svg xmlns="http://www.w3.org/2000/svg" viewBox="0 0 48 49"><path d="M27.377 32.189H21.18c.747 2.635-.255 3.01-4.639 3.01v1.378h14.905V35.2c-4.384.004-4.812-.371-4.07-3.01z" fill="#50E6FF"/><path d="M16.536 36.579h14.91v-1.378h-14.91v1.378zm18.987-21.36H12.507v17.003h23.016V15.219z" fill="#0078D4"/><path d="M34.284 16.436H13.727V30.98h20.557V16.436z" fill="#50E6FF"/><path d="M41.14 40.252a22.977 22.977 0 005.819-14.124h-4.713A18.123 18.123 0 0137.79 36.9l3.35 3.351z" fill="#0078D4"/><path d="M6.907 9.483A22.957 22.957 0 001 23.697h4.923a18.167 18.167 0 014.446-10.75L6.907 9.484z" fill="#50E6FF"/><path d="M8.642 42.085a22.935 22.935 0 0014.203 5.839v-4.83a18.11 18.11 0 01-10.749-4.465l-3.454 3.456zM1 26.128A22.94 22.94 0 006.891 40.34l3.462-3.464a18.2 18.2 0 01-4.43-10.75H1z" fill="#0078D4"/><path d="M41.123 9.57l-3.349 3.351a18.062 18.062 0 014.463 10.773h4.713A22.92 22.92 0 0041.123 9.57z" fill="#50E6FF"/><path d="M25.274 47.906a22.919 22.919 0 0014.13-5.903l-3.357-3.36a18.135 18.135 0 01-10.781 4.45v4.813h.008z" fill="#0078D4"/><path d="M25.275 1.931v4.813a18.143 18.143 0 0110.766 4.434l3.357-3.36a22.966 22.966 0 00-14.123-5.887zm-2.43-.007A22.943 22.943 0 008.649 7.746l3.454 3.457a18.155 18.155 0 0110.734-4.458V1.924h.008z" fill="#50E6FF"/></svg>