<svg xmlns="http://www.w3.org/2000/svg" viewBox="0 0 48 49"><path d="M8.556 9.666v30.343H38.76V9.666H8.556zm26.182 4.2v21.686h-21.99V13.866h21.99z" fill="#50E6FF"/><path d="M8.556 40.01V9.667H38.76V40.01H8.556zM26.011.924V5.38h-4.45V.924h-4.449V5.38H12.75V.924H8.47V5.38H4.02v4.286H0v4.371h4.021v4.372H0v4.371h4.021v4.371H0v4.372h4.021v4.371H0v4.286h4.021v4.629h4.535v4.114h4.278V44.81h4.364v4.114h4.363V44.81h4.364v4.114h4.364V44.81h4.363v4.028h4.364V44.81h4.364v-4.628h4.449v-4.286h-4.45v-4.371H48v-4.286h-4.535v-4.2h4.45v-4.543h-4.45v-4.457h4.45V9.924h-4.45V5.38h-4.363V.924h-4.107v4.371h-4.536V.924h-4.448z" fill="#0078D4"/><path d="M34.738 13.868h-21.99v21.686h21.99V13.868z" fill="#0078D4"/></svg>