<svg xmlns="http://www.w3.org/2000/svg" viewBox="0 0 48 48"><path d="M30.891 36.904h-12.72c1.534 5.406-.523 6.178-9.512 6.178v2.827H39.25v-2.827c-9.006.008-9.885-.763-8.359-6.178z" fill="#50E6FF"/><path d="M8.65 45.918h30.591V43.09H8.651v2.828z" fill="#50E6FF"/><path d="M47.617 2.083H.383v34.895h47.234V2.083z" fill="#0078D4"/><path d="M31.538 9.697h12.207V7.018H31.538v2.679z" fill="#fff"/><path d="M31.538 13.726h12.207V11.04H31.538v2.686zm0 3.89h12.207v-2.679H31.538v2.679zm0 3.972h12.207v-2.679H31.538v2.679zm0 4.105h12.049v-2.679H31.538v2.679zm0 3.88h6.775v-2.678h-6.775v2.678z" fill="#50E6FF"/><path d="M16.42 6.744c-6.8 0-12.305 5.515-12.305 12.306 0 6.792 5.506 12.306 12.306 12.306 6.8 0 12.306-5.514 12.306-12.306-.009-6.8-5.506-12.306-12.306-12.306zm0 18.044a5.75 5.75 0 01-5.746-5.746 5.744 5.744 0 015.747-5.747 5.744 5.744 0 015.746 5.747 5.749 5.749 0 01-5.746 5.746z" fill="#fff"/><path d="M16.404 13.303l-.025-6.567A12.294 12.294 0 006.063 12.39l5.399 3.773a5.719 5.719 0 014.942-2.86z" fill="#50E6FF"/><path d="M10.682 19.05a5.65 5.65 0 01.763-2.86L6.063 12.4l-.024.04a12.199 12.199 0 00-1.924 6.61c0 1.808.39 3.533 1.103 5.075l6.003-2.645a5.548 5.548 0 01-.539-2.43z" fill="#3BCAF4"/></svg>