<svg xmlns="http://www.w3.org/2000/svg" viewBox="0 0 48 48"><path stroke="#fff" d="M.5.5h47v47H.5z"/><path d="M29.625 36.879h.415c-.266 1.019-.432 1.89-.424 2.621.009.91.289 1.656.997 2.19.664.5 1.646.765 2.933.917 1.2.141 2.734.19 4.656.196v1.715H9.87v-1.716c1.932-.007 3.531-.057 4.825-.199 1.393-.153 2.491-.416 3.28-.89.824-.496 1.288-1.207 1.422-2.152.107-.755.002-1.646-.252-2.682h10.48z" fill="#50E6FF" stroke="#fff"/><path d="M38.202 42.803v1.715H9.862v-1.715h28.34z" fill="#50E6FF" stroke="#fff"/><path d="M1.773 35.943V3.482h44.453v32.46H1.773z" fill="#0078D4" stroke="#fff"/><path d="M5.43 19.445c0-5.624 4.559-10.183 10.183-10.183s10.175 4.55 10.182 10.175c0 5.625-4.559 10.19-10.182 10.19-5.624 0-10.183-4.566-10.183-10.182zm4.693-.016c0 3.04 2.468 5.49 5.49 5.49 3.03 0 5.49-2.451 5.49-5.49a5.482 5.482 0 00-5.49-5.49c-3.04 0-5.49 2.46-5.49 5.49z" fill="#fff" stroke="#fff"/><path d="M15.095 13.978a5.464 5.464 0 00-3.924 2.254l-3.858-2.695a10.162 10.162 0 017.762-4.268l.02 4.709z" fill="#50E6FF" stroke="#fff"/><path d="M10.647 17.11a5.433 5.433 0 00-.516 2.327c0 .648.107 1.27.318 1.849l-4.302 1.898a9.98 9.98 0 01-.717-3.747c0-1.848.485-3.57 1.342-5.056l3.875 2.73z" fill="#3BCAF4" stroke="#fff"/><path d="M42.673 11.37v1.475H29.366V11.37h13.307zm0 4.886v1.475H29.366v-1.475h13.307z" fill="#fff" stroke="#fff"/><path d="M34.37 11.37v1.475h-5.004V11.37h5.004zm3.481 4.886v1.475h-8.485v-1.475h8.485z" fill="#50E6FF" stroke="#fff"/><path d="M42.673 20.983v1.467H29.366v-1.467h13.307zm0 4.814v1.348H29.366v-1.348h13.307z" fill="#fff" stroke="#fff"/><path d="M34.37 20.983v1.467h-5.004v-1.467h5.004zm3.481 4.814v1.348h-8.485v-1.348h8.485z" fill="#50E6FF" stroke="#fff"/></svg>