<svg xmlns="http://www.w3.org/2000/svg" viewBox="0 0 49 49"><path d="M25.523 30.54h-2.526v13.962h2.526V30.54zm0-27.073h-2.526v15.696h2.526V3.467zM30.02 26.72l-1.264 2.188 12.777 7.377 1.263-2.188L30.02 26.72zM6.658 13.228l-1.263 2.188 13.243 7.646 1.264-2.188-13.244-7.646zm35.027.106L28.64 20.867l1.263 2.188 13.046-7.533-1.263-2.188zM18.55 26.682L5.174 34.405l1.263 2.187 13.375-7.722-1.264-2.188z" fill="#50E6FF"/><path d="M24.26 20.46l3.797 2.19v4.379l-3.797 2.198-3.79-2.19v-4.379l3.79-2.198zm0-2.913l-1.264.732-3.789 2.19-1.263.732v7.293l1.263.733 3.798 2.19 1.263.732 1.263-.733 3.798-2.19 1.263-.732v-7.293l-1.263-.732-3.806-2.19-1.263-.732zm-3.79 27.545v-.06a3.754 3.754 0 013.756-3.755h.059a3.754 3.754 0 013.756 3.756v.059a3.754 3.754 0 01-3.756 3.756h-.059a3.76 3.76 0 01-3.756-3.756zm0-40.422v-.058A3.763 3.763 0 0124.234.848h.06a3.761 3.761 0 013.755 3.764v.059a3.76 3.76 0 01-3.756 3.756h-.059A3.761 3.761 0 0120.47 4.67zm19.638 33.584l-.05-.034a3.75 3.75 0 01-1.373-5.136l.034-.051a3.75 3.75 0 015.136-1.373l.051.034a3.75 3.75 0 011.373 5.137l-.034.05a3.768 3.768 0 01-5.137 1.373zM6.617 18.532H6.56a3.754 3.754 0 01-3.756-3.756v-.059a3.754 3.754 0 013.756-3.756h.058a3.754 3.754 0 013.756 3.756v.06a3.749 3.749 0 01-3.756 3.755zm37.273-.522l-.051.034a3.764 3.764 0 01-5.137-1.373l-.034-.05a3.764 3.764 0 011.373-5.137l.05-.034a3.764 3.764 0 015.137 1.373l.034.05a3.764 3.764 0 01-1.373 5.137zM6.617 38.742H6.56a3.754 3.754 0 01-3.756-3.755v-.06a3.754 3.754 0 013.756-3.755h.058a3.754 3.754 0 013.756 3.756v.059a3.749 3.749 0 01-3.756 3.755z" fill="#0078D4"/></svg>