<svg xmlns="http://www.w3.org/2000/svg" id="Layer_1" viewBox="0 0 50 50" version="1.1"><style id="style2">.st1{fill:#959595}.st2{fill:#b3b4b5}</style><path class="st1" d="M43.9 38.725l-29.82 5.558.137-20.502L43.9 29.164zM14.183 5.668L43.9 16.606v10.952l-29.666-6.182" id="path6" fill="#959595" stroke-width="1.332"/><path class="st2" d="M14.234 21.375L6.151 25.05v-14.6l8.03-4.783m28.371 20.626L15.605 20.28V7.186l26.947 9.718zm-14.82-4.695l2.694.722v-8.536l-2.695-.922zm-2.696-9.577l-2.694-.952v9.127l2.694.743zm8.085 11.02l2.657.685.046-8.137-2.703-.883zm-16.169-4.2l2.695.679v-9.316l-2.695-.867zm24.253-1.45l-2.695-.923v7.95l2.695.723zm-25.6 8.572v16.91l26.947-4.832v-8.015zm1.347 14.934V27.884l2.695.33v12.244zm8.084-1.331l-2.694.48V28.544l2.694.385zm2.695-.38v-9.984l2.695.33V38.7zm8.085-1.386l-2.695.448v-8.387l2.695.385zm5.48-.853l-2.786.472v-6.9l2.602.318z" id="path8" fill="#b3b4b5" stroke-width="1.332"/><path class="st1" d="M8.88 21.123l-1.348.771V11.511l1.348-.709zm2.682-11.831l-1.343.906-.004 10.086 1.347-.72z" id="path10" fill="#959595" stroke-width="1.332"/><path class="st2" d="M6.151 39.601l-.05-11.983 8.112-3.837.044 20.552" id="path12" fill="#b3b4b5" stroke-width="1.332"/><path class="st1" d="M8.715 39.556l-1.226-.61V28.828l1.226-.54zm2.893-12.541l-1.338.573-.05 12.768 1.39.705V27.015z" id="path14" fill="#959595" stroke-width="1.332"/><path d="M41.18 18.244l-24.223-7.947.04-1.026 24.182 8.137zm-.068 12.592l-24.117-2.96V28.9l24.14 2.793zM11.562 10.65V9.356L7.65 11.48l-.053 1.087zM7.495 29.584l4.108-1.455.008-1.116-4.124 1.81z" id="path16" fill="#7a7a7a" stroke-width="1.332"/><path d="M43.9 16.667v22.058l-29.643 5.554 22.46-30.271z" id="path18" opacity=".2" fill="#fff" stroke-width="1.332"/></svg>