<svg xmlns="http://www.w3.org/2000/svg" viewBox="0 0 48 48"><path d="M13.5 48c-3.203 0-5.553-.697-7.05-2.093-1.498-1.394-2.248-3.666-2.25-6.813V31.33c.005-3.465-1.395-5.198-4.2-5.201v-4.26c2.817 0 4.226-1.826 4.226-5.479V9.116c0-3.112.761-5.411 2.284-6.896C8.032.735 10.363-.005 13.5 0v4.264c-2.815 0-4.223 1.636-4.223 4.909v6.922c0 4.172-1.408 6.78-4.226 7.823v.116c2.815.925 4.224 3.475 4.226 7.65v6.896c0 1.782.322 3.086.964 3.911.643.825 1.729 1.239 3.259 1.242V48zm21-4.268c1.53 0 2.615-.413 3.255-1.24.64-.828.961-2.132.964-3.912v-6.896c0-4.173 1.405-6.723 4.215-7.65v-.116c-2.813-1.043-4.218-3.65-4.215-7.823V9.172c0-3.272-1.407-4.908-4.219-4.908V0c3.148 0 5.48.742 6.997 2.228 1.518 1.484 2.278 3.783 2.28 6.896v7.275c0 3.652 1.405 5.479 4.215 5.479v4.252c-2.81 0-4.215 1.734-4.215 5.201v7.77c0 3.145-.75 5.416-2.25 6.814-1.5 1.397-3.842 2.092-7.027 2.085v-4.268z" fill="#0078D4"/><path fill-rule="evenodd" clip-rule="evenodd" d="M25.023 13.493v9.494l7.454.015v8.662a3.001 3.001 0 11-2-.001v-6.665l-13.02-.026.046 6.684a3.001 3.001 0 01-.98 5.837 3 3 0 01-1.02-5.823l-.059-8.702 7.58.015v-9.49h2z" fill="#50E6FF"/><path d="M24.023 16.493a3 3 0 100-6 3 3 0 000 6z" fill="#0078D4"/></svg>