<svg xmlns="http://www.w3.org/2000/svg" viewBox="0 0 48 48"><path d="M43.647 43.656H4.244V4.254h39.403v39.402zM5.518 42.391H42.39V5.52H5.52v36.87z" fill="#50E6FF"/><path d="M35.47 12.605H12.497v22.798H35.47V12.605z" fill="#50E6FF"/><path d="M18.275 30.401a5.733 5.733 0 015.738-5.737 5.733 5.733 0 015.737 5.737H18.275zm9.011-9.907a3.259 3.259 0 01-3.257 3.257 3.259 3.259 0 01-3.256-3.257 3.259 3.259 0 013.256-3.256 3.259 3.259 0 013.257 3.256zM39.178 8.879h7.594V1.285h-7.594V8.88zm-12.646 0h7.594V1.285h-7.594V8.88zm-12.656 0h7.594V1.285h-7.594V8.88zm-12.656 0h7.593V1.285H1.22V8.88zm38.043 38.054h7.593v-7.594h-7.593v7.594zm-12.647 0h7.594v-7.594h-7.594v7.594zm-12.656 0h7.594v-7.594H13.96v7.594zm-12.656 0h7.593v-7.594H1.304v7.594zm37.959-12.57h7.593V26.77h-7.593v7.593zm-37.959 0h7.593V26.77H1.304v7.593zm37.959-12.828h7.593v-7.593h-7.593v7.593zm-37.959 0h7.593v-7.593H1.304v7.593z" fill="#0078D4"/></svg>