<svg xmlns="http://www.w3.org/2000/svg" viewBox="0 0 171 164"><path d="M83.448 98.863v-16.07c0-1.629-1.37-2.957-3.038-2.957H67.53c-.642 0-1.156-.214-1.54-.6-.386-.386-.6-.9-.6-1.543 0-.557.214-1.071.685-1.628L87.47 54.68c.386-.386.856-.557 1.456-.6-4.708-19.113-21.31-33.683-41.723-34.626C20.715 18.255-1.15 40.197.047 66.68c1.113 24.212 21.396 43.11 45.616 43.11h37.828V98.862h-.043z" fill="#45ADD2"/><path d="M109.08 119.261v-9.471h17.417c24.519 0 44.503-19.198 44.503-42.767 0-22.627-18.614-41.14-41.893-42.04C120.378 9.556 103.603 0 84.989 0c-12.324 0-23.664 4.242-32.35 11.485a53.215 53.215 0 0129.568 15.127c9.543 9.556 15.063 22.07 15.705 35.397l14.121 14.099c.385.385.599.9.599 1.542 0 .6-.214 1.072-.642 1.5-.428.429-.941.643-1.497.643H97.997v55.452c0 1.672-1.369 3.043-3.08 3.043h.085-12.88c-.6 0-1.07.214-1.498.643-.428.428-.642.943-.642 1.5 0 .642.214 1.157.6 1.542l21.481 21.427c.385.386.898.6 1.54.6s1.156-.214 1.541-.6l21.396-21.384c.427-.557.684-1.071.684-1.628 0-.643-.214-1.157-.599-1.543-.385-.386-.899-.6-1.54-.6h-12.881c-1.669 0-3.038-1.328-3.038-2.957v-16.027h-.086z" fill="#2272B9"/></svg>