<svg xmlns="http://www.w3.org/2000/svg" viewBox="0 0 120 120"><path d="M114 24H64.6a2.266 2.266 0 01-1.467-.466L49 14.134a2.868 2.868 0 00-1.467-.4H6a2.667 2.667 0 00-2.667 2.6v87.333a2.667 2.667 0 002.667 2.6h108a2.669 2.669 0 002.667-2.6v-77A2.667 2.667 0 00114 24z" fill="#005BA1"/><path d="M38.334 18.8h-23.6c-.59 0-1.067.477-1.067 1.066v3c0 .59.478 1.067 1.067 1.067h23.6c.589 0 1.066-.477 1.066-1.067v-3c0-.589-.477-1.066-1.066-1.066z" fill="#fff"/><path d="M18.067 18.8H14.4a.733.733 0 00-.733.733V23.2c0 .405.328.733.733.733h3.667a.733.733 0 00.733-.733v-3.667a.733.733 0 00-.733-.733z" fill="#1AC3F2"/><path d="M114 23.867H60a2.4 2.4 0 00-1.867.8l-9 8.666a2.867 2.867 0 01-1.866.734H6a2.667 2.667 0 00-2.667 2.666V103.4A2.667 2.667 0 006 106h108a2.669 2.669 0 002.667-2.6V26.667a2.667 2.667 0 00-2.667-2.8z"/><path d="M67.867 38a1 1 0 00-.534 0s-.6 0-.866.467L45.4 69.067a1.067 1.067 0 000 1.066 1.268 1.268 0 001 .667h12.467l-5.534 18.533a.868.868 0 00.467 1.2.66.66 0 00.467 0c.4 0 .6 0 .866-.466L76.867 59v-.667a1.134 1.134 0 00-1.134-1.066H62.4l5.4-18.2A.866.866 0 0067.867 38z" fill="#fff"/></svg>