<svg xmlns="http://www.w3.org/2000/svg" viewBox="0 0 120 120"><path d="M73.867 115.799L9.133 86.666a9.867 9.867 0 01-4.933-13L33.333 9.133a9.867 9.867 0 0113.334-4.934l64.2 29.134a9.857 9.857 0 015.904 9.513 9.866 9.866 0 01-.971 3.82l-29.133 64.2a9.865 9.865 0 01-12.8 4.933z" fill="#50E6FF"/><path d="M95.334 105.4h-71a9.935 9.935 0 01-9.867-9.867V24.466a9.934 9.934 0 019.867-9.866h71a9.865 9.865 0 019.866 9.866v71.067a9.866 9.866 0 01-9.867 9.867z" fill="url(#data-lake:a116d8d6-6f2d-4091-b0bf-e3b4f053bb39-f64f28b5)"/><path d="M58.2 66H47.466a.6.6 0 01-.8-.666L60 36.6a.734.734 0 01.6 0h12.6a.6.6 0 01.6.6L58.4 59.534h14.933a.6.6 0 01.6.6.934.934 0 010 .4l-24.8 28.533s-1.867 1.667-1.067-.667L58.2 66z" fill="#F2F2F2"/><defs><linearGradient id="data-lake:a116d8d6-6f2d-4091-b0bf-e3b4f053bb39-f64f28b5" x1="59.867" y1="105.4" x2="59.867" y2="14.6" gradientUnits="userSpaceOnUse"><stop stop-color="#1988D9"/><stop offset=".9" stop-color="#54AEF0"/></linearGradient></defs></svg>