<svg xmlns="http://www.w3.org/2000/svg" viewBox="0 0 126 121"><path d="M61.488 72.942V61.085c0-1.202-1.009-2.182-2.239-2.182h-9.49c-.473 0-.852-.158-1.136-.442-.283-.285-.44-.664-.44-1.139 0-.41.157-.79.504-1.201l15.765-15.777c.284-.285.63-.411 1.072-.443C62.056 25.8 49.822 15.05 34.782 14.354 15.264 13.47-.849 29.657.035 49.197.855 67.06 15.8 81.004 33.646 81.004H61.52v-8.063h-.032z" fill="#1A1A1F"/><path d="M80.375 87.991v-6.987h12.833C111.275 81.004 126 66.839 126 49.45c0-16.694-13.716-30.353-30.868-31.017C88.699 7.051 76.339 0 62.623 0c-9.08 0-17.436 3.13-23.837 8.473a39.193 39.193 0 0121.788 11.161c7.031 7.051 11.099 16.283 11.572 26.117L82.55 56.153c.284.284.441.664.441 1.138 0 .443-.157.79-.473 1.106a1.528 1.528 0 01-1.103.475h-9.207v40.912a2.257 2.257 0 01-2.27 2.246h.063-9.491c-.442 0-.788.158-1.104.474a1.534 1.534 0 00-.473 1.106c0 .475.158.854.442 1.139l15.828 15.808c.284.285.662.443 1.135.443s.852-.158 1.135-.443L93.24 104.78c.315-.411.504-.79.504-1.201 0-.474-.157-.854-.441-1.138-.284-.285-.662-.443-1.135-.443h-9.491c-1.23 0-2.239-.98-2.239-2.182V87.991h-.063z"/></svg>