<svg xmlns="http://www.w3.org/2000/svg" viewBox="0 0 48 49"><path d="M10.105.803H0v47.966h10.105V.803zm12.631 0H12.631v47.966h10.105V.803zm12.633 0H25.264v47.966h10.105V.803zM48 .803H37.895v47.966H48V.803z" fill="#0078D4"/><path d="M6.248 42.49H3.705v2.545h2.543V42.49zm0-5.055H3.705v2.545h2.543v-2.544zM18.94 42.49h-2.544v2.545h2.544V42.49zm0-5.055h-2.544v2.545h2.544v-2.544zm12.656 5.055h-2.543v2.545h2.543V42.49zm0-5.055h-2.543v2.545h2.543v-2.544zm12.58 5.055h-2.543v2.545h2.543V42.49zm0-5.055h-2.543v2.545h2.543v-2.544z" fill="#50E6FF"/></svg>