<svg xmlns="http://www.w3.org/2000/svg" viewBox="0 0 184 117"><path fill-rule="evenodd" clip-rule="evenodd" d="M97.1 68.283c0 11.955.03 48.374.03 48.374s-33.705.247-48.581.247C21.736 116.904 0 95.135 0 68.284 0 41.43 21.736 19.662 48.549 19.662s48.55 21.768 48.55 48.62z" fill="#3FADD3"/><path fill-rule="evenodd" clip-rule="evenodd" d="M83.279 77.27a3.08 3.08 0 00-3.079-3.084H18.535c-2.367 0-3.552 2.867-1.878 4.544l1.619 1.62L31.702 93.8a3.814 3.814 0 005.397 0 3.827 3.827 0 000-5.405l-3.932-3.937c-1.512-1.515-.441-4.106 1.698-4.106H80.2a3.08 3.08 0 003.079-3.082zM15.873 60.496a3.08 3.08 0 003.079 3.082h61.665c2.367 0 3.552-2.867 1.878-4.543l-1.619-1.622L67.45 43.966a3.814 3.814 0 00-5.398 0 3.827 3.827 0 000 5.405l3.933 3.937c1.512 1.515.441 4.105-1.699 4.105H18.951a3.08 3.08 0 00-3.078 3.083z" fill="#fff"/><path fill-rule="evenodd" clip-rule="evenodd" d="M139.416 27.066C129.629 10.846 111.856 0 91.551 0A55.585 55.585 0 0057.94 11.255c20.09 3.294 36.682 16.97 44.114 35.353a57.671 57.671 0 014.212 21.676c0 7.17.022 45.397.023 47.688 1.998-.545 22.691 1.028 32.805 1.028C163.895 117 184 96.865 184 72.028c0-24.728-19.932-44.788-44.584-44.962z" fill="#2773BA"/></svg>