<svg xmlns="http://www.w3.org/2000/svg" viewBox="0 0 48 49"><path d="M19.368 39.295c10.692 0 19.36-8.667 19.36-19.359 0-10.692-8.668-19.36-19.36-19.36S.008 9.245.008 19.937s8.668 19.36 19.36 19.36z" fill="#50E6FF"/><path d="M29.86 27.724V45.18c0 1.852 4.059 3.31 9.044 3.31h.059c5.035 0 9.035-1.508 9.035-3.37V27.666l-18.138.059z" fill="#0078D4"/><path d="M47.999 27.723c0 1.802-4.068 3.31-9.07 3.31-5.002 0-9.128-1.508-9.128-3.31s4.067-3.3 9.07-3.3c5.06 0 9.128 1.507 9.128 3.3z" fill="#50E6FF"/><path d="M46.197 27.554c0 1.221-3.26 2.207-7.209 2.207-3.957 0-7.267-.986-7.267-2.207 0-1.22 3.259-2.206 7.208-2.206 3.95 0 7.267.985 7.267 2.206z" fill="#0078D4"/><path d="M45.81 39.395V36.27h-1.854v1.945c0 .126.026.227-.084.227h-1.507c-.236 0-.21-.286-.21-.286v-1.895h-2.257l.395.27v2.012s-.1 1.356 1.112 1.356h2.366c.185 0 .421-.135.43-.202.008-.068.025.547-.59.59h-3.073v1.448h3.63c.361 0 .875-.06 1.229-.573.32-.455.412-.817.412-1.086v-.682zm-12.531-2.192v2.896H31.67v-4.64s.144-1.01 1.07-1.01 1.128.185 1.558 1.01c.438.834 1.28 2.375 1.28 2.375s1.145-2.577 1.296-2.964c.16-.387.649-.497 1.18-.455.521.034 1.06.32 1.086 1.061V40.1h-1.61v-2.896s-.985 2.256-1.17 2.517c-.185.27-.489.388-.825.388-.337 0-.809-.042-1.028-.438-.219-.404-1.23-2.468-1.23-2.468z" fill="#50E6FF"/><path d="M24.74 19.857c-.842.396-2.83.766-5.162.935-3.124.227-5.692 0-5.726-.514-.017-.252 1.23-.783 2.619-1.187-2.644.236-4.564.774-4.547 1.347.025.69 2.922 1.17 6.484 1.053 3.562-.11 6.433-.767 6.408-1.457a.273.273 0 00-.076-.177zm-4.631 3.37c-2.787.278-5.103 0-5.162-.623-.025-.22.244-.455.716-.674-1.086.295-1.76.682-1.743 1.078.025.758 2.484 1.288 5.482 1.179 1.835-.067 3.452-.354 4.429-.75l-.884-.682c-.8.203-1.777.37-2.838.472zm7.418 3.89c-.084.219-.202.471-.37.631-.135.135-.388.245-.632.329-.8.43-3.233.75-6.24.817-.353.008-.707.008-1.069.008-4.194 0-7.848-.396-7.848-1.019 0-.311 1.086-.699 2.442-.91l-.295-.218c-2.173.202-3.764.842-3.764 1.474 0 .016 0 .033.008.05.101.766 2.468 1.179 5.516 1.381 1.019.093 2.164.059 3.318.059 5.052 0 9.145-.952 9.145-2.13.008-.169-.068-.32-.21-.472z" fill="#0078D4"/><path d="M28.9 28.169c-.353 1.263-4.252 2.349-9.17 2.349-1.516 0-4.017-.143-6.467-.421 1.675.648 3.292.926 6.526.926 5.145 0 9.195-1.187 9.195-2.535a.787.787 0 00-.084-.32zm-.118-8.212c-.522-1.077-1.92-1.473-3.132-.892a2.458 2.458 0 00-.404.244c1.095-.362 2.155-.05 2.56.783.454.935-.101 1.853-1.154 2.661-.253.194-1.423 1.053-1.71 1.095.7.017 1.584-.253 2.586-.884 1.145-.708 1.777-1.929 1.255-3.006zm-8.9 5.965c-2.274.194-4.16-.1-4.202-.648-.009-.084.033-.177.118-.27-.708.22-1.146.514-1.146.834 0 .699 2.047 1.263 4.573 1.263 1.953 0 3.62-.337 4.27-.817-.371-.252-.826-.555-1.155-.774a13.66 13.66 0 01-2.458.412zm.438-6.022s.757-.421.698-1.541c-.059-1.12-1.684-2.215-1.65-3.73.034-1.516 1.937-2.83 2.66-3.285.734-.446 3.142-1.238 3.142-1.238s-1.903 1.18-2.914 1.963c-1.01.783-1.313 1.852-1.179 2.61.143.758 1.65 1.903 1.348 2.83-.312.934-1.263 2.273-2.105 2.39z" fill="#0078D4"/><path d="M22.054 4.782s1.12 1.482.362 3.284c-.758 1.802-2.19 3.032-3.166 3.781-.985.758-2.13 1.853-1.853 3.394.278 1.54 1.314 2.61 1.541 2.863.228.253.447 1.01.447 1.01s-1.769-1.515-2.409-2.383c-.64-.867-1.457-2.358-.699-3.646.758-1.288 2.409-2.215 4.236-3.78 1.827-1.567 1.71-3.765 1.54-4.523z" fill="#0078D4"/></svg>