<svg xmlns="http://www.w3.org/2000/svg" viewBox="0 0 156 156"><path d="M114.427 23.963C83.191 20.498 78 7 78 7s-7.012 17.693-52 17.693v72.778c0 8.756 4.918 17.055 11.657 24.26C52.957 138.056 78 149 78 149s52-22.8 52-51.529V24.693c-5.191.091-10.382-.182-15.573-.73zm-14.844 19.7v68.765c0 2.098-1.639 3.831-3.734 3.831H58.602c-2.094 0-3.824-1.642-3.824-3.739V43.663c0-2.098 1.639-3.83 3.733-3.83h37.247c2.095 0 3.734 1.641 3.825 3.83 0-.091 0-.091 0 0z" fill="#1A1A1F"/><path d="M88.382 76.222H65.979a4.75 4.75 0 00-4.736 4.924c0 2.554 2.004 4.652 4.554 4.834h22.766a4.75 4.75 0 004.736-4.925v-.091c-.09-2.645-2.276-4.834-4.917-4.742zm-21.948 8.116c-1.73 0-3.187-1.459-3.187-3.192s1.457-3.192 3.187-3.192c1.73 0 3.188 1.46 3.188 3.192 0 1.733-1.457 3.192-3.188 3.192zM88.382 61.72H65.979c-2.641 0-4.827 2.19-4.827 4.834a4.9 4.9 0 004.918 4.925h22.402a4.75 4.75 0 004.736-4.925v-.09c0-2.646-2.185-4.834-4.826-4.743zm-21.948 8.026c-1.73 0-3.187-1.459-3.187-3.192 0-1.732 1.457-3.192 3.187-3.192 1.73 0 3.188 1.46 3.188 3.192 0 1.733-1.457 3.192-3.188 3.192zM93.117 51.05c-.455-2.188-2.459-3.739-4.735-3.739H65.979a4.75 4.75 0 00-4.736 4.925c.091 2.645 2.186 4.834 4.918 4.925h22.402a4.75 4.75 0 004.736-4.925v-.091c-.09-.456-.09-.821-.182-1.095zm-26.683 4.378c-1.73 0-3.187-1.46-3.187-3.192 0-1.733 1.457-3.192 3.187-3.192 1.73 0 3.188 1.46 3.188 3.192 0 1.733-1.457 3.192-3.188 3.192z" fill="#1A1A1F"/><path d="M114.427 23.963C83.191 20.498 78 7 78 7s-7.012 17.693-52 17.693v72.778c0 8.756 4.918 17.055 11.657 24.26C52.957 138.056 78 149 78 149s52-22.8 52-51.529V24.693c-5.191.091-10.382-.182-15.573-.73zm-14.844 19.7v68.765c0 2.098-1.639 3.831-3.734 3.831H58.602c-2.094 0-3.824-1.642-3.824-3.739V43.663c0-2.098 1.639-3.83 3.733-3.83h37.247c2.095 0 3.734 1.641 3.825 3.83 0-.091 0-.091 0 0z" fill="#1A1A1F"/><path d="M88.382 76.222H65.979a4.75 4.75 0 00-4.736 4.924c0 2.554 2.004 4.652 4.554 4.834h22.766a4.75 4.75 0 004.736-4.925v-.091c-.09-2.645-2.276-4.834-4.917-4.742zm-21.948 8.116c-1.73 0-3.187-1.459-3.187-3.192s1.457-3.192 3.187-3.192c1.73 0 3.188 1.46 3.188 3.192 0 1.733-1.457 3.192-3.188 3.192zM88.382 61.72H65.979c-2.641 0-4.827 2.19-4.827 4.834a4.9 4.9 0 004.918 4.925h22.402a4.75 4.75 0 004.736-4.925v-.09c0-2.646-2.185-4.834-4.826-4.743zm-21.948 8.026c-1.73 0-3.187-1.459-3.187-3.192 0-1.732 1.457-3.192 3.187-3.192 1.73 0 3.188 1.46 3.188 3.192 0 1.733-1.457 3.192-3.188 3.192zM93.117 51.05c-.455-2.188-2.459-3.739-4.735-3.739H65.979a4.75 4.75 0 00-4.736 4.925c.091 2.645 2.186 4.834 4.918 4.925h22.402a4.75 4.75 0 004.736-4.925v-.091c-.09-.456-.09-.821-.182-1.095zm-26.683 4.378c-1.73 0-3.187-1.46-3.187-3.192 0-1.733 1.457-3.192 3.187-3.192 1.73 0 3.188 1.46 3.188 3.192 0 1.733-1.457 3.192-3.188 3.192z" fill="#1A1A1F"/></svg>