<svg xmlns="http://www.w3.org/2000/svg" viewBox="0 0 48 49"><path d="M48 23.607l-5.043-5.053v3.823H30.435V4.727H9.34v2.526h18.574v15.124h-17.65v2.526h17.65v17.6H9.34v2.527h21.095V24.903h12.522v3.765L48 23.607z" fill="#50E6FF"/><path d="M14.911 24.265v-1.567h-1.614a5.744 5.744 0 00-1.15-2.77l1.142-1.146-1.1-1.103-1.144 1.146A5.873 5.873 0 008.28 17.67v-1.608H6.725v1.616a5.72 5.72 0 00-2.765 1.154l-1.143-1.145-1.11 1.103 1.144 1.137a5.896 5.896 0 00-1.152 2.77H.094v1.567h1.614a5.732 5.732 0 001.143 2.77L1.708 28.18l1.1 1.104 1.144-1.146c.79.607 1.74 1.01 2.765 1.154v1.617H8.28v-1.617a5.72 5.72 0 002.765-1.154l1.143 1.146 1.101-1.104-1.143-1.145a5.896 5.896 0 001.151-2.77h1.614zm-7.404 2.037A2.815 2.815 0 014.7 23.49c0-1.55 1.26-2.813 2.807-2.813a2.815 2.815 0 012.807 2.813c0 1.55-1.26 2.813-2.807 2.813zM13.97.922H1.372v12.623H13.97V.922zm1.386 39.482l-7.678-7.693L0 40.404l7.678 7.693 7.678-7.693z" fill="#0078D4"/></svg>