<svg xmlns="http://www.w3.org/2000/svg" viewBox="0 0 49 49"><path d="M47.038 3.888H21.005l-3.142-2.722H8.695v4.03h1.6c.387 0 .759.138 1.058.396l2.625 2.27.065.057H39.47a1.62 1.62 0 011.615 1.615v.404h5.945v-6.05h.008z" fill="#0078D4"/><path d="M39.47 13.5H1.038v26.033H39.47V13.5z" fill="#50E6FF"/><path d="M47.038 7.862H13.986l.064.057h25.428a1.62 1.62 0 011.615 1.615v24.37h5.945V7.861z" fill="#50E6FF"/><path d="M13.445 9.526l-3.142-2.714H1.038v8.764H39.47v-6.05H13.445zm10.363 12.003l-9.717 9.555h5.387v15.96h8.554v-15.96h5.5l-9.724-9.555zm-9.661-.388H10.69v-3.457H8.962v3.457h-3.45v1.729H8.97v3.457h1.728V22.87h3.457v-1.73h-.008z" fill="#0078D4"/></svg>