<svg xmlns="http://www.w3.org/2000/svg" viewBox="0 0 48 49"><path d="M24.631 24.95v-7.7h-1.262v7.7H6.438v11.57H7.7V26.213h15.669v8.373h1.262v-8.373h15.652v10.309h1.262V24.95H24.631z" fill="#50E6FF"/><path d="M13.952 42.603v-8.86H1.312v8.86H.103v1.263h15.062v-1.263h-1.212z" fill="#0078D4"/><path d="M12.858 34.93H2.407v7.742h10.451V34.93z" fill="#50E6FF"/><path d="M46.738 42.603v-8.86h-12.64v8.86h-1.212v1.263H47.95v-1.263h-1.211z" fill="#0078D4"/><path d="M45.644 34.93H35.192v7.742h10.452V34.93z" fill="#50E6FF"/><path d="M30.328 42.603v-8.86h-12.64v8.86h-1.211v1.263H31.54v-1.263h-1.212z" fill="#0078D4"/><path d="M29.234 34.93H18.783v7.742h10.451V34.93z" fill="#50E6FF"/><path d="M30.32 17.443V8.582H17.68v8.861h-1.212v1.262h15.063v-1.262H30.32z" fill="#0078D4"/><path d="M29.226 9.766H18.774v7.742h10.452V9.766z" fill="#50E6FF"/><path d="M20.095 13.31c.034-1.43 1.052-1.852 1.852-1.852.589 0 1.077.228 1.657.8.068.067.227.235.227.235l-.521.707-.21-.26c-.489-.59-.741-.758-1.255-.758-.673-.008-1.051.673-1.026 1.254a1.02 1.02 0 001.018.993c.446 0 .993-.236 1.616-1.052.092-.118.185-.26.286-.412.067-.118.151-.228.227-.329.665-.9 1.288-1.178 1.96-1.194.666-.009 1.869.47 1.869 1.85 0 1.38-1.052 1.852-1.851 1.852-.648 0-1.162-.26-1.81-.968-.025-.025-.058-.067-.058-.067l.496-.64s.025.034.05.051c.581.724.876.875 1.431.884.673.008 1.052-.674 1.027-1.254a1.027 1.027 0 00-1.018-.993c-.447 0-.994.235-1.616 1.052-.093.117-.185.26-.286.412a1.848 1.848 0 01-.236.32c-.698.9-1.515 1.178-1.952 1.195-.968.05-1.927-.463-1.877-1.826zM7.633 36.352l-2.542 2.54H7.01v2.509h1.27v-2.508h1.894l-2.541-2.541zm16.376 0l-2.542 2.54h1.919v2.509h1.27v-2.508h1.894l-2.541-2.541zm16.409 0l-2.541 2.54h1.927v2.509h1.27v-2.508h1.886l-2.542-2.541z" fill="#0078D4"/></svg>