<svg xmlns="http://www.w3.org/2000/svg" viewBox="0 0 331 344.9"><circle fill="#2E69B2" cx="131.5" cy="69.5" r="25"/><circle fill="#2E69B2" cx="188.6" cy="150" r="29.8"/><circle fill="#2E69B2" cx="238.5" cy="238.6" r="23.3"/><circle fill="#2E69B2" cx="146" cy="222.5" r="20.1"/><circle fill="#2E69B2" cx="64.6" cy="161.3" r="20.1"/><path fill="#2e69b2" stroke="#2e69b2" stroke-width="5.212" stroke-miterlimit="10" d="M125.281 72.11l10.554-7.419 56.935 80.992-10.554 7.419z"/><path fill="#2e69b2" stroke="#2e69b2" stroke-width="5.212" stroke-miterlimit="10" d="M182.467 152.176l11.196-6.409 50.375 88.005-11.195 6.41z"/><path fill="#2e69b2" stroke="#2e69b2" stroke-width="5.212" stroke-miterlimit="10" d="M63.983 153.325l122.78-10.194 1.068 12.856L65.05 166.181z"/><path fill="#2e69b2" stroke="#2e69b2" stroke-width="5.212" stroke-miterlimit="10" d="M139.073 218.064l43.197-71.689 11.05 6.658-43.198 71.689z"/><circle fill="#2E69B2" cx="37.2" cy="88.2" r="24"/><circle fill="#2E69B2" cx="293.2" cy="88.2" r="24"/><circle fill="#2E69B2" cx="171.6" cy="316.2" r="24"/><path fill="#2E69B2" d="M63.5 67.1c25.7-26.9 61.9-43.6 102-43.6 39.9 0 76 16.6 101.7 43.3 4.5-5.5 10.8-9.6 17.9-11.4-1.6-1.8-3.3-3.6-5.1-5.3-14.9-14.9-32.2-26.5-51.5-34.7-20-8.5-41.2-12.7-63.1-12.7S122.3 7 102.3 15.4C83 23.6 65.7 35.2 50.8 50.1c-1.8 1.8-3.5 3.6-5.2 5.4 7.3 1.9 13.4 6 17.9 11.6zm254.8 43.7c-4.8 5.3-11.2 9-18.5 10.5 4.4 13.7 6.8 28.2 6.8 43.4 0 65.4-44.5 120.4-104.9 136.4 2.3 4.6 3.6 9.7 3.6 15.2 0 1.9-.2 3.8-.5 5.6 8.1-2 16-4.7 23.7-7.9 19.3-8.2 36.6-19.8 51.5-34.7 14.9-14.9 26.5-32.2 34.7-51.5 8.5-20 12.7-41.2 12.7-63.1 0-18.6-3-36.7-9.1-53.9zm-178 192.7C74.4 291.6 24.4 234 24.4 164.6c0-15.1 2.4-29.6 6.8-43.3-7.3-1.3-13.7-5-18.6-10.1-6 17.1-9 35-9 53.4 0 21.9 4.3 43.1 12.7 63.1 8.2 19.3 19.8 36.6 34.7 51.5 14.9 14.9 32.2 26.5 51.5 34.7 11.7 5 23.9 8.5 36.4 10.5-.7-2.6-1-5.4-1-8.2-.1-4.5.8-8.8 2.4-12.7z"/></svg>