<svg fill="none" xmlns="http://www.w3.org/2000/svg" viewBox="0 0 96 96"><mask id="a" maskUnits="userSpaceOnUse" x="4" y="0" width="88" height="96"><path d="M68 0a4 4 0 014 4v4h4a4 4 0 014 4v4h4a4 4 0 014 4v72a4 4 0 01-4 4H4a4 4 0 01-4-4V20a4 4 0 014-4h4v-4a4 4 0 014-4h4V4a4 4 0 014-4h48z" transform="translate(4)" fill="#fff"/></mask><g mask="url(#a)"><path d="M72 0a4 4 0 014 4v71a4 4 0 01-4 4H24a4 4 0 01-4-4V4a4 4 0 014-4h48z" fill="#C43601"/><g opacity=".75" filter="url(#filter0_f)"><path d="M80 8a4 4 0 014 4v70a4 4 0 01-4 4H16a4 4 0 01-4-4V12a4 4 0 014-4h64z" fill="#5F1400"/></g><path d="M80 8a4 4 0 014 4v70a4 4 0 01-4 4H16a4 4 0 01-4-4V12a4 4 0 014-4h64z" fill="#D83B01"/><path fill="#CA3701" d="M20 8h56v8H20z"/><g opacity=".6" filter="url(#filter1_f)"><path d="M88 16a4 4 0 014 4v72a4 4 0 01-4 4H8a4 4 0 01-4-4V20a4 4 0 014-4h80z" fill="#7C1A00"/></g><path d="M88 16a4 4 0 014 4v72a4 4 0 01-4 4H8a4 4 0 01-4-4V20a4 4 0 014-4h80z" fill="#D83B01"/><path d="M72 0H0v66c0 2.209 1.592 4 3.556 4h64.888C70.408 70 72 68.209 72 66V0z" transform="translate(12 16)" fill="url(#paint0_linear)"/><g fill-rule="evenodd" clip-rule="evenodd"><path d="M8 0v36H0V0h8z" transform="translate(27 38)" fill="url(#paint1_linear)"/><path d="M41 32c0 5.523-4.477 10-10 10s-10-4.477-10-10 4.477-10 10-10 10 4.477 10 10zm-10 6a6 6 0 100-12 6 6 0 000 12z" fill="#FC9F7C"/></g><g filter="url(#filter2_f)"><path fill-rule="evenodd" clip-rule="evenodd" d="M70 41.168c3.532-1.543 6-5.067 6-9.168 0-5.523-4.477-10-10-10s-10 4.477-10 10c0 4.1 2.468 7.625 6 9.168v5.07l-35 15v9.594A10.002 10.002 0 0021 80c0 5.523 4.477 10 10 10s10-4.477 10-10c0-4.1-2.468-7.625-6-9.168v-4.32l35-15V41.169zM66 38a6 6 0 100-12 6 6 0 000 12zM25 80a6 6 0 1112 0 6 6 0 01-12 0z" fill="#BF2200"/></g><path fill-rule="evenodd" clip-rule="evenodd" d="M41 80c0 5.523-4.477 10-10 10s-10-4.477-10-10 4.477-10 10-10 10 4.477 10 10zm-10 6a6 6 0 100-12 6 6 0 000 12z" fill="#FFD5C6"/><path fill-rule="evenodd" clip-rule="evenodd" d="M70 38v13.513l-35 15V74h-8V61.237l35-15V38h8z" fill="#FEBCA3"/><path d="M27.01 61.233L27 74h8l.016-16.2-8.007 3.433z" fill="#FFD5C6"/><path fill-rule="evenodd" clip-rule="evenodd" d="M76 32c0 5.523-4.477 10-10 10s-10-4.477-10-10 4.477-10 10-10 10 4.477 10 10zm-10 6a6 6 0 100-12 6 6 0 000 12z" fill="#FEBCA3"/><path opacity=".25" fill-rule="evenodd" clip-rule="evenodd" d="M0 84a4 4 0 004 4h72a4 4 0 004-4V4a4 4 0 00-4-4H4a4 4 0 00-4 4v80z" transform="rotate(90 38 54)" fill="url(#paint2_linear)"/></g><defs><linearGradient id="paint0_linear" x2="1" gradientUnits="userSpaceOnUse" gradientTransform="matrix(0 64 -65.8286 0 68.914 0)"><stop stop-color="#C82400"/><stop offset="1" stop-color="#D83B01" stop-opacity="0"/></linearGradient><linearGradient id="paint1_linear" x2="1" gradientUnits="userSpaceOnUse" gradientTransform="matrix(0 31.5 -7.52212 0 7.761 3.5)"><stop stop-color="#FC9F7C"/><stop offset="1" stop-color="#D83B01"/></linearGradient><linearGradient id="paint2_linear" x2="1" gradientUnits="userSpaceOnUse" gradientTransform="matrix(80 0 0 74.1667 0 6.417)"><stop stop-color="#FFD7C1"/><stop offset="1" stop-color="#FFC29F" stop-opacity="0"/></linearGradient><filter id="filter0_f" x="4" y="0" width="88" height="94" filterUnits="userSpaceOnUse" color-interpolation-filters="sRGB"><feFlood flood-opacity="0" result="BackgroundImageFix"/><feBlend in="SourceGraphic" in2="BackgroundImageFix" result="shape"/><feGaussianBlur stdDeviation="4" result="effect1_foregroundBlur"/></filter><filter id="filter1_f" x="-4" y="8" width="104" height="96" filterUnits="userSpaceOnUse" color-interpolation-filters="sRGB"><feFlood flood-opacity="0" result="BackgroundImageFix"/><feBlend in="SourceGraphic" in2="BackgroundImageFix" result="shape"/><feGaussianBlur stdDeviation="4" result="effect1_foregroundBlur"/></filter><filter id="filter2_f" x="13" y="14" width="71" height="84" filterUnits="userSpaceOnUse" color-interpolation-filters="sRGB"><feFlood flood-opacity="0" result="BackgroundImageFix"/><feBlend in="SourceGraphic" in2="BackgroundImageFix" result="shape"/><feGaussianBlur stdDeviation="4" result="effect1_foregroundBlur"/></filter></defs></svg>