<svg xmlns="http://www.w3.org/2000/svg" viewBox="0 0 48 48"><path d="M41.99 23.241v-4.493l-.674-.224-4.943-1.573-1.348-3.145 2.696-5.392-3.37-3.145-.674.224-4.493 2.247-3.145-1.348L24.24 1h-4.493l-.45.674-1.572 4.943L14.58 7.74 9.413 5.269l-3.145 3.37.224.673 2.247 4.494-1.123 3.145L2 18.748v4.493l.674.225 4.943 1.573 1.347 3.145-2.695 5.392 3.37 3.145.674-.225 4.493-2.246 3.145 1.348 1.797 5.392h4.493l.225-.674 1.573-4.943 3.145-1.348 5.167 2.471 3.145-3.145-.224-.674-2.247-4.493 1.348-3.145 5.617-1.798zm-19.995 6.516a8.63 8.63 0 01-8.762-8.762 8.633 8.633 0 018.762-8.762 8.633 8.633 0 018.762 8.762 8.631 8.631 0 01-8.762 8.762z" fill="url(#devsecops:e57d1fe5-b52e-5897-9y87-e2461ccc36fe-314ad0d1)"/><path d="M45.066 31.304c0 7.42-8.959 13.38-10.908 14.59a.7.7 0 01-.742 0c-1.949-1.21-10.909-7.178-10.909-14.59v-8.925a.71.71 0 01.694-.706c6.968-.183 5.364-3.242 10.586-3.242 5.22 0 3.618 3.059 10.587 3.248a.709.709 0 01.692.706v8.919z" fill="#FEA61A"/><path d="M44.131 31.378c0 6.798-8.21 12.27-10.003 13.38a.645.645 0 01-.68 0c-1.788-1.108-10.004-6.58-10.004-13.38V23.2a.65.65 0 01.631-.647c6.395-.175 4.923-2.98 9.712-2.98 4.788 0 3.315 2.806 9.71 2.98a.649.649 0 01.631.647l.003 8.177z" fill="url(#devsecops:e68d5fe5-b52e-8745-9t76-e5461ddd36fe-79dc61e3)"/><defs><linearGradient id="devsecops:e57d1fe5-b52e-5897-9y87-e2461ccc36fe-314ad0d1" x1="21.995" y1="40.99" x2="21.995" y2="1" gradientUnits="userSpaceOnUse"><stop stop-color="#0078D4"/><stop offset=".064" stop-color="#0A7CD7"/><stop offset=".338" stop-color="#2E8CE1"/><stop offset=".594" stop-color="#4897E9"/><stop offset=".822" stop-color="#589EED"/><stop offset="1" stop-color="#5EA0EF"/></linearGradient><linearGradient id="devsecops:e68d5fe5-b52e-8745-9t76-e5461ddd36fe-79dc61e3" x1="33.787" y1="44.856" x2="33.787" y2="19.575" gradientUnits="userSpaceOnUse"><stop stop-color="#FEA31B"/><stop offset="1" stop-color="#FFD610"/></linearGradient></defs></svg>