<svg xmlns="http://www.w3.org/2000/svg" viewBox="0 0 96 97"><path fill-rule="evenodd" clip-rule="evenodd" d="M0 9.214h15v-9H0v9z" fill="#50E6FF"/><path fill-rule="evenodd" clip-rule="evenodd" d="M3 96.214h9v-88.5H3v88.5z" fill="#50E6FF"/><path fill-rule="evenodd" clip-rule="evenodd" d="M12 96.214h42v-72H12v72zm42 0h42v-57H54v57z" fill="#0078D4"/><path fill-rule="evenodd" clip-rule="evenodd" d="M27 96.214h12v-12H27v12zm39 0h12v-12H66v12z" fill="#fff"/><path fill-rule="evenodd" clip-rule="evenodd" d="M21 45.214h9v-9h-9v9zm15 0h9v-9h-9v9zm-15 15h9v-9h-9v9zm15 0h9v-9h-9v9zm-15 15h9v-9h-9v9zm15 0h9v-9h-9v9zm24-15h9v-9h-9v9zm15 0h9v-9h-9v9zm-15 15h9v-9h-9v9zm15 0h9v-9h-9v9z" fill="#50E6FF"/></svg>