<svg xmlns="http://www.w3.org/2000/svg" viewBox="0 0 142.215 118"><path fill="#099cec" d="M46 26h11v10H46zm-13 0h11v10H33zm26 0h11v10H59zm13 0h11v10H72zm13 0h11v10H85zM46 14h11v10H46zm13 0h11v10H59zm13 0h11v10H72zm0-12h11v10H72z"/><path d="M128.763 29.087c-2.258-1.52-8.189-2.168-12.5-1.007-.232-4.3-2.448-7.916-6.5-11.074L108.262 16l-1 1.51a17.23 17.23 0 00-2.5 10.57 12.581 12.581 0 002.5 6.544 16.423 16.423 0 01-9.5 2.517h-71.5c-1.271 7.55.906 36.241 34 36.241 24.569 0 44.756-11.049 54-34.228 3.041.05 11.071.545 15-7.047.1-.128 1-2.013 1-2.013z" fill="#099cec" fill-rule="evenodd"/><path d="M52.679 59.751A27.93 27.93 0 0068.9 72.144c-17.976 5.5-28.88-4.132-35-9.235a62.079 62.079 0 0018.779-3.158z" fill="#fff"/><path d="M68.9 72.144a27.93 27.93 0 01-16.221-12.393A62.079 62.079 0 0133.9 62.909c6.12 5.103 17.024 14.733 35 9.235z" fill="#fff"/><path d="M51.767 57.989a26.763 26.763 0 01-13.3 3.5 27.043 27.043 0 01-7.067-.934l1.427 2.4a29.1 29.1 0 0019.915-3.2 25.166 25.166 0 01-.975-1.766z" fill="#066da5" fill-rule="evenodd"/><ellipse cx="59.377" cy="53.184" rx="3.477" ry="3.5" fill="#fff"/><path d="M59.9 52.2a.991.991 0 01.391-.778 1.953 1.953 0 00-.9-.229 2 2 0 101.987 2c0-.039-.009-.076-.012-.115a.97.97 0 01-.462.128A1 1 0 0159.9 52.2z" fill="#4d5c64"/><path d="M128.475 28.91c-2.25-1.51-8.4-2.218-12.513-1.022l-.918 1.294c-13.4 27.735-30.17 39.46-53.082 39.982-24.987-.069-31.239-13.244-33-31.208h-4c-.515 7.55 1.413 35.317 34.763 35.317 24.6 0 44.85-11.024 54.2-34.178 3.05.05 11.55.05 15.3-7.55l.761-1.61z" fill-rule="evenodd" opacity=".05"/><path fill="#066da5" d="M35 28h1v6h-1zm3 0h1v6h-1zm3 0h1v6h-1zm7 0h1v6h-1zm3 0h1v6h-1zm3 0h1v6h-1zm7 0h1v6h-1zm3 0h1v6h-1zm3 0h1v6h-1zm7 0h1v6h-1zm3 0h1v6h-1zm3 0h1v6h-1zm7 0h1v6h-1zm3 0h1v6h-1zm3 0h1v6h-1zM51 16h1v6h-1zm3 0h1v6h-1zm7 0h1v6h-1zm3 0h1v6h-1zm3 0h1v6h-1zm7 0h1v6h-1zm3 0h1v6h-1zm3 0h1v6h-1zM77 4h1v6h-1zm-3 0h1v6h-1zm6 0h1v6h-1zM48 16h1v6h-1zM21.807 83.625a2.168 2.168 0 00-2.235 2.234V96.58a11.641 11.641 0 00-7.541-2.642 11.592 11.592 0 00-8.508 3.523 12.035 12.035 0 000 17.016A11.592 11.592 0 0012.031 118a11.686 11.686 0 008.508-3.523 11.5 11.5 0 003.523-8.508v-20.11a2.132 2.132 0 00-.655-1.6 2.217 2.217 0 00-1.6-.634zm-2.826 25.255a7.744 7.744 0 01-1.611 2.4 7.621 7.621 0 01-2.4 1.633 7.551 7.551 0 01-5.909 0 7.556 7.556 0 01-2.384-1.622 7.657 7.657 0 01-1.6-2.395 7.519 7.519 0 010-5.844 7.547 7.547 0 013.985-4.018 7.563 7.563 0 015.909 0 7.671 7.671 0 012.4 1.633 7.76 7.76 0 011.611 2.4 7.465 7.465 0 010 5.822zm27.782-11.419a12.034 12.034 0 00-17.015 0A12.031 12.031 0 0038.255 118a11.686 11.686 0 008.508-3.523 11.5 11.5 0 003.524-8.508 12.385 12.385 0 00-.892-4.619 11.8 11.8 0 00-2.632-3.889zm-1.557 11.419a7.747 7.747 0 01-1.612 2.4 7.621 7.621 0 01-2.4 1.633 7.549 7.549 0 01-5.908 0 7.572 7.572 0 01-2.385-1.622 7.657 7.657 0 01-1.6-2.395 7.519 7.519 0 010-5.844 7.544 7.544 0 013.986-4.018 7.56 7.56 0 015.908 0 7.671 7.671 0 012.4 1.633 7.763 7.763 0 011.612 2.4 7.476 7.476 0 010 5.822zm50.782-12.708a2.074 2.074 0 00-.182-.859 2.5 2.5 0 00-.484-.72 2.154 2.154 0 00-.709-.484 2.257 2.257 0 00-.881-.171 2.193 2.193 0 00-1.2.343l-12.847 8.358V85.881a2.181 2.181 0 00-.656-1.6 2.154 2.154 0 00-1.579-.655 2.238 2.238 0 00-2.256 2.256v29.863a2.187 2.187 0 00.656 1.59 2.156 2.156 0 001.6.666 2.133 2.133 0 001.579-.666 2.187 2.187 0 00.656-1.59v-7.756l2.615-1.719 9.926 11.15a2.076 2.076 0 001.5.58 2.24 2.24 0 00.881-.172 2.107 2.107 0 00.709-.483 2.483 2.483 0 00.484-.72 2.074 2.074 0 00.182-.859 2.275 2.275 0 00-.623-1.569l-9.238-10.4 9-5.844a2 2 0 00.867-1.781zm-36.901 4.458a7.712 7.712 0 012.406-1.611 7.377 7.377 0 012.944-.591 7.133 7.133 0 012.621.472 8.3 8.3 0 012.3 1.4 2.277 2.277 0 001.461.516 2.151 2.151 0 001.6-.645 2.209 2.209 0 00.634-1.611 2.184 2.184 0 00-.774-1.7 11.459 11.459 0 00-7.841-2.921 12.031 12.031 0 107.841 21.14 2.265 2.265 0 00.709-1.654 2.167 2.167 0 00-2.234-2.235 2.411 2.411 0 00-1.418.473 7.761 7.761 0 01-2.277 1.386 7.256 7.256 0 01-2.621.462 7.377 7.377 0 01-2.944-.591 7.712 7.712 0 01-2.406-1.611 7.469 7.469 0 01-1.622-2.4 7.626 7.626 0 010-5.887 7.487 7.487 0 011.621-2.392zm82.526-5.189a4.267 4.267 0 00-1.514-.913 8.938 8.938 0 00-2-.462 17.265 17.265 0 00-2.031-.128 11.735 11.735 0 00-4.039.687 12.33 12.33 0 00-3.5 1.977v-.43a2.236 2.236 0 00-2.234-2.234 2.236 2.236 0 00-2.256 2.234v19.594a2.245 2.245 0 004.49 0v-9.8a7.4 7.4 0 01.591-2.944 7.512 7.512 0 014.007-4.006 7.368 7.368 0 012.943-.591 7.916 7.916 0 012.944.537 2.388 2.388 0 00.945.236 2.229 2.229 0 00.881-.172 2.117 2.117 0 00.709-.483 2.486 2.486 0 00.483-.72 2.122 2.122 0 00.183-.881 2 2 0 00-.602-1.501zm-23.052 2.02A12.032 12.032 0 10110.053 118a11.538 11.538 0 007.863-2.922 2.228 2.228 0 00.645-1.611 2.17 2.17 0 00-2.235-2.235 2.356 2.356 0 00-1.482.559 7.13 7.13 0 01-2.192 1.289 7.547 7.547 0 01-2.6.43 7.463 7.463 0 01-2.4-.387 7.722 7.722 0 01-2.1-1.085 7.5 7.5 0 01-1.664-1.676 7.287 7.287 0 01-1.074-2.159h17.015a2.215 2.215 0 001.6-.634 2.131 2.131 0 00.656-1.6 12.062 12.062 0 00-.881-4.63 11.716 11.716 0 00-2.643-3.878zm-15.748 6.273a6.967 6.967 0 011.052-2.159 7.466 7.466 0 011.676-1.676 7.909 7.909 0 012.127-1.085 7.512 7.512 0 012.385-.386 7.411 7.411 0 012.373.386 7.686 7.686 0 013.781 2.761 7.21 7.21 0 011.086 2.159z"/><path d="M129.781 32.453c.1-.16.238-.444.539-1.059l.34-.7.153-.318.378-.789-2.221-1.487c-2.4-1.617-7.879-2.226-12.17-1.4-.554-4.045-2.822-7.556-6.8-10.657l-2.362-1.585-1.557 2.342a18.216 18.216 0 00-2.665 11.211 14.208 14.208 0 002.065 6.2A16.751 16.751 0 0198 35.971V24H85V0H70v12H44v12H31v11.979h-5.932l-.141.838a31.786 31.786 0 00.119 9.161 36.282 36.282 0 004.108 12.452c5.547 9.955 15.624 15.8 30.759 15.8 25.754 0 45.482-11.891 54.667-34.215a20.329 20.329 0 007.676-1 13.145 13.145 0 007.525-6.562zM85 26h11v9.98H85zM72 2h11v10H72zm0 12h11v10H72zm0 12h11v9.979H72zM59 14h11v10H59zm0 12h11v9.979H59zM46 14h11v10H46zm0 12h11v9.979H46zm-13 0h11v9.979H33zm88.6 11.123a18.853 18.853 0 01-7.147.88l-.52-.01-.688-.011-.256.643c-8.748 21.938-27.852 33.6-53.072 33.6-14.417 0-23.825-5.46-29.015-14.775a34.277 34.277 0 01-3.873-11.757 31.964 31.964 0 01-.242-7.7H31V38h67v-.019c3.961-.045 7.665-1.27 9.524-2.714l.82-.637-.661-.8a11.516 11.516 0 01-2.275-6.006 16.189 16.189 0 012.339-9.909l.444-.67.638.428c3.882 3.033 5.875 6.4 6.086 10.311l.067 1.238 1.19-.321c3.894-1.049 9.6-.537 11.688.871l.773.519-.12.246c-.124.252-.229.465-.31.624a6.806 6.806 0 01-.176.328 11.154 11.154 0 01-6.427 5.634z" fill="#066da5"/></svg>