<svg xmlns="http://www.w3.org/2000/svg" viewBox="0 0 48 49"><path d="M47 4.646H20.967l-3.142-2.722H8.657v4.03h1.6c.387 0 .759.138 1.058.396l2.625 2.27.064.056h25.428a1.62 1.62 0 011.615 1.616v.404h5.945v-6.05H47z" fill="#0078D4"/><path d="M39.432 14.258H1V40.29h38.432V14.258z" fill="#50E6FF"/><path d="M47 8.62H13.948l.064.057H39.44a1.62 1.62 0 011.615 1.615v24.37H47V8.62z" fill="#50E6FF"/><path d="M13.407 10.284L10.265 7.57H1v8.764h38.432v-6.05H13.407zM23.77 22.287l-9.717 9.555h5.387v15.96h8.554v-15.96h5.5l-9.724-9.555zm-9.66-.388h-3.458v-3.457H8.924v3.457h-3.45v1.729h3.458v3.457h1.728v-3.457h3.457v-1.729h-.008z" fill="#0078D4"/></svg>