<svg xmlns="http://www.w3.org/2000/svg" viewBox="0 0 48 49"><path d="M31.303 41.13c0-2.308.896-4.478 2.534-6.108a8.588 8.588 0 016.108-2.534c.314 0 .621.016.928.049V11.623l-8.351-2.857-1.291-6.842H7v46h27.603a8.58 8.58 0 01-3.3-6.794z" fill="#0078D4"/><path d="M40.937 11.623h-9.706v-9.7l9.706 9.7z" fill="#50E6FF"/><path d="M32.15 13.962H15.618c-.662 0-1.195.533-1.195 1.195 0 .661.533 1.194 1.194 1.194H32.15c.662 0 1.195-.533 1.195-1.194 0-.662-.533-1.195-1.195-1.195zm0 7.262H15.618c-.662 0-1.195.533-1.195 1.194 0 .662.533 1.195 1.194 1.195H32.15c.662 0 1.195-.533 1.195-1.195 0-.661-.533-1.194-1.195-1.194zm0 7.262H15.618c-.662 0-1.195.533-1.195 1.194 0 .662.533 1.195 1.194 1.195H32.15c.662 0 1.195-.533 1.195-1.195 0-.661-.533-1.194-1.195-1.194z" fill="#fff"/><path d="M39.945 47.754a6.624 6.624 0 100-13.249 6.624 6.624 0 000 13.25z" fill="#0078D4"/><path d="M42.094 36.76l-4.958 4.959 2.487 2.487 4.958-4.958-2.487-2.487zm-3.004 8.106h-2.446V42.3l2.445 2.566z" fill="#50E6FF"/></svg>