<svg xmlns="http://www.w3.org/2000/svg" viewBox="0 0 48 49"><path d="M33.046 39.475a6.222 6.222 0 01-1.877-4.463 6.265 6.265 0 016.259-6.258c.491 0 .975.056 1.434.169V12.419l-8.353-3.665-2.118-6.83H5v45.984h22.9c0-2.537.99-4.913 2.778-6.71a9.635 9.635 0 012.368-1.723z" fill="#0078D4"/><path d="M38.854 12.387H28.383V1.924l10.47 10.463z" fill="#50E6FF"/><path d="M29.913 47.923c0-4.14 3.35-7.483 7.483-7.483a7.479 7.479 0 017.483 7.483H29.913zm9.042-8.953a4.245 4.245 0 10-3.07-7.915 4.245 4.245 0 003.07 7.915z" fill="#0078D4"/><path d="M18.105 6.723l-4.623 4.64-1.386-1.386-.926.926 2.312 2.32 5.55-5.566-.927-.934zm-6.983 13.655h16.922v-3.802H11.122v3.802z" fill="#fff"/><path d="M11.122 26.08h16.922v-3.803H11.122v3.802zm0 5.525h16.922v-3.802H11.122v3.802zm0 5.629h16.922v-3.801H11.122v3.801zm0 5.826h9.4v-3.802h-9.4v3.802z" fill="#50E6FF"/></svg>