<svg xmlns="http://www.w3.org/2000/svg" viewBox="0 0 48 49"><path d="M47.975.932H32.841L22.777 11.019v2.598h3.22c.992 0 1.79.798 1.79 1.79v18.25h20.18V.932h.008z" fill="#0078D7"/><path d="M22.743 11.037L32.858.924v10.113H22.743z" fill="#50E6FF"/><path d="M4.28 15.97a.762.762 0 01-.765-.764v-4.54A6.153 6.153 0 019.66 4.521h8.76c.421 0 .766.337.766.765 0 .42-.345.765-.765.765H9.669a4.632 4.632 0 00-4.624 4.624v4.54a.76.76 0 01-.765.756z" fill="#0078D7"/><path d="M17.824 3.412l3.103 2-3.103 1.993V3.412zm25.888 32.86c.42 0 .765.336.765.764v2.27a6.153 6.153 0 01-6.146 6.145h-5.482a.762.762 0 01-.765-.765c0-.428.345-.765.765-.765h5.482a4.632 4.632 0 004.624-4.623v-2.27a.748.748 0 01.757-.756z" fill="#0078D7"/><path d="M33.446 46.561l-3.094-1.992 3.103-2v3.992h-.009zm-8.223-30.379H10.098L.034 26.269V48.9h25.19V16.182z" fill="#0078D7"/><path d="M0 26.275l10.115-10.113v10.113H0z" fill="#50E6FF"/></svg>