<svg xmlns="http://www.w3.org/2000/svg" viewBox="0 0 50.001 46.149"><path d="M32.426 36.534H18.83c1.634 5.768-.561 6.6-10.175 6.6v3.02h32.692v-3.02c-9.614 0-10.557-.824-8.921-6.6" fill="#7a7a7a"/><path d="M46.98 0H2.718A2.828 2.828 0 000 2.847v30.866a2.812 2.812 0 002.717 2.823H46.98A3.09 3.09 0 0050 33.713V2.847A3.1 3.1 0 0046.98 0" fill="#a0a1a2"/><path d="M47.011 0H2.717A2.827 2.827 0 000 2.848v30.865a2.812 2.812 0 002.717 2.824H3.77z" fill="#fff" opacity=".2" style="isolation:isolate"/><path fill="#59b4d9" d="M46.098 3.848v28.841H3.79V3.848h42.308z"/><path fill="#59b4d9" d="M3.79 32.689h.058V3.849l38.68-.058h.002l-38.74.058v28.84z"/><path fill="#a0a1a2" d="M8.655 43.128h32.692v3.021H8.655z"/><path d="M25.518 2.095a.709.709 0 11-.71-.71.71.71 0 01.71.71" fill="#b8d432"/></svg>