<svg xmlns="http://www.w3.org/2000/svg" viewBox="0 0 48 48"><path d="M27.585 28.88c0-.989-.724-1.808-2.18-2.45v4.636c1.456-.236 2.18-.963 2.18-2.187zm-4.404-7.608v-4.847c-1.415.254-2.122.997-2.122 2.22 0 1.065.707 1.943 2.122 2.627zm8.463 7.396c0 1.689-.53 3.056-1.591 4.078-1.061 1.03-2.61 1.663-4.64 1.891v3.319H23.18V34.73c-2.097-.017-4.017-.49-5.76-1.41v-4.23c.547.448 1.423.887 2.627 1.309 1.205.422 2.249.667 3.133.726v-5.564c-2.248-.836-3.84-1.748-4.775-2.744C17.472 21.82 17 20.52 17 18.899c0-1.62.573-2.989 1.726-4.103 1.146-1.115 2.636-1.765 4.455-1.95V10h2.223v2.778c2.148.101 3.748.447 4.8 1.038v4.13c-1.415-.854-3.015-1.386-4.8-1.588v5.792c2.249.819 3.849 1.73 4.8 2.752.96 1.022 1.44 2.28 1.44 3.766z" fill="#0078D4"/><path d="M47.68 17.385V4.72h-5.061v4.534C38.265 3.622 31.453 0 23.806 0 10.653 0 0 10.68 0 23.87c0 13.187 10.661 23.868 23.806 23.868 13.146 0 23.807-10.689 23.807-23.869 0-.473-.017-.937-.042-1.401h-4.657c.033.464.05.928.05 1.401 0 10.605-8.572 19.208-19.158 19.208-10.585 0-19.158-8.603-19.158-19.208 0-10.605 8.573-19.208 19.158-19.208 6.223 0 11.748 2.972 15.242 7.582H35.04v5.074h7.579v.068h5.061z" fill="#50E6FF"/></svg>