<svg xmlns="http://www.w3.org/2000/svg" viewBox="0 0 70 70"><circle fill="#5A3D9E" cx="35" cy="35" r="35"/><path fill="#53318D" d="M10.735 9.79C4.122 16.157 0 25.094 0 35c0 19.33 15.67 35 35 35 9.906 0 18.843-4.122 25.21-10.735L10.735 9.79z"/><path d="M8.39 41.019c-.41 0-.759-.144-1.046-.431s-.431-.636-.431-1.046c0-.42.141-.774.423-1.061s.633-.431 1.054-.431c.205 0 .397.038.577.115s.336.179.469.308.241.285.323.469.123.385.123.6c0 .205-.041.397-.123.577s-.19.336-.323.469-.29.238-.469.315-.372.116-.577.116zm19.85-.308L15.997 23.008c-.154-.226-.305-.456-.454-.692s-.269-.467-.361-.692h-.077c.021.185.038.441.054.769s.023.738.023 1.23v17.088h-2.046V18.655h2.261L27.44 36.143c.185.277.351.536.5.777s.285.464.408.669h.077c-.041-.338-.072-.718-.092-1.138s-.031-.887-.031-1.4V18.655h2.061v22.056H28.24zm6.269 0V18.655H45.26v1.876h-8.706v8.09h8.06v1.846h-8.06v8.383h9.198v1.861H34.509zm22.21-20.179v20.18h-2.046v-20.18h-6.352v-1.876h14.766v1.876h-6.368zM28.932 50.878c-.6.311-1.346.467-2.238.467-1.155 0-2.081-.365-2.777-1.094-.696-.73-1.044-1.687-1.044-2.872 0-1.274.391-2.303 1.175-3.088.783-.785 1.773-1.177 2.969-1.177.77 0 1.409.109 1.916.327v1.311a3.422 3.422 0 00-1.777-.477c-.863 0-1.562.275-2.096.827-.535.552-.803 1.289-.803 2.211 0 .878.25 1.577.75 2.097s1.157.78 1.972.78c.752 0 1.404-.178 1.955-.533v1.221zm3.888.467c-.878 0-1.578-.266-2.102-.797-.524-.531-.786-1.236-.786-2.113 0-.955.273-1.701.819-2.239.546-.537 1.282-.805 2.208-.805.889 0 1.581.261 2.077.783.496.523.744 1.247.744 2.172 0 .907-.267 1.634-.802 2.18-.535.545-1.254.819-2.158.819zm.062-4.927c-.504 0-.901.176-1.194.528s-.439.837-.439 1.455c0 .596.148 1.066.444 1.408s.693.514 1.189.514c.507 0 .897-.168 1.169-.506.273-.337.408-.816.408-1.438 0-.625-.136-1.109-.408-1.45-.272-.34-.662-.511-1.169-.511zm7.509.333c-.156-.121-.379-.183-.672-.183-.382 0-.7.173-.955.516-.255.345-.383.813-.383 1.406v2.722h-1.289v-5.688h1.289v1.172h.022c.126-.4.319-.713.581-.937.261-.224.552-.336.875-.336.233 0 .411.035.533.105v1.223zm5.626 1.967H42.14c.015.526.177.931.486 1.216.309.285.734.428 1.274.428.607 0 1.165-.182 1.672-.545v1.039c-.518.326-1.204.489-2.055.489-.837 0-1.493-.258-1.969-.775-.476-.516-.714-1.243-.714-2.18 0-.885.262-1.606.786-2.164.524-.557 1.175-.836 1.953-.836s1.379.25 1.805.75c.426.499.639 1.194.639 2.082v.496zm-1.244-.911c-.004-.463-.113-.824-.328-1.081s-.511-.385-.889-.385c-.37 0-.684.135-.941.405-.258.27-.416.624-.475 1.061h2.633z" fill="#FFF"/></svg>