<svg xmlns="http://www.w3.org/2000/svg" viewBox="0 0 23 24"><path fill="#505050" d="M22.487 19.492H20.99v4.493H1.52v-4.493H.023V7.512h1.498V.022h14.543L20.99 4.95v2.562h1.497v11.981zm-5.99-14.976h1.93l-1.93-1.93v1.93zM3.019 7.511h16.473V6.014H15V1.52H3.02v5.99zm16.473 11.981H3.02v2.995h16.473v-2.995zM20.99 9.01H1.52v8.986h19.47V9.009zM5.265 10.507c.312 0 .605.058.878.175a2.254 2.254 0 01.714 3.662A2.254 2.254 0 015.264 15h-.749v1.498H3.02v-5.99h2.246zm0 2.995a.72.72 0 00.527-.223.72.72 0 00.222-.526.72.72 0 00-.223-.527.72.72 0 00-.526-.222h-.749v1.498h.749zm5.242-2.995c.413 0 .801.078 1.164.234a3.025 3.025 0 011.597 1.597c.156.362.234.75.234 1.164 0 .413-.078.801-.234 1.164a3.025 3.025 0 01-1.597 1.597 2.917 2.917 0 01-1.164.234H9.009v-5.99h1.498zm0 4.492c.21 0 .405-.039.585-.117a1.522 1.522 0 00.795-.795c.078-.18.117-.375.117-.585 0-.21-.039-.406-.117-.585a1.522 1.522 0 00-.795-.796 1.451 1.451 0 00-.585-.117V15zm4.492-4.492h3.744v1.497h-2.246v1.498h2.246v1.497h-2.246v1.498h-1.498v-5.99z"/></svg>