<svg xmlns="http://www.w3.org/2000/svg" viewBox="0 0 50 50"><path fill="#A0A1A2" d="M36 5H4v45h40V13z"/><path fill="#3999C6" d="M35 7H6v41h36V14h-7z"/><path fill="#FFF" d="M23 19c0-.556.459-1 1.033-1h11.934c.574 0 1.033.444 1.033 1s-.459 1-1.033 1H24.033C23.459 20 23 19.556 23 19m0 10c0-.556.459-1 1.033-1h11.934c.574 0 1.033.444 1.033 1s-.459 1-1.033 1H24.033C23.459 30 23 29.556 23 29M10.247 18.475l-.384-.416c-.1-.11-.1-.284.016-.389l1.11-1.026a.27.27 0 01.385.016l3.052 3.273 5.252-6.727a.271.271 0 01.385-.046l1.201.926a.262.262 0 01.105.179.266.266 0 01-.059.2l-6.747 8.637-4.316-4.627zm0 10l-.384-.416c-.1-.11-.1-.284.016-.389l1.11-1.026a.27.27 0 01.385.016l3.052 3.273 5.252-6.727a.271.271 0 01.385-.046l1.201.926a.262.262 0 01.105.179.266.266 0 01-.059.2l-6.747 8.637-4.316-4.627zM23 39c0-.556.459-1 1.033-1h11.934c.574 0 1.033.444 1.033 1s-.459 1-1.033 1H24.033C23.459 40 23 39.556 23 39m-12.753-.525l-.384-.416c-.1-.11-.1-.284.016-.389l1.11-1.026a.27.27 0 01.385.016l3.052 3.273 5.252-6.727a.271.271 0 01.385-.046l1.201.926a.262.262 0 01.105.179.266.266 0 01-.059.2l-6.747 8.637-4.316-4.627z"/><path opacity=".2" d="M35 14h7v1h-7z"/></svg>