<svg xmlns="http://www.w3.org/2000/svg" viewBox="0 0 151 40"><g fill="none" fill-rule="evenodd"><path d="M0 27.82c0-6.741 4.687-12.224 11.382-12.224 3.08 0 5.624 1.033 7.499 2.876V.674h7.9v38.652h-7.81v-2.607h-.09C17.185 38.607 14.507 40 11.382 40 4.687 40 0 34.562 0 27.82zm8.392 0c0 3.146 2.142 5.393 5.356 5.393 3.08 0 5.312-2.247 5.312-5.393 0-3.19-2.366-5.438-5.312-5.438-2.99 0-5.356 2.247-5.356 5.438zm31.82-11.55v10.966c0 4.54 1.205 6.292 4.508 6.292s4.509-1.753 4.509-6.292V16.27h7.9v12.899C57.13 36.899 53.29 40 44.72 40s-12.408-3.101-12.408-10.831v-12.9h7.9zm24.406 0v-4.9C64.663 4.63 67.876 0 73.59 0c4.017 0 6.517 2.067 6.517 2.067l-2.768 5.618s-1.07-.629-2.365-.629c-2.009 0-2.455 1.348-2.455 4.54v4.674h5.267v6.067h-5.267v16.989h-7.9V22.337h-3.304V16.27h3.303zm19.26 0v-4.9C83.923 4.63 87.137 0 92.85 0c4.018 0 6.517 2.067 6.517 2.067L96.6 7.685s-1.072-.629-2.366-.629c-2.009 0-2.455 1.348-2.455 4.54v4.674h5.267v6.067H91.78v16.989h-7.9V22.337h-3.304V16.27h3.303zm18.19 23.056V.674h7.9v38.652h-7.9zm37.043-10.427h-16.605c0 3.55 2.946 4.764 4.955 4.764 2.544 0 3.66-.494 5.58-2.562l5.713 2.877c-2.59 4.36-6.785 6.022-11.874 6.022-6.918 0-12.587-5.483-12.587-12.18 0-6.741 5.669-12.224 12.587-12.224 6.964 0 12.275 4.134 12.275 12.224 0 .315 0 .81-.044 1.079zm-16.382-4.405h8.704c-.357-2.427-2.008-3.73-4.33-3.73-2.722 0-4.24 1.618-4.374 3.73z" fill="#3731AA"/><ellipse fill="#E83683" fill-rule="nonzero" cx="146.324" cy="34.831" rx="4.301" ry="4.322"/></g></svg>