<svg xmlns="http://www.w3.org/2000/svg" xmlns:xlink="http://www.w3.org/1999/xlink" version="1.0" viewBox="0 0 48 48"><defs><linearGradient id="g"><stop offset="0" stop-color="#fff" stop-opacity=".635"/><stop offset=".5" stop-color="#fff" stop-opacity=".208"/><stop offset="1" stop-color="#424289" stop-opacity=".075"/></linearGradient><linearGradient id="b"><stop offset="0" stop-color="#04034e"/><stop offset="1" stop-color="#7575b9"/></linearGradient><linearGradient id="e"><stop offset="0" stop-color="#c98cbb"/><stop offset="1" stop-color="#a9b7da"/></linearGradient><linearGradient id="d"><stop offset="0" stop-color="#c98cbb"/><stop offset="1" stop-color="#a9b7da"/></linearGradient><linearGradient id="c"><stop offset="0" stop-color="#c98cbb"/><stop offset="1" stop-color="#a9b7da"/></linearGradient><linearGradient id="f"><stop offset="0" stop-color="#c98cbb"/><stop offset="1" stop-color="#a9b7da"/></linearGradient><linearGradient id="a"><stop offset="0" stop-color="#04034e"/><stop offset="1" stop-color="#c98cbb"/></linearGradient><linearGradient xlink:href="#a" id="i" gradientUnits="userSpaceOnUse" x1="104.635" y1="46.964" x2="30.034" y2="46.964"/><linearGradient xlink:href="#b" id="h" gradientUnits="userSpaceOnUse" x1="68.214" y1="63.929" x2="37.321" y2="30"/><linearGradient xlink:href="#c" id="m" gradientUnits="userSpaceOnUse" x1="50.381" y1="47.093" x2="95.397" y2="46.776" gradientTransform="translate(-47.51 -22.197)"/><linearGradient xlink:href="#d" id="l" gradientUnits="userSpaceOnUse" x1="50.381" y1="47.093" x2="95.397" y2="46.776" gradientTransform="translate(-47.51 -22.197)"/><linearGradient xlink:href="#e" id="k" gradientUnits="userSpaceOnUse" x1="50.381" y1="47.093" x2="95.397" y2="46.776" gradientTransform="translate(-47.51 -22.197)"/><linearGradient xlink:href="#f" id="j" gradientUnits="userSpaceOnUse" x1="50.381" y1="47.093" x2="95.397" y2="46.776" gradientTransform="translate(-47.51 -22.197)"/><radialGradient xlink:href="#g" id="n" gradientUnits="userSpaceOnUse" gradientTransform="matrix(.51392 .95323 -.9143 .49294 19.917 -11.5)" cx="15.701" cy="15.071" fx="15.701" fy="15.071" r="13.885"/></defs><path transform="matrix(.9311 0 0 .94201 -23.732 -20.241)" d="M75.357 46.964a23.125 22.857 0 110-.134" fill="url(#h)"/><path d="M23 2.47C11.114 2.47 1.468 12.114 1.468 24c0 11.886 9.646 21.532 21.532 21.532.265 0 .518-.022.78-.032C12.41 44.923 3.376 35.515 3.376 24c0-11.514 9.034-20.922 20.406-21.5-.262-.009-.517-.03-.781-.03z" fill="url(#i)"/><path fill="url(#j)" d="M3.62 19.09h43.775v1.007H3.62z"/><path fill="url(#k)" d="M3.004 22.091h44.374v1.002H3.004z"/><path fill="url(#l)" d="M3.293 25.082h44.108v1.004H3.293z"/><path fill="url(#m)" d="M3.566 28.08h43.82v1.006H3.566z"/><path d="M24.845 2.487c-11.695 0-21.197 9.347-21.5 20.969 2.752 2.47 6.357 4 10.344 4 8.58 0 15.562-6.982 15.562-15.563V11.8a15.495 15.495 0 00-3.156-9.282 21.57 21.57 0 00-1.25-.03z" fill="url(#n)"/></svg>