<svg xmlns="http://www.w3.org/2000/svg" viewBox="0 0 48 49"><path d="M5.053 0H0v5.053h5.053V0zm0 7.16H0v5.053h5.053V7.16z" fill="#50E6FF"/><path d="M26.527 7.16h-5.052v5.053h5.052V7.16z" fill="#0078D4"/><path d="M33.684 7.16H28.63v5.053h5.053V7.16zM5.053 14.316H0v5.053h5.053v-5.053z" fill="#50E6FF"/><path d="M26.527 14.316h-5.052v5.053h5.052v-5.053z" fill="#0078D4"/><path d="M33.684 14.316H28.63v5.053h5.053v-5.053zM5.053 21.473H0v5.052h5.053v-5.052z" fill="#50E6FF"/><path d="M12.21 21.473H7.159v5.052h5.053v-5.052z" fill="#0078D4"/><path d="M19.37 21.473h-5.054v5.052h5.053v-5.052z" fill="#50E6FF"/><path d="M26.527 21.473h-5.052v5.052h5.052v-5.052z" fill="#0078D4"/><path d="M33.684 21.473H28.63v5.052h5.053v-5.052zm-28.631 7.16H0v5.052h5.053v-5.052z" fill="#50E6FF"/><path d="M12.21 28.633H7.159v5.052h5.053v-5.052z" fill="#0078D4"/><path d="M19.37 28.633h-5.054v5.052h5.053v-5.052z" fill="#50E6FF"/><path d="M26.527 28.633h-5.052v5.052h5.052v-5.052z" fill="#0078D4"/><path d="M33.684 28.633H28.63v5.052h5.053v-5.052zM5.053 35.79H0v5.052h5.053v-5.053z" fill="#50E6FF"/><path d="M12.21 35.79H7.159v5.052h5.053v-5.053z" fill="#0078D4"/><path d="M19.37 35.79h-5.054v5.052h5.053v-5.053z" fill="#50E6FF"/><path d="M26.527 35.79h-5.052v5.052h5.052v-5.053z" fill="#0078D4"/><path d="M33.684 35.79H28.63v5.052h5.053v-5.053z" fill="#50E6FF"/><path d="M40.842 35.79h-5.053v5.052h5.053v-5.053z" fill="#0078D4"/><path d="M48 35.79h-5.053v5.052H48v-5.053zM5.053 42.95H0v5.052h5.053v-5.053z" fill="#50E6FF"/><path d="M12.21 42.95H7.159v5.052h5.053v-5.053z" fill="#0078D4"/><path d="M19.37 42.95h-5.054v5.052h5.053v-5.053z" fill="#50E6FF"/><path d="M26.527 42.95h-5.052v5.052h5.052v-5.053z" fill="#0078D4"/><path d="M33.684 42.95H28.63v5.052h5.053v-5.053z" fill="#50E6FF"/><path d="M40.842 42.95h-5.053v5.052h5.053v-5.053z" fill="#0078D4"/><path d="M48 42.95h-5.053v5.052H48v-5.053z" fill="#50E6FF"/></svg>