<svg xmlns="http://www.w3.org/2000/svg" viewBox="0 0 48 48"><path d="M1 47h46V5.309H1v41.69z" fill="#0078D4"/><path d="M1 5.89h46V1H1v4.89zm10.79 28.883H6.972v4.818h4.818v-4.818zm7.287 0H14.26v4.818h4.818v-4.818zm7.255 0h-4.818v4.818h4.818v-4.818z" fill="#50E6FF"/><path d="M33.58 34.773h-4.82v4.818h4.818v-4.818z" fill="#fff"/><path d="M40.867 34.773h-4.818v4.818h4.818v-4.818zM11.79 27.527H6.972v4.818h4.818v-4.818z" fill="#50E6FF"/><path d="M19.077 27.527H14.26v4.818h4.818v-4.818z" fill="#fff"/><path d="M26.332 27.527h-4.818v4.818h4.818v-4.818zm7.248 0h-4.82v4.818h4.818v-4.818zm7.287 0h-4.818v4.818h4.818v-4.818zm-29.077-7.25H6.972v4.818h4.818v-4.818zm7.287 0H14.26v4.818h4.818v-4.818z" fill="#50E6FF"/><path d="M26.332 20.277h-4.818v4.818h4.818v-4.818z" fill="#fff"/><path d="M33.58 20.277h-4.82v4.818h4.818v-4.818zm7.287 0h-4.818v4.818h4.818v-4.818z" fill="#50E6FF"/><path d="M11.79 13.074H6.972v4.818h4.818v-4.818z" fill="#fff"/><path d="M19.077 13.074H14.26v4.818h4.818v-4.818zm7.255 0h-4.818v4.818h4.818v-4.818zm7.248 0h-4.82v4.818h4.818v-4.818zm7.287 0h-4.818v4.818h4.818v-4.818z" fill="#50E6FF"/></svg>