<svg xmlns="http://www.w3.org/2000/svg" viewBox="0 0 18 18"><defs><linearGradient id="a" x1="9.252" y1=".485" x2="8.842" y2="16.966" gradientUnits="userSpaceOnUse"><stop offset="0" stop-color="#ffd400"/><stop offset=".415" stop-color="#ffd000"/><stop offset=".845" stop-color="#ffc301"/><stop offset="1" stop-color="#ffbd02"/></linearGradient></defs><path d="M17.579 3.283H9.727a.419.419 0 01-.233-.07L7.251 1.721a.42.42 0 00-.233-.071H.421A.42.42 0 000 2.07v13.86a.42.42 0 00.421.42h17.158a.42.42 0 00.421-.42V3.7a.42.42 0 00-.421-.417z" fill="#dfa500"/><rect x="1.636" y="2.455" width="4.091" height=".818" rx=".172" fill="#fff"/><path d="M17.579 3.263H8.956a.421.421 0 00-.3.123L7.272 4.773a.42.42 0 01-.3.123H.421a.42.42 0 00-.421.42V15.91a.42.42 0 00.421.419h17.158A.42.42 0 0018 15.91V3.683a.42.42 0 00-.421-.42z" fill="url(#a)"/></svg>