<svg xmlns="http://www.w3.org/2000/svg" viewBox="0 0 49 49"><path d="M10.76.08H.653v47.966h10.105V.08zm12.63 0H13.285v47.966H23.39V.08zm12.633 0H25.917v47.966h10.106V.08zm12.631 0H38.548v47.966h10.106V.08z" fill="#0078D4"/><path d="M6.902 41.768H4.359v2.544h2.543v-2.544zm0-5.058H4.359v2.546h2.543V36.71zm12.691 5.058H17.05v2.544h2.543v-2.544zm0-5.058H17.05v2.546h2.543V36.71zm12.657 5.058h-2.544v2.544h2.544v-2.544zm0-5.058h-2.544v2.546h2.544V36.71zm12.58 5.058h-2.543v2.544h2.543v-2.544zm0-5.058h-2.543v2.546h2.543V36.71z" fill="#50E6FF"/></svg>