<svg xmlns="http://www.w3.org/2000/svg" viewBox="0 0 48 48"><path d="M35.792 0H48v12.196h-5.05v-7.15h-7.157V0zM5.052 12.196H0V0h12.208v5.047H5.052v7.149zm37.896 23.608H48V48H35.792v-5.047h7.156v-7.149zM0 48V35.804h5.052v7.15h7.156V48H0z" fill="#0078D4"/><path d="M9.688 40.79c0-8.002 6.476-14.471 14.485-14.471 8.008 0 14.485 6.47 14.485 14.47H9.688zm22.577-26.483c0 4.467-3.632 8.095-8.103 8.095-4.472 0-8.103-3.628-8.103-8.095 0-4.467 3.631-8.095 8.103-8.095 4.471 0 8.103 3.628 8.103 8.095z" fill="#50E6FF"/></svg>