<svg xmlns="http://www.w3.org/2000/svg" viewBox="0 0 48 49"><path d="M25.217 17.665V.008H0v27.85h20.593V17.665h4.624z" fill="#0078D7"/><path d="M20.113 21.335a31.404 31.404 0 01-5.053-2.67c.505-.497.976-1.02 1.38-1.567 2.081-2.805 3.201-6.528 3.622-8.34.009-.042.034-1.263.034-1.263V5.59l-6.165.017V2.676h-2.872v2.949l-5.753.017v2.872l11.716-.05c-.463 1.786-1.415 4.793-2.948 6.857-.396.53-.859 1.028-1.373 1.5a11.401 11.401 0 01-1.373-1.5c-1.271-1.71-2.366-4.077-2.88-5.787a11.79 11.79 0 01-.093-.304l-3.057.042c.598 2.266 1.895 5.46 3.647 7.818.412.547.876 1.07 1.381 1.567a31.062 31.062 0 01-5.054 2.678l1.079 2.755c.193-.076 3.352-1.33 6.333-3.47 2.99 2.14 6.149 3.394 6.334 3.47l1.095-2.755z" fill="#50E6FF"/><path d="M48 20.133H22.707v27.875H48V20.133z" fill="#0078D7"/><path d="M43.99 43.004h-3.217l-1.592-4.507h-6.957l-1.533 4.507h-3.209l6.629-17.699h3.31l6.57 17.7zm-5.584-6.9l-2.459-7.058c-.076-.228-.152-.599-.236-1.112h-.05c-.076.471-.16.842-.245 1.111l-2.434 7.06h5.425z" fill="#50E6FF"/><path d="M43.687 12.652c-3.42-5.804-9.349-9.94-16.297-10.917v2.898c5.71.918 10.595 4.296 13.552 9.014l-2.94 1.06 5.273 2.47 2.468-5.274-2.056.75zM7.369 34.344l2.392-.868-5.264-2.468-2.468 5.274 2.602-.944c3.319 5.779 9.122 9.949 15.961 11.052v-2.906c-5.6-1.044-10.36-4.448-13.223-9.14z" fill="#0078D7"/></svg>