<svg xmlns="http://www.w3.org/2000/svg" viewBox="0 0 48 45"><path d="M48 35.718H0v8.932h48v-8.932zM23.346 5.23c5.19 0 9.918 1.932 13.519 5.11l3.842-3.58A25.542 25.542 0 0023.347 0 25.57 25.57 0 005.883 6.85l3.863 3.56a20.38 20.38 0 0113.6-5.18z" fill="#0078D4"/><path d="M12.483 12.925l2.726 2.505a13.008 13.008 0 018.127-2.836c3.048 0 5.854 1.046 8.077 2.796l2.706-2.525a16.701 16.701 0 00-10.783-3.943 16.646 16.646 0 00-10.853 4.003z" fill="#0078D4"/><path d="M17.955 17.963l1.378 1.268a7.574 7.574 0 017.946-.02l1.368-1.278a9.331 9.331 0 00-5.331-1.66 9.302 9.302 0 00-5.361 1.69z" fill="#50E6FF"/><path d="M23.296 26.738a2.937 2.937 0 100-5.875 2.937 2.937 0 000 5.875zm-17.16 14.29H3.35l1.116-19.313h.553l1.117 19.313zM44.65 35.89h-2.786l1.117-19.312h.553l1.117 19.313z" fill="#0078D4"/><path d="M4.747 42.114a2.092 2.092 0 100-4.184 2.092 2.092 0 000 4.184z" fill="#50E6FF"/><path d="M44.892 41.14a1.117 1.117 0 100-2.233 1.117 1.117 0 000 2.233zm-4.145 0a1.117 1.117 0 100-2.233 1.117 1.117 0 000 2.233zm-4.807 0a1.117 1.117 0 100-2.233 1.117 1.117 0 000 2.233z" fill="#fff"/></svg>