<svg xmlns="http://www.w3.org/2000/svg" viewBox="0 0 48 49"><path d="M33.935 11.619l-1.22-10.416H16.269l-1.217 11.025a15.148 15.148 0 0118.883-.609zM14.872 35.262l1.397 11.941h16.446l1.314-11.24a15.132 15.132 0 01-9.147 3.078 15.159 15.159 0 01-10.01-3.78zm-2.86-13.114H10v3.09h2.012v-3.09z" fill="#3076BC"/><path d="M24.881 37.525c7.566 0 13.7-6.134 13.7-13.7 0-7.566-6.134-13.7-13.7-13.7-7.566 0-13.7 6.134-13.7 13.7 0 7.566 6.134 13.7 13.7 13.7z" fill="#3076BC"/><path d="M24.881 34.386c5.833 0 10.56-4.728 10.56-10.56 0-5.833-4.727-10.561-10.56-10.561-5.832 0-10.56 4.728-10.56 10.56 0 5.833 4.728 10.56 10.56 10.56z" fill="#50E6FF"/><path d="M24.315 25.828a.745.745 0 01-.442-.145l-4.678-3.4a.748.748 0 11.882-1.21l4.17 3.032 6.207-5.943a.748.748 0 111.037 1.082l-6.658 6.375a.75.75 0 01-.518.209z" fill="#3076BC"/></svg>