<svg xmlns="http://www.w3.org/2000/svg" viewBox="0 0 48 48"><path d="M0 40.252h48V7.462H0v32.791z" fill="#0078D4"/><path d="M35.318 16.313a7.57 7.57 0 00-7.57 7.57c0 1.97.749 3.764 1.987 5.112h-11.73a7.524 7.524 0 001.987-5.112 7.57 7.57 0 00-15.141 0 7.565 7.565 0 007.57 7.57c.152 0 .303-.008.455-.016h21.97c.152.008.304.017.455.017a7.57 7.57 0 007.57-7.571c0-4.185-3.376-7.57-7.553-7.57zM7.385 23.875a5.053 5.053 0 015.045-5.045 5.053 5.053 0 015.044 5.045 5.053 5.053 0 01-5.044 5.044 5.048 5.048 0 01-5.045-5.044zm27.933 5.044a5.053 5.053 0 01-5.044-5.044 5.053 5.053 0 015.044-5.045 5.053 5.053 0 015.044 5.045 5.053 5.053 0 01-5.044 5.044z" fill="#50E6FF"/></svg>