<svg xmlns="http://www.w3.org/2000/svg" viewBox="0 0 48 48"><path d="M47.781 23.815c-2.34-3.215-5.26-5.849-9.5-8.474-4.822-2.92-9.501-4.216-14.474-4.216-5.411 0-9.207 1.439-14.18 4.216-3.795 2.196-7.304 5.453-9.492 8.525 0 .143 0 .437.143.732 2.482 3.509 4.822 5.217 9.5 8.137 4.974 2.92 9.644 4.384 14.323 4.384 5.117 0 10.09-1.464 14.912-4.527 3.509-2.34 6.58-4.973 8.768-8.036.152-.152.152-.59 0-.741z" fill="#0078D4"/><path d="M24 35.41c6.325 0 11.453-5.128 11.453-11.453 0-6.325-5.128-11.453-11.453-11.453-6.325 0-11.453 5.128-11.453 11.453 0 6.325 5.128 11.453 11.453 11.453z" fill="#50E6FF"/><path d="M24 27.914a3.955 3.955 0 100-7.91 3.955 3.955 0 000 7.91z" fill="#0078D4"/></svg>