<svg xmlns="http://www.w3.org/2000/svg" viewBox="0 0 49 49"><path d="M46.834 22.529L30.405 6.032a2.367 2.367 0 00-3.38 0l-.541.541 15.888 15.888a2.367 2.367 0 010 3.38L26.484 41.798l.54.541a2.367 2.367 0 003.381 0l16.497-16.496c.879-.88.879-2.367-.068-3.313z" fill="#50E6FF"/><path d="M38.18 22.529L21.753 6.032a2.367 2.367 0 00-3.38 0L14.922 9.48l4.327 4.327c.27-.067.54-.135.879-.135a2.857 2.857 0 012.84 2.84c0 .338-.068.608-.136.878l4.192 4.192c.27-.135.609-.135.947-.135a2.857 2.857 0 012.84 2.84 2.857 2.857 0 01-2.84 2.84 2.857 2.857 0 01-2.84-2.84c0-.406.068-.812.27-1.15l-3.92-3.921v10.412c.878.473 1.554 1.42 1.554 2.569a2.857 2.857 0 01-2.84 2.84 2.857 2.857 0 01-2.84-2.84 2.83 2.83 0 011.759-2.637V19.216c-1.014-.406-1.758-1.488-1.758-2.637 0-.405.067-.811.27-1.217l-4.191-4.192L1.874 22.53a2.367 2.367 0 000 3.38l16.497 16.497a2.367 2.367 0 003.38 0L38.248 25.91a2.43 2.43 0 00-.067-3.38z" fill="#0078D4"/></svg>