<svg xmlns="http://www.w3.org/2000/svg" viewBox="0 0 48 48"><path d="M42.994 22.724a2.52 2.52 0 100-5.04 2.52 2.52 0 000 5.04zm0 5.046a2.52 2.52 0 100-5.04 2.52 2.52 0 000 5.04zm-.008 5.068a2.529 2.529 0 100-5.057 2.529 2.529 0 000 5.057zm-2.555 5.073a2.545 2.545 0 100-5.09 2.545 2.545 0 000 5.09z" fill="#0078D4"/><path d="M42.994 17.69l-12.668-.017 2.191-6.195a8.927 8.927 0 00.506-2.9l.008-.86v-.143h-.008a2.508 2.508 0 00-2.512-2.368 2.526 2.526 0 00-2.427 1.846 8.371 8.371 0 01-.59 1.483l-1.736 3.44a6.563 6.563 0 01-1.281 1.752l-4.232 4.13-2.562 2.495-2.402.017-7.08 6.127 7.207 8.884h2.284l-.009.008 4.122 2.15c.463.244.977.37 1.5.37h17l.017-5.057h2.697l-.025-15.162z" fill="#0078D4"/><path d="M5.125 37.87H15.34l.025-17.522h-12.6l2.36 17.522z" fill="#50E6FF"/><path d="M11.361 35.418a1.256 1.256 0 100-2.512 1.256 1.256 0 000 2.512z" fill="#0078D4"/></svg>