<svg xmlns="http://www.w3.org/2000/svg" viewBox="0 0 48 48"><path d="M1.938 21.849l.75.187a48.93 48.93 0 0028.89 0 46.58 46.58 0 0013.226-6.378l.656-.469.47-.281c-.282-.188-.563-.375-.845-.47h-.094C40.864 12.845 33.641 12 23.981 12c-9.662 0-16.978.844-21.105 2.439-.469.187-.844.469-1.22.844-.468.375-.656 1.032-.656 1.595v4.69l.938.28zm20.542-5.16h3.189v1.501h-3.19v-1.5z" fill="#50E6FF"/><path d="M46.867 16.034l-1.22.844c-4.22 2.908-8.722 5.16-13.6 6.566a50.218 50.218 0 01-29.734 0l-1.22-.375v.469c.095 3.001 1.408 5.815 3.659 7.973 2.345 2.25 5.44 3.564 8.817 3.564h1.97c.562 0 1.125-.188 1.5-.469l3.19-2.439c.938-.938 2.345-1.407 3.752-1.407 1.406 0 2.813.563 3.845 1.501l3.19 2.439c.468.281.937.469 1.5.469h1.97c3.377 0 6.472-1.22 8.817-3.564 2.345-2.252 3.658-5.253 3.658-8.442v-6.097c.094-.47 0-.75-.094-1.032z" fill="#0078D7"/></svg>