<svg xmlns="http://www.w3.org/2000/svg" viewBox="0 0 49 49"><path d="M14.74 35.878c0-5.522 4.478-9.992 10.01-9.992s10.01 4.47 10.01 9.992H14.74zm15.71-17.24a5.667 5.667 0 01-5.675 5.665 5.667 5.667 0 01-5.675-5.665 5.667 5.667 0 015.675-5.665 5.672 5.672 0 015.676 5.665z" fill="#0078D7"/><path d="M24.783 47.016L5.16 35.702V13.084L24.783 1.77l19.624 11.314v22.618L24.783 47.016zM6.425 34.978L24.783 45.56l18.359-10.58V13.806L24.783 3.227 6.425 13.806v21.171z" fill="#50E6FF"/><path d="M24.657 5.7a2.612 2.612 0 002.614-2.61c0-1.44-1.17-2.609-2.614-2.609a2.612 2.612 0 00-2.614 2.61c0 1.44 1.17 2.609 2.614 2.609zm0 42.752a2.612 2.612 0 002.614-2.61c0-1.44-1.17-2.609-2.614-2.609a2.612 2.612 0 00-2.614 2.61c0 1.441 1.17 2.61 2.614 2.61zm19.058-9.956a2.612 2.612 0 002.615-2.61c0-1.441-1.17-2.61-2.614-2.61a2.612 2.612 0 00-2.615 2.61c0 1.441 1.17 2.61 2.614 2.61zm0-22.796a2.612 2.612 0 002.615-2.61c0-1.441-1.17-2.61-2.614-2.61a2.612 2.612 0 00-2.615 2.61c0 1.441 1.17 2.61 2.614 2.61zM5.759 38.428A2.52 2.52 0 008.28 35.91a2.52 2.52 0 00-2.521-2.517 2.52 2.52 0 00-2.521 2.517 2.52 2.52 0 002.521 2.517zm0-22.644a2.52 2.52 0 002.521-2.517 2.52 2.52 0 00-2.52-2.517 2.52 2.52 0 00-2.521 2.517 2.52 2.52 0 002.521 2.517z" fill="#0078D7"/></svg>