<svg xmlns="http://www.w3.org/2000/svg" viewBox="0 0 48 48"><path d="M32.924 25.316H15.102l2.661 22.607h12.465l2.696-22.607z" fill="#0078D4"/><path d="M15.102 20.24h17.822l-.295-2.502H15.396l-.294 2.502zm20.197 1.22H12.634v2.528h22.665V21.46z" fill="#50E6FF"/><path d="M22.648 14.283s-3.765-1.828-3.765-4.49c0-3.705 5.281-3.705 5.281-6.51 0-2.923-1.432-3.26-1.432-3.26s3.698.615 3.732 3.26c.059 4.32-5.054 3.984-5.054 7.521.009 2.359 1.238 3.479 1.238 3.479z" fill="#0078D4"/><path d="M25.293 16.198S22.37 14.32 22.37 11.65c0-3.706 5.163-3.933 5.163-7.353 0-2.501-1.12-2.973-1.12-2.973s2.864 1.07 2.864 3.706c0 4.91-4.944 3.984-4.944 6.738 0 2.99.96 4.43.96 4.43z" fill="#0078D4"/></svg>