<svg xmlns="http://www.w3.org/2000/svg" viewBox="0 0 48 49"><path d="M45.44 21.697c-1.212 0-2.22.858-2.465 1.994H5.035a2.516 2.516 0 00-4.98.521 2.516 2.516 0 002.515 2.515 2.508 2.508 0 002.406-1.783h38.05a2.524 2.524 0 002.405 1.783 2.516 2.516 0 002.515-2.515c.017-1.388-1.119-2.515-2.506-2.515z" fill="#0078D4"/><path d="M40.35 5.373a2.516 2.516 0 00-2.514 2.515c0 .487.134.933.37 1.32L23.529 23.885l.891.891 14.694-14.693c.361.21.79.328 1.236.328a2.516 2.516 0 002.515-2.515 2.513 2.513 0 00-2.515-2.523zm-17.561 19.25l-13.87 13.87a2.52 2.52 0 00-1.295-.363 2.516 2.516 0 00-2.515 2.515 2.516 2.516 0 002.515 2.515 2.516 2.516 0 002.515-2.515 2.54 2.54 0 00-.336-1.253L23.68 25.514l-.891-.891z" fill="#50E6FF"/><path d="M40.375 38.183c-.454 0-.874.118-1.236.328L9.786 9.158a2.516 2.516 0 00-2.17-3.785A2.516 2.516 0 005.1 7.888a2.516 2.516 0 003.801 2.161L38.24 39.386c-.235.387-.37.832-.37 1.32a2.516 2.516 0 002.515 2.515 2.516 2.516 0 002.515-2.515 2.536 2.536 0 00-2.524-2.523z" fill="#50E6FF"/><path d="M24.672 43.308V5.351a2.516 2.516 0 00-.648-4.946A2.516 2.516 0 0021.51 2.92c0 1.177.816 2.17 1.91 2.447V43.3a2.52 2.52 0 00.605 4.962 2.52 2.52 0 00.648-4.954z" fill="#0078D4"/><path d="M29.021 24.196a5.036 5.036 0 01-5.038 5.038 5.036 5.036 0 01-5.038-5.038 5.036 5.036 0 015.038-5.038 5.036 5.036 0 015.038 5.038z" fill="#50E6FF"/></svg>