<svg xmlns="http://www.w3.org/2000/svg" viewBox="0 0 48 48"><path d="M47.222 21.946c.025-.11.041-.21.066-.32a10.68 10.68 0 00.193-2.025c0-5.942-4.795-10.742-10.695-10.742-.828 0-1.631.093-2.393.278-2.443-3.867-6.736-6.43-11.64-6.43-7.607 0-13.757 6.203-13.757 13.817 0 .194 0 .379.008.564a6.846 6.846 0 00-2.21-.37c-3.748 0-6.777 3.042-6.777 6.808 0 3.53 2.677 6.43 6.108 6.766l30.661.058c4.034 0 7.532-2.235 9.356-5.522.05-.092.1-.184.15-.285.268-.563.678-1.454.93-2.597z" fill="#50E6FF"/><path d="M48 26.703l-19.07 8.035-19.064-8.035 19.063-8.035L48 26.703z" fill="#0078D7"/><path d="M28.93 36.328L17.832 31.62v3.093c0 3.127 4.803 5.665 10.82 5.665 6.008 0 11.289-2.538 11.289-5.665v-2.858l-11.013 4.472zM42 42.395a2.021 2.021 0 002.017-2.026A2.021 2.021 0 0042 38.344a2.021 2.021 0 00-2.017 2.025c0 1.119.903 2.026 2.017 2.026z" fill="#0078D7"/><path d="M42.745 41.014s.837 2.05 2.159 2.891a11.107 11.107 0 002.577 1.202l-3.774 2.891s-1.975-.605-2.276-3.555c-.301-2.95.753-4.068.753-4.068l.56.639zm.108-14.295h-1.74V39.25h1.74V26.72z" fill="#0078D7"/></svg>