<svg xmlns="http://www.w3.org/2000/svg" viewBox="0 0 48 48"><path fill-rule="evenodd" clip-rule="evenodd" d="M15.324 46.704a3.658 3.658 0 01-2.886-1.401L1.575 31.755a3.669 3.669 0 01-.713-3.177L4.74 11.666a3.68 3.68 0 012.017-2.524l15.704-7.538a3.675 3.675 0 013.228 0l15.705 7.507a3.678 3.678 0 012.017 2.522l3.88 16.913a3.767 3.767 0 01-.714 3.178l-10.863 13.55a3.757 3.757 0 01-2.886 1.4l-17.505.031z" fill="#0078D4"/><path fill-rule="evenodd" clip-rule="evenodd" d="M24.045.545a4.692 4.692 0 00-1.923.436L6.417 8.519a4.41 4.41 0 00-2.42 3.021L.117 28.453a4.425 4.425 0 00.87 3.8l10.861 13.55a4.382 4.382 0 003.445 1.652h17.41a4.38 4.38 0 003.446-1.652l10.863-13.548a4.408 4.408 0 00.869-3.8L44 11.54a4.41 4.41 0 00-2.42-3.02L25.939.98a4.442 4.442 0 00-1.894-.436zm0 1.464c.44 0 .874.096 1.273.28l15.705 7.506a3.022 3.022 0 011.614 2.025l3.878 16.913a2.917 2.917 0 01-.59 2.553l-10.862 13.55a2.953 2.953 0 01-2.327 1.121H15.324a2.954 2.954 0 01-2.326-1.12L2.134 31.286a3.126 3.126 0 01-.59-2.554l3.88-16.913a2.97 2.97 0 011.613-2.025l15.706-7.538c.416-.16.857-.245 1.302-.25v.002z" fill="#50E6FF"/><path fill-rule="evenodd" clip-rule="evenodd" d="M32.27 29.98A9.878 9.878 0 0129.29 33l-1.955-4.702a.84.84 0 01.435-.966.987.987 0 01.435-.094l4.965.842a6.3 6.3 0 01-.9 1.9zm-6.054 4.33c-.713.16-1.442.244-2.173.25a10.485 10.485 0 01-3.134-.502l2.45-4.453a.815.815 0 01.994-.219c.146.09.272.206.373.344l2.39 4.328c-.28.094-.59.156-.9.251zm-11.326-6.2l4.935-.84a.837.837 0 01.869.654.895.895 0 01-.032.5l-1.893 4.577a9.812 9.812 0 01-3.88-4.89zm.837-8.44l3.693 3.3a.83.83 0 01.094 1.153.615.615 0 01-.374.251l-4.808 1.4a10.048 10.048 0 011.395-6.104zm6.115-4.423c.341-.062.651-.124.993-.187l-.28 4.984a.85.85 0 01-.838.808.734.734 0 01-.374-.093l-4.127-2.961a9.453 9.453 0 014.624-2.554l.002.003zm9 2.554l-4.066 2.896a.825.825 0 01-1.087-.186.702.702 0 01-.154-.343l-.279-5.077a9.404 9.404 0 015.586 2.71zm2.67 4.828c.24 1.03.314 2.093.217 3.145l-4.749-1.37a.842.842 0 01-.59-.996.727.727 0 01.187-.342l3.755-3.396c.549.917.946 1.916 1.18 2.961v-.002zm-8.102 3.24l-1.365.654-1.366-.655-.341-1.464.932-1.183h1.52l.931 1.183-.311 1.464zm14.37 1.525h-.03c-.032 0-.063 0-.063-.03-.062 0-.125-.032-.187-.032a4.223 4.223 0 00-.59-.062 1.127 1.127 0 01-.31-.032h-.03a8.092 8.092 0 01-1.676-.28.607.607 0 01-.342-.342c0-.032-.031-.032-.031-.062l-.404-.126a12.354 12.354 0 00-.217-4.391 12.825 12.825 0 00-1.738-4.081l.31-.28v-.062a.712.712 0 01.155-.468 9.04 9.04 0 011.398-.964c.093-.062.186-.094.28-.156.181-.092.357-.196.527-.31.031-.032.092-.063.154-.126.032-.032.062-.032.062-.063.427-.337.522-.949.218-1.401a.882.882 0 00-.714-.343 1.144 1.144 0 00-.683.251l-.062.062c-.062.031-.092.093-.154.125a5.272 5.272 0 00-.404.435 1.473 1.473 0 01-.217.22 7.93 7.93 0 01-1.242 1.12.495.495 0 01-.279.093.398.398 0 01-.185-.03h-.062l-.374.25a15.05 15.05 0 00-1.274-1.187 12.365 12.365 0 00-6.485-2.585l-.032-.405-.062-.062a.65.65 0 01-.249-.405c-.012-.562.02-1.125.094-1.682v-.031c.005-.106.026-.212.062-.312.03-.186.06-.375.092-.591v-.28a.95.95 0 00-.867-1.025.949.949 0 00-.776.306.99.99 0 00-.279.717v.25c-.002.202.03.401.094.593.03.093.03.186.062.31v.032c.088.556.12 1.12.092 1.681a.65.65 0 01-.249.405l-.062.063-.031.405a15.21 15.21 0 00-1.676.25 11.958 11.958 0 00-6.145 3.488l-.31-.218h-.061c-.062 0-.125.032-.186.032a.499.499 0 01-.28-.094 8.222 8.222 0 01-1.24-1.153 1.516 1.516 0 00-.218-.218 5.433 5.433 0 00-.403-.435c-.032-.032-.094-.063-.156-.126-.03-.031-.062-.031-.062-.062a1.078 1.078 0 00-.682-.25.88.88 0 00-.713.343 1.045 1.045 0 00.216 1.401c.032 0 .032.03.062.03.062.032.093.095.155.126.169.116.346.22.528.312.1.04.193.092.279.155a9.19 9.19 0 011.397.966.575.575 0 01.154.467v.063l.31.28a1.15 1.15 0 00-.154.25 12.163 12.163 0 00-1.738 8.223l-.403.125c0 .032-.032.032-.032.062a.724.724 0 01-.341.343 7.841 7.841 0 01-1.676.28h-.032a1.025 1.025 0 00-.31.03 4.224 4.224 0 00-.589.063c-.062 0-.125.032-.186.032a.11.11 0 00-.093.031 1.02 1.02 0 00-.807 1.153.956.956 0 00.993.716.69.69 0 00.25-.032c.03 0 .06 0 .06-.03.062 0 .125-.032.187-.032.192-.054.38-.127.558-.22.093-.03.186-.093.279-.125h.031a7.646 7.646 0 011.614-.467h.062c.148.007.29.062.404.156.031 0 .031.032.062.032l.434-.062a12.326 12.326 0 004.066 5.855c.425.329.87.63 1.334.903l-.186.405c0 .031.031.031.031.062.088.15.11.332.062.5a8.827 8.827 0 01-.808 1.464v.032c-.06.093-.123.155-.186.25-.123.156-.216.31-.34.5a.687.687 0 00-.093.155.109.109 0 01-.032.063.988.988 0 00.397 1.336l.007.003c.116.06.244.093.373.094.393-.02.746-.244.931-.592a.114.114 0 01.032-.062.645.645 0 01.093-.156 6.04 6.04 0 00.186-.561l.093-.28a7.307 7.307 0 01.652-1.557.788.788 0 01.404-.28c.03 0 .03 0 .062-.032l.216-.404c1.387.534 2.86.809 4.346.809.909.006 1.815-.1 2.7-.311a13.69 13.69 0 001.614-.468l.186.343c.031 0 .031 0 .062.032a.575.575 0 01.403.28c.258.499.475 1.018.65 1.553v.031l.094.28c.048.191.11.379.186.56.031.063.062.094.093.157a.107.107 0 00.03.062c.176.356.535.586.932.591a.827.827 0 00.375-.092.928.928 0 00.463-.561 1.129 1.129 0 00-.06-.778c0-.032-.032-.032-.032-.063a.642.642 0 00-.094-.156 2.775 2.775 0 00-.341-.5c-.062-.093-.124-.155-.186-.25v-.03a7.05 7.05 0 01-.807-1.466.875.875 0 01.031-.5c0-.03.03-.03.03-.061l-.154-.376a12.353 12.353 0 005.402-6.82l.374.061c.031 0 .031-.031.062-.031a.778.778 0 01.402-.155h.062a7.594 7.594 0 011.615.466h.03c.094.031.186.094.28.125.178.091.366.165.559.218.06 0 .124.032.186.032a.113.113 0 01.093.03.68.68 0 00.25.032c.449.001.85-.287.992-.717a1.2 1.2 0 00-.9-1.027l-.004.005z" fill="#50E6FF"/></svg>