<svg xmlns="http://www.w3.org/2000/svg" viewBox="0 0 48 48"><path fill-rule="evenodd" clip-rule="evenodd" d="M39.684 21.758c2.06 8.418-3.171 16.893-11.683 18.93-8.51 2.036-17.08-3.137-19.139-11.555-2.059-8.419 3.172-16.894 11.683-18.93l.029-.007c8.47-2.048 17.015 3.083 19.086 11.461.008.034.017.067.024.101z" fill="#0078D4"/><path fill-rule="evenodd" clip-rule="evenodd" d="M22.03 31.718c-.005-2.302-1.895-4.163-4.222-4.157h-.638c.54-2.225-.843-4.461-3.092-4.996a4.196 4.196 0 00-1.014-.115H8.686A15.399 15.399 0 0012.5 35.874h5.306c2.327.005 4.217-1.856 4.223-4.156zm5.229-17.238c0 .244.032.486.096.722h-1.823c-2.417 0-4.376 1.938-4.376 4.329 0 2.39 1.959 4.327 4.376 4.327h14.491c-.471-5.17-3.557-9.753-8.198-12.178h-1.727c-1.566-.001-2.835 1.252-2.84 2.8zm12.766 12.597H31.38c-1.973-.004-3.575 1.57-3.582 3.52a3.464 3.464 0 00.43 1.676c-1.876.58-2.922 2.556-2.336 4.412a3.558 3.558 0 003.416 2.471h2.41c4.617-2.42 7.727-6.941 8.307-12.079zM6.518 15.006a.483.483 0 01-.487-.478v-.001c-.008-3.024-2.489-5.47-5.546-5.468A.482.482 0 010 8.58c0-.263.217-.478.485-.478 3.053.003 5.533-2.439 5.546-5.458a.484.484 0 01.508-.46c.252.01.454.21.466.46.007 3.023 2.49 5.47 5.547 5.466.267 0 .484.215.484.48a.482.482 0 01-.484.479c-3.056-.004-5.538 2.44-5.547 5.462a.485.485 0 01-.487.475z" fill="#50E6FF"/><path fill-rule="evenodd" clip-rule="evenodd" d="M40.725 45.817a.286.286 0 01-.288-.284c-.007-1.808-1.492-3.27-3.32-3.266a.286.286 0 01-.289-.284c0-.157.128-.284.287-.284h.002c1.827 0 3.31-1.46 3.316-3.267a.29.29 0 01.292-.288c.16 0 .29.129.29.288.007 1.807 1.49 3.268 3.317 3.267a.285.285 0 01.289.283.285.285 0 01-.287.285h-.002c-1.827-.001-3.31 1.46-3.316 3.267a.286.286 0 01-.29.283h-.001z" fill="#0072C5"/><path fill-rule="evenodd" clip-rule="evenodd" d="M47.369 11.333c-1.513-2.451-5.316-3.018-10.99-1.643a45.587 45.587 0 00-5.21 1.643c1.095.53 2.125 1.18 3.07 1.94a38.636 38.636 0 012.818-.814 19.981 19.981 0 014.625-.648c1.859 0 2.884.454 3.227 1.007.561.909.045 3.306-3.255 7.077-.587.67-1.247 1.35-1.942 2.034a66.003 66.003 0 01-11.941 9.055 66.008 66.008 0 01-13.624 6.414c-5.744 1.851-9.665 1.814-10.544.393-.878-1.42.879-4.893 5.166-9.108a15.35 15.35 0 01-.352-3.65c-6.825 6.1-9.034 11.386-7.27 14.242.923 1.495 2.941 2.336 5.89 2.336a30.29 30.29 0 0010.193-2.224 73.017 73.017 0 0012.04-5.973 72.505 72.505 0 0010.832-7.93 44.49 44.49 0 003.73-3.728c3.828-4.37 5.05-7.976 3.537-10.423z" fill="#0078D4"/></svg>