<svg xmlns="http://www.w3.org/2000/svg" viewBox="0 0 49 49"><path d="M25.986 34.323V3.445h-1.548V36.9l-.01 3.167v.02a2.5 2.5 0 01-2.495 2.495 2.5 2.5 0 01-2.495-2.495v-.02h-1.559v.02a4.05 4.05 0 004.054 4.054 4.05 4.05 0 004.053-4.054v-5.764z" fill="#0078D4"/><path d="M48.024 24.068c-1.935-8.3-11.518-14.614-23.046-14.614-11.539 0-21.122 6.314-23.057 14.634-.01.02-.01.041-.01.061 0 .02-.01.041-.01.051 0 .214.173.387.387.387a.362.362 0 00.295-.142c.927-1.222 2.343-1.996 3.931-1.996 1.793 0 3.361.998 4.267 2.505a.39.39 0 00.672 0c.907-1.507 2.475-2.505 4.268-2.505 1.823 0 3.421 1.028 4.318 2.576.152.265.53.265.682 0 .896-1.548 2.495-2.576 4.318-2.576 1.803 0 3.381 1.008 4.277 2.525a.39.39 0 00.672 0c.907-1.517 2.485-2.525 4.278-2.525 1.782 0 3.36.987 4.267 2.495.153.254.52.254.672 0 .906-1.497 2.475-2.495 4.267-2.495 1.548 0 2.933.743 3.87 1.924a.382.382 0 00.306.143.387.387 0 00.386-.387c0-.02 0-.04-.01-.061z" fill="#0078D4"/></svg>