<svg xmlns="http://www.w3.org/2000/svg" viewBox="0 0 48 49"><path d="M36.103 38.712l-1.939-1.635 10.573-12.53-10.244-12.975 1.981-1.569L48 24.598 36.103 38.712zm-24.577-.051L0 24.075 11.905 9.96l1.93 1.628L3.264 24.125l10.244 12.968-1.981 1.568z" fill="#0078D4"/><path d="M24.14 29.158a4.485 4.485 0 100-8.971 4.485 4.485 0 000 8.97z" fill="#50E6FF"/><path d="M35.673 23.09l-3.389-.397-.101-.346a8.136 8.136 0 00-.801-1.872l-.186-.32 1.813-2.285c.143-.185.152-.421.025-.548l-1.753-1.753c-.135-.135-.371-.127-.548.025l-2.344 1.855-.312-.169a8.412 8.412 0 00-1.822-.7l-.362-.092-.38-3.263c-.025-.228-.185-.405-.37-.405h-2.48c-.185 0-.345.177-.37.405l-.396 3.38-.33.11a7.736 7.736 0 00-1.702.784l-.32.194-2.522-1.99c-.185-.143-.421-.151-.548-.025l-1.754 1.754c-.135.135-.118.37.026.548l2.082 2.639-.152.312a8.296 8.296 0 00-.564 1.433l-.102.346-3.389.396c-.228.025-.405.186-.405.371v2.479c0 .185.177.346.405.37l3.398.397.101.346c.143.472.329.953.565 1.408l.16.312-2.1 2.656c-.143.185-.151.421-.025.548l1.754 1.754c.135.135.371.118.548-.026l2.555-2.023.32.194a7.9 7.9 0 001.636.742l.329.11.38 3.245c.024.228.185.405.37.405h2.479c.186 0 .346-.177.371-.405l.363-3.102.362-.093a8.292 8.292 0 001.821-.691l.312-.16 2.31 1.829c.186.143.422.152.549.025l1.753-1.754c.135-.134.127-.37-.025-.548l-1.762-2.226.194-.32a8.09 8.09 0 00.826-1.88l.101-.346 3.406-.396c.228-.025.405-.186.405-.371v-2.479c0-.202-.177-.362-.405-.388zM24.14 30.246a5.58 5.58 0 01-5.573-5.573A5.58 5.58 0 0124.14 19.1a5.585 5.585 0 015.573 5.573 5.585 5.585 0 01-5.573 5.573z" fill="#0078D7"/></svg>