<svg xmlns="http://www.w3.org/2000/svg" viewBox="0 0 48 49"><circle cx="24.503" cy="24.927" r="16.886" fill="#50E6FF"/><path d="M42.802 22.38c-.443-3.207-1.66-6.304-3.76-8.958l3.65-3.65-3.54-3.54-3.65 3.65c-2.654-1.99-5.75-3.318-8.958-3.76V.924h-5.088v5.198c-3.207.442-6.304 1.659-8.958 3.76l-3.65-3.65-3.54 3.54 3.65 3.65c-1.99 2.654-3.317 5.75-3.76 8.958H0v5.088h5.198c.443 3.318 1.77 6.304 3.76 8.958l-3.65 3.65 3.54 3.54 3.65-3.65c2.654 1.99 5.64 3.317 8.958 3.76v5.198h5.088v-5.198c3.207-.443 6.304-1.66 8.958-3.76l3.65 3.65 3.54-3.54-3.65-3.65c1.99-2.654 3.317-5.751 3.76-8.958H48V22.38h-5.198zm-4.535 6.857c-.995 3.318-3.097 6.194-5.972 8.074-2.876 1.88-6.304 2.765-9.733 2.433-3.428-.332-6.636-1.88-9.069-4.313-1.438-1.438-2.544-2.986-3.207-4.867-.774-1.77-1.106-3.76-1.106-5.75 0-3.43 1.216-6.858 3.428-9.512 2.212-2.655 5.198-4.535 8.627-5.198a15.39 15.39 0 019.954 1.437c3.097 1.66 5.42 4.314 6.746 7.41 1.217 3.43 1.328 6.968.332 10.286z" fill="#0078D4"/><path d="M18.281 26.912c0 .92-.322 1.655-.965 2.114-.644.506-1.563.736-2.804.736-.965 0-1.792-.184-2.436-.552v-2.114a3.872 3.872 0 002.528.965c.414 0 .827-.092 1.057-.23.23-.184.322-.413.322-.735s-.092-.552-.322-.736c-.23-.23-.735-.505-1.47-.827-1.471-.643-2.207-1.655-2.207-2.803 0-.92.322-1.563.966-2.069.643-.505 1.47-.827 2.527-.827.92 0 1.7.184 2.39.414v2.068a4.006 4.006 0 00-2.206-.644c-.413 0-.735.092-.965.23-.23.184-.322.414-.322.736 0 .321.092.551.322.735.184.184.552.414 1.241.735.92.414 1.563.828 1.976 1.287.184.368.368.873.368 1.517zm8.087-2.067c0-.966-.23-1.7-.643-2.298-.414-.552-.966-.828-1.701-.828-.736 0-1.379.23-1.793.828-.505.551-.643 1.287-.643 2.298 0 .919.23 1.7.643 2.298.414.551 1.057.827 1.793.827.735 0 1.287-.23 1.792-.827.322-.552.552-1.287.552-2.298zm2.298-.092c0 1.149-.23 2.114-.735 2.941-.506.827-1.241 1.379-2.207 1.7l2.804 2.62h-2.803l-1.977-2.206c-.827 0-1.654-.23-2.298-.643-.643-.414-1.24-.965-1.563-1.7-.413-.736-.551-1.563-.551-2.437 0-.965.184-1.884.552-2.711a4.023 4.023 0 011.7-1.793c.735-.413 1.563-.643 2.528-.643.919 0 1.7.184 2.39.551.735.414 1.24.966 1.654 1.7a7 7 0 01.506 2.62zm7.352 4.871h-5.791v-9.56h2.206v7.86h3.585v1.7z" fill="#0078D4"/></svg>