<svg xmlns="http://www.w3.org/2000/svg" viewBox="0 0 97 97"><path d="M85.803 43.353a37.698 37.698 0 00-7.43-17.926l7.38-7.38-7.144-7.143-7.38 7.379c-5.122-3.892-11.237-6.537-17.926-7.43V.407H43.194v10.43a37.7 37.7 0 00-17.926 7.43l-7.363-7.363-7.143 7.143 7.38 7.38c-3.893 5.121-6.538 11.237-7.43 17.926H.248v10.109h10.428a37.7 37.7 0 007.43 17.926l-7.379 7.38 7.144 7.143 7.38-7.38c5.12 3.892 11.237 6.538 17.925 7.43v10.43h10.11V85.96a37.695 37.695 0 0017.925-7.43l7.38 7.38 7.144-7.143-7.38-7.38c3.892-5.122 6.537-11.238 7.43-17.926h10.463v-10.11H85.803z" fill="#0078D4"/><path d="M57.988 74.454l-5.813-16.342c4.414-1.651 7.582-5.88 7.582-10.867 0-6.369-5.156-11.508-11.508-11.508-6.368 0-11.507 5.156-11.507 11.508 0 5.02 3.201 9.266 7.666 10.833l-5.728 16.41.135.05.151.051c2.713.96 5.813 1.618 9.2 1.618a28.08 28.08 0 009.333-1.6c.118-.035.337-.12.337-.12l.152-.033z" fill="#0078D4"/><path d="M68.752 67.125a27.699 27.699 0 007.211-18.684c0-15.348-12.434-27.782-27.782-27.782a29.01 29.01 0 00-5.594.556c-.017 0-.034.017-.05.017-.405.084-.792.168-1.197.27-.236.067-.471.134-.69.184-.169.051-.354.102-.523.152a27.675 27.675 0 00-11.473 6.925c-5.257 5.256-8.138 12.214-8.138 19.628 0 7.413 2.881 14.388 8.138 19.628a27.668 27.668 0 0010.075 6.453l5.711-16.394c-4.447-1.567-7.665-5.83-7.665-10.833 0-6.369 5.155-11.507 11.507-11.507 6.368 0 11.507 5.155 11.507 11.507 0 4.987-3.168 9.216-7.599 10.816l5.813 16.343c3.673-1.365 7.026-3.522 9.873-6.352.236-.235.472-.489.691-.724.05-.067.118-.135.185-.203z" fill="#50E6FF"/></svg>