<svg xmlns="http://www.w3.org/2000/svg" viewBox="0 0 48 49"><path d="M0 43.282h47.992V6.397H0v36.885z" fill="#0078D4"/><path d="M0 10.388h47.975V5.386H0v5.002z" fill="#50E6FF"/><path d="M7.47 9.21a1.222 1.222 0 10-.002-2.443A1.222 1.222 0 007.47 9.21zm-3.79 0a1.222 1.222 0 10-.002-2.443A1.222 1.222 0 003.68 9.21zm7.663 0a1.222 1.222 0 000-2.441 1.222 1.222 0 000 2.442z" fill="#0078D4"/><path d="M35.326 27.998v-2.391H32.86a8.955 8.955 0 00-1.752-4.236l1.743-1.743-1.692-1.684-1.735 1.743a8.871 8.871 0 00-4.236-1.752v-2.467h-2.391v2.467a8.955 8.955 0 00-4.236 1.752l-1.743-1.743-1.693 1.692 1.743 1.743a8.87 8.87 0 00-1.751 4.236h-2.468v2.392h2.468a8.955 8.955 0 001.751 4.235l-1.743 1.744 1.693 1.692 1.743-1.743a8.87 8.87 0 004.236 1.752v2.459h2.391v-2.468a8.954 8.954 0 004.236-1.751l1.743 1.743 1.693-1.693-1.743-1.743a8.87 8.87 0 001.751-4.236h2.46zM24 31.83a5.035 5.035 0 01-5.027-5.027A5.035 5.035 0 0124 21.774a5.035 5.035 0 015.027 5.027A5.03 5.03 0 0124 31.83z" fill="#50E6FF"/></svg>