<svg xmlns="http://www.w3.org/2000/svg" viewBox="0 0 18 18"><linearGradient id="a" gradientUnits="userSpaceOnUse" x1="9" y1="2.5" x2="9" y2="19.5" gradientTransform="matrix(1 0 0 -1 0 20)"><stop offset="0" stop-color="#32bedd"/><stop offset=".226" stop-color="#32c9e9"/><stop offset=".547" stop-color="#32d1f2"/><stop offset="1" stop-color="#32d4f5"/></linearGradient><path d="M17.5 9.9V8l-.3-.1-2.1-.7-.5-1.3 1.1-2.2-1.4-1.4-.3.1-1.9 1-1.3-.5L9.9.5H8l-.1.3-.7 2-1.3.6-2.2-1.1-1.4 1.4.1.3 1 1.9-.5 1.3-2.4.9V10l.3.1 2.1.7.5 1.3-1.1 2.2 1.4 1.4.3-.1 1.9-1 1.3.5.9 2.3H10l.1-.3.7-2.1 1.3-.5 2.2 1.1 1.4-1.4-.1-.2-1-1.9.5-1.3 2.4-.9z" fill="url(#a)"/><path d="M12.3 6.5l-.8.7c1.1 1.2 1 3.1-.3 4.2s-3.1 1-4.2-.3C6 10 6 8.3 7 7.2h.1l.6.5h.1v-.1l-.2-2c0-.1-.1-.1-.2-.1l-1.9.3s-.1 0-.1.1l.6.5v.1c-1.4 1.7-1.2 4.2.5 5.6s4.2 1.2 5.6-.5c1.5-1.5 1.5-3.7.2-5.1z" fill="#fff"/></svg>