<svg xmlns="http://www.w3.org/2000/svg" viewBox="0 0 49 51"><path d="M43.737 9.223L40.164 5.65l-3.692 3.692a18.846 18.846 0 00-8.966-3.713V.407h-5.053V5.63a18.845 18.845 0 00-8.965 3.713L9.796 5.65 6.223 9.223l3.692 3.692a18.845 18.845 0 00-3.713 8.966H.98v5.053h5.222A18.846 18.846 0 009.915 35.9l-3.692 3.69 3.573 3.573 3.692-3.692a18.957 18.957 0 0022.984 0l3.692 3.692 3.573-3.573-3.692-3.691a18.845 18.845 0 003.713-8.966h5.222V21.88h-5.222a18.846 18.846 0 00-3.713-8.966l3.692-3.692zm-28.582 25.01a13.895 13.895 0 119.825 4.069 13.803 13.803 0 01-9.825-4.07z" fill="#50E6FF"/><path d="M21.407 16.189l-8.932 8.932 3.573 3.573 6.405-6.406v26.118h5.053V22.288l6.406 6.406 3.572-3.573-8.932-8.932-3.572-3.573-3.573 3.573z" fill="#0078D4"/></svg>