<svg xmlns="http://www.w3.org/2000/svg" viewBox="0 0 18 18"><defs><radialGradient id="a" cx="7.18" cy="9.5" r="7.38" gradientUnits="userSpaceOnUse"><stop offset="0" stop-color="#76bc2d"/><stop offset=".41" stop-color="#74b92c"/><stop offset=".66" stop-color="#6fb12a"/><stop offset=".88" stop-color="#66a227"/><stop offset="1" stop-color="#5e9624"/></radialGradient></defs><path d="M10 10.24a1 1 0 01-.31.79 1.49 1.49 0 01-.89.37v.6h-.44v-.62a2.36 2.36 0 01-1.1-.28v-.81a1.8 1.8 0 00.5.25 2.49 2.49 0 00.6.14V9.64a2.42 2.42 0 01-.91-.53 1.15 1.15 0 01.06-1.55 1.41 1.41 0 01.85-.38v-.55h.43v.54a2.21 2.21 0 01.92.2v.8a2.28 2.28 0 00-.92-.31V9a2.34 2.34 0 01.92.54 1 1 0 01.29.7zM8.36 8.81v-.93A.4.4 0 008 8.3c0 .21.13.38.4.51zm.85 1.47c0-.19-.14-.34-.42-.47v.9c.28-.05.42-.19.42-.43z" fill="#258277"/><path d="M16.54 9.49h-3.6a4.43 4.43 0 01-1.48 3.3l2.39 2.69a8 8 0 002.69-6" fill="#ffca00"/><path d="M8.52 13.93a4.43 4.43 0 010-8.86V1.49a8 8 0 00-8 8 8 8 0 008 8 8 8 0 005.34-2l-2.4-2.69a4.38 4.38 0 01-2.94 1.13z" fill="url(#a)"/><path d="M8.15.48v4.16a5.09 5.09 0 015.17 5.18h4.18A9.34 9.34 0 008.15.48z" fill="#ccc"/><path d="M13.34 9.82a5.13 5.13 0 00-5.06-5.18h-.13l.33.62a4.5 4.5 0 014.23 4.25z" fill="#999"/></svg>