<svg xmlns="http://www.w3.org/2000/svg" viewBox="0 0 49 49"><path d="M21.88 38.363c9.005 0 16.304-7.299 16.304-16.303 0-9.004-7.3-16.303-16.303-16.303-9.004 0-16.303 7.3-16.303 16.303 0 9.004 7.299 16.303 16.303 16.303z" fill="#0078D4"/><path d="M38.243 4.401l-3.596 3.596-.034.034a18.805 18.805 0 014.724 6.653 18.859 18.859 0 011.49 7.368c0 2.551-.496 5.035-1.49 7.368a18.805 18.805 0 01-4.059 6.021 18.805 18.805 0 01-6.02 4.06 18.609 18.609 0 01-7.377 1.498c-2.56 0-5.036-.497-7.369-1.49a18.805 18.805 0 01-6.653-4.725L6.074 36.57a21.395 21.395 0 0014.383 6.897v2.576H10.36v2.518h22.712v-2.518H22.967v-2.551c11.351-.564 20.379-9.945 20.379-21.44a21.355 21.355 0 00-5.204-14.004l1.877-1.878-1.776-1.77z" fill="#50E6FF"/><path d="M24.458 8.822a4.211 4.211 0 00-4.463 3.941c-.143 2.325 4.185 8.06 4.185 8.06s4.076-5.222 4.219-7.546a4.214 4.214 0 00-3.941-4.455z" fill="#50E6FF"/><path d="M26.732 13.168a2.535 2.535 0 11-5.061-.312 2.535 2.535 0 015.06.312z" fill="#0078D4"/></svg>