<svg xmlns="http://www.w3.org/2000/svg" viewBox="0 0 48 49"><path d="M4.77 35.901V13.862L23.858 2.838l19.095 11.024v22.039L23.857 46.925 4.771 35.9z" fill="#50E6FF"/><path d="M23.857 4.259l17.856 10.31v20.62L23.857 45.507 6.001 35.197v-20.62L23.857 4.26zm0-2.838l-1.23.713L4.77 12.444l-1.23.714v23.458l1.23.714 17.856 10.31 1.23.713 1.23-.713 17.856-10.31 1.23-.714V13.15l-1.23-.714L25.087 2.134l-1.23-.713z" fill="#0078D4"/><path d="M24.595 24.82h-1.23v21.358h1.23V24.82z" fill="#0078D4"/><path d="M41.96 13.754l-18.497 10.68.615 1.065 18.497-10.68-.615-1.065z" fill="#0078D4"/><path d="M6.012 13.758l-.616 1.065 18.497 10.68.615-1.066-18.496-10.68z" fill="#0078D4"/><path d="M14.31 30.398V19.366l9.547-5.52 9.556 5.52v11.032l-9.556 5.52-9.547-5.52z" fill="#50E6FF"/><path d="M24.538 24.855h-1.23V35.55h1.23V24.855z" fill="#0078D4"/><path d="M32.766 19.047l-9.262 5.348.615 1.065 9.262-5.348-.615-1.065z" fill="#0078D4"/><path d="M15.08 19.043l-.615 1.066 9.262 5.348.615-1.066-9.262-5.348z" fill="#0078D4"/><path d="M14.802 19.243l9.21-5.283 9.26 5.676-9.39 5.02-9.08-5.413z" fill="#fff"/><path d="M33.495 19.808l-9.26 5.282.04 10.26 9.13-4.847.09-10.695z" fill="#0078D4"/><path d="M23.857 14.291l9.172 5.293V30.18l-9.172 5.293-9.173-5.293V19.584l9.173-5.293zm0-1.456l-.631.362-9.173 5.293-.63.362v12.059l.63.362 9.173 5.293.63.362.632-.362 9.172-5.293.632-.362V18.852l-.632-.362-9.172-5.293-.631-.362z" fill="#0078D4"/></svg>