<svg xmlns="http://www.w3.org/2000/svg" viewBox="0 0 42 48"><path d="M30.615 18.382l-.1-5.2-4.6-2.7-4.7 2.7-4.7-2.7-4.7 2.7v5.3l-.2-.1-4.6 2.7v5.4l4.6 2.7.2 5.2 4.6 2.7 4.7-2.7 4.7 2.7 4.6-2.7v-5.3l.1.1 4.7-2.7v-5.4l-4.6-2.7z" fill="#0078D7"/><path d="M21.015.183l-20.7 11.9v23.9l20.7 11.9 20.7-11.9v-23.9l-20.7-11.9zm.8 3.4l16.5 9.5-16.5 9.8v-19.3zm-1.3 19.4l-16.7-9.9 16.8-9.7v19.6h-.1zm-.7 1l-17 10v-20l17 10zm.7 1.1v19.7l-16.9-9.8 16.9-9.9zm1.3.1l16.6 9.8-16.6 9.6v-19.4zm.5-1.2l16.9-10v20l-16.9-10z" fill="#50E6FF"/><path d="M21.014 24.783l6.3 3.7-6.3 3.8-6.3-3.8 6.3-3.7zm0-1.4l-8.8 5.2 8.8 5.3 8.8-5.3-8.8-5.2z" fill="#50E6FF"/><path d="M21.014 20.283l6.3 3.7-6.3 3.8-6.3-3.8 6.3-3.7zm0-1.5l-8.8 5.2 8.8 5.3 8.8-5.3-8.8-5.2z" fill="#50E6FF"/><path d="M21.014 15.783l6.3 3.7-6.3 3.8-6.3-3.8 6.3-3.7zm0-1.5l-8.8 5.2 8.8 5.3 8.8-5.3-8.8-5.2z" fill="#50E6FF"/><path d="M13.415 28.483l7.6-4.4 7.6 4.4-7.6 4.6-7.6-4.6z" fill="#3BCAF4"/><path d="M13.415 23.983l7.6-4.4 7.6 4.4-7.6 4.6-7.6-4.6z" fill="#0078D7"/><path d="M13.515 19.483l7.6-4.4 7.6 4.4-7.6 4.5-7.6-4.5z" fill="#3BCAF4"/></svg>