<svg xmlns="http://www.w3.org/2000/svg" viewBox="0 0 49 49"><path fill-rule="evenodd" clip-rule="evenodd" d="M24.02 4.76c.977 0 1.936.07 2.875.205V8.36a16.878 16.878 0 00-2.875-.245c-9.262 0-16.77 7.508-16.77 16.77 0 .392.013.78.04 1.165-1.15.204-2.248.554-3.276 1.03a20.352 20.352 0 01-.118-2.194c0-11.115 9.01-20.125 20.124-20.125zm-2.194 40.133c.721.078 1.453.118 2.194.118 11.115 0 20.125-9.01 20.125-20.125 0-.976-.069-1.936-.203-2.875h-3.396c.161.934.245 1.895.245 2.875 0 9.262-7.508 16.77-16.77 16.77-.392 0-.78-.013-1.165-.04a13.322 13.322 0 01-1.03 3.276z" fill="#50E6FF"/><path fill-rule="evenodd" clip-rule="evenodd" d="M9.646 47.886a8.625 8.625 0 100-17.25 8.625 8.625 0 000 17.25zm0-2.875a5.75 5.75 0 100-11.5 5.75 5.75 0 000 11.5zM47.02 1.886H31.687v15.333H47.02V1.886zM44.145 4.76h-9.583v9.583h9.583V4.761z" fill="#0078D4"/></svg>