<svg xmlns="http://www.w3.org/2000/svg" viewBox="0 0 48 49"><path d="M0 10.991V.886h10.105L0 10.99z" fill="#0078D4"/><path d="M10.105 13.519v10.105H0l10.105-10.105zM22.737.886V10.99H12.632L22.737.886z" fill="#50E6FF"/><path d="M37.895.886H48V10.99L37.895.886z" fill="#0078D4"/><path d="M48 23.624H37.895V13.519L48 23.624zM35.368 10.991H25.263V.886L35.368 10.99z" fill="#50E6FF"/><path d="M48 38.78v10.106H37.895L48 38.78z" fill="#0078D4"/><path d="M37.895 36.253V26.148H48L37.895 36.252zM25.263 48.886V38.78h10.105L25.263 48.886z" fill="#50E6FF"/><path d="M10.105 48.886H0V38.78l10.105 10.105z" fill="#0078D4"/><path d="M0 26.148h10.105v10.105L0 26.148zM12.632 38.78h10.105v10.106L12.632 38.78z" fill="#50E6FF"/><path d="M24.009 28.844a3.79 3.79 0 100-7.58 3.79 3.79 0 000 7.58z" fill="#0078D4"/></svg>