<svg xmlns="http://www.w3.org/2000/svg" viewBox="0 0 48 48"><path fill-rule="evenodd" clip-rule="evenodd" d="M1 41.291h46v-30.11H1v30.11z" fill="#0078D4"/><path fill-rule="evenodd" clip-rule="evenodd" d="M1 11.182h46V7H1v4.182z" fill="#50E6FF"/><path fill-rule="evenodd" clip-rule="evenodd" d="M3.925 9.207a.714.714 0 11-1.429-.003.714.714 0 011.429.003m1.991 0a.714.714 0 11-1.43-.003.714.714 0 011.43.003m2.489 0a.714.714 0 11-1.43-.003.714.714 0 011.43.003" fill="#0078D4"/><path fill-rule="evenodd" clip-rule="evenodd" d="M3.987 31.354h11.45V19.943H3.987v11.411zm34.099 0c-3.162 0-5.725-2.554-5.725-5.706 0-3.15 2.563-5.705 5.725-5.705 3.161 0 5.724 2.555 5.724 5.705 0 3.152-2.563 5.706-5.724 5.706M19.419 19.943v11.411h11.449l-11.45-11.411z" fill="#fff"/></svg>