<svg xmlns="http://www.w3.org/2000/svg" viewBox="0 0 60 60"><path fill-rule="evenodd" clip-path="url(#github-icon-white:clip0-6ebd5f8c)" clip-rule="evenodd" d="M30 0C13.425 0 0 13.556 0 30.292 0 43.68 8.6 55.023 20.516 59.04c1.491.279 2.044-.651 2.044-1.47 0-.724-.019-2.621-.037-5.15-8.342 1.822-10.11-4.054-10.11-4.054-1.363-3.496-3.334-4.444-3.334-4.444-2.725-1.878.203-1.841.203-1.841 3.002.223 4.604 3.124 4.604 3.124 2.67 4.63 7.016 3.291 8.73 2.51.275-1.952 1.049-3.291 1.896-4.054-6.648-.743-13.646-3.347-13.646-14.95 0-3.31 1.16-6.006 3.094-8.126-.314-.781-1.345-3.85.276-8.015 0 0 2.523-.818 8.25 3.106 2.394-.67 4.954-1.004 7.514-1.023 2.541.019 5.12.353 7.514 1.023 5.727-3.924 8.25-3.106 8.25-3.106 1.64 4.166.608 7.253.295 8.015 1.915 2.12 3.075 4.816 3.075 8.126 0 11.64-7.016 14.188-13.701 14.95 1.068.93 2.044 2.79 2.044 5.616 0 4.054-.037 7.308-.037 8.312 0 .819.534 1.748 2.063 1.45C51.418 55.024 60 43.68 60 30.31 60 13.556 46.575 0 30 0z" fill="#fff"/><defs><clipPath id="github-icon-white:clip0-6ebd5f8c"><path fill="#fff" d="M0 0h60v59.077H0z"/></clipPath></defs></svg>