<svg xmlns="http://www.w3.org/2000/svg" viewBox="0 0 150 158"><path fill-rule="evenodd" clip-rule="evenodd" d="M3.785 63.615a1.15 1.15 0 001.426-.785 73.322 73.322 0 011.797-5.386 1.159 1.159 0 00-.668-1.489 1.153 1.153 0 00-1.483.67 75.997 75.997 0 00-1.854 5.559 1.156 1.156 0 00.782 1.431zM1.609 74.94a1.152 1.152 0 001.288-.997 73.41 73.41 0 01.941-5.602 1.15 1.15 0 10-2.25-.473 76.274 76.274 0 00-.973 5.78 1.154 1.154 0 00.994 1.292zM13.87 42.868c.368 0 .73-.176.952-.504a72.05 72.05 0 013.363-4.565 1.151 1.151 0 10-1.795-1.445 75.107 75.107 0 00-3.47 4.711 1.156 1.156 0 00.95 1.803zm-6.183 9.9a1.143 1.143 0 001.53-.552 73.418 73.418 0 012.61-5.039 1.155 1.155 0 00-.43-1.573 1.143 1.143 0 00-1.568.43 75.704 75.704 0 00-2.692 5.198 1.157 1.157 0 00.55 1.536zM29.561 26.13c.247 0 .494-.078.703-.24a73.794 73.794 0 014.605-3.299 1.16 1.16 0 00.33-1.6 1.148 1.148 0 00-1.593-.33 76.298 76.298 0 00-4.75 3.402 1.158 1.158 0 00-.205 1.62c.226.293.567.448.91.448zM1.212 86.468a1.155 1.155 0 001.118-1.187 70.18 70.18 0 01.062-5.68 1.153 1.153 0 00-1.091-1.21c-.59-.037-1.173.456-1.207 1.095a76.583 76.583 0 00-.064 5.86 1.152 1.152 0 001.149 1.122h.033zm23.172-58.639a74.539 74.539 0 00-4.166 4.105 1.16 1.16 0 00.05 1.632 1.145 1.145 0 001.626-.05 71.524 71.524 0 014.036-3.979c.47-.428.505-1.157.078-1.63a1.145 1.145 0 00-1.624-.078zm14.779-8.027c.188 0 .379-.046.554-.143a72.27 72.27 0 015.06-2.547c.578-.264.833-.947.572-1.528a1.149 1.149 0 00-1.523-.575 75.052 75.052 0 00-5.218 2.628 1.155 1.155 0 00.555 2.165zM64.923 9.54a7.745 7.745 0 013.43-4.872 7.719 7.719 0 014.133-1.205 7.727 7.727 0 016.578 3.638c2.285 3.636 1.199 8.46-2.424 10.754a7.709 7.709 0 01-4.132 1.204 7.731 7.731 0 01-6.579-3.636 7.778 7.778 0 01-1.006-5.882zm-4.221 2.444c.072 0 .144-.007.218-.02.126-.026.254-.044.383-.07a11.23 11.23 0 001.709 5.376 11.196 11.196 0 009.496 5.253c2.045 0 4.116-.561 5.973-1.739 3.372-2.134 5.21-5.776 5.222-9.5 1.234.16 2.468.34 3.68.56a1.15 1.15 0 001.336-.93 1.151 1.151 0 00-.924-1.341 74.753 74.753 0 00-4.337-.644A11.2 11.2 0 0072.486 0c-2.045 0-4.116.562-5.974 1.739-2.85 1.805-4.603 4.69-5.086 7.788-.313.056-.627.108-.94.168a1.155 1.155 0 00.216 2.288zM49.624 15.04c.13 0 .264-.023.393-.07a72.088 72.088 0 015.39-1.72c.613-.168.972-.804.804-1.418a1.15 1.15 0 00-1.413-.808 73.946 73.946 0 00-5.566 1.775 1.157 1.157 0 00.392 2.24zM3.532 96.569a72.579 72.579 0 01-.823-5.62 1.15 1.15 0 10-2.286.247c.207 1.937.492 3.888.85 5.799a1.151 1.151 0 001.341.921 1.152 1.152 0 00.918-1.347zm1.871 12.501a1.154 1.154 0 001.082-1.544 73.255 73.255 0 01-1.692-5.419 1.146 1.146 0 00-1.411-.811c-.613.166-.974.8-.809 1.415a73.996 73.996 0 001.748 5.593c.168.471.61.766 1.082.766zm120.674 24.897a72.528 72.528 0 01-4.122 3.89 1.157 1.157 0 00.754 2.027c.267 0 .537-.094.754-.283a74.392 74.392 0 004.253-4.015 1.158 1.158 0 00-.013-1.633 1.144 1.144 0 00-1.626.014zM97.56 151.909a72.018 72.018 0 01-5.427 1.603 1.154 1.154 0 00.562 2.239 73.963 73.963 0 005.602-1.655c.602-.204.924-.86.721-1.463a1.15 1.15 0 00-1.458-.724zm-33.508 3.008a73.108 73.108 0 01-5.562-1.043 1.144 1.144 0 00-1.375.869c-.141.621.246 1.24.866 1.38 1.89.434 3.821.796 5.737 1.079a1.151 1.151 0 001.305-.974 1.154 1.154 0 00-.97-1.31zm22.545-.237c-1.85.315-3.739.558-5.612.727-.632.057-1.1.618-1.043 1.253a1.151 1.151 0 001.248 1.047 73.79 73.79 0 005.79-.75 1.155 1.155 0 00-.383-2.277zm-11.25 1.008h-.01l-.745.003a72.22 72.22 0 01-4.912-.168 1.164 1.164 0 00-1.224 1.074 1.156 1.156 0 001.07 1.231 75.98 75.98 0 005.066.172l.765-.003a1.152 1.152 0 001.14-1.165 1.151 1.151 0 00-1.15-1.144zm42.197-14.276a74.228 74.228 0 01-4.487 3.082l-.201.127a1.157 1.157 0 00-.345 1.596 1.146 1.146 0 001.59.346l.18-.114a75.921 75.921 0 004.63-3.182c.512-.379.62-1.102.24-1.614a1.143 1.143 0 00-1.607-.241zm-9.584 6.033a72.75 72.75 0 01-5.11 2.439 1.156 1.156 0 00.452 2.215c.151 0 .306-.029.453-.093a74.294 74.294 0 005.272-2.516c.562-.294.78-.993.485-1.557a1.146 1.146 0 00-1.552-.488zm-79.634-8.512a1.145 1.145 0 00-1.62.15 1.157 1.157 0 00.151 1.626 75.338 75.338 0 004.629 3.565 1.144 1.144 0 001.603-.275 1.157 1.157 0 00-.276-1.61 72.6 72.6 0 01-4.487-3.456zm24.701 13.464a72.613 72.613 0 01-5.334-1.898 1.154 1.154 0 00-.85 2.145 75.009 75.009 0 005.5 1.958 1.15 1.15 0 001.44-.76 1.157 1.157 0 00-.756-1.445zm-10.5-4.207a73.333 73.333 0 01-4.971-2.708 1.146 1.146 0 00-1.576.403 1.156 1.156 0 00.4 1.581 74.927 74.927 0 005.13 2.794 1.146 1.146 0 001.539-.524 1.156 1.156 0 00-.522-1.546zm91.252-106.442a1.147 1.147 0 001.6.287c.521-.363.65-1.083.287-1.607a75.979 75.979 0 00-3.517-4.675 1.146 1.146 0 00-1.617-.164 1.158 1.158 0 00-.164 1.624 73.854 73.854 0 013.41 4.535zm12.836 37.102a75.443 75.443 0 01.113 5.68 1.151 1.151 0 001.128 1.175h.022c.625 0 1.137-.502 1.15-1.132a76.92 76.92 0 00-.117-5.858 1.138 1.138 0 00-1.216-1.085 1.154 1.154 0 00-1.08 1.22zm-7.117-27.307a1.149 1.149 0 001.536.534c.572-.278.81-.97.533-1.542a74.227 74.227 0 00-2.758-5.169 1.146 1.146 0 00-1.573-.41 1.156 1.156 0 00-.41 1.579 72.848 72.848 0 012.672 5.008zm8.153 37.621a1.157 1.157 0 00-1.257 1.035 74.096 74.096 0 01-.771 5.629 1.155 1.155 0 001.134 1.356c.546 0 1.031-.394 1.13-.952.34-1.916.606-3.87.796-5.806a1.152 1.152 0 00-1.032-1.262zm-2.585-21.559c.404 1.842.738 3.722.996 5.591a1.151 1.151 0 001.296.985c.629-.086 1.07-.67.982-1.301a74.618 74.618 0 00-1.028-5.771 1.147 1.147 0 00-1.37-.879 1.154 1.154 0 00-.876 1.375zm-1.434-5.497a1.151 1.151 0 001.435.769c.608-.186.95-.831.766-1.441a74.64 74.64 0 00-1.92-5.537 1.15 1.15 0 10-2.14.845 72.792 72.792 0 011.86 5.364zM92.909 13.075c1.82.482 3.64 1.038 5.411 1.66a1.15 1.15 0 001.464-.711 1.154 1.154 0 00-.707-1.47 74.6 74.6 0 00-5.584-1.712 1.155 1.155 0 00-.584 2.233zm21.881 7.147a1.146 1.146 0 00-1.59.349 1.158 1.158 0 00.347 1.595 73.315 73.315 0 014.637 3.249 1.15 1.15 0 001.611-.223 1.156 1.156 0 00-.223-1.618 75.396 75.396 0 00-4.783-3.352zm-11.205-3.414a72.884 72.884 0 015.088 2.482 1.144 1.144 0 001.556-.473c.3-.561.088-1.262-.472-1.562a75.214 75.214 0 00-5.249-2.562 1.15 1.15 0 00-1.515.595c-.255.583.01 1.264.592 1.52zm39.342 106.524a7.714 7.714 0 01-4.134 1.206 7.73 7.73 0 01-6.577-3.638c-2.286-3.637-1.198-8.462 2.423-10.755a7.733 7.733 0 014.134-1.205 7.726 7.726 0 016.577 3.64c2.286 3.635 1.197 8.458-2.423 10.752zm5.341-12.602a11.184 11.184 0 00-3.25-3.334 76.215 76.215 0 001.626-5.438 1.153 1.153 0 00-.824-1.406 1.144 1.144 0 00-1.401.827 73.603 73.603 0 01-1.463 4.914 11.239 11.239 0 00-4.183-.816c-2.047 0-4.116.562-5.975 1.739-5.238 3.319-6.805 10.272-3.5 15.53a11.156 11.156 0 003.381 3.418 71.029 71.029 0 01-2.8 3.599 1.16 1.16 0 00.143 1.626 1.144 1.144 0 001.621-.143 75.388 75.388 0 003.103-4.002c1.289.497 2.662.757 4.047.757a11.13 11.13 0 005.975-1.74c5.238-3.318 6.805-10.271 3.5-15.531zm-21.651-77.77a1.148 1.148 0 001.626.034c.458-.44.474-1.17.034-1.632a74.632 74.632 0 00-4.199-4.065 1.149 1.149 0 00-1.623.094 1.159 1.159 0 00.094 1.63 72.372 72.372 0 014.068 3.94zM18.029 133.03a7.71 7.71 0 01-4.134 1.204 7.73 7.73 0 01-6.577-3.637 7.772 7.772 0 01-1.007-5.882 7.75 7.75 0 013.43-4.873c.158-.1.325-.175.488-.262.147-.016.293-.051.431-.128.096-.052.165-.129.238-.202a7.695 7.695 0 012.977-.612 7.723 7.723 0 016.577 3.639 7.767 7.767 0 011.007 5.88 7.746 7.746 0 01-3.43 4.872zm5.341-12.603a11.2 11.2 0 00-9.496-5.253c-1.278 0-2.562.247-3.801.7a73 73 0 01-1.473-3.076 1.147 1.147 0 00-1.52-.58c-.579.26-.839.943-.578 1.525.468 1.048.972 2.09 1.492 3.12-.031.019-.064.03-.095.05-5.236 3.318-6.805 10.272-3.5 15.531a11.196 11.196 0 009.496 5.253c2.047 0 4.117-.561 5.975-1.739.383-.242.74-.509 1.083-.788.522.542 1.038 1.093 1.57 1.615a1.147 1.147 0 001.627-.02 1.158 1.158 0 00-.02-1.633c-.525-.514-1.036-1.059-1.551-1.595 2.955-3.645 3.427-8.913.791-13.11zm52.592-41.055c-.555.151-1.965.1-2.722-.05-.756-.153-.554-1.266-1.058-1.62-.505-.355-1.008.152-1.008.152s-1.353-.608-1.513-.608c-.807 0-1.108.405-1.965.456-.858.05-.15-.608.756-1.012.907-.405 1.966-.354 2.67-.203.707.153.807.456 3.025 1.013 2.218.556 2.369 1.72 1.815 1.872zm4.636 1.468c-.857-.051-1.159-.355-1.663 0-.504.353-1.865.658-1.865-.608 0-.725.152-1.215 1.512-1.265 1.362-.05 2.822.709 3.126 1.113.302.405-.253.81-1.11.76zm23.387 20.392c-.101.506-1.411 1.113-2.318 1.72-.908.608-1.866 1.873-2.117 3.239-.252 1.366-1.462 2.934-2.067 3.492-.605.555-3.276 1.365-4.636 2.024-1.362.657-2.42 2.277-3.024 3.542-.606 1.265-2.37 2.176-3.53 2.48-1.157.302-2.367.961-3.325 1.821-.958.86-1.865 2.075-2.52 2.53-.656.456-.504 1.113-.857 2.631-.353 1.518-.656 1.418-1.462 1.164-.806-.252-1.361-1.062-1.965-2.428-.606-1.367-.303-2.075-.202-2.733.1-.658.654-1.418.755-2.125.101-.709-.15-1.822 0-2.582.152-.758.706-1.872.958-2.53.253-.657.101-3.794.101-4.655 0-.859-1.008-1.922-1.966-2.48-.957-.555-2.268-1.366-3.075-2.024-.806-.658-1.058-1.67-1.46-2.58-.404-.91-1.514-2.227-2.067-2.631-.554-.405-.504-1.316-.454-2.126.05-.809.252-1.872.404-2.529.15-.66.958-1.114 1.965-1.974 1.008-.861 1.008-1.164.806-1.973-.201-.81-.252-1.52-1.007-2.176-.756-.66-1.462.05-2.47 0-1.008-.051-1.512-.759-2.117-1.215-.604-.455-1.814-2.125-2.217-2.48-.404-.354-1.06-.253-1.865-.303-.807-.051-.958-.051-1.311-.304-.352-.253-1.008-1.214-1.512-1.467-.503-.253-.807-.456-1.663-.558-.857-.1-1.664-.302-2.671-.657-1.008-.354-3.781-2.125-4.334-2.58-.555-.456-.505-.709-.505-1.418 0-.707 0-1.011-.353-1.367-.353-.353-.756-1.72-1.26-2.275-.503-.558-1.008-2.076-1.26-2.582-.252-.505 0-1.973-.201-2.276-.202-.304-.454.152-.606.606-.15.456-.201 1.114-.05 1.923.151.81.354 1.52.555 2.075.202.557.152 1.67.202 2.278.05.607-.437.286-1.043-.12-.605-.403-.268-1.146-.605-2.023-.335-.876-.335-3.036-.671-4.858-.336-1.822.268-3.103.671-4.587.404-1.485 1.547-2.97 2.42-3.577.874-.607 1.748-1.079 2.218-1.618.47-.54.671-1.418.94-2.295.27-.876.873-.81 1.546-2.09.672-1.284.874-1.35.874-1.35.604-.759-.404-1.266-1.663-1.367-1.26-.102-3.529-.759-4.184.101-.655.86-1.965 1.518-3.276 1.62-1.31.1-1.663.253-2.873.455-1.21.203.656-.506 1.311-.81.654-.303 1.813-1.163 1.813-1.163s1.211-1.114 2.219-1.67c1.008-.557 1.915-.709 2.973-1.165 1.06-.456 1.462-.91 2.017-1.112.553-.204 2.016-.254 2.923-.153.908.102.453-.302 1.411-.353.957-.05 2.117.102 3.276.404 1.16.304 1.612.405 2.52.304.907-.1 2.923-.202 3.88-.1.958.1 4.386 1.163 4.386 1.163s1.411-.203 2.57-.203c1.16 0 2.27.254 3.227-.152.957-.404 0-.404 2.266-.961 2.27-.557 2.117 1.012 2.32 1.72.201.709-1.16 1.316-2.62 1.418-1.464.1-1.665.354-2.974 1.011-1.311.658-.807 1.67-.455 1.974.353.304 1.109.253 1.664.404.554.151.958.912 1.462 1.013.505.1.755.81 1.21 1.416.452.607.704.506 1.31.051.604-.456.806-1.164 1.108-1.215.303-.05.856-.203 1.361-.758.504-.556.554-1.165.605-1.62.05-.456.806-1.721 2.218-1.365 1.411.354.957 1.416 1.311 1.669.352.253 1.36.253 1.36.253s.656-.102 1.109-.455c.454-.355.857.151 1.361.962.504.809 1.058 1.821 1.562 2.63.505.81.101 1.063-.705 1.012-.806-.05-2.42-.405-3.328-.202-.906.202-.25 1.063-.301 1.568-.05.507-.05.81-1.058 1.57-1.008.758-1.665.404-2.522.707-.856.304-.856.759-1.259 1.418-.403.657-.907.404-1.563.506-.655.1-.554 0-1.31.91a11.495 11.495 0 01-1.613 1.57s-.351-.102-.554-.609c-.201-.504-.403.051-.606 1.52-.2 1.466-1.107 2.023-2.166 2.124-1.058.101-2.722.658-3.074 1.265-.354.607-.152 1.67-.152 3.036 0 1.367.152 1.822-.353 1.568-.503-.251-.907-.91-1.008-1.871-.101-.962-.2-1.366-1.058-1.62-.858-.253-2.167.152-4.183.203-2.016.051-2.772-.456-4.285-.354-1.51.101-2.268 1.569-2.72 2.53-.455.962-1.815 2.53-1.11 4.3.705 1.772 2.37 2.126 3.125 2.126.756 0 .958-.607 1.46-1.417.505-.81 1.211-1.315 2.27-1.67 1.058-.354 1.36.507 1.209 1.063-.15.557-1.109 1.012-1.512 2.379-.403 1.365.856 1.264 2.218.81 1.361-.457 1.815.657 1.764 1.314-.05.66-.453 1.265-.807 2.227-.353.962.404 1.72 1.008 1.923.605.202 1.612 0 2.168-.152.554-.151 1.36.05 1.662.456.304.404 1.009.91 1.311.556.303-.353.908-.91 1.613-1.416.706-.507 2.319-1.113 3.327-1.013 1.008.102 2.368 1.366 3.528 1.671 1.16.304 2.168-.102 2.974-.102s2.418 1.113 2.62 1.266c.202.152.756.455 1.865.606 1.11.152 1.915 1.215 1.915 1.215s.908.304 1.563.556c.655.254 1.663 1.215 1.663 1.721s.05 1.417.655 2.175c.605.761 1.613.558 2.723.861 1.108.304 2.065 1.468 2.469 1.873.404.404.806.202 2.066.455 1.26.253 1.815 2.934 1.714 3.441zM68.654 46.227c.554-.758 2.62.152 2.62.152s1.31.607 3.025.404c1.713-.202 1.888.45 1.814.862-.1.556-.756.657-1.966.758-1.21.102-2.671.404-4.183.153-1.512-.254-1.865-1.57-1.31-2.329zm3.83-.657c1.009-.71 2.37-.962 4.032-.608 1.664.354 1.915 1.265 1.361 1.67-.554.404-1.261.151-1.713-.101-.454-.253-.807-.557-2.32-.253-1.511.303-1.7-.469-1.36-.708zm6.3-.05c.207-.76 1.361.656 1.915 1.01.556.355-.353.557-1.108.557-.757 0-.958-1.012-.807-1.568zm2.118-1.772c.856-.254 2.167-.506 4.334-.405 2.167.102 1.965.86 1.36 1.164-.604.303-1.109.86-1.864 1.265-.757.404-1.412.303-2.772.253-1.362-.05-1.756-.645-2.067-1.063-.454-.608.152-.962 1.009-1.214zm2.267 4.959c-1.31.253-2.221-.223-2.318-.76-.101-.556-.152-.505.705-.962.857-.454 2.218-.251 3.529 0 1.31.254 2.822 1.317 3.275 1.771.454.456-.05.71.152.962.2.253.755.861.302 1.67-.454.81-1.058.912-2.218.405-1.16-.506-1.713-.86-1.663-1.366.05-.506.554-.506.554-.96 0-.457-1.008-1.013-2.318-.76zm6.2-4.15c1.008-.354 1.613-.101 2.218.557.603.658 1.007.911 1.561 1.215.556.303 1.664 1.416 2.32 1.922.654.505.553 1.467.453 3.087-.1 1.62 0 1.67-.555 1.569-.554-.102-1.26-.607-2.218-1.417s-1.31-2.125-1.864-3.24c-.554-1.112-.807-1.214-1.865-1.214-1.06 0-1.008-.05-2.218-.505-1.209-.456-.523-1.05.152-1.366.755-.355 1.007-.254 2.015-.607zM74.13 38.165c-24.348 0-44.086 19.816-44.086 44.26s19.738 44.26 44.086 44.26 44.085-19.816 44.085-44.26-19.737-44.26-44.085-44.26z"/></svg>