<svg xmlns="http://www.w3.org/2000/svg" viewBox="0 0 33 32"><path d="M11.886 20.125a10.01 10.01 0 01-3.96-.787 10.22 10.22 0 01-3.229-2.153 10.118 10.118 0 01-2.174-3.2 9.762 9.762 0 01-.793-3.923c0-1.394.264-2.701.793-3.922a10.117 10.117 0 012.174-3.2c.92-.912 1.997-1.63 3.23-2.154A10.011 10.011 0 0111.885 0c1.407 0 2.726.262 3.959.786a10.222 10.222 0 013.229 2.154 10.13 10.13 0 012.174 3.2 9.76 9.76 0 01.793 3.922 9.76 9.76 0 01-.793 3.923 10.116 10.116 0 01-2.174 3.2 10.22 10.22 0 01-3.23 2.154 10.011 10.011 0 01-3.958.786zm-7.03-6.038a8.069 8.069 0 003.412 3.192 13.6 13.6 0 01-.627-1.565 15.023 15.023 0 01-.437-1.627H4.856zM3.76 10.062a8.103 8.103 0 00.253 2.013h2.889a21.35 21.35 0 010-4.025H4.015a8.24 8.24 0 00-.19 1.006 8.03 8.03 0 00-.064 1.006zm8.124-8.05c-.232 0-.45.074-.65.22a2.74 2.74 0 00-.571.582c-.18.241-.344.511-.492.81-.148.299-.283.595-.405.888a8.233 8.233 0 00-.301.85c-.08.272-.14.497-.183.675h5.205a14.489 14.489 0 00-.182-.676 8.262 8.262 0 00-.302-.849c-.122-.293-.257-.59-.405-.888a5.253 5.253 0 00-.492-.81 2.645 2.645 0 00-.579-.581 1.094 1.094 0 00-.643-.22zM8.95 8.05a12.6 12.6 0 00-.087 1.006 21.287 21.287 0 000 2.013c.015.335.045.67.087 1.006h5.871c.043-.336.072-.671.088-1.006a21.381 21.381 0 000-2.013c-.016-.335-.046-.67-.088-1.006H8.95zm11.06 2.012a8.1 8.1 0 00-.063-1.006 8.419 8.419 0 00-.19-1.006h-2.889a21.342 21.342 0 010 4.025h2.888a8.313 8.313 0 00.254-2.013zm-8.125 8.05c.223 0 .437-.073.643-.22.207-.147.4-.34.58-.582.18-.24.343-.51.491-.81.148-.298.283-.594.405-.888.122-.293.222-.576.302-.849.079-.272.14-.498.182-.676H9.283c.042.178.103.404.183.676.079.273.18.556.301.85.122.293.257.589.405.888.148.298.312.568.492.81.18.24.37.434.57.581.202.147.419.22.652.22zm3.619-.833a8.065 8.065 0 003.411-3.192h-2.348a15.029 15.029 0 01-.437 1.627 13.54 13.54 0 01-.626 1.565zm3.411-11.242a8.068 8.068 0 00-3.411-3.191c.243.513.452 1.035.626 1.564.175.53.32 1.072.437 1.627h2.348zM8.268 2.846a8.066 8.066 0 00-3.412 3.191h2.348c.117-.555.262-1.098.437-1.627.174-.53.383-1.05.627-1.564zm23.93 9.229v8.05h-2.032v-4.607L14.932 30.596 8.84 24.558l-7.41 7.343L0 30.486l8.839-8.758 6.093 6.038 13.79-13.679h-4.65v-2.012h8.125z"/></svg>