<svg xmlns="http://www.w3.org/2000/svg" viewBox="0 0 48 49"><path d="M21.65 37.906c9 0 16.3-7.3 16.3-16.3s-7.3-16.3-16.3-16.3-16.3 7.3-16.3 16.3 7.3 16.3 16.3 16.3z" fill="#0078D4"/><path d="M38 3.906l-3.6 3.6-.05.05c.25.2.45.4.65.65 1.75 1.75 3.1 3.75 4.05 6 1 2.35 1.5 4.8 1.5 7.35s-.5 5.05-1.5 7.35c-.95 2.25-2.3 4.3-4.05 6-1.75 1.75-3.75 3.1-6 4.05-2.35 1-4.8 1.5-7.4 1.5-2.6 0-5.05-.5-7.35-1.5-2.25-.95-4.3-2.3-6-4.05l-.65-.65-1.75 1.85c3.6 3.95 8.7 6.55 14.4 6.9v2.6H10.1v2.5h22.7v-2.5H22.75v-2.55c11.35-.55 20.4-9.95 20.4-21.45a21.3 21.3 0 00-5.2-14l1.9-1.9-1.85-1.8z" fill="#50E6FF"/><path d="M22.052 12.018a6.571 6.571 0 00-6.964 6.152c-.223 3.622 6.53 12.585 6.53 12.585s6.363-8.152 6.587-11.774a6.571 6.571 0 00-6.153-6.963z" fill="#50E6FF"/><path d="M25.604 18.798a3.964 3.964 0 01-4.195 3.712 3.964 3.964 0 01-3.713-4.195 3.964 3.964 0 014.195-3.712 3.96 3.96 0 013.713 4.195z" fill="#0078D4"/></svg>