<svg xmlns="http://www.w3.org/2000/svg" viewBox="0 0 50 50"><circle fill="#59B4D9" cx="24" cy="25.011" r="6.9"/><circle fill="#59B4D9" cx="35.5" cy="18.511" r="3.4"/><circle fill="#59B4D9" cx="35.5" cy="31.511" r="3.4"/><circle fill="#59B4D9" cx="44" cy="36.011" r="2.9"/><circle fill="#59B4D9" cx="44" cy="14.011" r="2.9"/><circle fill="#59B4D9" cx="44" cy="25.011" r="2.9"/><path fill="#3999C6" d="M34.05 39.989c-.392 0-.756.117-1.064.312l-.003-.005L24 45.399 6 35.172V14.828L24 4.601l8.982 5.104.003-.005c.309.195.672.312 1.064.312a1.994 1.994 0 00.945-3.753L35 6.25 24 0 2 12.5v25L24 50l11-6.25-.005-.009a1.992 1.992 0 00-.945-3.752z"/></svg>