<svg version="1.1" id="Layer_1" xmlns="http://www.w3.org/2000/svg" x="0" y="0" xml:space="preserve" viewBox="0 0 48 48"><style>.st0{fill:#f78c1e}.st1{opacity:.2;fill:#1e1e1e;enable-background:new}.st2{fill:none;stroke:#2a3282;stroke-miterlimit:10;stroke-dasharray:1.5}</style><path class="st0" d="M46.9 12c-.6-.7-1.5-1.1-2.3-1.1-1.1-.1-2.2.3-3.1 1.1-.8.9-1.2 2.1-1.1 3.2.1.9.5 1.8 1.1 2.4 1 1 2.4 1.4 3.7 1 .6-.2 1.2-.5 1.7-1 .8-.8 1.2-1.9 1.1-3 0-.9-.3-1.8-1.1-2.6z"/><path class="st1" d="M46.2 16.9c-.6.7-1.4 1.1-2.3 1.4-.4.1-.8.2-1.3.2.8.4 1.7.5 2.6.2.6-.2 1.2-.5 1.7-1 .8-.8 1.2-1.9 1.1-3 0-.5-.2-1-.3-1.5 0 1.4-.5 2.7-1.5 3.7z"/><path class="st0" d="M11.3 8c-.6-.7-1.4-1.1-2.3-1.1-1.1-.1-2.2.2-3.1 1.1s-1.2 2.1-1.1 3.2c.1.9.5 1.8 1.1 2.4 1 1 2.4 1.4 3.7 1 .6-.2 1.2-.5 1.7-1 .8-.8 1.2-1.9 1.1-3 0-.9-.4-1.8-1.1-2.6z"/><path class="st1" d="M10.6 12.9c-.6.7-1.4 1.1-2.3 1.4-.4.1-.8.2-1.3.2.8.4 1.7.5 2.6.2.6-.2 1.2-.5 1.7-1 .8-.8 1.2-1.9 1.1-3 0-.5-.2-1-.3-1.5 0 1.4-.5 2.7-1.5 3.7z"/><path class="st0" d="M6.6 26.7c-.6-.7-1.5-1.1-2.3-1.2-1.1-.1-2.2.3-3.1 1.1S0 28.8.1 29.9c.1.9.5 1.8 1.1 2.4 1 1 2.4 1.4 3.7 1 .6-.2 1.2-.5 1.7-1 .8-.8 1.2-1.9 1.1-3 0-1-.4-1.9-1.1-2.6z"/><path class="st1" d="M5.9 31.6c-.6.7-1.4 1.1-2.3 1.4-.4.1-.8.2-1.3.2.8.4 1.7.5 2.6.2.6-.2 1.2-.5 1.7-1 .8-.8 1.2-1.9 1.1-3 0-.5-.2-1-.3-1.5 0 1.3-.5 2.7-1.5 3.7z"/><path class="st0" d="M45.4 32.5c-.6-.7-1.5-1.1-2.3-1.1-1.1-.1-2.2.3-3.1 1.1-.8.9-1.2 2.1-1.1 3.2.1.9.5 1.8 1.1 2.4 1 1 2.4 1.4 3.7 1 .6-.2 1.2-.5 1.7-1 .8-.8 1.2-1.9 1.1-3 0-1-.4-1.9-1.1-2.6z"/><path class="st1" d="M44.7 37.4c-.6.7-1.4 1.1-2.3 1.4-.4.1-.8.2-1.3.2.8.4 1.7.5 2.6.2.6-.2 1.2-.5 1.7-1 .8-.8 1.2-1.9 1.1-3 0-.5-.2-1-.3-1.5-.1 1.3-.5 2.6-1.5 3.7z"/><path class="st2" d="M12.4 14s.2 0 .4-.1m.9-.1c1.3 0 3.5.3 5 2.1 1.2 1.3 1.6 2.8 1.7 3.8m.1.4v.4m7 7.2c.2.8 1 2.9 3 4.4 3.4 2.4 7.2 1.1 7.6.9m-9.8-12.1c1.1.2 3.6.5 6.5-.4 3.1-.9 4.9-2.6 5.7-3.5M8.6 29.5c.6-.8 2.4-3.1 5.7-4 2-.5 3.6-.3 4.6 0M6.3 33.8c2.1 1.8 8 6.4 16.7 7 7.2.6 12.8-1.8 15.3-3"/><path d="M26.4 21.4c-.6-.7-1.5-1.1-2.3-1.1-1.1-.1-2.2.3-3.1 1.1-.8.9-1.2 2.1-1.1 3.2.1.9.5 1.8 1.1 2.4 1 1 2.4 1.4 3.7 1 .6-.2 1.2-.5 1.7-1 .8-.8 1.2-1.9 1.1-3-.1-.9-.4-1.9-1.1-2.6z" fill="#eb0d8c"/><path class="st1" d="M25.7 26.3c-.6.7-1.4 1.1-2.3 1.4-.4.1-.8.2-1.3.2.8.4 1.7.5 2.6.2.6-.2 1.2-.5 1.7-1 .8-.8 1.2-1.9 1.1-3 0-.5-.2-1-.3-1.5-.1 1.3-.6 2.6-1.5 3.7z"/><path class="st2" d="M13.8 10.1c2.9.3 9.7 1.3 16.3 6.5 6.3 4.9 9.2 10.9 10.3 13.7"/></svg>