<svg xmlns="http://www.w3.org/2000/svg" viewBox="0 0 48 48"><path d="M46.494 20.407a5.052 5.052 0 00-6.604-.43L28.038 8.098a5.05 5.05 0 00-.48-6.631 5.058 5.058 0 00-7.145.042 5.048 5.048 0 00-.312 6.757L4.293 24.127l20.084 19.655 15.656-15.665a5.046 5.046 0 006.512-.574 5.041 5.041 0 00-.05-7.136zM24.361 42.01L6.09 24.118 21.028 9.136a4.99 4.99 0 002.42.937v30.706h1.266V10.064A5.067 5.067 0 0027.16 9.01l11.826 11.86a5.049 5.049 0 00.11 6.403L24.36 42.011z" fill="#0078D4"/><path d="M27.558 39.345a5.059 5.059 0 01.042 7.145 5.058 5.058 0 01-7.145.042 5.059 5.059 0 01-.042-7.145c1.966-1.983 5.163-2.008 7.145-.042zM8.663 27.551a5.058 5.058 0 01-7.145.043 5.059 5.059 0 01-.042-7.146 5.058 5.058 0 017.145-.042 5.043 5.043 0 01.042 7.145z" fill="#50E6FF"/></svg>