<svg xmlns="http://www.w3.org/2000/svg" viewBox="0 0 49 49"><path d="M24.686 25.298l-.902-.883-7.042 7.162a2.493 2.493 0 00-1.265-.337 2.515 2.515 0 00-2.52 2.517 2.515 2.515 0 002.52 2.517 2.515 2.515 0 002.168-3.805l7.041-7.17z" fill="#50E6FF"/><path d="M29.392 32.419c-.27 0-.523.025-.776.076l-3.812-7.912-1.138.547 3.769 7.827a3.774 3.774 0 001.957 7.011c2.1 0 3.786-1.683 3.786-3.779a3.77 3.77 0 00-3.786-3.77z" fill="#50E6FF"/><path d="M38.238 26.182c-.945 0-1.763.514-2.193 1.28L24.4 24.245l-.337 1.22 11.654 3.216v.017a2.515 2.515 0 002.522 2.516c1.4 0 2.521-1.128 2.521-2.516a2.515 2.515 0 00-2.521-2.517z" fill="#50E6FF"/><path d="M24.5 24.288l-7.85-3.737a3.85 3.85 0 00.075-.766 3.777 3.777 0 00-3.786-3.779 3.772 3.772 0 00-3.787 3.78 3.772 3.772 0 003.787 3.778 3.767 3.767 0 003.246-1.834l7.767 3.694.548-1.136z" fill="#50E6FF"/><path d="M45.827 13.641a2.515 2.515 0 00-2.437 3.157l-19.387 7.465.455 1.178 19.556-7.532a2.523 2.523 0 001.813.765 2.515 2.515 0 100-5.033z" fill="#50E6FF"/><path d="M25.411 13.473a2.515 2.515 0 00-2.521-2.517 2.515 2.515 0 00-.33 5.008l1.046 8.964 1.257-.143-1.046-8.972a2.508 2.508 0 001.594-2.34z" fill="#50E6FF"/><path d="M24.23 29.869a5.013 5.013 0 005.018-5.008 5.013 5.013 0 00-5.018-5.008 5.013 5.013 0 00-5.017 5.008 5.013 5.013 0 005.017 5.008zM19.365 8.524a1.271 1.271 0 110-2.542 1.271 1.271 0 110 2.542z" fill="#0078D4"/><path d="M9.17 41.256a1.271 1.271 0 110-2.541c.7 0 1.273.572 1.273 1.27a1.27 1.27 0 01-1.274 1.271zm35.502-9.931a1.271 1.271 0 110-2.542 1.271 1.271 0 110 2.542z" fill="#50E6FF"/><path d="M21.575 44.084l3.432-20.057-14.825 3.392a2.503 2.503 0 00-2.218-1.321 2.515 2.515 0 00-2.522 2.517 2.515 2.515 0 002.522 2.516 2.52 2.52 0 002.521-2.491l12.962-2.963-3.112 18.188a2.515 2.515 0 00.194 5.025c1.4 0 2.521-1.128 2.521-2.516a2.503 2.503 0 00-1.476-2.29z" fill="#0078D4"/><path d="M35.708 10.948a2.515 2.515 0 00-2.167 3.804l-9.757 9.654.894.9 9.765-9.662c.37.22.81.346 1.273.346 1.4 0 2.522-1.128 2.522-2.517a2.53 2.53 0 00-2.53-2.525zM31.93 43.79a1.271 1.271 0 110-2.542 1.27 1.27 0 110 2.542z" fill="#0078D4"/><path d="M41.965 8.44a1.271 1.271 0 110-2.542 1.271 1.271 0 110 2.542z" fill="#50E6FF"/></svg>