<svg xmlns="http://www.w3.org/2000/svg" viewBox="0 0 48 49"><path d="M2.527 5.939A2.523 2.523 0 010 3.412 2.523 2.523 0 012.527.886a2.523 2.523 0 012.526 2.526A2.534 2.534 0 012.527 5.94zM12.211.886H7.158V5.94h5.053V.886zm7.142 0H14.3V5.94h5.053V.886zm7.174 0h-5.052V5.94h5.052V.886zm7.157 0H28.63V5.94h5.053V.886zm4.631 5.053a2.523 2.523 0 01-2.526-2.527A2.523 2.523 0 0138.315.886a2.523 2.523 0 012.527 2.526 2.534 2.534 0 01-2.527 2.527zm7.159 0a2.523 2.523 0 01-2.526-2.527A2.523 2.523 0 0145.474.886 2.523 2.523 0 0148 3.412a2.534 2.534 0 01-2.526 2.527zM5.053 8.046H0V13.1h5.053V8.046zm7.158 0H7.158V13.1h5.053V8.046zm7.142 0H14.3V13.1h5.053V8.046z" fill="#0078D4"/><path d="M26.527 8.046h-5.052V13.1h5.052V8.046z" fill="#50E6FF"/><path d="M33.684 8.046H28.63V13.1h5.053V8.046zm4.631 5.053a2.523 2.523 0 01-2.526-2.527 2.523 2.523 0 012.526-2.526 2.523 2.523 0 012.527 2.526 2.534 2.534 0 01-2.527 2.527zM48 8.046h-5.053V13.1H48V8.046zM5.053 15.202H0v5.052h5.053v-5.052zm7.158 0H7.158v5.052h5.053v-5.052z" fill="#0078D4"/><path d="M19.353 15.202H14.3v5.052h5.053v-5.052zm7.174 0h-5.052v5.052h5.052v-5.052zm7.157 0H28.63v5.052h5.053v-5.052z" fill="#50E6FF"/><path d="M40.842 15.202h-5.053v5.052h5.053v-5.052zm7.158 0h-5.053v5.052H48v-5.052zM5.053 22.358H0v5.053h5.053v-5.053z" fill="#0078D4"/><path d="M12.211 22.358H7.158v5.053h5.053v-5.053zm7.142 0H14.3v5.053h5.053v-5.053zM24 27.41a2.523 2.523 0 01-2.525-2.526A2.523 2.523 0 0124 22.358a2.523 2.523 0 012.526 2.526A2.534 2.534 0 0124 27.411zm9.684-5.052H28.63v5.053h5.053v-5.053zm7.158 0h-5.053v5.053h5.053v-5.053z" fill="#50E6FF"/><path d="M48 22.358h-5.053v5.053H48v-5.053zM5.053 29.514H0v5.053h5.053v-5.053zm7.158 0H7.158v5.053h5.053v-5.053z" fill="#0078D4"/><path d="M16.827 34.567A2.523 2.523 0 0114.3 32.04a2.523 2.523 0 012.527-2.526 2.523 2.523 0 012.526 2.526 2.534 2.534 0 01-2.526 2.527zm9.7-5.053h-5.052v5.053h5.052v-5.053zm7.157 0H28.63v5.053h5.053v-5.053z" fill="#50E6FF"/><path d="M38.315 34.567a2.523 2.523 0 01-2.526-2.527 2.523 2.523 0 012.526-2.526 2.523 2.523 0 012.527 2.526 2.534 2.534 0 01-2.527 2.527zM48 29.514h-5.053v5.053H48v-5.053zm-42.947 7.16H0v5.052h5.053v-5.052zm7.158 0H7.158v5.052h5.053v-5.052zm7.142 0H14.3v5.052h5.053v-5.052z" fill="#0078D4"/><path d="M24 41.726a2.523 2.523 0 01-2.525-2.526A2.523 2.523 0 0124 36.674a2.523 2.523 0 012.526 2.526A2.534 2.534 0 0124 41.726z" fill="#50E6FF"/><path d="M33.684 36.674H28.63v5.052h5.053v-5.052zm7.158 0h-5.053v5.052h5.053v-5.052zm7.158 0h-5.053v5.052H48v-5.052zm-42.947 7.16H0v5.052h5.053v-5.052zm7.158 0H7.158v5.052h5.053v-5.052zm7.142 0H14.3v5.052h5.053v-5.052zm7.174 0h-5.052v5.052h5.052v-5.052zm7.157 0H28.63v5.052h5.053v-5.052zm4.631 5.052a2.523 2.523 0 01-2.526-2.526 2.523 2.523 0 012.526-2.526 2.523 2.523 0 012.527 2.526 2.534 2.534 0 01-2.527 2.526zM48 43.834h-5.053v5.052H48v-5.052z" fill="#0078D4"/></svg>