<svg xmlns="http://www.w3.org/2000/svg" viewBox="0 0 48 49"><path d="M5.293 1.292H.261v5.024h5.032V1.292zm7.54 0H7.801v5.024h5.032V1.292zm19.919 5.024H27.72V1.292h2.575l2.457 2.82v2.204zM17.73 1.292h-2.473v5.024h2.474V1.292zm3.712 0h-2.474v5.024h2.474V1.292zM5.293 8.753H.261v7.549h5.032V8.753zm9.879-.073h-7.43v7.43h7.43V8.68zm10.056 0h-7.43v7.43h7.43V8.68zm7.507 2.709l-2.466 2.398-2.499.034V8.679h4.965v2.71zm2.432 9.814h-7.17v-2.457l4.755-4.965h2.415v7.422zM.294 36.305v-17.52h6.32V31.28L3.13 36.263l-2.836.042zm40.04-26.085l-2.575 2.39v6.226h2.575V10.22zm-6.219-1.497h1.17l2.457-2.457V1.35h-3.627v7.372zm4.57-3.394l1.186-1.17V1.332h-1.186v3.997zM21.61 18.793h-4.956v7.43h4.956v-7.43zM10.19 31.047l4.949-5.134v-7.035h-4.948v12.169zm12.523-2.321h-7.524v7.523h7.524v-7.523zM47.63 38.789H35.209v9.921h12.42v-9.921zm-17.445-.036h-4.982v9.905h4.982v-9.905zm.042-7.511h-5.082v5.082h5.082v-5.082zm7.515 2.489h-2.6v-2.466l-2.407.034v-5.057h2.373l2.634 2.263v5.226zm-15.055 4.007H.22v2.465h22.468v-2.465zm-9.93 4.712H.303v6.285h12.454V42.45zm9.931 0H15.18v6.285h7.507V42.45zm-8.837-12.302L7.81 36.274h6.042v-6.126zm16.393-7.668h-7.532v3.804h7.532V22.48zm17.419 9.356L37.7 23.758V21.3h9.963v10.536zm-.067-30.478h-4.914v12.43h4.914V1.357zm.034 14.977h-4.99v2.466h4.99v-2.466zm-7.38 19.963h7.405v-.06l-7.406-6.395v6.455z" fill="#0078D4"/></svg>