<svg xmlns="http://www.w3.org/2000/svg" viewBox="0 0 48 49"><path d="M5.053.886H0V5.94h5.053V.886zm0 7.16H0V13.1h5.053V8.046z" fill="#50E6FF"/><path d="M26.527 8.046h-5.052V13.1h5.052V8.046z" fill="#0078D4"/><path d="M33.683 8.046h-5.052V13.1h5.052V8.046zm-28.63 7.156H0v5.052h5.053v-5.052z" fill="#50E6FF"/><path d="M26.527 15.202h-5.052v5.052h5.052v-5.052z" fill="#0078D4"/><path d="M33.683 15.202h-5.052v5.052h5.052v-5.052zm-28.63 7.156H0v5.053h5.053v-5.053z" fill="#50E6FF"/><path d="M12.21 22.358H7.159v5.053h5.053v-5.053z" fill="#0078D4"/><path d="M19.369 22.358h-5.053v5.053h5.053v-5.053z" fill="#50E6FF"/><path d="M26.527 22.358h-5.052v5.053h5.052v-5.053z" fill="#0078D4"/><path d="M33.683 22.358h-5.052v5.053h5.052v-5.053zm-28.63 7.16H0v5.052h5.053v-5.052z" fill="#50E6FF"/><path d="M12.21 29.518H7.159v5.052h5.053v-5.052z" fill="#0078D4"/><path d="M19.369 29.518h-5.053v5.052h5.053v-5.052z" fill="#50E6FF"/><path d="M26.527 29.518h-5.052v5.052h5.052v-5.052z" fill="#0078D4"/><path d="M33.683 29.518h-5.052v5.052h5.052v-5.052zm-28.63 7.156H0v5.052h5.053v-5.052z" fill="#50E6FF"/><path d="M12.21 36.674H7.159v5.052h5.053v-5.052z" fill="#0078D4"/><path d="M19.369 36.674h-5.053v5.052h5.053v-5.052z" fill="#50E6FF"/><path d="M26.527 36.674h-5.052v5.052h5.052v-5.052z" fill="#0078D4"/><path d="M33.683 36.674h-5.052v5.052h5.052v-5.052z" fill="#50E6FF"/><path d="M40.842 36.674h-5.053v5.052h5.053v-5.052z" fill="#0078D4"/><path d="M48 36.674h-5.053v5.052H48v-5.052zm-42.947 7.16H0v5.052h5.053v-5.052z" fill="#50E6FF"/><path d="M12.21 43.834H7.159v5.052h5.053v-5.052z" fill="#0078D4"/><path d="M19.369 43.834h-5.053v5.052h5.053v-5.052z" fill="#50E6FF"/><path d="M26.527 43.834h-5.052v5.052h5.052v-5.052z" fill="#0078D4"/><path d="M33.683 43.834h-5.052v5.052h5.052v-5.052z" fill="#50E6FF"/><path d="M40.842 43.834h-5.053v5.052h5.053v-5.052z" fill="#0078D4"/><path d="M48 43.834h-5.053v5.052H48v-5.052z" fill="#50E6FF"/></svg>