<svg xmlns="http://www.w3.org/2000/svg" viewBox="0 0 48 49"><path d="M3.75 3.136c0 .826-.674 1.5-1.5 1.5s-1.5-.674-1.5-1.5.674-1.5 1.5-1.5 1.5.674 1.5 1.5zm8.697 0c0 .826-.674 1.5-1.5 1.5s-1.5-.674-1.5-1.5.674-1.5 1.5-1.5 1.5.674 1.5 1.5zm8.705 0c0 .826-.674 1.5-1.5 1.5s-1.5-.674-1.5-1.5.674-1.5 1.5-1.5 1.5.674 1.5 1.5z" fill="#0078D4"/><path d="M30 3.136c0 .826-.674 1.5-1.5 1.5s-1.5-.674-1.5-1.5.674-1.5 1.5-1.5 1.5.674 1.5 1.5z" fill="#50E6FF"/><path d="M39 3.136c0 .826-.674 1.5-1.5 1.5s-1.5-.674-1.5-1.5.674-1.5 1.5-1.5 1.5.674 1.5 1.5zm8.25 0c0 .826-.674 1.5-1.5 1.5s-1.5-.674-1.5-1.5.674-1.5 1.5-1.5 1.5.674 1.5 1.5zm-43.5 8.696c0 .825-.674 1.5-1.5 1.5s-1.5-.675-1.5-1.5c0-.826.674-1.5 1.5-1.5s1.5.674 1.5 1.5zm8.697 0c0 .825-.674 1.5-1.5 1.5s-1.5-.675-1.5-1.5c0-.826.674-1.5 1.5-1.5s1.5.674 1.5 1.5zm9.455 0a2.255 2.255 0 01-2.25 2.25 2.255 2.255 0 01-2.25-2.25 2.255 2.255 0 012.25-2.25 2.255 2.255 0 012.25 2.25z" fill="#0078D4"/><path d="M30.75 11.832a2.255 2.255 0 01-2.25 2.25 2.255 2.255 0 01-2.25-2.25 2.25 2.25 0 114.5 0z" fill="#50E6FF"/><path d="M39.75 11.832a2.255 2.255 0 01-2.25 2.25 2.255 2.255 0 01-2.25-2.25 2.25 2.25 0 114.5 0zm8.25 0a2.255 2.255 0 01-2.25 2.25 2.255 2.255 0 01-2.25-2.25 2.25 2.25 0 114.5 0zM3.75 20.539c0 .825-.674 1.5-1.5 1.5s-1.5-.675-1.5-1.5c0-.826.674-1.5 1.5-1.5s1.5.665 1.5 1.5zm9.447 0a2.255 2.255 0 01-2.25 2.25 2.255 2.255 0 01-2.25-2.25 2.25 2.25 0 114.5 0z" fill="#0078D4"/><path d="M21.902 20.539a2.255 2.255 0 01-2.25 2.25 2.255 2.255 0 01-2.25-2.25 2.25 2.25 0 114.5 0zm9.598 0c0 1.66-1.34 3-3 3s-3-1.34-3-3 1.34-3 3-3 3 1.34 3 3zm8.25 0a2.255 2.255 0 01-2.25 2.25 2.255 2.255 0 01-2.25-2.25 2.255 2.255 0 012.25-2.25 2.244 2.244 0 012.25 2.25z" fill="#50E6FF"/><path d="M48 20.539a2.255 2.255 0 01-2.25 2.25 2.255 2.255 0 01-2.25-2.25 2.255 2.255 0 012.25-2.25 2.244 2.244 0 012.25 2.25zM3.75 29.386c0 .826-.674 1.5-1.5 1.5s-1.5-.674-1.5-1.5.674-1.5 1.5-1.5 1.5.674 1.5 1.5z" fill="#0078D4"/><path d="M13.197 29.386a2.255 2.255 0 01-2.25 2.25 2.255 2.255 0 01-2.25-2.25 2.255 2.255 0 012.25-2.25 2.255 2.255 0 012.25 2.25zm9.455 0c0 1.66-1.34 3-3 3s-3-1.34-3-3 1.34-3 3-3 3 1.34 3 3zm10.348 0a4.5 4.5 0 01-4.5 4.5 4.5 4.5 0 01-4.5-4.5 4.5 4.5 0 014.5-4.5 4.5 4.5 0 014.5 4.5zm7.5 0c0 1.66-1.34 3-3 3s-3-1.34-3-3 1.34-3 3-3 3 1.34 3 3zm6.75 0c0 .826-.674 1.5-1.5 1.5s-1.5-.674-1.5-1.5.674-1.5 1.5-1.5 1.5.674 1.5 1.5z" fill="#50E6FF"/><path d="M3.75 37.94c0 .827-.674 1.5-1.5 1.5s-1.5-.673-1.5-1.5c0-.825.674-1.5 1.5-1.5s1.5.667 1.5 1.5zm8.697 0c0 .827-.674 1.5-1.5 1.5s-1.5-.673-1.5-1.5c0-.825.674-1.5 1.5-1.5s1.5.667 1.5 1.5z" fill="#0078D4"/><path d="M21.902 37.94a2.255 2.255 0 01-2.25 2.25 2.255 2.255 0 01-2.25-2.25 2.25 2.25 0 114.5 0zm9.598 0c0 1.661-1.34 3-3 3s-3-1.339-3-3c0-1.66 1.34-3 3-3s3 1.34 3 3zm8.25.286a2.255 2.255 0 01-2.25 2.25 2.255 2.255 0 01-2.25-2.25 2.25 2.25 0 114.5 0zm7.5-.286c0 .827-.674 1.5-1.5 1.5s-1.5-.673-1.5-1.5c0-.825.674-1.5 1.5-1.5s1.5.667 1.5 1.5z" fill="#50E6FF"/><path d="M3.75 46.636c0 .826-.674 1.5-1.5 1.5s-1.5-.674-1.5-1.5.674-1.5 1.5-1.5 1.5.674 1.5 1.5zm8.697 0c0 .826-.674 1.5-1.5 1.5s-1.5-.674-1.5-1.5.674-1.5 1.5-1.5 1.5.674 1.5 1.5zm9.455 0a2.255 2.255 0 01-2.25 2.25 2.255 2.255 0 01-2.25-2.25 2.255 2.255 0 012.25-2.25 2.255 2.255 0 012.25 2.25z" fill="#0078D4"/><path d="M30.75 46.636a2.255 2.255 0 01-2.25 2.25 2.255 2.255 0 01-2.25-2.25 2.25 2.25 0 114.5 0z" fill="#50E6FF"/><path d="M39.75 46.636a2.255 2.255 0 01-2.25 2.25 2.255 2.255 0 01-2.25-2.25 2.25 2.25 0 114.5 0z" fill="#0078D4"/><path d="M47.25 46.636c0 .826-.674 1.5-1.5 1.5s-1.5-.674-1.5-1.5.674-1.5 1.5-1.5 1.5.674 1.5 1.5z" fill="#50E6FF"/></svg>