<svg xmlns="http://www.w3.org/2000/svg" viewBox="0 0 49 49"><path d="M3.526 5.939A2.523 2.523 0 011 3.412 2.523 2.523 0 013.526.886a2.523 2.523 0 012.527 2.526A2.534 2.534 0 013.526 5.94zM13.21.886H8.159V5.94h5.053V.886zm7.158 0h-5.052V5.94h5.052V.886z" fill="#0078D4"/><path d="M32.158.886a2.523 2.523 0 00-2.526 2.526 2.523 2.523 0 002.526 2.527 2.523 2.523 0 002.526-2.527A2.523 2.523 0 0032.158.886zm7.361 5.044a2.521 2.521 0 01-2.72-2.72A2.532 2.532 0 0139.114.893a2.521 2.521 0 012.72 2.72 2.525 2.525 0 01-2.315 2.315z" fill="#50E6FF"/><path d="M6.053 8.042H1v5.053h5.053V8.042zm7.157 0H8.159v5.053h5.053V8.042zm7.158 0h-5.052v5.053h5.052V8.042zm7.158 0h-5.053v5.053h5.053V8.042zm7.158 0h-5.052v5.053h5.052V8.042z" fill="#0078D4"/><path d="M39.316 13.095a2.523 2.523 0 01-2.526-2.527 2.523 2.523 0 012.526-2.526 2.523 2.523 0 012.527 2.526 2.534 2.534 0 01-2.527 2.527z" fill="#50E6FF"/><path d="M6.053 15.202H1v5.053h5.053v-5.053zm7.157 0H8.159v5.053h5.053v-5.053zm7.158 0h-5.052v5.053h5.052v-5.053zm7.158 0h-5.053v5.053h5.053v-5.053z" fill="#0078D4"/><path d="M32.158 15.202a2.523 2.523 0 00-2.526 2.526 2.523 2.523 0 002.526 2.527 2.523 2.523 0 002.526-2.527 2.523 2.523 0 00-2.526-2.526z" fill="#50E6FF"/><path d="M41.843 15.202H36.79v5.053h5.053v-5.053z" fill="#0078D4"/><path d="M46.474 15.202a2.523 2.523 0 00-2.527 2.526 2.523 2.523 0 002.527 2.527A2.523 2.523 0 0049 17.728a2.523 2.523 0 00-2.526-2.526z" fill="#50E6FF"/><path d="M6.053 22.358H1v5.053h5.053v-5.053zm7.157 0H8.159v5.053h5.053v-5.053zm7.158 0h-5.052v5.053h5.052v-5.053z" fill="#0078D4"/><path d="M25 27.41a2.523 2.523 0 01-2.527-2.526A2.523 2.523 0 0125 22.358a2.523 2.523 0 012.526 2.526A2.534 2.534 0 0125 27.411z" fill="#50E6FF"/><path d="M34.684 22.358h-5.052v5.053h5.052v-5.053zm7.159 0H36.79v5.053h5.053v-5.053zm-35.79 7.16H1v5.052h5.053v-5.052zm7.157 0H8.159v5.052h5.053v-5.052z" fill="#0078D4"/><path d="M17.842 34.57a2.523 2.523 0 01-2.526-2.526 2.523 2.523 0 012.526-2.526 2.523 2.523 0 012.526 2.526 2.534 2.534 0 01-2.526 2.526z" fill="#50E6FF"/><path d="M27.526 29.518h-5.053v5.052h5.053v-5.052zm7.158 0h-5.052v5.052h5.052v-5.052zm4.632 5.052a2.523 2.523 0 01-2.526-2.526 2.523 2.523 0 012.526-2.526 2.523 2.523 0 012.527 2.526 2.534 2.534 0 01-2.527 2.526zM49 29.518h-5.053v5.052H49v-5.052zM6.053 36.674H1v5.052h5.053v-5.052z" fill="#0078D4"/><path d="M10.684 36.674A2.523 2.523 0 008.158 39.2a2.523 2.523 0 002.526 2.526 2.523 2.523 0 002.527-2.526 2.523 2.523 0 00-2.527-2.526z" fill="#50E6FF"/><path d="M20.368 36.674h-5.052v5.052h5.052v-5.052zM25 41.726a2.523 2.523 0 01-2.527-2.526A2.523 2.523 0 0125 36.674a2.523 2.523 0 012.526 2.526A2.534 2.534 0 0125 41.726zm9.684-5.052h-5.052v5.052h5.052v-5.052zm7.159 0H36.79v5.052h5.053v-5.052zm7.157 0h-5.053v5.052H49v-5.052z" fill="#0078D4"/><path d="M3.527 43.834A2.523 2.523 0 001 46.36a2.523 2.523 0 002.527 2.526 2.523 2.523 0 002.526-2.526 2.523 2.523 0 00-2.526-2.526z" fill="#50E6FF"/><path d="M13.21 43.834H8.159v5.052h5.053v-5.052zm7.158 0h-5.052v5.052h5.052v-5.052zm7.158 0h-5.053v5.052h5.053v-5.052zm7.158 0h-5.052v5.052h5.052v-5.052zm4.632 5.052a2.523 2.523 0 01-2.526-2.526 2.523 2.523 0 012.526-2.526 2.523 2.523 0 012.527 2.526 2.534 2.534 0 01-2.527 2.526zM49 43.834h-5.053v5.052H49v-5.052z" fill="#0078D4"/><path d="M49 22.358h-5.053v5.053H49v-5.053zM49 .886h-5.053V5.94H49V.886zm0 7.156h-5.053v5.053H49V8.042zM27.526.886h-5.053V5.94h5.053V.886z" fill="#50E6FF"/></svg>