<svg xmlns="http://www.w3.org/2000/svg" viewBox="0 0 48 49"><path d="M48 .988H0v48h48v-48z" fill="#50E6FF"/><path d="M5.295 1.293H.26v5.02h5.036v-5.02zm7.531 0H7.79v5.02h5.036v-5.02zm19.919 5.02h-5.02v-5.02h2.558l2.462 2.818v2.202zm-15.012-5.02h-2.478v5.02h2.478v-5.02zm3.708 0h-2.478v5.02h2.478v-5.02zM5.295 8.759H.26v7.547h5.036V8.759zm9.879-.08H7.74v7.433h7.433V8.68zm10.056 0h-7.433v7.433h7.434V8.68zm7.498 2.704l-2.461 2.397-2.494.033V8.679h4.955v2.704zm2.43 9.817H28v-2.46l4.745-4.956h2.413V21.2zM.292 36.293V18.787h6.331v12.486L3.126 36.26l-2.834.032zM40.323 10.22l-2.558 2.38v6.236h2.558V10.22zm-6.218-1.492h1.182l2.446-2.462V1.343h-3.628v7.385zm4.583-3.4l1.182-1.166V1.328h-1.182v4zM21.603 18.787h-4.955v7.433h4.955v-7.433zM10.187 31.045l4.955-5.133v-7.045h-4.955v12.178zm12.518-2.315H15.19v7.514h7.515V28.73zm24.923 10.053H35.206v9.911h12.422v-9.91zm-17.442-.03h-4.988v9.911h4.988v-9.91zm.032-7.516h-5.085v5.085h5.085v-5.085zm7.515 2.478h-2.591V31.27l-2.413.016v-5.053h2.364l2.64 2.267v5.215zm-15.045 4.017H.21v2.462h22.478v-2.462zm-9.927 4.714H.308v6.284H12.76v-6.284zm9.928 0h-7.515v6.284h7.515v-6.284zm-8.843-12.31l-6.04 6.138h6.04v-6.138zm16.389-7.661h-7.53v3.806h7.53v-3.806zm17.425 9.362l-9.96-8.081v-2.462h9.96v10.543zm-.065-30.479h-4.923v12.437h4.923V1.358zm.032 14.982h-4.988v2.462h4.988V16.34zm-7.384 19.951h7.417v-.064l-7.417-6.381v6.445z" fill="#0078D4"/></svg>