<svg xmlns="http://www.w3.org/2000/svg" viewBox="0 0 48 49"><path d="M10.125 38.863H.035v10.09h10.09v-10.09zm12.614 0H12.648v10.09h10.09v-10.09zm12.613 0h-10.09v10.09h10.09v-10.09zm12.614 0H37.875v10.09h10.091v-10.09zM10.125 26.25H.035v10.09h10.09V26.25zm12.614 0H12.648v10.09h10.09V26.25zm12.613 0h-10.09v10.09h10.09V26.25zm12.614 0H37.875v10.09h10.091V26.25zM22.739 8.59H12.648v10.09h10.09V8.59zM10.125 6.066H.035v10.091h10.09V6.066zm25.227 5.047h-10.09v10.09h10.09v-10.09zm12.614 2.523H37.875v10.091h10.091v-10.09z" fill="#0078D4"/><path d="M36.63 48.953c6.28 0 11.37-5.09 11.37-11.37 0-6.278-5.09-11.369-11.37-11.369-6.279 0-11.369 5.09-11.369 11.37 0 6.279 5.09 11.369 11.37 11.369z" fill="#50E6FF"/><path d="M32.847 36.668a2.871 2.871 0 01-2.868-2.867 2.871 2.871 0 012.868-2.868 2.871 2.871 0 012.867 2.868 2.876 2.876 0 01-2.867 2.867zm0-4.633a1.775 1.775 0 100 3.55 1.775 1.775 0 000-3.55zm7.686 12.418a2.871 2.871 0 01-2.868-2.867 2.871 2.871 0 012.868-2.868 2.871 2.871 0 012.867 2.868 2.871 2.871 0 01-2.867 2.867zm0-4.633a1.775 1.775 0 100 3.55 1.775 1.775 0 000-3.55zm2.927-8.06l-.773-.772L30.194 43.48l.773.773L43.46 31.76z" fill="#0078D4"/></svg>