<svg xmlns="http://www.w3.org/2000/svg" viewBox="0 0 48 49"><path d="M47.91 48.988V38.902H.006v10.086H47.91z" fill="#0078D4"/><path d="M47.903 26.34H0v10.085h47.903V26.34zm0-25.352H0v10.11h47.903V.988z" fill="#50E6FF"/><path d="M47.908 23.82V13.66H.005v10.16h47.903z" fill="#0078D4"/><path d="M32.964 15.969H27.59v5.375h5.375v-5.375zm-12.608 0H14.98v5.375h5.375v-5.375zm-12.643 0H2.338v5.375h5.375v-5.375zm37.911 0h-5.375v5.375h5.375v-5.375z" fill="#50E6FF"/><path d="M32.963 8.742V3.367h-5.375v5.375h5.375zm-12.611.004V3.372h-5.375v5.374h5.375zM7.705 8.75V3.374H2.33v5.374h5.375zm37.911 0V3.375h-5.375V8.75h5.375z" fill="#0078D4"/><path d="M4.98 46.596a2.709 2.709 0 100-5.417 2.709 2.709 0 000 5.417zm12.676 0a2.708 2.708 0 100-5.417 2.708 2.708 0 000 5.417zm12.625 0a2.709 2.709 0 100-5.417 2.709 2.709 0 000 5.417zm12.559 0a2.709 2.709 0 100-5.417 2.709 2.709 0 000 5.417z" fill="#50E6FF"/><path d="M4.98 33.96a2.709 2.709 0 100-5.418 2.709 2.709 0 000 5.417zm12.676 0a2.708 2.708 0 100-5.417 2.708 2.708 0 000 5.416zm12.625 0a2.709 2.709 0 100-5.418 2.709 2.709 0 000 5.417zm12.559 0a2.709 2.709 0 100-5.418 2.709 2.709 0 000 5.417z" fill="#0078D4"/></svg>