<svg xmlns="http://www.w3.org/2000/svg" viewBox="0 0 48 49"><path d="M10.112.996H.01v10.103h10.103V.996zm12.63 0H12.638v10.103h10.104V.996zm12.629 0H25.268v10.103H35.37V.996zM48 .996H37.897v10.103H48V.996zM10.112 13.625H.01v10.103h10.103V13.625zm12.629-.001H12.638v10.104H22.74V13.624zm12.629 0H25.268v10.104h10.104V13.624zm12.63 0H37.897v10.104H48V13.624zM10.112 26.253H.01v10.104h10.103V26.253z" fill="#0078D4"/><path d="M17.69 36.357a5.056 5.056 0 01-5.052-5.052 5.056 5.056 0 015.051-5.052 5.056 5.056 0 015.052 5.052 5.056 5.056 0 01-5.052 5.052z" fill="#50E6FF"/><path d="M35.37 26.253H25.268v10.104h10.104V26.253zm12.63 0H37.897v10.104H48V26.253zm-37.888 12.63H.01v10.103h10.103V38.883zm12.629-.001H12.638v10.104H22.74V38.882zm12.629 0H25.268v10.104h10.104V38.882zm12.63 0H37.897v10.104H48V38.882z" fill="#0078D4"/></svg>