<svg xmlns="http://www.w3.org/2000/svg" viewBox="0 0 40 24"><path d="M33.7 17.6a6.44 6.44 0 00-2.519.48c-.472.16-.945.48-1.417.8-.473.32-.788.8-1.103 1.28-.787 1.12-1.26 2.4-1.26 3.84H40c0-3.68-2.835-6.4-6.3-6.4zm-.314-1.6h.63c.945 0 1.89-.48 2.52-1.12.63-.8 1.102-1.76 1.102-2.72 0-2.24-1.732-4-3.937-4s-3.937 1.76-3.937 4c0 1.12.472 2.08 1.102 2.72.63.64 1.575.96 2.52 1.12z" fill="#0078D4"/><path d="M0 24h7.402c0-2.08.472-4.16 1.417-5.76-.788-.48-1.575-.64-2.52-.64C2.835 17.6 0 20.48 0 24zM6.3 6.4c-2.678 0-4.725 2.24-4.725 4.8 0 1.44.63 2.72 1.732 3.68.787.64 1.732 1.12 2.677 1.12h.63a3.77 3.77 0 002.677-1.12c1.103-.96 1.733-2.24 1.733-3.68 0-2.56-2.048-4.8-4.725-4.8z" fill="#50E6FF"/><path d="M13.07 17.28c-.314.32-.787.8-.944 1.28-.315.48-.63.96-.787 1.44a9.8 9.8 0 00-.788 3.84h13.701c0-2.56.945-4.8 2.677-6.56-1.732-1.76-4.252-2.88-6.929-2.88-2.677 0-5.197 1.12-6.93 2.88zm3.308-5.6c.945.64 2.047.96 3.15 1.12h.944c1.103-.16 2.205-.48 3.15-1.12C25.197 10.56 26.3 8.64 26.3 6.4c0-2.56-1.575-4.8-3.622-5.76C21.89.16 20.945 0 20 0c-.945 0-1.732.16-2.677.64-2.047.96-3.622 3.2-3.622 5.76 0 2.24 1.102 4.16 2.677 5.28z" fill="#243A5E"/></svg>