<svg xmlns="http://www.w3.org/2000/svg" viewBox="0 0 48 43"><rect x="2" y="2" width="44" height="30" rx="2" fill="#fff" stroke="#0078D4" stroke-width="4"/><path d="M21.108 13.282c.81 0 1.55.209 2.221.602v-.023l-1.99-3.471h-1.574a2.67 2.67 0 01-.67 1.782l.74 1.272a4.57 4.57 0 011.273-.162zm-8.24 1.668c.14-.024.301-.024.44 0l.671-1.158.949-1.666a2.608 2.608 0 01-.671-1.759H12.66l-1.99 3.471.856 1.482a2.79 2.79 0 011.342-.37zm3.032-2.061l-1.458 2.546c.625.44 1.064 1.11 1.157 1.874h1.088a4.36 4.36 0 012.036-3.332l-.625-1.088a2.608 2.608 0 01-2.198 0zm.857 5.601h-1.25a2.736 2.736 0 01-1.25 1.573l.74 1.296h3.61a4.382 4.382 0 01-1.85-2.87z" fill="#50E6FF"/><path d="M17.952 11.357a1.365 1.365 0 10-1.93-1.93 1.365 1.365 0 001.93 1.93zm3.47 7.673a1.365 1.365 0 10-.628-2.658 1.365 1.365 0 00.628 2.657zm-7.584-.357a1.365 1.365 0 10-1.931-1.93 1.365 1.365 0 001.931 1.93z" fill="#0078D4"/><path opacity=".5" d="M19.811 13.468l.231.393.671 1.157a1.26 1.26 0 01.417 0c.486 0 .949.14 1.365.37l.81-1.504a4.49 4.49 0 00-2.221-.601c-.417 0-.856.046-1.273.185zm-1.203 7.892h.347l.74-1.273a2.66 2.66 0 01-1.226-1.597h-1.736a4.498 4.498 0 001.875 2.87zm-1.92-4.05h1.69a2.741 2.741 0 011.18-1.875l-.857-1.458a4.464 4.464 0 00-2.013 3.332z" fill="#50E6FF"/><path fill-rule="evenodd" clip-rule="evenodd" d="M32.87 24.524l-6.048-9.072 2.462-1.641 6.048 9.072-2.462 1.641z" fill="#0078D4"/><path fill-rule="evenodd" clip-rule="evenodd" d="M45.214 42.962L32.79 24.327l2.461-1.641L47.675 41.32l-2.461 1.64z" fill="#50E6FF"/></svg>