<svg xmlns="http://www.w3.org/2000/svg" viewBox="0 0 48 48"><path d="M23.42 33.754c-.379-1.631.47-3.246 2.018-3.835a4.513 4.513 0 011.58-.31c.497 0 .951.092 1.372.277-.017-3.02-.042-6.299-.042-6.694 0-1.892 1.648-3.019 3.237-3.019.084 0 .177 0 .26.008 1.002.068 2.726.547 3.053 3.036.068.53.084 2.11.076 3.801.168 0 .337.017.513.042 1.303.185 2.22.95 2.573 2.094h.11c.37 0 .74.067 1.101.194a3.77 3.77 0 011.16.647V.175H5.147V42.98h21.587a37.54 37.54 0 01-.824-1.135c-.765-1.211-2.472-8.023-2.49-8.09z" fill="#50E6FF"/><path d="M31.703 47.99h9.225c.059 0 1.724-7.846 1.909-8.56.185-.715-.017-3.827-.017-4.886 0-1.06-.303-2.002-1.396-2.077-.059-.009-.118-.009-.168-.009-.765 0-1.11.387-1.211.538l-.025.026c-.009 0-.017-.017-.017-.042 0-.101 0-.286-.017-.42-.017-.211.135-1.229-1.244-1.716a1.639 1.639 0 00-.572-.101c-.69 0-1.152.488-1.363.782a.076.076 0 01-.067.034.084.084 0 01-.084-.085 76.06 76.06 0 01-.017-1.143c0-.244.076-1.497-1.379-1.699a2.934 2.934 0 00-.37-.025c-.757 0-1.169.361-1.37.622a.073.073 0 01-.06.034.084.084 0 01-.084-.084c.017-1.102.06-5.004-.042-5.744-.117-.866-.412-1.59-1.589-1.665-.059 0-.11-.008-.16-.008-1.068 0-1.656.723-1.656 1.438 0 .622.05 8.695.067 11.58 0 .109-.084.167-.168.167a.167.167 0 01-.16-.109c-.26-.723-.63-1.724-.95-2.447-.379-.866-1.018-1.186-1.699-1.186-.336 0-.681.076-1.018.202-.925.353-1.21 1.27-1.042 2.001.151.64 1.757 6.762 2.287 7.594.53.833 2.985 3.742 3.515 4.423.53.673.942 2.565.942 2.565zM28.07 5.129L17.684 15.514l-3.11-3.111-2.07 2.077 5.18 5.18L30.148 7.206 28.07 5.129z" fill="#0078D4"/></svg>