<svg xmlns="http://www.w3.org/2000/svg" viewBox="0 0 48 48"><path d="M42.756 21.448c-1.122-8.43-7.806-15.105-16.237-16.227V0h-5.045v5.21C13.043 6.344 6.368 13.018 5.246 21.449H.006v5.045h5.24c1.122 8.431 7.797 15.116 16.228 16.238V48h5.045v-5.27c8.43-1.121 15.115-7.796 16.237-16.237h5.24v-5.045h-5.24zm-8.938 12.334a13.87 13.87 0 01-17.526 1.728 13.87 13.87 0 01-5.904-14.247 13.87 13.87 0 0110.9-10.9 13.869 13.869 0 0114.247 5.904 13.908 13.908 0 012.342 7.709 13.814 13.814 0 01-4.06 9.806z" fill="#0078D4"/><path d="M32.88 25.23H15.13a2.482 2.482 0 00-2.478 2.479 2.482 2.482 0 002.479 2.479h17.75a2.482 2.482 0 002.478-2.479 2.482 2.482 0 00-2.478-2.479z" fill="#0078D4"/><path d="M15.17 28.97c.694 0 1.26-.565 1.26-1.258 0-.693-.566-1.259-1.26-1.259-.692 0-1.258.566-1.258 1.259s.566 1.259 1.259 1.259zm17.661 0c.693 0 1.259-.565 1.259-1.258 0-.693-.566-1.259-1.259-1.259s-1.259.566-1.259 1.259.566 1.259 1.26 1.259zm-11.984-1.258c0-.693-.566-1.259-1.258-1.259-.693 0-1.26.566-1.26 1.259s.567 1.259 1.26 1.259c.692 0 1.258-.566 1.258-1.26zm4.423 0c0-.693-.566-1.259-1.26-1.259-.692 0-1.258.566-1.258 1.259s.566 1.259 1.259 1.259 1.259-.566 1.259-1.26zm4.41 0c0-.693-.566-1.259-1.26-1.259-.692 0-1.258.566-1.258 1.259s.566 1.259 1.259 1.259 1.259-.566 1.259-1.26zm-6.977-8.79h-5.045v5.045h5.045v-5.045z" fill="#50E6FF"/></svg>