<svg xmlns="http://www.w3.org/2000/svg" viewBox="0 0 48 48"><path d="M23.89 1.84l20.058 11.777-1.283 2.178L23.882 4.778 5.53 15.381l-1.267-2.195L23.89 1.841z" fill="#50E6FF"/><path d="M23.89 12.866l20.058 11.767-1.283 2.187-18.783-11.025L5.53 26.398l-1.267-2.195L23.89 12.866z" fill="#50E6FF"/><path d="M23.89 22.354L43.948 34.12l-1.283 2.187-18.783-11.025L5.53 35.886 4.263 33.69 23.89 22.354z" fill="#50E6FF"/><path d="M23.89 32.239l20.058 11.776-1.283 2.178-18.783-11.016L5.53 45.779l-1.267-2.195L23.89 32.24z" fill="#50E6FF"/><path d="M40.8 48H48v-7.2h-7.2V48zm-20.396 0h7.2v-7.2h-7.2V48zM0 48h7.201v-7.2h-7.2V48zm40.8-10.198H48v-7.2h-7.2v7.2zm-20.396 0h7.201v-7.2h-7.2v7.2zM0 37.802h7.201v-7.2h-7.2v7.2zm40.8-10.206H48v-7.2h-7.2v7.2zm-40.8 0h7.201v-7.2h-7.2v7.2zm40.8-10.197H48v-7.201h-7.2v7.2zm-20.396 0h7.201v-7.201h-7.2v7.2zM0 17.399h7.201v-7.201h-7.2v7.2zM40.8 7.2H48V0h-7.2v7.2zm-20.396 0h7.201V0h-7.2v7.2zM0 7.2h7.201V0h-7.2v7.2zm20.404 20.396h7.201v-7.2h-7.2v7.2z" fill="#0078D4"/></svg>