<svg xmlns="http://www.w3.org/2000/svg" viewBox="0 0 97 97"><path d="M76.267 10.64h-20.2v20.224h20.217l-.017-20.224zm4.949 65.488h-15.25V91.4h15.267l-.017-15.273zM50.748 35.831h-15.25v15.274h15.267l-.017-15.273zM35.632 65.788h-20.2v20.224H35.65V65.788h-.017zM20.617 25.644H.434v20.224H20.65V25.644h-.033z" fill="#50E6FF"/><path d="M30.7 52.081H.518v30.21h30.199V52.08H30.7zm65.465-31.354H65.83V51.07h30.334V20.727zM45.8 10.64H14.81v31.001H45.8v-31zm25.25 50.433H40.765v30.294H71.05V61.073z" fill="#0078D4"/><path d="M74.971 34.973c.623 0 1.027.117 1.229.336.202.22.252.623.151 1.162-.117.573-.336.977-.656 1.23-.32.252-.808.37-1.464.37h-.977l.606-3.098h1.111zM71 41.237h1.632l.388-1.97h1.397c.606 0 1.11-.068 1.515-.186a2.822 2.822 0 001.077-.64c.27-.252.488-.522.657-.825.168-.303.286-.64.353-.993.168-.876.034-1.566-.387-2.054-.438-.489-1.111-.741-2.054-.741h-3.13L71 41.237zm8.231-9.413h1.616l-.387 1.97h1.43c.91 0 1.532.152 1.87.471.336.32.454.825.302 1.516l-.673 3.452h-1.633l.64-3.284c.067-.37.05-.623-.084-.757-.135-.135-.405-.203-.809-.203h-1.279l-.825 4.244h-1.616l1.448-7.41zm8.45 3.149c.623 0 1.027.117 1.23.336.201.22.252.623.15 1.162-.117.573-.336.977-.656 1.23-.32.252-.808.37-1.464.37h-.993l.605-3.098h1.128zm-3.972 6.264h1.633l.37-1.97h1.397c.623 0 1.11-.068 1.515-.186a2.823 2.823 0 001.077-.64c.27-.252.488-.522.657-.825a3.33 3.33 0 00.353-.993c.169-.876.034-1.566-.387-2.054-.438-.489-1.11-.741-2.054-.741h-3.13l-1.431 7.409zM60.023 74.208c-.572.27-1.868.522-3.417.623-2.07.168-3.77 0-3.804-.32 0-.168.808-.522 1.734-.791-1.734.134-3.013.488-2.98.875.034.455 1.92.758 4.293.707 2.356-.05 4.259-.522 4.242-.976-.017-.034-.05-.084-.068-.118zM56.96 76.43c-1.852.186-3.4 0-3.417-.403-.034-.135.168-.303.488-.455-.707.185-1.162.455-1.145.707.034.522 1.65.842 3.636.792 1.229-.05 2.273-.253 2.93-.489l-.59-.454c-.556.118-1.212.219-1.902.303zm4.898 2.594c-.05.135-.135.303-.252.404a1.154 1.154 0 01-.404.219c-.54.27-2.138.488-4.125.539h-.707c-2.76 0-5.184-.27-5.184-.674 0-.219.74-.454 1.633-.59l-.186-.134c-1.43.135-2.49.573-2.49.977v.034c.05.522 1.632.791 3.669.926.673.05 1.43.033 2.205.033 3.333 0 6.077-.623 6.077-1.414a.878.878 0 00-.236-.32z" fill="#fff"/><path d="M62.784 79.714c-.252.809-2.828 1.55-6.094 1.55-1.01 0-2.66-.102-4.292-.27 1.11.438 2.171.623 4.31.623 3.416 0 6.093-.791 6.093-1.684.034-.067.017-.151-.017-.219zm-.084-5.456c-.354-.707-1.28-.976-2.07-.589-.102.05-.186.101-.27.169.74-.253 1.43-.034 1.683.522.303.623-.05 1.229-.757 1.768-.169.134-.943.707-1.145.74.455 0 1.06-.168 1.717-.589.774-.488 1.195-1.28.842-2.02zm-5.892 3.974c-1.515.102-2.76-.084-2.794-.437 0-.05.033-.101.084-.169-.455.135-.758.354-.758.54 0 .454 1.364.841 3.047.841 1.296 0 2.39-.219 2.828-.539-.252-.168-.539-.387-.757-.522-.472.118-1.044.236-1.65.286zm.286-3.99s.489-.27.455-1.028c-.034-.74-1.111-1.465-1.078-2.475.034-1.01 1.28-1.87 1.768-2.172.488-.303 2.087-.808 2.087-.808s-1.279.791-1.919 1.296c-.656.522-.875 1.23-.79 1.735.083.488 1.077 1.28.891 1.869-.202.606-.858 1.498-1.414 1.583z" fill="#fff"/><path d="M58.256 64.205s.74.977.252 2.173c-.488 1.195-1.43 2.004-2.087 2.492-.657.488-1.414 1.23-1.229 2.256.185 1.027.875 1.735 1.027 1.903.134.169.303.674.303.674s-1.162-1.01-1.6-1.583c-.437-.573-.976-1.55-.454-2.425.488-.842 1.6-1.465 2.794-2.492 1.179-1.027 1.095-2.51.994-2.998zM55.142 88h-.657v-.573h-.034c-.269.488-.589.74-1.144.74-.388 0-.707-.1-.926-.32-.253-.218-.354-.488-.354-.841 0-.758.354-1.162 1.246-1.297l1.06-.084c0-.674-.168-1.027-.706-1.027-.489 0-1.01.084-1.38.404v-.657c.1-.084.656-.32 1.43-.32.842 0 1.414.32 1.414 1.33V88h.05zm-.775-1.887l-.841.084c-.32.05-.354.085-.489.186-.134.1-.185.303-.185.538 0 .186.034.304.169.405.134.1.252.134.454.134.32 0 .404-.05.623-.27.219-.218.252-.538.252-.875v-.219h.017v.017zM62.548 88h-.656v-.573h-.034c-.27.488-.59.74-1.145.74-.387 0-.707-.1-.925-.32-.253-.218-.354-.488-.354-.841 0-.758.354-1.162 1.246-1.297l1.06-.084c0-.674-.168-1.027-.707-1.027-.488 0-1.01.084-1.38.404v-.657c.1-.084.656-.32 1.43-.32.842 0 1.415.32 1.415 1.33V88h.05zm-.757-1.887l-.842.084c-.32.05-.353.085-.488.186-.135.1-.185.303-.185.538 0 .186.033.304.168.405.135.1.253.134.455.134.32 0 .404-.05.622-.27.22-.218.253-.538.253-.875v-.219h.017v.017zm-2.643-2.105l-1.145 3.94h-1.077l-1.33-3.94h.926l.926 3.048.808-3.048h.892zm-7.726 2.274v-3.604h-.893v3.604c0 1.01.135 1.987-.353 2.34a1.888 1.888 0 01-.573.303l.522.59c.404-.22.808-.54 1.06-.876.27-.37.236-1.7.236-2.357z" fill="#fff"/><path d="M96.232 51.307h-20.2V71.53h20.217V51.306h-.017z" fill="#50E6FF"/><path d="M10.935 68.741a.248.248 0 01-.248-.247v-4.011h-.426l-1.289.495v.307h.597v3.2c0 .137-.11.248-.247.248h-.41v.392h2.475v-.392h-.452v.008zm-.777-5.018a.674.674 0 100-1.348.674.674 0 000 1.348zm6.538 5.018a.248.248 0 01-.248-.247V65.83c.009-.35-.042-.76-.4-1.075-.36-.316-1.016-.333-1.34-.214-.231.086-.812.35-1.136.495v-.554h-.495l-1.288.495v.307h.597v3.2a.248.248 0 01-.247.248h-.325v.392h2.304v-.392h-.298a.248.248 0 01-.248-.248V65.43c.23-.068.453-.162.657-.18.214-.016.504-.05.794.129.213.136.299.324.29.444v2.662c0 .137-.11.248-.247.248h-.273v.392h2.304v-.392h-.401v.008zm5.299-.247v-4.011h-.46l-1.323.452v.35h.7v2.978c-.23.069-.436.162-.564.17-.29.026-.597.052-.879-.127-.213-.137-.298-.324-.29-.444v-3.38h-.452l-1.332.453v.35h.65v2.569c-.01.35.042.76.4 1.075.359.316 1.033.273 1.374.205.265-.052.777-.342 1.101-.487v.555h1.715v-.495h-.426c-.12-.008-.213-.102-.213-.213zm5.232.042l-1.34-1.877 1.144-1.51a.465.465 0 01.367-.18h.239v-.418h-1.75v.418h.299c.136 0 .213.154.128.265l-.76 1.015-.742-1.015a.168.168 0 01.136-.265h.24v-.418H22.96v.418h.196c.145 0 .29.068.376.188l1.314 1.8-1.323 1.596a.48.48 0 01-.358.171h-.24v.418h1.819v-.418h-.273a.163.163 0 01-.128-.264l.81-1.101.802 1.1a.168.168 0 01-.136.265h-.222v.418h2.227v-.418h-.222a.477.477 0 01-.375-.188zM7.88 67.299l-.162 1.16a.21.21 0 01-.205.18H5.806v-5.12a.23.23 0 01.23-.231h.461v-.461H3.75v.46h.538a.23.23 0 01.23.231v4.933c0 .162-.128.29-.29.29H3.8v.367h4.703v-1.81H7.88zM41.722 28.67c.012-.051.02-.098.031-.15a5.015 5.015 0 00-6.045-5.83A6.454 6.454 0 0023.8 26.138c0 .09 0 .176.004.262a3.177 3.177 0 10-1.351 6.167l14.376.027c1.89 0 3.53-1.043 4.386-2.577l.07-.133c.129-.266.32-.68.437-1.215z" fill="#fff"/></svg>