<svg xmlns="http://www.w3.org/2000/svg" viewBox="0 0 61 61"><path d="M24.452 39.127H13.963V15.119h10.878c1.942 0 3.962 1.087 3.962 3.185v16.161l.078.156h1.554l-.078-15.462v-.389c0-2.098 1.71-3.73 3.885-3.73h10.955v14.996l1.554-1.243V13.487H34.01c-1.787 0-3.496 1.01-4.429 2.564-1.01-1.787-3.03-2.797-5.671-2.797H12.254v27.582h12.975c1.166 0 2.487 1.01 3.341 1.787l.311.311v-2.02l-.078-.078c-1.32-1.165-2.72-1.709-4.35-1.709z" fill="#0078D4"/><path d="M32.999 35.628h-3.03v6.293h3.03l5.827 5.828h1.943V29.8h-1.787l-5.983 5.827zm-1.554 4.662v-3.186h1.865c.155 0 .31-.078.31-.155l5.595-5.361v14.374l-5.517-5.517c-.078-.078-.233-.155-.31-.155h-1.943zm14.689-9.32l-.155-.155-1.01.854.155.155a10.858 10.858 0 012.72 7.226c0 2.486-.855 4.973-2.487 6.915l-.155.156 1.01.854.155-.155c1.787-2.175 2.797-4.973 2.797-7.77 0-3.03-1.087-5.905-3.03-8.08z" fill="#0078D4"/><path d="M43.409 33.144l-.078-.156-.933.777.156.156a7.195 7.195 0 011.787 4.74c0 1.786-.622 3.418-1.787 4.816l-.156.156.933.777.155-.156c1.321-1.554 2.02-3.574 2.02-5.594 0-2.02-.777-3.962-2.097-5.516z" fill="#0078D4"/></svg>