<svg xmlns="http://www.w3.org/2000/svg" viewBox="0 0 18 18"><defs><linearGradient id="a" x1="-1803.596" y1="-323.82" x2="-1810.471" y2="-323.82" gradientTransform="rotate(90 -1067.682 748.224)" gradientUnits="userSpaceOnUse"><stop offset="0" stop-color="#773adc"/><stop offset="1" stop-color="#a67af4"/></linearGradient><linearGradient id="b" x1="-1803.596" y1="-333.097" x2="-1810.471" y2="-333.097" gradientTransform="rotate(90 -1067.682 748.224)" gradientUnits="userSpaceOnUse"><stop offset="0" stop-color="#1b93eb"/><stop offset="1" stop-color="#6bb9f2"/></linearGradient></defs><g fill="#999"><path d="M1.313 1.746h1.236V5.2a.274.274 0 01-.274.274H1.039A.274.274 0 01.765 5.2V2.294a.548.548 0 01.548-.548z"/><path d="M1.313 1.746h1.236V5.2a.274.274 0 01-.274.274H1.039A.274.274 0 01.765 5.2V2.294a.548.548 0 01.548-.548z" opacity=".5"/></g><g fill="#999"><path d="M15.271 1.746h1.236a.548.548 0 01.548.548V5.2a.274.274 0 01-.274.274h-1.236a.274.274 0 01-.274-.274V1.746z"/><path d="M15.271 1.746h1.236a.548.548 0 01.548.548V5.2a.274.274 0 01-.274.274h-1.236a.274.274 0 01-.274-.274V1.746z" opacity=".5"/></g><path d="M17.055 2.289v1.2H.765v-1.2a.543.543 0 01.543-.543h15.2a.543.543 0 01.547.543z" fill="#949494"/><g fill="#999"><path d="M1.039 12.526h1.237a.274.274 0 01.274.274v3.454H1.313a.548.548 0 01-.548-.548V12.8a.274.274 0 01.274-.274z"/><path d="M1.039 12.526h1.237a.274.274 0 01.274.274v3.454H1.313a.548.548 0 01-.548-.548V12.8a.274.274 0 01.274-.274z" opacity=".5"/></g><g fill="#999"><path d="M15.545 12.526h1.236a.274.274 0 01.274.274v2.907a.548.548 0 01-.548.548h-1.236V12.8a.274.274 0 01.274-.274z"/><path d="M15.545 12.526h1.236a.274.274 0 01.274.274v2.907a.548.548 0 01-.548.548h-1.236V12.8a.274.274 0 01.274-.274z" opacity=".5"/></g><path d="M.765 15.711v-1.2h16.29v1.2a.543.543 0 01-.543.543H1.308a.543.543 0 01-.543-.543z" fill="#949494"/><path d="M4.989 5.484l3.125 3.125a.372.372 0 010 .527l-3.125 3.125a.166.166 0 01-.284-.118v-1.921a.166.166 0 00-.166-.167H.633A.132.132 0 01.5 9.922v-2.1a.132.132 0 01.133-.132h3.906a.166.166 0 00.166-.167V5.6a.166.166 0 01.284-.116z" fill="url(#a)"/><path d="M14.266 5.484l3.125 3.125a.374.374 0 010 .527l-3.125 3.125a.166.166 0 01-.284-.118v-1.921a.167.167 0 00-.167-.167H9.909a.132.132 0 01-.132-.133v-2.1a.132.132 0 01.132-.133h3.906a.167.167 0 00.167-.167V5.6a.166.166 0 01.284-.116z" fill="url(#b)"/></svg>