<svg xmlns="http://www.w3.org/2000/svg" viewBox="0 0 18 18"><defs><linearGradient id="a" x1="9.09" y1="17.5" x2="9.09" y2="1.36" gradientUnits="userSpaceOnUse"><stop offset="0" stop-color="#ef7100"/><stop offset=".13" stop-color="#f27d07"/><stop offset=".43" stop-color="#f69113"/><stop offset=".72" stop-color="#f99e1b"/><stop offset="1" stop-color="#faa21d"/></linearGradient></defs><path d="M13.47 1.38a4.26 4.26 0 00-4.38 2.85A4.28 4.28 0 004.7 1.38C.75 1.69.54 5.6.6 7.1.63 8.17.84 11.54 9 17.4v.1l.07-.05.07.05v-.1c8.2-5.86 8.41-9.29 8.44-10.4.06-1.46-.16-5.31-4.11-5.62z" fill="url(#a)"/><path d="M17 3.8a6.37 6.37 0 01-.31 4c-.88 2-2.8 3.6-5.59 4.78a1.34 1.34 0 00-1-.43 1.37 1.37 0 101.36 1.41A13.68 13.68 0 0017 9.34a6.19 6.19 0 00.54-3.26A7 7 0 0017 3.8zM6.87 11.94l-.39.4C3.73 9.63 2.86 7.48 4 6.36s3.27-.25 6 2.47l-.39.4a.52.52 0 000 .74.51.51 0 00.74 0l.74-.74a.53.53 0 000-.74l-.37-.37c-1.85-1.86-5-4.11-7-2.78a3.24 3.24 0 01-1-2 2.28 2.28 0 01.46-1.63A4 4 0 001.7 2.84 3.52 3.52 0 003 6.08c-1.3 2 .94 5.14 2.79 7l.37.38a.53.53 0 00.74 0l.75-.75a.53.53 0 000-.74.52.52 0 00-.78-.03z" fill="#ffe452"/></svg>