<svg xmlns="http://www.w3.org/2000/svg" viewBox="0 0 48 49"><path fill-rule="evenodd" clip-rule="evenodd" d="M11.138 14.434a3.349 3.349 0 013.34-3.357h19.043a3.349 3.349 0 013.341 3.357v19.132a3.349 3.349 0 01-3.34 3.357H14.478a3.349 3.349 0 01-3.341-3.357V14.433zM33 15H15v18h18V15z" fill="#0078D4"/><path fill="#50E6FF" d="M17.318 17.455h13.196v13.259H17.318z"/><path fill="#0078D4" d="M15.679 1.846h3.952v10.241h-3.952zm12.481 0h3.952v10.241H28.16zM46 14v4H33v-4zm.154 8.014v3.971H35.96v-3.97zM15 30v4H2v-4zm-2.961-7.986v3.971H1.846v-3.97z"/><path fill="#0078D4" d="M1.846 15.692h3.692v10.154H1.846zm40.616 6.462h3.692v10.154h-3.692z"/><circle cx="3.692" cy="13.846" r="3.692" fill="#50E6FF"/><circle cx="3.692" cy="31.692" r="3.692" fill="#50E6FF"/><circle cx="44.307" cy="34.154" r="3.692" fill="#50E6FF"/><circle cx="44.307" cy="15.692" r="3.692" fill="#50E6FF"/><circle cx="17.538" cy="3.692" r="3.692" fill="#50E6FF"/><circle cx="30.462" cy="3.692" r="3.692" fill="#50E6FF"/><path fill="#0078D4" d="M32.32 46.241h-3.95V36h3.952zm-12.48 0h-3.952V36h3.952z"/><circle cx="30.462" cy="44.395" r="3.692" transform="rotate(-180 30.462 44.395)" fill="#50E6FF"/><circle cx="17.538" cy="44.395" r="3.692" transform="rotate(-180 17.538 44.395)" fill="#50E6FF"/></svg>