<svg xmlns="http://www.w3.org/2000/svg" shape-rendering="geometricPrecision" text-rendering="geometricPrecision" image-rendering="optimizeQuality" fill-rule="evenodd" clip-rule="evenodd" viewBox="0 0 32 32"><defs><style>.fil7{fill:#000}.fil3{fill:#b8d432}</style></defs><g id="Layer_x0020_1"><path fill="none" d="M0 0h32v32H0z"/><g id="_2418311069920"><path d="M18 11c0 3-4 4-9 4s-9-1-9-4c0-2 4-3 9-3s9 1 9 3z" fill="#fff"/><path d="M0 28V11c0 3 4 4 9 4s9-1 9-4v17c0 3-4 4-9 4s-9-1-9-4z" fill="#66d7f7"/><ellipse class="fil3" cx="9" cy="11" rx="7" ry="2"/><path d="M4 12h11c-2 1-4 1-6 1s-4 0-5-1z" fill="#7fba00"/><path d="M9 32c-5 0-9-1-9-4V11c0 3 4 4 9 4v17z" fill="#00bcf2"/><path d="M12 22h13c1 0 2-1 2-2V2c0-1-1-2-2-2H12c-1 0-2 1-2 2v18c0 1 1 2 2 2z" fill="#777"/><path class="fil7" d="M14 3c-1 0-2 1-2 2s1 2 2 2h9c1 0 2-1 2-2s-1-2-2-2h-9z"/><circle class="fil3" cx="14" cy="5" r="1"/><path class="fil7" d="M14 9c-1 0-2 1-2 2s1 2 2 2h9c1 0 2-1 2-2s-1-2-2-2h-9z"/><circle class="fil3" cx="14" cy="11" r="1"/><g fill-rule="nonzero"><path fill="#4668c5" d="M27 31h-6v-4h6z"/><path fill="#00188f" d="M22 31l1 1h2l1-1z"/><path d="M21 27h6c0-2 0-3 1-4 3-2 4-4 4-7 0-4-4-8-8-8s-8 4-8 8c0 3 1 5 4 7 1 1 1 2 1 4z" fill="#fff100"/><path d="M21 27h6c0-2 0-3 1-4 3-2 4-4 4-7v-2L21 25v2z" fill="#fcd116"/></g><path fill="#ffb900" fill-rule="nonzero" d="M22 27v-5l-2-2v-6l2 3 2-2 1 2 3-3v6l-2 2v5h-1v-5l2-2v-3l-2 1-1-1-2 1-1-1v3l2 2v5z"/></g></g></svg>