<svg xmlns="http://www.w3.org/2000/svg" viewBox="0 0 18 18"><defs><radialGradient id="a" cx="-80.08" cy="-34.121" r="5.954" gradientTransform="matrix(1.036 0 0 1.027 91.928 43.431)" gradientUnits="userSpaceOnUse"><stop offset=".183" stop-color="#5ea0ef"/><stop offset="1" stop-color="#0078d4"/></radialGradient><clipPath id="b"><path d="M14.969 6.971a6.137 6.137 0 11-7.395-4.544 6.136 6.136 0 017.395 4.544z" fill="none"/></clipPath></defs><path d="M2.954 4.707a.176.176 0 01-.176-.176A2.011 2.011 0 00.769 2.522a.177.177 0 01-.176-.176.178.178 0 01.176-.177A2.011 2.011 0 002.778.161a.176.176 0 01.176-.177.176.176 0 01.176.177 2.011 2.011 0 002.009 2.008.176.176 0 01.176.177.176.176 0 01-.176.176A2.011 2.011 0 003.13 4.531a.178.178 0 01-.176.176zM15.611 16.9a.141.141 0 01-.141-.141 1.609 1.609 0 00-1.607-1.607.141.141 0 01-.141-.14.141.141 0 01.141-.141 1.609 1.609 0 001.607-1.611.141.141 0 01.141-.141.141.141 0 01.141.141 1.609 1.609 0 001.607 1.607.141.141 0 010 .282 1.609 1.609 0 00-1.607 1.607.141.141 0 01-.141.144z" fill="#50e6ff"/><path d="M14.969 6.971a6.137 6.137 0 11-7.395-4.544 6.136 6.136 0 017.395 4.544z" fill="url(#a)"/><g clip-path="url(#b)" fill="#f2f2f2"><path d="M5.709 12.556a1.638 1.638 0 10.005-3.275 1.307 1.307 0 00.007-.139A1.652 1.652 0 004.06 7.5H2.832a6.254 6.254 0 001.595 5.052zm9.336-5.301c0-.014 0-.029-.007-.044a5.987 5.987 0 00-1.406-2.88 1.724 1.724 0 00-.289-.089 1.806 1.806 0 00-2.3 1.663 1.736 1.736 0 00-.785 3.36 1.452 1.452 0 00.541.1h2.03a13.425 13.425 0 002.216-2.11z"/></g><path d="M17.191 3.273c-.629-1.048-2.1-1.456-4.155-1.149a14.737 14.737 0 00-2.082.451 6.494 6.494 0 011.528.767c.241-.053.483-.116.715-.15A7.5 7.5 0 0114.3 3.1a2.188 2.188 0 011.959.725c.383.638.06 1.73-.886 3a16.707 16.707 0 01-4.749 4.051A16.758 16.758 0 014.8 13.135c-1.564.234-2.682 0-3.065-.635s-.06-1.73.886-2.995c.117-.158.146-.235.279-.392a6.251 6.251 0 01.026-1.63 11.545 11.545 0 00-1.17 1.376C.517 10.517.181 12.007.809 13.054a3.167 3.167 0 002.9 1.248 8.563 8.563 0 001.251-.1 17.839 17.839 0 006.219-2.4A17.793 17.793 0 0016.24 7.47c1.243-1.66 1.579-3.15.951-4.197z" fill="#50e6ff"/></svg>