<svg xmlns="http://www.w3.org/2000/svg" viewBox="0 0 49 49"><path d="M25.067 24.959l-.902-.884-7.041 7.162a2.492 2.492 0 00-1.265-.336 2.515 2.515 0 00-2.522 2.516 2.515 2.515 0 002.522 2.517 2.515 2.515 0 002.167-3.805l7.041-7.17z" fill="#50E6FF"/><path d="M29.773 32.079c-.27 0-.523.025-.776.076l-3.812-7.912-1.138.547 3.77 7.828a3.774 3.774 0 001.956 7.01 3.77 3.77 0 003.786-3.778 3.77 3.77 0 00-3.786-3.771z" fill="#50E6FF"/><path d="M38.619 25.842c-.944 0-1.762.514-2.193 1.28l-11.645-3.216-.338 1.22 11.655 3.216v.017a2.515 2.515 0 002.521 2.516 2.515 2.515 0 100-5.033z" fill="#50E6FF"/><path d="M24.882 23.948l-7.851-3.736c.05-.245.076-.506.076-.766a3.777 3.777 0 00-3.787-3.78 3.772 3.772 0 00-3.786 3.78 3.772 3.772 0 003.786 3.779 3.767 3.767 0 003.247-1.835l7.767 3.695.548-1.137z" fill="#50E6FF"/><path d="M46.209 13.302a2.515 2.515 0 00-2.438 3.156l-19.387 7.466.456 1.178 19.555-7.533a2.524 2.524 0 001.813.766c1.4 0 2.522-1.128 2.522-2.517a2.515 2.515 0 00-2.521-2.516z" fill="#50E6FF"/><path d="M25.793 13.133a2.515 2.515 0 00-2.522-2.516 2.515 2.515 0 00-.329 5.008l1.046 8.963 1.256-.143-1.045-8.972a2.508 2.508 0 001.594-2.34z" fill="#50E6FF"/><path d="M24.612 29.529a5.013 5.013 0 005.018-5.008 5.013 5.013 0 00-5.018-5.008 5.013 5.013 0 00-5.017 5.008 5.013 5.013 0 005.017 5.008zM19.746 8.184a1.271 1.271 0 110-2.541 1.271 1.271 0 110 2.541z" fill="#0078D4"/><path d="M9.55 40.916a1.271 1.271 0 110-2.541c.7 0 1.274.572 1.274 1.27a1.27 1.27 0 01-1.273 1.271zm35.503-9.931a1.271 1.271 0 110-2.542 1.271 1.271 0 110 2.542z" fill="#50E6FF"/><path d="M21.956 43.744l3.432-20.056-14.825 3.391a2.503 2.503 0 00-2.218-1.321 2.515 2.515 0 00-2.521 2.517 2.515 2.515 0 002.521 2.516 2.52 2.52 0 002.521-2.491l12.962-2.963-3.112 18.189a2.515 2.515 0 00.194 5.025c1.4 0 2.521-1.129 2.521-2.517a2.502 2.502 0 00-1.475-2.29z" fill="#0078D4"/><path d="M36.09 10.608a2.515 2.515 0 00-2.168 3.805l-9.757 9.654.894.9 9.765-9.662c.371.219.81.345 1.274.345 1.4 0 2.521-1.128 2.521-2.517a2.53 2.53 0 00-2.53-2.525zM32.311 43.45a1.271 1.271 0 110-2.542 1.271 1.271 0 110 2.542z" fill="#0078D4"/><path d="M42.346 8.1a1.271 1.271 0 110-2.542 1.271 1.271 0 110 2.542z" fill="#50E6FF"/></svg>