<svg xmlns="http://www.w3.org/2000/svg" viewBox="0 0 300 400"><path d="M102.681 291.324s-14.178 8.245 10.09 11.035c29.4 3.354 44.426 2.873 76.825-3.259 0 0 8.518 5.341 20.414 9.967-72.63 31.128-164.376-1.803-107.329-17.743m-8.875-40.62s-15.902 11.771 8.384 14.283c31.406 3.24 56.208 3.505 99.125-4.759 0 0 5.936 6.018 15.27 9.309-87.814 25.678-185.623 2.025-122.779-18.833" fill="#5382a1"/><path d="M168.625 181.799c17.896 20.604-4.702 39.145-4.702 39.145s45.441-23.458 24.572-52.833c-19.491-27.394-34.438-41.005 46.479-87.934 0 0-127.013 31.722-66.349 101.622" fill="#e76f00"/><path d="M264.684 321.369s10.492 8.645-11.555 15.333c-41.923 12.7-174.488 16.535-211.314.506-13.238-5.759 11.587-13.751 19.396-15.428 8.144-1.766 12.798-1.437 12.798-1.437-14.722-10.371-95.157 20.364-40.857 29.166 148.084 24.015 269.943-10.814 231.532-28.14M109.499 208.617s-67.431 16.016-23.879 21.832c18.389 2.462 55.047 1.905 89.193-.956 27.906-2.354 55.927-7.359 55.927-7.359s-9.84 4.214-16.959 9.075c-68.475 18.009-200.756 9.631-162.674-8.79 32.206-15.568 58.392-13.802 58.392-13.802m120.963 67.614c69.608-36.171 37.424-70.931 14.96-66.248-5.506 1.146-7.961 2.139-7.961 2.139s2.044-3.202 5.948-4.588c44.441-15.624 78.619 46.081-14.346 70.52 0 .001 1.077-.962 1.399-1.823" fill="#5382a1"/><path d="M188.495 4.399s38.55 38.563-36.563 97.862c-60.233 47.568-13.735 74.69-.025 105.678-35.159-31.722-60.961-59.647-43.651-85.637 25.407-38.151 95.793-56.648 80.239-117.903" fill="#e76f00"/><path d="M116.339 374.246c66.815 4.277 169.417-2.373 171.847-33.988 0 0-4.671 11.985-55.219 21.503-57.028 10.732-127.364 9.479-169.081 2.601.001-.001 8.54 7.068 52.453 9.884" fill="#5382a1"/></svg>