<svg viewBox="0 0 18 18" xmlns="http://www.w3.org/2000/svg" data-type="1"><rect x=".045" width="8.439" height="8.439" rx=".559" fill="url(#b60ca427-f388-4994-8eb7-5d3dab738196)"/><rect x="9.515" y="9.561" width="8.439" height="8.439" rx=".559" fill="url(#b6f2652e-425e-4514-8147-e8c3ab47d232)"/><path d="M7.6 7.7H.934a.15.15 0 01-.15-.15V.889a.15.15 0 01.15-.15H7.6a.15.15 0 01.149.15V7.55a.15.15 0 01-.149.15zm9.62 9.411V10.45a.15.15 0 00-.15-.15H10.4a.15.15 0 00-.149.15v6.661a.15.15 0 00.149.15h6.662a.15.15 0 00.154-.15z" fill="#32bedd"/><path d="M3.511 7.069H1.758V1.37h1.753zm3.261-5.7H5.019v5.7h1.753zm6.209 9.561h-1.753v5.7h1.753zm3.261 0h-1.753v5.7h1.753z" fill="#c3f1ff"/><rect x="9.515" width="8.439" height="8.439" rx=".559" fill="url(#ef3fb47d-2f41-4906-a6c1-323240e31afe)"/><rect x=".045" y="9.54" width="8.439" height="8.439" rx=".559" fill="url(#b51b8ce3-7716-4e6d-a50d-8c8ee8624eb5)"/><path d="M17.066 7.7H10.4a.15.15 0 01-.149-.15V.889a.15.15 0 01.149-.15h6.662a.15.15 0 01.15.15V7.55a.15.15 0 01-.146.15zm-9.321 9.39v-6.661a.15.15 0 00-.149-.15H.934a.15.15 0 00-.15.15v6.661a.15.15 0 00.15.15H7.6a.15.15 0 00.145-.15z" fill="#773adc"/><path d="M12.981 7.069h-1.753V1.37h1.753zm3.261-5.7h-1.753v5.7h1.753zM3.511 10.91H1.758v5.7h1.753zm3.261 0H5.019v5.7h1.753z" fill="#b796f9"/><defs><linearGradient id="b60ca427-f388-4994-8eb7-5d3dab738196" x1="4.265" y1="8.439" x2="4.265" gradientUnits="userSpaceOnUse"><stop offset="0" stop-color="#32bedd"/><stop offset="1" stop-color="#50e6ff"/></linearGradient><linearGradient id="b6f2652e-425e-4514-8147-e8c3ab47d232" x1="13.735" y1="18" x2="13.735" y2="9.561" gradientUnits="userSpaceOnUse"><stop offset="0" stop-color="#32bedd"/><stop offset="1" stop-color="#50e6ff"/></linearGradient><linearGradient id="ef3fb47d-2f41-4906-a6c1-323240e31afe" x1="13.735" y1="8.439" x2="13.735" gradientUnits="userSpaceOnUse"><stop offset="0" stop-color="#773adc"/><stop offset="1" stop-color="#a67af4"/></linearGradient><linearGradient id="b51b8ce3-7716-4e6d-a50d-8c8ee8624eb5" x1="4.265" y1="17.979" x2="4.265" y2="9.54" gradientUnits="userSpaceOnUse"><stop offset="0" stop-color="#773adc"/><stop offset="1" stop-color="#a67af4"/></linearGradient></defs></svg>