<svg xmlns="http://www.w3.org/2000/svg" viewBox="0 0 24 24"><path d="M10.991 7.342l-3.67 1.402v-5.92l3.67 1.3v3.218z" fill="#804998"/><path d="M3.981 3.797v3.889l2.75 1.046V2.824l-2.75.973zm.302 3.607l-.15-.047v-3.22l.15-.042.157-.044.168-.047v3.5l-.168-.051-.157-.05zm.69.214l-.19-.059V3.954l.19-.053.198-.056.213-.06v3.96l-.213-.066-.199-.061zm.882.273l-.243-.076V3.721l.243-.068.26-.074.282-.08v4.56l-.281-.087-.26-.081z" fill="#68217A"/><path d="M19.585 7.342l-3.672 1.402v-5.92l3.672 1.3v3.218z" fill="#804998"/><path d="M12.575 3.797v3.889l2.75 1.046V2.824l-2.75.973zm.3 3.607l-.15-.047v-3.22l.15-.042.158-.044.168-.047v3.5l-.168-.051-.157-.05zm.69.214l-.188-.059V3.954l.188-.053.2-.056.212-.06v3.96l-.213-.066-.2-.061zm.883.273l-.244-.076V3.721l.244-.068.26-.074.282-.08v4.56l-.282-.087-.26-.081z" fill="#68217A"/><path d="M10.991 19.149l-3.67 1.402v-5.92l3.67 1.3v3.218z" fill="#804998"/><path d="M3.981 15.604v3.889l2.75 1.046V14.63l-2.75.974zm.302 3.607l-.15-.047v-3.22l.15-.042.157-.044.168-.047v3.5l-.168-.051-.157-.049zm.69.213l-.19-.058v-3.605l.19-.053.198-.056.213-.06v3.96l-.213-.066-.199-.062zm.882.274l-.243-.076v-4.094l.243-.069.26-.073.282-.08v4.56l-.281-.088-.26-.08z" fill="#68217A"/><path d="M19.585 19.149l-3.672 1.402v-5.92l3.672 1.3v3.218z" fill="#804998"/><path d="M12.575 15.604v3.889l2.75 1.046V14.63l-2.75.974zm.3 3.607l-.15-.047v-3.22l.15-.042.158-.044.168-.047v3.5l-.168-.051-.157-.049zm.69.213l-.188-.058v-3.605l.188-.053.2-.056.212-.06v3.96l-.213-.066-.2-.062zm.883.274l-.244-.076v-4.094l.244-.069.26-.073.282-.08v4.56l-.282-.088-.26-.08z" fill="#68217A"/><path d="M15.565 13.228l-3.672 1.402V8.71l3.671 1.3v3.218z" fill="#804998"/><path d="M8.554 9.683v3.889l2.75 1.046V8.71l-2.75.973zm.301 3.607l-.15-.046v-3.22l.15-.043.158-.044.167-.047v3.5l-.167-.05-.158-.05zm.69.214l-.189-.058V9.84l.189-.053.199-.056.213-.06v3.96l-.213-.066-.2-.062zm.883.273l-.244-.075V9.607l.244-.068.26-.074.281-.079v4.559l-.28-.087-.261-.081z" fill="#68217A"/><path d="M7.016 13.228L3.344 14.63V8.71l3.672 1.3v3.218z" fill="#804998"/><path d="M.006 9.683v3.889l2.75 1.046V8.71l-2.75.973zm.3 3.607l-.15-.046v-3.22l.15-.043.158-.044.168-.047v3.5l-.168-.05-.157-.05zm.69.214l-.188-.058V9.84l.188-.053.2-.056.213-.061v3.96l-.213-.066-.2-.061zm.883.273l-.244-.075V9.607l.244-.068.26-.074.282-.079v4.559l-.281-.087-.26-.081z" fill="#68217A"/><path d="M24.006 13.228l-3.672 1.402V8.71l3.672 1.3v3.218z" fill="#804998"/><path d="M16.996 9.683v3.889l2.75 1.046V8.71l-2.75.973zm.3 3.607l-.15-.046v-3.22l.15-.043.158-.044.168-.047v3.5l-.168-.05-.157-.05zm.69.214l-.188-.058V9.84l.188-.053.2-.056.212-.06v3.96l-.213-.066-.199-.062zm.883.273l-.244-.075V9.607l.244-.068.26-.074.282-.079v4.559l-.282-.087-.26-.081z" fill="#68217A"/></svg>