<svg viewBox="0 0 269 172" xmlns="http://www.w3.org/2000/svg"><g fill="none" fill-rule="evenodd"><path fill="#ACD1EF" d="M0 161.509h242.334v-11.333H0z"/><path fill="#0078D7" d="M257.254 145.036v7.474h-7.474v3.606h7.474v7.472h3.605v-7.472h7.474v-3.607h-7.474v-7.473zm-178.255 26.14H91V138.51H78.999zM91.928 14.801c-24.756 0-44.896 20.14-44.896 44.896 0 24.755 20.14 44.895 44.896 44.895s44.896-20.14 44.896-44.895c0-24.756-20.14-44.896-44.896-44.896m0 91.291c-25.583 0-46.396-20.812-46.396-46.395 0-25.584 20.813-46.396 46.396-46.396 25.583 0 46.396 20.812 46.396 46.396 0 25.583-20.813 46.395-46.396 46.395"/><path d="M91.928 3C60.665 3 35.231 28.435 35.231 59.697c0 28.049 20.913 52.175 48.646 56.118l1.29.184v14.379l17.125-14.94.398-.076c26.617-5.116 45.935-28.526 45.935-55.665C148.625 28.435 123.191 3 91.928 3zm-9.762 133.976v-18.388c-28.559-4.706-49.935-29.793-49.935-58.891C32.231 26.78 59.011 0 91.928 0s59.697 26.78 59.697 59.697c0 28.439-20.149 52.99-47.969 58.532l-21.49 18.747z" fill="#0078D7"/><path d="M107.648 70.498a18.591 18.591 0 01-5.62 5.68l-3.689-8.842a1.578 1.578 0 01.82-1.816c.257-.12.537-.18.82-.174l9.367 1.58a11.773 11.773 0 01-1.697 3.572zm-11.42 8.138a19.091 19.091 0 01-4.099.47 19.854 19.854 0 01-5.914-.94l4.624-8.373a1.536 1.536 0 011.873-.41c.275.168.515.386.707.644l4.507 8.139c-.526.176-1.112.292-1.697.47h-.002zM74.86 66.985l9.308-1.581a1.579 1.579 0 011.64 1.23c.071.312.051.639-.058.94l-3.572 8.604a18.458 18.458 0 01-7.318-9.193zm1.58-15.867l6.968 6.206a1.56 1.56 0 01.176 2.166c-.168.24-.42.408-.707.47l-9.07 2.634a18.846 18.846 0 012.633-11.476zm11.535-8.313c.644-.118 1.23-.236 1.873-.352l-.527 9.368a1.602 1.602 0 01-1.58 1.519 1.394 1.394 0 01-.706-.176L79.25 47.6a17.864 17.864 0 018.723-4.801l.004.006zm16.98 4.799l-7.67 5.446a1.56 1.56 0 01-2.05-.351 1.3 1.3 0 01-.292-.644l-.527-9.544a17.778 17.778 0 0110.54 5.094l-.002-.001zm5.037 9.077a18.43 18.43 0 01.41 5.913l-8.96-2.576a1.587 1.587 0 01-1.113-1.874c.057-.242.178-.464.351-.644l7.084-6.381a18.78 18.78 0 012.226 5.565l.002-.003zM94.71 62.769l-2.576 1.23-2.577-1.23-.643-2.751 1.756-2.225h2.87l1.755 2.225-.585 2.75zm27.108 2.87h-.06c-.058 0-.116 0-.116-.06-.117 0-.235-.06-.35-.06a8.155 8.155 0 00-1.114-.115 2.22 2.22 0 01-.585-.058h-.058a15.465 15.465 0 01-3.162-.528 1.136 1.136 0 01-.645-.644c0-.06-.058-.06-.058-.116l-.76-.236a23.21 23.21 0 00-.41-8.256 24.148 24.148 0 00-3.28-7.67l.585-.526v-.117c-.01-.318.093-.63.293-.878a17.104 17.104 0 012.636-1.814c.176-.117.351-.175.526-.292a8.76 8.76 0 00.995-.585c.06-.06.176-.118.293-.236.06-.058.117-.058.117-.116a1.96 1.96 0 00.41-2.635 1.666 1.666 0 00-1.347-.644c-.469.014-.92.179-1.287.47l-.117.118c-.117.058-.176.174-.292.234a9.68 9.68 0 00-.762.82 2.734 2.734 0 01-.409.41 14.841 14.841 0 01-2.343 2.108.945.945 0 01-.526.176.762.762 0 01-.352-.06h-.116l-.705.47a28.599 28.599 0 00-2.4-2.23 23.389 23.389 0 00-12.238-4.86l-.058-.76-.118-.117a1.217 1.217 0 01-.469-.761 20.39 20.39 0 01.175-3.162v-.058c.01-.2.05-.397.117-.585.058-.352.117-.706.175-1.113v-.527a1.786 1.786 0 00-3.099-1.35c-.35.36-.54.846-.526 1.348v.47a3.39 3.39 0 00.175 1.113c.06.175.06.35.117.585v.059c.168 1.044.228 2.104.175 3.162a1.212 1.212 0 01-.47.76l-.117.118-.058.76c-1.062.1-2.117.257-3.162.47a22.566 22.566 0 00-11.592 6.558l-.586-.41h-.115c-.117 0-.236.059-.352.059a.942.942 0 01-.526-.176 15.505 15.505 0 01-2.342-2.166 2.694 2.694 0 00-.41-.41 9.669 9.669 0 00-.76-.82c-.06-.06-.177-.116-.294-.235-.058-.06-.116-.06-.116-.117a2.04 2.04 0 00-1.288-.47 1.667 1.667 0 00-1.347.644 1.962 1.962 0 00.41 2.635c.06 0 .06.058.117.058.117.059.175.176.292.236.32.217.652.412.996.585.187.075.364.173.527.293.933.52 1.814 1.129 2.634 1.814.224.235.332.557.293.878v.117l.585.527a2.007 2.007 0 00-.292.47 22.8 22.8 0 00-3.28 15.457l-.76.236c0 .058-.059.058-.059.116-.135.282-.362.51-.645.644a14.718 14.718 0 01-3.16.527h-.06a2.021 2.021 0 00-.585.059 7.972 7.972 0 00-1.112.117c-.118 0-.236.058-.352.058a.211.211 0 00-.175.06 1.918 1.918 0 00-1.522 2.166 1.801 1.801 0 001.873 1.346c.16.01.318-.01.47-.058.06 0 .117 0 .117-.06.117 0 .235-.058.351-.058.363-.102.716-.24 1.053-.412.176-.06.351-.176.526-.236h.06a14.456 14.456 0 013.044-.878h.116c.278.014.545.117.761.293.06 0 .06.059.117.059l.82-.117a23.154 23.154 0 007.67 11.007 23.76 23.76 0 002.518 1.698l-.352.76c0 .059.06.059.06.118.166.284.208.624.116.94a16.586 16.586 0 01-1.522 2.752v.059c-.117.175-.235.292-.35.469-.236.293-.41.586-.646.942a1.308 1.308 0 00-.175.292.205.205 0 01-.059.117 1.852 1.852 0 00.748 2.51l.013.007c.22.114.46.173.706.175a2.104 2.104 0 001.756-1.112.206.206 0 01.06-.116 1.24 1.24 0 01.174-.293c.135-.345.252-.696.352-1.054l.175-.526a13.687 13.687 0 011.23-2.928c.192-.251.458-.435.761-.526.06 0 .06 0 .117-.06l.41-.761a22.878 22.878 0 008.196 1.523 21.266 21.266 0 005.095-.586 25.95 25.95 0 003.045-.878l.351.645c.058 0 .058 0 .117.058.32.054.598.246.76.527.486.939.896 1.916 1.228 2.919v.059l.176.527c.09.36.208.712.35 1.054.06.117.118.176.176.293a.2.2 0 00.06.116 1.99 1.99 0 001.756 1.113c.245-.002.487-.063.705-.176.423-.217.74-.597.876-1.053a2.12 2.12 0 00-.117-1.464c0-.058-.058-.058-.058-.116a1.318 1.318 0 00-.176-.293 5.304 5.304 0 00-.644-.94c-.117-.176-.236-.292-.35-.471v-.06a13.106 13.106 0 01-1.524-2.751 1.639 1.639 0 01.06-.94c0-.06.058-.06.058-.116l-.292-.706a23.23 23.23 0 0010.19-12.822l.704.117c.06 0 .06-.06.117-.06a1.49 1.49 0 01.761-.291h.117c1.044.179 2.065.474 3.044.877h.06c.175.059.35.176.526.235.336.172.69.31 1.054.41.117 0 .235.059.351.059a.213.213 0 01.175.059c.153.048.312.068.471.059a1.97 1.97 0 001.873-1.347 2.252 2.252 0 00-1.697-1.932l-.008.01z" fill="#ACD1EF"/></g></svg>