<svg xmlns="http://www.w3.org/2000/svg" viewBox="0 0 45 46"><path d="M2.885 39.675c0 .383 0 .958.192 1.342.192.383.385.766.77 1.15.384.383.576.575 1.153.766.385.192.77.192 1.346.192h10.385L15.96 46H6.347c-.961 0-1.73-.192-2.5-.575-.77-.383-1.346-.767-1.923-1.342-.577-.575-.961-1.15-1.346-1.916C.192 41.4 0 40.633 0 39.675c0-.767.192-1.342.385-1.917.192-.575.577-1.15.961-1.725l12.116-16.1V7.475c-.385-.383-.77-.767-.962-1.342-.192-.575-.385-1.15-.385-1.725 0-.575.193-1.15.385-1.725.192-.575.577-.958.962-1.341.384-.384.769-.767 1.346-.959.384-.191.961-.383 1.538-.383H25c.577 0 1.154.192 1.73.383.578.192.962.575 1.347.959.385.383.77.766.961 1.341.193.575.385 1.15.385 1.725 0 .575-.192 1.15-.385 1.725-.192.575-.576.959-.961 1.534v12.266l2.885 3.834-2.116 2.108-3.654-4.792V5.75c.385 0 .77-.192.962-.383.192-.192.384-.575.384-.959 0-.383-.192-.766-.576-1.15A1.472 1.472 0 0025 2.875h-8.654c-.384 0-.77.192-.961.383C15 3.642 15 4.025 15 4.408c0 .384.192.767.385.959.192.191.577.383.961.383V20.7L3.654 37.758c-.577.575-.77 1.342-.77 1.917zM19.808 34.5l-1.346 1.342-1.154 4.408H6.346c-.192 0-.192 0-.384-.192-.193-.191-.193-.191-.193-.383v-.383L9.615 34.5h10.193zM40 36.033c.385.575.77 1.15.962 1.725.192.575.384 1.342.384 1.917 0 .958-.192 1.725-.577 2.492-.384.766-.769 1.341-1.346 1.916-.577.575-1.154.959-1.923 1.342-.77.383-1.538.575-2.5.575h-5l2.885-2.875H35c.385 0 .962 0 1.346-.192.385-.191.77-.383 1.154-.766.385-.384.577-.575.77-.959.192-.383.192-.766.192-1.341 0-.384 0-.575-.193-.959 0-.383-.192-.575-.384-.766L40 36.033zm.577-15.908c.577 0 1.154.192 1.73.383.578.192.962.575 1.347.959.384.383.77.958.961 1.341.193.575.385 1.15.385 1.725 0 .575-.192 1.15-.385 1.725-.192.575-.577.959-.961 1.534L27.5 43.892 19.23 46l2.116-8.433 16.154-16.1a4.19 4.19 0 011.538-.959c.385-.191.962-.383 1.539-.383zm1.154 5.558c.384-.383.384-.766.384-1.15 0-.383-.192-.766-.384-1.15C41.346 23 40.96 23 40.577 23c-.192 0-.385 0-.577.192-.192 0-.385.191-.577.383L24.038 38.908l-.769 3.067 3.077-.767 15.385-15.525z"/></svg>