<svg xmlns="http://www.w3.org/2000/svg" viewBox="0 0 72 72"><path d="M22.739.064H3.769v3.729H5.69v60.863c0 3.766 3.377 7.33 7.55 7.33 4.174 0 7.55-3.564 7.55-7.33V3.793h1.948V.064z" fill="#0078D4"/><path d="M18.932 7.53H7.5v55.934a5.708 5.708 0 005.716 5.713 5.708 5.708 0 005.716-5.713V7.53z" fill="#50E6FF"/><path d="M45.49 18.978H26.508v3.74h1.935v41.933c0 3.766 3.376 7.33 7.55 7.33 4.173 0 7.55-3.564 7.55-7.33V22.72h1.947v-3.741z" fill="#0078D4"/><path d="M41.684 30.146H30.25v33.338a5.708 5.708 0 005.716 5.713 5.708 5.708 0 005.717-5.713V30.146z" fill="#50E6FF"/><path d="M68.153 7.623H49.17v3.74h2.125V64.67c0 3.766 3.377 7.33 7.55 7.33 4.174 0 7.55-3.564 7.55-7.33V11.351h1.746V7.623h.012z" fill="#0078D4"/><path d="M64.536 18.908H53.103V63.48a5.708 5.708 0 005.717 5.713 5.708 5.708 0 005.716-5.713V18.908z" fill="#50E6FF"/></svg>