<svg xmlns="http://www.w3.org/2000/svg" viewBox="0 0 512 512"><path d="M302.64 336.502a295.76 295.76 0 001.329 8.265c31.747-5.623 58.724-20.962 76.69-43.78 17.713-22.503 25.16-50.024 21.554-79.602-8.187-42.87-40.795-57.895-69.536-53.728-28.889 4.73-48.763 32.304-44.11 61.44 3.725 25.507 24.746 44.577 50.002 45.48l13.154.468-3.236 12.767c-6.258 24.698-32.756 41.659-45.846 48.69zm-14.837 31.784l-2.401-8.78c-2.63-9.637-4.776-27.102-4.867-27.84l-.961-7.877 7.273-3.157c7.777-3.412 26.041-13.676 35.63-26.99-28.4-7.196-50.495-31.06-54.915-61.334-6.47-40.527 21.277-79.018 61.88-85.662 37.788-5.5 83.093 14.5 93.718 71.136l.096.643c4.361 34.957-4.84 68.951-25.904 95.717-23.274 29.562-58.964 48.43-100.507 53.123l-9.042 1.02zm-165.787-31.784c.382 2.594.834 5.475 1.328 8.265 31.747-5.623 58.724-20.962 76.69-43.78 17.713-22.503 25.16-50.024 21.554-79.602-8.187-42.87-40.79-57.895-69.536-53.728-28.889 4.73-48.763 32.304-44.11 61.44 3.725 25.507 24.746 44.577 50.002 45.48l13.154.468-3.236 12.767c-6.258 24.698-32.756 41.659-45.846 48.69zm-14.838 31.784l-2.401-8.78c-2.63-9.637-4.776-27.102-4.867-27.84l-.961-7.877 7.273-3.157c7.777-3.412 26.041-13.676 35.63-26.99-28.4-7.196-50.495-31.06-54.915-61.334-6.47-40.527 21.277-79.018 61.88-85.662 37.793-5.5 83.093 14.5 93.718 71.136l.096.643c4.361 34.957-4.84 68.951-25.904 95.717-23.274 29.562-58.964 48.43-100.507 53.123l-9.042 1.02z" fill="#0063B1" fill-rule="evenodd"/></svg>