<svg xmlns="http://www.w3.org/2000/svg" viewBox="0 0 49 49"><path d="M40.304 3.838L22.361 30.37l2.916 1.974L43.221 5.812l-2.916-1.974z" fill="#50E6FF"/><path d="M40.184 11.799a4.752 4.752 0 004.754-4.754 4.752 4.752 0 00-4.754-4.754 4.752 4.752 0 00-4.754 4.754 4.752 4.752 0 004.754 4.754zM24.037 25.794a7.167 7.167 0 017.17 6.994h4.529c-.129-6.381-5.326-11.481-11.7-11.481-6.38 0-11.57 5.1-11.699 11.441h4.528c.09-3.876 3.256-6.953 7.172-6.953z" fill="#1F1D21"/><path d="M24.036 25.794a7.167 7.167 0 00-7.17 6.994h1.933c.129-2.812 2.417-5.06 5.237-5.06 2.812 0 5.15 2.24 5.238 5.06h1.933c-.137-3.916-3.303-6.993-7.17-6.993z" fill="#E7E8EA"/><path d="M24.036 27.728c-2.812 0-5.148 2.24-5.237 5.06h10.515c-.129-2.812-2.465-5.06-5.278-5.06z" fill="#1F1D21"/><path d="M40.304 3.838L22.361 30.37l2.916 1.974L43.221 5.812l-2.916-1.974z" fill="#0078D4"/><path d="M40.184 11.799a4.752 4.752 0 004.754-4.754 4.752 4.752 0 00-4.754-4.754 4.752 4.752 0 00-4.754 4.754 4.752 4.752 0 004.754 4.754z" fill="#0078D4"/><path d="M24.037 25.794a7.167 7.167 0 017.17 6.994h4.529c-.129-6.381-5.326-11.481-11.7-11.481-6.38 0-11.57 5.1-11.699 11.441h4.528c.09-3.876 3.256-6.953 7.172-6.953z" fill="#50E6FF"/><path d="M24.036 25.794a7.167 7.167 0 00-7.17 6.994h1.933c.129-2.812 2.417-5.06 5.237-5.06 2.812 0 5.15 2.24 5.238 5.06h1.933c-.137-3.916-3.303-6.993-7.17-6.993z" fill="#0078D4"/><path d="M24.036 27.728c-2.812 0-5.148 2.24-5.237 5.06h10.515c-.129-2.812-2.465-5.06-5.278-5.06z" fill="#3BCAF4"/><path d="M47.411 34.617v-2.554H1.54v2.554h45.871zm-.056 2.377H1.41v9.677h45.944v-9.677z" fill="#0078D4"/><path d="M22.627 41.958c0-.766-.621-1.386-1.386-1.386H4.699a1.386 1.386 0 100 2.772H21.24c.765 0 1.386-.62 1.386-1.386z" fill="#fff"/><path d="M14.295 41.958a2.754 2.754 0 002.756 2.755 2.754 2.754 0 002.755-2.755 2.754 2.754 0 00-2.755-2.756 2.75 2.75 0 00-2.756 2.756zm25.735-.186a2.758 2.758 0 102.57-2.57 2.777 2.777 0 00-2.57 2.57zm-9.83 0a2.758 2.758 0 102.57-2.57 2.777 2.777 0 00-2.57 2.57z" fill="#50E6FF"/></svg>