<svg xmlns="http://www.w3.org/2000/svg" viewBox="0 0 48 48"><path fill="#fff" d="M13.197 14.756h19.26v18.952h-19.26z"/><path fill="#fff" d="M13.197 14.756h19.26v18.952h-19.26z"/><path d="M24.078.466C10.867.466.156 11.106.156 24.233.156 37.359 10.866 48 24.078 48S48 37.359 48 24.233 37.29.466 24.078.466zm1.31 15.74v8.037H17.28l8.11-8.037zM21.541 32.29v-8.036h8.11l-8.11 8.036z" fill="#50E6FF"/><path d="M24.077 10.503c.423 0 .843.018 1.26.056v3.903l7.121-7.076L25.336.311v5.23a18.901 18.901 0 00-1.259-.042C13.647 5.5 5.191 13.9 5.191 24.263a18.595 18.595 0 001.43 7.172 18.693 18.693 0 004.087 6.08l3.56-3.538a13.733 13.733 0 01-3.778-7.046 13.678 13.678 0 01.796-7.944 13.78 13.78 0 015.101-6.168 13.913 13.913 0 017.69-2.316zm13.34.477l-3.561 3.538.016.015a13.732 13.732 0 013.79 7.045c.534 2.67.26 5.436-.788 7.95a13.78 13.78 0 01-5.1 6.175 13.915 13.915 0 01-7.695 2.32v-4.379l-7.122 7.076 7.122 7.077v-4.771c10.43 0 18.886-8.4 18.886-18.764a18.597 18.597 0 00-1.438-7.192 18.695 18.695 0 00-4.11-6.09z" fill="#0078D4"/></svg>