<svg xmlns="http://www.w3.org/2000/svg" viewBox="0 0 48 48"><path d="M2.527 5.052A2.523 2.523 0 010 2.526 2.523 2.523 0 012.527 0a2.523 2.523 0 012.526 2.526 2.534 2.534 0 01-2.526 2.526zM12.211 0H7.158v5.052h5.053V0zm7.142 0H14.3v5.052h5.053V0zm7.174 0h-5.052v5.052h5.052V0zm7.157 0H28.63v5.052h5.053V0zm4.631 5.052a2.523 2.523 0 01-2.526-2.526A2.523 2.523 0 0138.315 0a2.523 2.523 0 012.527 2.526 2.534 2.534 0 01-2.527 2.526zm7.159 0a2.523 2.523 0 01-2.527-2.526A2.523 2.523 0 0145.474 0 2.523 2.523 0 0148 2.526a2.534 2.534 0 01-2.526 2.526zM5.053 7.16H0v5.052h5.053V7.16zm7.158 0H7.158v5.052h5.053V7.16zm7.142 0H14.3v5.052h5.053V7.16z" fill="#0078D4"/><path d="M26.527 7.16h-5.052v5.052h5.052V7.16z" fill="#50E6FF"/><path d="M33.684 7.16H28.63v5.052h5.053V7.16zm4.631 5.052a2.523 2.523 0 01-2.526-2.526 2.523 2.523 0 012.526-2.526 2.523 2.523 0 012.527 2.526 2.534 2.534 0 01-2.527 2.526zM48 7.16h-5.053v5.052H48V7.16zM5.053 14.316H0v5.052h5.053v-5.052zm7.158 0H7.158v5.052h5.053v-5.052z" fill="#0078D4"/><path d="M19.353 14.316H14.3v5.052h5.053v-5.052zm7.174 0h-5.052v5.052h5.052v-5.052zm7.157 0H28.63v5.052h5.053v-5.052z" fill="#50E6FF"/><path d="M40.842 14.316h-5.053v5.052h5.053v-5.052zm7.158 0h-5.053v5.052H48v-5.052zM5.053 21.472H0v5.052h5.053v-5.052z" fill="#0078D4"/><path d="M12.211 21.472H7.158v5.052h5.053v-5.052zm7.142 0H14.3v5.052h5.053v-5.052zM24 26.524a2.523 2.523 0 01-2.525-2.526A2.523 2.523 0 0124 21.472a2.523 2.523 0 012.526 2.526A2.534 2.534 0 0124 26.524zm9.684-5.052H28.63v5.052h5.053v-5.052zm7.158 0h-5.053v5.052h5.053v-5.052z" fill="#50E6FF"/><path d="M48 21.472h-5.053v5.052H48v-5.052zM5.053 28.628H0v5.052h5.053v-5.052zm7.158 0H7.158v5.052h5.053v-5.052z" fill="#0078D4"/><path d="M16.827 33.68a2.523 2.523 0 01-2.527-2.526 2.523 2.523 0 012.527-2.526 2.523 2.523 0 012.526 2.526 2.534 2.534 0 01-2.526 2.526zm9.7-5.052h-5.052v5.052h5.052v-5.052zm7.157 0H28.63v5.052h5.053v-5.052z" fill="#50E6FF"/><path d="M38.315 33.68a2.523 2.523 0 01-2.526-2.526 2.523 2.523 0 012.526-2.526 2.523 2.523 0 012.527 2.526 2.534 2.534 0 01-2.527 2.526zM48 28.628h-5.053v5.052H48v-5.052zm-42.947 7.16H0v5.052h5.053v-5.052zm7.158 0H7.158v5.052h5.053v-5.052zm7.142 0H14.3v5.052h5.053v-5.052z" fill="#0078D4"/><path d="M24 40.84a2.523 2.523 0 01-2.525-2.526A2.523 2.523 0 0124 35.788a2.523 2.523 0 012.526 2.526A2.534 2.534 0 0124 40.84z" fill="#50E6FF"/><path d="M33.684 35.788H28.63v5.052h5.053v-5.052zm7.158 0h-5.053v5.052h5.053v-5.052zm7.158 0h-5.053v5.052H48v-5.052zM5.053 42.947H0V48h5.053v-5.053zm7.158 0H7.158V48h5.053v-5.053zm7.142 0H14.3V48h5.053v-5.053zm7.174 0h-5.052V48h5.052v-5.053zm7.157 0H28.63V48h5.053v-5.053zM38.315 48a2.523 2.523 0 01-2.526-2.526 2.523 2.523 0 012.526-2.527 2.523 2.523 0 012.527 2.527A2.534 2.534 0 0138.315 48zM48 42.947h-5.053V48H48v-5.053z" fill="#0078D4"/></svg>