<svg viewBox="0 0 23 23" xmlns="http://www.w3.org/2000/svg"><path fill="#0080B5" d="M0 0h23v23H0z"/><path fill="#FFF" d="M5.652 9.267h2.572v7.739H5.652zm1.303-3.731c-.88 0-1.455.578-1.455 1.337 0 .743.558 1.337 1.422 1.337h.016c.897 0 1.456-.594 1.456-1.337-.017-.76-.559-1.337-1.439-1.337zm7.584 3.549c-1.367 0-1.977.751-2.319 1.279V9.267H9.648c.034.726 0 7.739 0 7.739h2.572v-4.322c0-.231.017-.462.085-.628.186-.462.61-.94 1.32-.94.93 0 1.303.71 1.303 1.75v4.14H17.5v-4.438c0-2.377-1.27-3.483-2.961-3.483z"/></svg>