<svg xmlns="http://www.w3.org/2000/svg" viewBox="0 0 48 48"><path d="M33.368 23.119A1061.9 1061.9 0 0147.997 21c.003 4.266 0 8.528.003 12.794-4.877.018-9.753.092-14.632.108-.003-3.597-.003-7.19 0-10.783zM21 24.84c3.667-.564 7.35-1.052 11.033-1.511l.006 10.61c-3.68-.004-7.36.052-11.039.043V24.84zm0 10.255c3.677-.012 7.353.046 11.03.04 0 3.547.009 7.094.003 10.64-3.674-.542-7.353-1.017-11.033-1.514v-9.166zm12.347.142h14.65c.006 4.253 0 8.507 0 12.763-4.87-.728-9.75-1.403-14.629-2.063-.006-3.566-.015-7.131-.021-10.7z" fill="#50E6FF"/><path d="M18.856 31c-.117-.026-.234-.05-.35-.079-.604-.15-.978-.572-1.263-1.09a.378.378 0 00-.283-.209c-1.446-.307-2.904-.432-4.375-.27-.814.09-1.623.228-2.433.35a.227.227 0 00-.142.097c-.462.785-1.184 1.115-2.081.968-.815-.133-1.581-.422-2.351-.7-.761-.275-1.519-.562-2.32-.698-.606-.103-1.218-.179-1.817-.308a3.685 3.685 0 01-.94-.353c-.485-.258-.593-.6-.43-1.127.132-.427.267-.853.378-1.285.083-.322.038-.646-.045-.968a5.39 5.39 0 01-.177-.91c-.033-.43.187-.744.58-.905.26-.106.541-.161.815-.23.43-.107.852-.232 1.228-.477a1.8 1.8 0 00.654-.753c.17-.358.393-.672.758-.866a2.587 2.587 0 01.001-1.661c.024-.07.044-.142.079-.206.566-1.048.908-2.185 1.29-3.303.433-1.264 1.11-2.378 1.927-3.42.373-.478.716-.978 1.093-1.452.304-.382.414-.818.444-1.29.066-1.065.012-2.127-.082-3.19-.079-.892-.149-1.786-.07-2.682.05-.585.16-1.156.385-1.703.366-.891 1.057-1.434 1.912-1.8a5.62 5.62 0 011.78-.455c.03-.002.058-.016.088-.025h.821c.04.01.08.025.12.03 1.445.16 2.565.843 3.292 2.112.7 1.221.939 2.57 1.01 3.956.041.794.063 1.59.132 2.383.067.77.302 1.494.75 2.136.52.742 1.046 1.478 1.56 2.225.888 1.293 1.751 2.603 2.434 4.022.356.74.575 1.51.595 2.337a9.126 9.126 0 01-.27 2.395c-.014.06-.003.152.035.193.446.484.673 1.042.65 1.708-.016.513.172.962.582 1.274.273.208.582.375.892.525.657.32.837 1.007.397 1.592-.194.258-.45.44-.73.593-.709.39-1.422.774-2.127 1.173-.875.496-1.732 1.015-2.455 1.733-.185.183-.439.308-.68.417-.217.096-.46.133-.692.196h-.57zm-9.71-4.885c.42.483.83.957 1.245 1.426.04.044.118.064.182.072.682.091 1.367.09 2.048.024.58-.056 1.167-.105 1.73-.242 1.363-.332 2.406-1.166 3.284-2.229a.323.323 0 00.057-.187c.014-.522.01-1.044.034-1.566.023-.483.068-.965.114-1.448a.426.426 0 01.303-.371c.128-.044.264-.076.398-.08.181-.005.363.02.587.035.07-.497.163-.989.206-1.484.081-.94.041-1.875-.217-2.79-.425-1.507-1.006-2.957-1.635-4.387-.498-1.131-1.044-2.24-1.579-3.355-.13-.27-.21-.297-.492-.177-.323.139-.637.298-.947.464-.635.34-1.264.69-1.894 1.04-.517.287-1.006.211-1.49-.087a5.776 5.776 0 01-1.15-.958l-.187-.2c.008.162.028.304.019.444a4.749 4.749 0 01-.991 2.617c-.114.15-.235.304-.308.475-.22.522-.43 1.05-.625 1.583-.253.685-.448 1.395-.823 2.029-.627 1.06-.886 2.21-.85 3.431.022.729.253 1.374.813 1.87.272.241.543.484.823.715.508.417 1.032.817 1.532 1.244.202.172.386.378.53.6.318.487.137 1.092-.38 1.354-.102.053-.212.088-.337.138zm-1.098 3.807c.125-.032.267-.036.37-.102.292-.184.535-.425.724-.717.195-.302.258-.629.182-.982-.109-.504-.395-.91-.713-1.3-.258-.32-.522-.637-.742-.981-.487-.762-.952-1.54-1.42-2.313-.27-.444-.563-.867-.954-1.211a2.325 2.325 0 00-.436-.308c-.278-.148-.47-.1-.659.154-.088.117-.157.248-.227.377-.116.212-.22.431-.34.641a1.119 1.119 0 01-.689.541c-.212.06-.428.107-.64.163-.3.079-.604.145-.895.247-.312.11-.39.245-.37.577.01.162.042.324.08.482.107.457.1.905-.04 1.356a8.02 8.02 0 00-.263 1.005c-.059.339.04.487.373.566.526.125 1.057.228 1.59.317.779.13 1.545.287 2.27.622.419.193.858.343 1.294.497.485.172.978.322 1.505.37zm11.197-7.426c-.033-.005-.078-.016-.124-.017-.281-.01-.4.089-.415.37-.01.184.003.369.01.553.018.568.097 1.14.046 1.702-.073.8-.23 1.592-.372 2.384-.079.443-.16.88-.07 1.33.208 1.042.98 1.412 1.91.913.444-.239.818-.568 1.187-.908.245-.228.498-.462.785-.628.764-.442 1.548-.848 2.321-1.273.226-.123.45-.253.66-.4.202-.143.213-.331.043-.512a1.608 1.608 0 00-.302-.25 5.596 5.596 0 00-.56-.322 1.504 1.504 0 01-.706-.737 2.346 2.346 0 01-.229-1.117c.011-.296-.067-.56-.321-.743-.013.009-.02.01-.022.014-.055.096-.112.19-.164.287-.317.58-.794.96-1.428 1.136a3.33 3.33 0 01-.647.131c-.848.059-1.364-.238-1.523-1.118-.047-.258-.053-.522-.079-.795zm-7.2-12.138c.17-.058.346-.09.494-.173.813-.45 1.622-.908 2.427-1.372.217-.125.24-.347.054-.513a1.699 1.699 0 00-.473-.305c-.617-.251-1.245-.475-1.863-.724-.335-.135-.635-.083-.927.104-.049.031-.101.057-.146.093-.476.382-.953.762-1.42 1.153-.049.04-.077.168-.05.223.08.162.162.343.296.454.383.318.786.613 1.193.9.115.08.269.105.415.16zm2.677-3.033c.424.208.345.257.68-.09.7-.725.675-2.065-.032-2.78-.498-.505-1.209-.558-1.756-.124-.67.53-.84 1.54-.548 2.29.011.028.03.063.053.073.201.081.404.157.631.245-.027-.08-.046-.128-.06-.178-.1-.36-.081-.71.116-1.036.31-.514.912-.508 1.223.007.279.462.231 1.233-.307 1.593zm-4.014-.007c-.391.013-.576-.21-.712-.492a1.277 1.277 0 01-.096-.283c-.064-.296-.054-.588.097-.86.173-.312.508-.377.765-.13.124.12.222.28.29.44.136.315.129.644.013.96.187-.118.375-.23.555-.355a.407.407 0 00.126-.173c.023-.055.02-.124.024-.187.027-.58-.078-1.125-.477-1.573-.39-.438-.948-.45-1.358-.032a1.349 1.349 0 00-.243.329c-.372.735-.385 1.48.01 2.206.104.19.294.335.453.492.027.026.115.028.147.004.132-.1.253-.214.406-.346z" fill="#0078D4"/><path fill-rule="evenodd" clip-rule="evenodd" d="M14.721 7.325c.539-.36.586-1.132.308-1.593-.31-.516-.913-.522-1.223-.007-.197.325-.216.675-.116 1.036.009.032.02.064.035.104l.025.073-.14-.053c-.172-.066-.332-.127-.49-.192-.024-.01-.043-.045-.054-.072-.292-.75-.122-1.76.548-2.29.547-.435 1.258-.382 1.756.123.707.715.73 2.056.032 2.78l-.045.047c-.131.137-.19.198-.257.206-.054.007-.114-.025-.222-.082a5.834 5.834 0 00-.157-.08zm-2.817 2.987c.047.014.094.029.14.046.055-.019.11-.035.165-.05.116-.034.229-.067.329-.123.813-.45 1.623-.907 2.427-1.372.218-.125.242-.347.055-.513a1.702 1.702 0 00-.473-.305c-.322-.13-.647-.254-.971-.378a49.125 49.125 0 01-.892-.346c-.336-.135-.636-.083-.928.104l-.05.03a.89.89 0 00-.096.064l-.18.145c-.416.333-.832.666-1.24 1.008-.048.04-.077.167-.05.222l.015.031c.075.154.156.32.281.423.383.318.787.613 1.194.9a.936.936 0 00.274.114zm-3.856 19.61c-.527-.047-1.02-.196-1.506-.368l-.137-.049c-.39-.137-.782-.275-1.156-.448-.725-.335-1.492-.492-2.27-.622a23.794 23.794 0 01-1.59-.318c-.334-.079-.432-.227-.373-.566.058-.34.16-.674.262-1.005.14-.45.147-.899.04-1.355a2.914 2.914 0 01-.079-.482c-.02-.332.057-.468.37-.578.212-.074.432-.13.652-.185.081-.02.162-.04.242-.062.09-.024.18-.046.271-.067.124-.03.247-.06.37-.095.302-.086.534-.269.69-.541.067-.12.13-.242.193-.365.048-.093.095-.185.145-.276l.017-.032c.065-.119.13-.239.21-.346.19-.253.382-.302.66-.153.155.083.303.19.436.307.39.345.684.768.953 1.211l.214.355a88.89 88.89 0 001.207 1.958c.201.316.44.609.676.9l.065.08c.318.392.604.797.713 1.302.076.353.014.679-.182.981a2.348 2.348 0 01-.723.717.703.703 0 01-.25.078c-.04.007-.081.014-.12.024zm11.197-7.426c.009.087.015.174.021.26a4.9 4.9 0 00.058.534c.16.88.675 1.177 1.523 1.118.217-.015.435-.072.646-.13a2.253 2.253 0 001.428-1.136l.12-.212.045-.075c.001-.003.004-.004.009-.007a.198.198 0 00.013-.007c.253.182.332.446.321.742-.015.393.06.764.228 1.117.155.324.379.577.706.737.193.095.38.205.56.322.11.07.214.156.303.25.17.181.158.37-.044.512a6.8 6.8 0 01-.659.4c-.268.148-.537.293-.807.438a54.52 54.52 0 00-1.514.835c-.287.167-.54.4-.786.628-.368.34-.742.67-1.186.909-.93.499-1.702.128-1.91-.913-.088-.444-.011-.875.066-1.312l.004-.019.071-.396c.12-.66.24-1.322.3-1.988.036-.384.01-.775-.016-1.165a16.426 16.426 0 01-.035-.654c-.006-.146-.012-.291-.004-.435.015-.282.133-.38.415-.37a.703.703 0 01.124.017zM10.59 7.423c.038-.034.077-.069.12-.105-.392.013-.577-.21-.713-.493a1.261 1.261 0 01-.095-.283c-.064-.296-.054-.588.096-.86.173-.312.509-.377.765-.13.124.12.222.28.291.44.136.315.128.644.012.96l.153-.095c.136-.085.271-.169.402-.26a.407.407 0 00.126-.172c.02-.046.021-.101.023-.154v-.033c.028-.581-.077-1.125-.476-1.573-.39-.438-.948-.45-1.358-.033a1.361 1.361 0 00-.242.33c-.373.734-.386 1.479.01 2.205.078.144.206.262.332.379l.12.113c.027.027.115.029.147.005a4.81 4.81 0 00.287-.241z" fill="#fff"/><path d="M9.146 26.115c.124-.05.235-.085.337-.137.518-.263.698-.867.38-1.354a2.836 2.836 0 00-.53-.6c-.5-.428-1.023-.827-1.532-1.245-.28-.23-.55-.473-.822-.714-.561-.497-.792-1.142-.814-1.87-.036-1.222.223-2.372.85-3.432.375-.634.57-1.343.823-2.029.196-.532.405-1.06.626-1.583.072-.17.193-.325.307-.475a4.748 4.748 0 00.99-2.617c.01-.14-.01-.282-.018-.444l.188.2c.346.364.72.693 1.15.958.483.299.973.374 1.49.087.63-.35 1.259-.699 1.893-1.04.31-.166.625-.325.948-.463.281-.12.362-.094.492.177.534 1.114 1.08 2.223 1.578 3.354.629 1.43 1.21 2.88 1.635 4.388.259.914.299 1.85.217 2.789-.043.496-.135.987-.206 1.485-.223-.015-.405-.041-.586-.035-.134.004-.27.036-.398.08a.426.426 0 00-.304.37c-.045.483-.091.966-.114 1.449-.024.52-.02 1.043-.033 1.565a.325.325 0 01-.058.187c-.877 1.063-1.92 1.898-3.283 2.23-.564.136-1.151.186-1.73.241a8.957 8.957 0 01-2.049-.024c-.063-.008-.143-.028-.182-.072-.416-.468-.825-.943-1.245-1.426z" fill="#fff"/><path d="M17.635 14.764l1.672-1.673L17.212 11 12 16.23l5.222 5.217 2.046-2.052-1.706-1.712H22.6V26h2.924V14.764h-7.889z" fill="#50E6FF"/><path d="M22.6 25.098V36h2.924V25.098H22.6z" fill="#0078D4"/><path d="M30.48 30.3l-2.051 2.052 1.711 1.713-7.54.012V37l7.461-.013-1.671 1.674 2.094 2.091 5.218-5.23L30.48 30.3z" fill="#0078D4"/></svg>