<svg xmlns="http://www.w3.org/2000/svg" viewBox="0 0 34 31.979"><path d="M27.855 19.133a.116.116 0 01-.015.041m-1.782 3.381c.06-.085.12-.169.176-.256l-.234.348zM5.17 25.269l.084.068-.1-.09a.089.089 0 00.019.022zM3.1 11.92a9.193 9.193 0 01-.58-5.713 14.211 14.211 0 00.064 16.256 21.446 21.446 0 01.836-4.943 4.05 4.05 0 01-.32-.369 4.291 4.291 0 010-5.231zm15.031 12.75a2.831 2.831 0 01-4.563-2.536 23.949 23.949 0 01-4.182-2.654 28.02 28.02 0 01-1.158-.979 4.317 4.317 0 01-2 .324 15.679 15.679 0 00-.983 6.5 14.03 14.03 0 002.206 1.489 14.423 14.423 0 0016.874-2.257 25.606 25.606 0 01-5.563-.583 2.805 2.805 0 01-.631.7z" fill="#59b4d9"/><path d="M24.768 17.369a3.084 3.084 0 01-3.811-.042 3.053 3.053 0 01-.841-3.7c-1.8-1.4-3.7-2.96-5.49-4.613-.048-.044-.089-.087-.136-.128.046.044.089.09.136.128a31.331 31.331 0 00-3.742 3.02c-.175.163-.336.327-.5.49a4.317 4.317 0 01-.181 4.316q.374.319.78.641a26.889 26.889 0 003.877 2.559 2.824 2.824 0 014.317 1.781 15.141 15.141 0 007.06.481 14.125 14.125 0 001.606-3.133c-.542-.366-1.5-1.007-2.884-1.977-.067.057-.119.123-.191.177zm.973-11.76c-.054-.07-.109-.141-.165-.21-.286-.026-3.931-.3-8.98 2.408 1.7 1.679 3.3 3.172 4.769 4.477a3.074 3.074 0 013.527.318 3.043 3.043 0 01.87 3.419 88.67 88.67 0 002.463 1.922 14.2 14.2 0 00-2.484-12.334zm-11.814-.54a15.4 15.4 0 019.581-1.794A14.437 14.437 0 009.943.689q2.028 2.348 3.983 4.38zm-6.492 5.238c.161-.181.317-.355.483-.532a26.556 26.556 0 013.989-3.438l-.01-.009a30.9 30.9 0 01-3.861-4.87 14.225 14.225 0 00-2.4 1.492 14.418 14.418 0 00-1.562 1.373 10.441 10.441 0 001 6.151 4.364 4.364 0 012.364-.168z" fill="#59b4d9"/><path d="M19.2 25.271a1.544 1.544 0 01.109-1.41 15.573 15.573 0 00.892-2.011 9.17 9.17 0 011.519-2.55 4.73 4.73 0 00.6-.891 1.765 1.765 0 00.163-.792c-.032-1.13-.1-2.259-.152-3.389a4.211 4.211 0 01.139-1.067 2.3 2.3 0 011.73-1.71 3.259 3.259 0 014.35 2.749c.066.5.019 1.019.066 1.525a6.472 6.472 0 001.143 3.129c.515.737 1.05 1.454 1.509 2.221.333.556.544 1.184.831 1.768a3.487 3.487 0 01.32 1.7 1.629 1.629 0 01-.328 1.025.342.342 0 01-.135.06c-.162.037-.3.049-.29-.188a.183.183 0 00-.058-.108.7.7 0 00-.244-.182 2.3 2.3 0 00-.772-.19 3.524 3.524 0 01.651.224.282.282 0 01.048.053.408.408 0 01.088.2.344.344 0 00.277.354c-.009.136-.129.22-.163.343a.973.973 0 01-.278.306 2.252 2.252 0 00-.215.16 2.333 2.333 0 00-.257.158.41.41 0 01-.069.028 1.21 1.21 0 01-1.287-.4.867.867 0 01-.064-.588c.01-.083.04-.167-.045-.229s-.2-.108-.188-.245a3.662 3.662 0 00.1-1.447 6.19 6.19 0 00-.257-1.686.8.8 0 00-.16-.414.69.69 0 01-.112-.265.529.529 0 00-.091-.219 4.171 4.171 0 00-.25-.464 5.756 5.756 0 00-.257-.565c-.08-.256-.2-.491-.257-.75a3.129 3.129 0 00-.4-.964 5.04 5.04 0 01-.465-1.1.755.755 0 01-.008-.192.958.958 0 01.05-.24.5.5 0 00-.2-.623.144.144 0 01-.017-.074 1.6 1.6 0 00.184-1.4c-.018-.059-.033-.118-.055-.174a2.528 2.528 0 00-.386-.577.128.128 0 01.035-.1c.072-.059.139-.017.206.009a.8.8 0 01.257.231.681.681 0 00-.429-.413c-.018 0-.071-.037-.055.027 0 .022.031.038.04.062a.092.092 0 01-.036.1c-.077.06-.16.026-.242.017a.789.789 0 00-.584.086c-.143.146-.341.236-.441.425a.245.245 0 01-.046.051.576.576 0 00-.161.5c0 .087.035.2-.129.156a.324.324 0 01-.058-.042.257.257 0 00-.039-.032.214.214 0 00-.237-.021.059.059 0 00-.022.087c.048.07.129.062.2.088a.163.163 0 00.075 0c.09-.009.211-.091.223.087s-.106.167-.221.156a5.116 5.116 0 01-.643-.01.2.2 0 01-.045-.106 1.412 1.412 0 00-.169-.864 2.2 2.2 0 00-.129-.226.479.479 0 00-.813.029 1.679 1.679 0 00-.116 1.233 2.37 2.37 0 00.243.624c0 .11-.09.172-.156.245a.524.524 0 00-.107.736.413.413 0 01.06.211 3.465 3.465 0 00.01.751.605.605 0 01.019.117.638.638 0 01-.014.191c-.012.047-.027.094-.037.141a.929.929 0 01-.175.309 3.4 3.4 0 00-.453.684.974.974 0 01-.063.128 2.754 2.754 0 00-.232.554 1.277 1.277 0 00-.139.473 2.713 2.713 0 01-.21.574.422.422 0 01-.032.064 1.73 1.73 0 00-.234.473 7.147 7.147 0 00-.651 1.794 2.753 2.753 0 00-.108.987c.006.085.028.183-.076.213s-.129-.062-.169-.128a1.578 1.578 0 01-.22-.814 1.7 1.7 0 00-.018-.4 1.241 1.241 0 00.328 1.421c.138.1.193.277.355.347.233.136.416.336.634.491.494.425 1.023.81 1.509 1.244a.817.817 0 01.257.641c0 .309-.046.377-.342.5a4.131 4.131 0 00-.429.128c-.136 0-.178-.114-.235-.2-.386-.607-.753-1.233-1.158-1.829a5.464 5.464 0 00-.851-1.058.576.576 0 00-.854-.085c-.056.037-.109.085-.182.044z"/><path d="M19.2 25.271a1.152 1.152 0 00.108-.064.61.61 0 01.955.058 10.035 10.035 0 01.912 1.13c.392.572.744 1.173 1.114 1.758a2.911 2.911 0 00.183.237.185.185 0 01.09.09.661.661 0 00.172.193.233.233 0 01.05.1 1.778 1.778 0 01.026.195 1.327 1.327 0 01-.069.985 1.312 1.312 0 01-1.08.769 3.691 3.691 0 01-1.544-.222 6.65 6.65 0 00-2.551-.425 1.618 1.618 0 01-.842-.058.289.289 0 01-.077-.04.256.256 0 01-.055-.065 1.025 1.025 0 01-.012-.651.911.911 0 01.009-.156.3.3 0 01.033-.105c.062-.069.129-.128.12-.241a.836.836 0 01.022-.151 3.2 3.2 0 00-.012-.815 4.764 4.764 0 01-.051-.513.452.452 0 01.275-.456 1.018 1.018 0 01.226-.092l.08-.012c.225-.017.45 0 .676-.008.394 0 .548-.128.658-.513a.357.357 0 01.031-.07c.071-.146.158-.283.233-.427zm9.9.122l.22.119c.117.128.035.245-.01.366a.128.128 0 01-.048.053.071.071 0 01-.062-.031c-.129-.243-.211-.27-.58-.193.147.256.226.284.485.191a.12.12 0 01.1 0c.071.065.036.128.009.2a.527.527 0 01-.035.064.834.834 0 00.589 1.1 1.21 1.21 0 001.467-.7 1.706 1.706 0 01.171-.27.961.961 0 00.2-.356.238.238 0 01.033-.06c.086-.065.088-.192.184-.256.081-.01.158-.076.243-.017l.041.051c.188.041.243.193.3.347l.008.693c.066.193-.036.222-.193.193a1.194 1.194 0 00-.737.078.562.562 0 00-.283.237.62.62 0 01-.04.065.675.675 0 00-.085.209.728.728 0 01-.752.513 3.978 3.978 0 01-.429-.014.644.644 0 00-.643.358 1.9 1.9 0 00-.323 1.117.713.713 0 00.492.657 1.292 1.292 0 00.745.033c.407-.108.808-.235 1.207-.366a.5.5 0 01.416-.019c.051.054.015.1-.017.141a2.736 2.736 0 01-.6.295 10.409 10.409 0 01-1.117.313 1.291 1.291 0 01-1.3-.365.967.967 0 01-.239-.842c.055-.347.109-.7.17-1.042a1.45 1.45 0 00-.066-.57c-.037-.128-.066-.256-.111-.384-.1-.407-.163-.82-.242-1.23-.026-.1-.022-.21-.039-.315a.416.416 0 01.046-.2.764.764 0 01.825-.163z" fill="#fecc00"/><path d="M31.136 27.229a.89.89 0 01.889-.415.916.916 0 01.221.037c.147.051.154-.041.16-.141a3.187 3.187 0 001.128 1.19c.578.391.616.619.129 1.13a1.045 1.045 0 01-.229.192c-.039.023-.078.044-.117.065a1.418 1.418 0 01-.3.158.958.958 0 00-.2.063.714.714 0 01-.17.053 6.431 6.431 0 00-.606.235c-.084.017-.165.077-.251.009-.171.032-.346.054-.515.1-.453.12-.9.265-1.356.375a1.024 1.024 0 01-1.029-.513 1.514 1.514 0 01.1-1.075 3.655 3.655 0 01.219-.42.871.871 0 01.89-.328c.643.029.708-.019.941-.618.013-.035.057-.058.086-.086a1 1 0 01-.282.938.6.6 0 01-.724.106 1.841 1.841 0 00-.238-.085.374.374 0 00-.466.2 1.626 1.626 0 00-.1 1.129.415.415 0 00.363.342 1.362 1.362 0 00.8-.065 3 3 0 011.05-.256 5.3 5.3 0 001.8-.554.986.986 0 00.248-.172.417.417 0 00-.057-.7 5.674 5.674 0 01-1.071-.879.861.861 0 00-1.076-.117c-.073.042-.127.132-.237.102z" fill="#fece00"/><path d="M21.719 31.967h-1.158a.052.052 0 01.019-.076.54.54 0 01.295-.041 6.594 6.594 0 002.5-.442.419.419 0 00.169-.05 1.919 1.919 0 011.2-.273 2.744 2.744 0 011.614.363 2.044 2.044 0 00.643.2.388.388 0 01.078.019 1.173 1.173 0 00.368.105 1.19 1.19 0 00.306.029.646.646 0 01.121.019 1.848 1.848 0 00.459.023h.9a.433.433 0 01.219.042.054.054 0 01.019.077h-1.778a5.8 5.8 0 01-1.06-.172 5.963 5.963 0 01-.972-.409c-.187-.1-.412-.05-.614-.1a.5.5 0 00-.076 0 2.374 2.374 0 00-1.356.267 3.576 3.576 0 01-1.777.4.165.165 0 00-.119.019z" fill="#dfdfdf"/><path d="M17.77 31.968a1.606 1.606 0 01-1.04-.369 2.536 2.536 0 01-1.066-1.016 1.532 1.532 0 01.069-1.356 3.212 3.212 0 01.977-.9l.023.029c.039.146-.066.206-.162.278A2.4 2.4 0 0016 29.2a1.286 1.286 0 00.172 1.715 3.7 3.7 0 001.392.906c.078.034.198.013.206.147z" fill="#fbfbfb"/><path d="M16.673 28.994l-.017.1c-.063.163-.158.31-.234.468a.808.808 0 00.008.809c.03.05.039.11.069.16a.529.529 0 01.035.058.641.641 0 00.16.2l.233.231a.771.771 0 00.2.16c.028.017.054.036.081.055a.978.978 0 00.257.138c.041.017.082.036.122.055a1.16 1.16 0 00.386.183 1.728 1.728 0 01.188.062.911.911 0 00.2.1l.063.018c.078.022.16.015.239.031.089.05.241-.017.27.144h-.4a4.236 4.236 0 01-1.727-.686 1.347 1.347 0 00-.167-.172.443.443 0 01-.069-.07.835.835 0 00-.163-.161.35.35 0 01-.064-.086 1.586 1.586 0 01-.3-.761 1.17 1.17 0 01.606-1.1.058.058 0 01.026.068z" fill="#ededec"/><path d="M18.934 31.968l-.3-.1c-.076-.062-.178.009-.257-.05-.058-.054-.144-.05-.2-.1l-.2-.05c-.147-.044-.257-.15-.405-.2l-.1-.05a2.1 2.1 0 00-.3-.151l-.05-.05c-.069-.047-.129-.106-.2-.151l-.257-.256a1.559 1.559 0 00-.152-.2 1.1 1.1 0 01-.091-1.083c.036-.069.033-.168.139-.186.072.128-.006.267 0 .4a1.629 1.629 0 00.918 1.448 5.489 5.489 0 001.984.669c.075.013.18-.014.187.114z" fill="#e7e7e6"/><path d="M31.136 31.968h-.456c.015-.138.143-.118.226-.145a4.258 4.258 0 00.883-.337 1.789 1.789 0 00.257-.087.529.529 0 01.06-.026.3.3 0 00.158-.1.238.238 0 01.081-.053.279.279 0 00.212-.174.218.218 0 01.069-.07.272.272 0 00.135-.128.221.221 0 01.069-.07.257.257 0 00.139-.172.428.428 0 01.031-.065 1 1 0 00.072-.959c-.051-.111-.012-.22.153-.206a.841.841 0 01.215.874 1.475 1.475 0 01-.129.35 3.28 3.28 0 01-2.175 1.368z" fill="#ededed"/><path d="M33.414 29.2l.248-.167-.045.117c-.066.086-.006.156.027.232a1.363 1.363 0 01-.2 1.526 3.219 3.219 0 01-1.748 1.065h-.3c-.018-.1.073-.069.117-.087a3.46 3.46 0 001.727-1.153 1.166 1.166 0 00.194-1.1c-.048-.138-.203-.285-.02-.433z" fill="#f5f5f5"/><path d="M21.719 31.967l.561-.091a4.992 4.992 0 001.769-.606.424.424 0 01.216-.05c.429.012.858.012 1.287.058a1.866 1.866 0 01.493.227 4.555 4.555 0 001.565.423c.03 0 .058.029.086.045h-.506a4.509 4.509 0 01-1.661-.527 2.38 2.38 0 00-1.8.178 3.954 3.954 0 01-1.351.349z" fill="#e7e7e7"/><path d="M31.693 31.968a11.31 11.31 0 001.029-.513 1.662 1.662 0 00.95-1.865 1.369 1.369 0 00-.129-.265c-.058-.1-.06-.176.082-.186a1.706 1.706 0 01.257 1.012 2.081 2.081 0 01-.916 1.289 4.511 4.511 0 01-.857.438 1.9 1.9 0 01-.417.088z" fill="#fafafa"/><path d="M19.642 31.967c-.429-.1-.865-.176-1.287-.306a2.875 2.875 0 01-1.66-1.1 1.128 1.128 0 01-.2-.81c.117-.013.053.14.139.154l.013.049c.129.163.12.384.257.545.013.019.024.038.036.058a.74.74 0 00.179.209 3.574 3.574 0 001.723.879 4.628 4.628 0 00.96.185 1.53 1.53 0 00.408.023c.115.009.238-.026.335.069v.049z" fill="#e4e4e3"/><path d="M32.857 30.808l-.05.05a.461.461 0 01-.152.151l-.05.05a.538.538 0 01-.257.2l-.05.05a.98.98 0 01-.2.1c-.081.042-.174.055-.257.1l-1.029.4-.129.054h-.556c-.01-.083.055-.1.109-.1a2.949 2.949 0 00.856-.232c.057-.021.113-.041.172-.059a1.081 1.081 0 00.342-.128.481.481 0 01.062-.027.969.969 0 00.374-.22 1.409 1.409 0 00.857-1.521c-.013-.094-.023-.185.072-.245a.1.1 0 01.075.026 1.188 1.188 0 01-.035 1.153.828.828 0 01-.152.2z" fill="#e7e7e7"/><path d="M22.378 31.968c.286-.083.573-.163.857-.256a2.6 2.6 0 00.54-.2 2.764 2.764 0 011.66-.195c.1 0 .192.1.293.136.485.173.972.34 1.458.513h-.4A4.25 4.25 0 0125.6 31.6a2.045 2.045 0 00-1.591.017 3.881 3.881 0 01-1.274.351z" fill="#e8e8e8"/><path d="M25.972 31.968c-.3-.078-.6-.176-.9-.228a.968.968 0 00-.569.021 1.849 1.849 0 01-1.011.208c-.012-.094.066-.111.129-.128.257-.073.49-.214.748-.286a1.429 1.429 0 01.824 0c.106.047.223.064.324.12a.965.965 0 00.319.159c.051.033.146.029.136.134z" fill="#f6f6f6"/><path d="M16.4 30.808l.05.05a.4.4 0 00.152.155l.05.05a.4.4 0 00.152.151 6.588 6.588 0 001.722.756h-.508a3.608 3.608 0 01-1.7-.916.292.292 0 01-.117-.187.171.171 0 01.035-.111c.078-.056.126-.008.164.052z" fill="#f3f3f3"/><path d="M24.352 31.616l-.861.352h-.354c-.013-.1.075-.073.12-.088a5.086 5.086 0 00.933-.384.715.715 0 01.241-.063 3.505 3.505 0 011.993.484c.01 0 .008.028 0 .046h-.452l-.152-.1a1.555 1.555 0 01-.3-.151l-.3-.1a1.086 1.086 0 00-.861.005z" fill="#f0f0f0"/><path d="M26.428 31.968a5.47 5.47 0 00-1.072-.46 1.75 1.75 0 00-1.246.09 6.082 6.082 0 01-.974.37h-.405a9.652 9.652 0 011.481-.513 2.227 2.227 0 011.521.128 8.223 8.223 0 001.047.384z" fill="#eee"/><path d="M33.262 30.757a5.521 5.521 0 01-.8.728 7.558 7.558 0 01-1.078.482h-.257c.331-.146.659-.3.995-.436a2.072 2.072 0 00.99-.788.916.916 0 01.142-.137.11.11 0 01.005.151z" fill="#efefef"/><path d="M16.25 30.86a2.459 2.459 0 001 .769c.257.12.515.223.772.334h-.257a4.094 4.094 0 01-1.527-.9 1.3 1.3 0 01-.093-.117.128.128 0 01-.018-.141c.066-.038.091.016.123.055z" fill="#f6f6f6"/><path d="M18.683 26.118v.054a.713.713 0 01-.22.309.965.965 0 01-.746.242c-.068 0-.165.015-.153-.108a2.139 2.139 0 001.072-.543c.042-.014.064-.002.047.046z" fill="#c0870b"/><path d="M32.058 25.62l-.257.06c-.053.042-.049.128-.129.15l-.03-.018c-.241.037-.3-.091-.3-.3a.809.809 0 00-.091-.256.1.1 0 01.1-.009c.1.07.082.2.143.3.129-.059.066-.209.151-.277l.14.314.311-.015z" fill="#12100a"/><path d="M31.136 31.666l-1.013.3h-.659v-.049c.16-.128.356-.064.533-.083.351-.038.667-.224 1.023-.229a.173.173 0 01.116.06z" fill="#e4e4e4"/><path d="M17.009 26.821c-.367.256-.237.62-.2.961a.048.048 0 01-.063 0 .4.4 0 01-.06-.128V27.5a2.36 2.36 0 00-.015-.425.385.385 0 01.341-.314.035.035 0 01.014.036q-.01.024-.017.024z" fill="#c89214"/><path d="M16.711 27.682l.046.105a1.994 1.994 0 01.051.859v.146c-.026.042-.051.086-.113.049a.2.2 0 01-.04-.1.42.42 0 010-.109c.018-.1.129-.178.057-.295L16.7 27.8a.088.088 0 01.008-.114z" fill="#c2912d"/><path d="M17.561 26.614a.765.765 0 00.727-.083 1.947 1.947 0 00.189-.108c.017.231-.175.256-.322.295a3.515 3.515 0 01-.821.028c-.063-.062-.015-.081.039-.092s.1.009.144-.028a.116.116 0 01.044-.012z" fill="#c68f0f"/><path d="M22.469 13.16l-.139 1.066a1.9 1.9 0 01.139-1.066z" fill="#b8b8b8"/><path fill="#c59224" d="M18.683 26.118l-.05-.047.25-.367-.2.414z"/><path d="M32.4 26.016l-.3-.347c.242-.004.269.174.3.347z" fill="#fbcc01"/><path d="M17.518 26.626l-.2.095c0 .033-.035.037-.054.054h-.05c-.03-.029-.085 0-.108-.047z" fill="#c2943f"/><path d="M16.666 27.079l.046.456c-.021.019-.037.018-.049-.006z" fill="#b67b05"/><path fill="#c48e17" d="M17.102 26.721l.108.054-.201.061v-.064l.093-.051z"/><path fill="#bd8f44" d="M16.663 27.529l.049.007v.143l-.012.117-.037-.267z"/><path d="M29.1 25.393c-.279.038-.592-.038-.808.226-.091.1-.031.227-.042.341a.447.447 0 01-.009.072c-.03.082-.022.17-.046.256a.284.284 0 01-.086.128.707.707 0 00-.265.923 1.149 1.149 0 01-.041.856 1.508 1.508 0 01-.122.208 3.323 3.323 0 01-1.466.9 5.815 5.815 0 01-1.813.3 2.422 2.422 0 01-.825-.1 1.969 1.969 0 01-.439-.209.306.306 0 01-.044-.055.536.536 0 00-.206-.256c-.1-.062-.113-.169-.157-.256v-.019h-.019c-.042-.014-.057-.051-.073-.087-.113-.256-.113-.256.228-.342.166-.055.362-.095.368-.314a.835.835 0 00-.3-.819l-1.472-1.206c-.175-.169-.364-.323-.551-.478a.771.771 0 01-.248-.57 4.715 4.715 0 01.3-1.89 4.688 4.688 0 01.879-1.68 1.3 1.3 0 01.66-.4c.082-.027.2-.041.211-.15.008-.082-.094-.109-.153-.151a.716.716 0 01-.235-.877 2.867 2.867 0 01.408-.716l.157-.3a.626.626 0 00.129-.155c.167-.235.188-.235.4-.017.129.215.287.41.422.62.239.327.425.374.772.174a6.076 6.076 0 001.045-.777 3.105 3.105 0 01.7-.482.608.608 0 01.745.082c.059.062.129.117.187.174a4.455 4.455 0 01.567 1.179l.251.748a3.143 3.143 0 00.257.609c.021.054.06.1.084.151s.069.109 0 .155-.106-.017-.152-.047a.454.454 0 01-.071-.081.89.89 0 00-.147-.186l-.121-.119a2.767 2.767 0 01-.257-.32.265.265 0 00-.257-.128 5.463 5.463 0 00-1.257.256.109.109 0 00-.076.083c.1.111.245.109.378.137a4.217 4.217 0 011.6.7c.076.067.156.128.226.2a1.028 1.028 0 00.257.224c.091.1.2.021.3.022.057.059.03.156.1.209a6.072 6.072 0 01.293 1.954 4.794 4.794 0 01-.009.73 3.856 3.856 0 01-.162.563z" fill="#fefefe"/><path d="M26.984 14.877a1.328 1.328 0 01-.2 1.451c-.117.069-.223-.029-.335-.022-.089-.018-.192-.018-.2-.147a.177.177 0 01.058-.106.7.7 0 00.143-.938.249.249 0 00-.176-.154c-.515-.053-.625.047-.637.566a.5.5 0 01-.057.314.618.618 0 01-.5-.156 2.078 2.078 0 01-.031-.793.328.328 0 01.165-.268l.01.006a.713.713 0 01.053-.059.366.366 0 01.189-.063 2.276 2.276 0 011.229.058c.141.059.205.197.289.311z" fill="#fcfcfc"/><path d="M24 14.624a1.07 1.07 0 01.176.976.176.176 0 01-.12.181.332.332 0 01-.179.032.114.114 0 01-.066-.049 1 1 0 01-.037-.4.459.459 0 00-.147-.333.328.328 0 00-.326-.083.282.282 0 00-.2.264.984.984 0 00.284.871.167.167 0 01.021.072.284.284 0 01-.207.2.093.093 0 01-.067-.027l-.257-.6a2.043 2.043 0 01-.068-.616c.036-.24.063-.5.341-.595a.769.769 0 01.852.107z" fill="#f8f8f7"/><path d="M22.374 19.712a.4.4 0 010 .128.6.6 0 00.342.792c.194.109.19.186-.017.265a1.837 1.837 0 00-.507.215 3 3 0 00-.562.6 5.312 5.312 0 00-.91 2.794c-.021.329-.069.71.264.965.139.106.272.224.4.341a.512.512 0 01.076.119l-.6-.463a.557.557 0 01-.245-.55 5.148 5.148 0 01.086-1.161 5.858 5.858 0 01.66-1.815c.1-.142.157-.31.248-.457a.371.371 0 00.05-.049 1.167 1.167 0 01.625-.552c.163-.068.235-.147.08-.308a.669.669 0 01-.117-.746c.038-.052.042-.13.127-.118z" fill="#eee"/><path d="M20.705 23.75c-.012.4-.017.8-.036 1.2a.612.612 0 00.194.513 5.662 5.662 0 01-.695-.7 1.256 1.256 0 01-.158-.92 1.5 1.5 0 01.048-.27c.015-.045.072-.077.111-.114.027.044.076.085.08.128.024.282.017.569.063.847a2.576 2.576 0 00.21.523z" fill="#404040"/><path d="M28.657 17.835c.01.245-.2.384-.386.269a.939.939 0 01-.471-.704.2.2 0 01.113-.16 1.383 1.383 0 01.723.522c.01.027.017.06.021.073z" fill="#636363"/><path d="M22.926 18.319V17.5c.154.012.221.155.337.224a1.542 1.542 0 00.274.231 1.326 1.326 0 01.188.2 1.229 1.229 0 001.167.268c.106-.012.207-.076.317-.021.008.2-.169.169-.281.218a1.079 1.079 0 00-.394.074.651.651 0 01-.772-.2 6.643 6.643 0 00-.544-.524c-.223-.165-.16.049-.188.141a.443.443 0 01-.018.067c-.019.05-.029.109-.086.141z" fill="#8d8b87"/><path d="M24 14.624a3.013 3.013 0 00-.606-.091c-.362.018-.525.206-.542.587-.009.205.018.413.028.619a1.579 1.579 0 01.111-1.306.558.558 0 01.9 0z" fill="#adadad"/><path d="M26.111 12.663c.018-.106.036-.213.057-.318.086-.447.145-.474.548-.25a.1.1 0 01.022.012l.483.488c-.192.087-.386.177-.577.256-.053.023-.113.031-.166.054-.339.154-.351.143-.367-.242z" fill="#232323"/><path d="M22.28 19.829a.771.771 0 00.23.816.226.226 0 01-.036.2 1.851 1.851 0 00-.809.634.909.909 0 01.335-.63c.1-.082.166-.172.117-.3a.933.933 0 01.1-.741l.054-.1a.1.1 0 01.009.121z" fill="#a9a9a9"/><path d="M29.718 22.338c-.142.049-.273.072-.355-.1a.383.383 0 01.063-.479.258.258 0 01.217-.019 1 1 0 01.225.145c.119.207.021.343-.15.453z" fill="#222"/><path d="M30.324 21.988l.2.551a2.489 2.489 0 01.048.623c0 .068 0 .145-.1.147s-.076-.074-.1-.128c-.05-.128 0-.268-.051-.4l-.257-.8c.087-.17.112-.168.26.007z" fill="#3d3d3d"/><path d="M20.959 21.787L20.5 22.8c-.156-.031-.188-.078-.138-.241a6.01 6.01 0 01.34-.769v-.049c.072-.113.139-.228.217-.336.147-.086.192-.024.149.115a2.469 2.469 0 01-.115.269z" fill="#2e2e2e"/><path d="M22.217 19.807a1.3 1.3 0 000 .851c.018.045-.055.159-.115.2a1.064 1.064 0 00-.432.622h-.051l.207-.6c.077-.159.085-.34.153-.5z" fill="#7f7f7f"/><path d="M27.854 19.51c-.139-.29-.273-.582-.418-.868a2.521 2.521 0 00-.2-.287c-.04-.068-.1-.12-.139-.19s-.064-.142-.1-.21c-.048-.164-.216-.195-.322-.3-.023-.07.022-.11.069-.147a.374.374 0 01.226-.079c.257.55.515 1.1.762 1.649a2.979 2.979 0 01.121.428z" fill="#a09f9d"/><path d="M25.21 14.624a1.18 1.18 0 00-.1 1.051.129.129 0 01-.129.063 2.321 2.321 0 00-.574.01c-.081 0-.2.024-.206-.118.225-.015.45-.026.676-.047.045 0 .086-.05.129-.077l-.129-.026a2.5 2.5 0 01-.342-.069.147.147 0 01.015-.265c.139-.024.291-.049.356.128a.068.068 0 01-.059.024c-.072 0-.14-.095-.214-.01.1.064.188.088.274-.013.027-.026.072-.049.077-.079.028-.16.037-.324.075-.482.014-.036.1-.059.151-.09z" fill="#101010"/><path d="M29.277 25.871l.041-.36a2.285 2.285 0 01.064.288c.018.188.024.377.035.565a1.1 1.1 0 001.313.354.09.09 0 01.115 0c.008.094-.057.128-.129.163a1.162 1.162 0 01-1.149-.114.725.725 0 01-.29-.9z" fill="#a36b00"/><path d="M25.264 14.628h-.039c0-.256.27-.3.4-.46a.934.934 0 01.907.008l.408.547c-.153 0-.176-.164-.283-.219a2.257 2.257 0 00-.187-.155 1.059 1.059 0 00-.894.051c-.093.1-.24.112-.312.228z" fill="#8b8b8b"/><path d="M20.705 21.787c-.094.256-.2.513-.275.769-.019.067.046.158.073.238l-.212.334c-.014-.128-.076-.27-.035-.375.13-.333.297-.653.449-.966z" fill="#1f1f1f"/><path d="M28.3 21.078l.152.091-.111-.29a.041.041 0 01.013-.06l.248.464a1.038 1.038 0 00.1.2l.106.256c.014.069.085.128.045.206-.1.106-.2.142-.3-.009.027-.045.094-.056.1-.12a.423.423 0 00-.08-.164c-.037-.055-.073-.111-.113-.167-.07-.131-.237-.223-.16-.407z" fill="#dedede"/><path d="M24.052 14.414l-.5-.475c.374-.078.543.144.7.384-.006.16-.027.16-.2.091z" fill="#484848"/><path d="M30.329 22.788l.129.483h.076v-.725c.021.3.044.6.057.9 0 .045-.049.091-.075.136-.042-.047-.116-.092-.129-.145-.031-.217-.04-.437-.058-.649z" fill="#101010"/><path d="M26.525 13.982l-.214-.111c.4-.1.658.094.753.566l-.346-.313c-.051-.064-.138-.081-.193-.142z" fill="#626262"/><path d="M23.23 17.754l-.3-.256c-.36-.463-.149-.823.211-1.153h.05c.071.12-.032.181-.093.256a.578.578 0 00-.129.678.9.9 0 00.2.256c.059.065.149.118.129.231a.046.046 0 01-.066-.012z" fill="#aa7000"/><path d="M31.233 25.217c-.2-.053-.4-.1-.6-.159a.515.515 0 01-.129-.09c.053-.029.113-.094.156-.083.248.063.493.144.737.219a.042.042 0 01.017.035v.021c-.058.04-.127.028-.181.057z" fill="#414141"/><path d="M29.6 21.337l-.643-.481.054-.088.558.308c.073.064.166.115.162.233a.084.084 0 01-.131.028z" fill="#3d3d3d"/><path d="M24.2 15.628a1.722 1.722 0 00.246.041h.664l.445.174c.084.026.17.05.082.163a.137.137 0 01-.1 0 2.308 2.308 0 00-1.376-.188.238.238 0 01-.1-.013.047.047 0 01-.019-.07l.129-.135a.058.058 0 01.029.028z" fill="#e0ab00"/><path d="M31.39 25.153a.423.423 0 010-.049l.243.163a.443.443 0 010 .172 1.257 1.257 0 01-.138.21 1.959 1.959 0 01-.111-.187 1.486 1.486 0 01-.059-.187c.015-.047.057-.075.065-.122z" fill="#3b3b3b"/><path d="M22.93 27.131a.821.821 0 01.355.784c-.015.256-.2.325-.4.374q-.042-.026 0-.055a.62.62 0 00.167-.953c-.046-.048-.082-.1-.122-.15z" fill="#b0b0b0"/><path d="M26.793 16.378c.257.085.3.279.265.513-.019.12-.053.24-.081.359-.049.095-.068.217-.2.238a.129.129 0 01-.1-.033.159.159 0 01.054-.158.614.614 0 00.044-.856.064.064 0 01.018-.063z" fill="#d29b00"/><path d="M30.73 26.719a.985.985 0 01-1.313-.354 1.321 1.321 0 001.313.354z" fill="#9b5e00"/><path d="M30.116 24.75l.014-.092a.675.675 0 00.09-.209l.107-.395c.086-.109.129-.051.129.045a.766.766 0 01-.082.311l-.206.4c-.044.009-.068-.004-.052-.06z" fill="#545454"/><path d="M26.524 14.179l-.907-.008c.188-.213.435-.15.669-.138a2.2 2.2 0 01.243.038z" fill="#121212"/><path d="M30.184 24.909a.643.643 0 01-.129.109c-.145.068-.3.128-.444.19-.089 0-.076-.045-.05-.1l.35-.2a.323.323 0 01.273 0z" fill="#494949"/><path fill="#a9a9a9" d="M22.28 19.829l-.007-.122.459-.697-.358.701-.094.118z"/><path d="M23.89 14.435c-.386-.256-.542-.256-.9 0a.334.334 0 01.4-.256c.182.021.434-.024.5.256z" fill="#131313"/><path d="M20.959 21.787c.028-.091.063-.181.085-.273.036-.156-.05-.117-.129-.076q-.023-.017-.017-.035t.014-.018l.22-.128a.866.866 0 01-.012.256 1.612 1.612 0 01-.161.274z" fill="#181818"/><path d="M30.324 21.988c-.082-.042-.165-.179-.25 0l-.1-.05.181-.223z" fill="#080808"/><path d="M29.87 21.381c.032.024.082.042.094.074a1.021 1.021 0 01.033.2.929.929 0 01-.185-.059c-.04-.022-.063-.072-.094-.11a.274.274 0 01.152-.105z" fill="#171717"/><path d="M30.373 24.409a2.4 2.4 0 00.041-.286c0-.022-.06-.046-.094-.069v-.2c.077-.1.148-.128.17.029a.484.484 0 01-.017.269z" fill="#353535"/><path d="M30.481 24.154a.929.929 0 00-.01-.241c-.009-.031-.093-.04-.143-.058l.129-.195a.594.594 0 01.068.187 1.991 1.991 0 01-.044.306z" fill="#101010"/><path fill="#ededed" d="M28.355 20.818l-.012.06-.239-.62.251.56z"/><path d="M22.881 28.234v.055l-.288.077.084.226c-.1.029-.111-.082-.178-.1l-.031-.1z" fill="#9e9b93"/><path d="M29.718 22.338l.152-.454.1.05c.017.198-.029.357-.252.404z" fill="#080808"/><path d="M26.681 14.473l.257.256.05.151-.257-.256c-.035-.064-.18-.031-.143-.16a.066.066 0 01.093.009z" fill="#c4c4c4"/><path d="M29.87 21.381l-.153.1-.113-.147.115-.056c.1-.033.106.059.152.1z" fill="#383838"/><path d="M21.975 20.377l-.153.5z" fill="#535353"/><path d="M21.614 21.48l-.248.456z" fill="#7f7f7f"/><path d="M26.784 17.449l.194-.2-.008.186-.19.11a.061.061 0 010-.095z" fill="#a6791c"/><path fill="#ddd" d="M28.852 21.946l-.045-.206.157.396-.112-.19z"/><path fill="#171717" d="M29.87 21.381l-.152-.1-.148-.205.3.305z"/><path fill="#2f2f2f" d="M29.562 25.109l.051.098-.089.2-.119-.106.157-.192z"/><path d="M31.18 26.419l.257-.3a.043.043 0 01.062 0c.033.067-.008.113-.048.158-.068.047-.1.128-.179.168a.138.138 0 01-.071 0z" fill="#b47c00"/><path fill="#131313" d="M20.908 21.381v.052l-.203.302.203-.354zm3.144-6.968l.197-.092-.013.178-.184-.086z"/><path d="M22.92 18.6l.013-.195c.066-.074 0-.176.051-.256a.05.05 0 01.066 0 .2.2 0 01.032.067.5.5 0 010 .186.271.271 0 01-.023.072c-.045.044-.021.175-.139.126z" fill="#adadad"/><path fill="#6d6d6d" d="M31.39 25.153l-.058.139-.091-.021-.008-.044.157-.074z"/><path d="M31.491 26.12h-.049l.193-.313.012.009a.061.061 0 01-.01.095c-.037.082-.043.179-.146.209z" fill="#12100a"/><path d="M26.468 16.235l.311.094.014.05-.023.027c-.148.026-.27.008-.302-.171z" fill="#d19c00"/><path d="M30.834 26.727l-.108-.006.257-.155a.078.078 0 01.017.064c-.037.064-.077.123-.166.097z" fill="#9b5e00"/><path fill="#464646" d="M30.184 24.909h-.272l.204-.158.056.059.012.099z"/><path d="M22.92 18.6l.118-.146a.115.115 0 010 .152l-.145.105z" fill="#d1d1d1"/><path d="M30.983 26.623v-.058l.2-.146h.017c-.014.138-.071.217-.217.204z" fill="#a16800"/><path fill="#121212" d="M26.525 13.982l.193.147-.19-.056-.003-.091z"/><path d="M28.715 21.482l-.112-.2z" fill="#cecece"/><path d="M30.233 24.449l-.1.209z" fill="#464646"/><path fill="#908d88" d="M22.99 18.154l-.059.256v-.087l.059-.169z"/><path d="M21.033 30.27c-.335-.092-.667-.195-1.005-.274-.463-.109-.927-.222-1.4-.29a2.809 2.809 0 01-1.213-.359.423.423 0 01-.175-.548 1.342 1.342 0 00-.036-1.174c-.113-.249-.053-.361.221-.4a4.683 4.683 0 01.842-.038c.386.014.555-.223.663-.537.076-.222.12-.455.212-.669a.757.757 0 01.6-.513.425.425 0 01.441.227c.181.281.354.566.53.85.345.554.7 1.1 1.029 1.666a2.336 2.336 0 01.324 1.5.822.822 0 01-.663.5h-.354z" fill="#fecf00"/><path d="M16.691 29.956c.27.015.542.046.812.045a7.271 7.271 0 012.7.464 3.23 3.23 0 001.545.181 1.3 1.3 0 001.029-1.234 4.016 4.016 0 00-.045-.472c.144 0 .165.111.2.211a2.192 2.192 0 00.049.279c.006.185-.048.365-.04.55a.178.178 0 01-.032.12c-.333.384-.651.8-1.23.829a3.562 3.562 0 01-1.455-.245 7.691 7.691 0 00-2.158-.475c-.378-.029-.755-.027-1.134-.04a.353.353 0 01-.166-.036c-.051-.045-.098-.096-.075-.177z" fill="#ebb600"/><path d="M16.555 29.348a1.073 1.073 0 00-.122 1.025c.026.079.048.16.071.24-.358-.513-.367-.88.153-1.513l-.008.151c-.037.024.006.126-.094.097z" fill="#ebeaea"/><path d="M17.26 26.773l.054-.054a6.371 6.371 0 00.82-.053c.129-.023.23-.16.345-.245l.2-.256a.6.6 0 01-.623.6c-.263.012-.529.009-.796.008z" fill="#f4bf00"/><path d="M16.691 29.956l.067.144a.77.77 0 01.1.111c.042.111.152.213.055.346a.9.9 0 01-.257-.606.088.088 0 00.039.005z" fill="#e1e0df"/><path fill="#bb8002" d="M16.816 28.644l-.059-.858h.058l.001.858z"/><path fill="#ebe3c2" d="M16.557 29.347l.099-.101v.658l-.147-.154.048-.403z"/><path d="M22.882 29.145l-.148-.2v-.223l.188.227c.048.04.039.1.045.15a.128.128 0 01-.024.06.044.044 0 01-.061-.014z" fill="#cd9400"/><path d="M16.713 28.847l.09-.056-.129.2-.021-.05c-.027-.059-.034-.106.06-.094z" fill="#d79f00"/><path fill="#4a412f" d="M22.502 28.488l.177.103.031.102-.208-.205z"/><path d="M28.655 27.682a1.6 1.6 0 01.03 1c-.035.336-.071.688-.084 1.033-.012.306.418.673.779.747a3.208 3.208 0 001.515-.24c.1-.026.193-.046.29-.069a.063.063 0 01-.009.067 3.29 3.29 0 01-.359.181.4.4 0 01-.076.023 3.831 3.831 0 00-.447.17 1.687 1.687 0 01-1.279 0 1.1 1.1 0 01-.607-1.14c.03-.232.071-.463.078-.7a.475.475 0 01.031-.165.407.407 0 01.04-.074 2.474 2.474 0 00.027-.56c.008-.093-.012-.195.071-.273z" fill="#eeba00"/><path d="M31.244 26.427l.194-.156q.024.015.017.033t-.014.018l-.154.256a1.277 1.277 0 01-1.257.723 1.124 1.124 0 01-.942-.7.591.591 0 01.072-.482.046.046 0 01.067.006.8.8 0 00.58.8 1.082 1.082 0 001.112-.182 3.356 3.356 0 00.326-.318z" fill="#d19800"/><path d="M29.161 26.12c-.275.665.595 1.281 1.274 1.085a1.789 1.789 0 00.853-.63 1.19 1.19 0 01-1.046.806 1.119 1.119 0 01-1.158-.622.5.5 0 01.077-.639z" fill="#e4ae00"/><path d="M31.244 26.427a1.094 1.094 0 01-.961.614c-.405 0-.764-.053-.964-.442a1.915 1.915 0 01-.107-.475.327.327 0 01.053-.2.2.2 0 01.012-.049.383.383 0 01.033.117.844.844 0 001 .932 2.355 2.355 0 00.525-.192l.151-.1.212-.2a.2.2 0 01.048 0z" fill="#b67a00"/><path d="M29.215 25.92c-.333.145-.426.128-.643-.114a.65.65 0 01-.075-.141.886.886 0 01.162-.046c.084-.008.169 0 .257 0 .221-.015.337.07.3.3zm3.024.352l-.5-.1c.071-.12.045-.366.3-.342.271.027.216.254.2.442z" fill="#fed10c"/><path d="M28.305 26.066l.248 1.264a.156.156 0 01.008.158.088.088 0 01-.08 0c-.162-.195-.1-.447-.179-.665a2.515 2.515 0 00-.055-.374c-.009-.133-.052-.269.058-.383z" fill="#e1aa00"/><path d="M28.554 27.482v-.152l.1.352-.052.907c-.106-.128-.057-.281-.07-.423v-.128a1.513 1.513 0 00-.023-.4.181.181 0 01.043-.151z" fill="#e7b100"/><path d="M31.186 30.2v-.05l.557-.256a.044.044 0 01.063 0 .128.128 0 01.013.07c-.042.1-.142.128-.228.168-.129.017-.241.1-.377.087z" fill="#e2ac00"/><path d="M28.321 26.066v.4h-.047a.136.136 0 01-.062-.062 1.271 1.271 0 01.021-.455c.018-.064-.041-.142.047-.193z" fill="#bb830a"/><path d="M31.441 26.321v-.05l.051-.151.148-.206z" fill="#fbcc01"/><path d="M31.789 29.9h-.051l.051-.1.257-.051.01.033a.224.224 0 01-.268.117z" fill="#f6c200"/><path fill="#fbcc01" d="M31.637 25.916l.01-.095.148-.141-.158.236z"/><path fill="#e0e0df" d="M28.275 25.767l-.038.213-.03-.007.095-.355-.027.149z"/><path fill="#e4ae00" d="M29.28 25.92l-.06.2h-.059l.06-.2h.059z"/><path d="M31.136 27.229a3.362 3.362 0 01.619-.293.824.824 0 01.817.3 10.234 10.234 0 001.06.86.5.5 0 01.058.728 5.684 5.684 0 01-.78.432 6.941 6.941 0 01-1.917.449 1.14 1.14 0 00-.386.119 1.506 1.506 0 01-.932.122.509.509 0 01-.461-.545 3.574 3.574 0 01.1-.88c.1-.406.351-.539.713-.36.682.341.9-.076 1.053-.582a2.628 2.628 0 00.054-.345z" fill="#fed10c"/><path d="M33.262 30.757v-.151a3.285 3.285 0 00.147-.469.957.957 0 00-.2-.741c-.032-.094.059-.105.1-.15l.1-.051a1.98 1.98 0 00.089.469 1.04 1.04 0 01-.044.792 1.3 1.3 0 01-.2.3z" fill="#f1f1f0"/><path d="M33.312 29.248l-.1.15c-.162.046-.093.136-.05.231a.894.894 0 01-.152.98 1.627 1.627 0 000-1.169q-.019-.019-.01-.033t.018-.013z" fill="#eaeaea"/><path d="M32.046 29.749l.61-.256c-.013.159-.19.146-.257.245a.281.281 0 01-.06.041.332.332 0 01-.109.024.219.219 0 01-.178-.056z" fill="#f6c200"/><path d="M32.359 29.724l.3-.226.152-.044a.083.083 0 01.026.062.257.257 0 01-.156.173.615.615 0 01-.064.026c-.087.017-.169.096-.258.009z" fill="#c28e1a"/><path d="M32.809 29.517v-.054l.206-.07-.008.051-.046.019c-.042.051-.081.111-.152.054z" fill="#bc871c"/><path d="M27.085 31.717h-.05a6.1 6.1 0 01-1.295-.543.549.549 0 00-.291-.063c-.228 0-.457.018-.682 0a1.978 1.978 0 00-1.36.329c-.193.05-.373.14-.569.179-.076.015-.161.077-.221-.029-.012-.085.048-.128.107-.161a.75.75 0 01.276-.086 2.538 2.538 0 00.708-.317.813.813 0 01.425-.128c.529-.027 1.054.047 1.582.055.239 0 .4.2.611.278s.386.147.586.217a.5.5 0 01.075.022.9.9 0 00.355.091.62.62 0 01.109.019c.071.023.144.033.216.051a1 1 0 00.3.024.892.892 0 01.2.021 3.9 3.9 0 001.19 0 1.034 1.034 0 01.241-.022.826.826 0 00.257-.023c.072-.018.147-.028.217-.053a.473.473 0 01.075-.017 3.452 3.452 0 00.975-.284 1.306 1.306 0 01.3-.108.216.216 0 01.148.026c.058.073-.008.1-.053.128a.7.7 0 00-.212.158.222.222 0 01-.1.041.913.913 0 00-.194.029l-.06.024q-.129.047-.248.1a2.77 2.77 0 01-.42.105 1.049 1.049 0 00-.386.076.323.323 0 01-.075.015 1.481 1.481 0 00-.347.027h-1.382c-.1-.019-.2-.036-.3-.051a.3.3 0 01-.073-.015c-.152 0-.293-.069-.445-.062a.516.516 0 01-.19-.053z" fill="#dadada"/><path d="M22.63 31.566c.116-.014.233-.021.346-.044.139-.028.275-.07.413-.108q.026.017.017.033t-.017.017a6.726 6.726 0 01-2.831.454H20.2c-.129-.069-.277.017-.405-.05a4.578 4.578 0 01-1.982-.551 6.145 6.145 0 01-.753-.559 1.423 1.423 0 00-.152-.2l-.1-.352c.094-.036.154.021.216.076a2.728 2.728 0 00.6.674 3.975 3.975 0 001.506.614 7.316 7.316 0 001.845.228 7.567 7.567 0 001.467-.217.243.243 0 01.189-.014z" fill="#dedede"/><path d="M23.389 31.465v-.05a1.849 1.849 0 011.059-.366 3.7 3.7 0 012.11.456 5.159 5.159 0 00.476.213 10.507 10.507 0 01-1.015-.346 1.558 1.558 0 00-.757-.213 6.437 6.437 0 01-.809 0 1.194 1.194 0 00-.829.232.75.75 0 01-.235.074zm6.886.252l.456-.1c.084-.035.184-.028.257-.1.053-.038.093-.024.122.031s-.028.091-.072.12c-.324.07-.643.151-.973.209a5.685 5.685 0 01-.6.044h-.2q-.024-.017-.017-.033t.017-.017h.257c.111-.065.243.018.354-.05.124-.048.268-.057.399-.104z" fill="#dedede"/><path d="M29.263 31.868v.058H28.3q-.024-.019-.017-.038t.017-.019z" fill="#dcdbd9"/><path d="M27.085 31.717h.2c.041.062.129-.007.163.081l-.012.034zm1.215.155v.058l-.456-.058a.179.179 0 01.2 0z" fill="#dedede"/><path d="M28.048 31.876h-.3a.036.036 0 01-.013-.038q.006-.019.013-.019z" fill="#dcdbd9"/><path d="M27.744 31.821v.058l-.3-.058a.361.361 0 01.3 0z" fill="#dedede"/><path d="M16.709 28.334v.306c-.054.055-.1.115-.162.167l-.071.07q-.1.092-.187.193a.7.7 0 01-.048.053 1.232 1.232 0 00-.17 1.435c.04.077.117.147.081.256v.151a1.3 1.3 0 01-.257-1.692 6.133 6.133 0 01.7-.7.915.915 0 00.113-.237z" fill="#f7f7f7"/><path d="M16.453 28.843l.05-.05c.064-.028.115-.118.2-.05l.006.105-.06.1a1.126 1.126 0 00-.506.748 1.393 1.393 0 00.257 1.114l-.152-.05c-.172-.028-.2-.185-.248-.3a1.255 1.255 0 01.184-1.3c.024-.033.041-.073.064-.106a.582.582 0 00.2-.2z" fill="#f1f1f1"/><path d="M17.567 31.465l.405.2zm-.4-.2l.3.151z" fill="#eaeaea"/><path d="M16.5 30.607l.152.2z" fill="#ebeaea"/><path d="M18.174 31.717l.2.117z" fill="#eaeaea"/><path d="M16.909 31.061l.2.151z" fill="#ebeaea"/><path d="M18.377 31.817l.257.058z" fill="#eaeaea"/><path d="M16.6 31.013l-.152-.151zm.2.2l-.152-.151z" fill="#f1f1f1"/><path d="M32.351 31.263l.257-.2zm.506-.455l.152-.2zm-1.011.721l.257-.117zm.809-.516l.152-.151zm-.557.416l.2-.117z" fill="#eaeaea"/><path d="M19.794 31.868l.405.058z" fill="#dfdfdf"/><path d="M16.909 30.557l.152.2z" fill="#e1e0df"/><path d="M31.035 31.666l.05-.1a.265.265 0 01.1-.1h.1a7.2 7.2 0 01.724-.443 1.279 1.279 0 00.643-1.371l.153-.145.151-.049a.462.462 0 00-.009.17 1.252 1.252 0 01-.481 1.369 2.222 2.222 0 01-.421.268c-.145.047-.257.15-.405.2-.12.046-.237.1-.354.151l-.152.05z" fill="#e2e2e2"/><path d="M31.642 31.465l.405-.2zm-.354.151l.354-.151z" fill="#e4e4e4"/><path d="M24.352 31.632a.808.808 0 01.861 0zm1.163.085l.3.151zm-9.265-2.673a4.426 4.426 0 00-.272.657 1.092 1.092 0 00.272 1.057v.1l-.1-.05a1.268 1.268 0 01-.293-.947 1.1 1.1 0 01.393-.817zm.457-.303l-.203.051.202-.152.001.101z" fill="#f4f4f4"/><path d="M23.553 29.442a5.079 5.079 0 003.539-.641 5.16 5.16 0 00.56-.455c.045-.056.129-.087.122-.176a.136.136 0 01.059-.076c.129-.044.156-.233.322-.224a.144.144 0 01.068.083.214.214 0 010 .076 4.936 4.936 0 01-.057.532 2.132 2.132 0 01-.072.44 2.507 2.507 0 00-.129.819v.725c0 .082.017.172-.091.208a8.182 8.182 0 01-.844-.128 1.277 1.277 0 01-.257-.022 3.317 3.317 0 00-1.009 0 4.152 4.152 0 01-.588.017 8.236 8.236 0 00-1.473.117.8.8 0 01-.2.081c-.109.015-.22.078-.324-.017a2.328 2.328 0 00.1-.883.85.85 0 00-.069-.365.214.214 0 010-.128c.115-.136.227.014.343.017z"/><path d="M28.3 21.078l.2.4c.008.188-.044.229-.2.138s-.29-.256-.445-.365c-.088-.064-.171-.128-.265-.19a1.23 1.23 0 00-.515-.181 1.363 1.363 0 01-.367-.094c-.071-.029-.148-.064-.129-.159s.081-.1.149-.117a7.29 7.29 0 01.723-.108c.265-.029.368.205.546.319l.1.1a1.848 1.848 0 00.151.2z" fill="#9a9a9a"/><path d="M23.235 29.45l.006.087a2.175 2.175 0 01.062.9.484.484 0 01-.185.349c-.16.137-.318.276-.472.418a1.341 1.341 0 01-1.395.238c-.179-.05-.35-.128-.531-.163-.138-.054-.3-.062-.386-.211a.075.075 0 01.027-.072.3.3 0 01.288.022 2.813 2.813 0 001.225.236.857.857 0 00.534-.187c.2-.155.376-.334.57-.493a.3.3 0 00.129-.211 1.93 1.93 0 00-.088-.985 1.351 1.351 0 01-.094-.159.054.054 0 01.008-.065V29.1c.106-.024.138.077.2.118v.018c.034.069.098.128.102.214z" fill="#a56902"/><path d="M27.085 18.2a.59.59 0 00-.772-.042c-.386.272-.755.578-1.143.856a4.25 4.25 0 01-.722.446c-.3.128-.515.014-.659-.3a.1.1 0 01.1 0 .776.776 0 001.072-.195 14.053 14.053 0 011.45-1.067c.257-.026.54-.1.692.222a.086.086 0 01-.014.082z" fill="#ececec"/><path d="M23.585 23.6a.19.19 0 01.006-.049c.026-.037.042-.079.067-.118.154-.068.115.044.113.122 0 .436-.075.866-.058 1.3a4.669 4.669 0 00.048.7c.012.059.037.145-.053.172s-.109-.054-.142-.11a3.293 3.293 0 01-.054-1.181 2.318 2.318 0 00.033-.442c.048-.128-.004-.267.04-.394z" fill="#a2a2a2"/><path d="M28.152 27.869l-.309.265c-.058-.086 0-.154.035-.224a1.247 1.247 0 00.067-.73.925.925 0 01.149-.736.366.366 0 00.08-.178c.009-.081-.019-.167.022-.245a.255.255 0 00.01-.047.037.037 0 01.026 0l.012.49.008.038a2.125 2.125 0 01.015.281v.742a.408.408 0 01-.115.345z" fill="#a09e9b"/><path d="M28 20.726a.206.206 0 01-.04.019c-.363-.465-.825-.2-1.253-.165-.032 0-.062.045-.093.069.03.026.057.064.09.073.153.04.313.059.462.108s.319.128.479.2a.129.129 0 01-.129.037.311.311 0 01-.064-.021.613.613 0 00-.257-.064c-.229-.054-.458-.108-.683-.179a.578.578 0 01-.075-.023c-.18-.142-.178-.229.024-.3a3.923 3.923 0 01.712-.142.582.582 0 01.08-.01.873.873 0 01.363 0 .386.386 0 01.129.094z" fill="#b4b4b4"/><path d="M28.192 26.272a2.341 2.341 0 00-.156 1.3c.014.111-.091.24-.142.359-.018-.329-.09-.654-.118-.982a.641.641 0 01.319-.583l.055-.1q.02-.028.042.006z" fill="#ccc"/><path d="M26.479 20.775l.757.154c.081.044.172.058.257.1a1.692 1.692 0 01.87.7.037.037 0 01-.06 0 4.2 4.2 0 00-1.822-.907.031.031 0 01-.013-.036q.005-.011.011-.011z" fill="#d3d3d3"/><path d="M26.479 20.775v.053l-.489-.193a1.952 1.952 0 01.421-.219 10.019 10.019 0 011.006-.185c.143-.021.291.01.328.195l-.1-.045a.6.6 0 00-.4 0h-.055a3.617 3.617 0 00-.7.128c-.076.028-.189.032-.2.128-.013.118.117.115.192.156z" fill="#d7d7d7"/><path d="M23.594 25.616l.1.078c.017-.032.048-.064.048-.1 0-.679 0-1.357.006-2.036 0-.076.017-.176-.1-.062a.114.114 0 01-.018-.118c.028-.062.031-.167.135-.145s.051.109.057.169a.245.245 0 01-.018.146l-.006 2.266c-.111.155-.154.049-.2-.05a.118.118 0 01-.004-.148z" fill="#aaa"/><path d="M25.01 19.011c-.472.425-.789.55-1.215.151l-.407-.6a.074.074 0 01.06-.014.352.352 0 01.138.136 1.176 1.176 0 00.193.211 1.627 1.627 0 01.175.2.435.435 0 00.515.118.451.451 0 00.257-.128.353.353 0 01.18-.105.117.117 0 01.1.036z" fill="#e1e1e1"/><path d="M28.1 26.37a.985.985 0 00-.22.991 4.294 4.294 0 01.018.573l-.051.2-.05.053q-.031.042-.053 0c.2-.374.042-.747-.013-1.116a.6.6 0 01.369-.7z" fill="#e0e0df"/><path d="M24 20.475h.692a3.643 3.643 0 01-.431.3.3.3 0 01-.225-.04 1 1 0 01-.188-.161c-.033-.023-.076-.062-.044-.094a.155.155 0 01.2-.008z" fill="#c9c9c9"/><path d="M23.6 25.616v.151a7.013 7.013 0 01-.148-1.043 8.633 8.633 0 01.135-1.126V24c-.064.128.016.278-.047.409z" fill="#ddd"/><path d="M23.44 18.558h-.051c-.143-.169-.257-.138-.354.047v-.152a.4.4 0 010-.047c.042-.076.022-.229.174-.179a.285.285 0 01.232.332zm.36 4.994l-.027-.279-.062-.007-.068.233-.052.05.098-.479.111.011v.471z" fill="#d7d7d7"/><path fill="#ddd" d="M23.593 25.767l.201.05-.065.233-.136-.283zm4.707-4.032h.054a.07.07 0 01.064-.01.538.538 0 00.287.114c.039.169-.1.073-.154.1z"/><path fill="#14100b" d="M23.235 29.45l-.097-.223.414.215-.317.008z"/><path fill="#57524a" d="M23.14 29.209l-.205-.118-.015-.147.22.265z"/><path d="M24 20.476c-.05.038-.2-.1-.152.115l-.129-.125z" fill="#eee"/><path d="M28.251 21.026l-.151-.2z" fill="#d7d7d7"/><path d="M27.085 18.2v-.051q.024-.036.05 0l.1.2z" fill="#e8e8e8"/><path fill="#e0e0df" d="M28.198 26.272h-.047l.053-.256-.006.256z"/><path fill="#a09e9b" d="M27.743 28.182h.055l-.148.16.093-.16z"/><path d="M26.468 16.235l.3.17a.61.61 0 010 .932c-.033.036-.059.078-.089.117-.03.213-.219.208-.363.265a3.356 3.356 0 00-.772.359 3.137 3.137 0 01-1.045.246.774.774 0 01-.643-.276c-.05-.053-.139-.094-.108-.179s.129-.056.2-.063a2.156 2.156 0 00.978-.063q.1-.046.206-.087a1.268 1.268 0 00.324-.118.632.632 0 00.185-.082c.078-.064.2-.033.269-.128a.714.714 0 01.148-.109.515.515 0 00-.175.128 1.237 1.237 0 00-.3.128.449.449 0 01-.129.047 2.2 2.2 0 01-.386.142c-.054.027-.112.045-.165.072l-.073.021a1.337 1.337 0 01-.309.051 2.7 2.7 0 01-.452 0 1.354 1.354 0 00-.2-.018 1.753 1.753 0 01-.22-.058c-.147-.081-.287-.174-.438-.25a.385.385 0 01-.136-.17.656.656 0 01.142-.733c.129-.165.3-.291.423-.456a.217.217 0 01.288-.072.187.187 0 00.165-.088c0-.064-.121-.1-.049-.181a2.033 2.033 0 011.482.152.554.554 0 00.142.042.893.893 0 01.58.165z" fill="#fecc00"/><path d="M26.255 16.149l-.58-.165-.117-.136c0-.149-.017-.3-.009-.446.026-.474.333-.661.789-.484a1.853 1.853 0 00.151.151.706.706 0 01-.234 1.08z" fill="#020201"/><path d="M26.681 14.473h-.14a2.25 2.25 0 00-.741-.018c-.129.054-.257.054-.386.11l-.149.055.25-.256a1.222 1.222 0 011.013-.047z" fill="#b1b1b1"/><path d="M25.414 14.572l.355-.15a1.708 1.708 0 01.809.051l.151.152a2.888 2.888 0 00-1.315-.054z" fill="#dadada"/><path d="M26.487 15.068l-.151-.151z" fill="#757575"/><path d="M23.387 16.149a.962.962 0 01-.371-.885c.021-.176.076-.351.292-.384a.394.394 0 01.48.269 3.237 3.237 0 01.069.641.514.514 0 01-.47.359z" fill="#030303"/><path d="M23.948 16.137a.188.188 0 00-.283.051c-.136.173-.3.325-.44.5a.54.54 0 00-.091.62.129.129 0 01-.148.013.525.525 0 01.071-.688 3.294 3.294 0 01.435-.451 5.552 5.552 0 00.418-.391l.138-.05v.054a.874.874 0 01.118.1.313.313 0 01.037.1c-.135-.042-.203.026-.255.142z" fill="#e7b100"/><path d="M23.543 16.188c-.129.137-.257.276-.386.41a.591.591 0 00-.163.7.036.036 0 01-.055 0 .574.574 0 01.089-.72 2.553 2.553 0 00.167-.236l.185-.16a.159.159 0 01.163.01z" fill="#b97f00"/><path d="M23.543 16.188h-.167a.043.043 0 01.013-.031l.471-.365h.05z" fill="#b37c00"/><path d="M24.911 18.559l.3-.142a.094.094 0 01.14-.018c.044.083-.019.128-.071.164a5 5 0 01-.643.446.743.743 0 01-1.072-.474c.058-.087.112-.022.16.009s.115.115.2.128c.358.195.668.005.986-.113z" fill="#afafae"/><path d="M24.911 18.559a1 1 0 01-1.011.2c-.165-.217-.394-.373-.556-.591-.049-.065-.121-.114-.129-.2a.092.092 0 01.028-.064c.194.186.4.363.582.557a.586.586 0 00.7.172 2.1 2.1 0 01.386-.074z" fill="#8e8e8e"/><path d="M25.366 18.414h-.153l-.586.094a1.139 1.139 0 01-1.148-.546.069.069 0 01.046-.042.169.169 0 01.067 0 .278.278 0 01.059.036 1.708 1.708 0 00.251.19c.257.27.582.167.887.186a.625.625 0 00.257-.027.593.593 0 01.221-.054c.072.01.129.036.121.128z" fill="#a7710b"/><path d="M23.238 17.9v.05c-.045.046-.129.038-.148.12a.15.15 0 01-.055.078h-.049a.907.907 0 010-.128c.009-.07.024-.14.037-.209z" fill="#9a9a9a"/><path d="M23.23 17.754h.058c.14-.006.2.064.2.2l-.013.015z" fill="#a7710b"/><path d="M26.883 12.658a8.942 8.942 0 00-.371.137c-.275.109-.328.068-.287-.237a.054.054 0 01.064 0c.154.176.3.032.422-.035.082-.044-.01-.109-.049-.159-.093-.12-.257-.032-.36-.128.015-.1.049-.174.174-.128l.458.3c.149.115.056.183-.051.25z" fill="#414141"/><path d="M26.477 12.1l-.151.152a.184.184 0 01-.05.3h-.051a2.138 2.138 0 01.063-.384c.012-.034.123-.042.189-.068z" fill="#393939"/><path fill="#343434" d="M26.883 12.658l.053-.256.129.171-.182.085z"/><path d="M26.326 17.651l.358-.2h.1v.095l-.093.111c-.021.128-.138.109-.216.136a2.892 2.892 0 00-.386.2.506.506 0 01-.219.065.166.166 0 01-.106-.04c.122-.228.363-.26.562-.367z" fill="#bd8607"/><path d="M27.135 18.154h-.05c-.165-.315-.462-.172-.708-.2a.1.1 0 01-.151-.008.5.5 0 01.809 0z" fill="#d0d0d0"/><path d="M27.036 17.952a.592.592 0 00-.812 0l-.026.024a.129.129 0 01-.1 0l-.024-.026.616-.295c.167.031.318.094.346.297z" fill="#c9c4bb"/><path d="M24.862 15.277h.05c-.057.176-.219.178-.4 0a.387.387 0 01.351 0z" fill="#535353"/><path d="M24.862 15.291h-.353c.116-.156.233-.124.353 0z" fill="#414141"/><path d="M26.527 14.326a1.755 1.755 0 00-1.013.047 1 1 0 011.013-.047z" fill="#8d8d8d"/><path d="M28.4 21.735h-.048l-.863-.7h.152c.214.169.423.343.643.5.076.055.206.205.221-.053l.1.152c.035.053.048.114 0 .154-.085.055-.14-.025-.205-.053z" fill="#bababa"/><path d="M28.4 21.735c.086 0 .221.1.2-.1l.1.2c-.145.115-.222.01-.3-.1z" fill="#cecece"/><path d="M23.492 17.95l-.2-.2-.356-.449h.055l.143.009.106.144c.054.065.147.092.176.181.026.114.148.158.19.256a.078.078 0 01-.01.064z" fill="#b17701"/><path d="M23.589 18.508a.709.709 0 001.148.359c.219-.136.42-.3.629-.452V18.4c.109-.09.185-.241.368-.2a.148.148 0 01-.022.173 4.735 4.735 0 01-.817.609.9.9 0 00-.17.1.652.652 0 01-.824.024l-.154-.2a.579.579 0 00-.2-.2l-.1-.15a1.5 1.5 0 00-.1-.173c-.109-.142-.217-.187-.3.022v-.2c.035-.082.063-.17.184-.137a1.07 1.07 0 01.365.437z" fill="#c5c5c5"/><path d="M23.238 18.105l-.2.1v-.154c.099-.115.167-.101.2.054z" fill="#afafae"/><path d="M21.365 30.052h-.05a.943.943 0 01-.557 0c-.239-.069-.479-.141-.719-.205-.265-.07-.533-.128-.8-.2-.077-.055-.179.014-.257-.05-.076-.062-.178.009-.257-.05h-.05c-.093-.065-.21.013-.3-.05l-.257-.05-.355-.151c-.081-.019-.185-.014-.238-.063s-.142-.187-.117-.249a1.24 1.24 0 00-.091-1.3c-.14-.187-.057-.3.193-.3a2.852 2.852 0 001.213-.141.589.589 0 00.363-.442 2.873 2.873 0 01.217-.76.946.946 0 01.447-.361.33.33 0 01.43.2c.163.319.317.641.5.953.2.343.438.668.654 1 .116.181.221.369.331.555a.8.8 0 01.118.524 4.315 4.315 0 00.064.593c.048.347-.035.473-.394.52a.161.161 0 00-.082.027z" fill="#fed10c"/><path d="M21.365 30.052c.643-.256.525-.2.386-.852a7.4 7.4 0 01-.084-.811c.22.128.171.361.2.557.032.229.032.464.053.7.024.259-.169.405-.555.406zm-.609 0h.557c-.185.118-.371.179-.556 0zM17.77 29.3l.355.151zm.607.2l.3.058zm.607.105l.257.058zm-.254-.055l.257.058z" fill="#fecf00"/><path d="M16.895 30.107a8.605 8.605 0 013.543.587 2.571 2.571 0 001.387.147 2.191 2.191 0 00.664-.372c.413-.247.414-.666.444-1.073a.055.055 0 01.076.017.717.717 0 01.027.423 1.371 1.371 0 00-.042.329c-.068.246-.3.349-.454.52a1.469 1.469 0 01-1.489.351c-.515-.091-.986-.332-1.489-.465a10.772 10.772 0 00-2.306-.35c-.078 0-.157 0-.237.006a.106.106 0 01-.124-.12z" fill="#d29a00"/><path d="M16.895 30.107l.1.1.037.006a.077.077 0 01.031.1.089.089 0 01-.1-.009l-.152-.1-.051-.104z" fill="#d7d6d5"/><path d="M23 29.4h-.06l-.058-.256h.056a.171.171 0 010 .046c.04.067.098.128.062.21z" fill="#d09800"/><path d="M28.6 28.037v.1c-.069.146.015.308-.05.454v.151a2.635 2.635 0 00-.057 1.281.853.853 0 00.595.6 1.577 1.577 0 001.226-.068c.149-.076.314-.118.463-.2h.05a.141.141 0 01.152-.009c-.054.222-.274.228-.425.325a1.908 1.908 0 01-1.373.272 1.121 1.121 0 01-.955-1.091 2.915 2.915 0 01.073-.8 4.632 4.632 0 00.129-1.267.361.361 0 01.067-.309h.05v.151c.075.134-.011.282.055.41z" fill="#d9a100"/><path d="M30.781 30.356a1.8 1.8 0 01-1.951.213.844.844 0 01-.421-.7 2.254 2.254 0 01.143-1.124c-.021.224-.028.45-.066.67a1.026 1.026 0 00.461 1.079 1.577 1.577 0 001.34.036c.159-.073.329-.118.494-.174zm.2 0h-.152l.354-.151c.024.114-.066.136-.139.17a.071.071 0 01-.063-.019z" fill="#e2ac00"/><path d="M28.554 28.59l.058-.454v.454z" fill="#e1aa00"/><path d="M28.5 27.482a7.772 7.772 0 01-.183 1.913 1.381 1.381 0 00.266 1.183 1.614 1.614 0 001.557.223c.14-.073.29-.128.435-.195.023.1-.045.156-.116.2a1.746 1.746 0 01-1.664.151 1.043 1.043 0 01-.616-.991 4.961 4.961 0 01.118-1.246 2.3 2.3 0 00.031-.4 6.849 6.849 0 00-.028-.975.971.971 0 01-.022-.223c.006-.1-.019-.214.069-.3z" fill="#c88f00"/><path d="M28.367 26.826v.3a.07.07 0 01-.051.005.06.06 0 01-.038-.03 1.066 1.066 0 01.028-.629z" fill="#bb830a"/><path d="M28.611 28.037l-.058-.4z" fill="#e1aa00"/><path d="M31.588 30.1l.207-.147a.041.041 0 01.062 0 .147.147 0 01-.027.167 1.53 1.53 0 01-.225.214.268.268 0 01-.167.046.161.161 0 01-.112-.081c.014-.166.174-.13.262-.199z" fill="#b2790b"/><path d="M31.588 30.1l-.257.2a.158.158 0 01-.157.105.169.169 0 01-.147-.054l.153-.15z" fill="#cf9600"/><path d="M31.845 29.952H31.8V29.9l.257-.15h.2c.024.1-.066.106-.121.142-.076.023-.147.058-.221.082a.071.071 0 01-.064-.023z" fill="#d19900"/><path d="M28.3 26.476v.652a4.645 4.645 0 01-.063 1.784c-.053.245-.071.495-.129.737a1.554 1.554 0 00-.036.474.413.413 0 01-.063.287c-.1.01-.08-.063-.081-.115v-.473a4.824 4.824 0 01.121-.832l.072-.454c.1-.173.024-.372.084-.551.041-.414.024-.829.028-1.243a.743.743 0 01.022-.273z" fill="#a46700"/><path d="M32.359 29.724l.246-.065a1.354 1.354 0 01-.257.929c-.153.021-.22.229-.4.182a.145.145 0 01-.048-.07c0-.236.228-.37.272-.592a2.556 2.556 0 01.086-.256.7.7 0 01.093-.12z" fill="#d6d5d5"/><path d="M32.355 29.732l-.054.115a.135.135 0 01-.2.064.045.045 0 010-.068l.149-.1z" fill="#be8b1d"/><path d="M32.3 30.557c.067-.169.142-.334.2-.513.044-.128.069-.256.1-.391l.05-.01c.032.156.129.329.086.464a1.316 1.316 0 01-.515.836c-.309.187-.627.345-.941.513l.3-.256c-.014-.118.1-.138.154-.208a.514.514 0 01.055-.041 3.977 3.977 0 00.5-.393z" fill="#dcdbd9"/><path d="M26.984 31.515h-.05c-.367-.183-.743-.345-1.111-.528a2.526 2.526 0 00-.87-.077 2.251 2.251 0 00-.228 0 1.871 1.871 0 00-1.337.3.564.564 0 01-.306.109.173.173 0 01-.157-.054c0-.095.086-.117.149-.151a1.053 1.053 0 00.2-.105 1.64 1.64 0 011.279-.318c.377.022.754 0 1.132.035a1.845 1.845 0 01.682.293 5.3 5.3 0 001.56.483 8.3 8.3 0 001.181.046c.215.045.427-.1.643-.009.066.059.022.1-.024.141a.363.363 0 01-.129.013 3.272 3.272 0 00-.555.049 3.8 3.8 0 01-.564 0 3.528 3.528 0 00-.508-.049 1.262 1.262 0 01-.167 0c-.116-.047-.244-.027-.36-.069h-.1c-.12-.053-.244-.067-.36-.109z" fill="#d0d0d0"/><path d="M23.086 31.263c.238-.117.474-.236.713-.347a.516.516 0 01.208-.054c.544 0 1.09 0 1.634.009a.786.786 0 01.277.108q.486.223.969.454c.023.012.031.055.046.083l-1.047-.457a.41.41 0 00-.145-.045c-.561-.019-1.125-.068-1.684-.037a2.369 2.369 0 00-.7.3c-.129.053-.251.092-.376.138-.035-.1.057-.107.105-.152zm8.86-.555v.049c.028.128-.078.182-.152.256a1.788 1.788 0 01-.354.2l-1.316.4c.078-.231.31-.172.471-.246a.622.622 0 00.264-.095.525.525 0 01.129-.062 1.755 1.755 0 00.592-.319c.112-.077.209-.191.366-.183zm-9.315.857l-.152.05a3.968 3.968 0 01-1.029.128c-.03-.105-.03-.105.147-.17a.438.438 0 01.078-.018 1.947 1.947 0 00.717-.12.4.4 0 01.076-.024.288.288 0 01.269.05zm5.823.156h.607a.365.365 0 01.3 0 2.221 2.221 0 01-1.215 0 .365.365 0 01.3 0z" fill="#d5d5d5"/><path d="M22.732 31.465h-.309a.074.074 0 01.05-.079.412.412 0 01.1-.024 1.836 1.836 0 00.3-.113.066.066 0 01.059.022h.152l-.1.151z" fill="#d4d4d3"/><path d="M30.631 31.415l-.507.2h-.05c-.068.033-.129.049-.172-.04 0-.067.044-.1.1-.118a1.446 1.446 0 01.62-.113.045.045 0 01.012.069z" fill="#d0d0d0"/><path fill="#d8d8d8" d="M31.44 31.212l.349-.198-.202.201-.147-.003z"/><path d="M29.364 31.725h-.3l.557-.058q.024.019.017.038t-.017.019z" fill="#d5d5d5"/><path d="M30.275 31.717l-.405.117zm-2.531.115h-.304l-.151-.116.455.116z" fill="#dcdbd9"/><path d="M28.453 31.725h-.507q-.024-.019-.017-.038t.017-.019zm1.467-.16l.152.051-.2.05a.129.129 0 01-.152 0l.051-.1a.1.1 0 01.151 0zm-2.937-.05l.354.117z" fill="#d5d5d5"/><path d="M29.87 31.817l-.354.058z" fill="#dcdbd9"/><path d="M27.44 31.616l.355.058a.116.116 0 01-.152 0z" fill="#d5d5d5"/><path fill="#d5d5d5" d="M27.643 31.666h.303v.057l-.303-.057z"/><path d="M30.984 31.515l-.257.117z" fill="#dcdbd9"/><path fill="#d5d5d5" d="M29.718 31.666h.152l-.257.057v-.057h.105z"/><path fill="#dcdbd9" d="M31.186 31.465l-.101.116-.102-.057.203-.059z"/><path d="M21.415 31.717l1.063-.1c-.306.067-.61.154-.92.2a7.025 7.025 0 01-3.2-.406 2.353 2.353 0 01-1.395-1.1l.118-.006a.2.2 0 01.19.09 2.262 2.262 0 001.315.911 4.654 4.654 0 001.589.323c.35 0 .705.017 1.058.027a.249.249 0 01.182.061z" fill="#d9d9d9"/><path d="M16.453 28.843l-.2.2z" fill="#f4f4f4"/><path d="M29.92 31.565h-.15l-.659.046a3.113 3.113 0 00-.643-.045 4.576 4.576 0 01-2.445-.757c-.167-.117-.386-.054-.586-.081a.621.621 0 01-.268-.053.079.079 0 010-.113l.589-.017a2.7 2.7 0 01.477-.017.365.365 0 01.2.1 2.48 2.48 0 001.28.552 5.193 5.193 0 01.667.141 3.036 3.036 0 001.39.1.353.353 0 01.244.008.05.05 0 01.014.073z" fill="#c6c6c6"/><path d="M25.161 30.657a5.685 5.685 0 01.589.055 1.334 1.334 0 01.456.161 3.871 3.871 0 001.673.591c.413.046.824.1 1.237.15a5.2 5.2 0 01-1.771-.163c-.457-.144-.879-.392-1.328-.568a1.937 1.937 0 00-.628-.12c-.488-.017-.977-.008-1.466 0a.516.516 0 00-.239.06c-.257.141-.5.293-.746.442h-.05a1.133 1.133 0 00-.3.151h-.109a1.067 1.067 0 01.6-.5.9.9 0 00.425-.145l.149-.06a8.256 8.256 0 011.331-.092.24.24 0 01.187.042z" fill="#d0cfce"/><path d="M30.019 31.458a3.384 3.384 0 01-1.485 0 .859.859 0 01-.193-.094c-.063-.059-.154-.076-.211-.142a.59.59 0 01-.071-.11c-.042-.136-.162-.233-.188-.377 0-.219.008-.438.013-.657 0-.091.01-.183.017-.274.013-.024.027-.027.044 0l.051.607c.135.179.129.423.3.6a1.171 1.171 0 00.714.332 2.012 2.012 0 001.228-.179.3.3 0 01.211-.068c.1.156-.064.179-.129.256a.685.685 0 01-.3.11z" fill="#9e6107"/><path d="M23.074 30.955l-.6.456-.048.047a1.981 1.981 0 01-1.377.015 1.385 1.385 0 01-.341-.19.055.055 0 010-.07c.274.068.552.128.824.206a1.172 1.172 0 001.2-.384 1.9 1.9 0 00.3-.264 1.346 1.346 0 00.25-.519 3.587 3.587 0 00-.035-.72 1.441 1.441 0 01-.055 1.293c.055.135-.077.092-.118.13z" fill="#a06208"/><path d="M28.1 31.111l.063.1a2.268 2.268 0 01-1.167-.3 3.626 3.626 0 00-.719-.342l-.524-.013h1.027a3.2 3.2 0 01.515.24c.221.11.467.128.691.222a.8.8 0 01.114.093z" fill="#b7b7b7"/><path d="M28 31.061a2.481 2.481 0 01-1.213-.513l.257.014a7.334 7.334 0 00.739.237c.112.039.257.075.217.262z" fill="#b8b7b6"/><path d="M28 31.061a1.81 1.81 0 00-.275-.2c-.224-.108-.457-.2-.686-.295l.836.169.228.377z" fill="#adadad"/><path d="M25.161 30.667l-1.521.048c.257-.037.515-.082.772-.106s.5-.028.755-.041z" fill="#c1c1c1"/><path d="M28.261 26.726v1.051a.848.848 0 01-.058.209l-.052-.117.081-1.146z" fill="#a26804"/><path fill="#6b3f00" d="M27.947 29.799h-.046l.148-.814-.102.814z"/><path d="M28.211 27.984l-.1.551z" fill="#a26804"/><path fill="#bebbb7" d="M23.074 30.954l.112-.128.304-.07-.416.198z"/><path d="M17 30.21l.215-.056c.515.056 1.029.128 1.544.206a10.891 10.891 0 011.9.552 3.289 3.289 0 001.009.181.979.979 0 00.733-.274.437.437 0 01.076-.065 1.18 1.18 0 00.54-1.339.128.128 0 01.021-.118 1.324 1.324 0 01.091 1.18c-.063.208-.34.352-.524.52-.609.556-1.264.3-1.916.105-.111-.033-.223-.062-.335-.092a.249.249 0 01-.216-.028 13.883 13.883 0 00-2.37-.559 4.278 4.278 0 00-.445-.079 1.072 1.072 0 01-.318-.128z" fill="#b47800"/><path d="M23.038 29.3c.017.106.031.214.051.32.194.965-1.062 1.817-1.965 1.478a11.665 11.665 0 00-1.246-.395c-.589-.15-1.186-.269-1.782-.393-.292-.06-.587-.1-.881-.152a9.807 9.807 0 013.3.665 3.1 3.1 0 001.333.192.286.286 0 00.132-.015 2.606 2.606 0 00.961-.846c.066-.092-.013-.209.05-.3V29.4l-.048-.206z" fill="#cd9400"/><path d="M17.312 30.3c.4.068.808.114 1.2.209.616.149 1.225.331 1.838.5v.05a.155.155 0 01-.1.054.4.4 0 01-.257-.069.626.626 0 00-.368-.128.775.775 0 01-.257-.073 1.178 1.178 0 00-.6-.128 2.741 2.741 0 01-.633-.128.581.581 0 00-.369-.082 1.049 1.049 0 01-.45-.145.055.055 0 01-.004-.06z" fill="#a36501"/><path d="M20.239 31.067l.113-.006.355.151v.042c-.049.059-.112.033-.171.027a.387.387 0 01-.2-.068c-.048-.041-.101-.071-.097-.146z" fill="#a56a0b"/><path d="M24.908 18.96l.759-.6a1.427 1.427 0 01.557-.4h.153l-1.18.9c-.064.05-.129.105-.188.158h-.1q-.026-.017-.018-.033t.017-.025z" fill="#d9d9d9"/><path d="M23.544 24.405L23.6 24z" fill="#aaa"/><path d="M28.251 26.726h-.028l.028-.256z" fill="#bb830a"/><path d="M26.479 20.775a.444.444 0 01-.144-.026.867.867 0 01-.142-.128c.048-.037.091-.1.144-.109.283-.055.567-.1.852-.145l-.669.147c-.227.057-.212.148-.041.261zm.758-.4z" fill="#d3d3d3"/><path d="M27.491 21.044l-.257-.117z" fill="#bababa"/><path d="M24.908 18.96v.051l-.152.1c-.078.06-.178.086-.257.151a.474.474 0 01-.607-.151c.38.209.69-.03 1.016-.151z" fill="#d3d3d3"/><path d="M24.5 19.263l.257-.151z" fill="#d9d9d9"/><path d="M23.543 18.712l.2.2z" fill="#d1d1d1"/><path d="M23.593 17.952V17.9c-.03-.053-.094-.1-.037-.169a.141.141 0 01.089-.033l.206.042c.009.073.084.013.109.054a.042.042 0 01-.012.053l-.166.015c.349.513.835.425 1.307.295a6.926 6.926 0 00.82-.351c.136-.058.278-.105.417-.158l-.557.352a.552.552 0 01-.353.256.955.955 0 00-.444.115c-.053.026-.118-.008-.166.037-.152 0-.3-.009-.454 0a.515.515 0 01-.515-.256c-.089-.06-.157-.146-.248-.2z" fill="#cd9500"/><path d="M25.064 17.288c.217-.232.427-.472.659-.688.048-.045.176 0 .268 0-.033.068-.05.159-.1.2-.257.186-.528.358-.793.534z" fill="#fed10b"/><path d="M23.947 17.849V17.8c.021-.04.072-.018.1-.047h.515a.272.272 0 00.293-.053h.054c.022.017.053.023.057.058a1.421 1.421 0 01-1.019.091z" fill="#be8a00"/><path d="M24.415 16.7c.037-.151.068-.3.117-.451.013-.04.08-.063.129-.092.012.051.049.113.032.151-.062.141-.14.276-.212.411z" fill="#fed10a"/><path d="M24.774 15.962a.488.488 0 01.036-.063l.337.078a.87.87 0 01-.042.1c-.105-.035-.218-.077-.331-.115z" fill="#9f6000"/><path d="M25.877 17.349v-.024c.107-.086.215-.172.324-.256l.053.042-.338.232q-.016.033-.039.006z" fill="#a16d00"/><path d="M23.644 17.7l-.05.049c-.073-.022-.17 0-.2-.1l-.152-.2z" fill="#ac7200"/><path d="M25.468 17.558l-.31.135c-.028-.029-.081 0-.1-.046l.412-.142q.04.025-.002.053z" fill="#946100"/><path fill="#ab6e00" d="M23.948 16.137l.008-.173.249.025-.257.148z"/><path d="M26.513 16.809a.5.5 0 01.048.1 1.415 1.415 0 01-.174.128.3.3 0 01-.051-.062c.048-.05.105-.098.177-.166z" fill="#9d6a00"/><path d="M25.877 17.349a.2.2 0 01.04 0l-.257.15c-.031-.026-.082 0-.1-.05z" fill="#ad7a00"/><path fill="#865100" d="M25.055 17.647l.104.053-.194.074-.057-.067.147-.06z"/><path d="M24.854 17.7l-.293.06z" fill="#8c5900"/><path fill="#8d5900" d="M25.562 17.445l.103.058-.197.074v-.062l.094-.07z"/><path fill="#9d6600" d="M24.043 17.759l-.098.055-.095-.071.193.016z"/><path d="M26.325 15.412a6.102 6.102 0 01-.234-.346s.094-.074.1-.068a1.866 1.866 0 01.238.256c.012.014-.053.082-.104.158z" fill="#757575"/><path d="M26.578 14.491l-.809-.059a.911.911 0 01.809.059z" fill="#c4c4c4"/><path d="M23.619 15.626a3.851 3.851 0 01-.21-.359c-.022-.047.009-.119.015-.179.067.021.178.024.192.063a3.359 3.359 0 01.1.45z" fill="#878787"/><path d="M23.238 18.105l-.2-.053c0-.163.111-.115.2-.1.176.2.354.4.528.6a1.955 1.955 0 01.129.2l-.31-.256z" fill="#adadad"/><path d="M25.415 18.2l.354-.2.129.012a.128.128 0 010 .1c-.044.055-.084.119-.172.095l-.358.188-.1-.1c-.02-.123.117-.026.147-.095z" fill="#ac780e"/><path d="M25.415 18.2l-.152.1-.2.053a.071.071 0 01-.1 0z" fill="#bd8607"/><path d="M23.593 17.952l.248.2zm1.366.403h.101l-.258.055.157-.055z" fill="#ac780e"/><path d="M26.277 12.561l.05-.3a.827.827 0 01.3.009c.081.035.129.14.194.213-.075.055-.142.138-.225.16-.104.023-.285.22-.319-.082z" fill="#666"/><path d="M25.856 18.1l.039-.085.176-.063.014.009a.165.165 0 01-.229.138z" fill="#c3bbad"/><path fill="#d0d0d0" d="M25.856 18.098l.229-.139.141-.007-.558.403.052-.144.136-.113z"/><path fill="#c58c00" d="M23.39 17.649l.204.099v.154l-.204-.253z"/><path d="M22.991 29.851l-.058.3z" fill="#d09800"/><path d="M17.312 30.3v.042a.081.081 0 01-.05.074.044.044 0 01-.045-.035l-.14-.087-.077-.083z" fill="#b9841a"/><path d="M31.035 30.355h.152a.057.057 0 010 .074 6.683 6.683 0 01-.881.583 1.771 1.771 0 01-1.764-.027.542.542 0 01-.3-.384.524.524 0 00-.1-.243.585.585 0 01-.062-.308v-.281a.664.664 0 01.019-.118 1.29 1.29 0 00.044-.276 6.71 6.71 0 01.179-1.025.053.053 0 01.075-.013c-.037.3-.093.61-.107.916a5.615 5.615 0 00.017 1.016.811.811 0 00.609.665 1.627 1.627 0 001.659-.329l.405-.256z" fill="#c48a00"/><path d="M28.352 28.338L28.2 29.4c-.062.076.009.176-.05.256v.1a.383.383 0 000 .3l.051.3a.7.7 0 00.1.2c.028.267.23.384.441.464a1.874 1.874 0 001.49-.02 6.437 6.437 0 00.709-.47 2.054 2.054 0 01.246-.119c-.008.227-.243.241-.353.372a2.189 2.189 0 01-1.789.565 1.03 1.03 0 01-1.013-1.019 2.162 2.162 0 01.017-.674c.066-.375.154-.748.19-1.126.044-.463.044-.93.063-1.4h.049v.2a4.387 4.387 0 010 1.006z" fill="#b17400"/><path d="M28.352 28.338v-1.009l.058 1.009z" fill="#bb830a"/><path d="M30.282 31.325l.215-.2a.084.084 0 01.051-.036.622.622 0 00.192-.115 3.112 3.112 0 00.851-.675l.2-.2a.049.049 0 01.069.009.309.309 0 01-.053.349 2.2 2.2 0 01-1.091.809c-.093.037-.189.064-.282.1-.049.024-.134.068-.152-.041z" fill="#c9c9c8"/><path d="M31.589 30.3a1.532 1.532 0 01-.857.716l-.017-.028a.267.267 0 01.04-.158.188.188 0 01.077-.063 1.585 1.585 0 00.368-.3.274.274 0 01.237-.115z" fill="#c3c1bf"/><path d="M31.439 30.348l-.606.465a.074.074 0 010-.106l.354-.3v-.05l.151-.051z" fill="#a86b04"/><path d="M31.845 30.116l-.051-.013.05-.146h.049a.092.092 0 01.108 0c.014.104-.044.159-.156.159z" fill="#b27d1c"/><path d="M32.013 29.975l-.118-.01.2-.114v.059a.051.051 0 01.014.043q0 .024-.009.024a.068.068 0 01-.087-.002z" fill="#bf880f"/><path d="M30.833 30.708v.106l-.046.045a.424.424 0 00-.129.169 1.135 1.135 0 01-.111.113l-.048-.021c-.1.041-.2.082-.293.128a2.05 2.05 0 01-1.616.042.9.9 0 01-.59-.881l.05-.756c.017.282.017.568.055.847a.934.934 0 00.869.769 3.084 3.084 0 00.912-.029 6.225 6.225 0 00.947-.532z" fill="#a86a00"/><path d="M32.094 29.933a.063.063 0 010-.031l.21-.042-.275.687c-.023.058-.053.111-.08.168l-.963.555a.072.072 0 01-.012-.069c.075-.137.228-.167.344-.243a1.381 1.381 0 00.618-.736.657.657 0 01.158-.289z" fill="#d1d1d1"/><path fill="#d8d8d8" d="M31.789 31.014l.152-.257.353-.201-.505.458z"/><path d="M30.631 31.415v-.05a.136.136 0 01.112-.094.145.145 0 01.142.044z" fill="#d1d1d1"/><path d="M30.888 31.329h-.152a.18.18 0 01.1-.135.151.151 0 01.156.021v.056z" fill="#d0d0d0"/><path d="M21.668 31.616h-.045a6.268 6.268 0 01-2.54-.142 1.032 1.032 0 00-.291-.1.8.8 0 01-.242-.079.433.433 0 01-.1-.037 1.765 1.765 0 00-.421-.2.3.3 0 01-.083-.058.436.436 0 00-.211-.158.35.35 0 01-.2-.256.12.12 0 01.05-.1.355.355 0 01.315.128 3.647 3.647 0 001.858.782 3.747 3.747 0 00.728.069 4.243 4.243 0 011.066.081c.048.003.122-.03.116.07z" fill="#d0cfce"/><path d="M18.534 31.263l.257.05c.08.046.172.059.257.1.42.067.836.161 1.259.195s.883.008 1.324.008l-.2.1c-.6-.017-1.213 0-1.812-.064a5.761 5.761 0 01-1.075-.338q-.026-.017-.018-.033c-.009-.011-.003-.018.008-.018z" fill="#d4d4d3"/><path d="M21.668 31.616l-.978-.087c-.078-.006-.158-.009-.237-.014a.083.083 0 01-.015-.082c.121-.128.272-.079.416-.065a1.506 1.506 0 01.169.042 4.555 4.555 0 00.687.128 4.954 4.954 0 00.715-.074z" fill="#cac9c9"/><path d="M22.579 31.415l.3-.151z" fill="#d0d0d0"/><path d="M30.984 31.212l-.257.1-.1.05-.607.151v-.056l.257-.128a3.118 3.118 0 00.474-.128 2.2 2.2 0 001.038-.82.8.8 0 00.053-.256l.167-.154.081-.024a1.793 1.793 0 01-1.106 1.265z" fill="#cecdcd"/><path d="M18.534 31.263v.05a1.848 1.848 0 01-1.311-.928.041.041 0 01.026.013.244.244 0 01.21.031c.075.036.06.128.113.178l.2.2c.071.047.129.106.2.151l.05.05a2.189 2.189 0 00.456.2z" fill="#d7d6d5"/><path d="M26.275 30.562a.963.963 0 01.571.179c.422.191.875.315 1.315.468l.18.155a3.955 3.955 0 01-1.794-.548 3.2 3.2 0 01-.273-.254z" fill="#bfbfbf"/><path d="M21.022 31.409h-.165c-.1-.076-.241.037-.327-.079a.1.1 0 01.023-.11l.152.031z" fill="#c3c0bd"/><path d="M17.465 30.459l-.217-.06.069-.053.443.117c.081.045.188-.01.257.065A2.027 2.027 0 0019 31.1a3.928 3.928 0 001.1.256.558.558 0 01.355.106v.05a4.741 4.741 0 01-2.177-.531 3.642 3.642 0 01-.459-.343 2 2 0 00-.257-.128.135.135 0 01-.097-.051z" fill="#cdcdcd"/><path d="M20.239 31.067l.1.1a.152.152 0 01-.138.046 3.207 3.207 0 01-1-.256c-.09-.044-.216-.067-.22-.208.147-.065.274.015.407.054l.239.062a2.36 2.36 0 01.369.128zm-2.121-.522l.643.119q.041.031 0 .065a.509.509 0 01-.281.045c-.145-.026-.308-.018-.386-.188z" fill="#bab9b7"/><path d="M18.772 30.712a.082.082 0 000-.047l.622.148-.4-.05c-.094.055-.177.083-.222-.051z" fill="#a56a0f"/><path d="M20 31.018l-.369-.148z" fill="#a56a0b"/><path d="M17.976 30.556l-.219-.093.363.095a.07.07 0 00.01.026.1.1 0 01-.083.025.105.105 0 01-.072-.053z" fill="#a56a0f"/><path d="M18.772 30.71l.212.047a3.016 3.016 0 001.356.406l.214.062v.09c-.19.137-.386.042-.586.021a3.181 3.181 0 01-1.331-.425c-.073-.046-.176-.078-.158-.2z" fill="#c1c0bf"/><path d="M26.513 12.274c.067.078.149.154.14.168a.536.536 0 01-.172.15c-.013.008-.1-.07-.1-.088a1.362 1.362 0 01.132-.23z" fill="#7d7d7d"/><path d="M28.148 30.052zm.167.5l-.115-.2zm-.165-.909l.058-.256z" fill="#bb830a"/><path d="M30.544 31.142l.086-.128a.07.07 0 01.088-.014l.015.018z" fill="#c3c1bf"/><path fill="#a86b04" d="M30.718 30.996l-.087.012.157-.15-.07.138z"/><path d="M18.478 31.212l-.458-.2zm-.506-.251l-.2-.151zm1.063.469l-.257-.117zm-1.57-.971l.116.048v.102l-.116-.15z" fill="#d2d2d1"/><path d="M18.478 30.708a2.778 2.778 0 001.407.551c.221.033.447.037.669.054l.3.1-.405.05a4.778 4.778 0 01-2.244-.669 1.305 1.305 0 01-.233-.256l.153.024z" fill="#c7c7c7"/><path d="M11.895 6.481l-.1.313" fill="#59b4d9"/></svg>