<svg xmlns="http://www.w3.org/2000/svg" viewBox="0 0 34 34"><path d="M25.042 3.11h0a16.009 16.009 0 015.847 5.848c1.443 2.466 2.164 5.145 2.164 8.034 0 2.89-.722 5.573-2.164 8.05-1.442 2.477-3.391 4.431-5.847 5.863-2.456 1.432-5.137 2.148-8.042 2.148-2.905 0-5.591-.716-8.058-2.148a15.853 15.853 0 01-5.847-5.847C1.663 22.59.947 19.905.947 17c0-2.905.716-5.586 2.148-8.042C4.527 6.502 6.481 4.553 8.958 3.11l.026.045-.026-.045h0l.002-.001.005-.004.022-.012.087-.05.347-.203 1.388-.808C12.057 1.306 14.123.947 17 .947c2.884 0 5.565.722 8.042 2.164zm4.515 19.943h-5.076c-.581 2.902-1.502 5.261-2.764 7.076a13.93 13.93 0 004.592-2.762 13.626 13.626 0 003.248-4.314zM14.51 29.592c.742.908 1.572 1.355 2.49 1.355.918 0 1.748-.447 2.49-1.355 1.307-1.605 2.252-3.783 2.836-6.54H11.674c.584 2.757 1.53 4.935 2.836 6.54zm-4.99-6.54H4.441a13.626 13.626 0 003.25 4.315 13.928 13.928 0 004.59 2.762c-1.262-1.805-2.182-4.165-2.763-7.076zm15.29-2.105h5.573c.376-1.244.564-2.56.564-3.947s-.188-2.703-.564-3.947H24.81A31.3 31.3 0 0125.053 17a31.3 31.3 0 01-.243 3.947zm-2.122-7.894H11.312a30.989 30.989 0 00-.26 3.947c0 1.285.087 2.6.26 3.947h11.376c.173-1.346.26-2.662.26-3.947 0-1.285-.087-2.6-.26-3.947zm-13.498 0H3.617A13.564 13.564 0 003.053 17c0 1.388.188 2.703.564 3.947H9.19A31.33 31.33 0 018.947 17a31.3 31.3 0 01.243-3.947zm15.29-2.106h5.077a13.624 13.624 0 00-3.248-4.314 13.927 13.927 0 00-4.593-2.762c1.263 1.824 2.184 4.184 2.765 7.076zm-20.038 0H9.52c.581-2.902 1.502-5.261 2.764-7.076a13.928 13.928 0 00-4.592 2.762 13.625 13.625 0 00-3.249 4.314zM19.49 4.408C18.748 3.5 17.918 3.053 17 3.053c-.918 0-1.748.447-2.49 1.355-1.307 1.605-2.252 3.783-2.836 6.54h10.652c-.584-2.757-1.53-4.935-2.836-6.54z" fill="#0078D7" stroke="#0078D7" stroke-width=".105"/></svg>