<svg xmlns="http://www.w3.org/2000/svg" viewBox="0 0 49 48"><path d="M38.442 16.53v1.154h6.31a3.785 3.785 0 003.79-3.79 3.785 3.785 0 00-3.79-3.789h-7.33a13.866 13.866 0 011.062 5.33c0 .371-.008.733-.042 1.095zm-27.766-1.128c.009-1.878.38-3.663 1.062-5.297H4.342a3.785 3.785 0 00-3.791 3.79 3.785 3.785 0 003.79 3.79h6.302v-2.283h.033zM24.584 1.533c4.768 0 8.972 2.4 11.474 6.046h8.702a3.785 3.785 0 003.79-3.79A3.785 3.785 0 0044.76 0H4.342A3.785 3.785 0 00.55 3.79a3.785 3.785 0 003.79 3.789h8.762a13.897 13.897 0 0111.481-6.046z" fill="#0078D4"/><path d="M44.752 27.79a3.785 3.785 0 003.79-3.79 3.785 3.785 0 00-3.79-3.79h-6.31v7.58h6.31zm-40.41-7.58A3.785 3.785 0 00.55 24a3.785 3.785 0 003.79 3.79h6.302v-7.58h-6.3z" fill="#50E6FF"/><path d="M44.752 37.895a3.785 3.785 0 003.79-3.79 3.785 3.785 0 00-3.79-3.79h-6.31v7.58h6.31zm-40.41-7.579a3.785 3.785 0 00-3.791 3.79 3.785 3.785 0 003.79 3.789h6.302v-7.58H4.342zm6.301 12.657V40.42H4.342a3.785 3.785 0 00-3.791 3.79A3.785 3.785 0 004.34 48h40.41a3.785 3.785 0 003.791-3.79 3.785 3.785 0 00-3.79-3.789h-6.31v2.552h-27.8z" fill="#0078D4"/><path d="M35.957 14.939c0-6.24-5.105-11.36-11.364-11.36-5.602 0-10.303 4.118-11.195 9.499h4.65a6.826 6.826 0 011.743-2.939 6.759 6.759 0 014.802-1.996c1.803 0 3.513.716 4.802 1.996a6.754 6.754 0 011.996 4.8v2.745H13.23v22.78h22.71V19.132c.017-2.047.017-3.706.017-4.194z" fill="#0078D4"/><path d="M24.534 31.865a2.782 2.782 0 002.78-2.779 2.782 2.782 0 00-2.78-2.779 2.782 2.782 0 00-2.78 2.78 2.782 2.782 0 002.78 2.778z" fill="#50E6FF"/></svg>