<svg xmlns="http://www.w3.org/2000/svg" viewBox="0 0 215 184"><g fill="none"><path fill="#A5CE00" d="M60.377 66L58 63.634l14.642-14.566V28H76v22.446zM180 127h-66.714L94 107.4l2.363-2.4 18.31 18.598H180zm-5.51-64H147v-3.329h26.12L186.667 46 189 48.356z"/><path fill="#A5CE00" d="M110.186 106.308l2.122-2.122 20.506 20.506-2.122 2.122zM75.386 51L73 48.652l9.63-9.469V27H86v13.551zM52 133h-3.306v-20.9L26 89.347 28.34 87 52 110.732zm125.66-12l-36.374-36.445h-15.105L111 69.345 113.351 67l14.204 14.231h15.105L180 118.655zM15.296 87H12V56.211L21.194 47H49v3.306H22.549l-7.253 7.274z"/><path fill="#A5CE00" d="M61 136h-3.279v-10.762L49 116.356 51.313 114 61 123.855zm-2.649-93H55V25.674L72.636 8 75 10.371 58.351 27.066z"/><circle fill="#A5CE00" cx="137" cy="105" r="7"/><path d="M136.5 116c-5.798 0-10.498-4.699-10.5-10.496-.002-5.798 4.695-10.5 10.493-10.504 5.797-.004 10.5 4.691 10.507 10.489 0 5.8-4.7 10.505-10.5 10.511zm0-14.248a3.737 3.737 0 103.716 3.737 3.748 3.748 0 00-3.716-3.726v-.011z" fill="#303030"/><circle fill="#A5CE00" cx="97" cy="83" r="7"/><path d="M96.5 94A10.5 10.5 0 11107 83.533c-.024 5.784-4.716 10.461-10.5 10.467zm0-14.248a3.737 3.737 0 103.716 3.781 3.748 3.748 0 00-3.716-3.77v-.011z" fill="#303030"/><circle fill="#A5CE00" cx="34" cy="66" r="7"/><path d="M34.5 77C28.701 77 24 72.299 24 66.5S28.701 56 34.5 56 45 60.701 45 66.5c-.006 5.796-4.704 10.494-10.5 10.5zm0-14.248a3.737 3.737 0 103.737 3.737 3.748 3.748 0 00-3.737-3.737z" fill="#303030"/><circle fill="#A5CE00" cx="121" cy="48" r="7"/><path d="M121.5 58c-5.799 0-10.5-4.701-10.5-10.5S115.701 37 121.5 37 132 41.701 132 47.5c-.006 5.796-4.704 10.494-10.5 10.5zm0-14.248a3.737 3.737 0 103.737 3.737 3.748 3.748 0 00-3.737-3.737z" fill="#303030"/><circle fill="#A5CE00" cx="142" cy="22" r="7"/><path d="M142.5 33c-5.799 0-10.5-4.701-10.5-10.5S136.701 12 142.5 12 153 16.701 153 22.5c-.006 5.796-4.704 10.494-10.5 10.5zm0-14.248a3.737 3.737 0 103.737 3.737 3.748 3.748 0 00-3.737-3.737z" fill="#303030"/><circle fill="#A5CE00" cx="115" cy="10" r="7"/><path d="M114.5 21c-5.799 0-10.5-4.701-10.5-10.5S108.701 0 114.5 0 125 4.701 125 10.5c-.006 5.796-4.704 10.494-10.5 10.5zm0-14.248a3.737 3.737 0 103.737 3.737 3.748 3.748 0 00-3.737-3.726v-.011z" fill="#303030"/><circle fill="#A5CE00" cx="48" cy="10" r="7"/><path d="M47.5 21C41.701 21 37 16.299 37 10.5S41.701 0 47.5 0 58 4.701 58 10.5c-.006 5.796-4.704 10.494-10.5 10.5zm0-14.248a3.737 3.737 0 103.737 3.737A3.748 3.748 0 0047.5 6.763v-.011z" fill="#303030"/><circle fill="#A5CE00" cx="204" cy="65" r="7"/><path d="M204.5 76c-5.799 0-10.5-4.701-10.5-10.5S198.701 55 204.5 55 215 59.701 215 65.5c-.006 5.796-4.704 10.494-10.5 10.5zm0-14.248a3.737 3.737 0 103.737 3.737 3.748 3.748 0 00-3.737-3.737z" fill="#303030"/><circle fill="#A5CE00" cx="166" cy="82" r="7"/><path d="M166.5 93A10.5 10.5 0 11177 82.5c-.006 5.797-4.703 10.494-10.5 10.5zm0-14.248a3.737 3.737 0 103.738 3.737 3.748 3.748 0 00-3.738-3.737z" fill="#303030"/><circle fill="#A5CE00" cx="181" cy="174" r="7"/><path d="M180.5 184c-5.799 0-10.5-4.701-10.5-10.5s4.701-10.5 10.5-10.5 10.5 4.701 10.5 10.5c-.006 5.796-4.704 10.494-10.5 10.5zm0-14.248a3.737 3.737 0 103.737 3.737 3.737 3.737 0 00-3.737-3.726v-.011z" fill="#303030"/><circle fill="#A5CE00" cx="150" cy="166" r="7"/><path d="M150.5 177c-5.799 0-10.5-4.701-10.5-10.5s4.701-10.5 10.5-10.5 10.5 4.701 10.5 10.5c-.006 5.796-4.704 10.494-10.5 10.5zm0-14.248a3.737 3.737 0 103.737 3.737 3.737 3.737 0 00-3.737-3.726v-.011z" fill="#303030"/><circle fill="#A5CE00" cx="87" cy="137" r="7"/><path d="M87.5 148c-5.799 0-10.5-4.701-10.5-10.5S81.701 127 87.5 127 98 131.701 98 137.5c-.006 5.796-4.704 10.494-10.5 10.5zm0-14.248a3.737 3.737 0 103.737 3.737 3.748 3.748 0 00-3.737-3.726v-.011z" fill="#303030"/><circle fill="#A5CE00" cx="24" cy="108" r="7"/><path d="M24.489 118c-5.798-.006-10.493-4.71-10.489-10.507.004-5.798 4.706-10.495 10.504-10.493C30.3 97.002 35 101.702 35 107.5c-.006 5.8-4.71 10.5-10.511 10.5zm0-14.248a3.737 3.737 0 103.738 3.737 3.748 3.748 0 00-3.738-3.726v-.011z" fill="#303030"/><path fill="#303030" d="M133 108H63.441L47.037 91.677H0v-39.56L39.338 13l4.721 4.695L6.681 54.863v30.17h43.117l16.415 16.324H133zm20 52h-6.71v-19.285H96V134h57zm-73-19H51.61L25 113.783 29.678 109l24.667 25.231H80zm103.73 26H177v-50.208l23.27-23.031V71H207v25.525l-23.27 23.02z"/><path fill="#303030" d="M40.726 65L36 60.3 72.483 24h29.297L120 42.123l-4.726 4.7-16.258-16.171H75.258zm126.693 22.868l4.95-4.95 21.212 21.214-4.95 4.95zM199.33 62l-35.77-36.295H148V19h18.292L204 57.262z"/><path fill="#303030" d="M142.842 71H41v-6.694h99.084L173.284 31 178 35.73zm-69.509 31.218l18.385-18.385 4.95 4.95-18.386 18.384zM53 7h53v7H53z"/></g></svg>