<svg xmlns="http://www.w3.org/2000/svg" viewBox="0 0 126 102"><path d="M88.2 41.407l-.726 1.747-22.539-27.096L63 17.674l-1.936-1.616-22.538 27.096-.726-1.748-14.926 35.89 4.652 1.944L37.8 54.535 48.074 79.24l4.652-1.944-12.013-28.883L63 21.617l22.286 26.796-12.012 28.883 4.652 1.944 10.273-24.705L98.475 79.24l4.651-1.944L88.2 41.406z" fill="#1A1A1F"/><path d="M100.8 85.843c4.175 0 7.56-3.391 7.56-7.575 0-4.183-3.385-7.574-7.56-7.574-4.176 0-7.56 3.391-7.56 7.575 0 4.183 3.384 7.574 7.56 7.574zm-25.2 0c4.175 0 7.56-3.391 7.56-7.575 0-4.183-3.385-7.574-7.56-7.574-4.176 0-7.56 3.391-7.56 7.575 0 4.183 3.384 7.574 7.56 7.574zM62.999 30.297c6.959 0 12.6-5.651 12.6-12.623 0-6.972-5.641-12.624-12.6-12.624s-12.6 5.652-12.6 12.624 5.641 12.623 12.6 12.623zM37.8 58.07c5.567 0 10.08-4.521 10.08-10.099s-4.513-10.1-10.08-10.1-10.08 4.522-10.08 10.1c0 5.578 4.513 10.1 10.08 10.1zm50.4 0c5.566 0 10.08-4.521 10.08-10.099s-4.514-10.1-10.08-10.1c-5.567 0-10.08 4.522-10.08 10.1 0 5.578 4.513 10.1 10.08 10.1zM50.4 85.843c4.175 0 7.56-3.391 7.56-7.575 0-4.183-3.386-7.574-7.56-7.574-4.176 0-7.56 3.391-7.56 7.575 0 4.183 3.384 7.574 7.56 7.574zm-25.2 0c4.175 0 7.56-3.391 7.56-7.575 0-4.183-3.385-7.574-7.56-7.574s-7.56 3.391-7.56 7.575c0 4.183 3.385 7.574 7.56 7.574z" fill="#1A1A1F"/><path d="M23.94 102a4.659 4.659 0 01-1.764-.505L5.04 91.395a10.405 10.405 0 01-3.61-3.648A10.43 10.43 0 010 82.811V19.187a10.099 10.099 0 011.388-4.96 10.074 10.074 0 013.652-3.624L22.176.503a3.668 3.668 0 014.98 1.299 3.687 3.687 0 01-1.2 5.014L8.82 16.915a3.4 3.4 0 00-1.26 2.272v63.625a3.4 3.4 0 001.26 2.272l17.136 10.1a3.67 3.67 0 011.675 2.262 3.684 3.684 0 01-.415 2.787A4.311 4.311 0 0123.94 102zM102.06 0c.616.05 1.215.221 1.764.505l17.136 10.1a10.41 10.41 0 015.04 8.583v63.625a10.078 10.078 0 01-5.04 8.584l-17.136 10.099a3.663 3.663 0 01-2.755.371 3.685 3.685 0 01-1.025-6.683l17.136-10.099a3.4 3.4 0 001.26-2.272V19.188a3.4 3.4 0 00-1.26-2.272l-17.136-10.1A3.675 3.675 0 0198.3 3.12a3.68 3.68 0 01.484-1.352A4.762 4.762 0 01102.06 0z" fill="#1A1A1F"/></svg>