<svg xmlns="http://www.w3.org/2000/svg" viewBox="0 0 50 50"><path fill="#3E3E3E" d="M42.1 18.5v-2.2c0-4.4-1.6-8.5-4.4-11.4C35.1 1.9 29.3 0 25 0S14.9 1.9 12.3 4.9c-2.7 2.9-4.4 7-4.4 11.4v2.2l7.9.9v-2c0-2.6.9-5.9 2.4-7.6s4.7-2.5 6.8-2.6c2.1 0 5.3.9 6.8 2.6 1.5 1.7 2.4 3.9 2.4 6.4v3.2l7.9-.9z"/><path fill="#59B4D9" d="M7.9 18.5c-3.9 0-5.3 2.3-5.3 5.3v20.9c0 2.6 1.6 5.3 4.6 5.3h35.6c3.4 0 4.6-2.7 4.6-5.3V23.8c0-2.7-1.1-5.3-5.3-5.3H7.9z"/><path fill="#FFF" d="M21.371 26l11 7.316-11 7.315z"/><path opacity=".15" fill="#FFF" d="M34.1 18.5H7.9c-3.9 0-5.3 2.3-5.3 5.3v20.9c0 2.6 1.6 5.3 4.6 5.3h6.7l20.2-31.5z"/></svg>