<svg xmlns="http://www.w3.org/2000/svg" viewBox="0 0 48 49"><path d="M41.558 39.71a23.488 23.488 0 005.953-14.451h-4.825a18.521 18.521 0 01-4.556 11.023l3.428 3.428z" fill="#0078D4"/><path d="M6.535 8.232A23.467 23.467 0 00.488 22.775h5.036a18.566 18.566 0 014.547-10.998L6.535 8.232z" fill="#50E6FF"/><path d="M8.303 41.59a23.455 23.455 0 0014.535 5.97v-4.943a18.518 18.518 0 01-10.998-4.573l-3.537 3.545zM.488 25.259a23.45 23.45 0 006.03 14.543l3.545-3.545a18.6 18.6 0 01-4.53-10.998H.487z" fill="#0078D4"/><path d="M41.541 8.325l-3.427 3.428a18.456 18.456 0 014.564 11.023h4.826a23.428 23.428 0 00-5.963-14.45z" fill="#50E6FF"/><path d="M25.322 47.541a23.44 23.44 0 0014.459-6.038l-3.436-3.436a18.597 18.597 0 01-11.031 4.556l.008 4.918z" fill="#0078D4"/><path d="M25.322.501v4.927a18.553 18.553 0 0111.015 4.538l3.436-3.435A23.544 23.544 0 0025.323.5zM22.838.49A23.52 23.52 0 008.312 6.45l3.536 3.537A18.618 18.618 0 0122.83 5.424l.009-4.935z" fill="#50E6FF"/><path d="M27.74 12.646H12.656v10.097h2.341v2.585l2.729-2.585h10.012V12.646z" fill="#0078D4"/><path d="M25.28 25.267v7.62h5.06l2.57 2.468v-2.467h2.484v-7.621H25.28z" fill="#50E6FF"/></svg>