<svg xmlns="http://www.w3.org/2000/svg" viewBox="0 0 49 49"><path d="M24.393 47.144c12.479 0 22.595-10.137 22.595-22.642 0-12.504-10.116-22.64-22.595-22.64S1.8 11.997 1.8 24.501c0 12.505 10.116 22.642 22.594 22.642z" fill="#0078d4"/><path d="M33.7 8.121a18.739 18.739 0 00-9.307-2.458c-10.388 0-18.81 8.44-18.81 18.85a18.79 18.79 0 002.83 9.951l.229-.218a15.004 15.004 0 01-1.917-7.365c0-8.33 6.734-15.077 15.046-15.077 2.056 0 4.013.418 5.8 1.164zm6.832 6.688l-4.817 6.37a15.155 15.155 0 01.546 9.803l3.963 3.731a18.753 18.753 0 002.99-10.2c0-3.554-.984-6.878-2.682-9.704z" fill="#50e6ff"/><g fill="#fff"><path d="M38.317 11.823c.239-.806-.447-1.612-1.231-1.612-.12 0-.239.02-.358.06-.139.05-.288.12-.427.228l-5.482 4.32-6.644 5.235.03.278-.11.08 4.46 4.439 5.283-6.977 4.24-5.603c.12-.15.2-.299.24-.448z"/><path d="M24.393 29.35a4.842 4.842 0 004.837-4.848 4.842 4.842 0 00-4.837-4.846 4.842 4.842 0 00-4.836 4.846 4.842 4.842 0 004.836 4.847z"/></g></svg>