<svg xmlns="http://www.w3.org/2000/svg" viewBox="0 0 163.985 19.25"><path d="M18.018 18.954H15.96V7.098q0-1.4.173-3.438h-.05a10.947 10.947 0 01-.53 1.713L9.514 18.954h-1.01L2.477 5.472a10.592 10.592 0 01-.529-1.811h-.05q.1 1.059.1 3.463v11.83h-2V1.281h2.738l5.423 12.324a15.8 15.8 0 01.813 2.12h.074q.53-1.455.85-2.169L15.43 1.281h2.588zM22.793 3.13a1.282 1.282 0 01-.924-.37 1.246 1.246 0 01-.376-.936 1.3 1.3 0 011.3-1.319 1.3 1.3 0 01.942.376 1.253 1.253 0 01.389.942 1.247 1.247 0 01-.389.924 1.29 1.29 0 01-.942.383zm.986 15.824h-2.017V6.334h2.021zm12.067-.579a6.571 6.571 0 01-3.451.875 5.718 5.718 0 01-4.357-1.756 6.37 6.37 0 01-1.657-4.554 6.993 6.993 0 011.787-5.009 6.25 6.25 0 014.769-1.892 6.644 6.644 0 012.933.616v2.07a5.14 5.14 0 00-3.007-.986 4.068 4.068 0 00-3.17 1.386 5.268 5.268 0 00-1.238 3.642 5.013 5.013 0 001.164 3.5 4.018 4.018 0 003.125 1.282 5.069 5.069 0 003.106-1.1zm9.006-9.995a2.472 2.472 0 00-1.528-.407 2.581 2.581 0 00-2.163 1.22 5.648 5.648 0 00-.868 3.328v6.433h-2.022V6.334h2.022v2.6h.049a4.409 4.409 0 011.318-2.073 3.009 3.009 0 011.984-.745 3.306 3.306 0 011.208.173zm6.505 10.87a5.852 5.852 0 01-4.464-1.769 6.546 6.546 0 01-1.67-4.689 6.825 6.825 0 011.738-4.967 6.246 6.246 0 014.7-1.787 5.661 5.661 0 014.406 1.738 6.892 6.892 0 011.583 4.819 6.78 6.78 0 01-1.706 4.837 5.981 5.981 0 01-4.587 1.818zm.148-11.511a3.844 3.844 0 00-3.081 1.322 5.44 5.44 0 00-1.131 3.657 5.146 5.146 0 001.146 3.537 3.9 3.9 0 003.069 1.294 3.692 3.692 0 003.013-1.269 5.5 5.5 0 001.054-3.611 5.6 5.6 0 00-1.057-3.648 3.677 3.677 0 00-3.013-1.282zm7.971 10.759v-2.169a5.981 5.981 0 003.636 1.22q2.662 0 2.662-1.775a1.539 1.539 0 00-.228-.857 2.27 2.27 0 00-.616-.622 4.7 4.7 0 00-.912-.487q-.525-.214-1.125-.447a14.586 14.586 0 01-1.472-.671 4.461 4.461 0 01-1.06-.764 2.834 2.834 0 01-.641-.968 3.416 3.416 0 01-.216-1.269 3.019 3.019 0 01.407-1.572 3.6 3.6 0 011.082-1.148 5.054 5.054 0 011.546-.7 6.856 6.856 0 011.794-.234 7.234 7.234 0 012.933.567v2.049a5.718 5.718 0 00-3.2-.912 3.783 3.783 0 00-1.023.129 2.506 2.506 0 00-.782.364 1.684 1.684 0 00-.506.561 1.481 1.481 0 00-.178.72 1.736 1.736 0 00.178.826 1.819 1.819 0 00.524.592 3.989 3.989 0 00.838.468q.493.209 1.121.456a15.407 15.407 0 011.5.66 5.106 5.106 0 011.134.764 2.968 2.968 0 01.72.979 3.156 3.156 0 01.253 1.319 3.11 3.11 0 01-.412 1.627 3.556 3.556 0 01-1.1 1.146 5.038 5.038 0 01-1.59.678 7.853 7.853 0 01-1.886.222 7.156 7.156 0 01-3.381-.752zm16.117.752a5.852 5.852 0 01-4.467-1.769 6.546 6.546 0 01-1.67-4.689 6.825 6.825 0 011.737-4.967 6.246 6.246 0 014.7-1.787 5.661 5.661 0 014.4 1.738 6.892 6.892 0 011.583 4.819 6.78 6.78 0 01-1.706 4.837 5.981 5.981 0 01-4.577 1.818zm.148-11.511a3.844 3.844 0 00-3.081 1.322 5.44 5.44 0 00-1.134 3.654 5.146 5.146 0 001.146 3.537 3.9 3.9 0 003.069 1.294 3.692 3.692 0 003.013-1.269 5.5 5.5 0 001.054-3.611 5.6 5.6 0 00-1.055-3.645 3.677 3.677 0 00-3.013-1.282zm14.515-5.693a2.691 2.691 0 00-1.343-.333q-2.12 0-2.12 2.674v1.947h2.958v1.727h-2.958v10.893h-2.009V8.061h-2.156V6.334h2.157V4.289a4.25 4.25 0 011.146-3.136A3.867 3.867 0 0188.793 0a3.959 3.959 0 011.467.222z" fill="#00abec"/><path d="M97.098 18.831a3.9 3.9 0 01-1.886.394q-3.315 0-3.315-3.7V8.061h-2.168V6.334h2.164V3.253l2.021-.653v3.734h3.18v1.727h-3.18v7.11a2.949 2.949 0 00.431 1.812 1.722 1.722 0 001.43.542 2.124 2.124 0 001.319-.419zm22.802.123h-2.292L115.735 14h-7.493l-1.762 4.954h-2.3l6.773-17.673h2.14zm-4.843-6.815l-2.773-7.53a7.21 7.21 0 01-.271-1.183h-.049a6.587 6.587 0 01-.283 1.183l-2.748 7.53zm15.336-5.225l-7.468 10.315h7.394v1.725h-10.36v-.629l7.468-10.264h-6.766V6.334h9.732zm12.191 12.04h-2.021v-2h-.049a4.15 4.15 0 01-3.894 2.292q-4.511 0-4.511-5.373V6.334h2.009v7.227q0 3.993 3.056 3.993a3.093 3.093 0 002.434-1.09 4.175 4.175 0 00.956-2.853V6.334h2.021zM152.613 8.38a2.472 2.472 0 00-1.528-.407 2.581 2.581 0 00-2.163 1.22 5.648 5.648 0 00-.868 3.327v6.433h-2.021V6.334h2.021v2.6h.049a4.409 4.409 0 011.318-2.073 3.009 3.009 0 011.984-.745 3.306 3.306 0 011.208.173zm11.373 4.769h-8.91a4.72 4.72 0 001.134 3.254 3.909 3.909 0 002.982 1.146 6.2 6.2 0 003.919-1.4v1.9a7.327 7.327 0 01-4.4 1.208 5.331 5.331 0 01-4.2-1.72 7.032 7.032 0 01-1.528-4.837 6.9 6.9 0 011.67-4.8 5.354 5.354 0 014.14-1.861 4.743 4.743 0 013.833 1.6 6.682 6.682 0 011.356 4.449zm-2.07-1.713a4.109 4.109 0 00-.845-2.724 2.873 2.873 0 00-2.31-.974 3.267 3.267 0 00-2.429 1.023 4.644 4.644 0 00-1.232 2.674z" fill="#00abec"/></svg>