<svg xmlns="http://www.w3.org/2000/svg" viewBox="0 0 49 48"><path d="M8.571 8.742v30.343H38.83V8.742H8.57zm26.229 4.2v21.686H12.771V12.942H34.8z" fill="#fff"/><path d="M8.571 39.086V8.743H38.83v30.343H8.57zM26.057 0v4.457H21.6V0h-4.457v4.457H12.77V0H8.486v4.457H4.029v4.286H0v4.371h4.029v4.372H0v4.371h4.029v4.372H0V30.6h4.029v4.371H0v4.286h4.029v4.629H8.57V48h4.286v-4.114h4.372V48H21.6v-4.114h4.371V48h4.372v-4.114h4.371v4.028h4.372v-4.028h4.371v-4.629h4.457v-4.286h-4.457V30.6h4.629v-4.286h-4.543v-4.2H48v-4.543h-4.457v-4.457H48V9h-4.457V4.457H39.17V0h-4.114v4.371h-4.543V0h-4.457z" fill="#0078D4"/><path d="M34.8 12.944H12.77V34.63H34.8V12.944z" fill="#50E6FF"/></svg>