<svg xmlns="http://www.w3.org/2000/svg" viewBox="0 0 244.052 47.146"><path d="M46.756 3.194v43.2h-7.5V12.533h-.119l-13.41 33.861h-4.97L7.02 12.533h-.09v33.861H0v-43.2h10.755l12.412 32.024h.18l13.1-32.024zm6.273 3.284a3.969 3.969 0 011.308-3.028 4.42 4.42 0 013.118-1.22 4.359 4.359 0 013.193 1.25 4.065 4.065 0 011.266 3 3.909 3.909 0 01-1.3 2.982 4.474 4.474 0 01-3.164 1.205 4.387 4.387 0 01-3.148-1.22 3.944 3.944 0 01-1.274-2.969zm8.043 8.947v30.969h-7.29V15.425zm22.113 25.667a10.068 10.068 0 003.584-.753 15.074 15.074 0 003.615-1.988v6.778a14.6 14.6 0 01-3.962 1.506 21.584 21.584 0 01-4.865.512 14.733 14.733 0 01-15.394-15.364 17.661 17.661 0 014.369-12.307q4.368-4.835 12.381-4.835a16.926 16.926 0 014.142.527 13.835 13.835 0 013.328 1.22v6.989a14.909 14.909 0 00-3.446-1.912 9.957 9.957 0 00-3.6-.678 9.137 9.137 0 00-6.959 2.8 10.548 10.548 0 00-2.651 7.561 10.065 10.065 0 002.546 7.321 9.191 9.191 0 006.912 2.623zm27.952-26.179a9.239 9.239 0 011.567.12 6.544 6.544 0 011.175.3v7.38a6.363 6.363 0 00-1.672-.8 8.282 8.282 0 00-2.666-.376 5.659 5.659 0 00-4.534 2.259q-1.852 2.259-1.853 6.959v15.639h-7.287V15.425h7.291v4.878h.12a8.547 8.547 0 013.013-3.962 8.173 8.173 0 014.846-1.428zm3.136 16.448q0-7.682 4.338-12.171t12.05-4.489q7.26 0 11.343 4.323t4.085 11.679q0 7.532-4.338 11.99t-11.814 4.454q-7.2 0-11.432-4.232t-4.228-11.554zm7.592-.241q0 4.851 2.2 7.411a7.843 7.843 0 006.3 2.56 7.341 7.341 0 006.055-2.56q2.079-2.561 2.079-7.592 0-5-2.154-7.547a7.48 7.48 0 00-6.04-2.545 7.638 7.638 0 00-6.221 2.666q-2.216 2.666-2.215 7.607zm35.072-7.561a3.124 3.124 0 00.994 2.455 17.011 17.011 0 004.4 2.244 14.908 14.908 0 016.13 3.932 8.152 8.152 0 011.762 5.287 8.5 8.5 0 01-3.359 7.019q-3.359 2.652-9.083 2.651a21.86 21.86 0 01-4.263-.467 18.991 18.991 0 01-3.962-1.19v-7.17a17.961 17.961 0 004.278 2.2 12.533 12.533 0 004.157.814 7.407 7.407 0 003.646-.693 2.477 2.477 0 001.174-2.32 3.221 3.221 0 00-1.22-2.546 18.084 18.084 0 00-4.625-2.4 14.284 14.284 0 01-5.724-3.8 8.314 8.314 0 01-1.687-5.363 8.474 8.474 0 013.329-6.884 13.283 13.283 0 018.631-2.7 20.89 20.89 0 013.645.361 16.121 16.121 0 013.374.934v6.929a15.571 15.571 0 00-3.374-1.657 11.257 11.257 0 00-3.826-.693 5.577 5.577 0 00-3.239.813 2.579 2.579 0 00-1.158 2.244zm16.417 7.8q0-7.682 4.338-12.171t12.045-4.485q7.26 0 11.343 4.323t4.084 11.677q0 7.532-4.338 11.99t-11.81 4.458q-7.2 0-11.432-4.232t-4.233-11.558zm7.592-.241q0 4.851 2.2 7.411a7.843 7.843 0 006.3 2.56 7.341 7.341 0 006.055-2.56q2.079-2.561 2.079-7.592 0-5-2.154-7.547a7.48 7.48 0 00-6.04-2.545 7.638 7.638 0 00-6.221 2.666q-2.222 2.668-2.222 7.609zm48.407-9.731h-10.861v25h-7.38v-25h-5.182v-5.962h5.182v-4.308a10.716 10.716 0 013.178-8 11.146 11.146 0 018.147-3.114 18.088 18.088 0 012.35.136 9.322 9.322 0 011.808.406v6.3a7.546 7.546 0 00-1.266-.512 6.581 6.581 0 00-2.078-.3 4.4 4.4 0 00-3.525 1.431 6.316 6.316 0 00-1.235 4.232v3.736h10.858v-6.96l7.321-2.229v9.189h7.381v5.965h-7.381v14.49a6.108 6.108 0 001.039 4.037 4.148 4.148 0 003.269 1.175 4.873 4.873 0 001.522-.3 7.142 7.142 0 001.552-.723v6.017a8.575 8.575 0 01-2.3.723 15.726 15.726 0 01-3.178.331q-4.61 0-6.914-2.455t-2.3-7.4z" fill="#fff"/></svg>