<svg xmlns="http://www.w3.org/2000/svg" viewBox="0 0 18 18"><defs><linearGradient id="a" x1="10.21" y1="16.75" x2="10.21" y2="1.03" gradientUnits="userSpaceOnUse"><stop offset="0" stop-color="#0078d4"/><stop offset=".82" stop-color="#5ea0ef"/></linearGradient></defs><path d="M17.5 10.48a3.28 3.28 0 00-2.84-3.15 4.13 4.13 0 00-4.25-3.95 4.26 4.26 0 00-4.07 2.77A3.87 3.87 0 002.93 9.9 4 4 0 007 13.71h7a.47.47 0 00.17 0 3.31 3.31 0 003.33-3.23z" fill="url(#a)"/><path d="M.5 11.21A3.38 3.38 0 013.91 7.8a3.38 3.38 0 013.41 3.41v3.41H3.91A3.38 3.38 0 01.5 11.21z" fill="#50e6ff" fill-rule="evenodd"/><path d="M6 11.44v-.5l-.51-.17-.13-.35.25-.52v-.06l-.16-.16-.19-.2h-.07l-.5.25-.35-.09-.21-.56h-.5l-.17.51-.35.13-.58-.28-.36.36v.06l.25.5-.14.35-.6.22v.5h.07l.53.18.15.34-.28.58.36.36h.06l.5-.26.35.14.22.61h.5v-.07l.18-.54.34-.14.59.27.35-.35v-.07L5.38 12l.1-.35zm-2.11.46a.71.71 0 11.7-.71.7.7 0 01-.66.71z" fill="#fff"/></svg>