<svg xmlns="http://www.w3.org/2000/svg" viewBox="0 0 48 48"><path d="M47.015 10.559H28.089a.64.64 0 00-.64.64V47.2c0 .353.287.64.64.64h18.926a.64.64 0 00.64-.64V11.19a.65.65 0 00-.64-.632zM23.55 41.836h-4.936v1.684h4.935v-1.684zm-8.558 0h-4.178v1.684h4.178v-1.684zm-7.875 1.685H4.169v-2.947h1.684v1.263h1.264v1.684zM43.503 7.156h-1.685V5.893h-1.263V4.209h2.948v2.947zM5.853 20.678H4.17v2.669h1.684v-2.67zm0 12.799H4.17v4.176h1.684v-4.176zm0-7.52H4.17v4.176h1.684v-4.176zM37.21 4.209h-4.177v1.684h4.178V4.209zm-15.042 0h-4.177v1.684h4.177V4.209zm7.522 0h-4.178v1.684h4.177V4.209z" fill="#0078D4"/><path d="M35.324 45.76h4.456v-1.55h-4.456v1.55zm3.007-32.407a.709.709 0 01-.724.724.709.709 0 01-.725-.724c0-.413.312-.724.725-.724.412 0 .724.303.724.724zM28.898 42.24h17.3V16.149h-17.3v26.093zM16.542 6.424V5.111H14.73V2.88h-2.072V1.053h-1.322V2.88H9.425V1.053H8.103V2.88h-1.92V1.053H4.867V2.88H2.695v2.23H.876v1.313h1.82v1.92H.875v1.314h1.82v1.91H.875v1.314h1.82v2.004h2.172v1.928H6.19v-1.928h1.92v1.928h1.322v-1.928h1.912v1.928h1.322v-1.928h2.072v-2.004h1.811V11.57h-1.81V9.658h1.81V8.344h-1.81v-1.92h1.802z" fill="#50E6FF"/><path d="M12.684 4.916H4.742v7.931h7.942V4.916z" fill="#0078D4"/></svg>