<svg xmlns="http://www.w3.org/2000/svg" viewBox="0 0 48 49"><path d="M46.182 43.383L31.536 28.737a16.297 16.297 0 003.382-9.966c0-9.049-7.346-16.38-16.395-16.38s-16.38 7.331-16.38 16.38 7.331 16.38 16.38 16.38c3.63 0 6.98-1.182 9.702-3.18l14.684 14.677 3.273-3.265zM6.854 18.77c0-6.452 5.232-11.684 11.684-11.684 6.453 0 11.684 5.232 11.684 11.684 0 6.452-5.247 11.684-11.7 11.684-6.444 0-11.668-5.232-11.668-11.684z" fill="#0078D4"/><path d="M24.182 12.938H12.606v2.31h11.576v-2.31z" fill="#0078D4"/><path d="M24.182 17.595H12.606v2.309h11.576v-2.31zm0 4.683H12.606v2.31h11.576v-2.31z" fill="#50E6FF"/></svg>