<svg xmlns="http://www.w3.org/2000/svg" viewBox="0 0 48 48"><path d="M47.747 23.97C47.747 10.854 37.121.219 24.004.202v4.836c10.45.017 18.907 8.483 18.907 18.932 0 10.45-8.466 18.923-18.907 18.932v4.836c13.117-.017 23.743-10.652 23.743-23.768z" fill="#0078D4"/><path d="M3.402 12.06l4.186 2.423c3.275-5.646 9.386-9.445 16.391-9.445h.025V.202h-.025C15.193.202 7.52 4.971 3.402 12.061z" fill="#fff"/><path d="M5.039 23.97c0-3.46.928-6.7 2.549-9.486L3.4 12.062A23.72 23.72 0 00.211 23.97c0 4.346 1.165 8.415 3.199 11.918l4.186-2.414A18.812 18.812 0 015.04 23.97zm2.549-9.486l-4.186-2.422 4.186 2.422z" fill="#50E6FF"/><path d="M23.98 42.912c-6.998 0-13.109-3.79-16.383-9.436L3.41 35.898C7.53 42.98 15.193 47.74 23.98 47.74h.024v-4.836c-.008.008-.016.008-.025.008zM3.41 35.89l4.187-2.414L3.41 35.89z" fill="#0078D4"/></svg>