<svg xmlns="http://www.w3.org/2000/svg" viewBox="0 0 48 48"><circle cx="23.978" cy="23.689" r="21.779" fill="#fff"/><path d="M23.992 42.884c-10.425 0-18.877-8.435-18.877-18.835S13.567 5.215 23.992 5.215c10.424 0 18.868 8.435 18.868 18.834 0 10.4-8.452 18.835-18.868 18.835zM24 .19C10.85.19.191 10.85.191 24c0 13.15 10.66 23.808 23.81 23.808 13.15 0 23.808-10.659 23.808-23.809S37.142.19 24 .19z" fill="#0078D4"/><path d="M35.303 12.688l-6.295-.025-12.59 12.59 6.295.017-9.999 9.998 6.295.017 12.54-12.523-6.295-.025 10.049-10.049z" fill="#50E6FF"/></svg>