<svg xmlns="http://www.w3.org/2000/svg" viewBox="0 0 49 49"><path d="M48.208.213H25.497v17.659h5.07v5.027l5.052-5.036h12.59V.213z" fill="#50E6FF"/><path d="M22.979.213H.267v17.659h5.028v5.027l5.06-5.036H22.98V.213z" fill="#0078D4"/><path d="M48.208 25.45H25.497v17.668h5.07v5.028l5.145-5.045h12.496v-17.65z" fill="#50E6FF"/><path d="M22.979 25.45H.267v17.668h5.028v5.028L10.33 43.1h12.648V25.45zM36.84 12.794a3.697 3.697 0 100-7.394 3.697 3.697 0 000 7.394zm0 25.271a3.697 3.697 0 100-7.393 3.697 3.697 0 000 7.393z" fill="#0078D4"/><path d="M37.632 35.084h-13.65v-1.263h12.387V9.855H23.98V8.592h13.65v26.492z" fill="#0078D4"/><path d="M24.25 35.084H10.97V8.592h13.28v1.263H12.234V33.82H24.25v1.263z" fill="#50E6FF"/><path d="M11.594 12.794a3.697 3.697 0 100-7.394 3.697 3.697 0 000 7.394zm0 25.271a3.697 3.697 0 100-7.393 3.697 3.697 0 000 7.393z" fill="#50E6FF"/></svg>