<svg xmlns="http://www.w3.org/2000/svg" viewBox="0 0 49 49"><path d="M28.603 24.508a3.841 3.841 0 01-3.843 3.842 3.841 3.841 0 01-3.843-3.842 3.841 3.841 0 013.843-3.843 3.841 3.841 0 013.843 3.843z" fill="#0078D4"/><path d="M31.157 7.613a2.523 2.523 0 00-2.478-2.073c-.826 0-1.559.396-2.014 1.003a19.541 19.541 0 00-1.862-.093c-9.944 0-18.009 8.056-18.009 18.009 0 9.943 8.057 18.008 18.009 18.008 9.944 0 18.008-8.065 18.008-18.008-.008-7.703-4.845-14.276-11.654-16.846zm5.477 28.685a16.637 16.637 0 01-5.326 3.59 16.571 16.571 0 01-6.514 1.315c-2.258 0-4.449-.447-6.514-1.315a16.639 16.639 0 01-5.326-3.59 16.683 16.683 0 01-3.59-5.325 16.57 16.57 0 01-1.314-6.514c0-2.259.438-4.45 1.315-6.514a16.638 16.638 0 013.59-5.326 16.684 16.684 0 015.325-3.59 16.571 16.571 0 016.514-1.315c.464 0 .919.017 1.374.06a2.521 2.521 0 002.503 2.815 2.515 2.515 0 002.368-1.661c.084.033.177.067.261.11a16.638 16.638 0 015.326 3.59 16.547 16.547 0 013.59 5.325 16.571 16.571 0 011.314 6.514c0 2.258-.446 4.45-1.314 6.514a16.672 16.672 0 01-3.582 5.317z" fill="#3BCAF4"/><path d="M48.71 24.46c0-4.425-1.205-8.57-3.295-12.127a2.521 2.521 0 00-1.736-4.348c-.447 0-.876.118-1.239.329A23.85 23.85 0 0024.794.544C11.59.544.878 11.246.878 24.46c0 4.407 1.189 8.528 3.27 12.075a2.532 2.532 0 00-.826 1.871c0 1.39 1.13 2.52 2.52 2.52.472 0 .91-.126 1.28-.354 4.374 4.795 10.67 7.803 17.672 7.803 4.087 0 7.938-1.028 11.31-2.84a2.521 2.521 0 003.944-2.081 2.23 2.23 0 00-.06-.53C45.314 38.54 48.71 31.9 48.71 24.46zm-9.312 17.317a2.514 2.514 0 00-1.88-.834 2.52 2.52 0 00-2.519 2.52c0 .396.093.766.253 1.095a22.507 22.507 0 01-10.458 2.553c-3.059 0-6.025-.598-8.815-1.778a22.545 22.545 0 01-7.963-5.654 2.521 2.521 0 00-2.747-3.725 23.312 23.312 0 01-1.348-2.671 22.505 22.505 0 01-1.779-8.815c0-3.059.599-6.025 1.779-8.815a22.545 22.545 0 014.853-7.205 22.452 22.452 0 017.206-4.853 22.506 22.506 0 018.814-1.779c3.06 0 6.025.599 8.815 1.779a22.544 22.544 0 017.921 5.603 2.52 2.52 0 00-.37 1.323c0 1.39 1.129 2.52 2.519 2.52.22 0 .43-.025.632-.084.506.86.96 1.761 1.357 2.688a22.505 22.505 0 011.778 8.815c0 3.059-.599 6.025-1.778 8.814a22.543 22.543 0 01-6.27 8.503z" fill="#50E6FF"/><path d="M35.413 29.944a11.883 11.883 0 001.332-5.486c0-6.598-5.352-11.95-11.95-11.95-5.764 0-10.567 4.08-11.697 9.498a2.52 2.52 0 00-2.106 2.486c0 1.256.918 2.3 2.123 2.494 1.163 5.385 5.95 9.422 11.68 9.422 2.806 0 5.385-.97 7.424-2.587a2.521 2.521 0 003.194-3.876zm-18.177 2.073a10.583 10.583 0 01-2.857-5.149 2.527 2.527 0 001.652-2.368c0-1.095-.7-2.022-1.668-2.376a10.636 10.636 0 012.873-5.225 10.605 10.605 0 017.56-3.126 10.64 10.64 0 017.558 3.126 10.606 10.606 0 013.127 7.56c0 1.718-.405 3.37-1.163 4.853a2.521 2.521 0 00-2.933 3.548 10.602 10.602 0 01-6.598 2.275 10.592 10.592 0 01-7.55-3.118z" fill="#0078D4"/></svg>