<svg xmlns="http://www.w3.org/2000/svg" viewBox="0 0 49 49"><path d="M24.227 46.548c-12.104 0-22.035-10.035-22.035-22.265S12.123 2.02 24.227 2.02c4.034 0 7.914 1.097 11.327 3.135.776.47.931 1.412.466 2.196-.31.627-1.241.94-2.017.47a19.492 19.492 0 00-9.776-2.666c-10.397 0-18.931 8.624-18.931 19.13 0 10.505 8.534 19.128 18.93 19.128 7.294 0 13.811-4.076 17.07-10.662.31-.784 1.241-1.097 2.017-.784.776.314 1.086 1.255.776 2.039-3.724 7.84-11.328 12.543-19.862 12.543z" fill="#50E6FF"/><path d="M24.227 40.117c-8.69 0-15.672-7.056-15.672-15.836 0-8.78 7.138-15.837 15.672-15.837 2.483 0 4.966.628 7.293 1.725.776.47 1.086 1.411.62 2.038-.465.784-1.396 1.098-2.016.628-1.862-.941-3.724-1.412-5.742-1.412-6.983 0-12.569 5.645-12.569 12.7 0 7.056 5.586 12.701 12.57 12.701 4.654 0 8.844-2.509 11.017-6.742.465-.784 1.396-1.098 2.172-.627.776.47 1.086 1.41.62 2.195-2.792 5.174-8.068 8.467-13.965 8.467z" fill="#50E6FF"/><path d="M24.227 40.117c-8.69 0-15.672-7.056-15.672-15.836 0-8.78 7.138-15.837 15.672-15.837 2.483 0 4.966.628 7.293 1.725.776.47 1.086 1.411.62 2.038-.465.784-1.396 1.098-2.016.628-1.862-.941-3.724-1.412-5.742-1.412-6.983 0-12.569 5.645-12.569 12.7 0 7.056 5.586 12.701 12.57 12.701 4.654 0 8.844-2.509 11.017-6.742.465-.784 1.396-1.098 2.172-.627.776.47 1.086 1.41.62 2.195-2.792 5.174-8.068 8.467-13.965 8.467z" fill="#50E6FF"/><path d="M24.227 32.277c-4.345 0-7.914-3.606-7.914-7.996 0-4.39 3.569-7.997 7.914-7.997.62 0 1.241.157 1.862.314.776.157 1.396 1.097 1.086 1.881-.31.784-1.086 1.412-1.862 1.098-.465-.157-.776-.157-1.086-.157-2.638 0-4.81 2.195-4.81 4.86 0 2.666 2.172 4.861 4.81 4.861 1.552 0 2.948-.784 3.88-2.038.465-.784 1.396-.94 2.172-.314.775.47.93 1.412.31 2.195-1.397 2.039-3.724 3.293-6.362 3.293z" fill="#50E6FF"/><path d="M23.916 26.633c-.465 0-.775-.157-1.086-.47a1.527 1.527 0 010-2.195L44.554 2.015c.621-.627 1.552-.627 2.173 0 .62.627.62 1.568 0 2.195L25.003 26.163a1.67 1.67 0 01-1.087.47z" fill="#0078D4"/></svg>