<svg xmlns="http://www.w3.org/2000/svg" viewBox="0 0 49 49"><path d="M28.646 25.05a3.841 3.841 0 01-3.842 3.842 3.841 3.841 0 01-3.843-3.842 3.841 3.841 0 013.843-3.843 3.841 3.841 0 013.842 3.843z" fill="#50E6FF"/><path d="M31.2 8.155a2.523 2.523 0 00-2.477-2.073c-.826 0-1.56.396-2.014 1.003a19.545 19.545 0 00-1.863-.093c-9.944 0-18.008 8.056-18.008 18.009 0 9.943 8.056 18.008 18.008 18.008 9.944 0 18.009-8.065 18.009-18.008-.009-7.703-4.846-14.276-11.655-16.846zm5.478 28.685a16.639 16.639 0 01-5.326 3.59 16.571 16.571 0 01-6.514 1.315c-2.259 0-4.45-.447-6.514-1.315a16.639 16.639 0 01-5.326-3.59 16.682 16.682 0 01-3.59-5.325A16.57 16.57 0 018.094 25c0-2.259.438-4.45 1.314-6.515a16.637 16.637 0 013.59-5.325 16.683 16.683 0 015.326-3.59 16.572 16.572 0 016.514-1.315c.463 0 .918.017 1.373.06a2.521 2.521 0 002.503 2.815 2.515 2.515 0 002.368-1.661c.084.033.177.067.261.11a16.639 16.639 0 015.326 3.59 16.546 16.546 0 013.59 5.325 16.571 16.571 0 011.315 6.514c0 2.258-.447 4.45-1.315 6.514a16.67 16.67 0 01-3.581 5.317z" fill="#3BCAF4"/><path d="M48.753 25.002a23.87 23.87 0 00-3.295-12.127 2.521 2.521 0 00-1.736-4.348c-.446 0-.876.118-1.238.329a23.85 23.85 0 00-17.646-7.77C11.633 1.086.922 11.788.922 25.002c0 4.407 1.188 8.528 3.27 12.076a2.521 2.521 0 001.694 4.39c.471 0 .91-.126 1.28-.354 4.374 4.795 10.669 7.803 17.672 7.803 4.087 0 7.938-1.028 11.309-2.84a2.521 2.521 0 003.944-2.081c0-.185-.017-.362-.06-.53 5.326-4.383 8.722-11.023 8.722-18.464zm-9.312 17.317a2.513 2.513 0 00-1.879-.834 2.522 2.522 0 00-2.52 2.52c0 .395.093.766.253 1.095a22.507 22.507 0 01-10.458 2.553 22.5 22.5 0 01-8.814-1.778 22.545 22.545 0 01-7.963-5.654 2.521 2.521 0 00-2.747-3.725 23.313 23.313 0 01-1.349-2.671 22.505 22.505 0 01-1.778-8.815c0-3.059.598-6.025 1.778-8.815A22.545 22.545 0 018.818 8.99a22.452 22.452 0 017.205-4.854 22.505 22.505 0 018.815-1.778c3.059 0 6.025.599 8.814 1.778a22.545 22.545 0 017.205 4.854c.245.245.48.498.717.75a2.52 2.52 0 00-.371 1.323c0 1.39 1.129 2.52 2.52 2.52.218 0 .43-.025.632-.084.505.86.96 1.761 1.356 2.688a22.505 22.505 0 011.778 8.815c0 3.059-.598 6.025-1.778 8.814a22.544 22.544 0 01-6.27 8.503z" fill="#0078D4"/><path d="M35.456 30.486A11.884 11.884 0 0036.788 25c0-6.598-5.351-11.95-11.95-11.95-5.764 0-10.567 4.08-11.696 9.498a2.52 2.52 0 00-2.107 2.486c0 1.256.919 2.3 2.124 2.494 1.163 5.385 5.95 9.422 11.68 9.422 2.806 0 5.384-.97 7.424-2.587a2.521 2.521 0 003.194-3.876zM17.28 32.56a10.583 10.583 0 01-2.856-5.149 2.527 2.527 0 001.652-2.368c0-1.095-.7-2.022-1.67-2.376a10.636 10.636 0 012.874-5.225 10.606 10.606 0 017.56-3.126 10.64 10.64 0 017.559 3.126 10.605 10.605 0 013.126 7.56c0 1.718-.405 3.37-1.163 4.853a2.521 2.521 0 00-2.933 3.548 10.602 10.602 0 01-6.598 2.275 10.592 10.592 0 01-7.55-3.118z" fill="#50E6FF"/></svg>