<svg xmlns="http://www.w3.org/2000/svg" viewBox="0 0 44 49"><path d="M23.173 2.987h-2.526v15.697h2.526V2.987zM4.309 12.749l-1.264 2.188 13.244 7.646 1.263-2.188L4.309 12.75zm35.027.107L26.289 20.39l1.263 2.188L40.6 15.044l-1.263-2.188z" fill="#50E6FF"/><path d="M21.905 12.731L19.891 13.9l-6.04 3.49-2.014 1.169v11.625l2.014 1.168 6.054 3.49 2.014 1.168 2.013-1.168 6.054-3.49L32 30.183V18.558l-2.014-1.168-6.067-3.49-2.014-1.169z" fill="#50E6FF"/><path d="M18.12 44.614v-.059a3.754 3.754 0 013.756-3.755h.06a3.754 3.754 0 013.755 3.755v.06a3.754 3.754 0 01-3.756 3.755h-.059a3.76 3.76 0 01-3.755-3.756zm0-40.421v-.059A3.763 3.763 0 0121.886.37h.059A3.761 3.761 0 0125.7 4.134v.06a3.76 3.76 0 01-3.756 3.755h-.06a3.761 3.761 0 01-3.763-3.756zM4.268 18.054h-.06A3.754 3.754 0 01.454 14.3v-.06a3.754 3.754 0 013.756-3.755h.059a3.754 3.754 0 013.756 3.756v.059a3.749 3.749 0 01-3.756 3.755zm37.272-.524l-.05.035a3.764 3.764 0 01-5.138-1.373l-.033-.05a3.764 3.764 0 011.372-5.137l.05-.034a3.765 3.765 0 015.138 1.373l.033.05a3.764 3.764 0 01-1.372 5.137zM23 25.44h-2v14h2v-14z" fill="#0078D4"/></svg>