<svg xmlns="http://www.w3.org/2000/svg" viewBox="0 0 49 49"><path d="M32.784 18.4v6.046a3.894 3.894 0 01-1.137 2.753 3.86 3.86 0 01-2.745 1.137h-.009l-8.657-.017h-.008a6.377 6.377 0 00-3.89 1.314V8.008H13.81v31.41h2.526v-2.215h.009v-2.467a3.88 3.88 0 013.882-3.89h.008l8.657.016h.009a6.363 6.363 0 004.53-1.878 6.377 6.377 0 001.886-4.539V18.4h-2.534z" fill="#0078D4"/><path d="M33.988 23.2a6.307 6.307 0 100-12.616 6.307 6.307 0 000 12.615zm-18.914-9.963a6.299 6.299 0 100-12.598 6.299 6.299 0 000 12.598zm.001 35.335a6.307 6.307 0 100-12.615 6.307 6.307 0 000 12.615z" fill="#50E6FF"/></svg>