<svg xmlns="http://www.w3.org/2000/svg" viewBox="0 0 48 49"><path d="M38.459 42.446v-4.892H9.492v4.892H38.46zm.003-31.441V6.218H9.495v4.787h28.967z" fill="#50E6FF"/><path d="M5.909 37.901h4.86V8.935h-4.86V37.9zm31.318 0h4.843V8.935h-4.843V37.9z" fill="#50E6FF"/><path d="M16.607 47.369V31.823H1.062V47.37h15.545zm14.747-7.899a7.773 7.773 0 117.772 7.774 7.768 7.768 0 01-7.772-7.773zM46.9 16.916V1.37H31.355v15.546H46.9zM1.06 9.182a7.773 7.773 0 117.773 7.773c-4.29.008-7.773-3.476-7.773-7.773z" fill="#0078D4"/></svg>