<svg xmlns="http://www.w3.org/2000/svg" viewBox="0 0 50 55.093"><path fill="#8cc84b" d="M28.7 16.76c3-.2 6.2-.12 8.88 1.35a6.7 6.7 0 013.27 5.8.63.63 0 01-.7.48h-2.58a.67.67 0 01-.63-.66 3.96 3.96 0 00-1.9-2.73 11.21 11.21 0 00-5.18-.76 7.05 7.05 0 00-3.72.93 2.35 2.35 0 00-.78 2.63c.28.66 1.04.87 1.66 1.07 3.6.94 7.4.85 10.94 2.1a5.15 5.15 0 013.4 3 6.44 6.44 0 01-1.1 6.15 8.6 8.6 0 01-4.62 2.5 22.2 22.2 0 01-6.98.3 11 11 0 01-6.14-2.32 6.44 6.44 0 01-2.07-5.08.58.58 0 01.63-.52h2.62a.6.6 0 01.62.6 3.96 3.96 0 001.48 2.8c1.77 1.14 4 1.06 6.03 1.1 1.68-.08 3.56-.1 4.94-1.22a2.73 2.73 0 00.74-2.6c-.2-.78-1-1.13-1.7-1.37-3.55-1.1-7.4-.7-10.92-1.98a5.32 5.32 0 01-3.36-2.92 6 6 0 011.2-6.23 9.66 9.66 0 016-2.4zM22.75.6a4.62 4.62 0 014.5 0q10.3 5.8 20.6 11.62A4.24 4.24 0 0150 15.88v23.34a4.3 4.3 0 01-2.3 3.73q-10.27 5.8-20.53 11.58a4.5 4.5 0 01-4.56-.12q-3.07-1.78-6.15-3.56a3.63 3.63 0 01-1.2-.85c.27-.36.74-.4 1.12-.56a14.38 14.38 0 002.43-1.14.57.57 0 01.63.04c1.76 1 3.5 2.04 5.26 3.04.36.2.74-.08 1.06-.25q10.08-5.7 20.16-11.38a.67.67 0 00.37-.66v-23.1a.72.72 0 00-.44-.73Q35.63 9.52 25.4 3.75a.7.7 0 00-.8 0Q14.37 9.5 4.14 15.28a.7.7 0 00-.43.72v23.1a.65.65 0 00.38.65q2.73 1.55 5.46 3.08a4.22 4.22 0 003.42.46 2.6 2.6 0 001.68-2.44V17.88a.58.58 0 01.63-.6h2.63a.6.6 0 01.57.7v23.1a5.86 5.86 0 01-2.75 5.3 8.44 8.44 0 01-7.54-.2c-2-1-3.9-2.18-5.88-3.25A4.28 4.28 0 010 39.22V15.88a4.25 4.25 0 012.2-3.7Q12.5 6.38 22.75.58z"/></svg>