<svg xmlns="http://www.w3.org/2000/svg" viewBox="-2 -1 35 35"><path fill="#FFF" d="M22.9 19H9.1c-.8 0-1.5-.7-1.5-1.5S8.3 16 9.1 16h13.8c.8 0 1.5.7 1.5 1.5s-.7 1.5-1.5 1.5zm0 6H9.1c-.8 0-1.5-.7-1.5-1.5S8.3 22 9.1 22h13.8c.8 0 1.5.7 1.5 1.5s-.7 1.5-1.5 1.5z"/><path fill="#FFF" d="M27.8 32H4.2c-.7 0-1.2-.6-1.2-1.2V1.2C3 .6 3.5 0 4.2 0h14.2c.3 0 .6.1.9.4l9.4 9.4c.2.2.4.5.4.9v20.1c-.1.6-.6 1.2-1.3 1.2zM5.4 29.5h21.2V11.2l-8.7-8.7H5.4v27z"/><path fill="#FFF" d="M27.5 11.9h-9.1c-.7 0-1.2-.6-1.2-1.2V1.5c0-.7.6-1.2 1.2-1.2s1.2.6 1.2 1.2v7.9h7.9c.7 0 1.2.6 1.2 1.2s-.5 1.3-1.2 1.3z"/></svg>