<svg xmlns="http://www.w3.org/2000/svg" viewBox="0 0 49 49"><path d="M14.095 28.776c-.603 0-1.14-.446-1.222-1.065a1.246 1.246 0 01.726-1.313c-.074-.47-.561-1.329-1.098-1.47-3.591-.94-6.382-2.096-8.33-4.68-2.023-2.675-2.923-6.589-2.923-12.682 0-.685.553-1.238 1.239-1.238h11.996c.685 0 1.238.553 1.238 1.238 0 .686-.553 1.239-1.238 1.239H3.742c.107 4.747.883 7.934 2.41 9.948 1.528 2.015 3.806 2.94 6.985 3.782 1.8.47 3.038 2.6 2.947 4.185-.066 1.099-.776 1.9-1.808 2.048-.057.008-.123.008-.181.008zm22.333-.19c-.058 0-.116 0-.174-.016-1.205-.174-2.04-1.156-2.113-2.518a3.764 3.764 0 01.487-2.064c.429-.735 1.081-1.255 1.857-1.453 3.179-.834 5.458-1.759 6.985-3.782 1.527-2.023 2.303-5.201 2.41-9.948H35.14a1.237 1.237 0 01-1.24-1.239c0-.685.553-1.238 1.238-1.238h11.997c.685 0 1.238.553 1.238 1.238 0 6.093-.9 10.007-2.923 12.682-1.948 2.575-4.739 3.74-8.33 4.68-.256.067-.388.372-.438.504-.107.314-.074.587-.024.694.652.124 1.098.735.999 1.395a1.243 1.243 0 01-1.23 1.065z" fill="#50E6FF"/><path d="M40.935 1.484H8.687c0 13.416 1.899 23.109 9.668 26.857 2.667 1.288 4.392 3.947 4.392 6.91v2.32c0 1.56-2.089 6.052-3.657 6.052h-1.156v3.022h13.87v-3.03h-.941c-1.56 0-3.658-4.483-3.658-6.052v-2.18c0-2.98 1.759-5.663 4.467-6.91 7.934-3.624 9.263-13.498 9.263-26.989z" fill="#0078D4"/><path d="M33.364 43.498H16.267v3.393h17.099v-3.393z" fill="#50E6FF"/><path d="M35.973 45.818H13.65v2.642h22.324v-2.642z" fill="#0078D4"/></svg>