<svg xmlns="http://www.w3.org/2000/svg" viewBox="0 0 49 49"><path d="M22.41 18.044V3.66h2.541V1.21H12.253v2.45h2.616v14.724L1.89 37.834c-2.176 3.255.158 7.615 4.077 7.615H21.58a15.257 15.257 0 01-1.046-3.114H8.242c-2.234 0-3.563-2.483-2.325-4.343L13.83 26.14l10.19-.133 1.204 1.702a15.605 15.605 0 012.658-1.926l-5.473-7.74z" fill="#0078D4"/><path d="M13.831 26.14L5.917 38c-1.237 1.852.091 4.343 2.325 4.343h12.291a15.194 15.194 0 01-.349-3.272c0-4.501 1.944-8.554 5.041-11.352l-1.204-1.703-10.19.125zm34.315 12.856c0 3.455-1.386 6.578-3.629 8.87-.2.207-.623.59-.623.59l-16.734.099s-.307-.274-.457-.415a12.592 12.592 0 01-3.911-9.144c0-6.984 5.68-12.656 12.673-12.656 7.01.008 12.681 5.672 12.681 12.656z" fill="#50E6FF"/><path d="M35.49 26.331c-7.001 0-12.673 5.664-12.673 12.657 0 3.33 1.295 6.37 3.405 8.62.307.333.64.648.98.947l1.453-1.453 1.503-1.503a8.798 8.798 0 01-.988-.939l-1.503 1.503a10.598 10.598 0 01-1.968-3.048 10.332 10.332 0 01-.798-3.263h1.72a9.869 9.869 0 01-.042-.864c0-.166.008-.332.017-.498h-1.72a10.48 10.48 0 01.823-3.63 10.426 10.426 0 011.793-2.856l1.221 1.22a8.79 8.79 0 01.964-.963l-1.221-1.22a10.753 10.753 0 012.898-1.828 10.552 10.552 0 013.604-.822v1.71c.175-.007.358-.016.532-.016.282 0 .556.017.83.042v-1.72c1.138.092 2.251.358 3.306.798a10.53 10.53 0 013.056 1.968l-1.213 1.213c.34.307.656.63.939.988l1.22-1.22a10.738 10.738 0 011.661 2.698c.49 1.155.765 2.375.823 3.63h-1.72c.009.166.017.332.017.498 0 .29-.016.581-.041.863h1.719a10.504 10.504 0 01-2.625 6.154l-1.494-1.495c-.3.34-.623.665-.964.964L42.5 46.96l1.445 1.445c.34-.308.664-.623.963-.964a12.577 12.577 0 003.256-8.47c0-6.968-5.68-12.64-12.673-12.64z" fill="#0078D4"/><path d="M37.276 38.39a1.76 1.76 0 010 2.492 1.76 1.76 0 01-2.492 0c-.69-.69-4.028-6.511-4.028-6.511s5.83 3.338 6.52 4.02z" fill="#0078D4"/></svg>