<svg xmlns="http://www.w3.org/2000/svg" viewBox="0 0 49 49"><path d="M34.176 43.7h-2.56v-3.48l1.276-5.314h1.284v8.792zm-14.787-1.94zm5.008-39.684c-4.685 0-7.023 8.946-7.023 13.63l.73 29.575h12.569l.73-29.574c.018-4.685-2.312-13.63-7.006-13.63z" fill="#0078D4"/><path d="M24.397 16.217a3.64 3.64 0 100-7.279 3.64 3.64 0 000 7.279zm1.259 21.105h-2.551v10.391h2.55V37.322z" fill="#50E6FF"/><path d="M33.819 40.188l4.226-4.227c.51-.51.51-1.343.008-1.853l-6.088-6.088-.349 12.168h2.203zm6.309-3.929c.009.017.017.026.017.042-.008-.017-.008-.025-.017-.042zm-.008-.017a1.288 1.288 0 00-.221-.298l-.426-.425.425.425a1.8 1.8 0 01.222.298z" fill="#0078D4"/><path d="M38.053 34.108s.009 0 0 0l1.412 1.411-1.412-1.411zm2.067 2.134c0 .009.008.009.008.017-.008-.008-.008-.008-.008-.017zm.025.06a1.33 1.33 0 01-.255 1.505l-3.741 3.741a1.647 1.647 0 01-1.165.485h-3.368 3.708a.825.825 0 00.578-.238l3.988-3.988a1.328 1.328 0 00.255-1.505z" fill="#50E6FF"/><path d="M38.045 35.961l-4.226 4.227h-2.203v1.845h3.368c.433 0 .859-.17 1.165-.485l3.741-3.741a1.315 1.315 0 00.255-1.506c-.008-.017-.008-.025-.017-.042 0-.008-.008-.008-.008-.017a1.289 1.289 0 00-.221-.298l-.426-.425-1.411-1.411c.502.51.502 1.343-.017 1.853z" fill="#50E6FF"/><path d="M14.618 43.7h2.56v-3.48l-1.276-5.314h-1.284v8.792z" fill="#0078D4"/><path d="M14.976 40.188l-4.227-4.227a1.322 1.322 0 01-.008-1.853l6.088-6.088.349 12.168h-2.203zm-6.31-3.929c-.008.017-.017.026-.017.042.009-.017.017-.025.017-.042zm.009-.017c.06-.11.136-.212.22-.298l.426-.425-.425.425a1.799 1.799 0 00-.221.298z" fill="#0078D4"/><path d="M10.741 34.108l-1.42 1.411 1.42-1.411zm-2.066 2.134c0 .009-.009.009-.009.017.009-.008.009-.008.009-.017zm-.025.06a1.33 1.33 0 00.254 1.505l3.742 3.741c.306.306.723.485 1.165.485h3.367-3.707a.825.825 0 01-.579-.238l-3.988-3.988a1.343 1.343 0 01-.255-1.505z" fill="#50E6FF"/><path d="M10.75 35.961l4.226 4.227h2.202v1.845H13.81c-.434 0-.86-.17-1.165-.485l-3.742-3.741A1.315 1.315 0 018.65 36.3c.009-.017.009-.025.017-.042 0-.008.009-.008.009-.017.06-.11.136-.213.22-.298l.426-.425 1.411-1.411a1.322 1.322 0 00.017 1.853z" fill="#50E6FF"/></svg>