<svg xmlns="http://www.w3.org/2000/svg" viewBox="0 0 49 45"><path d="M48.269 35.754h-48v8.932h48v-8.932zM23.615 5.266a20.35 20.35 0 0113.519 5.11l3.843-3.581A25.542 25.542 0 0023.615.035a25.57 25.57 0 00-17.462 6.85l3.863 3.561a20.379 20.379 0 0113.6-5.18z" fill="#0078D4"/><path d="M12.752 12.96l2.726 2.505a13.008 13.008 0 018.127-2.836c3.048 0 5.854 1.046 8.077 2.796l2.706-2.525a16.702 16.702 0 00-10.783-3.942 16.645 16.645 0 00-10.853 4.003z" fill="#0078D4"/><path d="M18.224 18l1.378 1.268a7.574 7.574 0 017.946-.02l1.368-1.278a9.331 9.331 0 00-5.331-1.66A9.302 9.302 0 0018.224 18z" fill="#50E6FF"/><path d="M23.565 26.771a2.937 2.937 0 100-5.874 2.937 2.937 0 000 5.874zM6.405 41.065H3.619l1.116-19.313h.553l1.117 19.313zm38.515-5.14h-2.787l1.117-19.313h.553l1.117 19.313z" fill="#0078D4"/><path d="M5.017 42.151a2.092 2.092 0 100-4.184 2.092 2.092 0 000 4.184z" fill="#50E6FF"/><path d="M45.16 41.175a1.117 1.117 0 10.001-2.233 1.117 1.117 0 000 2.233zm-4.143 0a1.117 1.117 0 100-2.233 1.117 1.117 0 000 2.233zm-4.808 0a1.117 1.117 0 100-2.233 1.117 1.117 0 000 2.233z" fill="#fff"/></svg>