<svg xmlns="http://www.w3.org/2000/svg" viewBox="0 0 49 49"><path d="M6.067 48.252h21.8V12.82h-21.8v35.432z" fill="#0078D4"/><path d="M27.043 48.253h20.976V20.355H27.043v27.898z" fill="#0078D4"/><path d="M.02 5.295h10.1V.27H.02v5.025z" fill="#50E6FF"/><path d="M2.703 48.252h4.92V4.016h-4.92v44.236zm36.468.018v-7.551h-5.063v7.55h5.063zm-20.186 0v-7.551h-5.063v7.55h5.063zM10.13 22.98h5.029v-5.035h-5.03v5.034zm7.568 0h5.03v-5.035h-5.03v5.034zm-7.568 7.491h5.029v-5.034h-5.03v5.034zm7.568 0h5.03v-5.034h-5.03v5.034zM10.13 38.05h5.029v-5.034h-5.03v5.034zm7.568 0h5.03v-5.034h-5.03v5.034zm12.616-7.579h5.03v-5.034h-5.03v5.034zm0 7.579h5.03v-5.034h-5.03v5.034zm7.57-7.579h5.03v-5.034h-5.03v5.034zm0 7.579h5.03v-5.034h-5.03v5.034z" fill="#50E6FF"/></svg>