<svg xmlns="http://www.w3.org/2000/svg" viewBox="0 0 49 49"><path d="M5.08 23.01a5.052 5.052 0 100-10.104 5.052 5.052 0 000 10.104z" fill="#50E6FF"/><path d="M5.08 35.639a5.052 5.052 0 100-10.104 5.052 5.052 0 000 10.104zm42.94-17.681v23.466c0 2.425-.497 4.74-1.39 6.845H14.046a17.504 17.504 0 01-1.389-6.845V17.958c0-9.724 7.957-17.68 17.681-17.68 4.867 0 9.279 1.986 12.486 5.194 3.208 3.208 5.195 7.62 5.195 12.486z" fill="#0078D4"/><path d="M42.825 29.468c-3.208-3.207-7.62-5.195-12.487-5.195-9.724 0-17.68 7.957-17.68 17.682v6.314h12.629v-5.051a5.056 5.056 0 015.051-5.052 5.056 5.056 0 015.052 5.052v5.051h12.63v-6.314c0-4.867-1.988-9.279-5.196-12.487z" fill="#50E6FF"/></svg>