<svg xmlns="http://www.w3.org/2000/svg" viewBox="0 0 49 49"><path d="M23.918 2.866c2.014 0 3.91.784 5.333 2.208l1.769-1.77a10.005 10.005 0 00-7.102-2.94c-2.569 0-5.138.977-7.101 2.94l1.769 1.77a7.527 7.527 0 015.332-2.208zm.001 5.133c.648 0 1.255.253 1.71.708l1.769-1.77a4.911 4.911 0 00-3.48-1.44c-1.255 0-2.518.48-3.479 1.44l1.77 1.77a2.367 2.367 0 011.71-.708zm23.949 19.868h-9.595v20.284h9.595V27.867z" fill="#0078D4"/><path d="M.196 27.867v20.124h14.396v-5.73h7.43v5.73h16.25V27.867H.196zM14.433 11.3H9.016l-.311 4.18 6.04.152-.312-4.331z" fill="#50E6FF"/><path d="M8.713 15.48l-.615 12.388h7.278l-.614-12.227-6.049-.16z" fill="#0078D4"/><path d="M7.778 33.75H5.302v2.477h2.476V33.75zm6.352 0h-2.477v2.477h2.476V33.75zm19.19 0h-2.477v2.477h2.476V33.75zm-6.343 0H24.5v2.477h2.477V33.75zm-6.352 0h-2.477v2.477h2.477V33.75z" fill="#0078D7"/><path d="M26.816 11.3h-5.568l-.152 4.18 6.04.152-.32-4.331z" fill="#50E6FF"/><path d="M21.088 15.48l-.775 12.388h7.43l-.615-12.227-6.04-.16z" fill="#0078D4"/><path d="M39.2 11.3h-5.57l-.312 4.18 6.04.152-.16-4.331z" fill="#50E6FF"/><path d="M33.32 15.48l-.616 12.388h7.43l-.775-12.227-6.04-.16z" fill="#0078D4"/></svg>