<svg xmlns="http://www.w3.org/2000/svg" viewBox="0 0 37.8 50"><path fill="#3999C6" d="M0 6.8v36.3c0 3.7 8.5 6.8 18.8 6.8V6.8H0z"/><path fill="#59B4D9" d="M18.6 50h.3c10.5 0 18.8-3 18.8-6.8V6.8H18.6V50z"/><path fill="#FFF" d="M37.8 6.8c0 3.7-8.5 6.8-18.8 6.8s-19-3-19-6.8S8.5 0 18.8 0s19 3 19 6.8"/><path fill="#7FBA00" d="M33.9 6.4c0 2.5-6.7 4.5-15 4.5S3.9 9 3.9 6.4s6.7-4.5 15-4.5 15 2 15 4.5"/><path fill="#B8D432" d="M30.7 9.2c2-.8 3.1-1.7 3.1-2.7 0-2.5-6.7-4.5-15-4.5s-15 2-15 4.5c0 1 1.2 2 3.1 2.7 2.7-1.1 7-1.7 11.9-1.7 4-.2 8.1.4 11.9 1.7"/><path fill="#3999C6" d="M10.4 24.9H8.7v9.9h1.7c1.3 0 2.6-.5 3.6-1.4.9-1 1.4-2.3 1.3-3.7.1-1.2-.4-2.5-1.2-3.4-1-.9-2.3-1.4-3.7-1.4"/><path fill="#59B4D9" d="M27.7 27.8c.4-.4.6-.9.6-1.4 0-1.1-.8-1.7-2.5-1.7h-1.3v3.6H26c.6.1 1.2-.1 1.7-.5m.6 3.6c-.6-.3-1.2-.5-1.9-.5h-1.9V35h1.9c.7 0 1.4-.2 1.9-.6.4-.4.7-.9.7-1.5-.1-.6-.3-1.1-.7-1.5"/><path fill="#FFF" d="M31.9 31.2c0-6.3-4.8-11.6-11.1-12.2v3.6c4.3.5 7.5 4.2 7.5 8.5 0 2.6-1.2 5-3.3 6.6l-4.3-4v10.2h10.8l-3.9-3.7c2.7-2.2 4.3-5.5 4.3-9zm-22.4-.5c0-2.6 1.2-5 3.3-6.6l4.3 4V18H6.2l3.9 3.7c-2.7 2.2-4.2 5.5-4.2 9 0 6.3 4.8 11.6 11.1 12.2v-3.6c-4.2-.6-7.5-4.2-7.5-8.6z"/></svg>