<svg xmlns="http://www.w3.org/2000/svg" viewBox="0 0 97 97"><path d="M95.912 26.235c.016-.118.05-.236.067-.354.135-.724.202-1.465.202-2.223 0-6.535-5.288-11.84-11.823-11.84-.91 0-1.802.1-2.644.303-2.712-4.261-7.444-7.074-12.85-7.074-8.405 0-15.21 6.804-15.21 15.225 0 .203 0 .421.018.623a7.76 7.76 0 00-2.46-.404 7.48 7.48 0 00-.741 14.922l33.87.068c4.447 0 8.32-2.46 10.358-6.063.05-.101.118-.203.169-.303.32-.64.774-1.617 1.044-2.88zM1.58 57.493c.033.068.083.152.117.22 1.482 2.627 4.312 4.429 7.545 4.429l24.69-.05c2.746-.27 4.919-2.594 4.919-5.424a5.456 5.456 0 00-5.457-5.457c-.623 0-1.23.101-1.785.287.016-.152.016-.304.016-.455 0-6.13-4.968-11.1-11.082-11.1a11.037 11.037 0 00-9.364 5.155 8.088 8.088 0 00-1.92-.22c-4.783 0-8.64 3.858-8.64 8.624 0 .556.05 1.094.152 1.617.017.067.033.168.05.252.202.927.522 1.65.758 2.122z" fill="#50E6FF"/><path d="M47.575 61.872c-.438 0-.825-.067-1.196-.219a2.645 2.645 0 01-.926-.623 2.858 2.858 0 01-.59-1.01 4.336 4.336 0 01-.202-1.381c0-.523.084-.977.236-1.381.151-.405.37-.742.64-1.01.27-.27.573-.49.926-.624a3.111 3.111 0 011.112-.219c.27 0 .505.017.724.05.219.034.387.085.556.118.151.05.286.101.37.135l.202.101-.252.708c-.05-.034-.135-.068-.236-.118-.101-.034-.219-.085-.354-.118-.134-.034-.286-.084-.438-.101-.168-.034-.336-.034-.505-.034-.303 0-.59.05-.825.168-.253.118-.472.27-.64.489-.185.219-.32.471-.421.775a3.289 3.289 0 00-.152 1.027c0 .37.05.707.135 1.01.084.304.219.573.387.775.169.22.388.388.657.505.253.118.573.186.91.186.387 0 .724-.034.977-.118a5.11 5.11 0 00.589-.22l.219.708c-.034.034-.118.068-.219.118-.101.05-.236.084-.404.135-.169.034-.354.084-.556.101-.253.05-.472.067-.724.067zm5.507-6.332c.22.455.421.892.623 1.347.203.455.388.926.59 1.432.202.505.404 1.027.606 1.583.202.556.438 1.162.674 1.819h-.943c-.101-.27-.202-.54-.286-.792-.085-.27-.186-.522-.27-.791h-2.813l-.555 1.6h-.91c.236-.657.455-1.264.674-1.82.202-.555.42-1.094.606-1.582.202-.506.404-.977.59-1.432.202-.455.404-.91.623-1.347l.791-.017zm-.42.993c-.203.455-.405.91-.59 1.398-.186.489-.37.994-.556 1.516h2.307c-.185-.522-.387-1.027-.572-1.499-.185-.505-.388-.96-.59-1.415zm8.033 5.205c-.135-.22-.286-.472-.455-.741-.168-.27-.354-.556-.556-.86-.202-.303-.404-.589-.606-.892a96.95 96.95 0 01-.623-.876 16.83 16.83 0 00-.606-.808c-.202-.253-.37-.472-.54-.657v4.834h-.841V55.54h.69c.286.303.573.64.893 1.044.32.404.64.808.943 1.23.32.42.606.825.892 1.246.27.404.506.758.708 1.078v-4.581h.842v6.197l-.741-.016zm13.541 0c-.135-.22-.286-.472-.455-.741a34.9 34.9 0 00-.556-.86c-.202-.303-.404-.589-.606-.892a96.95 96.95 0 01-.623-.876 16.83 16.83 0 00-.606-.808c-.203-.253-.37-.472-.54-.657v4.834h-.841V55.54h.69c.286.303.573.64.893 1.044.32.404.64.808.943 1.23.32.42.606.825.892 1.246.27.404.506.758.708 1.078v-4.581h.842v6.197l-.741-.016zm2.307-6.198h.876v6.198h-.876V55.54zm5.103 6.332a3.07 3.07 0 01-1.195-.219 2.646 2.646 0 01-.927-.623 2.856 2.856 0 01-.59-1.01 4.333 4.333 0 01-.201-1.381c0-.523.084-.977.236-1.381.151-.405.37-.742.64-1.01.269-.27.572-.49.926-.624a3.111 3.111 0 011.111-.219c.27 0 .506.017.725.05.219.034.387.085.555.118.152.05.287.101.37.135l.203.101-.253.708c-.05-.034-.134-.068-.235-.118-.102-.034-.22-.085-.354-.118-.135-.034-.286-.084-.438-.101-.168-.034-.337-.034-.505-.034-.303 0-.59.05-.826.168a1.68 1.68 0 00-.64.489c-.185.219-.32.471-.42.775a3.292 3.292 0 00-.152 1.027c0 .37.05.707.135 1.01.084.304.218.573.387.775.168.22.387.388.657.505.252.118.572.186.91.186.387 0 .724-.034.976-.118a5.12 5.12 0 00.59-.22l.218.708c-.033.034-.117.068-.218.118-.102.05-.236.084-.405.135-.168.034-.353.084-.555.101-.253.05-.472.067-.725.067zm5.508-6.332c.219.455.42.892.623 1.347.202.455.387.926.59 1.432.202.505.404 1.027.606 1.583.202.556.438 1.162.674 1.819h-.944c-.1-.27-.202-.54-.286-.792-.084-.27-.185-.522-.27-.791h-2.812l-.556 1.6h-.91c.236-.657.455-1.264.674-1.82.202-.555.421-1.094.607-1.582.202-.506.404-.977.59-1.432.201-.455.403-.91.622-1.347l.792-.017zm-.421.993c-.202.455-.404.91-.59 1.398-.185.489-.37.994-.555 1.516h2.307c-.185-.522-.388-1.027-.573-1.499-.202-.505-.387-.96-.59-1.415zm7.511 4.48v.725h-3.722V55.54h.876v5.473h2.846zm-28.53-.32a2.052 2.052 0 01-2.055-2.054c0-1.146.926-2.055 2.055-2.055 1.145 0 2.055.926 2.055 2.055a2.052 2.052 0 01-2.055 2.054z" fill="#772953"/><path d="M68.948 58.639a3.234 3.234 0 11-6.47-.002 3.234 3.234 0 016.47.002zm-3.234-2.46a2.444 2.444 0 00-2.442 2.443 2.444 2.444 0 002.442 2.442 2.444 2.444 0 002.442-2.442 2.455 2.455 0 00-2.442-2.442z" fill="#772953"/><path d="M80.552 49.763c-.607 0-1.196-.236-1.6-.674L68.83 39.001a2.23 2.23 0 01-.674-1.6c0-.607.236-1.196.674-1.6l10.122-10.072a2.23 2.23 0 011.6-.674c.606 0 1.196.236 1.6.674l10.071 10.072c.438.438.674.993.674 1.6 0 .606-.236 1.195-.674 1.6L82.152 49.072c-.388.438-.994.69-1.6.69z" fill="#59B3D8"/><path d="M82.152 25.679a2.23 2.23 0 00-1.6-.674c-.607 0-1.196.236-1.6.674L68.83 35.75a2.23 2.23 0 00-.674 1.6c0 .607.236 1.196.674 1.6l5.726 5.727 10.712-15.849-3.116-3.15z" fill="#7BC3DD"/><path d="M88.232 37.4l-5.205-5.203-.724 1.044 5.002 5.035.927-.875z" fill="#B6DEEC"/><path d="M80.956 30.159l-.876.876 2.24 2.206.724-1.044-2.088-2.038z" fill="#BDE1EE"/><path d="M72.905 37.4l7.242-7.241.876.876-7.242 7.242-.876-.876z" fill="#BDE1EE"/><path d="M87.322 35.43a1.92 1.92 0 00-1.92 1.92c0 .404.118.758.32 1.078l-3.84 3.84c-.118-.084-.202-.118-.32-.202v-9.752c.556-.32.96-.96.96-1.684a1.92 1.92 0 10-3.84 0c0 .725.404 1.314.96 1.685v9.802c-.118.033-.202.117-.32.151l-3.84-3.84c.202-.32.32-.673.32-1.044a1.92 1.92 0 10-3.84 0c0 1.044.876 1.92 1.92 1.92.236 0 .438-.034.64-.118l4.042 4.042c-.118.286-.202.556-.202.876 0 1.246.994 2.24 2.24 2.24 1.246 0 2.24-.994 2.24-2.24 0-.32-.084-.606-.151-.876l4.042-4.042c.202.084.404.118.606.118a1.92 1.92 0 001.92-1.92c-.017-1.061-.91-1.954-1.937-1.954z" fill="#fff"/><path d="M82.067 44.171c0 .842-.656 1.5-1.498 1.5a1.481 1.481 0 01-1.5-1.5c0-.842.657-1.499 1.5-1.499.842.05 1.498.708 1.498 1.5zm-.437-13.524c0 .606-.472 1.078-1.078 1.078a1.064 1.064 0 01-1.078-1.078c0-.606.471-1.078 1.078-1.078.606-.017 1.078.472 1.078 1.078zM74.876 37.4c0 .607-.472 1.079-1.078 1.079A1.064 1.064 0 0172.72 37.4c0-.607.472-1.078 1.078-1.078.606 0 1.078.471 1.078 1.078zm13.474 0c0 .607-.472 1.079-1.078 1.079a1.064 1.064 0 01-1.078-1.078c0-.607.471-1.078 1.078-1.078.606 0 1.078.471 1.078 1.078z" fill="#B7D332"/><path d="M36.004 28.879A8.71 8.71 0 0034 28.643c-1.179 0-2.24.202-3.031.539-.085.05-.152.135-.152.236 0 .033 0 .084.017.1.084.27-.067.556-.825.725-1.129.253-1.853 1.415-2.257 1.802-.472.455-1.836.741-1.634.455.152-.202.775-.876 1.145-1.584.337-.64.623-.825 1.028-1.431.118-.185.59-.808.724-1.297.151-.488.101-1.095.151-1.347.085-.354.422-1.146.455-1.583.017-.253-1.044.353-1.55.353-.505 0-.993-.303-1.448-.32-.555-.033-.91.421-1.414.354-.287-.05-.54-.303-1.028-.32-.724-.034-1.6.404-3.233.337-1.617-.05-3.116-2.038-3.318-2.358-.236-.37-.54-.37-.842-.084-.32.286-.708.067-.826-.135-.219-.37-.774-1.448-1.65-1.684-1.213-.32-1.836.673-1.752 1.448.084.792.59 1.027.842 1.449.236.42.354.69.809.892.32.135.438.32.337.59-.085.219-.421.286-.64.286-.455.017-.792-.101-1.028-.253-.27-.168-.505-.42-.74-.825-.287-.455-.725-.657-1.23-.657-.236 0-.472.068-.674.169-.792.42-1.752.657-2.779.657H6.295a16.587 16.587 0 0015.73 11.284 16.594 16.594 0 0013.98-7.562z" fill="#fff"/><path d="M36.004 28.879A8.704 8.704 0 0034 28.643c-1.179 0-2.24.202-3.032.539-.084.05-.151.135-.151.236 0 .033 0 .084.017.1.084.27-.068.556-.825.725-1.129.253-1.853 1.415-2.257 1.802-.472.455-1.836.741-1.634.472.152-.22.775-.876 1.145-1.584.337-.64.623-.825 1.028-1.431.117-.185.589-.809.724-1.297.151-.488.1-1.095.151-1.347.085-.354.421-1.146.455-1.584.017-.252-1.044.354-1.55.354-.505 0-.993-.303-1.448-.32-.556-.034-.91.421-1.415.354-.286-.05-.538-.303-1.027-.32-.724-.034-1.6.404-3.234.337-1.616-.05-3.115-2.038-3.317-2.358-.236-.37-.54-.37-.843-.084-.32.286-.707.067-.825-.135-.219-.37-.775-1.449-1.65-1.684-1.213-.32-1.836.673-1.752 1.448.084.792.59 1.027.842 1.448.236.421.354.691.809.893.32.135.438.32.336.59-.084.218-.42.286-.64.286-.454.017-.791-.101-1.027-.253-.27-.168-.505-.42-.741-.825-.286-.455-.724-.657-1.23-.657-.235 0-.471.068-.673.169-.792.42-1.752.656-2.78.656h-1.11a16.755 16.755 0 01-.86-5.305C5.47 10.69 12.914 3.262 22.076 3.262c9.162 0 16.606 7.427 16.606 16.59 0 3.334-.994 6.433-2.678 9.027z"/><path d="M25.73 27.363c.085.084.236.354.051.724a1.32 1.32 0 01-.404.472c-.236.185-.69.404-1.314 0-.337-.22-.353-.287-.825-.22-.337.051-.455-.286-.337-.572.118-.27.607-.505 1.213-.151.27.168.707.505 1.078.202.151-.118.252-.203.471-.455.017-.017.017-.017.034-.017s.034 0 .034.017z"/><path d="M20.779 11.16c-1.92.136-2.122.338-2.476.725-.505.539-1.179-.69-1.179-.69-.404-.085-.892-.725-.623-1.331.253-.59.741-.421.876-.236.185.22.573.59 1.078.59.505-.017 1.078-.118 1.886-.118.825 0 1.364.303 1.398.572.05.22-.034.421-.96.489zM22.8 7.995c-.034 0-.067-.016-.067-.05 0-.017.017-.034.033-.05.37-.203.927-.354 1.567-.422.185-.016.37-.033.556-.033h.1c1.062.017 1.92.454 1.904.943-.017.488-.893.876-1.954.859-.337-.017-.674-.05-.943-.135-.034 0-.05-.034-.05-.067 0-.034.016-.068.05-.068.657-.151 1.112-.404 1.078-.64-.05-.32-.91-.488-1.937-.387-.118.034-.236.034-.337.05zm8.64 7.445c-.168.556-.404 1.263-1.431 1.785-.152.084-.203-.05-.135-.169.387-.673.454-.842.572-1.094.152-.388.236-.927-.067-2.072-.623-2.24-1.92-5.255-2.88-6.215-.91-.943-2.577-1.212-4.059-.825-.556.135-1.634.708-3.62.253-3.47-.775-3.992.96-4.178 1.718-.202.758-.673 2.897-.673 2.897-.152.875-.371 2.391 5.002 3.418 2.51.472 2.627 1.129 2.745 1.584.202.825.522 1.313.876 1.55.353.235 0 .437-.404.47-1.062.119-5.003-1.01-7.344-2.34-1.903-1.162-1.936-2.207-1.499-3.1-2.88-.302-5.035.27-5.44 1.634-.673 2.341 5.137 6.333 11.773 8.337 6.956 2.105 14.097.64 14.888-3.739.37-1.987-1.296-3.452-4.126-4.092z" fill="#E93442"/><path d="M38.514 27.986h.151l.22.37h.151l-.253-.37c.135-.017.22-.084.22-.236 0-.168-.102-.235-.304-.235h-.32v.858h.135v-.387zm0-.101v-.27h.168c.084 0 .186.017.186.118 0 .135-.102.135-.203.135h-.151v.017z"/><path d="M39.508 27.936a.845.845 0 01-.843.842.845.845 0 01-.842-.842c0-.455.37-.843.842-.843.455 0 .843.37.843.843zm-.843-.691a.683.683 0 00-.69.69c0 .371.303.691.69.691.388 0 .69-.303.69-.69a.694.694 0 00-.69-.691z"/><path d="M94.985 87.81c.017-.119.05-.22.068-.32a10.53 10.53 0 00.185-2.072c0-6.064-4.901-10.981-10.964-10.981-.842 0-1.668.1-2.46.286a14.066 14.066 0 00-11.923-6.552c-7.782 0-14.097 6.316-14.097 14.114 0 .185 0 .387.017.573a7.23 7.23 0 00-2.274-.37c-3.823 0-6.94 3.115-6.94 6.938 0 3.604 2.763 6.552 6.25 6.905l31.393.068c4.11 0 7.714-2.274 9.6-5.626.05-.1.118-.185.168-.286.304-.59.725-1.499.977-2.678z" fill="#50E6FF"/><path d="M34.354 71.877a1.931 1.931 0 011.987-1.87 1.95 1.95 0 011.87 2.004 1.931 1.931 0 01-1.988 1.87c-1.078-.05-1.92-.943-1.87-2.004zm5.153 1.903c.085-.05.152-.101.186-.118l.033-.05c-.067-.472-.774-2.73-1.297-3.268-.151-.152-.252-.286-.488-.438-1.903-1.112-6.417-1.785-6.619-1.802l-.034.017-.016.034s-.017.943-.017 1.044c-.455-.152-3.807-1.23-6.956-1.348-2.661-.1-6.535-.438-11.688 2.729l-.152.1c-2.425 1.517-4.093 3.37-4.952 5.525-.27.674-.64 2.206-.27 3.655.152.623.456 1.263.843 1.835.893 1.28 2.392 2.14 4.008 2.274 2.274.202 4.009-.825 4.615-2.728.421-1.314 0-3.268-1.617-4.244-1.313-.809-2.728-.624-3.553-.085-.708.472-1.112 1.213-1.112 2.005.017 1.431 1.246 2.189 2.139 2.189.253 0 .522-.05.808-.135a1.2 1.2 0 00.304-.134l.033-.017.017-.017a.714.714 0 00.32-.606.842.842 0 00-.034-.203.718.718 0 00-.825-.505l-.05.017-.068.017-.1.034c-.203.05-.354.05-.388.05a.707.707 0 01-.607-.724c0-.202.085-.354.135-.421.152-.253.59-.489 1.18-.438.774.067 1.33.455 1.683 1.213.337.69.253 1.549-.235 2.172-.472.623-1.33.876-2.46.758-1.145-.118-2.105-.791-2.643-1.802-.523-.994-.556-2.19-.068-3.099 1.162-2.19 3.335-2.156 4.53-1.954 1.77.303 3.79 1.937 4.498 3.823.117.304.168.54.218.758l.085.32 2.004.977.034.017h.05l.017-.05c-.017-.051-.034-.085-.084-.64-.034-.506-.118-1.853.572-2.527.27-.27.674-.505.994-.572 1.314-.32 2.846-.101 4.312 1.583.757.876 1.128 1.263 1.296 1.448l.068.05.067.051c.068.034 2.51 1.162 2.51 1.162l.05-.017v-.05c-.017-.017-1.55-2.004-1.28-3.621.22-1.297 1.247-1.179 2.678-1.01.472.05.994.117 1.55.134 1.532.017 3.183-.27 4.21-.724.657-.286 1.078-.472 1.347-.724.102-.085.152-.202.203-.337l.033-.084c.05-.118.101-.354.135-.472.017-.05.017-.118-.017-.151l-.135.033c-.454.27-1.566.775-2.61.809-1.297.033-3.907-1.314-4.177-1.449l-.034-.034c-.067-.151-.454-1.077-.539-1.28 1.887 1.247 3.436 1.92 4.632 2.038 1.246.034 2.29-.69 2.728-.993zm-2.964-1.735c-.337 0-.59-.185-.59-.404 0-.22.27-.404.59-.404.32 0 .59.185.59.404.017.236-.253.404-.59.404zm-.219-1.465a1.334 1.334 0 00-.96.353c-.27.253-.42.573-.42.944a1.363 1.363 0 001.296 1.398c.354.016.707-.118.96-.354.27-.253.421-.573.421-.943.034-.741-.556-1.365-1.297-1.398z" fill="#73BA25"/><path d="M20.324 83.043c-.842 0-1.313.724-1.313 1.212v.64c0 .725.59 1.18 1.145 1.18h1.937c.253 0 .303.168.303.303v.404c0 .05-.017.438-.303.438h-2.644c-.27 0-.455.185-.455.438v.117c0 .253.185.438.455.438h2.795c.725 0 1.196-.505 1.196-1.296v-.691c0-.741-.539-1.061-1.06-1.061h-1.904c-.286 0-.421-.219-.421-.37v-.388c0-.236.151-.37.438-.37h2.122a.439.439 0 00.455-.438v-.118c0-.253-.202-.438-.472-.438h-2.274zm7.933 0a.453.453 0 00-.455.455v3.25a.482.482 0 01-.471.472h-1.482a.47.47 0 01-.472-.472v-3.25a.453.453 0 00-.455-.455h-.134a.453.453 0 00-.455.455v3.368c0 .792.623 1.347 1.465 1.347h1.583c.842 0 1.465-.572 1.465-1.347v-3.368a.453.453 0 00-.454-.455h-.135zm2.829 0c-.842 0-1.313.724-1.313 1.212v.64c0 .725.59 1.18 1.145 1.18h1.937c.252 0 .303.168.303.303v.404c0 .05-.017.438-.303.438H30.21c-.27 0-.455.185-.455.438v.117c0 .253.185.438.455.438h2.795c.725 0 1.196-.505 1.196-1.296v-.691c0-.741-.539-1.061-1.06-1.061h-1.904c-.286 0-.421-.219-.421-.37v-.388c0-.236.151-.37.438-.37h2.122a.439.439 0 00.455-.438v-.118c0-.253-.203-.438-.472-.438h-2.274zm4.464 0a.425.425 0 00-.438.438v4.294c0 .253.185.438.438.438h3.419c.27 0 .454-.185.454-.438v-.134c0-.253-.185-.438-.454-.438h-2.813v-1.078h2.055c.27 0 .455-.185.455-.438v-.118c0-.252-.186-.438-.455-.438h-2.055v-1.128h2.661c.27 0 .455-.185.455-.438v-.118c0-.252-.185-.438-.455-.438l-3.267.034zM6.278 87.371V85.89a.32.32 0 01.32-.32h.808c.169 0 .32.152.32.32v1.482a.32.32 0 01-.32.32h-.825c-.168 0-.303-.135-.303-.32zm.219-2.29c-.421 0-.775.337-.775.74v1.618c0 .42.337.758.758.758h1.044a.755.755 0 00.758-.758v-1.617c0-.404-.354-.741-.775-.741h-1.01zm3.099 2.257v-1.415c0-.202.151-.354.354-.354h.757c.202 0 .354.152.354.354v1.415a.356.356 0 01-.354.353H9.95a.345.345 0 01-.354-.353zm1.044-2.274c-.303 0-.522.101-.707.202-.118.05-.202.101-.287.101a.129.129 0 01-.084-.034l-.067-.134a.21.21 0 00-.169-.101h-.1c-.102 0-.186.084-.186.202v4.11a.23.23 0 00.236.235h.084a.23.23 0 00.236-.236v-1.364c0-.034.034-.084.05-.084.068 0 .169.05.287.1.185.085.404.186.707.186h.101c.539 0 .859-.303.859-.791v-1.567c0-.488-.337-.791-.859-.791l-.101-.034zm2.29.826c0-.17.135-.304.304-.304h.842c.168 0 .303.135.303.303v.505h-1.465c.017-.067.017-.505.017-.505zm.22-.81c-.422 0-.775.338-.775.742v1.6c0 .42.337.775.74.775h1.079c.134 0 .236-.085.236-.22v-.067c0-.118-.102-.219-.236-.219H13.3c-.253 0-.387-.118-.387-.353v-.472h1.6c.252 0 .404-.152.404-.421v-.623c0-.404-.354-.741-.775-.741h-.994zm4.008-.016c-.303 0-.522.101-.707.202-.118.05-.22.101-.287.101-.033 0-.05 0-.084-.05l-.067-.118a.207.207 0 00-.185-.118h-.085c-.1 0-.185.084-.185.202v2.695a.23.23 0 00.236.235h.084a.23.23 0 00.236-.235V85.94c0-.186.151-.354.354-.354h.758c.185 0 .353.152.353.354v2.038a.23.23 0 00.236.235h.084a.23.23 0 00.236-.235v-2.106c0-.488-.337-.791-.859-.791h-.118v-.017zm22.939 2.493h.05c.068 0 .118-.017.118-.085 0-.033-.033-.084-.118-.084h-.05v.169zm0 .269h-.068v-.471c.034 0 .085-.017.135-.017a.35.35 0 01.152.033c.033.017.05.05.05.101 0 .068-.033.101-.1.118.033 0 .067.05.084.118.016.067.016.101.033.118H40.3c-.017-.017-.017-.05-.034-.118-.017-.067-.033-.084-.1-.084h-.051l-.017.202zm.067-.606c-.185 0-.337.168-.337.353 0 .203.152.354.337.354a.342.342 0 00.337-.354c.017-.202-.135-.353-.337-.353 0 0 .017 0 0 0zm.017-.068c.236 0 .421.186.421.421a.417.417 0 01-.42.421.417.417 0 01-.422-.42c-.017-.236.185-.422.421-.422 0 0-.017 0 0 0z" fill="#73BA25"/></svg>