<svg xmlns="http://www.w3.org/2000/svg" viewBox="0 0 18 18"><defs><linearGradient id="a" x1="8.22" y1="8.09" x2="8.22" y2="4.71" gradientUnits="userSpaceOnUse"><stop offset="0" stop-color="#773adc"/><stop offset="1" stop-color="#b77af4"/></linearGradient><linearGradient id="b" x1="2.36" y1="12.63" x2="2.36" y2="9.25" gradientUnits="userSpaceOnUse"><stop offset="0" stop-color="#773adc"/><stop offset="1" stop-color="#b77af4"/></linearGradient><linearGradient id="c" x1="8.22" y1="17.5" x2="8.22" y2="14.12" gradientUnits="userSpaceOnUse"><stop offset="0" stop-color="#773adc"/><stop offset="1" stop-color="#b77af4"/></linearGradient><linearGradient id="d" x1="14.08" y1=".5" x2="14.08" y2="11.54" gradientUnits="userSpaceOnUse"><stop offset="0" stop-color="#b77af4"/><stop offset=".62" stop-color="#8c4fe4"/><stop offset="1" stop-color="#773adc"/></linearGradient></defs><circle cx="14.08" cy="10.94" r="1.34" fill="#9cebff"/><path d="M14.08 8.56a2.36 2.36 0 00-1.41.44L8.22 5.87l-7.14 5.07 7.14 5.42 4.53-3.44a2.42 2.42 0 001.33.4 2.38 2.38 0 100-4.76zm-1.61.63zm-4.25 5.87L2.83 11l5.39-3.86L12 9.82a2.32 2.32 0 00-.28 1.12 2.4 2.4 0 00.28 1.22zm4.07-5.69zm-.16.21zm.21 3zm-.16-.19zm.35.37zm1.55-.45a1.35 1.35 0 110-2.69 1.35 1.35 0 010 2.69z" fill="#50e6ff"/><circle cx="8.22" cy="6.4" r="1.69" fill="url(#a)"/><circle cx="2.36" cy="10.94" r="1.69" fill="url(#b)"/><circle cx="8.22" cy="15.81" r="1.69" fill="url(#c)"/><path d="M14.08.5A3.35 3.35 0 0010.83 4c0 1.53 1.94 5.11 2.82 7.25a.46.46 0 00.85 0c.89-2.16 2.83-5.77 2.83-7.25A3.4 3.4 0 0014.08.5zm0 4.74a1.45 1.45 0 111.44-1.44 1.44 1.44 0 01-1.44 1.44z" fill="url(#d)"/></svg>