<svg xmlns="http://www.w3.org/2000/svg" viewBox="0 0 18 18"><defs><radialGradient id="b" cx="6.58" cy="10.43" r="6.46" gradientUnits="userSpaceOnUse"><stop offset="0" stop-color="#f2f2f2"/><stop offset=".58" stop-color="#eee"/><stop offset="1" stop-color="#e6e6e6"/></radialGradient><linearGradient id="a" x1=".4" y1="10.06" x2="12.11" y2="10.06" gradientUnits="userSpaceOnUse"><stop offset="0" stop-color="#005ba1"/><stop offset=".07" stop-color="#0060a9"/><stop offset=".36" stop-color="#0071c8"/><stop offset=".52" stop-color="#0078d4"/><stop offset=".64" stop-color="#0074cd"/><stop offset=".82" stop-color="#006abb"/><stop offset="1" stop-color="#005ba1"/></linearGradient></defs><path d="M6.26 5.48C3 5.48.4 4.53.4 3.36v11.28c0 1.16 2.6 2.11 5.78 2.12h.08c3.23 0 5.85-1 5.85-2.12V3.36c0 1.17-2.62 2.12-5.85 2.12z" fill="url(#a)"/><path d="M12.11 3.36c0 1.17-2.62 2.12-5.85 2.12S.4 4.53.4 3.36 3 1.24 6.26 1.24s5.85 1 5.85 2.12" fill="#e8e8e8"/><path d="M10.75 3.19c0 .74-2 1.35-4.49 1.35s-4.49-.61-4.49-1.35 2-1.35 4.49-1.35 4.49.6 4.49 1.35" fill="#50e6ff"/><path d="M6.26 3.5A10.93 10.93 0 002.7 4a10.48 10.48 0 003.56.53A10.41 10.41 0 009.81 4a10.86 10.86 0 00-3.55-.5z" fill="#198ab3"/><path d="M9.82 11.19V8.11H9v3.77h2.24v-.69zM3.3 9.67a2.26 2.26 0 01-.47-.28.44.44 0 01-.11-.3.35.35 0 01.14-.28.64.64 0 01.39-.1 1.56 1.56 0 01.87.29v-.81A2.46 2.46 0 003.2 8a1.5 1.5 0 00-1 .31 1 1 0 00-.38.81 1.24 1.24 0 00.87 1.11 2.6 2.6 0 01.56.32.42.42 0 01.14.3.32.32 0 01-.15.28.66.66 0 01-.4.11 1.48 1.48 0 01-1-.39v.84a2 2 0 001 .22 1.72 1.72 0 001.07-.3 1 1 0 00.39-.83.92.92 0 00-.22-.64 2.21 2.21 0 00-.78-.47zM8 11.12A2.14 2.14 0 008.34 10a2.09 2.09 0 00-.23-1 1.66 1.66 0 00-.63-.68A1.85 1.85 0 006.54 8a1.92 1.92 0 00-1 .25 1.65 1.65 0 00-.66.75 2.38 2.38 0 000 2 1.72 1.72 0 00.63.68 2 2 0 00.89.32l.78.87h1.1l-1.09-1a1.61 1.61 0 00.81-.75zm-.85-.23a.85.85 0 01-.7.32.83.83 0 01-.69-.33 1.4 1.4 0 01-.22-.88 1.37 1.37 0 01.27-.89.83.83 0 01.7-.34.81.81 0 01.69.34 1.44 1.44 0 01.25.9 1.36 1.36 0 01-.26.88z" fill="url(#b)"/><path d="M14.58 1.34h-3.65a.29.29 0 00-.29.29V9.5a.29.29 0 00.29.29h6.33a.29.29 0 00.29-.29V4.29a.29.29 0 00-.29-.29h-2.1a.29.29 0 01-.29-.29V1.63a.29.29 0 00-.29-.29z" fill="#fff"/><path d="M14.45 1.71v2a.72.72 0 00.72.72h2v5H11V1.71h3.42m.14-.43h-3.7a.29.29 0 00-.3.29v8a.29.29 0 00.3.29h6.42a.29.29 0 00.29-.29v-5.3a.29.29 0 00-.26-.27h-2.14a.29.29 0 01-.29-.29V1.57a.29.29 0 00-.29-.29z" fill="#50e6ff"/><path d="M17.49 4l-2.71-2.7v2.2a.5.5 0 00.49.5z" fill="#32bedd"/><rect x="12.05" y="5.88" width="4.08" height=".54" rx=".27" fill="#32bedd"/><rect x="12.05" y="6.79" width="4.08" height=".54" rx=".27" fill="#32bedd"/><rect x="12.05" y="7.72" width="2.19" height=".5" rx=".25" fill="#32bedd"/></svg>