<svg xmlns="http://www.w3.org/2000/svg" viewBox="0 0 49 49"><path d="M43.029 13.813H5.504C2.783 13.813.6 11.63.6 8.939a4.887 4.887 0 014.904-4.904h37.555a4.906 4.906 0 014.903 4.904 4.926 4.926 0 01-4.933 4.874z" fill="#50E6FF"/><path d="M27.092 13.815h-5.8a4.906 4.906 0 01-4.904-4.904 4.907 4.907 0 014.903-4.903h5.801a4.907 4.907 0 014.904 4.903c-.03 2.721-2.213 4.904-4.904 4.904z" fill="#0078D4"/><path d="M43.029 29.631H5.504A4.887 4.887 0 01.6 24.729a4.906 4.906 0 014.904-4.904h37.555a4.906 4.906 0 014.903 4.904 4.932 4.932 0 01-4.933 4.903z" fill="#50E6FF"/><path d="M11.454 29.631h-5.95A4.887 4.887 0 01.6 24.729a4.906 4.906 0 014.904-4.904h5.95a4.906 4.906 0 014.904 4.904c-.03 2.72-2.213 4.903-4.904 4.903z" fill="#0078D4"/><path d="M5.504 35.492h37.555a4.906 4.906 0 014.903 4.904A4.906 4.906 0 0143.06 45.3H5.504A4.906 4.906 0 01.6 40.395a4.887 4.887 0 014.904-4.904z" fill="#50E6FF"/><path d="M37.078 35.492h5.95a4.906 4.906 0 014.904 4.904A4.906 4.906 0 0143.03 45.3h-5.95a4.906 4.906 0 01-4.904-4.904c.03-2.721 2.212-4.904 4.904-4.904z" fill="#0078D4"/></svg>