<svg xmlns="http://www.w3.org/2000/svg" viewBox="0 0 14062 14064" data-type="1"><path fill="none" d="M0 1h14062v14062H0z"/><path d="M1612 2533C696 3642 111 5037 15 6564h3765c68-495 246-955 510-1353L1612 2533z" class="msportalfx-svg-c14" fill="#7fba00"/><path d="M6563 0C5043 100 3654 682 2550 1596l2677 2677c395-259 848-437 1336-507V0z" class="msportalfx-svg-c13" fill="#b8d432"/><path d="M11512 1597C10408 683 9021 100 7501 0v3766c488 70 941 247 1335 507l2676-2676z" class="msportalfx-svg-c97" fill="#ffb900"/><path d="M14046 7484c10-155 16-312 16-469 0-1703-604-3263-1612-4481L9774 5211c341 518 539 1137 539 1804 0 159-11 316-33 469h3766z" class="msportalfx-svg-c09" fill="#dd5900"/><path d="M1612 11531C696 10422 111 9027 15 7501h3765c68 494 246 954 510 1353l-2678 2677z" class="msportalfx-svg-c14" fill="#7fba00"/><path fill="#49A5DC" d="M7936 10305l2376 2376v1382H8930l-2377-2376c-550 316-1188 498-1867 498-2069 0-3748-1681-3748-3749 0-2065 1683-3748 3748-3748 2068 0 3749 1679 3749 3748 0 680-180 1319-499 1869z"/><path fill="#83E7F1" d="M7499 8436c0-1553-1261-2811-2813-2811-1554 0-2811 1256-2811 2811 0 1551 1259 2812 2811 2812 1556 0 2813-1256 2813-2812z"/></svg>