<svg xmlns="http://www.w3.org/2000/svg" viewBox="0 0 49 49"><path d="M29.205 18.114a5.03 5.03 0 01-5.05 5.04 5.03 5.03 0 01-5.05-5.04 5.03 5.03 0 015.05-5.04 5.03 5.03 0 015.05 5.04zM12.756 38.272c0-6.237 5.05-11.327 11.35-11.327 6.25 0 11.35 5.09 11.35 11.327h-22.7z" fill="#50E6FF"/><path d="M12.755.55L.155.5v12.674h5V5.589h7.6V.55zm35.35 12.574l.05-12.573h-12.7v4.99h7.6v7.583h5.05zM35.506 48.498h12.65V35.824h-5v7.584h-7.65v5.09zM.205 35.875l-.05 12.574h12.7v-4.94h-7.6v-7.634H.205z" fill="#0078D4"/></svg>