<svg xmlns="http://www.w3.org/2000/svg" viewBox="0 0 48 48"><path d="M37.864 10.188H48V.056H37.864v10.132zm-12.567 0h10.136V.056H25.297v10.132zm-12.697 0h10.136V.056H12.6v10.132zM0 10.141h10.094V.051H0v10.09zm37.863 12.543H48V12.552H37.864v10.132zm-12.567 0h10.136V12.552H25.296v10.132zm-12.696 0h10.136V12.552H12.6v10.132zM0 22.64h10.094V12.552H0v10.09zm37.864 12.735H48V25.244H37.864v10.131zm-12.567 0h10.136V25.244H25.297v10.131zm-12.697 0h10.136V25.244H12.6v10.131zM0 35.328h10.094v-10.09H0v10.09zM37.863 48H48V37.868H37.864V48zm-12.567 0h10.136V37.868H25.296V48zM12.6 48h10.136V37.868H12.6V48zM0 47.957h10.094v-10.09H0v10.09z" fill="#50E6FF"/><path d="M7.578 42.959c0-9.113 7.381-16.49 16.498-16.49 9.116 0 16.497 7.377 16.497 16.49H7.578zM33.48 14.513c0 5.162-4.188 9.348-9.353 9.348s-9.353-4.186-9.353-9.348c0-5.163 4.188-9.349 9.353-9.349s9.352 4.186 9.352 9.349z" fill="#0078D7"/></svg>