<svg xmlns="http://www.w3.org/2000/svg" viewBox="0 0 48 49"><path d="M19.369.96h-5.053v5.054h5.053V.96z" fill="#0078D4"/><path d="M26.526.96h-5.052v5.054h5.052V.96z" fill="#50E6FF"/><path d="M26.526 8.117h-5.052v5.053h5.052V8.117z" fill="#0078D4"/><path d="M33.684 8.117h-5.052v5.053h5.052V8.117z" fill="#50E6FF"/><path d="M33.684 15.277h-5.052v5.053h5.052v-5.053z" fill="#0078D4"/><path d="M40.842 15.277H35.79v5.053h5.052v-5.053z" fill="#50E6FF"/><path d="M5.053 22.434H0v5.052h5.053v-5.052zm7.157 0H7.159v5.052h5.053v-5.052zm7.159 0h-5.053v5.052h5.053v-5.052zM24 27.486a2.523 2.523 0 01-2.526-2.526A2.523 2.523 0 0124 22.434a2.523 2.523 0 012.526 2.526A2.534 2.534 0 0124 27.486zm9.684-5.052h-5.052v5.052h5.052v-5.052zm7.158 0H35.79v5.052h5.052v-5.052z" fill="#0078D4"/><path d="M48 22.434h-5.053v5.052H48v-5.052z" fill="#50E6FF"/><path d="M33.684 29.594h-5.052v5.052h5.052v-5.052z" fill="#0078D4"/><path d="M38.316 34.646a2.523 2.523 0 01-2.526-2.526 2.523 2.523 0 012.526-2.526 2.523 2.523 0 012.526 2.526 2.534 2.534 0 01-2.526 2.526z" fill="#50E6FF"/><path d="M24 41.803a2.523 2.523 0 01-2.526-2.527A2.523 2.523 0 0124 36.75a2.523 2.523 0 012.526 2.526A2.534 2.534 0 0124 41.803z" fill="#0078D4"/><path d="M33.684 36.75h-5.052v5.053h5.052V36.75z" fill="#50E6FF"/><path d="M19.369 43.91h-5.053v5.053h5.053V43.91z" fill="#0078D4"/><path d="M26.526 43.91h-5.052v5.053h5.052V43.91z" fill="#50E6FF"/></svg>