<svg xmlns="http://www.w3.org/2000/svg" viewBox="0 0 16 16"><path d="M15.715 5.875a7.918 7.918 0 00-.809-1.91 8.11 8.11 0 00-1.254-1.617A7.958 7.958 0 0010.125.285 7.89 7.89 0 008 0a7.89 7.89 0 00-4.035 1.094 8.11 8.11 0 00-1.617 1.254 8.037 8.037 0 00-1.254 1.617A7.918 7.918 0 000 8c0 .74.095 1.449.285 2.129.19.68.458 1.316.805 1.91a7.924 7.924 0 001.25 1.621 7.924 7.924 0 001.621 1.25 8.052 8.052 0 001.914.805A7.89 7.89 0 008 16a7.89 7.89 0 004.035-1.094 8.11 8.11 0 001.617-1.254 7.958 7.958 0 002.063-3.527C15.905 9.443 16 8.734 16 8s-.095-1.442-.285-2.125zm-.965 3.988a6.987 6.987 0 01-1.801 3.086 7.046 7.046 0 01-1.414 1.094A6.947 6.947 0 018 15a6.872 6.872 0 01-1.863-.25 7.118 7.118 0 01-1.672-.703 6.92 6.92 0 01-1.418-1.094 6.92 6.92 0 01-1.094-1.418 7.1 7.1 0 01-.703-1.672A6.872 6.872 0 011 8c0-.646.083-1.267.25-1.863a7.022 7.022 0 013.215-4.18 6.987 6.987 0 011.672-.707C6.733 1.083 7.354 1 8 1s1.267.083 1.863.25a7.004 7.004 0 014.18 3.215c.305.519.54 1.076.707 1.672.167.596.25 1.217.25 1.863 0 .646-.083 1.267-.25 1.863z"/><path d="M6 4v8l6-4.023L6 4zm1 1.859l3.195 2.125L7 10.125V5.859z"/></svg>