<svg xmlns="http://www.w3.org/2000/svg" viewBox="0 0 24 24"><path d="M9 9a1.477 1.477 0 011.066.445c.133.133.239.29.317.47.078.179.117.374.117.585v9c0 .21-.04.406-.117.586-.078.18-.184.34-.317.48-.14.133-.3.239-.48.317C9.406 20.96 9.21 21 9 21c-.21 0-.406-.04-.586-.117a1.503 1.503 0 01-.469-.317c-.14-.14-.25-.3-.328-.48A1.453 1.453 0 017.5 19.5v-9a1.412 1.412 0 01.445-1.055A1.412 1.412 0 019 9zm4.5 3a1.477 1.477 0 011.066.445c.133.133.239.29.317.47.078.179.117.374.117.585v6c0 .21-.04.406-.117.586-.078.18-.184.34-.317.48-.14.133-.3.239-.48.317-.18.078-.375.117-.586.117-.21 0-.406-.04-.586-.117a1.503 1.503 0 01-.469-.317c-.14-.14-.25-.3-.328-.48A1.454 1.454 0 0112 19.5v-6a1.412 1.412 0 01.445-1.055A1.412 1.412 0 0113.5 12zm-9 1.5a1.477 1.477 0 011.066.445c.133.133.239.29.317.47.078.179.117.374.117.585v4.5c0 .21-.04.406-.117.586-.078.18-.184.34-.317.48-.14.133-.3.239-.48.317-.18.078-.375.117-.586.117-.21 0-.406-.04-.586-.117a1.503 1.503 0 01-.469-.317c-.14-.14-.25-.3-.328-.48A1.453 1.453 0 013 19.5V15a1.412 1.412 0 01.445-1.055A1.412 1.412 0 014.5 13.5zm13.5-6a1.477 1.477 0 011.066.445c.133.133.239.29.317.47.078.179.117.374.117.585v10.5c0 .21-.04.406-.117.586-.078.18-.184.34-.317.48-.14.133-.3.239-.48.317-.18.078-.375.117-.586.117-.21 0-.406-.04-.586-.117a1.503 1.503 0 01-.469-.317c-.14-.14-.25-.3-.328-.48a1.454 1.454 0 01-.117-.586V9a1.412 1.412 0 01.445-1.055A1.412 1.412 0 0118 7.5zM21 3a2.961 2.961 0 012.121.879c.274.273.488.594.645.96.156.36.234.747.234 1.161v9a2.96 2.96 0 01-.879 2.121A2.96 2.96 0 0121 18v-1.5c.21 0 .406-.04.586-.117.18-.078.34-.184.48-.317.133-.14.239-.3.317-.48.078-.18.117-.375.117-.586V6c0-.21-.04-.406-.117-.586a1.503 1.503 0 00-.317-.469c-.14-.14-.3-.25-.48-.328A1.453 1.453 0 0021 4.5H3a1.412 1.412 0 00-1.055.445A1.412 1.412 0 001.5 6v11.602A2.953 2.953 0 010 15V6a3.012 3.012 0 01.879-2.121 3.02 3.02 0 01.96-.645A2.895 2.895 0 013 3h18z" fill="#3A3A38"/></svg>