<svg xmlns="http://www.w3.org/2000/svg" viewBox="0 0 18 18"><defs><linearGradient id="a" x1="9" y1="15.834" x2="9" y2="5.788" gradientUnits="userSpaceOnUse"><stop offset="0" stop-color="#32bedd"/><stop offset=".175" stop-color="#32caea"/><stop offset=".41" stop-color="#32d2f2"/><stop offset=".775" stop-color="#32d4f5"/></linearGradient></defs><path d="M.5 5.788h17v9.478a.568.568 0 01-.568.568H1.068a.568.568 0 01-.568-.568V5.788z" fill="url(#a)"/><path d="M1.071 2.166h15.858a.568.568 0 01.568.568v3.054H.5V2.734a.568.568 0 01.571-.568z" fill="#0078d4"/><path d="M2.825 7.979l.369-.37a.167.167 0 01.236-.001l2.732 2.724a.335.335 0 010 .474l-.368.37-2.968-2.96a.167.167 0 010-.237z" fill="#f2f2f2"/><path d="M3.249 13.504l-.37-.37a.167.167 0 010-.236l2.916-2.925.37.368a.335.335 0 010 .474l-2.683 2.691a.167.167 0 01-.236 0z" fill="#e6e6e6"/><rect x="7.221" y="12.64" width="4.771" height="1.011" rx=".291" fill="#f2f2f2"/></svg>