<svg xmlns="http://www.w3.org/2000/svg" viewBox="0 0 49 49"><path d="M24.4 38.341c-7.595 0-13.751-6.155-13.751-13.751 0-7.596 6.156-13.752 13.751-13.752V.59c-13.254 0-24 10.745-24 24s10.746 24 24 24c6.72 0 12.8-2.762 17.154-7.217l-7.25-7.242a13.717 13.717 0 01-9.904 4.21z" fill="#0078D4"/><path d="M38.152 24.203H48.4C48.19 11.125 37.53.59 24.4.59v10.248c7.47 0 13.541 5.946 13.752 13.365z" fill="#50E6FF"/><path d="M24.4 36.092c6.28 0 11.37-5.09 11.37-11.368 0-6.279-5.09-11.369-11.37-11.369-6.278 0-11.368 5.09-11.368 11.369s5.09 11.368 11.369 11.368z" fill="#50E6FF"/><path d="M27.373 24.908c-.472-.497-1.263-.943-2.367-1.355v-2.838c.876.118 1.668.362 2.367.791v-2.03c-.522-.294-1.314-.47-2.367-.521v-1.373h-1.103v1.398c-.875.067-1.625.379-2.18.943-.565.564-.86 1.238-.86 2.03 0 .791.228 1.414.7 1.911.446.489 1.237.943 2.34 1.348v2.728c-.446-.025-.968-.16-1.55-.362-.606-.22-1.035-.421-1.313-.649v2.072a5.975 5.975 0 002.838.699v1.575h1.112v-1.617c1.01-.118 1.776-.43 2.299-.927.513-.488.783-1.17.783-2.004 0-.74-.228-1.347-.7-1.819zm-3.47-1.802c-.69-.345-1.035-.766-1.035-1.313 0-.581.345-.944 1.035-1.078v2.391zm1.087 4.817V25.65c.715.32 1.078.69 1.078 1.188 0 .59-.363.951-1.078 1.086z" fill="#0078D4"/><path d="M48.358 24.59c0-.126 0-.26-.008-.387H38.152c0 .126.008.253.008.387 0 3.706-1.465 7.074-3.848 9.542l7.234 7.216a23.949 23.949 0 006.812-16.758z" fill="#50E6FF"/></svg>