<svg xmlns="http://www.w3.org/2000/svg" viewBox="0 0 61 61"><path d="M17.143 43.499L57.21 3.395l.035 54.378H2.868l14.275-14.274z" fill="#0078D4"/><path d="M43.433 32.015h8.094v8.095l-8.094-8.095zm-27.686-2.862c7.113 0 12.88-5.766 12.88-12.88 0-7.112-5.767-12.878-12.88-12.878S2.868 9.16 2.868 16.274c0 7.113 5.766 12.879 12.88 12.879z" fill="#50E6FF"/><path d="M19.11 16.486c-.534-.562-1.43-1.07-2.676-1.532v-3.212c.99.129 1.884.406 2.677.894v-2.297c-.59-.332-1.485-.536-2.677-.59V8.196h-1.255v1.58c-.989.074-1.836.434-2.473 1.071a3.147 3.147 0 00-.97 2.297c0 .895.257 1.607.792 2.17.509.556 1.403 1.071 2.65 1.526v3.091c-.508-.027-1.098-.183-1.755-.414-.692-.25-1.172-.477-1.484-.738v2.344c.988.527 2.092.8 3.213.793v1.782h1.258v-1.83c1.145-.128 2.014-.488 2.604-1.049.59-.56.888-1.322.888-2.271-.004-.84-.255-1.526-.791-2.062zm-3.93-2.04c-.787-.381-1.173-.867-1.173-1.484 0-.658.386-1.071 1.172-1.22v2.705zm1.23 5.456v-2.576c.814.36 1.22.786 1.22 1.349-.004.666-.41 1.072-1.22 1.227z" fill="#0078D4"/><path d="M45.792 32.015H34.344v5.724h7.4L30.438 49.046l4.047 4.048 11.307-11.307v7.4h5.724V32.015h-5.724z" fill="#50E6FF"/></svg>