<svg xmlns="http://www.w3.org/2000/svg" viewBox="0 0 48 49"><path d="M23.907 48.48c13.247 0 23.908-10.737 23.908-23.907C47.89 11.327 37.154.59 23.908.59 10.737.59 0 11.327 0 24.497 0 37.743 10.737 48.48 23.907 48.48z" fill="#50E6FF"/><path d="M30.215 24.925c-1.002-1.078-2.652-2.004-4.943-2.863v-5.945c1.861.219 3.512.791 4.943 1.65v-4.294c-1.078-.649-2.796-1.002-4.943-1.078V9.532h-2.366v2.939c-1.861.143-3.436.791-4.581 2.004-.573.572-1.002 1.22-1.364 1.937-.287.715-.506 1.507-.43 2.29 0 1.65.505 3.006 1.507 4.008.935 1.003 2.577 2.005 4.944 2.864V31.3c-.935-.076-2.08-.362-3.293-.792-1.288-.505-2.148-.859-2.796-1.364v4.37a12.424 12.424 0 005.945 1.508v3.293h2.367v-3.369c2.147-.219 3.722-.934 4.867-1.937 1.078-1.078 1.65-2.433 1.65-4.227-.075-1.634-.505-2.855-1.507-3.857zm-7.31-3.79c-1.43-.715-2.147-1.65-2.147-2.795 0-1.221.716-2.004 2.148-2.29v5.086zm2.291 10.098v-4.8c1.508.648 2.29 1.431 2.29 2.51-.067 1.287-.782 2.003-2.29 2.29z" fill="#0078D4"/></svg>