<svg xmlns="http://www.w3.org/2000/svg" viewBox="0 0 48 49"><path d="M24.006 5.505h.041V1.09c-8.623 0-15.997 4.266-20.313 11.748l3.754 2.166c3.306-5.68 9.466-9.499 16.518-9.499z" fill="#50E6FF"/><path d="M7.487 15.01l-3.754-2.174c-4.315 7.482-4.315 16.014 0 23.496l3.746-2.166a18.97 18.97 0 01-2.572-9.573c0-3.49.943-6.771 2.58-9.582zm16.519 28.682c-7.052 0-13.21-3.828-16.518-9.516l-3.745 2.166C8.06 43.824 15.425 48.09 24.056 48.09v-4.398h-.05z" fill="#0078D4"/><path d="M47.501 24.586c0-12.98-10.5-23.496-23.454-23.496v4.415c10.524.025 19.048 8.565 19.048 19.09 0 10.524-8.524 19.072-19.048 19.097v4.398c12.955 0 23.454-10.524 23.454-23.504z" fill="#0078D4"/><path d="M26.618 28.515c0-.793-.587-1.446-1.753-1.959v3.712c1.174-.19 1.753-.769 1.753-1.753zm-3.539-6.093v-3.885c-1.132.206-1.703.793-1.703 1.777.008.86.57 1.563 1.703 2.108zm6.796 5.92c0 1.356-.43 2.447-1.281 3.266-.852.826-2.092 1.33-3.729 1.52v2.654H23.08v-2.579c-1.678-.017-3.224-.389-4.63-1.124v-3.39c.439.356 1.141.711 2.109 1.05.967.339 1.802.53 2.513.579v-4.456c-1.802-.67-3.084-1.406-3.828-2.2-.752-.793-1.124-1.843-1.124-3.141s.463-2.39 1.38-3.282c.927-.893 2.117-1.414 3.572-1.563v-2.273h1.786v2.224c1.72.082 3.01.355 3.852.835v3.307c-1.132-.687-2.422-1.108-3.852-1.274v4.638c1.802.654 3.092 1.39 3.852 2.2.786.818 1.166 1.818 1.166 3.009z" fill="#0078D4"/></svg>