<svg xmlns="http://www.w3.org/2000/svg" viewBox="0 0 49 49"><path d="M24.607 5.504h.04V1.09c-8.622 0-15.996 4.266-20.312 11.748l3.753 2.167c3.307-5.68 9.467-9.5 16.519-9.5z" fill="#0078D4"/><path d="M8.087 15.01l-3.753-2.174C.02 20.318.02 28.85 4.334 36.332l3.745-2.166a18.97 18.97 0 01-2.571-9.573c0-3.49.943-6.771 2.58-9.582zm16.52 28.683c-7.052 0-13.211-3.828-16.518-9.516l-3.745 2.166c4.315 7.482 11.681 11.748 20.312 11.748v-4.398h-.05z" fill="#50E6FF"/><path d="M48.102 24.585c0-12.98-10.5-23.496-23.455-23.496v4.415c10.525.025 19.048 8.565 19.048 19.09 0 10.524-8.523 19.072-19.048 19.097v4.398c12.955 0 23.455-10.524 23.455-23.504z" fill="#50E6FF"/><path d="M27.219 28.515c0-.794-.587-1.447-1.753-1.96v3.712c1.174-.19 1.753-.768 1.753-1.752zm-3.539-6.093v-3.886c-1.133.207-1.703.794-1.703 1.777.008.86.57 1.563 1.703 2.109zm6.796 5.92c0 1.355-.43 2.446-1.281 3.265-.852.827-2.092 1.33-3.73 1.52v2.655H23.68v-2.58c-1.678-.016-3.224-.388-4.63-1.124v-3.39c.439.356 1.141.711 2.109 1.05.967.34 1.802.53 2.513.579v-4.456c-1.802-.67-3.084-1.405-3.828-2.2-.752-.793-1.124-1.843-1.124-3.14 0-1.299.463-2.39 1.38-3.283.926-.893 2.117-1.414 3.572-1.563v-2.273h1.786v2.224c1.72.083 3.009.355 3.852.835v3.307c-1.132-.686-2.422-1.108-3.852-1.273v4.638c1.802.653 3.092 1.389 3.852 2.199.786.818 1.166 1.819 1.166 3.01z" fill="#0078D4"/></svg>