<svg xmlns="http://www.w3.org/2000/svg" viewBox="0 0 48 48"><path d="M41.857 39.966a23.96 23.96 0 006.067-14.728H43.01a18.898 18.898 0 01-4.645 11.234l3.492 3.494z" fill="#0078D4"/><path d="M6.16 7.882A23.938 23.938 0 000 22.703h5.133A18.944 18.944 0 019.77 11.495L6.16 7.882z" fill="#1A1A1F"/><path d="M7.97 41.878a23.916 23.916 0 0014.81 6.088v-5.035a18.885 18.885 0 01-11.21-4.657l-3.6 3.604zM0 25.238a23.922 23.922 0 006.143 14.821l3.61-3.613a18.979 18.979 0 01-4.62-11.208H0z" fill="#0078D4"/><path d="M41.84 7.975l-3.492 3.495A18.834 18.834 0 0143 22.703h4.915A23.9 23.9 0 0041.84 7.975z" fill="#1A1A1F"/><path d="M25.313 47.95a23.9 23.9 0 0014.735-6.156l-3.501-3.503a18.91 18.91 0 01-11.243 4.64v5.019h.009z" fill="#0078D4"/><path d="M25.313.008v5.02c4.283.277 8.18 1.97 11.226 4.623l3.5-3.504A23.948 23.948 0 0025.313.008zM22.78 0A23.924 23.924 0 007.978 6.072l3.601 3.604a18.932 18.932 0 0111.192-4.649V0h.009z" fill="#1A1A1F"/><path d="M36.791 25.718c.008-.06.025-.118.034-.169a5.8 5.8 0 00.1-1.086 5.773 5.773 0 00-5.772-5.777c-.446 0-.875.05-1.288.152a7.426 7.426 0 00-13.691 4.278 3.703 3.703 0 00-1.195-.194 3.65 3.65 0 00-3.652 3.655 3.662 3.662 0 003.29 3.638l16.536.033a5.783 5.783 0 005.049-2.964c.025-.05.059-.1.084-.151.152-.32.37-.8.505-1.415z" fill="#0078D4"/></svg>