<svg xmlns="http://www.w3.org/2000/svg" viewBox="0 0 50.079 50"><path fill="#fed142" d="M23.96 49.98c-6.1-.22-9.86-2.03-10.82-5.2l-.1-.35-.03-6.2c0-7.07 0-7.2.38-8.34.7-2.07 2.3-3.4 4.86-3.97l.56-.13 7-.03c5-.02 7.08-.05 7.32-.1a6.83 6.83 0 003.18-1.24 6.68 6.68 0 002.27-3.53c.28-1.07.27-.95.3-4.72l.03-3.5h5.04l.5.14c2.6.73 4.5 3.22 5.32 6.96.32 1.44.32 1.5.32 5.17 0 3.58 0 3.6-.25 4.78a12.35 12.35 0 01-1.05 3.06 7.32 7.32 0 01-4.2 3.87c-1.03.35-.17.32-10.32.35l-9.15.02v1.66l6.08.02 6.06.03.03 2.98c0 1.64 0 3.13-.02 3.3a3.65 3.65 0 01-.47 1.34 6.58 6.58 0 01-1.6 1.6c-1.62 1.08-4.1 1.73-7.38 1.95-1.1.08-2.66.1-3.84.06zm8.4-3.87a2.18 2.18 0 10-2.5-1.8A2.24 2.24 0 0032 46.17a3.16 3.16 0 00.4-.04zM6.32 37.3A6.34 6.34 0 012.63 35C.83 32.75-.1 29 .03 24.3a16.55 16.55 0 011.4-6.95 7.18 7.18 0 015.17-4.27c.5-.1.52-.1 9.46-.1 4.93 0 9 0 9.04-.03.07-.02.08-.13.08-.85v-.84s-2.75-.02-6.1-.04l-6.05-.02L13 8.06c0-3.45 0-3.4.3-4.04 1-2.2 4.04-3.54 8.88-3.92.35-.04 1.3-.08 2.1-.1 5.35-.1 9.28.88 11.34 2.84a7.43 7.43 0 01.67.7 6.23 6.23 0 01.82 1.7l.12.4v6.5c0 6.08 0 6.54-.1 6.97a8.04 8.04 0 01-.57 1.78 6.03 6.03 0 01-3.9 3.03c-1.17.34-.64.32-8.4.35-7.7.03-7.23.02-8.3.32a6.17 6.17 0 00-4.27 4.52c-.28 1.02-.27.93-.3 4.7l-.03 3.53H9.02a23.26 23.26 0 01-2.7-.04zM19.14 8.02a2.18 2.18 0 00-.25-4.08 2.2 2.2 0 00-1.35 4.16 1.8 1.8 0 00.77.1 1.57 1.57 0 00.83-.18z"/><path fill="#3571a3" d="M6.3 37.3A6.34 6.34 0 012.63 35C.83 32.75-.1 29 .03 24.3a16.55 16.55 0 011.4-6.95 7.18 7.18 0 015.17-4.27c.5-.1.52-.1 9.46-.1 4.93 0 9 0 9.04-.03.07-.02.08-.13.08-.85v-.84s-2.75-.02-6.1-.04l-6.05-.02L13 8.06c0-3.45 0-3.4.3-4.04 1-2.2 4.04-3.54 8.88-3.92.35-.04 1.3-.08 2.1-.1 5.35-.1 9.28.88 11.34 2.84a7.43 7.43 0 01.67.7 6.23 6.23 0 01.82 1.7l.12.4v6.5c0 6.08 0 6.54-.1 6.97a8.04 8.04 0 01-.57 1.78 6.03 6.03 0 01-3.9 3.03c-1.17.34-.64.32-8.4.35-7.7.03-7.23.02-8.3.32a6.17 6.17 0 00-4.27 4.52c-.28 1.02-.27.93-.3 4.7l-.03 3.53H9.02a23.26 23.26 0 01-2.7-.04zM19.14 8.02a2.18 2.18 0 00-.25-4.08 2.2 2.2 0 00-1.35 4.16 1.8 1.8 0 00.77.1 1.57 1.57 0 00.83-.18z"/></svg>