<svg xmlns="http://www.w3.org/2000/svg" viewBox="0 0 77 68"><path fill-rule="evenodd" clip-rule="evenodd" fill="#EAEBEC" d="M31.978 28.282c0 4.923-.374 9.541-1.13 13.854-.755 4.312-2.258 8.221-4.516 11.732-2.259 3.506-5.48 6.464-9.649 8.868C12.513 65.14 6.951 66.89 0 68V51.929c5.211-.62 8.862-2.466 10.945-5.543 2.087-3.077 3.309-7.013 3.309-12.38H0V0h31.978v28.282zm44.969 0c0 4.923-.378 9.541-1.13 13.854-.755 4.312-2.257 8.221-4.52 11.732-2.258 3.506-5.47 6.464-9.648 8.868C57.48 65.14 51.92 66.89 44.97 68V51.929c5.214-.62 8.865-2.466 10.947-5.543 2.087-3.077 3.304-7.062 3.304-12.38H44.97V0h31.978v28.282z"/></svg>