<svg xmlns="http://www.w3.org/2000/svg" viewBox="0 0 40 55"><g fill="none" fill-rule="evenodd"><path d="M35.147 22.996c-.465-.418-1.461-1.179-2.33-1.827a6.485 6.485 0 00-6.361-7.741 6.45 6.45 0 00-2.673.581l4.626-9.442-3.99-2.475L9.887 27.031l4.585 2.246 5.566-8.489a6.48 6.48 0 006.419 5.609 6.48 6.48 0 002.176-.381c1.084 1.36 2.347 3.021 2.939 4.086 1.146 2.064.687 10.086-2.476 12.746-3.163 2.658-5.914 3.391-9.673 3.253-3.76-.136-6.051-3.3-5.868-3.3.184 0-8.573.047-8.573.047s1.513 2.841 2.659 3.85c1.147 1.009 2.842 3.255 5.96 4.539 3.117 1.283 8.618 1.833 8.802 1.833 4.598 0 9.352-3.438 10.773-4.493 1.42-1.054 5.96-5.501 6.19-12.378.228-6.876-3.301-12.378-4.22-13.203" fill="#FFF"/><path d="M18.65 52.094c-5.2-.73-9.766-3.69-12.456-8.145h7.21c2.535 1.807 5.209 2.76 7.749 2.76 6.544 0 11.866-5.415 11.866-12.071 0-3.16-1.35-6.091-3.49-8.255a7.204 7.204 0 003.759-4.29c3.275 3.172 5.299 7.629 5.299 12.636 0 8.864-6.564 16.196-15.046 17.365 0 0-.678.156-2.287.156-1.943 0-2.603-.156-2.603-.156zm7.807-26.384a5.805 5.805 0 01-5.798-5.798 5.804 5.804 0 015.798-5.797 5.804 5.804 0 015.797 5.797 5.804 5.804 0 01-5.797 5.798zM13.622 27.9l-2.706-1.563L24.538 2.742l2.706 1.563L13.622 27.9zm26.34 6.829c0-5.721-2.45-10.775-6.364-14.217v.003c.017-.2.03-.4.03-.603 0-3.451-2.45-6.34-5.703-7.02l3.892-6.74a.689.689 0 00-.251-.94l-1.631-.941 1.24-2.018L27.276 0l-1.242 2.018-1.403-.81a.686.686 0 00-.939.251L9.618 25.834l-1.435-.828-1.377 2.329 10.829 6.252 1.377-2.33-1.267-.73 3.372-5.842-.004-.004a7.147 7.147 0 005.344 2.404 7.137 7.137 0 001.632-.194c2.163 1.944 3.555 4.727 3.555 7.747 0 5.898-4.706 10.696-10.491 10.696-2.143 0-4.093-.772-5.628-1.658h2.847v-2.388H0v2.388h4.465a18.493 18.493 0 009.098 8.418h-8.01v2.489h31.65v-2.49H28.62A18.947 18.947 0 0039.962 34.73z" fill="#0078D7"/><path d="M26.456 17.69a2.225 2.225 0 00-2.223 2.222c0 1.226.997 2.224 2.223 2.224a2.226 2.226 0 002.223-2.224 2.225 2.225 0 00-2.223-2.223m0 5.822a3.604 3.604 0 01-3.599-3.599 3.603 3.603 0 013.6-3.599 3.603 3.603 0 013.598 3.6 3.604 3.604 0 01-3.599 3.598" fill="#0078D7"/></g></svg>