<svg xmlns="http://www.w3.org/2000/svg" width="50" height="50">
    <path fill="#3999C6" d="M25.047 22.647a.428.428 0 01-.22-.064l-14.711-8.49a.445.445 0 010-.771l14.616-8.435a.452.452 0 01.442 0l14.714 8.495a.447.447 0 01.221.382.45.45 0 01-.221.387l-14.619 8.433a.438.438 0 01-.222.063"/>
    <path fill="#59B4D9" d="M22.932 43.284a.444.444 0 01-.226-.059L8.042 34.761a.436.436 0 01-.226-.386V17.39a.45.45 0 01.226-.389.463.463 0 01.448 0l14.662 8.464a.45.45 0 01.218.387v16.987a.445.445 0 01-.218.386.44.44 0 01-.22.059m4.149 0a.444.444 0 01-.446-.445V25.962c0-.159.084-.305.22-.387l14.66-8.461a.458.458 0 01.448 0c.134.08.22.227.22.385v16.877a.446.446 0 01-.22.386l-14.665 8.464a.401.401 0 01-.217.058"/>
    <path opacity=".5" fill="#FFF" d="M27.081 43.284a.444.444 0 01-.446-.445V25.962c0-.159.084-.305.22-.387l14.66-8.461a.458.458 0 01.448 0c.134.08.22.227.22.385v16.877a.446.446 0 01-.22.386l-14.665 8.464a.401.401 0 01-.217.058"/>
    <path fill="#7A7A7A" d="M9.558 45.171a1.45 1.45 0 01-.726-.195l-6.845-3.952C.835 40.358 0 38.911 0 37.582V12.418c0-1.329.835-2.777 1.987-3.441l6.845-3.952a1.455 1.455 0 011.455 2.519l-6.845 3.952c-.243.141-.532.641-.532.922v25.164c0 .281.289.782.532.922l6.845 3.952a1.454 1.454 0 01-.729 2.715zM40.442 4.829c.247 0 .497.063.726.195l6.845 3.952C49.165 9.642 50 11.089 50 12.418v25.164c0 1.329-.835 2.777-1.987 3.441l-6.845 3.952a1.455 1.455 0 01-1.455-2.519l6.845-3.952c.243-.141.532-.641.532-.922V12.418c0-.281-.289-.782-.532-.922l-6.845-3.952a1.454 1.454 0 01.729-2.715z"/>
</svg>
