<svg xmlns="http://www.w3.org/2000/svg" viewBox="0 0 26.8 27.1" class="fxs-portal-svg" data-type="1"><path d="M24.1 6c0 3-2.4 5.5-5.5 5.5-3 0-5.5-2.4-5.5-5.5 0-3 2.4-5.5 5.5-5.5 3 0 5.5 2.4 5.5 5.5m-1.5 7.3l-4 5.6-4-5.6h-4.1v13.8h16.3V13.3zM7.7 15.1c0 1.7-1.4 3.1-3.1 3.1s-3.1-1.4-3.1-3.1c0-1.7 1.4-3.1 3.1-3.1s3.1 1.4 3.1 3.1m-.9 4.3l-2.2 3.1-2.3-3.1H0v7.7h9.2v-7.7z" class="msportalfx-svg-c15" fill="#59b4d9"/><path opacity=".2" d="M13.1 6c0 3 2.4 5.4 5.3 5.5L19.8.7c-.4-.1-.8-.1-1.2-.1-3-.1-5.5 2.3-5.5 5.4m1.5 7.3h-4.1v13.8h6l1.2-9.5zM1.5 15.1c0 1.7 1.4 3.1 3.1 3.1h.3l.8-5.9c-.3-.1-.7-.2-1.1-.2-1.7 0-3.1 1.3-3.1 3" class="msportalfx-svg-c01" fill="#fff"/></svg>