<svg xmlns="http://www.w3.org/2000/svg" viewBox="0 0 50 50"><path fill="#59B4D9" d="M27.969 9c0 4.363-3.568 7.9-7.969 7.9s-7.968-3.537-7.968-7.9S15.598 1.1 20 1.1s7.969 3.537 7.969 7.9m-2.647 11L20 28.516 14.677 20H7v21h26V20z"/><circle fill="#FFF" cx="31" cy="39" r="9.342"/><path fill="#BA141A" d="M31 31.214c4.292 0 7.786 3.492 7.786 7.786S35.292 46.786 31 46.786 23.214 43.292 23.214 39s3.494-7.786 7.786-7.786m0-3.114c-6.02 0-10.9 4.88-10.9 10.9S24.98 49.9 31 49.9 41.9 45.02 41.9 39 37.02 28.1 31 28.1z"/><path fill="#BA141A" d="M23.292 33.495l2.202-2.201 13.213 13.212-2.202 2.202z"/></svg>