<svg xmlns="http://www.w3.org/2000/svg" viewBox="0 0 24 18"><path d="M20.674 4.511c-.99.031-1.929.17-2.814.415-.885.246-1.724.585-2.515 1.018-.792.433-1.543.95-2.253 1.55-.71.601-1.38 1.264-2.012 1.99-.265.304-.53.6-.796.889-.265.288-.546.57-.842.842A14.99 14.99 0 015.089 14a13.04 13.04 0 01-5.066.994v-1.497c1.022 0 1.991-.12 2.908-.357a12.003 12.003 0 002.603-1.006 13.197 13.197 0 002.323-1.568 18.963 18.963 0 002.076-2.042c.273-.32.548-.628.825-.924.277-.297.572-.585.884-.866a16.535 16.535 0 011.994-1.521 13.983 13.983 0 012.188-1.158 13.31 13.31 0 012.364-.743 13.622 13.622 0 012.498-.299l-1.72-1.72L20.019.24l3.533 3.522-3.533 3.522-1.053-1.053 1.708-1.72zM9.442 6.804a16.69 16.69 0 00-.497.568c-.16.19-.33.38-.51.567a14.15 14.15 0 00-1.842-1.433 12.64 12.64 0 00-2.042-1.082 11.965 11.965 0 00-2.2-.679 11.5 11.5 0 00-2.328-.234V3.013c1.787 0 3.475.334 5.067 1a15.091 15.091 0 014.352 2.791zm10.577 3.92l3.533 3.521-3.533 3.522-1.053-1.053 1.72-1.72a13.544 13.544 0 01-7.108-2.235 15.615 15.615 0 01-2.007-1.556c.172-.187.338-.376.498-.567.16-.191.33-.38.508-.568.562.515 1.155.98 1.779 1.393.624.413 1.277.768 1.96 1.064a11.79 11.79 0 004.358.972l-1.708-1.72 1.053-1.053z"/></svg>