<svg xmlns="http://www.w3.org/2000/svg" viewBox="0 0 48 49"><path d="M24.467 46.88c-2.761 0-5.314-2.44-7.184-6.879-1.798-4.27-2.793-9.936-2.793-15.948 0-6.012.995-11.679 2.793-15.949 1.87-4.438 4.423-6.878 7.184-6.878 2.76 0 5.313 2.44 7.184 6.878 1.797 4.27 2.793 9.937 2.793 15.949 0 6.011-.996 11.678-2.794 15.948-1.87 4.439-4.422 6.879-7.183 6.879zm0-44.45c-2.215 0-4.423 2.239-6.068 6.14-1.742 4.125-2.697 9.623-2.697 15.483 0 5.859.955 11.357 2.697 15.483 1.645 3.9 3.86 6.14 6.068 6.14 2.207 0 4.422-2.24 6.068-6.14 1.741-4.126 2.697-9.624 2.697-15.483 0-5.86-.956-11.358-2.697-15.483-1.646-3.901-3.853-6.14-6.068-6.14z" fill="#0078D4"/><path d="M37.269 38.42c-.803 0-1.67-.056-2.577-.169-4.599-.578-10-2.552-15.21-5.554-5.209-3.018-9.623-6.702-12.417-10.402-2.905-3.837-3.748-7.264-2.367-9.656 1.38-2.392 4.767-3.38 9.543-2.777 4.6.578 10 2.552 15.21 5.554 5.21 3.01 9.624 6.702 12.417 10.394 2.905 3.837 3.748 7.264 2.368 9.656-1.116 1.934-3.548 2.954-6.967 2.954zM11.697 10.897c-2.954 0-5.073.819-5.956 2.344-1.108 1.918-.273 4.952 2.28 8.331 2.704 3.572 6.982 7.152 12.063 10.081 5.073 2.93 10.314 4.848 14.76 5.402 4.207.53 7.249-.273 8.356-2.183 1.108-1.918.273-4.952-2.28-8.331-2.704-3.572-6.982-7.152-12.063-10.082-5.073-2.93-10.314-4.848-14.76-5.401a18.232 18.232 0 00-2.4-.16z" fill="#0078D4"/><path d="M11.665 38.42c-3.42 0-5.852-1.02-6.967-2.954-1.38-2.392-.538-5.82 2.367-9.656 2.802-3.692 7.208-7.384 12.417-10.394l.305.522-.305-.522c5.21-3.01 10.611-4.984 15.21-5.554 4.776-.602 8.163.385 9.544 2.777 1.38 2.392.538 5.819-2.368 9.656-2.801 3.692-7.208 7.384-12.417 10.394-5.21 3.01-10.61 4.984-15.21 5.554-.907.12-1.766.177-2.576.177zm25.572-27.523c-.747 0-1.55.056-2.4.16-4.447.554-9.68 2.48-14.76 5.402-5.082 2.922-9.352 6.51-12.056 10.082-2.56 3.379-3.388 6.413-2.28 8.331 1.108 1.918 4.15 2.713 8.356 2.183 4.446-.554 9.68-2.48 14.76-5.402 5.073-2.93 9.359-6.509 12.064-10.08 2.56-3.38 3.387-6.414 2.28-8.332-.892-1.525-3.002-2.344-5.964-2.344z" fill="#0078D4"/><path d="M24.363 27.97a3.9 3.9 0 100-7.802 3.9 3.9 0 000 7.802zM5.476 20.682a2.36 2.36 0 100-4.72 2.36 2.36 0 000 4.72zm32.058-7.73a2.36 2.36 0 100-4.72 2.36 2.36 0 000 4.72zm-7.81 31.456a2.36 2.36 0 100-4.72 2.36 2.36 0 000 4.72z" fill="#50E6FF"/></svg>