<svg xmlns="http://www.w3.org/2000/svg" viewBox="0 0 48 48"><path d="M24.13 34.275c5.674 0 10.274-4.6 10.274-10.275 0-5.675-4.6-10.275-10.275-10.275-5.675 0-10.275 4.6-10.275 10.275 0 5.675 4.6 10.275 10.275 10.275zM24 10.914c-.55 0-.97-.42-.97-.97V1.77c0-.549.42-.969.97-.969s.97.42.97.97v8.174c0 .55-.42.97-.97.97zM24 47.2c-.55 0-.97-.42-.97-.97v-8.174c0-.55.42-.97.97-.97s.97.42.97.97v8.175c0 .549-.42.969-.97.969zm9.952-32.15a.93.93 0 01-.678-.291c-.388-.388-.388-1.002 0-1.357l5.783-5.817c.388-.387 1.002-.387 1.357 0 .388.388.388 1.002 0 1.358l-5.783 5.783a.9.9 0 01-.679.323zM8.297 40.705a.93.93 0 01-.679-.29c-.388-.388-.388-1.002 0-1.358l5.784-5.784c.388-.387 1.002-.387 1.357 0 .388.388.388 1.002 0 1.358l-5.784 5.783a.985.985 0 01-.678.291zM46.23 24.97h-8.174c-.55 0-.97-.42-.97-.97s.42-.97.97-.97h8.175c.549 0 .97.42.97.97s-.421.97-.97.97zm-36.286 0H1.77c-.55 0-.97-.42-.97-.97s.42-.97.97-.97h8.174c.55 0 .97.42.97.97s-.42.97-.97.97zm29.792 15.735a.93.93 0 01-.679-.29l-5.784-5.784c-.387-.388-.387-1.002 0-1.358.388-.387 1.002-.387 1.358 0l5.783 5.784c.388.388.388 1.002 0 1.357a.985.985 0 01-.678.291zM14.08 15.05a.93.93 0 01-.678-.291L7.585 8.975c-.387-.388-.387-1.002 0-1.357.388-.388 1.002-.388 1.358 0l5.783 5.784c.388.388.388 1.001 0 1.357a.86.86 0 01-.646.29z" fill="#0078D7"/></svg>