<svg xmlns="http://www.w3.org/2000/svg" viewBox="47 13 792 792"><path d="M291.1 498.9l-41.4 40.9-41.4 40.7c-8.4 8.4-12.7 19.5-12.7 30.4 0 11.1 4.2 22.2 12.4 30.6l.3.3.3.3c4.2 4.2 9 7.4 14 9.8s11.1 3.4 16.9 3.4c5.5 0 11.4-1.1 16.4-3.4 5-2.4 9.8-5.3 13.7-9.2l41.2-40.7 41.2-40.7c-11.9-8.4-22.7-18-32.7-28.5-10.8-10.1-20-21.5-28.2-33.9zm197.7-336.1c-55.4 0-105.9 22.7-142.3 59.1s-58.9 86.6-58.6 142.6c0 55.4 22.7 105.9 59.1 142.3 36.7 36.4 86.6 58.9 142.6 58.6 55.4 0 105.9-22.7 142.3-59.1 36.4-36.7 58.9-86.6 58.6-142.6 0-55.4-22.7-105.9-59.1-142.3s-86.6-58.8-142.6-58.6zm-.8 335c-36.7-.3-70-15.3-93.7-39.9-23.8-24.6-38.3-58.1-38-95 .5-36.4 15.6-69.2 39.9-92.9 24.3-23.8 57.8-38.3 94.8-38 36.4.3 69.4 15.3 93.2 39.3 23.8 24 38.5 57.3 38.5 94 0 37-15 70.2-39.3 94.2-24.9 23.8-58.4 38.6-95.4 38.3z"/></svg>