<svg xmlns="http://www.w3.org/2000/svg" viewBox="0 0 48 49"><path d="M25.217 18.596V.939H0v27.85h20.593V18.594h4.624z" fill="#0078D7"/><path d="M48 21.064H22.707V48.94H48V21.064zm-4.313-7.481c-3.42-5.804-9.349-9.94-16.297-10.917v2.898c5.71.918 10.595 4.296 13.552 9.013l-2.94 1.062 5.273 2.468 2.467-5.273-2.055.75zM7.37 35.275l2.391-.868-5.264-2.468-2.468 5.273 2.603-.943c3.318 5.779 9.122 9.949 15.96 11.052v-2.906c-5.6-1.045-10.36-4.448-13.223-9.14z" fill="#0078D7"/><path d="M42.55 29.416L32.104 39.863 28.98 36.73l-2.09 2.09 5.215 5.215L44.64 31.497l-2.09-2.081zM18.42 10.205c0-3.306-2.706-6.012-6.012-6.012-2.97 0-5.452 2.185-5.928 5.025h2.46a3.63 3.63 0 01.922-1.56 3.577 3.577 0 012.543-1.06c.956 0 1.86.377 2.543 1.06a3.578 3.578 0 011.06 2.544c0 .193 0 .735-.004 1.45H6.397v12.061h12.02V12.442c.003-1.09.003-1.974.003-2.237z" fill="#50E6FF"/><path d="M12.408 18.994a1.553 1.553 0 100-3.105 1.553 1.553 0 000 3.105z" fill="#0078D4"/></svg>