<svg xmlns="http://www.w3.org/2000/svg" viewBox="0 0 49 49"><path d="M34.156 19.099c0-5.16-4.223-9.383-9.383-9.383-4.637 0-8.51 3.41-9.253 7.842h3.84a5.667 5.667 0 011.438-2.434 5.584 5.584 0 013.97-1.654c1.492 0 2.903.587 3.97 1.654a5.584 5.584 0 011.653 3.97c0 .301 0 1.147-.005 2.262H15.39V40.18h18.76V22.59c.005-1.703.005-3.082.005-3.491z" fill="#0078D4"/><path d="M24.773 32.818a2.424 2.424 0 100-4.848 2.424 2.424 0 000 4.848z" fill="#50E6FF"/><path d="M.773.943v10.105h5.053V5.995h5.053V.944H.773zm37.895 0v5.052h5.053v5.053h5.052V.943H38.668zM5.826 38.838H.773v10.105H10.88V43.89H5.826v-5.052zM43.72 43.89h-5.052v5.053h10.105V38.838h-5.052v5.052z" fill="#0078D4"/></svg>