<svg xmlns="http://www.w3.org/2000/svg" viewBox="0 0 24 24"><path d="M3.318 2.965C7.765 2.965 12.353 0 12.353 0s3.812 2.965 8.33 2.965v12.882c0 4.094-8.33 8.153-8.33 8.153s-9.035-4.059-9.035-8.047V2.965z" fill="#7FBA00"/><path opacity=".15" d="M3.318 2.965C7.765 2.965 12.353 0 12.353 0s2.294 1.765 5.435 2.576L4.447 18.565c-.67-.847-1.13-1.73-1.13-2.577V2.965z" fill="#fff"/><path d="M13.694 11.682h-3.388v-1.13c0-.493.176-1.093.423-1.376.318-.247.918-.423 1.27-.423.354 0 .954.176 1.271.494.318.318.424.706.424 1.2v1.235h1.447v-1.2c0-.776-.318-1.553-.776-2.117-.495-.53-1.553-.918-2.365-.918-.812 0-1.87.353-2.365.918-.494.53-.776 1.27-.776 2.117v1.2c-.706 0-.953.424-.953.953v2.894c0 .494.317.953.847.953h6.494c.6 0 .847-.494.847-.953v-2.894c0-.494-.176-.953-.953-.953h-1.447z" fill="#fff"/></svg>