<svg xmlns="http://www.w3.org/2000/svg" viewBox="0 0 48 48"><path d="M26.518 35.377c6.265 0 11.343-1.686 11.343-3.764 0-2.08-5.078-3.765-11.343-3.765-6.264 0-11.343 1.686-11.343 3.765 0 2.078 5.079 3.764 11.343 3.764z" fill="#0078D4"/><path d="M26.518 32.783c6.265 0 11.343-1.685 11.343-3.764 0-2.079-5.078-3.764-11.343-3.764-6.264 0-11.343 1.685-11.343 3.764 0 2.079 5.079 3.764 11.343 3.764z" fill="#50E6FF"/><path d="M26.518 30.157c6.265 0 11.343-1.685 11.343-3.764 0-2.079-5.078-3.764-11.343-3.764-6.264 0-11.343 1.685-11.343 3.764 0 2.079 5.079 3.764 11.343 3.764z" fill="#0078D4"/><path d="M26.518 27.478c6.265 0 11.343-1.685 11.343-3.764 0-2.08-5.078-3.764-11.343-3.764-6.264 0-11.343 1.685-11.343 3.764 0 2.079 5.079 3.764 11.343 3.764z" fill="#50E6FF"/><path d="M26.518 25.009c6.265 0 11.343-1.685 11.343-3.764 0-2.08-5.078-3.765-11.343-3.765-6.264 0-11.343 1.686-11.343 3.765s5.079 3.764 11.343 3.764z" fill="#0078D4"/><path d="M26.518 22.407c6.265 0 11.343-1.685 11.343-3.764 0-2.079-5.078-3.764-11.343-3.764-6.264 0-11.343 1.685-11.343 3.764 0 2.079 5.079 3.764 11.343 3.764z" fill="#50E6FF"/><path d="M26.518 20.153c6.265 0 11.343-1.685 11.343-3.764 0-2.079-5.078-3.764-11.343-3.764-6.264 0-11.343 1.685-11.343 3.764 0 2.08 5.079 3.764 11.343 3.764z" fill="#0078D4"/><path d="M24 0C14.855 0 6.914 5.112 2.863 12.632h2.484C9.187 6.349 16.101 2.156 24 2.156c12.06 0 21.844 9.777 21.844 21.844 0 12.067-9.785 21.844-21.844 21.844-7.899 0-14.813-4.194-18.653-10.476H2.863C6.913 42.888 14.863 48 24 48c13.255 0 24-10.745 24-24S37.255 0 24 0z" fill="#0078D4"/><path d="M5.053 16.421A5.067 5.067 0 000 21.474v10.105h10.105V21.474c0-2.78-2.273-5.053-5.052-5.053zM3.267 19.69a2.518 2.518 0 013.57 0c.48.48.742 1.111.742 1.785H2.526c0-.666.261-1.305.741-1.785zm1.786 8.1a1.262 1.262 0 01-1.264-1.263 1.263 1.263 0 112.527 0c0 .7-.564 1.264-1.263 1.264z" fill="#0078D4"/></svg>