<svg xmlns="http://www.w3.org/2000/svg" viewBox="0 0 23.37 31.88"><path fill="#7fbb42" d="M19.89 3.8c-7-.77-8.2-3.8-8.2-3.8S10.11 4 0 4v16.31a8.24 8.24 0 002.62 5.44c3.44 3.67 9.07 6.13 9.07 6.13s11.69-5.12 11.69-11.57V4a31.73 31.73 0 01-3.49-.2z"/><path opacity=".4" fill="#b8d433" d="M14.58 10.55l5.31-6.75c-7-.77-8.2-3.8-8.2-3.8S10.11 4 0 4v16.31a8.24 8.24 0 002.62 5.44l3.92-5z"/><path class="msportalfx-svg-c01" d="M4 12.1l-.23-.23a.14.14 0 010-.19l.65-.56h.18L6.36 13l3-3.78a.17.17 0 01.14 0h.09l.7.51v.18l-3.87 4.9z"/><path class="msportalfx-svg-c01" opacity=".6" d="M10.28 12.1h9.33v1.54h-9.33z"/><path class="msportalfx-svg-c01" d="M4 18.22L3.8 18a.21.21 0 010-.23l.65-.56h.18l1.73 1.87 3-3.78a.17.17 0 01.14 0h.09l.7.51v.18l-3.87 4.9z"/><path class="msportalfx-svg-c01" opacity=".6" d="M10.28 18.22h9.33v1.54h-9.33z"/></svg>