<svg xmlns="http://www.w3.org/2000/svg" viewBox="0 0 48 49"><path d="M24.084 46.536L4.461 35.222V12.603L24.084 1.289l19.624 11.314v22.62L24.084 46.535zM5.726 34.498L24.084 45.08l18.359-10.582V13.327L24.084 2.745 5.726 13.327v21.171z" fill="#50E6FF"/><path d="M23.958 5.22a2.612 2.612 0 002.614-2.61c0-1.442-1.17-2.61-2.614-2.61a2.612 2.612 0 00-2.614 2.61c0 1.44 1.17 2.61 2.614 2.61zm0 42.753a2.612 2.612 0 002.614-2.61c0-1.44-1.17-2.61-2.614-2.61a2.612 2.612 0 00-2.614 2.61c0 1.442 1.17 2.61 2.614 2.61zm19.058-9.957a2.612 2.612 0 002.614-2.61c0-1.44-1.17-2.61-2.614-2.61a2.612 2.612 0 00-2.614 2.61c0 1.442 1.17 2.61 2.614 2.61zm0-22.796a2.612 2.612 0 002.614-2.61c0-1.442-1.17-2.61-2.614-2.61a2.612 2.612 0 00-2.614 2.61c0 1.44 1.17 2.61 2.614 2.61zM5.06 37.948a2.52 2.52 0 002.521-2.517 2.52 2.52 0 00-2.521-2.517 2.52 2.52 0 00-2.521 2.517 2.52 2.52 0 002.521 2.517zm0-22.644a2.52 2.52 0 002.521-2.518A2.52 2.52 0 005.06 10.27a2.52 2.52 0 00-2.521 2.517 2.52 2.52 0 002.521 2.517z" fill="#0078D7"/><path d="M30.14 19.529c0-3.392-2.784-6.213-6.224-6.213-3.053 0-5.617 2.248-6.106 5.186h2.513a3.88 3.88 0 01.953-1.6 3.673 3.673 0 012.631-1.102c.995 0 1.906.379 2.631 1.102a3.66 3.66 0 011.105 2.627v1.49h-9.917v12.425h12.405c.008-.008.008-13.654.008-13.915z" fill="#0078D4"/><path d="M23.916 28.714c.826 0 1.492-.665 1.492-1.49s-.666-1.49-1.492-1.49c-.827 0-1.493.665-1.493 1.49s.666 1.49 1.493 1.49z" fill="#50E6FF"/></svg>