<svg xmlns="http://www.w3.org/2000/svg" viewBox="0 0 48 49"><path d="M23.979.705A54.144 54.144 0 017.605 6.876v28.948l16.298 12.849L40.48 35.858V6.876A54.139 54.139 0 0124.097.705h-.118z" fill="#0078D4"/><path d="M29.42 21.897h-.615a1.8 1.8 0 00-1.06.32 6.846 6.846 0 01-4.027 1.305 6.845 6.845 0 01-4.026-1.305 1.813 1.813 0 00-1.06-.32 2.255 2.255 0 00-2.241 1.97l-1.323 9.876h17.915l-1.322-9.876a2.255 2.255 0 00-2.24-1.97zm-5.4-.966a5.036 5.036 0 10-5.036-5.035 5.036 5.036 0 005.037 5.035z" fill="#50E6FF"/></svg>