<svg xmlns="http://www.w3.org/2000/svg" viewBox="0 0 48 49"><path d="M6.162 8.587A23.934 23.934 0 000 23.408h5.135A18.94 18.94 0 019.773 12.2l-3.61-3.613z" fill="#50E6FF"/><path d="M7.972 42.582a23.929 23.929 0 0014.816 6.088v-5.035a18.895 18.895 0 01-11.213-4.657l-3.603 3.604zM0 25.943a23.916 23.916 0 006.145 14.82l3.612-3.612a18.975 18.975 0 01-4.622-11.208H0z" fill="#0078D4"/><path d="M41.855 8.681l-3.494 3.495a18.83 18.83 0 014.656 11.233h4.916a23.895 23.895 0 00-6.078-14.728zM25.322.713V5.73a18.929 18.929 0 0111.23 4.624l3.501-3.504A23.96 23.96 0 0025.322.713zM22.788.705A23.937 23.937 0 007.98 6.776l3.603 3.604A18.942 18.942 0 0122.78 5.732V.705h.009z" fill="#50E6FF"/><path d="M47.1 31.105c.454-1.66.74-3.386.833-5.162h-4.916c-.017.252-.042.505-.068.758a8.738 8.738 0 014.15 4.404zM25.322 43.634v5.019a23.716 23.716 0 005.042-.825v-5.221c-1.6.564-3.291.909-5.043 1.027z" fill="#0078D4"/><path d="M37.722 25.89a5.96 5.96 0 00.059-.875 6.206 6.206 0 00-6.205-6.206c-.48 0-.942.05-1.389.16a7.973 7.973 0 00-6.742-3.714 7.982 7.982 0 00-7.973 8.312 4.036 4.036 0 00-1.279-.21 3.931 3.931 0 00-3.931 3.932 3.924 3.924 0 003.544 3.907l17.19.034a8.755 8.755 0 016.726-5.34z" fill="#50E6FF"/><path d="M45.408 34.44c0-3.479-2.846-6.333-6.33-6.333-3.124 0-5.734 2.299-6.23 5.288h2.593c.176-.615.505-1.17.968-1.634a3.778 3.778 0 015.354 0 3.766 3.766 0 011.11 2.678v1.525H32.756v12.69H45.4V36.78c.009-1.145.009-2.071.009-2.34z" fill="#0078D4"/><path d="M39.052 43.87a1.55 1.55 0 000-3.1 1.55 1.55 0 000 3.1z" fill="#50E6FF"/></svg>