<svg xmlns="http://www.w3.org/2000/svg" viewBox="0 0 18 18"><defs><linearGradient id="a" x1="7.981" y1="16.737" x2="7.981" y2=".724" gradientUnits="userSpaceOnUse"><stop offset="0" stop-color="#0078d4"/><stop offset="1" stop-color="#5ea0ef"/></linearGradient></defs><path d="M15.125 8.153c0 4.7-5.674 8.475-6.909 9.241a.443.443 0 01-.47 0C6.512 16.628.837 12.848.837 8.153V2.5a.449.449 0 01.439-.447C5.69 1.937 4.674 0 7.981 0s2.292 1.937 6.706 2.057a.449.449 0 01.438.447z" fill="#0078d4"/><path d="M14.533 8.2c0 4.306-5.2 7.772-6.336 8.475a.408.408 0 01-.431 0C6.634 15.973 1.43 12.507 1.43 8.2V3.021a.411.411 0 01.4-.41C5.88 2.5 4.948.724 7.981.724s2.1 1.777 6.15 1.887a.411.411 0 01.4.41z" fill="url(#a)"/><circle cx="11.946" cy="12.783" r="5.217" fill="#76bc2d"/><path d="M8.22 12.293a.184.184 0 01-.253-.065l-.221-.372a.185.185 0 01.065-.253l1.751-1.039a.184.184 0 01.253.065l1.039 1.751a.184.184 0 01-.065.253l-.372.221a.185.185 0 01-.253-.065l-.308-.52a2.356 2.356 0 00-.048.877 2.165 2.165 0 00.289.831 2.127 2.127 0 00.4.5 2.394 2.394 0 00.521.362 2.3 2.3 0 00.6.207 2.362 2.362 0 00.476.043.182.182 0 01.18.167l.084.9a3.291 3.291 0 01-.945-.051 3.468 3.468 0 01-.884-.306 3.351 3.351 0 01-.765-.534 3.331 3.331 0 01-1.03-2 3.351 3.351 0 01.093-1.33zm4.256-1.7a2.323 2.323 0 01.6.21 2.378 2.378 0 01.52.362 2.184 2.184 0 01.692 1.326 2.356 2.356 0 01-.048.877l-.308-.52a.185.185 0 00-.253-.065l-.372.221a.184.184 0 00-.065.253l1.039 1.752a.185.185 0 00.253.064l1.751-1.039a.184.184 0 00.065-.253l-.221-.372a.185.185 0 00-.253-.064l-.606.359a3.346 3.346 0 00.093-1.329 3.33 3.33 0 00-1.03-2 3.378 3.378 0 00-.765-.533 3.454 3.454 0 00-.884-.306 3.3 3.3 0 00-.755-.063.182.182 0 00-.172.2l.066.71a.182.182 0 00.181.168 2.1 2.1 0 01.472.049z" fill="#fff"/></svg>