<svg xmlns="http://www.w3.org/2000/svg" viewBox="0 0 48 49"><path d="M36.995 11.114a9.78 9.78 0 00-2.38.283 13.704 13.704 0 00-11.61-6.383c-7.582 0-13.725 6.15-13.725 13.732 0 .183 0 .375.017.558a6.86 6.86 0 00-2.214-.358 6.763 6.763 0 00-6.75 6.766c0 3.504 2.68 6.384 6.084 6.725l16.13.034v-6.85c0-6.15 4.985-11.144 11.144-11.144A11.139 11.139 0 0144.835 25.62v3.454a11.012 11.012 0 001.498-2.056c.05-.091.109-.183.159-.283.283-.59.682-1.481.932-2.613.017-.108.05-.217.058-.308.125-.658.183-1.324.183-2.006.008-5.91-4.769-10.695-10.67-10.695z" fill="#50E6FF"/><path d="M42.506 25.249c0-4.803-3.929-8.74-8.731-8.74-4.311 0-7.907 3.172-8.597 7.3h3.578a5.25 5.25 0 011.332-2.256 5.18 5.18 0 013.695-1.531c1.39 0 2.697.55 3.696 1.531a5.18 5.18 0 011.531 3.696v2.105H25.044v17.511H42.49V28.478c.017-1.582.017-2.863.017-3.23z" fill="#0078D4"/><path d="M33.734 38.256a2.138 2.138 0 10.001-4.28 2.138 2.138 0 00-.001 4.28z" fill="#50E6FF"/></svg>