<svg xmlns="http://www.w3.org/2000/svg" viewBox="0 0 48 48"><path d="M3.116 32.751l11.2 5.162h4.615v-9.659h-4.278v5.6L4.22 29.458l-1.103 3.293z" fill="#0078D4"/><path d="M27.385 22.157l-14.888-5.954-3.832 9.584 14.889 5.962 3.831-9.592z" fill="#50E6FF"/><path d="M43.646 17.5l-14.888-5.953-4.733 11.832 14.889 5.953 4.732-11.831z" fill="#50E6FF"/><path d="M4.876 25.39H.15v12.464h4.725V25.391zm28.994 3.85L3.78 17.156 10.366.683l37.558 15.048-11.31 6.367-2.744 7.14z" fill="#0078D4"/><path d="M35.301 19.463L9.271 9.03l2.089-5.272 31.3 12.522-7.36 3.183z" fill="#50E6FF"/></svg>