<svg xmlns="http://www.w3.org/2000/svg" viewBox="0 0 48 48"><path d="M29.826 20.216c0-3.253-2.714-5.911-6.034-5.911-2.981 0-5.468 2.15-5.945 4.935h2.47c.17-.571.478-1.095.923-1.531a3.623 3.623 0 012.552-1.04c.955 0 1.862.373 2.55 1.04a3.476 3.476 0 011.062 2.499v1.428h-9.638V33.49h12.06V20.216z" fill="#0078D4"/><path d="M23.8 28.857c.858 0 1.555-.683 1.555-1.524 0-.84-.697-1.523-1.555-1.523-.859 0-1.555.682-1.555 1.523-.008.841.696 1.524 1.555 1.524z" fill="#50E6FF"/><path d="M47 17.43V5.46h-4.883v4.286C37.917 4.423 31.345 1 23.967 1 11.278 1 1 11.094 1 23.558s10.285 22.558 22.968 22.558c12.682 0 22.967-10.102 22.967-22.558 0-.447-.016-.886-.04-1.325h-4.493c.032.44.048.878.048 1.325 0 10.022-8.27 18.154-18.482 18.154-10.213 0-18.483-8.132-18.483-18.154s8.27-18.153 18.483-18.153c6.003 0 11.333 2.808 14.705 7.165h-3.868v4.796h7.312v.064H47z" fill="#50E6FF"/></svg>