<svg xmlns="http://www.w3.org/2000/svg" viewBox="0 0 18 18"><defs><linearGradient id="a" x1="8.61" y1="-6.88" x2="9.11" y2="19.45" gradientUnits="userSpaceOnUse"><stop offset=".22" stop-color="#32d4f5"/><stop offset=".47" stop-color="#31d1f3"/><stop offset=".63" stop-color="#2ec9eb"/><stop offset=".77" stop-color="#29bade"/><stop offset=".89" stop-color="#22a5cb"/><stop offset="1" stop-color="#198ab3"/><stop offset="1" stop-color="#198ab3"/></linearGradient></defs><path d="M14.73 8.69h-.91V5.78a5.47 5.47 0 00-1.41-3.71A4.5 4.5 0 008.92.49a4.57 4.57 0 00-3.5 1.58A5.41 5.41 0 004 5.78v2.91h-.76a.66.66 0 00-.65.65v7.52a.66.66 0 00.65.65h11.49a.68.68 0 00.66-.65V9.34a.66.66 0 00-.66-.65zm-3.18 0H6.29v-3a3 3 0 01.81-2 2.4 2.4 0 011.79-.82 2.36 2.36 0 011.78.82 2.45 2.45 0 01.31.41 2.77 2.77 0 01.57 1.62z" fill="url(#a)"/><path d="M14.76 8.69H3.26a.67.67 0 00-.43.16l12.35 8.55a.67.67 0 00.23-.5V9.35a.66.66 0 00-.65-.66z" fill="#50e6ff"/><path d="M3.27 8.69h11.5a.67.67 0 01.42.16L2.85 17.4a.65.65 0 01-.24-.5V9.35a.67.67 0 01.66-.66z" fill="#fff" opacity=".2"/><path d="M7.87 10.51L9 9.38a.07.07 0 01.09 0l1.12 1.13a.06.06 0 010 .1H9.5a.06.06 0 00-.06.06v1.51h-.76v-1.51a.06.06 0 00-.06-.06h-.71a.06.06 0 01-.04-.1zm2.33 5.18l-1.12 1.13a.07.07 0 01-.09 0l-1.12-1.13v-.09h.66a.06.06 0 00.06-.06v-1.46a.06.06 0 010-.06h.71a.06.06 0 010 .06v1.46a.06.06 0 00.06.06h.66c.19 0 .22.06.18.09zm-4.44-1.46v-.66a.06.06 0 00-.06-.06H4.24a.06.06 0 010-.06v-.7a.06.06 0 010-.06H5.7a.06.06 0 00.06 0V12a.06.06 0 01.1 0L7 13.06v.08l-1.14 1.13a.06.06 0 01-.1-.04zM12.31 12v.67a.06.06 0 00.06 0h1.46a.06.06 0 01.05.06v.7a.06.06 0 01-.05.06h-1.46a.06.06 0 00-.06.06v.66a.06.06 0 01-.1 0l-1.13-1.13a.06.06 0 010-.08l1.13-1.13a.06.06 0 01.1.13z" fill="#fff"/></svg>