<svg xmlns="http://www.w3.org/2000/svg" viewBox="0 0 49 49"><path d="M35.855 17.645c0-6.389-5.233-11.625-11.62-11.625-5.746 0-10.542 4.226-11.459 9.715h4.754a6.967 6.967 0 011.784-3.014 6.913 6.913 0 014.913-2.046c1.851 0 3.593.724 4.914 2.046a6.92 6.92 0 012.044 4.916c0 .37 0 1.423-.008 2.803h-18.56v23.327h23.23V21.972c.008-2.113.008-3.822.008-4.327z" fill="#0078D4"/><path d="M24.236 34.642a3.006 3.006 0 000-6.011 3.006 3.006 0 000 6.01z" fill="#50E6FF"/><path d="M45.606 46.242h-5.023v2.593h7.54v-7.61h-2.517v5.017zm-.033-42.84v5.026h2.591V.885H40.55v2.517h5.023zm-42.834.042h5.023V.851H.223v7.61H2.74V3.444zm.076 42.814v-5.025H.223v7.543H7.83v-2.518H2.815z" fill="#0078D4"/></svg>