<svg xmlns="http://www.w3.org/2000/svg" width="24" height="24">
    <path fill="#59B4D9" d="M17.625 1c-.648 0-1.227.074-1.734.223a5.945 5.945 0 00-1.412.615 7.537 7.537 0 00-1.242.943c-.395.367-.807.77-1.237 1.207-.43-.438-.842-.84-1.236-1.207a7.586 7.586 0 00-1.243-.943 5.904 5.904 0 00-1.412-.615C7.602 1.074 7.023 1 6.375 1c-.883 0-1.711.168-2.484.504a6.548 6.548 0 00-2.028 1.365A6.33 6.33 0 00.498 4.896 6.249 6.249 0 000 7.375c0 .852.162 1.668.486 2.449s.783 1.469 1.377 2.062L12 22.012l10.137-10.125c.594-.594 1.053-1.281 1.377-2.062S24 8.227 24 7.375c0-.875-.166-1.701-.498-2.479a6.33 6.33 0 00-1.365-2.027 6.555 6.555 0 00-2.027-1.365A6.171 6.171 0 0017.625 1z"/>
    <path opacity=".2" fill="#FFF" d="M12 3.988c-.43-.438-.842-.84-1.236-1.207a7.586 7.586 0 00-1.243-.943 5.904 5.904 0 00-1.412-.615C7.602 1.074 7.023 1 6.375 1c-.883 0-1.711.168-2.484.504a6.548 6.548 0 00-2.028 1.365A6.33 6.33 0 00.498 4.896 6.249 6.249 0 000 7.375c0 .852.162 1.668.486 2.449s.783 1.469 1.377 2.062L12 22.012V3.988z"/>
    <path fill="#FFF" d="M11.816 16.677L9.873 9.874 8.309 13H3l-1-1h5.691l2.436-4.874 2.057 7.197L13.732 12H17v1h-2.732z"/>
</svg>
