<svg xmlns="http://www.w3.org/2000/svg" viewBox="0 0 48 48"><path d="M.093 23.89h15.11V11.243H.093v12.649z" fill="#0078D4"/><path d="M5.093 16.304h5.11v-1.769h-5.11v1.769zm1.524 3.578h2.07v-.986h-2.07v.986z" fill="#50E6FF"/><path d="M32.89 23.89H48V11.243H32.89v12.649z" fill="#0078D4"/><path d="M37.89 16.304H43v-1.769h-5.11v1.769zm1.524 3.578h2.07v-.986h-2.07v.986z" fill="#50E6FF"/><path d="M16.424 23.89h15.11V11.243h-15.11v12.649z" fill="#0078D4"/><path d="M21.424 16.304h5.11v-1.769h-5.11v1.769zm1.524 3.578h2.07v-.986h-2.07v.986z" fill="#50E6FF"/><path d="M.093 37.995h15.11v-12.64H.093v12.64z" fill="#0078D4"/><path d="M5.093 30.417h5.11v-1.769h-5.11v1.769zm1.524 3.57h2.07v-.977h-2.07v.977z" fill="#50E6FF"/><path d="M32.89 37.995H48v-12.64H32.89v12.64z" fill="#0078D4"/><path d="M37.89 30.417H43v-1.769h-5.11v1.769zm1.524 3.57h2.07v-.977h-2.07v.977z" fill="#50E6FF"/><path d="M16.424 37.995h15.11v-12.64h-15.11v12.64z" fill="#0078D4"/><path d="M21.424 30.417h5.11v-1.769h-5.11v1.769zm1.524 3.57h2.07v-.977h-2.07v.977z" fill="#50E6FF"/></svg>