<svg xmlns="http://www.w3.org/2000/svg" viewBox="0 0 44 40"><g fill="none" fill-rule="evenodd"><path fill="#FFF" d="M.784 38.196h41.563V1H.784z"/><path d="M6.11 5.703c-.742 0-1.347.604-1.347 1.347a1.348 1.348 0 002.694 0c0-.743-.605-1.347-1.347-1.347zm0 4.192A2.85 2.85 0 013.263 7.05 2.85 2.85 0 016.11 4.203 2.85 2.85 0 018.957 7.05 2.85 2.85 0 016.11 9.895zM1.5 12.71h40.023V1.5H1.5v11.21zm40.198 1.5H1.325A1.326 1.326 0 010 12.885V1.325C0 .594.594 0 1.325 0h41.698v12.885c0 .73-.595 1.324-1.325 1.324z" fill="#0078D7"/><path d="M6.052 18.063c-.742 0-1.347.604-1.347 1.346 0 .742.605 1.346 1.347 1.346s1.347-.604 1.347-1.346c0-.742-.605-1.346-1.347-1.346zm0 4.192a2.85 2.85 0 01-2.847-2.846 2.85 2.85 0 012.847-2.846 2.85 2.85 0 012.847 2.846 2.85 2.85 0 01-2.847 2.846zM1.5 25.075h40.023V14.247H1.5v10.83zm40.198 1.5H1.325A1.325 1.325 0 010 25.25V14.07c0-.73.595-1.324 1.325-1.324h40.373c.73 0 1.326.593 1.326 1.324v11.18c0 .732-.595 1.326-1.326 1.326z" fill="#0078D7"/><path d="M6.052 30.31a1.35 1.35 0 00-1.347 1.348c0 .742.605 1.346 1.347 1.346s1.347-.604 1.347-1.346c0-.743-.605-1.347-1.347-1.347zm0 4.194a2.85 2.85 0 01-2.847-2.846 2.85 2.85 0 012.847-2.847 2.85 2.85 0 012.847 2.847 2.85 2.85 0 01-2.847 2.846zM1.5 37.6h40.023V26.55H1.5V37.6zm40.198 1.5H0V26.374c0-.73.595-1.324 1.325-1.324h40.373c.73 0 1.326.594 1.326 1.324v11.402c0 .73-.595 1.325-1.326 1.325z" fill="#0078D7"/></g></svg>