<svg xmlns="http://www.w3.org/2000/svg" viewBox="0 0 48 48"><path fill-rule="evenodd" clip-rule="evenodd" d="M0 37.504h48v9H0v-9zm20.992 4.5a2.25 2.25 0 11-4.5 0 2.25 2.25 0 014.5 0zM0 25.504h48v9H0v-9zm20.992 4.5a2.25 2.25 0 11-4.5 0 2.25 2.25 0 014.5 0zM0 13.504h48v9H0v-9zm20.992 4.5a2.25 2.25 0 11-4.5 0 2.25 2.25 0 014.5 0zM0 1.504h48v9H0v-9zm20.992 4.5a2.25 2.25 0 11-4.5 0 2.25 2.25 0 014.5 0z" fill="#0078D4"/><path d="M5.25 44.254a2.25 2.25 0 100-4.5 2.25 2.25 0 000 4.5zm6.746 0a2.25 2.25 0 100-4.5 2.25 2.25 0 000 4.5zm-6.746-12a2.25 2.25 0 100-4.5 2.25 2.25 0 000 4.5zm6.746 0a2.25 2.25 0 100-4.5 2.25 2.25 0 000 4.5zm-6.746-12a2.25 2.25 0 100-4.5 2.25 2.25 0 000 4.5zm6.746 0a2.25 2.25 0 100-4.5 2.25 2.25 0 000 4.5zm-6.746-12a2.25 2.25 0 100-4.5 2.25 2.25 0 000 4.5zm6.746 0a2.25 2.25 0 100-4.5 2.25 2.25 0 000 4.5z" fill="#50E6FF"/></svg>