<svg viewBox="0 0 281 124" xmlns="http://www.w3.org/2000/svg"><g fill="none" fill-rule="evenodd"><path fill="#D7E8F6" d="M246.92 52.603l-11.24 6.767 5.282 19.61 3.9-4.817 4.358 13.074 4.243-16.974 4.014 4.36 2.974-16.4z"/><path d="M163.906 105.299h-39.857V73.341h40.759v31.055a.902.902 0 01-.902.901m-54.043-.901V77.297h13.382v28h-12.48a.902.902 0 01-.902-.901m.9-36.416l53.142-.08a.901.901 0 01.903.903v3.734h-54.945v-3.656a.9.9 0 01.9-.901M165.82 63h-56.443a4.423 4.423 0 00-4.423 4.423v39.198c0 1.933 1.57 3.654 3.52 3.654h20.873c2.063 7.275-.591 8.473-12.272 8.528a.91.91 0 00-.745.415.863.863 0 00-.166.485v2.109c0 .498.404.901.902.901h40.553a.902.902 0 00.902-.901v-2.106a.902.902 0 00-.902-.901h-.012c-11.598-.057-12.71-1.251-10.644-8.53h17.956a4.83 4.83 0 004.815-4.816V66.686c0-1.95-1.97-3.686-3.914-3.686" fill="#0078D7"/><path fill="#0078D7" d="M128.673 79.974h31.5v-1.835h-31.5zm0 6.575h31.5v-1.835h-31.5zm0 6.653h21.866v-1.835h-21.866zm-69.72 12.097H19.095V73.341h40.76v31.055a.902.902 0 01-.902.901m-54.044-.901V77.297H18.29v28H5.81a.902.902 0 01-.902-.901m.9-36.416l53.142-.08a.902.902 0 01.904.903v3.734H4.909v-3.656a.9.9 0 01.9-.901M60.867 63H4.422A4.422 4.422 0 000 67.424v39.198c0 1.933 1.57 3.654 3.52 3.654h20.873c2.063 7.275-.59 8.473-12.273 8.528a.92.92 0 00-.313.063.89.89 0 00-.433.353.863.863 0 00-.164.484v2.109a.9.9 0 00.901.901h40.555a.901.901 0 00.9-.901v-2.106a.901.901 0 00-.9-.901h-.013c-11.597-.057-12.71-1.251-10.645-8.53h17.956a4.83 4.83 0 004.817-4.816V66.686c0-1.95-1.97-3.686-3.915-3.686"/><path fill="#0078D7" d="M23.719 79.974H55.22v-1.835H23.719zm0 6.575H55.22v-1.835H23.719zm0 6.653h21.867v-1.835H23.719z"/><path fill="#ACD1EF" d="M246.804 55.011l-6.645 3.44 2.983 10.321 2.638-2.179 2.752 6.881 2.408-10.092 3.67 4.243 1.139-9.288z"/><path fill="#0078D7" d="M239.395 16.974h31.5v-1.835h-31.5zm0 6.576h31.5v-1.835h-31.5zm0 6.651h21.866v-1.835h-21.866z"/><path d="M275.53 9.538h-54.945V5.882c0-.497.403-.902.9-.903l53.142-.08c.499 0 .903.406.903.904v3.735zm0 31.858a.901.901 0 01-.901.902H234.77V10.342h40.759v31.054zm-11.705 18.318l-4.64 25.15-3.271-5.1a.454.454 0 00-.44-.207.456.456 0 00-.38.302l-5.963 16.962-4.94-12.504a.457.457 0 00-.697-.202l-4.608 3.38-6.747-27.433.642-.348h31.044zm-43.24-18.318V14.298h13.382v28h-12.48a.902.902 0 01-.902-.902zM276.543 0h-56.445a4.422 4.422 0 00-4.422 4.422v39.199c0 1.933 1.57 3.653 3.52 3.653h20.874c2.062 7.275-.593 8.473-12.273 8.528a.916.916 0 00-.746.417.855.855 0 00-.166.484v2.107c0 .498.405.903.903.903h3.382a.435.435 0 00-.006.224l6.995 28.442a.46.46 0 00.717.26l4.68-3.433 5.173 13.095a.46.46 0 00.427.29h.009a.46.46 0 00.424-.306l6.06-17.235 3.392 5.287a.458.458 0 00.838-.164l4.879-26.46h3.582a.903.903 0 00.903-.903v-2.104a.902.902 0 00-.902-.902h-.012c-11.6-.057-12.71-1.251-10.645-8.53h17.956a4.83 4.83 0 004.816-4.816V3.684c0-1.947-1.97-3.683-3.913-3.683zm-50.962 123.028h44.969v-2.234h-44.969z" fill="#0078D7"/></g></svg>