<svg xmlns="http://www.w3.org/2000/svg" viewBox="0 0 48 48"><path d="M0 42.972h48V6.012H0v36.96z" fill="#0078D4"/><path d="M0 10.006h47.983V5.004H0v5.002z" fill="#50E6FF"/><path d="M7.478 8.825a1.221 1.221 0 100-2.442 1.221 1.221 0 000 2.442zm-3.79 0a1.221 1.221 0 100-2.442 1.221 1.221 0 000 2.442zm7.663 0a1.221 1.221 0 100-2.442 1.221 1.221 0 000 2.442z" fill="#fff"/><path d="M15.023 20.2H2.4v12.622h12.623V20.2zm2.569 0v12.622h12.631L17.592 20.2zm21.524 0a6.318 6.318 0 00-6.316 6.315 6.318 6.318 0 006.316 6.316 6.318 6.318 0 006.315-6.316 6.313 6.313 0 00-6.315-6.316z" fill="#50E6FF"/></svg>