<svg xmlns="http://www.w3.org/2000/svg" viewBox="0 0 32 32"><path fill="#00ABEC" d="M29.703 20.797a5.003 5.003 0 011.688 1.813A5.005 5.005 0 0132 25a4.77 4.77 0 01-.398 1.938c-.266.604-.625 1.133-1.078 1.586s-.982.813-1.586 1.078A4.774 4.774 0 0127 30a4.89 4.89 0 01-2.656-.766 13.433 13.433 0 01-3.945 2.063C18.966 31.766 17.5 32 16 32s-2.966-.234-4.398-.703a13.372 13.372 0 01-3.945-2.063A4.898 4.898 0 015 30a4.774 4.774 0 01-1.938-.398c-.604-.266-1.133-.625-1.586-1.078s-.813-.981-1.078-1.586A4.77 4.77 0 010 25a5.033 5.033 0 01.609-2.39c.198-.364.44-.7.727-1.008.286-.307.606-.575.961-.805a12.1 12.1 0 01-.227-1.398C2.023 18.936 2 18.469 2 18c0-1.438.216-2.831.648-4.18a14.401 14.401 0 011.828-3.75 14.065 14.065 0 012.836-3.055A13.458 13.458 0 0111 4.922c.01-.677.148-1.315.414-1.914a5 5 0 011.078-1.563A5.193 5.193 0 0114.078.39 4.81 4.81 0 0116 0c.677 0 1.317.13 1.922.391a5.187 5.187 0 011.586 1.055c.453.443.813.964 1.078 1.563.266.598.403 1.236.414 1.913a13.435 13.435 0 013.688 2.094 14.114 14.114 0 012.836 3.055 14.401 14.401 0 011.828 3.75C29.783 15.169 30 16.563 30 18c0 .469-.023.936-.07 1.398-.047.464-.123.93-.227 1.399zM2 25a2.99 2.99 0 003 3 2.995 2.995 0 002.766-1.828C7.922 25.808 8 25.417 8 25c0-.416-.078-.807-.234-1.172a3.012 3.012 0 00-.641-.953 3.029 3.029 0 00-.953-.641A2.948 2.948 0 005 22a2.99 2.99 0 00-3 3zm14 5c1.229 0 2.43-.185 3.602-.555a11.867 11.867 0 003.273-1.617 5.092 5.092 0 01-.648-1.352A4.898 4.898 0 0122 25c0-.688.133-1.333.398-1.938.266-.604.625-1.133 1.078-1.586s.981-.813 1.586-1.078A4.774 4.774 0 0127 20a5.51 5.51 0 01.812.063 11.9 11.9 0 00-.335-5.586 12.138 12.138 0 00-1.484-3.141 11.9 11.9 0 00-2.328-2.578 12 12 0 00-3.055-1.836 4.798 4.798 0 01-.758 1.258 5.063 5.063 0 01-2.399 1.602C16.984 9.927 16.5 10 16 10s-.984-.073-1.453-.219a5.078 5.078 0 01-2.399-1.602 4.755 4.755 0 01-.758-1.258 11.982 11.982 0 00-5.383 4.414 12.04 12.04 0 00-1.484 3.141 11.88 11.88 0 00-.335 5.587 4.805 4.805 0 012.18.125 4.978 4.978 0 011.859 1.008 5.27 5.27 0 011.289 1.68C9.838 23.531 10 24.24 10 25c0 .5-.076.992-.227 1.477a5.138 5.138 0 01-.648 1.352 11.881 11.881 0 003.273 1.617C13.57 29.815 14.771 30 16 30zm0-28a2.99 2.99 0 00-3 3 2.99 2.99 0 003 3c.417 0 .807-.078 1.172-.234.364-.156.682-.37.953-.641.271-.271.484-.588.641-.953C18.922 5.808 19 5.417 19 5c0-.417-.078-.807-.234-1.172a3.012 3.012 0 00-.641-.953 3.029 3.029 0 00-.953-.641A2.948 2.948 0 0016 2zm11 26a2.995 2.995 0 002.766-1.828c.156-.364.234-.755.234-1.172 0-.416-.078-.807-.234-1.172a3.012 3.012 0 00-.641-.953 3.029 3.029 0 00-.953-.641A2.952 2.952 0 0027 22a2.99 2.99 0 00-3 3 2.973 2.973 0 001.828 2.766c.364.156.755.234 1.172.234z"/></svg>