<svg xmlns="http://www.w3.org/2000/svg" viewBox="0 0 49 49"><path d="M5.543 35.721a3.761 3.761 0 015.314 0 3.761 3.761 0 010 5.314 3.761 3.761 0 01-5.314 0 3.761 3.761 0 010-5.314z" fill="#0078D4"/><path d="M22.503 36.538a2.526 2.526 0 00-3.57 0 2.532 2.532 0 00-.657 1.154h-2.493a7.569 7.569 0 00-2.19-4.69 7.527 7.527 0 00-2.551-1.685l1.634-2.644a2.53 2.53 0 003.209-2.998 2.53 2.53 0 00-3.04-1.878 2.53 2.53 0 00-1.879 3.04c.11.455.337.85.64 1.17l-1.81 2.931a7.596 7.596 0 00-6.956 2.055c-2.964 2.964-2.964 7.79 0 10.754 2.964 2.964 7.79 2.964 10.754 0a7.526 7.526 0 002.197-4.8h2.485c.11.42.328.825.657 1.153a2.526 2.526 0 003.57 0 2.516 2.516 0 000-3.562zm-10.114 6.03c-2.307 2.307-6.063 2.307-8.362 0-2.299-2.308-2.307-6.063 0-8.362 2.308-2.3 6.063-2.308 8.362 0 2.308 2.299 2.308 6.054 0 8.362z" fill="#50E6FF"/><path d="M21.914 7.646a3.761 3.761 0 015.313 0 3.761 3.761 0 010 5.313 3.761 3.761 0 01-5.313 0 3.761 3.761 0 010-5.313z" fill="#0078D4"/><path d="M32.23 17.321a2.54 2.54 0 00-1.331.042l-1.002-1.625c.017-.017.042-.033.059-.059 2.964-2.964 2.964-7.79 0-10.753-2.964-2.965-7.79-2.965-10.754 0-2.964 2.964-2.964 7.79 0 10.753l.008.009-1.035 1.675a2.53 2.53 0 00-3.208 2.998 2.53 2.53 0 003.04 1.878 2.53 2.53 0 001.877-3.04 2.572 2.572 0 00-.64-1.17l.935-1.516a7.626 7.626 0 008.733.042l.91 1.482a2.53 2.53 0 00-.64 1.17 2.53 2.53 0 001.877 3.04 2.53 2.53 0 003.04-1.877 2.519 2.519 0 00-1.87-3.049zm-11.84-2.838c-2.308-2.307-2.308-6.063 0-8.362 2.307-2.299 6.063-2.307 8.362 0 2.307 2.308 2.307 6.064 0 8.362-2.3 2.308-6.055 2.308-8.362 0z" fill="#50E6FF"/><path d="M38.31 35.68a3.761 3.761 0 015.313.025 3.761 3.761 0 01-.025 5.313 3.761 3.761 0 01-5.314-.025 3.753 3.753 0 01.025-5.314z" fill="#0078D4"/><path d="M46.36 33.001a7.608 7.608 0 00-7.082-2.063l-1.802-2.922a2.53 2.53 0 00.64-1.17 2.53 2.53 0 00-1.878-3.04 2.53 2.53 0 00-3.04 1.877 2.53 2.53 0 003.208 2.998l1.642 2.653a7.497 7.497 0 00-2.433 1.617 7.607 7.607 0 00-2.223 4.75H30.79a2.532 2.532 0 00-.657-1.154 2.526 2.526 0 00-3.57 3.57 2.526 2.526 0 003.57 0c.328-.328.547-.732.657-1.153h2.593a7.582 7.582 0 002.173 4.749c2.947 2.981 7.773 3.006 10.754.05 2.972-2.964 2.997-7.789.05-10.762zm-1.246 9.55c-2.316 2.299-6.072 2.274-8.362-.042-2.3-2.316-2.274-6.072.042-8.362 2.316-2.3 6.071-2.274 8.362.042a5.909 5.909 0 01-.042 8.362z" fill="#50E6FF"/></svg>