<svg xmlns="http://www.w3.org/2000/svg" viewBox="0 0 49 48"><path opacity=".6" fill="#fff" d="M.488 0h48v48h-48z"/><path d="M24.575 45.623h-.173c-4.649-.172-17.22-8.438-17.22-24.021V9.376l.948.086c.086 0 7.92.86 15.842-6.63l.603-.517.602.43c8.438 6.803 15.756 6.717 15.756 6.717h.861v12.226c0 15.497-12.57 23.763-17.22 23.935z" fill="#0078D4"/><path d="M25.608 24.702v5.596h-2.239v-5.596a2.82 2.82 0 01-1.722-2.583c0-1.55 1.292-2.842 2.841-2.842 1.55 0 2.841 1.292 2.841 2.842a2.82 2.82 0 01-1.721 2.583z" fill="#50E6FF"/></svg>