<svg xmlns="http://www.w3.org/2000/svg" viewBox="0 0 96 96"><path d="M48.22.404A108.42 108.42 0 0115.613 12.7v57.65l32.455 25.584 32.994-25.516V12.699C69.457 10.375 58.493 6.164 48.455.404h-.235z" fill="#0078D4"/><path d="M60.699 37.558c0-6.94-5.676-12.632-12.632-12.632-6.231 0-11.453 4.581-12.446 10.56h5.17a7.552 7.552 0 011.937-3.267 7.52 7.52 0 0110.678 0 7.52 7.52 0 012.223 5.339v3.048H35.435v25.33h25.247V42.224c.017-2.274.017-4.126.017-4.665z" fill="#50E6FF"/><path d="M48 56.303a3.065 3.065 0 100-6.13 3.065 3.065 0 000 6.13z" fill="#0078D4"/></svg>