<svg xmlns="http://www.w3.org/2000/svg" viewBox="0 0 32 32"><path fill="#00AAEB" d="M28 8v20c0 .552-.107 1.07-.32 1.555-.214.484-.5.906-.859 1.266s-.784.646-1.273.859A3.832 3.832 0 0124 32H6c-.553 0-1.07-.106-1.555-.32s-.906-.5-1.266-.859-.646-.781-.859-1.266A3.807 3.807 0 012 28V8h4V6c0-.823.158-1.599.477-2.328a6.116 6.116 0 011.289-1.906A6.121 6.121 0 019.672.477 5.755 5.755 0 0112 0c1.083 0 2.088.271 3.016.813A5.812 5.812 0 0118 0c.822 0 1.599.159 2.328.477a6.15 6.15 0 011.906 1.289 6.15 6.15 0 011.289 1.906C23.841 4.401 24 5.177 24 6v2h4zm-7.469 22A3.995 3.995 0 0120 28V10H4v18c0 .281.052.542.156.781a2.034 2.034 0 001.063 1.063c.239.104.5.156.781.156h14.531zM8 8h8V6c0-.542-.107-1.057-.32-1.547-.214-.489-.5-.914-.859-1.273s-.784-.646-1.273-.859A3.833 3.833 0 0012 2a3.82 3.82 0 00-1.555.32c-.484.214-.906.5-1.265.86s-.647.784-.86 1.273A3.82 3.82 0 008 6v2zm14-2c0-.542-.107-1.057-.32-1.547-.214-.489-.5-.914-.859-1.273s-.784-.646-1.273-.859A3.833 3.833 0 0018 2c-.469 0-.912.078-1.328.234.375.469.656.927.844 1.375.188.448.314.901.383 1.359.067.459.101.936.101 1.43V8h4V6zm4 4h-4v18c0 .281.052.542.156.781a2.034 2.034 0 001.063 1.063c.239.104.5.156.781.156s.541-.052.781-.156a2.034 2.034 0 001.063-1.063c.103-.239.156-.5.156-.781V10z"/></svg>