<svg xmlns="http://www.w3.org/2000/svg" viewBox="0 0 92.292 48"><path d="M84.426 24.218c-.08-.17-.116-.256-.16-.339q-1.734-3.297-3.476-6.59a.403.403 0 01.058-.54q2.759-3.224 5.5-6.462a.58.58 0 00.147-.29c-.536.14-1.071.278-1.606.42q-3.334.883-6.665 1.773a.306.306 0 01-.404-.177q-1.893-3.161-3.799-6.315a.86.86 0 00-.275-.307c-.102.561-.206 1.122-.306 1.684q-.53 2.975-1.057 5.95c-.038.215-.091.428-.11.644-.017.205-.122.28-.307.338q-3.929 1.234-7.852 2.482a.87.87 0 00-.35.195l6.454 2.565c-.08.063-.13.112-.188.15-1.339.865-2.679 1.728-4.014 2.598a.427.427 0 01-.466.038c-1.598-.72-3.203-1.426-4.804-2.141a4.954 4.954 0 01-1.868-1.363 2.478 2.478 0 01.603-3.944 7.16 7.16 0 011.622-.737c2.565-.836 5.14-1.642 7.713-2.45a.438.438 0 00.356-.398q.514-2.978 1.056-5.951a10.35 10.35 0 01.809-3.119A5.232 5.232 0 0171.755.88a2.29 2.29 0 013.527-.098 6.712 6.712 0 01.95 1.236q1.784 2.91 3.524 5.849a.382.382 0 00.517.21q4.304-1.154 8.615-2.286a4.053 4.053 0 011.8-.1 1.773 1.773 0 011.454 2.535 4.89 4.89 0 01-.95 1.54q-3.007 3.536-6.017 7.068a.411.411 0 00-.054.546q1.8 3.392 3.582 6.793a3.776 3.776 0 01.51 1.727 2.784 2.784 0 01-2.428 2.78 5.036 5.036 0 01-2.258-.28q-2.7-.835-5.405-1.646a.309.309 0 01-.26-.296c-.208-1.269-.434-2.535-.653-3.802a.82.82 0 01.01-.15l6.208 1.712" fill="#e25a1c"/><path d="M80.918 42.702c-1.623-.003-3.246-.01-4.869-.004a.47.47 0 01-.455-.244q-2.881-4.39-5.779-8.768c-.062-.093-.127-.183-.236-.34L68.35 42.68H64.1c.05-.414.094-.814.146-1.212q.623-4.753 1.248-9.505.597-4.541 1.198-9.081a.393.393 0 01.146-.253q2.193-1.43 4.397-2.844a.658.658 0 01.126-.037L70.038 29.85l.052.036 6.956-7.71c.068.392.127.728.184 1.064.165.962.323 1.926.5 2.886a.456.456 0 01-.144.448q-2.233 2.337-4.456 4.683c-.065.068-.127.139-.201.22.047.076.088.149.136.216q3.84 5.39 7.682 10.778a1.514 1.514 0 00.171.174v.057M30.547 33.36a9.941 9.941 0 00-.259-1.27 4.392 4.392 0 00-5.296-2.858 5.905 5.905 0 00-4.651 5.217 4.238 4.238 0 002.777 4.49 5.014 5.014 0 004.45-.508 5.903 5.903 0 002.979-5.07zm-11.235 8.162c-.126.945-.246 1.835-.363 2.726q-.234 1.777-.46 3.554c-.018.138-.06.199-.208.198-1.167-.005-2.335-.004-3.502-.005a.632.632 0 01-.116-.033c.07-.559.139-1.12.212-1.68l.776-5.892c.299-2.246.536-4.502.918-6.734a10.531 10.531 0 017.963-8.203 8.248 8.248 0 016.453 1.019 7.199 7.199 0 013.384 5.472 9.647 9.647 0 01-3.194 8.312 9.914 9.914 0 01-5.51 2.755 8.14 8.14 0 01-6.096-1.327c-.068-.047-.14-.088-.257-.162M17.41 22.748l-3.839 2.858c-.204-.323-.387-.644-.6-.942a2.955 2.955 0 00-2.227-1.413 2.49 2.49 0 00-2.095.824 1.465 1.465 0 00-.098 1.934c.517.677 1.083 1.32 1.662 1.946.958 1.04 1.96 2.039 2.912 3.084a6.499 6.499 0 011.77 3.316 6.757 6.757 0 01-.784 4.374 8.3 8.3 0 01-6.294 4.427 8.257 8.257 0 01-3.69-.196A5.436 5.436 0 01.68 39.945C.425 39.42.23 38.865 0 38.3l4.162-2.228c.049.116.083.212.128.302a12.434 12.434 0 00.723 1.413 2.826 2.826 0 003.697 1.047 4.075 4.075 0 001.018-.662 2.167 2.167 0 00.41-2.973 14.486 14.486 0 00-1.353-1.645c-1.136-1.261-2.318-2.482-3.427-3.766a5.948 5.948 0 01-1.449-3.102 5.32 5.32 0 01.753-3.605 7.817 7.817 0 017.325-4 5.768 5.768 0 014.43 2.35c.335.422.65.86.993 1.318m31.085 14.538c-.214 1.631-.415 3.182-.624 4.731a.317.317 0 01-.14.216c-3.167 1.467-7.338 1.263-9.94-1.691a7.637 7.637 0 01-1.896-5.567A10.489 10.489 0 0144.93 25.3a7.735 7.735 0 017.179 2.596 7.231 7.231 0 011.808 5.223c-.059 1.294-.262 2.583-.423 3.871-.228 1.826-.478 3.648-.719 5.472-.008.065-.021.129-.036.211H48.95c.05-.419.097-.829.15-1.238.274-2.107.576-4.21.817-6.32a6.75 6.75 0 00-.546-3.836 3.706 3.706 0 00-3.121-2.127 5.917 5.917 0 00-6.316 4.59 4.39 4.39 0 001.746 4.717 4.78 4.78 0 004.65.347 6.079 6.079 0 002.165-1.518M64.45 25.667l-.517 3.929c-.8 0-1.586-.005-2.372.002a1.494 1.494 0 00-1.408 1.01 4.11 4.11 0 00-.135.725q-.598 4.525-1.19 9.05c-.1.76-.197 1.522-.297 2.294h-3.944c.074-.58.143-1.141.217-1.702q.385-2.933.773-5.864c.224-1.692.424-3.387.688-5.072a5.482 5.482 0 014.882-4.364c1.088-.047 2.179-.008 3.304-.008m21.116 17.01v-1.664h-.01l-.653 1.664h-.208l-.654-1.664h-.01v1.664h-.329v-1.994h.508l.596 1.515.586-1.515h.503v1.994h-.329zm-2.894-1.727v1.728h-.33V40.95h-.624v-.267h1.578v.267h-.624M22.694 19.948h.978l-.23-1.48zm1.131.956h-1.627l-.517 1.013H20.53l2.542-4.748h1.11l.866 4.748H23.98l-.154-1.013m5.82-2.779h-.58l-.195 1.096h.58a.607.607 0 00.628-.663.397.397 0 00-.433-.433zm-1.403-.956h1.523a1.237 1.237 0 011.354 1.291 1.657 1.657 0 01-1.76 1.718h-.656l-.308 1.739h-.99l.837-4.748m6.245 2.779h.978l-.231-1.48zm1.13.956h-1.626l-.517 1.013h-1.152l2.542-4.748h1.11l.866 4.748h-1.068l-.154-1.013m6.432.845a2.603 2.603 0 01-1.075.245 2.004 2.004 0 01-2.046-2.123 2.814 2.814 0 012.78-2.78 2.07 2.07 0 01.998.245l-.14 1.138a1.28 1.28 0 00-.964-.39 1.704 1.704 0 00-1.634 1.69 1.129 1.129 0 001.118 1.228 1.779 1.779 0 001.096-.384l-.133 1.131m6.059-1.746h-2.066l-.336 1.914h-.99l.837-4.748h.992l-.335 1.878h2.066l.335-1.878h.992l-.838 4.748h-.991l.335-1.913m3.636 1.913l.837-4.748h2.633l-.168.956h-1.64l-.168.922h1.508l-.167.957h-1.509l-.167.956h1.64l-.167.957h-2.632" fill="#3c3a3e"/></svg>