<svg xmlns="http://www.w3.org/2000/svg" viewBox="0 0 61 61"><path d="M18.206 29.913l5.879 5.879L40.47 19.365l2 2.001-18.427 18.428-7.921-7.921 2.084-1.96zm26.808 13.133c-1.376-.041-2.585-1-2.793-2.293-.25-1.5.834-2.877 2.46-3.127 1.584-.208 3.377.584 3.794 2.669.416 3.001-1.918 5.461-5.42 5.795-.126 0-.167-.042-.167-.042l-.167-.917s0-.084.083-.125c1.001-.334 1.877-.792 2.21-1.96zm-7.88 0c-1.376-.041-2.585-1-2.793-2.293-.25-1.5.834-2.877 2.46-3.127 1.584-.208 3.377.584 3.794 2.669.417 3.001-1.918 5.461-5.42 5.795-.125 0-.167-.042-.167-.042l-.167-.917s0-.084.084-.125c1.042-.334 1.918-.792 2.21-1.96zm-12.8-25.932c1.377.041 2.586 1 2.794 2.293.25 1.5-.834 2.877-2.46 3.127-1.584.208-3.377-.584-3.793-2.668-.418-3.002 1.917-5.462 5.42-5.796.124 0 .166.042.166.042l.167.917s0 .084-.083.125c-1.001.292-1.877.75-2.21 1.96zm-7.837 0c1.376.041 2.585 1 2.793 2.293.25 1.5-.834 2.877-2.46 3.127-1.584.208-3.377-.584-3.794-2.668-.416-3.002 1.918-5.462 5.42-5.796.125 0 .167.042.167.042l.167.917s0 .084-.084.125c-1.042.292-1.876.75-2.21 1.96z" fill="#0078D4"/></svg>