<svg xmlns="http://www.w3.org/2000/svg" viewBox="0 0 48 49"><path d="M34.802 34.002l3.586 3.588-3.586 3.588v-7.176z" fill="#50E6FF"/><path d="M13.256 15.752L9.67 12.164l3.586-3.588v7.176z" fill="#0078D4"/><path d="M11.328 48.82H24.03c6.253 0 11.329-5.079 11.329-11.337S30.284 26.147 24.03 26.147h-12.7C5.076 26.138 0 31.217 0 37.475 0 43.74 5.076 48.82 11.33 48.82z" fill="#50E6FF"/><path d="M20.149 37.264a2.485 2.485 0 01-2.677 2.678 2.485 2.485 0 01.404-4.952 2.494 2.494 0 012.273 2.274zm-7.575 0a2.485 2.485 0 01-2.676 2.678 2.485 2.485 0 01.404-4.952 2.494 2.494 0 012.272 2.274zm15.15 0a2.485 2.485 0 01-2.677 2.678 2.485 2.485 0 01.404-4.952 2.494 2.494 0 012.273 2.274z" fill="#fff"/><path d="M23.895 23.543h12.7c6.254 0 11.329-5.08 11.329-11.337 0-6.258-5.067-11.337-11.329-11.337h-12.7c-6.254 0-11.33 5.079-11.33 11.337 0 6.266 5.076 11.337 11.33 11.337z" fill="#0078D4"/><path d="M32.715 11.995a2.485 2.485 0 01-2.677 2.679 2.485 2.485 0 01.404-4.952 2.48 2.48 0 012.273 2.273zm-7.575 0a2.485 2.485 0 01-2.677 2.679 2.485 2.485 0 01.404-4.952 2.48 2.48 0 012.273 2.273zm15.15 0a2.485 2.485 0 01-2.677 2.679 2.485 2.485 0 01.404-4.952 2.48 2.48 0 012.273 2.273z" fill="#50E6FF"/></svg>