<svg xmlns="http://www.w3.org/2000/svg" viewBox="0 0 264.506 113.852"><path fill="#22A6FF" d="M244.79 110.65l1.022-1.577-.035-.136-1.261-1.589.289-1.356 1.873-1.139.209-.129-.173-.828-.212-1-.28-.031-2.1-.214-.889-1.009.454-2.208-1.566-1.015-.131.028-1.589 1.258-1.368-.3-1.259-2.065-1.829.383-.029.277-.212 2.1-1.154.794-2.354-.549-1.022 1.577.183.212 1.322 1.647-.254 1.378-2.047 1.27.384 1.848.281.031 2.1.214.795 1.155-.548 2.356 1.577 1.022.212-.183 1.647-1.322 1.366.245 1.284 2.056 1.835-.392.031-.281.214-2.1 1.024-.9 2.21.472zm-7.585-2.845a2.636 2.636 0 113.634-.787 2.64 2.64 0 01-3.638.787h.004z"/><path fill="#1EADF1" d="M43.574 67.2v-6.756h-7.293V67.2h-2.59V51.6h2.59v6.563h7.292V51.6h2.6v15.6h-2.599zm9.169-4.829a3.255 3.255 0 00.925 2.318 3.419 3.419 0 002.427.794 5.535 5.535 0 001.817-.3 5.851 5.851 0 001.524-.768v2.123c-.525.318-1.1.546-1.7.675a9.445 9.445 0 01-2.253.261 5.06 5.06 0 01-3.929-1.518 6.007 6.007 0 01-1.393-4.218 6.709 6.709 0 01.691-3.124 5.145 5.145 0 011.916-2.084 5.08 5.08 0 012.694-.746 4.591 4.591 0 013.589 1.416 5.631 5.631 0 011.279 3.918v1.252l-7.587.001zm5.083-1.894a2.955 2.955 0 00-.621-2.024 2.212 2.212 0 00-1.741-.7 2.418 2.418 0 00-1.774.757 3.494 3.494 0 00-.947 1.964l5.083.003zm6.023 6.723V50.7h2.514v16.5h-2.514zm7.051 0V50.7h2.51v16.5H70.9zm17.676-5.678a5.971 5.971 0 01-1.567 4.332 5.646 5.646 0 01-4.256 1.622 5.533 5.533 0 01-4.109-1.54 5.662 5.662 0 01-1.529-4.174 5.988 5.988 0 011.567-4.375 5.801 5.801 0 014.343-1.6 5.396 5.396 0 014.082 1.529 5.824 5.824 0 011.469 4.206zm-2.612.087c.071-1.004-.221-2-.822-2.808a2.82 2.82 0 00-2.259-.958 2.86 2.86 0 00-2.318 1 4.293 4.293 0 00-.838 2.83 4.13 4.13 0 00.838 2.759 2.904 2.904 0 002.34.985 2.75 2.75 0 002.286-.969c.57-.832.843-1.833.773-2.839zm58.636 5.218a38.417 38.417 0 01-6.355.481 23.836 23.836 0 01-4.1-.271c-2.53-.564-3.617-2.153-3.617-3.993a6.703 6.703 0 012.132-4.474l1.212.627a5.714 5.714 0 00-1.84 3.721c0 1.213.815 2.321 2.613 2.718 1.125.195 2.266.279 3.407.251a35.018 35.018 0 006.439-.564l.109 1.504zm-9.39-10.557a26.151 26.151 0 013.7-2.425v-.021c-1.589.188-5.226.272-7.547.251 0-.4 0-1.087-.021-1.463.46.021 8.487.146 11.916-.669l.167 1.547c-2.487.292-5.686 2.467-7.024 3.533l-1.191-.753zm12.64 11.247c1.547-4.432 4.118-11.832 4.934-14.048.4-1.129.94-2.717 1.087-3.24l2.258.585c-.1.292-.4.4-.815.4-1.15 2.864-2.927 7.756-3.7 9.846h.021a6.682 6.682 0 014.578-2.571c1.819 0 2.7 1.233 2.634 3.178l-.062 2.487c-.021 1.568.815 2.425 2.174 2.425 1.881 0 3.617-2.153 4.578-5.749a9.85 9.85 0 001.359.773c-1.15 3.993-3.219 6.5-6 6.5a3.334 3.334 0 01-3.658-3.47c0-.4.063-2.32.063-2.759 0-1.317-.543-2.007-1.463-2.007-2.4 0-4.829 3.491-5.352 4.85-.292.732-.752 2.07-1.149 3.282l-1.487-.482zm26.21-16.41c-.063.23-.272.355-.69.334a50.197 50.197 0 00-1.108 9.407c-.034 1.385.056 2.77.271 4.139.4-1.024 1.3-3.219 1.589-3.951l.878.92c-.857 2.111-1.484 3.3-1.777 4.244a3.597 3.597 0 00-.167.982c.001.22.034.438.1.648l-1.484.272a22.947 22.947 0 01-.92-7.191 61.175 61.175 0 011.108-10.18l2.2.376zm13.32 15.281c-.752.042-1.526.063-2.3.063a28.87 28.87 0 01-3.888-.23c-2.571-.376-3.763-1.8-3.763-3.47 0-1.442.794-2.655 1.965-4.035l1.359.585a4.947 4.947 0 00-1.777 3.282c0 2.425 3.554 2.425 5.728 2.425.878 0 1.819-.042 2.7-.1l-.024 1.48zm-9.68-12.772a68.371 68.371 0 009.114-.794l.125 1.463a78.936 78.936 0 01-9.2.773l-.039-1.442zm28.84.167A48.207 48.207 0 01197.551 55a26.052 26.052 0 01-.983 5.54 10.648 10.648 0 015.937-2.216c3.115 0 5.017 1.672 5.017 4.494 0 4.16-4.2 5.561-11 5.728a6.158 6.158 0 00-.418-1.38c6-.125 9.888-1.149 9.888-4.306 0-1.881-1.254-3.177-3.679-3.177-1.86 0-5.059 1.128-6.438 3.2l-1.463-.69c.669-.752 1.359-3.742 1.672-7.17h-4.885v-1.47c.878.021 3.449.021 5.017.021.083-1.191.125-2.529.125-3.784l2.216.209c-.042.355-.293.418-.669.46a64.469 64.469 0 01-.188 3.094 40.504 40.504 0 008.571-1.275l.269 1.505zm6.85 14.027c-.648-1.505-.9-4.62-.9-7.358.075-3.282.453-6.55 1.129-9.763l2.027.4a.54.54 0 01-.543.376 40.162 40.162 0 00-1.212 9.01c-.043 1.32.02 2.641.188 3.951.459-1.254 1.3-3.261 1.735-4.244l.941.878c-.69 1.421-2.153 4.6-2.153 5.582.009.343.08.682.209 1l-1.421.168zm12.37-5.018a593.197 593.197 0 01-.251-6.1c1.43-.1 2.846-.352 4.223-.752l-.188-1.463a18.509 18.509 0 01-4.1.836c-.037-1.586-.079-2.948-.1-4.286.335-.063.523-.23.544-.439l-2.112-.063c.042 1.547.105 3.092.188 4.892-1.756.125-3.512.104-5.268.083l.019 1.356h3.177c.606 0 1.484-.021 2.132-.063.105 2.049.23 4.244.293 5.561a7.21 7.21 0 00-1.986-.272c-1.923 0-4.076.941-4.076 3.073 0 1.84 1.63 3.01 4.076 3.01 3.136 0 3.47-1.986 3.491-3.763a12.552 12.552 0 013.387 2.383l.815-1.338a15.411 15.411 0 00-4.264-2.655zm-3.426 4.08c-1.526 0-2.78-.586-2.78-1.756 0-1.317 1.525-1.777 2.8-1.777a7.083 7.083 0 012.07.376l.021.732c0 1.673-.564 2.425-2.111 2.425z"/><path fill="#00A2F2" opacity=".2" d="M46.428 97.471h14.421v14.421H46.428zM253.93 49.25h10.572v10.572H253.93z"/><path fill="#00A2F2" d="M95.655 80.691h-70.8V38.217h70.8v42.474zm-67.8-3h64.8V41.217h-64.8v36.474zm212.675 3H120.28V38.217h120.25v42.474zm-117.25-3h114.25V41.217H123.28v36.474z"/><path fill="#00A2F2" opacity=".2" d="M112.87 50.005h-5a1 1 0 010-2h5a1 1 0 010 2zm-10 0h-5a1 1 0 010-2h5a1 1 0 010 2zm10 18.344h-5a1 1 0 010-2h5a1 1 0 010 2zm-10 0h-5a1 1 0 010-2h5a1 1 0 010 2zm11.83-9.172h-3.467a1 1 0 010-2h3.467a1 1 0 010 2zm-8.467 0h-5a1 1 0 010-2h5a1 1 0 010 2zM226.76 105.94h-5a1 1 0 010-2h5a1 1 0 010 2zm-10 0h-5a1 1 0 010-2h5a1 1 0 010 2zm-10 0h-5a1 1 0 010-2h5a1 1 0 010 2zm-10 0h-5a1 1 0 010-2h5a1 1 0 010 2zm-10 0h-5a1 1 0 010-2h5a1 1 0 010 2zm-10 0h-5a1 1 0 010-2h5a1 1 0 010 2zm-10 0h-5a1 1 0 010-2h5a1 1 0 010 2zm-10 0h-5a1 1 0 010-2h5a1 1 0 010 2zm-10 0h-5a1 1 0 010-2h5a1 1 0 010 2zm-10 0h-5a1 1 0 010-2h5a1 1 0 010 2zm-10 0h-5a1 1 0 010-2h5a1 1 0 010 2zm-10 0h-5a1 1 0 010-2h5a1 1 0 010 2zm-10 0h-5a1 1 0 010-2h5a1 1 0 010 2zm-9.998 0h-5a1 1 0 010-2h5a1 1 0 010 2zm-10 0h-5a1 1 0 010-2h5a1 1 0 010 2zm-10 0h-5a1 1 0 010-2h5a1 1 0 010 2zm-10 0h-5a1 1 0 010-2h5a1 1 0 010 2zm-10 0h-5a1 1 0 010-2h5a1 1 0 010 2zm-10 0h-5a1 1 0 010-2h5a1 1 0 010 2zm-10 0h-5a1 1 0 010-2h5a1 1 0 010 2zm-10 0h-5a1 1 0 010-2h5a1 1 0 010 2zm-10 0h-5a1 1 0 010-2h5a1 1 0 010 2zm-9.438-.56a1 1 0 01-1-1v-5a1 1 0 012 0v5a1 1 0 01-1 1zm0-9.999a1 1 0 01-1-1v-5a1 1 0 012 0v5a1 1 0 01-1 1zm0-10a1 1 0 01-1-1v-5a1 1 0 012 0v5a1 1 0 01-1 1zm0-10a1 1 0 01-1-1v-5a1 1 0 012 0v5a1 1 0 01-1 1zm0-10a1 1 0 01-1-1v-5a1 1 0 012 0v5a1 1 0 01-1 1zm0-10a1 1 0 01-1-1v-5a1 1 0 012 0v5a1 1 0 01-1 1zm0-10a1 1 0 01-1-1v-5a1 1 0 012 0v5a1 1 0 01-1 1zm0-10a1 1 0 01-1-1v-5a1 1 0 012 0v5a1 1 0 01-1 1zm0-10a1 1 0 01-1-1v-5a1 1 0 012 0v5a1 1 0 01-1 1zm0-10a1 1 0 01-1-1V10.1h2.717a1 1 0 010 2h-.717v2.283a1 1 0 01-1 .998zM89.041 12.1h-5a1 1 0 010-2h5a1 1 0 010 2zm-10 0h-5a1 1 0 010-2h5a1 1 0 010 2zm-10 0h-5a1 1 0 010-2h5a1 1 0 010 2zm-10 0h-5a1 1 0 010-2h5a1 1 0 010 2zm-10 0h-5a1 1 0 010-2h5a1 1 0 010 2zm-10 0h-5a1 1 0 010-2h5a1 1 0 010 2zm-10 0h-5a1 1 0 010-2h5a1 1 0 010 2zm-10 0h-5a1 1 0 010-2h5a1 1 0 010 2zm237.379 93.84h-5a1 1 0 010-2h5a1 1 0 010 2zm2.9-2.1a1 1 0 01-1-1v-5a1 1 0 012 0v5a1 1 0 01-1 1s-.001 0 0 0zm0-9.997a1 1 0 01-1-1v-5a1 1 0 012 0v5a1 1 0 01-1 1s-.001 0 0 0zm0-10a1 1 0 01-1-1v-5a1 1 0 012 0v5a1 1 0 01-1 1s-.001 0 0 0zm0-10a1 1 0 01-1-1v-5a1 1 0 012 0v5a1 1 0 01-1 1s-.001 0 0 0zm0-10a1 1 0 01-1-1v-5a1 1 0 012 0v5a1 1 0 01-1 1s-.001 0 0 0zm0-10a1 1 0 01-1-1v-5a1 1 0 012 0v5a1 1 0 01-1 1s-.001 0 0 0zm0-10a1 1 0 01-1-1v-5a1 1 0 012 0v5a1 1 0 01-1 1s-.001 0 0 0zm0-10a1 1 0 01-1-1v-5a1 1 0 012 0v5a1 1 0 01-1 1s-.001 0 0 0zm0-10a1 1 0 01-1-1v-5a1 1 0 012 0v5a1 1 0 01-1 1s-.001 0 0 0zm0-10a1 1 0 01-1-1V12.1h-2.255a1 1 0 010-2h4.255v2.745a1 1 0 01-1 .998zm-8.25-1.743h-5a1 1 0 010-2h5a1 1 0 010 2zm-10 0h-5a1 1 0 010-2h5a1 1 0 010 2zm-10 0h-5a1 1 0 010-2h5a1 1 0 010 2zm-10 0h-5a1 1 0 010-2h5a1 1 0 010 2zm-10 0h-5a1 1 0 010-2h5a1 1 0 010 2zm-10 0h-5a1 1 0 010-2h5a1 1 0 010 2zm-10 0h-5a1 1 0 010-2h5a1 1 0 010 2zm-10 0h-5a1 1 0 010-2h5a1 1 0 010 2zm-10 0h-5a1 1 0 010-2h5a1 1 0 010 2zm-10 0h-5a1 1 0 010-2h5a1 1 0 010 2zm-10 0h-5a1 1 0 010-2h5a1 1 0 010 2zm-10 0h-5a1 1 0 010-2h5a1 1 0 010 2zm-10 0h-5a1 1 0 010-2h5a1 1 0 010 2zm-10 0h-5a1 1 0 010-2h5a1 1 0 010 2z"/><path fill="#00A2F2" opacity=".2" d="M0 17.576h14.883v14.883H0z"/><path fill="#22A6FF" d="M113.24 13.32v-2.593l-.143-.127-2.653-.9-.683-1.787 1.314-2.724.145-.305-.822-.829-1-1-.347.174-2.593 1.329-1.787-.5-1.131-2.9h-2.572l-.131.131-.894 2.647-1.808.681-3.005-1.446-1.833 1.816.174.342 1.326 2.59-.736 1.781-3.138 1.131v2.593l.371.109 2.767.915.741 1.787-1.417 3.007 1.831 1.858.349-.174 2.593-1.329 1.787.741 1.134 3.14h2.593l.109-.371.915-2.767 1.766-.741 3.029 1.417 1.831-1.831-.174-.349-1.329-2.593.512-1.809 2.909-1.114zm-10.918 2.4a3.639 3.639 0 113.618-3.66v.021a3.645 3.645 0 01-3.619 3.636l.001.003z"/><path fill="#00A2F2" opacity=".2" d="M176.84 0h21.986v21.986H176.84z"/></svg>