<svg xmlns="http://www.w3.org/2000/svg" viewBox="0 0 512 512"><g fill-rule="evenodd" fill="#0063B1"><path d="M190.689 218.098c5.802 0 10.553 1.866 14.25 5.604 3.704 3.743 5.547 8.47 5.547 14.188 0 5.797-1.82 10.576-5.49 14.359-3.663 3.777-8.43 5.672-14.307 5.672-5.803 0-10.593-1.957-14.365-5.854-3.771-3.897-5.66-8.625-5.66-14.177 0-5.803 1.9-10.542 5.717-14.24 3.806-3.697 8.579-5.552 14.308-5.552zm68.266 0c5.803 0 10.553 1.866 14.251 5.604 3.704 3.743 5.547 8.47 5.547 14.188 0 5.797-1.82 10.576-5.49 14.359-3.664 3.777-8.431 5.672-14.308 5.672-5.802 0-10.592-1.957-14.364-5.854-3.772-3.897-5.66-8.625-5.66-14.177 0-5.803 1.9-10.542 5.717-14.24 3.806-3.697 8.579-5.552 14.307-5.552zm68.267 0c5.803 0 10.553 1.866 14.25 5.604 3.704 3.743 5.547 8.47 5.547 14.188 0 5.797-1.82 10.576-5.49 14.359-3.663 3.777-8.43 5.672-14.307 5.672-5.803 0-10.593-1.957-14.364-5.854-3.772-3.897-5.66-8.625-5.66-14.177 0-5.803 1.9-10.542 5.716-14.24 3.806-3.697 8.58-5.552 14.308-5.552z"/><path d="M398.294 241.31c0 49.533-39.668 90.06-88.143 90.06H207.546c-2.093 0-4.164-.085-6.224-.233l-57.406 24.639 15.604-39.055c-24.103-16.116-40.123-43.946-40.123-75.417v-7.18c0-49.527 39.668-90.055 88.143-90.055h102.605c48.475 0 88.144 40.528 88.15 90.056v7.185zm-88.149-119.922H207.54c-61.115 0-110.83 50.79-110.83 112.737v7.179c0 31.83 13.232 61.53 35.52 82.574l-29.707 74.348 102.964-44.197a83.16 83.16 0 002.059.023h102.605c61.116 0 110.825-50.79 110.825-112.742v-7.185c-.006-61.952-49.715-112.737-110.83-112.737z"/></g></svg>