<svg xmlns="http://www.w3.org/2000/svg" viewBox="0 0 48 48"><path d="M41.558 39.681a23.488 23.488 0 005.953-14.45h-4.825a18.52 18.52 0 01-4.556 11.023l3.428 3.427z" fill="#0078D4"/><path d="M6.535 8.203A23.467 23.467 0 00.488 22.746h5.036a18.566 18.566 0 014.547-10.998L6.535 8.203z" fill="#50E6FF"/><path d="M8.304 41.56a23.456 23.456 0 0014.534 5.971v-4.943a18.518 18.518 0 01-10.997-4.572L8.304 41.56zM.488 25.23a23.45 23.45 0 006.03 14.544l3.545-3.546a18.601 18.601 0 01-4.53-10.998H.487z" fill="#0078D4"/><path d="M41.542 8.297l-3.428 3.427a18.457 18.457 0 014.565 11.023h4.825a23.428 23.428 0 00-5.962-14.45z" fill="#50E6FF"/><path d="M25.322 47.513a23.439 23.439 0 0014.459-6.038l-3.436-3.436a18.597 18.597 0 01-11.031 4.556l.008 4.918z" fill="#0078D4"/><path d="M25.322.473v4.926a18.553 18.553 0 0111.015 4.539l3.436-3.436a23.544 23.544 0 00-14.45-6.03zM22.838.46A23.52 23.52 0 008.312 6.424l3.536 3.537A18.618 18.618 0 0122.83 5.396L22.838.46z" fill="#50E6FF"/><path d="M27.74 12.617H12.656v10.097h2.341v2.585l2.729-2.585h10.012V12.617z" fill="#0078D4"/><path d="M25.28 25.238v7.621h5.06l2.57 2.468v-2.468h2.484v-7.62H25.28z" fill="#50E6FF"/></svg>