<svg xmlns="http://www.w3.org/2000/svg" viewBox="0 0 59 59"><path d="M29.362.061c2.686 0 5.275.351 7.768 1.053a29.888 29.888 0 017.004 2.96 29.16 29.16 0 015.937 4.579 29.16 29.16 0 014.578 5.936 29.888 29.888 0 012.96 7.005 28.517 28.517 0 011.054 7.768 28.52 28.52 0 01-1.053 7.768 29.888 29.888 0 01-2.96 7.004 29.16 29.16 0 01-4.58 5.937 29.16 29.16 0 01-5.936 4.578 29.888 29.888 0 01-7.004 2.96 28.517 28.517 0 01-7.768 1.054 28.52 28.52 0 01-7.768-1.053 29.888 29.888 0 01-7.005-2.96 29.16 29.16 0 01-5.936-4.58 29.16 29.16 0 01-4.578-5.936 29.888 29.888 0 01-2.961-7.004 28.517 28.517 0 01-1.053-7.768c0-2.686.351-5.275 1.053-7.768a29.888 29.888 0 012.96-7.005 29.16 29.16 0 014.579-5.936 29.16 29.16 0 015.936-4.578 29.888 29.888 0 017.005-2.961A28.517 28.517 0 0129.362.061zm0 54.695c2.34 0 4.588-.305 6.745-.916a26.013 26.013 0 006.059-2.563 25.242 25.242 0 005.143-3.968 25.242 25.242 0 003.968-5.143 26.013 26.013 0 002.563-6.059c.61-2.157.916-4.405.916-6.745s-.305-4.589-.916-6.745a26.013 26.013 0 00-2.563-6.059 25.242 25.242 0 00-3.968-5.143 25.242 25.242 0 00-5.143-3.968 26.014 26.014 0 00-6.059-2.564 24.651 24.651 0 00-6.745-.915c-2.34 0-4.589.305-6.745.915a26.014 26.014 0 00-6.059 2.564 25.242 25.242 0 00-5.143 3.968 25.242 25.242 0 00-3.968 5.143 26.013 26.013 0 00-2.564 6.059 24.651 24.651 0 00-.915 6.745c0 2.34.305 4.588.915 6.745a26.013 26.013 0 002.564 6.059 25.242 25.242 0 003.968 5.143 25.242 25.242 0 005.143 3.968 26.013 26.013 0 006.059 2.563 24.65 24.65 0 006.745.916zm5.25-27.958a5.66 5.66 0 01.61 2.564 5.75 5.75 0 01-.458 2.289 5.88 5.88 0 01-1.251 1.862 5.88 5.88 0 01-1.862 1.251 5.75 5.75 0 01-2.29.458 5.75 5.75 0 01-2.288-.458 5.88 5.88 0 01-1.862-1.251 5.88 5.88 0 01-1.251-1.862 5.75 5.75 0 01-.458-2.29c0-.813.152-1.576.458-2.288a5.88 5.88 0 011.251-1.862 5.88 5.88 0 011.862-1.251 5.75 5.75 0 012.289-.458c.895 0 1.75.203 2.564.61l-.03-.03 11.23-11.232 2.747 2.747-11.232 11.232-.03-.03zm-5.25 4.517c.529 0 .987-.193 1.373-.58.387-.386.58-.844.58-1.373 0-.53-.193-.987-.58-1.374a1.877 1.877 0 00-1.373-.58c-.53 0-.987.194-1.374.58-.386.387-.58.845-.58 1.374 0 .529.194.987.58 1.373.387.387.845.58 1.374.58zm19.534-10.743a20.785 20.785 0 011.42 4.288c.314 1.475.472 2.976.472 4.502 0 2.849-.534 5.59-1.602 8.226a20.84 20.84 0 01-4.624 6.974l-2.778-2.778a17.64 17.64 0 003.815-5.646 16.98 16.98 0 001.343-6.685c0-2.523-.529-4.954-1.587-7.294l3.54-1.587zm-12.331-7.203a17.517 17.517 0 00-7.295-1.588c-1.607 0-3.154.209-4.639.626a17.328 17.328 0 00-4.181 1.786 17.63 17.63 0 00-3.541 2.762 17.87 17.87 0 00-2.732 3.556 17.632 17.632 0 00-1.77 4.196 17.244 17.244 0 00-.626 4.655c0 2.34.448 4.583 1.343 6.73a17.504 17.504 0 003.816 5.692l-2.778 2.778a21.226 21.226 0 01-4.67-6.974 21.364 21.364 0 01-1.617-8.226c0-1.974.254-3.876.763-5.708a21.23 21.23 0 012.167-5.127 21.68 21.68 0 013.357-4.334 21.24 21.24 0 014.334-3.343 21.602 21.602 0 015.128-2.15 21.341 21.341 0 015.738-.763c1.526 0 3.027.157 4.502.473 1.475.315 2.905.788 4.288 1.419l-1.587 3.54z"/></svg>