<svg xmlns="http://www.w3.org/2000/svg" viewBox="0 0 49 49"><path d="M6.89 7.133v34.196c0 3.524 7.907 6.477 17.718 6.477V7.133H6.89z" fill="#0072C5"/><path d="M24.418 47.806h.286c9.81 0 17.717-2.858 17.717-6.477V7.133H24.418v40.673z" fill="#0072C5"/><path d="M24.227 47.805h.285c9.907 0 18.003-2.857 18.003-6.477V7.038H24.322l-.095 40.767z" fill="#3A93CE"/><path d="M42.418 7.133c0 3.525-7.906 6.478-17.717 6.478-9.81 0-17.717-2.858-17.717-6.478 0-3.62 7.906-6.477 17.717-6.477S42.418 3.61 42.418 7.133z" fill="#fff"/><path d="M38.8 6.751c0 2.382-6.286 4.287-14.097 4.287-7.81 0-14.098-1.905-14.098-4.287 0-2.381 6.287-4.286 14.098-4.286 7.81 0 14.097 1.905 14.097 4.286z" fill="#7FB900"/><path d="M35.847 9.323c1.81-.762 2.953-1.62 2.953-2.572 0-2.381-6.286-4.286-14.097-4.286-7.81 0-14.098 1.905-14.098 4.286 0 .953 1.143 1.905 2.953 2.572 2.572-1.048 6.668-1.62 11.145-1.62 4.477 0 8.573.668 11.144 1.62z" fill="#B7D332"/><path d="M18.987 30.85c0 1.048-.381 1.905-1.143 2.477-.762.571-1.81.857-3.239.857-1.143 0-2.095-.19-2.857-.667V31.04a4.432 4.432 0 002.952 1.144c.477 0 .953-.096 1.239-.286.285-.19.38-.476.38-.858 0-.38-.095-.666-.38-.857-.286-.286-.858-.571-1.715-.952-1.714-.762-2.572-1.905-2.572-3.239 0-1.048.381-1.81 1.143-2.381.762-.572 1.715-.953 2.953-.953 1.048 0 2 .19 2.763.476v2.382c-.762-.476-1.62-.762-2.572-.762-.476 0-.858.095-1.143.285-.286.191-.381.477-.381.858 0 .38.095.667.38.857.191.19.668.476 1.43.857 1.047.477 1.81.953 2.285 1.524.286.381.477.953.477 1.715zm9.431-2.381c0-1.143-.285-2-.762-2.668-.476-.666-1.143-.952-2-.952s-1.62.286-2.096.953c-.571.666-.762 1.524-.762 2.667 0 1.047.286 2 .762 2.667.477.666 1.239.952 2.096.952s1.524-.286 2.096-.952c.38-.667.666-1.524.666-2.667zm2.667-.096c0 1.334-.285 2.477-.857 3.43-.571.952-1.429 1.619-2.572 2l3.239 3.048h-3.239l-2.286-2.572a5.12 5.12 0 01-2.667-.762c-.762-.476-1.429-1.143-1.81-2-.476-.858-.666-1.81-.666-2.858 0-1.143.19-2.19.666-3.143a4.74 4.74 0 012-2.096 5.913 5.913 0 012.953-.762c1.048 0 2 .19 2.763.667.857.476 1.429 1.143 1.905 2 .38.953.571 1.905.571 3.048zm8.572 5.619h-6.762V22.848h2.571v9.144h4.191v2z" fill="#fff"/></svg>