<svg xmlns="http://www.w3.org/2000/svg" viewBox="0 0 49 49"><path d="M6.404 7.404V41.6c0 3.524 7.89 6.477 17.68 6.477V7.404z" fill="#0078d4"/><path d="M23.895 48.077h.285c9.79 0 17.68-2.857 17.68-6.477V7.404H23.895z" fill="#0072c5"/><path d="M23.704 48.078h.285c9.886 0 17.966-2.858 17.966-6.477V7.31H23.8z" fill="#0078d4"/><path d="M41.858 7.406c0 3.524-7.89 6.477-17.68 6.477s-17.68-2.858-17.68-6.477c0-3.62 7.89-6.478 17.68-6.478s17.68 2.953 17.68 6.478z" fill="#fff"/><path d="M38.248 7.024c0 2.381-6.274 4.286-14.068 4.286S10.11 9.405 10.11 7.024s6.274-4.287 14.069-4.287 14.068 1.905 14.068 4.287z" fill="#50e6ff"/><path d="M35.301 9.596c1.806-.762 2.947-1.62 2.947-2.572 0-2.382-6.274-4.287-14.068-4.287S10.11 4.642 10.11 7.024c0 .952 1.141 1.905 2.947 2.572 2.567-1.048 6.654-1.62 11.122-1.62s8.555.667 11.121 1.62z" fill="#50e6ff"/><path d="M18.475 31.122c0 1.048-.38 1.905-1.14 2.477-.761.571-1.807.857-3.232.857-1.141 0-2.092-.19-2.852-.667v-2.477a4.417 4.417 0 002.947 1.144c.475 0 .95-.096 1.235-.286.286-.19.38-.476.38-.858 0-.38-.094-.666-.38-.857-.285-.286-.855-.571-1.71-.952-1.712-.762-2.567-1.905-2.567-3.239 0-1.048.38-1.81 1.14-2.381.761-.572 1.712-.953 2.947-.953 1.046 0 1.996.19 2.757.477v2.38c-.76-.475-1.616-.761-2.567-.761-.475 0-.855.095-1.14.286s-.38.476-.38.857.094.667.38.857c.19.19.665.476 1.426.857 1.045.477 1.806.953 2.28 1.524.286.381.476.953.476 1.715zm9.412-2.381c0-1.143-.285-2-.76-2.667-.476-.667-1.141-.952-1.997-.952s-1.616.285-2.091.952c-.57.667-.76 1.524-.76 2.667 0 1.048.285 2 .76 2.667.475.667 1.236.953 2.091.953s1.521-.286 2.091-.953c.38-.667.666-1.524.666-2.667zm2.661-.095c0 1.333-.285 2.477-.855 3.43-.57.952-1.426 1.618-2.567 2l3.232 3.048h-3.232l-2.281-2.572a5.11 5.11 0 01-2.662-.762c-.76-.477-1.425-1.143-1.806-2-.475-.858-.665-1.81-.665-2.858 0-1.143.19-2.191.665-3.144a4.735 4.735 0 011.997-2.095 5.89 5.89 0 012.946-.762c1.046 0 1.996.19 2.757.667.855.476 1.426 1.143 1.901 2 .38.952.57 1.905.57 3.048zm8.556 5.619h-6.75V23.121h2.567v9.144h4.183z" fill="#fff"/></svg>