<svg xmlns="http://www.w3.org/2000/svg" viewBox="0 0 48 48"><path d="M5.036 7.55a2.52 2.52 0 01-2.522-2.525A2.52 2.52 0 015.036 2.5a2.52 2.52 0 012.522 2.525 2.531 2.531 0 01-2.522 2.526zm7.567 0a2.52 2.52 0 01-2.522-2.525A2.52 2.52 0 0112.603 2.5a2.52 2.52 0 012.522 2.525 2.531 2.531 0 01-2.522 2.526zm7.593 0a2.52 2.52 0 01-2.523-2.525A2.52 2.52 0 0120.196 2.5a2.526 2.526 0 010 5.05zm7.566 0a2.52 2.52 0 01-2.522-2.525A2.52 2.52 0 0127.762 2.5a2.526 2.526 0 010 5.05zm7.542 0a2.52 2.52 0 01-2.522-2.525A2.52 2.52 0 0135.304 2.5a2.52 2.52 0 012.523 2.525 2.531 2.531 0 01-2.523 2.526zm7.593 0a2.52 2.52 0 01-2.523-2.525A2.52 2.52 0 0142.897 2.5a2.526 2.526 0 010 5.05zM5.036 15.129a2.52 2.52 0 01-2.522-2.525 2.52 2.52 0 012.522-2.526 2.52 2.52 0 012.522 2.526 2.531 2.531 0 01-2.522 2.525zm7.567 0a2.52 2.52 0 01-2.522-2.525 2.52 2.52 0 012.522-2.526 2.52 2.52 0 012.522 2.526 2.531 2.531 0 01-2.522 2.525zm7.593 0a2.52 2.52 0 01-2.523-2.525 2.52 2.52 0 012.523-2.526 2.526 2.526 0 010 5.05zm7.566 0a2.52 2.52 0 01-2.522-2.525 2.52 2.52 0 012.522-2.526 2.526 2.526 0 010 5.05zm7.542 0a2.52 2.52 0 01-2.522-2.525 2.52 2.52 0 012.522-2.526 2.52 2.52 0 012.523 2.526 2.531 2.531 0 01-2.523 2.525zm7.593 0a2.52 2.52 0 01-2.523-2.525 2.52 2.52 0 012.523-2.526 2.526 2.526 0 010 5.05zM5.036 22.73a2.52 2.52 0 01-2.522-2.526 2.52 2.52 0 012.522-2.525 2.526 2.526 0 010 5.05zm7.567 0a2.52 2.52 0 01-2.522-2.526 2.52 2.52 0 012.522-2.525 2.526 2.526 0 010 5.05zm7.593 0a2.52 2.52 0 01-2.523-2.526 2.52 2.52 0 012.523-2.525 2.52 2.52 0 012.522 2.526 2.52 2.52 0 01-2.522 2.525zm7.566 0a2.52 2.52 0 01-2.522-2.526 2.52 2.52 0 012.522-2.525 2.52 2.52 0 012.522 2.526 2.52 2.52 0 01-2.522 2.525zm7.542 0a2.52 2.52 0 01-2.522-2.526 2.52 2.52 0 012.522-2.525 2.526 2.526 0 010 5.05zm7.593 0a2.52 2.52 0 01-2.523-2.526 2.52 2.52 0 012.523-2.525 2.52 2.52 0 012.522 2.526 2.52 2.52 0 01-2.522 2.525zM5.036 30.304a2.52 2.52 0 01-2.522-2.526 2.52 2.52 0 012.522-2.525 2.526 2.526 0 010 5.05zm7.567 0a2.52 2.52 0 01-2.522-2.526 2.52 2.52 0 012.522-2.525 2.526 2.526 0 010 5.05zm7.593 0a2.52 2.52 0 01-2.523-2.526 2.52 2.52 0 012.523-2.525 2.52 2.52 0 012.522 2.525 2.52 2.52 0 01-2.522 2.526zm-15.16 7.578a2.52 2.52 0 01-2.522-2.526 2.52 2.52 0 012.522-2.525 2.526 2.526 0 010 5.05zm7.567 0a2.52 2.52 0 01-2.522-2.526 2.52 2.52 0 012.522-2.525 2.526 2.526 0 010 5.05zm7.593 0a2.52 2.52 0 01-2.523-2.526 2.52 2.52 0 012.523-2.525 2.52 2.52 0 012.522 2.525 2.52 2.52 0 01-2.522 2.526zm-15.16 7.573a2.52 2.52 0 01-2.522-2.525 2.52 2.52 0 012.522-2.525 2.526 2.526 0 010 5.05zm7.567 0a2.52 2.52 0 01-2.522-2.525 2.52 2.52 0 012.522-2.525 2.526 2.526 0 010 5.05zm7.593 0a2.52 2.52 0 01-2.523-2.525 2.52 2.52 0 012.523-2.525 2.52 2.52 0 012.522 2.525 2.52 2.52 0 01-2.522 2.525z" fill="#0078D4"/><path d="M48 46.199l-7.306-7.24a8.563 8.563 0 001.757-5.202c0-4.74-3.843-8.586-8.576-8.586-4.734 0-8.576 3.847-8.576 8.586 0 4.74 3.842 8.586 8.576 8.586a8.502 8.502 0 005.01-1.616L46.226 48 48 46.199zm-14.125-6.381c-3.338 0-6.054-2.72-6.054-6.061 0-3.342 2.716-6.06 6.054-6.06s6.053 2.718 6.053 6.06c0 3.342-2.715 6.06-6.053 6.06z" fill="#50E6FF"/></svg>