<svg xmlns="http://www.w3.org/2000/svg" viewBox="0 0 16 16"><path fill="#015CDA" d="M8 15.4C3.92 15.4.6 12.081.6 8 .6 3.92 3.92.6 8 .6c4.081 0 7.4 3.32 7.4 7.4 0 4.081-3.319 7.4-7.4 7.4z"/><path fill="#FFF" d="M8 1.013a6.987 6.987 0 110 13.974A6.987 6.987 0 018 1.013M8 0C3.589 0 0 3.589 0 8s3.589 8 8 8 8-3.589 8-8-3.589-8-8-8z"/><path fill="#FFF" d="M7.843 3.794h-.047a4.4 4.4 0 00-2.617.888L3.697 3.2v3.902h3.901L6.126 5.629a2.762 2.762 0 011.717-.577c1.464 0 2.678 1.03 2.933 2.376h1.287a4.26 4.26 0 00-4.22-3.634zm4.414 5.094H8.402l.019.01h-.019l1.426 1.426c-.484.339-1.061.52-1.717.52-1.321 0-2.445-.893-2.829-2.096h-1.35a4.268 4.268 0 004.178 3.354h.046c.963 0 1.858-.332 2.586-.862l1.56 1.56V8.888h-.045z"/></svg>