<svg xmlns="http://www.w3.org/2000/svg" viewBox="0 0 47.248 47.247"><path d="M47.248 23.624A23.624 23.624 0 1123.624 0a23.623 23.623 0 0123.624 23.624" fill="#3999c6"/><path d="M23.624 0A23.609 23.609 0 005.2 38.391L40 6.619A23.535 23.535 0 0023.624 0" fill="#59b4d9"/><path d="M27.73 17.8v17.1a5.15 5.15 0 00.53 2.919 2.882 2.882 0 002.077.726v.83H18.686v-.83a2.817 2.817 0 002.123-.83 5.16 5.16 0 00.461-2.815V22.3a5.16 5.16 0 00-.529-2.918 2.847 2.847 0 00-2.055-.726V17.8zM24.5 7.353a3.562 3.562 0 013.574 3.575 3.411 3.411 0 01-1.048 2.516 3.467 3.467 0 01-2.526 1.037 3.544 3.544 0 01-3.554-3.553 3.46 3.46 0 011.04-2.528A3.407 3.407 0 0124.5 7.353" fill="#fff"/></svg>