<svg xmlns="http://www.w3.org/2000/svg" viewBox="0 0 580 580"><path d="M59.365 335.622c-17.203 0-31.168 13.323-31.168 29.72v8.77c0 15.744 11.721 26.728 28.503 26.728h31.245c4.24 0 8.542 2.537 8.542 7.4v8.088c0 4.554-4.442 7.372-8.542 7.372H29.628v13.823c0 5.344 4.472 9.224 10.596 9.224H92.04c17.344 0 31.432-13.352 31.432-29.745v-11.765c0-15.976-10.303-25.126-28.266-25.126H64.213c-5.393 0-9.026-2.768-9.026-6.934v-6.917c0-3.988 4.641-7.604 9.74-7.604h49.995v-13.84c0-5.764-3.385-9.194-9.055-9.194H59.365m165.185 27.753c-5.483 0-9.301 4.161-9.301 10.129v40.725c0 5.232-4.488 9.471-9.988 9.471h-27.87c-5.496 0-9.983-4.24-9.983-9.471v-40.725c0-5.777-6.27-10.129-11.86-10.129h-5.58c-5.483 0-9.322 4.161-9.322 10.129v42.357c0 20.042 12.968 31.576 35.53 31.576h3.65c10.533 0 19.248-4.364 25.604-7.562 3.678-1.823 6.596-3.286 8.542-3.286.715 0 2.446.14 3.364 1.463l6.343 8.695h8.695c7.058 0 9.616-5.653 9.616-9.455v-63.788c0-5.777-6.27-10.129-11.86-10.129h-5.58m66.388-27.753c-17.174 0-31.166 13.323-31.166 29.72v8.77c0 15.744 11.72 26.728 28.518 26.728h31.245c4.24 0 8.542 2.537 8.542 7.4v8.088c0 4.554-4.46 7.372-8.542 7.372h-58.317v13.823c0 5.344 4.455 9.224 10.6 9.224h51.812c17.327 0 31.419-13.352 31.419-29.745v-11.765c0-15.976-10.302-25.126-28.27-25.126h-30.997c-5.389 0-9.005-2.768-9.005-6.934v-6.917c0-3.988 4.628-7.604 9.724-7.604h51.287v-13.84c0-5.421-4.24-9.194-10.335-9.194h-46.515m113.027 0c-17.17 0-31.18 13.323-31.18 29.72v51.66c0 16.393 14.01 29.745 31.18 29.745h43.589c6.14 0 10.583-3.876 10.583-9.224V423.7h-49.573c-5.298 0-9.025-3.508-9.025-8.554v-14.07h59.408c8.773 0 15.91-6.81 15.91-15.212v-20.522c0-16.397-13.98-29.72-31.167-29.72zm-4.426 31.336c0-4.595 3.963-8.306 8.79-8.306h30.98c4.848 0 8.79 3.71 8.79 8.306v13.153h-48.56v-13.153" fill="#333" fill-rule="evenodd"/><path d="M511.743 202.272c-10.224-.376-18.245-8.992-17.906-19.232.157-4.955 2.277-9.538 5.876-12.918 3.616-3.385 8.335-5.145 13.294-4.959 10.236.36 18.261 8.963 17.918 19.216-.153 4.942-2.244 9.52-5.855 12.918-3.633 3.372-8.356 5.132-13.327 4.975zm4.301-16.815c4.55 0 8.245-2.463 8.245-5.488 0-3.037-3.695-5.5-8.245-5.5-4.55 0-8.227 2.463-8.227 5.5 0 3.025 3.678 5.488 8.227 5.488" fill="#73ba25"/><path d="M297.98 311.265l.674-.062.107-.793c-.17-.624-.574-1.186-1.198-8.914-.53-6.843-1.604-25.604 7.839-34.91 3.661-3.629 9.252-6.856 13.666-7.902 18.096-4.41 41.58-1.355 61.635 21.836 10.348 11.98 15.427 17.451 17.968 19.898l.872.81 1.062.764c.826.467 34.469 15.96 34.469 15.96l.686-.174.018-.732c-.22-.247-21.32-27.505-17.58-49.96 2.959-17.89 17.204-16.282 36.886-14.039 6.439.732 13.761 1.575 21.332 1.744 21.146.124 43.932-3.756 57.974-9.897 9.083-3.971 14.88-6.591 18.513-9.893 1.306-1.078 1.996-2.851 2.694-4.723l.484-1.26c.59-1.513 1.45-4.753 1.822-6.513.174-.781.253-1.624-.297-2.042l-1.946.36c-6.154 3.694-21.568 10.74-35.998 11.017-17.873.372-53.903-17.98-57.66-19.93l-.36-.418c-.905-2.153-6.314-14.947-7.45-17.642 25.93 17.076 47.436 26.522 63.908 27.985 18.327 1.637 32.617-8.368 38.725-12.637 1.198-.814 2.107-1.467 2.48-1.607l.388-.637c-1.013-6.438-10.596-37.605-17.828-45.084-2.012-2.058-3.616-4.054-6.86-5.955-26.195-15.27-88.388-24.497-91.302-24.919l-.5.14-.186.439s-.235 12.901-.264 14.34c-6.356-2.12-52.532-17.035-95.823-18.546-36.7-1.291-86.835-3.04-157.677 40.5l-2.087 1.31c-33.32 20.791-56.317 46.408-68.35 76.207-3.77 9.364-8.852 30.514-3.831 50.412 2.182 8.715 6.22 17.438 11.674 25.261 12.294 17.67 32.944 29.406 55.18 31.386 31.382 2.806 55.168-11.298 63.627-37.696 5.81-18.22 0-44.944-22.286-58.577-18.125-11.112-37.634-8.575-48.932-1.108-9.814 6.513-15.38 16.613-15.27 27.725.216 19.678 17.188 30.154 29.374 30.166 3.554 0 7.108-.607 11.129-1.913 1.417-.438 2.773-.967 4.252-1.888l.455-.294.293-.173-.108.05c2.79-1.873 4.472-4.96 4.472-8.262 0-.905-.14-1.822-.389-2.744-1.434-4.97-6.355-7.992-11.467-7.058l-.686.14-.934.31-1.356.455c-2.806.703-4.925.748-5.363.765-1.43-.096-8.46-2.199-8.46-9.897v-.092c.018-2.822 1.153-4.802 1.777-5.876 2.166-3.43 8.15-6.794 16.237-6.079 10.6.901 18.236 6.344 23.298 16.596 4.707 9.538 3.476 21.257-3.165 29.861-6.591 8.521-18.323 12.137-33.94 10.439-15.74-1.728-29.047-10.786-36.497-24.886-7.294-13.777-7.7-30.121-1.046-42.684 15.943-30.076 46.035-29.766 62.536-26.91 24.435 4.219 46.614 23.778 56.478 49.787 1.575 4.145 2.38 7.435 3.083 10.426l1.062 4.505 27.596 13.48.372.252zm196.17-146.8c-5.206 4.83-8.181 11.422-8.43 18.53-.483 14.649 11.018 26.988 25.667 27.534 7.137.235 13.898-2.273 19.088-7.137 5.19-4.847 8.17-11.422 8.43-18.513.5-14.666-11.005-27.022-25.679-27.551-7.108-.232-13.889 2.273-19.075 7.137" fill="#73ba25" fill-rule="evenodd"/></svg>