<svg xmlns="http://www.w3.org/2000/svg" viewBox="0 0 48 48"><path d="M24.062 1L4 12.47v22.926L24.062 47l20.061-11.47v-23L24.062 1zm16.362 32.128l-16.362 9.457-16.363-9.352V14.737l16.363-9.456 16.362 9.486v18.361z" fill="#0078D1"/><path d="M31.965 24c-.328 0-.64.03-.94.09a14.859 14.859 0 00-9.65-5.609l16.542-9.56-3.848-2.208-15.125 8.74a4.73 4.73 0 00-7.517 3.818 4.73 4.73 0 004.728 4.73 4.745 4.745 0 003.729-1.82c3.147.178 6.07 1.7 8.01 4.131a4.672 4.672 0 00-.627 2.909l-16.974 9.814 3.833 2.208 15.05-8.711a4.73 4.73 0 007.517-3.818c0-2.596-2.117-4.714-4.727-4.714z" fill="#50E6FF"/></svg>