<svg xmlns="http://www.w3.org/2000/svg" viewBox="0 0 48 48"><path d="M12.6.05L0 0v12.674h5V5.089h7.6V.05zm35.05 12.524L47.7 0H35v4.99h7.6v7.584h5.05zM35 47.673h12.65V35h-5v7.584H35v5.09zM.05 35L0 47.574h12.7v-4.94H5.1V35H.05z" fill="#50E6FF"/><path d="M32.102 18.551c0-4.702-3.848-8.551-8.55-8.551-4.227 0-7.757 3.107-8.434 7.147h3.5a5.163 5.163 0 011.31-2.218 5.089 5.089 0 013.618-1.508 5.09 5.09 0 013.618 1.508 5.09 5.09 0 011.507 3.617c0 .275 0 1.046-.005 2.062H15v17.156h17.097V21.732c.005-1.551.005-2.808.005-3.18z" fill="#0078D4"/><path d="M24.209 31.418a2.209 2.209 0 100-4.418 2.209 2.209 0 000 4.418z" fill="#50E6FF"/></svg>