<svg xmlns="http://www.w3.org/2000/svg" viewBox="0 0 49 49"><path d="M2.798 5.53A2.514 2.514 0 01.28 3.014 2.514 2.514 0 012.798.494a2.509 2.509 0 012.518 2.519A2.52 2.52 0 012.798 5.53zm7.554 0a2.52 2.52 0 010-5.037 2.52 2.52 0 012.518 2.52 2.514 2.514 0 01-2.518 2.518zm7.57 0a2.52 2.52 0 010-5.037 2.52 2.52 0 010 5.038zm7.63 0a2.514 2.514 0 01-2.518-2.517c0-1.39 1.12-2.519 2.518-2.519a2.514 2.514 0 012.518 2.519 2.52 2.52 0 01-2.518 2.518zm7.528 0a2.52 2.52 0 010-5.037 2.52 2.52 0 010 5.037zm7.588 0a2.52 2.52 0 010-5.037 2.52 2.52 0 010 5.037zm-37.87 7.556a2.52 2.52 0 010-5.037 2.52 2.52 0 010 5.037zm37.87 0a2.52 2.52 0 010-5.037 2.52 2.52 0 010 5.037zM2.773 20.759a2.52 2.52 0 010-5.037 2.514 2.514 0 012.518 2.519 2.525 2.525 0 01-2.518 2.518z" fill="#50E6FF"/><path d="M17.914 20.759a2.52 2.52 0 010-5.037 2.52 2.52 0 010 5.037zm7.638 0a2.52 2.52 0 010-5.037 2.514 2.514 0 012.518 2.519 2.52 2.52 0 01-2.518 2.518z" fill="#0078D4"/><path d="M40.668 20.675a2.514 2.514 0 01-2.518-2.519 2.52 2.52 0 012.518-2.518 2.52 2.52 0 010 5.037zM2.857 28.314a2.52 2.52 0 010-5.037 2.514 2.514 0 012.518 2.519 2.525 2.525 0 01-2.518 2.518z" fill="#50E6FF"/><path d="M17.998 28.314a2.52 2.52 0 010-5.037 2.52 2.52 0 010 5.037z" fill="#0078D4"/><path d="M2.857 35.877A2.514 2.514 0 01.34 33.36a2.514 2.514 0 012.518-2.518 2.514 2.514 0 012.518 2.518 2.525 2.525 0 01-2.518 2.518zm0 7.555A2.514 2.514 0 01.34 40.914a2.514 2.514 0 012.518-2.518 2.514 2.514 0 012.518 2.518 2.525 2.525 0 01-2.518 2.518zm7.554 0a2.514 2.514 0 01-2.518-2.518 2.514 2.514 0 012.518-2.518 2.52 2.52 0 010 5.037zm7.587 0a2.514 2.514 0 01-2.518-2.518 2.514 2.514 0 012.518-2.518 2.52 2.52 0 010 5.037z" fill="#50E6FF"/><path d="M45.762 44.09l-7.292-7.22a8.506 8.506 0 001.751-5.188c0-4.725-3.84-8.566-8.564-8.566s-8.564 3.84-8.564 8.566c0 4.725 3.84 8.566 8.564 8.566 1.87 0 3.604-.598 5.002-1.61l7.326 7.253 1.777-1.803zm-14.105-6.368a6.053 6.053 0 01-6.046-6.048 6.053 6.053 0 016.046-6.047 6.053 6.053 0 016.046 6.047 6.053 6.053 0 01-6.046 6.048zM10.369 18.173H7.876V8.033h10.046v2.56H10.37v7.58zm7.604 15.203v2.493H7.826V25.82h2.56v7.555h7.587zm7.537-22.783V8.075h10.088v10.098h-2.56v-7.58H25.51z" fill="#0078D4"/></svg>