<svg xmlns="http://www.w3.org/2000/svg" viewBox="0 0 48 48"><path d="M35.728 47a6.59 6.59 0 100-13.18 6.59 6.59 0 000 13.18z" fill="#0078D7"/><path d="M39.051 1H7v4.779h32.051V1z" fill="#50E6FF"/><path d="M39.051 7.977H7v9.96h32.051v-9.96zm-3.339 24.191c1.188 0 2.32.25 3.34.712V20.016H7v24.669h21.702a8.196 8.196 0 01-1.213-4.294c0-4.536 3.687-8.223 8.223-8.223z" fill="#0078D7"/><path d="M36.302 36.219h-1.18v8.368h1.18V36.22z" fill="#50E6FF"/><path d="M39.892 39.871h-8.368v1.18H39.9v-1.18h-.009z" fill="#50E6FF"/></svg>