<svg xmlns="http://www.w3.org/2000/svg" viewBox="0 0 48 48"><path d="M45.388 27.936H48V15.398H0v12.546h27.787a12.52 12.52 0 018.797-3.59 12.57 12.57 0 018.804 3.582zm-19.631 2.587H0V43.07h25.605a12.51 12.51 0 01-1.6-6.142c0-2.334.64-4.525 1.752-6.404zM48 .172H0v12.545h48V.172z" fill="#0078D7"/><path d="M7.827 9.13a2.612 2.612 0 100-5.224 2.612 2.612 0 000 5.224zm0 30.348a2.612 2.612 0 100-5.224 2.612 2.612 0 000 5.224zm0-15.125a2.612 2.612 0 100-5.224 2.612 2.612 0 000 5.224z" fill="#50E6FF"/><path d="M29.784 39.276a7.036 7.036 0 01.177-5.451 7.09 7.09 0 013.977-3.733 6.902 6.902 0 013.218-.42l-.311 1.743 3.875-2.106-2.898-3.387-.337 1.904a8.98 8.98 0 00-9.234 5.232 8.931 8.931 0 00-.22 6.892 8.878 8.878 0 003.042 4.036l.337.253 1.112-1.517-.337-.253a7.113 7.113 0 01-2.4-3.193zm15.099-5.703a8.962 8.962 0 00-2.596-3.682l-1.221 1.415a7.137 7.137 0 01-2.098 12.116 6.97 6.97 0 01-1.955.43l.11-1.913-3.623 2.51 3.269 3.38.126-2.082a9.168 9.168 0 002.73-.564c4.651-1.753 7.01-6.96 5.258-11.61z" fill="#0078D7"/></svg>