<svg xmlns="http://www.w3.org/2000/svg" viewBox="0 0 48 48"><path d="M15.41 2.617H0V6.28h15.41V2.617z" fill="#50E6FF"/><path d="M15.41 6.392H0v3.73h15.41v-3.73zm30.03-1.264H27.79v2.51h17.65v-2.51zM25.263.067h-7.528v12.506h7.528V.067z" fill="#0078D4"/><path d="M47.966 6.373L44.438 9.9V2.836l3.528 3.537z" fill="#0078D4"/><path d="M15.41 20.421H0v3.613h15.41V20.42z" fill="#50E6FF"/><path d="M15.41 24.042H0v3.874h15.41v-3.874z" fill="#0078D4"/><path d="M45.44 22.922H27.79v2.51h17.65v-2.51zm-20.185-5.145h-7.529v12.505h7.529V17.777z" fill="#50E6FF"/><path d="M47.966 24.084l-3.528 3.529v-7.066l3.528 3.537zM15.41 37.996H0v3.865h15.41v-3.865z" fill="#50E6FF"/><path d="M15.41 41.809H0v3.688h15.41v-3.688zm30.03-1.305H27.79v2.51h17.65v-2.51z" fill="#0078D4"/><path d="M41.23 40.504h-9.028v2.51h9.028v-2.51z" fill="#50E6FF"/><path d="M25.255 35.445h-7.529v12.506h7.529V35.445z" fill="#0078D4"/><path d="M25.255 35.445h-3.84v12.506h3.84V35.445z" fill="#50E6FF"/><path d="M47.966 41.752l-3.528 3.528v-7.065l3.528 3.537z" fill="#0078D4"/></svg>