<svg xmlns="http://www.w3.org/2000/svg" viewBox="0 0 48 49"><path d="M35.004 39.511H11.458c-1.656 0-2.958-1.317-2.958-2.994V12.678c0-1.677 1.302-2.995 2.958-2.995h23.546c1.656 0 2.958 1.318 2.958 2.995v23.839c.118 1.677-1.302 2.994-2.958 2.994z" fill="#0078D7"/><path d="M32.755 35.317H13.824c-.71 0-1.183-.599-1.183-1.197V15.073c0-.72.591-1.198 1.183-1.198h18.813c.71 0 1.183.599 1.183 1.198V34.12c0 .718-.473 1.197-1.065 1.197z" fill="#50E6FF"/><path d="M31.454 1.777H15.007l-1.893 8.625h20.351l-2.011-8.625zM15.007 47.775h16.447l1.893-8.865H13.114l1.893 8.865zM39.5 17.468h-2.012v2.157H39.5v-2.157zm0 12.098h-2.012v2.156H39.5v-2.156z" fill="#0078D7"/></svg>