<svg xmlns="http://www.w3.org/2000/svg" viewBox="0 0 48 48"><path d="M47.986 0H0v47.961h47.986V0z" fill="#fff"/><path d="M40.051 23.877h-.098A9.184 9.184 0 0040.6 20.5c0-4.969-3.941-9-8.802-9a8.404 8.404 0 00-2.934.527C26.447 8.962 22.741 7 18.594 7 11.308 7 5.391 13.042 5.391 20.5c0 1.171.157 2.304.44 3.387C3.151 23.956 1 26.181 1 28.934 1 31.726 3.22 34 5.949 34H40.05c2.74 0 4.95-2.265 4.95-5.066 0-2.792-2.21-5.057-4.949-5.057z" fill="#50E6FF"/><path d="M12.158 35.819c-.01-.068-.03-.135-.04-.193A6.481 6.481 0 0112 34.381c0-3.647 3.025-6.609 6.761-6.609.524 0 1.028.058 1.512.174C21.825 25.563 24.533 24 27.628 24c4.804 0 8.698 3.801 8.698 8.5 0 .116 0 .232-.01.347a4.45 4.45 0 011.404-.222c2.362 0 4.28 1.872 4.28 4.178 0 2.17-1.7 3.946-3.855 4.158L18.771 41a6.829 6.829 0 01-5.92-3.386c-.03-.058-.07-.116-.1-.174a7.267 7.267 0 01-.593-1.621z" fill="#0078D4"/></svg>