<svg xmlns="http://www.w3.org/2000/svg" viewBox="0 0 48 49"><path d="M47.47 24.507H.522V48.05H47.47V24.507z" fill="#0078D4"/><path d="M31 28.414a7.955 7.955 0 00-7.956 7.955 7.955 7.955 0 007.955 7.955 7.955 7.955 0 007.955-7.955c-.008-4.394-3.56-7.955-7.955-7.955zm0 11.665a3.715 3.715 0 01-3.71-3.71A3.715 3.715 0 0131 32.66a3.715 3.715 0 013.709 3.71 3.715 3.715 0 01-3.71 3.71z" fill="#fff"/><path d="M30.99 32.66l-.016-4.246a7.959 7.959 0 00-6.669 3.652l3.487 2.44a3.683 3.683 0 013.199-1.846z" fill="#3BCAF4"/><path d="M27.29 36.37a3.7 3.7 0 01.494-1.855l-3.479-2.449-.016.025a7.948 7.948 0 00-.536 7.551l3.883-1.715a3.486 3.486 0 01-.346-1.558z" fill="#50E6FF"/><path fill-rule="evenodd" clip-rule="evenodd" d="M33.348 3.559h14.13v-2.44h-14.13v2.44zm0 4.905h14.13v-2.44h-14.13v2.44z" fill="#50E6FF"/><path fill-rule="evenodd" clip-rule="evenodd" d="M33.348 3.559h5.928v-2.44h-5.928v2.44zm0 4.905h9.365v-2.44h-9.365v2.44z" fill="#0078D4"/><path fill-rule="evenodd" clip-rule="evenodd" d="M33.348 13.444h14.13v-2.44h-14.13v2.44zm0 4.987h14.13v-2.44h-14.13v2.44z" fill="#50E6FF"/><path fill-rule="evenodd" clip-rule="evenodd" d="M33.348 13.444h5.928v-2.44h-5.928v2.44zm0 4.987h9.365v-2.44h-9.365v2.44z" fill="#0078D4"/><path d="M27.438.97H3.209A2.688 2.688 0 00.522 3.659v14.888a2.688 2.688 0 002.687 2.688h24.229a2.688 2.688 0 002.687-2.688V3.658A2.688 2.688 0 0027.438.971z" fill="#0078D4"/><path d="M15.427 12.1a1.27 1.27 0 10-.001-2.54 1.27 1.27 0 000 2.54z" fill="#50E6FF"/><path d="M15.427 4.879a5.95 5.95 0 00-5.952 5.952 5.95 5.95 0 005.952 5.951 5.95 5.95 0 005.952-5.951 5.95 5.95 0 00-5.952-5.952zm0 10.741a4.783 4.783 0 01-4.79-4.79 4.783 4.783 0 014.79-4.79c2.638 0 4.814 2.128 4.814 4.79a4.788 4.788 0 01-4.814 4.79zm-3.751 10.692a.44.44 0 00-.437-.437.44.44 0 00-.437.437v21.805h.874V26.312zm1.756 6.884a.44.44 0 00-.437-.437.44.44 0 00-.437.437v14.92h.874v-14.92zm1.615-.734a.44.44 0 00-.437-.438.44.44 0 00-.436.438v15.654h.873V32.462zm3.223 9.818a.44.44 0 00-.436-.437.44.44 0 00-.437.437v5.837h.874V42.28zM3.622 46.377a.44.44 0 00-.437-.437.44.44 0 00-.437.437v1.74h.874v-1.74zm-1.616.883a.44.44 0 00-.437-.438.44.44 0 00-.437.437v.866h.874v-.866zm17.905 0a.44.44 0 00-.437-.438.44.44 0 00-.437.437v.866h.874v-.866zm1.616.436a.44.44 0 00-.437-.437.44.44 0 00-.437.437v.42h.874v-.42zm-4.872-8.491a.44.44 0 00-.437-.437.44.44 0 00-.437.437v8.92h.874v-8.92zm-6.595 0a.44.44 0 00-.437-.437.44.44 0 00-.437.437v8.92h.874v-8.92zm-1.608-2.052a.44.44 0 00-.436-.437.44.44 0 00-.437.437v10.964h.873V37.153zm-1.607 4.979a.44.44 0 00-.437-.437.44.44 0 00-.437.437v5.985h.874v-5.985zM5.23 40.664a.44.44 0 00-.438-.437.44.44 0 00-.437.438v7.452h.874v-7.453z" fill="#50E6FF"/><path d="M44.84 26.955h-1.813v1.814h1.813v-1.814z" fill="#fff"/><path d="M44.84 29.56h-1.813v1.814h1.813V29.56z" fill="#50E6FF"/><path d="M44.84 32.173h-1.813v1.814h1.813v-1.814z" fill="#3BCAF4"/></svg>