<svg xmlns="http://www.w3.org/2000/svg" viewBox="0 0 48 49"><path d="M.446 13.238v17.609h17.609V13.238H.446z" fill="#0078D7"/><path d="M12.101 16.615c-.69 0-1.305.169-1.836.505l-.1.068v1.44l.37-.32c.454-.38.943-.564 1.499-.564.353 0 .75.1.808.858l-1.305.186c-1.533.21-1.861 1.137-1.861 1.87 0 .505.168.917.497 1.22.328.303.774.463 1.33.463.54 0 .985-.168 1.348-.505v.388h1.263V18.72c-.009-1.372-.7-2.105-2.013-2.105zm-.413 4.598c-.235 0-.42-.059-.547-.177a.538.538 0 01-.185-.43c0-.26.059-.429.185-.521.16-.11.413-.194.75-.236l.96-.135v.244c0 .37-.11.674-.329.91a1.094 1.094 0 01-.834.345zM8.37 19.832H7.1l-2.94 7.663h1.575l.707-1.979h2.569l.75 1.98h1.566L8.37 19.831zm.144 4.337H6.93l.783-2.156.8 2.156z" fill="#50E6FF"/><path d="M25.608 36.775a.298.298 0 01-.294-.295V7.605c0-.16.134-.295.294-.295.16 0 .295.135.295.295V36.48c0 .16-.126.295-.295.295zm1.188-2.855a.298.298 0 01-.295-.294v-21.39c0-.16.135-.295.295-.295.16 0 .294.135.294.295v21.381a.3.3 0 01-.294.303zm1.086.489a.298.298 0 01-.295-.295V11.748c0-.16.135-.295.295-.295.16 0 .295.135.295.295v22.366c0 .16-.135.295-.295.295zm2.164-8.177a.298.298 0 01-.294-.295V18.35c0-.16.134-.295.294-.295.16 0 .295.135.295.295v7.587c0 .16-.135.295-.295.295zm2.164.093a.298.298 0 01-.294-.295v-7.882c0-.16.135-.295.295-.295.16 0 .294.135.294.295v7.882a.288.288 0 01-.294.294zm1.087.69a.298.298 0 01-.295-.295v-9.162c0-.16.135-.294.295-.294.16 0 .294.134.294.294v9.162a.288.288 0 01-.294.295zm1.086-3.048a.298.298 0 01-.295-.295v-3.15c0-.16.135-.294.295-.294.16 0 .295.134.295.294v3.15c0 .16-.135.295-.295.295zm1.087.589a.298.298 0 01-.295-.294v-4.236c0-.16.135-.295.294-.295.16 0 .295.135.295.295v4.236c0 .16-.135.294-.295.294zm1.077.294a.298.298 0 01-.295-.294v-4.825c0-.16.135-.295.295-.295.16 0 .295.135.295.295v4.825c0 .16-.135.295-.295.295zm1.087-.883a.298.298 0 01-.295-.295v-3.057c0-.16.135-.295.295-.295.16 0 .294.135.294.295v3.057c0 .16-.134.295-.294.295zm1.086-.598a.298.298 0 01-.295-.295v-1.87c0-.16.135-.294.295-.294.16 0 .295.135.295.295v1.87a.293.293 0 01-.295.294zm1.078.303a.298.298 0 01-.295-.295v-2.56c0-.16.135-.294.295-.294.16 0 .295.134.295.294v2.56c0 .16-.126.295-.295.295zm1.086-.303a.298.298 0 01-.295-.295v-1.87c0-.16.135-.294.295-.294.16 0 .295.135.295.295v1.87a.288.288 0 01-.295.294zm1.179-.194a.298.298 0 01-.294-.295v-1.482c0-.16.134-.294.294-.294.16 0 .295.134.295.294v1.482c0 .16-.126.295-.295.295zm-21.869.295a.298.298 0 01-.295-.295v-2.072c0-.16.135-.294.295-.294.16 0 .294.134.294.294v2.072c0 .16-.134.295-.294.295zm-1.087-.69a.298.298 0 01-.294-.295v-.792c0-.16.134-.295.294-.295.16 0 .295.135.295.295v.792a.293.293 0 01-.295.294zm26.998.69a.298.298 0 01-.294-.295v-2.072c0-.16.134-.294.294-.294.16 0 .295.134.295.294v2.072c0 .16-.126.295-.295.295zm1.188 0a.298.298 0 01-.295-.295v-2.072c0-.16.135-.294.295-.294.16 0 .294.134.294.294v2.072c0 .16-.134.295-.294.295zm-2.266-.69a.298.298 0 01-.295-.295v-.792c0-.16.135-.295.295-.295.16 0 .295.135.295.295v.792a.293.293 0 01-.295.294zm-1.086.294a.298.298 0 01-.294-.295V21.4c0-.16.134-.295.294-.295.16 0 .295.134.295.294v1.381a.293.293 0 01-.295.295zm-1.086-.294a.298.298 0 01-.295-.295v-.792c0-.16.135-.295.295-.295.16 0 .295.135.295.295v.792a.288.288 0 01-.295.294zm-25.912 0a.298.298 0 01-.295-.295v-.792c0-.16.135-.295.295-.295.16 0 .295.135.295.295v.792a.293.293 0 01-.295.294zm1.087-.194a.298.298 0 01-.295-.295v-.295c0-.16.135-.295.295-.295.16 0 .294.135.294.295v.295c0 .16-.134.295-.294.295zm13.094 1.97a.298.298 0 01-.294-.294v-4.337c0-.16.134-.295.294-.295.16 0 .295.135.295.295v4.337c0 .16-.126.294-.295.294zm-2.164 3.647a.298.298 0 01-.294-.295v-11.63c0-.16.134-.294.294-.294.16 0 .295.134.295.294v11.63c0 .16-.135.294-.295.294zm-4.43 0a.298.298 0 01-.294-.295v-11.63c0-.16.135-.294.295-.294.16 0 .294.134.294.294v11.63c0 .16-.134.294-.294.294zm-1.086 1.473a.298.298 0 01-.295-.295V14.897c0-.16.135-.295.295-.295.16 0 .295.135.295.295v14.484a.293.293 0 01-.295.295zm-1.086-3.351a.298.298 0 01-.295-.295v-7.781c0-.16.135-.295.295-.295.16 0 .294.135.294.295v7.78a.288.288 0 01-.294.296zm-1.086.985a.298.298 0 01-.295-.295v-9.752c0-.16.135-.294.295-.294.16 0 .295.134.295.294v9.752a.288.288 0 01-.295.295z" fill="#0078D7"/></svg>