<svg xmlns="http://www.w3.org/2000/svg" viewBox="0 0 48 49"><path d="M30.728 47.55a6.59 6.59 0 100-13.18 6.59 6.59 0 000 13.18z" fill="#0078D7"/><path d="M34.051 1.548H2v4.778h32.051V1.548z" fill="#50E6FF"/><path d="M34.051 8.526H2v9.96h32.051v-9.96z" fill="#3BCAF4"/><path d="M30.712 32.717c1.188 0 2.32.25 3.34.711V20.564H2v24.67h21.702a8.196 8.196 0 01-1.213-4.294c0-4.536 3.687-8.223 8.223-8.223z" fill="#0078D7"/><path d="M31.302 36.766h-1.18v8.368h1.18v-8.368z" fill="#50E6FF"/><path d="M34.892 40.42h-8.368v1.18H34.9v-1.18h-.009z" fill="#50E6FF"/></svg>