<svg xmlns="http://www.w3.org/2000/svg" viewBox="0 0 48 49"><path d="M47.874 10.65H.042v12.568h47.832V10.65z" fill="#50E6FF"/><path d="M43.184 17.781a3.28 3.28 0 00.671-1.988 3.254 3.254 0 00-3.264-3.256 3.262 3.262 0 00-3.263 3.264 3.262 3.262 0 005.151 2.66.182.182 0 00.042-.034l2.92 2.92.654-.646-2.911-2.92zm-.705-.62a2.324 2.324 0 11-1.888-3.683 2.304 2.304 0 011.88.964c.277.386.445.856.445 1.367.008.496-.152.965-.437 1.351z" fill="#0078D7"/><path d="M27.42 30.828h-5.127v7.459h5.126v-7.46z" fill="#0078D4"/><path d="M26.488 31.76h-3.264v1.4h3.264v-1.4zm-2.794 2.323h-.47v.47h.47v-.47zm0 1.401h-.47v.47h.47v-.47zm0 1.402h-.47v.47h.47v-.47zm1.401-2.803h-.47v.47h.47v-.47zm0 1.401h-.47v.47h.47v-.47zm0 1.402h-.47v.47h.47v-.47zm1.393-2.803h-.47v.47h.47v-.47zm0 1.401h-.47v.47h.47v-.47zm0 1.402h-.47v.47h.47v-.47z" fill="#50E6FF"/><path d="M7.97 30.828H.848a.779.779 0 00-.78.78v5.94c0 .437.353.78.78.78h7.124c.436 0 .78-.352.78-.78v-5.94a.768.768 0 00-.78-.78z" fill="#0078D4"/><path d="M4.413 34.947c.201 0 .37-.167.37-.369a.372.372 0 00-.37-.369.372.372 0 00-.37.37c0 .2.169.368.37.368z" fill="#50E6FF"/><path d="M4.413 32.842a1.74 1.74 0 00-1.736 1.736c0 .957.78 1.737 1.736 1.737a1.74 1.74 0 001.737-1.737 1.73 1.73 0 00-1.737-1.736zm0 3.13c-.772 0-1.4-.622-1.4-1.402a1.405 1.405 0 012.81 0 1.4 1.4 0 01-1.41 1.401zm14.725-5.144h-7.4v7.392h7.4v-7.392z" fill="#50E6FF"/><path d="M11.73 35.778v2.55h7.408v-1.56.017l-1.175-1.183-1.174 1.183-3.096-3.02-1.972 1.971.008.042zm6.426-3.104a.965.965 0 01-1.93 0 .965.965 0 111.93 0zm17.922 5.63h-5.504v-7.476h3.8l.344 1.107 1.36.596v5.773z" fill="#0078D4"/><path d="M36.07 32.523h-1.704v-1.704l1.703 1.704z" fill="#50E6FF"/><path d="M34.685 33.353H31.95v.453h2.735v-.453zm0 1.393H31.95v.453h2.735v-.453zm0 1.368H31.95v.453h2.735v-.453z" fill="#fff"/><path d="M45.097 32.22l-.587 6.117h2.576c.369 0 .67-.302.67-.671v-4.774a.673.673 0 00-.67-.671h-1.989z" fill="#50E6FF"/><path d="M39.476 38.346h5.285a.646.646 0 00.646-.646v-6.226a.646.646 0 00-.646-.646h-5.285a.646.646 0 00-.646.646V37.7c0 .352.285.645.646.645z" fill="#0078D4"/><path d="M41.573 31.75H39.77v1.805h1.804V31.75zm2.895 0h-2.35v.26h2.35v-.26zm.016 1.545h-2.349v.26h2.35v-.26zm-.016-.772h-2.35v.26h2.35v-.26zM42.68 37.33h1.804v-1.804h-1.803v1.804zm-2.91-.025h2.348v-.26H39.77v.26zm0-1.535h2.348v-.26H39.77v.26zm0 .771h2.348v-.26H39.77v.26zm4.69-2.433h-4.69v.79h4.69v-.79z" fill="#50E6FF"/></svg>