<svg xmlns="http://www.w3.org/2000/svg" viewBox="0 0 48 49"><path d="M45.54 1.548H33.745c-.722 0-1.308.586-1.308 1.308v7.221c0 .722.586 1.308 1.308 1.308h11.803c.722 0 1.308-.586 1.308-1.308V2.856a1.32 1.32 0 00-1.316-1.308z" fill="#0078D4"/><path d="M45.54 25.587H33.745c-.722 0-1.308.586-1.308 1.308v7.221c0 .722.586 1.308 1.308 1.308h11.803c.722 0 1.308-.586 1.308-1.308v-7.221a1.32 1.32 0 00-1.316-1.308z" fill="#50E6FF"/><path d="M45.54 13.543H33.745c-.722 0-1.308.586-1.308 1.308v7.222c0 .722.586 1.307 1.308 1.307h11.803c.722 0 1.308-.585 1.308-1.307V14.85a1.32 1.32 0 00-1.316-1.308z" fill="#3BCAF4"/><path d="M45.54 37.582H33.745c-.722 0-1.308.586-1.308 1.308v7.222c0 .722.586 1.307 1.308 1.307h11.803c.722 0 1.308-.585 1.308-1.307V38.89a1.32 1.32 0 00-1.316-1.308z" fill="#50E6FF"/><path d="M27.446 1.556H3.768A2.63 2.63 0 001.145 4.18v14.017a2.63 2.63 0 002.623 2.624h23.678a2.63 2.63 0 002.624-2.624V4.18a2.625 2.625 0 00-2.624-2.624z" fill="#0078D4"/><path d="M15.707 12.428a1.24 1.24 0 001.244-1.244 1.24 1.24 0 00-1.244-1.243 1.245 1.245 0 000 2.487z" fill="#50E6FF"/><path d="M15.708 5.375c-3.21 0-5.81 2.6-5.81 5.81 0 3.209 2.6 5.809 5.81 5.809 3.21 0 5.809-2.6 5.809-5.81a5.797 5.797 0 00-5.81-5.809zm0 10.495a4.681 4.681 0 01-4.686-4.686A4.676 4.676 0 0115.708 6.5c2.575 0 4.702 2.078 4.702 4.685a4.674 4.674 0 01-4.702 4.686zm14.226 11.282c0-.907-.739-1.645-1.645-1.645H2.797c-.906 0-1.644.738-1.644 1.645 0 .906.738 1.644 1.644 1.644h25.5a1.645 1.645 0 001.637-1.644z" fill="#50E6FF"/><path d="M7.29 27.144a3.277 3.277 0 003.274 3.273 3.277 3.277 0 003.274-3.273 3.277 3.277 0 00-3.274-3.274 3.272 3.272 0 00-3.273 3.274z" fill="#0078D4"/><path d="M29.934 35.472c0-.907-.739-1.645-1.645-1.645H2.797c-.906 0-1.644.739-1.644 1.645 0 .907.738 1.645 1.644 1.645h25.5a1.645 1.645 0 001.637-1.645z" fill="#50E6FF"/><path d="M17.152 35.464a3.277 3.277 0 003.273 3.274 3.277 3.277 0 003.274-3.274 3.277 3.277 0 00-3.274-3.274 3.277 3.277 0 00-3.273 3.274z" fill="#0078D4"/><path d="M29.934 44.274c0-.907-.739-1.645-1.645-1.645H2.797c-.906 0-1.644.739-1.644 1.645 0 .907.738 1.645 1.644 1.645h25.5c.906 0 1.637-.73 1.637-1.645z" fill="#50E6FF"/><path d="M7.403 44.274a3.277 3.277 0 003.274 3.274 3.277 3.277 0 003.273-3.274 3.277 3.277 0 00-3.273-3.273 3.267 3.267 0 00-3.274 3.273z" fill="#0078D4"/></svg>