<svg xmlns="http://www.w3.org/2000/svg" viewBox="0 0 48 49"><path d="M44.072 15.172H20.273v23.772h23.8V15.172z" fill="#50E6FF"/><path d="M20.246 31.106v8.186h23.817v-5.008.053l-3.776-3.793-3.767 3.793-9.953-9.712-6.338 6.347.017.134zm20.666-9.999a3.094 3.094 0 01-3.098 3.097 3.1 3.1 0 01-3.097-3.097c0-1.714 1.365-3.125 3.07-3.125a3.128 3.128 0 013.125 3.125zM17.318 1.772H3.928v9.293H5.99v2.044l2.062-2.044h9.266V1.772z" fill="#0078D4"/><path d="M17.291 31.303H3.91V47.31h13.38V31.303z" fill="#50E6FF"/><path d="M44.09 41.968H20.237v5.356H44.09v-5.356zm-.009-40.153H20.273v3.928h23.808V1.815zM17.31 15.187H3.971v3.277H17.31v-3.277z" fill="#0078D4"/><path d="M17.31 19.57H3.971v3.276H17.31V19.57z" fill="#3BCAF4"/><path d="M17.31 23.957H3.971v3.276H17.31v-3.276z" fill="#50E6FF"/><path d="M44.081 7.13H20.273v3.927h23.808V7.13z" fill="#3BCAF4"/></svg>