<svg xmlns="http://www.w3.org/2000/svg" viewBox="0 0 48 49"><path d="M43.647 43.673H4.244V4.27h39.403v39.403zM5.518 42.407H42.39V5.537H5.52v36.87z" fill="#50E6FF"/><path d="M35.47 12.622H12.497V35.42H35.47V12.622z" fill="#50E6FF"/><path d="M18.275 30.418a5.733 5.733 0 015.738-5.737 5.733 5.733 0 015.737 5.737H18.275zm9.011-9.906a3.259 3.259 0 01-3.257 3.256 3.259 3.259 0 01-3.256-3.256 3.259 3.259 0 013.256-3.257 3.259 3.259 0 013.257 3.257zM39.178 8.895h7.594V1.302h-7.594v7.593zm-12.646 0h7.594V1.302h-7.594v7.593zm-12.656 0h7.594V1.302h-7.594v7.593zm-12.656 0h7.593V1.302H1.219v7.593zM39.263 46.95h7.593v-7.593h-7.593v7.593zm-12.647 0h7.594v-7.593h-7.594v7.593zm-12.656 0h7.594v-7.593H13.96v7.593zm-12.656 0h7.593v-7.593H1.304v7.593zm37.959-12.57h7.593v-7.594h-7.593v7.594zm-37.959 0h7.593v-7.594H1.304v7.594zm37.959-12.828h7.593v-7.594h-7.593v7.594zm-37.959 0h7.593v-7.594H1.304v7.594z" fill="#0078D4"/></svg>