<svg xmlns="http://www.w3.org/2000/svg" viewBox="0 0 40 49"><path d="M.766.32v48H39.95v-48H.766z" fill="#1EACE9"/><path d="M28.339 27.466c-1.049-.621-2.37-.738-3.495-.272-1.36.583-3.03.893-4.311.893-1.126 0-2.447-.233-3.69-.699-1.126-.466-2.407-.466-3.456.078-3.883 2.214-8.582 5.515-8.582 6.68 0 1.475-.194 6.563-.272 8.815a1.02 1.02 0 001.087 1.087l30.175-.077c.582 0 1.087-.466 1.048-1.087-.038-2.447-.116-8.233-.116-8.777-.078-1.282-4.66-4.466-8.388-6.641zm-7.767-2.33a8.503 8.503 0 008.505-8.505 8.502 8.502 0 00-8.505-8.505 8.502 8.502 0 00-8.505 8.505c0 4.7 3.806 8.505 8.505 8.505z" fill="#fff"/></svg>