<svg xmlns="http://www.w3.org/2000/svg" viewBox="0 0 49 49"><path d="M36.71.99h12.21v12.196h-5.052v-7.15h-7.156V.99zM5.97 13.185H.918V.99h12.208v5.046H5.97v7.15zm37.897 23.609h5.051V48.99H36.71v-5.047h7.157v-7.149zM.919 48.99V36.794H5.97v7.15h7.157v5.046H.919z" fill="#0078D4"/><path d="M10.606 41.78c0-8.002 6.476-14.472 14.485-14.472s14.485 6.47 14.485 14.471h-28.97zm22.578-26.483c0 4.467-3.632 8.095-8.104 8.095-4.471 0-8.103-3.628-8.103-8.095 0-4.467 3.632-8.095 8.103-8.095 4.472 0 8.104 3.628 8.104 8.095z" fill="#50E6FF"/></svg>