<svg xmlns="http://www.w3.org/2000/svg" viewBox="0 0 48 49"><path d="M43.647 43.719H4.244V4.316h39.403V43.72zM5.518 42.453H42.39V5.582H5.52v36.871z" fill="#50E6FF"/><path d="M35.47 12.668H12.497v22.798H35.47V12.668z" fill="#50E6FF"/><path d="M18.275 30.462a5.733 5.733 0 015.738-5.737 5.733 5.733 0 015.737 5.737H18.275zm9.012-9.904a3.259 3.259 0 01-3.257 3.257 3.259 3.259 0 01-3.257-3.257A3.259 3.259 0 0124.03 17.3a3.259 3.259 0 013.257 3.257zM39.178 8.943h7.594V1.35h-7.594v7.593zm-12.646 0h7.594V1.35h-7.594v7.593zm-12.656 0h7.593V1.35h-7.593v7.593zm-12.656 0h7.593V1.35H1.22v7.593zm38.043 38.053h7.593v-7.593h-7.593v7.593zm-12.647 0h7.594v-7.593h-7.594v7.593zm-12.656 0h7.594v-7.593H13.96v7.593zm-12.656 0h7.594v-7.593H1.304v7.593zm37.958-12.572h7.594V26.83h-7.594v7.594zm-37.958 0h7.594V26.83H1.304v7.594zM39.262 21.6h7.594v-7.594h-7.594V21.6zm-37.958 0h7.594v-7.594H1.304V21.6z" fill="#0078D4"/></svg>