<svg xmlns="http://www.w3.org/2000/svg" viewBox="0 0 48 49"><path d="M42.387 6.901c0 3.25-2.648 6.018-6.018 6.018-3.25 0-6.017-2.648-6.017-6.018 0-3.25 2.647-6.017 6.017-6.017 3.37 0 6.018 2.648 6.018 6.017zm-6.018 8.184c6.017 0 10.952 4.935 10.952 10.952v1.444H25.417v-1.444c0-6.017 4.934-10.952 10.952-10.952z" fill="#50E6FF"/><path d="M18.317 26.278c0 3.25-2.648 6.017-6.018 6.017-3.25 0-6.017-2.648-6.017-6.017 0-3.37 2.647-6.018 6.017-6.018 3.37 0 6.018 2.768 6.018 6.018zm-6.018 8.184c6.018 0 10.952 4.934 10.952 10.951v1.324H1.347v-1.324c0-6.017 4.935-10.951 10.952-10.951z" fill="#0078D4"/></svg>