<svg xmlns="http://www.w3.org/2000/svg" viewBox="0 0 60 61"><path d="M4.04 47.116a8.25 8.25 0 018.256-8.255 8.25 8.25 0 018.255 8.255H4.04zm12.958-14.234a4.683 4.683 0 01-4.678 4.677 4.683 4.683 0 01-4.677-4.677 4.683 4.683 0 014.677-4.678 4.683 4.683 0 014.678 4.678zm36.661 16.446H4.002v1.998H53.66v-1.998z" fill="#0078D7"/><path d="M50.068 11.252l-12.136 17.66L25.126 15.79l-9.33 11.327c.494.303.936.657 1.328 1.075l8.116-9.836 12.933 13.236 13.311-19.367-1.416-.973z" fill="#0078D4"/><path d="M50.89 17.029a5.107 5.107 0 100-10.214 5.107 5.107 0 000 10.214z" fill="#50E6FF"/><path d="M50.89 16.207a4.285 4.285 0 100-8.57 4.285 4.285 0 000 8.57z" fill="#fff"/><path d="M50.89 14.842a2.92 2.92 0 100-5.84 2.92 2.92 0 000 5.84z" fill="#0078D4"/><path d="M25.367 22.225a5.107 5.107 0 100-10.215 5.107 5.107 0 000 10.215z" fill="#50E6FF"/><path d="M25.367 21.403a4.286 4.286 0 100-8.571 4.286 4.286 0 000 8.571z" fill="#fff"/><path d="M25.367 20.063a2.946 2.946 0 100-5.891 2.946 2.946 0 000 5.891z" fill="#0078D4"/><path d="M38.021 35.018a5.107 5.107 0 100-10.214 5.107 5.107 0 000 10.214z" fill="#50E6FF"/><path d="M38.02 34.196a4.286 4.286 0 100-8.57 4.286 4.286 0 000 8.57z" fill="#fff"/><path d="M38.021 32.856a2.946 2.946 0 100-5.89 2.946 2.946 0 000 5.89zm12.718 14.487l5.196 2.959-5.196 3.008v-5.967z" fill="#0078D4"/></svg>