<svg xmlns="http://www.w3.org/2000/svg" viewBox="0 0 49 49"><path d="M25.946.44c-9.17-.564-17.07 6.417-17.634 15.588-.564 9.17 16.54 31.856 16.54 31.856s16.109-20.64 16.673-29.819C42.098 8.903 35.117 1.005 25.946.44z" fill="#50E6FF"/><path d="M24.928 30.283c7.553 0 13.675-6.123 13.675-13.676 0-7.552-6.122-13.675-13.675-13.675-7.553 0-13.676 6.123-13.676 13.675 0 7.553 6.123 13.676 13.676 13.676z" fill="#0078D4"/><path d="M25.03 6.502a3.43 3.43 0 012.433 1.01l.808-.808a4.578 4.578 0 00-3.242-1.339c-1.17 0-2.35.447-3.242 1.34l.809.808a3.428 3.428 0 012.433-1.01zm-.001 2.341c.295 0 .573.117.783.32l.808-.809a2.232 2.232 0 00-1.583-.657c-.572 0-1.145.22-1.583.657l.808.809a1.06 1.06 0 01.767-.32zm7.882 12.178c-.632 0-1.162.514-1.162 1.163a1.15 1.15 0 001.162 1.162c.657 0 1.162-.514 1.162-1.162a1.154 1.154 0 00-1.162-1.163zm-15.655 0c-.632 0-1.162.514-1.162 1.163 0 .656.513 1.162 1.162 1.162.657 0 1.162-.514 1.162-1.162a1.154 1.154 0 00-1.162-1.163z" fill="#50E6FF"/><path d="M31.681 12.709H30.36v6.973H13.972v2.391h1.457c.059-.96.85-1.71 1.844-1.71.993 0 1.785.75 1.844 1.719l11.958.017a1.832 1.832 0 011.844-1.786c1.01 0 1.81.783 1.844 1.786h1.348v-4.186l.025-1.086c0-2.198-2.392-4.118-4.455-4.118zm-.379 4.446v-3.402c2.148 0 3.865 1.516 3.865 3.402h-3.865z" fill="#50E6FF"/><path d="M29.66 11.006H13.972v7.924H29.66v-7.924z" fill="#50E6FF"/></svg>