<svg xmlns="http://www.w3.org/2000/svg" viewBox="0 0 49 49"><path d="M47.705 25c0-4.846-4.002-8.803-8.85-8.803h-2.708v17.728h1.61a3.63 3.63 0 013.656-3.53 3.626 3.626 0 013.657 3.53h2.635V25z" fill="#50E6FF"/><path d="M36.89 11.775H14.046l-7.353 22.11 2.044.003a3.629 3.629 0 013.651-3.42 3.63 3.63 0 013.652 3.43l20.85.025V11.775z" fill="#0078D4"/><path d="M39.754 23.51h4.975c0-2.428-2.214-4.383-4.975-4.383v4.383z" fill="#fff"/><path d="M13.012 11.775l-7.353 22.11-3.954-6.663 8.738-15.447h2.569z" fill="#50E6FF"/><path d="M44.215 33.928a2.785 2.785 0 00-.466-1.378c-.021-.033-.045-.065-.068-.097l-.008-.011a2.156 2.156 0 00-.067-.086l-.014-.019-.066-.077-.02-.024a1.854 1.854 0 00-.066-.07l-.026-.026a1.6 1.6 0 00-.095-.092 2.346 2.346 0 00-.065-.057l-.034-.03a2.35 2.35 0 00-.212-.16 1.685 1.685 0 00-.064-.043l-.047-.03c-.021-.013-.043-.027-.065-.039l-.05-.029-.065-.035-.054-.027c-.021-.01-.042-.021-.064-.03l-.057-.027-.064-.027a1.893 1.893 0 00-.125-.047 1.984 1.984 0 00-.127-.041 1.5 1.5 0 00-.067-.019l-.062-.017a1.934 1.934 0 00-.132-.03 2.467 2.467 0 00-.076-.013l-.059-.01-.08-.01a1.197 1.197 0 00-.056-.007l-.092-.007-.047-.003a2.594 2.594 0 00-.14-.003 3.27 3.27 0 00-.14.003l-.047.003-.09.007-.057.007-.08.01-.06.01a2.515 2.515 0 00-.136.027l-.07.016-.063.017-.067.019-.063.02-.064.02-.064.024-.06.024a1.48 1.48 0 00-.122.053l-.064.03-.054.028-.064.035c-.017.01-.034.019-.05.03l-.065.038-.047.03-.065.043-.043.03a1.93 1.93 0 00-.064.048l-.04.03a2.21 2.21 0 00-.064.052l-.035.03a2.208 2.208 0 00-.064.057l-.03.029-.066.064-.026.026-.065.07a2.114 2.114 0 00-.087.101l-.014.02a3.563 3.563 0 00-.068.086l-.008.011a2.79 2.79 0 00-.54 1.658 2.776 2.776 0 002.807 2.807 2.776 2.776 0 002.799-2.992z" fill="#0078D4"/><path d="M26.467 18.807h-6.665v8.54h6.665v-8.54zm-.215-1.298h-1.877v-.42a.387.387 0 00-.387-.388h-1.706a.387.387 0 00-.388.388v.42h-1.876a.456.456 0 00-.456.456v.362h7.148v-.362a.459.459 0 00-.458-.456zm-4.023-.333a.16.16 0 01.159-.159h1.493a.16.16 0 01.159.16v.332h-1.81v-.333z" fill="#50E6FF"/><path d="M24.875 26.287a.259.259 0 00.259-.26V20.37a.259.259 0 10-.518 0v5.658a.26.26 0 00.259.259zm-3.481 0a.259.259 0 00.26-.26V20.37a.259.259 0 10-.518 0v5.658c0 .143.115.259.258.259zm1.741 0a.259.259 0 00.258-.26V20.37a.259.259 0 10-.517 0v5.658c0 .143.115.259.259.259zm-7.943 7.749a3.655 3.655 0 00-.01-.135v-.003a2.035 2.035 0 00-.012-.103l-.004-.034-.017-.093a1.707 1.707 0 00-.037-.175c-.007-.027-.014-.054-.023-.082l-.013-.047a2.3 2.3 0 00-.026-.08l-.016-.047a1.267 1.267 0 00-.03-.077l-.018-.047c-.01-.026-.021-.05-.032-.075l-.021-.047a3.164 3.164 0 00-.035-.072l-.024-.046a1.926 1.926 0 00-.039-.07l-.025-.045-.04-.067-.03-.044c-.014-.021-.027-.043-.043-.065l-.03-.042a25.21 25.21 0 01-.08-.104l-.048-.061-.033-.037c-.018-.02-.035-.042-.054-.062l-.027-.028a2.94 2.94 0 00-.153-.15l-.001-.002-.056-.048-.043-.037-.054-.043-.05-.038-.054-.039-.052-.037a1.202 1.202 0 00-.055-.036l-.056-.035-.056-.034c-.02-.01-.039-.022-.058-.033a1.264 1.264 0 00-.057-.03l-.06-.03a1.266 1.266 0 00-.058-.028 4.152 4.152 0 01-.12-.053l-.066-.025a1.704 1.704 0 00-.126-.044l-.06-.019a1.13 1.13 0 00-.069-.02l-.059-.014a24.959 24.959 0 00-.073-.017l-.058-.014-.076-.013-.058-.01-.08-.01a1.112 1.112 0 00-.055-.007l-.09-.006-.046-.004a2.557 2.557 0 00-.139-.003l-.138.003-.045.004a1.749 1.749 0 00-.146.013l-.08.01-.058.01a2.47 2.47 0 00-.076.014l-.059.013a1.56 1.56 0 00-.131.032l-.07.02-.058.018c-.023.007-.046.014-.07.023l-.056.02a1.495 1.495 0 00-.067.026c-.018.009-.038.016-.056.024-.022.01-.043.018-.065.029l-.056.026-.063.032c-.018.01-.037.018-.054.028-.02.011-.042.022-.062.035l-.052.03-.06.038-.051.034c-.02.012-.04.027-.059.04a1.624 1.624 0 00-.048.036l-.058.044-.045.036-.06.05-.04.035a3.04 3.04 0 00-.092.087l-.043.044a1.326 1.326 0 00-.048.05l-.043.048-.043.05-.042.051a2.17 2.17 0 00-.04.05l-.04.055-.037.05a1.429 1.429 0 00-.072.11l-.036.06-.031.054a.608.608 0 00-.033.062l-.029.055-.03.063c-.01.018-.017.037-.026.056l-.029.066a2.26 2.26 0 00-.048.125l-.02.058-.022.069-.017.059-.02.07-.013.06a2.036 2.036 0 00-.027.133.926.926 0 00-.013.076l-.007.056c-.004.028-.008.054-.01.082v.006a3.65 3.65 0 00-.015.279 2.776 2.776 0 002.808 2.807 2.776 2.776 0 002.807-2.807 1.36 1.36 0 000-.14z" fill="#0078D4"/></svg>