<svg xmlns="http://www.w3.org/2000/svg" width="50" height="50">
    <path fill="#804998" d="M46.979 2H2.718C1.214 2 .001 3.345.001 4.847v31.329c0 1.493 1.213 2.823 2.717 2.823h44.261c1.501 0 3.021-1.33 3.021-2.823V4.847C50 3.341 48.48 2 46.979 2"/>
    <path opacity=".2" fill="#FFF" d="M47.01 2.003l-.031-.002H2.717C1.213 2.001 0 3.345 0 4.848v31.328C0 37.67 1.213 39 2.717 39H3.77L47.01 2.003z"/>
    <path fill="#804998" d="M45.999 6v29h-42V6z"/>
    <path opacity=".4" fill="#FFF" d="M45.999 6v29h-42V6z"/>
    <path opacity=".2" fill="#804998" d="M35.433 30.997l-19.61-1.579a.902.902 0 01-.824-.894V13.473c0-.464.362-.856.825-.894L35.44 11c.564 0 .962.401.962.894v18.21a.893.893 0 01-.894.896l-.075-.003z"/>
    <path opacity=".8" fill="#FFF" d="M25.7 12.683v7.616h9.805v-8.405zm-9.805.79v6.826H24.3v-7.503zM25.7 29.314v-7.615h9.805v8.404zm-9.805-.79v-6.825H24.3v7.502z"/>
    <path fill="#804998" d="M38 48H12a4 4 0 014-4h18a4 4 0 014 4z"/>
    <path fill="#68217A" d="M21 39h8v5h-8z"/>
    <path fill="#B8D432" d="M25.517 4.095a.71.71 0 11-1.42 0 .71.71 0 011.42 0"/>
</svg>
