<svg xmlns="http://www.w3.org/2000/svg" viewBox="0 0 20 20.088"><path d="M6.611 2.5H7.5v15h-.889l-3.75-3.75H0v-7.5h2.861zM6.25 4.639L3.389 7.5H1.25v5h2.139l2.861 2.861zm4.785 1.826a5 5 0 010 7.07l-.879-.879a3.7 3.7 0 00.811-1.216 3.8 3.8 0 000-2.881 3.7 3.7 0 00-.811-1.216zm2.656-2.656a8.546 8.546 0 011.089 1.333 9 9 0 01.8 1.509 8.9 8.9 0 01.5 1.641 8.655 8.655 0 010 3.423 8.9 8.9 0 01-1.3 3.145 8.546 8.546 0 01-1.089 1.333L12.8 15.3a7.5 7.5 0 000-10.6zm2.646-2.646a12.285 12.285 0 011.558 1.9 12.8 12.8 0 011.148 2.157 12.35 12.35 0 01.708 2.334 12.626 12.626 0 010 4.893 12.35 12.35 0 01-.708 2.334 12.8 12.8 0 01-1.143 2.153 12.285 12.285 0 01-1.558 1.9l-.879-.879a11.02 11.02 0 001.4-1.714A11.377 11.377 0 0018.53 12.2a11.145 11.145 0 000-4.4 11.377 11.377 0 00-1.67-4.043 11.02 11.02 0 00-1.4-1.714z" fill="#525252"/></svg>