<svg xmlns="http://www.w3.org/2000/svg" viewBox="0 0 48 48"><path d="M47.739 20.368c.025-.11.042-.21.067-.32.127-.656.194-1.338.194-2.037 0-5.98-4.852-10.813-10.816-10.813-.834 0-1.651.093-2.418.278A13.916 13.916 0 0022.998 1C15.305 1 9.08 7.24 9.08 14.912c0 .193 0 .378.008.564a6.972 6.972 0 00-2.232-.37A6.851 6.851 0 000 21.96a6.842 6.842 0 006.175 6.813l31.009.059a10.816 10.816 0 009.611-5.845c.278-.572.691-1.465.944-2.619z" fill="#0078D4"/><path d="M16 46.086l13.84-17.25h-9.067L16 46.086z" fill="#fff"/><path d="M15.5 33.836h6l11.898-17h-12.75l-5.148 17z" fill="#fff"/><g fill="#50E6FF"><path d="M16 46.086l13.84-17.25h-9.067L16 46.086z"/><path d="M15.5 33.836h6l11.898-17h-12.75l-5.148 17z"/></g></svg>