<svg version="1.1" id="b70acf0a-34b4-4bdf-9024-7496043ff915" xmlns="http://www.w3.org/2000/svg" x="0" y="0" viewBox="0 0 18 18" xml:space="preserve"><style>.st2{enable-background:new;opacity:.55;fill:#f2f2f2}</style><radialGradient id="ee75dd06-1aca-4f76-9d11-d05a284020ad_1_" cx="17242.404" cy="-5618.193" r="56.706" gradientTransform="matrix(.15 0 0 -.15 -2577.38 -833.73)" gradientUnits="userSpaceOnUse"><stop offset=".18" stop-color="#5ea0ef"/><stop offset="1" stop-color="#0078d4"/></radialGradient><path id="ee75dd06-1aca-4f76-9d11-d05a284020ad" d="M14.2 15.7c-3.7 2.9-9.1 2.2-11.9-1.5S.1 5.2 3.8 2.3l.1-.1C7.7-.6 13 .2 15.8 3.9c2.7 3.7 2 9-1.6 11.8" fill="url(#ee75dd06-1aca-4f76-9d11-d05a284020ad_1_)"/><path d="M6.7 7.2c2.4-2.3 5.6-3.6 8.9-3.6-.4-.5-.9-1-1.5-1.4-1.6.1-3.2.5-4.7 1.1-1.5.7-2.9 1.6-4.1 2.8.6.2 1.1.6 1.4 1.1zm-4.2 3.4c-.3.9-.6 1.7-.8 2.6l.6.9c.2.2.3.4.5.6.2-1.2.6-2.4 1.1-3.5-.5.1-1-.2-1.4-.6z" opacity=".6" fill="#fff"/><path class="st2" d="M3.5 6.1c-.4-.9-.6-1.9-.7-2.9-.4.4-.8.9-1.1 1.4.1.8.3 1.6.5 2.4.4-.4.8-.7 1.3-.9z"/><linearGradient id="SVGID_1_" gradientUnits="userSpaceOnUse" x1="4.401" y1="8.52" x2="4.371" y2="12.47" gradientTransform="matrix(1 0 0 -1 0 20)"><stop offset="0" stop-color="#ccc"/><stop offset="1" stop-color="#fcfcfc"/></linearGradient><circle cx="4.4" cy="8.7" r="2.7" fill="url(#SVGID_1_)"/><path class="st2" d="M8.4 13.7c0-.5.2-.9.5-1.3-.9-.5-1.8-1.1-2.5-1.9-.4.5-.9.8-1.5.9.5.5.9.9 1.4 1.3.6.5 1.3.9 2.1 1.3v-.3zm6.3.2c-.9 0-1.9-.1-2.8-.3v.1c0 .5-.2.9-.5 1.2 1.1.2 2.3.3 3.4.2.4-.4.8-.9 1.2-1.3-.4.1-.9.1-1.3.1z"/><linearGradient id="SVGID_2_" gradientUnits="userSpaceOnUse" x1="10.13" y1="4.55" x2="10.13" y2="8.1" gradientTransform="matrix(1 0 0 -1 0 20)"><stop offset="0" stop-color="#ccc"/><stop offset="1" stop-color="#fcfcfc"/></linearGradient><circle cx="10.1" cy="13.7" r="1.8" fill="url(#SVGID_2_)"/><path d="M12.3 8.9c.1-.4.3-.7.6-1-1.6-1.2-3.1-2.6-4.5-4.1C7.7 2.9 7 1.9 6.5.9c-.4.1-.8.2-1.1.4.6 1.1 1.3 2.2 2.1 3.2 1.4 1.6 3 3.1 4.8 4.4z" opacity=".7" fill="#f2f2f2"/><linearGradient id="SVGID_3_" gradientUnits="userSpaceOnUse" x1="14.18" y1="8.85" x2="14.18" y2="12.62" gradientTransform="matrix(1 0 0 -1 0 20)"><stop offset="0" stop-color="#ccc"/><stop offset="1" stop-color="#fcfcfc"/></linearGradient><circle cx="14.2" cy="9.3" r="1.9" fill="url(#SVGID_3_)"/><path class="st2" d="M17.4 10.5l-.4-.1-.3-.2h-.1l-.2-.2h-.1l-.3-.2c-.1.4-.3.7-.6.9.1.1.3.1.4.2l.1.1.4.2.9.4c0-.3 0-.7.2-1.1z"/><linearGradient id="SVGID_4_" gradientUnits="userSpaceOnUse" x1="4.401" y1="8.52" x2="4.371" y2="12.47" gradientTransform="matrix(1 0 0 -1 0 20)"><stop offset="0" stop-color="#ccc"/><stop offset="1" stop-color="#fcfcfc"/></linearGradient><circle cx="4.4" cy="8.7" r="2.7" fill="url(#SVGID_4_)"/><linearGradient id="SVGID_5_" gradientUnits="userSpaceOnUse" x1="10.13" y1="4.55" x2="10.13" y2="8.1" gradientTransform="matrix(1 0 0 -1 0 20)"><stop offset="0" stop-color="#ccc"/><stop offset="1" stop-color="#fcfcfc"/></linearGradient><circle cx="10.1" cy="13.7" r="1.8" fill="url(#SVGID_5_)"/></svg>