<svg xmlns="http://www.w3.org/2000/svg" viewBox="0 0 50 50"><path fill="#59B4D9" d="M31.39 35.018a19.447 19.447 0 01-11.845 4.023c-5.873 0-11.68-2.637-15.518-7.656C-2.53 22.824-.912 10.581 7.664 4.02A19.349 19.349 0 0119.508 0c5.873 0 11.682 2.637 15.518 7.661 6.559 8.558 4.924 20.804-3.636 27.357"/><path fill="#FFF" d="M27.803 22.944a4.205 4.205 0 005.889.784c.096-.073.17-.162.258-.241 1.881 1.325 3.188 2.2 3.924 2.701.218-.565.369-1.107.523-1.673-.778-.579-1.83-1.389-3.35-2.621a4.189 4.189 0 00-.57-4.038 4.186 4.186 0 00-5.417-1.075 175.782 175.782 0 01-6.477-6.117c7.158-3.849 12.243-3.286 12.243-3.286a19.598 19.598 0 00-2.816-2.887c-3.018-.466-7.707-.414-13.065 2.436l-.002-.002h-.001A158.35 158.35 0 0113.489.9c-.886.283-1.751.634-2.587 1.052 1.366 2.235 3.204 4.49 5.275 6.689l.013.013a36.088 36.088 0 00-5.423 4.698c-.226.241-.444.484-.658.727a5.892 5.892 0 00-3.215.22c-1.768-3.815-1.626-6.88-1.346-8.46-.768.806-1.485 1.651-2.102 2.553-.462 1.886-.593 4.606.769 7.884a5.887 5.887 0 00-.004 7.148c.137.179.284.345.437.504a29.579 29.579 0 00-1.14 6.842c.185.251.185.455.369.7.936 1.201 2.113 2.213 3.249 3.13-.141-2.148.011-5.315 1.339-8.881a5.856 5.856 0 002.72-.442c.5.44 1.023.884 1.581 1.336a32.533 32.533 0 005.689 3.626 3.885 3.885 0 00.756 2.747 3.905 3.905 0 005.454.718c.354-.271.633-.598.865-.95 3.037.676 5.691.796 7.658.796.301 0 1.7-1.902 2.501-3.082-1.198.251-4.751.739-9.606-.656a3.86 3.86 0 00-.701-1.546c-1.233-1.617-3.488-1.967-5.169-.885a36.568 36.568 0 01-5.278-3.507 35.37 35.37 0 01-1.061-.873 5.917 5.917 0 00.248-5.896c.223-.223.443-.448.68-.669 1.805-1.686 3.503-3.036 5.091-4.119-.064-.059-.122-.122-.184-.182.063.059.123.119.187.177l-.002.001c2.437 2.254 5.022 4.39 7.469 6.299-.647 1.372-.545 3.044.44 4.332z"/><circle fill="#FFF" cx="34.938" cy="34.938" r="15.062"/><path fill-rule="evenodd" clip-rule="evenodd" fill="#FF6E00" d="M20.992 34.955c0-7.712 6.244-13.963 13.946-13.963s13.946 6.251 13.946 13.963c0 7.712-6.244 13.963-13.946 13.963-7.702.001-13.946-6.251-13.946-13.963zm13.663 4.776c-1.371.001-2.447-.094-3.222-.29-.852-.216-1.439-.688-1.762-1.416-.323-.728-.476-1.849-.46-3.361.007-.815.056-1.605.148-2.37a31.77 31.77 0 01.274-1.895l.096-.495a.284.284 0 00-.232-.324l-1.802-.279a.284.284 0 00-.321.214c-.03.116-.049.201-.103.476a31.195 31.195 0 00-.303 1.789 23.298 23.298 0 00-.203 2.468s-.044.201 0 1.727.306 2.746.787 3.658c.481.912 1.297 1.569 2.447 1.969 1.151.4 2.752.596 4.805.588h.267c2.053.009 3.654-.188 4.805-.588 1.151-.4 1.966-1.057 2.447-1.969.481-.912.743-2.131.787-3.658.044-1.527 0-1.727 0-1.727a23.565 23.565 0 00-.203-2.468 31.044 31.044 0 00-.303-1.789 8.362 8.362 0 00-.102-.476.284.284 0 00-.321-.214l-1.802.279a.283.283 0 00-.231.324l.096.495c.091.498.182 1.13.274 1.895.091.764.141 1.554.148 2.37.016 1.512-.137 2.633-.46 3.361-.322.728-.91 1.2-1.762 1.416-.774.197-1.851.292-3.221.29h-.568z"/></svg>