<svg xmlns="http://www.w3.org/2000/svg" viewBox="0 0 18 18"><defs><linearGradient id="a" x1="9" y1="-.15" x2="9" y2="15.59" gradientUnits="userSpaceOnUse"><stop offset=".09" stop-color="#5ea0ef"/><stop offset="1" stop-color="#0078d4"/></linearGradient><path id="b" d="M2.55 3.32h2.87a.14.14 0 01.14.14v3a.13.13 0 01-.13.13H2.6a.14.14 0 01-.14-.14v-3a.14.14 0 01.1-.13z"/></defs><path d="M1 1.65h16a.5.5 0 01.51.46v11.1a.49.49 0 01-.51.46H1a.5.5 0 01-.52-.46V2.13A.5.5 0 011 1.65z" fill="url(#a)"/><use href="#b" fill="#fff"/><path d="M11.87 8.34l2.66 1.54 2.67 1.53a.16.16 0 010 .27l-1.78 1 1.27 2.18a.88.88 0 01-.32 1.19l-.26.15a.87.87 0 01-1.19-.31l-1.27-2.2-1.77 1a.15.15 0 01-.23-.14V8.48a.16.16 0 01.22-.14z" fill="#50e6ff"/><g fill="#fff"><use href="#b" y="4.83"/><path d="M7.6 3.32h2.88a.14.14 0 01.14.14v3a.13.13 0 01-.13.13H7.66a.14.14 0 01-.14-.14v-3a.13.13 0 01.09-.13z"/></g><path d="M7.6 8.15h2.88a.15.15 0 01.14.14v3a.13.13 0 01-.13.13H7.66a.14.14 0 01-.14-.14v-3a.13.13 0 01.09-.13zm5.3-4.83h2.88a.14.14 0 01.14.14v3a.13.13 0 01-.13.13h-2.84a.14.14 0 01-.14-.14v-3a.13.13 0 01.09-.13z" fill="#83b9f9"/></svg>