<svg xmlns="http://www.w3.org/2000/svg" viewBox="0 0 48 48"><path d="M47.898 26.543v-5.029h-5.205a18.797 18.797 0 00-3.704-8.935L42.667 8.9l-3.56-3.56-3.67 3.679A18.881 18.881 0 0026.5 5.315V.117h-5.037v5.206a18.797 18.797 0 00-8.935 3.704L8.86 5.34 5.299 8.9l3.678 3.68a18.882 18.882 0 00-3.704 8.934H.076v5.037h5.206a18.915 18.915 0 005.366 10.834A18.914 18.914 0 0021.48 42.75v5.206h5.037V42.75a18.796 18.796 0 008.935-3.704l3.68 3.679 3.56-3.56-3.679-3.68a18.882 18.882 0 003.704-8.935h5.18v-.008zm-37.757-2.514c0-3.207 1.114-6.303 3.14-8.784a13.864 13.864 0 017.998-4.792 13.858 13.858 0 019.23 1.367 13.808 13.808 0 016.26 6.91 13.839 13.839 0 01-5.105 16.807 13.857 13.857 0 01-9.044 2.27 13.79 13.79 0 01-8.429-3.991 13.825 13.825 0 01-3.012-4.489 14.048 14.048 0 01-1.038-5.298z" fill="#50E6FF"/><path d="M28.957 25.153l-6.05-6.05 5.46-5.459a11.227 11.227 0 00-12.142 2.329 11.184 11.184 0 00-3.13 5.645 11.255 11.255 0 00.498 6.437L1.536 40.104A4.534 4.534 0 00.21 43.31c0 1.198.473 2.354 1.325 3.206a4.534 4.534 0 003.206 1.325 4.534 4.534 0 003.206-1.325l12.049-12.032c2.05.794 4.286.962 6.437.498a11.212 11.212 0 005.645-3.13 11.218 11.218 0 002.329-12.141l-5.45 5.442zM6.354 44.922c-.321.32-.726.531-1.165.624a2.31 2.31 0 01-1.308-.127 2.295 2.295 0 01-1.02-.835 2.225 2.225 0 01-.38-1.257c0-.447.135-.886.38-1.257a2.294 2.294 0 011.02-.836c.414-.168.87-.219 1.308-.126a2.281 2.281 0 011.83 2.227 2.289 2.289 0 01-.665 1.587z" fill="#0078D4"/><path d="M27.118 31.607h-2.531c0-4.253-3.46-7.72-7.72-7.72v-2.532c5.653 0 10.25 4.599 10.25 10.252z" fill="#50E6FF"/><path d="M23.152 31.605h-2.531a3.749 3.749 0 00-3.746-3.746v-2.53c3.46-.01 6.277 2.809 6.277 6.276z" fill="#50E6FF"/></svg>