<svg width="512" height="512" xmlns="http://www.w3.org/2000/svg">
    <g fill="none" fill-rule="evenodd">
        <path fill="#0063B1" d="M0 0h512v512H0z"/>
        <path d="M175.62 274.573c-12.852 0-25.453 5.188-37.9 15.735l-6.787 5.746v-24.536l1.576-1.24c5.103-4.017 11.873-7.38 20.315-10.138 8.414-2.754 16.384-4.142 23.905-4.142 14.114 0 25.298 4.472 33.234 13.437 7.85 8.864 11.702 21.504 11.702 37.746v85.965h-19.592v-15.815a52.733 52.733 0 01-11.651 10.513c-8.368 5.575-17.687 8.374-27.87 8.374-13.01 0-23.535-3.72-31.34-11.23-7.81-7.503-11.748-17.06-11.748-28.404 0-24.24 16.248-39.01 47.286-43.896l35.26-5.24c-.796-22.51-9.443-32.875-26.39-32.875zm-3.602 55.859c-12.583 1.797-21.248 4.642-25.901 8.311-4.238 3.35-6.44 9.006-6.44 17.346 0 6.36 2.048 11.434 6.207 15.473 4.141 4.028 10.035 6.082 17.897 6.082 11.002 0 19.996-3.988 27.267-12.083 7.338-8.175 11.025-18.762 11.025-31.955v-7.52l-30.055 4.346z" fill="#FFF"/>
        <path d="M332.991 351.512a54.932 54.932 0 004.72-6.054l-31.27-28.02 79.187-4.26c3.373 0 6.303 2.465 6.303 5.827l4.266 78.692-29.466-26.228c-26.325 22.863-66.133 23.314-92.905-.676-1.13-1.121-2.477-2.24-3.604-3.359 21.602 7.395 46.569 2.013 62.77-15.922zM181.38 175.1a54.932 54.932 0 00-4.72 6.055l31.269 28.02-79.186 4.26c-3.374 0-6.303-2.465-6.303-5.827l-4.267-78.692 29.466 26.228c26.326-22.863 66.134-23.314 92.905.675 1.13 1.122 2.477 2.24 3.604 3.36-21.602-7.395-46.568-2.013-62.769 15.922z" fill="#FFF" fill-rule="nonzero"/>
        <path d="M393.55 133.172l4.119-.261 1 16.327-4.09.273c-18.522 1.229-41.796 2.065-70.9 2.588-.438 4.807-.78 9.916-1.052 15.525 6.86-1.37 14.222-2.036 22.209-2.036 2.207 0 4.358.074 6.497.216l2.61-10.235 16.345 3.579-1.035 4.124a600.03 600.03 0 01-1.474 5.746 56.145 56.145 0 0115.264 7.731c12.623 8.75 19.04 20.799 19.04 35.977 0 15.434-5.336 27.983-15.9 37.063-9.717 8.254-23.638 13.613-41.46 16.003l-3.147.42-6.434-15.524 5.348-.689c14.705-1.888 25.753-6.075 33.194-12.436 7.606-6.542 11.35-14.683 11.35-24.837 0-9.973-4.239-17.63-12.903-23.342a42.647 42.647 0 00-8.869-4.431c-4.892 14.557-10.786 27.278-17.777 38.269-15.002 23.478-33.508 35.487-55.268 35.487-8.96 0-16.122-2.85-21.112-8.425-5.023-5.388-7.418-12.925-7.418-22.335 0-16.617 7.822-30.999 23.302-43.093a83.69 83.69 0 0120.417-12.02c.182-7.191.563-14.018 1.16-20.503-3.828.01-8.163.034-16.053.08-10.382.062-15.702.079-22.045.079h-4.124v-16.52h4.124c6.537 0 12.027-.023 22.534-.075 8.778-.05 13.187-.074 17.311-.085.728-5.604 1.679-11.338 2.919-17.829l.802-4.204 16.776 3.857-.864 3.982a163.537 163.537 0 00-2.39 13.944c27.762-.501 50.5-1.303 67.994-2.39m-48.714 48.771c-8.226 0-15.77.882-22.608 2.64v.353c0 14.307.83 27.124 2.48 38.371 2.14-2.657 4.256-5.603 6.35-8.818 6.104-9.614 11.224-20.383 15.462-32.54-.506-.006-1.064-.006-1.684-.006m-48.748 15.662c-11.668 9.176-17.351 19.285-17.351 30.344 0 10.178 3.533 14.404 11.48 14.404 6.65 0 13.079-1.82 19.439-5.478-2.651-13.25-4.125-28.439-4.415-45.494a60.97 60.97 0 00-9.153 6.224" fill="#FFF"/>
    </g>
</svg>
