<svg width="512" height="512" xmlns="http://www.w3.org/2000/svg">
    <g fill="none" fill-rule="evenodd">
        <path fill="#0063B1" d="M0 0h512v512H0z"/>
        <path d="M364.089 381.156c-12.567 0-22.756-10.184-22.756-22.756 0-12.567 10.19-22.756 22.756-22.756 12.572 0 22.755 10.19 22.755 22.756 0 12.572-10.183 22.756-22.755 22.756m0-68.267c-25.134 0-45.511 20.377-45.511 45.511 0 25.14 20.377 45.511 45.51 45.511 25.14 0 45.512-20.372 45.512-45.511 0-25.134-20.372-45.511-45.511-45.511m-153.6 0c-50.273 0-91.022-40.755-91.022-91.022s40.75-91.023 91.022-91.023c22.369 0 42.82 8.101 58.67 21.482-12.317 14.023-19.838 32.347-19.838 52.474 0 28.32 14.825 53.117 37.086 67.237-16.299 24.61-44.197 40.852-75.918 40.852M272.077 204.8c0-13.488 4.716-25.856 12.555-35.607 10.593 14.877 16.88 33.024 16.88 52.674 0 10.376-1.821 20.309-5.024 29.605-14.746-10.28-24.411-27.335-24.411-46.672m113.778 0c0 31.42-25.47 56.889-56.89 56.889-3.964 0-7.839-.41-11.57-1.183 4.369-12.084 6.872-25.049 6.872-38.64 0-25.184-8.283-48.378-22.136-67.225a56.666 56.666 0 0126.835-6.73c31.42 0 56.889 25.47 56.889 56.889m-56.89 79.644c43.987 0 79.645-35.658 79.645-79.644 0-43.986-35.658-79.644-79.644-79.644-15.594 0-30.1 4.55-42.383 12.299-20.167-18.193-46.796-29.366-76.094-29.366-62.84 0-113.778 50.944-113.778 113.778 0 62.833 50.938 113.777 113.778 113.777 40.988 0 76.806-21.742 96.83-54.254 6.89 1.945 14.137 3.054 21.647 3.054" fill="#FFF"/>
    </g>
</svg>
