<svg width="512" height="512" xmlns="http://www.w3.org/2000/svg">
    <g fill="none" fill-rule="evenodd">
        <path fill="#0063B1" d="M0 0h512v512H0z"/>
        <path d="M256 375.467c-69.12 0-125.156-56.036-125.156-125.156S186.88 125.156 256 125.156 381.156 181.19 381.156 250.31 325.12 375.467 256 375.467m0-273.067c-81.687 0-147.911 66.224-147.911 147.911S174.313 398.222 256 398.222s147.911-66.224 147.911-147.91c0-81.688-66.224-147.912-147.911-147.912" fill="#FFF"/>
        <path d="M256 273.067c15.713 0 28.444 12.731 28.444 28.444S271.713 329.956 256 329.956s-28.444-12.732-28.444-28.445c0-15.713 12.731-28.444 28.444-28.444zm-54.044-79.645c10.996 0 19.91 8.915 19.91 19.911 0 10.997-8.914 19.911-19.91 19.911-10.997 0-19.912-8.914-19.912-19.91 0-10.997 8.915-19.912 19.912-19.912zm108.088 0c10.997 0 19.912 8.915 19.912 19.911 0 10.997-8.915 19.911-19.912 19.911-10.996 0-19.91-8.914-19.91-19.91 0-10.997 8.914-19.912 19.91-19.912z" fill="#FFF"/>
    </g>
</svg>
