<svg xmlns="http://www.w3.org/2000/svg" viewBox="0 0 48 48"><defs><style>.cls-2{fill:#fff}</style></defs><g id="Layer_2" data-name="Layer 2"><g id="Layer_1-2" data-name="Layer 1"><path fill="#0063b1" d="M0 0h48v48H0z"/><g id="Layer_2-2" data-name="Layer 2"><g id="Layer_1-2-2" data-name="Layer 1-2"><path class="cls-2" d="M35.88 16.75a13.56 13.56 0 0 0-1.54-2.07 13.92 13.92 0 0 0-19.68-1 13.33 13.33 0 0 0-1 1 13.56 13.56 0 0 0-1.54 2.07 13.82 13.82 0 0 0 0 14.5 13.56 13.56 0 0 0 1.54 2.07 13.92 13.92 0 0 0 19.68 1 13.33 13.33 0 0 0 1-1 13.56 13.56 0 0 0 1.54-2.07 13.82 13.82 0 0 0 0-14.5zm-3.43-.35a12 12 0 0 1-2 1.19 15.78 15.78 0 0 0-2.4-4.2 11.39 11.39 0 0 1 4.4 3.01zM18.93 24a15.11 15.11 0 0 1 .33-3.15 18.43 18.43 0 0 0 9.48 0 15.34 15.34 0 0 1 0 6.33 18.36 18.36 0 0 0-9.48 0 15.47 15.47 0 0 1-.33-3.18zM24 13a11.65 11.65 0 0 1 4 5.39 15.51 15.51 0 0 1-8 0A11.65 11.65 0 0 1 24 13zm-4 .34a15.93 15.93 0 0 0-2.4 4.2 13 13 0 0 1-2-1.15 11.38 11.38 0 0 1 4.4-3.04zm-5.94 16.22a11.4 11.4 0 0 1 0-11.12A16.11 16.11 0 0 0 16.84 20a18.3 18.3 0 0 0 0 8 16.11 16.11 0 0 0-2.78 1.56zm1.49 2a12 12 0 0 1 2-1.19 15.78 15.78 0 0 0 2.4 4.2 11.39 11.39 0 0 1-4.4-2.97zM24 35a11.87 11.87 0 0 1-4-5.41 15.44 15.44 0 0 1 8 0A11.87 11.87 0 0 1 24 35zm4-.36a15.93 15.93 0 0 0 2.4-4.2 12 12 0 0 1 2 1.19 11.39 11.39 0 0 1-4.4 3.02zm5.91-5.06A14.88 14.88 0 0 0 31.16 28a18.35 18.35 0 0 0 0-8 14.88 14.88 0 0 0 2.78-1.56 11.42 11.42 0 0 1 0 11.15zM40.47 5H35.4v2.53h5.07v5.07H43V5h-2.53zM5 7.53v5.07h2.53V7.53h5.07V5H5v2.53zM7.53 43h5.07v-2.53H7.53V35.4H5V43h2.53zM43 40.47V35.4h-2.53v5.07H35.4V43H43v-2.53z"/></g></g></g></g></svg>