<svg xmlns="http://www.w3.org/2000/svg" viewBox="0 0 512 512"><g fill="none" fill-rule="evenodd"><path fill="#0063B1" d="M0 0h512v512H0z"/><path d="M369.778 142.222v227.556h-130.48a78.806 78.806 0 005.034-22.756h102.69V164.978H164.978v96.71c-7.913 0-15.537 1.196-22.756 3.346V142.222h227.556zM297.572 256l-70.019 45.511V210.49l70.02 45.51z" fill="#FFF"/><path d="M131.45 341.333c0-18.665 15.041-33.74 33.53-33.74s33.525 15.075 33.525 33.74c0 18.671-15.036 33.747-33.525 33.747-18.489 0-33.53-15.076-33.53-33.747m-23.359 0c0 11.492 3.43 22.17 9.29 31.113L73.958 415.88l16.094 16.088 43.326-43.333a56.63 56.63 0 0031.602 9.586c31.448 0 56.889-25.497 56.889-56.889 0-31.385-25.44-56.889-56.889-56.889-31.454 0-56.889 25.504-56.889 56.89" fill="#FFF"/></g></svg>