<svg width="512" height="512" xmlns="http://www.w3.org/2000/svg">
    <g fill="none" fill-rule="evenodd">
        <path fill="#0063B1" d="M0 0h512v512H0z"/>
        <path d="M375.467 349.806c0 14.17-11.492 25.662-25.663 25.662h-90.897c-14.171 0-25.663-11.491-25.663-25.662v-48.293h19.849c26.738 0 48.418-21.68 48.418-48.418v-19.849h48.293c14.171 0 25.663 11.486 25.663 25.657v90.903zm-96.711-116.56v19.849c0 14.17-11.492 25.662-25.663 25.662h-19.849v-19.854c0-14.171 11.492-25.657 25.663-25.657h19.849zm-116.56 45.511c-14.171 0-25.663-11.491-25.663-25.662v-90.903c0-14.171 11.492-25.657 25.663-25.657h90.897c14.171 0 25.663 11.486 25.663 25.657v48.299h-19.849c-26.738 0-48.418 21.674-48.418 48.412v19.854h-48.293zm187.608-68.266h-48.293v-48.3c0-26.737-21.68-48.412-48.418-48.412h-90.897c-26.738 0-48.418 21.675-48.418 48.413v90.903c0 26.737 21.68 48.418 48.418 48.418h48.293v48.293c0 26.738 21.68 48.418 48.418 48.418h90.897c26.738 0 48.418-21.68 48.418-48.418v-90.903c0-26.738-21.68-48.412-48.418-48.412z" fill="#FFF"/>
    </g>
</svg>
