<svg xmlns="http://www.w3.org/2000/svg" width="512" height="512">
    <g fill-rule="evenodd" fill="none">
        <path fill="#0063B1" d="M0 0h512v512H0z"/>
        <path d="M398.294 241.31c0 49.533-39.668 90.06-88.143 90.06H207.546c-2.093 0-4.164-.085-6.224-.233l-57.406 24.639 15.604-39.055c-24.103-16.116-40.123-43.946-40.123-75.417v-7.18c0-49.527 39.668-90.055 88.143-90.055h102.605c48.475 0 88.144 40.528 88.15 90.056v7.185zm-88.149-119.922H207.54c-61.115 0-110.83 50.79-110.83 112.737v7.179c0 31.83 13.232 61.53 35.52 82.574l-29.707 74.348 102.964-44.197a83.16 83.16 0 002.059.023h102.605c61.116 0 110.825-50.79 110.825-112.742v-7.185c-.006-61.952-49.715-112.737-110.83-112.737z" fill="#FFF"/>
    </g>
    <ellipse cx="259.798" cy="239.356" rx="82.296" ry="81.853" fill="#fff"/>
    <text style="line-height:1.25;-inkscape-font-specification:'Haettenschweiler, Normal';font-variant-ligatures:normal;font-variant-caps:normal;font-variant-numeric:normal;font-feature-settings:normal;text-align:start" x="235.458" y="296.373" font-weight="400" font-size="160" font-family="Haettenschweiler" letter-spacing="0" word-spacing="0" fill="#0063b1">
        <tspan x="235.458" y="296.373">1</tspan>
    </text>
</svg>
