<svg width="512" height="512" xmlns="http://www.w3.org/2000/svg">
    <g fill="none" fill-rule="evenodd">
        <path fill="#0063B1" d="M0 0h512v512H0z"/>
        <path d="M381.222 229.276c0 64.336-58.869 142.763-125.224 156.542-66.355-13.779-125.218-92.206-125.218-156.542V164.77a87.171 87.171 0 013.664-3.163c6.024-4.95 13.488-9.944 22.454-14.643 26.038-13.636 58.857-21.874 99.1-21.874 40.243 0 73.068 8.238 99.1 21.874 8.966 4.699 16.436 9.694 22.455 14.643a91.592 91.592 0 013.67 3.163v64.506zm19.9-76.646c-1.661-1.906-4.693-4.881-9.16-8.55-7.196-5.917-15.95-11.776-26.333-17.215-29.252-15.326-65.684-24.468-109.63-24.468-43.942 0-80.379 9.142-109.626 24.468-10.382 5.439-19.137 11.298-26.333 17.215-4.466 3.669-7.498 6.644-9.16 8.55l-2.793 3.209v73.437c0 75.532 67.442 164.62 145.83 179.257l2.081.393 2.082-.393c78.388-14.637 145.83-103.73 145.83-179.257V155.84l-2.788-3.209z" fill="#FFF"/>
        <path d="M256.094 307.2c-5.626 0-10.433 1.866-14.245 5.564-3.834 3.72-5.762 8.527-5.762 14.245 0 5.49 1.9 10.251 5.649 14.125 3.788 3.908 8.63 5.888 14.358 5.888 5.775 0 10.605-1.917 14.308-5.728 3.67-3.79 5.507-8.602 5.507-14.285 0-5.627-1.866-10.405-5.575-14.154-3.715-3.76-8.528-5.655-14.24-5.655m-11.472-22.756h22.756V153.6h-22.756z" fill="#FFF"/>
    </g>
</svg>
