<svg width="512" height="512" xmlns="http://www.w3.org/2000/svg">
    <g fill="none" fill-rule="evenodd">
        <path fill="#0063B1" d="M0 0h512v512H0z"/>
        <path d="M395.494 248.945l4.324.586v17.59l-4.295.608c-12.265 1.724-18.381 11.463-18.381 31.193V340.2c0 15.292-3.51 26.692-10.843 33.986-7.236 7.179-17.698 10.94-31.164 11.446l-5.182.199v-21.584l4.721-.256c7.146-.392 11.754-2.412 14.251-5.87 2.737-3.778 4.284-11.14 4.284-21.949v-38.36c0-18.529 4.95-31.795 14.984-39.373-9.995-6.98-14.984-19.604-14.984-37.21v-40.727c0-10.815-1.547-18.176-4.284-21.954-2.497-3.453-7.105-5.478-14.25-5.865l-4.722-.256v-21.584l5.182.194c13.466.506 23.928 4.272 31.164 11.457 7.333 7.288 10.843 18.682 10.843 33.98v43.645c0 18.199 6.019 27.164 18.352 28.826zm-253.883-106.45c7.23-7.185 17.698-10.951 31.164-11.458l5.177-.193v21.584l-4.716.256c-7.151.386-11.753 2.412-14.257 5.865-2.736 3.777-4.283 11.139-4.283 21.953v40.727c0 17.71-5.046 30.39-15.167 37.336 10.143 7.276 15.167 20.583 15.167 39.248v38.36c0 10.809 1.547 18.17 4.283 21.948 2.504 3.459 7.106 5.478 14.257 5.87l4.716.25v21.585l-5.177-.194c-13.466-.506-23.933-4.267-31.164-11.446-7.338-7.293-10.848-18.694-10.848-33.985v-41.279c0-19.729-6.11-29.468-18.381-31.192l-4.295-.609v-17.596l4.323-.58c12.334-1.66 18.353-10.627 18.353-28.825v-43.646c0-15.297 3.51-26.692 10.848-33.98z" fill="#FFF"/>
    </g>
</svg>
