<svg xmlns="http://www.w3.org/2000/svg" height="50" width="50">
    <path fill="#68217A" d="M41.4 14.7v-.3C41.4 6.7 34.8.3 26.7.2c-.2-.3-4.8.1-4.8.1-7.3.9-13 7-13 14.1 0 .2-.8 5.8 4.9 10.5 2.6 2.3 5.3 8.5 5.7 10.3l.3.6h10.6l.3-.6c.4-1.8 3.2-8 5.7-10.2 5.7-4.8 5-10.1 5-10.3z"/>
    <path fill="#7A7A7A" d="M20 39.4h10.6v3.4H20zM23.3 50h3.9l3.3-3.5H20z"/>
    <path fill="#FFF" d="M27.9 35.3h-2V22.6h-1.7v12.6h-2V22.6h-1.7c-2 0-3.7-1.7-3.7-3.7s1.6-3.7 3.7-3.7 3.7 1.7 3.7 3.7v1.7h1.7v-1.7c0-2 1.7-3.7 3.7-3.7s3.7 1.7 3.7 3.7-1.7 3.7-3.7 3.7h-1.7v12.7zm-7.4-18.1c-.9 0-1.7.7-1.7 1.7 0 .9.8 1.7 1.7 1.7h1.7v-1.7c-.1-.9-.8-1.7-1.7-1.7zm9.1 0c-.9 0-1.7.8-1.7 1.7v1.7h1.7c.9 0 1.7-.8 1.7-1.7 0-.9-.7-1.7-1.7-1.7z" opacity=".65"/>
    <path fill="#FFF" d="M26.7.2c-.2-.3-4.8.1-4.8.1-7.3.9-13 7-13 14.1 0 .2-.7 5.1 3.9 9.6L34.4 2.4C32.1 1 29.5.2 26.7.2z" opacity=".15"/>
</svg>
