<svg data-name="fluent_icons" xmlns="http://www.w3.org/2000/svg" xmlns:xlink="http://www.w3.org/1999/xlink" viewBox="0 0 18 18"><defs><linearGradient id="a" x1="12.33" y1="17.18" x2="12.33" y2="2.93" gradientUnits="userSpaceOnUse"><stop offset="0" stop-color="#1988d9"/><stop offset=".9" stop-color="#54aef0"/></linearGradient><linearGradient id="c" x1="4.09" y1="15.62" x2="4.09" y2="3.18" xlink:href="#a"/><radialGradient id="b" cx="11.34" cy="-458.58" r="6.14" gradientTransform="matrix(1.01 0 0 1.14 -2.49 533.67)" gradientUnits="userSpaceOnUse"><stop offset=".2" stop-color="#ffd70f"/><stop offset=".44" stop-color="#ffcb12"/><stop offset=".87" stop-color="#feac19"/><stop offset="1" stop-color="#fea11b"/></radialGradient></defs><path d="M8.38 10H5.23a.19.19 0 01-.17-.21.25.25 0 010-.08L8.85.25A.16.16 0 019 .13h3.72a.19.19 0 01.18.2.2.2 0 010 .11L8.44 7.85h4.32a.19.19 0 01.18.2.23.23 0 010 .14l-7.22 9.47c-.07.05-.55.56-.31-.21z" fill="url(#b)"/><path d="M14.26 12.05l.49-1.25 2.16-.8V8.2l-.25-.08-1.94-.59-.53-1.22.94-2.11-1.3-1.25-.23.13-1.83.92-.38-.15L10 6.17a3.3 3.3 0 011.26.74 2.8 2.8 0 01.39.46h1.1a.69.69 0 01.52 1.1l-1.06 1.4a3.35 3.35 0 01-.86 1.68 3.29 3.29 0 01-.9.64l-2.7 3.57.54 1.42h1.79l.08-.26.6-1.92 1.24-.58 2.1.95 1.25-1.3-.12-.24z" fill="url(#a)"/><path d="M7.1 11.93a2.63 2.63 0 01-.37-.29A3.18 3.18 0 016 10.47h-.76a.66.66 0 01-.66-.67.86.86 0 010-.27L7 3.72l-1 .41-2.1-.95-1.24 1.3.12.24 1 1.78-.53 1.25-2.16.82v1.8l.25.08 1.98.55.53 1.22-.94 2.11 1.29 1.29.24-.13L6 14.65z" fill="url(#c)"/></svg>