<svg width="100" height="100" xmlns="http://www.w3.org/2000/svg" xmlns:xlink="http://www.w3.org/1999/xlink">
    <defs>
        <rect id="a" x="0" y="0" width="96" height="96" rx="48"/>
    </defs>
    <g fill="none" fill-rule="evenodd">
        <g transform="translate(2 2)">
            <mask id="b" fill="#fff">
                <use xlink:href="#a"/>
            </mask>
            <use fill="#D9EAF8" xlink:href="#a"/>
            <g mask="url(#b)">
                <path fill="#000" d="M-8.581 65.265L102.852 21.66l2.907 13.566-68.798 68.798-43.604-2.907z"/>
                <path d="M95.115-2.03H39.857v36.69c0 .937.713 1.698 1.593 1.698h52.072c.88 0 1.593-.761 1.593-1.699V-2.03z" fill="#2B2B2B"/>
                <path fill="#BFBFBF" d="M-1 14l48.789 16.594.926-2.636-48.79-16.595z"/>
                <path fill="#9B9B9B" d="M48.11 32.392l-1.693-2.248 1.998-2.438 2.7 1.192z"/>
                <path fill="#707070" d="M-10.196 64.296L101.238 20.69l2.907 13.566-68.798 68.798-43.605-2.907z"/>
                <path d="M5.797 72.121c.56 0 1.103.076 1.623.206a6.741 6.741 0 01-.162-1.452 6.72 6.72 0 016.72-6.72 6.68 6.68 0 012.852.644 6.714 6.714 0 0113.214 1.694 6.7 6.7 0 01-.216 1.662c.46-.075.928-.124 1.41-.124A8.763 8.763 0 0140 76.795a8.763 8.763 0 01-8.763 8.763H5.797a6.718 6.718 0 010-13.437M42.762 46.99c.308 0 .605.043.89.114a3.684 3.684 0 013.595-4.48c.56 0 1.089.128 1.565.352a3.68 3.68 0 013.56-2.754 3.684 3.684 0 013.684 3.684c0 .314-.044.618-.119.91.252-.04.51-.068.773-.068a4.805 4.805 0 010 9.61H42.762a3.683 3.683 0 110-7.368m27.342-4.28c.184 0 .364.024.536.067a2.225 2.225 0 012.171-2.706c.339 0 .658.079.945.214a2.223 2.223 0 014.303 1.11 2.901 2.901 0 11.466 5.762l-8.421.001a2.225 2.225 0 110-4.449" fill="#FFF"/>
                <path d="M51.957 31.833a1.104 1.104 0 11-2.208-.01 1.104 1.104 0 012.208.01" fill="#D7EAF7"/>
                <path fill="#BFBFBF" d="M51.464 32.844l-8.556 5.564-1.43-2.197 8.558-5.564z"/>
                <path fill="#BFBFBF" d="M50.1 32.713l8.49 5.663 1.455-2.18-8.492-5.664z"/>
                <path fill="#BFBFBF" d="M60.767 43.775l-2.348.137-.375-6.452 2.346-.136zm-20.255-.118l2.346.165.45-6.448-2.345-.164z"/>
                <path fill="#BFBFBF" d="M60.767 43.775l-3.232 3.409-.919-.374 1.803-2.898zm-17.909.047l1.997 2.957-.51.663-3.833-3.785z"/>
                <path d="M53.8 31.722a2.946 2.946 0 11-5.892-.034 2.946 2.946 0 015.892.034" fill="#7C7C7C"/>
                <path d="M43.508 36.541A1.496 1.496 0 1141 38.171a1.496 1.496 0 012.508-1.63m14.367-.109a1.495 1.495 0 102.487 1.66 1.495 1.495 0 00-2.487-1.66" fill="#137AD1"/>
                <path d="M57.515 59.558c0 .663-3.403 1.2-7.6 1.2-4.197 0-7.6-.537-7.6-1.2 0-.663 3.403-1.2 7.6-1.2 4.197 0 7.6.537 7.6 1.2" fill="#000"/>
                <path d="M47.545 21.627v-1.858c-1.582-.203-3.128-.828-4.342-1.748l1.435-2.098c.993.754 1.913 1.27 2.999 1.49v-2.925c-2.65-.718-3.956-1.73-3.956-3.901v-.037c0-2.042 1.546-3.367 3.864-3.606V5.877h1.914V6.98a7.717 7.717 0 013.422 1.361l-1.233 2.153c-.736-.497-1.509-.883-2.281-1.086v2.779c2.796.754 3.992 1.895 3.992 3.956v.037c0 2.042-1.564 3.367-3.9 3.624v1.822h-1.914zm.092-9.9V9.245c-.883.11-1.27.552-1.27 1.14v.037c0 .57.258.939 1.27 1.307zm1.73 5.778c.864-.128 1.306-.515 1.306-1.177v-.037c0-.626-.313-.994-1.306-1.362v2.576zm4.876 5.263v-2.135h11.113v2.135H54.243z" fill="#FCD42D"/>
            </g>
        </g>
        <rect x="2" y="2" width="96" height="96" rx="48" stroke="#0078D4" stroke-width="4"/>
    </g>
</svg>
