<svg xmlns="http://www.w3.org/2000/svg" viewBox="0 0 400 140">
    <defs>
        <style>
            .cls-1{fill:#2b8fde}.cls-2{fill:#2a6dcf}.cls-4{fill:#bad80a}.cls-10{fill:none;stroke-linecap:round}.cls-7{fill:#2b6dcf}.cls-10,.cls-9{fill-rule:evenodd}.cls-9{fill:#d1e55c}.cls-10{stroke:#0050c5;stroke-linejoin:round;stroke-width:3px}.cls-12{fill:#eef5c2}
        </style>
    </defs>
    <g id="ICONS">
        <path class="cls-1" d="M110 94a30 30 0 0138.18-28.87c1.76-8.17 7.51-15.29 15.18-19.66a26.43 26.43 0 00-7.29-3l-.82-.19c-.09-.58-.2-1.15-.33-1.72a27.19 27.19 0 00-1.3-4.25 27.66 27.66 0 00-5.35-8.52 27.08 27.08 0 00-7.27-5.68 26.62 26.62 0 00-6.3-2.4 25.75 25.75 0 00-6-.7 26.33 26.33 0 00-5.7.62 25.72 25.72 0 00-6.11 2.18 26.42 26.42 0 00-7.63 5.74 27.32 27.32 0 00-3.26 4.17c-.61-.3-1.23-.58-1.86-.83a26.69 26.69 0 00-21.68.69 27.38 27.38 0 00-5.69 3.64A27.88 27.88 0 0073 39.08a25.92 25.92 0 00-2 2.78 28.11 28.11 0 00-2.65 5.39c-.47-.1-.94-.19-1.41-.25a24.93 24.93 0 00-3.87-.3h-.48a25.14 25.14 0 00-8.12 1.49 24.16 24.16 0 00-4.12 1.92 25.46 25.46 0 002 45.06l.39.17c.76.32 1.51.63 2.32.92a21.52 21.52 0 005.21 1.14l.64.06c1.31.11 2.81.19 4.58.24 2.68.09 6 .11 10.27.11h34.55A32.56 32.56 0 01110 94z"/>
        <path class="cls-2" d="M355.29 56.3a24.16 24.16 0 00-4.12-1.92 25.14 25.14 0 00-8.17-1.49h-.48a24.93 24.93 0 00-3.87.3c-.47.06-.94.15-1.41.25a28.11 28.11 0 00-2.61-5.44 25.92 25.92 0 00-2-2.78 27.88 27.88 0 00-3.82-3.86 27.38 27.38 0 00-5.69-3.64 26.69 26.69 0 00-21.69-.72c-.63.25-1.25.53-1.86.83a27.32 27.32 0 00-3.18-4.17 26.42 26.42 0 00-7.63-5.66 25.72 25.72 0 00-6.11-2.18 26.33 26.33 0 00-5.7-.62 25.75 25.75 0 00-6 .7 26.62 26.62 0 00-6.3 2.4 27.08 27.08 0 00-7.27 5.67 27.66 27.66 0 00-5.38 8.48 27.19 27.19 0 00-1.3 4.25c-.05.23-.16 1.69-.28 3.39a32.87 32.87 0 016.41 16.53c1.16-.31 2.31-.65 3.45-1l.29-.09h3.63C281.46 65.54 294 78 294 95.14c0 .66 0 1.33-.07 2v.43c-.05.67-.12 1.35-.21 2-.1.69-.22 1.38-.36 2.06v.23c-.15.7-.32 1.4-.51 2.1h37.16c4.27 0 7.59 0 10.27-.11 1.77 0 3.27-.13 4.58-.24l.64-.06a21.52 21.52 0 005.21-1.14c.81-.29 1.56-.6 2.32-.92l.39-.17a25.43 25.43 0 002-45.06z"/>
        <path d="M264.19 67.54h-3.32c-2 .64-4 1.18-5.89 1.64a31 31 0 00-54.26-19.64 35.06 35.06 0 00-20.34-6.63c-15.29 0-29 11.23-30.59 24.84A28 28 0 00112 94c0 13.38 9.39 27.56 21.93 30.33a16.66 16.66 0 005.78.67h124.48c16.6 0 27.81-14.94 27.81-29.86 0-15.66-11.21-27.6-27.81-27.6z" fill="#80bceb"/>
        <circle class="cls-4" cx="63.5" cy="76.5" r="36.5"/>
        <path stroke="#2b6dcf" stroke-miterlimit="10" stroke-width="4" fill="none" d="M60.06 88h-18V58h42v30H76"/>
        <circle class="cls-2" cx="63" cy="88" r="7"/>
        <path d="M52.21 95.44A13.49 13.49 0 1052 79.83" stroke-linecap="round" stroke="#2b6dcf" stroke-miterlimit="10" stroke-width="4" fill="none"/>
        <ellipse class="cls-7" cx="177.95" cy="59.21" rx="9" ry="11.21"/>
        <path d="M247 64a16 16 0 11-16-16 16 16 0 0116 16z" fill-rule="evenodd" fill="#bad80a"/>
        <path class="cls-9" d="M247 64a16 16 0 01-4.81 11.45l-22.64-22.64A16 16 0 01247 64z"/>
        <path class="cls-10" d="M223 63l6 6 12-12"/>
        <path class="cls-7" d="M226.42 81.37l-17.13 8.51a4.1 4.1 0 01-3.06.11l-7.58-2 1.26 29.89.09 2.12h-6v5h-31v-4a66.39 66.39 0 01-6.07-6.52c-2-2.62-2-8.55-1.86-10.33.47-5.15.46-15 1-20.69a10.29 10.29 0 011.15-4 7.64 7.64 0 011.91-2.34 8.37 8.37 0 013.08-1.6l1.47-.4c3.71-1 8.9-2.15 8.9-2.15L178 84.22h.09L183.44 73l2.43.65 5.21 1.43c.93.26 1.81.52 2.65.77l14.31 4.22 15-6.15a4.08 4.08 0 113.37 7.44z"/>
        <path d="M247 102a16 16 0 11-16-16 16 16 0 0116 16z" fill="#bad80b" fill-rule="evenodd"/>
        <path class="cls-9" d="M247 102a16 16 0 01-4.81 11.45l-22.64-22.64A16 16 0 01247 102z"/>
        <path class="cls-10" d="M223 101l6 6 12-12"/>
        <path class="cls-4" d="M322.84 50.6a15.07 15.07 0 00-1.42-.83l-1.15-.53c-.44-.18-2.51-.8-2.61-.83l-2-.32c-.09 0-1.46-.09-1.7-.09a16.58 16.58 0 00-5.96 1.08q-.68.26-1.32.58c-.21.11-2.59 1.61-2.94 1.91A13.61 13.61 0 00299 62a11.88 11.88 0 002 6.81l.35.51a13.78 13.78 0 001.19 1.43l.25.26.08.08A28 28 0 01309 82h10a27.2 27.2 0 016-10.88 13.08 13.08 0 004-9.4 13.32 13.32 0 00-6.16-11.12z"/>
        <path class="cls-12" d="M324 70.75c.47 0 .93 0 1.39-.07a13 13 0 003.61-9 13.32 13.32 0 00-6.16-11.12 15.07 15.07 0 00-1.42-.83l-1.15-.53c-.44-.18-2.51-.8-2.61-.83l-2-.32c-.09 0-1.46-.09-1.7-.09a16.58 16.58 0 00-5.96 1.12q-.68.26-1.32.58c-.21.11-2.59 1.61-2.94 1.91a12.32 12.32 0 00-1.07 1A21.75 21.75 0 00324 70.75z"/>
        <path class="cls-4" d="M316 96h-4l-3-3h10l-3 3z"/>
        <path fill="#4d4e4e" d="M309 82h10v10h-10z"/>
        <path class="cls-12" d="M309 88h10v2h-10zm0-4h10v2h-10z"/>
        <path class="cls-1" d="M226.42 81.37l-17.13 8.51a4.1 4.1 0 01-3.06.11l-7.58-2 1.26 29.89-40.77-40.74a8.37 8.37 0 013.08-1.6l1.47-.4c3.71-1 8.9-2.15 8.9-2.15L178 84.22h.09L183.44 73l2.43.65 5.21 1.43c.93.26 1.81.52 2.65.77l14.31 4.22 15-6.15a4.08 4.08 0 113.37 7.44z"/>
    </g>
</svg>
