<svg version="1.1" id="Layer_1" xmlns="http://www.w3.org/2000/svg" x="0" y="0" viewBox="0 0 68 68" xml:space="preserve">
    <style>
        .st2{fill:#3999c6}
    </style>
    <path fill="#3e3e3e" d="M24 2v34h4v8h20V2z"/>
    <path d="M27 23h4v6h-4zm7-18h4v6h-4zm0 18h4v6h-4zm0-9h4v6h-4zm7-9h4v6h-4zM27 5h4v6h-4zm0 9h4v6h-4zm14 9h4v6h-4zm0-9h4v6h-4z" fill="#f2f2f2"/>
    <g id="Layer_1_1_">
        <g id="Azure_1_">
            <path class="st2" d="M23.2 37.9c-.9 0-1.7.6-2.1 1.4H7.9c-2.2 0-4.1-1.8-4.1-4.1s1.8-4.1 4.1-4.1h1.8c.1-.5.2-.9.4-1.4.1-.1.1-.3.2-.5.9-1.6 2.7-2.7 4.7-2.7 1.8 0 3.4.9 4.3 2.2.6-.3 1.1-.5 1.7-.6-1.3-2-3.5-3.4-6.1-3.4-3 0-5.6 1.9-6.7 4.5h-.3C4.6 29.4 2 32 2 35.3c0 3.2 2.6 5.9 5.9 5.9h13.3c.4.8 1.1 1.4 2.1 1.4 1.2 0 2.3-1 2.3-2.3-.2-1.3-1.2-2.4-2.4-2.4z"/>
            <path class="st2" d="M30.2 48c4 0 7.4-3.4 7.4-7.3s-3.2-7.2-7.2-7.2C29 30.8 26.3 29 23.1 29c-3.9 0-7.1 2.7-7.9 6.3-1.9.2-3.5 1.2-4.5 2.6h9.7c.6-.8 1.7-1.4 2.8-1.4 2 0 3.6 1.6 3.6 3.6s-1.6 3.6-3.6 3.6c-1.1 0-2.1-.5-2.8-1.4H9.6c.4 3.1 2.9 5.6 6.1 5.6l14.5.1z"/>
        </g>
    </g>
</svg>
