<svg version="1.1" id="Layer_1" xmlns="http://www.w3.org/2000/svg" x="0" y="0" viewBox="0 0 50 50" xml:space="preserve"><style>.st0{fill:#a0a1a2}.st1{fill:#7a7a7a}.st2{fill:#3e3e3e}</style><path class="st0" d="M12.8 20.1l12-4.8V1.1L12.7 6z"/><path class="st1" d="M36.7 5.4L24.8 1.1V25l11.9-4.9z"/><path class="st2" d="M36.7 20.1L24.8 25l-12-4.9 12-4.7z"/><path class="st0" d="M0 40.6l12.1-4.7V21.6L0 27.7z"/><path class="st1" d="M24 27l-11.9-5.4v.2L12 45.5l12-4.9z"/><path class="st2" d="M24 40.6l-11.9 4.9L0 40.6l12.1-4.7z"/><path fill="#e5e5e5" d="M26 40.6l12.1-4.7V21.6L26 27.1z"/><path class="st0" d="M50 27l-11.9-5.4v.2L38 45.5l12-4.9z"/><path fill="#0070c9" d="M50 40.6l-11.9 4.9L26 40.6l12.1-4.7z"/><path d="M44.8 38.8H31.3c-.7 0-1.3-.6-1.3-1.3v-8.7c0-.7.5-1.2 1.2-1.2h13.5c.7 0 1.3.6 1.3 1.3v8.6c.1.7-.5 1.3-1.2 1.3z" fill="#000e92"/><path d="M35.8 37.8l-4.5-4.5 4.6-4.4.9.9-3.8 3.5 3.6 3.7zm4.3 0l4.5-4.5-4.6-4.4-.8.9 3.7 3.5-3.6 3.7z" fill="#fff"/><path d="M40.6 27.6h-9.4c-.7 0-1.1.7-1.1 1.2v8.8c0 .5.5 1.2 1.2 1.2h3.6l5.7-11.2z" opacity=".25" fill="#fff"/><path opacity=".2" fill="#3e3e3e" d="M31.1 27.6l6.6-1.6 7 1.6z"/></svg>