<svg fill="none" xmlns="http://www.w3.org/2000/svg" viewBox="0 0 120 120"><path d="M60.532 30.752L33.256 46.49l.517-30.753L61.05 0l-.517 30.752zm33.075 57.776V57.056L120 72.88v31.472L93.607 88.528zm-67.213 0V57.056L52.787 72.88v31.472L26.394 88.528zm0 0V57.056L0 72.88v31.472l26.393-15.824z" fill="#50E6FF"/><path opacity=".4" d="M26.394 88.528V57.056L0 72.88v31.472l26.393-15.824z" fill="#0078D4"/><path fill-rule="evenodd" clip-rule="evenodd" d="M0 104.176L26.481 120l26.48-15.824-26.48-15.649L0 104.176z" fill="#0078D4"/><path d="M93.607 88.528V57.056L67.214 72.88v31.472l26.393-15.824z" fill="#50E6FF"/><path opacity=".4" d="M93.607 88.528V57.056L120 72.88v31.472L93.607 88.528z" fill="#0078D4"/><path fill-rule="evenodd" clip-rule="evenodd" d="M120 104.176L93.519 120l-26.48-15.824 26.48-15.649L120 104.176z" fill="#0078D4"/><path d="M60.531 30.753L33.255 46.489l26.911 14.928 27.276-15.736-26.91-14.928z" fill="#50E6FF"/><path opacity=".4" d="M60.531 30.752L33.255 46.49l.518-30.753L61.049 0l-.518 30.752z" fill="#0078D4"/><path fill-rule="evenodd" clip-rule="evenodd" d="M60.896.088l26.955 15.004-.474 30.829-26.802-15.093.321-30.74z" fill="#0078D4"/></svg>