<svg xmlns="http://www.w3.org/2000/svg" viewBox="0 0 18.34 12.697">
    <g data-name="Layer 2">
        <g data-name="Layer 1">
            <path d="M17.893 8.725a4.02 4.02 0 00-3.489-3.864A5.067 5.067 0 009.185.015a5.199 5.199 0 00-4.968 3.387A4.798 4.798 0 000 8.018a4.869 4.869 0 005.038 4.68c.15 0 .298-.008.444-.02h8.16a.808.808 0 00.214-.032 4.068 4.068 0 004.037-3.92z" fill="#2f76bc"/>
            <path d="M5.17 5.28l.208-.207a.778.778 0 011.1 0l4.035 4.035-.757.758a.778.778 0 01-1.1 0L5.17 6.381a.778.778 0 010-1.1z" fill="#75d0eb"/>
            <path d="M17.904.228l.208.207a.778.778 0 010 1.1L9.774 9.873a.778.778 0 01-1.1 0l-.757-.758L16.804.228a.778.778 0 011.1 0z" fill="#75d0eb"/>
        </g>
    </g>
</svg>
