<svg data-name="Layer 1" xmlns="http://www.w3.org/2000/svg" viewBox="0 0 49.8 49.9">
    <path d="M41.8 11.268a11.929 11.929 0 00-21.6-6.307 9.444 9.444 0 00-14.932 9.8A8.969 8.969 0 008.964 31.9h30.378A10.463 10.463 0 0041.8 11.268z" fill="#fff"/>
    <path d="M41.8 11.268a11.929 11.929 0 00-21.6-6.307 9.444 9.444 0 00-14.932 9.8A8.969 8.969 0 008.964 31.9h30.378A10.463 10.463 0 0041.8 11.268z" fill="#27a9e1" opacity=".6" style="isolation:isolate"/>
    <path d="M12.9 21.9a1 1 0 00-1 1v26a1 1 0 001 1h24a1 1 0 001-1v-26a1 1 0 00-1-1z" fill="#672a7a"/>
    <path fill="#fff" d="M22.9 21.9v-7h-3l5-7 5 7h-3v7h-4z"/>
    <path d="M32.9 24.9h-18v22h20v-22zm-12 20h-4v-18h4zm6 0h-4v-18h4zm6 0h-4v-18h4z" fill="#b92025" opacity=".3" style="isolation:isolate"/>
    <path d="M32.9 24.9h-18v22h20v-22zm-12 20h-4v-18h4zm6 0h-4v-18h4zm6 0h-4v-18h4z" fill="#fff" style="isolation:isolate"/>
</svg>
