<svg version="1.1" id="Layer_1" xmlns="http://www.w3.org/2000/svg" x="0" y="0" width="100%" height="100%" viewBox="-454 256 50 50" xml:space="preserve">
    <style>
        .st0{fill:#804998}
    </style>
    <path class="st0" d="M-431.1 271.9l-7.7 3v-12.4l7.7 2.7zm-14.6-7.3v8.1l5.7 2.2v-12.3l-5.7 2zm.6 7.5l-.3-.1v-6.7l.3-.1.3-.1.3-.1v7.3l-.3-.1-.3-.1zm1.5.4l-.4-.1v-7.5l.4-.1.4-.1.4-.1v8.2l-.4-.1-.4-.2zm1.8.6l-.5-.2v-8.5l.5-.1.5-.2.6-.2v9.5l-.6-.2-.5-.1zm28.6-1.2l-7.7 3v-12.4l7.7 2.7zm-14.6-7.3v8.1l5.7 2.2v-12.3l-5.7 2zm.6 7.5l-.3-.1v-6.7l.3-.1.3-.1.3-.1v7.3l-.3-.1-.3-.1zm1.5.4l-.4-.1v-7.5l.4-.1.4-.1.4-.1v8.2l-.4-.1-.4-.2zm1.8.6l-.5-.2v-8.5l.5-.1.5-.2.6-.2v9.5l-.6-.2-.5-.1zm-7.2 23.4l-7.7 3v-12.4l7.7 2.7zm-14.6-7.3v8.1l5.7 2.2v-12.3l-5.7 2zm.6 7.5l-.3-.1v-6.7l.3-.1.3-.1.3-.1v7.3l-.3-.1-.3-.1zm1.5.4l-.4-.1v-7.5l.4-.1.4-.1.4-.1v8.2l-.4-.1-.4-.2zm1.8.6l-.5-.2V289l.5-.1.5-.2.6-.2v9.5l-.6-.2-.5-.1zm28.6-1.2l-7.7 3v-12.4l7.7 2.7zm-14.6-7.3v8.1l5.7 2.2v-12.3l-5.7 2zm.6 7.5l-.3-.1v-6.7l.3-.1.3-.1.3-.1v7.3l-.3-.1-.3-.1zm1.5.4l-.4-.1v-7.5l.4-.1.4-.1.4-.1v8.2l-.4-.1-.4-.2zm1.8.6l-.5-.2V289l.5-.1.5-.2.6-.2v9.5l-.6-.2-.5-.1zm2.3-13.5l-7.6 2.9v-12.3l7.6 2.7zm-14.6-7.4v8.1l5.7 2.2v-12.3l-5.7 2zm.6 7.5l-.3-.1v-6.7l.3-.1.3-.1.3-.1v7.3l-.3-.1-.3-.1zm1.5.5l-.4-.1v-7.5l.4-.1.4-.1.4-.1v8.2l-.4-.1-.4-.2zm1.8.6l-.5-.2v-8.5l.5-.1.5-.2.6-.2v9.5l-.6-.2-.5-.1zm-7.1-1.2l-7.6 2.9v-12.3l7.6 2.7zm-14.6-7.4v8.1l5.7 2.2v-12.3l-5.7 2zm.6 7.5l-.3-.1v-6.7l.3-.1.3-.1.3-.1v7.3l-.3-.1-.3-.1zm1.5.5l-.4-.1v-7.5l.4-.1.4-.1.4-.1v8.2l-.4-.1-.4-.2zm1.8.6l-.5-.2v-8.5l.5-.1.5-.2.6-.2v9.5l-.6-.2-.5-.1zm46.1-1.2l-7.6 2.9v-12.3l7.6 2.7z"/>
    <path d="M-431.1 271.9l-7.7 3v-12.4l7.7 2.7zm17.9 0l-7.7 3v-12.4l7.7 2.7zm-17.9 24.6l-7.7 3v-12.4l7.7 2.7zm17.9 0l-7.7 3v-12.4l7.7 2.7zm-8.4-12.3l-7.6 2.9v-12.3l7.6 2.7zm-17.8 0l-7.6 2.9v-12.3l7.6 2.7zm35.4 0l-7.6 2.9v-12.3l7.6 2.7z" opacity=".2" fill="#fff"/>
    <path class="st0" d="M-418.6 276.8v8.1l5.7 2.2v-12.3l-5.7 2zm.6 7.5l-.3-.1v-6.7l.3-.1.3-.1.3-.1v7.3l-.3-.1-.3-.1zm1.5.5l-.4-.1v-7.5l.4-.1.4-.1.4-.1v8.2l-.4-.1-.4-.2zm1.8.6l-.5-.2v-8.5l.5-.1.5-.2.6-.2v9.5l-.6-.2-.5-.1z"/>
</svg>
