<svg width="100" height="100" xmlns="http://www.w3.org/2000/svg">
    <g fill="none" fill-rule="evenodd">
        <rect fill="#D9EAF8" x="2" y="2" width="96" height="96" rx="48"/>
        <path d="M85.981 34.926c1.102-3.046 1.218-7.131-1.547-8.82-1.248-.763-2.8-.824-4.15-1.385-2.71-1.128-4.159-4.001-5.732-6.48-1.571-2.478-4.022-4.986-6.931-4.601-4.163.551-5.883 6.511-10.036 7.136-4.08.614-6.737-4.17-10.456-5.958-3.23-1.553-7.498-.483-9.613 2.411-1.276 1.747-2.181 4.278-4.331 4.518-1.035.116-2.023-.386-2.981-.795-4.03-1.719-8.914-1.86-12.633.454-3.72 2.315-5.771 7.377-3.954 11.363 1.326 2.909 4.471 5.231 4.2 8.416-.267 3.126-3.678 4.934-5.127 7.716-1.182 2.266-.892 5.219.709 7.212.989 1.231 2.43 2.129 3.076 3.571 1.183 2.637.132 4.605-.557 7.412-1.284 5.235 2.863 11.115 8.225 11.664 1.609.165 2.4.842 3.873 1.512 2.716 1.237 3.434 4.932 5.937 6.559 1.915 1.244 4.714.875 6.24-.824 1.223-1.359 1.939-3.568 3.759-3.75 1.88-.187 2.99 1.945 4.106 3.469 2.757 3.764 8.615 4.781 12.48 2.166 2.518-1.705 4.178-4.652 7.019-5.736 3.152-1.202 7.006.213 9.901-1.52 3.419-2.048 3.338-6.986 5.326-10.441 1.911-3.323 5.85-5.373 6.936-9.049 1.368-4.632-2.11-8.913-3.518-13.071-1.408-4.159-1.702-9.056-.221-13.149" fill="#F9E558"/>
        <path d="M66.01 78.556c3.151-.406 6.02 2.15 10.584-1.502 3.024-2.42 1.133-5.654 2.601-8.08 1.958-3.234 5.761-5.347 6.732-9.001 1.567-5.897-5.184-11.264-4.612-17.34.334-3.556 3.143-6.503 3.05-10.217a5.06 5.06 0 00-.44-1.972c-1.366-2.983-4.287-2.42-6.694-3.165-2.372-.735-3.33-5.2-5.202-6.831-1.872-1.633-5.478-1.827-7.507.066-2.102 1.96-4.636 3.976-7.524 3.896-.977-.028-1.919-.405-2.708-.984-2.468-1.811-4.915-3.911-7.872-4.84-2.499-.782-5.48-.568-7.392 1.22-1.112 1.039-1.803 2.535-3.116 3.304-2.574 1.508-5.684-.527-8.61-1.107-3.312-.656-6.948.822-8.863 3.6-1.916 2.78-2.002 6.704-.21 9.565.706 1.128 1.67 2.09 2.278 3.275a6.474 6.474 0 01.043 5.746c-1.266 2.55-4.143 4.097-5.11 6.775-.892 2.462.484 5.346 2.701 6.627 1.873 1.083 3.831 3.61 3.675 5.768-.17 2.347-.698 3.405-1.826 5.478-.78 1.432-.17 4.26.913 5.478 1.58 1.775 6.048 1.649 9.891 4.167 1.592 1.044 2.458 3.109 4.261 3.72 2.905.989 5.492-2.43 8.545-2.742 1.987-.204 3.851.949 5.402 2.208 2.557 2.076 5.863 5.026 9.21 2.672 2.995-2.106 3.411-5.22 7.8-5.784" fill="#FEE6B5"/>
        <path d="M21.406 34.362v36.443a4.688 4.688 0 004.687 4.687h47.282a4.687 4.687 0 004.686-4.687V34.362H21.406z" fill="#C9C9C9"/>
        <path d="M78.061 30.591a4.687 4.687 0 00-4.687-4.687H26.092a4.686 4.686 0 00-4.686 4.687v3.771h56.655v-3.77z" fill="#F4F4F4"/>
        <path d="M28.067 30.198a2.083 2.083 0 01-4.164 0 2.082 2.082 0 014.164 0" fill="#D83A18"/>
        <path d="M34.312 30.198a2.082 2.082 0 11-4.165 0 2.082 2.082 0 014.165 0" fill="#FDB82C"/>
        <path d="M40.557 30.198a2.082 2.082 0 11-4.165 0 2.082 2.082 0 014.165 0" fill="#0DB01C"/>
        <path d="M71.09 32.28H46.11a2.082 2.082 0 010-4.163h24.98a2.082 2.082 0 010 4.164" fill="#CFCFCF"/>
        <path fill="#FFF" d="M24.597 71.833h50.656V37.138H24.597z"/>
        <path d="M17.092 48.815s2.993 0 5.178-5.26c0 0 .727 3.642 5.015 5.179 0 0-3.64 1.214-5.096 5.259 0 0-.567-4.288-5.097-5.178m-9.825-8.972s2.993 0 5.178-10.354c0 0 .728 7.168 5.016 10.195 0 0-3.64 2.389-5.097 10.354 0 0-.567-8.443-5.097-10.195m51.155-25.905s2.993 0 5.178-5.26c0 0 .728 3.642 5.015 5.179 0 0-3.64 1.214-5.096 5.259 0 0-.567-4.288-5.097-5.178m-2.183 66.418s4.71 0 8.147-8.274c0 0 1.147 5.728 7.894 8.147 0 0-5.728 1.91-8.02 8.275 0 0-.892-6.747-8.021-8.148" fill="#FFF"/>
        <path d="M61.007 13.917s1.476 0 2.552-2.593c0 0 .36 1.795 2.472 2.553 0 0-1.795.598-2.512 2.592 0 0-.28-2.114-2.512-2.552m-1.103 66.41s2.558 0 4.425-4.493c0 0 .622 3.11 4.286 4.424 0 0-3.111 1.037-4.356 4.493 0 0-.484-3.664-4.355-4.424M20.051 48.791s1.256 0 2.172-2.205c0 0 .305 1.526 2.102 2.171 0 0-1.526.51-2.136 2.205 0 0-.238-1.798-2.138-2.17" fill="#FFF"/>
        <text font-family="Gotham-Bold, Gotham" font-size="25" font-weight="bold" fill="#000" transform="translate(7 8.5)">
            <tspan x="20.349" y="57.249">$_</tspan>
        </text>
        <rect x="2" y="2" width="96" height="96" rx="48" stroke="#0078D4" stroke-width="4"/>
    </g>
</svg>
