<svg xmlns="http://www.w3.org/2000/svg" width="50" height="46">
    <path d="M41.3 20.6c2.1 8.9-3.3 17.8-12.2 19.9S11.4 37.3 9.2 28.4s3.3-17.8 12.2-19.9c8.8-2.2 17.7 3.2 19.9 12.1z" fill="#59b4d9"/>
    <path d="M22.9 31.1c0-2.4-2-4.4-4.4-4.4h-.7c.6-2.3-.9-4.7-3.2-5.3-.3-.1-.7-.1-1.1-.1H9.1c-1 5.1.5 10.3 4 14.1h5.5c2.4.1 4.3-1.8 4.3-4.3zM28.4 13c0 .3 0 .5.1.8h-1.9c-2.5 0-4.6 2-4.6 4.6s2 4.6 4.6 4.6h15.1c-.5-5.6-3.7-10.4-8.5-13h-1.8c-1.7 0-3 1.3-3 3zm13.3 13.2h-9c-2 0-3.7 1.6-3.7 3.7 0 .6.2 1.2.4 1.8-2 .6-3 2.7-2.4 4.6.5 1.6 1.9 2.6 3.6 2.6H33c4.8-2.5 8.1-7.3 8.7-12.7z" opacity=".5" fill="#fff"/>
    <path d="M6.8 13.5c-.3 0-.5-.2-.5-.5 0-3.2-2.6-5.8-5.8-5.8-.3.1-.5-.2-.5-.4s.2-.5.5-.5c3.2 0 5.8-2.6 5.8-5.8 0-.3.2-.5.5-.5s.5.2.5.5c0 3.2 2.6 5.8 5.8 5.8.3 0 .5.2.5.5s-.2.5-.5.5c-3.2 0-5.8 2.6-5.8 5.8 0 .2-.2.4-.5.4z" fill="#b8d432"/>
    <path d="M42.4 46c-.2 0-.3-.1-.3-.3 0-1.9-1.6-3.4-3.5-3.4-.2 0-.3-.1-.3-.3s.1-.3.3-.3c1.9 0 3.4-1.5 3.5-3.4 0-.2.1-.3.3-.3.2 0 .3.1.3.3 0 1.9 1.6 3.4 3.5 3.4.2 0 .3.1.3.3s-.1.3-.3.3c-1.9 0-3.4 1.5-3.5 3.4 0 .1-.1.3-.3.3z" fill="#26bcee"/>
    <path d="M49.3 9.7C47.7 7.1 43.8 6.5 37.8 8c-1.8.5-3.7 1-5.4 1.7 1.1.6 2.2 1.2 3.2 2 1-.3 2-.6 2.9-.9 1.6-.4 3.2-.6 4.8-.7 1.9 0 3 .5 3.4 1.1.6 1 0 3.5-3.4 7.5-.6.7-1.3 1.4-2 2.1-3.8 3.6-7.9 6.8-12.4 9.5-4.5 2.8-9.2 5.1-14.2 6.7-6 1.9-10.1 1.9-11 .4s.9-5.2 5.4-9.6c-.3-1.3-.4-2.6-.4-3.8-7.1 6.4-9.4 12-7.6 15 1 1.6 3.1 2.5 6.1 2.5 3.6-.2 7.2-.9 10.6-2.3 4.4-1.7 8.6-3.8 12.5-6.3 4-2.4 7.8-5.2 11.3-8.4 1.4-1.2 2.7-2.5 3.9-3.9 4.1-4.6 5.4-8.4 3.8-10.9z" fill="#0f0f0f"/>
</svg>
