<svg xmlns="http://www.w3.org/2000/svg" viewBox="0 0 24 24">
    <path d="M21.216 9.441h-.336a6.691 6.691 0 00.24-1.965 7.384 7.384 0 00-14.4-2.4 4.71 4.71 0 00-1.633-.287A5.1 5.1 0 000 9.92 5.042 5.042 0 005 15v-2.35c0-2.314 3.888-3.369 7.5-3.369s7.5 1.051 7.5 3.365V15h1.408a2.783 2.783 0 00-.192-5.559z" fill="#0072c6"/>
    <path d="M6 12.646v8.986c0 1.3 2.863 2.348 6.411 2.365h.089c3.59 0 6.5-1.061 6.5-2.367v-8.983H6z" fill="#59b4d9"/>
    <path d="M12.5 12.646V24c3.59 0 6.5-1.061 6.5-2.367v-8.986h-6.5z" fill="#3999c6"/>
    <path d="M19 12.646c0 1.307-2.91 2.367-6.5 2.367S6 13.953 6 12.646s2.91-2.369 6.5-2.369 6.5 1.061 6.5 2.369" fill="#b8d432"/>
    <path d="M2 11.584a5.413 5.413 0 017.976-4.773 7.473 7.473 0 0110.336-2.76A7.374 7.374 0 006.721 5.08a4.71 4.71 0 00-1.633-.287 5.107 5.107 0 00-2.245 9.684A5.388 5.388 0 012 11.584z" fill="#ecf0f1" opacity=".19"/>
    <path fill="#fff" d="M12.5 3l-4 4H11v6h3V7h2.5l-4-4z"/>
</svg>
