<svg id="Layer_1" data-name="Layer 1" xmlns="http://www.w3.org/2000/svg" viewBox="0 0 64 64">
    <defs>
        <style>
            .cls-5{fill:#1e1e1e}.cls-6{fill:#b8d432}
        </style>
    </defs>
    <path id="svg_1" data-name="svg 1" d="M47.89 7.66C33.81 6.09 31.45 0 31.45 0S28.28 8 8 8v32.78c0 4 2.2 7.67 5.25 10.92 6.91 7.35 18.2 12.3 18.2 12.3S54.9 53.73 54.9 40.78V8a63.59 63.59 0 01-7-.36z" fill="#7fba00"/>
    <path id="svg_2" data-name="svg 2" d="M37.25 21.2L47.91 7.66C33.81 6.09 31.45 0 31.45 0S28.28 8 8 8v32.78c0 4 2.2 7.67 5.25 10.92l7.87-10z" fill="#96c514"/>
    <path id="svg_3" data-name="svg 3" d="M40.94 47.3a1.69 1.69 0 01-1.67 1.7H22.7a1.69 1.69 0 01-1.7-1.67V16.7a1.69 1.69 0 011.67-1.7h16.57a1.69 1.69 0 011.7 1.67z" fill="#3e3e3e"/>
    <path id="canvas_background" data-name="canvas background" fill="none" d="M8 0l46.9-3.07v63.95L8 63.95V0z"/>
    <path id="svg_4" data-name="svg 4" class="cls-5" d="M23.88 33.4A2.17 2.17 0 0126 31.2h10.1a2.17 2.17 0 012.2 2.15v.06a2.17 2.17 0 01-2.15 2.2H26.09a2.22 2.22 0 01-2.21-2.2z"/>
    <path id="svg_6" data-name="svg 6" class="cls-5" d="M23.88 26.86A2.17 2.17 0 0126 24.67h10.14a2.17 2.17 0 012.2 2.15v.06a2.17 2.17 0 01-2.15 2.2h-10.1a2.21 2.21 0 01-2.21-2.2z"/>
    <path id="svg_8" data-name="svg 8" class="cls-5" d="M23.88 20.38a2.17 2.17 0 012.12-2.2h10.1a2.17 2.17 0 012.2 2.15v.06a2.17 2.17 0 01-2.15 2.2H26.09a2.26 2.26 0 01-2.21-2.2z"/>
    <circle id="svg_5" data-name="svg 5" class="cls-6" cx="26.23" cy="33.4" r="1.45"/>
    <circle id="svg_7" data-name="svg 7" class="cls-6" cx="26.23" cy="26.86" r="1.45"/>
    <circle id="svg_9" data-name="svg 9" class="cls-6" cx="26.23" cy="20.38" r="1.45"/>
    <path id="svg_10" data-name="svg 10" fill="#515151" d="M21.13 41.69l20.05-25.16"/>
    <path id="svg_11" data-name="svg 11" d="M21.13 41.7l16-20.36L41 16.42A1.69 1.69 0 0039.32 15H22.71A1.7 1.7 0 0021 16.68v25.19z" fill="#fff" opacity=".1"/>
</svg>
