<svg data-name="Layer 1" xmlns="http://www.w3.org/2000/svg" viewBox="0 0 24 24">
    <path d="M24 18.5C24 21 18.63 23 12 23S0 21 0 18.5v-3h24z" fill="#4a9f49"/>
    <ellipse cx="12" cy="15.5" rx="12" ry="4.5" fill="#adc80b"/>
    <path d="M10.37 11a25.17 25.17 0 00-5.91 1l5.47 2.54a6.57 6.57 0 011.61-.27zm9.16 8l-5.47-2.54a6.57 6.57 0 01-1.61.27L13.63 20a25.13 25.13 0 005.9-1z" fill="#cbe238"/>
    <ellipse cx="12" cy="15.5" rx="3.25" ry="1.25" fill="#087e06"/>
    <path d="M24 8.5C24 11 18.63 13 12 13S0 11 0 8.5v-3h24z" fill="#0879da"/>
    <ellipse cx="12" cy="5.5" rx="12" ry="4.5" fill="#11bdf5"/>
    <path d="M10.37 1a25.17 25.17 0 00-5.9 1l5.47 2.54a6.57 6.57 0 011.61-.27zm9.16 8l-5.47-2.54a6.57 6.57 0 01-1.61.27L13.63 10a25.13 25.13 0 005.9-1z" fill="#39cef7"/>
    <ellipse cx="12" cy="5.5" rx="3.25" ry="1.25" fill="#035293"/>
</svg>
