<svg xmlns="http://www.w3.org/2000/svg" viewBox="-163 237 32 32"><path fill="#B8D432" d="M-144 251.5c0 .3-.2.5-.5.5h-3.9c-.3 0-.5-.2-.5-.5v-2.9c0-.3.2-.5.5-.5h3.9c.3 0 .5.2.5.5v2.9zM-137 254.5c0 .3-.2.5-.5.5h-3.9c-.3 0-.5-.2-.5-.5v-2.9c0-.3.2-.5.5-.5h3.9c.3 0 .5.2.5.5v2.9zM-144 257.5c0 .3-.2.5-.5.5h-3.9c-.3 0-.5-.2-.5-.5v-2.9c0-.3.2-.5.5-.5h3.9c.3 0 .5.2.5.5v2.9zM-151 248.5c0 .3-.2.5-.5.5h-4c-.3 0-.5-.2-.5-.5v-3c0-.3.2-.5.5-.5h3.9c.4 0 .6.2.6.5v3z"/><path fill="#0072C6" d="M-133.5 238h-28c-.3 0-.5.2-.5.5v6c0 .3.2.5.5.5h3c.3 0 .5-.2.5-.5V242h21v2.5c0 .3.2.5.6.5h2.9c.3 0 .5-.2.5-.5v-6c0-.3-.2-.5-.5-.5zM-133.5 261.1h-2.9c-.3 0-.5.2-.5.5v2.4H-158v-2.5c0-.3-.2-.5-.6-.5h-2.9c-.3 0-.5.2-.5.6v5.9c0 .3.2.5.5.5H-133.5c.3 0 .5-.2.5-.5v-5.9c0-.3-.2-.5-.5-.5z"/><path fill="#B8D432" d="M-151 254.5c0 .3-.2.5-.5.5h-4c-.3 0-.5-.2-.5-.5v-3c0-.3.2-.5.5-.5h3.9c.4 0 .6.2.6.5v3zM-151 260.5c0 .3-.2.5-.5.5h-4c-.3 0-.5-.2-.5-.5v-3c0-.3.2-.5.5-.5h3.9c.4 0 .6.2.6.5v3z"/></svg>