<svg data-name="fluent_icons" xmlns="http://www.w3.org/2000/svg" viewBox="0 0 18 18"><defs><radialGradient id="a" cx="-24.22" cy="-200.44" r="6.22" gradientTransform="matrix(1.01 0 0 1.14 33.54 238.32)" gradientUnits="userSpaceOnUse"><stop offset=".2" stop-color="#ffd70f"/><stop offset=".44" stop-color="#ffcb12"/><stop offset=".87" stop-color="#feac19"/><stop offset="1" stop-color="#fea11b"/></radialGradient></defs><path d="M8.38 10H5.19A.19.19 0 015 9.81a.29.29 0 010-.09L8.86.12A.18.18 0 019 0h3.8a.19.19 0 01.2.2.24.24 0 010 .12L8.45 7.83h4.38A.2.2 0 0113 8a.18.18 0 010 .13l-7.32 9.66c-.06.05-.55.56-.31-.22z" fill="url(#a)"/><path d="M5.512 13.142l-.593.595a.27.27 0 01-.382 0L.154 9.368a.54.54 0 010-.764l.592-.595 4.766 4.752a.27.27 0 010 .382z" fill="#50e6ff"/><path d="M4.84 4.27l.595.594a.27.27 0 01.001.382L.754 9.94.16 9.347a.54.54 0 01-.009-.77l4.3-4.313a.27.27 0 01.383 0z" fill="#1490df"/><path d="M17.256 8.005l.593.594a.54.54 0 01-.001.764l-4.383 4.37a.27.27 0 01-.382 0l-.593-.594a.27.27 0 010-.382l4.766-4.752z" fill="#50e6ff"/><path d="M17.839 9.347l-.602.6-4.682-4.695a.27.27 0 010-.381l.595-.594a.27.27 0 01.382.001l4.3 4.312a.54.54 0 010 .764z" fill="#1490df"/></svg>