<svg xmlns="http://www.w3.org/2000/svg" viewBox="0 0 64 64"><defs><style>.cls-3{fill:#fff}.cls-4{stroke:#356ac2;stroke-miterlimit:10}.cls-2{fill:#356ac2}.cls-4{fill:none}</style></defs><g id="Layer_5" data-name="Layer 5"><path d="M50.86 60.4L7 7s-1-6 6.43-6H60v59l-6.16 3.12" stroke-width="2" stroke="#356ac2" stroke-miterlimit="10" fill="#fff"/><path class="cls-2" d="M6 6h49v58H6z"/><ellipse class="cls-3" cx="6.5" cy="11.5" rx="2.5" ry="1.5"/><ellipse class="cls-3" cx="6.5" cy="19.5" rx="2.5" ry="1.5"/><ellipse class="cls-3" cx="6.5" cy="27.5" rx="2.5" ry="1.5"/><ellipse class="cls-3" cx="6.5" cy="35.5" rx="2.5" ry="1.5"/><ellipse class="cls-3" cx="6.5" cy="43.5" rx="2.5" ry="1.5"/><ellipse class="cls-3" cx="6.5" cy="51.5" rx="2.5" ry="1.5"/><ellipse class="cls-3" cx="6.5" cy="59.5" rx="2.5" ry="1.5"/><path class="cls-4" d="M7 59.5H4.5A1.5 1.5 0 0 1 3 58a1.5 1.5 0 0 1 1.5-1.5H7M7 51.5H4.5A1.5 1.5 0 0 1 3 50a1.5 1.5 0 0 1 1.5-1.5H7M7 43.5H4.5A1.5 1.5 0 0 1 3 42a1.5 1.5 0 0 1 1.5-1.5H7M7 35.5H4.5A1.5 1.5 0 0 1 3 34a1.5 1.5 0 0 1 1.5-1.5H7M7 27.5H4.5A1.5 1.5 0 0 1 3 26a1.5 1.5 0 0 1 1.5-1.5H7M7 19.5H4.5A1.5 1.5 0 0 1 3 18a1.5 1.5 0 0 1 1.5-1.5H7M7 11.5H4.5A1.5 1.5 0 0 1 3 10a1.5 1.5 0 0 1 1.5-1.5H7"/><path class="cls-3" d="M17 27v17.12l14.5 8.37L46 44.12V27l-14.5 8.49L17 27z"/><path class="cls-3" d="M17.22 24.24l14.28 8.25 14.28-8.25L31.5 17l-14.28 7.24z"/><path class="cls-2" d="M30.5 34h2v20h-2z"/></g></svg>