<svg id="Titles" xmlns="http://www.w3.org/2000/svg" viewBox="0 0 64 64">
    <defs>
        <style>
            .cls-2{fill:#2bc7f4}
        </style>
    </defs>
    <path d="M52 60a3 3 0 01-3 3H17a3 3 0 01-3-3V4a3 3 0 013-3h32a3 3 0 013 3z" fill="#fff" stroke="#556a8a" stroke-miterlimit="10" stroke-width="2"/>
    <rect class="cls-2" x="23" y="4" width="20" height="2" rx="1" ry="1"/>
    <circle class="cls-2" cx="32" cy="59" r="2"/>
    <path fill="#e5e5e5" d="M15 7h36v49H15z"/>
    <path d="M19 22.95v.27l14 8.21 14-8.21v-.27l-14-8.21-14 8.21zm13 10.22l-13-7.63v13.83L32 47V33.17z" fill="#55d2f6"/>
    <path class="cls-2" d="M34 33.17V47l13-7.63V25.54l-13 7.63z"/>
</svg>
