<svg id="ICONS-64x" xmlns="http://www.w3.org/2000/svg" viewBox="0 0 64 64"><defs><style>.cls-2{fill:#fff}</style></defs><path d="M54 36h-5V15l3-4-3-10h-4l-3 10 3 4v21h-5v6h3c0 2-2 4-3 4.08V58.5c0 3.3 2 5.5 4 5.5h6c2 0 4-2.7 4-6V46c-1 0-3-2-3-4h3z" fill="#2bc7f4"/><path class="cls-2" d="M44 45h2v17h-2zM48 45h2v17h-2z"/><path d="M34 13a12 12 0 0 0-7-10.91V10l-5 4-5-4V2.09a12 12 0 0 0 0 21.81V59a4 4 0 0 0 4 4h1a4 4 0 0 0 4-4V24.3A12 12 0 0 0 34 13z" stroke="#556a8a" stroke-miterlimit="10" stroke-width="2" fill="#fff"/><path fill="#e5e5e5" d="M18 53h7v5h-7z"/></svg>