<svg xmlns="http://www.w3.org/2000/svg" viewBox="0 0 50.249 56.9"><path d="M25.134 54.202a1.003 1.003 0 0 1-.5-.134L3.2 41.692a1 1 0 0 1-.5-.866V16.075a1 1 0 0 1 .5-.866L24.634 2.833a1 1 0 0 1 1 0L47.07 15.209a1 1 0 0 1 .5.866v24.751a1 1 0 0 1-.5.866L25.634 54.068a1.003 1.003 0 0 1-.5.134zM4.7 40.25l20.435 11.799 20.435-11.8V16.652L25.134 4.854 4.7 16.652z" fill="#2074bb"/><circle cx="25.134" cy="3.699" r="3.699" fill="#2074bb"/><circle cx="3.699" cy="16.073" r="3.699" fill="#2074bb"/><circle cx="46.551" cy="16.073" r="3.699" fill="#2074bb"/><circle cx="46.551" cy="40.826" r="3.699" fill="#2074bb"/><circle cx="3.699" cy="40.826" r="3.699" fill="#2074bb"/><circle cx="25.14" cy="53.202" r="3.699" fill="#2074bb"/><circle cx="25.125" cy="28.451" r="12.712" fill="#fff"/><path d="M25.124 42.162a13.712 13.712 0 1 1 13.712-13.711 13.728 13.728 0 0 1-13.712 13.711zm0-25.424a11.712 11.712 0 1 0 11.712 11.713 11.726 11.726 0 0 0-11.712-11.713z" fill="#2074bb"/><path d="M14.21 22.934a.995.995 0 0 1-.486-.126L3.21 16.948a1 1 0 0 1 .975-1.747l10.513 5.86a1 1 0 0 1-.489 1.873zm10.924-6.196a1 1 0 0 1-1-1V3.7a1 1 0 0 1 2 0v12.04a1 1 0 0 1-1 1zm11.126 6.025a1 1 0 0 1-.484-1.876l10.31-5.688a1 1 0 1 1 .967 1.751l-10.31 5.688a.997.997 0 0 1-.483.125zm10.309 19.063a.992.992 0 0 1-.543-.16L35.89 35.092a1 1 0 0 1 1.088-1.678l10.136 6.572a1 1 0 0 1-.545 1.84zM25.134 54.202a1 1 0 0 1-1-1v-11.69a1 1 0 0 1 2 0v11.69a1 1 0 0 1-1 1zM3.7 41.826a1 1 0 0 1-.566-1.825l9.984-6.835a1 1 0 1 1 1.129 1.65l-9.984 6.835a.993.993 0 0 1-.563.175zM25.124 29.45a1 1 0 0 1 0-2h8.693a1 1 0 0 1 0 2z" fill="#2074bb"/><circle cx="25.109" cy="28.451" r="1.486" fill="#2074bb"/><path d="M16.677 28.935a8.472 8.472 0 0 0 2.463 5.245l2.288-2.288a5.373 5.373 0 0 1-1.595-2.957z" fill="#c0dcef"/><path d="M24.64 19.68a8.47 8.47 0 0 0-5.523 2.478l2.113 2.113a5.365 5.365 0 0 1 3.41-1.641z" fill="#69abdb"/><path d="M31.163 22.158a8.47 8.47 0 0 0-5.523-2.478v2.95a5.365 5.365 0 0 1 3.41 1.641z" fill="#3b8fcd"/><path d="M18.457 22.913a8.453 8.453 0 0 0-1.808 5.022h3.093a5.365 5.365 0 0 1 .864-2.874z" fill="#9bc7e6"/><path d="M33.43 26.325a8.45 8.45 0 0 0-1.607-3.412l-2.149 2.148a5.426 5.426 0 0 1 .596 1.264z" fill="#2074bb"/></svg>