<svg data-name="fluent_icons" xmlns="http://www.w3.org/2000/svg" xmlns:xlink="http://www.w3.org/1999/xlink" viewBox="0 0 18 18"><defs><linearGradient id="a" x1="2986.79" y1="-5195.55" x2="2986.77" y2="-5187.71" gradientTransform="matrix(.5 0 0 -.5 -1475.35 -2591.4)" gradientUnits="userSpaceOnUse"><stop offset="0" stop-color="#198ab3"/><stop offset="0" stop-color="#198ab3"/><stop offset=".11" stop-color="#22a5cb"/><stop offset=".23" stop-color="#29bade"/><stop offset=".37" stop-color="#2ec9eb"/><stop offset=".53" stop-color="#31d1f3"/><stop offset=".78" stop-color="#32d4f5"/></linearGradient><linearGradient id="b" x1="2979.22" y1="-5184.29" x2="2979.2" y2="-5177.67" xlink:href="#a"/><linearGradient id="c" x1="2970.39" y1="-5195.8" x2="2970.38" y2="-5190.47" xlink:href="#a"/><linearGradient id="d" x1="2981.18" y1="-5203.88" x2="2981.16" y2="-5198.55" xlink:href="#a"/><linearGradient id="e" x1="2993.44" y1="-5206.42" x2="2993.43" y2="-5200.23" xlink:href="#a"/></defs><circle data-name="Ellipse 7" cx="11.4" cy="8.44" r="1.97" fill="#fff"/><circle data-name="Ellipse 8" cx="14.7" cy="14.3" r="1.55" fill="#fff"/><circle data-name="Ellipse 9" cx="8.57" cy="13.24" r="1.33" fill="#fff"/><circle data-name="Ellipse 6" cx="7.61" cy="3.11" r="1.65" fill="#fff"/><circle data-name="Ellipse 10" cx="3.19" cy="9.19" r="1.33" fill="#fff"/><path fill="#949494" d="M15.06 13.99l-3.33-5.83-.33.19.27-.2L7.9 2.79l-.69.5 3.34 4.75-7.4.61.07.86 7.33-.61-2.43 4.04.73.44 2.5-4.16 2.97 5.19.74-.42z"/><circle cx="11.39" cy="8.45" r="1.96" fill="url(#a)"/><circle cx="7.62" cy="3.12" r="1.66" fill="url(#b)"/><circle cx="3.19" cy="9.18" r="1.33" fill="url(#c)"/><circle cx="8.57" cy="13.24" r="1.33" fill="url(#d)"/><path d="M17.53 1.23A.73.73 0 0016.8.5H13a.36.36 0 00-.36.36v1.41a.36.36 0 00.36.36h2.35v2.3a.38.38 0 00.37.37h1.4a.38.38 0 00.37-.37v-3.7zM5 15.37H2.61v-2.3a.38.38 0 00-.37-.37H.84a.38.38 0 00-.37.37v3.7a.73.73 0 00.73.72H5a.36.36 0 00.36-.36v-1.4a.36.36 0 00-.36-.36z" fill="#949494"/><circle cx="14.7" cy="14.31" r="1.55" fill="url(#e)"/></svg>