<svg id="Layer_1" data-name="Layer 1" xmlns="http://www.w3.org/2000/svg" viewBox="0 0 64 64">
    <defs>
        <style>
            .cls-2{fill:#fff}.cls-3{fill:none;stroke:#fff;stroke-miterlimit:10}
        </style>
    </defs>
    <g id="paths">
        <path d="M48 4H16.46L.75 31.5 16.46 59H48l15.75-27.5z" fill="#0078d7" id="Storage_blob" data-name="Storage blob"/>
    </g>
    <path class="cls-2" d="M52 22H10.64a.7.7 0 00-.64.67v17.5c0 .33.32.83.64.83H52l7-9zm-.49 18H11V23h40.48l6.28 9z"/>
    <path class="cls-2" d="M28.88 25H15.12A2.07 2.07 0 0013 27v8a2.07 2.07 0 002.12 2h13.76A2.07 2.07 0 0031 35v-8a2.07 2.07 0 00-2.12-2zM30 35a1.08 1.08 0 01-1.12 1H15.12A1.08 1.08 0 0114 35v-8a1.08 1.08 0 011.12-1h13.76A1.08 1.08 0 0130 27z"/>
    <path class="cls-3" d="M14 26l8 5 8-5"/>
    <path class="cls-2" d="M48.88 25H35.12A2.07 2.07 0 0033 27v8a2.07 2.07 0 002.12 2h13.76A2.07 2.07 0 0051 35v-8a2.07 2.07 0 00-2.12-2zM50 35a1.08 1.08 0 01-1.12 1H35.12A1.08 1.08 0 0134 35v-8a1.08 1.08 0 011.12-1h13.76A1.08 1.08 0 0150 27z"/>
    <path class="cls-3" d="M34 26l8 5 8-5"/>
</svg>
