<svg id="Layer_1" data-name="Layer 1" xmlns="http://www.w3.org/2000/svg" viewBox="0 0 64 64">
    <defs>
        <style>
            .cls-2{fill:#fff}
        </style>
    </defs>
    <path d="M0 31.46a1.63 1.63 0 00.06-.27c.05-.93.06-1.87.16-2.8A16 16 0 013.12 20a8.43 8.43 0 015.78-3.36 7.91 7.91 0 011-.06h21.58c.42 0 .42 0 .42-.42v-1.5c0-.31-.09-.38-.38-.38H16.83c-.25 0-.34-.07-.34-.33V6.62a4.28 4.28 0 011.24-2.82 8.91 8.91 0 013.61-2.33 22.22 22.22 0 015.2-1.19 43.78 43.78 0 017.31-.22 23.83 23.83 0 017.7 1.43 9.46 9.46 0 014.32 3 6.05 6.05 0 011.26 4.1c-.06 1.24 0 2.49 0 3.74v6.92c0 1.36 0 2.73-.06 4.08a7.23 7.23 0 01-4.69 6.72 10.72 10.72 0 01-4.19.8H22.91a8.72 8.72 0 00-4.6 1.21A8 8 0 0014.78 37a11.55 11.55 0 00-.43 3.17v6.93c0 .46 0 .45-.46.46-1.66 0-3.32.05-5 0a7 7 0 01-4.43-1.82A11 11 0 011.4 41a20.2 20.2 0 01-1.13-5.13c-.1-1.12-.14-2.24-.21-3.35a3.3 3.3 0 00-.06-.37v-.69z" fill="#3772a4"/>
    <path d="M20.27 7.65a2.81 2.81 0 102.81-2.83 2.83 2.83 0 00-2.81 2.83z"/>
    <path class="cls-2" d="M20.27 7.65a2.81 2.81 0 115.63 0 2.81 2.81 0 11-5.63 0z"/>
    <path d="M64 32.54a1.63 1.63 0 00-.06.27c-.05.93-.06 1.87-.16 2.8a16 16 0 01-2.9 8.39 8.43 8.43 0 01-5.78 3.37 7.91 7.91 0 01-1 .06H32.52c-.42 0-.42 0-.42.42v1.5c0 .31.09.38.38.38h14.69c.25 0 .34.07.34.33v7.33a4.28 4.28 0 01-1.24 2.82 8.91 8.91 0 01-3.61 2.33 22.22 22.22 0 01-5.19 1.19 43.78 43.78 0 01-7.31.22 23.83 23.83 0 01-7.7-1.43 9.46 9.46 0 01-4.32-3 6.05 6.05 0 01-1.26-4.1c.06-1.24 0-2.49 0-3.74v-6.92c0-1.36 0-2.73.06-4.08a7.23 7.23 0 014.69-6.72 10.72 10.72 0 014.19-.8h15.27a8.72 8.72 0 004.6-1.21A8 8 0 0049.22 27a11.55 11.55 0 00.43-3.17V16.9c0-.46 0-.45.46-.46 1.66 0 3.32-.05 5 0a7 7 0 014.43 1.82A11 11 0 0162.6 23a20.2 20.2 0 011.12 5.15c.1 1.12.14 2.24.21 3.35a3.3 3.3 0 00.06.36q.01.33.01.68z" fill="#ffda4b"/>
    <path d="M43.73 56a2.81 2.81 0 10-2.81 2.83A2.83 2.83 0 0043.73 56z"/>
    <path class="cls-2" d="M43.73 56a2.81 2.81 0 11-5.63 0 2.81 2.81 0 115.63 0z"/>
</svg>
