<svg id="Layer_1" data-name="Layer 1" xmlns="http://www.w3.org/2000/svg" viewBox="0 0 64 64">
    <defs>
        <style>
            .cls-2{fill:#fff}
        </style>
    </defs>
    <g id="paths">
        <path d="M48 4H16.46L.75 31.5 16.46 59H48l15.75-27.5z" fill="#0078d7" id="Storage_blob" data-name="Storage blob"/>
    </g>
    <path class="cls-2" d="M25 30h14v2H25zm0 5h14v2H25zm0 5h14v2H25z"/>
    <path class="cls-2" d="M41.4 16H20.29A4.36 4.36 0 0016 20.27v24.46A4.36 4.36 0 0020.29 49h23.42A4.36 4.36 0 0048 44.73V22.57zM46 45a2 2 0 01-2 2H20a1.94 1.94 0 01-2-2V20a1.94 1.94 0 012-2h21v6h5z"/>
</svg>
