<svg data-name="Layer 1" xmlns="http://www.w3.org/2000/svg" viewBox="0 0 64 64">
    <defs>
        <radialGradient id="a" cx="-3.32" cy="19.61" r="51.21" gradientTransform="matrix(.82 0 0 .82 21.94 -8.18)" gradientUnits="userSpaceOnUse">
            <stop offset="0" stop-color="#fff"/>
            <stop offset=".5" stop-color="#4c6b97"/>
            <stop offset="1" stop-color="#231f20"/>
        </radialGradient>
    </defs>
    <ellipse cx="32" cy="18.83" rx="32" ry="16.83" fill="url(#a)"/>
    <ellipse cx="32" cy="18.83" rx="30.75" ry="15.58" fill="#6181b6"/>
    <path d="M38.23 23.87L39.75 16c.34-1.77.06-3.09-.85-3.93s-2.37-1.2-4.57-1.2H31.7L32.45 7a.5.5 0 00-.49-.6h-3.65a.5.5 0 00-.49.4l-1.62 8.34a4.69 4.69 0 00-1.09-2.41 6.36 6.36 0 00-5-1.84H13a.5.5 0 00-.49.4L9.25 28.16a.5.5 0 00.49.6h3.67a.5.5 0 00.49-.4l.79-4.08h2.74a11.81 11.81 0 003.57-.47 7 7 0 002.63-1.57 8.09 8.09 0 001.55-1.93l-.66 3.37a.5.5 0 00.49.6h3.65a.5.5 0 00.49-.4L31 14.61h2.5c1.07 0 1.38.21 1.46.3s.24.38.06 1.3l-1.45 7.46a.5.5 0 00.49.6h3.7a.5.5 0 00.47-.4zm-16.9-6.49a4 4 0 01-1.33 2.5 5 5 0 01-3 .73h-1.59l1.18-6.06h2.11c1.55 0 2.17.33 2.42.61a2.7 2.7 0 01.21 2.22zm32.49-4.64a6.36 6.36 0 00-5-1.84h-7.09a.5.5 0 00-.49.4L38 28.16a.5.5 0 00.49.6h3.67a.5.5 0 00.49-.4l.79-4.08h2.74a11.81 11.81 0 003.58-.46 7 7 0 002.63-1.57 7.83 7.83 0 002.46-4.4 5.74 5.74 0 00-1.03-5.11zM50 17.38a4 4 0 01-1.28 2.5 5 5 0 01-3 .73h-1.63l1.18-6.06h2.11c1.55 0 2.17.33 2.42.61a2.7 2.7 0 01.2 2.22z" fill="#fff"/>
    <path d="M18.69 14.05a3.76 3.76 0 012.79.77 3.06 3.06 0 01.33 2.65 4.45 4.45 0 01-1.47 2.8 5.4 5.4 0 01-3.31.84H14.8l1.37-7.06zm-9 14.21h3.67l.87-4.48h3.15a11.27 11.27 0 003.43-.44 6.49 6.49 0 002.45-1.47 7.33 7.33 0 002.31-4.13 5.25 5.25 0 00-.88-4.67q-1.46-1.67-4.65-1.67H13zM28.31 6.91H32l-.87 4.48h3.25q3.07 0 4.23 1.07t.7 3.46l-1.53 7.85H34l1.45-7.46a2 2 0 00-.18-1.74 2.56 2.56 0 00-1.83-.46h-2.88l-1.88 9.66H25zm19.07 7.14a3.76 3.76 0 012.79.77 3.06 3.06 0 01.33 2.65 4.45 4.45 0 01-1.5 2.81 5.4 5.4 0 01-3.31.84h-2.2l1.37-7.06zm-9 14.21h3.72l.9-4.49h3.15a11.27 11.27 0 003.43-.44A6.49 6.49 0 0052 21.87a7.33 7.33 0 002.31-4.13 5.25 5.25 0 00-.88-4.67q-1.43-1.68-4.66-1.68H41.7z" fill="#000004"/>
</svg>
