<svg id="Layer_1" data-name="Layer 1" xmlns="http://www.w3.org/2000/svg" viewBox="0 0 64 64">
    <defs>
        <style>
            .cls-2{fill:#fff}
        </style>
    </defs>
    <g id="paths">
        <path fill="#0078d7" d="M48.04 4H16.46L.75 31.5 16.46 59h31.58l15.71-27.5L48.04 4z" id="Storage_blob" data-name="Storage blob"/>
    </g>
    <path class="cls-2" d="M30.68 39.35c0 3.1-1.15 4.8-3.17 4.8-1.78 0-3-1.67-3-4.68s1.32-4.73 3.17-4.73 3 1.71 3 4.61zm-4.94.14c0 2.37.73 3.71 1.85 3.71s1.86-1.47 1.86-3.8-.57-3.71-1.85-3.71c-1.08 0-1.86 1.31-1.86 3.8zm13.13-13.83c0 3.1-1.15 4.8-3.17 4.8-1.78 0-3-1.67-3-4.68s1.32-4.73 3.17-4.73 3 1.71 3 4.61zm-4.94.14c0 2.37.73 3.71 1.85 3.71s1.86-1.47 1.86-3.8S37.06 22 35.79 22c-1.08 0-1.87 1.32-1.87 3.8zm-2.59 4.68h-6v-1.19h2.46v-7l-2.29 1.25-.51-1.07 3-1.6h1.2v8.43h2.14zm7.59 13.11h-6v-1.18h2.46v-7l-2.29 1.25-.47-1.08 3-1.6h1.13v8.43h2.14z"/>
    <path class="cls-2" d="M41.4 16H20.29A4.36 4.36 0 0016 20.27v24.46A4.36 4.36 0 0020.29 49h23.42A4.36 4.36 0 0048 44.73V22.57zM46 45a2 2 0 01-2 2H20a1.94 1.94 0 01-2-2V20a1.94 1.94 0 012-2h21v6h5z"/>
</svg>
