<svg xmlns="http://www.w3.org/2000/svg" viewBox="0 0 50 50"><path fill-rule="evenodd" clip-rule="evenodd" fill="#59B4D9" d="M6.5 21h3.2v3.2H6.5zM6.5 25.8h3.2V29H6.5zM6.5 19.4h3.2v-2.9c-1.2.6-2.2 1.3-3.2 2.1v.8zM11.3 35.5h3.2v3.2h-3.2zM11.3 40.3h3.2v3.2h-3.2zM11.3 45.2h3.2v3.2h-3.2zM11.3 30.7h3.2v3.2h-3.2zM1.6 25.8h3.2V29H1.6zM6.5 40.3h3.2v3.2H6.5zM1.6 35.5h3.2v3.2H1.6zM1.6 30.7h3.2v3.2H1.6zM6.5 45.9c1 .8 2.1 1.5 3.2 2.1v-2.9H6.5v.8zM2 24.2h2.9V21h-.8c-.9 1-1.6 2-2.1 3.2zM6.5 35.5h3.2v3.2H6.5zM30.6 43.5h.8c.8-1 1.5-2.1 2.1-3.2h-2.9v3.2zM11.3 25.8h3.2V29h-3.2zM25.8 40.3H29v3.2h-3.2z"/><path fill="#7FBA00" d="M33.1 0c-9.3 0-16.9 7.6-16.9 16.9v16.9h16.9c9.3 0 16.9-7.6 16.9-16.9C50 7.6 42.4 0 33.1 0z"/><path fill="#68217A" d="M24.2 14.5h3.2v9.7h-3.2zM30.6 17.7h3.2v6.5h-3.2zM37.1 11.3h3.2v12.9h-3.2z"/><path fill-rule="evenodd" clip-rule="evenodd" fill="#59B4D9" d="M25.8 48c1.2-.6 2.2-1.3 3.2-2.1v-.8h-3.2V48zM30.6 35.5h3.2v3.2h-3.2zM25.8 35.5H29v3.2h-3.2zM16.1 40.3h3.2v3.2h-3.2zM11.3 19.4h3.2v-3.3h-3.2zM21 40.3h3.2v3.2H21zM21 45.2h3.2v3.2H21zM16.1 35.5h3.2v3.2h-3.2z"/></svg>