<svg xmlns="http://www.w3.org/2000/svg" viewBox="0 0 64 64"><g data-name="Layer 1"><path fill="#acacac" d="M40.93 51.66L24.42 54.3V12.12l16.51-2.64v42.18z"/><path fill-opacity=".3" fill="#e3e3e3" d="M57.71 53.19l-16.59-1.32-16.59 2.65-16.58-1.33V12.14l16.58 1.33 16.59-2.65 16.59 1.32v41.05z"/><path d="M24.41 54.52h-.08l-17.2-1.38V10.76l17.23 1.37 16.58-2.65H41l17.2 1.37v42.39L41 51.87zM8.46 51.91l15.9 1.27 16.58-2.65H41l15.87 1.27V12.09L41 10.82l-16.59 2.65h-.08L8.46 12.19z" fill="#e3e3e3"/><path d="M59.63 31.82a3 3 0 00-3-3A5.48 5.48 0 0046.79 26h-.37a4.42 4.42 0 00-.48 8.81h11.1a3 3 0 002.59-2.99zm-34.02.79A3.61 3.61 0 0022 29h-.06a6.6 6.6 0 00-11.81-3.41h-.44a5.33 5.33 0 00-.58 10.62h13.37a3.6 3.6 0 003.13-3.6z" fill="#fff" stroke="#e3e3e3" stroke-miterlimit="10"/><circle cx="32.83" cy="32" r="10" class="has-fill-current-color" fill="#0079d6"/><path fill="#fff" d="M36.89 26.93l-5.64 4.02-2.48 6.48 5.64-4.03 2.48-6.47z"/></g></svg>