<svg xmlns="http://www.w3.org/2000/svg" viewBox="0 0 64 64"><defs><style>.cls-1{fill:#ddb60c}</style></defs><g id="Names"><g id="Layer_2" data-name="Layer 2"><g id="Layer_1-2" data-name="Layer 1-2"><path class="cls-1" d="M55 48v-3h1.45C59.2 45 61 42.75 61 40V13.64A4.35 4.35 0 0056.45 9H7.55A4.35 4.35 0 003 13.64V40c0 2.75 1.8 5 4.55 5H9v3H7.55C3.38 48 0 44.18 0 40V13.64A7.64 7.64 0 017.55 6h48.9A7.64 7.64 0 0164 13.64V40c0 4.17-3.38 8-7.55 8z"/><path class="cls-1" d="M15.5 54.46a3.61 3.61 0 01-3.5-3.72v-8.56a3.61 3.61 0 013.5-3.72 3.61 3.61 0 013.5 3.71v8.57a3.61 3.61 0 01-3.49 3.72zm11-.33A3.52 3.52 0 0123 50.6V29.67a3.5 3.5 0 117 0V50.6a3.51 3.51 0 01-3.49 3.54m22.02.07A3.53 3.53 0 0145 50.65V20.78a3.49 3.49 0 117 0v29.87a3.51 3.51 0 01-3.47 3.56m-11.02.09A3.55 3.55 0 0134 50.7V34.89a3.5 3.5 0 117 0V50.7a3.54 3.54 0 01-3.49 3.59"/></g></g></g></svg>