<svg xmlns="http://www.w3.org/2000/svg" viewBox="0 0 180 134.73">
    <defs>
        <style>
            .cls-1{fill:#020202}
        </style>
    </defs>
    <g id="Layer_2" data-name="Layer 2">
        <g id="Layer_1-2" data-name="Layer 1">
            <path class="cls-1" d="M158.77 116.62h-3.63v-7.26h3.63a14 14 0 0014-14V21.23a14 14 0 00-14-14H21.23a14 14 0 00-14 14v74.16a14 14 0 0014 14h3.63v7.26h-3.63A21.25 21.25 0 010 95.39V21.23A21.25 21.25 0 0121.23 0h137.54A21.25 21.25 0 01180 21.23v74.16a21.25 21.25 0 01-21.23 21.23"/>
            <path class="cls-1" d="M43.53 134.73a9.85 9.85 0 01-9.85-9.85v-22.71a9.85 9.85 0 019.85-9.86 9.85 9.85 0 019.85 9.85v22.71a9.85 9.85 0 01-9.85 9.86zm30.98 0a9.85 9.85 0 01-9.85-9.85V66.57a9.85 9.85 0 0119.71 0v58.31a9.85 9.85 0 01-9.85 9.85m61.96-.28a9.85 9.85 0 01-9.85-9.85V42a9.85 9.85 0 0119.71 0v82.59a9.85 9.85 0 01-9.85 9.85m-31 .29a9.85 9.85 0 01-9.85-9.85V81.56a9.85 9.85 0 1119.71 0v43.32a9.85 9.85 0 01-9.85 9.85"/>
        </g>
    </g>
</svg>
