<svg width="100" height="100" xmlns="http://www.w3.org/2000/svg"><defs><filter x="-1.7%" y="-1.7%" width="104.8%" height="107%" filterUnits="objectBoundingBox" id="a"><feOffset dy="2" in="SourceAlpha" result="shadowOffsetOuter1"/><feColorMatrix values="0 0 0 0 0 0 0 0 0 0 0 0 0 0 0 0 0 0 0.100373641 0" in="shadowOffsetOuter1" result="shadowMatrixOuter1"/><feMerge><feMergeNode in="shadowMatrixOuter1"/><feMergeNode in="SourceGraphic"/></feMerge></filter></defs><g fill="none" fill-rule="evenodd"><rect fill="#C0DDF4" x="2" y="2" width="96" height="96" rx="48"/><g filter="url(#a)" transform="translate(20.42 21.537)"><path d="M37.636 53.792l-6.738-6.807v-2.913a1.827 1.827 0 0 0-1.818-1.836 1.827 1.827 0 0 0-1.817 1.836v2.913l-6.738 6.807a1.85 1.85 0 0 0 0 2.597 1.8 1.8 0 0 0 2.57 0l4.168-4.21v1.993c0 1.014.814 1.837 1.817 1.837a1.828 1.828 0 0 0 1.818-1.837v-1.994l4.168 4.21a1.8 1.8 0 0 0 2.57 0 1.85 1.85 0 0 0 0-2.596" fill="#546670"/><path d="M56.343 9.182v33.054c0 1.01-.818 1.836-1.817 1.836H3.636c-1 0-1.818-.826-1.818-1.836V9.182h54.525" fill="#AAB0B1"/><path d="M29.08 5.51a1.828 1.828 0 0 1-1.817-1.837V1.836C27.263.822 28.077 0 29.08 0c1.004 0 1.818.822 1.818 1.836v1.837a1.828 1.828 0 0 1-1.818 1.836" fill="#546670"/><path d="M58.16 8.264a.916.916 0 0 1-.908.918H.91A.916.916 0 0 1 0 8.264V4.59c0-.505.409-.918.909-.918h56.343c.5 0 .909.413.909.918v3.673" fill="#30404D"/><path fill="#585858" d="M1.818 11.018h54.525V9.182H1.818z"/><path d="M21.917 54.983a.909.909 0 0 1-1.459-.231 3.185 3.185 0 0 1-.219-.57 1.845 1.845 0 0 0 .286 2.207 1.8 1.8 0 0 0 2.57 0l5.985-5.89v-2.754l-7.163 7.238M36.244 54.983a.909.909 0 0 0 1.459-.231c.093-.19.167-.38.219-.57a1.845 1.845 0 0 1-.286 2.207 1.8 1.8 0 0 1-2.57 0l-5.986-5.89v-2.754l7.164 7.238" fill="#30404D"/><path d="M29.08 49.582v4.442a.917.917 0 0 1-1.224.865 3.165 3.165 0 0 1-.522-.235A1.813 1.813 0 0 0 29.246 56c.956-.085 1.652-.967 1.652-1.937v-4.482H29.08M27.263 44.072v.919h.83c.546 0 .987.446.987.997 0 .55.442.997.987.997h.831v-2.913h-3.635" fill="#30404D"/><path d="M.909 9.182h56.343c.5 0 .909-.413.909-.918V4.59a.916.916 0 0 0-.909-.918H29.08v1.836a.914.914 0 0 1-.908.918H0v1.837c0 .505.409.918.909.918" fill="#182A37"/><path d="M29.08 1.747v1.926h1.818V1.836c0-.105-.01-.208-.025-.308-.18-1.07-1.793-.865-1.793.22" fill="#30404D"/></g><path d="M64.196 45.366c-.331 0-.651.045-.958.122a4.08 4.08 0 0 0 .095-.866c0-2.213-1.776-4.008-3.967-4.008-.603 0-1.173.14-1.685.383-.444-1.723-1.99-2.997-3.834-2.997-2.192 0-3.967 1.795-3.967 4.008 0 .343.047.674.127.991a5.17 5.17 0 0 0-.832-.073c-2.858 0-5.175 2.34-5.175 5.228 0 2.887 2.317 5.228 5.175 5.228h15.02c2.192 0 3.968-1.795 3.968-4.008s-1.776-4.008-3.967-4.008" fill="#FFF" opacity=".71"/><path d="M53.582 50.236c-.37 0-.728.051-1.07.137.067-.312.106-.635.106-.968 0-2.475-1.986-4.482-4.437-4.482-.673 0-1.31.157-1.883.43C45.802 43.424 44.073 42 42.01 42c-2.451 0-4.437 2.007-4.437 4.482 0 .384.053.754.143 1.109a5.781 5.781 0 0 0-.93-.083c-3.196 0-5.787 2.618-5.787 5.846s2.591 5.846 5.786 5.846h16.796c2.45 0 4.436-2.006 4.436-4.481 0-2.476-1.986-4.483-4.436-4.483" fill="#FFF" opacity=".71"/><rect x="2" y="2" width="96" height="96" rx="48" stroke="#0078D4" stroke-width="4"/></g></svg>