<svg xmlns="http://www.w3.org/2000/svg" viewBox="0 0 18 18"><defs><linearGradient id="a" x1="9" y1="-3126" x2="9" y2="-3109.36" gradientTransform="matrix(1 0 0 -1 0 -3108)" gradientUnits="userSpaceOnUse"><stop offset="0" stop-color="#1989b2"/><stop offset="1" stop-color="#50c7e8"/></linearGradient><linearGradient id="b" x1="5.75" y1="-3114.58" x2="12.3" y2="-3119.89" gradientTransform="matrix(1 0 0 -1 0 -3108)" gradientUnits="userSpaceOnUse"><stop offset="0" stop-color="#fff" stop-opacity=".9"/><stop offset="1" stop-color="#fff" stop-opacity=".8"/></linearGradient></defs><path d="M9 18a8.32 8.32 0 118.32-8.32A8.33 8.33 0 019 18z" fill="url(#a)"/><path d="M8.81 15.05c-1-.6-4.15-2.74-4.15-5.25V6.59H5a4 4 0 002.35-.74A2.5 2.5 0 019 5.34a2.52 2.52 0 011.65.49 4 4 0 002.35.74h.34V9.8c0 2.51-3.18 4.65-4.15 5.25l-.19.12z" fill="url(#b)"/><path d="M9 14.63c-1.89-1.17-3.88-3.05-3.88-4.83V7a4.35 4.35 0 002.48-.79A2 2 0 019 5.8a2 2 0 011.39.41 4.45 4.45 0 002.49.79v2.8c0 1.78-1.99 3.66-3.88 4.83z" fill="#50e6ff"/><circle cx="15.34" cy="13.91" r="1.3" fill="#fff"/><path d="M15.34 12.61a1.3 1.3 0 11-1.3 1.3 1.31 1.31 0 011.3-1.3m0-.65a2 2 0 102 1.95 2 2 0 00-2-1.95z" fill="#b3b3b3"/><circle cx="2.66" cy="13.91" r="1.3" fill="#fff"/><path d="M2.66 12.61a1.3 1.3 0 11-1.31 1.3 1.3 1.3 0 011.31-1.3m0-.65a1.95 1.95 0 102 1.95 2 2 0 00-2-1.91z" fill="#b3b3b3"/><circle cx="9" cy="1.95" r="1.3" fill="#fff"/><path d="M9 .65A1.31 1.31 0 117.7 2 1.3 1.3 0 019 .65M9 0a2 2 0 102 2 2 2 0 00-2-2z" fill="#b3b3b3"/></svg>