<svg xmlns="http://www.w3.org/2000/svg" viewBox="0 0 50 35.31"><defs><linearGradient id="a" x1="25" y1="2157.31" x2="25" y2="2121.88" gradientTransform="translate(0 -2122)" gradientUnits="userSpaceOnUse"><stop offset="0" stop-color="#0078d4"/><stop offset=".16" stop-color="#1380da"/><stop offset=".53" stop-color="#3c91e5"/><stop offset=".82" stop-color="#559cec"/><stop offset="1" stop-color="#5ea0ef"/></linearGradient></defs><path d="M50 24.2a11.23 11.23 0 00-9.75-10.79A14.1 14.1 0 0025.67 0 14.44 14.44 0 0011.8 9.32 13.41 13.41 0 000 22.23 13.61 13.61 0 0014.08 35.3h24.76A11.34 11.34 0 0050 24.2z" fill="url(#a)"/><path d="M37 25.44V14.18h-3.15V28h8.21v-2.56zm-23.83-5.53a9.25 9.25 0 01-1.71-1 1.59 1.59 0 01-.4-1.08 1.06 1.06 0 01.5-1A2.1 2.1 0 0113 16.4a5.64 5.64 0 013.35 1v-2.91A9.54 9.54 0 0013 14a5.68 5.68 0 00-3.65 1.11 3.63 3.63 0 00-1.38 3 4.52 4.52 0 003.15 4 8.45 8.45 0 012.05 1.21 1.43 1.43 0 01.5 1.07 1.13 1.13 0 01-.5 1 2.68 2.68 0 01-1.51.4 5.39 5.39 0 01-3.52-1.41v3.08a7.63 7.63 0 003.35.78 6.55 6.55 0 003.86-.94 3.58 3.58 0 001.44-3.05 3.39 3.39 0 00-.84-2.35 7.72 7.72 0 00-2.78-1.99zm17.29 5.3A7.74 7.74 0 0031.57 21a7.54 7.54 0 00-.84-3.76 5.76 5.76 0 00-2.31-2.48 6.4 6.4 0 00-3.55-.87 7.11 7.11 0 00-3.36 1 6.38 6.38 0 00-2.44 2.58 8.5 8.5 0 00-.91 3.83 7.63 7.63 0 00.84 3.47 6.19 6.19 0 002.28 2.48 6.94 6.94 0 003.35 1l2.85 3.35h4.12l-4-3.69a6.09 6.09 0 002.86-2.7zm-3.11-.84a3.11 3.11 0 01-2.55 1.17 3 3 0 01-2.51-1.2 5 5 0 01-.94-3.34 4.79 4.79 0 011-3.35 3.11 3.11 0 012.55-1.25 2.89 2.89 0 012.48 1.24 4.94 4.94 0 01.94 3.36 4.93 4.93 0 01-.97 3.37z" fill="#f2f2f2"/></svg>