<svg width="100" height="100" xmlns="http://www.w3.org/2000/svg">
    <defs>
        <filter x="-1.2%" y="-1.8%" width="102.4%" height="108.9%" filterUnits="objectBoundingBox" id="a">
            <feOffset dy="2" in="SourceAlpha" result="shadowOffsetOuter1"/>
            <feColorMatrix values="0 0 0 0 0 0 0 0 0 0 0 0 0 0 0 0 0 0 0.104110054 0" in="shadowOffsetOuter1" result="shadowMatrixOuter1"/>
            <feMerge>
                <feMergeNode in="shadowMatrixOuter1"/>
                <feMergeNode in="SourceGraphic"/>
            </feMerge>
        </filter>
    </defs>
    <g fill="none" fill-rule="evenodd">
        <rect fill="#C0DDF4" x="2" y="2" width="96" height="96" rx="48"/>
        <g filter="url(#a)" transform="translate(9 21)">
            <path d="M68.589 28c0 15.464-12.576 28-28.089 28-15.513 0-28.089-12.536-28.089-28S24.987 0 40.5 0c15.513 0 28.089 12.536 28.089 28" fill="#507BE0"/>
            <path d="M57.048 5.38a27.808 27.808 0 015.396 16.495c0 15.464-12.575 28-28.088 28-6.189 0-11.907-2-16.548-5.38C22.918 51.468 31.175 56 40.5 56c15.513 0 28.089-12.536 28.089-28 0-9.295-4.547-17.528-11.541-22.62" fill="#375FAF"/>
            <path d="M51.952 7.024s.437-1.603.59-2.744c.527-.249 2.654 1.22 4.454 3.1-1.216 4.492-4.054 4.225-4.054 4.225s-2.34-.048-2.07-1.797l1.08-2.784m-6.306 2.739c.27-.539.946-.81 1.622-1.079.675-.27 0 1.212-.135 2.02-.136.81-.27 1.213.675 2.157.946.942-1.756.27-2.433-.27-.675-.538.27-2.828.27-2.828M33.408 36.029c-.135.671-1.408 2.288-1.948 3.364-.54 1.078-.812 1.482-1.487 2.02-.676.539-1.082 1.483-1.082 1.483l.174 2.29s.675 1.48 1.082 2.155c.405.673-.811 4.31-.811 4.31-1.171-.225-2.29-.538-2.697-1.617-.405-1.078-.99-1.078-.855-2.29.135-1.21-1.892-2.695-2.296-3.367-.406-.673-.946-1.617-.946-2.289 0-.674-1.487-1.617-1.487-1.617s-2.702-1.212-3.107-1.751c-.406-.54-.81-2.828-.947-3.77-.134-.944.406-3.369.406-3.369s1.08-.808.405-1.481c-.675-.674-.811-2.424-.811-2.424l-1.216-1.345s-.945-1.35-1.081-2.022c-.134-.672 0-1.079.136-1.752.134-.672-.27-1.884-.27-2.559C19.614 7.661 28.08 4.78 28.08 4.78l.675 2.828s-1.486.404-2.297.135c-.81-.27-1.216-.27-1.216-.27l-1.08 1.482s-.406.942-.54 1.482c-.135.54.27 1.346.27 1.346s1.891.135 1.891-.404-.27-.808-.27-.808l-.27-.943s1.215-.673 4.46-.403c3.242.268 2.025 2.558 3.376 3.097 1.351.54-1.08 2.424-1.62 3.502-.54 1.078-1.352-1.346-1.352-1.346s.811-.944-.542-1.212c-1.35-.27-1.62 1.48-.944 1.346.675-.134.811.807.675 1.483-.135.672-.135 1.48-.811 2.962-.675 1.481-3.243 1.481-3.243 1.481s.406.675.811 1.482c.405.808-.135 2.694-.135 3.233 0 .539-1.621-.943-1.891-2.29-.27-1.348-1.082-.852-1.622-.719-.54.136-2.297.539-2.567-.133-.27-.674-2.702 1.255-3.379 1.66-.675.404-.404 1.482.677.943 1.08-.54 2.026-.134 1.756.942-.27 1.077-1.351.404-1.215 1.077.134.673 1.215 1.349 1.485 2.29.27.943 2.838-.402 3.649-.807.81-.405 3.107-.81 3.377.269.27 1.076 3.3 2.02 4.247 2.289.947.271 2.837.404 3.918 1.482 1.081 1.077-.81 3.097-.946 3.774" fill="#A8E391"/>
            <path d="M29.336 51.65s.35-1.049.611-2.124a27.924 27.924 0 01-4.115-.978c.149.495.52.723.807 1.486.406 1.08 1.526 1.392 2.697 1.616m9.689-47.141c-.134 1.35-2.476 3.368-2.206 3.906.27.539.18 4.715-1.712 2.694s-3.783-4.85-3.647-6.196c.027-.27.058-.696.09-1.165 2.867-2.653 9.34-2.11 9.683-1.484-.812 1.348-2.072.9-2.208 2.245m3.108 7.947c-.405-.674.946-1.078.946-1.078 1.892.404 1.17 1.752 1.036 2.29-.135.539-1.576-.538-1.982-1.212m21.349 16.073s1.04 1.529 2.523 1.436C65.029 41.228 55.6 48.462 55.6 48.462c-1.442-1.434-.72-2.692-.72-2.692l.869-2.156.224-3.635s-.463-3.772-4.067-1.977c-3.873.988-2.25 1.45-6.168 1.721-3.92.266-2.434-7.602-2.434-7.602-.225-3.233.36-2.424.36-4.94 0-2.513 8.288-1.076 8.288-1.076 5.405 3.593 6.125-.81 6.125-.81l3.963-1.436.36-1.796-2.161-2.512-3.243-1.438s-1.486.943 0 3.233c0 0-.495 2.604-1.712 1.93l-3.332-4.085s-1.126 1.93-2.928 3.007c-1.8 1.078-4.865-.046-4.865-.046s-.989-3.05.903-3.995l2.791-.044s-.585-1.572-.225-3.008c.36-1.438 1.171-.178 2.612-1.256 1.442-1.078 2.432 2.108 4.594 1.75 2.162-.36 1.08-.718 2.523-1.437 1.44-.719 2.52 1.438 2.52 1.438l2.884.357s-1.847-4.914-2.501-5.574l-.201.009c.034-.115.104-.106.2-.01 1.677.311 7.466 10.199 5.758 16.12a280.99 280.99 0 01-1.093-.487H61.32l2.162 2.514" fill="#A8E391"/>
            <path d="M63.482 28.528l-1.48-1.72A27.847 27.847 0 0155.94 39.79c.024.115.033.189.033.189l-.224 3.635-.87 2.156s-.72 1.258.721 2.692c0 0 9.43-7.234 10.405-18.497-1.484.093-2.523-1.437-2.523-1.437" fill="#5A8E3F"/>
            <path d="M60.059 10.392l.2-.01c-.096-.096-.166-.105-.2.01" fill="#A8E391"/>
            <path d="M62.444 21.875c0 1.407-.107 2.789-.308 4.14h2.788s.496.223 1.093.488c1.708-5.922-4.08-15.81-5.757-16.12.654.66 2.501 5.574 2.501 5.574l-.992-.123c.43 1.948.675 3.965.675 6.041" fill="#5A8E3F"/>
            <path d="M13.915 40.279h-.663a1.559 1.559 0 01-1.098-.47 1.549 1.549 0 01-.44-1.109c-.014-.419.15-.824.452-1.116a1.495 1.495 0 011.132-.417h2.919a1.655 1.655 0 011.603 1.515 1.563 1.563 0 01-1.52 1.597h-2.385zm8.288-.34a1.555 1.555 0 01-1.616-1.491 1.555 1.555 0 011.496-1.611c.958-.068 1.937-.15 2.938-.248a1.557 1.557 0 011.699 1.4 1.555 1.555 0 01-1.404 1.693 149.79 149.79 0 01-3.002.257h-.111zm-14.882 0h-.193a24.464 24.464 0 01-3.131-.578 1.568 1.568 0 11.82-3.03c.908.23 1.831.398 2.762.506a1.553 1.553 0 011.387 1.639 1.554 1.554 0 01-1.58 1.454l-.065.01zm23.778-.918a1.554 1.554 0 01-1.591-1.45 1.553 1.553 0 011.388-1.643c.964-.123 1.94-.257 2.929-.404a1.552 1.552 0 01.46 3.057l-2.974.413-.212.027zM1.557 35.524c-.585 0-1.12-.326-1.386-.845a1.547 1.547 0 01.124-1.615 10.228 10.228 0 012.588-2.396 1.564 1.564 0 012.168.408c.486.71.303 1.678-.41 2.162A7.309 7.309 0 002.8 34.835a1.557 1.557 0 01-1.243.689zm64.462-4.296a1.55 1.55 0 11-.506-3.02c.963-.33 1.884-.658 2.762-.983a1.56 1.56 0 012.008.91 1.552 1.552 0 01-.912 2c-.933.355-1.885.692-2.855 1.01a1.598 1.598 0 01-.534.083h.037zm8.288-3.323a1.55 1.55 0 11-.681-2.947c.933-.453 1.765-.9 2.495-1.34a1.562 1.562 0 011.558-.037 1.552 1.552 0 01.063 2.69 31 31 0 01-2.763 1.487 1.56 1.56 0 01-.7.156l.028-.01zm6.133-5.747a1.556 1.556 0 01-1.482-1.074c0-.092-.36-.431-1.336-.78a1.551 1.551 0 11-.467-2.65 1.562 1.562 0 011.536-.27c1.758.634 2.845 1.561 3.232 2.755a1.55 1.55 0 01-.995 1.955c-.167.05-.341.072-.515.064h.027zm-8.177-2.79h-.12l-1.51-.092a1.558 1.558 0 01-1.08-.506 1.548 1.548 0 01-.403-1.12 1.455 1.455 0 011.621-1.477l1.611.092c.86.033 1.53.754 1.497 1.61a1.555 1.555 0 01-1.616 1.493zM9.099 30.732a1.55 1.55 0 11-.599-2.974l1.474-.624a1.559 1.559 0 012.03.849 1.55 1.55 0 01-.852 2.024l-1.4.587c-.205.094-.428.14-.653.138z" fill="#FAF0A5" fill-rule="nonzero"/>
            <g fill-rule="nonzero">
                <path d="M63.5 31.365a5.714 5.714 0 00-2.343-.99l-7.361 2.13a1.066 1.066 0 00-.191-.341l-7.096-7.957a1.058 1.058 0 00-1.06-.288l-1.061.383a1.067 1.067 0 00-.615 1.364l3.415 8.66-3.691 1.065a8.063 8.063 0 00-1.485.341l-3.182-1.704a.613.613 0 00-.682.066.62.62 0 00-.198.658l.848 2.887c-.345.323-.658.68-.933 1.065a6.402 6.402 0 00-.318.629 7.798 7.798 0 001.994.83l.944 3.196a.616.616 0 001.06.17l2.121-3.334a7.985 7.985 0 001.146-.383l3.776-1.065 1.527 9.225a1.06 1.06 0 001.241.841l1.337-.298c.41-.1.722-.435.795-.852l1.56-10.503a1.07 1.07 0 000-.213l6.862-2.024s1.209-.352 2.015-3.09a1.883 1.883 0 00-.424-.468z" fill="#000" opacity=".15"/>
                <path d="M47.379 37.117l1.527 9.225a1.06 1.06 0 001.241.841l1.336-.298c.41-.1.723-.434.796-.852l1.59-10.514a1.07 1.07 0 000-.426l-1.166-4.26a1.067 1.067 0 00-.223-.416l-7.095-7.957a1.058 1.058 0 00-1.06-.288l-1.062.383a1.067 1.067 0 00-.615 1.364l4.084 10.14v.118l.753 2.812-.106.128z" fill="#E7EAE9"/>
                <path d="M39.19 41.857l-2.524-8.596a.62.62 0 01.199-.659.613.613 0 01.682-.065l4.19 2.215c.19.1.315.295.328.511l.138 2.557.223.788-2.122 3.42a.614.614 0 01-1.113-.17z" fill="#EBEBEA"/>
                <path d="M42.203 33.847l17.713-5.028a5.73 5.73 0 012.344.99c-.796 2.312-1.867 2.664-1.867 2.664l-6.863 2.024-10.267 2.865a9.865 9.865 0 01-6.713-.17 8.584 8.584 0 015.653-3.345z" fill="#FFFEFF"/>
                <path fill="#BFBFBF" d="M53.477 37.895l-5.695 1.608-.403-2.386 6.49-1.822z"/>
                <path d="M43.348 37l10.193-2.514 6.863-2.024s1.06-.34 1.866-2.663c.17.144.314.317.425.511-.807 2.727-2.016 3.09-2.016 3.09l-6.862 1.991-10.257 2.876a8.252 8.252 0 01-7.297-.49c.095-.215.2-.425.318-.628 2.215.673 4.585.62 6.767-.15z" fill="#F2F2F2"/>
            </g>
        </g>
        <rect x="2" y="2" width="96" height="96" rx="48" stroke="#0078D4" stroke-width="4"/>
    </g>
</svg>
