<svg width="49" height="49" fill="none" xmlns="http://www.w3.org/2000/svg">
    <path d="M34.304 20.846a13.83 13.83 0 019.251 3.534V2.803A1.967 1.967 0 0041.587.832H2.468C1.379.832.5 1.712.5 2.803v32.075c0 1.091.879 1.971 1.969 1.971h18.114a14.184 14.184 0 01-.156-2.1c-.007-7.675 6.213-13.903 13.877-13.903z" fill="#00947D"/>
    <path d="M13.621 4.445H4.043v6.071h9.578v-6.07z" fill="#1FC1A7"/>
    <path d="M26.79 4.445h-9.58v6.071h9.58v-6.07z" fill="#61DDC9"/>
    <path d="M13.621 14.065H4.043v6.07h9.578v-6.07z" fill="#9BFDEC"/>
    <path d="M13.621 23.684H4.043v5.982h9.578v-5.982z" fill="#00B99D"/>
    <path d="M26.79 14.065h-9.58v6.07h9.58v-6.07z" fill="#04BCA1"/>
    <path d="M39.985 4.445h-9.579v6.071h9.579v-6.07z" fill="#1DC0A7"/>
    <path d="M43.553 34.876v-10.49a13.821 13.821 0 00-9.251-3.534c-7.664 0-13.884 6.22-13.884 13.902 0 .716.055 1.412.157 2.1h21.01a1.977 1.977 0 001.968-1.978z" fill="#00BA9D"/>
    <path d="M43.557 24.385v10.498a1.971 1.971 0 01-1.969 1.971h-21.01c1.008 6.678 6.772 11.801 13.727 11.801 7.671-.006 13.884-6.228 13.884-13.909a13.87 13.87 0 00-4.632-10.361z" fill="#27CFB2"/>
    <path d="M41.437 27.906l-8.7 8.704-4.469-4.474-2.67 2.68 4.469 4.475 2.84 2.845 2.671-2.681 8.7-8.704-2.841-2.845z" fill="#C5FDF4"/>
</svg>
