<svg xmlns="http://www.w3.org/2000/svg" viewBox="0 0 23.981 22" class="fxs-portal-svg">
    <path d="M19.8 9.8A7.98 7.98 0 1110.3 4a7.95 7.95 0 019.5 5.8z" class="msportalfx-svg-c15" fill="#59b4d9"/>
    <path d="M11 14.9a2.112 2.112 0 00-2.1-2.1h-.4A2.015 2.015 0 007 10.3H4.4a7.8 7.8 0 001.9 6.8h2.6a2.2 2.2 0 002.1-2.2zm2.6-8.7v.4h-.9a2.2 2.2 0 000 4.4H20a7.624 7.624 0 00-4.1-6.2H15a1.367 1.367 0 00-1.4 1.4zm6.4 6.3h-4.3a1.793 1.793 0 00-1.8 1.8 2.92 2.92 0 00.2.9 1.812 1.812 0 00-1.2 2.2 1.631 1.631 0 001.7 1.2h1.2a7.947 7.947 0 004.2-6.1z" opacity=".5" class="msportalfx-svg-c01" fill="#fff"/>
    <path d="M3.2 6.4a.215.215 0 01-.2-.2A2.8 2.8 0 00.2 3.4c-.1.1-.2-.1-.2-.2A.215.215 0 01.2 3 2.8 2.8 0 003 .2c0-.2.1-.2.2-.2s.3 0 .3.2A2.8 2.8 0 006.3 3a.2.2 0 010 .4 2.8 2.8 0 00-2.8 2.8c0 .1-.1.2-.3.2z" class="msportalfx-svg-c13" fill="#b8d432"/>
    <path d="M20.3 22c-.1 0-.1 0-.1-.1a1.666 1.666 0 00-1.7-1.6c-.1 0-.1 0-.1-.1s0-.1.1-.1a1.735 1.735 0 001.7-1.6c0-.1 0-.1.1-.1s.1 0 .1.1a1.666 1.666 0 001.7 1.6c.1 0 .1 0 .1.1s0 .1-.1.1a1.735 1.735 0 00-1.7 1.6c.1.1 0 .1-.1.1z" class="msportalfx-svg-c15" fill="#59b4d9"/>
    <path d="M23.7 4.6c-.8-1.2-2.6-1.5-5.5-.8a19.752 19.752 0 00-2.6.8 7.837 7.837 0 011.5 1c.5-.1 1-.3 1.4-.4a9.079 9.079 0 012.3-.3c.9 0 1.4.2 1.6.5.3.5 0 1.7-1.6 3.6a9.428 9.428 0 01-1 1 34.078 34.078 0 01-6 4.6A27.9 27.9 0 017 17.7c-2.9.9-4.9.9-5.3.2s.4-2.5 2.6-4.6a11.019 11.019 0 01-.2-1.8C.7 14.6-.4 17.3.4 18.7a3.51 3.51 0 003 1.2 15.047 15.047 0 005.1-1.1 33.625 33.625 0 006-3 41.869 41.869 0 005.4-4 17.044 17.044 0 001.9-1.9c2-2.3 2.6-4.1 1.9-5.3z"/>
</svg>
