<svg xmlns="http://www.w3.org/2000/svg" width="50" height="50" viewBox="0 0 300 250">
    <path fill="#3999C6" d="M25 35.5V216c0 19 42 34 93.5 34V35.5H25z"/>
    <path fill="#59B4D9" d="M117.5 250h1.5c52 0 93.5-15 93.5-34V35.5h-95V250z"/>
    <path fill="#FFF" d="M212.5 35.5c0 18.5-42 34-93.5 34S25 54 25 35.5s42-34 93.5-34 94 15.5 94 34"/>
    <path fill="#7FBA00" d="M193.5 33.5C193.5 46 160 56 119 56S44 46 44 33.5 77.5 11 118.5 11s75 10 75 22.5"/>
    <path fill="#B8D432" d="M177.5 47c10-4 15.5-8.5 15.5-13.5C193 21 159.5 11 118.5 11S44 21 44 33.5c0 5 6 10 15.5 13.5 13.5-5.5 35-8.5 59-8.5s45.5 3.5 59 8.5"/>
    <path fill="#0072C6" d="M144 107v120.5c0 12.5 28 22.5 62.5 22.5V107H144z"/>
    <path fill="#0072C6" d="M205.5 250h1c34.5 0 62.5-10 62.5-22.5V107h-63.5v143z"/>
    <path opacity=".15" fill="#FFF" d="M205.5 250h1c34.5 0 62.5-10 62.5-22.5V107h-63.5v143z"/>
    <path fill="#FFF" d="M269 107c0 12.5-28 22.5-62.5 22.5S144 119.5 144 107s28-22.5 62.5-22.5S269 94.5 269 107"/>
    <path fill="#7FBA00" d="M256 105.5c0 8-22.5 15-49.5 15s-49.5-6.5-49.5-15c0-8 22.5-15 49.5-15s49.5 7 49.5 15"/>
    <path fill="#B8D432" d="M245.5 114.5c6.5-2.5 10.5-5.5 10.5-9 0-8-22.5-15-49.5-15-27.5 0-49.5 6.5-49.5 15 0 3.5 4 6.5 10.5 9 9-3.5 23.5-6 39.5-6 15 0 29 2.5 38.5 6"/>
    <path fill="#FFF" d="M240.5 180L171 237.5l27-44.5h-23.5l69.5-57-27 44z"/>
</svg>
