<svg xmlns="http://www.w3.org/2000/svg" viewBox="0 0 50 50" class="fxs-portal-svg">
    <path d="M34 45H0V2h34v43zM2 43l30 .027" class="msportalfx-svg-c14" fill="#7fba00"/>
    <path opacity=".6" d="M2 43V4h30v39z" class="msportalfx-svg-c01" fill="#fff"/>
    <path d="M39 50H5V7h34v43zM7 48l30 .027V9L7 9.027V48z" class="msportalfx-svg-c16" fill="#3999c6"/>
    <path d="M7 9h30v39H7z" class="msportalfx-svg-c15" fill="#59b4d9"/>
    <path d="M7 9h30v39H7z" opacity=".4" class="msportalfx-svg-c01" fill="#fff"/>
    <path opacity=".5" d="M30.905 19.967l-7.982-4.575a1.941 1.941 0 00-1.909.007l-7.926 4.541c-.594.344-2.088.904-2.088 3.652v9.136c0 .708.387 1.357.975 1.676l7.894 4.523c.302.186 1.285.533 2.131.533s1.814-.34 2.107-.515l7.899-4.529c.613-.34.994-.987.994-1.688V23.65c0-2.806-1.5-3.346-2.095-3.683z" class="msportalfx-svg-c16" fill="#3999c6"/>
    <path d="M22.025 26.42a.246.246 0 01-.121-.034l-7.967-4.567a.24.24 0 010-.415l7.919-4.537a.246.246 0 01.238 0l7.97 4.568a.236.236 0 01.118.207.238.238 0 01-.118.207l-7.916 4.536a.25.25 0 01-.123.035" class="msportalfx-svg-c01" fill="#fff"/>
    <path d="M20.88 37.52a.221.221 0 01-.121-.032l-7.943-4.552a.235.235 0 01-.124-.208v-9.136a.24.24 0 01.123-.208.24.24 0 01.243 0L21 27.935a.249.249 0 01.117.21v9.136a.245.245 0 01-.117.208.271.271 0 01-.12.031m2.249 0a.256.256 0 01-.125-.032.241.241 0 01-.116-.208v-9.078a.25.25 0 01.116-.208l7.942-4.55a.238.238 0 01.239 0 .238.238 0 01.122.207v9.077a.238.238 0 01-.122.208l-7.939 4.552a.22.22 0 01-.117.032" class="msportalfx-svg-c16" fill="#3999c6"/>
    <path opacity=".8" d="M20.88 37.52a.221.221 0 01-.121-.032l-7.943-4.552a.235.235 0 01-.124-.208v-9.136a.24.24 0 01.123-.208.24.24 0 01.243 0L21 27.935a.249.249 0 01.117.21v9.136a.245.245 0 01-.117.208.271.271 0 01-.12.031" class="msportalfx-svg-c01" fill="#fff"/>
    <path opacity=".6" d="M23.129 37.52a.256.256 0 01-.125-.032.241.241 0 01-.116-.208v-9.078a.25.25 0 01.116-.208l7.942-4.55a.238.238 0 01.239 0 .238.238 0 01.122.207v9.077a.238.238 0 01-.122.208l-7.939 4.552a.22.22 0 01-.117.032" class="msportalfx-svg-c01" fill="#fff"/>
    <path d="M42 31l8 6-8 6z" class="msportalfx-svg-c17" fill="#804998"/>
    <path opacity=".4" d="M37 41.087a20.985 20.985 0 012-.37v-6.958a19.8 19.8 0 00-2 .411v6.917z" class="msportalfx-svg-c01" fill="#fff"/>
    <path d="M42 39.506c-8 0-13 3.994-14 5.494 0-6.735 7-10.475 14-10.475v4.981z" class="msportalfx-svg-c17" fill="#804998"/>
</svg>
