<svg version="1.1" id="Layer_1" xmlns="http://www.w3.org/2000/svg" x="0" y="0" width="50" height="50" xml:space="preserve">
    <style>
        .st5{fill:#a0a1a2}
    </style>
    <path d="M22.8 4.4C11.4 5.6 3.2 15.8 4.4 27.2s11.4 19.7 22.8 18.5 19.7-11.4 18.5-22.8c-.6-5.5-3.4-10.6-7.7-14.1-3.8-3-8.3-4.6-13-4.5-.7 0-1.4 0-2.2.1" fill="#fff"/>
    <path d="M16.4 19.5l-5-4.1c-2.1 3-3.1 6.6-3 10.2l6.4-.7c.1-1.9.6-3.8 1.6-5.4" opacity=".4" fill="#7fba00"/>
    <path d="M30.6 16.3l4.1-5c-3-2.1-6.6-3.1-10.2-3l.7 6.5c1.8-.1 3.7.4 5.4 1.5" opacity=".8" fill="#7fba00"/>
    <path d="M22.8 15l-.7-6.5c-3.6.6-6.9 2.4-9.3 5.1l5 4.1c1.4-1.4 3.2-2.3 5-2.7" opacity=".6" fill="#7fba00"/>
    <path d="M15.1 27.2l-6.5.7c.6 3.6 2.4 6.9 5.1 9.4l4.1-5c-1.3-1.5-2.3-3.2-2.7-5.1" opacity=".25" fill="#7fba00"/>
    <path class="st5" d="M49.8 22.4c-.7-6.7-4-12.7-9.3-16.9-1-.8-2-1.5-3.1-2.1l-2 3.8c.8.5 1.6 1 2.4 1.6 9 7.1 10.5 20.2 3.3 29.2-3.5 4.4-8.5 7.1-14.1 7.7-3.7.4-7.4-.2-10.7-1.8l-2 3.8c12.5 5.8 27.3.4 33.2-12.1 2-4.1 2.8-8.7 2.3-13.2"/>
    <path class="st5" d="M11.9 41.1C3 33.9 1.7 20.9 8.9 12c6.5-8 17.8-10 26.6-4.8l2-3.8C26.8-2.8 13.3-.3 5.6 9.3-3.1 20-1.5 35.7 9.2 44.4c1.6 1.3 3.4 2.4 5.3 3.3l2-3.8c-1.7-.7-3.2-1.7-4.6-2.8"/>
    <path d="M11.9 41.1C3 33.9 1.7 20.9 8.9 12c6.5-8 17.8-10 26.6-4.8l2-3.8C26.8-2.8 13.3-.3 5.6 9.3-3.1 20-1.5 35.7 9.2 44.4c1.6 1.3 3.4 2.4 5.3 3.3l2-3.8c-1.7-.7-3.2-1.7-4.6-2.8" opacity=".2" fill="#fff"/>
    <path d="M36.4 12.6l-4.1 5c1 1 1.8 2.2 2.3 3.4h6.8c-.8-3.1-2.5-6.1-5-8.4z" fill="#7fba00"/>
    <path d="M23.1 27c-1.1-1.1-1.2-3 0-4.1.6-.6 1.3-.9 2.1-.9s1.5.3 2.1.8h14.9c1.2 0 2.1.9 2.1 2.1s-.9 2.1-2.1 2.1H27c-.5.5-1.2.8-1.9.8-.8.1-1.5-.2-2-.8" fill="#dd5900"/>
</svg>
