<svg xmlns="http://www.w3.org/2000/svg" viewBox="0 0 50 50" class="fxs-portal-svg">
    <circle cx="25" cy="25" r="21.756" class="msportalfx-svg-c01" fill="#fff"/>
    <path d="M44.948 33.683C40.152 44.7 27.333 49.744 16.316 44.948L33.683 5.052c11.018 4.795 16.061 17.614 11.265 28.631z" class="msportalfx-svg-c02" fill="#e5e5e5"/>
    <path d="M25 4.07c11.541 0 20.93 9.389 20.93 20.93S36.541 45.93 25 45.93 4.07 36.541 4.07 25 13.459 4.07 25 4.07m0-2C12.336 2.07 2.07 12.336 2.07 25S12.336 47.93 25 47.93 47.93 37.664 47.93 25 37.664 2.07 25 2.07z" class="msportalfx-svg-c03" fill="#a0a1a2"/>
    <path d="M10.131 16.951l.543-.94 2.915 1.683-.543.94zm14.412-8.912h1.085v3.366h-1.085zm6.817 5.005l1.683-2.915.941.543-1.683 2.915zm7.039 11.4h3.366v1.086h-3.366zm-2.103 7.615l.543-.94 2.914 1.682-.543.94z" class="msportalfx-svg-c04" fill="#7a7a7a"/>
    <path d="M36.296 32.059l.543-.94 2.914 1.682-.543.94zm-11.753 6.189h1.085v3.366h-1.085zM10.131 16.951l.543-.94 2.915 1.683-.543.94zm6.131 22.246l1.683-2.915.94.543-1.682 2.915z" class="msportalfx-svg-c04" fill="#7a7a7a"/>
    <path d="M16.262 39.197l1.683-2.915.94.543-1.682 2.915zM8.197 24.444h3.367v1.086H8.197z" class="msportalfx-svg-c04" fill="#7a7a7a"/>
    <path opacity=".5" d="M10.131 16.951l.543-.94 2.915 1.683-.543.94zm14.412-8.912h1.085v3.366h-1.085zm6.817 5.005l1.683-2.915.941.543-1.683 2.915zm7.039 11.4h3.366v1.086h-3.366zm-2.103 7.615l.543-.94 2.914 1.682-.543.94z" class="msportalfx-svg-c06" fill="#1e1e1e"/>
    <path opacity=".5" d="M36.296 32.059l.543-.94 2.914 1.682-.543.94zm-11.753 6.189h1.085v3.366h-1.085zM10.131 16.951l.543-.94 2.915 1.683-.543.94zm6.131 22.246l1.683-2.915.94.543-1.682 2.915z" class="msportalfx-svg-c06" fill="#1e1e1e"/>
    <path opacity=".5" d="M16.262 39.197l1.683-2.915.94.543-1.682 2.915z" class="msportalfx-svg-c06" fill="#1e1e1e"/>
    <path d="M16.108 10.614l.94-.543 1.683 2.915-.94.543zm20.338 7.231l2.915-1.683.543.94-2.915 1.683zm-5.232 18.934l.94-.543 1.683 2.914-.94.543z" class="msportalfx-svg-c04" fill="#7a7a7a"/>
    <path d="M31.214 36.779l.94-.543 1.683 2.914-.94.543zM16.108 10.614l.94-.543 1.683 2.915-.94.543zm-5.813 22.332l2.914-1.683.543.94-2.914 1.683z" class="msportalfx-svg-c04" fill="#7a7a7a"/>
    <path d="M10.295 32.946l2.914-1.683.543.94-2.914 1.683z" class="msportalfx-svg-c04" fill="#7a7a7a"/>
    <path opacity=".5" d="M16.108 10.614l.94-.543 1.683 2.915-.94.543zm20.338 7.231l2.915-1.683.543.94-2.915 1.683zm-5.232 18.934l.94-.543 1.683 2.914-.94.543z" class="msportalfx-svg-c06" fill="#1e1e1e"/>
    <path opacity=".5" d="M31.214 36.779l.94-.543 1.683 2.914-.94.543zM16.108 10.614l.94-.543 1.683 2.915-.94.543zm-5.813 22.332l2.914-1.683.543.94-2.914 1.683z" class="msportalfx-svg-c06" fill="#1e1e1e"/>
    <path opacity=".5" d="M10.295 32.946l2.914-1.683.543.94-2.914 1.683zm-2.098-8.502h3.367v1.086H8.197z" class="msportalfx-svg-c06" fill="#1e1e1e"/>
    <path d="M35.767 30.083l-9.309-2.529a1.893 1.893 0 01.993-3.653l9.309 2.529a1.893 1.893 0 01-.993 3.653z" class="msportalfx-svg-c04" fill="#7a7a7a"/>
    <path d="M25.096 27.623c-.94 0-1.703-.848-1.703-1.893V9.618c0-1.045.763-1.893 1.703-1.893s1.703.848 1.703 1.893V25.73c0 1.046-.762 1.893-1.703 1.893z" class="msportalfx-svg-c04" fill="#7a7a7a"/>
    <circle cx="25" cy="25" r="3.235" class="msportalfx-svg-c06" fill="#1e1e1e"/>
    <path opacity=".5" d="M25 47.93c12.664 0 22.93-10.266 22.93-22.93S37.664 2.07 25 2.07c-.176 0-.349.009-.523.013l-.084 4.022.999.021c8.613.182 16.015 6.149 17.999 14.512 2.404 10.14-3.889 20.346-14.028 22.751a18.93 18.93 0 01-4.362.513h-.002A18.837 18.837 0 016.61 29.361c-1.448-6.105.276-12.467 4.411-17.034l4.037 4.109L17.473 3.34C8.508 6.456 2.07 14.974 2.07 25c0 12.664 10.266 22.93 22.93 22.93z" class="msportalfx-svg-c01" fill="#fff"/>
    <path d="M14.423 14.363L4.611 4.377l12.033-2.052z" class="msportalfx-svg-c17" fill="#804998"/>
    <path d="M25.497 1.1l-.084 4.027c8.844.187 16.815 6.283 18.949 15.281 2.532 10.677-4.094 21.423-14.77 23.955S8.169 40.269 5.637 29.592c-1.868-7.877 1.258-15.78 7.308-20.406l-2.863-2.862C3.09 11.917-.458 21.225 1.745 30.516c3.046 12.843 15.927 20.785 28.77 17.739S51.3 32.328 48.254 19.485C45.687 8.657 36.129 1.314 25.497 1.1z" class="msportalfx-svg-c17" fill="#804998"/>
</svg>
