<svg xmlns="http://www.w3.org/2000/svg" width="50" height="50">
    <path fill="#3E3E3E" d="M43 3H6a6 6 0 00-6 6v35a6 6 0 006 6h37a6 6 0 006-6V9a6 6 0 00-6-6z"/>
    <path opacity=".9" fill="#FFF" d="M34 7h11v11H34zM19 7h11v11H19zM4 7h11v11H4zm30 14h11v11H34z"/>
    <path fill="#FCD116" d="M19 21h11v11H19z"/>
    <path opacity=".9" fill="#FFF" d="M4 21h11v11H4z"/>
    <path fill="#FCD116" d="M34 35h11v11H34z"/>
    <path opacity=".3" fill="#FFF" d="M34 35h11v2H34z"/>
    <path fill="#FCD116" d="M19 35h11v11H19zM4 35h11v11H4z"/>
    <path opacity=".3" fill="#FFF" d="M19 35h11v2H19zM4 35h11v2H4z"/>
    <path opacity=".6" fill="#FFF" d="M4 21h11v2H4z"/>
    <path opacity=".3" fill="#FFF" d="M19 21h11v2H19z"/>
    <path opacity=".6" fill="#FFF" d="M34 21h11v2H34zm0-14h11v2H34zM19 7h11v2H19zM4 7h11v2H4z"/>
    <path opacity=".15" fill="#FFF" d="M6 50h2.88L41.994 3H6a6 6 0 00-6 6v35a6 6 0 006 6z"/>
</svg>
