<svg xmlns="http://www.w3.org/2000/svg" viewBox="0 0 50 50" class="fxs-portal-svg">
    <path d="M50 35.5V14.588L35.368 0H14.662L0 15.029v20.397L14.632 50h20.736z" class="msportalfx-svg-c17" fill="#804998"/>
    <path opacity=".8" d="M34.538 2h-19.05L2 15.827v18.765L15.462 48h19.077L48 34.66V15.421L34.538 2zm-1.135 43.24h-.152l-11.28-11.446 2.382-2.662h-8.177v8.382l2.677-2.882 8.868 8.608H16.602L4.76 33.446V16.95l3.322-3.406 8.829 7.955-5.029 5.221h16.059V10.765L22.691 16l-8.885-8.323 2.846-2.917h16.745L45.24 16.567v14.745l-5.622-5.298 4.118-3.706H32.353v10.75l3.72-3.691 6.368 6.915-9.038 8.958z" class="msportalfx-svg-c01" fill="#fff"/>
    <path opacity=".2" d="M42.896 7.506L35.368 0H14.662L0 15.029v20.398l7.503 7.472z" class="msportalfx-svg-c01" fill="#fff"/>
</svg>
