<svg xmlns="http://www.w3.org/2000/svg" viewBox="0 0 50 50" class="fxs-portal-svg">
    <path d="M31 38H19c1.634 5.768-.386 7-10 7v3h32v-3c-9.614 0-11.636-1.229-10-7z" class="msportalfx-svg-c04" fill="#7a7a7a"/>
    <path d="M46.979 2H2.717C1.213 2 0 3.325 0 4.805v30.412c0 1.471 1.213 2.782 2.717 2.782h44.262c1.501 0 3.021-1.31 3.021-2.782V4.805C50 3.321 48.48 2 46.979 2" class="msportalfx-svg-c03" fill="#a0a1a2"/>
    <path opacity=".2" d="M47.01 2.003l-.031-.002H2.716c-1.504 0-2.717 1.324-2.717 2.805v30.411C-.001 36.69 1.212 38 2.716 38h1.053L47.01 2.003z" class="msportalfx-svg-c01" fill="#fff"/>
    <path d="M46 6v28H4V6z" class="msportalfx-svg-c15" fill="#59b4d9"/>
    <path d="M9 44.979L41 45v3H9z" class="msportalfx-svg-c03" fill="#a0a1a2"/>
    <path d="M25.517 4.095a.71.71 0 11-1.42 0 .71.71 0 011.42 0" class="msportalfx-svg-c13" fill="#b8d432"/>
    <path d="M25.027 18.802a.271.271 0 01-.13-.036l-8.56-4.858a.257.257 0 01-.128-.221c0-.091.05-.175.128-.22l8.508-4.826a.265.265 0 01.256 0l8.563 4.859a.25.25 0 01.127.22.251.251 0 01-.127.22l-8.505 4.825a.274.274 0 01-.132.037" class="msportalfx-svg-c01" fill="#fff"/>
    <path opacity=".7" d="M23.797 30.608a.245.245 0 01-.13-.034l-8.534-4.842a.25.25 0 01-.133-.221v-9.717c0-.092.05-.175.132-.221a.26.26 0 01.261 0l8.533 4.84a.265.265 0 01.126.223v9.717a.26.26 0 01-.126.221.274.274 0 01-.129.034" class="msportalfx-svg-c01" fill="#fff"/>
    <path opacity=".4" d="M26.213 30.608a.28.28 0 01-.134-.034.257.257 0 01-.125-.221v-9.656c0-.09.05-.174.125-.221l8.533-4.84a.257.257 0 01.257 0 .252.252 0 01.131.22v9.655a.25.25 0 01-.131.221l-8.53 4.842a.236.236 0 01-.126.034" class="msportalfx-svg-c01" fill="#fff"/>
    <path d="M15 8H6v9h3v-6h6zM6 23v9h9v-3H9v-6zm29 9h9v-9h-3v6h-6zm9-15V8h-9v3h6v6z" class="msportalfx-svg-c01" fill="#fff"/>
</svg>
