<svg xmlns="http://www.w3.org/2000/svg" viewBox="0 0 100 100"><g fill="none" fill-rule="evenodd"><rect fill="#965596" x="2" y="2" width="96" height="96" rx="48"/><path fill="#000" d="M67.189 16.143l2.267-2.06v73.692l-2.267-1.443z"/><path fill="#DDD" d="M26 69V25l43-12-3 73z"/><path fill="#CCAEF5" d="M34.824 39.549l6.39-6.182 11.54-2.473-7.419 9.273z"/><path d="M52.136 51.296l-.182 15.037-11.977-3.909s.412-13.807.412-13.6l11.747 2.472z" fill="#3F365D"/><path fill="#FFF" d="M52.754 30.893l-.618 20.402-6.8-11.129z"/><path fill="#8773C2" d="M34.824 39.549l10.511.618 6.801 11.129-11.748-2.473z"/><path fill="#F0F0F0" d="M66 16l3-3v75l-3-2z"/><path fill="#CFCFCF" d="M26 25l2.94-1.938L69 13l-3 3z"/><path d="M60.437 49.477c0 .99-.458 1.791-1.022 1.791-.566 0-1.024-.802-1.024-1.79 0-.989.458-1.79 1.024-1.79.564 0 1.022.801 1.022 1.79m-27.965-2.899c0 .8-.306 1.449-.683 1.449-.376 0-.681-.649-.681-1.449 0-.801.305-1.45.68-1.45.378 0 .684.649.684 1.45" fill="#848484"/><path d="M25.621 16l8.833 14m3.167-13.834l2.666 11m-20.522-.358L29.287 33" stroke="#FFF" stroke-width="2" stroke-linecap="round"/><rect x="2" y="2" width="96" height="96" rx="48" stroke="#742774" stroke-width="4"/></g></svg>