<svg xmlns="http://www.w3.org/2000/svg" xmlns:xlink="http://www.w3.org/1999/xlink" viewBox="0 0 100 100" version="1.1"><!-- Generator: Sketch 51.3 (57544) - http://www.bohemiancoding.com/sketch --><title>Create a PowerApp/get-started-with-powerapps</title><desc>Created with Sketch.</desc><defs></defs><g id="Badges-FINAL" stroke="none" stroke-width="1" fill="none" fill-rule="evenodd"><g id="Create-a-PowerApp" transform="translate(-577.000000, -320.000000)"><g id="Create-a-PowerApp/get-started-with-powerapps" transform="translate(577.000000, 320.000000)"><rect id="BG" fill="#965596" x="2" y="2" width="96" height="96" rx="48"></rect><g id="Switch" transform="translate(19.000000, 13.000000)"><polygon id="Fill-4228" fill="#000000" points="48.1887 3.1434 50.4557 1.0824 50.4557 74.7754 48.1887 73.3324"></polygon><polygon id="Fill-4273" fill="#DDDDDD" points="7 56 7 12 50 4.4408921e-16 47 73"></polygon><polygon id="Fill-4275" fill="#CCAEF5" points="15.8244 26.5487 22.2134 20.3667 33.7544 17.8937 26.3354 27.1667"></polygon><path d="M33.1359,38.2961 L32.9539,53.3331 L20.9769,49.4241 C20.9769,49.4241 21.3889,35.6171 21.3889,35.8231 L33.1359,38.2961 Z" id="Fill-4277" fill="#3F365D"></path><polygon id="Fill-4279" fill="#FFFFFF" points="33.7541 17.8934 33.1361 38.2954 26.3351 27.1664"></polygon><polygon id="Fill-4281" fill="#8773C2" points="15.8244 26.5487 26.3354 27.1667 33.1364 38.2957 21.3884 35.8227"></polygon><polygon id="Fill-4283" fill="#F0F0F0" points="47 3 50 0 50 75 47 73"></polygon><polygon id="Fill-4285" fill="#CFCFCF" points="7 12 9.94031213 10.062 50 0 47 3"></polygon><path d="M41.4367,36.4774 C41.4367,37.4664 40.9787,38.2684 40.4147,38.2684 C39.8487,38.2684 39.3907,37.4664 39.3907,36.4774 C39.3907,35.4894 39.8487,34.6874 40.4147,34.6874 C40.9787,34.6874 41.4367,35.4894 41.4367,36.4774" id="Fill-4287" fill="#848484"></path><path d="M13.4719,33.579 C13.4719,34.379 13.1659,35.028 12.7889,35.028 C12.4129,35.028 12.1079,34.379 12.1079,33.579 C12.1079,32.778 12.4129,32.129 12.7889,32.129 C13.1659,32.129 13.4719,32.778 13.4719,33.579" id="Fill-4289" fill="#848484"></path><path d="M6.6213,2.9999 L15.4543,16.9999" id="Stroke-4291" stroke="#FFFFFF" stroke-width="2" stroke-linecap="round"></path><path d="M18.6213,3.1659 L21.2873,14.1659" id="Stroke-4293" stroke="#FFFFFF" stroke-width="2" stroke-linecap="round"></path><path d="M0.764645123,13.8079338 L10.2873,19.9999" id="Stroke-4295" stroke="#FFFFFF" stroke-width="2" stroke-linecap="round"></path></g><g id="PowerApps-Border" stroke="#742774" stroke-width="4"><rect id="Azure-Border" x="2" y="2" width="96" height="96" rx="48"></rect></g></g></g></g></svg>