<svg xmlns="http://www.w3.org/2000/svg" xmlns:xlink="http://www.w3.org/1999/xlink" viewBox="0 0 100 100"><defs><rect id="a" x="0" y="0" width="96" height="96" rx="48"/><filter x="-1.6%" y="-1.5%" width="103.1%" height="106%" filterUnits="objectBoundingBox" id="c"><feOffset dy="2" in="SourceAlpha" result="shadowOffsetOuter1"/><feColorMatrix values="0 0 0 0 0 0 0 0 0 0 0 0 0 0 0 0 0 0 0.0985337409 0" in="shadowOffsetOuter1" result="shadowMatrixOuter1"/><feMerge><feMergeNode in="shadowMatrixOuter1"/><feMergeNode in="SourceGraphic"/></feMerge></filter><filter x="-.9%" y="-11.2%" width="101.8%" height="115%" filterUnits="objectBoundingBox" id="d"><feOffset dy=".25" in="SourceAlpha" result="shadowOffsetOuter1"/><feColorMatrix values="0 0 0 0 1 0 0 0 0 1 0 0 0 0 1 0 0 0 1 0" in="shadowOffsetOuter1" result="shadowMatrixOuter1"/><feMerge><feMergeNode in="shadowMatrixOuter1"/><feMergeNode in="SourceGraphic"/></feMerge></filter></defs><g fill="none" fill-rule="evenodd"><g transform="translate(2 2)"><mask id="b" fill="#fff"><use xlink:href="#a"/></mask><use fill="#B7D2F7" xlink:href="#a"/><g mask="url(#b)"><path d="M42.812 46.837a4.534 4.534 0 0 1 3.492 2.701 3.764 3.764 0 0 1 4.07-1.608c.698.174 1.248.585 1.763 1.012 2.121 1.76 8.279 6.823 8.279 6.823 2.352 2.06 3.434 5.266 2.682 8.282l-.953 3.823c-1.936 7.762-6.364 6.786-7.302 10.547l-.726 2.91L33.59 76.21c1.603-6.43.71-9.098-.763-12.557-1.473-3.46-2.025-4.37-.755-9.464.5-2.005 3.286-3.045 5.306-2.542l-1.27 5.094 1.59-6.378c.57-2.285 2.77-3.889 5.114-3.525z" fill="#84522D"/><path d="M58.153 83.88l-1.815 7.277-26.392-6.58 1.815-7.278a1.505 1.505 0 0 1 1.829-1.09l23.46 5.85a1.506 1.506 0 0 1 1.103 1.82z" fill="#E1E4E1"/><path d="M57.442 92.978L55.99 98.8l-29.324-7.312 1.451-5.822a1.505 1.505 0 0 1 1.83-1.09l26.391 6.58a1.506 1.506 0 0 1 1.104 1.822z" fill="#546670"/><path d="M41.306 85.863a1.506 1.506 0 0 0 1.829-1.09l1.089-4.366a1.505 1.505 0 0 1 1.829-1.09l9.53 2.376-2.177 8.733-23.46-5.85a1.505 1.505 0 0 1 1.83-1.09l9.53 2.377z" fill="#CDD3D1"/><path d="M39.491 93.14a1.506 1.506 0 0 0 1.83-1.09l.362-1.455a1.505 1.505 0 0 1 1.83-1.09l13.929 3.473L55.99 98.8l-29.324-7.312.362-1.455 12.463 3.107z" fill="#3C4E5D"/><path d="M51.373 82.962a2.258 2.258 0 0 1 1.655 2.732 2.258 2.258 0 0 1-2.743 1.635 2.258 2.258 0 0 1-1.655-2.732 2.258 2.258 0 0 1 2.743-1.635z" fill="#ADBDC4"/><path d="M51.01 84.418c.405.1.652.508.552.91a.753.753 0 0 1-.915.545.753.753 0 0 1-.551-.91c.1-.402.509-.646.914-.545z" fill="#7694A3"/><path d="M49.588 83.876c.734-.438 1.683-.474 2.386.015 1.502 1.045 1.31 3.04-.045 3.848l-.78-1.288a.745.745 0 0 0 .343-.46.756.756 0 1 0-1.123-.827l-.781-1.288z" fill="#8BA6B1"/><path d="M56.338 91.157l-2.932-.731 2.177-8.733 1.466.366a1.506 1.506 0 0 1 1.104 1.82l-1.815 7.278z" fill="#CDD3D1"/><path d="M55.583 81.693a1.506 1.506 0 0 1 1.103 1.821l-1.088 4.366c-.2.804.293 1.62 1.103 1.821l-.363 1.456-2.932-.731 2.177-8.733z" fill="#B9C3C4"/></g><g mask="url(#b)"><g filter="url(#c)" transform="translate(12.09 15)"><path fill="#A9B3B6" d="M27.38 38.621L18 48l1-16 8.38 6.621"/><path fill="#E1E4E1" d="M64 0L14 29 0 19 64 0"/><path d="M30.721 31.837a4.534 4.534 0 0 1 3.492 2.701 3.764 3.764 0 0 1 4.07-1.608c.698.174 1.248.585 1.763 1.012 2.121 1.76 8.28 6.823 8.28 6.823 2.351 2.06 3.433 5.266 2.681 8.282l-.953 3.823c-1.936 7.762-6.364 6.786-7.302 10.547l-.726 2.91L21.5 61.21C23.103 54.78 24.91 38 25.91 35s2.468-3.527 4.812-3.163z" fill="#84522D"/><path d="M36.197 39.74c.501-2.01 2.947-2.803 4.555-1.476l6.798 5.61c2.352 2.06 3.797 3.81 3.045 6.827l-.54 2.169c-1.936 7.762-6.365 6.787-7.302 10.547l-.726 2.91L21.5 61.21l.278-1.12a1.1 1.1 0 0 1 1.336-.797l5.689 1.419a2.093 2.093 0 0 0 2.543-1.516l4.85-19.456z" fill="#6D4526"/><path fill="#C5CCCD" d="M64 0L19 32l-1 16-4-19L64 0"/><path fill="#E1E4E1" d="M64 0L38 47l-10.62-8.379L19 32 64 0"/></g><g filter="url(#d)" transform="rotate(-45 77.113 -26.042)" fill="#1E1E1E" fill-rule="nonzero"><path d="M.793 5.83v-4.2A1.01 1.01 0 0 1 1.803.62h9.937a1.01 1.01 0 0 1 1.01 1.01v5.354a1.01 1.01 0 0 1-1.01 1.009H7.152v.524h4.588c.847-.001 1.534-.687 1.535-1.533V1.629C13.274.783 12.587.097 11.74.096H1.803C.956.097.27.783.269 1.63V5.83h.524z" stroke="#1E1E1E" stroke-width=".3" stroke-linecap="round" stroke-linejoin="round"/><path d="M7.167 4.779a.458.458 0 0 0 .457.458h2.133a.458.458 0 0 0 .457-.458V2.638a.458.458 0 0 0-.457-.459H7.624a.458.458 0 0 0-.457.459v.69h-.862c-.36 0-.68.231-.793.574l-1.31 3.96a.075.075 0 0 1-.072.052h-.814v-.688a.458.458 0 0 0-.457-.459H.726a.458.458 0 0 0-.457.459v2.14a.458.458 0 0 0 .457.46H2.86a.458.458 0 0 0 .457-.46V8.68h.814c.361 0 .681-.233.794-.575l1.31-3.96a.075.075 0 0 1 .072-.053h.861v.688zM2.554 9.06H1.03V7.53h1.524v1.53z"/></g></g></g><rect x="2" y="2" width="96" height="96" rx="48" stroke="#06F" stroke-width="4"/></g></svg>