<svg xmlns="http://www.w3.org/2000/svg" xmlns:xlink="http://www.w3.org/1999/xlink" viewBox="0 0 100 100" version="1.1"><!-- Generator: Sketch 51.3 (57544) - http://www.bohemiancoding.com/sketch --><title>configure-the-network-for-your-virtual-machines</title><desc>Created with Sketch.</desc><defs></defs><g id="Badges-FINAL" stroke="none" stroke-width="1" fill="none" fill-rule="evenodd"><g id="Adminster-infrastructure-resources-in-Azure" transform="translate(-576.000000, -1653.000000)"><g id="configure-the-network-for-your-virtual-machines" transform="translate(576.000000, 1653.000000)"><rect id="BG" fill="#D9EAF8" x="2" y="2" width="96" height="96" rx="48"></rect><g id="Lower-Connection" transform="translate(30.500000, 62.000000)"><path d="M35.2283774,18.5528947 L2.20396446,18.5528947 C1.33510788,18.5528947 0.631373366,17.8483738 0.631373366,16.9803036 C0.631373366,16.111447 1.33510788,15.4077125 2.20396446,15.4077125 L35.2283774,15.4077125 C36.0964477,15.4077125 36.8009685,16.111447 36.8009685,16.9803036 C36.8009685,17.8483738 36.0964477,18.5528947 35.2283774,18.5528947" id="Fill-453" fill="#182A37"></path><polygon id="Fill-455" fill="#182A37" points="16.3572843 16.9803036 21.0750576 16.9803036 21.0750576 0.468097103 16.3572843 0.468097103"></polygon><path d="M16.3572843,2.0399019 L16.3572843,2.82619744 L17.9298754,2.82619744 C18.3639105,2.82619744 18.7161709,3.17845785 18.7161709,3.61249299 L18.7161709,13.0480395 L21.0750576,13.0480395 L21.0750576,2.0399019 L16.3572843,2.0399019" id="Fill-473" fill="#12202B"></path><path d="M0.631373366,16.9803036 C0.631373366,17.8483738 1.33589417,18.5528947 2.20396446,18.5528947 L35.2283774,18.5528947 C36.0964477,18.5528947 36.8009685,17.8483738 36.8009685,16.9803036 L36.8009685,16.9795173 L0.631373366,16.9795173 L0.631373366,16.9803036" id="Fill-474" fill="#12202B"></path><path d="M25.0065353,20.1254857 C25.0065353,20.5579483 24.6527023,20.9117813 24.2202397,20.9117813 L13.2121021,20.9117813 C12.7796395,20.9117813 12.4258066,20.5579483 12.4258066,20.1254857 L12.4258066,13.8351214 C12.4258066,13.4026588 12.7796395,13.0488258 13.2121021,13.0488258 L24.2202397,13.0488258 C24.6527023,13.0488258 25.0065353,13.4026588 25.0065353,13.8351214 L25.0065353,20.1254857" id="Fill-475" fill="#30404D"></path><path d="M24.2202397,13.0488258 L18.7161709,13.0488258 L18.7161709,17.7658128 C18.7161709,18.6346694 18.0124364,19.3384039 17.1435798,19.3384039 L12.4258066,19.3384039 L12.4258066,20.1254857 C12.4258066,20.5579483 12.7796395,20.9117813 13.2121021,20.9117813 L24.2202397,20.9117813 C24.6527023,20.9117813 25.0065353,20.5579483 25.0065353,20.1254857 L25.0065353,13.8351214 C25.0065353,13.4026588 24.6527023,13.0488258 24.2202397,13.0488258" id="Fill-476" fill="#182A37"></path></g><g id="Top-Connection" transform="translate(46.857284, 49.428627)"><polygon id="Fill-454" fill="#182A37" points="0 7.99555039 4.71777327 7.99555039 4.71777327 0 0 0"></polygon><path d="M0,1.43939294 L1.57259109,1.43939294 C2.00662623,1.43939294 2.35888664,1.88714377 2.35888664,2.43883674 L2.35888664,7.78495748 L4.71777327,7.78495748 L4.71777327,0.439949145 L0,0.439949145 L0,1.43939294 Z" id="Fill-472" fill="#12202B"></path></g><g id="Comp" transform="translate(24.054713, 55.724200)"><path d="M47.1777327,0.78550925 L3.14518218,0.78550925 C1.40825532,0.78550925 0,2.19376457 0,3.93069143 L0,11.7936469 C0,13.5305737 1.40825532,14.9388291 3.14518218,14.9388291 L47.1777327,14.9388291 C48.9146596,14.9388291 50.3229149,13.5297875 50.3229149,11.7928606 L50.3229149,3.92990514 C50.3229149,2.19297828 48.9146596,0.78550925 47.1777327,0.78550925" id="Fill-464" fill="#30404D"></path><path d="M11.4689068,8.93388999 C10.85481,8.32057946 10.85481,7.32434301 11.4689068,6.71024619 C12.0822174,6.09614937 13.0792401,6.09693566 13.6925506,6.71024619 C14.3058612,7.32355671 14.3066475,8.32057946 13.6925506,8.93388999 C13.0792401,9.54798681 12.0822174,9.54798681 11.4689068,8.93388999" id="Fill-465" fill="#EFB252"></path><path d="M6.75663762,8.94804331 C6.1433271,8.33473278 6.1433271,7.33771003 6.75663762,6.72439951 C7.37073444,6.11030269 8.3669709,6.11108898 8.98106772,6.72439951 C9.59437825,7.33771003 9.59437825,8.33473278 8.98106772,8.94804331 C8.3669709,9.56214013 7.36994815,9.56214013 6.75663762,8.94804331" id="Fill-466" fill="#EFB252"></path><path d="M25.1614575,3.93069143 L25.1614575,11.7936469 C25.1614575,12.6625035 24.4577229,13.366238 23.5888664,13.366238 L0.436394028,13.366238 C0.981296841,14.302716 1.98382366,14.9388291 3.14518218,14.9388291 L47.1777327,14.9388291 C48.9146596,14.9388291 50.3229149,13.5297875 50.3229149,11.7928606 L50.3229149,3.92990514 C50.3229149,3.3543368 50.1570066,2.82201471 49.8873072,2.35810034 L26.7340486,2.35810034 C25.865192,2.35810034 25.1614575,3.06183485 25.1614575,3.93069143" id="Fill-467" fill="#182A37"></path><path d="M44.0325506,6.28957807 L34.597004,6.28957807 C33.7289337,6.28957807 33.0244129,6.99409888 33.0244129,7.86216916 C33.0244129,8.72945315 33.7289337,9.43476025 34.597004,9.43476025 L44.0325506,9.43476025 C44.9006208,9.43476025 45.6051416,8.72945315 45.6051416,7.86216916 C45.6051416,6.99409888 44.9006208,6.28957807 44.0325506,6.28957807" id="Fill-468" fill="#7CB65A"></path><path d="M34.597004,7.07587362 L44.0325506,7.07587362 C44.7638054,7.07587362 45.3739708,7.57831647 45.5493147,8.25531693 C45.5823391,8.12872335 45.6051416,7.99898459 45.6051416,7.86216916 C45.6051416,6.99409888 44.9006208,6.28957807 44.0325506,6.28957807 L34.597004,6.28957807 C33.7289337,6.28957807 33.0244129,6.99409888 33.0244129,7.86216916 C33.0244129,7.99898459 33.0472155,8.12872335 33.0802399,8.25531693 C33.2555838,7.57831647 33.8657492,7.07587362 34.597004,7.07587362" id="Fill-469" fill="#69994E"></path><path d="M13.108333,8.3496724 C12.5964546,8.8615508 11.8203809,8.94018035 11.2204374,8.59814179 C11.2880589,8.71765871 11.3666884,8.83245786 11.4689068,8.93388999 C12.0822174,9.54798681 13.0792401,9.54798681 13.6925506,8.93388999 C14.3066475,8.32057946 14.3058612,7.32355671 13.6925506,6.71024619 C13.5911185,6.60802777 13.4763194,6.53018451 13.3568024,6.46177679 C13.698841,7.0617203 13.6202114,7.837794 13.108333,8.3496724" id="Fill-470" fill="#D8A34B"></path><path d="M8.42515677,8.33551908 C7.91249208,8.84818378 7.13720467,8.92602703 6.53647487,8.58398847 C6.60488258,8.70350539 6.68351214,8.81830454 6.78494426,8.91973667 C7.39825479,9.53383349 8.39527754,9.53383349 9.00937436,8.91973667 C9.62268489,8.30642614 9.62268489,7.30940339 9.00937436,6.69609287 C8.90715594,6.59466074 8.79235679,6.51603119 8.67283987,6.44762347 C9.01487843,7.04756698 8.93703517,7.82364068 8.42515677,8.33551908" id="Fill-471" fill="#D8A34B"></path></g><g id="Virtual-Machine" transform="translate(29.473469, 11.428627)"><circle id="Bulb" fill="#12202B" cx="19.5669839" cy="21.9699468" r="17.2024454"></circle><g id="Right" transform="translate(20.253545, 13.265529)"><path d="M14.7442876,0.434944439 L1.16236196,8.15498441 C0.505713419,8.52822699 0.100090279,9.22535509 0.100090279,9.98066782 L0.100090279,25.2732383 C0.100090279,26.4330363 1.0402923,27.3732383 2.20009028,27.3732383 C2.57179739,27.3732383 2.93684431,27.2745778 3.25794536,27.0873338 L16.3932375,19.4277397 C17.3151116,18.8901664 17.882016,17.9033377 17.882016,16.8361746 L17.882016,2.26062785 C17.882016,1.10082988 16.9418139,0.160627854 15.782016,0.160627854 C15.4181839,0.160627854 15.0605935,0.255154499 14.7442876,0.434944439 Z" id="Back" fill="#50398A"></path><path d="M15.3715369,0.802420906 L1.7896112,8.52246088 C1.13296266,8.89570345 0.727339517,9.59283156 0.727339517,10.3481443 L0.727339517,25.6407148 C0.727339517,26.8005127 1.66754154,27.7407148 2.82733952,27.7407148 C3.19904663,27.7407148 3.56409354,27.6420542 3.8851946,27.4548103 L17.0204867,19.7952162 C17.9423609,19.2576429 18.5092652,18.2708141 18.5092652,17.2036511 L18.5092652,2.62810432 C18.5092652,1.46830635 17.5690632,0.528104321 16.4092652,0.528104321 C16.0454331,0.528104321 15.6878427,0.622630965 15.3715369,0.802420906 Z" id="Front" fill="#6D56A6"></path><path d="M0.727339517,24.8709168 L0.727339517,9.96515848 C0.727339517,9.44659034 1.00582448,8.96796948 1.45665365,8.71171574 L10.5098848,3.56581021 L0.727339517,24.8709168 Z" id="Shine" fill="#FFFFFF" opacity="0.203348214"></path><path d="M15.618615,1.23710743 L2.03668937,8.9571474 C1.53638572,9.2415227 1.22733952,9.77266792 1.22733952,10.3481443 L1.22733952,25.6407148 C1.22733952,26.5243704 1.94368392,27.2407148 2.82733952,27.2407148 C3.11054494,27.2407148 3.38867592,27.1655448 3.63332434,27.0228828 L16.7686165,19.3632887 C17.5368449,18.9153109 18.0092652,18.0929536 18.0092652,17.2036511 L18.0092652,2.62810432 C18.0092652,1.74444872 17.2929208,1.02810432 16.4092652,1.02810432 C16.1320598,1.02810432 15.85961,1.10012462 15.618615,1.23710743 Z" id="Rim" stroke="#6D57A4"></path></g><g id="Left" transform="translate(0.343280, 13.265529)"><path d="M0.911505031,2.2608746 L0.911505031,16.8226645 C0.911505031,17.8891552 1.47770119,18.8754678 2.39865719,19.4132805 L15.6849616,27.1721134 C16.6388001,27.7291286 17.863589,27.4074398 18.4206042,26.4536013 C18.5993384,26.147535 18.6935268,25.7994687 18.6935268,25.4450361 L18.6935268,9.98092747 C18.6935268,9.225613 18.2879018,8.52848356 17.6312509,8.15524165 L4.04922911,0.435188775 C3.04093067,-0.13793041 1.75893839,0.214852078 1.18581921,1.22315052 C1.00603082,1.53945532 0.911505031,1.89704415 0.911505031,2.2608746 Z" id="Back" fill="#684DAB"></path><path d="M0.246746931,2.6431132 L0.246746931,17.2049031 C0.246746931,18.2713938 0.812943091,19.2577064 1.73389909,19.7955191 L15.0202035,27.554352 C15.974042,28.1113672 17.1988309,27.7896784 17.7558461,26.8358399 C17.9345803,26.5297736 18.0287687,26.1817073 18.0287687,25.8272747 L18.0287687,10.3631661 C18.0287687,9.6078516 17.6231437,8.91072216 16.9664928,8.53748025 L3.38447101,0.817427374 C2.37617257,0.244308189 1.09418029,0.597090678 0.521061106,1.60538912 C0.341272717,1.92169392 0.246746931,2.27928275 0.246746931,2.6431132 Z" id="Front" fill="#8066C0"></path><path d="M10.6524013,4.94853592 L3.39089139,20.7631566 L1.26776736,19.5233111 C0.63547504,19.1540699 0.246746931,18.4769064 0.246746931,17.7446956 L0.246746931,1.51185625 C0.246746931,1.26206451 0.311644634,1.01655802 0.435080301,0.799395532 C0.828561488,0.107137312 1.70872718,-0.135069329 2.4009854,0.258411859 L10.6524013,4.94853592 Z" id="Shine" fill="#FFFFFF" opacity="0.196595982"></path><path d="M0.746746931,2.6431132 L0.746746931,17.2049031 C0.746746931,18.0936453 1.21857706,18.9155725 1.9860404,19.3637498 L15.2723448,27.1225827 C15.9877237,27.5403441 16.9063153,27.2990775 17.3240767,26.5836986 C17.4581274,26.3541489 17.5287687,26.0930991 17.5287687,25.8272747 L17.5287687,10.3631661 C17.5287687,9.78768838 17.2197211,9.25654214 16.7194156,8.97216735 L3.13739385,1.25211448 C2.36916647,0.815452239 1.39241044,1.0842389 0.955748207,1.85246628 C0.818766578,2.09346042 0.746746931,2.36590905 0.746746931,2.6431132 Z" id="Rim" stroke="#8066C0"></path></g><g id="Top" transform="translate(2.746243, 0.000000)"><path d="M1.31580272,11.8420156 L15.5460006,19.9373196 C16.404106,20.4254803 17.4558716,20.4256697 18.3141528,19.9378181 L32.5458342,11.8484534 C33.2180323,11.4663724 33.4532186,10.6117104 33.0711376,9.93951228 C32.9442256,9.71623509 32.758341,9.5321704 32.533826,9.4074613 L17.8164711,1.23256019 C17.2095894,0.895461698 16.4713088,0.89718428 15.8660067,1.23711108 L1.32254553,9.40445836 C0.64838024,9.78305751 0.408776544,10.6364917 0.787375693,11.310657 C0.911960969,11.532504 1.09464842,11.7162049 1.31580272,11.8420156 Z" id="Back" fill="#7454B8"></path><path d="M1.31580272,11.1554548 L15.5460006,19.2507587 C16.404106,19.7389195 17.4558716,19.7391089 18.3141528,19.2512572 L32.5458342,11.1618926 C33.2180323,10.7798116 33.4532186,9.92514952 33.0711376,9.25295144 C32.9442256,9.02967425 32.758341,8.84560956 32.533826,8.72090047 L17.8164711,0.545999355 C17.2095894,0.208900861 16.4713088,0.210623443 15.8660067,0.550550246 L1.32254553,8.71789753 C0.64838024,9.09649668 0.408776544,9.94993088 0.787375693,10.6240962 C0.911960969,10.8459431 1.09464842,11.0296441 1.31580272,11.1554548 Z" id="Front" fill="#A684D3"></path><path d="M18.4835375,19.1549781 L25.2666734,4.68428827 L33.2165074,9.10010261 C33.3706506,9.18572299 33.4982717,9.3120946 33.5854045,9.46538798 C33.8477263,9.92689285 33.6862566,10.5136704 33.2247517,10.7759922 L18.4835375,19.1549781 Z" id="Shine-2" fill="#FFFFFF" opacity="0.198158488"></path><polygon id="Shine-1" fill="#FFFFFF" opacity="0.195870536" points="19.2746566 1.35596299 23.0877582 3.47398817 15.661577 19.3165081 11.8674154 17.1580777 19.2746566 1.35596299"></polygon><path d="M1.56303744,10.7208573 L15.7932353,18.8161612 C16.4981076,19.2171504 17.3620579,19.217306 18.0670746,18.8165707 L32.298756,10.7272061 C32.7308834,10.4815826 32.8820746,9.93215695 32.6364511,9.50002962 C32.5548648,9.35649428 32.4353676,9.23816698 32.2910365,9.15799684 L17.5736816,0.983095734 C17.1185203,0.730271863 16.5648098,0.7315638 16.1108333,0.986508902 L1.5673721,9.15385618 C1.13398013,9.39724135 0.979949182,9.94587762 1.22333435,10.3792696 C1.30342488,10.5218855 1.42086681,10.639979 1.56303744,10.7208573 Z" id="Rim" stroke="#A684D3"></path></g></g><g id="Azure-Border" stroke="#0078D4" stroke-width="4"><rect x="2" y="2" width="96" height="96" rx="48"></rect></g></g></g></g></svg>