<svg xmlns="http://www.w3.org/2000/svg" viewBox="0 0 100 100"><g fill="none" fill-rule="evenodd"><rect fill="#C0DDF4" x="2" y="2" width="96" height="96" rx="48"/><ellipse fill="#000" opacity=".1" cx="50.5" cy="77.571" rx="32.883" ry="7.208"/><path d="M73.724 49.759v1.656H27.276v-1.656h-3.318v28.145c0 .911.746 1.656 1.659 1.656h49.766c.913 0 1.66-.745 1.66-1.656V49.76h-3.319" fill="#546670"/><path d="M28.934 75.421a.828.828 0 0 1-.829-.828V56.381c0-.457.37-.827.83-.827.458 0 .829.37.829.827v18.212c0 .458-.37.828-.83.828m3.318 0a.828.828 0 0 1-.83-.828V56.381c0-.457.372-.827.83-.827.459 0 .83.37.83.827v18.212a.828.828 0 0 1-.83.828m3.318 0a.828.828 0 0 1-.83-.828V56.381c0-.457.371-.827.83-.827.459 0 .83.37.83.827v18.212a.828.828 0 0 1-.83.828m3.318 0a.828.828 0 0 1-.83-.828V56.381c0-.457.371-.827.83-.827.458 0 .83.37.83.827v18.212a.829.829 0 0 1-.83.828m3.318 0a.828.828 0 0 1-.83-.828V56.381c0-.457.37-.827.83-.827.458 0 .829.37.829.827v18.212c0 .458-.37.828-.83.828m3.318 0a.828.828 0 0 1-.83-.828V56.381c0-.457.372-.827.83-.827.459 0 .83.37.83.827v18.212a.828.828 0 0 1-.83.828m3.318 0a.828.828 0 0 1-.83-.828V56.381c0-.457.371-.827.83-.827.459 0 .83.37.83.827v18.212a.828.828 0 0 1-.83.828m3.318 0a.828.828 0 0 1-.83-.828V56.381c0-.457.371-.827.83-.827.459 0 .83.37.83.827v18.212a.828.828 0 0 1-.83.828m3.318 0a.828.828 0 0 1-.83-.828V56.381c0-.457.371-.827.83-.827.458 0 .83.37.83.827v18.212a.829.829 0 0 1-.83.828m3.317 0a.828.828 0 0 1-.829-.828V56.381c0-.457.37-.827.83-.827.458 0 .829.37.829.827v18.212c0 .458-.37.828-.83.828m9.954 0a.828.828 0 0 1-.83-.828V56.381c0-.457.371-.827.83-.827.458 0 .83.37.83.827v18.212a.829.829 0 0 1-.83.828m3.318 0a.828.828 0 0 1-.83-.828V56.381c0-.457.37-.827.83-.827.458 0 .829.37.829.827v18.212c0 .458-.37.828-.83.828m-9.953 0a.828.828 0 0 1-.83-.828V56.381c0-.457.372-.827.83-.827.459 0 .83.37.83.827v18.212a.828.828 0 0 1-.83.828m3.318 0a.828.828 0 0 1-.83-.828V56.381c0-.457.371-.827.83-.827.459 0 .83.37.83.827v18.212a.828.828 0 0 1-.83.828" fill="#30404D"/><path d="M28.934 55.554a.828.828 0 0 0-.829.827v18.212c0 .458.37.828.83.828V57.209c0-.457.371-.828.829-.828a.828.828 0 0 0-.83-.827m3.318 0c-.458 0-.83.37-.83.827v18.212c0 .458.372.828.83.828V57.209a.83.83 0 0 1 .83-.828.828.828 0 0 0-.83-.827m3.318 0c-.459 0-.83.37-.83.827v18.212c0 .458.371.828.83.828V57.209a.83.83 0 0 1 .83-.828.828.828 0 0 0-.83-.827m3.318 0c-.459 0-.83.37-.83.827v18.212c0 .458.371.828.83.828V57.209c0-.457.371-.828.83-.828a.828.828 0 0 0-.83-.827m3.318 0c-.46 0-.83.37-.83.827v18.212c0 .458.37.828.83.828V57.209c0-.457.371-.828.829-.828a.828.828 0 0 0-.83-.827m3.318 0c-.458 0-.83.37-.83.827v18.212c0 .458.372.828.83.828V57.209a.83.83 0 0 1 .83-.828.828.828 0 0 0-.83-.827m3.318 0c-.459 0-.83.37-.83.827v18.212c0 .458.371.828.83.828V57.209a.83.83 0 0 1 .83-.828.828.828 0 0 0-.83-.827m3.318 0c-.459 0-.83.37-.83.827v18.212c0 .458.371.828.83.828V57.209c0-.457.371-.828.83-.828a.828.828 0 0 0-.83-.827m3.318 0c-.459 0-.83.37-.83.827v18.212c0 .458.371.828.83.828V57.209c0-.457.371-.828.83-.828a.828.828 0 0 0-.83-.827m3.317 0a.828.828 0 0 0-.829.827v18.212c0 .458.37.828.83.828V57.209c0-.457.371-.828.829-.828a.828.828 0 0 0-.83-.827m3.318 0c-.458 0-.83.37-.83.827v18.212c0 .458.372.828.83.828V57.209a.83.83 0 0 1 .83-.828.828.828 0 0 0-.83-.827m3.318 0c-.459 0-.83.37-.83.827v18.212c0 .458.371.828.83.828V57.209a.83.83 0 0 1 .83-.828.828.828 0 0 0-.83-.827m3.318 0c-.459 0-.83.37-.83.827v18.212c0 .458.371.828.83.828V57.209c0-.457.371-.828.83-.828a.828.828 0 0 0-.83-.827m3.318 0c-.46 0-.83.37-.83.827v18.212c0 .458.37.828.83.828V57.209c0-.457.371-.828.829-.828a.828.828 0 0 0-.83-.827" fill="#182A37"/><path d="M72.21 26.644c.006-.127.02-.25.02-.379 0-4.492-3.648-8.132-8.149-8.132a8.12 8.12 0 0 0-3.538.815C58.653 13.733 53.662 10 47.783 10a13.577 13.577 0 0 0-13.31 10.857c-.09-.002-.179-.014-.27-.014-7 0-12.676 5.664-12.676 12.651s5.675 12.65 12.676 12.65h1.856c-.017-.3-.045-.598-.045-.903 0-8.483 6.89-15.361 15.391-15.361 8.501 0 15.392 6.878 15.392 15.361 0 .305-.028.603-.045.904h2.762c5.5 0 9.959-4.45 9.959-9.94 0-4.555-3.074-8.386-7.262-9.561" fill="#FFF"/><path d="M70.2 26.3a9.926 9.926 0 0 1 2.01.344c.006-.127.02-.25.02-.379a8.11 8.11 0 0 0-3.37-6.577 8.075 8.075 0 0 1 1.559 4.77c0 .634-.08 1.249-.218 1.841M56.838 29.88a8.13 8.13 0 0 1 2.689.462 13.458 13.458 0 0 0 1.838-6.788c0-4.435-2.144-8.36-5.443-10.832a13.455 13.455 0 0 1 2.727 8.121 13.45 13.45 0 0 1-3.692 9.262 8.165 8.165 0 0 1 1.88-.225m-12.72 1.83a15.455 15.455 0 0 1 2.432-1.038 12.662 12.662 0 0 0-4.854-7.366 12.56 12.56 0 0 1 2.422 8.404m20.869 6.307v-.005a8.11 8.11 0 0 0-3.369-6.577 8.093 8.093 0 0 1 1.499 3.852 15.38 15.38 0 0 1 1.87 2.73m-28.972 7.224c0-.936.097-1.849.258-2.74a12.647 12.647 0 0 1-12.277-1.53c2.307 3.132 6.014 5.174 10.208 5.174h1.856c-.017-.301-.045-.599-.045-.904m39.051-17.288c1.37 2.031 2.009 4.593 1.538 7.313-.658 3.801-3.581 6.928-7.332 7.86-.884.22-1.75.31-2.59.3.07.597.116 1.2.116 1.815 0 .305-.028.603-.045.904h2.446c5.415 0 10.077-4.179 10.269-9.579a9.922 9.922 0 0 0-4.402-8.613" fill="#C5CCCD"/><path d="M51.405 58.788c-7.493 0-13.57-6.065-13.57-13.547s6.077-13.547 13.57-13.547c7.494 0 13.57 6.065 13.57 13.547S58.9 58.788 51.406 58.788z" stroke="#C0DDF4" stroke-width="3.6" fill="#8773C2"/><path d="M57.323 44.068l-4.527-5.422c-.688-.824-2.093-.824-2.781 0l-4.527 5.422a1.805 1.805 0 0 0 .231 2.546c.77.638 1.91.534 2.55-.232l1.326-1.587v5.851a1.81 1.81 0 1 0 3.621 0v-5.851l1.326 1.587c.357.429.873.65 1.391.65a1.808 1.808 0 0 0 1.39-2.964" fill="#FFFFFE"/><g stroke="#0078D4" stroke-width="4"><rect x="2" y="2" width="96" height="96" rx="48"/></g></g></svg>