<svg xmlns="http://www.w3.org/2000/svg" xmlns:xlink="http://www.w3.org/1999/xlink" viewBox="0 0 100 100"><defs><rect id="a" x="0" y="0" width="96" height="96" rx="48"/><filter x="-1.4%" y="-3.4%" width="102.8%" height="113.8%" filterUnits="objectBoundingBox" id="c"><feOffset dy="2" in="SourceAlpha" result="shadowOffsetOuter1"/><feColorMatrix values="0 0 0 0 0 0 0 0 0 0 0 0 0 0 0 0 0 0 0.0991564764 0" in="shadowOffsetOuter1" result="shadowMatrixOuter1"/><feMerge><feMergeNode in="shadowMatrixOuter1"/><feMergeNode in="SourceGraphic"/></feMerge></filter></defs><g fill="none" fill-rule="evenodd"><g transform="translate(2.5 2.5)"><mask id="b" fill="#fff"><use xlink:href="#a"/></mask><use fill="#55A2FF" xlink:href="#a"/><path d="M60.32 28.98c.77 0 1.515.105 2.23.283a9.243 9.243 0 0 1-.222-1.995 9.241 9.241 0 0 1 9.241-9.242c1.405 0 2.731.324 3.923.884 1.035-3.973 4.636-6.91 8.933-6.91a9.24 9.24 0 0 1 9.24 9.24c0 .791-.11 1.554-.296 2.286.632-.102 1.276-.17 1.938-.17 6.657 0 12.052 5.397 12.052 12.054 0 6.656-5.395 12.052-12.052 12.052H60.32a9.24 9.24 0 0 1-9.24-9.24 9.24 9.24 0 0 1 9.24-9.241M30.894 60.656c-.453 0-.894.045-1.326.116.128-.5.202-1.023.202-1.564a6.322 6.322 0 0 0-6.322-6.322 6.28 6.28 0 0 0-3.144.843 6.839 6.839 0 0 0-6.699-5.475c-3.678 0-6.67 2.908-6.823 6.547a6.726 6.726 0 0 0-.945-.073A6.837 6.837 0 0 0-1 61.565a6.821 6.821 0 0 0 2.85 5.545 6.287 6.287 0 0 0-1.216 3.715 6.322 6.322 0 0 0 6.322 6.323h23.938a8.246 8.246 0 0 0 0-16.492" fill="#FFF" mask="url(#b)"/><g filter="url(#c)" mask="url(#b)"><path fill="#EFB252" d="M14 65l43.457-4.511L64.5 48.5z"/><path fill="#EFB252" d="M57.27 38.9L14 65l40.5-6.5z"/><path fill="#F7CB64" d="M14 65l43.27-26.1L41.511 36zM66.5 41.5L14 65l71.5-20.5z"/></g><path d="M63.795 11.518a.738.738 0 0 1-.451-1.324 5.832 5.832 0 0 1 3.044-1.192.739.739 0 1 1 .12 1.473 4.399 4.399 0 0 0-2.264.89.736.736 0 0 1-.449.153m7.144 3.629a.738.738 0 0 1-.723-.6c-.135-.69-.365-1.7-.821-2.506a.74.74 0 0 1 1.285-.728c.565.995.832 2.162.986 2.954a.738.738 0 0 1-.727.88M60.4 17.753a.738.738 0 0 1-.712-.933c.13-.482.284-.982.454-1.488.167-.494.331-.932.501-1.339a.738.738 0 1 1 1.363.572 18.9 18.9 0 0 0-.464 1.239c-.16.476-.304.949-.428 1.404a.74.74 0 0 1-.714.545m11.128 4.572h-.042a.739.739 0 0 1-.697-.78c.022-.382.032-.78.032-1.18 0-.521-.018-1.065-.055-1.616a.74.74 0 0 1 1.475-.098c.038.584.059 1.16.059 1.714 0 .429-.013.853-.035 1.262a.74.74 0 0 1-.737.698M59.963 24.9a.738.738 0 0 1-.727-.612 15.646 15.646 0 0 1-.233-3.02.739.739 0 1 1 1.48.035 14.237 14.237 0 0 0 .21 2.73.739.739 0 0 1-.73.867m9.904 4.419a.739.739 0 0 1-.685-1.017 24.48 24.48 0 0 0 .904-2.652.74.74 0 0 1 1.423.396 25.796 25.796 0 0 1-.957 2.811.74.74 0 0 1-.685.462m-7.118 2.177a.733.733 0 0 1-.6-.309 16.925 16.925 0 0 1-1.535-2.595.74.74 0 0 1 1.334-.637c.396.83.867 1.627 1.4 2.371a.739.739 0 0 1-.6 1.17m5.39 4.702a.738.738 0 0 1-.342-.084 16.58 16.58 0 0 1-1.066-.612.739.739 0 0 1-1.106-.757 19.747 19.747 0 0 1-.36-.277.74.74 0 0 1 .917-1.159l.224.175c.316-.477.615-.95.891-1.413a.739.739 0 0 1 1.27.755c-.292.491-.607.99-.94 1.492.279.171.566.333.857.487a.737.737 0 0 1-.344 1.393m6.917 1.873l-.038-.001c-1-.05-2.004-.188-2.982-.407a.738.738 0 1 1 .323-1.442c.897.2 1.817.326 2.734.373a.74.74 0 0 1-.037 1.477m-13.245 3.143a.74.74 0 0 1-.552-1.23 92.366 92.366 0 0 0 1.874-2.17.739.739 0 0 1 1.134.949 99.686 99.686 0 0 1-1.903 2.203.737.737 0 0 1-.553.248" fill="#FDB82C" mask="url(#b)"/></g><rect x="2" y="2" width="96" height="96" rx="48" stroke="#0078D4" stroke-width="4"/></g></svg>