<svg xmlns="http://www.w3.org/2000/svg" xmlns:xlink="http://www.w3.org/1999/xlink" viewBox="0 0 100 118" version="1.1"><!-- Generator: Sketch 51.3 (57544) - http://www.bohemiancoding.com/sketch --><title>Cloud Foundations/cloud-foundations</title><desc>Created with Sketch.</desc><defs><linearGradient x1="9.71202567%" y1="68.8314094%" x2="89.1570201%" y2="62.3793386%" id="linearGradient-1"><stop stop-color="#A6ABAC" offset="0%"></stop><stop stop-color="#C9CECF" offset="100%"></stop></linearGradient></defs><g id="Badges" stroke="none" stroke-width="1" fill="none" fill-rule="evenodd"><g id="Cloud-Foundations" transform="translate(-578.000000, -147.000000)"><g id="Cloud-Foundations/cloud-foundations" transform="translate(578.000000, 147.000000)"><path d="M44.7425,3.49663266 C46.3745,2.49887755 48.1865,2 50,2 C51.8135,2 53.627,2.49887755 55.256,3.49663266 L92.591,26.3316189 C95.933,28.3773408 98,32.2031485 98,36.3529027 L98,81.6470973 C98,85.7952317 95.933,89.6242789 92.591,91.6683811 L55.256,114.504987 C53.627,115.501122 51.8135,116 50,116 C48.1865,116 46.3745,115.501122 44.7425,114.504987 L7.409,91.6683811 C4.0655,89.6242789 2,85.7952317 2,81.6470973 L2,36.3529027 C2,32.2031485 4.0655,28.3773408 7.409,26.3316189 L44.7425,3.49663266 Z" id="Trophy-1" fill="#C0DDF4"></path><g id="Brick" transform="translate(13.000000, 24.784091)"><path d="M13.22565,45.8244159 C11.5892409,46.785575 10.1538091,46.2827114 8.79237727,45.2240068 C8.72174091,45.1811205 8.65194545,45.1382341 8.58130909,45.0945068 C8.49974091,45.0457341 8.43078636,44.9994841 8.36183182,44.9515523 C8.39294545,44.769075 8.26428636,44.6505068 8.16758182,44.5151205 C7.30733182,43.3025295 6.92555909,41.947825 6.91967273,40.4661432 C6.90453636,36.4970523 8.17346818,32.8525523 10.0209455,29.4519159 C11.9264455,25.9444841 14.8881273,23.5117341 18.73865,22.2739159 C19.1893773,22.1292795 19.3096273,21.903075 19.3449455,21.4599159 C19.4702409,19.8756432 19.8646273,18.3493932 20.4625136,16.8752795 C21.7953545,13.5915295 23.9598545,10.9165977 26.4632409,8.453575 C28.2081273,6.73643864 30.2195818,5.56000682 32.57665,5.00668864 C35.8654455,4.23473409 38.3663091,5.10675682 39.6638318,8.324075 C39.8564,8.80087045 39.7874455,9.63337045 40.2213545,9.68298409 C40.6039682,9.72587045 41.0605818,9.07668864 41.4911273,8.74116591 C44.2551955,6.58927955 47.1689455,4.88727955 50.89165,5.62980227 C54.2107182,6.81212045 55.2568091,9.48200682 55.4460136,12.671575 C55.5771955,14.8966205 55.7147032,16.2230562 54.9815202,19.3386243 C54.4927315,21.4156698 53.8029174,22.7864322 52.9120778,23.4509117 L13.22565,45.8244159 Z" id="Fill-2992" fill="url(#linearGradient-1)"></path><path d="M50.8920705,5.63013864 C47.168525,4.886775 44.254775,6.58961591 41.4907068,8.74066136 C41.0610023,9.077025 40.6043886,9.72536591 40.221775,9.68247955 C39.7878659,9.63370682 39.8568205,8.80120682 39.6634114,8.32357045 C38.3658886,5.10709318 35.8658659,4.23507045 32.5770705,5.007025 C30.2191614,5.56034318 28.2077068,6.73593409 26.4628205,8.45307045 C23.960275,10.9160932 21.7949341,13.5918659 20.4620932,16.8756159 C19.8650477,18.3497295 19.4706614,19.8751386 19.344525,21.4594114 C19.3092068,21.9034114 19.1897977,22.1296159 18.7390705,22.2742523 C14.8885477,23.5120705 11.926025,25.9439795 10.020525,29.4514114 C8.17304773,32.8528886 6.90411591,36.4973886 6.92009318,40.4664795 C6.92597955,41.9473205 7.30775227,43.3028659 8.16716136,44.5146159 C8.26470682,44.6500023 8.39336591,44.7694114 8.36561591,44.9594568 C7.01679773,44.4540705 5.79075227,43.699775 4.51257045,43.0531159 C0.973184091,41.2611386 -0.293225,38.8124114 0.202070455,34.6448659 C0.873956818,28.9939568 3.46143409,24.3311159 7.65841136,20.5445023 C8.87941136,19.4429114 10.2912977,18.6146159 11.9293886,18.2774114 C12.434775,18.1731386 12.4600023,17.8224795 12.5432523,17.4533205 C13.7180023,12.3136841 16.1314114,7.87200227 20.0374341,4.29309318 C22.0690705,2.43132045 24.3512977,1.01691136 27.1624568,0.678865909 C28.5936841,0.506479545 29.9593205,0.630934091 31.2442295,1.42559318 C32.5669795,2.24547955 33.9679341,2.93670682 35.3150705,3.72043409 C35.7456159,3.97018409 36.0508659,3.96429773 36.4645932,3.66493409 C38.2784341,2.35395682 40.2907295,1.58788864 42.562025,1.658525 C43.7283659,1.69468409 44.8156614,2.00413864 45.8281159,2.62725227 C47.4990023,3.65484318 49.2018432,4.63197955 50.8920705,5.63013864" id="Fill-2996" fill="#7C8182"></path></g><g id="Brick" transform="translate(47.000000, 43.784091)"><path d="M1.58491818,13.7075795 C0.951713636,12.0585568 0.605259091,10.3531932 0.729713636,8.58728409 C0.896213636,6.25292045 1.71021364,4.45589773 4.14632727,3.630125 C4.88632727,3.66880682 5.62969091,3.55276136 6.36800909,3.70832955 C8.18857727,4.09178409 9.66100909,5.11264773 11.0451455,6.27478409 C11.4521455,6.61619318 11.5715545,6.701125 11.7515091,6.09651136 C12.2283045,4.49457955 13.1617136,3.33160227 14.9612591,3.12810227 C16.2444864,2.98346591 17.4368955,3.32655682 18.5696,3.852125 C21.1486682,5.04789773 22.8666455,7.16867045 24.3617818,9.47696591 C25.4255318,11.1184205 26.2294409,12.8843295 26.2109409,14.9083977 C26.2067364,15.3759432 26.5498273,15.4314432 26.8626455,15.5390795 C29.2356909,16.3556023 31.0688727,17.8625114 32.5001,19.9033977 C33.3527818,21.1201932 33.8169636,22.5076932 34.3088955,23.8808977 C34.7369182,25.0766705 35.0749636,26.3178523 35.0850545,27.5859432 C35.0959864,28.9692386 34.93285,30.3550568 34.1196909,31.5592386 L34.1222136,31.5583977 C33.9977591,31.555875 33.9035773,31.6054886 33.8447136,31.7181705 C32.6766909,32.7003523 31.5246455,32.7550114 30.1691,31.9519432 C21.9887364,27.106625 13.7856682,22.2974659 5.56494091,17.5194205 C3.90919091,16.5574205 2.48889545,15.4205114 1.58491818,13.7075795" id="Fill-2994" fill="url(#linearGradient-1)"></path><path d="M34.1200273,31.5588182 C34.9331864,30.3546364 35.0954818,28.9696591 35.08455,27.5855227 C35.0753,26.3182727 34.7364136,25.07625 34.3092318,23.8804773 C33.8173,22.5072727 33.3531182,21.1206136 32.4995955,19.9038182 C31.0683682,17.8629318 29.2351864,16.3560227 26.8621409,15.5386591 C26.5501636,15.4310227 26.2070727,15.3763636 26.2112773,14.9079773 C26.2289364,12.88475 25.4250273,11.118 24.3621182,9.47654545 C22.8661409,7.16825 21.1481636,5.04831818 18.5699364,3.85254545 C17.4363909,3.32697727 16.2439818,2.98388636 14.9615955,3.12768182 C13.1612091,3.33202273 12.2286409,4.49415909 11.7510045,6.09693182 C11.5718909,6.70070455 11.4524818,6.61661364 11.0454818,6.27520455 C9.66050455,5.11306818 8.18807273,4.09220455 6.36834545,3.70875 C5.62918636,3.55234091 4.88582273,3.66838636 4.14582273,3.62970455 C5.5123,2.70975 6.89391364,1.77381818 8.42100455,1.18097727 C10.4484364,0.393886364 12.3236636,1.11202273 14.0466864,2.23127273 C14.4318227,2.48102273 14.7152091,2.50540909 15.0868909,2.28845455 C15.7478455,1.90331818 16.4357091,1.56359091 17.0874136,1.16331818 C18.1225727,0.527590909 19.1854818,0.0196818182 20.4476864,0.158431818 C23.2891182,0.447704545 25.3417773,2.08831818 27.1388,4.12163636 C29.1300727,6.37275 30.4074136,9.00563636 31.0767773,11.9252727 C31.1894591,12.4180455 31.3879136,12.6181818 31.8756409,12.7577727 C33.4422545,13.2051364 34.6893227,14.1831136 35.7404591,15.3915 C38.2808455,18.3145 39.9635045,21.6083409 39.8752091,25.5908864 C39.8306409,27.5846818 39.1394136,29.2261364 37.1363682,30.07125 C36.1045727,30.5076818 35.1753682,31.1635909 34.1200273,31.5588182" id="Fill-2998" fill="#7C8182"></path></g><g id="Tool" transform="translate(27.000000, 53.784091)"><path d="M35.58555,30.0500659 C36.8376636,31.7470205 38.10155,33.4338841 39.3360045,35.1442932 C39.6807773,35.6219295 39.6143455,36.154225 39.2443455,36.6099977 C38.8709818,37.0708159 38.3891409,37.1607932 37.8206864,36.9917705 C34.0307091,35.8683159 30.2373682,34.757475 26.44655,33.638225 C19.6461182,31.6301341 12.8465273,29.6161568 6.04441364,27.6122705 C5.4583,27.4390432 4.96720909,27.1884523 4.86461818,26.5140432 C4.75950455,25.8211341 5.10343636,25.387225 5.68114091,25.0609523 C7.36884545,24.1090432 8.96152727,22.991475 10.6946409,22.1160886 C10.9881182,22.2195205 11.2799136,22.3313614 11.5759136,22.4263841 C16.8643909,24.110725 22.1537091,25.7933841 27.4438682,27.4743614 C30.1574818,28.3362932 32.8710955,29.1914977 35.58555,30.0500659" id="Fill-3000" fill="#8BA6B1"></path><path d="M35.58555,30.0500659 C32.8710955,29.1914977 30.1574818,28.3362932 27.4438682,27.4743614 C22.1537091,25.7933841 16.8643909,24.110725 11.5759136,22.4263841 C11.2799136,22.3313614 10.9881182,22.2195205 10.6946409,22.1160886 C12.6203227,20.8000659 14.6612091,19.6698841 16.6482773,18.4539295 C16.5271864,18.8903614 16.4161864,19.3309977 16.2833227,19.7649068 C15.9637773,20.8067932 15.9486409,20.826975 16.91905,21.2911568 C17.2587773,21.4542932 17.7212773,22.038725 17.9996182,21.5005432 C18.2182545,21.0775659 17.4883455,21.0195432 17.1973909,20.7798841 C17.0039818,20.6209523 16.6146409,20.632725 16.7853455,20.1786341 C17.0687318,19.4192932 17.2991409,18.6406114 17.5522545,17.8703386 C19.2349136,16.8637705 20.9192545,15.859725 22.6002318,14.8497932 C23.6892091,14.1955659 24.1702091,14.2788159 24.9001182,15.2820205 C28.3503682,20.022225 31.7980955,24.7641114 35.2449818,29.5068386 C35.3702773,29.6800659 35.4720273,29.8684295 35.58555,30.0500659" id="Fill-3002" fill="#ADBDC4"></path><path d="M8.63374091,11.2962795 C7.79955909,10.3494159 6.79635455,9.58166591 5.86126364,8.74496136 C4.87992273,7.86789318 4.02135455,6.88150682 3.14008182,5.91277955 C3.01899091,5.779075 2.99880909,5.61509773 2.99712727,5.44523409 C3.33517273,3.35305227 4.41321818,2.12952955 6.32124091,2.27416591 L6.31871818,2.27164318 C6.38515,2.37759773 6.48858182,2.40702955 6.60546818,2.40787045 C8.24860455,3.337075 9.74037727,4.48155227 11.1346045,5.742075 C11.8880591,6.42405227 12.7516727,7.00512045 13.3201273,7.88387045 C13.4378545,8.06634773 13.6346273,8.17314318 13.8566273,8.21434773 C14.0063091,8.81391591 14.5411273,9.14102955 14.8531045,9.627075 C15.0692182,9.96259773 15.3055136,10.2855068 15.5317182,10.6143023 C14.9708318,10.6344841 14.4385364,10.367075 13.8448545,10.5730977 C12.4977182,11.042325 11.8106955,12.0648705 11.3591273,13.3220295 C10.3937636,12.7241432 9.63694545,11.8437114 8.63374091,11.2962795" id="Fill-3004" fill="#6D4526"></path><path d="M11.3593795,13.3221977 C11.8109477,12.0650386 12.4979705,11.0424932 13.8451068,10.572425 C14.4387886,10.3664023 14.9710841,10.6346523 15.5319705,10.6144705 C16.1870386,11.4461295 16.7403568,12.3383341 17.1574477,13.3129477 C15.3579023,13.4298341 14.7751523,14.059675 14.8121523,15.8516523 C13.6062886,15.0839023 12.465175,14.2270159 11.3593795,13.3221977" id="Fill-3006" fill="#84522D"></path><path d="M14.8124886,15.8514841 C14.7754886,14.0595068 15.3573977,13.4296659 17.1569432,13.3127795 C17.9667386,14.1469614 17.9995341,14.714575 17.297375,15.6984386 C16.8954205,15.5865977 16.7785341,15.1619386 16.474125,14.9399386 C16.3530341,14.8524841 16.2210114,14.7532568 16.0889886,14.8449159 C15.9081932,14.9685295 16.0048977,15.1257795 16.0881477,15.2805068 C16.2664205,15.6135068 16.622125,15.8313023 16.6919205,16.2298932 C15.7795341,16.6520295 15.4894205,16.5940068 14.8124886,15.8514841" id="Fill-3008" fill="#6D4526"></path><path d="M16.6922568,16.2300614 C16.6224614,15.8306295 16.2659159,15.613675 16.0876432,15.280675 C16.0052341,15.1259477 15.9076886,14.9686977 16.0884841,14.8450841 C16.2205068,14.753425 16.3533705,14.8518114 16.4736205,14.9401068 C16.7788705,15.1612659 16.8949159,15.585925 17.2977114,15.6986068 C17.8585977,16.3662886 17.8258023,17.1046068 17.5516659,17.8698341 C17.2993932,18.6401068 17.0689841,19.4196295 16.7847568,20.1781295 C16.6148932,20.6322205 17.0042341,20.6212886 17.1976432,20.7793795 C17.4885977,21.0190386 18.2176659,21.0779023 17.9998705,21.5008795 C17.7215295,22.0382205 17.2590295,21.4546295 16.9193023,21.2914932 C15.9488932,20.8273114 15.9640295,20.8062886 16.283575,19.7644023 C16.4164386,19.3313341 16.5274386,18.8906977 16.6485295,18.4542659 C16.7881205,18.0497886 16.9201432,17.6436295 17.0664614,17.241675 C17.2312795,16.7934705 17.1328932,16.4512205 16.6922568,16.2300614" id="Fill-3010" fill="#6A6D6F"></path><path d="M6.32124091,2.27374545 C4.41321818,2.12910909 3.33517273,3.35263182 2.99712727,5.44481364 C2.6759,5.41201818 2.48837727,5.17067727 2.3244,4.94951818 C1.75510455,4.18260909 1.23205909,3.38122273 0.835990909,2.51088182 C0.541672727,1.86590455 0.644263636,1.20915455 1.10844545,0.704609091 C1.56001364,0.214359091 2.23021818,0.0697227273 2.82894545,0.337131818 C4.04405909,0.882040909 5.27094545,1.42442727 6.32124091,2.27374545" id="Fill-3018" fill="#84522D"></path></g><g id="Azure-Hex-Border" stroke="#0078D4" stroke-width="4"><path d="M45.5620172,3.25834249 L6.67338401,26.8942953 C3.79673288,28.6432593 2,31.9508238 2,35.5582677 L2,82.4417323 C2,86.0486597 3.79764663,89.3586805 6.67318764,91.1055853 L45.560618,114.742485 C46.9289662,115.572418 48.4546283,116 50,116 C51.5458817,116 53.0723633,115.572188 54.4362178,114.743457 L93.3268764,91.1055464 C96.2016145,89.3583456 98,86.0476286 98,82.4417323 L98,35.5582677 C98,31.9518547 96.202529,28.6435953 93.3268966,26.8944659 L54.4351916,3.25759524 C53.0721095,2.42798656 51.5462432,2 50,2 C48.4543284,2 46.9293388,2.42772325 45.5620146,3.25834407 Z M45.5620146,3.25834407 C45.5619597,3.25837737 45.5619049,3.25841067 45.5618501,3.25844398 L45.5621963,3.25823359 L45.5620172,3.25834249 Z"></path></g></g></g></g></svg>