<svg xmlns="http://www.w3.org/2000/svg" viewBox="0 0 100 100"><defs><filter x="-1.6%" y="-1.7%" width="103.1%" height="106.7%" filterUnits="objectBoundingBox" id="a"><feOffset dy="2" in="SourceAlpha" result="shadowOffsetOuter1"/><feColorMatrix values="0 0 0 0 0 0 0 0 0 0 0 0 0 0 0 0 0 0 0.0977977808 0" in="shadowOffsetOuter1" result="shadowMatrixOuter1"/><feMerge><feMergeNode in="shadowMatrixOuter1"/><feMergeNode in="SourceGraphic"/></feMerge></filter></defs><g fill="none" fill-rule="evenodd"><rect fill="#55A2FF" fill-rule="nonzero" x="2" y="2" width="96" height="96" rx="48"/><g filter="url(#a)" transform="translate(18 20)"><path d="M54 59c0 .55-.45 1-1 1h-6c-.55 0-1-.45-1-1v-1c0-.55.45-1 1-1h6c.55 0 1 .45 1 1v1" fill="#30404D"/><path d="M53 57h-3v3h3c.55 0 1-.45 1-1v-1c0-.55-.45-1-1-1" fill="#182A37"/><path d="M18 59c0 .55-.45 1-1 1h-6c-.55 0-1-.45-1-1v-1c0-.55.45-1 1-1h6c.55 0 1 .45 1 1v1" fill="#30404D"/><path d="M17 57h-3v3h3c.55 0 1-.45 1-1v-1c0-.55-.45-1-1-1" fill="#182A37"/><path d="M64 56c0 1.1-.9 2-2 2H2c-1.1 0-2-.9-2-2V2C0 .9.9 0 2 0h60c1.1 0 2 .9 2 2v54" fill="#30404D"/><path d="M62 0H32v54H6c-1.1 0-2-.9-2-2v1c0 1.1.9 2 2 2h24c1.1 0 2 .895 2 2v1h30c1.1 0 2-.9 2-2V2c0-1.1-.9-2-2-2" fill="#182A37"/><path d="M60 52c0 1.1-.9 2-2 2H6c-1.1 0-2-.9-2-2V6c0-1.1.9-2 2-2h52c1.1 0 2 .9 2 2v46" fill="#546670"/><path d="M32 8v42c0 1.104-.9 2-2 2H4c0 1.1.9 2 2 2h52c1.1 0 2-.9 2-2V6H34c-1.1 0-2 .895-2 2" fill="#30404D"/><path d="M5 21c0 .549-.45 1-1 1H3c-.55 0-1-.451-1-1v-6c0-.551.45-1 1-1h1c.55 0 1 .449 1 1v6m0 22c0 .549-.45 1-1 1H3c-.55 0-1-.451-1-1v-6c0-.551.45-1 1-1h1c.55 0 1 .449 1 1v6" fill="#182A37"/><path d="M32 40.979c-6.46 0-11.71-5.094-12-11.479-.01.182-.03.361-.03.546 0 6.641 5.39 12.025 12.03 12.025s12.03-5.384 12.03-12.025c0-.185-.02-.364-.03-.546-.29 6.385-5.54 11.479-12 11.479M11 9c0 1.104-.9 2-2 2s-2-.896-2-2c0-1.105.9-2 2-2s2 .895 2 2m0 40c0 1.104-.9 2-2 2s-2-.896-2-2c0-1.105.9-2 2-2s2 .895 2 2" fill="#30404D"/><path d="M44.03 28.953c0 6.641-5.39 12.026-12.03 12.026s-12.03-5.385-12.03-12.026S25.36 16.928 32 16.928s12.03 5.384 12.03 12.025" fill="#6E828F"/><path d="M32 39c-.55 0-1-.448-1-1v-1c0-.552.45-1 1-1s1 .448 1 1v1c0 .552-.45 1-1 1m0-17c-.55 0-1-.448-1-1v-1c0-.552.45-1 1-1s1 .448 1 1v1c0 .552-.45 1-1 1m-8 8h-1c-.55 0-1-.448-1-1s.45-1 1-1h1c.55 0 1 .448 1 1s-.45 1-1 1m17 0h-1c-.55 0-1-.448-1-1s.45-1 1-1h1c.55 0 1 .448 1 1s-.45 1-1 1m-15.36 6.363a1 1 0 0 1-.71-1.707l.71-.707a.996.996 0 0 1 1.41 0 1 1 0 0 1 0 1.414l-.71.707a.979.979 0 0 1-.7.293m12.02-12.02a1 1 0 0 1-.71-1.707l.71-.708a.996.996 0 0 1 1.41-.001 1 1 0 0 1 0 1.414l-.7.708c-.2.196-.46.294-.71.294m-11.32 0c-.25 0-.51-.098-.71-.294l-.7-.708a1 1 0 0 1 0-1.414.996.996 0 0 1 1.41.001l.71.708a1 1 0 0 1-.71 1.707m12.02 12.02a.979.979 0 0 1-.7-.293l-.71-.707a1 1 0 0 1 0-1.414.996.996 0 0 1 1.41 0l.71.707a1 1 0 0 1-.71 1.707" fill="#546670"/><path d="M37 30h-.1a5 5 0 0 1-4.9 4c-2.59 0-4.7-1.977-4.95-4.5-.02.166-.05.328-.05.5a5 5 0 0 0 9.9 1h.1c.55 0 1-.448 1-1a.95.95 0 0 0-.15-.5c-.18.293-.48.5-.85.5" fill="#30404D"/><path d="M37 28h-.1a5 5 0 1 0 0 2h.1a1.001 1.001 0 0 0 0-2" fill="#ADBDC4"/><path d="M51 41c-1.1 0-2-.896-2-2V19c0-1.105.9-2 2-2s2 .895 2 2v20c0 1.104-.9 2-2 2" fill="#6E828F"/><path d="M10.41 50.414c.79-.781.79-2.047 0-2.828l-2.82 2.828a1.99 1.99 0 0 0 2.82 0m0-39.999c.79-.782.79-2.048 0-2.829l-2.82 2.829c.78.78 2.04.78 2.82 0" fill="#182A37"/><path d="M57 49c0 1.104-.9 2-2 2s-2-.896-2-2c0-1.105.9-2 2-2s2 .895 2 2m0-40c0 1.104-.9 2-2 2s-2-.896-2-2c0-1.105.9-2 2-2s2 .895 2 2" fill="#30404D"/><path d="M56.41 50.414c.79-.781.78-2.047 0-2.828l-2.82 2.828a1.99 1.99 0 0 0 2.82 0m0-39.999c.79-.782.78-2.048 0-2.829l-2.82 2.829c.78.78 2.04.78 2.82 0" fill="#182A37"/></g><rect x="2" y="2" width="96" height="96" rx="48" stroke="#0078D4" stroke-width="4"/></g></svg>