<svg xmlns="http://www.w3.org/2000/svg" xmlns:xlink="http://www.w3.org/1999/xlink" viewBox="0 0 100 118" version="1.1"><!-- Generator: Sketch 51.3 (57544) - http://www.bohemiancoding.com/sketch --><title>administer-infrastructure-resources-in-azure</title><desc>Created with Sketch.</desc><defs><filter x="-2.2%" y="-3.7%" width="104.3%" height="114.8%" filterUnits="objectBoundingBox" id="filter-1"><feOffset dx="0" dy="2" in="SourceAlpha" result="shadowOffsetOuter1"></feOffset><feColorMatrix values="0 0 0 0 0   0 0 0 0 0   0 0 0 0 0  0 0 0 0.0996376812 0" type="matrix" in="shadowOffsetOuter1" result="shadowMatrixOuter1"></feColorMatrix><feMerge><feMergeNode in="shadowMatrixOuter1"></feMergeNode><feMergeNode in="SourceGraphic"></feMergeNode></feMerge></filter><filter x="-2.2%" y="-2.6%" width="104.3%" height="110.3%" filterUnits="objectBoundingBox" id="filter-2"><feOffset dx="0" dy="2" in="SourceAlpha" result="shadowOffsetOuter1"></feOffset><feColorMatrix values="0 0 0 0 0   0 0 0 0 0   0 0 0 0 0  0 0 0 0.0996376812 0" type="matrix" in="shadowOffsetOuter1" result="shadowMatrixOuter1"></feColorMatrix><feMerge><feMergeNode in="shadowMatrixOuter1"></feMergeNode><feMergeNode in="SourceGraphic"></feMergeNode></feMerge></filter><filter x="-3.3%" y="-3.3%" width="106.7%" height="113.3%" filterUnits="objectBoundingBox" id="filter-3"><feOffset dx="0" dy="2" in="SourceAlpha" result="shadowOffsetOuter1"></feOffset><feColorMatrix values="0 0 0 0 0   0 0 0 0 0   0 0 0 0 0  0 0 0 0.102072011 0" type="matrix" in="shadowOffsetOuter1" result="shadowMatrixOuter1"></feColorMatrix><feMerge><feMergeNode in="shadowMatrixOuter1"></feMergeNode><feMergeNode in="SourceGraphic"></feMergeNode></feMerge></filter><filter x="-3.3%" y="-3.3%" width="106.7%" height="113.3%" filterUnits="objectBoundingBox" id="filter-4"><feOffset dx="0" dy="2" in="SourceAlpha" result="shadowOffsetOuter1"></feOffset><feColorMatrix values="0 0 0 0 0   0 0 0 0 0   0 0 0 0 0  0 0 0 0.101619112 0" type="matrix" in="shadowOffsetOuter1" result="shadowMatrixOuter1"></feColorMatrix><feMerge><feMergeNode in="shadowMatrixOuter1"></feMergeNode><feMergeNode in="SourceGraphic"></feMergeNode></feMerge></filter></defs><g id="Badges-FINAL" stroke="none" stroke-width="1" fill="none" fill-rule="evenodd"><g id="Adminster-infrastructure-resources-in-Azure" transform="translate(-576.000000, -144.000000)"><g id="administer-infrastructure-resources-in-azure" transform="translate(576.000000, 144.000000)"><path d="M44.7425,3.49663266 C46.3745,2.49887755 48.1865,2 50,2 C51.8135,2 53.627,2.49887755 55.256,3.49663266 L92.591,26.3316189 C95.933,28.3773408 98,32.2031485 98,36.3529027 L98,81.6470973 C98,85.7952317 95.933,89.6242789 92.591,91.6683811 L55.256,114.504987 C53.627,115.501122 51.8135,116 50,116 C48.1865,116 46.3745,115.501122 44.7425,114.504987 L7.409,91.6683811 C4.0655,89.6242789 2,85.7952317 2,81.6470973 L2,36.3529027 C2,32.2031485 4.0655,28.3773408 7.409,26.3316189 L44.7425,3.49663266 Z" id="Trophy-1" fill="#D9EAF8"></path><g id="Bars" filter="url(#filter-1)" transform="translate(27.000000, 56.745127)"><path d="M44,23.001 L2,23.001 C0.895,23.001 0,22.105 0,21.001 C0,19.896 0.895,19.001 2,19.001 L44,19.001 C45.104,19.001 46,19.896 46,21.001 C46,22.105 45.104,23.001 44,23.001" id="Fill-453" fill="#182A37"></path><polygon id="Fill-455" fill="#182A37" points="20 21.001 26 21.001 26 0.001 20 0.001"></polygon><path d="M20,2 L20,3 L22,3 C22.552,3 23,3.448 23,4 L23,16 L26,16 L26,2 L20,2" id="Fill-473" fill="#12202B"></path><path d="M0,21.001 C0,22.105 0.896,23.001 2,23.001 L44,23.001 C45.104,23.001 46,22.105 46,21.001 L46,21 L0,21 L0,21.001" id="Fill-474" fill="#12202B"></path><path d="M31,25.001 C31,25.551 30.55,26.001 30,26.001 L16,26.001 C15.45,26.001 15,25.551 15,25.001 L15,17.001 C15,16.451 15.45,16.001 16,16.001 L30,16.001 C30.55,16.001 31,16.451 31,17.001 L31,25.001" id="Fill-475" fill="#30404D"></path><path d="M30,16.001 L23,16.001 L23,22 C23,23.105 22.105,24 21,24 L15,24 L15,25.001 C15,25.551 15.45,26.001 16,26.001 L30,26.001 C30.55,26.001 31,25.551 31,25.001 L31,17.001 C31,16.451 30.55,16.001 30,16.001" id="Fill-476" fill="#182A37"></path></g><g id="Monitor" filter="url(#filter-2)" transform="translate(27.000000, 21.490051)"><path d="M42.7075791,1.42358597 L2.84717194,1.42358597 C2.06206428,1.42358597 1.42358597,2.06206428 1.42358597,2.84717194 L1.42358597,35.5896493 C1.42358597,36.3740451 2.06206428,37.0132352 2.84717194,37.0132352 L42.7075791,37.0132352 C43.491975,37.0132352 44.1311651,36.3740451 44.1311651,35.5896493 L44.1311651,2.84717194 C44.1311651,2.06206428 43.491975,1.42358597 42.7075791,1.42358597" id="Fill-1523" fill="#182A37"></path><path d="M42.7075791,0 L2.84717194,0 C1.28122737,0 0,1.28122737 0,2.84717194 L0,35.5896493 C0,37.1555938 1.28122737,38.4368212 2.84717194,38.4368212 L42.7075791,38.4368212 C44.2735237,38.4368212 45.554751,37.1555938 45.554751,35.5896493 L45.554751,2.84717194 C45.554751,1.28122737 44.2735237,0 42.7075791,0 Z M42.7075791,1.42358597 C43.491975,1.42358597 44.1311651,2.06206428 44.1311651,2.84717194 L44.1311651,35.5896493 C44.1311651,36.3740451 43.491975,37.0132352 42.7075791,37.0132352 L2.84717194,37.0132352 C2.06206428,37.0132352 1.42358597,36.3740451 1.42358597,35.5896493 L1.42358597,2.84717194 C1.42358597,2.06206428 2.06206428,1.42358597 2.84717194,1.42358597 L42.7075791,1.42358597 Z" id="Fill-1524" fill="#384B58"></path><polygon id="Fill-1525" fill="#384B58" points="7.82972284 37.0132352 9.25330881 37.0132352 9.25330881 1.42358597 7.82972284 1.42358597"></polygon><path d="M6.40613687,17.5240667 C6.40613687,18.3098862 5.76837035,18.9476527 4.9825509,18.9476527 C4.19601965,18.9476527 3.55896493,18.3098862 3.55896493,17.5240667 C3.55896493,16.7375355 4.19601965,16.1004807 4.9825509,16.1004807 C5.76837035,16.1004807 6.40613687,16.7375355 6.40613687,17.5240667" id="Fill-1526" fill="#E1E4E1"></path><path d="M6.40613687,24.4891685 C6.40613687,25.274988 5.76837035,25.9127545 4.9825509,25.9127545 C4.19601965,25.9127545 3.55896493,25.274988 3.55896493,24.4891685 C3.55896493,23.7026373 4.19601965,23.0655825 4.9825509,23.0655825 C5.76837035,23.0655825 6.40613687,23.7026373 6.40613687,24.4891685" id="Fill-1528" fill="#E1E4E1"></path><path d="M6.40613687,31.4542703 C6.40613687,32.2400898 5.76837035,32.8778563 4.9825509,32.8778563 C4.19601965,32.8778563 3.55896493,32.2400898 3.55896493,31.4542703 C3.55896493,30.667739 4.19601965,30.0306843 4.9825509,30.0306843 C5.76837035,30.0306843 6.40613687,30.667739 6.40613687,31.4542703" id="Fill-1530" fill="#E1E4E1"></path><path d="M19.9302036,32.1660633 L12.1004807,32.1660633 C11.7068592,32.1660633 11.3886878,31.8478918 11.3886878,31.4542703 C11.3886878,31.0606488 11.7068592,30.7424773 12.1004807,30.7424773 L19.9302036,30.7424773 C20.3238251,30.7424773 20.6419966,31.0606488 20.6419966,31.4542703 C20.6419966,31.8478918 20.3238251,32.1660633 19.9302036,32.1660633" id="Fill-1531" fill="#FFFFFE"></path><path d="M27.0481334,32.1660633 L22.7773755,32.1660633 C22.383754,32.1660633 22.0655825,31.8478918 22.0655825,31.4542703 C22.0655825,31.0606488 22.383754,30.7424773 22.7773755,30.7424773 L27.0481334,30.7424773 C27.441755,30.7424773 27.7599264,31.0606488 27.7599264,31.4542703 C27.7599264,31.8478918 27.441755,32.1660633 27.0481334,32.1660633" id="Fill-1532" fill="#55B7D9"></path><path d="M19.9302036,25.2009615 L12.1004807,25.2009615 C11.7068592,25.2009615 11.3886878,24.88279 11.3886878,24.4891685 C11.3886878,24.095547 11.7068592,23.7773755 12.1004807,23.7773755 L19.9302036,23.7773755 C20.3238251,23.7773755 20.6419966,24.095547 20.6419966,24.4891685 C20.6419966,24.88279 20.3238251,25.2009615 19.9302036,25.2009615" id="Fill-1534" fill="#FFFFFE"></path><path d="M30.6070984,25.2009615 L22.7773755,25.2009615 C22.383754,25.2009615 22.0655825,24.88279 22.0655825,24.4891685 C22.0655825,24.095547 22.383754,23.7773755 22.7773755,23.7773755 L30.6070984,23.7773755 C31.0007199,23.7773755 31.3188913,24.095547 31.3188913,24.4891685 C31.3188913,24.88279 31.0007199,25.2009615 30.6070984,25.2009615" id="Fill-1535" fill="#FFFFFE"></path><path d="M35.5896493,25.2009615 L33.4542703,25.2009615 C33.0606488,25.2009615 32.7424773,24.88279 32.7424773,24.4891685 C32.7424773,24.095547 33.0606488,23.7773755 33.4542703,23.7773755 L35.5896493,23.7773755 C35.9832708,23.7773755 36.3014422,24.095547 36.3014422,24.4891685 C36.3014422,24.88279 35.9832708,25.2009615 35.5896493,25.2009615" id="Fill-1536" fill="#DF5142"></path><path d="M19.9302036,18.2358597 L12.1004807,18.2358597 C11.7068592,18.2358597 11.3886878,17.9176882 11.3886878,17.5240667 C11.3886878,17.1304452 11.7068592,16.8122737 12.1004807,16.8122737 L19.9302036,16.8122737 C20.3238251,16.8122737 20.6419966,17.1304452 20.6419966,17.5240667 C20.6419966,17.9176882 20.3238251,18.2358597 19.9302036,18.2358597" id="Fill-1540" fill="#FFFFFE"></path><path d="M12.1004807,11.2533088 C11.9182617,11.2533088 11.7360427,11.1835531 11.5972431,11.0447535 C11.318932,10.7664424 11.318932,10.3165892 11.5972431,10.0382782 L13.2293844,8.40613687 L11.5972431,6.77399555 C11.318932,6.49568449 11.318932,6.04583133 11.5972431,5.76752027 C11.8755542,5.48920921 12.3254073,5.48920921 12.6037184,5.76752027 L14.7390973,7.90289922 C15.0174084,8.18121028 15.0174084,8.63106345 14.7390973,8.90937451 L12.6037184,11.0447535 C12.4649188,11.1835531 12.2826997,11.2533088 12.1004807,11.2533088" id="Fill-1541" fill="#697D85"></path><path d="M19.2184106,11.2533088 L16.3712387,11.2533088 C15.9776171,11.2533088 15.6594457,10.9351373 15.6594457,10.5415158 C15.6594457,10.1478943 15.9776171,9.82972284 16.3712387,9.82972284 L19.2184106,9.82972284 C19.6120321,9.82972284 19.9302036,10.1478943 19.9302036,10.5415158 C19.9302036,10.9351373 19.6120321,11.2533088 19.2184106,11.2533088" id="Fill-1542" fill="#697D85"></path></g><g id="Right-Dial" filter="url(#filter-3)" transform="translate(63.000000, 62.509949)"><path d="M14.7134553,1.83918191 C7.61421312,1.83918191 1.83918191,7.61421312 1.83918191,14.7134553 C1.83918191,21.8122377 7.61421312,27.5877287 14.7134553,27.5877287 C21.8122377,27.5877287 27.5877287,21.8122377 27.5877287,14.7134553 C27.5877287,7.61421312 21.8122377,1.83918191 14.7134553,1.83918191" id="Fill-309" fill="#E1E4E1"></path><path d="M14.7134553,29.4269106 C17.4630323,29.4269106 20.0383467,28.6668687 22.2421465,27.3481752 L19.3196864,22.4021553 C19.0622009,21.966729 18.4377987,21.6103875 17.9320236,21.6103875 L11.0350915,21.6103875 C10.5293164,21.6103875 9.91732867,21.9736259 9.67501645,22.4177883 L7.03487082,27.2585151 C9.27177582,28.632384 11.9013462,29.4269106 14.7134553,29.4269106" id="Fill-311" fill="#546670"></path><path d="M25.7485468,14.7134553 C25.7485468,17.7573014 24.5116969,20.5160742 22.5115866,22.5115866 L19.5872874,19.5872874 C20.8379311,18.3366437 21.6103875,16.6174684 21.6103875,14.7134553 C21.6103875,12.8094422 20.8379311,11.0902669 19.5872874,9.83962323 L22.5115866,6.91532399 C24.5116969,8.91083637 25.7485468,11.6696092 25.7485468,14.7134553" id="Fill-312" fill="#DF5142"></path><path d="M22.5115866,6.91532399 L19.5872874,9.83962323 C18.3366437,8.58897953 16.6170086,7.81652313 14.7134553,7.81652313 C12.809902,7.81652313 11.0902669,8.58897953 9.83962323,9.83962323 L6.91532399,6.91532399 C8.91083637,4.91475387 11.6696092,3.67836383 14.7134553,3.67836383 C17.7573014,3.67836383 20.5160742,4.91475387 22.5115866,6.91532399" id="Fill-313" fill="#F7CB64"></path><path d="M7.81652313,14.7134553 C7.81652313,16.6174684 8.58897953,18.3366437 9.83962323,19.5872874 L6.91532399,22.5115866 C4.91521366,20.5160742 3.67836383,17.7573014 3.67836383,14.7134553 C3.67836383,11.6696092 4.91521366,8.91083637 6.91532399,6.91532399 L9.83962323,9.83962323 C8.58897953,11.0902669 7.81652313,12.8094422 7.81652313,14.7134553" id="Fill-314" fill="#7CB65A"></path><path d="M14.7134553,27.5877287 C7.61421312,27.5877287 1.83918191,21.8126975 1.83918191,14.7134553 C1.83918191,7.61421312 7.61421312,1.83918191 14.7134553,1.83918191 C21.8126975,1.83918191 27.5877287,7.61421312 27.5877287,14.7134553 C27.5877287,21.8126975 21.8126975,27.5877287 14.7134553,27.5877287 Z M14.7134553,0 C6.60036409,0 0,6.60036409 0,14.7134553 C0,22.8260867 6.60036409,29.4269106 14.7134553,29.4269106 C22.8265465,29.4269106 29.4269106,22.8260867 29.4269106,14.7134553 C29.4269106,6.60036409 22.8265465,0 14.7134553,0 Z" id="Fill-318" fill="#546670"></path><g id="Group-7" transform="translate(12.198103, 13.585205) rotate(-52.000000) translate(-12.198103, -13.585205) translate(9.198103, 7.960205)"><path d="M5.24396743,6.59254757 C4.31610015,5.72951145 2.85808869,5.78238793 1.99505258,6.71025521 C1.13155667,7.63858228 1.18443315,9.09613394 2.11276022,9.95962985 C3.04108729,10.8231258 4.49863896,10.7702493 5.36213487,9.84146241 C6.22517098,8.91359514 6.1722945,7.45604347 5.24396743,6.59254757" id="Fill-315" fill="#546670"></path><path d="M1.99505258,6.71025521 C2.58910834,6.07159929 3.46271975,5.85779439 4.25356797,6.06194358 C2.93119617,3.75928783 0.778433744,0.118627233 0.459795478,0.25932465 C0.123684984,0.40875818 1.11730301,4.74922749 1.69020818,7.13050827 C1.77527034,6.98245413 1.87412637,6.84037733 1.99505258,6.71025521" id="Fill-316" fill="#182A37"></path></g><path d="M14.6798902,13.7943241 C14.1731956,13.812716 13.7759323,14.239866 13.7943241,14.7461008 C13.812716,15.2532552 14.239866,15.6505185 14.7465606,15.6325865 C15.2532552,15.6137348 15.6505185,15.1861251 15.6321267,14.6794304 C15.6141946,14.1731956 15.1865848,13.7754725 14.6798902,13.7943241" id="Fill-320" fill="#182A37"></path></g><g id="Left-Dial" filter="url(#filter-4)" transform="translate(7.000000, 62.509949)"><path d="M14.8478982,0.356122045 C6.85969167,0.356122045 0.360926841,6.76837282 0.360926841,14.6502373 C0.360926841,22.5316551 6.85969167,28.9443526 14.8478982,28.9443526 C22.8361048,28.9443526 29.3348697,22.5316551 29.3348697,14.6502373 C29.3348697,6.76837282 22.8361048,0.356122045 14.8478982,0.356122045" id="Fill-324" fill="#546670"></path><path d="M26.4478188,14.6502373 C26.4478188,14.6397075 26.4422508,14.6305511 26.4417868,14.620479 C26.4343628,11.699588 25.3040666,8.78098599 23.050434,6.55689684 C20.7968015,4.33372333 17.8392857,3.21847401 14.878986,3.21114889 C14.8683141,3.21023325 14.8590342,3.20473941 14.8478982,3.20473941 C14.8367623,3.20473941 14.8274824,3.21023325 14.8168105,3.21114889 C11.8565107,3.21893183 8.89899501,4.33372333 6.64536246,6.55689684 C4.3917299,8.78098599 3.26189765,11.699588 3.2540097,14.620479 C3.2535457,14.6305511 3.24797774,14.6397075 3.24797774,14.6502373 C3.24797774,14.6607672 3.2535457,14.6699236 3.2540097,14.6795378 C3.26143365,17.599971 4.39126591,20.5181152 6.64397047,22.7417465 C6.64443447,22.7426622 6.64489846,22.7435778 6.64536246,22.7444934 C6.73630584,22.8337683 6.85462502,22.8786347 6.97340821,22.8786347 C7.0921914,22.8786347 7.21097458,22.8337683 7.30145396,22.7444934 L8.61363697,21.4493209 C8.79505973,21.2703133 8.79505973,20.9800555 8.61363697,20.8015057 C8.43267821,20.622956 8.13896822,20.622956 7.95754547,20.8015057 L6.99057609,21.7560602 C5.23713211,19.8693844 4.30821048,17.506118 4.20334719,15.1080572 L5.56796184,15.1080572 C5.82408809,15.1080572 6.03195866,14.9034117 6.03195866,14.6502373 C6.03195866,14.3970629 5.82408809,14.1924174 5.56796184,14.1924174 L4.20334719,14.1924174 C4.30821048,11.7943567 5.23713211,9.4315481 6.9901121,7.5444144 L7.95800946,8.49942675 C8.04848884,8.58915945 8.16727203,8.63356798 8.28605522,8.63356798 C8.4048384,8.63356798 8.52362159,8.58915945 8.61410097,8.49942675 C8.79552372,8.32087698 8.79552372,8.03107697 8.61410097,7.85206938 L7.6462036,6.89705704 C9.5583345,5.1674134 11.9530221,4.25085792 14.3839014,4.14739062 L14.3839014,5.493839 C14.3839014,5.74701341 14.591772,5.95165891 14.8478982,5.95165891 C15.1040245,5.95165891 15.3118951,5.74701341 15.3118951,5.493839 L15.3118951,4.14739062 C17.7427744,4.25085792 20.137462,5.1674134 22.0495929,6.89705704 L21.0816955,7.8525272 C20.9002728,8.03153479 20.9002728,8.3213348 21.0816955,8.49988457 C21.1721749,8.58961727 21.2909581,8.6340258 21.4097413,8.6340258 C21.5285245,8.6340258 21.6468437,8.58961727 21.737787,8.49988457 L22.7061484,7.5444144 C24.4586644,9.4315481 25.387586,11.7943567 25.4924493,14.1924174 L24.1278347,14.1924174 C23.8717084,14.1924174 23.6638378,14.3970629 23.6638378,14.6502373 C23.6638378,14.9034117 23.8717084,15.1080572 24.1278347,15.1080572 L25.4924493,15.1080572 C25.387586,17.506118 24.4586644,19.8693844 22.7056844,21.7560602 L21.737787,20.8010479 C21.5568283,20.6224981 21.2631183,20.6224981 21.0816955,20.8010479 C20.9002728,20.9800555 20.9002728,21.2698555 21.0816955,21.4488631 L22.3938785,22.7435778 C22.4848219,22.8328527 22.6031411,22.877719 22.7219243,22.877719 C22.7219243,22.877719 22.7219243,22.877719 22.7223883,22.877719 C22.8411715,22.877719 22.9594907,22.8328527 23.050434,22.7435778 C25.3040666,20.5194886 26.4338988,17.6008867 26.4417868,14.6795378 C26.4422508,14.6699236 26.4478188,14.6607672 26.4478188,14.6502373" id="Fill-326" fill="#E1E4E1"></path><path d="M14.8478982,29.3004746 C17.6230632,29.3004746 20.2214454,28.5436983 22.4453822,27.2306708 L19.4962184,22.305902 C19.2363802,21.8723465 18.6062725,21.5175361 18.095876,21.5175361 L11.1359237,21.5175361 C10.6255272,21.5175361 10.0079474,21.8792138 9.76388509,22.3214678 L7.09915135,27.1413959 C9.35649588,28.5093618 12.0100937,29.3004746 14.8478982,29.3004746" id="Fill-327" fill="#212A31"></path><path d="M15.3118951,5.493839 L15.3118951,4.14739062 C17.7427744,4.25085792 20.137462,5.1674134 22.0495929,6.89705704 L21.0816955,7.8525272 C20.9002728,8.03153479 20.9002728,8.3213348 21.0816955,8.49988457 C21.1721749,8.58961727 21.2909581,8.6340258 21.4097413,8.6340258 C21.5285245,8.6340258 21.6468437,8.58961727 21.737787,8.49988457 L22.7061484,7.5444144 C24.4586644,9.4315481 25.387586,11.7943567 25.4924493,14.1924174 L24.1278347,14.1924174 C23.8717084,14.1924174 23.6638378,14.3970629 23.6638378,14.6502373 C23.6638378,14.9034117 23.8717084,15.1080572 24.1278347,15.1080572 L25.4924493,15.1080572 C25.387586,17.506118 24.4586644,19.8693844 22.7056844,21.7560602 L21.737787,20.8010479 C21.5568283,20.6224981 21.2631183,20.6224981 21.0816955,20.8010479 C20.9002728,20.9800555 20.9002728,21.2698555 21.0816955,21.4488631 L22.3938785,22.7435778 C22.4848219,22.8328527 22.6031411,22.877719 22.7219243,22.877719 C22.7219243,22.877719 22.7219243,22.877719 22.7223883,22.877719 C22.8411715,22.877719 22.9594907,22.8328527 23.050434,22.7435778 C25.3040666,20.5194886 26.4338988,17.6008867 26.4417868,14.6799956 C26.4422508,14.6699236 26.4478188,14.6607672 26.4478188,14.6502373 C26.4478188,14.6397075 26.4422508,14.6305511 26.4417868,14.620479 C26.4343628,11.699588 25.3040666,8.78098599 23.050434,6.55689684 C20.7968015,4.33372333 17.8392857,3.21847401 14.878986,3.21114889 C14.8683141,3.21023325 14.8590342,3.20473941 14.8478982,3.20473941 L14.8478982,5.95165891 C15.1040245,5.95165891 15.3118951,5.74701341 15.3118951,5.493839" id="Fill-333" fill="#C5CCCD"></path><path d="M14.8478982,27.469195 C7.68425134,27.469195 1.85598728,21.718519 1.85598728,14.6502373 C1.85598728,7.58195563 7.68425134,1.83127967 14.8478982,1.83127967 C22.0115452,1.83127967 27.8398092,7.58195563 27.8398092,14.6502373 C27.8398092,21.718519 22.0115452,27.469195 14.8478982,27.469195 Z M14.8478982,0 C6.66067435,0 0,6.5720049 0,14.6502373 C0,22.7280119 6.66067435,29.3004746 14.8478982,29.3004746 C23.0351221,29.3004746 29.6957965,22.7280119 29.6957965,14.6502373 C29.6957965,6.5720049 23.0351221,0 14.8478982,0 Z" id="Fill-334" fill="#212A31"></path><g id="Group" transform="translate(17.710219, 15.276915) rotate(-180.000000) translate(-17.710219, -15.276915) translate(12.210219, 11.776915)"><path d="M6.0704704,4.49716504 C6.04819855,4.3744693 6.03195866,4.24948446 6.03195866,4.12037925 C6.03195866,3.98074417 6.04912655,3.84660294 6.07371838,3.71429298 C6.08114233,3.67400483 6.08995827,3.63463232 6.0997022,3.5952598 C6.12290204,3.49957544 6.15213384,3.40572236 6.18786159,3.31507401 C6.20502948,3.2711233 6.22080537,3.22625695 6.24029323,3.18322188 C6.28344494,3.09028444 6.3326286,3.00100955 6.38784422,2.91539723 C6.42913994,2.85084462 6.47414763,2.79087021 6.52147531,2.7308958 C6.54328316,2.70296879 6.566019,2.67641523 6.58921884,2.64940386 C6.77528157,2.43285504 6.99939203,2.25338963 7.25366229,2.11650147 C7.25366229,2.11650147 7.25459028,2.11604365 7.25505428,2.11558583 C4.69518382,1.3331716 0.602731869,0.139177255 0.46399682,0.457819916 C0.317837822,0.794317555 4.03538035,3.28623136 6.09552623,4.63359537 L6.09552623,4.63267973 C6.0848543,4.58781338 6.07835834,4.54294703 6.0704704,4.49716504" id="Fill-328" fill="#DF5142"></path><path d="M8.35194276,1.83127967 C7.07270353,1.83127967 6.03195866,2.85816974 6.03195866,4.12037925 C6.03195866,5.38258876 7.07270353,6.40947883 8.35194276,6.40947883 C9.631182,6.40947883 10.6719269,5.38258876 10.6719269,4.12037925 C10.6719269,2.85816974 9.631182,1.83127967 8.35194276,1.83127967" id="Fill-329" fill="#C5CCCD"></path></g><path d="M14.8478982,13.7345975 C14.3365738,13.7345975 13.9199046,14.145262 13.9199046,14.6502373 C13.9199046,15.1547549 14.3365738,15.5658772 14.8478982,15.5658772 C15.3596867,15.5658772 15.7758919,15.1547549 15.7758919,14.6502373 C15.7758919,14.145262 15.3596867,13.7345975 14.8478982,13.7345975" id="Fill-336" fill="#546670"></path></g><g id="Azure-Hex-Border" stroke="#0078D4" stroke-width="4"><path d="M45.5620172,3.25834249 L6.67338401,26.8942953 C3.79673288,28.6432593 2,31.9508238 2,35.5582677 L2,82.4417323 C2,86.0486597 3.79764663,89.3586805 6.67318764,91.1055853 L45.560618,114.742485 C46.9289662,115.572418 48.4546283,116 50,116 C51.5458817,116 53.0723633,115.572188 54.4362178,114.743457 L93.3268764,91.1055464 C96.2016145,89.3583456 98,86.0476286 98,82.4417323 L98,35.5582677 C98,31.9518547 96.202529,28.6435953 93.3268966,26.8944659 L54.4351916,3.25759524 C53.0721095,2.42798656 51.5462432,2 50,2 C48.4543284,2 46.9293388,2.42772325 45.5620146,3.25834407 Z M45.5620146,3.25834407 C45.5619597,3.25837737 45.5619049,3.25841067 45.5618501,3.25844398 L45.5621963,3.25823359 L45.5620172,3.25834249 Z"></path></g></g></g></g></svg>