<svg xmlns="http://www.w3.org/2000/svg" viewBox="0 0 100 100"><defs><filter x="-1.4%" y="-2.1%" width="102.8%" height="108.5%" filterUnits="objectBoundingBox" id="a"><feOffset dy="2" in="SourceAlpha" result="shadowOffsetOuter1"/><feColorMatrix values="0 0 0 0 0 0 0 0 0 0 0 0 0 0 0 0 0 0 0.100600091 0" in="shadowOffsetOuter1" result="shadowMatrixOuter1"/><feMerge><feMergeNode in="shadowMatrixOuter1"/><feMergeNode in="SourceGraphic"/></feMerge></filter></defs><g fill="none" fill-rule="evenodd"><rect fill="#55A2FF" x="2" y="2" width="96" height="96" rx="48"/><g opacity=".4" fill="#FFF"><path d="M47.15 19.774V8.736c0-2.483 3.723-2.483 3.723 0v11.038c0 2.482-3.724 2.482-3.724 0zM76.95 19.913c1.863-1.864 4.345.622 2.482 2.482l-5.312 5.312c-1.863 1.863-4.346-.623-2.482-2.483l5.311-5.311zM18.594 22.396c-1.863-1.864.623-4.346 2.483-2.483l5.31 5.311c1.864 1.864-.621 4.346-2.482 2.483l-5.31-5.311zM47.15 80.891V91.93c0 2.482 3.723 2.482 3.723 0V80.89c0-2.482-3.724-2.482-3.724 0zM76.95 81.374c1.863 1.863 4.345-.622 2.482-2.483l-4.312-4.31c-1.863-1.864-4.346.622-2.482 2.482l4.311 4.31zM18.594 78.891c-1.863 1.864.623 4.346 2.483 2.483l5.31-5.311c1.864-1.864-.621-4.346-2.482-2.483l-5.31 5.311z"/></g><g filter="url(#a)" transform="translate(13.824 26.299)"><path d="M35.81 46.756c-13.406 0-26.104-10.58-34.567-20.457-1.41-1.41-1.41-3.529 0-4.939C9.71 11.483 22.408.903 35.81.903c13.405 0 26.103 10.58 34.566 20.457 1.41 1.41 1.41 3.528 0 4.939-7.76 9.877-21.165 20.457-34.566 20.457zm0-35.274a12.644 12.644 0 0 1 12.698 12.699A12.643 12.643 0 0 1 35.81 36.879 12.643 12.643 0 0 1 23.11 24.181 12.643 12.643 0 0 1 35.81 11.482z" fill="#FAFAFA"/><circle fill="#314263" cx="36.176" cy="23.701" r="19.923"/><circle stroke="#979797" fill="#000" cx="36.176" cy="23.701" r="9.356"/><path d="M41.193 23.76a5.27 5.27 0 0 1-5.263 5.263 5.27 5.27 0 0 1-5.264-5.263 5.27 5.27 0 0 1 5.264-5.263 5.27 5.27 0 0 1 5.263 5.263zm9.727-2.835l-2.447-.544c-.2-.044-.513-.329-.575-.524a.709.709 0 0 0-.03-.08l-.675-1.64a1.014 1.014 0 0 0-.039-.085c-.094-.181-.076-.6.034-.772l1.346-2.116c.571-.897.43-2.19-.322-2.941l-.745-.745c-.734-.735-2.063-.882-2.942-.323l-2.116 1.346c-.07.046-.238.095-.435.095a.802.802 0 0 1-.422-.1l-1.64-.676a.83.83 0 0 0-.079-.028c-.195-.063-.48-.375-.524-.576l-.544-2.447c-.231-1.038-1.245-1.852-2.309-1.852h-1.053c-1.064 0-2.078.814-2.308 1.852l-.544 2.448c-.045.2-.33.512-.525.575a.895.895 0 0 0-.08.028l-1.64.676a.798.798 0 0 1-.421.1.911.911 0 0 1-.436-.095l-2.115-1.345c-.878-.56-2.208-.412-2.942.322l-.744.745c-.753.752-.894 2.044-.323 2.942l1.346 2.115c.11.173.128.59.034.772a1.118 1.118 0 0 0-.04.085l-.675 1.64-.029.08c-.062.195-.374.48-.575.524l-2.447.544c-1.038.23-1.852 1.244-1.852 2.309v1.052c0 1.064.814 2.078 1.851 2.309l2.448.543c.201.045.513.33.575.525.009.027.019.053.03.08l.674 1.64a.936.936 0 0 0 .04.085c.094.18.076.599-.034.772l-1.346 2.115c-.572.897-.43 2.19.323 2.942l.744.745c.733.733 2.061.882 2.943.323l2.114-1.346a.91.91 0 0 1 .436-.095.79.79 0 0 1 .336.06c.028.014.056.028.085.04l1.64.675.08.029c.196.062.48.375.525.575l.544 2.448c.23 1.038 1.244 1.852 2.308 1.852h1.053c1.064 0 2.077-.814 2.308-1.852l.545-2.448c.044-.2.329-.513.524-.575.027-.009.053-.018.079-.029l1.64-.675a.793.793 0 0 1 .42-.1c.199 0 .366.049.437.095l2.116 1.345c.878.56 2.208.412 2.942-.322l.744-.744c.752-.752.894-2.045.323-2.943l-1.346-2.115c-.11-.173-.128-.59-.034-.772a1.1 1.1 0 0 0 .04-.084l.675-1.642a.709.709 0 0 0 .029-.079c.062-.196.374-.48.575-.525l2.447-.543c1.039-.23 1.852-1.245 1.852-2.309v-1.052c0-1.065-.813-2.078-1.852-2.309z" fill="#ADBDC4"/><path d="M27.335 36.365l2.114-1.346a.91.91 0 0 1 .436-.095.79.79 0 0 1 .336.06c.028.014.056.028.085.04l1.64.675.08.029c.196.062.48.375.525.575l.544 2.448c.23 1.038 1.244 1.852 2.308 1.852h1.053c1.064 0 2.077-.814 2.308-1.852l.545-2.448c.044-.2.329-.513.524-.575.027-.009.053-.018.079-.029l1.64-.675a.793.793 0 0 1 .42-.1c.199 0 .366.049.437.095l2.116 1.345c.878.56 2.208.412 2.942-.322l.744-.744c.752-.752.894-2.045.323-2.943l-1.346-2.115c-.11-.173-.128-.59-.034-.772a1.1 1.1 0 0 0 .04-.084l.675-1.642a.709.709 0 0 0 .029-.079c.062-.196.374-.48.575-.525l2.447-.543c1.039-.23 1.852-1.245 1.852-2.309v-1.052c0-1.065-.813-2.078-1.852-2.309l-2.447-.544c-.2-.044-.513-.329-.575-.524a.709.709 0 0 0-.03-.08l-.675-1.64a1.014 1.014 0 0 0-.039-.085c-.094-.181-.076-.6.034-.772l1.346-2.116c.571-.897.43-2.19-.322-2.941l-.373-.373-8.19 8.19a5.247 5.247 0 0 1 1.544 3.72 5.27 5.27 0 0 1-5.263 5.263 5.25 5.25 0 0 1-3.72-1.543l-8.19 8.19.372.372c.733.733 2.061.882 2.943.323" fill="#8BA6B1"/><path d="M35.93 29.023a5.263 5.263 0 1 1 0-10.526 5.263 5.263 0 0 1 0 10.526zm0-12.632a7.369 7.369 0 1 0 0 14.738 7.369 7.369 0 0 0 0-14.738z" fill="#8BA6B1"/><path d="M41.193 23.76a5.263 5.263 0 0 1-8.985 3.722l-1.49 1.488A7.369 7.369 0 1 0 41.14 18.55l-1.489 1.49a5.245 5.245 0 0 1 1.542 3.72" fill="#ADBDC4"/><circle fill="#FFF" cx="41.043" cy="19.082" r="3.5"/></g><rect x="2" y="2" width="96" height="96" rx="48" stroke="#0078D4" stroke-width="4"/></g></svg>