<svg xmlns="http://www.w3.org/2000/svg" xmlns:xlink="http://www.w3.org/1999/xlink" viewBox="0 0 100 100" version="1.1"><!-- Generator: Sketch 52.5 (67469) - http://www.bohemiancoding.com/sketch --><title>explore-azure-infra</title><desc>Created with Sketch.</desc><g id="Page-1" stroke="none" stroke-width="1" fill="none" fill-rule="evenodd"><g id="explore-azure-infra" transform="translate(2.000000, 2.000000)"><rect id="BG" fill="#C0DDF4" x="0" y="0" width="96" height="96" rx="48"></rect><rect id="BG" fill="#55A2FF" x="18" y="19" width="61" height="58" rx="29"></rect><g id="Azure-Border" stroke="#0078D4" stroke-width="4"><rect id="Rectangle" x="0" y="0" width="96" height="96" rx="48"></rect></g><path d="M26,81.5 L71,81.5" id="Line" stroke="#4A4A4A" stroke-width="3" stroke-linecap="square"></path><path d="M48.5,72 L48.5,81.5" id="Line-2" stroke="#4A4A4A" stroke-width="3" stroke-linecap="square"></path><g id="server-rack" transform="translate(25.000000, 14.000000)"><g id="seperators" transform="translate(6.000000, 16.000000)" fill="#7C7C7C"><rect id="Rectangle-path" x="0" y="0" width="2" height="9"></rect><rect id="Rectangle-path" x="32" y="0" width="2" height="9"></rect><rect id="Rectangle-path" x="0" y="19" width="2" height="9"></rect><rect id="Rectangle-path" x="32" y="19" width="2" height="9"></rect></g><g id="1"><rect id="Rectangle-path" fill="#E1E4E1" x="0" y="0" width="46" height="18" rx="1"></rect><path d="M1.36439935,0.230602074 L22.9695561,8.98786697 C22.9830831,8.99325803 30.3866232,11.3478298 45.1801765,16.0515822 C45.706534,16.2158756 45.9976636,16.7764555 45.8304326,17.3039284 C45.6985231,17.7200915 45.3130127,18.0049624 44.877378,18.0081091 L1,18.325052 C0.44771525,18.3290414 1.72115081e-14,17.8680307 1.66533454e-14,17.2953559 L6.39488462e-14,1.18695494 C6.55980567e-14,0.614280118 0.44771525,0.153102326 1,0.156885509 C1.12469085,0.157739649 1.2482819,0.182743809 1.36439935,0.230602074 Z" id="Rectangle-path" fill="#D3DAD8"></path><circle id="Oval" fill="#72C472" cx="37" cy="9" r="2"></circle><path d="M11,10 L7,10 C6.44771525,10 6,9.55228475 6,9 C6,8.44771525 6.44771525,8 7,8 L11,8 C11.5522847,8 12,8.44771525 12,9 C12,9.55228475 11.5522847,10 11,10 Z" id="Shape" fill="#949697"></path><path d="M21,10 L17,10 C16.4477153,10 16,9.55228475 16,9 C16,8.44771525 16.4477153,8 17,8 L21,8 C21.5522847,8 22,8.44771525 22,9 C22,9.55228475 21.5522847,10 21,10 Z" id="Shape" fill="#949697"></path></g><g id="2" transform="translate(0.000000, 20.000000)"><rect id="Rectangle-path" fill="#E1E4E1" x="0" y="0" width="46" height="18" rx="1"></rect><path d="M1.36439935,0.230602074 L22.9695561,8.98786697 C22.9830831,8.99325803 30.3866232,11.3478298 45.1801765,16.0515822 C45.706534,16.2158756 45.9976636,16.7764555 45.8304326,17.3039284 C45.6985231,17.7200915 45.3130127,18.0049624 44.877378,18.0081091 L1,18.325052 C0.44771525,18.3290414 1.72115081e-14,17.8680307 1.66533454e-14,17.2953559 L6.39488462e-14,1.18695494 C6.55980567e-14,0.614280118 0.44771525,0.153102326 1,0.156885509 C1.12469085,0.157739649 1.2482819,0.182743809 1.36439935,0.230602074 Z" id="Rectangle-path" fill="#D3DAD8"></path><circle id="Oval" fill="#72C472" cx="37" cy="9" r="2"></circle><path d="M11,10 L7,10 C6.44771525,10 6,9.55228475 6,9 C6,8.44771525 6.44771525,8 7,8 L11,8 C11.5522847,8 12,8.44771525 12,9 C12,9.55228475 11.5522847,10 11,10 Z" id="Shape" fill="#949697"></path><path d="M21,10 L17,10 C16.4477153,10 16,9.55228475 16,9 C16,8.44771525 16.4477153,8 17,8 L21,8 C21.5522847,8 22,8.44771525 22,9 C22,9.55228475 21.5522847,10 21,10 Z" id="Shape" fill="#949697"></path></g><g id="3" transform="translate(0.000000, 40.000000)"><rect id="Rectangle-path" fill="#E1E4E1" x="0" y="0" width="46" height="18" rx="1"></rect><path d="M1.36439935,0.230602074 L22.9695561,8.98786697 C22.9830831,8.99325803 30.3866232,11.3478298 45.1801765,16.0515822 C45.706534,16.2158756 45.9976636,16.7764555 45.8304326,17.3039284 C45.6985231,17.7200915 45.3130127,18.0049624 44.877378,18.0081091 L1,18.325052 C0.44771525,18.3290414 1.72115081e-14,17.8680307 1.66533454e-14,17.2953559 L6.39488462e-14,1.18695494 C6.55980567e-14,0.614280118 0.44771525,0.153102326 1,0.156885509 C1.12469085,0.157739649 1.2482819,0.182743809 1.36439935,0.230602074 Z" id="Rectangle-path" fill="#D3DAD8"></path><circle id="Oval" fill="#72C472" cx="37" cy="9" r="2"></circle><path d="M11,10 L7,10 C6.44771525,10 6,9.55228475 6,9 C6,8.44771525 6.44771525,8 7,8 L11,8 C11.5522847,8 12,8.44771525 12,9 C12,9.55228475 11.5522847,10 11,10 Z" id="Shape" fill="#949697"></path><path d="M21,10 L17,10 C16.4477153,10 16,9.55228475 16,9 C16,8.44771525 16.4477153,8 17,8 L21,8 C21.5522847,8 22,8.44771525 22,9 C22,9.55228475 21.5522847,10 21,10 Z" id="Shape" fill="#949697"></path></g></g></g></g></svg>