<svg xmlns="http://www.w3.org/2000/svg" xmlns:xlink="http://www.w3.org/1999/xlink" viewBox="0 0 100 100"><defs><rect id="a" x="0" y="0" width="96" height="96" rx="48"/><filter x="-2.2%" y="-3.7%" width="104.3%" height="114.8%" filterUnits="objectBoundingBox" id="b"><feOffset dy="2" in="SourceAlpha" result="shadowOffsetOuter1"/><feColorMatrix values="0 0 0 0 0 0 0 0 0 0 0 0 0 0 0 0 0 0 0.0996376812 0" in="shadowOffsetOuter1" result="shadowMatrixOuter1"/><feMerge><feMergeNode in="shadowMatrixOuter1"/><feMergeNode in="SourceGraphic"/></feMerge></filter><filter x="-2.2%" y="-2.6%" width="104.3%" height="110.3%" filterUnits="objectBoundingBox" id="d"><feOffset dy="2" in="SourceAlpha" result="shadowOffsetOuter1"/><feColorMatrix values="0 0 0 0 0 0 0 0 0 0 0 0 0 0 0 0 0 0 0.0996376812 0" in="shadowOffsetOuter1" result="shadowMatrixOuter1"/><feMerge><feMergeNode in="shadowMatrixOuter1"/><feMergeNode in="SourceGraphic"/></feMerge></filter></defs><g fill="none" fill-rule="evenodd"><g transform="translate(2 2)"><mask id="c" fill="#fff"><use xlink:href="#a"/></mask><use fill="#C0DDF4" xlink:href="#a"/><g filter="url(#b)" mask="url(#c)"><path d="M69 75.129H27a2 2 0 0 1 0-4h42a2 2 0 0 1 0 4" fill="#182A37"/><path fill="#182A37" d="M45 73.129h6v-21h-6z"/><path d="M45 54.128v1h2a1 1 0 0 1 1 1v12h3v-14h-6M25 73.129a2 2 0 0 0 2 2h42a2 2 0 0 0 2-2v-.001H25" fill="#12202B"/><path d="M56 77.129c0 .55-.45 1-1 1H41c-.55 0-1-.45-1-1v-8c0-.55.45-1 1-1h14c.55 0 1 .45 1 1v8" fill="#30404D"/><path d="M55 68.129h-7v5.999a2 2 0 0 1-2 2h-6v1c0 .55.45 1 1 1h14c.55 0 1-.45 1-1v-8c0-.55-.45-1-1-1" fill="#182A37"/></g><g filter="url(#d)" mask="url(#c)"><path d="M67.708 18.296h-39.86c-.786 0-1.424.639-1.424 1.424v32.742c0 .785.638 1.424 1.423 1.424h39.86c.785 0 1.424-.64 1.424-1.424V19.72c0-.785-.639-1.424-1.423-1.424" fill="#182A37"/><g fill="#FFF" fill-rule="nonzero"><path d="M51.726 41.59l4.5-2.633v-5.73l-4.502-2.636-4.498 2.621v5.727z"/><path d="M51.726 24.09l-10.5 5.976v4.062l5 2.857v-2.303l-3-1.715V31.23l8.498-4.836 8.502 4.858v9.68l-8.5 4.856-10.5-6v2.304l10.5 6 10.5-6v-12z"/></g><path d="M67.708 16.872h-39.86A2.856 2.856 0 0 0 25 19.72v32.742a2.856 2.856 0 0 0 2.847 2.847h39.86a2.856 2.856 0 0 0 2.848-2.847V19.72a2.856 2.856 0 0 0-2.847-2.848zm0 1.424c.784 0 1.423.639 1.423 1.424v32.742c0 .785-.639 1.424-1.423 1.424h-39.86c-.786 0-1.424-.64-1.424-1.424V19.72c0-.785.638-1.424 1.423-1.424h39.86z" fill="#384B58"/><path fill="#384B58" d="M32.83 53.886h1.423v-35.59H32.83z"/><path d="M31.406 34.397a1.424 1.424 0 1 1-2.848-.002 1.424 1.424 0 0 1 2.848.002m0 6.965a1.424 1.424 0 1 1-2.848-.001 1.424 1.424 0 0 1 2.848 0m0 6.966a1.424 1.424 0 1 1-2.848-.001 1.424 1.424 0 0 1 2.848 0" fill="#E1E4E1"/></g></g><rect x="2" y="2" width="96" height="96" rx="48" stroke="#0078D4" stroke-width="4"/></g></svg>