<svg xmlns="http://www.w3.org/2000/svg" xmlns:xlink="http://www.w3.org/1999/xlink" viewBox="0 0 100 100" version="1.1"><!-- Generator: Sketch 51.3 (57544) - http://www.bohemiancoding.com/sketch --><title>explore-and-interact-with-deep-learning-models</title><desc>Created with Sketch.</desc><defs><filter x="-1.3%" y="-1.7%" width="102.6%" height="106.9%" filterUnits="objectBoundingBox" id="filter-1"><feOffset dx="0" dy="2" in="SourceAlpha" result="shadowOffsetOuter1"></feOffset><feColorMatrix values="0 0 0 0 0   0 0 0 0 0   0 0 0 0 0  0 0 0 0.103940217 0" type="matrix" in="shadowOffsetOuter1" result="shadowMatrixOuter1"></feColorMatrix><feMerge><feMergeNode in="shadowMatrixOuter1"></feMergeNode><feMergeNode in="SourceGraphic"></feMergeNode></feMerge></filter><filter x="-3.4%" y="-3.4%" width="106.9%" height="113.8%" filterUnits="objectBoundingBox" id="filter-2"><feOffset dx="0" dy="2" in="SourceAlpha" result="shadowOffsetOuter1"></feOffset><feColorMatrix values="0 0 0 0 0   0 0 0 0 0   0 0 0 0 0  0 0 0 0.103430707 0" type="matrix" in="shadowOffsetOuter1" result="shadowMatrixOuter1"></feColorMatrix><feMerge><feMergeNode in="shadowMatrixOuter1"></feMergeNode><feMergeNode in="SourceGraphic"></feMergeNode></feMerge></filter></defs><g id="Badges-FINAL" stroke="none" stroke-width="1" fill="none" fill-rule="evenodd"><g id="N/A-2" transform="translate(-577.000000, -634.000000)"><g id="explore-and-interact-with-deep-learning-models" transform="translate(577.000000, 634.000000)"><rect id="BG" fill="#55A2FF" x="2" y="2" width="96" height="96" rx="48"></rect><g id="Stairs" filter="url(#filter-1)" transform="translate(12.500000, 23.000000)"><polygon id="Fill-3254" fill="#39393D" points="0.260364078 4.6092232 6.11230224 5.80133762 6.65332779 12.4115692 12.830453 14.1454238 13.1549254 20.7549407 20.1982633 23.5722759 20.3068972 29.9652396 28.3257964 33.6495021 28.1085285 40.150385 52.7133985 51.2453396 52.3053065 57.7655193 1.28523942 33.8546201"></polygon><polygon id="Fill-3255" fill="#636366" points="0.260364078 4.6092232 29.0840898 0.0587480846 34.9353132 0.817041488 6.11230224 5.80133762"></polygon><polygon id="Fill-3256" fill="#636366" points="6.6535422 12.4115692 34.6096259 6.01860548 40.6781172 6.88553281 12.8306674 14.1454238"></polygon><polygon id="Fill-3257" fill="#636366" points="13.1549254 20.7547978 40.5692689 12.0862392 47.0708665 13.602826 20.1982633 23.5721329"></polygon><polygon id="Fill-3258" fill="#636366" points="20.3067543 29.9649537 46.6376172 18.6956131 53.789589 20.6467356 28.3256534 33.6492162"></polygon><polygon id="Fill-3259" fill="#636366" points="28.1084571 40.1507424 53.4644734 25.7395942 76.3483533 35.3522674 52.5775346 51.2449822"></polygon><polygon id="Fill-3260" fill="#313138" points="6.11194489 5.80133762 34.9349559 0.817041488 34.6097688 6.01860548 6.65368514 12.4115692"></polygon><polygon id="Fill-3261" fill="#313138" points="12.8303816 14.1452809 40.678546 6.88538987 40.5699121 12.0862392 13.154854 20.7547978"></polygon><polygon id="Fill-3262" fill="#313138" points="20.1986207 23.5724188 47.0712238 13.6031118 46.6374028 18.6960419 20.3065399 29.9646678"></polygon><polygon id="Fill-3263" fill="#313138" points="28.3255105 33.6493591 53.7894461 20.6468785 53.464259 25.7398086 28.1082426 40.1509568"></polygon><polygon id="Fill-3264" fill="#313138" points="52.4562505 51.4142225 76.6201525 35.1605857 75.8618591 40.4700689 52.1310634 57.9158201"></polygon></g><g id="Jar" filter="url(#filter-2)" transform="translate(51.090754, 33.000000)"><path d="M28.1917605,25.8555481 L19.2846431,10.4269624 L19.2846431,4.18108898 L19.4456436,4.18108898 C20.5110883,4.18108898 21.3748088,3.3173685 21.3748088,2.25192384 C21.3748088,1.18647918 20.5110883,0.323705765 19.4456436,0.323705765 L9.72689418,0.323705765 C8.66239658,0.323705765 7.79772905,1.18742624 7.79772905,2.2528709 C7.79772905,3.31831556 8.66239658,4.18203604 9.72689418,4.18203604 L9.88789471,4.18203604 L9.88789471,10.4269624 L0.980777327,25.8555481 C0.00340942292,27.5470007 0.802729686,28.9316053 2.75651843,28.9316053 L26.4160194,28.9316053 C28.3688611,28.9316053 29.1691284,27.5470007 28.1917605,25.8555481" id="Fill-3265" fill="#59B4D9"></path><polygon id="Fill-3267" fill="#B8D432" points="8.31738192 19.2150341 4.64088754 25.5811843 24.531082 25.5811843 20.8555347 19.2150341"></polygon><path d="M15.0587581,21.7981454 C16.051279,21.7981454 16.8553346,20.9931428 16.8553346,20.001569 C16.8553346,19.7193445 16.7890402,19.4522731 16.6725516,19.2145605 L13.4440175,19.2145605 C13.328476,19.451326 13.2612346,19.7183975 13.2612346,20.001569 C13.2621816,20.9931428 14.0662372,21.7981454 15.0587581,21.7981454" id="Fill-3269" fill="#7FBA00"></path><path d="M17.2894678,22.3031189 C17.7762576,22.3031189 18.1711824,22.6980437 18.1711824,23.1848335 C18.1711824,23.6716233 17.7762576,24.0665482 17.2894678,24.0665482 C16.8017309,24.0665482 16.406806,23.6716233 16.406806,23.1848335 C16.406806,22.6980437 16.8017309,22.3031189 17.2894678,22.3031189" id="Fill-3271" fill="#7FBA00"></path><path d="M0.980398502,25.8555481 L9.88751589,10.4269624 L9.88751589,4.18108898 L9.72651536,4.18108898 C8.66201776,4.18108898 7.79735022,3.3173685 7.79735022,2.25192384 C7.79735022,1.18647918 8.6610707,0.323705765 9.72651536,0.323705765 L13.9144232,0.323705765 L13.9144232,10.3777151 L9.21983723,28.9316053 L2.75613961,28.9316053 C0.803297923,28.9316053 0.00397766008,27.5470007 0.980398502,25.8555481" id="Fill-3273" fill="#FFFFFF" opacity="0.218638393"></path></g><g id="Azure-Border" stroke="#0078D4" stroke-width="4"><rect x="2" y="2" width="96" height="96" rx="48"></rect></g></g></g></g></svg>