<svg xmlns="http://www.w3.org/2000/svg" xmlns:xlink="http://www.w3.org/1999/xlink" viewBox="0 0 100 100" version="1.1"><!-- Generator: Sketch 51.3 (57544) - http://www.bohemiancoding.com/sketch --><title>manage-an-app</title><desc>Created with Sketch.</desc><defs><rect id="path-1" x="0" y="0" width="96" height="96" rx="48"></rect><path d="M8.00814946,4.0635109 C6.46892754,4.6141695 4.5014156,6.31684088 3.78206316,7.75641981 C-1.11530219,17.9200044 -1.11530219,28.083589 3.78206316,38.2462995 C4.50228966,39.6858784 6.46892754,41.3885498 8.00814946,41.9392084 C21.2458076,46.4764605 34.4834657,46.4764605 47.7211238,41.9392084 C49.2603457,41.3894238 51.2269836,39.6858784 51.9472101,38.2462995 C56.8445754,28.083589 56.8445754,17.9200044 51.9472101,7.75641981 C51.2269836,6.31684088 49.2594716,4.6141695 47.7211238,4.06438496 C41.1009836,1.79532187 34.4834657,0.66166439 27.8633255,0.66166439 C21.2458076,0.66166439 14.6265415,1.79532187 8.00814946,4.0635109" id="path-3"></path><path d="M3.722627,2.35122485 C2.84943978,2.5260371 1.92380888,3.30132946 1.70092325,4.05914059 C-0.850461627,12.8277234 -0.372350106,21.5954321 3.13525782,30.3640148 C3.44292739,31.1209519 4.38691357,31.9478139 5.1989165,32.1803142 C18.5606913,35.9309111 31.9242142,35.9309111 45.285989,32.1803142 C46.097992,31.9478139 47.0419782,31.1209519 47.3496477,30.3640148 C50.8581297,21.5954321 51.3353672,12.8277234 48.7848563,4.05914059 C48.5610967,3.30220352 47.6363398,2.5260371 46.7631526,2.35122485 C39.5897317,0.944860245 32.4163107,0.241240914 25.2428898,0.241240914 C18.0694689,0.241240914 10.8960479,0.944860245 3.722627,2.35122485" id="path-5"></path><path d="M2.07414742,0.609220713 C1.46230452,0.779662663 0.764803621,1.39587587 0.535799565,1.97625256 C0.30679551,2.55400706 0.656420022,2.89838721 1.29710694,2.75154491 C1.93954198,2.60557668 2.60819886,2.00422252 2.8083589,1.40112023 C2.97443054,0.899409058 2.781263,0.565517649 2.3590914,0.565517649 C2.27343339,0.565517649 2.17816071,0.579502629 2.07414742,0.609220713" id="path-7"></path><path d="M2.1580573,0.394201638 C1.54534035,0.527058953 0.891542507,1.14414622 0.711485883,1.76472973 C0.530555198,2.38356511 0.916016223,2.78738143 1.55670314,2.67375346 C2.19913818,2.56012549 2.83195855,1.95789727 2.98404521,1.31983253 C3.11602847,0.759559253 2.85293602,0.369727922 2.3748245,0.369727922 C2.30664772,0.369727922 2.23410063,0.377594473 2.1580573,0.394201638" id="path-9"></path><path d="M2.24109312,0.458008111 C1.62837617,0.551532668 1.01740733,1.16337557 0.885424078,1.81455122 C0.754314886,2.46397875 1.17561242,2.91849062 1.81629934,2.83895104 C2.45873438,2.7585374 3.05484418,2.16330167 3.15798341,1.4990151 C3.25325609,0.892416568 2.92023874,0.445771253 2.39405385,0.445771253 C2.34510642,0.445771253 2.29441086,0.45014156 2.24109312,0.458008111" id="path-11"></path><path d="M2.06191056,0.683515922 C1.44831954,0.726344925 0.895038752,1.31808441 0.826861972,1.99373378 C0.760433315,2.67025721 1.22893016,3.18245712 1.8713652,3.14574655 C10.6163483,2.64927974 19.3622055,3.451668 28.1080627,5.55640756 C28.7496237,5.70762017 29.0913816,5.37547688 28.854511,4.80471486 C28.6185145,4.23307878 27.9157692,3.61686558 27.3021782,3.43855708 C20.495863,1.49289667 13.6912959,0.520940524 6.88410665,0.520940524 C5.27758202,0.520940524 3.6684352,0.575132323 2.06191056,0.683515922" id="path-13"></path><path d="M15.0574537,0.110131721 C10.6268371,0.266588691 6.19709448,0.601354161 1.76647785,1.11355407 C1.31109192,1.16774587 0.874061281,1.54271816 0.805884501,1.94653447 C0.263966507,5.13161378 0.0157331031,8.31494497 0.0611842897,11.4991502 C0.0664286574,11.9029665 0.466748724,12.2403542 0.943112122,12.2490948 C5.56427412,12.3286344 10.1863102,12.3793299 14.8065981,12.4029296 C15.2829615,12.4064258 15.6701706,12.038446 15.6692966,11.5856823 C15.6579338,8.02563068 15.7199921,4.46470502 15.8554716,0.905527487 C15.8720788,0.461504356 15.5285727,0.10925766 15.0862977,0.10925766 C15.0775571,0.10925766 15.0670684,0.110131721 15.0574537,0.110131721" id="path-15"></path><path d="M0.855705994,0.0166071643 C0.396823822,0.0209774707 0.0174812256,0.396823822 0.00874061281,0.85308381 C-0.000874061281,1.3093438 0.368853861,1.67382735 0.834728524,1.67033111 C7.84382594,1.61089494 14.8529234,1.92031263 21.8620208,2.59858419 C22.3287695,2.64316131 22.6530462,2.35209891 22.5839954,1.94653447 C22.5140705,1.54097004 22.0814101,1.16774587 21.622528,1.11355407 C15.2514953,0.375846351 8.88133668,0.00786655153 2.51117806,0.00786655153 C1.95964539,0.00786655153 1.40723866,0.0113627967 0.855705994,0.0166071643" id="path-17"></path><path d="M1.67819766,0.606598529 C1.20358238,0.609220713 0.816373237,0.98244488 0.812876991,1.43870487 C0.807632624,1.89583892 1.19047146,2.2620706 1.66683486,2.26032247 C8.84987047,2.23322657 16.0329061,2.37395044 23.2159417,2.68162001 C23.6923051,2.70259748 24.0550405,2.39143167 24.0209521,1.98499317 C23.9851156,1.5803028 23.5690624,1.22718204 23.0961953,1.19746396 C16.5215063,0.800640134 9.94681738,0.602228223 3.37212842,0.602228223 C2.80748484,0.602228223 2.24284125,0.603976345 1.67819766,0.606598529" id="path-19"></path><path d="M1.65722019,0.323402674 C1.17736055,0.323402674 0.788403276,0.694004657 0.788403276,1.15026465 C0.788403276,1.6073987 1.17736055,1.97625256 1.65722019,1.97712662 C8.8830848,1.98237099 16.1080754,1.95352696 23.334814,1.89234267 C23.8146737,1.88797237 24.2071272,1.55582908 24.2071272,1.15026465 C24.2071272,0.744700212 23.8146737,0.412556925 23.334814,0.407312557 C16.6971927,0.350498574 10.0604453,0.322528613 3.42282398,0.322528613 C2.83458073,0.322528613 2.24546343,0.322528613 1.65722019,0.323402674" id="path-21"></path><path d="M0.242989036,1.18872334 C0.277951487,1.59428778 0.694878719,1.94740853 1.16774587,1.97625256 C14.3040129,2.7699002 27.4402799,2.7699002 40.5774209,1.97625256 C41.0502881,1.94740853 41.4663412,1.59428778 41.5021778,1.18872334 C41.5353921,0.795395766 41.1962563,0.49122244 40.7408704,0.49122244 C40.7268854,0.49122244 40.7120264,0.49122244 40.6971673,0.492096501 C27.4796126,1.05936227 14.263806,1.05936227 1.04799948,0.492096501 C1.0340145,0.49122244 1.01915545,0.49122244 1.00517047,0.49122244 C0.548910485,0.49122244 0.208900646,0.795395766 0.242989036,1.18872334" id="path-23"></path><path d="M0.805884501,1.22718204 C0.874935342,1.63274647 1.30759568,2.0068447 1.76647785,2.06016244 C14.5041729,3.53382976 27.2409939,3.53382976 39.9778149,2.06016244 C40.4366971,2.0068447 40.8693574,1.63274647 40.9392823,1.22718204 C41.0083331,0.822491666 40.6831823,0.531429259 40.2173077,0.575132323 C27.3196594,1.82241777 14.4237593,1.82241777 1.52698506,0.575132323 C1.49551885,0.572510139 1.46492671,0.570762017 1.43520862,0.570762017 C1.01915545,0.570762017 0.740329905,0.849587565 0.805884501,1.22718204" id="path-25"></path><path d="M38.5050216,0.659042206 C26.1676466,2.58722139 13.8285235,2.58722139 1.49114855,0.659042206 C1.04537729,0.590865426 0.76392956,0.860950362 0.868816913,1.26564074 C0.972830206,1.67207923 1.41510521,2.06540681 1.85038773,2.14494638 C13.949144,4.29950744 26.0470262,4.29950744 38.1449084,2.14494638 C38.581065,2.06540681 39.02334,1.67207923 39.1264792,1.26564074 C39.2208778,0.902031242 39.0058587,0.648553471 38.638753,0.648553471 C38.595924,0.648553471 38.5513469,0.652049716 38.5050216,0.659042206" id="path-27"></path><path d="M7.67717395,38.0081547 C7.67717395,20.861294 21.6192561,6.91057358 38.774755,6.91057358 C55.9129775,6.91057358 69.8723361,20.861294 69.8723361,38.0081547 C69.8723361,55.1550154 55.9129775,69.1057358 38.774755,69.1057358 C21.6192561,69.1057358 7.67717395,55.1550154 7.67717395,38.0081547 Z M67.9719284,62.3143696 C73.4658344,55.7216824 76.7829097,47.2458639 76.7829097,38.0081547 C76.7829097,17.0501127 59.7310694,0 38.774755,0 C17.8184407,0 0.766600371,17.0501127 0.766600371,38.0081547 C0.766600371,58.9661967 17.8184407,76.0163093 38.774755,76.0163093 C48.0176472,76.0163093 56.4830998,72.7009617 63.0826976,67.2001451 L67.8022193,71.9144839 L72.6741737,67.0287084 L67.9719284,62.3143696 Z" id="path-29"></path><filter x="-1.3%" y="-1.3%" width="102.6%" height="105.3%" filterUnits="objectBoundingBox" id="filter-30"><feOffset dx="0" dy="2" in="SourceAlpha" result="shadowOffsetOuter1"></feOffset><feColorMatrix values="0 0 0 0 0   0 0 0 0 0   0 0 0 0 0  0 0 0 0.10303442 0" type="matrix" in="shadowOffsetOuter1"></feColorMatrix></filter></defs><g id="Badges-FINAL" stroke="none" stroke-width="1" fill="none" fill-rule="evenodd"><g id="Create-a-PowerApp" transform="translate(-577.000000, -688.000000)"><g id="manage-an-app" transform="translate(577.000000, 688.000000)"><g id="Mask" transform="translate(2.000000, 2.000000)"><mask id="mask-2" fill="white"><use xlink:href="#path-1"></use></mask><use id="BG" fill="#965596" xlink:href="#path-1"></use><g id="Bent-Browser" mask="url(#mask-2)"><g transform="translate(20.022891, 24.863368)"><g id="Group-3" transform="translate(0.000000, 0.322266)"><mask id="mask-4" fill="white"><use xlink:href="#path-3"></use></mask><g id="Clip-2"></g><path d="M4.01692343,2.95362788 C19.9152241,-8.40654659 35.8143988,-8.40654659 51.7118254,2.95362788 C65.2256868,16.3188989 65.2256868,29.68417 51.7118254,43.049441 C35.8143988,54.4096155 19.9152241,54.4096155 4.01692343,43.049441 C-9.49693804,29.68417 -9.49693804,16.3188989 4.01692343,2.95362788" id="Fill-1" fill="#2E3F4B" mask="url(#mask-4)"></path></g><g id="Group-6" transform="translate(2.622184, 8.188818)"><mask id="mask-6" fill="white"><use xlink:href="#path-5"></use></mask><g id="Clip-5"></g><path d="M-1.0226517,-0.614727299 C16.4874179,-7.77678544 33.9974876,-7.77678544 51.5075572,-0.614727299 C59.1302457,11.1186713 58.2343329,22.852944 48.8198188,34.5863427 C33.1015748,43.4318428 17.3833308,43.4318428 1.66508674,34.5863427 C-7.74942732,22.852944 -8.64534013,11.1186713 -1.0226517,-0.614727299" id="Fill-4" fill="#DFE1DF" mask="url(#mask-6)"></path></g><g id="Group-9" transform="translate(6.118429, 5.566634)"><mask id="mask-8" fill="white"><use xlink:href="#path-7"></use></mask><g id="Clip-8"></g><path d="M-1.17972051,-2.05640398 C2.59097986,-4.12006266 6.36255428,-5.67414362 10.1332547,-6.71952091 C8.66657982,-2.04766336 7.61858035,2.62419418 6.99187841,7.29692579 C2.20114852,7.74357111 -2.59045542,8.40785768 -7.38205936,9.28978551 C-6.14351453,5.50772235 -4.0763596,1.72565919 -1.17972051,-2.05640398" id="Fill-7" fill="#DF5140" mask="url(#mask-8)"></path></g><g id="Group-12" transform="translate(10.488735, 4.692573)"><mask id="mask-10" fill="white"><use xlink:href="#path-9"></use></mask><g id="Clip-11"></g><path d="M-1.63973896,-3.13919109 C2.1309614,-4.85060308 5.90253583,-6.0533114 9.6732362,-6.746442 C8.70040599,-1.90239438 8.00552727,2.94165324 7.5894741,7.78570086 C2.79874422,8.08200764 -1.99285972,8.59595567 -6.78446366,9.32754496 C-5.75744166,5.17138357 -4.04253343,1.01609624 -1.63973896,-3.13919109" id="Fill-10" fill="#EDB051" mask="url(#mask-10)"></path></g><g id="Group-15" transform="translate(14.859042, 3.818512)"><mask id="mask-12" fill="white"><use xlink:href="#path-11"></use></mask><g id="Clip-14"></g><path d="M-2.10028185,-3.85749465 C1.67041851,-5.21753401 5.44199294,-6.06799563 9.21269331,-6.40887953 C8.73370773,-1.46256674 8.39194977,3.48374605 8.18741943,8.43005884 C3.39581548,8.57602707 -1.39578846,8.93963657 -6.18651834,9.52088732 C-5.37101917,5.06142666 -4.00923169,0.601966004 -2.10028185,-3.85749465" id="Fill-13" fill="#7BB45A" mask="url(#mask-12)"></path></g><g id="Group-18" transform="translate(20.977471, 2.944450)"><mask id="mask-14" fill="white"><use xlink:href="#path-13"></use></mask><g id="Clip-17"></g><path d="M-3.00545972,-4.53865061 C8.15193254,-7.17307131 19.3075767,-5.35065354 30.4649689,0.927728644 C33.4437698,4.64074097 35.5703609,8.35375329 36.8429941,12.0667656 C22.6683423,9.38339748 8.49281644,8.60460888 -5.68183536,9.73039981 C-5.14690985,4.97375831 -4.25536735,0.217116822 -3.00545972,-4.53865061" id="Fill-16" fill="#697D84" mask="url(#mask-14)"></path></g><g id="Group-21" transform="translate(6.992490, 12.559124)"><mask id="mask-16" fill="white"><use xlink:href="#path-15"></use></mask><g id="Clip-20"></g><path d="M-3.32134546,-3.01157814 C5.04866537,-5.2316938 13.4178021,-6.29892262 21.787813,-6.21501274 C21.8935744,2.07108821 21.9215443,10.3580632 21.8725969,18.6450382 C12.7290418,18.684371 3.58548678,18.1879042 -5.55806828,17.15826 C-6.84993085,10.4349806 -6.10435658,3.71170123 -3.32134546,-3.01157814" id="Fill-19" fill="#C4CACA" mask="url(#mask-16)"></path></g><g id="Group-24" transform="translate(25.347777, 12.559124)"><mask id="mask-18" fill="white"><use xlink:href="#path-17"></use></mask><g id="Clip-23"></g><path d="M-5.38185753,-5.87745027 C5.31490443,-6.80395523 16.0134145,-5.84860625 26.7101765,-3.01140333 C28.2887311,0.80387416 29.2117399,4.61827759 29.4792026,8.43355508 C17.5578808,7.95369544 5.63481086,7.7919941 -6.28651095,7.94845107 C-6.19910482,3.33952594 -5.89755368,-1.2693992 -5.38185753,-5.87745027" id="Fill-22" fill="#C4CACA" mask="url(#mask-18)"></path></g><g id="Group-27" transform="translate(24.473716, 16.929431)"><mask id="mask-20" fill="white"><use xlink:href="#path-19"></use></mask><g id="Clip-26"></g><path d="M-4.97253463,-5.38325602 C6.35355145,-6.03880199 17.6805116,-5.36315262 29.0065977,-3.35543385 C30.1245221,0.45984364 30.5860264,4.27512113 30.3919848,8.08952456 C18.4531818,8.43914908 6.51437873,8.55627329 -5.42442431,8.44264532 C-5.48823078,3.83372019 -5.33701818,-0.77520495 -4.97253463,-5.38325602" id="Fill-25" fill="#C4CACA" mask="url(#mask-20)"></path></g><g id="Group-30" transform="translate(24.473716, 22.173798)"><mask id="mask-22" fill="white"><use xlink:href="#path-21"></use></mask><g id="Clip-29"></g><path d="M-5.27810645,-5.76303565 C6.46228468,-6.14762261 18.2026758,-5.75079879 29.9430669,-4.57256419 C30.5986129,-0.757286694 30.5986129,3.0579908 29.9430669,6.87239423 C18.2026758,8.0515029 6.46228468,8.44832672 -5.27810645,8.06286569 C-5.49225147,3.45394056 -5.49225147,-1.15498458 -5.27810645,-5.76303565" id="Fill-28" fill="#C4CACA" mask="url(#mask-22)"></path></g><g id="Group-33" transform="translate(6.992490, 26.544105)"><mask id="mask-24" fill="white"><use xlink:href="#path-23"></use></mask><g id="Clip-32"></g><path d="M-6.12874289,-4.91633249 C11.8716751,-5.44251738 29.8720932,-5.44251738 47.8733852,-4.91633249 C48.0674268,-1.101055 47.6059225,2.71334844 46.4879981,6.52949999 C29.4105888,9.55637421 12.3331795,9.55637421 -4.74422982,6.52949999 C-5.86128014,2.71334844 -6.32365856,-1.101055 -6.12874289,-4.91633249" id="Fill-31" fill="#C4CACA" mask="url(#mask-24)"></path></g><g id="Group-36" transform="translate(6.992490, 30.914411)"><mask id="mask-26" fill="white"><use xlink:href="#path-25"></use></mask><g id="Clip-35"></g><path d="M-6.09028419,-5.25948895 C11.8847861,-4.53576621 29.8598563,-4.53576621 47.8340525,-5.25948895 C47.5683379,-1.44508552 46.6444551,2.37019198 45.0650263,6.18546947 C28.9359735,10.4622513 12.8077948,10.4622513 -3.32125806,6.18546947 C-4.90068679,2.37019198 -5.82282144,-1.44508552 -6.09028419,-5.25948895" id="Fill-34" fill="#C4CACA" mask="url(#mask-26)"></path></g><g id="Group-39" transform="translate(7.866552, 35.284718)"><mask id="mask-28" fill="white"><use xlink:href="#path-27"></use></mask><g id="Clip-38"></g><path d="M-6.43894724,-5.60343206 C11.1856244,-3.62892763 28.8110702,-3.62892763 46.4356418,-5.60343206 C45.7066747,-1.78815457 44.3221617,2.02624886 42.2812286,5.84240042 C27.4265571,11.369964 12.5710116,11.369964 -2.28540803,5.84240042 C-4.32546706,2.02624886 -5.71085419,-1.78815457 -6.43894724,-5.60343206" id="Fill-37" fill="#C4CACA" mask="url(#mask-28)"></path></g></g></g><g id="Magnifying-Glass" mask="url(#mask-2)"><g transform="translate(9.231513, 10.000000)"><g id="Fill-1292" fill="none"><use fill="black" fill-opacity="1" filter="url(#filter-30)" xlink:href="#path-29"></use><use fill="#30404D" fill-rule="evenodd" xlink:href="#path-29"></use></g><g id="Group-11" opacity="0.300000012" stroke-width="1" fill="none" fill-rule="evenodd" transform="translate(6.727301, 6.727301)"><path d="M63.145035,31.2808535 C63.145035,48.4553565 49.2202292,62.3784346 32.0474539,62.3784346 C14.8746785,62.3784346 0.949872787,48.4553565 0.949872787,31.2808535 C0.949872787,14.1080782 14.8746785,0.183272416 32.0474539,0.183272416 C49.2202292,0.183272416 63.145035,14.1080782 63.145035,31.2808535" id="Fill-1290" fill="#C7E7F1"></path><path d="M50.2913681,6.13154862 C54.0058014,11.2591942 56.2344614,17.5478162 56.2344614,24.3702799 C56.2344614,41.5447829 42.3096556,55.467861 25.1368803,55.467861 C18.3126889,55.467861 12.0240669,53.244384 6.89296606,49.5195848 C12.54236,57.299163 21.69887,62.3784346 32.0474539,62.3784346 C49.2202292,62.3784346 63.145035,48.4553565 63.145035,31.2808535 C63.145035,20.9288143 58.0657634,11.7843978 50.2913681,6.13154862" id="Fill-1293" fill="#ABDCEC"></path></g><path d="M60.8022083,68.9657967 C62.1670466,67.9896781 64.0329015,68.150349 65.2249754,69.33724 L70.2381965,69.4715961 L60.750379,59.9872339 C54.4272042,66.3086811 45.4089057,69.928094 35.5958912,68.9450649 C21.0491338,67.4903892 9.2838823,55.7303206 7.83266185,41.1904738 C6.84790512,31.3705488 10.4759562,22.3487949 16.7991311,16.0290754 L11.9099003,11.1450275 C3.73814701,19.325419 -0.753725816,31.2081503 1.23306409,44.0324472 C3.75542344,60.379409 17.0064483,73.3730149 33.3845077,75.6414107 C43.629433,77.0615336 53.2351303,74.361227 60.8022083,68.9657967 Z" id="Fill-1294" fill="#182A37" fill-rule="evenodd"></path><path d="M74.5518094,88 L62.9089222,76.3539164 C61.5268075,74.9735293 61.5268075,72.7120441 62.9089222,71.3299294 L72.099985,62.1423218 C73.4820997,60.7602071 75.7453126,60.7602071 77.1274273,62.1423218 L88.7684871,73.7865775 L88.7684871,88 L74.5518094,88 Z" id="Combined-Shape" fill="#DF5142" fill-rule="evenodd"></path><path d="M74.5526779,88 L62.5806699,76.0239365 C62.5806699,75.9945665 62.5806699,75.9790177 62.5806699,75.9496478 L67.2107542,71.3230188 C68.5583161,69.9737293 70.7351467,69.9737293 72.0827086,71.3230188 L88.7684871,87.9978378 L74.5526779,88 Z" id="Combined-Shape" fill="#C2423D" fill-rule="evenodd"></path></g></g></g><g id="PowerApps-Border" stroke="#742774" stroke-width="4"><rect id="Azure-Border" x="2" y="2" width="96" height="96" rx="48"></rect></g></g></g></g></svg>