<svg xmlns="http://www.w3.org/2000/svg" xmlns:xlink="http://www.w3.org/1999/xlink" viewBox="0 0 100 100"><defs><filter x="-4.3%" y="-3.2%" width="108.7%" height="112.9%" filterUnits="objectBoundingBox" id="a"><feOffset dy="2" in="SourceAlpha" result="shadowOffsetOuter1"/><feColorMatrix values="0 0 0 0 0 0 0 0 0 0 0 0 0 0 0 0 0 0 0.101279438 0" in="shadowOffsetOuter1" result="shadowMatrixOuter1"/><feMerge><feMergeNode in="shadowMatrixOuter1"/><feMergeNode in="SourceGraphic"/></feMerge></filter><path d="M9.167 10H5.833C5.373 10 5 9.642 5 9.2V6.8c0-.442.373-.8.833-.8h3.334c.46 0 .833.358.833.8v2.4c0 .442-.373.8-.833.8z" id="b"/><filter x="-10%" y="-12.5%" width="120%" height="125%" filterUnits="objectBoundingBox" id="c"><feOffset dy="1" in="SourceAlpha" result="shadowOffsetInner1"/><feComposite in="shadowOffsetInner1" in2="SourceAlpha" operator="arithmetic" k2="-1" k3="1" result="shadowInnerInner1"/><feColorMatrix values="0 0 0 0 0.301960784 0 0 0 0 0.62745098 0 0 0 0 0.741176471 0 0 0 1 0" in="shadowInnerInner1"/></filter><path d="M17.167 10h-3.334c-.46 0-.833-.358-.833-.8V6.8c0-.442.373-.8.833-.8h3.334c.46 0 .833.358.833.8v2.4c0 .442-.373.8-.833.8z" id="d"/><filter x="-10%" y="-12.5%" width="120%" height="125%" filterUnits="objectBoundingBox" id="e"><feOffset dy="1" in="SourceAlpha" result="shadowOffsetInner1"/><feComposite in="shadowOffsetInner1" in2="SourceAlpha" operator="arithmetic" k2="-1" k3="1" result="shadowInnerInner1"/><feColorMatrix values="0 0 0 0 0.301960784 0 0 0 0 0.62745098 0 0 0 0 0.741176471 0 0 0 1 0" in="shadowInnerInner1"/></filter><path d="M9.167 16H5.833c-.46 0-.833-.358-.833-.8v-2.4c0-.442.373-.8.833-.8h3.334c.46 0 .833.358.833.8v2.4c0 .442-.373.8-.833.8z" id="f"/><filter x="-10%" y="-12.5%" width="120%" height="125%" filterUnits="objectBoundingBox" id="g"><feOffset dy="1" in="SourceAlpha" result="shadowOffsetInner1"/><feComposite in="shadowOffsetInner1" in2="SourceAlpha" operator="arithmetic" k2="-1" k3="1" result="shadowInnerInner1"/><feColorMatrix values="0 0 0 0 0.301960784 0 0 0 0 0.62745098 0 0 0 0 0.741176471 0 0 0 1 0" in="shadowInnerInner1"/></filter><path d="M17.167 16h-3.334c-.46 0-.833-.358-.833-.8v-2.4c0-.442.373-.8.833-.8h3.334c.46 0 .833.358.833.8v2.4c0 .442-.373.8-.833.8z" id="h"/><filter x="-10%" y="-12.5%" width="120%" height="125%" filterUnits="objectBoundingBox" id="i"><feOffset dy="1" in="SourceAlpha" result="shadowOffsetInner1"/><feComposite in="shadowOffsetInner1" in2="SourceAlpha" operator="arithmetic" k2="-1" k3="1" result="shadowInnerInner1"/><feColorMatrix values="0 0 0 0 0.301960784 0 0 0 0 0.62745098 0 0 0 0 0.741176471 0 0 0 1 0" in="shadowInnerInner1"/></filter><path d="M9.167 22H5.833c-.46 0-.833-.358-.833-.8v-2.4c0-.442.373-.8.833-.8h3.334c.46 0 .833.358.833.8v2.4c0 .442-.373.8-.833.8z" id="j"/><filter x="-10%" y="-12.5%" width="120%" height="125%" filterUnits="objectBoundingBox" id="k"><feOffset dy="1" in="SourceAlpha" result="shadowOffsetInner1"/><feComposite in="shadowOffsetInner1" in2="SourceAlpha" operator="arithmetic" k2="-1" k3="1" result="shadowInnerInner1"/><feColorMatrix values="0 0 0 0 0.301960784 0 0 0 0 0.62745098 0 0 0 0 0.741176471 0 0 0 1 0" in="shadowInnerInner1"/></filter><path d="M17.167 22h-3.334c-.46 0-.833-.358-.833-.8v-2.4c0-.442.373-.8.833-.8h3.334c.46 0 .833.358.833.8v2.4c0 .442-.373.8-.833.8z" id="l"/><filter x="-10%" y="-12.5%" width="120%" height="125%" filterUnits="objectBoundingBox" id="m"><feOffset dy="1" in="SourceAlpha" result="shadowOffsetInner1"/><feComposite in="shadowOffsetInner1" in2="SourceAlpha" operator="arithmetic" k2="-1" k3="1" result="shadowInnerInner1"/><feColorMatrix values="0 0 0 0 0.301960784 0 0 0 0 0.62745098 0 0 0 0 0.741176471 0 0 0 1 0" in="shadowInnerInner1"/></filter><filter x="-4.3%" y="-2.3%" width="108.7%" height="109.3%" filterUnits="objectBoundingBox" id="n"><feOffset dy="2" in="SourceAlpha" result="shadowOffsetOuter1"/><feColorMatrix values="0 0 0 0 0 0 0 0 0 0 0 0 0 0 0 0 0 0 0.101279438 0" in="shadowOffsetOuter1" result="shadowMatrixOuter1"/><feMerge><feMergeNode in="shadowMatrixOuter1"/><feMergeNode in="SourceGraphic"/></feMerge></filter><path d="M9.167 22H5.833c-.46 0-.833-.358-.833-.8v-2.4c0-.442.373-.8.833-.8h3.334c.46 0 .833.358.833.8v2.4c0 .442-.373.8-.833.8z" id="o"/><filter x="-10%" y="-12.5%" width="120%" height="125%" filterUnits="objectBoundingBox" id="p"><feOffset dy="1" in="SourceAlpha" result="shadowOffsetInner1"/><feComposite in="shadowOffsetInner1" in2="SourceAlpha" operator="arithmetic" k2="-1" k3="1" result="shadowInnerInner1"/><feColorMatrix values="0 0 0 0 0.301960784 0 0 0 0 0.62745098 0 0 0 0 0.741176471 0 0 0 1 0" in="shadowInnerInner1"/></filter><path d="M17.167 22h-3.334c-.46 0-.833-.358-.833-.8v-2.4c0-.442.373-.8.833-.8h3.334c.46 0 .833.358.833.8v2.4c0 .442-.373.8-.833.8z" id="q"/><filter x="-10%" y="-12.5%" width="120%" height="125%" filterUnits="objectBoundingBox" id="r"><feOffset dy="1" in="SourceAlpha" result="shadowOffsetInner1"/><feComposite in="shadowOffsetInner1" in2="SourceAlpha" operator="arithmetic" k2="-1" k3="1" result="shadowInnerInner1"/><feColorMatrix values="0 0 0 0 0.301960784 0 0 0 0 0.62745098 0 0 0 0 0.741176471 0 0 0 1 0" in="shadowInnerInner1"/></filter><path d="M9.167 28H5.833c-.46 0-.833-.358-.833-.8v-2.4c0-.442.373-.8.833-.8h3.334c.46 0 .833.358.833.8v2.4c0 .442-.373.8-.833.8z" id="s"/><filter x="-10%" y="-12.5%" width="120%" height="125%" filterUnits="objectBoundingBox" id="t"><feOffset dy="1" in="SourceAlpha" result="shadowOffsetInner1"/><feComposite in="shadowOffsetInner1" in2="SourceAlpha" operator="arithmetic" k2="-1" k3="1" result="shadowInnerInner1"/><feColorMatrix values="0 0 0 0 0.301960784 0 0 0 0 0.62745098 0 0 0 0 0.741176471 0 0 0 1 0" in="shadowInnerInner1"/></filter><path d="M17.167 28h-3.334c-.46 0-.833-.358-.833-.8v-2.4c0-.442.373-.8.833-.8h3.334c.46 0 .833.358.833.8v2.4c0 .442-.373.8-.833.8z" id="u"/><filter x="-10%" y="-12.5%" width="120%" height="125%" filterUnits="objectBoundingBox" id="v"><feOffset dy="1" in="SourceAlpha" result="shadowOffsetInner1"/><feComposite in="shadowOffsetInner1" in2="SourceAlpha" operator="arithmetic" k2="-1" k3="1" result="shadowInnerInner1"/><feColorMatrix values="0 0 0 0 0.301960784 0 0 0 0 0.62745098 0 0 0 0 0.741176471 0 0 0 1 0" in="shadowInnerInner1"/></filter><path d="M9.167 34H5.833c-.46 0-.833-.358-.833-.8v-2.4c0-.442.373-.8.833-.8h3.334c.46 0 .833.358.833.8v2.4c0 .442-.373.8-.833.8z" id="w"/><filter x="-10%" y="-12.5%" width="120%" height="125%" filterUnits="objectBoundingBox" id="x"><feOffset dy="1" in="SourceAlpha" result="shadowOffsetInner1"/><feComposite in="shadowOffsetInner1" in2="SourceAlpha" operator="arithmetic" k2="-1" k3="1" result="shadowInnerInner1"/><feColorMatrix values="0 0 0 0 0.301960784 0 0 0 0 0.62745098 0 0 0 0 0.741176471 0 0 0 1 0" in="shadowInnerInner1"/></filter><path d="M17.167 34h-3.334c-.46 0-.833-.358-.833-.8v-2.4c0-.442.373-.8.833-.8h3.334c.46 0 .833.358.833.8v2.4c0 .442-.373.8-.833.8z" id="y"/><filter x="-10%" y="-12.5%" width="120%" height="125%" filterUnits="objectBoundingBox" id="z"><feOffset dy="1" in="SourceAlpha" result="shadowOffsetInner1"/><feComposite in="shadowOffsetInner1" in2="SourceAlpha" operator="arithmetic" k2="-1" k3="1" result="shadowInnerInner1"/><feColorMatrix values="0 0 0 0 0.301960784 0 0 0 0 0.62745098 0 0 0 0 0.741176471 0 0 0 1 0" in="shadowInnerInner1"/></filter><path d="M9.167 10H5.833C5.373 10 5 9.642 5 9.2V6.8c0-.442.373-.8.833-.8h3.334c.46 0 .833.358.833.8v2.4c0 .442-.373.8-.833.8z" id="A"/><filter x="-10%" y="-12.5%" width="120%" height="125%" filterUnits="objectBoundingBox" id="B"><feOffset dy="1" in="SourceAlpha" result="shadowOffsetInner1"/><feComposite in="shadowOffsetInner1" in2="SourceAlpha" operator="arithmetic" k2="-1" k3="1" result="shadowInnerInner1"/><feColorMatrix values="0 0 0 0 0.301960784 0 0 0 0 0.62745098 0 0 0 0 0.741176471 0 0 0 1 0" in="shadowInnerInner1"/></filter><path d="M17.167 10h-3.334c-.46 0-.833-.358-.833-.8V6.8c0-.442.373-.8.833-.8h3.334c.46 0 .833.358.833.8v2.4c0 .442-.373.8-.833.8z" id="C"/><filter x="-10%" y="-12.5%" width="120%" height="125%" filterUnits="objectBoundingBox" id="D"><feOffset dy="1" in="SourceAlpha" result="shadowOffsetInner1"/><feComposite in="shadowOffsetInner1" in2="SourceAlpha" operator="arithmetic" k2="-1" k3="1" result="shadowInnerInner1"/><feColorMatrix values="0 0 0 0 0.301960784 0 0 0 0 0.62745098 0 0 0 0 0.741176471 0 0 0 1 0" in="shadowInnerInner1"/></filter><path d="M9.167 16H5.833c-.46 0-.833-.358-.833-.8v-2.4c0-.442.373-.8.833-.8h3.334c.46 0 .833.358.833.8v2.4c0 .442-.373.8-.833.8z" id="E"/><filter x="-10%" y="-12.5%" width="120%" height="125%" filterUnits="objectBoundingBox" id="F"><feOffset dy="1" in="SourceAlpha" result="shadowOffsetInner1"/><feComposite in="shadowOffsetInner1" in2="SourceAlpha" operator="arithmetic" k2="-1" k3="1" result="shadowInnerInner1"/><feColorMatrix values="0 0 0 0 0.301960784 0 0 0 0 0.62745098 0 0 0 0 0.741176471 0 0 0 1 0" in="shadowInnerInner1"/></filter><path d="M17.167 16h-3.334c-.46 0-.833-.358-.833-.8v-2.4c0-.442.373-.8.833-.8h3.334c.46 0 .833.358.833.8v2.4c0 .442-.373.8-.833.8z" id="G"/><filter x="-10%" y="-12.5%" width="120%" height="125%" filterUnits="objectBoundingBox" id="H"><feOffset dy="1" in="SourceAlpha" result="shadowOffsetInner1"/><feComposite in="shadowOffsetInner1" in2="SourceAlpha" operator="arithmetic" k2="-1" k3="1" result="shadowInnerInner1"/><feColorMatrix values="0 0 0 0 0.301960784 0 0 0 0 0.62745098 0 0 0 0 0.741176471 0 0 0 1 0" in="shadowInnerInner1"/></filter><filter x="-4.3%" y="-2%" width="108.7%" height="108.2%" filterUnits="objectBoundingBox" id="I"><feOffset dy="2" in="SourceAlpha" result="shadowOffsetOuter1"/><feColorMatrix values="0 0 0 0 0 0 0 0 0 0 0 0 0 0 0 0 0 0 0.101279438 0" in="shadowOffsetOuter1" result="shadowMatrixOuter1"/><feMerge><feMergeNode in="shadowMatrixOuter1"/><feMergeNode in="SourceGraphic"/></feMerge></filter><path d="M9.167 28H5.833c-.46 0-.833-.358-.833-.8v-2.4c0-.442.373-.8.833-.8h3.334c.46 0 .833.358.833.8v2.4c0 .442-.373.8-.833.8z" id="J"/><filter x="-10%" y="-12.5%" width="120%" height="125%" filterUnits="objectBoundingBox" id="K"><feOffset dy="1" in="SourceAlpha" result="shadowOffsetInner1"/><feComposite in="shadowOffsetInner1" in2="SourceAlpha" operator="arithmetic" k2="-1" k3="1" result="shadowInnerInner1"/><feColorMatrix values="0 0 0 0 0.301960784 0 0 0 0 0.62745098 0 0 0 0 0.741176471 0 0 0 1 0" in="shadowInnerInner1"/></filter><path d="M17.167 28h-3.334c-.46 0-.833-.358-.833-.8v-2.4c0-.442.373-.8.833-.8h3.334c.46 0 .833.358.833.8v2.4c0 .442-.373.8-.833.8z" id="L"/><filter x="-10%" y="-12.5%" width="120%" height="125%" filterUnits="objectBoundingBox" id="M"><feOffset dy="1" in="SourceAlpha" result="shadowOffsetInner1"/><feComposite in="shadowOffsetInner1" in2="SourceAlpha" operator="arithmetic" k2="-1" k3="1" result="shadowInnerInner1"/><feColorMatrix values="0 0 0 0 0.301960784 0 0 0 0 0.62745098 0 0 0 0 0.741176471 0 0 0 1 0" in="shadowInnerInner1"/></filter><path d="M9.167 34H5.833c-.46 0-.833-.358-.833-.8v-2.4c0-.442.373-.8.833-.8h3.334c.46 0 .833.358.833.8v2.4c0 .442-.373.8-.833.8z" id="N"/><filter x="-10%" y="-12.5%" width="120%" height="125%" filterUnits="objectBoundingBox" id="O"><feOffset dy="1" in="SourceAlpha" result="shadowOffsetInner1"/><feComposite in="shadowOffsetInner1" in2="SourceAlpha" operator="arithmetic" k2="-1" k3="1" result="shadowInnerInner1"/><feColorMatrix values="0 0 0 0 0.301960784 0 0 0 0 0.62745098 0 0 0 0 0.741176471 0 0 0 1 0" in="shadowInnerInner1"/></filter><path d="M17.167 34h-3.334c-.46 0-.833-.358-.833-.8v-2.4c0-.442.373-.8.833-.8h3.334c.46 0 .833.358.833.8v2.4c0 .442-.373.8-.833.8z" id="P"/><filter x="-10%" y="-12.5%" width="120%" height="125%" filterUnits="objectBoundingBox" id="Q"><feOffset dy="1" in="SourceAlpha" result="shadowOffsetInner1"/><feComposite in="shadowOffsetInner1" in2="SourceAlpha" operator="arithmetic" k2="-1" k3="1" result="shadowInnerInner1"/><feColorMatrix values="0 0 0 0 0.301960784 0 0 0 0 0.62745098 0 0 0 0 0.741176471 0 0 0 1 0" in="shadowInnerInner1"/></filter><path d="M9.167 40H5.833c-.46 0-.833-.358-.833-.8v-2.4c0-.442.373-.8.833-.8h3.334c.46 0 .833.358.833.8v2.4c0 .442-.373.8-.833.8z" id="R"/><filter x="-10%" y="-12.5%" width="120%" height="125%" filterUnits="objectBoundingBox" id="S"><feOffset dy="1" in="SourceAlpha" result="shadowOffsetInner1"/><feComposite in="shadowOffsetInner1" in2="SourceAlpha" operator="arithmetic" k2="-1" k3="1" result="shadowInnerInner1"/><feColorMatrix values="0 0 0 0 0.301960784 0 0 0 0 0.62745098 0 0 0 0 0.741176471 0 0 0 1 0" in="shadowInnerInner1"/></filter><path d="M17.167 40h-3.334c-.46 0-.833-.358-.833-.8v-2.4c0-.442.373-.8.833-.8h3.334c.46 0 .833.358.833.8v2.4c0 .442-.373.8-.833.8z" id="T"/><filter x="-10%" y="-12.5%" width="120%" height="125%" filterUnits="objectBoundingBox" id="U"><feOffset dy="1" in="SourceAlpha" result="shadowOffsetInner1"/><feComposite in="shadowOffsetInner1" in2="SourceAlpha" operator="arithmetic" k2="-1" k3="1" result="shadowInnerInner1"/><feColorMatrix values="0 0 0 0 0.301960784 0 0 0 0 0.62745098 0 0 0 0 0.741176471 0 0 0 1 0" in="shadowInnerInner1"/></filter><path d="M9.167 10H5.833C5.373 10 5 9.642 5 9.2V6.8c0-.442.373-.8.833-.8h3.334c.46 0 .833.358.833.8v2.4c0 .442-.373.8-.833.8z" id="V"/><filter x="-10%" y="-12.5%" width="120%" height="125%" filterUnits="objectBoundingBox" id="W"><feOffset dy="1" in="SourceAlpha" result="shadowOffsetInner1"/><feComposite in="shadowOffsetInner1" in2="SourceAlpha" operator="arithmetic" k2="-1" k3="1" result="shadowInnerInner1"/><feColorMatrix values="0 0 0 0 0.301960784 0 0 0 0 0.62745098 0 0 0 0 0.741176471 0 0 0 1 0" in="shadowInnerInner1"/></filter><path d="M17.167 10h-3.334c-.46 0-.833-.358-.833-.8V6.8c0-.442.373-.8.833-.8h3.334c.46 0 .833.358.833.8v2.4c0 .442-.373.8-.833.8z" id="X"/><filter x="-10%" y="-12.5%" width="120%" height="125%" filterUnits="objectBoundingBox" id="Y"><feOffset dy="1" in="SourceAlpha" result="shadowOffsetInner1"/><feComposite in="shadowOffsetInner1" in2="SourceAlpha" operator="arithmetic" k2="-1" k3="1" result="shadowInnerInner1"/><feColorMatrix values="0 0 0 0 0.301960784 0 0 0 0 0.62745098 0 0 0 0 0.741176471 0 0 0 1 0" in="shadowInnerInner1"/></filter><path d="M9.167 16H5.833c-.46 0-.833-.358-.833-.8v-2.4c0-.442.373-.8.833-.8h3.334c.46 0 .833.358.833.8v2.4c0 .442-.373.8-.833.8z" id="Z"/><filter x="-10%" y="-12.5%" width="120%" height="125%" filterUnits="objectBoundingBox" id="aa"><feOffset dy="1" in="SourceAlpha" result="shadowOffsetInner1"/><feComposite in="shadowOffsetInner1" in2="SourceAlpha" operator="arithmetic" k2="-1" k3="1" result="shadowInnerInner1"/><feColorMatrix values="0 0 0 0 0.301960784 0 0 0 0 0.62745098 0 0 0 0 0.741176471 0 0 0 1 0" in="shadowInnerInner1"/></filter><path d="M17.167 16h-3.334c-.46 0-.833-.358-.833-.8v-2.4c0-.442.373-.8.833-.8h3.334c.46 0 .833.358.833.8v2.4c0 .442-.373.8-.833.8z" id="ab"/><filter x="-10%" y="-12.5%" width="120%" height="125%" filterUnits="objectBoundingBox" id="ac"><feOffset dy="1" in="SourceAlpha" result="shadowOffsetInner1"/><feComposite in="shadowOffsetInner1" in2="SourceAlpha" operator="arithmetic" k2="-1" k3="1" result="shadowInnerInner1"/><feColorMatrix values="0 0 0 0 0.301960784 0 0 0 0 0.62745098 0 0 0 0 0.741176471 0 0 0 1 0" in="shadowInnerInner1"/></filter><path d="M9.167 22H5.833c-.46 0-.833-.358-.833-.8v-2.4c0-.442.373-.8.833-.8h3.334c.46 0 .833.358.833.8v2.4c0 .442-.373.8-.833.8z" id="ad"/><filter x="-10%" y="-12.5%" width="120%" height="125%" filterUnits="objectBoundingBox" id="ae"><feOffset dy="1" in="SourceAlpha" result="shadowOffsetInner1"/><feComposite in="shadowOffsetInner1" in2="SourceAlpha" operator="arithmetic" k2="-1" k3="1" result="shadowInnerInner1"/><feColorMatrix values="0 0 0 0 0.301960784 0 0 0 0 0.62745098 0 0 0 0 0.741176471 0 0 0 1 0" in="shadowInnerInner1"/></filter><path d="M17.167 22h-3.334c-.46 0-.833-.358-.833-.8v-2.4c0-.442.373-.8.833-.8h3.334c.46 0 .833.358.833.8v2.4c0 .442-.373.8-.833.8z" id="af"/><filter x="-10%" y="-12.5%" width="120%" height="125%" filterUnits="objectBoundingBox" id="ag"><feOffset dy="1" in="SourceAlpha" result="shadowOffsetInner1"/><feComposite in="shadowOffsetInner1" in2="SourceAlpha" operator="arithmetic" k2="-1" k3="1" result="shadowInnerInner1"/><feColorMatrix values="0 0 0 0 0.301960784 0 0 0 0 0.62745098 0 0 0 0 0.741176471 0 0 0 1 0" in="shadowInnerInner1"/></filter></defs><g fill="none" fill-rule="evenodd"><rect fill="#55A2FF" x="2" y="2" width="96" height="96" rx="48"/><g filter="url(#a)" transform="translate(12 41)"><path d="M22 31H1V1.79c0-.436.336-.79.75-.79h19.5c.414 0 .75.354.75.79V31z" fill="#E1E4E1" fill-rule="nonzero"/><path d="M11.69 31H1V1.977c0-.433.342-.785.764-.785h9.55c.422 0 .376-.433.376 0V31z" fill="#C5CCCD" fill-rule="nonzero"/><g fill-rule="nonzero"><use fill="#55B7D9" xlink:href="#b"/><use fill="#000" filter="url(#c)" xlink:href="#b"/></g><g fill-rule="nonzero"><use fill="#55B7D9" xlink:href="#d"/><use fill="#000" filter="url(#e)" xlink:href="#d"/></g><g fill-rule="nonzero"><use fill="#55B7D9" xlink:href="#f"/><use fill="#000" filter="url(#g)" xlink:href="#f"/></g><g fill-rule="nonzero"><use fill="#55B7D9" xlink:href="#h"/><use fill="#000" filter="url(#i)" xlink:href="#h"/></g><g fill-rule="nonzero"><use fill="#55B7D9" xlink:href="#j"/><use fill="#000" filter="url(#k)" xlink:href="#j"/></g><g fill-rule="nonzero"><use fill="#55B7D9" xlink:href="#l"/><use fill="#000" filter="url(#m)" xlink:href="#l"/></g><path d="M13.167 25H9.833c-.46 0-.833.336-.833.75V31h5v-5.25c0-.414-.373-.75-.833-.75z" fill="#30404D" fill-rule="nonzero"/><path d="M11 25H9.67c-.37 0-.67.336-.67.75V31h1.995L11 25z" fill="#233039" fill-rule="nonzero"/><rect fill="#30404D" width="23" height="2" rx="1"/></g><g filter="url(#n)" transform="translate(38 29)"><path d="M22 43H1V2.105C1 1.495 1.336 1 1.75 1h19.5c.414 0 .75.495.75 1.105V43z" fill="#E1E4E1" fill-rule="nonzero"/><path d="M11.69 43H1V2.368c0-.607.342-1.099.764-1.099h9.55c.422 0 .376-.606.376 0V43z" fill="#C5CCCD" fill-rule="nonzero"/><g fill-rule="nonzero"><use fill="#55B7D9" xlink:href="#o"/><use fill="#000" filter="url(#p)" xlink:href="#o"/></g><g fill-rule="nonzero"><use fill="#55B7D9" xlink:href="#q"/><use fill="#000" filter="url(#r)" xlink:href="#q"/></g><g fill-rule="nonzero"><use fill="#55B7D9" xlink:href="#s"/><use fill="#000" filter="url(#t)" xlink:href="#s"/></g><g fill-rule="nonzero"><use fill="#55B7D9" xlink:href="#u"/><use fill="#000" filter="url(#v)" xlink:href="#u"/></g><g fill-rule="nonzero"><use fill="#55B7D9" xlink:href="#w"/><use fill="#000" filter="url(#x)" xlink:href="#w"/></g><g fill-rule="nonzero"><use fill="#55B7D9" xlink:href="#y"/><use fill="#000" filter="url(#z)" xlink:href="#y"/></g><g fill-rule="nonzero"><use fill="#55B7D9" xlink:href="#A"/><use fill="#000" filter="url(#B)" xlink:href="#A"/></g><g fill-rule="nonzero"><use fill="#55B7D9" xlink:href="#C"/><use fill="#000" filter="url(#D)" xlink:href="#C"/></g><g fill-rule="nonzero"><use fill="#55B7D9" xlink:href="#E"/><use fill="#000" filter="url(#F)" xlink:href="#E"/></g><g fill-rule="nonzero"><use fill="#55B7D9" xlink:href="#G"/><use fill="#000" filter="url(#H)" xlink:href="#G"/></g><path d="M13.167 37H9.833c-.46 0-.833.336-.833.75V43h5v-5.25c0-.414-.373-.75-.833-.75z" fill="#30404D" fill-rule="nonzero"/><path d="M11 37H9.67c-.37 0-.67.336-.67.75V43h1.995L11 37z" fill="#233039" fill-rule="nonzero"/><rect fill="#30404D" width="23" height="2" rx="1"/></g><g filter="url(#I)" transform="translate(64 23)"><path d="M22 49H1V2.263C1 1.566 1.336 1 1.75 1h19.5c.414 0 .75.566.75 1.263V49z" fill="#E1E4E1" fill-rule="nonzero"/><path d="M11.69 49H1V2.563c0-.693.342-1.255.764-1.255h9.55c.422 0 .376-.693.376 0V49z" fill="#C5CCCD" fill-rule="nonzero"/><g fill-rule="nonzero"><use fill="#55B7D9" xlink:href="#J"/><use fill="#000" filter="url(#K)" xlink:href="#J"/></g><g fill-rule="nonzero"><use fill="#55B7D9" xlink:href="#L"/><use fill="#000" filter="url(#M)" xlink:href="#L"/></g><g fill-rule="nonzero"><use fill="#55B7D9" xlink:href="#N"/><use fill="#000" filter="url(#O)" xlink:href="#N"/></g><g fill-rule="nonzero"><use fill="#55B7D9" xlink:href="#P"/><use fill="#000" filter="url(#Q)" xlink:href="#P"/></g><g fill-rule="nonzero"><use fill="#55B7D9" xlink:href="#R"/><use fill="#000" filter="url(#S)" xlink:href="#R"/></g><g fill-rule="nonzero"><use fill="#55B7D9" xlink:href="#T"/><use fill="#000" filter="url(#U)" xlink:href="#T"/></g><g fill-rule="nonzero"><use fill="#55B7D9" xlink:href="#V"/><use fill="#000" filter="url(#W)" xlink:href="#V"/></g><g fill-rule="nonzero"><use fill="#55B7D9" xlink:href="#X"/><use fill="#000" filter="url(#Y)" xlink:href="#X"/></g><g fill-rule="nonzero"><use fill="#55B7D9" xlink:href="#Z"/><use fill="#000" filter="url(#aa)" xlink:href="#Z"/></g><g fill-rule="nonzero"><use fill="#55B7D9" xlink:href="#ab"/><use fill="#000" filter="url(#ac)" xlink:href="#ab"/></g><g fill-rule="nonzero"><use fill="#55B7D9" xlink:href="#ad"/><use fill="#000" filter="url(#ae)" xlink:href="#ad"/></g><g fill-rule="nonzero"><use fill="#55B7D9" xlink:href="#af"/><use fill="#000" filter="url(#ag)" xlink:href="#af"/></g><path d="M13.167 43H9.833c-.46 0-.833.336-.833.75V49h5v-5.25c0-.414-.373-.75-.833-.75z" fill="#30404D" fill-rule="nonzero"/><path d="M11 43H9.67c-.37 0-.67.336-.67.75V49h1.995L11 43z" fill="#233039" fill-rule="nonzero"/><rect fill="#30404D" width="23" height="2" rx="1"/></g><path d="M86.37 72c.397-.62.63-1.37.63-2.181C87 67.709 85.433 66 83.5 66S80 67.709 80 69.819c0 .81.234 1.562.63 2.181h5.74" fill="#6AA143"/><path d="M90.19 72c.51-.723.81-1.599.81-2.545C91 66.994 88.985 65 86.5 65S82 66.994 82 69.455c0 .946.3 1.822.81 2.545h7.38" fill="#87BF5F"/><path d="M82 67c-1.16.445-2 1.662-2 3.113 0 .701.197 1.351.531 1.887h1.286a4.602 4.602 0 0 1-.636-2.36c0-1.004.308-1.924.819-2.64m7.006-1c.621.717 1.003 1.599 1.003 2.565 0 1.411-.796 2.652-2.009 3.435h2.108c.627-.72.892-1.605.892-2.576 0-1.405-.79-2.64-1.994-3.424" fill="#6EA846"/><path d="M17 72c.699-.723 1-1.598 1-3 0-2.006-2.015-4-4-4-2.985 0-5 1.994-5 4 0 1.402.301 2.277 1 3h7" fill="#87BF5F"/><path d="M16 66c.627.717 1.01 1.599 1 3 .01.976-.787 2.217-2 3h2c.735-.72 1-1.605 1-3 0-.981-.79-2.217-2-3" fill="#6EA846"/><g stroke="#0078D4" stroke-width="4"><rect x="2" y="2" width="96" height="96" rx="48"/></g></g></svg>