<svg xmlns="http://www.w3.org/2000/svg" xmlns:xlink="http://www.w3.org/1999/xlink" viewBox="0 0 100 100" version="1.1"><!-- Generator: Sketch 51.3 (57544) - http://www.bohemiancoding.com/sketch --><title>Create a dashboard with Power BI/create-and-share-your-first-report</title><desc>Created with Sketch.</desc><defs><filter x="-2.0%" y="-1.6%" width="103.9%" height="106.2%" filterUnits="objectBoundingBox" id="filter-1"><feOffset dx="0" dy="2" in="SourceAlpha" result="shadowOffsetOuter1"></feOffset><feColorMatrix values="0 0 0 0 0   0 0 0 0 0   0 0 0 0 0  0 0 0 0.0974014946 0" type="matrix" in="shadowOffsetOuter1" result="shadowMatrixOuter1"></feColorMatrix><feMerge><feMergeNode in="shadowMatrixOuter1"></feMergeNode><feMergeNode in="SourceGraphic"></feMergeNode></feMerge></filter></defs><g id="Badges-FINAL" stroke="none" stroke-width="1" fill="none" fill-rule="evenodd"><g id="Create-a-dashboard-with-Power-BI" transform="translate(-577.000000, -504.000000)"><g id="Create-a-dashboard-with-Power-BI/create-and-share-your-first-report" transform="translate(577.000000, 504.000000)"><rect id="BG" fill="#7D7D7D" x="2" y="2" width="96" height="96" rx="48"></rect><g id="Paper" filter="url(#filter-1)" transform="translate(25.000000, 18.000000)" fill-rule="nonzero"><polygon id="Shape" fill="#C0C0C0" points="31.8315674 0.458657034 50.3631561 0.458657034 50.3631561 20.0267773"></polygon><path d="M50.3631561,60.7293337 C50.3631561,62.2571533 49.1362963,63.496251 47.6225019,63.496251 L3.29539913,63.496251 C1.78160474,63.496251 0.554744922,62.2571533 0.554744922,60.7293337 L0.554744922,3.22557433 C0.554744922,1.69775478 1.78160474,0.458657034 3.29539913,0.458657034 L31.8310907,0.458657034 L50.3631561,19.1683112 L50.3631561,60.7293337 Z" id="Shape" fill="#F7CB64"></path><path d="M34.5722216,19.1683112 L50.3631561,19.1683112 L50.3631561,34.9849728 L32.7955595,18.5082029 C33.2739669,18.9198261 33.8943237,19.1683112 34.5722216,19.1683112 Z" id="Shape" fill-opacity="0.0501868207" fill="#000000"></path><path d="M31.8315674,0.458657034 L50.3636328,19.1683112 L34.5722216,19.1683112 C33.0584272,19.1683112 31.8315674,17.9292134 31.8315674,16.4013939 L31.8315674,0.458657034 Z" id="Shape" fill="#FFDC8A"></path><g id="Lines" transform="translate(3.959829, 44.550326)" fill="#FFDC8A"><rect id="Rectangle-path" x="0.138224299" y="0.380150376" width="11.9864299" height="1.12312782"></rect><rect id="Rectangle-path" x="0.138224299" y="4.06905263" width="11.9864299" height="1.12312782"></rect><rect id="Rectangle-path" x="0.138224299" y="7.75747368" width="11.9864299" height="1.12360902"></rect><rect id="Rectangle-path" x="0.138224299" y="11.4463759" width="11.9864299" height="1.12312782"></rect></g><g id="Pie" transform="translate(25.000000, 40.000000)"><path d="M9.83055801,10.4643112 L9.7929038,10.6240706 L9.83055801,10.4643112 L9.71330567,10.4643112 L9.83055801,10.4643112 L11.8533991,1.83393523 C11.1536982,1.66262696 10.426829,1.56205553 9.67469819,1.56205553 C4.58518417,1.56205553 0.459427165,5.72686756 0.459427165,10.8656345 C0.459427165,16.003439 4.58518417,20.1692134 9.67469819,20.1692134 C14.7646888,20.1692134 18.8899692,16.003439 18.8899692,10.8656345 C18.8899692,10.7299352 18.87853,10.5976044 18.8728103,10.4643112 L9.83055801,10.4643112 Z" id="Shape" fill="#876D31"></path><path d="M11.1074645,9.40373974 L13.5030346,0.937454026 C17.1969599,2.34834124 19.842287,6.73306305 20.1335113,9.40373974 L11.1074645,9.40373974 Z" id="Shape" fill="#FFDC8A"></path></g><g id="Graph" transform="translate(3.483194, 21.452582)" fill="#876D31"><path d="M3.10814019,6.18538346 C1.47042056,6.18538346 0.138700935,4.83993985 0.138700935,3.18700752 C0.138700935,1.53407519 1.4708972,0.189112782 3.10814019,0.189112782 C4.74585981,0.189112782 6.07805607,1.53407519 6.07805607,3.18700752 C6.07805607,4.83993985 4.74538318,6.18538346 3.10814019,6.18538346 Z M3.10814019,1.15103759 C1.99614953,1.15103759 1.09197196,2.0643609 1.09197196,3.18652632 C1.09197196,4.30965414 1.99614953,5.22249624 3.10814019,5.22249624 C4.22013084,5.22249624 5.12478505,4.30965414 5.12478505,3.18652632 C5.12478505,2.0643609 4.22013084,1.15103759 3.10814019,1.15103759 Z" id="Shape"></path><path d="M12.4420935,16.0404211 C10.8043738,16.0404211 9.47265421,14.6949774 9.47265421,13.0420451 C9.47265421,11.3886316 10.8048505,10.0441504 12.4420935,10.0441504 C14.0798131,10.0441504 15.4120093,11.3891128 15.4120093,13.0420451 C15.412486,14.6949774 14.0798131,16.0404211 12.4420935,16.0404211 Z M12.4420935,11.0060752 C11.3301028,11.0060752 10.4259252,11.9189173 10.4259252,13.0415639 C10.4259252,14.1642105 11.3301028,15.0775338 12.4420935,15.0775338 C13.5540841,15.0775338 14.4587383,14.1642105 14.4587383,13.0415639 C14.4587383,11.9189173 13.5545607,11.0060752 12.4420935,11.0060752 Z" id="Shape"></path><path d="M26.7321028,10.0816842 C25.0943832,10.0816842 23.7626636,8.7362406 23.7626636,7.08330827 C23.7626636,5.42989474 25.0948598,4.08541353 26.7321028,4.08541353 C28.3693458,4.08541353 29.7020187,5.43037594 29.7020187,7.08330827 C29.7020187,8.7362406 28.3693458,10.0816842 26.7321028,10.0816842 Z M26.7321028,5.04733835 C25.6201121,5.04733835 24.7159346,5.96018045 24.7159346,7.08282707 C24.7159346,8.20547368 25.6201121,9.11879699 26.7321028,9.11879699 C27.8440935,9.11879699 28.7487477,8.20547368 28.7487477,7.08282707 C28.7487477,5.96066165 27.8440935,5.04733835 26.7321028,5.04733835 Z" id="Shape"></path><path d="M40.106972,16.0404211 C38.4692523,16.0404211 37.1375327,14.6949774 37.1375327,13.0420451 C37.1375327,11.3886316 38.469729,10.0441504 40.106972,10.0441504 C41.7446916,10.0441504 43.0768879,11.3891128 43.0768879,13.0420451 C43.0773645,14.6949774 41.7446916,16.0404211 40.106972,16.0404211 Z M40.106972,11.0060752 C38.9949813,11.0060752 38.0908037,11.9189173 38.0908037,13.0415639 C38.0908037,14.1642105 38.9949813,15.0775338 40.106972,15.0775338 C41.2189626,15.0775338 42.1236168,14.1642105 42.1236168,13.0415639 C42.1236168,11.9189173 41.2189626,11.0060752 40.106972,11.0060752 Z" id="Shape"></path><rect id="Rectangle-path" transform="translate(7.380932, 8.475189) rotate(45.000000) translate(-7.380932, -8.475189) " x="3.05216945" y="7.99399097" width="8.65752445" height="1"></rect><rect id="Rectangle-path" transform="translate(19.793645, 10.756675) rotate(65.039180) translate(-19.793645, -10.756675) " x="19.3172462" y="5.34576726" width="1" height="10.8218153"></rect><rect id="Rectangle-path" transform="translate(33.550011, 9.830565) rotate(20.488312) translate(-33.550011, -9.830565) " x="28.6952273" y="9.34962501" width="9.70956663" height="1"></rect></g><rect id="Rectangle-path" fill="#FFDC8A" x="4.12855801" y="11.8872285" width="23.5934579" height="2.40601504"></rect></g><g id="Power-BI-Border" stroke="#F2C811" stroke-width="4"><rect id="Azure-Border" x="2" y="2" width="96" height="96" rx="48"></rect></g></g></g></g></svg>