<svg xmlns="http://www.w3.org/2000/svg" xmlns:xlink="http://www.w3.org/1999/xlink" viewBox="0 0 100 100" version="1.1"><!-- Generator: Sketch 51.3 (57544) - http://www.bohemiancoding.com/sketch --><title>execute-an-azure-function-with-triggers</title><desc>Created with Sketch.</desc><defs><rect id="path-1" x="0" y="0" width="96" height="96" rx="48"></rect><filter x="-1.9%" y="-1.6%" width="103.8%" height="106.5%" filterUnits="objectBoundingBox" id="filter-3"><feOffset dx="0" dy="2" in="SourceAlpha" result="shadowOffsetOuter1"></feOffset><feColorMatrix values="0 0 0 0 0   0 0 0 0 0   0 0 0 0 0  0 0 0 0.10045856 0" type="matrix" in="shadowOffsetOuter1" result="shadowMatrixOuter1"></feColorMatrix><feMerge><feMergeNode in="shadowMatrixOuter1"></feMergeNode><feMergeNode in="SourceGraphic"></feMergeNode></feMerge></filter><filter x="-4.4%" y="-2.0%" width="114.0%" height="109.6%" filterUnits="objectBoundingBox" id="filter-4"><feOffset dx="0" dy="1" in="SourceAlpha" result="shadowOffsetOuter1"></feOffset><feColorMatrix values="0 0 0 0 0   0 0 0 0 0   0 0 0 0 0  0 0 0 0.304829031 0" type="matrix" in="shadowOffsetOuter1" result="shadowMatrixOuter1"></feColorMatrix><feMerge><feMergeNode in="shadowMatrixOuter1"></feMergeNode><feMergeNode in="SourceGraphic"></feMergeNode></feMerge></filter></defs><g id="Badges-FINAL" stroke="none" stroke-width="1" fill="none" fill-rule="evenodd"><g id="Create-backend-services-in-Azure" transform="translate(-577.000000, -519.000000)"><g id="execute-an-azure-function-with-triggers" transform="translate(577.000000, 519.000000)"><g id="Mask" transform="translate(2.000000, 2.000000)"><mask id="mask-2" fill="white"><use xlink:href="#path-1"></use></mask><use id="BG" fill="#55A2FF" xlink:href="#path-1"></use><g id="Clock" filter="url(#filter-3)" mask="url(#mask-2)"><g transform="translate(22.000000, 17.000000)"><path d="M12.7252217,10.6333647 L10.2146064,7.4950956" id="Fill-1" fill="#CC9547"></path><path d="M42.1630558,7.4950956 L45.1833376,9.91286837 L42.7578279,12.9437883 C41.7849162,12.0975678 40.7481752,11.3238806 39.6524406,10.6333647 L42.1630558,7.4950956 Z" id="Fill-2" fill="#FDBD0F"></path><path d="M9.51061525,7 L12.530897,9.41777277 L10.1053873,12.4486927 C9.13247559,11.6024723 8.09573462,10.828785 7,10.1382691 L9.51061525,7 Z" id="Fill-2" fill="#FDBD0F" transform="translate(9.765448, 9.724346) scale(-1, 1) translate(-9.765448, -9.724346) "></path><path d="M16.9630938,5.40227148 C17.5752738,5.19047459 17.8363933,4.45353745 17.452451,3.93129853 C15.4795484,1.24563653 12.1565615,-0.365567243 8.47671134,0.0715660741 C4.78042033,0.51063361 1.58605894,3.12859797 0.4671137,6.67885551 C-0.533844228,9.85387471 0.137329493,13.0356637 1.90230362,15.4176534 C2.28044328,15.928287 3.06573588,15.9224844 3.44097421,15.4089494 C6.78620462,10.8209838 11.4911904,7.29006846 16.9630938,5.40227148 Z" id="Fill-4" fill="#FCD116"></path><path d="M51.7587124,6.67885551 C50.6388001,3.12859797 47.4444387,0.5096665 43.7481477,0.0715660741 C40.0682975,-0.365567243 36.7462777,1.24563653 34.7733751,3.93129853 C34.3894328,4.45353745 34.6495852,5.19047459 35.2627323,5.40227148 C40.7346357,7.29006846 45.4386544,10.8209838 48.7848519,15.4089494 C49.1591231,15.9224844 49.9444157,15.928287 50.3235225,15.4176534 C52.0884966,13.0356637 52.7596703,9.85387471 51.7587124,6.67885551 Z" id="Fill-5" fill="#FCD116"></path><path d="M26.3096175,53.6185826 C14.5409893,53.6185826 5.00066845,44.0740495 5.00066845,32.3092913 C5.00066845,20.544533 14.5409893,11 26.3096175,11 C38.0782456,11 47.6185665,20.544533 47.6185665,32.3092913 C47.6185665,44.0740495 38.0782456,53.6185826 26.3096175,53.6185826 Z" id="Fill-7" fill="#E1E4E1"></path><path d="M5.80362176,31.9146006 C5.80362176,32.2414835 5.83747058,32.5586953 5.85294433,32.8817097 C6.28330788,23.7676735 12.7058795,16.2174527 21.2773675,14.119793 C23.7328575,13.5192182 26.1129131,15.3441531 26.1129131,17.8721763 L26.1129131,52.2238919 C37.6950117,52.2238919 47.013108,42.5237875 46.392224,30.810162 C45.8496758,20.5597726 37.4483989,12.1671997 27.1980095,11.6333555 C15.4892195,11.0240767 5.80362176,20.3431401 5.80362176,31.9146006 Z" id="Fill-8" fill="#C5CCCD"></path><path d="M5.80362176,31.9146006 C5.80362176,20.7164442 14.9147567,11.6053093 26.1129131,11.6053093 C37.3110694,11.6053093 46.4222043,20.7164442 46.4222043,31.9146006 C46.4222043,43.112757 37.3110694,52.2238919 26.1129131,52.2238919 C14.9147567,52.2238919 5.80362176,43.112757 5.80362176,31.9146006 Z M52.224859,31.9146006 C52.224859,17.5162802 40.5102664,5.80265465 26.1129131,5.80265465 C11.7145926,5.80265465 0.000967109109,17.5162802 0.000967109109,31.9146006 C0.000967109109,40.2336732 3.91679189,47.6504329 9.99603975,52.4366559 L5.2233563,58.8002338 C4.58216296,59.6551583 4.75527549,60.866946 5.61019994,61.5081393 C5.95835922,61.7682917 6.36551216,61.894983 6.76879665,61.894983 C7.35679899,61.894983 7.93803157,61.6280609 8.31713834,61.1212957 L13.2078091,54.6010461 C17.0172519,56.7760745 21.4204997,58.0265465 26.1129131,58.0265465 C30.8043593,58.0265465 35.2076071,56.7760745 39.018017,54.6010461 L43.9077207,61.1212957 C44.2877945,61.629028 44.86806,61.894983 45.4570295,61.894983 C45.860314,61.894983 46.2674669,61.7682917 46.6156262,61.5081393 C47.4705506,60.866946 47.642696,59.6551583 47.0015027,58.8002338 L42.2297864,52.4366559 C48.3090342,47.6504329 52.224859,40.2336732 52.224859,31.9146006 Z" id="Fill-9" fill="#30404D"></path><path d="M26.1129131,52.2238919 L26.1129131,58.0265465 C30.8043593,58.0265465 35.2076071,56.7760745 39.018017,54.6010461 L43.9077207,61.1212957 C44.2877945,61.629028 44.86806,61.894983 45.4570295,61.894983 C45.860314,61.894983 46.2674669,61.7682917 46.6156262,61.5081393 C47.4705506,60.866946 47.642696,59.6551583 47.0015027,58.8002338 L42.2297864,52.4366559 C48.3090342,47.6504329 52.224859,40.2336732 52.224859,31.9146006 C52.224859,17.5162802 40.5102664,5.80265465 26.1129131,5.80265465 L26.1129131,11.6053093 C37.3110694,11.6053093 46.4222043,20.7164442 46.4222043,31.9146006 C46.4222043,43.112757 37.3110694,52.2238919 26.1129131,52.2238919 Z" id="Fill-20" fill="#243038"></path><path d="M48.0276055,14.421531 C48.2829223,14.7416442 48.5324364,15.0675599 48.7751808,15.3983112 C49.1552547,15.9176488 49.9502184,15.9215173 50.3331936,15.4041139 C51.533376,13.7793706 52.224859,11.7822903 52.224859,9.67109109 C52.224859,4.33845146 47.8854404,0 42.5537679,0 C42.0537725,0 41.5673166,0.0483554555 41.0876305,0.120888639 C45.7326556,0.82494407 49.3080579,4.83361133 49.3080579,9.67109109 C49.3080579,11.3790058 48.8361087,13.0008478 48.0276055,14.421531 Z" id="Fill-26" fill="#FDBD0F"></path><path d="M16.9601924,5.40323859 C17.5714054,5.19240881 17.8373604,4.45740588 17.452451,3.93806829 C15.6903782,1.55124301 12.8596498,0 9.6720582,0 C9.17206279,0 8.68560691,0.0483554555 8.20592079,0.120888639 C11.5627565,0.62958803 14.3528663,2.86844562 15.6468583,5.89453002 C16.079156,5.72045038 16.5172565,5.55604183 16.9601924,5.40323859 Z" id="Fill-27" fill="#FDBD0F"></path><g id="Group-3" stroke-width="1" fill="none" transform="translate(13.000000, 20.000000)"><path d="M21.9232523,16.9136712 C21.6239591,16.9136712 21.324666,16.7973598 21.0966888,16.5659237 C20.6395653,16.1018648 20.6395653,15.3517747 21.0966888,14.8877158 L23.7774669,12.1662655 L21.0966888,9.44481522 C20.6395653,8.98075632 20.6395653,8.23066622 21.0966888,7.76660732 C21.5538123,7.30254842 22.2926923,7.30254842 22.7498158,7.76660732 L26.2571574,11.3271616 C26.7142809,11.7912205 26.7142809,12.5413106 26.2571574,13.0053695 L22.7498158,16.5659237 C22.5218386,16.7973598 22.2225454,16.9136712 21.9232523,16.9136712" id="Fill-1541" fill="#697D85"></path><path d="M4.67674771,16.9136712 C4.37745456,16.9136712 4.07816141,16.7973598 3.85018421,16.5659237 L0.342842639,13.0053695 C-0.11428088,12.5413106 -0.11428088,11.7912205 0.342842639,11.3271616 L3.85018421,7.76660732 C4.30730773,7.30254842 5.04618769,7.30254842 5.50331121,7.76660732 C5.96043473,8.23066622 5.96043473,8.98075632 5.50331121,9.44481522 L2.82253313,12.1662655 L5.50331121,14.8877158 C5.96043473,15.3517747 5.96043473,16.1018648 5.50331121,16.5659237 C5.27533401,16.7973598 4.97604086,16.9136712 4.67674771,16.9136712 Z" id="Fill-1541" fill="#697D85"></path><g id="Lightning" filter="url(#filter-4)" transform="translate(7.600000, 0.000000)"><polygon id="Fill-409" fill="#FCD116" points="11.4 0 2.66 0 0 13.1804712 4.22235174 13.1804712 4.22235174 24.6296296 11.02 9.60417888 7.6 9.60417888"></polygon><polygon id="Fill-409-Copy" fill="#FDBD0F" points="11.4 -2.67119932e-13 8.09965221 -4.54747351e-13 3.50769231 11.1746215 6.87041418 11.1746215 4.14092187 24.6296296 11.0156889 9.60417888 7.55688929 9.60417888"></polygon></g></g></g></g></g><g id="Azure-Border" stroke="#0078D4" stroke-width="4"><rect x="2" y="2" width="96" height="96" rx="48"></rect></g></g></g></g></svg>