<svg xmlns="http://www.w3.org/2000/svg" viewBox="0 0 100 100"><defs><filter x="-1.6%" y="-1.7%" width="103.1%" height="106.7%" filterUnits="objectBoundingBox" id="a"><feOffset dy="2" in="SourceAlpha" result="shadowOffsetOuter1"/><feColorMatrix values="0 0 0 0 0 0 0 0 0 0 0 0 0 0 0 0 0 0 0.0966089221 0" in="shadowOffsetOuter1" result="shadowMatrixOuter1"/><feMerge><feMergeNode in="shadowMatrixOuter1"/><feMergeNode in="SourceGraphic"/></feMerge></filter></defs><g fill="none" fill-rule="evenodd"><rect fill="#F2C811" x="2" y="2" width="96" height="96" rx="48"/><g filter="url(#a)" transform="translate(19.46 15.794)"><path d="M59 48V10H2a2 2 0 0 0-2 2v46a2 2 0 0 0 2 2h57a5 5 0 0 0 5-5v-7h-5" fill="#4D84CD"/><path d="M59 50h-1a2 2 0 0 1-2-2V2a2 2 0 0 1 2-2h1a5 5 0 0 1 5 5v50a5 5 0 0 0-5-5" fill="#314263"/><g fill="#FFF" fill-rule="nonzero"><path d="M43.093 34.953l-1.744 1.007a.75.75 0 0 1-.75-1.3l1.76-1.015-5.947-10.592a1 1 0 0 0-1.815.156l-3.745 10.555a1 1 0 0 0 .16.957l2.99 3.755 2.107-1.217a.75.75 0 0 1 .75 1.3l-1.913 1.104 4.84 6.082a1.6 1.6 0 0 1-.98 2.573l-6.96 1.196a.25.25 0 0 0 .043.496h17.95a1 1 0 0 0 .872-1.49l-7.618-13.567zm-13.932-.907l4.685-13.207a1.6 1.6 0 0 1 2.903-.248l16.022 28.536a1.6 1.6 0 0 1-1.395 2.383H20.911a.814.814 0 0 1-.138-1.616l16.28-2.797a1 1 0 0 0 .613-1.608l-8.345-10.485a1 1 0 0 1-.16-.958zM17.256 46.896a.75.75 0 0 1 .75-.75h.765a1 1 0 0 0 .911-.589L30.95 20.623a.25.25 0 0 0-.392-.292l-8.879 7.7a1 1 0 0 0-.218.269l-9.114 16.359a1 1 0 0 0 .873 1.487h.125a.75.75 0 1 1 0 1.5h-1.657a1.6 1.6 0 0 1-1.397-2.379l9.988-17.928a1 1 0 0 1 .218-.268l9.595-8.321a1.6 1.6 0 0 1 2.506 1.868L20.65 47.058a1 1 0 0 1-.91.588h-1.734a.75.75 0 0 1-.75-.75z"/></g></g><rect x="2" y="2" width="96" height="96" rx="48" stroke="#0078D4" stroke-width="4"/></g></svg>