<svg xmlns="http://www.w3.org/2000/svg" xmlns:xlink="http://www.w3.org/1999/xlink" viewBox="0 0 100 100" version="1.1"><!-- Generator: Sketch 51.3 (57544) - http://www.bohemiancoding.com/sketch --><title>design-for-availablity-and-recoverability</title><desc>Created with Sketch.</desc><defs><filter x="-1.9%" y="-1.4%" width="103.7%" height="105.7%" filterUnits="objectBoundingBox" id="filter-1"><feOffset dx="0" dy="2" in="SourceAlpha" result="shadowOffsetOuter1"></feOffset><feColorMatrix values="0 0 0 0 0   0 0 0 0 0   0 0 0 0 0  0 0 0 0.0954766757 0" type="matrix" in="shadowOffsetOuter1" result="shadowMatrixOuter1"></feColorMatrix><feMerge><feMergeNode in="shadowMatrixOuter1"></feMergeNode><feMergeNode in="SourceGraphic"></feMergeNode></feMerge></filter><filter x="-8.0%" y="-8.0%" width="116.0%" height="124.0%" filterUnits="objectBoundingBox" id="filter-2"><feOffset dx="0" dy="2" in="SourceAlpha" result="shadowOffsetOuter1"></feOffset><feColorMatrix values="0 0 0 0 0   0 0 0 0 0   0 0 0 0 0  0 0 0 0.100005661 0" type="matrix" in="shadowOffsetOuter1" result="shadowMatrixOuter1"></feColorMatrix><feMerge><feMergeNode in="shadowMatrixOuter1"></feMergeNode><feMergeNode in="SourceGraphic"></feMergeNode></feMerge></filter></defs><g id="Badges-FINAL" stroke="none" stroke-width="1" fill="none" fill-rule="evenodd"><g id="Architect-Great-Solutions-with-Azure" transform="translate(-577.000000, -1098.000000)"><g id="design-for-availablity-and-recoverability" transform="translate(577.000000, 1098.000000)"><rect id="BG" fill="#F2C811" x="2" y="2" width="96" height="96" rx="48"></rect><g id="De-shredder" filter="url(#filter-1)" transform="translate(23.000000, 13.203356)"><g id="Paper" transform="translate(6.486478, 47.000000)"><path d="M2.46989078,23 L38.4698908,23 C39.5698908,23 40.4698908,22.1 40.4698908,21 L40.4698908,0 L0.469890777,0 L0.469890777,21 C0.469890777,22.1 1.36989078,23 2.46989078,23 Z" id="Fill-1253" fill="#F5F5F5"></path><path d="M7.46989078,11 C6.36489078,11 5.46989078,10.104 5.46989078,9 C5.46989078,7.895 6.36489078,7 7.46989078,7 L33.4698908,7 C34.5738908,7 35.4698908,7.895 35.4698908,9 C35.4698908,10.104 34.5738908,11 33.4698908,11 L7.46989078,11 Z" id="Fill-1256" fill="#C5CCCD"></path><path d="M7.46989078,18 C6.36489078,18 5.46989078,17.104 5.46989078,16 C5.46989078,14.895 6.36489078,14 7.46989078,14 L23.4698908,14 C24.5738908,14 25.4698908,14.895 25.4698908,16 C25.4698908,17.104 24.5738908,18 23.4698908,18 L7.46989078,18 Z" id="Fill-1257" fill="#C5CCCD"></path><polygon id="Fill-1260" fill="#C5CCCD" points="0.469890777 2 40.4698908 2 40.4698908 0 0.469890777 0"></polygon></g><g id="Shred" transform="translate(7.000000, 0.854050)"><path d="M2,24 C0.895,24 0,23.104 0,22 L0,10 C0,8.895 0.895,8 2,8 C3.104,8 4,8.895 4,10 L4,22 C4,23.104 3.104,24 2,24" id="Fill-896" fill="#F5F5F5"></path><path d="M14,24 C12.895,24 12,23.104 12,22 L12,10 C12,8.895 12.895,8 14,8 C15.104,8 16,8.895 16,10 L16,22 C16,23.104 15.104,24 14,24" id="Fill-897" fill="#F5F5F5"></path><path d="M8,24 C6.895,24 6,23.104 6,22 L6,2 C6,0.895 6.895,0 8,0 C9.104,0 10,0.895 10,2 L10,22 C10,23.104 9.104,24 8,24" id="Fill-898" fill="#F5F5F5"></path><path d="M20,24 C18.895,24 18,23.104 18,22 L18,2 C18,0.895 18.895,0 20,0 C21.104,0 22,0.895 22,2 L22,22 C22,23.104 21.104,24 20,24" id="Fill-899" fill="#F5F5F5"></path><path d="M26,24 C24.895,24 24,23.104 24,22 L24,2 C24,0.895 24.895,0 26,0 C27.104,0 28,0.895 28,2 L28,22 C28,23.104 27.104,24 26,24" id="Fill-900" fill="#F5F5F5"></path><path d="M32,24 C30.9,24 30,23.104 30,22 L30,6 C30,4.895 30.9,4 32,4 C33.1,4 34,4.895 34,6 L34,22 C34,23.104 33.1,24 32,24" id="Fill-901" fill="#F5F5F5"></path><path d="M38,24 C36.9,24 36,23.104 36,22 L36,10 C36,8.895 36.9,8 38,8 C39.1,8 40,8.895 40,10 L40,22 C40,23.104 39.1,24 38,24" id="Fill-902" fill="#F5F5F5"></path><polygon id="Fill-914" fill="#C5CCCD" points="0 17 4 17 4 15 0 15"></polygon><polygon id="Fill-915" fill="#C5CCCD" points="6 17 10 17 10 15 6 15"></polygon><polygon id="Fill-916" fill="#C5CCCD" points="12 17 16 17 16 15 12 15"></polygon><polygon id="Fill-917" fill="#C5CCCD" points="18 17 22 17 22 15 18 15"></polygon><polygon id="Fill-918" fill="#C5CCCD" points="24 17 28 17 28 15 24 15"></polygon><polygon id="Fill-919" fill="#C5CCCD" points="30 17 34 17 34 15 30 15"></polygon><polygon id="Fill-920" fill="#C5CCCD" points="36 17 40 17 40 15 36 15"></polygon></g><path d="M2,17 C0.895,17 0,17.895 0,19 L0,45 C0,46.104 0.895,47 2,47 L52,47 C53.1,47 54,46.104 54,45 L54,19 C54,17.895 53.1,17 52,17 L2,17 Z" id="Fill-908" fill="#30404D"></path><path d="M52,47 C53.1,47 54,46.105 54,45 L54,19 L29,19 C27.895,19 27,19.895 27,21 L27,43 C27,44.105 26.105,45 25,45 L0,45 C0,46.104 0.895,47 2,47 L52,47 Z" id="Fill-913" fill="#182A37"></path></g><g id="Lifesaver" filter="url(#filter-2)" transform="translate(38.476749, 33.378170)"><g id="Layer-20" transform="translate(0.018669, 0.037481)"><path d="M20.8136913,9.12072436 C18.6446146,0.987242894 22.0685948,-2.72445616 9.81134712,2.4261707 C5.53460607,4.22345096 1.58144962,3.36958518 0.489273641,5.32625582 C-1.02250242,8.03715355 2.73815548,10.5621747 3.59870972,20.3313388 C3.98588899,21.7835097 4.52005298,22.6154613 5.20837168,23.0237908 C7.1250961,24.1593881 10.1177861,21.4109682 14.7079803,20.788857 C27.8633467,19.0065541 23.0583647,17.5397211 20.8895997,9.40655498 L20.8136913,9.12072436 Z" id="Shape" stroke="#BDC6D6" stroke-width="1.5"></path><ellipse id="Oval" fill="#E75C5A" fill-rule="nonzero" cx="11.6188072" cy="11.6202052" rx="9.33407541" ry="9.44108168"></ellipse><g id="Group" transform="translate(2.026301, 1.891874)" fill="#F5F5F5" fill-rule="nonzero"><path d="M4.84769019,1.59784521 L6.96377141,5.78771541 L9.90580389,4.98556085 L10.0367341,0.295605306 C8.17581086,-0.174840685 6.93618255,0.0178151464 4.84769019,1.59784521 Z" id="Shape"></path><path d="M18.9342646,13.2082386 L16.8183392,9.01868373 L13.875995,9.82052298 L13.7453766,14.5104785 C15.6059881,14.9809245 16.8457722,14.7884263 18.9342646,13.2082386 Z" id="Shape" transform="translate(16.339821, 11.877024) rotate(-55.000000) translate(-16.339821, -11.877024) "></path><path d="M2.78212164,16.8267825 L6.92434751,14.6864424 L6.13128466,11.7106823 L1.49464147,11.5785664 C1.02937169,13.4600351 1.21999981,14.7145052 2.78212164,16.8267825 Z" id="Shape" transform="translate(4.098307, 14.202674) rotate(-22.000000) translate(-4.098307, -14.202674) "></path></g><ellipse id="Oval" fill="#182A37" fill-rule="nonzero" cx="11.6184954" cy="11.6205205" rx="4.69883504" ry="4.7527027"></ellipse></g></g><g id="Azure-Border" stroke="#0078D4" stroke-width="4"><rect x="2" y="2" width="96" height="96" rx="48"></rect></g></g></g></g></svg>