<svg xmlns="http://www.w3.org/2000/svg" xmlns:xlink="http://www.w3.org/1999/xlink" viewBox="0 0 100 100"><defs><filter x="-1.4%" y="-1.3%" width="102.8%" height="105.2%" filterUnits="objectBoundingBox" id="a"><feOffset dy="2" in="SourceAlpha" result="shadowOffsetOuter1"/><feColorMatrix values="0 0 0 0 0 0 0 0 0 0 0 0 0 0 0 0 0 0 0.104562953 0" in="shadowOffsetOuter1" result="shadowMatrixOuter1"/><feMerge><feMergeNode in="shadowMatrixOuter1"/><feMergeNode in="SourceGraphic"/></feMerge></filter><path id="c" d="M56.986 10.556L21.05 30.516l-7.447-4.233L49.067 6.11z"/><filter x="-1.2%" y="-2%" width="102.3%" height="108.2%" filterUnits="objectBoundingBox" id="b"><feOffset dy="1" in="SourceAlpha" result="shadowOffsetOuter1"/><feColorMatrix values="0 0 0 0 0 0 0 0 0 0 0 0 0 0 0 0 0 0 0.0979110054 0" in="shadowOffsetOuter1"/></filter><path id="e" d="M13.55 10.556l7.919-4.447 35.464 20.174-7.447 4.233z"/><filter x="-1.2%" y="-2%" width="102.3%" height="108.2%" filterUnits="objectBoundingBox" id="d"><feOffset dy="1" in="SourceAlpha" result="shadowOffsetOuter1"/><feColorMatrix values="0 0 0 0 0 0 0 0 0 0 0 0 0 0 0 0 0 0 0.0979110054 0" in="shadowOffsetOuter1"/></filter></defs><g fill="none" fill-rule="evenodd"><rect fill="#D9EAF8" x="2" y="2" width="96" height="96" rx="48"/><g filter="url(#a)" transform="translate(15.5 11.754)"><circle fill="#30404D" opacity=".1" cx="35.606" cy="39.978" r="31.303"/><path fill="#362D56" d="M28.454 67.2l-7.404 3.941-7.447-4.342 6.933-4.045zm28.532-56.642v10.42l-7.435-4.342V6.403zM42.081 67.2L50 62.755l6.933 4.045-7.447 4.342zM13.55 10.558l7.435-4.155v10.233l-7.435 4.341z"/><path d="M65.465 23.678L37.72 39.448a2.1 2.1 0 0 0-1.062 1.826v31.359a2.1 2.1 0 0 0 3.158 1.814l27.299-15.919a3 3 0 0 0 1.489-2.591V25.504a2.1 2.1 0 0 0-3.138-1.826z" fill="#50398A"/><path d="M66.592 24.338L38.846 40.11a2.1 2.1 0 0 0-1.062 1.826v31.358a2.1 2.1 0 0 0 3.158 1.814l27.298-15.92a3 3 0 0 0 1.489-2.591V26.164a2.1 2.1 0 0 0-3.138-1.826z" fill="#6D56A6"/><path d="M2.345 25.504v30.407a3 3 0 0 0 1.488 2.59l27.45 16.031a2 2 0 0 0 3.008-1.727v-31.53a2.1 2.1 0 0 0-1.062-1.826L5.483 23.68a2.1 2.1 0 0 0-3.138 1.825z" fill="#684DAB"/><path d="M1.151 26.19v30.408a3 3 0 0 0 1.487 2.59l27.45 16.03a2 2 0 0 0 3.01-1.726v-31.53a2.1 2.1 0 0 0-1.063-1.826L4.289 24.366a2.1 2.1 0 0 0-3.138 1.825z" fill="#8066C0"/><path d="M5.674 20.784L34.056 36.93a2.8 2.8 0 0 0 2.768 0L65.22 20.79a1.4 1.4 0 0 0-.012-2.44L36.255 2.268a2 2 0 0 0-1.95.004L5.68 18.347a1.4 1.4 0 0 0-.007 2.437z" fill="#7454B8"/><path d="M5.674 19.55l28.382 16.147a2.8 2.8 0 0 0 2.768 0l28.396-16.14a1.4 1.4 0 0 0-.012-2.44L36.255 1.033a2 2 0 0 0-1.95.005L5.68 17.113a1.4 1.4 0 0 0-.007 2.438z" fill="#A684D3"/><use fill="#000" filter="url(#b)" xlink:href="#c"/><use fill="#6D56A6" xlink:href="#c"/><use fill="#000" filter="url(#d)" xlink:href="#e"/><use fill="#6D56A6" xlink:href="#e"/><path fill="#3F365D" d="M21.065 30.422v40.72L13.63 66.8V26.196zm28.405 0l7.435-4.226V66.8l-7.434 4.341z"/></g><rect x="2" y="2" width="96" height="96" rx="48" stroke="#0078D4" stroke-width="4"/></g></svg>