<svg xmlns="http://www.w3.org/2000/svg" viewBox="0 0 100 100"><g fill="none" fill-rule="evenodd"><rect fill="#55A2FF" x="2" y="2" width="96" height="96" rx="48"/><path d="M18 27c0-2.2 1.8-4 4-4h56c2.2 0 4 1.8 4 4v46c0 2.2-1.8 4-4 4H22c-2.2 0-4-1.8-4-4V27" fill="#E1E4E1"/><path d="M78 23H50v48a4 4 0 0 1-4 4H18.559c.695 1.188 1.972 2 3.441 2h56c2.2 0 4-1.8 4-4V27c0-2.2-1.8-4-4-4" fill="#C5CCCD"/><path d="M20 27c0-1.1.9-2 2-2h56c1.1 0 2 .9 2 2v36c0 1.1-.9 2-2 2H22c-1.1 0-2-.9-2-2V27" fill="#546670"/><path d="M78 25H22c-1.1 0-2 .9-2 2v2c0-1.1.9-2 2-2h26a2 2 0 0 1 2 2v36h28c1.1 0 2-.9 2-2V27c0-1.1-.9-2-2-2" fill="#000" opacity=".147"/><path d="M48.588 72.414a2 2 0 1 1 2.828-2.828 2 2 0 0 1-2.828 2.828m-8.002 0a2 2 0 1 1 2.828-2.828 2 2 0 0 1-2.828 2.828m16 0a2 2 0 1 1 2.828-2.828 2 2 0 0 1-2.828 2.828" fill="#A9B3B6"/><path d="M50.709 71.707a1.996 1.996 0 0 1-2.425.304c.084.143.181.28.304.403a2 2 0 0 0 2.828-2.828 2.012 2.012 0 0 0-.403-.304 1.995 1.995 0 0 1-.304 2.425m7.998 0a1.996 1.996 0 0 1-2.425.304c.084.143.181.28.304.403a2 2 0 0 0 2.828-2.828 2.012 2.012 0 0 0-.403-.304 1.995 1.995 0 0 1-.304 2.425m-16 0a1.996 1.996 0 0 1-2.425.304c.084.143.181.28.304.403a2 2 0 0 0 2.828-2.828 2.012 2.012 0 0 0-.403-.304 1.995 1.995 0 0 1-.304 2.425" fill="#92A4AA"/><path d="M63.74 32.493l2.52 2.52a1.55 1.55 0 0 1 0 2.192L45.952 57.51a1.55 1.55 0 0 1-2.192 0L33.74 47.49a1.55 1.55 0 0 1 0-2.192l2.52-2.52a1.55 1.55 0 0 1 2.193 0l6.404 6.403 16.692-16.692a1.55 1.55 0 0 1 2.19.005h0z" stroke="#B8D432" fill="#B8D432"/><rect x="2" y="2" width="96" height="96" rx="48" stroke="#0078D4" stroke-width="4"/></g></svg>