<svg xmlns="http://www.w3.org/2000/svg" xmlns:xlink="http://www.w3.org/1999/xlink" viewBox="0 0 100 100"><defs><filter x="-1.5%" y="-1.7%" width="103%" height="106.7%" filterUnits="objectBoundingBox" id="a"><feOffset dy="2" in="SourceAlpha" result="shadowOffsetOuter1"/><feColorMatrix values="0 0 0 0 0 0 0 0 0 0 0 0 0 0 0 0 0 0 0.0972316576 0" in="shadowOffsetOuter1" result="shadowMatrixOuter1"/><feMerge><feMergeNode in="shadowMatrixOuter1"/><feMergeNode in="SourceGraphic"/></feMerge></filter><linearGradient x1="50%" y1="100%" x2="50%" y2="0%" id="c"><stop stop-color="#FFF" stop-opacity=".5" offset="0%"/><stop stop-opacity=".5" offset="100%"/></linearGradient><path d="M13.85 44.465a1.462 1.462 0 0 1-1.458-1.458v-27.7c0-.801.656-1.457 1.458-1.457h39.362c.802 0 1.458.656 1.458 1.458v27.7c0 .8-.656 1.457-1.458 1.457H13.85" id="b"/></defs><g fill="none" fill-rule="evenodd"><rect fill="#55A2FF" x="2" y="2" width="96" height="96" rx="48"/><ellipse fill="#000" opacity=".1" cx="50" cy="85.648" rx="18.312" ry="4.022"/><path d="M63.6 21.493l4.362-8.209.87.462-4.368 8.219c-.285-.162-.573-.32-.865-.472zm15.7 25.152l9.807-.343.035.984-9.83.343c.002-.327-.002-.655-.011-.984zm-58.095-4.48l-9.767-2.253.22-.959 9.74 2.248c-.07.32-.134.641-.193.964zm37.038-27.771l-.958-.22 1.01-4.364.958.22-1.01 4.364zm24.803 24.278l-.287-.94 4.664-1.425.287.94-4.664 1.425zM19.74 32.8l-4.822-2.563.462-.87 4.822 2.563-.462.87zm20.686-13.865l-2.494-8.159.94-.287 2.494 8.159-.94.287zM16.358 47.382c-.85 0-1.615.513-1.942 1.3a2.111 2.111 0 0 0 .456 2.296 2.101 2.101 0 0 0 3.588-1.489c0-1.164-.94-2.107-2.102-2.107h0zm0 3.16a1.054 1.054 0 1 1 .403-2.026 1.054 1.054 0 0 1-.402 2.026h0zM50.15 14.397a2.629 2.629 0 0 0-2.428 1.626 2.637 2.637 0 0 0 .568 2.87 2.626 2.626 0 0 0 2.864.571 2.633 2.633 0 0 0-1.006-5.067h.002zm0 4.213a1.577 1.577 0 0 1-1.457-.975 1.576 1.576 0 1 1 2.059-2.063c.59.245.975.82.975 1.459a1.582 1.582 0 0 1-1.579 1.58h.002zm28.831 41.208a3.161 3.161 0 0 0-2.23 5.394 3.149 3.149 0 0 0 3.437.685 3.16 3.16 0 0 0-1.207-6.08zm0 5.266a2.107 2.107 0 0 1-1.486-3.596 2.097 2.097 0 0 1 2.29-.456 2.108 2.108 0 0 1-.804 4.052h0z" fill="#FFF" fill-opacity=".649" stroke="#FFF"/><g filter="url(#a)" transform="rotate(8 -82.695 158.02)"><path d="M35.039 58.512c-.165.12-.344.208-.528.265a1.82 1.82 0 0 1-2.669-.702l-6.073-12.45a1.82 1.82 0 1 1 3.273-1.597l4.746 9.731a.8.8 0 0 0 1.19.297l9.128-6.633a1.82 1.82 0 0 1 2.543.403c.12.12.224.25.309.399l.914 1.582a1.82 1.82 0 1 1-3.154 1.82l-.06-.104-9.62 6.989z" fill="#30404D" fill-rule="nonzero"/><path d="M45.34 57.972c-.045.024-.09.045-.136.065-.944.461-2.034.086-2.475-.818l-6.073-12.451a1.82 1.82 0 1 1 3.273-1.596l4.886 10.018a.8.8 0 0 0 1.095.355l9.952-5.292a1.82 1.82 0 0 1 2.462.753c.14.136.258.28.353.446l.914 1.582a1.82 1.82 0 1 1-3.153 1.82l-.347-.599-10.752 5.717zm9.833-28.186c-1.064.798-1.889 1.035-2.475.71a1.82 1.82 0 0 1-.71-2.475l3.745-6.743a48 48 0 0 0 4.61-11.69l1.77-7.098a1.82 1.82 0 1 1 3.532.88l-2.133 8.22a48 48 0 0 1-4.455 11.17zM9.844 18.929l7.312 16.424a1.82 1.82 0 1 1-3.326 1.481L6.432 20.219a80 80 0 0 1-2.57-6.531L.688 4.459a1.82 1.82 0 1 1 3.443-1.185l3.153 9.158a80 80 0 0 0 2.559 6.497z" fill="#30404D" fill-rule="nonzero"/><path d="M13.12 46.652a2.924 2.924 0 0 1-2.915-2.916v-33.53a2.924 2.924 0 0 1 2.916-2.917h40.82a2.924 2.924 0 0 1 2.916 2.916v33.531a2.924 2.924 0 0 1-2.916 2.916h-40.82" fill="#30404D"/><use fill="#E1E4E1" xlink:href="#b"/><use fill-opacity=".1" fill="url(#c)" xlink:href="#b"/><g fill-rule="nonzero"><path fill="#E86C60" d="M26.153 21.755h7.238v7.238h-7.238z"/><path fill="#72C472" d="M34.115 21.755h7.238v7.238h-7.238z"/><path fill="#43A6DD" d="M26.153 29.717h7.238v7.238h-7.238z"/><path fill="#EFD358" d="M34.115 29.717h7.238v7.238h-7.238z"/></g><path d="M13.12 10.57a1.093 1.093 0 1 1 2.187 0 1.093 1.093 0 0 1-2.186 0" fill="#DF5142"/><path d="M17.494 10.57a1.093 1.093 0 1 1 2.187 0 1.093 1.093 0 0 1-2.187 0" fill="#EFB252"/><path d="M21.868 10.57a1.093 1.093 0 1 1 2.187 0 1.093 1.093 0 0 1-2.187 0" fill="#7CB65A"/><path d="M53.577 11.663H28.793a1.093 1.093 0 1 1 0-2.187h24.784a1.093 1.093 0 1 1 0 2.187" fill="#697D85"/></g><rect x="2" y="2" width="96" height="96" rx="48" stroke="#0078D4" stroke-width="4"/></g></svg>