<svg xmlns="http://www.w3.org/2000/svg" viewBox="0 0 100 100"><defs><filter x="-1.9%" y="-1.3%" width="103.8%" height="105.3%" filterUnits="objectBoundingBox" id="a"><feOffset dy="2" in="SourceAlpha" result="shadowOffsetOuter1"/><feColorMatrix values="0 0 0 0 0 0 0 0 0 0 0 0 0 0 0 0 0 0 0.101760643 0" in="shadowOffsetOuter1" result="shadowMatrixOuter1"/><feMerge><feMergeNode in="shadowMatrixOuter1"/><feMergeNode in="SourceGraphic"/></feMerge></filter></defs><g fill="none" fill-rule="evenodd"><rect fill="#F2C811" x="2" y="2" width="96" height="96" rx="48"/><path d="M22.844 58.415h-8.903c-3 0-5.441-2.441-5.441-5.441s2.44-5.442 5.44-5.442c.276 0 .553.025.85.078a8.366 8.366 0 0 1 8.054-6.014c4.637 0 8.41 3.773 8.41 8.41 0 4.636-3.773 8.409-8.41 8.409z" fill="#FFF" fill-rule="nonzero"/><g filter="url(#a)" transform="translate(24.23 11.516)"><path d="M25.77 0C15.436 0 7.028 8.408 7.028 18.742v14.056c0 1.294 1.575 2.343 3.514 2.343 1.94 0 3.514-1.05 3.514-2.343V18.742c0-6.459 5.255-11.714 11.714-11.714 6.46 0 11.714 5.255 11.714 11.714v14.056c0 1.294 1.574 2.343 3.514 2.343 1.94 0 3.514-1.05 3.514-2.343V18.742C44.512 8.408 36.104 0 25.77 0" fill="#F3F3F3"/><path d="M25.77 0c-.396 0-.782.034-1.171.06 9.787.609 17.57 8.744 17.57 18.682v5.802c0 1.361-1.482 2.209-2.647 1.505-.66-.4-1.34-.77-2.038-1.11v7.86c0 1.293 1.574 2.342 3.514 2.342 1.94 0 3.514-1.05 3.514-2.343V18.742C44.512 8.408 36.104 0 25.77 0M21.353 7.218c-5.659 1.037-9.64 6.188-9.64 11.942v5.2c0 1.122-.526 2.19-1.444 2.833-1.15.809-2.235 1.701-3.24 2.677v2.928c0 1.294 1.574 2.343 3.513 2.343 1.94 0 3.514-1.05 3.514-2.343V18.742c0-6.064 4.63-11.064 10.543-11.654a11.437 11.437 0 0 0-3.246.13" fill="#C5CCCD"/><path d="M25.77 25.77c-12.918 0-23.427 10.51-23.427 23.428 0 12.918 10.51 23.427 23.427 23.427 12.918 0 23.428-10.51 23.428-23.427 0-12.918-10.51-23.428-23.428-23.428" fill="#30404D"/><path d="M25.77 25.77v5.857a1.17 1.17 0 0 1-1.171-1.171v1.171c0 .37.17.698.437.913.518.417.734 1.108.734 1.772v23.084c-2.099 0-4.198-.8-5.798-2.401a8.154 8.154 0 0 1-2.373-5.212 8.18 8.18 0 0 0 2.373 6.386 8.153 8.153 0 0 0 3.444 2.057c1.431.427 2.354 1.822 2.354 3.316v11.083c12.918 0 23.428-10.51 23.428-23.427 0-12.918-10.51-23.428-23.428-23.428M13.347 36.774a1.172 1.172 0 0 1-1.658 0l-1.61-1.61a20.962 20.962 0 0 0-5.334 12.862h.115a20.973 20.973 0 0 1 5.219-11.691l1.61 1.61a1.17 1.17 0 0 0 1.658 0c.385-.386.426-.965.16-1.415-.05.085-.089.172-.16.244" fill="#182A37"/><path d="M24.599 29.344v-1.171a20.962 20.962 0 0 0-12.863 5.333l.64.642c3.367-2.782 7.588-4.549 12.223-4.804M7.028 50.37H4.745c.021.395.073.782.115 1.17h2.168A1.17 1.17 0 0 0 8.2 50.37c0-.218-.077-.412-.18-.587-.205.344-.563.586-.992.586M13.347 63.279l-1.611 1.61c.206.186.429.352.64.53l.97-.969c.386-.386.427-.965.161-1.415-.05.085-.089.171-.16.244" fill="#182A37"/><path d="M41.46 63.232l-1.61-1.61a1.172 1.172 0 0 0-1.656 1.657l1.61 1.61a20.962 20.962 0 0 1-12.862 5.334V67.94a1.17 1.17 0 1 0-2.343 0v2.283a20.962 20.962 0 0 1-12.863-5.334l1.61-1.61c.457-.458.457-1.2 0-1.658a1.174 1.174 0 0 0-1.657 0l-1.61 1.611a20.962 20.962 0 0 1-5.334-12.863h2.283a1.17 1.17 0 1 0 0-2.343H4.745a20.962 20.962 0 0 1 5.334-12.862l1.61 1.61a1.17 1.17 0 0 0 1.658 0c.456-.458.456-1.2 0-1.657l-1.611-1.611a20.962 20.962 0 0 1 12.863-5.333v2.283a1.17 1.17 0 1 0 2.343 0v-2.283a20.962 20.962 0 0 1 12.862 5.333l-1.61 1.61a1.17 1.17 0 1 0 1.656 1.657l1.61-1.61a20.956 20.956 0 0 1 5.335 12.863h-2.283a1.17 1.17 0 1 0 0 2.343h2.283a20.956 20.956 0 0 1-5.334 12.863zM25.77 23.427C11.56 23.427 0 34.987 0 49.197c0 14.21 11.56 25.771 25.77 25.771 14.21 0 25.77-11.56 25.77-25.77 0-14.21-11.56-25.77-25.77-25.77z" fill="#546670"/><path fill="#DF5142" d="M33.225 46.713l-5.756.702.828-5.713 7.371-2.486-2.443 7.497"/><path d="M31.569 54.995A8.2 8.2 0 0 0 19.972 43.4l11.597 11.594" fill="#ADBDC4"/><path d="M19.972 43.4a8.2 8.2 0 0 0 11.597 11.595L19.972 43.4" fill="#A0AEB3"/></g><path d="M86.53 51.251H69.633a5.437 5.437 0 0 1-5.43-5.43c0-2.33 1.489-4.378 3.673-5.123a9.635 9.635 0 0 1 9.601-8.756c4.881 0 8.985 3.68 9.572 8.472a5.438 5.438 0 0 1 4.91 5.406 5.437 5.437 0 0 1-5.43 5.431z" fill="#FFF" fill-rule="nonzero" opacity=".9"/><rect x="2" y="2" width="96" height="96" rx="48" stroke="#0078D4" stroke-width="4"/></g></svg>