<svg xmlns="http://www.w3.org/2000/svg" xmlns:xlink="http://www.w3.org/1999/xlink" viewBox="0 0 100 100"><defs><rect id="a" x="0" y="0" width="96" height="96" rx="48"/><filter x="-1.7%" y="-2%" width="103.4%" height="108.2%" filterUnits="objectBoundingBox" id="b"><feOffset dy="2" in="SourceAlpha" result="shadowOffsetOuter1"/><feColorMatrix values="0 0 0 0 0 0 0 0 0 0 0 0 0 0 0 0 0 0 0.103147645 0" in="shadowOffsetOuter1" result="shadowMatrixOuter1"/><feMerge><feMergeNode in="shadowMatrixOuter1"/><feMergeNode in="SourceGraphic"/></feMerge></filter><filter x="-2.8%" y="-3.2%" width="105.6%" height="112.9%" filterUnits="objectBoundingBox" id="d"><feOffset dy="2" in="SourceAlpha" result="shadowOffsetOuter1"/><feColorMatrix values="0 0 0 0 0 0 0 0 0 0 0 0 0 0 0 0 0 0 0.100232111 0" in="shadowOffsetOuter1" result="shadowMatrixOuter1"/><feMerge><feMergeNode in="shadowMatrixOuter1"/><feMergeNode in="SourceGraphic"/></feMerge></filter></defs><g fill="none" fill-rule="evenodd"><g transform="translate(2 2)"><mask id="c" fill="#fff"><use xlink:href="#a"/></mask><use fill="#55A2FF" xlink:href="#a"/><g filter="url(#b)" mask="url(#c)"><path d="M23.144 70.484a3.556 3.556 0 0 1-3.546-3.546v-40.78a3.556 3.556 0 0 1 3.546-3.546H72.79a3.556 3.556 0 0 1 3.546 3.546v40.78a3.556 3.556 0 0 1-3.546 3.546H23.144" fill="#30404D"/><path d="M24.03 67.824a1.778 1.778 0 0 1-1.772-1.773V32.364c0-.975.797-1.773 1.773-1.773h47.871c.975 0 1.773.798 1.773 1.773V66.05c0 .975-.798 1.773-1.773 1.773H24.031" fill="#E1E4E1"/><path d="M23.144 26.601a1.33 1.33 0 1 1 2.66 0 1.33 1.33 0 0 1-2.66 0" fill="#DF5142"/><path d="M28.463 26.601a1.33 1.33 0 1 1 2.66 0 1.33 1.33 0 0 1-2.66 0" fill="#EFB252"/><path d="M33.782 26.601a1.33 1.33 0 1 1 2.66 0 1.33 1.33 0 0 1-2.66 0" fill="#7CB65A"/><path d="M72.346 27.931H42.204a1.33 1.33 0 0 1 0-2.66h30.142a1.33 1.33 0 0 1 0 2.66" fill="#697D85"/></g><path fill="#55A2FF" mask="url(#c)" d="M7 80l77-64v64z"/><g filter="url(#d)" mask="url(#c)" fill-rule="nonzero"><path d="M64.082 56.92c-1.885.982-11.652 4.998-13.731 6.082-2.08 1.084-3.235 1.074-4.877.288-1.643-.785-12.036-4.983-13.909-5.878-.935-.447-1.428-.825-1.428-1.181V52.66s13.532-2.946 15.716-3.73c2.185-.784 2.942-.812 4.801-.13 1.86.68 12.975 2.686 14.812 3.359v3.52c0 .353-.424.74-1.384 1.24" fill="#912626"/><path d="M64.082 53.37c-1.886.982-11.652 4.998-13.732 6.082-2.079 1.084-3.234 1.073-4.876.288-1.643-.785-12.036-4.984-13.908-5.878-1.873-.895-1.912-1.51-.073-2.23 1.84-.721 12.176-4.777 14.36-5.56 2.185-.784 2.942-.812 4.801-.131 1.86.68 11.568 4.545 13.405 5.218 1.837.673 1.908 1.228.023 2.21" fill="#C6302B"/><path d="M64.082 51.141c-1.885.983-11.652 4.999-13.731 6.083-2.08 1.084-3.235 1.074-4.877.288-1.643-.784-12.036-4.983-13.909-5.878-.935-.447-1.428-.824-1.428-1.181v-3.571s13.532-2.946 15.716-3.73c2.185-.783 2.942-.812 4.801-.13 1.86.68 12.975 2.685 14.812 3.358v3.521c0 .353-.424.74-1.384 1.24" fill="#912626"/><path d="M64.082 47.592c-1.886.982-11.652 4.998-13.732 6.082-2.079 1.084-3.234 1.073-4.876.288-1.643-.785-12.036-4.984-13.908-5.878-1.873-.895-1.912-1.51-.073-2.231 1.84-.72 12.176-4.776 14.36-5.56 2.185-.783 2.942-.811 4.801-.13 1.86.68 11.568 4.545 13.405 5.218 1.837.673 1.908 1.228.023 2.21" fill="#C6302B"/><path d="M64.082 45.15c-1.885.982-11.652 4.998-13.731 6.082-2.08 1.084-3.235 1.073-4.877.288-1.643-.785-12.036-4.984-13.909-5.878-.935-.448-1.428-.825-1.428-1.181v-3.572s13.532-2.945 15.716-3.729c2.185-.784 2.942-.812 4.801-.13 1.86.68 12.975 2.685 14.812 3.358v3.521c0 .353-.424.74-1.384 1.24" fill="#912626"/><path d="M64.082 41.6c-1.886.982-11.652 4.998-13.732 6.082-2.079 1.084-3.234 1.073-4.876.288-1.643-.785-12.036-4.984-13.908-5.878-1.873-.895-1.912-1.511-.073-2.231 1.84-.72 12.176-4.776 14.36-5.56 2.185-.783 2.942-.811 4.801-.13 1.86.68 11.568 4.545 13.405 5.218 1.837.673 1.908 1.228.023 2.21" fill="#C6302B"/><path d="M52.12 38.125l-3.038.316-.68 1.636-1.099-1.826-3.507-.315 2.617-.944-.785-1.449 2.45.959 2.31-.757-.624 1.498 2.355.882m-3.899 7.938l-5.668-2.351 8.123-1.247-2.455 3.598m-7.859-7.028c2.398 0 4.342.753 4.342 1.683S42.759 42.4 40.36 42.4c-2.398 0-4.342-.754-4.342-1.683 0-.93 1.944-1.683 4.342-1.683" fill="#FFF"/><path fill="#621B1C" d="M55.709 38.573l4.807 1.9-4.803 1.897-.004-3.798"/><path fill="#9A2928" d="M50.39 40.676l5.319-2.103.004 3.797-.521.204-4.802-1.898"/></g></g><rect x="2" y="2" width="96" height="96" rx="48" stroke="#0078D4" stroke-width="4"/></g></svg>