<svg xmlns="http://www.w3.org/2000/svg" xmlns:xlink="http://www.w3.org/1999/xlink" viewBox="0 0 100 100"><defs><rect id="a" x=".5" y=".54" width="96" height="96" rx="48"/><filter x="-5.4%" y="-11.1%" width="110.8%" height="122.2%" filterUnits="objectBoundingBox" id="b"><feOffset dy="2" in="SourceAlpha" result="shadowOffsetOuter1"/><feColorMatrix values="0 0 0 0 0 0 0 0 0 0 0 0 0 0 0 0 0 0 0.099071558 0" in="shadowOffsetOuter1" result="shadowMatrixOuter1"/><feMerge><feMergeNode in="shadowMatrixOuter1"/><feMergeNode in="SourceGraphic"/></feMerge></filter></defs><g fill="none" fill-rule="evenodd"><g transform="translate(1.5 1.46)"><mask id="c" fill="#fff"><use xlink:href="#a"/></mask><use fill="#B7D2F7" xlink:href="#a"/><g filter="url(#b)" mask="url(#c)"><path d="M78.435 55.592a9.228 9.228 0 0 0-8.637 1.953l-10.769 9.628a7.718 7.718 0 0 1-5.104 1.93h-10.38a1.734 1.734 0 0 1 0-3.467h7.51a4.622 4.622 0 0 0 0-9.243H31.05c-3.674 0-6.394 1.374-9.057 3.503-2.37 1.895-7.625 6.814-10.073 9.126L26.257 83.36a14.003 14.003 0 0 1 3.321-.392h22.633c4.411 0 8.61-1.903 11.516-5.22l15.666-18.756c1.045-1.136.527-2.976-.958-3.4" fill="#EAC5A7"/><path d="M27.608 86.425l-3.137 3.137c-.474.474-1.267.447-1.774-.059L6.391 73.196c-.506-.506-.533-1.3-.06-1.773l3.138-3.137c.474-.474 1.267-.447 1.773.059L27.55 84.65c.506.507.533 1.3.06 1.774" fill="#E1E4E1"/><path d="M42.303 68.575a1.725 1.725 0 0 1-.491-1.206c0-.956.776-1.733 1.733-1.733l4.043.016c0-.005 3.468-.016 3.468-.016.159-.01.58-.071.755-.172 1.545-.883.781-3.294-.997-3.294h-6.503c-1.85 0-3.512 1.366-3.645 3.21a3.451 3.451 0 0 0 1.637 3.195" fill="#D9B090"/><path d="M24.471 89.562l3.137-3.137c.474-.474.447-1.267-.059-1.774l-7.674-7.674a2.312 2.312 0 0 0-3.269 0 1.937 1.937 0 0 1-2.738 0l-4.362-4.362c-1.007-1.006-2.84.057-2.278 1.366.027.061.058.11.094.147l15.375 15.375c.507.506 1.3.533 1.774.06" fill="#CDD3D1"/><path d="M24.48 85.279a1.156 1.156 0 1 1-2.311-.001 1.156 1.156 0 0 1 2.311 0" fill="#8BA6B1"/><path d="M47.59 62.17v-2.31c0-.639.517-1.156 1.155-1.156h2.31a2.31 2.31 0 1 1 0 4.621h-2.31a1.156 1.156 0 0 1-1.156-1.155" fill="#F9D8BE"/><path d="M48.745 63.325h2.31a2.29 2.29 0 0 0 1.244-.368 1.774 1.774 0 0 0-1.485-.787H47.59c0 .638.518 1.155 1.156 1.155" fill="#EAC5A7"/><path d="M48.745 61.015c0-.92-.27-1.707-.659-2.08-.293.21-.497.536-.497.924v2.311c0 .387.204.714.497.923.388-.372.659-1.159.659-2.078" fill="#FFFFFE"/><path d="M48.086 63.093c.208-.2.379-.527.496-.923h-.993c0 .387.204.714.497.923" fill="#F9D8BE"/><path d="M77.01 57.354L62.572 74.281a15.91 15.91 0 0 1-.753.8c-3.551 3.509-8.734 4.815-13.636 3.864l-20.559-3.99a17.258 17.258 0 0 0-9.075.697l7.708 7.708a14.003 14.003 0 0 1 3.321-.392h22.633c4.411 0 8.61-1.903 11.516-5.22l15.666-18.756a1.15 1.15 0 0 0 .3-.736c.078-1.396-1.802-1.99-2.683-.902" fill="#D9B090"/></g><g mask="url(#c)" fill="#1E1E1E" fill-rule="nonzero"><path d="M29.679 38.21V24.023a3.411 3.411 0 0 1 3.407-3.405h33.555a3.41 3.41 0 0 1 3.408 3.405v18.08a3.41 3.41 0 0 1-3.408 3.406h-15.49v1.77h15.492a5.184 5.184 0 0 0 5.18-5.176v-18.08a5.184 5.184 0 0 0-5.18-5.176H33.087a5.184 5.184 0 0 0-5.18 5.176V38.21l1.772.001z"/><path d="M51.199 34.657a1.545 1.545 0 0 0 1.544 1.55h7.202a1.547 1.547 0 0 0 1.544-1.55V27.43a1.545 1.545 0 0 0-1.544-1.55h-7.202a1.547 1.547 0 0 0-1.544 1.55v2.328H48.29a2.82 2.82 0 0 0-2.678 1.94L41.186 45.07a.255.255 0 0 1-.241.177h-2.748V42.92a1.545 1.545 0 0 0-1.544-1.55h-7.201a1.547 1.547 0 0 0-1.543 1.55v7.228a1.545 1.545 0 0 0 1.543 1.549h7.203a1.547 1.547 0 0 0 1.543-1.55v-2.323h2.748a2.82 2.82 0 0 0 2.679-1.94l4.426-13.372a.255.255 0 0 1 .24-.177h2.91l-.002 2.321zM35.625 49.113h-5.147V43.95h5.147v5.163z"/></g></g><rect x="2" y="2" width="96" height="96" rx="48" stroke="#06F" stroke-width="4"/></g></svg>