<svg xmlns="http://www.w3.org/2000/svg" xmlns:xlink="http://www.w3.org/1999/xlink" viewBox="0 0 100 118" version="1.1"><!-- Generator: Sketch 51.3 (57544) - http://www.bohemiancoding.com/sketch --><title>store-data-in-azure</title><desc>Created with Sketch.</desc><defs><filter x="-1.7%" y="-2.8%" width="103.3%" height="106.9%" filterUnits="objectBoundingBox" id="filter-1"><feOffset dx="0" dy="2" in="SourceAlpha" result="shadowOffsetOuter1"></feOffset><feColorMatrix values="0 0 0 0 0   0 0 0 0 0   0 0 0 0 0  0 0 0 0.0970052083 0" type="matrix" in="shadowOffsetOuter1" result="shadowMatrixOuter1"></feColorMatrix><feMerge><feMergeNode in="shadowMatrixOuter1"></feMergeNode><feMergeNode in="SourceGraphic"></feMergeNode></feMerge></filter><filter x="-3.4%" y="-5.6%" width="104.5%" height="114.8%" filterUnits="objectBoundingBox" id="filter-2"><feOffset dx="0" dy="1" in="SourceAlpha" result="shadowOffsetOuter1"></feOffset><feColorMatrix values="0 0 0 0 0   0 0 0 0 0   0 0 0 0 0  0 0 0 0.101873868 0" type="matrix" in="shadowOffsetOuter1" result="shadowMatrixOuter1"></feColorMatrix><feMerge><feMergeNode in="shadowMatrixOuter1"></feMergeNode><feMergeNode in="SourceGraphic"></feMergeNode></feMerge></filter></defs><g id="Badges-FINAL" stroke="none" stroke-width="1" fill="none" fill-rule="evenodd"><g id="Store-data-in-Azure" transform="translate(-576.000000, -118.000000)"><g id="store-data-in-azure" transform="translate(576.000000, 118.000000)"><path d="M44.7425,3.49663266 C46.3745,2.49887755 48.1865,2 50,2 C51.8135,2 53.627,2.49887755 55.256,3.49663266 L92.591,26.3316189 C95.933,28.3773408 98,32.2031485 98,36.3529027 L98,81.6470973 C98,85.7952317 95.933,89.6242789 92.591,91.6683811 L55.256,114.504987 C53.627,115.501122 51.8135,116 50,116 C48.1865,116 46.3745,115.501122 44.7425,114.504987 L7.409,91.6683811 C4.0655,89.6242789 2,85.7952317 2,81.6470973 L2,36.3529027 C2,32.2031485 4.0655,28.3773408 7.409,26.3316189 L44.7425,3.49663266 Z" id="Trophy-1" fill="#55A2FF"></path><g id="Metal-Box" filter="url(#filter-1)" transform="translate(21.013522, 21.140741)"><g id="Back-Box" transform="translate(0.000000, 19.000000)"><polygon id="Inside-Box" fill="#354957" points="0.495686572 6.41516913 9.52803966 0.996299168 49.2664194 0.996299168 58.2969662 6.41516913"></polygon><polygon id="Inside-Box-Copy" fill="#182A37" points="2.49568657 6.41516913 9.98647774 1.85925926 48.9864777 1.85925926 56.2969662 6.41516913"></polygon><polygon fill="#000000" points="9.98408211 6.41516913 9.98408211 1.85925926 48.9864792 1.85925926 48.9864792 6.41516913"></polygon></g><g id="Data" filter="url(#filter-2)" transform="translate(7.515622, 0.807169)" fill="#FFFFFF" stroke="#FFFFFF"><path d="M3.04491401,0.38035464 C1.45620838,0.38035464 0.163120393,1.83697204 0.163120393,3.62700053 C0.163120393,5.41541313 1.45620838,6.87041465 3.04491401,6.87041465 C4.63361964,6.87041465 5.92501117,5.41541313 5.92501117,3.62700053 C5.92501117,1.83697204 4.63192319,0.38035464 3.04491401,0.38035464 Z M3.04491401,6.04341262 C1.93534734,6.04341262 1.03309582,4.959029 1.03309582,3.62865785 C1.03309582,2.29667081 1.93534734,1.21067131 3.04491401,1.21067131 C4.15278422,1.21067131 5.05503574,2.29505493 5.05503574,3.62865785 C5.05503574,4.959029 4.15278422,6.04341262 3.04491401,6.04341262 Z" id="Fill-1"></path><path d="M10.0947599,0.38035464 C9.85517738,0.38035464 9.6597722,0.566479816 9.6597722,0.794684314 L9.6597722,6.45608497 C9.6597722,6.68428947 9.85517738,6.87041465 10.0947599,6.87041465 C10.3343424,6.87041465 10.5297476,6.68428947 10.5297476,6.45608497 L10.5297476,0.794684314 C10.5297476,0.566479816 10.3360432,0.38035464 10.0947599,0.38035464 Z" id="Fill-2"></path><path d="M17.1446058,0.38035464 C15.5559002,0.38035464 14.2628122,1.83697204 14.2628122,3.62700053 C14.2628122,5.41541313 15.5542037,6.87041465 17.1446058,6.87041465 C18.7333115,6.87041465 20.0263994,5.41541313 20.0263994,3.62700053 C20.0263994,1.83697204 18.7333115,0.38035464 17.1446058,0.38035464 Z M17.1446058,6.04341262 C16.0367356,6.04341262 15.1327876,4.959029 15.1327876,3.62865785 C15.1327876,2.29667081 16.0350392,1.21067131 17.1446058,1.21067131 C18.2541725,1.21067131 19.156424,2.29505493 19.156424,3.62865785 C19.156424,4.959029 18.2541725,6.04341262 17.1446058,6.04341262 Z" id="Fill-3"></path><path d="M24.1961917,6.87207196 C24.4357742,6.87207196 24.6311794,6.68594679 24.6311794,6.45774229 L24.6311794,0.796341632 C24.6311794,0.568137135 24.4357742,0.382011959 24.1961917,0.382011959 C23.9566091,0.382011959 23.761204,0.568137135 23.761204,0.796341632 L23.761204,6.45774229 C23.761204,6.68594679 23.9549083,6.87207196 24.1961917,6.87207196 Z" id="Fill-4"></path><path d="M28.7992317,0.38035464 C28.5596491,0.38035464 28.364244,0.566479816 28.364244,0.794684314 L28.364244,6.45608497 C28.364244,6.68428947 28.5596491,6.87041465 28.7992317,6.87041465 C29.0388142,6.87041465 29.2342194,6.68428947 29.2342194,6.45608497 L29.2342194,0.794684314 C29.2342194,0.566479816 29.040515,0.38035464 28.7992317,0.38035464 Z" id="Fill-5"></path><path d="M33.4040116,0.38035464 C33.1644291,0.38035464 32.9690239,0.566479816 32.9690239,0.794684314 L32.9690239,6.45608497 C32.9690239,6.68428947 33.1644291,6.87041465 33.4040116,6.87041465 C33.6435942,6.87041465 33.8389994,6.68428947 33.8389994,6.45608497 L33.8389994,0.794684314 C33.8389994,0.566479816 33.645295,0.38035464 33.4040116,0.38035464 Z" id="Fill-6"></path><path d="M40.4555975,6.87207196 C42.0443031,6.87207196 43.3373911,5.41707045 43.3373911,3.62865785 C43.3373911,1.83862936 42.0459996,0.382011959 40.4555975,0.382011959 C38.8668919,0.382011959 37.5738039,1.83862936 37.5738039,3.62865785 C37.5721031,5.41545456 38.8668919,6.87207196 40.4555975,6.87207196 Z M40.4555975,1.20901399 C41.5634677,1.20901399 42.4674157,2.29339761 42.4674157,3.62700053 C42.4674157,4.95898756 41.5651642,6.0417553 40.4555975,6.0417553 C39.3460308,6.0417553 38.4437793,4.95737168 38.4437793,3.62700053 C38.4420785,2.29335618 39.3460308,1.20901399 40.4555975,1.20901399 Z" id="Fill-7"></path><path d="M40.4555975,10.4261919 C38.8668919,10.4261919 37.5738039,11.8828093 37.5738039,13.6728378 C37.5738039,15.4612504 38.8668919,16.9178678 40.4555975,16.9178678 C42.0443031,16.9178678 43.3373911,15.4612504 43.3373911,13.6728378 C43.3356903,11.8828093 42.0426067,10.4261919 40.4555975,10.4261919 Z M40.4555975,16.0892499 C39.3460308,16.0892499 38.4437793,15.0048663 38.4437793,13.6728792 C38.4437793,12.3408922 39.3460308,11.2548927 40.4555975,11.2548927 C41.5634677,11.2548927 42.4674157,12.3392763 42.4674157,13.6728792 C42.4657149,15.0048663 41.5634677,16.0892499 40.4555975,16.0892499 Z" id="Fill-8"></path><path d="M33.4040116,10.4261919 C33.1644291,10.4261919 32.9690239,10.6123171 32.9690239,10.8405216 L32.9690239,16.5019222 C32.9690239,16.7301267 33.1644291,16.9162519 33.4040116,16.9162519 C33.6435942,16.9162519 33.8389994,16.7301267 33.8389994,16.5019222 L33.8389994,10.8405216 C33.8389994,10.6123171 33.645295,10.4261919 33.4040116,10.4261919 Z" id="Fill-9"></path><path d="M26.3541657,10.4261919 C24.7654601,10.4261919 23.4723721,11.8828093 23.4723721,13.6728378 C23.4723721,15.4612504 24.7654601,16.9178678 26.3541657,16.9178678 C27.9428714,16.9178678 29.2359593,15.4612504 29.2359593,13.6728378 C29.2342585,11.8828093 27.9428714,10.4261919 26.3541657,10.4261919 Z M26.3541657,16.0892499 C25.2445991,16.0892499 24.3423475,15.0048663 24.3423475,13.6728792 C24.3423475,12.3408922 25.2445991,11.2548927 26.3541657,11.2548927 C27.4620359,11.2548927 28.3659839,12.3392763 28.3659839,13.6728792 C28.3642831,15.0048663 27.4620359,16.0892499 26.3541657,16.0892499 Z" id="Fill-10"></path><path d="M19.7375676,16.5035796 L19.7375676,10.8421789 C19.7375676,10.6139744 19.5421624,10.4278492 19.3025799,10.4278492 C19.0629973,10.4278492 18.8675922,10.6139744 18.8675922,10.8421789 L18.8675922,16.5035796 C18.8675922,16.7317841 19.0629973,16.9179092 19.3025799,16.9179092 C19.5438632,16.9179092 19.7375676,16.7317841 19.7375676,16.5035796 Z" id="Fill-11"></path><path d="M14.6995399,16.9179092 C14.9391224,16.9179092 15.1345276,16.7317841 15.1345276,16.5035796 L15.1345276,10.8421789 C15.1345276,10.6139744 14.9391224,10.4278492 14.6995399,10.4278492 C14.4599573,10.4278492 14.2645522,10.6139744 14.2645522,10.8421789 L14.2645522,16.5035796 C14.2645522,16.7317841 14.4582565,16.9179092 14.6995399,16.9179092 Z" id="Fill-12"></path><path d="M10.0947599,10.4261919 C9.85517738,10.4261919 9.6597722,10.6123171 9.6597722,10.8405216 L9.6597722,16.5019222 C9.6597722,16.7301267 9.85517738,16.9162519 10.0947599,16.9162519 C10.3343424,16.9162519 10.5297476,16.7301267 10.5297476,16.5019222 L10.5297476,10.8405216 C10.5297476,10.6123171 10.3360432,10.4261919 10.0947599,10.4261919 Z" id="Fill-13"></path><path d="M3.04491401,10.4261919 C1.45620838,10.4261919 0.163120393,11.8828093 0.163120393,13.6728378 C0.163120393,15.4612504 1.45620838,16.9178678 3.04491401,16.9178678 C4.63361964,16.9178678 5.92501117,15.4612504 5.92501117,13.6728378 C5.92501117,11.8828093 4.63192319,10.4261919 3.04491401,10.4261919 Z M3.04491401,16.0892499 C1.93534734,16.0892499 1.03309582,15.0048663 1.03309582,13.6728792 C1.03309582,12.3408922 1.93534734,11.2548927 3.04491401,11.2548927 C4.15278422,11.2548927 5.05503574,12.3392763 5.05503574,13.6728792 C5.05503574,15.0048663 4.15278422,16.0892499 3.04491401,16.0892499 Z" id="Fill-14"></path><path d="M3.04491401,20.4753438 C1.45620838,20.4753438 0.163120393,21.9319612 0.163120393,23.7203738 C0.163120393,25.5087864 1.45620838,26.9654038 3.04491401,26.9654038 C4.63361964,26.9654038 5.92501117,25.5087864 5.92501117,23.7203738 C5.92501117,21.9319612 4.63192319,20.4753438 3.04491401,20.4753438 Z M3.04491401,26.1367445 C1.93534734,26.1367445 1.03309582,25.0523608 1.03309582,23.7203738 C1.03309582,22.3883868 1.93534734,21.3040032 3.04491401,21.3040032 C4.15278422,21.3040032 5.05503574,22.3883868 5.05503574,23.7203738 C5.05503574,25.0523608 4.15278422,26.1367445 3.04491401,26.1367445 Z" id="Fill-15"></path><path d="M10.0947599,20.4753438 C9.85517738,20.4753438 9.6597722,20.661469 9.6597722,20.8896735 L9.6597722,26.5510741 C9.6597722,26.7792786 9.85517738,26.9654038 10.0947599,26.9654038 C10.3343424,26.9654038 10.5297476,26.7792786 10.5297476,26.5510741 L10.5297476,20.8896735 C10.5297476,20.661469 10.3360432,20.4753438 10.0947599,20.4753438 Z" id="Fill-16"></path><path d="M17.1446058,20.4753438 C15.5559002,20.4753438 14.2628122,21.9319612 14.2628122,23.7203738 C14.2628122,25.5087864 15.5542037,26.9654038 17.1446058,26.9654038 C18.7333115,26.9654038 20.0263994,25.5087864 20.0263994,23.7203738 C20.0263994,21.9319612 18.7333115,20.4753438 17.1446058,20.4753438 Z M17.1446058,26.1367445 C16.0367356,26.1367445 15.1327876,25.0523608 15.1327876,23.7203738 C15.1327876,22.3883868 16.0350392,21.3040032 17.1446058,21.3040032 C18.2541725,21.3040032 19.156424,22.3883868 19.156424,23.7203738 C19.156424,25.0523608 18.2541725,26.1367445 17.1446058,26.1367445 Z" id="Fill-17"></path><path d="M24.1961917,20.4753438 C23.9566091,20.4753438 23.761204,20.661469 23.761204,20.8896735 L23.761204,26.5510741 C23.761204,26.7792786 23.9566091,26.9654038 24.1961917,26.9654038 C24.4357742,26.9654038 24.6311794,26.7792786 24.6311794,26.5510741 L24.6311794,20.8896735 C24.6311794,20.661469 24.4357742,20.4753438 24.1961917,20.4753438 Z" id="Fill-18"></path><path d="M28.7992317,20.4753438 C28.5596491,20.4753438 28.364244,20.661469 28.364244,20.8896735 L28.364244,26.5510741 C28.364244,26.7792786 28.5596491,26.9654038 28.7992317,26.9654038 C29.0388142,26.9654038 29.2342194,26.7792786 29.2342194,26.5510741 L29.2342194,20.8896735 C29.2342194,20.661469 29.040515,20.4753438 28.7992317,20.4753438 Z" id="Fill-19"></path><path d="M33.4040116,20.4753438 C33.1644291,20.4753438 32.9690239,20.661469 32.9690239,20.8896735 L32.9690239,26.5510741 C32.9690239,26.7792786 33.1644291,26.9654038 33.4040116,26.9654038 C33.6435942,26.9654038 33.8389994,26.7792786 33.8389994,26.5510741 L33.8389994,20.8896735 C33.8389994,20.661469 33.645295,20.4753438 33.4040116,20.4753438 Z" id="Fill-20"></path><path d="M40.4555975,20.4753438 C38.8668919,20.4753438 37.5738039,21.9319612 37.5738039,23.7203738 C37.5738039,25.5087864 38.8668919,26.9654038 40.4555975,26.9654038 C42.0443031,26.9654038 43.3373911,25.5087864 43.3373911,23.7203738 C43.3356903,21.9319612 42.0426067,20.4753438 40.4555975,20.4753438 Z M40.4555975,26.1367445 C39.3460308,26.1367445 38.4437793,25.0523608 38.4437793,23.7203738 C38.4437793,22.3883868 39.3460308,21.3040032 40.4555975,21.3040032 C41.5634677,21.3040032 42.4674157,22.3883868 42.4674157,23.7203738 C42.4657149,25.0523608 41.5634677,26.1367445 40.4555975,26.1367445 Z" id="Fill-21"></path></g><g id="Front-Box" transform="translate(0.031450, 25.288060)"><path d="M58.2646131,43.478069 C58.2646131,44.4715285 57.4517826,45.284359 56.4583231,45.284359 L2.26962347,45.284359 C1.27526083,45.284359 0.463333485,44.4715285 0.463333485,43.478069 L0.46423663,0.127109295 L58.2655163,0.127109295 L58.2646131,43.478069" id="Fill-681" fill="#546670"></path><path d="M56.4583231,45.284359 C57.4517826,45.284359 58.2646131,44.4715285 58.2646131,43.478069 L58.2655163,1.93339928 L32.0734083,1.93339928 C30.576897,1.93339928 29.3639733,3.14361358 29.3639733,4.64283427 L29.3639733,40.768634 C29.3639733,42.2678547 28.1510496,43.478069 26.6545383,43.478069 L0.463333485,43.478069 C0.463333485,44.4715285 1.27526083,45.284359 2.26962347,45.284359 L56.4583231,45.284359" id="Fill-683" fill="#30404D"></path><g id="Rivets" transform="translate(3.364425, 2.705734)"><g id="Group-10" transform="translate(0.098909, 35.578625)"><path d="M4.00125,2 C4.00125,3.104 3.10125,4 2.00125,4 C0.90125,4 0.00125,3.104 0.00125,2 C0.00125,0.895 0.90125,0 2.00125,0 C3.10125,0 4.00125,0.895 4.00125,2" id="Fill-366" fill="#30404D"></path><path d="M3.40875,3.41425 C4.19875,2.63325 4.19875,1.36725 3.40875,0.58625 L0.58875,3.41425 C1.36875,4.19525 2.62875,4.19525 3.40875,3.41425" id="Fill-379" fill="#182A37"></path></g><g id="Group-9" transform="translate(0.098909, 0.421375)"><path d="M4,2 C4,3.104 3.1,4 2,4 C0.9,4 0,3.104 0,2 C0,0.895 0.9,0 2,0 C3.1,0 4,0.895 4,2" id="Fill-365" fill="#30404D"></path><path d="M3.41,3.415 C4.2,2.633 4.2,1.367 3.41,0.586 L0.59,3.415 C1.37,4.195 2.63,4.195 3.41,3.415" id="Fill-380" fill="#182A37"></path></g><g id="Group-8" transform="translate(47.901091, 35.578625)"><path d="M4,2 C4,3.104 3.1,4 2,4 C0.9,4 0,3.104 0,2 C0,0.895 0.9,0 2,0 C3.1,0 4,0.895 4,2" id="Fill-381" fill="#30404D"></path><path d="M3.41,3.414 C4.2,2.633 4.19,1.367 3.41,0.586 L0.59,3.414 C1.37,4.195 2.63,4.195 3.41,3.414" id="Fill-383" fill="#182A37"></path></g><g id="Group-7" transform="translate(47.901091, 0.421375)"><path d="M4,2 C4,3.104 3.1,4 2,4 C0.9,4 0,3.104 0,2 C0,0.895 0.9,0 2,0 C3.1,0 4,0.895 4,2" id="Fill-382" fill="#30404D"></path><path d="M3.41,3.415 C4.2,2.633 4.19,1.367 3.41,0.586 L0.59,3.415 C1.37,4.195 2.63,4.195 3.41,3.415" id="Fill-384" fill="#182A37"></path></g></g><g id="Logo" transform="translate(16.864425, 9.705734)"><path d="M12.2043568,24.2977159 C5.74435677,24.2977159 0.494356767,19.2037159 0.204356767,12.8187159 C0.194356767,13.0007159 0.174356767,13.1797159 0.174356767,13.3647159 C0.174356767,20.0057159 5.56435677,25.3897159 12.2043568,25.3897159 C18.8443568,25.3897159 24.2343568,20.0057159 24.2343568,13.3647159 C24.2343568,13.1797159 24.2143568,13.0007159 24.2043568,12.8187159 C23.9143568,19.2037159 18.6643568,24.2977159 12.2043568,24.2977159" id="Fill-364" fill="#30404D"></path><path d="M24.2343568,12.2717159 C24.2343568,18.9127159 18.8443568,24.2977159 12.2043568,24.2977159 C5.56435677,24.2977159 0.174356767,18.9127159 0.174356767,12.2717159 C0.174356767,5.63071587 5.56435677,0.246715869 12.2043568,0.246715869 C18.8443568,0.246715869 24.2343568,5.63071587 24.2343568,12.2717159" id="Fill-367" fill="#6E828F"></path><g id="Microsoft_Azure" transform="translate(4.081076, 4.437699)"><path d="M15.964681,12.6534558 L15.964681,13.1554219 L3.99117024,13.0281323 L3.99117024,12.5261662 L15.964681,12.6534558 Z M11.3192437,11.6808628 L7.54997436,7.2419812 L7.54997436,6.74001507 L11.7074614,11.6360813 L11.3192437,11.6808628 Z" id="path7291" fill="#30404D"></path><path d="M6.2394534e-13,11.5089261 L3.42577928,11.1591516 L9.44575531,4.54747351e-13 L9.44575531,0.501966127 L3.42577928,11.6611177 L0,12.0108923 L2.67677996e-13,11.5089261 Z" id="path7293" fill="#30404D"></path><polygon id="path7291-copy" fill="#ADBDC4" points="9.91141334 1.90759269 7.54997436 6.74001507 11.7074614 11.6360813 3.99117024 12.5261662 15.964681 12.6534558"></polygon><polygon id="path7293-copy" fill="#ADBDC4" points="9.44575531 0 4.02446184 4.60993561 0 11.5089261 3.42577928 11.1591516"></polygon></g></g></g></g><g id="Azure-Hex-Border" stroke="#0078D4" stroke-width="4"><path d="M45.5620172,3.25834249 L6.67338401,26.8942953 C3.79673288,28.6432593 2,31.9508238 2,35.5582677 L2,82.4417323 C2,86.0486597 3.79764663,89.3586805 6.67318764,91.1055853 L45.560618,114.742485 C46.9289662,115.572418 48.4546283,116 50,116 C51.5458817,116 53.0723633,115.572188 54.4362178,114.743457 L93.3268764,91.1055464 C96.2016145,89.3583456 98,86.0476286 98,82.4417323 L98,35.5582677 C98,31.9518547 96.202529,28.6435953 93.3268966,26.8944659 L54.4351916,3.25759524 C53.0721095,2.42798656 51.5462432,2 50,2 C48.4543284,2 46.9293388,2.42772325 45.5620146,3.25834407 Z M45.5620146,3.25834407 C45.5619597,3.25837737 45.5619049,3.25841067 45.5618501,3.25844398 L45.5621963,3.25823359 L45.5620172,3.25834249 Z"></path></g></g></g></g></svg>