<svg xmlns="http://www.w3.org/2000/svg" viewBox="0 0 100 100"><defs><filter x="-1.8%" y="-1.6%" width="103.5%" height="106.6%" filterUnits="objectBoundingBox" id="a"><feOffset dy="2" in="SourceAlpha" result="shadowOffsetOuter1"/><feColorMatrix values="0 0 0 0 0 0 0 0 0 0 0 0 0 0 0 0 0 0 0.104562953 0" in="shadowOffsetOuter1" result="shadowMatrixOuter1"/><feMerge><feMergeNode in="shadowMatrixOuter1"/><feMergeNode in="SourceGraphic"/></feMerge></filter></defs><g fill="none" fill-rule="evenodd"><rect fill="#D9EAF8" x="2" y="2" width="96" height="96" rx="48"/><g filter="url(#a)" transform="translate(21.5 19.5)"><circle fill="#30404D" cx="28.5" cy="32" r="25.056"/><path d="M52.408 19.141l-21.7 12.334a2.1 2.1 0 0 0-1.062 1.826v24.501a2.1 2.1 0 0 0 3.158 1.814l21.253-12.393a3 3 0 0 0 1.489-2.592V20.967a2.1 2.1 0 0 0-3.138-1.826z" fill="#50398A"/><path d="M53.322 19.676l-21.7 12.335a2.1 2.1 0 0 0-1.063 1.825v24.501a2.1 2.1 0 0 0 3.158 1.814l21.254-12.393a3 3 0 0 0 1.488-2.592V21.502a2.1 2.1 0 0 0-3.137-1.826z" fill="#6D56A6"/><path d="M30.56 55.547v-21.71a2.1 2.1 0 0 1 1.062-1.826l13.186-7.496-14.249 31.032z" fill="#FFF" opacity=".203"/><path d="M53.569 20.11l-21.7 12.335a1.6 1.6 0 0 0-.81 1.391v24.501a1.6 1.6 0 0 0 2.406 1.382L54.72 47.326a2.5 2.5 0 0 0 1.24-2.16V21.502a1.6 1.6 0 0 0-2.39-1.391z" stroke="#6D57A4"/><path d="M1.828 20.967v23.644a3 3 0 0 0 1.487 2.59l21.404 12.5a2 2 0 0 0 3.009-1.727V33.3a2.1 2.1 0 0 0-1.062-1.825L4.966 19.14a2.1 2.1 0 0 0-3.138 1.826z" fill="#684DAB"/><path d="M.86 21.524v23.643a3 3 0 0 0 1.487 2.591l21.404 12.5a2 2 0 0 0 3.009-1.727V33.858a2.1 2.1 0 0 0-1.063-1.825l-21.7-12.335A2.1 2.1 0 0 0 .86 21.524z" fill="#8066C0"/><path d="M16.016 26.53L5.439 49.563l-3.092-1.806a3 3 0 0 1-1.488-2.59V21.523a2.1 2.1 0 0 1 3.138-1.826l12.019 6.831z" fill="#FFF" opacity=".197"/><path d="M1.36 21.524v23.643a2.5 2.5 0 0 0 1.239 2.16l21.404 12.499a1.5 1.5 0 0 0 2.257-1.295V33.858a1.6 1.6 0 0 0-.81-1.39L3.75 20.132a1.6 1.6 0 0 0-2.39 1.39z" stroke="#8066C0"/><g><path d="M4.934 16.69l22.341 12.709a2.8 2.8 0 0 0 2.768 0l22.35-12.703a1.4 1.4 0 0 0-.012-2.441L29.505 1.548a2 2 0 0 0-1.951.004L4.94 14.252a1.4 1.4 0 0 0-.006 2.437z" fill="#7454B8"/><path d="M4.934 15.69l22.341 12.709a2.8 2.8 0 0 0 2.768 0l22.35-12.703a1.4 1.4 0 0 0-.012-2.441L29.505.548a2 2 0 0 0-1.951.004L4.94 13.252a1.4 1.4 0 0 0-.006 2.437z" fill="#A684D3"/><path d="M30.922 27.9l9.88-21.077 11.579 6.432a1.4 1.4 0 0 1 .012 2.44L30.922 27.9z" fill="#FFF" opacity=".198"/><path fill="#FFF" opacity=".196" d="M32.074 1.975l5.554 3.085-10.816 23.075-5.527-3.144 10.79-23.016z"/><path d="M5.18 15.255l22.342 12.71a2.3 2.3 0 0 0 2.274 0l22.35-12.704a.9.9 0 0 0-.008-1.57L29.262.986a1.5 1.5 0 0 0-1.463.003l-22.614 12.7a.9.9 0 0 0-.004 1.567z" stroke="#A684D3"/></g></g><path d="M42.924 88.903a10.317 10.317 0 0 0-10.337-10.336 10.317 10.317 0 0 0 10.337-10.336A10.317 10.317 0 0 0 53.26 78.567a10.317 10.317 0 0 0-10.336 10.336zm-3-62.108a11.077 11.077 0 0 1-11.099-11.099 11.077 11.077 0 0 1-11.098 11.099 11.077 11.077 0 0 1 11.098 11.098 11.077 11.077 0 0 1 11.099-11.098zm47.78 18.747a8.632 8.632 0 0 1-8.648-8.649 8.632 8.632 0 0 1-8.648 8.649 8.631 8.631 0 0 1 8.648 8.648c.068-4.79 3.927-8.648 8.649-8.648z" fill="#FFF" opacity=".95"/><rect x="2" y="2" width="96" height="96" rx="48" stroke="#0078D4" stroke-width="4"/></g></svg>