<svg xmlns="http://www.w3.org/2000/svg" xmlns:xlink="http://www.w3.org/1999/xlink" viewBox="0 0 101 100"><defs><rect id="a" x="0" y="0" width="96" height="96" rx="48"/><filter x="-5.7%" y="-4.9%" width="111.4%" height="109.9%" filterUnits="objectBoundingBox" id="b"><feOffset dy="2" in="SourceAlpha" result="shadowOffsetOuter1"/><feColorMatrix values="0 0 0 0 0 0 0 0 0 0 0 0 0 0 0 0 0 0 0.102496603 0" in="shadowOffsetOuter1" result="shadowMatrixOuter1"/><feMerge><feMergeNode in="shadowMatrixOuter1"/><feMergeNode in="SourceGraphic"/></feMerge></filter></defs><g fill="none" fill-rule="evenodd"><g transform="translate(2.727 2)"><mask id="c" fill="#fff"><use xlink:href="#a"/></mask><use fill="#C0DDF4" xlink:href="#a"/><g filter="url(#b)" mask="url(#c)"><path d="M75.807 84.054h-56a5.602 5.602 0 0 1-5.6-5.6v-33.6c0-3.096 2.506-5.6 5.6-5.6h56c3.091 0 5.6 2.504 5.6 5.6v33.6c0 3.089-2.509 5.6-5.6 5.6" fill="#546670"/><path d="M47.807 72.854a5.6 5.6 0 0 1-5.6 5.6h-28c0 3.089 2.506 5.6 5.6 5.6h56a5.6 5.6 0 0 0 5.6-5.6v-33.6h-33.6v28" fill="#30404D"/><path d="M47.807 33.654c-1.548 0-2.8-1.503-2.8-3.362v-10.08c0-1.854 1.252-3.358 2.8-3.358 1.546 0 2.8 1.504 2.8 3.358v10.08c0 1.859-1.254 3.362-2.8 3.362" fill="#243038"/><path d="M56.207 14.054a8.4 8.4 0 1 1-16.8 0 8.4 8.4 0 1 1 16.8 0" fill="#30404D"/><path d="M52.158 6.903c.776 1.271 1.25 2.753 1.25 4.351 0 4.637-3.767 8.4-8.4 8.4-1.602 0-3.08-.47-4.355-1.248 1.476 2.419 4.113 4.048 7.154 4.048 4.634 0 8.4-3.763 8.4-8.4 0-3.038-1.632-5.675-4.049-7.15" fill="#182A37"/><path d="M63.627 39.254c-2.315-6.515-8.523-11.2-15.82-11.2-7.3 0-13.504 4.685-15.823 11.2h31.643" fill="#30404D"/><path d="M64.607 56.054a5.6 5.6 0 1 1-11.2 0 5.6 5.6 0 0 1 11.2 0" fill="#C5D0D4"/><path d="M64.607 56.054c0-3.094-2.511-5.6-5.6-5.6v11.2c3.089 0 5.6-2.511 5.6-5.6" fill="#ADBDC4"/><path d="M42.207 56.054a5.6 5.6 0 1 1-11.2 0 5.6 5.6 0 0 1 11.2 0" fill="#C5D0D4"/><path d="M42.207 56.054c0-3.094-2.511-5.6-5.6-5.6v11.2c3.089 0 5.6-2.511 5.6-5.6" fill="#ADBDC4"/><path d="M48.877 28.138l-6.67 11.116h21.42a16.796 16.796 0 0 0-14.75-11.116" fill="#182A37"/></g><path d="M46.345 138.558c-10.169-4.29-24.2-6.851-37.532-6.851-1.956 0-3.915.054-5.822.16l-4.493.253V54.993l4.065-.181c2.178-.098 4.352-.146 6.46-.146 14.781 0 27.882 2.399 38.977 7.133 11.094-4.734 24.196-7.133 38.976-7.133 2.109 0 4.283.049 6.46.146l4.066.181v77.127l-4.493-.252a104.139 104.139 0 0 0-5.822-.161c-13.332 0-27.363 2.561-37.532 6.851l-1.654.698-1.656-.698z" fill="#F65B23" fill-rule="nonzero" mask="url(#c)"/><path d="M48 61.799c11.094-4.734 24.196-7.133 38.976-7.133 2.109 0 4.283.049 6.46.146l4.066.181v77.127l-4.493-.252a104.139 104.139 0 0 0-5.822-.161c-13.332 0-27.363 2.561-37.532 6.851-1.085 1.308-1.636 1.54-1.654.698-.001-.698.027-73.875-.001-77.457z" fill="#CC271F" fill-rule="nonzero" mask="url(#c)"/><g mask="url(#c)" fill-rule="nonzero"><path fill="#E86C60" d="M62.273 16h7v7h-7z"/><path fill="#72C472" d="M70.273 16h7v7h-7z"/><path fill="#43A6DD" d="M62.273 24h7v7h-7z"/><path fill="#EFD358" d="M70.273 24h7v7h-7z"/></g></g><rect x="2" y="2" width="96" height="96" rx="48" stroke="#0078D4" stroke-width="4" transform="translate(.727)"/></g></svg>