<svg xmlns="http://www.w3.org/2000/svg" xmlns:xlink="http://www.w3.org/1999/xlink" viewBox="0 0 100 100"><defs><filter x="-1.6%" y="-1.6%" width="103.3%" height="106.5%" filterUnits="objectBoundingBox" id="a"><feOffset dy="2" in="SourceAlpha" result="shadowOffsetOuter1"/><feColorMatrix values="0 0 0 0 0 0 0 0 0 0 0 0 0 0 0 0 0 0 0.0995244565 0" in="shadowOffsetOuter1" result="shadowMatrixOuter1"/><feMerge><feMergeNode in="shadowMatrixOuter1"/><feMergeNode in="SourceGraphic"/></feMerge></filter><linearGradient x1="50%" y1="98.414%" x2="50%" y2=".391%" id="b"><stop stop-color="#84522D" offset="0%"/><stop stop-color="#CB9B74" offset="100%"/></linearGradient><path d="M.035 19.534c0 10.782 8.788 19.522 19.628 19.522s19.628-8.74 19.628-19.522C39.291 8.753 30.503.012 19.663.012S.035 8.752.035 19.534" id="c"/><linearGradient x1="50%" y1="97.78%" x2="50%" y2="-.409%" id="d"><stop stop-color="#FDD446" offset="0%"/><stop stop-color="#FDB542" offset="100%"/></linearGradient></defs><g fill="none" fill-rule="evenodd"><rect fill="#55A2FF" x="2" y="2" width="96" height="96" rx="48"/><g filter="url(#a)" transform="translate(20 20)"><path d="M.009 5.163c0 2.843 2.318 5.149 5.177 5.149 2.86 0 5.177-2.306 5.177-5.15 0-2.843-2.317-5.149-5.177-5.149C2.326.013.01 2.32.01 5.163" transform="translate(0 21.944)" fill="url(#b)"/><path d="M.016 5.163c0 2.843 2.318 5.149 5.177 5.149 2.86 0 5.177-2.306 5.177-5.15C10.37 2.32 8.053.014 5.193.014 2.333.013.016 2.32.016 5.163" transform="translate(49.62 21.944)" fill="url(#b)"/><path d="M4.36.03C1.966.03.024 2.102.024 4.66v15.372c0 14.576 10.966 26.587 24.618 26.649 13.67.061 24.832-11.75 24.832-26.33V4.661c0-2.558-1.942-4.632-4.338-4.632H4.36z" transform="translate(5.26 14.271)" fill="url(#b)"/><path d="M7.515 33.712a2.233 2.233 0 0 1-2.239-2.227v-10.12a2.233 2.233 0 0 1 2.24-2.227c1.236 0 2.238.997 2.238 2.227v10.12a2.233 2.233 0 0 1-2.239 2.227m44.975 0a2.233 2.233 0 0 1-2.24-2.227v-10.12a2.233 2.233 0 0 1 2.24-2.227c1.236 0 2.239.997 2.239 2.227v10.12a2.233 2.233 0 0 1-2.24 2.227" fill="#B49278"/><path d="M54.723 12.88v17.816c0 1.224-1.014 2.225-2.244 2.225-1.231 0-2.245-1.001-2.245-2.225V17.315c-.14.016-5.565 2.17-20.233 2.17-14.669 0-20.234-2.17-20.234-2.17v13.38c0 1.225-1.014 2.226-2.245 2.226-1.23 0-2.244-1.001-2.244-2.225V12.88c0-2.723 2.245-4.962 4.983-4.962h.82a9.66 9.66 0 0 1 6.056-2.121c.116 0 .232.004.347.008a15.462 15.462 0 0 1 12.09-5.79c4.895 0 9.258 2.262 12.091 5.792.116-.004.231-.01.348-.01 2.294 0 4.4.796 6.056 2.121h1.685c2.738 0 4.97 2.239 4.97 4.962" fill="#152F3D"/><path d="M9.767 28.852v1.844c0 1.224-1.014 2.225-2.245 2.225-1.23 0-2.244-1.001-2.244-2.225v-1.844c0 1.224 1.014 2.226 2.244 2.226 1.231 0 2.245-1.002 2.245-2.226m40.467-11.537c-.14.016-5.565 2.17-20.233 2.17-14.669 0-20.234-2.17-20.234-2.17V15.47s5.565 2.17 20.234 2.17c14.668 0 20.093-2.153 20.233-2.17v1.844zm4.489 11.537v1.844c0 1.224-1.014 2.225-2.244 2.225-1.231 0-2.245-1.001-2.245-2.225v-1.844c0 1.224 1.014 2.226 2.245 2.226 1.23 0 2.244-1.002 2.244-2.226" fill="#07222A"/><path d="M49.636 38.456c0 10.782-8.788 19.522-19.628 19.522S10.38 49.238 10.38 38.456c0-10.781 8.787-19.522 19.628-19.522 10.84 0 19.628 8.74 19.628 19.522" fill="#6D4526"/><g transform="translate(10.345 16.887)"><mask id="e" fill="#fff"><use xlink:href="#c"/></mask><path d="M.035 19.534c0 10.782 8.788 19.522 19.628 19.522s19.628-8.74 19.628-19.522C39.291 8.753 30.503.012 19.663.012S.035 8.752.035 19.534" fill="url(#d)" mask="url(#e)"/></g><path d="M26.742 31.673a2.663 2.663 0 0 1-2.67 2.655 2.663 2.663 0 0 1-2.67-2.655 2.663 2.663 0 0 1 2.67-2.656 2.663 2.663 0 0 1 2.67 2.656m11.872 0a2.663 2.663 0 0 1-2.67 2.655 2.663 2.663 0 0 1-2.67-2.655 2.663 2.663 0 0 1 2.67-2.656 2.663 2.663 0 0 1 2.67 2.656m-4.981 10.563c0 1.99-1.623 3.605-3.625 3.605s-3.625-1.614-3.625-3.605c0-1.991 1.623-3.605 3.625-3.605s3.625 1.614 3.625 3.605" fill="#152F3D"/></g><rect x="2" y="2" width="96" height="96" rx="48" stroke="#0078D4" stroke-width="4"/></g></svg>