<svg xmlns="http://www.w3.org/2000/svg" xmlns:xlink="http://www.w3.org/1999/xlink" viewBox="0 0 100 100"><defs><path d="M.796 30.518C.768 47.268 14.426 60.872 31.302 60.9c16.875.028 30.579-13.53 30.605-30.28C61.937 13.867 48.278.265 31.402.237h-.053C14.5.239.823 13.785.796 30.518" id="a"/><path d="M.796 30.518C.768 47.268 14.426 60.872 31.302 60.9c16.875.028 30.579-13.53 30.605-30.28C61.937 13.867 48.278.265 31.402.237h-.053C14.5.239.823 13.785.796 30.518" id="c"/><path d="M.796 30.518C.768 47.268 14.426 60.872 31.302 60.9c16.875.028 30.579-13.53 30.605-30.28C61.937 13.867 48.278.265 31.402.237h-.053C14.5.239.823 13.785.796 30.518" id="e"/><path d="M.796 30.518C.768 47.268 14.426 60.872 31.302 60.9c16.875.028 30.579-13.53 30.605-30.28C61.937 13.867 48.278.265 31.402.237h-.053C14.5.239.823 13.785.796 30.518" id="g"/><path d="M.796 30.518C.768 47.268 14.426 60.872 31.302 60.9c16.875.028 30.579-13.53 30.605-30.28C61.937 13.867 48.278.265 31.402.237h-.053C14.5.239.823 13.785.796 30.518" id="i"/><path d="M.796 30.518C.768 47.268 14.426 60.872 31.302 60.9c16.875.028 30.579-13.53 30.605-30.28C61.937 13.867 48.278.265 31.402.237h-.053C14.5.239.823 13.785.796 30.518z" id="k"/><path d="M.796 30.518C.768 47.268 14.426 60.872 31.302 60.9c16.875.028 30.579-13.53 30.605-30.28C61.937 13.867 48.278.265 31.402.237h-.053C14.5.239.823 13.785.796 30.518" id="m"/><path d="M.796 30.518C.768 47.268 14.426 60.872 31.302 60.9c16.875.028 30.579-13.53 30.605-30.28C61.937 13.867 48.278.265 31.402.237h-.053C14.5.239.823 13.785.796 30.518" id="o"/><path d="M.796 30.518C.768 47.268 14.426 60.872 31.302 60.9c16.875.028 30.579-13.53 30.605-30.28C61.937 13.867 48.278.265 31.402.237h-.053C14.5.239.823 13.785.796 30.518" id="q"/><path d="M.796 30.518C.768 47.268 14.426 60.872 31.302 60.9c16.875.028 30.579-13.53 30.605-30.28C61.937 13.867 48.278.265 31.402.237h-.053C14.5.239.823 13.785.796 30.518" id="s"/><path d="M.796 30.518C.768 47.268 14.426 60.872 31.302 60.9c16.875.028 30.579-13.53 30.605-30.28C61.937 13.867 48.278.265 31.402.237h-.053C14.5.239.823 13.785.796 30.518" id="u"/><path d="M.796 30.518C.768 47.268 14.426 60.872 31.302 60.9c16.875.028 30.579-13.53 30.605-30.28C61.937 13.867 48.278.265 31.402.237h-.053C14.5.239.823 13.785.796 30.518" id="w"/></defs><g fill="none" fill-rule="evenodd"><rect fill="#C0DDF4" x="2" y="2" width="96" height="96" rx="48"/><path d="M82.16 49.43c-.029 17.489-14.336 31.643-31.954 31.614-17.62-.029-31.878-14.23-31.849-31.72.03-17.488 14.335-31.643 31.955-31.614 17.618.03 31.877 14.23 31.848 31.72" fill="#000" fill-opacity=".099"/><g transform="translate(18.907 18.809)"><mask id="b" fill="#fff"><use xlink:href="#a"/></mask><path d="M61.908 30.746c-.029 16.75-13.732 30.308-30.608 30.281C14.425 60.998.767 47.397.796 30.645.824 13.893 14.526.337 31.402.364c16.876.027 30.533 13.63 30.506 30.382" fill="#EDEEEF" mask="url(#b)"/></g><g transform="translate(18.907 18.809)"><mask id="d" fill="#fff"><use xlink:href="#c"/></mask><path d="M53.924 45.612c.51-1.964.636-3.65.527-5.09a34.807 34.807 0 0 1-26.975 12.652 36.121 36.121 0 0 1-2.324-.08l-6.269 7.426a34.965 34.965 0 0 0 12.066 2.156A34.806 34.806 0 0 0 56.47 51.673c-3.38-.596-2.547-6.06-2.547-6.06" fill="#E0E0E0" mask="url(#d)"/></g><g transform="translate(18.907 18.809)"><mask id="f" fill="#fff"><use xlink:href="#e"/></mask><path d="M63.315 21.542c4.974 8.864-3.963 25.535-6.15 29.362 5.327-6.032 8.568-13.916 8.582-22.556a33.974 33.974 0 0 0-4.16-16.386c.454 2.225.69 4.527.688 6.884-.001.509-.02 1.014-.042 1.517.43.303.806.687 1.082 1.179" fill="#E0E0E0" mask="url(#f)"/></g><g transform="translate(18.907 18.809)"><mask id="h" fill="#fff"><use xlink:href="#g"/></mask><path d="M15.502 55.998l.665-4.711C7.903 48.456 1.055 42.63-3.047 35.117c2.23 10.956 9.726 20.025 19.762 24.516a4.313 4.313 0 0 1-1.213-3.635" fill="#E0E0E0" mask="url(#h)"/></g><g transform="translate(18.907 18.809)"><mask id="j" fill="#fff"><use xlink:href="#i"/></mask><path d="M17.045 59.941l1.376 1.128.461-.548a34.772 34.772 0 0 1-2.167-.888c.105.106.213.212.33.308" fill="#3DBFC7" mask="url(#j)"/></g><g transform="translate(18.907 18.809)"><mask id="l" fill="#fff"><use xlink:href="#k"/></mask><path d="M26.683 51.279c2.211-2.408 3.711-4.346 4.708-5.906 1.528-2.387.388-5.646-2.345-6.442a8.693 8.693 0 0 1-1.11-.407c-.858-.382-1.595-1.023-2.017-1.857-3.332-6.584-12.053-5.113-12.053-5.113-.014.024-.022.045-.037.068l-4.875-5.94a4.314 4.314 0 0 1-.922-2.032l-.38-2.29 1.347.07c.365.017.71.176.962.44l1.33 1.4 1.055.144c.085-.541-.33-4.099-.048-4.57l1.724-2.903c.791-1.333 2.237-2.13 3.797-2.13 1.36 0 2.871-.285 3.27-1.472.772-2.282 1.56-4.627.708-5.746l-.816-1.075a4.384 4.384 0 0 0-5.844-1.037C10.93 7.163 4.127 12.807 1.013 22.58c-.86 2.696 1.004 5.495 3.846 5.698l.187.014a4.384 4.384 0 0 1 2.666 1.155l2.776 2.572a4.133 4.133 0 0 1 1.12 4.288c-1.68 5.293.723 8.016 2.792 9.32 1.471.927 2.186 2.684 1.944 4.397l-.177 1.263a34.933 34.933 0 0 0 8.985 1.806l1.531-1.814z" fill="#E0E0E0" mask="url(#l)"/></g><g transform="translate(18.907 18.809)"><mask id="n" fill="#fff"><use xlink:href="#m"/></mask><path d="M16.167 51.287l-.665 4.711a4.312 4.312 0 0 0 1.213 3.634 34.48 34.48 0 0 0 2.167.889l6.27-7.428a34.934 34.934 0 0 1-8.985-1.806" fill="#CCCDCE" mask="url(#n)"/></g><g transform="translate(18.907 18.809)"><mask id="p" fill="#fff"><use xlink:href="#o"/></mask><path d="M58.39 19.718c-.485.106-1.114.105-1.93-.086-1.8-.423-3.453-1.08-4.574-1.583-1.088-.487-2.324-.476-3.43-.026-3.953 1.608-11.898 6.183-4.774 15.194a4.083 4.083 0 0 0 3.11 1.545 6.719 6.719 0 0 0 1.55-.15c2.066-.457 4.26.281 5.16 2.185.468.99.837 2.223.95 3.724 4.573-5.543 7.432-12.526 7.78-20.158-1.057-.743-2.482-.942-3.842-.645" fill="#E0E0E0" mask="url(#p)"/></g><g transform="translate(18.907 18.809)"><mask id="r" fill="#fff"><use xlink:href="#q"/></mask><path d="M57.164 50.904c-.228.26-.457.517-.694.769.073.013.147.028.224.036 0 0 .178-.29.47-.805" fill="#3DBFC7" mask="url(#r)"/></g><g transform="translate(18.907 18.809)"><mask id="t" fill="#fff"><use xlink:href="#s"/></mask><path d="M63.315 21.542a3.591 3.591 0 0 0-1.082-1.18c-.348 7.634-3.207 14.616-7.781 20.159.109 1.44-.02 3.127-.528 5.091 0 0-.832 5.465 2.546 6.06.237-.251.466-.509.695-.768 2.187-3.827 11.124-20.498 6.15-29.362" fill="#CCCDCE" mask="url(#t)"/></g><g transform="translate(18.907 18.809)"><mask id="v" fill="#fff"><use xlink:href="#u"/></mask><path d="M46.522 9.173l1.09.273a1.767 1.767 0 0 0 1.804-.605l.747-.93a1.74 1.74 0 0 0-.337-2.497l-4.172-3.028-.673.951.213 4.23a1.75 1.75 0 0 0 1.328 1.606" fill="#E0E0E0" mask="url(#v)"/></g><g transform="translate(18.907 18.809)"><mask id="x" fill="#fff"><use xlink:href="#w"/></mask><path d="M47.067 17.712c1.066-.856 1.717-1.897 2.016-2.455.157-.294.403-.52.707-.664.955-.449 3.068-1.222 4.857-.294.891.461 2.085.83 3.236 1.113 1.413.347 2.526-1.203 1.74-2.42l-2.79-4.31a5.97 5.97 0 0 0-1.897-1.848l-.347-.211a1.617 1.617 0 0 0-2.267.61l-.926 1.73s-.414 2.844-6.016 4.442a1.643 1.643 0 0 0-1.092.97l-.197.51a1.59 1.59 0 0 0 .168 1.47c.613.901 1.754 2.204 2.808 1.357" fill="#E0E0E0" mask="url(#x)"/></g><path d="M32.648 30.193a.933.933 0 0 1-.355-.063.797.797 0 0 1-.29-.198.924.924 0 0 1-.199-.288.881.881 0 0 1-.063-.342.881.881 0 0 1 .263-.639.927.927 0 0 1 .29-.198.932.932 0 0 1 .988.198.75.75 0 0 1 .2.297.89.89 0 0 1 .072.342.89.89 0 0 1-.272.63.869.869 0 0 1-.634.261m4.227-.007a.9.9 0 0 1-.598-1.125.92.92 0 0 1 1.142-.593.904.904 0 0 1 .59 1.134.91.91 0 0 1-.862.63.958.958 0 0 1-.272-.046m4.198 1.305a.895.895 0 0 1-.59-1.125.9.9 0 0 1 1.133-.594.904.904 0 0 1 .6 1.125.918.918 0 0 1-.87.64.95.95 0 0 1-.273-.046m4.207 1.305a.901.901 0 0 1-.6-1.125.92.92 0 0 1 1.144-.594.906.906 0 0 1 .59 1.134.91.91 0 0 1-.863.63.924.924 0 0 1-.27-.045m4.196 1.306a.901.901 0 0 1-.597-1.125.919.919 0 0 1 1.142-.595c.472.153.743.658.589 1.125a.906.906 0 0 1-.86.64.966.966 0 0 1-.274-.045m4.198 1.305c-.47-.153-.742-.658-.588-1.125a.902.902 0 0 1 1.133-.594c.48.153.743.656.598 1.125a.92.92 0 0 1-.87.64.995.995 0 0 1-.273-.046m4.208 1.304a.9.9 0 0 1-.598-1.125.91.91 0 0 1 1.133-.593.91.91 0 0 1 .598 1.134.914.914 0 0 1-.87.63.952.952 0 0 1-.263-.046m4.198 1.305a.888.888 0 0 1-.59-1.125.908.908 0 0 1 1.133-.594.904.904 0 0 1 .6 1.125.918.918 0 0 1-.871.64.95.95 0 0 1-.272-.046m4.198 1.305c-.472-.153-.745-.656-.59-1.125a.899.899 0 0 1 1.133-.594.903.903 0 0 1 .598 1.125.916.916 0 0 1-.87.64.92.92 0 0 1-.271-.046m4.206 1.306a.901.901 0 0 1-.598-1.125.913.913 0 0 1 1.134-.595.91.91 0 0 1 .597 1.134.91.91 0 0 1-.86.63.966.966 0 0 1-.273-.044m4.169 2.625a.908.908 0 0 1-.345-.072.911.911 0 0 1-.3-.198.77.77 0 0 1-.19-.288.874.874 0 0 1-.072-.342c0-.244.099-.469.263-.639a.926.926 0 0 1 .825-.243c.054.01.108.027.163.045.054.027.109.054.154.081a.894.894 0 0 1 .335.404.886.886 0 0 1-.19.982.91.91 0 0 1-.643.27m-2.306 2.694a.91.91 0 0 1-.218-1.26.918.918 0 0 1 1.27-.217.902.902 0 0 1 .216 1.26.934.934 0 0 1-.742.379.95.95 0 0 1-.526-.162m-2.602 3.68a.903.903 0 0 1-.227-1.26.926.926 0 0 1 1.269-.216.904.904 0 0 1 .218 1.26.91.91 0 0 1-1.26.217m-2.611 3.68a.892.892 0 0 1-.227-1.25.914.914 0 0 1 1.268-.216.889.889 0 0 1 .219 1.25.884.884 0 0 1-.744.378.837.837 0 0 1-.516-.161m-2.612 3.689a.902.902 0 0 1-.226-1.26.916.916 0 0 1 1.27-.215.891.891 0 0 1 .217 1.25.895.895 0 0 1-.745.388.898.898 0 0 1-.516-.163m-2.612 3.682a.913.913 0 0 1-.226-1.26.928.928 0 0 1 1.27-.217.902.902 0 0 1 .217 1.26.937.937 0 0 1-.743.379.91.91 0 0 1-.518-.162m-2.61 3.68a.892.892 0 0 1-.218-1.251.906.906 0 0 1 1.26-.215.891.891 0 0 1 .218 1.25.886.886 0 0 1-.743.379.9.9 0 0 1-.518-.162m-2.611 3.69a.904.904 0 1 1 1.043-1.476.893.893 0 0 1 .218 1.25.894.894 0 0 1-.743.387.902.902 0 0 1-.518-.161m-2.61 3.68a.9.9 0 0 1-.219-1.26.906.906 0 0 1 1.261-.215.9.9 0 0 1-.526 1.638.894.894 0 0 1-.516-.163m-2.917 4.67a.875.875 0 0 1-.644-.262.914.914 0 0 1-.2-.288.881.881 0 0 1-.063-.342c0-.126.018-.243.063-.35a.929.929 0 0 1 1.015-.54c.064.017.119.035.173.053a.793.793 0 0 1 .29.198c.091.081.154.18.2.288a.935.935 0 0 1 .072.351.89.89 0 0 1-.272.63.869.869 0 0 1-.634.261M30.837 32.93a.894.894 0 0 1 .508-1.162.9.9 0 0 1 1.178.495.887.887 0 0 1-.507 1.17.911.911 0 0 1-1.179-.504m1.686 4.203a.905.905 0 0 1 .508-1.17.92.92 0 0 1 1.179.504.9.9 0 0 1-.843 1.233.911.911 0 0 1-.844-.567m1.687 4.203a.886.886 0 0 1 .507-1.17.89.89 0 0 1 1.17.504.895.895 0 0 1-.834 1.233.903.903 0 0 1-.843-.567m1.677 4.194a.908.908 0 0 1 .508-1.17.91.91 0 0 1 1.178.513.895.895 0 0 1-.843 1.224.898.898 0 0 1-.843-.567m1.686 4.203a.9.9 0 0 1 .508-1.17.907.907 0 0 1 1.17.504.889.889 0 0 1-.5 1.17.902.902 0 0 1-1.178-.503m1.678 4.202a.9.9 0 0 1 .508-1.17.913.913 0 0 1 1.178.504.892.892 0 0 1-.508 1.17.855.855 0 0 1-.335.063.921.921 0 0 1-.843-.567m1.686 4.203a.899.899 0 0 1 .508-1.17.897.897 0 0 1 1.179.504.907.907 0 0 1-.509 1.17 1.1 1.1 0 0 1-.335.063.913.913 0 0 1-.843-.567m1.687 4.194a.9.9 0 0 1 .507-1.17.92.92 0 0 1 1.179.504.9.9 0 0 1-.843 1.233.902.902 0 0 1-.843-.567m1.677 4.203a.904.904 0 0 1 .508-1.17.912.912 0 0 1 1.178.504.889.889 0 0 1-.507 1.17.843.843 0 0 1-.327.063.925.925 0 0 1-.852-.567m1.686 4.203a.9.9 0 0 1 .508-1.17.911.911 0 0 1 1.179.504.907.907 0 0 1-.508 1.17 1.106 1.106 0 0 1-.335.063.913.913 0 0 1-.844-.567" fill="#137AD1"/><path d="M43.753 30.445c-.011 6.934-5.683 12.547-12.67 12.536-6.985-.012-12.64-5.643-12.627-12.578.011-6.934 5.683-12.546 12.67-12.535 6.985.012 12.64 5.643 12.627 12.577" fill="#0078D7"/><path d="M85.462 41.093c-.011 5.983-4.904 10.825-10.932 10.816-6.026-.01-10.904-4.868-10.893-10.85.009-5.984 4.903-10.825 10.93-10.816 6.027.01 10.905 4.87 10.895 10.85" fill="#FDB82C"/><path d="M63.69 75.516c-.012 6.932-5.684 12.542-12.667 12.53-6.983-.011-12.634-5.64-12.623-12.572.012-6.932 5.683-12.542 12.666-12.531 6.983.012 12.635 5.641 12.623 12.573" fill="#D83A18"/><path d="M24.531 29.046c.262 0 .515.036.759.097a3.069 3.069 0 0 1-.074-.675c.001-1.725 1.411-3.12 3.148-3.119.478.001.93.11 1.335.3a3.14 3.14 0 0 1 3.044-2.332c1.737.002 3.143 1.401 3.141 3.126 0 .267-.038.524-.101.772.216-.034.435-.057.66-.057 2.266.002 4.1 1.828 4.099 4.078-.003 2.25-1.842 4.07-4.107 4.068l-11.911-.013c-1.737-.001-3.145-1.4-3.143-3.125.002-1.725 1.413-3.121 3.15-3.12m19.947 45.225c.262 0 .515.036.759.097a3.069 3.069 0 0 1-.075-.675c.002-1.725 1.412-3.12 3.149-3.119.478.001.93.11 1.335.3a3.14 3.14 0 0 1 3.043-2.332c1.738.002 3.144 1.401 3.142 3.126 0 .267-.038.524-.102.772.216-.034.436-.057.661-.057 2.266.002 4.1 1.828 4.098 4.078-.002 2.25-1.841 4.07-4.107 4.068l-11.91-.013c-1.738-.001-3.145-1.4-3.143-3.125.002-1.725 1.412-3.121 3.15-3.12m25.075-34.284c.216 0 .427.03.628.08a2.588 2.588 0 0 1-.062-.559 2.598 2.598 0 0 1 2.61-2.585c.395.001.77.091 1.106.249a2.602 2.602 0 0 1 2.521-1.932 2.597 2.597 0 0 1 2.603 2.59c0 .221-.031.434-.084.639a3.52 3.52 0 0 1 .547-.046c1.876.002 3.397 1.514 3.395 3.377-.002 1.863-1.526 3.373-3.403 3.371l-9.868-.01a2.595 2.595 0 0 1-2.603-2.59 2.596 2.596 0 0 1 2.61-2.584" fill="#FFF"/><g stroke="#0078D4" stroke-width="4"><rect x="2" y="2" width="96" height="96" rx="48"/></g></g></svg>