<svg xmlns="http://www.w3.org/2000/svg" xmlns:xlink="http://www.w3.org/1999/xlink" viewBox="0 0 100 100"><defs><rect id="a" x="0" y="0" width="96" height="96" rx="48"/></defs><g fill="none" fill-rule="evenodd"><g transform="translate(2 2)"><mask id="b" fill="#fff"><use xlink:href="#a"/></mask><use fill="#C0DDF4" xlink:href="#a"/><g mask="url(#b)"><path d="M37.72 33.164a105.497 105.497 0 0 0-13.397 2.065c-28.968 6.45-6.039 11.549-3.467 13.2 3.266 2.096 7.102 3.135 10.891 3.977 12.991 2.887 18.124 7.722 18.124 7.722 4.699 9.084-21.607 16.903-39.295 21.042 9.247 10.67 22.9 17.419 38.129 17.419 14.539 0 27.642-6.154 36.847-15.997a52.85 52.85 0 0 0 .01-3.716c-.19-6.476-4.833-14.22-9.724-18.672-11.759-10.7-35.62-15.661-35.62-15.661-9.67-2.901-.076-5.468 6.728-6.77a69.311 69.311 0 0 1 8.106-1.054c22.326-1.598 24.594-10.668 24.594-10.668l-8.467-1.275c.76 5.868-24.744 7.599-33.459 8.388" fill="#6B6B6B"/><path d="M47.205 63.058c0 3.556-7.868 6.442-17.573 6.442-9.706 0-17.575-2.886-17.575-6.442 0-3.558 7.87-6.444 17.575-6.444 9.705 0 17.573 2.886 17.573 6.444" fill="#000" opacity=".1"/><path d="M17.03 37.498v24.478c0 2.562 5.664 4.584 12.745 4.584V37.498H17.032z" fill="#3E3E3E"/><path d="M29.572 66.628h.203c7.013 0 12.745-2.09 12.745-4.585V37.498H29.572v29.13z" fill="#A0A1A2"/><path d="M42.52 37.498c0 2.563-5.664 4.585-12.744 4.585-7.081 0-12.745-2.022-12.745-4.585 0-2.495 5.73-4.585 12.745-4.585 7.013 0 12.744 2.09 12.744 4.585" fill="#FFF"/><path d="M39.89 37.228c0 1.686-4.518 3.034-10.114 3.034-5.598 0-10.115-1.348-10.115-3.034 0-1.686 4.517-3.034 10.115-3.034 5.596 0 10.114 1.348 10.114 3.034" fill="#7FBA00"/><path d="M37.799 39.116c1.349-.539 2.091-1.146 2.091-1.888 0-1.685-4.518-3.034-10.114-3.034-5.598 0-10.116 1.35-10.116 3.034 0 .674.81 1.35 2.091 1.888 1.82-.74 4.72-1.214 8.025-1.214 3.236 0 6.135.473 8.023 1.214" fill="#B8D432"/><path d="M29.572 66.628V54.49c-1.888 0-3.506-1.011-4.45-2.495-.945 1.484-2.495 2.495-4.383 2.495a4.989 4.989 0 0 1-3.709-1.62v9.172c0 2.495 5.597 4.518 12.542 4.585" fill="#3999C6"/><path d="M38.609 54.491c-1.888 0-3.574-1.012-4.518-2.495-.877 1.483-2.495 2.427-4.383 2.495v12.137c7.013 0 12.745-2.09 12.745-4.585v-9.239c-.945 1.012-2.293 1.687-3.844 1.687" fill="#59B4D9"/><path d="M82.098 44.483c0 1.879-6.178 3.4-13.8 3.4-7.62 0-13.797-1.521-13.797-3.4 0-1.878 6.178-3.4 13.798-3.4s13.799 1.522 13.799 3.4" fill="#000" opacity=".1"/><g><path d="M79.317 27.474a7.788 7.788 0 0 0 .18-1.642c0-4.116-3.352-7.463-7.474-7.463a7.454 7.454 0 0 0-6.715 4.184 5.37 5.37 0 0 0-9.163 3.797c0 .4.045.806.136 1.223-2.437.992-3.883 3.05-3.883 5.555 0 3.377 2.76 6.022 6.28 6.022h.403c.068 3.087 2.596 5.576 5.692 5.576a5.678 5.678 0 0 0 4.967-2.908 4.134 4.134 0 0 0 2.708 1.01c2.124 0 3.88-1.609 4.13-3.678h.597c3.522 0 6.28-2.644 6.28-6.022 0-2.608-1.58-4.755-4.138-5.655" fill="#3E3E3E"/><path d="M71.422 29.98a2.405 2.405 0 1 1 1.87-4.43 2.405 2.405 0 0 1-1.87 4.43zm5.472.31l.457-1.084-.133-.115-.998-.867.005-.876 1.126-1.006-.444-1.089-.173.012-1.32.094-.616-.624.084-1.509-1.082-.456-.114.132-.868 1-.877-.007-1.007-1.125-1.088.442.013.174.092 1.321-.623.615-1.509-.084-.457 1.082.133.114.998.868-.005.877-1.125 1.007.443 1.088.174-.013 1.32-.093.615.624-.084 1.508 1.082.457.114-.132.868-1 .877.007 1.006 1.125 1.09-.442-.013-.175-.093-1.319.624-.616 1.508.084zM64.848 37.566a2.405 2.405 0 1 1 .004-4.81 2.405 2.405 0 0 1-.004 4.81zm5.163-1.839v-1.176l-.165-.053-1.258-.41-.335-.812.647-1.365-.83-.83-.157.08-1.18.596-.81-.336-.508-1.42-1.174-.003-.054.167-.412 1.256-.81.335-1.365-.645-.83.831.078.155.598 1.181-.335.81-1.423.507v1.174l.165.055 1.258.411.335.811-.646 1.364.829.833.156-.08 1.18-.599.81.336.509 1.422 1.174.001.054-.166.412-1.258.81-.334 1.365.646.83-.83-.077-.156-.6-1.18.337-.81 1.422-.508z" fill="#FFF"/><path d="M73.795 28.37a1.56 1.56 0 1 1-2.876-1.212 1.56 1.56 0 0 1 2.876 1.212M66.411 35.162a1.56 1.56 0 1 1 0 0" fill="#B8D432"/></g></g></g><rect x="2" y="2" width="96" height="96" rx="48" stroke="#0078D4" stroke-width="4"/></g></svg>