<svg xmlns="http://www.w3.org/2000/svg" xmlns:xlink="http://www.w3.org/1999/xlink" viewBox="0 0 100 100" version="1.1"><!-- Generator: Sketch 51.3 (57544) - http://www.bohemiancoding.com/sketch --><title>customize-an-app</title><desc>Created with Sketch.</desc><defs><filter x="-1.7%" y="-1.7%" width="103.3%" height="106.7%" filterUnits="objectBoundingBox" id="filter-1"><feOffset dx="0" dy="2" in="SourceAlpha" result="shadowOffsetOuter1"></feOffset><feColorMatrix values="0 0 0 0 0   0 0 0 0 0   0 0 0 0 0  0 0 0 0.100288723 0" type="matrix" in="shadowOffsetOuter1" result="shadowMatrixOuter1"></feColorMatrix><feMerge><feMergeNode in="shadowMatrixOuter1"></feMergeNode><feMergeNode in="SourceGraphic"></feMergeNode></feMerge></filter></defs><g id="Badges-FINAL" stroke="none" stroke-width="1" fill="none" fill-rule="evenodd"><g id="Create-a-PowerApp" transform="translate(-577.000000, -504.000000)"><g id="customize-an-app" transform="translate(577.000000, 504.000000)"><rect id="BG" fill="#965596" x="2" y="2" width="96" height="96" rx="48"></rect><g id="Sliders" filter="url(#filter-1)" transform="translate(20.000000, 20.000000)"><path d="M59.4523538,55.7699346 C59.4523538,57.7947152 57.7957152,59.4513538 55.7709346,59.4513538 L4.23106541,59.4513538 C2.20628484,59.4513538 0.549646186,57.7947152 0.549646186,55.7699346 L0.549646186,4.23006541 C0.549646186,2.20528484 2.20628484,0.548646186 4.23106541,0.548646186 L55.7709346,0.548646186 C57.7957152,0.548646186 59.4523538,2.20528484 59.4523538,4.23006541 L59.4523538,55.7699346" id="Fill-81" fill="#30404D"></path><path d="M56.4065991,5.42944223 C56.4065991,6.43410504 55.5912206,7.24948355 54.5865578,7.24948355 C53.5809849,7.24948355 52.7665165,6.43410504 52.7665165,5.42944223 C52.7665165,4.4238694 53.5809849,3.60940091 54.5865578,3.60940091 C55.5912206,3.60940091 56.4065991,4.4238694 56.4065991,5.42944223" id="Fill-242" fill="#445B67"></path><path d="M7.26548355,5.42944223 C7.26548355,6.43410504 6.45010504,7.24948355 5.44544223,7.24948355 C4.4398694,7.24948355 3.62540091,6.43410504 3.62540091,5.42944223 C3.62540091,4.4238694 4.4398694,3.60940091 5.44544223,3.60940091 C6.45010504,3.60940091 7.26548355,4.4238694 7.26548355,5.42944223" id="Fill-243" fill="#445B67"></path><path d="M56.4065991,54.5705578 C56.4065991,55.5752206 55.5912206,56.3905991 54.5865578,56.3905991 C53.5809849,56.3905991 52.7665165,55.5752206 52.7665165,54.5705578 C52.7665165,53.5649849 53.5809849,52.7505165 54.5865578,52.7505165 C55.5912206,52.7505165 56.4065991,53.5649849 56.4065991,54.5705578" id="Fill-244" fill="#445B67"></path><path d="M7.26548355,54.5705578 C7.26548355,55.5752206 6.45010504,56.3905991 5.44544223,56.3905991 C4.4398694,56.3905991 3.62540091,55.5752206 3.62540091,54.5705578 C3.62540091,53.5649849 4.4398694,52.7505165 5.44544223,52.7505165 C6.45010504,52.7505165 7.26548355,53.5649849 7.26548355,54.5705578" id="Fill-245" fill="#445B67"></path><path d="M33.021,24 L32.011,24 L32.011,20.006 C32.011,20.004 32.011,20.002 32.011,20 C32.011,18.896 31.116,18 30.011,18 C28.907,18 28.013,18.895 28.011,20 L28.011,24 L27.011,24 C25.905,24 25.011,24.896 25.011,26 C25.011,27.105 25.905,28 27.011,28 C27.013,28 27.013,28 27.015,28 L28.011,28 L28.011,46 C28.011,47.105 28.907,48 30.011,48 C31.116,48 32.011,47.105 32.011,46 C32.011,45.998 32.011,45.998 32.011,45.996 L32.011,28 L33.015,28 C33.017,28 33.019,28 33.021,28 C34.124,28 35.021,27.105 35.021,26 C35.021,24.896 34.126,24.002 33.021,24" id="Fill-82" fill="#C5CCCD"></path><path d="M17.001,40 L16.001,40 L16.001,20.006 C16.001,20.004 16.001,20.002 16.001,20 C16.001,18.896 15.106,18 14.001,18 C12.897,18 12.003,18.895 12.001,20 L12.001,40 L10.991,40 C9.886,40 8.991,40.896 8.991,42 C8.991,43.105 9.886,44 10.991,44 C10.993,44 10.993,44 10.995,44 L12.001,44 L12.001,46 C12.001,47.105 12.897,48 14.001,48 C15.106,48 16.001,47.105 16.001,46 C16.001,45.998 16.001,45.998 16.001,45.996 L16.001,44 L16.995,44 C16.997,44 16.999,44 17.001,44 C18.104,44 19.001,43.105 19.001,42 C19.001,40.896 18.106,40.002 17.001,40" id="Fill-83" fill="#C5CCCD"></path><path d="M49.001,33 L48.011,33 L48.011,20.006 C48.011,20.004 48.011,20.002 48.011,20 C48.011,18.896 47.116,18 46.011,18 C44.907,18 44.013,18.895 44.011,20 L44.011,33 L42.991,33 C41.886,33 40.991,33.896 40.991,35 C40.991,36.105 41.886,37 42.991,37 C42.993,37 42.993,37 42.995,37 L44.011,37 L44.011,46 C44.011,47.105 44.907,48 46.011,48 C47.116,48 48.011,47.105 48.011,46 C48.011,45.998 48.011,45.998 48.011,45.996 L48.011,37 L48.995,37 C48.997,37 48.999,37 49.001,37 C50.104,37 51.001,36.105 51.001,35 C51.001,33.896 50.106,33.002 49.001,33" id="Fill-84" fill="#C5CCCD"></path><path d="M33.011,13 C33.011,14.656 31.667,16 30.011,16 C28.354,16 27.011,14.656 27.011,13 C27.011,11.344 28.354,10 30.011,10 C31.667,10 33.011,11.344 33.011,13" id="Fill-85" fill="#7CB65A"></path><path d="M49.011,13 C49.011,14.656 47.667,16 46.011,16 C44.354,16 43.011,14.656 43.011,13 C43.011,11.344 44.354,10 46.011,10 C47.667,10 49.011,11.344 49.011,13" id="Fill-86" fill="#58B7DA"></path><path d="M17.001,13 C17.001,14.656 15.657,16 14.001,16 C12.345,16 11.001,14.656 11.001,13 C11.001,11.344 12.345,10 14.001,10 C15.657,10 17.001,11.344 17.001,13" id="Fill-87" fill="#EFB152"></path><path d="M14.001,11 C15.486,11 16.712,12.083 16.95,13.5 C16.978,13.337 17.001,13.171 17.001,13 C17.001,11.344 15.657,10 14.001,10 C12.345,10 11.001,11.344 11.001,13 C11.001,13.171 11.024,13.337 11.052,13.5 C11.29,12.083 12.516,11 14.001,11" id="Fill-88" fill="#CC9547"></path><path d="M30.001,11 C31.486,11 32.712,12.083 32.95,13.5 C32.978,13.337 33.001,13.171 33.001,13 C33.001,11.344 31.657,10 30.001,10 C28.345,10 27.001,11.344 27.001,13 C27.001,13.171 27.024,13.337 27.052,13.5 C27.29,12.083 28.516,11 30.001,11" id="Fill-89" fill="#598844"></path><path d="M46.001,11 C47.486,11 48.712,12.083 48.95,13.5 C48.978,13.337 49.001,13.171 49.001,13 C49.001,11.344 47.657,10 46.001,10 C44.345,10 43.001,11.344 43.001,13 C43.001,13.171 43.024,13.337 43.052,13.5 C43.29,12.083 44.516,11 46.001,11" id="Fill-90" fill="#0093BF"></path><polygon id="Fill-91" fill="#AAB0B1" points="12.001 45 16.001 45 16.001 44 12.001 44"></polygon><polygon id="Fill-92" fill="#AAB0B1" points="28.001 29 32.001 29 32.001 28 28.001 28"></polygon><polygon id="Fill-93" fill="#AAB0B1" points="28.001 24 32.001 24 32.001 23 28.001 23"></polygon><polygon id="Fill-94" fill="#AAB0B1" points="12.001 40 16.001 40 16.001 39 12.001 39"></polygon><polygon id="Fill-95" fill="#AAB0B1" points="44.001 38 48.001 38 48.001 37 44.001 37"></polygon><polygon id="Fill-96" fill="#AAB0B1" points="44.001 33 48.001 33 48.001 32 44.001 32"></polygon></g><g id="PowerApps-Border" stroke="#742774" stroke-width="4"><rect id="Azure-Border" x="2" y="2" width="96" height="96" rx="48"></rect></g></g></g></g></svg>