<svg xmlns="http://www.w3.org/2000/svg" xmlns:xlink="http://www.w3.org/1999/xlink" viewBox="0 0 100 118" version="1.1"><!-- Generator: Sketch 51.3 (57544) - http://www.bohemiancoding.com/sketch --><title>connecting-your-website-and-services-together</title><desc>Created with Sketch.</desc><defs><path d="M42.7425,1.49663266 C44.3745,0.498877554 46.1865,0 48,0 C49.8135,0 51.627,0.498877554 53.256,1.49663266 L90.591,24.3316189 C93.933,26.3773408 96,30.2031485 96,34.3529027 L96,79.6470973 C96,83.7952317 93.933,87.6242789 90.591,89.6683811 L53.256,112.504987 C51.627,113.501122 49.8135,114 48,114 C46.1865,114 44.3745,113.501122 42.7425,112.504987 L5.409,89.6683811 C2.0655,87.6242789 0,83.7952317 0,79.6470973 L0,34.3529027 C0,30.2031485 2.0655,26.3773408 5.409,24.3316189 L42.7425,1.49663266 Z" id="path-1"></path><filter x="-0.9%" y="-1.5%" width="101.9%" height="105.9%" filterUnits="objectBoundingBox" id="filter-3"><feOffset dx="0" dy="2" in="SourceAlpha" result="shadowOffsetOuter1"></feOffset><feColorMatrix values="0 0 0 0 0   0 0 0 0 0   0 0 0 0 0  0 0 0 0.0994961504 0" type="matrix" in="shadowOffsetOuter1" result="shadowMatrixOuter1"></feColorMatrix><feMerge><feMergeNode in="shadowMatrixOuter1"></feMergeNode><feMergeNode in="SourceGraphic"></feMergeNode></feMerge></filter><polygon id="path-4" points="0 0.578681296 49.257148 0.578681296 49.257148 47.8730792 0 47.8730792"></polygon><polygon id="path-6" points="0.648733765 0.474913444 50.8928196 0.474913444 50.8928196 53.5059241 0.648733765 53.5059241"></polygon></defs><g id="Badges-FINAL" stroke="none" stroke-width="1" fill="none" fill-rule="evenodd"><g id="Connecting-Web-&amp;-Services" transform="translate(-578.000000, -196.000000)"><g id="connecting-your-website-and-services-together" transform="translate(578.000000, 196.000000)"><g id="Mask" transform="translate(2.000000, 2.000000)"><mask id="mask-2" fill="white"><use xlink:href="#path-1"></use></mask><use id="Trophy-1" fill="#55A2FF" xlink:href="#path-1"></use><g id="Puzzle" filter="url(#filter-3)" mask="url(#mask-2)"><g transform="translate(-6.500000, 23.000000)"><g id="Group-2674" stroke-width="1" fill="none" transform="translate(8.000000, 19.459019)"><mask id="mask-5" fill="white"><use xlink:href="#path-4"></use></mask><g id="Clip-2673"></g></g><g id="Group-2677" stroke-width="1" fill="none" transform="translate(54.402277, 0.748424)"><mask id="mask-7" fill="white"><use xlink:href="#path-6"></use></mask><g id="Clip-2676"></g></g><g id="Group-2680" stroke-width="1" fill="none" transform="translate(0.000000, 18.710595)"><path d="M16.865604,44.0517768 C16.865604,44.0517768 16.2593807,37.0472783 11.5375749,35.9508374 L6.23349526,38.839005 C6.23349526,38.839005 2.473414,39.511838 1.06263511,35.2368411 C-0.348143787,30.9618443 0.680938962,29.4844557 0.680938962,29.4844557 C0.680938962,29.4844557 2.2249373,27.2683727 5.17971453,29.3272867 C8.13449176,31.3854522 10.1926573,28.4306749 10.1926573,28.4306749 C10.1926573,28.4306749 10.9979613,25.6996764 6.18484772,16.8600427 L17.7547315,12.8514847 C17.7547315,12.8514847 24.5361997,10.9931484 21.3576438,7.68062458 C21.3576438,7.68062458 17.6641722,5.10829192 19.2081706,2.892209 C20.7514205,0.676126077 26.5038059,0.29442993 26.5038059,0.29442993 C26.5038059,0.29442993 31.2263602,1.3901224 29.1674463,4.34489963 C27.1100292,7.29967686 28.5866694,8.32950803 28.5866694,8.32950803 C28.5866694,8.32950803 29.5491424,10.0972851 40.3818288,5.57381154 L42.9796079,12.8694469 C42.9796079,12.8694469 46.0915541,19.4271364 49.1795508,14.9949706 C51.0318997,12.3358207 52.7323186,12.7294917 53.7958289,13.4711797 C54.4956051,13.9584036 54.9873196,14.6843747 55.2754628,15.486685 C55.8113342,16.9723063 56.6712732,19.9906995 55.5366627,21.6185213 C53.9926643,23.8346043 51.2624142,23.0293002 51.2624142,23.0293002 C51.2624142,23.0293002 48.307637,20.9711347 48.464806,25.4699103 C48.6227234,29.9686859 51.9591968,37.7784884 51.9591968,37.7784884 L42.8942875,41.3394889 C42.8942875,41.3394889 36.6277349,42.459131 37.7241758,37.7365767 C37.7241758,37.7365767 41.8412552,31.8270222 37.3424797,31.9849396 C32.8437041,32.1421086 26.8009302,34.516109 29.9794861,37.8278844 C29.9794861,37.8278844 35.1510947,41.4300482 32.3534865,43.8706583 C29.5558783,46.3105199 22.5513798,46.9159948 22.5513798,46.9159948 L18.7905501,47.5880794 L16.865604,44.0517768 Z" id="Fill-2678" fill="#2B4061"></path></g><g id="Group-2683" stroke-width="1" fill="none" transform="translate(53.653853, 0.000000)"><path d="M9.85157755,15.2177015 L0.235079921,19.4043843 L3.5715533,27.2149353 C3.5715533,27.2149353 6.97388797,31.7803206 8.51863473,29.5642376 C10.0618846,27.3481547 9.6143272,24.8409349 11.6066314,25.1320718 C13.5981872,25.4224602 17.06788,26.7419314 16.9346606,33.2330112 C16.8336233,38.1524009 14.1355555,36.8501435 12.8340465,35.9310791 C12.0931069,35.4079308 11.1575771,35.1691836 10.2856634,35.4199056 C9.18173824,35.7379857 8.15789445,36.7745527 9.05675146,39.8146502 C10.6920575,45.3425086 12.3932248,47.6252012 12.3932248,47.6252012 L20.9424701,44.8036434 C20.9424701,44.8036434 25.5692261,42.9864704 26.4867937,46.040788 C26.7240441,46.8326204 26.5691204,47.6873204 26.1806884,48.4170336 C25.4113087,49.8637368 24.2766982,52.9240418 28.2635519,53.1957197 C33.5010218,53.5527178 34.8204929,50.083025 34.8204929,50.083025 C34.8204929,50.083025 37.1031856,48.3818577 32.4464926,44.0409995 C32.4464926,44.0409995 30.2304097,42.4962528 35.5344893,39.6088337 L52.7467402,33.087817 L50.6638767,25.0534873 C50.6638767,25.0534873 49.7680134,20.0397961 46.2317109,21.9654906 C46.2317109,21.9654906 41.6004643,28.612991 38.7122968,23.3096598 C35.8241293,18.0063286 37.8822948,15.050803 37.8822948,15.050803 C37.8822948,15.050803 38.1734317,13.0584988 42.3810704,14.8928855 C46.5894575,16.7280207 47.1702344,12.7434123 47.1702344,12.7434123 C47.1702344,12.7434123 46.1164536,3.23169404 39.849901,4.3520845 C39.849901,4.3520845 25.8828157,10.9389625 22.4138713,9.62023975 C22.4138713,9.62023975 19.6828728,8.8141873 23.7999522,2.90463284 C23.7999522,2.90463284 24.1569504,-2.33208862 15.8314839,1.74233065 C15.8314839,1.74233065 11.0430683,3.89180385 14.7357914,6.46563336 C14.7357914,6.46563336 19.543666,11.6918769 14.3136804,13.5404837 C12.8145874,14.0703678 11.3095071,14.5822897 9.85157755,15.2177015" id="Fill-2681" fill="#FDB82C"></path></g><path d="M34.8000091,36.3730982 C34.8321913,35.7683717 34.7558521,35.1486768 34.5492871,34.5409567 C33.6796187,31.9783535 30.8977273,30.6064926 28.3358726,31.4761611 C26.2223237,32.1938996 24.92306,34.2123986 25.0196067,36.3349285 C24.0698568,35.7339442 22.8678882,35.549832 21.7205545,35.9390123 C19.7080428,36.6223233 18.6303125,38.8084693 19.3136235,40.8209809 C19.4528303,41.232614 19.6586469,41.6023354 19.9093688,41.9286482 C18.6101051,42.9001023 18.0195987,44.6289613 18.5689418,46.247802 C19.2522527,48.2610621 21.4376503,49.3387924 23.4509103,48.6554814 C23.9411279,48.4885829 24.3737169,48.232622 24.7419414,47.9122966 C24.7718784,48.1211068 24.8190291,48.3299171 24.8893809,48.536482 C25.5105727,50.3663783 27.4968895,51.3468135 29.3275342,50.7256217 C30.837105,50.2129514 31.7651505,48.7707387 31.697044,47.254432 C32.3990655,47.736417 33.3106457,47.8950828 34.1788173,47.6002038 C35.6427343,47.1032504 36.4270825,45.5135982 35.9301291,44.0496813 C35.9226448,44.0287254 35.9129153,44.0077695 35.9054311,43.9868137 C36.1344488,43.953883 36.3649633,43.9022418 36.5932326,43.8244057 C38.6057442,43.1410947 39.6834745,40.9549488 39.0001636,38.9424371 C38.3939403,37.155201 36.6029621,36.1081561 34.8000091,36.3730982" id="Fill-2684" fill="#FFFFFF"></path><path d="M27.7732824,45.2189438 C27.1131726,45.7308657 26.1641712,45.609621 25.6522493,44.9502596 C25.1403274,44.2901498 25.2615721,43.3404 25.9209335,42.8292265 C26.5810433,42.3180531 27.5307931,42.4378009 28.0419666,43.0979107 C28.55314,43.7580205 28.4333922,44.7070219 27.7732824,45.2189438 Z M29.7902846,42.5373412 L29.0396155,41.5688808 L28.24928,41.9386022 C28.1714439,41.8869609 28.092111,41.8390618 28.0090359,41.7964017 L27.943923,40.8758404 L26.7284828,40.7216651 L26.4291132,41.5464281 C26.2958938,41.5681324 26.1649196,41.6018115 26.0354423,41.6467169 L25.3147102,41.021783 L24.3469982,41.7724521 L24.7518955,42.6383785 C24.6942668,42.7244472 24.6418772,42.8135096 24.5969717,42.9055658 L23.6823978,42.9931314 L23.5282225,44.2085716 L24.3791804,44.4937211 C24.4016331,44.6127205 24.4330669,44.7317199 24.4734818,44.8477256 L23.876988,45.5714514 L24.6269087,46.5399118 L25.4651434,46.1222913 C25.5789038,46.1978821 25.6994,46.2637434 25.8221415,46.3183784 L25.9074618,47.2030153 L27.1229021,47.3564422 L27.4192779,46.4703084 C27.5098372,46.4493525 27.6003965,46.4231577 27.6894589,46.3909755 L28.3495688,46.935828 L29.3172808,46.1851589 L28.936333,45.4202698 C29.0059364,45.3154905 29.0673072,45.2054722 29.1211937,45.0932086 L30.0095728,45.0295926 L30.1629997,43.8149007 L29.3060544,43.5035564 C29.2843501,43.3995255 29.2544131,43.2977398 29.2199857,43.1967026 L29.7902846,42.5373412 Z" id="Fill-2686" fill="#2B4061"></path><path d="M30.5338437,39.3126824 C29.7427597,39.5806181 28.8843176,39.1577587 28.6156334,38.3666747 C28.3476977,37.5770876 28.7713056,36.717897 29.5616411,36.4499613 C30.3527251,36.1812771 31.2104188,36.604885 31.4791029,37.3952206 C31.7470387,38.1855561 31.3241792,39.0447467 30.5338437,39.3126824 Z M33.3149866,37.4356355 L32.9205672,36.2755785 L32.0523956,36.3668862 C31.9962638,36.2927923 31.9363899,36.221692 31.8727739,36.1535855 L32.1100242,35.2629611 L31.0120865,34.7203538 L30.4604981,35.4021679 C30.3280271,35.3797152 30.191814,35.3684889 30.0556008,35.3684889 L29.5781065,34.5437258 L28.4180495,34.9366483 L28.5183383,35.887895 C28.4360117,35.9507626 28.3581756,36.0181207 28.2848301,36.0899694 L27.3919605,35.8751718 L26.8501016,36.973858 L27.5611043,37.5202073 C27.5438905,37.641452 27.5349094,37.7626967 27.5349094,37.8861866 L26.7348444,38.3756558 L27.1285153,39.5357127 L28.0565608,39.414468 C28.1403843,39.5222411 28.231692,39.6232783 28.3304839,39.7160828 L28.1224221,40.5797639 L29.2211083,41.1216228 L29.7914072,40.3806832 C29.8842118,40.3896643 29.9770163,40.3941548 30.0713177,40.3934064 L30.5181268,41.1231196 L31.6774353,40.7301971 L31.567417,39.8822329 C31.6677057,39.8058937 31.7620072,39.7228186 31.8480759,39.6337562 L32.7087633,39.8627739 L33.2513705,38.7648362 L32.5418648,38.1907951 C32.554588,38.0852673 32.5605754,37.9789911 32.5598269,37.8719665 L33.3149866,37.4356355 Z" id="Fill-2688" fill="#2B4061"></path><path d="M70.1586188,24.1440027 L74.2292959,35.2820459 C74.5189359,36.0723815 75.3945918,36.479524 76.1856758,36.1906324 L90.6362429,30.9082571 C91.4273268,30.6193655 91.8344694,29.7429612 91.5448294,28.9526257 L87.4741522,17.8145824 L70.1586188,24.1440027 Z" id="Fill-2690" fill="#CFCFCF"></path><path d="M87.0530141,16.6619349 C86.7633741,15.8708509 85.8877183,15.4637084 85.0966343,15.7533484 L70.6460672,21.0357237 C69.8549832,21.3238669 69.4485891,22.2002712 69.7367323,22.9913551 L70.1588433,24.1439278 L87.4736283,17.8145076 L87.0530141,16.6619349 Z" id="Fill-2692" fill="#EFEFEF"></path><path d="M71.7293359,22.1274495 C71.8580647,22.4784603 71.6769462,22.8676407 71.3259354,22.9956212 C70.9741762,23.1243501 70.5857443,22.9439799 70.4570154,22.5922207 C70.3282865,22.2404615 70.5086566,21.8520296 70.8604158,21.7233007 C71.212175,21.5945718 71.600607,21.7756903 71.7293359,22.1274495" id="Fill-2694" fill="#D83A18"></path><path d="M73.6376669,21.4294695 C73.7663958,21.7812287 73.5860257,22.1696606 73.2342665,22.2983895 C72.8825073,22.42637 72.4940753,22.2459999 72.3653464,21.8942407 C72.2373659,21.5432299 72.4177361,21.1540495 72.7694953,21.026069 C73.1212545,20.8973401 73.5096864,21.0777103 73.6376669,21.4294695" id="Fill-2696" fill="#FDB82C"></path><path d="M75.5467464,20.7314894 C75.6754753,21.0832486 75.4943567,21.4716806 75.1433459,21.6004095 C74.7915867,21.7291384 74.4031548,21.5487682 74.2744259,21.197009 C74.145697,20.8452498 74.3268156,20.4568179 74.6778263,20.328089 C75.0295855,20.1993601 75.4180175,20.3804787 75.5467464,20.7314894" id="Fill-2698" fill="#0DB01C"></path><path d="M85.1322593,17.9489994 L77.4541793,20.7555887 C77.1151433,20.879827 76.7386861,20.7054443 76.6151962,20.3656599 L76.5994793,20.3222513 C76.475241,19.9832153 76.6496237,19.6075065 76.9894081,19.4832682 L84.6674881,16.6766789 C85.0065241,16.5531889 85.3829812,16.7268233 85.5064712,17.0666077 L85.5221881,17.1100163 C85.6464264,17.4490522 85.4720437,17.8255094 85.1322593,17.9489994" id="Fill-2700" fill="#CFCFCF"></path><path d="M86.5903385,22.3401516 L73.8701273,26.9893603 C73.106735,27.2685224 72.262513,26.8763483 71.9840993,26.1137045 L71.9489234,26.0164094 C71.6697613,25.2537655 72.0619354,24.4095434 72.8245793,24.1311298 L85.5455389,19.4811726 C86.3074343,19.2027589 87.1516564,19.594933 87.4308185,20.3575769 L87.4659944,20.4541236 C87.7451565,21.2175159 87.3529824,22.0617379 86.5903385,22.3401516" id="Fill-2702" fill="#F4F4F4"></path><path d="M87.9307656,26.0077277 L75.2105544,30.6569364 C74.4471621,30.9360985 73.60294,30.5439244 73.3245264,29.7812805 L73.2893505,29.6839854 C73.0101884,28.9213416 73.4031109,28.0771195 74.1650063,27.7987059 L86.8859659,23.1487487 C87.6486098,22.870335 88.4928319,23.2625091 88.7712455,24.025153 L88.8071699,24.1216996 C89.0855835,24.8843435 88.6934095,25.7285656 87.9307656,26.0077277" id="Fill-2704" fill="#F4F4F4"></path><path d="M89.2711927,29.6753037 L76.5509815,34.3245125 C75.7875892,34.6036746 74.9441155,34.2115005 74.6649534,33.4488566 L74.6305259,33.3515615 C74.3506154,32.5889177 74.7435379,31.7446956 75.5054334,31.4662819 L88.226393,26.8163247 C88.9890369,26.5379111 89.8332589,26.9300852 90.1116726,27.692729 L90.1475969,27.7892757 C90.4260106,28.5519196 90.0338365,29.3961416 89.2711927,29.6753037" id="Fill-2706" fill="#F4F4F4"></path></g></g></g><g id="Azure-Hex-Border" stroke="#0078D4" stroke-width="4"><path d="M45.5620172,3.25834249 L6.67338401,26.8942953 C3.79673288,28.6432593 2,31.9508238 2,35.5582677 L2,82.4417323 C2,86.0486597 3.79764663,89.3586805 6.67318764,91.1055853 L45.560618,114.742485 C46.9289662,115.572418 48.4546283,116 50,116 C51.5458817,116 53.0723633,115.572188 54.4362178,114.743457 L93.3268764,91.1055464 C96.2016145,89.3583456 98,86.0476286 98,82.4417323 L98,35.5582677 C98,31.9518547 96.202529,28.6435953 93.3268966,26.8944659 L54.4351916,3.25759524 C53.0721095,2.42798656 51.5462432,2 50,2 C48.4543284,2 46.9293388,2.42772325 45.5620146,3.25834407 Z M45.5620146,3.25834407 C45.5619597,3.25837737 45.5619049,3.25841067 45.5618501,3.25844398 L45.5621963,3.25823359 L45.5620172,3.25834249 Z"></path></g></g></g></g></svg>