<svg xmlns="http://www.w3.org/2000/svg" xmlns:xlink="http://www.w3.org/1999/xlink" viewBox="0 0 100 100" version="1.1"><!-- Generator: Sketch 52.4 (67378) - http://www.bohemiancoding.com/sketch --><title>Get Started with Windows Development/writing-cloud-apps</title><desc>Created with Sketch.</desc><defs><rect id="path-1" x="0" y="0" width="96" height="96" rx="48"></rect><filter x="-5.2%" y="-8.7%" width="110.4%" height="117.4%" filterUnits="objectBoundingBox" id="filter-3"><feOffset dx="0" dy="2" in="SourceAlpha" result="shadowOffsetOuter1"></feOffset><feColorMatrix values="0 0 0 0 0   0 0 0 0 0   0 0 0 0 0  0 0 0 0.101590806 0" type="matrix" in="shadowOffsetOuter1" result="shadowMatrixOuter1"></feColorMatrix><feMerge><feMergeNode in="shadowMatrixOuter1"></feMergeNode><feMergeNode in="SourceGraphic"></feMergeNode></feMerge></filter></defs><g id="Badges" stroke="none" stroke-width="1" fill="none" fill-rule="evenodd"><g id="Get-Started-with-Windows-Development" transform="translate(-579.000000, -927.000000)"><g id="Get-Started-with-Windows-Development/writing-cloud-apps" transform="translate(579.000000, 927.000000)"><g id="Mask" transform="translate(2.000000, 2.000000)"><mask id="mask-2" fill="white"><use xlink:href="#path-1"></use></mask><use id="BG" fill="#55A2FF" xlink:href="#path-1"></use><g id="Computer" filter="url(#filter-3)" mask="url(#mask-2)"><g transform="translate(9.500000, 25.000000)"><path d="M0,38.3910304 L0,40.7904698 C0,43.4298532 2.15949546,45.5893486 4.7988788,45.5893486 L71.9831821,45.5893486 C74.6225654,45.5893486 76.7820609,43.4298532 76.7820609,40.7904698 L76.7820609,38.3910304 L0,38.3910304" id="Fill-1415" fill="#E1E4E1"></path><path d="M11.997197,0 C9.35781367,0 7.19831821,2.15949546 7.19831821,4.7988788 L7.19831821,38.3910304 L69.5837427,38.3910304 L69.5837427,4.7988788 C69.5837427,2.15949546 67.4242472,0 64.7848638,0 L11.997197,0 Z M64.7848638,2.3994394 C66.106955,2.3994394 67.1843032,3.47558797 67.1843032,4.7988788 L67.1843032,35.991591 L9.59775761,35.991591 L9.59775761,4.7988788 C9.59775761,3.47558797 10.6739062,2.3994394 11.997197,2.3994394 L64.7848638,2.3994394 Z" id="Fill-1416" fill="#182A37"></path><path d="M9.59775761,4.7988788 C9.59775761,3.47558797 10.6739062,2.3994394 11.997197,2.3994394 L64.7848638,2.3994394 C66.106955,2.3994394 67.1843032,3.47558797 67.1843032,4.7988788 L67.1843032,35.991591 L9.59775761,35.991591 L9.59775761,4.7988788" id="Fill-1417" fill="#30404D"></path><path d="M11.997197,2.3994394 L37.6580017,2.3994394 L25.9271425,35.991591 L9.59775761,35.991591 L9.59775761,4.7988788 C9.59775761,3.47558797 10.6739062,2.3994394 11.997197,2.3994394" id="Fill-1418" fill="#384B58"></path><path d="M11.997197,0 L38.3910304,0 L37.6580017,2.3994394 L11.997197,2.3994394 C10.6739062,2.3994394 9.59775761,3.47558797 9.59775761,4.7988788 L9.59775761,35.991591 L25.9271425,35.991591 L25.1941137,38.3910304 L7.19831821,38.3910304 L7.19831821,4.7988788 C7.19831821,2.15949546 9.35781367,0 11.997197,0" id="Fill-1419" fill="#30404D"></path><path d="M35.991591,43.1899092 L0.670643313,43.1899092 C1.5044485,44.6151762 3.03649056,45.5893486 4.7988788,45.5893486 L71.9831821,45.5893486 C74.6225654,45.5893486 76.7820609,43.4298532 76.7820609,40.7904698 L76.7820609,38.3910304 L38.3910304,38.3910304 L38.3910304,40.7904698 C38.3910304,42.1161601 37.3172813,43.1899092 35.991591,43.1899092" id="Fill-1420" fill="#CDD6D8"></path><path d="M33.5921516,40.7904698 L43.1899092,40.7904698 C44.5143998,40.7904698 45.5893486,39.715521 45.5893486,38.3910304 L31.1927122,38.3910304 C31.1927122,39.715521 32.2664614,40.7904698 33.5921516,40.7904698" id="Fill-1421" fill="#AAB0B1"></path></g></g><path d="M61.6597495,42.8446326 C61.1348734,42.8446326 60.6262658,42.9165569 60.1382081,43.0381432 C60.2349634,42.598035 60.2889066,42.1442269 60.2889066,41.6758627 C60.2889066,38.1926716 57.466734,35.3704991 53.9843992,35.3704991 C53.0254085,35.3704991 52.120361,35.5905532 51.3069315,35.9732932 C50.6013883,33.2624321 48.1439747,31.2579703 45.2122032,31.2579703 C41.7298683,31.2579703 38.9068395,34.0818553 38.9068395,37.563334 C38.9068395,38.1027662 38.9821888,38.6233612 39.1089126,39.1225501 C38.6773668,39.0523383 38.2381148,39.0069574 37.7868754,39.0069574 C33.2445134,39.0069574 29.5626742,42.6879404 29.5626742,47.2303025 C29.5626742,51.7726645 33.2445134,55.45536 37.7868754,55.45536 L61.6597495,55.45536 C65.1420844,55.45536 67.9651132,52.6323312 67.9651132,49.1499963 C67.9651132,45.6676614 65.1420844,42.8446326 61.6597495,42.8446326" id="Fill-3808" fill="#FFFFFF" mask="url(#mask-2)"></path><path d="M45.0125213,47.7516352 L44.9987288,49.9558783 L39,46.9516003 L39,44.8764002 L44.9987288,42 L44.9987288,44.181393 L41.4084712,45.9285788 L45.0125213,47.7516352 Z" id="Path-26" fill="#314666" fill-rule="nonzero" mask="url(#mask-2)"></path><path d="M58.0125213,47.7516352 L57.9987288,49.9558783 L52,46.9516003 L52,44.8764002 L57.9987288,42 L57.9987288,44.181393 L54.4084712,45.9285788 L58.0125213,47.7516352 Z" id="Path-26" fill="#314666" fill-rule="nonzero" mask="url(#mask-2)" transform="translate(55.006261, 45.977939) rotate(-180.000000) translate(-55.006261, -45.977939) "></path><polygon id="Path-28" fill="#314666" fill-rule="nonzero" mask="url(#mask-2)" points="48.7760893 41 50.7721888 41 48.1117114 51.164279 46 51.164279"></polygon></g><g id="Azure-Border" stroke="#0078D4" stroke-width="4"><rect x="2" y="2" width="96" height="96" rx="48"></rect></g></g></g></g></svg>