<svg xmlns="http://www.w3.org/2000/svg" xmlns:xlink="http://www.w3.org/1999/xlink" viewBox="0 0 100 118" version="1.1"><!-- Generator: Sketch 51.3 (57544) - http://www.bohemiancoding.com/sketch --><title>secure-your-web-data</title><desc>Created with Sketch.</desc><defs><path d="M42.7425,1.49663266 C44.3745,0.498877554 46.1865,0 48,0 C49.8135,0 51.627,0.498877554 53.256,1.49663266 L90.591,24.3316189 C93.933,26.3773408 96,30.2031485 96,34.3529027 L96,79.6470973 C96,83.7952317 93.933,87.6242789 90.591,89.6683811 L53.256,112.504987 C51.627,113.501122 49.8135,114 48,114 C46.1865,114 44.3745,113.501122 42.7425,112.504987 L5.409,89.6683811 C2.0655,87.6242789 0,83.7952317 0,79.6470973 L0,34.3529027 C0,30.2031485 2.0655,26.3773408 5.409,24.3316189 L42.7425,1.49663266 Z" id="path-1"></path><filter x="-2.7%" y="-1.4%" width="105.4%" height="105.6%" filterUnits="objectBoundingBox" id="filter-3"><feOffset dx="0" dy="1" in="SourceAlpha" result="shadowOffsetOuter1"></feOffset><feColorMatrix values="0 0 0 0 0   0 0 0 0 0   0 0 0 0 0  0 0 0 0.101873868 0" type="matrix" in="shadowOffsetOuter1" result="shadowMatrixOuter1"></feColorMatrix><feMerge><feMergeNode in="shadowMatrixOuter1"></feMergeNode><feMergeNode in="SourceGraphic"></feMergeNode></feMerge></filter><filter x="-2.3%" y="-1.5%" width="104.5%" height="106.1%" filterUnits="objectBoundingBox" id="filter-4"><feOffset dx="0" dy="2" in="SourceAlpha" result="shadowOffsetOuter1"></feOffset><feColorMatrix values="0 0 0 0 0   0 0 0 0 0   0 0 0 0 0  0 0 0 0.100005661 0" type="matrix" in="shadowOffsetOuter1" result="shadowMatrixOuter1"></feColorMatrix><feMerge><feMergeNode in="shadowMatrixOuter1"></feMergeNode><feMergeNode in="SourceGraphic"></feMergeNode></feMerge></filter></defs><g id="Badges-FINAL" stroke="none" stroke-width="1" fill="none" fill-rule="evenodd"><g id="Secure-your-web-data" transform="translate(-577.000000, -118.000000)"><g id="secure-your-web-data" transform="translate(577.000000, 118.000000)"><g id="Mask" transform="translate(2.000000, 2.000000)"><mask id="mask-2" fill="white"><use xlink:href="#path-1"></use></mask><use id="Trophy-1" fill="#55A2FF" xlink:href="#path-1"></use><g id="Handle" mask="url(#mask-2)"><g transform="translate(5.000000, 45.000000)"><path d="M55.3038023,15.8414984 L55.3038023,7.92074918 C55.3038023,6.46465146 54.1226711,5.28049945 52.6702879,5.28049945 L31.6021728,5.28049945 C30.1484728,5.28049945 28.9686584,6.46465146 28.9686584,7.92074918 L28.9686584,15.8414984 L23.7016296,15.8414984 L23.7016296,7.92074918 C23.7016296,3.55245601 27.2450232,0 31.6021728,0 L52.6702879,0 C57.0274375,0 60.5708311,3.55245601 60.5708311,7.92074918 L60.5708311,15.8414984 L55.3038023,15.8414984 Z" id="Fill-616" fill="#30404D"></path><path d="M28.9686584,5.28049945 C27.5136417,5.28049945 26.335144,6.46201121 26.335144,7.92074918 L26.335144,11.8811238 C26.335144,12.6098327 25.7452367,13.2012486 25.0183868,13.2012486 L23.7016296,13.2012486 L23.7016296,15.8414984 L28.9686584,15.8414984 L28.9686584,7.92074918 C28.9686584,6.46465146 30.1497896,5.28049945 31.6021728,5.28049945 L28.9686584,5.28049945" id="Fill-617" fill="#182A37"></path><path d="M55.3038023,5.28049945 C56.758819,5.28049945 57.9373167,6.46201121 57.9373167,7.92074918 L57.9373167,11.8811238 C57.9373167,12.6098327 58.5272239,13.2012486 59.2540739,13.2012486 L60.5708311,13.2012486 L60.5708311,15.8414984 L55.3038023,15.8414984 L55.3038023,7.92074918 C55.3038023,6.46465146 54.1226711,5.28049945 52.6702879,5.28049945 L55.3038023,5.28049945" id="Fill-618" fill="#182A37"></path></g></g><g id="Face" mask="url(#mask-2)"><g transform="translate(10.000000, 60.000000)"><path d="M0,52.4069958 L0,4.19255966 C0,1.88665185 1.85469404,0 4.12154232,0 L70.6270118,0 C72.8938601,0 74.7485541,1.88665185 74.7485541,4.19255966 L74.7485541,52.4069958 C74.7485541,54.7129036 72.8938601,56.5995554 70.6270118,56.5995554 L4.12154232,56.5995554 C1.85469404,56.5995554 0,54.7129036 0,52.4069958 Z" id="Fill-1456" fill="#30404D"></path><path d="M3.09115674,51.3588559 L3.09115674,11.5295391 C3.09115674,10.3765852 4.01850376,9.43325924 5.1519279,9.43325924 L69.5966262,9.43325924 C70.7300503,9.43325924 71.6573974,10.3765852 71.6573974,11.5295391 L71.6573974,51.3588559 C71.6573974,52.5118098 70.7300503,53.4551357 69.5966262,53.4551357 L5.1519279,53.4551357 C4.01850376,53.4551357 3.09115674,52.5118098 3.09115674,51.3588559 Z" id="Fill-1457" fill="#E1E4E1"></path><g id="Data" filter="url(#filter-3)" stroke-width="1" fill="none" transform="translate(9.710998, 13.844770)"><path d="M3.90283643,0.495922172 C1.86650365,0.495922172 0.209080523,2.39512041 0.209080523,4.72903388 C0.209080523,7.06084048 1.86650365,8.95793186 3.90283643,8.95793186 C5.93916921,8.95793186 7.5944179,7.06084048 7.5944179,4.72903388 C7.5944179,2.39512041 5.93699478,0.495922172 3.90283643,0.495922172 Z M3.90283643,7.87965228 C2.48064283,7.87965228 1.32417665,6.4657879 1.32417665,4.73119476 C1.32417665,2.99449476 2.48064283,1.57852351 3.90283643,1.57852351 C5.32285559,1.57852351 6.47932178,2.9923879 6.47932178,4.73119476 C6.47932178,6.4657879 5.32285559,7.87965228 3.90283643,7.87965228 Z" id="Fill-1" stroke="#30404D" fill="#30404D"></path><path d="M12.9390179,0.495922172 C12.6319315,0.495922172 12.3814698,0.738599904 12.3814698,1.0361424 L12.3814698,8.41771163 C12.3814698,8.71525413 12.6319315,8.95793186 12.9390179,8.95793186 C13.2461042,8.95793186 13.4965659,8.71525413 13.4965659,8.41771163 L13.4965659,1.0361424 C13.4965659,0.738599904 13.2482842,0.495922172 12.9390179,0.495922172 Z" id="Fill-2" stroke="#30404D" fill="#30404D"></path><path d="M21.9751993,0.495922172 C19.9388665,0.495922172 18.2814434,2.39512041 18.2814434,4.72903388 C18.2814434,7.06084048 19.9366921,8.95793186 21.9751993,8.95793186 C24.0115321,8.95793186 25.6689552,7.06084048 25.6689552,4.72903388 C25.6689552,2.39512041 24.0115321,0.495922172 21.9751993,0.495922172 Z M21.9751993,7.87965228 C20.5551801,7.87965228 19.3965395,6.4657879 19.3965395,4.73119476 C19.3965395,2.99449476 20.5530057,1.57852351 21.9751993,1.57852351 C23.3973929,1.57852351 24.5538591,2.9923879 24.5538591,4.73119476 C24.5538591,6.4657879 23.3973929,7.87965228 21.9751993,7.87965228 Z" id="Fill-3" stroke="#30404D" fill="#30404D"></path><path d="M31.0136109,8.96009274 C31.3206972,8.96009274 31.571159,8.71741501 31.571159,8.41987251 L31.571159,1.03830328 C31.571159,0.740760784 31.3206972,0.498083053 31.0136109,0.498083053 C30.7065246,0.498083053 30.4560629,0.740760784 30.4560629,1.03830328 L30.4560629,8.41987251 C30.4560629,8.71741501 30.7043446,8.96009274 31.0136109,8.96009274 Z" id="Fill-4" stroke="#30404D" fill="#30404D"></path><path d="M36.9135845,0.495922172 C36.6064982,0.495922172 36.3560364,0.738599904 36.3560364,1.0361424 L36.3560364,8.41771163 C36.3560364,8.71525413 36.6064982,8.95793186 36.9135845,8.95793186 C37.2206708,8.95793186 37.4711326,8.71525413 37.4711326,8.41771163 L37.4711326,1.0361424 C37.4711326,0.738599904 37.2228508,0.495922172 36.9135845,0.495922172 Z" id="Fill-5" stroke="#30404D" fill="#30404D"></path><path d="M42.8157883,0.495922172 C42.508702,0.495922172 42.2582402,0.738599904 42.2582402,1.0361424 L42.2582402,8.41771163 C42.2582402,8.71525413 42.508702,8.95793186 42.8157883,8.95793186 C43.1228746,8.95793186 43.3733363,8.71525413 43.3733363,8.41771163 L43.3733363,1.0361424 C43.3733363,0.738599904 43.1250546,0.495922172 42.8157883,0.495922172 Z" id="Fill-6" stroke="#30404D" fill="#30404D"></path><path d="M51.8541999,8.96009274 C53.8905327,8.96009274 55.5479558,7.06300136 55.5479558,4.73119476 C55.5479558,2.39728129 53.8927071,0.498083053 51.8541999,0.498083053 C49.8178671,0.498083053 48.160444,2.39728129 48.160444,4.73119476 C48.158264,7.0608945 49.8178671,8.96009274 51.8541999,8.96009274 Z M51.8541999,1.57636263 C53.2742191,1.57636263 54.4328597,2.99022702 54.4328597,4.72903388 C54.4328597,6.46573387 53.2763935,7.8774914 51.8541999,7.8774914 C50.4320063,7.8774914 49.2755401,6.46362701 49.2755401,4.72903388 C49.2733601,2.990173 50.4320063,1.57636263 51.8541999,1.57636263 Z" id="Fill-7" stroke="#30404D" fill="#30404D"></path><path d="M51.8541999,13.5941019 C49.8178671,13.5941019 48.160444,15.4933001 48.160444,17.8272136 C48.160444,20.1590202 49.8178671,22.0582184 51.8541999,22.0582184 C53.8905327,22.0582184 55.5479558,20.1590202 55.5479558,17.8272136 C55.5457758,15.4933001 53.8883583,13.5941019 51.8541999,13.5941019 Z M51.8541999,20.977832 C50.4320063,20.977832 49.2755401,19.5639676 49.2755401,17.8272676 C49.2755401,16.0905676 50.4320063,14.6745964 51.8541999,14.6745964 C53.2742191,14.6745964 54.4328597,16.0884608 54.4328597,17.8272676 C54.4306797,19.5639676 53.2742191,20.977832 51.8541999,20.977832 Z" id="Fill-8" stroke="#30404D" fill="#30404D"></path><path d="M42.8157883,13.5941019 C42.508702,13.5941019 42.2582402,13.8367796 42.2582402,14.1343221 L42.2582402,21.5158913 C42.2582402,21.8134338 42.508702,22.0561116 42.8157883,22.0561116 C43.1228746,22.0561116 43.3733363,21.8134338 43.3733363,21.5158913 L43.3733363,14.1343221 C43.3733363,13.8367796 43.1250546,13.5941019 42.8157883,13.5941019 Z" id="Fill-9" stroke="#30404D" fill="#30404D"></path><path d="M33.7796068,13.5941019 C31.7432741,13.5941019 30.0858509,15.4933001 30.0858509,17.8272136 C30.0858509,20.1590202 31.7432741,22.0582184 33.7796068,22.0582184 C35.8159396,22.0582184 37.4733628,20.1590202 37.4733628,17.8272136 C37.4711827,15.4933001 35.8159396,13.5941019 33.7796068,13.5941019 Z M33.7796068,20.977832 C32.3574133,20.977832 31.2009471,19.5639676 31.2009471,17.8272676 C31.2009471,16.0905676 32.3574133,14.6745964 33.7796068,14.6745964 C35.199626,14.6745964 36.3582666,16.0884608 36.3582666,17.8272676 C36.3560866,19.5639676 35.199626,20.977832 33.7796068,20.977832 Z" id="Fill-10" stroke="#30404D" fill="#30404D"></path><path d="M25.2987433,21.5180522 L25.2987433,14.136483 C25.2987433,13.8389405 25.0482815,13.5962628 24.7411952,13.5962628 C24.4341089,13.5962628 24.1836472,13.8389405 24.1836472,14.136483 L24.1836472,21.5180522 C24.1836472,21.8155947 24.4341089,22.0582725 24.7411952,22.0582725 C25.0504616,22.0582725 25.2987433,21.8155947 25.2987433,21.5180522 Z" id="Fill-11" stroke="#30404D" fill="#30404D"></path><path d="M18.8412216,22.0582725 C19.148308,22.0582725 19.3987697,21.8155947 19.3987697,21.5180522 L19.3987697,14.136483 C19.3987697,13.8389405 19.148308,13.5962628 18.8412216,13.5962628 C18.5341353,13.5962628 18.2836736,13.8389405 18.2836736,14.136483 L18.2836736,21.5180522 C18.2836736,21.8155947 18.5319553,22.0582725 18.8412216,22.0582725 Z" id="Fill-12" stroke="#30404D" fill="#30404D"></path><path d="M12.9390179,13.5941019 C12.6319315,13.5941019 12.3814698,13.8367796 12.3814698,14.1343221 L12.3814698,21.5158913 C12.3814698,21.8134338 12.6319315,22.0561116 12.9390179,22.0561116 C13.2461042,22.0561116 13.4965659,21.8134338 13.4965659,21.5158913 L13.4965659,14.1343221 C13.4965659,13.8367796 13.2482842,13.5941019 12.9390179,13.5941019 Z" id="Fill-13" stroke="#30404D" fill="#30404D"></path><path d="M3.90283643,13.5941019 C1.86650365,13.5941019 0.209080523,15.4933001 0.209080523,17.8272136 C0.209080523,20.1590202 1.86650365,22.0582184 3.90283643,22.0582184 C5.93916921,22.0582184 7.5944179,20.1590202 7.5944179,17.8272136 C7.5944179,15.4933001 5.93699478,13.5941019 3.90283643,13.5941019 Z M3.90283643,20.977832 C2.48064283,20.977832 1.32417665,19.5639676 1.32417665,17.8272676 C1.32417665,16.0905676 2.48064283,14.6745964 3.90283643,14.6745964 C5.32285559,14.6745964 6.47932178,16.0884608 6.47932178,17.8272676 C6.47932178,19.5639676 5.32285559,20.977832 3.90283643,20.977832 Z" id="Fill-14" stroke="#30404D" fill="#30404D"></path><path d="M3.90283643,26.6966034 C1.86650365,26.6966034 0.209080523,28.5958016 0.209080523,30.9276082 C0.209080523,33.2594148 1.86650365,35.158613 3.90283643,35.158613 C5.93916921,35.158613 7.5944179,33.2594148 7.5944179,30.9276082 C7.5944179,28.5958016 5.93699478,26.6966034 3.90283643,26.6966034 Z M3.90283643,34.0781726 C2.48064283,34.0781726 1.32417665,32.6643082 1.32417665,30.9276082 C1.32417665,29.1909082 2.48064283,27.7770438 3.90283643,27.7770438 C5.32285559,27.7770438 6.47932178,29.1909082 6.47932178,30.9276082 C6.47932178,32.6643082 5.32285559,34.0781726 3.90283643,34.0781726 Z" id="Fill-15" stroke="#30404D" fill="#30404D"></path><path d="M12.9390179,26.6966034 C12.6319315,26.6966034 12.3814698,26.9392811 12.3814698,27.2368236 L12.3814698,34.6183928 C12.3814698,34.9159353 12.6319315,35.158613 12.9390179,35.158613 C13.2461042,35.158613 13.4965659,34.9159353 13.4965659,34.6183928 L13.4965659,27.2368236 C13.4965659,26.9392811 13.2482842,26.6966034 12.9390179,26.6966034 Z" id="Fill-16" stroke="#30404D" fill="#30404D"></path><path d="M21.9751993,26.6966034 C19.9388665,26.6966034 18.2814434,28.5958016 18.2814434,30.9276082 C18.2814434,33.2594148 19.9366921,35.158613 21.9751993,35.158613 C24.0115321,35.158613 25.6689552,33.2594148 25.6689552,30.9276082 C25.6689552,28.5958016 24.0115321,26.6966034 21.9751993,26.6966034 Z M21.9751993,34.0781726 C20.5551801,34.0781726 19.3965395,32.6643082 19.3965395,30.9276082 C19.3965395,29.1909082 20.5530057,27.7770438 21.9751993,27.7770438 C23.3973929,27.7770438 24.5538591,29.1909082 24.5538591,30.9276082 C24.5538591,32.6643082 23.3973929,34.0781726 21.9751993,34.0781726 Z" id="Fill-17" stroke="#30404D" fill="#30404D"></path><path d="M31.0136109,26.6966034 C30.7065246,26.6966034 30.4560629,26.9392811 30.4560629,27.2368236 L30.4560629,34.6183928 C30.4560629,34.9159353 30.7065246,35.158613 31.0136109,35.158613 C31.3206972,35.158613 31.571159,34.9159353 31.571159,34.6183928 L31.571159,27.2368236 C31.571159,26.9392811 31.3206972,26.6966034 31.0136109,26.6966034 Z" id="Fill-18" stroke="#30404D" fill="#30404D"></path><path d="M36.9135845,26.6966034 C36.6064982,26.6966034 36.3560364,26.9392811 36.3560364,27.2368236 L36.3560364,34.6183928 C36.3560364,34.9159353 36.6064982,35.158613 36.9135845,35.158613 C37.2206708,35.158613 37.4711326,34.9159353 37.4711326,34.6183928 L37.4711326,27.2368236 C37.4711326,26.9392811 37.2228508,26.6966034 36.9135845,26.6966034 Z" id="Fill-19" stroke="#30404D" fill="#30404D"></path><path d="M42.8157883,26.6966034 C42.508702,26.6966034 42.2582402,26.9392811 42.2582402,27.2368236 L42.2582402,34.6183928 C42.2582402,34.9159353 42.508702,35.158613 42.8157883,35.158613 C43.1228746,35.158613 43.3733363,34.9159353 43.3733363,34.6183928 L43.3733363,27.2368236 C43.3733363,26.9392811 43.1250546,26.6966034 42.8157883,26.6966034 Z" id="Fill-20" stroke="#30404D" fill="#30404D"></path><path d="M51.8541999,26.6966034 C49.8178671,26.6966034 48.160444,28.5958016 48.160444,30.9276082 C48.160444,33.2594148 49.8178671,35.158613 51.8541999,35.158613 C53.8905327,35.158613 55.5479558,33.2594148 55.5479558,30.9276082 C55.5457758,28.5958016 53.8883583,26.6966034 51.8541999,26.6966034 Z M51.8541999,34.0781726 C50.4320063,34.0781726 49.2755401,32.6643082 49.2755401,30.9276082 C49.2755401,29.1909082 50.4320063,27.7770438 51.8541999,27.7770438 C53.2742191,27.7770438 54.4328597,29.1909082 54.4328597,30.9276082 C54.4306797,32.6643082 53.2742191,34.0781726 51.8541999,34.0781726 Z" id="Fill-21" stroke="#30404D" fill="#30404D"></path></g><path d="M5.66712069,3.14441975 C6.52131033,3.14441975 7.21269906,3.84772163 7.21269906,4.71662962 C7.21269906,5.58448947 6.52131033,6.28883949 5.66712069,6.28883949 C4.81396143,6.28883949 4.12154232,5.58448947 4.12154232,4.71662962 C4.12154232,3.84772163 4.81396143,3.14441975 5.66712069,3.14441975 Z" id="Fill-1458" fill="#DF5142"></path><path d="M11.8494342,3.14441975 C12.7036238,3.14441975 13.3950125,3.84772163 13.3950125,4.71662962 C13.3950125,5.58448947 12.7036238,6.28883949 11.8494342,6.28883949 C10.9962749,6.28883949 10.3038558,5.58448947 10.3038558,4.71662962 C10.3038558,3.84772163 10.9962749,3.14441975 11.8494342,3.14441975 Z" id="Fill-1459" fill="#EFB252"></path><path d="M18.0317476,3.14441975 C18.8859373,3.14441975 19.577326,3.84772163 19.577326,4.71662962 C19.577326,5.58448947 18.8859373,6.28883949 18.0317476,6.28883949 C17.1785884,6.28883949 16.4861693,5.58448947 16.4861693,4.71662962 C16.4861693,3.84772163 17.1785884,3.14441975 18.0317476,3.14441975 Z" id="Fill-1460" fill="#7CB65A"></path><path d="M26.2748323,6.28883949 C25.4206426,6.28883949 24.7292539,5.58448947 24.7292539,4.71662962 C24.7292539,3.84876977 25.4206426,3.14441975 26.2748323,3.14441975 L70.111819,3.14441975 C70.9660086,3.14441975 71.6573974,3.84876977 71.6573974,4.71662962 C71.6573974,5.58448947 70.9660086,6.28883949 70.111819,6.28883949 L26.2748323,6.28883949 Z" id="Fill-1461" fill="#697D85"></path></g></g><g id="Hand" mask="url(#mask-2)"><g transform="translate(36.000000, 26.000000)"><path d="M5.52311188,24.8195943 C5.52311188,26.2049808 4.40509481,27.3278377 3.02567986,27.3278377 C1.64626491,27.3278377 0.528247849,26.2049808 0.528247849,24.8195943 L0.528247849,8.93405274 C0.528247849,7.3137275 1.09349996,6.32547959 2.12660434,5.08055478 L3.09144557,3.91756592 C4.12454995,2.67264111 4.69063454,2.19356662 4.69063454,0.573241379 L19.6752266,0.573241379 C22.5497709,2.33235609 24.3351039,6.75723511 24.6700906,7.26189047 C28,12.2783773 27.1675227,16.458783 26.3350453,17.2948641 C25.502568,18.1309452 23.8376133,18.9670264 23.8376133,18.9670264 L23.8376133,25.6556755 C23.8376133,27.4022489 22.5664204,28.8185704 20.8348676,28.9841145 C18.8485766,29.174741 17.1777946,27.6112692 17.1777946,25.6556755 L17.1777946,26.073716 C17.1777946,27.6898609 15.8733026,29 14.2641239,29 C12.6549452,29 11.3504532,27.6898609 11.3504532,26.073716 C11.3504532,27.6898609 10.0459613,29 8.43678256,29 C6.82760387,29 5.52311188,27.6898609 5.52311188,26.073716 L5.52311188,24.8195943 Z" id="Fill-83" fill="#EAC5A7"></path><path d="M6.83759359,28.5167451 C6.04674012,27.9933583 5.52311188,27.0962433 5.52311188,26.073716 L5.52311188,19.3850669 C5.52311188,17.7689221 6.82760387,16.458783 8.43678256,16.458783 C9.45490234,16.458783 10.3481505,16.984678 10.8684489,17.7789551 C10.4097539,17.4746215 9.86031881,17.2948641 9.2692599,17.2948641 C7.6600812,17.2948641 6.35558921,18.6050032 6.35558921,20.2211481 L6.35558921,26.9097972 C6.35558921,27.5042508 6.53457184,28.0552283 6.83759359,28.5167451 Z" id="Fill-85" fill="#D9B090"></path><path d="M12.664935,28.5167451 C11.8740815,27.9933583 11.3504532,27.0962433 11.3504532,26.073716 L11.3504532,19.3850669 C11.3504532,17.7689221 12.6549452,16.458783 14.2641239,16.458783 C15.2822437,16.458783 16.1754919,16.984678 16.6957902,17.7789551 C16.2370952,17.4746215 15.6876602,17.2948641 15.0966013,17.2948641 C13.4874226,17.2948641 12.1829306,18.6050032 12.1829306,20.2211481 L12.1829306,26.9097972 C12.1829306,27.5042508 12.3619132,28.0552283 12.664935,28.5167451 Z" id="Fill-86" fill="#D9B090"></path><path d="M14.8475095,13.541382 C13.7121754,12.3418066 13.0154079,10.7195907 13.0154079,8.93405274 C13.0154079,7.5219117 13.4541235,6.21344472 14.1983582,5.13322789 C13.9744218,5.80292888 13.8478853,6.51694217 13.8478853,7.26189047 C13.8478853,9.72559516 15.1745518,11.8745234 17.1492682,13.0334658 C16.0608819,13.541382 15.5128399,13.541382 14.8475095,13.541382 Z" id="Fill-92" fill="#D9B090"></path><path d="M15.1174132,21.8933103 L13.4524585,21.8933103 C12.992931,21.8933103 12.6199812,21.518746 12.6199812,21.0572292 L12.6199812,19.8031075 C12.6199812,18.8792378 13.3650484,18.1309452 14.2849359,18.1309452 C15.2048233,18.1309452 15.9498905,18.8792378 15.9498905,19.8031075 L15.9498905,21.0572292 C15.9498905,21.518746 15.5769407,21.8933103 15.1174132,21.8933103 Z" id="Fill-93" fill="#F9D8BE"></path><path d="M14.2849359,21.0572292 C14.9475878,21.0572292 15.5145049,21.2528722 15.7825626,21.5346315 C15.6318842,21.7461601 15.3962931,21.8933103 15.1174132,21.8933103 L13.4524585,21.8933103 C13.1727461,21.8933103 12.9379875,21.7461601 12.7873091,21.5346315 C13.0553668,21.2528722 13.6222839,21.0572292 14.2849359,21.0572292 Z" id="Fill-94" fill="#FFFFFE"></path><path d="M9.2692599,21.8933103 L7.60430522,21.8933103 C7.14477773,21.8933103 6.77182788,21.518746 6.77182788,21.0572292 L6.77182788,19.8031075 C6.77182788,18.8792378 7.5168951,18.1309452 8.43678256,18.1309452 C9.35667002,18.1309452 10.1017372,18.8792378 10.1017372,19.8031075 L10.1017372,21.0572292 C10.1017372,21.518746 9.72878739,21.8933103 9.2692599,21.8933103 Z" id="Fill-95" fill="#F9D8BE"></path><path d="M8.43678256,21.0572292 C9.09943452,21.0572292 9.66635159,21.2528722 9.93440929,21.5346315 C9.78373089,21.7461601 9.54813981,21.8933103 9.2692599,21.8933103 L7.60430522,21.8933103 C7.32459284,21.8933103 7.08983423,21.7461601 6.93915583,21.5346315 C7.20721353,21.2528722 7.7741306,21.0572292 8.43678256,21.0572292 Z" id="Fill-96" fill="#FFFFFE"></path><path d="M18.0623319,26.7059224 C18.0623319,27.1022249 18.2230001,27.6378742 18.5443363,28.3128704 C17.7534828,27.7894836 17.2298546,26.8923685 17.2298546,25.8698413 L17.2298546,19.8683218 C17.2298546,18.252177 18.5343466,16.9420379 20.1435253,16.9420379 C21.1616451,16.9420379 22.0548932,17.4679329 22.5751916,18.26221 C22.1164966,17.9578764 21.5670615,17.778119 20.9760026,17.778119 C19.3668239,17.778119 18.0623319,19.0882581 18.0623319,20.704403 L18.0623319,26.7059224 Z" id="Fill-85-Copy-2" fill="#D9B090"></path><path d="M21.3988957,22.3765652 L19.733941,22.3765652 C19.2744135,22.3765652 18.9014637,22.0020009 18.9014637,21.5404841 L18.9014637,20.2863624 C18.9014637,19.3624927 19.6465309,18.6142001 20.5664183,18.6142001 C21.4863058,18.6142001 22.231373,19.3624927 22.231373,20.2863624 L22.231373,21.5404841 C22.231373,22.0020009 21.8584232,22.3765652 21.3988957,22.3765652 Z" id="Fill-95-Copy-2" fill="#F9D8BE"></path><path d="M20.5664183,21.5404841 C21.2290703,21.5404841 21.7959874,21.7361271 22.0640451,22.0178864 C21.9133667,22.229415 21.6777756,22.3765652 21.3988957,22.3765652 L19.733941,22.3765652 C19.4542286,22.3765652 19.21947,22.229415 19.0687916,22.0178864 C19.3368493,21.7361271 19.9037664,21.5404841 20.5664183,21.5404841 Z" id="Fill-96-Copy-2" fill="#FFFFFE"></path><path d="M1.23696716,25.5304375 C1.23696716,26.0365183 1.38934181,26.5055862 1.64731564,26.8984928 C0.974032295,26.4529139 0.528247849,25.6891661 0.528247849,24.8186501 L0.528247849,19.7861199 C0.528247849,18.4102349 1.63881101,17.2948641 3.00876543,17.2948641 C3.87552915,17.2948641 4.63598497,17.7425783 5.07893453,18.4187763 C4.68843019,18.1596857 4.22067545,18.0066515 3.71748474,18.0066515 C2.34753032,18.0066515 1.23696716,19.1220222 1.23696716,20.4979072 L1.23696716,25.5304375 Z" id="Fill-85-Copy" fill="#D9B090"></path><path d="M3.71748474,21.9214819 L2.30004612,21.9214819 C1.90883306,21.9214819 1.59132681,21.6026012 1.59132681,21.2096946 L1.59132681,20.1420135 C1.59132681,19.3554885 2.22563059,18.7184388 3.00876543,18.7184388 C3.79190027,18.7184388 4.42620405,19.3554885 4.42620405,20.1420135 L4.42620405,21.2096946 C4.42620405,21.6026012 4.1086978,21.9214819 3.71748474,21.9214819 Z" id="Fill-95-Copy" fill="#F9D8BE"></path><path d="M3.00876543,21.2096946 C3.572906,21.2096946 4.05554385,21.3762528 4.28375147,21.6161251 C4.15547327,21.7962074 3.95490571,21.9214819 3.71748474,21.9214819 L2.30004612,21.9214819 C2.06191643,21.9214819 1.86205759,21.7962074 1.73377939,21.6161251 C1.96198701,21.3762528 2.44462486,21.2096946 3.00876543,21.2096946 Z" id="Fill-96-Copy" fill="#FFFFFE"></path><path d="M25.8665007,18.4378049 C25.1279506,19.0993432 24.5296889,19.4999544 24.0717156,19.6396382 C23.3606625,19.8565126 19.7485988,20.4310839 13.2355245,21.3633521 C12.3576058,21.5030027 11.5498821,20.8557433 11.4904567,19.9649498 C11.3063704,17.1725828 13.1822112,14.6648782 15.9036491,14.0649783 L20.5092683,13.0510351 C20.8041841,12.9861658 21.0753744,12.8388767 21.290286,12.6257188 C22.949209,10.9870645 23.8907844,8.78067315 23.9571246,6.48685079 C24.7861704,8.033414 25.5885994,9.64727104 26.3644115,11.3284219 C26.8934889,12.4748969 27.1754003,13.7198718 27.1918287,14.9824319 L27.1973484,15.4062569 C27.2123811,16.5615548 26.7271263,17.6669205 25.8665007,18.4378049 Z" id="Fill-325" fill="#EAC5A7"></path><path d="M2.19320253,16.458783 C2.19320253,16.9202997 1.82025268,17.2948641 1.36072519,17.2948641 C0.901197697,17.2948641 0.528247849,16.9202997 0.528247849,16.458783 L0.528247849,9.11882667 C0.528247849,7.46840251 1.00442489,6.43333406 1.8743637,5.3857244 L3.09144557,3.91756592 C3.65753016,3.2361598 4.07709874,2.78049558 4.34598892,2.24540365 C4.56909285,1.80311673 4.69063454,1.30648454 4.69063454,0.573241379 L21.3401813,0.573241379 C21.5391434,1.63673658 22.0444571,2.61495151 22.801179,3.38498224 C24.5486277,5.16404581 25.8214665,7.10975986 26.2264262,8.88872674 C27.7938043,15.7741367 25.1688043,11.3801973 24.5733547,9.65858449 C24.204668,8.59260725 23.5741056,7.4920131 22.2758858,6.19923134 C20.799071,4.72940071 18.796963,3.91756592 16.7182671,3.91756592 L7.17141701,3.91756592 C5.57639043,3.91756592 4.09208333,4.75949963 3.28291536,6.13986958 C2.71183591,7.11306802 2.19320253,7.78945766 2.19320253,8.93405274 C2.19320253,13.9505396 2.19320253,16.458783 2.19320253,16.458783 Z" id="Fill-97" fill="#D9B090"></path><path d="M23.0121385,12.0254592 C22.1921209,13.5828856 20.6611524,14.6380751 18.9475931,15.0154005 L15.9928049,15.6661865 C13.6376401,16.1850776 11.9217072,18.1346202 11.6208278,20.4594338 C11.5064649,20.2633382 11.4301586,20.040239 11.41315,19.7963345 C11.2285744,17.004644 13.1049044,14.4962629 15.825853,13.8970395 L20.4319615,12.8824199 C20.7112716,12.8206315 20.9755537,12.6900041 21.1809841,12.4885301 C22.9267164,10.7808573 23.9061479,10.3287679 23.0121385,12.0254592 Z" id="Fill-327" fill="#D9B090"></path></g></g><g id="Cuffs" filter="url(#filter-4)" mask="url(#mask-2)"><g transform="translate(36.000000, 14.000000)"><path d="M43.2256456,21.8987778 L42.9352831,29.4445067 C42.722712,29.1047955 42.4727521,28.7771109 42.156529,28.4876224 C41.6821341,28.0528176 41.1423087,27.7532857 40.5878186,27.5594 L40.8096953,21.8137855 C40.8187935,21.5548806 40.5650971,21.280798 40.1783167,21.0889495 C40.1597174,20.2210508 39.8733196,19.4240975 39.3855216,18.8171934 C39.2952761,18.705223 39.2091835,18.5881892 39.1052002,18.4903866 C39.203356,18.4881671 39.2990305,18.4734844 39.3988257,18.4757194 C41.5772719,18.5521296 43.2939673,20.0859568 43.2256456,21.8987778 Z" id="Fill-96" fill="#696864"></path><path d="M37.5454032,39.1329007 C36.2971573,40.4624587 33.9819525,40.3553103 32.3852512,38.8933118 C30.7884296,37.4301691 30.5051135,35.1580738 31.7534796,33.8296599 L35.1824127,30.1795526 C35.4282072,30.9356613 35.9763469,31.5929025 36.73275,32.0362388 L33.5248561,35.4491209 C33.2330515,35.759717 33.3886913,36.5495925 34.0328868,37.1400586 C34.6756834,37.7283583 35.4845392,37.8237924 35.773666,37.5100076 L40.6303541,32.3437506 L41.0180825,31.9316916 C41.3087286,31.6212172 41.1541271,30.8300758 40.5113306,30.2417761 L40.5100518,30.2407538 C40.3817723,30.1235272 40.2441162,30.0396742 40.1082199,29.9614199 C39.5619568,29.6452138 39.0005741,29.619777 38.7668354,29.8699043 L38.4794244,30.1777253 C37.856354,30.022279 37.4328362,29.6480599 37.4461404,29.3065858 L37.5033107,27.8222887 C38.3631912,27.2553429 39.5058887,27.1838228 40.5878186,27.5594 C41.1423087,27.7532857 41.6821341,28.0528176 42.156529,28.4876224 C42.4727521,28.7771109 42.722712,29.1047955 42.9352831,29.4445067 C43.7907264,30.8190037 43.78907,32.4860114 42.7884208,33.5524183 L37.5454032,39.1329007 Z" id="Fill-97" fill="#575653"></path><path d="M40.6303541,32.3437506 C40.0895455,32.5474953 39.4904601,32.6648276 38.8544524,32.6426073 C38.0633583,32.6158662 37.3381523,32.3913412 36.73275,32.0362388 C35.9763469,31.5929025 35.4282072,30.9356613 35.1824127,30.1795526 C35.08331,29.8718706 35.0170824,29.5537931 35.03019,29.2215935 L35.1856985,25.1625121 L35.2811974,22.6944445 L35.3219722,21.6225062 C35.349214,20.9232975 35.6431424,20.2874398 36.1124119,19.7708026 L37.2477414,20.1083791 C37.6589471,20.2317274 37.7342533,21.8397504 37.7342533,21.8397504 L37.6045877,25.1974566 L37.5033107,27.8222887 L37.4461404,29.3065858 C37.4328362,29.6480599 37.856354,30.022279 38.4794244,30.1777253 C38.627331,30.214232 38.7774345,30.2493512 38.9456252,30.2559648 C38.9467837,30.255843 38.9467837,30.255843 38.9479422,30.2557213 C39.4228304,30.2717415 39.8251996,30.1438536 40.1082199,29.9614199 C40.2441162,30.0396742 40.3817723,30.1235272 40.5100518,30.2407538 L40.5113306,30.2417761 C41.1541271,30.8300758 41.3087286,31.6212172 41.0180825,31.9316916 L40.6303541,32.3437506 Z" id="Fill-98" fill="#696864"></path><path d="M28.9904191,20.8247284 L35.2811974,22.6944445 L35.1856985,25.1625121 L28.2891393,23.1123981 C26.5334054,22.5890205 25.6215398,20.4882499 26.2549429,18.4240209 C26.8875482,16.363346 28.8311052,15.1076113 30.5881178,15.6320113 L37.9527371,17.8226322 C38.3939876,17.9532331 38.7815011,18.1854898 39.1052002,18.4903866 C39.2091835,18.5881892 39.2952761,18.705223 39.3855216,18.8171934 C39.8733196,19.4240975 40.1597174,20.2210508 40.1783167,21.0889495 C40.1895843,21.5527667 40.1332219,22.0306324 39.9855345,22.508843 C39.5866891,23.8069614 38.6677451,24.7814969 37.6045877,25.1974566 L37.7342533,21.8397504 C37.7342533,21.8397504 37.6589471,20.2317274 37.2477414,20.1083791 L29.8844007,17.9187805 C29.4744738,17.7964546 28.8238214,18.2812601 28.5679531,19.1120735 C28.3147625,19.9460755 28.5816506,20.7022807 28.9904191,20.8247284 Z" id="Fill-99" fill="#7C7B77"></path><polygon id="Fill-100" fill="#575653" points="25.7663067 22.1293864 23.4043986 21.3216378 24.9702797 17.4047692 27.3299283 18.5731642"></polygon><path d="M25.2383307,20.7877812 C24.9522558,20.7727887 24.7319435,20.531167 24.7467903,20.2478722 C24.7615963,19.9653578 25.0059581,19.7480886 25.2920329,19.7630812 C25.5788981,19.7781151 25.7992104,20.0197368 25.7844044,20.3022512 C25.7695576,20.5855461 25.5251958,20.8028152 25.2383307,20.7877812 Z" id="Fill-101" fill="#7C7B77"></path><polygon id="Fill-102" fill="#696864" points="28.7910671 15.2486897 27.3299283 18.5731642 24.9702797 17.4047692 26.3567161 13.9331695"></polygon><path d="M18.5370255,24.0481415 C15.4339287,25.498392 11.7419487,25.6805371 8.35300483,24.2234281 C2.11991461,21.5435775 -0.75017608,14.3594228 1.95352353,8.20690673 L3.12604039,8.71129038 C2.54747423,9.93777652 2.18741194,11.2891866 2.11223696,12.7236106 C1.79881702,18.7040193 6.45385155,23.8093045 12.5096298,24.1266744 C14.4710602,24.2294686 16.3354138,23.810679 17.9761216,23.0021873 L18.5370255,24.0481415 Z" id="Fill-103" fill="#575653"></path><path d="M12.5096298,24.1266744 C6.45385155,23.8093045 1.79881702,18.7040193 2.11223696,12.7236106 C2.18741194,11.2891866 2.54747423,9.93777652 3.12604039,8.71129038 L4.21480407,9.18076449 C2.05119319,14.1000825 4.3475164,19.8486715 9.33294765,21.9912453 C12.0080481,23.1433044 14.9199138,23.0134011 17.3826415,21.8973982 L17.9761216,23.0021873 C16.3354138,23.810679 14.4710602,24.2294686 12.5096298,24.1266744 Z" id="Fill-104" fill="#696864"></path><path d="M23.4043986,21.3216378 C22.1676714,22.7984867 20.6295094,23.9637266 18.9217111,24.7671371 L18.5370255,24.0481415 L18.0151147,23.0746621 C21.6646579,21.4190613 24.2892084,17.8503563 24.5128519,13.5829839 C24.8327751,7.47848745 20.1261178,2.26954529 13.999216,1.94844797 C9.88037013,1.7325884 6.18368452,3.78874222 4.09875864,7.01009404 C4.02805865,6.96804288 3.95042306,6.93736678 3.86349423,6.93281104 C3.5766291,6.91777707 3.33305759,7.13508763 3.31825164,7.41760204 C3.30778113,7.61739124 3.41748595,7.79217575 3.58214389,7.88610525 C3.43769406,8.16260788 3.30086054,8.44498766 3.17946416,8.7352196 L1.95352353,8.20690673 L1.20015385,7.88491651 C4.08470056,1.32085557 11.8419668,-1.69086933 18.4905801,1.16492418 C23.7099261,3.41053505 26.7040416,8.6212874 26.3567161,13.9331695 L23.4043986,21.3216378 Z" id="Fill-105" fill="#7C7B77"></path><path d="M24.5128519,13.5829839 C24.2892084,17.8503563 21.6646579,21.4190613 18.0151147,23.0746621 L17.3826415,21.8973982 L16.9955442,21.1790588 C18.9625513,20.2984547 20.6214727,18.7341723 21.5464201,16.6290139 C23.5285163,12.1188582 21.4258061,6.84917542 16.8542356,4.8840226 C12.2834144,2.91969161 6.95026997,4.99259894 4.96734259,9.50349372 L4.21480407,9.18076449 L3.17946416,8.7352196 C3.30086054,8.44498766 3.43769406,8.16260788 3.58214389,7.88610525 C3.65067759,7.92413003 3.72523394,7.9530796 3.80979198,7.9575111 C4.09586685,7.97250365 4.34022862,7.75523451 4.35507547,7.47193967 C4.36534148,7.27605261 4.25859321,7.10533589 4.09875864,7.01009404 C6.18368452,3.78874222 9.88037013,1.7325884 13.999216,1.94844797 C20.1261178,2.26954529 24.8327751,7.47848745 24.5128519,13.5829839 Z" id="Fill-106" fill="#696864"></path><path d="M3.86349423,6.93281104 C3.95042306,6.93736678 4.02805865,6.96804288 4.09875864,7.01009404 C3.91509516,7.29393241 3.73979736,7.58446977 3.58214389,7.88610525 C3.41748595,7.79217575 3.30778113,7.61739124 3.31825164,7.41760204 C3.33305759,7.13508763 3.5766291,6.91777707 3.86349423,6.93281104 Z" id="Fill-107" fill="#575653"></path><path d="M4.35507547,7.47193967 C4.34022862,7.75523451 4.09586685,7.97250365 3.80979198,7.9575111 C3.72523394,7.9530796 3.65067759,7.92413003 3.58214389,7.88610525 C3.73979736,7.58446977 3.91509516,7.29393241 4.09875864,7.01009404 C4.25859321,7.10533589 4.36534148,7.27605261 4.35507547,7.47193967 Z" id="Fill-108" fill="#575653"></path><polygon id="Fill-109" fill="#575653" points="30.7736176 37.7365777 34.2218029 39.5493556 33.0999396 41.9220951 29.4231339 39.8287576"></polygon><path d="M31.1967385,39.1120849 C31.412307,38.9227481 31.7398111,38.9416256 31.9286188,39.1536591 C32.1167093,39.3660269 32.094206,39.690393 31.8793547,39.8793953 C31.6641731,40.0676894 31.3369993,40.0495202 31.1481916,39.8374868 C30.9604314,39.6258272 30.981557,39.300379 31.1967385,39.1120849 Z" id="Fill-110" fill="#7C7B77"></path><polygon id="Fill-111" fill="#696864" points="37.4456398 41.2442789 36.3577743 43.7779337 33.0999396 41.9220951 34.2218029 39.5493556"></polygon><path d="M23.9000845,40.708079 L24.1131649,41.872831 C22.3199945,42.255437 20.5947704,43.0814794 19.1192921,44.3756941 C14.5638824,48.3693551 14.0993132,55.239395 18.0814026,59.7194645 C19.0373407,60.7939155 20.1638914,61.6275609 21.384503,62.228504 L20.7785731,63.3483346 C14.8129458,60.2114133 12.5776162,52.8205961 15.7955645,46.8706404 C17.5464637,43.6354673 20.55676,41.4944875 23.9000845,40.708079 Z" id="Fill-112" fill="#575653"></path><path d="M19.1192921,44.3756941 C20.5947704,43.0814794 22.3199945,42.255437 24.1131649,41.872831 L24.3371625,43.104062 C21.7074519,43.7543083 19.339782,45.4533491 17.9594506,48.0095611 C15.3847182,52.7679753 17.1744597,58.6808022 21.9461916,61.187939 L21.384503,62.228504 C20.1638914,61.6275609 19.0373407,60.7939155 18.0814026,59.7194645 C14.0993132,55.239395 14.5638824,48.3693551 19.1192921,44.3756941 Z" id="Fill-113" fill="#696864"></path><path d="M29.4231339,39.8287576 L36.3577743,43.7779337 C39.9487841,47.7151832 40.8541171,53.639453 38.1601277,58.6233483 C34.7252765,64.9676251 26.7548186,67.4124371 20.3894425,64.0661318 L20.7785731,63.3483346 L21.4112384,62.1772342 C21.6885551,62.3281626 21.971619,62.4652013 22.258222,62.5911046 C22.1872067,62.766497 22.2099173,62.9706163 22.3435209,63.1204386 C22.5316114,63.3328065 22.8587852,63.3509757 23.074684,63.1623472 C23.1397518,63.1052746 23.1812845,63.0333081 23.2109647,62.956521 C26.8603347,64.1839813 31.0460527,63.5057471 34.1441975,60.7891849 C38.7537471,56.7487209 39.1933768,49.7652788 35.1280943,45.1929352 C32.2866742,41.9943527 27.9970439,40.8300463 24.0974069,41.7922257 L23.9000845,40.708079 L23.7522056,39.9078506 C25.5941652,39.4800743 27.5302591,39.4395461 29.4231339,39.8287576 Z" id="Fill-114" fill="#7C7B77"></path><path d="M35.1280943,45.1929352 C39.1933768,49.7652788 38.7537471,56.7487209 34.1441975,60.7891849 C31.0460527,63.5057471 26.8603347,64.1839813 23.2109647,62.956521 C23.2769595,62.7834698 23.2547961,62.5842689 23.1229006,62.436237 C22.9354707,62.2252857 22.6076363,62.2056999 22.3920678,62.3950368 C22.3288213,62.4503977 22.2877322,62.5195705 22.258222,62.5911046 C21.971619,62.4652013 21.6885551,62.3281626 21.4112384,62.1772342 L22.3349919,60.4694336 C26.7107781,62.7697245 32.1918863,61.0907878 34.5517541,56.7291934 C36.9123957,52.3655135 35.2712937,46.9455861 30.8968853,44.6463773 C28.8552047,43.572916 26.576408,43.3765971 24.4818422,43.9049199 L24.3371625,43.104062 L24.0974069,41.7922257 C27.9970439,40.8300463 32.2866742,41.9943527 35.1280943,45.1929352 Z" id="Fill-115" fill="#696864"></path><path d="M23.074684,63.1623472 C22.8587852,63.3509757 22.5316114,63.3328065 22.3435209,63.1204386 C22.2099173,62.9706163 22.1872067,62.766497 22.258222,62.5911046 C22.5705683,62.7291476 22.8891621,62.8487562 23.2109647,62.956521 C23.1812845,63.0333081 23.1397518,63.1052746 23.074684,63.1623472 Z" id="Fill-116" fill="#575653"></path><path d="M23.1229006,62.436237 C23.2547961,62.5842689 23.2769595,62.7834698 23.2109647,62.956521 C22.8891621,62.8487562 22.5705683,62.7291476 22.258222,62.5911046 C22.2877322,62.5195705 22.3288213,62.4503977 22.3920678,62.3950368 C22.6076363,62.2056999 22.9354707,62.2252857 23.1229006,62.436237 Z" id="Fill-117" fill="#575653"></path></g></g><g id="Cover" mask="url(#mask-2)"><g transform="translate(60.000000, 52.000000)"><path d="M0.303802317,7 L0.303802317,0.920749181 C0.303802317,0.597052984 0.245431967,0.286796078 0.138687239,-1.00044417e-11 L5.51780251,-1.00044417e-11 C5.55282532,0.302109845 5.57083111,0.609356671 5.57083111,0.920749181 L5.57083111,7 L0.303802317,7 Z" id="Fill-616" fill="#30404D"></path><path d="M2.77290054,-1.94289029e-16 C2.8792205,0.286651553 2.93731671,0.596867179 2.93731671,0.920749181 L2.93731671,4.88112377 C2.93731671,5.6098327 3.52722394,6.20124863 4.25407391,6.20124863 L5.57083111,6.20124863 L5.57083111,7 L0.303802317,7 L0.303802317,0.920749181 C0.303802317,0.597052984 0.245431967,0.286796078 0.138687239,8.32667268e-17 L2.77290054,4.03896783e-28 Z" id="Fill-618" fill="#182A37"></path></g></g><g id="Sleeve" mask="url(#mask-2)"><g transform="translate(48.000000, 13.000000) rotate(-180.000000) translate(-48.000000, -13.000000) translate(35.000000, -1.000000)"><path d="M4.03850954,0.298020723 L22.1785872,0.298020723 C23.0888892,0.298020723 23.8276851,1.02788249 23.8276851,1.92899673 L23.8276851,5.19094875 L2.38941158,5.19094875 L2.38941158,1.92899673 C2.38941158,1.02788249 3.12738292,0.298020723 4.03850954,0.298020723" id="Fill-87" fill="#E1E4E1"></path><path d="M2.38941158,5.19094875 L23.8276851,5.19094875 C24.7379872,5.19094875 25.4767831,5.92081051 25.4767831,6.82192476 L25.4767831,12.5303408 L0.740313614,12.5303408 L0.740313614,6.82192476 C0.740313614,5.92081051 1.47828495,5.19094875 2.38941158,5.19094875" id="Fill-88" fill="#546670"></path><path d="M0.740313614,10.8993648 L0.740313614,27.3032185 L25.4767831,27.3032185 L25.4767831,6.82192476 L13.9330973,6.82192476 C13.0219707,6.82192476 12.2839994,7.55178652 12.2839994,8.45290077 L12.2839994,9.26838877 C12.2839994,10.169503 11.546028,10.8993648 10.6349014,10.8993648 L0.740313614,10.8993648 Z" id="Fill-89" fill="#3C4E5D"></path><path d="M4.03850954,3.55997274 L10.6349014,3.55997274 C11.546028,3.55997274 12.2839994,2.83011098 12.2839994,1.92899673 C12.2839994,1.02788249 13.0219707,0.298020723 13.9330973,0.298020723 L22.1785872,0.298020723 C23.0897138,0.298020723 23.8276851,1.02788249 23.8276851,1.92899673 L23.8276851,5.19094875 L2.38941158,5.19094875 C2.38941158,4.28983451 3.12738292,3.55997274 4.03850954,3.55997274" id="Fill-90" fill="#CDD3D1"></path><path d="M20.5294892,1.92899673 C20.0743382,1.92899673 19.7049402,2.29433536 19.7049402,2.74448474 C19.7049402,3.19463412 20.0743382,3.55997274 20.5294892,3.55997274 C20.9846402,3.55997274 21.3540382,3.19463412 21.3540382,2.74448474 C21.3540382,2.29433536 20.9846402,1.92899673 20.5294892,1.92899673" id="Fill-91" fill="#7694A3"></path></g></g></g><g id="Azure-Hex-Border" stroke="#0078D4" stroke-width="4"><path d="M45.5620172,3.25834249 L6.67338401,26.8942953 C3.79673288,28.6432593 2,31.9508238 2,35.5582677 L2,82.4417323 C2,86.0486597 3.79764663,89.3586805 6.67318764,91.1055853 L45.560618,114.742485 C46.9289662,115.572418 48.4546283,116 50,116 C51.5458817,116 53.0723633,115.572188 54.4362178,114.743457 L93.3268764,91.1055464 C96.2016145,89.3583456 98,86.0476286 98,82.4417323 L98,35.5582677 C98,31.9518547 96.202529,28.6435953 93.3268966,26.8944659 L54.4351916,3.25759524 C53.0721095,2.42798656 51.5462432,2 50,2 C48.4543284,2 46.9293388,2.42772325 45.5620146,3.25834407 Z M45.5620146,3.25834407 C45.5619597,3.25837737 45.5619049,3.25841067 45.5618501,3.25844398 L45.5621963,3.25823359 L45.5620172,3.25834249 Z"></path></g></g></g></g></svg>