<svg xmlns="http://www.w3.org/2000/svg" xmlns:xlink="http://www.w3.org/1999/xlink" viewBox="0 0 100 100"><defs><rect id="a" x="0" y="0" width="96" height="96" rx="48"/><filter x="-2.3%" y="-1.6%" width="104.7%" height="106.2%" filterUnits="objectBoundingBox" id="b"><feOffset dy="2" in="SourceAlpha" result="shadowOffsetOuter1"/><feColorMatrix values="0 0 0 0 0 0 0 0 0 0 0 0 0 0 0 0 0 0 0.103515625 0" in="shadowOffsetOuter1" result="shadowMatrixOuter1"/><feMerge><feMergeNode in="shadowMatrixOuter1"/><feMergeNode in="SourceGraphic"/></feMerge></filter></defs><g fill="none" fill-rule="evenodd"><g transform="translate(2 2)"><mask id="c" fill="#fff"><use xlink:href="#a"/></mask><use fill="#55A2FF" xlink:href="#a"/><g filter="url(#b)" mask="url(#c)"><path d="M47.501 71.725a2.001 2.001 0 0 1-1.669-.898c-.557-.843-3.331-5.185-3.331-7.92 0-2.858 2.243-5.182 5-5.182s5 2.324 5 5.182c0 2.735-2.775 7.077-3.331 7.92-.37.56-.997.898-1.669.898" fill="#DF5142"/><path d="M47.501 67.725c-.538 0-1.039-.338-1.335-.898-.446-.843-2.665-5.185-2.665-7.92 0-2.858 1.794-5.182 4-5.182 2.205 0 4 2.324 4 5.182 0 2.735-2.22 7.077-2.665 7.92-.296.56-.798.898-1.335.898" fill="#C2423D"/><path d="M58.769 43.002c.434-3.397.732-6.945.732-10.293 0-12.634-10.091-23.885-10.521-24.358-.757-.835-2.201-.835-2.959 0-.429.473-10.52 11.724-10.52 24.358 0 3.348.298 6.896.731 10.293-5.383 1.353-9.731 7.648-9.731 14.723 0 .727.389 1.396 1.018 1.75a1.954 1.954 0 0 0 2.004-.053c.036-.022 3.618-2.248 6.738-2.248 1.164 0 2.041.316 2.683.965.039.04.083.068.123.103.278 1.153.467 1.871.501 1.998a2.002 2.002 0 0 0 1.933 1.485h12a2 2 0 0 0 1.932-1.485c.034-.127.223-.845.501-1.998.041-.035.085-.064.123-.103.643-.649 1.52-.965 2.684-.965 3.119 0 6.701 2.226 6.737 2.248a1.954 1.954 0 0 0 2.004.052 2.004 2.004 0 0 0 1.019-1.749c0-7.075-4.349-13.37-9.732-14.723" fill="#546670"/><path d="M68.486 57.386c-.046.027-.082.064-.131.088a2.417 2.417 0 0 1-1.079.251c-.408 0-.816-.102-1.176-.303-.029-.016-2.118-1.167-4.594-1.813-1.442-.377-2.404-1.73-2.244-3.213.286-2.647.383-5.937.256-9.163a9.033 9.033 0 0 0-.751-.23c-.819 6.414-2.121 12.284-2.833 15.241.021.008-.003 0 .018.007.651-.725 1.56-1.077 2.789-1.077 3.119 0 6.701 2.226 6.737 2.248a1.954 1.954 0 0 0 2.004.052 2.004 2.004 0 0 0 1.019-1.749c0-.114-.013-.225-.015-.339m-41.948 0c.046.027.083.064.131.088.335.168.709.251 1.079.251a2.42 2.42 0 0 0 1.176-.303c.029-.016 2.118-1.167 4.594-1.813 1.442-.377 2.404-1.73 2.244-3.213-.286-2.647-.383-5.937-.256-9.163.248-.086.498-.167.751-.23.819 6.414 2.121 12.284 2.833 15.241-.021.008.003 0-.018.007-.651-.725-1.56-1.077-2.789-1.077-3.119 0-6.701 2.226-6.737 2.248a1.954 1.954 0 0 1-2.004.052 2.004 2.004 0 0 1-1.019-1.749c0-.114.013-.225.015-.339" fill="#30404D"/><path d="M48.98 8.351c-.379-.418-.929-.626-1.479-.626v50a2 2 0 0 1-2 2h-6.067l.134.515a2.002 2.002 0 0 0 1.933 1.485h12a2 2 0 0 0 1.932-1.485c.166-.623 4.068-15.4 4.068-27.53 0-12.635-10.091-23.886-10.521-24.359" fill="#30404D"/><path d="M47.501 21.725a37.5 37.5 0 0 0 9.241-1.134c-3.021-6.959-7.479-11.93-7.762-12.24-.757-.835-2.201-.835-2.959 0-.282.31-4.741 5.281-7.761 12.24a37.493 37.493 0 0 0 9.241 1.134" fill="#ADBDC4"/><path d="M56.742 20.591c-3.021-6.959-7.479-11.93-7.762-12.24-.379-.418-1.479.374-1.479 2.374v11a37.5 37.5 0 0 0 9.241-1.134" fill="#8BA6B1"/><path d="M53.501 34.725a6 6 0 1 1-12.002-.002 6 6 0 0 1 12.002.002" fill="#ADBDC4"/><path d="M53.501 34.725a6 6 0 0 0-6-6v12a6 6 0 0 0 6-6" fill="#8BA6B1"/><path d="M51.501 34.725a4 4 0 1 1-8 0 4 4 0 0 1 8 0" fill="#F7CB64"/><path d="M47.501 31.725c2.038 0 3.701 1.53 3.949 3.5.021-.166.051-.329.051-.5a4 4 0 0 0-8 0c0 .171.029.334.051.5.248-1.97 1.911-3.5 3.949-3.5" fill="#CC9547"/></g><g mask="url(#c)"><path d="M-3.125 71c.101 0 .2.013.3.015C-1.443 64.161 4.612 59 11.874 59c6.492 0 12.004 4.131 14.092 9.902A8.954 8.954 0 0 1 29.875 68a9 9 0 0 1 9 9c0 .142-.015.279-.02.419 4.625 1.301 8.02 5.54 8.02 10.581 0 6.075-4.925 11-11 11h-39c-7.732 0-14-6.268-14-14s6.268-14 14-14" fill="#FBFFFC"/><path d="M36.634 77.038c.765.053 1.506.181 2.22.381.006-.14.021-.277.021-.419a8.981 8.981 0 0 0-3.72-7.279A8.948 8.948 0 0 1 36.874 75c0 .702-.089 1.382-.24 2.038M21.875 99h13.652c5.98 0 11.13-4.624 11.341-10.6a10.987 10.987 0 0 0-4.86-9.532c1.512 2.248 2.217 5.083 1.697 8.093-.727 4.207-3.955 7.667-8.098 8.699a11 11 0 0 1-6.494-.328A8.94 8.94 0 0 0 30.875 90a8.981 8.981 0 0 0-3.72-7.279 8.97 8.97 0 0 1 1.587 6.839c-.628 3.698-3.607 6.678-7.304 7.307a9.271 9.271 0 0 1-2.249.107c-2.853-.218-5.206-2.313-6-5.062-.186-.646-.314-1.308-.314-1.912 0-.363.026-.719.07-1.07a8.935 8.935 0 0 1 1.521-4.034c-1.15.462-2.365.796-3.634.962.017-.285.043-.568.043-.858 0-4.632-2.259-8.726-5.725-11.275a13.947 13.947 0 0 1 2.56 10.449c-.908 5.956-5.705 10.753-11.66 11.66a13.947 13.947 0 0 1-10.45-2.559C-11.85 96.741-7.757 99-3.125 99h25" fill="#C5CCCD"/><path d="M21.875 81a8.96 8.96 0 0 1 2.97.512A14.916 14.916 0 0 0 26.875 74c0-4.908-2.368-9.252-6.012-11.988A14.909 14.909 0 0 1 23.875 71c0 3.972-1.555 7.571-4.077 10.25a9.001 9.001 0 0 1 2.077-.25" fill="#C5CCCD"/><path d="M52.925 80c.101 0 .2.013.3.015C54.607 73.161 60.662 68 67.924 68c6.492 0 12.004 4.131 14.092 9.902A8.954 8.954 0 0 1 85.925 77a9 9 0 0 1 9 9c0 .142-.015.279-.02.419 4.625 1.301 8.02 5.54 8.02 10.581 0 6.075-4.925 11-11 11h-39c-7.732 0-14-6.268-14-14s6.268-14 14-14" fill="#FBFFFC"/><path d="M92.684 86.038c.765.053 1.506.181 2.22.381.006-.14.021-.277.021-.419a8.981 8.981 0 0 0-3.72-7.279A8.948 8.948 0 0 1 92.924 84c0 .702-.089 1.382-.24 2.038M77.925 108h13.652c5.98 0 11.13-4.624 11.341-10.6a10.987 10.987 0 0 0-4.86-9.532c1.512 2.248 2.217 5.083 1.697 8.093-.727 4.207-3.955 7.667-8.098 8.699a11 11 0 0 1-6.494-.328A8.94 8.94 0 0 0 86.925 99a8.981 8.981 0 0 0-3.72-7.279 8.97 8.97 0 0 1 1.587 6.839c-.628 3.698-3.607 6.678-7.304 7.307a9.271 9.271 0 0 1-2.249.107c-2.853-.218-5.206-2.313-6-5.062-.186-.646-.314-1.308-.314-1.912 0-.363.026-.719.07-1.07a8.935 8.935 0 0 1 1.521-4.034c-1.15.462-2.365.796-3.634.962.017-.285.043-.568.043-.858 0-4.632-2.259-8.726-5.725-11.275a13.947 13.947 0 0 1 2.56 10.449c-.908 5.956-5.705 10.753-11.66 11.66a13.947 13.947 0 0 1-10.45-2.559C44.2 105.741 48.293 108 52.925 108h25" fill="#C5CCCD"/><path d="M77.925 90a8.96 8.96 0 0 1 2.97.512A14.916 14.916 0 0 0 82.925 83c0-4.908-2.368-9.252-6.012-11.988A14.909 14.909 0 0 1 79.925 80c0 3.972-1.555 7.571-4.077 10.25a9.001 9.001 0 0 1 2.077-.25" fill="#C5CCCD"/></g></g><rect x="2" y="2" width="96" height="96" rx="48" stroke="#0078D4" stroke-width="4"/></g></svg>