<svg xmlns="http://www.w3.org/2000/svg" xmlns:xlink="http://www.w3.org/1999/xlink" viewBox="0 0 100 118"><defs><path d="M42.742 1.497A10.056 10.056 0 0 1 48 0c1.813 0 3.627.499 5.256 1.497l37.335 22.835C93.933 26.377 96 30.203 96 34.352v45.295c0 4.148-2.067 7.977-5.409 10.021l-37.335 22.837A10.056 10.056 0 0 1 48 114c-1.813 0-3.626-.499-5.258-1.495L5.41 89.668C2.066 87.624 0 83.795 0 79.648V34.352c0-4.15 2.066-7.976 5.409-10.021L42.743 1.497z" id="a"/><filter x="-1.3%" y="-2.2%" width="102.6%" height="108.7%" filterUnits="objectBoundingBox" id="b"><feOffset dy="2" in="SourceAlpha" result="shadowOffsetOuter1"/><feColorMatrix values="0 0 0 0 0 0 0 0 0 0 0 0 0 0 0 0 0 0 0.102213542 0" in="shadowOffsetOuter1" result="shadowMatrixOuter1"/><feMerge><feMergeNode in="shadowMatrixOuter1"/><feMergeNode in="SourceGraphic"/></feMerge></filter></defs><g fill="none" fill-rule="evenodd"><g transform="translate(2 2)"><mask id="c" fill="#fff"><use xlink:href="#a"/></mask><use fill="#C0DDF4" xlink:href="#a"/><g filter="url(#b)" mask="url(#c)"><path d="M62.25 61.942c.837 0 1.516 1.743 1.516 3.893 0 2.15-.679 3.894-1.516 3.894H12.357c-.838 0-1.517-1.744-1.517-3.894 0-2.15.68-3.893 1.517-3.893H62.25z" fill="#263238" fill-rule="nonzero"/><path d="M59.717 34.014a2 2 0 0 1 2 2v26.125h-50V36.014a2 2 0 0 1 2-2h46z" fill="#7CB65A"/><path d="M38.717 59.987h23v2.152h-50V36.034h23a2 2 0 0 1 2 2v19.953a2 2 0 0 0 2 2z" fill="#69994E"/><path fill="#37474F" d="M30.01 63.438v6.066h-3.033v-6.066z"/><path fill="#37474F" d="M51.465 68.74v2.214H11.921v-2.215z"/><path d="M71.036 73.292c-4.768 0-8.633-1.998-8.633-4.464 0-2.465 3.865-4.464 8.633-4.464 4.768 0 8.633 1.999 8.633 4.464 0 2.466-3.865 4.464-8.633 4.464z" fill="#30404D"/><path d="M62.25 61.941a1.517 1.517 0 0 1 0 3.034H12.357a1.517 1.517 0 0 1 0-3.034H62.25z" fill="#ADBDC4" fill-rule="nonzero"/><path d="M62.805 72.537a1.517 1.517 0 0 1-1.517-1.517V40.69c0-.838.68-1.517 1.517-1.517h7.57c4.606 0 8.234 2.072 10.825 5.07 3.058 3.542 4.64 8.399 4.64 12.597v13.257c0 .666-.268 1.27-.702 1.71a2.46 2.46 0 0 1-1.74.731h-4.9a7.646 7.646 0 0 0-2.234-5.005 7.648 7.648 0 0 0-5.422-2.246c-2.038 0-3.98.805-5.42 2.246a7.646 7.646 0 0 0-2.235 5.005h-.382zM82.807 56.84c0-3.55-1.328-7.646-3.894-10.617-2.052-2.376-4.915-4.017-8.538-4.017h-6.053v8.664h6.324c5.273 0 5.981 1.085 7.06 2.734.597.915 1.378 2.11 5.1 3.433v-.197z" fill="#546670" fill-rule="nonzero"/><path fill="#FFA000" fill-rule="nonzero" d="M54.064 65.894h2.661v.802h-2.66z"/><path d="M58.242 66.47c.838 0 1.517.68 1.517 1.517v4.923c0 .838-.68 1.517-1.517 1.517h-9.301a1.517 1.517 0 0 1-1.517-1.517v-4.923c0-.837.68-1.516 1.517-1.516h9.301z" fill="#DF5142" fill-rule="nonzero"/><path d="M47.784 67.006h3.807a2 2 0 0 1 2 2v2.81a2 2 0 0 0 2 2h3.868a1.514 1.514 0 0 1-1.217.61h-9.301a1.517 1.517 0 0 1-1.517-1.516v-4.923c0-.374.136-.716.36-.98z" fill="#C2423D"/><g fill="#FFF" fill-rule="nonzero"><path d="M36.672 53.276l3.938-2.305v-5.014l-3.94-2.306-3.935 2.293v5.011z"/><path d="M36.672 37.963l-9.187 5.229v3.554l4.375 2.5V47.23l-2.625-1.5v-1.52l7.435-4.233 7.44 4.252v8.469l-7.438 4.25-9.187-5.25v2.015l9.187 5.25 9.188-5.25v-10.5z"/></g><path d="M64.322 50.87v-8.665h6.053c3.623 0 6.486 1.641 8.538 4.017 2.566 2.971 3.894 7.067 3.894 10.618v.196c-3.723-1.323-4.504-2.518-5.102-3.433-1.078-1.649-1.787-2.734-7.06-2.734h-6.323z" fill="#ABDCEC"/><path d="M73.234 50.988a24.223 24.223 0 0 0-2.589-.119h-6.323v-8.664h6.059l2.853 8.783z" fill="#8BD0E9"/><g fill-rule="nonzero"><path d="M70.843 66.803a6.13 6.13 0 0 0-4.35 1.802 6.13 6.13 0 0 0-1.8 4.348 6.13 6.13 0 0 0 1.8 4.35 6.131 6.131 0 0 0 4.35 1.8 6.131 6.131 0 0 0 4.348-1.8 6.131 6.131 0 0 0 1.802-4.35 6.131 6.131 0 0 0-1.802-4.348 6.131 6.131 0 0 0-4.348-1.802z" fill="#182A37"/><path d="M68.638 70.75a3.107 3.107 0 0 1 2.205-.913c.86 0 1.64.349 2.204.913.564.563.912 1.343.912 2.204 0 .86-.348 1.64-.912 2.204a3.108 3.108 0 0 1-2.204.912 3.11 3.11 0 0 1-2.205-.912 3.107 3.107 0 0 1-.912-2.204c0-.861.348-1.64.912-2.204z" fill="#30404D"/><path d="M70.842 71.63c-.729 0-1.323.595-1.323 1.323a1.32 1.32 0 0 0 2.26.936 1.32 1.32 0 0 0 0-1.872 1.32 1.32 0 0 0-.937-.388z" fill="#E1E4E1"/></g><g fill-rule="nonzero"><path d="M35.91 66.803a6.13 6.13 0 0 0-4.35 1.802 6.13 6.13 0 0 0-1.801 4.348 6.13 6.13 0 0 0 1.801 4.35 6.131 6.131 0 0 0 4.35 1.8 6.131 6.131 0 0 0 4.348-1.8 6.131 6.131 0 0 0 1.801-4.35 6.131 6.131 0 0 0-1.801-4.348 6.131 6.131 0 0 0-4.349-1.802z" fill="#182A37"/><path d="M33.705 70.75a3.107 3.107 0 0 1 2.204-.913c.861 0 1.64.349 2.204.913.564.563.913 1.343.913 2.204 0 .86-.349 1.64-.913 2.204a3.108 3.108 0 0 1-2.204.912c-.86 0-1.64-.348-2.204-.912a3.107 3.107 0 0 1-.913-2.204c0-.861.35-1.64.913-2.204z" fill="#30404D"/><path d="M35.91 71.63c-.73 0-1.325.595-1.325 1.323 0 .366.149.697.388.936a1.32 1.32 0 0 0 1.872 0 1.32 1.32 0 0 0 0-1.872 1.32 1.32 0 0 0-.936-.388z" fill="#E1E4E1"/></g><g fill-rule="nonzero"><path d="M20.705 66.803a6.13 6.13 0 0 0-4.349 1.802 6.13 6.13 0 0 0-1.801 4.348 6.13 6.13 0 0 0 1.801 4.35 6.131 6.131 0 0 0 4.35 1.8 6.131 6.131 0 0 0 4.348-1.8 6.131 6.131 0 0 0 1.801-4.35 6.131 6.131 0 0 0-1.801-4.348 6.131 6.131 0 0 0-4.349-1.802z" fill="#182A37"/><path d="M18.501 70.75a3.107 3.107 0 0 1 2.204-.913c.861 0 1.64.349 2.204.913.564.563.913 1.343.913 2.204 0 .86-.349 1.64-.913 2.204a3.108 3.108 0 0 1-2.204.912c-.86 0-1.64-.348-2.204-.912a3.107 3.107 0 0 1-.913-2.204c0-.861.349-1.64.913-2.204z" fill="#30404D"/><path d="M20.705 71.63c-.73 0-1.324.595-1.324 1.323 0 .366.148.697.388.936a1.32 1.32 0 0 0 1.872 0 1.32 1.32 0 0 0 0-1.872 1.32 1.32 0 0 0-.936-.388z" fill="#E1E4E1"/></g><path fill="#455A64" d="M12.932 61.941v9.013H10.84v-9.013z"/><path d="M11.09 62.543a.43.43 0 0 1 .43.43v2.984c0 .294-.24.534-.534.534h-.372a.162.162 0 0 1-.162-.162v-3.624c0-.09.073-.162.162-.162h.477z" fill="#FF8F00"/><path d="M11.09 66.52a.43.43 0 0 1 .43.429v.858c0 .294-.24.534-.534.534h-.372a.162.162 0 0 1-.162-.162v-1.497c0-.09.073-.162.162-.162h.477z" fill="#DD2C00"/><path d="M66.024 55.738c-.168 0-.306-.15-.306-.334v-.335h2.546v.335c0 .184-.138.334-.306.334h-1.934z" fill="#212121"/><path d="M65.88 54.542h2.223c.193 0 .351.158.351.352v.352h-2.926v-.352c0-.194.158-.352.351-.352z" fill="#424242"/><path d="M85.84 61.927v4.07l-1.543-.205c-1.92-.256-3.18-5.28-1.728-4.918 1.09.272 2.18.453 3.271 1.053z" fill="#E0E0E0" fill-rule="nonzero"/><path d="M82.875 60.948c.249 1.387 1.154 3.207 2.29 3.359l.675.09v1.6l-1.543-.205c-1.92-.256-3.18-5.28-1.728-4.918l.306.074z" fill="#C5CCCD" fill-rule="nonzero"/></g></g><path d="M45.562 3.258L6.673 26.894C3.797 28.644 2 31.951 2 35.558v46.884c0 3.607 1.798 6.917 4.673 8.664l38.888 23.636A8.539 8.539 0 0 0 50 116a8.525 8.525 0 0 0 4.436-1.257l38.89-23.637C96.203 89.358 98 86.048 98 82.442V35.558c0-3.606-1.797-6.914-4.673-8.664L54.435 3.258A8.511 8.511 0 0 0 50 2c-1.546 0-3.07.428-4.438 1.258zm0 0s0 0 0 0h0z" stroke="#0078D4" stroke-width="4"/></g></svg>