<svg xmlns="http://www.w3.org/2000/svg" xmlns:xlink="http://www.w3.org/1999/xlink" viewBox="0 0 100 100" version="1.1"><!-- Generator: Sketch 52.5 (67469) - http://www.bohemiancoding.com/sketch --><title>intro-to-governance</title><desc>Created with Sketch.</desc><g id="Page-1" stroke="none" stroke-width="1" fill="none" fill-rule="evenodd"><g id="intro-to-governance" transform="translate(2.000000, 2.000000)"><rect id="BG" fill="#C0DDF4" x="0" y="0" width="96" height="96" rx="48"></rect><rect id="BG" fill="#ABD3F2" x="18" y="19" width="61" height="58" rx="29"></rect><g id="World" transform="translate(35.000000, 4.000000)"><g id="Group"><g id="Group-2020" transform="translate(0.000000, 0.009000)" fill="#417505"><path d="M25.7534133,13.43565 C25.7416267,20.37015 20.06952,25.98255 13.0836533,25.97175 C6.09778667,25.96005 0.443813333,20.32875 0.4556,13.39425 C0.467386667,6.45975 6.13949333,0.84825 13.12536,0.85905 C20.1112267,0.87075 25.7652,6.50205 25.7534133,13.43565" id="Fill-1994"></path></g><g id="Echo_curation_alt_check_mark" transform="translate(6.000000, 1.000000)" fill="#FFFFFF"><path d="M6.52353731,18 C6.13664969,18 5.77271303,17.8469754 5.49894086,17.5699291 L0.424865996,12.4386336 C0.150820598,12.1618635 0,11.7939416 0,11.4028174 C0,11.0116932 0.150820598,10.6434951 0.424865996,10.3670012 C0.698364943,10.0905073 1.0623016,9.93831139 1.44946245,9.93831139 C1.8366233,9.93831139 2.20083318,10.0905073 2.47487858,10.3672774 L6.30522996,14.2390203 L15.3476352,0.647730412 C15.6178554,0.242242887 16.0686779,0 16.5531071,0 C16.841087,0 17.1200504,0.0861799098 17.3607623,0.249148329 C18.0230615,0.699659332 18.1995653,1.61200626 17.7539341,2.28238652 L7.72736984,17.3522696 C7.48365249,17.715772 7.09567197,17.9494522 6.66315565,17.9914373 C6.6126089,17.9972378 6.56889278,18 6.52353731,18 Z" id="Path"></path></g></g><g id="Group" transform="translate(0.000000, 62.000000)"><g id="Group-2020" transform="translate(0.000000, 0.009000)" fill="#417505"><path d="M25.7534133,13.43565 C25.7416267,20.37015 20.06952,25.98255 13.0836533,25.97175 C6.09778667,25.96005 0.443813333,20.32875 0.4556,13.39425 C0.467386667,6.45975 6.13949333,0.84825 13.12536,0.85905 C20.1112267,0.87075 25.7652,6.50205 25.7534133,13.43565" id="Fill-1994"></path></g><g id="Echo_curation_alt_check_mark" transform="translate(6.000000, 1.000000)" fill="#FFFFFF"><path d="M6.52353731,18 C6.13664969,18 5.77271303,17.8469754 5.49894086,17.5699291 L0.424865996,12.4386336 C0.150820598,12.1618635 0,11.7939416 0,11.4028174 C0,11.0116932 0.150820598,10.6434951 0.424865996,10.3670012 C0.698364943,10.0905073 1.0623016,9.93831139 1.44946245,9.93831139 C1.8366233,9.93831139 2.20083318,10.0905073 2.47487858,10.3672774 L6.30522996,14.2390203 L15.3476352,0.647730412 C15.6178554,0.242242887 16.0686779,0 16.5531071,0 C16.841087,0 17.1200504,0.0861799098 17.3607623,0.249148329 C18.0230615,0.699659332 18.1995653,1.61200626 17.7539341,2.28238652 L7.72736984,17.3522696 C7.48365249,17.715772 7.09567197,17.9494522 6.66315565,17.9914373 C6.6126089,17.9972378 6.56889278,18 6.52353731,18 Z" id="Path"></path></g></g><g id="Group" transform="translate(0.000000, 30.000000)"><g id="Group-2020" transform="translate(0.000000, 0.009000)" fill="#417505"><path d="M25.7534133,13.43565 C25.7416267,20.37015 20.06952,25.98255 13.0836533,25.97175 C6.09778667,25.96005 0.443813333,20.32875 0.4556,13.39425 C0.467386667,6.45975 6.13949333,0.84825 13.12536,0.85905 C20.1112267,0.87075 25.7652,6.50205 25.7534133,13.43565" id="Fill-1994"></path></g><g id="Echo_curation_alt_check_mark" transform="translate(6.000000, 1.000000)" fill="#FFFFFF"><path d="M6.52353731,18 C6.13664969,18 5.77271303,17.8469754 5.49894086,17.5699291 L0.424865996,12.4386336 C0.150820598,12.1618635 0,11.7939416 0,11.4028174 C0,11.0116932 0.150820598,10.6434951 0.424865996,10.3670012 C0.698364943,10.0905073 1.0623016,9.93831139 1.44946245,9.93831139 C1.8366233,9.93831139 2.20083318,10.0905073 2.47487858,10.3672774 L6.30522996,14.2390203 L15.3476352,0.647730412 C15.6178554,0.242242887 16.0686779,0 16.5531071,0 C16.841087,0 17.1200504,0.0861799098 17.3607623,0.249148329 C18.0230615,0.699659332 18.1995653,1.61200626 17.7539341,2.28238652 L7.72736984,17.3522696 C7.48365249,17.715772 7.09567197,17.9494522 6.66315565,17.9914373 C6.6126089,17.9972378 6.56889278,18 6.52353731,18 Z" id="Path"></path></g></g></g><g id="Azure-Border" stroke="#0078D4" stroke-width="4"><rect id="Rectangle" x="0" y="0" width="96" height="96" rx="48"></rect></g></g></g></svg>