<svg xmlns="http://www.w3.org/2000/svg" viewBox="0 0 100 100"><g fill="none" fill-rule="evenodd"><rect fill="#C0DDF4" x="2" y="2" width="96" height="96" rx="48"/><path d="M14.72 46.113c-.921 0-1.67.75-1.67 1.67 0 .92.749 1.67 1.67 1.67.92 0 1.669-.75 1.669-1.67 0-.92-.75-1.67-1.67-1.67m0 4.452a2.786 2.786 0 0 1-2.782-2.782 2.786 2.786 0 0 1 2.783-2.782 2.786 2.786 0 0 1 2.782 2.782 2.786 2.786 0 0 1-2.782 2.782m11.594-4.452c-.92 0-1.67.75-1.67 1.67 0 .92.75 1.67 1.67 1.67.92 0 1.67-.75 1.67-1.67 0-.92-.75-1.67-1.67-1.67m0 4.452a2.785 2.785 0 0 1-2.782-2.782 2.785 2.785 0 0 1 2.782-2.782 2.786 2.786 0 0 1 2.783 2.782 2.786 2.786 0 0 1-2.783 2.782m-5.566-11.872c-.92 0-1.669.75-1.669 1.67 0 .92.75 1.67 1.67 1.67.92 0 1.67-.75 1.67-1.67 0-.92-.75-1.67-1.67-1.67m0 4.452a2.787 2.787 0 0 1-2.783-2.783 2.786 2.786 0 0 1 2.782-2.782 2.786 2.786 0 0 1 2.783 2.782 2.787 2.787 0 0 1-2.783 2.783m11.78-4.545a1.672 1.672 0 0 0-1.575 2.225 1.67 1.67 0 0 0 3.08.165 1.66 1.66 0 0 0 .068-1.277 1.672 1.672 0 0 0-1.573-1.114m.003 4.453a2.787 2.787 0 0 1-2.627-1.857 2.785 2.785 0 0 1 1.697-3.55 2.765 2.765 0 0 1 2.127.114 2.76 2.76 0 0 1 1.423 1.583 2.765 2.765 0 0 1-.113 2.127 2.766 2.766 0 0 1-1.584 1.424 2.762 2.762 0 0 1-.923.16m3.062 3.093a1.668 1.668 0 0 0-1.576 2.226 1.67 1.67 0 1 0 3.149-1.11 1.663 1.663 0 0 0-1.573-1.116m-.004 4.455c-.41 0-.817-.092-1.198-.274a2.763 2.763 0 0 1-1.424-1.584 2.761 2.761 0 0 1 .114-2.127 2.765 2.765 0 0 1 1.584-1.423 2.766 2.766 0 0 1 2.127.113c.67.321 1.176.884 1.423 1.585.248.7.207 1.455-.113 2.126a2.765 2.765 0 0 1-1.585 1.424c-.303.107-.615.16-.928.16m-6.122-18.959a1.678 1.678 0 0 0-1.507.95 1.67 1.67 0 1 0 3.08.165 1.656 1.656 0 0 0-.853-.95 1.69 1.69 0 0 0-.72-.165m.002 4.453a2.786 2.786 0 0 1-2.627-1.857 2.785 2.785 0 0 1 3.824-3.436c.671.32 1.176.883 1.424 1.584a2.77 2.77 0 0 1-.113 2.127 2.769 2.769 0 0 1-2.508 1.582m-8.567-4.266a1.671 1.671 0 0 0-1.577 2.227 1.672 1.672 0 0 0 3.081.165 1.66 1.66 0 0 0 .069-1.277 1.667 1.667 0 0 0-1.572-1.115m0 4.454a2.789 2.789 0 0 1-2.626-1.856 2.783 2.783 0 1 1 2.626 1.856m-6.308-4.454a1.671 1.671 0 0 0-1.577 2.227 1.672 1.672 0 0 0 3.08.165 1.66 1.66 0 0 0 .069-1.277 1.656 1.656 0 0 0-.854-.951 1.664 1.664 0 0 0-.718-.164m0 4.454a2.789 2.789 0 0 1-2.626-1.856 2.785 2.785 0 0 1 1.698-3.551 2.785 2.785 0 0 1 3.55 1.697 2.77 2.77 0 0 1-.113 2.127 2.763 2.763 0 0 1-1.585 1.423c-.305.108-.616.16-.924.16m5.041 14.282a.556.556 0 0 1-.557-.556v-4.36a.556.556 0 0 1 1.114 0v4.36c0 .307-.25.556-.557.556m2.504 0a.557.557 0 0 1-.557-.556v-4.36a.557.557 0 0 1 1.114 0v4.36a.556.556 0 0 1-.557.556m-6.679-7.605a.556.556 0 0 1-.556-.557v-4.36a.556.556 0 1 1 1.113 0v4.36a.557.557 0 0 1-.557.557m-2.597 0a.557.557 0 0 1-.557-.557v-4.36a.557.557 0 1 1 1.114 0v4.36a.557.557 0 0 1-.557.557m12.152 0a.557.557 0 0 1-.557-.557v-4.36a.557.557 0 1 1 1.114 0v4.36c0 .308-.25.557-.557.557m0-6.864a.557.557 0 0 1-.557-.557v-4.36a.557.557 0 0 1 1.114 0v4.36c0 .307-.25.556-.557.556m2.782 6.865a.557.557 0 0 1-.557-.557v-4.36a.557.557 0 1 1 1.114 0v4.36a.557.557 0 0 1-.557.557m8.904-7.143a.556.556 0 0 1-.556-.557v-4.359a.557.557 0 1 1 1.113 0v4.36a.557.557 0 0 1-.557.556m0 7.236a.556.556 0 0 1-.556-.557v-4.36a.556.556 0 1 1 1.113 0v4.36a.557.557 0 0 1-.557.556m-2.318-7.235a.557.557 0 0 1-.557-.557v-4.359a.557.557 0 0 1 1.114 0v4.36c0 .307-.25.556-.557.556m-3.433 14.748a.556.556 0 0 1-.556-.556v-4.36a.556.556 0 0 1 1.113 0v4.36a.556.556 0 0 1-.557.556" fill="#253B5D"/><path fill="#137AD1" d="M39.083 84.747h18.035V15.739H39.083z"/><path fill="#1168A3" d="M57.14 84.747h18.035V15.739H57.14z"/><path fill="#253B5D" d="M61.254 51.701h10.537V27.264H61.254z"/><path fill="#137AD1" d="M2.5 58.514h52.384v-6.836H2.5zm58.506 0H97.5v-6.836H61.006z"/><path fill="#253B5D" d="M42.332 27.585h11.071v-4.149H42.332z"/><path d="M43.903 25.614h5.833" stroke="#7DC44E" stroke-linecap="round"/><path d="M52.486 25.614a.75.75 0 1 1-1.501 0 .75.75 0 0 1 1.5 0" fill="#D83A18"/><g><path d="M80.286 37.366a6.46 6.46 0 1 0-9.567 5.664c.68 1.296.738 3.018.738 3.018h4.736s.06-1.722.74-3.018a6.458 6.458 0 0 0 3.353-5.664" fill="#FCD92D"/><path d="M74.72 50.072h-1.79a1.578 1.578 0 0 1-1.577-1.578v-2.497h4.946v2.497c0 .871-.707 1.578-1.578 1.578" fill="#767777"/><path d="M76.299 47.658h-4.946a.349.349 0 1 1 0-.697h4.946a.35.35 0 0 1 0 .697m.017 1.262H71.37a.348.348 0 1 1 0-.697h4.946a.348.348 0 1 1 0 .697" fill="#9C9C9C"/><path d="M73.736 27.906v-4.5m6.742 7.174l3.183-3.182m-.967 9.341h4.5m-26.5 0h4.5m2.466-6.159l-3.183-3.182" stroke="#FFF" stroke-linecap="round"/></g><g stroke="#0078D4" stroke-width="4"><rect x="2" y="2" width="96" height="96" rx="48"/></g></g></svg>