<svg xmlns="http://www.w3.org/2000/svg" xmlns:xlink="http://www.w3.org/1999/xlink" viewBox="0 0 100 100" version="1.1"><!-- Generator: Sketch 51.3 (57544) - http://www.bohemiancoding.com/sketch --><title>monitor-and-manage-your-coffee-machine-with-azure-iot-central</title><desc>Created with Sketch.</desc><defs><filter x="-1.6%" y="-1.4%" width="103.3%" height="105.6%" filterUnits="objectBoundingBox" id="filter-1"><feOffset dx="0" dy="2" in="SourceAlpha" result="shadowOffsetOuter1"></feOffset><feColorMatrix values="0 0 0 0 0   0 0 0 0 0   0 0 0 0 0  0 0 0 0.100401947 0" type="matrix" in="shadowOffsetOuter1" result="shadowMatrixOuter1"></feColorMatrix><feMerge><feMergeNode in="shadowMatrixOuter1"></feMergeNode><feMergeNode in="SourceGraphic"></feMergeNode></feMerge></filter><filter x="-2.9%" y="-4.5%" width="105.7%" height="118.2%" filterUnits="objectBoundingBox" id="filter-2"><feOffset dx="0" dy="2" in="SourceAlpha" result="shadowOffsetOuter1"></feOffset><feColorMatrix values="0 0 0 0 0   0 0 0 0 0   0 0 0 0 0  0 0 0 0.0995810688 0" type="matrix" in="shadowOffsetOuter1" result="shadowMatrixOuter1"></feColorMatrix><feMerge><feMergeNode in="shadowMatrixOuter1"></feMergeNode><feMergeNode in="SourceGraphic"></feMergeNode></feMerge></filter></defs><g id="Badges-FINAL" stroke="none" stroke-width="1" fill="none" fill-rule="evenodd"><g id="N/A-2" transform="translate(-577.000000, -2188.000000)"><g id="monitor-and-manage-your-coffee-machine-with-azure-iot-central" transform="translate(577.000000, 2188.000000)"><rect id="BG" fill="#55A2FF" x="2" y="2" width="96" height="96" rx="48"></rect><g id="Coffee-Machine" filter="url(#filter-1)" transform="translate(19.500000, 14.500000)"><g id="BG" transform="translate(6.000000, 17.000000)"><path d="M48.1576538,0.0903598341 L0.157653829,0.0903598341 L0.157653829,35.9148407 C0.157653829,37.10899 0.157653829,38.1945804 0.157653829,39.1716117 L48.1576538,39.1716117 L48.1576538,0.0903598341 Z" id="Fill-256" fill="#ADBDC4"></path><path d="M0.157653829,1.17161166 L0.157653829,35.1716117 L22.1576538,35.1716117 C23.2626538,35.1716117 24.1576538,34.2766117 24.1576538,33.1716117 L24.1576538,10.1716117 C24.1576538,9.06661166 25.0526538,8.17161166 26.1576538,8.17161166 L48.1576538,8.17161166 L48.1576538,1.17161166 L24.1576538,1.17161166 L0.157653829,1.17161166 Z" id="Fill-260" fill="#8BA6B1"></path></g><g id="Coffee" transform="translate(28.000000, 23.000000)"><rect id="Rectangle-9" fill="#6D4526" x="0" y="0.344025958" width="4" height="15.2510288"></rect><rect id="Rectangle-9-Copy" fill="#57381F" x="2" y="0.344025958" width="2" height="15.2510288"></rect></g><g id="Lower" transform="translate(0.000000, 56.000000)"><path d="M0.157653829,8.17361166 C0.157653829,9.27761166 1.05265383,10.1736117 2.15765383,10.1736117 L58.1576538,10.1736117 C59.2616538,10.1736117 60.1576538,9.27761166 60.1576538,8.17361166 L60.1576538,1.17161166 C60.1576538,0.619326909 59.7099386,0.171611659 59.1576538,0.171611659 L1.15765383,0.171611659 C0.605369079,0.171611659 0.157653829,0.619326909 0.157653829,1.17161166 L0.157653829,8.17361166 Z" id="Fill-269" fill="#30404D"></path><path d="M4.15765383,13.1716117 L4.15765383,10.1716117 L12.1576538,10.1716117 L12.1576538,13.1716117 C12.1576538,13.7236117 11.7096538,14.1716117 11.1576538,14.1716117 L5.15765383,14.1716117 C4.60565383,14.1716117 4.15765383,13.7236117 4.15765383,13.1716117" id="Fill-271" fill="#30404D"></path><path d="M48.1576538,13.1716117 L48.1576538,10.1716117 L56.1576538,10.1716117 L56.1576538,13.1716117 C56.1576538,13.7236117 55.7096538,14.1716117 55.1576538,14.1716117 L49.1576538,14.1716117 C48.6056538,14.1716117 48.1576538,13.7236117 48.1576538,13.1716117" id="Fill-272" fill="#30404D"></path><path d="M48.1576538,10.1716117 L48.1576538,11.1716117 L51.1576538,11.1716117 C51.7096538,11.1716117 52.1576538,11.6196117 52.1576538,12.1716117 L52.1576538,14.1716117 L55.1576538,14.1716117 C55.7096538,14.1716117 56.1576538,13.7236117 56.1576538,13.1716117 L56.1576538,10.1716117 L48.1576538,10.1716117" id="Fill-274" fill="#182A37"></path><path d="M4.15765383,10.1716117 L4.15765383,11.1716117 L7.15765383,11.1716117 C7.70965383,11.1716117 8.15765383,11.6196117 8.15765383,12.1716117 L8.15765383,14.1716117 L11.1576538,14.1716117 C11.7096538,14.1716117 12.1576538,13.7236117 12.1576538,13.1716117 L12.1576538,10.1716117 L4.15765383,10.1716117" id="Fill-275" fill="#182A37"></path></g><g id="Cup" filter="url(#filter-2)" transform="translate(13.143165, 34.288050)"><path d="M27.1168417,0.443838909 L6.91213613,0.443838909 C6.32460456,0.443838909 5.84873057,0.919712897 5.84873057,1.50724447 L5.84873057,6.82427226 C5.84873057,10.1511366 7.31038151,13.1313306 9.62063009,15.1757278 C9.91625683,15.4373256 10.2246444,15.7547521 10.438389,16.1067394 C10.5771634,16.3359033 10.6340556,16.6060083 10.6340556,16.8739865 L10.6340556,18.5217334 L23.3949223,18.5217334 L23.3949223,16.8739865 C23.3949223,16.6060083 23.4518145,16.3359033 23.5905889,16.1067394 C23.8043334,15.7547521 24.112721,15.4373256 24.4083478,15.1757278 C26.7185964,13.1313306 28.1802473,10.1511366 28.1802473,6.82427226 L28.1802473,1.50724447 C28.1802473,0.919712897 27.7043733,0.443838909 27.1168417,0.443838909" id="Fill-34" fill="#FBD372"></path><path d="M28.1802473,9.48278616 L27.8564403,9.48278616 C28.0653995,8.6304666 28.1802473,7.74145955 28.1802473,6.82427226 L28.1802473,5.22916392 C29.6488104,5.22916392 30.3070584,5.88741196 30.3070584,7.35597504 C30.3070584,8.82453812 29.6488104,9.48278616 28.1802473,9.48278616 Z M28.1802473,3.10235281 L28.1802473,1.50724447 L18.0778945,1.50724447 C17.4903629,1.50724447 17.0144889,1.98311846 17.0144889,2.57065003 L17.0144889,15.3315167 C17.0144889,15.9190483 16.5386149,16.3949223 15.9510834,16.3949223 L10.5622757,16.3949223 C10.610129,16.5491161 10.6340556,16.7112854 10.6340556,16.8739865 L10.6340556,17.4583278 L17.0144889,17.4583278 L17.0144889,18.5217334 L23.3949223,18.5217334 L23.3949223,16.8739865 C23.3949223,16.6054766 23.4518145,16.3359033 23.5911206,16.1062077 C23.8043334,15.7547521 24.112721,15.4373256 24.4083478,15.1757278 C25.5281138,14.1846338 26.4458328,12.9728832 27.0971687,11.6095973 L28.0345607,11.6095973 C30.2996146,11.6095973 32.2780806,9.90017284 32.4248306,7.63937262 C32.5854048,5.16216937 30.6228899,3.10235281 28.1802473,3.10235281 Z" id="Fill-35" fill="#F7CB64"></path><path d="M32.9655723,17.4583278 L1.12189286,17.4583278 C0.592316896,17.4583278 0.100491825,17.819354 0.0148876778,18.3425496 C-0.0946430947,19.0082414 0.417918384,19.585139 1.06340556,19.585139 L8.10102354,19.585139 L8.87039747,21.1238868 C9.05064471,21.4843813 9.41911473,21.7119501 9.82161374,21.7119501 L24.2073641,21.7119501 C24.6098631,21.7119501 24.9783332,21.4843813 25.1585804,21.1238868 L25.9279543,19.585139 L32.9086801,19.585139 C33.4382561,19.585139 33.9290177,19.2230494 34.0146219,18.7003855 C34.1230893,18.034162 33.6115912,17.4583278 32.9655723,17.4583278" id="Fill-41" fill="#F6BF61"></path><path d="M32.9655723,17.4583278 L17.0144889,17.4583278 L17.0144889,19.585139 L8.10102354,19.585139 L8.87039747,21.1238868 C9.05064471,21.4843813 9.41911473,21.7119501 9.82161374,21.7119501 L24.2073641,21.7119501 C24.6098631,21.7119501 24.9783332,21.4843813 25.1585804,21.1238868 L25.9279543,19.585139 L32.9086801,19.585139 C33.4382561,19.585139 33.9295495,19.2230494 34.0146219,18.7003855 C34.1230893,18.034162 33.6115912,17.4583278 32.9655723,17.4583278" id="Fill-43" fill="#EFB252"></path></g><g id="Spout" transform="translate(16.000000, 19.593768)"><path d="M27.0409088,0.160363287 L0.0448921004,0.160363287 C0.375315212,0.680667553 0.808154536,1.1396716 1.336682,1.49177406 L3.82457366,3.15061769 L23.2612273,3.15061769 L25.7491189,1.49177406 C26.2776464,1.1396716 26.7104857,0.680667553 27.0409088,0.160363287" id="Fill-479" fill="#E1E4E1"></path><path d="M13.5429005,0.160363287 L13.5429005,1.65549049 C13.5429005,2.48154827 12.873831,3.15061769 12.0477733,3.15061769 L3.82457366,3.15061769 L3.82457366,3.89818129 C3.82457366,4.3108364 4.15948216,4.64574489 4.57213727,4.64574489 L22.5136637,4.64574489 C22.9263188,4.64574489 23.2612273,4.3108364 23.2612273,3.89818129 L23.2612273,3.15061769 L25.7491189,1.49177406 C26.2776464,1.1396716 26.7104857,0.680667553 27.0409088,0.160363287 L13.5429005,0.160363287" id="Fill-482" fill="#CDD6D8"></path></g><g id="Top" transform="translate(1.657654, 0.431028)"><path d="M20.3344107,0.171611659 L10.3344107,0.171611659 L9.62941072,0.171611659 C7.28841072,0.171611659 4.97341072,0.954611659 3.25041072,2.53861166 C1.37341072,4.26561166 0.335410716,6.63861166 0.336410716,9.17261166 L0.336410716,17.1716117 C0.336410716,19.3806117 2.12741072,21.1716117 4.33641072,21.1716117 L52.8575569,21.1716117 C55.0665569,21.1716117 56.8575569,19.3806117 56.8575569,17.1716117 L56.8575569,9.17161166 C56.8575569,4.20061166 52.8285569,0.171611659 47.8575569,0.171611659 L20.3344107,0.171611659 Z" id="Fill-298" fill="#C2423D"></path><path d="M0.336410716,17.1716117 C0.336410716,19.3806117 2.12741072,21.1716117 4.33641072,21.1716117 L52.8575569,21.1716117 C55.0665569,21.1716117 56.8575569,19.3806117 56.8575569,17.1716117 L56.8575569,11.1716117 L0.336410716,11.1716117 L0.336410716,17.1716117 Z" id="Fill-300" fill="#AB3B37"></path><path d="M0.336410716,12.1716117 L0.336410716,10.1716117 L7.33641072,10.1716117 C7.88841072,10.1716117 8.33641072,10.6196117 8.33641072,11.1716117 C8.33641072,11.7236117 7.88841072,12.1716117 7.33641072,12.1716117 L0.336410716,12.1716117 Z" id="Fill-302" fill="#983430"></path><path d="M7.33641072,9.17161166 C7.88841072,9.17161166 8.33641072,8.72361166 8.33641072,8.17161166 C8.33641072,7.61961166 7.88841072,7.17161166 7.33641072,7.17161166 L0.566410716,7.17161166 C0.419410716,7.82061166 0.336410716,8.48961166 0.336410716,9.17161166 L7.33641072,9.17161166 Z" id="Fill-303" fill="#983430"></path><path d="M0.336410716,15.1716117 L0.336410716,13.1716117 L7.33641072,13.1716117 C7.88841072,13.1716117 8.33641072,13.6196117 8.33641072,14.1716117 C8.33641072,14.7236117 7.88841072,15.1716117 7.33641072,15.1716117 L0.336410716,15.1716117 Z" id="Fill-304" fill="#983430"></path><path d="M47.8585569,8.17161166 C46.7535569,8.17161166 45.8575569,7.27661166 45.8575569,6.17161166 C45.8575569,5.06661166 46.7535569,4.17161166 47.8585569,4.17161166 C48.9625569,4.17161166 49.8575569,5.06661166 49.8575569,6.17161166 C49.8575569,7.27661166 48.9625569,8.17161166 47.8585569,8.17161166 Z" id="Fill-305" fill="#ADBDC4"></path><path d="M41.8585569,8.17161166 C40.7535569,8.17161166 39.8575569,7.27661166 39.8575569,6.17161166 C39.8575569,5.06661166 40.7535569,4.17161166 41.8585569,4.17161166 C42.9625569,4.17161166 43.8575569,5.06661166 43.8575569,6.17161166 C43.8575569,7.27661166 42.9625569,8.17161166 41.8585569,8.17161166 Z" id="Fill-306" fill="#ADBDC4"></path><path d="M39.9275569,6.67061166 C39.8865569,6.83161166 39.8575569,6.99761166 39.8575569,7.17061166 C39.8575569,8.27561166 40.7535569,9.17061166 41.8575569,9.17061166 C42.9615569,9.17061166 43.8555569,8.27561166 43.8555569,7.17061166 C43.8555569,6.99761166 43.8265569,6.83161166 43.7855569,6.67061166 C43.5625569,7.53161166 42.7875569,8.17061166 41.8575569,8.17061166 C40.9275569,8.17061166 40.1515569,7.53161166 39.9275569,6.67061166 Z" id="Fill-307" fill="#983430"></path><path d="M45.9275569,6.67061166 C45.8855569,6.83161166 45.8565569,6.99761166 45.8565569,7.17061166 C45.8565569,8.27561166 46.7535569,9.17061166 47.8575569,9.17061166 C48.9615569,9.17061166 49.8555569,8.27561166 49.8555569,7.17061166 C49.8555569,6.99761166 49.8265569,6.83161166 49.7845569,6.67061166 C49.5615569,7.53161166 48.7875569,8.17061166 47.8575569,8.17061166 C46.9265569,8.17061166 46.1505569,7.53161166 45.9275569,6.67061166 Z" id="Fill-308" fill="#983430"></path><path d="M40.4435569,4.75761166 C39.6625569,5.53761166 39.6635569,6.80361166 40.4435569,7.58461166 L43.2705569,4.75761166 C42.4895569,3.97761166 41.2235569,3.97661166 40.4435569,4.75761166 Z" id="Fill-309" fill="#E1E4E1"></path><path d="M46.4445569,4.75761166 C45.6635569,5.53761166 45.6645569,6.80361166 46.4445569,7.58461166 L49.2715569,4.75761166 C48.4905569,3.97761166 47.2245569,3.97661166 46.4445569,4.75761166 Z" id="Fill-310" fill="#E1E4E1"></path><circle id="Oval-3" stroke="#979797" fill="#D8D8D8" cx="28.7390569" cy="10.7390569" r="7.73905693"></circle><g id="IoTCentral" transform="translate(23.842346, 5.168972)" fill="#0072C6" fill-rule="nonzero"><polygon id="Shape" points="5 8.02083333 7.14285714 6.81358333 7.14285714 4.18710417 4.99880952 2.97916667 2.85714286 4.1806875 2.85714286 6.80533333"></polygon><polygon id="Shape" points="5 0 0 2.73877083 0 4.60052083 2.38095238 5.90997917 2.38095238 4.85420833 0.952380952 4.06839583 0.952380952 3.2718125 4.99904762 1.05508333 9.04761905 3.28189583 9.04761905 7.71810417 5 9.94422917 0 7.19422917 0 8.25 5 11 10 8.25 10 2.75"></polygon></g></g></g><g id="Azure-Border" stroke="#0078D4" stroke-width="4"><rect x="2" y="2" width="96" height="96" rx="48"></rect></g></g></g></g></svg>