<svg xmlns="http://www.w3.org/2000/svg" viewBox="0 0 100 100"><defs><filter x="-1.6%" y="-1.5%" width="103.2%" height="106%" filterUnits="objectBoundingBox" id="a"><feOffset dy="2" in="SourceAlpha" result="shadowOffsetOuter1"/><feColorMatrix values="0 0 0 0 0 0 0 0 0 0 0 0 0 0 0 0 0 0 0.09765625 0" in="shadowOffsetOuter1" result="shadowMatrixOuter1"/><feMerge><feMergeNode in="shadowMatrixOuter1"/><feMergeNode in="SourceGraphic"/></feMerge></filter></defs><g fill="none" fill-rule="evenodd"><rect fill="#55A2FF" x="2" y="2" width="96" height="96" rx="48"/><g filter="url(#a)" transform="translate(18.486 16.673)"><path fill="#044479" d="M45.283.388v66.311l16.515-6.788V6.978z"/><g fill-rule="nonzero"><path d="M30.359 10.818c.2 2.196 4.422 3.696 5.819 5.82 1.861 2.83 1.164 5.82 3.492 5.82 1.231 0 4.772.081 13.883-5.103-4.91-6.109-12.438-10.028-20.867-10.028-.6 0-1.193.027-1.783.066-.334.848-.673 2.007-.544 3.425zM18.72 50.39c1.328-2.226 2.437-5.712 0-9.31-1.621-2.394-4.656-4.84-4.656-6.984 0-2.849 6.92-3.892 9.311-6.983 2.114-2.733-.192-7.575-1.23-9.314-1.057-1.77-3.498-4.04-5.164-5.362C10.283 17.307 5.917 25.2 5.917 34.096c0 8.036 3.564 15.25 9.188 20.161 1.335-1.136 3.084-2.977 3.615-3.866z" fill="#72C472"/><path d="M53.553 17.355c-9.11 5.184-12.652 5.102-13.883 5.102-2.328 0-1.63-2.99-3.492-5.82-1.397-2.123-5.62-3.623-5.82-5.819-.128-1.418.21-2.577.545-3.425a26.61 26.61 0 0 0-13.922 5.044c1.666 1.322 4.107 3.592 5.164 5.362 1.038 1.739 3.344 6.58 1.23 9.314-2.39 3.09-9.311 4.134-9.311 6.983 0 2.143 3.035 4.59 4.656 6.983 2.437 3.599 1.328 7.085 0 9.312-.531.89-2.28 2.73-3.615 3.866 4.707 4.11 10.856 6.609 17.581 6.609 14.76 0 26.77-12.01 26.77-26.77a26.635 26.635 0 0 0-5.903-16.741zM35.014 50.39c-3.492-2.328.582-5.432-2.295-14.192-1.203-3.664 3.648-6.983 8.148-6.983s8.095 3.127 8.147 6.983c.097 7.177-9.729 17.039-14 14.192z" fill="#BADEFC"/><path d="M40.867 29.216c-4.5 0-9.351 3.319-8.148 6.983 2.877 8.76-1.197 11.864 2.295 14.192 4.271 2.847 14.097-7.015 14-14.192-.052-3.856-3.648-6.983-8.147-6.983z" fill="#72C472"/></g><path fill="#1A66A7" d="M.86 13.75l60.89 46.16-16.436 6.775L.859 23.015z"/><path fill="#1574C4" d="M.86 44.107v9.466L61.825 7.05 45.668.388z"/></g><rect x="2" y="2" width="96" height="96" rx="48" stroke="#0078D4" stroke-width="4"/></g></svg>