<svg xmlns="http://www.w3.org/2000/svg" xmlns:xlink="http://www.w3.org/1999/xlink" viewBox="0 0 100 100"><defs><filter x="-1.6%" y="-1.4%" width="103.1%" height="105.7%" filterUnits="objectBoundingBox" id="a"><feOffset dy="2" in="SourceAlpha" result="shadowOffsetOuter1"/><feColorMatrix values="0 0 0 0 0 0 0 0 0 0 0 0 0 0 0 0 0 0 0.103204257 0" in="shadowOffsetOuter1" result="shadowMatrixOuter1"/><feMerge><feMergeNode in="shadowMatrixOuter1"/><feMergeNode in="SourceGraphic"/></feMerge></filter><path d="M32 46c-3.85 0-7 3.15-7 7s3.15 7 7 7 7-3.15 7-7-3.15-7-7-7zm-4 5c0-.55.45-1 1-1s1 .45 1 1-.45 1-1 1-1-.45-1-1zm7.35 5.05c-.9.9-2.15 1.4-3.35 1.4-1.2 0-2.45-.45-3.35-1.4-.2-.2-.2-.5 0-.7.2-.2.5-.2.7 0 1.451 1.45 3.85 1.45 5.3 0 .2-.2.5-.2.7 0 .2.2.2.5 0 .7zM35 52c-.55 0-1-.45-1-1s.45-1 1-1 1 .45 1 1-.45 1-1 1z" id="c"/><filter x="-1.8%" y="-5.4%" width="103.6%" height="107.1%" filterUnits="objectBoundingBox" id="b"><feOffset dy="-.5" in="SourceAlpha" result="shadowOffsetOuter1"/><feColorMatrix values="0 0 0 0 0 0 0 0 0 0 0 0 0 0 0 0 0 0 0.403419384 0" in="shadowOffsetOuter1"/></filter></defs><g fill="none" fill-rule="evenodd"><rect fill="#55A2FF" x="2" y="2" width="96" height="96" rx="48"/><g filter="url(#a)" transform="translate(18 15)"><path d="M30 24C15.87 24 6 32.252 6 44.066c0 4.63 1.545 7.338 3.802 10.348L6.078 67.45A1.997 1.997 0 0 0 8 70c.325 0 .651-.079.948-.238l14.064-7.568c2.303.738 4.705.806 6.988.806 14.356 0 24-7.608 24-18.934C54 32.252 44.131 24 30 24" fill="#30404D"/><path d="M32 0C14.355 0 0 14.355 0 32c0 17.644 14.355 32 32 32s32-14.356 32-32C64 14.355 49.645 0 32 0" fill="#546670"/><path d="M59.821 28.799c-1.432-12.845-11.775-23.187-24.62-24.62C18.335 2.298 4 15.506 4 32c0 .335.014.667.025 1 .49-13.845 11.073-25.166 24.601-26.798A3.011 3.011 0 0 1 32 9.187v27.798a4.985 4.985 0 0 1-4.953-4.485c-.023.225-.052.448-.044.68a4.992 4.992 0 0 0 3.546 4.59c.853.259 1.451 1.024 1.451 1.916V60c16.494 0 29.702-14.335 27.821-31.201" fill="#405563"/><path d="M57 32c0-.023-.012-.043-.013-.065-.016-6.38-2.452-12.755-7.309-17.613-4.857-4.856-11.231-7.292-17.611-7.308C32.044 7.012 32.024 7 32 7c-.024 0-.044.012-.067.014-6.38.017-12.754 2.452-17.611 7.308C9.465 19.18 7.03 25.555 7.013 31.935 7.012 31.957 7 31.977 7 32s.012.043.013.064c.016 6.379 2.451 12.753 7.306 17.61l.003.006a.999.999 0 0 0 1.414 0l2.828-2.829a1 1 0 1 0-1.414-1.415l-2.084 2.085A22.877 22.877 0 0 1 9.059 33H12a1 1 0 1 0 0-2H9.059a22.883 22.883 0 0 1 6.006-14.521l2.086 2.086a.993.993 0 0 0 .707.293.999.999 0 0 0 .707-1.707l-2.086-2.086A22.879 22.879 0 0 1 31 9.059V12a1 1 0 1 0 2 0V9.059a22.879 22.879 0 0 1 14.521 6.006l-2.086 2.087a.999.999 0 1 0 1.414 1.414l2.087-2.087A22.887 22.887 0 0 1 54.941 31H52a1 1 0 1 0 0 2h2.941a22.881 22.881 0 0 1-6.006 14.521l-2.086-2.086a1 1 0 0 0-1.414 1.415l2.828 2.828a.999.999 0 0 0 .707.293h.001a.999.999 0 0 0 .707-.293c4.857-4.858 7.292-11.233 7.309-17.614.001-.021.013-.041.013-.064" fill="#E1E4E1"/><path d="M48.806 58.415l-9.563-13.288C38.67 43.957 37.283 43 36.158 43h-9.2c-1.123 0-2.484.976-3.022 2.17L15 58.173C19.973 61.865 25.818 64 32.07 64c6.113 0 11.837-2.042 16.736-5.585z" fill="#30404D"/><path d="M34.016 27.761c-.083-.059-.162-.118-.248-.171v-.001c5.22-1.059 14.734-2.876 15.03-2.133.281.703-7.8 5.096-12.909 7.789v-.004a5.027 5.027 0 0 0 .168-2.065 4.853 4.853 0 0 0-.27-1.127c-.037-.096-.082-.19-.124-.283a4.718 4.718 0 0 0-.443-.79 4.885 4.885 0 0 0-.563-.692 4.7 4.7 0 0 0-.641-.523z" fill="#DF5142"/><path d="M32 27c-2.757 0-5 2.243-5 5s2.243 5 5 5 5-2.243 5-5-2.243-5-5-5m1-15V9.059a22.879 22.879 0 0 1 14.521 6.006l-2.086 2.087a.999.999 0 1 0 1.414 1.414l2.087-2.087A22.887 22.887 0 0 1 54.941 31H52a1 1 0 1 0 0 2h2.941a22.881 22.881 0 0 1-6.006 14.521l-2.086-2.086a1 1 0 0 0-1.414 1.415l2.828 2.828a.999.999 0 0 0 .707.293h.001a.999.999 0 0 0 .707-.293c4.857-4.858 7.292-11.233 7.309-17.613.001-.022.013-.042.013-.065s-.012-.043-.013-.065c-.016-6.38-2.452-12.755-7.309-17.613-4.857-4.856-11.231-7.292-17.611-7.308C32.044 7.012 32.024 7 32 7v6a1 1 0 0 0 1-1" fill="#C5CCCD"/><path d="M32 60C16.561 60 4 47.439 4 32S16.561 4 32 4s28 12.561 28 28-12.561 28-28 28zm0-60C14.355 0 0 14.355 0 32c0 17.644 14.355 32 32 32s32-14.356 32-32C64 14.355 49.645 0 32 0z" fill="#30404D"/><path d="M35.534 28.477l-7.051 7.05c.044.043.075.094.12.136a5.006 5.006 0 0 0 7.067-.256c1.835-1.974 1.754-5.039-.136-6.93" fill="#ACB8C0"/><path d="M32 30c-1.102 0-2 .897-2 2 0 1.102.898 2 2 2 1.103 0 2-.898 2-2 0-1.103-.897-2-2-2" fill="#546670"/><use fill="#000" filter="url(#b)" xlink:href="#c"/><use fill="#EEC360" xlink:href="#c"/></g><rect x="2" y="2" width="96" height="96" rx="48" stroke="#0078D4" stroke-width="4"/></g></svg>