<svg xmlns="http://www.w3.org/2000/svg" xmlns:xlink="http://www.w3.org/1999/xlink" viewBox="0 0 100 100"><defs><rect id="a" x="0" y="0" width="96" height="96" rx="48"/><filter x="-5.2%" y="-8.7%" width="110.4%" height="117.4%" filterUnits="objectBoundingBox" id="b"><feOffset dy="2" in="SourceAlpha" result="shadowOffsetOuter1"/><feColorMatrix values="0 0 0 0 0 0 0 0 0 0 0 0 0 0 0 0 0 0 0.101590806 0" in="shadowOffsetOuter1" result="shadowMatrixOuter1"/><feMerge><feMergeNode in="shadowMatrixOuter1"/><feMergeNode in="SourceGraphic"/></feMerge></filter></defs><g fill="none" fill-rule="evenodd"><g transform="translate(2 2)"><mask id="c" fill="#fff"><use xlink:href="#a"/></mask><use fill="#55A2FF" xlink:href="#a"/><g filter="url(#b)" mask="url(#c)"><path d="M9.5 62.391v2.4c0 2.639 2.16 4.798 4.799 4.798h67.184c2.64 0 4.8-2.16 4.8-4.799v-2.399H9.5" fill="#E1E4E1"/><path d="M21.497 24a4.813 4.813 0 0 0-4.799 4.799V62.39h62.386V28.799c0-2.64-2.16-4.799-4.8-4.799H21.498zm52.788 2.4c1.322 0 2.4 1.076 2.4 2.399v31.193H19.097V28.799c0-1.323 1.076-2.4 2.4-2.4h52.787z" fill="#182A37"/><path d="M19.098 28.799c0-1.323 1.076-2.4 2.4-2.4h52.787c1.322 0 2.4 1.077 2.4 2.4v31.193H19.097V28.799" fill="#30404D"/><path d="M21.497 26.4h25.661l-11.73 33.592h-16.33V28.799c0-1.323 1.076-2.4 2.4-2.4" fill="#384B58"/><path d="M21.497 24h26.394l-.733 2.4h-25.66a2.402 2.402 0 0 0-2.4 2.399v31.193h16.33l-.734 2.399H16.698V28.799c0-2.64 2.16-4.799 4.8-4.799" fill="#30404D"/><path d="M45.492 67.19H10.17c.833 1.425 2.365 2.4 4.128 2.4h67.184c2.64 0 4.8-2.16 4.8-4.8v-2.399H47.89v2.4c0 1.325-1.074 2.399-2.4 2.399" fill="#CDD6D8"/><path d="M43.092 64.79h9.598a2.4 2.4 0 0 0 2.4-2.399H40.692a2.4 2.4 0 0 0 2.4 2.4" fill="#AAB0B1"/></g><path d="M27.5 32H36v3h-8.5a1.5 1.5 0 0 1 0-3z" fill="#EFB252" fill-rule="nonzero" opacity=".8" mask="url(#c)"/><path fill="#7CB65A" fill-rule="nonzero" opacity=".8" mask="url(#c)" d="M36 32h9v3h-9z"/><path d="M45 32h23.5a1.5 1.5 0 0 1 0 3H45v-3z" fill="#0082BA" fill-rule="nonzero" opacity=".8" mask="url(#c)"/><path d="M27.5 52H36v3h-8.5a1.5 1.5 0 0 1 0-3z" fill="#DF5142" fill-rule="nonzero" opacity=".8" mask="url(#c)"/><path fill="#7CB65A" fill-rule="nonzero" opacity=".8" mask="url(#c)" d="M36 52h9v3h-9z"/><path d="M45 52h18.5a1.5 1.5 0 0 1 0 3H45v-3z" fill="#0082BA" fill-rule="nonzero" opacity=".8" mask="url(#c)"/><path d="M37.5 39H45v3h-7.5a1.5 1.5 0 0 1 0-3z" fill="#7CB65A" fill-rule="nonzero" opacity=".8" mask="url(#c)"/><path d="M45 39h18.5a1.5 1.5 0 0 1 0 3H45v-3z" fill="#EFB252" fill-rule="nonzero" opacity=".8" mask="url(#c)"/><path fill="#0082BA" fill-rule="nonzero" opacity=".8" mask="url(#c)" d="M30 45h40v3H30z"/></g><rect x="2" y="2" width="96" height="96" rx="48" stroke="#0078D4" stroke-width="4"/></g></svg>