<svg xmlns="http://www.w3.org/2000/svg" xmlns:xlink="http://www.w3.org/1999/xlink" viewBox="0 0 100 100" version="1.1"><!-- Generator: Sketch 51.3 (57544) - http://www.bohemiancoding.com/sketch --><title>get-started-with-the-common-data-service</title><desc>Created with Sketch.</desc><defs><rect id="path-1" x="0" y="0" width="96" height="96" rx="48"></rect></defs><g id="Badges-FINAL" stroke="none" stroke-width="1" fill="none" fill-rule="evenodd"><g id="Create-an-app-that-models-business-processes" transform="translate(-579.000000, -565.000000)"><g id="get-started-with-the-common-data-service" transform="translate(579.000000, 565.000000)"><g id="Mask" transform="translate(2.000000, 2.000000)"><mask id="mask-2" fill="white"><use xlink:href="#path-1"></use></mask><use id="BG" fill="#C0DDF4" xlink:href="#path-1"></use><g id="Icon" mask="url(#mask-2)"><g transform="translate(-4.000000, 4.000000)"><path d="M65.3100743,44.7509222 C99.5755908,33.6426201 0,34.5669259 0,34.5669259 L9.37205805,24.5342084 C9.37205805,24.5342084 122.125815,27.0425858 93.1319165,43.4107976 C53.6079612,65.7248223 90.246022,91.7249815 90.246022,91.7249815 L2.63580896,91.7249815 C21.5749749,67.8144767 42.4663967,52.156457 65.3100743,44.7509222 Z" id="Path" fill="#6B6B6B"></path><path d="M16.0656,8.0518 C16.0006,7.7518 15.9626,7.4398 15.9626,7.1208 C15.9646,4.7398 17.8966,2.8138 20.2766,2.8148 C20.9316,2.8158 21.5506,2.9678 22.1066,3.2308 C22.5906,1.3778 24.2716,0.0098 26.2756,0.0118 C28.6556,0.0138 30.5836,1.9448 30.5806,4.3258 C30.5806,4.6938 30.5286,5.0498 30.4406,5.3918 C30.7366,5.3438 31.0366,5.3128 31.3446,5.3138 C34.4496,5.3158 36.9626,7.8358 36.9606,10.9398 C36.9576,14.0448 34.4376,16.5588 31.3336,16.5548 L15.0156,16.5378 C12.6356,16.5348 10.7096,14.6048 10.7116,12.2238 C10.7136,9.8438 12.6446,7.9168 15.0256,7.9188 C15.3846,7.9198 15.7316,7.9688 16.0656,8.0518 Z" id="Fill-3984" fill="#FFFFFF"></path><path d="M71.2756,14.4188 C71.6346,14.4198 71.9816,14.4688 72.3156,14.5518 C72.2506,14.2518 72.2126,13.9398 72.2126,13.6208 C72.2146,11.2398 74.1466,9.3138 76.5266,9.3148 C77.1816,9.3158 77.8006,9.4678 78.3566,9.7308 C78.8406,7.8778 80.5216,6.5098 82.5256,6.5118 C84.9056,6.5138 86.8336,8.4448 86.8306,10.8258 C86.8306,11.1938 86.7786,11.5498 86.6906,11.8918 C86.9866,11.8438 87.2866,11.8128 87.5946,11.8138 C90.6996,11.8158 93.2126,14.3358 93.2106,17.4398 C93.2076,20.5448 90.6876,23.0588 87.5836,23.0548 L71.2656,23.0378 C68.8856,23.0348 66.9596,21.1048 66.9616,18.7238 C66.9636,16.3438 68.8946,14.4168 71.2756,14.4188" id="Fill-4041" fill="#FFFFFF"></path><g id="Paint" stroke-width="1" fill="none" transform="translate(42.000000, 44.000000)"><path d="M29.6213,30.1658429 C29.6213,31.731065 22.9904431,33 14.81065,33 C6.63085685,33 0,31.731065 0,30.1658429 C0,28.601835 6.63085685,27.3329 14.81065,27.3329 C22.9904431,27.3329 29.6213,28.601835 29.6213,30.1658429" id="Shadow" fill="#000000" opacity="0.400000006"></path><path d="M14.8352,4.4559 L14.8352,27.0549 C14.8352,29.3709 20.0932,31.3109 26.5412,31.3109 L26.5412,4.4559 L14.8352,4.4559 Z" id="Fill-4047" fill="#3999C6"></path><path d="M26.3537,31.3114 L26.5407,31.3114 C33.0517,31.3114 38.2487,29.4334 38.2487,27.0544 L38.2487,4.4564 L26.3537,4.4564 L26.3537,31.3114 Z" id="Fill-4050" fill="#59B4D9"></path><path d="M38.2483,4.4559 C38.2483,6.7719 32.9893,8.7129 26.5413,8.7129 C20.0933,8.7129 14.8353,6.8349 14.8353,4.4559 C14.8353,2.0769 20.0303,0.2619 26.5413,0.2619 C33.0523,0.2619 38.2483,2.1399 38.2483,4.4559" id="Fill-4053" fill="#FFFFFF"></path><path d="M35.8694,4.2675 C35.8694,5.7705 31.6754,7.0225 26.5414,7.0225 C21.4084,7.0225 17.2144,5.7705 17.2144,4.2055 C17.2144,2.6405 21.4084,1.3885 26.5414,1.3885 C31.6754,1.4515 35.8694,2.7035 35.8694,4.2675" id="Fill-4056" fill="#7FBA00"></path><path d="M33.9279,5.9579 C35.1799,5.4569 35.8689,4.8939 35.8689,4.2679 C35.8689,2.7029 31.6749,1.4509 26.5409,1.4509 C21.4079,1.4509 17.2139,2.7029 17.2139,4.2679 C17.2139,4.8939 17.9649,5.5199 19.1549,5.9579 C20.8449,5.2699 23.5359,4.8939 26.5409,4.8939 C29.5459,4.8309 32.2389,5.2699 33.9279,5.9579" id="Fill-4059" fill="#B8D432"></path><path d="M25.4768,13.0946 C25.9148,13.5326 26.2288,14.0336 26.4788,14.4716 C26.6658,14.7846 26.9168,15.5986 27.2298,16.9766 L28.4188,15.2236 C28.7328,14.7846 29.1078,14.4086 29.5458,14.0336 C29.9848,13.6576 30.3598,13.4076 30.7358,13.2196 C30.9228,13.1566 31.1738,13.0946 31.4238,13.0946 C31.7998,13.0946 32.1128,13.2196 32.3008,13.4076 C32.5508,13.5956 32.6138,13.8456 32.6138,14.1586 C32.6138,14.4716 32.5508,14.7226 32.4258,14.8476 C32.1748,15.0346 31.9248,15.1606 31.6128,15.1606 C31.4238,15.1606 31.2368,15.0976 31.0488,15.0346 C30.6108,14.9096 30.3598,14.8476 30.2348,14.8476 C30.0468,14.8476 29.7958,14.9726 29.4838,15.2236 C28.9198,15.6606 28.2938,16.5376 27.5428,17.8526 L28.6078,22.3596 C28.7948,23.0486 28.9198,23.4866 29.0448,23.6126 C29.1698,23.7376 29.2958,23.7996 29.3588,23.7996 C29.5458,23.7996 29.7338,23.6746 29.9848,23.4866 C30.4858,23.1116 30.8608,22.5476 31.2368,21.9216 L31.6748,22.1716 C31.1118,23.2366 30.4228,24.0496 29.5458,24.7386 C29.0448,25.1146 28.6698,25.3016 28.2938,25.3016 C27.7928,25.3016 27.4178,25.0516 27.1048,24.4886 C26.9168,24.1746 26.5408,22.6726 25.9778,20.0436 C24.6008,22.4226 23.5368,23.9246 22.6608,24.6136 C22.0968,25.0516 21.5958,25.3016 21.0948,25.3016 C20.7188,25.3016 20.4068,25.1766 20.1558,24.9266 C19.9678,24.7386 19.8428,24.4886 19.8428,24.1746 C19.8428,23.8626 19.9678,23.6746 20.1558,23.4236 C20.3438,23.2366 20.5938,23.1116 20.8448,23.1116 C21.0948,23.1116 21.4088,23.2366 21.7208,23.5486 C21.9708,23.7376 22.0968,23.8626 22.2218,23.8626 C22.3468,23.8626 22.4718,23.7996 22.6608,23.6746 C23.0978,23.3616 23.6618,22.6106 24.3498,21.5456 C25.0398,20.4816 25.5388,19.6676 25.7278,19.1666 C25.1648,17.0386 24.9138,15.9116 24.8508,15.7866 C24.6638,15.2236 24.4138,14.7846 24.0378,14.5976 C23.6618,14.4086 23.2238,14.2216 22.5978,14.2216 L21.9088,14.2216 L21.9088,13.7206 L25.4768,13.0946 Z" id="Fill-4071" fill="#FFFFFF"></path></g><g id="Light" stroke-width="1" fill="none" transform="translate(12.000000, 1.000000)"><path d="M29.7112,31.0321 L31.2562,31.0321 L34.2732,21.6861 L28.4702,21.6861 C29.2472,22.7511 29.7112,24.0571 29.7112,25.4761 L29.7112,31.0321 Z" id="Fill-3990" fill="#293038"></path><path d="M18.0754,21.6864 L12.0514,21.6864 L15.1414,31.0324 L16.8344,31.0324 L16.8344,25.4764 C16.8344,24.0574 17.2984,22.7504 18.0754,21.6864" id="Fill-3993" fill="#3D4349"></path><polygon id="Fill-3996" fill="#3D4349" points="12.051 31.9882 15.069 41.4802 16.834 41.4802 16.834 31.9882"></polygon><polygon id="Fill-3999" fill="#293038" points="31.0354 41.4803 34.3474 31.9883 29.7114 31.9883 29.7114 41.4803"></polygon><path d="M16.8342,42.5848 L12.1252,42.5848 L15.0682,51.9298 L18.0212,51.9298 C17.2762,50.8788 16.8342,49.5988 16.8342,48.2138 L16.8342,42.5848 Z" id="Fill-4002" fill="#3D4349"></path><path d="M29.7112,48.2137 C29.7112,49.5987 29.2702,50.8787 28.5242,51.9297 L31.1832,51.9297 L34.3472,42.5847 L29.7112,42.5847 L29.7112,48.2137 Z" id="Fill-4005" fill="#293038"></path><path d="M24.1926,19.5526 L24.1926,17.7496 C24.1926,17.2006 23.7476,16.7566 23.1996,16.7566 C22.6506,16.7566 22.2056,17.2006 22.2056,17.7496 L22.2056,19.4796" id="Fill-4008" fill="#293038"></path><path d="M21.0949,8.8837 C21.0949,10.0667 22.0529,11.0247 23.2359,11.0247 C24.4179,11.0247 25.3769,10.0667 25.3769,8.8837 C25.3769,7.7007 24.4179,6.7417 23.2359,6.7417 C22.0529,6.7417 21.0949,7.7007 21.0949,8.8837" id="Fill-4011" fill="#293038"></path><path d="M23.2356,8.8837 L23.2356,17.9997" id="Stroke-4014" stroke="#293038"></path><path d="M23.2043,51.9178 C20.6033,51.9178 18.4953,49.8098 18.4953,47.2088 C18.4953,44.6078 20.6033,42.4988 23.2043,42.4988 C23.2273,42.4988 23.2493,42.5058 23.2723,42.5068 L23.2723,41.5608 C23.2493,41.5608 23.2273,41.5668 23.2043,41.5668 C20.6033,41.5668 18.4953,39.4588 18.4953,36.8578 C18.4953,34.2568 20.6033,32.1478 23.2043,32.1478 C23.2273,32.1478 23.2493,32.1548 23.2723,32.1548 L23.2723,31.1048 C23.2493,31.1048 23.2273,31.1098 23.2043,31.1098 C20.6033,31.1098 18.4953,29.0028 18.4953,26.4008 C18.4953,23.8008 20.6033,21.6918 23.2043,21.6918 C23.2273,21.6918 23.2493,21.6988 23.2723,21.6988 L23.2723,19.0378 C21.1353,19.0378 19.2463,20.0838 18.0753,21.6868 C17.2983,22.7508 16.8343,24.0578 16.8343,25.4768 L16.8343,31.0318 L16.8343,31.9878 L16.8343,41.4798 L16.8343,42.5848 L16.8343,48.2138 C16.8343,49.5988 17.2763,50.8788 18.0203,51.9298 C19.1863,53.5748 21.1023,54.6518 23.2723,54.6518 L23.2723,51.9108 C23.2493,51.9108 23.2273,51.9178 23.2043,51.9178" id="Fill-4017" fill="#3D4349"></path><path d="M28.4699,21.6864 C27.2989,20.0834 25.4099,19.0384 23.2729,19.0384 L23.2729,21.6994 C25.8409,21.7374 27.9129,23.8244 27.9129,26.4014 C27.9129,28.9794 25.8409,31.0664 23.2729,31.1044 L23.2729,32.1554 C25.8409,32.1934 27.9129,34.2804 27.9129,36.8584 C27.9129,39.4354 25.8409,41.5224 23.2729,41.5604 L23.2729,42.5064 C25.8409,42.5434 27.9129,44.6314 27.9129,47.2084 C27.9129,49.7864 25.8409,51.8734 23.2729,51.9114 L23.2729,54.6524 C25.4429,54.6524 27.3589,53.5754 28.5249,51.9294 C29.2699,50.8784 29.7109,49.5984 29.7109,48.2134 L29.7109,42.5844 L29.7109,41.4804 L29.7109,31.9884 L29.7109,31.0324 L29.7109,25.4764 C29.7109,24.0574 29.2469,22.7504 28.4699,21.6864" id="Fill-4020" fill="#293038"></path><path d="M27.9133,26.4012 C27.9133,29.0032 25.8053,31.1112 23.2043,31.1102 C23.1813,31.1102 23.1593,31.1042 23.1363,31.1042 L23.1363,21.6992 C23.1593,21.6992 23.1813,21.6922 23.2043,21.6922 C25.8053,21.6922 27.9133,23.8002 27.9133,26.4012" id="Fill-4023" fill="#B72323"></path><path d="M18.4953,26.4012 C18.4953,23.8242 20.5673,21.7362 23.1363,21.6992 L23.1363,31.1042 C20.5673,31.0662 18.4953,28.9782 18.4953,26.4012" id="Fill-4026" fill="#AA1111"></path><path d="M27.9133,36.8583 C27.9133,39.4593 25.8053,41.5673 23.2043,41.5673 C23.1813,41.5673 23.1593,41.5603 23.1363,41.5603 L23.1363,32.1553 C23.1593,32.1553 23.1813,32.1483 23.2043,32.1483 C25.8053,32.1483 27.9133,34.2563 27.9133,36.8583" id="Fill-4029" fill="#A58A16"></path><path d="M18.4953,36.8573 C18.4953,34.2803 20.5673,32.1933 23.1363,32.1553 L23.1363,41.5603 C20.5673,41.5223 18.4953,39.4353 18.4953,36.8573" id="Fill-4032" fill="#977A00"></path><path d="M27.9133,47.2089 C27.9133,49.8099 25.8053,51.9179 23.2043,51.9179 C23.1813,51.9179 23.1593,51.9109 23.1363,51.9109 L23.1363,42.5069 C23.1593,42.5059 23.1813,42.4989 23.2043,42.4989 C25.8053,42.4999 27.9133,44.6079 27.9133,47.2089" id="Fill-4035" fill="#76FF00"></path><path d="M18.4953,47.2089 C18.4953,44.6319 20.5673,42.5439 23.1363,42.5069 L23.1363,51.9109 C20.5673,51.8739 18.4953,49.7859 18.4953,47.2089" id="Fill-4038" fill="#81E027"></path><path d="M75.8713,0.3329 C75.8713,0.3329 50.1003,8.9339 23.2353,8.8839 C23.2353,8.8839 7.6213,8.5829 0.1213,3.3329" id="Stroke-4074" stroke="#293038"></path></g></g></g></g><g id="Azure-Border" stroke="#0078D4" stroke-width="4"><rect x="2" y="2" width="96" height="96" rx="48"></rect></g></g></g></g></svg>