<svg xmlns="http://www.w3.org/2000/svg" xmlns:xlink="http://www.w3.org/1999/xlink" viewBox="0 0 100 100"><defs><rect id="a" x="0" y="0" width="96" height="96" rx="48"/><filter x="-7.4%" y="-12.9%" width="114.8%" height="125.8%" filterUnits="objectBoundingBox" id="c"><feOffset dy="2" in="SourceAlpha" result="shadowOffsetOuter1"/><feColorMatrix values="0 0 0 0 0 0 0 0 0 0 0 0 0 0 0 0 0 0 0.100118886 0" in="shadowOffsetOuter1" result="shadowMatrixOuter1"/><feMerge><feMergeNode in="shadowMatrixOuter1"/><feMergeNode in="SourceGraphic"/></feMerge></filter><filter x="-8.9%" y="-10.3%" width="117.8%" height="120.5%" filterUnits="objectBoundingBox" id="d"><feOffset dy="2" in="SourceAlpha" result="shadowOffsetOuter1"/><feColorMatrix values="0 0 0 0 0 0 0 0 0 0 0 0 0 0 0 0 0 0 0.100118886 0" in="shadowOffsetOuter1" result="shadowMatrixOuter1"/><feMerge><feMergeNode in="shadowMatrixOuter1"/><feMergeNode in="SourceGraphic"/></feMerge></filter></defs><g fill="none" fill-rule="evenodd"><g transform="translate(2 2)"><mask id="b" fill="#fff"><use xlink:href="#a"/></mask><use fill="#01B6C3" xlink:href="#a"/><g mask="url(#b)"><g filter="url(#c)" transform="translate(21.28 44.893)"><path d="M51.118 26.72H2.324a2.324 2.324 0 0 1 0-4.646h48.794a2.324 2.324 0 0 1 0 4.647" fill="#182A37"/><path fill="#182A37" d="M23.236 24.397h6.97V0h-6.97z"/><path d="M23.236 2.322v1.162h2.323c.641 0 1.162.52 1.162 1.162v13.941h3.485V2.322h-6.97M0 24.397a2.324 2.324 0 0 0 2.324 2.324h48.794a2.324 2.324 0 0 0 2.324-2.324H0" fill="#12202B"/><path d="M36.015 29.044c0 .64-.523 1.162-1.162 1.162H18.588a1.165 1.165 0 0 1-1.161-1.162V19.75c0-.639.522-1.162 1.161-1.162h16.265c.64 0 1.162.523 1.162 1.162v9.294" fill="#30404D"/><path d="M34.853 18.588h-8.132v6.97a2.323 2.323 0 0 1-2.324 2.324h-6.97v1.162c0 .64.522 1.162 1.161 1.162h16.265c.64 0 1.162-.523 1.162-1.162V19.75c0-.639-.523-1.162-1.162-1.162" fill="#182A37"/></g><g filter="url(#d)" transform="translate(25.445 20.9)"><path d="M43.03 0H1.388C.622 0 0 .622 0 1.388V27.76c0 .767.62 1.388 1.388 1.388H6.94v8.329a1.388 1.388 0 0 0 2.37.98l9.31-9.309h24.408c.767 0 1.388-.621 1.388-1.388V1.388A1.386 1.386 0 0 0 43.03 0" fill="#EFB252"/><path d="M16.657 14.574a2.776 2.776 0 1 1-5.552 0 2.776 2.776 0 0 1 5.552 0m8.328 0a2.776 2.776 0 1 1-5.552 0 2.776 2.776 0 0 1 5.552 0m8.328 0a2.776 2.776 0 1 1-5.552 0 2.776 2.776 0 0 1 5.552 0" fill="#FFFFFE"/></g></g></g><rect x="2" y="2" width="96" height="96" rx="48" stroke="#1D8E96" stroke-width="4"/></g></svg>