<svg xmlns="http://www.w3.org/2000/svg" viewBox="0 0 100 100"><defs><filter x="-1.3%" y="-2.3%" width="102.6%" height="109.1%" filterUnits="objectBoundingBox" id="a"><feOffset dy="2" in="SourceAlpha" result="shadowOffsetOuter1"/><feColorMatrix values="0 0 0 0 0 0 0 0 0 0 0 0 0 0 0 0 0 0 0.102270154 0" in="shadowOffsetOuter1" result="shadowMatrixOuter1"/><feMerge><feMergeNode in="shadowMatrixOuter1"/><feMergeNode in="SourceGraphic"/></feMerge></filter><filter x="-3.3%" y="-5.5%" width="106.7%" height="121.8%" filterUnits="objectBoundingBox" id="b"><feOffset dy="1" in="SourceAlpha" result="shadowOffsetOuter1"/><feColorMatrix values="0 0 0 0 0 0 0 0 0 0 0 0 0 0 0 0 0 0 0.204625226 0" in="shadowOffsetOuter1" result="shadowMatrixOuter1"/><feMerge><feMergeNode in="shadowMatrixOuter1"/><feMergeNode in="SourceGraphic"/></feMerge></filter></defs><g fill="none" fill-rule="evenodd"><rect fill="#F2C811" x="2" y="2" width="96" height="96" rx="48"/><g filter="url(#a)" transform="translate(11.43 27.595)"><path d="M74.241 43.617H2.727A2.734 2.734 0 0 1 0 40.891V2.726C0 1.226 1.227 0 2.727 0H74.24c1.5 0 2.726 1.227 2.726 2.726v38.165c0 1.5-1.226 2.726-2.726 2.726z" fill="#30404D"/><path d="M53.448 2.768c-10.651 0-19.316 8.55-19.316 19.06 0 10.508 8.665 19.058 19.316 19.058 10.65 0 19.316-8.55 19.316-19.059S64.099 2.768 53.448 2.768" fill="#546670"/><path d="M70.66 19.873c-.886-7.84-7.285-14.154-15.232-15.028-10.434-1.149-19.303 6.914-19.303 16.982 0 .205.009.407.016.61.303-8.45 6.85-15.361 15.22-16.358 1.108-.131 2.087.721 2.087 1.823V24.87c-1.586 0-2.905-1.189-3.064-2.738-.015.138-.033.274-.028.416.05 1.335.966 2.434 2.194 2.801.528.159.898.626.898 1.17v12.4c10.204 0 18.375-8.75 17.212-19.046" fill="#405563"/><path d="M68.914 21.827c0-.014-.007-.026-.008-.04a15.11 15.11 0 0 0-4.521-10.75c-3.005-2.965-6.949-4.452-10.896-4.462-.014-.001-.026-.008-.041-.008-.015 0-.027.007-.042.008-3.947.01-7.89 1.497-10.895 4.461a15.113 15.113 0 0 0-4.522 10.752c0 .013-.008.025-.008.04 0 .013.008.026.008.038a15.109 15.109 0 0 0 4.52 10.75l.002.004a.622.622 0 0 0 .875 0l1.75-1.727a.605.605 0 0 0 0-.864.625.625 0 0 0-.875 0l-1.29 1.273a13.868 13.868 0 0 1-3.716-8.864h1.82a.614.614 0 0 0 .618-.61.614.614 0 0 0-.618-.611h-1.82a13.872 13.872 0 0 1 3.716-8.864l1.29 1.273a.622.622 0 0 0 .875 0 .604.604 0 0 0 0-.863l-1.29-1.273a14.255 14.255 0 0 1 8.983-3.667V9.62c0 .337.277.61.619.61a.614.614 0 0 0 .618-.61V7.823a14.255 14.255 0 0 1 8.984 3.667l-1.29 1.274a.604.604 0 0 0 0 .863.62.62 0 0 0 .875 0l1.29-1.274a13.875 13.875 0 0 1 3.716 8.864h-1.82a.614.614 0 0 0-.619.61c0 .338.278.61.619.61h1.82a13.87 13.87 0 0 1-3.716 8.865l-1.29-1.274a.625.625 0 0 0-.875 0 .605.605 0 0 0 0 .864l1.75 1.726a.622.622 0 0 0 .436.18h.001c.158 0 .316-.06.438-.18a15.113 15.113 0 0 0 4.521-10.752c0-.012.008-.025.008-.039" fill="#E1E4E1"/><path d="M53.448 41.36c3.7 0 7.165-1.008 10.13-2.759l-3.932-6.566c-.347-.578-1.187-1.051-1.868-1.051h-9.28c-.68 0-1.503.482-1.829 1.072l-3.553 6.426a19.878 19.878 0 0 0 10.332 2.879" fill="#30404D"/><path d="M57.778 30.984h-4.33V41.36c3.7 0 7.165-1.01 10.13-2.76l-3.932-6.566c-.347-.578-1.187-1.051-1.868-1.051" fill="#182A37"/><path d="M57.778 35.867c0 .672-.556 1.22-1.237 1.22h-6.805c-.68 0-1.238-.548-1.238-1.22v-1.831c0-.672.557-1.221 1.238-1.221h6.805c.68 0 1.237.55 1.237 1.22v1.832" fill="#30404D"/><path d="M56.541 32.815h-6.805c-.68 0-1.238.55-1.238 1.22v.611c0-.671.557-1.22 1.238-1.22h6.805c.68 0 1.237.549 1.237 1.22v-.61c0-.672-.556-1.221-1.237-1.221" fill="#182A37"/><path d="M54.066 9.619V7.823a14.255 14.255 0 0 1 8.984 3.667l-1.29 1.274a.604.604 0 0 0 0 .863.62.62 0 0 0 .875 0l1.29-1.274a13.875 13.875 0 0 1 3.716 8.864h-1.82a.614.614 0 0 0-.619.61c0 .338.278.61.619.61h1.82a13.87 13.87 0 0 1-3.716 8.865l-1.29-1.274a.625.625 0 0 0-.875 0 .605.605 0 0 0 0 .864l1.75 1.726a.622.622 0 0 0 .436.18h.001c.158 0 .316-.06.438-.18a15.113 15.113 0 0 0 4.521-10.751c0-.013.008-.026.008-.04 0-.014-.007-.026-.008-.04a15.11 15.11 0 0 0-4.521-10.75c-3.005-2.965-6.949-4.452-10.896-4.462-.014-.001-.026-.008-.041-.008v3.662a.614.614 0 0 0 .618-.61" fill="#C5CCCD"/><path d="M53.448 38.92c-9.552 0-17.323-7.668-17.323-17.093 0-9.424 7.771-17.092 17.323-17.092 9.551 0 17.322 7.668 17.322 17.092 0 9.425-7.77 17.092-17.322 17.092zm0-36.626c-10.917 0-19.797 8.762-19.797 19.533 0 10.77 8.88 19.534 19.797 19.534 10.916 0 19.797-8.763 19.797-19.534 0-10.77-8.88-19.533-19.797-19.533z" fill="#212A31"/><g filter="url(#b)" transform="rotate(-180 32.299 13.665)"><path d="M8.094 5.996a2.8 2.8 0 0 1-.051-.502 2.944 2.944 0 0 1 .09-.7c.03-.128.07-.253.117-.374.023-.059.044-.118.07-.176a2.95 2.95 0 0 1 .466-.711 3.09 3.09 0 0 1 .886-.711l.001-.001C6.26 1.778.803.186.62.61c-.195.448 4.762 3.77 7.508 5.567v-.001c-.014-.06-.023-.12-.033-.18" fill="#DF5142"/><path d="M11.136 2.442c-1.706 0-3.093 1.369-3.093 3.052s1.387 3.052 3.093 3.052 3.093-1.37 3.093-3.052c0-1.683-1.387-3.052-3.093-3.052" fill="#C5CCCD"/></g><path d="M55.634 19.677l-4.362 4.303c.027.026.046.058.074.083a3.126 3.126 0 0 0 4.372-.156 3.021 3.021 0 0 0-.084-4.23" fill="#ACB8C0"/><path d="M53.448 20.606a1.23 1.23 0 0 0-1.238 1.221c0 .673.556 1.221 1.238 1.221a1.23 1.23 0 0 0 1.237-1.22 1.23 1.23 0 0 0-1.237-1.222" fill="#546670"/><path d="M10.478 40.21h-6.06c-.558 0-1.01-.611-1.01-1.363 0-.753.452-1.363 1.01-1.363h6.06c.557 0 1.01.61 1.01 1.363 0 .752-.453 1.363-1.01 1.363m0-5.453h-6.06c-.558 0-1.01-.61-1.01-1.363 0-.752.452-1.363 1.01-1.363h6.06c.557 0 1.01.611 1.01 1.363 0 .753-.453 1.363-1.01 1.363" fill="#33A991"/><path d="M10.478 29.305h-6.06c-.558 0-1.01-.61-1.01-1.363 0-.752.452-1.363 1.01-1.363h6.06c.557 0 1.01.61 1.01 1.363s-.453 1.363-1.01 1.363m0-5.452h-6.06c-.558 0-1.01-.61-1.01-1.363 0-.752.452-1.363 1.01-1.363h6.06c.557 0 1.01.61 1.01 1.363s-.453 1.363-1.01 1.363" fill="#EFB252"/><path d="M20.577 40.21h-6.06c-.557 0-1.01-.611-1.01-1.363 0-.753.453-1.363 1.01-1.363h6.06c.558 0 1.01.61 1.01 1.363 0 .752-.452 1.363-1.01 1.363m0-5.453h-6.06c-.557 0-1.01-.61-1.01-1.363 0-.752.453-1.363 1.01-1.363h6.06c.558 0 1.01.611 1.01 1.363 0 .753-.452 1.363-1.01 1.363" fill="#33A991"/><path d="M20.577 18.401h-6.06c-.557 0-1.01-.61-1.01-1.363 0-.752.453-1.363 1.01-1.363h6.06c.558 0 1.01.61 1.01 1.363 0 .752-.452 1.363-1.01 1.363m0-5.452h-6.06c-.557 0-1.01-.61-1.01-1.363s.453-1.363 1.01-1.363h6.06c.558 0 1.01.61 1.01 1.363 0 .752-.452 1.363-1.01 1.363" fill="#DF5142"/><path d="M20.577 29.305h-6.06c-.557 0-1.01-.61-1.01-1.363 0-.752.453-1.363 1.01-1.363h6.06c.558 0 1.01.61 1.01 1.363s-.452 1.363-1.01 1.363m0-5.452h-6.06c-.557 0-1.01-.61-1.01-1.363 0-.752.453-1.363 1.01-1.363h6.06c.558 0 1.01.61 1.01 1.363s-.452 1.363-1.01 1.363" fill="#EFB252"/><path d="M30.677 40.21h-6.06c-.558 0-1.01-.611-1.01-1.363 0-.753.452-1.363 1.01-1.363h6.06c.557 0 1.01.61 1.01 1.363 0 .752-.453 1.363-1.01 1.363m0-5.453h-6.06c-.558 0-1.01-.61-1.01-1.363 0-.752.452-1.363 1.01-1.363h6.06c.557 0 1.01.611 1.01 1.363 0 .753-.453 1.363-1.01 1.363" fill="#33A991"/></g><rect x="2" y="2" width="96" height="96" rx="48" stroke="#0078D4" stroke-width="4"/></g></svg>