<svg xmlns="http://www.w3.org/2000/svg" xmlns:xlink="http://www.w3.org/1999/xlink" viewBox="0 0 100 100" version="1.1"><!-- Generator: Sketch 51.3 (57544) - http://www.bohemiancoding.com/sketch --><title>choose-a-messaging-model-in-azure-to-loosely-connect-your-services</title><desc>Created with Sketch.</desc><defs><filter x="-1.1%" y="-2.3%" width="102.3%" height="109.1%" filterUnits="objectBoundingBox" id="filter-1"><feOffset dx="0" dy="2" in="SourceAlpha" result="shadowOffsetOuter1"></feOffset><feColorMatrix values="0 0 0 0 0   0 0 0 0 0   0 0 0 0 0  0 0 0 0.0999490489 0" type="matrix" in="shadowOffsetOuter1" result="shadowMatrixOuter1"></feColorMatrix><feMerge><feMergeNode in="shadowMatrixOuter1"></feMergeNode><feMergeNode in="SourceGraphic"></feMergeNode></feMerge></filter><polygon id="path-2" points="50.1804486 57.3372767 57.4681382 50.1686383 50.1804486 43 50.1804486 46.5467661 43.5 46.5467661 43.5 53.7905106 50.1804486 53.7905106"></polygon><filter x="-7.2%" y="-7.0%" width="114.3%" height="127.9%" filterUnits="objectBoundingBox" id="filter-3"><feOffset dx="0" dy="2" in="SourceAlpha" result="shadowOffsetOuter1"></feOffset><feColorMatrix values="0 0 0 0 0   0 0 0 0 0   0 0 0 0 0  0 0 0 0.104704484 0" type="matrix" in="shadowOffsetOuter1"></feColorMatrix></filter></defs><g id="Badges-FINAL" stroke="none" stroke-width="1" fill="none" fill-rule="evenodd"><g id="Connecting-Web-&amp;-Services" transform="translate(-578.000000, -430.000000)"><g id="choose-a-messaging-model-in-azure-to-loosely-connect-your-services" transform="translate(578.000000, 430.000000)"><rect id="BG" fill="#55A2FF" x="2" y="2" width="96" height="96" rx="48"></rect><g id="Apples" filter="url(#filter-1)" transform="translate(6.500000, 26.000000)"><g id="Green-Apple" transform="translate(45.000000, 0.000000)"><path d="M19.9047813,7.42040361 C20.0541945,5.6841741 18.7230585,4.44412431 17.2912485,3.01151525 C16.5745444,2.29561021 16.4866543,1.42310095 16.7423347,1.09311348 C17.0938952,0.640079824 17.676367,0.465098571 18.2045068,0.649667837 C18.7398376,0.836634107 18.7230585,0.863001145 19.4405616,1.57890618 C22.3057797,3.72821928 22.6229832,6.43683319 22.6094002,8.70519746 C22.6054051,9.38994145 22.6141942,10.0746854 22.6165912,10.7594294 C22.5646561,11.4321884 22.7156673,12.1345104 22.3153677,12.7553343 C21.4931955,13.3857462 20.7461295,13.3945352 20.1708486,12.7848973 C19.9111733,12.5092419 19.8208861,12.1760585 19.8160921,11.8117139 C19.8120971,11.4409774 19.8168911,11.0710399 19.8176901,10.7003033 C19.9143693,9.60886776 19.9031832,8.51423619 19.9047813,7.42040361" id="Fill-2715" fill="#6D5225"></path><path d="M40.5329136,14.5045076 C39.6068713,12.661212 38.2853234,11.1942459 36.3669216,10.3313246 C36.3157855,10.2993646 36.2662475,10.2594145 36.2111164,10.2370425 C33.3962353,9.10965184 30.4774841,8.88832853 27.4980088,9.25507005 C25.7849503,9.46440836 24.174164,10.0324982 22.6161118,10.7595892 C22.5649757,11.4315492 22.7151879,12.1346702 22.3148883,12.7554941 C21.4935151,13.385906 20.7456501,13.393896 20.1711682,12.7850571 C19.9106939,12.5094017 19.8204067,12.1762183 19.8156127,11.8118737 C19.8116177,11.4411372 19.8164117,11.0711997 19.8172107,10.7004631 C19.4728412,10.5526479 19.1276727,10.4040337 18.7833032,10.2562185 C18.6259,10.1899014 18.4716928,10.1155943 18.3110936,10.0572672 C14.9880478,8.84518246 11.6146649,8.84438346 8.20612597,9.6321986 C5.42160695,10.2769925 3.40652605,11.8989649 2.11534018,14.4309995 C0.933617478,16.7489019 0.555689933,19.2473785 0.598036994,21.8057802 C0.669947098,26.2234575 1.79733772,30.3790625 3.91628878,34.2558161 C5.77556446,37.656365 8.25726205,40.424904 11.8967123,42.0021323 C13.8862252,42.8650536 15.9116931,43.5242295 18.1265243,43.2190111 C19.1836028,43.1071509 20.1487962,42.7388114 21.0197075,42.1371635 C21.2330408,41.9909463 21.363278,41.9773633 21.5854003,42.1291735 C23.2017796,43.2349911 25.0115172,43.5250285 26.8939639,43.183855 C30.9792568,42.4399849 34.3526397,40.4568641 36.8383323,37.1034562 C40.3771084,32.3302233 42.0494178,26.9337696 41.9950857,21.004382 C41.9751107,18.7408117 41.5588311,16.5451566 40.5329136,14.5045076" id="Fill-2717" fill="#6BDB6B"></path><path d="M40.5329136,14.5037086 C39.6068713,12.661212 38.2853234,11.1942459 36.3669216,10.3313246 C36.3157855,10.2993646 36.2662475,10.2594145 36.2111164,10.2370425 C33.3962353,9.10965184 30.4774841,8.88832853 27.4980088,9.25507005 C26.5967355,9.36533221 25.7242262,9.57946452 24.871692,9.85911493 C26.5312174,9.97257309 28.1651748,10.3129476 29.7631771,10.9537465 C29.8199062,10.9753195 29.8678462,11.0160686 29.9205803,11.0480286 C31.8373841,11.9109499 33.158932,13.377916 34.0857733,15.2204127 C35.1116908,17.2610616 35.5271714,19.4567168 35.5487444,21.720287 C35.6022775,27.6496746 33.9291691,33.0461284 30.391192,37.8201603 C28.5590823,40.2914708 26.241979,42.0133183 23.5165861,43.0480248 C24.5960366,43.3628313 25.7314173,43.3947913 26.8939639,43.183855 C30.9792568,42.4399849 34.3526397,40.4568641 36.8383323,37.1034562 C40.3771084,32.3302233 42.0494178,26.9337696 41.9950857,21.004382 C41.9751107,18.7408117 41.5588311,16.5451566 40.5329136,14.5037086" id="Fill-2719" fill="#6BC66B"></path><path d="M11.670595,18.8420452 C11.675389,19.0809465 11.671394,19.3246419 11.5890969,19.5499602 C11.4660507,19.8895357 11.9158883,20.2043422 12.2770368,20.2043422 C12.9929419,20.2043422 14.5525921,19.9494608 14.4255509,20.2043422 C14.2985098,20.4584245 14.6676483,20.0549289 14.4255509,20.2043422 C14.1738656,20.3601474 9.50929685,22.0500348 9.21286742,22.0484368 C8.87488994,22.0468388 8.53371644,22.0060898 8.21731199,21.8878376 C7.90090753,21.7687864 7.60927211,21.5682371 7.41751183,21.2901847 C7.16263047,20.9226442 7.10270538,20.4560275 7.07394134,20.0085869 C7.05716231,19.7393235 7.0483733,19.4644671 7.11229339,19.2023947 C7.21935955,18.7637431 7.51978398,18.3978005 7.84737445,18.0869891 C8.03753673,17.9056158 8.24767403,17.7330316 8.49696239,17.6499355 C8.73905974,17.5684373 9.00033312,17.5772264 9.25601349,17.5644423 C9.5412569,17.5516583 9.82729931,17.5109093 10.1125427,17.5308843 C10.327474,17.5460653 10.5487974,17.5980004 10.7309696,17.7162526 C10.8004827,17.7601976 10.8939658,17.8928318 10.972268,17.9072138 C11.0633541,17.9239929 11.1512442,17.8265147 11.2439284,17.8161277 C11.672193,17.7657906 11.670595,18.5703848 11.670595,18.8420452" id="Fill-2727" fill="#156B15"></path><path d="M14.2782151,18.8935808 C13.7908244,19.2275632 13.5391391,19.8268141 13.0741204,20.1911586 C12.4477035,20.6817453 11.6351193,20.8519326 10.8552942,21.0077378 C10.2272793,21.13398 9.57928935,21.2602222 8.95047545,21.136377 C8.32246054,21.0117328 7.71042566,20.5746792 7.58418347,19.9458653 C7.43716726,19.2179752 7.97729204,18.5140552 8.60850295,18.1241427 C9.2620859,17.7222451 10.1633592,17.5576508 10.7658061,18.0322575 C11.3674539,18.5068642 11.2052567,19.726939 10.4414116,19.7932561 C11.5608122,20.2047417 11.7429845,18.7553536 11.5608122,18.0554286 C11.3770419,17.3547045 10.5181157,16.8761029 9.80061267,16.7802227 C9.08231064,16.6851416 8.35042558,16.953606 7.77354675,17.3914586 C5.94463311,18.7825196 5.78563188,21.5071135 6.3513247,23.7347287 C6.91701751,25.961545 8.03561913,28.066913 8.18663034,30.3608453 C8.21699239,30.818673 6.82832838,33.8149273 9.41070011,33.8149273 C12.2767172,33.8149273 15.0868043,32.8585229 16.0360177,32.8329549 C15.5158679,31.8198214 16.0751687,30.6221187 16.3739952,29.5226931 C16.7702997,28.066114 16.6919976,26.5296348 16.6097005,25.0235176 C16.5274034,23.5253904 15.7915233,18.3238929 15.7915233,18.3238929 C15.7915233,18.3238929 15.0748193,18.346265 14.2782151,18.8935808" id="Fill-2729" fill="#B9DBBA"></path><polygon id="Fill-2731" fill="#FFF1CC" points="15.8127767 32.8117813 30.9019135 32.8117813 30.9019135 18.3266894 15.8127767 18.3266894"></polygon></g><g id="Red-Apple"><path d="M40.4026119,14.5045076 C39.4765696,12.661212 38.1550217,11.1942459 36.2374189,10.3313246 C36.1854838,10.2993646 36.1367447,10.2594145 36.0808147,10.2370425 C33.2667326,9.10965184 30.3471824,8.88832853 27.3685061,9.25507005 C25.6546486,9.46440836 24.0438623,10.0324982 22.48581,10.7595892 C22.434674,11.4315492 22.5848862,12.1346702 22.1845866,12.7554941 C21.3632134,13.385906 20.6161473,13.393896 20.0408665,12.7850571 C19.7803921,12.5094017 19.690105,12.1762183 19.685311,11.8118737 C19.681316,11.4411372 19.68611,11.0711997 19.686909,10.7004631 C19.3425395,10.5526479 18.99817,10.4040337 18.6530015,10.2562185 C18.4955983,10.1899014 18.3413911,10.1155943 18.1807918,10.0572672 C14.857746,8.84518246 11.4843632,8.84438346 8.07582425,9.6321986 C5.29130523,10.2769925 3.27702333,11.8989649 1.98583747,14.4309995 C0.803315759,16.7489019 0.425388214,19.2473785 0.467735275,21.8057802 C0.539645379,26.2234575 1.66703601,30.3790625 3.78678606,34.2558161 C5.64526275,37.656365 8.12775933,40.424904 11.7664106,42.0021323 C13.7559234,42.8650536 15.7813914,43.5242295 17.9962226,43.2190111 C19.0533011,43.1071509 20.0184945,42.7388114 20.8902047,42.1371635 C21.102739,41.9909463 21.2329762,41.9773633 21.4550986,42.1291735 C23.0714779,43.2349911 24.8812155,43.5250285 26.7644612,43.183855 C30.8497541,42.4399849 34.222338,40.4568641 36.7080306,37.1034562 C40.2468067,32.3302233 41.9191161,26.9337696 41.865583,21.004382 C41.844809,18.7408117 41.4285294,16.5451566 40.4026119,14.5045076" id="Fill-2711" fill="#D83A18"></path><path d="M40.4026119,14.5037086 C39.4765696,12.661212 38.1550217,11.1942459 36.2374189,10.3313246 C36.1854838,10.2993646 36.1367447,10.2594145 36.0808147,10.2370425 C33.2667326,9.10965184 30.3471824,8.88832853 27.3685061,9.25507005 C26.4664338,9.36533221 25.5939245,9.57946452 24.7413903,9.85911493 C26.4009157,9.97257309 28.0348731,10.3129476 29.6328754,10.9537465 C29.6896044,10.9753195 29.7375445,11.0160686 29.7902786,11.0480286 C31.7070824,11.9109499 33.0286303,13.377916 33.9562706,15.2204127 C34.9821881,17.2610616 35.3968697,19.4567168 35.4184427,21.720287 C35.4719758,27.6496746 33.7988674,33.0461284 30.2608903,37.8201603 C28.4287806,40.2914708 26.1116773,42.0133183 23.3862843,43.0480248 C24.4657349,43.3628313 25.6011155,43.3947913 26.7644612,43.183855 C30.8497541,42.4399849 34.222338,40.4568641 36.7080306,37.1034562 C40.2468067,32.3302233 41.9191161,26.9337696 41.865583,21.004382 C41.844809,18.7408117 41.4285294,16.5451566 40.4026119,14.5037086" id="Fill-2713" fill="#BC3019"></path><path d="M30.4853297,26.8664138 C30.4853297,31.3376242 26.8610605,34.9610944 22.38985,34.9610944 C17.9194386,34.9610944 14.2951693,31.3376242 14.2951693,26.8664138 C14.2951693,22.3960023 17.9194386,18.7717331 22.38985,18.7717331 C26.8610605,18.7717331 30.4853297,22.3960023 30.4853297,26.8664138" id="Fill-2721" fill="#FFF1CC"></path><path d="M10.9511897,21.2874681 C11.2372321,21.3441972 11.5144855,21.5527365 11.5584306,21.8411759 C11.181302,21.8571559 10.9016516,22.2638475 10.9344107,22.6393781 C10.9671697,23.0149086 11.2396291,23.3353081 11.5648226,23.5286663 C11.0286928,23.7060446 10.3878939,23.4943093 10.0634994,23.0324866 C9.52497264,22.2670435 9.9084932,21.0797278 10.9511897,21.2874681" id="Fill-2723" fill="#A22C12"></path><path d="M9.97193389,22.363483 C10.1125581,22.8197126 10.6167278,23.057016 11.0857415,23.1457051 C11.8679636,23.2959173 12.6981258,23.1816601 13.4116339,22.8269036 C13.6848922,22.6910734 13.9589496,22.5160922 14.2649671,22.5208862 C14.6716587,22.5272782 15.0136312,22.8652557 15.1534564,23.2463792 C15.2948796,23.6283018 15.2781005,24.0477774 15.2581255,24.45367 C15.1750294,26.2378396 15.0911343,28.0204111 15.0080382,29.8037817 C14.9840681,30.2951674 12.4999735,33.6701483 12.0597239,33.7748174 C11.5315841,33.8994616 10.9235443,34.0105228 10.4880886,33.6877263 C10.076603,33.3841059 9.98551691,32.8160161 9.92639082,32.3078513 C9.57003631,29.2045308 9.21208379,26.0868283 9.29997392,22.9635328 C9.31195894,22.5248812 9.34311998,22.0574655 9.60439336,21.705905 C9.8385007,21.3887016 10.2388003,21.2768414 10.5751798,21.4366416 C10.2819463,21.5772658 9.8400987,21.9336203 9.97193389,22.363483" id="Fill-2725" fill="#FCADA2"></path><path d="M22.1753981,12.324433 C22.1753981,12.324433 22.1753981,5.16058865 29.3392424,4.44468361 C29.3392424,4.44468361 29.3392424,11.608528 22.1753981,12.324433" id="Fill-2733" fill="#6BDB6B"></path><path d="M19.7744795,7.42040361 C19.9238927,5.6841741 18.5935558,4.44412431 17.1609468,3.01151525 C16.4442427,2.29561021 16.3563526,1.42310095 16.612033,1.09311348 C16.9635935,0.640079824 17.5460653,0.465098571 18.0742051,0.649667837 C18.6095359,0.836634107 18.5935558,0.863001145 19.3102599,1.57890618 C22.175478,3.72821928 22.4934805,6.43683319 22.4790984,8.70519746 C22.4751034,9.38994145 22.4838924,10.0746854 22.4862894,10.7594294 C22.4343544,11.4321884 22.5853656,12.1345104 22.185066,12.7553343 C21.3628938,13.3857462 20.6166267,13.3945352 20.0405469,12.7848973 C19.7808715,12.5092419 19.6905844,12.1760585 19.6857904,11.8117139 C19.6817954,11.4409774 19.6865894,11.0710399 19.6873884,10.7003033 C19.7840675,9.60886776 19.7728815,8.51423619 19.7744795,7.42040361" id="Fill-2734" fill="#6D5225"></path></g></g><g id="Arrow"><use fill="black" fill-opacity="1" filter="url(#filter-3)" xlink:href="#path-2"></use><use fill="#FFFFFF" fill-rule="evenodd" xlink:href="#path-2"></use></g><g id="Azure-Border" stroke="#0078D4" stroke-width="4"><rect x="2" y="2" width="96" height="96" rx="48"></rect></g></g></g></g></svg>