<svg xmlns="http://www.w3.org/2000/svg" xmlns:xlink="http://www.w3.org/1999/xlink" viewBox="0 0 100 100"><defs><rect id="a" x="0" y="0" width="96" height="96" rx="48"/></defs><g fill="none" fill-rule="evenodd"><g transform="translate(2 2)"><mask id="b" fill="#fff"><use xlink:href="#a"/></mask><use fill="#C0DDF4" xlink:href="#a"/><g mask="url(#b)"><path d="M61.31 48.75C95.576 37.644-4 38.568-4 38.568l9.372-10.033s112.754 2.509 83.76 18.877c-39.524 22.314-2.886 48.314-2.886 48.314h-87.61c18.939-23.91 39.83-39.569 62.674-46.974z" fill="#6B6B6B"/><path d="M12.066 12.052a4.31 4.31 0 0 1 4.211-5.237 4.283 4.283 0 0 1 1.83.416 4.307 4.307 0 0 1 8.474 1.095c0 .368-.052.724-.14 1.066.296-.048.596-.08.904-.078a5.62 5.62 0 1 1-.011 11.24l-16.318-.016a4.309 4.309 0 1 1 .01-8.62c.359.002.706.05 1.04.134zM67.276 18.419c.359 0 .706.05 1.04.133a4.31 4.31 0 0 1 4.211-5.237 4.283 4.283 0 0 1 1.83.416 4.307 4.307 0 0 1 8.474 1.095c0 .368-.052.724-.14 1.066.296-.048.596-.08.904-.078a5.62 5.62 0 1 1-.011 11.24l-16.318-.016a4.309 4.309 0 1 1 .01-8.62" fill="#FFF"/><path d="M67.621 78.166c0 1.565-6.63 2.834-14.81 2.834S38 79.731 38 78.166c0-1.564 6.63-2.833 14.81-2.833s14.811 1.269 14.811 2.833" fill="#000" opacity=".4"/><path d="M52.835 52.456v22.599c0 2.316 5.258 4.256 11.706 4.256V52.456H52.835z" fill="#3999C6"/><path d="M64.354 79.311h.187c6.51 0 11.708-1.878 11.708-4.257V52.456H64.354v26.855z" fill="#59B4D9"/><path d="M76.248 52.456c0 2.316-5.259 4.257-11.707 4.257s-11.706-1.878-11.706-4.257c0-2.38 5.195-4.194 11.706-4.194 6.511 0 11.707 1.878 11.707 4.194" fill="#FFF"/><path d="M73.87 52.267c0 1.503-4.195 2.755-9.329 2.755-5.133 0-9.327-1.251-9.327-2.816 0-1.566 4.194-2.818 9.327-2.818 5.134.064 9.328 1.316 9.328 2.88" fill="#7FBA00"/><path d="M71.928 53.958c1.252-.501 1.94-1.064 1.94-1.69 0-1.565-4.193-2.817-9.327-2.817-5.133 0-9.327 1.252-9.327 2.817 0 .626.75 1.252 1.94 1.69 1.69-.688 4.382-1.064 7.387-1.064 3.005-.063 5.698.376 7.387 1.064" fill="#B8D432"/><path d="M63.477 61.095c.438.438.752.939 1.002 1.377.187.313.438 1.127.75 2.505l1.19-1.753c.314-.44.689-.815 1.127-1.19a5.777 5.777 0 0 1 1.19-.814c.187-.063.438-.125.688-.125.376 0 .689.125.877.313.25.188.313.438.313.75 0 .314-.063.565-.188.69-.251.187-.501.313-.813.313-.19 0-.376-.063-.564-.126-.438-.125-.69-.187-.814-.187-.188 0-.44.125-.751.376-.564.437-1.19 1.314-1.941 2.629l1.065 4.507c.187.689.312 1.127.437 1.253.125.125.25.187.314.187.187 0 .375-.125.626-.313.5-.375.876-.94 1.252-1.565l.438.25a7.783 7.783 0 0 1-2.13 2.567c-.5.376-.875.563-1.251.563-.501 0-.876-.25-1.19-.813-.187-.314-.563-1.816-1.126-4.445-1.377 2.379-2.441 3.88-3.317 4.57-.564.438-1.065.688-1.566.688-.376 0-.688-.125-.94-.375a1.036 1.036 0 0 1-.312-.752c0-.312.125-.5.313-.751.188-.187.438-.312.689-.312.25 0 .564.125.876.437.25.189.376.314.5.314.126 0 .25-.063.44-.188.437-.313 1-1.064 1.689-2.13.69-1.063 1.189-1.877 1.378-2.378-.563-2.128-.814-3.255-.877-3.38-.187-.563-.437-1.002-.813-1.19-.376-.188-.814-.375-1.44-.375h-.69v-.501l3.569-.626z" fill="#FFF"/><g><path d="M37.711 36.032h1.545l3.017-9.346H36.47a6.405 6.405 0 0 1 1.241 3.79v5.556z" fill="#293038"/><path d="M26.075 26.686h-6.024l3.09 9.346h1.693v-5.556c0-1.419.464-2.726 1.241-3.79M20.051 36.988l3.018 9.492h1.765v-9.492z" fill="#3D4349"/><path fill="#293038" d="M39.035 46.48l3.312-9.492h-4.636v9.492z"/><path d="M24.834 47.585h-4.709l2.943 9.345h2.953a6.403 6.403 0 0 1-1.187-3.716v-5.63z" fill="#3D4349"/><path d="M37.711 53.214a6.395 6.395 0 0 1-1.187 3.716h2.66l3.163-9.345h-4.636v5.629zM32.193 24.553V22.75a.993.993 0 1 0-1.987 0v1.73M29.095 13.884a2.14 2.14 0 1 0 4.282 0 2.142 2.142 0 1 0-4.282 0" fill="#293038"/><path d="M31.236 13.884V23" stroke="#293038"/><path d="M31.204 56.918a4.71 4.71 0 1 1 0-9.419c.023 0 .045.007.068.008v-.946c-.023 0-.045.006-.068.006a4.71 4.71 0 1 1 0-9.419c.023 0 .045.007.068.007v-1.05c-.023 0-.045.005-.068.005a4.71 4.71 0 0 1 0-9.418c.023 0 .045.007.068.007v-2.661a6.424 6.424 0 0 0-5.197 2.649 6.402 6.402 0 0 0-1.24 3.79V53.214c0 1.385.441 2.665 1.185 3.716a6.426 6.426 0 0 0 5.252 2.722V56.91c-.023 0-.045.007-.068.007" fill="#3D4349"/><path d="M36.47 26.686a6.423 6.423 0 0 0-5.197-2.648V26.7a4.705 4.705 0 0 1 4.64 4.702 4.705 4.705 0 0 1-4.64 4.703v1.051a4.705 4.705 0 0 1 4.64 4.703 4.705 4.705 0 0 1-4.64 4.702v.946a4.704 4.704 0 0 1 4.64 4.702 4.705 4.705 0 0 1-4.64 4.703v2.741a6.424 6.424 0 0 0 5.252-2.723 6.402 6.402 0 0 0 1.186-3.716V30.476a6.402 6.402 0 0 0-1.241-3.79" fill="#293038"/><path d="M35.913 31.401a4.707 4.707 0 0 1-4.709 4.71c-.023 0-.045-.007-.068-.007V26.7c.023 0 .045-.007.068-.007a4.709 4.709 0 0 1 4.71 4.71" fill="#B72323"/><path d="M26.495 31.401a4.705 4.705 0 0 1 4.641-4.702v9.405a4.706 4.706 0 0 1-4.64-4.703" fill="#A11"/><path d="M35.913 41.858a4.709 4.709 0 0 1-4.709 4.71c-.023 0-.045-.008-.068-.008v-9.405c.023 0 .045-.007.068-.007a4.709 4.709 0 0 1 4.71 4.71" fill="#A58A16"/><path d="M26.495 41.857a4.705 4.705 0 0 1 4.641-4.702v9.405a4.706 4.706 0 0 1-4.64-4.703" fill="#977A00"/><path d="M35.913 52.209a4.709 4.709 0 0 1-4.709 4.709c-.023 0-.045-.007-.068-.007v-9.404c.023-.001.045-.008.068-.008a4.71 4.71 0 0 1 4.71 4.71" fill="#76FF00"/><path d="M26.495 52.209a4.705 4.705 0 0 1 4.641-4.702v9.404a4.705 4.705 0 0 1-4.64-4.702" fill="#81E027"/><path d="M83.871 5.333s-25.77 8.6-52.636 8.55c0 0-15.614-.3-23.114-5.55" stroke="#293038"/></g></g></g><rect x="2" y="2" width="96" height="96" rx="48" stroke="#0078D4" stroke-width="4"/></g></svg>