<svg xmlns="http://www.w3.org/2000/svg" xmlns:xlink="http://www.w3.org/1999/xlink" viewBox="0 0 100 100" version="1.1"><!-- Generator: Sketch 52.4 (67378) - http://www.bohemiancoding.com/sketch --><title>Automate a process using Flow/build-more-flows</title><desc>Created with Sketch.</desc><defs><rect id="path-1" x="0" y="0" width="96" height="96" rx="48"></rect><filter x="-6.6%" y="-6.9%" width="113.1%" height="113.8%" filterUnits="objectBoundingBox" id="filter-3"><feOffset dx="0" dy="2" in="SourceAlpha" result="shadowOffsetOuter1"></feOffset><feColorMatrix values="0 0 0 0 0   0 0 0 0 0   0 0 0 0 0  0 0 0 0.0979110054 0" type="matrix" in="shadowOffsetOuter1" result="shadowMatrixOuter1"></feColorMatrix><feMerge><feMergeNode in="shadowMatrixOuter1"></feMergeNode><feMergeNode in="SourceGraphic"></feMergeNode></feMerge></filter></defs><g id="Badges" stroke="none" stroke-width="1" fill="none" fill-rule="evenodd"><g id="Automate-a-process-using-Flow" transform="translate(-576.000000, -690.000000)"><g id="Automate-a-process-using-Flow/build-more-flows" transform="translate(576.000000, 690.000000)"><g id="Mask" transform="translate(2.000000, 2.000000)"><mask id="mask-2" fill="white"><use xlink:href="#path-1"></use></mask><use id="BG" fill="#B7D2F7" xlink:href="#path-1"></use><g id="Group-2" filter="url(#filter-3)" mask="url(#mask-2)"><g transform="translate(17.400000, 18.900000)"><polygon id="Shape" fill="#854816" fill-rule="evenodd" points="27.6651806 44.0618761 47.1496757 44.0618761 45.5258702 46.3090598 28.47697 46.3090598"></polygon><path d="M28.6985903,45.7669097 L46.1163037,45.7669097 C47.1264256,45.7669097 47.9528814,46.5933655 47.9528814,47.6034874 L47.9528814,51.2304184 L26.8620353,51.2304184 L26.8620353,47.6034874 C26.8620353,46.5933655 27.6884911,45.7669097 28.698613,45.7669097 L28.6985903,45.7669097 Z" id="Shape" fill="#30404D" fill-rule="evenodd"></path><path d="M25.2067284,49.8543811 C24.5390413,49.8543811 23.9977225,50.3957 23.9977225,51.0633871 C23.9977225,51.7310741 24.5390413,52.272393 25.2067284,52.272393 L31.2516448,52.272393 C31.9193319,52.272393 32.4606508,51.7310741 32.4606508,51.0633871 C32.4606508,50.3957 31.9193319,49.8543811 31.2516448,49.8543811 L25.2067284,49.8543811 Z" id="_571597376" fill="#546670" fill-rule="nonzero"></path><path d="M44.978053,49.8543811 C44.310366,49.8543811 43.7690471,50.3957 43.7690471,51.0633871 C43.7690471,51.7310741 44.310366,52.272393 44.978053,52.272393 L49.3863186,52.272393 C50.0540057,52.272393 50.5953245,51.7310741 50.5953245,51.0633871 C50.5953245,50.3957 50.0540057,49.8543811 49.3863186,49.8543811 L44.978053,49.8543811 Z" id="_571597856" fill="#546670" fill-rule="nonzero"></path><path d="M7.88203062,3.39650397 C7.27953379,3.11221295 6.56062015,3.26687495 6.2763295,3.86937216 C5.99203848,4.471869 6.12706671,6.10407691 6.72956317,6.38836755 L22.2938412,13.7669353 C22.896338,14.0512264 23.7381894,12.8799703 24.02248,12.2774772 C24.306771,11.6749804 24.0488074,11.0593662 23.4463124,10.7750755 L7.8820344,3.39650775 L7.88203062,3.39650397 Z" id="_571596680" fill="#BDBDBD" fill-rule="nonzero"></path><path d="M12.6561624,9.79920167 L27.7545692,16.9569047 C28.357066,17.2411957 29.4424656,15.2464269 29.7267562,14.6439339 C30.0110472,14.0414371 29.7530836,13.3225234 29.1505886,13.0382328 L14.5902138,6.13554806 C14.1468862,7.25213915 13.29647,8.75463152 12.6561776,9.79920167 L12.6561624,9.79920167 Z" id="_571596968" fill="#B0B0B0" fill-rule="nonzero"></path><polygon id="Shape" fill="#546670" fill-rule="evenodd" points="37.7355328 27.4456381 37.0396162 28.0516372 33.5033621 24.0583148 34.1992788 23.4519757"></polygon><polygon id="Shape" fill="#F7CB64" fill-rule="evenodd" points="43.9436232 33.8702107 42.5510343 35.0829645 34.6685125 26.0327233 36.0611014 24.8200829"></polygon><path d="M32.1511983,21.0059155 L34.760508,21.0059155 L34.760508,23.1583344 C34.760508,23.8758653 34.1734521,24.4629212 33.4558758,24.4629212 L33.4558312,24.4629212 C32.7383003,24.4629212 32.1511991,23.8758653 32.1511991,23.1583344 L32.1511983,21.0059155 Z M33.4558305,22.9403069 C33.7210231,22.9403069 33.9359714,23.1552991 33.9359714,23.4204479 C33.9359714,23.6856405 33.7210242,23.9006341 33.4558305,23.9006341 C33.1906379,23.9006341 32.9756896,23.685642 32.9756896,23.4204479 C32.9756896,23.1552999 33.1906368,22.9403069 33.4558305,22.9403069 Z" id="Shape" fill="#CC9547" fill-rule="evenodd"></path><path d="M36.7324608,25.4008824 L35.1517477,26.7776261 C34.9695085,26.9363937 34.6904819,26.9171612 34.5317169,26.7348775 L34.5317169,26.7348329 C34.3729493,26.5525492 34.3921818,26.2735255 34.5744209,26.1148021 L36.155134,24.738013 C36.3374177,24.5792904 36.6164414,24.5985225 36.7751648,24.7808062 L36.7752094,24.7808062 C36.933977,24.9630899 36.9147445,25.2421136 36.7324608,25.4008823 Z" id="Shape" fill="#CC9547" fill-rule="evenodd"></path><path d="M49.1218174,29.9085484 C49.7190929,30.2058691 50.4443424,29.9627203 50.7416635,29.3654462 C49.5029847,25.6710469 53.2621739,27.4901775 54.0788597,25.8496277 C54.3761804,25.2523521 54.1330316,24.5271027 53.5357575,24.2297816 L24.081784,9.20708691 C24.0565723,9.19329851 24.0307358,9.18031331 24.0042298,9.16817603 C23.0404268,8.72739481 22.3232926,9.71815042 22.4057561,9.76705727 L20.5274536,13.87391 C20.5171457,13.8921607 20.5072395,13.9107684 20.4977795,13.929733 C20.1998338,14.5272768 20.4427152,15.2532403 21.0402582,15.5511848 L49.1218176,29.908565 L49.1218174,29.9085484 Z" id="Shape" fill="#EFB252" fill-rule="nonzero"></path><path d="M48.8392193,33.4055107 C48.838193,33.3902943 48.8376575,33.3748995 48.8376575,33.3593709 L48.2176267,26.6330833 C48.2176267,25.084408 49.1364067,24.0943665 50.3125285,23.6622408 C50.7447865,23.5034286 51.2092221,23.4239558 51.6696378,23.4239558 C52.1300535,23.4239558 52.5944438,23.5034286 53.0267471,23.6622408 C54.2028651,24.0943665 55.1216489,25.084408 55.1216489,26.6330833 L54.5016181,33.3593709 C54.5016181,33.3748996 54.5010827,33.3902944 54.5000563,33.4055107 L48.8392164,33.4055107 L48.8392193,33.4055107 Z" id="Shape" fill="#CC9547" fill-rule="nonzero"></path><path d="M51.6697337,25.7401134 C52.0154256,25.7401134 52.3297476,25.8810766 52.5586634,26.1091876 L52.5595558,26.1101247 L52.5596004,26.1101693 L52.5605821,26.1091876 C52.57147,26.1200755 52.5816887,26.1314097 52.5913271,26.1431008 C52.8012321,26.3688914 52.9295668,26.6701387 52.9295668,26.9999435 C52.9295668,27.3478217 52.7885145,27.6627682 52.5605375,27.890747 C52.3325602,28.1187243 52.0175261,28.2597763 51.669734,28.2597763 C51.3218558,28.2597763 51.0069093,28.1187239 50.7789305,27.890747 C50.5509532,27.6627697 50.4099012,27.3478225 50.4099012,26.9999435 C50.4099012,26.6521544 50.5509535,26.3371188 50.7789305,26.1091399 C51.0069078,25.8811626 51.321855,25.7401107 51.669734,25.7401107 L51.6697337,25.7401134 Z" id="_571596224" fill="#546E7A" fill-rule="nonzero"></path><path d="M51.6697337,26.4108305 C51.8313572,26.4108305 51.9783886,26.4767381 52.0853947,26.583431 L52.0858409,26.5838326 L52.0858409,26.5838772 L52.0862871,26.583431 C52.0913741,26.588518 52.0961934,26.5937835 52.1007002,26.5992721 C52.1988256,26.7048493 52.258843,26.8457229 52.258843,26.999938 C52.258843,27.1625875 52.1928907,27.3098868 52.086287,27.4164905 C51.9796833,27.5230942 51.8323394,27.5890465 51.6697344,27.5890465 C51.5070848,27.5890465 51.3597855,27.5230942 51.2531818,27.4164905 C51.1465781,27.3098868 51.0806258,27.1625875 51.0806258,26.999938 C51.0806258,26.837333 51.1465781,26.6899891 51.2531818,26.5833854 C51.3597855,26.4767817 51.5070848,26.4108294 51.6697344,26.4108294 L51.6697337,26.4108305 Z" id="_571596104" fill="#37474F" fill-rule="nonzero"></path><path d="M35.7626355,33.0957106 L55.1173547,33.0957106 C56.3118605,33.0957106 57.3970371,33.4976271 58.1829771,34.1450109 C58.9688718,34.7925307 59.4567766,35.6863681 59.4567766,36.6703421 L59.4567766,37.1014855 L59.2873443,37.1014855 C58.9912284,37.1014855 58.7489723,37.3010379 58.7489723,37.5449453 L58.7489723,41.6060082 C58.7489723,41.8499156 58.9912288,42.049468 59.2873443,42.049468 L59.4428991,42.049468 C59.3725292,42.6663781 59.0376353,43.2217929 58.5334887,43.6370987 C57.9638797,44.1063513 57.1770028,44.3976465 56.3106999,44.3976465 L35.7626461,44.3976465 C35.1235589,44.3976465 34.6054032,43.9708289 34.6054032,43.4443729 L34.6054032,34.0489691 C34.6054032,33.5225093 35.1235627,33.0956955 35.7626461,33.0956955 L35.7626355,33.0957106 Z" id="Shape" fill="#EFB252" fill-rule="nonzero"></path><path d="M34.7516296,26.1864899 C35.4669314,26.9017917 35.9109693,27.8895589 35.9109693,28.9768777 L35.9109693,43.1887652 C35.9109693,43.2162974 35.9151192,43.2436066 35.9223481,43.2706926 L35.9223481,44.3977715 L23.8211433,44.3977715 C23.5091418,44.3977715 23.2247631,44.2795216 23.0103059,44.0855022 L17.0254227,39.3123526 L17.0225222,39.313022 C16.5772338,38.9579148 16.4495659,38.3522527 16.6799986,37.8578308 L19.6747146,30.1820816 C20.1499025,28.9639706 20.6950561,27.7631781 21.4945593,26.8116878 C22.4002673,25.7338708 23.5675938,25.0272282 25.1837374,25.0272282 L31.9612554,25.0272282 C33.0486195,25.0272282 34.0363413,25.4712699 34.7516432,26.1865264 L34.7516296,26.1864899 Z M19.3914418,37.5479904 L25.7982198,38.1949738 L33.4929347,32.4777276 L33.4929347,31.2726924 L33.4929347,28.976855 C33.4929347,28.5569551 33.3202004,28.1742273 33.0420246,27.8960496 C32.7638468,27.6179164 32.3811644,27.445181 31.9612191,27.445181 L25.1837012,27.445181 C24.3880327,27.445181 23.8010221,27.80774 23.3363674,28.360659 C22.7655986,29.0399484 22.3238804,30.0318223 21.9225874,31.0604642 L19.3914116,37.5479791 L19.3914418,37.5479904 Z" id="Shape" fill="#CC9547" fill-rule="evenodd"></path><path d="M31.3627195,47.4364296 L43.4524768,47.4364296 C44.1201639,47.4364296 44.6614828,47.9777485 44.6614828,48.6454356 L44.6614828,53.4813385 C44.6614828,54.1490256 44.1201639,54.6903445 43.4524768,54.6903445 L31.3627195,54.6903445 C30.6950324,54.6903445 30.1537135,54.1490256 30.1537135,53.4813385 L30.1537135,48.6454356 C30.1537135,47.9777485 30.6950324,47.4364296 31.3627195,47.4364296 Z" id="Shape" fill="#ADBDC4" fill-rule="nonzero"></path><path d="M4.04965311,5.72747791 C4.04965311,5.54765209 3.77897214,5.40183958 3.44515014,5.40183958 C3.11132813,5.40183958 2.84064716,5.54765209 2.84064716,5.72747791 L2.84064716,20.706487 C2.84064716,20.8863128 3.11132813,21.0321254 3.44515014,21.0321254 C3.77897214,21.0321254 4.04965311,20.8863128 4.04965311,20.706487 L4.04965311,5.72747791 Z" id="Shape" fill="#455A64" fill-rule="nonzero"></path><path d="M6.46752901,5.72747791 C6.46752901,5.54765209 6.19684804,5.40183958 5.86302604,5.40183958 C5.52920404,5.40183958 5.25852306,5.54765209 5.25852306,5.72747791 L5.25852306,20.706487 C5.25852306,20.8863128 5.52920404,21.0321254 5.86302604,21.0321254 C6.19684804,21.0321254 6.46752901,20.8863128 6.46752901,20.706487 L6.46752901,5.72747791 Z" id="Shape" fill="#455A64" fill-rule="nonzero"></path><path d="M4.59701688,20.5174792 C5.0527025,20.5174792 5.46550726,20.7023062 5.76421116,21.001009 C6.06291544,21.2997133 6.247741,21.7125177 6.247741,22.1682033 C6.247741,22.6239796 6.06291393,23.0366937 5.76421116,23.3353976 C5.46550688,23.6341018 5.0527025,23.8189274 4.59701688,23.8189274 C4.14124058,23.8189274 3.72852649,23.6341003 3.42982259,23.3353976 C3.13111831,23.0366933 2.94629275,22.6239796 2.94629275,22.1682033 C2.94629275,21.7125177 3.13111982,21.2997129 3.42982259,21.001009 C3.72852687,20.7023047 4.14124058,20.5174792 4.59701688,20.5174792 Z" id="_571595528" fill="#757575" fill-rule="nonzero"></path><path d="M4.56660358,22.6127852 C4.23407556,22.6010941 3.95491475,22.8611549 3.94322547,23.1936829 C3.93153433,23.526211 4.19159518,23.8053718 4.5241232,23.8170611 C4.8487532,23.8289753 5.13996032,23.9685102 5.35004252,24.1864919 C5.55950135,24.4037596 5.68792517,24.7004124 5.68792517,25.0271834 C5.68792517,25.361095 5.55258449,25.6634145 5.3338891,25.8821106 C5.11519332,26.1008064 4.81278655,26.2361467 4.47896191,26.2361467 C4.285032,26.2361467 4.09748095,26.1900515 3.93046095,26.1050899 C3.75995759,26.0183437 3.61140886,25.8943371 3.49949511,25.7406121 C3.30391381,25.4719837 2.92752113,25.4127692 2.65889428,25.6083505 C2.39026592,25.8039318 2.33105142,26.1803245 2.52663271,26.4489513 C2.755904,26.7637641 3.05054612,27.0128932 3.38267443,27.1818324 C3.71823697,27.3525587 4.09315546,27.4451508 4.47896228,27.4451508 C5.14651712,27.4451508 5.75106544,27.1744698 6.18868065,26.7368988 C6.62625053,26.2993289 6.89693264,25.6948259 6.89693264,25.0271804 C6.89693264,24.3782778 6.63932598,23.7865824 6.21902594,23.3506182 C5.79943958,22.915368 5.21697774,22.6366122 4.56660547,22.6127841 L4.56660358,22.6127852 Z" id="_571595624" fill="#757575" fill-rule="nonzero"></path><path d="M25.7981442,38.1949436 L33.4928592,32.4776974 L33.4928592,31.2726621 L33.4928592,28.9768248 C33.4928592,28.5569248 33.3201249,28.1741971 33.041949,27.8960194 C32.7637712,27.6178862 32.3810889,27.4451508 31.9611436,27.4451508 L25.1836256,27.4451508 C24.3879571,27.4451508 23.8009465,27.8077097 23.3362918,28.3606287 C22.7655231,29.0399182 22.3238049,30.0317921 21.9225118,31.060434 L19.391336,37.5479489 L25.798114,38.1949323 L25.7981442,38.1949436 Z" id="Shape" fill="#ABDCEC" fill-rule="evenodd"></path><path d="M5.07656466,0.213610899 L8.09559996,1.82864002 L8.09916978,1.82520407 C8.68792207,2.14015094 8.9098749,2.87276643 8.59492916,3.46151872 C8.57801718,3.49315618 8.55976652,3.52367821 8.54053432,3.55317382 L6.8337175,6.74382701 L6.83715345,6.74739682 C6.52220658,7.33614911 5.78959109,7.55810194 5.2008388,7.24315621 C5.16920134,7.22624423 5.13867931,7.20799357 5.1091837,7.18876137 L0.65237023,4.80461589 L0.648800415,4.80805184 C0.0600481244,4.49310497 -0.161904708,3.76048948 0.153041026,3.17173719 C0.16995301,3.14009973 0.188159051,3.1095777 0.207391286,3.08008209 L1.09127722,1.42783919 L1.08784127,1.42426937 C1.25093701,1.11936267 1.52607986,0.912849971 1.83522629,0.828335011 L4.02579587,0.0828692415 L4.0250819,0.0807273521 C4.39134488,-0.0439036892 4.7759465,0.017229302 5.07656965,0.213613809 L5.07656466,0.213610899 Z" id="Shape" fill="#EFB252" fill-rule="nonzero"></path><path d="M2.23618952,18.923898 C1.56850245,18.923898 1.02718356,19.4652169 1.02718356,20.132904 C1.02718356,20.800591 1.56850245,21.3419099 2.23618952,21.3419099 L7.07209244,21.3419099 C7.73977951,21.3419099 8.2810984,20.800591 8.2810984,20.132904 C8.2810984,19.4652169 7.73977951,18.923898 7.07209244,18.923898 L2.23618952,18.923898 Z" id="Shape" fill="#EFB252" fill-rule="nonzero"></path><path d="M32.4549535,39.0703176 L30.95871,39.0703176 C30.8285457,39.0703176 30.7220761,38.9538078 30.7220761,38.8113278 L30.7220761,38.552338 L32.6915882,38.552338 L32.6915882,38.8113278 C32.6915882,38.9538078 32.5851186,39.0703176 32.4549543,39.0703176 L32.4549535,39.0703176 Z" id="Shape" fill="#212121" fill-rule="evenodd"></path><path d="M32.5667838,38.1446955 L30.8464453,38.1446955 C30.6967363,38.1446955 30.5743362,38.2670956 30.5743362,38.4168046 L30.5743362,38.6889583 L32.8388913,38.6889583 L32.8388913,38.4168046 C32.8388913,38.2670956 32.7164912,38.1446955 32.5667822,38.1446955 L32.5667838,38.1446955 Z" id="Shape" fill="#424242" fill-rule="evenodd"></path><path d="M42.7259579,32.8618494 C42.7259579,33.4692992 43.2672768,33.9617528 43.9349639,33.9617528 C44.602651,33.9617528 45.1439699,33.4692955 45.1439699,32.8618494 L45.1439699,29.5622713 C45.1439699,29.1551789 44.900821,28.7998043 44.5394669,28.6096211 L44.5394669,27.5449706 L45.5240227,26.8154331 C45.7822093,26.6244482 45.8212989,26.2791579 45.6113939,26.0442652 C45.4014889,25.8093715 45.0219275,25.7738072 44.7637432,25.9647925 L43.5919057,26.8331506 C43.4339863,26.9323913 43.3304617,27.0981645 43.3304617,27.2859385 L43.3304617,28.6096233 C42.9691075,28.799805 42.7259587,29.1551812 42.7259587,29.5622735 L42.7259587,32.8618517 L42.7259579,32.8618494 Z" id="Shape" fill="#37474F" fill-rule="nonzero"></path><path d="M26.0753624,51.4721343 C26.0753624,54.8905374 23.3038098,57.6620901 19.8854067,57.6620901 C16.4670036,57.6620901 13.695451,54.8905374 13.695451,51.4721343 C13.695451,48.0537313 16.4670036,45.2821786 19.8854067,45.2821786 C23.3038098,45.2821786 26.0753624,48.0537313 26.0753624,51.4721343" id="Fill-364" fill="#30404D" fill-rule="evenodd"></path><path d="M19.8854067,45.2821786 L19.8854067,53.5496382 C19.8854067,55.012789 18.5414126,56.1316235 17.1092115,55.8298632 C16.3269559,55.6650556 15.5903512,55.433706 14.9117773,55.1450993 C16.2611876,56.9695888 18.5808735,58.0327137 21.1148867,57.5429334 C23.5336119,57.0763655 25.4849954,55.1311719 25.9546583,52.7132205 C26.724534,48.750875 23.7092519,45.2821786 19.8854067,45.2821786" id="Fill-368" fill="#182A37" fill-rule="evenodd"></path><path d="M22.2066401,51.4721343 C22.2066401,52.7534552 21.1667275,53.7933677 19.8854067,53.7933677 C18.6040859,53.7933677 17.5641733,52.7534552 17.5641733,51.4721343 C17.5641733,50.1908135 18.6040859,49.1509009 19.8854067,49.1509009 C21.1667275,49.1509009 22.2066401,50.1908135 22.2066401,51.4721343" id="Fill-370" fill="#E1E4E1" fill-rule="evenodd"></path><path d="M60.973542,51.4721343 C60.973542,54.8905374 58.2019893,57.6620901 54.7835862,57.6620901 C51.3651832,57.6620901 48.5936305,54.8905374 48.5936305,51.4721343 C48.5936305,48.0537313 51.3651832,45.2821786 54.7835862,45.2821786 C58.2019893,45.2821786 60.973542,48.0537313 60.973542,51.4721343" id="Fill-364" fill="#30404D" fill-rule="evenodd"></path><path d="M54.7835862,45.2821786 L54.7835862,53.5496382 C54.7835862,55.012789 53.4395921,56.1316235 52.0073911,55.8298632 C51.2251354,55.6650556 50.4885307,55.433706 49.8099568,55.1450993 C51.1593671,56.9695888 53.4790531,58.0327137 56.0130662,57.5429334 C58.4317914,57.0763655 60.3831749,55.1311719 60.8528378,52.7132205 C61.6227136,48.750875 58.6074314,45.2821786 54.7835862,45.2821786" id="Fill-368" fill="#182A37" fill-rule="evenodd"></path><path d="M57.1048196,51.4721343 C57.1048196,52.7534552 56.0649071,53.7933677 54.7835862,53.7933677 C53.5022654,53.7933677 52.4623528,52.7534552 52.4623528,51.4721343 C52.4623528,50.1908135 53.5022654,49.1509009 54.7835862,49.1509009 C56.0649071,49.1509009 57.1048196,50.1908135 57.1048196,51.4721343" id="Fill-370" fill="#E1E4E1" fill-rule="evenodd"></path></g></g><g id="Group-3" mask="url(#mask-2)"><g transform="translate(58.944223, 53.290736)" id="Group-5"><g transform="translate(0.026788, 0.250852)"><path d="M0.669393146,5.09776822 L0.669393146,1.55261677 C0.670063186,1.08288304 1.05093289,0.702255517 1.52096549,0.701585903 L9.90617246,0.701585903 C10.3762447,0.702160082 10.7571703,1.08284344 10.7577448,1.55261677 L10.7577448,6.07072229 C10.7571703,6.54049562 10.3762447,6.92117898 9.90617246,6.92175316 L6.03499409,6.92175316 L6.03499409,7.36411553 L9.90652004,7.36411553 C10.6210742,7.36334974 11.2001437,6.78464845 11.20091,6.07054861 L11.20091,1.55261677 C11.2001437,0.838516931 10.6210742,0.259815643 9.90652004,0.259049851 L1.52113928,0.259049851 C0.806585087,0.259815643 0.227515595,0.838516931 0.226749316,1.55261677 L0.226749316,5.09742086 L0.669393146,5.09776822 Z" id="Shape" fill="#1E1E1E" fill-rule="nonzero"></path><path d="M6.04715941,4.20991724 C6.04692872,4.31239088 6.08745288,4.41075652 6.15981215,4.48336294 C6.23217142,4.55596936 6.33043488,4.5968654 6.43297382,4.59704945 L8.2329197,4.59704945 C8.33542849,4.59681939 8.43364731,4.55590306 8.50596901,4.48330163 C8.57829071,4.4107002 8.61879104,4.31236085 8.61856032,4.20991724 L8.61856032,2.40364764 C8.61879104,2.30120403 8.57829071,2.20286468 8.50596901,2.13026325 C8.43364731,2.05766182 8.33542849,2.01674549 8.2329197,2.01651544 L6.43297382,2.01651544 C6.33043488,2.01669948 6.23217142,2.05759552 6.15981215,2.13020194 C6.08745288,2.20280836 6.04692872,2.301174 6.04715941,2.40364764 L6.04715941,2.98530119 L5.32036848,2.98530119 C5.01583505,2.98549779 4.7458792,3.18116313 4.65110213,3.47038878 L3.54492703,6.81181386 C3.53652019,6.83795379 3.51226935,6.85574511 3.4847956,6.85592852 L2.79797643,6.85592852 L2.79797643,6.2749697 C2.79820715,6.17252609 2.75770683,6.07418673 2.68538513,6.0015853 C2.61306343,5.92898388 2.5148446,5.88806754 2.41233581,5.88783749 L0.612737516,5.88783749 C0.510228725,5.88806754 0.412009902,5.92898388 0.339688201,6.0015853 C0.2673665,6.07418673 0.226866177,6.17252609 0.227096896,6.2749697 L0.227096896,8.08123929 C0.226866177,8.1836829 0.2673665,8.28202226 0.339688201,8.35462368 C0.412009902,8.42722511 0.510228725,8.46814144 0.612737516,8.4683715 L2.41268339,8.4683715 C2.51519218,8.46814144 2.61341101,8.42722511 2.68573271,8.35462368 C2.75805441,8.28202226 2.79855473,8.1836829 2.79832401,8.08123929 L2.79832401,7.50062783 L3.48514318,7.50062783 C3.78967661,7.50043123 4.05963246,7.30476588 4.15440953,7.01554023 L5.26058463,3.67411515 C5.26899147,3.64797522 5.29324231,3.6301839 5.32071606,3.63000049 L6.04750699,3.63000049 L6.04715941,4.20991724 Z M2.1553,7.82245644 L0.869251962,7.82245644 L0.869251962,6.53218943 L2.1553,6.53218943 L2.1553,7.82245644 Z" id="Shape" fill="#1E1E1E" fill-rule="nonzero"></path></g></g></g></g><g id="Flow-Border" stroke="#0066FF" stroke-width="4"><rect id="Azure-Border" x="2" y="2" width="96" height="96" rx="48"></rect></g></g></g></g></svg>