<svg xmlns="http://www.w3.org/2000/svg" viewBox="0 0 100 118"><defs><linearGradient x1="9.712%" y1="68.831%" x2="89.157%" y2="62.379%" id="a"><stop stop-color="#A6ABAC" offset="0%"/><stop stop-color="#C9CECF" offset="100%"/></linearGradient></defs><g fill="none" fill-rule="evenodd"><path d="M44.742 3.497A10.056 10.056 0 0 1 50 2c1.813 0 3.627.499 5.256 1.497l37.335 22.835C95.933 28.377 98 32.203 98 36.352v45.295c0 4.148-2.067 7.977-5.409 10.021l-37.335 22.837A10.056 10.056 0 0 1 50 116c-1.813 0-3.626-.499-5.258-1.495L7.41 91.668C4.066 89.624 2 85.795 2 81.648V36.352c0-4.15 2.066-7.976 5.409-10.021L44.743 3.497z" fill="#C0DDF4"/><path d="M13.226 45.824c-1.637.962-3.072.459-4.434-.6l-.21-.13a3.698 3.698 0 0 1-.22-.142c.03-.183-.098-.301-.194-.437-.86-1.212-1.242-2.567-1.248-4.049-.015-3.969 1.253-7.613 3.1-11.014 1.906-3.508 4.868-5.94 8.719-7.178.45-.145.57-.37.606-.814.125-1.584.52-3.11 1.118-4.585 1.332-3.283 3.497-5.958 6-8.421 1.745-1.718 3.757-2.894 6.114-3.447 3.288-.772 5.79.1 7.087 3.317.192.477.123 1.31.557 1.359.383.043.84-.606 1.27-.942 2.764-2.152 5.678-3.854 9.4-3.111 3.32 1.182 4.366 3.852 4.555 7.042.131 2.225.269 3.551-.464 6.667-.49 2.077-1.18 3.447-2.07 4.112L13.226 45.824z" fill="url(#a)" transform="translate(13 24.784)"/><path d="M63.892 30.414c-3.723-.743-6.637.96-9.401 3.11-.43.337-.887.985-1.27.943-.433-.05-.364-.882-.558-1.36-1.297-3.216-3.797-4.088-7.086-3.316-2.358.553-4.37 1.729-6.114 3.446-2.503 2.463-4.668 5.139-6 8.423-.598 1.474-.992 3-1.118 4.584-.036.444-.155.67-.606.814-3.85 1.238-6.813 3.67-8.718 7.178-1.848 3.401-3.117 7.045-3.1 11.015.005 1.48.387 2.836 1.246 4.048.098.135.226.255.199.445-1.35-.506-2.575-1.26-3.853-1.907-3.54-1.792-4.806-4.24-4.31-8.408.671-5.651 3.258-10.314 7.455-14.1 1.221-1.102 2.633-1.93 4.271-2.267.506-.105.531-.455.614-.825 1.175-5.14 3.588-9.58 7.494-13.16 2.032-1.862 4.314-3.276 7.125-3.614 1.432-.172 2.797-.048 4.082.747 1.323.82 2.724 1.51 4.071 2.295.43.25.736.243 1.15-.056 1.813-1.311 3.826-2.077 6.097-2.006a6.492 6.492 0 0 1 3.266.968c1.671 1.028 3.374 2.005 5.064 3.003" fill="#7C8182"/><path d="M1.585 13.708c-.633-1.65-.98-3.355-.855-5.12.166-2.335.98-4.132 3.416-4.958.74.039 1.484-.077 2.222.078 1.82.384 3.293 1.405 4.677 2.567.407.341.527.426.707-.178.476-1.602 1.41-2.765 3.21-2.969 1.282-.145 2.475.199 3.608.724 2.579 1.196 4.297 3.317 5.792 5.625 1.064 1.641 1.867 3.407 1.849 5.431-.004.468.339.523.652.631 2.373.817 4.206 2.324 5.637 4.364.853 1.217 1.317 2.605 1.809 3.978.428 1.196.766 2.437.776 3.705.011 1.383-.152 2.77-.965 3.973h.002a.283.283 0 0 0-.277.16c-1.168.981-2.32 1.036-3.676.233A3457.301 3457.301 0 0 0 5.565 17.519c-1.656-.962-3.076-2.098-3.98-3.811" fill="url(#a)" transform="translate(47 43.784)"/><path d="M81.12 75.343c.813-1.204.975-2.59.965-3.973-.01-1.268-.349-2.51-.776-3.705-.492-1.374-.956-2.76-1.81-3.977-1.43-2.041-3.264-3.548-5.637-4.365-.312-.108-.655-.163-.65-.63.017-2.024-.787-3.79-1.85-5.432-1.496-2.309-3.214-4.429-5.792-5.624-1.134-.526-2.326-.869-3.608-.725-1.8.204-2.733 1.366-3.211 2.969-.18.604-.299.52-.706.178-1.384-1.162-2.857-2.183-4.677-2.566-.739-.157-1.482-.04-2.222-.08 1.366-.92 2.748-1.855 4.275-2.448 2.027-.787 3.903-.069 5.626 1.05.385.25.668.275 1.04.058.66-.386 1.349-.725 2-1.126 1.036-.635 2.098-1.143 3.36-1.004 2.842.289 4.895 1.93 6.692 3.963 1.991 2.25 3.268 4.884 3.938 7.803.112.493.31.693.799.833 1.566.447 2.813 1.425 3.864 2.634 2.54 2.923 4.224 6.216 4.135 10.199-.044 1.994-.736 3.635-2.739 4.48-1.031.437-1.96 1.093-3.016 1.488" fill="#7C8182"/><path d="M62.586 83.834c1.252 1.697 2.516 3.384 3.75 5.094.345.478.278 1.01-.092 1.466-.373.46-.855.55-1.423.382-3.79-1.124-7.584-2.234-11.374-3.354-6.8-2.008-13.6-4.022-20.403-6.026-.586-.173-1.077-.423-1.18-1.098-.104-.693.24-1.127.817-1.453 1.688-.952 3.28-2.07 5.014-2.945.293.104.585.215.88.31 5.29 1.685 10.579 3.367 15.869 5.048 2.713.862 5.427 1.718 8.142 2.576" fill="#8BA6B1"/><path d="M62.586 83.834c-2.715-.858-5.429-1.714-8.142-2.576-5.29-1.68-10.58-3.363-15.868-5.048-.296-.095-.588-.206-.881-.31 1.925-1.316 3.966-2.446 5.953-3.662-.12.436-.232.877-.365 1.311-.32 1.042-.334 1.062.636 1.526.34.163.802.748 1.08.21.22-.423-.51-.481-.802-.721-.193-.159-.582-.147-.412-.601.284-.76.514-1.538.767-2.309 1.683-1.006 3.367-2.01 5.048-3.02 1.09-.654 1.57-.571 2.3.432 3.45 4.74 6.898 9.482 10.345 14.225.125.173.227.362.34.543" fill="#ADBDC4"/><path d="M35.634 65.08c-.834-.946-1.838-1.714-2.773-2.55-.981-.878-1.84-1.864-2.72-2.833-.122-.134-.142-.298-.144-.468.338-2.092 1.416-3.315 3.324-3.17l-.002-.003c.066.106.17.135.286.136 1.644.93 3.135 2.074 4.53 3.334.753.682 1.617 1.263 2.185 2.142.118.182.315.29.537.33.15.6.684.927.996 1.413.216.336.453.659.679.987-.561.02-1.093-.247-1.687-.04-1.347.468-2.034 1.491-2.486 2.748-.965-.598-1.722-1.478-2.725-2.026" fill="#6D4526"/><path d="M38.36 67.106c.45-1.257 1.138-2.28 2.485-2.75.594-.206 1.126.063 1.687.043a11.968 11.968 0 0 1 1.625 2.698c-1.8.117-2.382.747-2.345 2.539a36.014 36.014 0 0 1-3.453-2.53" fill="#84522D"/><path d="M41.812 69.636c-.037-1.792.545-2.422 2.345-2.54.81.835.843 1.403.14 2.387-.402-.112-.518-.537-.823-.759-.121-.087-.253-.187-.385-.095-.18.124-.084.28 0 .436.177.333.533.55.603.949-.912.422-1.203.364-1.88-.378" fill="#6D4526"/><path d="M43.692 70.014c-.07-.4-.426-.616-.604-.95-.083-.154-.18-.311 0-.435.133-.091.265.007.386.095.305.221.42.646.824.759.56.667.528 1.406.254 2.17-.253.771-.483 1.55-.767 2.31-.17.453.22.442.413.6.29.24 1.02.299.802.722-.278.537-.741-.046-1.08-.21-.971-.464-.956-.485-.636-1.527.132-.433.243-.873.365-1.31.14-.404.271-.81.417-1.212.165-.448.067-.79-.374-1.012" fill="#6A6D6F"/><path d="M33.321 56.058c-1.908-.145-2.986 1.079-3.324 3.17-.321-.032-.509-.273-.673-.494-.569-.767-1.092-1.569-1.488-2.439-.294-.645-.192-1.302.272-1.806.452-.49 1.122-.635 1.72-.368 1.216.545 2.443 1.088 3.493 1.937" fill="#84522D"/><g stroke="#0078D4" stroke-width="4"><path d="M45.562 3.258L6.673 26.894C3.797 28.644 2 31.951 2 35.558v46.884c0 3.607 1.798 6.917 4.673 8.664l38.888 23.636A8.539 8.539 0 0 0 50 116a8.525 8.525 0 0 0 4.436-1.257l38.89-23.637C96.203 89.358 98 86.048 98 82.442V35.558c0-3.606-1.797-6.914-4.673-8.664L54.435 3.258A8.511 8.511 0 0 0 50 2c-1.546 0-3.07.428-4.438 1.258zm0 0s0 0 0 0h0z"/></g></g></svg>