<svg xmlns="http://www.w3.org/2000/svg" xmlns:xlink="http://www.w3.org/1999/xlink" viewBox="0 0 100 118"><defs><path d="M42.742 1.497A10.056 10.056 0 0 1 48 0c1.813 0 3.627.499 5.256 1.497l37.335 22.835C93.933 26.377 96 30.203 96 34.352v45.295c0 4.148-2.067 7.977-5.409 10.021l-37.335 22.837A10.056 10.056 0 0 1 48 114c-1.813 0-3.626-.499-5.258-1.495L5.41 89.668C2.066 87.624 0 83.795 0 79.648V34.352c0-4.15 2.066-7.976 5.409-10.021L42.743 1.497z" id="a"/><filter x="-2.7%" y="-1.4%" width="105.4%" height="105.6%" filterUnits="objectBoundingBox" id="c"><feOffset dy="1" in="SourceAlpha" result="shadowOffsetOuter1"/><feColorMatrix values="0 0 0 0 0 0 0 0 0 0 0 0 0 0 0 0 0 0 0.101873868 0" in="shadowOffsetOuter1" result="shadowMatrixOuter1"/><feMerge><feMergeNode in="shadowMatrixOuter1"/><feMergeNode in="SourceGraphic"/></feMerge></filter><filter x="-2.3%" y="-1.5%" width="104.5%" height="106.1%" filterUnits="objectBoundingBox" id="d"><feOffset dy="2" in="SourceAlpha" result="shadowOffsetOuter1"/><feColorMatrix values="0 0 0 0 0 0 0 0 0 0 0 0 0 0 0 0 0 0 0.100005661 0" in="shadowOffsetOuter1" result="shadowMatrixOuter1"/><feMerge><feMergeNode in="shadowMatrixOuter1"/><feMergeNode in="SourceGraphic"/></feMerge></filter></defs><g fill="none" fill-rule="evenodd"><g transform="translate(2 2)"><mask id="b" fill="#fff"><use xlink:href="#a"/></mask><use fill="#55A2FF" xlink:href="#a"/><g mask="url(#b)"><path d="M60.304 60.841v-7.92a2.64 2.64 0 0 0-2.634-2.64H36.602a2.639 2.639 0 0 0-2.633 2.64v7.92h-5.267v-7.92c0-4.369 3.543-7.921 7.9-7.921H57.67c4.357 0 7.9 3.552 7.9 7.92v7.921h-5.266z" fill="#30404D"/><path d="M33.969 50.28a2.636 2.636 0 0 0-2.634 2.64v3.961c0 .729-.59 1.32-1.317 1.32h-1.316v2.64h5.267v-7.92a2.64 2.64 0 0 1 2.633-2.64H33.97m26.334-.001a2.636 2.636 0 0 1 2.633 2.64v3.961c0 .729.59 1.32 1.317 1.32h1.317v2.64h-5.267v-7.92a2.64 2.64 0 0 0-2.634-2.64h2.634" fill="#182A37"/></g><g mask="url(#b)"><path d="M10 112.407V64.193C10 61.887 11.855 60 14.122 60h66.505c2.267 0 4.122 1.887 4.122 4.193v48.214c0 2.306-1.855 4.193-4.122 4.193H14.122c-2.267 0-4.122-1.887-4.122-4.193z" fill="#30404D"/><path d="M13.091 111.359v-39.83c0-1.152.928-2.096 2.06-2.096h64.446c1.133 0 2.06.944 2.06 2.097v39.829c0 1.153-.927 2.096-2.06 2.096H15.152c-1.133 0-2.06-.943-2.06-2.096z" fill="#E1E4E1"/><g filter="url(#c)" transform="translate(19.711 73.845)" stroke="#30404D" fill="#30404D"><path d="M3.903.496C1.867.496.209 2.396.209 4.729c0 2.332 1.658 4.229 3.694 4.229S7.594 7.06 7.594 4.729c0-2.334-1.657-4.233-3.691-4.233zm0 7.384c-1.422 0-2.579-1.414-2.579-3.149 0-1.737 1.157-3.152 2.579-3.152 1.42 0 2.576 1.413 2.576 3.152 0 1.735-1.156 3.149-2.576 3.149zM12.939.496a.55.55 0 0 0-.558.54v7.382c0 .297.25.54.558.54a.55.55 0 0 0 .558-.54V1.036a.549.549 0 0 0-.558-.54zm9.036 0c-2.036 0-3.694 1.9-3.694 4.233 0 2.332 1.656 4.229 3.694 4.229 2.037 0 3.694-1.897 3.694-4.229 0-2.334-1.657-4.233-3.694-4.233zm0 7.384c-1.42 0-2.578-1.414-2.578-3.149 0-1.737 1.156-3.152 2.578-3.152s2.579 1.413 2.579 3.152c0 1.735-1.157 3.149-2.579 3.149zm9.039 1.08a.55.55 0 0 0 .557-.54V1.038a.55.55 0 0 0-.557-.54.55.55 0 0 0-.558.54V8.42c0 .297.248.54.558.54zm5.9-8.464a.55.55 0 0 0-.558.54v7.382c0 .297.25.54.558.54a.55.55 0 0 0 .557-.54V1.036a.549.549 0 0 0-.557-.54zm5.902 0a.55.55 0 0 0-.558.54v7.382c0 .297.25.54.558.54a.55.55 0 0 0 .557-.54V1.036a.549.549 0 0 0-.557-.54zm9.038 8.464c2.037 0 3.694-1.897 3.694-4.229 0-2.334-1.655-4.233-3.694-4.233-2.036 0-3.694 1.9-3.694 4.233-.002 2.33 1.658 4.23 3.694 4.23zm0-7.384c1.42 0 2.579 1.414 2.579 3.153 0 1.737-1.157 3.148-2.579 3.148-1.422 0-2.578-1.413-2.578-3.148-.003-1.739 1.156-3.153 2.578-3.153zm0 12.018c-2.036 0-3.694 1.9-3.694 4.233 0 2.332 1.658 4.231 3.694 4.231 2.037 0 3.694-1.899 3.694-4.23-.002-2.335-1.66-4.234-3.694-4.234zm0 7.384c-1.422 0-2.578-1.414-2.578-3.15 0-1.737 1.156-3.153 2.578-3.153 1.42 0 2.579 1.413 2.579 3.152-.002 1.737-1.159 3.15-2.579 3.15zm-9.038-7.384a.55.55 0 0 0-.558.54v7.382c0 .297.25.54.558.54a.55.55 0 0 0 .557-.54v-7.382a.549.549 0 0 0-.557-.54zm-9.036 0c-2.037 0-3.694 1.9-3.694 4.233 0 2.332 1.657 4.231 3.694 4.231 2.036 0 3.693-1.899 3.693-4.23-.002-2.335-1.657-4.234-3.693-4.234zm0 7.384c-1.423 0-2.58-1.414-2.58-3.15 0-1.737 1.157-3.153 2.58-3.153 1.42 0 2.578 1.413 2.578 3.152-.002 1.737-1.158 3.15-2.578 3.15zm-8.481.54v-7.382a.55.55 0 0 0-.558-.54.55.55 0 0 0-.557.54v7.382c0 .298.25.54.557.54.31 0 .558-.242.558-.54zm-6.458.54a.55.55 0 0 0 .558-.54v-7.382a.55.55 0 0 0-.558-.54.55.55 0 0 0-.557.54v7.382c0 .298.248.54.557.54zm-5.902-8.464a.55.55 0 0 0-.558.54v7.382c0 .297.25.54.558.54a.55.55 0 0 0 .558-.54v-7.382a.549.549 0 0 0-.558-.54zm-9.036 0c-2.036 0-3.694 1.9-3.694 4.233 0 2.332 1.658 4.231 3.694 4.231s3.691-1.899 3.691-4.23c0-2.335-1.657-4.234-3.691-4.234zm0 7.384c-1.422 0-2.579-1.414-2.579-3.15 0-1.737 1.157-3.153 2.579-3.153 1.42 0 2.576 1.413 2.576 3.152 0 1.737-1.156 3.15-2.576 3.15zm0 5.719c-2.036 0-3.694 1.899-3.694 4.23 0 2.332 1.658 4.232 3.694 4.232s3.691-1.9 3.691-4.231c0-2.332-1.657-4.231-3.691-4.231zm0 7.381c-1.422 0-2.579-1.414-2.579-3.15 0-1.737 1.157-3.151 2.579-3.151 1.42 0 2.576 1.414 2.576 3.15 0 1.737-1.156 3.151-2.576 3.151zm9.036-7.381a.55.55 0 0 0-.558.54v7.381c0 .298.25.54.558.54a.55.55 0 0 0 .558-.54v-7.381a.549.549 0 0 0-.558-.54zm9.036 0c-2.036 0-3.694 1.899-3.694 4.23 0 2.332 1.656 4.232 3.694 4.232 2.037 0 3.694-1.9 3.694-4.231 0-2.332-1.657-4.231-3.694-4.231zm0 7.381c-1.42 0-2.578-1.414-2.578-3.15 0-1.737 1.156-3.151 2.578-3.151s2.579 1.414 2.579 3.15c0 1.737-1.157 3.151-2.579 3.151zm9.039-7.381a.55.55 0 0 0-.558.54v7.381c0 .298.25.54.558.54a.55.55 0 0 0 .557-.54v-7.381a.55.55 0 0 0-.557-.54zm5.9 0a.55.55 0 0 0-.558.54v7.381c0 .298.25.54.558.54a.55.55 0 0 0 .557-.54v-7.381a.549.549 0 0 0-.557-.54zm5.902 0a.55.55 0 0 0-.558.54v7.381c0 .298.25.54.558.54a.55.55 0 0 0 .557-.54v-7.381a.549.549 0 0 0-.557-.54zm9.038 0c-2.036 0-3.694 1.899-3.694 4.23 0 2.332 1.658 4.232 3.694 4.232 2.037 0 3.694-1.9 3.694-4.231-.002-2.332-1.66-4.231-3.694-4.231zm0 7.381c-1.422 0-2.578-1.414-2.578-3.15 0-1.737 1.156-3.151 2.578-3.151 1.42 0 2.579 1.414 2.579 3.15-.002 1.737-1.159 3.151-2.579 3.151z"/></g><path d="M15.667 63.144c.854 0 1.546.704 1.546 1.573 0 .867-.692 1.572-1.546 1.572-.853 0-1.545-.705-1.545-1.572 0-.87.692-1.573 1.545-1.573z" fill="#DF5142"/><path d="M21.85 63.144c.854 0 1.545.704 1.545 1.573 0 .867-.691 1.572-1.546 1.572-.853 0-1.545-.705-1.545-1.572 0-.87.692-1.573 1.545-1.573z" fill="#EFB252"/><path d="M28.032 63.144c.854 0 1.545.704 1.545 1.573 0 .867-.691 1.572-1.545 1.572-.853 0-1.546-.705-1.546-1.572 0-.87.693-1.573 1.546-1.573z" fill="#7CB65A"/><path d="M36.275 66.289c-.854 0-1.546-.705-1.546-1.572 0-.868.692-1.573 1.546-1.573h43.837c.854 0 1.545.705 1.545 1.573 0 .867-.691 1.572-1.545 1.572H36.275z" fill="#697D85"/></g><g mask="url(#b)"><path d="M41.523 50.82a2.503 2.503 0 0 1-2.497 2.508 2.503 2.503 0 0 1-2.498-2.508V34.934c0-1.62.565-2.609 1.599-3.853l.964-1.163c1.034-1.245 1.6-1.724 1.6-3.345h14.984c2.875 1.76 4.66 6.184 4.995 6.689 3.33 5.016 2.498 9.197 1.665 10.033-.832.836-2.497 1.672-2.497 1.672v6.689c0 1.746-1.272 3.163-3.003 3.328a3.336 3.336 0 0 1-3.657-3.328v.418A2.92 2.92 0 0 1 50.264 55a2.92 2.92 0 0 1-2.914-2.926A2.92 2.92 0 0 1 44.437 55a2.92 2.92 0 0 1-2.914-2.926V50.82z" fill="#EAC5A7"/><path d="M42.838 54.517a2.924 2.924 0 0 1-1.315-2.443v-6.689a2.92 2.92 0 0 1 2.914-2.926c1.018 0 1.911.526 2.431 1.32a2.884 2.884 0 0 0-1.599-.484 2.92 2.92 0 0 0-2.913 2.926v6.689c0 .594.179 1.145.482 1.607zm5.827 0a2.924 2.924 0 0 1-1.315-2.443v-6.689a2.92 2.92 0 0 1 2.914-2.926c1.018 0 1.911.526 2.432 1.32a2.884 2.884 0 0 0-1.6-.484 2.92 2.92 0 0 0-2.913 2.926v6.689c0 .594.179 1.145.482 1.607zm2.183-14.976a6.681 6.681 0 0 1-1.833-4.607c0-1.412.44-2.72 1.183-3.8a6.68 6.68 0 0 0 2.95 7.9c-1.087.507-1.635.507-2.3.507z" fill="#D9B090"/><path d="M51.117 47.893h-1.665a.835.835 0 0 1-.832-.836v-1.254c0-.924.745-1.672 1.665-1.672s1.665.748 1.665 1.672v1.254a.835.835 0 0 1-.833.836z" fill="#F9D8BE"/><path d="M50.285 47.057c.663 0 1.23.196 1.498.478a.817.817 0 0 1-.666.358h-1.665a.816.816 0 0 1-.665-.358c.268-.282.835-.478 1.498-.478z" fill="#FFFFFE"/><path d="M45.27 47.893h-1.666a.835.835 0 0 1-.832-.836v-1.254c0-.924.745-1.672 1.665-1.672s1.665.748 1.665 1.672v1.254a.835.835 0 0 1-.833.836z" fill="#F9D8BE"/><path d="M44.437 47.057c.662 0 1.23.196 1.497.478a.817.817 0 0 1-.665.358h-1.665a.816.816 0 0 1-.665-.358c.268-.282.835-.478 1.498-.478z" fill="#FFFFFE"/><path d="M54.062 52.706c0 .396.161.932.482 1.607a2.924 2.924 0 0 1-1.314-2.443v-6.002a2.92 2.92 0 0 1 2.914-2.926c1.018 0 1.91.526 2.431 1.32a2.884 2.884 0 0 0-1.599-.484 2.92 2.92 0 0 0-2.914 2.926v6.002z" fill="#D9B090"/><path d="M57.399 48.377h-1.665a.835.835 0 0 1-.833-.837v-1.254c0-.924.746-1.672 1.665-1.672.92 0 1.665.748 1.665 1.672v1.254a.835.835 0 0 1-.832.837z" fill="#F9D8BE"/><path d="M56.566 47.54c.663 0 1.23.196 1.498.478a.817.817 0 0 1-.665.359h-1.665a.816.816 0 0 1-.665-.36c.268-.28.835-.477 1.497-.477z" fill="#FFFFFE"/><path d="M37.237 51.53c0 .507.152.976.41 1.368a2.49 2.49 0 0 1-1.119-2.08v-5.032a2.486 2.486 0 0 1 2.48-2.491c.868 0 1.628.448 2.07 1.124a2.455 2.455 0 0 0-1.36-.412 2.486 2.486 0 0 0-2.481 2.49v5.033z" fill="#D9B090"/><path d="M39.717 47.921H38.3a.71.71 0 0 1-.709-.711v-1.068a1.42 1.42 0 0 1 1.418-1.424 1.42 1.42 0 0 1 1.417 1.424v1.068a.71.71 0 0 1-.709.711z" fill="#F9D8BE"/><path d="M39.009 47.21c.564 0 1.047.166 1.275.406a.695.695 0 0 1-.567.305H38.3a.694.694 0 0 1-.566-.305c.228-.24.71-.406 1.275-.406z" fill="#FFFFFE"/><path d="M61.867 44.438c-.739.661-1.337 1.062-1.795 1.202-.711.217-4.323.791-10.836 1.723a1.513 1.513 0 0 1-1.746-1.398 5.654 5.654 0 0 1 4.414-5.9l4.605-1.014c.295-.065.566-.212.781-.425a8.996 8.996 0 0 0 2.667-6.14 90.584 90.584 0 0 1 2.407 4.842 9 9 0 0 1 .828 3.654l.005.424a4 4 0 0 1-1.33 3.032z" fill="#EAC5A7"/><path d="M38.193 42.459a.835.835 0 0 1-.832.836.835.835 0 0 1-.833-.836v-7.34c0-1.65.476-2.686 1.346-3.733l1.217-1.468c.567-.682.986-1.138 1.255-1.673.223-.442.345-.939.345-1.672h16.65a5.428 5.428 0 0 0 1.46 2.812c1.748 1.779 3.02 3.725 3.425 5.504 1.568 6.885-1.057 2.491-1.653.77-.368-1.066-.999-2.167-2.297-3.46a7.873 7.873 0 0 0-5.558-2.281h-9.547a4.505 4.505 0 0 0-3.888 2.222c-.571.973-1.09 1.65-1.09 2.794v7.525z" fill="#D9B090"/><path d="M59.012 38.025c-.82 1.558-2.35 2.613-4.064 2.99l-2.955.651a5.643 5.643 0 0 0-4.372 4.793 1.521 1.521 0 0 1-.208-.663 5.653 5.653 0 0 1 4.413-5.899l4.606-1.015a1.54 1.54 0 0 0 .749-.393c1.746-1.708 2.725-2.16 1.831-.464z" fill="#D9B090"/></g><g filter="url(#d)" mask="url(#b)"><path d="M79.226 35.899l-.29 7.546a4.546 4.546 0 0 0-.78-.957 4.508 4.508 0 0 0-1.568-.929l.222-5.745c.009-.26-.245-.533-.632-.725-.018-.868-.305-1.665-.792-2.272-.09-.112-.177-.229-.28-.327.097-.002.193-.017.293-.014 2.178.076 3.895 1.61 3.827 3.423z" fill="#696864"/><path d="M73.545 53.133c-1.248 1.33-3.563 1.222-5.16-.24-1.597-1.463-1.88-3.735-.632-5.063l3.43-3.65c.245.756.793 1.413 1.55 1.856l-3.208 3.413c-.292.31-.136 1.1.508 1.691.643.588 1.452.684 1.74.37l4.857-5.166.388-.412c.29-.31.136-1.102-.507-1.69v-.001a2.202 2.202 0 0 0-.403-.28c-.546-.316-1.107-.341-1.341-.091l-.288.308c-.623-.156-1.046-.53-1.033-.871l.057-1.485c.86-.567 2.003-.638 3.085-.263a4.508 4.508 0 0 1 1.569.929c.316.29.566.617.778.957.856 1.374.854 3.041-.147 4.107l-5.243 5.58z" fill="#575653"/><path d="M76.63 46.344c-.54.203-1.14.32-1.776.299a4.49 4.49 0 0 1-2.121-.607c-.757-.443-1.305-1.1-1.55-1.856a2.756 2.756 0 0 1-.153-.958l.156-4.06.095-2.468.041-1.071c.027-.7.321-1.336.79-1.852l1.136.337c.41.124.486 1.732.486 1.732l-.13 3.357-.1 2.625-.058 1.485c-.013.341.41.715 1.033.87.148.037.298.072.467.079h.002a2.02 2.02 0 0 0 1.16-.295c.136.079.274.163.402.28h.001c.643.59.798 1.38.507 1.69l-.388.413z" fill="#696864"/><path d="M64.99 34.825l6.291 1.87-.095 2.468-6.897-2.05c-1.756-.524-2.667-2.625-2.034-4.689.633-2.06 2.576-3.316 4.333-2.792l7.365 2.19c.441.131.829.363 1.152.668.104.098.19.215.28.327.488.607.775 1.404.793 2.272.012.464-.045.942-.192 1.42-.4 1.298-1.318 2.272-2.381 2.688l.13-3.357s-.076-1.608-.487-1.732l-7.364-2.19c-.41-.122-1.06.363-1.316 1.194-.253.834.014 1.59.422 1.713z" fill="#7C7B77"/><path fill="#575653" d="M61.766 36.13l-2.362-.808 1.566-3.917 2.36 1.168z"/><path d="M61.238 34.788a.516.516 0 0 1-.491-.54.516.516 0 0 1 .545-.485.516.516 0 0 1 .492.54.517.517 0 0 1-.546.485z" fill="#7C7B77"/><path fill="#696864" d="M64.791 29.249l-1.461 3.324-2.36-1.168 1.387-3.472z"/><path d="M54.537 38.048c-3.103 1.45-6.795 1.633-10.184.175-6.233-2.68-9.103-9.864-6.4-16.016l1.173.504a10.69 10.69 0 0 0-1.014 4.013c-.313 5.98 4.342 11.085 10.398 11.403a11.023 11.023 0 0 0 5.466-1.125l.561 1.046z" fill="#575653"/><path d="M48.51 38.127c-6.056-.318-10.711-5.423-10.398-11.403a10.69 10.69 0 0 1 1.014-4.013l1.089.47c-2.164 4.92.133 10.668 5.118 12.81 2.675 1.152 5.587 1.022 8.05-.094l.593 1.105a11.023 11.023 0 0 1-5.466 1.125z" fill="#696864"/><path d="M59.404 35.322a13.132 13.132 0 0 1-4.482 3.445l-.385-.719-.522-.973c3.65-1.656 6.274-5.225 6.498-9.492.32-6.105-4.387-11.313-10.514-11.635-4.119-.215-7.815 1.84-9.9 5.062a.51.51 0 0 0-.236-.077.516.516 0 0 0-.545.485c-.01.2.1.374.264.468-.144.277-.281.559-.403.85l-1.225-.53-.754-.321c2.885-6.564 10.642-9.576 17.29-6.72a12.998 12.998 0 0 1 7.867 12.768l-2.953 7.389z" fill="#7C7B77"/><path d="M60.513 27.583c-.224 4.267-2.848 7.836-6.498 9.492l-.632-1.178-.387-.718c1.967-.88 3.625-2.445 4.55-4.55 1.983-4.51-.12-9.78-4.692-11.745-4.57-1.964-9.904.109-11.887 4.62l-.752-.323-1.036-.446c.122-.29.259-.572.403-.849a.522.522 0 0 0 .228.072.516.516 0 0 0 .545-.486.508.508 0 0 0-.256-.462c2.085-3.221 5.781-5.277 9.9-5.062 6.127.322 10.834 5.53 10.514 11.635z" fill="#696864"/><path d="M39.863 20.933a.51.51 0 0 1 .236.077 10.97 10.97 0 0 0-.517.876.51.51 0 0 1-.264-.468.516.516 0 0 1 .545-.485z" fill="#575653"/><path d="M40.355 21.472a.516.516 0 0 1-.545.486.522.522 0 0 1-.228-.072c.158-.302.333-.592.517-.876.16.095.266.266.256.462zm26.419 30.265l3.448 1.812-1.122 2.373-3.677-2.093z" fill="#575653"/><path d="M67.197 53.112a.513.513 0 1 1 .683.767.52.52 0 0 1-.732-.042.512.512 0 0 1 .049-.725z" fill="#7C7B77"/><path fill="#696864" d="M73.446 55.244l-1.088 2.534-3.258-1.856 1.122-2.373z"/><path d="M59.9 54.708l.213 1.165a11.041 11.041 0 0 0-4.994 2.503c-4.555 3.993-5.02 10.863-1.038 15.343a10.776 10.776 0 0 0 3.304 2.51l-.606 1.12c-5.966-3.138-8.201-10.528-4.983-16.478 1.75-3.236 4.76-5.377 8.104-6.163z" fill="#575653"/><path d="M55.12 58.376a11.041 11.041 0 0 1 4.993-2.503l.224 1.231c-2.63.65-4.997 2.35-6.378 4.906-2.574 4.758-.785 10.67 3.987 13.178l-.561 1.04a10.776 10.776 0 0 1-3.304-2.509c-3.982-4.48-3.517-11.35 1.038-15.343z" fill="#696864"/><path d="M65.423 53.829l6.935 3.949a12.903 12.903 0 0 1 1.802 14.845c-3.435 6.345-11.405 8.79-17.77 5.443l.389-.718.632-1.17c.278.15.56.287.847.413a.504.504 0 0 0 .086.53.52.52 0 0 0 .73.041.51.51 0 0 0 .137-.205c3.65 1.227 7.835.549 10.933-2.168 4.61-4.04 5.05-11.024.984-15.596-2.841-3.199-7.131-4.363-11.03-3.4l-.198-1.085-.148-.8a13.267 13.267 0 0 1 5.671-.08z" fill="#7C7B77"/><path d="M71.128 59.193c4.065 4.572 3.626 11.556-.984 15.596-3.098 2.717-7.284 3.395-10.933 2.168a.503.503 0 0 0-.088-.52.52.52 0 0 0-.73-.042.515.515 0 0 0-.135.196c-.286-.126-.57-.263-.847-.414l.924-1.708c4.376 2.3 9.857.622 12.217-3.74 2.36-4.363.72-9.783-3.655-12.083-2.042-1.073-4.32-1.27-6.415-.741l-.145-.8-.24-1.313c3.9-.962 8.19.202 11.031 3.4z" fill="#696864"/><path d="M59.075 77.162a.52.52 0 0 1-.731-.042.504.504 0 0 1-.086-.529c.313.138.631.258.953.366a.51.51 0 0 1-.136.205z" fill="#575653"/><path d="M59.123 76.436a.503.503 0 0 1 .088.52 10.97 10.97 0 0 1-.953-.365c.03-.071.07-.14.134-.196a.52.52 0 0 1 .73.041z" fill="#575653"/></g><g mask="url(#b)"><path d="M60.304 59v-6.08c0-.323-.059-.633-.165-.92h5.379c.035.302.053.61.053.92V59h-5.267z" fill="#30404D"/><path d="M62.773 52c.106.287.164.597.164.92v3.961c0 .729.59 1.32 1.317 1.32h1.317V59h-5.267v-6.08c0-.323-.059-.633-.165-.92h2.634z" fill="#182A37"/></g><g mask="url(#b)"><path d="M56.961 26.702h-18.14a1.64 1.64 0 0 1-1.649-1.631v-3.262h21.439v3.262a1.64 1.64 0 0 1-1.65 1.631" fill="#E1E4E1"/><path d="M58.61 21.81H37.173a1.64 1.64 0 0 1-1.649-1.632V14.47H60.26v5.708a1.64 1.64 0 0 1-1.65 1.631" fill="#546670"/><path d="M60.26 16.1V-.302H35.523v20.481h11.544a1.64 1.64 0 0 0 1.649-1.63v-.816a1.64 1.64 0 0 1 1.65-1.631h9.894z" fill="#3C4E5D"/><path d="M56.961 23.44h-6.596a1.64 1.64 0 0 0-1.649 1.631 1.64 1.64 0 0 1-1.65 1.631h-8.245a1.64 1.64 0 0 1-1.649-1.631v-3.262h21.439a1.64 1.64 0 0 1-1.65 1.631" fill="#CDD3D1"/><path d="M40.47 25.071a.82.82 0 0 0 .825-.815.82.82 0 0 0-.824-.816.82.82 0 0 0-.825.816c0 .45.37.815.825.815" fill="#7694A3"/></g></g><path d="M45.562 3.258L6.673 26.894C3.797 28.644 2 31.951 2 35.558v46.884c0 3.607 1.798 6.917 4.673 8.664l38.888 23.636A8.539 8.539 0 0 0 50 116a8.525 8.525 0 0 0 4.436-1.257l38.89-23.637C96.203 89.358 98 86.048 98 82.442V35.558c0-3.606-1.797-6.914-4.673-8.664L54.435 3.258A8.511 8.511 0 0 0 50 2c-1.546 0-3.07.428-4.438 1.258zm0 0s0 0 0 0h0z" stroke="#0078D4" stroke-width="4"/></g></svg>