<svg xmlns="http://www.w3.org/2000/svg" viewBox="0 0 100 100"><defs><filter x="-1.9%" y="-1.3%" width="103.7%" height="105.1%" filterUnits="objectBoundingBox" id="a"><feOffset dy="2" in="SourceAlpha" result="shadowOffsetOuter1"/><feColorMatrix values="0 0 0 0 0 0 0 0 0 0 0 0 0 0 0 0 0 0 0.0985337409 0" in="shadowOffsetOuter1" result="shadowMatrixOuter1"/><feMerge><feMergeNode in="shadowMatrixOuter1"/><feMergeNode in="SourceGraphic"/></feMerge></filter></defs><g fill="none" fill-rule="evenodd"><rect fill="#55A2FF" x="2" y="2" width="96" height="96" rx="48"/><g filter="url(#a)" transform="translate(23 8.5)"><path d="M53.652 73.162a4.892 4.892 0 0 1-4.877 4.878H4.877A4.892 4.892 0 0 1 0 73.162v-36.58h53.652v36.58" fill="#30404D"/><path d="M53.652 36.581a4.892 4.892 0 0 1-4.877 4.878H4.877A4.892 4.892 0 0 1 0 36.58v-4.877a4.892 4.892 0 0 1 4.877-4.878h43.898a4.892 4.892 0 0 1 4.877 4.878v4.877" fill="#546670"/><path d="M48.775 42.678h-19.51a2.438 2.438 0 0 0-2.439 2.439v28.045a2.438 2.438 0 0 1-2.439 2.439H4.877A4.892 4.892 0 0 1 0 70.724v2.438a4.892 4.892 0 0 0 4.877 4.878h43.898a4.892 4.892 0 0 0 4.877-4.878V37.801a4.892 4.892 0 0 1-4.877 4.877" fill="#182A37"/><path d="M26.826 48.805c-5.849 0-10.595 4.747-10.595 10.595 0 5.844 4.746 10.596 10.595 10.596 5.854 0 10.596-4.752 10.596-10.596 0-5.848-4.742-10.595-10.596-10.595" fill="#30404D"/><path d="M15.852 34.142c0 2.02-2.184 3.659-4.878 3.659-2.693 0-4.877-1.64-4.877-3.659s2.184-3.658 4.877-3.658c2.694 0 4.878 1.64 4.878 3.658m31.703 0c0 2.02-2.183 3.659-4.877 3.659s-4.877-1.64-4.877-3.659 2.183-3.658 4.877-3.658 4.877 1.64 4.877 3.658" fill="#182A37"/><path d="M16.108 52.74c.059 0 .116.007.175.008.809-4.005 4.347-7.022 8.592-7.022 3.794 0 7.015 2.415 8.235 5.787a5.233 5.233 0 0 1 2.284-.527 5.26 5.26 0 0 1 5.26 5.26c0 .083-.008.163-.012.245a6.427 6.427 0 0 1-1.741 12.613H16.108a8.182 8.182 0 1 1 0-16.364" fill="#E1E4E1"/><path d="M39.345 56.268c.447.031.88.106 1.297.223.004-.082.012-.162.012-.245a5.25 5.25 0 0 0-2.174-4.254 5.23 5.23 0 0 1 1.005 3.085c0 .41-.052.808-.14 1.191m-8.626 12.836h7.979c3.495 0 6.504-2.703 6.628-6.195a6.421 6.421 0 0 0-2.841-5.571 6.437 6.437 0 0 1 .992 4.73c-.425 2.459-2.311 4.48-4.733 5.084a6.429 6.429 0 0 1-3.795-.192 5.224 5.224 0 0 0 1.03-3.116 5.25 5.25 0 0 0-2.175-4.254 5.242 5.242 0 0 1 .928 3.997 5.267 5.267 0 0 1-4.268 4.27 5.419 5.419 0 0 1-1.315.063c-1.667-.128-3.042-1.352-3.506-2.959a4.155 4.155 0 0 1-.184-1.117c0-.212.015-.42.04-.625a5.222 5.222 0 0 1 .89-2.358 8.73 8.73 0 0 1-2.124.562c.01-.166.025-.332.025-.501 0-2.707-1.32-5.1-3.346-6.59a8.151 8.151 0 0 1 1.496 6.107c-.53 3.48-3.334 6.284-6.815 6.815a8.151 8.151 0 0 1-6.107-1.496 8.163 8.163 0 0 0 6.59 3.346h14.61" fill="#C5CCCD"/><path d="M30.719 58.584c.609 0 1.192.109 1.736.3a8.718 8.718 0 0 0 1.186-4.391 8.743 8.743 0 0 0-3.514-7.006 8.713 8.713 0 0 1 1.76 5.253 8.709 8.709 0 0 1-2.382 5.99 5.26 5.26 0 0 1 1.214-.146" fill="#C5CCCD"/><g><path d="M26.826 0C16.07 0 7.316 8.753 7.316 19.51v17.028c.894.767 2.193 1.263 3.658 1.263 1.466 0 2.765-.496 3.658-1.263V19.51c0-6.724 5.47-12.194 12.194-12.194 6.724 0 12.194 5.47 12.194 12.194v14.632c0 1.347 1.637 2.44 3.658 2.44 2.02 0 3.658-1.093 3.658-2.44V19.51C46.336 8.753 37.583 0 26.826 0" fill="#F5F8F5"/><path d="M19.832 8.242c-4.706 1.968-7.638 6.73-7.638 11.831v12.482c0 1.595-1.514 2.785-3.051 2.362-.766-.211-1.445-.49-1.827-.817v2.438c.894.767 2.193 1.263 3.658 1.263.425 0 .83-.053 1.22-.13a5.99 5.99 0 0 0 .713-.185c.118-.04.228-.088.34-.133.169-.068.332-.141.488-.223.084-.045.168-.088.249-.137a4.59 4.59 0 0 0 .648-.455V19.51c0-6.313 4.822-11.517 10.975-12.132a11.694 11.694 0 0 0-5.775.864M26.826 0c-.41 0-.813.035-1.22.062 10.19.634 18.291 9.103 18.291 19.448v13.045c0 1.595-1.513 2.785-3.05 2.362-.766-.211-1.445-.49-1.827-.817v2.438c.894.767 2.194 1.263 3.658 1.263 1.466 0 2.764-.496 3.658-1.263V19.51C46.336 8.753 37.583 0 26.826 0" fill="#C5CCCD"/></g></g><rect x="2" y="2" width="96" height="96" rx="48" stroke="#0078D4" stroke-width="4"/></g></svg>