<svg xmlns="http://www.w3.org/2000/svg" xmlns:xlink="http://www.w3.org/1999/xlink" viewBox="0 0 100 100" version="1.1"><!-- Generator: Sketch 52.5 (67469) - http://www.bohemiancoding.com/sketch --><title>Administer infrastructure resources in Azure/build-azure-resource-manager-templates</title><desc>Created with Sketch.</desc><defs><rect id="path-1" x="0" y="0" width="96" height="96" rx="48"></rect><filter x="-5.6%" y="-6.6%" width="111.1%" height="113.2%" filterUnits="objectBoundingBox" id="filter-3"><feOffset dx="0" dy="1" in="SourceAlpha" result="shadowOffsetOuter1"></feOffset><feColorMatrix values="0 0 0 0 0   0 0 0 0 0   0 0 0 0 0  0 0 0 0.0964956975 0" type="matrix" in="shadowOffsetOuter1" result="shadowMatrixOuter1"></feColorMatrix><feMerge><feMergeNode in="shadowMatrixOuter1"></feMergeNode><feMergeNode in="SourceGraphic"></feMergeNode></feMerge></filter><filter x="-34.2%" y="-22.4%" width="168.4%" height="144.8%" filterUnits="objectBoundingBox" id="filter-4"><feOffset dx="0" dy="3" in="SourceAlpha" result="shadowOffsetOuter1"></feOffset><feColorMatrix values="0 0 0 0 0   0 0 0 0 0   0 0 0 0 0  0 0 0 0.102921196 0" type="matrix" in="shadowOffsetOuter1" result="shadowMatrixOuter1"></feColorMatrix><feMerge><feMergeNode in="shadowMatrixOuter1"></feMergeNode><feMergeNode in="SourceGraphic"></feMergeNode></feMerge></filter></defs><g id="Badges" stroke="none" stroke-width="1" fill="none" fill-rule="evenodd"><g id="Administer-infrastructure-resources-in-Azure" transform="translate(-50.000000, -260.000000)"><g id="Administer-infrastructure-resources-in-Azure/build-azure-resource-manager-templates" transform="translate(50.000000, 260.000000)"><g id="Mask" transform="translate(2.000000, 2.000000)"><mask id="mask-2" fill="white"><use xlink:href="#path-1"></use></mask><use id="BG" fill="#C0DDF4" xlink:href="#path-1"></use><path d="M24.5415247,24.9348808 L71.4584753,24.9348808 C73.6676143,24.9348808 75.4584753,26.7257418 75.4584753,28.9348808 L75.4584753,67.0651192 C75.4584753,69.2742582 73.6676143,71.0651192 71.4584753,71.0651192 L24.5415247,71.0651192 C22.3323857,71.0651192 20.5415247,69.2742582 20.5415247,67.0651192 L20.5415247,28.9348808 C20.5415247,26.7257418 22.3323857,24.9348808 24.5415247,24.9348808 Z" id="Cut" stroke="#384B58" stroke-width="1.5" stroke-linecap="square" stroke-linejoin="round" stroke-dasharray="4,4" mask="url(#mask-2)"></path><g id="Code" filter="url(#filter-3)" mask="url(#mask-2)"><g transform="translate(25.600000, 29.100000)"><g id="Window" stroke-width="1" fill="none"><path d="M42,1.4 L2.8,1.4 C2.0279,1.4 1.4,2.0279 1.4,2.8 L1.4,35 C1.4,35.7714 2.0279,36.4 2.8,36.4 L42,36.4 C42.7714,36.4 43.4,35.7714 43.4,35 L43.4,2.8 C43.4,2.0279 42.7714,1.4 42,1.4" id="Fill-1523" fill="#182A37"></path><path d="M42,-3.62376795e-13 L2.8,-3.62376795e-13 C1.26,-3.62376795e-13 9.23705556e-14,1.26 9.23705556e-14,2.8 L9.23705556e-14,35 C9.23705556e-14,36.54 1.26,37.8 2.8,37.8 L42,37.8 C43.54,37.8 44.8,36.54 44.8,35 L44.8,2.8 C44.8,1.26 43.54,-3.62376795e-13 42,-3.62376795e-13 Z M42,1.4 C42.7714,1.4 43.4,2.0279 43.4,2.8 L43.4,35 C43.4,35.7714 42.7714,36.4 42,36.4 L2.8,36.4 C2.0279,36.4 1.4,35.7714 1.4,35 L1.4,2.8 C1.4,2.0279 2.0279,1.4 2.8,1.4 L42,1.4 Z" id="Fill-1524" fill="#384B58"></path></g><g id="Code" stroke-width="1" fill="none" transform="translate(18.146282, 8.000000)"><path d="M8.6,23.6 L0.9,23.6 C0.5129,23.6 0.2,23.2871 0.2,22.9 C0.2,22.5129 0.5129,22.2 0.9,22.2 L8.6,22.2 C8.9871,22.2 9.3,22.5129 9.3,22.9 C9.3,23.2871 8.9871,23.6 8.6,23.6" id="Fill-1531" fill="#FFFFFE"></path><path d="M15.6,23.6 L11.4,23.6 C11.0129,23.6 10.7,23.2871 10.7,22.9 C10.7,22.5129 11.0129,22.2 11.4,22.2 L15.6,22.2 C15.9871,22.2 16.3,22.5129 16.3,22.9 C16.3,23.2871 15.9871,23.6 15.6,23.6" id="Fill-1532" fill="#55B7D9"></path><path d="M3.7,18.7 L0.9,18.7 C0.5129,18.7 0.2,18.3871 0.2,18 C0.2,17.6129 0.5129,17.3 0.9,17.3 L3.7,17.3 C4.0871,17.3 4.4,17.6129 4.4,18 C4.4,18.3871 4.0871,18.7 3.7,18.7" id="Fill-1533" fill="#EFB252"></path><path d="M8.6,13.8 L0.9,13.8 C0.5129,13.8 0.2,13.4871 0.2,13.1 C0.2,12.7129 0.5129,12.4 0.9,12.4 L8.6,12.4 C8.9871,12.4 9.3,12.7129 9.3,13.1 C9.3,13.4871 8.9871,13.8 8.6,13.8" id="Fill-1534" fill="#FFFFFE"></path><path d="M19.1,13.8 L11.4,13.8 C11.0129,13.8 10.7,13.4871 10.7,13.1 C10.7,12.7129 11.0129,12.4 11.4,12.4 L19.1,12.4 C19.4871,12.4 19.8,12.7129 19.8,13.1 C19.8,13.4871 19.4871,13.8 19.1,13.8" id="Fill-1535" fill="#FFFFFE"></path><path d="M14.2,18.7 L6.5,18.7 C6.1129,18.7 5.8,18.3871 5.8,18 C5.8,17.6129 6.1129,17.3 6.5,17.3 L14.2,17.3 C14.5871,17.3 14.9,17.6129 14.9,18 C14.9,18.3871 14.5871,18.7 14.2,18.7" id="Fill-1537" fill="#DF5142"></path><path d="M0.9,5.70735138 C0.7208,5.70735138 0.5416,5.63875138 0.4051,5.50225138 C0.1314,5.22855138 0.1314,4.78615138 0.4051,4.51245138 L2.0102,2.90735138 L0.4051,1.30225138 C0.1314,1.02855138 0.1314,0.586151384 0.4051,0.312451384 C0.6788,0.0387513843 1.1212,0.0387513843 1.3949,0.312451384 L3.4949,2.41245138 C3.7686,2.68615138 3.7686,3.12855138 3.4949,3.40225138 L1.3949,5.50225138 C1.2584,5.63875138 1.0792,5.70735138 0.9,5.70735138" id="Fill-1541" fill="#697D85"></path><path d="M7.9,5.70735138 L5.1,5.70735138 C4.7129,5.70735138 4.4,5.39445138 4.4,5.00735138 C4.4,4.62025138 4.7129,4.30735138 5.1,4.30735138 L7.9,4.30735138 C8.2871,4.30735138 8.6,4.62025138 8.6,5.00735138 C8.6,5.39445138 8.2871,5.70735138 7.9,5.70735138" id="Fill-1542" fill="#697D85"></path></g><polygon id="Line" fill="#384B58" points="14.8462822 36.4 16.2462822 36.4 16.2462822 1.4 14.8462822 1.4"></polygon><g id="Dots" stroke-width="1" fill="none" transform="translate(6.310266, 19.000000)"><path d="M3.3,2.1 C3.3,2.8728 2.6728,3.5 1.9,3.5 C1.1265,3.5 0.5,2.8728 0.5,2.1 C0.5,1.3265 1.1265,0.7 1.9,0.7 C2.6728,0.7 3.3,1.3265 3.3,2.1" id="Fill-1528" fill="#E1E4E1"></path><path d="M3.3,7 C3.3,7.7728 2.6728,8.4 1.9,8.4 C1.1265,8.4 0.5,7.7728 0.5,7 C0.5,6.2265 1.1265,5.6 1.9,5.6 C2.6728,5.6 3.3,6.2265 3.3,7" id="Fill-1529" fill="#E1E4E1"></path><path d="M3.3,11.9 C3.3,12.6728 2.6728,13.3 1.9,13.3 C1.1265,13.3 0.5,12.6728 0.5,11.9 C0.5,11.1265 1.1265,10.5 1.9,10.5 C2.6728,10.5 3.3,11.1265 3.3,11.9" id="Fill-1530" fill="#E1E4E1"></path></g><g id="Shell" stroke-width="1" fill="none" transform="translate(3.834020, 6.304059)"><path d="M8.48950217,6.79492892 L4.5712704,8.82443195 L4.5712704,4.6302341 L8.48950217,2.60073107 L8.48950217,6.79492892 Z" id="Rectangle-8" fill="#FFFFFE" fill-rule="nonzero"></path><path d="M4.13591132,4.63024841 L4.13591132,8.82444626 L0.217679543,6.79494323 L0.217679543,2.60040059 L4.13591132,4.63024841 Z" id="Rectangle-8" fill="#FFFFFE" fill-rule="nonzero"></path><path d="M0.435359086,2.25500337 L4.35359086,0.225500337 L8.27182263,2.25500337 L4.35359086,4.28450641 L0.435359086,2.25500337 Z" id="Rectangle-8" fill="#FFFFFE" fill-rule="nonzero"></path></g></g></g><g id="Hammer" filter="url(#filter-4)" mask="url(#mask-2)"><g transform="translate(70.420684, 60.148093) rotate(-336.000000) translate(-70.420684, -60.148093) translate(60.920684, 45.648093)"><path d="M10.1643129,0 L7.51275299,0 C7.26880948,0 7.07082634,0.198866991 7.07082634,0.441926646 L7.07082634,26.5155988 C7.07082634,27.6204154 7.73150668,28.2833054 8.83853293,28.2833054 C9.94555918,28.2833054 10.6062395,27.6204154 10.6062395,26.5155988 L10.6062395,0.441926646 C10.6062395,0.198866991 10.4082564,0 10.1643129,0" id="Fill-470" fill="#84522D"></path><path d="M12.8154308,2.73110667 L12.8154308,2.20963323 C12.8154308,1.96657358 12.6178896,1.76770659 12.3735042,1.76770659 L5.30311976,1.76770659 C5.05917625,1.76770659 4.86119311,1.96657358 4.86119311,2.20963323 L4.86119311,2.65155988 L3.53541317,1.76770659 L0.441926646,1.76770659 C0.197983138,1.76770659 0,1.96657358 0,2.20963323 L0,7.51275299 C0,7.75581264 0.197983138,7.95467963 0.441926646,7.95467963 L3.53541317,7.95467963 L4.86119311,7.07082634 L4.86119311,7.51275299 C4.86119311,7.75581264 5.05917625,7.95467963 5.30311976,7.95467963 L12.3735042,7.95467963 C12.6178896,7.95467963 12.8154308,7.75581264 12.8154308,7.51275299 L12.8154308,7.15037314 C14.7992395,7.49507592 16.6199773,8.99762652 17.7057911,11.2426139 C17.7804767,11.3972882 17.9364768,11.4900928 18.1030831,11.4900928 C18.1331342,11.4900928 18.164069,11.4856735 18.19412,11.4812543 C18.392987,11.4370616 18.5370551,11.2691295 18.5450098,11.0658432 L18.5516387,10.9376845 C18.556058,10.8492992 18.5609191,10.7609138 18.5609191,10.6681092 C18.5609191,6.61122263 16.0534274,3.25699938 12.8154308,2.73110667" id="Fill-471" fill="#ADBDC4"></path><path d="M7.07082634,7.95467963 L7.07082634,9.28045957 L8.39660628,9.28045957 C8.64054979,9.28045957 8.83853293,9.47932656 8.83853293,9.72238622 L8.83853293,28.2833054 C9.94555918,28.2833054 10.6062395,27.6204154 10.6062395,26.5155988 L10.6062395,7.95467963 L7.07082634,7.95467963" id="Fill-472" fill="#6D4526"></path><path d="M13.699726,4.39275086 L13.699726,2.95648926 C13.4115899,2.86368467 13.1181506,2.77971861 12.8158727,2.73110667 L12.8158727,4.86119311 C12.079181,4.86119311 11.9443934,4.86119311 11.4900928,4.86119311 L4.86119311,4.86119311 L4.86119311,2.65155988 L3.53541317,1.76770659 L3.53541317,3.97733982 C3.53541317,4.46345913 3.13988882,4.86119311 2.65155988,4.86119311 L0,4.86119311 L0,7.51275299 C0,7.75581264 0.197983138,7.95467963 0.441926646,7.95467963 L3.53541317,7.95467963 L4.86119311,7.07082634 L4.86119311,7.51275299 C4.86119311,7.75581264 5.05917625,7.95467963 5.30311976,7.95467963 L12.3735042,7.95467963 C12.6174477,7.95467963 12.8154308,7.75581264 12.8154308,7.51275299 L12.8154308,7.15037314 C14.7992395,7.49507592 16.6199773,8.99762652 17.7057911,11.2426139 C17.7804767,11.3972882 17.9364768,11.4900928 18.1030831,11.4900928 C18.1083863,11.4900928 18.1136894,11.4900928 18.1189925,11.4900928 C18.1181086,8.89156412 16.6230708,6.65099603 14.4483498,5.56385648 C13.9989104,5.33847389 13.699726,4.89654724 13.699726,4.39275086" id="Fill-473" fill="#8BA6B1"></path></g></g></g><g id="Azure-Border" stroke="#0078D4" stroke-width="4"><rect x="2" y="2" width="96" height="96" rx="48"></rect></g></g></g></g></svg>