<svg xmlns="http://www.w3.org/2000/svg" viewBox="0 0 100 118"><defs><filter x="-2.2%" y="-1.7%" width="104.3%" height="106.8%" filterUnits="objectBoundingBox" id="a"><feOffset dy="2" in="SourceAlpha" result="shadowOffsetOuter1"/><feColorMatrix values="0 0 0 0 0 0 0 0 0 0 0 0 0 0 0 0 0 0 0.1 0" in="shadowOffsetOuter1" result="shadowMatrixOuter1"/><feMerge><feMergeNode in="shadowMatrixOuter1"/><feMergeNode in="SourceGraphic"/></feMerge></filter></defs><g fill="none" fill-rule="evenodd"><path d="M44.742 3.497A10.056 10.056 0 0 1 50 2c1.813 0 3.627.499 5.256 1.497l37.335 22.835C95.933 28.377 98 32.203 98 36.352v45.295c0 4.148-2.067 7.977-5.409 10.021l-37.335 22.837A10.056 10.056 0 0 1 50 116c-1.813 0-3.626-.499-5.258-1.495L7.41 91.668C4.066 89.624 2 85.795 2 81.648V36.352c0-4.15 2.066-7.976 5.409-10.021L44.743 3.497z" fill="#55A2FF"/><g filter="url(#a)" transform="translate(27.486 29.5)" fill-rule="nonzero"><path d="M6 16h2v9H6zm32 0h2v9h-2zM6 35h2v9H6zm32 0h2v9h-2z" fill="#7C7C7C"/><rect fill="#E1E4E1" width="46" height="18" rx="1"/><path d="M1.364.23L22.97 8.989l22.21 7.064a.995.995 0 0 1 .65 1.252 1.01 1.01 0 0 1-.953.704L1 18.325c-.552.004-1-.457-1-1.03V1.187C0 .614.448.153 1 .157c.125 0 .248.026.364.074z" fill="#D3DAD8"/><circle fill="#72C472" cx="37" cy="9" r="2"/><path d="M11 10H7a1 1 0 1 1 0-2h4a1 1 0 0 1 0 2zm10 0h-4a1 1 0 0 1 0-2h4a1 1 0 0 1 0 2z" fill="#949697"/><g transform="translate(0 20)"><rect fill="#E1E4E1" width="46" height="18" rx="1"/><path d="M1.364.23L22.97 8.989l22.21 7.064a.995.995 0 0 1 .65 1.252 1.01 1.01 0 0 1-.953.704L1 18.325c-.552.004-1-.457-1-1.03V1.187C0 .614.448.153 1 .157c.125 0 .248.026.364.074z" fill="#D3DAD8"/><circle fill="#72C472" cx="37" cy="9" r="2"/><path d="M11 10H7a1 1 0 1 1 0-2h4a1 1 0 0 1 0 2zm10 0h-4a1 1 0 0 1 0-2h4a1 1 0 0 1 0 2z" fill="#949697"/></g><g transform="translate(0 40)"><rect fill="#E1E4E1" width="46" height="18" rx="1"/><path d="M1.364.23L22.97 8.989l22.21 7.064a.995.995 0 0 1 .65 1.252 1.01 1.01 0 0 1-.953.704L1 18.325c-.552.004-1-.457-1-1.03V1.187C0 .614.448.153 1 .157c.125 0 .248.026.364.074z" fill="#D3DAD8"/><circle fill="#72C472" cx="37" cy="9" r="2"/><path d="M11 10H7a1 1 0 1 1 0-2h4a1 1 0 0 1 0 2zm10 0h-4a1 1 0 0 1 0-2h4a1 1 0 0 1 0 2z" fill="#949697"/></g></g><g stroke="#FFF" stroke-linecap="round" stroke-width="3"><path d="M18.271 59.335h-8m10.072-17.161l-2.072-1.152M18.2 77.801l2.071-1.152m-.331-9.747l-6.967 1.906m-.1-18.97l6.967 1.907M83.148 59.335h8M81.077 42.174l2.071-1.152m.072 36.779l-2.072-1.152m.332-9.747l6.967 1.906m.1-18.97l-6.967 1.907"/></g><path d="M45.562 3.258L6.673 26.894C3.797 28.644 2 31.951 2 35.558v46.884c0 3.607 1.798 6.917 4.673 8.664l38.888 23.636A8.539 8.539 0 0 0 50 116a8.525 8.525 0 0 0 4.436-1.257l38.89-23.637C96.203 89.358 98 86.048 98 82.442V35.558c0-3.606-1.797-6.914-4.673-8.664L54.435 3.258A8.511 8.511 0 0 0 50 2c-1.546 0-3.07.428-4.438 1.258zm0 0s0 0 0 0h0z" stroke="#0078D4" stroke-width="4"/></g></svg>