<svg xmlns="http://www.w3.org/2000/svg" xmlns:xlink="http://www.w3.org/1999/xlink" viewBox="0 0 100 100" version="1.1"><!-- Generator: Sketch 52.4 (67378) - http://www.bohemiancoding.com/sketch --><title>Work with entitlements and service level agreements in Microsoft Dynamics 365 Customer Service/service-level-agreements</title><desc>Created with Sketch.</desc><defs><rect id="path-1" x="0" y="0" width="96" height="96" rx="48"></rect><filter x="-6.2%" y="-8.0%" width="112.5%" height="116.0%" filterUnits="objectBoundingBox" id="filter-3"><feOffset dx="0" dy="2" in="SourceAlpha" result="shadowOffsetOuter1"></feOffset><feColorMatrix values="0 0 0 0 0   0 0 0 0 0   0 0 0 0 0  0 0 0 0.101222826 0" type="matrix" in="shadowOffsetOuter1" result="shadowMatrixOuter1"></feColorMatrix><feMerge><feMergeNode in="shadowMatrixOuter1"></feMergeNode><feMergeNode in="SourceGraphic"></feMergeNode></feMerge></filter></defs><g id="Badges" stroke="none" stroke-width="1" fill="none" fill-rule="evenodd"><g id="Work-with-entitlements-and-service-level-agreements-in-Microsoft-Dynamics-365-Customer-ServiceWork-with-entitlements-and-service-level-agreements-in-Microsoft-Dynamics-365-Customer-Service" transform="translate(-50.000000, -460.000000)"><g id="Work-with-entitlements-and-service-level-agreements-in-Microsoft-Dynamics-365-Customer-Service/service-level-agreements" transform="translate(50.000000, 460.000000)"><g id="Mask" transform="translate(2.000000, 2.000000)"><mask id="mask-2" fill="white"><use xlink:href="#path-1"></use></mask><use id="BG" fill="#01B6C3" xlink:href="#path-1"></use><g id="Group-5" filter="url(#filter-3)" mask="url(#mask-2)"><g transform="translate(16.000000, 24.000000)"><path d="M51.776,28.128 L51.78,28.124 L44.908,20.908 C42.456,18.455 38.969,17.338 35.548,17.909 C35.19,17.968 34.856,18.128 34.585,18.369 L30.352,22.132 C27.85,24.355 24.099,24.415 21.527,22.273 C20.707,21.589 20.651,20.349 21.406,19.594 L30.725,10.275 C31.541,9.459 32.649,9 33.803,9 L29.606,9 C27.303,9 25.053,8.328 23.123,7.076 L7.096,23.103 L30.994,48.613 C31.085,48.718 31.176,48.821 31.278,48.916 L31.356,49 L31.367,48.989 C32.072,49.611 32.986,50 34,50 C36.209,50 38,48.209 38,46 C38,45.577 37.917,45.177 37.795,44.795 C38.178,44.916 38.577,45 39,45 C41.209,45 43,43.209 43,41 C43,40.577 42.917,40.177 42.795,39.795 C43.178,39.916 43.577,40 44,40 C46.209,40 48,38.209 48,36 C48,35.577 47.917,35.177 47.795,34.795 C48.178,34.916 48.577,35 49,35 C51.209,35 53,33.209 53,31 C53,29.871 52.528,28.855 51.776,28.128" id="Fill-316" fill="#84522D"></path><path d="M3.008,25.707 L0.293,22.992 C-0.117,22.582 -0.094,21.895 0.344,21.457 L21.457,0.344 C21.895,-0.094 22.582,-0.117 22.992,0.293 L25.707,3.008 C26.117,3.418 26.094,4.105 25.656,4.543 L4.543,25.656 C4.105,26.094 3.418,26.117 3.008,25.707" id="Fill-317" fill="#E1E4E1"></path><path d="M60.992,25.707 L63.707,22.992 C64.117,22.582 64.094,21.895 63.656,21.457 L42.543,0.344 C42.105,-0.094 41.418,-0.117 41.008,0.293 L38.293,3.008 C37.883,3.418 37.906,4.105 38.344,4.543 L59.457,25.656 C59.895,26.094 60.582,26.117 60.992,25.707" id="Fill-318" fill="#E1E4E1"></path><path d="M63.707,22.992 L60.992,25.707 C60.582,26.117 59.895,26.094 59.457,25.656 L52.815,19.014 C52.034,18.233 52.034,16.966 52.815,16.185 C53.469,15.531 53.469,14.469 52.815,13.815 L48.061,9.062 C47.189,8.19 48.11,6.604 49.243,7.091 C49.296,7.114 49.339,7.14 49.37,7.172 L63.656,21.457 C64.094,21.895 64.117,22.582 63.707,22.992" id="Fill-319" fill="#CDD3D1"></path><path d="M0.293,22.992 L3.008,25.707 C3.418,26.117 4.105,26.094 4.543,25.656 L11.185,19.014 C11.966,18.233 11.966,16.966 11.185,16.185 C10.531,15.531 10.531,14.469 11.185,13.815 L15.939,9.062 C16.811,8.19 15.89,6.604 14.757,7.091 C14.704,7.114 14.661,7.14 14.63,7.172 L0.344,21.457 C-0.094,21.895 -0.117,22.582 0.293,22.992" id="Fill-320" fill="#CDD3D1"></path><path d="M60,23 C60.552,23 61,22.552 61,22 C61,21.448 60.552,21 60,21 C59.448,21 59,21.448 59,22 C59,22.552 59.448,23 60,23" id="Fill-321" fill="#8BA6B1"></path><path d="M44.908,20.908 C42.456,18.455 38.969,17.338 35.548,17.909 C35.19,17.968 34.856,18.128 34.585,18.369 L30.352,22.132 C28.597,23.691 26.233,24.162 24.087,23.58 C24.532,24.232 25.254,24.701 26.16,24.751 C27.737,24.837 29.349,24.64 30.352,23.749 L34.585,19.986 C34.842,19.757 35.156,19.593 35.495,19.534 C38.933,18.944 42.443,20.06 44.908,22.525 L45.977,23.339 C46.654,24.033 47.531,24.479 48.476,24.655 L44.908,20.908" id="Fill-322" fill="#6D4526"></path><path d="M29,41 C28.577,41 28.177,41.083 27.795,41.205 C27.917,40.822 28,40.423 28,40 C28,37.791 26.209,36 24,36 C23.577,36 23.177,36.083 22.795,36.205 C22.917,35.822 23,35.423 23,35 C23,32.791 21.209,31 19,31 C18.577,31 18.177,31.083 17.795,31.205 C17.917,30.822 18,30.423 18,30 C18,27.791 16.209,26 14,26 C11.791,26 10,27.791 10,30 C10,32.209 11.791,34 14,34 C14.423,34 14.823,33.916 15.205,33.795 C15.083,34.177 15,34.577 15,35 C15,37.209 16.791,39 19,39 C19.423,39 19.823,38.916 20.205,38.795 C20.083,39.177 20,39.577 20,40 C20,42.209 21.791,44 24,44 C24.423,44 24.823,43.916 25.205,43.795 C25.083,44.177 25,44.577 25,45 C25,47.209 26.791,49 29,49 C31.209,49 33,47.209 33,45 C33,42.791 31.209,41 29,41" id="Fill-323" fill="#EAC5A7"></path><path d="M4,23 C3.448,23 3,22.552 3,22 C3,21.448 3.448,21 4,21 C4.552,21 5,21.448 5,22 C5,22.552 4.552,23 4,23" id="Fill-324" fill="#8BA6B1"></path><path d="M40.895,7.095 C39.625,8.313 37.935,9 36.172,9 L33.803,9 C32.649,9 31.541,9.459 30.725,10.275 L21.406,19.594 C20.651,20.349 20.707,21.589 21.527,22.273 C24.099,24.415 27.85,24.355 30.352,22.132 L34.585,18.369 C34.856,18.128 35.19,17.968 35.548,17.909 C38.969,17.338 42.456,18.455 44.908,20.908 L51.78,28.124 L56.899,23.099 L40.895,7.095" id="Fill-325" fill="#EAC5A7"></path><path d="M40.92,7.119 C40.467,7.675 40.503,8.495 41.025,9.009 L52.829,20.624 C54.092,21.866 54.1,23.9 52.847,25.152 C52.195,25.805 50.851,27.149 50.851,27.149 L51.78,28.124 L56.899,23.099 L40.92,7.119" id="Fill-326" fill="#D9B090"></path><path d="M43.314,19.502 C41.65,17.838 39.509,16.788 37.236,16.464 C35.15,16.166 33.048,16.912 31.473,18.312 L28.757,20.726 C26.592,22.65 23.494,22.947 21.032,21.605 C21.141,21.854 21.303,22.085 21.527,22.273 C24.098,24.415 27.85,24.355 30.351,22.132 L34.585,18.369 C34.842,18.141 35.155,17.976 35.495,17.918 C38.38,17.422 41.307,18.141 43.634,19.838 L43.314,19.502" id="Fill-327" fill="#D9B090"></path><path d="M41.845,28.845 C41.064,29.626 41.064,30.892 41.845,31.674 L44.967,34.795 C45.748,35.576 47.014,35.576 47.795,34.795 L41.845,28.845" id="Fill-328" fill="#6D4526"></path><path d="M36.845,36.674 L39.967,39.795 C40.748,40.576 42.014,40.576 42.795,39.795 L36.845,33.845 C36.064,34.626 36.064,35.892 36.845,36.674" id="Fill-329" fill="#6D4526"></path><path d="M31.26,40.266 C30.345,39.884 29.537,39.969 28.795,40.205 C28.917,39.822 29,39.423 29,39 C29,36.791 27.209,35 25,35 C24.577,35 24.178,35.083 23.795,35.205 C23.917,34.822 24,34.423 24,34 C24,31.791 22.209,30 20,30 C19.577,30 19.178,30.083 18.795,30.205 C19.121,29.178 19.173,28.029 18.073,26.638 C17.266,25.616 16.069,24.931 14.769,25.007 C14.197,25.04 13.659,25.195 13.178,25.445 C12.505,25.796 11.689,25.689 11.153,25.152 C9.9,23.9 9.908,21.866 11.171,20.624 L22.975,9.009 C23.497,8.495 23.533,7.675 23.08,7.119 L7.098,23.102 L11.406,27.594 C11.406,27.594 11.656,26.719 12.363,26.362 C12.881,26.127 13.454,25.99 14.064,26 C15.307,26.021 16.413,26.758 17.161,27.751 C18.17,29.091 18.112,30.206 17.795,31.205 C18.178,31.083 18.577,31 19,31 C21.209,31 23,32.791 23,35 C23,35.423 22.917,35.822 22.795,36.205 C23.178,36.083 23.577,36 24,36 C26.209,36 28,37.791 28,40 C28,40.423 27.917,40.822 27.795,41.205 C28.821,40.879 29.97,40.827 31.361,41.925 C32.324,42.687 33.005,43.789 33,45.017 C32.996,45.859 32.729,46.637 32.281,47.28 C33.308,46.565 33.987,45.383 34,44.039 C34.001,43.964 33.991,43.89 33.987,43.815 L34.967,44.795 C35.748,45.576 37.014,45.576 37.795,44.795 L31.845,38.845 C31.453,39.237 31.258,39.752 31.26,40.266" id="Fill-330" fill="#6D4526"></path><path d="M29,41 C28.577,41 28.177,41.083 27.795,41.205 C27.917,40.822 28,40.423 28,40 C28,37.791 26.209,36 24,36 C23.577,36 23.177,36.083 22.795,36.205 C22.917,35.822 23,35.423 23,35 C23,32.791 21.209,31 19,31 C18.577,31 18.177,31.083 17.795,31.205 C17.917,30.822 18,30.423 18,30 C18,27.791 16.209,26 14,26 C11.791,26 10,27.791 10,30 C10,32.209 11.791,34 14,34 C14.423,34 14.823,33.916 15.205,33.795 C15.083,34.177 15,34.577 15,35 C15,37.209 16.791,39 19,39 C19.423,39 19.823,38.916 20.205,38.795 C20.083,39.177 20,39.577 20,40 C20,42.209 21.791,44 24,44 C24.423,44 24.823,43.916 25.205,43.795 C25.083,44.177 25,44.577 25,45 C25,47.209 26.791,49 29,49 C31.209,49 33,47.209 33,45 C33,42.791 31.209,41 29,41" id="Fill-331" fill="#EAC5A7"></path><path d="M29.406,47.594 C27.197,47.594 25.406,45.803 25.406,43.594 C25.406,43.171 25.489,42.772 25.611,42.389 C25.228,42.511 24.829,42.594 24.406,42.594 C22.197,42.594 20.406,40.803 20.406,38.594 C20.406,38.171 20.489,37.772 20.611,37.389 C20.228,37.511 19.829,37.594 19.406,37.594 C17.197,37.594 15.406,35.803 15.406,33.594 C15.406,33.171 15.489,32.772 15.611,32.389 C15.228,32.511 14.829,32.594 14.406,32.594 C12.197,32.594 10.406,30.803 10.406,28.594 C10.406,28.46 10.432,28.333 10.445,28.201 C10.17,28.744 10,29.349 10,30 C10,32.209 11.791,34 14,34 C14.423,34 14.823,33.916 15.205,33.795 C15.084,34.177 15,34.577 15,35 C15,37.209 16.791,39 19,39 C19.423,39 19.823,38.916 20.205,38.795 C20.084,39.177 20,39.577 20,40 C20,42.209 21.791,44 24,44 C24.423,44 24.823,43.916 25.205,43.795 C25.084,44.177 25,44.577 25,45 C25,47.209 26.791,49 29,49 C31.075,49 32.76,47.415 32.96,45.392 C32.3,46.693 30.965,47.594 29.406,47.594" id="Fill-332" fill="#D9B090"></path></g></g></g><g id="Dynamic-Border" stroke="#1D8E96" stroke-width="4"><rect id="Azure-Border" x="2" y="2" width="96" height="96" rx="48"></rect></g></g></g></g></svg>