<svg xmlns="http://www.w3.org/2000/svg" xmlns:xlink="http://www.w3.org/1999/xlink" viewBox="0 0 100 118"><defs><path d="M42.742 1.497A10.056 10.056 0 0 1 48 0c1.813 0 3.627.499 5.256 1.497l37.335 22.835C93.933 26.377 96 30.203 96 34.352v45.295c0 4.148-2.067 7.977-5.409 10.021l-37.335 22.837A10.056 10.056 0 0 1 48 114c-1.813 0-3.626-.499-5.258-1.495L5.41 89.668C2.066 87.624 0 83.795 0 79.648V34.352c0-4.15 2.066-7.976 5.409-10.021L42.743 1.497z" id="a"/><path d="M23.474 60.245c-1.041-.835-.53-2.532.818-2.633l5.259-.333-4.56-17.017a1.21 1.21 0 0 1 .862-1.494l6.238-1.671a1.21 1.21 0 0 1 1.494.862l4.56 17.017 4.72-2.341c1.217-.586 2.543.619 2.025 1.872L38.78 69.962a1.44 1.44 0 0 1-2.287.613l-13.018-10.33z" id="d"/><filter x="-4.5%" y="-3%" width="109.1%" height="111.8%" filterUnits="objectBoundingBox" id="c"><feOffset dy="2" in="SourceAlpha" result="shadowOffsetOuter1"/><feColorMatrix values="0 0 0 0 0 0 0 0 0 0 0 0 0 0 0 0 0 0 0.102072011 0" in="shadowOffsetOuter1"/></filter><path d="M50.585 47.025l13.019-10.33a1.44 1.44 0 0 1 2.286.614l6.112 15.455c.517 1.253-.808 2.458-2.025 1.872l-4.72-2.342-4.56 17.017a1.21 1.21 0 0 1-1.494.863l-6.238-1.672a1.21 1.21 0 0 1-.863-1.493l4.56-17.018-5.259-.332c-1.348-.102-1.859-1.798-.818-2.634z" id="f"/><filter x="-4.5%" y="-3%" width="109.1%" height="111.8%" filterUnits="objectBoundingBox" id="e"><feOffset dy="2" in="SourceAlpha" result="shadowOffsetOuter1"/><feColorMatrix values="0 0 0 0 0 0 0 0 0 0 0 0 0 0 0 0 0 0 0.102072011 0" in="shadowOffsetOuter1"/></filter></defs><g fill="none" fill-rule="evenodd"><g transform="translate(2 2)"><mask id="b" fill="#fff"><use xlink:href="#a"/></mask><use fill="#55A2FF" xlink:href="#a"/><g mask="url(#b)"><path d="M71.933 104.95c0 4.972-10.745 9-24 9-13.254 0-24-4.028-24-9s10.746-9 24-9c13.255 0 24 4.028 24 9" fill="#BAC0C2"/><path d="M47.933 96.853c-13.326 0-24.13-4.024-24.13-8.992v11.99c0 4.967 10.804 8.992 24.13 8.992 13.326 0 24.13-4.025 24.13-8.992V87.86c0 4.968-10.804 8.992-24.13 8.992" fill="#E1E4E1"/><path d="M47.933 100.817v3.993c0 1.134-.95 2.038-2.09 2.002-12.348-.395-22.04-4.255-22.04-8.96v1.999c0 4.967 10.804 8.992 24.13 8.992 13.326 0 24.13-4.025 24.13-8.992v-9.992c0 4.725-9.772 8.597-22.194 8.964a1.998 1.998 0 0 0-1.936 1.994" fill="#D3DAD8"/><path d="M71.933 87.95c0 4.972-10.745 9-24 9-13.254 0-24-4.028-24-9s10.746-9 24-9c13.255 0 24 4.028 24 9" stroke="#E1E4E1" stroke-width=".25" fill="#BAC0C2"/><path d="M47.933 79.868c-13.326 0-24.13-4.024-24.13-8.992v11.99c0 4.967 10.804 8.992 24.13 8.992 13.326 0 24.13-4.025 24.13-8.992v-11.99c0 4.968-10.804 8.992-24.13 8.992" fill="#E1E4E1"/><path d="M47.933 83.832v3.993c0 1.134-.95 2.037-2.09 2.002-12.348-.395-22.04-4.255-22.04-8.96v1.999c0 4.967 10.804 8.992 24.13 8.992 13.326 0 24.13-4.025 24.13-8.992v-9.992c0 4.725-9.772 8.597-22.194 8.963a1.998 1.998 0 0 0-1.936 1.995" fill="#D3DAD8"/><path d="M71.933 70.95c0 4.972-10.745 9-24 9-13.254 0-24-4.028-24-9s10.746-9 24-9c13.255 0 24 4.028 24 9" stroke="#E1E4E1" stroke-width=".25" fill="#C4CBCD"/></g><g mask="url(#b)"><g transform="translate(1)"><use fill="#000" filter="url(#c)" xlink:href="#d"/><use fill="#EEC360" xlink:href="#d"/></g><path d="M38.67 70.882l-7.596-28.348c-.396-1.48.95-3.126 3.009-3.678l.695-.186 4.366 16.294 4.721-2.341c1.217-.586 2.543.619 2.025 1.872L39.78 69.95a1.433 1.433 0 0 1-1.109.932z" fill="#DBB357"/><path d="M1.577 28.326c.928-1.632 2.234-3.017 3.832-3.994L42.743 1.497A10.056 10.056 0 0 1 48 0c1.813 0 3.627.499 5.256 1.497l37.335 22.835c.698.427 1.34.931 1.919 1.5a22.958 22.958 0 0 1-10.986 5.181c-.164.029-.327.036-.49.061-.284 11.517-8.632 21.622-20.414 23.7-10.533 1.857-20.658-3.268-25.697-12.034a14.752 14.752 0 0 1-6.082 2.581c-8.065 1.422-15.755-3.962-17.177-12.027-.04-.23-.056-.457-.086-.686a18.168 18.168 0 0 1-10.001-4.282z" fill-opacity=".103" fill="#000"/><path d="M2.44 27.02a10.909 10.909 0 0 1 2.969-2.688L42.743 1.497A10.056 10.056 0 0 1 48 0c1.813 0 3.627.499 5.256 1.497l37.335 22.835c.242.148.477.305.705.47a22.969 22.969 0 0 1-9.772 4.211c-.164.029-.327.036-.49.061-.284 11.517-8.632 21.622-20.414 23.7-10.533 1.857-20.658-3.268-25.697-12.034a14.752 14.752 0 0 1-6.082 2.581c-8.065 1.422-15.755-3.962-17.177-12.027-.04-.23-.056-.457-.086-.686a18.156 18.156 0 0 1-9.138-3.587z" fill="#FFF"/><g transform="translate(1)"><use fill="#000" filter="url(#e)" xlink:href="#f"/><use fill="#EEC360" xlink:href="#f"/></g><path d="M65.782 36.376c.484.085.922.414 1.108.933l6.112 15.455c.517 1.253-.808 2.458-2.025 1.872l-4.72-2.342L61.89 68.59l-.696-.186c-2.058-.552-3.405-2.199-3.008-3.679l7.596-28.348z" fill="#DBB357"/></g></g><path d="M45.562 3.258L6.673 26.894C3.797 28.644 2 31.951 2 35.558v46.884c0 3.607 1.798 6.917 4.673 8.664l38.888 23.636A8.539 8.539 0 0 0 50 116a8.525 8.525 0 0 0 4.436-1.257l38.89-23.637C96.203 89.358 98 86.048 98 82.442V35.558c0-3.606-1.797-6.914-4.673-8.664L54.435 3.258A8.511 8.511 0 0 0 50 2c-1.546 0-3.07.428-4.438 1.258zm0 0s0 0 0 0h0z" stroke="#0078D4" stroke-width="4"/></g></svg>