<svg xmlns="http://www.w3.org/2000/svg" xmlns:xlink="http://www.w3.org/1999/xlink" viewBox="0 0 100 100" version="1.1"><!-- Generator: Sketch 51.3 (57544) - http://www.bohemiancoding.com/sketch --><title>choose-an-approach-to-store-your-data-in-azure</title><desc>Created with Sketch.</desc><defs><filter x="-1.4%" y="-1.9%" width="102.9%" height="107.5%" filterUnits="objectBoundingBox" id="filter-1"><feOffset dx="0" dy="2" in="SourceAlpha" result="shadowOffsetOuter1"></feOffset><feColorMatrix values="0 0 0 0 0   0 0 0 0 0   0 0 0 0 0  0 0 0 0.102496603 0" type="matrix" in="shadowOffsetOuter1" result="shadowMatrixOuter1"></feColorMatrix><feMerge><feMergeNode in="shadowMatrixOuter1"></feMergeNode><feMergeNode in="SourceGraphic"></feMergeNode></feMerge></filter><polygon id="path-2" points="14.3819678 51.9963452 54.2089557 51.9963452 54.2089557 29.8702409 14.3819678 29.8702409"></polygon><filter x="-2.5%" y="-4.5%" width="105.0%" height="109.0%" filterUnits="objectBoundingBox" id="filter-3"><feOffset dx="0" dy="2" in="SourceAlpha" result="shadowOffsetInner1"></feOffset><feComposite in="shadowOffsetInner1" in2="SourceAlpha" operator="arithmetic" k2="-1" k3="1" result="shadowInnerInner1"></feComposite><feColorMatrix values="0 0 0 0 0   0 0 0 0 0   0 0 0 0 0  0 0 0 0.102694746 0" type="matrix" in="shadowInnerInner1"></feColorMatrix></filter></defs><g id="Badges-FINAL" stroke="none" stroke-width="1" fill="none" fill-rule="evenodd"><g id="Store-data-in-Azure" transform="translate(-576.000000, -320.000000)"><g id="choose-an-approach-to-store-your-data-in-azure" transform="translate(576.000000, 320.000000)"><rect id="BG" fill="#55A2FF" x="2" y="2" width="96" height="96" rx="48"></rect><g id="Garage" filter="url(#filter-1)" transform="translate(15.000000, 21.427048)"><polygon id="Fill-675" fill="#E1E4E1" points="5.53152609 51.9963452 5.53152609 11.594786 62.860591 0.225589926 62.860591 51.9963452"></polygon><path d="M14.3819678,15.488273 C13.1606069,15.488273 12.1693574,16.4784162 12.1693574,17.7008835 L12.1693574,51.9963452 L56.4215661,51.9963452 L56.4215661,17.7008835 C56.4215661,16.4784162 55.4314229,15.488273 54.2089557,15.488273 L14.3819678,15.488273 Z" id="Fill-678" fill="#546670"></path><polygon id="Fill-679" fill="#30404D" points="14.3819678 21.0197991 54.2089557 21.0197991 54.2089557 18.8071887 14.3819678 18.8071887"></polygon><polygon id="Fill-680" fill="#30404D" points="14.3819678 26.5513252 54.2089557 26.5513252 54.2089557 24.3387148 14.3819678 24.3387148"></polygon><g id="Fill-684"><use fill="#4C91E5" fill-rule="evenodd" xlink:href="#path-2"></use><use fill="black" fill-opacity="1" filter="url(#filter-3)" xlink:href="#path-2"></use></g><path d="M6.63783131,43.1459035 C6.25947492,43.1459035 5.88886267,43.1857305 5.53152609,43.2598529 L5.53152609,51.9963452 L11.1725764,51.9963452 C11.7998515,51.0825371 12.1693574,49.9751256 12.1693574,48.7792097 C12.1693574,45.6671731 9.69234001,43.1459035 6.63783131,43.1459035" id="Fill-685" fill="#C5CCCD"></path><path d="M10.0662712,51.9963452 C10.6924399,51.0825371 11.0630522,49.9751256 11.0630522,48.7792097 C11.0630522,45.6671731 8.58603479,43.1459035 5.53152609,43.1459035 C2.47701738,43.1459035 0,45.6671731 0,48.7792097 C0,49.9751256 0.370612248,51.0825371 0.995674696,51.9963452 L10.0662712,51.9963452" id="Fill-686" fill="#87BF5F"></path><path d="M8.83716608,44.2654844 C9.53081945,45.1903555 9.95674696,46.326531 9.95674696,47.5711244 C9.95674696,49.3887838 9.06838387,50.9885012 7.71426628,51.9963452 L9.93130194,51.9963452 C10.6315931,51.0692615 11.0630522,49.9286608 11.0630522,48.6774296 C11.0630522,46.8675142 10.1813269,45.275541 8.83716608,44.2654844" id="Fill-690" fill="#6EA846"></path><g id="Group-7" transform="translate(56.300713, 43.895968)"><path d="M7.77797083,8.10037731 C8.2381938,7.46093289 8.50813227,6.68541293 8.50813227,5.84793988 C8.50813227,3.66962491 6.6915791,1.90506809 4.45241734,1.90506809 C2.21214928,1.90506809 0.395596108,3.66962491 0.395596108,5.84793988 C0.395596108,6.68541293 0.666640886,7.46093289 1.12575755,8.10037731 L7.77797083,8.10037731" id="Fill-499" fill="#6AA143"></path><path d="M11.6887598,8.10037731 C12.2396998,7.30051864 12.5649535,6.33139526 12.5649535,5.28483053 C12.5649535,2.56221339 10.3855322,0.356240784 7.69721054,0.356240784 C5.00888887,0.356240784 2.82946759,2.56221339 2.82946759,5.28483053 C2.82946759,6.33139526 3.15472132,7.30051864 3.70566132,8.10037731 L11.6887598,8.10037731" id="Fill-500" fill="#87BF5F"></path><path d="M3.14476457,2.13296696 C1.54947245,2.66399347 0.395596108,4.11657222 0.395596108,5.84793988 C0.395596108,6.68541293 0.666640886,7.46093289 1.12575755,8.10037731 L2.89363329,8.10037731 C2.3437996,7.30051864 2.01854586,6.33139526 2.01854586,5.28483053 C2.01854586,4.08559567 2.44226076,2.98703459 3.14476457,2.13296696" id="Fill-501" fill="#6EA846"></path><path d="M10.605687,1.33642721 C11.2163674,2.14513632 11.5914049,3.13859841 11.5914049,4.22830905 C11.5914049,5.81917595 10.8092471,7.21754574 9.6177564,8.10037731 L11.6887598,8.10037731 C12.3049718,7.28945558 12.5649535,6.29156828 12.5649535,5.19632611 C12.5649535,3.61209704 11.7883272,2.21925877 10.605687,1.33642721" id="Fill-503" fill="#6EA846"></path></g></g><g id="Crate-2" transform="translate(49.949375, 62.078511)"><g id="Front-Box" transform="translate(0.009175, 0.085403)"><path d="M16.5472548,13.4257798 L0.585429514,13.4257798 C0.336901377,13.4257798 0.135429514,13.2243079 0.135429514,12.9757798 L0.135429514,0.487685008 C0.135429514,0.23915687 0.336901377,0.0376850076 0.585429514,0.0376850076 L16.5475182,0.0376761519 C16.7960464,0.0376761519 16.9975182,0.239148015 16.9975182,0.487676152 C16.9975182,0.487679104 16.9975182,0.487682056 16.9975182,0.487685008 L16.9972548,12.9757798 C16.9972499,13.2243045 16.7957794,13.425771 16.5472548,13.425771 Z" id="Fill-681" fill="#546670"></path><path d="M16.4703145,13.4257798 C16.7601316,13.4257798 16.9972548,13.1847941 16.9972548,12.890256 L16.9975182,0.5732088 L9.35662081,0.5732088 C8.92005079,0.5732088 8.5662104,0.93200974 8.5662104,1.37649449 L8.5662104,12.0869703 C8.5662104,12.5314551 8.21237001,12.890256 7.77579999,12.890256 L0.135166044,12.890256 C0.135166044,13.1847941 0.372025697,13.4257798 0.662106316,13.4257798 L16.4703145,13.4257798" id="Fill-683" fill="#30404D"></path><g id="Rivets" transform="translate(0.981487, 0.802188)"><g id="Group-10" transform="translate(0.028854, 10.548251)"><path d="M1.16726538,0.592954393 C1.16726538,0.920265218 0.904712715,1.18590879 0.583815017,1.18590879 C0.262917319,1.18590879 0.000364656475,0.920265218 0.000364656475,0.592954393 C0.000364656475,0.265347091 0.262917319,0 0.583815017,0 C0.904712715,0 1.16726538,0.265347091 1.16726538,0.592954393" id="Fill-366" fill="#30404D"></path><path d="M0.994418208,1.01224727 C1.2248811,0.780698578 1.2248811,0.405358447 0.994418208,0.173809757 L0.1717532,1.01224727 C0.39929884,1.24379596 0.766872567,1.24379596 0.994418208,1.01224727" id="Fill-379" fill="#182A37"></path></g><g id="Group-9" transform="translate(0.028854, 0.124928)"><path d="M1.16690072,0.592954393 C1.16690072,0.920265218 0.904348058,1.18590879 0.58345036,1.18590879 C0.262552662,1.18590879 0,0.920265218 0,0.592954393 C0,0.265347091 0.262552662,0 0.58345036,0 C0.904348058,0 1.16690072,0.265347091 1.16690072,0.592954393" id="Fill-365" fill="#30404D"></path><path d="M0.994782864,1.01246963 C1.22524576,0.780624459 1.22524576,0.405284328 0.994782864,0.173735637 L0.172117856,1.01246963 C0.399663497,1.24372184 0.767237224,1.24372184 0.994782864,1.01246963" id="Fill-380" fill="#182A37"></path></g><g id="Group-8" transform="translate(13.973955, 10.548251)"><path d="M1.16690072,0.592954393 C1.16690072,0.920265218 0.904348058,1.18590879 0.58345036,1.18590879 C0.262552662,1.18590879 0,0.920265218 0,0.592954393 C0,0.265347091 0.262552662,0 0.58345036,0 C0.904348058,0 1.16690072,0.265347091 1.16690072,0.592954393" id="Fill-381" fill="#30404D"></path><path d="M0.994782864,1.01217315 C1.22524576,0.780624459 1.2223285,0.405284328 0.994782864,0.173735637 L0.172117856,1.01217315 C0.399663497,1.24372184 0.767237224,1.24372184 0.994782864,1.01217315" id="Fill-383" fill="#182A37"></path></g><g id="Group-7" transform="translate(13.973955, 0.124928)"><path d="M1.16690072,0.592954393 C1.16690072,0.920265218 0.904348058,1.18590879 0.58345036,1.18590879 C0.262552662,1.18590879 0,0.920265218 0,0.592954393 C0,0.265347091 0.262552662,0 0.58345036,0 C0.904348058,0 1.16690072,0.265347091 1.16690072,0.592954393" id="Fill-382" fill="#30404D"></path><path d="M0.994782864,1.01246963 C1.22524576,0.780624459 1.2223285,0.405284328 0.994782864,0.173735637 L0.172117856,1.01246963 C0.399663497,1.24372184 0.767237224,1.24372184 0.994782864,1.01246963" id="Fill-384" fill="#182A37"></path></g></g><g id="Logo" transform="translate(4.919777, 2.877529)"><path d="M3.56031818,7.20371869 C1.67577351,7.20371869 0.144216317,5.69346385 0.0596160148,3.80045695 C0.056698763,3.8544158 0.0508642594,3.90748521 0.0508642594,3.9623335 C0.0508642594,5.93123856 1.62326298,7.52747179 3.56031818,7.52747179 C5.49737337,7.52747179 7.06977209,5.93123856 7.06977209,3.9623335 C7.06977209,3.90748521 7.06393759,3.8544158 7.06102034,3.80045695 C6.97642004,5.69346385 5.44486284,7.20371869 3.56031818,7.20371869" id="Fill-364" fill="#30404D"></path><path d="M7.06977209,3.63828392 C7.06977209,5.60718898 5.49737337,7.20371869 3.56031818,7.20371869 C1.62326298,7.20371869 0.0508642594,5.60718898 0.0508642594,3.63828392 C0.0508642594,1.66937886 1.62326298,0.0731456292 3.56031818,0.0731456292 C5.49737337,0.0731456292 7.06977209,1.66937886 7.06977209,3.63828392" id="Fill-367" fill="#6E828F"></path><g id="Microsoft_Azure" transform="translate(1.190553, 1.315676)"><path d="M4.65729943,3.75146111 L4.65729943,3.90028262 L1.16432486,3.86254415 L1.16432486,3.71372264 L4.65729943,3.75146111 Z M3.30210841,3.46310945 L2.20251763,2.14708228 L2.20251763,1.99826077 L3.41536127,3.44983277 L3.30210841,3.46310945 Z" id="path7291" fill="#30404D"></path><path d="M1.83297821e-13,3.41213415 L0.999386076,3.30843398 L2.75556467,4.54747351e-13 L2.75556467,0.14882151 L0.999386076,3.45725549 L0,3.56095566 L7.80884115e-14,3.41213415 Z" id="path7293" fill="#30404D"></path><polygon id="path7291-copy" fill="#ADBDC4" points="2.89140884 0.565557734 2.20251763 1.99826077 3.41536127 3.44983277 1.16432486 3.71372264 4.65729943 3.75146111"></polygon><polygon id="path7293-copy" fill="#ADBDC4" points="2.75556467 0 1.17403686 1.36674079 0 3.41213415 0.999386076 3.30843398"></polygon></g></g></g></g><g id="Crate-1" transform="translate(31.898836, 62.078511)"><g id="Front-Box" transform="translate(0.009175, 0.085403)"><path d="M16.5472548,13.4257798 L0.585429514,13.4257798 C0.336901377,13.4257798 0.135429514,13.2243079 0.135429514,12.9757798 L0.135429514,0.487685008 C0.135429514,0.23915687 0.336901377,0.0376850076 0.585429514,0.0376850076 L16.5475182,0.0376761519 C16.7960464,0.0376761519 16.9975182,0.239148015 16.9975182,0.487676152 C16.9975182,0.487679104 16.9975182,0.487682056 16.9975182,0.487685008 L16.9972548,12.9757798 C16.9972499,13.2243045 16.7957794,13.425771 16.5472548,13.425771 Z" id="Fill-681" fill="#546670"></path><path d="M16.4703145,13.4257798 C16.7601316,13.4257798 16.9972548,13.1847941 16.9972548,12.890256 L16.9975182,0.5732088 L9.35662081,0.5732088 C8.92005079,0.5732088 8.5662104,0.93200974 8.5662104,1.37649449 L8.5662104,12.0869703 C8.5662104,12.5314551 8.21237001,12.890256 7.77579999,12.890256 L0.135166044,12.890256 C0.135166044,13.1847941 0.372025697,13.4257798 0.662106316,13.4257798 L16.4703145,13.4257798" id="Fill-683" fill="#30404D"></path><g id="Rivets" transform="translate(0.981487, 0.802188)"><g id="Group-10" transform="translate(0.028854, 10.548251)"><path d="M1.16726538,0.592954393 C1.16726538,0.920265218 0.904712715,1.18590879 0.583815017,1.18590879 C0.262917319,1.18590879 0.000364656475,0.920265218 0.000364656475,0.592954393 C0.000364656475,0.265347091 0.262917319,0 0.583815017,0 C0.904712715,0 1.16726538,0.265347091 1.16726538,0.592954393" id="Fill-366" fill="#30404D"></path><path d="M0.994418208,1.01224727 C1.2248811,0.780698578 1.2248811,0.405358447 0.994418208,0.173809757 L0.1717532,1.01224727 C0.39929884,1.24379596 0.766872567,1.24379596 0.994418208,1.01224727" id="Fill-379" fill="#182A37"></path></g><g id="Group-9" transform="translate(0.028854, 0.124928)"><path d="M1.16690072,0.592954393 C1.16690072,0.920265218 0.904348058,1.18590879 0.58345036,1.18590879 C0.262552662,1.18590879 0,0.920265218 0,0.592954393 C0,0.265347091 0.262552662,0 0.58345036,0 C0.904348058,0 1.16690072,0.265347091 1.16690072,0.592954393" id="Fill-365" fill="#30404D"></path><path d="M0.994782864,1.01246963 C1.22524576,0.780624459 1.22524576,0.405284328 0.994782864,0.173735637 L0.172117856,1.01246963 C0.399663497,1.24372184 0.767237224,1.24372184 0.994782864,1.01246963" id="Fill-380" fill="#182A37"></path></g><g id="Group-8" transform="translate(13.973955, 10.548251)"><path d="M1.16690072,0.592954393 C1.16690072,0.920265218 0.904348058,1.18590879 0.58345036,1.18590879 C0.262552662,1.18590879 0,0.920265218 0,0.592954393 C0,0.265347091 0.262552662,0 0.58345036,0 C0.904348058,0 1.16690072,0.265347091 1.16690072,0.592954393" id="Fill-381" fill="#30404D"></path><path d="M0.994782864,1.01217315 C1.22524576,0.780624459 1.2223285,0.405284328 0.994782864,0.173735637 L0.172117856,1.01217315 C0.399663497,1.24372184 0.767237224,1.24372184 0.994782864,1.01217315" id="Fill-383" fill="#182A37"></path></g><g id="Group-7" transform="translate(13.973955, 0.124928)"><path d="M1.16690072,0.592954393 C1.16690072,0.920265218 0.904348058,1.18590879 0.58345036,1.18590879 C0.262552662,1.18590879 0,0.920265218 0,0.592954393 C0,0.265347091 0.262552662,0 0.58345036,0 C0.904348058,0 1.16690072,0.265347091 1.16690072,0.592954393" id="Fill-382" fill="#30404D"></path><path d="M0.994782864,1.01246963 C1.22524576,0.780624459 1.2223285,0.405284328 0.994782864,0.173735637 L0.172117856,1.01246963 C0.399663497,1.24372184 0.767237224,1.24372184 0.994782864,1.01246963" id="Fill-384" fill="#182A37"></path></g></g><g id="Logo" transform="translate(4.919777, 2.877529)"><path d="M3.56031818,7.20371869 C1.67577351,7.20371869 0.144216317,5.69346385 0.0596160148,3.80045695 C0.056698763,3.8544158 0.0508642594,3.90748521 0.0508642594,3.9623335 C0.0508642594,5.93123856 1.62326298,7.52747179 3.56031818,7.52747179 C5.49737337,7.52747179 7.06977209,5.93123856 7.06977209,3.9623335 C7.06977209,3.90748521 7.06393759,3.8544158 7.06102034,3.80045695 C6.97642004,5.69346385 5.44486284,7.20371869 3.56031818,7.20371869" id="Fill-364" fill="#30404D"></path><path d="M7.06977209,3.63828392 C7.06977209,5.60718898 5.49737337,7.20371869 3.56031818,7.20371869 C1.62326298,7.20371869 0.0508642594,5.60718898 0.0508642594,3.63828392 C0.0508642594,1.66937886 1.62326298,0.0731456292 3.56031818,0.0731456292 C5.49737337,0.0731456292 7.06977209,1.66937886 7.06977209,3.63828392" id="Fill-367" fill="#6E828F"></path><g id="Microsoft_Azure" transform="translate(1.190553, 1.315676)"><path d="M4.65729943,3.75146111 L4.65729943,3.90028262 L1.16432486,3.86254415 L1.16432486,3.71372264 L4.65729943,3.75146111 Z M3.30210841,3.46310945 L2.20251763,2.14708228 L2.20251763,1.99826077 L3.41536127,3.44983277 L3.30210841,3.46310945 Z" id="path7291" fill="#30404D"></path><path d="M1.83297821e-13,3.41213415 L0.999386076,3.30843398 L2.75556467,4.54747351e-13 L2.75556467,0.14882151 L0.999386076,3.45725549 L0,3.56095566 L7.80884115e-14,3.41213415 Z" id="path7293" fill="#30404D"></path><polygon id="path7291-copy" fill="#ADBDC4" points="2.89140884 0.565557734 2.20251763 1.99826077 3.41536127 3.44983277 1.16432486 3.71372264 4.65729943 3.75146111"></polygon><polygon id="path7293-copy" fill="#ADBDC4" points="2.75556467 0 1.17403686 1.36674079 0 3.41213415 0.999386076 3.30843398"></polygon></g></g></g></g><g id="Azure-Border" stroke="#0078D4" stroke-width="4"><rect x="2" y="2" width="96" height="96" rx="48"></rect></g></g></g></g></svg>