<svg xmlns="http://www.w3.org/2000/svg" viewBox="0 0 100 100"><defs><filter x="-1.9%" y="-1.4%" width="103.7%" height="105.7%" filterUnits="objectBoundingBox" id="a"><feOffset dy="2" in="SourceAlpha" result="shadowOffsetOuter1"/><feColorMatrix values="0 0 0 0 0 0 0 0 0 0 0 0 0 0 0 0 0 0 0.0954766757 0" in="shadowOffsetOuter1" result="shadowMatrixOuter1"/><feMerge><feMergeNode in="shadowMatrixOuter1"/><feMergeNode in="SourceGraphic"/></feMerge></filter><filter x="-8%" y="-8%" width="116%" height="124%" filterUnits="objectBoundingBox" id="b"><feOffset dy="2" in="SourceAlpha" result="shadowOffsetOuter1"/><feColorMatrix values="0 0 0 0 0 0 0 0 0 0 0 0 0 0 0 0 0 0 0.100005661 0" in="shadowOffsetOuter1" result="shadowMatrixOuter1"/><feMerge><feMergeNode in="shadowMatrixOuter1"/><feMergeNode in="SourceGraphic"/></feMerge></filter></defs><g fill="none" fill-rule="evenodd"><rect fill="#F2C811" x="2" y="2" width="96" height="96" rx="48"/><g filter="url(#a)" transform="translate(23 13.203)"><path d="M8.956 70h36c1.1 0 2-.9 2-2V47h-40v21c0 1.1.9 2 2 2z" fill="#F5F5F5"/><path d="M13.956 58a2 2 0 0 1 0-4h26a2 2 0 0 1 0 4h-26zM13.956 65a2 2 0 0 1 0-4h16a2 2 0 0 1 0 4h-16zM6.956 49h40v-2h-40z" fill="#C5CCCD"/><g><path d="M9 24.854a2 2 0 0 1-2-2v-12a2 2 0 1 1 4 0v12a2 2 0 0 1-2 2M21 24.854a2 2 0 0 1-2-2v-12a2 2 0 1 1 4 0v12a2 2 0 0 1-2 2M15 24.854a2 2 0 0 1-2-2v-20a2 2 0 1 1 4 0v20a2 2 0 0 1-2 2M27 24.854a2 2 0 0 1-2-2v-20a2 2 0 1 1 4 0v20a2 2 0 0 1-2 2M33 24.854a2 2 0 0 1-2-2v-20a2 2 0 1 1 4 0v20a2 2 0 0 1-2 2M39 24.854c-1.1 0-2-.896-2-2v-16c0-1.105.9-2 2-2s2 .895 2 2v16c0 1.104-.9 2-2 2M45 24.854c-1.1 0-2-.896-2-2v-12c0-1.105.9-2 2-2s2 .895 2 2v12c0 1.104-.9 2-2 2" fill="#F5F5F5"/><path fill="#C5CCCD" d="M7 17.854h4v-2H7zM13 17.854h4v-2h-4zM19 17.854h4v-2h-4zM25 17.854h4v-2h-4zM31 17.854h4v-2h-4zM37 17.854h4v-2h-4zM43 17.854h4v-2h-4z"/></g><path d="M2 17a2 2 0 0 0-2 2v26a2 2 0 0 0 2 2h50c1.1 0 2-.896 2-2V19c0-1.105-.9-2-2-2H2z" fill="#30404D"/><path d="M52 47c1.1 0 2-.895 2-2V19H29a2 2 0 0 0-2 2v22a2 2 0 0 1-2 2H0a2 2 0 0 0 2 2h50z" fill="#182A37"/></g><g filter="url(#b)" transform="translate(38.477 33.378)"><g transform="translate(.019 .037)"><path d="M20.814 9.12C18.644.988 22.069-2.723 9.81 2.427c-4.276 1.797-8.23.944-9.322 2.9-1.512 2.711 2.25 5.236 3.11 15.005.387 1.453.921 2.284 1.61 2.693 1.916 1.135 4.909-1.613 9.499-2.235 13.155-1.782 8.35-3.25 6.182-11.382l-.076-.286z" stroke="#BDC6D6" stroke-width="1.5"/><ellipse fill="#E75C5A" fill-rule="nonzero" cx="11.619" cy="11.62" rx="9.334" ry="9.441"/><g fill="#F5F5F5" fill-rule="nonzero"><path d="M6.874 3.49L8.99 7.68l2.942-.803.131-4.69c-1.86-.47-3.1-.277-5.189 1.303zM20.945 12.407l-4.646-.67-1.03 2.87 3.766 2.798c1.453-1.255 2.006-2.38 1.91-4.998zM5.887 19.02l3.04-3.536-1.851-2.462-4.348 1.615c.273 1.919.92 3.01 3.16 4.384z"/></g><ellipse fill="#182A37" fill-rule="nonzero" cx="11.618" cy="11.621" rx="4.699" ry="4.753"/></g></g><rect x="2" y="2" width="96" height="96" rx="48" stroke="#0078D4" stroke-width="4"/></g></svg>