<svg xmlns="http://www.w3.org/2000/svg" xmlns:xlink="http://www.w3.org/1999/xlink" viewBox="0 0 100 100"><defs><rect id="a" x="0" y="0" width="96" height="96" rx="48"/><filter x="-1.6%" y="-1.9%" width="103.1%" height="107.7%" filterUnits="objectBoundingBox" id="c"><feOffset dy="2" in="SourceAlpha" result="shadowOffsetOuter1"/><feColorMatrix values="0 0 0 0 0 0 0 0 0 0 0 0 0 0 0 0 0 0 0.102439991 0" in="shadowOffsetOuter1" result="shadowMatrixOuter1"/><feMerge><feMergeNode in="shadowMatrixOuter1"/><feMergeNode in="SourceGraphic"/></feMerge></filter></defs><g fill="none" fill-rule="evenodd"><g transform="translate(2 2)"><mask id="b" fill="#fff"><use xlink:href="#a"/></mask><use fill="#55A2FF" xlink:href="#a"/><g mask="url(#b)" fill-rule="nonzero"><path d="M104.384 69.722c3.283 13.761-1.936 28.173-13.224 36.51a34.123 34.123 0 0 1-38.33 1.566c-11.912-7.388-18.26-21.326-16.08-35.31 2.18-13.986 12.457-25.26 26.036-28.564a33.964 33.964 0 0 1 26.094 4.123c7.809 4.843 13.39 12.645 15.504 21.675z" fill="#59B4D9"/><path d="M65.956 91.944a9.362 9.362 0 0 0-2.7-6.568 9.106 9.106 0 0 0-6.49-2.707h-1.389a9.34 9.34 0 0 0-1.726-7.912 9.068 9.068 0 0 0-7.211-3.492H36.91c-2.062 10.754 1.017 21.862 8.303 29.952h11.55a9.106 9.106 0 0 0 6.49-2.706 9.362 9.362 0 0 0 2.702-6.567zM77.34 53.49c0 .544.07 1.085.208 1.61H73.58c-5.26 0-9.524 4.324-9.524 9.657s4.264 9.657 9.524 9.657h31.545c-1.03-11.537-7.745-21.762-17.846-27.174H83.52c-3.407-.002-6.173 2.795-6.18 6.25zM105.125 81.59H86.306c-4.29-.01-7.778 3.504-7.795 7.854a7.89 7.89 0 0 0 .937 3.74c-3.66 1.16-5.934 4.861-5.346 8.704.588 3.843 3.86 6.671 7.696 6.653h5.245c10.053-5.4 16.822-15.488 18.082-26.95z" fill="#FFF" opacity=".5"/><path d="M32.192 54.652a1.05 1.05 0 0 1-.75-.312 1.079 1.079 0 0 1-.311-.757c-.016-6.747-5.418-12.205-12.072-12.2a1.06 1.06 0 0 1-1.054-1.068c0-.59.472-1.068 1.054-1.068 6.646.007 12.045-5.44 12.072-12.178a1.067 1.067 0 0 1 1.06-1.028c.567 0 1.034.453 1.06 1.028.017 6.747 5.42 12.204 12.074 12.197.376 0 .724.204.913.535.188.33.188.738 0 1.069-.189.33-.537.535-.913.535-6.651-.007-12.053 5.445-12.075 12.188a1.066 1.066 0 0 1-1.058 1.059z" fill="#B8D432"/><path d="M121.11 46.465c-3.292-5.471-11.57-6.735-23.92-3.667a97.459 97.459 0 0 0-11.341 3.667 34.746 34.746 0 0 1 6.682 4.33c2.103-.701 4.166-1.332 6.133-1.82a42.61 42.61 0 0 1 10.068-1.445c4.047 0 6.28 1.014 7.025 2.248 1.221 2.026.098 7.376-7.086 15.79-1.278 1.497-2.715 3.013-4.226 4.537a144.086 144.086 0 0 1-25.993 20.207A142.223 142.223 0 0 1 48.8 104.624c-12.502 4.128-21.039 4.046-22.951.876-1.913-3.17 1.91-10.918 11.245-20.325a35.09 35.09 0 0 1-.767-8.144c-14.857 13.613-19.665 25.406-15.824 31.78 2.009 3.333 6.402 5.211 12.817 5.211a64.507 64.507 0 0 0 22.19-4.965 157.333 157.333 0 0 0 26.21-13.325 158.079 158.079 0 0 0 23.576-17.694 98.067 98.067 0 0 0 8.119-8.318c8.332-9.752 10.992-17.795 7.697-23.255z" fill="#1566BF"/></g><g filter="url(#c)" mask="url(#b)"><path d="M52.659 30.613a2.003 2.003 0 0 1-1.414-2.45 2.002 2.002 0 0 1 2.449-1.413 2.003 2.003 0 0 1 1.414 2.45 2.003 2.003 0 0 1-2.45 1.413zm6.313-.379a6.006 6.006 0 0 0-4.243-7.348 6.006 6.006 0 0 0-7.348 4.243c-.675 2.517.369 5.091 2.401 6.492l-.608 2.27a2 2 0 0 0 3.864 1.036l.608-2.27c2.46-.197 4.651-1.905 5.326-4.423z" fill="#546670"/><path d="M42.653 48.638l-3.864-1.036a2 2 0 0 1 1.035-3.863l3.864 1.035a2 2 0 0 1-1.035 3.864" fill="#C5CCCD"/><path d="M56.176 52.261l-3.864-1.035a2 2 0 0 1 1.035-3.864l3.864 1.036a2 2 0 0 1-1.035 3.863" fill="#E1E4E1"/><path d="M43.156 58.349l.777-2.898a2 2 0 1 1 3.864 1.036l-.777 2.897a2 2 0 0 1-3.864-1.035" fill="#ADBDC4"/><path d="M49.534 57.729l-7.727-2.07a2 2 0 0 1-1.414-2.45l4.4-16.421a2 2 0 0 1 2.45-1.414l7.727 2.07a2 2 0 0 1 1.414 2.45l-4.4 16.42a2 2 0 0 1-2.45 1.415" fill="#ADBDC4"/><path d="M70.595 60.266l4.83 1.294 1.294-4.83-4.83-1.294-1.294 4.83zm-6.761-1.812l4.83 1.294 1.293-4.83-4.83-1.293-1.293 4.83zm-6.762-1.811l4.83 1.294 1.294-4.83-4.83-1.294-1.294 4.83zm1.812-6.762l4.83 1.294 1.294-4.83-4.83-1.294-1.294 4.83zm6.761 1.812l4.83 1.294 1.294-4.83-4.83-1.294-1.294 4.83zm6.762 1.812l4.83 1.294 1.294-4.83-4.83-1.294-1.294 4.83zm7.607-5.209L59.73 42.861a1 1 0 0 0-1.225.707L54.882 57.09a1 1 0 0 0 .707 1.225l20.284 5.435a1 1 0 0 0 1.225-.707L80.72 49.52a1 1 0 0 0-.707-1.225zM30.992 49.654l4.83 1.295 1.294-4.83-4.83-1.294-1.294 4.83zm-6.761-1.811l4.83 1.294 1.294-4.83-4.83-1.294-1.294 4.83zm-6.762-1.812l4.83 1.294 1.294-4.83-4.83-1.294-1.294 4.83zm1.812-6.761l4.83 1.294 1.294-4.83-4.83-1.294-1.294 4.83zm6.762 1.811l4.83 1.294 1.293-4.83-4.83-1.293-1.293 4.83zm6.761 1.812l4.83 1.294 1.294-4.83-4.83-1.294-1.294 4.83zm7.607-5.209L20.127 32.25a1 1 0 0 0-1.225.707L15.28 46.48a1 1 0 0 0 .707 1.225l20.284 5.435a1 1 0 0 0 1.225-.707l3.623-13.523a1 1 0 0 0-.707-1.225z" fill="#F0F0F0"/><path fill="#55B7D9" d="M72.407 53.505l4.83 1.294 1.294-4.83-4.83-1.294zM65.645 51.693l4.83 1.294 1.294-4.83-4.83-1.294zM58.884 49.881l4.83 1.294 1.294-4.83-4.83-1.294zM57.072 56.643l4.83 1.294 1.294-4.83-4.83-1.294zM63.834 58.454l4.83 1.294 1.293-4.83-4.83-1.293zM70.595 60.266l4.83 1.294 1.294-4.83-4.83-1.294zM32.804 42.893l4.83 1.294 1.294-4.83-4.83-1.294zM26.043 41.081l4.83 1.294 1.293-4.83-4.83-1.293zM19.281 39.27l4.83 1.294 1.294-4.83-4.83-1.294zM17.47 46.031l4.829 1.294 1.294-4.83-4.83-1.294zM24.23 47.843l4.83 1.294 1.295-4.83-4.83-1.294zM30.992 49.654l4.83 1.295 1.294-4.83-4.83-1.294z"/><path d="M52.659 30.613a2.003 2.003 0 0 1-1.414-2.45 2.002 2.002 0 0 1 2.449-1.413 2.003 2.003 0 0 1 1.414 2.45 2.003 2.003 0 0 1-2.45 1.413" fill="#30404D"/><path d="M53.435 27.716a1.999 1.999 0 0 1 1.475 1.948c.082-.145.153-.297.198-.465a2.003 2.003 0 0 0-1.414-2.45 2.003 2.003 0 0 0-2.45 1.415c-.045.168-.06.335-.06.501a1.999 1.999 0 0 1 2.251-.95" fill="#182A37"/><path d="M45.033 51.346a1 1 0 1 1-1.932-.518 1 1 0 1 1 1.932.518M45.81 48.448a1 1 0 1 1-1.933-.517 1 1 0 1 1 1.932.517" fill="#EFB252"/><path d="M46.586 45.55a1 1 0 1 1-1.932-.517 1 1 0 1 1 1.932.518" fill="#DF5142"/><path d="M33.164 64.73c1.43-5.334 6.913-8.5 12.248-7.07 5.334 1.428 8.5 6.912 7.07 12.247L33.165 64.73" fill="#ADBDC4"/><path d="M41.807 55.658l7.727 2.07a2 2 0 0 0 2.45-1.414l4.4-16.42-3.864-1.036a2 2 0 0 0-2.45 1.415L46.707 52.83a2 2 0 0 1-2.45 1.414l-3.863-1.035a2 2 0 0 0 1.414 2.45" fill="#8BA6B1"/><path d="M43.978 48.69a1 1 0 0 0 1.731-1l-1.731 1M43.201 51.587a1 1 0 0 0 1.732-1l-1.732 1" fill="#CC9547"/><path d="M44.754 45.792a1 1 0 0 0 1.732-1l-1.732 1" fill="#C2423D"/><path d="M51.06 61.647c-1.898-2.758-6.212-1.885-7.078 1.348l-.64 2.392a2 2 0 0 1-2.45 1.414l-7.728-2.07-.517 1.931a1 1 0 0 0 .707 1.225l17.386 4.659a1 1 0 0 0 1.225-.707l.518-1.932a9.976 9.976 0 0 0-1.424-8.26" fill="#8BA6B1"/><path d="M40.564 71.89a1 1 0 1 0 1.931.517l.518-1.932-1.932-.518-.517 1.932" fill="#546670"/><path d="M42.047 70.216l-.259.966a1 1 0 0 1-1.224.707 1 1 0 1 0 1.931.518l.518-1.932-.966-.259M58.972 30.234a5.985 5.985 0 0 0-.993-5.142 5.974 5.974 0 0 1 .286 3.918 5.995 5.995 0 0 1-5.654 4.44.979.979 0 0 0-.91.735l-.595 2.224 1.932.518.608-2.27a5.996 5.996 0 0 0 5.326-4.423" fill="#30404D"/><path fill="#C5CCCD" d="M53.278 51.485l1.932.517 1.035-3.863-1.932-.518z"/></g><path d="M9.636 41.958H8.105v-1.53a.767.767 0 0 0-.765-.766.767.767 0 0 0-.766.766v1.53h-1.53a.767.767 0 0 0-.766.766c0 .421.344.765.766.765h1.53v1.53a.767.767 0 0 0 1.53 0l.001-1.53h1.53a.767.767 0 0 0 .766-.765.767.767 0 0 0-.765-.766zm72.817-9.285a.765.765 0 0 0 .765-.766v-.765h.765a.767.767 0 0 0 .766-.765.767.767 0 0 0-.766-.766h-.765v-.765a.767.767 0 0 0-.765-.765.767.767 0 0 0-.766.765v.765h-.765a.767.767 0 0 0-.765.766c0 .421.343.765.765.765h.765v.765a.765.765 0 0 0 .766.766zM24.287 66.87a.767.767 0 0 0-.765.765v.765h-.766a.767.767 0 0 0-.765.766c0 .421.344.765.765.765h.766v.765c0 .422.343.766.765.766a.767.767 0 0 0 .765-.766v-.765h.766a.767.767 0 0 0 .765-.765.767.767 0 0 0-.765-.766h-.766v-.765a.765.765 0 0 0-.765-.765zm51.278-53.574c0 .422.343.765.765.765a.767.767 0 0 0 .765-.765.767.767 0 0 0 .766-.765.767.767 0 0 0-.766-.766.767.767 0 0 0-.765-.765.767.767 0 0 0-.765.765.767.767 0 0 0-.766.766c0 .421.344.765.766.765zm-26.787 6.123c0 .421.344.765.765.765a.767.767 0 0 0 .765-.765.767.767 0 0 0 .766-.766.767.767 0 0 0-.766-.765.767.767 0 0 0-.765-.765.767.767 0 0 0-.765.765.767.767 0 0 0-.766.765c0 .422.344.766.766.766zM17.99 9.715h3.061v3.061a.767.767 0 0 0 1.53 0l.001-3.061h3.061a.767.767 0 0 0 .766-.766.767.767 0 0 0-.766-.765h-3.061V5.123a.767.767 0 0 0-.765-.766.767.767 0 0 0-.766.766v3.061h-3.061a.767.767 0 0 0-.765.765c0 .422.343.766.765.766z" fill="#FFF" mask="url(#b)"/></g><rect x="2" y="2" width="96" height="96" rx="48" stroke="#0078D4" stroke-width="4"/></g></svg>