<svg xmlns="http://www.w3.org/2000/svg" xmlns:xlink="http://www.w3.org/1999/xlink" viewBox="0 0 100 100" version="1.1"><!-- Generator: Sketch 51.3 (57544) - http://www.bohemiancoding.com/sketch --><title>use-the-microsoft-custom-vision-service-to-perform-image-classification</title><desc>Created with Sketch.</desc><defs><filter x="-1.4%" y="-2.1%" width="102.8%" height="108.5%" filterUnits="objectBoundingBox" id="filter-1"><feOffset dx="0" dy="2" in="SourceAlpha" result="shadowOffsetOuter1"></feOffset><feColorMatrix values="0 0 0 0 0   0 0 0 0 0   0 0 0 0 0  0 0 0 0.100600091 0" type="matrix" in="shadowOffsetOuter1" result="shadowMatrixOuter1"></feColorMatrix><feMerge><feMergeNode in="shadowMatrixOuter1"></feMergeNode><feMergeNode in="SourceGraphic"></feMergeNode></feMerge></filter></defs><g id="Badges-FINAL" stroke="none" stroke-width="1" fill="none" fill-rule="evenodd"><g id="N/A-2" transform="translate(-577.000000, -2740.000000)"><g id="use-the-microsoft-custom-vision-service-to-perform-image-classification" transform="translate(577.000000, 2740.000000)"><rect id="BG" fill="#55A2FF" x="2" y="2" width="96" height="96" rx="48"></rect><g id="Lines" opacity="0.400000006" transform="translate(17.500000, 6.000000)" fill="#FFFFFF"><path d="M29.6493516,13.7740048 L29.6493516,2.73550305 C29.6493516,0.253066858 33.3730496,0.253066858 33.3730496,2.73550305 L33.3730496,13.7740048 C33.3730496,16.256441 29.6493516,16.256441 29.6493516,13.7740048 Z" id="Fill-3"></path><path d="M59.4492653,13.9129873 C61.3128212,12.0494314 63.7952574,14.5353165 61.9317014,16.3954235 L56.6204868,21.7066382 C54.7569308,23.5701942 52.2744946,21.0843091 54.1380506,19.224202 L59.4492653,13.9129873 Z" id="Fill-4"></path><path d="M1.09420122,16.3955111 C-0.769354761,14.5319551 1.71653035,12.0495189 3.57663741,13.9130749 L8.8878521,19.2242896 C10.7514081,21.0878455 8.26552297,23.5702817 6.40541591,21.7067258 L1.09420122,16.3955111 Z" id="Fill-5"></path><path d="M29.6493516,74.8913084 L29.6493516,85.9298075 C29.6493516,88.4122438 33.3730496,88.4122438 33.3730496,85.9298075 L33.3730496,74.8913084 C33.3730496,72.4088722 29.6493516,72.4088722 29.6493516,74.8913084 Z" id="Fill-6"></path><path d="M59.4492653,75.3738321 C61.3128212,77.2373881 63.7952574,74.751503 61.9317014,72.8913959 L57.6204868,68.5801812 C55.7569308,66.7166253 53.2744946,69.2025104 55.1380506,71.0626174 L59.4492653,75.3738321 Z" id="Fill-7"></path><path d="M1.09420122,72.8913084 C-0.769354761,74.7548644 1.71653035,77.2373006 3.57663741,75.3737446 L8.8878521,70.0625299 C10.7514081,68.1989739 8.26552297,65.7165377 6.40541591,67.5800937 L1.09420122,72.8913084 Z" id="Fill-8"></path></g><g id="Eye" filter="url(#filter-1)" transform="translate(13.824259, 26.298653)"><path d="M35.8095871,46.7558606 C22.4038703,46.7558606 9.70638751,36.1751223 1.24338844,26.2986393 C-0.167111406,24.8881394 -0.167111406,22.7704997 1.24338844,21.3600993 C9.71006794,11.48292 22.4078491,0.90287802 35.8095871,0.90287802 C49.2153039,0.90287802 61.9127866,11.4836163 70.3757857,21.3600993 C71.7862855,22.7705992 71.7862855,24.8882389 70.3757857,26.2986393 C62.616246,36.1758186 49.211325,46.7558606 35.8095871,46.7558606 Z M35.8095871,11.4824226 C42.8658662,11.4824226 48.5080645,17.1243225 48.5080645,24.1809001 C48.5080645,31.2374776 42.8661646,36.8793775 35.8095871,36.8793775 C28.7530095,36.8793775 23.1111096,31.2374776 23.1111096,24.1809001 C23.1111096,17.1243225 28.7530095,11.4824226 35.8095871,11.4824226 Z" id="Fill-1" fill="#FAFAFA"></path><circle id="Oval-2-Copy" fill="#314263" cx="36.1757406" cy="23.7013473" r="19.9226154"></circle><circle id="Oval-2" stroke="#979797" fill="#000000" cx="36.1757406" cy="23.7013473" r="9.35579497"></circle><g id="Gear" transform="translate(19.086260, 6.917083)"><path d="M22.1067496,16.8428367 C22.1067496,19.7450681 19.7450681,22.1062232 16.8433631,22.1062232 C13.9411318,22.1062232 11.5799766,19.7450681 11.5799766,16.8428367 C11.5799766,13.9406054 13.9411318,11.5794503 16.8433631,11.5794503 C19.7450681,11.5794503 22.1067496,13.9406054 22.1067496,16.8428367 Z M31.8340141,14.0079768 L29.3865394,13.4637426 C29.1860044,13.4195302 28.8738856,13.1353073 28.8112513,12.9395093 C28.8033562,12.9126661 28.7933558,12.8863491 28.7823026,12.8605585 L28.1070102,11.2194346 C28.0954307,11.1910123 28.0822722,11.1625901 28.0680611,11.1352204 C27.9733201,10.9536336 27.991742,10.5351944 28.1017468,10.3630816 L29.448121,8.24720028 C30.0191985,7.34979289 29.877087,6.0576315 29.1254754,5.30549358 L28.3807063,4.56072439 C27.6464638,3.82595564 26.3174588,3.67910715 25.4389996,4.2380788 L23.3225918,5.58392672 C23.2520625,5.62971818 23.0852131,5.67866768 22.8873098,5.67866768 C22.7251975,5.67866768 22.6046659,5.64603468 22.5509794,5.61813873 C22.5241361,5.60340125 22.4951875,5.59076912 22.4662389,5.57918967 L20.8256413,4.90337085 C20.7998507,4.89284408 20.7735338,4.88284364 20.7466905,4.87494856 C20.5514189,4.81231426 20.2666697,4.50019544 20.2224572,4.29913408 L19.6787494,1.8521857 C19.4476867,0.81371955 18.4334321,0 17.3697017,0 L16.3170244,0 C15.2527677,0 14.2390395,0.81371955 14.0085031,1.85165936 L13.464269,4.30018676 C13.4195302,4.50019544 13.1353073,4.81231426 12.9400357,4.87494856 C12.9131924,4.88284364 12.8868755,4.89284408 12.8605585,4.90337085 L11.219961,5.57918967 C11.1910123,5.59076912 11.1625901,5.60340125 11.1352204,5.61813873 C11.0820602,5.64603468 10.9615287,5.67866768 10.79889,5.67866768 C10.6009867,5.67866768 10.4341374,5.62919184 10.3630816,5.58392672 L8.24772662,4.23860514 C7.36926742,3.67963349 6.03973599,3.82700831 5.30601991,4.56125073 L4.56125073,5.30549358 C3.8091128,6.05815784 3.6675277,7.35031922 4.23860514,8.24772662 L5.5849794,10.3630816 C5.69445784,10.5357207 5.71287969,10.9531073 5.61866507,11.1346941 C5.60445393,11.1625901 5.59076912,11.1910123 5.57918967,11.2194346 L4.90389719,12.8605585 C4.89337041,12.8863491 4.88336998,12.9126661 4.87494856,12.9395093 C4.81231426,13.1353073 4.50072178,13.4195302 4.29966042,13.464269 L1.85271204,14.0074504 C0.814245889,14.2385131 0.000526338648,15.2522414 0.000526338648,16.3164981 L0.000526338648,17.3691754 C0.000526338648,18.4329058 0.814245889,19.4471604 1.8521857,19.6776967 L4.30018676,20.2214045 C4.50072178,20.2661433 4.81231426,20.5503662 4.87494856,20.7461642 C4.88336998,20.7730074 4.89337041,20.7993244 4.90389719,20.825115 L5.57918967,22.4662389 C5.59076912,22.4946612 5.60392759,22.5225571 5.61866507,22.5504531 C5.71287969,22.7315135 5.69445784,23.1499528 5.58445306,23.3225918 L4.23860514,25.4379469 C3.66700136,26.3353543 3.8091128,27.628042 4.56125073,28.3801799 L5.30601991,29.1249491 C6.03920965,29.8576125 7.36716206,30.0070927 8.24825296,29.4475947 L10.3625553,28.1017468 C10.4341374,28.0559553 10.6009867,28.0070058 10.79889,28.0070058 C10.9615287,28.0070058 11.0820602,28.0391125 11.1352204,28.0675348 C11.1631164,28.0812196 11.1910123,28.0949044 11.219961,28.1064838 L12.8605585,28.7823026 C12.8868755,28.7928294 12.9131924,28.8023035 12.9400357,28.8107249 C13.1353073,28.8733592 13.4195302,29.1854781 13.464269,29.3860131 L14.0085031,31.8334878 C14.2390395,32.8719539 15.2527677,33.6856735 16.3170244,33.6856735 L17.3697017,33.6856735 C18.4334321,33.6856735 19.4471604,32.8719539 19.678223,31.8334878 L20.2224572,29.3860131 C20.2666697,29.1854781 20.5514189,28.8733592 20.7466905,28.8107249 C20.7735338,28.8023035 20.7998507,28.7928294 20.8256413,28.7823026 L22.4662389,28.1064838 C22.4951875,28.0949044 22.5236098,28.0812196 22.5509794,28.0675348 C22.6046659,28.0391125 22.7251975,28.0070058 22.8867834,28.0070058 C23.0846868,28.0070058 23.2520625,28.0559553 23.3225918,28.1017468 L25.4384732,29.4470684 C26.3164061,30.0070927 27.6464638,29.8586652 28.3807063,29.1249491 L29.1249491,28.3807063 C29.877087,27.6285683 30.0191985,26.3358806 29.448121,25.4379469 L28.1017468,23.3225918 C27.991742,23.1499528 27.9733201,22.7320399 28.0680611,22.5509794 C28.0822722,22.5230834 28.0954307,22.4951875 28.1070102,22.4667652 L28.7823026,20.825115 C28.7933558,20.7993244 28.8033562,20.7730074 28.8112513,20.7461642 C28.8738856,20.5503662 29.1860044,20.2661433 29.3870658,20.2214045 L31.8334878,19.6776967 C32.8724803,19.4471604 33.6861998,18.4329058 33.6861998,17.3691754 L33.6861998,16.3164981 C33.6861998,15.2522414 32.8724803,14.2385131 31.8340141,14.0079768 Z" id="Fill-376" fill="#ADBDC4"></path><path d="M8.24825296,29.4475947 L10.3625553,28.1017468 C10.4341374,28.0559553 10.6009867,28.0070058 10.79889,28.0070058 C10.9615287,28.0070058 11.0820602,28.0391125 11.1352204,28.0675348 C11.1631164,28.0812196 11.1910123,28.0949044 11.219961,28.1064838 L12.8605585,28.7823026 C12.8868755,28.7928294 12.9131924,28.8023035 12.9400357,28.8107249 C13.1353073,28.8733592 13.4195302,29.1854781 13.464269,29.3860131 L14.0085031,31.8334878 C14.2390395,32.8719539 15.2527677,33.6856735 16.3170244,33.6856735 L17.3697017,33.6856735 C18.4334321,33.6856735 19.4471604,32.8719539 19.678223,31.8334878 L20.2224572,29.3860131 C20.2666697,29.1854781 20.5514189,28.8733592 20.7466905,28.8107249 C20.7735338,28.8023035 20.7998507,28.7928294 20.8256413,28.7823026 L22.4662389,28.1064838 C22.4951875,28.0949044 22.5236098,28.0812196 22.5509794,28.0675348 C22.6046659,28.0391125 22.7251975,28.0070058 22.8867834,28.0070058 C23.0846868,28.0070058 23.2520625,28.0559553 23.3225918,28.1017468 L25.4384732,29.4470684 C26.3164061,30.0070927 27.6464638,29.8586652 28.3807063,29.1249491 L29.1249491,28.3807063 C29.877087,27.6285683 30.0191985,26.3358806 29.448121,25.4379469 L28.1017468,23.3225918 C27.991742,23.1499528 27.9733201,22.7320399 28.0680611,22.5509794 C28.0822722,22.5230834 28.0954307,22.4951875 28.1070102,22.4667652 L28.7823026,20.825115 C28.7933558,20.7993244 28.8033562,20.7730074 28.8112513,20.7461642 C28.8738856,20.5503662 29.1860044,20.2661433 29.3870658,20.2214045 L31.8334878,19.6776967 C32.8724803,19.4471604 33.6861998,18.4329058 33.6861998,17.3691754 L33.6861998,16.3164981 C33.6861998,15.2522414 32.8724803,14.2385131 31.8340141,14.0079768 L29.3865394,13.4637426 C29.1860044,13.4195302 28.8738856,13.1353073 28.8112513,12.9395093 C28.8033562,12.9126661 28.7933558,12.8863491 28.7823026,12.8605585 L28.1070102,11.2194346 C28.0954307,11.1910123 28.0822722,11.1625901 28.0680611,11.1352204 C27.9733201,10.9536336 27.991742,10.5351944 28.1017468,10.3630816 L29.448121,8.24720028 C30.0191985,7.34979289 29.877087,6.0576315 29.1254754,5.30549358 L28.7528277,4.93284581 L20.5629983,13.1226752 C21.5161976,14.0758745 22.1067496,15.3917211 22.1067496,16.8428367 C22.1067496,19.7450681 19.7450681,22.1062232 16.8433631,22.1062232 C15.3922474,22.1062232 14.0764008,21.5156713 13.1232015,20.5629983 L4.93389849,28.7523013 L5.30601991,29.1249491 C6.03920965,29.8576125 7.36716206,30.0070927 8.24825296,29.4475947" id="Fill-377" fill="#8BA6B1"></path><path d="M16.8433631,22.1062232 C13.9363947,22.1062232 11.5799766,19.7498051 11.5799766,16.8428367 C11.5799766,13.9358684 13.9363947,11.5794503 16.8433631,11.5794503 C19.7503314,11.5794503 22.1067496,13.9358684 22.1067496,16.8428367 C22.1067496,19.7498051 19.7503314,22.1062232 16.8433631,22.1062232 Z M16.8433631,9.47409567 C12.7737127,9.47409567 9.47462201,12.7731863 9.47462201,16.8428367 C9.47462201,20.9124872 12.7737127,24.2115778 16.8433631,24.2115778 C20.9130135,24.2115778 24.2121042,20.9124872 24.2121042,16.8428367 C24.2121042,12.7731863 20.9130135,9.47409567 16.8433631,9.47409567 Z" id="Fill-378" fill="#8BA6B1"></path><path d="M22.1067496,16.8428367 C22.1067496,19.7498051 19.7503314,22.1062232 16.8433631,22.1062232 C15.3896157,22.1062232 14.0737691,21.5172503 13.1216225,20.5645773 L11.6326105,22.053063 C12.9663526,23.3868052 14.8085379,24.2115778 16.8433631,24.2115778 C20.9130135,24.2115778 24.2121042,20.9124872 24.2121042,16.8428367 C24.2121042,14.8080115 23.3873315,12.9658263 22.0541157,11.6320841 L20.5651037,13.1210962 C21.5177766,14.0732428 22.1067496,15.3890894 22.1067496,16.8428367" id="Fill-379" fill="#ADBDC4"></path></g><circle id="Oval" fill="#FFFFFF" cx="41.0431486" cy="19.0819195" r="3.50001052"></circle></g><g id="Azure-Border" stroke="#0078D4" stroke-width="4"><rect x="2" y="2" width="96" height="96" rx="48"></rect></g></g></g></g></svg>