<svg xmlns="http://www.w3.org/2000/svg" xmlns:xlink="http://www.w3.org/1999/xlink" viewBox="0 0 100 118"><defs><path d="M42.742 1.497A10.056 10.056 0 0 1 48 0c1.813 0 3.627.499 5.256 1.497l37.335 22.835C93.933 26.377 96 30.203 96 34.352v45.295c0 4.148-2.067 7.977-5.409 10.021l-37.335 22.837A10.056 10.056 0 0 1 48 114c-1.813 0-3.626-.499-5.258-1.495L5.41 89.668C2.066 87.624 0 83.795 0 79.648V34.352c0-4.15 2.066-7.976 5.409-10.021L42.743 1.497z" id="a"/><filter x="-.9%" y="-1.5%" width="101.9%" height="105.9%" filterUnits="objectBoundingBox" id="b"><feOffset dy="2" in="SourceAlpha" result="shadowOffsetOuter1"/><feColorMatrix values="0 0 0 0 0 0 0 0 0 0 0 0 0 0 0 0 0 0 0.0994961504 0" in="shadowOffsetOuter1" result="shadowMatrixOuter1"/><feMerge><feMergeNode in="shadowMatrixOuter1"/><feMergeNode in="SourceGraphic"/></feMerge></filter><path id="d" d="M0 .579h49.257v47.294H0z"/><path id="e" d="M.649.475h50.244v53.03H.649z"/></defs><g fill="none" fill-rule="evenodd"><g transform="translate(2 2)"><mask id="c" fill="#fff"><use xlink:href="#a"/></mask><use fill="#55A2FF" xlink:href="#a"/><g filter="url(#b)" mask="url(#c)"><path d="M10.366 85.762s-.607-7.004-5.328-8.1L-.267 80.55s-3.76.672-5.17-3.603c-1.411-4.275-.382-5.752-.382-5.752s1.544-2.216 4.499-.157c2.954 2.058 5.013-.897 5.013-.897s.805-2.73-4.008-11.57l11.57-4.009s6.781-1.858 3.603-5.17c0 0-3.694-2.573-2.15-4.79 1.543-2.215 7.296-2.597 7.296-2.597s4.722 1.096 2.663 4.05c-2.057 2.955-.58 3.985-.58 3.985s.962 1.768 11.795-2.756l2.598 7.296s3.112 6.558 6.2 2.126c1.852-2.66 3.552-2.266 4.616-1.524.7.487 1.191 1.213 1.48 2.015.535 1.486 1.395 4.504.26 6.132-1.543 2.216-4.274 1.41-4.274 1.41s-2.954-2.057-2.797 2.442c.158 4.498 3.494 12.308 3.494 12.308l-9.065 3.561s-6.266 1.12-5.17-3.603c0 0 4.117-5.91-.382-5.751-4.498.157-10.541 2.53-7.363 5.842 0 0 5.172 3.603 2.374 6.043-2.797 2.44-9.802 3.046-9.802 3.046l-3.76.672-1.925-3.537z" fill="#2B4061"/><path d="M57.005 38.218l-9.616 4.186 3.336 7.81s3.403 4.566 4.947 2.35c1.544-2.216 1.096-4.723 3.088-4.432 1.992.29 5.462 1.61 5.329 8.101-.102 4.92-2.8 3.617-4.101 2.698-.741-.523-1.677-.762-2.548-.511-1.104.318-2.128 1.355-1.23 4.395 1.636 5.528 3.337 7.81 3.337 7.81l8.55-2.821s4.626-1.818 5.544 1.237c.237.792.082 1.646-.306 2.376-.77 1.447-1.904 4.507 2.082 4.779 5.238.357 6.557-3.113 6.557-3.113s2.283-1.701-2.374-6.042c0 0-2.216-1.545 3.088-4.432l17.213-6.521-2.083-8.035s-.896-5.013-4.432-3.088c0 0-4.632 6.648-7.52 1.345-2.888-5.304-.83-8.26-.83-8.26s.291-1.992 4.499-.157c4.208 1.835 4.79-2.15 4.79-2.15s-1.055-9.511-7.321-8.39c0 0-13.967 6.586-17.436 5.267 0 0-2.731-.806 1.386-6.715 0 0 .357-5.237-7.969-1.163 0 0-4.788 2.15-1.095 4.724 0 0 4.808 5.226-.422 7.074-1.5.53-3.005 1.042-4.463 1.678" fill="#FDB82C"/><path d="M28.3 59.373a4.899 4.899 0 0 0-6.464-4.897 4.897 4.897 0 0 0-3.316 4.859 3.85 3.85 0 0 0-5.706 4.486c.139.412.345.781.595 1.108a3.85 3.85 0 1 0 4.833 5.983c.03.21.077.418.147.624a3.5 3.5 0 0 0 6.808-1.282 2.79 2.79 0 0 0 2.482.346 2.8 2.8 0 0 0 1.751-3.55c-.007-.021-.017-.042-.025-.063a3.85 3.85 0 0 0-1.105-7.614" fill="#FFF"/><path d="M21.273 68.219a1.512 1.512 0 1 1-1.852-2.39 1.512 1.512 0 0 1 1.852 2.39zm2.017-2.682l-.75-.968-.79.37a2.5 2.5 0 0 0-.241-.143l-.065-.92-1.216-.154-.299.824a2.355 2.355 0 0 0-.394.1l-.72-.624-.968.75.405.866c-.058.086-.11.176-.155.268l-.915.087-.154 1.216.851.285c.023.119.054.238.094.354l-.596.723.75.969.838-.418c.114.076.234.142.357.196l.085.885 1.216.153.296-.886c.09-.02.181-.047.27-.079l.66.545.968-.75-.38-.766c.069-.105.13-.215.184-.327l.889-.063.153-1.215-.857-.311a2.595 2.595 0 0 0-.086-.307l.57-.66zM24.034 62.313a1.513 1.513 0 1 1-.972-2.865 1.513 1.513 0 0 1 .972 2.865zm2.781-1.877l-.394-1.16-.869.09a2.707 2.707 0 0 0-.18-.212l.238-.891-1.098-.543-.552.682a2.43 2.43 0 0 0-.404-.034l-.478-.824-1.16.393.1.95c-.082.064-.16.131-.233.203l-.893-.215-.542 1.099.711.546a2.593 2.593 0 0 0-.026.366l-.8.49.394 1.16.928-.122c.083.108.175.21.273.302l-.208.864 1.1.542.57-.741c.092.009.185.013.28.012l.446.73 1.16-.393-.11-.848c.1-.076.194-.16.28-.248l.86.229.543-1.098-.71-.574c.014-.106.02-.212.019-.319l.755-.436z" fill="#2B4061"/><path d="M63.659 47.144l4.07 11.138a1.526 1.526 0 0 0 1.957.909l14.45-5.283a1.524 1.524 0 0 0 .909-1.955l-4.07-11.138-17.316 6.329z" fill="#CFCFCF"/><path d="M80.553 39.662a1.525 1.525 0 0 0-1.956-.909l-14.45 5.283a1.525 1.525 0 0 0-.91 1.955l.422 1.153 17.315-6.33-.421-1.152z" fill="#EFEFEF"/><path d="M65.23 45.127a.677.677 0 1 1-1.271.466.677.677 0 0 1 1.27-.466" fill="#D83A18"/><path d="M67.138 44.43a.677.677 0 1 1-1.271.466.677.677 0 0 1 1.27-.467" fill="#FDB82C"/><path d="M69.047 43.731a.677.677 0 1 1-1.273.466.677.677 0 0 1 1.273-.466" fill="#0DB01C"/><path d="M78.632 40.949l-7.678 2.807a.654.654 0 0 1-.839-.39l-.016-.044a.654.654 0 0 1 .39-.839l7.678-2.806a.654.654 0 0 1 .84.39l.015.043a.654.654 0 0 1-.39.839" fill="#CFCFCF"/><path d="M80.09 45.34l-12.72 4.65a1.47 1.47 0 0 1-1.886-.876l-.035-.098a1.47 1.47 0 0 1 .876-1.885l12.72-4.65a1.47 1.47 0 0 1 1.886.877l.035.096a1.47 1.47 0 0 1-.876 1.886M81.43 49.008l-12.72 4.649a1.47 1.47 0 0 1-1.885-.876l-.036-.097a1.47 1.47 0 0 1 .876-1.885l12.721-4.65a1.47 1.47 0 0 1 1.885.876l.036.097a1.471 1.471 0 0 1-.876 1.886M82.771 52.675l-12.72 4.65a1.47 1.47 0 0 1-1.886-.876l-.034-.097a1.469 1.469 0 0 1 .874-1.886l12.721-4.65a1.47 1.47 0 0 1 1.886.877l.036.096a1.471 1.471 0 0 1-.877 1.886" fill="#F4F4F4"/></g></g><path d="M45.562 3.258L6.673 26.894C3.797 28.644 2 31.951 2 35.558v46.884c0 3.607 1.798 6.917 4.673 8.664l38.888 23.636A8.539 8.539 0 0 0 50 116a8.525 8.525 0 0 0 4.436-1.257l38.89-23.637C96.203 89.358 98 86.048 98 82.442V35.558c0-3.606-1.797-6.914-4.673-8.664L54.435 3.258A8.511 8.511 0 0 0 50 2c-1.546 0-3.07.428-4.438 1.258zm0 0s0 0 0 0h0z" stroke="#0078D4" stroke-width="4"/></g></svg>