<svg xmlns="http://www.w3.org/2000/svg" xmlns:xlink="http://www.w3.org/1999/xlink" viewBox="0 0 100 100" version="1.1"><!-- Generator: Sketch 51.3 (57544) - http://www.bohemiancoding.com/sketch --><title>keep-your-virtual-machines-updated</title><desc>Created with Sketch.</desc><defs><filter x="-1.8%" y="-1.6%" width="103.5%" height="106.6%" filterUnits="objectBoundingBox" id="filter-1"><feOffset dx="0" dy="2" in="SourceAlpha" result="shadowOffsetOuter1"></feOffset><feColorMatrix values="0 0 0 0 0   0 0 0 0 0   0 0 0 0 0  0 0 0 0.104562953 0" type="matrix" in="shadowOffsetOuter1" result="shadowMatrixOuter1"></feColorMatrix><feMerge><feMergeNode in="shadowMatrixOuter1"></feMergeNode><feMergeNode in="SourceGraphic"></feMergeNode></feMerge></filter></defs><g id="Badges-FINAL" stroke="none" stroke-width="1" fill="none" fill-rule="evenodd"><g id="Adminster-infrastructure-resources-in-Azure" transform="translate(-576.000000, -1097.000000)"><g id="keep-your-virtual-machines-updated" transform="translate(576.000000, 1097.000000)"><rect id="BG" fill="#D9EAF8" x="2" y="2" width="96" height="96" rx="48"></rect><g id="Virtual-Machine" filter="url(#filter-1)" transform="translate(21.500000, 19.500000)"><circle id="Bulb" fill="#30404D" cx="28.5" cy="32" r="25.0559665"></circle><g id="Right" transform="translate(29.500000, 18.000000)"><path d="M22.9080567,1.14098978 L1.20805669,13.4753871 C0.551408151,13.8486297 0.145785011,14.5457578 0.145785011,15.3010705 L0.145785011,39.8019512 C0.145785011,40.9617491 1.08598704,41.9019512 2.24578501,41.9019512 C2.61749212,41.9019512 2.98253904,41.8032906 3.30364009,41.6160467 L24.5570066,29.222553 C25.4788807,28.6849797 26.045785,27.6981509 26.045785,26.6309879 L26.045785,2.96667319 C26.045785,1.80687522 25.105583,0.866673192 23.945785,0.866673192 C23.5819529,0.866673192 23.2243625,0.961199837 22.9080567,1.14098978 Z" id="Back" fill="#50398A"></path><path d="M23.8216673,1.67623217 L2.12166726,14.0106295 C1.46501872,14.383872 1.05939558,15.0810002 1.05939558,15.8363129 L1.05939558,40.3371936 C1.05939558,41.4969915 1.99959761,42.4371936 3.15939558,42.4371936 C3.53110269,42.4371936 3.89614961,42.338533 4.21725066,42.1512891 L25.4706171,29.7577953 C26.3924913,29.2202221 26.9593956,28.2333933 26.9593956,27.1662303 L26.9593956,3.50191559 C26.9593956,2.34211761 26.0191936,1.40191559 24.8593956,1.40191559 C24.4955635,1.40191559 24.1379731,1.49644223 23.8216673,1.67623217 Z" id="Front" fill="#6D56A6"></path><path d="M1.05939558,37.547074 L1.05939558,15.8363129 C1.05939558,15.0810002 1.46501872,14.383872 2.12166726,14.0106295 L15.3080168,6.51543712 L1.05939558,37.547074 Z" id="Shine" fill="#FFFFFF" opacity="0.203348214"></path><path d="M24.0687454,2.1109187 L2.36874543,14.445316 C1.86844178,14.7296913 1.55939558,15.2608365 1.55939558,15.8363129 L1.55939558,40.3371936 C1.55939558,41.2208492 2.27573998,41.9371936 3.15939558,41.9371936 C3.442601,41.9371936 3.72073198,41.8620236 3.96538041,41.7193616 L25.2187469,29.3258678 C25.9869753,28.8778901 26.4593956,28.0555328 26.4593956,27.1662303 L26.4593956,3.50191559 C26.4593956,2.61825999 25.7430512,1.90191559 24.8593956,1.90191559 C24.5821902,1.90191559 24.3097403,1.97393589 24.0687454,2.1109187 Z" id="Rim" stroke="#6D57A4"></path></g><g id="Left" transform="translate(0.500000, 18.000000)"><path d="M1.32763913,2.96703699 L1.32763913,26.6107383 C1.32763913,27.677229 1.89383529,28.6635416 2.81479129,29.2013543 L24.2192139,41.7009429 C25.1730524,42.2579581 26.3978413,41.9362693 26.9548565,40.9824308 C27.1335907,40.6763645 27.2277791,40.3282981 27.2277791,39.9738656 L27.2277791,15.3014472 C27.2277791,14.5461327 26.8221541,13.8490033 26.1655032,13.4757614 L4.46536321,1.14135116 C3.45706477,0.568231977 2.17507249,0.921014466 1.6019533,1.9293129 C1.42216491,2.24561771 1.32763913,2.60320654 1.32763913,2.96703699 Z" id="Back" fill="#684DAB"></path><path d="M0.359395581,3.52378095 L0.359395581,27.1674822 C0.359395581,28.233973 0.925591741,29.2202855 1.84654774,29.7580983 L23.2509704,42.2576869 C24.2048088,42.8147021 25.4295977,42.4930132 25.9866129,41.5391747 C26.1653471,41.2331085 26.2595356,40.8850421 26.2595356,40.5306095 L26.2595356,15.8581911 C26.2595356,15.1028767 25.8539106,14.4057472 25.1972597,14.0325053 L3.49711966,1.69809512 C2.48882122,1.12497594 1.20682894,1.47775843 0.633709756,2.48605686 C0.453921367,2.80236167 0.359395581,3.1599505 0.359395581,3.52378095 Z" id="Front" fill="#8066C0"></path><path d="M15.5155971,8.52942574 L4.93895254,31.5639768 L1.84654774,29.7580983 C0.925591741,29.2202855 0.359395581,28.233973 0.359395581,27.1674822 L0.359395581,3.52378095 C0.359395581,3.1599505 0.453921367,2.80236167 0.633709756,2.48605686 C1.20682894,1.47775843 2.48882122,1.12497594 3.49711966,1.69809512 L15.5155971,8.52942574 Z" id="Shine" fill="#FFFFFF" opacity="0.196595982"></path><path d="M0.859395581,3.52378095 L0.859395581,27.1674822 C0.859395581,28.0562245 1.33122571,28.8781517 2.09868905,29.3263289 L23.5031117,41.8259175 C24.2184905,42.2436789 25.1370822,42.0024123 25.5548436,41.2870334 C25.6888942,41.0574837 25.7595356,40.796434 25.7595356,40.5306095 L25.7595356,15.8581911 C25.7595356,15.2827135 25.450488,14.7515672 24.9501825,14.4671924 L3.2500425,2.13278222 C2.48181512,1.69611999 1.50505909,1.96490665 1.06839686,2.73313403 C0.931415228,2.97412816 0.859395581,3.2465768 0.859395581,3.52378095 Z" id="Rim" stroke="#8066C0"></path></g><g id="Top" transform="translate(4.000000, 0.000000)"><path d="M0.93364064,16.6891738 L23.2751112,29.398835 C24.1332166,29.8869958 25.1849822,29.8871852 26.0432634,29.3993335 L48.3930191,16.6956116 C49.0652172,16.3135306 49.3004036,15.4588685 48.9183225,14.7866704 C48.7914106,14.5633932 48.605526,14.3793285 48.3810109,14.2546194 L25.5045087,1.54763878 C24.8976269,1.21054028 24.1593463,1.21226287 23.5540443,1.55218967 L0.940383444,14.2516165 C0.266218156,14.6302156 0.0266144588,15.4836498 0.405213608,16.1578151 C0.529798885,16.3796621 0.712486333,16.563363 0.93364064,16.6891738 Z" id="Back" fill="#7454B8"></path><path d="M0.93364064,15.6891738 L23.2751112,28.398835 C24.1332166,28.8869958 25.1849822,28.8871852 26.0432634,28.3993335 L48.3930191,15.6956116 C49.0652172,15.3135306 49.3004036,14.4588685 48.9183225,13.7866704 C48.7914106,13.5633932 48.605526,13.3793285 48.3810109,13.2546194 L25.5045087,0.547638778 C24.8976269,0.210540284 24.1593463,0.212262866 23.5540443,0.552189669 L0.940383444,13.2516165 C0.266218156,13.6302156 0.0266144588,14.4836498 0.405213608,15.1578151 C0.529798885,15.3796621 0.712486333,15.563363 0.93364064,15.6891738 Z" id="Front" fill="#A684D3"></path><path d="M26.9219223,27.8998991 L36.8017982,6.82283057 L48.3810109,13.2546194 C48.605526,13.3793285 48.7914106,13.5633932 48.9183225,13.7866704 C49.3004036,14.4588685 49.0652172,15.3135306 48.3930191,15.6956116 L26.9219223,27.8998991 Z" id="Shine-2" fill="#FFFFFF" opacity="0.198158488"></path><polygon id="Shine-1" fill="#FFFFFF" opacity="0.195870536" points="28.0742151 1.97500778 33.6281316 5.05998592 22.8116376 28.1351732 17.2853078 24.9913434 28.0742151 1.97500778"></polygon><path d="M1.18087536,15.2545762 L23.5223459,27.9642375 C24.2272182,28.3652267 25.0911686,28.3653823 25.7961852,27.964647 L48.145941,15.260925 C48.5780683,15.0153015 48.7292595,14.4658759 48.483636,14.0337486 C48.4020497,13.8902132 48.2825525,13.7718859 48.1382214,13.6917158 L25.2617191,0.984735157 C24.8065578,0.731911286 24.2528474,0.733203222 23.7988708,0.988148325 L1.18521002,13.6875752 C0.751818045,13.9309603 0.597787097,14.4795966 0.841172264,14.9129886 C0.921262799,15.0556045 1.03870473,15.1736979 1.18087536,15.2545762 Z" id="Rim" stroke="#A684D3"></path></g></g><path d="M42.9235676,88.9033982 C42.9235676,83.1793138 38.3113511,78.5670973 32.5872667,78.5670973 C38.3113511,78.5670973 42.9235676,73.9548808 42.9235676,68.2307964 C42.9235676,73.9548808 47.5357841,78.5670973 53.2598685,78.5670973 C47.5357841,78.5670973 42.9235676,83.1793138 42.9235676,88.9033982 Z M39.9235676,26.7946995 C33.7774091,26.7946995 28.8251039,21.8423943 28.8251039,15.6962358 C28.8251039,21.8423943 23.8727986,26.7946995 17.7266401,26.7946995 C23.8727986,26.7946995 28.8251039,31.7470048 28.8251039,37.8931633 C28.8251039,31.7470048 33.7774091,26.7946995 39.9235676,26.7946995 Z M87.7048755,45.5416583 C82.915472,45.5416583 79.0563805,41.6825667 79.0563805,36.8931633 C79.0563805,41.6825667 75.197289,45.5416583 70.4078855,45.5416583 C75.197289,45.5416583 79.0563805,49.4007498 79.0563805,54.1901533 C79.1239452,49.4007498 82.9829968,45.5416583 87.7048755,45.5416583 Z" id="Sparkle" fill="#FFFFFF" opacity="0.949999988"></path><g id="Azure-Border" stroke="#0078D4" stroke-width="4"><rect x="2" y="2" width="96" height="96" rx="48"></rect></g></g></g></g></svg>