<svg xmlns="http://www.w3.org/2000/svg" xmlns:xlink="http://www.w3.org/1999/xlink" viewBox="0 0 100 100" version="1.1"><!-- Generator: Sketch 51.3 (57544) - http://www.bohemiancoding.com/sketch --><title>connect-an-app-to-azure-storage</title><desc>Created with Sketch.</desc><defs><rect id="path-1" x="0" y="0" width="96" height="96" rx="48"></rect><filter x="-1.7%" y="-1.9%" width="103.3%" height="107.5%" filterUnits="objectBoundingBox" id="filter-3"><feOffset dx="0" dy="2" in="SourceAlpha" result="shadowOffsetOuter1"></feOffset><feColorMatrix values="0 0 0 0 0   0 0 0 0 0   0 0 0 0 0  0 0 0 0.0970052083 0" type="matrix" in="shadowOffsetOuter1" result="shadowMatrixOuter1"></feColorMatrix><feMerge><feMergeNode in="shadowMatrixOuter1"></feMergeNode><feMergeNode in="SourceGraphic"></feMergeNode></feMerge></filter><filter x="-2.8%" y="-3.1%" width="105.6%" height="112.5%" filterUnits="objectBoundingBox" id="filter-4"><feOffset dx="0" dy="2" in="SourceAlpha" result="shadowOffsetOuter1"></feOffset><feColorMatrix values="0 0 0 0 0   0 0 0 0 0   0 0 0 0 0  0 0 0 0.100401947 0" type="matrix" in="shadowOffsetOuter1" result="shadowMatrixOuter1"></feColorMatrix><feMerge><feMergeNode in="shadowMatrixOuter1"></feMergeNode><feMergeNode in="SourceGraphic"></feMergeNode></feMerge></filter></defs><g id="Badges-FINAL" stroke="none" stroke-width="1" fill="none" fill-rule="evenodd"><g id="Store-data-in-Azure" transform="translate(-576.000000, -688.000000)"><g id="connect-an-app-to-azure-storage" transform="translate(576.000000, 688.000000)"><g id="Mask" transform="translate(2.000000, 2.000000)"><mask id="mask-2" fill="white"><use xlink:href="#path-1"></use></mask><use id="BG" fill="#55A2FF" xlink:href="#path-1"></use><g id="Metal-Box" filter="url(#filter-3)" mask="url(#mask-2)"><g transform="translate(19.106702, 64.301892)"><g id="Back-Box"><polygon id="Inside-Box" fill="#354957" points="0.495686572 6.41516913 9.52803966 0.996299168 49.2664194 0.996299168 58.2969662 6.41516913"></polygon></g><g id="Front-Box" transform="translate(0.031450, 6.288060)"><path d="M58.2646131,43.478069 C58.2646131,44.4715285 57.4517826,45.284359 56.4583231,45.284359 L2.26962347,45.284359 C1.27526083,45.284359 0.463333485,44.4715285 0.463333485,43.478069 L0.46423663,0.127109295 L58.2655163,0.127109295 L58.2646131,43.478069" id="Fill-681" fill="#546670"></path><path d="M56.4583231,45.284359 C57.4517826,45.284359 58.2646131,44.4715285 58.2646131,43.478069 L58.2655163,1.93339928 L32.0734083,1.93339928 C30.576897,1.93339928 29.3639733,3.14361358 29.3639733,4.64283427 L29.3639733,40.768634 C29.3639733,42.2678547 28.1510496,43.478069 26.6545383,43.478069 L0.463333485,43.478069 C0.463333485,44.4715285 1.27526083,45.284359 2.26962347,45.284359 L56.4583231,45.284359" id="Fill-683" fill="#30404D"></path><g id="Rivets" transform="translate(3.364425, 2.705734)"><g id="Group-9" transform="translate(0.098909, 0.421375)"><path d="M4,2 C4,3.104 3.1,4 2,4 C0.9,4 0,3.104 0,2 C0,0.895 0.9,0 2,0 C3.1,0 4,0.895 4,2" id="Fill-365" fill="#30404D"></path><path d="M3.41,3.415 C4.2,2.633 4.2,1.367 3.41,0.586 L0.59,3.415 C1.37,4.195 2.63,4.195 3.41,3.415" id="Fill-380" fill="#182A37"></path></g><g id="Group-7" transform="translate(47.901091, 0.421375)"><path d="M4,2 C4,3.104 3.1,4 2,4 C0.9,4 0,3.104 0,2 C0,0.895 0.9,0 2,0 C3.1,0 4,0.895 4,2" id="Fill-382" fill="#30404D"></path><path d="M3.41,3.415 C4.2,2.633 4.19,1.367 3.41,0.586 L0.59,3.415 C1.37,4.195 2.63,4.195 3.41,3.415" id="Fill-384" fill="#182A37"></path></g></g><g id="Logo" transform="translate(16.864425, 9.705734)"><path d="M12.2043568,24.2977159 C5.74435677,24.2977159 0.494356767,19.2037159 0.204356767,12.8187159 C0.194356767,13.0007159 0.174356767,13.1797159 0.174356767,13.3647159 C0.174356767,20.0057159 5.56435677,25.3897159 12.2043568,25.3897159 C18.8443568,25.3897159 24.2343568,20.0057159 24.2343568,13.3647159 C24.2343568,13.1797159 24.2143568,13.0007159 24.2043568,12.8187159 C23.9143568,19.2037159 18.6643568,24.2977159 12.2043568,24.2977159" id="Fill-364" fill="#30404D"></path><path d="M24.2343568,12.2717159 C24.2343568,18.9127159 18.8443568,24.2977159 12.2043568,24.2977159 C5.56435677,24.2977159 0.174356767,18.9127159 0.174356767,12.2717159 C0.174356767,5.63071587 5.56435677,0.246715869 12.2043568,0.246715869 C18.8443568,0.246715869 24.2343568,5.63071587 24.2343568,12.2717159" id="Fill-367" fill="#6E828F"></path><g id="Microsoft_Azure" transform="translate(4.081076, 4.437699)"><path d="M15.964681,12.6534558 L15.964681,13.1554219 L3.99117024,13.0281323 L3.99117024,12.5261662 L15.964681,12.6534558 Z M11.3192437,11.6808628 L7.54997436,7.2419812 L7.54997436,6.74001507 L11.7074614,11.6360813 L11.3192437,11.6808628 Z" id="path7291" fill="#30404D"></path><path d="M6.2394534e-13,11.5089261 L3.42577928,11.1591516 L9.44575531,4.54747351e-13 L9.44575531,0.501966127 L3.42577928,11.6611177 L0,12.0108923 L2.67677996e-13,11.5089261 Z" id="path7293" fill="#30404D"></path><polygon id="path7291-copy" fill="#ADBDC4" points="9.91141334 1.90759269 7.54997436 6.74001507 11.7074614 11.6360813 3.99117024 12.5261662 15.964681 12.6534558"></polygon><polygon id="path7293-copy" fill="#ADBDC4" points="9.44575531 0 4.02446184 4.60993561 0 11.5089261 3.42577928 11.1591516"></polygon></g></g></g></g></g><g id="Dots" mask="url(#mask-2)" fill="#FFFFFF"><g transform="translate(46.651658, 48.301892)"><path d="M1.81467625,3.60666904 C1.34286042,3.60666904 0.871044599,3.41612804 0.535329493,3.07133955 C0.190541006,2.73562444 0,2.26380862 0,1.79199279 C0,1.31110359 0.190541006,0.848361146 0.535329493,0.503572659 C1.2067597,-0.167857553 2.42259279,-0.167857553 3.094023,0.503572659 C3.43881149,0.839287764 3.62935249,1.31110359 3.62935249,1.79199279 C3.62935249,2.272882 3.43881149,2.73562444 3.094023,3.07133955 C2.7583079,3.41612804 2.29556545,3.60666904 1.81467625,3.60666904" id="Fill-858"></path><path d="M0,7.23602154 C0,6.22887622 0.80753093,5.42134529 1.81467625,5.42134529 C2.81274818,5.42134529 3.62935249,6.22887622 3.62935249,7.23602154 C3.62935249,8.23409347 2.81274818,9.05069778 1.81467625,9.05069778 C0.80753093,9.05069778 0,8.23409347 0,7.23602154" id="Fill-860"></path><path d="M1.81467625,14.4947265 C1.33378704,14.4947265 0.871044599,14.2951121 0.535329493,13.959397 C0.190541006,13.6146085 0,13.1518661 0,12.6709769 C0,12.1810143 0.190541006,11.7182719 0.535329493,11.3734834 C1.2067597,10.6929798 2.42259279,10.6929798 3.094023,11.3734834 C3.43881149,11.7182719 3.62935249,12.1810143 3.62935249,12.6709769 C3.62935249,13.1518661 3.43881149,13.6146085 3.094023,13.959397 C2.7583079,14.2951121 2.28649207,14.4947265 1.81467625,14.4947265" id="Fill-861"></path></g></g><g id="Network" filter="url(#filter-4)" mask="url(#mask-2)"><g transform="translate(30.699239, 13.517249)"><g id="Lower" stroke-width="1" fill="none" transform="translate(0.000000, 16.930566)"><path d="M35.423954,11.8513964 C35.423954,13.0690948 34.4276553,14.0653935 33.2099569,14.0653935 L2.21399713,14.0653935 C0.996298707,14.0653935 0,13.0690948 0,11.8513964 L0,2.99540788 C0,1.77770946 0.996298707,0.781410751 2.21399713,0.781410751 L33.2099569,0.781410751 C34.4276553,0.781410751 35.423954,1.77770946 35.423954,2.99540788 L35.423954,11.8513964" id="Fill-851" fill="#30404D"></path><path d="M15.4979799,7.42340213 C15.4979799,8.64110055 14.5061092,9.63739926 13.2839828,9.63739926 C12.0629633,9.63739926 11.0699856,8.64110055 11.0699856,7.42340213 C11.0699856,6.20570371 12.0629633,5.20940501 13.2839828,5.20940501 C14.5061092,5.20940501 15.4979799,6.20570371 15.4979799,7.42340213" id="Fill-855" fill="#EFB252"></path><path d="M8.91244544,7.42340213 C8.91244544,8.64110055 7.91946773,9.63739926 6.69844831,9.63739926 C5.4763219,9.63739926 4.48445118,8.64110055 4.48445118,7.42340213 C4.48445118,6.20570371 5.4763219,5.20940501 6.69844831,5.20940501 C7.91946773,5.20940501 8.91244544,6.20570371 8.91244544,7.42340213" id="Fill-856" fill="#EFB252"></path><path d="M35.423954,11.8513964 L35.423954,2.99540788 L17.711977,2.99540788 C17.1009138,2.99540788 16.6049785,3.49355723 16.6049785,4.10240644 L16.6049785,10.7443978 C16.6049785,11.353247 16.1090431,11.8513964 15.4979799,11.8513964 L0,11.8513964 C0,13.0690948 0.996298707,14.0653935 2.21399713,14.0653935 L33.2099569,14.0653935 C34.4276553,14.0653935 35.423954,13.0690948 35.423954,11.8513964" id="Fill-864" fill="#182A37"></path></g><polygon id="Connection" fill="#182A37" points="15.4979799 17.711977 19.9259741 17.711977 19.9259741 13.2839828 15.4979799 13.2839828"></polygon><g id="Top" stroke-width="1" fill="none"><path d="M35.423954,11.0699856 C35.423954,12.2876841 34.4276553,13.2839828 33.2099569,13.2839828 L2.21399713,13.2839828 C0.996298707,13.2839828 0,12.2876841 0,11.0699856 L0,2.21399713 C0,0.996298707 0.996298707,0 2.21399713,0 L33.2099569,0 C34.4276553,0 35.423954,0.996298707 35.423954,2.21399713 L35.423954,11.0699856" id="Fill-850" fill="#30404D"></path><path d="M15.4979799,6.64199138 C15.4979799,7.8596898 14.5061092,8.85598851 13.2839828,8.85598851 C12.0629633,8.85598851 11.0699856,7.8596898 11.0699856,6.64199138 C11.0699856,5.42429296 12.0629633,4.42799426 13.2839828,4.42799426 C14.5061092,4.42799426 15.4979799,5.42429296 15.4979799,6.64199138" id="Fill-853" fill="#EFB252"></path><path d="M8.91244544,6.64199138 C8.91244544,7.8596898 7.91946773,8.85598851 6.69844831,8.85598851 C5.4763219,8.85598851 4.48445118,7.8596898 4.48445118,6.64199138 C4.48445118,5.42429296 5.4763219,4.42799426 6.69844831,4.42799426 C7.91946773,4.42799426 8.91244544,5.42429296 8.91244544,6.64199138" id="Fill-854" fill="#EFB252"></path><path d="M35.423954,11.0699856 L35.423954,2.21399713 L17.711977,2.21399713 C17.1009138,2.21399713 16.6049785,2.71214648 16.6049785,3.32099569 L16.6049785,9.96298707 C16.6049785,10.5718363 16.1090431,11.0699856 15.4979799,11.0699856 L0,11.0699856 C0,12.2876841 0.996298707,13.2839828 2.21399713,13.2839828 L33.2099569,13.2839828 C34.4276553,13.2839828 35.423954,12.2876841 35.423954,11.0699856" id="Fill-865" fill="#182A37"></path></g></g></g></g><g id="Azure-Border" stroke="#0078D4" stroke-width="4"><rect x="2" y="2" width="96" height="96" rx="48"></rect></g></g></g></g></svg>