<svg xmlns="http://www.w3.org/2000/svg" viewBox="0 0 100 100"><defs><filter x="-1.4%" y="-1.8%" width="102.9%" height="107%" filterUnits="objectBoundingBox" id="a"><feOffset dy="2" in="SourceAlpha" result="shadowOffsetOuter1"/><feColorMatrix values="0 0 0 0 0 0 0 0 0 0 0 0 0 0 0 0 0 0 0.102156929 0" in="shadowOffsetOuter1" result="shadowMatrixOuter1"/><feMerge><feMergeNode in="shadowMatrixOuter1"/><feMergeNode in="SourceGraphic"/></feMerge></filter></defs><g fill="none" fill-rule="evenodd"><rect fill="#55A2FF" x="2" y="2" width="96" height="96" rx="48"/><g filter="url(#a)" transform="translate(10.65 18.4)"><path d="M10.48 54.53c-1.404-2.08-1.686-4.474-1.668-6.862.018-2.19.602-4.333 1.342-6.399.849-2.371 1.65-4.767 3.123-6.867 2.472-3.525 5.638-6.127 9.736-7.538.539-.185 1.132-.28 1.125-1.089-.031-3.494 1.357-6.545 3.193-9.38 2.583-3.986 5.55-7.647 10.001-9.712 1.959-.908 4.017-1.5 6.232-1.25 3.108.351 4.72 2.358 5.543 5.127.312 1.043.517.897 1.22.306 2.391-2.006 4.933-3.769 8.076-4.431 1.276-.27 2.56-.07 3.839-.137-2.36-1.587-4.747-3.204-7.383-4.228-3.5-1.358-7.45-.077-10.424 1.855-.665.433-.446.433-1.088.058-1.141-.665-2.328-1.253-3.453-1.944C38.106.941 36.269.064 34.089.304c-4.906.5-8.45 3.333-11.554 6.844-3.44 3.887-5.643 8.433-6.799 13.475-.195.852-.538 1.197-1.38 1.438-2.706.773-4.859 2.462-6.674 4.55C3.294 31.656.388 37.344.542 44.222c.076 3.443 1.27 6.276 4.73 7.738 1.78.752 3.386 1.885 5.208 2.568" fill="#E6E6E6"/><path d="M68.14 14.86c-.286-4.032-1.692-7.136-5.899-8.562-1.279.067-2.561-.132-3.838.137-3.143.662-5.686 2.424-8.075 4.431-.704.59-.91.737-1.22-.307-.824-2.768-2.437-4.775-5.544-5.127-2.215-.25-4.274.343-6.231 1.251-4.453 2.065-7.42 5.726-10.003 9.712-1.836 2.835-3.224 5.886-3.193 9.38.007.808-.585.903-1.124 1.089-4.098 1.411-7.264 4.013-9.735 7.537-1.474 2.1-2.275 4.497-3.124 6.868-.74 2.066-1.324 4.21-1.341 6.398-.018 2.388.263 4.782 1.667 6.86a.485.485 0 0 1 .475.277c2.017 1.696 4.007 1.79 6.348.404 6.88-4.076 13.77-8.136 20.668-12.182V26.809l8.236-5.013v16.419c4.526-2.645 9.051-5.296 13.584-7.93 2.859-1.663 5.312-3.626 6.872-6.585 1.094-2.845 1.693-5.791 1.477-8.84" fill="#FFF"/><path d="M37.971 26.81v16.216c2.743-1.61 5.491-3.207 8.235-4.811V21.796l-8.235 5.013z" fill="#0078D4"/><path d="M45.49 31.822c0 .395-.16.716-.357.716-.198 0-.358-.321-.358-.716 0-.395.16-.717.358-.717.197 0 .357.322.357.717" fill="#E6E6E6"/></g><path d="M84.785 61.68a2.865 2.865 0 1 1-5.73 0 2.865 2.865 0 0 1 5.73 0m-2.865 4.296a2.865 2.865 0 0 0-2.864 2.865v10.741h5.73V68.841a2.865 2.865 0 0 0-2.865-2.865M75.475 55.234a2.865 2.865 0 1 1-5.73 0 2.865 2.865 0 0 1 5.73 0m-2.864 4.297a2.865 2.865 0 0 0-2.865 2.865v10.741h5.73V62.396a2.865 2.865 0 0 0-2.865-2.865M65.45 49.505a2.865 2.865 0 1 1-5.73 0 2.865 2.865 0 0 1 5.73 0m-2.865 4.297a2.865 2.865 0 0 0-2.864 2.865v10.742h5.73V56.667a2.865 2.865 0 0 0-2.866-2.865" fill="#314666"/><rect x="2" y="2" width="96" height="96" rx="48" stroke="#0078D4" stroke-width="4"/></g></svg>