<svg xmlns="http://www.w3.org/2000/svg" xmlns:xlink="http://www.w3.org/1999/xlink" viewBox="0 0 100 100" version="1.1"><!-- Generator: Sketch 51.3 (57544) - http://www.bohemiancoding.com/sketch --><title>create-an-azure-storage-account</title><desc>Created with Sketch.</desc><defs><filter x="-1.7%" y="-1.9%" width="103.3%" height="107.5%" filterUnits="objectBoundingBox" id="filter-1"><feOffset dx="0" dy="2" in="SourceAlpha" result="shadowOffsetOuter1"></feOffset><feColorMatrix values="0 0 0 0 0   0 0 0 0 0   0 0 0 0 0  0 0 0 0.0970052083 0" type="matrix" in="shadowOffsetOuter1" result="shadowMatrixOuter1"></feColorMatrix><feMerge><feMergeNode in="shadowMatrixOuter1"></feMergeNode><feMergeNode in="SourceGraphic"></feMergeNode></feMerge></filter></defs><g id="Badges-FINAL" stroke="none" stroke-width="1" fill="none" fill-rule="evenodd"><g id="Store-data-in-Azure" transform="translate(-576.000000, -504.000000)"><g id="create-an-azure-storage-account" transform="translate(576.000000, 504.000000)"><rect id="BG" fill="#55A2FF" x="2" y="2" width="96" height="96" rx="48"></rect><g id="Metal-Box" filter="url(#filter-1)" transform="translate(20.500000, 21.000000)"><g id="Back-Box" fill="#354957"><polygon id="Inside-Box" points="0.495686572 6.41516913 9.52803966 0.996299168 49.2664194 0.996299168 58.2969662 6.41516913"></polygon></g><g id="Front-Box" transform="translate(0.031450, 6.288060)"><path d="M58.2646131,43.478069 C58.2646131,44.4715285 57.4517826,45.284359 56.4583231,45.284359 L2.26962347,45.284359 C1.27526083,45.284359 0.463333485,44.4715285 0.463333485,43.478069 L0.46423663,0.127109295 L58.2655163,0.127109295 L58.2646131,43.478069" id="Fill-681" fill="#546670"></path><path d="M56.4583231,45.284359 C57.4517826,45.284359 58.2646131,44.4715285 58.2646131,43.478069 L58.2655163,1.93339928 L32.0734083,1.93339928 C30.576897,1.93339928 29.3639733,3.14361358 29.3639733,4.64283427 L29.3639733,40.768634 C29.3639733,42.2678547 28.1510496,43.478069 26.6545383,43.478069 L0.463333485,43.478069 C0.463333485,44.4715285 1.27526083,45.284359 2.26962347,45.284359 L56.4583231,45.284359" id="Fill-683" fill="#30404D"></path><g id="Rivets" transform="translate(3.364425, 2.705734)"><g id="Group-10" transform="translate(0.098909, 35.578625)"><path d="M4.00125,2 C4.00125,3.104 3.10125,4 2.00125,4 C0.90125,4 0.00125,3.104 0.00125,2 C0.00125,0.895 0.90125,0 2.00125,0 C3.10125,0 4.00125,0.895 4.00125,2" id="Fill-366" fill="#30404D"></path><path d="M3.40875,3.41425 C4.19875,2.63325 4.19875,1.36725 3.40875,0.58625 L0.58875,3.41425 C1.36875,4.19525 2.62875,4.19525 3.40875,3.41425" id="Fill-379" fill="#182A37"></path></g><g id="Group-9" transform="translate(0.098909, 0.421375)"><path d="M4,2 C4,3.104 3.1,4 2,4 C0.9,4 0,3.104 0,2 C0,0.895 0.9,0 2,0 C3.1,0 4,0.895 4,2" id="Fill-365" fill="#30404D"></path><path d="M3.41,3.415 C4.2,2.633 4.2,1.367 3.41,0.586 L0.59,3.415 C1.37,4.195 2.63,4.195 3.41,3.415" id="Fill-380" fill="#182A37"></path></g><g id="Group-8" transform="translate(47.901091, 35.578625)"><path d="M4,2 C4,3.104 3.1,4 2,4 C0.9,4 0,3.104 0,2 C0,0.895 0.9,0 2,0 C3.1,0 4,0.895 4,2" id="Fill-381" fill="#30404D"></path><path d="M3.41,3.414 C4.2,2.633 4.19,1.367 3.41,0.586 L0.59,3.414 C1.37,4.195 2.63,4.195 3.41,3.414" id="Fill-383" fill="#182A37"></path></g><g id="Group-7" transform="translate(47.901091, 0.421375)"><path d="M4,2 C4,3.104 3.1,4 2,4 C0.9,4 0,3.104 0,2 C0,0.895 0.9,0 2,0 C3.1,0 4,0.895 4,2" id="Fill-382" fill="#30404D"></path><path d="M3.41,3.415 C4.2,2.633 4.19,1.367 3.41,0.586 L0.59,3.415 C1.37,4.195 2.63,4.195 3.41,3.415" id="Fill-384" fill="#182A37"></path></g></g><g id="Logo" transform="translate(16.864425, 9.705734)"><path d="M12.2043568,24.2977159 C5.74435677,24.2977159 0.494356767,19.2037159 0.204356767,12.8187159 C0.194356767,13.0007159 0.174356767,13.1797159 0.174356767,13.3647159 C0.174356767,20.0057159 5.56435677,25.3897159 12.2043568,25.3897159 C18.8443568,25.3897159 24.2343568,20.0057159 24.2343568,13.3647159 C24.2343568,13.1797159 24.2143568,13.0007159 24.2043568,12.8187159 C23.9143568,19.2037159 18.6643568,24.2977159 12.2043568,24.2977159" id="Fill-364" fill="#30404D"></path><path d="M24.2343568,12.2717159 C24.2343568,18.9127159 18.8443568,24.2977159 12.2043568,24.2977159 C5.56435677,24.2977159 0.174356767,18.9127159 0.174356767,12.2717159 C0.174356767,5.63071587 5.56435677,0.246715869 12.2043568,0.246715869 C18.8443568,0.246715869 24.2343568,5.63071587 24.2343568,12.2717159" id="Fill-367" fill="#6E828F"></path><path d="M12.2043569,23.2369018 C18.2605923,23.2369018 23.1690427,18.3284511 23.1690427,12.2722157 C23.1690427,6.21598038 18.2605923,1.30752991 12.2043569,1.30752991 C6.14812153,1.30752991 1.23967081,6.21598038 1.23967081,12.2722157 C1.23967081,18.3284511 6.14812153,23.2369018 12.2043569,23.2369018 Z M12.2043569,13.1153417 C14.5331001,13.1153417 16.4220109,11.227443 16.4220109,8.89869983 C16.4220109,6.56896978 14.5331254,4.68104582 12.2043569,4.68104582 C9.87558839,4.68104582 7.98670289,6.56894448 7.98670289,8.89869983 C7.98670289,11.227443 9.87558839,13.1153417 12.2043569,13.1153417 Z M4.26930698,17.0829932 C5.89627182,19.7606518 8.84172166,21.5506497 12.2043569,21.5506497 C15.5669921,21.5506497 18.5126191,19.7606012 20.1394068,17.0829932 C20.1295231,17.0088603 20.1008588,16.9367063 20.0504484,16.8744334 C19.01061,15.5746479 17.3649455,14.8026766 15.1566742,14.8026766 L9.25175617,14.8026766 C7.04358606,14.8026766 5.39797224,15.5746479 4.35798196,16.8744334 C4.30757153,16.9367037 4.27890728,17.0088603 4.26902357,17.0829932 L4.26930698,17.0829932 Z" id="Fill-1-Copy-2" fill="#BCC6CF"></path></g></g></g><g id="Add-Copy" transform="translate(62.714352, 56.418582)"><path d="M23.5923856,11.7402609 C23.5923856,18.2244973 18.3363611,23.4805217 11.8521247,23.4805217 C5.36788831,23.4805217 0.111863825,18.2244973 0.111863825,11.7402609 C0.111863825,5.25602448 5.36788831,0 11.8521247,0 C18.3363611,0 23.5923856,5.25602448 23.5923856,11.7402609" id="Fill-258" fill="#83BB66"></path><path d="M16.3676096,9.93406689 C16.3658034,9.93406689 16.3649003,9.93406689 16.3630942,9.93406689 L13.6583187,9.93406689 L13.6583187,7.22477592 C13.6583187,6.22233826 12.8491438,5.41858194 11.8521247,5.41858194 C10.8542025,5.41858194 10.0459307,6.22233826 10.0459307,7.22477592 L10.0459307,9.93406689 L7.34115523,9.93406689 C7.33934903,9.93406689 7.33844594,9.93406689 7.33663974,9.93406689 C6.33871757,9.93406689 5.53044576,10.7378232 5.53044576,11.7402609 C5.53044576,12.7336676 6.33871757,13.5464548 7.33663974,13.5464548 L10.0459307,13.5464548 L10.0459307,16.2557458 C10.0459307,17.2491525 10.8542025,18.0619398 11.8521247,18.0619398 C12.8491438,18.0619398 13.6583187,17.2491525 13.6583187,16.2557458 L13.6583187,13.5464548 L16.3676096,13.5464548 C17.3646287,13.5464548 18.1738036,12.7336676 18.1738036,11.7402609 C18.1738036,10.7378232 17.3646287,9.93406689 16.3676096,9.93406689" id="Fill-259" fill="#FFFFFE"></path></g><g id="Azure-Border" stroke="#0078D4" stroke-width="4"><rect x="2" y="2" width="96" height="96" rx="48"></rect></g></g></g></g></svg>