<svg xmlns="http://www.w3.org/2000/svg" xmlns:xlink="http://www.w3.org/1999/xlink" viewBox="0 0 100 100" version="1.1"><!-- Generator: Sketch 52.5 (67469) - http://www.bohemiancoding.com/sketch --><title>create-account</title><desc>Created with Sketch.</desc><g id="Page-1" stroke="none" stroke-width="1" fill="none" fill-rule="evenodd"><g id="create-account" transform="translate(2.000000, 2.000000)"><rect id="BG" fill="#55A2FF" x="0" y="0" width="96" height="96" rx="48"></rect><g id="Azure-Border" stroke="#0078D4" stroke-width="4"><rect id="Rectangle" x="0" y="0" width="96" height="96" rx="48"></rect></g><g id="Shield" transform="translate(18.000000, 13.000000)"><g id="Group"><path d="M30,2 C24.12896,8.70893333 13.788,10.9333333 2,10.9333333 L2,28.8 C2,47.2205333 10.18944,59.0750667 30,69 C49.80944,59.0750667 58,47.2205333 58,28.8 L58,10.9333333 C46.21312,10.9333333 35.87104,8.70893333 30,2" id="Fill-22" fill="#C0DDF4"></path><path d="M4.51851852,13.2561475 L4.51851852,28.8228366 C4.51851852,46.0147538 12.0644444,56.9353987 30.5000001,66.2885027 C48.9355556,56.9353987 56.4814815,46.0147538 56.4814815,28.8228366 L56.4814815,13.2561475 C44.6056852,12.9699297 36.0622963,10.3740024 30.5000001,5.35853766 C24.9377037,10.3740024 16.3943148,12.9699297 4.51851852,13.2561475 Z M30.5000001,71 C30.1520741,71 29.8052778,70.9212346 29.4855926,70.763704 C8.81901853,60.5597126 0,48.0160585 0,28.8228366 L0,11.064031 C0,9.83817641 1.01101852,8.8441803 2.25925926,8.8441803 C15.2658148,8.8441803 23.9458888,6.18834692 28.7976481,0.724696388 C29.6561667,-0.241565463 31.3438333,-0.241565463 32.2023519,0.724696388 C37.0541112,6.18834692 45.7341852,8.8441803 58.7407408,8.8441803 C59.9878518,8.8441803 61,9.83817641 61,11.064031 L61,28.8228366 C61,48.0160585 52.1809815,60.5597126 31.5144074,70.763704 C31.1947222,70.9212346 30.8479259,71 30.5000001,71 Z" id="Fill-24" fill="#0078D4" fill-rule="nonzero"></path></g></g><g id="Head" transform="translate(31.000000, 30.000000)" fill="#4A4A4A" fill-rule="nonzero"><path d="M18.5,19 C23.7453474,19 28,14.7471168 28,9.50114003 C28,4.25294011 23.7454044,0 18.5,0 C13.2545956,0 9,4.25288312 9,9.50114003 C9,14.7471168 13.2545956,19 18.5,19 Z M0.000642880506,27.0688923 C3.69121124,33.0210321 10.3725996,37 18.0003215,37 C25.6280432,37 32.3098335,33.0209196 36,27.0688923 C35.97758,26.9041031 35.9125586,26.7437127 35.7982089,26.6052869 C33.4394642,23.7160071 29.7064779,22 24.6972878,22 L11.3027122,22 C6.29375159,22 2.56088032,23.7160071 0.201791097,26.6052869 C0.087441276,26.7437069 0.0224199728,26.9041031 0,27.0688923 L0.000642880506,27.0688923 Z" id="Fill-1-Copy-2"></path></g><g id="Add-Copy" transform="translate(55.000000, 60.000000)"><path d="M23.5923856,11.7402609 C23.5923856,18.2244973 18.3363611,23.4805217 11.8521247,23.4805217 C5.36788831,23.4805217 0.111863825,18.2244973 0.111863825,11.7402609 C0.111863825,5.25602448 5.36788831,0 11.8521247,0 C18.3363611,0 23.5923856,5.25602448 23.5923856,11.7402609" id="Fill-258" stroke="#417505" fill="#83BB66"></path><path d="M16.3676096,9.93406689 C16.3658034,9.93406689 16.3649003,9.93406689 16.3630942,9.93406689 L13.6583187,9.93406689 L13.6583187,7.22477592 C13.6583187,6.22233826 12.8491438,5.41858194 11.8521247,5.41858194 C10.8542025,5.41858194 10.0459307,6.22233826 10.0459307,7.22477592 L10.0459307,9.93406689 L7.34115523,9.93406689 C7.33934903,9.93406689 7.33844594,9.93406689 7.33663974,9.93406689 C6.33871757,9.93406689 5.53044576,10.7378232 5.53044576,11.7402609 C5.53044576,12.7336676 6.33871757,13.5464548 7.33663974,13.5464548 L10.0459307,13.5464548 L10.0459307,16.2557458 C10.0459307,17.2491525 10.8542025,18.0619398 11.8521247,18.0619398 C12.8491438,18.0619398 13.6583187,17.2491525 13.6583187,16.2557458 L13.6583187,13.5464548 L16.3676096,13.5464548 C17.3646287,13.5464548 18.1738036,12.7336676 18.1738036,11.7402609 C18.1738036,10.7378232 17.3646287,9.93406689 16.3676096,9.93406689" id="Fill-259" fill="#FFFFFE"></path></g></g></g></svg>