<svg xmlns="http://www.w3.org/2000/svg" xmlns:xlink="http://www.w3.org/1999/xlink" viewBox="0 0 100 100" version="1.1"><!-- Generator: Sketch 51.3 (57544) - http://www.bohemiancoding.com/sketch --><title>working-with-mutable-and-partial-data-in-a-redis-cache</title><desc>Created with Sketch.</desc><defs><rect id="path-1" x="0" y="0" width="96" height="96" rx="48"></rect><filter x="-1.7%" y="-2.0%" width="103.4%" height="108.2%" filterUnits="objectBoundingBox" id="filter-3"><feOffset dx="0" dy="2" in="SourceAlpha" result="shadowOffsetOuter1"></feOffset><feColorMatrix values="0 0 0 0 0   0 0 0 0 0   0 0 0 0 0  0 0 0 0.103147645 0" type="matrix" in="shadowOffsetOuter1" result="shadowMatrixOuter1"></feColorMatrix><feMerge><feMergeNode in="shadowMatrixOuter1"></feMergeNode><feMergeNode in="SourceGraphic"></feMergeNode></feMerge></filter><filter x="-2.8%" y="-3.2%" width="105.6%" height="112.9%" filterUnits="objectBoundingBox" id="filter-4"><feOffset dx="0" dy="2" in="SourceAlpha" result="shadowOffsetOuter1"></feOffset><feColorMatrix values="0 0 0 0 0   0 0 0 0 0   0 0 0 0 0  0 0 0 0.100232111 0" type="matrix" in="shadowOffsetOuter1" result="shadowMatrixOuter1"></feColorMatrix><feMerge><feMergeNode in="shadowMatrixOuter1"></feMergeNode><feMergeNode in="SourceGraphic"></feMergeNode></feMerge></filter></defs><g id="Badges-FINAL" stroke="none" stroke-width="1" fill="none" fill-rule="evenodd"><g id="N/A-1" transform="translate(-577.000000, -741.000000)"><g id="working-with-mutable-and-partial-data-in-a-redis-cache" transform="translate(577.000000, 741.000000)"><g id="Mask" transform="translate(2.000000, 2.000000)"><mask id="mask-2" fill="white"><use xlink:href="#path-1"></use></mask><use id="BG" fill="#55A2FF" xlink:href="#path-1"></use><g id="Window" filter="url(#filter-3)" mask="url(#mask-2)"><g transform="translate(19.142756, 22.265220)"><path d="M4.00129692,48.2185999 C2.05096795,48.2185999 0.455244245,46.6228761 0.455244245,44.6725472 L0.455244245,3.89294136 C0.455244245,1.94261239 2.05096795,0.346888685 4.00129692,0.346888685 L53.6460344,0.346888685 C55.5963634,0.346888685 57.1920871,1.94261239 57.1920871,3.89294136 L57.1920871,44.6725472 C57.1920871,46.6228761 55.5963634,48.2185999 53.6460344,48.2185999 L4.00129692,48.2185999" id="Fill-1485" fill="#30404D"></path><path d="M4.88781009,45.5590603 C3.91264561,45.5590603 3.11478375,44.7611985 3.11478375,43.786034 L3.11478375,10.0985336 C3.11478375,9.12336907 3.91264561,8.32550721 4.88781009,8.32550721 L52.7595213,8.32550721 C53.7346857,8.32550721 54.5325476,9.12336907 54.5325476,10.0985336 L54.5325476,43.786034 C54.5325476,44.7611985 53.7346857,45.5590603 52.7595213,45.5590603 L4.88781009,45.5590603" id="Fill-1486" fill="#E1E4E1"></path><path d="M4.00129692,4.33619795 C4.00129692,3.60127853 4.59703377,3.00642819 5.33106668,3.00642819 C6.0659861,3.00642819 6.66083643,3.60127853 6.66083643,4.33619795 C6.66083643,5.07023085 6.0659861,5.6659677 5.33106668,5.6659677 C4.59703377,5.6659677 4.00129692,5.07023085 4.00129692,4.33619795" id="Fill-1487" fill="#DF5142"></path><path d="M9.32037594,4.33619795 C9.32037594,3.60127853 9.91611279,3.00642819 10.6501457,3.00642819 C11.3850651,3.00642819 11.9799155,3.60127853 11.9799155,4.33619795 C11.9799155,5.07023085 11.3850651,5.6659677 10.6501457,5.6659677 C9.91611279,5.6659677 9.32037594,5.07023085 9.32037594,4.33619795" id="Fill-1488" fill="#EFB252"></path><path d="M14.639455,4.33619795 C14.639455,3.60127853 15.2351918,3.00642819 15.9692247,3.00642819 C16.7041441,3.00642819 17.2989945,3.60127853 17.2989945,4.33619795 C17.2989945,5.07023085 16.7041441,5.6659677 15.9692247,5.6659677 C15.2351918,5.6659677 14.639455,5.07023085 14.639455,4.33619795" id="Fill-1489" fill="#7CB65A"></path><path d="M53.2027778,5.6659677 L23.0613301,5.6659677 C22.3272972,5.6659677 21.7315603,5.07023085 21.7315603,4.33619795 C21.7315603,3.60216504 22.3272972,3.00642819 23.0613301,3.00642819 L53.2027778,3.00642819 C53.9368107,3.00642819 54.5325476,3.60216504 54.5325476,4.33619795 C54.5325476,5.07023085 53.9368107,5.6659677 53.2027778,5.6659677" id="Fill-1490" fill="#697D85"></path></g></g><polygon id="Cover" fill="#55A2FF" mask="url(#mask-2)" points="7 80 84 16 84 80"></polygon><g id="redis" filter="url(#filter-4)" mask="url(#mask-2)" fill-rule="nonzero"><g transform="translate(30.137441, 33.604703)" id="Shape"><path d="M33.9448534,23.3148163 C32.0594422,24.2975431 22.2926204,28.3133226 20.2133135,29.3973443 C18.1340067,30.481504 16.9789129,30.4710157 15.3362508,29.6857727 C13.6937267,28.9005298 3.30009058,24.7021709 1.42778978,23.8072147 C0.492122402,23.3600816 0,22.9825026 0,22.6259001 L0,19.0549076 C0,19.0549076 13.531296,16.1092114 15.7157619,15.3254865 C17.9000898,14.5417616 18.658008,14.5134707 20.5169224,15.1943827 C22.3761128,15.8755706 33.4917861,17.8810453 35.3290339,18.553953 L35.3282059,22.074436 C35.3284819,22.4274503 34.9045335,22.8146897 33.9448534,23.3148163" fill="#912626"></path><path d="M33.9441634,19.7649384 C32.0588902,20.7472512 22.2923444,24.7631687 20.2130375,25.8470524 C18.1338687,26.9313501 16.9787749,26.9207238 15.3362508,26.1354808 C13.6935887,25.3507899 3.30036658,21.151741 1.4282038,20.2573368 C-0.443958992,19.3623806 -0.483152139,18.7464686 1.35588968,18.0263635 C3.1949315,17.3059825 13.531158,13.2507338 15.7158999,12.4670088 C17.9002278,11.6835599 18.658008,11.6549931 20.5169224,12.336181 C22.3759748,13.0170929 32.0842829,16.881344 33.9212547,17.5541137 C35.7589165,18.2277114 35.8294365,18.7823497 33.9441634,19.7649384" fill="#C6302B"></path><path d="M33.9448534,17.5367252 C32.0594422,18.51959 22.2926204,22.5352315 20.2133135,23.6196672 C18.1340067,24.7034129 16.9789129,24.6929246 15.3362508,23.9076817 C13.6935887,23.1228527 3.30009058,18.9240798 1.42778978,18.0291236 C0.492122402,17.5819905 0,17.2049635 0,16.8482231 L0,13.2768165 C0,13.2768165 13.531296,10.3312583 15.7157619,9.54753341 C17.9000898,8.76380847 18.658008,8.73537964 20.5169224,9.41642957 C22.3762508,10.0974795 33.4919241,12.1025402 35.3290339,12.7755859 L35.3282059,16.2964829 C35.3284819,16.6493592 34.9045335,17.0365986 33.9448534,17.5367252" fill="#912626"></path><path d="M33.9441634,13.9868473 C32.0588902,14.9694361 22.2923444,18.9850776 20.2130375,20.0693753 C18.1338687,21.153259 16.9787749,21.1426327 15.3362508,20.3573898 C13.6935887,19.5726988 3.30036658,15.3737879 1.4282038,14.4792457 C-0.443958992,13.5845655 -0.483152139,12.9685155 1.35588968,12.2481344 C3.1949315,11.5281674 13.531296,7.47264268 15.7158999,6.68905575 C17.9002278,5.90546882 18.658008,5.87703999 20.5169224,6.55808992 C22.3759748,7.23900185 32.0842829,11.1029769 33.9212547,11.7760226 C35.7589165,12.4494823 35.8294365,13.0042586 33.9441634,13.9868473" fill="#C6302B"></path><path d="M33.9448534,11.5444518 C32.0594422,12.5270406 22.2926204,16.5429581 20.2133135,17.6273939 C18.1340067,18.7112776 16.9789129,18.7006513 15.3362508,17.9154083 C13.6935887,17.1305793 3.30009058,12.9316684 1.42778978,12.0371263 C0.492122402,11.5895792 0,11.2124141 0,10.8560877 L0,7.28454318 C0,7.28454318 13.531296,4.33912298 15.7157619,3.55553605 C17.9000898,2.77167311 18.658008,2.74352029 20.5169224,3.42443221 C22.3762508,4.10548215 33.4919241,6.11054282 35.3290339,6.78358852 L35.3282059,10.3043476 C35.3284819,10.6569479 34.9045335,11.0441872 33.9448534,11.5444518" fill="#912626"></path><path d="M33.9441634,7.99457396 C32.0588902,8.97716271 22.2923444,12.9930802 20.2130375,14.076964 C18.1338687,15.1608477 16.9787749,15.1502214 15.3362508,14.3653924 C13.6937267,13.5801494 3.30036658,9.38151455 1.4283418,8.48683436 C-0.443958992,7.59229219 -0.483014135,6.97610415 1.35588968,6.25586108 C3.1949315,5.535756 13.531296,1.48078333 15.7158999,0.696920395 C17.9002278,-0.0868045403 18.658008,-0.114957364 20.5169224,0.566092567 C22.3759748,1.2471425 32.0842829,5.11111758 33.9212547,5.78416327 C35.7589165,6.45707096 35.8294365,7.0119852 33.9441634,7.99457396" fill="#C6302B"></path><path d="M21.9816973,4.52059829 L18.9442284,4.83593752 L18.2642825,6.4721134 L17.1660464,4.64631997 L13.6586737,4.33111875 L16.2757823,3.38730913 L15.4905393,1.93854273 L17.940801,2.89684278 L20.2507126,2.14058064 L19.6263824,3.63861448 L21.9816973,4.52059829 M18.0829452,12.4583146 L12.4141533,10.1071398 L20.537071,8.86027329 L18.0829452,12.4583146 M10.2236152,5.43004491 C12.6214354,5.43004491 14.5652222,6.18354696 14.5652222,7.11286616 C14.5652222,8.04246136 12.6214354,8.79582541 10.2236152,8.79582541 C7.82579502,8.79582541 5.88200814,8.04232336 5.88200814,7.11286616 C5.88200814,6.18354696 7.82579502,5.43004491 10.2236152,5.43004491" fill="#FFFFFF"></path><polyline fill="#621B1C" points="25.5714583 4.96786938 30.378967 6.86763298 25.5755985 8.76560252 25.5714583 4.96773138"></polyline><polyline fill="#9A2928" points="20.2527827 7.07174095 25.5714583 4.96786938 25.5755985 8.76560252 25.0540812 8.96957249 20.2527827 7.07174095"></polyline></g></g></g><g id="Azure-Border" stroke="#0078D4" stroke-width="4"><rect x="2" y="2" width="96" height="96" rx="48"></rect></g></g></g></g></svg>