<svg xmlns="http://www.w3.org/2000/svg" xmlns:xlink="http://www.w3.org/1999/xlink" viewBox="0 0 100 118"><defs><filter x="-1.5%" y="-1.6%" width="103%" height="106.6%" filterUnits="objectBoundingBox" id="a"><feOffset dy="2" in="SourceAlpha" result="shadowOffsetOuter1"/><feColorMatrix values="0 0 0 0 0 0 0 0 0 0 0 0 0 0 0 0 0 0 0.101505888 0" in="shadowOffsetOuter1" result="shadowMatrixOuter1"/><feMerge><feMergeNode in="shadowMatrixOuter1"/><feMergeNode in="SourceGraphic"/></feMerge></filter><path d="M25.966 21.51l3.352-3.352a2.345 2.345 0 0 1 3.317 0l3.352 3.353c.916.916.916 2.4 0 3.316l-3.352 3.353c-.916.916-2.401.916-3.317 0l-3.352-3.353a2.345 2.345 0 0 1 0-3.317z" id="b"/><filter x="-8.8%" y="-8.8%" width="117.6%" height="117.6%" filterUnits="objectBoundingBox" id="c"><feOffset dx="-2" dy="-2" in="SourceAlpha" result="shadowOffsetInner1"/><feComposite in="shadowOffsetInner1" in2="SourceAlpha" operator="arithmetic" k2="-1" k3="1" result="shadowInnerInner1"/><feColorMatrix values="0 0 0 0 0 0 0 0 0 0 0 0 0 0 0 0 0 0 0.186056386 0" in="shadowInnerInner1"/></filter><path d="M34.301 13.162l3.353-3.353a2.345 2.345 0 0 1 3.317 0l3.352 3.353c.916.916.916 2.401 0 3.317L40.97 19.83c-.916.916-2.4.916-3.316 0L34.3 16.478a2.345 2.345 0 0 1 0-3.316z" id="d"/><filter x="-8.8%" y="-8.8%" width="117.6%" height="117.6%" filterUnits="objectBoundingBox" id="e"><feOffset dx="-2" dy="-2" in="SourceAlpha" result="shadowOffsetInner1"/><feComposite in="shadowOffsetInner1" in2="SourceAlpha" operator="arithmetic" k2="-1" k3="1" result="shadowInnerInner1"/><feColorMatrix values="0 0 0 0 0 0 0 0 0 0 0 0 0 0 0 0 0 0 0.186056386 0" in="shadowInnerInner1"/></filter><path d="M32.309 11.817l4.001-4.001a1.89 1.89 0 0 0 0-2.668L32.31 1.147a1.89 1.89 0 0 0-2.668 0L25.64 5.148a1.89 1.89 0 0 0 0 2.668l4 4.001a1.89 1.89 0 0 0 2.669 0" id="f"/><filter x="-8.5%" y="-8.5%" width="117%" height="117%" filterUnits="objectBoundingBox" id="g"><feOffset dx="-2" dy="-2" in="SourceAlpha" result="shadowOffsetInner1"/><feComposite in="shadowOffsetInner1" in2="SourceAlpha" operator="arithmetic" k2="-1" k3="1" result="shadowInnerInner1"/><feColorMatrix values="0 0 0 0 0 0 0 0 0 0 0 0 0 0 0 0 0 0 0.186056386 0" in="shadowInnerInner1"/></filter></defs><g fill="none" fill-rule="evenodd"><path d="M44.742 3.497A10.056 10.056 0 0 1 50 2c1.813 0 3.627.499 5.256 1.497l37.335 22.835C95.933 28.377 98 32.203 98 36.352v45.295c0 4.148-2.067 7.977-5.409 10.021l-37.335 22.837A10.056 10.056 0 0 1 50 116c-1.813 0-3.626-.499-5.258-1.495L7.41 91.668C4.066 89.624 2 85.795 2 81.648V36.352c0-4.15 2.066-7.976 5.409-10.021L44.743 3.497z" fill="#965596"/><g filter="url(#a)" transform="translate(16.286 28.682)"><path d="M33.146 60.17a37.63 37.63 0 0 1-9.65-1.253 2.069 2.069 0 0 1-1.377-1.191 2.069 2.069 0 0 1 .105-1.823 12.457 12.457 0 0 0 1.6-6.091c0-6.857-5.576-12.43-12.43-12.43-2.563 0-5.03.783-7.136 2.258a2.073 2.073 0 0 1-1.868.27 2.07 2.07 0 0 1-1.308-1.366A25.724 25.724 0 0 1 0 31.167C0 15.174 14.87 2.164 33.146 2.164c18.276 0 33.147 13.01 33.147 29.003S51.423 60.17 33.146 60.17" fill="#EFB252"/><path d="M33.146 58.099a37.63 37.63 0 0 1-9.65-1.254 2.069 2.069 0 0 1-1.377-1.191 2.069 2.069 0 0 1 .105-1.823 12.457 12.457 0 0 0 1.6-6.09c0-6.858-5.576-12.43-12.43-12.43-2.563 0-5.03.782-7.136 2.263a2.068 2.068 0 0 1-1.868.262 2.07 2.07 0 0 1-1.308-1.363A25.724 25.724 0 0 1 0 29.095C0 13.102 14.87.092 33.146.092c18.276 0 33.147 13.01 33.147 29.003 0 15.994-14.87 29.004-33.147 29.004" fill="#F7CB64"/><g fill-rule="nonzero"><g transform="translate(11.812 6.51)"><use fill="#742774" xlink:href="#b"/><use fill="#000" filter="url(#c)" xlink:href="#b"/></g><g transform="translate(11.812 6.51)"><use fill="#742774" xlink:href="#d"/><use fill="#000" filter="url(#e)" xlink:href="#d"/></g><path d="M39.801 19.995L38.5 18.694 27.463 7.658a1.89 1.89 0 0 0-2.668 0L13.759 18.694l-1.302 1.301a1.89 1.89 0 0 0 0 2.668l1.302 1.302L24.8 34.995a1.89 1.89 0 0 0 2.668 0l11.036-11.03 1.302-1.303a1.89 1.89 0 0 0 0-2.668M24.8 26.664l-2.98-2.98-1.022-1.022a1.89 1.89 0 0 1 0-2.668l4.002-4.001a1.89 1.89 0 0 1 2.667 0l4.002 4.001a1.89 1.89 0 0 1 0 2.668l-1.023 1.023-2.979 2.978a1.89 1.89 0 0 1-2.667 0" fill="#742774"/><g transform="translate(11.812 6.51)"><use fill="#742774" xlink:href="#f"/><use fill="#000" filter="url(#g)" xlink:href="#f"/></g></g></g><path d="M45.562 3.258L6.673 26.894C3.797 28.644 2 31.951 2 35.558v46.884c0 3.607 1.798 6.917 4.673 8.664l38.888 23.636A8.539 8.539 0 0 0 50 116a8.525 8.525 0 0 0 4.436-1.257l38.89-23.637C96.203 89.358 98 86.048 98 82.442V35.558c0-3.606-1.797-6.914-4.673-8.664L54.435 3.258A8.511 8.511 0 0 0 50 2c-1.546 0-3.07.428-4.438 1.258zm0 0s0 0 0 0h0z" stroke="#742774" stroke-width="4"/></g></svg>