<svg xmlns="http://www.w3.org/2000/svg" xmlns:xlink="http://www.w3.org/1999/xlink" viewBox="0 0 100 100" version="1.1"><!-- Generator: Sketch 51.3 (57544) - http://www.bohemiancoding.com/sketch --><title>introduction-to-data-in-azure</title><desc>Created with Sketch.</desc><defs></defs><g id="Badges-FINAL" stroke="none" stroke-width="1" fill="none" fill-rule="evenodd"><g id="Cloud-Foundations" transform="translate(-578.000000, -978.000000)"><g id="introduction-to-data-in-azure" transform="translate(578.000000, 978.000000)"><rect id="BG" fill="#C0DDF4" x="2" y="2" width="96" height="96" rx="48"></rect><g id="Machine" transform="translate(2.500000, 15.000000)"><g id="Data" transform="translate(9.000000, 15.000000)" fill="#253B5D"><path d="M3.2199,16.1131 C2.2989,16.1131 1.5499,16.8631 1.5499,17.7831 C1.5499,18.7031 2.2989,19.4531 3.2199,19.4531 C4.1399,19.4531 4.8889,18.7031 4.8889,17.7831 C4.8889,16.8631 4.1399,16.1131 3.2199,16.1131 M3.2199,20.5651 C1.6859,20.5651 0.4369,19.3171 0.4369,17.7831 C0.4369,16.2491 1.6859,15.0011 3.2199,15.0011 C4.7529,15.0011 6.0019,16.2491 6.0019,17.7831 C6.0019,19.3171 4.7529,20.5651 3.2199,20.5651" id="Fill-1914"></path><path d="M14.8136,16.1131 C13.8936,16.1131 13.1446,16.8631 13.1446,17.7831 C13.1446,18.7031 13.8936,19.4531 14.8136,19.4531 C15.7346,19.4531 16.4836,18.7031 16.4836,17.7831 C16.4836,16.8631 15.7346,16.1131 14.8136,16.1131 M14.8136,20.5651 C13.2796,20.5651 12.0316,19.3171 12.0316,17.7831 C12.0316,16.2491 13.2796,15.0011 14.8136,15.0011 C16.3476,15.0011 17.5966,16.2491 17.5966,17.7831 C17.5966,19.3171 16.3476,20.5651 14.8136,20.5651" id="Fill-1915"></path><path d="M9.2482,8.6931 C8.3282,8.6931 7.5792,9.4421 7.5792,10.3621 C7.5792,11.2831 8.3282,12.0321 9.2482,12.0321 C10.1692,12.0321 10.9182,11.2831 10.9182,10.3621 C10.9182,9.4421 10.1692,8.6931 9.2482,8.6931 M9.2482,13.1451 C7.7152,13.1451 6.4662,11.8961 6.4662,10.3621 C6.4662,8.8281 7.7152,7.5801 9.2482,7.5801 C10.7822,7.5801 12.0312,8.8281 12.0312,10.3621 C12.0312,11.8961 10.7822,13.1451 9.2482,13.1451" id="Fill-1916"></path><path d="M21.0275,8.5994 C20.8405,8.5994 20.6535,8.6314 20.4715,8.6954 C20.0495,8.8434 19.7135,9.1474 19.5205,9.5494 C19.3285,9.9524 19.3035,10.4044 19.4525,10.8254 C19.7575,11.6944 20.7125,12.1504 21.5835,11.8444 C22.0035,11.6964 22.3405,11.3924 22.5335,10.9904 C22.7245,10.5874 22.7505,10.1344 22.6005,9.7134 C22.4525,9.2934 22.1495,8.9554 21.7475,8.7634 C21.5185,8.6544 21.2735,8.5994 21.0275,8.5994 M21.0305,13.0524 C19.8815,13.0524 18.8055,12.3364 18.4035,11.1954 C17.8925,9.7484 18.6535,8.1574 20.1005,7.6454 C20.8025,7.3984 21.5575,7.4384 22.2275,7.7594 C22.8985,8.0794 23.4035,8.6424 23.6505,9.3424 C23.8985,10.0444 23.8575,10.7994 23.5375,11.4694 C23.2155,12.1404 22.6545,12.6464 21.9535,12.8934 C21.6485,13.0014 21.3365,13.0524 21.0305,13.0524" id="Fill-1917"></path><path d="M24.0929,16.1463 C23.9049,16.1463 23.7169,16.1783 23.5359,16.2423 C23.1149,16.3913 22.7779,16.6943 22.5839,17.0963 C22.3929,17.4993 22.3679,17.9523 22.5169,18.3723 C22.6649,18.7923 22.9689,19.1303 23.3699,19.3243 C23.7729,19.5143 24.2279,19.5393 24.6469,19.3913 C25.0679,19.2433 25.4049,18.9393 25.5979,18.5373 C25.7889,18.1353 25.8149,17.6823 25.6659,17.2613 C25.5169,16.8403 25.2139,16.5033 24.8119,16.3103 C24.5829,16.2023 24.3379,16.1463 24.0929,16.1463 M24.0889,20.6013 C23.6799,20.6013 23.2719,20.5093 22.8909,20.3273 C22.2199,20.0063 21.7139,19.4443 21.4669,18.7433 C21.2189,18.0423 21.2599,17.2873 21.5809,16.6163 C21.9019,15.9463 22.4639,15.4403 23.1649,15.1933 C23.8649,14.9463 24.6199,14.9853 25.2919,15.3063 C25.9619,15.6273 26.4679,16.1903 26.7149,16.8913 C26.9629,17.5913 26.9219,18.3463 26.6019,19.0173 C26.2809,19.6883 25.7179,20.1943 25.0169,20.4413 C24.7139,20.5483 24.4019,20.6013 24.0889,20.6013" id="Fill-1918"></path><path d="M17.967,1.6424 C17.78,1.6424 17.592,1.6744 17.41,1.7384 C16.989,1.8864 16.652,2.1904 16.46,2.5924 C16.268,2.9954 16.243,3.4484 16.392,3.8684 C16.697,4.7374 17.652,5.1934 18.522,4.8874 C18.943,4.7394 19.28,4.4354 19.472,4.0334 C19.664,3.6304 19.689,3.1774 19.54,2.7574 L19.54,2.7564 C19.392,2.3364 19.089,1.9984 18.687,1.8064 C18.457,1.6984 18.213,1.6424 17.967,1.6424 M17.969,6.0954 C16.821,6.0954 15.744,5.3804 15.342,4.2384 C14.831,2.7914 15.593,1.2004 17.039,0.6894 C17.741,0.4414 18.497,0.4824 19.166,0.8024 C19.837,1.1224 20.342,1.6854 20.59,2.3864 C20.837,3.0874 20.797,3.8424 20.477,4.5134 C20.155,5.1844 19.593,5.6904 18.893,5.9374 C18.587,6.0444 18.275,6.0954 17.969,6.0954" id="Fill-1919"></path><path d="M9.4025,1.8289 C9.2155,1.8289 9.0265,1.8609 8.8445,1.9259 C7.9765,2.2319 7.5195,3.1869 7.8255,4.0559 C8.1315,4.9239 9.0885,5.3799 9.9565,5.0739 C10.3775,4.9259 10.7145,4.6229 10.9065,4.2209 C11.0985,3.8179 11.1235,3.3639 10.9745,2.9439 C10.8265,2.5229 10.5225,2.1849 10.1205,1.9929 C9.8915,1.8839 9.6475,1.8289 9.4025,1.8289 M9.4025,6.2829 C8.2565,6.2829 7.1785,5.5669 6.7765,4.4269 C6.2655,2.9779 7.0275,1.3859 8.4745,0.8759 C9.9235,0.3639 11.5135,1.1269 12.0235,2.5729 C12.2715,3.2739 12.2315,4.0299 11.9115,4.6999 C11.5905,5.3709 11.0275,5.8759 10.3265,6.1229 C10.0205,6.2309 9.7095,6.2829 9.4025,6.2829" id="Fill-1920"></path><path d="M3.0949,1.8289 C2.9079,1.8289 2.7199,1.8609 2.5369,1.9259 C1.6689,2.2319 1.2119,3.1869 1.5179,4.0559 C1.8239,4.9239 2.7789,5.3799 3.6489,5.0739 C4.0699,4.9259 4.4069,4.6229 4.5989,4.2209 C4.7909,3.8179 4.8159,3.3639 4.6669,2.9439 C4.5189,2.5229 4.2149,2.1849 3.8129,1.9929 C3.5849,1.8839 3.3399,1.8289 3.0949,1.8289 M3.0949,6.2829 C1.9489,6.2829 0.8709,5.5669 0.4689,4.4269 C-0.0421,2.9779 0.7199,1.3859 2.1669,0.8759 C3.6129,0.3639 5.2059,1.1269 5.7169,2.5729 C5.9639,3.2739 5.9239,4.0299 5.6039,4.6999 C5.2829,5.3709 4.7199,5.8759 4.0189,6.1229 C3.7139,6.2309 3.4029,6.2829 3.0949,6.2829" id="Fill-1921"></path><path d="M8.1359,20.5652 C7.8279,20.5652 7.5789,20.3162 7.5789,20.0092 L7.5789,15.6492 C7.5789,15.3422 7.8279,15.0932 8.1359,15.0932 C8.4429,15.0932 8.6929,15.3422 8.6929,15.6492 L8.6929,20.0092 C8.6929,20.3162 8.4429,20.5652 8.1359,20.5652" id="Fill-1922"></path><path d="M10.6398,20.5652 C10.3328,20.5652 10.0828,20.3162 10.0828,20.0092 L10.0828,15.6492 C10.0828,15.3422 10.3328,15.0932 10.6398,15.0932 C10.9478,15.0932 11.1968,15.3422 11.1968,15.6492 L11.1968,20.0092 C11.1968,20.3162 10.9478,20.5652 10.6398,20.5652" id="Fill-1923"></path><path d="M3.9611,12.9597 C3.6541,12.9597 3.4051,12.7107 3.4051,12.4027 L3.4051,8.0437 C3.4051,7.7357 3.6541,7.4867 3.9611,7.4867 C4.2691,7.4867 4.5181,7.7357 4.5181,8.0437 L4.5181,12.4027 C4.5181,12.7107 4.2691,12.9597 3.9611,12.9597" id="Fill-1924"></path><path d="M1.3644,12.9597 C1.0564,12.9597 0.8074,12.7107 0.8074,12.4027 L0.8074,8.0437 C0.8074,7.7357 1.0564,7.4867 1.3644,7.4867 C1.6724,7.4867 1.9214,7.7357 1.9214,8.0437 L1.9214,12.4027 C1.9214,12.7107 1.6724,12.9597 1.3644,12.9597" id="Fill-1925"></path><path d="M13.5158,12.9597 C13.2078,12.9597 12.9588,12.7107 12.9588,12.4027 L12.9588,8.0437 C12.9588,7.7357 13.2078,7.4867 13.5158,7.4867 C13.8228,7.4867 14.0728,7.7357 14.0728,8.0437 L14.0728,12.4027 C14.0728,12.7107 13.8228,12.9597 13.5158,12.9597" id="Fill-1926"></path><path d="M13.5158,6.0955 C13.2078,6.0955 12.9588,5.8465 12.9588,5.5385 L12.9588,1.1795 C12.9588,0.8725 13.2078,0.6225 13.5158,0.6225 C13.8228,0.6225 14.0728,0.8725 14.0728,1.1795 L14.0728,5.5385 C14.0728,5.8465 13.8228,6.0955 13.5158,6.0955" id="Fill-1927"></path><path d="M16.298,12.9597 C15.99,12.9597 15.741,12.7107 15.741,12.4027 L15.741,8.0437 C15.741,7.7357 15.99,7.4867 16.298,7.4867 C16.606,7.4867 16.855,7.7357 16.855,8.0437 L16.855,12.4027 C16.855,12.7107 16.606,12.9597 16.298,12.9597" id="Fill-1928"></path><path d="M25.2023,5.8172 C24.8953,5.8172 24.6463,5.5682 24.6463,5.2602 L24.6463,0.9012 C24.6463,0.5942 24.8953,0.3442 25.2023,0.3442 C25.5103,0.3442 25.7593,0.5942 25.7593,0.9012 L25.7593,5.2602 C25.7593,5.5682 25.5103,5.8172 25.2023,5.8172" id="Fill-1929"></path><path d="M25.2023,13.0525 C24.8953,13.0525 24.6463,12.8035 24.6463,12.4955 L24.6463,8.1365 C24.6463,7.8285 24.8953,7.5795 25.2023,7.5795 C25.5103,7.5795 25.7593,7.8285 25.7593,8.1365 L25.7593,12.4955 C25.7593,12.8035 25.5103,13.0525 25.2023,13.0525" id="Fill-1930"></path><path d="M22.884,5.8172 C22.576,5.8172 22.327,5.5682 22.327,5.2602 L22.327,0.9012 C22.327,0.5942 22.576,0.3442 22.884,0.3442 C23.191,0.3442 23.441,0.5942 23.441,0.9012 L23.441,5.2602 C23.441,5.5682 23.191,5.8172 22.884,5.8172" id="Fill-1931"></path><path d="M19.4513,20.5652 C19.1443,20.5652 18.8953,20.3162 18.8953,20.0092 L18.8953,15.6492 C18.8953,15.3422 19.1443,15.0932 19.4513,15.0932 C19.7593,15.0932 20.0083,15.3422 20.0083,15.6492 L20.0083,20.0092 C20.0083,20.3162 19.7593,20.5652 19.4513,20.5652" id="Fill-1932"></path></g><g><polygon id="Fill-1933" fill="#137AD1" points="36.583 69.747 54.618 69.747 54.618 0.739 36.583 0.739"></polygon><polygon id="Fill-1934" fill="#1168A3" points="54.64 69.747 72.675 69.747 72.675 0.739 54.64 0.739"></polygon><polygon id="Fill-1936" fill="#253B5D" points="58.754 36.701 69.291 36.701 69.291 12.264 58.754 12.264"></polygon><polygon id="Fill-1937" fill="#137AD1" points="0 43.514 52.384 43.514 52.384 36.678 0 36.678"></polygon><polygon id="Fill-1938" fill="#137AD1" points="58.506 43.514 95 43.514 95 36.678 58.506 36.678"></polygon></g><g id="Panel" transform="translate(39.000000, 8.000000)"><polygon id="Fill-1935" fill="#253B5D" points="0.832 4.585 11.903 4.585 11.903 0.436 0.832 0.436"></polygon><path d="M2.4025,2.6141 L8.2355,2.6141" id="Stroke-1946" stroke="#7DC44E" stroke-linecap="round"></path><path d="M10.9855,2.6141 C10.9855,3.0281 10.6495,3.3641 10.2355,3.3641 C9.8215,3.3641 9.4855,3.0281 9.4855,2.6141 C9.4855,2.2001 9.8215,1.8641 10.2355,1.8641 C10.6495,1.8641 10.9855,2.2001 10.9855,2.6141" id="Fill-1948" fill="#D83A18"></path></g><g id="Light" transform="translate(58.000000, 8.000000)"><path d="M19.7863,14.366 C19.7863,10.798 16.8933,7.906 13.3253,7.906 C9.7583,7.906 6.8653,10.798 6.8653,14.366 C6.8653,16.807 8.2203,18.931 10.2193,20.03 C10.8983,21.326 10.9573,23.048 10.9573,23.048 L15.6933,23.048 C15.6933,23.048 15.7533,21.326 16.4323,20.03 C18.4313,18.931 19.7863,16.807 19.7863,14.366" id="Fill-1939" fill="#FCD92D"></path><path d="M14.2209,27.0721 L12.4309,27.0721 C11.5589,27.0721 10.8529,26.3651 10.8529,25.4941 L10.8529,22.9971 L15.7989,22.9971 L15.7989,25.4941 C15.7989,26.3651 15.0919,27.0721 14.2209,27.0721" id="Fill-1940" fill="#767777"></path><path d="M15.799,24.658 L10.853,24.658 C10.66,24.658 10.504,24.502 10.504,24.309 C10.504,24.117 10.66,23.961 10.853,23.961 L15.799,23.961 C15.991,23.961 16.148,24.117 16.148,24.309 C16.148,24.502 15.991,24.658 15.799,24.658" id="Fill-1941" fill="#9C9C9C"></path><path d="M15.8156,25.9197 L10.8696,25.9197 C10.6766,25.9197 10.5216,25.7637 10.5216,25.5707 C10.5216,25.3777 10.6766,25.2227 10.8696,25.2227 L15.8156,25.2227 C16.0076,25.2227 16.1646,25.3777 16.1646,25.5707 C16.1646,25.7637 16.0076,25.9197 15.8156,25.9197" id="Fill-1942" fill="#9C9C9C"></path><path d="M13.2355,4.9061 L13.2355,0.4061" id="Stroke-1950" stroke="#FFFFFF" stroke-linecap="round"></path><path d="M19.9777,7.5799 L23.1607,4.3979" id="Stroke-1952" stroke="#FFFFFF" stroke-linecap="round"></path><path d="M22.1935,13.739 L26.6935,13.739" id="Stroke-1954" stroke="#FFFFFF" stroke-linecap="round"></path><path d="M0.1935,13.739 L4.6935,13.739" id="Stroke-1956" stroke="#FFFFFF" stroke-linecap="round"></path><path d="M7.1603,7.5799 L3.9773,4.3979" id="Stroke-1958" stroke="#FFFFFF" stroke-linecap="round"></path></g></g><g id="Azure-Border" stroke="#0078D4" stroke-width="4"><rect x="2" y="2" width="96" height="96" rx="48"></rect></g></g></g></g></svg>