<svg xmlns="http://www.w3.org/2000/svg" xmlns:xlink="http://www.w3.org/1999/xlink" viewBox="0 0 100 100" version="1.1"><!-- Generator: Sketch 52.5 (67469) - http://www.bohemiancoding.com/sketch --><title>Random/n-tier-architecture</title><desc>Created with Sketch.</desc><defs><rect id="path-1" x="0" y="0" width="96" height="96" rx="48"></rect><filter x="-7.3%" y="-8.6%" width="114.5%" height="117.2%" filterUnits="objectBoundingBox" id="filter-3"><feOffset dx="0" dy="2" in="SourceAlpha" result="shadowOffsetOuter1"></feOffset><feColorMatrix values="0 0 0 0 0   0 0 0 0 0   0 0 0 0 0  0 0 0 0.0966089221 0" type="matrix" in="shadowOffsetOuter1" result="shadowMatrixOuter1"></feColorMatrix><feMerge><feMergeNode in="shadowMatrixOuter1"></feMergeNode><feMergeNode in="SourceGraphic"></feMergeNode></feMerge></filter><path d="M50.7015201,0.635657848 L1.7765,1.4725 C0.79498375,1.4725 5.40723022e-12,2.26748375 5.40723022e-12,3.249 L5.40723022e-12,44.1085 C5.40723022e-12,45.0900162 0.79498375,45.885 1.7765,45.885 L50.8314959,45.0459347 C52.9045388,45.0104761 54.566508,43.3198366 54.566508,41.2464904 L54.566508,4.43510209 C54.566508,2.33642004 52.86519,0.635102092 50.766508,0.635102092 C50.7448442,0.635102092 50.7231807,0.635287351 50.7015201,0.635657848 Z" id="path-4"></path><path d="M3.34461269,3.93700727 L59.5103053,0.00951944026 C60.6542469,-0.0704727461 61.6362431,0.657784412 61.7047102,1.63690974 L64.5549248,42.396878 C64.6233919,43.3760034 63.7523063,44.2338406 62.6083647,44.3138328 L17.3982825,47.4752297 C15.5121921,47.607118 13.7274767,46.6078755 12.8540984,44.930991 L1.15570144,12.69675 L0.700361098,6.97887076 C0.590563603,5.40869344 1.77443537,4.04680476 3.34461269,3.93700727 Z" id="path-5"></path><filter x="-1.6%" y="-2.1%" width="103.1%" height="108.4%" filterUnits="objectBoundingBox" id="filter-7"><feOffset dx="0" dy="2" in="SourceAlpha" result="shadowOffsetOuter1"></feOffset><feColorMatrix values="0 0 0 0 0   0 0 0 0 0   0 0 0 0 0  0 0 0 0.100600091 0" type="matrix" in="shadowOffsetOuter1"></feColorMatrix></filter><path d="M14.1757005,40.7362295 C12.1873358,43.4231804 11.9062217,45.591815 13.3323581,47.2421334 C13.2169713,47.2502021 9.68369293,43.6487125 2.73252289,36.4376646 C1.34250636,34.9956775 0.676439821,33.0039998 0.919358634,31.0159194 L1.0633738,12.7355264 C8.03805486,25.1140008 12.1277163,32.0013092 13.3323581,33.3974518 C15.1393207,35.4916656 15.6363331,38.7624226 14.1757005,40.7362295 Z" id="path-8"></path><filter x="-7.1%" y="-2.9%" width="114.1%" height="111.6%" filterUnits="objectBoundingBox" id="filter-9"><feOffset dx="0" dy="2" in="SourceAlpha" result="shadowOffsetOuter1"></feOffset><feColorMatrix values="0 0 0 0 0   0 0 0 0 0   0 0 0 0 0  0 0 0 0.100600091 0" type="matrix" in="shadowOffsetOuter1"></feColorMatrix></filter><path d="M64.3045807,44.913718 L63.4184944,44.8517568 C62.4393691,44.7832897 61.7017771,43.9347873 61.7702442,42.9556619 L64.6204589,2.19569362 C64.688926,1.2165683 65.5374284,0.478976352 66.5165538,0.547443465 L67.40264,0.609404653 C69.8491242,0.780479492 71.6943403,2.90315774 71.5232654,5.34964193 L68.4252061,49.6539553 C68.5962809,47.2074711 66.7510648,45.0847929 64.3045807,44.913718 Z" id="path-10"></path><filter x="-10.2%" y="-2.0%" width="120.5%" height="108.1%" filterUnits="objectBoundingBox" id="filter-11"><feOffset dx="0" dy="2" in="SourceAlpha" result="shadowOffsetOuter1"></feOffset><feColorMatrix values="0 0 0 0 0   0 0 0 0 0   0 0 0 0 0  0 0 0 0.0996659873 0" type="matrix" in="shadowOffsetOuter1"></feColorMatrix></filter></defs><g id="Badges" stroke="none" stroke-width="1" fill="none" fill-rule="evenodd"><g id="Random" transform="translate(-50.000000, -260.000000)"><g id="Random/n-tier-architecture" transform="translate(50.000000, 260.000000)"><g id="Mask" transform="translate(2.000000, 2.000000)"><mask id="mask-2" fill="white"><use xlink:href="#path-1"></use></mask><use id="BG" fill="#EEC360" xlink:href="#path-1"></use><g id="Group-2" mask="url(#mask-2)"><g transform="translate(10.128686, 17.500000)"><g id="Group-4" transform="translate(0.200000, 0.250000)"><g id="Blueprint" filter="url(#filter-3)" transform="translate(33.444458, 35.748935) rotate(-3.000000) translate(-33.444458, -35.748935) translate(5.894458, 12.473935)"><g id="Fill-20"><use fill="#3D69A3" xlink:href="#path-4"></use><use fill-opacity="0.0237771739" fill="#000000" xlink:href="#path-4"></use></g></g><path d="M64.428503,43.1415455 L68.8589344,43.4513514 L68.4252061,49.6539553 C68.2541312,52.1004395 66.131453,53.9456556 63.6849688,53.7745807 L13.1780515,50.242793 C12.1989262,50.1743259 11.4613342,49.3258234 11.5298014,48.3466981 L14.380016,7.58672978 C14.4484831,6.60760446 15.2969856,5.87001251 16.2761109,5.93847962 L66.7830282,9.47026733 L64.428503,43.1415455 Z" id="Fill-20" fill="#3E75BF"></path><g id="Group-3" transform="translate(0.000000, 6.650000)"><mask id="mask-6" fill="white"><use xlink:href="#path-5"></use></mask><g id="Fill-20"><use fill="black" fill-opacity="1" filter="url(#filter-7)" xlink:href="#path-5"></use><use fill="#5F93D9" fill-rule="evenodd" xlink:href="#path-5"></use></g><g id="Fill-20" mask="url(#mask-6)"><use fill="black" fill-opacity="1" filter="url(#filter-9)" xlink:href="#path-8"></use><use fill="#314263" fill-rule="evenodd" xlink:href="#path-8"></use></g></g><g id="Fill-21"><use fill="black" fill-opacity="1" filter="url(#filter-11)" xlink:href="#path-10"></use><use fill="#314263" fill-rule="evenodd" xlink:href="#path-10"></use></g></g><g id="Icon" transform="translate(15.871314, 12.500000)"><path d="M33.0927456,16.9528133 L31.3486151,17.9597875 C30.9898957,18.1668943 30.5312029,18.0439879 30.3240961,17.6852685 C30.1169893,17.326549 30.2398957,16.8678562 30.5986151,16.6607494 L32.3583263,15.6447797 L26.4116478,5.05347891 C26.1412615,4.57190886 25.5316805,4.40071058 25.0501104,4.67109685 C24.8390736,4.7895873 24.6781708,4.98059357 24.5972453,5.2086891 L20.8524874,15.7636041 C20.7370838,16.0888789 20.7975714,16.4506714 21.0125059,16.7207174 L24.0013221,20.4758967 L26.1088476,19.2591163 C26.467567,19.0520095 26.9262598,19.1749159 27.1333666,19.5336353 C27.3404734,19.8923548 27.217567,20.3510476 26.8588476,20.5581544 L24.945857,21.66262 L29.7867338,27.7447473 C30.3370266,28.4361408 30.2226419,29.4427265 29.5312484,29.9930193 C29.3206235,30.1606595 29.0711062,30.2724475 28.8057988,30.3180329 L21.8468945,31.513721 C21.7108173,31.5371019 21.619459,31.6663682 21.64284,31.8024454 C21.6634548,31.9224235 21.7674931,32.0101104 21.8892294,32.0101104 L39.8386289,32.0101104 C40.3909136,32.0101104 40.8386289,31.5623952 40.8386289,31.0101104 C40.8386289,30.8386393 40.794537,30.6700487 40.7105886,30.5205328 L33.0927456,16.9528133 Z M19.1605169,16.0464825 L23.846258,2.8393272 C24.1417237,2.00653236 25.0563596,1.570941 25.8891544,1.86640668 C26.2541073,1.99588759 26.5597173,2.25333202 26.749302,2.5909909 L42.7712436,31.1267862 C43.2038616,31.8972982 42.9299443,32.8726279 42.1594323,33.3052459 C41.9202068,33.4395634 41.6504619,33.5101104 41.376108,33.5101104 L10.9112308,33.5101104 C10.4886233,33.5101104 10.1363533,33.1866052 10.1004412,32.7655263 C10.0645292,32.3444474 10.3569293,31.9659609 10.7734334,31.8943966 L27.0529213,29.0972338 C27.5972298,29.00371 27.9626631,28.4866447 27.8691393,27.9423362 C27.8406483,27.7765191 27.7707809,27.6205708 27.6660058,27.4889302 L19.3205355,17.0035958 C19.105601,16.7335499 19.0451133,16.3717573 19.1605169,16.0464825 Z" id="Shape-Copy" fill="#FFFFFF" fill-rule="nonzero"></path><path d="M7.25617864,28.8957215 L7.25617864,28.8957215 C7.25617864,28.4815079 7.59196508,28.1457215 8.00617864,28.1457215 L8.77090423,28.1457215 C9.16385774,28.1457215 9.52038886,27.915582 9.6821938,27.5574876 L20.9488941,2.62287969 C21.0057471,2.49705686 20.9498361,2.34896881 20.8240132,2.29211577 C20.7351188,2.25194884 20.6309803,2.26715539 20.5572832,2.33106428 L11.6780491,10.030996 C11.5901608,10.1072114 11.5162452,10.1981777 11.4596277,10.2998025 L2.34551969,26.6590324 C2.07672872,27.1414947 2.24994354,27.7505058 2.73240583,28.0192967 C2.8812192,28.1022041 3.04874513,28.1457215 3.21909494,28.1457215 L3.34398724,28.1457215 C3.75820081,28.1457215 4.09398724,28.4815079 4.09398724,28.8957215 L4.09398724,28.8957215 C4.09398724,29.3099351 3.75820081,29.6457215 3.34398724,29.6457215 L1.68743501,29.6457215 C0.803779405,29.6457215 0.087435005,28.9293771 0.087435005,28.0457215 C0.087435005,27.7731618 0.157062778,27.5051203 0.289714614,27.2670189 L10.2776314,9.33935912 C10.3342489,9.23773436 10.4081645,9.14676805 10.4960528,9.0705527 L20.0909941,0.749971051 C20.7585919,0.171040725 21.7691027,0.242919959 22.348033,0.910517814 C22.7570499,1.38217872 22.8543718,2.04866551 22.5973034,2.61758967 L10.650438,29.0574876 C10.4886331,29.415582 10.1321019,29.6457215 9.73914843,29.6457215 L8.00617864,29.6457215 C7.59196508,29.6457215 7.25617864,29.3099351 7.25617864,28.8957215 Z" id="Path" fill="#FFFFFF" fill-rule="nonzero"></path></g></g></g></g><g id="Azure-Border" stroke="#0078D4" stroke-width="4"><rect x="2" y="2" width="96" height="96" rx="48"></rect></g></g></g></g></svg>