<svg xmlns="http://www.w3.org/2000/svg" viewBox="0 0 100 100"><g fill="none" fill-rule="evenodd"><rect fill="#D9EAF8" x="2" y="2" width="96" height="96" rx="48"/><path d="M65.728 80.553H32.704a1.573 1.573 0 0 1 0-3.145h33.024a1.573 1.573 0 0 1 0 3.145" fill="#182A37"/><path fill="#182A37" d="M46.857 78.98h4.718V62.468h-4.718z"/><path d="M46.857 64.04v.786h1.573c.434 0 .786.352.786.786v9.436h2.36V64.04h-4.719M31.131 78.98c0 .868.705 1.573 1.573 1.573h33.024c.868 0 1.573-.705 1.573-1.573h-36.17" fill="#12202B"/><path d="M55.507 82.125a.789.789 0 0 1-.787.787H43.712a.789.789 0 0 1-.786-.787v-6.29c0-.432.354-.786.786-.786H54.72c.433 0 .787.354.787.786v6.29" fill="#30404D"/><path d="M54.72 75.049h-5.504v4.717c0 .869-.704 1.572-1.572 1.572h-4.718v.787c0 .433.354.787.786.787H54.72a.789.789 0 0 0 .787-.787v-6.29a.789.789 0 0 0-.787-.786" fill="#182A37"/><g><path fill="#182A37" d="M46.857 57.424h4.718V49.43h-4.718z"/><path d="M46.857 50.868h1.573c.434 0 .786.448.786 1v5.346h2.36v-7.345h-4.719v.999z" fill="#12202B"/></g><g><path d="M71.232 56.51H27.2a3.145 3.145 0 0 0-3.145 3.145v7.863a3.145 3.145 0 0 0 3.145 3.145h44.032a3.146 3.146 0 0 0 3.146-3.146v-7.863a3.145 3.145 0 0 0-3.146-3.144" fill="#30404D"/><path d="M35.524 64.658a1.572 1.572 0 1 1 2.223-2.224 1.572 1.572 0 0 1-2.223 2.224M30.811 64.672a1.574 1.574 0 0 1 2.225-2.223 1.574 1.574 0 0 1-2.225 2.223" fill="#EFB252"/><path d="M49.216 59.655v7.863c0 .869-.704 1.572-1.572 1.572H24.49a3.13 3.13 0 0 0 2.709 1.573h44.032a3.146 3.146 0 0 0 3.146-3.146v-7.863c0-.575-.166-1.108-.436-1.572H50.789c-.87 0-1.573.704-1.573 1.573" fill="#182A37"/><path d="M68.087 62.014h-9.435a1.573 1.573 0 0 0 0 3.145h9.435a1.574 1.574 0 0 0 0-3.145" fill="#7CB65A"/><path d="M58.652 62.8h9.435a1.57 1.57 0 0 1 1.517 1.18c.033-.127.056-.257.056-.394 0-.868-.705-1.572-1.573-1.572h-9.435c-.868 0-1.573.704-1.573 1.572 0 .137.023.267.056.394a1.57 1.57 0 0 1 1.517-1.18" fill="#69994E"/><path d="M37.163 64.074a1.57 1.57 0 0 1-1.888.248c.068.12.146.235.249.336a1.572 1.572 0 1 0 2.223-2.224 1.54 1.54 0 0 0-.335-.248 1.57 1.57 0 0 1-.249 1.888M32.48 64.06a1.57 1.57 0 0 1-1.889.248c.069.12.147.235.249.336a1.573 1.573 0 0 0 2.224-2.224 1.59 1.59 0 0 0-.336-.248 1.57 1.57 0 0 1-.248 1.888" fill="#D8A34B"/></g><g transform="translate(29.473 11.429)"><circle fill="#12202B" cx="19.567" cy="21.97" r="17.202"/><path d="M34.998 13.7l-13.582 7.72a2.1 2.1 0 0 0-1.062 1.826V38.54a2.1 2.1 0 0 0 3.157 1.814l13.136-7.66a3 3 0 0 0 1.489-2.591V15.526a2.1 2.1 0 0 0-3.138-1.826z" fill="#50398A"/><path d="M35.625 14.068l-13.582 7.72a2.1 2.1 0 0 0-1.062 1.826v15.292a2.1 2.1 0 0 0 3.158 1.814l13.135-7.66a3 3 0 0 0 1.489-2.59V15.893a2.1 2.1 0 0 0-3.138-1.826z" fill="#6D56A6"/><path d="M20.98 38.136V23.231c0-.519.28-.998.73-1.254l9.053-5.146-9.782 21.305z" fill="#FFF" opacity=".203"/><path d="M35.872 14.503l-13.582 7.72a1.6 1.6 0 0 0-.81 1.39v15.293a1.6 1.6 0 0 0 2.407 1.382l13.135-7.66a2.5 2.5 0 0 0 1.24-2.159V15.894a1.6 1.6 0 0 0-2.39-1.391z" stroke="#6D57A4"/><g><path d="M1.255 15.526v14.562a3 3 0 0 0 1.487 2.59l13.286 7.76a2 2 0 0 0 3.009-1.727V23.246a2.1 2.1 0 0 0-1.062-1.825L4.393 13.7a2.1 2.1 0 0 0-3.138 1.825z" fill="#684DAB"/><path d="M.59 15.909V30.47a3 3 0 0 0 1.487 2.591l13.286 7.759a2 2 0 0 0 3.009-1.727V23.629a2.1 2.1 0 0 0-1.062-1.826l-13.582-7.72A2.1 2.1 0 0 0 .59 15.909z" fill="#8066C0"/><path d="M10.996 18.214L3.734 34.03l-2.123-1.24A2.06 2.06 0 0 1 .59 31.01V14.777a1.442 1.442 0 0 1 2.154-1.253l8.252 4.69z" fill="#FFF" opacity=".197"/><path d="M1.09 15.909V30.47a2.5 2.5 0 0 0 1.24 2.16l13.286 7.758a1.5 1.5 0 0 0 2.256-1.295V23.629a1.6 1.6 0 0 0-.81-1.391l-13.581-7.72a1.6 1.6 0 0 0-2.391 1.39z" stroke="#8066C0"/></g><g><path d="M4.062 11.842l14.23 8.095a2.8 2.8 0 0 0 2.768 0l14.232-8.089a1.4 1.4 0 0 0-.012-2.44L20.563 1.232a2 2 0 0 0-1.95.004L4.068 9.404a1.4 1.4 0 0 0-.007 2.438z" fill="#7454B8"/><path d="M4.062 11.155l14.23 8.096a2.8 2.8 0 0 0 2.768 0l14.232-8.09a1.4 1.4 0 0 0-.012-2.44L20.563.546a2 2 0 0 0-1.95.005L4.068 8.718a1.4 1.4 0 0 0-.007 2.437z" fill="#A684D3"/><path d="M21.23 19.155l6.783-14.47 7.95 4.415a.961.961 0 0 1 .008 1.676L21.23 19.155z" fill="#FFF" opacity=".198"/><path fill="#FFF" opacity=".196" d="M22.02 1.356l3.814 2.118-7.426 15.843-3.794-2.159L22.02 1.356z"/><path d="M4.31 10.72l14.23 8.096a2.3 2.3 0 0 0 2.273 0l14.232-8.089a.9.9 0 0 0-.008-1.569L20.32.983a1.5 1.5 0 0 0-1.463.004L4.314 9.154a.9.9 0 0 0-.005 1.567z" stroke="#A684D3"/></g></g><g stroke="#0078D4" stroke-width="4"><rect x="2" y="2" width="96" height="96" rx="48"/></g></g></svg>