<svg xmlns="http://www.w3.org/2000/svg" xmlns:xlink="http://www.w3.org/1999/xlink" viewBox="0 0 100 100" version="1.1"><!-- Generator: Sketch 51.3 (57544) - http://www.bohemiancoding.com/sketch --><title>introduction-to-azure-compute</title><desc>Created with Sketch.</desc><defs><filter x="-1.4%" y="-2.4%" width="102.9%" height="109.7%" filterUnits="objectBoundingBox" id="filter-1"><feOffset dx="0" dy="2" in="SourceAlpha" result="shadowOffsetOuter1"></feOffset><feColorMatrix values="0 0 0 0 0   0 0 0 0 0   0 0 0 0 0  0 0 0 0.101590806 0" type="matrix" in="shadowOffsetOuter1" result="shadowMatrixOuter1"></feColorMatrix><feMerge><feMergeNode in="shadowMatrixOuter1"></feMergeNode><feMergeNode in="SourceGraphic"></feMergeNode></feMerge></filter></defs><g id="Badges-FINAL" stroke="none" stroke-width="1" fill="none" fill-rule="evenodd"><g id="Cloud-Foundations" transform="translate(-578.000000, -763.000000)"><g id="introduction-to-azure-compute" transform="translate(578.000000, 763.000000)"><rect id="BG" fill="#C0DDF4" x="2" y="2" width="96" height="96" rx="48"></rect><g id="Computer" filter="url(#filter-1)" transform="translate(15.546511, 29.183483)"><path d="M0,34.3068783 L0,36.4510581 C0,38.809656 1.93800875,40.7394179 4.30668611,40.7394179 L64.6002916,40.7394179 C66.9689689,40.7394179 68.9069777,38.809656 68.9069777,36.4510581 L68.9069777,34.3068783 L0,34.3068783" id="Fill-1415" fill="#E1E4E1"></path><path d="M10.7667153,0 C8.39803791,0 6.46002916,1.9297619 6.46002916,4.28835978 L6.46002916,34.3068783 L62.4469485,34.3068783 L62.4469485,4.28835978 C62.4469485,1.9297619 60.5089398,0 58.1402624,0 L10.7667153,0 Z M58.1402624,2.14417989 C59.3267544,2.14417989 60.2936055,3.10584457 60.2936055,4.28835978 L60.2936055,32.1626984 L8.61337221,32.1626984 L8.61337221,4.28835978 C8.61337221,3.10584457 9.57914657,2.14417989 10.7667153,2.14417989 L58.1402624,2.14417989 Z" id="Fill-1416" fill="#182A37"></path><path d="M8.61337221,4.28835978 C8.61337221,3.10584457 9.57914657,2.14417989 10.7667153,2.14417989 L58.1402624,2.14417989 C59.3267544,2.14417989 60.2936055,3.10584457 60.2936055,4.28835978 L60.2936055,32.1626984 L8.61337221,32.1626984 L8.61337221,4.28835978" id="Fill-1417" fill="#30404D"></path><path d="M10.7667153,2.14417989 L33.7956425,2.14417989 L23.2679484,32.1626984 L8.61337221,32.1626984 L8.61337221,4.28835978 C8.61337221,3.10584457 9.57914657,2.14417989 10.7667153,2.14417989" id="Fill-1418" fill="#384B58"></path><path d="M10.7667153,0 L34.4534888,0 L33.7956425,2.14417989 L10.7667153,2.14417989 C9.57914657,2.14417989 8.61337221,3.10584457 8.61337221,4.28835978 L8.61337221,32.1626984 L23.2679484,32.1626984 L22.6101021,34.3068783 L6.46002916,34.3068783 L6.46002916,4.28835978 C6.46002916,1.9297619 8.39803791,0 10.7667153,0" id="Fill-1419" fill="#30404D"></path><path d="M32.3001458,38.595238 L0.601859383,38.595238 C1.35014609,39.8688809 2.72505563,40.7394179 4.30668611,40.7394179 L64.6002916,40.7394179 C66.9689689,40.7394179 68.9069777,38.809656 68.9069777,36.4510581 L68.9069777,34.3068783 L34.4534888,34.3068783 L34.4534888,36.4510581 C34.4534888,37.6357175 33.4898678,38.595238 32.3001458,38.595238" id="Fill-1420" fill="#CDD6D8"></path><path d="M30.1468027,36.4510581 L38.760175,36.4510581 C39.9488203,36.4510581 40.913518,35.4904656 40.913518,34.3068783 L27.9934597,34.3068783 C27.9934597,35.4904656 28.9570807,36.4510581 30.1468027,36.4510581" id="Fill-1421" fill="#AAB0B1"></path></g><g id="Icon" transform="translate(39.679487, 35.166709)"><g id="Right" transform="translate(10.449328, 6.348730)"><path d="M8.32309233,0.284299266 L0.358536126,4.79213182 C0.168880471,4.89947439 0.0516391684,5.1005488 0.0516391684,5.31847469 L0.0516391684,14.2772312 C0.0516391684,14.611253 0.322417352,14.8820312 0.656439168,14.8820312 C0.76311054,14.8820312 0.867884354,14.8538184 0.960132406,14.8002546 L8.79564285,10.2505698 C9.06192376,10.0959539 9.22579537,9.81130843 9.22579537,9.50339353 L9.22579537,0.810642136 C9.22579537,0.476620319 8.95501719,0.205842136 8.62099537,0.205842136 C8.51658686,0.205842136 8.41395654,0.232871335 8.32309233,0.284299266 Z" id="Back" fill="#50398A"></path><path d="M8.64670646,0.473083128 L0.68215026,4.98091568 C0.492494606,5.08825825 0.375253303,5.28933266 0.375253303,5.50725855 L0.375253303,14.4660151 C0.375253303,14.8000369 0.646031486,15.0708151 0.980053303,15.0708151 C1.08672467,15.0708151 1.19149849,15.0426022 1.28374654,14.9890385 L9.11925699,10.4393537 C9.38553789,10.2847378 9.54940951,10.0000923 9.54940951,9.6921774 L9.54940951,0.999425998 C9.54940951,0.665404181 9.27863132,0.394625998 8.94460951,0.394625998 C8.840201,0.394625998 8.73757067,0.421655198 8.64670646,0.473083128 Z" id="Front" fill="#6D56A6"></path></g><g id="Left" transform="translate(0.177107, 6.348730)"><path d="M0.470269063,0.810771087 L0.470269063,9.49616996 C0.470269063,9.8038916 0.633936743,10.0883889 0.899953688,10.2430743 L8.77893127,14.8245994 C9.05393387,14.9845099 9.40650061,14.8912093 9.56641111,14.6162067 C9.61754076,14.5282776 9.64447486,14.4283772 9.64447486,14.3266631 L9.64447486,5.31860734 C9.64447486,5.10068095 9.52723302,4.89960616 9.33757668,4.79226378 L1.37297089,0.284427527 C1.08227936,0.119900893 0.713252137,0.222177743 0.548725503,0.512869264 C0.497298017,0.603733179 0.470269063,0.706363054 0.470269063,0.810771087 Z" id="Back" fill="#684DAB"></path><path d="M0.127303135,1.00713871 L0.127303135,9.69253758 C0.127303135,10.0002592 0.290970815,10.2847565 0.55698776,10.439442 L8.43596534,15.020967 C8.71096794,15.1808775 9.06353468,15.0875769 9.22344518,14.8125743 C9.27457483,14.7246452 9.30150893,14.6247449 9.30150893,14.5230307 L9.30150893,5.51497496 C9.30150893,5.29704857 9.18426709,5.09597378 8.99461075,4.9886314 L1.03000496,0.480795146 C0.739313436,0.316268513 0.370286208,0.418545362 0.205759574,0.709236884 C0.154332089,0.800100799 0.127303135,0.902730674 0.127303135,1.00713871 Z" id="Front" fill="#8066C0"></path></g><g id="Top" transform="translate(1.129679, 0.000000)"><path d="M0.478632801,5.80750924 L8.62448189,10.4218172 C8.87095737,10.561436 9.17261654,10.5614902 9.41914219,10.42196 L17.5687958,5.80936474 C17.7625899,5.69967987 17.8307739,5.45366156 17.7210891,5.25986747 C17.6844107,5.19506321 17.6305028,5.14168196 17.5653416,5.10564154 L9.2556723,0.509594311 C9.08136559,0.413185918 8.86961923,0.413678864 8.69576329,0.510897783 L0.480572445,5.10476987 C0.286214869,5.21345314 0.216762125,5.45911629 0.325445399,5.65347387 C0.36145357,5.71786704 0.414439382,5.77114616 0.478632801,5.80750924 Z" id="Back" fill="#7454B8"></path><path d="M0.478632801,5.45480201 L8.62448189,10.06911 C8.87095737,10.2087288 9.17261654,10.208783 9.41914219,10.0692528 L17.5687958,5.45665751 C17.7625899,5.34697264 17.8307739,5.10095433 17.7210891,4.90716024 C17.6844107,4.84235598 17.6305028,4.78897473 17.5653416,4.75293431 L9.2556723,0.156887082 C9.08136559,0.0604786882 8.86961923,0.0609716351 8.69576329,0.158190554 L0.480572445,4.75206264 C0.286214869,4.86074591 0.216762125,5.10640906 0.325445399,5.30076664 C0.36145357,5.36515981 0.414439382,5.41843893 0.478632801,5.45480201 Z" id="Front" fill="#A684D3"></path></g></g><g id="Azure-Border" stroke="#0078D4" stroke-width="4"><rect x="2" y="2" width="96" height="96" rx="48"></rect></g></g></g></g></svg>