<svg xmlns="http://www.w3.org/2000/svg" xmlns:xlink="http://www.w3.org/1999/xlink" viewBox="0 0 100 100" version="1.1"><!-- Generator: Sketch 52.4 (67378) - http://www.bohemiancoding.com/sketch --><title>Creating surveys with Microsoft Dynamics 365 Voice of the Customer/designing-voice-of-the-customer-surveys</title><desc>Created with Sketch.</desc><defs><rect id="path-1" x="0" y="0" width="96" height="96" rx="48"></rect><filter x="-8.2%" y="-6.2%" width="116.3%" height="112.5%" filterUnits="objectBoundingBox" id="filter-3"><feOffset dx="0" dy="2" in="SourceAlpha" result="shadowOffsetOuter1"></feOffset><feColorMatrix values="0 0 0 0 0   0 0 0 0 0   0 0 0 0 0  0 0 0 0.101222826 0" type="matrix" in="shadowOffsetOuter1" result="shadowMatrixOuter1"></feColorMatrix><feMerge><feMergeNode in="shadowMatrixOuter1"></feMergeNode><feMergeNode in="SourceGraphic"></feMergeNode></feMerge></filter><polygon id="path-4" points="0.001 0.04 20.001 0.04 20.001 12 0.001 12"></polygon></defs><g id="Badges" stroke="none" stroke-width="1" fill="none" fill-rule="evenodd"><g id="Creating-surveys-with-Microsoft-Dynamics-365-Voice-of-the-Customer" transform="translate(-50.000000, -260.000000)"><g id="Creating-surveys-with-Microsoft-Dynamics-365-Voice-of-the-Customer/designing-voice-of-the-customer-surveys" transform="translate(50.000000, 260.000000)"><g id="Mask" transform="translate(2.000000, 2.000000)"><mask id="mask-2" fill="white"><use xlink:href="#path-1"></use></mask><use id="BG" fill="#01B6C3" xlink:href="#path-1"></use><g id="Group-4" filter="url(#filter-3)" mask="url(#mask-2)"><g transform="translate(20.578212, 14.000000)"><path d="M4.001,64 C1.801,64 0.001,62.2 0.001,60 L0.001,10 C0.001,7.8 1.801,6 4.001,6 L44.001,6 C46.201,6 48.001,7.8 48.001,10 L48.001,60 C48.001,62.2 46.201,64 44.001,64 L4.001,64" id="Fill-18" fill="#30404D"></path><path d="M44.001,6 L24.001,6 L24.001,64 L44.001,64 C46.201,64 48.001,62.2 48.001,60 L48.001,10 C48.001,7.8 46.201,6 44.001,6" id="Fill-19" fill="#182A37"></path><path d="M5.001,61 C3.901,61 3.001,60.101 3.001,59 L3.001,11 C3.001,9.899 3.901,9 5.001,9 L43.001,9 C44.101,9 45.001,9.899 45.001,11 L45.001,59 C45.001,60.101 44.101,61 43.001,61 L5.001,61" id="Fill-20" fill="#E1E4E1"></path><path d="M24.001,9 L5.001,9 C3.901,9 3.001,9.899 3.001,11 L3.001,59 C3.001,60.101 3.901,61 5.001,61 L24.001,61 L24.001,9" id="Fill-21" fill="#FFFFFE"></path><g id="Group-25" stroke-width="1" fill="none" transform="translate(14.000000, 0.000000)"><mask id="mask-5" fill="white"><use xlink:href="#path-4"></use></mask><g id="Clip-23"></g><path d="M19.001,11 L1.001,11 C0.451,11 0.001,10.55 0.001,10 L0.001,11 C0.001,11.55 0.451,12 1.001,12 L19.001,12 C19.551,12 20.001,11.55 20.001,11 L20.001,10 C20.001,10.55 19.551,11 19.001,11" id="Fill-22" fill="#546670" mask="url(#mask-5)"></path><path d="M10.001,2 C11.104,2 12.001,2.897 12.001,4 L8.001,4 C8.001,2.897 8.897,2 10.001,2 Z M19.001,4 L14.001,4 C14.001,1.791 12.21,0 10.001,0 C7.792,0 6.001,1.791 6.001,4 L1.001,4 C0.451,4 0.001,4.45 0.001,5 L0.001,10 C0.001,10.55 0.451,11 1.001,11 L19.001,11 C19.551,11 20.001,10.55 20.001,10 L20.001,5 C20.001,4.45 19.551,4 19.001,4 Z" id="Fill-24" fill="#ADBDC4" mask="url(#mask-5)"></path></g><polygon id="Fill-26" fill="#182A37" points="13.001 9 14.001 9 14.001 6 13.001 6"></polygon><path d="M11.001,25 C11.001,26.105 11.896,27 13.001,27 C14.105,27 15.001,26.105 15.001,25 C15.001,23.896 14.105,23 13.001,23 C11.896,23 11.001,23.896 11.001,25" id="Fill-27" fill="#7CB65A"></path><path d="M11.001,35 C11.001,36.104 11.896,37 13.001,37 C14.105,37 15.001,36.104 15.001,35 C15.001,33.896 14.105,33 13.001,33 C11.896,33 11.001,33.896 11.001,35" id="Fill-28" fill="#7CB65A"></path><path d="M11.001,45 C11.001,46.104 11.896,47 13.001,47 C14.105,47 15.001,46.104 15.001,45 C15.001,43.896 14.105,43 13.001,43 C11.896,43 11.001,43.896 11.001,45" id="Fill-29" fill="#7CB65A"></path><path d="M35.001,27 L19.001,27 C17.896,27 17.001,26.104 17.001,25 C17.001,23.896 17.896,23 19.001,23 L35.001,23 C36.105,23 37.001,23.896 37.001,25 C37.001,26.104 36.105,27 35.001,27" id="Fill-30" fill="#A9B3B6"></path><path d="M35.001,37 L19.001,37 C17.896,37 17.001,36.104 17.001,35 C17.001,33.896 17.896,33 19.001,33 L35.001,33 C36.105,33 37.001,33.896 37.001,35 C37.001,36.104 36.105,37 35.001,37" id="Fill-31" fill="#A9B3B6"></path><path d="M35.001,47 L19.001,47 C17.896,47 17.001,46.104 17.001,45 C17.001,43.896 17.896,43 19.001,43 L35.001,43 C36.105,43 37.001,43.896 37.001,45 C37.001,46.104 36.105,47 35.001,47" id="Fill-32" fill="#A9B3B6"></path><path d="M34.001,10 L34.001,5 C34.001,4.45 33.551,4 33.001,4 L29.001,4 L26.001,11 L33.001,11 C33.551,11 34.001,10.55 34.001,10" id="Fill-33" fill="#8BA6B1"></path><path d="M24.686,0.069 L23.852,2.015 C23.902,2.011 23.95,2 24.001,2 C25.104,2 26.001,2.897 26.001,4 L23.001,4 L20.001,11 L24.001,11 L27.676,2.424 C27.151,1.202 26.033,0.303 24.686,0.069" id="Fill-34" fill="#8BA6B1"></path></g></g><path d="M68.4861809,71.25 C60.6161554,71.25 54.2361809,64.8696864 54.2361809,57 C54.2361809,49.1303136 60.6161554,42.75 68.4861809,42.75 C76.3562063,42.75 82.7361809,49.1303136 82.7361809,57 C82.7361809,64.8696864 76.3562063,71.25 68.4861809,71.25 Z" id="Fill-34" stroke="#01B6C3" stroke-width="2.5" fill="#01B6C3" mask="url(#mask-2)"></path><g id="Group-9" mask="url(#mask-2)"><g transform="translate(68.769379, 57.377455) rotate(-30.000000) translate(-68.769379, -57.377455) translate(57.769379, 46.877455)"><path d="M18.3914454,6.03596265 L18.3914454,12.6895322 C20.0787463,12.5210028 21.4009,11.0935182 21.4009,9.36274745 C21.4009,7.6319767 20.0787463,6.2044921 18.3914454,6.03596265" id="Fill-476" fill="#C5CCCD"></path><path d="M2.67540508,10.7002828 L2.67540508,6.68767675 L0.669102059,6.68767675 C0.299607918,6.68767675 0.000334383837,6.98728467 0.000334383837,7.35644442 L0.000334383837,11.3690505 C0.000334383837,11.7382102 0.299607918,12.0378181 0.669102059,12.0378181 L2.67540508,12.0378181 L2.67540508,10.7002828" id="Fill-477" fill="#30404D"></path><path d="M18.0650868,0 L17.3882939,0 C16.4543599,0.000334383837 16.0611245,0.256138019 15.9370681,0.365481534 L10.6106679,4.73788459 C10.4561826,4.86495045 10.3662333,5.05454609 10.3662333,5.254842 L10.3662333,13.4706529 C10.3662333,13.6709488 10.4561826,13.8605444 10.6106679,13.9876103 L15.9203489,18.3459692 C16.0611245,18.4693569 16.4543599,18.7251605 17.3882939,18.7254949 L18.0650868,18.7254949 C18.4312371,18.7204791 18.7258293,18.4228775 18.7258293,18.0567272 L18.7258293,0.668767675 C18.7258293,0.302617373 18.4312371,0.00501575756 18.0650868,0" id="Fill-478" fill="#E1E4E1"></path><path d="M10.7006172,10.7002828 L10.7006172,14.0615091 L15.9203489,18.3459692 C16.0611245,18.4693569 16.4543599,18.7251605 17.3882939,18.7254949 L17.3882939,12.7065858 L10.7006172,10.7002828" id="Fill-479" fill="#D2D5D5"></path><path d="M7.35677881,19.3942626 C7.35677881,19.7620848 7.05583335,20.0630302 6.68801113,20.0630302 L5.35047578,20.0630302 C4.98265356,20.0630302 4.68170811,19.7620848 4.68170811,19.3942626 L4.68170811,14.0441212 C4.68170811,13.6762989 4.98265356,13.3753535 5.35047578,13.3753535 L6.68801113,13.3753535 C7.05583335,13.3753535 7.35677881,13.6762989 7.35677881,14.0441212 L7.35677881,19.3942626" id="Fill-480" fill="#C5CCCD"></path><path d="M18.0570616,0 C17.6875675,0 17.3882939,0 17.3882939,0 L17.3882939,18.7254949 C17.3882939,18.7254949 17.6875675,18.7254949 18.0570616,18.7254949 C18.4262214,18.7254949 18.7258293,18.425887 18.7258293,18.0567272 L18.7258293,0.668767675 C18.7258293,0.299607918 18.4262214,0 18.0570616,0" id="Fill-481" fill="#546670"></path><polygon id="Fill-482" fill="#182A37" points="1.67225357 12.0378181 2.00663741 12.0378181 2.00663741 6.68767675 1.67225357 6.68767675"></polygon><path d="M7.35677881,14.0441212 L7.35677881,16.0504242 C7.72460103,16.0504242 8.02554648,15.7494787 8.02554648,15.3816565 L8.02554648,14.0441212 L7.35677881,14.0441212" id="Fill-483" fill="#30404D"></path><polygon id="Fill-484" fill="#AAB0B1" points="4.68170811 14.7128888 7.35677881 14.7128888 7.35677881 14.0441212 4.68170811 14.0441212"></polygon><polygon id="Fill-485" fill="#182A37" points="7.35677881 14.7128888 8.02554648 14.7128888 8.02554648 14.0441212 7.35677881 14.0441212"></polygon><path d="M4.01294043,4.68137372 C2.90646431,4.68137372 2.00663741,5.58120063 2.00663741,6.68767675 L2.00663741,12.0378181 C2.00663741,13.1442943 2.90646431,14.0441212 4.01294043,14.0441212 L10.7006172,14.0441212 L10.7006172,4.68137372 L4.01294043,4.68137372" id="Fill-486" fill="#DF5142"></path><path d="M2.00663741,10.7002828 L2.00663741,12.0378181 C2.00663741,13.1442943 2.90646431,14.0441212 4.01294043,14.0441212 L10.7006172,14.0441212 L10.7006172,10.7002828 L2.00663741,10.7002828" id="Fill-487" fill="#C2423D"></path></g></g></g><g id="Dynamic-Border" stroke="#1D8E96" stroke-width="4"><rect id="Azure-Border" x="2" y="2" width="96" height="96" rx="48"></rect></g></g></g></g></svg>