<svg xmlns="http://www.w3.org/2000/svg" xmlns:xlink="http://www.w3.org/1999/xlink" viewBox="0 0 100 100"><defs><rect id="a" x="0" y="0" width="96" height="96" rx="48"/><filter x="-1.6%" y="-1.6%" width="103.1%" height="106.2%" filterUnits="objectBoundingBox" id="b"><feOffset dy="2" in="SourceAlpha" result="shadowOffsetOuter1"/><feColorMatrix values="0 0 0 0 0 0 0 0 0 0 0 0 0 0 0 0 0 0 0.102864583 0" in="shadowOffsetOuter1" result="shadowMatrixOuter1"/><feMerge><feMergeNode in="shadowMatrixOuter1"/><feMergeNode in="SourceGraphic"/></feMerge></filter></defs><g fill="none" fill-rule="evenodd"><g transform="translate(2 2)"><mask id="c" fill="#fff"><use xlink:href="#a"/></mask><use fill="#C0DDF4" xlink:href="#a"/><g filter="url(#b)" mask="url(#c)"><path fill="#546670" d="M53 76H43l-1-20h12l-1 20"/><path d="M54 56H42l.229 2.521a11.92 11.92 0 0 0 4.011 1.351c.997.146 1.76.956 1.76 1.964V76h5l.9-18h-.082L54 56" fill="#30404D"/><path d="M78 43l-20.753-.943C55.29 39.018 51.885 37 48 37s-7.291 2.018-9.248 5.057L18 43v8l19.723.896C39.297 56.045 43.297 59 48 59c4.701 0 8.702-2.955 10.276-7.104L78 51v-8" fill="#546670"/><path d="M48 74c-14.356 0-26-11.641-26-26s11.644-26 26-26c14.363 0 26 11.641 26 26S62.363 74 48 74zm0-58c-17.668 0-32 14.327-32 32 0 17.673 14.332 32 32 32 17.678 0 32-14.327 32-32 0-17.673-14.322-32-32-32z" fill="#30404D"/><path d="M50 64h-4a1 1 0 1 1 0-2h4a1 1 0 1 1 0 2M50 68h-4a1 1 0 1 1 0-2h4a1 1 0 1 1 0 2M50 72h-4a1 1 0 1 1 0-2h4a1 1 0 1 1 0 2" fill="#546670"/><path d="M46 67h4c.366 0 .673.206.847.5A.977.977 0 0 0 51 67a1 1 0 0 0-1-1h-4a1 1 0 0 0-1 1c0 .186.065.351.153.5A.986.986 0 0 1 46 67M46 63h4c.366 0 .673.206.847.5A.977.977 0 0 0 51 63a1 1 0 0 0-1-1h-4a1 1 0 0 0-1 1c0 .186.065.351.153.5A.986.986 0 0 1 46 63M46 71h4c.366 0 .673.206.847.5A.977.977 0 0 0 51 71a1 1 0 0 0-1-1h-4a1 1 0 0 0-1 1c0 .186.065.351.153.5A.986.986 0 0 1 46 71M18 47v4l19.723.896C39.297 56.045 43.297 59 48 59c4.701 0 8.702-2.955 10.276-7.104L78 51v-4H18" fill="#30404D"/><path d="M63 47a1 1 0 1 1-2 0 1 1 0 0 1 2 0M67 47a1 1 0 1 1-2 0 1 1 0 0 1 2 0M71 47a1 1 0 1 1-2 0 1 1 0 0 1 2 0M33 47a1 1 0 1 1 1.998-.002A1 1 0 0 1 33 47M29 47a1 1 0 1 1 1.998-.002A1 1 0 0 1 29 47M25 47a1 1 0 1 1 1.998-.002A1 1 0 0 1 25 47M41 48a7 7 0 1 0 14 0 7 7 0 0 0-14 0" fill="#546670"/><g fill="#FFF" fill-rule="nonzero"><path d="M47.977 49.388l1.97-1.153v-2.507l-1.97-1.153-1.968 1.147v2.506z"/><path d="M47.977 41.732l-4.593 2.614v1.777l2.187 1.25v-1.008l-1.312-.75v-.76l3.717-2.116 3.72 2.125V49.1l-3.719 2.125-4.593-2.625v1.008l4.593 2.625 4.594-2.625v-5.25z"/></g></g></g><rect x="2" y="2" width="96" height="96" rx="48" stroke="#0078D4" stroke-width="4"/></g></svg>