<svg xmlns="http://www.w3.org/2000/svg" xmlns:xlink="http://www.w3.org/1999/xlink" viewBox="0 0 100 100" version="1.1"><!-- Generator: Sketch 51.3 (57544) - http://www.bohemiancoding.com/sketch --><title>introduction-to-networking</title><desc>Created with Sketch.</desc><defs><path d="M0.796053333,30.5181 C0.767946667,47.2689 14.4250667,60.8724 31.30176,60.8994 C48.17664,60.9273 61.8809067,47.3697 61.9072,30.6189 C61.9362133,13.8672 48.2781867,0.2646 31.4024,0.2367 C31.38336,0.2367 31.3679467,0.2367 31.3489067,0.2367 C14.50032,0.2385 0.823253333,13.7853 0.796053333,30.5181" id="path-1"></path><path d="M0.796053333,30.5181 C0.767946667,47.2689 14.4250667,60.8724 31.30176,60.8994 C48.17664,60.9273 61.8809067,47.3697 61.9072,30.6189 C61.9362133,13.8672 48.2781867,0.2646 31.4024,0.2367 C31.38336,0.2367 31.3679467,0.2367 31.3489067,0.2367 C14.50032,0.2385 0.823253333,13.7853 0.796053333,30.5181" id="path-3"></path><path d="M0.796053333,30.5181 C0.767946667,47.2689 14.4250667,60.8724 31.30176,60.8994 C48.17664,60.9273 61.8809067,47.3697 61.9072,30.6189 C61.9362133,13.8672 48.2781867,0.2646 31.4024,0.2367 C31.38336,0.2367 31.3679467,0.2367 31.3489067,0.2367 C14.50032,0.2385 0.823253333,13.7853 0.796053333,30.5181" id="path-5"></path><path d="M0.796053333,30.5181 C0.767946667,47.2689 14.4250667,60.8724 31.30176,60.8994 C48.17664,60.9273 61.8809067,47.3697 61.9072,30.6189 C61.9362133,13.8672 48.2781867,0.2646 31.4024,0.2367 C31.38336,0.2367 31.3679467,0.2367 31.3489067,0.2367 C14.50032,0.2385 0.823253333,13.7853 0.796053333,30.5181" id="path-7"></path><path d="M0.796053333,30.5181 C0.767946667,47.2689 14.4250667,60.8724 31.30176,60.8994 C48.17664,60.9273 61.8809067,47.3697 61.9072,30.6189 C61.9362133,13.8672 48.2781867,0.2646 31.4024,0.2367 C31.38336,0.2367 31.3679467,0.2367 31.3489067,0.2367 C14.50032,0.2385 0.823253333,13.7853 0.796053333,30.5181" id="path-9"></path><path d="M0.796053333,30.5181 C0.767946667,47.2689 14.4250667,60.8724 31.30176,60.8994 C48.17664,60.9273 61.8809067,47.3697 61.9072,30.6189 C61.9362133,13.8672 48.2781867,0.2646 31.4024,0.2367 C31.38336,0.2367 31.3679467,0.2367 31.3489067,0.2367 C14.50032,0.2385 0.823253333,13.7853 0.796053333,30.5181 Z" id="path-11"></path><path d="M0.796053333,30.5181 C0.767946667,47.2689 14.4250667,60.8724 31.30176,60.8994 C48.17664,60.9273 61.8809067,47.3697 61.9072,30.6189 C61.9362133,13.8672 48.2781867,0.2646 31.4024,0.2367 C31.38336,0.2367 31.3679467,0.2367 31.3489067,0.2367 C14.50032,0.2385 0.823253333,13.7853 0.796053333,30.5181" id="path-13"></path><path d="M0.796053333,30.5181 C0.767946667,47.2689 14.4250667,60.8724 31.30176,60.8994 C48.17664,60.9273 61.8809067,47.3697 61.9072,30.6189 C61.9362133,13.8672 48.2781867,0.2646 31.4024,0.2367 C31.38336,0.2367 31.3679467,0.2367 31.3489067,0.2367 C14.50032,0.2385 0.823253333,13.7853 0.796053333,30.5181" id="path-15"></path><path d="M0.796053333,30.5181 C0.767946667,47.2689 14.4250667,60.8724 31.30176,60.8994 C48.17664,60.9273 61.8809067,47.3697 61.9072,30.6189 C61.9362133,13.8672 48.2781867,0.2646 31.4024,0.2367 C31.38336,0.2367 31.3679467,0.2367 31.3489067,0.2367 C14.50032,0.2385 0.823253333,13.7853 0.796053333,30.5181" id="path-17"></path><path d="M0.796053333,30.5181 C0.767946667,47.2689 14.4250667,60.8724 31.30176,60.8994 C48.17664,60.9273 61.8809067,47.3697 61.9072,30.6189 C61.9362133,13.8672 48.2781867,0.2646 31.4024,0.2367 C31.38336,0.2367 31.3679467,0.2367 31.3489067,0.2367 C14.50032,0.2385 0.823253333,13.7853 0.796053333,30.5181" id="path-19"></path><path d="M0.796053333,30.5181 C0.767946667,47.2689 14.4250667,60.8724 31.30176,60.8994 C48.17664,60.9273 61.8809067,47.3697 61.9072,30.6189 C61.9362133,13.8672 48.2781867,0.2646 31.4024,0.2367 C31.38336,0.2367 31.3679467,0.2367 31.3489067,0.2367 C14.50032,0.2385 0.823253333,13.7853 0.796053333,30.5181" id="path-21"></path><path d="M0.796053333,30.5181 C0.767946667,47.2689 14.4250667,60.8724 31.30176,60.8994 C48.17664,60.9273 61.8809067,47.3697 61.9072,30.6189 C61.9362133,13.8672 48.2781867,0.2646 31.4024,0.2367 C31.38336,0.2367 31.3679467,0.2367 31.3489067,0.2367 C14.50032,0.2385 0.823253333,13.7853 0.796053333,30.5181" id="path-23"></path></defs><g id="Badges-FINAL" stroke="none" stroke-width="1" fill="none" fill-rule="evenodd"><g id="Cloud-Foundations" transform="translate(-578.000000, -1402.000000)"><g id="introduction-to-networking" transform="translate(578.000000, 1402.000000)"><rect id="BG" fill="#C0DDF4" x="2" y="2" width="96" height="96" rx="48"></rect><g id="World" transform="translate(18.000000, 17.000000)"><g id="Group-1758" transform="translate(0.000000, 0.009000)" fill="#000000" fill-opacity="0.0987601902"><path d="M64.1600853,32.42088 C64.131072,49.90968 49.823872,64.06398 32.2055253,64.03518 C14.586272,64.00638 0.328032,49.80438 0.357045333,32.31558 C0.386058667,14.82678 14.692352,0.67248 32.3116053,0.70128 C49.929952,0.73008 64.1890987,14.93118 64.1600853,32.42088" id="Fill-1756"></path></g><g id="Group-1795" transform="translate(0.906667, 1.809000)"><g id="Group-1761"><mask id="mask-2" fill="white"><use xlink:href="#path-1"></use></mask><g id="Clip-1760"></g><path d="M61.9075627,30.74571 C61.879456,47.49651 48.176096,61.05411 31.3003093,61.02711 C14.4254293,60.99831 0.767402667,47.39661 0.795509333,30.64491 C0.823616,13.89321 14.5260693,0.33651 31.401856,0.36351 C48.2776427,0.39141 61.9347627,13.99401 61.9075627,30.74571" id="Fill-1759" fill="#EDEEEF" mask="url(#mask-2)"></path></g><g id="Group-1764"><mask id="mask-4" fill="white"><use xlink:href="#path-3"></use></mask><g id="Clip-1763"></g><path d="M53.9238187,45.61245 C54.4333653,43.64775 54.5602987,41.96115 54.4514987,40.52115 C48.0685653,48.25665 38.353632,53.19225 27.476352,53.17425 C26.6948053,53.17245 25.9196053,53.14455 25.1516587,53.09325 L18.8829653,60.52005 C22.6392853,61.90605 26.7047787,62.66835 30.9488853,62.67555 C41.030112,62.69265 50.112192,58.45275 56.4706453,51.67305 C53.0914987,51.07725 53.9238187,45.61245 53.9238187,45.61245" id="Fill-1762" fill="#E0E0E0" mask="url(#mask-4)"></path></g><g id="Group-1767"><mask id="mask-6" fill="white"><use xlink:href="#path-5"></use></mask><g id="Clip-1766"></g><path d="M63.3154347,21.54177 C68.2885013,30.40587 59.3523947,47.07747 57.164608,50.90427 C62.4921813,44.87247 65.732608,36.98757 65.7471147,28.34757 C65.7561813,22.41747 64.2483947,16.83567 61.587328,11.96217 C62.0406613,14.18697 62.2773013,16.48917 62.2745813,18.84627 C62.2736747,19.35477 62.2555413,19.85967 62.2328747,20.36277 C62.6635413,20.66607 63.0389013,21.05037 63.3154347,21.54177" id="Fill-1765" fill="#E0E0E0" mask="url(#mask-6)"></path></g><g id="Group-1770"><mask id="mask-8" fill="white"><use xlink:href="#path-7"></use></mask><g id="Clip-1769"></g><path d="M15.5020053,55.99845 L16.166592,51.28695 C7.903232,48.45555 1.05517867,42.62985 -3.047488,35.11665 C-0.817088,46.07325 6.679232,55.14165 16.7151253,59.63265 C15.7712853,58.67865 15.3134187,57.33945 15.5020053,55.99845" id="Fill-1768" fill="#E0E0E0" mask="url(#mask-8)"></path></g><g id="Group-1773"><mask id="mask-10" fill="white"><use xlink:href="#path-9"></use></mask><g id="Clip-1772"></g><path d="M17.0453333,59.94126 L18.4207467,61.06896 L18.88224,60.52086 C18.1469333,60.24996 17.4261333,59.95116 16.7153067,59.63256 C16.82048,59.73876 16.9283733,59.84496 17.0453333,59.94126" id="Fill-1771" fill="#3DBFC7" mask="url(#mask-10)"></path></g><g id="Group-1776"><mask id="mask-12" fill="white"><use xlink:href="#path-11"></use></mask><g id="Clip-1775"></g><path d="M26.6831093,51.27876 C28.8944693,48.87126 30.394096,46.93266 31.3914293,45.37296 C32.9191627,42.98616 31.7794827,39.72726 29.0458827,38.93076 C28.634256,38.81106 28.2634293,38.66976 27.9361227,38.52396 C27.078416,38.14236 26.341296,37.50066 25.9187893,36.66726 C22.5867893,30.08286 13.8664693,31.55436 13.8664693,31.55436 C13.8519627,31.57776 13.8438027,31.59936 13.829296,31.62186 L8.95414933,25.68186 C8.473616,25.09596 8.155376,24.39576 8.03206933,23.64966 L7.65126933,21.36006 L8.998576,21.42936 C9.36396267,21.44736 9.708496,21.60576 9.96054933,21.87036 L11.291536,23.26986 L12.3459893,23.41386 C12.431216,22.87296 12.0168693,19.31526 12.297936,18.84366 L14.0215093,15.94116 C14.8130293,14.60826 16.2591627,13.81176 17.8186293,13.81086 C19.1786293,13.81086 20.6900427,13.52646 21.0898827,12.33936 C21.861456,10.05696 22.6484427,7.71156 21.7970827,6.59286 L20.9810827,5.51826 C19.6020427,3.70746 17.0597493,3.25476 15.1367093,4.48146 C10.9306827,7.16346 4.12614933,12.80736 1.012656,22.57956 C0.153136,25.27596 2.01724267,28.07496 4.858736,28.27836 L5.046416,28.29186 C6.04102933,28.36296 6.98214933,28.77066 7.712016,29.44656 L10.4882293,32.01876 C11.666896,33.11046 12.0921227,34.78176 11.6079627,36.30726 C9.928816,41.60016 12.330576,44.32266 14.3995893,45.62676 C15.8711093,46.55376 16.5855627,48.31146 16.3443893,50.02416 L16.1666827,51.28686 C19.0118027,52.26156 22.0237493,52.88256 25.1517493,53.09316 L26.6831093,51.27876 Z" id="Fill-1774" fill="#E0E0E0" mask="url(#mask-12)"></path></g><g id="Group-1779"><mask id="mask-14" fill="white"><use xlink:href="#path-13"></use></mask><g id="Clip-1778"></g><path d="M16.1669547,51.28668 L15.502368,55.99818 C15.3137813,57.34008 15.7707413,58.67838 16.7145813,59.63238 C17.4263147,59.95098 18.1471147,60.24978 18.8824213,60.52068 L25.1511147,53.09298 C22.0240213,52.88238 19.0120747,52.26138 16.1669547,51.28668" id="Fill-1777" fill="#CCCDCE" mask="url(#mask-14)"></path></g><g id="Group-1782"><mask id="mask-16" fill="white"><use xlink:href="#path-15"></use></mask><g id="Clip-1781"></g><path d="M58.3898773,19.7181 C57.9048107,19.8243 57.275584,19.8234 56.4604907,19.6317 C54.6607573,19.2087 53.0069973,18.5526 51.8863573,18.0495 C50.7983573,17.5617 49.561664,17.5734 48.4564373,18.0225 C44.5033707,19.6308 36.5582507,24.2064 43.6819307,33.2172 C44.4281173,34.1595 45.585024,34.7445 46.792704,34.7616 C47.271424,34.7688 47.8009173,34.731 48.3412907,34.6113 C50.4084907,34.155 52.6017173,34.893 53.5011307,36.7974 C53.9698773,37.7865 54.3388907,39.0195 54.4513173,40.5207 C59.0254507,34.9776 61.8841707,27.9954 62.2323307,20.3634 C61.1751573,19.62 59.7498773,19.4211 58.3898773,19.7181" id="Fill-1780" fill="#E0E0E0" mask="url(#mask-16)"></path></g><g id="Group-1785"><mask id="mask-18" fill="white"><use xlink:href="#path-17"></use></mask><g id="Clip-1784"></g><path d="M57.1644267,50.90427 C56.9359467,51.16347 56.70656,51.42087 56.46992,51.67287 C56.54336,51.68637 56.6168,51.70077 56.6938667,51.70887 C56.6938667,51.70887 56.8715733,51.41817 57.1644267,50.90427" id="Fill-1783" fill="#3DBFC7" mask="url(#mask-18)"></path></g><g id="Group-1788"><mask id="mask-20" fill="white"><use xlink:href="#path-19"></use></mask><g id="Clip-1787"></g><path d="M63.3154347,21.54177 C63.0389013,21.05037 62.6635413,20.66607 62.2328747,20.36277 C61.8847147,27.99567 59.0259947,34.97787 54.4518613,40.52097 C54.5606613,41.96097 54.4328213,43.64757 53.9241813,45.61227 C53.9241813,45.61227 53.0918613,51.07707 56.4701013,51.67287 C56.7067413,51.42087 56.936128,51.16347 57.164608,50.90427 C59.3523947,47.07747 68.2885013,30.40587 63.3154347,21.54177" id="Fill-1786" fill="#CCCDCE" mask="url(#mask-20)"></path></g><g id="Group-1791"><mask id="mask-22" fill="white"><use xlink:href="#path-21"></use></mask><g id="Clip-1790"></g><path d="M46.5217013,9.17298 L47.6115147,9.44568 C48.279728,9.61218 48.9860213,9.37638 49.4157813,8.84088 L50.1628747,7.91118 C50.784848,7.13448 50.6316213,6.00048 49.8255947,5.41368 L45.6540213,2.38608 L44.9812747,3.33738 L45.1943413,7.56738 C45.233328,8.33418 45.771888,8.98578 46.5217013,9.17298" id="Fill-1789" fill="#E0E0E0" mask="url(#mask-22)"></path></g><g id="Group-1794"><mask id="mask-24" fill="white"><use xlink:href="#path-23"></use></mask><g id="Clip-1793"></g><path d="M47.067152,17.71245 C48.133392,16.85565 48.7843787,15.81525 49.082672,15.25725 C49.2395253,14.96295 49.4861387,14.73615 49.789872,14.59305 C50.744592,14.14395 52.858032,13.37085 54.6468853,14.29875 C55.5381387,14.76045 56.7322187,15.12945 57.8827787,15.41205 C59.296272,15.75945 60.408752,14.20875 59.622672,12.99285 L56.8337653,8.68185 C56.3486987,7.93215 55.6995253,7.30125 54.936112,6.83415 L54.5888587,6.62265 C53.7973387,6.13935 52.7582987,6.41835 52.322192,7.23285 L51.3955787,8.96265 C51.3955787,8.96265 50.9821387,11.80665 45.3798453,13.40505 C44.885712,13.54635 44.472272,13.89825 44.2882187,14.37435 L44.0905653,14.88555 C43.9019787,15.37425 43.9645387,15.92055 44.2592053,16.35435 C44.872112,17.25615 46.0126987,18.55935 47.067152,17.71245" id="Fill-1792" fill="#E0E0E0" mask="url(#mask-24)"></path></g></g><g id="Group-1856" transform="translate(12.693333, 10.809000)" fill="#137AD1"><path d="M1.95422933,2.38428 C1.82638933,2.38428 1.70852267,2.36538 1.59972267,2.32128 C1.49182933,2.27628 1.392096,2.21328 1.310496,2.12328 C1.228896,2.04138 1.15636267,1.94328 1.11102933,1.83528 C1.065696,1.72728 1.04756267,1.61028 1.04756267,1.49328 C1.04756267,1.37628 1.065696,1.25928 1.11102933,1.15128 C1.15636267,1.03428 1.228896,0.93528 1.310496,0.85428 C1.392096,0.77328 1.49182933,0.70128 1.59972267,0.65628 C1.93518933,0.52128 2.33502933,0.60228 2.588896,0.85428 C2.67956267,0.93528 2.74302933,1.03428 2.78836267,1.15128 C2.833696,1.25928 2.860896,1.37628 2.860896,1.49328 C2.860896,1.61028 2.833696,1.72728 2.78836267,1.83528 C2.74302933,1.94328 2.67956267,2.04138 2.588896,2.12328 C2.425696,2.29338 2.19902933,2.38428 1.95422933,2.38428" id="Fill-1796"></path><path d="M6.18210667,2.37726 C5.70157333,2.23416 5.43864,1.72116 5.58370667,1.25226 C5.73784,0.77616 6.24466667,0.51516 6.72610667,0.65916 C7.19757333,0.81216 7.46957333,1.31526 7.31544,1.79316 C7.19757333,2.17116 6.83490667,2.42316 6.45410667,2.42316 C6.36344,2.42316 6.27277333,2.40426 6.18210667,2.37726 M10.3799733,3.68226 C9.9076,3.53826 9.63650667,3.02616 9.78973333,2.55726 C9.93570667,2.08116 10.44344,1.81026 10.9230667,1.96326 C11.4045067,2.11626 11.66744,2.62116 11.5223733,3.08826 C11.39544,3.47616 11.0409333,3.72726 10.6519733,3.72726 C10.5613067,3.72726 10.4697333,3.70926 10.3799733,3.68226 M14.5869067,4.98726 C14.1063733,4.84326 13.84344,4.33116 13.9876,3.86226 C14.1417333,3.38526 14.6503733,3.12426 15.1309067,3.26826 C15.6023733,3.42126 15.8734667,3.92616 15.72024,4.40226 C15.6023733,4.78116 15.2397067,5.03226 14.858,5.03226 C14.76824,5.03226 14.6775733,5.01516 14.5869067,4.98726 M18.7838667,6.29316 C18.30424,6.14826 18.0413067,5.63526 18.1863733,5.16816 C18.3405067,4.69026 18.84824,4.42926 19.3287733,4.57326 C19.80024,4.72626 20.0713333,5.23116 19.9172,5.69826 C19.80024,6.08526 19.4375733,6.33726 19.0567733,6.33726 C18.9661067,6.33726 18.87544,6.32016 18.7838667,6.29316 M22.9817333,7.59816 C22.5111733,7.44516 22.2391733,6.94026 22.3933067,6.47316 C22.5383733,5.99616 23.0542667,5.72616 23.52664,5.87916 C24.0071733,6.03216 24.2701067,6.53526 24.12504,7.00416 C23.9972,7.39026 23.6445067,7.64316 23.25464,7.64316 C23.1630667,7.64316 23.0733067,7.62426 22.9817333,7.59816 M27.1895733,8.90226 C26.70904,8.75916 26.4461067,8.24616 26.5911733,7.77726 C26.73624,7.30116 27.25304,7.04016 27.7245067,7.18416 C28.20504,7.33716 28.4679733,7.84026 28.3229067,8.31816 C28.20504,8.69616 27.8423733,8.94816 27.4525067,8.94816 C27.3709067,8.94816 27.28024,8.92926 27.1895733,8.90226 M31.38744,10.20726 C30.9069067,10.06326 30.6430667,9.55116 30.7972,9.08226 C30.9431733,8.60616 31.4509067,8.34516 31.9305333,8.48826 C32.4119733,8.64126 32.6749067,9.14616 32.52984,9.61326 C32.4029067,10.00116 32.0484,10.25226 31.65944,10.25226 C31.5687733,10.25226 31.4772,10.23426 31.38744,10.20726 M35.5853067,11.51226 C35.11384,11.35926 34.8409333,10.85616 34.9950667,10.38726 C35.1401333,9.91026 35.6487733,9.64026 36.1284,9.79326 C36.60984,9.94626 36.8727733,10.45116 36.7268,10.91826 C36.6007733,11.30616 36.2471733,11.55726 35.8564,11.55726 C35.76664,11.55726 35.6750667,11.54016 35.5853067,11.51226 M39.7913333,12.81816 C39.3117067,12.67326 39.0487733,12.16026 39.19384,11.69316 C39.3479733,11.21526 39.8557067,10.95426 40.3271733,11.09826 C40.8068,11.25126 41.0697333,11.75616 40.9246667,12.23226 C40.8068,12.61026 40.44504,12.86226 40.06424,12.86226 C39.9735733,12.86226 39.8829067,12.84516 39.7913333,12.81816" id="Fill-1798"></path><path d="M43.9601867,15.4431 C43.84232,15.4431 43.7244533,15.4161 43.6156533,15.3711 C43.5068533,15.3261 43.40712,15.2631 43.3164533,15.1731 C43.2348533,15.0912 43.16232,14.9931 43.1260533,14.8851 C43.0798133,14.7771 43.05352,14.6601 43.05352,14.5431 C43.05352,14.2992 43.1523467,14.0742 43.3164533,13.9041 C43.5331467,13.6971 43.84232,13.5981 44.14152,13.6611 C44.19592,13.6701 44.2494133,13.6881 44.30472,13.7061 C44.3582133,13.7331 44.41352,13.7601 44.4588533,13.7871 C44.5123467,13.8231 44.5585867,13.8591 44.60392,13.9041 C44.68552,13.9851 44.7489867,14.0841 44.79432,14.1912 C44.8396533,14.3091 44.8668533,14.4261 44.8668533,14.5431 C44.8668533,14.7771 44.77528,15.0021 44.60392,15.1731 C44.4316533,15.3441 44.2049867,15.4431 43.9601867,15.4431" id="Fill-1800"></path><path d="M41.654624,18.13689 C41.246624,17.84889 41.1559573,17.29089 41.437024,16.87689 C41.7271573,16.47099 42.2983573,16.37289 42.7063573,16.65999 C43.1134507,16.94889 43.2140907,17.50689 42.9230507,17.92089 C42.742624,18.16299 42.4615573,18.29889 42.1804907,18.29889 C41.9991573,18.29889 41.817824,18.24489 41.654624,18.13689 M39.0524907,21.81789 C38.635424,21.52989 38.5438507,20.97099 38.825824,20.55699 C39.1159573,20.15199 39.6871573,20.06289 40.0942507,20.34099 C40.5022507,20.62989 40.6028907,21.19599 40.3127573,21.60189 C40.1404907,21.84489 39.859424,21.97989 39.5692907,21.97989 C39.3879573,21.97989 39.206624,21.92589 39.0524907,21.81789 M36.4412907,25.49889 C36.024224,25.21989 35.9326507,24.65199 36.214624,24.24789 C36.5038507,23.84289 37.065984,23.74299 37.4830507,24.03189 C37.8919573,24.30999 37.9916907,24.87699 37.7015573,25.28199 C37.5292907,25.53489 37.248224,25.65999 36.957184,25.65999 C36.7767573,25.65999 36.595424,25.61589 36.4412907,25.49889 M33.8300907,29.18799 C33.413024,28.90089 33.3223573,28.34289 33.603424,27.92889 C33.8926507,27.52389 34.4556907,27.42399 34.8727573,27.71289 C35.2807573,28.00089 35.3804907,28.55889 35.0903573,28.96299 C34.917184,29.21589 34.637024,29.35089 34.345984,29.35089 C34.1646507,29.35089 33.984224,29.29599 33.8300907,29.18799 M31.217984,32.86989 C30.8108907,32.58189 30.7111573,32.02389 30.9913173,31.60989 C31.2823573,31.20489 31.8526507,31.11489 32.2615573,31.39299 C32.6695573,31.68189 32.7692907,32.23989 32.4791573,32.65389 C32.297824,32.89599 32.0167573,33.03189 31.7356907,33.03189 C31.5534507,33.03189 31.373024,32.97699 31.217984,32.86989 M28.606784,36.55089 C28.1996907,36.27099 28.0999573,35.70489 28.3900907,35.29899 C28.6711573,34.89489 29.2423573,34.79589 29.6503573,35.08389 C30.0583573,35.36289 30.157184,35.92989 29.8679573,36.33489 C29.6956907,36.58689 29.414624,36.71289 29.1244907,36.71289 C28.9422507,36.71289 28.7609173,36.65889 28.606784,36.55089 M25.995584,40.24089 C25.587584,39.95199 25.4887573,39.38499 25.777984,38.98089 C26.0599573,38.57589 26.6311573,38.47689 27.0391573,38.76489 C27.4471573,39.05199 27.545984,39.60999 27.2567573,40.01589 C27.0844907,40.26789 26.803424,40.40199 26.5132907,40.40199 C26.3319573,40.40199 26.1497173,40.34889 25.995584,40.24089 M23.3852907,43.92099 C22.976384,43.63389 22.8775573,43.07589 23.166784,42.66189 C23.4487573,42.25689 24.0199573,42.15699 24.4279573,42.44589 C24.8359573,42.73389 24.9356907,43.29099 24.6446507,43.70589 C24.4732907,43.94889 24.1913173,44.08389 23.9020907,44.08389 C23.7207573,44.08389 23.539424,44.02989 23.3852907,43.92099" id="Fill-1802"></path><path d="M20.4683627,48.59019 C20.214496,48.59019 19.9878293,48.49929 19.8246293,48.32919 C19.7430293,48.24819 19.670496,48.14919 19.6251627,48.04119 C19.5798293,47.93319 19.561696,47.81619 19.561696,47.69919 C19.561696,47.57319 19.5798293,47.45619 19.6251627,47.34819 C19.670496,47.24019 19.7430293,47.14119 19.8246293,47.06019 C20.0331627,46.85229 20.3414293,46.75419 20.6397227,46.80819 C20.704096,46.82619 20.758496,46.84419 20.812896,46.86219 C20.921696,46.90719 21.0214293,46.97019 21.1030293,47.06019 C21.193696,47.14119 21.2571627,47.24019 21.302496,47.34819 C21.3478293,47.46519 21.3750293,47.57319 21.3750293,47.69919 C21.3750293,47.81619 21.3478293,47.93319 21.302496,48.04119 C21.2571627,48.14919 21.193696,48.24819 21.1030293,48.32919 C20.9398293,48.49929 20.7131627,48.59019 20.4683627,48.59019" id="Fill-1804"></path><path d="M0.143616,5.12037 C-0.0377173333,4.66047 0.188949333,4.13847 0.651349333,3.95937 C1.122816,3.77037 1.64868267,3.99537 1.830016,4.45437 C2.020416,4.92147 1.79374933,5.44347 1.32228267,5.62437 C1.21348267,5.66847 1.10468267,5.68737 0.986816,5.68737 C0.624149333,5.68737 0.288682667,5.47137 0.143616,5.12037 M1.830016,9.32337 C1.64868267,8.86347 1.87534933,8.33247 2.33774933,8.15247 C2.80014933,7.97337 3.326016,8.19837 3.516416,8.65737 C3.69774933,9.12447 3.47108267,9.64647 3.00868267,9.82647 C2.89988267,9.87147 2.782016,9.89037 2.673216,9.89037 C2.31054933,9.89037 1.97508267,9.67437 1.830016,9.32337 M3.516416,13.52637 C3.326016,13.05747 3.55268267,12.53547 4.02414933,12.35637 C4.48654933,12.16647 5.012416,12.39147 5.19374933,12.86037 C5.38414933,13.31847 5.15748267,13.84047 4.69508267,14.02947 C4.58628267,14.07447 4.468416,14.09337 4.359616,14.09337 C3.99694933,14.09337 3.652416,13.87647 3.516416,13.52637 M5.19374933,17.72037 C5.012416,17.26047 5.23908267,16.73847 5.70148267,16.54947 C6.17294933,16.37037 6.69790933,16.59537 6.88014933,17.06337 C7.06148267,17.52147 6.834816,18.04347 6.372416,18.22437 C6.263616,18.26847 6.14574933,18.28737 6.03694933,18.28737 C5.67428267,18.28737 5.33790933,18.07947 5.19374933,17.72037 M6.88014933,21.92337 C6.68974933,21.46347 6.924576,20.94147 7.38788267,20.75247 C7.85028267,20.57337 8.37614933,20.79837 8.55748267,21.25737 C8.74788267,21.72447 8.521216,22.24647 8.05790933,22.42647 C7.950016,22.47147 7.83124267,22.49037 7.72334933,22.49037 C7.36068267,22.49037 7.01614933,22.27437 6.88014933,21.92337 M8.55748267,26.12637 C8.37614933,25.65747 8.602816,25.13547 9.065216,24.95637 C9.53668267,24.77637 10.0616427,25.00137 10.2438827,25.46037 C10.4342827,25.91847 10.207616,26.44047 9.73614933,26.62947 C9.62734933,26.67447 9.51854933,26.69337 9.40068267,26.69337 C9.04708267,26.69337 8.70164267,26.47647 8.55748267,26.12637 M10.2438827,30.32937 C10.0616427,29.86047 10.2883093,29.33847 10.751616,29.15937 C11.2230827,28.97037 11.7489493,29.19537 11.9302827,29.66337 C12.111616,30.12147 11.8849493,30.64347 11.4216427,30.83247 C11.3137493,30.86847 11.194976,30.89637 11.0870827,30.89637 C10.724416,30.89637 10.3889493,30.67947 10.2438827,30.32937 M11.9302827,34.52337 C11.7398827,34.06347 11.975616,33.54147 12.438016,33.35247 C12.900416,33.17337 13.4262827,33.39837 13.6166827,33.85737 C13.798016,34.32447 13.5713493,34.84647 13.1089493,35.02647 C12.9910827,35.07147 12.8822827,35.09037 12.7734827,35.09037 C12.410816,35.09037 12.0662827,34.87437 11.9302827,34.52337 M13.607616,38.72637 C13.4262827,38.26647 13.6529493,37.73547 14.1153493,37.55637 C14.586816,37.37637 15.1126827,37.60137 15.294016,38.06037 C15.484416,38.51847 15.2577493,39.04947 14.7862827,39.22947 C14.6774827,39.27447 14.5686827,39.29337 14.4598827,39.29337 C14.097216,39.29337 13.7526827,39.07647 13.607616,38.72637 M15.294016,42.92937 C15.1126827,42.46047 15.3393493,41.93847 15.8017493,41.75937 C16.2641493,41.57037 16.790016,41.80437 16.980416,42.26337 C17.1617493,42.72147 16.9350827,43.24347 16.4726827,43.43247 C16.3638827,43.46847 16.246016,43.49637 16.137216,43.49637 C15.7745493,43.49637 15.4390827,43.27947 15.294016,42.92937" id="Fill-1806"></path></g><g id="Group-2020" transform="translate(0.000000, 0.009000)"><path d="M25.7534133,13.43565 C25.7416267,20.37015 20.06952,25.98255 13.0836533,25.97175 C6.09778667,25.96005 0.443813333,20.32875 0.4556,13.39425 C0.467386667,6.45975 6.13949333,0.84825 13.12536,0.85905 C20.1112267,0.87075 25.7652,6.50205 25.7534133,13.43565" id="Fill-1994" fill="#0078D7"></path><path d="M67.4618027,24.08445 C67.4509227,30.06675 62.5576427,34.90875 56.5301227,34.89975 C50.5035093,34.88985 45.6256427,30.03165 45.6365227,24.04935 C45.6455893,18.06615 50.539776,13.22505 56.5663893,13.23405 C62.5939093,13.24395 67.471776,18.10305 67.4618027,24.08445" id="Fill-1996" fill="#FDB82C"></path><path d="M45.6893813,58.50684 C45.6775947,65.43864 40.0063947,71.04924 33.023248,71.03754 C26.0401013,71.02584 20.388848,65.39634 20.399728,58.46454 C20.4115147,51.53274 26.0827147,45.92304 33.0658613,45.93384 C40.049008,45.94554 45.701168,51.57504 45.6893813,58.50684" id="Fill-1998" fill="#D83A18"></path><path d="M6.530992,12.03732 C6.79301867,12.03732 7.04597867,12.07332 7.289872,12.13362 C7.24181867,11.91582 7.21461867,11.69082 7.21552533,11.45862 C7.21733867,9.73422 8.62720533,8.33832 10.3643787,8.34012 C10.842192,8.34102 11.293712,8.44992 11.698992,8.64072 C12.0534987,7.29702 13.279312,6.30702 14.742672,6.30792 C16.4798453,6.30972 17.8860853,7.70922 17.884272,9.43362 C17.884272,9.70092 17.846192,9.95832 17.7827253,10.20582 C17.998512,10.17162 18.2179253,10.14912 18.4436853,10.14912 C20.7094453,10.15092 22.543632,11.97702 22.5418187,14.22702 C22.5390987,16.47612 20.7003787,18.29682 18.4346187,18.29502 L6.52373867,18.28152 C4.78656533,18.28062 3.37941867,16.88112 3.381232,15.15672 C3.38304533,13.43232 4.79381867,12.03552 6.530992,12.03732" id="Fill-2014" fill="#FFFFFF"></path><path d="M26.4776587,57.26232 C26.7396853,57.26232 26.9926453,57.29832 27.2365387,57.35862 C27.1884853,57.14082 27.1612853,56.91582 27.162192,56.68362 C27.1640053,54.95922 28.573872,53.56332 30.3110453,53.56512 C30.7888587,53.56602 31.2403787,53.67492 31.6456587,53.86572 C32.0001653,52.52202 33.2259787,51.53202 34.6893387,51.53292 C36.426512,51.53472 37.832752,52.93422 37.8309387,54.65862 C37.8309387,54.92592 37.7928587,55.18332 37.729392,55.43082 C37.9451787,55.39662 38.164592,55.37412 38.390352,55.37412 C40.656112,55.37592 42.4902987,57.20202 42.4884853,59.45202 C42.4857653,61.70112 40.6470453,63.52182 38.3812853,63.52002 L26.4704053,63.50652 C24.733232,63.50562 23.3260853,62.10612 23.3278987,60.38172 C23.329712,58.65732 24.7404853,57.26052 26.4776587,57.26232" id="Fill-2016" fill="#FFFFFF"></path><path d="M51.5526133,22.97799 C51.7693067,22.97799 51.9796533,23.00769 52.1809333,23.05809 C52.14104,22.87719 52.11928,22.69089 52.11928,22.49919 C52.1210933,21.06999 53.28888,19.91349 54.7286667,19.91439 C55.1239733,19.91529 55.4984267,20.00529 55.8348,20.16279 C56.1276533,19.05129 57.1440267,18.23049 58.35624,18.23139 C59.79512,18.23319 60.9610933,19.39239 60.95928,20.82159 C60.95928,21.04209 60.9275467,21.25539 60.87496,21.45969 C61.0535733,21.43179 61.2349067,21.41379 61.42168,21.41379 C63.29848,21.41559 64.81896,22.92759 64.8171467,24.79149 C64.8153333,26.65449 63.2912267,28.16379 61.4144267,28.16199 L51.5462667,28.15119 C50.1073867,28.15029 48.9414133,26.99109 48.9432267,25.56189 C48.94504,24.13269 50.1128267,22.97619 51.5526133,22.97799" id="Fill-2018" fill="#FFFFFF"></path></g></g><g id="Azure-Border" stroke="#0078D4" stroke-width="4"><rect x="2" y="2" width="96" height="96" rx="48"></rect></g></g></g></g></svg>