<svg xmlns="http://www.w3.org/2000/svg" xmlns:xlink="http://www.w3.org/1999/xlink" viewBox="0 0 100 118" version="1.1"><!-- Generator: Sketch 51.3 (57544) - http://www.bohemiancoding.com/sketch --><title>work-with-cases-and-slas</title><desc>Created with Sketch.</desc><defs><path d="M42.7425,1.49663266 C44.3745,0.498877554 46.1865,0 48,0 C49.8135,0 51.627,0.498877554 53.256,1.49663266 L90.591,24.3316189 C93.933,26.3773408 96,30.2031485 96,34.3529027 L96,79.6470973 C96,83.7952317 93.933,87.6242789 90.591,89.6683811 L53.256,112.504987 C51.627,113.501122 49.8135,114 48,114 C46.1865,114 44.3745,113.501122 42.7425,112.504987 L5.409,89.6683811 C2.0655,87.6242789 0,83.7952317 0,79.6470973 L0,34.3529027 C0,30.2031485 2.0655,26.3773408 5.409,24.3316189 L42.7425,1.49663266 Z" id="path-1"></path><filter x="-1.2%" y="-0.9%" width="102.4%" height="103.6%" filterUnits="objectBoundingBox" id="filter-3"><feOffset dx="0" dy="2" in="SourceAlpha" result="shadowOffsetOuter1"></feOffset><feColorMatrix values="0 0 0 0 0   0 0 0 0 0   0 0 0 0 0  0 0 0 0.101392663 0" type="matrix" in="shadowOffsetOuter1" result="shadowMatrixOuter1"></feColorMatrix><feMerge><feMergeNode in="shadowMatrixOuter1"></feMergeNode><feMergeNode in="SourceGraphic"></feMergeNode></feMerge></filter></defs><g id="Badges-FINAL" stroke="none" stroke-width="1" fill="none" fill-rule="evenodd"><g id="Work-with-cases-and-SLAs" transform="translate(-579.000000, -118.000000)"><g id="work-with-cases-and-slas" transform="translate(579.000000, 118.000000)"><g id="Mask" transform="translate(2.000000, 2.000000)"><mask id="mask-2" fill="white"><use xlink:href="#path-1"></use></mask><use id="Trophy-1" fill="#C0DDF4" xlink:href="#path-1"></use><g id="Icon" filter="url(#filter-3)" mask="url(#mask-2)"><g transform="translate(6.063253, 23.500000)"><path d="M58.5727129,41.6040037 C58.5727129,50.467756 51.3877462,57.6517397 42.5249769,57.6517397 C33.6612246,57.6517397 26.4772409,50.467756 26.4772409,41.6040037 C26.4772409,32.7412344 33.6612246,25.5562677 42.5249769,25.5562677 C51.3877462,25.5562677 58.5727129,32.7412344 58.5727129,41.6040037" id="Fill-4159" stroke="none" fill="#4176AF" fill-rule="evenodd"></path><path d="M61.1201816,35.0913377 L61.1201816,34.3964305 C61.1201816,27.6213313 55.6090861,22.1102359 48.833987,22.1102359 L36.0632248,22.1102359 C29.2881256,22.1102359 23.7770302,27.6213313 23.7770302,34.3964305 L23.7770302,35.0824916 C21.6500442,35.3370616 19.9820704,37.1387092 19.9820704,39.3305663 L19.9820704,46.825145 C19.9820704,49.1909746 21.9164089,51.1253131 24.2822385,51.1253131 L24.7599258,51.1302276 L24.7599258,34.3964305 C24.7599258,28.1638897 29.830684,23.0931314 36.0632248,23.0931314 L48.833987,23.0931314 C55.0665278,23.0931314 60.137286,28.1638897 60.137286,34.3964305 L60.137286,51.1302276 L60.5265127,51.1253131 C62.8913594,51.1253131 64.8266808,49.1909746 64.8266808,46.825145 L64.8266808,39.3305663 C64.8266808,37.1691789 63.2039202,35.3852235 61.1201816,35.0913377" id="Fill-4161" stroke="none" fill="#FFFFFF" fill-rule="evenodd"></path><path d="M61.1201816,35.0913377 L61.1201816,34.3964305 C61.1201816,27.6213313 55.6090861,22.1102359 48.833987,22.1102359 L36.0632248,22.1102359 C29.2881256,22.1102359 23.7770302,27.6213313 23.7770302,34.3964305 L23.7770302,35.0824916 C21.6500442,35.3370616 19.9820704,37.1387092 19.9820704,39.3305663 L19.9820704,46.825145 C19.9820704,49.1909746 21.9164089,51.1253131 24.2822385,51.1253131 L24.7599258,51.1302276 L24.7599258,34.3964305 C24.7599258,28.1638897 29.830684,23.0931314 36.0632248,23.0931314 L48.833987,23.0931314 C55.0665278,23.0931314 60.137286,28.1638897 60.137286,34.3964305 L60.137286,51.1302276 L60.5265127,51.1253131 C62.8913594,51.1253131 64.8266808,49.1909746 64.8266808,46.825145 L64.8266808,39.3305663 C64.8266808,37.1691789 63.2039202,35.3852235 61.1201816,35.0913377 Z" id="Stroke-4163" stroke="#FFFFFF" stroke-width="0.5" fill="none"></path><path d="M52.0418632,6.49910209 C52.0418632,5.39825906 52.9333495,4.50677277 54.0332097,4.50578988 L54.0332097,0.629249745 L31.8856238,0.629249745 L31.8856238,4.51561883 C31.921008,4.51365304 31.9544265,4.50578988 31.9907936,4.50578988 C33.0916366,4.50578988 33.9841058,5.39825906 33.9841058,6.49910209 C33.9841058,7.59896224 33.0916366,8.49143142 31.9907936,8.49143142 C31.9544265,8.49143142 31.921008,8.48356825 31.8856238,8.48160246 L31.8856238,12.3679715 L54.0332097,12.3679715 L54.0332097,8.49143142 C52.9333495,8.49044852 52.0418632,7.59896224 52.0418632,6.49910209" id="Fill-4165" stroke="none" fill="#D65D54" fill-rule="evenodd"></path><path d="M34.9861678,11.0664212 L50.9336485,11.0664212 L50.9336485,1.9304069 L34.9861678,1.9304069 L34.9861678,11.0664212 Z M35.9690634,10.0835257 L49.9507529,10.0835257 L49.9507529,2.91330247 L35.9690634,2.91330247 L35.9690634,10.0835257 Z" id="Fill-4167" stroke="none" fill="#FCDC56" fill-rule="evenodd"></path><path d="M18.5427181,11.6256888 C17.7652477,10.8472355 17.7652477,9.5861805 18.5417352,8.80772721 L15.8014224,6.06741436 L0.139964329,21.7278895 L2.88814035,24.4760655 C2.91271274,24.4495273 2.93040486,24.4200405 2.95596014,24.3944852 C3.73441343,23.6160319 4.99645135,23.6160319 5.77490464,24.3944852 C6.55335793,25.1729385 6.55335793,26.4349764 5.77490464,27.2134297 C5.74836646,27.238985 5.71887959,27.2556942 5.69332431,27.2802666 L8.44150032,30.0284426 L24.1009926,14.3669846 L21.3606797,11.6266717 C20.5822264,12.4041421 19.3211714,12.4031592 18.5427181,11.6256888" id="Fill-4169" stroke="none" fill="#D65D54" fill-rule="evenodd"></path><path d="M14.5295555,9.17994976 L3.2527946,20.4557278 L9.71336719,26.9153174 L20.9891452,15.6395395 L14.5295555,9.17994976 Z M14.5295555,10.5697641 L19.5993308,15.6395395 L9.71336719,25.5255031 L4.64260894,20.4557278 L14.5295555,10.5697641 Z" id="Fill-4170" stroke="none" fill="#FCDC56" fill-rule="evenodd"></path><path d="M64.6697124,11.6256888 C65.4481657,10.8472355 65.4481657,9.5861805 64.6706953,8.80772721 L67.411991,6.06741436 L83.0724662,21.7278895 L80.3242901,24.4760655 C80.3007006,24.4495273 80.2830085,24.4200405 80.2574532,24.3944852 C79.479,23.6160319 78.216962,23.6160319 77.4385087,24.3944852 C76.6600555,25.1729385 76.6600555,26.4349764 77.4385087,27.2134297 C77.464064,27.238985 77.4945338,27.2556942 77.5200891,27.2802666 L74.7719131,30.0284426 L59.1124208,14.3669846 L61.8527337,11.6266717 C62.631187,12.4041421 63.892242,12.4031592 64.6697124,11.6256888" id="Fill-4171" stroke="none" fill="#D65D54" fill-rule="evenodd"></path><path d="M68.6848408,9.17994976 L62.2242682,15.6395395 L73.5000462,26.9153174 L79.9606188,20.4557278 L68.6848408,9.17994976 Z M68.6848408,10.5697641 L78.5708044,20.4557278 L73.5000462,25.5255031 L63.6140825,15.6395395 L68.6848408,10.5697641 Z" id="Fill-4172" stroke="none" fill="#FCDC56" fill-rule="evenodd"></path><path d="M52.9661782,109.920062 L32.4236608,109.920062 C25.93655,109.920062 20.628914,104.612426 20.628914,98.1253153 L20.628914,67.1641048 C20.628914,60.676994 25.93655,55.3693579 32.4236608,55.3693579 L52.9661782,55.3693579 C59.453289,55.3693579 64.7609251,60.676994 64.7609251,67.1641048 L64.7609251,98.1253153 C64.7609251,104.612426 59.453289,109.920062 52.9661782,109.920062" id="Fill-4174" stroke="none" fill="#4176AF" fill-rule="evenodd"></path><path d="M43.8274118,62.0067534 C43.6986525,62.0067534 43.5708761,62.0057705 43.4391681,62.0038047 L43.4568602,61.0209092 C43.5797221,61.0228749 43.703567,61.0238578 43.8244631,61.0238578 C56.9942809,61.0238578 60.6319774,48.485059 60.6673616,48.3572826 L61.6138901,48.6206986 C61.57654,48.7563382 57.7314525,62.0067534 43.8274118,62.0067534" id="Fill-4177" stroke="none" fill="#FFFFFF" fill-rule="evenodd"></path><path d="M44.749761,63.7316369 L41.1435172,63.7316369 C39.9227609,63.7316369 38.924139,62.733015 38.924139,61.5122587 C38.924139,60.2915024 39.9227609,59.2928805 41.1435172,59.2928805 L44.749761,59.2928805 C45.9705173,59.2928805 46.9691392,60.2915024 46.9691392,61.5122587 C46.9691392,62.733015 45.9705173,63.7316369 44.749761,63.7316369" id="Fill-4179" stroke="none" fill="#FFFFFF" fill-rule="evenodd"></path></g></g></g><g id="Azure-Hex-Border" stroke="#0078D4" stroke-width="4"><path d="M45.5620172,3.25834249 L6.67338401,26.8942953 C3.79673288,28.6432593 2,31.9508238 2,35.5582677 L2,82.4417323 C2,86.0486597 3.79764663,89.3586805 6.67318764,91.1055853 L45.560618,114.742485 C46.9289662,115.572418 48.4546283,116 50,116 C51.5458817,116 53.0723633,115.572188 54.4362178,114.743457 L93.3268764,91.1055464 C96.2016145,89.3583456 98,86.0476286 98,82.4417323 L98,35.5582677 C98,31.9518547 96.202529,28.6435953 93.3268966,26.8944659 L54.4351916,3.25759524 C53.0721095,2.42798656 51.5462432,2 50,2 C48.4543284,2 46.9293388,2.42772325 45.5620146,3.25834407 Z M45.5620146,3.25834407 C45.5619597,3.25837737 45.5619049,3.25841067 45.5618501,3.25844398 L45.5621963,3.25823359 L45.5620172,3.25834249 Z"></path></g></g></g></g></svg>