<svg xmlns="http://www.w3.org/2000/svg" xmlns:xlink="http://www.w3.org/1999/xlink" viewBox="0 0 100 100" version="1.1"><!-- Generator: Sketch 52.4 (67378) - http://www.bohemiancoding.com/sketch --><title>Creating surveys with Microsoft Dynamics 365 Voice of the Customer/managing-and-driving-actions-from-surveys</title><desc>Created with Sketch.</desc><defs><rect id="path-1" x="0" y="0" width="96" height="96" rx="48"></rect><filter x="-3.5%" y="-6.1%" width="107.1%" height="112.1%" filterUnits="objectBoundingBox" id="filter-3"><feOffset dx="0" dy="2" in="SourceAlpha" result="shadowOffsetOuter1"></feOffset><feColorMatrix values="0 0 0 0 0   0 0 0 0 0   0 0 0 0 0  0 0 0 0.103685462 0" type="matrix" in="shadowOffsetOuter1" result="shadowMatrixOuter1"></feColorMatrix><feMerge><feMergeNode in="shadowMatrixOuter1"></feMergeNode><feMergeNode in="SourceGraphic"></feMergeNode></feMerge></filter></defs><g id="Badges" stroke="none" stroke-width="1" fill="none" fill-rule="evenodd"><g id="Creating-surveys-with-Microsoft-Dynamics-365-Voice-of-the-Customer" transform="translate(-50.000000, -660.000000)"><g id="Creating-surveys-with-Microsoft-Dynamics-365-Voice-of-the-Customer/managing-and-driving-actions-from-surveys" transform="translate(50.000000, 660.000000)"><g id="Mask" transform="translate(2.000000, 2.000000)"><mask id="mask-2" fill="white"><use xlink:href="#path-1"></use></mask><use id="BG" fill="#01B6C3" xlink:href="#path-1"></use><g id="Group-49" filter="url(#filter-3)" mask="url(#mask-2)"><g transform="translate(16.000000, 16.000000)"><g id="Group-41" transform="translate(16.000000, 5.500000)"><rect id="Rectangle" fill="#6E828F" x="0" y="0" width="90" height="3" rx="1.5"></rect><path d="M90,1.5 C90,2.32842712 89.1045695,3 88,3 L2,3 C0.8954305,3 1.42108547e-14,2.32842712 1.42108547e-14,1.5 C2.97939565,1.5 86.7041916,1.5 90,1.5 Z" id="Rectangle" fill="#546670"></path></g><g id="Group-47" transform="translate(41.462664, 5.000000)"><g id="Group-45" transform="translate(4.000000, 0.000000)"><path d="M2.61255656,2 L2.61255656,33.6279757" id="Line" stroke="#30404D" stroke-width="2" stroke-linecap="square"></path><path d="M4.61255656,2 C4.61255656,3.105 3.71655656,4 2.61255656,4 C1.50755656,4 0.612556559,3.105 0.612556559,2 C0.612556559,0.894 1.50755656,0 2.61255656,0 C3.71655656,0 4.61255656,0.894 4.61255656,2" id="Fill-670" fill="#ADBDC4"></path><path d="M4.61255656,2 C4.61255656,0.894 3.71655656,0 2.61255656,0 L2.61255656,4 C3.71655656,4 4.61255656,3.105 4.61255656,2" id="Fill-675" fill="#8BA6B1"></path></g><g id="Group-43" transform="translate(0.000000, 27.858376)"><path d="M10.8427258,11.1079757 C8.49872582,13.4579757 4.69972582,13.4579757 2.35672582,11.1079757 C0.013725821,8.7679757 0.013725821,4.9679757 2.35672582,2.6279757 C4.70072582,0.277975697 8.49972582,0.277975697 10.8427258,2.6279757 C13.1857258,4.9679757 13.1857258,8.7679757 10.8427258,11.1079757" id="Fill-831" fill="#F7CB64"></path><path d="M10.8427258,11.1079757 C13.1857258,8.7679757 13.1857258,4.9679757 10.8427258,2.6279757 L2.35672582,11.1079757 C4.69972582,13.4579757 8.49872582,13.4579757 10.8427258,11.1079757" id="Fill-832" fill="#EFB252"></path></g></g><g id="Group-47" transform="translate(0.057877, 5.000000)"><g id="Group-45" transform="translate(8.000000, 0.000000)"><path d="M26.6125566,2 L0.942123399,29" id="Line" stroke="#30404D" stroke-width="2" stroke-linecap="square"></path><path d="M28.6125566,2 C28.6125566,3.105 27.7165566,4 26.6125566,4 C25.5075566,4 24.6125566,3.105 24.6125566,2 C24.6125566,0.894 25.5075566,0 26.6125566,0 C27.7165566,0 28.6125566,0.894 28.6125566,2" id="Fill-670" fill="#ADBDC4"></path><path d="M28.6125566,2 C28.6125566,0.894 27.7165566,0 26.6125566,0 L26.6125566,4 C27.7165566,4 28.6125566,3.105 28.6125566,2" id="Fill-675" fill="#8BA6B1"></path></g><g id="Group-43" transform="translate(0.328397, 23.777036)"><path d="M10.8427258,11.1079757 C8.49872582,13.4579757 4.69972582,13.4579757 2.35672582,11.1079757 C0.013725821,8.7679757 0.013725821,4.9679757 2.35672582,2.6279757 C4.70072582,0.277975697 8.49972582,0.277975697 10.8427258,2.6279757 C13.1857258,4.9679757 13.1857258,8.7679757 10.8427258,11.1079757" id="Fill-831" fill="#F7CB64"></path><path d="M10.8427258,11.1079757 C13.1857258,8.7679757 13.1857258,4.9679757 10.8427258,2.6279757 L2.35672582,11.1079757 C4.69972582,13.4579757 8.49872582,13.4579757 10.8427258,11.1079757" id="Fill-832" fill="#EFB252"></path></g></g><g id="Group-47" transform="translate(54.462664, 5.000000)"><g id="Group-45" transform="translate(4.000000, 0.000000)"><path d="M2.61255656,2 L2.61255656,33.6279757" id="Line" stroke="#30404D" stroke-width="2" stroke-linecap="square"></path><path d="M4.61255656,2 C4.61255656,3.105 3.71655656,4 2.61255656,4 C1.50755656,4 0.612556559,3.105 0.612556559,2 C0.612556559,0.894 1.50755656,0 2.61255656,0 C3.71655656,0 4.61255656,0.894 4.61255656,2" id="Fill-670" fill="#ADBDC4"></path><path d="M4.61255656,2 C4.61255656,0.894 3.71655656,0 2.61255656,0 L2.61255656,4 C3.71655656,4 4.61255656,3.105 4.61255656,2" id="Fill-675" fill="#8BA6B1"></path></g><g id="Group-43" transform="translate(0.000000, 27.858376)"><path d="M10.8427258,11.1079757 C8.49872582,13.4579757 4.69972582,13.4579757 2.35672582,11.1079757 C0.013725821,8.7679757 0.013725821,4.9679757 2.35672582,2.6279757 C4.70072582,0.277975697 8.49972582,0.277975697 10.8427258,2.6279757 C13.1857258,4.9679757 13.1857258,8.7679757 10.8427258,11.1079757" id="Fill-831" fill="#F7CB64"></path><path d="M10.8427258,11.1079757 C13.1857258,8.7679757 13.1857258,4.9679757 10.8427258,2.6279757 L2.35672582,11.1079757 C4.69972582,13.4579757 8.49872582,13.4579757 10.8427258,11.1079757" id="Fill-832" fill="#EFB252"></path></g></g><g id="Group-47" transform="translate(67.462664, 5.000000)"><g id="Group-45" transform="translate(4.000000, 0.000000)"><path d="M2.61255656,2 L2.61255656,33.6279757" id="Line" stroke="#30404D" stroke-width="2" stroke-linecap="square"></path><path d="M4.61255656,2 C4.61255656,3.105 3.71655656,4 2.61255656,4 C1.50755656,4 0.612556559,3.105 0.612556559,2 C0.612556559,0.894 1.50755656,0 2.61255656,0 C3.71655656,0 4.61255656,0.894 4.61255656,2" id="Fill-670" fill="#ADBDC4"></path><path d="M4.61255656,2 C4.61255656,0.894 3.71655656,0 2.61255656,0 L2.61255656,4 C3.71655656,4 4.61255656,3.105 4.61255656,2" id="Fill-675" fill="#8BA6B1"></path></g><g id="Group-43" transform="translate(0.000000, 27.858376)"><path d="M10.8427258,11.1079757 C8.49872582,13.4579757 4.69972582,13.4579757 2.35672582,11.1079757 C0.013725821,8.7679757 0.013725821,4.9679757 2.35672582,2.6279757 C4.70072582,0.277975697 8.49972582,0.277975697 10.8427258,2.6279757 C13.1857258,4.9679757 13.1857258,8.7679757 10.8427258,11.1079757" id="Fill-831" fill="#F7CB64"></path><path d="M10.8427258,11.1079757 C13.1857258,8.7679757 13.1857258,4.9679757 10.8427258,2.6279757 L2.35672582,11.1079757 C4.69972582,13.4579757 8.49872582,13.4579757 10.8427258,11.1079757" id="Fill-832" fill="#EFB252"></path></g></g><g id="Group-47" transform="translate(80.462664, 5.000000)"><g id="Group-43" transform="translate(0.000000, 27.858376)" fill="#F7CB64"><path d="M10.8427258,11.1079757 C8.49872582,13.4579757 4.69972582,13.4579757 2.35672582,11.1079757 C0.013725821,8.7679757 0.013725821,4.9679757 2.35672582,2.6279757 C4.70072582,0.277975697 8.49972582,0.277975697 10.8427258,2.6279757 C13.1857258,4.9679757 13.1857258,8.7679757 10.8427258,11.1079757" id="Fill-831"></path></g></g><g id="Group-40" transform="translate(9.557877, 0.358376)"><path d="M12.5462475,57.8952711 L12.5462475,2.89527106 C12.5462475,1.78927106 11.6502475,0.895271059 10.5462475,0.895271059 C9.44224749,0.895271059 8.54624749,1.78927106 8.54624749,2.89527106 L8.54624749,57.8952711 C8.54624749,58.9982711 12.5462475,58.9982711 12.5462475,57.8952711" id="Fill-661" fill="#ADBDC4"></path><path d="M19.5462475,60.8952711 L18.7382475,60.8952711 C17.6992475,59.1042711 15.7622475,57.8952711 13.5462475,57.8952711 L7.54624749,57.8952711 C5.33124749,57.8952711 3.39724749,59.1042711 2.35724749,60.8952711 L1.54624749,60.8952711 C0.996247495,60.8952711 0.546247495,61.3442711 0.546247495,61.8952711 L0.546247495,63.8952711 C0.546247495,64.4442711 0.996247495,64.8952711 1.54624749,64.8952711 L19.5462475,64.8952711 C20.0962475,64.8952711 20.5462475,64.4442711 20.5462475,63.8952711 L20.5462475,61.8952711 C20.5462475,61.3442711 20.0962475,60.8952711 19.5462475,60.8952711" id="Fill-664" fill="#30404D"></path><path d="M10.5462475,2.79827106 L10.5462475,54.8952711 C10.5462475,55.4472711 10.0982475,55.8952711 9.54624749,55.8952711 L8.54624749,55.8952711 L8.54624749,57.8952711 L12.5462475,57.8952711 L12.5462475,2.89527106 C12.5462475,2.78027106 12.5362475,2.66827106 12.5182475,2.55927106 C12.3212475,1.39427106 10.5462475,1.61727106 10.5462475,2.79827106" id="Fill-671" fill="#8BA6B1"></path><path d="M18.7382475,60.8952711 C17.6992475,59.1042711 15.7622475,57.8952711 13.5462475,57.8952711 L10.5462475,57.8952711 L10.5462475,58.8952711 C10.5462475,59.4472711 10.0982475,59.8952711 9.54624749,59.8952711 L3.09924749,59.8952711 C2.82224749,60.2042711 2.56724749,60.5342711 2.35824749,60.8952711 L18.7382475,60.8952711" id="Fill-678" fill="#182A37"></path><path d="M10.5462475,62.8952711 C10.5462475,63.4472711 10.0982475,63.8952711 9.54624749,63.8952711 L0.546247495,63.8952711 C0.546247495,64.4452711 0.996247495,64.8952711 1.54624749,64.8952711 L19.5462475,64.8952711 C20.0962475,64.8952711 20.5462475,64.4452711 20.5462475,63.8952711 L20.5462475,61.8952711 L11.5462475,61.8952711 C10.9942475,61.8952711 10.5462475,62.3432711 10.5462475,62.8952711" id="Fill-679" fill="#182A37"></path></g></g></g></g><g id="Dynamic-Border" stroke="#1D8E96" stroke-width="4"><rect id="Azure-Border" x="2" y="2" width="96" height="96" rx="48"></rect></g></g></g></g></svg>