<svg xmlns="http://www.w3.org/2000/svg" xmlns:xlink="http://www.w3.org/1999/xlink" viewBox="0 0 100 100"><defs><rect id="a" x="0" y="0" width="96" height="96" rx="48"/><filter x="-1%" y="-1.3%" width="102.1%" height="105.3%" filterUnits="objectBoundingBox" id="b"><feOffset dy="2" in="SourceAlpha" result="shadowOffsetOuter1"/><feColorMatrix values="0 0 0 0 0 0 0 0 0 0 0 0 0 0 0 0 0 0 0.100628397 0" in="shadowOffsetOuter1" result="shadowMatrixOuter1"/><feMerge><feMergeNode in="shadowMatrixOuter1"/><feMergeNode in="SourceGraphic"/></feMerge></filter></defs><g fill="none" fill-rule="evenodd"><g transform="translate(2 2)"><mask id="c" fill="#fff"><use xlink:href="#a"/></mask><use fill="#C0DDF4" xlink:href="#a"/><g filter="url(#b)" mask="url(#c)"><path fill="#939393" d="M62.167 42.592v-.735l5.073 5.697v1.066l-5.22-5.66z"/><path fill="#DBDBDB" d="M61.248 43.437v-5.294l7.647 8.53-.295 6.175z"/><path fill="#E8E8E8" d="M61.248 38.143H93.01l5.587 8.53H68.895z"/><path d="M68.6 52.848h17.645s-4.999 7.058 2.942 13.528c7.94 6.47 9.41-19.704 9.41-19.704H68.895l-.295 6.176z" fill="#F7F8F9"/><path fill="#333" d="M32.34 33.051h29.966V8.754H32.34z"/><path d="M52.83 53.823l-3.86.091s-3.86 1.875-8.418 1.802c-4.559-.073 11.543-6.286 11.543-6.286l.734 4.393z" fill="#BC936F"/><path d="M52.83 53.823s2.059-.497 2.113-2.22c.037-1.16-.885-1.95-1.49-2.342a1.28 1.28 0 0 0-1.125-.123c-.826.293-2.148 1.068-1.723 2.962 0 0 .184 1.812 2.224 1.723m-8.675 1.525s-4.19 0-3.382 2.904c.809 2.904 5.036 1.985 5.036 1.985l4.301-.037s2.757-.993 2.941-2.352c.184-1.36-.845-3.162-.845-3.162s-1.692-1.47-4.485-.331c-2.794 1.14-3.566.993-3.566.993" fill="#CEA278"/><path d="M39.081 62.774s-.368 2.426 3.823 2.315c4.19-.11 5.22.92 5.22.92s3.199-.148 3.86-1.765c.662-1.618-.33-3.272-.33-3.272s-1.25-.993-4.081-.477c-2.83.514-6.139.33-6.139.33s-2.426-.074-2.353 1.949" fill="#CEA278"/><path d="M62.13 42.923s-8.675.22-12.793 3.308l.662.662 1.047-.056s2.63 1.232.424 2.703l1.103 2.353s9.19-3.97 14.557-3.677l-5-5.293z" fill="#D65D54"/><path d="M43.897 67.626l4.723-1.323-2.316-7.996-2.04-6.341-6.947 2.316-17.683 9.888-15.66 2.647 7.94 15.587 13.308-3.75s6.985 0 11.102-2.426c4.118-2.426 11.837-4.043 11.837-4.043s5.588-3.015 3.53-5.147" fill="#CEA278"/><path d="M52.974 50.079l-2.179-3.952.394-.212c4.086-2.192 11.14-2.432 11.42-2.44l.624.661c-.064.002-7.29.447-11.23 2.355l1.348 2.443c1.47-.638 6.656-2.71 12.271-2.299l.662.736c-6.208-.466-12.873 2.5-12.935 2.53l-.375.178z" fill="#FCDC56"/><path d="M51.397 46.304l-3.678 1.544-4.337.589s-2.06 1.249-7.132 3.16c-5.073 1.913-17.497 11.397-17.497 11.397L6.622 66.228l.721.019 12.292-2.077 17.682-9.888 7.499-.662.14.159c3.128-1.682 7.116-4.032 7.47-5.269.587-2.058-1.03-2.206-1.03-2.206m.699 21.396s-.479-2.5-2.17-3.42c-1.69-.918-2.132.662-1.948 2.096 0 0 .147 2.17 1.36 3.345" fill="#CEA278"/><path d="M41.394 13.251l.43.517-1.034 6.545-.947.775-.689-.775.837-5.967 1.403-1.095zm-1.636 8.341l.774.861-1.12 6.742-.516.32-1.01-1.219 1.022-5.942.85-.762zm16.422-8.341l.43.517-1.033 6.545-.947.775-.689-.775.836-5.967 1.403-1.095zm-8.77-.689h8.081l.505.505-1.44 1.13h-6.79l-.96-1.29.604-.345zm-.517 7.923h6.827l.738.812-.972.898H46.72l-.86-.935 1.033-.775zm-1.17 7.984l6.73.012.972 1.292-.69.43H44.74l-.43-.516 1.415-1.218zm-.036-6.963l.689.86-.899 5.93-1.426 1.132-.345-.517 1.12-6.803.86-.602z" fill="#94ED94"/></g></g><rect x="2" y="2" width="96" height="96" rx="48" stroke="#0078D4" stroke-width="4"/></g></svg>