<svg xmlns="http://www.w3.org/2000/svg" xmlns:xlink="http://www.w3.org/1999/xlink" viewBox="0 0 100 100"><defs><path d="M4.574 65.077S6.823 56.922 5.84 45.02c-.246-2.979-1.155-5.854-2.462-8.542C1.892 33.42 0 27.666 1.076 19.437c0 0 .957-15.898 14.225-18.29C21.055.112 26.017.003 30.186.82a18 18 0 0 1 8.633 4.335c4.23 3.838 6.63 7.364 7.203 10.577.402 2.257.525 4.375.369 6.355a18 18 0 0 0 1.598 8.956L50.5 36.49a1.377 1.377 0 0 1-1.25 1.954h-1.226a1 1 0 0 0-.996.915c-.325 3.778-1 6.659-2.028 8.642-.842 1.625-3.629 2.593-8.36 2.903a5 5 0 0 0-4.672 4.918c-.033 2.33-.17 5.503-.41 9.518" id="b"/><filter x="-2%" y="-1.5%" width="104%" height="106.1%" filterUnits="objectBoundingBox" id="a"><feOffset dy="2" in="SourceAlpha" result="shadowOffsetOuter1"/><feColorMatrix values="0 0 0 0 0 0 0 0 0 0 0 0 0 0 0 0 0 0 0.102383379 0" in="shadowOffsetOuter1"/></filter></defs><g fill="none" fill-rule="evenodd"><rect fill="#55A2FF" x="2" y="2" width="96" height="96" rx="48"/><g transform="translate(27 16)"><use fill="#000" filter="url(#a)" xlink:href="#b"/><use fill="#F9F9F9" xlink:href="#b"/></g><path d="M42.75 43.595c-.988-.242-1.85-.726-2.634-1.362-.162-.132-.294-.26-.551-.16-2.954 1.144-6.399-.308-7.608-3.77-.032-.09-.073-.177-.11-.267-.026-.09-.052-.182-.08-.272l-.064-.196c-.206-1.275-.223-2.54.225-3.775.812-2.243 2.442-3.671 4.595-4.564.276-.114.428-.26.525-.552.869-2.6 3.482-4.58 6.009-4.603.413-.004.575.08.57.548-.029 2.326-.014 4.651-.013 6.977.001 1.144.583 1.726 1.725 1.73.985.002 1.97-.003 2.955.002.525.002.66.14.663.657.004.55-.012 1.1.007 1.648.008.26-.06.387-.323.493-1.105.448-1.711 1.551-1.492 2.638.235 1.157 1.23 1.983 2.37 1.97 1.111-.014 2.105-.833 2.32-1.913.231-1.159-.366-2.242-1.522-2.71-.242-.097-.303-.223-.296-.462.016-.597.01-1.195.003-1.793-.01-.944-.629-1.58-1.575-1.596-1.017-.016-2.035-.002-3.053-.004-.623-.001-.716-.09-.716-.69-.002-2.471.004-4.942-.008-7.413-.001-.29.07-.478.326-.63 1.845-1.104 3.763-1.605 5.852-.73a.579.579 0 0 0 .463 0c2.355-.917 4.526-.48 6.567.896.16.107.31.208.526.208 2.747-.008 4.645 1.403 6.037 3.644.315.508.587 1.046.752 1.618.11.381.333.574.663.754 1.987 1.085 3.429 2.617 3.883 4.915.646 3.267-1.679 6.653-4.901 7.15a4.57 4.57 0 0 1-2.24-.23c-.224-.079-.36-.06-.532.132-1.346 1.499-3.043 2.237-5.052 2.27l-.047-.18c.005-1.793.023-3.586.006-5.377-.003-.405.066-.556.518-.542 1.242.037 2.487.02 3.73.01.896-.007 1.547-.619 1.564-1.5.007-.323.093-.46.402-.587a2.364 2.364 0 0 0 1.352-2.917c-.362-1.15-1.548-1.845-2.744-1.609-.995.197-1.784 1.037-1.894 2.015-.125 1.116.43 2.121 1.467 2.52.375.144.413.355.333.658-.08.304-.326.357-.61.355-1.21-.007-2.422-.016-3.632.006-.366.006-.49-.072-.487-.468.021-2.358.013-4.716.01-7.073-.002-1.03-.63-1.666-1.65-1.676-.597-.005-1.195-.013-1.793.005-.275.01-.413-.065-.525-.343-.447-1.115-1.58-1.716-2.692-1.473a2.39 2.39 0 0 0-1.9 2.37 2.398 2.398 0 0 0 1.91 2.316 2.368 2.368 0 0 0 2.67-1.44c.117-.293.25-.387.555-.374.548.027 1.098.005 1.647.009.574.003.707.137.707.716 0 4.796 0 9.591-.002 14.387a.11.11 0 0 0-.077.02c-.031-.01-.064-.016-.092-.03-.51-.284-.947-.222-1.442.126-.748.528-1.66.67-2.54.861-1.408.095-2.804.066-4.158-.395-.552-.188-1.081-.423-1.555-.765-.181-.132-.336-.192-.57-.117-.513.161-1.05.153-1.582.147-.012-.208-.032-.418-.032-.627-.002-1.986.005-3.973-.004-5.96-.005-1.052-.62-1.673-1.642-1.68-.403-.004-.81-.031-1.21.006-.407.037-.612-.08-.782-.484-.425-1.008-1.532-1.551-2.586-1.348-1.055.203-1.855 1.103-1.948 2.193-.087 1.023.6 2.066 1.592 2.413 1.03.361 2.281.038 2.74-.937.367-.777.863-.842 1.542-.78.24.023.485-.004.727.008.303.016.482.177.481.491-.006 2.163-.015 4.328-.023 6.492" fill="#55A2FF"/><path d="M49.483 39.73a1.397 1.397 0 0 1-1.385-1.39 1.4 1.4 0 0 1 1.394-1.385 1.384 1.384 0 0 1 1.4 1.417 1.38 1.38 0 0 1-1.41 1.359M49.42 28.312a1.395 1.395 0 0 1 1.38-1.393 1.404 1.404 0 0 1 1.396 1.429 1.398 1.398 0 0 1-1.409 1.366 1.39 1.39 0 0 1-1.367-1.402M62.277 35.172a1.388 1.388 0 0 1-1.406-1.362 1.39 1.39 0 0 1 1.41-1.407c.762.006 1.385.629 1.384 1.386 0 .759-.623 1.379-1.388 1.383M39.465 36.072c0 .768-.613 1.387-1.375 1.392a1.395 1.395 0 0 1-1.393-1.376 1.395 1.395 0 0 1 1.402-1.417c.762.01 1.368.63 1.366 1.4" fill="#55A2FF"/><g stroke="#0078D4" stroke-width="4"><rect x="2" y="2" width="96" height="96" rx="48"/></g></g></svg>