<svg xmlns="http://www.w3.org/2000/svg" viewBox="0 0 100 118"><defs><filter x="-2%" y="-1.3%" width="103.9%" height="105.2%" filterUnits="objectBoundingBox" id="a"><feOffset dy="2" in="SourceAlpha" result="shadowOffsetOuter1"/><feColorMatrix values="0 0 0 0 0 0 0 0 0 0 0 0 0 0 0 0 0 0 0.100232111 0" in="shadowOffsetOuter1" result="shadowMatrixOuter1"/><feMerge><feMergeNode in="shadowMatrixOuter1"/><feMergeNode in="SourceGraphic"/></feMerge></filter></defs><g fill="none" fill-rule="evenodd"><path d="M44.742 3.497A10.056 10.056 0 0 1 50 2c1.813 0 3.627.499 5.256 1.497l37.335 22.835C95.933 28.377 98 32.203 98 36.352v45.295c0 4.148-2.067 7.977-5.409 10.021l-37.335 22.837A10.056 10.056 0 0 1 50 116c-1.813 0-3.626-.499-5.258-1.495L7.41 91.668C4.066 89.624 2 85.795 2 81.648V36.352c0-4.15 2.066-7.976 5.409-10.021L44.743 3.497z" fill="#55A2FF"/><path d="M83.448 60.906H66.552a5.437 5.437 0 0 1-5.43-5.43c0-2.33 1.49-4.378 3.673-5.123a9.635 9.635 0 0 1 9.602-8.756c4.88 0 8.984 3.68 9.572 8.472a5.438 5.438 0 0 1 4.91 5.406 5.437 5.437 0 0 1-5.431 5.43z" fill="#FFF" fill-rule="nonzero" opacity=".9"/><g filter="url(#a)" transform="translate(24 15)"><path d="M45.164 18.95a.999.999 0 0 0-1.41.11L28.733 36.585l4.743-16.601a1 1 0 0 0-.688-1.236 1.007 1.007 0 0 0-1.236.688L26.514 37.07l-5.038-17.634a1.007 1.007 0 0 0-1.236-.688 1 1 0 0 0-.688 1.236l4.743 16.6L9.274 19.06a.997.997 0 0 0-1.41-.11.999.999 0 0 0-.11 1.41l15.729 18.35h6.062l15.729-18.35a.998.998 0 0 0-.11-1.41" fill="#E1E4E1"/><path d="M6.514 20.71c0-11.046 8.954-20 20-20 11.05 0 20 8.954 20 20h-40" fill="#4D84CD"/><path d="M14.514 20.71c0-11.046 5.372-20 12-20s12 8.954 12 20h-24" fill="#9EE5F9"/><path d="M22.514 20.71c0-11.046 1.79-20 4-20 2.209 0 4 8.954 4 20h-8" fill="#4D84CD"/><path d="M26.514.71h-.052c-1.285.004-1.7 1.755-.565 2.359 6.314 3.357 10.617 9.989 10.617 17.64h10c0-11.045-8.95-20-20-20" fill="#3B68A3"/><path d="M26.514.71c-.033 0-.065.008-.098.008-1.245.049-1.638 1.755-.52 2.35 6.315 3.358 10.618 9.99 10.618 17.642h2c0-11.046-5.372-20-12-20" fill="#7DB7C7"/><path d="M25.268 1.713c-.103.5.078 1.063.629 1.356a20.049 20.049 0 0 1 3.123 2.064C28.334 2.37 27.463.71 26.514.71c-.435 0-.854.359-1.246 1.003" fill="#3B68A3"/><path fill="#C5CCCD" d="M20.33 22.71h2.08l-.57-2h-2.081l.572 2m12.938-2h-2.081l-.571 2h2.08l.572-2m-23.501 2h2.635l-1.715-2H8.054l1.714 2m35.206-2h-2.63l-1.72 2h2.63l1.72-2"/><path d="M3.577 74.001c-1.65-.057-2.955-1.392-2.9-2.967l1.15-32.915c.054-1.574 1.45-2.815 3.1-2.758l42.005 1.467c1.65.058 2.955 1.393 2.9 2.967l-1.15 32.916c-.054 1.574-1.45 2.815-3.1 2.757L3.577 74.001" fill="#30404D"/><path d="M4.402 71.881c-.825-.029-1.477-.696-1.45-1.484l.95-27.19c.027-.788.725-1.408 1.55-1.38l40.505 1.415c.825.029 1.477.696 1.45 1.484l-.95 27.19c-.027.788-.725 1.408-1.55 1.38L4.402 71.88" fill="#E1E4E1"/><path d="M4.814 38.581c.02-.593.542-1.055 1.163-1.034.622.022 1.108.52 1.087 1.113-.02.592-.54 1.056-1.162 1.034-.621-.022-1.109-.52-1.088-1.113" fill="#DF5142"/><path d="M9.315 38.739c.02-.594.541-1.056 1.162-1.035.622.022 1.109.52 1.088 1.113-.02.593-.54 1.056-1.163 1.034-.62-.022-1.108-.52-1.087-1.112" fill="#EFB252"/><path d="M13.815 38.896c.02-.594.542-1.056 1.163-1.034.622.021 1.108.52 1.087 1.112-.02.593-.54 1.056-1.162 1.034-.621-.021-1.108-.52-1.088-1.112" fill="#7CB65A"/><path d="M46.407 41.108l-25.503-.89c-.622-.022-1.109-.52-1.088-1.113.02-.592.54-1.056 1.163-1.034l25.503.89c.621.022 1.108.52 1.087 1.113-.02.593-.54 1.056-1.162 1.034" fill="#697D85"/><path d="M20.729 55.973c-.014.394-.363.704-.775.69l-12.002-.42c-.412-.014-.738-.348-.725-.741l.325-9.303c.014-.393.363-.703.775-.689l12.002.42c.412.014.738.347.725.741l-.325 9.302m22.052-7.827l-18.752-.655c-.415-.014-.739-.346-.725-.741.014-.396.36-.704.775-.69l18.752.655c.415.015.74.346.725.742-.013.395-.36.704-.775.69m-.15 4.293l-18.752-.655c-.415-.015-.739-.346-.725-.742.014-.396.36-.704.775-.69l18.752.655c.415.015.74.346.726.742-.014.396-.36.704-.776.69m-.149 4.293l-18.753-.655c-.415-.014-.739-.346-.725-.742.014-.395.36-.704.775-.69l18.753.656c.414.014.738.346.725.741-.014.396-.36.704-.775.69m-.15 4.293L7.827 59.821c-.414-.014-.738-.346-.725-.741.014-.396.36-.704.775-.69l34.505 1.205c.414.015.739.346.725.742-.014.396-.36.704-.775.69m-.15 4.293L7.678 64.115c-.415-.015-.74-.346-.726-.742.014-.396.36-.704.775-.69l34.505 1.205c.414.015.739.346.725.742-.014.396-.36.704-.775.69m-.15 4.293L7.528 68.408c-.415-.015-.74-.346-.726-.742.014-.395.36-.704.776-.69l34.504 1.206c.415.014.739.346.725.742-.014.395-.36.703-.775.689" fill="#C5CCCD"/></g><path d="M24.345 87.127h-8.904c-3 0-5.441-2.44-5.441-5.44a5.447 5.447 0 0 1 5.441-5.442c.276 0 .552.025.85.077a8.366 8.366 0 0 1 8.054-6.013c4.637 0 8.41 3.772 8.41 8.41 0 4.636-3.773 8.408-8.41 8.408z" fill="#FFF" fill-rule="nonzero"/><path d="M45.562 3.258L6.673 26.894C3.797 28.644 2 31.951 2 35.558v46.884c0 3.607 1.798 6.917 4.673 8.664l38.888 23.636A8.539 8.539 0 0 0 50 116a8.525 8.525 0 0 0 4.436-1.257l38.89-23.637C96.203 89.358 98 86.048 98 82.442V35.558c0-3.606-1.797-6.914-4.673-8.664L54.435 3.258A8.511 8.511 0 0 0 50 2c-1.546 0-3.07.428-4.438 1.258zm0 0s0 0 0 0h0z" stroke="#0078D4" stroke-width="4"/></g></svg>