<svg xmlns="http://www.w3.org/2000/svg" xmlns:xlink="http://www.w3.org/1999/xlink" viewBox="0 0 100 118"><defs><path d="M42.742 1.497A10.056 10.056 0 0 1 48 0c1.813 0 3.627.499 5.256 1.497l37.335 22.835C93.933 26.377 96 30.203 96 34.352v45.295c0 4.148-2.067 7.977-5.409 10.021l-37.335 22.837A10.056 10.056 0 0 1 48 114c-1.813 0-3.626-.499-5.258-1.495L5.41 89.668C2.066 87.624 0 83.795 0 79.648V34.352c0-4.15 2.066-7.976 5.409-10.021L42.743 1.497z" id="a"/><filter x="-2.8%" y="-2.4%" width="105.6%" height="109.5%" filterUnits="objectBoundingBox" id="b"><feOffset dy="2" in="SourceAlpha" result="shadowOffsetOuter1"/><feColorMatrix values="0 0 0 0 0 0 0 0 0 0 0 0 0 0 0 0 0 0 0.100996377 0" in="shadowOffsetOuter1" result="shadowMatrixOuter1"/><feMerge><feMergeNode in="shadowMatrixOuter1"/><feMergeNode in="SourceGraphic"/></feMerge></filter><filter x="-2.9%" y="-2.9%" width="105.7%" height="111.4%" filterUnits="objectBoundingBox" id="d"><feOffset dy="2" in="SourceAlpha" result="shadowOffsetOuter1"/><feColorMatrix values="0 0 0 0 0 0 0 0 0 0 0 0 0 0 0 0 0 0 0.204172328 0" in="shadowOffsetOuter1" result="shadowMatrixOuter1"/><feMerge><feMergeNode in="shadowMatrixOuter1"/><feMergeNode in="SourceGraphic"/></feMerge></filter></defs><g fill="none" fill-rule="evenodd"><g transform="translate(2 2)"><mask id="c" fill="#fff"><use xlink:href="#a"/></mask><use fill="#55A2FF" xlink:href="#a"/><g filter="url(#b)" mask="url(#c)"><path d="M47.977 56.706a2.001 2.001 0 0 1-1.669-.898c-.557-.843-3.33-5.185-3.33-7.92 0-2.858 2.242-5.182 5-5.182 2.756 0 5 2.324 5 5.182 0 2.735-2.776 7.077-3.332 7.92-.37.56-.997.898-1.669.898" fill="#DF5142"/><path d="M47.977 52.706c-.538 0-1.039-.338-1.335-.898-.446-.843-2.665-5.185-2.665-7.92 0-2.858 1.794-5.182 4-5.182 2.205 0 4 2.324 4 5.182 0 2.735-2.22 7.077-2.665 7.92-.296.56-.798.898-1.335.898" fill="#C2423D"/><path d="M32.525 44.942a2.214 2.214 0 0 1-2.208-2.208V17.348c0-1.214.994-2.207 2.208-2.207H63.43c1.214 0 2.207.993 2.207 2.207v25.386a2.214 2.214 0 0 1-2.207 2.208H32.525" fill="#30404D"/><path d="M40.045 44.5a2.002 2.002 0 0 0 1.933 1.486h12c.906 0 1.932-.61 1.932-1.485 0-.057-15.88-.057-15.865 0z" fill="#30404D"/><path d="M33.077 43.286a1.107 1.107 0 0 1-1.104-1.104v-20.97c0-.608.497-1.104 1.104-1.104h29.8c.608 0 1.105.496 1.105 1.103v20.971c0 .607-.497 1.104-1.104 1.104H33.077" fill="#E1E4E1"/><path d="M32.525 17.624a.828.828 0 1 1 1.655 0 .828.828 0 0 1-1.655 0" fill="#DF5142"/><path d="M35.836 17.624a.828.828 0 1 1 1.656 0 .828.828 0 0 1-1.656 0" fill="#EFB252"/><path d="M39.147 17.624a.828.828 0 1 1 1.656 0 .828.828 0 0 1-1.656 0" fill="#7CB65A"/><path d="M63.154 18.452H44.39a.828.828 0 1 1 0-1.656h18.764a.828.828 0 1 1 0 1.656" fill="#697D85"/></g><g mask="url(#c)"><path d="M-2 64.7a11.73 11.73 0 0 1 9.763-5.215c1.411-5.736 6.49-10.065 12.58-10.065 5.445 0 10.068 3.465 11.82 8.305a7.51 7.51 0 0 1 3.277-.756c4.17 0 7.549 3.38 7.549 7.548 0 .12-.013.234-.018.352a9.254 9.254 0 0 1 4.989 3.488 12.07 12.07 0 0 1 8.624-3.61c1.456-5.914 6.692-10.377 12.972-10.377 5.614 0 10.38 3.572 12.186 8.563a7.743 7.743 0 0 1 3.38-.78 7.782 7.782 0 0 1 7.783 7.783c0 .122-.013.24-.019.362A9.54 9.54 0 0 1 98 73.854v33.012H-2V64.7z" fill="#F3F3F3"/><path d="M62.234 72.598a7.772 7.772 0 0 0 .21-1.762 7.726 7.726 0 0 0-1.492-4.565 7.761 7.761 0 0 1 3.225 6.294c0 .123-.013.242-.018.363a9.594 9.594 0 0 0-1.925-.33zm16.1.797c-.621 0-1.222.08-1.8.216a12.87 12.87 0 0 0 3.533-8.864c0-2.92-.979-5.605-2.61-7.773 3.158 2.366 5.21 6.123 5.21 10.367 0 2.37-.647 4.584-1.76 6.496a7.786 7.786 0 0 0-2.574-.442zM43.02 64.869a9.305 9.305 0 0 0-1.867-.32c.128-.55.203-1.12.203-1.71 0-1.656-.54-3.182-1.447-4.427a7.527 7.527 0 0 1 3.128 6.105c0 .12-.012.234-.017.352zm-11.777 3.433a7.551 7.551 0 0 0-2.497-.43 7.56 7.56 0 0 0-1.746.21 12.483 12.483 0 0 0 3.427-8.597c0-2.831-.949-5.437-2.532-7.538C30.96 54.24 32.95 57.885 32.95 62c0 2.298-.628 4.446-1.706 6.3z" fill="#C5CCCD"/></g><g filter="url(#d)" mask="url(#c)"><path d="M58.97 101.404H36.205a1.084 1.084 0 0 1 0-2.168h22.767a1.084 1.084 0 0 1 0 2.168M45.961 81.348h3.253V77.01H45.96z" fill="#182A37"/><path fill="#182A37" d="M45.961 100.32h3.253V88.937H45.96z"/><path d="M62.765 68.338H32.41c-1.197 0-2.168.97-2.168 2.168v5.42c0 1.198.97 2.169 2.168 2.169h30.355a2.169 2.169 0 0 0 2.168-2.169v-5.42c0-1.198-.97-2.168-2.168-2.168" fill="#30404D"/><path d="M38.148 73.955a1.084 1.084 0 1 1 1.533-1.533 1.084 1.084 0 0 1-1.533 1.533m-3.248.01a1.085 1.085 0 1 1 1.535-1.533 1.085 1.085 0 0 1-1.535 1.533" fill="#EFB252"/><path d="M47.588 70.506v5.42c0 .6-.486 1.085-1.085 1.085h-15.96a2.158 2.158 0 0 0 1.867 1.084h30.355a2.169 2.169 0 0 0 2.168-2.169v-5.42c0-.397-.114-.764-.3-1.084H48.672c-.6 0-1.084.485-1.084 1.084" fill="#182A37"/><path d="M60.597 72.132h-6.505a1.084 1.084 0 0 0 0 2.169h6.505a1.085 1.085 0 0 0 0-2.169" fill="#7CB65A"/><path d="M54.092 72.674h6.505c.504 0 .925.347 1.045.814.023-.088.039-.177.039-.272 0-.598-.486-1.084-1.084-1.084h-6.505c-.598 0-1.084.486-1.084 1.084 0 .095.016.184.039.272.12-.467.541-.814 1.045-.814" fill="#69994E"/><path d="M39.278 73.553a1.082 1.082 0 0 1-1.301.17c.047.083.1.162.171.232a1.084 1.084 0 1 0 1.533-1.533 1.042 1.042 0 0 0-.231-.17 1.08 1.08 0 0 1-.172 1.3m-3.228-.009a1.082 1.082 0 0 1-1.302.171c.047.082.101.162.171.232a1.085 1.085 0 0 0 1.534-1.533 1.09 1.09 0 0 0-.232-.172c.235.414.182.949-.171 1.302" fill="#D8A34B"/><path d="M62.765 80.263H32.41a2.168 2.168 0 0 0-2.168 2.168v5.42c0 1.198.97 2.17 2.168 2.17h30.355a2.169 2.169 0 0 0 2.168-2.17v-5.42c0-1.198-.97-2.168-2.168-2.168" fill="#30404D"/><path d="M38.148 85.88a1.084 1.084 0 1 1 1.533-1.532 1.084 1.084 0 0 1-1.533 1.532m-3.248.01a1.085 1.085 0 1 1 1.535-1.533A1.085 1.085 0 0 1 34.9 85.89" fill="#EFB252"/><path d="M47.588 82.431v5.42c0 .6-.486 1.085-1.085 1.085h-15.96a2.158 2.158 0 0 0 1.867 1.084h30.355a2.169 2.169 0 0 0 2.168-2.169v-5.42c0-.397-.114-.764-.3-1.084H48.672c-.6 0-1.084.485-1.084 1.084" fill="#182A37"/><path d="M60.597 84.058h-6.505a1.084 1.084 0 0 0 0 2.168h6.505a1.085 1.085 0 0 0 0-2.168" fill="#7CB65A"/><path d="M54.092 84.6h6.505c.504 0 .925.346 1.045.813.023-.088.039-.177.039-.271 0-.599-.486-1.084-1.084-1.084h-6.505c-.598 0-1.084.485-1.084 1.084 0 .094.016.183.039.27a1.08 1.08 0 0 1 1.045-.812" fill="#69994E"/><path d="M39.278 85.478a1.082 1.082 0 0 1-1.301.171c.047.082.1.162.171.231a1.084 1.084 0 1 0 1.533-1.532 1.084 1.084 0 0 0-.231-.172c.235.414.181.949-.172 1.302m-3.228-.01a1.082 1.082 0 0 1-1.302.171c.047.083.101.162.171.232a1.085 1.085 0 0 0 1.534-1.533c-.07-.07-.15-.124-.232-.172.235.414.182.95-.171 1.302" fill="#D8A34B"/><path d="M45.961 78.095v.542h1.084c.3 0 .543.243.543.542v1.084h1.626v-2.168H45.96m.001 11.925v.542h1.084c.3 0 .543.243.543.542v6.505h1.626V90.02H45.96m-10.84 10.3c0 .598.486 1.084 1.084 1.084h22.767c.598 0 1.084-.486 1.084-1.084H35.12" fill="#12202B"/><path d="M51.924 102.488a.544.544 0 0 1-.542.542h-7.589a.544.544 0 0 1-.542-.542V98.15c0-.298.244-.542.542-.542h7.589c.298 0 .542.244.542.542v4.337" fill="#30404D"/><path d="M51.382 97.61h-3.794v3.251c0 .6-.486 1.084-1.085 1.084h-3.252v.543c0 .298.244.542.542.542h7.589a.544.544 0 0 0 .542-.542V98.15a.544.544 0 0 0-.542-.542" fill="#182A37"/></g><g mask="url(#c)"><path d="M-2 99.105a8.968 8.968 0 0 1 10.007-1.48c2.088-5.77 7.6-9.902 14.092-9.902 7.262 0 13.317 5.161 14.701 12.015.1-.002.198-.015.3-.015a13.96 13.96 0 0 1 9.973 4.175 10.7 10.7 0 0 1 5.768-4.034c-.006-.136-.02-.269-.02-.406a8.728 8.728 0 0 1 8.729-8.73c1.36 0 2.642.32 3.79.876C67.365 86.007 72.71 82 79.007 82c7.044 0 12.916 5.006 14.259 11.653 1.846-.014 3.341.247 4.734.73v19.666H-2V99.105z" fill="#FFF"/><path d="M28.598 106.668a9.02 9.02 0 0 1 3.455-5.104 8.95 8.95 0 0 0-1.719 5.104h-1.736zm-21.088 0a14.857 14.857 0 0 1-.51-3.866c0-4.908 2.368-9.252 6.012-11.988A14.909 14.909 0 0 0 10 99.802c0 2.478.605 4.811 1.673 6.866H7.51zm45.232-6.725c-.006-.136-.02-.269-.02-.406a8.71 8.71 0 0 1 3.608-7.06 8.679 8.679 0 0 0-1.669 5.12c0 .68.087 1.34.234 1.976-.742.052-1.46.176-2.153.37zm13.587 3.97a14.467 14.467 0 0 1-1.97-7.286c0-4.76 2.298-8.973 5.832-11.627a14.46 14.46 0 0 0-2.921 8.717 14.45 14.45 0 0 0 3.954 9.941 8.73 8.73 0 0 0-2.015-.242c-1.01 0-1.977.18-2.88.497z" fill="#C5CCCD"/></g></g><path d="M45.562 3.258L6.673 26.894C3.797 28.644 2 31.951 2 35.558v46.884c0 3.607 1.798 6.917 4.673 8.664l38.888 23.636A8.539 8.539 0 0 0 50 116a8.525 8.525 0 0 0 4.436-1.257l38.89-23.637C96.203 89.358 98 86.048 98 82.442V35.558c0-3.606-1.797-6.914-4.673-8.664L54.435 3.258A8.511 8.511 0 0 0 50 2c-1.546 0-3.07.428-4.438 1.258zm0 0s0 0 0 0h0z" stroke="#0078D4" stroke-width="4"/></g></svg>