<svg xmlns="http://www.w3.org/2000/svg" xmlns:xlink="http://www.w3.org/1999/xlink" viewBox="0 0 100 100"><defs><rect id="a" x="0" y="0" width="96" height="96" rx="48"/><filter x="-1.8%" y="-1.3%" width="103.5%" height="105.1%" filterUnits="objectBoundingBox" id="b"><feOffset dy="2" in="SourceAlpha" result="shadowOffsetOuter1"/><feColorMatrix values="0 0 0 0 0 0 0 0 0 0 0 0 0 0 0 0 0 0 0.10399683 0" in="shadowOffsetOuter1" result="shadowMatrixOuter1"/><feMerge><feMergeNode in="shadowMatrixOuter1"/><feMergeNode in="SourceGraphic"/></feMerge></filter></defs><g fill="none" fill-rule="evenodd"><g transform="translate(2 2)"><mask id="c" fill="#fff"><use xlink:href="#a"/></mask><use fill="#55A2FF" xlink:href="#a"/><g filter="url(#b)" mask="url(#c)"><g transform="translate(13 18)"><path d="M19.292 19.723l9.231-5.792 19.823-9.646s4.677-2.847 5.792-1.116c0 0 3.962 2.746-4.061 9.654C42.054 19.731 38.9 22.57 38.9 22.57l9.754-5.877s4.677-5.077 6.923-3.454c2.246 1.624.408 4.777.408 4.777a77.638 77.638 0 0 1-8.462 8.939c-5.585 5.184-5.185 7.315-5.185 7.315l7.216-6.6s3.654-3.077 4.877-1.623c.714.965.904 2.221.507 3.354a15.223 15.223 0 0 1-5.284 5.892c-3.454 2.031-12.8 15.039-12.8 15.039s-2.746 3.254-4.677 3.554c-1.93.3-20-4.47-20-4.47l7.115-29.692z" fill="#F7C49C" fill-rule="nonzero"/><path d="M12.177 49.192L10.83 31.985l2.692-14.231L16.985 9.1s.677-4.323 1.638-4.615c.962-.293 1.923 1.153 1.923 1.153s3.27 2.885-.384 14.616l1.638 9.808 1.154 10.1s-3.177 11.723-10.777 9.03z" fill="#FED6B5" fill-rule="nonzero"/><path fill="#FDB82C" d="M9.423 47.977l25.446 4.93-1.184 6.224-25.739-5.362z"/><rect fill="#DBDBDB" fill-rule="nonzero" x="20.4" y=".5" width="31.154" height="52.708" rx="2.062"/><path fill="#FFF" fill-rule="nonzero" d="M23.208 4.708h25.6v46.177h-25.6z"/><circle fill="#A5A4A4" fill-rule="nonzero" cx="35.977" cy="2.615" r="1.154"/><path d="M36.63 9.323h-4.422a7.43 7.43 0 0 0-4.131 13.639l-2.308 3.215 5.7-2.462-.315-.93a6.615 6.615 0 0 1 5.915-3.7H41c.869 0 1.73.172 2.53.507a7.37 7.37 0 0 0 .562-2.823 7.47 7.47 0 0 0-7.461-7.446z" fill="#EAE9E8" fill-rule="nonzero"/><path d="M43.515 19.592a7.47 7.47 0 0 1-6.884 4.616h-4.423a7.392 7.392 0 0 1-1.539-.162 6.538 6.538 0 0 0-.215 1.646 6.63 6.63 0 0 0 6.608 6.608h3.93a6.63 6.63 0 0 0 6.608-6.608 6.63 6.63 0 0 0-4.085-6.1z" fill="#DBDAD9" fill-rule="nonzero"/><path d="M36.63 24.208a7.47 7.47 0 0 0 6.885-4.616 6.546 6.546 0 0 0-2.53-.507h-3.923a6.63 6.63 0 0 0-6.393 4.961 7.392 7.392 0 0 0 1.539.162h4.423z" fill="#BAB9B9" fill-rule="nonzero"/><path d="M31.423 39.046V46.9a.954.954 0 0 1-.954.954h-3.884a.954.954 0 0 1-.954-.954v.608a.9.9 0 0 0 .907.961h9.308a.954.954 0 0 0 .954-.954V39.47l-5.377-.423z" fill="#192A36" fill-rule="nonzero"/><path d="M31.423 39.562v-.516l-5.792.208V46.9c0 .527.427.954.954.954h3.892a.954.954 0 0 0 .954-.954v-4.754a.77.77 0 0 1 .769-.77h3.57a.985.985 0 0 0 1.038-.953v-.861h-5.385z" fill="#30404C" fill-rule="nonzero"/><rect fill="#546670" fill-rule="nonzero" x="25.577" y="37.977" width="11.215" height="3.131" rx="1.565"/><path d="M34.546 36.254V39c.169.016.333.063.485.138v-2.984a4.046 4.046 0 0 0-5.154-3.7 4.03 4.03 0 0 1 4.67 3.8z" fill="#BABABA" fill-rule="nonzero"/><path d="M28.446 39.83v-.622.623zM27.954 37v-.262V37zm.008 2v-1.862c-.008.431 0 1.2 0 1.862z"/><path d="M27.954 36.692v3.155h.484v-3.254a2.64 2.64 0 0 1 1.839-2.516 2.638 2.638 0 0 0-2.323 2.615z" fill="#BABABA" fill-rule="nonzero"/><path d="M34.546 36.254a4.03 4.03 0 0 0-4.67-3.8 4.062 4.062 0 0 0-2.96 3.908v3.469h1.03v-3.139a2.638 2.638 0 0 1 2.308-2.615 2.63 2.63 0 0 1 3.43 2.377v2.692a1.43 1.43 0 0 1 .7-.146h.17v-2.746h-.008z" fill="#BABABA" fill-rule="nonzero"/><path d="M26.93 39.162a.485.485 0 0 0 0 .915v-.915zm1.516.668v.185a.462.462 0 0 0 0-.769v.623-.038z" fill="#273743" fill-rule="nonzero"/><path d="M27.97 39.83v.385c.174-.03.34-.098.484-.2v-.184h-.485z" fill="#BABABA" fill-rule="nonzero"/><path d="M27.97 40.223v-.385h-1.032v-.615.854c.22.121.466.182.716.177.106 0 .211-.01.315-.03z" fill="#BABABA" fill-rule="nonzero"/><path d="M33.708 39.146a.5.5 0 0 0 0 .946v-.946zm1.715.469a.592.592 0 0 0-.377-.492v.977a.592.592 0 0 0 .377-.485z" fill="#273743" fill-rule="nonzero"/><path d="M35.038 39.83v-.707a1.377 1.377 0 0 0-.484-.138v.846h.484z" fill="#BABABA" fill-rule="nonzero"/><path d="M34.562 39.83v.408c.168-.015.333-.062.484-.138v-.27h-.484zm0 0V39h-.177a1.43 1.43 0 0 0-.685.162v.692l.862-.023z" fill="#BABABA" fill-rule="nonzero"/><path d="M34.562 40.246v-.408h-.854v.254c.21.11.446.166.684.162l.17-.008z" fill="#BABABA" fill-rule="nonzero"/><circle fill="#0078D7" fill-rule="nonzero" cx="29.423" cy="16.769" r="1.685"/><circle fill="#0078D7" fill-rule="nonzero" cx="34.423" cy="16.769" r="1.685"/><circle fill="#0078D7" fill-rule="nonzero" cx="39.423" cy="16.769" r="1.685"/><circle fill="#0078D7" fill-rule="nonzero" cx="43.462" cy="25.692" r="1.492"/><circle fill="#0078D7" fill-rule="nonzero" cx="39.023" cy="25.692" r="1.492"/><circle fill="#0078D7" fill-rule="nonzero" cx="34.592" cy="25.692" r="1.492"/><path fill="#DBDAD9" fill-rule="nonzero" d="M44.092 30.43l2.554 3.616-6.354-2.561z"/><path d="M20.546 5.638s3.846 4.524-.384 14.616c-4.231 10.092.384-14.616.384-14.616z" fill="#FED6B5"/><path fill="#E5A128" d="M33.815 58.362L31.285 79H.9l7.177-26z"/></g></g></g><rect x="2" y="2" width="96" height="96" rx="48" stroke="#0078D4" stroke-width="4"/></g></svg>