<svg xmlns="http://www.w3.org/2000/svg" xmlns:xlink="http://www.w3.org/1999/xlink" viewBox="0 0 100 100" version="1.1"><!-- Generator: Sketch 51.3 (57544) - http://www.bohemiancoding.com/sketch --><title>create-an-azure-cosmos-db-application-with-vscode</title><desc>Created with Sketch.</desc><defs><filter x="-1.6%" y="-1.5%" width="103.2%" height="106.0%" filterUnits="objectBoundingBox" id="filter-1"><feOffset dx="0" dy="2" in="SourceAlpha" result="shadowOffsetOuter1"></feOffset><feColorMatrix values="0 0 0 0 0   0 0 0 0 0   0 0 0 0 0  0 0 0 0.09765625 0" type="matrix" in="shadowOffsetOuter1" result="shadowMatrixOuter1"></feColorMatrix><feMerge><feMergeNode in="shadowMatrixOuter1"></feMergeNode><feMergeNode in="SourceGraphic"></feMergeNode></feMerge></filter></defs><g id="Badges-FINAL" stroke="none" stroke-width="1" fill="none" fill-rule="evenodd"><g id="Working-with-NoSQL-data-in-Azure-Costmos-DB" transform="translate(-576.000000, -583.000000)"><g id="create-an-azure-cosmos-db-application-with-vscode" transform="translate(576.000000, 583.000000)"><rect id="BG" fill="#55A2FF" x="2" y="2" width="96" height="96" rx="48"></rect><g id="Icon" filter="url(#filter-1)" transform="translate(18.486478, 16.673489)"><polygon id="Path-4" fill="#044479" points="45.2825391 0.387659371 45.2825391 66.699328 61.7975035 59.9107686 61.7975035 6.97847431"></polygon><g id="world" transform="translate(5.916779, 7.326511)" fill-rule="nonzero"><path d="M24.4417453,3.4916779 C24.6413645,5.6872566 28.8644558,7.18744437 30.2612084,9.31114106 C32.1225521,12.1410994 31.4251011,15.1306042 33.7528863,15.1306042 C34.9846921,15.1306042 38.5254514,15.2128682 47.6360537,10.0282037 C42.7255325,3.91989727 35.1985923,0 26.7695305,0 C26.1698232,0 25.5765872,0.0269906701 24.9865401,0.0659927123 C24.6520141,0.91405144 24.3128093,2.07382389 24.4417453,3.4916779 Z" id="Shape" fill="#72C472"></path><path d="M12.802819,43.0640274 C14.1313791,40.8378965 15.240499,37.3513397 12.802819,33.7528863 C11.181726,31.3597485 8.14724843,28.9129669 8.14724843,26.7695305 C8.14724843,23.9208917 15.067882,22.8774037 17.4583895,19.7861748 C19.5717857,17.0532617 17.2663006,12.2114218 16.2280735,10.4720541 C15.1716664,8.70213424 12.729936,6.43295097 11.0646501,5.11057108 C4.36637813,9.98096127 0,17.8728982 0,26.7695305 C0,34.8051733 3.56399055,42.0196898 9.18852497,46.9307115 C10.5232654,45.7944613 12.2717347,43.9539281 12.802819,43.0640274 Z" id="Shape" fill="#72C472"></path><path d="M47.6360537,10.0282037 C38.5254514,15.2128682 34.9846921,15.1306042 33.7528863,15.1306042 C31.4251011,15.1306042 32.1225521,12.1410994 30.2612084,9.31114106 C28.8644558,7.18744437 24.6413645,5.6872566 24.4417453,3.4916779 C24.3128093,2.07382389 24.6520141,0.91405144 24.9865401,0.0659927123 C19.8074856,0.408607786 15.0281002,2.22867981 11.0646501,5.11057108 C12.729936,6.43295097 15.1716664,8.70213424 16.2280735,10.4720541 C17.2663006,12.2114218 19.5717857,17.0532617 17.4583895,19.7861748 C15.067882,22.8774037 8.14724843,23.9208917 8.14724843,26.7695305 C8.14724843,28.9129669 11.181726,31.3597485 12.802819,33.7528863 C15.240499,37.3513397 14.1313791,40.8378965 12.802819,43.0640274 C12.2717347,43.9539281 10.5232654,45.7944613 9.18852497,46.9307115 C13.8956676,51.0407074 20.0445356,53.5390611 26.7695305,53.5390611 C41.5301682,53.5390611 53.5390611,41.5301682 53.5390611,26.7695305 C53.5390611,20.4379546 51.3246506,14.6165012 47.6360537,10.0282037 Z M29.0973158,43.0640274 C25.6056379,40.7362421 29.6792621,37.6325013 26.8025618,28.8726263 C25.5992481,25.2083199 30.4502362,21.8892705 34.9498102,21.8892705 C39.4494541,21.8892705 43.0449861,25.0161612 43.0970587,28.8726263 C43.194104,36.0499099 33.3684293,45.911386 29.0973158,43.0640274 Z" id="Shape" fill="#BADEFC"></path><path d="M34.9498102,21.8892705 C30.4502362,21.8892705 25.5992481,25.2083199 26.8025618,28.8726263 C29.6792621,37.6325013 25.6056379,40.7362421 29.0973158,43.0640274 C33.3684293,45.911386 43.194104,36.0499099 43.0970587,28.8726263 C43.0449861,25.0161612 39.4494541,21.8892705 34.9498102,21.8892705 Z" id="Shape" fill="#72C472"></path></g><polygon id="Path-2" fill="#1A66A7" points="0.85925724 13.7499695 61.7491401 59.9108313 45.3137516 66.684585 0.85925724 23.0158563"></polygon><polygon id="Path-3" fill="#1574C4" points="0.85925724 44.1067652 0.85925724 53.572906 61.8257524 7.05124831 45.6684381 0.387659371"></polygon></g><g id="Azure-Border" stroke="#0078D4" stroke-width="4"><rect x="2" y="2" width="96" height="96" rx="48"></rect></g></g></g></g></svg>