<svg xmlns="http://www.w3.org/2000/svg" viewBox="0 0 100 100"><defs><filter x="-1.6%" y="-1.6%" width="103.1%" height="106.2%" filterUnits="objectBoundingBox" id="a"><feOffset dy="2" in="SourceAlpha" result="shadowOffsetOuter1"/><feColorMatrix values="0 0 0 0 0 0 0 0 0 0 0 0 0 0 0 0 0 0 0.102072011 0" in="shadowOffsetOuter1" result="shadowMatrixOuter1"/><feMerge><feMergeNode in="shadowMatrixOuter1"/><feMergeNode in="SourceGraphic"/></feMerge></filter></defs><g fill="none" fill-rule="evenodd"><rect fill="#F2C811" x="2" y="2" width="96" height="96" rx="48"/><path d="M20.852 49.09h-8.904c-3 0-5.44-2.441-5.44-5.441s2.44-5.441 5.44-5.441c.276 0 .553.024.85.077a8.366 8.366 0 0 1 8.054-6.013c4.637 0 8.41 3.772 8.41 8.409 0 4.637-3.773 8.409-8.41 8.409z" fill="#FFF" fill-rule="nonzero"/><path d="M82.56 32.103H65.664a5.437 5.437 0 0 1-5.43-5.43c0-2.33 1.49-4.378 3.673-5.123a9.635 9.635 0 0 1 9.601-8.756c4.882 0 8.985 3.68 9.572 8.473a5.438 5.438 0 0 1 4.91 5.405 5.437 5.437 0 0 1-5.43 5.431z" fill="#FFF" fill-rule="nonzero" opacity=".9"/><g filter="url(#a)" transform="translate(18 18)"><path d="M32 4C16.56 4 4 16.56 4 32c0 15.439 12.56 28 28 28 15.439 0 28-12.561 28-28C60 16.56 47.439 4 32 4" fill="#E1E4E1"/><path d="M59.821 28.799c-1.432-12.845-11.775-23.187-24.62-24.62C18.335 2.298 4 15.506 4 32c0 .335.014.667.025 1 .49-13.845 11.073-25.166 24.601-26.798A3.012 3.012 0 0 1 32 9.187v27.798a4.985 4.985 0 0 1-4.953-4.485c-.023.225-.052.448-.044.68a4.992 4.992 0 0 0 3.545 4.59c.854.259 1.452 1.024 1.452 1.916V60c16.494 0 29.702-14.335 27.821-31.201" fill="#C5CCCD"/><path d="M32 64c5.98 0 11.581-1.653 16.374-4.521l-6.356-10.757C41.458 47.775 40.1 47 39 47H24c-1.1 0-2.431.79-2.958 1.756L15.3 59.284A31.81 31.81 0 0 0 32 64" fill="#546670"/><path d="M56 32c0 6.62-2.69 12.62-7.04 16.96L42.6 42.6C45.32 39.88 47 36.141 47 32s-1.68-7.88-4.4-10.6l6.36-6.36A23.888 23.888 0 0 1 56 32" fill="#DF5142"/><path d="M48.96 15.04L42.6 21.4C39.88 18.68 36.14 17 32 17s-7.88 1.68-10.6 4.4l-6.36-6.36A23.884 23.884 0 0 1 32 8c6.62 0 12.62 2.689 16.96 7.04" fill="#F7CB64"/><path d="M17 32c0 4.141 1.68 7.88 4.4 10.6l-6.36 6.36A23.888 23.888 0 0 1 8 32c0-6.62 2.69-12.62 7.04-16.96l6.36 6.36A14.932 14.932 0 0 0 17 32" fill="#7CB65A"/><path d="M39 47h-7v17c5.98 0 11.581-1.653 16.374-4.521l-6.356-10.757C41.458 47.775 40.1 47 39 47" fill="#30404D"/><path d="M32 60C16.56 60 4 47.44 4 32S16.56 4 32 4s28 12.56 28 28-12.56 28-28 28zm0-60C14.355 0 0 14.355 0 32c0 17.644 14.355 32 32 32s32-14.356 32-32C64 14.355 49.645 0 32 0z" fill="#546670"/><path d="M42.6 21.4l6.36-6.36A23.888 23.888 0 0 0 32 8v9c4.14 0 7.88 1.68 10.6 4.4" fill="#EFB252"/><path d="M39 55c0 1.1-.9 2-2 2H26c-1.1 0-2-.9-2-2v-3c0-1.1.9-2 2-2h11c1.1 0 2 .9 2 2v3" fill="#30404D"/><path d="M37 50H26c-1.1 0-2 .9-2 2v1c0-1.1.9-2 2-2h11c1.1 0 2 .9 2 2v-1c0-1.1-.9-2-2-2" fill="#182A37"/></g><path d="M49.192 44.996a5.006 5.006 0 0 1 5.727 4.148 5.005 5.005 0 0 1-4.149 5.727 5.006 5.006 0 0 1-5.726-4.15 5.006 5.006 0 0 1 4.148-5.725z" fill="#546670"/><path d="M45.044 50.722c.06.381.172.74.312 1.085-4.848-2.207-13.618-6.316-13.424-7.092.186-.734 9.308.45 15.025 1.268-1.409 1.082-2.212 2.865-1.913 4.739z" fill="#182A37"/><path d="M75.717 82h-8.904c-3 0-5.441-2.44-5.441-5.441 0-3 2.44-5.441 5.44-5.441.276 0 .553.024.85.077a8.366 8.366 0 0 1 8.055-6.013c4.637 0 8.409 3.772 8.409 8.409 0 4.637-3.772 8.409-8.41 8.409z" fill="#FFF" fill-rule="nonzero"/><rect x="2" y="2" width="96" height="96" rx="48" stroke="#0078D4" stroke-width="4"/></g></svg>