<svg xmlns="http://www.w3.org/2000/svg" xmlns:xlink="http://www.w3.org/1999/xlink" viewBox="0 0 100 100"><defs><rect id="a" x="0" y="0" width="96" height="96" rx="48"/><filter x="-2.1%" y="-1.5%" width="104.2%" height="106.2%" filterUnits="objectBoundingBox" id="b"><feOffset dy="2" in="SourceAlpha" result="shadowOffsetOuter1"/><feColorMatrix values="0 0 0 0 0 0 0 0 0 0 0 0 0 0 0 0 0 0 0.0983355978 0" in="shadowOffsetOuter1" result="shadowMatrixOuter1"/><feMerge><feMergeNode in="shadowMatrixOuter1"/><feMergeNode in="SourceGraphic"/></feMerge></filter></defs><g fill="none" fill-rule="evenodd"><g transform="translate(2 2)"><mask id="c" fill="#fff"><use xlink:href="#a"/></mask><use fill="#C0DDF4" xlink:href="#a"/><g filter="url(#b)" mask="url(#c)"><path d="M69 70.5H51v-13h-6v13H27a2 2 0 0 0 0 4h42a2 2 0 0 0 0-4" fill="#182A37"/><path d="M56 34.5a1 1 0 0 1-1-1v-10a1 1 0 1 1 2 0v10a1 1 0 0 1-1 1" fill="#C5CCCD"/><path d="M44.999 33.5c-.45 0-.901-.15-1.274-.46C40.678 30.517 39 27.128 39 23.5c0-3.628 1.678-7.017 4.725-9.54a2 2 0 1 1 2.55 3.08C44.163 18.79 43 21.085 43 23.5c0 2.416 1.164 4.71 3.275 6.46a2 2 0 0 1-1.276 3.54" fill="#E1E4E1"/><path d="M49.999 29.5c-.45 0-.901-.15-1.274-.46C46.967 27.585 46 25.617 46 23.5s.967-4.085 2.725-5.54a1.998 1.998 0 0 1 2.815.265c.704.85.587 2.111-.265 2.815-.822.682-1.275 1.556-1.275 2.46 0 .904.453 1.778 1.275 2.46a1.998 1.998 0 0 1-1.276 3.54m16.002 3.999a2 2 0 0 1-1.276-3.54c2.112-1.75 3.275-4.045 3.275-6.46 0-2.416-1.164-4.71-3.275-6.46a2 2 0 1 1 2.55-3.08C70.322 16.482 72 19.871 72 23.499c0 3.628-1.678 7.017-4.725 9.54-.373.31-.824.46-1.274.46" fill="#E1E4E1"/><path d="M62.001 29.499a1.998 1.998 0 0 1-1.276-3.54c.822-.682 1.275-1.556 1.275-2.46 0-.904-.453-1.778-1.275-2.46a1.998 1.998 0 0 1-.265-2.815 1.998 1.998 0 0 1 2.815-.265C65.033 19.414 66 21.382 66 23.499s-.967 4.085-2.725 5.54c-.373.31-.824.46-1.274.46" fill="#E1E4E1"/><path fill="#546670" d="M24 53.5h48v-12H24z"/><path d="M24 53.5c0 2.2 1.801 3.999 4 3.999h40c2.199 0 4-1.799 4-3.999H24m48-12.001c0-2.2-1.801-3.999-4-3.999H28c-2.199 0-4 1.799-4 3.999h48" fill="#E1E4E1"/><path d="M28 47.5a2 2 0 1 1 4.001.001A2 2 0 0 1 28 47.5m6 0a2 2 0 1 1 4.001.001A2 2 0 0 1 34 47.5" fill="#EFB252"/><path d="M40 47.5a2 2 0 1 1 4.001.001A2 2 0 0 1 40 47.5" fill="#7CB65A"/><path d="M30.672 48.172a1.996 1.996 0 0 1-2.402.315c.087.152.187.298.316.428.78.78 2.048.78 2.829 0 .78-.781.78-2.048 0-2.829a2.022 2.022 0 0 0-.428-.316c.436.764.336 1.75-.315 2.402m6 0a1.996 1.996 0 0 1-2.402.315c.087.152.187.298.316.428.78.78 2.048.78 2.829 0 .78-.781.78-2.048 0-2.829a2.022 2.022 0 0 0-.428-.316c.436.764.336 1.75-.315 2.402" fill="#D8A34B"/><path d="M42.672 48.172a1.996 1.996 0 0 1-2.402.315c.087.152.187.298.316.428.78.78 2.048.78 2.829 0 .78-.781.78-2.048 0-2.829a2.022 2.022 0 0 0-.428-.316c.436.764.336 1.75-.315 2.402" fill="#69994E"/><path d="M45 57.5v1h2a1 1 0 0 1 1 1v8h3v-10h-6m-20 15a2 2 0 0 0 2 2h42a2 2 0 0 0 2-2v-.001H25v.001" fill="#12202B"/><path d="M56 76.5c0 .55-.45 1-1 1H41c-.55 0-1-.45-1-1v-8c0-.55.45-1 1-1h14c.55 0 1 .45 1 1v8" fill="#30404D"/><path d="M55 67.5h-7v5.999a2 2 0 0 1-2 2h-6V76.5c0 .55.45 1 1 1h14c.55 0 1-.45 1-1v-8c0-.55-.45-1-1-1" fill="#182A37"/><path fill="#30404D" d="M48 53.5h24v-12H48z"/><path d="M48 57.499h20c2.199 0 4-1.799 4-3.999H48v3.999m0-19.998h20c2.199 0 4 1.799 4 3.999H48v-3.999" fill="#C6D0D0"/><path d="M58 33.5c0-.366-.828-1.705-1-2h-2c-.172.295-1 1.634-1 2v4h4v-4" fill="#30404D"/><path d="M56 24.5v7h1v-8a1 1 0 0 0-1 1" fill="#AAB0B1"/><path d="M57.579 32.5H57a1 1 0 0 0-1 1v2a1 1 0 0 1-1 1h-1v1h4v-4c0-.179-.199-.591-.421-1" fill="#182A37"/><path d="M48 40.5H24.143a3.925 3.925 0 0 0-.143.999h24V40.5" fill="#C6D0D0"/><path d="M71.857 54.5a3.94 3.94 0 0 0 .143-1H48v1h23.857" fill="#E1E4E1"/></g></g><rect x="2" y="2" width="96" height="96" rx="48" stroke="#0078D4" stroke-width="4"/></g></svg>