<svg xmlns="http://www.w3.org/2000/svg" xmlns:xlink="http://www.w3.org/1999/xlink" viewBox="0 0 100 118" version="1.1"><!-- Generator: Sketch 51.3 (57544) - http://www.bohemiancoding.com/sketch --><title>deploy-a-website-to-azure-with-virtual-machine-hosting</title><desc>Created with Sketch.</desc><defs><filter x="-2.0%" y="-1.3%" width="103.9%" height="105.2%" filterUnits="objectBoundingBox" id="filter-1"><feOffset dx="0" dy="2" in="SourceAlpha" result="shadowOffsetOuter1"></feOffset><feColorMatrix values="0 0 0 0 0   0 0 0 0 0   0 0 0 0 0  0 0 0 0.100232111 0" type="matrix" in="shadowOffsetOuter1" result="shadowMatrixOuter1"></feColorMatrix><feMerge><feMergeNode in="shadowMatrixOuter1"></feMergeNode><feMergeNode in="SourceGraphic"></feMergeNode></feMerge></filter></defs><g id="Badges-FINAL" stroke="none" stroke-width="1" fill="none" fill-rule="evenodd"><g id="Deploy-a-website-to-Azure-with-Virtual-Machine-Hosting" transform="translate(-577.000000, -146.000000)"><g id="deploy-a-website-to-azure-with-virtual-machine-hosting" transform="translate(577.000000, 146.000000)"><path d="M44.7425,3.49663266 C46.3745,2.49887755 48.1865,2 50,2 C51.8135,2 53.627,2.49887755 55.256,3.49663266 L92.591,26.3316189 C95.933,28.3773408 98,32.2031485 98,36.3529027 L98,81.6470973 C98,85.7952317 95.933,89.6242789 92.591,91.6683811 L55.256,114.504987 C53.627,115.501122 51.8135,116 50,116 C48.1865,116 46.3745,115.501122 44.7425,114.504987 L7.409,91.6683811 C4.0655,89.6242789 2,85.7952317 2,81.6470973 L2,36.3529027 C2,32.2031485 4.0655,28.3773408 7.409,26.3316189 L44.7425,3.49663266 Z" id="Trophy-1" fill="#55A2FF"></path><path d="M83.4477158,60.9059035 L66.5522842,60.9059035 C63.5579309,60.9059035 61.1216097,58.4695823 61.1216097,55.4752291 C61.1216097,53.1452706 62.6112739,51.0978701 64.7950929,50.3527393 C65.2508894,45.4090938 69.3881281,41.5968387 74.3965917,41.5968387 C79.2777785,41.5968387 83.3814254,45.2762172 83.9686261,50.0693064 C86.7196127,50.3324105 88.8783903,52.6564737 88.8783903,55.4752291 C88.8783903,58.4695823 86.4420691,60.9059035 83.4477158,60.9059035 Z" id="Cloud" fill="#FFFFFF" fill-rule="nonzero" opacity="0.900000036"></path><g id="Parachute" filter="url(#filter-1)" transform="translate(24.000000, 15.000000)"><g transform="translate(6.513522, 0.709794)"><path d="M38.65,18.241 C38.23,17.882 37.6,17.929 37.24,18.35 L22.219,35.875 L26.962,19.274 C27.113,18.744 26.806,18.19 26.274,18.038 C25.749,17.893 25.19,18.193 25.038,18.726 L20,36.36 L14.962,18.726 C14.81,18.193 14.253,17.894 13.726,18.038 C13.194,18.19 12.887,18.744 13.038,19.274 L17.781,35.875 L2.76,18.35 C2.398,17.929 1.768,17.88 1.35,18.241 C0.93,18.601 0.881,19.231 1.24,19.65 L16.969,38 L23.031,38 L38.76,19.65 C39.12,19.231 39.07,18.601 38.65,18.241" id="Fill-1113" fill="#E1E4E1"></path><path d="M0,20 C0,8.954 8.954,0 20,0 C31.05,0 40,8.954 40,20 L0,20" id="Fill-1118" fill="#4D84CD"></path><path d="M8,20 C8,8.954 13.372,0 20,0 C26.628,0 32,8.954 32,20 L8,20" id="Fill-1119" fill="#9EE5F9"></path><path d="M16,20 C16,8.954 17.791,0 20,0 C22.209,0 24,8.954 24,20 L16,20" id="Fill-1120" fill="#4D84CD"></path><path d="M20,0 C19.983,0 19.965,0 19.948,0 C18.663,0.004 18.249,1.755 19.383,2.359 C25.697,5.716 30,12.348 30,20 L40,20 C40,8.954 31.05,0 20,0" id="Fill-1122" fill="#3B68A3"></path><path d="M20,0 C19.967,0 19.935,0.008 19.902,0.008 C18.657,0.057 18.264,1.763 19.383,2.359 C25.697,5.716 30,12.348 30,20 L32,20 C32,8.954 26.628,0 20,0" id="Fill-1123" fill="#7DB7C7"></path><path d="M18.754,1.003 C18.651,1.504 18.832,2.066 19.383,2.359 C20.491,2.948 21.534,3.644 22.506,4.423 C21.82,1.661 20.949,0 20,0 C19.565,0 19.146,0.359 18.754,1.003" id="Fill-1124" fill="#3B68A3"></path><polyline id="Fill-1125" fill="#C5CCCD" points="13.817 22 15.897 22 15.326 20 13.245 20 13.817 22"></polyline><polyline id="Fill-1126" fill="#C5CCCD" points="26.755 20 24.674 20 24.103 22 26.183 22 26.755 20"></polyline><polyline id="Fill-1127" fill="#C5CCCD" points="3.254 22 5.889 22 4.174 20 1.54 20 3.254 22"></polyline><polyline id="Fill-1128" fill="#C5CCCD" points="38.46 20 35.83 20 34.11 22 36.74 22 38.46 20"></polyline></g><g id="Monitor" transform="translate(25.513522, 55.831984) rotate(2.000000) translate(-25.513522, -55.831984) translate(1.222492, 36.092281)"><path d="M3.00219376,38.6636726 C1.35098719,38.6636726 0,37.3748836 0,35.7996969 L0,2.86397575 C0,1.28878909 1.35098719,0 3.00219376,0 L45.0329064,0 C46.684113,0 48.0351002,1.28878909 48.0351002,2.86397575 L48.0351002,35.7996969 C48.0351002,37.3748836 46.684113,38.6636726 45.0329064,38.6636726 L3.00219376,38.6636726" id="Fill-1465" fill="#30404D"></path><path d="M3.7527422,36.5156908 C2.92713892,36.5156908 2.25164532,35.8712963 2.25164532,35.083703 L2.25164532,7.87593332 C2.25164532,7.08833998 2.92713892,6.44394544 3.7527422,6.44394544 L44.282358,6.44394544 C45.1079613,6.44394544 45.7834549,7.08833998 45.7834549,7.87593332 L45.7834549,35.083703 C45.7834549,35.8712963 45.1079613,36.5156908 44.282358,36.5156908 L3.7527422,36.5156908" id="Fill-1466" fill="#E1E4E1"></path><path d="M3.00219376,3.22197272 C3.00219376,2.62841375 3.50656231,2.14798181 4.12801642,2.14798181 C4.75022108,2.14798181 5.25383908,2.62841375 5.25383908,3.22197272 C5.25383908,3.8148157 4.75022108,4.29596363 4.12801642,4.29596363 C3.50656231,4.29596363 3.00219376,3.8148157 3.00219376,3.22197272" id="Fill-1467" fill="#DF5142"></path><path d="M7.5054844,3.22197272 C7.5054844,2.62841375 8.00985295,2.14798181 8.63130706,2.14798181 C9.25351172,2.14798181 9.75712972,2.62841375 9.75712972,3.22197272 C9.75712972,3.8148157 9.25351172,4.29596363 8.63130706,4.29596363 C8.00985295,4.29596363 7.5054844,3.8148157 7.5054844,3.22197272" id="Fill-1468" fill="#EFB252"></path><path d="M12.008775,3.22197272 C12.008775,2.62841375 12.5131436,2.14798181 13.1345977,2.14798181 C13.7568024,2.14798181 14.2604204,2.62841375 14.2604204,3.22197272 C14.2604204,3.8148157 13.7568024,4.29596363 13.1345977,4.29596363 C12.5131436,4.29596363 12.008775,3.8148157 12.008775,3.22197272" id="Fill-1469" fill="#7CB65A"></path><path d="M44.6576322,4.29596363 L19.1389852,4.29596363 C18.5167806,4.29596363 18.0131626,3.8148157 18.0131626,3.22197272 C18.0131626,2.62912974 18.5167806,2.14798181 19.1389852,2.14798181 L44.6576322,2.14798181 C45.2798369,2.14798181 45.7834549,2.62912974 45.7834549,3.22197272 C45.7834549,3.8148157 45.2798369,4.29596363 44.6576322,4.29596363" id="Fill-1470" fill="#697D85"></path><path d="M19.5142594,20.0478303 C19.5142594,20.4416269 19.1765126,20.7638242 18.763711,20.7638242 L6.75493596,20.7638242 C6.34213432,20.7638242 6.00438752,20.4416269 6.00438752,20.0478303 L6.00438752,10.7399091 C6.00438752,10.3461124 6.34213432,10.0239151 6.75493596,10.0239151 L18.763711,10.0239151 C19.1765126,10.0239151 19.5142594,10.3461124 19.5142594,10.7399091 L19.5142594,20.0478303" id="Fill-1471" fill="#C5CCCD"></path><path d="M41.2801642,11.455903 L22.5164532,11.455903 C22.1013999,11.455903 21.7659048,11.1358537 21.7659048,10.7399091 C21.7659048,10.3439644 22.1013999,10.0239151 22.5164532,10.0239151 L41.2801642,10.0239151 C41.6952175,10.0239151 42.0307127,10.3439644 42.0307127,10.7399091 C42.0307127,11.1358537 41.6952175,11.455903 41.2801642,11.455903" id="Fill-1472" fill="#C5CCCD"></path><path d="M41.2801642,15.7518666 L22.5164532,15.7518666 C22.1013999,15.7518666 21.7659048,15.4318173 21.7659048,15.0358727 C21.7659048,14.639928 22.1013999,14.3198788 22.5164532,14.3198788 L41.2801642,14.3198788 C41.6952175,14.3198788 42.0307127,14.639928 42.0307127,15.0358727 C42.0307127,15.4318173 41.6952175,15.7518666 41.2801642,15.7518666" id="Fill-1473" fill="#C5CCCD"></path><path d="M41.2801642,20.0478303 L22.5164532,20.0478303 C22.1013999,20.0478303 21.7659048,19.727781 21.7659048,19.3318363 C21.7659048,18.9358917 22.1013999,18.6158424 22.5164532,18.6158424 L41.2801642,18.6158424 C41.6952175,18.6158424 42.0307127,18.9358917 42.0307127,19.3318363 C42.0307127,19.727781 41.6952175,20.0478303 41.2801642,20.0478303" id="Fill-1474" fill="#C5CCCD"></path><path d="M41.2801642,24.3437939 L6.75493596,24.3437939 C6.33988267,24.3437939 6.00438752,24.0237446 6.00438752,23.6277999 C6.00438752,23.2318553 6.33988267,22.911806 6.75493596,22.911806 L41.2801642,22.911806 C41.6952175,22.911806 42.0307127,23.2318553 42.0307127,23.6277999 C42.0307127,24.0237446 41.6952175,24.3437939 41.2801642,24.3437939" id="Fill-1475" fill="#C5CCCD"></path><path d="M41.2801642,28.6397575 L6.75493596,28.6397575 C6.33988267,28.6397575 6.00438752,28.3197082 6.00438752,27.9237636 C6.00438752,27.5278189 6.33988267,27.2077696 6.75493596,27.2077696 L41.2801642,27.2077696 C41.6952175,27.2077696 42.0307127,27.5278189 42.0307127,27.9237636 C42.0307127,28.3197082 41.6952175,28.6397575 41.2801642,28.6397575" id="Fill-1476" fill="#C5CCCD"></path><path d="M41.2801642,32.9357211 L6.75493596,32.9357211 C6.33988267,32.9357211 6.00438752,32.6156718 6.00438752,32.2197272 C6.00438752,31.8237826 6.33988267,31.5037333 6.75493596,31.5037333 L41.2801642,31.5037333 C41.6952175,31.5037333 42.0307127,31.8237826 42.0307127,32.2197272 C42.0307127,32.6156718 41.6952175,32.9357211 41.2801642,32.9357211" id="Fill-1477" fill="#C5CCCD"></path></g></g><path d="M24.3449567,87.1272899 L15.4411905,87.1272899 C12.4409032,87.1272899 10,84.6863866 10,81.6860994 C10,78.6858121 12.4409032,76.2449089 15.4411905,76.2449089 C15.7165345,76.2449089 15.9933278,76.2697851 16.2904119,76.3221986 C17.3425155,72.7579369 20.5881955,70.3090648 24.3449567,70.3090648 C28.9818502,70.3090648 32.7540692,74.0812838 32.7540692,78.7181773 C32.7540692,83.3550708 28.9818502,87.1272899 24.3449567,87.1272899 Z" id="Cloud" fill="#FFFFFF" fill-rule="nonzero"></path><g id="Azure-Hex-Border" stroke="#0078D4" stroke-width="4"><path d="M45.5620172,3.25834249 L6.67338401,26.8942953 C3.79673288,28.6432593 2,31.9508238 2,35.5582677 L2,82.4417323 C2,86.0486597 3.79764663,89.3586805 6.67318764,91.1055853 L45.560618,114.742485 C46.9289662,115.572418 48.4546283,116 50,116 C51.5458817,116 53.0723633,115.572188 54.4362178,114.743457 L93.3268764,91.1055464 C96.2016145,89.3583456 98,86.0476286 98,82.4417323 L98,35.5582677 C98,31.9518547 96.202529,28.6435953 93.3268966,26.8944659 L54.4351916,3.25759524 C53.0721095,2.42798656 51.5462432,2 50,2 C48.4543284,2 46.9293388,2.42772325 45.5620146,3.25834407 Z M45.5620146,3.25834407 C45.5619597,3.25837737 45.5619049,3.25841067 45.5618501,3.25844398 L45.5621963,3.25823359 L45.5620172,3.25834249 Z"></path></g></g></g></g></svg>