<svg xmlns="http://www.w3.org/2000/svg" xmlns:xlink="http://www.w3.org/1999/xlink" viewBox="0 0 101 100" version="1.1"><!-- Generator: Sketch 52.4 (67378) - http://www.bohemiancoding.com/sketch --><title>Machine Learning/machine-learning-using-windows</title><desc>Created with Sketch.</desc><defs><rect id="path-1" x="0" y="0" width="96" height="96" rx="48"></rect><filter x="-5.7%" y="-4.9%" width="111.4%" height="109.9%" filterUnits="objectBoundingBox" id="filter-3"><feOffset dx="0" dy="2" in="SourceAlpha" result="shadowOffsetOuter1"></feOffset><feColorMatrix values="0 0 0 0 0   0 0 0 0 0   0 0 0 0 0  0 0 0 0.102496603 0" type="matrix" in="shadowOffsetOuter1" result="shadowMatrixOuter1"></feColorMatrix><feMerge><feMergeNode in="shadowMatrixOuter1"></feMergeNode><feMergeNode in="SourceGraphic"></feMergeNode></feMerge></filter></defs><g id="Badges" stroke="none" stroke-width="1" fill="none" fill-rule="evenodd"><g id="Machine-Learning" transform="translate(-578.272933, -327.000000)"><g id="Machine-Learning/machine-learning-using-windows" transform="translate(579.000000, 327.000000)"><g id="Mask" transform="translate(2.000000, 2.000000)"><mask id="mask-2" fill="white"><use xlink:href="#path-1"></use></mask><use id="BG" fill="#C0DDF4" xlink:href="#path-1"></use><g id="Group-16" filter="url(#filter-3)" mask="url(#mask-2)"><g transform="translate(13.235290, 5.147190)"><path d="M62.5718732,78.9072799 L6.57187315,78.9072799 C3.47787315,78.9072799 0.971873154,76.3956799 0.971873154,73.3072799 L0.971873154,39.7072799 C0.971873154,36.6104799 3.47787315,34.1072799 6.57187315,34.1072799 L62.5718732,34.1072799 C65.6630732,34.1072799 68.1718732,36.6104799 68.1718732,39.7072799 L68.1718732,73.3072799 C68.1718732,76.3956799 65.6630732,78.9072799 62.5718732,78.9072799" id="Fill-302" fill="#546670"></path><path d="M34.5718732,67.7072799 C34.5718732,70.8012799 32.0630732,73.3072799 28.9718732,73.3072799 L0.971873154,73.3072799 C0.971873154,76.3956799 3.47787315,78.9072799 6.57187315,78.9072799 L62.5718732,78.9072799 C65.6630732,78.9072799 68.1718732,76.4012799 68.1718732,73.3072799 L68.1718732,39.7072799 L34.5718732,39.7072799 L34.5718732,67.7072799" id="Fill-303" fill="#30404D"></path><path d="M34.5718732,28.5072799 C33.0234732,28.5072799 31.7718732,27.0036799 31.7718732,25.1444799 L31.7718732,15.0644799 C31.7718732,13.2108799 33.0234732,11.7072799 34.5718732,11.7072799 C36.1174732,11.7072799 37.3718732,13.2108799 37.3718732,15.0644799 L37.3718732,25.1444799 C37.3718732,27.0036799 36.1174732,28.5072799 34.5718732,28.5072799" id="Fill-304" fill="#243038"></path><path d="M42.9718732,8.90727985 C42.9718732,13.5440799 39.2058732,17.3072799 34.5718732,17.3072799 C29.9294732,17.3072799 26.1718732,13.5440799 26.1718732,8.90727985 C26.1718732,4.27047985 29.9294732,0.507279853 34.5718732,0.507279853 C39.2058732,0.507279853 42.9718732,4.27047985 42.9718732,8.90727985" id="Fill-305" fill="#30404D"></path><path d="M38.9230732,1.75607985 C39.6986732,3.02727985 40.1718732,4.50847985 40.1718732,6.10727985 C40.1718732,10.7440799 36.4058732,14.5072799 31.7718732,14.5072799 C30.1702732,14.5072799 28.6918732,14.0368799 27.4178732,13.2584799 C28.8934732,15.6776799 31.5310732,17.3072799 34.5718732,17.3072799 C39.2058732,17.3072799 42.9718732,13.5440799 42.9718732,8.90727985 C42.9718732,5.86927985 41.3394732,3.23167985 38.9230732,1.75607985" id="Fill-306" fill="#182A37"></path><path d="M50.3918732,34.1072799 C48.0762732,27.5916799 41.8686732,22.9072799 34.5718732,22.9072799 C27.2722732,22.9072799 21.0674732,27.5916799 18.7490732,34.1072799 L50.3918732,34.1072799" id="Fill-307" fill="#30404D"></path><path d="M51.3718732,50.9072799 C51.3718732,53.9956799 48.8602732,56.5072799 45.7718732,56.5072799 C42.6750732,56.5072799 40.1718732,53.9956799 40.1718732,50.9072799 C40.1718732,47.8132799 42.6750732,45.3072799 45.7718732,45.3072799 C48.8602732,45.3072799 51.3718732,47.8132799 51.3718732,50.9072799" id="Fill-309" fill="#C5D0D4"></path><path d="M51.3718732,50.9072799 C51.3718732,47.8132799 48.8602732,45.3072799 45.7718732,45.3072799 L45.7718732,56.5072799 C48.8602732,56.5072799 51.3718732,53.9956799 51.3718732,50.9072799" id="Fill-311" fill="#ADBDC4"></path><path d="M28.9718732,50.9072799 C28.9718732,53.9956799 26.4602732,56.5072799 23.3718732,56.5072799 C20.2750732,56.5072799 17.7718732,53.9956799 17.7718732,50.9072799 C17.7718732,47.8132799 20.2750732,45.3072799 23.3718732,45.3072799 C26.4602732,45.3072799 28.9718732,47.8132799 28.9718732,50.9072799" id="Fill-312" fill="#C5D0D4"></path><path d="M28.9718732,50.9072799 C28.9718732,47.8132799 26.4602732,45.3072799 23.3718732,45.3072799 L23.3718732,56.5072799 C26.4602732,56.5072799 28.9718732,53.9956799 28.9718732,50.9072799" id="Fill-313" fill="#ADBDC4"></path><path d="M35.6414732,22.9912799 L28.9718732,34.1072799 L50.3918732,34.1072799 C48.1910732,27.9164799 42.4650732,23.4280799 35.6414732,22.9912799" id="Fill-321" fill="#182A37"></path></g></g><path d="M46.3454079,138.558071 C36.1759562,134.267582 22.1449833,131.706673 8.81309976,131.706673 C6.85693976,131.706673 4.89755443,131.760698 2.99138698,131.86794 L-1.50229797,132.120321 L-1.50229797,54.9931092 L2.563225,54.8116847 C4.74112614,54.7141186 6.91499562,54.6657387 9.02355226,54.6657387 C23.8044134,54.6657387 36.9048798,57.0645746 48,61.7985463 C59.0943139,57.0645746 72.1955866,54.6657387 86.9764477,54.6657387 C89.0850044,54.6657387 91.2588739,54.7149249 93.436775,54.8116847 L97.502298,54.9931092 L97.502298,132.120321 L93.008613,131.86794 C91.1024456,131.760698 89.1430602,131.706673 87.1869002,131.706673 C73.8550167,131.706673 59.8240438,134.268388 49.6545921,138.558071 L48.0008063,139.256354 L46.3454079,138.558071 Z" id="Shape" fill="#F65B23" fill-rule="nonzero" mask="url(#mask-2)"></path><path d="M48,61.7985463 C59.0943139,57.0645746 72.1955866,54.6657387 86.9764477,54.6657387 C89.0850044,54.6657387 91.2588739,54.7149249 93.436775,54.8116847 L97.502298,54.9931092 L97.502298,132.120321 L93.008613,131.86794 C91.1024456,131.760698 89.1430602,131.706673 87.1869002,131.706673 C73.8550167,131.706673 59.8240438,134.268388 49.6545921,138.558071 C48.5702161,139.865508 48.0189542,140.098269 48.0008063,139.256354 C48,138.558071 48.0280282,65.3814931 48,61.7985463 Z" id="Shape" fill="#CC271F" fill-rule="nonzero" mask="url(#mask-2)"></path><g id="microsoft" mask="url(#mask-2)" fill-rule="nonzero"><g transform="translate(62.272933, 16.000000)" id="Rectangle-path"><rect fill="#E86C60" x="0" y="0" width="7" height="7"></rect><polygon fill="#72C472" points="8 0 15 0 15 7 8 7"></polygon><polygon fill="#43A6DD" points="0 8 7 8 7 15 0 15"></polygon><polygon fill="#EFD358" points="8 8 15 8 15 15 8 15"></polygon></g></g></g><g id="Azure-Border" stroke="#0078D4" stroke-width="4"><rect x="2" y="2" width="96" height="96" rx="48"></rect></g></g></g></g></svg>