<svg xmlns="http://www.w3.org/2000/svg" xmlns:xlink="http://www.w3.org/1999/xlink" viewBox="0 0 100 100" version="1.1"><!-- Generator: Sketch 52.4 (67378) - http://www.bohemiancoding.com/sketch --><title>Automate a process using Flow/administer-flows</title><desc>Created with Sketch.</desc><defs><rect id="path-1" x="0.500016124" y="0.539802591" width="96" height="96" rx="48"></rect><filter x="-5.4%" y="-11.1%" width="110.8%" height="122.2%" filterUnits="objectBoundingBox" id="filter-3"><feOffset dx="0" dy="2" in="SourceAlpha" result="shadowOffsetOuter1"></feOffset><feColorMatrix values="0 0 0 0 0   0 0 0 0 0   0 0 0 0 0  0 0 0 0.099071558 0" type="matrix" in="shadowOffsetOuter1" result="shadowMatrixOuter1"></feColorMatrix><feMerge><feMergeNode in="shadowMatrixOuter1"></feMergeNode><feMergeNode in="SourceGraphic"></feMergeNode></feMerge></filter></defs><g id="Badges" stroke="none" stroke-width="1" fill="none" fill-rule="evenodd"><g id="Automate-a-process-using-Flow" transform="translate(-576.000000, -874.000000)"><g id="Automate-a-process-using-Flow/administer-flows" transform="translate(576.000000, 874.000000)"><g id="Group-3" transform="translate(1.499984, 1.460197)"><mask id="mask-2" fill="white"><use xlink:href="#path-1"></use></mask><use id="BG" fill="#B7D2F7" xlink:href="#path-1"></use><g id="Group-7" filter="url(#filter-3)" mask="url(#mask-2)"><g transform="translate(5.993269, 54.509901)"><path d="M72.4416746,1.0821157 C69.4178786,0.218999315 66.1629939,0.955016901 63.8047335,3.03481542 L53.035999,12.6631271 C51.6263578,13.9063844 49.8111558,14.5927179 47.9312491,14.5927179 L37.551899,14.5927179 C36.5951917,14.5927179 35.8187336,13.8162598 35.8187336,12.8595525 C35.8187336,11.9028452 36.5951917,11.1263871 37.551899,11.1263871 C37.551899,11.1263871 44.7895979,11.1263871 45.0622826,11.1263871 C47.6146575,11.1263871 49.684057,9.05698756 49.684057,6.50461261 C49.684057,3.95223765 47.6146575,1.88283813 45.0622826,1.88283813 C44.7895979,1.88283813 35.3496235,1.88283813 32.3524027,1.88283813 C30.6631442,1.88283813 26.8617346,1.88283813 25.0569317,1.88283813 C21.382621,1.88283813 18.6627067,3.25666059 15.9994092,5.38614318 C13.6295943,7.28107072 8.37463673,12.1997942 5.9262517,14.5118369 L20.2641516,28.8497368 C21.2208589,28.6174926 22.325463,28.4580414 23.5848965,28.4580414 L46.2177262,28.4580414 C50.6292099,28.4580414 54.8269366,26.5550257 57.7340327,23.2377471 L73.3995373,4.48258627 C74.4452138,3.34562975 73.9264196,1.50616351 72.4416746,1.0821157" id="Fill-168" fill="#EAC5A7"></path><path d="M21.6148652,31.9151287 L18.4778357,35.0521581 C18.0041039,35.52589 17.2103141,35.4993148 16.7042298,34.9932305 L0.397453975,18.6864547 C-0.10863033,18.1803704 -0.135205533,17.3865806 0.338526351,16.9128487 L3.47555578,13.7758193 C3.94928766,13.3020874 4.74307743,13.3286626 5.24916174,13.8347469 L21.5559375,30.1415227 C22.0620219,30.647607 22.0885971,31.4413968 21.6148652,31.9151287" id="Fill-169" fill="#E1E4E1"></path><path d="M36.3097971,14.0646802 C36.0070709,13.7527104 35.8187336,13.3286626 35.8187336,12.8595525 C35.8187336,11.9028452 36.5951917,11.1263871 37.551899,11.1263871 C37.551899,11.1263871 39.6282312,11.1344752 41.5947962,11.1425633 C41.5947962,11.1367861 45.0622826,11.1263871 45.0622826,11.1263871 C45.2217338,11.1159881 45.6434707,11.0547496 45.8179427,10.954226 C47.3627708,10.0714671 46.5990226,7.66005623 44.8207948,7.66005623 L38.3179581,7.66005623 C36.4680929,7.66005623 34.8054095,9.02579059 34.6725335,10.871034 C34.5743208,12.2217476 35.2583434,13.4118546 36.3097971,14.0646802" id="Fill-174" fill="#D9B090"></path><path d="M18.4778357,35.0521581 L21.6148652,31.9151287 C22.0885971,31.4413968 22.0620219,30.647607 21.5559375,30.1415227 L13.881481,22.4670662 C12.9790796,21.5646648 11.5151325,21.5646648 10.612731,22.4670662 C9.85707089,23.2227263 8.62998977,23.2227263 7.87432964,22.4670662 L3.51252998,18.1052666 C2.50613858,17.0988752 0.673605001,18.1618833 1.2351506,19.4710009 C1.2617258,19.5322394 1.29292278,19.5819235 1.32874153,19.6177423 L16.7042298,34.9932305 C17.2103141,35.4993148 18.0041039,35.52589 18.4778357,35.0521581" id="Fill-175" fill="#CDD3D1"></path><path d="M18.4870793,30.7689286 C18.4870793,31.4067335 17.9694405,31.9243722 17.3316357,31.9243722 C16.6938308,31.9243722 16.1761921,31.4067335 16.1761921,30.7689286 C16.1761921,30.1311237 16.6938308,29.613485 17.3316357,29.613485 C17.9694405,29.613485 18.4870793,30.1311237 18.4870793,30.7689286" id="Fill-176" fill="#8BA6B1"></path><path d="M41.5959517,7.66005623 L41.5959517,5.34916899 C41.5959517,4.71136411 42.1135904,4.19372537 42.7513953,4.19372537 L45.0622826,4.19372537 C46.3390478,4.19372537 47.3731698,5.22784741 47.3731698,6.50461261 C47.3731698,7.78022236 46.3390478,8.81549985 45.0622826,8.81549985 L42.7513953,8.81549985 C42.1135904,8.81549985 41.5959517,8.29786111 41.5959517,7.66005623" id="Fill-180" fill="#F9D8BE"></path><path d="M42.7513953,8.81549985 L45.0622826,8.81549985 C45.5209937,8.81549985 45.9461969,8.67800206 46.3055399,8.44691333 C45.9901038,7.98935766 45.4759314,7.66005623 44.8207948,7.66005623 L41.5959517,7.66005623 C41.5959517,8.29786111 42.1135904,8.81549985 42.7513953,8.81549985" id="Fill-181" fill="#EAC5A7"></path><path d="M42.7513953,6.50461261 C42.7513953,5.58487949 42.4810215,4.79802238 42.0927924,4.42596954 C41.7993098,4.63510483 41.5959517,4.96093993 41.5959517,5.34916899 L41.5959517,7.66005623 C41.5959517,8.04712984 41.7993098,8.37412039 42.0927924,8.58325568 C42.4810215,8.21120283 42.7513953,7.42434573 42.7513953,6.50461261" id="Fill-182" fill="#FFFFFE"></path><path d="M42.0927924,8.58325568 C42.3007723,8.38336393 42.471778,8.05637339 42.5884778,7.66005623 L41.5959517,7.66005623 C41.5959517,8.04712984 41.7993098,8.37412039 42.0927924,8.58325568" id="Fill-183" fill="#F9D8BE"></path><path d="M71.0170126,2.84416722 L56.5785891,19.7714163 C56.335946,20.0475673 56.0852147,20.3133193 55.8252399,20.5709832 C52.2745616,24.0800655 47.0912415,25.3857168 42.1898497,24.4347867 L21.6310414,20.4450399 C18.5772039,19.8522973 15.4471071,20.1134276 12.5561872,21.1417724 L20.2641516,28.8497368 C21.2208589,28.6174926 22.325463,28.4580414 23.5848965,28.4580414 L46.2177262,28.4580414 C50.6292099,28.4580414 54.8269366,26.5550257 57.7340327,23.2377471 L73.3995373,4.48258627 C73.5948073,4.26998465 73.6837765,4.01694249 73.6987972,3.74656869 C73.7773674,2.34963735 71.8974606,1.75573933 71.0170126,2.84416722" id="Fill-184" fill="#D9B090"></path></g></g><g id="Group-5" mask="url(#mask-2)" fill="#1E1E1E" fill-rule="nonzero"><g transform="translate(27.000016, 18.810365)" id="Shape"><path d="M2.67869075,19.3995883 L2.67869075,5.21306062 C2.68137204,3.33334105 4.20548707,1.81019514 6.08640263,1.80751556 L39.6412374,1.80751556 C41.5223115,1.80981323 43.0466501,3.33318257 43.0489492,5.21306062 L43.0489492,23.2930298 C43.0466501,25.1729079 41.5223115,26.6962772 39.6412374,26.6985749 L24.1500574,26.6985749 L24.1500574,28.4687633 L39.6426283,28.4687633 C42.5020387,28.4656989 44.8192839,26.149927 44.8223503,23.2923348 L44.8223503,5.21306062 C44.8192839,2.3554684 42.5020387,0.0396965736 39.6426283,0.0366321289 L6.08709808,0.0366321289 C3.22768769,0.0396965736 0.910442426,2.3554684 0.907376032,5.21306062 L0.907376032,19.3981983 L2.67869075,19.3995883 Z"></path><path d="M24.198739,15.8467013 C24.1978158,16.2567671 24.3599802,16.6503939 24.6495381,16.9409409 C24.9390961,17.2314879 25.3323141,17.3951403 25.7426411,17.3958768 L32.9454313,17.3958768 C33.3556377,17.3949562 33.748677,17.2312225 34.0380846,16.9406955 C34.3274922,16.6501686 34.4895612,16.2566469 34.4886379,15.8467013 L34.4886379,8.61860568 C34.4895612,8.20866011 34.3274922,7.81513843 34.0380846,7.52461145 C33.748677,7.23408446 33.3556377,7.07035078 32.9454313,7.06943018 L25.7426411,7.06943018 C25.3323141,7.07016667 24.9390961,7.23381913 24.6495381,7.52436611 C24.3599802,7.81491308 24.1978158,8.20853994 24.198739,8.61860568 L24.198739,10.9461915 L21.2903612,10.9461915 C20.0717188,10.9469782 18.9914444,11.7299664 18.6121778,12.8873522 L14.1856297,26.2586341 C14.1519882,26.3632375 14.0549444,26.4344325 13.9450035,26.4351664 L11.1965795,26.4351664 L11.1965795,24.1103606 C11.1975028,23.7004151 11.0354339,23.3068934 10.7460262,23.0163664 C10.4566186,22.7258394 10.0635793,22.5621058 9.65337287,22.5611852 L2.4519736,22.5611852 C2.0417672,22.5621058 1.64872784,22.7258394 1.35932023,23.0163664 C1.06991261,23.3068934 0.907843671,23.7004151 0.908766934,24.1103606 L0.908766934,31.3384563 C0.907843671,31.7484018 1.06991261,32.1419235 1.35932023,32.4324505 C1.64872784,32.7229775 2.0417672,32.8867112 2.4519736,32.8876318 L9.65476378,32.8876318 C10.0649702,32.8867112 10.4580095,32.7229775 10.7474171,32.4324505 C11.0368248,32.1419235 11.1988937,31.7484018 11.1979704,31.3384563 L11.1979704,29.0150405 L13.9463944,29.0150405 C15.1650368,29.0142538 16.2453111,28.2312656 16.6245777,27.0738799 L21.0511259,13.7025979 C21.0847673,13.5979945 21.1818112,13.5267996 21.2917521,13.5260656 L24.2001299,13.5260656 L24.198739,15.8467013 Z M8.62480025,30.3028926 L3.47845987,30.3028926 L3.47845987,25.1396693 L8.62480025,25.1396693 L8.62480025,30.3028926 Z"></path></g></g></g><g id="Flow-Border" stroke="#0066FF" stroke-width="4"><rect id="Azure-Border" x="2" y="2" width="96" height="96" rx="48"></rect></g></g></g></g></svg>