<svg xmlns="http://www.w3.org/2000/svg" xmlns:xlink="http://www.w3.org/1999/xlink" viewBox="0 0 100 100" version="1.1"><!-- Generator: Sketch 51.3 (57544) - http://www.bohemiancoding.com/sketch --><title>caching-and-performance-in-azure-storage-and-disks</title><desc>Created with Sketch.</desc><defs><filter x="-1.4%" y="-4.2%" width="102.9%" height="108.3%" filterUnits="objectBoundingBox" id="filter-1"><feOffset dx="0" dy="2" in="SourceAlpha" result="shadowOffsetOuter1"></feOffset><feColorMatrix values="0 0 0 0 0   0 0 0 0 0   0 0 0 0 0  0 0 0 0.099071558 0" type="matrix" in="shadowOffsetOuter1" result="shadowMatrixOuter1"></feColorMatrix><feMerge><feMergeNode in="shadowMatrixOuter1"></feMergeNode><feMergeNode in="SourceGraphic"></feMergeNode></feMerge></filter></defs><g id="Badges-FINAL" stroke="none" stroke-width="1" fill="none" fill-rule="evenodd"><g id="Adminster-infrastructure-resources-in-Azure" transform="translate(-576.000000, -2054.000000)"><g id="caching-and-performance-in-azure-storage-and-disks" transform="translate(576.000000, 2054.000000)"><rect id="BG" fill="#55A2FF" x="2" y="2" width="96" height="96" rx="48"></rect><g id="Database" filter="url(#filter-1)" transform="translate(15.000000, 16.000000)"><path d="M69.4107937,58.0942534 C69.4107937,65.3862874 54.0047946,71.2938323 35,71.2938323 C15.9966392,71.2938323 0.589206296,65.3862874 0.589206296,58.0942534 C0.589206296,50.8022194 15.9966392,44.8946746 35,44.8946746 C54.0047946,44.8946746 69.4107937,50.8022194 69.4107937,58.0942534" id="Shadow" fill-opacity="0.102807971" fill="#000000"></path><g id="Lower" transform="translate(10.000000, 34.000000)"><path d="M25,17.8885617 C11.6743534,17.8885617 0.870264213,13.8640792 0.870264213,8.89642109 L0.870264213,20.8859419 C0.870264213,25.8536001 11.6743534,29.8780825 25,29.8780825 C38.326652,29.8780825 49.1297358,25.8536001 49.1297358,20.8859419 L49.1297358,8.89642109 C49.1297358,13.8640792 38.326652,17.8885617 25,17.8885617" id="Fill-101" fill="#E1E4E1"></path><path d="M25,21.8520975 L25,25.845607 C25,26.9796159 24.0498917,27.8828265 22.9097616,27.8468579 C10.5623748,27.4522028 0.870264213,23.5925762 0.870264213,18.8876884 L0.870264213,20.8859419 C0.870264213,25.8536001 11.6743534,29.8780825 25,29.8780825 C38.326652,29.8780825 49.1297358,25.8536001 49.1297358,20.8859419 L49.1297358,10.8946746 C49.1297358,15.6195449 39.3581982,19.491161 26.9364113,19.8578405 C25.8566056,19.8898126 25,20.7780362 25,21.8520975" id="Fill-106" fill="#D3DAD8"></path><path d="M49,9 C49,13.972 38.255,18 25,18 C11.746,18 1,13.972 1,9 C1,4.028 11.746,0 25,0 C38.255,0 49,4.028 49,9" id="Fill-100" stroke="#E1E4E1" stroke-width="0.25" fill="#BAC0C2"></path></g><g id="Mid" transform="translate(10.000000, 17.000000)"><path d="M25,17.9034072 C11.6743534,17.9034072 0.870264213,13.8789247 0.870264213,8.91126659 L0.870264213,20.9007874 C0.870264213,25.8684455 11.6743534,29.892928 25,29.892928 C38.326652,29.892928 49.1297358,25.8684455 49.1297358,20.9007874 L49.1297358,8.91126659 C49.1297358,13.8789247 38.326652,17.9034072 25,17.9034072" id="Fill-102" fill="#E1E4E1"></path><path d="M25,21.866943 L25,25.8604525 C25,26.9944614 24.0498917,27.8976719 22.9097616,27.8617034 C10.5623748,27.4670483 0.870264213,23.6074217 0.870264213,18.9025339 L0.870264213,20.9007874 C0.870264213,25.8684455 11.6743534,29.892928 25,29.892928 C38.326652,29.892928 49.1297358,25.8684455 49.1297358,20.9007874 L49.1297358,10.9095201 C49.1297358,15.6343904 39.3581982,19.5060065 26.9364113,19.872686 C25.8566056,19.9046581 25,20.7928817 25,21.866943" id="Fill-107" fill="#D3DAD8"></path><path d="M49,9 C49,13.972 38.255,18 25,18 C11.746,18 1,13.972 1,9 C1,4.028 11.746,0 25,0 C38.255,0 49,4.028 49,9" id="Fill-103" stroke="#E1E4E1" stroke-width="0.25" fill="#BAC0C2"></path></g><g id="Top" transform="translate(10.000000, 0.000000)"><path d="M25,17.9182527 C11.6743534,17.9182527 0.870264213,13.8937702 0.870264213,8.92611208 L0.870264213,20.9156329 C0.870264213,25.883291 11.6743534,29.9077735 25,29.9077735 C38.326652,29.9077735 49.1297358,25.883291 49.1297358,20.9156329 L49.1297358,8.92611208 C49.1297358,13.8937702 38.326652,17.9182527 25,17.9182527" id="Fill-104" fill="#E1E4E1"></path><path d="M25,21.8817885 L25,25.875298 C25,27.0093069 24.0498917,27.9125174 22.9097616,27.8765489 C10.5623748,27.4818938 0.870264213,23.6222672 0.870264213,18.9173794 L0.870264213,20.9156329 C0.870264213,25.883291 11.6743534,29.9077735 25,29.9077735 C38.326652,29.9077735 49.1297358,25.883291 49.1297358,20.9156329 L49.1297358,10.9243656 C49.1297358,15.6492359 39.3581982,19.520852 26.9364113,19.8875315 C25.8566056,19.9195036 25,20.8077272 25,21.8817885" id="Fill-108" fill="#D3DAD8"></path><path d="M48.0498412,9 C48.0498412,13.972 37.7302352,18 25,18 C12.2707252,18 1.95015883,13.972 1.95015883,9 C1.95015883,4.028 12.2707252,0 25,0 C37.7302352,0 48.0498412,4.028 48.0498412,9" id="Fill-105" stroke="#E1E4E1" stroke-width="2.25" fill="#C4CBCD"></path></g></g><g id="Apps" transform="translate(34.000000, 37.000000)"><path d="M30.8910828,17 C30.8910828,24.6710833 24.6710833,30.8910828 17,30.8910828 C9.32784813,30.8910828 3.10891723,24.6710833 3.10891723,17 C3.10891723,9.32891668 9.32784813,3.10891723 17,3.10891723 C24.6710833,3.10891723 30.8910828,9.32891668 30.8910828,17" id="Fill-41" stroke="#E1E4E1" stroke-width="2" fill="#89C404"></path><g id="Group-5" transform="translate(0.000000, -0.000000)"><path d="M16.5714377,0 C7.43384336,0 0,7.43384336 0,16.5714377 C0,25.7085141 7.43384336,33.1428753 16.5714377,33.1428753 C25.7090319,33.1428753 33.1428753,25.7085141 33.1428753,16.5714377 C33.1428753,7.43384336 25.7090319,0 16.5714377,0" id="Fill-324" fill="#546670"></path><path d="M30.9787491,14.913776 C30.2371773,8.26189739 24.8809779,2.90621588 18.2290993,2.16412619 C9.49491592,1.19003637 2.07142971,8.02989726 2.07142971,16.5714377 C2.07142971,16.7449199 2.07867971,16.9168486 2.08437614,17.0892951 C2.33812628,9.91955901 7.81861143,4.05689508 14.8241867,3.21175176 C15.7521872,3.09989456 16.5714377,3.82334138 16.5714377,4.75755618 L16.5714377,19.1529569 C15.2441691,19.1524391 14.140097,18.1441707 14.0064898,16.8303664 C13.9945791,16.9468843 13.9795612,17.0623665 13.9837041,17.1825094 C14.0251327,18.3150636 14.7920795,19.2477248 15.8200265,19.559475 C16.2617589,19.6936001 16.5714377,20.089761 16.5714377,20.5516898 L16.5714377,31.0714456 C25.112978,31.0714456 31.9528389,23.6479594 30.9787491,14.913776" id="Fill-325" fill="#405563"></path><path d="M29.5178733,16.5714377 C29.5178733,16.5595269 29.511659,16.5491698 29.5111412,16.5377769 C29.5028555,13.2338465 28.2413548,9.93250544 25.7261212,7.41675406 C23.2108877,4.9020384 19.9100645,3.64053771 16.6061341,3.63225199 C16.5942234,3.63121628 16.5838662,3.62500199 16.5714377,3.62500199 C16.5590091,3.62500199 16.5486519,3.63121628 16.5367412,3.63225199 C13.2328108,3.64105557 9.93198759,4.9020384 7.41675406,7.41675406 C4.90152054,9.93250544 3.64053771,13.2338465 3.63173413,16.5377769 C3.63121628,16.5491698 3.62500199,16.5595269 3.62500199,16.5714377 C3.62500199,16.5833484 3.63121628,16.5937055 3.63173413,16.6045805 C3.64001985,19.9079931 4.90100269,23.2088163 7.41520049,25.7240498 C7.41571835,25.7250855 7.41623621,25.7261212 7.41675406,25.727157 C7.51825412,25.8281392 7.65030776,25.8788892 7.78287927,25.8788892 C7.91545077,25.8788892 8.04802227,25.8281392 8.14900447,25.727157 L9.61350527,24.2621383 C9.81598752,24.059656 9.81598752,23.7313344 9.61350527,23.52937 C9.41154087,23.3274056 9.08373712,23.3274056 8.88125487,23.52937 L7.80203999,24.6091028 C5.84505677,22.4750123 4.80830621,19.8018323 4.69127043,17.0892951 L6.21428912,17.0892951 C6.50014642,17.0892951 6.73214655,16.8578128 6.73214655,16.5714377 C6.73214655,16.2850625 6.50014642,16.0535802 6.21428912,16.0535802 L4.69127043,16.0535802 C4.80830621,13.341043 5.84505677,10.6683808 7.80152213,8.53377253 L8.88177272,9.61402313 C8.98275492,9.71552318 9.11532642,9.76575535 9.24789793,9.76575535 C9.38046943,9.76575535 9.51304093,9.71552318 9.61402313,9.61402313 C9.81650538,9.41205873 9.81650538,9.08425498 9.61402313,8.88177272 L8.53377253,7.80152213 C10.667863,5.84505677 13.3405252,4.80830621 16.0535802,4.69127043 L16.0535802,6.21428912 C16.0535802,6.50066428 16.2855804,6.73214655 16.5714377,6.73214655 C16.857295,6.73214655 17.0892951,6.50066428 17.0892951,6.21428912 L17.0892951,4.69127043 C19.8023501,4.80830621 22.4750123,5.84505677 24.6091028,7.80152213 L23.5288522,8.88229058 C23.3263699,9.08477284 23.3263699,9.41257659 23.5288522,9.61454098 C23.6298344,9.71604104 23.7624059,9.76627321 23.8949774,9.76627321 C24.0275489,9.76627321 24.1596025,9.71604104 24.2611026,9.61454098 L25.341871,8.53377253 C27.2978185,10.6683808 28.3345691,13.341043 28.4516049,16.0535802 L26.9285862,16.0535802 C26.6427289,16.0535802 26.4107288,16.2850625 26.4107288,16.5714377 C26.4107288,16.8578128 26.6427289,17.0892951 26.9285862,17.0892951 L28.4516049,17.0892951 C28.3345691,19.8018323 27.2978185,22.4750123 25.3413532,24.6091028 L24.2611026,23.5288522 C24.0591382,23.3268878 23.7313344,23.3268878 23.5288522,23.5288522 C23.3263699,23.7313344 23.3263699,24.0591382 23.5288522,24.2616204 L24.993353,25.7261212 C25.094853,25.8271034 25.2269067,25.8778535 25.3594782,25.8778535 C25.3594782,25.8778535 25.3594782,25.8778535 25.359996,25.8778535 C25.4925675,25.8778535 25.6246212,25.8271034 25.7261212,25.7261212 C28.2413548,23.2103699 29.5023376,19.9090288 29.5111412,16.6045805 C29.511659,16.5937055 29.5178733,16.5833484 29.5178733,16.5714377" id="Fill-326" fill="#E1E4E1"></path><path d="M16.5714377,33.1428753 C19.6687429,33.1428753 22.5687445,32.286857 25.0508352,30.8016419 L21.7593334,25.2310495 C21.4693332,24.7406386 20.7660828,24.3392991 20.1964396,24.3392991 L12.4285782,24.3392991 C11.8589351,24.3392991 11.1696668,24.7484064 10.8972738,25.2486567 L7.92321863,30.7006597 C10.442595,32.2480177 13.4042216,33.1428753 16.5714377,33.1428753" id="Fill-327" fill="#30404D"></path><path d="M14.0251327,16.9976343 C14.0002755,16.8588485 13.9821505,16.7174734 13.9821505,16.5714377 C13.9821505,16.4134911 14.0013112,16.2617589 14.0287577,16.1120981 C14.0370434,16.0665267 14.0468827,16.0219909 14.0577577,15.9774552 C14.0836506,15.869223 14.1162756,15.7630622 14.1561506,15.6605264 C14.1753113,15.6108121 14.1929185,15.5600621 14.2146685,15.5113835 C14.2628292,15.4062584 14.3177221,15.3052762 14.3793472,15.2084369 C14.4254365,15.135419 14.4756686,15.0675797 14.5284901,14.9997404 C14.5528294,14.9681511 14.5782044,14.9381153 14.6040973,14.9075617 C14.8117581,14.6626152 15.0618833,14.4596151 15.3456691,14.3047757 C15.3456691,14.3047757 15.3467048,14.3042578 15.3472227,14.30374 C12.4902033,13.4187216 7.92270077,12.0681495 7.7678614,12.4285782 C7.60473631,12.8092034 11.75381,15.6279014 14.053097,17.1519558 L14.053097,17.1509201 C14.0411863,17.1001701 14.0339363,17.0494201 14.0251327,16.9976343" id="Fill-328" fill="#DF5142"></path><path d="M16.5714377,13.9821505 C15.1437047,13.9821505 13.9821505,15.1437047 13.9821505,16.5714377 C13.9821505,17.9991706 15.1437047,19.1607248 16.5714377,19.1607248 C17.9991706,19.1607248 19.1607248,17.9991706 19.1607248,16.5714377 C19.1607248,15.1437047 17.9991706,13.9821505 16.5714377,13.9821505" id="Fill-329" fill="#C5CCCD"></path><path d="M20.1964396,24.3392991 L16.5714377,24.3392991 L16.5714377,33.1428753 C19.6687429,33.1428753 22.5687445,32.286857 25.0508352,30.8016419 L21.7593334,25.2310495 C21.4693332,24.7406386 20.7660828,24.3392991 20.1964396,24.3392991" id="Fill-330" fill="#182A37"></path><path d="M20.1964396,28.4821585 C20.1964396,29.0518016 19.730368,29.5178733 19.1607248,29.5178733 L13.4642931,29.5178733 C12.8946499,29.5178733 12.4285782,29.0518016 12.4285782,28.4821585 L12.4285782,26.9285862 C12.4285782,26.358943 12.8946499,25.8928713 13.4642931,25.8928713 L19.1607248,25.8928713 C19.730368,25.8928713 20.1964396,26.358943 20.1964396,26.9285862 L20.1964396,28.4821585" id="Fill-331" fill="#30404D"></path><path d="M19.1607248,25.8928713 L13.4642931,25.8928713 C12.8946499,25.8928713 12.4285782,26.358943 12.4285782,26.9285862 L12.4285782,27.4464436 C12.4285782,26.8768004 12.8946499,26.4107288 13.4642931,26.4107288 L19.1607248,26.4107288 C19.730368,26.4107288 20.1964396,26.8768004 20.1964396,27.4464436 L20.1964396,26.9285862 C20.1964396,26.358943 19.730368,25.8928713 19.1607248,25.8928713" id="Fill-332" fill="#182A37"></path><path d="M17.0892951,6.21428912 L17.0892951,4.69127043 C19.8023501,4.80830621 22.4750123,5.84505677 24.6091028,7.80152213 L23.5288522,8.88229058 C23.3263699,9.08477284 23.3263699,9.41257659 23.5288522,9.61454098 C23.6298344,9.71604104 23.7624059,9.76627321 23.8949774,9.76627321 C24.0275489,9.76627321 24.1596025,9.71604104 24.2611026,9.61454098 L25.341871,8.53377253 C27.2978185,10.6683808 28.3345691,13.341043 28.4516049,16.0535802 L26.9285862,16.0535802 C26.6427289,16.0535802 26.4107288,16.2850625 26.4107288,16.5714377 C26.4107288,16.8578128 26.6427289,17.0892951 26.9285862,17.0892951 L28.4516049,17.0892951 C28.3345691,19.8018323 27.2978185,22.4750123 25.3413532,24.6091028 L24.2611026,23.5288522 C24.0591382,23.3268878 23.7313344,23.3268878 23.5288522,23.5288522 C23.3263699,23.7313344 23.3263699,24.0591382 23.5288522,24.2616204 L24.993353,25.7261212 C25.094853,25.8271034 25.2269067,25.8778535 25.3594782,25.8778535 C25.3594782,25.8778535 25.3594782,25.8778535 25.359996,25.8778535 C25.4925675,25.8778535 25.6246212,25.8271034 25.7261212,25.7261212 C28.2413548,23.2103699 29.5023376,19.9090288 29.5111412,16.6050984 C29.511659,16.5937055 29.5178733,16.5833484 29.5178733,16.5714377 C29.5178733,16.5595269 29.511659,16.5491698 29.5111412,16.5377769 C29.5028555,13.2338465 28.2413548,9.93250544 25.7261212,7.41675406 C23.2108877,4.9020384 19.9100645,3.64053771 16.6061341,3.63225199 C16.5942234,3.63121628 16.5838662,3.62500199 16.5714377,3.62500199 L16.5714377,6.73214655 C16.857295,6.73214655 17.0892951,6.50066428 17.0892951,6.21428912" id="Fill-333" fill="#C5CCCD"></path><path d="M16.5714377,31.0714456 C8.57623684,31.0714456 2.07142971,24.5666385 2.07142971,16.5714377 C2.07142971,8.57623684 8.57623684,2.07142971 16.5714377,2.07142971 C24.5666385,2.07142971 31.0714456,8.57623684 31.0714456,16.5714377 C31.0714456,24.5666385 24.5666385,31.0714456 16.5714377,31.0714456 Z M16.5714377,0 C7.43384336,0 0,7.43384336 0,16.5714377 C0,25.7085141 7.43384336,33.1428753 16.5714377,33.1428753 C25.7090319,33.1428753 33.1428753,25.7085141 33.1428753,16.5714377 C33.1428753,7.43384336 25.7090319,0 16.5714377,0 Z" id="Fill-334" fill="#30404D"></path><path d="M18.4015458,14.7470259 L14.7501331,18.3979208 C14.7729188,18.4201887 14.7889724,18.4465994 14.812276,18.4683494 C15.8578301,19.4408857 17.499956,19.3813321 18.4719744,18.3357779 C19.4222428,17.3135273 19.3802963,15.7262943 18.4015458,14.7470259" id="Fill-335" fill="#ACB8C0"></path><path d="M16.5714377,15.5357228 C16.0007588,15.5357228 15.5357228,16.0002409 15.5357228,16.5714377 C15.5357228,17.1421165 16.0007588,17.6071525 16.5714377,17.6071525 C17.1426344,17.6071525 17.6071525,17.1421165 17.6071525,16.5714377 C17.6071525,16.0002409 17.1426344,15.5357228 16.5714377,15.5357228" id="Fill-336" fill="#546670"></path></g></g><g id="Azure-Border" stroke="#0078D4" stroke-width="4"><rect x="2" y="2" width="96" height="96" rx="48"></rect></g></g></g></g></svg>