<svg xmlns="http://www.w3.org/2000/svg" xmlns:xlink="http://www.w3.org/1999/xlink" viewBox="0 0 100 100"><defs><rect id="a" x="0" y="0" width="96" height="96" rx="48"/><filter x="-7.1%" y="-6.2%" width="114.3%" height="112.5%" filterUnits="objectBoundingBox" id="b"><feOffset dy="2" in="SourceAlpha" result="shadowOffsetOuter1"/><feColorMatrix values="0 0 0 0 0 0 0 0 0 0 0 0 0 0 0 0 0 0 0.102128623 0" in="shadowOffsetOuter1" result="shadowMatrixOuter1"/><feMerge><feMergeNode in="shadowMatrixOuter1"/><feMergeNode in="SourceGraphic"/></feMerge></filter></defs><g fill="none" fill-rule="evenodd"><g transform="translate(2 2)"><mask id="c" fill="#fff"><use xlink:href="#a"/></mask><use fill="#55A2FF" xlink:href="#a"/><g filter="url(#b)" mask="url(#c)"><path fill="#C5CCCD" d="M21 32.619v-.485l27-19.287 27 19.287v.485H21"/><path d="M54.372 29.123v.401l-9.58-.101v-.402l9.58.102zm-3.717-.778l-3.015-3.551v-.402l3.326 3.917-.31.036zm-9.055-.138l2.74-.28L49.158 19v.402l-4.816 8.927-2.741.28v-.402z" fill="#AAB0B1"/><path fill="#0078D4" d="M49.53 20.526l-1.89 3.866 3.326 3.917-6.173.712 9.579.102zM49.157 19l-4.337 3.688-3.22 5.52 2.74-.28z"/><path fill="#546670" d="M57 65.619h10v-28H57zm-14 0h10v-28H43zm-14 0h10v-28H29z"/><path d="M29 37.619v28h3v-24a2 2 0 0 1 2-2h5v-2H29m14 0v28h3v-24a2 2 0 0 1 2-2h5v-2H43m14 0v28h3v-24a2 2 0 0 1 2-2h5v-2H57" fill="#30404D"/><path d="M23 69.619c0 .55.45 1 1 1h48c.55 0 1-.45 1-1v-3c0-.55-.45-1-1-1H24c-.55 0-1 .45-1 1v3m0-33c0 .55.45 1 1 1h48c.55 0 1-.45 1-1v-3c0-.55-.45-1-1-1H24c-.55 0-1 .45-1 1v3" fill="#E1E4E1"/><path d="M20 74.619c0 .55.45 1 1 1h54c.55 0 1-.45 1-1v-4c0-.55-.45-1-1-1H21c-.55 0-1 .45-1 1v4m5-9h4v-26h-4zm14 0h4v-26h-4zm14 0h4v-26h-4zm14 0h4v-26h-4zm-19-54l-28 20v2h56v-2l-28-20zm0 2.458l24.559 17.542H23.441L48 14.077z" fill="#E1E4E1"/><path d="M75 75.619c.55 0 1-.45 1-1v-4H50a1 1 0 0 0-1 1v2a1 1 0 0 1-1 1H20c0 .55.45 1 1 1h54m-2-6v-3H50a1 1 0 0 0-1 1 1 1 0 0 1-1 1H23v1h50m-21-32l1 2h1a1 1 0 0 1 1 1v25h2v-26l1-2h-6m14 0l1 2h1a1 1 0 0 1 1 1v25h2v-26l1-2h-6m-28 0l1 2h1a1 1 0 0 1 1 1v25h2v-26l1-2h-6m-14 0l1 2h1a1 1 0 0 1 1 1v25h2v-26l1-2h-6m-1-4v1h23a2 2 0 0 1 2 2v1h24c.55 0 1-.45 1-1v-3H23" fill="#C5CCCD"/><path fill="#AAB0B1" d="M70 31.619l-22-16v-1.542l24.559 17.542H70m-44 0l22-16v-1.542L23.441 31.619H26"/></g></g><rect x="2" y="2" width="96" height="96" rx="48" stroke="#0078D4" stroke-width="4"/></g></svg>