<svg xmlns="http://www.w3.org/2000/svg" viewBox="0 0 100 100"><defs><filter x="-1.4%" y="-1.7%" width="102.9%" height="106.8%" filterUnits="objectBoundingBox" id="a"><feOffset dy="2" in="SourceAlpha" result="shadowOffsetOuter1"/><feColorMatrix values="0 0 0 0 0 0 0 0 0 0 0 0 0 0 0 0 0 0 0.0982223732 0" in="shadowOffsetOuter1" result="shadowMatrixOuter1"/><feMerge><feMergeNode in="shadowMatrixOuter1"/><feMergeNode in="SourceGraphic"/></feMerge></filter><filter x="-1.9%" y="-1.9%" width="103.8%" height="107.7%" filterUnits="objectBoundingBox" id="b"><feOffset dy="2" in="SourceAlpha" result="shadowOffsetOuter1"/><feColorMatrix values="0 0 0 0 0 0 0 0 0 0 0 0 0 0 0 0 0 0 0.0970052083 0" in="shadowOffsetOuter1" result="shadowMatrixOuter1"/><feMerge><feMergeNode in="shadowMatrixOuter1"/><feMergeNode in="SourceGraphic"/></feMerge></filter></defs><g fill="none" fill-rule="evenodd"><rect fill="#55A2FF" x="2" y="2" width="96" height="96" rx="48"/><g filter="url(#a)" transform="translate(15 20.5)"><path d="M4.352 58.753A4.365 4.365 0 0 1 0 54.4V4.352A4.365 4.365 0 0 1 4.352 0h60.929a4.365 4.365 0 0 1 4.352 4.352v50.049a4.365 4.365 0 0 1-4.352 4.352H4.352" fill="#30404D"/><path d="M5.44 55.489a2.182 2.182 0 0 1-2.176-2.176V11.968c0-1.197.98-2.176 2.176-2.176h58.753c1.197 0 2.176.98 2.176 2.176v41.345c0 1.196-.98 2.176-2.176 2.176H5.44" fill="#E1E4E1"/><path d="M4.352 4.896a1.632 1.632 0 1 1 3.264 0 1.632 1.632 0 0 1-3.264 0" fill="#DF5142"/><path d="M10.88 4.896a1.632 1.632 0 1 1 3.264 0 1.632 1.632 0 0 1-3.264 0" fill="#EFB252"/><path d="M17.408 4.896a1.632 1.632 0 1 1 3.264 0 1.632 1.632 0 0 1-3.264 0" fill="#7CB65A"/><path d="M64.737 6.528H27.744a1.633 1.633 0 0 1 0-3.264h36.993a1.633 1.633 0 0 1 0 3.264" fill="#697D85"/></g><g filter="url(#b)" transform="translate(22.192 25.346)"><path d="M51.47 15.037c.462.463.373 1.309-.205 1.887L26.128 42.06c-.578.579-1.425.67-1.888.207l-8.41-8.411c-.467-.467-.373-1.31.206-1.889.257-.257.566-.415.875-.471l.396-1.683c.073-.309.239-.592.463-.816.31-.311.727-.51 1.148-.5l2.414.024.585-2.477c.174-.737.89-1.328 1.611-1.317l2.413.026.586-2.478c.174-.737.89-1.328 1.611-1.317l2.413.026.585-2.477c.174-.738.891-1.328 1.611-1.317l2.414.026.585-2.478c.174-.737.89-1.328 1.611-1.317l2.414.026.585-2.478c.174-.738.89-1.328 1.611-1.317l3.714.046c.302 0 .563.11.743.291l5.045 5.048z" fill="#ADBDC4"/><path d="M14.823 34.862a.596.596 0 0 0-.84 0L12.3 36.544a.596.596 0 0 0 0 .841l6.729 6.729c.23.231.61.231.84 0l1.683-1.682a.596.596 0 0 0 0-.842l-6.729-6.728zm11.355 7.149l-5.047 5.046a2.379 2.379 0 0 1-3.364 0l-8.41-8.41a2.379 2.379 0 0 1 0-3.365l4.205-4.205a1.191 1.191 0 0 1 1.682 0l10.934 10.934z" fill="#8B572A"/><path d="M46.89 10.457l4.58 4.58a1.19 1.19 0 0 1 .001 1.68l-3.098 3.099-10.47-2.694 8.987-6.665zm-11.632 8.629l11.012 2.832-2.523 2.524-11.662-2.999z" fill="#8BA6B1"/><path d="M7.573 11.312l2.523-2.523a.596.596 0 0 1 .841 0l30.759 30.759c1.051 1.05 1.053 2.31 0 3.364-1.053 1.053-2.313 1.051-3.364 0l-30.76-30.76a.596.596 0 0 1 0-.84z" fill="#8B572A"/><path d="M15.218 8.865c3.581-2.581 9.16-1.775 13.02 2.085.088.088.168.177.248.265l.115.129a.596.596 0 0 1-.63.967c-3.17-1.104-6.332-.8-8.548.759l.345.345a.595.595 0 0 1 0 .84l-6.728 6.73a.596.596 0 0 1-.841 0l-.42-.421-.421 2.102-2.944 2.944a.596.596 0 0 1-.841 0l-5.047-5.046a.596.596 0 0 1 0-.842L5.47 16.78l2.103-.42-.42-.421a.596.596 0 0 1 0-.841l6.727-6.729a.595.595 0 0 1 .841 0l.497.497z" fill="#ADBDC4"/><path d="M15.983 20.564l-1.261-1.262 3.364-3.364 23.61 23.61c1.051 1.05 1.053 2.31 0 3.364l-23.61-23.61a.596.596 0 0 0-.84 0l-1.263 1.262z" fill-opacity=".108" fill="#000"/><path d="M17.64 9.604c.48.48 1.185.616 1.827.402a8.91 8.91 0 0 1 9.133 2.147l-.016.015a.592.592 0 0 1-.613.143c-3.17-1.104-6.332-.8-8.548.759l.345.345a.596.596 0 0 1 0 .84l-6.728 6.73a.596.596 0 0 1-.841 0l-.42-.421-.421 2.102-2.944 2.944a.596.596 0 0 1-.841 0l-2.524-2.523 2.524-2.523a1.191 1.191 0 0 0 0-1.683L5.47 16.78l2.103-.42 2.102 2.102 6.308-6.308 1.262-1.262-2.027-2.027a8.07 8.07 0 0 1 1.056-.626l1.366 1.366z" fill="#8BA6B1"/></g><rect x="2" y="2" width="96" height="96" rx="48" stroke="#0078D4" stroke-width="4"/></g></svg>