<svg xmlns="http://www.w3.org/2000/svg" xmlns:xlink="http://www.w3.org/1999/xlink" viewBox="0 0 100 100" version="1.1"><!-- Generator: Sketch 51.3 (57544) - http://www.bohemiancoding.com/sketch --><title>the-mojifier</title><desc>Created with Sketch.</desc><defs><filter x="-1.6%" y="-1.6%" width="103.3%" height="106.5%" filterUnits="objectBoundingBox" id="filter-1"><feOffset dx="0" dy="2" in="SourceAlpha" result="shadowOffsetOuter1"></feOffset><feColorMatrix values="0 0 0 0 0   0 0 0 0 0   0 0 0 0 0  0 0 0 0.0995244565 0" type="matrix" in="shadowOffsetOuter1" result="shadowMatrixOuter1"></feColorMatrix><feMerge><feMergeNode in="shadowMatrixOuter1"></feMergeNode><feMergeNode in="SourceGraphic"></feMergeNode></feMerge></filter><linearGradient x1="50.0000638%" y1="98.4140327%" x2="50.0000638%" y2="0.39084701%" id="linearGradient-2"><stop stop-color="#84522D" offset="0%"></stop><stop stop-color="#CB9B74" offset="100%"></stop></linearGradient><path d="M0.0347866745,19.5341252 C0.0347866745,30.3157444 8.82266511,39.0559737 19.6630275,39.0559737 C30.5034249,39.0559737 39.2913033,30.3157444 39.2913033,19.5341252 C39.2913033,8.752506 30.5034249,0.0123116066 19.6630275,0.0123116066 C8.82266511,0.0123116066 0.0347866745,8.752506 0.0347866745,19.5341252" id="path-3"></path><linearGradient x1="49.999988%" y1="97.7798641%" x2="49.999988%" y2="-0.408681459%" id="linearGradient-5"><stop stop-color="#FDD446" offset="0%"></stop><stop stop-color="#FDB542" offset="100%"></stop></linearGradient></defs><g id="Badges-FINAL" stroke="none" stroke-width="1" fill="none" fill-rule="evenodd"><g id="N/A-1" transform="translate(-577.000000, -1132.000000)"><g id="the-mojifier" transform="translate(577.000000, 1132.000000)"><rect id="BG" fill="#55A2FF" x="2" y="2" width="96" height="96" rx="48"></rect><g id="Group" filter="url(#filter-1)" transform="translate(20.000000, 20.000000)"><g id="Group-3" transform="translate(0.000000, 21.943957)" fill="url(#linearGradient-2)"><path d="M0.00897720631,5.16260892 C0.00897720631,8.00638079 2.32691993,10.3117553 5.18619521,10.3117553 C8.04550555,10.3117553 10.3634132,8.00638079 10.3634132,5.16260892 C10.3634132,2.31880217 8.04550555,0.01346255 5.18619521,0.01346255 C2.32691993,0.01346255 0.00897720631,2.31880217 0.00897720631,5.16260892" id="Fill-1"></path></g><g id="Group-6" transform="translate(49.620105, 21.943957)" fill="url(#linearGradient-2)"><path d="M0.016025716,5.16260892 C0.016025716,8.00638079 2.33389831,10.3117553 5.19324372,10.3117553 C8.05251899,10.3117553 10.3703916,8.00638079 10.3703916,5.16260892 C10.3703916,2.31880217 8.05251899,0.01346255 5.19324372,0.01346255 C2.33389831,0.01346255 0.016025716,2.31880217 0.016025716,5.16260892" id="Fill-4"></path></g><g id="Group-9" transform="translate(5.260082, 14.271001)" fill="url(#linearGradient-2)"><path d="M4.3608533,0.0291572327 C1.9650263,0.0291572327 0.0228638223,2.10263408 0.0228638223,4.66044883 L0.0228638223,20.0321001 C0.0228638223,34.6075426 10.9890824,46.6192064 24.6413793,46.6807296 C38.3106838,46.7423573 49.4727177,34.9305043 49.4727177,20.3509811 L49.4727177,4.66044883 C49.4727177,2.10263408 47.5305202,0.0291572327 45.1347282,0.0291572327 L4.3608533,0.0291572327 Z" id="Fill-7"></path></g><g id="Group-24" transform="translate(5.260082, 0.006278)"><path d="M2.25498656,33.7053843 C1.01844652,33.7053843 0.0160853302,32.7084232 0.0160853302,31.4786228 L0.0160853302,21.3583077 C0.0160853302,20.1284724 1.01844652,19.1315113 2.25498656,19.1315113 C3.49149153,19.1315113 4.49388778,20.1284724 4.49388778,21.3583077 L4.49388778,31.4786228 C4.49388778,32.7084232 3.49149153,33.7053843 2.25498656,33.7053843" id="Fill-10" fill="#B49278"></path><path d="M47.2296961,33.7053843 C45.9931911,33.7053843 44.9907949,32.7084232 44.9907949,31.4786228 L44.9907949,21.3583077 C44.9907949,20.1284724 45.9931911,19.1315113 47.2296961,19.1315113 C48.4662011,19.1315113 49.4685973,20.1284724 49.4685973,21.3583077 L49.4685973,31.4786228 C49.4685973,32.7084232 48.4662011,33.7053843 47.2296961,33.7053843" id="Fill-12" fill="#B49278"></path><path d="M49.462969,12.8737937 L49.462969,30.6895604 C49.462969,31.9135712 48.4493513,32.9151361 47.2186674,32.9151361 C45.9877382,32.9151361 44.9743659,31.9135712 44.9743659,30.6895604 L44.9743659,17.3083786 C44.834097,17.3249103 39.4088136,19.4787439 24.7405845,19.4787439 C10.0723553,19.4787439 4.50680304,17.3083786 4.50680304,17.3083786 L4.50680304,30.6895604 C4.50680304,31.9135712 3.49329047,32.9151361 2.26239626,32.9151361 C1.03171245,32.9151361 0.0181998831,31.9135712 0.0181998831,30.6895604 L0.0181998831,12.8737937 C0.0181998831,10.1506616 2.26316774,7.91179766 5.00111046,7.91179766 L5.82059614,7.91179766 C7.47594389,6.5864689 9.58292227,5.79022533 11.8769492,5.79022533 C11.993232,5.79022533 12.109059,5.79503836 12.22436,5.79911898 C15.0571596,2.26910583 19.4203974,0.00847861635 24.3146581,0.00847861635 C29.2091993,0.00847861635 33.5724021,2.27109383 36.4052367,5.80110698 C36.5205377,5.79706123 36.6363647,5.78991144 36.7526125,5.78991144 C39.046429,5.78991144 41.1534074,6.5864689 42.8089655,7.91179766 L44.4944009,7.91179766 C47.2323787,7.91179766 49.462969,10.1506616 49.462969,12.8737937" id="Fill-14" fill="#152F3D"></path><path d="M4.50680304,28.8458886 L4.50680304,30.6895604 C4.50680304,31.9135712 3.49318527,32.9151361 2.26225599,32.9151361 C1.03157218,32.9151361 0.0181998831,31.9135712 0.0181998831,30.6895604 L0.0181998831,28.8458886 C0.0181998831,30.0698994 1.03157218,31.0714992 2.26225599,31.0714992 C3.49318527,31.0714992 4.50680304,30.0698994 4.50680304,28.8458886" id="Fill-16" fill="#07222A"></path><path d="M44.9743659,17.308396 C44.834097,17.3249277 39.4087785,19.4786916 24.7405845,19.4786916 C10.0723904,19.4786916 4.50680304,17.308396 4.50680304,17.308396 L4.50680304,15.4647591 C4.50680304,15.4647591 10.0723904,17.6349849 24.7405845,17.6349849 C39.4087785,17.6349849 44.834097,15.4812559 44.9743659,15.4647591 L44.9743659,17.308396 Z" id="Fill-18" fill="#07222A"></path><path d="M49.462969,28.8458886 L49.462969,30.6895604 C49.462969,31.9135712 48.4493513,32.9151361 47.2186674,32.9151361 C45.9877382,32.9151361 44.9743659,31.9135712 44.9743659,30.6895604 L44.9743659,28.8458886 C44.9743659,30.0698994 45.9877382,31.0714992 47.2186674,31.0714992 C48.4493513,31.0714992 49.462969,30.0698994 49.462969,28.8458886" id="Fill-20" fill="#07222A"></path><path d="M44.3760316,38.4498241 C44.3760316,49.2314433 35.5881531,57.9716377 24.7477908,57.9716377 C13.9073933,57.9716377 5.11954997,49.2314433 5.11954997,38.4498241 C5.11954997,27.6682398 13.9073933,18.9280454 24.7477908,18.9280454 C35.5881531,18.9280454 44.3760316,27.6682398 44.3760316,38.4498241" id="Fill-22" fill="#6D4526"></path></g><g id="Group-27" transform="translate(10.344828, 16.886781)"><mask id="mask-4" fill="white"><use xlink:href="#path-3"></use></mask><g id="Clip-26"></g><path d="M0.0347866745,19.5341252 C0.0347866745,30.3157444 8.82266511,39.0559737 19.6630275,39.0559737 C30.5034249,39.0559737 39.2913033,30.3157444 39.2913033,19.5341252 C39.2913033,8.752506 30.5034249,0.0123116066 19.6630275,0.0123116066 C8.82266511,0.0123116066 0.0347866745,8.752506 0.0347866745,19.5341252" id="Fill-25" fill="url(#linearGradient-5)" mask="url(#mask-4)"></path></g><g id="Group-34" transform="translate(21.390999, 28.989125)" fill="#152F3D"><path d="M5.35073057,2.6836582 C5.35073057,4.15023911 4.15535944,5.33912876 2.68078317,5.33912876 C1.2062069,5.33912876 0.0108007013,4.15023911 0.0108007013,2.6836582 C0.0108007013,1.21704242 1.2062069,0.028152773 2.68078317,0.028152773 C4.15535944,0.028152773 5.35073057,1.21704242 5.35073057,2.6836582" id="Fill-28"></path><path d="M17.2229316,2.6836582 C17.2229316,4.15023911 16.0275605,5.33912876 14.5529492,5.33912876 C13.0784079,5.33912876 11.8830018,4.15023911 11.8830018,2.6836582 C11.8830018,1.21704242 13.0784079,0.028152773 14.5529492,0.028152773 C16.0275605,0.028152773 17.2229316,1.21704242 17.2229316,2.6836582" id="Fill-30"></path><path d="M12.2417288,13.2467098 C12.2417288,15.237807 10.6188182,16.851883 8.61686616,16.851883 C6.61491409,16.851883 4.99200351,15.237807 4.99200351,13.2467098 C4.99200351,11.2555777 6.61491409,9.64150166 8.61686616,9.64150166 C10.6188182,9.64150166 12.2417288,11.2555777 12.2417288,13.2467098" id="Fill-32"></path></g></g><g id="Azure-Border" stroke="#0078D4" stroke-width="4"><rect x="2" y="2" width="96" height="96" rx="48"></rect></g></g></g></g></svg>