<svg xmlns="http://www.w3.org/2000/svg" xmlns:xlink="http://www.w3.org/1999/xlink" viewBox="0 0 100 100"><defs><rect id="a" x="0" y="0" width="96" height="96" rx="48"/><filter x="-5.6%" y="-6.6%" width="111.1%" height="113.2%" filterUnits="objectBoundingBox" id="c"><feOffset dy="1" in="SourceAlpha" result="shadowOffsetOuter1"/><feColorMatrix values="0 0 0 0 0 0 0 0 0 0 0 0 0 0 0 0 0 0 0.0964956975 0" in="shadowOffsetOuter1" result="shadowMatrixOuter1"/><feMerge><feMergeNode in="shadowMatrixOuter1"/><feMergeNode in="SourceGraphic"/></feMerge></filter><filter x="-34.2%" y="-22.4%" width="168.4%" height="144.8%" filterUnits="objectBoundingBox" id="d"><feOffset dy="3" in="SourceAlpha" result="shadowOffsetOuter1"/><feColorMatrix values="0 0 0 0 0 0 0 0 0 0 0 0 0 0 0 0 0 0 0.102921196 0" in="shadowOffsetOuter1" result="shadowMatrixOuter1"/><feMerge><feMergeNode in="shadowMatrixOuter1"/><feMergeNode in="SourceGraphic"/></feMerge></filter></defs><g fill="none" fill-rule="evenodd"><g transform="translate(2 2)"><mask id="b" fill="#fff"><use xlink:href="#a"/></mask><use fill="#C0DDF4" xlink:href="#a"/><path d="M24.542 24.935h46.916a4 4 0 0 1 4 4v38.13a4 4 0 0 1-4 4H24.542a4 4 0 0 1-4-4v-38.13a4 4 0 0 1 4-4z" stroke="#384B58" stroke-width="1.5" stroke-linecap="square" stroke-linejoin="round" stroke-dasharray="4,4" mask="url(#b)"/><g filter="url(#c)" mask="url(#b)"><path d="M67.6 30.5H28.4c-.772 0-1.4.628-1.4 1.4v32.2c0 .771.628 1.4 1.4 1.4h39.2c.771 0 1.4-.629 1.4-1.4V31.9c0-.772-.629-1.4-1.4-1.4" fill="#182A37"/><path d="M67.6 29.1H28.4c-1.54 0-2.8 1.26-2.8 2.8v32.2c0 1.54 1.26 2.8 2.8 2.8h39.2c1.54 0 2.8-1.26 2.8-2.8V31.9c0-1.54-1.26-2.8-2.8-2.8zm0 1.4c.771 0 1.4.628 1.4 1.4v32.2c0 .771-.629 1.4-1.4 1.4H28.4c-.772 0-1.4-.629-1.4-1.4V31.9c0-.772.628-1.4 1.4-1.4h39.2z" fill="#384B58"/><path d="M52.346 60.7h-7.7a.7.7 0 1 1 0-1.4h7.7a.7.7 0 1 1 0 1.4" fill="#FFFFFE"/><path d="M59.346 60.7h-4.2a.7.7 0 1 1 0-1.4h4.2a.7.7 0 1 1 0 1.4" fill="#55B7D9"/><path d="M47.446 55.8h-2.8a.7.7 0 1 1 0-1.4h2.8a.7.7 0 1 1 0 1.4" fill="#EFB252"/><path d="M52.346 50.9h-7.7a.7.7 0 1 1 0-1.4h7.7a.7.7 0 1 1 0 1.4m10.5 0h-7.7a.7.7 0 1 1 0-1.4h7.7a.7.7 0 1 1 0 1.4" fill="#FFFFFE"/><path d="M57.946 55.8h-7.7a.7.7 0 1 1 0-1.4h7.7a.7.7 0 1 1 0 1.4" fill="#DF5142"/><path d="M44.646 42.807a.7.7 0 0 1-.495-1.195l1.605-1.605-1.605-1.605a.7.7 0 1 1 .99-.99l2.1 2.1a.7.7 0 0 1 0 .99l-2.1 2.1a.698.698 0 0 1-.495.205m7 0h-2.8a.7.7 0 1 1 0-1.4h2.8a.7.7 0 1 1 0 1.4" fill="#697D85"/><path fill="#384B58" d="M40.446 65.5h1.4v-35h-1.4z"/><path d="M35.21 50.2a1.4 1.4 0 1 1-2.8-.001 1.4 1.4 0 0 1 2.8.001m0 4.9a1.4 1.4 0 1 1-2.8-.001 1.4 1.4 0 0 1 2.8.001m0 4.9a1.4 1.4 0 1 1-2.8-.001 1.4 1.4 0 0 1 2.8.001" fill="#E1E4E1"/><path d="M37.924 42.199l-3.919 2.03v-4.195l3.919-2.03V42.2zm-4.354-2.165v4.195l-3.918-2.03v-4.195l3.918 2.03zm-3.7-2.374l3.918-2.03 3.918 2.03-3.918 2.029-3.919-2.03z" fill="#FFFFFE" fill-rule="nonzero"/></g><g filter="url(#d)" mask="url(#b)"><path d="M76.925 47.172l-2.422-1.079a.443.443 0 0 0-.584.224l-10.605 23.82c-.449 1.01-.115 1.883.896 2.334 1.012.45 1.885.113 2.334-.896l10.605-23.82a.443.443 0 0 0-.224-.583" fill="#84522D"/><path d="M78.236 50.745l.212-.476a.442.442 0 0 0-.224-.584l-6.459-2.875a.443.443 0 0 0-.583.224l-.18.403-.852-1.346-2.826-1.259a.443.443 0 0 0-.583.224l-2.157 4.845a.443.443 0 0 0 .224.583l2.826 1.259 1.57-.269-.18.404a.443.443 0 0 0 .225.584l6.459 2.875c.223.1.485-.002.583-.224l.148-.33c1.672 1.121 2.724 3.234 2.803 5.727a.44.44 0 0 0 .349.417c.2.04.4-.055.49-.237l.058-.115c.04-.079.08-.157.118-.242 1.65-3.706.723-7.79-2.02-9.588" fill="#ADBDC4"/><path d="M70.864 53.18l-.54 1.212 1.212.539c.223.1.322.361.224.583l-7.55 16.957c1.012.45 1.885.113 2.334-.896l7.55-16.956-3.23-1.438" fill="#6D4526"/><path d="M78.368 52.623l.584-1.312a5.996 5.996 0 0 0-.715-.566l-.867 1.946-1.21-.539-6.057-2.696.9-2.019-.853-1.346-.898 2.018a.885.885 0 0 1-1.167.448l-2.423-1.078-1.078 2.422a.443.443 0 0 0 .224.583l2.826 1.259 1.57-.269-.18.404a.443.443 0 0 0 .225.584l6.459 2.875c.223.1.485-.002.583-.224l.148-.33c1.672 1.121 2.724 3.234 2.803 5.727a.44.44 0 0 0 .262.388l.015.006a6.621 6.621 0 0 0-.943-6.907c-.319-.389-.413-.914-.208-1.374" fill="#8BA6B1"/></g></g><rect x="2" y="2" width="96" height="96" rx="48" stroke="#0078D4" stroke-width="4"/></g></svg>