<svg xmlns="http://www.w3.org/2000/svg" xmlns:xlink="http://www.w3.org/1999/xlink" viewBox="0 0 100 100" version="1.1"><!-- Generator: Sketch 51.3 (57544) - http://www.bohemiancoding.com/sketch --><title>Working with Connected Field Service and IoT/register-and-manage-customer-devices-with-connected-field-service</title><desc>Created with Sketch.</desc><defs><rect id="path-1" x="0" y="0" width="96" height="96" rx="48"></rect><filter x="-1.7%" y="-1.6%" width="103.3%" height="106.2%" filterUnits="objectBoundingBox" id="filter-3"><feOffset dx="0" dy="2" in="SourceAlpha" result="shadowOffsetOuter1"></feOffset><feColorMatrix values="0 0 0 0 0   0 0 0 0 0   0 0 0 0 0  0 0 0 0.0993263134 0" type="matrix" in="shadowOffsetOuter1" result="shadowMatrixOuter1"></feColorMatrix><feMerge><feMergeNode in="shadowMatrixOuter1"></feMergeNode><feMergeNode in="SourceGraphic"></feMergeNode></feMerge></filter><polygon id="path-4" points="0 0.04 20 0.04 20 12 0 12"></polygon></defs><g id="Badges" stroke="none" stroke-width="1" fill="none" fill-rule="evenodd"><g id="Working-with-Connected-Field-Service-and-IoT" transform="translate(-579.000000, -727.000000)"><g id="Working-with-Connected-Field-Service-and-IoT/register-and-manage-customer-devices-with-connected-field-service" transform="translate(579.000000, 727.000000)"><g id="Mask" transform="translate(2.000000, 2.000000)"><mask id="mask-2" fill="white"><use xlink:href="#path-1"></use></mask><use id="BG" fill="#C0DDF4" xlink:href="#path-1"></use><g id="Group-4" filter="url(#filter-3)" mask="url(#mask-2)"><g transform="translate(21.000000, 14.000000)"><path d="M60,34 C60,41.179 54.179,47 47,47 C39.82,47 34,41.179 34,34 C34,26.821 39.82,21 47,21 C54.179,21 60,26.821 60,34" id="Fill-41" fill="#7CB65A"></path><path d="M54.414,28.586 C53.632,27.805 52.366,27.805 51.585,28.586 L44.994,35.178 L42.613,32.818 C42.555,32.738 42.498,32.658 42.424,32.586 C41.643,31.805 40.376,31.805 39.596,32.586 C38.823,33.357 38.818,34.607 39.576,35.39 L39.551,35.414 L43.585,39.414 C44.367,40.195 45.633,40.195 46.415,39.414 L54.408,31.419 C54.41,31.418 54.412,31.416 54.414,31.414 C55.195,30.633 55.195,29.365 54.414,28.586" id="Fill-42" fill="#FFFFFE"></path><path d="M47,17 C47.337,17 47.667,17.031 48,17.051 L48,10 C48,7.8 46.2,6 44,6 L4,6 C1.799,6 0,7.8 0,10 L0,60 C0,62.2 1.799,64 4,64 L44,64 C46.2,64 48,62.2 48,60 L48,50.949 C47.667,50.969 47.337,51 47,51 C46.328,51 45.662,50.95 45,50.874 L45,51.883 C36.001,50.887 29,43.264 29,34 C29,24.736 36.001,17.113 45,16.117 L45,17.126 C45.662,17.05 46.328,17 47,17" id="Fill-43" fill="#30404D"></path><path d="M30,34 C30,25.304 36.566,18.123 45,17.128 L45,11 C45,9.9 44.099,9 43,9 L5,9 C3.9,9 3,9.9 3,11 L3,59 C3,60.1 3.9,61 5,61 L43,61 C44.099,61 45,60.1 45,59 L45,50.872 C36.566,49.877 30,42.696 30,34" id="Fill-44" fill="#E1E4E1"></path><g id="Group-48" stroke-width="1" fill="none" transform="translate(14.000000, 0.000000)"><mask id="mask-5" fill="white"><use xlink:href="#path-4"></use></mask><g id="Clip-46"></g><path d="M19,11 L1,11 C0.45,11 0,10.55 0,10 L0,11 C0,11.55 0.45,12 1,12 L19,12 C19.549,12 20,11.55 20,11 L20,10 C20,10.55 19.549,11 19,11" id="Fill-45" fill="#546670" mask="url(#mask-5)"></path><path d="M10,2 C11.103,2 12,2.897 12,4 L8,4 C8,2.897 8.896,2 10,2 Z M19,4 L14,4 C14,1.791 12.208,0 10,0 C7.791,0 6,1.791 6,4 L1,4 C0.45,4 0,4.45 0,5 L0,10 C0,10.55 0.45,11 1,11 L19,11 C19.549,11 20,10.55 20,10 L20,5 C20,4.45 19.549,4 19,4 Z" id="Fill-47" fill="#A9B3B6" mask="url(#mask-5)"></path></g><polygon id="Fill-49" fill="#182A37" points="34 9 35 9 35 6 34 6"></polygon><polygon id="Fill-50" fill="#182A37" points="13 9 14 9 14 6 13 6"></polygon><path d="M25,50 L11,50 C9.895,50 9,49.104 9,48 C9,46.896 9.895,46 11,46 L25,46 C26.104,46 27,46.896 27,48 C27,49.104 26.104,50 25,50" id="Fill-51" fill="#C5CCCD"></path><path d="M31.114,28 L11,28 C9.895,28 9,28.896 9,30 C9,31.104 9.895,32 11,32 L30.128,32 C30.292,30.607 30.632,29.27 31.114,28" id="Fill-52" fill="#C5CCCD"></path><path d="M38.25,19.451 C37.908,19.173 37.476,19 37,19 L11,19 C9.895,19 9,19.896 9,21 C9,22.104 9.895,23 11,23 L34.062,23 C35.253,21.601 36.669,20.406 38.25,19.451" id="Fill-53" fill="#C5CCCD"></path><path d="M30.281,37 L11,37 C9.895,37 9,37.896 9,39 C9,40.104 9.895,41 11,41 L31.525,41 C30.953,39.74 30.532,38.401 30.281,37" id="Fill-54" fill="#C5CCCD"></path></g></g></g><g id="Azure-Border" stroke="#0078D4" stroke-width="4"><rect x="2" y="2" width="96" height="96" rx="48"></rect></g></g></g></g></svg>