<svg xmlns="http://www.w3.org/2000/svg" viewBox="0 0 100 100"><g fill="none" fill-rule="evenodd"><rect fill="#253B5D" x="2" y="2" width="96" height="96" rx="48"/><path d="M13.148 30.707v42.987a5.528 5.528 0 0 0 5.527 5.53h55.762a5.528 5.528 0 0 0 5.528-5.53V30.707H13.148z" fill="#CFCFCF"/><path d="M79.965 26.26a5.528 5.528 0 0 0-5.528-5.53H18.674a5.528 5.528 0 0 0-5.527 5.53v4.448h66.818V26.26z" fill="#E6E6E6"/><path d="M21.003 25.796a2.455 2.455 0 1 1-4.91.001 2.455 2.455 0 0 1 4.91 0" fill="#818181"/><path d="M28.368 25.796a2.455 2.455 0 1 1-4.91.001 2.455 2.455 0 0 1 4.91 0" fill="#B5B5B5"/><path d="M35.734 25.796a2.455 2.455 0 1 1-4.91.001 2.455 2.455 0 0 1 4.91 0" fill="#696969"/><path d="M72.334 28.252H41.69a1.865 1.865 0 0 1-1.864-1.865v-1.182c0-1.03.834-1.864 1.864-1.864h30.644c1.03 0 1.864.834 1.864 1.864v1.182a1.865 1.865 0 0 1-1.864 1.865" fill="#CFCFCF"/><path fill="#E6E6E6" d="M16.912 74.909h59.742V33.982H16.912z"/><path stroke="#0071BC" stroke-width=".9" d="M19.305 57.102l1.455-4.366 2.574 6.38 1.567-4.141 2.35 11.642 2.35-15.672 2.686 6.717 1.791-3.247 3.693 8.396 4.03-9.291 7.386 16.12 6.939-16.008"/><path d="M79.513 55.989c-6.942 6.943-18.196 6.943-25.136 0-6.942-6.943-6.942-18.198 0-25.141 6.94-6.943 18.194-6.943 25.136 0 6.94 6.943 6.94 18.198 0 25.14" fill="#E6E6E6"/><path d="M79.513 55.989c-6.942 6.943-18.196 6.943-25.136 0-6.942-6.943-6.942-18.198 0-25.141 6.94-6.943 18.194-6.943 25.136 0 6.94 6.943 6.94 18.198 0 25.14z" stroke="#696969" stroke-width="3.6"/><path d="M79.513 55.989l3.816 3.816" fill="#E6E6E6"/><path d="M79.513 55.989l3.816 3.816" stroke="#696969" stroke-width="3.6"/><path d="M84.947 57L81 60.948l12.685 12.106a49.496 49.496 0 0 0 2.093-5.802L84.948 57z" fill="#696969"/><path stroke="#0071BC" stroke-width="3.6" d="M54.895 56.206l4.924-9.067 5.708 5.71 6.827-13.658"/><path d="M75.936 39.08a4.03 4.03 0 1 1-8.06 0 4.03 4.03 0 0 1 8.06 0" fill="red"/><path d="M79.587 56.063c-6.94 6.943-18.194 6.943-25.136 0-6.94-6.942-6.94-18.198 0-25.141 6.942-6.942 18.195-6.942 25.136 0 6.942 6.943 6.942 18.199 0 25.14z" stroke="#696969" stroke-width="3.6"/><path d="M56.431 41.765c.765-6.294 5.706-11.047 11.709-11.855-7.241-.568-13.708 4.654-14.592 11.934-.907 7.476 4.417 14.27 11.891 15.178 1.181.143 2.34.115 3.467-.037-.195-.015-.388-.017-.585-.04-7.473-.908-12.797-7.703-11.89-15.18" fill="#FFF"/><g stroke="#0078D4" stroke-width="4"><rect x="2" y="2" width="96" height="96" rx="48"/></g></g></svg>