<svg xmlns="http://www.w3.org/2000/svg" xmlns:xlink="http://www.w3.org/1999/xlink" viewBox="0 0 100 100"><defs><filter x="-1.4%" y="-1.9%" width="102.9%" height="107.5%" filterUnits="objectBoundingBox" id="a"><feOffset dy="2" in="SourceAlpha" result="shadowOffsetOuter1"/><feColorMatrix values="0 0 0 0 0 0 0 0 0 0 0 0 0 0 0 0 0 0 0.102496603 0" in="shadowOffsetOuter1" result="shadowMatrixOuter1"/><feMerge><feMergeNode in="shadowMatrixOuter1"/><feMergeNode in="SourceGraphic"/></feMerge></filter><path id="b" d="M14.382 51.996h39.827V29.87H14.382z"/><filter x="-2.5%" y="-4.5%" width="105%" height="109%" filterUnits="objectBoundingBox" id="c"><feOffset dy="2" in="SourceAlpha" result="shadowOffsetInner1"/><feComposite in="shadowOffsetInner1" in2="SourceAlpha" operator="arithmetic" k2="-1" k3="1" result="shadowInnerInner1"/><feColorMatrix values="0 0 0 0 0 0 0 0 0 0 0 0 0 0 0 0 0 0 0.102694746 0" in="shadowInnerInner1"/></filter></defs><g fill="none" fill-rule="evenodd"><rect fill="#55A2FF" x="2" y="2" width="96" height="96" rx="48"/><g filter="url(#a)" transform="translate(15 21.427)"><path fill="#E1E4E1" d="M5.532 51.996V11.595L62.86.225v51.771z"/><path d="M14.382 15.488c-1.221 0-2.213.99-2.213 2.213v34.295h44.253V17.701c0-1.223-.99-2.213-2.213-2.213H14.382z" fill="#546670"/><path fill="#30404D" d="M14.382 21.02h39.827v-2.213H14.382zm0 5.531h39.827V24.34H14.382z"/><use fill="#4C91E5" xlink:href="#b"/><use fill="#000" filter="url(#c)" xlink:href="#b"/><path d="M6.638 43.146c-.379 0-.75.04-1.106.114v8.736h5.64a5.665 5.665 0 0 0 .997-3.217c0-3.112-2.477-5.633-5.531-5.633" fill="#C5CCCD"/><path d="M10.066 51.996a5.673 5.673 0 0 0 .997-3.217c0-3.112-2.477-5.633-5.531-5.633C2.477 43.146 0 45.667 0 48.779c0 1.196.37 2.304.996 3.217h9.07" fill="#87BF5F"/><path d="M8.837 44.265a5.486 5.486 0 0 1 1.12 3.306c0 1.818-.889 3.418-2.243 4.425h2.217a5.483 5.483 0 0 0 1.132-3.319c0-1.81-.882-3.401-2.226-4.412" fill="#6EA846"/><path d="M64.079 51.996c.46-.64.73-1.415.73-2.252 0-2.178-1.817-3.943-4.056-3.943-2.24 0-4.057 1.765-4.057 3.943 0 .837.271 1.613.73 2.252h6.653" fill="#6AA143"/><path d="M67.99 51.996c.55-.8.876-1.769.876-2.815 0-2.723-2.18-4.929-4.868-4.929s-4.868 2.206-4.868 4.929c0 1.046.325 2.015.876 2.815h7.983" fill="#87BF5F"/><path d="M59.445 46.029c-1.595.531-2.749 1.984-2.749 3.715 0 .837.271 1.613.73 2.252h1.768a4.954 4.954 0 0 1-.875-2.815c0-1.2.424-2.298 1.126-3.152m7.461-.797a4.78 4.78 0 0 1 .986 2.892c0 1.591-.782 2.99-1.974 3.872h2.071c.617-.81.877-1.808.877-2.904 0-1.584-.777-2.977-1.96-3.86" fill="#6EA846"/></g><path d="M66.506 75.59H50.544a.45.45 0 0 1-.45-.45V62.652a.45.45 0 0 1 .45-.45h15.962a.45.45 0 0 1 .45.45V75.14a.45.45 0 0 1-.45.45z" fill="#546670"/><path d="M66.429 75.59c.29 0 .527-.241.527-.536V62.737h-7.64a.796.796 0 0 0-.791.803v10.71a.796.796 0 0 1-.79.804h-7.641c0 .295.237.536.527.536h15.808" fill="#30404D"/><path d="M52.136 74.107a.59.59 0 0 1-.583.593.59.59 0 0 1-.584-.593.59.59 0 0 1 .584-.593.59.59 0 0 1 .583.593" fill="#30404D"/><path d="M51.963 74.527a.595.595 0 0 0 0-.839l-.822.839a.574.574 0 0 0 .822 0" fill="#182A37"/><path d="M52.136 63.684a.59.59 0 0 1-.584.593.59.59 0 0 1-.583-.593c0-.328.262-.593.583-.593a.59.59 0 0 1 .584.593" fill="#30404D"/><path d="M51.964 64.103a.595.595 0 0 0 0-.838l-.823.838a.574.574 0 0 0 .823 0" fill="#182A37"/><path d="M66.08 74.107a.59.59 0 0 1-.583.593.59.59 0 0 1-.583-.593.59.59 0 0 1 .583-.593.59.59 0 0 1 .584.593" fill="#30404D"/><path d="M65.909 74.527a.597.597 0 0 0 0-.839l-.823.839a.574.574 0 0 0 .823 0" fill="#182A37"/><path d="M66.08 63.684a.59.59 0 0 1-.583.593.59.59 0 0 1-.583-.593c0-.328.263-.593.583-.593a.59.59 0 0 1 .584.593" fill="#30404D"/><path d="M65.909 64.103a.598.598 0 0 0 0-.838l-.823.838a.574.574 0 0 0 .823 0" fill="#182A37"/><path d="M58.439 72.245c-1.885 0-3.416-1.51-3.501-3.403-.003.054-.009.107-.009.162 0 1.969 1.573 3.565 3.51 3.565 1.937 0 3.51-1.596 3.51-3.565 0-.055-.007-.108-.01-.162-.084 1.893-1.616 3.403-3.5 3.403" fill="#30404D"/><path d="M61.948 68.68c0 1.969-1.572 3.565-3.51 3.565-1.936 0-3.509-1.596-3.509-3.565 0-1.97 1.573-3.565 3.51-3.565 1.937 0 3.51 1.596 3.51 3.565" fill="#6E828F"/><path d="M60.726 70.109v.148l-3.493-.037v-.15l3.493.039zm-1.355-.289l-1.1-1.316v-.149l1.213 1.452-.113.013zm-3.302-.05l1-.104 1.755-3.309v.149l-1.756 3.308-1 .104v-.149z" fill="#30404D"/><path fill="#ADBDC4" d="M58.96 66.923l-.689 1.432 1.213 1.452-2.25.264 3.492.038zm-.136-.566l-1.581 1.367-1.174 2.045 1-.103z"/><g><path d="M48.455 75.59H32.493a.45.45 0 0 1-.45-.45V62.652a.45.45 0 0 1 .45-.45h15.963a.45.45 0 0 1 .45.45V75.14a.45.45 0 0 1-.45.45z" fill="#546670"/><path d="M48.378 75.59c.29 0 .527-.241.527-.536V62.737h-7.64a.796.796 0 0 0-.79.803v10.71a.796.796 0 0 1-.791.804h-7.64c0 .295.236.536.526.536h15.808" fill="#30404D"/><path d="M34.086 74.107a.59.59 0 0 1-.584.593.59.59 0 0 1-.583-.593c0-.327.262-.593.583-.593a.59.59 0 0 1 .584.593" fill="#30404D"/><path d="M33.913 74.527a.595.595 0 0 0 0-.839l-.823.839a.574.574 0 0 0 .823 0" fill="#182A37"/><path d="M34.085 63.684a.59.59 0 0 1-.583.593.59.59 0 0 1-.584-.593.59.59 0 0 1 .584-.593c.32 0 .583.265.583.593" fill="#30404D"/><path d="M33.913 64.103a.595.595 0 0 0 0-.838l-.823.838a.574.574 0 0 0 .823 0" fill="#182A37"/><path d="M48.03 74.107a.59.59 0 0 1-.583.593.59.59 0 0 1-.584-.593.59.59 0 0 1 .584-.593.59.59 0 0 1 .583.593" fill="#30404D"/><path d="M47.858 74.527a.597.597 0 0 0 0-.839l-.822.839a.574.574 0 0 0 .822 0" fill="#182A37"/><path d="M48.03 63.684a.59.59 0 0 1-.583.593.59.59 0 0 1-.584-.593.59.59 0 0 1 .584-.593c.32 0 .583.265.583.593" fill="#30404D"/><path d="M47.858 64.103a.598.598 0 0 0 0-.838l-.822.838a.574.574 0 0 0 .822 0" fill="#182A37"/><g><path d="M40.388 72.245c-1.884 0-3.416-1.51-3.5-3.403-.004.054-.01.107-.01.162 0 1.969 1.573 3.565 3.51 3.565 1.937 0 3.51-1.596 3.51-3.565 0-.055-.006-.108-.01-.162-.084 1.893-1.615 3.403-3.5 3.403" fill="#30404D"/><path d="M43.898 68.68c0 1.969-1.573 3.565-3.51 3.565-1.937 0-3.51-1.596-3.51-3.565 0-1.97 1.573-3.565 3.51-3.565 1.937 0 3.51 1.596 3.51 3.565" fill="#6E828F"/><path d="M42.676 70.109v.148l-3.493-.037v-.15l3.493.039zm-1.356-.289l-1.1-1.316v-.149l1.214 1.452-.114.013zm-3.302-.05l1-.104 1.756-3.309v.149l-1.756 3.308-1 .104v-.149z" fill="#30404D"/><path fill="#ADBDC4" d="M40.91 66.923l-.69 1.432 1.214 1.452-2.251.264 3.493.038zm-.136-.566l-1.582 1.367-1.174 2.045 1-.103z"/></g></g><g stroke="#0078D4" stroke-width="4"><rect x="2" y="2" width="96" height="96" rx="48"/></g></g></svg>