<svg xmlns="http://www.w3.org/2000/svg" xmlns:xlink="http://www.w3.org/1999/xlink" viewBox="0 0 100 100" version="1.1"><!-- Generator: Sketch 52.5 (67469) - http://www.bohemiancoding.com/sketch --><title>tour-azure-portal</title><desc>Created with Sketch.</desc><g id="Page-1" stroke="none" stroke-width="1" fill="none" fill-rule="evenodd"><g id="tour-azure-portal" transform="translate(2.000000, 2.000000)"><rect id="BG" fill="#C0DDF4" x="0" y="0" width="96" height="96" rx="48"></rect><g id="Azure-Border" stroke="#0078D4" stroke-width="4"><rect id="Rectangle" x="0" y="0" width="96" height="96" rx="48"></rect></g><rect id="Rectangle" fill="#FFFFFF" x="15" y="18" width="66" height="59" rx="7"></rect><rect id="Rectangle" fill="#4A4A4A" x="15" y="18" width="66" height="9"></rect><g id="gear" transform="translate(39.000000, 40.000000) scale(-1, 1) rotate(-180.000000) translate(-39.000000, -40.000000) translate(30.000000, 31.000000)" fill="#000000" fill-rule="nonzero"><path d="M12,9 C12,9.828125 11.7070312,10.5351562 11.1210937,11.1210938 C10.5351562,11.7070312 9.828125,12 9,12 C8.171875,12 7.46484375,11.7070312 6.87890625,11.1210938 C6.29296875,10.5351562 6,9.828125 6,9 C6,8.171875 6.29296875,7.46484375 6.87890625,6.87890625 C7.46484375,6.29296875 8.171875,6 9,6 C9.828125,6 10.5351562,6.29296875 11.1210937,6.87890625 C11.7070312,7.46484375 12,8.171875 12,9 Z M18,10.2773438 L18,7.67578125 C18,7.58203125 17.96875,7.4921875 17.90625,7.40625 C17.84375,7.3203125 17.765625,7.26953125 17.671875,7.25390625 L15.5039062,6.92578125 C15.3554688,6.50390625 15.203125,6.1484375 15.046875,5.859375 C15.3203125,5.46875 15.7382812,4.9296875 16.3007812,4.2421875 C16.3789062,4.1484375 16.4179688,4.05078125 16.4179688,3.94921875 C16.4179688,3.84765625 16.3828125,3.7578125 16.3125,3.6796875 C16.1015625,3.390625 15.7148438,2.96875 15.1523438,2.4140625 C14.5898438,1.859375 14.2226563,1.58203125 14.0507812,1.58203125 C13.9570312,1.58203125 13.8554688,1.6171875 13.7460938,1.6875 L12.1289062,2.953125 C11.7851562,2.7734375 11.4296875,2.625 11.0625,2.5078125 C10.9375,1.4453125 10.8242187,0.71875 10.7226562,0.328125 C10.6679688,0.109375 10.5273438,0 10.3007812,0 L7.69921875,0 C7.58984375,0 7.49414062,0.033203125 7.41210938,0.099609375 C7.33007812,0.166015625 7.28515625,0.25 7.27734375,0.3515625 L6.94921875,2.5078125 C6.56640625,2.6328125 6.21484375,2.77734375 5.89453125,2.94140625 L4.2421875,1.6875 C4.1640625,1.6171875 4.06640625,1.58203125 3.94921875,1.58203125 C3.83984375,1.58203125 3.7421875,1.625 3.65625,1.7109375 C2.671875,2.6015625 2.02734375,3.2578125 1.72265625,3.6796875 C1.66796875,3.7578125 1.640625,3.84765625 1.640625,3.94921875 C1.640625,4.04296875 1.671875,4.1328125 1.734375,4.21875 C1.8515625,4.3828125 2.05078125,4.64257813 2.33203125,4.99804688 C2.61328125,5.35351562 2.82421875,5.62890625 2.96484375,5.82421875 C2.75390625,6.21484375 2.59375,6.6015625 2.484375,6.984375 L0.33984375,7.30078125 C0.23828125,7.31640625 0.15625,7.36523438 0.09375,7.44726562 C0.03125,7.52929688 0,7.62109375 0,7.72265625 L0,10.3242188 C0,10.4179688 0.03125,10.5078125 0.09375,10.59375 C0.15625,10.6796875 0.23046875,10.7304688 0.31640625,10.7460938 L2.49609375,11.0742188 C2.60546875,11.4335938 2.7578125,11.7929688 2.953125,12.1523438 C2.640625,12.5976562 2.22265625,13.1367188 1.69921875,13.7695312 C1.62109375,13.8632812 1.58203125,13.9570312 1.58203125,14.0507812 C1.58203125,14.1289062 1.6171875,14.21875 1.6875,14.3203125 C1.890625,14.6015625 2.27539062,15.0214844 2.84179688,15.5800781 C3.40820312,16.1386719 3.77734375,16.4179688 3.94921875,16.4179688 C4.05078125,16.4179688 4.15234375,16.3789062 4.25390625,16.3007812 L5.87109375,15.046875 C6.21484375,15.2265625 6.5703125,15.375 6.9375,15.4921875 C7.0625,16.5546875 7.17578125,17.28125 7.27734375,17.671875 C7.33203125,17.890625 7.47265625,18 7.69921875,18 L10.3007812,18 C10.4101563,18 10.5058594,17.9667969 10.5878906,17.9003906 C10.6699219,17.8339844 10.7148438,17.75 10.7226562,17.6484375 L11.0507812,15.4921875 C11.4335938,15.3671875 11.7851562,15.2226562 12.1054688,15.0585938 L13.7695312,16.3125 C13.8398438,16.3828125 13.9335938,16.4179688 14.0507812,16.4179688 C14.1523438,16.4179688 14.25,16.3789062 14.34375,16.3007812 C15.3515625,15.3710938 15.9960938,14.7070312 16.2773438,14.3085938 C16.3320312,14.2460938 16.359375,14.1601562 16.359375,14.0507812 C16.359375,13.9570312 16.328125,13.8671875 16.265625,13.78125 C16.1484375,13.6171875 15.9492188,13.3574219 15.6679688,13.0019531 C15.3867188,12.6464844 15.1757812,12.3710937 15.0351562,12.1757812 C15.2382812,11.7851562 15.3984375,11.4023438 15.515625,11.0273438 L17.6601562,10.6992188 C17.7617188,10.6835937 17.84375,10.6347656 17.90625,10.5527344 C17.96875,10.4707031 18,10.3789062 18,10.2773438 Z" id="path3029"></path></g><g id="gear" transform="translate(58.500000, 39.500000) scale(-1, 1) rotate(-180.000000) translate(-58.500000, -39.500000) translate(48.000000, 29.000000)" fill="#565456" fill-rule="nonzero"><path d="M14,10.5 C14,11.4661458 13.6582031,12.2910156 12.9746094,12.9746094 C12.2910156,13.6582031 11.4661458,14 10.5,14 C9.53385417,14 8.70898437,13.6582031 8.02539062,12.9746094 C7.34179687,12.2910156 7,11.4661458 7,10.5 C7,9.53385417 7.34179687,8.70898438 8.02539062,8.02539062 C8.70898437,7.34179688 9.53385417,7 10.5,7 C11.4661458,7 12.2910156,7.34179688 12.9746094,8.02539062 C13.6582031,8.70898438 14,9.53385417 14,10.5 Z M21,11.9902344 L21,8.95507812 C21,8.84570312 20.9635417,8.74088542 20.890625,8.640625 C20.8177083,8.54036458 20.7265625,8.48111979 20.6171875,8.46289062 L18.0878906,8.08007812 C17.9147135,7.58789062 17.7369792,7.17317708 17.5546875,6.8359375 C17.8736979,6.38020833 18.3613281,5.75130208 19.0175781,4.94921875 C19.108724,4.83984375 19.1542969,4.72591146 19.1542969,4.60742188 C19.1542969,4.48893229 19.1132812,4.38411458 19.03125,4.29296875 C18.7851562,3.95572917 18.3339844,3.46354167 17.6777344,2.81640625 C17.0214844,2.16927083 16.593099,1.84570312 16.3925781,1.84570312 C16.2832031,1.84570312 16.1647135,1.88671875 16.0371094,1.96875 L14.1503906,3.4453125 C13.749349,3.23567708 13.3346354,3.0625 12.90625,2.92578125 C12.7604167,1.68619792 12.6282552,0.838541667 12.5097656,0.3828125 C12.4459635,0.127604167 12.281901,0 12.0175781,0 L8.98242188,0 C8.85481771,0 8.74316406,0.0387369792 8.64746094,0.116210938 C8.55175781,0.193684896 8.49934896,0.291666667 8.49023438,0.41015625 L8.10742188,2.92578125 C7.66080729,3.07161458 7.25065104,3.24023438 6.87695312,3.43164062 L4.94921875,1.96875 C4.85807292,1.88671875 4.74414062,1.84570312 4.60742188,1.84570312 C4.47981771,1.84570312 4.36588542,1.89583333 4.265625,1.99609375 C3.1171875,3.03515625 2.36523438,3.80078125 2.00976562,4.29296875 C1.94596354,4.38411458 1.9140625,4.48893229 1.9140625,4.60742188 C1.9140625,4.71679688 1.95052083,4.82161458 2.0234375,4.921875 C2.16015625,5.11328125 2.39257812,5.41634115 2.72070312,5.83105469 C3.04882812,6.24576823 3.29492188,6.56705729 3.45898438,6.79492188 C3.21289062,7.25065104 3.02604167,7.70182292 2.8984375,8.1484375 L0.396484375,8.51757812 C0.277994792,8.53580729 0.182291667,8.59277344 0.109375,8.68847656 C0.0364583333,8.78417969 0,8.89127604 0,9.00976562 L0,12.0449219 C0,12.1542969 0.0364583333,12.2591146 0.109375,12.359375 C0.182291667,12.4596354 0.268880208,12.5188802 0.369140625,12.5371094 L2.91210938,12.9199219 C3.03971354,13.3391927 3.21744792,13.7584635 3.4453125,14.1777344 C3.08072917,14.6972656 2.59309896,15.3261719 1.98242188,16.0644531 C1.89127604,16.1738281 1.84570312,16.2832031 1.84570312,16.3925781 C1.84570312,16.483724 1.88671875,16.5885417 1.96875,16.7070312 C2.20572917,17.0351562 2.6546224,17.5250651 3.31542969,18.1767578 C3.97623698,18.8284505 4.40690104,19.1542969 4.60742188,19.1542969 C4.72591146,19.1542969 4.84440104,19.108724 4.96289062,19.0175781 L6.84960938,17.5546875 C7.25065104,17.7643229 7.66536458,17.9375 8.09375,18.0742188 C8.23958333,19.3138021 8.37174479,20.1614583 8.49023438,20.6171875 C8.55403646,20.8723958 8.71809896,21 8.98242188,21 L12.0175781,21 C12.1451823,21 12.2568359,20.961263 12.3525391,20.8837891 C12.4482422,20.8063151 12.500651,20.7083333 12.5097656,20.5898438 L12.8925781,18.0742188 C13.3391927,17.9283854 13.749349,17.7597656 14.1230469,17.5683594 L16.0644531,19.03125 C16.1464844,19.1132812 16.2558594,19.1542969 16.3925781,19.1542969 C16.5110677,19.1542969 16.625,19.108724 16.734375,19.0175781 C17.9101562,17.9329427 18.6621094,17.1582031 18.9902344,16.6933594 C19.0540365,16.6204427 19.0859375,16.5201823 19.0859375,16.3925781 C19.0859375,16.2832031 19.0494792,16.1783854 18.9765625,16.078125 C18.8398438,15.8867188 18.6074219,15.5836589 18.2792969,15.1689453 C17.9511719,14.7542318 17.7050781,14.4329427 17.5410156,14.2050781 C17.7779948,13.749349 17.9648438,13.3027344 18.1015625,12.8652344 L20.6035156,12.4824219 C20.7220052,12.4641927 20.8177083,12.4072266 20.890625,12.3115234 C20.9635417,12.2158203 21,12.108724 21,11.9902344 Z" id="path3029"></path></g><g id="gear" transform="translate(48.500000, 60.500000) scale(-1, 1) rotate(-180.000000) translate(-48.500000, -60.500000) translate(35.000000, 47.000000)" fill="#9B9B9B" fill-rule="nonzero"><path d="M18,13.5 C18,14.7421875 17.5605469,15.8027344 16.6816406,16.6816406 C15.8027344,17.5605469 14.7421875,18 13.5,18 C12.2578125,18 11.1972656,17.5605469 10.3183594,16.6816406 C9.43945313,15.8027344 9,14.7421875 9,13.5 C9,12.2578125 9.43945313,11.1972656 10.3183594,10.3183594 C11.1972656,9.43945313 12.2578125,9 13.5,9 C14.7421875,9 15.8027344,9.43945313 16.6816406,10.3183594 C17.5605469,11.1972656 18,12.2578125 18,13.5 Z M27,15.4160156 L27,11.5136719 C27,11.3730469 26.953125,11.2382812 26.859375,11.109375 C26.765625,10.9804688 26.6484375,10.9042969 26.5078125,10.8808594 L23.2558594,10.3886719 C23.0332031,9.75585938 22.8046875,9.22265625 22.5703125,8.7890625 C22.9804688,8.203125 23.6074219,7.39453125 24.4511719,6.36328125 C24.5683594,6.22265625 24.6269531,6.07617188 24.6269531,5.92382812 C24.6269531,5.77148438 24.5742188,5.63671875 24.46875,5.51953125 C24.1523438,5.0859375 23.5722656,4.453125 22.7285156,3.62109375 C21.8847656,2.7890625 21.3339844,2.37304688 21.0761719,2.37304688 C20.9355469,2.37304688 20.7832031,2.42578125 20.6191406,2.53125 L18.1933594,4.4296875 C17.6777344,4.16015625 17.1445312,3.9375 16.59375,3.76171875 C16.40625,2.16796875 16.2363281,1.078125 16.0839844,0.4921875 C16.0019531,0.1640625 15.7910156,0 15.4511719,0 L11.5488281,0 C11.3847656,0 11.2412109,0.0498046875 11.1181641,0.149414062 C10.9951172,0.249023438 10.9277344,0.375 10.9160156,0.52734375 L10.4238281,3.76171875 C9.84960938,3.94921875 9.32226563,4.16601562 8.84179688,4.41210938 L6.36328125,2.53125 C6.24609375,2.42578125 6.09960938,2.37304688 5.92382812,2.37304688 C5.75976562,2.37304688 5.61328125,2.4375 5.484375,2.56640625 C4.0078125,3.90234375 3.04101562,4.88671875 2.58398438,5.51953125 C2.50195313,5.63671875 2.4609375,5.77148438 2.4609375,5.92382812 C2.4609375,6.06445312 2.5078125,6.19921875 2.6015625,6.328125 C2.77734375,6.57421875 3.07617188,6.96386719 3.49804687,7.49707031 C3.91992187,8.03027344 4.23632812,8.44335938 4.44726562,8.73632812 C4.13085938,9.32226562 3.890625,9.90234375 3.7265625,10.4765625 L0.509765625,10.9511719 C0.357421875,10.9746094 0.234375,11.0478516 0.140625,11.1708984 C0.046875,11.2939453 0,11.4316406 0,11.5839844 L0,15.4863281 C0,15.6269531 0.046875,15.7617187 0.140625,15.890625 C0.234375,16.0195312 0.345703125,16.0957031 0.474609375,16.1191406 L3.74414062,16.6113281 C3.90820312,17.1503906 4.13671875,17.6894531 4.4296875,18.2285156 C3.9609375,18.8964844 3.33398438,19.7050781 2.54882812,20.6542969 C2.43164062,20.7949219 2.37304688,20.9355469 2.37304688,21.0761719 C2.37304688,21.1933594 2.42578125,21.328125 2.53125,21.4804688 C2.8359375,21.9023438 3.41308594,22.5322266 4.26269531,23.3701172 C5.11230469,24.2080078 5.66601562,24.6269531 5.92382812,24.6269531 C6.07617188,24.6269531 6.22851562,24.5683594 6.38085938,24.4511719 L8.80664062,22.5703125 C9.32226563,22.8398438 9.85546875,23.0625 10.40625,23.2382812 C10.59375,24.8320312 10.7636719,25.921875 10.9160156,26.5078125 C10.9980469,26.8359375 11.2089844,27 11.5488281,27 L15.4511719,27 C15.6152344,27 15.7587891,26.9501953 15.8818359,26.8505859 C16.0048828,26.7509766 16.0722656,26.625 16.0839844,26.4726562 L16.5761719,23.2382812 C17.1503906,23.0507812 17.6777344,22.8339844 18.1582031,22.5878906 L20.6542969,24.46875 C20.7597656,24.5742188 20.9003906,24.6269531 21.0761719,24.6269531 C21.2285156,24.6269531 21.375,24.5683594 21.515625,24.4511719 C23.0273438,23.0566406 23.9941406,22.0605469 24.4160156,21.4628906 C24.4980469,21.3691406 24.5390625,21.2402344 24.5390625,21.0761719 C24.5390625,20.9355469 24.4921875,20.8007812 24.3984375,20.671875 C24.2226562,20.4257812 23.9238281,20.0361328 23.5019531,19.5029297 C23.0800781,18.9697266 22.7636719,18.5566406 22.5527344,18.2636719 C22.8574219,17.6777344 23.0976562,17.1035156 23.2734375,16.5410156 L26.4902344,16.0488281 C26.6425781,16.0253906 26.765625,15.9521484 26.859375,15.8291016 C26.953125,15.7060547 27,15.5683594 27,15.4160156 Z" id="path3029"></path></g></g></g></svg>