<svg xmlns="http://www.w3.org/2000/svg" xmlns:xlink="http://www.w3.org/1999/xlink" viewBox="0 0 100 100"><defs><filter x="-2.1%" y="-1.5%" width="104.2%" height="105.9%" filterUnits="objectBoundingBox" id="a"><feOffset dy="2" in="SourceAlpha" result="shadowOffsetOuter1"/><feColorMatrix values="0 0 0 0 0 0 0 0 0 0 0 0 0 0 0 0 0 0 0.0963541667 0" in="shadowOffsetOuter1" result="shadowMatrixOuter1"/><feMerge><feMergeNode in="shadowMatrixOuter1"/><feMergeNode in="SourceGraphic"/></feMerge></filter><path d="M14.27 37.068h3.997v9.265h-2.144v-7.545H14.27v-1.72zm9.582 9.423c-2.276 0-3.97-1.733-3.97-4.79 0-3.058 1.694-4.792 3.97-4.792 2.29 0 3.97 1.734 3.97 4.791 0 3.058-1.68 4.791-3.97 4.791zm0-1.813c1.072 0 1.813-.873 1.813-2.978 0-2.104-.74-2.978-1.813-2.978-1.059 0-1.8.874-1.8 2.978 0 2.105.741 2.978 1.8 2.978zm4.513-7.61h3.997v9.265h-2.144v-7.545h-1.853v-1.72z" id="c"/><filter x="-.7%" y="-1.3%" width="101.4%" height="105.2%" filterUnits="objectBoundingBox" id="b"><feOffset dy=".25" in="SourceAlpha" result="shadowOffsetOuter1"/><feColorMatrix values="0 0 0 0 1 0 0 0 0 1 0 0 0 0 1 0 0 0 0.249094203 0" in="shadowOffsetOuter1"/></filter><path id="e" d="M17.964 3.586l-4.28 9.083 7.536 9.203-13.986 1.673 21.702.24z"/><filter x="-.6%" y="-.6%" width="101.2%" height="102.5%" filterUnits="objectBoundingBox" id="d"><feOffset dy=".25" in="SourceAlpha" result="shadowOffsetOuter1"/><feColorMatrix values="0 0 0 0 1 0 0 0 0 1 0 0 0 0 1 0 0 0 0.249094203 0" in="shadowOffsetOuter1"/></filter><path id="g" d="M17.12 0L7.294 8.665 0 21.633l6.21-.657z"/><filter x="-.7%" y="-.6%" width="101.5%" height="102.3%" filterUnits="objectBoundingBox" id="f"><feOffset dy=".25" in="SourceAlpha" result="shadowOffsetOuter1"/><feColorMatrix values="0 0 0 0 1 0 0 0 0 1 0 0 0 0 1 0 0 0 0.249094203 0" in="shadowOffsetOuter1"/></filter></defs><g fill="none" fill-rule="evenodd"><rect fill="#55A2FF" x="2" y="2" width="96" height="96" rx="48"/><g filter="url(#a)" transform="translate(26 17)"><path d="M1 56v6c.007 1.194.838 2.002 2 2h44v-8H1z" fill="#BE9555" fill-rule="nonzero"/><path d="M3 57v4c.034 1.105.92 2.002 1.956 2H47v-6H3z" fill="#FFF" fill-rule="nonzero"/><path fill="#4F4D52" fill-rule="nonzero" opacity=".2" d="M3 57v1h44v-1z"/><path fill="#4F4D52" fill-rule="nonzero" opacity=".2" d="M21 57l6 6h-6z"/><path fill="#EF6F59" fill-rule="nonzero" d="M22 67l-4-2-3 2V57h7z"/><path fill="#F7CB64" fill-rule="nonzero" d="M47 56H1V1h46z"/><path d="M24 52a2 2 0 0 1-2 2H1v2h46V4H26c-1.106 0-2 .895-2 2v46z" fill-opacity=".127" fill="#000"/><use fill="#000" filter="url(#b)" xlink:href="#c"/><use fill="#4C3B12" xlink:href="#c"/><g><g transform="translate(10 8)"><use fill="#000" filter="url(#d)" xlink:href="#e"/><use fill="#4C3B12" xlink:href="#e"/></g><g transform="translate(10 8)"><use fill="#000" filter="url(#f)" xlink:href="#g"/><use fill="#4C3B12" xlink:href="#g"/></g></g></g><rect x="2" y="2" width="96" height="96" rx="48" stroke="#0078D4" stroke-width="4"/></g></svg>