<svg xmlns="http://www.w3.org/2000/svg" xmlns:xlink="http://www.w3.org/1999/xlink" viewBox="0 0 100 118" version="1.1"><!-- Generator: Sketch 51.3 (57544) - http://www.bohemiancoding.com/sketch --><title>working-with-relational-data-in-azure</title><desc>Created with Sketch.</desc><defs><path d="M42.7425,1.49663266 C44.3745,0.498877554 46.1865,0 48,0 C49.8135,0 51.627,0.498877554 53.256,1.49663266 L90.591,24.3316189 C93.933,26.3773408 96,30.2031485 96,34.3529027 L96,79.6470973 C96,83.7952317 93.933,87.6242789 90.591,89.6683811 L53.256,112.504987 C51.627,113.501122 49.8135,114 48,114 C46.1865,114 44.3745,113.501122 42.7425,112.504987 L5.409,89.6683811 C2.0655,87.6242789 0,83.7952317 0,79.6470973 L0,34.3529027 C0,30.2031485 2.0655,26.3773408 5.409,24.3316189 L42.7425,1.49663266 Z" id="path-1"></path><path d="M23.4736713,60.2453553 C22.4329016,59.4098671 22.9432165,57.7133196 24.2915551,57.6117539 L29.5506423,57.2792076 L24.9908604,40.2618699 C24.8145684,39.6039392 25.19513,38.9447873 25.8530607,38.7684953 L32.0913417,37.0969529 C32.7492725,36.9206609 33.4084244,37.3012224 33.5847164,37.9591531 L38.1444983,54.9764908 L42.8652746,52.6349407 C44.0823786,52.0490907 45.4077977,53.2537622 44.8903834,54.5067646 L38.778754,69.9620829 C38.4386975,70.9078418 37.26091,71.223429 36.4921814,70.5747682 L23.4736713,60.2453553 Z" id="path-3"></path><filter x="-4.5%" y="-3.0%" width="109.1%" height="111.8%" filterUnits="objectBoundingBox" id="filter-4"><feOffset dx="0" dy="2" in="SourceAlpha" result="shadowOffsetOuter1"></feOffset><feColorMatrix values="0 0 0 0 0   0 0 0 0 0   0 0 0 0 0  0 0 0 0.102072011 0" type="matrix" in="shadowOffsetOuter1"></feColorMatrix></filter><path d="M50.5852235,47.0252922 L63.6037336,36.6958792 C64.3724622,36.0472184 65.5502497,36.3628056 65.8903062,37.3085645 L72.0019356,52.7638829 C72.5193499,54.0168852 71.1939308,55.2215567 69.9768268,54.6357067 L65.2560505,52.2941567 L60.6962686,69.3114943 C60.5199766,69.969425 59.8608247,70.3499866 59.202894,70.1736946 L52.9646129,68.5021522 C52.3066822,68.3258602 51.9261206,67.6667082 52.1024126,67.0087775 L56.6621945,49.9914399 L51.4031073,49.6588936 C50.0547687,49.5573279 49.5444538,47.8607804 50.5852235,47.0252922 Z" id="path-5"></path><filter x="-4.5%" y="-3.0%" width="109.1%" height="111.8%" filterUnits="objectBoundingBox" id="filter-6"><feOffset dx="0" dy="2" in="SourceAlpha" result="shadowOffsetOuter1"></feOffset><feColorMatrix values="0 0 0 0 0   0 0 0 0 0   0 0 0 0 0  0 0 0 0.102072011 0" type="matrix" in="shadowOffsetOuter1"></feColorMatrix></filter></defs><g id="Badges-FINAL" stroke="none" stroke-width="1" fill="none" fill-rule="evenodd"><g id="Working-with-Relational-Data-in-Azure" transform="translate(-576.000000, -146.000000)"><g id="working-with-relational-data-in-azure" transform="translate(576.000000, 146.000000)"><g id="Mask" transform="translate(2.000000, 2.000000)"><mask id="mask-2" fill="white"><use xlink:href="#path-1"></use></mask><use id="Trophy-1" fill="#55A2FF" xlink:href="#path-1"></use><g id="Database" mask="url(#mask-2)"><g transform="translate(23.000000, 61.000000)"><path d="M48.9325502,43.9499605 C48.9325502,48.9219605 38.1875502,52.9499605 24.9325502,52.9499605 C11.6785502,52.9499605 0.932550202,48.9219605 0.932550202,43.9499605 C0.932550202,38.9779605 11.6785502,34.9499605 24.9325502,34.9499605 C38.1875502,34.9499605 48.9325502,38.9779605 48.9325502,43.9499605" id="Combined-Shape" stroke="none" fill="#BAC0C2"></path><path d="M24.9325502,35.8533677 C11.6069036,35.8533677 0.802814415,31.8288852 0.802814415,26.8612271 L0.802814415,38.8507479 C0.802814415,43.8184061 11.6069036,47.8428885 24.9325502,47.8428885 C38.2592022,47.8428885 49.062286,43.8184061 49.062286,38.8507479 L49.062286,26.8612271 C49.062286,31.8288852 38.2592022,35.8533677 24.9325502,35.8533677" id="Combined-Shape" stroke="none" fill="#E1E4E1"></path><path d="M24.9325502,39.8169035 L24.9325502,43.810413 C24.9325502,44.9444219 23.9824419,45.8476325 22.8423118,45.8116639 C10.494925,45.4170088 0.802814415,41.5573822 0.802814415,36.8524944 L0.802814415,38.8507479 C0.802814415,43.8184061 11.6069036,47.8428885 24.9325502,47.8428885 C38.2592022,47.8428885 49.062286,43.8184061 49.062286,38.8507479 L49.062286,28.8594806 C49.062286,33.5843509 39.2907484,37.455967 26.8689615,37.8226465 C25.7891558,37.8546186 24.9325502,38.7428422 24.9325502,39.8169035" id="Combined-Shape" stroke="none" fill="#D3DAD8"></path><path d="M48.9325502,26.9499605 C48.9325502,31.9219605 38.1875502,35.9499605 24.9325502,35.9499605 C11.6785502,35.9499605 0.932550202,31.9219605 0.932550202,26.9499605 C0.932550202,21.9779605 11.6785502,17.9499605 24.9325502,17.9499605 C38.1875502,17.9499605 48.9325502,21.9779605 48.9325502,26.9499605" id="Fill-103" stroke="#E1E4E1" stroke-width="0.25" fill="#BAC0C2"></path><path d="M24.9325502,18.8682132 C11.6069036,18.8682132 0.802814415,14.8437307 0.802814415,9.87607259 L0.802814415,21.8655934 C0.802814415,26.8332515 11.6069036,30.857734 24.9325502,30.857734 C38.2592022,30.857734 49.062286,26.8332515 49.062286,21.8655934 L49.062286,9.87607259 C49.062286,14.8437307 38.2592022,18.8682132 24.9325502,18.8682132" id="Fill-104" stroke="none" fill="#E1E4E1"></path><path d="M24.9325502,22.831749 L24.9325502,26.8252585 C24.9325502,27.9592674 23.9824419,28.8624779 22.8423118,28.8265094 C10.494925,28.4318543 0.802814415,24.5722277 0.802814415,19.8673399 L0.802814415,21.8655934 C0.802814415,26.8332515 11.6069036,30.857734 24.9325502,30.857734 C38.2592022,30.857734 49.062286,26.8332515 49.062286,21.8655934 L49.062286,11.8743261 C49.062286,16.5991964 39.2907484,20.4708125 26.8689615,20.837492 C25.7891558,20.8694641 24.9325502,21.7576877 24.9325502,22.831749" id="Fill-108" stroke="none" fill="#D3DAD8"></path><path d="M48.9325502,9.94996051 C48.9325502,14.9219605 38.1875502,18.9499605 24.9325502,18.9499605 C11.6785502,18.9499605 0.932550202,14.9219605 0.932550202,9.94996051 C0.932550202,4.97796051 11.6785502,0.949960507 24.9325502,0.949960507 C38.1875502,0.949960507 48.9325502,4.97796051 48.9325502,9.94996051" id="Fill-105" stroke="#E1E4E1" stroke-width="0.25" fill="#C4CBCD"></path></g></g><g id="Cloud" mask="url(#mask-2)"><g transform="translate(1.000000, 0.000000)"><g id="Fill-1-Copy-2" fill="none"><use fill="black" fill-opacity="1" filter="url(#filter-4)" xlink:href="#path-3"></use><use fill="#EEC360" fill-rule="evenodd" xlink:href="#path-3"></use></g><path d="M37.6701494,70.8821117 L30.0744057,42.5344103 C29.6777845,41.0541997 31.0244345,39.4075185 33.0825591,38.8560456 L33.7783248,38.6696158 L38.1444983,54.9643973 L42.8652746,52.6228472 C44.0823786,52.0369972 45.4077977,53.2416687 44.8903834,54.494671 L38.778754,69.9499894 C38.5924018,70.4682687 38.1544722,70.7973025 37.6701494,70.8821117 Z" id="Combined-Shape-Copy" fill="#DBB357" fill-rule="evenodd"></path><path d="M0.576739215,28.3257811 C1.50490125,26.6937484 2.81098117,25.3093674 4.409,24.3316189 L41.7425,1.49663266 C43.3745,0.498877554 45.1865,0 47,0 C48.8135,0 50.627,0.498877554 52.256,1.49663266 L89.591,24.3316189 C90.28856,24.7586128 90.930573,25.2631585 91.5098371,25.8320146 C88.4801735,28.4273542 84.7370883,30.2701584 80.5238004,31.0130748 C80.3599319,31.0419692 80.1972116,31.0489134 80.0343933,31.0742769 C79.7497246,42.5905658 71.4021999,52.6963248 59.6198866,54.7738645 C49.0868685,56.6311198 38.9620506,51.5056258 33.9233627,42.739745 C32.1660085,44.0065158 30.1155224,44.9201307 27.8408318,45.32122 C19.7755771,46.743342 12.0860498,41.359077 10.6639278,33.2938223 C10.6233039,33.0634328 10.6084473,32.8368644 10.5781304,32.6080033 C6.83604094,32.2339707 3.35496538,30.7048605 0.576739215,28.3257811 Z" id="Combined-Shape-Copy-2" fill-opacity="0.103459013" fill="#000000" fill-rule="evenodd"></path><path d="M1.44020731,27.0207785 C2.2565912,25.9527584 3.25692778,25.0365148 4.409,24.3316189 L41.7425,1.49663266 C43.3745,0.498877554 45.1865,0 47,0 C48.8135,0 50.627,0.498877554 52.256,1.49663266 L89.591,24.3316189 C89.832717,24.4795799 90.0677642,24.6368529 90.295842,24.802887 C87.5015602,26.8867622 84.1907649,28.36649 80.5238004,29.0130748 C80.3599319,29.0419692 80.1972116,29.0489134 80.0343933,29.0742769 C79.7497246,40.5905658 71.4021999,50.6963248 59.6198866,52.7738645 C49.0868685,54.6311198 38.9620506,49.5056258 33.9233627,40.739745 C32.1660085,42.0065158 30.1155224,42.9201307 27.8408318,43.32122 C19.7755771,44.743342 12.0860498,39.359077 10.6639278,31.2938223 C10.6233039,31.0634328 10.6084473,30.8368644 10.5781304,30.6080033 C7.21425356,30.2717741 4.06129563,29.0021553 1.44020731,27.0207785 Z" id="Combined-Shape" fill="#FFFFFF" fill-rule="evenodd"></path><g id="Fill-1-Copy" fill="none"><use fill="black" fill-opacity="1" filter="url(#filter-6)" xlink:href="#path-5"></use><use fill="#EEC360" fill-rule="evenodd" xlink:href="#path-5"></use></g><path d="M64.7817016,36.3764422 C65.2660244,36.4612514 65.703954,36.7902852 65.8903062,37.3085645 L72.0019356,52.7638829 C72.5193499,54.0168852 71.1939308,55.2215567 69.9768268,54.6357067 L65.2560505,52.2941567 L60.889877,68.5889381 L60.1941113,68.4025083 C58.1359867,67.8510354 56.7893367,66.2043542 57.1859579,64.7241436 L64.7817016,36.3764422 Z" id="Combined-Shape" fill="#DBB357" fill-rule="evenodd"></path></g></g></g><g id="Azure-Hex-Border" stroke="#0078D4" stroke-width="4"><path d="M45.5620172,3.25834249 L6.67338401,26.8942953 C3.79673288,28.6432593 2,31.9508238 2,35.5582677 L2,82.4417323 C2,86.0486597 3.79764663,89.3586805 6.67318764,91.1055853 L45.560618,114.742485 C46.9289662,115.572418 48.4546283,116 50,116 C51.5458817,116 53.0723633,115.572188 54.4362178,114.743457 L93.3268764,91.1055464 C96.2016145,89.3583456 98,86.0476286 98,82.4417323 L98,35.5582677 C98,31.9518547 96.202529,28.6435953 93.3268966,26.8944659 L54.4351916,3.25759524 C53.0721095,2.42798656 51.5462432,2 50,2 C48.4543284,2 46.9293388,2.42772325 45.5620146,3.25834407 Z M45.5620146,3.25834407 C45.5619597,3.25837737 45.5619049,3.25841067 45.5618501,3.25844398 L45.5621963,3.25823359 L45.5620172,3.25834249 Z"></path></g></g></g></g></svg>