<svg xmlns="http://www.w3.org/2000/svg" xmlns:xlink="http://www.w3.org/1999/xlink" viewBox="0 0 100 118"><defs><path d="M42.742 1.497A10.056 10.056 0 0 1 48 0c1.813 0 3.627.499 5.256 1.497l37.335 22.835C93.933 26.377 96 30.203 96 34.352v45.295c0 4.148-2.067 7.977-5.409 10.021l-37.335 22.837A10.056 10.056 0 0 1 48 114c-1.813 0-3.626-.499-5.258-1.495L5.41 89.668C2.066 87.624 0 83.795 0 79.648V34.352c0-4.15 2.066-7.976 5.409-10.021L42.743 1.497z" id="a"/><filter x="-1.2%" y="-.9%" width="102.4%" height="103.6%" filterUnits="objectBoundingBox" id="b"><feOffset dy="2" in="SourceAlpha" result="shadowOffsetOuter1"/><feColorMatrix values="0 0 0 0 0 0 0 0 0 0 0 0 0 0 0 0 0 0 0.101392663 0" in="shadowOffsetOuter1" result="shadowMatrixOuter1"/><feMerge><feMergeNode in="shadowMatrixOuter1"/><feMergeNode in="SourceGraphic"/></feMerge></filter></defs><g fill="none" fill-rule="evenodd"><g transform="translate(2 2)"><mask id="c" fill="#fff"><use xlink:href="#a"/></mask><use fill="#C0DDF4" xlink:href="#a"/><g filter="url(#b)" mask="url(#c)"><path d="M64.636 65.104c0 8.864-7.185 16.048-16.048 16.048-8.864 0-16.048-7.184-16.048-16.048 0-8.863 7.184-16.048 16.048-16.048 8.863 0 16.048 7.185 16.048 16.048" fill="#4176AF"/><path d="M67.183 58.591v-.695c0-6.775-5.51-12.286-12.286-12.286h-12.77c-6.776 0-12.287 5.511-12.287 12.286v.686c-2.127.255-3.795 2.057-3.795 4.249v7.494c0 2.366 1.935 4.3 4.3 4.3l.478.005V57.896c0-6.232 5.07-11.303 11.303-11.303h12.771c6.233 0 11.304 5.07 11.304 11.303V74.63l.389-.005c2.365 0 4.3-1.934 4.3-4.3v-7.494c0-2.162-1.623-3.946-3.707-4.24" fill="#FFF"/><path d="M67.183 58.591v-.695c0-6.775-5.51-12.286-12.286-12.286h-12.77c-6.776 0-12.287 5.511-12.287 12.286v.686c-2.127.255-3.795 2.057-3.795 4.249v7.494c0 2.366 1.935 4.3 4.3 4.3l.478.005V57.896c0-6.232 5.07-11.303 11.303-11.303h12.771c6.233 0 11.304 5.07 11.304 11.303V74.63l.389-.005c2.365 0 4.3-1.934 4.3-4.3v-7.494c0-2.162-1.623-3.946-3.707-4.24z" stroke="#FFF" stroke-width=".5"/><path d="M58.105 30c0-1.102.892-1.993 1.991-1.994v-3.877H37.95v3.887c.035-.002.069-.01.105-.01a1.993 1.993 0 0 1 0 3.985c-.036 0-.07-.007-.105-.01v3.887h22.147v-3.877A1.993 1.993 0 0 1 58.106 30" fill="#D65D54"/><path d="M41.05 34.566h15.947V25.43H41.049v9.136zm.982-.982h13.982v-7.17H42.032v7.17z" fill="#FCDC56"/><path d="M24.606 35.126a1.995 1.995 0 0 1-.001-2.818l-2.74-2.74-15.662 15.66 2.748 2.748c.025-.026.043-.056.068-.082a1.993 1.993 0 1 1 2.82 2.82c-.027.025-.057.042-.082.066l2.748 2.748 15.66-15.661-2.741-2.74a1.994 1.994 0 0 1-2.818-.001" fill="#D65D54"/><path d="M20.593 32.68L9.316 43.956l6.46 6.46L27.053 39.14l-6.46-6.46zm0 1.39l5.07 5.07-9.886 9.886-5.071-5.07 9.887-9.886z" fill="#FCDC56"/><path d="M70.733 35.126c.778-.779.778-2.04 0-2.818l2.742-2.74 15.66 15.66-2.747 2.748c-.024-.026-.042-.056-.067-.082a1.993 1.993 0 1 0-2.82 2.82c.026.025.057.042.082.066l-2.748 2.748-15.66-15.661 2.741-2.74c.778.777 2.04.776 2.817-.001" fill="#D65D54"/><path d="M74.748 32.68l-6.46 6.46 11.275 11.275 6.46-6.46L74.749 32.68zm0 1.39l9.886 9.886-5.07 5.07-9.887-9.886 5.071-5.07z" fill="#FCDC56"/><path d="M59.03 133.42H38.486c-6.487 0-11.795-5.308-11.795-11.795v-30.96c0-6.488 5.308-11.796 11.795-11.796h20.542c6.488 0 11.795 5.308 11.795 11.795v30.961c0 6.487-5.307 11.795-11.795 11.795" fill="#4176AF"/><path d="M49.89 85.507l-.388-.003.018-.983.368.003c13.17 0 16.807-12.539 16.843-12.667l.946.264c-.037.135-3.882 13.386-17.786 13.386" fill="#FFF"/><path d="M50.813 87.232h-3.606c-1.221 0-2.22-.999-2.22-2.22 0-1.22.999-2.22 2.22-2.22h3.606c1.22 0 2.22 1 2.22 2.22 0 1.221-1 2.22-2.22 2.22" fill="#FFF"/></g></g><path d="M45.562 3.258L6.673 26.894C3.797 28.644 2 31.951 2 35.558v46.884c0 3.607 1.798 6.917 4.673 8.664l38.888 23.636A8.539 8.539 0 0 0 50 116a8.525 8.525 0 0 0 4.436-1.257l38.89-23.637C96.203 89.358 98 86.048 98 82.442V35.558c0-3.606-1.797-6.914-4.673-8.664L54.435 3.258A8.511 8.511 0 0 0 50 2c-1.546 0-3.07.428-4.438 1.258zm0 0s0 0 0 0h0z" stroke="#0078D4" stroke-width="4"/></g></svg>