<svg xmlns="http://www.w3.org/2000/svg" xmlns:xlink="http://www.w3.org/1999/xlink" viewBox="0 0 100 100" version="1.1"><!-- Generator: Sketch 51.3 (57544) - http://www.bohemiancoding.com/sketch --><title>building-a-chat-bot-with-the-azure-bot-service</title><desc>Created with Sketch.</desc><defs><filter x="-1.7%" y="-1.4%" width="103.4%" height="105.8%" filterUnits="objectBoundingBox" id="filter-1"><feOffset dx="0" dy="2" in="SourceAlpha" result="shadowOffsetOuter1"></feOffset><feColorMatrix values="0 0 0 0 0   0 0 0 0 0   0 0 0 0 0  0 0 0 0.100939764 0" type="matrix" in="shadowOffsetOuter1" result="shadowMatrixOuter1"></feColorMatrix><feMerge><feMergeNode in="shadowMatrixOuter1"></feMergeNode><feMergeNode in="SourceGraphic"></feMergeNode></feMerge></filter></defs><g id="Badges-FINAL" stroke="none" stroke-width="1" fill="none" fill-rule="evenodd"><g id="N/A-2" transform="translate(-577.000000, -2372.000000)"><g id="building-a-chat-bot-with-the-azure-bot-service" transform="translate(577.000000, 2372.000000)"><rect id="BG" fill="#55A2FF" x="2" y="2" width="96" height="96" rx="48"></rect><g id="Robot" filter="url(#filter-1)" transform="translate(20.500000, 12.603263)"><g id="Group-4"><path d="M54.0196743,60.3040935 L4.9131116,60.3040935 C2.19997401,60.3040935 0.00245532814,58.1016641 0.00245532814,55.3934372 L0.00245532814,25.9294996 C0.00245532814,23.2139066 2.19997401,21.0188433 4.9131116,21.0188433 L54.0196743,21.0188433 C56.7303566,21.0188433 58.9303306,23.2139066 58.9303306,25.9294996 L58.9303306,55.3934372 C58.9303306,58.1016641 56.7303566,60.3040935 54.0196743,60.3040935" id="Fill-302" fill="#546670"></path><path d="M24.5557367,55.3934372 L0.00245532814,55.3934372 C0.00245532814,58.1016641 2.19997401,60.3040935 4.9131116,60.3040935 L54.0196743,60.3040935 C56.7303566,60.3040935 58.9303306,58.1065748 58.9303306,55.3934372 L58.9303306,25.9294996 L31.466393,25.9294996 C30.3618235,25.9294996 29.466393,26.8249301 29.466393,27.9294996 L29.466393,50.4827809 C29.466393,53.1959185 27.2664189,55.3934372 24.5557367,55.3934372 Z" id="Fill-303" fill="#30404D"></path><g id="Group-2" transform="translate(19.304426, 0.699820)"><path d="M10.161205,16.9325196 C9.22483669,16.9325196 8.46795306,16.0232433 8.46795306,14.898924 L8.46795306,8.80321695 C8.46795306,7.68228415 9.22483669,6.77300785 10.161205,6.77300785 C11.0958801,6.77300785 11.854457,7.68228415 11.854457,8.80321695 L11.854457,14.898924 C11.854457,16.0232433 11.0958801,16.9325196 10.161205,16.9325196" id="Fill-304" fill="#243038"></path><path d="M15.2409609,5.07975589 C15.2409609,7.88378113 12.963537,10.1595118 10.161205,10.1595118 C7.35379327,10.1595118 5.08144914,7.88378113 5.08144914,5.07975589 C5.08144914,2.27573064 7.35379327,0 10.161205,0 C12.963537,0 15.2409609,2.27573064 15.2409609,5.07975589" id="Fill-305" fill="#30404D"></path><path d="M12.7925186,0.755190375 C13.2615494,1.52392677 13.5477089,2.41965705 13.5477089,3.38650392 C13.5477089,6.19052917 11.2702851,8.46625981 8.46795306,8.46625981 C7.49941294,8.46625981 6.6053759,8.18179348 5.83494626,7.71106943 C6.72729004,9.17403913 8.32233339,10.1595118 10.161205,10.1595118 C12.963537,10.1595118 15.2409609,7.88378113 15.2409609,5.07975589 C15.2409609,3.24257751 14.253795,1.64753416 12.7925186,0.755190375" id="Fill-306" fill="#182A37"></path><path d="M19.7280786,20.3190235 C18.3277592,16.3788262 14.5738196,13.5460157 10.161205,13.5460157 C5.74689716,13.5460157 1.99465081,16.3788262 0.592638187,20.3190235 L19.7280786,20.3190235" id="Fill-307" fill="#30404D"></path><path d="M10.8080273,13.5968133 L6.7747011,20.3190235 L19.7280786,20.3190235 C18.3971826,16.5752435 14.9344823,13.8609606 10.8080273,13.5968133" id="Fill-321" fill="#182A37"></path></g></g><g id="Group" transform="translate(3.557989, 24.729922)"><path d="M1.72513909,0.261151311 C0.879607784,0.261151311 0.194765682,0.946758599 0.194765682,1.79152472 L0.194765682,30.8686196 C0.194765682,31.7133857 0.879607784,32.398993 1.72513909,32.398993 L7.84663274,32.398993 L7.84663274,41.5812334 C7.84663274,42.2002695 8.21927867,42.7580906 8.79163832,42.9952985 C8.98063944,43.0733475 9.17958798,43.1116069 9.37624097,43.1116069 C9.77490324,43.1116069 10.1666788,42.956274 10.4589802,42.6632074 L20.7239598,32.398993 L50.0916696,32.398993 C50.9364357,32.398993 51.622043,31.7133857 51.622043,30.8686196 L51.622043,1.79152472 C51.622043,0.946758599 50.9364357,0.261151311 50.0916696,0.261151311 L1.72513909,0.261151311 Z" id="Fill-138" fill="#EFB252"></path><path d="M7.84663274,32.398993 L7.84663274,41.5812334 C7.84663274,42.2002695 8.21927867,42.7580906 8.79163832,42.9952985 C8.98063944,43.0733475 9.17958798,43.1116069 9.37624097,43.1116069 C9.77490324,43.1116069 10.1666788,42.956274 10.4589802,42.6632074 L20.7239598,32.398993 L7.84663274,32.398993 Z" id="Fill-138-Copy-2" fill="#D5A251"></path><path d="M51.622043,3.29360249 L51.622043,30.8686196 C51.622043,31.7133857 50.9364357,32.398993 50.0916696,32.398993 L20.7239598,32.398993 L20.6026624,32.5202814 L7.84663274,32.5202814 L7.84663274,32.398993 L1.72513909,32.398993 C0.83368965,32.398993 0.194765682,31.7075885 0.194765682,30.6692277 L21.7309279,30.6692277 C24.0368949,30.6692277 25.9084043,28.8008079 25.9084043,26.4939879 L25.9084043,5.29360249 C25.9084043,4.18903299 26.8038348,3.29360249 27.9084043,3.29360249 L51.622043,3.29360249 Z" id="Fill-138-Copy" fill="#D5A251"></path><path d="M34.928939,21.650334 C31.9908244,21.650334 29.6086771,19.2681868 29.6086771,16.3300721 C29.6086771,13.3906275 31.9908244,11.0098103 34.928939,11.0098103 C37.8670536,11.0098103 40.2492009,13.3906275 40.2492009,16.3300721 C40.2492009,19.2681868 37.8670536,21.650334 34.928939,21.650334 Z" id="Fill-141" fill="#FFFFFE"></path><path d="M16.8878697,21.650334 C13.9497551,21.650334 11.5676078,19.2681868 11.5676078,16.3300721 C11.5676078,13.3906275 13.9497551,11.0098103 16.8878697,11.0098103 C19.8259843,11.0098103 22.2081316,13.3906275 22.2081316,16.3300721 C22.2081316,19.2681868 19.8259843,21.650334 16.8878697,21.650334 Z" id="Fill-141-Copy" fill="#FFFFFE"></path></g></g><g id="Azure-Border" stroke="#0078D4" stroke-width="4"><rect x="2" y="2" width="96" height="96" rx="48"></rect></g></g></g></g></svg>