<svg xmlns="http://www.w3.org/2000/svg" viewBox="0 0 100 100"><g transform="translate(2 2)" fill="none" fill-rule="evenodd"><rect fill="#C0DDF4" width="96" height="96" rx="48"/><rect fill="#ABD3F2" x="18" y="19" width="61" height="58" rx="29"/><path d="M60.753 17.445c-.011 6.934-5.683 12.547-12.67 12.536-6.985-.012-12.64-5.643-12.627-12.578.011-6.934 5.683-12.546 12.67-12.535 6.985.012 12.64 5.643 12.627 12.577" fill="#417505"/><path d="M47.524 23c-.387 0-.751-.153-1.025-.43l-5.074-5.131A1.463 1.463 0 0 1 41 16.403c0-.391.15-.76.425-1.036a1.432 1.432 0 0 1 1.024-.429c.388 0 .752.153 1.026.43l3.83 3.871 9.043-13.591a1.444 1.444 0 0 1 2.013-.398c.662.45.839 1.362.393 2.032l-10.027 15.07a1.448 1.448 0 0 1-1.203.648z" fill="#FFF"/><path d="M60.753 79.445c-.011 6.934-5.683 12.547-12.67 12.536-6.985-.012-12.64-5.643-12.627-12.578.011-6.934 5.683-12.546 12.67-12.535 6.985.012 12.64 5.643 12.627 12.577" fill="#417505"/><path d="M47.524 85c-.387 0-.751-.153-1.025-.43l-5.074-5.131A1.463 1.463 0 0 1 41 78.403c0-.391.15-.76.425-1.036a1.432 1.432 0 0 1 1.024-.429c.388 0 .752.153 1.026.43l3.83 3.871 9.043-13.591a1.444 1.444 0 0 1 2.013-.398c.662.45.839 1.362.393 2.032l-10.027 15.07a1.448 1.448 0 0 1-1.203.648z" fill="#FFF"/><path d="M60.753 47.445c-.011 6.934-5.683 12.547-12.67 12.536-6.985-.012-12.64-5.643-12.627-12.578.011-6.934 5.683-12.546 12.67-12.535 6.985.012 12.64 5.643 12.627 12.577" fill="#417505"/><path d="M47.524 53c-.387 0-.751-.153-1.025-.43l-5.074-5.131A1.463 1.463 0 0 1 41 46.403c0-.391.15-.76.425-1.036a1.432 1.432 0 0 1 1.024-.429c.388 0 .752.153 1.026.43l3.83 3.871 9.043-13.591a1.444 1.444 0 0 1 2.013-.398c.662.45.839 1.362.393 2.032l-10.027 15.07a1.448 1.448 0 0 1-1.203.648z" fill="#FFF"/><g stroke="#0078D4" stroke-width="4"><rect width="96" height="96" rx="48"/></g></g></svg>