<svg xmlns="http://www.w3.org/2000/svg" xmlns:xlink="http://www.w3.org/1999/xlink" viewBox="0 0 100 100"><defs><rect id="a" x="0" y="0" width="96" height="96" rx="48"/><filter x="-3.5%" y="-6.1%" width="107.1%" height="112.1%" filterUnits="objectBoundingBox" id="b"><feOffset dy="2" in="SourceAlpha" result="shadowOffsetOuter1"/><feColorMatrix values="0 0 0 0 0 0 0 0 0 0 0 0 0 0 0 0 0 0 0.103685462 0" in="shadowOffsetOuter1" result="shadowMatrixOuter1"/><feMerge><feMergeNode in="shadowMatrixOuter1"/><feMergeNode in="SourceGraphic"/></feMerge></filter></defs><g fill="none" fill-rule="evenodd"><g transform="translate(2 2)"><mask id="c" fill="#fff"><use xlink:href="#a"/></mask><use fill="#01B6C3" xlink:href="#a"/><g filter="url(#b)" mask="url(#c)"><g transform="translate(32 21.5)"><rect fill="#6E828F" width="90" height="3" rx="1.5"/><path d="M90 1.5c0 .828-.895 1.5-2 1.5H2C.895 3 0 2.328 0 1.5h90z" fill="#546670"/></g><path d="M64.075 23v31.628" stroke="#30404D" stroke-width="2" stroke-linecap="square"/><path d="M66.075 23a2 2 0 1 1-4 0 2 2 0 0 1 4 0" fill="#ADBDC4"/><path d="M66.075 23a2 2 0 0 0-2-2v4a2 2 0 0 0 2-2" fill="#8BA6B1"/><path d="M68.305 59.966a5.988 5.988 0 0 1-8.486 0 5.994 5.994 0 0 1 0-8.48 5.988 5.988 0 0 1 8.486 0 5.994 5.994 0 0 1 0 8.48" fill="#F7CB64"/><path d="M68.305 59.966a5.994 5.994 0 0 0 0-8.48l-8.486 8.48a5.988 5.988 0 0 0 8.486 0" fill="#EFB252"/><path d="M50.67 23L25 50" stroke="#30404D" stroke-width="2" stroke-linecap="square"/><path d="M52.67 23a2 2 0 1 1-4 0 2 2 0 0 1 4 0" fill="#ADBDC4"/><path d="M52.67 23a2 2 0 0 0-2-2v4a2 2 0 0 0 2-2" fill="#8BA6B1"/><g><path d="M27.229 55.885a5.988 5.988 0 0 1-8.486 0 5.994 5.994 0 0 1 0-8.48 5.988 5.988 0 0 1 8.486 0 5.994 5.994 0 0 1 0 8.48" fill="#F7CB64"/><path d="M27.229 55.885a5.994 5.994 0 0 0 0-8.48l-8.486 8.48a5.988 5.988 0 0 0 8.486 0" fill="#EFB252"/></g><g><path d="M77.075 23v31.628" stroke="#30404D" stroke-width="2" stroke-linecap="square"/><path d="M79.075 23a2 2 0 1 1-4 0 2 2 0 0 1 4 0" fill="#ADBDC4"/><path d="M79.075 23a2 2 0 0 0-2-2v4a2 2 0 0 0 2-2" fill="#8BA6B1"/><g><path d="M81.305 59.966a5.988 5.988 0 0 1-8.486 0 5.994 5.994 0 0 1 0-8.48 5.988 5.988 0 0 1 8.486 0 5.994 5.994 0 0 1 0 8.48" fill="#F7CB64"/><path d="M81.305 59.966a5.994 5.994 0 0 0 0-8.48l-8.486 8.48a5.988 5.988 0 0 0 8.486 0" fill="#EFB252"/></g></g><g><path d="M90.075 23v31.628" stroke="#30404D" stroke-width="2" stroke-linecap="square"/><path d="M92.075 23a2 2 0 1 1-4 0 2 2 0 0 1 4 0" fill="#ADBDC4"/><path d="M92.075 23a2 2 0 0 0-2-2v4a2 2 0 0 0 2-2" fill="#8BA6B1"/><g><path d="M94.305 59.966a5.988 5.988 0 0 1-8.486 0 5.994 5.994 0 0 1 0-8.48 5.988 5.988 0 0 1 8.486 0 5.994 5.994 0 0 1 0 8.48" fill="#F7CB64"/><path d="M94.305 59.966a5.994 5.994 0 0 0 0-8.48l-8.486 8.48a5.988 5.988 0 0 0 8.486 0" fill="#EFB252"/></g></g><g><path d="M107.305 59.966a5.988 5.988 0 0 1-8.486 0 5.994 5.994 0 0 1 0-8.48 5.988 5.988 0 0 1 8.486 0 5.994 5.994 0 0 1 0 8.48" fill="#F7CB64"/></g><g><path d="M38.104 74.254v-55a2 2 0 1 0-4 0v55c0 1.103 4 1.103 4 0" fill="#ADBDC4"/><path d="M45.104 77.254h-.808a6.002 6.002 0 0 0-5.192-3h-6a6 6 0 0 0-5.189 3h-.81c-.55 0-1 .449-1 1v2c0 .549.45 1 1 1h18c.55 0 1-.451 1-1v-2c0-.551-.45-1-1-1" fill="#30404D"/><path d="M36.104 19.157v52.097a1 1 0 0 1-1 1h-1v2h4v-55c0-.115-.01-.227-.028-.336-.197-1.165-1.972-.942-1.972.239" fill="#8BA6B1"/><path d="M44.296 77.254a6.002 6.002 0 0 0-5.192-3h-3v1a1 1 0 0 1-1 1h-6.447a6.049 6.049 0 0 0-.74 1h16.38M36.104 79.254a1 1 0 0 1-1 1h-9c0 .55.45 1 1 1h18c.55 0 1-.45 1-1v-2h-9a1 1 0 0 0-1 1" fill="#182A37"/></g></g></g><rect x="2" y="2" width="96" height="96" rx="48" stroke="#1D8E96" stroke-width="4"/></g></svg>