<svg xmlns="http://www.w3.org/2000/svg" xmlns:xlink="http://www.w3.org/1999/xlink" viewBox="0 0 100 100"><defs><rect id="a" x="0" y="0" width="96" height="96" rx="48"/><path d="M16.682 32.095a3.665 3.665 0 0 0-.082-.531c.406-.588.645-1.3.645-2.068a3.654 3.654 0 0 0-3.654-3.654c-.057 0-.111.015-.168.018a3.638 3.638 0 0 0 1.034-2.541 3.654 3.654 0 0 0-7.306 0c0 1.105.502 2.085 1.278 2.755a3.61 3.61 0 0 0-1.068-.178 3.654 3.654 0 0 0-3.653 3.654c0 .71.21 1.367.561 1.928a3.65 3.65 0 0 0 .08 7.299c1.148 0 2.16-.54 2.83-1.37a3.641 3.641 0 0 0 3.27 2.056 3.645 3.645 0 0 0 3.064-1.673 3.653 3.653 0 0 0 6.67-2.057 3.647 3.647 0 0 0-3.501-3.638" id="d"/><filter x="-5.1%" y="-5.1%" width="110.3%" height="120.2%" filterUnits="objectBoundingBox" id="c"><feOffset dy="2" in="SourceAlpha" result="shadowOffsetOuter1"/><feColorMatrix values="0 0 0 0 0 0 0 0 0 0 0 0 0 0 0 0 0 0 0.0993263134 0" in="shadowOffsetOuter1"/></filter><path d="M24.505 8.766c-.011-.024-.027-.047-.038-.071l.081-.008c-.016.025-.027.053-.043.08M35.85 10.93a3.631 3.631 0 0 0 1.31-2.78 3.654 3.654 0 0 0-3.653-3.654c-.086 0-.166.02-.249.024.002-.047.014-.093.014-.143A3.653 3.653 0 0 0 29.618.725a3.645 3.645 0 0 0-3.064 1.674 3.628 3.628 0 0 0-2.464-.973 3.654 3.654 0 0 0-3.654 3.654c0 .56.137 1.085.363 1.56-1.839.19-3.277 1.726-3.277 3.615 0 1.517.925 2.818 2.242 3.369-.218.47-.349.987-.349 1.537a3.653 3.653 0 0 0 3.653 3.653 3.63 3.63 0 0 0 2.457-.965 3.65 3.65 0 0 0 6.905-.736c.298.078.607.134.931.134a3.654 3.654 0 0 0 3.653-3.654 3.635 3.635 0 0 0-1.165-2.662" id="f"/><filter x="-5.1%" y="-5.2%" width="110.2%" height="120.7%" filterUnits="objectBoundingBox" id="e"><feOffset dy="2" in="SourceAlpha" result="shadowOffsetOuter1"/><feColorMatrix values="0 0 0 0 0 0 0 0 0 0 0 0 0 0 0 0 0 0 0.0993263134 0" in="shadowOffsetOuter1"/></filter><path d="M60.57 32.415a3.643 3.643 0 0 0 1.55-2.98c0-1.279-.66-2.4-1.655-3.053a3.635 3.635 0 0 0 1.464-2.908 3.654 3.654 0 0 0-3.654-3.653c-1.08 0-2.04.478-2.71 1.222A3.632 3.632 0 0 0 52.7 19.63a3.63 3.63 0 0 0-2.845 1.386 3.639 3.639 0 0 0-3.116-1.77 3.643 3.643 0 0 0-2.98 1.55 3.645 3.645 0 0 0-2.98-1.55 3.654 3.654 0 0 0-3.654 3.652c0 1.565.988 2.89 2.37 3.41a3.64 3.64 0 0 0-1.793 3.128c0 1.44.84 2.674 2.051 3.269a3.64 3.64 0 0 0-2.051 3.269 3.654 3.654 0 0 0 3.653 3.653 3.635 3.635 0 0 0 2.612-1.106 3.626 3.626 0 0 0 2.772 1.298 3.65 3.65 0 0 0 3.37-2.247c.629 1.108 1.803 1.863 3.168 1.863a3.63 3.63 0 0 0 2.782-1.31c.644.568 1.482.925 2.41.925a3.654 3.654 0 0 0 3.653-3.653 3.643 3.643 0 0 0-1.551-2.98" id="h"/><filter x="-4%" y="-4.9%" width="108%" height="119.4%" filterUnits="objectBoundingBox" id="g"><feOffset dy="2" in="SourceAlpha" result="shadowOffsetOuter1"/><feColorMatrix values="0 0 0 0 0 0 0 0 0 0 0 0 0 0 0 0 0 0 0.0993263134 0" in="shadowOffsetOuter1"/></filter></defs><g fill="none" fill-rule="evenodd"><g transform="translate(2 2)"><mask id="b" fill="#fff"><use xlink:href="#a"/></mask><use fill="#D9EAF8" xlink:href="#a"/><g mask="url(#b)"><path d="M105.202 55.45S45.673 61.557 26.746 85.98C7.818 110.4 91.465 103.074 91.465 103.074l34.802-18.011-21.065-29.612z" fill="#59A85A"/><path d="M-12.33 64.61s33.886 2.441 53.424 14.958C60.632 92.084 96.96 76.21 96.96 76.21l2.442 26.254-47.929 15.874s-40.602-6.41-42.128-6.41c-1.527 0-27.78-25.034-27.78-25.034l6.105-22.285z" fill="#5FD65F"/></g><g mask="url(#b)"><g transform="translate(17.153 14.346)"><use fill="#000" filter="url(#c)" xlink:href="#d"/><use fill="#FFF" xlink:href="#d"/></g><g transform="translate(17.153 14.346)"><use fill="#000" filter="url(#e)" xlink:href="#f"/><use fill="#FFF" xlink:href="#f"/></g><g transform="translate(17.153 14.346)"><use fill="#000" filter="url(#g)" xlink:href="#h"/><use fill="#FFF" xlink:href="#h"/></g></g></g><rect x="2" y="2" width="96" height="96" rx="48" stroke="#0078D4" stroke-width="4"/></g></svg>