<svg xmlns="http://www.w3.org/2000/svg" xmlns:xlink="http://www.w3.org/1999/xlink" viewBox="0 0 100 100" version="1.1"><!-- Generator: Sketch 52.2 (67145) - http://www.bohemiancoding.com/sketch --><title>Intro to Azure Government/intro-to-azure-government</title><desc>Created with Sketch.</desc><defs><rect id="path-1" x="0" y="0" width="96" height="96" rx="48"></rect><filter x="-7.1%" y="-6.2%" width="114.3%" height="112.5%" filterUnits="objectBoundingBox" id="filter-3"><feOffset dx="0" dy="2" in="SourceAlpha" result="shadowOffsetOuter1"></feOffset><feColorMatrix values="0 0 0 0 0   0 0 0 0 0   0 0 0 0 0  0 0 0 0.102128623 0" type="matrix" in="shadowOffsetOuter1" result="shadowMatrixOuter1"></feColorMatrix><feMerge><feMergeNode in="shadowMatrixOuter1"></feMergeNode><feMergeNode in="SourceGraphic"></feMergeNode></feMerge></filter></defs><g id="Badges" stroke="none" stroke-width="1" fill="none" fill-rule="evenodd"><g id="Intro-to-Azure-Government" transform="translate(-579.000000, -327.000000)"><g id="Intro-to-Azure-Government/intro-to-azure-government" transform="translate(579.000000, 327.000000)"><g id="Mask" transform="translate(2.000000, 2.000000)"><mask id="mask-2" fill="white"><use xlink:href="#path-1"></use></mask><use id="BG" fill="#55A2FF" xlink:href="#path-1"></use><g id="Govt" filter="url(#filter-3)" mask="url(#mask-2)"><g transform="translate(20.000000, 11.618723)"><polyline id="Fill-1264" fill="#C5CCCD" points="1 21 1 20.515 28 1.228 55 20.515 55 21 1 21"></polyline><g id="Microsoft_Azure" stroke-width="1" fill="none" transform="translate(21.600000, 7.381277)"><path d="M12.7717448,10.1227647 L12.7717448,10.5243376 L3.1929362,10.4225059 L3.1929362,10.020933 L12.7717448,10.1227647 Z M9.05539496,9.34469022 L6.03997949,5.79358496 L6.03997949,5.39201206 L9.36596908,9.30886506 L9.05539496,9.34469022 Z" id="path7291" fill="#AAB0B1"></path><path d="M4.98712183e-13,9.2071409 L2.74062342,8.92732128 L7.55660425,4.54747351e-13 L7.55660425,0.401572902 L2.74062342,9.32889418 L0,9.6087138 L2.14142397e-13,9.2071409 Z" id="path7293" fill="#AAB0B1"></path><polygon id="path7291-copy" fill="#0078D4" points="7.92913067 1.52607415 6.03997949 5.39201206 9.36596908 9.30886506 3.1929362 10.020933 12.7717448 10.1227647"></polygon><polygon id="path7293-copy" fill="#0078D4" points="7.55660425 0 3.21956948 3.68794849 0 9.2071409 2.74062342 8.92732128"></polygon></g><polygon id="Fill-1265" fill="#546670" points="37 54 47 54 47 26 37 26"></polygon><polygon id="Fill-1266" fill="#546670" points="23 54 33 54 33 26 23 26"></polygon><polygon id="Fill-1267" fill="#546670" points="9 54 19 54 19 26 9 26"></polygon><path d="M9,26 L9,54 L12,54 L12,30 C12,28.895 12.895,28 14,28 L19,28 L19,26 L9,26" id="Fill-1268" fill="#30404D"></path><path d="M23,26 L23,54 L26,54 L26,30 C26,28.895 26.895,28 28,28 L33,28 L33,26 L23,26" id="Fill-1269" fill="#30404D"></path><path d="M37,26 L37,54 L40,54 L40,30 C40,28.895 40.895,28 42,28 L47,28 L47,26 L37,26" id="Fill-1270" fill="#30404D"></path><path d="M3,58 C3,58.55 3.45,59 4,59 L52,59 C52.55,59 53,58.55 53,58 L53,55 C53,54.45 52.55,54 52,54 L4,54 C3.45,54 3,54.45 3,55 L3,58" id="Fill-1271" fill="#E1E4E1"></path><path d="M3,25 C3,25.55 3.45,26 4,26 L52,26 C52.55,26 53,25.55 53,25 L53,22 C53,21.45 52.55,21 52,21 L4,21 C3.45,21 3,21.45 3,22 L3,25" id="Fill-1272" fill="#E1E4E1"></path><path d="M0,63 C0,63.55 0.45,64 1,64 L55,64 C55.55,64 56,63.55 56,63 L56,59 C56,58.45 55.55,58 55,58 L1,58 C0.45,58 0,58.45 0,59 L0,63" id="Fill-1273" fill="#E1E4E1"></path><polygon id="Fill-1274" fill="#E1E4E1" points="5 54 9 54 9 28 5 28"></polygon><polygon id="Fill-1275" fill="#E1E4E1" points="19 54 23 54 23 28 19 28"></polygon><polygon id="Fill-1276" fill="#E1E4E1" points="33 54 37 54 37 28 33 28"></polygon><polygon id="Fill-1277" fill="#E1E4E1" points="47 54 51 54 51 28 47 28"></polygon><path d="M28,0 L0,20 L0,22 L56,22 L56,20 L28,0 Z M28,2.458 L52.559,20 L3.441,20 L28,2.458 Z" id="Fill-1278" fill="#E1E4E1"></path><path d="M55,64 C55.55,64 56,63.55 56,63 L56,59 L30,59 C29.448,59 29,59.448 29,60 L29,62 C29,62.552 28.552,63 28,63 L0,63 C0,63.55 0.45,64 1,64 L55,64" id="Fill-1281" fill="#C5CCCD"></path><path d="M53,58 L53,55 L30,55 C29.448,55 29,55.448 29,56 C29,56.552 28.552,57 28,57 L3,57 L3,58 L53,58" id="Fill-1282" fill="#C5CCCD"></path><path d="M32,26 L33,28 L34,28 C34.552,28 35,28.448 35,29 L35,54 L37,54 L37,28 L38,26 L32,26" id="Fill-1283" fill="#C5CCCD"></path><path d="M46,26 L47,28 L48,28 C48.552,28 49,28.448 49,29 L49,54 L51,54 L51,28 L52,26 L46,26" id="Fill-1284" fill="#C5CCCD"></path><path d="M18,26 L19,28 L20,28 C20.552,28 21,28.448 21,29 L21,54 L23,54 L23,28 L24,26 L18,26" id="Fill-1285" fill="#C5CCCD"></path><path d="M4,26 L5,28 L6,28 C6.552,28 7,28.448 7,29 L7,54 L9,54 L9,28 L10,26 L4,26" id="Fill-1286" fill="#C5CCCD"></path><path d="M3,22 L3,23 L26,23 C27.105,23 28,23.895 28,25 L28,26 L52,26 C52.55,26 53,25.55 53,25 L53,22 L3,22" id="Fill-1287" fill="#C5CCCD"></path><polyline id="Fill-1288" fill="#AAB0B1" points="50 20 28 4 28 2.458 52.559 20 50 20"></polyline><polyline id="Fill-1289" fill="#AAB0B1" points="6 20 28 4 28 2.458 3.441 20 6 20"></polyline></g></g></g><g id="Azure-Border" stroke="#0078D4" stroke-width="4"><rect x="2" y="2" width="96" height="96" rx="48"></rect></g></g></g></g></svg>