<svg xmlns="http://www.w3.org/2000/svg" xmlns:xlink="http://www.w3.org/1999/xlink" viewBox="0 0 100 100" version="1.1"><!-- Generator: Sketch 51.3 (57544) - http://www.bohemiancoding.com/sketch --><title>share-your-location-as-a-text-message-using-azure-functions-and-twilio</title><desc>Created with Sketch.</desc><defs><rect id="path-1" x="0" y="0" width="96" height="96" rx="48"></rect></defs><g id="Badges-FINAL" stroke="none" stroke-width="1" fill="none" fill-rule="evenodd"><g id="N/A-2" transform="translate(-577.000000, -344.000000)"><g id="share-your-location-as-a-text-message-using-azure-functions-and-twilio" transform="translate(577.000000, 344.000000)"><g id="Mask" transform="translate(2.000000, 2.000000)"><mask id="mask-2" fill="white"><use xlink:href="#path-1"></use></mask><use id="BG" fill="#55A2FF" xlink:href="#path-1"></use><g id="Monkey" mask="url(#mask-2)"><g transform="translate(7.000000, 4.000000)"><path d="M12.4570469,64.7954578 C12.4570469,80.416173 26.0569701,93.0784314 42.8336504,93.0784314 C59.6110579,93.0784314 73.2117082,80.416173 73.2117082,64.7954578 C73.2117082,49.1747426 59.6110579,36.5124843 42.8336504,36.5124843 C26.0569701,36.5124843 12.4570469,49.1747426 12.4570469,64.7954578" id="Fill-3095" fill="#39393D"></path><path d="M28.5423154,69.9035871 C28.5423154,82.7029076 36.3856843,93.0784314 46.0621053,93.0784314 C55.737072,93.0784314 63.5804409,82.7029076 63.5804409,69.9035871 C63.5804409,57.1034917 55.737072,46.7279679 46.0621053,46.7279679 C36.3856843,46.7279679 28.5423154,57.1034917 28.5423154,69.9035871" id="Fill-3098" fill="#997E6B"></path><path d="M36.8196254,50.0541769 C35.4003006,49.6134454 34.0260569,48.9932108 32.6707181,48.1876354 C30.1512712,46.6910457 28.0157401,44.6267588 26.2197707,42.3056219 C25.6213567,41.5321528 25.0280324,40.7550352 24.601217,39.8582489 C24.2238453,39.0643485 23.6639682,38.9804344 22.8372406,39.2672017 C21.4230057,39.757552 19.1333266,39.8239536 17.7670811,39.2124752 C10.6137425,36.0047675 14.3314717,27.5797918 19.5383285,27.4885809 C20.7955071,27.4659605 21.1728788,27.182112 21.3052134,25.8372973 C22.2773636,15.9405413 28.5974305,8.63125838 38.1800539,6.16345416 C38.8889892,5.9810322 39.4357783,5.7292899 39.620465,4.962388 C39.7964263,4.23197048 40.2857735,3.68616399 40.8260185,2.94042303 C41.1772141,3.65989523 40.7998424,4.50268467 41.5596756,5.100299 C43.0502574,3.07979341 44.9807427,1.60144587 47.3365891,0.722901729 C47.4362036,0.798059575 47.3242282,0.911890876 47.2900538,1.03155968 C47.1206365,1.37232389 46.1732081,2.43401968 46.5731203,3.71681088 C47.6288885,3.51030922 48.5159665,2.55441817 49.72152,2.94917929 C49.6640781,3.14181687 49.5870041,3.30964507 49.4982963,3.43515138 C48.1960368,5.29950377 48.3872675,5.34693348 51.0819486,5.84020245 C53.6559289,6.31158079 56.1535624,7.20325931 58.3618049,8.61301619 C64.8614688,12.7620212 68.3530658,18.46818 68.9965609,25.665091 C69.0583655,26.3502679 68.8155098,27.1777338 70.0210633,27.147087 C72.2213075,27.0923604 73.9431113,27.906692 75.1166718,29.4062005 C76.5025493,31.1771528 76.6632413,33.5975273 75.9004997,35.7150814 C75.163207,37.7611261 73.8464052,38.8819266 71.6934234,39.4408674 C70.404979,39.7750645 68.997288,39.8618973 67.9437012,39.1468033 C66.6079944,38.2412607 66.161547,39.0110813 65.6809252,39.9202723 C63.930764,43.2315957 61.23681,45.6205936 58.2411041,47.7301211 C57.0428217,48.5750996 55.7383808,49.2033609 54.3786794,49.7309252 C56.5272985,46.5451081 56.8123269,43.1498707 55.3740972,39.6342347 C55.0207202,38.7717437 55.3893666,38.6557233 56.0125025,38.5491889 C57.3518448,38.3215263 58.6082962,37.8246089 59.7985803,37.2087524 C65.0905094,34.4665855 70.3249965,27.7841044 64.978534,20.1690823 C61.8214089,15.6727459 54.517558,13.1910776 49.8036838,18.5229065 C49.3586906,19.0263911 48.9260583,19.5415508 48.4817922,20.0450354 C46.2284687,22.5982131 44.6113692,22.6857756 42.0999206,20.3792324 C41.8548835,20.1544885 41.6752866,19.8596946 41.4375206,19.6261945 C39.8407802,18.0595548 38.3058445,16.3798134 35.9667217,15.9456491 C31.9094307,15.193341 27.4165989,17.2868154 25.1843617,20.9301467 C22.5354887,25.2528174 22.723811,29.4813583 25.6613479,33.3238944 C27.9517541,36.3199926 31.0318052,38.0179762 34.6106558,38.8359562 C35.7696741,39.1001032 35.8045755,39.5444831 35.3290435,40.4004069 C34.7655309,41.414673 34.7139058,42.5281766 34.6317421,43.6584631 C34.4521451,46.1226189 35.5980754,48.092776 36.8196254,50.0541769" id="Fill-3101" fill="#39393D"></path><path d="M49.7500229,42.6725089 C51.0319232,42.7016964 51.4398337,41.8873648 51.4790978,40.8351549 C51.5176348,39.8128623 50.9279461,39.3042699 49.9121691,39.2743527 C48.7386085,39.2393277 48.1249251,39.7749185 48.1292878,40.9781738 C48.1329233,42.0792727 48.6848022,42.6323761 49.7500229,42.6725089 M41.8579374,39.2685152 C40.5963962,39.2699746 40.0401547,39.8442389 40.04888,41.0153878 C40.0597867,42.2821259 40.9097819,42.618512 41.9175606,42.6396729 C42.9144327,42.6601042 43.4015985,42.0391399 43.4321372,41.0504129 C43.4684929,39.8916686 42.9275207,39.2867574 41.8579374,39.2685152 M37.0306336,31.1573053 C37.7541111,31.1573053 38.4812242,31.1988975 39.200339,31.1456303 C39.9819856,31.087985 40.3818978,30.6093098 40.4037112,29.8132203 C40.4247975,29.0331841 39.9179997,28.6362339 39.2795944,28.6026682 C37.7817414,28.5238619 36.274436,28.514376 34.776583,28.5953714 C34.1505386,28.6296667 33.6124749,29.0682091 33.632107,29.8161391 C33.6524662,30.5866894 34.0981865,31.0792287 34.860201,31.1478194 C35.5785887,31.2113022 36.307156,31.1616834 37.0306336,31.1573053 M54.4820748,31.1631428 C55.2040981,31.1631428 55.9275757,31.1952491 56.6474176,31.1543866 C57.4167033,31.1098756 57.8689676,30.6873864 57.9133215,29.8832704 C57.9598567,29.0222387 57.4130677,28.6201807 56.6975884,28.5888042 C55.2026439,28.5238619 53.7004283,28.5311588 52.2054838,28.605587 C51.5459922,28.6384229 51.0966363,29.0623716 51.1184497,29.8321922 C51.1409902,30.6333895 51.5285415,31.101849 52.3160049,31.1514678 C53.0358469,31.1967085 53.7600515,31.1609538 54.4820748,31.1631428 M36.8197708,50.0540309 C35.5982208,48.0933597 34.4522906,46.1232026 34.6318875,43.6590468 C34.7140513,42.5280307 34.7656763,41.4145271 35.3291889,40.400261 C35.8047209,39.5443372 35.7690924,39.0999573 34.6108012,38.8358103 C31.0319506,38.0178302 27.9518995,36.3198467 25.6614933,33.3237485 C22.7239564,29.4812124 22.5356341,25.2526714 25.1845071,20.9300007 C27.4167443,17.2866694 31.9095761,15.1931951 35.9668671,15.9455032 C38.3059899,16.3796675 39.8409257,18.0601385 41.4369389,19.6260486 C41.675432,19.8595487 41.8550289,20.1550723 42.100066,20.3790864 C44.6115146,22.6856297 46.2286142,22.5980671 48.4819376,20.0448894 C48.9262037,19.5414048 49.358836,19.0262452 49.8038292,18.5227606 C54.5177034,13.1916614 61.8215544,15.6726 64.9779523,20.1689363 C70.325142,27.7846882 65.0906548,34.4664396 59.7979986,37.2086065 C58.6084416,37.824463 57.3519902,38.3213804 56.0119208,38.5497727 C55.389512,38.6555774 55.0208656,38.7715978 55.3735155,39.6340888 C56.8124723,43.1497247 56.5267168,46.5456919 54.3788248,49.7307792 C51.1286293,53.319384 47.1411411,54.5656908 42.4374465,53.4864825 C40.1906671,52.9713229 38.4390516,51.6155629 36.8197708,50.0540309" id="Fill-3104" fill="#F9CFB2"></path><path d="M54.4819294,31.1621213 C53.7599061,31.1606619 53.0357015,31.1971463 52.3158595,31.1511759 C51.528396,31.1015572 51.1408448,30.6330976 51.1183043,29.83263 C51.0964909,29.0620797 51.5458468,28.6381311 52.2053383,28.6052951 C53.7002828,28.5315966 55.2024985,28.5242998 56.697443,28.589242 C57.4129223,28.6206186 57.9597113,29.0219469 57.9131761,29.8829785 C57.8688222,30.6878242 57.4165578,31.1103134 56.6479993,31.1540947 C55.9274302,31.1956869 55.2039527,31.1628509 54.4819294,31.1621213" id="Fill-3106" fill="#3F3E40"></path><path d="M37.0304881,31.1592025 C36.3070106,31.1613916 35.5784433,31.2110103 34.8607827,31.1475275 C34.0980411,31.0796665 33.6523207,30.5863976 33.6319616,29.8158472 C33.6123295,29.0686469 34.1503932,28.6293748 34.7764376,28.5950795 C36.2742905,28.5140841 37.781596,28.5242998 39.2794489,28.6023764 C39.9178542,28.635942 40.4246521,29.0328922 40.4035658,29.8129285 C40.3817524,30.6090179 39.9825673,31.0876931 39.2001936,31.1453384 C38.4810788,31.1993353 37.7539657,31.1570134 37.0304881,31.1592025" id="Fill-3108" fill="#3E3D40"></path><path d="M41.8582282,39.2684422 C42.9278116,39.2866844 43.4687837,39.8915956 43.4317009,41.0503399 C43.4011622,42.0390669 42.9139964,42.6600312 41.9171244,42.6396 C40.9093456,42.618439 40.0593504,42.2820529 40.0491709,41.0153149 C40.0397184,39.8441659 40.596687,39.2699016 41.8582282,39.2684422" id="Fill-3110" fill="#ECAF86"></path><path d="M49.7500229,42.6725089 C48.6848022,42.6323761 48.1329233,42.0792727 48.1292878,40.9781738 C48.1249251,39.7749185 48.7386085,39.2393277 49.9121691,39.2743527 C50.9279461,39.3042699 51.5176348,39.8128623 51.4790978,40.8351549 C51.4398337,41.8873648 51.0319232,42.7016964 49.7500229,42.6725089" id="Fill-3112" fill="#ECAF86"></path><path d="M30.9096502,79.6834429 L4.73357893,79.6834429 L4.73357893,40.6903849 C4.73357893,39.523614 5.67591749,38.5779386 6.83929843,38.5779386 L28.8039307,38.5779386 C29.9673116,38.5779386 30.9096502,39.523614 30.9096502,40.6903849 L30.9096502,79.6834429 Z" id="Fill-3114" fill="#FFFFFF"></path><polygon id="Fill-3116" fill="#EFEFEF" points="6.69743867 75.7036525 28.945645 75.7036525 28.945645 40.7669291 6.69743867 40.7669291"></polygon><path d="M24.8960614,52.4420073 C24.8960614,48.7140322 21.8843589,45.6923949 18.1702653,45.6923949 C14.4561716,45.6923949 11.4444692,48.7140322 11.4444692,52.4420073 C11.4444692,53.6343172 11.7556736,54.7529287 12.2966457,55.7256025 L17.77617,66.2754291 L23.0782786,57.3674001 C24.1085979,55.5431806 24.8960614,54.041483 24.8960614,52.4420073" id="Fill-3118" fill="#128375"></path><path d="M21.9272586,52.3764813 C21.9272586,54.4590104 20.245446,56.1467783 18.1702653,56.1467783 C16.0950845,56.1467783 14.4132719,54.4590104 14.4132719,52.3764813 C14.4132719,50.2939523 16.0950845,48.6061844 18.1702653,48.6061844 C20.245446,48.6061844 21.9272586,50.2939523 21.9272586,52.3764813" id="Fill-3119" fill="#FFFFFF"></path><path d="M3.59041173,53.7161152 L6.40361227,55.8745318 C7.28196488,56.5487634 7.94581913,57.4937091 8.17340553,58.5794846 C8.36681761,59.5069178 8.23521014,60.4525932 6.98821119,60.6269886 C6.22110689,60.733523 5.45036701,60.4504042 4.85704273,59.9483789 L1.52759189,57.1317839 C0.947355645,56.640704 0.519813148,55.9701209 0.411473298,55.2163534 C0.321311274,54.5917406 0.444193387,53.9058341 1.19602832,53.4789667 C1.95077171,53.0506399 2.90183563,53.1870916 3.59041173,53.7161152" id="Fill-3120" fill="#39393D"></path><path d="M4.31752482,49.5204102 L7.13072536,51.6788268 C8.00907797,52.3530584 8.67293222,53.2980041 8.90051862,54.3837796 C9.0939307,55.3112128 8.96232323,56.2568882 7.71532428,56.4312836 C6.94821998,56.537818 6.1774801,56.2546992 5.58415582,55.7526739 L2.25470498,52.9360789 C1.67446873,52.444999 1.24692624,51.7744159 1.13858639,51.0206484 C1.04842436,50.3960356 1.17130648,49.7101291 1.92314141,49.2832617 C2.6778848,48.8549349 3.62894872,48.9913866 4.31752482,49.5204102" id="Fill-3121" fill="#39393D"></path><path d="M5.04463791,45.0510723 L7.85783845,47.2094889 C8.73619106,47.8837204 9.40004531,48.8286662 9.62763171,49.9144417 C9.82104379,50.8418749 9.68943632,51.7875503 8.44243737,51.9619457 C7.67533306,52.0684801 6.90459319,51.7853612 6.31126891,51.283336 L2.98181807,48.466741 C2.40158182,47.9756611 1.97403933,47.305078 1.86569948,46.5513105 C1.77553745,45.9266977 1.89841957,45.2407911 2.6502545,44.8139238 C3.40499789,44.385597 4.35606181,44.5220486 5.04463791,45.0510723" id="Fill-3122" fill="#39393D"></path><path d="M26.7067911,61.2132198 L29.8748228,61.2540823 C30.8644237,61.2657573 31.8576602,61.5919278 32.6291272,62.2574031 C33.2871645,62.8251002 33.7299764,63.5839756 32.9643263,64.3866322 C32.4938842,64.8806308 31.7994912,65.09297 31.1058253,65.0506481 L27.2070449,64.8127699 C26.5286484,64.7711777 25.8531603,64.5157869 25.3521794,64.0276258 C24.9362707,63.6241084 24.6337917,63.0578706 24.9137302,62.3405875 C25.195123,61.6203856 25.9316885,61.2030042 26.7067911,61.2132198" id="Fill-3123" fill="#39393D"></path></g></g></g><g id="Azure-Border" stroke="#0078D4" stroke-width="4"><rect x="2" y="2" width="96" height="96" rx="48"></rect></g></g></g></g></svg>