<svg xmlns="http://www.w3.org/2000/svg" xmlns:xlink="http://www.w3.org/1999/xlink" viewBox="0 0 100 100" version="1.1"><!-- Generator: Sketch 51.3 (57544) - http://www.bohemiancoding.com/sketch --><title>control-and-organize-azure-resources-with-azure-resource-manager</title><desc>Created with Sketch.</desc><defs><filter x="-1.4%" y="-1.3%" width="102.9%" height="105.3%" filterUnits="objectBoundingBox" id="filter-1"><feOffset dx="0" dy="2" in="SourceAlpha" result="shadowOffsetOuter1"></feOffset><feColorMatrix values="0 0 0 0 0   0 0 0 0 0   0 0 0 0 0  0 0 0 0.0970052083 0" type="matrix" in="shadowOffsetOuter1" result="shadowMatrixOuter1"></feColorMatrix><feMerge><feMergeNode in="shadowMatrixOuter1"></feMergeNode><feMergeNode in="SourceGraphic"></feMergeNode></feMerge></filter><filter x="-2.3%" y="-2.4%" width="104.8%" height="109.6%" filterUnits="objectBoundingBox" id="filter-2"><feOffset dx="0" dy="2" in="SourceAlpha" result="shadowOffsetOuter1"></feOffset><feColorMatrix values="0 0 0 0 0   0 0 0 0 0   0 0 0 0 0  0 0 0 0.0982789855 0" type="matrix" in="shadowOffsetOuter1" result="shadowMatrixOuter1"></feColorMatrix><feMerge><feMergeNode in="shadowMatrixOuter1"></feMergeNode><feMergeNode in="SourceGraphic"></feMergeNode></feMerge></filter></defs><g id="Badges-FINAL" stroke="none" stroke-width="1" fill="none" fill-rule="evenodd"><g id="Manage-Resources-in-Azure" transform="translate(-577.000000, -1341.000000)"><g id="control-and-organize-azure-resources-with-azure-resource-manager" transform="translate(577.000000, 1341.000000)"><rect id="BG" fill="#253B5D" x="2" y="2" width="96" height="96" rx="48"></rect><g id="Box" filter="url(#filter-1)" transform="translate(15.000000, 9.000000)"><polygon id="Right-Edge" fill="#654A23" points="68.4609276 28.0087041 68.4609276 28.6915147 60.2415278 33.6430482 60.2415278 32.9052733"></polygon><polygon id="Right-Flap" fill="#D9A65E" points="68.4609276 28.0087041 60.2415278 23.1611109 52.1492196 28.0087041 60.2415278 32.9052733"></polygon><polygon id="Left-Edge" fill="#654A23" points="0.353267713 28.0087041 8.57266758 32.9052733 8.57266758 33.6430482 0.353267713 28.6915147"></polygon><polygon id="Left-Flap" fill="#D9A65E" points="0.353267713 28.0087041 8.57266758 23.1611109 16.6649758 28.0087041 8.57266758 32.9052733"></polygon><polygon id="Inside-Box" fill="#CC9547" points="8.50912173 32.9052733 16.6030485 28.0087041 52.2127654 28.0087041 60.3050736 32.9052733"></polygon><polygon id="Back-Box" fill="#9C7237" points="16.6030485 32.9052733 16.6030485 28.0087041 52.2127654 28.0087041 52.2127654 32.9052733"></polygon><polygon id="Back-Flap" fill="#D9A65E" points="17.4123603 18.1390272 16.6030485 28.0087041 52.2127654 28.0087041 51.4034537 18.1390272"></polygon><g id="Group-2" filter="url(#filter-2)" transform="translate(16.468119, 0.419897)" fill="#FFFFFF"><path d="M20.6547439,19.1878325 C20.6062758,19.221796 20.5512357,19.239192 20.4904451,19.2441623 L7.64556389,20.4328865 C7.52398277,20.4453122 7.40733061,20.3881541 7.33668212,20.2879202 C7.26849811,20.1901714 7.25453271,20.0617726 7.30792983,19.9507698 L12.678858,8.21760545 C12.7306122,8.10825938 12.8365849,8.03287687 12.953237,8.02210794 L25.8022257,6.83586879 C25.9180564,6.82592824 26.037173,6.87894451 26.1061785,6.97752165 C26.1776485,7.0794123 26.1866849,7.20863947 26.1390383,7.31715716 L20.7648241,19.0503215 C20.7401793,19.1049945 20.7040335,19.1522122 20.6547439,19.1878325" id="Fill-3033"></path><path d="M28.3835244,33.030796 C28.3334132,33.065588 28.2775516,33.0879542 28.2175826,33.0929245 L15.4137761,34.2775069 C15.290552,34.2907609 15.1755428,34.2369163 15.1040728,34.135854 L7.66297956,23.5110612 C7.59315257,23.4116557 7.58165165,23.2832569 7.63258428,23.1681121 C7.68269542,23.0604228 7.78948965,22.9842119 7.91107077,22.9693011 L20.7140558,21.7872039 C20.8348154,21.7780917 20.9490031,21.8335931 21.0180086,21.933827 L28.4607448,32.5586198 C28.5322148,32.6605105 28.5420727,32.7855958 28.4944261,32.8965986 C28.4673168,32.9537568 28.429528,32.9976609 28.3835244,33.030796" id="Fill-3035"></path><path d="M30.957101,31.1976755 C30.9102758,31.2308107 30.8544142,31.2523485 30.7911592,31.2606323 C30.671221,31.2697445 30.5570334,31.2175566 30.4855634,31.1156659 L23.0921168,20.5596286 C23.0222898,20.4602231 23.0107889,20.3318243 23.059257,20.2199931 L28.4457936,8.45120841 C28.5000122,8.34020559 28.602699,8.26647983 28.7234586,8.25405414 C28.8425753,8.24411359 28.9592274,8.29795824 29.0290544,8.39736376 L36.422501,18.9542295 C36.4931495,19.0552918 36.5038289,19.1828622 36.4553608,19.2930366 L31.0663597,31.0651348 C31.0458223,31.1173227 31.0055691,31.1637119 30.957101,31.1976755" id="Fill-3039"></path><path d="M20.9146646,40.1189892 C20.7610452,40.2283352 20.5786736,40.2995758 20.3790505,40.3178002 L14.4010382,40.8695008 C13.394708,40.9622793 12.2429733,40.4254895 11.660534,39.5937967 L0.636083626,23.8537617 C0.0536443338,23.0220689 -0.0621863294,21.7480215 0.360883114,20.8235502 L2.87629794,15.328082 C3.13260409,14.768926 3.78815635,14.5253824 4.34184335,14.7830084 C4.89635185,15.0414627 5.1378711,15.701681 4.88238645,16.2608371 L2.36779312,21.7571337 C2.27825026,21.9518028 2.31850347,22.393329 2.44172758,22.568117 L13.4661779,38.308152 C13.5885806,38.4845968 13.9870052,38.6701538 14.1997721,38.651101 L20.1777845,38.0994004 C20.7848686,38.0422423 21.3221257,38.493709 21.3771658,39.1058813 C21.4149545,39.5167574 21.2268324,39.8961551 20.9146646,40.1189892" id="Fill-3041"></path><path d="M22.3987758,1.24091219 C22.5523952,1.13156612 22.7339454,1.06115388 22.9335684,1.04292953 L28.9115808,0.490400543 C29.917911,0.397622062 31.0704672,0.934411846 31.652085,1.76610466 L42.6765353,17.5061397 C43.2589746,18.3378325 43.3748053,19.6118798 42.9517358,20.5363511 L40.436321,26.0326477 C40.1800148,26.5909754 39.5244626,26.8345189 38.9707756,26.5768929 C38.4162671,26.319267 38.1755693,25.6582203 38.431054,25.0990643 L40.9448258,19.603596 C41.0343687,19.4080985 40.9941155,18.9674007 40.8708914,18.7917843 L29.846441,3.05174933 C29.7240384,2.87613291 29.3256138,2.68974757 29.1128468,2.7088003 L23.135656,3.26132929 C22.5277504,3.31765908 21.9904933,2.86619236 21.9354532,2.25402006 C21.8976644,1.84314393 22.0866081,1.46374622 22.3987758,1.24091219" id="Fill-3043"></path></g><g id="Front-Box" transform="translate(8.093117, 32.790416)"><path d="M52.2111468,39.2874118 C52.2111468,40.1851161 51.4827662,40.9196015 50.5925233,40.9196015 L2.03381844,40.9196015 C1.1427662,40.9196015 0.415194941,40.1851161 0.415194941,39.2874118 L0.416004253,0.114857797 L52.2119561,0.114857797 L52.2111468,39.2874118" id="Fill-681" fill="#F2BE53"></path><path d="M50.5925233,40.9196015 C51.4827662,40.9196015 52.2111468,40.1851161 52.2111468,39.2874118 L52.2119561,1.74704755 L28.7411061,1.74704755 C27.4000766,1.74704755 26.3131709,2.84061468 26.3131709,4.19533217 L26.3131709,36.8391271 C26.3131709,38.1938446 25.2262652,39.2874118 23.8852356,39.2874118 L0.415194941,39.2874118 C0.415194941,40.1851161 1.1427662,40.9196015 2.03381844,40.9196015 L50.5925233,40.9196015" id="Fill-683" fill="#EFB252"></path></g><g id="Label" transform="translate(39.656276, 58.905451)"><path d="M14.9836157,8.27580654 C14.9836157,9.1735109 14.2552351,9.90799629 13.3649922,9.90799629 L2.03462775,9.90799629 C1.14438483,9.90799629 0.416004253,9.1735109 0.416004253,8.27580654 L0.416004253,1.74704755 C0.416004253,0.849343184 1.14438483,0.114857797 2.03462775,0.114857797 L13.3649922,0.114857797 C14.2552351,0.114857797 14.9836157,0.849343184 14.9836157,1.74704755 L14.9836157,8.27580654" id="Fill-686" fill="#FFFFFE"></path><path d="M12.5556805,4.19533217 L2.8439395,4.19533217 C2.3963901,4.19533217 2.03462775,3.82808948 2.03462775,3.37923729 C2.03462775,2.93038511 2.3963901,2.56314242 2.8439395,2.56314242 L12.5556805,2.56314242 C13.0032299,2.56314242 13.3649922,2.93038511 13.3649922,3.37923729 C13.3649922,3.82808948 13.0032299,4.19533217 12.5556805,4.19533217" id="Fill-687" fill="#C5CCCD"></path><path d="M12.5556805,7.45971167 L2.8439395,7.45971167 C2.3963901,7.45971167 2.03462775,7.09246897 2.03462775,6.64361679 C2.03462775,6.19476461 2.3963901,5.82752192 2.8439395,5.82752192 L12.5556805,5.82752192 C13.0032299,5.82752192 13.3649922,6.19476461 13.3649922,6.64361679 C13.3649922,7.09246897 13.0032299,7.45971167 12.5556805,7.45971167" id="Fill-688" fill="#C5CCCD"></path></g><g id="Front-Flap" transform="translate(4.855870, 32.790416)"><polyline id="Front-Shadow" fill-opacity="0.0974298007" fill="#000000" points="55.4483938 19.6138238 3.65244193 19.6138238 3.65325124 0.114857797 55.4492031 0.114857797"></polyline><polygon id="Fill-680-Copy-6" fill="#654A23" points="0.416813564 12.6282163 0.416813564 11.977799 58.6872594 11.977799 58.6872594 12.6282163"></polygon><polygon id="Fill-680-Copy-3" fill="#D9A65E" points="3.65325124 0.114857797 0.416813564 11.977799 58.6872594 11.977799 55.4492031 0.114857797"></polygon></g></g><g id="Azure-Border" stroke="#0078D4" stroke-width="4"><rect x="2" y="2" width="96" height="96" rx="48"></rect></g></g></g></g></svg>