<svg xmlns="http://www.w3.org/2000/svg" xmlns:xlink="http://www.w3.org/1999/xlink" viewBox="0 0 100 100" version="1.1"><!-- Generator: Sketch 51.3 (57544) - http://www.bohemiancoding.com/sketch --><title>ai-cognitive-services</title><desc>Created with Sketch.</desc><defs><path d="M4.57441494,65.0768994 C4.57441494,65.0768994 6.82291933,56.9223456 5.8402335,45.0208364 C5.59435508,42.0421476 4.68452212,39.166943 3.37813776,36.4788378 C1.89210485,33.4206731 0.000413936743,27.6661245 1.07582159,19.4370621 C1.07582159,19.4370621 2.03284334,3.53857964 15.3011717,1.14768101 C21.0550278,0.111218641 26.0166367,0.00186635217 30.1859986,0.819624146 L30.185999,0.81962223 C33.4050244,1.45098579 36.3903167,2.95001274 38.8193037,5.15472754 C43.0482201,8.99318158 45.4490859,12.5187725 46.021901,15.7315003 C46.4243997,17.9889805 46.5473901,20.1074785 46.3908724,22.0869944 L46.3908719,22.0869943 C46.1478908,25.1600324 46.6981931,28.2439787 47.9890467,31.0433179 L50.5004205,36.4894718 C50.8189261,37.1801817 50.517195,37.9983125 49.8264852,38.3168181 C49.6456602,38.4002015 49.448904,38.4433815 49.2497797,38.4433815 L48.0240599,38.4433861 C47.5049186,38.4433861 47.0721115,38.8406437 47.0277261,39.357884 C46.7034913,43.1363103 46.0275826,46.0170156 45,48 C44.1578649,49.6251158 41.3713494,50.5928075 36.6404534,50.9030751 L36.640453,50.903068 C34.0391182,51.073672 32.0053958,53.2143004 31.9681695,55.8209577 C31.9348957,58.1508548 31.7982136,61.3236473 31.5581233,65.3393353" id="path-1"></path><filter x="-2.0%" y="-1.5%" width="104.0%" height="106.1%" filterUnits="objectBoundingBox" id="filter-2"><feOffset dx="0" dy="2" in="SourceAlpha" result="shadowOffsetOuter1"></feOffset><feColorMatrix values="0 0 0 0 0   0 0 0 0 0   0 0 0 0 0  0 0 0 0.102383379 0" type="matrix" in="shadowOffsetOuter1"></feColorMatrix></filter></defs><g id="Badges-FINAL" stroke="none" stroke-width="1" fill="none" fill-rule="evenodd"><g id="N/A-2" transform="translate(-577.000000, -1621.000000)"><g id="ai-cognitive-services" transform="translate(577.000000, 1621.000000)"><rect id="BG" fill="#55A2FF" x="2" y="2" width="96" height="96" rx="48"></rect><g id="Head" transform="translate(27.000000, 16.000000)"><g id="Fill-3787"><use fill="black" fill-opacity="1" filter="url(#filter-2)" xlink:href="#path-1"></use><use fill="#F9F9F9" fill-rule="evenodd" xlink:href="#path-1"></use></g><path d="M15.7498791,27.5945962 C14.7622261,27.3528572 13.8995819,26.8693791 13.1155857,26.2327444 C12.9541504,26.1011125 12.8216906,25.97362 12.5650498,26.0729648 C9.61119723,27.2170859 6.16641566,25.7649958 4.9568925,22.3036568 C4.9254333,22.2134186 4.88403963,22.125664 4.8476132,22.0362537 C4.82112124,21.9460154 4.79462929,21.8541215 4.76730947,21.7638833 C4.74578476,21.6984813 4.72426005,21.6330793 4.70273534,21.5676773 C4.49742271,20.2927521 4.48003737,19.0277614 4.92791692,17.793402 C5.74006081,15.5498649 7.37014371,14.1217831 9.52261477,13.2293355 C9.79912451,13.115089 9.95062536,12.9693832 10.0483144,12.6771439 C10.9167537,10.0776212 13.5303503,8.0965199 16.0570202,8.07416732 C16.4701291,8.07002795 16.6315644,8.15364317 16.6265971,8.62221957 C16.5984495,10.9477162 16.6125233,13.2732128 16.614179,15.5987094 C16.6150069,16.7428306 17.197002,17.3248256 18.3394674,17.3281371 C19.323809,17.3314486 20.3098063,17.3256535 21.2941479,17.3306208 C21.8190197,17.3331044 21.9531352,17.4705314 21.9572745,17.9879523 C21.9614139,18.5376603 21.9448564,19.0873683 21.9638975,19.6362484 C21.9721762,19.8962007 21.9042906,20.0228653 21.6410269,20.1288331 C20.5358157,20.5767127 19.9298124,21.6802681 20.1491988,22.7672659 C20.3843149,23.9238052 21.378591,24.7500229 22.5194006,24.736777 C23.6304068,24.7227031 24.623855,23.9039362 24.8391021,22.8235613 C25.0700788,21.6653663 24.473182,20.5816799 23.3166428,20.1147593 C23.0749037,20.0170702 23.014469,19.8912335 23.021092,19.651978 C23.0368215,19.0550812 23.0318543,18.4573566 23.0244034,17.858804 C23.0136411,16.9150283 22.3952196,16.2783936 21.4489602,16.262664 C20.4315037,16.2469344 19.4140472,16.2610082 18.3957628,16.2585246 C17.7732019,16.2576967 17.6796522,16.1682864 17.6796522,15.568906 C17.6779965,13.0977036 17.6837916,10.6265013 17.6722014,8.15612679 C17.6705456,7.86637107 17.7425706,7.67761592 17.9975556,7.52611507 C19.8428856,6.42173184 21.7610685,5.92086838 23.8497933,6.79510278 C24.0128844,6.86298841 24.152795,6.85719329 24.3134025,6.79593066 C26.6678747,5.87947471 28.8385589,6.31576403 30.880095,7.69168977 C31.0398745,7.79931332 31.1897196,7.90031389 31.4057946,7.90031389 C34.1526788,7.89203515 36.0509927,9.30273157 37.4426481,11.5437851 C37.7580679,12.0520994 38.0304382,12.5902172 38.1951851,13.1622778 C38.3052922,13.5430996 38.5279902,13.7359941 38.8583117,13.9164705 C40.8452081,15.0009848 42.2865358,16.5333786 42.7410384,18.8307275 C43.3867797,22.0975163 41.062111,25.4843467 37.8400273,25.9810708 C37.0750722,26.0986288 36.3258467,26.0067349 35.6006296,25.750922 C35.3762759,25.672274 35.2405046,25.6904872 35.0683069,25.8825539 C33.7221846,27.3818328 32.025044,28.1202959 30.015795,28.1534108 C30.0000654,28.0929761 29.9843358,28.0317134 29.9694341,27.9721065 C29.9744014,26.1797604 29.9917867,24.3874144 29.9752292,22.5958961 C29.9719177,22.191066 30.0406312,22.040393 30.493478,22.0544669 C31.7352883,22.0908933 32.9795821,22.073508 34.2222202,22.0635735 C35.1188072,22.0569505 35.7695158,21.445152 35.7869011,20.5634667 C35.794352,20.2405961 35.8804508,20.1039969 36.1892476,19.9773323 C37.3457869,19.5046165 37.9120523,18.2371422 37.541165,17.0599061 C37.1793843,15.9099899 35.9930416,15.2145761 34.7967644,15.4513479 C33.8024884,15.647554 33.0126971,16.4878456 32.9034177,17.4655641 C32.7784089,18.5823655 33.333912,19.5874039 34.3695817,19.9864389 C34.7454363,20.129661 34.7826906,20.3407688 34.7032147,20.6437705 C34.6220831,20.9484279 34.3770326,21.0005839 34.0938998,20.9989282 C32.8827209,20.9923052 31.6707141,20.9831986 30.461191,21.0047233 C30.0952709,21.0113463 29.9710899,20.9326983 29.9744014,20.5369748 C29.9950982,18.1791911 29.9868195,15.8214074 29.983508,13.4644516 C29.9818522,12.4337491 29.3543241,11.7979423 28.3335561,11.7880078 C27.7366593,11.7830405 27.1389347,11.7747618 26.54121,11.792975 C26.2655281,11.8020816 26.1281011,11.7284009 26.0163382,11.4502354 C25.5692865,10.3350898 24.4367556,9.73405366 23.3240936,9.97744846 C22.1948742,10.2258105 21.4150174,11.197734 21.424124,12.3468224 C21.4332306,13.4644516 22.2329564,14.4347193 23.3332003,14.6632124 C24.4350999,14.8925333 25.579221,14.2956366 26.004748,13.2235404 C26.1214782,12.9296453 26.2547658,12.8360956 26.5594232,12.8493416 C27.1074755,12.8758335 27.6571835,12.8543088 28.2060636,12.8576203 C28.7797799,12.8609318 28.9130675,12.9950473 28.9130675,13.5737309 C28.9138954,18.369602 28.9122397,23.1654731 28.9114118,27.9613442 C28.8832641,27.9580327 28.8576,27.9646557 28.8335917,27.9812132 C28.8029604,27.9712787 28.7698454,27.9654836 28.7416977,27.9505818 C28.2317277,27.6674491 27.7946105,27.7287117 27.2995421,28.0772465 C26.5519724,28.6046019 25.6396558,28.747824 24.7596263,28.9382349 C23.3522413,29.0326125 21.9564466,29.0044648 20.6020456,28.5433393 C20.049854,28.3545841 19.5208429,28.1202959 19.0472992,27.7775563 C18.8659949,27.6459244 18.7111826,27.5863175 18.4768944,27.6608261 C17.9644407,27.8222614 17.4271508,27.8139827 16.8948282,27.8081876 C16.8832379,27.5995635 16.863369,27.3901115 16.863369,27.1814874 C16.8608853,25.1954189 16.8675083,23.2076946 16.8592296,21.2216261 C16.8542624,20.1685711 16.2391524,19.5484938 15.2167286,19.5402151 C14.8135542,19.5369036 14.4070683,19.5095838 14.0072054,19.5468381 C13.5998917,19.5840924 13.3945791,19.4665344 13.224865,19.06336 C12.8001659,18.0550101 11.693299,17.5119251 10.6385882,17.7147541 C9.58387741,17.9184109 8.78415162,18.8183094 8.69142979,19.9077909 C8.6036752,20.9310426 9.29163807,21.9741631 10.2834305,22.3210421 C11.3133051,22.681995 12.564222,22.3591243 13.0236917,21.3838893 C13.3896118,20.6065161 13.885508,20.541942 14.5651922,20.6048604 C14.8052755,20.627213 15.050326,20.5998932 15.2920651,20.6123113 C15.5950668,20.6280409 15.7738875,20.7894762 15.7730596,21.1032402 C15.7672645,23.2664737 15.7581579,25.4313628 15.7498791,27.5945962" id="Fill-3789" fill="#55A2FF"></path><path d="M22.4828086,23.7309107 C21.7186814,23.7251156 21.0952926,23.0984153 21.0977763,22.3392553 C21.099432,21.5817511 21.7269601,20.9591902 22.4919152,20.9550509 C23.2808787,20.9517394 23.9075789,21.5850626 23.8918493,22.3723703 C23.8769476,23.1406369 23.2576982,23.7375337 22.4828086,23.7309107" id="Fill-3791" fill="#55A2FF"></path><path d="M22.4197247,12.3121345 C22.4222083,11.5471794 23.0422855,10.9204791 23.7997898,10.9188234 C24.5755072,10.9171677 25.2104862,11.5670483 25.1955844,12.347733 C25.1798549,13.1093766 24.5473595,13.7236588 23.7873717,13.7137243 C23.0273838,13.7046177 22.4180689,13.0795732 22.4197247,12.3121345" id="Fill-3793" fill="#55A2FF"></path><path d="M35.2768482,19.171977 C34.5077538,19.1769442 33.8835372,18.5709408 33.8711191,17.8101251 C33.8578731,17.031924 34.4936799,16.3961172 35.2801597,16.4027402 C36.0434591,16.4085353 36.66602,17.031924 36.6651921,17.7894282 C36.6643642,18.5477604 36.0418033,19.1678376 35.2768482,19.171977" id="Fill-3795" fill="#55A2FF"></path><path d="M12.4650427,20.0717927 C12.4642148,20.8400593 11.8524163,21.4593086 11.0899449,21.4642759 C10.3324406,21.4684152 9.70656826,20.8499937 9.69663378,20.0875223 C9.68669929,19.3035261 10.323334,18.6610962 11.0990515,18.6710307 C11.8606951,18.6809652 12.4666985,19.3018703 12.4650427,20.0717927" id="Fill-3797" fill="#55A2FF"></path></g><g id="Azure-Border" stroke="#0078D4" stroke-width="4"><rect x="2" y="2" width="96" height="96" rx="48"></rect></g></g></g></g></svg>