<svg xmlns="http://www.w3.org/2000/svg" xmlns:xlink="http://www.w3.org/1999/xlink" viewBox="0 0 100 100"><defs><rect id="a" x="0" y="0" width="96" height="96" rx="48"/><filter x="-7.3%" y="-8.6%" width="114.5%" height="117.2%" filterUnits="objectBoundingBox" id="c"><feOffset dy="2" in="SourceAlpha" result="shadowOffsetOuter1"/><feColorMatrix values="0 0 0 0 0 0 0 0 0 0 0 0 0 0 0 0 0 0 0.0966089221 0" in="shadowOffsetOuter1" result="shadowMatrixOuter1"/><feMerge><feMergeNode in="shadowMatrixOuter1"/><feMergeNode in="SourceGraphic"/></feMerge></filter><path d="M50.702.636l-48.925.836C.794 1.472 0 2.268 0 3.25v40.86c0 .981.795 1.776 1.776 1.776l49.055-.84a3.8 3.8 0 0 0 3.736-3.799V4.436a3.8 3.8 0 0 0-3.865-3.8z" id="d"/><path d="M3.345 3.937L59.51.01c1.144-.08 2.126.648 2.195 1.627l2.85 40.76c.068.979-.803 1.837-1.947 1.917l-45.21 3.161a4.75 4.75 0 0 1-4.544-2.544L1.156 12.697.7 6.979a2.85 2.85 0 0 1 2.645-3.042z" id="e"/><filter x="-1.6%" y="-2.1%" width="103.1%" height="108.4%" filterUnits="objectBoundingBox" id="f"><feOffset dy="2" in="SourceAlpha" result="shadowOffsetOuter1"/><feColorMatrix values="0 0 0 0 0 0 0 0 0 0 0 0 0 0 0 0 0 0 0.100600091 0" in="shadowOffsetOuter1"/></filter><path d="M14.176 40.736c-1.989 2.687-2.27 4.856-.844 6.506-.115.008-3.648-3.593-10.6-10.804A6.65 6.65 0 0 1 .92 31.016l.144-18.28C8.038 25.114 12.128 32 13.333 33.397c1.806 2.095 2.303 5.365.843 7.34z" id="i"/><filter x="-7.1%" y="-2.9%" width="114.1%" height="111.6%" filterUnits="objectBoundingBox" id="h"><feOffset dy="2" in="SourceAlpha" result="shadowOffsetOuter1"/><feColorMatrix values="0 0 0 0 0 0 0 0 0 0 0 0 0 0 0 0 0 0 0.100600091 0" in="shadowOffsetOuter1"/></filter><path d="M64.305 44.914l-.887-.062a1.776 1.776 0 0 1-1.648-1.896l2.85-40.76A1.776 1.776 0 0 1 66.517.547l.886.062a4.442 4.442 0 0 1 4.12 4.74l-3.098 44.305a4.442 4.442 0 0 0-4.12-4.74z" id="k"/><filter x="-10.2%" y="-2%" width="120.5%" height="108.1%" filterUnits="objectBoundingBox" id="j"><feOffset dy="2" in="SourceAlpha" result="shadowOffsetOuter1"/><feColorMatrix values="0 0 0 0 0 0 0 0 0 0 0 0 0 0 0 0 0 0 0.0996659873 0" in="shadowOffsetOuter1"/></filter></defs><g fill="none" fill-rule="evenodd"><g transform="translate(2 2)"><mask id="b" fill="#fff"><use xlink:href="#a"/></mask><use fill="#EEC360" xlink:href="#a"/><g mask="url(#b)"><g filter="url(#c)" transform="rotate(-3 612.764 -271.381)"><use fill="#3D69A3" xlink:href="#d"/><use fill-opacity=".024" fill="#000" xlink:href="#d"/></g><path d="M74.757 60.892l4.43.31-.433 6.202a4.442 4.442 0 0 1-4.74 4.12l-50.507-3.531a1.776 1.776 0 0 1-1.649-1.896l2.85-40.76a1.776 1.776 0 0 1 1.897-1.649l50.507 3.532-2.355 33.672z" fill="#3E75BF"/><g transform="translate(10.329 24.4)"><mask id="g" fill="#fff"><use xlink:href="#e"/></mask><use fill="#000" filter="url(#f)" xlink:href="#e"/><use fill="#5F93D9" xlink:href="#e"/><g mask="url(#g)"><use fill="#000" filter="url(#h)" xlink:href="#i"/><use fill="#314263" xlink:href="#i"/></g></g><g transform="translate(10.329 17.75)"><use fill="#000" filter="url(#j)" xlink:href="#k"/><use fill="#314263" xlink:href="#k"/></g><path d="M59.093 46.953l-1.744 1.007a.75.75 0 0 1-.75-1.3l1.76-1.015-5.947-10.592a1 1 0 0 0-1.815.156l-3.745 10.555a1 1 0 0 0 .16.957l2.99 3.755 2.107-1.217a.75.75 0 0 1 .75 1.3l-1.913 1.104 4.84 6.082a1.6 1.6 0 0 1-.98 2.573l-6.96 1.196a.25.25 0 0 0 .043.496h17.95a1 1 0 0 0 .872-1.49l-7.618-13.567zm-13.932-.907l4.685-13.207a1.6 1.6 0 0 1 2.903-.248l16.022 28.536a1.6 1.6 0 0 1-1.395 2.383H36.911a.814.814 0 0 1-.138-1.616l16.28-2.797a1 1 0 0 0 .613-1.608l-8.345-10.485a1 1 0 0 1-.16-.958zm-11.905 12.85a.75.75 0 0 1 .75-.75h.765a1 1 0 0 0 .911-.589L46.95 32.623a.25.25 0 0 0-.392-.292l-8.879 7.7a1 1 0 0 0-.218.269l-9.114 16.359a1 1 0 0 0 .873 1.487h.125a.75.75 0 1 1 0 1.5h-1.657a1.6 1.6 0 0 1-1.397-2.379l9.988-17.928a1 1 0 0 1 .218-.268l9.595-8.321a1.6 1.6 0 0 1 2.506 1.868L36.65 59.058a1 1 0 0 1-.91.588h-1.734a.75.75 0 0 1-.75-.75z" fill="#FFF" fill-rule="nonzero"/></g></g><rect x="2" y="2" width="96" height="96" rx="48" stroke="#0078D4" stroke-width="4"/></g></svg>