<svg xmlns="http://www.w3.org/2000/svg" xmlns:xlink="http://www.w3.org/1999/xlink" viewBox="0 0 100 100" version="1.1"><!-- Generator: Sketch 51.3 (57544) - http://www.bohemiancoding.com/sketch --><title>store-and-access-data-with-cosmos-db-and-the-sql-api</title><desc>Created with Sketch.</desc><defs></defs><g id="Badges-FINAL" stroke="none" stroke-width="1" fill="none" fill-rule="evenodd"><g id="Working-with-NoSQL-data-in-Azure-Costmos-DB" transform="translate(-576.000000, -785.000000)"><g id="store-and-access-data-with-cosmos-db-and-the-sql-api" transform="translate(576.000000, 785.000000)"><rect id="BG" fill="#55A2FF" x="2" y="2" width="96" height="96" rx="48"></rect><g id="Monitor" transform="translate(18.000000, 23.000000)"><path d="M0,4 C0,1.8 1.8,0 4,0 L60,0 C62.2,0 64,1.8 64,4 L64,50 C64,52.2 62.2,54 60,54 L4,54 C1.8,54 0,52.2 0,50 L0,4" id="Fill-55" fill="#E1E4E1"></path><path d="M60,0 L32,0 L32,48 C32,50.209 30.209,52 28,52 L0.559,52 C1.254,53.188 2.531,54 4,54 L60,54 C62.2,54 64,52.2 64,50 L64,4 C64,1.8 62.2,0 60,0" id="Fill-56" fill="#C5CCCD"></path><path d="M2,4 C2,2.9 2.9,2 4,2 L60,2 C61.1,2 62,2.9 62,4 L62,40 C62,41.1 61.1,42 60,42 L4,42 C2.9,42 2,41.1 2,40 L2,4" id="Fill-57" fill="#546670"></path><path d="M60,2 L4,2 C2.9,2 2,2.9 2,4 L2,6 C2,4.9 2.9,4 4,4 L30,4 C31.105,4 32,4.895 32,6 L32,42 L60,42 C61.1,42 62,41.1 62,40 L62,4 C62,2.9 61.1,2 60,2" id="Fill-58" fill="#000000" opacity="0.146763393"></path><path d="M30.588,49.414 C29.807,48.633 29.807,47.366 30.588,46.586 C31.369,45.804 32.635,45.805 33.416,46.586 C34.197,47.367 34.198,48.633 33.416,49.414 C32.636,50.194 31.369,50.195 30.588,49.414" id="Fill-59" fill="#A9B3B6"></path><path d="M22.586,49.414 C21.805,48.633 21.805,47.366 22.586,46.586 C23.367,45.804 24.633,45.805 25.414,46.586 C26.195,47.367 26.196,48.633 25.414,49.414 C24.634,50.194 23.367,50.195 22.586,49.414" id="Fill-60" fill="#A9B3B6"></path><path d="M38.586,49.414 C37.805,48.633 37.805,47.366 38.586,46.586 C39.367,45.804 40.633,45.805 41.414,46.586 C42.195,47.367 42.196,48.633 41.414,49.414 C40.634,50.194 39.367,50.195 38.586,49.414" id="Fill-61" fill="#A9B3B6"></path><path d="M32.709,48.707 C32.051,49.365 31.051,49.462 30.284,49.011 C30.368,49.154 30.465,49.291 30.588,49.414 C31.369,50.195 32.636,50.194 33.416,49.414 C34.198,48.633 34.197,47.367 33.416,46.586 C33.293,46.463 33.156,46.367 33.013,46.282 C33.464,47.049 33.368,48.048 32.709,48.707" id="Fill-64" fill="#92A4AA"></path><path d="M40.707,48.707 C40.049,49.365 39.049,49.462 38.282,49.011 C38.366,49.154 38.463,49.291 38.586,49.414 C39.367,50.195 40.634,50.194 41.414,49.414 C42.196,48.633 42.195,47.367 41.414,46.586 C41.291,46.463 41.154,46.367 41.011,46.282 C41.462,47.049 41.366,48.048 40.707,48.707" id="Fill-65" fill="#92A4AA"></path><path d="M24.707,48.707 C24.049,49.365 23.049,49.462 22.282,49.011 C22.366,49.154 22.463,49.291 22.586,49.414 C23.367,50.195 24.634,50.194 25.414,49.414 C26.196,48.633 26.195,47.367 25.414,46.586 C25.291,46.463 25.154,46.367 25.011,46.282 C25.462,47.049 25.366,48.048 24.707,48.707" id="Fill-66" fill="#92A4AA"></path></g><path d="M63.7393048,32.4926408 L66.2598592,35.0131953 C66.8647806,35.6181167 66.8647806,36.5987047 66.2598592,37.2052496 L45.9524671,57.5093114 C45.3475456,58.1142328 44.3669577,58.1142328 43.7604127,57.5093114 L33.7401398,47.4890386 C33.1352197,46.8841172 33.1352197,45.9035292 33.7401398,45.2969842 L36.2606943,42.7764297 C36.8656157,42.1715083 37.8462037,42.1715083 38.4527487,42.7764297 L44.856648,49.1803291 L61.5493319,32.4876452 C62.1526297,31.8859709 63.1332177,31.8859709 63.7397627,32.4925242 L63.7393048,32.4926408 Z" id="Check" stroke="#B8D432" fill="#B8D432"></path><g id="Azure-Border" stroke="#0078D4" stroke-width="4"><rect x="2" y="2" width="96" height="96" rx="48"></rect></g></g></g></g></svg>