<svg xmlns="http://www.w3.org/2000/svg" xmlns:xlink="http://www.w3.org/1999/xlink" viewBox="0 0 100 100"><defs><rect id="a" x="0" y="0" width="96" height="96" rx="48"/><filter x="-2%" y="-1.7%" width="104.6%" height="106.9%" filterUnits="objectBoundingBox" id="b"><feOffset dy="2" in="SourceAlpha" result="shadowOffsetOuter1"/><feColorMatrix values="0 0 0 0 0 0 0 0 0 0 0 0 0 0 0 0 0 0 0.102921196 0" in="shadowOffsetOuter1" result="shadowMatrixOuter1"/><feMerge><feMergeNode in="shadowMatrixOuter1"/><feMergeNode in="SourceGraphic"/></feMerge></filter></defs><g fill="none" fill-rule="evenodd"><g transform="translate(2 2)"><mask id="c" fill="#fff"><use xlink:href="#a"/></mask><use fill="#55A2FF" fill-rule="nonzero" xlink:href="#a"/><g filter="url(#b)" mask="url(#c)"><path d="M47.857 20.813c-4.826 5.444-13.326 7.25-23.016 7.25v14.5c0 14.949 6.732 24.57 23.016 32.624 16.283-8.054 23.016-17.675 23.016-32.624v-14.5c-9.689 0-18.19-1.806-23.016-7.25" fill="#7CB65A"/><path d="M47.857 20.813v37.156c-6.299 0-11.45-4.794-11.922-10.875-.023.3-.046.6-.046.906 0 5.731 4.158 10.508 9.667 11.564 1.323.254 2.301 1.351 2.301 2.677v12.947c16.283-8.055 23.016-17.676 23.016-32.626v-14.5c-9.689 0-18.19-1.805-23.016-7.25" fill="#629E3F"/><path d="M26.683 29.829v12.716c0 14.044 6.15 22.966 21.174 30.606 15.025-7.64 21.175-16.562 21.175-30.606V29.83c-9.679-.234-16.642-2.355-21.175-6.452-4.533 4.097-11.496 6.218-21.174 6.452zM47.857 77c-.283 0-.566-.064-.827-.193C30.187 68.471 23 58.224 23 42.545V28.038c0-1.001.824-1.813 1.841-1.813 10.6 0 17.675-2.17 21.629-6.633.7-.79 2.075-.79 2.775 0 3.954 4.463 11.028 6.633 21.628 6.633 1.016 0 1.841.812 1.841 1.813v14.507c0 15.68-7.187 25.926-24.03 34.262-.26.129-.543.193-.827.193z" fill="#629E3F"/><path d="M59.825 46.188c0 6.505-5.358 11.78-11.968 11.78S35.89 52.694 35.89 46.189c0-6.506 5.358-11.782 11.968-11.782s11.968 5.276 11.968 11.782" fill="#FFFFFE"/><path d="M54.683 41.281a1.862 1.862 0 0 0-2.604 0l-6.069 5.974-2.192-2.139a1.55 1.55 0 0 0-.173-.21 1.862 1.862 0 0 0-2.603 0 1.79 1.79 0 0 0-.02 2.541L41 47.47l3.714 3.625a1.863 1.863 0 0 0 2.605 0l7.358-7.246c.002 0 .004-.002.006-.004a1.792 1.792 0 0 0 0-2.563" fill="#7CB65A"/></g></g><rect x="2" y="2" width="96" height="96" rx="48" stroke="#0078D4" stroke-width="4"/></g></svg>