<svg xmlns="http://www.w3.org/2000/svg" xmlns:xlink="http://www.w3.org/1999/xlink" viewBox="0 0 100 100"><defs><rect id="a" x="0" y="0" width="96" height="96" rx="48"/><filter x="-1.1%" y="-1.3%" width="102.2%" height="105.1%" filterUnits="objectBoundingBox" id="b"><feOffset dy="2" in="SourceAlpha" result="shadowOffsetOuter1"/><feColorMatrix values="0 0 0 0 0 0 0 0 0 0 0 0 0 0 0 0 0 0 0.0957597373 0" in="shadowOffsetOuter1" result="shadowMatrixOuter1"/><feMerge><feMergeNode in="shadowMatrixOuter1"/><feMergeNode in="SourceGraphic"/></feMerge></filter></defs><g fill="none" fill-rule="evenodd"><g transform="translate(2 2)"><mask id="c" fill="#fff"><use xlink:href="#a"/></mask><use fill="#C0DDF4" xlink:href="#a"/><g filter="url(#b)" mask="url(#c)"><path fill="#F7F8F9" d="M9.58 81.502l9.852-17.268H73.35l18.924 28.441-13.48 4.74-75.435-.338z"/><path d="M47.514 21.426a2.302 2.302 0 0 1-2.302-2.3h-4.476v25.576h4.488c-.002-.04-.012-.08-.012-.122a2.302 2.302 0 0 1 4.604 0c0 .041-.011.081-.013.122h4.488V19.126h-4.476a2.3 2.3 0 0 1-2.301 2.3" fill="#D65D54"/><path d="M42.24 41.12h10.55V22.706H42.24V41.12zm.777-.777h8.995V23.484h-8.995v16.859z" fill="#FCDC56"/><path d="M75.39 35.49a2.263 2.263 0 0 1-.002-3.201l-3.113-3.113-17.788 17.788 3.122 3.121c.027-.03.046-.063.075-.093a2.266 2.266 0 0 1 3.203 0 2.266 2.266 0 0 1 0 3.203c-.03.028-.063.048-.094.075l3.122 3.122 17.788-17.788-3.113-3.113a2.263 2.263 0 0 1-3.2-.002" fill="#C4504D"/><path d="M70.83 32.711L58.022 45.519l7.338 7.337 12.808-12.807-7.338-7.338zm0 1.1l6.238 6.238L65.36 51.756l-6.238-6.237L70.83 33.81z" fill="#FCDC56"/><path d="M20.513 35.737a2.148 2.148 0 0 0 0-3.036l2.955-2.953 16.874 16.875-2.961 2.961c-.026-.028-.044-.06-.072-.088a2.147 2.147 0 1 0-3.037 3.038c.027.027.06.046.088.071l-2.962 2.962-16.875-16.875 2.954-2.954c.84.838 2.198.838 3.036 0" fill="#C65A58"/><path d="M24.838 33.102l-6.96 6.96 12.15 12.15 6.96-6.96-12.15-12.15zm0 1.1l11.05 11.05-5.86 5.86-11.051-11.05 5.861-5.86z" fill="#FCDC56"/><path fill="#939393" d="M37.28 71.85l-.973 2.624h3.672V71.85zm21.58 2.624l-.583-2.625h-3.01v2.625z"/><path fill="#D65D54" d="M39.979 74.474h15.287V71.85H39.98zM55.266 49.71h-5.048a2.596 2.596 0 0 1-5.191 0h-5.048v22.14h15.287V49.71z"/><path d="M41.673 73.662h11.899V53.748H41.673v19.914zm.778-.777h10.343V54.527H42.451v18.358z" fill="#FCDC56"/></g></g><rect x="2" y="2" width="96" height="96" rx="48" stroke="#0078D4" stroke-width="4"/></g></svg>