<svg xmlns="http://www.w3.org/2000/svg" viewBox="0 0 100 100"><defs><filter x="-1.3%" y="-1.7%" width="102.6%" height="106.9%" filterUnits="objectBoundingBox" id="a"><feOffset dy="2" in="SourceAlpha" result="shadowOffsetOuter1"/><feColorMatrix values="0 0 0 0 0 0 0 0 0 0 0 0 0 0 0 0 0 0 0.103940217 0" in="shadowOffsetOuter1" result="shadowMatrixOuter1"/><feMerge><feMergeNode in="shadowMatrixOuter1"/><feMergeNode in="SourceGraphic"/></feMerge></filter><filter x="-3.4%" y="-3.4%" width="106.9%" height="113.8%" filterUnits="objectBoundingBox" id="b"><feOffset dy="2" in="SourceAlpha" result="shadowOffsetOuter1"/><feColorMatrix values="0 0 0 0 0 0 0 0 0 0 0 0 0 0 0 0 0 0 0.103430707 0" in="shadowOffsetOuter1" result="shadowMatrixOuter1"/><feMerge><feMergeNode in="shadowMatrixOuter1"/><feMergeNode in="SourceGraphic"/></feMerge></filter></defs><g fill="none" fill-rule="evenodd"><rect fill="#55A2FF" x="2" y="2" width="96" height="96" rx="48"/><g filter="url(#a)" transform="translate(12.5 23)"><path fill="#39393D" d="M.26 4.61L6.112 5.8l.541 6.61 6.177 1.734.325 6.61 7.043 2.817.109 6.393 8.019 3.685-.217 6.5 24.604 11.095-.408 6.52-51.02-23.91z"/><path fill="#636366" d="M.26 4.61L29.084.058l5.851.758L6.112 5.801zm6.394 7.802L34.61 6.019l6.068.867-27.847 7.26zm6.501 8.343l27.414-8.669 6.502 1.517-26.873 9.97zm7.152 9.21l26.33-11.27 7.153 1.952-25.464 13.002zm7.801 10.185l25.356-14.41 22.884 9.612-23.77 15.893z"/><path fill="#313138" d="M6.112 5.801L34.935.817l-.325 5.202-27.956 6.393zm6.718 8.344l27.849-7.26-.11 5.201-27.414 8.669zm7.369 9.427l26.872-9.969-.434 5.093-26.33 11.269zm8.127 10.078l25.463-13.003-.325 5.093-25.356 14.41zm24.13 17.764L76.62 35.161l-.758 5.31-23.73 17.445z"/></g><g filter="url(#b)" transform="translate(51.09 33)"><path d="M28.192 25.856l-8.907-15.429V4.181h.16a1.93 1.93 0 0 0 0-3.857H9.728a1.93 1.93 0 0 0 0 3.858h.16v6.245L.982 25.856c-.978 1.691-.178 3.076 1.776 3.076h23.659c1.953 0 2.753-1.385 1.776-3.076" fill="#59B4D9"/><path fill="#B8D432" d="M8.317 19.215l-3.676 6.366h19.89l-3.675-6.366z"/><path d="M15.059 21.798a1.797 1.797 0 0 0 1.614-2.583h-3.229a1.798 1.798 0 0 0 1.615 2.584m2.231.504a.882.882 0 1 1-.001 1.764.882.882 0 0 1 0-1.764" fill="#7FBA00"/><path d="M.98 25.856l8.908-15.429V4.181h-.161a1.93 1.93 0 0 1 0-3.857h4.187v10.054L9.22 28.932H2.756c-1.953 0-2.752-1.385-1.776-3.076" fill="#FFF" opacity=".219"/></g><rect x="2" y="2" width="96" height="96" rx="48" stroke="#0078D4" stroke-width="4"/></g></svg>