<svg xmlns="http://www.w3.org/2000/svg" viewBox="0 0 100 100"><defs><filter x="-1.5%" y="-1.6%" width="103.1%" height="106.2%" filterUnits="objectBoundingBox" id="a"><feOffset dy="2" in="SourceAlpha" result="shadowOffsetOuter1"/><feColorMatrix values="0 0 0 0 0 0 0 0 0 0 0 0 0 0 0 0 0 0 0.0955615942 0" in="shadowOffsetOuter1" result="shadowMatrixOuter1"/><feMerge><feMergeNode in="shadowMatrixOuter1"/><feMergeNode in="SourceGraphic"/></feMerge></filter></defs><g fill="none" fill-rule="evenodd"><rect fill="#55A2FF" x="2" y="2" width="96" height="96" rx="48"/><g filter="url(#a)" transform="translate(18.5 16)"><path d="M32.051 26.702V5.85M14.27 15.701v15.351l7.186 9.722M3.035 26.574v15.351l7.186 9.723h8.773M61.647 26.574v15.351l-7.186 9.723h-9.466M50.984 15.701v15.351L41.668 41.67" stroke="#30404C" stroke-width="2"/><path d="M32.342 41.332v18.834a2.278 2.278 0 0 1-2.278 2.278h-9.32a2.278 2.278 0 0 1-2.278-2.278l.037 1.464c0 1.319.887 2.298 2.145 2.298H42.93a2.278 2.278 0 0 0 2.278-2.277v-19.3l-12.866-1.02z" fill="#192A36"/><path d="M32.342 42.568v-1.236l-13.876.506v18.329a2.278 2.278 0 0 0 2.278 2.278h9.32a2.279 2.279 0 0 0 2.278-2.278v-11.4a1.91 1.91 0 0 1 1.91-1.91h8.467c1.42 0 2.483-1.02 2.483-2.278v-2.01h-12.86z" fill="#30404C"/><path d="M41.576 46.28H21.953a3.63 3.63 0 0 1-3.63-3.631v-.243a3.63 3.63 0 0 1 3.63-3.63h19.623a3.631 3.631 0 0 1 3.631 3.63v.243a3.631 3.631 0 0 1-3.631 3.631" fill="#546670"/><path d="M39.822 34.651h.024v6.557c.437.045.829.161 1.156.327v-7.13h-.026c-.26-5.144-4.498-9.237-9.706-9.237-.917 0-1.802.135-2.643.372.487-.075.98-.125 1.488-.125 5.208 0 9.447 4.093 9.707 9.236M24.012 35.68v.119c.002.125.002.344.004.632 0 .08 0 .164.002.254l.023 4.464c.003.516.005 1.345.007 2.08h1.157l-.005-1.485a6284.24 6284.24 0 0 1-.033-6.312 6.32 6.32 0 0 1 4.402-6.02 6.315 6.315 0 0 0-5.557 6.267" fill="#C5CCCD"/><path d="M39.822 34.651c-.26-5.143-4.499-9.236-9.707-9.236-.508 0-1.001.05-1.488.125-4.089 1.153-7.088 4.901-7.088 9.359 0 .193.017 3.56.034 6.717l.001.136.008 1.477h2.466l-.007-1.968v-.111l-.024-4.465-.001-.255-.003-.631-.001-.12a6.315 6.315 0 0 1 5.558-6.268 6.293 6.293 0 0 1 1.916-.297c3.38 0 6.132 2.658 6.301 5.996h.016v6.462c.436-.24 1.006-.39 1.635-.39.14 0 .275.012.408.026V34.65h-.024zM24.017 36.685l-.001-.255.001.255M24.013 35.8v-.12.12" fill="#F5F8F5"/><path d="M24.041 41.15v.111c.003.43.005 1.235.007 1.968-.002-.735-.004-1.564-.007-2.08" fill="#F5F8F5"/><path d="M21.573 41.616c-.462.277-.75.664-.75 1.093 0 .43.291.816.756 1.094l-.005-2.05v-.137M25.205 43.229v.44c.349-.264.566-.595.566-.96 0-.368-.22-.701-.57-.965l.008 1.485h-.004z" fill="#273743"/><path d="M24.052 43.229h-.004l.002.925c.46-.091.857-.26 1.156-.486l-.001-.44h-1.153z" fill="#C5CCCD"/><path d="M24.05 44.154l-.002-.925h-2.466l-.009-1.477.006 2.05c.445.267 1.05.432 1.718.432.264 0 .514-.032.753-.08" fill="#F5F8F5"/><path d="M37.803 41.571c-.51.28-.84.684-.84 1.137 0 .455.33.858.84 1.138V41.57zM41.912 42.709c0-.476-.359-.894-.91-1.174v2.347c.551-.28.91-.7.91-1.173" fill="#273743"/><path d="M41.002 43.229v-1.694a3.32 3.32 0 0 0-1.156-.327v2.02h1.156z" fill="#C5CCCD"/><path d="M39.847 43.229v.98a3.32 3.32 0 0 0 1.155-.326v-.654h-1.155z" fill="#C5CCCD"/><path d="M39.847 43.229v-2.021a4.165 4.165 0 0 0-.409-.026c-.63 0-1.199.15-1.635.39v1.657h2.044zM39.847 44.21v-.981h-2.044v.616c.436.24 1.005.389 1.635.389.14 0 .275-.011.409-.025" fill="#F5F8F5"/><path d="M37.823 54.167c-.23 0-.452.031-.666.084a2.758 2.758 0 0 0-2.691-3.353c-.419 0-.815.097-1.17.265a2.757 2.757 0 0 0-2.665-2.063 2.757 2.757 0 0 0-2.757 2.757c0 .237.033.465.088.683a3.59 3.59 0 0 0-.579-.052 3.596 3.596 0 0 0 0 7.194h10.44a2.758 2.758 0 0 0 0-5.515" fill="#FFF"/><path d="M5.987 23.614a2.942 2.942 0 1 1-5.883 0 2.942 2.942 0 0 1 5.883 0M17.133 12.753a2.943 2.943 0 1 1-5.885-.001 2.943 2.943 0 0 1 5.885.001M35.052 3.072a2.943 2.943 0 1 1-5.885-.001 2.943 2.943 0 0 1 5.885 0M53.76 12.967a2.943 2.943 0 1 1-5.887 0 2.943 2.943 0 0 1 5.886 0M64.444 23.8a2.943 2.943 0 1 1-5.886-.002 2.943 2.943 0 0 1 5.886.001" fill="#192A36"/></g><rect x="2" y="2" width="96" height="96" rx="48" stroke="#0078D4" stroke-width="4"/></g></svg>