<svg xmlns="http://www.w3.org/2000/svg" xmlns:xlink="http://www.w3.org/1999/xlink" viewBox="0 0 100 100"><defs><rect id="a" x="0" y="0" width="96" height="96" rx="48"/><path d="M8.008 4.064c-1.54.55-3.507 2.253-4.226 3.692-4.897 10.164-4.897 20.328 0 30.49.72 1.44 2.687 3.143 4.226 3.693 13.238 4.537 26.475 4.537 39.713 0 1.54-.55 3.506-2.253 4.226-3.693 4.898-10.162 4.898-20.326 0-30.49-.72-1.44-2.688-3.142-4.226-3.692C41.101 1.795 34.483.662 27.863.662c-6.617 0-13.236 1.133-19.855 3.402" id="c"/><path d="M3.723 2.351c-.874.175-1.8.95-2.022 1.708C-.85 12.828-.372 21.595 3.135 30.364c.308.757 1.252 1.584 2.064 1.816 13.362 3.75 26.725 3.75 40.087 0 .812-.232 1.756-1.059 2.064-1.816 3.508-8.769 3.985-17.536 1.435-26.305-.224-.757-1.149-1.533-2.022-1.708a111.615 111.615 0 0 0-21.52-2.11c-7.174 0-14.347.704-21.52 2.11" id="e"/><path d="M2.074.61C1.462.78.764 1.395.536 1.975c-.23.578.12.922.761.776.643-.146 1.311-.748 1.511-1.35.166-.503-.027-.836-.449-.836-.086 0-.18.014-.285.043" id="g"/><path d="M2.158.394c-.613.133-1.266.75-1.447 1.37-.18.62.205 1.023.846.91.642-.114 1.275-.716 1.427-1.354.132-.56-.131-.95-.61-.95-.067 0-.14.008-.216.024" id="i"/><path d="M2.241.458c-.613.094-1.224.705-1.356 1.357-.13.649.29 1.103.931 1.024.643-.08 1.239-.676 1.342-1.34C3.253.892 2.92.446 2.394.446c-.049 0-.1.004-.153.012" id="k"/><path d="M2.062.684C1.448.726.895 1.318.827 1.994c-.067.676.402 1.188 1.044 1.152 8.745-.497 17.491.306 26.237 2.41.642.152.983-.18.747-.751-.236-.572-.94-1.188-1.553-1.366C20.496 1.493 13.692.52 6.884.52c-1.606 0-3.216.054-4.822.163" id="m"/><path d="M15.057.11c-4.43.157-8.86.491-13.29 1.004-.456.054-.893.429-.961.833a52.374 52.374 0 0 0-.745 9.552c.005.404.406.741.882.75 4.621.08 9.243.13 13.864.154.476.003.863-.365.862-.817-.011-3.56.051-7.121.186-10.68a.76.76 0 0 0-.769-.797l-.029.001" id="o"/><path d="M.856.017a.86.86 0 0 0-.847.836c-.01.456.36.82.826.817 7.009-.06 14.018.25 21.027.929.467.044.791-.247.722-.652-.07-.406-.503-.78-.961-.833A166.014 166.014 0 0 0 .856.017" id="q"/><path d="M1.678.607c-.474.002-.862.375-.865.832-.005.457.377.823.854.821 7.183-.027 14.366.114 21.549.422.476.02.839-.29.805-.697-.036-.405-.452-.758-.925-.788A327.315 327.315 0 0 0 1.678.607" id="s"/><path d="M1.657.323c-.48 0-.869.371-.869.827 0 .457.39.826.87.827 7.225.005 14.45-.023 21.677-.085.48-.004.872-.336.872-.742 0-.405-.392-.737-.872-.743C16.697.35 10.06.323 3.423.323H1.657" id="u"/><path d="M.243 1.189c.035.405.452.758.925.787 13.136.794 26.272.794 39.41 0 .472-.029.888-.382.924-.787.033-.394-.306-.698-.761-.698l-.044.001a462.094 462.094 0 0 1-39.649 0h-.043C.55.491.21.794.243 1.188" id="w"/><path d="M.806 1.227c.069.406.502.78.96.833a165.686 165.686 0 0 0 38.212 0c.459-.053.891-.427.961-.833.07-.405-.256-.696-.722-.652a200.494 200.494 0 0 1-38.69 0 1.11 1.11 0 0 0-.092-.004C1.02.57.74.85.805 1.227" id="y"/><path d="M38.505.659a119.145 119.145 0 0 1-37.014 0C1.045.591.764.861.87 1.266c.104.406.546.8.981.879a102.707 102.707 0 0 0 36.295 0c.436-.08.878-.473.981-.88.095-.363-.12-.616-.487-.616a.896.896 0 0 0-.134.01" id="A"/><path d="M7.677 38.008c0-17.147 13.942-31.097 31.098-31.097 17.138 0 31.097 13.95 31.097 31.097 0 17.147-13.959 31.098-31.097 31.098-17.156 0-31.098-13.951-31.098-31.098zm60.295 24.306c5.494-6.592 8.81-15.068 8.81-24.306C76.783 17.05 59.733 0 38.776 0 17.818 0 .767 17.05.767 38.008c0 20.958 17.051 38.008 38.008 38.008 9.243 0 17.708-3.315 24.308-8.816l4.72 4.714 4.871-4.885-4.702-4.715z" id="D"/><filter x="-1.3%" y="-1.3%" width="102.6%" height="105.3%" filterUnits="objectBoundingBox" id="C"><feOffset dy="2" in="SourceAlpha" result="shadowOffsetOuter1"/><feColorMatrix values="0 0 0 0 0 0 0 0 0 0 0 0 0 0 0 0 0 0 0.10303442 0" in="shadowOffsetOuter1"/></filter></defs><g fill="none" fill-rule="evenodd"><g transform="translate(2 2)"><mask id="b" fill="#fff"><use xlink:href="#a"/></mask><use fill="#965596" xlink:href="#a"/><g mask="url(#b)"><g transform="translate(20.023 25.186)"><mask id="d" fill="#fff"><use xlink:href="#c"/></mask><path d="M4.017 2.954c15.898-11.36 31.797-11.36 47.695 0 13.514 13.365 13.514 26.73 0 40.095-15.898 11.36-31.797 11.36-47.695 0-13.514-13.365-13.514-26.73 0-40.095" fill="#2E3F4B" mask="url(#d)"/></g><g transform="translate(22.645 33.052)"><mask id="f" fill="#fff"><use xlink:href="#e"/></mask><path d="M-1.023-.615c17.51-7.162 35.02-7.162 52.53 0 7.623 11.734 6.727 23.468-2.687 35.201-15.718 8.846-31.437 8.846-47.155 0-9.414-11.733-10.31-23.467-2.688-35.2" fill="#DFE1DF" mask="url(#f)"/></g><g transform="translate(26.141 30.43)"><mask id="h" fill="#fff"><use xlink:href="#g"/></mask><path d="M-1.18-2.056C2.591-4.12 6.363-5.674 10.133-6.72A84.037 84.037 0 0 0 6.992 7.297c-4.79.447-9.582 1.11-14.374 1.993C-6.144 5.508-4.076 1.726-1.18-2.056" fill="#DF5140" mask="url(#h)"/></g><g transform="translate(30.512 29.556)"><mask id="j" fill="#fff"><use xlink:href="#i"/></mask><path d="M-1.64-3.14C2.131-4.85 5.903-6.052 9.673-6.745A130.452 130.452 0 0 0 7.59 7.786c-4.79.296-9.582.81-14.373 1.542C-5.757 5.17-4.043 1.016-1.64-3.14" fill="#EDB051" mask="url(#j)"/></g><g transform="translate(34.882 28.682)"><mask id="l" fill="#fff"><use xlink:href="#k"/></mask><path d="M-2.1-3.857C1.67-5.217 5.442-6.068 9.213-6.41a269.4 269.4 0 0 0-1.026 14.84c-4.791.145-9.583.509-14.374 1.09C-5.37 5.06-4.009.602-2.1-3.857" fill="#7BB45A" mask="url(#l)"/></g><g transform="translate(41 27.808)"><mask id="n" fill="#fff"><use xlink:href="#m"/></mask><path d="M-3.005-4.539C8.152-7.173 19.308-5.35 30.465.928c2.979 3.713 5.105 7.426 6.378 11.139C22.668 9.383 8.493 8.605-5.682 9.73A100.08 100.08 0 0 1-3.005-4.539" fill="#697D84" mask="url(#n)"/></g><g transform="translate(27.015 37.422)"><mask id="p" fill="#fff"><use xlink:href="#o"/></mask><path d="M-3.321-3.012c8.37-2.22 16.739-3.287 25.109-3.203.106 8.286.134 16.573.085 24.86-9.144.04-18.288-.457-27.431-1.487-1.292-6.723-.546-13.446 2.237-20.17" fill="#C4CACA" mask="url(#p)"/></g><g transform="translate(45.37 37.422)"><mask id="r" fill="#fff"><use xlink:href="#q"/></mask><path d="M-5.382-5.877c10.697-.927 21.395.028 32.092 2.866 1.579 3.815 2.502 7.63 2.77 11.445a670.404 670.404 0 0 0-35.767-.486c.088-4.608.39-9.217.905-13.825" fill="#C4CACA" mask="url(#r)"/></g><g transform="translate(44.497 41.793)"><mask id="t" fill="#fff"><use xlink:href="#s"/></mask><path d="M-4.973-5.383c11.327-.656 22.654.02 33.98 2.028C30.125.46 30.586 4.275 30.392 8.09c-11.939.35-23.878.466-35.816.353-.064-4.61.087-9.218.451-13.826" fill="#C4CACA" mask="url(#t)"/></g><g transform="translate(44.497 47.037)"><mask id="v" fill="#fff"><use xlink:href="#u"/></mask><path d="M-5.278-5.763c11.74-.385 23.48.012 35.221 1.19.656 3.816.656 7.631 0 11.445a265.042 265.042 0 0 1-35.221 1.19 148.855 148.855 0 0 1 0-13.825" fill="#C4CACA" mask="url(#v)"/></g><g transform="translate(27.015 51.407)"><mask id="x" fill="#fff"><use xlink:href="#w"/></mask><path d="M-6.129-4.916c18-.527 36.001-.527 54.002 0 .194 3.815-.267 7.63-1.385 11.445-17.077 3.027-34.155 3.027-51.232 0C-5.861 2.713-6.324-1.1-6.13-4.916" fill="#C4CACA" mask="url(#x)"/></g><g transform="translate(27.015 55.778)"><mask id="z" fill="#fff"><use xlink:href="#y"/></mask><path d="M-6.09-5.26c17.975.724 35.95.724 53.924 0-.266 3.815-1.19 7.63-2.769 11.445-16.129 4.277-32.257 4.277-48.386 0-1.58-3.815-2.502-7.63-2.77-11.444" fill="#C4CACA" mask="url(#z)"/></g><g transform="translate(27.89 60.148)"><mask id="B" fill="#fff"><use xlink:href="#A"/></mask><path d="M-6.439-5.603a236.726 236.726 0 0 0 52.875 0c-.73 3.815-2.114 7.63-4.155 11.445-14.854 5.528-29.71 5.528-44.566 0-2.04-3.816-3.426-7.63-4.154-11.445" fill="#C4CACA" mask="url(#B)"/></g></g><g mask="url(#b)"><g transform="translate(9.232 10)"><use fill="#000" filter="url(#C)" xlink:href="#D"/><use fill="#30404D" xlink:href="#D"/></g><g opacity=".3"><path d="M79.104 48.008c0 17.175-13.925 31.098-31.098 31.098S16.91 65.183 16.91 48.008c0-17.173 13.924-31.097 31.097-31.097 17.173 0 31.098 13.924 31.098 31.097" fill="#C7E7F1"/><path d="M66.25 22.859c3.715 5.127 5.943 11.416 5.943 18.239 0 17.174-13.925 31.097-31.097 31.097-6.824 0-13.113-2.223-18.244-5.948 5.65 7.78 14.806 12.859 25.154 12.859 17.173 0 31.098-13.923 31.098-31.098 0-10.352-5.08-19.496-12.854-25.15" fill="#ABDCEC"/></g><path d="M70.034 78.966a3.433 3.433 0 0 1 4.422.371l5.014.135-9.488-9.485c-6.323 6.322-15.342 9.941-25.155 8.958C30.281 77.49 18.515 65.73 17.064 51.19c-.985-9.82 2.643-18.841 8.967-25.16l-4.89-4.885c-8.171 8.18-12.663 20.063-10.676 32.887 2.522 16.347 15.773 29.341 32.151 31.61 10.245 1.42 19.85-1.28 27.418-6.676z" fill="#182A37"/><path d="M83.783 98L72.14 86.354a3.562 3.562 0 0 1 0-5.024l9.191-9.188a3.566 3.566 0 0 1 5.028 0L98 83.787V98H83.783z" fill="#DF5142"/><path d="M83.784 98L71.812 86.024v-.074l4.63-4.627a3.438 3.438 0 0 1 4.872 0L98 97.998 83.784 98z" fill="#C2423D"/></g></g><rect x="2" y="2" width="96" height="96" rx="48" stroke="#742774" stroke-width="4"/></g></svg>