<svg xmlns="http://www.w3.org/2000/svg" xmlns:xlink="http://www.w3.org/1999/xlink" viewBox="0 0 100 100" version="1.1"><!-- Generator: Sketch 51.3 (57544) - http://www.bohemiancoding.com/sketch --><title>intro-to-azure</title><desc>Created with Sketch.</desc><defs><filter x="-2.1%" y="-1.5%" width="104.2%" height="105.9%" filterUnits="objectBoundingBox" id="filter-1"><feOffset dx="0" dy="2" in="SourceAlpha" result="shadowOffsetOuter1"></feOffset><feColorMatrix values="0 0 0 0 0   0 0 0 0 0   0 0 0 0 0  0 0 0 0.0963541667 0" type="matrix" in="shadowOffsetOuter1" result="shadowMatrixOuter1"></feColorMatrix><feMerge><feMergeNode in="shadowMatrixOuter1"></feMergeNode><feMergeNode in="SourceGraphic"></feMergeNode></feMerge></filter><path d="M14.2695809,37.0678267 L18.266682,37.0678267 L18.266682,46.3326304 L16.1225417,46.3326304 L16.1225417,38.7884331 L14.2695809,38.7884331 L14.2695809,37.0678267 Z M23.8520351,46.4914557 C21.5755404,46.4914557 19.8814049,44.7576138 19.8814049,41.7002286 C19.8814049,38.6428433 21.5755404,36.9090015 23.8520351,36.9090015 C26.1417651,36.9090015 27.8226653,38.6428433 27.8226653,41.7002286 C27.8226653,44.7576138 26.1417651,46.4914557 23.8520351,46.4914557 Z M23.8520351,44.6782012 C24.9241052,44.6782012 25.6652895,43.8046626 25.6652895,41.7002286 C25.6652895,39.5957946 24.9241052,38.7222559 23.8520351,38.7222559 C22.7932004,38.7222559 22.0520161,39.5957946 22.0520161,41.7002286 C22.0520161,43.8046626 22.7932004,44.6782012 23.8520351,44.6782012 Z M28.365318,37.0678267 L32.3624191,37.0678267 L32.3624191,46.3326304 L30.2182788,46.3326304 L30.2182788,38.7884331 L28.365318,38.7884331 L28.365318,37.0678267 Z" id="path-2"></path><filter x="-0.7%" y="-1.3%" width="101.4%" height="105.2%" filterUnits="objectBoundingBox" id="filter-3"><feOffset dx="0" dy="0.25" in="SourceAlpha" result="shadowOffsetOuter1"></feOffset><feColorMatrix values="0 0 0 0 1   0 0 0 0 1   0 0 0 0 1  0 0 0 0.249094203 0" type="matrix" in="shadowOffsetOuter1"></feColorMatrix></filter><polygon id="path-4" points="17.9644367 3.58570055 13.6843285 12.6692013 21.2197737 21.8723333 7.23399607 23.5454252 28.9359843 23.7846914"></polygon><filter x="-0.6%" y="-0.6%" width="101.2%" height="102.5%" filterUnits="objectBoundingBox" id="filter-5"><feOffset dx="0" dy="0.25" in="SourceAlpha" result="shadowOffsetOuter1"></feOffset><feColorMatrix values="0 0 0 0 1   0 0 0 0 1   0 0 0 0 1  0 0 0 0.249094203 0" type="matrix" in="shadowOffsetOuter1"></feColorMatrix></filter><polygon id="path-6" points="17.1204315 0 7.29433709 8.6652925 0 21.6333198 6.20922494 20.9758489"></polygon><filter x="-0.7%" y="-0.6%" width="101.5%" height="102.3%" filterUnits="objectBoundingBox" id="filter-7"><feOffset dx="0" dy="0.25" in="SourceAlpha" result="shadowOffsetOuter1"></feOffset><feColorMatrix values="0 0 0 0 1   0 0 0 0 1   0 0 0 0 1  0 0 0 0.249094203 0" type="matrix" in="shadowOffsetOuter1"></feColorMatrix></filter></defs><g id="Badges-FINAL" stroke="none" stroke-width="1" fill="none" fill-rule="evenodd"><g id="N/A-1" transform="translate(-577.000000, -1316.000000)"><g id="intro-to-azure" transform="translate(577.000000, 1316.000000)"><rect id="BG" fill="#55A2FF" x="2" y="2" width="96" height="96" rx="48"></rect><g id="Book" filter="url(#filter-1)" transform="translate(26.000000, 17.000000)"><g transform="translate(0.167481, 0.387536)"><path d="M0.832518557,55.6124645 L0.832518557,61.6124645 C0.839673316,62.8067453 1.6709668,63.6146507 2.83251856,63.6124645 L46.8325186,63.6124689 L46.8325186,55.6124645 L0.832518557,55.6124645 Z" id="Shape" fill="#BE9555" fill-rule="nonzero"></path><path d="M2.83251856,56.6124645 L2.83251856,60.6124645 C2.86672747,61.717521 3.75260508,62.6147293 4.78807411,62.6124645 L46.8325186,62.6124645 L46.8325186,56.6124645 L2.83251856,56.6124645 Z" id="Shape" fill="#FFFFFF" fill-rule="nonzero"></path><polygon id="Shape" fill="#4F4D52" fill-rule="nonzero" opacity="0.2" points="2.83251856 56.6124645 2.83251856 57.6124645 46.8325186 57.6124645 46.8325186 56.6124645"></polygon><polygon id="Shape" fill="#4F4D52" fill-rule="nonzero" opacity="0.2" points="20.8325186 56.6124645 26.8325186 62.6124645 20.8325186 62.6124645"></polygon><polygon id="Shape" fill="#EF6F59" fill-rule="nonzero" points="21.8325186 66.6124645 17.8325186 64.6124645 14.8325186 66.6124645 14.8325186 56.6124645 21.8325186 56.6124645"></polygon><polygon id="Shape" fill="#F7CB64" fill-rule="nonzero" points="46.8325186 55.6124645 0.832518557 55.6124645 0.832518557 0.612464493 46.8325186 0.612464493"></polygon><path d="M23.8325186,51.6124645 C23.8325186,52.7164645 22.9384486,53.6124645 21.8325186,53.6124645 L0.832518557,53.6124645 L0.832518557,55.6124645 L46.8325186,55.6124645 L46.8325186,3.61246449 L25.8325186,3.61246449 C24.7265885,3.61246449 23.8325186,4.50746449 23.8325186,5.61246449 L23.8325186,51.6124645 Z" id="Fill-361" fill-opacity="0.126868207" fill="#000000"></path></g><g id="101"><use fill="black" fill-opacity="1" filter="url(#filter-3)" xlink:href="#path-2"></use><use fill="#4C3B12" fill-rule="evenodd" xlink:href="#path-2"></use></g><g id="Microsoft_Azure" transform="translate(10.000000, 8.000000)"><g id="path7291-copy"><use fill="black" fill-opacity="1" filter="url(#filter-5)" xlink:href="#path-4"></use><use fill="#4C3B12" fill-rule="evenodd" xlink:href="#path-4"></use></g><g id="path7293-copy"><use fill="black" fill-opacity="1" filter="url(#filter-7)" xlink:href="#path-6"></use><use fill="#4C3B12" fill-rule="evenodd" xlink:href="#path-6"></use></g></g></g><g id="Azure-Border" stroke="#0078D4" stroke-width="4"><rect x="2" y="2" width="96" height="96" rx="48"></rect></g></g></g></g></svg>