<svg xmlns="http://www.w3.org/2000/svg" viewBox="0 0 100 118"><defs><filter x="-1.6%" y="-1.9%" width="103.1%" height="107.4%" filterUnits="objectBoundingBox" id="a"><feOffset dy="2" in="SourceAlpha" result="shadowOffsetOuter1"/><feColorMatrix values="0 0 0 0 0 0 0 0 0 0 0 0 0 0 0 0 0 0 0.0968919837 0" in="shadowOffsetOuter1" result="shadowMatrixOuter1"/><feMerge><feMergeNode in="shadowMatrixOuter1"/><feMergeNode in="SourceGraphic"/></feMerge></filter></defs><g fill="none" fill-rule="evenodd"><path d="M44.742 3.497A10.056 10.056 0 0 1 50 2c1.813 0 3.627.499 5.256 1.497l37.335 22.835C95.933 28.377 98 32.203 98 36.352v45.295c0 4.148-2.067 7.977-5.409 10.021l-37.335 22.837A10.056 10.056 0 0 1 50 116c-1.813 0-3.626-.499-5.258-1.495L7.41 91.668C4.066 89.624 2 85.795 2 81.648V36.352c0-4.15 2.066-7.976 5.409-10.021L44.743 3.497z" fill="#7D7D7D"/><g filter="url(#a)" transform="translate(18 32)"><path d="M4 54c-2.2 0-4-1.8-4-4V4c0-2.2 1.8-4 4-4h56c2.2 0 4 1.8 4 4v46c0 2.2-1.8 4-4 4H4" fill="#30404D"/><path d="M5 51c-1.1 0-2-.9-2-2V11c0-1.1.9-2 2-2h54c1.1 0 2 .9 2 2v38c0 1.1-.9 2-2 2H5" fill="#F7CB64"/><path d="M4 4.5a1.5 1.5 0 1 1 3 0 1.5 1.5 0 0 1-3 0" fill="#DF5142"/><path d="M10 4.5a1.5 1.5 0 1 1 3 0 1.5 1.5 0 0 1-3 0" fill="#EFB252"/><path d="M16 4.5a1.5 1.5 0 1 1 3 0 1.5 1.5 0 0 1-3 0" fill="#7CB65A"/><path d="M59.5 6h-34a1.5 1.5 0 0 1 0-3h34a1.5 1.5 0 0 1 0 3" fill="#697D85"/><g fill="#FFF"><path d="M31.138 42.058c-.184-.103-.393-.083-.59-.11a10.959 10.959 0 0 1-3.405-1.055 11.234 11.234 0 0 1-2.201-1.409 10.723 10.723 0 0 1-1.99-2.162 11.43 11.43 0 0 1-1.676-3.594 11.106 11.106 0 0 1-.307-3.94c.177-1.835.788-3.515 1.797-5.05.7-1.068 1.58-1.97 2.602-2.738.696-.522 1.709-.47 2.32.055.84.723.87 2.086.022 2.806-.525.445-1.052.885-1.476 1.431-1.093 1.407-1.637 2.992-1.597 4.781a7.347 7.347 0 0 0 .9 3.373 7.205 7.205 0 0 0 2.164 2.47 7.48 7.48 0 0 0 3.038 1.302 7.226 7.226 0 0 0 4.174-.455 7.302 7.302 0 0 0 2.68-1.9c1.064-1.201 1.699-2.597 1.866-4.187a7.247 7.247 0 0 0-.766-4.15c-.543-1.056-1.33-1.89-2.237-2.64-.944-.781-.874-2.212.119-2.932.579-.422 1.507-.467 2.198.055 1.3.984 2.349 2.18 3.119 3.62a11.02 11.02 0 0 1 1.304 4.694 11 11 0 0 1-1.31 5.83 10.97 10.97 0 0 1-2.376 3.05 11.36 11.36 0 0 1-2.78 1.814 11.069 11.069 0 0 1-3.702.998c-.04.004-.095-.02-.114.042h-1.776z"/><path d="M33.924 24.411c0 1.486-.006 2.973.003 4.458.004.689-.237 1.245-.784 1.675-.463.364-1.323.464-1.845.186-.725-.383-1.094-.979-1.093-1.805.002-3.024.011-6.047-.004-9.071-.006-1.281 1.115-2.12 2.144-1.943.83.142 1.587.867 1.581 1.927-.007 1.524-.002 3.049-.002 4.573"/></g></g><path d="M45.562 3.258L6.673 26.894C3.797 28.644 2 31.951 2 35.558v46.884c0 3.607 1.798 6.917 4.673 8.664l38.888 23.636A8.539 8.539 0 0 0 50 116a8.525 8.525 0 0 0 4.436-1.257l38.89-23.637C96.203 89.358 98 86.048 98 82.442V35.558c0-3.606-1.797-6.914-4.673-8.664L54.435 3.258A8.511 8.511 0 0 0 50 2c-1.546 0-3.07.428-4.438 1.258zm0 0s0 0 0 0h0z" stroke="#F2C811" stroke-width="4"/></g></svg>