<svg xmlns="http://www.w3.org/2000/svg" xmlns:xlink="http://www.w3.org/1999/xlink" viewBox="0 0 100 100" version="1.1"><!-- Generator: Sketch 51.3 (57544) - http://www.bohemiancoding.com/sketch --><title>Cloud Foundations/introduction-to-security</title><desc>Created with Sketch.</desc><defs><rect id="path-1" x="0" y="0" width="96" height="96" rx="48"></rect><filter x="-0.9%" y="-1.4%" width="101.9%" height="105.7%" filterUnits="objectBoundingBox" id="filter-3"><feOffset dx="0" dy="2" in="SourceAlpha" result="shadowOffsetOuter1"></feOffset><feColorMatrix values="0 0 0 0 0   0 0 0 0 0   0 0 0 0 0  0 0 0 0.0992697011 0" type="matrix" in="shadowOffsetOuter1" result="shadowMatrixOuter1"></feColorMatrix><feMerge><feMergeNode in="shadowMatrixOuter1"></feMergeNode><feMergeNode in="SourceGraphic"></feMergeNode></feMerge></filter></defs><g id="Badges-FINAL" stroke="none" stroke-width="1" fill="none" fill-rule="evenodd"><g id="Cloud-Foundations" transform="translate(-578.000000, -1190.000000)"><g id="Cloud-Foundations/introduction-to-security" transform="translate(578.000000, 1190.000000)"><g id="Mask" transform="translate(2.000000, 2.000000)"><mask id="mask-2" fill="white"><use xlink:href="#path-1"></use></mask><use id="BG" fill="#C0DDF4" xlink:href="#path-1"></use><g id="Left-Camera" filter="url(#filter-3)" mask="url(#mask-2)"><g transform="translate(-15.900000, 12.200000)"><polygon id="Fill-126" fill="#546670" points="0.337059118 39.3737192 2.48369718 35.1463748 46.7355157 59.3122816 44.5888776 63.539626"></polygon><path d="M46.1404274,59.0080376 C45.5249701,59.5094103 44.9931913,60.1307743 44.608943,60.8874689 L45.6621966,61.4259538 L44.5888776,63.539626 L0.337059118,39.3737192 L1.41037815,37.260047 L42.5993352,59.8600397 C43.1154294,60.1238973 43.7367644,59.9636565 44.0849809,59.4973806 C44.3755191,59.1081127 44.7085435,58.7631969 45.0734815,58.4625524 L46.1404274,59.0080376 Z" id="Fill-127" fill="#30404D"></path><path d="M58.4216325,51.9748299 L54.1283563,60.4295187 L49.9153419,58.2755792 L54.2086181,49.8208904 C54.4050354,49.4340884 54.6986079,49.1329003 55.0370288,48.9132146 L58.6665407,50.7688335 C58.6883325,51.1726811 58.6180499,51.5880279 58.4216325,51.9748299 Z" id="Fill-128" fill="#546670"></path><path d="M58.6707538,50.7709875 C58.6855993,51.0448189 58.6528277,51.3235923 58.5693594,51.5950835 C58.529802,51.7226235 58.4844216,51.8511801 58.4216325,51.9748299 L54.1283563,60.4295187 L52.0218491,59.352549 L55.2836657,52.9290991 C55.5530687,52.3985674 55.3807722,51.7633529 54.8980712,51.4180585 C54.5189652,51.1456961 54.1723547,50.8406925 53.8592527,50.5088907 L54.2086181,49.8208904 C54.2714072,49.6972405 54.3483852,49.5848385 54.4279662,49.4777609 C54.9624419,50.0372258 55.5883803,50.5263056 56.3151253,50.8978601 L56.8517848,49.841024 L58.6707538,50.7709875 Z" id="Fill-129" fill="#30404D"></path><path d="M98.1694605,39.0160496 C98.74875,39.3122163 98.9812173,40.0301108 98.6860546,40.6113706 L93.3194594,51.1797316 C93.0242967,51.7609915 92.3088358,51.9942495 91.7295463,51.6980828 L88.5697855,50.0826282 L95.0096997,37.400595 L98.1694605,39.0160496 Z" id="Fill-131" fill="#546670"></path><path d="M65.854604,47.7877529 C64.076651,51.2890509 59.8045545,52.6818606 56.3151253,50.8978601 C52.8246428,49.1133212 51.4376078,44.8272322 53.2155607,41.3259342 L65.854604,47.7877529 Z" id="Fill-132" fill="#30404D"></path><path d="M86.9598069,53.2531365 C85.779156,55.5781759 82.9173124,56.5112081 80.6001545,55.3265413 L34.2569958,31.6332062 C31.9398379,30.4485395 31.0099686,27.5769617 32.1906195,25.2519223 L35.9472361,17.8540696 L90.7164236,45.8552838 L86.9598069,53.2531365 Z" id="Fill-133" fill="#30404D"></path><path d="M52.5585086,58.2957129 C55.4675951,59.7830081 56.6237327,63.3533365 55.1414791,66.2723178 C53.6602988,69.1891854 50.1009999,70.3513691 47.1919135,68.8640739 C44.2838803,67.3773171 43.1277628,63.8043365 44.608943,60.8874689 C46.0911966,57.9684876 49.6504754,56.8089561 52.5585086,58.2957129 Z" id="Fill-134" fill="#30404D"></path><path d="M46.9562354,30.1385536 C46.3637633,31.3053007 44.9392011,31.7697434 43.7764091,31.175256 C42.6125639,30.5802302 42.1507489,29.1513611 42.743221,27.9846141 C43.3362297,26.8168102 44.759202,26.3528858 45.9230472,26.9479116 C47.0858392,27.542399 47.5492442,28.9707497 46.9562354,30.1385536 Z" id="Fill-137" fill="#7CB65A"></path><path d="M98.6860546,40.6113706 C99.8498998,41.2063964 99.5915178,44.0535396 98.1092642,46.9725209 C96.6270106,49.8915022 94.4833047,51.7747574 93.3194594,51.1797316 L98.6860546,40.6113706 Z" id="Fill-138" fill="#FFFFFF"></path><path d="M90.7164236,45.8552838 L33.8407289,16.7770998 C32.6768837,16.182074 32.2150686,14.7532049 32.8075407,13.5864578 L38.7107954,1.9612607 C39.3038042,0.793456808 40.7267764,0.329532474 41.8906216,0.924558277 L105.085838,33.2336516 C105.829435,33.6138219 106.317572,34.3585956 106.372581,35.1934313 C106.425463,36.0298422 106.036641,36.8321218 105.348449,37.3042954 L93.1256728,45.6985832 C92.4109087,46.1891206 91.4863519,46.2489162 90.7164236,45.8552838 Z" id="Fill-139" fill="#546670"></path><path d="M51.1090535,40.2489644 L67.9611112,48.8647227 L67.4244517,49.9215588 C67.1292889,50.5028186 66.413828,50.7360767 65.8345386,50.43991 L51.0889881,42.9011215 C50.5096986,42.6049548 50.2772313,41.8870604 50.572394,41.3058005 L51.1090535,40.2489644 Z" id="Fill-140" fill="#182A37"></path><path d="M46.6901165,27.5796997 C47.2541533,28.2847364 47.3914663,29.2814595 46.9562354,30.1385536 C46.3637633,31.3053007 44.9392011,31.7697434 43.7764091,31.175256 C42.9222205,30.7385448 42.4494358,29.8511938 42.4927458,28.9481469 C42.6964699,29.2027291 42.9512117,29.422159 43.2598151,29.579935 C44.422607,30.1744224 45.8471692,29.7099797 46.4396413,28.5432326 C46.5968825,28.2335796 46.6744326,27.9058144 46.6901165,27.5796997 Z" id="Fill-143" fill="#69994E"></path><path d="M40.5325658,26.8392765 C39.9400937,28.0060235 38.5155316,28.4704662 37.3527396,27.8759789 C36.1888943,27.2809531 35.7270793,25.852084 36.3195514,24.6853369 C36.9125602,23.517533 38.3355324,23.0536087 39.4993776,23.6486345 C40.6621696,24.2431218 41.1255746,25.6714726 40.5325658,26.8392765 Z" id="Fill-137" fill="#EFB252"></path><path d="M40.2678338,24.2804226 C40.8318706,24.9854593 40.9691836,25.9821824 40.5339527,26.8392765 C39.9414806,28.0060235 38.5169184,28.4704662 37.3541265,27.8759789 C36.4999378,27.4392677 36.0271531,26.5519167 36.0704631,25.6488698 C36.2741873,25.903452 36.5289291,26.1228818 36.8375324,26.2806579 C38.0003244,26.8751452 39.4248865,26.4107025 40.0173586,25.2439555 C40.1745999,24.9343025 40.2521499,24.6065373 40.2678338,24.2804226 Z" id="Fill-143" fill="#CC9547"></path><path d="M56.395387,40.2892318 C57.5592322,40.8842576 58.9822044,40.4203333 59.5752132,39.2525294 L61.1851918,36.0820211 C61.7782005,34.9142172 61.3158488,33.4864049 60.1520036,32.8913791 L34.8739171,19.9677418 L35.9472361,17.8540696 L90.7164236,45.8552838 L86.9598069,53.2531365 C85.779156,55.5781759 82.9173124,56.5112081 80.6001545,55.3265413 L34.2569958,31.6332062 C32.7097663,30.8421719 31.800529,29.2963758 31.7060692,27.6666075 L56.395387,40.2892318 Z" id="Fill-144" fill="#182A37"></path><path d="M59.5350824,44.5568435 L65.854604,47.7877529 C64.076651,51.2890509 59.8045545,52.6818606 56.3151253,50.8978601 C54.6120142,50.0271301 53.415123,48.5592426 52.8367882,46.8791079 C53.3355937,47.4016992 53.8927295,47.9008641 54.505096,48.3670306 C55.6693772,49.2538138 57.360538,48.8391434 58.0238492,47.532894 L59.5350824,44.5568435 Z" id="Fill-145" fill="#182A37"></path><path d="M51.7018878,69.2209484 C48.598914,70.2317131 45.2627232,68.5273883 44.2532783,65.4127832 L55.4971439,61.7470035 C56.5049989,64.8621269 54.8059348,68.20807 51.7018878,69.2209484 Z" id="Fill-147" fill="#182A37"></path><path d="M50.9485301,61.4662212 C52.1113221,62.0607085 52.574727,63.4890592 51.9817183,64.6568631 C51.3897828,65.8225533 49.964684,66.2880529 48.801892,65.6935656 C47.6380468,65.0985397 47.1767684,63.6686138 47.7687039,62.5029236 C48.3617126,61.3351197 49.7846849,60.8711953 50.9485301,61.4662212 Z" id="Fill-148" fill="#30404D"></path><path d="M50.4118706,62.5230573 C49.4312915,62.0217278 48.2720945,62.2797203 47.5751551,63.0695741 C47.6173206,62.8768071 47.6753251,62.6868131 47.7687039,62.5029236 C48.361176,61.3361765 49.7857381,60.8717338 50.9485301,61.4662212 C52.1113221,62.0607085 52.5741904,63.4901161 51.9817183,64.6568631 C51.8883395,64.8407526 51.7692463,64.9995145 51.6386075,65.1470488 C51.8657958,64.1170307 51.3924497,63.0243867 50.4118706,62.5230573 Z" id="Fill-149" fill="#182A37"></path><path d="M90.7153703,45.8547453 L33.8407289,16.7770998 C32.6779369,16.1826125 32.2150686,14.7532049 32.8075407,13.5864578 L62.2986417,28.6640347 C63.4624869,29.2590605 64.8854591,28.7951362 65.4784679,27.6273323 L69.2350845,20.2294796 C69.8280933,19.0616757 71.2510655,18.5977513 72.4149108,19.1927771 L106.114813,36.4221397 C105.938252,36.7698387 105.680054,37.0771313 105.348449,37.3042954 L93.1256728,45.6985832 C92.4109087,46.1891206 91.4863519,46.2489162 90.7153703,45.8547453 Z" id="Fill-150" fill="#30404D" opacity="0.5"></path><path d="M93.3194594,51.1797316 L96.002757,45.8955511 C97.2192649,46.5175012 97.5598803,48.1040552 96.7185394,49.1835022 C95.4848405,50.7638994 94.1515298,51.6051347 93.3194594,51.1797316 Z" id="Fill-151" fill="#E7E7E7"></path></g></g></g><g id="Azure-Border" stroke="#0078D4" stroke-width="4"><rect x="2" y="2" width="96" height="96" rx="48"></rect></g></g></g></g></svg>