<svg xmlns="http://www.w3.org/2000/svg" viewBox="0 0 100 100"><defs><filter x="-1.4%" y="-4.2%" width="102.9%" height="108.3%" filterUnits="objectBoundingBox" id="a"><feOffset dy="2" in="SourceAlpha" result="shadowOffsetOuter1"/><feColorMatrix values="0 0 0 0 0 0 0 0 0 0 0 0 0 0 0 0 0 0 0.099071558 0" in="shadowOffsetOuter1" result="shadowMatrixOuter1"/><feMerge><feMergeNode in="shadowMatrixOuter1"/><feMergeNode in="SourceGraphic"/></feMerge></filter></defs><g fill="none" fill-rule="evenodd"><rect fill="#55A2FF" x="2" y="2" width="96" height="96" rx="48"/><g filter="url(#a)" transform="translate(15 16)"><path d="M69.41 58.094c0 7.292-15.405 13.2-34.41 13.2-19.003 0-34.41-5.908-34.41-13.2 0-7.292 15.407-13.2 34.41-13.2 19.005 0 34.41 5.908 34.41 13.2" fill-opacity=".103" fill="#000"/><path d="M35 51.889c-13.326 0-24.13-4.025-24.13-8.993v11.99c0 4.968 10.804 8.992 24.13 8.992 13.327 0 24.13-4.024 24.13-8.992v-11.99c0 4.968-10.803 8.993-24.13 8.993" fill="#E1E4E1"/><path d="M35 55.852v3.994c0 1.134-.95 2.037-2.09 2-12.348-.394-22.04-4.253-22.04-8.958v1.998c0 4.968 10.804 8.992 24.13 8.992 13.327 0 24.13-4.024 24.13-8.992v-9.991c0 4.725-9.772 8.596-22.194 8.963A1.998 1.998 0 0 0 35 55.852" fill="#D3DAD8"/><path d="M59 43c0 4.972-10.745 9-24 9-13.254 0-24-4.028-24-9s10.746-9 24-9c13.255 0 24 4.028 24 9" stroke="#E1E4E1" stroke-width=".25" fill="#BAC0C2"/><path d="M35 34.903c-13.326 0-24.13-4.024-24.13-8.992v11.99c0 4.967 10.804 8.992 24.13 8.992 13.327 0 24.13-4.025 24.13-8.992V25.91c0 4.968-10.803 8.992-24.13 8.992" fill="#E1E4E1"/><path d="M35 38.867v3.993c0 1.134-.95 2.038-2.09 2.002-12.348-.395-22.04-4.255-22.04-8.96v1.999c0 4.967 10.804 8.992 24.13 8.992 13.327 0 24.13-4.025 24.13-8.992V27.91c0 4.724-9.772 8.596-22.194 8.963A1.998 1.998 0 0 0 35 38.867" fill="#D3DAD8"/><path d="M59 26c0 4.972-10.745 9-24 9-13.254 0-24-4.028-24-9s10.746-9 24-9c13.255 0 24 4.028 24 9" stroke="#E1E4E1" stroke-width=".25" fill="#BAC0C2"/><g><path d="M35 17.918c-13.326 0-24.13-4.024-24.13-8.992v11.99c0 4.967 10.804 8.992 24.13 8.992 13.327 0 24.13-4.025 24.13-8.992V8.926c0 4.968-10.803 8.992-24.13 8.992" fill="#E1E4E1"/><path d="M35 21.882v3.993c0 1.134-.95 2.038-2.09 2.002-12.348-.395-22.04-4.255-22.04-8.96v1.999c0 4.967 10.804 8.992 24.13 8.992 13.327 0 24.13-4.025 24.13-8.992v-9.992c0 4.725-9.772 8.597-22.194 8.964A1.998 1.998 0 0 0 35 21.882" fill="#D3DAD8"/><path d="M58.05 9c0 4.972-10.32 9-23.05 9s-23.05-4.028-23.05-9S22.27 0 35 0s23.05 4.028 23.05 9" stroke="#E1E4E1" stroke-width="2.25" fill="#C4CBCD"/></g></g><path d="M64.891 54c0 7.671-6.22 13.891-13.891 13.891-7.672 0-13.891-6.22-13.891-13.891S43.328 40.109 51 40.109c7.671 0 13.891 6.22 13.891 13.891" stroke="#E1E4E1" stroke-width="2" fill="#89C404"/><path d="M50.571 37C41.434 37 34 44.434 34 53.571c0 9.138 7.434 16.572 16.571 16.572 9.138 0 16.572-7.434 16.572-16.572C67.143 44.434 59.709 37 50.57 37" fill="#546670"/><path d="M64.979 51.914c-.742-6.652-6.098-12.008-12.75-12.75-8.734-.974-16.158 5.866-16.158 14.407 0 .174.008.346.013.518.254-7.17 5.735-13.032 12.74-13.877a1.56 1.56 0 0 1 1.747 1.546v14.395a2.582 2.582 0 0 1-2.565-2.323c-.011.117-.026.232-.022.353a2.585 2.585 0 0 0 1.836 2.376c.442.135.751.53.751.993v10.52c8.542 0 15.382-7.424 14.408-16.158" fill="#405563"/><path d="M63.518 53.571c0-.011-.006-.022-.007-.033a12.906 12.906 0 0 0-3.785-9.121 12.904 12.904 0 0 0-9.12-3.785c-.012 0-.022-.007-.035-.007-.012 0-.022.006-.034.007a12.906 12.906 0 0 0-9.12 3.785 12.908 12.908 0 0 0-3.785 9.12c0 .012-.007.023-.007.034 0 .012.006.023.007.034a12.905 12.905 0 0 0 3.785 9.122.517.517 0 0 0 .732 0l1.465-1.465a.518.518 0 1 0-.733-.733l-1.079 1.08a11.847 11.847 0 0 1-3.11-7.52h1.522a.518.518 0 1 0 0-1.035h-1.523a11.85 11.85 0 0 1 3.11-7.52l1.08 1.08a.514.514 0 0 0 .733 0 .517.517 0 0 0 0-.732l-1.08-1.08a11.848 11.848 0 0 1 7.52-3.11v1.522a.518.518 0 1 0 1.035 0v-1.523a11.848 11.848 0 0 1 7.52 3.11l-1.08 1.081a.517.517 0 1 0 .732.733l1.08-1.081a11.852 11.852 0 0 1 3.11 7.52H60.93a.518.518 0 1 0 0 1.035h1.523a11.85 11.85 0 0 1-3.11 7.52l-1.08-1.08a.518.518 0 0 0-.733.733l1.464 1.464a.517.517 0 0 0 .366.152h.001c.133 0 .265-.05.366-.152a12.908 12.908 0 0 0 3.785-9.121c0-.011.007-.022.007-.034" fill="#E1E4E1"/><path d="M50.571 70.143c3.098 0 5.998-.856 8.48-2.341l-3.292-5.571c-.29-.49-.993-.892-1.563-.892H46.43c-.57 0-1.26.41-1.532.91L41.923 67.7a16.473 16.473 0 0 0 8.648 2.442" fill="#30404D"/><path d="M48.025 53.998a2.407 2.407 0 0 1-.043-.427 2.53 2.53 0 0 1 .076-.594c.026-.108.058-.214.098-.316.02-.05.037-.1.059-.15a2.513 2.513 0 0 1 .39-.603c.207-.245.457-.448.74-.603l.002-.001c-2.857-.885-7.424-2.236-7.58-1.875-.162.38 3.987 3.199 6.286 4.723v-.001c-.012-.05-.02-.102-.028-.153" fill="#DF5142"/><path d="M50.571 50.982a2.592 2.592 0 0 0-2.589 2.59 2.592 2.592 0 0 0 2.59 2.589 2.592 2.592 0 0 0 2.589-2.59 2.592 2.592 0 0 0-2.59-2.589" fill="#C5CCCD"/><path d="M54.196 61.34h-3.625v8.803c3.098 0 5.998-.856 8.48-2.341l-3.292-5.571c-.29-.49-.993-.892-1.563-.892" fill="#182A37"/><path d="M54.196 65.482c0 .57-.466 1.036-1.035 1.036h-5.697c-.57 0-1.035-.466-1.035-1.036V63.93c0-.57.466-1.036 1.035-1.036h5.697c.57 0 1.035.466 1.035 1.036v1.553" fill="#30404D"/><path d="M53.16 62.893h-5.696c-.57 0-1.035.466-1.035 1.036v.517c0-.57.466-1.035 1.035-1.035h5.697c.57 0 1.035.466 1.035 1.035v-.517c0-.57-.466-1.036-1.035-1.036" fill="#182A37"/><path d="M51.09 43.214v-1.523a11.848 11.848 0 0 1 7.52 3.11l-1.081 1.081a.517.517 0 1 0 .732.733l1.08-1.081a11.852 11.852 0 0 1 3.11 7.52H60.93a.518.518 0 1 0 0 1.035h1.523a11.85 11.85 0 0 1-3.11 7.52l-1.08-1.08a.518.518 0 0 0-.733.733l1.464 1.464a.517.517 0 0 0 .366.152h.001c.133 0 .265-.05.366-.152a12.908 12.908 0 0 0 3.785-9.12c0-.012.007-.023.007-.035 0-.011-.006-.022-.007-.033a12.906 12.906 0 0 0-3.785-9.121 12.904 12.904 0 0 0-9.12-3.785c-.012 0-.022-.007-.035-.007v3.107a.518.518 0 0 0 .518-.518" fill="#C5CCCD"/><path d="M50.571 68.071c-7.995 0-14.5-6.504-14.5-14.5 0-7.995 6.505-14.5 14.5-14.5 7.996 0 14.5 6.505 14.5 14.5 0 7.996-6.504 14.5-14.5 14.5zm0-31.071C41.434 37 34 44.434 34 53.571c0 9.138 7.434 16.572 16.571 16.572 9.138 0 16.572-7.434 16.572-16.572C67.143 44.434 59.709 37 50.57 37z" fill="#30404D"/><path d="M52.402 51.747l-3.652 3.65c.023.023.039.05.062.071a2.592 2.592 0 0 0 3.66-.132 2.588 2.588 0 0 0-.07-3.589" fill="#ACB8C0"/><path d="M50.571 52.536a1.036 1.036 0 0 0 0 2.071 1.037 1.037 0 0 0 0-2.071" fill="#546670"/><rect x="2" y="2" width="96" height="96" rx="48" stroke="#0078D4" stroke-width="4"/></g></svg>