<svg xmlns="http://www.w3.org/2000/svg" xmlns:xlink="http://www.w3.org/1999/xlink" viewBox="0 0 100 100"><defs><rect id="a" x="0" y="0" width="96" height="96" rx="48"/><filter x="-6.2%" y="-8%" width="112.5%" height="116%" filterUnits="objectBoundingBox" id="b"><feOffset dy="2" in="SourceAlpha" result="shadowOffsetOuter1"/><feColorMatrix values="0 0 0 0 0 0 0 0 0 0 0 0 0 0 0 0 0 0 0.101222826 0" in="shadowOffsetOuter1" result="shadowMatrixOuter1"/><feMerge><feMergeNode in="shadowMatrixOuter1"/><feMergeNode in="SourceGraphic"/></feMerge></filter></defs><g fill="none" fill-rule="evenodd"><g transform="translate(2 2)"><mask id="c" fill="#fff"><use xlink:href="#a"/></mask><use fill="#01B6C3" xlink:href="#a"/><g filter="url(#b)" mask="url(#c)"><path d="M67.776 52.128l.004-.004-6.872-7.216a10.736 10.736 0 0 0-9.36-2.999 1.92 1.92 0 0 0-.963.46l-4.233 3.763a6.767 6.767 0 0 1-8.825.141 1.816 1.816 0 0 1-.121-2.679l9.319-9.319A4.355 4.355 0 0 1 49.803 33h-4.197c-2.303 0-4.553-.672-6.483-1.924L23.096 47.103l23.898 25.51c.091.105.182.208.284.303l.078.084.011-.011A3.964 3.964 0 0 0 50 74a4 4 0 0 0 4-4 3.94 3.94 0 0 0-.205-1.205c.383.121.782.205 1.205.205a4 4 0 0 0 4-4 3.94 3.94 0 0 0-.205-1.205c.383.121.782.205 1.205.205a4 4 0 0 0 4-4 3.94 3.94 0 0 0-.205-1.205c.383.121.782.205 1.205.205a4 4 0 0 0 4-4 3.983 3.983 0 0 0-1.224-2.872" fill="#84522D"/><path d="M19.008 49.707l-2.715-2.715c-.41-.41-.387-1.097.051-1.535l21.113-21.113c.438-.438 1.125-.461 1.535-.051l2.715 2.715c.41.41.387 1.097-.051 1.535L20.543 49.656c-.438.438-1.125.461-1.535.051m57.984 0l2.715-2.715c.41-.41.387-1.097-.051-1.535L58.543 24.344c-.438-.438-1.125-.461-1.535-.051l-2.715 2.715c-.41.41-.387 1.097.051 1.535l21.113 21.113c.438.438 1.125.461 1.535.051" fill="#E1E4E1"/><path d="M79.707 46.992l-2.715 2.715c-.41.41-1.097.387-1.535-.051l-6.642-6.642a2 2 0 0 1 0-2.829 1.677 1.677 0 0 0 0-2.37l-4.754-4.753c-.872-.872.049-2.458 1.182-1.971a.391.391 0 0 1 .127.081l14.286 14.285c.438.438.461 1.125.051 1.535m-63.414 0l2.715 2.715c.41.41 1.097.387 1.535-.051l6.642-6.642a2 2 0 0 0 0-2.829 1.677 1.677 0 0 1 0-2.37l4.754-4.753c.872-.872-.049-2.458-1.182-1.971a.391.391 0 0 0-.127.081L16.344 45.457c-.438.438-.461 1.125-.051 1.535" fill="#CDD3D1"/><path d="M76 47a1 1 0 1 0 0-2 1 1 0 0 0 0 2" fill="#8BA6B1"/><path d="M60.908 44.908a10.736 10.736 0 0 0-9.36-2.999 1.92 1.92 0 0 0-.963.46l-4.233 3.763c-1.755 1.559-4.119 2.03-6.265 1.448a2.655 2.655 0 0 0 2.073 1.171c1.577.086 3.189-.111 4.192-1.002l4.233-3.763c.257-.229.571-.393.91-.452 3.438-.59 6.948.526 9.413 2.991l1.069.814a4.669 4.669 0 0 0 2.499 1.316l-3.568-3.747" fill="#6D4526"/><path d="M45 65a3.94 3.94 0 0 0-1.205.205c.122-.383.205-.782.205-1.205a4 4 0 0 0-4-4 3.94 3.94 0 0 0-1.205.205c.122-.383.205-.782.205-1.205a4 4 0 0 0-4-4 3.94 3.94 0 0 0-1.205.205c.122-.383.205-.782.205-1.205a4 4 0 1 0-4 4 3.97 3.97 0 0 0 1.205-.205A3.94 3.94 0 0 0 31 59a4 4 0 0 0 4 4 3.97 3.97 0 0 0 1.205-.205A3.94 3.94 0 0 0 36 64a4 4 0 0 0 4 4 3.97 3.97 0 0 0 1.205-.205A3.94 3.94 0 0 0 41 69a4 4 0 1 0 4-4" fill="#EAC5A7"/><path d="M20 47a1 1 0 1 1 0-2 1 1 0 0 1 0 2" fill="#8BA6B1"/><path d="M56.895 31.095A6.826 6.826 0 0 1 52.172 33h-2.369a4.355 4.355 0 0 0-3.078 1.275l-9.319 9.319a1.816 1.816 0 0 0 .121 2.679 6.767 6.767 0 0 0 8.825-.141l4.233-3.763a1.92 1.92 0 0 1 .963-.46 10.736 10.736 0 0 1 9.36 2.999l6.872 7.216 5.119-5.025-16.004-16.004" fill="#EAC5A7"/><path d="M56.92 31.119a1.407 1.407 0 0 0 .105 1.89l11.804 11.615a3.188 3.188 0 0 1 .018 4.528l-1.996 1.997.929.975 5.119-5.025-15.979-15.98m2.394 12.383a10.739 10.739 0 0 0-6.078-3.038c-2.086-.298-4.188.448-5.763 1.848l-2.716 2.414a6.76 6.76 0 0 1-7.725.879c.109.249.271.48.495.668a6.765 6.765 0 0 0 8.824-.141l4.234-3.763c.257-.228.57-.393.91-.451a10.727 10.727 0 0 1 8.139 1.92l-.32-.336" fill="#D9B090"/><path d="M57.845 52.845a2 2 0 0 0 0 2.829l3.122 3.121a2 2 0 0 0 2.828 0l-5.95-5.95m-5 7.829l3.122 3.121a2 2 0 0 0 2.828 0l-5.95-5.95a2 2 0 0 0 0 2.829m-5.585 3.592c-.915-.382-1.723-.297-2.465-.061.122-.383.205-.782.205-1.205a4 4 0 0 0-4-4c-.423 0-.822.083-1.205.205.122-.383.205-.782.205-1.205a4 4 0 0 0-4-4c-.423 0-.822.083-1.205.205.326-1.027.378-2.176-.722-3.567-.807-1.022-2.004-1.707-3.304-1.631a3.933 3.933 0 0 0-1.591.438 1.722 1.722 0 0 1-2.025-.293 3.188 3.188 0 0 1 .018-4.528l11.804-11.615a1.407 1.407 0 0 0 .105-1.89L23.098 47.102l4.308 4.492s.25-.875.957-1.232A3.943 3.943 0 0 1 30.064 50c1.243.021 2.349.758 3.097 1.751 1.009 1.34.951 2.455.634 3.454A3.945 3.945 0 0 1 35 55a4 4 0 0 1 4 4c0 .423-.083.822-.205 1.205A3.945 3.945 0 0 1 40 60a4 4 0 0 1 4 4c0 .423-.083.822-.205 1.205 1.026-.326 2.175-.378 3.566.72.963.762 1.644 1.864 1.639 3.092a3.977 3.977 0 0 1-.719 2.263A3.99 3.99 0 0 0 50 68.039c.001-.075-.009-.149-.013-.224l.98.98a2 2 0 0 0 2.828 0l-5.95-5.95a1.993 1.993 0 0 0-.585 1.421" fill="#6D4526"/><path d="M45 65a3.94 3.94 0 0 0-1.205.205c.122-.383.205-.782.205-1.205a4 4 0 0 0-4-4 3.94 3.94 0 0 0-1.205.205c.122-.383.205-.782.205-1.205a4 4 0 0 0-4-4 3.94 3.94 0 0 0-1.205.205c.122-.383.205-.782.205-1.205a4 4 0 1 0-4 4 3.97 3.97 0 0 0 1.205-.205A3.94 3.94 0 0 0 31 59a4 4 0 0 0 4 4 3.97 3.97 0 0 0 1.205-.205A3.94 3.94 0 0 0 36 64a4 4 0 0 0 4 4 3.97 3.97 0 0 0 1.205-.205A3.94 3.94 0 0 0 41 69a4 4 0 1 0 4-4" fill="#EAC5A7"/><path d="M45.406 71.594a4 4 0 0 1-4-4c0-.423.083-.822.205-1.205a3.945 3.945 0 0 1-1.205.205 4 4 0 0 1-4-4c0-.423.083-.822.205-1.205a3.945 3.945 0 0 1-1.205.205 4 4 0 0 1-4-4c0-.423.083-.822.205-1.205a3.945 3.945 0 0 1-1.205.205 4 4 0 0 1-4-4c0-.134.026-.261.039-.393A3.963 3.963 0 0 0 26 54a4 4 0 0 0 4 4 3.97 3.97 0 0 0 1.205-.205A3.97 3.97 0 0 0 31 59a4 4 0 0 0 4 4 3.97 3.97 0 0 0 1.205-.205A3.97 3.97 0 0 0 36 64a4 4 0 0 0 4 4 3.97 3.97 0 0 0 1.205-.205A3.97 3.97 0 0 0 41 69a4 4 0 0 0 4 4c2.075 0 3.76-1.585 3.96-3.608-.66 1.301-1.995 2.202-3.554 2.202" fill="#D9B090"/></g></g><rect x="2" y="2" width="96" height="96" rx="48" stroke="#1D8E96" stroke-width="4"/></g></svg>