<svg xmlns="http://www.w3.org/2000/svg" xmlns:xlink="http://www.w3.org/1999/xlink" viewBox="0 0 100 100"><defs><rect id="a" x="0" y="0" width="96" height="96" rx="48"/><filter x="-5.2%" y="-8.7%" width="110.4%" height="117.4%" filterUnits="objectBoundingBox" id="b"><feOffset dy="2" in="SourceAlpha" result="shadowOffsetOuter1"/><feColorMatrix values="0 0 0 0 0 0 0 0 0 0 0 0 0 0 0 0 0 0 0.101590806 0" in="shadowOffsetOuter1" result="shadowMatrixOuter1"/><feMerge><feMergeNode in="shadowMatrixOuter1"/><feMergeNode in="SourceGraphic"/></feMerge></filter></defs><g fill="none" fill-rule="evenodd"><use fill="#01B6C3" xlink:href="#a" transform="translate(2 2)"/><rect x="2" y="2" width="96" height="96" rx="48" stroke="#1D8E96" stroke-width="4"/><g transform="translate(12 25)"><g filter="url(#b)" transform="translate(.273)"><path d="M0 38.391v2.4a4.813 4.813 0 0 0 4.799 4.798h67.184c2.64 0 4.8-2.16 4.8-4.799v-2.399H0" fill="#E1E4E1"/><path d="M11.997 0a4.813 4.813 0 0 0-4.799 4.799V38.39h62.386V4.799c0-2.64-2.16-4.799-4.8-4.799H11.998zm52.788 2.4c1.322 0 2.4 1.076 2.4 2.399v31.193H9.597V4.799c0-1.323 1.076-2.4 2.4-2.4h52.787z" fill="#182A37"/><path d="M9.598 4.799c0-1.323 1.076-2.4 2.4-2.4h52.787c1.322 0 2.4 1.077 2.4 2.4v31.193H9.597V4.799" fill="#E1E4E1"/><path fill="#FFF" fill-rule="nonzero" d="M12 4.432h53V34H12z"/><path d="M11.997 0h26.394l-.733 2.4h-25.66a2.402 2.402 0 0 0-2.4 2.399v31.193h16.33l-.734 2.399H7.198V4.799c0-2.64 2.16-4.799 4.8-4.799" fill="#30404D"/><path d="M35.992 43.19H.67c.833 1.425 2.365 2.4 4.128 2.4h67.184c2.64 0 4.8-2.16 4.8-4.8v-2.399H38.39v2.4a2.4 2.4 0 0 1-2.4 2.399" fill="#CDD6D8"/><path d="M33.592 40.79h9.598a2.4 2.4 0 0 0 2.4-2.399H31.192a2.4 2.4 0 0 0 2.4 2.4" fill="#AAB0B1"/></g><g fill-rule="nonzero"><path d="M49.868 21.88l3.43 8.267a.5.5 0 0 0 .912.025l.67-1.394a.5.5 0 0 1 .799-.143l2.362 2.284a.5.5 0 0 0 .729-.036l1.322-1.564a.5.5 0 0 0-.054-.7l-2.392-2.081a.5.5 0 0 1 .08-.81l1.123-.647a.5.5 0 0 0-.081-.904l-8.27-2.96a.5.5 0 0 0-.63.663z" fill="#384B58"/><path d="M50.426 21.214c-.2-.039-.34-.008-.424.092-.083.1 3.04 3.016 9.366 8.75l.698-.82a.5.5 0 0 0-.054-.702l-2.359-2.036a.5.5 0 0 1 .079-.813l1.09-.623a.5.5 0 0 0-.08-.905l-8.316-2.943z" fill="#30404D"/><path d="M52.273 19.24L54.177 17m-4.32 1.93L49.619 16m-2.073 3.903l-2.273-1.864m1.934 4.331l-2.934.186m3.942 1.477l-1.942 2.207" stroke="#43A6DD" stroke-linecap="round"/></g><rect fill="#E86C60" fill-rule="nonzero" x="15.273" y="18" width="23" height="2" rx="1"/><rect fill="#EFD358" fill-rule="nonzero" x="15.273" y="23" width="25" height="2" rx="1"/><rect fill="#72C472" fill-rule="nonzero" x="15.273" y="28" width="27" height="2" rx="1"/><text font-family="HelveticaNeue-Bold, Helvetica Neue" font-size="9" font-weight="bold" fill="#182A37"><tspan x="16.273" y="18">A</tspan></text><g fill-rule="nonzero"><path fill="#E86C60" d="M55.273 8h3v3h-3z"/><path fill="#72C472" d="M59.273 8h3v3h-3z"/><path fill="#43A6DD" d="M55.273 12h3v3h-3z"/><path fill="#EFD358" d="M59.273 12h3v3h-3z"/></g></g></g></svg>