<svg xmlns="http://www.w3.org/2000/svg" xmlns:xlink="http://www.w3.org/1999/xlink" viewBox="0 0 100 118"><defs><path d="M42.742 1.497A10.056 10.056 0 0 1 48 0c1.813 0 3.627.499 5.256 1.497l37.335 22.835C93.933 26.377 96 30.203 96 34.352v45.295c0 4.148-2.067 7.977-5.409 10.021l-37.335 22.837A10.056 10.056 0 0 1 48 114c-1.813 0-3.626-.499-5.258-1.495L5.41 89.668C2.066 87.624 0 83.795 0 79.648V34.352c0-4.15 2.066-7.976 5.409-10.021L42.743 1.497z" id="a"/><filter x="-8.2%" y="-6.2%" width="116.3%" height="112.5%" filterUnits="objectBoundingBox" id="b"><feOffset dy="2" in="SourceAlpha" result="shadowOffsetOuter1"/><feColorMatrix values="0 0 0 0 0 0 0 0 0 0 0 0 0 0 0 0 0 0 0.101222826 0" in="shadowOffsetOuter1" result="shadowMatrixOuter1"/><feMerge><feMergeNode in="shadowMatrixOuter1"/><feMergeNode in="SourceGraphic"/></feMerge></filter><path id="d" d="M.001.04h20V12h-20z"/></defs><g fill="none" fill-rule="evenodd"><g transform="translate(2 2)"><mask id="c" fill="#fff"><use xlink:href="#a"/></mask><use fill="#01B6C3" xlink:href="#a"/><g filter="url(#b)" mask="url(#c)"><path d="M24.01 88c-2.2 0-4-1.8-4-4V34c0-2.2 1.8-4 4-4h40c2.2 0 4 1.8 4 4v50c0 2.2-1.8 4-4 4h-40" fill="#30404D"/><path d="M64.01 30h-20v58h20c2.2 0 4-1.8 4-4V34c0-2.2-1.8-4-4-4" fill="#182A37"/><path d="M25.01 85c-1.1 0-2-.899-2-2V35c0-1.101.9-2 2-2h38c1.1 0 2 .899 2 2v48c0 1.101-.9 2-2 2h-38" fill="#E1E4E1"/><path d="M44.01 33h-19c-1.1 0-2 .899-2 2v48c0 1.101.9 2 2 2h19V33" fill="#FFFFFE"/><g transform="translate(34.01 24)"><mask id="e" fill="#fff"><use xlink:href="#d"/></mask><path d="M19.001 11h-18c-.55 0-1-.45-1-1v1c0 .55.45 1 1 1h18c.55 0 1-.45 1-1v-1c0 .55-.45 1-1 1" fill="#546670" mask="url(#e)"/><path d="M10.001 2c1.103 0 2 .897 2 2h-4c0-1.103.896-2 2-2zm9 2h-5a4 4 0 0 0-8 0h-5c-.55 0-1 .45-1 1v5c0 .55.45 1 1 1h18c.55 0 1-.45 1-1V5c0-.55-.45-1-1-1z" fill="#ADBDC4" mask="url(#e)"/></g><path fill="#182A37" d="M33.01 33h1v-3h-1z"/><path d="M31.01 49a2 2 0 1 0 4 .001 2 2 0 0 0-4-.001M31.01 59a2 2 0 1 0 4 0 2 2 0 0 0-4 0M31.01 69a2 2 0 1 0 4 0 2 2 0 0 0-4 0" fill="#7CB65A"/><path d="M55.01 51h-16a2 2 0 0 1 0-4h16a2 2 0 0 1 0 4M55.01 61h-16a2 2 0 0 1 0-4h16a2 2 0 0 1 0 4M55.01 71h-16a2 2 0 0 1 0-4h16a2 2 0 0 1 0 4" fill="#A9B3B6"/><path d="M54.01 34v-5c0-.55-.45-1-1-1h-4l-3 7h7c.55 0 1-.45 1-1M44.695 24.069l-.834 1.946c.05-.004.098-.015.15-.015 1.102 0 2 .897 2 2h-3l-3 7h4l3.674-8.576a4 4 0 0 0-2.99-2.355" fill="#8BA6B1"/></g><path d="M67.917 81.25c-7.87 0-14.25-6.38-14.25-14.25s6.38-14.25 14.25-14.25 14.25 6.38 14.25 14.25-6.38 14.25-14.25 14.25z" stroke="#01B6C3" stroke-width="2.5" fill="#7CB65A" mask="url(#c)"/><path d="M72.917 65h-3v-3a2 2 0 0 0-4 0v3h-3a2 2 0 1 0 0 4h3v3a2 2 0 0 0 4 0v-3h3a2 2 0 0 0 0-4" fill="#FFFFFE" mask="url(#c)"/></g><path d="M45.562 3.258L6.673 26.894C3.797 28.644 2 31.951 2 35.558v46.884c0 3.607 1.798 6.917 4.673 8.664l38.888 23.636A8.539 8.539 0 0 0 50 116a8.525 8.525 0 0 0 4.436-1.257l38.89-23.637C96.203 89.358 98 86.048 98 82.442V35.558c0-3.606-1.797-6.914-4.673-8.664L54.435 3.258A8.511 8.511 0 0 0 50 2c-1.546 0-3.07.428-4.438 1.258zm0 0s0 0 0 0h0z" stroke="#1D8E96" stroke-width="4"/></g></svg>