<svg xmlns="http://www.w3.org/2000/svg" xmlns:xlink="http://www.w3.org/1999/xlink" viewBox="0 0 100 100" version="1.1"><!-- Generator: Sketch 51.3 (57544) - http://www.bohemiancoding.com/sketch --><title>chain-azure-functions-and-data-together-using-input-and-output-bindings</title><desc>Created with Sketch.</desc><defs><filter x="-1.4%" y="-1.4%" width="102.8%" height="105.6%" filterUnits="objectBoundingBox" id="filter-1"><feOffset dx="0" dy="2" in="SourceAlpha" result="shadowOffsetOuter1"></feOffset><feColorMatrix values="0 0 0 0 0   0 0 0 0 0   0 0 0 0 0  0 0 0 0.100260417 0" type="matrix" in="shadowOffsetOuter1" result="shadowMatrixOuter1"></feColorMatrix><feMerge><feMergeNode in="shadowMatrixOuter1"></feMergeNode><feMergeNode in="SourceGraphic"></feMergeNode></feMerge></filter><filter x="-5.3%" y="-2.0%" width="110.5%" height="108.0%" filterUnits="objectBoundingBox" id="filter-2"><feOffset dx="0" dy="2" in="SourceAlpha" result="shadowOffsetOuter1"></feOffset><feColorMatrix values="0 0 0 0 0   0 0 0 0 0   0 0 0 0 0  0 0 0 0.146059783 0" type="matrix" in="shadowOffsetOuter1" result="shadowMatrixOuter1"></feColorMatrix><feMerge><feMergeNode in="shadowMatrixOuter1"></feMergeNode><feMergeNode in="SourceGraphic"></feMergeNode></feMerge></filter></defs><g id="Badges-FINAL" stroke="none" stroke-width="1" fill="none" fill-rule="evenodd"><g id="Create-backend-services-in-Azure" transform="translate(-577.000000, -722.000000)"><g id="chain-azure-functions-and-data-together-using-input-and-output-bindings" transform="translate(577.000000, 722.000000)"><rect id="BG" fill="#55A2FF" x="2" y="2" width="96" height="96" rx="48"></rect><g id="Chip" filter="url(#filter-1)" transform="translate(14.500000, 14.500000)"><path d="M29.2715327,8.23598205 C29.2715327,8.83645007 28.7802407,9.32774209 28.1797727,9.32774209 L25.9962526,9.32774209 C25.3957846,9.32774209 24.9044926,8.83645007 24.9044926,8.23598205 L24.9044926,1.68542185 C24.9044926,1.08495384 25.3957846,0.59366182 25.9962526,0.59366182 L28.1797727,0.59366182 C28.7802407,0.59366182 29.2715327,1.08495384 29.2715327,1.68542185 L29.2715327,8.23598205" id="Fill-1127" fill="#E1E4E1"></path><path d="M38.005613,8.23598205 C38.005613,8.83645007 37.514321,9.32774209 36.913853,9.32774209 L34.7303329,9.32774209 C34.1298649,9.32774209 33.6385729,8.83645007 33.6385729,8.23598205 L33.6385729,1.68542185 C33.6385729,1.08495384 34.1298649,0.59366182 34.7303329,0.59366182 L36.913853,0.59366182 C37.514321,0.59366182 38.005613,1.08495384 38.005613,1.68542185 L38.005613,8.23598205" id="Fill-1128" fill="#E1E4E1"></path><path d="M46.7396933,8.23598205 C46.7396933,8.83645007 46.2484013,9.32774209 45.6479332,9.32774209 L43.4644132,9.32774209 C42.8639452,9.32774209 42.3726531,8.83645007 42.3726531,8.23598205 L42.3726531,1.68542185 C42.3726531,1.08495384 42.8639452,0.59366182 43.4644132,0.59366182 L45.6479332,0.59366182 C46.2484013,0.59366182 46.7396933,1.08495384 46.7396933,1.68542185 L46.7396933,8.23598205" id="Fill-1129" fill="#E1E4E1"></path><path d="M55.4737735,8.23598205 C55.4737735,8.83645007 54.9824815,9.32774209 54.3820135,9.32774209 L52.1984934,9.32774209 C51.5980254,9.32774209 51.1067334,8.83645007 51.1067334,8.23598205 L51.1067334,1.68542185 C51.1067334,1.08495384 51.5980254,0.59366182 52.1984934,0.59366182 L54.3820135,0.59366182 C54.9824815,0.59366182 55.4737735,1.08495384 55.4737735,1.68542185 L55.4737735,8.23598205" id="Fill-1130" fill="#E1E4E1"></path><path d="M20.5374525,8.23598205 C20.5374525,8.83645007 20.0461605,9.32774209 19.4456924,9.32774209 L17.2621724,9.32774209 C16.6617044,9.32774209 16.1704123,8.83645007 16.1704123,8.23598205 L16.1704123,1.68542185 C16.1704123,1.08495384 16.6617044,0.59366182 17.2621724,0.59366182 L19.4456924,0.59366182 C20.0461605,0.59366182 20.5374525,1.08495384 20.5374525,1.68542185 L20.5374525,8.23598205" id="Fill-1131" fill="#E1E4E1"></path><path d="M29.2715327,69.3745439 C29.2715327,69.9750119 28.7802407,70.4663039 28.1797727,70.4663039 L25.9962526,70.4663039 C25.3957846,70.4663039 24.9044926,69.9750119 24.9044926,69.3745439 L24.9044926,62.8239837 C24.9044926,62.2235157 25.3957846,61.7322237 25.9962526,61.7322237 L28.1797727,61.7322237 C28.7802407,61.7322237 29.2715327,62.2235157 29.2715327,62.8239837 L29.2715327,69.3745439" id="Fill-1132" fill="#E1E4E1"></path><path d="M38.005613,69.3745439 C38.005613,69.9750119 37.514321,70.4663039 36.913853,70.4663039 L34.7303329,70.4663039 C34.1298649,70.4663039 33.6385729,69.9750119 33.6385729,69.3745439 L33.6385729,62.8239837 C33.6385729,62.2235157 34.1298649,61.7322237 34.7303329,61.7322237 L36.913853,61.7322237 C37.514321,61.7322237 38.005613,62.2235157 38.005613,62.8239837 L38.005613,69.3745439" id="Fill-1133" fill="#E1E4E1"></path><path d="M46.7396933,69.3745439 C46.7396933,69.9750119 46.2484013,70.4663039 45.6479332,70.4663039 L43.4644132,70.4663039 C42.8639452,70.4663039 42.3726531,69.9750119 42.3726531,69.3745439 L42.3726531,62.8239837 C42.3726531,62.2235157 42.8639452,61.7322237 43.4644132,61.7322237 L45.6479332,61.7322237 C46.2484013,61.7322237 46.7396933,62.2235157 46.7396933,62.8239837 L46.7396933,69.3745439" id="Fill-1134" fill="#E1E4E1"></path><path d="M55.4737735,69.3745439 C55.4737735,69.9750119 54.9824815,70.4663039 54.3820135,70.4663039 L52.1984934,70.4663039 C51.5980254,70.4663039 51.1067334,69.9750119 51.1067334,69.3745439 L51.1067334,62.8239837 C51.1067334,62.2235157 51.5980254,61.7322237 52.1984934,61.7322237 L54.3820135,61.7322237 C54.9824815,61.7322237 55.4737735,62.2235157 55.4737735,62.8239837 L55.4737735,69.3745439" id="Fill-1135" fill="#E1E4E1"></path><path d="M20.5374525,69.3745439 C20.5374525,69.9750119 20.0461605,70.4663039 19.4456924,70.4663039 L17.2621724,70.4663039 C16.6617044,70.4663039 16.1704123,69.9750119 16.1704123,69.3745439 L16.1704123,62.8239837 C16.1704123,62.2235157 16.6617044,61.7322237 17.2621724,61.7322237 L19.4456924,61.7322237 C20.0461605,61.7322237 20.5374525,62.2235157 20.5374525,62.8239837 L20.5374525,69.3745439" id="Fill-1136" fill="#E1E4E1"></path><path d="M70.758414,27.8876627 C70.758414,28.4881307 70.267122,28.9794227 69.666654,28.9794227 L63.1160938,28.9794227 C62.5156258,28.9794227 62.0243337,28.4881307 62.0243337,27.8876627 L62.0243337,25.7041426 C62.0243337,25.1036746 62.5156258,24.6123826 63.1160938,24.6123826 L69.666654,24.6123826 C70.267122,24.6123826 70.758414,25.1036746 70.758414,25.7041426 L70.758414,27.8876627" id="Fill-1137" fill="#E1E4E1"></path><path d="M70.758414,36.6217429 C70.758414,37.2222109 70.267122,37.713503 69.666654,37.713503 L63.1160938,37.713503 C62.5156258,37.713503 62.0243337,37.2222109 62.0243337,36.6217429 L62.0243337,34.4382229 C62.0243337,33.8377548 62.5156258,33.3464628 63.1160938,33.3464628 L69.666654,33.3464628 C70.267122,33.3464628 70.758414,33.8377548 70.758414,34.4382229 L70.758414,36.6217429" id="Fill-1138" fill="#E1E4E1"></path><path d="M70.758414,45.3558232 C70.758414,45.9562912 70.267122,46.4475832 69.666654,46.4475832 L63.1160938,46.4475832 C62.5156258,46.4475832 62.0243337,45.9562912 62.0243337,45.3558232 L62.0243337,43.1723031 C62.0243337,42.5718351 62.5156258,42.0805431 63.1160938,42.0805431 L69.666654,42.0805431 C70.267122,42.0805431 70.758414,42.5718351 70.758414,43.1723031 L70.758414,45.3558232" id="Fill-1139" fill="#E1E4E1"></path><path d="M70.758414,54.0899034 C70.758414,54.6903715 70.267122,55.1816635 69.666654,55.1816635 L63.1160938,55.1816635 C62.5156258,55.1816635 62.0243337,54.6903715 62.0243337,54.0899034 L62.0243337,51.9063834 C62.0243337,51.3059154 62.5156258,50.8146233 63.1160938,50.8146233 L69.666654,50.8146233 C70.267122,50.8146233 70.758414,51.3059154 70.758414,51.9063834 L70.758414,54.0899034" id="Fill-1140" fill="#E1E4E1"></path><path d="M70.758414,19.1535824 C70.758414,19.7540504 70.267122,20.2453424 69.666654,20.2453424 L63.1160938,20.2453424 C62.5156258,20.2453424 62.0243337,19.7540504 62.0243337,19.1535824 L62.0243337,16.9700623 C62.0243337,16.3695943 62.5156258,15.8783023 63.1160938,15.8783023 L69.666654,15.8783023 C70.267122,15.8783023 70.758414,16.3695943 70.758414,16.9700623 L70.758414,19.1535824" id="Fill-1141" fill="#E1E4E1"></path><path d="M9.61985215,27.8876627 C9.61985215,28.4881307 9.12856013,28.9794227 8.52809211,28.9794227 L1.97753191,28.9794227 C1.3770639,28.9794227 0.88577188,28.4881307 0.88577188,27.8876627 L0.88577188,25.7041426 C0.88577188,25.1036746 1.3770639,24.6123826 1.97753191,24.6123826 L8.52809211,24.6123826 C9.12856013,24.6123826 9.61985215,25.1036746 9.61985215,25.7041426 L9.61985215,27.8876627" id="Fill-1142" fill="#E1E4E1"></path><path d="M9.61985215,36.6217429 C9.61985215,37.2222109 9.12856013,37.713503 8.52809211,37.713503 L1.97753191,37.713503 C1.3770639,37.713503 0.88577188,37.2222109 0.88577188,36.6217429 L0.88577188,34.4382229 C0.88577188,33.8377548 1.3770639,33.3464628 1.97753191,33.3464628 L8.52809211,33.3464628 C9.12856013,33.3464628 9.61985215,33.8377548 9.61985215,34.4382229 L9.61985215,36.6217429" id="Fill-1143" fill="#E1E4E1"></path><path d="M9.61985215,45.3558232 C9.61985215,45.9562912 9.12856013,46.4475832 8.52809211,46.4475832 L1.97753191,46.4475832 C1.3770639,46.4475832 0.88577188,45.9562912 0.88577188,45.3558232 L0.88577188,43.1723031 C0.88577188,42.5718351 1.3770639,42.0805431 1.97753191,42.0805431 L8.52809211,42.0805431 C9.12856013,42.0805431 9.61985215,42.5718351 9.61985215,43.1723031 L9.61985215,45.3558232" id="Fill-1144" fill="#E1E4E1"></path><path d="M9.61985215,54.0899034 C9.61985215,54.6903715 9.12856013,55.1816635 8.52809211,55.1816635 L1.97753191,55.1816635 C1.3770639,55.1816635 0.88577188,54.6903715 0.88577188,54.0899034 L0.88577188,51.9063834 C0.88577188,51.3059154 1.3770639,50.8146233 1.97753191,50.8146233 L8.52809211,50.8146233 C9.12856013,50.8146233 9.61985215,51.3059154 9.61985215,51.9063834 L9.61985215,54.0899034" id="Fill-1145" fill="#E1E4E1"></path><path d="M9.61985215,19.1535824 C9.61985215,19.7540504 9.12856013,20.2453424 8.52809211,20.2453424 L1.97753191,20.2453424 C1.3770639,20.2453424 0.88577188,19.7540504 0.88577188,19.1535824 L0.88577188,16.9700623 C0.88577188,16.3695943 1.3770639,15.8783023 1.97753191,15.8783023 L8.52809211,15.8783023 C9.12856013,15.8783023 9.61985215,16.3695943 9.61985215,16.9700623 L9.61985215,19.1535824" id="Fill-1146" fill="#E1E4E1"></path><path d="M64.2078538,59.5487036 C64.2078538,61.9505757 62.2426857,63.9157437 59.8408137,63.9157437 L11.8033722,63.9157437 C9.40150014,63.9157437 7.43633208,61.9505757 7.43633208,59.5487036 L7.43633208,11.5112622 C7.43633208,9.10939008 9.40150014,7.14422202 11.8033722,7.14422202 L59.8408137,7.14422202 C62.2426857,7.14422202 64.2078538,9.10939008 64.2078538,11.5112622 L64.2078538,59.5487036" id="Fill-1147" fill="#30404D"></path><path d="M59.8408137,7.14422202 L45.0583828,7.14422202 L27.5902223,63.9157437 L59.8408137,63.9157437 C62.2426857,63.9157437 64.2078538,61.9505757 64.2078538,59.5487036 L64.2078538,11.5112622 C64.2078538,9.10939008 62.2426857,7.14422202 59.8408137,7.14422202" id="Fill-1148" fill="#182A37"></path><path d="M18.1704123,15.6947822 C18.1704123,16.9000853 17.1987459,17.8783023 15.9868923,17.8783023 C14.7750386,17.8783023 13.8033722,16.9000853 13.8033722,15.6947822 C13.8033722,14.4883874 14.7750386,13.5112622 15.9868923,13.5112622 C17.1987459,13.5112622 18.1704123,14.4883874 18.1704123,15.6947822" id="Fill-1164" fill="#C5CCCD"></path><path d="M57.1966753,56.9089322 C56.3451024,57.7615968 54.9694848,57.7626886 54.117912,56.9089322 C53.2554215,56.0562676 53.2554215,54.6740994 54.117912,53.8214349 C54.9694848,52.9687703 56.3451024,52.9676785 57.1966753,53.8214349 C58.0591657,54.6740994 58.0591657,56.0562676 57.1966753,56.9089322" id="Fill-1167" fill="#C5CCCD"></path><polygon id="Fill-1171" fill="#C5CCCD" points="5.25281201 55.1816635 7.43633208 55.1816635 7.43633208 50.8146233 5.25281201 50.8146233"></polygon><polygon id="Fill-1172" fill="#C5CCCD" points="5.25281201 46.4475832 7.43633208 46.4475832 7.43633208 42.0805431 5.25281201 42.0805431"></polygon><polygon id="Fill-1173" fill="#C5CCCD" points="5.25281201 37.713503 7.43633208 37.713503 7.43633208 33.3464628 5.25281201 33.3464628"></polygon><polygon id="Fill-1174" fill="#C5CCCD" points="5.25281201 28.9794227 7.43633208 28.9794227 7.43633208 24.6123826 5.25281201 24.6123826"></polygon><polygon id="Fill-1175" fill="#C5CCCD" points="5.25281201 20.2453424 7.43633208 20.2453424 7.43633208 15.8783023 5.25281201 15.8783023"></polygon><polygon id="Fill-1176" fill="#C5CCCD" points="64.2078538 55.1816635 66.3913739 55.1816635 66.3913739 50.8146233 64.2078538 50.8146233"></polygon><polygon id="Fill-1177" fill="#C5CCCD" points="64.2078538 46.4475832 66.3913739 46.4475832 66.3913739 42.0805431 64.2078538 42.0805431"></polygon><polygon id="Fill-1178" fill="#C5CCCD" points="64.2078538 37.713503 66.3913739 37.713503 66.3913739 33.3464628 64.2078538 33.3464628"></polygon><polygon id="Fill-1179" fill="#C5CCCD" points="64.2078538 28.9794227 66.3913739 28.9794227 66.3913739 24.6123826 64.2078538 24.6123826"></polygon><polygon id="Fill-1180" fill="#C5CCCD" points="64.2078538 20.2453424 66.3913739 20.2453424 66.3913739 15.8783023 64.2078538 15.8783023"></polygon><polygon id="Fill-1181" fill="#C5CCCD" points="16.1704123 7.14422202 20.5374525 7.14422202 20.5374525 4.96070195 16.1704123 4.96070195"></polygon><polygon id="Fill-1182" fill="#C5CCCD" points="24.9044926 7.14422202 29.2715327 7.14422202 29.2715327 4.96070195 24.9044926 4.96070195"></polygon><polygon id="Fill-1183" fill="#C5CCCD" points="33.6385729 7.14422202 38.005613 7.14422202 38.005613 4.96070195 33.6385729 4.96070195"></polygon><polygon id="Fill-1184" fill="#C5CCCD" points="42.3726531 7.14422202 46.7396933 7.14422202 46.7396933 4.96070195 42.3726531 4.96070195"></polygon><polygon id="Fill-1185" fill="#C5CCCD" points="51.1067334 7.14422202 55.4737735 7.14422202 55.4737735 4.96070195 51.1067334 4.96070195"></polygon><polygon id="Fill-1186" fill="#C5CCCD" points="16.1704123 66.0992638 20.5374525 66.0992638 20.5374525 63.9157437 16.1704123 63.9157437"></polygon><polygon id="Fill-1187" fill="#C5CCCD" points="24.9044926 66.0992638 29.2715327 66.0992638 29.2715327 63.9157437 24.9044926 63.9157437"></polygon><polygon id="Fill-1188" fill="#C5CCCD" points="33.6385729 66.0992638 38.005613 66.0992638 38.005613 63.9157437 33.6385729 63.9157437"></polygon><polygon id="Fill-1189" fill="#C5CCCD" points="42.3726531 66.0992638 46.7396933 66.0992638 46.7396933 63.9157437 42.3726531 63.9157437"></polygon><polygon id="Fill-1190" fill="#C5CCCD" points="51.1067334 66.0992638 55.4737735 66.0992638 55.4737735 63.9157437 51.1067334 63.9157437"></polygon><path d="M57.1966753,56.9089322 C58.0591657,56.0562676 58.0591657,54.6740994 57.1966753,53.8214349 L54.117912,56.9089322 C54.9694848,57.7626886 56.3451024,57.7615968 57.1966753,56.9089322" id="Fill-1191" fill="#ADB5B7"></path><path d="M17.5262739,17.2385309 C18.3778468,16.3858663 18.3887644,15.0036981 17.5262739,14.1510335 L14.4475106,17.2385309 C15.2990835,18.0922873 16.6747011,18.0911955 17.5262739,17.2385309" id="Fill-1193" fill="#ADB5B7"></path></g><g id="Chain" filter="url(#filter-2)" transform="translate(50.335804, 50.216015) rotate(-315.000000) translate(-50.335804, -50.216015) translate(40.835804, 25.216015)"><path d="M9.26545439,4.63272719 C6.71050534,4.63272719 4.63272719,6.70973322 4.63272719,9.26545439 L4.63272719,15.442424 C4.63272719,17.9981451 6.71050534,20.0751512 9.26545439,20.0751512 C11.8204034,20.0751512 13.8981816,17.9981451 13.8981816,15.442424 L13.8981816,9.26545439 C13.8981816,6.70973322 11.8204034,4.63272719 9.26545439,4.63272719 Z M9.26545439,24.7078784 C4.15632841,24.7078784 0,20.5538663 0,15.442424 L0,9.26545439 C0,4.15401205 4.15632841,0 9.26545439,0 C14.3745804,0 18.5309088,4.15401205 18.5309088,9.26545439 L18.5309088,15.442424 C18.5309088,20.5538663 14.3745804,24.7078784 9.26545439,24.7078784 Z" id="Fill-1564" fill="#ADBDC4"></path><path d="M9.26545439,29.3406056 C6.71050534,29.3406056 4.63272719,31.4176116 4.63272719,33.9733328 L4.63272719,40.1503023 C4.63272719,42.7060235 6.71050534,44.7830295 9.26545439,44.7830295 C11.8204034,44.7830295 13.8981816,42.7060235 13.8981816,40.1503023 L13.8981816,33.9733328 C13.8981816,31.4176116 11.8204034,29.3406056 9.26545439,29.3406056 Z M9.26545439,49.4157567 C4.15632841,49.4157567 0,45.2617447 0,40.1503023 L0,33.9733328 C0,28.8618904 4.15632841,24.7078784 9.26545439,24.7078784 C14.3745804,24.7078784 18.5309088,28.8618904 18.5309088,33.9733328 L18.5309088,40.1503023 C18.5309088,45.2617447 14.3745804,49.4157567 9.26545439,49.4157567 Z" id="Fill-1565" fill="#ADBDC4"></path><path d="M9.26545439,47.8715143 C5.4890096,47.8715143 2.19668481,45.9334901 0.483347871,43.0843629 C1.71410906,46.7596598 5.18170537,49.4157567 9.26545439,49.4157567 C13.3492034,49.4157567 16.8167997,46.7596598 18.0475609,43.0843629 C16.334224,45.9334901 13.0418992,47.8715143 9.26545439,47.8715143" id="Fill-1566" fill="#8BA6B1"></path><path d="M9.26545439,23.163636 C5.4890096,23.163636 2.19668481,21.2256118 0.483347871,18.3764845 C1.71410906,22.0517814 5.18170537,24.7078784 9.26545439,24.7078784 C13.3492034,24.7078784 16.8167997,22.0517814 18.0475609,18.3764845 C16.334224,21.2256118 13.0418992,23.163636 9.26545439,23.163636" id="Fill-1567" fill="#8BA6B1"></path><path d="M9.26545439,35.5175752 C7.56215502,35.5175752 6.17696959,34.127757 6.17696959,32.4290904 L6.17696959,16.9866664 C6.17696959,15.2802785 7.56215502,13.8981816 9.26545439,13.8981816 C10.9687538,13.8981816 12.3539392,15.2802785 12.3539392,16.9866664 L12.3539392,32.4290904 C12.3539392,34.127757 10.9687538,35.5175752 9.26545439,35.5175752" id="Fill-1568" fill="#ADBDC4"></path><path d="M9.26545439,32.0044237 L9.26545439,17.411333 C9.26545439,16.206824 10.5965913,15.4501452 11.6188798,16.0910058 C11.8103659,16.2145452 11.9879537,16.3458058 12.1485549,16.4925088 C12.2103246,16.6392118 12.2929416,16.8399633 12.3539392,16.9866664 L12.3539392,32.4290904 C12.3539392,34.127757 10.9687538,35.5175752 9.26545439,35.5175752 C7.67025199,35.5175752 6.37308838,34.3053449 6.20939868,32.7533813 C6.41632716,32.9695752 6.65645686,33.1626055 6.92438291,33.3324722 C7.9435829,33.9656115 9.26545439,33.2012116 9.26545439,32.0044237" id="Fill-1569" fill="#8BA6B1"></path><path d="M6.17696959,25.2638056 C6.17079262,25.2638056 6.16461565,25.2715268 6.15843868,25.2715268 C5.23189324,25.603539 4.63272719,26.5069208 4.63272719,27.4875147 L4.63272719,32.4290904 C4.63272719,32.6607267 4.66515628,32.8923631 4.71611628,33.1162782 C4.90760234,32.0970782 5.43882173,31.2091389 6.17696959,30.5373934 L6.17696959,25.2638056" id="Fill-1570" fill="#8BA6B1"></path><path d="M12.3539392,25.2638056 C12.3601162,25.2638056 12.3662931,25.2715268 12.3724701,25.2715268 C13.2982434,25.603539 13.8981816,26.5069208 13.8981816,27.4875147 L13.8981816,32.4290904 C13.8981816,32.6607267 13.8657525,32.8923631 13.8147925,33.1162782 C13.6233064,32.0970782 13.092087,31.2091389 12.3539392,30.5373934 L12.3539392,25.2638056" id="Fill-1571" fill="#8BA6B1"></path><path d="M12.3539392,24.1519511 C12.3601162,24.1442299 12.3662931,24.1442299 12.3724701,24.1442299 C13.2982434,23.8122178 13.8981816,22.908836 13.8981816,21.9205208 L13.8981816,16.9866664 C13.8981816,16.7473088 13.8657525,16.5233937 13.8147925,16.2994785 C13.6233064,17.3109573 13.092087,18.2066179 12.3539392,18.8706421 L12.3539392,24.1519511" id="Fill-1572" fill="#8BA6B1"></path><path d="M6.17696959,24.1519511 C6.17079262,24.1442299 6.16461565,24.1442299 6.15843868,24.1442299 C5.23189324,23.8122178 4.63272719,22.908836 4.63272719,21.9205208 L4.63272719,16.9866664 C4.63272719,16.7473088 4.66515628,16.5233937 4.71611628,16.2994785 C4.90760234,17.3109573 5.43882173,18.2066179 6.17696959,18.8706421 L6.17696959,24.1519511" id="Fill-1573" fill="#8BA6B1"></path></g><g id="Azure-Border" stroke="#0078D4" stroke-width="4"><rect x="2" y="2" width="96" height="96" rx="48"></rect></g></g></g></g></svg>