<svg xmlns="http://www.w3.org/2000/svg" viewBox="0 0 100 100"><g transform="translate(2 2)" fill="none" fill-rule="evenodd"><rect fill="#C0DDF4" width="96" height="96" rx="48"/><rect width="96" height="96" rx="48" stroke="#0078D4" stroke-width="4"/><rect fill="#FFF" x="15" y="18" width="66" height="59" rx="7"/><path fill="#4A4A4A" d="M15 18h66v9H15z"/><path d="M42 40a2.89 2.89 0 0 0-.879-2.121A2.89 2.89 0 0 0 39 37a2.89 2.89 0 0 0-2.121.879A2.89 2.89 0 0 0 36 40c0 .828.293 1.535.879 2.121A2.89 2.89 0 0 0 39 43a2.89 2.89 0 0 0 2.121-.879A2.89 2.89 0 0 0 42 40zm6-1.277v2.601a.452.452 0 0 1-.094.27.357.357 0 0 1-.234.152l-2.168.328c-.149.422-.3.778-.457 1.067.273.39.691.93 1.254 1.617a.453.453 0 0 1 .117.293.391.391 0 0 1-.105.27c-.211.288-.598.71-1.16 1.265-.563.555-.93.832-1.102.832a.572.572 0 0 1-.305-.105l-1.617-1.266c-.344.18-.7.328-1.066.445-.125 1.063-.239 1.79-.34 2.18-.055.219-.196.328-.422.328h-2.602a.443.443 0 0 1-.287-.1.347.347 0 0 1-.135-.252l-.328-2.156a7.243 7.243 0 0 1-1.054-.433l-1.653 1.254a.422.422 0 0 1-.293.105.404.404 0 0 1-.293-.129c-.984-.89-1.629-1.547-1.933-1.969a.458.458 0 0 1 .011-.539c.118-.164.317-.424.598-.779.281-.356.492-.63.633-.826a5.798 5.798 0 0 1-.48-1.16l-2.145-.317a.37.37 0 0 1-.246-.146.443.443 0 0 1-.094-.276v-2.601c0-.094.031-.184.094-.27a.353.353 0 0 1 .222-.152l2.18-.328c.11-.36.262-.719.457-1.078-.312-.446-.73-.985-1.254-1.618a.44.44 0 0 1-.117-.28c0-.079.035-.169.106-.27.203-.282.587-.701 1.154-1.26.566-.559.935-.838 1.107-.838.102 0 .203.04.305.117l1.617 1.254c.344-.18.7-.328 1.067-.445.125-1.063.238-1.79.34-2.18.054-.219.195-.328.421-.328h2.602c.11 0 .205.033.287.1.082.066.127.15.135.252l.328 2.156c.383.125.734.27 1.054.433l1.665-1.254a.38.38 0 0 1 .28-.105c.102 0 .2.04.294.117 1.008.93 1.652 1.594 1.933 1.992a.378.378 0 0 1 .082.258.452.452 0 0 1-.093.27c-.118.164-.317.424-.598.779-.281.356-.492.63-.633.826.203.39.363.774.48 1.149l2.145.328a.37.37 0 0 1 .246.146.443.443 0 0 1 .094.276z" fill="#000" fill-rule="nonzero"/><path d="M62 39.5c0-.966-.342-1.791-1.025-2.475A3.372 3.372 0 0 0 58.5 36c-.966 0-1.791.342-2.475 1.025A3.372 3.372 0 0 0 55 39.5c0 .966.342 1.791 1.025 2.475A3.372 3.372 0 0 0 58.5 43c.966 0 1.791-.342 2.475-1.025A3.372 3.372 0 0 0 62 39.5zm7-1.49v3.035c0 .11-.036.214-.11.314a.416.416 0 0 1-.273.178l-2.53.383a8.76 8.76 0 0 1-.532 1.244c.319.456.806 1.085 1.463 1.887.09.11.136.223.136.342a.456.456 0 0 1-.123.314c-.246.337-.697.83-1.353 1.477-.657.647-1.085.97-1.285.97a.668.668 0 0 1-.356-.123l-1.887-1.476a7.8 7.8 0 0 1-1.244.52c-.146 1.239-.278 2.086-.396 2.542-.064.255-.228.383-.492.383h-3.036a.517.517 0 0 1-.335-.116.405.405 0 0 1-.157-.294l-.383-2.516a8.45 8.45 0 0 1-1.23-.506l-1.928 1.463a.492.492 0 0 1-.342.123.471.471 0 0 1-.341-.15c-1.149-1.04-1.9-1.805-2.256-2.297a.535.535 0 0 1 .013-.629c.137-.191.37-.494.698-.91.328-.414.574-.735.738-.963a6.765 6.765 0 0 1-.56-1.353l-2.503-.37a.43.43 0 0 1-.287-.17.517.517 0 0 1-.109-.322v-3.035c0-.11.036-.214.11-.314.072-.1.159-.16.26-.178l2.542-.383c.128-.42.305-.838.533-1.258a31.12 31.12 0 0 0-1.463-1.886.514.514 0 0 1-.136-.329c0-.09.04-.196.123-.314.237-.328.686-.818 1.346-1.47.661-.651 1.092-.977 1.292-.977.119 0 .237.045.356.136l1.887 1.463a7.8 7.8 0 0 1 1.244-.52c.146-1.239.278-2.086.396-2.542.064-.255.228-.383.492-.383h3.036c.127 0 .239.039.335.116a.405.405 0 0 1 .157.294l.383 2.516a8.45 8.45 0 0 1 1.23.506l1.941-1.463a.443.443 0 0 1 .329-.123c.118 0 .232.045.341.136 1.176 1.085 1.928 1.86 2.256 2.325a.441.441 0 0 1 .096.3c0 .11-.037.215-.11.315-.136.191-.369.494-.697.91-.328.414-.574.735-.738.963.237.456.424.902.56 1.34l2.503.383a.43.43 0 0 1 .287.17c.073.096.109.203.109.322z" fill="#565456" fill-rule="nonzero"/><path d="M53 60.5c0-1.242-.44-2.303-1.318-3.182C50.802 56.44 49.742 56 48.5 56s-2.303.44-3.182 1.318C44.44 58.198 44 59.258 44 60.5s.44 2.303 1.318 3.182c.88.879 1.94 1.318 3.182 1.318s2.303-.44 3.182-1.318C52.56 62.802 53 61.742 53 60.5zm9-1.916v3.902c0 .141-.047.276-.14.405a.535.535 0 0 1-.352.228l-3.252.492a11.262 11.262 0 0 1-.686 1.6c.41.586 1.037 1.394 1.881 2.426a.68.68 0 0 1 .176.44.587.587 0 0 1-.158.403c-.317.434-.897 1.067-1.74 1.899-.844.832-1.395 1.248-1.653 1.248a.858.858 0 0 1-.457-.158l-2.426-1.899a10.03 10.03 0 0 1-1.6.668c-.187 1.594-.357 2.684-.509 3.27-.082.328-.293.492-.633.492H46.55a.664.664 0 0 1-.43-.15.52.52 0 0 1-.203-.377l-.492-3.235a10.864 10.864 0 0 1-1.582-.65l-2.479 1.88a.632.632 0 0 1-.44.159.606.606 0 0 1-.439-.193c-1.476-1.336-2.443-2.32-2.9-2.954a.688.688 0 0 1 .018-.808c.175-.246.474-.636.896-1.17.422-.532.738-.945.95-1.238a8.698 8.698 0 0 1-.721-1.74l-3.217-.475a.554.554 0 0 1-.37-.22.665.665 0 0 1-.14-.413v-3.902c0-.141.047-.276.14-.405a.53.53 0 0 1 .335-.228l3.27-.492c.163-.54.392-1.078.685-1.618a40.011 40.011 0 0 0-1.881-2.425.66.66 0 0 1-.176-.422c0-.117.053-.252.158-.404.305-.422.882-1.052 1.732-1.89.85-.838 1.403-1.257 1.66-1.257.153 0 .306.059.458.176l2.426 1.88a10.03 10.03 0 0 1 1.6-.667c.187-1.594.357-2.684.509-3.27.082-.328.293-.492.633-.492h3.902c.164 0 .308.05.43.15.124.099.191.225.203.377l.492 3.235c.574.187 1.102.404 1.582.65l2.496-1.88a.57.57 0 0 1 .422-.159.68.68 0 0 1 .44.176c1.511 1.394 2.478 2.39 2.9 2.988a.567.567 0 0 1 .123.387c0 .14-.047.275-.14.404-.176.246-.475.636-.897 1.17-.422.532-.738.945-.95 1.238.305.586.546 1.16.721 1.723l3.217.492a.554.554 0 0 1 .37.22c.093.123.14.26.14.413z" fill="#9B9B9B" fill-rule="nonzero"/></g></svg>