<svg xmlns="http://www.w3.org/2000/svg" xmlns:xlink="http://www.w3.org/1999/xlink" viewBox="0 0 100 100" version="1.1"><!-- Generator: Sketch 52.4 (67378) - http://www.bohemiancoding.com/sketch --><title>Work with entitlements and service level agreements in Microsoft Dynamics 365 Customer Service/creating-and-managing-entitlements</title><desc>Created with Sketch.</desc><defs><rect id="path-1" x="0" y="0" width="96" height="96" rx="48"></rect><filter x="-6.8%" y="-6.2%" width="113.6%" height="112.5%" filterUnits="objectBoundingBox" id="filter-3"><feOffset dx="0" dy="2" in="SourceAlpha" result="shadowOffsetOuter1"></feOffset><feColorMatrix values="0 0 0 0 0   0 0 0 0 0   0 0 0 0 0  0 0 0 0.0956465127 0" type="matrix" in="shadowOffsetOuter1" result="shadowMatrixOuter1"></feColorMatrix><feMerge><feMergeNode in="shadowMatrixOuter1"></feMergeNode><feMergeNode in="SourceGraphic"></feMergeNode></feMerge></filter></defs><g id="Badges" stroke="none" stroke-width="1" fill="none" fill-rule="evenodd"><g id="Work-with-entitlements-and-service-level-agreements-in-Microsoft-Dynamics-365-Customer-ServiceWork-with-entitlements-and-service-level-agreements-in-Microsoft-Dynamics-365-Customer-Service" transform="translate(-50.000000, -260.000000)"><g id="Work-with-entitlements-and-service-level-agreements-in-Microsoft-Dynamics-365-Customer-Service/creating-and-managing-entitlements" transform="translate(50.000000, 260.000000)"><g id="Mask" transform="translate(2.000000, 2.000000)"><mask id="mask-2" fill="white"><use xlink:href="#path-1"></use></mask><use id="BG" fill="#01B6C3" xlink:href="#path-1"></use><g id="Group-3" filter="url(#filter-3)" mask="url(#mask-2)"><g transform="translate(21.500000, 16.000000)"><path d="M4.002,0 C1.802,0 0.002,1.8 0.002,4 L0.002,60 C0.002,62.2 1.802,64 4.002,64 L42.002,64 C44.203,64 46.002,62.2 46.002,60 L46.002,16 L30.002,0 L4.002,0" id="Fill-1" fill="#E1E4E1"></path><g id="Group" stroke-width="1" fill="none" transform="translate(6.159297, 5.000000)"><polyline id="Fill-1146" fill="#A0A0A0" points="15.5 32 10.5 29 5.5 32 5.5 13 15.5 13 15.5 32"></polyline><polyline id="Fill-1152" fill="#6C6C6C" points="10.5 0 12.658 1.95 15.5 1.339 16.392 4.109 19.162 5 18.551 7.842 20.5 10 18.551 12.158 19.162 15 16.392 15.891 15.5 18.662 12.658 18.049 10.5 20 8.342 18.049 5.5 18.662 4.608 15.891 1.839 15 2.449 12.158 0.5 10 2.449 7.842 1.839 5 4.608 4.109 5.5 1.339 8.342 1.95 10.5 0"></polyline></g><path d="M34.002,16 L46.002,16 L30.002,0 L30.002,12 C30.002,14.2 31.802,16 34.002,16" id="Fill-2" fill="#697D85"></path><path d="M36.002,46 L10.002,46 C8.898,46 8.002,45.104 8.002,44 C8.002,42.896 8.898,42 10.002,42 L36.002,42 C37.107,42 38.002,42.896 38.002,44 C38.002,45.104 37.107,46 36.002,46" id="Fill-7" fill="#C5CCCD"></path><path d="M36.002,55 L10.002,55 C8.898,55 8.002,54.104 8.002,53 C8.002,51.896 8.898,51 10.002,51 L36.002,51 C37.107,51 38.002,51.896 38.002,53 C38.002,54.104 37.107,55 36.002,55" id="Fill-8" fill="#C5CCCD"></path><polyline id="Fill-9" fill="#C5CCCD" points="46.002 28 34.002 16 46.002 16 46.002 28"></polyline><path d="M58.002,51 C58.002,58.179 52.182,64 45.002,64 C37.823,64 32.002,58.179 32.002,51 C32.002,43.821 37.823,38 45.002,38 C52.182,38 58.002,43.821 58.002,51" id="Fill-10" fill="#7CB65A"></path><path d="M50.002,49 C50.001,49 50,49 49.998,49 L47.002,49 L47.002,46 C47.002,44.896 46.107,44 45.002,44 C43.898,44 43.002,44.896 43.002,46 L43.002,49 L40.007,49 C40.005,49 40.004,49 40.002,49 C38.898,49 38.002,49.896 38.002,51 C38.002,52.104 38.898,53 40.002,53 L43.002,53 L43.002,56 C43.003,57.104 43.898,58 45.002,58 C46.107,58 47.002,57.104 47.002,56 L47.002,53 L50.002,53 C51.107,53 52.002,52.104 52.002,51 C52.002,49.896 51.107,49 50.002,49" id="Fill-11" fill="#FFFFFE"></path></g></g></g><g id="Dynamic-Border" stroke="#1D8E96" stroke-width="4"><rect id="Azure-Border" x="2" y="2" width="96" height="96" rx="48"></rect></g></g></g></g></svg>