<?xml version="1.0" encoding="UTF-8" standalone="no"?>
<svg
   xmlns:dc="http://purl.org/dc/elements/1.1/"
   xmlns:cc="http://creativecommons.org/ns#"
   xmlns:rdf="http://www.w3.org/1999/02/22-rdf-syntax-ns#"
   xmlns:svg="http://www.w3.org/2000/svg"
   xmlns="http://www.w3.org/2000/svg"
   xmlns:xlink="http://www.w3.org/1999/xlink"
   xmlns:sodipodi="http://sodipodi.sourceforge.net/DTD/sodipodi-0.dtd"
   xmlns:inkscape="http://www.inkscape.org/namespaces/inkscape"
   id="svg2"
   width="600"
   height="600"
   inkscape:export-ydpi="54"
   inkscape:export-xdpi="54"
   inkscape:export-filename="M:\cheloveki\feather.png"
   version="1.0"
   inkscape:version="0.92.1 r15371"
   sodipodi:version="0.32"
   inkscape:output_extension="org.inkscape.output.svg.inkscape"
   sodipodi:docname="apache.svg"
   viewBox="0 0 562.50002 562.5">
  <defs
     id="defs4">
    <linearGradient
       id="linearGradient3804">
      <stop
         id="stop3806"
         style="stop-color:#ffff00;stop-opacity:1;"
         offset="0" />
      <stop
         id="stop3808"
         style="stop-color:#a8650a;stop-opacity:0;"
         offset="1" />
    </linearGradient>
    <linearGradient
       id="linearGradient3758"
       inkscape:collect="always">
      <stop
         id="stop3760"
         style="stop-color:#000000;stop-opacity:1;"
         offset="0" />
      <stop
         id="stop3762"
         style="stop-color:#000000;stop-opacity:0;"
         offset="1" />
    </linearGradient>
    <linearGradient
       id="linearGradient3725">
      <stop
         id="stop3727"
         style="stop-color:#0000ff;stop-opacity:1;"
         offset="0" />
      <stop
         id="stop3729"
         style="stop-color:#000000;stop-opacity:0"
         offset="1" />
    </linearGradient>
    <linearGradient
       id="linearGradient3715">
      <stop
         id="stop3717"
         style="stop-color:#3700d0;stop-opacity:1;"
         offset="0" />
      <stop
         id="stop3719"
         style="stop-color: rgb(0, 0, 0); stop-opacity: 0;"
         offset="1" />
    </linearGradient>
    <linearGradient
       id="linearGradient3705">
      <stop
         id="stop3707"
         style="stop-color:#ff0000;stop-opacity:0.54639173;"
         offset="0" />
      <stop
         id="stop3709"
         style="stop-color:#ff0067;stop-opacity:0.42268041;"
         offset="1" />
    </linearGradient>
    <linearGradient
       id="linearGradient3693">
      <stop
         id="stop3695"
         style="stop-color:#4700aa;stop-opacity:1;"
         offset="0" />
      <stop
         id="stop3697"
         style="stop-color: rgb(136, 0, 170); stop-opacity: 0;"
         offset="1" />
    </linearGradient>
    <linearGradient
       id="linearGradient3687">
      <stop
         id="stop3689"
         style="stop-color:#cd00ff;stop-opacity:1;"
         offset="0" />
      <stop
         id="stop3691"
         style="stop-color:#ff00ff;stop-opacity:0;"
         offset="1" />
    </linearGradient>
    <linearGradient
       id="linearGradient3681">
      <stop
         id="stop3683"
         style="stop-color:#ffff00;stop-opacity:1;"
         offset="0" />
      <stop
         id="stop3685"
         style="stop-color:#a8650a;stop-opacity:0.45360824;"
         offset="1" />
    </linearGradient>
    <linearGradient
       id="linearGradient3255"
       inkscape:collect="always">
      <stop
         id="stop3257"
         style="stop-color: rgb(6, 46, 5); stop-opacity: 1;"
         offset="0" />
      <stop
         id="stop3259"
         style="stop-color: rgb(6, 46, 5); stop-opacity: 0;"
         offset="1" />
    </linearGradient>
    <linearGradient
       id="linearGradient3238"
       inkscape:collect="always">
      <stop
         id="stop3240"
         style="stop-color: rgb(0, 0, 0); stop-opacity: 1;"
         offset="0" />
      <stop
         id="stop3242"
         style="stop-color: rgb(0, 0, 0); stop-opacity: 0;"
         offset="1" />
    </linearGradient>
    <linearGradient
       id="linearGradient3184">
      <stop
         id="stop3186"
         style="stop-color:#4200d2;stop-opacity:1;"
         offset="0" />
      <stop
         id="stop3188"
         style="stop-color:#d42aff;stop-opacity:0;"
         offset="1" />
    </linearGradient>
    <linearGradient
       id="linearGradient2873"
       gradientUnits="userSpaceOnUse"
       gradientTransform="rotate(3.5460832,1744.9099,387.43887)"
       x1="305.082"
       y1="525.77399"
       x2="211.425"
       y2="392.58401"
       inkscape:collect="always"
       xlink:href="#linearGradient3693" />
    <linearGradient
       id="linearGradient2876"
       gradientUnits="userSpaceOnUse"
       gradientTransform="rotate(3.5460832,1744.9099,387.43887)"
       x1="178.967"
       y1="286.362"
       x2="423.56601"
       y2="433.98599"
       inkscape:collect="always"
       xlink:href="#linearGradient3255" />
    <radialGradient
       id="radialGradient2882"
       gradientUnits="userSpaceOnUse"
       gradientTransform="matrix(-0.750334,0.650786,-0.0500223,-0.0576742,698.66,31.0001)"
       cx="265.33701"
       cy="112.915"
       r="387.202"
       fx="265.33701"
       fy="112.915"
       inkscape:collect="always"
       xlink:href="#linearGradient3184" />
    <radialGradient
       id="radialGradient2885"
       gradientUnits="userSpaceOnUse"
       gradientTransform="matrix(-0.527979,0.526192,-0.0538924,-0.0540754,590.227,100.804)"
       cx="532.46503"
       cy="285.888"
       r="387.202"
       fx="550.08398"
       fy="591.35303"
       inkscape:collect="always"
       xlink:href="#linearGradient3184" />
    <radialGradient
       id="radialGradient2888"
       gradientUnits="userSpaceOnUse"
       gradientTransform="matrix(0.999538,-0.0303714,0.0142548,0.469135,-0.373236,106.33)"
       cx="269.14301"
       cy="359.91199"
       r="261.01801"
       fx="269.14301"
       fy="359.91199"
       inkscape:collect="always"
       xlink:href="#linearGradient3705" />
    <linearGradient
       id="linearGradient2890"
       gradientUnits="userSpaceOnUse"
       gradientTransform="rotate(3.5460832,1744.9099,387.43887)"
       x1="647.755"
       y1="795.02197"
       x2="365.51099"
       y2="185.841"
       inkscape:collect="always"
       xlink:href="#linearGradient3238" />
    <radialGradient
       id="radialGradient2894"
       gradientUnits="userSpaceOnUse"
       gradientTransform="matrix(-0.871979,1.15116,-0.206165,-0.156164,1391.21,-417.115)"
       cx="953.099"
       cy="1745.23"
       r="341.543"
       fx="1171.38"
       fy="2532.96"
       inkscape:collect="always"
       xlink:href="#linearGradient3184" />
    <radialGradient
       id="radialGradient2901"
       gradientUnits="userSpaceOnUse"
       gradientTransform="matrix(-0.922872,0.669311,-0.237115,-0.326946,819.081,106.884)"
       cx="358.89499"
       cy="264.81"
       r="341.543"
       fx="366.263"
       fy="365.94901"
       inkscape:collect="always"
       xlink:href="#linearGradient3687" />
    <linearGradient
       id="linearGradient3713"
       gradientUnits="userSpaceOnUse"
       gradientTransform="rotate(3.5460832,1744.9099,387.43887)"
       x1="178.967"
       y1="286.362"
       x2="423.56601"
       y2="433.98599"
       inkscape:collect="always"
       xlink:href="#linearGradient3715" />
    <linearGradient
       id="linearGradient3723"
       gradientUnits="userSpaceOnUse"
       gradientTransform="rotate(3.5460832,1744.9099,387.43887)"
       x1="313.86099"
       y1="372.63"
       x2="380.47101"
       y2="424.51099"
       inkscape:collect="always"
       xlink:href="#linearGradient3725" />
    <linearGradient
       id="linearGradient3764"
       gradientUnits="userSpaceOnUse"
       x1="41.701698"
       y1="372.207"
       x2="607.31"
       y2="372.207"
       inkscape:collect="always"
       xlink:href="#linearGradient3758" />
    <radialGradient
       id="radialGradient3800"
       gradientUnits="userSpaceOnUse"
       gradientTransform="matrix(0.00992337,0.211449,-0.218588,0.0102585,618.085,92.1083)"
       cx="-93.078598"
       cy="-281.508"
       r="341.543"
       fx="111.927"
       fy="171.25999"
       inkscape:collect="always"
       xlink:href="#linearGradient3681" />
    <radialGradient
       id="radialGradient3810"
       gradientUnits="userSpaceOnUse"
       gradientTransform="matrix(0.165717,-0.118095,0.176146,0.247177,618.742,313.198)"
       cx="756.09802"
       cy="-549.38898"
       r="341.543"
       fx="1187.24"
       fy="-507.591"
       inkscape:collect="always"
       xlink:href="#linearGradient3804" />
  </defs>
  <sodipodi:namedview
     id="base"
     inkscape:window-maximized="0"
     inkscape:window-y="287"
     inkscape:window-x="220"
     inkscape:window-height="947"
     inkscape:window-width="1477"
     showgrid="false"
     inkscape:current-layer="layer1"
     inkscape:document-units="px"
     inkscape:cy="371.74565"
     inkscape:cx="427.03934"
     inkscape:zoom="1.4"
     inkscape:pageshadow="2"
     inkscape:pageopacity="0.0"
     objecttolerance="10"
     guidetolerance="10"
     gridtolerance="10000"
     borderopacity="1.0"
     bordercolor="#666666"
     pagecolor="#ffffff" />
  <metadata
     id="metadata7">
    <rdf:rdf>
      <cc:work
         rdf:about="">
        <dc:format>image/svg+xml</dc:format>
        <dc:type
           rdf:resource="http://purl.org/dc/dcmitype/StillImage" />
        <dc:title>feather</dc:title>
        <dc:creator>
          <cc:agent>
            <dc:title>hrum</dc:title>
          </cc:agent>
        </dc:creator>
        <dc:subject>
          <rdf:bag>
            <rdf:li>feather</rdf:li>
            <rdf:li>bird</rdf:li>
          </rdf:bag>
        </dc:subject>
        <cc:license
           rdf:resource="http://creativecommons.org/licenses/publicdomain/" />
      </cc:work>
      <cc:license
         rdf:about="http://creativecommons.org/licenses/publicdomain/">
        <cc:permits
           rdf:resource="http://creativecommons.org/ns#Reproduction" />
        <cc:permits
           rdf:resource="http://creativecommons.org/ns#Distribution" />
        <cc:permits
           rdf:resource="http://creativecommons.org/ns#DerivativeWorks" />
      </cc:license>
    </rdf:rdf>
    <rdf:RDF>
      <cc:Work
         rdf:about="">
        <dc:format>image/svg+xml</dc:format>
        <dc:type
           rdf:resource="http://purl.org/dc/dcmitype/StillImage" />
        <dc:title />
      </cc:Work>
    </rdf:RDF>
  </metadata>
  <g
     id="layer1"
     transform="translate(-41.7017,-75.040478)"
     inkscape:groupmode="layer"
     inkscape:label="Layer 1">
    <g
       id="g4360"
       transform="matrix(0.69316981,0,0,0.69316981,57.555609,144.99453)">
      <path
         id="path2383"
         style="display:inline;overflow:visible;visibility:visible;fill:url(#radialGradient2901);fill-opacity:1;fill-rule:nonzero;stroke:none;stroke-width:0.5;stroke-opacity:1;marker:none"
         d="m 663.922,164.582 c 1.94331,-1.82469 3.82202,-3.6688 5.63089,-5.55557 -1.08421,-6.0334 -2.80263,-13.6128 -5.41598,-19.6454 -3.88417,-8.96605 -21.9625,-22.6495 -30.7554,-28.9321 3.289,2.28901 10.6568,7.40102 24.6812,17.2222 9.08967,6.36547 15.7107,15.0391 19.8893,21.6601 20.3011,-25.9081 27.9978,-58.0086 14.9139,-102.277 -6.01749,-7.55602 -26.9562,-6.22768 -56.552,1.94362 -2.58645,6.4454 -5.70716,14.1636 -8.40054,20.6854 -5.73136,13.8781 -8.22229,19.4981 -8.22229,19.4981 10e-6,0 4.61437,-22.9998 6.08807,-37.0716 C 543.728,77.4132 407.675,147.447 327.346,225.971 153.1,396.303 138.57,453.805 162.978,480.161 c 116.799,-45.184 102.527,25.28 268.194,-140.612 74.4,-74.501 174.867,-120.617 232.75,-174.967 z"
         sodipodi:nodetypes="ccscscccsccscsc"
         inkscape:connector-curvature="0" />
      <path
         id="path3251"
         style="display:inline;overflow:visible;visibility:visible;opacity:1;fill:#000000;fill-opacity:0.92920353;fill-rule:nonzero;stroke:none;stroke-width:0.5;stroke-opacity:1;marker:none"
         d="m 182.906,471.902 c 0,0 93.3531,-111.711 193.772,-197.525 89.707,-76.594 213.923,-159.559 213.923,-159.559 0,0 -95.3055,54.5738 -138.594,86.5263 -44.5371,32.874 -99.7835,68.5554 -150.869,124.922 -51.0856,56.3661 -109.969,112.984 -109.969,112.984 l -30.2675,35.9898 c 0,0 20.4706,-1.40696 22.0039,-3.33685 z"
         sodipodi:nodetypes="cscssccc"
         inkscape:connector-curvature="0" />
      <path
         id="path3194"
         style="display:inline;overflow:visible;visibility:visible;fill:url(#radialGradient2894);fill-opacity:1;fill-rule:nonzero;stroke:none;stroke-width:0.5;stroke-opacity:1;marker:none"
         d="m 663.922,164.582 c 1.94331,-1.82469 3.82202,-3.6688 5.63089,-5.55557 -1.08421,-6.0334 -2.80263,-13.6128 -5.41598,-19.6454 -3.88417,-8.96605 -21.9625,-22.6495 -30.7554,-28.9321 3.289,2.28901 10.6568,7.40102 24.6812,17.2222 9.08967,6.36547 15.7107,15.0391 19.8893,21.6601 20.3011,-25.9081 27.9978,-58.0086 14.9139,-102.277 -6.01749,-7.55602 -26.9562,-6.22768 -56.552,1.94362 -2.58645,6.4454 -5.70716,14.1636 -8.40054,20.6854 -5.73136,13.8781 -8.22229,19.4981 -8.22229,19.4981 10e-6,0 4.61437,-22.9998 6.08807,-37.0716 C 543.728,77.4132 407.675,147.447 327.346,225.971 153.1,396.303 138.57,453.805 162.978,480.161 c 116.799,-45.184 102.527,25.28 268.194,-140.612 74.4,-74.501 174.867,-120.617 232.75,-174.967 z"
         sodipodi:nodetypes="ccscscccsccscsc"
         inkscape:connector-curvature="0" />
      <path
         id="path3182"
         style="display:inline;overflow:visible;visibility:visible;fill:url(#radialGradient3800);fill-opacity:1;fill-rule:nonzero;stroke:none;stroke-width:0.5;stroke-opacity:1;marker:none"
         d="m 663.922,164.582 c 1.94331,-1.82469 3.82202,-3.6688 5.63089,-5.55557 -1.08421,-6.0334 -2.80263,-13.6128 -5.41598,-19.6454 -3.88417,-8.96605 -21.9625,-22.6495 -30.7554,-28.9321 3.289,2.28901 10.6568,7.40102 24.6812,17.2222 9.08967,6.36547 15.7107,15.0391 19.8893,21.6601 20.3011,-25.9081 27.9978,-58.0086 14.9139,-102.277 -6.01749,-7.55602 -26.9562,-6.22768 -56.552,1.94362 -2.58645,6.4454 -5.70716,14.1636 -8.40054,20.6854 -5.73136,13.8781 -8.22229,19.4981 -8.22229,19.4981 10e-6,0 4.61437,-22.9998 6.08807,-37.0716 C 543.728,77.4132 407.675,147.447 327.346,225.971 153.1,396.303 138.57,453.805 162.978,480.161 c 116.799,-45.184 102.527,25.28 268.194,-140.612 74.4,-74.501 174.867,-120.617 232.75,-174.967 z"
         sodipodi:nodetypes="ccscscccsccscsc"
         inkscape:connector-curvature="0" />
      <path
         id="path2386"
         style="display:inline;overflow:visible;visibility:visible;opacity:0.84549357;fill:#000000;fill-opacity:1;fill-rule:nonzero;stroke:none;stroke-width:0.5;stroke-opacity:1;marker:none"
         d="m 607.228,106.873 c 0,0 -156.239,80.4173 -314.667,237.268 C 134.131,500.992 83.3057,596.367 83.3057,596.367 l -39.8313,41.1733 -1.77275,-1.66947 c 0,0 96.4237,-164.621 208.96,-270.653 243.1,-229.024 360.215,-257.831 356.565,-258.346 z"
         sodipodi:nodetypes="cscccsc"
         inkscape:connector-curvature="0" />
      <path
         id="path3226"
         style="display:inline;overflow:visible;visibility:visible;fill:url(#radialGradient2888);fill-opacity:1;fill-rule:nonzero;stroke:url(#linearGradient2890);stroke-width:1.99999928;stroke-linecap:butt;stroke-linejoin:round;stroke-miterlimit:4;stroke-dasharray:none;stroke-dashoffset:68;stroke-opacity:1;marker:none"
         d="m 173.446,476.805 c 26.3676,-9.95441 55.32,-16.77 82.7875,-18.3993 15.4899,-0.67946 30.6576,-4.87346 44.486,-11.3355 9.39169,-2.253 15.3098,-11.4161 24.136,-12.7387 12.9672,-9.88632 27.1832,-21.2217 39.1105,-30.6534 11.7755,-11.8279 25.8714,-23.555 38.049,-36.1532 34.3973,-32.5461 67.7537,-66.4686 107.508,-92.8889 27.9839,-20.1217 57.1054,-38.3405 85.6429,-57.6696 16.2947,-9.35397 30.4667,-22.1956 45.9494,-33.2597 11.0485,-10.4181 34.2546,-19.6809 25.3249,-38.2059 -1.4928,-12.0257 -12.712,-17.2132 -19.2547,-25.1275 11.8827,7.05212 21.8378,16.7072 30.7628,27.3526 11.6356,-10.6936 16.3395,-27.4903 20.0977,-42.5165 1.16047,-8.18847 1.3259,-14.9703 1.2263,-21.8096 -0.80345,-6.64255 0.20242,-11.7909 -2.73686,-18.4859 -0.86804,-8.47944 -3.33227,-18.1964 -7.50623,-21.3978 -5.47468,1.09749 -14.7659,-5.04027 -18.8393,-0.222661 -2.54252,-2.2049 -9.39811,-0.433426 -12.9307,0.619762 -6.97402,1.44399 -14.2988,2.84283 -19.5924,5.01083 -6.1864,4.40968 -6.97697,18.8424 -12.9855,26.5659 -2.39072,14.9802 -5.49799,5.18695 -1.62591,-2.10286 1.13417,-9.46237 0.75081,-12.5506 3.30586,-20.7242 -4.81231,1.37232 -11.7096,4.07901 -19.1785,4.61842 -10.3041,6.78918 -24.469,9.67304 -35.8493,14.7945 -15.5507,6.74244 -31.342,14.5757 -47.0217,21.7207 -10.433,7.225649 -22.8361,10.036399 -33.1692,16.938299 -8.00219,5.74173 -16.8941,8.57186 -24.3763,13.9211 -7.23978,4.04983 -14.9706,8.38492 -18.2629,11.8958 -4.27157,0.30847 -6.89664,2.5028 -9.86033,4.73539 -7.46225,2.31744 -12.387,8.90419 -19.0614,11.822 -7.6622,7.2692 -18.6214,10.3568 -25.9054,17.7752 -14.4067,11.2971 -31.38,23.0167 -45.6475,36.19 -16.2534,14.3119 -31.377,29.3377 -46.922,44.332 -7.41021,11.1162 -19.4069,17.3201 -26.3726,27.8672 -8.43478,8.14094 -13.35,17.1549 -22.334,23.676 -4.80937,10.632 -14.4863,11.5753 -16.7938,19.7808 -6.5017,5.03775 -11.3368,12.4583 -17.3135,19.6037 -12.524,15.047 -26.5041,31.3501 -37.3628,49.1689 -13.871,21.3813 -28.7155,46.4721 -25.139,72.9863 M 675.219,42.0833 l 0.16337,0.466798 z m 14.7769,2.04288 0.0216,0.365518 z m -0.4458,1.13084 -0.10493,-0.138666 z m 1.69806,0.387018 c 1.14625,1.02622 -1.14832,0.06726 0,0 z m -44.9114,1.72547 c 1.20793,0.998544 -1.13369,-0.576193 0,0 z m -0.80321,-0.175015 -0.2933,0.168342 z m -25.0729,39.3057 c -0.004,3.69708 -2.63384,2.31563 0,0 z m 18.6467,28.520397 0.31303,0.15941 z m 1.56557,0.50404 c 16.3879,10.2991 -2.99858,0.19145 0,0 z m 4.88711,3.99743 0.0509,-0.12773 z m 0.78968,0.39334 -0.13017,0.0529 z m 0.23213,0.29618 -0.36027,0.15548 z m 1.84927,2.49415 0.17385,0.20725 z m 29.5343,26.1268 0.24903,0.14117 z m 0.23406,0.26499 0.14066,0.0982 z m -34.8088,33.7241 0.0195,-0.0976 z m -5.02723,3.82137 0.11644,0.26928 z m -14.4684,10.1558 0.44497,-0.0315 z m -18.6498,13.466 -0.14032,-0.002 z m -8.97959,5.45505 -0.22585,-0.0968 z m -318.029,59.8503 -0.12902,-0.011 z m -14.9355,15.1678 0.0602,-0.0444 z m -13.1728,16.0284 c 1.46393,1.74448 -1.55796,0.14668 0,0 z m -11.807,11.1661 -0.2745,-0.081 z m 0.78994,0.89432 c -0.22486,1.76639 -1.58416,-1.05025 0,0 z m -2.38265,2.57631 c 1.41862,2.19006 -1.858,1.49743 0,0 z m -2.22698,2.085 0.0793,-0.0692 z m -4.903,2.82715 0.24084,0.40943 z m -3.25246,5.49686 0.26279,0.12626 z m -5.31462,5.93264 0.0115,0.14974 z m -1.76992,3.80406 -0.60506,0.34099 z m -3.16302,5.06405 0.0344,0.14424 z m -3.57035,1.5321 0.0288,0.0606 z m -2.45997,3.82392 0.0907,0.0891 z m -1.97192,1.50592 0.21092,0.27118 z m 195.302,13.7936 0.0594,-0.0213 z m -15.8891,14.3885 -0.18953,0.15335 z m -2.98081,3.13413 0.0833,0.003 z m -3.83454,3.26909 0.22291,-0.17482 z m -16.6835,16.0927 0.066,0.0242 z m -5.15919,4.94035 0.0308,-0.49622 z m -1.58297,-0.22333 -0.14073,0.0862 z m -11.1864,8.73106 0.25634,0.0408 z m -6.13628,4.03444 0.20704,0.16677 z m -0.15129,1.43088 0.002,0.17443 z m 0.0336,0.97269 0.20766,-0.0978 z m -2.09448,1.96797 0.0435,0.17383 z m -2.38758,0.63479 -0.0307,0.1594 z m 0.45045,0.3097 -0.16471,0.2956 z m 0.70578,0.2316 -0.0372,-0.11736 z m -0.3351,0.35495 0.11279,0.24633 z m -9.7922,5.93696 -0.0382,0.22823 z m -3.06797,0.4987 -0.0732,0.0419 z m 0.94204,0.96636 0.26565,0.0627 z m 0.618,0.13218 0.0608,-0.0443 z m -4.68981,0.39824 0.26179,-0.18091 z m 3.14441,0.28874 0.0514,0.25324 z m -3.64678,0.74462 -0.15402,-0.0408 z m 0.26331,0.2981 0.0478,0.1836 z m -2.132,1.05766 0.0904,-0.081 z m -4.24959,-0.13811 0.0693,0.10449 z m 0.46619,0.56116 0.0749,0.1313 z m -1.02743,3.44304 0.12263,-0.12934 z m 0.58295,0.19268 0.008,0.0754 z m -1.48113,0.65965 -0.26796,0.325 z m 0.75875,0.89239 -0.0877,-0.38976 z m -6.81799,1.39347 -0.22586,-0.3548 z m -5.47768,3.51167 0.0806,-0.16484 z m -1.1637,0.0844 -0.0608,0.23478 z m -0.0367,0.59261 -0.0213,0.0896 z m -4.32717,0.60853 0.22968,-0.0538 z m -0.3097,0.45045 0.0606,-0.0763 z m -3.98602,0.66098 0.22566,0.0451 z m -0.60008,0.58901 0.12385,0.0979 z m -0.0659,0.55949 0.26723,-0.29464 z m -6.85611,3.01922 -0.006,0.0484 z m -16.1886,1.03194 0.002,0.1017 z m -4.18282,0.80533 0.0595,0.0763 z"
         inkscape:connector-curvature="0" />
      <path
         id="path2394"
         style="display:inline;overflow:visible;visibility:visible;opacity:0.6781116;fill:url(#radialGradient2885);fill-opacity:1;fill-rule:nonzero;stroke:none;stroke-width:0.5;marker:none"
         d="m 607.228,106.873 c 0,0 -156.239,80.4173 -314.667,237.268 C 134.131,500.992 83.3057,596.367 83.3057,596.367 l -39.8313,41.1733 -1.77275,-1.66947 c 0,0 96.4237,-164.621 208.96,-270.653 243.1,-229.024 360.215,-257.831 356.565,-258.346 z"
         sodipodi:nodetypes="cscccsc"
         inkscape:connector-curvature="0" />
      <path
         id="path3711"
         style="display:inline;overflow:visible;visibility:visible;opacity:0.78540775;fill:url(#linearGradient3713);fill-opacity:1;fill-rule:nonzero;stroke:none;stroke-width:0.5;stroke-opacity:1;marker:none"
         d="m 182.914,474.232 c 0,0 50.3975,-17.495 87.6595,-38.095 37.262,-20.6 39.5481,-17.1651 50.213,-27.9587 10.6648,-10.7936 26.6493,-21.4008 26.6493,-21.4008 l -25.4265,-14.462 31.8587,10.1356 c 0,0 20.9584,-15.5966 31.9061,-30.9546 10.9477,-15.3579 21.4711,-23.8694 31.9945,-32.3809 10.5234,-8.51149 13.2073,-11.4952 13.2073,-11.4952 l -32.1228,-19.3156 34.2048,15.2924 c 0,0 15.188,-8.50879 28.1272,-23.7433 12.9392,-15.2345 41.8403,-46.0889 48.31,-53.7062 6.46961,-7.61725 35.6947,-27.5698 54.3257,-37.8698 18.631,-10.3 39.3242,-21.6176 51.6978,-27.7235 12.3735,-6.10593 34.1598,-18.9308 34.1598,-18.9308 l -7.44757,-16.9274 -10.7442,-12.1203 c 0,0 2.62109,-12.7239 7.04217,-14.1681 4.42107,-1.44421 39.1258,-13.039 43.3918,-17.3564 4.26594,-4.31746 11.425,-23.0602 11.425,-23.0602 l -8.39427,-12.4043 -42.2664,31.458 15.6997,-27.5202 -14.476,2.39611 c 0,0 -15.2264,25.2587 -17.5892,31.1259 -2.36279,5.86721 -20.4596,26.3662 -20.4596,26.3662 0,0 -51.0496,25.3296 -57.8158,32.3558 -6.76618,7.02614 -84.3777,65.7892 -96.769,72.1804 -12.3912,6.3912 -51.2235,36.2006 -55.5602,41.6592 -4.33664,5.45852 -68.3354,59.6243 -68.3354,59.6243 l -53.2024,54.6916 -62.2341,66.016 -42.6063,42.3187 13.5775,-4.02677 z"
         sodipodi:nodetypes="csscccsscccsssscccsscccccscsssccccc"
         inkscape:connector-curvature="0" />
      <path
         id="path3198"
         style="display:inline;overflow:visible;visibility:visible;opacity:0.75536481;fill:url(#radialGradient2882);fill-opacity:1;fill-rule:nonzero;stroke:none;stroke-width:0.5;marker:none"
         d="m 607.228,106.873 c 0,0 -156.239,80.4173 -314.667,237.268 C 134.131,500.992 83.3057,596.367 83.3057,596.367 l -39.8313,41.1733 -1.77275,-1.66947 c 0,0 96.4237,-164.621 208.96,-270.653 243.1,-229.024 360.215,-257.831 356.565,-258.346 z"
         sodipodi:nodetypes="cscccsc"
         inkscape:connector-curvature="0" />
      <path
         id="path3216"
         style="display:inline;overflow:visible;visibility:visible;fill:url(#linearGradient3764);fill-opacity:1;fill-rule:nonzero;stroke:none;stroke-width:0.5;marker:none"
         d="m 607.228,106.873 c 0,0 -156.239,80.4173 -314.667,237.268 C 134.131,500.992 83.3057,596.367 83.3057,596.367 l -39.8313,41.1733 -1.77275,-1.66947 c 0,0 96.4237,-164.621 208.96,-270.653 243.1,-229.024 360.215,-257.831 356.565,-258.346 z"
         sodipodi:nodetypes="cscccsc"
         inkscape:connector-curvature="0" />
      <path
         id="path3253"
         style="display:inline;overflow:visible;visibility:visible;opacity:0.72177399;fill:url(#linearGradient2876);fill-opacity:1;fill-rule:nonzero;stroke:none;stroke-width:0.5;marker:none"
         d="m 182.914,474.232 c 0,0 50.3975,-17.495 87.6595,-38.095 37.262,-20.6 39.5481,-17.1651 50.213,-27.9587 10.6648,-10.7936 26.6493,-21.4008 26.6493,-21.4008 l -25.4265,-14.462 31.8587,10.1356 c 0,0 20.9584,-15.5966 31.9061,-30.9546 10.9477,-15.3579 21.4711,-23.8694 31.9945,-32.3809 10.5234,-8.51149 13.2073,-11.4952 13.2073,-11.4952 l -32.1228,-19.3156 34.2048,15.2924 c 0,0 15.188,-8.50879 28.1272,-23.7433 12.9392,-15.2345 41.8403,-46.0889 48.31,-53.7062 6.46961,-7.61725 35.6947,-27.5698 54.3257,-37.8698 18.631,-10.3 39.3242,-21.6176 51.6978,-27.7235 12.3735,-6.10593 34.1598,-18.9308 34.1598,-18.9308 l -7.44757,-16.9274 -10.7442,-12.1203 c 0,0 2.62109,-12.7239 7.04217,-14.1681 4.42107,-1.44421 39.1258,-13.039 43.3918,-17.3564 4.26594,-4.31746 11.425,-23.0602 11.425,-23.0602 l -8.39427,-12.4043 -42.2664,31.458 15.6997,-27.5202 -14.476,2.39611 c 0,0 -15.2264,25.2587 -17.5892,31.1259 -2.36279,5.86721 -20.4596,26.3662 -20.4596,26.3662 0,0 -51.0496,25.3296 -57.8158,32.3558 -6.76618,7.02614 -84.3777,65.7892 -96.769,72.1804 -12.3912,6.3912 -51.2235,36.2006 -55.5602,41.6592 -4.33664,5.45852 -68.3354,59.6243 -68.3354,59.6243 l -53.2024,54.6916 -62.2341,66.016 -42.6063,42.3187 13.5775,-4.02677 z"
         sodipodi:nodetypes="csscccsscccsssscccsscccccscsssccccc"
         inkscape:connector-curvature="0" />
      <path
         id="path3263"
         style="display:inline;overflow:visible;visibility:visible;opacity:1;fill:url(#linearGradient2873);fill-opacity:1;fill-rule:nonzero;stroke:none;stroke-width:0.5;marker:none"
         d="m 159.666,464.875 c 0,0 128.31,-129.503 166.562,-166.078 38.252,-36.5749 143.122,-113.122 143.122,-113.122 0,0 90.8728,-60.3754 96.9182,-61.1462 6.04534,-0.77083 33.4763,-15.9664 33.4763,-15.9664 l 11.7539,-6.86024 c 0,0 1.77268,-23.2288 0.99301,-32.1543 -0.77967,-8.92558 -21.2117,3.55369 -21.2117,3.55369 l -8.38557,11.6508 -4.69402,-7.59316 c 0,0 -64.6585,24.4863 -84.4974,38.1478 -19.8389,13.6615 -22.6682,24.368 -22.6682,24.368 l -5.04285,27.6079 c 0,0 -0.9525,-11.5135 -2.4137,-20.195 -1.4612,-8.68146 3.53045,-13.9562 3.53045,-13.9562 0,0 -41.4504,26.354 -51.903,33.7244 -10.4527,7.37042 -30.38,22.4582 -30.38,22.4582 l -0.52744,16.5764 4.52212,15.7438 c 0,0 -10.211,-12.66 -9.62763,-22.0739 0.58338,-9.41384 -73.3653,57.4512 -73.3653,57.4512 l 8.37064,20.8505 -14.2874,-16.7785 c 0,0 -54.4585,64.207 -59.6318,67.0364 -5.1733,2.8294 -14.6214,10.1189 -14.6214,10.1189 l 17.9778,10.9936 -22.9273,-3.71171 c 0,0 -71.8345,78.4506 -61.0413,119.354 z"
         inkscape:connector-curvature="0" />
      <path
         id="path3721"
         style="display:inline;overflow:visible;visibility:visible;opacity:0.69527893;fill:url(#linearGradient3723);fill-opacity:1;fill-rule:nonzero;stroke:none;stroke-width:0.5;marker:none"
         d="m 182.914,474.232 c 0,0 50.3975,-17.495 87.6595,-38.095 37.262,-20.6 39.5481,-17.1651 50.213,-27.9587 10.6648,-10.7936 26.6493,-21.4008 26.6493,-21.4008 l -25.4265,-14.462 31.8587,10.1356 c 0,0 20.9584,-15.5966 31.9061,-30.9546 10.9477,-15.3579 21.4711,-23.8694 31.9945,-32.3809 10.5234,-8.51149 13.2073,-11.4952 13.2073,-11.4952 l -32.1228,-19.3156 34.2048,15.2924 c 0,0 15.188,-8.50879 28.1272,-23.7433 12.9392,-15.2345 41.8403,-46.0889 48.31,-53.7062 6.46961,-7.61725 35.6947,-27.5698 54.3257,-37.8698 18.631,-10.3 39.3242,-21.6176 51.6978,-27.7235 12.3735,-6.10593 34.1598,-18.9308 34.1598,-18.9308 l -7.44757,-16.9274 -10.7442,-12.1203 c 0,0 2.62109,-12.7239 7.04217,-14.1681 4.42107,-1.44421 39.1258,-13.039 43.3918,-17.3564 4.26594,-4.31746 11.425,-23.0602 11.425,-23.0602 l -8.39427,-12.4043 -42.2664,31.458 15.6997,-27.5202 -14.476,2.39611 c 0,0 -15.2264,25.2587 -17.5892,31.1259 -2.36279,5.86721 -20.4596,26.3662 -20.4596,26.3662 0,0 -51.0496,25.3296 -57.8158,32.3558 -6.76618,7.02614 -84.3777,65.7892 -96.769,72.1804 -12.3912,6.3912 -51.2235,36.2006 -55.5602,41.6592 -4.33664,5.45852 -68.3354,59.6243 -68.3354,59.6243 l -53.2024,54.6916 -62.2341,66.016 -42.6063,42.3187 13.5775,-4.02677 z"
         sodipodi:nodetypes="csscccsscccsssscccsscccccscsssccccc"
         inkscape:connector-curvature="0" />
      <path
         id="path3802"
         style="display:inline;overflow:visible;visibility:visible;fill:url(#radialGradient3810);fill-opacity:1;fill-rule:nonzero;stroke:none;stroke-width:0.5;stroke-opacity:1;marker:none"
         d="m 663.922,164.582 c 1.94331,-1.82469 3.82202,-3.6688 5.63089,-5.55557 -1.08421,-6.0334 -2.80263,-13.6128 -5.41598,-19.6454 -3.88417,-8.96605 -21.9625,-22.6495 -30.7554,-28.9321 3.289,2.28901 10.6568,7.40102 24.6812,17.2222 9.08967,6.36547 15.7107,15.0391 19.8893,21.6601 20.3011,-25.9081 27.9978,-58.0086 14.9139,-102.277 -6.01749,-7.55602 -26.9562,-6.22768 -56.552,1.94362 -2.58645,6.4454 -5.70716,14.1636 -8.40054,20.6854 -5.73136,13.8781 -8.22229,19.4981 -8.22229,19.4981 10e-6,0 4.61437,-22.9998 6.08807,-37.0716 C 543.728,77.4132 407.675,147.447 327.346,225.971 153.1,396.303 138.57,453.805 162.978,480.161 c 116.799,-45.184 102.527,25.28 268.194,-140.612 74.4,-74.501 174.867,-120.617 232.75,-174.967 z"
         sodipodi:nodetypes="ccscscccsccscsc"
         inkscape:connector-curvature="0" />
    </g>
  </g>
</svg>
