<svg id="Layer_1" data-name="Layer 1" xmlns="http://www.w3.org/2000/svg" viewBox="0 0 80 80"><defs><style>.cls-2{fill:#073551}</style></defs><g id="use4193"><text transform="translate(23)" font-size="21" fill="#f9ed32" font-family="MyriadPro-Regular,Myriad Pro" id="Names">cURL</text></g><g id="use4187"><path id="path4174" class="cls-2" d="M45.72 47.29h2c.91 0 1.86.2 1.86 1.36S48.54 50 47.75 50h-6.89c-.79 0-1.86-.17-1.86-1.35s1-1.36 1.86-1.36H43V31.9h-2.14c-.79 0-1.86-.17-1.86-1.36s1-1.35 1.86-1.35h2.85c1.55 0 2 .28 2 1.89z"/><path id="path4171" class="cls-2" d="M28.45 37.76c0-.91.11-1.85 1.25-1.85 1 0 1.26.84 1.26 1.67v1l2-1.62a3.77 3.77 0 012.22-1.07h2a3.31 3.31 0 012.46 1 3.68 3.68 0 011.12 2.85c0 .86-.16 1.75-1.23 1.75-.91 0-1.28-.73-1.28-1.54a1.64 1.64 0 00-.26-1.1c-.31-.45-.91-.45-1.52-.45h-.73a1.94 1.94 0 00-1.25.6L31 41.91v6.35c0 .86-.18 1.73-1.26 1.73s-1.25-.86-1.25-1.73z"/><path id="path4168" class="cls-2" d="M26.29 48.15c0 .57.11 1.85-1.23 1.85-1.07 0-1.25-.89-1.25-1.75v-.42l-2 1.34a4.14 4.14 0 01-2.21.83h-1.86a3.5 3.5 0 01-2.33-.91c-1.12-1-1.1-2-1.15-3.4l-.26-7.9c0-.91.11-1.88 1.25-1.88s1.2.91 1.23 1.73l.26 7.71A4.2 4.2 0 0017 47a1.76 1.76 0 001.46.52h.84a1.38 1.38 0 00.78-.23l3.69-2.33v-7.33c0-.86.18-1.73 1.26-1.73s1.25.86 1.25 1.73z"/><path id="path4165" class="cls-2" d="M0 41.74a3.55 3.55 0 011.49-3.3l1.86-1.54a4 4 0 013.24-1h4c.84 0 1.73.18 1.73 1.25s-1 1.26-1.73 1.26H6.15A2.38 2.38 0 004.7 39l-1.51 1.33c-.39.32-.68.58-.68 1.07v3.11c0 .5.29.76.68 1.07l1.51 1.28a2.36 2.36 0 001.44.63h4.42c.73 0 1.73.16 1.73 1.26S11.4 50 10.56 50h-4a4 4 0 01-3.24-1l-1.83-1.54A3.54 3.54 0 010 44.17z"/><path class="cls-2" d="M52 32a2 2 0 102 2 2 2 0 00-2-2zm0 3a1 1 0 111-1 1 1 0 01-1 1zm0 4a2 2 0 102 2 2 2 0 00-2-2zm0 3a1 1 0 111-1 1 1 0 01-1 1z"/><path class="cls-2" d="M67.26 29.68a1.13 1.13 0 111.13-1.13 1.13 1.13 0 01-1.13 1.13M56 49.06a1.13 1.13 0 111.13-1.13A1.13 1.13 0 0156 49.06m11.26-22.59a2.08 2.08 0 00-2.08 2.08 2 2 0 00.14.69l-9.73 16.69a2 2 0 00-1.66 2 2.08 2.08 0 004.15 0 2 2 0 00-.13-.65l9.79-16.75a2 2 0 001.61-2 2.08 2.08 0 00-2.08-2.08" id="path4179"/><path d="M76.26 29.68a1.13 1.13 0 111.13-1.13 1.13 1.13 0 01-1.13 1.13M65 49.06a1.13 1.13 0 111.13-1.13A1.13 1.13 0 0165 49.06m11.26-22.59a2.08 2.08 0 00-2.08 2.08 2 2 0 00.14.69l-9.73 16.69a2 2 0 00-1.66 2 2.08 2.08 0 004.15 0 2 2 0 00-.13-.65l9.79-16.75a2 2 0 001.61-2 2.08 2.08 0 00-2.08-2.08" fill="#0c544c" id="path4179-2" data-name="path4179"/></g></svg>