<svg xmlns="http://www.w3.org/2000/svg" viewBox="0 0 180 180"><path fill="#F0D6B7" d="M134.956 141.674l-15.632 2.345-21.104 2.345-13.679.39-13.286-.39-10.161-3.127-8.989-9.77-7.035-19.93-1.562-4.3-9.38-3.126-5.47-8.989-3.91-12.897 4.3-11.334 10.16-3.517 8.206 3.908 3.909 8.598 4.69-.783 1.562-1.953-1.562-8.989-.392-11.334 2.345-15.631-.091-8.929L65 22.87l12.506-8.989 21.885-9.379L123.62 8.02l21.104 15.241 9.771 15.631 6.252 11.334 1.563 28.138-4.69 24.23-8.598 21.493-8.206 11.334"/><path fill="#335061" d="M121.668 209.281l-55.887 2.345v9.379l4.69 32.828-2.345 2.736-39.08-13.288-2.736-4.69-3.907-44.16-8.988-26.575-1.955-6.252 31.265-21.493 9.771-3.909 8.598 10.552 7.425 6.644 8.598 2.735 3.908 1.172 4.687 20.321 3.518 4.299 8.989-3.126-6.254 12.116 34 16.023-4.297 2.343"/><path fill="#6D6B6D" d="M29.047 72.891l10.16-3.517 8.207 3.909 3.908 8.597 4.69-.782 1.173-4.69-2.345-8.988 2.345-21.495-1.955-11.724 7.035-8.206L77.506 13.88l-4.299-5.863L51.714 18.57l-8.989 7.035-5.08 10.942-7.816 10.552-2.345 12.506 1.563 13.287"/><path fill="#DCD9D8" d="M45.069 36.156s5.862-14.458 29.31-21.493S75.55 9.58 75.55 9.58l-25.4 9.773-9.771 9.77-4.298 7.816 8.988-.783m-11.724 34S25.139 42.8 56.403 38.891l-1.173-4.69-21.494 5.082-6.253 20.32 1.563 13.288 4.299-2.735"/><path fill="#F7E4CD" d="M45.851 106.501l5.118-4.957s2.31.269 2.7 3.004c.39 2.736 1.562 27.357 18.367 40.644 1.533 1.213-12.505-1.955-12.505-1.955l-12.507-19.54m70.737-24.621s.912-11.846 4.102-10.935c3.19.911 3.19 4.101 3.19 4.101s-7.748 5.013-7.292 6.834m32.435-43.378s-6.441 1.36-7.035 7.035c-.594 5.676 7.035 1.172 8.206.782m-48.458-7.426S94.31 57.26 94.31 62.73c0 5.471 9.771 5.081 12.506 2.736M49.759 81.49s-14.851-8.989-16.414-.39c-1.562 8.598-5.081 14.851 2.345 23.839l-5.08-1.563-4.69-12.115-1.562-11.723 8.987-9.38 10.161.782 5.863 4.69.39 5.86m7.035-24.62s6.644-34.39 40.254-41.034c27.67-5.469 42.206 1.173 47.677 7.425 0 0-24.62-29.309-48.069-20.321-23.448 8.989-40.642 25.402-40.252 35.952.665 17.97.39 17.978.39 17.978m90.667-29.703s-11.332-.39-11.724 9.772c0 0 0 1.562.782 3.126 0 0 8.99-10.161 14.46-4.69"/><path fill="#F7E4CD" d="M97.835 41.123s-1.951-15.597-15.249-6.53c-8.597 5.863-7.815 14.07-6.252 15.632 1.562 1.564 1.137 4.713 2.327 2.551 1.189-2.161.798-9.195 5.098-11.148 4.298-1.954 11.346-4.137 14.076-.505"/><path fill="#49728B" d="M61.093 146.754l-36.736 16.414S39.6 223.741 31.784 242.5l-5.472-1.954-.391-23.057-10.16-43.77-4.3-12.116 38.299-25.792 11.334 10.942m3.776 33.504l5.211 6.36v23.448h-6.253s-.782-16.414-.782-18.369c0-1.954.782-8.989.782-8.989M65 213.582l-17.586.78 5.081 3.518L65 219.834"/><path fill="#335061" d="M125.185 209.674l14.459-.391 3.517 35.955-14.851 1.953-3.125-37.517"/><path fill="#335061" d="M129.093 209.674l21.885-1.173s8.987-22.666 8.987-23.839 7.816-32.827 7.816-32.827l-17.586-18.368-3.518-3.126-9.378 9.379v36.345l-8.207 33.609"/><path fill="#49728B" d="M138.863 206.938l-13.678 2.735 1.954 10.943c5.08 2.345 13.679-3.909 13.679-3.909m-1.564-78.159l27.356 20.32.782-9.378-20.712-19.149-7.426 8.206"/><path fill="#FFF" d="M78.563 286.665l-8.092-32.833-4.024-24.225-.665-17.98 36.62-1.95 22.783-.004-2.071 41.037 3.517 31.655-.39 5.863-29.7 2.345-17.979-3.908"/><path fill="#DCD9D8" d="M120.104 209.282s-1.954 40.644 3.908 69.563c0 0-11.723 7.426-28.92 9.379l32.828-1.173 3.907-2.345-4.69-64.091-1.172-13.68"/><path fill="#FFF" d="M143.827 242.114l15.242-4.299 28.919-1.563 4.298-13.286-7.816-23.057-8.987-1.173-12.507 3.908-11.998 5.858-6.37-1.168-4.964 1.95"/><path fill="#DCD9D8" d="M143.551 234.294s10.16-4.689 11.724-4.298l-4.298-21.495 5.08-1.954s3.518 20.322 3.518 22.667c0 0 21.884 1.172 23.839 1.172 0 0 4.69-8.989 3.517-18.367l4.299 12.506.39 7.035-6.252 9.379-7.035 1.562-11.724-.391-3.908-5.08-13.678 1.954-4.3 1.563"/><path fill="#FFF" d="M128.195 206.551l-8.598-21.885-8.988-12.897s1.953-5.471 4.69-5.471h8.988l8.598 3.126-.781 14.46-3.909 22.667"/><path fill="#DCD9D8" d="M129.875 199.121s-10.944-21.102-10.944-24.229c0 0 1.954-4.69 4.69-3.517s8.599 4.298 8.599 4.298v-7.425l-13.288-2.737-8.987 1.173 15.241 35.954 3.126.39"/><path fill="#FFF" d="M82.08 147.54l-10.826-1.177-10.162-3.127v3.518l4.966 5.475 15.632 7.035"/><path fill="#DCD9D8" d="M64.611 148.711s12.116 5.081 16.024 3.909l.389 4.685-10.94-2.34-6.644-4.69 1.171-1.564"/><path fill="#D33833" d="M143.785 167.629c-6.631-.195-12.623-.983-17.867-2.463.356-2.15-.312-4.26.224-5.809 1.463-1.052 3.913-1.036 6.123-1.283-1.911-.939-4.596-1.312-6.801-.768-.052-1.492-.722-2.417-1.127-3.585 3.73-1.331 12.53-10.055 17.48-7.166 2.36 1.374 3.362 9.222 3.544 13.039.154 3.165-.286 6.357-1.576 8.035"/><path fill="none" stroke="#D33833" stroke-width="2.5" d="M143.785 167.629c-6.631-.195-12.623-.983-17.867-2.463.356-2.15-.312-4.26.224-5.809 1.463-1.052 3.913-1.036 6.123-1.283-1.911-.939-4.596-1.312-6.801-.768-.052-1.492-.722-2.417-1.127-3.585 3.73-1.331 12.53-10.055 17.48-7.166 2.36 1.374 3.362 9.222 3.544 13.039.154 3.165-.286 6.357-1.576 8.035z"/><path fill="#D33833" d="M112.075 156.789c-.018.501-.039 1.007-.059 1.514-2.07 1.36-5.412 1.343-7.685 2.486 3.35.146 5.986.954 8.268 2.09l-.148 3.79c-3.795 2.597-7.262 6.467-11.73 8.903-2.112 1.153-9.527 4.118-11.775 3.594-1.271-.295-1.386-1.874-1.895-3.361-1.082-3.185-3.576-8.256-3.794-13.051-.277-6.057-.888-16.208 5.64-14.96 5.265 1.005 11.39 3.43 15.467 5.657 2.49 1.363 3.931 3.046 7.711 3.338"/><path fill="none" stroke="#D33833" stroke-width="2.5" d="M112.075 156.789c-.018.501-.039 1.007-.059 1.514-2.07 1.36-5.412 1.343-7.685 2.486 3.35.146 5.986.954 8.268 2.09l-.148 3.79c-3.795 2.597-7.262 6.467-11.73 8.903-2.112 1.153-9.527 4.118-11.775 3.594-1.271-.295-1.386-1.874-1.895-3.361-1.082-3.185-3.576-8.256-3.794-13.051-.277-6.057-.888-16.208 5.64-14.96 5.265 1.005 11.39 3.43 15.467 5.657 2.49 1.363 3.931 3.046 7.711 3.338z"/><path fill="#D33833" d="M115.844 164.015c-.579-3.299-1.249-4.24-.99-7.119 8.8-5.866 10.452 10.076.99 7.119"/><path fill="none" stroke="#D33833" stroke-width="2.5" d="M115.844 164.015c-.579-3.299-1.249-4.24-.99-7.119 8.8-5.866 10.452 10.076.99 7.119z"/><path fill="#EF3D3A" d="M128.585 166.689s-2.736-3.909-.783-5.081c1.955-1.173 3.91 0 5.082-1.954 1.172-1.955 0-3.127.39-5.472s2.346-2.736 4.298-3.126c1.954-.39 7.427-1.172 8.207.783l-2.345-7.035-4.69-1.563-14.851 8.598-.783 4.298v8.598m-35.559 14.851c-.47-6.099-.966-12.19-1.519-18.282-.827-9.098 2.186-7.51 10.072-7.51 1.205 0 7.416 1.436 7.861 2.345 2.131 4.354-3.564 3.386 2.455 6.669 5.081 2.77 14.058-1.683 12.004-7.842-1.149-1.369-5.987-.426-7.72-1.326l-9.159-4.749c-3.885-2.015-12.862-4.953-17.004-2.137-10.493 7.136.663 24.967 4.407 32.412"/><path fill="#231F20" d="M97.835 41.123C87.184 38.64 81.891 45.58 78.663 52.776c-2.883-.698-1.737-4.618-1.008-6.617 1.906-5.243 9.59-12.223 15.868-11.276 2.7.407 6.357 2.877 4.312 6.24m51.898 12.129c.167.008.337.013.505.02 2.407 5 4.49 10.298 7.526 14.712-2.034 4.737-15.403 8.93-15.196.424 2.89-1.264 7.882-.258 10.445-1.873-1.482-4.068-3.62-7.529-3.28-13.283m-46.446.131c2.284 4.186 3.028 8.585 6.274 11.75 1.463 1.425 4.305 3.16 2.896 7.122-.33.935-2.736 3.018-4.126 3.428-5.075 1.498-16.901.31-12.896-6.018 4.197.196 9.839 2.726 12.976-.321-2.409-3.853-6.705-11.471-5.124-15.961m44.54 42.551c-7.64 4.909-16.162 10.246-28.683 9.009-2.675-2.327-3.695-7.503-1.097-10.922 1.353 2.326.503 6.604 4.274 7.248 7.105 1.216 15.374-4.347 20.484-6.29 3.169-5.343-.274-7.308-3.127-10.747-5.845-7.045-13.684-15.777-13.4-26.323 2.362-1.713 2.566 2.615 2.904 3.402 3.052 7.143 10.733 16.276 16.338 22.39 1.376 1.505 3.643 2.95 3.895 3.945.728 2.895-1.891 6.363-1.587 8.288M47.085 90.766c-2.395-1.367-2.965-7.389-5.777-7.56-4.02-.244-3.287 7.811-3.27 12.523-2.767-2.512-3.253-10.244-1.22-14.214-2.317-1.138-3.35 1.255-4.635 2.097 1.65-11.993 17.544-5.563 14.902 7.154m105.609 10.163c-3.558 6.771-8.589 14.227-19.028 14.444-.212-2.187-.375-5.514.011-6.83 7.98-.767 12.907-4.828 19.017-7.614m-50.008 4.39c6.658 3.501 18.893 3.877 27.941 3.612.485 1.983.474 4.432.493 6.849-11.631.58-25.384-2.299-28.434-10.461m-1.266 6.527c4.604 11.559 20.426 10.228 33.77 9.909-.587 1.501-1.86 3.274-3.444 3.915-4.276 1.74-16.069 3.06-22.005-.092-3.765-2.002-6.183-6.524-8.246-9.174-.995-1.28-5.955-4.55-.075-4.558"/><path fill="#81B0C4" d="M147.273 175.605c-5.403 9.252-10.572 18.756-16.982 26.917 2.688-7.9 3.838-21.125 4.243-31.206 5.621-2.63 10.435.593 12.738 4.289"/><path fill="#231F20" d="M176.343 208.861c-6.05 1.211-10.3 7.089-16.2 6.713 3.243-4.573 8.926-6.5 16.2-6.713m2.668 9.465c-4.93.522-10.72 1.319-15.721.908 2.368-3.615 11.488-2.368 15.721-.908m1.709 8.162c-5.541.12-12.428.01-17.694-.433 3.115-3.345 14.1-1.241 17.694.432"/><path fill="#DCD9D8" d="M136.847 248.821c.795 6.959 3.554 14.009 3.208 21.63-3.064 1.033-4.824 1.936-8.928 1.931-.29-6.476-1.156-16.377-.897-22.55 2.019.132 4.995-1.443 6.617-1.01"/><path fill="#F0D6B7" d="M127.914 146.269c-2.783 1.816-5.151 4.084-7.824 6.022-5.925.293-9.159-.41-13.513-3.812.072-.274.51-.151.526-.486 6.343 2.826 14.407-1.153 20.81-1.724"/><path fill="#81B0C4" d="M94.618 189.504c1.742-7.551 8.57-11.463 14.77-15.621 6.4 8.122 10.293 18.568 14.58 28.648-10.127-3.052-20.475-8.005-29.35-13.027"/><path fill="#231F20" d="M130.23 249.831c-.259 6.174.607 16.075.897 22.552 4.105.005 5.865-.898 8.928-1.932.346-7.621-2.413-14.671-3.207-21.63-1.623-.432-4.6 1.143-6.618 1.01zM66.318 214.72c2.706 24.882 6.626 45.799 13.817 67.832 15.957 4.845 35.196 5.268 49.301.895-2.59-12.436-1.459-27.576-2.972-40.846-1.141-9.975-.559-20.011-2.124-30.188-17.091-3.556-41.25-.83-58.023 2.307zm62.063-2.15c-.144 10.686.479 21.227 1.294 31.927 4.104-.616 6.887-1.027 10.7-1.862-1.238-10.301-1.086-21.891-3.608-31.004-2.913.026-5.48-.035-8.386.939zm20.817-1.723c-1.948-.446-4.216-.017-6.076.019.875 8.711 2.997 18.324 3.744 27.468 2.928.09 4.491-1.29 6.9-1.754.128-8.028-.702-19.085-4.568-25.733zm31.518 28.798c6.103-1.483 9.94-8.956 8.233-16.631-1.145-5.16-3.185-14.873-5.369-18.173-1.614-2.441-5.988-5.636-9.48-3.4-5.681 3.638-15.69 4.694-19.834 9.098 2.078 6.917 2.723 16.418 3.579 25.182 7.098.443 15.831-1.954 21.734.589-4.121 1.335-9.469 1.345-13.029 3.291 2.911 1.406 9.724 1.123 14.166.044zm-56.749-37.111c-4.286-10.082-8.178-20.527-14.578-28.65-6.2 4.158-13.029 8.07-14.771 15.62 8.874 5.023 19.223 9.976 29.35 13.03zm10.567-31.217c-.406 10.081-1.556 23.305-4.243 31.206 6.41-8.16 11.579-17.664 16.981-26.917-2.303-3.696-7.117-6.919-12.738-4.289zm-11.978-4.255c-2.427-.261-4.488 2.791-7.646 1.471-.724.8-1.381 1.667-2.119 2.447 6.974 8.403 10.143 20.327 15.529 30.203 2.89-9.487 2.557-19.88 3.194-30.234-3.972.252-6.174-3.592-8.958-3.887zm-7.701-10.165c-.259 2.879.41 3.82.99 7.119 9.461 2.958 7.809-12.985-.99-7.119zm-10.493-3.445c-4.076-2.227-10.2-4.653-15.467-5.657-6.528-1.249-5.915 8.904-5.639 14.96.218 4.795 2.711 9.866 3.794 13.051.509 1.488.623 3.066 1.895 3.361 2.248.524 9.663-2.441 11.775-3.593 4.469-2.437 7.935-6.305 11.73-8.904l.147-3.79c-2.28-1.138-4.918-1.944-8.267-2.09 2.272-1.143 5.615-1.126 7.685-2.486.02-.507.041-1.012.059-1.514-3.779-.291-5.22-1.975-7.711-3.338zm-38.94-7.072c-3.383 3.435 9.49 8.117 13.59 8.37-.023-2.174 1.238-4.223.984-5.783-4.867-.855-11.266-.291-14.573-2.587zm41.682 1.612c-.016.335-.454.214-.525.487 4.354 3.402 7.586 4.106 13.512 3.812 2.673-1.939 5.042-4.206 7.824-6.022-6.405.572-14.469 4.55-20.811 1.723zm38.259 11.602c-.183-3.817-1.185-11.664-3.544-13.04-4.951-2.89-13.753 5.836-17.48 7.167.406 1.168 1.075 2.093 1.126 3.585 2.205-.542 4.89-.171 6.801.768-2.21.247-4.66.23-6.122 1.283-.536 1.549.131 3.659-.225 5.809 5.245 1.48 11.236 2.268 17.867 2.463 1.289-1.677 1.729-4.87 1.577-8.035zM59.726 149.7c-1.062-.757-8.25-10.11-9.235-9.721-13.006 5.129-25.167 13.999-36.035 22.388C24.818 184.6 29 211.84 29.74 238.095c11.87 5.551 22.295 13.555 38.403 14.39-1.864-13.188-3.565-24.953-4.624-37.369-4.048-1.706-9.854.078-13.641-.529-.033-4.563 5.783-1.998 6.268-5.067.365-2.321-3.2-2.498-2.038-6.152 2.96 1.076 4.516 3.453 7.673 4.346 2.885-6.313-.04-17.481.375-22.756.079-.99.495-5.488 2.714-4.7 1.964.7-.112 11.962.103 16.955.196 4.6-.555 9.05 1.307 11.94 15.564-2.12 31.38-3.488 48.22-3.95-3.705-1.59-8.106-3.094-12.931-5.814-2.616-1.475-10.861-4.543-11.616-7.028-1.205-3.958 3.16-6.067 3.906-9.462-7.856 4.285-9.389-4.108-11.248-10.053-1.683-5.385-2.642-9.407-3.056-12.512-6.767-3.228-14.002-6.495-19.829-10.633zm78.763-8.59c10.836-5.255 12.79 19.639 8.542 27.659.656 2.391 2.915 3.308 3.836 5.457-6.047 10.833-12.763 20.946-18.935 31.65 4.59-2.857 11.147-.51 16.548-2.65 1.974-.78 3.404-5.3 4.899-8.916 4.111-9.947 8.428-22.488 10.348-31.982.434-2.163 1.615-6.876 1.35-8.801-.472-3.448-5.148-6.003-7.527-8.134-4.383-3.938-7.143-7.401-11.714-11.083-1.854 2.737-5.832 4.574-7.347 6.8zM34.944 45.01c-5.164 5.682-4.083 16.328-3.458 23.902 9.334-5.872 21.721.463 21.605 10.45 4.456-.118 1.665-5.564.859-9.074-2.634-11.461 4.437-23.914.321-34.395-7.995.605-14.562 3.87-19.327 9.117zM71.89 12.035C60.2 15.349 45.219 23.842 40.415 34.344c3.72-.54 6.301-2.417 9.971-2.649 1.386-.09 3.204.581 4.798.185 3.176-.787 5.856-7.909 8.252-10.559 2.336-2.587 5.143-3.692 7.064-6.052 1.234-.595 3.059-.555 3.13-2.408-.535-.571-1.099-1.007-1.74-.826zm60.852 3.116C120.61 8.305 100.073 3.156 87.166 9.59c-10.414 5.193-24.491 13.784-29.291 24.671 4.484 10.507-1.328 20.133-1.699 30.799-.197 5.676 2.673 10.63 2.893 16.809-1.534 2.531-6.222 2.842-9.467 2.67-1.092-5.466-3.003-11.609-8.632-12.226-7.964-.872-13.788 5.72-14.149 12.607-.429 8.1 6.221 21.525 15.646 20.594 3.642-.36 4.535-4.01 8.503-3.973 2.15 4.29-3.317 5.638-3.879 8.705-.146.793.454 3.89.802 5.343 1.713 7.074 5.53 16.227 9.286 21.612 4.767 6.83 14.133 7.86 24.21 8.529 1.8-3.877 8.43-3.559 12.75-2.544-5.177-2.05-9.99-7.021-13.98-11.421-4.582-5.049-9.223-10.464-9.457-17.062 8.659 12.012 15.813 22.503 31.558 27.787 11.914 3.995 25.827-1.831 34.982-8.26 3.799-2.672 6.067-6.911 8.767-10.792 10.102-14.533 14.817-35.274 13.78-55.38-.427-8.29-.408-16.554-3.19-22.132-2.908-5.832-12.742-11.051-18.5-5.775-1.067-5.672 4.788-9.18 11.663-7.138-4.905-6.325-10.05-13.93-17.018-17.862zm22.606 187.079c9.48-4.714 27.196-12.686 33.14.018 2.193 4.682 4.767 12.598 5.902 17.432 1.605 6.82-1.74 21.154-8.75 23.443-6.191 2.02-13.416 1.897-20.874.4-.878-.73-1.856-2.004-2.54-3.332-5.325-.206-10.311.287-14.517 2.475.399 3.938-2.265 4.57-4.763 5.382-1.851 7.34 3.704 16.926 2.374 23.62-.949 4.768-6.815 5.506-11.127 6.397-.142 2.65.188 4.861.482 7.104-.986 3.632-5.409 5.701-9.599 6.207-13.786 1.658-34.718 2.403-47.98-2.366-3.7-9.076-6.615-20.116-9.697-30.48-12.933 1.381-23.394-5.58-33.254-10.141-3.414-1.583-8.137-2.455-9.412-5.173-1.237-2.631-.73-7.674-1.038-12.437-.781-12.167-1.45-23.902-4.662-36.358-1.44-5.59-3.954-10.522-5.708-15.909-1.621-4.992-4.454-11.16-5.192-16.138-1.095-7.378 5.852-7.789 10.293-10.985 6.868-4.944 12.258-7.678 19.695-12.14 2.203-1.322 8.847-4.667 9.602-6.207 1.502-3.053-2.58-7.36-3.67-9.755-1.725-3.786-2.624-7-2.872-10.737-6.238-.986-10.968-4.699-13.825-8.886-4.726-6.929-8.002-19.748-3.913-29.499.32-.768 1.92-2.278 2.156-3.458.465-2.322-.876-5.41-.959-7.88-.43-12.675 2.144-23.595 10.676-27.416 3.464-13.797 15.86-18.386 27.54-25.244 4.367-2.562 9.179-4.2 14.149-6.03 17.83-6.562 45.188-5.326 59.985 5.865 6.275 4.747 16.305 14.767 19.892 22.022 9.475 19.153 8.803 51.163 2.175 74.463-.89 3.128-2.182 7.727-3.987 11.484-1.258 2.624-5.168 7.874-4.694 10.19.489 2.395 8.915 8.793 10.721 10.535 3.254 3.139 9.435 7.304 9.935 11.265.54 4.215-1.857 9.981-3.07 14.048-4.057 13.575-8.016 26.12-12.615 38.221"/><path fill="#F7E4CD" d="M92.093 108.275c.513-.685 3.342-1.725 7.298.18 0 0-4.69.782-4.3 8.601l-1.953-.391s-2.02-7.09-1.046-8.39"/><path fill="#1D1919" d="M126.358 175.479a2.15 2.15 0 11-4.3-.002 2.15 2.15 0 014.3.002m2.148 9.965a2.15 2.15 0 11-4.299-.002 2.15 2.15 0 014.3.002"/><path d="M17.836 177.379h68.446c.543 0 .983.44.983.982v2.155c0 .543-.44.983-.983.983H17.837a.983.983 0 01-.982-.983v-2.155c0-.542.44-.982.982-.982zm81.274 0h60.581c.543 0 .983.44.983.982v2.155c0 .543-.44.983-.983.983H99.11a.983.983 0 01-.982-.983v-2.155c0-.542.44-.982.982-.982z"/><path d="M17.836 175.379H84.41c.542 0 .983.44.983.982v2.154c0 .542-.44.983-.983.983H17.836a.983.983 0 01-.982-.983v-2.155c0-.541.44-.981.982-.981zm87.266 0h54.59c.542 0 .982.44.982.982v2.154c0 .542-.44.983-.983.983h-54.588a.983.983 0 01-.983-.983v-2.155c0-.541.44-.981.983-.981z"/></svg>