<svg data-name="Layer 1" xmlns="http://www.w3.org/2000/svg" viewBox="0 0 360 107.721"><g fill="#326de6"><path d="M53.808 101.115L29.426 57.526l-7.356 7.492v36.097H3V5.765h19.07v30.784L49.994 5.765h25.744L42.366 43.087l34.19 58.028zM159.79 5.765v19.07H96.18V5.765zM96.18 61.612v-19.07h52.715v19.07zm0 39.639V82.18h63.204v19.07zm83.236-95.486h26.97a46.934 46.934 0 0133.645 13.893 45.54 45.54 0 0110.216 15.256 45.582 45.582 0 013.814 18.526 45.758 45.758 0 01-3.814 18.66 43.695 43.695 0 01-10.216 15.12 47.805 47.805 0 01-33.645 14.03H187.18v-.135h-7.764zm19.07 76.416h7.9a28.673 28.673 0 000-57.346h-7.9zM307.328 5.765h5.585L358 101.25h-21.113l-27.243-58.028-29.559 58.028H258.7z" fill-rule="evenodd"/><path d="M317.876 101.246l7.298-13.21H305.23l6.232-42.978-31.041 56.188h-6.841l36.023-67.588 36.023 67.588z"/></g></svg>