<svg data-name="Layer 1" xmlns="http://www.w3.org/2000/svg" viewBox="0 0 64 64"><circle cx="32" cy="32" r="32" fill="#b72b2b"/><path d="M9.84 9A32 32 0 1055 54.16z" opacity=".1" fill="#fff"/><path d="M9 41.4v-2.71a5.25 5.25 0 001.11.74 9.06 9.06 0 001.37.55 10.85 10.85 0 001.44.35 8 8 0 001.34.12 5.24 5.24 0 003.16-.79 2.95 2.95 0 00.7-3.64 3.92 3.92 0 00-1-1.07 9.58 9.58 0 00-1.46-.95l-1.81-.94q-1-.52-1.91-1.05a8.24 8.24 0 01-1.54-1.18 4.94 4.94 0 01-1-1.46 5 5 0 01.21-4.24 5 5 0 011.54-1.63 7 7 0 012.18-1 10 10 0 012.5-.31A9.57 9.57 0 0120 23v2.58a7.66 7.66 0 00-4.46-1.2 7.34 7.34 0 00-1.5.16 4.21 4.21 0 00-1.34.51 3 3 0 00-1 .92 2.43 2.43 0 00-.37 1.37 2.83 2.83 0 00.28 1.3 3.19 3.19 0 00.83 1 8.18 8.18 0 001.33.88q.79.42 1.81.93t2 1.09a9.15 9.15 0 011.65 1.27 5.66 5.66 0 011.13 1.54 4.33 4.33 0 01.42 1.94 4.92 4.92 0 01-.57 2.45 4.64 4.64 0 01-1.53 1.63 6.69 6.69 0 01-2.22.91 12.2 12.2 0 01-2.65.28 10.87 10.87 0 01-1.15-.08q-.69-.07-1.39-.22a11.3 11.3 0 01-1.27-.39 4.18 4.18 0 01-1-.47zm23.65 1.12A8.65 8.65 0 0126 39.77a10.21 10.21 0 01-2.5-7.15 10.76 10.76 0 012.5-7.55 9 9 0 017-2.82A8.42 8.42 0 0139.52 25 10.22 10.22 0 0142 32.14a10.83 10.83 0 01-2.54 7.59 7.65 7.65 0 01-1.29 1.15l5.51 4h-4.16l-3.69-2.76a10.63 10.63 0 01-3.18.4zm.16-18.18a6.32 6.32 0 00-5 2.23 8.63 8.63 0 00-1.93 5.85 8.76 8.76 0 001.87 5.84 6.16 6.16 0 004.91 2.2 6.44 6.44 0 005.09-2.11 8.61 8.61 0 001.86-5.89 9 9 0 00-1.8-6 6.19 6.19 0 00-4.99-2.13zM56 42.19H45.86V22.58h2.3v17.53H56z" fill="#fff"/></svg>