<svg xmlns="http://www.w3.org/2000/svg" viewBox="0 0 64 64"><linearGradient id="a" gradientUnits="userSpaceOnUse" x1="32" y1="63" x2="32" y2="1" gradientTransform="matrix(1 0 0 -1 0 64)"><stop offset="0" stop-color="#f05a28"/><stop offset="1" stop-color="#ec008c"/></linearGradient><path fill="url(#a)" d="M1 32c0 17.121 13.879 31 31 31s31-13.879 31-31S49.121 1 32 1 1 14.879 1 32"/><path opacity=".4" fill="#F05A28" d="M1.342 27.4s3.434.178 9.623-1.437c5.198-1.357 12.34-5.554 21.021-5.554 8.654 0 15.814 4.241 21.015 5.593 6.227 1.619 9.658 1.398 9.658 1.398C60.436 12.461 47.557 1 32 1S3.564 12.461 1.342 27.4z"/><path fill="#FFF" d="M24 15l.07 34L51 32 24 15zm3 5.44L45.38 32 27 43.57V20.44z"/><path fill="#FFF" d="M18 19v26l22-13-22-13zm3 5.26L34.1 32 21 39.74V24.26z"/></svg>