<svg xmlns="http://www.w3.org/2000/svg" width="590.969" height="159.025"><g fill-rule="evenodd"><path d="M298.536 0c-.41.005-.823.103-1.189.317a2.403 2.403 0 0 0-1.189 2.061v60.643c0 .596-.277 1.128-.793 1.427-.516.3-1.146.3-1.664 0l-9.91-5.707a4.75 4.75 0 0 0-4.755 0l-39.557 22.83c-1.479.853-2.378 2.494-2.378 4.2v45.661c0 1.706.9 3.268 2.378 4.122l39.557 22.83a4.738 4.738 0 0 0 4.756 0l39.556-22.83a4.747 4.747 0 0 0 2.378-4.122V17.598a4.833 4.833 0 0 0-2.457-4.2L299.725.237c-.37-.206-.78-.242-1.189-.238zM44.075 56.996c-.754.03-1.463.163-2.14.555L2.378 80.381A4.737 4.737 0 0 0 0 84.504l.08 61.276c0 .853.439 1.644 1.188 2.062.735.44 1.646.44 2.378 0l23.465-13.477c1.486-.883 2.457-2.419 2.457-4.122v-28.617c0-1.707.898-3.273 2.378-4.122l9.988-5.787a4.684 4.684 0 0 1 2.379-.634c.815 0 1.653.203 2.378.634l9.988 5.787a4.733 4.733 0 0 1 2.378 4.122v28.617c0 1.703.98 3.25 2.457 4.122l23.465 13.477c.737.44 1.647.44 2.378 0a2.385 2.385 0 0 0 1.189-2.062l.08-61.276c0-1.718-.895-3.27-2.379-4.123l-39.556-22.83c-.67-.392-1.381-.524-2.14-.555h-.476zm355.453.555a4.729 4.729 0 0 0-2.378.634l-39.556 22.83a4.744 4.744 0 0 0-2.379 4.123v45.66c0 1.717.967 3.274 2.458 4.122l39.24 22.355c1.448.827 3.218.89 4.676.078l23.782-13.238c.754-.419 1.265-1.2 1.268-2.061a2.342 2.342 0 0 0-1.19-2.061l-39.793-22.83c-.746-.425-1.269-1.286-1.269-2.14v-14.27c0-.853.53-1.635 1.269-2.06l12.366-7.135a2.374 2.374 0 0 1 2.378 0l12.366 7.135a2.371 2.371 0 0 1 1.19 2.06v11.257c0 .854.45 1.635 1.189 2.06.742.428 1.639.43 2.378 0l23.702-13.792a4.765 4.765 0 0 0 2.378-4.122V85.137a4.758 4.758 0 0 0-2.378-4.122l-39.319-22.83a4.714 4.714 0 0 0-2.378-.634zM281.255 91.638c.206 0 .45.05.634.157l13.556 7.848c.368.213.634.606.634 1.03v15.696c0 .427-.264.82-.634 1.031l-13.556 7.848c-.369.21-.82.21-1.189 0l-13.555-7.848c-.37-.213-.634-.604-.634-1.03v-15.696c0-.425.266-.817.634-1.03l13.555-7.847c.185-.107.349-.158.555-.158z" fill="#404137"/><path d="M518.039 56.442c-1.371 0-2.705.283-3.884.95l-37.337 21.563c-2.416 1.39-3.885 4.02-3.885 6.817v43.044c0 2.796 1.469 5.422 3.885 6.818l9.75 5.628c4.737 2.335 6.485 2.299 8.64 2.299 7.015 0 11.02-4.256 11.02-11.653v-42.49c0-.6-.52-1.03-1.11-1.03h-4.677c-.6 0-1.11.43-1.11 1.03v42.49c0 3.279-3.415 6.576-8.958 3.805l-10.147-5.945c-.358-.196-.634-.54-.634-.952V85.772c0-.409.273-.824.634-1.03l37.258-21.483a1.1 1.1 0 0 1 1.11 0l37.257 21.483c.356.213.635.609.635 1.03v43.044c0 .412-.207.833-.555 1.03l-37.337 21.484c-.32.19-.761.19-1.11 0l-9.592-5.708a.997.997 0 0 0-.951 0c-2.648 1.501-3.146 1.676-5.628 2.537-.612.213-1.541.544.317 1.585l12.525 7.372a7.707 7.707 0 0 0 3.884 1.03c1.382 0 2.692-.34 3.884-1.03l37.337-21.482c2.416-1.406 3.884-4.022 3.884-6.818V85.772c0-2.797-1.468-5.42-3.884-6.817l-37.337-21.562c-1.17-.668-2.513-.951-3.884-.951zm-355.136.871c-.824 0-1.64.208-2.378.635l-39.557 22.75c-1.479.853-2.378 2.496-2.378 4.202v45.66c0 1.708.9 3.268 2.378 4.122l39.557 22.83a4.735 4.735 0 0 0 4.756 0l39.556-22.83a4.747 4.747 0 0 0 2.379-4.122V84.9c0-1.708-.9-3.35-2.379-4.201l-39.556-22.751a4.734 4.734 0 0 0-2.378-.635zm410.547.239v1.11h3.091v8.164h1.269v-8.164h3.17v-1.11h-7.53zm8.64 0v9.274h1.19v-5.47c0-.222.01-.568 0-1.03-.016-.47 0-.88 0-1.11v-.238l2.615 7.848h1.269l2.695-7.848c0 .5-.067.981-.08 1.427-.004.434 0 .76 0 .951v5.47h1.19V57.55h-1.744L586.53 65.4l-2.616-7.848h-1.824zm-54.063 29.647c-10.632 0-16.964 4.525-16.964 12.05 0 8.162 6.285 10.405 16.489 11.415 12.207 1.195 13.159 2.987 13.159 5.39 0 4.168-3.323 5.945-11.178 5.945-9.867 0-12.036-2.463-12.762-7.372-.086-.526-.492-.951-1.03-.951h-4.836c-.597 0-1.11.513-1.11 1.11 0 6.283 3.418 13.714 19.738 13.714 11.815 0 18.63-4.638 18.63-12.763 0-8.055-5.506-10.217-16.965-11.732-11.58-1.532-12.683-2.282-12.683-4.994 0-2.239.935-5.232 9.512-5.232 7.66 0 10.493 1.652 11.653 6.817.102.486.53.872 1.03.872h4.836c.298 0 .587-.182.793-.396.203-.229.345-.486.317-.793-.748-8.896-6.681-13.08-18.629-13.08zM399.45 98.06c-.158 0-.333 0-.476.08l-7.61 4.438a.925.925 0 0 0-.475.793v8.72c0 .328.19.63.475.793l7.61 4.36a.83.83 0 0 0 .872 0l7.61-4.36a.932.932 0 0 0 .476-.793v-8.72a.933.933 0 0 0-.476-.793l-7.61-4.439c-.14-.083-.238-.078-.396-.078z" fill="#83cd29"/></g></svg>