<svg xmlns="http://www.w3.org/2000/svg" viewBox="0 0 83 55"><g fill="none"><path d="M72.051 45.798c-.672 0-1.214.545-1.214 1.22v3.66h-15.75l-.031-2.313A25.492 25.492 0 0065.865 27.5c0-14.06-11.39-25.5-25.39-25.5-13.999 0-25.389 11.44-25.389 25.5 0 8.29 4.028 16.087 10.778 20.856.007.005.007.78 0 2.323h-15.75v-3.66c0-.674-.543-1.22-1.214-1.22-.672 0-1.215.546-1.215 1.22v6.1h20.577l.069-5.296a1.215 1.215 0 00-.766-1.142 1.195 1.195 0 00-.304-.323c-6.103-4.312-9.746-11.362-9.746-18.86 0-12.716 10.3-23.06 22.96-23.06s22.96 10.344 22.96 23.06a23.057 23.057 0 01-10.105 19.11c-.119.08-.207.184-.288.294-.257.228-.427.55-.422.92l.069 5.295h20.576v-6.1c0-.673-.542-1.218-1.214-1.218z" stroke="#2681D6" stroke-width="3" fill="#2681D6"/><path fill="#FFF" d="M2.049 44.012h14.346v5.123H2.049zm62.507 0h14.346v5.123H64.556z"/><path fill="#2681D6" d="M0 49.136h29.716v5.636H0zm51.235 0H83v5.636H51.235z"/></g></svg>