<svg xmlns="http://www.w3.org/2000/svg" viewBox="0 0 256 256"><path d="M94.527 83.76L11.525 227.353a17.473 17.473 0 00-1.559 3.532l-.294.943.414.905 6.546 14.218.425.925.952.382c.947.38 1.873.61 2.652.782l1.833.407.946-1.612 5.302-9.03 3.423-6.048 83.703-144.98 2.223-4.019H94.527z" fill="#302a6e"/><path d="M145.935 56.98l-3.792 25.925v8.65l75.202 130.25h23.752L145.935 56.98z" fill="#7d65ac"/><path d="M246.118 231.88c-.09-.362-.206-.704-.326-1.05l-.087-.246-.592-1.748h-1.843l-17.372.065H42.4c-3.17 5.32-8.616 14.5-12.212 20.571h201.365c2.356-.005 4.603-.466 6.687-1.385l.869-.376.417-.855 6.408-13.254.394-.829-.21-.894z" fill="#f1a92f"/><path d="M163.968 111.994l-4.319-4.001-16.708-15.489-.825-.764V10.552h21.852v101.442zM117.69 41.548V16.1h-12.982v10.696l12.981 14.752z" fill="#7d65ac"/><path d="M86.795 6.528l17.881 20.321h57.962l.719-1.397 10.98-18.924H86.796z" fill="#7d65ac"/><path d="M118.783 199.939s-9.26 6.865-15.725 4.972c0 0 31.953 32.056 65.308 1.265 0 0 11.17-12.931 10.645-22.339l-4.374-1.19s-6.1 30.293-38.106 26.542c0 0-8.103-1.803-17.748-9.25" fill="#f1a92f"/><path d="M109.176 157.236s-1.047-11.483 3.943-16.013c0 0-44.015 10.568-35.106 55.084 0 0 5.22 16.276 13.52 20.728l3.3-3.109s-22.68-20.988-2.809-46.36c0 0 5.76-5.978 17.152-10.33" fill="#302a6e"/><path d="M151.458 169.695s10.624 4.49 12.28 11.023c0 0 11.4-43.81-32.056-56.912 0 0-16.822-3.058-24.655 2.175l1.195 4.375s29.19-10.123 42.212 19.351c0 0 2.558 7.889 1.024 19.988" fill="#7d65ac"/><path d="M135.586 153.76c-3.789 4.233-10.286 4.594-14.52.812-4.234-3.785-4.604-10.295-.816-14.524 3.789-4.229 10.289-4.59 14.522-.812 4.237 3.786 4.593 10.285.814 14.523" fill="#7d65ac"/><path d="M108.591 195.675c-3.783 4.239-10.282 4.606-14.512.817-4.236-3.791-4.6-10.283-.811-14.518 3.78-4.234 10.281-4.605 14.518-.813 4.23 3.781 4.59 10.285.805 14.514" fill="#302a6e"/><path d="M157.32 197.668c-3.782 4.229-10.278 4.601-14.51.819-4.238-3.79-4.603-10.29-.818-14.524a10.285 10.285 0 0114.524-.814c4.234 3.788 4.586 10.292.804 14.52" fill="#f1a92f"/></svg>