<svg version="1.1" id="Layer_1" xmlns="http://www.w3.org/2000/svg" x="0" y="0" viewBox="0 0 80 80" xml:space="preserve"><style></style><linearGradient id="SVGID_1_" gradientUnits="userSpaceOnUse" x1="65.538" y1="80.337" x2="50.727" y2="54.187"><stop offset="0" stop-color="#f68f71"/><stop offset="0" stop-color="#f68f71"/><stop offset=".41" stop-color="#dc5242"/><stop offset=".99" stop-color="#a72c32"/><stop offset="1" stop-color="#a72c32"/></linearGradient><path fill-rule="evenodd" clip-rule="evenodd" fill="url(#SVGID_1_)" d="M18.266 74l51.749-3.522L74 18.154 58.232 50.203z"/><linearGradient id="SVGID_2_" gradientUnits="userSpaceOnUse" x1="72.873" y1="58.404" x2="53.821" y2="45.62"><stop offset="0" stop-color="#9b3f34"/><stop offset="0" stop-color="#9b3f34"/><stop offset=".99" stop-color="#a23e36"/><stop offset="1" stop-color="#a23e36"/></linearGradient><path fill-rule="evenodd" clip-rule="evenodd" fill="url(#SVGID_2_)" d="M53.537 55.701L70.1 70.443l-4.448-30.784z"/><linearGradient id="SVGID_3_" gradientUnits="userSpaceOnUse" x1="57.628" y1="81.132" x2="38.598" y2="68.362"><stop offset="0" stop-color="#9b3f34"/><stop offset="0" stop-color="#9b3f34"/><stop offset=".99" stop-color="#a23e36"/><stop offset="1" stop-color="#a23e36"/></linearGradient><path fill-rule="evenodd" clip-rule="evenodd" fill="url(#SVGID_3_)" d="M18.44 73.933l51.72-3.49-32.585-2.565z"/><linearGradient id="SVGID_4_" gradientUnits="userSpaceOnUse" x1="17.671" y1="49.129" x2="20.63" y2="68.36"><stop offset="0" stop-color="#fff"/><stop offset="0" stop-color="#fff"/><stop offset=".23" stop-color="#e28b6f"/><stop offset=".46" stop-color="#da6144"/><stop offset=".99" stop-color="#a60003"/><stop offset="1" stop-color="#a60003"/></linearGradient><path fill-rule="evenodd" clip-rule="evenodd" fill="url(#SVGID_4_)" d="M8.713 51.039l9.773 22.901 8.14-26.742z"/><linearGradient id="SVGID_5_" gradientUnits="userSpaceOnUse" x1="37.961" y1="31.176" x2="39.051" y2="50.799"><stop offset="0" stop-color="#fff"/><stop offset="0" stop-color="#fff"/><stop offset=".23" stop-color="#e08a6d"/><stop offset=".56" stop-color="#c14435"/><stop offset=".99" stop-color="#b13430"/><stop offset="1" stop-color="#b13430"/></linearGradient><path fill-rule="evenodd" clip-rule="evenodd" fill="url(#SVGID_5_)" d="M24.608 46.518l28.925 9.272-7.49-29.42z"/><linearGradient id="SVGID_6_" gradientUnits="userSpaceOnUse" x1="55.964" y1="13.045" x2="59.225" y2="27.1"><stop offset="0" stop-color="#fff"/><stop offset="0" stop-color="#fff"/><stop offset=".18" stop-color="#df8063"/><stop offset=".4" stop-color="#c94d37"/><stop offset=".99" stop-color="#b13430"/><stop offset="1" stop-color="#b13430"/></linearGradient><path fill-rule="evenodd" clip-rule="evenodd" fill="url(#SVGID_6_)" d="M46.397 28.481l25.904-1.697-20.262-16.595z"/><linearGradient id="SVGID_7_" gradientUnits="userSpaceOnUse" x1="46.039" y1="8.086" x2="60.063" y2="1.074"><stop offset="0" stop-color="#fff"/><stop offset="0" stop-color="#fff"/><stop offset=".54" stop-color="#c94838"/><stop offset=".99" stop-color="#c12d2f"/><stop offset="1" stop-color="#c12d2f"/></linearGradient><path fill-rule="evenodd" clip-rule="evenodd" fill="url(#SVGID_7_)" d="M43.39 4.184l19.435.089-11.917 6.604z"/><linearGradient id="SVGID_8_" gradientUnits="userSpaceOnUse" x1="5.376" y1="44.232" x2="6.534" y2="55.821"><stop offset="0" stop-color="#fff"/><stop offset="0" stop-color="#fff"/><stop offset=".31" stop-color="#da6548"/><stop offset=".99" stop-color="#c14433"/><stop offset="1" stop-color="#c14433"/></linearGradient><path fill-rule="evenodd" clip-rule="evenodd" fill="url(#SVGID_8_)" d="M4.954 40.003L4 60.009l4.992-9.13z"/><path d="M4.685 39.659l4.063 11.557 17.655-3.972L46.559 28.46l5.688-18.118L43.291 4 28.064 9.715C23.266 14.19 13.957 23.043 13.621 23.21c-.333.169-6.148 11.191-8.936 16.449z" fill-rule="evenodd" clip-rule="evenodd" fill="#fff"/><linearGradient id="SVGID_9_" gradientUnits="userSpaceOnUse" x1="-2.601" y1="58.91" x2="51.734" y2="3.038"><stop offset="0" stop-color="#bd0012"/><stop offset="0" stop-color="#bd0012"/><stop offset=".07" stop-color="#fff"/><stop offset=".17" stop-color="#fff"/><stop offset=".27" stop-color="#c95841"/><stop offset=".33" stop-color="#983734"/><stop offset=".46" stop-color="#ae4231"/><stop offset=".72" stop-color="#b93e2f"/><stop offset=".99" stop-color="#de4e2b"/><stop offset="1" stop-color="#de4e2b"/></linearGradient><path d="M18.952 18.898C29.35 8.56 42.754 2.452 47.898 7.656c5.141 5.204-.311 17.853-10.709 28.187S13.553 52.622 8.413 47.418c-5.144-5.201.141-18.186 10.539-28.52z" fill-rule="evenodd" clip-rule="evenodd" fill="url(#SVGID_9_)"/><linearGradient id="SVGID_10_" gradientUnits="userSpaceOnUse" x1="39.006" y1="64.584" x2="22.671" y2="60.552"><stop offset="0" stop-color="#9f3633"/><stop offset="0" stop-color="#9f3633"/><stop offset=".54" stop-color="#a73532"/><stop offset=".99" stop-color="#b13439"/><stop offset="1" stop-color="#b13439"/></linearGradient><path d="M18.486 73.929l8.077-26.827 26.823 8.641c-9.699 9.12-20.486 16.829-34.9 18.186z" fill-rule="evenodd" clip-rule="evenodd" fill="url(#SVGID_10_)"/><linearGradient id="SVGID_11_" gradientUnits="userSpaceOnUse" x1="67.093" y1="44.932" x2="52.547" y2="31.895"><stop offset="0" stop-color="#923c36"/><stop offset="0" stop-color="#923c36"/><stop offset=".99" stop-color="#aa3531"/><stop offset="1" stop-color="#aa3531"/></linearGradient><path d="M46.594 28.407l6.886 27.351c8.101-8.542 15.372-17.725 18.934-29.083l-25.82 1.732z" fill-rule="evenodd" clip-rule="evenodd" fill="url(#SVGID_11_)"/><linearGradient id="SVGID_12_" gradientUnits="userSpaceOnUse" x1="72.429" y1="20.973" x2="65.187" y2="13.231"><stop offset="0" stop-color="#8d3e36"/><stop offset="0" stop-color="#8d3e36"/><stop offset=".99" stop-color="#aa3e37"/><stop offset="1" stop-color="#aa3e37"/></linearGradient><path d="M72.343 26.813c2.756-8.34 3.392-20.304-9.603-22.526l-10.663 5.906 20.266 16.62z" fill-rule="evenodd" clip-rule="evenodd" fill="url(#SVGID_12_)"/><path d="M4 59.889c.382 13.764 10.285 13.97 14.503 14.09l-9.744-22.82L4 59.889z" fill-rule="evenodd" clip-rule="evenodd" fill="#aa3e35"/><radialGradient id="SVGID_13_" cx="54.816" cy="32.156" r="17.792" gradientTransform="matrix(1 0 0 1.0028 0 -.118)" gradientUnits="userSpaceOnUse"><stop offset="0" stop-color="#b13430"/><stop offset="0" stop-color="#b13430"/><stop offset=".99" stop-color="#923834"/><stop offset="1" stop-color="#923834"/></radialGradient><path d="M46.633 28.449c6.225 3.837 18.771 11.543 19.025 11.684.396.223 5.409-8.478 6.547-13.396l-25.572 1.712z" fill-rule="evenodd" clip-rule="evenodd" fill="url(#SVGID_13_)"/><radialGradient id="SVGID_14_" cx="30.176" cy="55.601" r="23.653" gradientTransform="matrix(1 0 0 1.0028 0 -.118)" gradientUnits="userSpaceOnUse"><stop offset="0" stop-color="#ae3531"/><stop offset="0" stop-color="#ae3531"/><stop offset=".99" stop-color="#953a36"/><stop offset="1" stop-color="#953a36"/></radialGradient><path d="M26.551 47.103l10.797 20.889c6.384-3.472 11.383-7.702 15.962-12.234l-26.759-8.655z" fill-rule="evenodd" clip-rule="evenodd" fill="url(#SVGID_14_)"/><linearGradient id="SVGID_15_" gradientUnits="userSpaceOnUse" x1="13.424" y1="73.911" x2="7.516" y2="53.865"><stop offset="0" stop-color="#994939"/><stop offset="0" stop-color="#994939"/><stop offset=".43" stop-color="#aa3a36"/><stop offset=".99" stop-color="#b83936"/><stop offset="1" stop-color="#b83936"/></linearGradient><path d="M8.717 51.187l-1.53 18.267c2.887 3.954 6.858 4.298 11.023 3.989-3.014-7.521-9.034-22.56-9.493-22.256z" fill-rule="evenodd" clip-rule="evenodd" fill="url(#SVGID_15_)"/><linearGradient id="SVGID_16_" gradientUnits="userSpaceOnUse" x1="58.639" y1="7.474" x2="71.855" y2="13.308"><stop offset="0" stop-color="#b9392f"/><stop offset="0" stop-color="#b9392f"/><stop offset=".44" stop-color="#a23a36"/><stop offset=".99" stop-color="#8d463a"/><stop offset="1" stop-color="#8d463a"/></linearGradient><path d="M52.014 10.239l21.449 3.019c-1.145-4.864-4.66-8.003-10.652-8.985l-10.797 5.966z" fill-rule="evenodd" clip-rule="evenodd" fill="url(#SVGID_16_)"/></svg>