<svg xmlns="http://www.w3.org/2000/svg" viewBox="0 0 51.2 51.209" preserveAspectRatio="xMinYMin meet"><path d="M27.912 18.477v-6.62l9.667 4.89v9.57l-3.844-1.855v-3.008l-5.823-2.977" fill="#4396b9"/><path d="M40.696 24.76l2.505 1.28-9.443 4.722-.024-6.3 3.845 1.855 3.117-1.558" fill="#b8dde8"/><path d="M27.912 14.503l-3.941 1.958 3.94 2.016v-3.974" fill="#75bed5"/><path d="M24.161 35.611l-.08-9.536-9.59-4.773-9.59-4.737v9.675l.002.002.093 9.37 9.274 4.637.278.14.02.008 9.595 4.787v-9.572h-.002" fill="#4396b9"/><path d="M43.201 26.04l-9.467 4.735v-9.32l-9.654 4.62.083 9.737v9.371l9.571-4.786v-.052l9.467-4.733V26.04" fill="#75bed5"/><path d="M47.151 21.532l-9.572 4.785v-9.57l9.572-4.787v9.572" fill="#75bed5"/><path d="M27.912 11.856l9.667 4.89 9.573-4.786-9.764-4.994-6.596 3.404-7.1-3.631-9.625 5.01L4.9 16.566l9.591 4.737 9.59 4.773 9.653-4.62-9.763-4.994-.126.065-.024-.012.15-.053 3.94-1.958v-2.647" fill="#b8dde8"/></svg>