<svg xmlns="http://www.w3.org/2000/svg" viewBox="0 0 100 85"><path fill="none" d="M0 0h100v85H0z"/><linearGradient id="a" gradientUnits="userSpaceOnUse" x1="50" y1="575.5" x2="50" y2="526" gradientTransform="translate(0 -508)"><stop offset="0" stop-color="#225fbc"/><stop offset="1" stop-color="#1fb2f0"/></linearGradient><path fill="url(#a)" d="M0 67.5h50.5L100 18H0v49.5"/><path d="M59.3 27.3h-9.8v23.4l-8.6-23.4h-8.5L25 46.9c-.8-4.9-5.9-6.6-9.9-7.9-2.7-.8-5.5-2.1-5.4-3.5 0-1.1 1.5-2.2 4.5-2 2.5.1 5 .7 7.2 1.9l3.4-6c-3.5-1.7-7.3-2.6-11.2-2.6-4.2 0-7.7 1.4-9.8 3.6-1.5 1.5-2.3 3.6-2.4 5.7-.2 2.7 1.1 5.3 3.4 6.9 2.1 1.4 4.3 2.4 6.7 3.1 2.7.8 5 1.6 4.9 3.1 0 .6-.2 1.1-.6 1.5-.9.7-2 1.1-3.2 1-2.9.1-5.8-.7-8.2-2.3l-3 6c3.4 1.9 7.2 2.9 11.1 3h.5c3.1 0 6.1-1 8.5-2.8.1-.1.2-.2.4-.3l-1 2.6h8.9l1.5-4.6c3.4 1.1 7 1.1 10.4 0l1.4 4.5h14.6v-9.5h3.2c7.7 0 12.2-3.9 12.2-10.5.1-7.1-4.3-10.5-13.8-10.5zm-22.7 20c-1.1 0-2.1-.2-3.2-.6l3.1-9.8h.1l3.1 9.9c-1 .4-2.1.5-3.1.5zm23.3-5.6h-2.2v-7.9h2.2c2.9 0 5.2 1 5.2 3.9 0 3-2.3 4-5.2 4" fill="#fff"/><path d="M62.6 64.3c0-1.4 1.2-2.6 2.7-2.5 1.4 0 2.6 1.2 2.5 2.7 0 1.4-1.2 2.5-2.6 2.5-1.4-.1-2.6-1.2-2.6-2.7zm2.6 3.2c1.8 0 3.2-1.5 3.2-3.3 0-1.8-1.5-3.2-3.3-3.2-1.8 0-3.2 1.5-3.2 3.2.1 1.8 1.5 3.3 3.3 3.3zm-.6-3h.6l1 1.6h.6l-1.1-1.6c.5 0 1-.4 1-1v-.1c0-.7-.4-1.1-1.3-1.1H64V66h.6v-1.5zm0-.5v-1.1h.8c.4 0 .8.1.8.5 0 .6-.4.6-.9.6h-.7z" fill="#225fbc"/></svg>