<?xml version="1.0" encoding="UTF-8"?>
<svg xmlns="http://www.w3.org/2000/svg" xmlns:xlink="http://www.w3.org/1999/xlink" width="272.88pt" height="194.11pt" viewBox="0 0 272.88 194.11" version="1.1">
<defs>
<clipPath id="clip1">
  <path d="M 81 153 L 118 153 L 118 194.109375 L 81 194.109375 Z M 81 153 "/>
</clipPath>
<clipPath id="clip2">
  <path d="M 226 153 L 264 153 L 264 194.109375 L 226 194.109375 Z M 226 153 "/>
</clipPath>
<clipPath id="clip3">
  <path d="M 123 153 L 155 153 L 155 194.109375 L 123 194.109375 Z M 123 153 "/>
</clipPath>
<clipPath id="clip4">
  <path d="M 263 147 L 272.878906 147 L 272.878906 157 L 263 157 Z M 263 147 "/>
</clipPath>
</defs>
<g id="surface1">
<path style=" stroke:none;fill-rule:nonzero;fill:rgb(89.451599%,18.821716%,14.892578%);fill-opacity:1;" d="M 133.113281 98.707031 C 110.140625 98.707031 91.515625 79.980469 91.515625 56.878906 C 91.515625 33.777344 110.140625 15.050781 133.113281 15.050781 C 156.085938 15.050781 174.710938 33.777344 174.710938 56.878906 C 174.710938 79.980469 156.085938 98.707031 133.113281 98.707031 M 132.558594 -0.00390625 C 101.140625 -0.00390625 75.667969 25.609375 75.667969 57.203125 C 75.667969 88.796875 101.140625 114.40625 132.558594 114.40625 C 163.976563 114.40625 189.445313 88.796875 189.445313 57.203125 C 189.445313 25.609375 163.976563 -0.00390625 132.558594 -0.00390625 "/>
<path style=" stroke:none;fill-rule:nonzero;fill:rgb(89.451599%,18.821716%,14.892578%);fill-opacity:1;" d="M 94.527344 67.503906 C 94.527344 67.503906 101.339844 94.125 127.960938 96.976563 C 154.585938 99.828125 167.894531 76.695313 167.894531 76.695313 L 160.765625 72.257813 C 160.765625 72.257813 149.671875 90.957031 129.863281 90.320313 C 110.054688 89.6875 100.074219 77.804688 94.527344 67.503906 "/>
<path style=" stroke:none;fill-rule:nonzero;fill:rgb(89.451599%,18.821716%,14.892578%);fill-opacity:1;" d="M 108.539063 82.542969 C 114.539063 86.808594 121.617188 89.058594 129.894531 89.320313 C 148.863281 89.929688 159.796875 71.929688 159.90625 71.746094 L 160.425781 70.867188 L 161.292969 71.40625 L 167.96875 75.5625 C 174.101563 65.488281 172.632813 54.207031 172.632813 54.207031 L 160.289063 54.351563 C 160.289063 54.351563 161.242188 72.574219 139.371094 82.875 C 130.265625 87.164063 114.972656 86.464844 105.777344 79.230469 C 105.777344 79.230469 106.582031 80.671875 108.539063 82.542969 "/>
<path style=" stroke:none;fill-rule:nonzero;fill:rgb(89.451599%,18.821716%,14.892578%);fill-opacity:1;" d="M 158.46875 53.394531 L 158.414063 52.355469 L 159.457031 52.34375 L 172.449219 52.207031 C 171.871094 42.136719 164.253906 33.273438 164.253906 33.273438 L 149.671875 42.308594 C 149.671875 42.308594 158.953125 49.246094 150.550781 65.644531 C 147.628906 71.347656 141.339844 77.503906 135.566406 80.210938 C 128.507813 83.519531 123.082031 83.6875 123.082031 83.6875 C 123.796875 83.972656 130.621094 85.332031 140.195313 81.078125 C 159.082031 72.6875 158.503906 54.109375 158.46875 53.394531 "/>
<path style=" stroke:none;fill-rule:evenodd;fill:rgb(13.719177%,12.156677%,12.547302%);fill-opacity:1;" d="M 57.679688 145.296875 C 57.679688 145.296875 57.210938 169.554688 57.699219 180.375 C 57.832031 183.265625 57.828125 186.734375 60.296875 190.0625 C 62.859375 193.515625 68.09375 193.8125 69.335938 193.867188 C 71.257813 193.949219 73.347656 193.796875 75.8125 193.820313 C 76.234375 193.824219 77.15625 193.890625 77.269531 192.867188 L 77.265625 188.707031 C 77.054688 187.984375 75.8125 188.113281 75.109375 188.136719 C 72.175781 188.21875 68.832031 187.992188 67.503906 186.230469 C 66.523438 184.933594 65.9375 183.503906 66.015625 182.15625 L 66.097656 171.847656 L 66.097656 159.542969 L 72.242188 159.554688 C 72.5625 159.523438 73.089844 159.601563 73.363281 159.511719 C 73.84375 159.394531 73.871094 158.648438 73.871094 158.527344 L 73.871094 154.742188 C 73.871094 154.617188 73.910156 153.679688 72.574219 153.726563 L 66.097656 153.714844 C 66.011719 152.113281 66.085938 145.457031 66.085938 145.457031 C 66.046875 144.742188 65.984375 144.210938 65.882813 144 C 65.699219 143.621094 65.207031 143.339844 64.804688 143.355469 C 62.105469 143.515625 59.378906 144.140625 57.679688 145.296875 "/>
<path style=" stroke:none;fill-rule:evenodd;fill:rgb(13.719177%,12.156677%,12.547302%);fill-opacity:1;" d="M 40.25 154.71875 C 40.039063 154.8125 39.667969 155.070313 39.644531 155.765625 L 39.644531 193.21875 C 39.644531 193.21875 40.074219 193.460938 43.511719 193.460938 C 46.882813 193.460938 47.296875 193.152344 47.296875 193.152344 C 47.296875 193.152344 47.417969 155.496094 47.296875 154.5625 C 47.203125 153.824219 47.117188 152.980469 46.121094 153.066406 C 44.140625 153.597656 41.992188 153.957031 40.25 154.71875 "/>
<path style=" stroke:none;fill-rule:evenodd;fill:rgb(13.719177%,12.156677%,12.547302%);fill-opacity:1;" d="M 221.566406 159.488281 C 223.855469 159.589844 224.574219 158.851563 224.753906 157.992188 C 224.90625 157.273438 224.753906 155.425781 224.710938 155.0625 C 224.660156 154.546875 224.484375 153.878906 223.429688 153.738281 C 222.546875 153.617188 221.117188 153.726563 218.347656 153.707031 C 217.480469 153.703125 215.824219 153.640625 214.730469 153.8125 C 204.605469 155.414063 205.429688 164.0625 205.429688 164.0625 L 205.429688 193.21875 C 205.429688 193.21875 205.859375 193.460938 209.300781 193.460938 C 212.671875 193.460938 213.085938 193.152344 213.085938 193.152344 C 213.085938 193.152344 213.132813 177.535156 213.136719 166.167969 C 213.300781 160.3125 217.359375 159.308594 221.566406 159.488281 "/>
<path style=" stroke:none;fill-rule:evenodd;fill:rgb(13.719177%,12.156677%,12.547302%);fill-opacity:1;" d="M 27.71875 158.914063 C 28.269531 157.675781 28.585938 156.285156 28.078125 155.839844 C 26.367188 154.332031 21.699219 153.8125 20.765625 153.714844 C 12.050781 152.808594 2.523438 155.394531 1.335938 162.78125 C 0.179688 170.003906 6.359375 172.480469 11.699219 175.085938 C 16.636719 177.496094 23.136719 178.878906 22.0625 184.152344 C 20.824219 190.230469 10.101563 187.570313 6.519531 186.742188 C 5.066406 186.40625 3.554688 185.421875 2.46875 185.535156 C 1.6875 185.617188 1.101563 186.421875 1 186.625 C 0.449219 187.71875 -0.238281 188.671875 0.0820313 190.632813 C 0.527344 192.417969 6.695313 193.148438 7.167969 193.21875 C 24.242188 195.785156 27.9375 189.164063 28.691406 187.882813 C 34.816406 177.464844 21.519531 172.328125 20.765625 171.847656 C 16.550781 169.160156 8.660156 168.414063 9.757813 162.78125 C 10.371094 159.621094 13.894531 159.054688 16.234375 158.894531 C 20.214844 158.628906 24.28125 160.535156 25.425781 160.6875 C 26.730469 160.863281 27.226563 160.015625 27.71875 158.914063 "/>
<g clip-path="url(#clip1)" clip-rule="nonzero">
<path style=" stroke:none;fill-rule:nonzero;fill:rgb(13.719177%,12.156677%,12.547302%);fill-opacity:1;" d="M 89.972656 170.578125 C 89.972656 170.164063 90.207031 166.949219 91.855469 163.980469 C 92.007813 163.707031 92.175781 163.4375 92.351563 163.167969 C 93.835938 160.933594 96.234375 159.023438 100.085938 158.84375 C 100.179688 158.832031 100.277344 158.828125 100.378906 158.828125 C 100.402344 158.828125 100.425781 158.824219 100.453125 158.824219 C 100.472656 158.824219 100.492188 158.824219 100.515625 158.824219 L 100.558594 158.824219 C 102.371094 158.8125 103.84375 159.226563 105.039063 159.910156 C 106.238281 160.597656 107.160156 161.546875 107.867188 162.605469 C 110.164063 166.042969 110.210938 170.578125 110.210938 170.578125 Z M 111.984375 175.71875 C 113.375 175.652344 115.007813 175.835938 116.308594 175.675781 C 116.984375 175.59375 118.082031 174.847656 117.957031 173.292969 C 117.648438 169.503906 117.640625 161.835938 111.207031 156.9375 C 106.660156 153.476563 101.066406 153.089844 96.644531 153.714844 C 94.683594 153.992188 87.976563 156.160156 84.339844 162.132813 C 81.902344 166.136719 81.027344 172.277344 81.75 177.675781 C 83.265625 189.039063 92.972656 192.429688 93.855469 192.753906 C 95.351563 193.308594 97.460938 193.664063 99.234375 193.867188 C 101.726563 194.152344 105.351563 194.226563 108.300781 193.867188 C 110.066406 193.648438 112.078125 193.554688 113.59375 192.367188 C 113.957031 192.078125 114.144531 191.257813 114.085938 190.429688 C 113.867188 189.921875 113.773438 189.296875 113.648438 188.703125 C 112.925781 186.820313 110.683594 187.355469 109.988281 187.542969 C 107.328125 188.261719 100.398438 187.828125 100.398438 187.828125 C 98.371094 187.734375 96.027344 187.089844 95.011719 186.230469 C 89.355469 181.464844 90.167969 175.734375 90.167969 175.734375 "/>
</g>
<g clip-path="url(#clip2)" clip-rule="nonzero">
<path style=" stroke:none;fill-rule:nonzero;fill:rgb(13.719177%,12.156677%,12.547302%);fill-opacity:1;" d="M 235.359375 170.578125 C 235.359375 170.164063 235.59375 166.949219 237.242188 163.980469 C 237.390625 163.707031 237.5625 163.4375 237.738281 163.167969 C 239.222656 160.933594 241.621094 159.023438 245.472656 158.84375 C 245.570313 158.832031 245.664063 158.828125 245.761719 158.828125 C 245.789063 158.828125 245.8125 158.824219 245.839844 158.824219 C 245.859375 158.824219 245.878906 158.824219 245.898438 158.824219 L 245.945313 158.824219 C 247.757813 158.8125 249.234375 159.226563 250.429688 159.910156 C 251.628906 160.597656 252.546875 161.546875 253.253906 162.605469 C 255.550781 166.042969 255.597656 170.578125 255.597656 170.578125 Z M 257.371094 175.71875 C 258.761719 175.652344 260.394531 175.835938 261.695313 175.675781 C 262.371094 175.59375 263.46875 174.847656 263.34375 173.292969 C 263.035156 169.503906 263.027344 161.835938 256.59375 156.9375 C 252.046875 153.476563 246.457031 153.089844 242.03125 153.714844 C 240.066406 153.992188 233.363281 156.160156 229.722656 162.132813 C 227.285156 166.136719 226.414063 172.277344 227.136719 177.675781 C 228.652344 189.039063 238.359375 192.429688 239.242188 192.753906 C 240.738281 193.308594 242.847656 193.664063 244.621094 193.867188 C 247.113281 194.152344 250.738281 194.226563 253.6875 193.867188 C 255.457031 193.648438 257.464844 193.554688 258.980469 192.367188 C 259.34375 192.078125 259.53125 191.257813 259.472656 190.429688 C 259.253906 189.921875 259.160156 189.296875 259.035156 188.703125 C 258.3125 186.820313 256.070313 187.355469 255.375 187.542969 C 252.714844 188.261719 245.785156 187.828125 245.785156 187.828125 C 243.757813 187.734375 241.414063 187.089844 240.398438 186.230469 C 234.742188 181.464844 235.554688 175.734375 235.554688 175.734375 "/>
</g>
<path style=" stroke:none;fill-rule:nonzero;fill:rgb(13.719177%,12.156677%,12.547302%);fill-opacity:1;" d="M 186.054688 184.445313 C 184.085938 187.199219 180.660156 188.90625 177.628906 188.90625 C 175.15625 188.90625 172.230469 187.773438 170.40625 185.863281 C 167.816406 183.144531 166.796875 178.855469 166.796875 174.035156 C 166.796875 168.902344 167.859375 165.285156 170.476563 162.351563 C 172.246094 160.371094 175.382813 159.164063 177.628906 159.164063 C 180.980469 159.164063 184 160.085938 186.550781 164.195313 C 188.136719 166.75 188.460938 170.425781 188.460938 174.035156 C 188.460938 178.089844 187.96875 181.765625 186.054688 184.445313 M 195.3125 164.304688 C 192.023438 157.84375 185.398438 153.429688 177.769531 153.429688 C 169.648438 153.429688 163.035156 158.1875 159.996094 165.328125 C 158.953125 167.78125 158.507813 170.695313 158.507813 173.539063 C 158.507813 177.109375 158.925781 180.496094 160.523438 183.40625 C 163.902344 189.5625 170.359375 193.722656 177.769531 193.722656 C 185.523438 193.722656 192.238281 189.660156 195.472656 183.027344 C 196.785156 180.332031 197.171875 177.183594 197.171875 173.964844 C 197.171875 170.621094 196.726563 167.078125 195.3125 164.304688 "/>
<g clip-path="url(#clip3)" clip-rule="nonzero">
<path style=" stroke:none;fill-rule:evenodd;fill:rgb(13.719177%,12.156677%,12.547302%);fill-opacity:1;" d="M 136.578125 161.917969 C 136.578125 161.917969 133.125 164.507813 132.695313 171.738281 C 132.261719 178.972656 134.960938 186.3125 140.355469 187.5 C 145.753906 188.6875 149.207031 187.28125 149.207031 187.28125 C 149.207031 187.28125 149.410156 187.195313 149.738281 187.09375 C 150.71875 186.789063 152.363281 186.242188 153.308594 187.605469 C 153.730469 188.21875 154.367188 189.648438 154.390625 190.628906 C 154.414063 191.898438 153.632813 192.570313 152.121094 193.109375 C 148.394531 194.441406 138.628906 195.160156 130.859375 189.871094 C 123.085938 184.582031 121.46875 168.824219 127.40625 161.703125 C 133.339844 154.578125 140.894531 152.417969 150.503906 154.472656 L 152.769531 155.441406 C 152.769531 155.441406 154.605469 155.980469 153.308594 158.25 C 152.015625 160.515625 151.582031 160.839844 148.992188 160.082031 C 146.402344 159.328125 139.925781 158.355469 136.578125 161.917969 "/>
</g>
<g clip-path="url(#clip4)" clip-rule="nonzero">
<path style=" stroke:none;fill-rule:nonzero;fill:rgb(13.719177%,12.156677%,12.547302%);fill-opacity:1;" d="M 267.632813 151.824219 L 268.0625 151.824219 C 268.765625 151.824219 269.113281 151.519531 269.113281 150.902344 C 269.113281 150.402344 268.777344 150.152344 268.105469 150.152344 L 267.632813 150.152344 Z M 267.570313 154.726563 L 266.707031 154.726563 C 266.65625 154.730469 266.640625 154.703125 266.640625 154.65625 L 266.640625 149.421875 L 268.183594 149.421875 C 269.546875 149.421875 270.09375 150.085938 270.09375 151.007813 C 270.09375 151.652344 269.859375 151.96875 269.136719 152.355469 L 270.304688 154.589844 C 270.324219 154.644531 270.308594 154.722656 270.253906 154.726563 C 270.253906 154.726563 269.328125 154.726563 269.328125 154.726563 C 269.28125 154.726563 269.222656 154.699219 269.179688 154.605469 L 268.113281 152.5625 L 267.632813 152.5625 L 267.632813 154.644531 C 267.632813 154.734375 267.59375 154.722656 267.570313 154.726563 M 268.394531 155.46875 C 269.359375 155.46875 270.1875 155.128906 270.871094 154.453125 C 271.554688 153.773438 271.898438 152.957031 271.898438 152.003906 C 271.898438 151.0625 271.554688 150.253906 270.871094 149.570313 C 270.1875 148.890625 269.375 148.550781 268.433594 148.550781 C 267.492188 148.550781 266.683594 148.890625 266 149.570313 C 265.320313 150.253906 264.980469 151.066406 264.980469 152.015625 C 264.980469 152.949219 265.320313 153.757813 265.996094 154.441406 C 266.675781 155.125 267.472656 155.46875 268.394531 155.46875 M 268.382813 156.457031 C 267.183594 156.457031 266.148438 156.023438 265.285156 155.148438 C 264.421875 154.273438 263.988281 153.230469 263.988281 152.015625 C 263.988281 150.78125 264.421875 149.730469 265.289063 148.867188 C 266.15625 148 267.207031 147.570313 268.433594 147.570313 C 269.660156 147.570313 270.710938 148 271.578125 148.867188 C 272.445313 149.730469 272.878906 150.777344 272.878906 152.003906 C 272.878906 153.25 272.441406 154.308594 271.570313 155.167969 C 270.699219 156.027344 269.640625 156.457031 268.382813 156.457031 "/>
</g>
</g>
</svg>
