<svg xmlns="http://www.w3.org/2000/svg" height="50" width="50"><path fill="#7A7A7A" d="M11.5 39.1h20.1v4.5H11.5z"/><path fill="#7A7A7A" d="M34.7 28.3v17.6H9V28.3H4.9V50h33.8V28.3z"/><path fill="#7A7A7A" d="M12.086 32.174l20.046 1.462-.328 4.488L11.76 36.66z"/><path opacity=".1" fill="#FF8C00" d="M12.086 32.174l20.046 1.462-.328 4.488L11.76 36.66z"/><path fill="#7A7A7A" d="M14.087 23.24l19.447 5.086-1.139 4.353-19.446-5.085z"/><path opacity=".35" fill="#FF8C00" d="M14.087 23.24l19.447 5.086-1.139 4.353-19.446-5.085z"/><path fill="#7A7A7A" d="M18.718 13.352l17.336 10.173-2.277 3.881L16.44 17.233z"/><path opacity=".75" fill="#FF8C00" d="M18.718 13.352l17.336 10.173-2.277 3.881L16.44 17.233z"/><path fill="#FF8C00" d="M28.956 4.096l11.29 16.629-3.722 2.528-11.29-16.63zM41.868-.038l3.26 19.834-4.44.73L37.428.691z"/><path opacity=".4" fill="#DD5900" d="M41.868-.038l3.26 19.834-4.44.73L37.428.691z"/></svg>