<svg viewBox="0 0 34 34" xmlns="http://www.w3.org/2000/svg"><path fill="#fff" d="M0 0h34v34H0z"/><path d="M12.362 27.157a14.5 14.5 0 0014.594-14.594c0-.222 0-.443-.015-.663A10.436 10.436 0 0029.5 9.245a10.238 10.238 0 01-2.946.807 5.147 5.147 0 002.255-2.837A10.279 10.279 0 0125.55 8.46a5.134 5.134 0 00-8.741 4.678A14.562 14.562 0 016.24 7.779a5.133 5.133 0 001.588 6.848 5.091 5.091 0 01-2.328-.642v.065a5.131 5.131 0 004.115 5.027 5.121 5.121 0 01-2.316.088 5.135 5.135 0 004.792 3.562 10.292 10.292 0 01-6.37 2.2 10.441 10.441 0 01-1.221-.074 14.521 14.521 0 007.862 2.3" fill="#1da1f2"/></svg>