<svg viewBox="0 0 40 40" xmlns="http://www.w3.org/2000/svg"><path fill="#e52d27" d="M0 0h40v40H0z"/><path d="M33.72 14.4a6.058 6.058 0 0 0-1.113-2.779 4 4 0 0 0-2.807-1.184c-3.918-.283-9.8-.283-9.8-.283h-.012s-5.877 0-9.8.283a4.005 4.005 0 0 0-2.806 1.186A6.056 6.056 0 0 0 6.28 14.4 42.344 42.344 0 0 0 6 18.933v2.124a42.342 42.342 0 0 0 .28 4.532 6.056 6.056 0 0 0 1.113 2.779 4.748 4.748 0 0 0 3.087 1.2c2.24.215 9.52.281 9.52.281s5.884-.009 9.8-.292a4 4 0 0 0 2.806-1.186 6.058 6.058 0 0 0 1.113-2.779A42.406 42.406 0 0 0 34 21.058v-2.125a42.408 42.408 0 0 0-.28-4.533zm-16.611 9.23v-7.865l7.566 3.947z" fill="#fff"/></svg>