<svg xmlns="http://www.w3.org/2000/svg" viewBox="0 0 50 50" class="fxs-portal-svg">
    <path d="M0 2h11v11H0zm13 0h12v11H13zm14 0h11v11H27zM0 15h11v11H0zm13 0h12v11H13zm14 0h11v11H27zM0 28h11v12H0zm13 0h12v12H13zm14 0h11v12H27z" class="msportalfx-svg-c19" fill="#0072c6"/>
    <path d="M30.808 45.742a.311.311 0 01-.161-.042l-10.462-6a.309.309 0 01-.161-.273V27.4a.319.319 0 01.161-.276.332.332 0 01.319 0l10.46 6a.32.32 0 01.156.275v12.028a.313.313 0 01-.156.273.319.319 0 01-.157.042m2.954.058a.311.311 0 00.161-.042l10.462-6a.309.309 0 00.161-.273V27.454a.319.319 0 00-.161-.276.332.332 0 00-.319 0l-10.46 6a.32.32 0 00-.156.275v12.029a.313.313 0 00.156.273.319.319 0 00.157.042" class="msportalfx-svg-c01" fill="#fff"/>
    <path d="M32.316 49.322a.306.306 0 01-.157-.045l-10.494-6.014a.315.315 0 01-.159-.276.308.308 0 01.159-.27l10.427-5.976a.325.325 0 01.315 0l10.5 6.018a.317.317 0 01.158.27.321.321 0 01-.158.275l-10.432 5.973a.312.312 0 01-.159.045" class="msportalfx-svg-c01" fill="#fff"/>
    <path d="M32.316 41a.306.306 0 01-.157-.045l-10.494-6.011a.315.315 0 01-.159-.276.308.308 0 01.159-.27l10.427-5.976a.325.325 0 01.315 0L42.9 34.44a.317.317 0 01.158.27.321.321 0 01-.158.275l-10.425 5.973a.312.312 0 01-.159.045" class="msportalfx-svg-c01" fill="#fff"/>
    <path d="M30.808 48.461a.311.311 0 01-.161-.042l-10.462-6a.309.309 0 01-.161-.273V30.118a.319.319 0 01.161-.276.332.332 0 01.319 0l10.46 6a.32.32 0 01.156.275v12.029a.313.313 0 01-.156.273.319.319 0 01-.157.042m2.961 0a.331.331 0 01-.161-.042.314.314 0 01-.157-.273V36.191a.321.321 0 01.157-.275l10.458-5.994a.328.328 0 01.32 0 .318.318 0 01.156.272v11.955a.316.316 0 01-.156.273l-10.462 6a.291.291 0 01-.156.042" class="msportalfx-svg-c15" fill="#59b4d9"/>
    <path d="M33.768 48.461a.331.331 0 01-.161-.042.314.314 0 01-.157-.273V36.191a.321.321 0 01.157-.275l10.458-5.994a.328.328 0 01.32 0 .318.318 0 01.156.272v11.955a.316.316 0 01-.156.273l-10.462 6a.291.291 0 01-.156.042" opacity=".5" class="msportalfx-svg-c01" fill="#fff"/>
    <path d="M32.316 33.842a.306.306 0 01-.157-.045l-10.494-6.015a.315.315 0 01-.159-.276.308.308 0 01.159-.27l10.427-5.976a.325.325 0 01.315 0l10.5 6.018a.317.317 0 01.158.27.321.321 0 01-.158.275L32.475 33.8a.312.312 0 01-.159.045" class="msportalfx-svg-c16" fill="#3999c6"/>
</svg>
