<svg xmlns="http://www.w3.org/2000/svg" viewBox="0 0 50 50" class="fxs-portal-svg">
    <path d="M0 2h11v11H0zm13 0h12v11H13zm14 0h11v11H27zM0 15h11v11H0zm13 0h12v11H13zm14 0h11v11H27zM0 28h11v12H0zm13 0h12v12H13zm14 0h11v12H27z" class="msportalfx-svg-c19" fill="#0072c6"/>
    <circle cx="32.3" cy="35.1" r="13.5" stroke="#59b4d9" stroke-miterlimit="10" stroke-width=".194" class="msportalfx-svg-c15" fill="#59b4d9"/>
    <path d="M45.849 34.636l-4.522-4.522a1.581 1.581 0 00-2.348 0 1.653 1.653 0 000 2.348l-1.739-1.739a1.66 1.66 0 00-2.348 2.348l3.908 3.913.783.783 1.3 1.3a1.66 1.66 0 01-2.348 2.348l-1.3-1.3-.522-.522-.7-.7a1.66 1.66 0 00-2.348 2.348l2.7 2.7a1.66 1.66 0 10-2.348 2.348l1.917 1.911a13.213 13.213 0 009.914-13.567zm-22.154 3.897a2 2 0 000-2.957L21.521 33.4a2 2 0 002.957 0 2.137 2.137 0 00.435-2.348l2.957 2.957a2 2 0 002.957 0 2.073 2.073 0 000-2.957l-2.609-2.783a2 2 0 010-2.957 2.073 2.073 0 012.957 0l1.391 1.391a2.091 2.091 0 002.957-2.957l-1.993-2.193a12.889 12.889 0 00-11.076 4.053A13.6 13.6 0 0018.8 36.671l1.851 1.949a2.179 2.179 0 003.044-.087z" class="msportalfx-svg-c13" fill="#b8d432"/>
</svg>
