<svg xmlns="http://www.w3.org/2000/svg" viewBox="0 0 50 50" class="fxs-portal-svg">
    <path d="M45.139 23.099a10.94 10.94 0 00.777-4.041c0-6.058-4.905-10.969-10.956-10.969-1.682 0-3.27.391-4.694 1.069C27.898 6.087 24.195 4.1 20.02 4.1c-7.151 0-12.948 5.804-12.948 12.964 0 .581.052 1.149.125 1.71C3.053 20.339.1 24.334.1 29.031.1 35.089 5.005 40 11.056 40h29.88c4.951 0 8.964-4.018 8.964-8.975a8.974 8.974 0 00-4.761-7.926z" class="msportalfx-svg-c15" fill="#59b4d9"/>
    <path d="M18 20h14v20.05H18z" class="msportalfx-svg-c01" fill="#fff"/>
    <path opacity=".4" d="M34.938 18.847l-9.678-5.689s-.412-.21-.596-.21C23.747 12.947 23 13 23 14.738V20h10v20h3V20.422c0-.7-.424-1.324-1.062-1.575z" class="msportalfx-svg-c01" fill="#fff"/>
    <path d="M34.544 18.767l-9.667-5.684c-.431-.149-.877.184-.877.655v33.57c0 .471.446.804.877.655l9.667-5.684a.687.687 0 00.456-.654V19.422a.69.69 0 00-.456-.655z" class="msportalfx-svg-c19" fill="#0072c6"/>
</svg>
