<svg width="49" height="49" fill="none" xmlns="http://www.w3.org/2000/svg">
    <path d="M38.637 18.187c2.777 0 5.316.714 7.617 2.063v-.08L39.43 8.27h-5.395c0 2.221-.793 4.443-2.3 6.109l2.538 4.364c1.35-.397 2.857-.556 4.364-.556zm-28.248 5.716a4.8 4.8 0 011.507 0l2.301-3.967 3.253-5.713c-1.507-1.666-2.3-3.808-2.3-6.03H9.674L2.852 20.095l2.935 5.077c1.428-.793 3.015-1.27 4.602-1.27zm10.395-7.065l-4.999 8.727c2.142 1.508 3.65 3.809 3.967 6.427h3.73c.396-4.84 3.094-8.966 6.981-11.425l-2.142-3.73a8.94 8.94 0 01-7.537 0zm2.937 19.203h-4.284c-.714 2.3-2.222 4.205-4.285 5.395l2.54 4.443h12.376a15.025 15.025 0 01-6.347-9.838z" fill="#59B3D8"/>
    <path d="M27.82 11.587a4.681 4.681 0 10-6.62-6.62 4.681 4.681 0 006.62 6.62zm11.895 26.304a4.681 4.681 0 10-2.152-9.111 4.681 4.681 0 002.152 9.111zm-26-1.221a4.681 4.681 0 10-6.62-6.62 4.681 4.681 0 006.62 6.62z" fill="#414141"/>
    <path d="M34.191 18.824l.794 1.349 2.3 3.967c.477-.08.953-.08 1.429 0 1.666 0 3.253.476 4.681 1.27l2.777-5.158c-2.222-1.27-4.84-2.063-7.617-2.063-1.428 0-2.935.16-4.364.635z" fill="#59B3D8"/>
    <path d="M34.191 18.824l.794 1.349 2.3 3.967c.477-.08.953-.08 1.429 0 1.666 0 3.253.476 4.681 1.27l2.777-5.158c-2.222-1.27-4.84-2.063-7.617-2.063-1.428 0-2.935.16-4.364.635z" fill="#8BC9E0"/>
    <path d="M30.067 45.88h1.19l2.54-4.364c-2.064-1.19-3.571-3.174-4.206-5.475h-5.95a15.425 15.425 0 006.426 9.838z" fill="#59B3D8"/>
    <path d="M30.067 45.88h1.19l2.54-4.364c-2.064-1.19-3.571-3.174-4.206-5.475h-5.95a15.425 15.425 0 006.426 9.838z" fill="#8BC9E0"/>
    <path d="M23.484 31.994h5.792a9.4 9.4 0 014.047-6.427l-2.936-4.999c-3.808 2.46-6.427 6.586-6.903 11.425z" fill="#59B3D8"/>
    <path d="M23.484 31.994h5.792a9.4 9.4 0 014.047-6.427l-2.936-4.999c-3.808 2.46-6.427 6.586-6.903 11.425z" fill="#8BC9E0"/>
</svg>
