<svg xmlns="http://www.w3.org/2000/svg" width="50" height="50">
    <path fill="#3E3E3E" d="M49.5 41.419L46 34V9.51a2.41 2.41 0 00-2.41-2.41l-37.18.026A2.41 2.41 0 004 9.536V34L.5 41.419A1 1 0 001.314 43h47.372a1 1 0 00.814-1.581z"/>
    <path opacity=".6" fill="#FFF" d="M29.596 40h-9.191c-.3 0-.495-.261-.361-.482l.808-1.333a.414.414 0 01.36-.185h7.576c.153 0 .293.071.361.184l.808 1.333c.134.222-.061.483-.361.483z"/>
    <path fill="#59B4D9" d="M7 10h36v24H7z"/>
    <path opacity=".8" fill="#FFF" d="M7 10h36v24H7z"/>
    <path fill="#7FBA00" d="M15.339 21.928l-.632-.729a.505.505 0 01.026-.682l1.824-1.798a.425.425 0 01.631.028l5.017 5.734 8.632-11.784a.435.435 0 01.354-.184c.105 0 .199.037.277.103l1.973 1.623a.464.464 0 01.172.314.49.49 0 01-.096.35L22.431 30.032l-7.092-8.104z"/>
    <path opacity=".15" d="M15.339 21.928l-.632-.729a.505.505 0 01.026-.682l1.824-1.798a.425.425 0 01.631.028l5.017 5.734 8.632-11.784a.435.435 0 01.354-.184c.105 0 .199.037.277.103l1.973 1.623a.464.464 0 01.172.314.49.49 0 01-.096.35L22.431 30.032l-7.092-8.104z"/>
</svg>
