<svg xmlns="http://www.w3.org/2000/svg" width="50" height="50">
    <path fill="#7A7A7A" d="M33 38H19.271c1.649 5.999-.566 6.859-10.271 6.859V48h33v-3.141c-9.705 0-10.656-.857-9.005-6.859"/>
    <path fill="#A0A1A2" d="M46.98 2H2.719C1.215 2 .002 3.345.002 4.847v31.329c0 1.493 1.213 2.823 2.717 2.823H46.98c1.501 0 3.021-1.33 3.021-2.823V4.847C50.001 3.341 48.481 2 46.98 2"/>
    <path opacity=".2" fill="#FFF" d="M47.011 2.003l-.031-.002H2.718C1.214 2.001.001 3.345.001 4.848v31.328C.001 37.67 1.214 39 2.718 39h1.053l43.24-36.997z"/>
    <path fill="#59B4D9" d="M46 6v29H4V6z"/>
    <path fill="#A0A1A2" d="M9 45h33v3H9z"/>
    <path fill="#B8D432" d="M25.518 4.095a.71.71 0 11-1.42 0 .71.71 0 011.42 0"/>
    <path fill="#FFF" d="M25.028 19.394a.278.278 0 01-.134-.038l-8.804-5.082a.267.267 0 010-.461l8.751-5.049a.268.268 0 01.263 0l8.807 5.084a.264.264 0 01.131.23.262.262 0 01-.131.23l-8.748 5.048a.273.273 0 01-.135.038"/>
    <path opacity=".7" fill="#FFF" d="M23.763 31.746a.251.251 0 01-.134-.036l-8.778-5.066a.26.26 0 01-.136-.231V16.247c0-.096.051-.183.136-.231a.263.263 0 01.268 0l8.777 5.064a.28.28 0 01.13.233v10.166a.272.272 0 01-.13.231.28.28 0 01-.133.036"/>
    <path opacity=".4" fill="#FFF" d="M26.248 31.746a.287.287 0 01-.138-.036.27.27 0 01-.129-.231V21.377c0-.094.051-.182.129-.231l8.777-5.064a.26.26 0 01.264 0 .263.263 0 01.135.23v10.101a.261.261 0 01-.135.231l-8.774 5.066a.239.239 0 01-.129.036"/>
</svg>
