<?xml version="1.0" encoding="UTF-8" standalone="no"?>
<!-- Generator: Adobe Illustrator 19.0.0, SVG Export Plug-In . SVG Version: 6.00 Build 0)  -->

<svg
   xmlns:dc="http://purl.org/dc/elements/1.1/"
   xmlns:cc="http://creativecommons.org/ns#"
   xmlns:rdf="http://www.w3.org/1999/02/22-rdf-syntax-ns#"
   xmlns:svg="http://www.w3.org/2000/svg"
   xmlns="http://www.w3.org/2000/svg"
   xmlns:sodipodi="http://sodipodi.sourceforge.net/DTD/sodipodi-0.dtd"
   xmlns:inkscape="http://www.inkscape.org/namespaces/inkscape"
   version="1.1"
   id="Layer_1"
   x="0px"
   y="0px"
   viewBox="0 0 512 512"
   style="enable-background:new 0 0 512 512;"
   xml:space="preserve"
   sodipodi:docname="csharp.svg"
   inkscape:version="0.92.1 r15371"><metadata
     id="metadata47"><rdf:RDF><cc:Work
         rdf:about=""><dc:format>image/svg+xml</dc:format><dc:type
           rdf:resource="http://purl.org/dc/dcmitype/StillImage" /><dc:title></dc:title></cc:Work></rdf:RDF></metadata><defs
     id="defs45" /><sodipodi:namedview
     pagecolor="#ffffff"
     bordercolor="#666666"
     borderopacity="1"
     objecttolerance="10"
     gridtolerance="10"
     guidetolerance="10"
     inkscape:pageopacity="0"
     inkscape:pageshadow="2"
     inkscape:window-width="986"
     inkscape:window-height="676"
     id="namedview43"
     showgrid="false"
     inkscape:zoom="0.4609375"
     inkscape:cx="256"
     inkscape:cy="256"
     inkscape:window-x="383"
     inkscape:window-y="330"
     inkscape:window-maximized="0"
     inkscape:current-layer="Layer_1" /><path
     style="fill:#0072c6;fill-opacity:1;stroke-width:0.88135594"
     d="M 256,30.37288 C 131.5878,30.37288 30.37288,131.5878 30.37288,256 30.37288,380.4122 131.5878,481.62712 256,481.62712 380.4122,481.62712 481.62712,380.4122 481.62712,256 481.62712,131.5878 380.4122,30.37288 256,30.37288 Z"
     id="path2"
     inkscape:connector-curvature="0" /><path
     style="fill:#2687cf;fill-opacity:1;stroke-width:0.88135594"
     d="M 256,481.62712 C 380.4122,481.62712 481.62712,380.4122 481.62712,256 481.62712,131.5878 380.4122,30.37288 256,30.37288"
     id="path4"
     inkscape:connector-curvature="0" /><g
     id="g10"
     transform="matrix(1.269489,0,0,1.269489,-60.384192,-63.031151)"><path
       style="fill:#ffffff"
       d="m 216.879,271.796 c -0.91,2.428 -2.162,4.501 -3.719,6.158 -1.583,1.683 -3.387,3.075 -5.364,4.138 -1.996,1.075 -4.096,1.853 -6.244,2.314 -6.279,1.346 -12.199,0.739 -16.95,-1.678 -3.128,-1.588 -5.804,-3.745 -7.953,-6.409 -2.168,-2.682 -3.842,-5.824 -4.979,-9.341 -1.145,-3.532 -1.726,-7.279 -1.726,-11.14 0,-3.44 0.503,-6.958 1.495,-10.456 0.98,-3.46 2.499,-6.604 4.513,-9.341 1.994,-2.707 4.586,-4.936 7.706,-6.622 4.583,-2.48 10.732,-3.187 17.683,-1.899 2.195,0.41 4.352,1.136 6.407,2.162 2.029,1.017 3.909,2.409 5.588,4.137 1.658,1.711 3.015,3.917 4.032,6.56 l 0.578,1.502 26.392,-18.775 -0.512,-0.967 c -4.1,-7.754 -10.41,-14.069 -18.755,-18.768 -8.326,-4.684 -18.281,-7.059 -29.59,-7.059 -9.445,0 -17.977,1.732 -25.363,5.147 -7.363,3.408 -13.72,7.926 -18.893,13.428 -5.174,5.505 -9.165,11.812 -11.862,18.747 -2.695,6.924 -4.061,14.069 -4.061,21.232 0,7.488 1.45,14.96 4.307,22.212 2.856,7.254 6.951,13.828 12.172,19.541 5.221,5.719 11.521,10.375 18.725,13.839 7.223,3.474 15.298,5.236 23.999,5.236 4.939,0 10.086,-0.612 15.299,-1.818 5.21,-1.206 10.166,-2.988 14.731,-5.297 4.582,-2.319 8.724,-5.23 12.312,-8.652 3.625,-3.459 6.374,-7.427 8.167,-11.793 l 0.408,-0.995 -28.02,-16.741 z"
       id="path6"
       inkscape:connector-curvature="0" /><path
       style="fill:#ffffff"
       d="M 376.695,250.268 V 226.666 H 356.43 l 7.468,-29.708 h -27.094 l -7.307,29.708 H 313.97 l 7.468,-29.708 h -27.095 l -7.305,29.708 h -24.135 v 23.602 h 18.35 l -2.672,11.626 h -23.957 v 25.225 h 17.836 l -6.818,27.598 h 27.092 l 6.656,-27.598 h 15.529 l -6.818,27.598 h 27.092 l 6.656,-27.598 h 26.564 v -25.225 h -20.46 l 2.672,-11.626 z m -52.982,0 -2.672,11.626 h -15.545 l 2.672,-11.626 z"
       id="path8"
       inkscape:connector-curvature="0" /></g><g
     id="g12"
     transform="matrix(0.88135593,0,0,0.88135593,30.37288,30.37288)" /><g
     id="g14"
     transform="matrix(0.88135593,0,0,0.88135593,30.37288,30.37288)" /><g
     id="g16"
     transform="matrix(0.88135593,0,0,0.88135593,30.37288,30.37288)" /><g
     id="g18"
     transform="matrix(0.88135593,0,0,0.88135593,30.37288,30.37288)" /><g
     id="g20"
     transform="matrix(0.88135593,0,0,0.88135593,30.37288,30.37288)" /><g
     id="g22"
     transform="matrix(0.88135593,0,0,0.88135593,30.37288,30.37288)" /><g
     id="g24"
     transform="matrix(0.88135593,0,0,0.88135593,30.37288,30.37288)" /><g
     id="g26"
     transform="matrix(0.88135593,0,0,0.88135593,30.37288,30.37288)" /><g
     id="g28"
     transform="matrix(0.88135593,0,0,0.88135593,30.37288,30.37288)" /><g
     id="g30"
     transform="matrix(0.88135593,0,0,0.88135593,30.37288,30.37288)" /><g
     id="g32"
     transform="matrix(0.88135593,0,0,0.88135593,30.37288,30.37288)" /><g
     id="g34"
     transform="matrix(0.88135593,0,0,0.88135593,30.37288,30.37288)" /><g
     id="g36"
     transform="matrix(0.88135593,0,0,0.88135593,30.37288,30.37288)" /><g
     id="g38"
     transform="matrix(0.88135593,0,0,0.88135593,30.37288,30.37288)" /><g
     id="g40"
     transform="matrix(0.88135593,0,0,0.88135593,30.37288,30.37288)" /></svg>