<?xml version="1.0" encoding="utf-8"?>
<!-- Generator: Adobe Illustrator 17.0.0, SVG Export Plug-In . SVG Version: 6.00 Build 0)  -->
<!DOCTYPE svg PUBLIC "-//W3C//DTD SVG 1.1//EN" "http://www.w3.org/Graphics/SVG/1.1/DTD/svg11.dtd">
<svg version="1.1"
	 id="svg2" xmlns:dc="http://purl.org/dc/elements/1.1/" xmlns:cc="http://creativecommons.org/ns#" xmlns:rdf="http://www.w3.org/1999/02/22-rdf-syntax-ns#" xmlns:svg="http://www.w3.org/2000/svg" xmlns:sodipodi="http://sodipodi.sourceforge.net/DTD/sodipodi-0.dtd" xmlns:inkscape="http://www.inkscape.org/namespaces/inkscape" inkscape:version="0.48.0 r9654" sodipodi:docname="headshot.svg"
	 xmlns="http://www.w3.org/2000/svg" xmlns:xlink="http://www.w3.org/1999/xlink" x="0px" y="0px" width="180px" height="180px"
	 viewBox="0 0 180 180" enable-background="new 0 0 180 180" xml:space="preserve">
<sodipodi:namedview  inkscape:cy="28.333333" inkscape:cx="85.437483" inkscape:zoom="2.67" showgrid="false" guidetolerance="10" gridtolerance="10" objecttolerance="10" bordercolor="#666666" pagecolor="#ffffff" borderopacity="1" id="namedview4" inkscape:current-layer="g10" inkscape:window-maximized="0" inkscape:window-y="562" inkscape:window-x="2281" inkscape:window-height="844" inkscape:window-width="1500" inkscape:pageshadow="2" inkscape:pageopacity="0">
	</sodipodi:namedview>
<g id="layer1" inkscape:label="background" inkscape:groupmode="layer" display="none">
	<path id="path26-6" inkscape:connector-curvature="0" display="inline" fill="#231F20" d="M21.51,69.511
		C3.511,87.927-7.626,113.354-7.626,141.484l0,0c0,28.124,11.138,53.554,29.137,71.967l0,0
		c18.007,18.413,42.824,29.775,70.261,29.775l0,0c27.437,0,52.256-11.362,70.262-29.775l0,0
		c17.998-18.413,29.138-43.843,29.138-71.967l0,0c0-28.13-11.14-53.557-29.138-71.973l0,0
		c-18.006-18.409-42.825-29.771-70.262-29.773l0,0C64.335,39.74,39.518,51.101,21.51,69.511L21.51,69.511z M16.954,217.905
		C-2.174,198.342-14,171.306-14,141.484l0,0c0-29.827,11.826-56.861,30.954-76.425l0,0c19.124-19.568,45.597-31.696,74.817-31.693
		l0,0c29.22-0.004,55.696,12.125,74.816,31.693l0,0c19.13,19.564,30.957,46.6,30.955,76.425l0,0
		c0.002,29.823-11.825,56.859-30.955,76.421l0,0c-19.121,19.566-45.596,31.694-74.816,31.694l0,0
		C62.551,249.598,36.078,237.471,16.954,217.905L16.954,217.905"/>
	<path id="path22" inkscape:connector-curvature="0" display="inline" fill="#D33833" d="M194.358,141.092
		c0,57.951-45.929,104.93-102.586,104.93c-56.656,0-102.585-46.979-102.585-104.93c0-57.952,45.929-104.932,102.585-104.932
		C148.429,36.16,194.358,83.14,194.358,141.092"/>
	<path id="path24" inkscape:connector-curvature="0" display="inline" fill="#EF3D3A" d="M-6.632,167.08
		c0,0-7.426-109.424,93.401-112.551l-7.034-11.724L25.023,61.172L9.391,79.149l-13.678,26.185l-7.817,30.483l2.345,20.321"/>
	<path id="path26" inkscape:connector-curvature="0" display="inline" fill="#231F20" d="M21.51,69.511
		C3.511,87.927-7.626,113.354-7.626,141.484l0,0c0,28.124,11.138,53.554,29.137,71.967l0,0
		c18.007,18.413,42.824,29.775,70.261,29.775l0,0c27.437,0,52.256-11.362,70.262-29.775l0,0
		c17.998-18.413,29.138-43.843,29.138-71.967l0,0c0-28.13-11.14-53.557-29.138-71.973l0,0
		c-18.006-18.409-42.825-29.771-70.262-29.773l0,0C64.335,39.74,39.518,51.101,21.51,69.511L21.51,69.511z M16.954,217.905
		C-2.174,198.342-14,171.306-14,141.484l0,0c0-29.827,11.826-56.861,30.954-76.425l0,0c19.124-19.568,45.597-31.696,74.817-31.693
		l0,0c29.22-0.004,55.696,12.125,74.816,31.693l0,0c19.13,19.564,30.957,46.6,30.955,76.425l0,0
		c0.002,29.823-11.825,56.859-30.955,76.421l0,0c-19.121,19.566-45.596,31.694-74.816,31.694l0,0
		C62.551,249.598,36.078,237.471,16.954,217.905L16.954,217.905"/>
</g>
<g id="g10" transform="matrix(1.25,0,0,-1.25,0,180)" inkscape:label="front" inkscape:groupmode="layer">
	<path id="path28" inkscape:connector-curvature="0" fill="#F0D6B7" d="M107.965,30.661l-12.506-1.876l-16.883-1.876l-10.943-0.312
		l-10.629,0.312l-8.129,2.501l-7.191,7.816l-5.628,15.945l-1.25,3.439l-7.503,2.501l-4.377,7.191L19.798,76.62l3.44,9.067
		l8.128,2.814l6.565-3.127l3.127-6.878l3.752,0.626l1.25,1.563l-1.25,7.191l-0.313,9.067l1.876,12.505l-0.073,7.143L52,125.704
		l10.005,7.191l17.508,7.503l19.383-2.814l16.883-12.193l7.817-12.505l5.002-9.067l1.25-22.51l-3.752-19.384l-6.878-17.195
		l-6.565-9.067"/>
	<path id="path30" inkscape:connector-curvature="0" fill="#335061" d="M97.334-23.425l-44.709-1.876v-7.503l3.752-26.262
		l-1.876-2.189l-31.264,10.63l-2.189,3.752l-3.126,35.328l-7.19,21.26l-1.564,5.002L34.18,31.911l7.817,3.127l6.878-8.441
		l5.94-5.315l6.879-2.188l3.126-0.938L68.57,1.899l2.814-3.439l7.191,2.501l-5.003-9.693l27.2-12.818L97.334-23.425"/>
	<path id="path32" inkscape:connector-curvature="0" fill="#6D6B6D" d="M23.238,85.687l8.128,2.814l6.565-3.127l3.127-6.878
		l3.752,0.626l0.938,3.752l-1.876,7.19l1.876,17.196l-1.564,9.379l5.628,6.565l12.193,9.692l-3.439,4.69l-17.195-8.441l-7.191-5.628
		l-4.064-8.754l-6.253-8.441l-1.876-10.005L23.238,85.687"/>
	<path id="path34" inkscape:connector-curvature="0" fill="#DCD9D8" d="M36.055,115.075c0,0,4.69,11.567,23.448,17.195
		s0.938,4.065,0.938,4.065l-20.321-7.817l-7.817-7.816l-3.438-6.253L36.055,115.075"/>
	<path id="path36" inkscape:connector-curvature="0" fill="#DCD9D8" d="M26.676,87.875c0,0-6.565,21.886,18.446,25.012l-0.938,3.752
		l-17.195-4.065l-5.003-16.257l1.251-10.63L26.676,87.875"/>
	<path id="path38" inkscape:connector-curvature="0" fill="#F7E4CD" d="M36.681,58.799l4.094,3.966c0,0,1.848-0.215,2.16-2.403
		c0.312-2.189,1.25-21.886,14.694-32.516c1.226-0.97-10.004,1.564-10.004,1.564L37.619,45.042"/>
	<path id="path40" inkscape:connector-curvature="0" fill="#F7E4CD" d="M94.209,64.739c0,0,0.729,9.477,3.281,8.748
		c2.552-0.729,2.552-3.281,2.552-3.281S93.844,66.196,94.209,64.739"/>
	<path id="path42" inkscape:connector-curvature="0" fill="#F7E4CD" d="M120.157,99.442c0,0-5.153-1.088-5.628-5.628
		c-0.475-4.541,5.628-0.938,6.565-0.626"/>
	<path id="path44" inkscape:connector-curvature="0" fill="#F7E4CD" d="M82.327,99.129c0,0-6.879-0.938-6.879-5.314
		c0-4.377,7.817-4.065,10.005-2.189"/>
	<path id="path46" inkscape:connector-curvature="0" fill="#F7E4CD" d="M39.807,78.808c0,0-11.881,7.191-13.131,0.312
		c-1.25-6.878-4.065-11.881,1.876-19.071l-4.064,1.25l-3.752,9.692l-1.25,9.379l7.19,7.504l8.129-0.626l4.69-3.752L39.807,78.808"/>
	<path id="path48" inkscape:connector-curvature="0" fill="#F7E4CD" d="M45.435,98.504c0,0,5.315,27.512,32.203,32.827
		c22.136,4.375,33.765-0.938,38.142-5.94c0,0-19.696,23.447-38.455,16.257c-18.759-7.191-32.514-20.322-32.202-28.762
		C45.655,98.51,45.435,98.504,45.435,98.504"/>
	<path id="path50" inkscape:connector-curvature="0" fill="#F7E4CD" d="M117.969,122.266c0,0-9.066,0.312-9.379-7.817
		c0,0-0.001-1.25,0.625-2.501c0,0,7.192,8.129,11.568,3.752"/>
	<path id="path52" inkscape:connector-curvature="0" fill="#F7E4CD" d="M78.268,111.102c0,0-1.561,12.477-12.199,5.223
		c-6.878-4.69-6.252-11.255-5.002-12.505c1.25-1.251,0.91-3.77,1.862-2.041c0.951,1.729,0.638,7.356,4.078,8.919
		C70.446,112.261,76.084,114.007,78.268,111.102"/>
	<path id="path54" inkscape:connector-curvature="0" fill="#49728B" d="M48.874,26.597L19.486,13.466c0,0,12.193-48.46,5.94-63.467
		l-4.377,1.563l-0.313,18.446L12.608,5.024l-3.44,9.693L39.807,35.35L48.874,26.597"/>
	<path id="path56" inkscape:connector-curvature="0" fill="#49728B" d="M51.896-0.206l4.169-5.087v-18.759h-5.003
		c0,0-0.625,13.131-0.625,14.695c0,1.563,0.625,7.191,0.625,7.191"/>
	<path id="path58" inkscape:connector-curvature="0" fill="#49728B" d="M52-26.866L37.931-27.49l4.065-2.814L52-31.867"/>
	<path id="path60" inkscape:connector-curvature="0" fill="#335061" d="M100.148-23.739l11.567,0.313l2.814-28.764l-11.881-1.563
		L100.148-23.739"/>
	<path id="path62" inkscape:connector-curvature="0" fill="#335061" d="M103.274-23.739l17.508,0.938c0,0,7.19,18.133,7.19,19.071
		s6.253,26.262,6.253,26.262l-14.069,14.694l-2.814,2.501l-7.503-7.503V3.148L103.274-23.739"/>
	<path id="path64" inkscape:connector-curvature="0" fill="#49728B" d="M111.09-21.55l-10.942-2.188l1.563-8.755
		c4.064-1.876,10.943,3.127,10.943,3.127"/>
	<path id="path66" inkscape:connector-curvature="0" fill="#49728B" d="M111.403,33.162l21.885-16.257l0.626,7.503l-16.57,15.319
		L111.403,33.162"/>
	<path id="path68" inkscape:connector-curvature="0" fill="#FFFFFF" d="M62.85-85.332l-6.473,26.266l-3.219,19.38l-0.532,14.385
		l29.296,1.56l18.226,0.003l-1.657-32.83l2.814-25.324l-0.312-4.69l-23.76-1.876L62.85-85.332"/>
	<path id="path70" inkscape:connector-curvature="0" fill="#DCD9D8" d="M96.083-23.426c0,0-1.563-32.515,3.127-55.65
		c0,0-9.379-5.941-23.136-7.503l26.262,0.938l3.126,1.876l-3.752,51.273l-0.938,10.944"/>
	<path id="path72" inkscape:connector-curvature="0" fill="#FFFFFF" d="M115.062-49.691l12.193,3.439l23.135,1.25l3.439,10.629
		l-6.253,18.446l-7.19,0.938l-10.005-3.126l-9.599-4.687l-5.096,0.935l-3.971-1.56"/>
	<path id="path74" inkscape:connector-curvature="0" fill="#DCD9D8" d="M114.841-43.435c0,0,8.128,3.751,9.379,3.438l-3.438,17.196
		l4.064,1.563c0,0,2.814-16.257,2.814-18.133c0,0,17.507-0.938,19.071-0.938c0,0,3.752,7.191,2.814,14.694l3.439-10.005l0.312-5.628
		l-5.002-7.503l-5.628-1.25l-9.379,0.313l-3.126,4.064l-10.943-1.563l-3.439-1.251"/>
	<path id="path76" inkscape:connector-curvature="0" fill="#FFFFFF" d="M102.556-21.241L95.678-3.733L88.487,6.585
		c0,0,1.563,4.377,3.752,4.377s7.191,0,7.191,0l6.878-2.501l-0.625-11.568L102.556-21.241"/>
	<path id="path78" inkscape:connector-curvature="0" fill="#DCD9D8" d="M103.9-15.297c0,0-8.755,16.882-8.755,19.383
		c0,0,1.563,3.752,3.752,2.814s6.879-3.438,6.879-3.438v5.94l-10.63,2.189l-7.19-0.938l12.193-28.763l2.501-0.313"/>
	<path id="path80" inkscape:connector-curvature="0" fill="#FFFFFF" d="M65.664,25.968l-8.661,0.942l-8.129,2.501v-2.814l3.972-4.38
		l12.506-5.628"/>
	<path id="path82" inkscape:connector-curvature="0" fill="#DCD9D8" d="M51.689,25.031c0,0,9.693-4.065,12.819-3.127l0.311-3.748
		l-8.752,1.872l-5.315,3.752L51.689,25.031"/>
	<path id="path84" inkscape:connector-curvature="0" fill="#D33833" d="M115.028,9.897c-5.305,0.156-10.098,0.786-14.294,1.97
		c0.285,1.72-0.249,3.408,0.18,4.647c1.17,0.842,3.13,0.829,4.898,1.027c-1.529,0.751-3.677,1.049-5.441,0.614
		c-0.041,1.194-0.577,1.934-0.901,2.868c2.983,1.065,10.024,8.044,13.984,5.733c1.887-1.099,2.689-7.378,2.835-10.431
		C116.412,13.793,116.06,11.239,115.028,9.897"/>
	<path id="path86" inkscape:connector-curvature="0" fill="none" stroke="#D33833" stroke-width="2" d="M115.028,9.897
		c-5.305,0.156-10.098,0.786-14.294,1.97c0.285,1.72-0.249,3.408,0.18,4.647c1.17,0.842,3.13,0.829,4.898,1.027
		c-1.529,0.751-3.677,1.049-5.441,0.614c-0.041,1.194-0.577,1.934-0.901,2.868c2.983,1.065,10.024,8.044,13.984,5.733
		c1.887-1.099,2.689-7.378,2.835-10.431C116.412,13.793,116.06,11.239,115.028,9.897z"/>
	<path id="path88" inkscape:connector-curvature="0" fill="#D33833" d="M89.66,18.569c-0.014-0.401-0.031-0.806-0.047-1.211
		c-1.656-1.088-4.33-1.075-6.148-1.989c2.68-0.117,4.789-0.763,6.614-1.672c-0.04-1.011-0.079-2.021-0.118-3.032
		c-3.036-2.078-5.81-5.174-9.384-7.123c-1.69-0.922-7.622-3.294-9.42-2.875c-1.017,0.236-1.109,1.499-1.516,2.689
		c-0.866,2.548-2.861,6.605-3.035,10.441c-0.222,4.845-0.711,12.966,4.511,11.968c4.213-0.804,9.112-2.744,12.374-4.526
		C85.483,20.149,86.636,18.802,89.66,18.569"/>
	<path id="path90" inkscape:connector-curvature="0" fill="none" stroke="#D33833" stroke-width="2" d="M89.66,18.569
		c-0.014-0.401-0.031-0.806-0.047-1.211c-1.656-1.088-4.33-1.075-6.148-1.989c2.68-0.117,4.789-0.763,6.614-1.672
		c-0.04-1.011-0.079-2.021-0.118-3.032c-3.036-2.078-5.81-5.174-9.384-7.123c-1.69-0.922-7.622-3.294-9.42-2.875
		c-1.017,0.236-1.109,1.499-1.516,2.689c-0.866,2.548-2.861,6.605-3.035,10.441c-0.222,4.845-0.711,12.966,4.511,11.968
		c4.213-0.804,9.112-2.744,12.374-4.526C85.483,20.149,86.636,18.802,89.66,18.569z"/>
	<path id="path92" inkscape:connector-curvature="0" fill="#D33833" d="M92.675,12.788c-0.463,2.639-0.999,3.392-0.792,5.695
		C98.923,23.176,100.245,10.422,92.675,12.788"/>
	<path id="path94" inkscape:connector-curvature="0" fill="none" stroke="#D33833" stroke-width="2" d="M92.675,12.788
		c-0.463,2.639-0.999,3.392-0.792,5.695C98.923,23.176,100.245,10.422,92.675,12.788z"/>
	<path id="path96" inkscape:connector-curvature="0" fill="#EF3D3A" d="M102.868,10.649c0,0-2.189,3.127-0.626,4.065
		c1.564,0.938,3.127-0.001,4.065,1.563c0.938,1.564,0,2.501,0.312,4.377s1.877,2.189,3.439,2.501
		c1.563,0.312,5.941,0.938,6.565-0.626l-1.876,5.628l-3.752,1.25l-11.881-6.878l-0.626-3.439v-6.878"/>
	<path id="path98" inkscape:connector-curvature="0" fill="#EF3D3A" d="M70.041,0.331c-0.376,4.879-0.773,9.752-1.215,14.626
		c-0.662,7.278,1.748,6.008,8.057,6.008c0.964,0,5.933-1.149,6.289-1.876c1.705-3.483-2.851-2.709,1.964-5.335
		c4.065-2.216,11.246,1.346,9.603,6.273c-0.919,1.095-4.789,0.341-6.176,1.061c-2.442,1.266-4.885,2.532-7.327,3.799
		c-3.108,1.612-10.29,3.963-13.603,1.71c-8.395-5.709,0.53-19.974,3.525-25.93"/>
	<path id="path100" inkscape:connector-curvature="0" fill="#231F20" d="M78.268,111.102c-8.521,1.985-12.755-3.566-15.338-9.323
		c-2.306,0.559-1.389,3.695-0.806,5.294c1.525,4.194,7.672,9.778,12.694,9.021C76.979,115.768,79.904,113.792,78.268,111.102"/>
	<path id="path102" inkscape:connector-curvature="0" fill="#231F20" d="M119.786,101.398c0.134-0.006,0.27-0.01,0.404-0.016
		c1.926-4,3.592-8.238,6.021-11.769c-1.627-3.79-12.322-7.144-12.157-0.339c2.313,1.011,6.306,0.206,8.356,1.498
		C121.225,94.026,119.514,96.795,119.786,101.398"/>
	<path id="path104" inkscape:connector-curvature="0" fill="#231F20" d="M82.63,101.294c1.827-3.349,2.422-6.868,5.019-9.4
		c1.17-1.14,3.444-2.529,2.317-5.698c-0.264-0.748-2.189-2.414-3.301-2.742c-4.06-1.199-13.521-0.248-10.317,4.814
		c3.358-0.157,7.871-2.181,10.381,0.257C84.802,91.607,81.365,97.702,82.63,101.294"/>
	<path id="path106" inkscape:connector-curvature="0" fill="#231F20" d="M118.262,67.253c-6.113-3.927-12.93-8.197-22.947-7.207
		c-2.14,1.861-2.956,6.002-0.877,8.737c1.082-1.861,0.402-5.283,3.419-5.798c5.684-0.973,12.299,3.477,16.387,5.032
		c2.535,4.274-0.219,5.846-2.502,8.597c-4.676,5.636-10.947,12.622-10.72,21.059c1.89,1.37,2.053-2.092,2.324-2.722
		c2.441-5.714,8.586-13.021,13.07-17.912c1.101-1.204,2.914-2.36,3.116-3.156C120.114,71.567,118.019,68.793,118.262,67.253"/>
	<path id="path108" inkscape:connector-curvature="0" fill="#231F20" d="M37.668,71.387c-1.916,1.094-2.372,5.911-4.622,6.048
		c-3.215,0.195-2.629-6.249-2.616-10.018c-2.213,2.009-2.602,8.195-0.976,11.371c-1.853,0.91-2.68-1.004-3.708-1.678
		C27.066,86.705,39.782,81.561,37.668,71.387"/>
	<path id="path110" inkscape:connector-curvature="0" fill="#231F20" d="M122.155,63.257c-2.846-5.417-6.871-11.382-15.222-11.555
		c-0.17,1.749-0.3,4.411,0.009,5.464C113.325,57.779,117.267,61.028,122.155,63.257"/>
	<path id="path112" inkscape:connector-curvature="0" fill="#231F20" d="M82.149,59.745c5.326-2.801,15.114-3.102,22.353-2.89
		c0.388-1.586,0.379-3.545,0.394-5.479C95.591,50.912,84.589,53.215,82.149,59.745"/>
	<path id="path114" inkscape:connector-curvature="0" fill="#231F20" d="M81.136,54.523c3.683-9.247,16.341-8.182,27.016-7.927
		c-0.47-1.201-1.488-2.619-2.755-3.132c-3.421-1.392-12.855-2.448-17.604,0.074c-3.012,1.601-4.947,5.219-6.597,7.339
		C80.4,51.901,76.432,54.517,81.136,54.523"/>
	<path id="path116" inkscape:connector-curvature="0" fill="#81B0C4" d="M117.818,3.516c-4.322-7.402-8.457-15.005-13.585-21.534
		c2.15,6.321,3.07,16.9,3.394,24.965C112.124,9.051,115.975,6.473,117.818,3.516"/>
	<path id="path118" inkscape:connector-curvature="0" fill="#231F20" d="M141.074-23.089c-4.839-0.969-8.239-5.671-12.959-5.37
		C130.709-24.801,135.255-23.259,141.074-23.089"/>
	<path id="path120" inkscape:connector-curvature="0" fill="#231F20" d="M143.209-30.661c-3.944-0.417-8.576-1.055-12.577-0.726
		C132.526-28.495,139.822-29.493,143.209-30.661"/>
	<path id="path122" inkscape:connector-curvature="0" fill="#231F20" d="M144.576-37.19c-4.433-0.096-9.942-0.008-14.155,0.346
		C132.913-34.168,141.701-35.851,144.576-37.19"/>
	<path id="path124" inkscape:connector-curvature="0" fill="#DCD9D8" d="M109.478-55.057c0.636-5.567,2.843-11.207,2.566-17.304
		c-2.451-0.826-3.859-1.549-7.142-1.545c-0.232,5.181-0.925,13.102-0.718,18.041C105.799-55.971,108.18-54.711,109.478-55.057"/>
	<path id="path126" inkscape:connector-curvature="0" fill="#F0D6B7" d="M102.331,26.985c-2.226-1.453-4.121-3.267-6.259-4.818
		c-4.74-0.234-7.327,0.328-10.81,3.05c0.057,0.219,0.407,0.121,0.42,0.389C90.757,23.345,97.208,26.528,102.331,26.985"/>
	<path id="path128" inkscape:connector-curvature="0" fill="#81B0C4" d="M75.694-7.603c1.394,6.041,6.857,9.17,11.817,12.497
		c5.12-6.498,8.234-14.855,11.663-22.919C91.073-15.583,82.794-11.621,75.694-7.603"/>
	<path id="path130" inkscape:connector-curvature="0" fill="#231F20" d="M104.184-55.865c-0.207-4.939,0.486-12.86,0.718-18.041
		c3.284-0.004,4.692,0.718,7.142,1.545c0.277,6.097-1.93,11.737-2.566,17.304C108.18-54.711,105.799-55.971,104.184-55.865z
		 M53.054-27.775c2.165-19.906,5.301-36.639,11.054-54.266c12.766-3.876,28.157-4.214,39.441-0.716
		c-2.072,9.949-1.167,22.061-2.378,32.677c-0.913,7.98-0.447,16.009-1.699,24.15C85.799-23.085,66.472-25.265,53.054-27.775z
		 M102.705-26.055c-0.115-8.549,0.383-16.982,1.035-25.542c3.283,0.493,5.51,0.822,8.56,1.49c-0.99,8.241-0.869,17.513-2.886,24.803
		C107.083-25.325,105.03-25.276,102.705-26.055z M119.358-24.677c-1.558,0.357-3.372,0.014-4.86-0.015
		c0.7-6.969,2.397-14.659,2.995-21.974c2.342-0.073,3.593,1.032,5.52,1.403C123.115-38.841,122.451-29.995,119.358-24.677z
		 M144.573-47.715c4.882,1.186,7.952,7.165,6.586,13.305c-0.916,4.127-2.548,11.898-4.295,14.538
		c-1.291,1.953-4.79,4.509-7.584,2.72c-4.545-2.91-12.552-3.755-15.867-7.278c1.662-5.534,2.178-13.135,2.863-20.146
		c5.678-0.354,12.665,1.563,17.387-0.471c-3.297-1.068-7.575-1.076-10.423-2.633C135.569-48.805,141.019-48.578,144.573-47.715
		L144.573-47.715z M99.174-18.026C95.745-9.961,92.631-1.605,87.511,4.893C82.551,1.567,77.088-1.562,75.694-7.603
		C82.794-11.621,91.073-15.583,99.174-18.026z M107.627,6.947c-0.325-8.065-1.245-18.644-3.394-24.965
		c5.128,6.529,9.263,14.132,13.585,21.534C115.975,6.473,112.124,9.051,107.627,6.947z M98.045,10.351
		c-1.942,0.209-3.591-2.233-6.117-1.177c-0.579-0.64-1.105-1.333-1.695-1.957c5.579-6.723,8.114-16.262,12.423-24.163
		c2.312,7.59,2.046,15.904,2.555,24.188C102.034,7.04,100.272,10.115,98.045,10.351z M91.884,18.483
		c-0.207-2.303,0.328-3.056,0.792-5.695C100.245,10.422,98.923,23.176,91.884,18.483z M83.49,21.239
		c-3.261,1.782-8.161,3.723-12.374,4.526c-5.222,0.999-4.732-7.123-4.511-11.968c0.174-3.836,2.169-7.893,3.035-10.441
		c0.407-1.19,0.498-2.453,1.516-2.689c1.798-0.419,7.73,1.953,9.42,2.875c3.575,1.949,6.348,5.044,9.384,7.123
		c0.039,1.011,0.078,2.021,0.118,3.032c-1.825,0.91-3.935,1.555-6.614,1.672c1.818,0.914,4.492,0.901,6.148,1.989
		c0.016,0.405,0.033,0.809,0.047,1.211C86.636,18.802,85.483,20.149,83.49,21.239z M52.338,26.897
		c-2.707-2.748,7.592-6.494,10.871-6.696c-0.018,1.739,0.991,3.378,0.788,4.626C60.103,25.511,54.984,25.06,52.338,26.897z
		 M85.683,25.607c-0.013-0.268-0.363-0.171-0.42-0.389c3.483-2.722,6.069-3.285,10.81-3.05c2.138,1.551,4.033,3.365,6.259,4.818
		C97.208,26.528,90.757,23.345,85.683,25.607z M116.29,16.326c-0.146,3.053-0.948,9.331-2.835,10.431
		c-3.961,2.312-11.002-4.668-13.984-5.733c0.325-0.934,0.86-1.674,0.901-2.868c1.764,0.434,3.912,0.137,5.441-0.614
		c-1.768-0.198-3.728-0.185-4.898-1.027c-0.429-1.239,0.105-2.927-0.18-4.647c4.196-1.184,8.989-1.814,14.294-1.97
		C116.06,11.239,116.412,13.793,116.29,16.326z M47.781,24.239c-0.85,0.606-6.6,8.088-7.388,7.777
		c-10.405-4.103-20.134-11.199-28.828-17.91C19.854-3.68,23.2-25.472,23.792-46.476c9.496-4.441,17.836-10.844,30.722-11.512
		c-1.491,10.55-2.852,19.962-3.699,29.895c-3.238,1.365-7.883-0.062-10.913,0.423c-0.026,3.651,4.627,1.599,5.015,4.054
		c0.292,1.857-2.56,1.998-1.631,4.922c2.369-0.861,3.613-2.763,6.139-3.477c2.308,5.05-0.032,13.985,0.3,18.205
		c0.063,0.792,0.396,4.39,2.171,3.759c1.571-0.559-0.09-9.569,0.082-13.563c0.157-3.68-0.444-7.241,1.046-9.552
		c12.451,1.695,25.104,2.79,38.576,3.16c-2.964,1.272-6.485,2.475-10.345,4.651c-2.093,1.18-8.689,3.634-9.293,5.622
		c-0.964,3.167,2.528,4.854,3.125,7.57c-6.285-3.428-7.511,3.286-8.998,8.042c-1.347,4.308-2.114,7.526-2.445,10.01
		C58.23,18.315,52.442,20.929,47.781,24.239z M110.791,31.111c8.669,4.204,10.232-15.711,6.834-22.127
		c0.525-1.913,2.332-2.646,3.069-4.366c-4.838-8.666-10.211-16.756-15.148-25.32c3.672,2.286,8.917,0.409,13.238,2.12
		c1.579,0.625,2.723,4.24,3.919,7.133c3.289,7.958,6.743,17.991,8.279,25.586c0.347,1.73,1.292,5.501,1.08,7.041
		c-0.378,2.758-4.119,4.802-6.022,6.507c-3.506,3.15-5.714,5.921-9.371,8.866C115.186,34.362,112.003,32.892,110.791,31.111z
		 M27.955,107.991c-4.131-4.545-3.266-13.062-2.766-19.121c7.467,4.697,17.377-0.371,17.284-8.361
		c3.565,0.095,1.332,4.452,0.687,7.26c-2.107,9.169,3.55,19.131,0.257,27.516C37.021,114.801,31.767,112.189,27.955,107.991z
		 M57.512,134.372c-9.352-2.651-21.337-9.446-25.18-17.847c2.976,0.432,5.041,1.933,7.977,2.119
		c1.109,0.072,2.563-0.465,3.838-0.148c2.541,0.63,4.685,6.327,6.602,8.447c1.869,2.07,4.114,2.954,5.651,4.842
		c0.987,0.476,2.447,0.444,2.504,1.926C58.476,134.168,58.025,134.517,57.512,134.372L57.512,134.372z M106.194,131.879
		c-9.707,5.477-26.136,9.596-36.462,4.449c-8.331-4.154-19.593-11.027-23.433-19.737c3.587-8.405-1.062-16.106-1.359-24.639
		c-0.158-4.541,2.138-8.504,2.314-13.447c-1.227-2.025-4.977-2.274-7.573-2.136c-0.874,4.373-2.403,9.287-6.906,9.781
		c-6.371,0.697-11.03-4.576-11.319-10.086c-0.343-6.48,4.977-17.22,12.517-16.475c2.913,0.288,3.628,3.208,6.802,3.178
		c1.72-3.432-2.653-4.51-3.103-6.964c-0.117-0.634,0.363-3.112,0.642-4.274c1.37-5.659,4.423-12.982,7.428-17.29
		c3.814-5.464,11.307-6.288,19.369-6.823c1.44,3.102,6.744,2.847,10.2,2.035c-4.142,1.64-7.993,5.617-11.184,9.137
		c-3.666,4.039-7.379,8.371-7.566,13.65c6.927-9.61,12.65-18.003,25.246-22.23c9.531-3.196,20.662,1.465,27.986,6.608
		c3.039,2.138,4.853,5.529,7.013,8.634c8.082,11.626,11.854,28.219,11.024,44.303c-0.341,6.633-0.326,13.244-2.552,17.706
		c-2.326,4.666-10.193,8.841-14.799,4.62c-0.854,4.538,3.83,7.344,9.33,5.711C115.885,122.65,111.769,128.733,106.194,131.879
		L106.194,131.879z M124.278-17.784c7.585,3.771,21.757,10.149,26.512-0.014c1.755-3.746,3.814-10.079,4.722-13.946
		c1.284-5.456-1.392-16.923-7-18.754c-4.953-1.617-10.733-1.518-16.699-0.32c-0.703,0.584-1.485,1.603-2.032,2.665
		c-4.26,0.165-8.249-0.229-11.614-1.98c0.319-3.15-1.812-3.656-3.81-4.305c-1.481-5.872,2.963-13.541,1.899-18.896
		c-0.759-3.815-5.452-4.405-8.902-5.118c-0.113-2.12,0.151-3.889,0.386-5.683c-0.789-2.906-4.327-4.561-7.679-4.966
		c-11.029-1.326-27.775-1.922-38.384,1.893c-2.96,7.261-5.292,16.093-7.758,24.384c-10.346-1.105-18.715,4.464-26.603,8.113
		c-2.731,1.266-6.51,1.964-7.53,4.138c-0.989,2.105-0.584,6.139-0.83,9.95c-0.625,9.733-1.16,19.121-3.73,29.086
		C14.075-7.065,12.063-3.119,10.66,1.19c-1.297,3.994-3.563,8.929-4.154,12.911c-0.876,5.902,4.682,6.231,8.235,8.788
		c5.494,3.955,9.806,6.142,15.756,9.712c1.762,1.057,7.077,3.733,7.681,4.965c1.202,2.443-2.063,5.888-2.935,7.804
		c-1.381,3.029-2.1,5.601-2.298,8.59c-4.991,0.789-8.775,3.759-11.06,7.109c-3.781,5.543-6.402,15.798-3.131,23.599
		c0.257,0.614,1.536,1.822,1.725,2.766c0.372,1.858-0.701,4.329-0.767,6.305c-0.344,10.139,1.715,18.875,8.541,21.932
		c2.771,11.038,12.688,14.709,22.032,20.195c3.493,2.05,7.343,3.361,11.319,4.824c14.264,5.25,36.15,4.261,47.988-4.692
		c5.02-3.797,13.044-11.813,15.914-17.617c7.58-15.323,7.042-40.931,1.74-59.571c-0.713-2.502-1.746-6.181-3.19-9.187
		c-1.006-2.099-4.134-6.299-3.755-8.152c0.391-1.916,7.132-7.034,8.577-8.428c2.603-2.511,7.548-5.843,7.948-9.012
		c0.431-3.372-1.486-7.985-2.456-11.238C131.124,1.933,127.957-8.103,124.278-17.784"/>
	<path id="path132" inkscape:connector-curvature="0" fill="#F7E4CD" d="M73.674,57.38c0.411,0.548,2.674,1.38,5.839-0.144
		c0,0-3.752-0.626-3.44-6.881l-1.563,0.313C74.51,50.668,72.895,56.34,73.674,57.38"/>
	<path id="path134" inkscape:connector-curvature="0" fill="#1D1919" d="M101.086,3.617c0-0.949-0.77-1.719-1.72-1.719
		c-0.949,0-1.719,0.77-1.719,1.719c0,0.949,0.77,1.72,1.719,1.72C100.316,5.337,101.086,4.566,101.086,3.617"/>
	<path id="path136" inkscape:connector-curvature="0" fill="#1D1919" d="M102.805-4.355c0-0.949-0.77-1.719-1.72-1.719
		c-0.949,0-1.719,0.77-1.719,1.719s0.77,1.72,1.719,1.72C102.035-2.635,102.805-3.406,102.805-4.355"/>
	<path id="rect3048" d="M14.269,2.097h54.757c0.434,0,0.786-0.352,0.786-0.786v-1.724c0-0.434-0.352-0.786-0.786-0.786H14.269
		c-0.434,0-0.786,0.352-0.786,0.786v1.724C13.483,1.745,13.835,2.097,14.269,2.097z"/>
	<path id="rect3048-5" d="M79.288,2.097h48.465c0.434,0,0.786-0.352,0.786-0.786v-1.724c0-0.434-0.352-0.786-0.786-0.786H79.288
		c-0.434,0-0.786,0.352-0.786,0.786v1.724C78.502,1.745,78.854,2.097,79.288,2.097z"/>
	<path id="rect3048-6" d="M14.269,3.697h53.259c0.434,0,0.786-0.352,0.786-0.786V1.188c0-0.434-0.352-0.786-0.786-0.786H14.269
		c-0.434,0-0.786,0.352-0.786,0.786v1.724C13.483,3.345,13.835,3.697,14.269,3.697z"/>
	<path id="rect3048-5-9" d="M84.082,3.697h43.671c0.434,0,0.786-0.352,0.786-0.786V1.188c0-0.434-0.352-0.786-0.786-0.786H84.082
		c-0.434,0-0.786,0.352-0.786,0.786v1.724C83.296,3.345,83.648,3.697,84.082,3.697z"/>
</g>
</svg>
