<?xml version="1.0" encoding="UTF-8" standalone="no"?>
<!DOCTYPE svg PUBLIC "-//W3C//DTD SVG 1.1//EN" "http://www.w3.org/Graphics/SVG/1.1/DTD/svg11.dtd">
<svg width="100%" height="100%" viewBox="0 0 151 151" version="1.1" xmlns="http://www.w3.org/2000/svg" xmlns:xlink="http://www.w3.org/1999/xlink" xml:space="preserve" xmlns:serif="http://www.serif.com/" style="fill-rule:evenodd;clip-rule:evenodd;stroke-linejoin:round;stroke-miterlimit:1.41421;">
    <g transform="matrix(1,0,0,1,-247.408,-297.688)">
        <clipPath id="_clip1">
            <path d="M318.707,302.139L262.534,334.562C260.43,335.775 259.139,338.015 259.139,340.437L259.139,405.327C259.139,407.75 260.43,409.989 262.534,411.202L318.711,443.65C320.811,444.859 323.4,444.859 325.497,443.65L381.665,411.202C383.759,409.989 385.052,407.749 385.052,405.327L385.052,340.437C385.052,338.015 383.759,335.775 381.652,334.562L325.492,302.139C324.439,301.535 323.265,301.233 322.092,301.233C320.919,301.233 319.745,301.535 318.692,302.139"/>
        </clipPath>
        <g clip-path="url(#_clip1)">
            <path d="M441.817,329.057L283.531,251.47L202.371,417.035L360.653,494.626L441.817,329.057Z" style="fill:url(#_Linear2);fill-rule:nonzero;"/>
        </g>
    </g>
    <g transform="matrix(1,0,0,1,-247.408,-297.688)">
        <clipPath id="_clip3">
            <path d="M260.531,409.447C261.068,410.145 261.74,410.749 262.531,411.202L310.717,439.035L318.744,443.649C319.944,444.342 321.312,444.635 322.656,444.535C323.104,444.499 323.552,444.415 323.989,444.291L383.235,335.811C382.781,335.318 382.251,334.905 381.656,334.558L344.875,313.318L325.432,302.131C324.88,301.811 324.281,301.585 323.672,301.425L260.531,409.447Z"/>
        </clipPath>
        <g clip-path="url(#_clip3)">
            <path d="M192.094,352.005L303.86,503.275L451.673,394.067L339.9,242.801L192.094,352.005Z" style="fill:url(#_Linear4);fill-rule:nonzero;"/>
        </g>
    </g>
    <g transform="matrix(1,0,0,1,-247.408,-297.688)">
        <clipPath id="_clip5">
            <path d="M321.421,301.27C320.479,301.363 319.557,301.657 318.708,302.139L262.695,334.469L323.095,444.482C323.935,444.362 324.761,444.082 325.508,443.65L381.681,411.202C383.415,410.197 384.601,408.495 384.961,406.567L323.388,301.381C322.935,301.291 322.481,301.245 322.015,301.245C321.828,301.245 321.641,301.254 321.455,301.271"/>
        </clipPath>
        <g clip-path="url(#_clip5)">
            <rect x="262.694" y="301.245" width="122.244" height="143.24" style="fill:url(#_Linear6);fill-rule:nonzero;"/>
        </g>
    </g>
    <defs>
        <linearGradient id="_Linear2" x1="0" y1="0" x2="1" y2="0" gradientUnits="userSpaceOnUse" gradientTransform="matrix(-81.1542,165.554,-165.554,-81.1542,-19164.6,-9282)"><stop offset="0" style="stop-color:rgb(62,134,61);stop-opacity:1"/><stop offset="0.3" style="stop-color:rgb(62,134,61);stop-opacity:1"/><stop offset="0.5" style="stop-color:rgb(85,147,79);stop-opacity:1"/><stop offset="0.8" style="stop-color:rgb(90,173,69);stop-opacity:1"/><stop offset="1" style="stop-color:rgb(90,173,69);stop-opacity:1"/></linearGradient>
        <linearGradient id="_Linear4" x1="0" y1="0" x2="1" y2="0" gradientUnits="userSpaceOnUse" gradientTransform="matrix(147.819,-109.221,109.221,147.819,19409.8,26361)"><stop offset="0" style="stop-color:rgb(62,134,61);stop-opacity:1"/><stop offset="0.57" style="stop-color:rgb(62,134,61);stop-opacity:1"/><stop offset="0.72" style="stop-color:rgb(97,152,87);stop-opacity:1"/><stop offset="1" style="stop-color:rgb(118,172,100);stop-opacity:1"/></linearGradient>
        <linearGradient id="_Linear6" x1="0" y1="0" x2="1" y2="0" gradientUnits="userSpaceOnUse" gradientTransform="matrix(122.226,0,0,122.226,262.803,29719.2)"><stop offset="0" style="stop-color:rgb(107,191,71);stop-opacity:1"/><stop offset="0.16" style="stop-color:rgb(107,191,71);stop-opacity:1"/><stop offset="0.38" style="stop-color:rgb(121,180,97);stop-opacity:1"/><stop offset="0.47" style="stop-color:rgb(117,172,100);stop-opacity:1"/><stop offset="0.7" style="stop-color:rgb(101,158,90);stop-opacity:1"/><stop offset="0.9" style="stop-color:rgb(62,134,61);stop-opacity:1"/><stop offset="1" style="stop-color:rgb(62,134,61);stop-opacity:1"/></linearGradient>
    </defs>
</svg>
