<?xml version="1.0" encoding="UTF-8" standalone="no"?>
<!-- Created with Inkscape (http://www.inkscape.org/) -->

<svg
   xmlns:dc="http://purl.org/dc/elements/1.1/"
   xmlns:cc="http://creativecommons.org/ns#"
   xmlns:rdf="http://www.w3.org/1999/02/22-rdf-syntax-ns#"
   xmlns:svg="http://www.w3.org/2000/svg"
   xmlns="http://www.w3.org/2000/svg"
   xmlns:sodipodi="http://sodipodi.sourceforge.net/DTD/sodipodi-0.dtd"
   xmlns:inkscape="http://www.inkscape.org/namespaces/inkscape"
   version="1.1"
   width="580"
   height="580"
   id="svg4472"
   sodipodi:docname="suse.svg"
   inkscape:version="0.92.1 r15371">
  <sodipodi:namedview
     pagecolor="#ffffff"
     bordercolor="#666666"
     borderopacity="1"
     objecttolerance="10"
     gridtolerance="10"
     guidetolerance="10"
     inkscape:pageopacity="0"
     inkscape:pageshadow="2"
     inkscape:window-width="1759"
     inkscape:window-height="914"
     id="namedview6967"
     showgrid="false"
     inkscape:zoom="0.52730998"
     inkscape:cx="269.29132"
     inkscape:cy="163.87794"
     inkscape:window-x="0"
     inkscape:window-y="0"
     inkscape:window-maximized="0"
     inkscape:current-layer="svg4472" />
  <defs
     id="defs4474" />
  <metadata
     id="metadata4477">
    <rdf:RDF>
      <cc:Work
         rdf:about="">
        <dc:format>image/svg+xml</dc:format>
        <dc:type
           rdf:resource="http://purl.org/dc/dcmitype/StillImage" />
        <dc:title></dc:title>
      </cc:Work>
    </rdf:RDF>
  </metadata>
  <g
     transform="translate(-83.990649,-221.40583)"
     id="layer1">
    <g
       transform="matrix(4.5126211,0,0,4.5126211,-1435.2769,-2076.7792)"
       id="g4497">
      <path
         d="m 349.82612,583.65342 c -3.81226,0 -6.90695,2.95238 -6.90695,6.58607 v 1.94322 c 0,3.48901 2.59744,5.92308 6.3163,5.92308 h 6.92398 c 0.93956,0 1.89286,0.56227 1.89286,1.6401 v 1.79213 c 0,1.00915 -0.98443,1.63369 -1.89286,1.63369 h -12.92306 v 3.06319 c 0,1.18406 0.99084,2.04395 2.34798,2.04395 h 11.48259 c 3.8434,0 6.96519,-2.95879 6.96519,-6.59157 v -2.60714 c 0,-3.54029 -2.28296,-5.56776 -6.26373,-5.56776 h -6.86812 c -1.19505,0 -2,-0.61355 -2,-1.53662 v -1.53297 c 0,-0.8837 1.02839,-1.68498 2.15842,-1.68498 h 11.07875 v -3.06685 c 0,-1.27747 -0.75,-2.03754 -2.00641,-2.03754 h -10.30494"
         id="path3111"
         style="fill:#333333;fill-opacity:1;fill-rule:evenodd;stroke:none"
         inkscape:connector-curvature="0" />
      <path
         d="m 386.4314,589.8036 c -1.2152,0 -2.06135,0.92216 -2.06135,2.2445 v 9.02472 c 0,1.15934 -0.99451,2.09889 -2.21337,2.09889 h -6.17582 c -1.21795,0 -2.21245,-0.93955 -2.21245,-2.09889 v -9.02472 c 0,-1.28022 -1.38919,-2.2445 -2.6282,-2.2445 h -1.23627 c -1.2152,0 -2.06593,0.92216 -2.06593,2.2445 v 9.38644 c 0,4.44138 2.87362,6.99724 7.87362,6.99724 h 0.80861 c 2.33424,0 4.26556,-0.96703 5.67398,-1.67582 0.81502,-0.40385 1.46154,-0.72802 1.89286,-0.72802 0.15842,0 0.54212,0.0311 0.74542,0.32417 l 1.40568,1.92674 h 1.92673 c 1.5641,0 2.13095,-1.25274 2.13095,-2.09523 V 592.0481 c 0,-1.28022 -1.38919,-2.2445 -2.6282,-2.2445 h -1.23626"
         id="path3113"
         style="fill:#333333;fill-opacity:1;fill-rule:evenodd;stroke:none"
         inkscape:connector-curvature="0" />
      <path
         d="m 401.14292,583.65342 c -3.80585,0 -6.90658,2.95238 -6.90658,6.58607 v 1.94322 c 0,3.48901 2.59706,5.92308 6.31959,5.92308 h 6.92398 c 0.93956,0 1.89286,0.56227 1.89286,1.6401 v 1.79213 c 0,1.00915 -0.9881,1.63369 -1.89286,1.63369 h -12.92306 v 3.06319 c 0,1.18406 0.98718,2.04395 2.3489,2.04395 h 11.48167 c 3.83974,0 6.96245,-2.95879 6.96245,-6.59157 v -2.60714 c 0,-3.54029 -2.28297,-5.56776 -6.26465,-5.56776 h -6.86904 c -1.19414,0 -1.99542,-0.61355 -1.99542,-1.53662 v -1.53297 c 0,-0.8837 1.02564,-1.68498 2.15476,-1.68498 h 11.36538 v -3.06685 c 0,-1.20146 -0.93956,-2.03754 -2.2903,-2.03754 h -10.30768"
         id="path3115"
         style="fill:#333333;fill-opacity:1;fill-rule:evenodd;stroke:none"
         inkscape:connector-curvature="0" />
      <path
         d="m 426.1896,583.65342 c -3.80494,0 -6.90933,2.95238 -6.90933,6.58607 v 11.44779 c 0,3.63278 3.10439,6.59157 6.90933,6.59157 h 9.65933 c 1.36081,0 2.34524,-0.85897 2.34524,-2.04395 v -3.06319 h -10.98534 c -1.17399,0 -2,-0.77747 -2,-1.8956 0,0 0,-2.76282 0,-3.11813 0.39103,0 13.16482,0 13.16482,0 1.94414,0 3.52564,-1.50915 3.52564,-3.37087 v -4.54762 c 0,-3.63369 -3.09798,-6.58607 -6.90658,-6.58607 z m -0.98077,6.94413 c 0,-1.01831 0.87821,-1.84066 1.9478,-1.84066 h 6.86538 c 1.07418,0 1.9478,0.82235 1.9478,1.84066 0,0 0,2.56319 0,2.91483 -0.37912,0 -10.38094,0 -10.76098,0 0,-0.35164 0,-2.91483 0,-2.91483"
         id="path3117"
         style="fill:#333333;fill-opacity:1;fill-rule:evenodd;stroke:none"
         inkscape:connector-curvature="0" />
      <path
         d="m 450.07328,554.10308 v 0 c -2.26557,-0.0833 -4.04304,-1.99267 -3.96795,-4.2619 0.0348,-1.09798 0.50458,-2.11355 1.3022,-2.86263 0.80128,-0.75 1.84706,-1.14011 2.94596,-1.0989 2.26832,0.0797 4.0467,1.98626 3.9707,4.25823 -0.0339,1.09524 -0.49726,2.10989 -1.29762,2.86264 -0.80495,0.74725 -1.85165,1.13736 -2.95329,1.10256 z m 0.95329,-3.72618 c 1.00824,0 1.82692,-0.54579 1.82692,-1.21612 0,-0.67308 -0.81868,-1.21886 -1.82692,-1.21886 -1.00824,0 -1.82326,0.54578 -1.82326,1.21886 0,0.67033 0.81502,1.21612 1.82326,1.21612"
         id="path3119"
         style="fill:#73ba25;fill-opacity:1;fill-rule:nonzero;stroke:none"
         inkscape:connector-curvature="0" />
      <path
         d="m 402.70336,578.25599 0.14927,-0.0137 0.0238,-0.17583 c -0.0376,-0.13827 -0.12729,-0.26282 -0.26557,-1.97527 -0.11721,-1.51648 -0.35531,-5.67399 1.73718,-7.73625 0.81135,-0.80403 2.05036,-1.51923 3.02838,-1.75092 4.01007,-0.9771 9.21428,-0.30036 13.65842,4.83882 2.29303,2.65476 3.41849,3.86722 3.98168,4.40934 l 0.19322,0.17949 0.23535,0.16941 c 0.18315,0.10348 7.63827,3.53663 7.63827,3.53663 l 0.15201,-0.0385 0.004,-0.16209 c -0.0485,-0.0549 -4.72435,-6.09523 -3.8956,-11.07142 0.65568,-3.96428 3.81227,-3.60805 8.17399,-3.1108 1.42674,0.16209 3.04944,0.3489 4.7271,0.38645 4.68589,0.0275 9.73534,-0.83242 12.84706,-2.19322 2.01281,-0.88004 3.29761,-1.46063 4.10256,-2.19231 0.28937,-0.23901 0.4423,-0.63187 0.59706,-1.0467 l 0.10715,-0.27931 c 0.13095,-0.33516 0.32143,-1.05311 0.40384,-1.44322 0.0385,-0.17307 0.0559,-0.35989 -0.0659,-0.45238 l -0.43132,0.0797 c -1.36355,0.81868 -4.7793,2.38004 -7.9771,2.44139 -3.96062,0.0824 -11.94504,-3.98443 -12.77746,-4.41666 l -0.0797,-0.0925 c -0.20055,-0.47711 -1.39926,-3.31227 -1.65109,-3.90934 5.74633,3.78388 10.51189,5.87729 14.16207,6.20146 4.06135,0.36264 7.22801,-1.85439 8.58149,-2.80036 0.26557,-0.18041 0.46703,-0.32509 0.54945,-0.35623 l 0.0861,-0.14102 c -0.22445,-1.42674 -2.34807,-8.33333 -3.95063,-9.99084 -0.44597,-0.45604 -0.80128,-0.89835 -1.52015,-1.31959 -5.80494,-3.3837 -19.58697,-5.42857 -20.23258,-5.52197 l -0.1108,0.0311 -0.0412,0.0971 c 0,0 -0.0522,2.85897 -0.0586,3.17765 -1.40842,-0.46978 -11.64101,-3.77472 -21.23441,-4.10952 -8.13278,-0.28626 -19.24266,-0.67362 -34.94136,8.9749 l -0.46245,0.2903 c -7.38369,4.60713 -12.47984,10.28387 -15.14651,16.88734 -0.83516,2.07509 -1.96153,6.7619 -0.8489,11.17124 0.48352,1.93131 1.37821,3.86446 2.587,5.59798 2.72435,3.91574 7.30036,6.51647 12.22801,6.95512 6.9542,0.62179 12.22526,-2.50366 14.0998,-8.35347 1.28754,-4.03755 0,-9.9597 -4.93864,-12.98076 -4.01648,-2.46245 -8.33974,-1.90018 -10.8434,-0.24542 -2.1749,1.44322 -3.40842,3.68131 -3.38369,6.14377 0.0476,4.3608 3.8086,6.68222 6.50915,6.68497 0.78754,0 1.57509,-0.13461 2.46611,-0.42399 0.31411,-0.0971 0.61447,-0.21429 0.94231,-0.4185 l 0.10073,-0.065 0.065,-0.0385 -0.0238,0.011 c 0.61814,-0.41483 0.99085,-1.0989 0.99085,-1.83058 0,-0.20055 -0.0311,-0.40385 -0.0861,-0.60806 -0.31777,-1.10165 -1.40843,-1.77106 -2.54121,-1.5641 l -0.15201,0.0311 -0.20696,0.0687 -0.30037,0.10073 c -0.62179,0.15568 -1.09157,0.16575 -1.18864,0.16941 -0.31685,-0.0211 -1.87454,-0.48718 -1.87454,-2.19322 v -0.0202 c 0.004,-0.62545 0.25549,-1.0641 0.39377,-1.30219 0.47985,-0.76008 1.80586,-1.5055 3.59798,-1.34707 2.3489,0.19963 4.0412,1.40567 5.163,3.67765 1.04304,2.11355 0.77014,4.71062 -0.70147,6.61721 -1.46062,1.88828 -4.06043,2.68956 -7.52105,2.31318 -3.48809,-0.38278 -6.43681,-2.3901 -8.0879,-5.51464 -1.6163,-3.05311 -1.70605,-6.6749 -0.23169,-9.45878 3.53296,-6.66483 10.20146,-6.59615 13.85805,-5.96337 5.41483,0.93498 10.32966,5.26923 12.51555,11.03296 0.3489,0.91849 0.52747,1.64743 0.68315,2.31043 l 0.23535,0.99817 6.11538,2.98718 0.0824,0.0559 v 0 z m 43.47157,-32.5311 v 0 c -1.15385,1.07051 -1.81319,2.53113 -1.86813,4.10622 -0.10715,3.24633 2.44139,5.98076 5.68772,6.10164 1.5815,0.0522 3.07967,-0.50366 4.22985,-1.5815 1.15018,-1.07417 1.81044,-2.53113 1.86813,-4.10256 0.11081,-3.25 -2.43864,-5.98809 -5.69047,-6.1053 -1.57509,-0.0513 -3.07784,0.50366 -4.2271,1.5815"
         id="path3121"
         style="fill:#73ba25;fill-opacity:1;fill-rule:evenodd;stroke:none"
         inkscape:connector-curvature="0" />
    </g>
  </g>
</svg>
