<?xml version="1.0" encoding="iso-8859-1"?><!DOCTYPE svg PUBLIC "-//W3C//DTD SVG 1.1//EN" "http://www.w3.org/Graphics/SVG/1.1/DTD/svg11.dtd"><svg version="1.1"
	 id="svg1402" xmlns:inkscape="http://www.inkscape.org/namespaces/inkscape" xmlns:svg="http://www.w3.org/2000/svg" xmlns:sodipodi="http://inkscape.sourceforge.net/DTD/sodipodi-0.dtd" xmlns:cc="http://web.resource.org/cc/" xmlns:dc="http://purl.org/dc/elements/1.1/" xmlns:rdf="http://www.w3.org/1999/02/22-rdf-syntax-ns#" sodipodi:version="0.32" sodipodi:docbase="/home/marian/Desktop/Bilder" sodipodi:docname="Ubuntu-Logo ohne Schriftzug.svg" inkscape:version="0.41"
	 xmlns="http://www.w3.org/2000/svg" xmlns:xlink="http://www.w3.org/1999/xlink" x="0px" y="0px" width="275.689px"
	 height="274.539px" viewBox="11.811 12.73 275.689 274.539" style="enable-background:new 11.811 12.73 275.689 274.539;"
	 xml:space="preserve"><a xlink:href="http://logo.webnhanh.com/logo/ubuntu-icon.svg.html" target="_blank"><sodipodi:namedview  id="base" inkscape:cx="153.66371" inkscape:zoom="1.0000000" inkscape:cy="180.15753" borderopacity="0.0000000" pagecolor="#ffffff" bordercolor="#666666" inkscape:document-units="px" inkscape:current-layer="layer1" inkscape:window-y="81" inkscape:window-x="5" inkscape:window-height="542" inkscape:window-width="640" inkscape:pageshadow="2" inkscape:pageopacity="0.0"></sodipodi:namedview><ellipse id="circle69" sodipodi:rx="9.1239996" sodipodi:cx="9.1239996" sodipodi:cy="46.903999" sodipodi:ry="9.1239996" style="fill:#FF6309;" cx="40.158" cy="150.022" rx="28.347" ry="26.52"></ellipse><ellipse id="circle71" sodipodi:rx="9.1239996" sodipodi:cx="74.547997" sodipodi:cy="84.667000" sodipodi:ry="9.1239996" style="fill:#FFB515;" cx="238.479" cy="260.747" rx="28.347" ry="26.521"></ellipse><path id="path73" style="fill:#FF6309;" d="M172.369,83.824c34.439,0,63.014,24.735,67.745,56.803H287.5
	c-2.152-25.198-12.953-48.684-31.01-67.207c-11.565,5.697-25.785,5.806-37.865-0.938c-12.089-6.752-19.104-18.727-19.776-31.276
	c-8.581-1.936-17.448-2.938-26.479-2.938c-17.29,0-33.998,3.651-49.195,10.573l23.723,39.745
	C154.775,85.519,163.373,83.824,172.369,83.824z"/><path id="path75" style="fill:#C90016;" d="M240.117,159.387c-4.72,32.08-33.299,56.83-67.748,56.83
	c-9.002,0-17.602-1.694-25.48-4.768l-23.727,39.748c15.193,6.926,31.908,10.579,49.205,10.579c9.035,0,17.914-1.009,26.5-2.944
	c0.66-12.563,7.678-24.559,19.775-31.314c12.084-6.75,26.31-6.641,37.877-0.932c18.043-18.525,28.832-42.01,30.978-67.199H240.117
	L240.117,159.387z"/><path id="path77" style="fill:#FFB515;" d="M103.934,150.021c0-21.09,10.249-39.906,26.179-52.036l-23.717-39.739
	c-5.562,3.759-10.825,8.014-15.727,12.752c-13.726,13.276-23.569,29.307-28.986,46.802c10.913,6.838,18.139,18.707,18.139,32.221
	c0,13.512-7.227,25.384-18.14,32.219c5.417,17.496,15.26,33.525,28.986,46.803c4.898,4.738,10.155,8.986,15.714,12.748
	l23.721-39.742C114.177,189.92,103.934,171.104,103.934,150.021z"/><ellipse id="circle79" sodipodi:rx="9.1239996" sodipodi:cx="74.540001" sodipodi:cy="9.1260004" sodipodi:ry="9.1239996" style="fill:#C90016;" cx="238.456" cy="39.252" rx="28.346" ry="26.522"></ellipse></a></svg>
