<svg xmlns="http://www.w3.org/2000/svg" viewBox="0 0 18 18"><defs><linearGradient id="a" x1="13.308" y1="8.911" x2="13.308" y2="17.61" gradientUnits="userSpaceOnUse"><stop offset="0" stop-color="#32d4f5"/><stop offset="1" stop-color="#198ab3"/></linearGradient></defs><path fill="#773adc" d="M14.207 4.408v8.016l-6.889 4.028V8.424l6.889-4.016z"/><path fill="#b796f9" d="M14.207 4.408L7.319 8.435.43 4.407 7.319.379l6.888 4.029z"/><path fill="#a67af4" d="M7.318 8.435v8.017L.43 12.424V4.407l6.888 4.028z"/><path d="M16.273 10.589l.042.042a.076.076 0 00.1 0l.4-.339.737-1.211a.077.077 0 00-.011-.094l-.115-.115a.077.077 0 00-.1-.009l-1.156.77-.325.423a.075.075 0 00.007.1l.044.044-2.4 2.471-.495-.513-.548.568a.983.983 0 01-.257.786.867.867 0 01-.75.275L9.13 16.174a.152.152 0 000 .212l1.142 1.188a.152.152 0 00.22 0l2.3-2.392a.94.94 0 01.274-.787.87.87 0 01.751-.275l.549-.567-.494-.512z" fill="#198ab3"/><path d="M17.219 16.018l-.572-.587-3.639-3.758-.181-.193a2.03 2.03 0 00-.475-2 1.882 1.882 0 00-1.692-.543.076.076 0 00-.041.129l.952.969a.077.077 0 01.02.072l-.253.995a.077.077 0 01-.054.055l-.975.269a.077.077 0 01-.075-.021l-.93-.962a.077.077 0 00-.131.04A2 2 0 009.7 12.23a1.851 1.851 0 001.848.494l.037.036.2.212 4.169 4.363a.863.863 0 001.221.042q.021-.019.042-.042a.909.909 0 00.256-.659.994.994 0 00-.254-.658z" fill="url(#a)"/></svg>