<svg xmlns="http://www.w3.org/2000/svg" viewBox="0 0 16 16"><path d="M8 0l1.2.2 1.1.4.9.7.7.9a3.6 3.6 0 01.4 1.1 5 5 0 01.2 1.2 5 5 0 01-.2 1.2 4.2 4.2 0 01-.4 1l-.7.8a2.3 2.3 0 01-.7.7l-.7.7-.7.7a3.6 3.6 0 00-.4.9 3.6 3.6 0 00-.2 1V13h-1v-1.5a5 5 0 01.2-1.2 4.2 4.2 0 01.4-1l.7-.8.7-.7.7-.7a2.3 2.3 0 00.7-.7 3.6 3.6 0 00.4-.9 3.6 3.6 0 00.2-1 3.2 3.2 0 00-.3-1.4 4.1 4.1 0 00-.7-1.1 4.1 4.1 0 00-1.1-.7A3.2 3.2 0 008 1a3.2 3.2 0 00-1.4.3 4.1 4.1 0 00-1.1.7 4.1 4.1 0 00-.7 1.1 3.2 3.2 0 00-.3 1.4h-1a5 5 0 01.2-1.2 3.6 3.6 0 01.4-1.1l.7-.9.9-.7L6.8.2zm-.5 15h1v1h-1z"/></svg>