<svg xmlns="http://www.w3.org/2000/svg" viewBox="0 0 15.55 15.55"><path d="M15.55 5.39c-.17.17-.34.33-.51.47a2.8 2.8 0 01-.5.37 2.7 2.7 0 01-.58.23 2.84 2.84 0 01-.69.08 2.76 2.76 0 01-.51 0l-3 3a6 6 0 01.15.61 4.44 4.44 0 010 .63 3.76 3.76 0 01-.1.92 3.3 3.3 0 01-.29.78 3.57 3.57 0 01-.47.7 9.1 9.1 0 01-.61.68l-3-3-4.38 4.34-1.06.35.35-1.07 4.45-4.43-3-3 .35-.35a4.09 4.09 0 011.26-.84 3.9 3.9 0 011.48-.29 3.85 3.85 0 011.22.2l3-3a2.78 2.78 0 010-.51 3 3 0 01.08-.69A2.06 2.06 0 019.32 1a3.46 3.46 0 01.36-.5c.15-.16.3-.33.48-.5zm-2.28.15a1.8 1.8 0 00.81-.2l-3.87-3.87a1.76 1.76 0 00-.2.81 1.36 1.36 0 00.05.41c0 .13.07.26.11.4L6.33 6.92 6 6.77l-.34-.11a2.33 2.33 0 00-.36-.08 2.38 2.38 0 00-.39 0 3.16 3.16 0 00-.91.1 3.25 3.25 0 00-.77.38l5.25 5.26a2.85 2.85 0 00.39-.78 2.74 2.74 0 00.13-.85 2.6 2.6 0 000-.4 2.33 2.33 0 00-.08-.36 2.3 2.3 0 00-.12-.34 3.59 3.59 0 00-.15-.37l3.84-3.84.4.11a1.7 1.7 0 00.38.05z"/></svg>