<svg xmlns="http://www.w3.org/2000/svg" viewBox="0 0 14 16"><path d="M9.4 9.4a6.9 6.9 0 011.9 1 7.5 7.5 0 011.5 1.6 5.6 5.6 0 01.9 1.9A7.1 7.1 0 0114 16h-1a6.4 6.4 0 00-.5-2.4 7.6 7.6 0 00-1.2-1.9 7.6 7.6 0 00-1.9-1.2A6.4 6.4 0 007 10l-1.6.2-1.5.6-1.2.9-.9 1.2-.6 1.5A7.8 7.8 0 001 16H0a8.3 8.3 0 01.3-2.2 6.4 6.4 0 011-1.8 7 7 0 011.4-1.6l1.9-1-1.1-.8-.8-1a5 5 0 01-.5-1.3A5.1 5.1 0 012 5a4.1 4.1 0 01.4-1.9 3.8 3.8 0 011.1-1.6A3.8 3.8 0 015.1.4 4.1 4.1 0 017 0a4.1 4.1 0 011.9.4 3.8 3.8 0 011.6 1.1 3.8 3.8 0 011.1 1.6A4.1 4.1 0 0112 5a5.1 5.1 0 01-.2 1.3 5 5 0 01-.5 1.3l-.8 1zM3 5a4.1 4.1 0 00.3 1.6 3.4 3.4 0 00.9 1.2 3.4 3.4 0 001.2.9A4.1 4.1 0 007 9a4.1 4.1 0 001.6-.3 3.4 3.4 0 001.2-.9 3.4 3.4 0 00.9-1.2A4.1 4.1 0 0011 5a4.1 4.1 0 00-.3-1.6 3.4 3.4 0 00-.9-1.2 3.4 3.4 0 00-1.2-.9A4.1 4.1 0 007 1a4.1 4.1 0 00-1.6.3 3.4 3.4 0 00-1.2.9 3.4 3.4 0 00-.9 1.2A4.1 4.1 0 003 5z"/></svg>