<svg xmlns="http://www.w3.org/2000/svg" viewBox="0 0 16 16"><path d="M9.34 7.34A1.4 1.4 0 019.5 8a1.48 1.48 0 01-.12.59 1.52 1.52 0 01-.79.79 1.51 1.51 0 01-1.18 0 1.52 1.52 0 01-.79-.79 1.51 1.51 0 010-1.18 1.52 1.52 0 01.79-.79A1.48 1.48 0 018 6.5a1.4 1.4 0 01.66.16L11 4.27s.63-.62 1-.27-.27 1-.27 1L9.35 7.35zM8 8.5a.49.49 0 00.35-.15.48.48 0 000-.7A.49.49 0 008 7.5a.5.5 0 000 1z"/><path d="M8 .5A7.5 7.5 0 1015.5 8 7.5 7.5 0 008 .5zm0 14A6.5 6.5 0 1114.5 8 6.51 6.51 0 018 14.5z"/><path d="M5.56 4.85a3.9 3.9 0 011.94-.8v-1a5 5 0 00-2.65 1.09zm-.71 5.59a3.9 3.9 0 01-.8-1.94h-1a5 5 0 001.09 2.65zm-.8-2.94a3.9 3.9 0 01.8-1.94l-.71-.71A5 5 0 003.05 7.5zm7.95 1a3.9 3.9 0 01-.8 1.94l.71.71A5 5 0 0013 8.5zm-.33-2.05a4.06 4.06 0 01.28 1h1a5.17 5.17 0 00-.54-1.79z"/></svg>