<svg xmlns="http://www.w3.org/2000/svg" viewBox="0 0 14 14"><path d="M7 13.7c-.6 0-1.2-.1-1.8-.2-.6-.2-1.1-.4-1.6-.7-.5-.3-1-.6-1.4-1-.4-.4-.7-.9-1-1.4-.3-.5-.6-1-.7-1.6C.3 8.2.3 7.6.3 7c0-.6.1-1.2.2-1.8.2-.6.4-1.1.7-1.6.3-.5.6-1 1-1.4.4-.4.9-.7 1.4-1 .5-.3 1-.6 1.6-.7C5.8.3 6.4.3 7 .3c.6 0 1.2.1 1.8.2.6.2 1.1.4 1.6.7.5.3 1 .6 1.4 1 .4.4.7.9 1 1.4.3.5.5 1 .7 1.6.2.6.3 1.2.3 1.8 0 .6-.1 1.2-.2 1.8-.2.6-.4 1.1-.7 1.6-.3.5-.6 1-1 1.4-.4.4-.9.7-1.4 1-.5.3-1 .5-1.6.7-.7.1-1.3.2-1.9.2zM7 1.1c-.5 0-1 .1-1.6.2-.4.2-.9.4-1.4.6-.4.3-.8.6-1.2 1l-.9 1.2c-.2.4-.4.9-.5 1.4-.2.5-.3 1-.3 1.5s.1 1 .2 1.5l.6 1.5c.5.9 1.2 1.6 2.1 2.1.9.5 1.9.8 3 .8.5 0 1-.1 1.5-.2s1-.3 1.4-.6c.9-.5 1.6-1.2 2.1-2.1.5-.9.8-1.9.8-3 0-.5-.1-1-.2-1.5s-.3-1-.6-1.4c-.5-.9-1.2-1.6-2.1-2.1-.8-.6-1.9-.9-2.9-.9zm-.5 4.6h.9v4.5h-.9V5.7zm0-1.9h.9v.9h-.9v-.9z"/></svg>