<svg xmlns="http://www.w3.org/2000/svg" viewBox="0 0 18 18"><defs><linearGradient id="a" x1="9" y1="13.704" x2="9" y2="1.277" gradientUnits="userSpaceOnUse"><stop offset="0" stop-color="#0078d4"/><stop offset=".817" stop-color="#5ea0ef"/></linearGradient><linearGradient id="b" x1="8.999" y1="16.723" x2="8.999" y2="4.174" gradientUnits="userSpaceOnUse"><stop offset="0" stop-color="#32bedd"/><stop offset=".113" stop-color="#3ccce9"/><stop offset=".292" stop-color="#47dbf5"/><stop offset=".504" stop-color="#4ee3fd"/><stop offset=".834" stop-color="#50e6ff"/></linearGradient></defs><path d="M17.767 9.812a3.941 3.941 0 00-3.419-3.787 4.965 4.965 0 00-5.114-4.748A5.094 5.094 0 004.366 4.6 4.7 4.7 0 00.233 9.12 4.771 4.771 0 005.17 13.7c.147 0 .292-.007.435-.018H13.6a.822.822 0 00.211-.032 3.987 3.987 0 003.956-3.838z" fill="url(#a)"/><path d="M12.5 9.127a1.446 1.446 0 000-2.041L10.017 4.6a1.437 1.437 0 00-2.036 0L5.5 7.086a1.446 1.446 0 000 2.041L7.565 11.2a.4.4 0 01.118.286v3.85a.492.492 0 00.144.348l.941.944a.325.325 0 00.461 0l.913-.915V15.7l.538-.538a.188.188 0 000-.266l-.387-.389a.205.205 0 010-.29l.387-.389a.187.187 0 000-.266l-.387-.389a.205.205 0 010-.29l.388-.389a.189.189 0 000-.266l-.539-.541v-.2zM9 5.2a.82.82 0 11-.817.819A.817.817 0 019 5.2z" fill="url(#b)"/><path d="M8.353 15.418a.176.176 0 00.3-.134v-3.116a.186.186 0 00-.081-.154.176.176 0 00-.272.154v3.116a.186.186 0 00.053.134zM7.23 7.916h3.642a.22.22 0 01.22.22v.042a.22.22 0 01-.22.22H7.23a.22.22 0 01-.22-.22v-.041a.221.221 0 01.221-.221zm0 .784h3.642a.22.22 0 01.22.22v.041a.221.221 0 01-.221.221H7.23a.22.22 0 01-.22-.22v-.041a.221.221 0 01.22-.221z" fill="#0078d4" opacity=".75"/></svg>