<svg xmlns="http://www.w3.org/2000/svg" viewBox="0 0 17.38 11.575"><defs><linearGradient id="a" x1="-1.672" y1="9.26" x2="4.676" y2="9.197" gradientUnits="userSpaceOnUse"><stop offset="0" stop-color="#5e9624"/><stop offset="1" stop-color="#76bc2d"/></linearGradient></defs><path d="M4.14.6h12.51a.728.728 0 01.73.725.728.728 0 01-.73.725H4.14a.728.728 0 01-.73-.725A.728.728 0 014.14.6zm0 4.38h12.51a.728.728 0 01.73.725.728.728 0 01-.73.725H4.14a.728.728 0 01-.73-.725.728.728 0 01.73-.725zm0 4.55h12.51a.728.728 0 01.73.725.728.728 0 01-.73.725H4.14a.728.728 0 01-.73-.725.728.728 0 01.73-.725z" fill="#8a8a8a"/><path d="M1.64 3.44a1.32 1.32 0 011.32 1.32 1.32 1.32 0 01-1.32 1.32A1.32 1.32 0 01.32 4.76a1.32 1.32 0 011.32-1.32zm0 4.39a1.32 1.32 0 011.32 1.32 1.32 1.32 0 01-1.32 1.32A1.32 1.32 0 01.32 9.15a1.32 1.32 0 011.32-1.32zm0 4.54a1.32 1.32 0 011.32 1.32 1.32 1.32 0 01-1.32 1.32 1.32 1.32 0 01-1.32-1.32 1.32 1.32 0 011.32-1.32zm0 .005A1.32 1.32 0 012.96 13.7a1.32 1.32 0 01-1.32 1.32A1.32 1.32 0 01.32 13.7a1.32 1.32 0 011.32-1.325z" transform="translate(-.32 -3.44)" fill="url(#a)"/></svg>