<svg xmlns="http://www.w3.org/2000/svg" viewBox="0 0 18 18"><defs><linearGradient id="a" x1="9" y1="17.66" x2="9" y2=".34" gradientUnits="userSpaceOnUse"><stop offset="0" stop-color="#0078d4"/><stop offset=".17" stop-color="#1c84dc"/><stop offset=".38" stop-color="#3990e4"/><stop offset=".59" stop-color="#4d99ea"/><stop offset=".8" stop-color="#5a9eee"/><stop offset="1" stop-color="#5ea0ef"/></linearGradient></defs><path d="M17.8 8.29L9.41.5a.61.61 0 00-.82 0L.2 8.29a.62.62 0 00.47 1.06h1.72a.3.3 0 01.3.3v7.4a.61.61 0 00.61.61h11.4a.61.61 0 00.61-.61v-7.4a.3.3 0 01.3-.3h1.72a.62.62 0 00.47-1.06z" fill="url(#a)"/><path d="M7.07 12.4h3.86a.36.36 0 01.32.38v4.88h-4.5v-4.88a.36.36 0 01.32-.38z" fill="#e6e6e6"/><path d="M.67 9.35h.53l7.39-6.86a.61.61 0 01.82 0l7.39 6.86h.53a.62.62 0 00.47-1.06L9.41.5a.61.61 0 00-.82 0L.2 8.29a.62.62 0 00.47 1.06z" fill="#005ba1"/></svg>