<svg xmlns="http://www.w3.org/2000/svg" viewBox="0 0 18 18"><defs><linearGradient id="a" x1="11.78" y1=".5" x2="11.78" y2="11.83" gradientUnits="userSpaceOnUse"><stop offset="0" stop-color="#32d4f5"/><stop offset=".23" stop-color="#31d0f1"/><stop offset=".46" stop-color="#2cc3e6"/><stop offset=".7" stop-color="#25afd4"/><stop offset=".94" stop-color="#1c92ba"/><stop offset="1" stop-color="#198ab3"/></linearGradient></defs><path d="M6.22 11.83H.67v-5.1a.57.57 0 01.57-.56h5zm5.56 0H6.22v5.67h5a.57.57 0 00.57-.57z" fill="#005ba1"/><path d="M11.78 11.83H6.22V6.17h5.56zm-5.56 0H.67v5.1a.57.57 0 00.57.57h5z" fill="#0078d4"/><path d="M11.78 6.17H6.22v-5.1A.57.57 0 016.79.5h5zm5.55 0h-5.55v5.66h5.09a.46.46 0 00.46-.45z" fill="#0078d4"/><path d="M17.33 6.17h-5.55V.5h5.09a.46.46 0 01.46.45zm-5.55 0H6.22v5.1a.57.57 0 00.57.56h5z" fill="url(#a)"/></svg>