<svg xmlns="http://www.w3.org/2000/svg" viewBox="0 0 18 18"><defs><linearGradient id="a" x1="5.05" y1="9.45" x2="5.05" y2="6.52" gradientTransform="matrix(1 0 0 -1 0 19.99)" gradientUnits="userSpaceOnUse"><stop offset="0" stop-color="#76bc2d"/><stop offset="1" stop-color="#5e9624"/></linearGradient><linearGradient id="b" x1="12.85" y1="9.43" x2="12.85" y2="6.5" gradientTransform="matrix(1 0 0 -1 0 19.97)" gradientUnits="userSpaceOnUse"><stop offset="0" stop-color="#76bc2d"/><stop offset="1" stop-color="#5e9624"/></linearGradient></defs><path d="M3.19 15.6a2.492 2.492 0 01-1.53-.38 1.7 1.7 0 01-.45-1.36v-3.53c0-.58-.23-.89-.71-.89v-.88c.48 0 .71-.31.71-.92V4.17a1.788 1.788 0 01.45-1.39 2.291 2.291 0 011.53-.38v.89c-.51 0-.79.27-.79.85v3.4c0 .78-.23 1.26-.74 1.46a1.419 1.419 0 01.74 1.46v3.37a1.257 1.257 0 00.17.68.743.743 0 00.58.2v.89zM14.81 2.4a2.492 2.492 0 011.53.38 1.7 1.7 0 01.45 1.36v3.53c0 .58.23.89.71.89v.88c-.48 0-.71.31-.71.92v3.43a1.8 1.8 0 01-.45 1.4 2.278 2.278 0 01-1.53.41v-.89c.51 0 .79-.27.79-.85v-3.4c0-.78.23-1.26.74-1.46a1.419 1.419 0 01-.74-1.46V4.17a1.257 1.257 0 00-.17-.68.743.743 0 00-.58-.2z" fill="#949494"/><path d="M9.41 8.35V7.08h-.9v1.27a.181.181 0 01-.18.18H5a.36.36 0 00-.36.36v1.65h.9v-.91a.18.18 0 01.17-.18h6.54a.181.181 0 01.18.18v.93h.89V8.89a.36.36 0 00-.35-.36H9.59a.181.181 0 01-.18-.18z" fill="#005ba1"/><rect x="3.58" y="10.54" width="2.94" height="2.94" rx=".27" fill="url(#a)"/><rect x="11.38" y="10.54" width="2.94" height="2.94" rx=".27" fill="url(#b)"/><path d="M10.326 3.81h-2.66a.3.3 0 00-.3.3v2.68a.294.294 0 00.293.295h2.668a.3.3 0 00.309-.279v-2.7a.3.3 0 00-.309-.3zm-.253 2.528a.2.2 0 01-.2.191H8.109a.2.2 0 01-.2-.191V4.56a.2.2 0 01.2-.2h1.734a.2.2 0 01.2.2z" fill="#0078d4"/><path d="M10.073 6.338a.2.2 0 01-.2.191H8.109a.2.2 0 01-.2-.191V4.56a.2.2 0 01.2-.2h1.734a.2.2 0 01.2.2z" fill="#fff"/></svg>