<svg xmlns="http://www.w3.org/2000/svg" viewBox="0 0 18 18"><defs><linearGradient id="a" x1="6.21" y1="7.1" x2="6.32" y2="17.48" gradientUnits="userSpaceOnUse"><stop offset="0" stop-color="#32d4f5"/><stop offset=".32" stop-color="#31d1f3"/><stop offset=".53" stop-color="#2ec9eb"/><stop offset=".7" stop-color="#29bade"/><stop offset=".86" stop-color="#22a5cb"/><stop offset="1" stop-color="#198ab3"/><stop offset="1" stop-color="#198ab3"/></linearGradient></defs><path d="M6.46.6h11.16a.37.37 0 01.38.34v8.59a.36.36 0 01-.38.34H6.46a.36.36 0 01-.38-.34V.94A.37.37 0 016.46.6z" fill="#e6e6e6"/><path d="M6.44.6h11.2a.35.35 0 01.36.32v1.3H6.08V.92A.35.35 0 016.44.6z" fill="#5ea0ef"/><path fill="#83b9f9" d="M6.08 2.22h3.98v3.83H6.08z"/><path fill="#0078d4" d="M10.04 2.22h3.98v3.83h-3.98z"/><path fill="#83b9f9" d="M14.02 2.22H18v3.83h-3.98z"/><path d="M17.43 9.91h-3.41V6.04h4V9.3a.57.57 0 01-.59.61z" fill="#0078d4"/><path fill="#83b9f9" d="M14.05 9.87h-3.98V6.04h3.98z"/><path fill="#0078d4" d="M10.07 9.87H6.09V6.04h3.98z"/><path d="M11.23 17.4H1.39c-.31 0-.5-.5-.32-.76l3.39-5a.34.34 0 00.07-.22V8.2a.2.2 0 00-.19-.2h-.19a.39.39 0 01-.39-.39v-.17a.39.39 0 01.39-.38h4.32a.38.38 0 01.39.38v.18a.38.38 0 01-.39.38h-.18a.2.2 0 00-.2.19v3.28a.41.41 0 00.07.22l3.4 4.94c.17.27-.01.77-.33.77z" fill="url(#a)"/><path d="M2.69 16l2.46-3.59a.86.86 0 00.16-.51v-1.5a.29.29 0 01.29-.29H7a.28.28 0 01.28.29V12a.6.6 0 00.11.34L9.91 16a.21.21 0 01-.18.34H2.86a.21.21 0 01-.17-.34z" fill="#fff"/></svg>