<svg xmlns="http://www.w3.org/2000/svg" viewBox="0 0 18 18"><defs><linearGradient id="a" x1="8.95" y1="12.85" x2="8.95" y2=".72" gradientUnits="userSpaceOnUse"><stop offset="0" stop-color="#0078d4"/><stop offset=".82" stop-color="#5ea0ef"/></linearGradient></defs><path d="M17.51 9.05a3.85 3.85 0 00-3.34-3.7 4.84 4.84 0 00-5-4.63A5 5 0 004.42 4a4.58 4.58 0 00-4 4.42 4.66 4.66 0 004.82 4.47h8.44a3.9 3.9 0 003.83-3.84z" fill="url(#a)"/><path d="M9.4 8.26a4.51 4.51 0 10-4.51 4.59H9.4V8.26z" fill="#50e6ff"/><path d="M11.61 14.91l-2.13 2.14a.12.12 0 01-.16 0l-2.13-2.14a.1.1 0 01.08-.18h1.25a.11.11 0 00.11-.11v-2.76a.11.11 0 01.11-.11h1.32a.11.11 0 01.11.11v2.76a.11.11 0 00.11.11h1.25a.1.1 0 01.08.18z" fill="#0078d4"/><path d="M7.19 9.66L9.4 7.45l2.21 2.21a.11.11 0 01-.08.19h-1.25a.11.11 0 00-.11.11v2.86H8.63V10a.11.11 0 00-.11-.11H7.27a.11.11 0 01-.08-.23z" fill="#fff"/></svg>