<svg xmlns="http://www.w3.org/2000/svg" viewBox="0 0 16 16"><circle fill="#8A2DA5" cx="8" cy="8" r="6.987"/><path fill="#FFF" d="M8 1.013A6.987 6.987 0 113.059 12.94 6.987 6.987 0 018 1.013M8 0a7.948 7.948 0 00-5.657 2.343c-3.119 3.119-3.119 8.194 0 11.313C3.854 15.168 5.863 16 8 16s4.146-.832 5.657-2.343c3.119-3.119 3.119-8.194 0-11.313A7.944 7.944 0 008 0z"/><path fill="#FFF" d="M12.045 3.956s-1.518-.072-2.56.971L7.231 7.181s-1.694-.423-2.523.406L2.793 9.505l2.97-.839-1.377 1.889 1.059 1.059 1.895-1.367-.844 2.959 1.919-1.915c.839-.839.41-2.527.41-2.527l2.249-2.249c1.041-1.042.971-2.559.971-2.559z"/><circle fill="#8A2DA5" cx="10.184" cy="5.816" r=".655"/></svg>