<svg xmlns="http://www.w3.org/2000/svg" viewBox="0 0 16 16"><path fill="#7A7A7A" d="M8 15.4C3.92 15.4.6 12.081.6 8 .6 3.92 3.92.6 8 .6c4.081 0 7.4 3.32 7.4 7.4 0 4.081-3.319 7.4-7.4 7.4z"/><path fill="#FFF" d="M8 1.013a6.987 6.987 0 110 13.974A6.987 6.987 0 018 1.013M8 0C3.589 0 0 3.589 0 8s3.589 8 8 8 8-3.589 8-8-3.589-8-8-8z"/><path fill="#FFF" d="M10.329 5.935c0 .699-.373 1.351-1.071 1.956-.28.233-.513.42-.606.606-.093.14-.14.373-.14.606v.279H7.208v-.419c0-.606.233-1.118.745-1.537.326-.233.513-.466.606-.606s.186-.373.186-.606-.093-.372-.233-.512a.85.85 0 00-.652-.28c-.559 0-1.071.233-1.584.652v-1.49c.512-.326 1.118-.466 1.77-.466.699 0 1.304.186 1.677.512.42.28.606.746.606 1.305zm-1.553 5.233c0 .233-.093.466-.279.606s-.419.233-.652.233c-.279 0-.466-.093-.652-.233s-.279-.373-.279-.606.093-.466.279-.606a1.14 1.14 0 01.699-.233c.28 0 .512.093.652.233a.89.89 0 01.232.606z"/></svg>