<svg xmlns="http://www.w3.org/2000/svg" viewBox="0 0 18 18"><defs><linearGradient id="a" x1="9" y1=".5" x2="9" y2="17.5" gradientUnits="userSpaceOnUse"><stop offset="0" stop-color="#c69aeb"/><stop offset=".09" stop-color="#bb90e4"/><stop offset=".49" stop-color="#926bc9"/><stop offset=".81" stop-color="#7854b8"/><stop offset="1" stop-color="#6f4bb2"/></linearGradient></defs><path d="M8.71 17.42l-6.92-4A.56.56 0 011.5 13V5a.56.56 0 01.29-.49l6.92-4a.55.55 0 01.58 0l6.92 4a.56.56 0 01.29.49v8a.56.56 0 01-.29.49l-6.92 4a.55.55 0 01-.58-.07z" fill="url(#a)"/><path d="M12.46 5.54a4.89 4.89 0 100 6.92 4.9 4.9 0 000-6.92" fill="#f2f2f2"/><path d="M11.75 6.24a3.9 3.9 0 100 5.52 3.91 3.91 0 000-5.52" fill="#0078d4"/><path d="M11 9.23a.27.27 0 000-.47l-3.08-2a.31.31 0 00-.46.24v4a.31.31 0 00.47.24z" fill="#f2f2f2"/></svg>