<svg xmlns="http://www.w3.org/2000/svg" width="172" height="172" viewBox="0 0 172 172">
  <g fill="none" fill-rule="evenodd" transform="translate(1 1)">
    <path stroke="#03B4EE" stroke-width="5" d="M156.2812,84.9481 C156.2812,45.5521 124.3442,13.6141 84.9482,13.6141 C45.5522,13.6141 13.6152,45.5521 13.6152,84.9481 C13.6152,124.3441 45.5522,156.2811 84.9482,156.2811 C124.3442,156.2811 156.2812,124.3441 156.2812,84.9481 Z"/>
    <path stroke="#03B4EE" stroke-dasharray="8" stroke-width="2" d="M169.4482,84.9481 C169.4482,38.2802138 131.616286,0.4483 84.9484,0.4483 C38.2794568,0.4483 0.4486,38.2802138 0.4486,84.9481 C0.4486,131.615986 38.2794568,169.4479 84.9484,169.4479 C131.616286,169.4479 169.4482,131.615986 169.4482,84.9481 Z" opacity=".2"/>
    <path fill="#03B4EE" fill-rule="nonzero" d="M92.1718,90.9872 L135.6608,56.4202 C136.0948,56.0752 135.7188,55.4242 135.2028,55.6282 L83.5228,76.0062 C82.5878,76.2222 81.6648,76.5772 80.7848,77.0852 C76.2218,79.7192 74.5558,85.3782 77.0638,89.7222 C79.5718,94.0672 85.3048,95.4532 89.8678,92.8182 C90.7478,92.3102 91.5178,91.6882 92.1718,90.9872"/>
    <path fill="#03B4EE" fill-rule="nonzero" d="M103.245,49.7274 L111.741,33.0524 C106.31,30.2464 100.416,28.2814 94.252,27.2894 L91.323,45.7774 C95.526,46.4584 99.546,47.8034 103.245,49.7274 M120.5585,67.3631 L137.2375,58.8651 C134.4575,53.2971 130.8265,48.2851 126.5465,43.9531 L113.3135,57.1861 C116.2175,60.1441 118.6815,63.5631 120.5585,67.3631 M45.745,91.1786 C45.1,87.1136 45.099,83.0946 45.663,79.2256 L27.176,76.2966 C26.312,82.0586 26.298,88.0466 27.258,94.1076 C27.284,94.2726 27.321,94.4336 27.349,94.5986 L45.835,91.6706 C45.807,91.5056 45.77,91.3446 45.745,91.1786 M124.0966,91.6483 L142.5836,94.5763 C143.5666,88.6833 143.6586,82.5443 142.7276,76.3243 L124.2416,79.2523 C124.8566,83.4783 124.7796,87.6473 124.0966,91.6483 M56.6796,57.1034 L43.4466,43.8704 C39.1146,48.2524 35.4996,53.3014 32.7346,58.8114 L49.4086,67.3074 C51.2826,63.5454 53.7346,60.0974 56.6796,57.1034 M78.7489,45.7528 L75.8209,27.2658 C69.5419,28.2608 63.6649,30.2328 58.2999,32.9828 L66.7969,49.6618 C70.4549,47.7798 74.4649,46.4318 78.7489,45.7528" opacity=".2"/>
  </g>
</svg>
